<?xml version="1.0" encoding="UTF-8"?>
<!-- Generator: visioncortex VTracer 0.6.4 -->
<svg version="1.1" xmlns="http://www.w3.org/2000/svg" width="512" height="435">
<path d="M0 0 C168.96 0 337.92 0 512 0 C512 143.55 512 287.1 512 435 C343.04 435 174.08 435 0 435 C0 291.45 0 147.9 0 0 Z " fill="#FCFCFC" transform="translate(0,0)"/>
<path d="M0 0 C2.833 2.164 5.615 4.341 8 7 C8 7.66 8 8.32 8 9 C8.66 9 9.32 9 10 9 C11.542 10.906 12.938 12.79 14.312 14.812 C14.715 15.405 15.118 15.997 15.534 16.608 C24.109 29.495 29.546 45.389 26.626 60.997 C25.232 67.482 23.615 73.887 21 80 C20.67 80 20.34 80 20 80 C19.944 78.476 19.944 78.476 19.887 76.922 C19.064 58.445 14.29 39.822 0.18 26.746 C-13.99 15.395 -29.756 8.728 -48 8 C-49.485 8.495 -49.485 8.495 -51 9 C-50.308 8.954 -49.616 8.907 -48.902 8.859 C-32.519 8.255 -15.618 14.485 -3 25 C-3 25.66 -3 26.32 -3 27 C-2.43 27.231 -1.86 27.461 -1.273 27.699 C7.462 32.697 12.792 43.869 16 53 C18.962 64.04 20.729 74.96 17 86 C15.062 89.312 15.062 89.312 13 92 C12.464 92.784 11.928 93.567 11.375 94.375 C10.921 94.911 10.467 95.447 10 96 C9.34 96 8.68 96 8 96 C8 96.66 8 97.32 8 98 C7.34 98 6.68 98 6 98 C6 98.66 6 99.32 6 100 C4.115 101.52 2.25 102.895 0.25 104.25 C-0.341 104.651 -0.933 105.052 -1.542 105.466 C-20.022 117.77 -40.731 122.306 -62.711 118.234 C-76.384 115.228 -90.865 108.854 -101 99 C-101 98.34 -101 97.68 -101 97 C-101.66 97 -102.32 97 -103 97 C-103 96.34 -103 95.68 -103 95 C-103.66 95 -104.32 95 -105 95 C-106.542 93.094 -107.938 91.21 -109.312 89.188 C-109.914 88.304 -109.914 88.304 -110.527 87.403 C-115.761 79.541 -120.624 71.729 -119 62 C-114.985 43.136 -105.341 29.473 -89.293 18.938 C-77.884 12.225 -65.293 8.206 -52 9 C-56.396 7.763 -60.163 8.261 -64.562 9.125 C-65.622 9.331 -65.622 9.331 -66.702 9.542 C-84.05 13.162 -99.957 23.178 -110.312 37.625 C-114.033 43.457 -116.065 49.357 -117.992 55.945 C-119 59 -119 59 -121 61 C-123.548 44.793 -119.575 28.669 -110.188 15.25 C-83.245 -19.64 -35.757 -23.654 0 0 Z " fill="#FFFFFF" transform="translate(318,165)"/>
<path d="M0 0 C13.129 10.898 21.443 24.595 23.312 41.75 C23.766 53.886 19.996 64.497 12.18 73.789 C2.714 83.73 -9.561 87.769 -23.062 88.125 C-39.498 88.221 -53.514 81.212 -65.367 70.102 C-76.006 59.319 -82.344 46.705 -82.785 31.352 C-82.198 19.3 -78.176 8.157 -69.5 -0.41 C-49.106 -17.895 -20.828 -15.332 0 0 Z " fill="#F3F3F3" transform="translate(205.6875,287.25)"/>
<path d="M0 0 C11.072 8.396 20.139 17.924 26.812 30.133 C27.181 30.766 27.55 31.399 27.93 32.051 C36.941 48.431 38.631 70.374 33.789 88.323 C26.95 110.857 11.854 129.185 -8.834 140.265 C-17.055 144.516 -25.142 147.183 -34.188 149.133 C-34.967 149.308 -35.746 149.483 -36.549 149.663 C-60.085 153.851 -84.339 148.068 -104.191 135.262 C-108.906 131.912 -113.098 128.216 -117.188 124.133 C-117.958 123.374 -118.729 122.614 -119.523 121.832 C-134.127 106.606 -141.768 86.145 -141.541 65.121 C-140.982 48.651 -135.77 33.467 -126.188 20.133 C-125.542 19.228 -124.896 18.323 -124.23 17.391 C-112.194 1.625 -94.392 -9.265 -75.188 -13.867 C-74.459 -14.042 -73.731 -14.217 -72.981 -14.398 C-47.805 -19.997 -21.062 -14.732 0 0 Z M-111.188 25.133 C-122.474 37.548 -127.108 53.636 -127.188 70.133 C-126.903 72.14 -126.585 74.144 -126.188 76.133 C-123.506 73.451 -123.171 70.962 -122.125 67.32 C-116.943 50.813 -105.096 38.909 -89.969 30.926 C-80.187 26.094 -69.159 22.855 -58.188 23.133 C-57.858 23.463 -57.528 23.793 -57.188 24.133 C-57.77 24.098 -58.353 24.063 -58.953 24.027 C-74.471 23.515 -89.142 29.623 -101.188 39.133 C-101.971 39.752 -102.755 40.37 -103.562 41.008 C-114.988 50.58 -121.42 62.638 -124.188 77.133 C-124.341 77.861 -124.494 78.589 -124.652 79.34 C-125.693 88.89 -118.164 99.702 -112.812 107.133 C-111.946 108.123 -111.08 109.113 -110.188 110.133 C-109.528 110.133 -108.868 110.133 -108.188 110.133 C-108.188 110.793 -108.188 111.453 -108.188 112.133 C-107.528 112.133 -106.868 112.133 -106.188 112.133 C-106.188 112.793 -106.188 113.453 -106.188 114.133 C-87.997 130.259 -66.773 135.072 -43.044 134.308 C-27.025 133.327 -11.114 125.72 0.812 115.133 C0.812 114.473 0.812 113.813 0.812 113.133 C1.472 113.133 2.132 113.133 2.812 113.133 C2.812 112.473 2.812 111.813 2.812 111.133 C3.472 111.133 4.132 111.133 4.812 111.133 C6.334 109.521 6.334 109.521 7.812 107.445 C8.586 106.419 8.586 106.419 9.375 105.371 C14.718 97.051 14.816 85.619 12.812 76.133 C9.535 62.783 4.031 51.554 -6.188 42.133 C-6.847 42.133 -7.507 42.133 -8.188 42.133 C-8.188 41.473 -8.188 40.813 -8.188 40.133 C-21.74 29.247 -38.738 23.047 -56.188 24.133 C-43.66 20.949 -29.103 26.971 -18.082 32.766 C-2.542 42.19 7.577 55.219 12.5 72.695 C14.26 80.091 14.534 87.564 14.812 95.133 C17.379 92.567 17.834 90.35 18.875 86.883 C19.217 85.764 19.558 84.645 19.91 83.492 C24.041 68.115 21.781 52.106 14.438 38.07 C10.178 30.702 10.178 30.702 4.812 24.133 C4.153 24.133 3.493 24.133 2.812 24.133 C2.589 23.562 2.366 22.991 2.137 22.402 C-4.027 11.839 -21.076 5.428 -32.188 2.258 C-61.335 -5.122 -90.383 3.833 -111.188 25.133 Z " fill="#CFCFCF" transform="translate(323.1875,149.8671875)"/>
<path d="M0 0 C10.096 9.082 14.132 22.121 15.023 35.242 C15.234 52.844 8.67 67.557 -3.188 80.262 C-12.428 89.141 -23.682 93.551 -36.375 93.949 C-47.872 93.683 -58.026 89.594 -66.098 81.289 C-75.643 70.031 -79.589 57.184 -79.25 42.488 C-77.379 24.663 -69.255 10.156 -55.625 -1.301 C-37.93 -14.432 -17.018 -13.073 0 0 Z " fill="#D6D6D6" transform="translate(439.9375,223.48828125)"/>
<path d="M0 0 C1.056 0.008 1.056 0.008 2.133 0.017 C12.41 0.257 21.529 4.162 29.137 11.164 C39.262 22.189 42.852 35.295 42.402 50.168 C40.855 67.708 32.065 81.867 18.875 93.125 C8.523 100.754 -3.48 103.359 -16.062 101.625 C-21.224 100.619 -25.434 99.111 -29.875 96.312 C-30.53 95.926 -31.185 95.539 -31.859 95.141 C-40.882 89.195 -46.488 79.269 -49.25 68.996 C-52.088 52.27 -49.4 36.547 -39.875 22.312 C-29.782 9.393 -16.965 -0.143 0 0 Z " fill="#E7E7E7" transform="translate(135.875,119.6875)"/>
<path d="M0 0 C3.583 2.78 6.817 5.773 10 9 C10.721 9.71 11.441 10.421 12.184 11.152 C21.291 20.673 25.839 31.834 26.375 44.875 C26.128 55.133 22.595 62.485 15.5 69.836 C5.183 78.766 -7.47 79.943 -20.539 79.243 C-35.91 77.727 -49.269 69.713 -60 59 C-60.723 58.288 -61.446 57.577 -62.191 56.844 C-71.117 47.495 -75.863 36.41 -76.312 23.562 C-76.062 13.018 -72.507 5.44 -65.066 -1.91 C-46.595 -17.874 -18.744 -12.231 0 0 Z " fill="#E2E2E2" transform="translate(385,80)"/>
<path d="M0 0 C6.581 5.374 12.461 12.411 14 21 C14.959 34.365 12.92 43.402 4.125 53.75 C-7.008 65.538 -22.771 71.032 -38.668 71.938 C-55.688 72.257 -70.288 68.209 -82.805 56.32 C-89.206 49.555 -92.223 41.881 -93.438 32.688 C-91.798 18.871 -86.067 10.025 -75.75 1.105 C-54.184 -15.406 -21.892 -15.775 0 0 Z " fill="#E5E5E5" transform="translate(270,56)"/>
<path d="M0 0 C0.732 0.277 1.464 0.554 2.219 0.84 C12.364 5.208 20.359 14.26 24.992 24.109 C29.449 35.74 28.598 47.49 23.812 58.809 C16.62 73.213 5.331 81.971 -9.312 87.875 C-10.529 88.246 -11.746 88.618 -13 89 C-13.645 89.202 -14.289 89.405 -14.953 89.613 C-28.356 93.262 -43.72 91.514 -56.172 85.457 C-66.49 79.229 -75.286 70.571 -78.66 58.672 C-78.772 58.12 -78.884 57.568 -79 57 C-80.649 58.789 -82.294 60.581 -83.938 62.375 C-84.406 62.883 -84.875 63.391 -85.357 63.914 C-87.977 66.743 -87.977 66.743 -90 70 C-90.66 70 -91.32 70 -92 70 C-92.309 70.619 -92.619 71.238 -92.938 71.875 C-93.625 73.25 -94.312 74.625 -95 76 C-95.66 76 -96.32 76 -97 76 C-97.268 76.619 -97.536 77.238 -97.812 77.875 C-99 80 -99 80 -102 82 C-100.489 77.168 -97.741 74.075 -94.438 70.375 C-93.349 69.131 -92.262 67.886 -91.176 66.641 C-90.638 66.026 -90.1 65.412 -89.545 64.779 C-84.128 58.542 -78.945 52.122 -74.191 45.363 C-73.798 44.913 -73.405 44.464 -73 44 C-72.34 44 -71.68 44 -71 44 C-70.691 43.381 -70.381 42.762 -70.062 42.125 C-69.375 40.75 -68.688 39.375 -68 38 C-67.34 38 -66.68 38 -66 38 C-65.743 37.434 -65.487 36.868 -65.223 36.285 C-63.412 32.901 -60.97 30.094 -58.559 27.121 C-56.827 24.991 -56.827 24.991 -56 22 C-58.97 21.67 -61.94 21.34 -65 21 C-64.67 20.34 -64.34 19.68 -64 19 C-61.687 18.33 -61.687 18.33 -58.645 17.746 C-57.547 17.531 -56.449 17.317 -55.318 17.096 C-54.161 16.878 -53.004 16.661 -51.812 16.438 C-50.675 16.216 -49.537 15.995 -48.365 15.768 C-43.253 14.78 -38.139 13.842 -33 13 C-33 13.99 -33 14.98 -33 16 C-41.91 18.475 -41.91 18.475 -51 21 C-51.495 23.475 -51.495 23.475 -52 26 C-45.183 25.591 -39.312 23.453 -32.977 21.059 C-30 20 -30 20 -28 20 C-28.09 19.443 -28.18 18.886 -28.273 18.312 C-28.402 15.387 -28.214 13.695 -27 11 C-23.623 8.477 -20.181 6.597 -16.418 4.727 C-13.65 3.328 -11.382 1.956 -9 0 C-12.173 -3.173 -21.485 -1.991 -25.781 -2.016 C-41.115 -1.184 -56.075 5.804 -66.48 17.121 C-74.479 27.011 -76.614 37.786 -79 50 C-79.33 50 -79.66 50 -80 50 C-80.725 37.195 -76.037 25.364 -67.688 15.75 C-50.051 -2.815 -24.02 -9.905 0 0 Z " fill="#F1F1F1" transform="translate(337,311)"/>
<path d="M0 0 C3.56 3.457 6.832 7.071 8 12 C7.703 15.957 6.296 18.786 4 22 C3.34 22 2.68 22 2 22 C1.505 23.485 1.505 23.485 1 25 C-6.384 29.778 -13.151 32.03 -22 31 C-30.277 28.94 -35.744 24.854 -40.457 17.828 C-42.135 14.739 -43.264 12.39 -42.594 8.859 C-39.729 2.388 -34.653 -1.626 -28.5 -4.812 C-18.153 -8.323 -8.522 -6.967 0 0 Z " fill="#FFFFFF" transform="translate(325,362)"/>
<path d="M0 0 C7.21 4.197 10.893 9.322 13.77 17.074 C14.506 20.121 14.333 22.387 12.84 25.137 C8.034 31.284 2.139 34.233 -5.512 35.375 C-12.767 35.739 -18.618 33.191 -25 30 C-25 29.34 -25 28.68 -25 28 C-25.605 27.754 -26.209 27.508 -26.832 27.254 C-31.334 24.65 -33.191 19.419 -34.785 14.652 C-35.48 11.247 -35.634 9.051 -33.805 6.02 C-24.974 -3.612 -11.604 -6.277 0 0 Z " fill="#FFFFFF" transform="translate(411,273)"/>
<path d="M0 0 C5.373 3.596 9.035 7.765 11 14 C11.398 18.674 9.347 21.135 6.5 24.625 C0.502 30.92 -4.823 33.167 -13.5 33.5 C-21.486 33.211 -27.05 31.098 -32.875 25.625 C-36.578 21.577 -38.916 18.257 -39.125 12.625 C-37.185 6.375 -32.906 1.897 -27.312 -1.438 C-18.212 -5.73 -8.592 -5.23 0 0 Z " fill="#FFFFFF" transform="translate(192,336)"/>
<path d="M0 0 C12.539 11.644 20.708 27.515 21.594 44.652 C22.152 62.958 16.903 78.783 4.738 92.727 C-9.226 107.253 -28.418 116.348 -48.688 117.25 C-49.364 117.29 -50.041 117.33 -50.738 117.371 C-72.574 118.05 -93.629 109.854 -109.688 95.25 C-122.391 82.6 -129.47 66.459 -130.125 48.5 C-129.596 28.688 -121.807 12.907 -107.688 -0.75 C-77.762 -28.986 -30.183 -25.317 0 0 Z M-112.688 6.25 C-123.974 18.666 -128.608 34.753 -128.688 51.25 C-128.403 53.258 -128.085 55.262 -127.688 57.25 C-125.006 54.569 -124.671 52.08 -123.625 48.438 C-118.443 31.93 -106.596 20.026 -91.469 12.043 C-81.687 7.211 -70.659 3.972 -59.688 4.25 C-59.358 4.58 -59.028 4.91 -58.688 5.25 C-59.27 5.215 -59.853 5.18 -60.453 5.145 C-75.971 4.632 -90.642 10.74 -102.688 20.25 C-103.471 20.869 -104.255 21.488 -105.062 22.125 C-116.488 31.697 -122.92 43.756 -125.688 58.25 C-125.841 58.978 -125.994 59.707 -126.152 60.457 C-127.193 70.007 -119.664 80.819 -114.312 88.25 C-113.446 89.24 -112.58 90.23 -111.688 91.25 C-111.028 91.25 -110.368 91.25 -109.688 91.25 C-109.688 91.91 -109.688 92.57 -109.688 93.25 C-109.028 93.25 -108.368 93.25 -107.688 93.25 C-107.688 93.91 -107.688 94.57 -107.688 95.25 C-89.497 111.376 -68.273 116.189 -44.544 115.425 C-28.525 114.445 -12.614 106.838 -0.688 96.25 C-0.688 95.59 -0.688 94.93 -0.688 94.25 C-0.028 94.25 0.632 94.25 1.312 94.25 C1.312 93.59 1.312 92.93 1.312 92.25 C1.972 92.25 2.632 92.25 3.312 92.25 C4.834 90.638 4.834 90.638 6.312 88.562 C7.086 87.536 7.086 87.536 7.875 86.488 C13.218 78.169 13.316 66.736 11.312 57.25 C8.035 43.9 2.531 32.672 -7.688 23.25 C-8.347 23.25 -9.007 23.25 -9.688 23.25 C-9.688 22.59 -9.688 21.93 -9.688 21.25 C-23.24 10.365 -40.238 4.164 -57.688 5.25 C-45.16 2.066 -30.603 8.088 -19.582 13.883 C-4.042 23.307 6.077 36.336 11 53.812 C12.76 61.208 13.034 68.681 13.312 76.25 C15.879 73.684 16.334 71.468 17.375 68 C17.717 66.881 18.058 65.762 18.41 64.609 C22.541 49.232 20.281 33.223 12.938 19.188 C8.678 11.819 8.678 11.819 3.312 5.25 C2.653 5.25 1.993 5.25 1.312 5.25 C1.089 4.679 0.866 4.108 0.637 3.52 C-5.527 -7.044 -22.576 -13.455 -33.688 -16.625 C-62.835 -24.005 -91.883 -15.05 -112.688 6.25 Z " fill="#000000" transform="translate(324.6875,168.75)"/>
<path d="M0 0 C18.381 0.593 33.873 7.07 46.634 20.441 C52.562 27.206 56.856 35.281 59 44 C58.505 44.99 58.505 44.99 58 46 C52.29 44.472 47.374 43.067 43.996 37.984 C42.909 35.689 41.831 33.39 40.762 31.086 C38.394 26.938 35.783 25.5 31.617 23.379 C24.456 19.606 18.589 13.959 13.473 7.762 C12.062 6.074 10.578 4.531 9 3 C13.256 13.375 21.95 19.895 31 26 C30.34 26.99 29.68 27.98 29 29 C18.081 25.824 10.337 17.137 4 8 C3.649 7.086 3.299 6.172 2.938 5.23 C2.628 4.494 2.319 3.758 2 3 C1.01 2.67 0.02 2.34 -1 2 C-0.67 1.34 -0.34 0.68 0 0 Z " fill="#FFFFFF" transform="translate(167,276)"/>
<path d="M0 0 C13.129 10.898 21.443 24.595 23.312 41.75 C23.766 53.886 19.996 64.497 12.18 73.789 C2.714 83.73 -9.561 87.769 -23.062 88.125 C-39.498 88.221 -53.514 81.212 -65.367 70.102 C-76.006 59.319 -82.344 46.705 -82.785 31.352 C-82.198 19.3 -78.176 8.157 -69.5 -0.41 C-49.106 -17.895 -20.828 -15.332 0 0 Z M-69.871 1.742 C-78.603 11.394 -81.594 22.82 -81.094 35.586 C-80.227 47.194 -75.227 56.996 -67.688 65.75 C-67.082 66.467 -66.476 67.183 -65.852 67.922 C-55.337 79.368 -40.596 85.937 -25.207 86.906 C-12.521 87.336 0.268 83.151 9.719 74.48 C17.748 65.762 21.485 56.217 21.375 44.438 C21.366 43.183 21.357 41.929 21.348 40.637 C21.336 39.684 21.324 38.731 21.312 37.75 C20.574 37.47 19.835 37.191 19.074 36.902 C9.586 33.153 0.505 29.122 -5.688 20.75 C-2.975 22.363 -0.314 23.999 2.312 25.75 C1 21.813 -0.607 19.523 -3.688 16.75 C-4.409 17.266 -5.131 17.781 -5.875 18.312 C-9.238 20.031 -10.147 19.787 -13.688 18.75 C-15.934 17.516 -15.934 17.516 -18.125 16 C-19.206 15.265 -19.206 15.265 -20.309 14.516 C-25.969 10.314 -30.064 6.343 -34.062 0.562 C-34.512 -0.066 -34.962 -0.694 -35.426 -1.342 C-38.688 -5.977 -38.688 -5.977 -38.688 -8.25 C-38.028 -8.25 -37.368 -8.25 -36.688 -8.25 C-36.347 -7.21 -36.347 -7.21 -36 -6.148 C-34.394 -2.601 -32.192 0.185 -29.688 3.125 C-29.203 3.696 -28.718 4.266 -28.219 4.854 C-23.226 10.551 -17.364 16.281 -9.688 17.75 C-8.697 16.265 -8.697 16.265 -7.688 14.75 C-8.545 14.121 -9.402 13.492 -10.285 12.844 C-27.321 0.165 -27.321 0.165 -29.688 -8.25 C-27.78 -6.419 -25.951 -4.575 -24.285 -2.52 C-18.544 4.513 -11.265 10.864 -2.875 14.5 C0.857 17.134 1.585 19.096 3.5 23.188 C6.142 28.581 8.16 30.792 13.75 33.062 C15.59 33.67 17.441 34.249 19.312 34.75 C20.614 32.7 20.614 32.7 19.598 30.098 C13.03 12.452 1.928 1.347 -14.855 -6.621 C-33.144 -14.743 -55.086 -12.058 -69.871 1.742 Z " fill="#000000" transform="translate(205.6875,287.25)"/>
<path d="M0 0 C0.732 0.277 1.464 0.554 2.219 0.84 C12.364 5.208 20.359 14.26 24.992 24.109 C29.449 35.74 28.598 47.49 23.812 58.809 C16.62 73.213 5.331 81.971 -9.312 87.875 C-10.529 88.246 -11.746 88.618 -13 89 C-13.645 89.202 -14.289 89.405 -14.953 89.613 C-28.356 93.262 -43.72 91.514 -56.172 85.457 C-66.012 79.518 -73.728 71.826 -78 61 C-78.156 58.168 -78.156 58.168 -78 56 C-76.103 58.845 -74.797 61.586 -73.375 64.688 C-67.787 75.784 -59.524 81.682 -48 86 C-31.743 90.841 -16.155 89.523 -1 81.75 C11.271 74.528 19.838 64.674 24.34 51.012 C26.794 39.816 25.524 28.257 19.422 18.469 C17.725 16.176 15.949 14.082 14 12 C13.488 11.447 12.976 10.894 12.449 10.324 C7.235 5.317 0.575 2.788 -6 0 C-6.197 0.572 -6.394 1.145 -6.598 1.734 C-8.554 4.894 -11.312 6.405 -14.438 8.25 C-15.316 8.795 -15.316 8.795 -16.213 9.352 C-19.023 11.049 -20.66 12 -24 12 C-24.186 13.609 -24.186 13.609 -24.375 15.25 C-25.28 20.681 -25.28 20.681 -27 23 C-29.674 24.264 -32.149 25.264 -34.938 26.188 C-35.699 26.449 -36.46 26.71 -37.244 26.979 C-43.123 28.911 -48.788 29.973 -55 30 C-54.67 29.01 -54.34 28.02 -54 27 C-51.309 26.183 -48.747 25.551 -46 25 C-44.449 24.665 -42.898 24.326 -41.348 23.984 C-40.224 23.738 -40.224 23.738 -39.079 23.486 C-35.28 22.598 -31.662 21.332 -28 20 C-28.135 19.165 -28.135 19.165 -28.273 18.312 C-28.402 15.387 -28.214 13.695 -27 11 C-23.623 8.477 -20.181 6.597 -16.418 4.727 C-13.65 3.328 -11.382 1.956 -9 0 C-12.173 -3.173 -21.485 -1.991 -25.781 -2.016 C-41.115 -1.184 -56.075 5.804 -66.48 17.121 C-74.479 27.011 -76.614 37.786 -79 50 C-79.33 50 -79.66 50 -80 50 C-80.725 37.195 -76.037 25.364 -67.688 15.75 C-50.051 -2.815 -24.02 -9.905 0 0 Z " fill="#000000" transform="translate(337,311)"/>
<path d="M0 0 C6.542 4.627 11.457 11.371 14 19 C14.143 20.621 14.22 22.248 14.25 23.875 C14.276 24.718 14.302 25.561 14.328 26.43 C13.746 30.993 11.754 33.364 8.285 36.289 C7.222 37.06 6.158 37.831 5.062 38.625 C-4.881 46.032 -13.723 54.28 -21.817 63.673 C-26.051 68.462 -30.575 71.335 -37 72 C-47.775 70.529 -58.29 63.392 -65 55 C-67.315 51.077 -67.534 47.469 -67 43 C-65.801 38.467 -64.115 34.56 -61 31 C-60.34 31.33 -59.68 31.66 -59 32 C-59.619 32.846 -60.237 33.691 -60.875 34.562 C-63.785 38.973 -64.966 43.135 -65.062 48.438 C-63.606 53.32 -60.789 56.631 -57 60 C-56.34 60 -55.68 60 -55 60 C-53.646 58.491 -52.366 56.916 -51.125 55.312 C-50.447 54.442 -49.769 53.572 -49.07 52.676 C-47.657 50.849 -46.257 49.013 -44.867 47.168 C-44.251 46.453 -43.635 45.737 -43 45 C-42.34 45 -41.68 45 -41 45 C-41 44.34 -41 43.68 -41 43 C-40.34 43 -39.68 43 -39 43 C-38.794 42.464 -38.588 41.928 -38.375 41.375 C-36.467 38.08 -33.952 35.406 -31 33 C-30.34 33 -29.68 33 -29 33 C-29 32.34 -29 31.68 -29 31 C-28.34 31 -27.68 31 -27 31 C-27 30.34 -27 29.68 -27 29 C-25.451 27.583 -23.832 26.242 -22.188 24.938 C-21.187 24.138 -20.187 23.339 -19.156 22.516 C-18.634 22.101 -18.112 21.687 -17.574 21.26 C-15.085 19.268 -12.641 17.223 -10.188 15.188 C-0.168 7 -0.168 7 3 7 C2.505 6.216 2.01 5.433 1.5 4.625 C0 2 0 2 0 0 Z M-26 31 C-27.016 31.912 -28.033 32.824 -29.051 33.734 C-34.754 38.86 -40.122 44.07 -45 50 C-45.811 50.935 -46.622 51.869 -47.457 52.832 C-48.296 53.816 -49.135 54.799 -50 55.812 C-50.784 56.726 -51.567 57.64 -52.375 58.582 C-52.911 59.38 -53.447 60.178 -54 61 C-52.666 65.001 -51.085 65.323 -47.375 67.188 C-42.683 69.412 -39.248 71.009 -34 70 C-31.15 68.935 -28.465 67.797 -26 66 C-25.67 65.01 -25.34 64.02 -25 63 C-24.34 63 -23.68 63 -23 63 C-21.534 61.55 -21.534 61.55 -20 59.625 C-12.975 51.417 -5.412 44.283 3.178 37.755 C9.007 33.698 9.007 33.698 12.715 27.922 C13.467 20.588 12.022 15.268 7.375 9.5 C6.591 8.675 5.808 7.85 5 7 C-4 7 -19.616 25.153 -26 31 Z " fill="#000000" transform="translate(117,17)"/>
<path d="M0 0 C4.498 0.471 6.277 1.849 9.188 5.25 C9.862 6.018 10.536 6.787 11.23 7.578 C15.316 13.17 16.056 19.204 16 26 C14.693 33.984 10.269 40.412 4 45.375 C-3.47 49.421 -10.636 49.902 -19 49 C-25.083 47.055 -29.907 43.936 -34 39 C-35.083 37.701 -35.083 37.701 -36.188 36.375 C-39.925 29.416 -40.78 22.041 -38.902 14.371 C-37.391 10.399 -35.153 6.872 -32 4 C-31.01 4 -30.02 4 -29 4 C-29.763 4.825 -30.526 5.65 -31.312 6.5 C-35.206 11.167 -37 15.941 -37 22 C-36.671 21.553 -36.343 21.105 -36.004 20.645 C-30.712 13.918 -24.164 9.801 -15.625 8.691 C-7.578 8.296 -1.65 10.497 5 15 C8.212 17.975 11.034 21.067 13 25 C13.475 18.468 12.561 13.584 9 8 C6.834 5.738 4.498 3.877 2 2 C1.34 1.34 0.68 0.68 0 0 Z M-32 18 C-34.638 20.787 -36.662 23.382 -38 27 C-37.84 32.656 -33.651 37.264 -29.973 41.238 C-24.19 46.403 -17.391 48.356 -9.77 48.289 C-3.612 47.646 2.324 45.067 7 41 C7 40.34 7 39.68 7 39 C7.66 39 8.32 39 9 39 C12.052 34.58 12.052 34.58 13 29.5 C9.716 21.291 5.361 16.258 -2.5 12.188 C-13.489 8.459 -23.291 10.264 -32 18 Z " fill="#000000" transform="translate(320,345)"/>
<path d="M0 0 C-2.523 1.682 -4.6 2.699 -7.375 3.812 C-11.447 5.591 -14.089 7.576 -17 11 C-17.557 11.619 -18.114 12.238 -18.688 12.875 C-21.26 17.04 -22 21.161 -22 26 C-21.416 25.221 -21.416 25.221 -20.82 24.426 C-15.221 17.447 -8.951 13.335 0 12 C8.251 11.573 14.966 14.294 21.309 19.445 C24.081 21.994 26.315 24.63 28 28 C29.158 24.525 28.773 22.863 28.062 19.312 C27.868 18.319 27.673 17.325 27.473 16.301 C27.317 15.542 27.161 14.782 27 14 C29 15 29 15 30.125 18 C32.24 26.375 31.107 33.399 27 41 C24.562 43.875 24.562 43.875 22 46 C21.278 46.701 20.556 47.403 19.812 48.125 C13.975 52.017 6.975 53.747 0 53 C-6.025 51.67 -11.19 49.924 -16 46 C-16 45.34 -16 44.68 -16 44 C-16.66 44 -17.32 44 -18 44 C-18.816 42.564 -19.627 41.126 -20.438 39.688 C-21.116 38.487 -21.116 38.487 -21.809 37.262 C-24.952 31.295 -24.986 24.033 -23.398 17.539 C-22.249 14.417 -20.846 11.769 -19 9 C-18.34 9 -17.68 9 -17 9 C-16.67 8.01 -16.34 7.02 -16 6 C-14.258 4.648 -14.258 4.648 -12.125 3.375 C-11.426 2.95 -10.728 2.524 -10.008 2.086 C-6.558 0.22 -3.857 -0.104 0 0 Z M-20 25 C-22.009 28.269 -22.471 30.847 -21.855 34.711 C-19.476 41.079 -13.708 46.513 -7.75 49.625 C-0.213 52.374 8.054 52.287 15.375 49 C21.19 45.651 25.699 41.287 28.188 35 C27.795 28.725 24.766 24.409 20.25 20.188 C6.744 9.293 -8.81 12.904 -20 25 Z " fill="#000000" transform="translate(175,318)"/>
<path d="M0 0 C-1 2 -1 2 -2.766 2.686 C-3.515 2.885 -4.264 3.084 -5.035 3.289 C-5.844 3.508 -6.653 3.727 -7.486 3.953 C-8.762 4.286 -8.762 4.286 -10.062 4.625 C-10.917 4.854 -11.771 5.084 -12.65 5.32 C-14.765 5.887 -16.882 6.447 -19 7 C-19.191 8.208 -19.191 8.208 -19.387 9.441 C-19.589 10.286 -19.791 11.13 -20 12 C-21.324 12.685 -22.659 13.349 -24 14 C-25.352 15.988 -26.687 17.987 -28 20 C-28.66 20 -29.32 20 -30 20 C-30.338 20.802 -30.338 20.802 -30.684 21.621 C-32.426 24.771 -34.712 27.36 -37.062 30.062 C-38.058 31.223 -39.053 32.385 -40.047 33.547 C-40.544 34.126 -41.041 34.706 -41.553 35.303 C-46.889 41.56 -52.076 47.909 -56.809 54.637 C-57.398 55.312 -57.398 55.312 -58 56 C-58.66 56 -59.32 56 -60 56 C-60.309 56.619 -60.619 57.238 -60.938 57.875 C-61.625 59.25 -62.312 60.625 -63 62 C-63.66 62 -64.32 62 -65 62 C-65.268 62.619 -65.536 63.238 -65.812 63.875 C-67 66 -67 66 -70 68 C-68.489 63.168 -65.741 60.075 -62.438 56.375 C-61.349 55.131 -60.262 53.886 -59.176 52.641 C-58.638 52.026 -58.1 51.412 -57.545 50.779 C-52.128 44.542 -46.945 38.122 -42.191 31.363 C-41.798 30.913 -41.405 30.464 -41 30 C-40.34 30 -39.68 30 -39 30 C-38.536 29.072 -38.536 29.072 -38.062 28.125 C-37.375 26.75 -36.688 25.375 -36 24 C-35.34 24 -34.68 24 -34 24 C-33.743 23.434 -33.487 22.868 -33.223 22.285 C-31.412 18.901 -28.97 16.094 -26.559 13.121 C-24.827 10.991 -24.827 10.991 -24 8 C-26.97 7.67 -29.94 7.34 -33 7 C-32.67 6.34 -32.34 5.68 -32 5 C-29.639 4.33 -29.639 4.33 -26.539 3.746 C-25.428 3.531 -24.317 3.317 -23.172 3.096 C-22.001 2.878 -20.831 2.661 -19.625 2.438 C-17.325 2 -15.026 1.562 -12.727 1.121 C-11.701 0.93 -10.676 0.738 -9.62 0.541 C-2.796 -0.868 -2.796 -0.868 0 0 Z " fill="#010101" transform="translate(305,325)"/>
<path d="M0 0 C3 1 3 1 4.508 3.52 C5.308 5.15 5.308 5.15 6.125 6.812 C9.704 13.793 14.052 19.903 19 26 C19.699 26.865 20.397 27.73 21.117 28.621 C32.981 42.549 48.707 51.191 65 59 C65 59.66 65 60.32 65 61 C59.586 60.457 55.581 58.545 50.875 56 C50.132 55.603 49.388 55.206 48.622 54.796 C41.912 51.121 35.963 46.797 30 42 C29.233 41.461 28.466 40.922 27.676 40.367 C27.123 39.916 26.57 39.465 26 39 C26 38.34 26 37.68 26 37 C25.34 37 24.68 37 24 37 C24 36.34 24 35.68 24 35 C23.34 35 22.68 35 22 35 C22 34.34 22 33.68 22 33 C21.34 33 20.68 33 20 33 C20 32.34 20 31.68 20 31 C19.34 31 18.68 31 18 31 C16.173 28.809 14.481 26.621 12.812 24.312 C12.323 23.639 11.833 22.966 11.329 22.272 C0 6.398 0 6.398 0 0 Z " fill="#000000" transform="translate(160,279)"/>
<path d="M0 0 C0.826 0.369 0.826 0.369 1.668 0.746 C-15.483 17.788 -41.456 27.941 -65.332 28.746 C-62.68 25.295 -59.944 25.096 -55.77 24.434 C-36.751 21.018 -19.692 13.698 -4.82 1.336 C-2.332 -0.254 -2.332 -0.254 0 0 Z " fill="#000000" transform="translate(342.33203125,318.25390625)"/>
<path d="M0 0 C0.99 0.33 1.98 0.66 3 1 C2.469 1.375 1.938 1.75 1.391 2.137 C-5.879 7.403 -9.91 12.149 -12 21 C-12 22.32 -12 23.64 -12 25 C-11.381 24.01 -10.763 23.02 -10.125 22 C-9.424 21.01 -8.722 20.02 -8 19 C-7.34 19 -6.68 19 -6 19 C-6 18.34 -6 17.68 -6 17 C2.575 11.723 9.914 9.298 20 11 C26.997 13.378 33.13 16.55 37 23 C36.505 24.485 36.505 24.485 36 26 C32 21.25 32 21.25 32 19 C23.109 14.494 15.441 11.115 5.395 13.66 C-1.678 16.132 -6.705 20.08 -10.5 26.562 C-11.157 29.763 -10.916 31.86 -10 35 C-8.719 36.707 -7.393 38.383 -6 40 C-6 40.66 -6 41.32 -6 42 C-3.12 43.467 -0.207 44.82 2.75 46.125 C3.549 46.478 4.348 46.831 5.172 47.195 C6.077 47.594 6.077 47.594 7 48 C7 48.33 7 48.66 7 49 C2.275 48.537 -1.171 47.901 -5 45 C-5 44.34 -5 43.68 -5 43 C-5.66 43 -6.32 43 -7 43 C-12.724 36.799 -14.486 30.185 -14.316 21.883 C-13.513 14.563 -10.694 8.722 -5 4 C-4.134 3.216 -3.267 2.433 -2.375 1.625 C-1.591 1.089 -0.808 0.553 0 0 Z " fill="#000000" transform="translate(119,169)"/>
<path d="M0 0 C0.33 0 0.66 0 1 0 C1.607 21.951 -1.855 40.39 -12 60 C-13.195 58.484 -13.195 58.484 -14 56 C-13.081 53.274 -12.087 50.841 -10.875 48.25 C-4.402 33.389 -2.282 18.97 -1.234 2.879 C-1 1 -1 1 0 0 Z " fill="#000000" transform="translate(381,229)"/>
<path d="M0 0 C5.426 2.454 8.15 6.3 10.75 11.5 C13.242 18.477 13.366 23.965 11 31 C9.226 34.186 7.22 37.11 5 40 C4.01 39.505 4.01 39.505 3 39 C3.846 38.031 4.691 37.061 5.562 36.062 C7.587 33.171 8.437 31.173 8.312 27.625 C7.216 21.688 3.552 17.75 -1 14 C-7.281 10.201 -13.749 9.013 -21 10 C-28.751 11.917 -34.559 16.239 -40 22 C-38.672 17.875 -37.145 15.898 -33.688 13.312 C-32.928 12.731 -32.169 12.15 -31.387 11.551 C-25.326 7.613 -18.473 6.212 -11.34 7.469 C-2.304 9.976 3.28 14.721 9 22 C9.495 22.99 9.495 22.99 10 24 C10.621 16.859 8.64 10.618 4.398 4.805 C2.988 3.154 1.501 1.569 0 0 Z " fill="#000000" transform="translate(368,116)"/>
<path d="M0 0 C3.3 0 6.6 0 10 0 C9.01 0.33 8.02 0.66 7 1 C7.114 3.959 7.24 6.917 7.375 9.875 C7.406 10.717 7.437 11.559 7.469 12.426 C7.507 13.231 7.546 14.037 7.586 14.867 C7.617 15.611 7.649 16.354 7.681 17.121 C7.854 19.24 7.854 19.24 10 21 C6.7 21 3.4 21 0 21 C0.33 20.34 0.66 19.68 1 19 C1.15 17.627 1.248 16.247 1.316 14.867 C1.358 14.062 1.4 13.256 1.443 12.426 C1.483 11.584 1.522 10.742 1.562 9.875 C1.606 9.026 1.649 8.176 1.693 7.301 C1.8 5.201 1.9 3.1 2 1 C1.34 0.67 0.68 0.34 0 0 Z " fill="#000000" transform="translate(20,18)"/>
<path d="M0 0 C2.97 0 5.94 0 9 0 C8.01 0.495 8.01 0.495 7 1 C7.14 3.959 7.287 6.917 7.438 9.875 C7.477 10.717 7.516 11.559 7.557 12.426 C7.619 13.634 7.619 13.634 7.684 14.867 C7.72 15.611 7.757 16.354 7.795 17.121 C7.9 19.089 7.9 19.089 9 21 C5.7 21 2.4 21 -1 21 C-0.34 20.34 0.32 19.68 1 19 C1.368 17.067 1.368 17.067 1.414 14.867 C1.453 14.062 1.491 13.256 1.531 12.426 C1.562 11.584 1.593 10.742 1.625 9.875 C1.664 9.026 1.702 8.176 1.742 7.301 C1.837 5.201 1.919 3.1 2 1 C1.34 0.67 0.68 0.34 0 0 Z " fill="#000000" transform="translate(33,18)"/>
<path d="M0 0 C0.33 0.66 0.66 1.32 1 2 C-0.96 6.391 -3.236 10.386 -5.812 14.438 C-9.103 19.775 -11.342 25.44 -13.552 31.287 C-15.689 36.793 -15.689 36.793 -19 39 C-18.456 33.734 -17.167 29.284 -15 24.438 C-14.697 23.752 -14.395 23.067 -14.083 22.361 C-10.53 14.584 -6.087 6.087 0 0 Z " fill="#000000" transform="translate(174,169)"/>
<path d="M0 0 C2.97 0 5.94 0 9 0 C8.01 0.495 8.01 0.495 7 1 C6.946 3.396 6.906 5.791 6.875 8.188 C6.858 8.861 6.841 9.535 6.824 10.229 C6.785 14.288 7.2 17.35 9 21 C5.7 21 2.4 21 -1 21 C-0.34 20.34 0.32 19.68 1 19 C1.172 16.129 1.232 13.367 1.188 10.5 C1.187 9.322 1.187 9.322 1.186 8.121 C1.252 3.927 1.252 3.927 0 0 Z " fill="#000000" transform="translate(46,18)"/>
<path d="M0 0 C1.32 0.33 2.64 0.66 4 1 C4 7.27 4 13.54 4 20 C2.68 20.33 1.36 20.66 0 21 C-1 20 -1 20 -1.098 17.059 C-1.086 15.864 -1.074 14.669 -1.062 13.438 C-1.053 12.24 -1.044 11.042 -1.035 9.809 C-1.024 8.882 -1.012 7.955 -1 7 C-2.65 6.67 -4.3 6.34 -6 6 C-6 5.34 -6 4.68 -6 4 C-4.35 3.67 -2.7 3.34 -1 3 C-0.67 2.01 -0.34 1.02 0 0 Z " fill="#000000" transform="translate(224,395)"/>
<path d="M0 0 C5.997 3.791 10.048 7.752 12.996 14.262 C12.501 15.747 12.501 15.747 11.996 17.262 C11.656 16.609 11.315 15.957 10.965 15.285 C6.802 7.779 2.597 3.102 -5.441 -0.113 C-13.84 -1.587 -21.651 -1.222 -28.984 3.551 C-33.19 6.905 -35.609 10.473 -38.004 15.262 C-38.664 14.932 -39.324 14.602 -40.004 14.262 C-39.445 9.234 -35.793 6.753 -32.105 3.68 C-22.779 -3.664 -10.847 -5.672 0 0 Z " fill="#000000" transform="translate(240.00390625,102.73828125)"/>
<path d="M0 0 C0.33 0 0.66 0 1 0 C1 9.24 1 18.48 1 28 C2.65 28 4.3 28 6 28 C6 22.39 6 16.78 6 11 C6.33 11 6.66 11 7 11 C7.33 15.95 7.66 20.9 8 26 C13.547 22.744 13.547 22.744 16 18 C16.66 19.65 17.32 21.3 18 23 C15.69 24.32 13.38 25.64 11 27 C12.497 28.497 13.988 28.332 16.062 28.562 C17.362 28.707 18.661 28.851 20 29 C20 29.66 20 30.32 20 31 C17.416 30.859 14.833 30.712 12.25 30.562 C11.52 30.523 10.791 30.484 10.039 30.443 C6.531 30.236 3.424 29.856 0 29 C0 19.43 0 9.86 0 0 Z " fill="#000000" transform="translate(430,221)"/>
<path d="M0 0 C0 3.531 -0.788 4.524 -2.688 7.438 C-6.165 13.029 -8.621 18.874 -11 25 C-11.66 25 -12.32 25 -13 25 C-12.439 20.165 -10.938 16.235 -8.75 11.938 C-8.463 11.339 -8.175 10.74 -7.879 10.123 C-5.773 5.925 -3.419 3.118 0 0 Z " fill="#FFFFFF" transform="translate(200,170)"/>
<path d="M0 0 C3.63 0 7.26 0 11 0 C10.01 1.485 10.01 1.485 9 3 C2.875 3.438 2.875 3.438 0 2 C0 1.34 0 0.68 0 0 Z " fill="#000000" transform="translate(265,339)"/>
<path d="M0 0 C2.64 0 5.28 0 8 0 C7.01 1.485 7.01 1.485 6 3 C2.375 3.188 2.375 3.188 -1 3 C-0.67 2.01 -0.34 1.02 0 0 Z " fill="#000000" transform="translate(263,345)"/>
</svg>
