<?xml version="1.0" encoding="UTF-8"?>
<!-- Generator: visioncortex VTracer 0.6.4 -->
<svg version="1.1" xmlns="http://www.w3.org/2000/svg" width="451" height="383">
<path d="M0 0 C148.83 0 297.66 0 451 0 C451 126.39 451 252.78 451 383 C302.17 383 153.34 383 0 383 C0 256.61 0 130.22 0 0 Z " fill="#FFFFFF" transform="translate(0,0)"/>
<path d="M0 0 C133.65 0 267.3 0 405 0 C405 126.39 405 252.78 405 383 C370.02 383 335.04 383 299 383 C299 377.06 299 371.12 299 365 C298.76 361.109 298.487 357.287 298.082 353.418 C297.933 351.938 297.933 351.938 297.782 350.427 C297.572 348.376 297.358 346.326 297.138 344.276 C296.811 341.176 296.514 338.074 296.217 334.971 C295.121 324.163 293.639 314.899 289 305 C288.175 303.003 287.356 301.003 286.543 299 C283.867 292.637 281.099 286.315 278.312 280 C277.827 278.895 277.342 277.791 276.842 276.652 C274.555 271.286 274.555 271.286 271.92 266.092 C270.625 263.146 270.299 260.277 269.852 257.094 C269.754 256.421 269.657 255.749 269.557 255.056 C269.349 253.617 269.144 252.179 268.941 250.74 C268.409 246.969 267.85 243.203 267.289 239.438 C267.179 238.697 267.068 237.956 266.955 237.193 C265.76 229.268 264.217 221.435 262.549 213.598 C261.417 208.238 260.335 202.869 259.25 197.5 C259.027 196.418 258.804 195.336 258.574 194.221 C258.267 192.704 258.267 192.704 257.953 191.156 C257.769 190.257 257.585 189.358 257.396 188.432 C257 186 257 186 257 182 C259.371 182.237 261.743 182.475 264.113 182.719 C266.026 182.905 267.94 183.072 269.855 183.219 C270.749 183.291 271.642 183.363 272.562 183.438 C273.389 183.498 274.215 183.559 275.066 183.621 C275.704 183.746 276.343 183.871 277 184 C277.33 184.66 277.66 185.32 278 186 C280.982 186.844 283.906 187.122 287 187 C289.342 185.655 289.342 185.655 290 183 C289.954 178.654 289.954 178.654 288 175 C283.761 174.758 279.517 174.771 275.272 174.76 C273.141 174.75 271.01 174.719 268.879 174.688 C267.526 174.681 266.173 174.676 264.82 174.672 C262.968 174.658 262.968 174.658 261.079 174.644 C257.999 174.727 257.999 174.727 256.074 176.521 C255.719 177.009 255.365 177.497 255 178 C254.841 176.716 254.683 175.432 254.52 174.109 C251.411 150.092 244.705 126.887 236.995 103.962 C235.365 99.112 233.777 94.25 232.211 89.379 C231.978 88.655 231.745 87.932 231.505 87.186 C230.552 84.226 229.601 81.266 228.651 78.306 C227.944 76.101 227.234 73.896 226.523 71.691 C226.209 70.708 226.209 70.708 225.889 69.705 C224.625 65.79 223.252 61.934 221.792 58.09 C220.35 54.284 218.963 50.459 217.566 46.637 C217.247 45.764 216.928 44.891 216.599 43.992 C215.927 42.156 215.256 40.32 214.585 38.484 C213.238 34.799 211.89 31.116 210.543 27.432 C209.59 24.826 208.639 22.221 207.688 19.615 C206.678 16.849 205.661 14.087 204.636 11.327 C204.087 9.844 204.087 9.844 203.527 8.332 C203.224 7.521 202.921 6.71 202.609 5.874 C202 4 202 4 202 2 C201.01 2 200.02 2 199 2 C199.804 3.702 199.804 3.702 200.625 5.438 C202.992 10.743 204.881 16.19 206.772 21.678 C208.46 26.555 210.309 31.313 212.434 36.02 C213.108 38.377 212.787 39.71 212 42 C210.081 38.364 208.433 34.68 206.875 30.875 C203.148 21.816 199.048 12.919 195 4 C194.34 4 193.68 4 193 4 C193.519 5.076 194.039 6.153 194.574 7.262 C198.786 16.057 202.643 24.839 206 34 C197.216 36.794 188.399 39.256 179.453 41.469 C178.182 41.786 176.912 42.103 175.602 42.43 C172.19 43.282 168.777 44.13 165.363 44.976 C162.522 45.681 159.681 46.388 156.84 47.095 C149.636 48.887 142.431 50.674 135.225 52.458 C130.598 53.604 125.972 54.752 121.346 55.902 C115.617 57.326 109.887 58.744 104.156 60.158 C102.067 60.674 99.98 61.191 97.892 61.709 C95.013 62.424 92.132 63.133 89.25 63.84 C88.423 64.046 87.595 64.253 86.743 64.466 C81.835 65.661 77.024 66.464 72 67 C70.616 55.508 69.329 44.008 68.14 32.494 C67.872 29.908 67.598 27.322 67.324 24.736 C67.151 23.063 66.978 21.389 66.805 19.715 C66.723 18.956 66.642 18.198 66.559 17.416 C66.068 12.585 65.929 7.856 66 3 C64.68 3 63.36 3 62 3 C62.12 3.846 62.239 4.693 62.363 5.565 C63.745 15.599 64.855 25.649 65.86 35.727 C66.127 38.393 66.401 41.058 66.676 43.723 C66.849 45.448 67.023 47.173 67.195 48.898 C67.277 49.68 67.358 50.461 67.441 51.266 C67.957 56.534 68.068 61.707 68 67 C62.146 65.407 57.306 62.431 52.125 59.375 C45.876 55.742 39.634 52.208 33.125 49.062 C26.173 45.685 19.424 41.975 12.688 38.188 C11.678 37.624 10.668 37.06 9.627 36.479 C8.682 35.943 7.736 35.407 6.762 34.855 C5.916 34.377 5.07 33.899 4.198 33.407 C0.36 30.95 0.36 30.95 -1 29 C-0.989 26.412 -0.989 26.412 -0.453 23.344 C-0.267 22.239 -0.082 21.134 0.109 19.996 C0.321 18.842 0.532 17.689 0.75 16.5 C0.946 15.346 1.142 14.193 1.344 13.004 C2.79 4.631 2.79 4.631 4 1 C2.68 0.67 1.36 0.34 0 0 Z " fill="#FFFFFF" transform="translate(46,0)"/>
<path d="M0 0 C10.171 6.982 16.185 15.312 22.25 25.812 C22.91 26.803 23.57 27.792 24.25 28.812 C25.302 27.946 25.302 27.946 26.375 27.062 C38.12 17.87 48.678 15.648 63.25 16.812 C74.624 18.751 83.592 26.785 90.25 35.812 C94.953 43.678 98.42 51.805 100.25 60.812 C100.433 61.67 100.616 62.527 100.805 63.41 C104.142 88.909 98.387 111.07 85.25 132.812 C84.59 132.812 83.93 132.812 83.25 132.812 C83 133.393 82.75 133.973 82.492 134.57 C77.984 142.708 68.56 147.458 60.25 150.812 C48.245 154.028 36.686 151.957 26.062 146.062 C21.673 143.323 18.04 140.213 15.25 135.812 C15.25 135.153 15.25 134.493 15.25 133.812 C14.59 133.812 13.93 133.812 13.25 133.812 C10.25 129.428 10.25 129.428 10.25 126.812 C9.731 127.271 9.211 127.73 8.676 128.203 C-2.246 137.812 -2.246 137.812 -4.75 137.812 C-4.75 138.472 -4.75 139.132 -4.75 139.812 C-18.589 146.521 -31.732 150.882 -47.188 146.625 C-62.797 140.97 -74.001 129.367 -81.316 114.664 C-90.134 94.187 -92.176 70.331 -85.75 48.812 C-85.443 47.544 -85.443 47.544 -85.129 46.25 C-82.278 35.2 -76.251 23.402 -68.75 14.812 C-68.09 14.812 -67.43 14.812 -66.75 14.812 C-66.502 14.232 -66.255 13.652 -66 13.055 C-60.751 3.639 -48.803 -2.434 -38.938 -5.562 C-25.013 -9.149 -12.381 -7.415 0 0 Z " fill="#FFFFFF" transform="translate(194.75,113.1875)"/>
<path d="M0 0 C12.414 8.326 19.487 23.666 22.781 37.82 C26.835 60.906 22.236 84.168 9.844 103.98 C7.714 106.913 5.402 109.323 2.781 111.82 C1.998 112.645 1.214 113.47 0.406 114.32 C-7.805 122.14 -16.639 126.17 -28.148 125.973 C-37.088 125.315 -46.047 121.379 -52.219 114.82 C-67.646 95.739 -69.745 75.578 -68.219 51.82 C-66.91 39.478 -61.851 28.743 -56.219 17.82 C-55.559 17.82 -54.899 17.82 -54.219 17.82 C-53.984 17.098 -53.75 16.377 -53.508 15.633 C-49.274 6.396 -39.175 -0.41 -29.906 -3.992 C-19.477 -7.1 -9.484 -5.042 0 0 Z " fill="#111111" transform="translate(270.21875,137.1796875)"/>
<path d="M0 0 C7.667 4.334 13.137 10.726 16.316 18.883 C17.884 22.742 17.884 22.742 20.902 25.445 C22.427 26.07 23.97 26.651 25.527 27.188 C30.544 29.071 34.894 32.182 37.379 36.945 C37.544 37.647 37.709 38.348 37.879 39.07 C38.539 39.07 39.199 39.07 39.879 39.07 C43.899 49.163 47.297 57.758 42.867 68.277 C40.691 72.226 38.123 74.656 33.879 76.07 C26.174 76.381 18.499 76.314 10.879 75.07 C10.384 75.916 9.889 76.762 9.379 77.633 C4.069 85.459 -2.94 89.958 -12.121 92.07 C-20.848 93.171 -30.32 92.074 -37.855 87.359 C-45.169 81.398 -50.802 72.837 -52.629 63.465 C-52.718 62.403 -52.718 62.403 -52.809 61.32 C-52.912 60.248 -53.015 59.175 -53.121 58.07 C-54.44 57.376 -55.776 56.712 -57.121 56.07 C-61.075 51.201 -61.685 45.776 -61.449 39.684 C-60.978 35.929 -59.922 33.406 -58.121 30.07 C-57.688 29.142 -57.255 28.214 -56.809 27.258 C-55.121 25.07 -55.121 25.07 -52.059 24.133 C-51.089 23.782 -50.12 23.432 -49.121 23.07 C-48.419 21.082 -47.758 19.08 -47.121 17.07 C-42.729 9.572 -37.78 4.172 -30.121 0.07 C-29.007 -0.548 -27.894 -1.167 -26.746 -1.805 C-18.296 -4.427 -8.112 -3.556 0 0 Z " fill="#090909" transform="translate(392.12109375,169.9296875)"/>
<path d="M0 0 C9.402 6.207 13.086 15.465 16 26 C18.837 40.185 15.395 54.21 9 67 C10.32 67 11.64 67 13 67 C13.688 69.812 13.688 69.812 14 73 C12.562 74.875 12.562 74.875 11 76 C9.062 75.25 9.062 75.25 7 74 C6.371 71.922 6.371 71.922 6 70 C5.237 71.031 4.474 72.062 3.688 73.125 C-1.559 79.286 -9.417 83.464 -17.48 84.238 C-25.572 84.46 -30.904 82.572 -37.688 78.312 C-40.485 75.515 -42.481 72.47 -44.57 69.121 C-45.897 67.153 -47.264 65.608 -49 64 C-49.66 65.32 -50.32 66.64 -51 68 C-52.32 67.34 -53.64 66.68 -55 66 C-55 64.02 -55 62.04 -55 60 C-52.525 59.505 -52.525 59.505 -50 59 C-50.156 58.296 -50.312 57.592 -50.473 56.867 C-53.617 40.917 -50.789 26.188 -43 12 C-44.32 11.67 -45.64 11.34 -47 11 C-47.625 8.688 -47.625 8.688 -48 6 C-47.34 5.01 -46.68 4.02 -46 3 C-44.35 3.33 -42.7 3.66 -41 4 C-40.67 5.32 -40.34 6.64 -40 8 C-39.182 7.203 -39.182 7.203 -38.348 6.391 C-26.957 -4.28 -14.387 -8.043 0 0 Z " fill="#101010" transform="translate(178,144)"/>
<path d="M0 0 C10.159 6.707 16.915 16.549 22.656 27.125 C23.105 29.344 23.105 29.344 22.004 31.668 C21.377 32.551 20.751 33.434 20.105 34.344 C19.347 35.524 18.593 36.708 17.844 37.895 C17.036 39.149 16.227 40.403 15.418 41.656 C15.002 42.301 14.587 42.947 14.158 43.611 C13.141 45.189 12.123 46.767 11.105 48.344 C9.105 47.344 9.105 47.344 7.992 44.43 C7.596 43.205 7.201 41.98 6.793 40.719 C4.94 35.179 2.74 30.913 -0.895 26.344 C-0.895 25.684 -0.895 25.024 -0.895 24.344 C-1.555 24.344 -2.215 24.344 -2.895 24.344 C-4.561 22.677 -6.228 21.01 -7.895 19.344 C-14.313 13.595 -23.005 10.587 -31.672 10.996 C-44.932 13.07 -55.301 19.133 -63.895 29.344 C-68.294 35.542 -71.448 42.166 -73.895 49.344 C-74.195 50.153 -74.495 50.963 -74.805 51.797 C-79.86 67.879 -78.334 86.905 -71.895 102.344 C-71.189 103.634 -70.465 104.914 -69.723 106.184 C-67.895 109.344 -67.895 109.344 -67.895 111.344 C-67.235 111.344 -66.575 111.344 -65.895 111.344 C-65.647 112.127 -65.4 112.911 -65.145 113.719 C-63.672 116.81 -62.944 117.037 -59.895 118.344 C-59.193 118.963 -58.492 119.581 -57.77 120.219 C-49.589 126.265 -39.767 128.307 -29.746 126.902 C-17.443 124.191 -7.338 116.829 -0.332 106.344 C0.494 105.019 1.312 103.688 2.105 102.344 C2.765 102.674 3.425 103.004 4.105 103.344 C4.887 105.891 4.887 105.891 5.605 109.094 C6.312 112.212 7.005 115.1 8.223 118.059 C9.31 120.873 8.921 122.488 8.105 125.344 C7.115 125.674 6.125 126.004 5.105 126.344 C4.815 126.943 4.525 127.543 4.227 128.16 C0.318 135.773 -11.153 140.609 -18.895 143.344 C-31.497 147.018 -43.346 145.384 -54.895 139.344 C-59.229 136.789 -63.569 134.177 -66.895 130.344 C-66.895 129.684 -66.895 129.024 -66.895 128.344 C-67.555 128.344 -68.215 128.344 -68.895 128.344 C-70.441 126.29 -71.837 124.261 -73.207 122.094 C-73.61 121.458 -74.013 120.823 -74.428 120.168 C-86.663 100.414 -89.309 77.898 -84.895 55.344 C-84.527 53.455 -84.527 53.455 -84.152 51.527 C-79.895 31.501 -69.061 12.944 -51.895 1.344 C-34.596 -8.714 -17.532 -10.032 0 0 Z " fill="#FFFFFF" transform="translate(193.89453125,114.65625)"/>
<path d="M0 0 C1.32 0 2.64 0 4 0 C3.521 3.521 3.042 7.042 2.562 10.562 C2.428 11.553 2.293 12.544 2.154 13.564 C1.453 18.712 0.743 23.858 0 29 C0.874 29.475 0.874 29.475 1.766 29.959 C21.25 40.545 21.25 40.545 30.625 45.875 C36.038 48.95 41.523 51.791 47.117 54.527 C51.253 56.64 55.228 59 59.211 61.387 C62.087 63.05 65.023 64.526 68 66 C67.889 64.985 67.779 63.97 67.665 62.924 C65.459 42.635 63.371 22.366 62 2 C63.32 2 64.64 2 66 2 C66.785 9.606 67.568 17.212 68.347 24.819 C68.709 28.351 69.072 31.883 69.437 35.415 C69.856 39.478 70.272 43.542 70.688 47.605 C70.884 49.503 70.884 49.503 71.085 51.438 C71.205 52.619 71.325 53.8 71.449 55.016 C71.556 56.053 71.662 57.09 71.772 58.159 C71.983 60.788 72.043 63.364 72 66 C72.986 65.753 72.986 65.753 73.992 65.5 C81.923 63.511 89.855 61.524 97.786 59.539 C99.929 59.002 102.073 58.465 104.216 57.928 C120.232 53.916 136.253 49.926 152.292 46.005 C154.562 45.45 156.832 44.895 159.101 44.339 C165.629 42.742 172.158 41.146 178.689 39.562 C180.729 39.066 182.768 38.569 184.807 38.07 C187.294 37.462 189.782 36.858 192.271 36.257 C193.368 35.988 194.465 35.719 195.595 35.442 C196.548 35.21 197.5 34.979 198.482 34.74 C200.841 34.047 202.848 33.178 205 32 C204.516 30.903 204.516 30.903 204.022 29.784 C202.555 26.461 201.09 23.137 199.625 19.812 C199.117 18.662 198.609 17.512 198.086 16.326 C197.596 15.214 197.106 14.103 196.602 12.957 C196.151 11.936 195.701 10.915 195.237 9.863 C194.111 7.258 193.039 4.64 192 2 C192.99 2 193.98 2 195 2 C199.596 10.772 203.814 19.469 207.008 28.857 C208.215 32.315 209.311 34.537 212 37 C211.713 36.229 211.426 35.458 211.13 34.664 C210.049 31.763 208.97 28.861 207.892 25.959 C207.202 24.102 206.51 22.245 205.818 20.389 C203.431 13.959 201.118 7.524 199 1 C199.99 1 200.98 1 202 1 C217.737 42.506 217.737 42.506 222.703 58.031 C223.746 61.287 224.926 64.477 226.143 67.672 C235.557 93.23 243.748 119.483 250.438 145.875 C250.605 146.528 250.773 147.18 250.946 147.853 C253.334 157.201 254.913 166.428 256 176 C256.66 175.01 257.32 174.02 258 173 C262.244 172.392 266.521 172.485 270.803 172.499 C272.927 172.5 275.047 172.458 277.17 172.414 C278.518 172.409 279.867 172.406 281.215 172.406 C282.443 172.399 283.672 172.392 284.937 172.385 C288 173 288 173 289.932 175.342 C291.29 178.723 291.054 180.538 290 184 C288.738 185.699 288.738 185.699 287 187 C284.738 187.074 284.738 187.074 282.312 186.688 C281.504 186.568 280.696 186.448 279.863 186.324 C279.248 186.217 278.634 186.11 278 186 C277.67 185.01 277.34 184.02 277 183 C276.394 183.023 275.788 183.046 275.164 183.07 C274.326 183.088 273.488 183.106 272.625 183.125 C271.813 183.148 271.001 183.171 270.164 183.195 C265.682 182.919 261.381 181.954 257 181 C257.221 182.056 257.443 183.111 257.671 184.199 C265.065 219.527 265.065 219.527 267.312 233.25 C267.468 234.189 267.623 235.129 267.783 236.096 C268.477 240.392 269.094 244.681 269.586 249.004 C270.851 259.504 273.787 267.682 278.59 277.086 C281.635 283.109 283.918 289.383 286.247 295.708 C287.932 300.261 289.711 304.648 291.875 309 C296.638 319.169 296.644 331.768 297.86 342.855 C298.123 345.234 298.399 347.611 298.676 349.988 C299.841 360.367 300.225 370.56 300 381 C299.34 381 298.68 381 298 381 C297.943 380.253 297.885 379.506 297.826 378.736 C297.272 371.602 296.686 364.471 296.068 357.342 C295.751 353.679 295.445 350.016 295.167 346.35 C293.939 330.261 292.523 315.492 284.975 300.926 C283.47 297.953 282.245 294.895 280.988 291.809 C280.096 289.685 279.205 287.561 278.312 285.438 C277.866 284.367 277.419 283.296 276.959 282.193 C274.208 275.658 271.239 269.309 268 263 C262.72 263.66 257.44 264.32 252 265 C257.28 264.67 262.56 264.34 268 264 C267.67 264.66 267.34 265.32 267 266 C264.614 266.432 262.315 266.733 259.906 266.965 C259.168 267.044 258.43 267.123 257.669 267.204 C255.28 267.457 252.89 267.698 250.5 267.938 C247.427 268.256 244.354 268.579 241.281 268.902 C240.074 269.028 240.074 269.028 238.843 269.156 C230.043 270.082 221.262 271.152 212.479 272.217 C206.07 272.994 199.658 273.75 193.246 274.5 C192.191 274.624 191.135 274.747 190.048 274.875 C185.774 275.376 181.501 275.876 177.227 276.375 C165.804 277.71 154.384 279.065 142.973 280.5 C118.417 283.589 93.831 286.421 69.245 289.26 C52.174 291.232 35.105 293.214 18.044 295.272 C8.194 296.46 -1.658 297.626 -11.511 298.79 C-13.793 299.06 -16.075 299.33 -18.357 299.601 C-21.715 300 -25.072 300.397 -28.43 300.793 C-29.451 300.915 -30.473 301.037 -31.526 301.162 C-32.466 301.273 -33.406 301.383 -34.375 301.497 C-35.61 301.643 -35.61 301.643 -36.871 301.792 C-39 302 -39 302 -42 302 C-42 300.68 -42 299.36 -42 298 C-39.291 296.646 -36.991 296.935 -34 297 C-34 297.66 -34 298.32 -34 299 C-29.05 298.34 -24.1 297.68 -19 297 C-21.64 297 -24.28 297 -27 297 C-24.302 294.302 -22.504 294.502 -18.728 294.086 C-18.084 294.013 -17.439 293.939 -16.775 293.863 C-14.629 293.621 -12.483 293.391 -10.336 293.16 C-8.827 292.992 -7.318 292.822 -5.809 292.652 C-1.811 292.204 2.188 291.765 6.188 291.329 C10.161 290.895 14.133 290.452 18.105 290.01 C18.878 289.924 19.65 289.838 20.445 289.749 C21.995 289.576 23.545 289.404 25.095 289.231 C27.425 288.971 29.756 288.713 32.086 288.454 C41.279 287.432 50.461 286.35 59.636 285.182 C73.9 283.368 88.179 281.682 102.457 279.983 C105.877 279.576 109.297 279.167 112.716 278.756 C116.925 278.25 121.135 277.747 125.346 277.248 C126.921 277.06 128.497 276.871 130.073 276.681 C140.041 275.478 149.974 274.562 160 274 C160 274.66 160 275.32 160 276 C164.95 275.34 169.9 274.68 175 274 C172.36 274 169.72 274 167 274 C169.698 271.302 171.496 271.502 175.272 271.086 C175.916 271.013 176.561 270.939 177.225 270.863 C179.371 270.621 181.517 270.391 183.664 270.16 C185.173 269.992 186.682 269.822 188.191 269.652 C192.189 269.204 196.188 268.765 200.188 268.329 C206.494 267.639 212.799 266.933 219.104 266.23 C221.407 265.973 223.71 265.719 226.013 265.465 C235.981 264.36 245.936 263.176 255.879 261.86 C256.757 261.746 257.636 261.631 258.541 261.513 C259.662 261.364 259.662 261.364 260.806 261.211 C263.216 260.979 265.581 260.965 268 261 C265.56 244.936 263.118 228.892 259.965 212.949 C259.083 208.489 258.288 204.016 257.502 199.538 C255.991 190.966 254.261 182.557 252.047 174.137 C251.271 171.153 250.591 168.161 249.953 165.145 C243.522 134.875 232.725 105.462 222.625 76.25 C222.316 75.352 222.006 74.455 221.687 73.53 C219.625 67.614 217.355 61.804 215 56 C213.74 52.837 212.493 49.669 211.25 46.5 C210.934 45.703 210.618 44.907 210.293 44.086 C209.995 43.325 209.697 42.565 209.391 41.781 C209.123 41.101 208.855 40.421 208.579 39.721 C208 38 208 38 208 36 C200.146 36.622 192.801 38.415 185.188 40.395 C183.831 40.742 182.475 41.09 181.119 41.436 C178.239 42.173 175.359 42.914 172.481 43.657 C165.684 45.411 158.882 47.145 152.081 48.881 C149.79 49.466 147.499 50.051 145.208 50.637 C132.616 53.853 120.011 57.018 107.389 60.119 C105.367 60.616 103.346 61.114 101.325 61.615 C92.472 63.807 83.657 65.95 74.668 67.508 C68.734 68.57 63.104 70.117 57.389 71.989 C48.144 74.988 38.684 77.184 29.25 79.5 C27.372 79.964 25.495 80.429 23.617 80.895 C19.905 81.814 16.192 82.731 12.479 83.647 C7.059 84.985 1.64 86.327 -3.777 87.676 C-4.563 87.871 -5.349 88.065 -6.159 88.266 C-13.168 90.014 -20.128 91.93 -27.082 93.887 C-28.067 94.162 -28.067 94.162 -29.073 94.443 C-30.98 94.994 -32.871 95.6 -34.762 96.207 C-37.948 96.987 -39.006 96.915 -42 96 C-36.568 93.879 -31.188 92.137 -25.543 90.688 C-24.336 90.372 -24.336 90.372 -23.105 90.051 C-20.467 89.363 -17.827 88.681 -15.188 88 C-13.333 87.518 -11.478 87.035 -9.624 86.552 C0.191 84.001 10.014 81.481 19.84 78.973 C20.801 78.727 21.762 78.482 22.753 78.229 C27.37 77.05 31.989 75.875 36.609 74.705 C46.121 72.29 55.585 69.771 65 67 C63.442 66.238 63.442 66.238 61.852 65.461 C49.185 59.225 49.185 59.225 44 56 C39.791 53.384 35.444 51.181 31 49 C25.637 46.365 20.465 43.588 15.375 40.449 C12.677 38.803 9.946 37.232 7.188 35.688 C6.315 35.196 5.442 34.705 4.543 34.199 C-0.28 31.925 -3.708 31.895 -8.859 33.145 C-9.976 33.409 -11.092 33.674 -12.242 33.947 C-13.4 34.233 -14.557 34.518 -15.75 34.812 C-18.036 35.361 -20.323 35.909 -22.609 36.457 C-23.699 36.721 -24.789 36.985 -25.912 37.257 C-38.512 40.29 -38.512 40.29 -43 40 C-40.487 37.487 -38.743 37.286 -35.293 36.492 C-33.577 36.096 -33.577 36.096 -31.826 35.691 C-30.625 35.422 -29.425 35.153 -28.188 34.875 C-26.998 34.598 -25.809 34.321 -24.584 34.035 C-14.873 31.821 -14.873 31.821 -10 32 C-9.914 31.37 -9.829 30.74 -9.74 30.092 C-9.348 27.207 -8.955 24.322 -8.562 21.438 C-8.428 20.447 -8.293 19.456 -8.154 18.436 C-7.891 16.502 -7.625 14.569 -7.356 12.636 C-7.137 11.012 -6.931 9.387 -6.75 7.758 C-6.564 6.163 -6.292 4.579 -6 3 C-5.34 2.67 -4.68 2.34 -4 2 C-4.491 11.88 -6.027 21.334 -8 31 C-7.01 30.67 -6.02 30.34 -5 30 C-3.35 20.1 -1.7 10.2 0 0 Z " fill="#060606" transform="translate(46,1)"/>
<path d="M0 0 C12.414 8.326 19.487 23.666 22.781 37.82 C26.835 60.906 22.236 84.168 9.844 103.98 C7.714 106.913 5.402 109.323 2.781 111.82 C1.998 112.645 1.214 113.47 0.406 114.32 C-7.805 122.14 -16.639 126.17 -28.148 125.973 C-37.088 125.315 -46.047 121.379 -52.219 114.82 C-67.646 95.739 -69.745 75.578 -68.219 51.82 C-66.91 39.478 -61.851 28.743 -56.219 17.82 C-55.559 17.82 -54.899 17.82 -54.219 17.82 C-53.984 17.098 -53.75 16.377 -53.508 15.633 C-49.274 6.396 -39.175 -0.41 -29.906 -3.992 C-19.477 -7.1 -9.484 -5.042 0 0 Z M-15.281 3.883 C-18.011 6.612 -17.935 9.067 -18.219 12.82 C-18.801 12.811 -19.384 12.802 -19.984 12.793 C-29.62 13.141 -37.699 17.822 -44.219 24.82 C-44.611 24.305 -45.002 23.789 -45.406 23.258 C-47.16 21.552 -47.16 21.552 -49.719 21.883 C-52.796 23.037 -53.721 23.903 -55.219 26.82 C-55.802 29.778 -55.802 29.778 -55.219 32.82 C-54.497 33.604 -53.775 34.388 -53.031 35.195 C-52.134 36.495 -52.134 36.495 -51.219 37.82 C-52.344 41.57 -52.344 41.57 -53.227 43.367 C-56.14 50.57 -56.49 57.697 -56.344 65.383 C-56.33 66.753 -56.33 66.753 -56.316 68.15 C-56.293 70.374 -56.26 72.597 -56.219 74.82 C-57.704 75.315 -57.704 75.315 -59.219 75.82 C-61.194 78.434 -61.194 78.434 -62.219 81.82 C-61.522 86.186 -61.522 86.186 -59.219 89.82 C-56.879 89.533 -54.545 89.201 -52.219 88.82 C-51.699 89.568 -51.18 90.316 -50.645 91.086 C-49.947 92.071 -49.25 93.056 -48.531 94.07 C-47.847 95.045 -47.162 96.019 -46.457 97.023 C-43.476 100.749 -40.772 103.302 -36.219 104.82 C-36.59 105.687 -36.961 106.553 -37.344 107.445 C-38.376 111.426 -38.078 113.186 -36.219 116.82 C-33.795 118.113 -32.707 117.964 -30.094 117.195 C-27.612 115.375 -27.074 113.741 -26.219 110.82 C-26.219 109.83 -26.219 108.84 -26.219 107.82 C-24.919 107.758 -23.62 107.697 -22.281 107.633 C-14.341 106.746 -7.909 102.219 -2.219 96.82 C-2.219 96.16 -2.219 95.5 -2.219 94.82 C-1.559 94.82 -0.899 94.82 -0.219 94.82 C0.441 96.14 1.101 97.46 1.781 98.82 C4.155 99.155 4.155 99.155 6.781 98.82 C9.569 96.417 9.77 94.947 10.094 91.258 C10.046 87.701 10.046 87.701 7.781 84.82 C7.121 84.82 6.461 84.82 5.781 84.82 C6.047 84.212 6.312 83.603 6.586 82.977 C11.432 70.95 12.577 58.632 10.781 45.82 C11.583 45.405 12.385 44.99 13.211 44.562 C15.845 43.095 15.845 43.095 16.664 40.953 C16.924 38.796 17.088 36.978 16.781 34.82 C14.51 31.796 14.51 31.796 11.781 29.82 C9.801 30.81 7.821 31.8 5.781 32.82 C5.699 32.284 5.616 31.748 5.531 31.195 C4.505 27.947 2.816 25.533 0.781 22.82 C0.121 22.82 -0.539 22.82 -1.219 22.82 C-1.446 22.222 -1.673 21.624 -1.906 21.008 C-3.557 18.257 -5.416 17.295 -8.219 15.82 C-7.889 15.16 -7.559 14.5 -7.219 13.82 C-6.711 8.721 -6.711 8.721 -9.094 4.383 C-11.764 2.42 -12.366 2.381 -15.281 3.883 Z " fill="#FFFFFF" transform="translate(270.21875,137.1796875)"/>
<path d="M0 0 C10.171 6.982 16.185 15.312 22.25 25.812 C22.91 26.803 23.57 27.792 24.25 28.812 C25.302 27.946 25.302 27.946 26.375 27.062 C38.12 17.87 48.678 15.648 63.25 16.812 C74.624 18.751 83.592 26.785 90.25 35.812 C94.953 43.678 98.42 51.805 100.25 60.812 C100.433 61.67 100.616 62.527 100.805 63.41 C104.142 88.909 98.387 111.07 85.25 132.812 C84.59 132.812 83.93 132.812 83.25 132.812 C83 133.393 82.75 133.973 82.492 134.57 C77.984 142.708 68.56 147.458 60.25 150.812 C48.245 154.028 36.686 151.957 26.062 146.062 C21.673 143.323 18.04 140.213 15.25 135.812 C15.25 135.153 15.25 134.493 15.25 133.812 C14.59 133.812 13.93 133.812 13.25 133.812 C10.25 129.428 10.25 129.428 10.25 126.812 C9.731 127.271 9.211 127.73 8.676 128.203 C-2.246 137.812 -2.246 137.812 -4.75 137.812 C-4.75 138.472 -4.75 139.132 -4.75 139.812 C-18.589 146.521 -31.732 150.882 -47.188 146.625 C-62.797 140.97 -74.001 129.367 -81.316 114.664 C-90.134 94.187 -92.176 70.331 -85.75 48.812 C-85.443 47.544 -85.443 47.544 -85.129 46.25 C-82.278 35.2 -76.251 23.402 -68.75 14.812 C-68.09 14.812 -67.43 14.812 -66.75 14.812 C-66.502 14.232 -66.255 13.652 -66 13.055 C-60.751 3.639 -48.803 -2.434 -38.938 -5.562 C-25.013 -9.149 -12.381 -7.415 0 0 Z M-57.75 6.812 C-58.446 7.346 -59.142 7.88 -59.859 8.43 C-76.441 21.862 -85.103 44.545 -87.562 65.25 C-87.652 66.769 -87.714 68.291 -87.75 69.812 C-87.789 70.738 -87.827 71.664 -87.867 72.617 C-88.044 80.191 -87.171 87.381 -85.75 94.812 C-85.579 95.778 -85.407 96.744 -85.23 97.738 C-82.799 109.333 -77.042 120.511 -69.75 129.812 C-69.09 129.812 -68.43 129.812 -67.75 129.812 C-67.75 130.472 -67.75 131.132 -67.75 131.812 C-58.163 141.233 -46.247 146.702 -32.777 146.844 C-18.5 146.107 -5.987 139.605 4.25 129.812 C4.25 129.153 4.25 128.493 4.25 127.812 C5.24 127.482 6.23 127.153 7.25 126.812 C8.421 122.679 8.04 120.39 6.438 116.438 C4.802 112.256 3.406 108.149 2.25 103.812 C-0.359 106.221 -2.453 108.744 -4.5 111.625 C-11.359 120.856 -19.992 126.371 -31.305 128.559 C-40.583 129.522 -50.307 127.943 -57.855 122.215 C-59.056 121.168 -60.233 120.094 -61.375 118.984 C-62.703 117.596 -62.703 117.596 -64.75 117.812 C-65.41 116.162 -66.07 114.512 -66.75 112.812 C-67.41 112.812 -68.07 112.812 -68.75 112.812 C-69.418 111.146 -70.084 109.479 -70.75 107.812 C-71.152 106.806 -71.554 105.799 -71.969 104.762 C-72.603 103.147 -72.603 103.147 -73.25 101.5 C-73.673 100.431 -74.096 99.363 -74.531 98.262 C-81.065 79.769 -79.372 58.539 -70.953 40.91 C-64.803 28.957 -55.71 19.485 -42.953 14.781 C-33.392 11.929 -25.081 11.972 -15.75 15.812 C-5.652 22.008 -5.652 22.008 -3.75 25.812 C-3.09 25.812 -2.43 25.812 -1.75 25.812 C-1.502 26.493 -1.255 27.174 -1 27.875 C0.211 30.9 0.211 30.9 2.062 33.875 C5.032 38.918 7.078 44.392 9.25 49.812 C11.913 46.534 14.449 43.207 16.875 39.75 C17.465 38.913 18.056 38.077 18.664 37.215 C19.187 36.422 19.711 35.629 20.25 34.812 C20.919 33.84 20.919 33.84 21.602 32.848 C22.594 29.732 21.462 28.174 20 25.312 C12.458 11.275 1.964 1.045 -13.133 -4.301 C-29.526 -8.319 -44.75 -3.688 -57.75 6.812 Z M-55.75 22.812 C-55.75 23.472 -55.75 24.132 -55.75 24.812 C-56.318 25.03 -56.887 25.248 -57.473 25.473 C-66.691 30.896 -72.251 44.167 -74.938 54.012 C-79.792 73.156 -78.737 91.773 -68.594 109.008 C-62.779 117.854 -56.195 123.235 -46.312 127.188 C-34.21 129.311 -23.831 126.789 -13.75 119.812 C-10.441 117.049 -7.571 114.069 -4.75 110.812 C-4.05 110.034 -3.35 109.255 -2.629 108.453 C2.507 101.799 2.721 96.35 2.403 88.3 C2.178 82.411 2.561 76.933 3.562 71.125 C3.74 70.049 3.74 70.049 3.921 68.951 C4.581 65.321 5.497 62.044 6.883 58.621 C9.344 52.344 7.44 46.899 5.086 40.793 C-0.734 28.128 -9.213 20.374 -21.625 14.438 C-33.714 12.02 -46.188 14.758 -55.75 22.812 Z M30.25 29.812 C29.239 30.719 29.239 30.719 28.207 31.645 C24.913 34.762 22.477 37.315 21.25 41.812 C20.59 41.812 19.93 41.812 19.25 41.812 C7.4 64.793 2.297 89.963 9.988 115.438 C15.046 128.966 22.304 141.378 35.875 147.625 C45.943 151.167 55.755 150.548 65.312 146 C80.565 137.867 89.917 123.654 95.219 107.391 C101.476 85.682 101.602 63.37 91.25 42.812 C89.416 39.673 87.42 36.728 85.25 33.812 C84.487 32.761 83.724 31.709 82.938 30.625 C75.479 22.82 66.581 18.85 55.812 18.375 C45.535 18.723 37.758 23.068 30.25 29.812 Z " fill="#161616" transform="translate(194.75,113.1875)"/>
<path d="M0 0 C6.051 3.731 10.799 10.638 12.812 17.414 C12.963 18.236 12.963 18.236 13.117 19.074 C-1.814 19.774 -1.814 19.774 -8.117 15.91 C-11.545 14.287 -14.28 15.188 -17.883 16.074 C-23.738 18.444 -27.367 23.761 -29.93 29.363 C-33.293 39.103 -33.052 49.228 -29.164 58.754 C-26.926 62.808 -24.023 65.004 -19.883 67.074 C-12.1 67.884 -6.979 65.998 -0.883 61.074 C-0.677 61.858 -0.47 62.642 -0.258 63.449 C0.924 66.383 0.924 66.383 4.242 67.387 C5.191 67.614 6.14 67.84 7.117 68.074 C4.848 75.089 0.444 79.426 -5.785 83.035 C-12.38 86.302 -18.709 86.692 -25.883 85.074 C-34.932 81.532 -39.887 73.988 -44.086 65.699 C-49.687 52.129 -48.778 34.125 -43.5 20.535 C-38.504 9.843 -31.116 1.225 -20.07 -3.234 C-12.986 -5.474 -6.405 -3.149 0 0 Z " fill="#FFFFFF" transform="translate(393.8828125,173.92578125)"/>
<path d="M0 0 C0.99 0.66 1.98 1.32 3 2 C3 2.66 3 3.32 3 4 C3.99 4.33 4.98 4.66 6 5 C12.909 15.517 14.35 26.846 12.535 39.152 C10.124 50.236 4.811 58.199 -3.875 65.375 C-7.863 67.449 -9.721 67.245 -14 66 C-16.75 64.688 -16.75 64.688 -19 62 C-19.936 58.911 -20.629 55.852 -21.227 52.68 C-21.78 49.68 -21.78 49.68 -25 48 C-28.425 38.879 -25.713 26.941 -23 18 C-21.645 15.152 -21.645 15.152 -20 13 C-18.669 12.659 -17.336 12.324 -16 12 C-15.08 10.007 -15.08 10.007 -14.625 7.625 C-13.579 4.088 -13.315 3.237 -10.25 0.938 C-6.615 -0.111 -3.765 -0.355 0 0 Z " fill="#FFFFFF" transform="translate(242,163)"/>
<path d="M0 0 C9.402 6.207 13.086 15.465 16 26 C18.837 40.185 15.395 54.21 9 67 C10.32 67 11.64 67 13 67 C13.688 69.812 13.688 69.812 14 73 C12.562 74.875 12.562 74.875 11 76 C9.062 75.25 9.062 75.25 7 74 C6.371 71.922 6.371 71.922 6 70 C5.237 71.031 4.474 72.062 3.688 73.125 C-1.559 79.286 -9.417 83.464 -17.48 84.238 C-25.572 84.46 -30.904 82.572 -37.688 78.312 C-40.485 75.515 -42.481 72.47 -44.57 69.121 C-45.897 67.153 -47.264 65.608 -49 64 C-49.66 65.32 -50.32 66.64 -51 68 C-52.32 67.34 -53.64 66.68 -55 66 C-55 64.02 -55 62.04 -55 60 C-52.525 59.505 -52.525 59.505 -50 59 C-50.156 58.296 -50.312 57.592 -50.473 56.867 C-53.617 40.917 -50.789 26.188 -43 12 C-44.32 11.67 -45.64 11.34 -47 11 C-47.625 8.688 -47.625 8.688 -48 6 C-47.34 5.01 -46.68 4.02 -46 3 C-44.35 3.33 -42.7 3.66 -41 4 C-40.67 5.32 -40.34 6.64 -40 8 C-39.182 7.203 -39.182 7.203 -38.348 6.391 C-26.957 -4.28 -14.387 -8.043 0 0 Z M-35 6 C-32.053 7.158 -32.053 7.158 -29 7 C-28.67 7.66 -28.34 8.32 -28 9 C-28.892 9.232 -29.784 9.464 -30.703 9.703 C-34.447 11.176 -36.111 12.747 -38.75 15.75 C-39.887 17.011 -39.887 17.011 -41.047 18.297 C-43.123 21.171 -44.172 23.562 -45 27 C-44.108 29.117 -44.108 29.117 -43 31 C-43.144 31.534 -43.289 32.067 -43.438 32.617 C-44.405 36.715 -43.998 40.967 -43.873 45.156 C-43.81 49.101 -44.216 51.541 -46 55 C-44.582 60.43 -40.679 64.913 -37 69 C-38.485 69.495 -38.485 69.495 -40 70 C-38.073 74.905 -34.256 77.163 -30 80 C-22.421 81.965 -16.132 79.913 -9 77 C1.336 70.492 6.791 57.975 9.617 46.492 C11.637 33.342 9.338 21.312 1.828 10.348 C-2.576 4.692 -8.106 0.589 -15.332 -0.504 C-23.642 -0.644 -28.721 0.418 -35 6 Z " fill="#161616" transform="translate(178,144)"/>
<path d="M0 0 C1 3 1 3 1 5 C-24.304 8.56 -49.618 12.051 -74.938 15.5 C-75.651 15.597 -76.365 15.694 -77.1 15.795 C-87.4 17.198 -97.7 18.599 -108 20 C-141.287 24.528 -174.568 29.098 -207.844 33.702 C-210.083 34.012 -212.322 34.321 -214.561 34.631 C-224.241 35.969 -233.92 37.309 -243.599 38.651 C-246.745 39.087 -249.89 39.522 -253.035 39.957 C-274.255 42.89 -274.255 42.89 -295.446 46.016 C-303.035 47.168 -310.639 48.19 -318.25 49.188 C-319.604 49.366 -320.958 49.545 -322.312 49.725 C-325.541 50.151 -328.771 50.576 -332 51 C-332 50.34 -332 49.68 -332 49 C-329.525 48.505 -329.525 48.505 -327 48 C-328.65 48 -330.3 48 -332 48 C-331.67 47.34 -331.34 46.68 -331 46 C-329.224 45.527 -329.224 45.527 -326.868 45.21 C-325.982 45.086 -325.096 44.962 -324.183 44.834 C-323.209 44.707 -322.234 44.58 -321.23 44.449 C-320.219 44.31 -319.208 44.171 -318.166 44.028 C-314.841 43.573 -311.514 43.13 -308.188 42.688 C-305.898 42.376 -303.609 42.064 -301.32 41.751 C-296.715 41.122 -292.11 40.498 -287.504 39.878 C-279.455 38.794 -271.412 37.676 -263.368 36.554 C-261.283 36.263 -259.198 35.974 -257.112 35.686 C-248.949 34.557 -240.791 33.402 -232.633 32.234 C-220.175 30.451 -207.713 28.692 -195.25 26.938 C-194.572 26.842 -193.894 26.747 -193.195 26.648 C-152.393 20.905 -111.567 15.345 -70.74 9.785 C-68.46 9.475 -66.181 9.164 -63.901 8.854 C-62.41 8.65 -60.919 8.447 -59.427 8.244 C-58.699 8.145 -57.97 8.046 -57.219 7.943 C-53.01 7.37 -48.801 6.798 -44.592 6.226 C-29.72 4.205 -14.854 2.15 0 0 Z " fill="#313131" transform="translate(336,319)"/>
<path d="M0 0 C9.929 0.098 18.048 2.817 25.859 8.945 C27.188 10.312 27.188 10.312 27.188 12.312 C28.178 12.643 29.168 12.972 30.188 13.312 C31.539 15.492 31.539 15.492 32.812 18.188 C33.451 19.514 33.451 19.514 34.102 20.867 C36.906 27.183 36.789 33.495 36.188 40.312 C35.139 42.954 34.154 44.223 32.188 46.312 C31.188 43.312 31.188 43.312 32.188 40.312 C33.139 30.941 31.301 23.048 25.562 15.5 C19.629 9.147 10.279 5.589 1.691 5.199 C-0.481 5.189 -2.642 5.222 -4.812 5.312 C-4.085 5.327 -3.358 5.341 -2.609 5.355 C5.52 5.741 11.877 7.8 19.188 11.312 C18.527 11.972 17.868 12.632 17.188 13.312 C16.595 19.522 18.158 25.136 19.688 31.125 C20.158 33.006 20.627 34.888 21.094 36.77 C21.303 37.594 21.513 38.419 21.729 39.269 C22.188 41.312 22.188 41.312 22.188 43.312 C22.847 43.312 23.507 43.312 24.188 43.312 C24.188 43.972 24.188 44.632 24.188 45.312 C27.181 44.315 28.135 43.56 30.188 41.312 C29.625 44.574 28.773 46.224 26.188 48.312 C18.191 50.978 10.81 48.198 3.188 45.312 C-3.526 41.889 -5.113 36.515 -7.5 29.688 C-10.092 21.39 -11.599 11.896 -8.375 3.625 C-5.778 -0.218 -4.668 0.105 0 0 Z " fill="#FFFFFF" transform="translate(397.8125,194.6875)"/>
<path d="M0 0 C4.429 3.422 7.43 7.636 9 13 C9.995 21.428 9.686 29.705 5 37 C0.558 41.88 -3.056 44.706 -9.75 45.375 C-13.829 45.3 -16.299 44.163 -19.461 41.629 C-24.702 36.082 -26.341 28.913 -26.207 21.496 C-25.583 13.972 -23.22 8.092 -17.953 2.637 C-12.354 -2.055 -6.689 -3.136 0 0 Z " fill="#FFFFFF" transform="translate(163,162)"/>
<path d="M0 0 C0 0.66 0 1.32 0 2 C1.158 1.856 2.315 1.711 3.508 1.562 C5.047 1.375 6.586 1.187 8.125 1 C8.886 0.905 9.646 0.809 10.43 0.711 C14.649 0.202 18.74 -0.109 23 0 C22.67 0.66 22.34 1.32 22 2 C19.614 2.432 17.315 2.733 14.906 2.965 C14.168 3.044 13.43 3.123 12.669 3.204 C10.28 3.457 7.89 3.698 5.5 3.938 C2.427 4.256 -0.646 4.579 -3.719 4.902 C-4.523 4.986 -5.328 5.07 -6.157 5.156 C-14.957 6.082 -23.738 7.152 -32.521 8.217 C-38.93 8.994 -45.342 9.75 -51.754 10.5 C-52.809 10.624 -53.865 10.747 -54.952 10.875 C-59.226 11.376 -63.499 11.876 -67.773 12.375 C-79.196 13.71 -90.616 15.065 -102.027 16.5 C-126.583 19.589 -151.169 22.421 -175.755 25.26 C-192.826 27.232 -209.895 29.214 -226.956 31.272 C-236.806 32.46 -246.658 33.626 -256.511 34.79 C-258.793 35.06 -261.075 35.33 -263.357 35.601 C-266.715 36 -270.072 36.397 -273.43 36.793 C-274.451 36.915 -275.473 37.037 -276.526 37.162 C-277.466 37.273 -278.406 37.383 -279.375 37.497 C-280.198 37.594 -281.022 37.692 -281.871 37.792 C-284 38 -284 38 -287 38 C-287 36.68 -287 35.36 -287 34 C-284.291 32.646 -281.991 32.935 -279 33 C-279 33.66 -279 34.32 -279 35 C-274.05 34.34 -269.1 33.68 -264 33 C-266.64 33 -269.28 33 -272 33 C-269.302 30.302 -267.504 30.502 -263.728 30.086 C-262.761 29.976 -262.761 29.976 -261.775 29.863 C-259.629 29.621 -257.483 29.391 -255.336 29.16 C-253.827 28.992 -252.318 28.822 -250.809 28.652 C-246.811 28.204 -242.812 27.765 -238.812 27.329 C-234.839 26.895 -230.867 26.452 -226.895 26.01 C-226.122 25.924 -225.35 25.838 -224.555 25.749 C-223.005 25.576 -221.455 25.404 -219.905 25.231 C-217.575 24.971 -215.244 24.713 -212.914 24.454 C-203.721 23.432 -194.539 22.35 -185.364 21.182 C-171.1 19.368 -156.821 17.682 -142.543 15.983 C-139.123 15.576 -135.703 15.167 -132.284 14.756 C-128.075 14.25 -123.865 13.747 -119.654 13.248 C-118.079 13.06 -116.503 12.871 -114.927 12.681 C-104.959 11.478 -95.026 10.562 -85 10 C-85 10.66 -85 11.32 -85 12 C-80.05 11.34 -75.1 10.68 -70 10 C-72.64 10 -75.28 10 -78 10 C-75.255 7.255 -73.285 7.472 -69.442 7.039 C-68.769 6.96 -68.096 6.882 -67.402 6.801 C-65.17 6.544 -62.937 6.299 -60.703 6.055 C-59.151 5.879 -57.599 5.702 -56.047 5.525 C-52.789 5.155 -49.53 4.791 -46.271 4.431 C-42.103 3.971 -37.936 3.5 -33.77 3.026 C-30.562 2.661 -27.353 2.299 -24.144 1.94 C-22.608 1.767 -21.073 1.594 -19.537 1.42 C-17.383 1.178 -15.229 0.94 -13.075 0.703 C-11.239 0.499 -11.239 0.499 -9.366 0.29 C-6.222 0.019 -3.153 -0.054 0 0 Z " fill="#0C0C0C" transform="translate(291,265)"/>
<path d="M0 0 C8.58 2.786 13.639 9.166 17.75 16.875 C23.518 29.209 23.326 41.789 19.273 54.695 C15.889 63.478 10.665 71.44 3 77 C-3.922 79.951 -10.665 82.238 -18 80 C-22.516 77.367 -25.903 74.882 -28 70 C-27.31 70.072 -26.621 70.144 -25.91 70.219 C-12.515 71.971 -12.515 71.971 0 68 C8.084 60.861 12.391 52.379 13.273 41.688 C13.545 31.831 12.632 22.688 6.133 14.707 C-0.144 8.784 -7.095 7.741 -15.438 7.375 C-16.169 7.336 -16.901 7.298 -17.654 7.258 C-19.436 7.165 -21.218 7.081 -23 7 C-21.338 5.661 -19.67 4.329 -18 3 C-17.062 2.149 -17.062 2.149 -16.105 1.281 C-11.407 -1.578 -5.268 -0.608 0 0 Z " fill="#FFFFFF" transform="translate(166,144)"/>
<path d="M0 0 C1.021 0.804 1.021 0.804 2.062 1.625 C2.062 2.285 2.062 2.945 2.062 3.625 C1.402 3.625 0.743 3.625 0.062 3.625 C-0.598 6.595 -1.257 9.565 -1.938 12.625 C-3.34 12.542 -4.743 12.46 -6.188 12.375 C-9.546 12.375 -10.614 12.398 -13.438 14.375 C-16.489 18.952 -16.5 24.274 -15.938 29.625 C-14.779 32.044 -13.814 33.748 -11.938 35.625 C-8.274 35.761 -5.431 35.79 -1.938 34.625 C-1.938 33.965 -1.938 33.305 -1.938 32.625 C-1.277 32.625 -0.618 32.625 0.062 32.625 C1.382 35.925 2.702 39.225 4.062 42.625 C-4.71 49.734 -4.71 49.734 -9.938 49.625 C-12.73 48.813 -15.255 47.781 -17.938 46.625 C-17.938 45.965 -17.938 45.305 -17.938 44.625 C-18.598 44.625 -19.257 44.625 -19.938 44.625 C-25.867 36.006 -25.854 27.675 -24.938 17.625 C-23.401 10.151 -19.185 3.951 -12.938 -0.375 C-8.293 -1.923 -4.478 -2.096 0 0 Z " fill="#FFFFFF" transform="translate(387.9375,191.375)"/>
<path d="M0 0 C9.613 7.795 13.561 19.162 14.914 31.164 C15.449 44.744 11.442 58.153 2.672 68.566 C-2.767 74.384 -8.259 77.81 -16.41 78.289 C-21.191 77.803 -25.164 77.239 -29.035 74.289 C-30.41 72.289 -30.41 72.289 -30.41 70.289 C-29.42 70.619 -28.43 70.949 -27.41 71.289 C-20.259 73.289 -13.926 72.8 -7.41 69.289 C0.994 64.009 4.622 55.855 7.402 46.578 C10.135 34.545 8.897 22.472 3.078 11.555 C-0.115 6.694 -4.679 2.687 -10.41 1.289 C-15.274 1.057 -19.62 1.331 -24.41 2.289 C-17.623 -5.064 -8.536 -5.584 0 0 Z " fill="#FFFFFF" transform="translate(255.41015625,159.7109375)"/>
<path d="M0 0 C9.71 6.666 17.197 15.145 22.25 25.812 C21.92 26.803 21.59 27.792 21.25 28.812 C20.838 28.134 20.425 27.456 20 26.758 C10.733 11.823 1.031 0.171 -16.75 -4.188 C-30.113 -6.089 -42.322 -3.228 -53.438 4.562 C-54.588 5.452 -54.588 5.452 -55.762 6.359 C-57.75 7.812 -57.75 7.812 -60.75 8.812 C-61.08 9.802 -61.41 10.793 -61.75 11.812 C-63.417 13.479 -65.083 15.146 -66.75 16.812 C-79.126 30.587 -86.314 51.418 -86.75 69.812 C-86.789 70.738 -86.827 71.664 -86.867 72.617 C-87.044 80.191 -86.171 87.381 -84.75 94.812 C-84.579 95.778 -84.407 96.744 -84.23 97.738 C-81.93 108.707 -76.791 119.133 -69.75 127.812 C-69.75 128.472 -69.75 129.132 -69.75 129.812 C-69.09 129.812 -68.43 129.812 -67.75 129.812 C-67.75 130.472 -67.75 131.132 -67.75 131.812 C-66.76 132.143 -65.77 132.472 -64.75 132.812 C-64.75 133.472 -64.75 134.132 -64.75 134.812 C-64.225 135.07 -63.701 135.328 -63.16 135.594 C-61.32 136.524 -59.498 137.489 -57.684 138.469 C-45.541 144.872 -34.518 147.72 -20.828 144.023 C-15.534 142.225 -10.91 139.941 -6.309 136.766 C-4.75 135.812 -4.75 135.812 -2.75 135.812 C-2.75 136.472 -2.75 137.132 -2.75 137.812 C-3.41 137.812 -4.07 137.812 -4.75 137.812 C-4.75 138.472 -4.75 139.132 -4.75 139.812 C-18.589 146.521 -31.732 150.882 -47.188 146.625 C-62.797 140.97 -74.001 129.367 -81.316 114.664 C-90.134 94.187 -92.176 70.331 -85.75 48.812 C-85.443 47.544 -85.443 47.544 -85.129 46.25 C-82.278 35.2 -76.251 23.402 -68.75 14.812 C-68.09 14.812 -67.43 14.812 -66.75 14.812 C-66.502 14.232 -66.255 13.652 -66 13.055 C-60.751 3.639 -48.803 -2.434 -38.938 -5.562 C-25.013 -9.149 -12.381 -7.415 0 0 Z " fill="#000000" transform="translate(194.75,113.1875)"/>
<path d="M0 0 C7.643 5.392 7.643 5.392 8.887 9.125 C9.547 9.125 10.207 9.125 10.887 9.125 C15.436 14.506 19.171 21.275 20.887 28.125 C20.484 30.418 20.484 30.418 19.887 32.125 C19.607 31.375 19.327 30.625 19.039 29.852 C13.948 16.855 7.08 6.229 -5.863 0.188 C-15.261 -3.383 -23.459 -2.763 -32.695 0.969 C-35.749 2.429 -38.368 4.154 -41.113 6.125 C-41.773 6.125 -42.433 6.125 -43.113 6.125 C-43.113 6.785 -43.113 7.445 -43.113 8.125 C-44.254 9.266 -45.398 10.403 -46.555 11.527 C-58.802 24.082 -64.035 40.879 -64.613 58.188 C-64.066 73.44 -59.434 89.245 -48.84 100.633 C-40.884 107.509 -32.334 110.604 -21.879 110.375 C-8.311 109.149 1.474 100.621 9.887 90.625 C10.547 89.8 11.207 88.975 11.887 88.125 C11.887 93.633 7.48 97.475 3.801 101.285 C-4.012 108.619 -13.155 113.028 -23.996 113.16 C-34.833 112.592 -44.454 109.065 -52.113 101.125 C-53.363 98.402 -53.363 98.402 -54.113 96.125 C-54.773 96.125 -55.433 96.125 -56.113 96.125 C-66.388 77.425 -69.809 57.396 -64.113 36.5 C-59.347 20.878 -50.22 7.362 -35.688 -0.691 C-23.845 -6.136 -11.437 -6.888 0 0 Z " fill="#000000" transform="translate(182.11328125,129.875)"/>
<path d="M0 0 C0 0.66 0 1.32 0 2 C-1.193 2.294 -1.193 2.294 -2.41 2.594 C-10.211 4.529 -17.998 6.514 -25.777 8.534 C-49.784 14.765 -73.857 20.735 -97.925 26.728 C-114.047 30.744 -130.151 34.829 -146.25 38.938 C-161.012 42.703 -175.775 46.461 -190.562 50.125 C-196.757 51.662 -202.933 53.217 -209.062 55 C-216.059 57.031 -223.084 58.941 -230.125 60.812 C-231.325 61.139 -232.525 61.466 -233.762 61.803 C-234.895 62.101 -236.028 62.4 -237.195 62.707 C-238.727 63.117 -238.727 63.117 -240.29 63.534 C-242.966 63.994 -244.471 63.897 -247 63 C-239.374 59.841 -231.436 58.006 -223.438 56.062 C-220.686 55.389 -217.934 54.713 -215.184 54.035 C-214.499 53.867 -213.814 53.698 -213.108 53.525 C-207.33 52.097 -201.581 50.571 -195.834 49.025 C-188.839 47.155 -181.825 45.362 -174.812 43.562 C-174.049 43.366 -173.285 43.17 -172.497 42.967 C-162.891 40.498 -153.284 38.038 -143.652 35.672 C-139.152 34.561 -134.675 33.38 -130.199 32.176 C-120.85 29.666 -111.456 27.337 -102.062 25 C-100.339 24.57 -98.616 24.141 -96.893 23.711 C-93.679 22.909 -90.465 22.109 -87.25 21.309 C-85.5 20.872 -83.75 20.436 -82 20 C-80.8 19.701 -79.6 19.402 -78.364 19.094 C-69.813 16.962 -61.27 14.801 -52.733 12.614 C-49.271 11.728 -45.808 10.845 -42.346 9.961 C-37.985 8.848 -33.624 7.734 -29.264 6.616 C-25.693 5.701 -22.121 4.789 -18.549 3.879 C-17.198 3.534 -15.846 3.188 -14.495 2.841 C-12.621 2.359 -10.746 1.882 -8.87 1.405 C-7.806 1.133 -6.741 0.861 -5.645 0.581 C-3 0 -3 0 0 0 Z " fill="#000000" transform="translate(251,38)"/>
<path d="M0 0 C5.165 4.222 9.279 8.418 13 14 C13.125 16.086 13.125 16.086 13 18.375 C12.922 22.059 13.117 24.73 15 28 C16.485 28.99 16.485 28.99 18 30 C18.31 32.719 18.425 35.158 18.375 37.875 C18.368 38.637 18.36 39.399 18.353 40.185 C18.152 48.493 16.462 56.416 13 64 C11 65.125 11 65.125 9 66 C6.717 68.841 6.717 68.841 6.938 72.188 C5.511 77.987 1.762 80.631 -3 84 C-10.379 88.294 -10.379 88.294 -14.262 87.59 C-14.835 87.395 -15.409 87.201 -16 87 C-14.845 86.484 -13.69 85.969 -12.5 85.438 C-7.087 82.688 -1.458 79.382 1.027 73.617 C1.772 71.23 1.772 71.23 2.234 68.918 C3 67 3 67 4.938 66.16 C7.306 65.102 7.306 65.102 8.266 62.078 C10.405 53.759 11.383 45.916 11.438 37.312 C11.447 36.369 11.457 35.425 11.468 34.452 C11.404 29.378 11.054 26.228 8 22 C8 20 8 18 8 16 C7.063 13.97 6.071 11.963 5 10 C5 9.34 5 8.68 5 8 C4.34 8 3.68 8 3 8 C1.02 4.535 1.02 4.535 -1 1 C-0.67 0.67 -0.34 0.34 0 0 Z " fill="#FFFFFF" transform="translate(262,155)"/>
<path d="M0 0 C10.099 -0.685 20.377 1.627 28.285 8.23 C34.678 14.827 38.078 21.683 38.125 30.875 C38.093 32.584 38.055 34.292 38 36 C37.381 36.268 36.762 36.536 36.125 36.812 C33.7 37.956 33.7 37.956 32 41 C31.01 41 30.02 41 29 41 C29 40.34 29 39.68 29 39 C28.34 39 27.68 39 27 39 C26.003 35.283 25.009 31.564 24.023 27.844 C23.457 25.716 22.885 23.589 22.289 21.469 C21 16.759 19.727 11.545 22 7 C14.374 3.299 7.434 2.264 -1 2 C-0.67 1.34 -0.34 0.68 0 0 Z " fill="#0B0B0B" transform="translate(393,199)"/>
<path d="M0 0 C0 0.66 0 1.32 0 2 C3.3 1.67 6.6 1.34 10 1 C10 1.66 10 2.32 10 3 C0.624 4.269 -8.752 5.536 -18.128 6.801 C-24.415 7.65 -30.701 8.501 -36.988 9.353 C-41.601 9.978 -46.215 10.601 -50.828 11.225 C-53.086 11.53 -55.343 11.836 -57.6 12.142 C-70.388 13.877 -83.176 15.555 -96 17 C-95.67 16.34 -95.34 15.68 -95 15 C-91.938 14.375 -91.938 14.375 -89 14 C-91.31 14 -93.62 14 -96 14 C-93.644 11.644 -92.796 11.627 -89.571 11.21 C-88.645 11.086 -87.719 10.962 -86.765 10.834 C-85.752 10.707 -84.739 10.58 -83.695 10.449 C-82.64 10.31 -81.585 10.171 -80.498 10.027 C-77.041 9.573 -73.583 9.13 -70.125 8.688 C-66.566 8.223 -63.007 7.756 -59.448 7.289 C-57.062 6.976 -54.675 6.664 -52.288 6.353 C-45.103 5.416 -37.924 4.446 -30.75 3.43 C-29.494 3.252 -29.494 3.252 -28.213 3.071 C-25.099 2.629 -21.985 2.187 -18.872 1.737 C-16.793 1.437 -14.713 1.142 -12.633 0.848 C-11.487 0.683 -10.341 0.518 -9.161 0.348 C-6.078 0.009 -3.099 -0.063 0 0 Z " fill="#222222" transform="translate(197,339)"/>
<path d="M0 0 C1.212 0.014 1.212 0.014 2.449 0.027 C3.372 0.045 3.372 0.045 4.312 0.062 C4.642 0.722 4.972 1.382 5.312 2.062 C4.322 2.558 4.322 2.558 3.312 3.062 C4.22 3.619 5.127 4.176 6.062 4.75 C11.647 8.724 14.757 13.362 16.312 20.062 C17.567 29.701 15.352 37.985 9.973 46.078 C7.97 48.586 5.991 50.277 3.312 52.062 C3.972 52.062 4.632 52.062 5.312 52.062 C5.312 52.722 5.312 53.382 5.312 54.062 C0.099 56.335 -4.256 56.52 -9.688 55.062 C-15.6 52.164 -19.23 47.787 -21.629 41.656 C-24.771 31.849 -24.034 22.637 -19.852 13.25 C-15.692 5.433 -9.11 -0.132 0 0 Z M-13.641 8.699 C-19.407 14.672 -21.704 21.4 -22.062 29.625 C-21.791 36.595 -19.678 43.072 -14.688 48.062 C-11.198 50.873 -8.242 51.605 -3.738 51.41 C1.293 50.557 4.527 47.848 8.062 44.312 C13.637 36.261 14.326 28.712 13.312 19.062 C11.757 13.7 8.734 9.479 4.312 6.062 C-2.377 2.926 -8.042 4.007 -13.641 8.699 Z " fill="#090909" transform="translate(158.6875,155.9375)"/>
<path d="M0 0 C-5.75 5 -5.75 5 -8 5 C-8.408 5.868 -8.408 5.868 -8.824 6.754 C-9.994 8.989 -11.33 10.9 -12.812 12.938 C-21.898 26.409 -23.798 42.599 -21.504 58.422 C-19.293 68.064 -14.954 76.174 -9 84 C-15.44 81.376 -20.475 75.145 -23.449 69.012 C-29.426 52.968 -29.805 36.049 -22.639 20.307 C-19.111 13.136 -9.94 -3.313 0 0 Z " fill="#FFFFFF" transform="translate(368,172)"/>
<path d="M0 0 C4.307 0.479 6.232 2.827 9 6 C16.368 15.909 16.763 26.064 16 38 C14.421 47.288 10.026 55.713 3 62 C2.567 62.557 2.134 63.114 1.688 63.688 C-1.161 65.903 -4.505 66.255 -8 67 C-7.278 66.299 -6.556 65.597 -5.812 64.875 C5.128 53.812 9.836 41.61 10 26 C9.187 16.194 5.696 7.933 0 0 Z " fill="#FFFFFF" transform="translate(247,164)"/>
<path d="M0 0 C-0.777 1.929 -0.777 1.929 -2 4 C-9.577 6.407 -17.67 6.83 -25.554 7.632 C-29.648 8.049 -33.74 8.482 -37.832 8.914 C-39.088 9.046 -39.088 9.046 -40.37 9.181 C-50.766 10.281 -61.145 11.528 -71.523 12.781 C-72.551 12.904 -72.551 12.904 -73.599 13.029 C-75.442 13.25 -77.284 13.473 -79.125 13.696 C-82 14 -82 14 -85 14 C-85 12.68 -85 11.36 -85 10 C-82.291 8.646 -79.991 8.935 -77 9 C-77 9.66 -77 10.32 -77 11 C-72.05 10.34 -67.1 9.68 -62 9 C-64.64 9 -67.28 9 -70 9 C-67.402 6.402 -65.91 6.541 -62.284 6.13 C-60.487 5.92 -60.487 5.92 -58.653 5.706 C-57.351 5.563 -56.049 5.421 -54.707 5.273 C-53.359 5.12 -52.011 4.966 -50.663 4.811 C-47.833 4.488 -45.003 4.171 -42.172 3.858 C-38.557 3.459 -34.944 3.049 -31.332 2.634 C-28.545 2.315 -25.757 2.001 -22.969 1.687 C-20.993 1.465 -19.018 1.241 -17.042 1.016 C-15.828 0.882 -14.614 0.749 -13.363 0.611 C-12.3 0.493 -11.238 0.374 -10.144 0.252 C-6.751 -0.02 -3.403 -0.042 0 0 Z " fill="#161616" transform="translate(89,289)"/>
<path d="M0 0 C0.33 0 0.66 0 1 0 C2.194 5.959 1.988 11.685 1.84 17.734 C1.638 21.086 1.638 21.086 4 23 C3.65 29.37 0.75 35.353 -2 41 C-0.68 41 0.64 41 2 41 C2.688 43.812 2.688 43.812 3 47 C1.562 48.875 1.562 48.875 0 50 C-1.938 49.25 -1.938 49.25 -4 48 C-4.629 45.922 -4.629 45.922 -5 44 C-5.763 45.031 -6.526 46.062 -7.312 47.125 C-11.269 51.752 -16.313 54.87 -22 57 C-24.336 56.656 -24.336 56.656 -26 56 C-26 55.34 -26 54.68 -26 54 C-25.01 54 -24.02 54 -23 54 C-22.67 53.01 -22.34 52.02 -22 51 C-21.01 51.33 -20.02 51.66 -19 52 C-18.67 51.01 -18.34 50.02 -18 49 C-17.228 48.537 -16.456 48.074 -15.66 47.598 C-7.831 42.896 -3.92 32.626 -1.474 24.186 C-0.934 21.697 -0.787 19.342 -0.684 16.797 C-0.642 15.817 -0.6 14.838 -0.557 13.828 C-0.517 12.812 -0.478 11.797 -0.438 10.75 C-0.394 9.719 -0.351 8.688 -0.307 7.625 C-0.201 5.083 -0.099 2.542 0 0 Z " fill="#5B5B5B" transform="translate(189,170)"/>
<path d="M0 0 C1.32 0 2.64 0 4 0 C3.521 3.521 3.042 7.042 2.562 10.562 C2.428 11.553 2.293 12.544 2.154 13.564 C1.453 18.712 0.743 23.858 0 29 C0.855 29.482 1.709 29.964 2.59 30.461 C3.695 31.093 4.799 31.724 5.938 32.375 C7.04 33.001 8.142 33.628 9.277 34.273 C12 36 12 36 13 38 C9.742 37.382 7.708 36.184 5 34.312 C1.114 32.126 -1.113 31.801 -5.473 32.66 C-7.051 32.966 -7.051 32.966 -8.661 33.277 C-15.433 34.743 -22.17 36.334 -28.904 37.965 C-30.558 38.357 -30.558 38.357 -32.246 38.758 C-33.233 38.996 -34.219 39.235 -35.236 39.481 C-37.899 39.981 -40.299 40.098 -43 40 C-40.487 37.487 -38.743 37.286 -35.293 36.492 C-33.577 36.096 -33.577 36.096 -31.826 35.691 C-30.625 35.422 -29.425 35.153 -28.188 34.875 C-26.998 34.598 -25.809 34.321 -24.584 34.035 C-14.873 31.821 -14.873 31.821 -10 32 C-9.914 31.37 -9.829 30.74 -9.74 30.092 C-9.348 27.207 -8.955 24.322 -8.562 21.438 C-8.428 20.447 -8.293 19.456 -8.154 18.436 C-7.891 16.502 -7.625 14.569 -7.356 12.636 C-7.137 11.012 -6.931 9.387 -6.75 7.758 C-6.564 6.163 -6.292 4.579 -6 3 C-5.34 2.67 -4.68 2.34 -4 2 C-4.491 11.88 -6.027 21.334 -8 31 C-7.01 30.67 -6.02 30.34 -5 30 C-3.35 20.1 -1.7 10.2 0 0 Z " fill="#000000" transform="translate(46,1)"/>
<path d="M0 0 C0.976 0.003 1.953 0.006 2.959 0.01 C3.966 0.018 4.974 0.027 6.012 0.035 C7.038 0.04 8.065 0.044 9.123 0.049 C11.648 0.061 14.174 0.077 16.699 0.098 C16.699 0.428 16.699 0.758 16.699 1.098 C15.83 1.219 14.962 1.34 14.066 1.465 C12.914 1.632 11.762 1.8 10.574 1.973 C9.437 2.135 8.3 2.298 7.129 2.465 C3.787 2.983 3.787 2.983 1.071 4.057 C-3.156 5.362 -7.296 5.876 -11.68 6.387 C-13.014 6.549 -13.014 6.549 -14.376 6.714 C-16.249 6.941 -18.122 7.164 -19.996 7.385 C-22.858 7.722 -25.719 8.069 -28.58 8.418 C-30.405 8.637 -32.23 8.856 -34.055 9.074 C-35.333 9.229 -35.333 9.229 -36.637 9.387 C-40.548 9.844 -44.355 10.229 -48.301 10.098 C-48.301 9.108 -48.301 8.118 -48.301 7.098 C-40.469 4.037 -32.894 3.209 -24.551 2.473 C-21.972 2.232 -19.394 1.99 -16.816 1.746 C-15.685 1.645 -14.553 1.543 -13.388 1.439 C-10.372 1.155 -10.372 1.155 -7.725 0.563 C-5.093 0.058 -2.679 -0.016 0 0 Z " fill="#5B5B5B" transform="translate(135.30078125,282.90234375)"/>
<path d="M0 0 C1.32 0 2.64 0 4 0 C4.72 6.51 5.431 13.02 6.136 19.531 C6.377 21.743 6.619 23.954 6.864 26.165 C7.216 29.357 7.562 32.549 7.906 35.742 C8.07 37.207 8.07 37.207 8.238 38.701 C8.89 44.826 9.132 50.842 9 57 C7.515 57.495 7.515 57.495 6 58 C3.808 48.121 3.042 38.076 2.14 28.018 C1.873 25.045 1.599 22.072 1.324 19.1 C1.151 17.203 0.977 15.307 0.805 13.41 C0.723 12.525 0.642 11.639 0.559 10.727 C0.485 9.902 0.411 9.077 0.335 8.227 C0.27 7.505 0.205 6.783 0.138 6.039 C0.002 4.03 0 2.014 0 0 Z " fill="#181818" transform="translate(108,3)"/>
<path d="M0 0 C0 0.66 0 1.32 0 2 C0.66 2.33 1.32 2.66 2 3 C-2.826 5.335 -7.79 5.825 -13.043 6.508 C-14.49 6.703 -14.49 6.703 -15.967 6.903 C-19.039 7.316 -22.113 7.721 -25.188 8.125 C-27.268 8.404 -29.348 8.684 -31.428 8.965 C-35.222 9.473 -39.017 9.982 -42.813 10.481 C-43.575 10.582 -44.337 10.682 -45.123 10.786 C-47 11 -47 11 -49 11 C-49 10.34 -49 9.68 -49 9 C-47.35 8.67 -45.7 8.34 -44 8 C-45.65 8 -47.3 8 -49 8 C-48.67 7.34 -48.34 6.68 -48 6 C-44.965 5.391 -41.989 4.906 -38.926 4.492 C-38.009 4.362 -37.093 4.231 -36.148 4.097 C-34.203 3.822 -32.257 3.552 -30.31 3.286 C-27.341 2.879 -24.375 2.458 -21.408 2.035 C-19.518 1.77 -17.628 1.506 -15.738 1.242 C-14.854 1.117 -13.969 0.992 -13.058 0.863 C-8.667 0.267 -4.444 -0.144 0 0 Z " fill="#4A4A4A" transform="translate(53,359)"/>
<path d="M0 0 C0.33 0 0.66 0 1 0 C1.535 10.61 0.489 18.891 -3 29 C-0.086 23.114 0.876 17.549 1.688 11.062 C1.817 10.092 1.947 9.122 2.08 8.123 C2.396 5.75 2.702 3.376 3 1 C3.33 1 3.66 1 4 1 C4.408 11.226 4.346 21.899 -1 31 C-1.66 31.412 -2.32 31.825 -3 32.25 C-5.386 33.967 -5.386 33.967 -5.625 37.625 C-6.864 43.822 -12.174 47.377 -17 51 C-19.133 52.32 -19.133 52.32 -21 53 C-21.99 52.67 -22.98 52.34 -24 52 C-23.252 51.553 -22.505 51.105 -21.734 50.645 C-20.75 50.04 -19.765 49.435 -18.75 48.812 C-17.775 48.221 -16.801 47.629 -15.797 47.02 C-12.933 44.951 -11.065 42.847 -9 40 C-9.495 39.505 -9.495 39.505 -10 39 C-10.681 39.722 -11.361 40.444 -12.062 41.188 C-14.126 43.233 -16.259 45.103 -18.562 46.875 C-19.121 47.306 -19.679 47.736 -20.254 48.18 C-22.529 49.249 -23.683 48.821 -26 48 C-25.432 47.72 -24.863 47.441 -24.277 47.152 C-15.296 42.489 -8.857 36.49 -5 27 C-2.25 18.121 -0.395 9.315 0 0 Z " fill="#010101" transform="translate(270,189)"/>
<path d="M0 0 C0 0.66 0 1.32 0 2 C1.158 1.856 2.315 1.711 3.508 1.562 C5.047 1.375 6.586 1.187 8.125 1 C9.266 0.857 9.266 0.857 10.43 0.711 C14.649 0.202 18.74 -0.109 23 0 C22.67 0.66 22.34 1.32 22 2 C19.382 2.453 16.842 2.78 14.203 3.035 C13.417 3.119 12.632 3.202 11.822 3.288 C9.299 3.555 6.775 3.809 4.25 4.062 C1.74 4.322 -0.77 4.583 -3.279 4.847 C-4.843 5.011 -6.406 5.171 -7.97 5.328 C-10.903 5.629 -13.786 5.956 -16.676 6.55 C-19.338 7.065 -21.809 7.113 -24.52 7.098 C-25.541 7.094 -26.563 7.091 -27.615 7.088 C-28.67 7.08 -29.725 7.071 -30.812 7.062 C-31.887 7.058 -32.961 7.053 -34.068 7.049 C-36.712 7.037 -39.356 7.021 -42 7 C-42 6.67 -42 6.34 -42 6 C-40.952 5.879 -39.904 5.758 -38.824 5.633 C-37.445 5.464 -36.066 5.295 -34.688 5.125 C-33.997 5.046 -33.307 4.968 -32.596 4.887 C-29.044 4.441 -27.03 4.02 -24 2 C-22.102 1.589 -22.102 1.589 -19.98 1.367 C-19.205 1.283 -18.43 1.2 -17.631 1.113 C-16.421 0.995 -16.421 0.995 -15.188 0.875 C-14.393 0.789 -13.598 0.702 -12.779 0.613 C-8.5 0.167 -4.309 -0.097 0 0 Z " fill="#131313" transform="translate(291,265)"/>
<path d="M0 0 C3.013 2.927 3.115 4.988 3.188 9.125 C2.625 11.438 2.625 11.438 1.188 13.125 C-2.005 14.483 -4.34 15.125 -7.812 15.125 C-9.859 11.273 -10.158 8.169 -9.484 3.941 C-8.812 2.125 -8.812 2.125 -6.062 -0.062 C-2.812 -0.875 -2.812 -0.875 0 0 Z " fill="#090909" transform="translate(283.8125,167.875)"/>
<path d="M0 0 C0.33 0.66 0.66 1.32 1 2 C0.336 1.965 -0.328 1.93 -1.012 1.895 C-7.653 1.691 -10.94 2.403 -16.062 6.75 C-23.379 15.247 -23.672 24.287 -23.206 35.026 C-22.792 39.002 -21.154 41.702 -19 45 C-19 45.66 -19 46.32 -19 47 C-18.34 47 -17.68 47 -17 47 C-17 47.66 -17 48.32 -17 49 C-11.267 50.573 -6.843 51.243 -1 50 C-1 50.66 -1 51.32 -1 52 C-5.07 53.357 -8.744 53.525 -13 53 C-18.819 50.036 -22.376 46.041 -24.75 40 C-27.488 30.959 -27.052 20.573 -23 12 C-17.064 2.575 -11.217 -1.99 0 0 Z " fill="#000000" transform="translate(387,189)"/>
<path d="M0 0 C0 0.33 0 0.66 0 1 C2.475 1.495 2.475 1.495 5 2 C2.127 3.915 1.184 4.302 -2.057 4.686 C-2.868 4.786 -3.679 4.886 -4.514 4.989 C-5.386 5.088 -6.258 5.187 -7.156 5.289 C-8.055 5.397 -8.954 5.505 -9.88 5.617 C-12.752 5.96 -15.626 6.293 -18.5 6.625 C-20.436 6.856 -22.372 7.088 -24.309 7.32 C-26.154 7.54 -27.999 7.758 -29.844 7.977 C-30.716 8.08 -31.588 8.183 -32.486 8.289 C-33.297 8.383 -34.108 8.476 -34.943 8.573 C-35.656 8.656 -36.369 8.738 -37.103 8.824 C-39 9 -39 9 -42 9 C-42 7.68 -42 6.36 -42 5 C-39.291 3.646 -36.991 3.935 -34 4 C-34 4.66 -34 5.32 -34 6 C-29.05 5.34 -24.1 4.68 -19 4 C-21.64 4 -24.28 4 -27 4 C-24.683 1.683 -24.012 1.676 -20.859 1.367 C-19.624 1.242 -19.624 1.242 -18.363 1.113 C-17.501 1.035 -16.639 0.956 -15.75 0.875 C-14.903 0.789 -14.056 0.702 -13.184 0.613 C-8.772 0.181 -4.439 -0.102 0 0 Z " fill="#252525" transform="translate(46,294)"/>
<path d="M0 0 C0 3.857 -1.039 4.365 -3.688 7.062 C-13.281 17.554 -16.585 30.455 -16.438 44.438 C-16.427 45.946 -16.427 45.946 -16.417 47.485 C-16.193 57.823 -13.93 66.033 -7.855 74.477 C-7.432 75.231 -7.432 75.231 -7 76 C-7.495 76.99 -7.495 76.99 -8 78 C-18.567 65.707 -19.747 51.606 -19 36 C-18.643 32.849 -17.984 30.009 -17 27 C-16.732 26.121 -16.464 25.242 -16.188 24.336 C-13.262 15.487 -8.872 8.299 -2 2 C-1.34 1.34 -0.68 0.68 0 0 Z " fill="#000000" transform="translate(364,174)"/>
<path d="M0 0 C-0.66 0.33 -1.32 0.66 -2 1 C-2 1.66 -2 2.32 -2 3 C-15.105 5.198 -27.711 6.438 -41 6 C-40.67 5.01 -40.34 4.02 -40 3 C-35.587 2.29 -31.169 1.611 -26.75 0.938 C-25.515 0.738 -24.28 0.539 -23.008 0.334 C-15.107 -0.851 -7.923 -1.079 0 0 Z " fill="#212121" transform="translate(238,335)"/>
<path d="M0 0 C0.33 0.66 0.66 1.32 1 2 C0.276 1.965 -0.449 1.93 -1.195 1.895 C-8.575 1.688 -12.934 2.299 -18.625 7.312 C-25.398 14.977 -28.546 23.368 -27.938 33.688 C-26.901 41.412 -24.232 48.073 -18 53 C-11.887 56.668 -6.914 56.038 0 55 C-2.866 57.866 -5.416 58.169 -9.312 58.25 C-14.398 58.159 -17.82 57.068 -21.594 53.488 C-28.546 45.905 -30.345 37.848 -30.293 27.727 C-29.754 20.871 -27.097 15.054 -24 9 C-23.34 9 -22.68 9 -22 9 C-21.749 8.395 -21.497 7.791 -21.238 7.168 C-18.804 2.905 -13.973 0.674 -9.438 -0.875 C-6.156 -1.043 -3.211 -0.679 0 0 Z " fill="#FFFFFF" transform="translate(164,155)"/>
<path d="M0 0 C4 1.825 6.781 4.176 9 8 C9.63 10.684 9.78 13.233 10 16 C10.619 17.299 10.619 17.299 11.25 18.625 C12 21 12 21 10.625 24.312 C10.089 25.199 9.553 26.086 9 27 C8.01 27 7.02 27 6 27 C4 18 2 9 0 0 Z " fill="#FFFFFF" transform="translate(415,210)"/>
<path d="M0 0 C0 0.66 0 1.32 0 2 C3.3 1.67 6.6 1.34 10 1 C10 1.66 10 2.32 10 3 C5.981 3.575 1.96 4.144 -2.061 4.709 C-3.426 4.902 -4.792 5.095 -6.157 5.291 C-8.128 5.573 -10.099 5.849 -12.07 6.125 C-13.254 6.293 -14.437 6.46 -15.657 6.633 C-18.805 6.979 -21.836 7.067 -25 7 C-25 6.34 -25 5.68 -25 5 C-26.98 5 -28.96 5 -31 5 C-28.541 2.541 -27.386 2.577 -23.984 2.148 C-22.478 1.955 -22.478 1.955 -20.941 1.758 C-19.888 1.631 -18.835 1.505 -17.75 1.375 C-16.712 1.241 -15.675 1.107 -14.605 0.969 C-9.713 0.356 -4.941 -0.187 0 0 Z " fill="#1C1C1C" transform="translate(197,339)"/>
<path d="M0 0 C0.99 0.33 1.98 0.66 3 1 C8.553 13.387 8.075 26.222 4 39 C0.51 47.427 -4.254 53.406 -11.992 58.246 C-14.414 59.156 -15.602 58.857 -18 58 C-10 54 -10 54 -7.859 53.117 C-5.501 51.7 -5.069 50.512 -4 48 C-3 46.25 -2 44.5 -1 42.75 C4.841 31.908 6.135 19.112 2.562 7.188 C2.062 5.784 1.545 4.387 1 3 C0.67 2.01 0.34 1.02 0 0 Z " fill="#000000" transform="translate(258,173)"/>
<path d="M0 0 C2 -0.043 4 -0.041 6 0 C7.791 1.791 7 4.586 7 7 C7.33 7.33 7.66 7.66 8 8 C8.041 9.666 8.043 11.334 8 13 C2.375 15.125 2.375 15.125 -1 14 C-1.975 8.515 -2.229 5.154 0 0 Z " fill="#3C3C3C" transform="translate(424,365)"/>
<path d="M0 0 C2 0.75 2 0.75 4 3.75 C1.69 4.08 -0.62 4.41 -3 4.75 C-2.67 9.37 -2.34 13.99 -2 18.75 C-0.68 19.08 0.64 19.41 2 19.75 C0 21.75 0 21.75 -2.438 22.125 C-5 21.75 -5 21.75 -6.633 20.098 C-9.198 15.693 -8.626 10.68 -8 5.75 C-6.027 2.396 -4.217 -0.527 0 0 Z " fill="#FFFFFF" transform="translate(381,204.25)"/>
<path d="M0 0 C3.125 -0.188 3.125 -0.188 6 0 C7.974 4.761 8.007 7.965 7 13 C2.375 15.125 2.375 15.125 -1 14 C-1.881 11.356 -2.162 9.719 -2.188 7 C-2.202 6.319 -2.216 5.639 -2.23 4.938 C-2 3 -2 3 0 0 Z " fill="#000000" transform="translate(403,365)"/>
<path d="M0 0 C1 3 1 3 1 5 C-2.186 5.509 -5.374 6.005 -8.562 6.5 C-9.458 6.643 -10.353 6.786 -11.275 6.934 C-16.25 7.699 -20.967 8.166 -26 8 C-26 7.67 -26 7.34 -26 7 C-27.65 6.67 -29.3 6.34 -31 6 C-28.274 3.274 -26.263 3.426 -22.461 2.93 C-20.508 2.669 -20.508 2.669 -18.516 2.402 C-17.135 2.226 -15.755 2.051 -14.375 1.875 C-12.987 1.692 -11.599 1.509 -10.211 1.324 C-6.808 0.875 -3.405 0.434 0 0 Z " fill="#252525" transform="translate(336,319)"/>
<path d="M0 0 C4.896 0.455 7.511 1.511 11 5 C16.338 12.93 18.187 21.185 16.535 30.668 C14.698 38.548 11.431 44.722 4.812 49.562 C3.884 50.037 2.956 50.511 2 51 C1.01 50.67 0.02 50.34 -1 50 C-0.469 49.72 0.062 49.441 0.609 49.152 C5.874 46.165 8.603 43.535 11 38 C11.298 37.404 11.596 36.809 11.902 36.195 C15.302 28.643 15.13 20.296 12.375 12.562 C10.331 8.039 8.066 5.796 4 3 C3.216 2.402 2.433 1.804 1.625 1.188 C1.089 0.796 0.553 0.404 0 0 Z " fill="#FFFFFF" transform="translate(160,158)"/>
<path d="M0 0 C-0.33 0.66 -0.66 1.32 -1 2 C-3.322 2.407 -5.657 2.744 -8 3 C-6.35 3 -4.7 3 -3 3 C-3 3.66 -3 4.32 -3 5 C-6.187 5.339 -9.375 5.67 -12.562 6 C-13.905 6.143 -13.905 6.143 -15.275 6.289 C-29.088 7.706 -29.088 7.706 -31.938 5.5 C-32.463 4.757 -32.463 4.757 -33 4 C-26.977 2.639 -20.934 1.658 -14.812 0.875 C-13.816 0.744 -13.816 0.744 -12.799 0.61 C-8.509 0.081 -4.32 -0.078 0 0 Z " fill="#191919" transform="translate(265,268)"/>
<path d="M0 0 C0 0.66 0 1.32 0 2 C1.32 2.33 2.64 2.66 4 3 C1.544 4.228 -0.541 4.413 -3.27 4.754 C-4.323 4.886 -5.377 5.018 -6.463 5.154 C-7.568 5.289 -8.674 5.424 -9.812 5.562 C-10.906 5.701 -12 5.84 -13.127 5.982 C-17.785 6.559 -22.301 7.085 -27 7 C-26.67 6.34 -26.34 5.68 -26 5 C-22.938 4.375 -22.938 4.375 -20 4 C-23.3 4 -26.6 4 -30 4 C-30 3.67 -30 3.34 -30 3 C-26.501 2.491 -23.001 1.994 -19.5 1.5 C-18.027 1.285 -18.027 1.285 -16.523 1.066 C-10.952 0.286 -5.625 -0.161 0 0 Z " fill="#000000" transform="translate(165,280)"/>
<path d="M0 0 C0.836 0.005 1.672 0.009 2.533 0.014 C4.585 0.025 6.636 0.043 8.688 0.062 C8.688 0.392 8.688 0.723 8.688 1.062 C-1.002 4.541 -14.244 8.369 -24.312 5.062 C-24.312 4.402 -24.312 3.743 -24.312 3.062 C-23.649 2.93 -22.985 2.797 -22.301 2.66 C-20.976 2.395 -20.976 2.395 -19.625 2.125 C-16.969 1.594 -16.969 1.594 -14.312 1.062 C-13.199 0.784 -13.199 0.784 -12.062 0.5 C-8.04 -0.14 -4.066 -0.042 0 0 Z " fill="#292929" transform="translate(169.3125,342.9375)"/>
<path d="M0 0 C0.66 0 1.32 0 2 0 C6.461 10.67 5.642 26.809 1.34 37.387 C-2.021 43.941 -5.629 49.912 -11 55 C-11.99 54.67 -12.98 54.34 -14 54 C-13.299 53.361 -12.597 52.721 -11.875 52.062 C-2.799 42.884 2.109 30.733 2.188 17.875 C2.152 11.735 1.342 5.981 0 0 Z M-16 56 C-15.67 56.66 -15.34 57.32 -15 58 C-15.66 57.67 -16.32 57.34 -17 57 C-16.67 56.67 -16.34 56.34 -16 56 Z " fill="#000000" transform="translate(185,164)"/>
<path d="M0 0 C0.928 0.206 1.856 0.413 2.812 0.625 C3.142 1.945 3.473 3.265 3.812 4.625 C2.822 4.625 1.832 4.625 0.812 4.625 C0.812 3.965 0.812 3.305 0.812 2.625 C-0.837 2.625 -2.488 2.625 -4.188 2.625 C-4.188 3.615 -4.188 4.605 -4.188 5.625 C-3.259 5.728 -2.331 5.831 -1.375 5.938 C1.845 6.632 2.838 7.102 4.812 9.625 C4.125 12.062 4.125 12.062 2.812 14.625 C0.5 15.625 0.5 15.625 -2.188 15.625 C-5 14.375 -5 14.375 -7.188 12.625 C-7.188 11.635 -7.188 10.645 -7.188 9.625 C-6.197 9.625 -5.207 9.625 -4.188 9.625 C-4.188 10.615 -4.188 11.605 -4.188 12.625 C-1.715 12.281 -1.715 12.281 0.812 11.625 C1.142 10.965 1.473 10.305 1.812 9.625 C0.884 9.501 -0.044 9.377 -1 9.25 C-4.188 8.625 -4.188 8.625 -7.188 6.625 C-6.875 4.25 -6.875 4.25 -6.188 1.625 C-3.188 -0.375 -3.188 -0.375 0 0 Z " fill="#000000" transform="translate(390.1875,364.375)"/>
<path d="M0 0 C0.33 1.32 0.66 2.64 1 4 C-1.187 4.34 -3.374 4.671 -5.562 5 C-7.39 5.278 -7.39 5.278 -9.254 5.562 C-12.876 5.986 -16.357 6.075 -20 6 C-20 5.67 -20 5.34 -20 5 C-21.65 4.67 -23.3 4.34 -25 4 C-22.173 1.173 -19.121 1.294 -15.312 0.875 C-14.617 0.789 -13.922 0.702 -13.205 0.613 C-8.774 0.092 -4.46 -0.082 0 0 Z " fill="#171717" transform="translate(256,331)"/>
<path d="M0 0 C1.32 0 2.64 0 4 0 C3.613 3.629 3.186 7.252 2.75 10.875 C2.64 11.908 2.531 12.94 2.418 14.004 C2.296 14.99 2.173 15.976 2.047 16.992 C1.942 17.903 1.837 18.815 1.729 19.753 C1 22 1 22 -1.065 23.313 C-1.704 23.54 -2.342 23.766 -3 24 C-2.454 15.9 -1.459 7.987 0 0 Z " fill="#060606" transform="translate(46,1)"/>
<path d="M0 0 C0.702 0.057 1.404 0.113 2.127 0.172 C3.856 0.313 5.585 0.468 7.312 0.625 C6.983 1.285 6.653 1.945 6.312 2.625 C-0.769 4.702 -7.411 4.87 -14.75 4.75 C-15.806 4.741 -16.863 4.732 -17.951 4.723 C-20.53 4.699 -23.109 4.667 -25.688 4.625 C-25.688 4.295 -25.688 3.965 -25.688 3.625 C-24.639 3.504 -23.591 3.383 -22.512 3.258 C-21.133 3.089 -19.754 2.92 -18.375 2.75 C-17.685 2.671 -16.994 2.593 -16.283 2.512 C-10.149 1.741 -6.358 -0.594 0 0 Z " fill="#666666" transform="translate(274.6875,267.375)"/>
<path d="M0 0 C0.33 0.99 0.66 1.98 1 3 C1.66 3 2.32 3 3 3 C3.798 9.696 4.129 16.258 4 23 C3.01 23.33 2.02 23.66 1 24 C-1.001 15.748 -0.99 8.412 0 0 Z " fill="#333333" transform="translate(113,37)"/>
<path d="M0 0 C1.825 0.186 1.825 0.186 3.688 0.375 C3.172 0.746 2.656 1.118 2.125 1.5 C1.321 2.119 0.516 2.738 -0.312 3.375 C-1.128 3.996 -1.128 3.996 -1.961 4.629 C-9.705 10.834 -12.917 17.871 -15.312 27.375 C-15.643 27.375 -15.972 27.375 -16.312 27.375 C-16 18.003 -12.257 10.279 -6.938 2.625 C-4.111 0.202 -3.527 0.037 0 0 Z " fill="#FFFFFF" transform="translate(146.3125,151.625)"/>
<path d="M0 0 C0.66 1.32 1.32 2.64 2 4 C0.639 4.835 0.639 4.835 -0.75 5.688 C-7.291 10.342 -9.292 15.379 -11 23 C-11.461 26.008 -11.755 28.964 -12 32 C-12.66 31.67 -13.32 31.34 -14 31 C-13.625 20.074 -11.805 11.001 -4 3 C-1.688 1.125 -1.688 1.125 0 0 Z " fill="#000000" transform="translate(149,158)"/>
<path d="M0 0 C0.976 0.003 1.953 0.006 2.959 0.01 C3.966 0.018 4.974 0.027 6.012 0.035 C7.038 0.04 8.065 0.044 9.123 0.049 C11.648 0.061 14.174 0.077 16.699 0.098 C16.699 0.428 16.699 0.758 16.699 1.098 C15.396 1.279 15.396 1.279 14.066 1.465 C12.914 1.632 11.762 1.8 10.574 1.973 C9.437 2.135 8.3 2.298 7.129 2.465 C3.836 3.072 0.865 4.031 -2.301 5.098 C-6.486 5.318 -10.229 5.085 -14.301 4.098 C-9.849 0.305 -5.71 -0.033 0 0 Z " fill="#717171" transform="translate(135.30078125,282.90234375)"/>
<path d="M0 0 C5.231 -0.213 5.231 -0.213 7.734 1.664 C8.064 2.159 8.394 2.654 8.734 3.164 C3.682 4.78 -0.867 5.506 -6.203 5.789 C-6.887 5.828 -7.571 5.866 -8.275 5.906 C-9.938 5.999 -11.602 6.083 -13.266 6.164 C-12.936 5.504 -12.606 4.844 -12.266 4.164 C-9.203 3.539 -9.203 3.539 -6.266 3.164 C-8.576 3.164 -10.886 3.164 -13.266 3.164 C-9.777 -0.325 -4.738 0.343 0 0 Z " fill="#000000" transform="translate(117.265625,284.8359375)"/>
<path d="M0 0 C0.33 0 0.66 0 1 0 C1.026 0.727 1.052 1.454 1.078 2.203 C1.625 11.906 3.147 21.657 10 29 C10 29.66 10 30.32 10 31 C10.99 31.33 11.98 31.66 13 32 C11 33 11 33 8.125 32.188 C2.976 28.583 1.656 23.122 0.398 17.137 C-0.051 13.6 -0.096 10.189 -0.062 6.625 C-0.053 5.38 -0.044 4.135 -0.035 2.852 C-0.024 1.911 -0.012 0.97 0 0 Z " fill="#FFFFFF" transform="translate(129,180)"/>
<path d="M0 0 C0 0.66 0 1.32 0 2 C0.66 2.33 1.32 2.66 2 3 C-1.984 4.846 -5.444 5.36 -9.812 5.625 C-11.555 5.737 -11.555 5.737 -13.332 5.852 C-14.653 5.925 -14.653 5.925 -16 6 C-16 5.01 -16 4.02 -16 3 C-11.093 -0.271 -5.774 -0.141 0 0 Z " fill="#131313" transform="translate(53,359)"/>
<path d="M0 0 C2.31 0.33 4.62 0.66 7 1 C7.33 4.3 7.66 7.6 8 11 C5.03 10.505 5.03 10.505 2 10 C1.34 6.7 0.68 3.4 0 0 Z " fill="#FFFFFF" transform="translate(379,211)"/>
<path d="M0 0 C0.844 0.003 1.689 0.006 2.559 0.01 C3.868 0.022 3.868 0.022 5.203 0.035 C6.091 0.04 6.979 0.044 7.895 0.049 C10.081 0.061 12.267 0.077 14.453 0.098 C14.453 0.428 14.453 0.758 14.453 1.098 C13.241 1.279 13.241 1.279 12.004 1.465 C10.935 1.632 9.867 1.8 8.766 1.973 C7.71 2.135 6.654 2.298 5.566 2.465 C2.481 2.985 2.481 2.985 -0.141 4.191 C-2.875 5.221 -4.495 5.15 -7.359 4.723 C-8.15 4.612 -8.94 4.501 -9.754 4.387 C-10.346 4.291 -10.937 4.196 -11.547 4.098 C-8.192 0.24 -4.946 -0.033 0 0 Z " fill="#666666" transform="translate(99.546875,351.90234375)"/>
<path d="M0 0 C1.32 0 2.64 0 4 0 C4.196 2.395 4.382 4.791 4.562 7.188 C4.619 7.861 4.675 8.535 4.732 9.229 C5.01 13.017 4.965 16.318 4 20 C3.691 19.361 3.381 18.721 3.062 18.062 C2.165 16.064 2.165 16.064 1 15 C0.763 12.474 0.578 9.969 0.438 7.438 C0.394 6.727 0.351 6.016 0.307 5.283 C0.2 3.522 0.1 1.761 0 0 Z " fill="#3F3F3F" transform="translate(108,3)"/>
<path d="M0 0 C0.822 0.014 1.645 0.027 2.492 0.041 C4.495 0.076 6.498 0.13 8.5 0.188 C5.764 1.702 3.612 2.444 0.5 2.688 C-1.922 2.933 -3.379 3.125 -5.562 4.25 C-8.568 5.704 -11.221 5.426 -14.5 5.188 C-15.49 4.527 -16.48 3.868 -17.5 3.188 C-11.402 0.523 -6.615 -0.21 0 0 Z " fill="#606060" transform="translate(271.5,328.8125)"/>
<path d="M0 0 C3.3 0 6.6 0 10 0 C9.346 5.07 7.145 9.42 5 14 C4.01 13.67 3.02 13.34 2 13 C2.476 11.686 2.956 10.374 3.438 9.062 C3.704 8.332 3.971 7.601 4.246 6.848 C5 5 5 5 6 4 C3.03 3.505 3.03 3.505 0 3 C0 2.01 0 1.02 0 0 Z " fill="#000000" transform="translate(411,365)"/>
<path d="M0 0 C0 0.33 0 0.66 0 1 C-1.68 1.182 -1.68 1.182 -3.395 1.367 C-4.867 1.536 -6.34 1.705 -7.812 1.875 C-8.55 1.954 -9.288 2.032 -10.049 2.113 C-13.715 2.545 -15.88 2.92 -19 5 C-23.186 5.199 -26.986 5.338 -31 4 C-31 3.34 -31 2.68 -31 2 C-26.027 1.23 -21.088 0.733 -16.062 0.438 C-15.398 0.394 -14.733 0.351 -14.049 0.307 C-9.358 0.02 -4.699 -0.037 0 0 Z " fill="#838383" transform="translate(196,278)"/>
<path d="M0 0 C0.09 5.152 -0.153 9.919 -1 15 C-2.32 15.33 -3.64 15.66 -5 16 C-5.204 5.815 -5.204 5.815 -4 1 C-2 0 -2 0 0 0 Z " fill="#1D1D1D" transform="translate(195,177)"/>
<path d="M0 0 C2.655 0.312 3.495 1.19 5.125 3.25 C0.603 4.961 -3.431 5.602 -8.25 5.875 C-10.118 5.987 -10.118 5.987 -12.023 6.102 C-13.435 6.175 -13.435 6.175 -14.875 6.25 C-14.545 5.59 -14.215 4.93 -13.875 4.25 C-11.553 3.843 -9.218 3.506 -6.875 3.25 C-9.185 3.25 -11.495 3.25 -13.875 3.25 C-10.312 -0.313 -4.838 0.421 0 0 Z " fill="#000000" transform="translate(281.875,326.75)"/>
<path d="M0 0 C0.983 0.01 1.966 0.019 2.979 0.029 C4.003 0.054 5.027 0.08 6.082 0.105 C7.118 0.119 8.154 0.133 9.221 0.146 C11.779 0.182 14.337 0.231 16.895 0.293 C16.895 0.623 16.895 0.953 16.895 1.293 C15.843 1.417 14.791 1.54 13.707 1.668 C10.061 2.093 10.061 2.093 7.582 3.355 C4.186 4.54 1.646 4.278 -1.918 3.918 C-3.079 3.807 -4.241 3.696 -5.438 3.582 C-6.318 3.487 -7.198 3.391 -8.105 3.293 C-5.608 0.159 -3.933 -0.068 0 0 Z " fill="#6C6C6C" transform="translate(53.10546875,292.70703125)"/>
<path d="M0 0 C2.97 0 5.94 0 9 0 C8.346 5.07 6.145 9.42 4 14 C3.01 13.67 2.02 13.34 1 13 C2.32 10.03 3.64 7.06 5 4 C3.35 3.67 1.7 3.34 0 3 C0 2.01 0 1.02 0 0 Z " fill="#000000" transform="translate(433,365)"/>
<path d="M0 0 C0 0.66 0 1.32 0 2 C1.454 1.752 1.454 1.752 2.938 1.5 C7.295 0.866 11.606 0.91 16 1 C13.027 2.677 10.625 3.329 7.234 3.633 C5.9 3.758 5.9 3.758 4.539 3.887 C3.619 3.965 2.698 4.044 1.75 4.125 C0.346 4.255 0.346 4.255 -1.086 4.387 C-3.39 4.598 -5.695 4.802 -8 5 C-8 3.68 -8 2.36 -8 1 C-5.291 -0.354 -2.991 -0.065 0 0 Z " fill="#000000" transform="translate(12,298)"/>
<path d="M0 0 C0.66 1.32 1.32 2.64 2 4 C-4.435 4.495 -4.435 4.495 -11 5 C-11 4.67 -11 4.34 -11 4 C-12.65 3.67 -14.3 3.34 -16 3 C-12.161 -0.839 -5.193 -0.13 0 0 Z " fill="#171717" transform="translate(321,322)"/>
<path d="M0 0 C1.021 0.124 1.021 0.124 2.062 0.25 C2.722 1.24 3.382 2.23 4.062 3.25 C-1.765 5.678 -7.713 5.867 -13.938 6.25 C-13.608 5.59 -13.278 4.93 -12.938 4.25 C-9.875 3.625 -9.875 3.625 -6.938 3.25 C-9.248 3.25 -11.558 3.25 -13.938 3.25 C-10.366 -0.321 -4.849 0.413 0 0 Z " fill="#000000" transform="translate(114.9375,349.75)"/>
<path d="M0 0 C0.33 0.99 0.66 1.98 1 3 C-2.088 8.667 -7.989 12.902 -14 15 C-16.273 14.625 -16.273 14.625 -18 14 C-16.623 11.247 -14.711 11.028 -11.977 9.914 C-7.115 7.666 -2.877 4.569 0 0 Z " fill="#FFFFFF" transform="translate(261,226)"/>
<path d="M0 0 C0.66 1.32 1.32 2.64 2 4 C-3.28 4.66 -8.56 5.32 -14 6 C-14 5.34 -14 4.68 -14 4 C-12.35 3.67 -10.7 3.34 -9 3 C-10.65 3 -12.3 3 -14 3 C-13.67 2.34 -13.34 1.68 -13 1 C-8.636 0.144 -4.439 -0.108 0 0 Z " fill="#000000" transform="translate(18,364)"/>
<path d="M0 0 C1.65 0.33 3.3 0.66 5 1 C5.125 3.875 5.125 3.875 5 7 C4.34 7.66 3.68 8.32 3 9 C0.875 8.625 0.875 8.625 -1 8 C-1.625 5.688 -1.625 5.688 -2 3 C-1.34 2.01 -0.68 1.02 0 0 Z " fill="#191919" transform="translate(170,131)"/>
<path d="M0 0 C2.625 0.375 2.625 0.375 5 1 C5.043 3 5.041 5 5 7 C4 8 4 8 1.5 8.125 C-1 8 -1 8 -2 7 C-2.188 4.562 -2.188 4.562 -2 2 C-1.34 1.34 -0.68 0.68 0 0 Z " fill="#191919" transform="translate(151,229)"/>
<path d="M0 0 C1.32 0 2.64 0 4 0 C4.688 2.812 4.688 2.812 5 6 C3.562 7.875 3.562 7.875 2 9 C0.68 8.34 -0.64 7.68 -2 7 C-2.125 4.625 -2.125 4.625 -2 2 C-1.34 1.34 -0.68 0.68 0 0 Z " fill="#141414" transform="translate(187,211)"/>
<path d="M0 0 C1.32 0.66 2.64 1.32 4 2 C4.125 4.375 4.125 4.375 4 7 C3.34 7.66 2.68 8.32 2 9 C0.68 9 -0.64 9 -2 9 C-2.688 6.188 -2.688 6.188 -3 3 C-1.562 1.125 -1.562 1.125 0 0 Z " fill="#1A1A1A" transform="translate(195,156)"/>
<path d="M0 0 C0.66 1.32 1.32 2.64 2 4 C-3.94 4.495 -3.94 4.495 -10 5 C-10 4.34 -10 3.68 -10 3 C-11.98 3 -13.96 3 -16 3 C-12.161 -0.839 -5.193 -0.13 0 0 Z " fill="#000000" transform="translate(182,341)"/>
<path d="M0 0 C1.32 0 2.64 0 4 0 C5.25 6.625 5.25 6.625 3 10 C1.68 10 0.36 10 -1 10 C-0.67 6.7 -0.34 3.4 0 0 Z " fill="#FFFFFF" transform="translate(213,215)"/>
<path d="M0 0 C0.99 0.33 1.98 0.66 3 1 C3.688 3.75 3.688 3.75 4 7 C2.562 9.375 2.562 9.375 1 11 C0.01 10.67 -0.98 10.34 -2 10 C-1.86 8.52 -1.712 7.041 -1.562 5.562 C-1.481 4.739 -1.4 3.915 -1.316 3.066 C-1 1 -1 1 0 0 Z " fill="#FFFFFF" transform="translate(221,161)"/>
<path d="M0 0 C1.32 0.33 2.64 0.66 4 1 C4.81 3.915 5.218 5.461 4.062 8.312 C3.537 9.148 3.537 9.148 3 10 C1.35 9.67 -0.3 9.34 -2 9 C-1.34 6.03 -0.68 3.06 0 0 Z " fill="#FFFFFF" transform="translate(274,224)"/>
<path d="M0 0 C1.32 0 2.64 0 4 0 C5.231 5.415 5.231 5.415 4.062 8.375 C3.712 8.911 3.361 9.447 3 10 C1.68 10 0.36 10 -1 10 C-0.67 6.7 -0.34 3.4 0 0 Z " fill="#FFFFFF" transform="translate(257,143)"/>
<path d="M0 0 C1.98 0.495 1.98 0.495 4 1 C5.064 4.384 5.214 5.58 3.562 8.812 C3.047 9.534 2.531 10.256 2 11 C1.01 10.67 0.02 10.34 -1 10 C-0.67 6.7 -0.34 3.4 0 0 Z " fill="#FFFFFF" transform="translate(237,242)"/>
<path d="M0 0 C5.61 0 11.22 0 17 0 C17 0.33 17 0.66 17 1 C16.051 1.309 15.102 1.619 14.125 1.938 C11.139 2.874 11.139 2.874 9 4 C5.327 4.134 2.501 4.167 -1 3 C-0.67 2.01 -0.34 1.02 0 0 Z " fill="#6A6A6A" transform="translate(161,343)"/>
<path d="M0 0 C0.66 0 1.32 0 2 0 C3.478 2.957 3.06 5.742 3 9 C1.68 9.33 0.36 9.66 -1 10 C-2.381 7.237 -2.191 5.053 -2 2 C-1.34 1.34 -0.68 0.68 0 0 Z " fill="#FFFFFF" transform="translate(405,367)"/>
<path d="M0 0 C0 0.66 0 1.32 0 2 C1.32 2.33 2.64 2.66 4 3 C1.056 4.472 -1.374 3.849 -4.625 3.562 C-5.814 3.461 -7.002 3.359 -8.227 3.254 C-9.142 3.17 -10.057 3.086 -11 3 C-7.658 -1.017 -4.968 -0.244 0 0 Z " fill="#333333" transform="translate(165,280)"/>
<path d="M0 0 C0 0.66 0 1.32 0 2 C2.31 2 4.62 2 7 2 C5 4 5 4 3.047 4.23 C-1.4 4.147 -5.624 3.898 -10 3 C-6.187 0.458 -4.525 -0.119 0 0 Z " fill="#333333" transform="translate(206,275)"/>
<path d="M0 0 C0.99 0 1.98 0 3 0 C4.25 6.625 4.25 6.625 2 10 C0.68 10 -0.64 10 -2 10 C-1.34 6.7 -0.68 3.4 0 0 Z " fill="#FFFFFF" transform="translate(281,170)"/>
<path d="M0 0 C2.125 0 2.125 0 5 1 C9.075 5.085 11.706 9.114 12 15 C9.989 12.573 8.136 10.237 6.562 7.5 C4.725 4.561 2.511 2.375 0 0 Z " fill="#FFFFFF" transform="translate(256,158)"/>
<path d="M0 0 C3.96 0.33 7.92 0.66 12 1 C11.01 1.495 11.01 1.495 10 2 C10 2.66 10 3.32 10 4 C8.742 4.021 7.484 4.041 6.188 4.062 C5.48 4.074 4.772 4.086 4.043 4.098 C2 4 2 4 -1 3 C-0.67 2.01 -0.34 1.02 0 0 Z " fill="#525252" transform="translate(226,334)"/>
<path d="M0 0 C3.96 0.33 7.92 0.66 12 1 C11.01 1.495 11.01 1.495 10 2 C10 2.66 10 3.32 10 4 C8.742 4.021 7.484 4.041 6.188 4.062 C5.48 4.074 4.772 4.086 4.043 4.098 C2 4 2 4 -1 3 C-0.67 2.01 -0.34 1.02 0 0 Z " fill="#525252" transform="translate(300,324)"/>
<path d="M0 0 C0 0.33 0 0.66 0 1 C1.65 1.33 3.3 1.66 5 2 C1.596 4.27 -0.165 4.365 -4.188 4.625 C-5.274 4.7 -6.361 4.775 -7.48 4.852 C-8.728 4.925 -8.728 4.925 -10 5 C-7.624 -0.261 -5.614 -0.122 0 0 Z " fill="#000000" transform="translate(46,294)"/>
<path d="M0 0 C2.038 1.274 4.039 2.611 6 4 C6 4.66 6 5.32 6 6 C6.99 6.33 7.98 6.66 9 7 C11.25 9.875 11.25 9.875 13 13 C12.67 13.99 12.34 14.98 12 16 C11.553 15.408 11.105 14.817 10.645 14.207 C6.615 8.906 6.615 8.906 2.062 4.062 C1.382 3.382 0.701 2.701 0 2 C0 1.34 0 0.68 0 0 Z " fill="#000000" transform="translate(263,154)"/>
<path d="M0 0 C6.6 0 13.2 0 20 0 C20 0.33 20 0.66 20 1 C17.813 1.34 15.626 1.671 13.438 2 C11.61 2.278 11.61 2.278 9.746 2.562 C6.124 2.986 2.643 3.075 -1 3 C-0.67 2.01 -0.34 1.02 0 0 Z " fill="#A0A0A0" transform="translate(13,297)"/>
<path d="M0 0 C6.6 0 13.2 0 20 0 C20 0.33 20 0.66 20 1 C17.813 1.34 15.626 1.671 13.438 2 C11.61 2.278 11.61 2.278 9.746 2.562 C6.124 2.986 2.643 3.075 -1 3 C-0.67 2.01 -0.34 1.02 0 0 Z " fill="#A0A0A0" transform="translate(207,274)"/>
<path d="M0 0 C0.081 1.437 0.139 2.874 0.188 4.312 C0.222 5.113 0.257 5.914 0.293 6.738 C-0.062 9.479 -0.894 10.292 -3 12 C-4.176 8.326 -4.074 4.831 -4 1 C-2 0 -2 0 0 0 Z " fill="#000000" transform="translate(115,31)"/>
<path d="M0 0 C0.33 1.32 0.66 2.64 1 4 C-0.258 4.041 -1.516 4.082 -2.812 4.125 C-3.52 4.148 -4.228 4.171 -4.957 4.195 C-7 4 -7 4 -10 2 C-6.356 -0.429 -4.288 -0.162 0 0 Z " fill="#262626" transform="translate(256,331)"/>
<path d="M0 0 C3.3 0.33 6.6 0.66 10 1 C9.01 1.495 9.01 1.495 8 2 C8 2.66 8 3.32 8 4 C1.25 4.125 1.25 4.125 -1 3 C-0.67 2.01 -0.34 1.02 0 0 Z " fill="#474747" transform="translate(126,348)"/>
<path d="M0 0 C1.226 0.153 1.226 0.153 2.477 0.309 C3.416 0.434 3.416 0.434 4.375 0.562 C3.385 1.058 3.385 1.058 2.375 1.562 C2.375 2.223 2.375 2.882 2.375 3.562 C-4.375 3.688 -4.375 3.688 -6.625 2.562 C-6.625 1.902 -6.625 1.243 -6.625 0.562 C-4.104 -0.698 -2.771 -0.356 0 0 Z " fill="#4A4A4A" transform="translate(59.625,358.4375)"/>
<path d="M0 0 C0.763 0.062 1.526 0.124 2.312 0.188 C2.312 0.848 2.312 1.507 2.312 2.188 C3.303 2.517 4.292 2.848 5.312 3.188 C2.792 4.448 1.458 4.106 -1.312 3.75 C-2.538 3.597 -2.538 3.597 -3.789 3.441 C-4.416 3.358 -5.042 3.274 -5.688 3.188 C-3.023 0.211 -3.023 0.211 0 0 Z " fill="#2B2B2B" transform="translate(186.6875,339.8125)"/>
<path d="M0 0 C1 3 1 3 1 5 C-1.97 4.67 -4.94 4.34 -8 4 C-7.67 3.01 -7.34 2.02 -7 1 C-3.535 0.505 -3.535 0.505 0 0 Z " fill="#2B2B2B" transform="translate(336,319)"/>
<path d="M0 0 C0.66 0.33 1.32 0.66 2 1 C2 3.31 2 5.62 2 8 C1.01 8.33 0.02 8.66 -1 9 C-1.33 6.69 -1.66 4.38 -2 2 C-1.34 2 -0.68 2 0 2 C0 1.34 0 0.68 0 0 Z " fill="#242424" transform="translate(192,169)"/>
<path d="M0 0 C0.804 0.124 1.609 0.248 2.438 0.375 C3.098 1.365 3.758 2.355 4.438 3.375 C4.108 3.705 3.777 4.035 3.438 4.375 C1.912 4.286 0.391 4.13 -1.125 3.938 C-2.364 3.785 -2.364 3.785 -3.629 3.629 C-4.267 3.545 -4.905 3.461 -5.562 3.375 C-2.883 0.422 -2.883 0.422 0 0 Z " fill="#2F2F2F" transform="translate(22.5625,362.625)"/>
<path d="M0 0 C0.66 0.99 1.32 1.98 2 3 C1 4 1 4 -2.438 4.25 C-3.613 4.168 -4.789 4.085 -6 4 C-6.66 3.01 -7.32 2.02 -8 1 C-5.211 -0.394 -3.079 -0.257 0 0 Z " fill="#000000" transform="translate(89,354)"/>
<path d="M0 0 C1.875 1.5 1.875 1.5 3 3 C2 4 2 4 -1.375 4.25 C-5 4 -5 4 -6.938 2.5 C-7.463 1.757 -7.463 1.757 -8 1 C-5.201 -0.399 -3.095 -0.253 0 0 Z " fill="#000000" transform="translate(240,271)"/>
<path d="M0 0 C1.675 0.286 3.344 0.618 5 1 C4.67 2.32 4.34 3.64 4 5 C2.68 5.33 1.36 5.66 0 6 C-0.382 4.344 -0.714 2.675 -1 1 C-0.67 0.67 -0.34 0.34 0 0 Z " fill="#444444" transform="translate(132,147)"/>
<path d="M0 0 C1.32 0 2.64 0 4 0 C4 2.64 4 5.28 4 8 C3.01 8.33 2.02 8.66 1 9 C0.67 6.03 0.34 3.06 0 0 Z " fill="#000000" transform="translate(108,3)"/>
<path d="M0 0 C1.5 1.188 1.5 1.188 3 3 C3.188 5.688 3.188 5.688 3 8 C1.68 8.33 0.36 8.66 -1 9 C-1.098 2.848 -1.098 2.848 -1 1 C-0.67 0.67 -0.34 0.34 0 0 Z " fill="#000000" transform="translate(191,184)"/>
<path d="M0 0 C0.66 0.66 1.32 1.32 2 2 C4.108 1.681 4.108 1.681 6 1 C5.67 2.32 5.34 3.64 5 5 C3.68 5.33 2.36 5.66 1 6 C0.34 4.35 -0.32 2.7 -1 1 C-0.67 0.67 -0.34 0.34 0 0 Z " fill="#000000" transform="translate(131,150)"/>
<path d="M0 0 C3.63 0.33 7.26 0.66 11 1 C11 1.33 11 1.66 11 2 C5.06 2.495 5.06 2.495 -1 3 C-0.67 2.01 -0.34 1.02 0 0 Z " fill="#8B8B8B" transform="translate(198,338)"/>
<path d="M0 0 C-0.99 0.495 -0.99 0.495 -2 1 C-2 1.66 -2 2.32 -2 3 C-4.64 3 -7.28 3 -10 3 C-7.295 -0.818 -4.379 -0.248 0 0 Z " fill="#5C5C5C" transform="translate(89,289)"/>
<path d="M0 0 C0.66 0.33 1.32 0.66 2 1 C1.01 2.485 1.01 2.485 0 4 C-0.079 6.332 -0.088 8.668 0 11 C-0.99 10.34 -1.98 9.68 -3 9 C-3.375 6.062 -3.375 6.062 -3 3 C-1.5 1.125 -1.5 1.125 0 0 Z " fill="#FFFFFF" transform="translate(327,175)"/>
<path d="M0 0 C0.99 0.66 1.98 1.32 3 2 C2.34 3.32 1.68 4.64 1 6 C-0.32 5.34 -1.64 4.68 -3 4 C-2.67 3.01 -2.34 2.02 -2 1 C-1.34 1.33 -0.68 1.66 0 2 C0 1.34 0 0.68 0 0 Z " fill="#000000" transform="translate(126,206)"/>
</svg>
