<?xml version="1.0" encoding="UTF-8"?>
<!-- Generator: visioncortex VTracer 0.6.4 -->
<svg version="1.1" xmlns="http://www.w3.org/2000/svg" width="520" height="443">
<path d="M0 0 C171.6 0 343.2 0 520 0 C520 146.19 520 292.38 520 443 C348.4 443 176.8 443 0 443 C0 296.81 0 150.62 0 0 Z " fill="#FDFDFD" transform="translate(0,0)"/>
<path d="M0 0 C2.605 1.961 2.605 1.961 5.188 4.375 C6.047 5.166 6.907 5.958 7.793 6.773 C10 9 10 9 12 12 C11.25 12.993 10.5 13.985 9.727 15.008 C3.014 23.911 -3.568 32.892 -10 42 C-10.66 41.67 -11.32 41.34 -12 41 C-10.409 35.972 -7.379 32.29 -4.188 28.188 C-0.139 22.958 3.598 17.676 7 12 C1.542 8.459 -1.66 9.043 -8 10 C-5.681 8.454 -3.494 7.204 -1 6 C-1.99 4.515 -1.99 4.515 -3 3 C-8.927 4.229 -14.68 5.728 -20.441 7.582 C-21.23 7.832 -22.018 8.082 -22.83 8.34 C-25.409 9.16 -27.986 9.986 -30.562 10.812 C-32.389 11.395 -34.215 11.978 -36.042 12.56 C-41.697 14.366 -47.349 16.181 -53 18 C-53.877 18.282 -54.754 18.564 -55.657 18.855 C-75 25.084 -94.309 31.411 -113.578 37.863 C-130.013 43.364 -146.5 48.698 -163 54 C-163 54.66 -163 55.32 -163 56 C-163 56.99 -163 57.98 -163 59 C-164.32 58.01 -165.64 57.02 -167 56 C-167.762 56.641 -168.524 57.281 -169.309 57.941 C-170.351 58.815 -171.394 59.689 -172.438 60.562 C-172.98 61.018 -173.523 61.473 -174.082 61.942 C-178.006 65.218 -182.02 68.333 -186.16 71.332 C-190.374 75.152 -192.396 80.793 -194.75 85.875 C-195.103 86.631 -195.456 87.387 -195.819 88.166 C-196.542 89.716 -197.264 91.266 -197.984 92.816 C-198.872 94.724 -199.764 96.63 -200.656 98.535 C-202.069 101.55 -203.475 104.568 -204.878 107.588 C-205.737 109.434 -206.597 111.279 -207.458 113.123 C-209.101 116.643 -210.738 120.165 -212.375 123.688 C-212.912 124.835 -213.448 125.983 -214.001 127.166 C-214.503 128.249 -215.006 129.333 -215.523 130.449 C-215.976 131.422 -216.429 132.395 -216.896 133.397 C-219.813 140.274 -220.238 148.346 -218.316 155.57 C-217.362 157.844 -216.28 159.894 -215 162 C-214.634 162.629 -214.268 163.258 -213.891 163.906 C-209.047 171.202 -201.702 176.502 -195 182 C-194.02 182.81 -193.041 183.619 -192.031 184.453 C-189.363 186.646 -186.682 188.824 -184 191 C-182.125 192.541 -180.25 194.083 -178.375 195.625 C-174.192 199.061 -169.932 202.368 -165.582 205.59 C-165.06 206.055 -164.538 206.521 -164 207 C-164 207.66 -164 208.32 -164 209 C-163.473 209.217 -162.946 209.433 -162.402 209.656 C-159.087 211.511 -156.392 213.994 -153.562 216.5 C-148.184 221.207 -142.683 225.658 -136.912 229.877 C-135.574 230.873 -134.282 231.931 -133 233 C-133 233.66 -133 234.32 -133 235 C-132.408 235.274 -131.816 235.548 -131.205 235.83 C-129.079 236.958 -127.509 238.131 -125.715 239.723 C-125.107 240.257 -124.5 240.791 -123.874 241.341 C-123.235 241.909 -122.596 242.477 -121.938 243.062 C-117.414 247.039 -112.875 250.967 -108.188 254.75 C-103.837 258.271 -99.685 261.963 -95.551 265.734 C-91.983 268.903 -88.273 271.884 -84.543 274.859 C-82 277 -82 277 -79.438 279.723 C-76.938 282.058 -76.124 282.604 -72.812 282.688 C-69 283 -69 283 -67 285 C-64.664 285.447 -64.664 285.447 -61.915 285.594 C-60.852 285.674 -59.79 285.754 -58.696 285.836 C-57.54 285.914 -56.385 285.991 -55.195 286.07 C-54.006 286.156 -52.816 286.242 -51.591 286.331 C-49.064 286.511 -46.537 286.688 -44.01 286.86 C-40.175 287.122 -36.341 287.397 -32.508 287.676 C-30.05 287.85 -27.591 288.023 -25.133 288.195 C-23.998 288.277 -22.863 288.358 -21.694 288.441 C-6.757 289.964 -6.757 289.964 7.188 285.812 C8.549 285.077 9.911 284.341 11.273 283.605 C12.016 283.193 12.758 282.781 13.522 282.357 C17.337 280.267 21.209 278.289 25.075 276.296 C30.394 273.551 35.696 270.774 41 268 C41.834 267.564 42.668 267.129 43.527 266.68 C49.028 263.804 54.517 260.908 60 258 C61.045 257.446 62.091 256.892 63.167 256.321 C70.292 252.539 77.401 248.729 84.495 244.892 C86.795 243.651 89.097 242.415 91.403 241.187 C94.571 239.496 97.724 237.783 100.875 236.062 C101.813 235.568 102.751 235.073 103.718 234.563 C111.206 230.421 116.36 225.294 119 217 C119.298 214.19 119.509 211.453 119.633 208.637 C119.695 207.449 119.695 207.449 119.759 206.237 C119.889 203.721 120.007 201.204 120.125 198.688 C120.211 196.976 120.299 195.264 120.387 193.553 C120.6 189.369 120.803 185.185 121 181 C119.02 180.67 117.04 180.34 115 180 C114.67 181.65 114.34 183.3 114 185 C110.371 186.724 108.453 187.105 104.5 186.188 C98.633 183.646 93.402 179.884 88.088 176.368 C84.235 173.843 80.334 171.394 76.438 168.938 C75.634 168.428 74.83 167.918 74.001 167.393 C70.327 165.069 66.644 162.771 62.898 160.562 C62.287 160.199 61.675 159.836 61.045 159.461 C59.427 158.505 57.802 157.563 56.176 156.621 C55.458 156.086 54.74 155.551 54 155 C54 154.01 54 153.02 54 152 C57.638 153.348 60.792 154.986 64.07 157.055 C65.041 157.664 66.011 158.274 67.011 158.902 C68.552 159.878 68.552 159.878 70.125 160.875 C71.713 161.874 71.713 161.874 73.333 162.893 C78.45 166.115 83.557 169.352 88.664 172.59 C89.526 173.136 90.389 173.682 91.277 174.245 C92.889 175.267 94.5 176.291 96.11 177.318 C96.832 177.776 97.553 178.235 98.297 178.707 C98.919 179.104 99.541 179.501 100.183 179.909 C104.013 182.208 106.461 183.252 111 183 C111.99 181.02 112.98 179.04 114 177 C117.3 177.66 120.6 178.32 124 179 C124.672 219.906 124.672 219.906 116 230 C108.942 235.777 100.852 239.967 92.812 244.188 C91.573 244.844 90.334 245.502 89.095 246.159 C80.521 250.704 71.913 255.185 63.3 259.653 C55.958 263.471 48.697 267.424 41.446 271.411 C33.103 275.982 24.668 280.37 16.209 284.724 C14.712 285.497 14.712 285.497 13.184 286.285 C12.302 286.738 11.421 287.19 10.513 287.656 C7.972 288.939 7.972 288.939 5.743 290.651 C1.784 292.598 -1.72 292.394 -6.074 292.301 C-6.985 292.29 -7.896 292.28 -8.835 292.269 C-19.983 292.071 -31.101 291.294 -42.216 290.456 C-45.852 290.185 -49.489 289.935 -53.127 289.686 C-55.466 289.514 -57.805 289.342 -60.145 289.168 C-61.219 289.096 -62.293 289.024 -63.399 288.95 C-70.361 288.401 -77.01 287.738 -82.363 282.836 C-83.007 282.024 -83.65 281.212 -84.312 280.375 C-88.253 275.71 -92.467 271.997 -97.246 268.215 C-99.923 266.062 -102.465 263.818 -105 261.5 C-111.082 255.967 -117.433 250.779 -123.918 245.727 C-124.832 245.012 -125.746 244.298 -126.688 243.562 C-127.931 242.605 -127.931 242.605 -129.199 241.629 C-129.793 241.091 -130.388 240.554 -131 240 C-131 239.34 -131 238.68 -131 238 C-131.562 237.742 -132.124 237.484 -132.703 237.219 C-135.267 235.858 -137.452 234.272 -139.75 232.5 C-140.549 231.892 -141.348 231.283 -142.172 230.656 C-143.077 229.836 -143.077 229.836 -144 229 C-144 228.34 -144 227.68 -144 227 C-144.619 226.691 -145.238 226.381 -145.875 226.062 C-147.25 225.375 -148.625 224.688 -150 224 C-150 223.34 -150 222.68 -150 222 C-150.619 221.691 -151.238 221.381 -151.875 221.062 C-153.25 220.375 -154.625 219.688 -156 219 C-156 218.34 -156 217.68 -156 217 C-156.532 216.778 -157.065 216.557 -157.613 216.328 C-160.827 214.54 -163.443 212.171 -166.188 209.75 C-171.578 205.06 -177.035 200.465 -182.562 195.938 C-221.128 164.292 -221.128 164.292 -222.938 149.125 C-223.689 133.38 -214.024 117.816 -207.059 104.191 C-205.299 100.675 -203.664 97.107 -202.035 93.527 C-201.505 92.363 -200.975 91.199 -200.429 90 C-199.367 87.66 -198.312 85.318 -197.263 82.973 C-196.77 81.887 -196.277 80.802 -195.77 79.684 C-195.114 78.223 -195.114 78.223 -194.445 76.732 C-191.596 71.345 -187.77 67.779 -182.938 64.188 C-181.895 63.397 -180.852 62.607 -179.777 61.793 C-179.191 61.363 -178.605 60.933 -178.002 60.49 C-176.534 59.397 -175.088 58.274 -173.656 57.134 C-166.996 51.985 -160.762 49.012 -152.75 46.555 C-151.595 46.182 -150.44 45.81 -149.25 45.426 C-146.148 44.43 -143.041 43.451 -139.93 42.48 C-136.663 41.456 -133.403 40.407 -130.143 39.361 C-124.891 37.677 -119.635 36.005 -114.376 34.342 C-105.221 31.442 -96.093 28.462 -86.967 25.473 C-82.685 24.072 -78.401 22.681 -74.117 21.289 C-68.033 19.312 -61.949 17.333 -55.866 15.351 C-52.269 14.18 -48.672 13.009 -45.075 11.838 C-43.403 11.294 -41.733 10.75 -40.062 10.205 C-36.245 8.962 -32.427 7.722 -28.605 6.492 C-25.329 5.437 -22.064 4.353 -18.801 3.258 C-17.086 2.692 -15.371 2.127 -13.656 1.562 C-12.467 1.155 -12.467 1.155 -11.253 0.74 C-7.183 -0.586 -4.186 -1.544 0 0 Z " fill="#000000" transform="translate(279,84)"/>
<path d="M0 0 C0.706 1.313 1.377 2.646 2 4 C-11.439 8.499 -24.895 12.938 -38.375 17.312 C-42.141 18.536 -45.906 19.76 -49.672 20.984 C-51.147 21.464 -51.147 21.464 -52.651 21.953 C-60.297 24.442 -67.938 26.945 -75.578 29.453 C-97.3 36.583 -119.025 43.697 -140.812 50.625 C-141.691 50.905 -142.57 51.186 -143.475 51.474 C-145.905 52.249 -148.337 53.02 -150.77 53.789 C-151.481 54.016 -152.193 54.243 -152.926 54.477 C-157.769 56 -157.769 56 -160 56 C-161.625 53.5 -161.625 53.5 -163 51 C-161.477 50.492 -159.953 49.984 -158.43 49.477 C-157.043 49.014 -155.656 48.552 -154.269 48.09 C-150.279 46.76 -146.29 45.43 -142.3 44.101 C-134.304 41.436 -126.308 38.77 -118.316 36.094 C-93.914 27.927 -69.465 19.904 -44.986 11.969 C-42.047 11.015 -39.11 10.059 -36.172 9.101 C-31.678 7.637 -27.181 6.184 -22.681 4.74 C-21.032 4.209 -19.385 3.675 -17.738 3.137 C-15.489 2.403 -13.235 1.682 -10.98 0.965 C-9.998 0.64 -9.998 0.64 -8.996 0.308 C-3.024 -1.563 -3.024 -1.563 0 0 Z " fill="#FFFFFF" transform="translate(277,87)"/>
<path d="M0 0 C7.875 4.5 7.875 4.5 11.438 7.25 C12.457 8.031 12.457 8.031 13.496 8.828 C13.992 9.215 14.489 9.602 15 10 C13.316 14.839 10.649 18.055 7.363 21.914 C6.913 22.602 6.464 23.291 6 24 C7.229 27.688 8.939 28.724 12 31 C3.126 33.301 -5.901 34.077 -15 35 C-15.507 31.793 -16.005 28.584 -16.5 25.375 C-16.643 24.471 -16.786 23.568 -16.934 22.637 C-17.637 18.046 -18.186 13.662 -18 9 C-15.333 10.333 -12.667 11.667 -10 13 C-5.05 6.565 -5.05 6.565 0 0 Z " fill="#000000" transform="translate(320,216)"/>
<path d="M0 0 C0.33 0 0.66 0 1 0 C1 3.3 1 6.6 1 10 C6.94 10 12.88 10 19 10 C19.125 23.375 19.125 23.375 18 29 C12.39 29 6.78 29 1 29 C0.67 31.64 0.34 34.28 0 37 C-6.411 31.729 -12.186 25.909 -18 20 C-16.414 16.144 -13.935 13.668 -11 10.75 C-10.113 9.858 -9.226 8.966 -8.312 8.047 C-6 6 -6 6 -4 6 C-4 5.34 -4 4.68 -4 4 C-3.34 4 -2.68 4 -2 4 C-2 3.34 -2 2.68 -2 2 C-1.34 2 -0.68 2 0 2 C0 1.34 0 0.68 0 0 Z " fill="#000000" transform="translate(253,119)"/>
<path d="M0 0 C0.799 0.009 1.598 0.018 2.422 0.027 C3.025 0.039 3.628 0.051 4.25 0.062 C4.25 0.723 4.25 1.382 4.25 2.062 C5.426 1.939 6.601 1.815 7.812 1.688 C12.525 1.637 14.708 3.576 18 6.75 C18.619 7.4 18.619 7.4 19.25 8.062 C18.226 11.613 17.476 14.091 14.539 16.418 C7.146 20.224 -1.57 20.352 -9.543 18.367 C-13.674 16.763 -15.393 15.625 -17.812 11.812 C-18.122 10.905 -18.431 9.998 -18.75 9.062 C-14.023 2.335 -8.028 -0.118 0 0 Z " fill="#C8C8C8" transform="translate(244.75,309.9375)"/>
<path d="M0 0 C2.341 1.762 4.007 3.796 5.625 6.223 C3.407 10.919 0.449 13.454 -4.375 15.223 C-12.605 16.915 -19.292 16.415 -26.75 12.41 C-29.511 10.109 -30.425 8.643 -31.375 5.223 C-22.628 -3.006 -11.106 -6.455 0 0 Z " fill="#D0D0D0" transform="translate(301.375,296.77734375)"/>
<path d="M0 0 C1.375 2.188 1.375 2.188 2 4 C2.66 4 3.32 4 4 4 C3.175 8.032 2.371 9.701 -0.875 12.312 C-7.368 15.532 -15.116 15.88 -22 13.812 C-25.394 12.451 -27.903 11.1 -30 8 C-30.625 5.562 -30.625 5.562 -30 3 C-22.269 -5.31 -9.441 -6.373 0 0 Z " fill="#000000" transform="translate(208,277)"/>
<path d="M0 0 C2.562 2.688 2.562 2.688 4 5 C3.003 8.591 2.113 9.912 -0.875 12.25 C-6.907 15.628 -13.551 15.964 -20.289 14.504 C-24.856 12.99 -27.316 11.137 -30 7 C-28.496 3.24 -27.56 1.345 -24.062 -0.812 C-15.88 -3.985 -7.95 -3.998 0 0 Z " fill="#000000" transform="translate(251,260)"/>
<path d="M0 0 C2 3 2 3 1.875 4.938 C0.609 7.923 -0.31 9.078 -3 11 C-9.856 13.192 -16.236 13.611 -23 11 C-26.125 9.312 -26.125 9.312 -28 7 C-28.188 3.5 -28.188 3.5 -27 0 C-19.118 -6.966 -7.944 -6.588 0 0 Z " fill="#C5C5C5" transform="translate(205,230)"/>
<path d="M0 0 C1.914 1.652 1.914 1.652 4.602 4.527 C4.602 6.715 4.602 6.715 3.602 9.527 C-2.842 14.85 -9.211 16.235 -17.398 15.527 C-24.057 14.254 -27.56 12.1 -31.398 6.527 C-30.35 3.905 -29.749 2.734 -27.273 1.277 C-26.655 1.03 -26.036 0.782 -25.398 0.527 C-26.388 2.012 -26.388 2.012 -27.398 3.527 C-27.398 4.517 -27.398 5.507 -27.398 6.527 C-26.512 6.053 -25.625 5.579 -24.711 5.09 C-17.004 1.454 -10.108 2.006 -2.219 4.773 C-0.398 5.527 -0.398 5.527 0.602 6.527 C0.562 4.604 0.562 4.604 -0.398 2.527 C-5.409 -0.73 -9.522 -0.85 -15.273 -0.66 C-16.449 -0.64 -16.449 -0.64 -17.648 -0.619 C-19.565 -0.584 -21.482 -0.53 -23.398 -0.473 C-17.994 -5.877 -5.985 -3.675 0 0 Z " fill="#000000" transform="translate(345.3984375,280.47265625)"/>
<path d="M0 0 C3 1 3 1 4.375 3.25 C5 6 5 6 4 8.625 C0.763 12.469 -1.971 13.783 -7 14.32 C-12.982 14.528 -18.341 14.421 -23.609 11.355 C-25 10 -25 10 -26 6.25 C-26 5.178 -26 4.105 -26 3 C-25.34 2.67 -24.68 2.34 -24 2 C-24 3.32 -24 4.64 -24 6 C-23.196 5.526 -22.391 5.051 -21.562 4.562 C-13.439 1 -7.175 1.979 1 5 C0.67 3.35 0.34 1.7 0 0 Z " fill="#000000" transform="translate(159,245)"/>
<path d="M0 0 C0.66 0 1.32 0 2 0 C1.388 3.171 0.306 5.199 -1.562 7.812 C-4.05 11.739 -4.942 14.288 -4 19 C-0.514 25.389 6.085 29 12.055 32.765 C14.236 34.15 16.398 35.561 18.559 36.977 C34.218 47.229 50.024 57.248 66 67 C65.505 68.485 65.505 68.485 65 70 C48.373 60.575 32.352 50.077 16.393 39.573 C14.813 38.535 13.231 37.5 11.646 36.47 C9.443 35.035 7.251 33.583 5.062 32.125 C4.418 31.709 3.774 31.293 3.111 30.865 C-2.355 27.176 -6.097 22.921 -8.062 16.562 C-7.948 10.023 -4.413 4.707 0 0 Z " fill="#000000" transform="translate(245,154)"/>
<path d="M0 0 C5.768 -0.346 10.018 -0.321 15 3 C16.938 4.875 16.938 4.875 18 7 C17.864 9.788 17.418 11.406 15.812 13.688 C10.802 17.316 4.969 17.692 -1 17 C-3.807 16.195 -6.314 15.172 -9 14 C-9 13.34 -9 12.68 -9 12 C-9.66 12 -10.32 12 -11 12 C-11.688 10.188 -11.688 10.188 -12 8 C-10.562 6.25 -10.562 6.25 -9 5 C-8.67 5.99 -8.34 6.98 -8 8 C-7.319 7.691 -6.639 7.381 -5.938 7.062 C0.838 4.612 6.233 4.988 13 7 C13.66 7.33 14.32 7.66 15 8 C14.421 6.001 14.421 6.001 13 4 C8.792 2.141 4.547 1.546 0 1 C0 0.67 0 0.34 0 0 Z " fill="#000000" transform="translate(232,209)"/>
<path d="M0 0 C-1 3 -1 3 -2.898 3.984 C-10.539 6.346 -18.294 7.073 -25.688 3.438 C-26.451 2.963 -27.214 2.489 -28 2 C-28 1.34 -28 0.68 -28 0 C-18.921 -4.856 -8.992 -5.59 0 0 Z " fill="#FFFFFF" transform="translate(259,321)"/>
<path d="M0 0 C-1.695 3.844 -1.695 3.844 -4.438 5.25 C-12.22 6.888 -18.937 6.767 -26 3 C-26 2.01 -26 1.02 -26 0 C-16.547 -4.125 -9.546 -3.791 0 0 Z " fill="#FFFFFF" transform="translate(302,304)"/>
<path d="M0 0 C0.866 0.495 1.733 0.99 2.625 1.5 C-0.573 4.919 -2.48 6.367 -7.266 6.703 C-13.77 6.794 -18.648 6.697 -24.375 3.5 C-23.375 0.5 -23.375 0.5 -21.242 -0.668 C-14.669 -2.575 -6.356 -2.748 0 0 Z " fill="#FFFFFF" transform="translate(343.375,286.5)"/>
<path d="M0 0 C2.341 1.762 4.007 3.796 5.625 6.223 C3.407 10.919 0.449 13.454 -4.375 15.223 C-12.605 16.915 -19.292 16.415 -26.75 12.41 C-29.511 10.109 -30.425 8.643 -31.375 5.223 C-22.628 -3.006 -11.106 -6.455 0 0 Z M-28.375 4.223 C-28.375 5.213 -28.375 6.203 -28.375 7.223 C-27.385 7.223 -26.395 7.223 -25.375 7.223 C-25.375 8.213 -25.375 9.203 -25.375 10.223 C-18.894 13.679 -12.343 14.504 -5.148 12.648 C-3.025 11.881 -3.025 11.881 -0.375 10.223 C-0.045 9.233 0.285 8.243 0.625 7.223 C1.285 7.223 1.945 7.223 2.625 7.223 C2.475 4.788 2.475 4.788 1.625 2.223 C-6.81 -3.618 -21.42 -4.417 -28.375 4.223 Z " fill="#000000" transform="translate(301.375,296.77734375)"/>
<path d="M0 0 C-6.662 4.1 -12.219 4.948 -20 4 C-22.356 3.234 -23.924 2.384 -26 1 C-25 -2 -25 -2 -23.375 -3.125 C-15.429 -6.052 -6.604 -5.526 0 0 Z " fill="#FFFFFF" transform="translate(208,285)"/>
<path d="M0 0 C4.379 0.505 6.817 3.178 10 6 C8.976 9.55 8.226 12.029 5.289 14.355 C-2.104 18.162 -10.82 18.29 -18.793 16.305 C-22.924 14.701 -24.643 13.563 -27.062 9.75 C-27.372 8.842 -27.681 7.935 -28 7 C-26.68 5.35 -25.36 3.7 -24 2 C-23.34 2.33 -22.68 2.66 -22 3 C-22.66 3.66 -23.32 4.32 -24 5 C-24 5.99 -24 6.98 -24 8 C-23.134 7.526 -22.268 7.051 -21.375 6.562 C-18.146 5.068 -15.51 4.418 -12 4 C-12 4.66 -12 5.32 -12 6 C-17.445 7.485 -17.445 7.485 -23 9 C-19.525 12.475 -16.749 13.44 -12 14 C-6.343 13.937 -1.147 13.488 4 11 C4.33 10.34 4.66 9.68 5 9 C4.01 8.67 3.02 8.34 2 8 C2.66 7.67 3.32 7.34 4 7 C4.66 7.33 5.32 7.66 6 8 C5.651 4.745 4.979 3.981 2.438 1.75 C1.633 1.173 0.829 0.595 0 0 Z " fill="#000000" transform="translate(254,312)"/>
<path d="M0 0 C0 0.99 0 1.98 0 3 C-7.243 6.505 -13.745 6.538 -21.25 3.984 C-23 3 -23 3 -24 0 C-14.907 -3.897 -9.093 -3.897 0 0 Z " fill="#FFFFFF" transform="translate(250,267)"/>
<path d="M0 0 C1.629 0.828 1.629 0.828 3.879 2.328 C1.742 5.533 0.66 6.135 -2.988 7.043 C-8.347 7.759 -13.419 7.179 -18.246 4.766 C-18.865 4.291 -19.484 3.817 -20.121 3.328 C-15.265 -1.99 -6.654 -2.108 0 0 Z " fill="#FFFFFF" transform="translate(156.12109375,249.671875)"/>
<path d="M0 0 C0.33 1.32 0.66 2.64 1 4 C1.784 3.526 2.567 3.051 3.375 2.562 C12.032 -1.169 19.261 0.059 28 3 C28.66 2.34 29.32 1.68 30 1 C30.812 2.688 30.812 2.688 31 5 C27.278 9.597 23.807 11.691 17.949 12.336 C5.075 12.49 5.075 12.49 0 8 C-1.5 4.75 -1.5 4.75 -2 2 C-1.34 1.34 -0.68 0.68 0 0 Z M2 5 C4.556 8.124 7.127 9.032 11 10 C16.067 10.368 20.232 9.776 25 8 C25.66 7.01 26.32 6.02 27 5 C19.837 0.088 9.163 0.088 2 5 Z " fill="#000000" transform="translate(267,246)"/>
<path d="M0 0 C2 3 2 3 1.875 4.938 C0.609 7.923 -0.31 9.078 -3 11 C-9.856 13.192 -16.236 13.611 -23 11 C-26.125 9.312 -26.125 9.312 -28 7 C-28.188 3.5 -28.188 3.5 -27 0 C-19.118 -6.966 -7.944 -6.588 0 0 Z M-26 1 C-26.057 3.916 -26.057 3.916 -25 7 C-19.651 10.414 -14.234 10.75 -8 10 C-4.059 8.663 -2.525 8.027 -0.625 4.312 C-0.316 3.168 -0.316 3.168 0 2 C-3.212 -1.434 -5.132 -2.848 -9.926 -3.238 C-18.774 -3.488 -18.774 -3.488 -26 1 Z " fill="#000000" transform="translate(205,230)"/>
<path d="M0 0 C-1 3 -1 3 -3.223 4.168 C-9.114 5.933 -15.007 5.811 -20.688 3.5 C-21.451 3.005 -22.214 2.51 -23 2 C-23 1.34 -23 0.68 -23 0 C-15.17 -3.348 -7.684 -4.273 0 0 Z " fill="#FFFFFF" transform="translate(203,235)"/>
<path d="M0 0 C2.688 1.812 2.688 1.812 3.355 4.426 C3.465 5.213 3.575 6.001 3.688 6.812 C2.618 6.488 2.618 6.488 1.527 6.156 C-8.515 3.237 -15.374 3.793 -25.312 6.812 C-24.721 3.786 -24.369 2.871 -22.125 0.562 C-16.126 -3.121 -6.423 -2.319 0 0 Z " fill="#FFFFFF" transform="translate(205.3125,276.1875)"/>
<path d="M0 0 C-0.33 1.32 -0.66 2.64 -1 4 C-1.928 3.505 -2.856 3.01 -3.812 2.5 C-11.289 -0.672 -19.031 0.549 -26.418 3.344 C-26.94 3.56 -27.462 3.777 -28 4 C-27.875 1.688 -27.875 1.688 -27 -1 C-18.349 -6.505 -7.998 -6.525 0 0 Z " fill="#FFFFFF" transform="translate(252,263)"/>
<path d="M0 0 C0.763 0.495 1.526 0.99 2.312 1.5 C-0.386 4.456 -2.36 5.402 -6.43 5.703 C-7.464 5.719 -8.497 5.734 -9.562 5.75 C-11.106 5.789 -11.106 5.789 -12.68 5.828 C-16.062 5.459 -17.927 4.436 -20.688 2.5 C-15.454 -3.231 -6.792 -2.763 0 0 Z " fill="#FFFFFF" transform="translate(244.6875,217.5)"/>
<path d="M0 0 C3.63 0 7.26 0 11 0 C10.67 0.66 10.34 1.32 10 2 C9.34 2 8.68 2 8 2 C8.114 4.793 8.24 7.583 8.375 10.375 C8.406 11.169 8.437 11.963 8.469 12.781 C8.518 17.367 8.518 17.367 11 21 C7.37 21 3.74 21 0 21 C0.66 20.34 1.32 19.68 2 19 C2.145 16.091 2.186 13.28 2.125 10.375 C2.116 9.573 2.107 8.771 2.098 7.945 C2.074 5.963 2.038 3.982 2 2 C1.34 2 0.68 2 0 2 C0 1.34 0 0.68 0 0 Z " fill="#000000" transform="translate(13,17)"/>
<path d="M0 0 C3.373 1.686 4.933 2.691 7.453 5.258 C8.072 5.883 8.691 6.508 9.328 7.152 C9.962 7.803 10.597 8.454 11.25 9.125 C11.9 9.784 12.549 10.442 13.219 11.121 C14.817 12.743 16.411 14.369 18 16 C15 16 15 16 13.466 14.807 C12.937 14.262 12.408 13.717 11.863 13.156 C11.286 12.57 10.71 11.983 10.115 11.379 C9.52 10.759 8.925 10.139 8.312 9.5 C7.706 8.88 7.099 8.26 6.475 7.621 C4.976 6.087 3.487 4.545 2 3 C1.34 4.65 0.68 6.3 0 8 C3.96 11.96 7.92 15.92 12 20 C9 20 9 20 6.625 17.848 C5.759 16.929 4.892 16.009 4 15.062 C0.527 11.219 0.527 11.219 -4 9 C-3.34 7.68 -2.68 6.36 -2 5 C-6.455 8.465 -6.455 8.465 -11 12 C-11.66 11.67 -12.32 11.34 -13 11 C-8.71 7.37 -4.42 3.74 0 0 Z " fill="#020202" transform="translate(240,338)"/>
</svg>
