<?xml version="1.0" encoding="UTF-8"?>
<!-- Generator: visioncortex VTracer 0.6.4 -->
<svg version="1.1" xmlns="http://www.w3.org/2000/svg" width="325" height="311">
<path d="M0 0 C107.25 0 214.5 0 325 0 C325 102.63 325 205.26 325 311 C217.75 311 110.5 311 0 311 C0 208.37 0 105.74 0 0 Z " fill="#EFEFEF" transform="translate(0,0)"/>
<path d="M0 0 C2.875 -0.125 2.875 -0.125 6 0 C8.455 2.455 8.236 3.804 8.252 7.154 C8.241 8.207 8.241 8.207 8.23 9.281 C8.23 10.009 8.23 10.737 8.229 11.488 C8.226 13.034 8.218 14.581 8.206 16.128 C8.188 18.463 8.185 20.798 8.186 23.133 C8.169 30.084 8.045 36.959 7.229 43.871 C6.856 47.339 6.83 50.762 6.812 54.25 C6.8 54.918 6.788 55.585 6.775 56.273 C6.763 60.548 7.22 64.096 9 68 C11.593 68.864 13.34 69.176 16.012 69.316 C16.769 69.358 17.526 69.4 18.307 69.443 C19.092 69.483 19.878 69.522 20.688 69.562 C21.883 69.627 21.883 69.627 23.104 69.693 C25.069 69.799 27.034 69.9 29 70 C29.495 76.435 29.495 76.435 30 83 C29.959 80.958 29.918 78.916 29.875 76.812 C29.858 60.284 29.858 60.284 33 54 C33.99 54 34.98 54 36 54 C35.928 54.909 35.856 55.818 35.781 56.754 C34.786 70.235 33.987 82.91 38 96 C38.694 98.29 39.381 100.581 40.062 102.875 C40.383 103.904 40.704 104.932 41.035 105.992 C43.919 116.899 44.33 128.033 44.25 139.25 C44.248 139.924 44.245 140.599 44.243 141.293 C44.197 151.985 43.608 162.431 42 173 C41.821 174.286 41.642 175.573 41.457 176.898 C40.203 185.595 40.203 185.595 39 188 C38.01 188 37.02 188 36 188 C36 188.99 36 189.98 36 191 C36.33 190.34 36.66 189.68 37 189 C37.66 189 38.32 189 39 189 C39.196 194.976 38.679 200.281 37.512 206.137 C36.691 210.728 36.342 215.352 36 220 C35.67 219.34 35.34 218.68 35 218 C34.67 218.99 34.34 219.98 34 221 C34.66 221 35.32 221 36 221 C35.107 225.576 33.588 227.514 30 230.25 C25.949 233.593 24.655 236.324 23.977 241.504 C24.021 246.235 25.456 250.206 28.543 253.793 C30.304 256.46 30.362 257.929 30.328 261.098 C30.323 262.064 30.318 263.03 30.312 264.025 C30.292 265.028 30.271 266.03 30.25 267.062 C30.245 268.069 30.24 269.075 30.234 270.111 C30.155 277.535 30.155 277.535 29 281 C25.459 283.647 21.47 283.229 17.25 283.125 C16.553 283.116 15.855 283.107 15.137 283.098 C13.424 283.074 11.712 283.038 10 283 C10.66 282.67 11.32 282.34 12 282 C14.475 276.225 14.342 271.319 13.438 265.188 C12.294 261.721 12.294 261.721 8.875 260.562 C4.796 259.97 1.112 259.856 -3 260 C-3.33 260.66 -3.66 261.32 -4 262 C-5.333 262 -6.667 262 -8 262 C-8 262.66 -8 263.32 -8 264 C-8.66 264 -9.32 264 -10 264 C-11.225 272.664 -11.225 272.664 -9 281 C-13 278.333 -17 275.667 -21 273 C-21 272.34 -21 271.68 -21 271 C-21.743 270.732 -22.485 270.464 -23.25 270.188 C-25.891 269.047 -27.856 267.906 -30 266 C-30 265.34 -30 264.68 -30 264 C-30.721 263.75 -31.441 263.5 -32.184 263.242 C-35.258 261.886 -37.467 260.251 -40.062 258.125 C-41.317 257.108 -41.317 257.108 -42.598 256.07 C-44.852 254.127 -47.002 252.206 -49 250 C-49 249.34 -49 248.68 -49 248 C-49.66 248 -50.32 248 -51 248 C-52.656 245.691 -52.656 245.691 -54.5 242.562 C-55.108 241.553 -55.717 240.544 -56.344 239.504 C-59.579 232.659 -60.306 225.511 -60.633 218.02 C-60.674 217.203 -60.716 216.387 -60.759 215.545 C-60.888 212.968 -61.007 210.39 -61.125 207.812 C-61.212 206.074 -61.299 204.335 -61.387 202.596 C-62.056 189.048 -62.056 189.048 -62 183 C-62.66 183 -63.32 183 -64 183 C-67.054 175.408 -67.427 168.778 -67.406 160.645 C-67.417 159.384 -67.428 158.124 -67.439 156.825 C-67.479 152.141 -67.493 147.458 -67.505 142.774 C-67.519 138.168 -67.554 133.563 -67.594 128.957 C-67.591 127.748 -67.588 126.538 -67.585 125.292 C-67.638 119.276 -67.946 115.307 -71 110 C-71.306 106.943 -71.306 106.943 -71.211 103.676 C-71.184 102.449 -71.156 101.223 -71.128 99.959 C-71.086 98.653 -71.043 97.346 -71 96 C-70.973 94.64 -70.949 93.28 -70.927 91.919 C-70.867 88.392 -70.781 84.866 -70.683 81.339 C-70.644 79.896 -70.609 78.452 -70.578 77.009 C-70.341 66.02 -69.681 56.584 -64.562 46.688 C-63.966 45.516 -63.369 44.344 -62.754 43.137 C-61.308 40.551 -59.963 38.214 -58 36 C-57.34 36 -56.68 36 -56 36 C-55.654 35.138 -55.654 35.138 -55.301 34.258 C-53.665 31.419 -51.754 29.911 -49.188 27.875 C-48.204 27.093 -47.22 26.31 -46.207 25.504 C-45.139 24.669 -44.069 23.834 -43 23 C-42.458 22.573 -41.916 22.146 -41.357 21.707 C-34.759 16.516 -28.091 11.508 -21 7 C-21.083 8.196 -21.165 9.392 -21.25 10.625 C-21.266 15.093 -19.827 17.508 -17 21 C-14.386 23.614 -12.465 23.987 -8.816 24.02 C-3.731 23.552 -0.699 22.814 3 19 C4.225 16.55 4.167 14.858 4.188 12.125 C4.202 11.261 4.216 10.398 4.23 9.508 C3.985 6.839 3.436 5.248 2 3 C1.01 2.505 1.01 2.505 0 2 C0 1.34 0 0.68 0 0 Z " fill="#F8F8F8" transform="translate(169,13)"/>
<path d="M0 0 C-2 2 -2 2 -4.43 2.227 C-5.425 2.217 -6.42 2.206 -7.445 2.195 C-8.522 2.189 -9.598 2.182 -10.707 2.176 C-11.835 2.159 -12.963 2.142 -14.125 2.125 C-15.261 2.116 -16.396 2.107 -17.566 2.098 C-20.378 2.074 -23.189 2.041 -26 2 C-26 4.64 -26 7.28 -26 10 C-27.32 10.33 -28.64 10.66 -30 11 C-26.37 11 -22.74 11 -19 11 C-19 14.63 -19 18.26 -19 22 C-21.288 23.144 -22.558 23.116 -25.098 23.098 C-25.899 23.094 -26.7 23.091 -27.525 23.088 C-28.363 23.08 -29.2 23.071 -30.062 23.062 C-31.324 23.056 -31.324 23.056 -32.611 23.049 C-34.741 23.037 -36.87 23.019 -39 23 C-39.33 23 -39.66 23 -40 23 C-39.299 23.004 -38.598 23.008 -37.876 23.012 C-34.687 23.045 -31.501 23.116 -28.312 23.188 C-27.21 23.193 -26.107 23.199 -24.971 23.205 C-16.836 23.426 -16.836 23.426 -12.727 26.246 C-10.805 29.311 -10.499 30.362 -11.062 33.875 C-11.199 34.831 -11.336 35.788 -11.477 36.773 C-11.649 37.838 -11.822 38.903 -12 40 C-12.314 42.5 -12.627 45 -12.938 47.5 C-13.782 53.703 -14.799 59.856 -16 66 C-16.99 66 -17.98 66 -19 66 C-19.732 74.288 -20.071 82.466 -19.922 90.785 C-19.909 91.623 -19.897 92.462 -19.884 93.325 C-19.83 96.787 -19.772 100.248 -19.678 103.709 C-19.611 106.276 -19.576 108.842 -19.547 111.41 C-19.503 112.573 -19.503 112.573 -19.459 113.759 C-19.431 119.576 -20.999 121.829 -25 126 C-25.79 128.486 -25.79 128.486 -25.812 130.875 C-25.86 131.656 -25.908 132.437 -25.957 133.242 C-25.971 133.822 -25.985 134.402 -26 135 C-28.571 132.733 -29.659 130.771 -30.812 127.562 C-32.382 123.489 -34.069 119.51 -35.938 115.562 C-36.4 114.574 -36.863 113.585 -37.34 112.566 C-39.253 109.609 -40.808 108.444 -44 107 C-48.665 107.164 -51.602 107.793 -55 111 C-56.457 113.923 -56.457 113.923 -57.562 117.25 C-57.981 118.408 -58.4 119.565 -58.832 120.758 C-59.217 121.828 -59.603 122.898 -60 124 C-60.569 125.381 -61.149 126.758 -61.75 128.125 C-63.311 131.716 -64.131 134.238 -63.879 138.113 C-63.83 138.939 -63.782 139.765 -63.732 140.616 C-63.676 141.506 -63.62 142.396 -63.562 143.312 C-62.931 154.548 -62.894 165.751 -63 177 C-62.34 177 -61.68 177 -61 177 C-60.879 177.638 -60.758 178.276 -60.633 178.934 C-60.465 179.76 -60.298 180.586 -60.125 181.438 C-59.963 182.261 -59.8 183.085 -59.633 183.934 C-59.424 184.616 -59.215 185.297 -59 186 C-58.34 186.33 -57.68 186.66 -57 187 C-56.254 188.855 -56.254 188.855 -55.562 191.188 C-54.648 194.123 -53.698 196.603 -52.312 199.375 C-51 202 -51 202 -51 205 C-50.34 205 -49.68 205 -49 205 C-49 205.66 -49 206.32 -49 207 C-45.7 207.33 -42.4 207.66 -39 208 C-39 208.33 -39 208.66 -39 209 C-49.89 209 -60.78 209 -72 209 C-72.99 205.7 -73.98 202.4 -75 199 C-77.757 194.773 -80.206 191.488 -84.188 188.438 C-88.495 184.705 -89.761 181.319 -90.333 175.764 C-90.481 172.556 -90.557 169.361 -90.556 166.149 C-90.562 164.135 -90.617 162.126 -90.674 160.113 C-90.708 152.506 -90.105 147.942 -85.369 141.937 C-83.219 138.895 -83.203 136.213 -83.25 132.562 C-83.235 131.368 -83.219 130.173 -83.203 128.941 C-83.586 125.437 -84.984 123.384 -86.98 120.516 C-90.87 114.431 -90.993 108.294 -91.045 101.276 C-91.063 99.172 -91.129 97.073 -91.201 94.971 C-91.458 83.702 -91.458 83.702 -88 79 C-86.354 77.313 -84.688 75.645 -83 74 C-82.443 73.237 -81.886 72.474 -81.312 71.688 C-80.879 71.131 -80.446 70.574 -80 70 C-79.34 70 -78.68 70 -78 70 C-77.867 69.385 -77.734 68.77 -77.598 68.137 C-77.333 66.924 -77.333 66.924 -77.062 65.688 C-76.888 64.887 -76.714 64.086 -76.535 63.262 C-76 61 -76 61 -75 58 C-74.459 51.372 -76.03 44.939 -79 39 C-79.374 33.388 -79.161 29.854 -76 25 C-72.779 21.664 -69.51 21.434 -65 21 C-65.052 20.112 -65.052 20.112 -65.105 19.207 C-65.275 14.245 -65.197 11.057 -62 7 C-59.054 4.054 -55.66 4.355 -51.688 4 C-46.352 3.476 -41.091 2.893 -35.812 1.938 C-24.103 0.031 -11.852 -0.12 0 0 Z " fill="#F5F5F5" transform="translate(101,25)"/>
<path d="M0 0 C0.865 0.018 1.73 0.036 2.621 0.055 C3.262 0.078 3.902 0.101 4.562 0.125 C4.562 0.455 4.562 0.785 4.562 1.125 C0.603 1.785 -3.358 2.445 -7.438 3.125 C-6.447 4.445 -5.457 5.765 -4.438 7.125 C-4.097 9.69 -4.097 9.69 -4.145 12.547 C-4.156 13.933 -4.156 13.933 -4.167 15.347 C-4.195 16.511 -4.222 17.675 -4.25 18.875 C-4.343 24.444 -4.343 24.444 -4.438 30.125 C5.793 29.465 16.023 28.805 26.562 28.125 C24.562 41.125 24.562 41.125 23.562 47.125 C23.437 48.817 23.343 50.512 23.281 52.207 C23.244 53.14 23.206 54.072 23.168 55.033 C23.133 55.992 23.098 56.95 23.062 57.938 C22.838 64.047 22.504 70.077 21.776 76.148 C20.879 84.447 21.652 92.862 22.562 101.125 C22.233 101.125 21.903 101.125 21.562 101.125 C18.054 87.813 19.433 74.528 21.562 61.125 C20.572 61.125 19.582 61.125 18.562 61.125 C16.731 72.212 16.331 82.904 16.562 94.125 C14.071 90.388 14.356 88.38 14.438 83.938 C14.456 82.665 14.474 81.393 14.492 80.082 C14.515 79.106 14.539 78.13 14.562 77.125 C13.382 77.171 12.201 77.218 10.984 77.266 C9.427 77.303 7.87 77.34 6.312 77.375 C5.535 77.409 4.758 77.442 3.957 77.477 C-1.82 77.575 -1.82 77.575 -4.859 75.359 C-8.191 70.642 -8.728 67.269 -8.625 61.5 C-8.624 60.508 -8.624 60.508 -8.623 59.496 C-8.592 55.859 -8.362 52.314 -7.93 48.703 C-7.105 40.999 -7.332 33.238 -7.375 25.5 C-7.38 23.908 -7.385 22.315 -7.389 20.723 C-7.4 16.857 -7.417 12.991 -7.438 9.125 C-9.748 8.465 -12.058 7.805 -14.438 7.125 C-14.438 7.785 -14.438 8.445 -14.438 9.125 C-13.447 9.455 -12.457 9.785 -11.438 10.125 C-8.602 14.421 -8.671 19.168 -9.438 24.125 C-11.101 27.493 -13.359 29.589 -16.75 31.273 C-19.737 32.22 -22.125 32.325 -25.25 32.25 C-26.226 32.232 -27.202 32.214 -28.207 32.195 C-29.311 32.161 -29.311 32.161 -30.438 32.125 C-30.724 31.523 -31.01 30.921 -31.305 30.301 C-32.462 27.93 -32.462 27.93 -34.562 25.312 C-36.765 21.569 -36.589 19.388 -36.438 15.125 C-36.915 15.497 -37.392 15.868 -37.884 16.251 C-39.315 17.367 -40.747 18.481 -42.179 19.596 C-43.817 20.871 -45.455 22.147 -47.092 23.423 C-50.852 26.351 -54.616 29.272 -58.422 32.141 C-59.305 32.809 -59.305 32.809 -60.206 33.491 C-61.779 34.678 -63.356 35.859 -64.934 37.039 C-67.208 38.934 -68.694 40.769 -70.438 43.125 C-71.097 43.125 -71.757 43.125 -72.438 43.125 C-72.807 43.873 -72.807 43.873 -73.184 44.637 C-74.219 46.692 -75.278 48.731 -76.348 50.77 C-77.065 52.159 -77.783 53.548 -78.5 54.938 C-78.864 55.624 -79.228 56.31 -79.604 57.018 C-79.952 57.699 -80.301 58.38 -80.66 59.082 C-80.977 59.69 -81.295 60.298 -81.621 60.925 C-83.587 66.223 -83.591 71.945 -83.754 77.535 C-83.775 78.225 -83.795 78.914 -83.817 79.624 C-83.86 81.077 -83.901 82.53 -83.94 83.983 C-83.999 86.158 -84.064 88.332 -84.131 90.506 C-84.236 94.032 -84.318 97.558 -84.39 101.085 C-84.437 103.088 -84.503 105.091 -84.57 107.093 C-84.597 108.319 -84.624 109.545 -84.652 110.809 C-84.683 111.886 -84.714 112.962 -84.746 114.072 C-84.626 117.199 -84.626 117.199 -82.945 119.918 C-81.302 123.413 -81.044 125.662 -81.005 129.498 C-80.975 131.359 -80.975 131.359 -80.945 133.258 C-80.938 134.596 -80.932 135.935 -80.926 137.273 C-80.909 138.655 -80.891 140.036 -80.871 141.418 C-80.824 145.038 -80.794 148.658 -80.768 152.278 C-80.738 155.978 -80.692 159.679 -80.646 163.379 C-80.561 170.627 -80.493 177.876 -80.438 185.125 C-79.778 185.455 -79.118 185.785 -78.438 186.125 C-78.438 187.445 -78.438 188.765 -78.438 190.125 C-77.778 190.125 -77.118 190.125 -76.438 190.125 C-75.506 194.981 -75.195 199.712 -75.008 204.637 C-74.934 206.299 -74.86 207.961 -74.785 209.623 C-74.672 212.212 -74.563 214.8 -74.463 217.389 C-73.86 235.417 -73.86 235.417 -66.426 251.566 C-65.438 253.125 -65.438 253.125 -65.438 255.125 C-64.778 255.125 -64.118 255.125 -63.438 255.125 C-62.435 256.254 -61.486 257.431 -60.562 258.625 C-56.712 263.197 -52.256 266.128 -47.207 269.266 C-44.594 271.02 -42.617 272.875 -40.438 275.125 C-39.53 275.661 -38.623 276.197 -37.688 276.75 C-36.574 277.431 -36.574 277.431 -35.438 278.125 C-35.438 278.785 -35.438 279.445 -35.438 280.125 C-34.386 280.465 -34.386 280.465 -33.312 280.812 C-29.744 282.442 -27.372 284.531 -24.438 287.125 C-24.767 286.424 -25.097 285.723 -25.438 285 C-27.224 279.865 -26.73 275.997 -24.438 271.125 C-23.778 271.125 -23.118 271.125 -22.438 271.125 C-22.438 270.465 -22.438 269.805 -22.438 269.125 C-21.778 268.795 -21.118 268.465 -20.438 268.125 C-20.108 267.465 -19.778 266.805 -19.438 266.125 C-18.778 266.455 -18.118 266.785 -17.438 267.125 C-16.778 266.795 -16.118 266.465 -15.438 266.125 C-10.319 265.998 -6.517 266.31 -2.375 269.438 C0.879 273.951 0.945 277.577 0.562 283.125 C-0.938 286.562 -0.938 286.562 -2.438 289.125 C-0.354 289.152 1.729 289.171 3.812 289.188 C5.553 289.205 5.553 289.205 7.328 289.223 C10.726 289.235 10.726 289.235 14.562 288.125 C14.892 279.875 15.222 271.625 15.562 263.125 C20.512 264.61 20.512 264.61 25.562 266.125 C26.882 266.455 28.202 266.785 29.562 267.125 C31.869 270.354 31.562 271.885 31.562 276.125 C37.173 276.125 42.782 276.125 48.562 276.125 C48.232 276.785 47.903 277.445 47.562 278.125 C41.623 277.795 35.683 277.465 29.562 277.125 C29.233 274.155 28.903 271.185 28.562 268.125 C25.593 267.795 22.623 267.465 19.562 267.125 C19.548 268.439 19.534 269.752 19.52 271.105 C19.473 272.841 19.424 274.577 19.375 276.312 C19.366 277.609 19.366 277.609 19.357 278.932 C19.207 283.281 19.004 285.518 16.387 289.113 C9.637 293.921 2.585 293.46 -5.375 293.438 C-7.107 293.462 -7.107 293.462 -8.873 293.486 C-16.058 293.49 -21.572 293.267 -27.329 288.587 C-29.676 286.96 -31.305 286.526 -34.105 286.062 C-34.999 285.905 -35.893 285.748 -36.814 285.586 C-37.742 285.434 -38.669 285.282 -39.625 285.125 C-47.983 283.725 -55.867 282.056 -63.438 278.125 C-62.778 277.795 -62.118 277.465 -61.438 277.125 C-59.801 277.83 -58.167 278.541 -56.546 279.279 C-52.684 280.828 -48.63 281.554 -44.562 282.375 C-43.696 282.561 -42.83 282.746 -41.938 282.938 C-38.703 283.626 -38.703 283.626 -35.438 284.125 C-35.108 283.795 -34.778 283.465 -34.438 283.125 C-35.376 282.499 -36.314 281.872 -37.281 281.227 C-38.5 280.401 -39.719 279.576 -40.938 278.75 C-41.558 278.337 -42.178 277.925 -42.816 277.5 C-44.393 276.426 -45.92 275.28 -47.438 274.125 C-47.438 273.465 -47.438 272.805 -47.438 272.125 C-48.428 272.125 -49.417 272.125 -50.438 272.125 C-50.438 271.465 -50.438 270.805 -50.438 270.125 C-51.18 269.857 -51.923 269.589 -52.688 269.312 C-55.328 268.172 -57.293 267.031 -59.438 265.125 C-59.438 264.465 -59.438 263.805 -59.438 263.125 C-60.097 263.125 -60.757 263.125 -61.438 263.125 C-61.438 262.465 -61.438 261.805 -61.438 261.125 C-62.097 261.125 -62.757 261.125 -63.438 261.125 C-64.91 259.516 -64.91 259.516 -66.5 257.375 C-67.027 256.679 -67.554 255.983 -68.098 255.266 C-69.407 253.174 -69.998 251.535 -70.438 249.125 C-71.097 249.125 -71.757 249.125 -72.438 249.125 C-77.847 236.586 -77.781 223.191 -77.818 209.762 C-77.853 202.263 -77.946 195.714 -81.503 188.943 C-83.994 184.097 -83.567 178.562 -83.5 173.25 C-83.495 172.562 -83.491 171.873 -83.486 171.164 C-83.475 169.484 -83.457 167.805 -83.438 166.125 C-84.542 166.616 -84.542 166.616 -85.668 167.117 C-88.301 168.075 -89.99 168.344 -92.75 168.25 C-93.967 168.209 -95.184 168.167 -96.438 168.125 C-96.438 167.795 -96.438 167.465 -96.438 167.125 C-95.823 166.992 -95.208 166.859 -94.574 166.723 C-93.362 166.458 -93.362 166.458 -92.125 166.188 C-91.324 166.013 -90.524 165.839 -89.699 165.66 C-87.292 165.126 -87.292 165.126 -84.438 164.125 C-84.108 157.855 -83.778 151.585 -83.438 145.125 C-84.427 144.795 -85.418 144.465 -86.438 144.125 C-85.778 143.795 -85.118 143.465 -84.438 143.125 C-84.438 141.805 -84.438 140.485 -84.438 139.125 C-85.427 138.465 -86.418 137.805 -87.438 137.125 C-86.118 137.125 -84.797 137.125 -83.438 137.125 C-83.526 135.249 -83.634 133.374 -83.75 131.5 C-83.808 130.456 -83.866 129.412 -83.926 128.336 C-84.236 125.107 -84.236 125.107 -85.945 122.607 C-88.022 117.761 -87.867 113.425 -87.836 108.207 C-87.839 107.154 -87.842 106.101 -87.845 105.016 C-87.847 102.791 -87.841 100.566 -87.829 98.342 C-87.813 94.966 -87.828 91.592 -87.848 88.217 C-87.846 86.047 -87.842 83.877 -87.836 81.707 C-87.845 80.213 -87.845 80.213 -87.854 78.688 C-87.767 69.808 -86.044 61.441 -81.812 53.562 C-81.174 52.354 -81.174 52.354 -80.523 51.121 C-80.165 50.462 -79.807 49.804 -79.438 49.125 C-79.108 48.465 -78.778 47.805 -78.438 47.125 C-80.418 47.62 -80.418 47.62 -82.438 48.125 C-81.293 47.011 -81.293 47.011 -80.125 45.875 C-77.471 43.323 -77.471 43.323 -75.875 40.812 C-75.163 39.977 -75.163 39.977 -74.438 39.125 C-73.118 39.125 -71.797 39.125 -70.438 39.125 C-70.438 38.465 -70.438 37.805 -70.438 37.125 C-69.778 37.125 -69.118 37.125 -68.438 37.125 C-68.438 36.465 -68.438 35.805 -68.438 35.125 C-66.977 33.836 -66.977 33.836 -65.062 32.5 C-64.436 32.054 -63.81 31.608 -63.164 31.148 C-61.438 30.125 -61.438 30.125 -59.438 30.125 C-59.438 29.465 -59.438 28.805 -59.438 28.125 C-58.447 28.125 -57.458 28.125 -56.438 28.125 C-56.438 27.465 -56.438 26.805 -56.438 26.125 C-52.976 23.125 -52.976 23.125 -50.438 23.125 C-50.438 22.465 -50.438 21.805 -50.438 21.125 C-49.447 21.125 -48.458 21.125 -47.438 21.125 C-47.438 20.465 -47.438 19.805 -47.438 19.125 C-45.977 17.836 -45.977 17.836 -44.062 16.5 C-43.436 16.054 -42.81 15.608 -42.164 15.148 C-40.438 14.125 -40.438 14.125 -38.438 14.125 C-38.438 13.465 -38.438 12.805 -38.438 12.125 C-36.977 10.836 -36.977 10.836 -35.062 9.5 C-34.436 9.054 -33.81 8.608 -33.164 8.148 C-31.438 7.125 -31.438 7.125 -29.438 7.125 C-29.438 6.465 -29.438 5.805 -29.438 5.125 C-35.377 5.62 -35.377 5.62 -41.438 6.125 C-38.094 3.896 -36.638 3.794 -32.703 3.562 C-31.571 3.488 -30.44 3.413 -29.273 3.336 C-28.09 3.266 -26.907 3.197 -25.688 3.125 C-17.156 2.617 -8.357 -0.229 0 0 Z " fill="#0A0A0A" transform="translate(183.4375,5.875)"/>
<path d="M0 0 C4.442 3.736 6.742 7.804 9.188 12.938 C9.53 13.628 9.872 14.318 10.225 15.029 C17.611 30.16 17.199 47.069 17.438 63.625 C17.472 64.881 17.506 66.136 17.542 67.43 C17.581 75.838 15.983 81.648 12 89 C11.215 90.723 10.442 92.451 9.688 94.188 C9.361 94.924 9.035 95.66 8.699 96.418 C8.468 96.94 8.238 97.462 8 98 C7.34 98 6.68 98 6 98 C6 98.66 6 99.32 6 100 C4.585 100.197 3.168 100.382 1.75 100.562 C0.567 100.719 0.567 100.719 -0.641 100.879 C-3.005 101 -4.751 100.696 -7 100 C-7 99.34 -7 98.68 -7 98 C-7.66 98 -8.32 98 -9 98 C-10.012 95.943 -11.009 93.879 -12 91.812 C-12.557 90.664 -13.114 89.515 -13.688 88.332 C-14.918 85.209 -15.298 83.297 -15 80 C-15.99 79.67 -16.98 79.34 -18 79 C-18.33 76.03 -18.66 73.06 -19 70 C-19.66 70 -20.32 70 -21 70 C-21.288 65.162 -21.573 60.324 -21.854 55.486 C-21.951 53.843 -22.048 52.2 -22.146 50.557 C-22.287 48.184 -22.425 45.811 -22.562 43.438 C-22.628 42.351 -22.628 42.351 -22.695 41.243 C-23.541 26.448 -20.169 14.598 -12 2 C-7.911 -1.407 -5.06 -1.446 0 0 Z " fill="#C7C7C7" transform="translate(59,132)"/>
<path d="M0 0 C1.538 -0.012 1.538 -0.012 3.107 -0.024 C5.267 -0.038 7.427 -0.049 9.587 -0.057 C11.798 -0.068 14.01 -0.089 16.221 -0.118 C19.418 -0.161 22.615 -0.177 25.812 -0.188 C27.295 -0.214 27.295 -0.214 28.808 -0.241 C35.633 -0.219 35.633 -0.219 38.85 2.077 C43.086 8.509 42.609 15.744 42.586 23.176 C42.602 24.222 42.618 25.268 42.635 26.346 C42.639 33.157 42.315 39.341 37.953 44.93 C35.763 46.636 34.488 46.613 31.729 46.611 C30.811 46.617 29.893 46.623 28.947 46.629 C27.957 46.62 26.966 46.611 25.945 46.602 C24.923 46.602 23.901 46.603 22.847 46.603 C20.682 46.601 18.516 46.591 16.351 46.574 C13.05 46.551 9.75 46.554 6.449 46.561 C4.344 46.555 2.238 46.548 0.133 46.539 C-0.85 46.54 -1.832 46.541 -2.845 46.542 C-8.179 46.487 -12.708 46.105 -17.727 44.238 C-19.25 42.582 -19.25 42.582 -20.102 40.738 C-20.957 38.896 -21.818 37.055 -22.727 35.238 C-23.079 31.225 -23.098 27.203 -23.164 23.176 C-23.233 21.514 -23.233 21.514 -23.303 19.818 C-23.396 12.976 -22.488 8.524 -18.61 2.85 C-13.908 -1.174 -5.895 0.044 0 0 Z " fill="#FFFFFF" transform="translate(236.7265625,58.76171875)"/>
<path d="M0 0 C1.005 -0.001 2.011 -0.002 3.047 -0.003 C5.164 -0.004 7.281 -0.002 9.398 0.002 C12.644 0.008 15.889 0.002 19.135 -0.004 C21.194 -0.003 23.253 -0.002 25.312 0 C26.284 -0.002 27.256 -0.004 28.258 -0.006 C29.159 -0.003 30.06 0 30.989 0.003 C32.178 0.005 32.178 0.005 33.39 0.006 C36.234 0.181 38.014 0.707 40.082 2.695 C43.323 8.44 42.613 16.183 42.582 22.633 C42.586 23.436 42.59 24.239 42.594 25.066 C42.571 38.823 42.571 38.823 38.957 43.07 C38.132 43.751 37.307 44.432 36.457 45.133 C36.127 45.463 35.797 45.793 35.457 46.133 C34.052 46.236 32.641 46.271 31.232 46.278 C29.885 46.288 29.885 46.288 28.51 46.297 C27.531 46.299 26.552 46.3 25.543 46.301 C24.54 46.304 23.537 46.307 22.504 46.311 C20.373 46.316 18.243 46.318 16.113 46.318 C12.867 46.32 9.621 46.338 6.375 46.357 C4.306 46.36 2.237 46.362 0.168 46.363 C-0.799 46.37 -1.766 46.378 -2.762 46.385 C-14.92 46.344 -14.92 46.344 -19.303 42.649 C-23.293 36.312 -23.224 30.341 -23.043 23.008 C-23.046 21.854 -23.048 20.7 -23.051 19.512 C-22.972 12.645 -22.333 7.986 -18.23 2.32 C-13.369 -1.101 -5.705 -0.012 0 0 Z " fill="#FFFFFF" transform="translate(238.54296875,207.8671875)"/>
<path d="M0 0 C1 3 1 3 0.102 6.676 C-1.596 13.734 -1.47 20.967 -1.625 28.188 C-1.663 29.618 -1.702 31.048 -1.742 32.479 C-1.836 35.977 -1.903 39.475 -1.96 42.974 C-1.999 44.97 -2.063 46.965 -2.128 48.959 C-2.155 50.186 -2.183 51.412 -2.211 52.676 C-2.242 53.754 -2.274 54.832 -2.306 55.943 C-2.189 59.073 -2.189 59.073 -0.508 61.793 C1.135 65.288 1.393 67.537 1.432 71.373 C1.462 73.234 1.462 73.234 1.492 75.133 C1.499 76.471 1.506 77.81 1.512 79.148 C1.529 80.53 1.547 81.911 1.566 83.293 C1.613 86.913 1.643 90.533 1.67 94.153 C1.699 97.853 1.746 101.554 1.791 105.254 C1.877 112.502 1.944 119.751 2 127 C2.66 127.33 3.32 127.66 4 128 C4 129.32 4 130.64 4 132 C4.66 132 5.32 132 6 132 C6.931 136.856 7.242 141.587 7.43 146.512 C7.503 148.174 7.578 149.836 7.652 151.498 C7.765 154.087 7.875 156.675 7.974 159.264 C8.577 177.292 8.577 177.292 16.012 193.441 C17 195 17 195 17 197 C17.66 197 18.32 197 19 197 C20.003 198.129 20.952 199.306 21.875 200.5 C25.726 205.072 30.181 208.003 35.23 211.141 C37.843 212.895 39.82 214.75 42 217 C42.907 217.536 43.815 218.072 44.75 218.625 C45.493 219.079 46.235 219.533 47 220 C47 220.66 47 221.32 47 222 C48.052 222.34 48.052 222.34 49.125 222.688 C52.693 224.317 55.065 226.406 58 229 C57.67 228.299 57.34 227.597 57 226.875 C55.214 221.74 55.708 217.872 58 213 C58.66 213 59.32 213 60 213 C60 212.34 60 211.68 60 211 C60.66 210.67 61.32 210.34 62 210 C62.33 209.34 62.66 208.68 63 208 C63.66 208.33 64.32 208.66 65 209 C65.66 208.67 66.32 208.34 67 208 C72.119 207.873 75.921 208.185 80.062 211.312 C83.316 215.826 83.383 219.452 83 225 C81.5 228.438 81.5 228.438 80 231 C82.083 231.027 84.167 231.046 86.25 231.062 C87.99 231.08 87.99 231.08 89.766 231.098 C93.164 231.11 93.164 231.11 97 230 C97.33 221.75 97.66 213.5 98 205 C101.3 205.99 104.6 206.98 108 208 C109.32 208.33 110.64 208.66 112 209 C114.307 212.229 114 213.76 114 218 C119.61 218 125.22 218 131 218 C130.67 218.66 130.34 219.32 130 220 C124.06 219.67 118.12 219.34 112 219 C111.505 214.545 111.505 214.545 111 210 C108.03 209.67 105.06 209.34 102 209 C101.986 210.314 101.972 211.627 101.957 212.98 C101.91 214.716 101.862 216.452 101.812 218.188 C101.804 219.484 101.804 219.484 101.795 220.807 C101.645 225.156 101.442 227.393 98.824 230.988 C92.074 235.796 85.022 235.335 77.062 235.312 C75.331 235.337 75.331 235.337 73.564 235.361 C66.379 235.365 60.865 235.142 55.108 230.462 C52.762 228.835 51.132 228.401 48.332 227.938 C47.438 227.78 46.544 227.623 45.623 227.461 C44.696 227.309 43.768 227.157 42.812 227 C34.455 225.6 26.571 223.931 19 220 C19.66 219.67 20.32 219.34 21 219 C22.636 219.705 24.27 220.416 25.892 221.154 C29.754 222.703 33.807 223.429 37.875 224.25 C38.741 224.436 39.608 224.621 40.5 224.812 C43.735 225.501 43.735 225.501 47 226 C47.33 225.67 47.66 225.34 48 225 C47.062 224.374 46.123 223.747 45.156 223.102 C43.937 222.276 42.719 221.451 41.5 220.625 C40.88 220.212 40.26 219.8 39.621 219.375 C38.045 218.301 36.518 217.155 35 216 C35 215.34 35 214.68 35 214 C34.01 214 33.02 214 32 214 C32 213.34 32 212.68 32 212 C31.257 211.732 30.515 211.464 29.75 211.188 C27.109 210.047 25.144 208.906 23 207 C23 206.34 23 205.68 23 205 C22.34 205 21.68 205 21 205 C21 204.34 21 203.68 21 203 C20.34 203 19.68 203 19 203 C17.527 201.391 17.527 201.391 15.938 199.25 C15.41 198.554 14.883 197.858 14.34 197.141 C13.031 195.049 12.44 193.41 12 191 C11.34 191 10.68 191 10 191 C4.591 178.461 4.656 165.066 4.619 151.637 C4.584 144.138 4.491 137.589 0.935 130.818 C-1.557 125.972 -1.129 120.437 -1.062 115.125 C-1.058 114.437 -1.053 113.748 -1.049 113.039 C-1.037 111.359 -1.019 109.68 -1 108 C-2.104 108.491 -2.104 108.491 -3.23 108.992 C-5.863 109.95 -7.553 110.219 -10.312 110.125 C-11.529 110.084 -12.746 110.043 -14 110 C-14 109.67 -14 109.34 -14 109 C-13.385 108.867 -12.77 108.734 -12.137 108.598 C-10.924 108.333 -10.924 108.333 -9.688 108.062 C-8.487 107.801 -8.487 107.801 -7.262 107.535 C-4.855 107.001 -4.855 107.001 -2 106 C-1.67 99.73 -1.34 93.46 -1 87 C-1.99 86.67 -2.98 86.34 -4 86 C-3.01 85.505 -3.01 85.505 -2 85 C-2 83.68 -2 82.36 -2 81 C-2.99 80.34 -3.98 79.68 -5 79 C-3.68 79 -2.36 79 -1 79 C-1.088 77.124 -1.196 75.249 -1.312 73.375 C-1.4 71.809 -1.4 71.809 -1.488 70.211 C-1.798 66.982 -1.798 66.982 -3.507 64.484 C-5.588 59.628 -5.43 55.276 -5.398 50.047 C-5.403 48.464 -5.403 48.464 -5.407 46.849 C-5.409 44.62 -5.404 42.391 -5.391 40.162 C-5.375 36.775 -5.391 33.39 -5.41 30.004 C-5.408 27.831 -5.404 25.658 -5.398 23.484 C-5.405 22.483 -5.411 21.482 -5.417 20.45 C-5.349 13.575 -5.122 5.122 0 0 Z " fill="#010101" transform="translate(101,64)"/>
<path d="M0 0 C-0.143 1.563 -0.289 3.125 -0.438 4.688 C-0.519 5.558 -0.6 6.428 -0.684 7.324 C-1 10 -1 10 -1.5 12.344 C-2.154 15.816 -2.357 19.291 -2.562 22.812 C-2.606 23.505 -2.649 24.198 -2.693 24.912 C-2.799 26.608 -2.9 28.304 -3 30 C-4.32 30 -5.64 30 -7 30 C-7.133 30.999 -7.266 31.998 -7.402 33.027 C-7.579 34.318 -7.756 35.608 -7.938 36.938 C-8.199 38.869 -8.199 38.869 -8.465 40.84 C-9 44 -9 44 -10 45 C-12.453 45.154 -14.858 45.232 -17.312 45.25 C-17.99 45.271 -18.667 45.291 -19.365 45.312 C-22.483 45.337 -24.662 45.186 -27.418 43.672 C-32.053 38.773 -30.158 29.372 -30 23 C-29.741 15.663 -29.381 8.331 -29 1 C-25.667 0.83 -22.333 0.665 -19 0.5 C-18.065 0.452 -17.131 0.405 -16.168 0.355 C-10.77 0.091 -5.404 -0.051 0 0 Z " fill="#FFFFFF" transform="translate(208,36)"/>
<path d="M0 0 C4.109 4.825 4.578 8.365 4.988 14.453 C5.113 15.184 5.238 15.915 5.367 16.668 C6.027 16.998 6.687 17.328 7.367 17.668 C7.586 20.371 7.696 22.108 6.305 24.48 C3.374 26.276 0.72 25.858 -2.633 25.668 C-3.293 23.688 -3.953 21.708 -4.633 19.668 C-3.148 18.678 -3.148 18.678 -1.633 17.668 C-2.707 14.753 -3.411 12.89 -5.633 10.668 C-7.786 10.342 -7.786 10.342 -10.294 10.362 C-11.262 10.346 -12.23 10.33 -13.228 10.313 C-14.277 10.308 -15.326 10.302 -16.406 10.297 C-17.482 10.288 -18.557 10.279 -19.665 10.27 C-21.943 10.255 -24.221 10.246 -26.499 10.242 C-29.987 10.231 -33.473 10.181 -36.961 10.131 C-39.172 10.121 -41.383 10.114 -43.594 10.109 C-44.639 10.09 -45.684 10.07 -46.76 10.05 C-52.609 9.933 -52.609 9.933 -57.198 13.203 C-57.908 14.423 -57.908 14.423 -58.633 15.668 C-59.293 15.668 -59.953 15.668 -60.633 15.668 C-60.633 16.328 -60.633 16.988 -60.633 17.668 C-59.313 18.328 -57.993 18.988 -56.633 19.668 C-57.508 24.543 -57.508 24.543 -58.633 25.668 C-62.07 25.918 -62.07 25.918 -65.633 25.668 C-67.862 22.324 -67.985 21.538 -67.633 17.668 C-67.044 15.314 -66.365 12.981 -65.633 10.668 C-65.415 9.895 -65.197 9.121 -64.973 8.324 C-64.737 7.53 -64.501 6.736 -64.258 5.918 C-64.044 5.181 -63.83 4.443 -63.609 3.684 C-62.308 0.997 -61.239 0.166 -58.633 -1.332 C-55.864 -1.658 -53.307 -1.82 -50.535 -1.844 C-49.351 -1.871 -49.351 -1.871 -48.143 -1.898 C-45.619 -1.952 -43.095 -1.986 -40.57 -2.02 C-38.899 -2.053 -37.228 -2.087 -35.557 -2.123 C-3.403 -2.776 -3.403 -2.776 0 0 Z " fill="#0E0E0E" transform="translate(194.6328125,111.33203125)"/>
<path d="M0 0 C0 3.664 -1.11 4.898 -3 8 C-8.47 20.406 -8.721 32.437 -8.542 45.812 C-8.5 49.154 -8.501 52.494 -8.508 55.836 C-8.497 57.977 -8.484 60.117 -8.469 62.258 C-8.469 63.248 -8.468 64.239 -8.468 65.26 C-8.375 70.671 -7.806 74.234 -5 79 C-4.63 83.05 -4.864 86.92 -5 91 C-11.93 90.505 -11.93 90.505 -19 90 C-19.05 82.639 -19.086 75.278 -19.11 67.917 C-19.12 65.421 -19.133 62.925 -19.151 60.429 C-19.248 46.133 -19.049 32.162 -17 18 C-16.832 16.754 -16.664 15.509 -16.491 14.225 C-15.458 6.598 -15.458 6.598 -13.609 4.184 C-11.204 2.415 -8.942 3 -6 3 C-2.699 1.601 -2.699 1.601 0 0 Z " fill="#FFFFFF" transform="translate(105,52)"/>
<path d="M0 0 C2.605 1.518 3.779 2.381 4.802 5.249 C5.895 12.433 6.48 19.551 6.75 26.812 C6.805 27.905 6.861 28.997 6.918 30.123 C7.164 36.256 7.376 41.555 3.75 46.812 C1.149 48.578 -0.873 48.875 -4 49 C-6.879 47.626 -8.75 46.25 -11 44 C-11.423 41.36 -11.73 38.799 -11.957 36.141 C-12.028 35.359 -12.099 34.577 -12.172 33.771 C-12.318 32.114 -12.46 30.456 -12.597 28.798 C-12.811 26.272 -13.052 23.75 -13.295 21.227 C-13.434 19.615 -13.571 18.003 -13.707 16.391 C-13.782 15.64 -13.857 14.89 -13.934 14.117 C-14.305 9.201 -13.614 6.171 -11 2 C-7.572 -1.795 -4.759 -1.19 0 0 Z " fill="#FFFFFF" transform="translate(60,159)"/>
<path d="M0 0 C-3.96 1.65 -7.92 3.3 -12 5 C-11.072 5.351 -10.144 5.701 -9.188 6.062 C-5.091 8.552 -4.363 10.455 -3 15 C-2.812 18.937 -2.812 18.937 -3 22 C-3.66 22 -4.32 22 -5 22 C-5.093 22.866 -5.093 22.866 -5.188 23.75 C-6.327 26.906 -8.336 28.034 -11 30 C-11.454 30.578 -11.907 31.155 -12.375 31.75 C-14.989 33.761 -17.804 33.058 -21 33 C-21.66 33.66 -22.32 34.32 -23 35 C-23.082 34.402 -23.165 33.804 -23.25 33.188 C-24.205 30.401 -25.645 29.671 -28 28 C-28 27.34 -28 26.68 -28 26 C-35.92 26 -43.84 26 -52 26 C-52 25.01 -52 24.02 -52 23 C-51.67 23.33 -51.34 23.66 -51 24 C-49.511 24.087 -48.019 24.107 -46.527 24.098 C-45.179 24.093 -45.179 24.093 -43.803 24.088 C-42.857 24.08 -41.912 24.071 -40.938 24.062 C-39.513 24.056 -39.513 24.056 -38.061 24.049 C-35.707 24.037 -33.353 24.019 -31 24 C-31 20.37 -31 16.74 -31 13 C-31.817 13.164 -32.635 13.327 -33.477 13.496 C-37.488 14.07 -41.332 14.11 -45.375 14.062 C-46.111 14.058 -46.847 14.053 -47.605 14.049 C-49.404 14.037 -51.202 14.019 -53 14 C-53 13.67 -53 13.34 -53 13 C-48.05 12.67 -43.1 12.34 -38 12 C-38 9.36 -38 6.72 -38 4 C-37.325 3.991 -36.651 3.981 -35.956 3.972 C-32.845 3.917 -29.735 3.834 -26.625 3.75 C-25.034 3.729 -25.034 3.729 -23.41 3.707 C-16.946 3.509 -11.965 2.607 -6.134 -0.249 C-4 -1 -4 -1 0 0 Z " fill="#D4D4D4" transform="translate(113,23)"/>
<path d="M0 0 C1.98 0.66 3.96 1.32 6 2 C5.01 2.495 5.01 2.495 4 3 C4.185 3.929 4.371 4.859 4.562 5.817 C6.68 16.642 8.303 27.496 9.688 38.438 C9.798 39.304 9.909 40.171 10.024 41.064 C11.836 55.434 12.693 69.505 12 84 C12.757 83.984 13.514 83.968 14.294 83.952 C15.286 83.939 16.279 83.927 17.301 83.914 C18.285 83.898 19.269 83.882 20.282 83.866 C23.588 84.029 25.53 84.786 28 87 C28 87.66 28 88.32 28 89 C28.66 89 29.32 89 30 89 C32.402 93.803 33.704 96.661 32 102 C29.368 106.873 26.648 109.254 22 112 C22.495 112.99 22.495 112.99 23 114 C4.959 111.294 4.959 111.294 -2 107 C0 106 0 106 2.164 106.559 C2.976 106.849 3.788 107.139 4.625 107.438 C5.442 107.725 6.26 108.012 7.102 108.309 C7.728 108.537 8.355 108.765 9 109 C5.685 104.304 1.637 101.275 -3 98 C-2.01 97.505 -2.01 97.505 -1 97 C0.32 97.99 1.64 98.98 3 100 C3.11 99.408 3.219 98.817 3.332 98.207 C5.047 89.662 5.047 89.662 8 86 C8.99 86 9.98 86 11 86 C10.882 70.443 9.482 55.171 7.562 39.75 C7.453 38.869 7.344 37.988 7.231 37.081 C6.085 27.908 4.875 18.757 3.347 9.638 C3.008 7.057 2.937 4.599 3 2 C2.01 1.67 1.02 1.34 0 1 C0 0.67 0 0.34 0 0 Z " fill="#707070" transform="translate(81,170)"/>
<path d="M0 0 C0 0.66 0 1.32 0 2 C-1.461 3.289 -1.461 3.289 -3.375 4.625 C-4.001 5.071 -4.628 5.517 -5.273 5.977 C-7 7 -7 7 -9 7 C-9 7.66 -9 8.32 -9 9 C-10.461 10.289 -10.461 10.289 -12.375 11.625 C-13.001 12.071 -13.628 12.517 -14.273 12.977 C-16 14 -16 14 -18 14 C-18 14.66 -18 15.32 -18 16 C-18.99 16 -19.98 16 -21 16 C-21 16.66 -21 17.32 -21 18 C-24.462 21 -24.462 21 -27 21 C-27 21.66 -27 22.32 -27 23 C-27.99 23 -28.98 23 -30 23 C-30 23.66 -30 24.32 -30 25 C-31.461 26.289 -31.461 26.289 -33.375 27.625 C-34.001 28.071 -34.628 28.517 -35.273 28.977 C-37 30 -37 30 -39 30 C-39 30.66 -39 31.32 -39 32 C-39.66 32 -40.32 32 -41 32 C-41 32.66 -41 33.32 -41 34 C-43 35.625 -43 35.625 -45 37 C-44.977 36.359 -44.954 35.719 -44.93 35.059 C-44.817 29.666 -44.73 24.953 -47 20 C-49.984 18.616 -49.984 18.616 -53 18 C-53.33 17.34 -53.66 16.68 -54 16 C-52.732 15.528 -52.732 15.528 -51.438 15.047 C-49.736 14.405 -49.736 14.405 -48 13.75 C-46.886 13.332 -45.773 12.915 -44.625 12.484 C-42.054 11.432 -39.77 10.364 -37.344 9.062 C-31.983 6.333 -26.279 4.843 -20.5 3.25 C-19.411 2.934 -18.321 2.618 -17.199 2.293 C-11.277 0.639 -6.149 -0.388 0 0 Z " fill="#FFFFFF" transform="translate(154,11)"/>
<path d="M0 0 C6.95 -0.201 12.291 0.005 17.672 4.848 C19.315 8.226 19.43 11.427 19.797 15.16 C20.292 15.655 20.292 15.655 20.797 16.16 C20.938 18.831 20.839 21.484 20.797 24.16 C15.381 25.391 15.381 25.391 12.422 24.223 C11.886 23.872 11.349 23.521 10.797 23.16 C10.797 20.85 10.797 18.54 10.797 16.16 C12.117 16.16 13.437 16.16 14.797 16.16 C14.137 14.84 13.477 13.52 12.797 12.16 C8.419 12.086 4.041 12.032 -0.338 11.995 C-1.828 11.98 -3.318 11.96 -4.808 11.934 C-6.947 11.898 -9.087 11.88 -11.227 11.867 C-12.515 11.851 -13.803 11.836 -15.13 11.82 C-16.144 11.932 -17.158 12.044 -18.203 12.16 C-19.193 13.645 -19.193 13.645 -20.203 15.16 C-18.883 15.49 -17.563 15.82 -16.203 16.16 C-15.078 21.91 -15.078 21.91 -16.203 24.16 C-19.016 25.035 -19.016 25.035 -22.203 25.16 C-24.578 23.535 -24.578 23.535 -26.203 21.16 C-26.453 18.41 -26.453 18.41 -26.203 16.16 C-25.543 16.16 -24.883 16.16 -24.203 16.16 C-24.1 15.108 -23.997 14.056 -23.891 12.973 C-23.03 8.203 -21.949 5.394 -17.941 2.562 C-12.43 -0.26 -6.076 0.304 0 0 Z " fill="#0E0E0E" transform="translate(139.203125,161.83984375)"/>
<path d="M0 0 C2.74 4.11 2.386 7.23 2 12 C1.628 11.575 1.256 11.151 0.872 10.713 C-3.617 6.189 -7.019 5.297 -13.314 5.218 C-14.359 5.236 -15.404 5.254 -16.48 5.273 C-17.571 5.272 -18.661 5.271 -19.785 5.27 C-22.08 5.275 -24.376 5.294 -26.671 5.328 C-30.187 5.375 -33.7 5.369 -37.217 5.355 C-39.451 5.367 -41.684 5.381 -43.918 5.398 C-44.969 5.397 -46.02 5.395 -47.103 5.393 C-52.773 5.373 -52.773 5.373 -57.568 8.038 C-58.04 8.685 -58.513 9.333 -59 10 C-59.66 10 -60.32 10 -61 10 C-61.33 10.99 -61.66 11.98 -62 13 C-62.054 11.584 -62.093 10.167 -62.125 8.75 C-62.148 7.961 -62.171 7.172 -62.195 6.359 C-61.983 3.793 -61.287 2.208 -60 0 C-59.01 0 -58.02 0 -57 0 C-57 -0.66 -57 -1.32 -57 -2 C-52.217 -2.145 -47.434 -2.287 -42.651 -2.427 C-41.028 -2.475 -39.406 -2.524 -37.783 -2.573 C-5.33 -3.553 -5.33 -3.553 0 0 Z " fill="#FFFFFF" transform="translate(194,114)"/>
<path d="M0 0 C0.33 0.99 0.66 1.98 1 3 C1.66 3.33 2.32 3.66 3 4 C3.772 15.721 3.772 15.721 1 20.312 C-2.866 22.487 -5.665 22.807 -10 22 C-13.848 20.327 -15.476 18.864 -17 15 C-17.195 12.422 -17.195 12.422 -17.125 9.75 C-17.098 8.412 -17.098 8.412 -17.07 7.047 C-17.047 6.371 -17.024 5.696 -17 5 C-16.34 5 -15.68 5 -15 5 C-14.794 4.381 -14.588 3.762 -14.375 3.125 C-13 1 -13 1 -10.312 -0.312 C-6.559 -1.092 -3.737 -0.747 0 0 Z " fill="#BABABA" transform="translate(97,147)"/>
<path d="M0 0 C0.33 0 0.66 0 1 0 C1.356 8.732 -0.018 17.361 -1.514 25.949 C-2.291 31.433 -2.236 36.968 -2.316 42.496 C-2.337 43.685 -2.358 44.873 -2.379 46.098 C-2.445 49.878 -2.504 53.658 -2.562 57.438 C-2.606 60.007 -2.649 62.577 -2.693 65.146 C-2.8 71.431 -2.902 77.715 -3 84 C-1.36 83.691 -1.36 83.691 0.312 83.375 C4 83 4 83 7 85 C6.12 85.098 5.239 85.196 4.332 85.297 C3.171 85.446 2.009 85.596 0.812 85.75 C-0.91 85.959 -0.91 85.959 -2.668 86.172 C-6.353 87.088 -8.241 88.443 -11 91 C-10.673 90.515 -10.347 90.029 -10.01 89.529 C-8.561 85.9 -8.774 82.379 -8.84 78.535 C-8.845 77.706 -8.85 76.877 -8.856 76.023 C-8.873 73.369 -8.904 70.716 -8.938 68.062 C-9.262 37.525 -9.262 37.525 -7 33 C-6.01 33 -5.02 33 -4 33 C-3.95 32.391 -3.9 31.782 -3.848 31.155 C-1.985 8.828 -1.985 8.828 0 0 Z " fill="#010101" transform="translate(89,58)"/>
<path d="M0 0 C8.073 -0.609 8.073 -0.609 11.188 1.438 C12.486 5.531 11.51 9.05 10 13 C7.938 15.5 7.938 15.5 6 17 C5.67 17.33 5.34 17.66 5 18 C5.66 18.33 6.32 18.66 7 19 C6 20 6 20 2.25 20.25 C-1.613 20.195 -3.949 19.513 -7 17 C-9.363 13.962 -9.406 10.637 -9.336 6.906 C-8.827 4.018 -7.282 2.712 -5 1 C-5 1.99 -5 2.98 -5 4 C-4.34 3.01 -3.68 2.02 -3 1 C-2.34 2.32 -1.68 3.64 -1 5 C-0.67 3.35 -0.34 1.7 0 0 Z " fill="#666666" transform="translate(169,276)"/>
<path d="M0 0 C0.66 0.33 1.32 0.66 2 1 C1.01 1.33 0.02 1.66 -1 2 C-0.01 2 0.98 2 2 2 C2.33 1.67 2.66 1.34 3 1 C5.75 0.625 5.75 0.625 9 1 C11.903 3.258 13.592 5.063 15.062 8.438 C14.967 12.348 13.57 14.109 11 17 C7.25 18.375 7.25 18.375 4 19 C7.123 18.514 9.996 18.001 13 17 C13 17.66 13 18.32 13 19 C9.583 21.103 6.979 21.406 3 21 C0.125 19.625 0.125 19.625 -2 18 C-2 17.34 -2 16.68 -2 16 C-2.66 16 -3.32 16 -4 16 C-5.085 10.117 -5.514 6.206 -2 1 C-1.34 0.67 -0.68 0.34 0 0 Z " fill="#ACACAC" transform="translate(155,15)"/>
<path d="M0 0 C0 3.63 0 7.26 0 11 C-3.418 12.709 -7.234 12.185 -11 12.188 C-11.833 12.2 -12.665 12.212 -13.523 12.225 C-14.718 12.228 -14.718 12.228 -15.938 12.23 C-16.668 12.235 -17.399 12.239 -18.152 12.243 C-20 12 -20 12 -22 10 C-22.195 7.836 -22.195 7.836 -22.125 5.375 C-22.107 4.558 -22.089 3.74 -22.07 2.898 C-22.047 2.272 -22.024 1.645 -22 1 C-19.458 0.831 -16.917 0.665 -14.375 0.5 C-13.306 0.428 -13.306 0.428 -12.215 0.355 C-8.135 0.093 -4.091 -0.052 0 0 Z " fill="#FFFFFF" transform="translate(82,36)"/>
<path d="M0 0 C0.855 -0.014 1.709 -0.028 2.59 -0.043 C5.202 0.2 6.818 0.87 9.062 2.188 C9.062 3.838 9.062 5.488 9.062 7.188 C8.073 6.857 7.082 6.528 6.062 6.188 C6.062 5.528 6.062 4.868 6.062 4.188 C1.268 3.996 -2.519 4.235 -6.938 6.188 C-7.927 7.673 -7.927 7.673 -8.938 9.188 C-9.597 9.188 -10.257 9.188 -10.938 9.188 C-10.795 10.771 -10.649 12.354 -10.5 13.938 C-10.419 14.819 -10.338 15.701 -10.254 16.609 C-9.972 18.905 -9.68 20.998 -8.938 23.188 C-4.941 25.609 -0.486 25.82 4.062 25.188 C6.988 23.837 6.988 23.837 9.062 22.188 C9.062 23.838 9.062 25.488 9.062 27.188 C4.51 29.852 1.332 30.752 -3.938 30.188 C-7.375 28.688 -7.375 28.688 -9.938 27.188 C-9.938 26.528 -9.938 25.868 -9.938 25.188 C-10.597 25.188 -11.257 25.188 -11.938 25.188 C-14.911 22.111 -15.442 19.653 -15.562 15.438 C-15.441 9.579 -13.818 6.721 -9.762 2.613 C-6.648 0.18 -3.817 0.029 0 0 Z " fill="#FFFFFF" transform="translate(90.9375,142.8125)"/>
<path d="M0 0 C-1.915 0.816 -3.832 1.628 -5.75 2.438 C-6.817 2.89 -7.885 3.342 -8.984 3.809 C-12.238 5.094 -15.315 5.855 -18.727 6.578 C-19.683 6.8 -20.64 7.022 -21.625 7.25 C-23.067 7.567 -23.067 7.567 -24.539 7.891 C-27.183 8.792 -27.183 8.792 -28.324 11.32 C-28.97 13.882 -29.237 15.992 -29.188 18.625 C-29.181 19.38 -29.175 20.136 -29.168 20.914 C-29.068 23.194 -29.068 23.194 -28 26 C-35.92 26 -43.84 26 -52 26 C-52 25.01 -52 24.02 -52 23 C-51.67 23.33 -51.34 23.66 -51 24 C-49.511 24.087 -48.019 24.107 -46.527 24.098 C-45.179 24.093 -45.179 24.093 -43.803 24.088 C-42.857 24.08 -41.912 24.071 -40.938 24.062 C-39.513 24.056 -39.513 24.056 -38.061 24.049 C-35.707 24.037 -33.353 24.019 -31 24 C-31 20.37 -31 16.74 -31 13 C-31.817 13.164 -32.635 13.327 -33.477 13.496 C-37.488 14.07 -41.332 14.11 -45.375 14.062 C-46.111 14.058 -46.847 14.053 -47.605 14.049 C-49.404 14.037 -51.202 14.019 -53 14 C-53 13.67 -53 13.34 -53 13 C-48.05 12.67 -43.1 12.34 -38 12 C-38 9.36 -38 6.72 -38 4 C-37.325 3.991 -36.651 3.981 -35.956 3.972 C-32.845 3.917 -29.735 3.834 -26.625 3.75 C-25.034 3.729 -25.034 3.729 -23.41 3.707 C-16.946 3.509 -11.965 2.607 -6.134 -0.249 C-3.646 -1.125 -2.446 -0.879 0 0 Z " fill="#000000" transform="translate(113,23)"/>
<path d="M0 0 C1.145 -0.003 2.291 -0.005 3.471 -0.008 C5.266 0.004 5.266 0.004 7.098 0.016 C8.291 0.008 9.484 0 10.713 -0.008 C11.86 -0.005 13.006 -0.003 14.188 0 C15.761 0.003 15.761 0.003 17.367 0.007 C20.237 0.273 21.872 0.51 24.16 2.266 C24.655 4.741 24.655 4.741 25.16 7.266 C13.28 6.936 1.4 6.606 -10.84 6.266 C-8.012 0.609 -5.995 0.013 0 0 Z " fill="#FFFFFF" transform="translate(129.83984375,164.734375)"/>
<path d="M0 0 C9.56 14.341 3.426 42.848 2 59 C7.94 58.505 7.94 58.505 14 58 C13.67 58.66 13.34 59.32 13 60 C9.358 60.602 5.681 60.746 2 61 C0.52 69.65 -0.816 78.314 -2.062 87 C-2.236 88.181 -2.409 89.362 -2.588 90.578 C-3.66 98.04 -4.469 105.48 -5 113 C-4.34 113.33 -3.68 113.66 -3 114 C-4.32 115.32 -5.64 116.64 -7 118 C-7.66 117.67 -8.32 117.34 -9 117 C-8.01 115.02 -7.02 113.04 -6 111 C-6.66 111 -7.32 111 -8 111 C-8.33 110.01 -8.66 109.02 -9 108 C-8.34 108 -7.68 108 -7 108 C-5.68 98.43 -4.36 88.86 -3 79 C-3.66 79 -4.32 79 -5 79 C-5.33 79.99 -5.66 80.98 -6 82 C-6.33 81.34 -6.66 80.68 -7 80 C-6.505 79.01 -6.505 79.01 -6 78 C-5.01 78 -4.02 78 -3 78 C-2.515 74.938 -2.037 71.876 -1.562 68.812 C-1.428 67.968 -1.293 67.123 -1.154 66.252 C0.722 54.033 1.162 41.912 1.125 29.562 C1.129 28.26 1.133 26.957 1.137 25.615 C1.128 17.026 0.729 8.557 0 0 Z " fill="#000000" transform="translate(211,123)"/>
<path d="M0 0 C2.375 0.312 2.375 0.312 5 1 C5.66 1.99 6.32 2.98 7 4 C7.99 2.68 8.98 1.36 10 0 C12.438 0.375 12.438 0.375 15 1 C15.33 1.66 15.66 2.32 16 3 C13.69 3 11.38 3 9 3 C10.454 3.464 10.454 3.464 11.938 3.938 C15 5 15 5 16 6 C16.188 8.438 16.188 8.438 16 11 C15.34 11.66 14.68 12.32 14 13 C10.875 12.625 10.875 12.625 8 12 C7.67 11.01 7.34 10.02 7 9 C6.423 9.681 5.845 10.361 5.25 11.062 C3 13 3 13 0.812 12.875 C-1 12 -1 12 -2 10 C-2.353 3.529 -2.353 3.529 0 0 Z " fill="#000000" transform="translate(274,292)"/>
<path d="M0 0 C0.99 0 1.98 0 3 0 C2.928 0.909 2.856 1.818 2.781 2.754 C1.282 21.355 1.282 21.355 4.441 39.609 C5 42 5 42 4 45 C4 44.34 4 43.68 4 43 C3.34 43 2.68 43 2 43 C1.351 41.418 0.706 39.834 0.062 38.25 C-0.297 37.368 -0.657 36.487 -1.027 35.578 C-5.013 25.015 -3.274 12.822 -1 2 C-0.67 1.34 -0.34 0.68 0 0 Z " fill="#FFFFFF" transform="translate(202,67)"/>
<path d="M0 0 C0.268 0.639 0.536 1.279 0.812 1.938 C1.887 4.331 1.887 4.331 5 5 C5.99 4.67 6.98 4.34 8 4 C8.2 7.603 7.998 9.951 6 13 C2.331 15.446 -0.734 15.721 -5 15 C-7.5 13.125 -7.5 13.125 -9 11 C-9 10.34 -9 9.68 -9 9 C-7.68 8.34 -6.36 7.68 -5 7 C-5.33 5.35 -5.66 3.7 -6 2 C-4.02 2 -2.04 2 0 2 C0 1.34 0 0.68 0 0 Z " fill="#FFFFFF" transform="translate(97,35)"/>
<path d="M0 0 C2.327 3.491 2.503 4.892 2 9 C0.045 11.752 -1.141 12.802 -4.438 13.562 C-8.201 12.736 -9.71 11.031 -12 8 C-11.915 4.429 -11.004 3.006 -9 0 C-5.465 -1.178 -3.58 -0.914 0 0 Z " fill="#FFFFFF" transform="translate(100,292)"/>
<path d="M0 0 C0.66 0 1.32 0 2 0 C2.025 6.942 2.043 13.883 2.055 20.825 C2.06 23.188 2.067 25.551 2.075 27.914 C2.088 31.305 2.093 34.695 2.098 38.086 C2.103 39.147 2.108 40.209 2.113 41.303 C2.113 42.283 2.113 43.264 2.114 44.275 C2.116 45.141 2.118 46.007 2.12 46.899 C2 49 2 49 1 51 C0.34 51 -0.32 51 -1 51 C-1.705 38.356 -2.194 25.784 -1.625 13.125 C-1.582 12.152 -1.539 11.178 -1.494 10.176 C-1.141 3.424 -1.141 3.424 0 0 Z " fill="#FFFFFF" transform="translate(83,92)"/>
<path d="M0 0 C4.576 3.153 4.576 3.153 6 6 C6.04 8 6.043 10 6 12 C5.67 12 5.34 12 5 12 C5 10.35 5 8.7 5 7 C4.34 7 3.68 7 3 7 C2.67 7.99 2.34 8.98 2 10 C1.278 9.154 0.556 8.309 -0.188 7.438 C-2.736 4.651 -2.736 4.651 -5.812 5.188 C-6.534 5.456 -7.256 5.724 -8 6 C-8 7.98 -8 9.96 -8 12 C-9.32 12 -10.64 12 -12 12 C-11.67 13.32 -11.34 14.64 -11 16 C-11.66 15.67 -12.32 15.34 -13 15 C-14.476 8.189 -14.476 8.189 -12.875 4.188 C-8.945 -0.398 -5.887 -1.84 0 0 Z " fill="#3C3C3C" transform="translate(100,32)"/>
<path d="M0 0 C0 0.99 0 1.98 0 3 C0.99 2.01 1.98 1.02 3 0 C4.149 3.553 4.087 4.8 2.562 8.312 C1.789 9.643 1.789 9.643 1 11 C2.32 11.66 3.64 12.32 5 13 C5 13.66 5 14.32 5 15 C5.577 14.649 6.155 14.299 6.75 13.938 C9.358 12.851 10.394 13.069 13 14 C12.01 15.485 12.01 15.485 11 17 C11.66 17.33 12.32 17.66 13 18 C12 19 12 19 8.25 19.25 C4.387 19.195 2.051 18.513 -1 16 C-3.38 12.94 -3.346 9.653 -3.27 5.906 C-2.902 3.309 -1.833 1.833 0 0 Z " fill="#D2D2D2" transform="translate(163,277)"/>
<path d="M0 0 C0.66 0 1.32 0 2 0 C2.196 5.976 1.679 11.281 0.512 17.137 C-0.309 21.728 -0.658 26.352 -1 31 C-1.33 30.34 -1.66 29.68 -2 29 C-2.66 29 -3.32 29 -4 29 C-4.118 25.854 -4.188 22.71 -4.25 19.562 C-4.284 18.684 -4.317 17.806 -4.352 16.9 C-4.448 10.395 -3.097 5.711 0 0 Z " fill="#FFFFFF" transform="translate(206,202)"/>
<path d="M0 0 C2.468 1.152 4.048 2.048 6 4 C6.512 8.607 5.836 11.324 3 15 C-0.501 16.167 -3.327 16.134 -7 16 C-7.66 15.67 -8.32 15.34 -9 15 C-9 14.34 -9 13.68 -9 13 C-9.66 13 -10.32 13 -11 13 C-12.394 10.211 -12.257 8.079 -12 5 C-11.01 4.34 -10.02 3.68 -9 3 C-8.069 5.606 -7.851 6.642 -8.938 9.25 C-9.288 9.827 -9.639 10.405 -10 11 C-8.68 11 -7.36 11 -6 11 C-5.01 12.485 -5.01 12.485 -4 14 C-2.02 13.67 -0.04 13.34 2 13 C1.938 11.855 1.938 11.855 1.875 10.688 C2 8 2 8 4 5 C2.68 4.34 1.36 3.68 0 3 C0 2.01 0 1.02 0 0 Z " fill="#FFFFFF" transform="translate(102,260)"/>
<path d="M0 0 C1.65 0 3.3 0 5 0 C7.091 3.397 7.421 6.043 7 10 C5.75 11.938 5.75 11.938 4 13 C1.026 12.73 0.146 12.146 -2 10 C-2.344 6.048 -2.089 3.395 0 0 Z " fill="#000000" transform="translate(254,292)"/>
<path d="M0 0 C2.625 -0.188 2.625 -0.188 5 0 C6.984 2.917 6.988 4.124 6.625 7.75 C6.419 8.822 6.212 9.895 6 11 C4.35 11.66 2.7 12.32 1 13 C-0.5 11.938 -0.5 11.938 -2 10 C-2.39 5.633 -2.463 3.695 0 0 Z " fill="#000000" transform="translate(264,292)"/>
<path d="M0 0 C2.818 2.128 4.413 3.645 5.812 6.875 C6.081 9.923 6.059 12.943 6 16 C4.02 16.99 4.02 16.99 2 18 C2.023 17.241 2.046 16.481 2.07 15.699 C2.088 14.705 2.106 13.711 2.125 12.688 C2.148 11.701 2.171 10.715 2.195 9.699 C2.207 6.776 2.207 6.776 0 4 C-2.357 3.417 -2.357 3.417 -5 3.312 C-5.887 3.247 -6.774 3.181 -7.688 3.113 C-9.124 3.043 -10.562 3 -12 3 C-12 2.01 -12 1.02 -12 0 C-8.268 -1.866 -3.957 -0.915 0 0 Z " fill="#3B3B3B" transform="translate(178,273)"/>
<path d="M0 0 C2.562 2.188 2.562 2.188 5 5 C4.812 7.812 4.812 7.812 4 10 C1.312 10.75 1.312 10.75 -2 11 C-4.875 9.062 -4.875 9.062 -7 7 C-6.312 4.625 -6.312 4.625 -5 2 C-2.375 0.688 -2.375 0.688 0 0 Z " fill="#FFFFFF" transform="translate(225,295)"/>
<path d="M0 0 C2.875 -0.125 2.875 -0.125 6 0 C8 2 8 2 8 5 C7.01 4.67 6.02 4.34 5 4 C5 3.34 5 2.68 5 2 C3.68 2 2.36 2 1 2 C1 2.99 1 3.98 1 5 C3.31 5.66 5.62 6.32 8 7 C8 8.98 8 10.96 8 13 C1.375 14.25 1.375 14.25 -2 12 C-1.67 11.01 -1.34 10.02 -1 9 C-0.34 9.66 0.32 10.32 1 11 C3.571 11.648 3.571 11.648 6 12 C5.67 11.01 5.34 10.02 5 9 C1.497 7.284 1.497 7.284 -2 6 C-1.494 3.831 -1 2 0 0 Z " fill="#000000" transform="translate(238,291)"/>
<path d="M0 0 C0.33 0.66 0.66 1.32 1 2 C1.66 2 2.32 2 3 2 C3 2.66 3 3.32 3 4 C3.66 4.33 4.32 4.66 5 5 C4.67 6.65 4.34 8.3 4 10 C1.69 10.33 -0.62 10.66 -3 11 C-3 10.01 -3 9.02 -3 8 C-4.32 7.67 -5.64 7.34 -7 7 C-6.34 7 -5.68 7 -5 7 C-5 5.35 -5 3.7 -5 2 C-3.35 1.34 -1.7 0.68 0 0 Z " fill="#FFFFFF" transform="translate(221,7)"/>
<path d="M0 0 C0.99 1.485 0.99 1.485 2 3 C2.66 2.01 3.32 1.02 4 0 C6.981 5.589 6.779 12.063 5.188 18.062 C4 20 4 20 1 21 C-0.256 16.479 -0.256 16.479 1 14.125 C2.512 10.913 1.66 8.419 1 5 C0.814 4.031 0.629 3.061 0.438 2.062 C0.221 1.042 0.221 1.042 0 0 Z " fill="#464646" transform="translate(233,3)"/>
<path d="M0 0 C1.65 1.32 3.3 2.64 5 4 C3.98 7.773 3.341 8.802 -0.125 10.812 C-1.074 11.204 -2.022 11.596 -3 12 C-3.33 11.01 -3.66 10.02 -4 9 C-4.66 8.67 -5.32 8.34 -6 8 C-5.812 5.125 -5.812 5.125 -5 2 C-2.438 0.625 -2.438 0.625 0 0 Z " fill="#FFFFFF" transform="translate(92,152)"/>
<path d="M0 0 C2.062 2.188 2.062 2.188 4 5 C3.75 7.812 3.75 7.812 3 10 C1.02 10.33 -0.96 10.66 -3 11 C-3.33 10.34 -3.66 9.68 -4 9 C-4.99 8.34 -5.98 7.68 -7 7 C-6.312 4.625 -6.312 4.625 -5 2 C-2.375 0.688 -2.375 0.688 0 0 Z " fill="#FFFFFF" transform="translate(100,262)"/>
<path d="M0 0 C0.66 0.99 1.32 1.98 2 3 C2.99 3.66 3.98 4.32 5 5 C4.34 5 3.68 5 3 5 C3 6.65 3 8.3 3 10 C1.02 10.66 -0.96 11.32 -3 12 C-4.32 10.35 -5.64 8.7 -7 7 C-5.188 4.5 -5.188 4.5 -3 2 C-2.01 2 -1.02 2 0 2 C0 1.34 0 0.68 0 0 Z " fill="#FFFFFF" transform="translate(172,279)"/>
<path d="M0 0 C4.95 0 9.9 0 15 0 C11 3 11 3 9 3 C9 3.99 9 4.98 9 6 C6.03 6 3.06 6 0 6 C0 4.02 0 2.04 0 0 Z " fill="#FFFFFF" transform="translate(76,28)"/>
<path d="M0 0 C0.66 0 1.32 0 2 0 C2.2 3.603 1.998 5.951 0 9 C-3.669 11.446 -6.734 11.721 -11 11 C-13.5 9.125 -13.5 9.125 -15 7 C-15 6.34 -15 5.68 -15 5 C-13.68 5 -12.36 5 -11 5 C-9.25 7 -9.25 7 -8 9 C-7.34 8.34 -6.68 7.68 -6 7 C-4.68 7 -3.36 7 -2 7 C-1.856 6.216 -1.711 5.432 -1.562 4.625 C-1 2 -1 2 0 0 Z " fill="#FFFFFF" transform="translate(103,39)"/>
<path d="M0 0 C0 5.61 0 11.22 0 17 C-0.99 16.67 -1.98 16.34 -3 16 C-3 12.37 -3 8.74 -3 5 C-3.99 5 -4.98 5 -6 5 C-4.873 1.619 -3.788 0 0 0 Z " fill="#000000" transform="translate(142,57)"/>
<path d="M0 0 C0.99 0.33 1.98 0.66 3 1 C3 6.28 3 11.56 3 17 C2.01 17 1.02 17 0 17 C0 13.04 0 9.08 0 5 C-1.32 4.67 -2.64 4.34 -4 4 C-2.68 3.67 -1.36 3.34 0 3 C0 2.01 0 1.02 0 0 Z " fill="#000000" transform="translate(150,236)"/>
<path d="M0 0 C1.207 0.031 1.207 0.031 2.438 0.062 C2.771 1.729 3.104 3.396 3.438 5.062 C3.644 5.949 3.85 6.836 4.062 7.75 C4.438 10.062 4.438 10.062 3.438 12.062 C-2.012 13.338 -2.012 13.338 -4.562 12.062 C-4.562 11.072 -4.562 10.082 -4.562 9.062 C-3.902 9.062 -3.243 9.062 -2.562 9.062 C-2.562 9.723 -2.562 10.382 -2.562 11.062 C-0.913 11.062 0.738 11.062 2.438 11.062 C2.438 9.743 2.438 8.423 2.438 7.062 C1.118 7.062 -0.202 7.062 -1.562 7.062 C-1.562 6.402 -1.562 5.743 -1.562 5.062 C-0.572 5.062 0.418 5.062 1.438 5.062 C1.438 4.072 1.438 3.082 1.438 2.062 C-1.68 2.709 -1.68 2.709 -2.562 5.062 C-3.223 5.062 -3.882 5.062 -4.562 5.062 C-3.438 0.084 -3.438 0.084 0 0 Z " fill="#000000" transform="translate(305.5625,291.9375)"/>
<path d="M0 0 C0.625 2.375 0.625 2.375 1 5 C0.34 5.66 -0.32 6.32 -1 7 C-3.5 6.812 -3.5 6.812 -6 6 C-6.66 5.01 -7.32 4.02 -8 3 C-7.67 2.01 -7.34 1.02 -7 0 C-4.333 -1.333 -2.833 -0.671 0 0 Z " fill="#FFFFFF" transform="translate(62,220)"/>
<path d="M0 0 C2.867 0.573 3.861 0.861 6 3 C5.464 6.536 5.464 6.536 4 8 C2 8.041 -0 8.043 -2 8 C-2.688 6.25 -2.688 6.25 -3 4 C-1.562 1.75 -1.562 1.75 0 0 Z " fill="#FFFFFF" transform="translate(53,137)"/>
<path d="M0 0 C2.875 2.5 2.875 2.5 5 5 C4.34 6.32 3.68 7.64 3 9 C1 7 1 7 0 4.438 C-0.749 1.852 -0.749 1.852 -3 1 C-3.33 1.99 -3.66 2.98 -4 4 C-5.98 4.33 -7.96 4.66 -10 5 C-8.266 -0.203 -5.035 -0.705 0 0 Z " fill="#BFBFBF" transform="translate(164,16)"/>
<path d="M0 0 C1.134 0.474 2.269 0.949 3.438 1.438 C10.681 3.907 18.421 3.748 26 4 C25.34 4.66 24.68 5.32 24 6 C24.33 6.66 24.66 7.32 25 8 C6.959 5.294 6.959 5.294 0 1 C0 0.67 0 0.34 0 0 Z " fill="#000000" transform="translate(79,276)"/>
<path d="M0 0 C1.65 1.65 3.3 3.3 5 5 C4.402 4.835 3.804 4.67 3.188 4.5 C0.887 3.889 0.887 3.889 -2 4 C-2.99 4 -3.98 4 -5 4 C-5.33 5.98 -5.66 7.96 -6 10 C-5.01 10.33 -4.02 10.66 -3 11 C-2.312 13.062 -2.312 13.062 -2 15 C-2.66 15 -3.32 15 -4 15 C-4.33 14.01 -4.66 13.02 -5 12 C-5.99 11.34 -6.98 10.68 -8 10 C-7.67 7.36 -7.34 4.72 -7 2 C-4.69 1.34 -2.38 0.68 0 0 Z " fill="#060606" transform="translate(92,150)"/>
<path d="M0 0 C0.33 0.66 0.66 1.32 1 2 C1.66 2 2.32 2 3 2 C3 3.98 3 5.96 3 8 C1.68 8 0.36 8 -1 8 C-0.67 9.32 -0.34 10.64 0 12 C-0.66 11.67 -1.32 11.34 -2 11 C-2.594 8.351 -2.742 5.708 -3 3 C-2.34 3 -1.68 3 -1 3 C-0.67 2.01 -0.34 1.02 0 0 Z " fill="#7F7F7F" transform="translate(89,36)"/>
<path d="M0 0 C1.98 0.495 1.98 0.495 4 1 C4 3.31 4 5.62 4 8 C2.68 8.33 1.36 8.66 0 9 C-1.125 3.375 -1.125 3.375 0 0 Z " fill="#FFFFFF" transform="translate(255,294)"/>
<path d="M0 0 C0 0.66 0 1.32 0 2 C-5.202 2.868 -10.17 3.125 -15.438 3.062 C-16.169 3.058 -16.901 3.053 -17.654 3.049 C-19.436 3.037 -21.218 3.019 -23 3 C-23 2.67 -23 2.34 -23 2 C-7.255 -0.296 -7.255 -0.296 0 0 Z " fill="#070707" transform="translate(83,34)"/>
<path d="M0 0 C0.99 0 1.98 0 3 0 C3 2.97 3 5.94 3 9 C1.68 9 0.36 9 -1 9 C-1.098 2.848 -1.098 2.848 -1 1 C-0.67 0.67 -0.34 0.34 0 0 Z " fill="#FFFFFF" transform="translate(265,294)"/>
<path d="M0 0 C0.99 0.33 1.98 0.66 3 1 C3 3.31 3 5.62 3 8 C1.68 8.33 0.36 8.66 -1 9 C-1.098 2.848 -1.098 2.848 -1 1 C-0.67 0.67 -0.34 0.34 0 0 Z " fill="#FFFFFF" transform="translate(275,294)"/>
<path d="M0 0 C0 3.96 0 7.92 0 12 C-0.66 12 -1.32 12 -2 12 C-2 9.36 -2 6.72 -2 4 C-2.99 4 -3.98 4 -5 4 C-5 3.34 -5 2.68 -5 2 C-1.125 0 -1.125 0 0 0 Z " fill="#000000" transform="translate(297,292)"/>
<path d="M0 0 C0.568 0.361 1.137 0.722 1.723 1.094 C6.793 4.141 10.079 5.63 16 5 C15.34 5.66 14.68 6.32 14 7 C11.667 7 9.333 7 7 7 C6.34 7.66 5.68 8.32 5 9 C4.918 8.402 4.835 7.804 4.75 7.188 C3.795 4.401 2.355 3.671 0 2 C0 1.34 0 0.68 0 0 Z " fill="#000000" transform="translate(85,49)"/>
<path d="M0 0 C0.99 0.66 1.98 1.32 3 2 C3.188 4.625 3.188 4.625 3 7 C1.68 7.33 0.36 7.66 -1 8 C-1 7.01 -1 6.02 -1 5 C-0.34 5 0.32 5 1 5 C1 4.34 1 3.68 1 3 C-0.65 3 -2.3 3 -4 3 C-2.68 2.67 -1.36 2.34 0 2 C0 1.34 0 0.68 0 0 Z " fill="#FFFFFF" transform="translate(155,177)"/>
<path d="M0 0 C0.99 0.825 1.98 1.65 3 2.5 C7.131 5.499 10.003 5.438 15 5 C14.67 5.66 14.34 6.32 14 7 C5.071 7.454 5.071 7.454 1 4 C0.371 1.891 0.371 1.891 0 0 Z " fill="#FFFFFF" transform="translate(161,289)"/>
<path d="M0 0 C2.475 0.495 2.475 0.495 5 1 C5 2.65 5 4.3 5 6 C3.35 5.67 1.7 5.34 0 5 C0 3.35 0 1.7 0 0 Z " fill="#9F9F9F" transform="translate(169,276)"/>
<path d="M0 0 C-2.141 2.463 -3.699 3.691 -7 4 C-7.99 3.34 -8.98 2.68 -10 2 C-6.356 -0.429 -4.288 -0.162 0 0 Z " fill="#FFFFFF" transform="translate(167,30)"/>
<path d="M0 0 C-0.99 0.495 -0.99 0.495 -2 1 C-2.33 1.99 -2.66 2.98 -3 4 C-4.98 4.33 -6.96 4.66 -9 5 C-7.352 0.057 -4.769 -0.258 0 0 Z " fill="#FFFFFF" transform="translate(163,16)"/>
<path d="M0 0 C0.66 0 1.32 0 2 0 C1.125 5.75 1.125 5.75 0 8 C-0.66 8 -1.32 8 -2 8 C-2 6.02 -2 4.04 -2 2 C-1.34 2 -0.68 2 0 2 C0 1.34 0 0.68 0 0 Z " fill="#FFFFFF" transform="translate(178,283)"/>
<path d="M0 0 C0.66 1.32 1.32 2.64 2 4 C1.443 3.649 0.886 3.299 0.312 2.938 C-2.539 1.782 -4.085 2.19 -7 3 C-7.33 4.32 -7.66 5.64 -8 7 C-8.33 5.35 -8.66 3.7 -9 2 C-3.375 0 -3.375 0 0 0 Z " fill="#000000" transform="translate(227,294)"/>
<path d="M0 0 C0.66 1.32 1.32 2.64 2 4 C-3.625 6 -3.625 6 -7 6 C-7.33 4.68 -7.66 3.36 -8 2 C-6.515 2.99 -6.515 2.99 -5 4 C-2.354 3.688 -2.354 3.688 0 3 C0 2.01 0 1.02 0 0 Z " fill="#000000" transform="translate(100,42)"/>
<path d="M0 0 C0.99 0.33 1.98 0.66 3 1 C2.67 2.32 2.34 3.64 2 5 C0.68 4.67 -0.64 4.34 -2 4 C-2 3.01 -2 2.02 -2 1 C-1.34 0.67 -0.68 0.34 0 0 Z " fill="#FFFFFF" transform="translate(285,298)"/>
<path d="M0 0 C1.32 0.66 2.64 1.32 4 2 C3.01 2 2.02 2 1 2 C0.32 4.397 0.32 4.397 0 7 C0.66 7.66 1.32 8.32 2 9 C0.68 9 -0.64 9 -2 9 C-1.125 1.125 -1.125 1.125 0 0 Z " fill="#000000" transform="translate(94,262)"/>
<path d="M0 0 C0.99 0.33 1.98 0.66 3 1 C2.01 1.495 2.01 1.495 1 2 C1 2.66 1 3.32 1 4 C-0.98 4 -2.96 4 -5 4 C-3.366 2.292 -2.131 1.065 0 0 Z " fill="#FFFFFF" transform="translate(95,32)"/>
<path d="M0 0 C0.66 0 1.32 0 2 0 C2 2.31 2 4.62 2 7 C1.01 7 0.02 7 -1 7 C-1.043 5 -1.041 3 -1 1 C-0.67 0.67 -0.34 0.34 0 0 Z " fill="#C3C3C3" transform="translate(154,21)"/>
</svg>
