<?xml version="1.0" encoding="UTF-8"?>
<!-- Generator: visioncortex VTracer 0.6.4 -->
<svg version="1.1" xmlns="http://www.w3.org/2000/svg" width="126" height="126">
<path d="M0 0 C41.58 0 83.16 0 126 0 C126 41.58 126 83.16 126 126 C84.42 126 42.84 126 0 126 C0 84.42 0 42.84 0 0 Z " fill="#FFFFFF" transform="translate(0,0)"/>
<path d="M0 0 C41.58 0 83.16 0 126 0 C126 41.58 126 83.16 126 126 C84.42 126 42.84 126 0 126 C0 84.42 0 42.84 0 0 Z M8 8 C8 43.64 8 79.28 8 116 C43.64 116 79.28 116 116 116 C116 80.36 116 44.72 116 8 C80.36 8 44.72 8 8 8 Z " fill="#000000" transform="translate(0,0)"/>
<path d="M0 0 C4.365 3.877 8.039 8.116 9 14 C8.857 20.57 8.044 26.789 3.461 31.746 C2.443 32.655 1.414 33.552 0.375 34.438 C-0.435 35.151 -0.435 35.151 -1.261 35.88 C-2.34 36.829 -3.423 37.773 -4.511 38.712 C-5.783 39.812 -7.038 40.931 -8.289 42.055 C-10.166 43.737 -12.073 45.375 -14 47 C-14.62 47.545 -15.24 48.091 -15.879 48.652 C-19.617 51.741 -22.476 53.249 -27.25 54.188 C-33.845 55.694 -37.63 59.67 -42.273 64.309 C-45 67 -45 67 -47.727 68.91 C-50.298 70.902 -50.298 70.902 -50.93 74.41 C-52.301 79.011 -54.398 80.632 -58.125 83.438 C-58.97 84.106 -58.97 84.106 -59.832 84.787 C-61.21 85.873 -62.603 86.939 -64 88 C-67.283 86.509 -69.931 84.614 -72.75 82.375 C-73.949 81.428 -73.949 81.428 -75.172 80.461 C-75.775 79.979 -76.378 79.497 -77 79 C-76.434 78.013 -75.868 77.025 -75.285 76.008 C-74.544 74.714 -73.803 73.419 -73.062 72.125 C-72.689 71.474 -72.316 70.823 -71.932 70.152 C-69.899 66.613 -69.899 66.613 -68 63 C-66.93 62.912 -65.86 62.825 -64.758 62.734 C-60.136 61.831 -58.479 59.918 -55.875 56.25 C-55.448 55.67 -55.02 55.09 -54.58 54.493 C-50.529 48.763 -48.07 42.69 -46 36 C-45.694 35.02 -45.389 34.041 -45.074 33.031 C-44.56 31.334 -44.059 29.633 -43.578 27.926 C-43 26 -43 26 -42 24 C-41.34 24 -40.68 24 -40 24 C-39.623 23.19 -39.623 23.19 -39.238 22.363 C-36.596 17.321 -33.191 12.706 -30 8 C-29.518 7.263 -29.036 6.525 -28.539 5.766 C-25.533 1.285 -22.823 -1.183 -17.625 -2.688 C-11.187 -3.454 -5.66 -3.341 0 0 Z " fill="#000000" transform="translate(96,20)"/>
<path d="M0 0 C0.66 0 1.32 0 2 0 C2 41.58 2 83.16 2 126 C-39.58 126 -81.16 126 -124 126 C-124 125.34 -124 124.68 -124 124 C-83.08 124 -42.16 124 0 124 C0 83.08 0 42.16 0 0 Z " fill="#FFFFFF" transform="translate(124,0)"/>
<path d="M0 0 C0.392 0.557 0.784 1.114 1.188 1.688 C4.325 5.691 7.842 9.074 12 12 C11.216 12.474 10.432 12.949 9.625 13.438 C5.548 16.14 2.052 19.472 -1.535 22.781 C-4 25 -4 25 -6.797 27.078 C-7.524 27.712 -8.251 28.347 -9 29 C-9.093 30.609 -9.093 30.609 -9.188 32.25 C-10.478 38.204 -15.18 40.632 -20 44 C-22.934 42.582 -25.433 41.017 -28 39 C-26.409 34.372 -24.379 29.598 -21 26 C-17.188 25.5 -17.188 25.5 -14 26 C-13.762 25.468 -13.523 24.935 -13.277 24.387 C-11.962 21.928 -10.415 19.732 -8.775 17.481 C-4.704 11.879 -1.721 6.77 0 0 Z " fill="#FFFFFF" transform="translate(52,60)"/>
<path d="M0 0 C3.233 1.892 5.522 4.19 7.438 7.438 C8.138 10.627 7.821 12.851 7 16 C6.34 16.99 5.68 17.98 5 19 C0.397 19.844 -4.002 19.308 -8.438 17.938 C-11.859 15.351 -12.803 13.084 -14 9 C-13.92 5.546 -13.322 4.374 -11.062 1.75 C-7.171 -1.552 -4.943 -1.153 0 0 Z " fill="#FFFFFF" transform="translate(89,25)"/>
<path d="M0 0 C1.553 0.423 1.553 0.423 3.137 0.855 C1.865 5.517 -0.79 7.994 -4.199 11.207 C-5.995 12.866 -5.995 12.866 -7.426 15.293 C-8.863 16.855 -8.863 16.855 -11.926 17.168 C-14.863 16.855 -14.863 16.855 -16.863 15.855 C-15.183 11.863 -12.501 8.766 -9.676 5.543 C-9.219 4.98 -8.762 4.418 -8.291 3.838 C-5.438 0.605 -4.395 -0.164 0 0 Z " fill="#FFFFFF" transform="translate(78.86328125,50.14453125)"/>
<path d="M0 0 C0.66 0 1.32 0 2 0 C3.75 2.25 3.75 2.25 5 5 C3.898 7.911 2.296 9.983 0.18 12.234 C-0.355 12.808 -0.89 13.382 -1.441 13.973 C-1.997 14.559 -2.553 15.146 -3.125 15.75 C-3.688 16.352 -4.252 16.954 -4.832 17.574 C-6.217 19.053 -7.608 20.527 -9 22 C-9.99 20.68 -10.98 19.36 -12 18 C-8.601 11.628 -4.635 5.548 0 0 Z " fill="#FFFFFF" transform="translate(68,41)"/>
<path d="M0 0 C0.66 0.33 1.32 0.66 2 1 C0.529 5.357 -1.831 8.719 -4.625 12.312 C-5.045 12.862 -5.465 13.412 -5.898 13.979 C-6.927 15.323 -7.963 16.662 -9 18 C-10 15 -10 15 -8.926 12.695 C-8.393 11.847 -7.861 10.999 -7.312 10.125 C-6.483 8.802 -6.483 8.802 -5.637 7.453 C-3.894 4.841 -2.057 2.374 0 0 Z " fill="#FFFFFF" transform="translate(66,34)"/>
<path d="M0 0 C1.65 0 3.3 0 5 0 C-2.05 8.366 -2.05 8.366 -5 11 C-5.66 11 -6.32 11 -7 11 C-5.824 8.22 -4.315 6.093 -2.375 3.812 C0.108 1.486 0.108 1.486 0 0 Z " fill="#FFFFFF" transform="translate(86,52)"/>
</svg>
