<?xml version="1.0" encoding="UTF-8"?>
<!-- Generator: visioncortex VTracer 0.6.4 -->
<svg version="1.1" xmlns="http://www.w3.org/2000/svg" width="442" height="378">
<path d="M0 0 C145.86 0 291.72 0 442 0 C442 124.74 442 249.48 442 378 C296.14 378 150.28 378 0 378 C0 253.26 0 128.52 0 0 Z " fill="#FEFEFE" transform="translate(0,0)"/>
<path d="M0 0 C3.5 0.125 3.5 0.125 4.5 1.125 C4.625 3.625 4.625 3.625 4.5 6.125 C4.17 6.455 3.84 6.785 3.5 7.125 C3.267 8.807 3.087 10.496 2.938 12.188 C2.854 13.107 2.77 14.026 2.684 14.973 C2.623 15.683 2.562 16.393 2.5 17.125 C1.84 17.125 1.18 17.125 0.5 17.125 C0.83 20.755 1.16 24.385 1.5 28.125 C4.202 27.344 6.904 26.562 9.605 25.781 C12.353 25.158 14.696 25.002 17.5 25.125 C17.5 25.785 17.5 26.445 17.5 27.125 C14.2 27.785 10.9 28.445 7.5 29.125 C7.83 30.115 8.16 31.105 8.5 32.125 C6.5 32.168 4.5 32.166 2.5 32.125 C2.17 31.795 1.84 31.465 1.5 31.125 C1.17 32.115 0.84 33.105 0.5 34.125 C1.49 34.455 2.48 34.785 3.5 35.125 C3.17 36.115 2.84 37.105 2.5 38.125 C0.85 38.125 -0.8 38.125 -2.5 38.125 C-2.5 36.805 -2.5 35.485 -2.5 34.125 C-1.84 34.125 -1.18 34.125 -0.5 34.125 C-0.5 33.465 -0.5 32.805 -0.5 32.125 C-1.82 33.115 -3.14 34.105 -4.5 35.125 C-4.462 37.497 -4.462 37.497 -3.5 40.125 C-0.542 42.459 -0.542 42.459 2.5 44.125 C2.5 43.465 2.5 42.805 2.5 42.125 C4.975 41.63 4.975 41.63 7.5 41.125 C7.17 39.475 6.84 37.825 6.5 36.125 C7.16 35.795 7.82 35.465 8.5 35.125 C8.83 35.785 9.16 36.445 9.5 37.125 C10.034 36.859 10.567 36.594 11.117 36.32 C20.157 32.035 28.541 30.744 38.5 31.125 C38.5 31.785 38.5 32.445 38.5 33.125 C37.389 33.223 36.278 33.321 35.133 33.422 C26.694 34.243 19.176 35.24 11.5 39.125 C11.5 39.785 11.5 40.445 11.5 41.125 C18.964 44.821 26.082 45.917 34.254 46.73 C37.5 47.125 37.5 47.125 38.5 48.125 C38.541 50.458 38.542 52.792 38.5 55.125 C34.813 55.154 31.125 55.172 27.438 55.188 C26.399 55.196 25.361 55.204 24.291 55.213 C18.913 55.23 13.797 55.079 8.5 54.125 C8.17 55.775 7.84 57.425 7.5 59.125 C5.85 58.795 4.2 58.465 2.5 58.125 C2.5 56.805 2.5 55.485 2.5 54.125 C3.49 54.125 4.48 54.125 5.5 54.125 C5.5 53.465 5.5 52.805 5.5 52.125 C3.85 51.795 2.2 51.465 0.5 51.125 C0.83 55.415 1.16 59.705 1.5 64.125 C3.48 64.125 5.46 64.125 7.5 64.125 C7.5 65.775 7.5 67.425 7.5 69.125 C5.376 69.206 3.25 69.264 1.125 69.312 C-0.058 69.347 -1.242 69.382 -2.461 69.418 C-3.965 69.273 -3.965 69.273 -5.5 69.125 C-6.16 68.135 -6.82 67.145 -7.5 66.125 C-5.52 65.465 -3.54 64.805 -1.5 64.125 C-0.467 55.827 -0.467 55.827 -2.801 48.223 C-4.627 46.82 -4.627 46.82 -7.5 45.125 C-8.375 42.812 -8.375 42.812 -8.5 41.125 C-8.83 41.455 -9.16 41.785 -9.5 42.125 C-11.365 42.142 -13.231 42.086 -15.094 42.004 C-16.329 41.955 -17.564 41.907 -18.837 41.857 C-19.512 41.829 -20.188 41.801 -20.883 41.772 C-35.747 41.176 -50.612 40.983 -65.487 40.947 C-67.703 40.941 -69.919 40.931 -72.135 40.917 C-75.274 40.899 -78.412 40.895 -81.551 40.895 C-82.971 40.884 -82.971 40.884 -84.419 40.873 C-85.294 40.876 -86.17 40.879 -87.072 40.882 C-87.834 40.881 -88.596 40.879 -89.381 40.878 C-91.857 41.167 -93.424 41.744 -95.5 43.125 C-96.684 46.406 -96.684 46.406 -96.5 50.125 C-87.277 66.709 -61.217 70.903 -44.575 76.404 C-43.433 76.782 -43.433 76.782 -42.267 77.167 C-40.71 77.682 -39.153 78.196 -37.597 78.711 C-15.322 86.08 6.513 94.48 28.099 103.676 C30.536 104.714 32.973 105.749 35.413 106.781 C55.145 115.128 74.75 123.724 94.209 132.694 C97.804 134.35 101.408 135.985 105.023 137.598 C123.099 145.731 123.099 145.731 128.5 154.125 C129.859 158.601 129.961 162.083 128.062 166.375 C119.776 175.267 105.941 179.601 94.012 180.263 C79.291 180.778 65.747 179.807 51.5 176.125 C50.472 175.862 49.444 175.6 48.385 175.329 C35.009 171.881 21.722 168.121 8.5 164.125 C6.554 167.6 6.424 169.25 7.5 173.125 C6.18 173.455 4.86 173.785 3.5 174.125 C3.5 178.745 3.5 183.365 3.5 188.125 C5.48 188.455 7.46 188.785 9.5 189.125 C8.936 192.369 8.146 193.945 5.562 196 C3.314 197.439 2.02 198.15 -0.676 198.022 C-7.275 196.512 -13.694 194.612 -20.125 192.5 C-21.129 192.175 -22.133 191.85 -23.168 191.516 C-25.614 190.724 -28.058 189.927 -30.5 189.125 C-30.5 189.785 -30.5 190.445 -30.5 191.125 C-34.571 194.178 -34.571 194.178 -37.688 194 C-39.5 193.125 -39.5 193.125 -41.5 190.125 C-41.5 188.475 -41.5 186.825 -41.5 185.125 C-46.945 184.135 -46.945 184.135 -52.5 183.125 C-53.49 185.105 -54.48 187.085 -55.5 189.125 C-56.82 189.125 -58.14 189.125 -59.5 189.125 C-59.954 189.764 -60.407 190.404 -60.875 191.062 C-62.5 193.125 -62.5 193.125 -65.375 193.562 C-68.72 193.858 -68.72 193.858 -71.062 196.688 C-73.5 199.125 -73.5 199.125 -76.25 199.5 C-78.5 199.125 -78.5 199.125 -79.5 198.125 C-79.541 196.125 -79.543 194.125 -79.5 192.125 C-78.874 191.932 -78.247 191.738 -77.602 191.539 C-76.784 191.279 -75.967 191.018 -75.125 190.75 C-74.313 190.495 -73.501 190.24 -72.664 189.977 C-69.459 188.715 -68.41 186.99 -66.5 184.125 C-65.18 184.125 -63.86 184.125 -62.5 184.125 C-62.17 182.805 -61.84 181.485 -61.5 180.125 C-63.624 179.455 -65.749 178.789 -67.875 178.125 C-69.058 177.754 -70.242 177.382 -71.461 177 C-74.293 176.033 -74.293 176.033 -76.5 176.125 C-76.727 176.764 -76.954 177.404 -77.188 178.062 C-78.5 180.125 -78.5 180.125 -80.812 181 C-84.004 181.148 -85.638 180.521 -88.5 179.125 C-90.109 178.506 -90.109 178.506 -91.75 177.875 C-94.5 176.125 -94.5 176.125 -95.25 173 C-95.333 172.051 -95.415 171.102 -95.5 170.125 C-96.16 169.795 -96.82 169.465 -97.5 169.125 C-97.5 168.465 -97.5 167.805 -97.5 167.125 C-94.86 167.785 -92.22 168.445 -89.5 169.125 C-89.5 167.145 -89.5 165.165 -89.5 163.125 C-90.49 162.795 -91.48 162.465 -92.5 162.125 C-92.17 160.475 -91.84 158.825 -91.5 157.125 C-90.874 157.027 -90.247 156.929 -89.602 156.828 C-88.376 156.604 -88.376 156.604 -87.125 156.375 C-85.907 156.166 -85.907 156.166 -84.664 155.953 C-82.323 155.308 -82.323 155.308 -81.211 153.047 C-80.976 152.413 -80.742 151.778 -80.5 151.125 C-84.703 149.572 -87.509 148.993 -91.938 149.75 C-100.198 150.872 -108.732 147.714 -116.5 145.125 C-118.77 144.996 -121.041 144.896 -123.312 144.812 C-131.129 144.429 -138.06 142.59 -145.5 140.125 C-145.5 136.495 -145.5 132.865 -145.5 129.125 C-140.243 127.373 -134.77 129.825 -129.523 131.193 C-127.407 131.742 -125.286 132.268 -123.164 132.793 C-116.457 134.496 -110.336 136.353 -104.383 139.997 C-99.541 142.898 -94.081 144.498 -88.5 145.125 C-85.725 144.193 -83.778 143.012 -81.41 141.312 C-79.5 140.125 -79.5 140.125 -75.938 140.312 C-74.731 140.715 -74.731 140.715 -73.5 141.125 C-73.819 134.845 -74.223 130.54 -77.5 125.125 C-77.891 121.358 -78.219 117.563 -76.5 114.125 C-72.406 112.126 -67.995 110.827 -63.5 110.125 C-63.118 111.781 -62.786 113.45 -62.5 115.125 C-62.83 115.455 -63.16 115.785 -63.5 116.125 C-63.708 117.599 -63.867 119.08 -64 120.562 C-64.39 124.906 -64.39 124.906 -65.5 127.125 C-66.16 127.125 -66.82 127.125 -67.5 127.125 C-67.83 128.445 -68.16 129.765 -68.5 131.125 C-69.49 131.125 -70.48 131.125 -71.5 131.125 C-71.5 134.755 -71.5 138.385 -71.5 142.125 C-70.283 142.29 -69.066 142.455 -67.812 142.625 C-63.446 143.593 -60.209 145.341 -56.438 147.727 C-55.873 148.081 -55.308 148.436 -54.726 148.801 C-50.929 151.192 -47.16 153.627 -43.387 156.055 C-29.296 165.069 -15.226 172.292 0.5 178.125 C0.5 181.095 0.5 184.065 0.5 187.125 C1.16 187.125 1.82 187.125 2.5 187.125 C2.5 182.835 2.5 178.545 2.5 174.125 C1.18 174.125 -0.14 174.125 -1.5 174.125 C-2.434 171.115 -2.544 170.258 -1.5 167.125 C-1.152 165.461 -0.816 163.795 -0.5 162.125 C-4.196 159.677 -7.501 158.432 -11.812 157.438 C-12.881 157.186 -13.95 156.935 -15.051 156.676 C-15.859 156.494 -16.667 156.312 -17.5 156.125 C-17.995 153.65 -17.995 153.65 -18.5 151.125 C-17.18 150.465 -15.86 149.805 -14.5 149.125 C-13.979 149.575 -13.458 150.025 -12.922 150.488 C-9.968 152.484 -7.168 153.321 -3.75 154.312 C-1.994 154.829 -1.994 154.829 -0.203 155.355 C0.689 155.609 1.581 155.863 2.5 156.125 C2.5 154.475 2.5 152.825 2.5 151.125 C1.84 151.125 1.18 151.125 0.5 151.125 C0.439 150.343 0.379 149.56 0.316 148.754 C0.233 147.742 0.149 146.73 0.062 145.688 C-0.019 144.678 -0.1 143.669 -0.184 142.629 C-0.232 140.189 -0.232 140.189 -1.5 139.125 C-1.625 136.125 -1.625 136.125 -1.5 133.125 C-0.5 132.125 -0.5 132.125 3 132 C6.5 132.125 6.5 132.125 7.5 133.125 C7.541 135.125 7.543 137.125 7.5 139.125 C6.84 139.125 6.18 139.125 5.5 139.125 C5.5 143.085 5.5 147.045 5.5 151.125 C4.84 151.125 4.18 151.125 3.5 151.125 C3.83 152.775 4.16 154.425 4.5 156.125 C5.462 156.402 6.424 156.678 7.415 156.964 C11.049 158.011 14.681 159.066 18.312 160.123 C19.872 160.576 21.432 161.027 22.993 161.475 C31.719 163.986 40.208 166.7 48.656 170.056 C52.626 171.548 56.595 172.554 60.75 173.375 C61.552 173.536 62.353 173.698 63.179 173.864 C82.131 177.47 102.317 177.469 119.668 167.934 C122.623 165.806 123.501 164.122 124.5 160.625 C124.5 157.099 124.306 155.135 122.5 152.125 C121.185 151.423 119.848 150.761 118.5 150.125 C117.069 149.241 115.644 148.348 114.223 147.449 C107.411 143.339 100.188 140.175 92.938 136.938 C91.456 136.271 89.975 135.605 88.493 134.938 C84.828 133.289 81.159 131.649 77.488 130.012 C75.694 129.211 73.9 128.407 72.107 127.603 C27.895 107.775 -17.208 89.615 -63.28 74.556 C-78.979 69.422 -78.979 69.422 -85.188 66.188 C-85.841 65.85 -86.495 65.513 -87.168 65.166 C-92.936 62.079 -97.893 59.085 -100.418 52.863 C-101.383 49.327 -101.67 46.835 -100.812 43.25 C-98.274 39.141 -96.34 37.843 -91.599 36.551 C-87.66 35.752 -83.703 35.763 -79.695 35.711 C-78.75 35.692 -77.805 35.672 -76.831 35.652 C-73.763 35.592 -70.694 35.546 -67.625 35.5 C-65.511 35.462 -63.398 35.424 -61.284 35.385 C-44.022 35.084 -26.764 35.016 -9.5 35.125 C-8.84 35.125 -8.18 35.125 -7.5 35.125 C-6.675 34.3 -5.85 33.475 -5 32.625 C-4.175 31.8 -3.35 30.975 -2.5 30.125 C-1.84 30.125 -1.18 30.125 -0.5 30.125 C-0.5 25.835 -0.5 21.545 -0.5 17.125 C-1.16 17.125 -1.82 17.125 -2.5 17.125 C-2.561 16.415 -2.621 15.704 -2.684 14.973 C-2.767 14.054 -2.851 13.134 -2.938 12.188 C-3.019 11.271 -3.1 10.354 -3.184 9.41 C-3.26 7.163 -3.26 7.163 -4.5 6.125 C-4.625 3.625 -4.625 3.625 -4.5 1.125 C-3.5 0.125 -3.5 0.125 0 0 Z " fill="#0C0C0C" transform="translate(176.5,139.875)"/>
<path d="M0 0 C3.5 0.125 3.5 0.125 4.5 1.125 C4.625 3.625 4.625 3.625 4.5 6.125 C4.17 6.455 3.84 6.785 3.5 7.125 C3.267 8.807 3.087 10.496 2.938 12.188 C2.812 13.566 2.812 13.566 2.684 14.973 C2.623 15.683 2.562 16.393 2.5 17.125 C1.84 17.125 1.18 17.125 0.5 17.125 C0.995 22.57 0.995 22.57 1.5 28.125 C4.202 27.344 6.904 26.562 9.605 25.781 C12.353 25.158 14.696 25.002 17.5 25.125 C17.5 25.785 17.5 26.445 17.5 27.125 C14.2 27.785 10.9 28.445 7.5 29.125 C7.995 30.61 7.995 30.61 8.5 32.125 C6.5 32.168 4.5 32.166 2.5 32.125 C2.17 31.795 1.84 31.465 1.5 31.125 C1.17 32.115 0.84 33.105 0.5 34.125 C1.985 34.62 1.985 34.62 3.5 35.125 C3.17 36.115 2.84 37.105 2.5 38.125 C0.85 38.125 -0.8 38.125 -2.5 38.125 C-2.5 36.805 -2.5 35.485 -2.5 34.125 C-1.84 34.125 -1.18 34.125 -0.5 34.125 C-0.5 33.465 -0.5 32.805 -0.5 32.125 C-1.82 33.115 -3.14 34.105 -4.5 35.125 C-4.462 37.497 -4.462 37.497 -3.5 40.125 C-0.542 42.459 -0.542 42.459 2.5 44.125 C2.5 43.465 2.5 42.805 2.5 42.125 C4.15 41.795 5.8 41.465 7.5 41.125 C7.17 39.475 6.84 37.825 6.5 36.125 C7.16 35.795 7.82 35.465 8.5 35.125 C8.83 35.785 9.16 36.445 9.5 37.125 C10.034 36.859 10.567 36.594 11.117 36.32 C20.157 32.035 28.541 30.744 38.5 31.125 C38.5 31.785 38.5 32.445 38.5 33.125 C37.389 33.223 36.278 33.321 35.133 33.422 C26.694 34.243 19.176 35.24 11.5 39.125 C11.5 39.785 11.5 40.445 11.5 41.125 C18.964 44.821 26.082 45.917 34.254 46.73 C37.5 47.125 37.5 47.125 38.5 48.125 C38.541 50.458 38.542 52.792 38.5 55.125 C34.813 55.154 31.125 55.172 27.438 55.188 C26.399 55.196 25.361 55.204 24.291 55.213 C18.913 55.23 13.797 55.079 8.5 54.125 C8.17 55.775 7.84 57.425 7.5 59.125 C5.85 58.795 4.2 58.465 2.5 58.125 C2.5 56.805 2.5 55.485 2.5 54.125 C3.49 54.125 4.48 54.125 5.5 54.125 C5.5 53.465 5.5 52.805 5.5 52.125 C3.85 51.795 2.2 51.465 0.5 51.125 C0.995 57.56 0.995 57.56 1.5 64.125 C3.48 64.125 5.46 64.125 7.5 64.125 C7.5 65.775 7.5 67.425 7.5 69.125 C5.376 69.206 3.25 69.264 1.125 69.312 C-0.058 69.347 -1.242 69.382 -2.461 69.418 C-3.464 69.321 -4.467 69.225 -5.5 69.125 C-6.16 68.135 -6.82 67.145 -7.5 66.125 C-5.52 65.465 -3.54 64.805 -1.5 64.125 C-0.467 55.827 -0.467 55.827 -2.801 48.223 C-4.627 46.82 -4.627 46.82 -7.5 45.125 C-8.375 42.812 -8.375 42.812 -8.5 41.125 C-8.83 41.455 -9.16 41.785 -9.5 42.125 C-11.365 42.142 -13.231 42.086 -15.094 42.004 C-16.329 41.955 -17.564 41.907 -18.837 41.857 C-19.512 41.829 -20.188 41.801 -20.883 41.772 C-35.747 41.176 -50.612 40.983 -65.487 40.947 C-67.703 40.941 -69.919 40.931 -72.135 40.917 C-75.274 40.899 -78.412 40.895 -81.551 40.895 C-82.971 40.884 -82.971 40.884 -84.419 40.873 C-85.294 40.876 -86.17 40.879 -87.072 40.882 C-87.834 40.881 -88.596 40.879 -89.381 40.878 C-91.857 41.167 -93.424 41.744 -95.5 43.125 C-96.684 46.406 -96.684 46.406 -96.5 50.125 C-87.277 66.709 -61.217 70.903 -44.575 76.404 C-43.433 76.782 -43.433 76.782 -42.267 77.167 C-40.71 77.682 -39.153 78.196 -37.597 78.711 C-15.322 86.08 6.513 94.48 28.099 103.676 C30.536 104.714 32.973 105.749 35.413 106.781 C55.145 115.128 74.75 123.724 94.209 132.694 C97.804 134.35 101.408 135.985 105.023 137.598 C123.099 145.731 123.099 145.731 128.5 154.125 C129.859 158.601 129.961 162.083 128.062 166.375 C119.776 175.267 105.941 179.601 94.012 180.263 C79.291 180.778 65.747 179.807 51.5 176.125 C50.472 175.862 49.444 175.6 48.385 175.329 C35.009 171.881 21.722 168.121 8.5 164.125 C6.554 167.6 6.424 169.25 7.5 173.125 C3.069 175.217 3.069 175.217 0.188 174.75 C-0.369 174.544 -0.926 174.337 -1.5 174.125 C-2.434 171.115 -2.544 170.258 -1.5 167.125 C-1.152 165.461 -0.816 163.795 -0.5 162.125 C-4.196 159.677 -7.501 158.432 -11.812 157.438 C-12.881 157.186 -13.95 156.935 -15.051 156.676 C-15.859 156.494 -16.667 156.312 -17.5 156.125 C-17.995 153.65 -17.995 153.65 -18.5 151.125 C-17.18 150.465 -15.86 149.805 -14.5 149.125 C-13.979 149.575 -13.458 150.025 -12.922 150.488 C-9.968 152.484 -7.168 153.321 -3.75 154.312 C-1.994 154.829 -1.994 154.829 -0.203 155.355 C0.689 155.609 1.581 155.863 2.5 156.125 C2.5 154.475 2.5 152.825 2.5 151.125 C1.84 151.125 1.18 151.125 0.5 151.125 C0.439 150.343 0.379 149.56 0.316 148.754 C0.191 147.236 0.191 147.236 0.062 145.688 C-0.019 144.678 -0.1 143.669 -0.184 142.629 C-0.232 140.189 -0.232 140.189 -1.5 139.125 C-1.625 136.125 -1.625 136.125 -1.5 133.125 C-0.5 132.125 -0.5 132.125 3 132 C6.5 132.125 6.5 132.125 7.5 133.125 C7.541 135.125 7.543 137.125 7.5 139.125 C6.84 139.125 6.18 139.125 5.5 139.125 C5.5 143.085 5.5 147.045 5.5 151.125 C4.84 151.125 4.18 151.125 3.5 151.125 C3.995 153.6 3.995 153.6 4.5 156.125 C5.462 156.402 6.424 156.678 7.415 156.964 C11.049 158.011 14.681 159.066 18.312 160.123 C19.872 160.576 21.432 161.027 22.993 161.475 C31.719 163.986 40.208 166.7 48.656 170.056 C52.626 171.548 56.595 172.554 60.75 173.375 C61.552 173.536 62.353 173.698 63.179 173.864 C82.131 177.47 102.317 177.469 119.668 167.934 C122.623 165.806 123.501 164.122 124.5 160.625 C124.5 157.099 124.306 155.135 122.5 152.125 C121.185 151.423 119.848 150.761 118.5 150.125 C117.069 149.241 115.644 148.348 114.223 147.449 C107.411 143.339 100.188 140.175 92.938 136.938 C91.456 136.271 89.975 135.605 88.493 134.938 C84.828 133.289 81.159 131.649 77.488 130.012 C75.694 129.211 73.9 128.407 72.107 127.603 C27.895 107.775 -17.208 89.615 -63.28 74.556 C-78.979 69.422 -78.979 69.422 -85.188 66.188 C-85.841 65.85 -86.495 65.513 -87.168 65.166 C-92.936 62.079 -97.893 59.085 -100.418 52.863 C-101.383 49.327 -101.67 46.835 -100.812 43.25 C-98.274 39.141 -96.34 37.843 -91.599 36.551 C-87.66 35.752 -83.703 35.763 -79.695 35.711 C-78.75 35.692 -77.805 35.672 -76.831 35.652 C-73.763 35.592 -70.694 35.546 -67.625 35.5 C-65.511 35.462 -63.398 35.424 -61.284 35.385 C-44.022 35.084 -26.764 35.016 -9.5 35.125 C-8.84 35.125 -8.18 35.125 -7.5 35.125 C-6.675 34.3 -5.85 33.475 -5 32.625 C-3.762 31.387 -3.762 31.387 -2.5 30.125 C-1.84 30.125 -1.18 30.125 -0.5 30.125 C-0.5 25.835 -0.5 21.545 -0.5 17.125 C-1.16 17.125 -1.82 17.125 -2.5 17.125 C-2.561 16.415 -2.621 15.704 -2.684 14.973 C-2.767 14.054 -2.851 13.134 -2.938 12.188 C-3.019 11.271 -3.1 10.354 -3.184 9.41 C-3.26 7.163 -3.26 7.163 -4.5 6.125 C-4.625 3.625 -4.625 3.625 -4.5 1.125 C-3.5 0.125 -3.5 0.125 0 0 Z " fill="#090909" transform="translate(176.5,139.875)"/>
<path d="M0 0 C0.375 2.188 0.375 2.188 0 5 C-3.454 8.539 -6.49 10.346 -11.121 12.137 C-13.259 13.119 -14.975 14.363 -16.875 15.75 C-26.616 22.439 -38.596 26.286 -50 29 C-54.531 30.233 -54.531 30.233 -58.969 31.754 C-64.483 33.822 -69.516 34.356 -75.379 34.688 C-82.857 35.333 -90.202 37.005 -97.543 38.527 C-105.645 40.086 -113.74 41.33 -122 41 C-122 41.66 -122 42.32 -122 43 C-123.621 43.373 -125.247 43.722 -126.875 44.062 C-127.78 44.26 -128.685 44.457 -129.617 44.66 C-132.492 44.949 -134.346 44.853 -137.135 44.44 C-144.857 43.626 -152.521 44.586 -160.219 45.293 C-161.907 45.441 -163.596 45.589 -165.285 45.735 C-169.768 46.127 -174.25 46.531 -178.732 46.937 C-183.355 47.355 -187.98 47.764 -192.604 48.175 C-199.837 48.819 -207.069 49.469 -214.301 50.125 C-221.186 50.749 -228.071 51.358 -234.958 51.951 C-238.788 52.282 -242.617 52.622 -246.446 52.966 C-248.069 53.11 -249.693 53.251 -251.316 53.388 C-259.555 54.086 -267.577 55.174 -275.664 56.926 C-276.403 57.084 -277.142 57.243 -277.904 57.406 C-284.885 59.011 -291.942 61.542 -296.793 67.027 C-298.242 68.98 -298.242 68.98 -297.875 71.562 C-296.709 74.809 -295.146 76.355 -292.148 78.041 C-283.772 81.519 -275 82.975 -266.129 84.602 C-264.398 84.926 -262.668 85.252 -260.937 85.579 C-256.404 86.432 -251.869 87.273 -247.333 88.112 C-242.741 88.963 -238.151 89.826 -233.561 90.688 C-225.364 92.224 -217.166 93.755 -208.965 95.266 C-206.503 95.72 -204.043 96.183 -201.584 96.653 C-200.61 96.838 -199.636 97.022 -198.633 97.212 C-197.822 97.369 -197.011 97.525 -196.176 97.686 C-194.024 97.996 -192.044 98.034 -189.875 97.938 C-183.688 97.745 -177.647 99.197 -171.598 100.344 C-168.007 100.999 -166.511 101.106 -163 100.375 C-161.515 100.189 -161.515 100.189 -160 100 C-158 102 -158 102 -158 105 C-156.67 104.505 -156.67 104.505 -155.312 104 C-152.291 103.088 -150.116 102.817 -147 103 C-146.67 104.32 -146.34 105.64 -146 107 C-144.48 106.965 -144.48 106.965 -142.93 106.93 C-141.578 106.911 -140.227 106.893 -138.875 106.875 C-138.21 106.858 -137.545 106.841 -136.859 106.824 C-132.505 106.782 -129.044 107.4 -125 109 C-125 109.66 -125 110.32 -125 111 C-124.282 111.098 -123.564 111.196 -122.824 111.297 C-115.905 112.296 -109.042 113.503 -102.188 114.875 C-101.4 115.024 -100.613 115.173 -99.802 115.327 C-94.327 116.453 -89.91 118.324 -85 121 C-85.99 122.98 -85.99 122.98 -87 125 C-107.06 122.321 -107.06 122.321 -115.562 120.312 C-120.975 119.064 -125.902 118.865 -131.438 119.02 C-135.401 118.989 -138.486 117.89 -141.867 115.902 C-144.442 114.813 -145.889 114.994 -148.625 115.438 C-152.806 116.097 -152.806 116.097 -155 115 C-155 114.01 -155 113.02 -155 112 C-157.756 112.498 -157.756 112.498 -160 114 C-162.938 114.25 -162.938 114.25 -166 114 C-166.66 113.01 -167.32 112.02 -168 111 C-170.173 110.234 -170.173 110.234 -172.719 109.867 C-173.651 109.701 -174.583 109.535 -175.543 109.363 C-176.519 109.202 -177.495 109.041 -178.5 108.875 C-180.427 108.541 -182.355 108.206 -184.281 107.867 C-185.138 107.724 -185.994 107.581 -186.877 107.433 C-189 107 -189 107 -191 106 C-191 105.34 -191 104.68 -191 104 C-191.813 103.891 -192.627 103.783 -193.465 103.671 C-203.031 102.354 -212.504 100.697 -221.992 98.918 C-222.776 98.772 -223.559 98.625 -224.367 98.474 C-228.51 97.7 -232.652 96.923 -236.793 96.142 C-241.016 95.347 -245.241 94.564 -249.466 93.783 C-252.767 93.171 -256.067 92.55 -259.366 91.927 C-260.92 91.635 -262.476 91.346 -264.032 91.06 C-272.078 89.58 -279.971 87.873 -287.801 85.482 C-288.461 85.283 -289.12 85.085 -289.8 84.881 C-295.06 83.201 -298.304 81.056 -302 77 C-303.572 73.856 -303.518 70.422 -303 67 C-299.747 60.268 -293.831 57.549 -287.121 54.836 C-270.893 49.406 -253.288 48.39 -236.357 46.892 C-232.852 46.582 -229.349 46.264 -225.845 45.944 C-219.674 45.383 -213.502 44.828 -207.33 44.275 C-197.431 43.388 -187.532 42.496 -177.634 41.595 C-174.203 41.284 -170.771 40.979 -167.339 40.674 C-150.777 39.543 -150.777 39.543 -134.676 35.875 C-131.37 34.794 -128.658 34.878 -125.188 35 C-112.629 35.204 -100.663 33.303 -88.438 30.562 C-87.522 30.357 -86.606 30.152 -85.662 29.941 C-81.657 29.003 -77.843 27.998 -74.039 26.426 C-69.147 24.499 -64.133 24.155 -58.938 23.625 C-42.37 21.666 -26.96 16.306 -13 7 C-12.288 5.793 -12.288 5.793 -11.562 4.562 C-8.337 -0.728 -5.99 -1.498 0 0 Z " fill="#202020" transform="translate(429,38)"/>
<path d="M0 0 C11.772 0.336 22.621 6.167 33.119 10.969 C38.565 13.439 44.1 15.615 49.684 17.755 C59.948 21.698 70.142 25.758 80.125 30.375 C81.001 30.767 81.876 31.159 82.778 31.563 C88.702 34.376 88.702 34.376 90.305 37.727 C90.534 38.477 90.764 39.227 91 40 C92.91 40.643 92.91 40.643 95 41 C96.887 42.559 96.887 42.559 98.688 44.438 C99.289 45.055 99.891 45.672 100.512 46.309 C103.724 49.96 103.333 53.987 103.562 58.625 C103.606 59.427 103.649 60.229 103.693 61.055 C103.8 63.036 103.9 65.018 104 67 C100.703 68.099 99.595 67.871 96.312 67.062 C95.504 66.868 94.696 66.673 93.863 66.473 C92.941 66.239 92.941 66.239 92 66 C91.67 64.35 91.34 62.7 91 61 C89.68 64.3 88.36 67.6 87 71 C88.32 70.67 89.64 70.34 91 70 C91.495 68.515 91.495 68.515 92 67 C93.98 67.495 93.98 67.495 96 68 C96 69.65 96 71.3 96 73 C95.374 73.17 94.747 73.34 94.102 73.516 C92.876 73.879 92.876 73.879 91.625 74.25 C90.813 74.482 90.001 74.714 89.164 74.953 C86.503 76.24 86.208 77.39 85 80 C79.811 81.405 79.811 81.405 77 80 C76.605 77.417 76.492 74.858 76.344 72.25 C76.174 71.136 76.174 71.136 76 70 C75.34 69.67 74.68 69.34 74 69 C74.66 69 75.32 69 76 69 C75.546 68.443 75.093 67.886 74.625 67.312 C72.942 64.918 72.039 62.728 71 60 C70.015 57.992 69.018 55.991 68 54 C67.01 54.835 67.01 54.835 66 55.688 C62.551 57.196 62.041 56.974 58.688 55.688 C57.449 55.145 56.217 54.589 55 54 C55 51.69 55 49.38 55 47 C55.66 47 56.32 47 57 47 C57 42.501 56.403 40.757 54 37 C51.678 35.326 49.555 33.971 47.062 32.625 C45.705 31.858 44.35 31.089 42.996 30.316 C42.322 29.934 41.647 29.551 40.953 29.157 C38.061 27.444 35.367 25.507 32.625 23.562 C27.743 20.235 23.838 18.778 18 18 C18 17.34 18 16.68 18 16 C17.374 15.974 16.747 15.948 16.102 15.922 C14.876 15.837 14.876 15.837 13.625 15.75 C12.407 15.68 12.407 15.68 11.164 15.609 C9 15 9 15 7.711 12.953 C7.359 11.986 7.359 11.986 7 11 C6.103 11.34 6.103 11.34 5.188 11.688 C3 12 3 12 1.25 10.75 C0 9 0 9 0 6 C-0.66 6 -1.32 6 -2 6 C-1.125 1.125 -1.125 1.125 0 0 Z " fill="#0B0B0B" transform="translate(60,210)"/>
<path d="M0 0 C0.33 0 0.66 0 1 0 C1 3.63 1 7.26 1 11 C2.567 11.309 4.135 11.619 5.75 11.938 C10.711 12.917 10.711 12.917 12.91 13.551 C15.832 14.179 18.701 14.16 21.688 14.25 C28.525 14.562 34.63 16.085 41.1 18.272 C46.397 20.022 51.052 20.667 56.605 19.41 C59.591 18.899 61.456 19.485 64.312 20.438 C65.637 20.869 65.637 20.869 66.988 21.309 C67.652 21.537 68.316 21.765 69 22 C68.041 22.433 68.041 22.433 67.062 22.875 C64.848 23.828 64.848 23.828 64 26 C61.934 26.852 61.934 26.852 59.438 27.625 C58.611 27.885 57.785 28.146 56.934 28.414 C56.296 28.607 55.657 28.801 55 29 C55 30.32 55 31.64 55 33 C55.66 33.33 56.32 33.66 57 34 C57 35.98 57 37.96 57 40 C49.802 39.847 43.484 38.662 36.688 36.438 C31.273 34.69 26.94 33.788 21.188 34.188 C6.214 34.817 -10.66 28.497 -24 22 C-24 21.01 -24 20.02 -24 19 C-22.546 18.536 -22.546 18.536 -21.062 18.062 C-17.851 16.379 -17.851 16.379 -17.379 13.797 C-17.146 11.521 -17.01 9.288 -17 7 C-11.085 7.452 -5.648 8.158 0 10 C0 6.7 0 3.4 0 0 Z " fill="#040404" transform="translate(30,269)"/>
<path d="M0 0 C5.413 0.543 9.419 2.455 14.125 5 C14.869 5.399 15.613 5.797 16.38 6.208 C24.147 10.471 31.376 15.371 37.66 21.664 C39.966 23.966 42.218 25.346 45 27 C45.66 27.99 46.32 28.98 47 30 C48.155 30.33 49.31 30.66 50.5 31 C54 32 54 32 56 35 C56.679 36.996 57.346 38.996 58 41 C58.841 43.269 58.841 43.269 60 45 C60.99 45.33 61.98 45.66 63 46 C63.717 47.646 64.375 49.317 65 51 C66.093 52.729 67.221 54.436 68.375 56.125 C71.879 61.523 74.075 66.885 76 73 C76.985 76.787 76.985 76.787 79 80 C79.352 85.367 79.511 87.839 76 92 C74.432 95.468 73.196 98.944 72.5 102.688 C71.855 105.671 70.908 107.615 69 110 C66.312 110.312 66.312 110.312 64 110 C62.895 108.254 62.895 108.254 62 106 C62.574 103.965 62.574 103.965 63.688 101.938 C64.042 101.266 64.396 100.594 64.762 99.902 C66 98 66 98 67.629 96.449 C69.333 94.952 69.333 94.952 69.25 91.875 C69.32 89.105 69.32 89.105 68 88 C67.639 80.666 67.639 80.666 69.07 78.023 C70.618 74.655 69.312 72.184 68.184 68.805 C65.158 61.635 61.793 55.91 55 52 C55 51.34 55 50.68 55 50 C52.508 48.704 50.067 47.64 47.438 46.625 C44.059 45.028 42.646 44.292 41 41 C40.812 38.25 40.812 38.25 41 36 C40.402 35.794 39.804 35.588 39.188 35.375 C37 34 37 34 35.719 31.215 C29.254 19.124 10.258 11.052 -2 6 C-1.494 3.831 -1 2 0 0 Z " fill="#181818" transform="translate(357,164)"/>
<path d="M0 0 C7.892 0.635 15.494 1.991 23.232 3.627 C28.196 4.627 32.745 5.096 37.801 4.974 C41.588 5.019 45.231 5.77 48.938 6.5 C55.445 7.851 55.445 7.851 62 7.375 C62.99 7.251 63.98 7.127 65 7 C67 9 67 9 67 12 C68.33 11.505 68.33 11.505 69.688 11 C72.709 10.088 74.884 9.817 78 10 C78.495 11.98 78.495 11.98 79 14 C80.013 13.977 81.026 13.954 82.07 13.93 C83.422 13.911 84.773 13.893 86.125 13.875 C86.79 13.858 87.455 13.841 88.141 13.824 C92.495 13.782 95.956 14.4 100 16 C100 16.66 100 17.32 100 18 C100.718 18.098 101.436 18.196 102.176 18.297 C109.095 19.296 115.958 20.503 122.812 21.875 C123.6 22.024 124.387 22.173 125.198 22.327 C130.673 23.453 135.09 25.324 140 28 C139.34 29.32 138.68 30.64 138 32 C117.94 29.321 117.94 29.321 109.438 27.312 C104.025 26.064 99.098 25.865 93.562 26.02 C89.599 25.989 86.514 24.89 83.133 22.902 C80.558 21.813 79.111 21.994 76.375 22.438 C72.194 23.097 72.194 23.097 70 22 C70 21.01 70 20.02 70 19 C67.244 19.498 67.244 19.498 65 21 C62.062 21.25 62.062 21.25 59 21 C58.34 20.01 57.68 19.02 57 18 C54.827 17.234 54.827 17.234 52.281 16.867 C51.349 16.701 50.417 16.535 49.457 16.363 C47.993 16.122 47.993 16.122 46.5 15.875 C44.573 15.541 42.645 15.206 40.719 14.867 C39.862 14.724 39.006 14.581 38.123 14.433 C36 14 36 14 34 13 C34 12.34 34 11.68 34 11 C33.233 10.902 32.466 10.804 31.676 10.703 C20.701 9.224 9.863 7.137 -1 5 C-0.67 3.35 -0.34 1.7 0 0 Z " fill="#171717" transform="translate(204,131)"/>
<path d="M0 0 C1.195 0.494 2.39 0.987 3.621 1.496 C5.226 2.144 6.832 2.791 8.438 3.438 C9.612 3.926 9.612 3.926 10.811 4.424 C15.574 6.325 19.771 7.314 24.873 7.728 C28.337 8.171 31.112 9.406 34.312 10.812 C35.484 11.314 36.656 11.815 37.863 12.332 C40.897 13.945 42.624 15.58 45 18 C47.292 19.094 47.292 19.094 49.688 19.75 C50.475 19.992 51.263 20.235 52.074 20.484 C53.829 21.043 53.829 21.043 55 21 C55.696 22.99 56.355 24.993 57 27 C57.214 27.65 57.428 28.299 57.648 28.969 C59.032 33.641 59.072 36.395 57 41 C54.69 40.34 52.38 39.68 50 39 C49.67 37.35 49.34 35.7 49 34 C48.34 34 47.68 34 47 34 C46.67 34.99 46.34 35.98 46 37 C40.25 36.125 40.25 36.125 38 35 C37.794 33.928 37.588 32.855 37.375 31.75 C35.524 26.701 32.648 25.346 28 23 C28.66 22.67 29.32 22.34 30 22 C29.67 20.68 29.34 19.36 29 18 C28.34 18 27.68 18 27 18 C26.34 18.99 25.68 19.98 25 21 C18.366 16.977 11.762 12.906 5.25 8.688 C4.265 8.052 3.28 7.416 2.266 6.762 C0 5 0 5 -1 2 C-0.67 1.34 -0.34 0.68 0 0 Z " fill="#FFFFFF" transform="translate(91,225)"/>
<path d="M0 0 C0.375 2.188 0.375 2.188 0 5 C-3.454 8.539 -6.49 10.346 -11.121 12.137 C-13.259 13.119 -14.975 14.363 -16.875 15.75 C-26.616 22.439 -38.596 26.286 -50 29 C-54.46 30.189 -54.46 30.189 -58.793 31.754 C-64.224 33.928 -69.461 34.425 -75.25 34.75 C-76.031 34.795 -76.812 34.839 -77.616 34.885 C-81.583 35.058 -85.123 35.023 -89 34 C-89 33.01 -89 32.02 -89 31 C-87.796 30.651 -86.592 30.301 -85.352 29.941 C-83.776 29.482 -82.2 29.022 -80.625 28.562 C-79.831 28.332 -79.037 28.102 -78.219 27.865 C-77.458 27.643 -76.698 27.421 -75.914 27.191 C-75.212 26.987 -74.511 26.783 -73.788 26.573 C-71.925 26.026 -71.925 26.026 -70 25 C-68.439 24.77 -66.871 24.584 -65.301 24.422 C-46.321 22.315 -29.086 17.724 -13 7 C-12.526 6.196 -12.051 5.391 -11.562 4.562 C-8.337 -0.728 -5.99 -1.498 0 0 Z " fill="#343434" transform="translate(429,38)"/>
<path d="M0 0 C1.65 0.454 3.3 0.908 5 1.375 C6.508 1.775 6.508 1.775 8.047 2.184 C9.801 2.668 11.546 3.189 13.266 3.785 C17.028 5.037 17.028 5.037 20.766 4.195 C21.922 3.44 23.071 2.676 24.215 1.902 C28.446 -0.237 33.237 1.769 37.5 3.062 C38.325 3.372 39.15 3.681 40 4 C39.041 4.433 39.041 4.433 38.062 4.875 C35.848 5.828 35.848 5.828 35 8 C32.934 8.852 32.934 8.852 30.438 9.625 C29.611 9.885 28.785 10.146 27.934 10.414 C27.296 10.607 26.657 10.801 26 11 C26 12.32 26 13.64 26 15 C26.66 15.33 27.32 15.66 28 16 C28 17.98 28 19.96 28 22 C21.501 20.649 15.249 18.922 8.938 16.875 C8.072 16.598 7.206 16.321 6.314 16.035 C4.208 15.36 2.104 14.681 0 14 C0 9.38 0 4.76 0 0 Z " fill="#FFFFFF" transform="translate(59,287)"/>
<path d="M0 0 C7.033 1.27 13.801 3.012 20.625 5.125 C21.534 5.402 22.443 5.679 23.379 5.965 C25.587 6.639 27.794 7.319 30 8 C30 12.95 30 17.9 30 23 C22.885 21.289 15.836 19.424 8.812 17.375 C8.058 17.157 7.303 16.939 6.526 16.714 C1.121 15.121 1.121 15.121 0 14 C-0.073 11.647 -0.084 9.292 -0.062 6.938 C-0.053 5.647 -0.044 4.357 -0.035 3.027 C-0.024 2.028 -0.012 1.029 0 0 Z " fill="#FFFFFF" transform="translate(14,278)"/>
<path d="M0 0 C0.998 0.023 1.995 0.046 3.023 0.07 C4.528 0.097 4.528 0.097 6.062 0.125 C6.833 0.148 7.604 0.171 8.398 0.195 C8.728 1.185 9.058 2.175 9.398 3.195 C10.475 3.342 10.475 3.342 11.574 3.492 C18.493 4.492 25.357 5.699 32.211 7.07 C33.392 7.294 33.392 7.294 34.597 7.522 C40.071 8.649 44.489 10.519 49.398 13.195 C48.738 14.515 48.078 15.835 47.398 17.195 C27.338 14.516 27.338 14.516 18.836 12.508 C12.623 11.079 6.749 10.881 0.398 11.195 C0.068 10.535 -0.262 9.875 -0.602 9.195 C-2.618 8.062 -2.618 8.062 -4.602 7.195 C-4.727 4.82 -4.727 4.82 -4.602 2.195 C-2.602 0.195 -2.602 0.195 0 0 Z " fill="#1E1E1E" transform="translate(294.6015625,145.8046875)"/>
<path d="M0 0 C29.157 6.041 29.157 6.041 40.117 12.086 C43.882 13.914 47.971 14.91 52 16 C52 16.66 52 17.32 52 18 C46.698 20.423 43.317 19.568 38.062 17.688 C31.162 15.419 24.963 14.563 17.672 14.312 C11.52 13.789 5.847 11.937 0 10 C0 6.7 0 3.4 0 0 Z " fill="#FFFFFF" transform="translate(31,270)"/>
<path d="M0 0 C1.224 -0.006 1.224 -0.006 2.473 -0.012 C3.263 -0.01 4.053 -0.009 4.867 -0.008 C5.588 -0.007 6.308 -0.006 7.05 -0.004 C9.184 0.129 11.073 0.543 13.125 1.125 C13.125 3.435 13.125 5.745 13.125 8.125 C11.996 8.055 11.996 8.055 10.844 7.984 C0.635 7.637 -10.803 9 -19.875 14.125 C-20.205 13.465 -20.535 12.805 -20.875 12.125 C-20.545 14.105 -20.215 16.085 -19.875 18.125 C-21.855 18.125 -23.835 18.125 -25.875 18.125 C-25.875 18.785 -25.875 19.445 -25.875 20.125 C-31.969 17.984 -31.969 17.984 -33.875 15.125 C-33.812 12.562 -33.812 12.562 -32.875 10.125 C-30.812 8.812 -30.812 8.812 -28.875 8.125 C-28.875 8.785 -28.875 9.445 -28.875 10.125 C-29.865 10.62 -29.865 10.62 -30.875 11.125 C-30.875 11.785 -30.875 12.445 -30.875 13.125 C-29.225 13.125 -27.575 13.125 -25.875 13.125 C-25.875 12.465 -25.875 11.805 -25.875 11.125 C-26.535 10.795 -27.195 10.465 -27.875 10.125 C-27.545 8.805 -27.215 7.485 -26.875 6.125 C-26.545 6.785 -26.215 7.445 -25.875 8.125 C-23.895 8.125 -21.915 8.125 -19.875 8.125 C-19.875 7.465 -19.875 6.805 -19.875 6.125 C-21.195 5.795 -22.515 5.465 -23.875 5.125 C-19.371 3.368 -15.699 2.932 -10.875 3.125 C-10.875 2.465 -10.875 1.805 -10.875 1.125 C-7.502 -0.561 -3.705 -0.017 0 0 Z " fill="#000000" transform="translate(204.875,163.875)"/>
<path d="M0 0 C0.66 0 1.32 0 2 0 C2 1.65 2 3.3 2 5 C2.66 5 3.32 5 4 5 C4 3.68 4 2.36 4 1 C4.66 1 5.32 1 6 1 C6.309 1.969 6.619 2.939 6.938 3.938 C7.695 6.841 7.695 6.841 9 8 C9.352 13.367 9.511 15.839 6 20 C4.432 23.468 3.196 26.944 2.5 30.688 C1.855 33.671 0.908 35.615 -1 38 C-3.688 38.312 -3.688 38.312 -6 38 C-7.105 36.254 -7.105 36.254 -8 34 C-7.426 31.965 -7.426 31.965 -6.312 29.938 C-5.958 29.266 -5.604 28.594 -5.238 27.902 C-4 26 -4 26 -2.371 24.449 C-0.667 22.952 -0.667 22.952 -0.75 19.875 C-0.68 17.105 -0.68 17.105 -2 16 C-2.385 8.174 -2.385 8.174 0 4 C0 2.68 0 1.36 0 0 Z " fill="#1D1D1D" transform="translate(427,236)"/>
<path d="M0 0 C0.918 0.553 1.836 1.106 2.781 1.676 C3.699 2.216 4.617 2.756 5.562 3.312 C6.46 3.866 7.357 4.419 8.281 4.988 C9.948 5.989 11.614 6.989 13.281 7.988 C12.807 8.38 12.333 8.772 11.844 9.176 C9.929 11.396 9.669 13.122 9.281 15.988 C8.621 15.988 7.961 15.988 7.281 15.988 C6.951 16.648 6.621 17.308 6.281 17.988 C2.651 16.998 -0.979 16.008 -4.719 14.988 C-4.059 14.658 -3.399 14.328 -2.719 13.988 C-3.068 9.237 -3.068 9.237 -5.094 5.051 C-6.814 3.715 -6.814 3.715 -9.719 3.988 C-10.577 7.423 -10.695 9.605 -9.719 12.988 C-11.658 12.537 -13.595 12.077 -15.531 11.613 C-16.61 11.358 -17.689 11.103 -18.801 10.84 C-21.719 9.988 -21.719 9.988 -24.719 7.988 C-21.089 6.998 -17.459 6.008 -13.719 4.988 C-13.389 3.338 -13.059 1.688 -12.719 -0.012 C-11.997 0.195 -11.275 0.401 -10.531 0.613 C-7.714 1.254 -7.714 1.254 -5.387 -0.156 C-2.719 -1.012 -2.719 -1.012 0 0 Z " fill="#FFFFFF" transform="translate(119.71875,303.01171875)"/>
<path d="M0 0 C6.558 3.418 12.842 7.137 19.062 11.125 C24.82 14.801 30.46 17.893 37 20 C37 22.31 37 24.62 37 27 C34.718 26.319 32.453 25.607 30.188 24.875 C29.545 24.687 28.902 24.499 28.24 24.305 C24.592 23.095 23.143 22.224 21.051 18.945 C20 16 20 16 20 14 C19.455 14.226 18.909 14.451 18.348 14.684 C15.762 15.537 13.733 16.012 11 16 C8.367 14.529 6.35 12.843 4.141 10.797 C1.856 8.879 -0.194 7.961 -3 7 C-2.67 6.34 -2.34 5.68 -2 5 C-1.34 5 -0.68 5 0 5 C0 3.35 0 1.7 0 0 Z " fill="#FFFFFF" transform="translate(124,294)"/>
<path d="M0 0 C0.375 2.188 0.375 2.188 0 5 C-3.454 8.539 -6.49 10.346 -11.121 12.137 C-13.259 13.119 -14.975 14.363 -16.875 15.75 C-21.222 18.74 -25.773 20.797 -30.625 22.812 C-31.7 23.265 -31.7 23.265 -32.796 23.728 C-37.224 25.514 -41.248 26.52 -46 27 C-44.302 23.603 -40.351 23.093 -36.938 21.875 C-35.8 21.459 -35.8 21.459 -34.639 21.035 C-32.761 20.35 -30.881 19.674 -29 19 C-29.99 18.67 -30.98 18.34 -32 18 C-27.701 15.178 -23.431 12.702 -18.75 10.562 C-14.357 8.433 -12.432 6.303 -10 2 C-6.647 -1.465 -4.562 -1.14 0 0 Z " fill="#1D1D1D" transform="translate(429,38)"/>
<path d="M0 0 C3.5 0.125 3.5 0.125 4.5 1.125 C4.625 3.625 4.625 3.625 4.5 6.125 C4.17 6.455 3.84 6.785 3.5 7.125 C3.267 8.807 3.087 10.496 2.938 12.188 C2.854 13.107 2.77 14.026 2.684 14.973 C2.623 15.683 2.562 16.393 2.5 17.125 C1.84 17.125 1.18 17.125 0.5 17.125 C0.83 20.755 1.16 24.385 1.5 28.125 C4.202 27.344 6.904 26.562 9.605 25.781 C12.353 25.158 14.696 25.002 17.5 25.125 C17.5 25.785 17.5 26.445 17.5 27.125 C14.2 27.785 10.9 28.445 7.5 29.125 C7.83 30.115 8.16 31.105 8.5 32.125 C6.5 32.168 4.5 32.166 2.5 32.125 C2.17 31.795 1.84 31.465 1.5 31.125 C1.005 32.61 1.005 32.61 0.5 34.125 C1.49 34.455 2.48 34.785 3.5 35.125 C3.17 36.115 2.84 37.105 2.5 38.125 C0.85 38.125 -0.8 38.125 -2.5 38.125 C-2.5 36.805 -2.5 35.485 -2.5 34.125 C-1.84 34.125 -1.18 34.125 -0.5 34.125 C-0.5 33.465 -0.5 32.805 -0.5 32.125 C-1.119 32.62 -1.738 33.115 -2.375 33.625 C-4.5 35.125 -4.5 35.125 -6.5 35.125 C-5.75 33.188 -5.75 33.188 -4.5 31.125 C-3.18 30.795 -1.86 30.465 -0.5 30.125 C-0.5 25.835 -0.5 21.545 -0.5 17.125 C-1.16 17.125 -1.82 17.125 -2.5 17.125 C-2.591 16.06 -2.591 16.06 -2.684 14.973 C-2.767 14.054 -2.851 13.134 -2.938 12.188 C-3.019 11.271 -3.1 10.354 -3.184 9.41 C-3.26 7.163 -3.26 7.163 -4.5 6.125 C-4.625 3.625 -4.625 3.625 -4.5 1.125 C-3.5 0.125 -3.5 0.125 0 0 Z " fill="#000000" transform="translate(176.5,139.875)"/>
<path d="M0 0 C1.609 -0.021 3.218 -0.041 4.875 -0.062 C5.78 -0.074 6.685 -0.086 7.617 -0.098 C10 0 10 0 12 1 C12 5.62 12 10.24 12 15 C8.04 15 4.08 15 0 15 C0 10.05 0 5.1 0 0 Z " fill="#FFFFFF" transform="translate(45,286)"/>
<path d="M0 0 C0 1.32 0 2.64 0 4 C-1.172 4.219 -2.344 4.438 -3.551 4.664 C-19.776 7.691 -19.776 7.691 -32.188 17.875 C-32.786 18.906 -33.384 19.938 -34 21 C-34.99 20.67 -35.98 20.34 -37 20 C-36.747 16.381 -36.271 14.358 -34.062 11.438 C-24.839 4.096 -11.825 -0.49 0 0 Z " fill="#1D1D1D" transform="translate(163,89)"/>
<path d="M0 0 C2.571 1.982 3.047 3.242 3.738 6.379 C3.907 7.791 4.047 9.208 4.113 10.629 C-3.496 9.349 -10.619 7.201 -17.887 4.629 C-11.899 -1.537 -8.1 -3.724 0 0 Z " fill="#FFFFFF" transform="translate(149.88671875,318.37109375)"/>
<path d="M0 0 C9.769 8.373 9.769 8.373 10.293 14.332 C10.258 15.481 10.223 16.629 10.188 17.812 C10.16 18.974 10.133 20.135 10.105 21.332 C10.071 22.212 10.036 23.093 10 24 C7.69 23.34 5.38 22.68 3 22 C2.01 14.74 1.02 7.48 0 0 Z " fill="#FFFFFF" transform="translate(151,252)"/>
<path d="M0 0 C-3.418 2.953 -6.927 4.154 -11.188 5.562 C-13.477 6.32 -15.755 7.12 -18 8 C-18.33 8.66 -18.66 9.32 -19 10 C-23.649 12.549 -28.816 12.617 -34 13 C-33.67 12.34 -33.34 11.68 -33 11 C-32.01 11 -31.02 11 -30 11 C-30 10.01 -30 9.02 -30 8 C-31.65 8 -33.3 8 -35 8 C-34.67 7.34 -34.34 6.68 -34 6 C-30.358 5.276 -26.729 4.741 -23.053 4.232 C-19.065 3.637 -15.451 2.899 -11.691 1.414 C-7.303 -0.267 -4.602 -0.247 0 0 Z " fill="#272727" transform="translate(402,56)"/>
<path d="M0 0 C0.33 0.99 0.66 1.98 1 3 C1.99 3.33 2.98 3.66 4 4 C3.34 4 2.68 4 2 4 C2 4.66 2 5.32 2 6 C0.104 5.689 -1.792 5.376 -3.688 5.062 C-4.743 4.888 -5.799 4.714 -6.887 4.535 C-10.966 3.834 -14.993 3.039 -19 2 C-19 1.34 -19 0.68 -19 0 C-20.98 0.33 -22.96 0.66 -25 1 C-25.66 -0.32 -26.32 -1.64 -27 -3 C-18.85 -5.391 -7.888 -2.535 0 0 Z " fill="#000000" transform="translate(331,154)"/>
<path d="M0 0 C0 1.65 0 3.3 0 5 C-1.111 5.11 -2.222 5.219 -3.367 5.332 C-13.058 6.343 -22.24 7.433 -31 12 C-30.812 9.668 -30.812 9.668 -30 7 C-21.951 1.274 -9.724 0 0 0 Z " fill="#FFFFFF" transform="translate(216,166)"/>
<path d="M0 0 C0 0.66 0 1.32 0 2 C1.763 1.938 1.763 1.938 3.562 1.875 C7.67 1.875 11.088 2.696 15 4 C16.134 4.371 17.269 4.743 18.438 5.125 C19.283 5.414 20.129 5.702 21 6 C20.67 4.35 20.34 2.7 20 1 C24.389 1.665 27.981 3.188 32 5 C31.34 6.32 30.68 7.64 30 9 C18.222 7.427 6.573 5.742 -5 3 C-5 2.34 -5 1.68 -5 1 C-2 0 -2 0 0 0 Z " fill="#000000" transform="translate(312,154)"/>
<path d="M0 0 C6.415 2.525 11.663 5.638 17 10 C16.67 10.99 16.34 11.98 16 13 C9.4 11.02 2.8 9.04 -4 7 C-2.68 6.67 -1.36 6.34 0 6 C0 4.02 0 2.04 0 0 Z " fill="#FFFFFF" transform="translate(159,323)"/>
<path d="M0 0 C0 0.66 0 1.32 0 2 C-1.111 2.098 -2.222 2.196 -3.367 2.297 C-11.806 3.118 -19.324 4.115 -27 8 C-27 8.66 -27 9.32 -27 10 C-23.04 11.65 -19.08 13.3 -15 15 C-15 15.33 -15 15.66 -15 16 C-21.348 15.66 -26.178 14.341 -31 10 C-32 7.188 -32 7.188 -32 5 C-31.34 4.67 -30.68 4.34 -30 4 C-29.67 4.66 -29.34 5.32 -29 6 C-28.199 5.602 -28.199 5.602 -27.383 5.195 C-18.343 0.91 -9.959 -0.381 0 0 Z " fill="#000000" transform="translate(215,171)"/>
<path d="M0 0 C0.33 0.66 0.66 1.32 1 2 C2.98 2 4.96 2 7 2 C6.707 4.018 6.414 6.036 6.121 8.055 C5.832 10.081 5.832 10.081 7 12 C5.02 12 3.04 12 1 12 C1 12.66 1 13.32 1 14 C-5.094 11.859 -5.094 11.859 -7 9 C-6.938 6.438 -6.938 6.438 -6 4 C-3.938 2.688 -3.938 2.688 -2 2 C-2 2.66 -2 3.32 -2 4 C-2.99 4.495 -2.99 4.495 -4 5 C-4 5.66 -4 6.32 -4 7 C-2.35 7 -0.7 7 1 7 C1 6.34 1 5.68 1 5 C0.34 4.67 -0.32 4.34 -1 4 C-0.67 2.68 -0.34 1.36 0 0 Z " fill="#FFFFFF" transform="translate(178,170)"/>
<path d="M0 0 C3.5 0.125 3.5 0.125 4.5 1.125 C5.042 5.734 3.638 9.077 1.5 13.125 C-0.688 14.562 -0.688 14.562 -2.5 15.125 C-2.728 13.074 -2.956 11.023 -3.184 8.973 C-3.319 7.114 -3.319 7.114 -4.5 6.125 C-4.625 3.625 -4.625 3.625 -4.5 1.125 C-3.5 0.125 -3.5 0.125 0 0 Z " fill="#252525" transform="translate(176.5,139.875)"/>
<path d="M0 0 C5.794 1.328 10.1 3.665 15 7 C8.872 11.085 8.872 11.085 5.438 10.75 C3 10 3 10 0 8 C-0.408 5.288 -0.133 2.756 0 0 Z " fill="#FFFFFF" transform="translate(105,284)"/>
<path d="M0 0 C6.251 0.43 12.042 1.014 18 3 C17.67 4.65 17.34 6.3 17 8 C8.585 6.515 8.585 6.515 0 5 C-0.33 4.01 -0.66 3.02 -1 2 C-0.67 1.34 -0.34 0.68 0 0 Z " fill="#FFFFFF" transform="translate(240,138)"/>
<path d="M0 0 C5.003 2.286 8.424 5.072 11 10 C12.129 15.584 12.045 21.326 12 27 C8.867 28.044 8.01 27.934 5 27 C5 26.34 5 25.68 5 25 C5.99 25 6.98 25 8 25 C8.082 23.105 8.139 21.209 8.188 19.312 C8.222 18.257 8.257 17.201 8.293 16.113 C7.817 11.055 5.087 7.898 1.812 4.188 C1.283 3.583 0.753 2.978 0.207 2.355 C-0.191 1.908 -0.59 1.461 -1 1 C-0.67 0.67 -0.34 0.34 0 0 Z " fill="#000000" transform="translate(152,250)"/>
<path d="M0 0 C1.98 0.99 3.96 1.98 6 3 C5.67 4.98 5.34 6.96 5 9 C3 8 3 8 2 5 C1.34 4.67 0.68 4.34 0 4 C-0.33 5.32 -0.66 6.64 -1 8 C-1.66 8 -2.32 8 -3 8 C-3 8.66 -3 9.32 -3 10 C-9.75 10.125 -9.75 10.125 -12 9 C-12 8.34 -12 7.68 -12 7 C-6.375 4 -6.375 4 -3 4 C-2.67 3.34 -2.34 2.68 -2 2 C-1.34 2 -0.68 2 0 2 C0 1.34 0 0.68 0 0 Z " fill="#FFFFFF" transform="translate(102,293)"/>
<path d="M0 0 C0 1.32 0 2.64 0 4 C-2.415 4.532 -4.831 5.051 -7.25 5.562 C-7.932 5.714 -8.614 5.865 -9.316 6.021 C-12.818 6.752 -15.603 7.322 -19 6 C-14.443 0.057 -7.052 -0.362 0 0 Z " fill="#1F1F1F" transform="translate(163,89)"/>
<path d="M0 0 C4.95 0 9.9 0 15 0 C15 1.98 15 3.96 15 6 C13.68 6.33 12.36 6.66 11 7 C10.34 5.68 9.68 4.36 9 3 C8.34 4.32 7.68 5.64 7 7 C6.856 6.361 6.711 5.721 6.562 5.062 C6.19 3.025 6.19 3.025 5 2 C3.515 4.475 3.515 4.475 2 7 C1.67 6.01 1.34 5.02 1 4 C1.33 3.34 1.66 2.68 2 2 C1.34 1.34 0.68 0.68 0 0 Z " fill="#080808" transform="translate(423,368)"/>
<path d="M0 0 C1.938 0.562 1.938 0.562 4 2 C4.75 5.625 4.75 5.625 5 9 C0.25 12 0.25 12 -2 12 C-3.354 5.723 -3.354 5.723 -1.562 2.062 C-1.047 1.382 -0.531 0.701 0 0 Z " fill="#FFFFFF" transform="translate(123,252)"/>
<path d="M0 0 C0.99 0 1.98 0 3 0 C3 1.65 3 3.3 3 5 C0.876 5.081 -1.25 5.139 -3.375 5.188 C-4.558 5.222 -5.742 5.257 -6.961 5.293 C-8.465 5.148 -8.465 5.148 -10 5 C-10.66 4.01 -11.32 3.02 -12 2 C-4.879 -1.491 -4.879 -1.491 0 0 Z " fill="#040404" transform="translate(181,204)"/>
<path d="M0 0 C6.868 5.827 11.544 14.409 14 23 C14.125 25.875 14.125 25.875 14 28 C13.34 28 12.68 28 12 28 C11.804 27.201 11.608 26.402 11.406 25.578 C9.293 17.816 6.372 11.944 1.609 5.461 C0 3 0 3 0 0 Z " fill="#FFFFFF" transform="translate(417,213)"/>
<path d="M0 0 C4.75 0.875 4.75 0.875 7 2 C7 4.31 7 6.62 7 9 C7.66 9.33 8.32 9.66 9 10 C9 10.66 9 11.32 9 12 C5.421 10.348 2.252 8.217 -1 6 C-0.67 4.02 -0.34 2.04 0 0 Z " fill="#FFFFFF" transform="translate(168,318)"/>
<path d="M0 0 C3.625 0.375 3.625 0.375 7 1 C6.34 3.64 5.68 6.28 5 9 C-0.875 8.125 -0.875 8.125 -2 7 C-2.188 4.562 -2.188 4.562 -2 2 C-1.34 1.34 -0.68 0.68 0 0 Z " fill="#FFFFFF" transform="translate(292,146)"/>
<path d="M0 0 C0.947 0.37 1.893 0.739 2.869 1.12 C4.409 1.72 4.409 1.72 5.98 2.333 C7.056 2.761 8.132 3.19 9.24 3.632 C10.859 4.257 10.859 4.257 12.511 4.895 C20.549 8.063 20.549 8.063 21.677 10.319 C15.969 9.408 10.617 7.31 5.183 5.403 C4.407 5.137 3.63 4.871 2.83 4.596 C2.129 4.351 1.427 4.106 0.705 3.854 C-1.618 3.149 -1.618 3.149 -5.323 3.319 C-4.993 2.329 -4.663 1.339 -4.323 0.319 C-2.323 -0.681 -2.323 -0.681 0 0 Z " fill="#FFFFFF" transform="translate(68.322509765625,212.680908203125)"/>
<path d="M0 0 C1.891 0.215 1.891 0.215 4 1 C5.047 3.066 5.047 3.066 5.75 5.562 C5.992 6.389 6.235 7.215 6.484 8.066 C6.655 8.704 6.825 9.343 7 10 C5.35 10.66 3.7 11.32 2 12 C1.468 10.567 0.95 9.128 0.438 7.688 C0.147 6.887 -0.143 6.086 -0.441 5.262 C-1 3 -1 3 0 0 Z " fill="#040404" transform="translate(127,277)"/>
<path d="M0 0 C4.95 1.65 9.9 3.3 15 5 C14.34 6.32 13.68 7.64 13 9 C12.67 8.01 12.34 7.02 12 6 C9.03 5.505 9.03 5.505 6 5 C6 6.98 6 8.96 6 11 C3.028 8.452 1.585 5.547 0 2 C0 1.34 0 0.68 0 0 Z " fill="#FFFFFF" transform="translate(131,263)"/>
<path d="M0 0 C1 1 1 1 1 7 C-4.94 5.515 -4.94 5.515 -11 4 C-7.032 0.032 -5.498 -0.234 0 0 Z " fill="#FFFFFF" transform="translate(102,283)"/>
<path d="M0 0 C0 0.66 0 1.32 0 2 C-2.683 3.156 -5.371 4.3 -8.062 5.438 C-8.815 5.763 -9.567 6.088 -10.342 6.424 C-14.945 8.357 -19.025 9.531 -24 10 C-22.702 7.404 -21.714 7.314 -19.035 6.309 C-18.235 6.004 -17.435 5.699 -16.611 5.385 C-15.77 5.072 -14.929 4.76 -14.062 4.438 C-12.407 3.812 -10.752 3.186 -9.098 2.559 C-8.36 2.283 -7.623 2.008 -6.864 1.724 C-2.427 0 -2.427 0 0 0 Z " fill="#000000" transform="translate(407,55)"/>
<path d="M0 0 C-1.485 1.485 -1.485 1.485 -3 3 C-2.01 3.66 -1.02 4.32 0 5 C-0.33 5.33 -0.66 5.66 -1 6 C-2.691 5.91 -4.38 5.754 -6.062 5.562 C-7.441 5.41 -7.441 5.41 -8.848 5.254 C-9.558 5.17 -10.268 5.086 -11 5 C-11 4.01 -11 3.02 -11 2 C-7.177 0.577 -4.087 -0.24 0 0 Z " fill="#424242" transform="translate(351,67)"/>
<path d="M0 0 C3.367 1.393 4.986 2.979 7 6 C6.01 6.99 5.02 7.98 4 9 C1.532 7.848 -0.048 6.952 -2 5 C-1.464 1.464 -1.464 1.464 0 0 Z " fill="#FFFFFF" transform="translate(396,190)"/>
<path d="M0 0 C3.3 0.33 6.6 0.66 10 1 C10 2.32 10 3.64 10 5 C9.196 4.814 8.391 4.629 7.562 4.438 C6.717 4.293 5.871 4.149 5 4 C4.67 4.33 4.34 4.66 4 5 C2.334 5.041 0.666 5.043 -1 5 C-0.67 3.35 -0.34 1.7 0 0 Z " fill="#414141" transform="translate(220,134)"/>
<path d="M0 0 C0.99 0 1.98 0 3 0 C3 2.64 3 5.28 3 8 C2.34 8 1.68 8 1 8 C0.67 8.66 0.34 9.32 0 10 C-0.66 9.67 -1.32 9.34 -2 9 C-2 6.69 -2 4.38 -2 2 C-1.34 2 -0.68 2 0 2 C0 1.34 0 0.68 0 0 Z " fill="#FFFFFF" transform="translate(103,257)"/>
<path d="M0 0 C2.375 0.188 2.375 0.188 5 1 C6.312 3.562 6.312 3.562 7 6 C5.02 6.99 5.02 6.99 3 8 C0.938 6.25 0.938 6.25 -1 4 C-0.75 1.75 -0.75 1.75 0 0 Z " fill="#FFFFFF" transform="translate(405,201)"/>
<path d="M0 0 C0.664 0.277 1.328 0.554 2.012 0.84 C3.336 1.383 3.336 1.383 4.688 1.938 C5.558 2.297 6.428 2.657 7.324 3.027 C9.882 3.957 12.322 4.542 15 5 C15 5.33 15 5.66 15 6 C7.919 6.409 1.801 4.904 -5 3 C-5 2.67 -5 2.34 -5 2 C-3.35 2 -1.7 2 0 2 C0 1.34 0 0.68 0 0 Z " fill="#FFFFFF" transform="translate(185,182)"/>
<path d="M0 0 C-2.847 1.443 -5.716 2.812 -8.625 4.125 C-9.401 4.478 -10.177 4.831 -10.977 5.195 C-13 6 -13 6 -15 6 C-15 5.34 -15 4.68 -15 4 C-16.32 3.67 -17.64 3.34 -19 3 C-12.677 0.687 -6.722 -0.164 0 0 Z " fill="#FFFFFF" transform="translate(200,166)"/>
<path d="M0 0 C1.485 0.396 2.963 0.818 4.438 1.25 C5.261 1.482 6.085 1.714 6.934 1.953 C7.616 2.299 8.297 2.644 9 3 C9.33 4.32 9.66 5.64 10 7 C5.545 6.01 5.545 6.01 1 5 C0.67 3.35 0.34 1.7 0 0 Z " fill="#FFFFFF" transform="translate(78,221)"/>
<path d="M0 0 C-3.732 3.57 -8.095 4.109 -13 5 C-12 2 -12 2 -10.438 0.812 C-6.889 -0.37 -3.733 -0.124 0 0 Z " fill="#7F7F7F" transform="translate(402,56)"/>
<path d="M0 0 C2.475 0.495 2.475 0.495 5 1 C5 2.65 5 4.3 5 6 C3.062 6.562 3.062 6.562 1 7 C0 6 0 6 -0.062 2.938 C-0.042 1.968 -0.021 0.999 0 0 Z " fill="#101010" transform="translate(418,368)"/>
<path d="M0 0 C0.99 0.66 1.98 1.32 3 2 C3 2.99 3 3.98 3 5 C0.688 5.688 0.688 5.688 -2 6 C-3.812 4.562 -3.812 4.562 -5 3 C-3.35 2.01 -1.7 1.02 0 0 Z " fill="#FFFFFF" transform="translate(119,293)"/>
<path d="M0 0 C7.625 1.75 7.625 1.75 11 4 C10.34 4 9.68 4 9 4 C9.33 4.99 9.66 5.98 10 7 C9.01 7 8.02 7 7 7 C6.711 6.361 6.422 5.721 6.125 5.062 C5.172 2.848 5.172 2.848 3 2 C3.33 3.32 3.66 4.64 4 6 C3.34 6 2.68 6 2 6 C1.34 4.02 0.68 2.04 0 0 Z " fill="#FFFFFF" transform="translate(67,217)"/>
<path d="M0 0 C-0.33 1.65 -0.66 3.3 -1 5 C-2.65 4.67 -4.3 4.34 -6 4 C-6 2.68 -6 1.36 -6 0 C-3 -1 -3 -1 0 0 Z " fill="#000000" transform="translate(185,194)"/>
<path d="M0 0 C0.99 0 1.98 0 3 0 C3 0.99 3 1.98 3 3 C4.65 3 6.3 3 8 3 C8 3.66 8 4.32 8 5 C4.7 5.33 1.4 5.66 -2 6 C-1.01 5.01 -0.02 4.02 1 3 C0.34 2.34 -0.32 1.68 -1 1 C-0.67 0.67 -0.34 0.34 0 0 Z " fill="#000000" transform="translate(337,69)"/>
<path d="M0 0 C0 0.99 0 1.98 0 3 C-2.31 3 -4.62 3 -7 3 C-7 2.01 -7 1.02 -7 0 C-4.333 -1.333 -2.833 -0.671 0 0 Z " fill="#FFFFFF" transform="translate(434,244)"/>
<path d="M0 0 C3 1.812 3 1.812 6 4 C6 4.99 6 5.98 6 7 C3.562 6.312 3.562 6.312 1 5 C0.188 2.375 0.188 2.375 0 0 Z " fill="#FFFFFF" transform="translate(384,180)"/>
<path d="M0 0 C2.31 0.33 4.62 0.66 7 1 C7.33 2.32 7.66 3.64 8 5 C4.562 4.188 4.562 4.188 1 3 C0.67 2.01 0.34 1.02 0 0 Z " fill="#FFFFFF" transform="translate(319,154)"/>
<path d="M0 0 C1.454 0.031 1.454 0.031 2.938 0.062 C2.938 1.382 2.938 2.703 2.938 4.062 C0.958 4.062 -1.023 4.062 -3.062 4.062 C-3.393 3.073 -3.722 2.082 -4.062 1.062 C-3.062 0.062 -3.062 0.062 0 0 Z " fill="#000000" transform="translate(160.0625,88.9375)"/>
<path d="M0 0 C1.938 0.688 1.938 0.688 4 2 C4.75 4.625 4.75 4.625 5 7 C3.062 6.312 3.062 6.312 1 5 C0.25 2.375 0.25 2.375 0 0 Z " fill="#FFFFFF" transform="translate(111,308)"/>
<path d="M0 0 C3 1.812 3 1.812 6 4 C6 4.99 6 5.98 6 7 C3.562 6.312 3.562 6.312 1 5 C0.188 2.375 0.188 2.375 0 0 Z " fill="#FFFFFF" transform="translate(377,175)"/>
<path d="M0 0 C1.98 0.99 3.96 1.98 6 3 C5.67 4.32 5.34 5.64 5 7 C2.5 5.75 2.5 5.75 0 4 C0 2.68 0 1.36 0 0 Z " fill="#FFFFFF" transform="translate(370,171)"/>
<path d="M0 0 C2.31 0.66 4.62 1.32 7 2 C7 2.99 7 3.98 7 5 C4.03 4.505 4.03 4.505 1 4 C0.67 2.68 0.34 1.36 0 0 Z " fill="#FFFFFF" transform="translate(311,152)"/>
<path d="M0 0 C2.475 0.495 2.475 0.495 5 1 C5 1.33 5 1.66 5 2 C3.35 2 1.7 2 0 2 C0 1.34 0 0.68 0 0 Z M-6 1 C-3.525 1.99 -3.525 1.99 -1 3 C-1 3.33 -1 3.66 -1 4 C-2.98 4 -4.96 4 -7 4 C-6.67 3.01 -6.34 2.02 -6 1 Z " fill="#000000" transform="translate(231,136)"/>
<path d="M0 0 C0 0.99 0 1.98 0 3 C-1.98 3.33 -3.96 3.66 -6 4 C-6.33 3.01 -6.66 2.02 -7 1 C-4.537 -0.231 -2.72 -0.072 0 0 Z " fill="#FFFFFF" transform="translate(372,64)"/>
<path d="M0 0 C2.899 0.468 3.867 0.867 6 3 C4.35 3.66 2.7 4.32 1 5 C0.34 3.68 -0.32 2.36 -1 1 C-0.67 0.67 -0.34 0.34 0 0 Z " fill="#FFFFFF" transform="translate(134,313)"/>
<path d="M0 0 C1.32 0 2.64 0 4 0 C4.33 1.32 4.66 2.64 5 4 C3.68 4.33 2.36 4.66 1 5 C0.67 3.35 0.34 1.7 0 0 Z " fill="#000000" transform="translate(155,269)"/>
<path d="M0 0 C2.97 0.495 2.97 0.495 6 1 C6 1.99 6 2.98 6 4 C4.35 3.67 2.7 3.34 1 3 C0.67 2.01 0.34 1.02 0 0 Z " fill="#FFFFFF" transform="translate(304,151)"/>
<path d="M0 0 C0.99 0 1.98 0 3 0 C3.369 4.554 3.369 4.554 1.5 6.812 C1.005 7.204 0.51 7.596 0 8 C0 5.36 0 2.72 0 0 Z " fill="#FFFFFF" transform="translate(175,147)"/>
<path d="M0 0 C2.438 0.812 2.438 0.812 5 2 C5.33 2.99 5.66 3.98 6 5 C4.35 4.67 2.7 4.34 1 4 C0.67 2.68 0.34 1.36 0 0 Z " fill="#FFFFFF" transform="translate(363,168)"/>
<path d="M0 0 C2.31 0.33 4.62 0.66 7 1 C6.01 1.495 6.01 1.495 5 2 C5 2.66 5 3.32 5 4 C3.35 3.67 1.7 3.34 0 3 C0 2.01 0 1.02 0 0 Z " fill="#FFFFFF" transform="translate(328,156)"/>
<path d="M0 0 C1.207 0.031 1.207 0.031 2.438 0.062 C2.438 0.723 2.438 1.382 2.438 2.062 C1.777 2.062 1.118 2.062 0.438 2.062 C0.438 4.043 0.438 6.022 0.438 8.062 C0.108 8.062 -0.223 8.062 -0.562 8.062 C-0.562 6.082 -0.562 4.103 -0.562 2.062 C-1.553 1.733 -2.543 1.402 -3.562 1.062 C-2.562 0.062 -2.562 0.062 0 0 Z " fill="#000000" transform="translate(412.5625,366.9375)"/>
<path d="M0 0 C0 1.65 0 3.3 0 5 C-0.99 5.33 -1.98 5.66 -3 6 C-3.66 5.67 -4.32 5.34 -5 5 C-5 4.34 -5 3.68 -5 3 C-1.423 0 -1.423 0 0 0 Z " fill="#0F0F0F" transform="translate(179,152)"/>
</svg>
