<?xml version="1.0" encoding="UTF-8"?>
<!-- Generator: visioncortex VTracer 0.6.4 -->
<svg version="1.1" xmlns="http://www.w3.org/2000/svg" width="320" height="330">
<path d="M0 0 C105.6 0 211.2 0 320 0 C320 108.9 320 217.8 320 330 C214.4 330 108.8 330 0 330 C0 221.1 0 112.2 0 0 Z " fill="#F7F7F7" transform="translate(0,0)"/>
<path d="M0 0 C1.308 0 2.616 0 3.964 0.001 C5.394 0.016 6.824 0.032 8.254 0.048 C9.72 0.053 11.186 0.057 12.652 0.06 C16.512 0.072 20.372 0.101 24.232 0.135 C28.154 0.165 32.076 0.179 35.998 0.194 C42.898 0.223 49.798 0.266 56.698 0.32 C59.02 0.336 61.342 0.341 63.664 0.341 C112.331 0.341 160.998 0.341 209.664 0.341 C211.41 0.33 213.156 0.319 214.902 0.307 C223.243 0.252 231.584 0.213 239.926 0.185 C244.544 0.169 249.162 0.148 253.78 0.114 C258.245 0.082 262.709 0.064 267.173 0.056 C268.877 0.05 270.581 0.04 272.284 0.023 C274.662 0.002 277.039 -0.001 279.417 0 C280.125 -0.011 280.833 -0.022 281.562 -0.033 C283.521 -0.02 283.521 -0.02 286.664 0.341 C288.93 3.74 288.902 4.904 288.86 8.884 C288.853 9.957 288.847 11.03 288.84 12.135 C288.823 13.255 288.807 14.375 288.789 15.528 C288.78 16.659 288.771 17.79 288.762 18.956 C288.738 21.751 288.705 24.546 288.664 27.341 C288.004 27.341 287.344 27.341 286.664 27.341 C286.639 26.649 286.614 25.958 286.588 25.245 C286.473 22.131 286.35 19.017 286.227 15.903 C286.187 14.814 286.148 13.726 286.108 12.604 C286.066 11.57 286.024 10.535 285.981 9.469 C285.944 8.511 285.907 7.553 285.87 6.565 C285.906 4.369 285.906 4.369 284.664 3.341 C282.405 3.236 280.143 3.202 277.881 3.195 C277.172 3.192 276.463 3.189 275.733 3.185 C273.378 3.176 271.023 3.174 268.668 3.173 C267.038 3.169 265.407 3.166 263.777 3.163 C260.354 3.157 256.932 3.155 253.51 3.155 C249.117 3.155 244.724 3.142 240.331 3.125 C236.962 3.113 233.593 3.111 230.224 3.112 C228.604 3.111 226.984 3.106 225.365 3.099 C223.102 3.089 220.839 3.092 218.577 3.098 C217.287 3.096 215.998 3.095 214.669 3.093 C211.55 3.024 211.55 3.024 209.664 5.341 C209.334 12.601 209.004 19.861 208.664 27.341 C182.924 27.341 157.184 27.341 130.664 27.341 C130.334 19.751 130.004 12.161 129.664 4.341 C127.876 2.552 125.215 3.204 122.799 3.195 C121.545 3.189 120.29 3.183 118.997 3.176 C117.617 3.174 116.236 3.173 114.856 3.173 C113.449 3.169 112.043 3.166 110.637 3.163 C107.685 3.157 104.734 3.155 101.782 3.155 C97.995 3.155 94.207 3.142 90.419 3.125 C87.514 3.113 84.608 3.111 81.703 3.112 C80.306 3.111 78.909 3.106 77.513 3.099 C75.561 3.089 73.61 3.093 71.659 3.098 C70.547 3.096 69.435 3.095 68.29 3.093 C65.506 3.074 65.506 3.074 63.664 5.341 C63.294 7.665 63.294 7.665 63.25 10.348 C63.212 11.335 63.173 12.321 63.133 13.337 C63.102 14.369 63.071 15.402 63.039 16.466 C63.001 17.506 62.962 18.546 62.922 19.618 C62.828 22.192 62.742 24.766 62.664 27.341 C62.004 27.341 61.344 27.341 60.664 27.341 C60.639 26.649 60.614 25.958 60.588 25.245 C60.473 22.131 60.35 19.017 60.227 15.903 C60.187 14.814 60.148 13.726 60.108 12.604 C60.066 11.57 60.024 10.535 59.981 9.469 C59.944 8.511 59.907 7.553 59.87 6.565 C59.906 4.369 59.906 4.369 58.664 3.341 C56.712 3.236 54.755 3.202 52.799 3.195 C51.545 3.189 50.29 3.183 48.997 3.176 C47.617 3.174 46.236 3.173 44.856 3.173 C43.449 3.169 42.043 3.166 40.637 3.163 C37.685 3.157 34.734 3.155 31.782 3.155 C27.995 3.155 24.207 3.142 20.419 3.125 C17.514 3.113 14.608 3.111 11.703 3.112 C10.306 3.111 8.909 3.106 7.513 3.099 C5.561 3.089 3.61 3.093 1.659 3.098 C0.547 3.096 -0.565 3.095 -1.71 3.093 C-4.494 3.074 -4.494 3.074 -6.336 5.341 C-6.706 7.665 -6.706 7.665 -6.75 10.348 C-6.788 11.335 -6.827 12.321 -6.867 13.337 C-6.898 14.369 -6.929 15.402 -6.961 16.466 C-6.999 17.506 -7.038 18.546 -7.078 19.618 C-7.172 22.192 -7.258 24.766 -7.336 27.341 C-7.996 27.341 -8.656 27.341 -9.336 27.341 C-9.423 23.403 -9.476 19.466 -9.523 15.528 C-9.548 14.409 -9.573 13.289 -9.599 12.135 C-9.609 11.062 -9.619 9.989 -9.629 8.884 C-9.644 7.894 -9.66 6.904 -9.676 5.884 C-9.336 3.341 -9.336 3.341 -8.21 1.703 C-5.47 -0.288 -3.363 -0.019 0 0 Z " fill="#171717" transform="translate(20.335693359375,281.659423828125)"/>
<path d="M0 0 C1.65 0.66 3.3 1.32 5 2 C5.33 1.34 5.66 0.68 6 0 C6.66 0 7.32 0 8 0 C8.495 0.99 8.495 0.99 9 2 C9.99 2 10.98 2 12 2 C12 1.34 12 0.68 12 0 C12.66 0 13.32 0 14 0 C14.495 0.99 14.495 0.99 15 2 C15.99 2 16.98 2 18 2 C18 1.34 18 0.68 18 0 C18.66 0 19.32 0 20 0 C20 0.66 20 1.32 20 2 C21.32 2 22.64 2 24 2 C24 1.34 24 0.68 24 0 C24.66 0 25.32 0 26 0 C26 0.66 26 1.32 26 2 C27.65 2 29.3 2 31 2 C31 1.34 31 0.68 31 0 C31.66 0 32.32 0 33 0 C33.495 1.485 33.495 1.485 34 3 C34.99 2.67 35.98 2.34 37 2 C37 1.34 37 0.68 37 0 C37.66 0 38.32 0 39 0 C39 0.66 39 1.32 39 2 C40.98 1.34 42.96 0.68 45 0 C45 0.66 45 1.32 45 2 C45.598 1.835 46.196 1.67 46.812 1.5 C50.156 0.736 52.751 1.104 56 2 C56 1.34 56 0.68 56 0 C57.98 0.66 59.96 1.32 62 2 C62 1.34 62 0.68 62 0 C62.66 0 63.32 0 64 0 C64.33 0.66 64.66 1.32 65 2 C65.66 2 66.32 2 67 2 C67.33 1.34 67.66 0.68 68 0 C68.763 0.186 69.526 0.371 70.312 0.562 C73.09 1.228 73.09 1.228 76 0 C76 0.66 76 1.32 76 2 C77.65 2 79.3 2 81 2 C81 1.34 81 0.68 81 0 C81.66 0 82.32 0 83 0 C83 0.66 83 1.32 83 2 C84.32 2 85.64 2 87 2 C87 1.34 87 0.68 87 0 C87.66 0 88.32 0 89 0 C89 0.66 89 1.32 89 2 C90.32 2 91.64 2 93 2 C93 1.34 93 0.68 93 0 C93.66 0 94.32 0 95 0 C95.33 0.66 95.66 1.32 96 2 C96.99 2.33 97.98 2.66 99 3 C99 2.01 99 1.02 99 0 C100.392 0.278 100.392 0.278 101.812 0.562 C105.013 1.241 105.013 1.241 108 0 C108 0.66 108 1.32 108 2 C109.32 2 110.64 2 112 2 C112 1.34 112 0.68 112 0 C112.66 0 113.32 0 114 0 C114.33 1.32 114.66 2.64 115 4 C115.66 4 116.32 4 117 4 C117.33 2.68 117.66 1.36 118 0 C118.66 0 119.32 0 120 0 C119.67 1.32 119.34 2.64 119 4 C119.784 4.124 120.567 4.248 121.375 4.375 C124 5 124 5 126 7 C126 7.99 126 8.98 126 10 C127.98 10.495 127.98 10.495 130 11 C130 11.99 130 12.98 130 14 C130.99 14.33 131.98 14.66 133 15 C133.062 15.722 133.124 16.444 133.188 17.188 C133.816 20.233 133.816 20.233 136.562 22.5 C139 25 139 25 139.25 27.5 C139.167 28.325 139.085 29.15 139 30 C139.297 31.673 139.621 33.343 140 35 C144.705 36.861 148.876 37.251 153.875 37.125 C154.908 37.111 154.908 37.111 155.961 37.098 C157.641 37.074 159.32 37.038 161 37 C161.33 36.34 161.66 35.68 162 35 C162.66 35 163.32 35 164 35 C164 35.99 164 36.98 164 38 C165.379 37.754 165.379 37.754 166.785 37.504 C171.988 36.761 177.193 36.893 182.438 36.938 C183.455 36.942 184.473 36.947 185.521 36.951 C188.014 36.963 190.507 36.979 193 37 C193 36.34 193 35.68 193 35 C193.66 35 194.32 35 195 35 C195.66 35.66 196.32 36.32 197 37 C197.99 37 198.98 37 200 37 C199.814 36.361 199.629 35.721 199.438 35.062 C199.293 34.382 199.149 33.701 199 33 C200 32 200 32 202.812 31.625 C206 32 206 32 208.188 34.5 C208.786 35.325 209.384 36.15 210 37 C210.99 37 211.98 37 213 37 C213 37.66 213 38.32 213 39 C212.01 39 211.02 39 210 39 C209.67 39.66 209.34 40.32 209 41 C207 43 207 43 203.5 43.312 C201.768 43.158 201.768 43.158 200 43 C199.34 42.01 198.68 41.02 198 40 C195.258 40 192.661 40.211 189.938 40.5 C183.494 41.181 176.469 41.754 170.125 40.375 C167.018 39.747 167.018 39.747 164.375 41.062 C163.591 41.372 162.808 41.681 162 42 C161.402 41.691 160.804 41.381 160.188 41.062 C157.232 39.627 155.172 40.178 152 40.711 C146.808 41.461 144.264 40.401 140.012 37.77 C137.487 35.549 136.858 33.675 135.812 30.5 C135.327 29.061 135.327 29.061 134.832 27.594 C134.557 26.738 134.283 25.882 134 25 C133.67 24.01 133.34 23.02 133 22 C132.34 22 131.68 22 131 22 C131 20.68 131 19.36 131 18 C130.34 18 129.68 18 129 18 C128.917 17.051 128.835 16.102 128.75 15.125 C128.502 14.094 128.255 13.062 128 12 C126.1 10.758 126.1 10.758 124 10 C123.01 8.515 123.01 8.515 122 7 C119.59 6.452 117.456 6.186 115 6 C113.821 5.908 112.641 5.817 111.426 5.723 C107.951 5.466 104.476 5.227 101 5 C100.67 5.66 100.34 6.32 100 7 C99.293 6.842 98.587 6.683 97.859 6.52 C94.958 5.992 92.206 5.794 89.262 5.684 C88.195 5.642 87.128 5.6 86.029 5.557 C84.927 5.517 83.824 5.478 82.688 5.438 C81.565 5.394 80.443 5.351 79.287 5.307 C76.525 5.201 73.763 5.099 71 5 C70.67 5.66 70.34 6.32 70 7 C69.345 6.844 68.69 6.688 68.016 6.527 C61.665 5.173 56.255 5.052 49.816 5.773 C46.044 6.077 42.718 5.644 39 5 C39 5.66 39 6.32 39 7 C38.34 7 37.68 7 37 7 C37 6.34 37 5.68 37 5 C36.454 5.164 35.908 5.327 35.346 5.496 C32.649 6.075 30.223 6.096 27.465 6.062 C26.408 6.055 25.352 6.047 24.264 6.039 C23.166 6.026 22.068 6.013 20.938 6 C18.759 5.975 16.581 5.953 14.402 5.938 C13.438 5.926 12.474 5.914 11.48 5.902 C8.866 5.89 8.866 5.89 6 7 C5.01 6.505 5.01 6.505 4 6 C-3.223 5.62 -10.349 5.631 -15.938 10.625 C-16.618 11.409 -17.299 12.192 -18 13 C-18.66 13 -19.32 13 -20 13 C-20.33 13.99 -20.66 14.98 -21 16 C-23.063 16.688 -23.063 16.688 -25 17 C-24.505 19.475 -24.505 19.475 -24 22 C-24.99 22 -25.98 22 -27 22 C-27.33 22.66 -27.66 23.32 -28 24 C-28.66 24 -29.32 24 -30 24 C-30.33 25.32 -30.66 26.64 -31 28 C-31.66 28 -32.32 28 -33 28 C-33.33 30.64 -33.66 33.28 -34 36 C-34.701 35.752 -35.403 35.505 -36.125 35.25 C-39.165 34.674 -39.165 34.674 -41.75 36.938 C-45.984 39.624 -49.128 39.39 -54 39 C-54.33 39.99 -54.66 40.98 -55 42 C-55.66 42 -56.32 42 -57 42 C-57 41.01 -57 40.02 -57 39 C-57.742 39.351 -58.485 39.701 -59.25 40.062 C-62.179 41.061 -63.154 40.915 -66 40 C-66.33 40.33 -66.66 40.66 -67 41 C-71.535 41.233 -71.535 41.233 -74 40 C-76.807 40.215 -79.58 40.581 -82.371 40.941 C-85 41 -85 41 -88 39 C-88 37.68 -88 36.36 -88 35 C-87.34 35 -86.68 35 -86 35 C-85.67 35.66 -85.34 36.32 -85 37 C-75.76 37 -66.52 37 -57 37 C-57 36.34 -57 35.68 -57 35 C-56.34 35 -55.68 35 -55 35 C-54.67 35.66 -54.34 36.32 -54 37 C-47.084 36.084 -43.069 34.816 -38 30 C-37.34 30 -36.68 30 -36 30 C-35.67 28.35 -35.34 26.7 -35 25 C-33.68 24.67 -32.36 24.34 -31 24 C-31 22.68 -31 21.36 -31 20 C-30.01 19.67 -29.02 19.34 -28 19 C-27.691 18.361 -27.381 17.721 -27.062 17.062 C-26 15 -26 15 -24.188 14.125 C-21.508 12.747 -20.201 10.78 -18.344 8.465 C-15.098 4.927 -11.796 4.039 -7.125 3.812 C-6.094 3.874 -5.062 3.936 -4 4 C-4 3.34 -4 2.68 -4 2 C-2.68 2 -1.36 2 0 2 C0 1.34 0 0.68 0 0 Z " fill="#010101" transform="translate(98,191)"/>
<path d="M0 0 C6.125 0.354 11.693 0.609 17.75 -0.5 C21.515 -0.338 25.243 0.005 28.996 0.344 C32.749 0.5 36.052 0.1 39.75 -0.5 C41.332 -0.582 42.916 -0.631 44.5 -0.625 C45.237 -0.628 45.975 -0.63 46.734 -0.633 C48.75 -0.5 48.75 -0.5 51.75 0.5 C52.74 0.17 53.73 -0.16 54.75 -0.5 C56.649 -0.411 58.546 -0.255 60.438 -0.062 C67.073 0.533 73.569 0.503 80.219 0.34 C83.628 0.494 85.76 0.904 88.75 2.5 C91.319 5.867 91.75 7.166 91.75 11.5 C92.41 11.5 93.07 11.5 93.75 11.5 C94.74 14.8 95.73 18.1 96.75 21.5 C97.41 21.5 98.07 21.5 98.75 21.5 C98.75 22.16 98.75 22.82 98.75 23.5 C98.09 23.5 97.43 23.5 96.75 23.5 C97.74 24.985 97.74 24.985 98.75 26.5 C99.383 29.059 99.383 29.059 99.875 31.938 C100.043 32.885 100.21 33.832 100.383 34.809 C100.75 37.5 100.75 37.5 100.75 41.5 C101.41 41.5 102.07 41.5 102.75 41.5 C102.75 43.15 102.75 44.8 102.75 46.5 C103.41 46.5 104.07 46.5 104.75 46.5 C105.08 51.78 105.41 57.06 105.75 62.5 C106.41 62.5 107.07 62.5 107.75 62.5 C108.74 65.47 109.73 68.44 110.75 71.5 C111.572 71.498 112.395 71.496 113.242 71.493 C120.982 71.473 128.722 71.458 136.462 71.448 C140.442 71.443 144.421 71.436 148.401 71.425 C152.239 71.414 156.078 71.408 159.916 71.405 C161.383 71.403 162.849 71.4 164.316 71.394 C166.365 71.387 168.415 71.386 170.464 71.386 C172.216 71.383 172.216 71.383 174.004 71.38 C176.75 71.5 176.75 71.5 178.75 72.5 C178.75 73.16 178.75 73.82 178.75 74.5 C155.32 74.5 131.89 74.5 107.75 74.5 C107.42 72.19 107.09 69.88 106.75 67.5 C106.09 67.5 105.43 67.5 104.75 67.5 C104.639 66.926 104.529 66.351 104.415 65.759 C103.906 63.13 103.39 60.503 102.875 57.875 C102.701 56.971 102.527 56.068 102.348 55.137 C101.424 50.448 100.297 46.029 98.75 41.5 C98.75 40.51 98.75 39.52 98.75 38.5 C98.09 38.5 97.43 38.5 96.75 38.5 C96.677 37.504 96.677 37.504 96.602 36.488 C96.489 35.164 96.489 35.164 96.375 33.812 C96.271 32.507 96.271 32.507 96.164 31.176 C95.727 28.354 94.85 26.126 93.75 23.5 C93.27 21.735 92.812 19.964 92.375 18.188 C90.559 10.868 90.559 10.868 86.75 4.5 C79.219 3.086 71.575 3.418 63.938 3.5 C61.535 3.526 59.133 3.547 56.73 3.562 C55.678 3.574 54.625 3.586 53.54 3.598 C51.076 3.511 49.102 3.174 46.75 2.5 C45.294 2.41 43.834 2.37 42.375 2.375 C41.645 2.372 40.916 2.37 40.164 2.367 C37.671 2.45 37.671 2.45 34.949 3.039 C31.2 3.579 27.685 3.331 23.938 3 C18.8 2.604 14.019 2.546 8.922 3.312 C6.293 3.539 3.873 3.284 1.25 3 C-4.505 2.422 -9.991 2.677 -15.738 3.096 C-21.811 3.525 -27.794 3.509 -33.883 3.34 C-39.4 3.602 -42.981 4.108 -46.797 8.293 C-47.551 9.411 -48.285 10.543 -49 11.688 C-49.373 12.24 -49.745 12.792 -50.129 13.361 C-52.677 17.238 -54.523 21.199 -56.25 25.5 C-56.91 25.5 -57.57 25.5 -58.25 25.5 C-58.25 28.14 -58.25 30.78 -58.25 33.5 C-59.24 33.995 -59.24 33.995 -60.25 34.5 C-60.972 36.144 -61.644 37.811 -62.25 39.5 C-62.91 39.5 -63.57 39.5 -64.25 39.5 C-64.198 40.422 -64.198 40.422 -64.145 41.363 C-64.117 42.172 -64.09 42.98 -64.062 43.812 C-64.01 45.013 -64.01 45.013 -63.957 46.238 C-64.25 48.5 -64.25 48.5 -65.656 49.904 C-67.389 51.64 -68.107 53.049 -69.047 55.301 C-69.526 56.396 -69.526 56.396 -70.016 57.514 C-70.665 59.031 -71.306 60.552 -71.938 62.076 C-74.292 67.398 -76.952 71.747 -82.25 74.5 C-85.613 75.162 -88.777 75.077 -92.188 74.875 C-93.062 74.848 -93.937 74.821 -94.838 74.793 C-96.976 74.723 -99.114 74.615 -101.25 74.5 C-101.25 76.15 -101.25 77.8 -101.25 79.5 C-105.125 78.625 -105.125 78.625 -106.25 77.5 C-106.745 78.49 -106.745 78.49 -107.25 79.5 C-108.24 79.17 -109.23 78.84 -110.25 78.5 C-110.25 77.18 -110.25 75.86 -110.25 74.5 C-114.21 74.5 -118.17 74.5 -122.25 74.5 C-122.25 73.51 -122.25 72.52 -122.25 71.5 C-121.514 71.535 -120.778 71.57 -120.02 71.605 C-114.347 71.763 -111.067 71.711 -106.25 68.5 C-103.938 69.312 -103.938 69.312 -102.25 70.5 C-102.25 71.16 -102.25 71.82 -102.25 72.5 C-101.198 72.335 -100.146 72.17 -99.062 72 C-93.144 71.243 -87.205 71.418 -81.25 71.5 C-80.755 70.015 -80.755 70.015 -80.25 68.5 C-79.808 68.085 -79.366 67.67 -78.91 67.242 C-76.512 64.726 -75.185 61.723 -73.688 58.625 C-73.232 57.707 -73.232 57.707 -72.768 56.77 C-70.263 51.672 -68.223 46.634 -66.625 41.188 C-66.234 39.863 -66.234 39.863 -65.836 38.512 C-65.643 37.848 -65.449 37.184 -65.25 36.5 C-64.59 36.5 -63.93 36.5 -63.25 36.5 C-63.147 35.634 -63.044 34.767 -62.938 33.875 C-62.25 30.5 -62.25 30.5 -60.625 27.312 C-58.854 24.522 -58.854 24.522 -60.25 21.5 C-59.26 21.17 -58.27 20.84 -57.25 20.5 C-56.548 18.848 -55.88 17.181 -55.25 15.5 C-54.59 15.17 -53.93 14.84 -53.25 14.5 C-52.321 13.011 -51.453 11.484 -50.625 9.938 C-49.956 8.698 -49.956 8.698 -49.273 7.434 C-48.936 6.796 -48.598 6.157 -48.25 5.5 C-47.59 5.5 -46.93 5.5 -46.25 5.5 C-46.25 4.51 -46.25 3.52 -46.25 2.5 C-39.234 1.107 -32.588 0.289 -25.43 0.527 C-22.76 0.504 -20.291 0.288 -17.648 -0.027 C-11.724 -0.661 -5.936 -0.348 0 0 Z " fill="#000000" transform="translate(132.25,144.5)"/>
<path d="M0 0 C1.856 -0.012 1.856 -0.012 3.75 -0.023 C7 0.375 7 0.375 8.926 1.492 C10.534 4.31 10.285 6.662 10.188 9.875 C10.16 11.02 10.133 12.164 10.105 13.344 C10.071 14.344 10.036 15.344 10 16.375 C10 18.459 10.038 20.542 10.105 22.625 C10.133 23.862 10.16 25.1 10.188 26.375 C10.24 28.231 10.24 28.231 10.293 30.125 C10 33.375 10 33.375 8.934 35.297 C5.933 36.97 3.273 36.695 -0.125 36.625 C-1.386 36.61 -2.646 36.594 -3.945 36.578 C-7 36.375 -7 36.375 -8 35.375 C-8.66 36.365 -9.32 37.355 -10 38.375 C-11.32 38.045 -12.64 37.715 -14 37.375 C-13.67 35.725 -13.34 34.075 -13 32.375 C-12.01 32.375 -11.02 32.375 -10 32.375 C-10.023 31.46 -10.046 30.545 -10.07 29.602 C-10.088 28.413 -10.106 27.225 -10.125 26 C-10.148 24.817 -10.171 23.633 -10.195 22.414 C-10 19.375 -10 19.375 -8 17.375 C-8.66 16.715 -9.32 16.055 -10 15.375 C-10.301 12.66 -10.301 12.66 -10.312 9.438 C-10.329 8.377 -10.346 7.316 -10.363 6.223 C-10 3.375 -10 3.375 -8.918 1.52 C-5.971 -0.239 -3.396 -0.021 0 0 Z " fill="#000000" transform="translate(212,10.625)"/>
<path d="M0 0 C1.133 -0.008 2.266 -0.015 3.434 -0.023 C6.947 0.424 8.129 0.842 10.562 3.375 C11.017 6.469 11.017 6.469 10.953 10.23 C10.947 10.892 10.942 11.554 10.936 12.235 C10.914 14.345 10.863 16.453 10.812 18.562 C10.792 19.994 10.774 21.426 10.758 22.857 C10.714 26.364 10.645 29.869 10.562 33.375 C9.903 33.375 9.243 33.375 8.562 33.375 C8.233 34.365 7.903 35.355 7.562 36.375 C5.25 36.402 2.938 36.421 0.625 36.438 C-0.663 36.449 -1.951 36.461 -3.277 36.473 C-6.438 36.375 -6.438 36.375 -7.438 35.375 C-7.85 35.891 -8.263 36.406 -8.688 36.938 C-9.265 37.412 -9.843 37.886 -10.438 38.375 C-12.625 38.062 -12.625 38.062 -14.438 37.375 C-14.108 35.725 -13.778 34.075 -13.438 32.375 C-12.117 32.375 -10.797 32.375 -9.438 32.375 C-9.438 30.395 -9.438 28.415 -9.438 26.375 C-7.771 26.332 -6.104 26.334 -4.438 26.375 C-3.438 27.375 -3.438 27.375 -3.375 29.938 C-3.396 30.742 -3.416 31.546 -3.438 32.375 C0.028 31.88 0.028 31.88 3.562 31.375 C3.892 27.745 4.222 24.115 4.562 20.375 C2.809 20.437 1.056 20.499 -0.75 20.562 C-5.813 20.741 -5.813 20.741 -8.27 19.301 C-10.058 16.352 -9.834 13.787 -9.812 10.375 C-9.82 9.137 -9.828 7.9 -9.836 6.625 C-9.438 3.375 -9.438 3.375 -8.316 1.461 C-5.524 -0.153 -3.2 -0.022 0 0 Z " fill="#000000" transform="translate(59.4375,10.625)"/>
<path d="M0 0 C1.717 -0.012 1.717 -0.012 3.469 -0.023 C6.5 0.375 6.5 0.375 8.395 1.492 C10.047 4.306 9.786 6.645 9.688 9.875 C9.66 11.02 9.633 12.164 9.605 13.344 C9.571 14.344 9.536 15.344 9.5 16.375 C9.5 18.459 9.538 20.542 9.605 22.625 C9.633 23.862 9.66 25.1 9.688 26.375 C9.74 28.231 9.74 28.231 9.793 30.125 C9.5 33.375 9.5 33.375 8.395 35.289 C5.578 36.904 3.222 36.772 0 36.75 C-1.717 36.762 -1.717 36.762 -3.469 36.773 C-6.5 36.375 -6.5 36.375 -8.395 35.082 C-10.188 32.313 -9.681 29.572 -9.5 26.375 C-7.85 26.375 -6.2 26.375 -4.5 26.375 C-4.17 28.025 -3.84 29.675 -3.5 31.375 C-1.19 31.705 1.12 32.035 3.5 32.375 C3.5 28.415 3.5 24.455 3.5 20.375 C0.86 20.375 -1.78 20.375 -4.5 20.375 C-4.5 18.725 -4.5 17.075 -4.5 15.375 C-1.86 15.375 0.78 15.375 3.5 15.375 C3.5 12.075 3.5 8.775 3.5 5.375 C0.86 5.375 -1.78 5.375 -4.5 5.375 C-4.222 6.334 -4.222 6.334 -3.938 7.312 C-3.793 7.993 -3.649 8.674 -3.5 9.375 C-4.5 10.375 -4.5 10.375 -7.062 10.438 C-7.867 10.417 -8.671 10.396 -9.5 10.375 C-9.864 3.938 -9.864 3.938 -8.395 1.668 C-5.606 -0.235 -3.341 -0.023 0 0 Z " fill="#000000" transform="translate(188.5,10.625)"/>
<path d="M0 0 C0.66 0.33 1.32 0.66 2 1 C2.414 3.285 2.414 3.285 2.625 6.062 C2.7 6.982 2.775 7.901 2.852 8.848 C2.901 9.558 2.95 10.268 3 11 C4.32 11 5.64 11 7 11 C7 11.66 7 12.32 7 13 C7.66 12.67 8.32 12.34 9 12 C9 11.34 9 10.68 9 10 C7.02 9.34 5.04 8.68 3 8 C3 5.69 3 3.38 3 1 C5.739 -0.37 7.971 -0.126 11 0 C11.66 0.33 12.32 0.66 13 1 C13 5.29 13 9.58 13 14 C11.02 14.99 11.02 14.99 9 16 C9 16.66 9 17.32 9 18 C8.34 18 7.68 18 7 18 C7 17.34 7 16.68 7 16 C5.02 16.66 3.04 17.32 1 18 C0.67 17.34 0.34 16.68 0 16 C-0.99 16 -1.98 16 -3 16 C-3 16.66 -3 17.32 -3 18 C-5 18 -5 18 -6.613 16.422 C-8.45 13.215 -8.298 10.92 -8.188 7.25 C-8.16 6.08 -8.133 4.909 -8.105 3.703 C-8.071 2.811 -8.036 1.919 -8 1 C-5.261 -0.37 -3.029 -0.126 0 0 Z " fill="#080808" transform="translate(234,50)"/>
<path d="M0 0 C6.27 0 12.54 0 19 0 C19 7.875 19 7.875 17 12 C16.34 12 15.68 12 15 12 C14.856 12.763 14.711 13.526 14.562 14.312 C14 17 14 17 13 20 C12.742 23.242 12.558 26.479 12.395 29.727 C12.102 34.898 12.102 34.898 11 36 C9.334 36.041 7.666 36.043 6 36 C5.058 23.645 6.395 15.631 13 5 C8.71 5 4.42 5 0 5 C0 3.35 0 1.7 0 0 Z " fill="#000000" transform="translate(74,11)"/>
<path d="M0 0 C0.749 0.005 1.498 0.01 2.269 0.016 C3.078 0.019 3.887 0.022 4.72 0.026 C5.571 0.034 6.421 0.042 7.297 0.051 C8.151 0.056 9.005 0.06 9.885 0.065 C12.001 0.077 14.118 0.094 16.234 0.114 C17.81 4.859 16.375 8.046 14.359 12.364 C14.077 13 13.795 13.637 13.504 14.293 C11.426 18.922 11.426 18.922 10.234 20.114 C9.997 22.806 9.812 25.479 9.672 28.176 C9.628 28.935 9.585 29.693 9.541 30.475 C9.434 32.354 9.334 34.234 9.234 36.114 C7.584 36.114 5.934 36.114 4.234 36.114 C3.468 17.773 3.468 17.773 8.234 9.114 C8.894 9.114 9.554 9.114 10.234 9.114 C10.234 8.124 10.234 7.134 10.234 6.114 C6.274 5.784 2.314 5.454 -1.766 5.114 C-2.096 3.794 -2.426 2.474 -2.766 1.114 C-1.766 0.114 -1.766 0.114 0 0 Z " fill="#000000" transform="translate(228.765869140625,10.886474609375)"/>
<path d="M0 0 C1.666 -0.043 3.334 -0.041 5 0 C6 1 6 1 6.114 4.326 C6.113 5.802 6.108 7.278 6.098 8.754 C6.096 9.529 6.095 10.305 6.093 11.104 C6.088 13.59 6.075 16.076 6.062 18.562 C6.057 20.244 6.053 21.926 6.049 23.607 C6.038 27.738 6.021 31.869 6 36 C4.02 36 2.04 36 0 36 C-0.33 27.75 -0.66 19.5 -1 11 C-2.32 11 -3.64 11 -5 11 C-5.25 8.688 -5.25 8.688 -5 6 C-3.062 4.375 -3.062 4.375 -1 3 C-0.67 2.01 -0.34 1.02 0 0 Z " fill="#000000" transform="translate(35,11)"/>
<path d="M0 0 C1.516 0.031 1.516 0.031 3.062 0.062 C3.722 0.062 4.382 0.062 5.062 0.062 C10.396 0.062 15.729 0.062 21.062 0.062 C21.062 3.363 21.062 6.663 21.062 10.062 C15.062 10.062 9.062 10.062 3.062 10.062 C2.031 10.083 1 10.104 -0.062 10.125 C-2.938 10.062 -2.938 10.062 -3.938 9.062 C-4.07 7.25 -4.07 7.25 -4.062 5.062 C-4.065 4.341 -4.068 3.619 -4.07 2.875 C-3.843 -0.234 -3.158 0.067 0 0 Z " fill="#000000" transform="translate(237.9375,284.9375)"/>
<path d="M0 0 C4.29 0 8.58 0 13 0 C13 5.28 13 10.56 13 16 C8.71 16 4.42 16 0 16 C0 10.72 0 5.44 0 0 Z " fill="#2D2D2D" transform="translate(164,11)"/>
<path d="M0 0 C3.092 0.033 6.185 0.065 9.277 0.098 C9.277 5.378 9.277 10.658 9.277 16.098 C0 16.195 0 16.195 -2.723 16.098 C-3.723 15.098 -3.723 15.098 -3.855 11.973 C-3.853 10.694 -3.85 9.415 -3.848 8.098 C-3.85 6.819 -3.853 5.54 -3.855 4.223 C-3.682 0.132 -3.682 0.132 0 0 Z " fill="#060606" transform="translate(14.72265625,10.90234375)"/>
<path d="M0 0 C1.114 0.248 1.114 0.248 2.25 0.5 C5.909 1.165 8.965 1.006 12.625 0.375 C13.739 0.251 14.852 0.127 16 0 C18 2 18 2 18.125 5.625 C18.084 6.739 18.042 7.852 18 9 C17.34 9 16.68 9 16 9 C16 9.66 16 10.32 16 11 C15.01 11.66 14.02 12.32 13 13 C12.01 12.67 11.02 12.34 10 12 C9.67 11.34 9.34 10.68 9 10 C7.68 10 6.36 10 5 10 C5 9.01 5 8.02 5 7 C4.34 8.32 3.68 9.64 3 11 C2.01 10.67 1.02 10.34 0 10 C0 6.7 0 3.4 0 0 Z " fill="#242424" transform="translate(137,55)"/>
<path d="M0 0 C1.207 0.031 1.207 0.031 2.438 0.062 C2.767 0.723 3.098 1.382 3.438 2.062 C4.098 1.402 4.757 0.743 5.438 0.062 C8.062 0.438 8.062 0.438 10.438 1.062 C11.362 5.778 11.667 8.735 9.438 13.062 C7.788 12.733 6.137 12.402 4.438 12.062 C4.438 11.402 4.438 10.743 4.438 10.062 C3.777 10.062 3.118 10.062 2.438 10.062 C2.438 11.053 2.438 12.043 2.438 13.062 C0.771 13.105 -0.896 13.103 -2.562 13.062 C-3.562 12.062 -3.562 12.062 -3.695 9.594 C-3.693 8.593 -3.69 7.593 -3.688 6.562 C-3.69 5.562 -3.693 4.562 -3.695 3.531 C-3.513 0.148 -3.399 0.083 0 0 Z " fill="#1B1B1B" transform="translate(276.5625,314.9375)"/>
<path d="M0 0 C0.66 0.33 1.32 0.66 2 1 C2 5.29 2 9.58 2 14 C2.66 14 3.32 14 4 14 C3.67 15.32 3.34 16.64 3 18 C2.34 18 1.68 18 1 18 C0.67 17.34 0.34 16.68 0 16 C-0.99 16 -1.98 16 -3 16 C-3 16.66 -3 17.32 -3 18 C-5 18 -5 18 -6.613 16.422 C-8.45 13.215 -8.298 10.92 -8.188 7.25 C-8.16 6.08 -8.133 4.909 -8.105 3.703 C-8.071 2.811 -8.036 1.919 -8 1 C-5.261 -0.37 -3.029 -0.126 0 0 Z " fill="#000000" transform="translate(34,50)"/>
<path d="M0 0 C1.268 0.031 1.268 0.031 2.562 0.062 C3.222 0.062 3.882 0.062 4.562 0.062 C5.552 0.062 6.543 0.062 7.562 0.062 C7.892 2.373 8.222 4.683 8.562 7.062 C9.222 4.752 9.882 2.442 10.562 0.062 C11.222 0.062 11.882 0.062 12.562 0.062 C12.616 1.52 12.655 2.979 12.688 4.438 C12.711 5.25 12.734 6.062 12.758 6.898 C12.562 9.062 12.562 9.062 10.562 11.062 C8.625 10.688 8.625 10.688 6.562 10.062 C5.573 10.062 4.582 10.062 3.562 10.062 C3.233 10.392 2.903 10.723 2.562 11.062 C0.062 11.188 0.062 11.188 -2.438 11.062 C-3.438 10.062 -3.438 10.062 -3.57 8.031 C-3.568 7.217 -3.565 6.402 -3.562 5.562 C-3.565 4.748 -3.568 3.933 -3.57 3.094 C-3.374 0.09 -3.025 0.078 0 0 Z " fill="#0C0C0C" transform="translate(101.4375,296.9375)"/>
<path d="M0 0 C1.268 0.031 1.268 0.031 2.562 0.062 C3.222 0.062 3.883 0.062 4.562 0.062 C5.553 0.062 6.543 0.062 7.562 0.062 C7.892 2.373 8.222 4.683 8.562 7.062 C9.222 4.752 9.883 2.442 10.562 0.062 C11.222 0.062 11.883 0.062 12.562 0.062 C12.616 1.52 12.655 2.979 12.688 4.438 C12.711 5.25 12.734 6.062 12.758 6.898 C12.562 9.062 12.562 9.062 10.562 11.062 C8.625 10.688 8.625 10.688 6.562 10.062 C5.572 10.062 4.582 10.062 3.562 10.062 C3.233 10.392 2.903 10.723 2.562 11.062 C0.062 11.188 0.062 11.188 -2.438 11.062 C-3.438 10.062 -3.438 10.062 -3.57 8.031 C-3.568 7.217 -3.565 6.402 -3.562 5.562 C-3.565 4.748 -3.568 3.933 -3.57 3.094 C-3.374 0.09 -3.025 0.078 0 0 Z " fill="#181818" transform="translate(31.4375,296.9375)"/>
<path d="M0 0 C2.007 0.287 4.009 0.619 6 1 C6.33 0.67 6.66 0.34 7 0 C9 -0.041 11 -0.043 13 0 C13.91 3.07 14.173 5.8 14 9 C13 10 13 10 10.715 10.098 C9.34 10.08 9.34 10.08 7.938 10.062 C7.018 10.053 6.099 10.044 5.152 10.035 C4.442 10.024 3.732 10.012 3 10 C3 9.01 3 8.02 3 7 C2.34 7 1.68 7 1 7 C1 7.99 1 8.98 1 10 C0.01 10 -0.98 10 -2 10 C-2.195 3.945 -2.195 3.945 -2 2 C-1.34 1.34 -0.68 0.68 0 0 Z " fill="#202020" transform="translate(280,285)"/>
<path d="M0 0 C3.5 0.125 3.5 0.125 4.5 1.125 C4.626 3.226 4.676 5.332 4.688 7.438 C4.702 8.589 4.716 9.74 4.73 10.926 C4.513 13.949 4.083 15.591 2.5 18.125 C1.84 18.125 1.18 18.125 0.5 18.125 C0.5 17.465 0.5 16.805 0.5 16.125 C-0.82 16.125 -2.14 16.125 -3.5 16.125 C-4.933 13.259 -4.632 10.753 -4.625 7.562 C-4.628 6.386 -4.63 5.209 -4.633 3.996 C-4.439 -0.202 -4.313 0.154 0 0 Z " fill="#262626" transform="translate(53.5,49.875)"/>
<path d="M0 0 C2.877 0.031 5.435 0.208 8.188 1.125 C7.858 2.115 7.528 3.105 7.188 4.125 C6.197 4.125 5.208 4.125 4.188 4.125 C4.188 4.785 4.188 5.445 4.188 6.125 C5.507 6.455 6.827 6.785 8.188 7.125 C7.858 7.785 7.528 8.445 7.188 9.125 C3.658 10.302 0.893 10.324 -2.812 10.125 C-3.803 9.465 -4.792 8.805 -5.812 8.125 C-7.468 7.74 -9.135 7.397 -10.812 7.125 C-10.812 5.805 -10.812 4.485 -10.812 3.125 C-9.358 2.661 -9.358 2.661 -7.875 2.188 C-1.734 0.057 -1.734 0.057 0 0 Z " fill="#000000" transform="translate(161.8125,269.875)"/>
<path d="M0 0 C1.093 0.003 2.186 0.005 3.312 0.008 C4.406 0.005 5.499 0.003 6.625 0 C9.312 0.133 9.312 0.133 10.312 1.133 C10.445 2.945 10.445 2.945 10.438 5.133 C10.44 5.855 10.443 6.577 10.445 7.32 C10.312 9.133 10.312 9.133 9.312 10.133 C7.315 10.232 5.313 10.263 3.312 10.258 C2.219 10.26 1.126 10.263 0 10.266 C-2.688 10.133 -2.688 10.133 -3.688 9.133 C-3.82 7.32 -3.82 7.32 -3.812 5.133 C-3.815 4.411 -3.818 3.689 -3.82 2.945 C-3.602 -0.031 -3.003 0.148 0 0 Z " fill="#171717" transform="translate(97.6875,269.8671875)"/>
<path d="M0 0 C1.875 0.938 1.875 0.938 3.875 3.938 C4.07 7.074 4.07 7.074 4 10.625 C3.982 11.804 3.964 12.984 3.945 14.199 C3.911 15.555 3.911 15.555 3.875 16.938 C2.555 16.938 1.235 16.938 -0.125 16.938 C-0.455 15.288 -0.785 13.638 -1.125 11.938 C-2.115 12.267 -3.105 12.597 -4.125 12.938 C-4.858 14.953 -4.858 14.953 -5.125 16.938 C-5.455 16.938 -5.785 16.938 -6.125 16.938 C-6.233 14.855 -6.311 12.772 -6.375 10.688 C-6.421 9.527 -6.468 8.367 -6.516 7.172 C-6.125 3.938 -6.125 3.938 -4.242 1.512 C-2.125 -0.062 -2.125 -0.062 0 0 Z " fill="#070707" transform="translate(270.125,30.0625)"/>
<path d="M0 0 C1.98 0 3.96 0 6 0 C6 1.65 6 3.3 6 5 C6.99 5 7.98 5 9 5 C9 6.32 9 7.64 9 9 C8.01 9 7.02 9 6 9 C6.021 9.804 6.041 10.609 6.062 11.438 C6 14 6 14 5 15 C3.334 15.041 1.666 15.043 0 15 C-0.33 13.35 -0.66 11.7 -1 10 C-1.99 9.67 -2.98 9.34 -4 9 C-3.67 7.68 -3.34 6.36 -3 5 C-2.01 5 -1.02 5 0 5 C0 3.35 0 1.7 0 0 Z " fill="#000000" transform="translate(15,31)"/>
<path d="M0 0 C1.65 0 3.3 0 5 0 C5 1.65 5 3.3 5 5 C6.32 5 7.64 5 9 5 C9 6.32 9 7.64 9 9 C8.01 9.33 7.02 9.66 6 10 C5.67 11.65 5.34 13.3 5 15 C3.35 15 1.7 15 0 15 C-0.33 13.35 -0.66 11.7 -1 10 C-1.99 9.67 -2.98 9.34 -4 9 C-4 7.68 -4 6.36 -4 5 C-2.68 5 -1.36 5 0 5 C0 3.35 0 1.7 0 0 Z " fill="#000000" transform="translate(168,31)"/>
<path d="M0 0 C2.97 0 5.94 0 9 0 C9 0.99 9 1.98 9 3 C7.02 3 5.04 3 3 3 C3 3.66 3 4.32 3 5 C3.804 4.979 4.609 4.959 5.438 4.938 C8 5 8 5 9 6 C9.412 14.382 9.412 14.382 7 18 C6.34 18 5.68 18 5 18 C5 17.34 5 16.68 5 16 C3.35 15.67 1.7 15.34 0 15 C0 13.68 0 12.36 0 11 C0.99 11 1.98 11 3 11 C3 11.66 3 12.32 3 13 C3.99 13 4.98 13 6 13 C6 11.35 6 9.7 6 8 C4.02 8 2.04 8 0 8 C0 5.36 0 2.72 0 0 Z " fill="#000000" transform="translate(249,50)"/>
<path d="M0 0 C2.333 -0.042 4.667 -0.041 7 0 C7.33 0.33 7.66 0.66 8 1 C10.328 1.368 12.662 1.702 15 2 C15 2.99 15 3.98 15 5 C13.35 5.33 11.7 5.66 10 6 C10 6.99 10 7.98 10 9 C6.527 10.158 3.639 10.069 0 10 C0 6.7 0 3.4 0 0 Z " fill="#151515" transform="translate(248,270)"/>
<path d="M0 0 C1.938 0.688 1.938 0.688 3.938 1.688 C6.27 1.728 8.605 1.731 10.938 1.688 C10.938 2.678 10.938 3.668 10.938 4.688 C9.947 5.017 8.957 5.348 7.938 5.688 C7.938 6.678 7.938 7.668 7.938 8.688 C5.297 9.017 2.657 9.348 -0.062 9.688 C-0.062 8.697 -0.062 7.707 -0.062 6.688 C-0.723 6.688 -1.383 6.688 -2.062 6.688 C-2.062 7.678 -2.062 8.668 -2.062 9.688 C-3.053 9.688 -4.043 9.688 -5.062 9.688 C-5.355 3.633 -5.355 3.633 -5.062 1.688 C-2.062 -0.312 -2.062 -0.312 0 0 Z " fill="#070707" transform="translate(16.0625,270.3125)"/>
<path d="M0 0 C0.99 0 1.98 0 3 0 C3.33 3.3 3.66 6.6 4 10 C4.99 10 5.98 10 7 10 C7 7.03 7 4.06 7 1 C8.32 1 9.64 1 11 1 C10.912 2.751 10.804 4.501 10.688 6.25 C10.629 7.225 10.571 8.199 10.512 9.203 C9.954 12.253 9.036 13.707 7 16 C3.718 15.434 2.008 14.693 0 12 C-0.293 9.082 -0.293 9.082 -0.188 5.812 C-0.16 4.726 -0.133 3.639 -0.105 2.52 C-0.071 1.688 -0.036 0.857 0 0 Z " fill="#000000" transform="translate(100,31)"/>
<path d="M0 0 C0.99 0 1.98 0 3 0 C3.061 0.699 3.121 1.397 3.184 2.117 C3.267 3.027 3.351 3.937 3.438 4.875 C3.559 6.232 3.559 6.232 3.684 7.617 C3.87 10.011 3.87 10.011 5 12 C6.217 9.566 6.32 7.582 6.562 4.875 C6.646 3.965 6.73 3.055 6.816 2.117 C6.877 1.419 6.938 0.72 7 0 C7.99 0 8.98 0 10 0 C10.108 1.915 10.186 3.833 10.25 5.75 C10.296 6.817 10.343 7.885 10.391 8.984 C10 12 10 12 8.172 14.391 C6 16 6 16 3 16 C0.592 13.687 0.032 12.328 -0.293 8.984 C-0.258 7.917 -0.223 6.85 -0.188 5.75 C-0.147 4.134 -0.147 4.134 -0.105 2.484 C-0.071 1.665 -0.036 0.845 0 0 Z " fill="#000000" transform="translate(253,31)"/>
<path d="M0 0 C2.64 0 5.28 0 8 0 C8 3.96 8 7.92 8 12 C5.667 12.042 3.333 12.041 1 12 C0 11 0 11 -0.098 8.496 C-0.086 7.487 -0.074 6.477 -0.062 5.438 C-0.053 4.426 -0.044 3.414 -0.035 2.371 C-0.024 1.589 -0.012 0.806 0 0 Z " fill="#FFFFFF" transform="translate(208,31)"/>
<path d="M0 0 C1.145 0.248 1.145 0.248 2.312 0.5 C5.234 1.236 5.234 1.236 9 0 C9 3.63 9 7.26 9 11 C8.01 11 7.02 11 6 11 C5.67 10.01 5.34 9.02 5 8 C4.34 8 3.68 8 3 8 C3 8.99 3 9.98 3 11 C1.68 10.67 0.36 10.34 -1 10 C-1.027 8.521 -1.046 7.042 -1.062 5.562 C-1.074 4.739 -1.086 3.915 -1.098 3.066 C-1 1 -1 1 0 0 Z " fill="#000000" transform="translate(88,297)"/>
<path d="M0 0 C1.145 0.248 1.145 0.248 2.312 0.5 C5.234 1.236 5.234 1.236 9 0 C9 3.63 9 7.26 9 11 C8.01 11 7.02 11 6 11 C5.67 10.01 5.34 9.02 5 8 C4.34 8 3.68 8 3 8 C3 8.99 3 9.98 3 11 C1.68 10.67 0.36 10.34 -1 10 C-1.027 8.521 -1.046 7.042 -1.062 5.562 C-1.074 4.739 -1.086 3.915 -1.098 3.066 C-1 1 -1 1 0 0 Z " fill="#000000" transform="translate(18,297)"/>
<path d="M0 0 C0.853 5.835 1.484 10.449 -1 16 C-1.99 15.67 -2.98 15.34 -4 15 C-3.67 13.68 -3.34 12.36 -3 11 C-4.65 11 -6.3 11 -8 11 C-8.707 9.234 -8.707 9.234 -9 7 C-7.637 5.078 -7.637 5.078 -5.688 3.25 C-5.052 2.636 -4.416 2.023 -3.762 1.391 C-2 0 -2 0 0 0 Z " fill="#020202" transform="translate(46,50)"/>
<path d="M0 0 C4.194 0.671 7.403 2.856 11 5 C10.875 6.75 10.875 6.75 10 9 C7.25 11.312 7.25 11.312 4 13 C1.125 12.75 1.125 12.75 -1 12 C-1.33 11.01 -1.66 10.02 -2 9 C0.64 9 3.28 9 6 9 C6 7.68 6 6.36 6 5 C3.36 5 0.72 5 -2 5 C-1.34 3.35 -0.68 1.7 0 0 Z " fill="#000000" transform="translate(66,288)"/>
<path d="M0 0 C1.207 0.031 1.207 0.031 2.438 0.062 C4.009 3.206 3.669 6.62 3.438 10.062 C3.108 11.053 2.777 12.043 2.438 13.062 C0.771 13.105 -0.896 13.103 -2.562 13.062 C-3.562 12.062 -3.562 12.062 -3.695 9.594 C-3.693 8.593 -3.69 7.593 -3.688 6.562 C-3.69 5.562 -3.693 4.562 -3.695 3.531 C-3.513 0.148 -3.399 0.083 0 0 Z " fill="#000000" transform="translate(268.5625,314.9375)"/>
<path d="M0 0 C2.64 0 5.28 0 8 0 C8.84 3.361 9.177 5.704 8 9 C7 10 7 10 3.438 10.062 C2.303 10.042 1.169 10.021 0 10 C0 6.7 0 3.4 0 0 Z " fill="#151515" transform="translate(87,285)"/>
<path d="M0 0 C1.114 0.248 1.114 0.248 2.25 0.5 C5.19 1.119 5.19 1.119 9 1 C9 3.97 9 6.94 9 10 C7.68 10 6.36 10 5 10 C5 9.01 5 8.02 5 7 C4.34 8.32 3.68 9.64 3 11 C2.01 10.67 1.02 10.34 0 10 C0 6.7 0 3.4 0 0 Z " fill="#151515" transform="translate(137,55)"/>
<path d="M0 0 C2.64 0 5.28 0 8 0 C8 3.3 8 6.6 8 10 C5.36 10 2.72 10 0 10 C0 6.7 0 3.4 0 0 Z " fill="#FFFFFF" transform="translate(208,16)"/>
<path d="M0 0 C2.64 0 5.28 0 8 0 C8 3.3 8 6.6 8 10 C5.36 10 2.72 10 0 10 C0 6.7 0 3.4 0 0 Z " fill="#FFFFFF" transform="translate(56,16)"/>
<path d="M0 0 C4.013 0.617 6.855 2.498 10 5 C10 6.32 10 7.64 10 9 C7.312 11.312 7.312 11.312 4 13 C1.125 12.75 1.125 12.75 -1 12 C-1.33 11.01 -1.66 10.02 -2 9 C0.64 8.67 3.28 8.34 6 8 C6.33 7.01 6.66 6.02 7 5 C4.03 5 1.06 5 -2 5 C-1.34 3.35 -0.68 1.7 0 0 Z " fill="#000000" transform="translate(136,288)"/>
<path d="M0 0 C2.184 1.057 3.457 2.013 4.938 3.938 C4.938 4.928 4.938 5.918 4.938 6.938 C3.618 6.278 2.297 5.617 0.938 4.938 C0.938 4.278 0.938 3.617 0.938 2.938 C-0.382 3.928 -1.703 4.918 -3.062 5.938 C-2.547 6.35 -2.031 6.763 -1.5 7.188 C-1.026 7.765 -0.551 8.343 -0.062 8.938 C-0.375 11.125 -0.375 11.125 -1.062 12.938 C-2.052 12.938 -3.043 12.938 -4.062 12.938 C-4.062 14.258 -4.062 15.578 -4.062 16.938 C-4.722 16.938 -5.382 16.938 -6.062 16.938 C-6.171 14.855 -6.248 12.772 -6.312 10.688 C-6.359 9.527 -6.405 8.367 -6.453 7.172 C-6.062 3.938 -6.062 3.938 -4.176 1.512 C-2.062 -0.062 -2.062 -0.062 0 0 Z " fill="#090909" transform="translate(117.0625,30.0625)"/>
<path d="M0 0 C16.83 0 33.66 0 51 0 C51 0.33 51 0.66 51 1 C46.588 2.471 43.517 3.369 39 2 C38.34 4.31 37.68 6.62 37 9 C35 6 35 6 35 2 C33.808 2.012 32.615 2.023 31.387 2.035 C29.82 2.045 28.254 2.054 26.688 2.062 C25.509 2.075 25.509 2.075 24.307 2.088 C23.549 2.091 22.792 2.094 22.012 2.098 C20.967 2.106 20.967 2.106 19.901 2.114 C18 2 18 2 15 1 C14.67 1.66 14.34 2.32 14 3 C14 2.34 14 1.68 14 1 C12.979 1.278 12.979 1.278 11.938 1.562 C8.428 2.085 5.478 1.614 2 1 C1.67 1.66 1.34 2.32 1 3 C0.67 2.01 0.34 1.02 0 0 Z " fill="#FFFFFF" transform="translate(241,284)"/>
<path d="M0 0 C2.31 0 4.62 0 7 0 C7.879 3.734 8.089 7.168 8 11 C7.01 11 6.02 11 5 11 C5 9.68 5 8.36 5 7 C4.34 7 3.68 7 3 7 C2.67 8.32 2.34 9.64 2 11 C1.34 11 0.68 11 0 11 C0 7.37 0 3.74 0 0 Z " fill="#131313" transform="translate(164,55)"/>
<path d="M0 0 C1.454 0.031 1.454 0.031 2.938 0.062 C3.268 1.053 3.597 2.042 3.938 3.062 C2.287 2.733 0.637 2.403 -1.062 2.062 C-1.062 4.373 -1.062 6.682 -1.062 9.062 C-0.403 9.062 0.257 9.062 0.938 9.062 C0.607 7.742 0.278 6.422 -0.062 5.062 C1.257 5.062 2.577 5.062 3.938 5.062 C3.938 7.703 3.938 10.343 3.938 13.062 C3.278 13.062 2.618 13.062 1.938 13.062 C1.938 12.403 1.938 11.743 1.938 11.062 C0.618 11.062 -0.702 11.062 -2.062 11.062 C-2.062 11.722 -2.062 12.382 -2.062 13.062 C-2.722 13.062 -3.382 13.062 -4.062 13.062 C-4.089 11.083 -4.109 9.104 -4.125 7.125 C-4.137 6.023 -4.148 4.921 -4.16 3.785 C-4.022 -0.075 -3.909 0.08 0 0 Z " fill="#000000" transform="translate(183.0625,54.9375)"/>
<path d="M0 0 C1.98 0 3.96 0 6 0 C7 1 7 1 7.098 2.848 C7.065 4.898 7.033 6.949 7 9 C5.35 9.33 3.7 9.66 2 10 C2 10.66 2 11.32 2 12 C1.34 12 0.68 12 0 12 C0 8.04 0 4.08 0 0 Z " fill="#313131" transform="translate(257,318)"/>
<path d="M0 0 C2.31 0 4.62 0 7 0 C7.778 3.406 8.1 6.508 8 10 C7.01 10 6.02 10 5 10 C5 9.01 5 8.02 5 7 C4.34 7 3.68 7 3 7 C3 7.99 3 8.98 3 10 C2.01 10 1.02 10 0 10 C0 6.7 0 3.4 0 0 Z " fill="#0E0E0E" transform="translate(269,285)"/>
<path d="M0 0 C1.938 0.812 1.938 0.812 3.938 3.812 C4.062 7 4.062 7 3.938 9.812 C0.968 9.812 -2.003 9.812 -5.062 9.812 C-5.355 3.758 -5.355 3.758 -5.062 1.812 C-2.062 -0.188 -2.062 -0.188 0 0 Z " fill="#070707" transform="translate(22.0625,285.1875)"/>
<path d="M0 0 C1.134 0.021 2.269 0.041 3.438 0.062 C3.535 6.215 3.535 6.215 3.438 8.062 C2.438 9.062 2.438 9.062 -1.125 9.125 C-2.259 9.104 -3.394 9.084 -4.562 9.062 C-4.66 2.91 -4.66 2.91 -4.562 1.062 C-3.562 0.062 -3.562 0.062 0 0 Z " fill="#161616" transform="translate(205.5625,271.9375)"/>
<path d="M0 0 C1.875 0.688 1.875 0.688 2.875 1.688 C3.016 4.358 2.917 7.012 2.875 9.688 C1.885 9.688 0.895 9.688 -0.125 9.688 C-0.125 8.697 -0.125 7.707 -0.125 6.688 C-0.455 7.678 -0.785 8.668 -1.125 9.688 C-2.445 9.688 -3.765 9.688 -5.125 9.688 C-5.418 3.633 -5.418 3.633 -5.125 1.688 C-2.125 -0.312 -2.125 -0.312 0 0 Z " fill="#070707" transform="translate(221.125,270.3125)"/>
<path d="M0 0 C0.99 0 1.98 0 3 0 C3 3.3 3 6.6 3 10 C2.01 10 1.02 10 0 10 C-0.33 9.01 -0.66 8.02 -1 7 C-1.66 7 -2.32 7 -3 7 C-3.33 7.99 -3.66 8.98 -4 10 C-4.99 10 -5.98 10 -7 10 C-7 7.36 -7 4.72 -7 2 C-4.667 2 -2.333 2 0 2 C0 1.34 0 0.68 0 0 Z " fill="#000000" transform="translate(196,270)"/>
<path d="M0 0 C1.666 -0.043 3.334 -0.041 5 0 C5.33 0.33 5.66 0.66 6 1 C5.688 4.5 5.688 4.5 5 8 C4.01 8.495 4.01 8.495 3 9 C3.99 9.33 4.98 9.66 6 10 C6 10.99 6 11.98 6 13 C3.69 13 1.38 13 -1 13 C-0.49 9.227 0.207 7.55 3 5 C3 4.34 3 3.68 3 3 C2.34 2.67 1.68 2.34 1 2 C1 2.99 1 3.98 1 5 C0.34 5 -0.32 5 -1 5 C-0.67 3.35 -0.34 1.7 0 0 Z " fill="#000000" transform="translate(313,315)"/>
<path d="M0 0 C2.64 0 5.28 0 8 0 C8 0.66 8 1.32 8 2 C6.68 2.33 5.36 2.66 4 3 C4.99 3.33 5.98 3.66 7 4 C7 4.66 7 5.32 7 6 C5.68 6 4.36 6 3 6 C3 6.99 3 7.98 3 9 C4.65 9 6.3 9 8 9 C8 9.66 8 10.32 8 11 C5.36 11 2.72 11 0 11 C0 7.37 0 3.74 0 0 Z " fill="#000000" transform="translate(115,297)"/>
<path d="M0 0 C0.99 0 1.98 0 3 0 C3.33 2.31 3.66 4.62 4 7 C4.33 4.69 4.66 2.38 5 0 C5.99 0 6.98 0 8 0 C8.25 7.625 8.25 7.625 6 11 C3.133 10.427 2.139 10.139 0 8 C-0.27 5.312 -0.087 2.709 0 0 Z " fill="#000000" transform="translate(271,55)"/>
<path d="M0 0 C0.99 0 1.98 0 3 0 C3.33 2.31 3.66 4.62 4 7 C4.33 4.69 4.66 2.38 5 0 C5.99 0 6.98 0 8 0 C8.25 7.625 8.25 7.625 6 11 C3.133 10.427 2.139 10.139 0 8 C-0.27 5.312 -0.087 2.709 0 0 Z " fill="#000000" transform="translate(71,55)"/>
<path d="M0 0 C2.64 0 5.28 0 8 0 C8 0.66 8 1.32 8 2 C6.35 2 4.7 2 3 2 C3 2.66 3 3.32 3 4 C4.32 4 5.64 4 7 4 C7 4.66 7 5.32 7 6 C5.68 6 4.36 6 3 6 C3 6.99 3 7.98 3 9 C4.65 9 6.3 9 8 9 C8 9.66 8 10.32 8 11 C5.36 11 2.72 11 0 11 C0 7.37 0 3.74 0 0 Z " fill="#000000" transform="translate(45,297)"/>
<path d="M0 0 C0.99 0 1.98 0 3 0 C3 2.31 3 4.62 3 7 C3.66 7 4.32 7 5 7 C5 4.69 5 2.38 5 0 C5.99 0 6.98 0 8 0 C8.195 6.055 8.195 6.055 8 8 C7.34 8.66 6.68 9.32 6 10 C1.444 9.444 1.444 9.444 0 8 C-0.141 5.329 -0.042 2.676 0 0 Z " fill="#000000" transform="translate(55,270)"/>
<path d="M0 0 C6.152 -0.098 6.152 -0.098 8 0 C9 1 9 1 9.062 4.562 C9.042 5.697 9.021 6.831 9 8 C6.03 8 3.06 8 0 8 C0 5.36 0 2.72 0 0 Z " fill="#000000" transform="translate(109,272)"/>
<path d="M0 0 C1.207 0.031 1.207 0.031 2.438 0.062 C3.178 3.485 3.438 6.564 3.438 10.062 C1.127 10.062 -1.183 10.062 -3.562 10.062 C-3.377 9.32 -3.191 8.577 -3 7.812 C-2.567 5.089 -2.822 3.655 -3.562 1.062 C-2.562 0.062 -2.562 0.062 0 0 Z " fill="#080808" transform="translate(89.5625,269.9375)"/>
<path d="M0 0 C0.99 0 1.98 0 3 0 C3 2.31 3 4.62 3 7 C3.66 7 4.32 7 5 7 C5 4.69 5 2.38 5 0 C5.99 0 6.98 0 8 0 C8.195 6.055 8.195 6.055 8 8 C7.34 8.66 6.68 9.32 6 10 C3.737 9.646 2.049 9.025 0 8 C0 5.36 0 2.72 0 0 Z " fill="#000000" transform="translate(291,270)"/>
<path d="M0 0 C1.98 0 3.96 0 6 0 C6.381 2.326 6.713 4.661 7 7 C6 8 6 8 2.938 8.062 C1.968 8.042 0.999 8.021 0 8 C-0.8 4.713 -1.097 3.29 0 0 Z " fill="#090909" transform="translate(120,272)"/>
<path d="M0 0 C1.65 0 3.3 0 5 0 C6.858 3.135 7.201 5.375 7 9 C6.34 9 5.68 9 5 9 C5 8.01 5 7.02 5 6 C4.01 6 3.02 6 2 6 C2 6.99 2 7.98 2 9 C1.34 9 0.68 9 0 9 C0 6.03 0 3.06 0 0 Z " fill="#BFBFBF" transform="translate(208,285)"/>
<path d="M0 0 C0.99 0 1.98 0 3 0 C2.67 1.32 2.34 2.64 2 4 C2.33 3.67 2.66 3.34 3 3 C3.66 2.67 4.32 2.34 5 2 C5 4.31 5 6.62 5 9 C3.68 9 2.36 9 1 9 C0.67 8.34 0.34 7.68 0 7 C-0.33 7.66 -0.66 8.32 -1 9 C-1.99 9 -2.98 9 -4 9 C-3.67 7.68 -3.34 6.36 -3 5 C-2.34 5 -1.68 5 -1 5 C-0.67 3.35 -0.34 1.7 0 0 Z " fill="#000000" transform="translate(304,271)"/>
<path d="M0 0 C2.64 0 5.28 0 8 0 C8 0.66 8 1.32 8 2 C7.01 2.495 7.01 2.495 6 3 C6 5.31 6 7.62 6 10 C4.68 10 3.36 10 2 10 C2 7.36 2 4.72 2 2 C1.34 2 0.68 2 0 2 C0 1.34 0 0.68 0 0 Z " fill="#000000" transform="translate(155,55)"/>
<path d="M0 0 C0 1.98 0 3.96 0 6 C-1.32 6.33 -2.64 6.66 -4 7 C-4.33 6.01 -4.66 5.02 -5 4 C-5.33 4.66 -5.66 5.32 -6 6 C-6.66 6 -7.32 6 -8 6 C-8 4.02 -8 2.04 -8 0 C-5.138 -1.431 -3.066 -0.6 0 0 Z " fill="#000000" transform="translate(288,54)"/>
<path d="M0 0 C2.339 0.287 4.674 0.619 7 1 C7 2.98 7 4.96 7 7 C5.68 7.33 4.36 7.66 3 8 C2.67 7.01 2.34 6.02 2 5 C1.67 5.66 1.34 6.32 1 7 C0.34 7 -0.32 7 -1 7 C-1.043 5 -1.041 3 -1 1 C-0.67 0.67 -0.34 0.34 0 0 Z " fill="#000000" transform="translate(81,53)"/>
<path d="M0 0 C0 4.29 0 8.58 0 13 C-0.99 13 -1.98 13 -3 13 C-3 10.03 -3 7.06 -3 4 C-3.66 4 -4.32 4 -5 4 C-5 3.34 -5 2.68 -5 2 C-2 0 -2 0 0 0 Z " fill="#000000" transform="translate(301,315)"/>
<path d="M0 0 C2.31 0 4.62 0 7 0 C6.297 2.977 5.418 5.853 4.438 8.75 C4.033 9.949 4.033 9.949 3.621 11.172 C3.416 11.775 3.211 12.378 3 13 C2.34 13 1.68 13 1 13 C1.458 9.531 1.891 6.326 3 3 C2.01 2.67 1.02 2.34 0 2 C0 1.34 0 0.68 0 0 Z " fill="#000000" transform="translate(304,315)"/>
<path d="M0 0 C2.31 0 4.62 0 7 0 C6.178 4.383 5.098 8.679 4 13 C3.01 13 2.02 13 1 13 C1.309 11.541 1.622 10.083 1.938 8.625 C2.112 7.813 2.286 7.001 2.465 6.164 C3 4 3 4 4 2 C2.68 2 1.36 2 0 2 C0 1.34 0 0.68 0 0 Z " fill="#000000" transform="translate(288,315)"/>
<path d="M0 0 C2.64 0 5.28 0 8 0 C8 0.66 8 1.32 8 2 C7.34 2 6.68 2 6 2 C6 4.64 6 7.28 6 10 C4.68 9.67 3.36 9.34 2 9 C2.33 6.69 2.66 4.38 3 2 C2.01 1.67 1.02 1.34 0 1 C0 0.67 0 0.34 0 0 Z " fill="#000000" transform="translate(295,285)"/>
<path d="M0 0 C2.64 0 5.28 0 8 0 C8 0.66 8 1.32 8 2 C7.34 2 6.68 2 6 2 C6 4.64 6 7.28 6 10 C4.68 9.67 3.36 9.34 2 9 C2.33 6.69 2.66 4.38 3 2 C2.01 1.67 1.02 1.34 0 1 C0 0.67 0 0.34 0 0 Z " fill="#000000" transform="translate(260,285)"/>
<path d="M0 0 C2.97 0 5.94 0 9 0 C8.67 0.66 8.34 1.32 8 2 C7.34 2 6.68 2 6 2 C6 4.64 6 7.28 6 10 C5.01 10 4.02 10 3 10 C3 7.36 3 4.72 3 2 C2.01 1.67 1.02 1.34 0 1 C0 0.67 0 0.34 0 0 Z " fill="#000000" transform="translate(181,270)"/>
<path d="M0 0 C3.3 0 6.6 0 10 0 C9.67 1.32 9.34 2.64 9 4 C6.03 4 3.06 4 0 4 C0 2.68 0 1.36 0 0 Z " fill="#FFFFFF" transform="translate(133,293)"/>
<path d="M0 0 C0.99 0 1.98 0 3 0 C3 0.99 3 1.98 3 3 C3.66 3 4.32 3 5 3 C5 3.99 5 4.98 5 6 C4.34 6 3.68 6 3 6 C3 6.66 3 7.32 3 8 C2.01 8 1.02 8 0 8 C0 7.34 0 6.68 0 6 C-0.99 6 -1.98 6 -3 6 C-3 5.01 -3 4.02 -3 3 C-2.01 3 -1.02 3 0 3 C0 2.01 0 1.02 0 0 Z " fill="#000000" transform="translate(219,56)"/>
<path d="M0 0 C0.99 0 1.98 0 3 0 C3 0.99 3 1.98 3 3 C3.66 3 4.32 3 5 3 C5 3.99 5 4.98 5 6 C4.34 6 3.68 6 3 6 C3 6.66 3 7.32 3 8 C2.01 8 1.02 8 0 8 C0 7.34 0 6.68 0 6 C-0.99 6 -1.98 6 -3 6 C-3 5.01 -3 4.02 -3 3 C-2.01 3 -1.02 3 0 3 C0 2.01 0 1.02 0 0 Z " fill="#000000" transform="translate(19,56)"/>
<path d="M0 0 C2.051 0.033 4.102 0.065 6.152 0.098 C5.822 1.088 5.492 2.078 5.152 3.098 C4.348 2.912 3.544 2.726 2.715 2.535 C1.446 2.319 1.446 2.319 0.152 2.098 C-1.345 3.595 -1.18 5.086 -1.41 7.16 C-1.555 8.46 -1.699 9.759 -1.848 11.098 C-0.858 11.098 0.132 11.098 1.152 11.098 C1.152 10.108 1.152 9.118 1.152 8.098 C1.812 8.098 2.472 8.098 3.152 8.098 C3.152 9.088 3.152 10.078 3.152 11.098 C4.142 11.428 5.132 11.758 6.152 12.098 C3.182 12.098 0.212 12.098 -2.848 12.098 C-2.875 10.285 -2.894 8.473 -2.91 6.66 C-2.922 5.651 -2.933 4.641 -2.945 3.602 C-2.811 0.149 -2.811 0.149 0 0 Z " fill="#FFFFFF" transform="translate(15.84765625,12.90234375)"/>
<path d="M0 0 C1.32 0 2.64 0 4 0 C4 2.97 4 5.94 4 9 C2.68 9 1.36 9 0 9 C0 6.03 0 3.06 0 0 Z " fill="#FFFFFF" transform="translate(229,53)"/>
<path d="M0 0 C1.32 0 2.64 0 4 0 C4 2.97 4 5.94 4 9 C2.68 9 1.36 9 0 9 C0 6.03 0 3.06 0 0 Z " fill="#FFFFFF" transform="translate(29,53)"/>
<path d="M0 0 C2.97 0 5.94 0 9 0 C9 1.32 9 2.64 9 4 C6.03 4 3.06 4 0 4 C0 2.68 0 1.36 0 0 Z " fill="#FFFFFF" transform="translate(63,293)"/>
<path d="M0 0 C7.75 -0.125 7.75 -0.125 10 1 C10 1.66 10 2.32 10 3 C6.785 4.607 3.564 4.057 0 4 C0 2.68 0 1.36 0 0 Z " fill="#000000" transform="translate(33,240)"/>
<path d="M0 0 C1.32 0 2.64 0 4 0 C4 2.97 4 5.94 4 9 C2.68 9.33 1.36 9.66 0 10 C-0.194 8.522 -0.38 7.042 -0.562 5.562 C-0.667 4.739 -0.771 3.915 -0.879 3.066 C-0.919 2.384 -0.959 1.703 -1 1 C-0.67 0.67 -0.34 0.34 0 0 Z " fill="#000000" transform="translate(281,270)"/>
<path d="M0 0 C1.32 0 2.64 0 4 0 C4 0.99 4 1.98 4 3 C3.34 3 2.68 3 2 3 C2 5.31 2 7.62 2 10 C0.35 10 -1.3 10 -3 10 C-3 9.01 -3 8.02 -3 7 C-2.01 7 -1.02 7 0 7 C0 4.69 0 2.38 0 0 Z " fill="#000000" transform="translate(229,270)"/>
<path d="M0 0 C1.32 0.33 2.64 0.66 4 1 C4 3.97 4 6.94 4 10 C2.68 10 1.36 10 0 10 C0 6.7 0 3.4 0 0 Z " fill="#070707" transform="translate(118,37)"/>
<path d="M0 0 C0 0.66 0 1.32 0 2 C-1.32 2 -2.64 2 -4 2 C-4 2.66 -4 3.32 -4 4 C-3.01 4.33 -2.02 4.66 -1 5 C-1.99 5 -2.98 5 -4 5 C-4 6.32 -4 7.64 -4 9 C-2.68 9.33 -1.36 9.66 0 10 C-1.98 10 -3.96 10 -6 10 C-6 7.03 -6 4.06 -6 1 C-4 0 -4 0 0 0 Z " fill="#FFFFFF" transform="translate(199,297)"/>
<path d="M0 0 C0.99 0 1.98 0 3 0 C3 3.63 3 7.26 3 11 C2.01 11 1.02 11 0 11 C0 7.37 0 3.74 0 0 Z " fill="#000000" transform="translate(174,55)"/>
<path d="M0 0 C0.99 0 1.98 0 3 0 C3 3.3 3 6.6 3 10 C2.01 10 1.02 10 0 10 C-0.194 8.522 -0.38 7.042 -0.562 5.562 C-0.667 4.739 -0.771 3.915 -0.879 3.066 C-0.919 2.384 -0.959 1.703 -1 1 C-0.67 0.67 -0.34 0.34 0 0 Z " fill="#000000" transform="translate(45,270)"/>
<path d="M0 0 C2.64 0 5.28 0 8 0 C8 1.32 8 2.64 8 4 C5.36 4 2.72 4 0 4 C0 2.68 0 1.36 0 0 Z " fill="#000000" transform="translate(285,240)"/>
<path d="M0 0 C2.64 0 5.28 0 8 0 C7.25 1.938 7.25 1.938 6 4 C4 4.875 4 4.875 2 5 C1.34 4.34 0.68 3.68 0 3 C0 2.01 0 1.02 0 0 Z " fill="#000000" transform="translate(264,303)"/>
<path d="M0 0 C1.32 0 2.64 0 4 0 C4 1.98 4 3.96 4 6 C2.35 5.67 0.7 5.34 -1 5 C-1 1 -1 1 0 0 Z " fill="#FFFFFF" transform="translate(160,272)"/>
<path d="M0 0 C1.32 0 2.64 0 4 0 C3.67 1.32 3.34 2.64 3 4 C2.34 4 1.68 4 1 4 C0.67 5.65 0.34 7.3 0 9 C-0.99 9 -1.98 9 -3 9 C-2.01 6.03 -1.02 3.06 0 0 Z " fill="#000000" transform="translate(67,271)"/>
<path d="M0 0 C2.31 0 4.62 0 7 0 C6.01 1.485 6.01 1.485 5 3 C4.833 6.125 4.833 6.125 5 9 C4.01 9 3.02 9 2 9 C1.875 3.25 1.875 3.25 3 1 C2.01 0.67 1.02 0.34 0 0 Z " fill="#FFFFFF" transform="translate(158,285)"/>
<path d="M0 0 C1.938 0.25 1.938 0.25 4 1 C4.66 1.99 5.32 2.98 6 4 C3.291 5.354 0.991 5.065 -2 5 C-1.125 1.125 -1.125 1.125 0 0 Z " fill="#000000" transform="translate(266,297)"/>
<path d="M0 0 C0.99 0 1.98 0 3 0 C2.01 2.97 1.02 5.94 0 9 C-0.99 9 -1.98 9 -3 9 C-2.01 6.03 -1.02 3.06 0 0 Z " fill="#000000" transform="translate(131,271)"/>
<path d="M0 0 C2.31 0.33 4.62 0.66 7 1 C7 2.32 7 3.64 7 5 C6.34 5 5.68 5 5 5 C5 4.34 5 3.68 5 3 C3.68 3 2.36 3 1 3 C0.67 3.99 0.34 4.98 0 6 C0 4.02 0 2.04 0 0 Z " fill="#FFFFFF" transform="translate(236,58)"/>
<path d="M0 0 C1.32 0 2.64 0 4 0 C4 2.31 4 4.62 4 7 C2.68 7 1.36 7 0 7 C0 4.69 0 2.38 0 0 Z " fill="#000000" transform="translate(177,299)"/>
<path d="M0 0 C0.66 0 1.32 0 2 0 C2 2.64 2 5.28 2 8 C1.01 7.67 0.02 7.34 -1 7 C-1.625 4.625 -1.625 4.625 -2 2 C-1.34 1.34 -0.68 0.68 0 0 Z " fill="#000000" transform="translate(131,291)"/>
<path d="M0 0 C1.65 0 3.3 0 5 0 C4.01 0.33 3.02 0.66 2 1 C2 2.32 2 3.64 2 5 C2.99 5.33 3.98 5.66 5 6 C4.01 6 3.02 6 2 6 C1.67 7.32 1.34 8.64 1 10 C0.67 10 0.34 10 0 10 C0 6.7 0 3.4 0 0 Z " fill="#FFFFFF" transform="translate(167,285)"/>
<path d="M0 0 C0.866 0.278 0.866 0.278 1.75 0.562 C4.207 1.04 5.644 0.757 8 0 C7.34 1.32 6.68 2.64 6 4 C4.68 4 3.36 4 2 4 C1.34 2.68 0.68 1.36 0 0 Z " fill="#000000" transform="translate(280,61)"/>
<path d="M0 0 C0.866 0.278 0.866 0.278 1.75 0.562 C4.207 1.04 5.644 0.757 8 0 C7.34 1.32 6.68 2.64 6 4 C4.68 4 3.36 4 2 4 C1.34 2.68 0.68 1.36 0 0 Z " fill="#000000" transform="translate(80,61)"/>
<path d="M0 0 C1.625 2.5 1.625 2.5 3 5 C2.34 5 1.68 5 1 5 C0.34 5.66 -0.32 6.32 -1 7 C-2.32 5.68 -3.64 4.36 -5 3 C-2.25 0 -2.25 0 0 0 Z " fill="#FFFFFF" transform="translate(118,33)"/>
<path d="M0 0 C0.66 0 1.32 0 2 0 C2 2.64 2 5.28 2 8 C1.34 8 0.68 8 0 8 C-2 5 -2 5 -1.688 2.875 C-1 1 -1 1 0 0 Z " fill="#000000" transform="translate(61,291)"/>
<path d="M0 0 C2.475 0.495 2.475 0.495 5 1 C5 2.32 5 3.64 5 5 C3.35 5.33 1.7 5.66 0 6 C0 4.02 0 2.04 0 0 Z " fill="#FFFFFF" transform="translate(237,287)"/>
<path d="M0 0 C1.98 0 3.96 0 6 0 C6 0.33 6 0.66 6 1 C4.35 1 2.7 1 1 1 C1.186 1.577 1.371 2.155 1.562 2.75 C2.04 5.207 1.757 6.644 1 9 C2.65 9 4.3 9 6 9 C6 9.33 6 9.66 6 10 C4.02 10 2.04 10 0 10 C-1.125 2.25 -1.125 2.25 0 0 Z " fill="#FFFFFF" transform="translate(200,285)"/>
<path d="M0 0 C0.66 0 1.32 0 2 0 C2.625 3.375 2.625 3.375 3 7 C2.34 7.66 1.68 8.32 1 9 C0 8 0 8 -0.098 6.152 C-0.065 4.102 -0.033 2.051 0 0 Z " fill="#FFFFFF" transform="translate(267,317)"/>
<path d="M0 0 C0.66 0 1.32 0 2 0 C2 2.31 2 4.62 2 7 C0.68 7 -0.64 7 -2 7 C-2 5.68 -2 4.36 -2 3 C-1.34 3 -0.68 3 0 3 C0 2.01 0 1.02 0 0 Z " fill="#000000" transform="translate(135,273)"/>
<path d="M0 0 C0.66 0 1.32 0 2 0 C2 2.31 2 4.62 2 7 C0.68 7 -0.64 7 -2 7 C-2 5.68 -2 4.36 -2 3 C-1.34 3 -0.68 3 0 3 C0 2.01 0 1.02 0 0 Z " fill="#000000" transform="translate(71,273)"/>
<path d="M0 0 C0.66 0.66 1.32 1.32 2 2 C1.625 5.625 1.625 5.625 1 9 C0.34 8.67 -0.32 8.34 -1 8 C-1.042 5.667 -1.041 3.333 -1 1 C-0.67 0.67 -0.34 0.34 0 0 Z " fill="#FFFFFF" transform="translate(276,317)"/>
<path d="M0 0 C1.32 0.66 2.64 1.32 4 2 C4 2.66 4 3.32 4 4 C3.34 4 2.68 4 2 4 C1.67 4.66 1.34 5.32 1 6 C0.01 5.34 -0.98 4.68 -2 4 C-1.34 2.68 -0.68 1.36 0 0 Z " fill="#FFFFFF" transform="translate(268,33)"/>
<path d="M0 0 C0.99 0.99 1.98 1.98 3 3 C2.34 4.32 1.68 5.64 1 7 C0.34 7 -0.32 7 -1 7 C-1.043 5 -1.041 3 -1 1 C-0.67 0.67 -0.34 0.34 0 0 Z " fill="#0D0D0D" transform="translate(81,53)"/>
<path d="M0 0 C0.66 0.99 1.32 1.98 2 3 C1.34 4.32 0.68 5.64 0 7 C-0.66 7 -1.32 7 -2 7 C-2 5.02 -2 3.04 -2 1 C-1.34 0.67 -0.68 0.34 0 0 Z " fill="#0D0D0D" transform="translate(282,53)"/>
<path d="M0 0 C0.99 0 1.98 0 3 0 C3 1.98 3 3.96 3 6 C2.01 6 1.02 6 0 6 C0 4.02 0 2.04 0 0 Z " fill="#FFFFFF" transform="translate(245,287)"/>
<path d="M0 0 C0.66 0 1.32 0 2 0 C2 1.65 2 3.3 2 5 C2.66 5 3.32 5 4 5 C4 5.66 4 6.32 4 7 C2.68 7 1.36 7 0 7 C0 4.69 0 2.38 0 0 Z " fill="#000000" transform="translate(10,261)"/>
</svg>
