<?xml version="1.0" encoding="UTF-8"?>
<!-- Generator: visioncortex VTracer 0.6.4 -->
<svg version="1.1" xmlns="http://www.w3.org/2000/svg" width="341" height="618">
<path d="M0 0 C112.53 0 225.06 0 341 0 C341 203.94 341 407.88 341 618 C228.47 618 115.94 618 0 618 C0 414.06 0 210.12 0 0 Z " fill="#FEFEFE" transform="translate(0,0)"/>
<path d="M0 0 C0 0.66 0 1.32 0 2 C-3.96 2.99 -7.92 3.98 -12 5 C-12 5.66 -12 6.32 -12 7 C-17.357 12 -17.357 12 -21 12 C-21 12.66 -21 13.32 -21 14 C-22.871 15.48 -22.871 15.48 -25.438 17.188 C-29.857 20.18 -34.046 23.35 -38.188 26.715 C-40 28 -40 28 -42 28 C-42 28.66 -42 29.32 -42 30 C-43.65 31.027 -45.32 32.022 -47 33 C-48.615 34.316 -50.2 35.671 -51.75 37.062 C-52.529 37.755 -53.307 38.447 -54.109 39.16 C-56.07 40.867 -56.07 40.867 -57 43 C-57.66 43 -58.32 43 -59 43 C-59.34 44.145 -59.34 44.145 -59.688 45.312 C-63.168 55.092 -67.611 62.917 -74.375 70.75 C-76.39 73.078 -76.39 73.078 -76 77 C-71.53 78.49 -67.058 78.58 -62.375 78.875 C-61.415 78.96 -60.454 79.045 -59.465 79.133 C-49.782 79.711 -44.299 75.972 -37 70 C-36.34 70 -35.68 70 -35 70 C-34.711 69.381 -34.423 68.763 -34.125 68.125 C-33 66 -33 66 -31 64 C-27.171 55.704 -28.766 46.516 -31 38 C-30.34 38 -29.68 38 -29 38 C-26.369 44.483 -25.607 50.023 -26 57 C-24.393 56.575 -22.789 56.134 -21.188 55.688 C-20.294 55.444 -19.401 55.2 -18.48 54.949 C-15.886 53.956 -14.843 53.013 -13 51 C-11.281 49.902 -11.281 49.902 -9.5 48.938 C-7.237 47.702 -5.157 46.438 -3 45 C-2.01 45.33 -1.02 45.66 0 46 C-1.267 46.984 -2.539 47.962 -3.812 48.938 C-4.52 49.483 -5.228 50.028 -5.957 50.59 C-8 52 -8 52 -11 53 C-11.433 53.474 -11.866 53.949 -12.312 54.438 C-14.61 56.565 -17.028 57.141 -20 58 C-20.082 59.114 -20.165 60.227 -20.25 61.375 C-21 65 -21 65 -23.062 66.438 C-23.702 66.623 -24.341 66.809 -25 67 C-25 67.66 -25 68.32 -25 69 C-12.485 70.015 -12.485 70.015 0 69 C-0.57 70.588 -1.157 72.17 -1.75 73.75 C-2.237 75.073 -2.237 75.073 -2.734 76.422 C-4 79 -4 79 -6.012 80.809 C-8.873 83.962 -9.271 87.208 -10.062 91.312 C-11.188 96.913 -12.632 101.793 -15 107 C-15.834 109.544 -15.834 109.544 -15 112 C-11.643 115.78 -7.871 118.524 -3 120 C-3 120.99 -3 121.98 -3 123 C-2.34 123.33 -1.68 123.66 -1 124 C-1 124.66 -1 125.32 -1 126 C-4.696 125.399 -7.647 124.338 -11 122.688 C-26.605 115.393 -41.165 113.961 -58.062 115.875 C-58.776 115.953 -59.49 116.032 -60.226 116.113 C-64.1 116.592 -67.454 117.355 -71 119 C-70.085 119.205 -69.17 119.41 -68.227 119.621 C-67.038 119.891 -65.85 120.16 -64.625 120.438 C-63.442 120.704 -62.258 120.971 -61.039 121.246 C-58 122 -58 122 -56 123 C-56 123.66 -56 124.32 -56 125 C-55.01 125.33 -54.02 125.66 -53 126 C-50.205 130.289 -50.471 134.977 -50.25 139.938 C-50.167 141.278 -50.167 141.278 -50.082 142.646 C-49.857 147.245 -49.737 150.831 -52 155 C-42.883 158.914 -33.63 162.208 -24.188 165.25 C-23.139 165.591 -22.09 165.932 -21.01 166.283 C-15.323 168.09 -9.753 169.559 -3.857 170.499 C-3.244 170.664 -2.631 170.83 -2 171 C-1.67 171.66 -1.34 172.32 -1 173 C-10.563 172.789 -19.006 170.03 -27.938 166.938 C-29.408 166.437 -30.879 165.937 -32.35 165.437 C-43.383 161.663 -54.302 157.65 -65 153 C-66.072 152.541 -67.145 152.082 -68.25 151.609 C-74.616 148.685 -78.234 145.7 -81.312 139.25 C-81.95 136.238 -81.958 134.04 -81.812 131 C-81.706 127.252 -81.963 125.425 -84.5 122.625 C-85.325 121.759 -86.15 120.892 -87 120 C-87 118.68 -87 117.36 -87 116 C-88.571 115.962 -88.571 115.962 -90.174 115.924 C-94.129 115.829 -98.084 115.729 -102.039 115.628 C-103.738 115.585 -105.437 115.543 -107.136 115.503 C-137.216 114.784 -137.216 114.784 -140 112 C-142.027 111.539 -142.027 111.539 -144.352 111.367 C-145.628 111.242 -145.628 111.242 -146.93 111.113 C-147.819 111.035 -148.709 110.956 -149.625 110.875 C-150.971 110.745 -150.971 110.745 -152.344 110.613 C-154.562 110.401 -156.78 110.197 -159 110 C-158.988 110.71 -158.977 111.421 -158.965 112.152 C-158.956 113.071 -158.947 113.991 -158.938 114.938 C-158.926 115.854 -158.914 116.771 -158.902 117.715 C-159 120 -159 120 -160 121 C-160.327 122.472 -160.611 123.953 -160.875 125.438 C-162.558 134.123 -165.251 142.005 -169 150 C-169.918 152.02 -170.835 154.041 -171.75 156.062 C-172.5 157.709 -173.249 159.354 -174 161 C-172.793 161.959 -172.793 161.959 -171.562 162.938 C-167.723 167.526 -167.809 171.401 -168.117 177.207 C-169.693 188.487 -176.388 199.266 -182 209 C-182.933 210.804 -183.852 212.616 -184.75 214.438 C-185.178 215.302 -185.606 216.167 -186.047 217.059 C-186.361 217.699 -186.676 218.34 -187 219 C-187.99 218.67 -188.98 218.34 -190 218 C-188.35 214.7 -186.7 211.4 -185 208 C-186.321 207.87 -186.321 207.87 -187.668 207.738 C-198.335 206.448 -198.335 206.448 -201.312 203.375 C-201.869 202.591 -202.426 201.808 -203 201 C-198 203 -198 203 -195.812 204.062 C-191.63 205.457 -187.38 205.677 -183 206 C-182.741 205.314 -182.482 204.628 -182.215 203.922 C-180.833 200.597 -179.215 197.449 -177.562 194.25 C-172.545 184.319 -169.198 176.206 -172 165 C-172.66 165 -173.32 165 -174 165 C-174 164.34 -174 163.68 -174 163 C-177.18 164.386 -178.111 165.148 -180.312 168.062 C-183.935 172.537 -188.665 175.031 -193.618 177.803 C-199.965 181.384 -203.073 184.682 -206.125 191.438 C-209.225 198.009 -213.152 203.429 -217.695 209.066 C-219.671 211.581 -221.37 214.068 -223 216.812 C-223.66 217.864 -224.32 218.916 -225 220 C-225.66 220 -226.32 220 -227 220 C-226.116 215.677 -223.833 212.678 -221.25 209.188 C-220.819 208.596 -220.389 208.005 -219.945 207.396 C-216.337 202.443 -216.337 202.443 -214.636 200.206 C-211.912 196.557 -210.106 193.278 -208.75 188.875 C-208.278 187.386 -208.278 187.386 -207.797 185.867 C-206.547 181.37 -205.875 177.363 -205.938 172.688 C-205.947 171.804 -205.956 170.921 -205.965 170.012 C-205.976 169.348 -205.988 168.684 -206 168 C-206.326 168.592 -206.652 169.183 -206.988 169.793 C-213.639 181.82 -213.639 181.82 -216 183 C-221.697 183.678 -225.212 181.735 -230 179 C-230.868 178.529 -231.735 178.059 -232.629 177.574 C-237.396 174.889 -240.56 173.082 -243 168 C-242.5 165.75 -242.5 165.75 -241 163 C-240.585 162.236 -240.17 161.471 -239.742 160.684 C-238.515 158.443 -237.266 156.218 -236 154 C-242.252 159.05 -248.355 164.711 -252 172 C-252.66 172 -253.32 172 -254 172 C-254.233 172.534 -254.467 173.067 -254.707 173.617 C-256.384 176.708 -258.514 179.376 -260.688 182.125 C-263.712 185.997 -266.665 189.879 -269.438 193.938 C-272.778 198.798 -276.406 203.404 -280.094 208.004 C-282.276 210.74 -284.332 213.464 -286.207 216.422 C-286.799 217.273 -287.39 218.123 -288 219 C-288.66 219 -289.32 219 -290 219 C-288.875 216.028 -287.777 213.666 -286 211 C-285.34 211 -284.68 211 -284 211 C-283.762 210.299 -283.523 209.597 -283.277 208.875 C-281.776 205.496 -279.829 202.918 -277.562 200 C-275.312 197.093 -273.179 194.31 -271.34 191.125 C-270.898 190.424 -270.456 189.722 -270 189 C-269.34 189 -268.68 189 -268 189 C-267.745 188.274 -267.49 187.549 -267.227 186.801 C-265.932 183.845 -264.395 181.694 -262.375 179.188 C-261.428 178.002 -261.428 178.002 -260.461 176.793 C-259.979 176.201 -259.497 175.61 -259 175 C-260.052 174.278 -261.104 173.556 -262.188 172.812 C-265.462 170.492 -268.162 167.838 -271 165 C-271.66 165 -272.32 165 -273 165 C-274.637 166.618 -274.637 166.618 -276.312 168.688 C-279.094 171.95 -281.834 175.105 -285 178 C-285.66 178 -286.32 178 -287 178 C-287.33 178.99 -287.66 179.98 -288 181 C-288.99 181.33 -289.98 181.66 -291 182 C-294.166 186.05 -295.677 189.661 -296.875 194.625 C-298.915 202.229 -301.616 211.827 -308 217 C-308.66 217 -309.32 217 -310 217 C-310 216.34 -310 215.68 -310 215 C-309.34 215 -308.68 215 -308 215 C-307.752 214.34 -307.505 213.68 -307.25 213 C-306 210 -306 210 -304.188 206.75 C-301.629 201.795 -300.307 196.457 -298.927 191.079 C-297.706 186.569 -296.348 183.426 -293 180 C-290.25 178.688 -290.25 178.688 -288 178 C-288 177.34 -288 176.68 -288 176 C-282.524 171 -282.524 171 -280 171 C-279.732 170.443 -279.464 169.886 -279.188 169.312 C-277.899 166.803 -276.471 164.407 -275 162 C-275.969 162.103 -276.939 162.206 -277.938 162.312 C-287.264 162.238 -294.858 154.197 -301 148 C-302.03 146.689 -303.042 145.363 -304 144 C-303.67 143.34 -303.34 142.68 -303 142 C-301.763 143.53 -300.526 145.06 -299.289 146.59 C-298.033 148.133 -298.033 148.133 -296 149 C-296 149.66 -296 150.32 -296 151 C-295.227 151.34 -295.227 151.34 -294.438 151.688 C-292 153 -292 153 -288.938 155.438 C-284.447 158.752 -279.374 159.805 -274 161 C-274.387 160.417 -274.773 159.835 -275.172 159.234 C-279.922 151.756 -283.586 143.837 -284.562 134.938 C-285.048 131.676 -285.642 131.107 -288 129 C-289.048 129.541 -289.048 129.541 -290.117 130.094 C-291.027 130.558 -291.937 131.022 -292.875 131.5 C-293.78 131.964 -294.685 132.428 -295.617 132.906 C-298 134 -298 134 -300 134 C-300 134.66 -300 135.32 -300 136 C-301.609 137.621 -301.609 137.621 -303.75 139.438 C-304.446 140.034 -305.142 140.631 -305.859 141.246 C-311.661 146 -311.661 146 -314 146 C-314.99 147.98 -314.99 147.98 -316 150 C-316.66 150 -317.32 150 -318 150 C-318.99 151.98 -318.99 151.98 -320 154 C-320.66 154 -321.32 154 -322 154 C-322.33 154.99 -322.66 155.98 -323 157 C-323.66 157 -324.32 157 -325 157 C-321.827 149.877 -315.806 143.727 -309 140 C-308.34 140 -307.68 140 -307 140 C-306.742 139.401 -306.484 138.801 -306.219 138.184 C-303.262 132.887 -297.495 130.162 -292.047 128.016 C-285.637 124.849 -284.055 120.173 -281.75 113.688 C-281.34 112.623 -280.93 111.559 -280.508 110.463 C-279.305 107.32 -278.149 104.163 -277 101 C-276.361 99.298 -275.719 97.598 -275.074 95.898 C-274.048 93.191 -273.044 90.477 -272.059 87.754 C-271 85 -271 85 -270 84 C-267.567 84.065 -265.175 84.192 -262.75 84.375 C-262.081 84.419 -261.412 84.463 -260.723 84.508 C-257.071 84.766 -253.578 85.245 -250 86 C-250.094 80.041 -250.2 74.082 -250.317 68.123 C-250.355 66.099 -250.39 64.075 -250.422 62.051 C-250.468 59.129 -250.526 56.207 -250.586 53.285 C-250.597 52.391 -250.609 51.497 -250.621 50.576 C-250.754 44.798 -251.584 39.607 -253 34 C-254.23 33.769 -255.46 33.539 -256.727 33.301 C-258.36 32.972 -259.992 32.643 -261.625 32.312 C-262.433 32.164 -263.241 32.015 -264.074 31.861 C-269.682 30.699 -273.002 29.157 -277 25 C-277.614 21.657 -277.405 19.885 -276 16.812 C-267.401 9.02 -251.43 9.615 -240.551 9.812 C-217.997 11.003 -217.997 11.003 -211 18 C-210.447 24.088 -210.447 24.088 -212.062 26.75 C-218.762 31.072 -226.3 32.367 -234 34 C-234.852 36.977 -235.147 39.676 -235.205 42.769 C-235.225 43.709 -235.245 44.65 -235.266 45.619 C-235.282 46.627 -235.299 47.634 -235.316 48.672 C-235.348 50.228 -235.348 50.228 -235.379 51.816 C-235.445 55.127 -235.504 58.439 -235.562 61.75 C-235.606 63.996 -235.649 66.242 -235.693 68.488 C-235.8 73.992 -235.902 79.496 -236 85 C-233.271 85.761 -230.795 86.141 -227.966 86.205 C-226.795 86.235 -226.795 86.235 -225.601 86.266 C-224.768 86.282 -223.936 86.299 -223.078 86.316 C-221.788 86.348 -221.788 86.348 -220.472 86.379 C-217.731 86.445 -214.991 86.504 -212.25 86.562 C-210.389 86.606 -208.529 86.649 -206.668 86.693 C-202.112 86.8 -197.556 86.902 -193 87 C-193.031 85.577 -193.031 85.577 -193.062 84.125 C-193 81 -193 81 -192 79 C-182.847 78.893 -173.714 78.949 -164.566 79.293 C-163.832 79.32 -163.099 79.346 -162.342 79.374 C-158.632 79.509 -154.922 79.656 -151.213 79.82 C-149.822 79.873 -148.43 79.925 -147.039 79.977 C-145.804 80.029 -144.568 80.081 -143.295 80.135 C-140.075 80.193 -140.075 80.193 -137.6 79.004 C-134.871 77.95 -133.012 77.768 -130.105 77.805 C-129.161 77.811 -128.217 77.818 -127.243 77.825 C-126.235 77.841 -125.227 77.858 -124.188 77.875 C-123.141 77.883 -122.095 77.89 -121.016 77.898 C-116.547 77.931 -112.079 77.987 -107.61 78.041 C-104.344 78.077 -101.079 78.101 -97.812 78.125 C-96.804 78.142 -95.796 78.158 -94.757 78.175 C-93.812 78.182 -92.868 78.189 -91.895 78.195 C-91.068 78.206 -90.241 78.216 -89.39 78.227 C-86.597 77.962 -84.516 77.229 -82 76 C-80.225 73.842 -80.225 73.842 -78.875 71.25 C-78.366 70.353 -77.857 69.456 -77.332 68.531 C-76.337 66.64 -75.427 64.704 -74.562 62.75 C-73.017 60.03 -71.907 59.004 -69.5 57.125 C-65.54 53.957 -64.431 50.738 -63 46 C-62.36 44.653 -61.71 43.311 -61 42 C-60.34 42 -59.68 42 -59 42 C-58.629 41.072 -58.629 41.072 -58.25 40.125 C-56.772 37.613 -55.56 37.239 -53 36 C-52.67 35.01 -52.34 34.02 -52 33 C-49.777 31.168 -49.777 31.168 -46.938 29.188 C-42.935 26.375 -38.987 23.512 -35.081 20.568 C-33.036 19.027 -30.984 17.495 -28.93 15.965 C-28.261 15.465 -27.592 14.966 -26.902 14.451 C-25.544 13.437 -24.185 12.424 -22.824 11.412 C-19.711 9.085 -16.654 6.736 -13.699 4.211 C-9.426 0.711 -5.468 -0.322 0 0 Z " fill="#1B1B1B" transform="translate(332,47)"/>
<path d="M0 0 C4.328 0.873 6.152 2.568 9 6 C13.325 14.65 13.221 24.484 13 34 C14.485 33.505 14.485 33.505 16 33 C17.738 32.91 19.48 32.878 21.22 32.88 C22.301 32.878 23.382 32.877 24.496 32.876 C25.682 32.879 26.869 32.883 28.091 32.886 C29.339 32.886 30.588 32.886 31.875 32.886 C35.3 32.887 38.726 32.892 42.151 32.899 C45.731 32.905 49.31 32.905 52.889 32.907 C59.668 32.91 66.447 32.918 73.225 32.928 C80.942 32.939 88.659 32.945 96.376 32.95 C112.251 32.96 128.125 32.978 144 33 C143.991 32.178 143.983 31.356 143.974 30.509 C143.968 29.429 143.961 28.35 143.954 27.238 C143.946 26.168 143.937 25.099 143.928 23.997 C144.113 16.277 146.926 7.893 152 2 C152.99 1.67 153.98 1.34 155 1 C156 2 156 2 156.114 4.408 C156.108 5.451 156.103 6.493 156.098 7.566 C156.094 8.691 156.091 9.816 156.088 10.975 C156.08 12.159 156.071 13.343 156.062 14.562 C156.058 15.75 156.053 16.938 156.049 18.162 C156.037 21.108 156.021 24.054 156 27 C157.791 27.081 159.583 27.139 161.375 27.188 C162.373 27.222 163.37 27.257 164.398 27.293 C165.686 27.148 165.686 27.148 167 27 C167.99 25.515 167.99 25.515 169 24 C171.692 23.714 174.153 23.622 176.846 23.659 C177.656 23.659 178.466 23.659 179.3 23.658 C181.984 23.66 184.668 23.684 187.352 23.707 C189.21 23.713 191.068 23.717 192.926 23.72 C197.822 23.731 202.717 23.761 207.613 23.794 C212.607 23.825 217.6 23.838 222.594 23.854 C232.396 23.886 242.198 23.937 252 24 C252 26.97 252 29.94 252 33 C269.82 33 287.64 33 306 33 C306 35.31 306 37.62 306 40 C305.67 40 305.34 40 305 40 C305 38.35 305 36.7 305 35 C304.01 35 303.02 35 302 35 C301.67 36.32 301.34 37.64 301 39 C301 37.68 301 36.36 301 35 C300.01 35 299.02 35 298 35 C298 36.65 298 38.3 298 40 C297.67 40 297.34 40 297 40 C297 38.35 297 36.7 297 35 C296.34 35 295.68 35 295 35 C295 36.32 295 37.64 295 39 C294.34 39 293.68 39 293 39 C293 37.68 293 36.36 293 35 C292.34 35 291.68 35 291 35 C291 36.98 291 38.96 291 41 C290.67 41 290.34 41 290 41 C290 39.02 290 37.04 290 35 C289.01 35 288.02 35 287 35 C286.67 36.32 286.34 37.64 286 39 C286 37.68 286 36.36 286 35 C285.01 35 284.02 35 283 35 C283 36.65 283 38.3 283 40 C282.67 40 282.34 40 282 40 C282 38.35 282 36.7 282 35 C281.01 35 280.02 35 279 35 C278.67 36.32 278.34 37.64 278 39 C278 37.68 278 36.36 278 35 C277.01 35 276.02 35 275 35 C275 36.65 275 38.3 275 40 C274.67 40 274.34 40 274 40 C274 38.35 274 36.7 274 35 C273.01 35 272.02 35 271 35 C270.67 36.32 270.34 37.64 270 39 C270 37.68 270 36.36 270 35 C269.01 35 268.02 35 267 35 C267 36.65 267 38.3 267 40 C266.67 40 266.34 40 266 40 C266 38.35 266 36.7 266 35 C265.34 35 264.68 35 264 35 C264 36.32 264 37.64 264 39 C263.34 39 262.68 39 262 39 C262 37.68 262 36.36 262 35 C261.34 35 260.68 35 260 35 C259.67 36.65 259.34 38.3 259 40 C258.67 40 258.34 40 258 40 C258 38.35 258 36.7 258 35 C257.34 35 256.68 35 256 35 C255.67 36.32 255.34 37.64 255 39 C254.67 37.68 254.34 36.36 254 35 C253.34 35 252.68 35 252 35 C252 36.98 252 38.96 252 41 C251.67 41 251.34 41 251 41 C251 39.02 251 37.04 251 35 C250.01 35 249.02 35 248 35 C247.67 36.32 247.34 37.64 247 39 C247 37.68 247 36.36 247 35 C246.01 35 245.02 35 244 35 C244 36.65 244 38.3 244 40 C243.67 40 243.34 40 243 40 C243 38.35 243 36.7 243 35 C242.01 35 241.02 35 240 35 C239.67 36.32 239.34 37.64 239 39 C239 37.68 239 36.36 239 35 C238.01 35 237.02 35 236 35 C236 36.65 236 38.3 236 40 C235.67 40 235.34 40 235 40 C235 38.35 235 36.7 235 35 C234.01 35 233.02 35 232 35 C231.67 36.32 231.34 37.64 231 39 C231 37.68 231 36.36 231 35 C230.01 35 229.02 35 228 35 C228 36.65 228 38.3 228 40 C227.67 40 227.34 40 227 40 C227 38.35 227 36.7 227 35 C226.01 35 225.02 35 224 35 C223.67 36.32 223.34 37.64 223 39 C223 37.68 223 36.36 223 35 C222.34 35 221.68 35 221 35 C220.67 36.65 220.34 38.3 220 40 C219.67 40 219.34 40 219 40 C219 38.35 219 36.7 219 35 C218.34 35 217.68 35 217 35 C216.67 36.32 216.34 37.64 216 39 C216 37.68 216 36.36 216 35 C215.01 35 214.02 35 213 35 C213 36.98 213 38.96 213 41 C212.67 41 212.34 41 212 41 C212 39.02 212 37.04 212 35 C211.01 35 210.02 35 209 35 C208.67 36.32 208.34 37.64 208 39 C208 37.68 208 36.36 208 35 C207.01 35 206.02 35 205 35 C205 36.65 205 38.3 205 40 C204.67 40 204.34 40 204 40 C204 38.35 204 36.7 204 35 C203.01 35 202.02 35 201 35 C200.67 36.32 200.34 37.64 200 39 C200 37.68 200 36.36 200 35 C199.01 35 198.02 35 197 35 C197 36.65 197 38.3 197 40 C196.67 40 196.34 40 196 40 C196 38.35 196 36.7 196 35 C195.01 35 194.02 35 193 35 C192.67 36.32 192.34 37.64 192 39 C192 37.68 192 36.36 192 35 C191.01 35 190.02 35 189 35 C189 36.65 189 38.3 189 40 C188.67 40 188.34 40 188 40 C188 38.35 188 36.7 188 35 C187.34 35 186.68 35 186 35 C186 36.32 186 37.64 186 39 C185.34 39 184.68 39 184 39 C184 37.68 184 36.36 184 35 C183.34 35 182.68 35 182 35 C182 36.65 182 38.3 182 40 C181.67 40 181.34 40 181 40 C181 38.35 181 36.7 181 35 C180.01 35 179.02 35 178 35 C177.67 36.32 177.34 37.64 177 39 C177 37.68 177 36.36 177 35 C176.01 35 175.02 35 174 35 C174 36.98 174 38.96 174 41 C173.67 41 173.34 41 173 41 C173 39.02 173 37.04 173 35 C172.01 35 171.02 35 170 35 C169.67 36.32 169.34 37.64 169 39 C169 37.68 169 36.36 169 35 C168.01 35 167.02 35 166 35 C166 36.65 166 38.3 166 40 C165.67 40 165.34 40 165 40 C165 38.35 165 36.7 165 35 C164.01 35 163.02 35 162 35 C161.67 36.32 161.34 37.64 161 39 C161 37.68 161 36.36 161 35 C160.01 35 159.02 35 158 35 C158 36.65 158 38.3 158 40 C157.67 40 157.34 40 157 40 C157 38.35 157 36.7 157 35 C156.34 35 155.68 35 155 35 C155 36.32 155 37.64 155 39 C154.34 39 153.68 39 153 39 C153 37.68 153 36.36 153 35 C152.34 35 151.68 35 151 35 C151 36.65 151 38.3 151 40 C150.34 40 149.68 40 149 40 C149 38.35 149 36.7 149 35 C148.34 35 147.68 35 147 35 C146.67 36.32 146.34 37.64 146 39 C146 37.68 146 36.36 146 35 C145.01 35 144.02 35 143 35 C143 36.65 143 38.3 143 40 C142.67 40 142.34 40 142 40 C142 38.35 142 36.7 142 35 C141.01 35 140.02 35 139 35 C138.67 36.32 138.34 37.64 138 39 C138 37.68 138 36.36 138 35 C137.01 35.495 137.01 35.495 136 36 C135.344 38.527 135.344 38.527 135 41 C134.67 41 134.34 41 134 41 C134 39.02 134 37.04 134 35 C133.01 35 132.02 35 131 35 C130.67 36.32 130.34 37.64 130 39 C130 37.68 130 36.36 130 35 C129.01 35 128.02 35 127 35 C127 36.65 127 38.3 127 40 C126.67 40 126.34 40 126 40 C126 38.35 126 36.7 126 35 C125.01 35 124.02 35 123 35 C123.33 35.99 123.66 36.98 124 38 C123.01 38.495 123.01 38.495 122 39 C122 37.68 122 36.36 122 35 C121.34 35 120.68 35 120 35 C120 36.65 120 38.3 120 40 C119.34 40 118.68 40 118 40 C118 38.35 118 36.7 118 35 C117.34 35 116.68 35 116 35 C115.67 36.32 115.34 37.64 115 39 C115 37.68 115 36.36 115 35 C114.01 35 113.02 35 112 35 C112 36.65 112 38.3 112 40 C111.67 40 111.34 40 111 40 C111 38.35 111 36.7 111 35 C110.01 35 109.02 35 108 35 C107.67 36.32 107.34 37.64 107 39 C107 37.68 107 36.36 107 35 C106.01 35 105.02 35 104 35 C104 36.65 104 38.3 104 40 C103.67 40 103.34 40 103 40 C103 38.35 103 36.7 103 35 C102.34 35 101.68 35 101 35 C101 36.32 101 37.64 101 39 C100.34 39 99.68 39 99 39 C99 37.68 99 36.36 99 35 C98.01 35 97.02 35 96 35 C96 36.98 96 38.96 96 41 C95.67 41 95.34 41 95 41 C95 39.02 95 37.04 95 35 C94.34 35 93.68 35 93 35 C92.67 36.32 92.34 37.64 92 39 C91.505 37.02 91.505 37.02 91 35 C90.34 35 89.68 35 89 35 C89 36.65 89 38.3 89 40 C88.34 40 87.68 40 87 40 C87 38.35 87 36.7 87 35 C86.34 35 85.68 35 85 35 C84.67 36.32 84.34 37.64 84 39 C84 37.68 84 36.36 84 35 C83.01 35 82.02 35 81 35 C81 36.65 81 38.3 81 40 C80.67 40 80.34 40 80 40 C80 38.35 80 36.7 80 35 C79.01 35 78.02 35 77 35 C76.67 36.32 76.34 37.64 76 39 C76 37.68 76 36.36 76 35 C75.34 35 74.68 35 74 35 C74 36.65 74 38.3 74 40 C73.34 40 72.68 40 72 40 C72 38.35 72 36.7 72 35 C71.34 35 70.68 35 70 35 C70 36.32 70 37.64 70 39 C69.34 39 68.68 39 68 39 C68 37.68 68 36.36 68 35 C67.34 35 66.68 35 66 35 C66 36.65 66 38.3 66 40 C65.67 40 65.34 40 65 40 C65 38.35 65 36.7 65 35 C63.68 35 62.36 35 61 35 C61.33 35.99 61.66 36.98 62 38 C61.01 38.495 61.01 38.495 60 39 C60 37.68 60 36.36 60 35 C59.34 35 58.68 35 58 35 C58 36.98 58 38.96 58 41 C57.711 40.381 57.422 39.762 57.125 39.125 C56.063 36.867 56.063 36.867 54 35 C53.67 36.32 53.34 37.64 53 39 C52.67 38.34 52.34 37.68 52 37 C52.495 36.01 52.495 36.01 53 35 C52.01 35 51.02 35 50 35 C50 36.65 50 38.3 50 40 C49.67 40 49.34 40 49 40 C49 38.35 49 36.7 49 35 C48.01 35 47.02 35 46 35 C45.67 36.32 45.34 37.64 45 39 C45 37.68 45 36.36 45 35 C44.01 35 43.02 35 42 35 C42.33 35.99 42.66 36.98 43 38 C42.34 38.66 41.68 39.32 41 40 C41 38.35 41 36.7 41 35 C40.34 35 39.68 35 39 35 C38.67 36.32 38.34 37.64 38 39 C37.505 37.02 37.505 37.02 37 35 C36.34 35 35.68 35 35 35 C34.67 36.65 34.34 38.3 34 40 C33.67 40 33.34 40 33 40 C33 38.35 33 36.7 33 35 C32.34 35 31.68 35 31 35 C30.67 36.32 30.34 37.64 30 39 C30 37.68 30 36.36 30 35 C29.01 35 28.02 35 27 35 C26.67 36.65 26.34 38.3 26 40 C25.67 40 25.34 40 25 40 C25 38.35 25 36.7 25 35 C24.34 35 23.68 35 23 35 C23 36.32 23 37.64 23 39 C22.34 39 21.68 39 21 39 C21 37.68 21 36.36 21 35 C20.34 35 19.68 35 19 35 C19 36.98 19 38.96 19 41 C18.34 41 17.68 41 17 41 C17 39.35 17 37.7 17 36 C7.76 36 -1.48 36 -11 36 C-11 40.95 -11 45.9 -11 51 C-1.76 51 7.48 51 17 51 C17 49.35 17 47.7 17 46 C17.66 46 18.32 46 19 46 C19.66 46.99 20.32 47.98 21 49 C22.32 49 23.64 49 25 49 C25.495 48.01 25.495 48.01 26 47 C26.99 47.66 27.98 48.32 29 49 C29.99 49 30.98 49 32 49 C32.33 48.01 32.66 47.02 33 46 C33.66 46 34.32 46 35 46 C35 46.99 35 47.98 35 49 C37.416 49.167 37.416 49.167 40 49 C40.66 48.34 41.32 47.68 42 47 C42.33 47.66 42.66 48.32 43 49 C45.475 48.505 45.475 48.505 48 48 C48 47.34 48 46.68 48 46 C48.66 46 49.32 46 50 46 C50.66 46.99 51.32 47.98 52 49 C52.99 49 53.98 49 55 49 C55.99 48.01 55.99 48.01 57 47 C57.66 47.66 58.32 48.32 59 49 C61.584 49.167 61.584 49.167 64 49 C64.33 48.01 64.66 47.02 65 46 C65 46.99 65 47.98 65 49 C67.917 49.167 67.917 49.167 71 49 C71.99 48.01 71.99 48.01 73 47 C73 47.66 73 48.32 73 49 C75.416 49.25 75.416 49.25 78 49 C78.66 48.01 79.32 47.02 80 46 C80.33 46.99 80.66 47.98 81 49 C82.98 49 84.96 49 87 49 C87.495 48.01 87.495 48.01 88 47 C88.66 47.66 89.32 48.32 90 49 C91.32 49 92.64 49 94 49 C94.66 48.01 95.32 47.02 96 46 C96.66 46.99 97.32 47.98 98 49 C99.32 49 100.64 49 102 49 C102.495 48.01 102.495 48.01 103 47 C103.33 47.66 103.66 48.32 104 49 C105.98 49 107.96 49 110 49 C110.33 48.01 110.66 47.02 111 46 C111.66 46.99 112.32 47.98 113 49 C114.32 49 115.64 49 117 49 C117.33 48.34 117.66 47.68 118 47 C118.66 47.66 119.32 48.32 120 49 C121.32 49 122.64 49 124 49 C124.66 48.01 125.32 47.02 126 46 C126 46.99 126 47.98 126 49 C126.928 49 127.856 49 128.812 49 C132.208 49 135.604 49 139 49 C139.66 48.01 140.32 47.02 141 46 C141.33 46.99 141.66 47.98 142 49 C142.763 49 143.526 49 144.312 49 C150 49 150 49 152.562 49.188 C153.367 49.126 154.171 49.064 155 49 C155.66 48.01 156.32 47.02 157 46 C157.66 46.99 158.32 47.98 159 49 C159.887 48.814 160.774 48.629 161.688 48.438 C164.852 48.02 166.948 48.192 170 49 C170.66 48.01 171.32 47.02 172 46 C172.33 46.99 172.66 47.98 173 49 C174.052 48.814 175.104 48.629 176.188 48.438 C179.571 48.049 181.764 48.118 185 49 C185.33 48.01 185.66 47.02 186 46 C186.66 46 187.32 46 188 46 C188 46.99 188 47.98 188 49 C189.072 48.814 190.145 48.629 191.25 48.438 C194.465 48.062 196.046 48.015 199 49 C199.66 49 200.32 49 201 49 C201.66 48.01 202.32 47.02 203 46 C203.66 46.99 204.32 47.98 205 49 C205.722 48.814 206.444 48.629 207.188 48.438 C210 48 210 48 212.625 48.625 C213.801 48.811 213.801 48.811 215 49 C216.835 47.666 216.835 47.666 218 46 C218.33 46.99 218.66 47.98 219 49 C219.763 49 220.526 49 221.312 49 C224.875 49 228.437 49 232 49 C232 48.01 232 47.02 232 46 C232.66 46 233.32 46 234 46 C234 46.99 234 47.98 234 49 C234.763 49 235.526 49 236.312 49 C242 49 242 49 244.562 49.188 C245.367 49.126 246.171 49.064 247 49 C247.66 48.01 248.32 47.02 249 46 C249.66 46.99 250.32 47.98 251 49 C251.887 48.814 252.774 48.629 253.688 48.438 C256.852 48.02 258.948 48.192 262 49 C262.66 48.01 263.32 47.02 264 46 C264.33 46.99 264.66 47.98 265 49 C265.763 49 266.526 49 267.312 49 C271.208 49 275.104 49 279 49 C279.33 48.01 279.66 47.02 280 46 C280.66 46.99 281.32 47.98 282 49 C282.887 48.814 283.774 48.629 284.688 48.438 C287.852 48.02 289.948 48.192 293 49 C293.66 48.01 294.32 47.02 295 46 C295.33 46.99 295.66 47.98 296 49 C296.763 49 297.526 49 298.312 49 C300.875 49 303.437 49 306 49 C306.33 51.31 306.66 53.62 307 56 C295.502 58.692 282.393 56.886 270.625 56.5 C269.099 56.452 267.573 56.403 266.047 56.355 C262.365 56.239 258.682 56.12 255 56 C255.01 56.555 255.021 57.109 255.032 57.681 C255.073 60.204 255.099 62.727 255.125 65.25 C255.142 66.123 255.159 66.995 255.176 67.895 C255.182 68.739 255.189 69.583 255.195 70.453 C255.206 71.228 255.216 72.003 255.227 72.802 C254.968 75.315 254.373 76.885 253 79 C248.362 80.657 245.197 79.651 240.832 77.887 C239 77 239 77 236 75 C233.263 74.554 230.587 74.205 227.832 73.93 C227.037 73.844 226.242 73.758 225.424 73.669 C222.887 73.397 220.35 73.136 217.812 72.875 C216.092 72.692 214.371 72.509 212.65 72.324 C208.434 71.874 204.218 71.434 200 71 C199.67 70.01 199.34 69.02 199 68 C197.35 68 195.7 68 194 68 C193.87 69.28 193.87 69.28 193.738 70.586 C188.056 121.153 188.056 121.153 180.188 128.75 C177.593 130.232 175.941 130.245 173 130 C172.191 126.391 171.822 122.955 171.684 119.262 C171.621 117.662 171.621 117.662 171.557 116.029 C171.517 114.927 171.478 113.824 171.438 112.688 C171.394 111.565 171.351 110.443 171.307 109.287 C171.201 106.525 171.099 103.763 171 101 C152.05 101.014 133.101 101.056 114.151 101.132 C105.352 101.167 96.554 101.192 87.755 101.196 C80.086 101.199 72.418 101.219 64.749 101.261 C60.688 101.282 56.628 101.294 52.567 101.286 C48.745 101.279 44.923 101.294 41.1 101.328 C39.698 101.336 38.295 101.336 36.893 101.327 C28.692 100.882 28.692 100.882 21.705 104.367 C19.936 107.099 18.826 109.515 17.875 112.625 C15.999 118.685 15.999 118.685 13 121 C12.34 121 11.68 121 11 121 C11 124.3 11 127.6 11 131 C6.981 130.904 4.63 130.096 1.875 127.25 C-4.921 118.272 -6.09 105.358 -8.062 94.562 C-8.551 91.938 -9.043 89.315 -9.535 86.691 C-9.892 84.757 -9.892 84.757 -10.255 82.784 C-10.961 79.197 -11.807 75.669 -12.668 72.117 C-14.29 64.647 -14.388 57.408 -14.281 49.802 C-14.25 47.54 -14.24 45.279 -14.234 43.018 C-14.194 36.586 -14.024 30.354 -13 24 C-9.04 24 -5.08 24 -1 24 C-1.021 22.082 -1.041 20.164 -1.062 18.188 C-1.069 12.071 -0.682 6.076 0 0 Z " fill="#0F0F0F" transform="translate(27,425)"/>
<path d="M0 0 C1.32 0 2.64 0 4 0 C4.66 0.99 5.32 1.98 6 3 C8.738 3.465 8.738 3.465 12.011 3.399 C13.293 3.411 14.574 3.424 15.895 3.437 C17.323 3.436 18.752 3.434 20.18 3.432 C21.678 3.441 23.176 3.452 24.674 3.463 C28.748 3.491 32.822 3.5 36.896 3.506 C41.151 3.515 45.406 3.542 49.66 3.566 C57.721 3.61 65.782 3.638 73.842 3.661 C83.017 3.688 92.193 3.732 101.368 3.778 C120.245 3.871 139.123 3.94 158 4 C158 14.23 158 24.46 158 35 C139.311 35.068 120.622 35.123 101.933 35.155 C93.256 35.171 84.578 35.192 75.901 35.226 C68.337 35.256 60.774 35.276 53.211 35.282 C49.206 35.286 45.202 35.295 41.197 35.317 C37.427 35.338 33.657 35.344 29.887 35.339 C28.504 35.34 27.121 35.346 25.738 35.358 C23.848 35.373 21.958 35.367 20.068 35.361 C19.011 35.364 17.953 35.366 16.864 35.369 C13.554 34.943 11.68 33.956 9 32 C7.742 29.949 7.742 29.949 6.875 27.688 C6.395 26.5 6.395 26.5 5.906 25.289 C5.607 24.534 5.308 23.778 5 23 C2.985 18.651 2.985 18.651 0 15 C-0.145 12.419 -0.187 9.951 -0.125 7.375 C-0.116 6.669 -0.107 5.962 -0.098 5.234 C-0.074 3.489 -0.038 1.745 0 0 Z " fill="#FFFFFF" transform="translate(39,478)"/>
<path d="M0 0 C3.437 -0.087 6.874 -0.14 10.312 -0.188 C11.289 -0.213 12.265 -0.238 13.271 -0.264 C14.209 -0.273 15.147 -0.283 16.113 -0.293 C16.977 -0.309 17.841 -0.324 18.732 -0.341 C21.45 0.068 22.304 0.896 24 3 C23.34 3 22.68 3 22 3 C22.495 3.619 22.99 4.238 23.5 4.875 C25 7 25 7 25 9 C32.944 13.449 40.541 13.251 49.438 13.125 C50.646 13.116 51.854 13.107 53.1 13.098 C56.067 13.074 59.033 13.041 62 13 C61.178 12.98 60.356 12.96 59.509 12.94 C55.777 12.845 52.045 12.735 48.312 12.625 C47.019 12.594 45.725 12.563 44.393 12.531 C43.145 12.493 41.898 12.454 40.613 12.414 C39.466 12.383 38.32 12.351 37.138 12.319 C34 12 31.786 11.463 29 10 C28.34 9.01 27.68 8.02 27 7 C27.947 7.324 28.895 7.648 29.871 7.981 C34.589 9.321 39.186 9.306 44.062 9.301 C45.488 9.307 45.488 9.307 46.942 9.314 C48.942 9.319 50.942 9.32 52.942 9.316 C55.991 9.313 59.038 9.336 62.086 9.361 C64.036 9.364 65.987 9.364 67.938 9.363 C68.842 9.372 69.746 9.382 70.678 9.391 C76.216 9.351 80.063 8.54 85 6 C84.67 6.639 84.34 7.279 84 7.938 C82.927 9.768 82.927 9.768 83 11 C83.66 11 84.32 11 85 11 C85.268 10.423 85.536 9.845 85.812 9.25 C87.079 6.85 88.127 4.976 90 3 C92.635 2.546 92.635 2.546 95.762 2.609 C96.88 2.622 97.998 2.635 99.15 2.648 C100.318 2.682 101.485 2.715 102.688 2.75 C103.866 2.768 105.045 2.786 106.26 2.805 C109.174 2.852 112.087 2.918 115 3 C111.15 21.736 111.15 21.736 106 29 C105.246 30.116 105.246 30.116 104.477 31.254 C98.416 39.662 90.549 45.979 81 50 C80.01 50 79.02 50 78 50 C77.991 49.426 77.981 48.851 77.972 48.259 C77.918 45.63 77.834 43.003 77.75 40.375 C77.736 39.471 77.722 38.568 77.707 37.637 C77.456 30.765 76.173 27.173 71.25 22.25 C65.037 18.798 58.796 18.324 52 20 C40.359 23.704 32.5 34.138 26 44 C12.479 36.137 5.166 25.586 1.188 10.625 C0.295 6.967 -0.048 3.755 0 0 Z " fill="#FFFFFF" transform="translate(50,176)"/>
<path d="M0 0 C0.904 0.038 1.808 0.076 2.739 0.114 C4.27 0.175 4.27 0.175 5.833 0.236 C6.943 0.285 8.053 0.334 9.197 0.384 C10.893 0.453 10.893 0.453 12.624 0.523 C16.251 0.671 19.879 0.826 23.506 0.982 C25.959 1.083 28.411 1.184 30.864 1.285 C36.89 1.532 42.917 1.786 48.944 2.044 C52.322 8.339 52.322 8.339 52.342 12.068 C52.348 13.135 52.348 13.135 52.354 14.224 C52.342 14.948 52.331 15.673 52.319 16.419 C52.33 17.136 52.342 17.853 52.354 18.591 C52.324 23.998 51.063 28.077 48.944 33.044 C44.11 33.069 39.276 33.087 34.442 33.099 C32.805 33.104 31.168 33.111 29.531 33.12 C20.998 33.164 12.469 33.132 3.944 32.728 C2.665 32.67 1.386 32.613 0.069 32.554 C-3.145 32.03 -4.173 31.628 -6.056 29.044 C-4.922 29.23 -3.788 29.416 -2.619 29.607 C-1.443 29.751 -0.268 29.896 0.944 30.044 C1.274 29.714 1.604 29.384 1.944 29.044 C0.995 28.921 0.046 28.797 -0.931 28.669 C-4.056 28.044 -4.056 28.044 -6.056 26.044 C-5.779 23.829 -5.779 23.829 -5.119 21.107 C-3.893 15.202 -4.207 9.98 -5.056 4.044 C-3.406 3.384 -1.756 2.724 -0.056 2.044 C-1.046 1.714 -2.036 1.384 -3.056 1.044 C-2.056 0.044 -2.056 0.044 0 0 Z " fill="#FAFAFA" transform="translate(200.05641174316406,126.95567321777344)"/>
<path d="M0 0 C14.19 0.33 28.38 0.66 43 1 C42.67 6.94 42.34 12.88 42 19 C41.917 21.248 41.835 23.496 41.75 25.812 C41.401 29.625 41.068 30.898 38.875 34.188 C35.346 36.412 33.184 37.149 29 37 C26.375 34.75 26.375 34.75 24 32 C16.511 26.757 8.65 27.558 0 29 C0 19.43 0 9.86 0 0 Z " fill="#FFFFFF" transform="translate(95,146)"/>
<path d="M0 0 C0.66 0 1.32 0 2 0 C2.361 1.311 2.714 2.624 3.062 3.938 C3.26 4.668 3.457 5.399 3.66 6.152 C3.772 6.762 3.884 7.372 4 8 C3.67 8.33 3.34 8.66 3 9 C10.867 11.28 17.967 12.417 26.145 12.258 C27.201 12.251 28.258 12.244 29.346 12.237 C31.637 12.221 33.927 12.198 36.218 12.169 C42.484 12.092 48.75 12.067 55.016 12.039 C55.68 12.036 56.344 12.032 57.028 12.028 C74.237 11.939 91.442 12.196 108.65 12.463 C111.068 12.5 113.487 12.537 115.906 12.573 C124.937 12.71 133.969 12.852 143 13 C143 15.64 143 18.28 143 21 C141.982 21.006 141.982 21.006 140.942 21.013 C124.408 21.116 107.874 21.225 91.34 21.339 C83.344 21.395 75.348 21.448 67.352 21.497 C60.381 21.54 53.411 21.587 46.44 21.637 C42.75 21.663 39.061 21.688 35.371 21.709 C31.249 21.732 27.126 21.763 23.004 21.795 C21.176 21.803 21.176 21.803 19.311 21.812 C13.775 21.86 8.452 22.012 3 23 C3.206 23.536 3.413 24.072 3.625 24.625 C4.131 27.833 3.154 30.013 2 33 C0 31 0 31 -0.227 27.927 C-0.217 26.639 -0.206 25.351 -0.195 24.023 C-0.192 23.338 -0.19 22.653 -0.187 21.947 C-0.176 19.756 -0.15 17.566 -0.125 15.375 C-0.115 13.891 -0.106 12.406 -0.098 10.922 C-0.076 7.281 -0.041 3.641 0 0 Z " fill="#FFFFFF" transform="translate(41,503)"/>
<path d="M0 0 C6.93 0 13.86 0 21 0 C20.67 19.8 20.34 39.6 20 60 C17.69 60 15.38 60 13 60 C13 62.97 13 65.94 13 69 C10.15 66.15 9.928 62.846 9.16 59.02 C8.993 58.214 8.825 57.409 8.652 56.58 C8.115 53.992 7.589 51.402 7.062 48.812 C6.712 47.118 6.361 45.423 6.01 43.729 C5.32 40.4 4.639 37.069 3.965 33.737 C3.353 30.719 2.728 27.706 2.084 24.695 C0.277 16.147 -0.27 8.741 0 0 Z " fill="#FFFFFF" transform="translate(16,478)"/>
<path d="M0 0 C4.29 0 8.58 0 13 0 C12.934 0.989 12.867 1.978 12.799 2.997 C11.995 15.712 11.745 28.42 11.554 41.158 C11.463 47.237 11.359 53.316 11.254 59.395 C11.233 60.578 11.213 61.762 11.192 62.981 C10.953 76.326 10.538 89.663 10 103 C7.36 103 4.72 103 2 103 C1.99 101.769 1.979 100.537 1.969 99.268 C1.871 87.673 1.768 76.078 1.661 64.483 C1.605 58.522 1.552 52.561 1.503 46.599 C1.455 40.848 1.403 35.097 1.347 29.346 C1.327 27.149 1.308 24.953 1.291 22.757 C1.267 19.685 1.237 16.614 1.205 13.542 C1.2 12.631 1.194 11.719 1.188 10.78 C1.178 9.942 1.168 9.103 1.158 8.239 C1.152 7.513 1.145 6.787 1.139 6.038 C1.036 3.645 1.036 3.645 0 0 Z " fill="#FFFFFF" transform="translate(82,80)"/>
<path d="M0 0 C7.92 0 15.84 0 24 0 C23.01 1.65 22.02 3.3 21 5 C20.333 7.646 19.781 10.2 19.316 12.879 C19.176 13.64 19.035 14.401 18.891 15.185 C18.439 17.643 18.001 20.103 17.562 22.562 C17.256 24.243 16.948 25.924 16.638 27.604 C16.18 30.098 15.722 32.592 15.268 35.087 C14.099 41.509 12.861 47.915 11.562 54.312 C11.399 55.122 11.235 55.932 11.067 56.766 C10.713 58.511 10.357 60.256 10 62 C9.67 62 9.34 62 9 62 C9 59.03 9 56.06 9 53 C6.69 53 4.38 53 2 53 C-0.3 17.682 -0.3 17.682 0 0 Z " fill="#FFFFFF" transform="translate(199,485)"/>
<path d="M0 0 C2.917 2.633 4.827 4.771 6.562 8.312 C6.296 13.901 4.628 17.46 1.625 22.125 C1.265 22.697 0.904 23.268 0.533 23.857 C-0.98 26.23 -2.442 28.317 -4.438 30.312 C-10.624 29.766 -16.063 26.189 -21.438 23.312 C-22.123 22.946 -22.809 22.58 -23.516 22.203 C-25.967 20.751 -27.317 19.547 -28.625 17 C-28.336 12.858 -25.939 10.494 -23.438 7.312 C-22.432 5.649 -21.431 3.983 -20.438 2.312 C-15.691 -4.807 -7.05 -3.461 0 0 Z " fill="#FFFFFF" transform="translate(119.4375,198.6875)"/>
<path d="M0 0 C1.638 -0.001 1.638 -0.001 3.309 -0.002 C12.53 0.123 21.45 1.194 29.812 5.375 C29.483 7.025 29.153 8.675 28.812 10.375 C18.451 14.002 9.668 14.883 -1.188 14.375 C-1.188 15.035 -1.188 15.695 -1.188 16.375 C3.102 16.375 7.392 16.375 11.812 16.375 C11.812 16.705 11.812 17.035 11.812 17.375 C-21.586 17.902 -21.586 17.902 -28.188 12.375 C-26.867 12.375 -25.547 12.375 -24.188 12.375 C-26.168 11.385 -28.148 10.395 -30.188 9.375 C-30.188 8.055 -30.188 6.735 -30.188 5.375 C-20.198 1.305 -10.769 -0.014 0 0 Z " fill="#FFFFFF" transform="translate(88.1875,59.625)"/>
<path d="M0 0 C3.96 0 7.92 0 12 0 C12.177 13.364 11.607 26.649 11 40 C2.42 40 -6.16 40 -15 40 C-11.394 29.47 -7.816 19.102 -3.262 8.945 C-2.002 6.004 -0.969 3.048 0 0 Z " fill="#FFFFFF" transform="translate(63,134)"/>
<path d="M0 0 C0.66 0 1.32 0 2 0 C4.631 6.483 5.393 12.023 5 19 C6.607 18.575 8.211 18.134 9.812 17.688 C10.706 17.444 11.599 17.2 12.52 16.949 C15.114 15.956 16.157 15.013 18 13 C19.719 11.902 19.719 11.902 21.5 10.938 C23.763 9.702 25.843 8.438 28 7 C28.99 7.33 29.98 7.66 31 8 C29.733 8.984 28.461 9.962 27.188 10.938 C26.48 11.483 25.772 12.028 25.043 12.59 C23 14 23 14 20 15 C19.567 15.474 19.134 15.949 18.688 16.438 C16.39 18.565 13.972 19.141 11 20 C10.918 21.114 10.835 22.227 10.75 23.375 C10 27 10 27 7.938 28.438 C7.298 28.623 6.659 28.809 6 29 C6 29.66 6 30.32 6 31 C18.515 32.015 18.515 32.015 31 31 C30.43 32.588 29.843 34.17 29.25 35.75 C28.925 36.632 28.6 37.513 28.266 38.422 C27 41 27 41 24.988 42.809 C22.127 45.962 21.729 49.208 20.938 53.312 C19.812 58.913 18.368 63.793 16 69 C15.166 71.544 15.166 71.544 16 74 C19.357 77.78 23.129 80.524 28 82 C28 82.99 28 83.98 28 85 C28.99 85.495 28.99 85.495 30 86 C30 86.66 30 87.32 30 88 C26.304 87.399 23.353 86.338 20 84.688 C14.797 82.252 9.552 80.503 4.043 78.895 C1.002 78.001 -1.999 77.018 -5 76 C-5 75.67 -5 75.34 -5 75 C0.667 74.702 5.088 75.689 10.438 77.5 C11.535 77.858 11.535 77.858 12.654 78.223 C14.439 78.806 16.22 79.402 18 80 C17.34 78.68 16.68 77.36 16 76 C15.34 76 14.68 76 14 76 C13.67 74.02 13.34 72.04 13 70 C11.979 70.495 11.979 70.495 10.938 71 C7.492 72.173 4.616 72.142 1 72 C1.495 71.01 1.495 71.01 2 70 C4.723 69.586 4.723 69.586 8.062 69.375 C9.72 69.263 9.72 69.263 11.41 69.148 C12.265 69.099 13.119 69.05 14 69 C14.112 68.367 14.224 67.734 14.34 67.082 C15.236 62.899 16.403 58.804 17.562 54.688 C17.796 53.852 18.03 53.016 18.271 52.154 C18.846 50.102 19.423 48.051 20 46 C19.385 46.445 18.77 46.889 18.137 47.348 C17.328 47.914 16.52 48.479 15.688 49.062 C14.887 49.631 14.086 50.199 13.262 50.785 C12.515 51.186 11.769 51.587 11 52 C9.515 51.505 9.515 51.505 8 51 C8.888 50.329 8.888 50.329 9.793 49.645 C18.676 43.242 18.676 43.242 24 34 C23.297 34.184 22.595 34.369 21.871 34.559 C18.636 35.056 16.266 34.693 13.062 34.062 C8.959 33.263 5.184 32.894 1 33 C1.33 32.031 1.66 31.061 2 30.062 C3.052 27.379 3.052 27.379 3 26 C2.671 26.508 2.343 27.016 2.004 27.539 C-1.879 33.158 -6.133 36.558 -12 40 C-12.66 39.67 -13.32 39.34 -14 39 C-12.714 37.827 -11.421 36.662 -10.125 35.5 C-9.046 34.525 -9.046 34.525 -7.945 33.531 C-6 32 -6 32 -4 32 C-3.711 31.381 -3.423 30.763 -3.125 30.125 C-2 28 -2 28 0 26 C3.829 17.704 2.234 8.516 0 0 Z " fill="#060606" transform="translate(301,85)"/>
<path d="M0 0 C3.364 1.356 4.747 2.37 6.789 5.434 C6.356 6.671 6.356 6.671 5.914 7.934 C3.87 14.293 4.327 20.964 5.789 27.434 C-2.398 27.004 -8.302 26.039 -15.211 21.434 C-18.124 15.504 -18.823 10.882 -17.211 4.434 C-14.296 -2.502 -6.58 -1.686 0 0 Z " fill="#FFFFFF" transform="translate(270.2109375,169.56640625)"/>
<path d="M0 0 C6.27 0 12.54 0 19 0 C20.419 6.094 21.527 10.89 20 17 C19.34 17.66 18.68 18.32 18 19 C18 18.34 18 17.68 18 17 C17.34 17 16.68 17 16 17 C16 17.99 16 18.98 16 20 C17.32 20.33 18.64 20.66 20 21 C19.34 22.32 18.68 23.64 18 25 C11.73 25 5.46 25 -1 25 C-0.67 16.75 -0.34 8.5 0 0 Z " fill="#EDEDED" transform="translate(174,130)"/>
<path d="M0 0 C5.28 0.33 10.56 0.66 16 1 C16.33 2.32 16.66 3.64 17 5 C17.66 5 18.32 5 19 5 C20.581 7.277 21.96 9.644 23.367 12.031 C23.906 12.681 24.445 13.331 25 14 C26.32 14 27.64 14 29 14 C28.34 16.31 27.68 18.62 27 21 C17.43 21 7.86 21 -2 21 C-1.856 18.463 -1.711 15.926 -1.562 13.312 C-1.519 12.523 -1.476 11.733 -1.432 10.919 C-1.394 10.282 -1.356 9.645 -1.316 8.988 C-1.28 8.344 -1.243 7.7 -1.205 7.036 C-0.967 4.669 -0.467 2.333 0 0 Z " fill="#FFFFFF" transform="translate(140,156)"/>
<path d="M0 0 C25.74 0 51.48 0 78 0 C78 1.98 78 3.96 78 6 C52 6 26 6 0 6 C0 4.02 0 2.04 0 0 Z " fill="#FFFFFF" transform="translate(198,452)"/>
<path d="M0 0 C4.112 0.12 8.224 0.242 12.335 0.372 C13.735 0.416 15.135 0.457 16.534 0.497 C18.543 0.555 20.551 0.619 22.559 0.684 C23.768 0.72 24.978 0.757 26.224 0.795 C29 1 29 1 30 2 C30.099 3.684 30.131 5.372 30.133 7.059 C30.135 8.597 30.135 8.597 30.137 10.166 C30.133 11.246 30.129 12.325 30.125 13.438 C30.131 15.051 30.131 15.051 30.137 16.697 C30.135 17.724 30.134 18.751 30.133 19.809 C30.132 20.755 30.131 21.702 30.129 22.677 C30 25 30 25 29 27 C27.02 27 25.04 27 23 27 C20.847 22.948 21.24 20.432 21.961 15.996 C22.029 12.515 20.179 10.542 18 8 C14.284 5.523 12.4 5.697 8 6 C5.174 6.463 5.174 6.463 3 8 C1.628 11.03 1.628 11.03 1 14 C0.67 14 0.34 14 0 14 C0 9.38 0 4.76 0 0 Z " fill="#FFFFFF" transform="translate(142,128)"/>
<path d="M0 0 C14.368 -0.132 28.653 0.219 43 1 C43 3.64 43 6.28 43 9 C28.81 8.67 14.62 8.34 0 8 C0 5.36 0 2.72 0 0 Z " fill="#FFFFFF" transform="translate(95,136)"/>
<path d="M0 0 C1.031 0.144 2.062 0.289 3.125 0.438 C9.392 1.229 15.699 1.584 22 2 C19.905 9.494 15.339 13.863 8.875 18 C5.673 19.114 3.366 19.374 0 19 C-3 17 -3 17 -3.617 14.504 C-3.702 13.533 -3.787 12.563 -3.875 11.562 C-3.976 10.594 -4.076 9.626 -4.18 8.629 C-4 6 -4 6 -2.57 4.34 C-2.052 3.898 -1.534 3.456 -1 3 C-0.67 2.01 -0.34 1.02 0 0 Z " fill="#FFFFFF" transform="translate(303,117)"/>
<path d="M0 0 C1.572 3.143 1.232 6.558 1 10 C0.67 10.99 0.34 11.98 0 13 C0.871 14.44 1.759 15.873 2.742 17.238 C4.167 19.234 5.459 21.29 6.75 23.375 C7.178 24.063 7.606 24.752 8.047 25.461 C8.361 25.969 8.676 26.477 9 27 C7.02 27.99 7.02 27.99 5 29 C3.494 27.046 1.995 25.087 0.5 23.125 C0.071 22.569 -0.359 22.014 -0.801 21.441 C-4 17.227 -4 17.227 -4 15 C-4.887 15.062 -5.774 15.124 -6.688 15.188 C-10.378 14.979 -12.064 14.181 -15 12 C-16.177 9.647 -16.166 8.119 -16.188 5.5 C-16.202 4.706 -16.216 3.912 -16.23 3.094 C-16 1 -16 1 -14 -1 C-8.766 -2.495 -5.056 -1.628 0 0 Z " fill="#000000" transform="translate(161,139)"/>
<path d="M0 0 C4.286 2.437 6.954 5.346 9.188 9.812 C9.271 11.261 9.295 12.713 9.285 14.164 C9.282 15.015 9.279 15.866 9.275 16.742 C9.263 18.076 9.263 18.076 9.25 19.438 C9.245 20.335 9.241 21.232 9.236 22.156 C9.225 24.375 9.208 26.594 9.188 28.812 C8.858 28.812 8.528 28.812 8.188 28.812 C7.858 25.512 7.528 22.213 7.188 18.812 C6.424 20.194 5.661 21.576 4.875 23 C-0.511 32.662 -0.511 32.662 -2.812 33.812 C-8.51 34.491 -12.024 32.547 -16.812 29.812 C-17.68 29.342 -18.548 28.871 -19.441 28.387 C-24.208 25.701 -27.373 23.894 -29.812 18.812 C-29.312 16.562 -29.312 16.562 -27.812 13.812 C-27.397 13.048 -26.982 12.284 -26.555 11.496 C-25.328 9.256 -24.079 7.031 -22.812 4.812 C-27.525 8.747 -31.784 12.695 -35.586 17.527 C-35.991 17.951 -36.395 18.376 -36.812 18.812 C-37.472 18.812 -38.132 18.812 -38.812 18.812 C-35.052 10.127 -27.465 3.366 -18.941 -0.383 C-12.326 -2.883 -6.704 -2.088 0 0 Z M-19.812 4 C-22.069 7.174 -23.921 10.408 -25.812 13.812 C-26.472 14.803 -27.132 15.792 -27.812 16.812 C-28.059 19.308 -28.059 19.308 -26.812 21.812 C-24.395 23.614 -22.176 25.055 -19.562 26.5 C-18.893 26.89 -18.224 27.28 -17.535 27.682 C-11.483 31.459 -11.483 31.459 -4.688 32.695 C-0.769 30.85 1.009 26.391 3.188 22.812 C3.835 21.869 3.835 21.869 4.496 20.906 C6.493 17.866 7.186 15.907 7.25 12.25 C6.007 8.227 4.498 5.395 1.188 2.812 C-6.031 -0.724 -13.92 -2.445 -19.812 4 Z " fill="#000000" transform="translate(118.8125,196.1875)"/>
<path d="M0 0 C-0.638 4.076 -1.44 8.059 -2.438 12.062 C-2.684 13.064 -2.93 14.066 -3.184 15.098 C-4.692 20.46 -4.692 20.46 -6 23 C-9.451 24.874 -13.161 25.105 -17 24.625 C-17.66 24.419 -18.32 24.213 -19 24 C-18.673 23.479 -18.345 22.958 -18.008 22.422 C-16.689 19.253 -16.807 16.67 -16.875 13.25 C-16.893 12.08 -16.911 10.909 -16.93 9.703 C-16.953 8.811 -16.976 7.919 -17 7 C-16.004 6.745 -16.004 6.745 -14.988 6.484 C-10.229 5.178 -4.127 0 0 0 Z " fill="#FFFFFF" transform="translate(321,131)"/>
<path d="M0 0 C0.536 0.165 1.072 0.33 1.625 0.5 C4.459 1.097 7.112 1.066 10 1 C10 1.66 10 2.32 10 3 C10.66 3 11.32 3 12 3 C12 2.34 12 1.68 12 1 C17.109 0.975 22.217 0.957 27.326 0.945 C29.065 0.94 30.804 0.933 32.544 0.925 C35.038 0.912 37.533 0.907 40.027 0.902 C40.81 0.897 41.592 0.892 42.398 0.887 C44.266 0.887 46.133 0.938 48 1 C48.495 1.495 48.495 1.495 49 2 C49 1.67 49 1.34 49 1 C58.667 1 68.333 1 78 1 C78 1.66 78 2.32 78 3 C78.99 3.495 78.99 3.495 80 4 C53.6 4 27.2 4 0 4 C0 2.68 0 1.36 0 0 Z " fill="#FFFFFF" transform="translate(200,478)"/>
<path d="M0 0 C5.75 0.875 5.75 0.875 8 2 C8 2.66 8 3.32 8 4 C8.99 4.33 9.98 4.66 11 5 C12.86 7.845 13.289 10.268 13.449 13.625 C13.492 14.496 13.536 15.368 13.58 16.266 C13.616 17.168 13.651 18.07 13.688 19 C13.735 19.902 13.782 20.805 13.83 21.734 C14.01 25.726 14.137 29.136 13 33 C11.68 33 10.36 33 9 33 C9 32.34 9 31.68 9 31 C7.68 30.67 6.36 30.34 5 30 C5.66 29.34 6.32 28.68 7 28 C6.645 26.125 6.645 26.125 6 24 C5.581 17.635 5.86 12.019 8 6 C5.378 3.846 3.356 2.599 0 2 C0 1.34 0 0.68 0 0 Z " fill="#000000" transform="translate(268,168)"/>
<path d="M0 0 C3.25 2.25 3.25 2.25 5.25 6.25 C-3.66 6.25 -12.57 6.25 -21.75 6.25 C-21.75 3.94 -21.75 1.63 -21.75 -0.75 C-15.083 -2.972 -6.422 -3.016 0 0 Z " fill="#FFFFFF" transform="translate(116.75,176.75)"/>
<path d="M0 0 C4.393 0.264 8.785 0.53 13.177 0.8 C14.668 0.891 16.159 0.981 17.649 1.07 C25.456 1.539 33.236 2.028 41 3 C41 5.64 41 8.28 41 11 C39.478 10.939 37.957 10.85 36.438 10.75 C35.591 10.704 34.744 10.657 33.871 10.609 C31 10 31 10 27.969 8.062 C22.809 4.928 16.952 4.819 11.062 4.25 C9.902 4.125 8.741 4 7.545 3.871 C4.698 3.566 1.85 3.277 -1 3 C-0.67 2.01 -0.34 1.02 0 0 Z " fill="#FFFFFF" transform="translate(239,488)"/>
<path d="M0 0 C2.188 4.377 2.233 7.525 2.125 12.25 C2.084 14.808 2.043 17.365 2 20 C-4.93 20 -11.86 20 -19 20 C-19 17.69 -19 15.38 -19 13 C-14.71 13 -10.42 13 -6 13 C-6 12.34 -6 11.68 -6 11 C-4.02 11 -2.04 11 0 11 C0 7.37 0 3.74 0 0 Z " fill="#FFFFFF" transform="translate(35,439)"/>
<path d="M0 0 C0.33 0 0.66 0 1 0 C1.33 6.93 1.66 13.86 2 21 C5.315 22.105 8.204 22.321 11.688 22.562 C12.867 22.646 14.046 22.73 15.262 22.816 C16.617 22.907 16.617 22.907 18 23 C18 23.99 18 24.98 18 26 C10.41 26 2.82 26 -5 26 C-5.301 16.567 -5.381 8.072 0 0 Z " fill="#FFFFFF" transform="translate(179,432)"/>
<path d="M0 0 C0.66 0 1.32 0 2 0 C4.631 6.483 5.393 12.023 5 19 C6.607 18.575 8.211 18.134 9.812 17.688 C10.706 17.444 11.599 17.2 12.52 16.949 C15.114 15.956 16.157 15.013 18 13 C19.719 11.902 19.719 11.902 21.5 10.938 C23.763 9.702 25.843 8.438 28 7 C28.99 7.33 29.98 7.66 31 8 C29.733 8.984 28.461 9.962 27.188 10.938 C26.48 11.483 25.772 12.028 25.043 12.59 C23 14 23 14 20 15 C19.567 15.474 19.134 15.949 18.688 16.438 C16.39 18.565 13.972 19.141 11 20 C11 21.65 11 23.3 11 25 C9.35 25.66 7.7 26.32 6 27 C5.34 25.68 4.68 24.36 4 23 C3.443 24.052 2.886 25.104 2.312 26.188 C-1.224 32.332 -6.253 36.056 -12 40 C-12.66 39.67 -13.32 39.34 -14 39 C-12.714 37.827 -11.421 36.662 -10.125 35.5 C-9.046 34.525 -9.046 34.525 -7.945 33.531 C-6 32 -6 32 -4 32 C-3.711 31.381 -3.423 30.763 -3.125 30.125 C-2 28 -2 28 0 26 C3.829 17.704 2.234 8.516 0 0 Z " fill="#000000" transform="translate(301,85)"/>
<path d="M0 0 C0 0.66 0 1.32 0 2 C-3.96 2.99 -7.92 3.98 -12 5 C-12 5.66 -12 6.32 -12 7 C-17.357 12 -17.357 12 -21 12 C-21 12.66 -21 13.32 -21 14 C-22.871 15.48 -22.871 15.48 -25.438 17.188 C-29.857 20.18 -34.046 23.35 -38.188 26.715 C-40 28 -40 28 -42 28 C-42 28.66 -42 29.32 -42 30 C-43.65 31.027 -45.32 32.022 -47 33 C-48.615 34.316 -50.2 35.671 -51.75 37.062 C-52.529 37.755 -53.307 38.447 -54.109 39.16 C-56.07 40.867 -56.07 40.867 -57 43 C-57.66 43 -58.32 43 -59 43 C-59.433 44.361 -59.433 44.361 -59.875 45.75 C-60.765 48.322 -61.715 50.613 -63 53 C-63.66 53 -64.32 53 -65 53 C-64.393 48.872 -62.962 45.668 -61 42 C-60.34 42 -59.68 42 -59 42 C-58.752 41.381 -58.505 40.763 -58.25 40.125 C-56.772 37.613 -55.56 37.239 -53 36 C-52.67 35.01 -52.34 34.02 -52 33 C-49.777 31.168 -49.777 31.168 -46.938 29.188 C-42.935 26.375 -38.987 23.512 -35.081 20.568 C-33.036 19.027 -30.984 17.495 -28.93 15.965 C-27.926 15.216 -27.926 15.216 -26.902 14.451 C-25.544 13.437 -24.185 12.424 -22.824 11.412 C-19.711 9.085 -16.654 6.736 -13.699 4.211 C-9.426 0.711 -5.468 -0.322 0 0 Z " fill="#000000" transform="translate(332,47)"/>
<path d="M0 0 C1.65 0.33 3.3 0.66 5 1 C5.33 2.32 5.66 3.64 6 5 C6.66 3.35 7.32 1.7 8 0 C9.65 0 11.3 0 13 0 C13.841 4.018 14.054 7.018 13 11 C11.188 11.688 11.188 11.688 9 12 C7.25 10.562 7.25 10.562 6 9 C5.587 9.516 5.175 10.031 4.75 10.562 C3 12 3 12 0.875 11.812 C-1 11 -1 11 -2 9 C-2.259 4.949 -2.304 3.457 0 0 Z " fill="#343434" transform="translate(303,601)"/>
<path d="M0 0 C0.66 0.33 1.32 0.66 2 1 C1.01 2.485 1.01 2.485 0 4 C0.232 9.04 0.232 9.04 3 13 C6.458 13.583 6.458 13.583 10 13 C12.17 10.911 12.17 10.911 13 8 C12.761 5.389 12.761 5.389 12 3 C12 2.01 12 1.02 12 0 C13.5 1 13.5 1 15 3 C15.489 6.911 15.246 10.263 14 14 C14.871 15.44 15.759 16.873 16.742 18.238 C18.167 20.234 19.459 22.29 20.75 24.375 C21.178 25.063 21.606 25.752 22.047 26.461 C22.361 26.969 22.676 27.477 23 28 C21.02 28.99 21.02 28.99 19 30 C17.494 28.046 15.995 26.087 14.5 24.125 C14.071 23.569 13.641 23.014 13.199 22.441 C10 18.227 10 18.227 10 16 C9.113 16.062 8.226 16.124 7.312 16.188 C3.622 15.979 1.936 15.181 -1 13 C-2.177 10.647 -2.166 9.119 -2.188 6.5 C-2.202 5.706 -2.216 4.912 -2.23 4.094 C-2 2 -2 2 0 0 Z " fill="#FFFFFF" transform="translate(147,138)"/>
<path d="M0 0 C2.38 4.042 2.04 6.352 1.031 10.812 C-2.061 20.372 -6.999 29.324 -12 38 C-12.933 39.804 -13.852 41.616 -14.75 43.438 C-15.178 44.302 -15.606 45.167 -16.047 46.059 C-16.361 46.699 -16.676 47.34 -17 48 C-17.99 47.67 -18.98 47.34 -20 47 C-17.525 42.05 -17.525 42.05 -15 37 C-15.88 36.914 -16.761 36.827 -17.668 36.738 C-28.335 35.448 -28.335 35.448 -31.312 32.375 C-31.869 31.591 -32.426 30.808 -33 30 C-28 32 -28 32 -25.812 33.062 C-21.63 34.457 -17.38 34.677 -13 35 C-12.741 34.314 -12.482 33.628 -12.215 32.922 C-10.833 29.597 -9.215 26.449 -7.562 23.25 C-3.695 15.622 -0.906 8.521 0 0 Z " fill="#000000" transform="translate(162,218)"/>
<path d="M0 0 C0 3 0 3 -2.117 5.48 C-3.027 6.374 -3.937 7.267 -4.875 8.188 C-5.78 9.089 -6.685 9.99 -7.617 10.918 C-10 13 -10 13 -12 13 C-12.33 13.99 -12.66 14.98 -13 16 C-13.99 16.33 -14.98 16.66 -16 17 C-19.166 21.05 -20.677 24.661 -21.875 29.625 C-23.915 37.229 -26.616 46.827 -33 52 C-33.66 52 -34.32 52 -35 52 C-35 51.34 -35 50.68 -35 50 C-34.34 50 -33.68 50 -33 50 C-32.752 49.34 -32.505 48.68 -32.25 48 C-31 45 -31 45 -29.188 41.75 C-26.629 36.795 -25.307 31.457 -23.927 26.079 C-22.706 21.569 -21.348 18.426 -18 15 C-15.25 13.688 -15.25 13.688 -13 13 C-13 12.34 -13 11.68 -13 11 C-11.26 9.44 -9.457 7.951 -7.625 6.5 C-3.685 3.392 -3.685 3.392 0 0 Z " fill="#000000" transform="translate(57,212)"/>
<path d="M0 0 C2.64 0 5.28 0 8 0 C8 0.66 8 1.32 8 2 C11.96 1.34 15.92 0.68 20 0 C20.33 1.98 20.66 3.96 21 6 C21.66 6 22.32 6 23 6 C24.625 8.5 24.625 8.5 26 11 C15.745 8.263 15.745 8.263 11.812 6.875 C8.207 5.753 4.754 5.388 1 5 C0.67 3.35 0.34 1.7 0 0 Z " fill="#FFFFFF" transform="translate(294,155)"/>
<path d="M0 0 C0.33 0.66 0.66 1.32 1 2 C2.32 1.34 3.64 0.68 5 0 C4.34 1.32 3.68 2.64 3 4 C2.34 4 1.68 4 1 4 C1 4.66 1 5.32 1 6 C13.515 7.015 13.515 7.015 26 6 C25.01 8.31 24.02 10.62 23 13 C22.67 12.34 22.34 11.68 22 11 C22.33 10.34 22.66 9.68 23 9 C22.34 9 21.68 9 21 9 C20.67 10.65 20.34 12.3 20 14 C19.34 14 18.68 14 18 14 C18.33 12.35 18.66 10.7 19 9 C18.297 9.184 17.595 9.369 16.871 9.559 C13.636 10.056 11.266 9.693 8.062 9.062 C3.959 8.263 0.184 7.894 -4 8 C-2.25 2.25 -2.25 2.25 0 0 Z M9 23 C8.67 23.99 8.34 24.98 8 26 C6.35 26.33 4.7 26.66 3 27 C6.75 23 6.75 23 9 23 Z " fill="#000000" transform="translate(306,110)"/>
<path d="M0 0 C1.65 0 3.3 0 5 0 C5 7.92 5 15.84 5 24 C3.35 23.67 1.7 23.34 0 23 C0 15.41 0 7.82 0 0 Z " fill="#FFFFFF" transform="translate(77,146)"/>
<path d="M0 0 C0.931 2.519 1.14 3.642 0.145 6.184 C-3.628 12.567 -7.675 17.808 -13 23 C-13.763 23.763 -14.526 24.526 -15.312 25.312 C-15.869 25.869 -16.426 26.426 -17 27 C-17.99 25.68 -18.98 24.36 -20 23 C-18.548 19.371 -16.76 17.846 -13.5 15.75 C-12.706 15.229 -11.912 14.708 -11.094 14.172 C-9 13 -9 13 -7 13 C-6.752 12.484 -6.505 11.969 -6.25 11.438 C-5.195 9.38 -4.088 7.38 -2.938 5.375 C-1.921 3.604 -0.913 1.826 0 0 Z " fill="#FFFFFF" transform="translate(305,106)"/>
<path d="M0 0 C0 7.772 -9.313 16.04 -14.091 22.001 C-16.275 24.738 -18.331 27.463 -20.207 30.422 C-20.799 31.273 -21.39 32.123 -22 33 C-22.66 33 -23.32 33 -24 33 C-22.875 30.028 -21.777 27.666 -20 25 C-19.34 25 -18.68 25 -18 25 C-17.762 24.299 -17.523 23.598 -17.277 22.875 C-15.776 19.496 -13.829 16.918 -11.562 14 C-9.342 11.132 -7.211 8.354 -5.352 5.238 C-3.874 2.791 -2.373 1.555 0 0 Z " fill="#000000" transform="translate(66,233)"/>
<path d="M0 0 C-0.33 0.99 -0.66 1.98 -1 3 C-1.66 3 -2.32 3 -3 3 C-3 3.66 -3 4.32 -3 5 C-4.609 6.621 -4.609 6.621 -6.75 8.438 C-7.446 9.034 -8.142 9.631 -8.859 10.246 C-14.661 15 -14.661 15 -17 15 C-17.66 16.32 -18.32 17.64 -19 19 C-19.66 19 -20.32 19 -21 19 C-21.66 20.32 -22.32 21.64 -23 23 C-23.66 23 -24.32 23 -25 23 C-25.33 23.99 -25.66 24.98 -26 26 C-26.66 26 -27.32 26 -28 26 C-24.827 18.877 -18.806 12.727 -12 9 C-11.34 9 -10.68 9 -10 9 C-9.691 8.165 -9.691 8.165 -9.375 7.312 C-7.412 4.011 -4.065 0 0 0 Z " fill="#000000" transform="translate(35,178)"/>
<path d="M0 0 C2.067 3.101 2.245 3.729 2.195 7.23 C2.189 8.033 2.182 8.835 2.176 9.662 C2.159 10.495 2.142 11.329 2.125 12.188 C2.116 13.032 2.107 13.877 2.098 14.748 C2.074 16.832 2.038 18.916 2 21 C1.01 20.67 0.02 20.34 -1 20 C-3.411 14.335 -3.299 8.991 -2 3 C-1.34 2.01 -0.68 1.02 0 0 Z " fill="#FFFFFF" transform="translate(278,176)"/>
<path d="M0 0 C0.66 0 1.32 0 2 0 C2.312 2.688 2.312 2.688 2 6 C1.237 6.701 0.474 7.403 -0.312 8.125 C-4.317 12.408 -4.893 17.358 -6 23 C-6.66 23 -7.32 23 -8 23 C-7 15.571 -7 15.571 -6 12 C-7.32 12.99 -8.64 13.98 -10 15 C-10.66 14.67 -11.32 14.34 -12 14 C-10.548 12.494 -9.088 10.995 -7.625 9.5 C-6.813 8.665 -6.001 7.829 -5.164 6.969 C-3 5 -3 5 -1 5 C-0.67 3.35 -0.34 1.7 0 0 Z " fill="#353535" transform="translate(327,119)"/>
<path d="M0 0 C5 5 5 5 5.27 8.77 C5.144 10.12 4.991 11.468 4.812 12.812 C4.742 13.505 4.672 14.198 4.6 14.912 C4.424 16.611 4.215 18.306 4 20 C2.68 20 1.36 20 0 20 C0 13.4 0 6.8 0 0 Z " fill="#FFFFFF" transform="translate(29,428)"/>
<path d="M0 0 C2.625 0.375 2.625 0.375 5 1 C5 3.97 5 6.94 5 10 C3.35 10.66 1.7 11.32 0 12 C-2 10 -2 10 -2.266 8.125 C-2.26 7.424 -2.255 6.722 -2.25 6 C-2.255 5.299 -2.26 4.597 -2.266 3.875 C-2 2 -2 2 0 0 Z " fill="#353535" transform="translate(328,601)"/>
<path d="M0 0 C4.706 0.706 4.706 0.706 6 2 C6.473 8.389 6.473 8.389 4.5 10.938 C4.005 11.288 3.51 11.639 3 12 C1.68 11.34 0.36 10.68 -1 10 C-1.027 8.521 -1.046 7.042 -1.062 5.562 C-1.074 4.739 -1.086 3.915 -1.098 3.066 C-1 1 -1 1 0 0 Z " fill="#393939" transform="translate(319,601)"/>
<path d="M0 0 C5.194 0.67 9.837 2.213 14.75 3.938 C20.576 5.947 26.225 7.699 32.348 8.578 C32.893 8.717 33.438 8.857 34 9 C34.495 9.99 34.495 9.99 35 11 C26.542 10.672 19.262 8.756 11.312 5.938 C10.217 5.56 9.122 5.183 7.994 4.795 C5.325 3.874 2.661 2.943 0 2 C0 1.34 0 0.68 0 0 Z " fill="#000000" transform="translate(296,209)"/>
<path d="M0 0 C1.98 0 3.96 0 6 0 C6 3.63 6 7.26 6 11 C4.35 11.66 2.7 12.32 1 13 C0.67 8.71 0.34 4.42 0 0 Z " fill="#FFFFFF" transform="translate(201,539)"/>
<path d="M0 0 C0.33 0.99 0.66 1.98 1 3 C-0.63 5.517 -2.288 7.83 -4.125 10.188 C-5.149 11.535 -6.172 12.884 -7.191 14.234 C-7.681 14.882 -8.171 15.53 -8.676 16.197 C-10.272 18.37 -11.69 20.618 -13.062 22.938 C-13.702 23.948 -14.341 24.959 -15 26 C-15.66 26 -16.32 26 -17 26 C-16.436 21.702 -13.812 18.635 -11.312 15.25 C-10.863 14.631 -10.413 14.012 -9.95 13.375 C-6.678 8.883 -3.362 4.424 0 0 Z " fill="#000000" transform="translate(122,241)"/>
<path d="M0 0 C0.33 0 0.66 0 1 0 C1.143 8.571 1.143 8.571 0 12 C-2.64 12 -5.28 12 -8 12 C-7.422 8.646 -6.468 7.285 -4 5 C-3.299 4.113 -2.598 3.226 -1.875 2.312 C-1.256 1.549 -0.637 0.786 0 0 Z " fill="#FFFFFF" transform="translate(297,125)"/>
<path d="M0 0 C6.049 4.741 6.049 4.741 8 7 C8 7.66 8 8.32 8 9 C8.516 9.227 9.031 9.454 9.562 9.688 C12 11 12 11 15.125 13.438 C19.349 16.548 23.962 17.753 29 19 C29 19.33 29 19.66 29 20 C22.419 20.7 18.357 18.768 13 15 C3.374 7.149 3.374 7.149 0 2 C0 1.34 0 0.68 0 0 Z " fill="#000000" transform="translate(28,189)"/>
<path d="M0 0 C3.875 1.875 3.875 1.875 5 3 C5.072 4.519 5.084 6.042 5.062 7.562 C5.053 8.389 5.044 9.215 5.035 10.066 C5.018 11.024 5.018 11.024 5 12 C2.532 10.848 0.952 9.952 -1 8 C-0.967 5.271 -0.436 2.703 0 0 Z " fill="#FFFFFF" transform="translate(77,170)"/>
<path d="M0 0 C1 3 1 3 -0.625 6.5 C-2.57 9.717 -4.556 11.374 -8 13 C-8.672 11.227 -8.672 11.227 -9 9 C-7.891 7.148 -7.891 7.148 -6.25 5.375 C-5.719 4.785 -5.188 4.194 -4.641 3.586 C-3 2 -3 2 0 0 Z " fill="#313131" transform="translate(267,100)"/>
<path d="M0 0 C1.65 0 3.3 0 5 0 C4.67 4.29 4.34 8.58 4 13 C2.68 12.34 1.36 11.68 0 11 C0 7.37 0 3.74 0 0 Z " fill="#FFFFFF" transform="translate(31,540)"/>
<path d="M0 0 C0.66 0 1.32 0 2 0 C2 2.64 2 5.28 2 8 C3.98 8 5.96 8 8 8 C8 8.33 8 8.66 8 9 C6.02 9 4.04 9 2 9 C1.67 12.3 1.34 15.6 1 19 C0.34 19 -0.32 19 -1 19 C-1 18.34 -1 17.68 -1 17 C-1.99 16.67 -2.98 16.34 -4 16 C-4 15.01 -4 14.02 -4 13 C-3.01 13 -2.02 13 -1 13 C-0.298 8.614 0.108 4.442 0 0 Z " fill="#000000" transform="translate(194,134)"/>
<path d="M0 0 C-0.607 4.128 -2.038 7.332 -4 11 C-6.242 9.225 -6.943 8.378 -7.375 5.5 C-7 3 -7 3 -5.75 1.188 C-4 0 -4 0 0 0 Z " fill="#FFFFFF" transform="translate(155,139)"/>
<path d="M0 0 C0.66 0 1.32 0 2 0 C1.67 3.3 1.34 6.6 1 10 C-0.32 10 -1.64 10 -3 10 C-3 9.34 -3 8.68 -3 8 C-4.32 7.67 -5.64 7.34 -7 7 C-6.34 5.68 -5.68 4.36 -5 3 C-3 3 -3 3 -1.375 4.5 C-0.921 4.995 -0.467 5.49 0 6 C0 4.02 0 2.04 0 0 Z " fill="#060606" transform="translate(280,191)"/>
<path d="M0 0 C6.816 0.435 12.758 2.795 17.684 7.664 C18.851 9.06 19.936 10.524 21 12 C20.67 12.66 20.34 13.32 20 14 C19.278 13.257 18.556 12.515 17.812 11.75 C12.272 6.333 7.227 3.638 0 1 C0 0.67 0 0.34 0 0 Z " fill="#000000" transform="translate(82,223)"/>
<path d="M0 0 C7.752 0.375 14.95 2.233 20.789 7.664 C21.388 8.325 21.388 8.325 22 9 C21.67 9.66 21.34 10.32 21 11 C20.49 10.613 19.979 10.227 19.453 9.828 C13.328 5.441 7.215 3.075 0 1 C0 0.67 0 0.34 0 0 Z " fill="#000000" transform="translate(12,218)"/>
<path d="M0 0 C0.99 0.99 1.98 1.98 3 3 C3 6.062 3 6.062 2 9 C0.35 9.66 -1.3 10.32 -3 11 C-2.01 7.37 -1.02 3.74 0 0 Z " fill="#FFFFFF" transform="translate(156,140)"/>
<path d="M0 0 C1.65 0 3.3 0 5 0 C5 2.31 5 4.62 5 7 C3.35 7 1.7 7 0 7 C0 4.69 0 2.38 0 0 Z " fill="#FFFFFF" transform="translate(77,136)"/>
<path d="M0 0 C0.66 0 1.32 0 2 0 C2 2.97 2 5.94 2 9 C3.98 9 5.96 9 8 9 C8 9.66 8 10.32 8 11 C5.36 11 2.72 11 0 11 C0 7.37 0 3.74 0 0 Z " fill="#000000" transform="translate(289,601)"/>
<path d="M0 0 C0 3 0 3 -2.062 5.375 C-5.239 8.213 -8.49 10.591 -12 13 C-12.66 12.67 -13.32 12.34 -14 12 C-9.385 7.935 -4.744 3.914 0 0 Z " fill="#000000" transform="translate(301,112)"/>
<path d="M0 0 C1.32 0 2.64 0 4 0 C4 2.64 4 5.28 4 8 C2.68 8 1.36 8 0 8 C0 5.36 0 2.72 0 0 Z " fill="#FFFFFF" transform="translate(194,516)"/>
<path d="M0 0 C3.468 1.342 6.801 2.833 10.125 4.5 C11.397 5.134 11.397 5.134 12.695 5.781 C15 7 15 7 18 9 C11.02 8.69 5.927 5.505 0 2 C0 1.34 0 0.68 0 0 Z " fill="#000000" transform="translate(71,241)"/>
<path d="M0 0 C2.97 0.33 5.94 0.66 9 1 C7.515 3.475 7.515 3.475 6 6 C2.215 4.486 1.993 3.986 0 0 Z " fill="#FFFFFF" transform="translate(247,165)"/>
<path d="M0 0 C-1.477 4.677 -1.477 4.677 -4.125 6.312 C-5.053 6.653 -5.053 6.653 -6 7 C-6 6.34 -6 5.68 -6 5 C-6.66 4.67 -7.32 4.34 -8 4 C-5.574 1.343 -3.761 0 0 0 Z " fill="#090909" transform="translate(102,196)"/>
<path d="M0 0 C0.99 0.33 1.98 0.66 3 1 C1.739 2.033 0.466 3.051 -0.812 4.062 C-1.874 4.915 -1.874 4.915 -2.957 5.785 C-3.631 6.186 -4.305 6.587 -5 7 C-5.99 6.67 -6.98 6.34 -8 6 C-6.739 4.967 -5.466 3.949 -4.188 2.938 C-3.48 2.369 -2.772 1.801 -2.043 1.215 C-1.369 0.814 -0.695 0.413 0 0 Z " fill="#000000" transform="translate(329,92)"/>
<path d="M0 0 C1.65 0 3.3 0 5 0 C5.33 0.99 5.66 1.98 6 3 C3.69 3.33 1.38 3.66 -1 4 C-0.67 2.68 -0.34 1.36 0 0 Z " fill="#4D4D4D" transform="translate(311,601)"/>
<path d="M0 0 C1.65 0.33 3.3 0.66 5 1 C5 1.99 5 2.98 5 4 C3.35 4 1.7 4 0 4 C0 2.68 0 1.36 0 0 Z " fill="#454545" transform="translate(303,601)"/>
<path d="M0 0 C4 2 8 4 12 6 C9.693 6.795 8.449 7.16 6.113 6.328 C5.519 5.972 4.925 5.617 4.312 5.25 C3.711 4.905 3.109 4.559 2.488 4.203 C1 3 1 3 0 0 Z " fill="#000000" transform="translate(51,223)"/>
<path d="M0 0 C1.32 0 2.64 0 4 0 C4.33 1.32 4.66 2.64 5 4 C3.02 4 1.04 4 -1 4 C-0.67 2.68 -0.34 1.36 0 0 Z " fill="#FFFFFF" transform="translate(288,155)"/>
<path d="M0 0 C2.97 0.495 2.97 0.495 6 1 C6 1.66 6 2.32 6 3 C3.69 3 1.38 3 -1 3 C-0.67 2.01 -0.34 1.02 0 0 Z " fill="#FFFFFF" transform="translate(229,491)"/>
<path d="M0 0 C1.32 0 2.64 0 4 0 C3.34 1.98 2.68 3.96 2 6 C1.34 6 0.68 6 0 6 C0 4.02 0 2.04 0 0 Z " fill="#FFFFFF" transform="translate(307,106)"/>
</svg>
