<?xml version="1.0" encoding="UTF-8"?>
<!-- Generator: visioncortex VTracer 0.6.4 -->
<svg version="1.1" xmlns="http://www.w3.org/2000/svg" width="337" height="607">
<path d="M0 0 C111.21 0 222.42 0 337 0 C337 200.31 337 400.62 337 607 C225.79 607 114.58 607 0 607 C0 406.69 0 206.38 0 0 Z " fill="#FDFDFD" transform="translate(0,0)"/>
<path d="M0 0 C1.613 4.012 0.252 6.597 -1.25 10.5 C-7.947 29.339 -7.722 49.088 -6.63 68.813 C-6.037 79.659 -5.845 90.47 -5.87 101.331 C-5.875 104.158 -5.87 106.985 -5.863 109.812 C-5.864 111.648 -5.865 113.484 -5.867 115.32 C-5.865 116.147 -5.863 116.973 -5.861 117.824 C-5.921 132.841 -5.921 132.841 -8 137 C-6.948 137.147 -6.948 137.147 -5.875 137.297 C1.614 138.477 8.024 139.868 13.375 145.5 C14.757 147.626 15.971 149.685 17 152 C17.578 151.319 18.155 150.639 18.75 149.938 C19.493 149.298 20.235 148.659 21 148 C25.267 148.561 28.5 151.098 32 153.438 C38.577 158.395 38.577 158.395 46.25 159.625 C47.157 159.419 48.065 159.213 49 159 C48.7 158.357 48.399 157.714 48.09 157.051 C42.126 142.88 46.79 129.693 52.324 116.102 C60.348 97.14 73.72 79.52 91 68 C93.506 50.952 86.862 36.051 78 22 C77.413 21.23 76.827 20.461 76.223 19.668 C75 18 75 18 75 16 C74.34 16 73.68 16 73 16 C71.874 14.84 70.751 13.678 69.641 12.504 C66.963 10.049 63.875 8.238 60.793 6.332 C60.201 5.892 59.61 5.453 59 5 C59 4.34 59 3.68 59 3 C64.465 4.366 67.548 6.827 71.5 10.625 C72.36 11.441 72.36 11.441 73.237 12.274 C81.446 20.192 86.153 28.791 91 39 C105.015 28.052 113.575 17.544 118 0 C118.66 0 119.32 0 120 0 C119.534 6.401 117.853 11.268 115 17 C122.843 13.233 130.363 9.352 137.598 4.48 C140 3 142.354 1.967 145 1 C145 1.66 145 2.32 145 3 C143.399 4.265 143.399 4.265 141.16 5.68 C140.344 6.197 139.527 6.714 138.686 7.246 C137.387 8.052 137.387 8.052 136.062 8.875 C135.232 9.405 134.401 9.935 133.545 10.48 C119.962 19 119.962 19 114 19 C114.052 20.243 114.103 21.485 114.156 22.766 C114.156 28.633 112.856 34.068 111.5 39.75 C111.026 41.765 110.558 43.78 110.094 45.797 C109.884 46.677 109.675 47.557 109.459 48.464 C108.994 51.033 108.918 53.395 109 56 C109.96 55.515 110.921 55.031 111.91 54.531 C132.748 44.238 154.606 38.317 177.102 32.936 C183.036 31.515 188.955 30.039 194.875 28.562 C196.381 28.192 196.381 28.192 197.918 27.814 C198.829 27.588 199.741 27.362 200.68 27.129 C201.867 26.836 201.867 26.836 203.078 26.537 C205.061 26.048 205.061 26.048 207 25 C207.42 16.325 206.342 9.018 201 2 C201 1.34 201 0.68 201 0 C201.99 0 202.98 0 204 0 C208.391 8.206 210.292 15.736 211 25 C211.888 24.783 211.888 24.783 212.793 24.562 C216.925 23.592 220.723 22.724 225 23 C225 23.66 225 24.32 225 25 C217.538 26.959 210.087 28.836 202.501 30.254 C152.99 39.539 96.816 53.685 66 97 C55.676 113.123 46.684 131.4 49 151 C50.105 154.147 51.44 157.062 52.883 160.066 C54.743 164.95 54.586 169.856 54 175 C53.67 175.66 53.34 176.32 53 177 C55.97 177.99 55.97 177.99 59 179 C58.526 177.948 58.051 176.896 57.562 175.812 C52.762 165.168 53.941 151.795 57.734 141.043 C62.42 129.777 67.52 123.332 78.5 118.125 C79.918 117.438 81.336 116.75 82.754 116.062 C83.463 115.721 84.172 115.379 84.903 115.027 C86.9 114.049 88.872 113.035 90.84 112 C97.076 108.733 102.928 105.757 110 105 C110.994 104.878 110.994 104.878 112.008 104.754 C118.877 104.309 124.296 106.733 129.512 111.105 C143.696 124.768 154.77 143.22 155.562 163.312 C155.257 171.924 152.155 176.112 146.125 181.938 C140.007 187.162 132.968 191.034 126 195 C127.968 195.62 129.95 196.195 131.938 196.75 C133.04 197.075 134.142 197.4 135.277 197.734 C139.653 198.047 141.721 197.083 145.564 195.176 C148.078 193.962 150.587 193.015 153.223 192.098 C154.157 191.771 155.092 191.445 156.055 191.109 C157.047 190.764 158.04 190.418 159.062 190.062 C179.165 182.932 199.525 175.416 218.332 165.293 C221 164 221 164 224 164 C224 164.66 224 165.32 224 166 C222.88 166.543 221.76 167.085 220.605 167.645 C219.133 168.367 217.66 169.09 216.188 169.812 C215.45 170.169 214.712 170.525 213.951 170.893 C213.239 171.244 212.527 171.595 211.793 171.957 C211.138 172.276 210.484 172.596 209.809 172.925 C205.443 175.519 204.002 178.888 201.938 183.438 C198.043 191.645 192.659 199.894 185 205 C185 206.32 185 207.64 185 209 C193.25 210.98 201.5 212.96 210 215 C209.67 215.99 209.34 216.98 209 218 C204.874 217.025 200.749 216.044 196.625 215.062 C195.449 214.785 194.274 214.507 193.062 214.221 C191.941 213.953 190.82 213.686 189.664 213.41 C188.627 213.164 187.59 212.918 186.522 212.664 C184 212 184 212 182 211 C181.885 211.998 181.771 212.995 181.652 214.023 C178.736 234.187 166.701 259.65 150.891 272.629 C147.858 274.828 144.834 277 141 277 C140.66 278.083 140.66 278.083 140.312 279.188 C138.752 282.532 136.697 284.516 134 287 C133.01 286.67 132.02 286.34 131 286 C131.459 285.539 131.918 285.077 132.391 284.602 C143.22 273.09 144.072 258.617 144.852 243.453 C144.915 242.316 144.979 241.179 145.045 240.007 C145.244 236.422 145.435 232.836 145.625 229.25 C145.76 226.799 145.895 224.349 146.031 221.898 C146.361 215.933 146.684 209.967 147 204 C147.66 204 148.32 204 149 204 C149.254 216.533 148.891 228.991 148.125 241.5 C148.066 242.509 148.066 242.509 148.006 243.538 C146.572 267.734 146.572 267.734 143 274 C155.964 265.888 161.707 255.52 168 242 C168.529 240.874 168.529 240.874 169.069 239.725 C173.469 230.305 177.226 221.036 180 211 C178.315 210.609 176.63 210.219 174.945 209.828 C173.864 209.577 172.783 209.326 171.668 209.068 C169.293 208.52 166.916 207.976 164.539 207.438 C159.224 206.232 153.933 205.015 148.688 203.535 C140.553 201.302 134.87 200.29 127.082 204.418 C123.345 206.336 119.574 207.54 115.562 208.75 C114.888 208.96 114.213 209.17 113.517 209.386 C107.731 211.16 102.743 212.129 96.688 212.062 C95.619 212.053 94.55 212.044 93.449 212.035 C92.641 212.024 91.833 212.012 91 212 C90.725 212.759 90.451 213.519 90.168 214.301 C89.086 216.801 88.056 218.164 86.312 220.188 C82.315 226.325 84.149 234.014 84.812 240.941 C86.122 255.317 82.502 267.193 76.789 280.187 C75.809 282.439 74.895 284.713 74 287 C73.67 287 73.34 287 73 287 C73.49 280.918 74.886 276.297 77.5 270.812 C78.14 269.446 78.776 268.078 79.406 266.707 C79.688 266.114 79.97 265.521 80.26 264.909 C81.782 260.982 82.127 257.163 82.133 252.98 C82.135 251.57 82.135 251.57 82.137 250.131 C82.133 249.16 82.129 248.188 82.125 247.188 C82.129 246.228 82.133 245.268 82.137 244.279 C82.129 238.759 81.814 233.46 81 228 C80.325 228.699 79.649 229.397 78.953 230.117 C78.061 231.027 77.169 231.937 76.25 232.875 C75.368 233.78 74.487 234.685 73.578 235.617 C71 238 71 238 68.719 239.055 C66.822 239.845 66.822 239.845 66.391 241.828 C66.213 244.888 66.073 247.935 66 251 C65.98 251.807 65.959 252.614 65.938 253.446 C65.687 264.823 65.857 275.788 68 287 C67.34 287 66.68 287 66 287 C64.404 281.284 63.619 275.982 63.375 270.062 C63.336 269.315 63.298 268.568 63.258 267.799 C62.913 260.669 62.699 253.543 63.5 246.438 C63.593 245.591 63.686 244.744 63.781 243.871 C63.853 243.254 63.926 242.636 64 242 C60.702 242.539 57.887 243.285 55 245 C53.248 248.194 52.687 251.449 52 255 C51.682 255.996 51.363 256.993 51.035 258.02 C49.426 263.523 49.008 269.258 48.375 274.938 C48.241 276.098 48.107 277.259 47.969 278.455 C47.641 281.303 47.318 284.151 47 287 C46.34 287 45.68 287 45 287 C45.572 278.657 46.201 270.325 47 262 C46.599 262.436 46.198 262.871 45.785 263.32 C32.286 277.462 13.204 284.497 -6.168 285.223 C-13.383 285.334 -20.495 284.902 -27.645 283.926 C-30.086 283.765 -30.086 283.765 -31.824 285.48 C-32.212 285.982 -32.6 286.483 -33 287 C-33.99 286.67 -34.98 286.34 -36 286 C-34.515 284.515 -34.515 284.515 -33 283 C-35.31 282.34 -37.62 281.68 -40 281 C-40.41 281.433 -40.82 281.866 -41.242 282.312 C-41.781 282.869 -42.32 283.426 -42.875 284 C-43.409 284.557 -43.942 285.114 -44.492 285.688 C-46 287 -46 287 -48 287 C-46.557 283.634 -44.667 281.49 -42 279 C-43.303 278.851 -43.303 278.851 -44.633 278.699 C-53.312 276.897 -61.179 270.477 -68 265 C-76.806 268.559 -83.11 278.708 -87 287 C-87.66 287 -88.32 287 -89 287 C-87.986 283.219 -86.98 280.977 -84.438 277.938 C-80.674 272.868 -81.091 267.092 -81 261 C-80.961 259.628 -80.922 258.255 -80.883 256.883 C-80.767 250.708 -80.869 245.178 -82.499 239.172 C-85.419 226.508 -85.431 212.478 -79 201 C-69.559 186.533 -54.438 178.303 -38 174 C-34.667 173.477 -31.369 173.149 -28 173 C-28.012 171.805 -28.023 170.61 -28.035 169.379 C-28.066 165.308 -28.054 161.238 -28.017 157.167 C-28.003 155.448 -28.01 153.73 -28.023 152.012 C-27.859 147.673 -26.856 145.383 -23.75 142.5 C-20.934 140.258 -18.547 139.538 -15 139 C-15.035 138.051 -15.07 137.102 -15.105 136.125 C-15.46 121.601 -13.729 107.232 -11.098 92.957 C-10.956 92.178 -10.814 91.398 -10.667 90.595 C-10.282 88.547 -9.869 86.504 -9.453 84.461 C-8.731 79.521 -9.297 74.698 -9.716 69.747 C-11.347 48.244 -12.63 18.945 0 0 Z " fill="#070707" transform="translate(104,9)"/>
<path d="M0 0 C2.438 1.438 2.438 1.438 4 4 C4.611 7.328 4.871 10.621 5 14 C5.713 14.231 6.426 14.461 7.16 14.699 C19.643 18.95 25.437 24.891 31.73 36.379 C33.603 40.244 34.127 43.468 34.133 47.746 C34.134 48.667 34.135 49.588 34.137 50.537 C34.133 51.494 34.129 52.451 34.125 53.438 C34.129 54.36 34.133 55.282 34.137 56.232 C34.127 63.524 33.639 70.738 33 78 C49.233 68.884 49.233 68.884 65.312 59.5 C70.216 56.588 75.128 53.858 80.266 51.375 C91.272 45.84 101.904 39.498 112.625 33.438 C113.595 32.889 114.565 32.341 115.564 31.777 C120.031 29.251 124.495 26.719 128.949 24.172 C129.693 23.748 130.436 23.325 131.203 22.889 C132.572 22.109 133.94 21.326 135.305 20.539 C139.775 18 139.775 18 142 18 C142 18.99 142 19.98 142 21 C141.12 21.451 141.12 21.451 140.222 21.911 C126.768 28.823 113.542 36.029 100.446 43.595 C91.039 48.999 81.508 54.186 71.974 59.362 C63.397 64.02 54.857 68.734 46.375 73.562 C45.051 74.313 45.051 74.313 43.7 75.08 C42.879 75.55 42.057 76.02 41.211 76.504 C40.492 76.915 39.773 77.325 39.033 77.748 C36.902 79.06 34.914 80.385 33 82 C32.704 84.181 32.704 84.181 33.062 86.562 C33.31 92.617 31.379 97.035 28 102 C27.129 102.767 26.257 103.534 25.359 104.324 C22.261 107.838 22.359 109.876 22.438 114.5 C22.436 115.789 22.435 117.078 22.434 118.406 C23.078 122.492 24.222 124.019 27 127 C28.375 129.32 29.699 131.64 31 134 C31.708 135.209 32.416 136.417 33.125 137.625 C36.788 144.219 37.29 148.977 37.188 156.438 C37.179 157.419 37.17 158.401 37.161 159.413 C36.952 176.533 36.721 190.279 24 203 C23.617 205.486 23.617 205.486 23.543 208.383 C23.482 209.468 23.421 210.554 23.357 211.672 C23.245 213.95 23.144 216.229 23.053 218.508 C22.511 227.598 20.255 233.04 13.688 239.312 C6.743 244.793 -0.289 245.884 -9 245 C-15.965 243.753 -21.481 240.468 -26 235 C-30.95 227.735 -30.762 220.104 -31.045 211.58 C-31.293 205.301 -31.293 205.301 -34.398 200.008 C-35.257 199.345 -36.115 198.683 -37 198 C-38.512 195.973 -38.512 195.973 -39.688 194.062 C-40.083 193.435 -40.479 192.807 -40.887 192.16 C-44.183 185.763 -44.593 179.375 -45.125 172.312 C-45.211 171.287 -45.298 170.262 -45.387 169.205 C-46.827 151.112 -45.016 139.86 -33.82 125.133 C-30.523 119.459 -30.962 113.343 -32 107 C-33.492 104.488 -34.944 102.871 -37.176 101.004 C-43.505 94.052 -42.545 84.305 -42.688 75.5 C-42.721 74.13 -42.755 72.76 -42.791 71.391 C-42.892 67.261 -42.952 63.131 -43 59 C-43.015 57.904 -43.015 57.904 -43.03 56.787 C-43.057 54.605 -43.075 52.424 -43.09 50.242 C-43.1 48.957 -43.11 47.671 -43.121 46.347 C-42.962 41.96 -42.123 38.798 -40 35 C-39.575 34.18 -39.149 33.36 -38.711 32.516 C-33.728 23.509 -27.757 18.378 -18 15 C-17.34 15 -16.68 15 -16 15 C-16.058 14.336 -16.116 13.672 -16.176 12.988 C-16.547 5.724 -16.547 5.724 -13.688 1.938 C-9.123 -1.353 -5.328 -1.332 0 0 Z " fill="#080808" transform="translate(173,335)"/>
<path d="M0 0 C2.341 1.781 4.388 3.769 6.438 5.875 C7 6.447 7.562 7.02 8.141 7.609 C19.364 19.402 28.129 36.21 29.168 52.66 C28.89 59.31 26.474 64.125 22 69 C18.855 71.675 15.523 73.856 12 76 C10.93 76.656 9.86 77.312 8.758 77.988 C0.382 83 0.382 83 -2 83 C-2 83.66 -2 84.32 -2 85 C-3.551 84.654 -3.551 84.654 -5.133 84.301 C-5.827 84.146 -6.521 83.992 -7.236 83.833 C-8.824 83.479 -10.412 83.124 -12 82.769 C-16.51 81.763 -21.023 80.78 -25.546 79.832 C-30.354 78.822 -35.148 77.755 -39.937 76.658 C-41.917 76.215 -43.901 75.791 -45.888 75.385 C-62.42 71.991 -62.42 71.991 -66.187 67.246 C-67.319 64.067 -67.794 61.361 -68 58 C-68.103 57.224 -68.206 56.448 -68.312 55.649 C-68.529 53.59 -68.558 51.631 -68.5 49.562 C-68.489 48.845 -68.477 48.128 -68.466 47.389 C-68.067 36.278 -64.343 23.881 -56.188 15.938 C-50.756 11.656 -44.199 8.924 -37.991 5.964 C-35.129 4.578 -32.32 3.094 -29.5 1.625 C-19.87 -3.157 -9.833 -5.555 0 0 Z " fill="#FFFFFF" transform="translate(229,119)"/>
<path d="M0 0 C-0.142 2.854 -0.288 5.708 -0.438 8.562 C-0.477 9.362 -0.516 10.162 -0.557 10.986 C-0.681 13.326 -0.839 15.662 -1 18 C-1.064 19.268 -1.129 20.537 -1.195 21.844 C-2 25 -2 25 -4.434 27.215 C-5.425 27.783 -6.416 28.352 -7.438 28.938 C-8.426 29.524 -9.415 30.111 -10.434 30.715 C-13 32 -13 32 -15 32 C-15 32.66 -15 33.32 -15 34 C-9.06 30.535 -9.06 30.535 -3 27 C-1.644 31.068 -2.066 34.634 -2.312 38.875 C-2.348 39.678 -2.383 40.481 -2.42 41.309 C-2.862 49.324 -2.862 49.324 -5 53 C-6.988 54.617 -6.988 54.617 -9.312 55.875 C-10.072 56.306 -10.831 56.736 -11.613 57.18 C-14.56 58.193 -16.07 58.012 -19 57 C-21.348 55.044 -22.798 52.801 -24 50 C-24.246 45.86 -23.007 41.984 -22 38 C-24.324 43.006 -25.808 46.667 -24.031 52.051 C-20.747 58.258 -15.261 61.212 -8.812 63.438 C3.322 66.718 14.324 65.764 25.258 59.664 C27.553 58.327 29.841 56.982 32.125 55.625 C33.29 54.944 34.455 54.265 35.621 53.586 C46.302 47.972 46.302 47.972 55 40 C56.239 35.107 56.606 31.445 54 27 C53.01 27 52.02 27 51 27 C49.32 25.683 47.655 24.347 46 23 C44.023 21.955 42.027 20.943 40 20 C40 19.34 40 18.68 40 18 C42.31 18.66 44.62 19.32 47 20 C45.089 18.089 42.404 17.177 40 16 C40.495 9.565 40.495 9.565 41 3 C54.642 7.376 64.622 15.419 71.836 27.668 C75.136 34.278 75.259 42.226 72.941 49.172 C67.096 61.655 57.551 69.332 44.797 74.086 C23.846 80.933 2.541 79.377 -17.5 70.312 C-28.791 64.129 -36.512 55.342 -41.438 43.562 C-42.85 34.619 -41.281 27.355 -36 20 C-33.625 17.312 -33.625 17.312 -31 15 C-30.545 14.542 -30.09 14.085 -29.621 13.613 C-22.338 6.659 -10.167 0 0 0 Z " fill="#FFFFFF" transform="translate(75,191)"/>
<path d="M0 0 C0.33 0 0.66 0 1 0 C1.039 1.558 1.039 1.558 1.078 3.148 C1.44 13.285 1.947 22.416 9.562 29.938 C15.8 34.824 22.8 36.364 30.625 35.938 C37.258 35.056 42.562 32.855 47.875 28.812 C54.212 20.425 53.664 10.079 54 0 C58.314 4.036 60.161 8.535 60.375 14.375 C60.001 22.847 57.441 28.517 51.176 34.277 C45.635 38.664 39.838 40.535 33 42 C41.568 41.533 48.809 38.014 55 32 C59.138 26.158 60.496 19.937 62 13 C66.797 18.548 67.356 26.486 67 33.625 C65.466 43.265 58.55 50.388 51 56 C49.013 57.207 47.156 58.115 45 59 C48.714 58.027 51.376 56.874 54.25 54.375 C57 52 57 52 59 52 C59.371 51.196 59.371 51.196 59.75 50.375 C61.301 47.428 63.083 44.721 65 42 C65.33 42 65.66 42 66 42 C65.969 54.035 64.418 63.077 56.75 72.875 C47.558 79.978 37.301 84.86 25.402 84.344 C14.722 82.816 4.107 78.751 -3.168 70.559 C-9.153 62.081 -10.137 53.163 -10 43 C-7.177 45.74 -4.62 48.47 -2.188 51.562 C1.019 55.397 4.443 57.036 9 59 C8.276 58.515 7.551 58.031 6.805 57.531 C0.705 53.302 -4.153 49.386 -8 43 C-8.619 41.989 -9.238 40.979 -9.875 39.938 C-12.621 32.845 -12.14 23.102 -9.5 16.062 C-9.005 15.052 -8.51 14.041 -8 13 C-6 16 -6 16 -5.125 19.688 C-3.278 27.312 -0.59 32.298 5.961 36.812 C8.542 38.316 11.106 39.277 14 40 C13.432 39.732 12.863 39.464 12.277 39.188 C4.963 35.475 -0.649 30.742 -3.938 23.062 C-6.075 16.167 -5.719 10.92 -2.5 4.438 C-1.684 2.949 -0.857 1.466 0 0 Z " fill="#FEFEFE" transform="translate(141,461)"/>
<path d="M0 0 C0 0.33 0 0.66 0 1 C-1.887 1.34 -1.887 1.34 -3.812 1.688 C-17.089 4.668 -28.959 12.012 -37 23 C-41.851 31.243 -42.708 38.989 -40.793 48.254 C-38.829 55.055 -35.291 60.324 -30 65 C-29.483 65.531 -28.966 66.062 -28.434 66.609 C-15.308 79.423 4.647 83.4 22.375 83.215 C38.222 82.276 54.077 77.913 66 67 C73.216 58.687 76.604 50.967 76.285 39.961 C75.594 32.786 73.093 26.201 68 21 C64.778 18.485 61.444 16.2 58 14 C58.33 13.01 58.66 12.02 59 11 C64.865 14.459 69.301 19.113 74 24 C72.35 21.36 70.7 18.72 69 16 C74.541 17.385 76.027 20.32 79 25 C84.477 34.928 86.846 43.666 84.316 55.086 C82.312 61.025 79.48 66.533 75 71 C74.34 71 73.68 71 73 71 C72.804 71.567 72.608 72.134 72.406 72.719 C70.431 75.924 67.632 77.557 64.5 79.5 C63.867 79.897 63.234 80.293 62.582 80.702 C57.568 83.777 52.649 86.29 47 88 C46.095 88.296 45.19 88.593 44.258 88.898 C31.532 92.358 18.064 91.265 5 91 C25.538 94.264 48.464 91.897 66 80 C73.1 74.715 78.728 68.807 83 61 C83.33 61 83.66 61 84 61 C83.583 69.618 80.758 75.863 76 83 C75.34 83 74.68 83 74 83 C73.769 83.58 73.539 84.16 73.301 84.758 C67.544 94.681 52.315 100.008 41.79 102.837 C19.801 108.146 -4.039 105.801 -23.984 94.883 C-36.116 87.309 -47.223 76.91 -50.594 62.453 C-50.875 60.25 -50.875 60.25 -51 57 C-49.115 59.337 -47.241 61.674 -45.457 64.09 C-39.409 72.187 -33.264 77.864 -24 82 C-24.918 81.394 -25.836 80.788 -26.781 80.164 C-38.073 72.53 -48.223 63.32 -51.613 49.5 C-53.24 38.983 -51.445 30.142 -45.375 21.375 C-39.442 13.744 -33.202 8.326 -24.625 3.938 C-24.018 3.626 -23.41 3.314 -22.785 2.993 C-18.382 0.873 -18.382 0.873 -15 2 C-1.48 -0.028 -1.48 -0.028 0 0 Z " fill="#FEFEFE" transform="translate(74,187)"/>
<path d="M0 0 C0.33 0 0.66 0 1 0 C1.255 1.087 1.255 1.087 1.516 2.195 C3.778 11.221 6.479 16.69 14.527 21.676 C24.312 26.916 35.675 27.693 46.375 24.812 C51.034 23.183 55.037 20.925 59 18 C59.907 17.34 60.815 16.68 61.75 16 C65.32 11.24 66.506 5.701 68 0 C70.861 4.291 70.592 7.965 70 13 C68.157 19.18 64.117 24.167 59 28 C55.421 29.91 51.775 31.519 48 33 C55.637 31.816 61.993 27.839 66.562 21.625 C67.018 20.937 67.473 20.248 67.941 19.539 C68.291 19.031 68.64 18.523 69 18 C69.33 18 69.66 18 70 18 C70 25.59 70 33.18 70 41 C58.75 47.295 58.75 47.295 55 48 C55 48.66 55 49.32 55 50 C58.203 49.375 60.419 48.243 63.125 46.438 C66.785 44 66.785 44 69 44 C69.808 51.031 68.847 55.818 64.906 61.738 C59.252 68.447 50.577 72.605 42 74 C29.713 74.875 18.487 73.682 8.684 65.57 C1.959 59.298 -0.217 53.356 -0.625 44.188 C-0.663 43.46 -0.701 42.732 -0.74 41.983 C-1.117 33.99 -1.09 25.999 -1 18 C1.287 20.216 3.148 22.22 4.938 24.875 C8.859 29.725 15.303 31.881 21 34 C21.99 34 22.98 34 24 34 C23.359 33.758 22.719 33.515 22.059 33.266 C19.354 32.218 16.675 31.122 14 30 C13.348 29.734 12.695 29.469 12.023 29.195 C5.78 26.202 2.027 20.053 -1 14 C-1.096 12.19 -1.13 10.375 -1.125 8.562 C-1.128 7.594 -1.13 6.626 -1.133 5.629 C-1 3 -1 3 0 0 Z " fill="#FFFFFF" transform="translate(134,374)"/>
<path d="M0 0 C0.813 0.411 1.625 0.821 2.462 1.244 C3.534 1.784 4.606 2.323 5.711 2.879 C7.301 3.681 7.301 3.681 8.923 4.498 C16.537 8.214 22.566 9.963 31 8 C32.394 7.503 33.783 6.989 35.166 6.461 C35.884 6.189 36.603 5.916 37.343 5.635 C37.89 5.425 38.437 5.216 39 5 C38.484 18.711 37.064 32.255 35.416 45.873 C34.995 49.351 34.583 52.831 34.172 56.311 C33.907 58.537 33.641 60.762 33.375 62.988 C33.252 64.022 33.129 65.055 33.002 66.119 C32.886 67.082 32.769 68.045 32.648 69.036 C32.547 69.877 32.446 70.718 32.341 71.584 C31.338 78.689 31.338 78.689 29.405 80.47 C28.393 81.049 28.393 81.049 27.359 81.641 C26.618 82.071 25.877 82.502 25.113 82.945 C24.333 83.376 23.554 83.806 22.75 84.25 C21.986 84.696 21.221 85.142 20.434 85.602 C13.841 89.359 8.761 90.156 1.188 90.062 C-0.082 90.051 -1.351 90.04 -2.659 90.029 C-3.761 90.019 -4.864 90.01 -6 90 C-5.337 71.621 -3.995 53.303 -2.614 34.967 C-2.316 31.011 -2.023 27.054 -1.729 23.098 C-1.156 15.398 -0.579 7.699 0 0 Z " fill="#FFFFFF" transform="translate(78,165)"/>
<path d="M0 0 C0.125 4.962 0.215 9.923 0.275 14.886 C0.3 16.571 0.334 18.256 0.377 19.94 C0.845 38.517 0.845 38.517 -5 45 C-7.535 47.156 -7.535 47.156 -10.062 48.5 C-10.899 48.964 -11.736 49.428 -12.598 49.906 C-19.303 52.959 -26.738 52.912 -33.75 50.812 C-39.977 48.451 -43.909 44.908 -47.177 38.992 C-48.615 35.511 -48.493 32.157 -48.391 28.441 C-48.385 27.652 -48.379 26.863 -48.373 26.05 C-48.351 23.554 -48.301 21.059 -48.25 18.562 C-48.23 16.86 -48.212 15.158 -48.195 13.455 C-48.151 9.303 -48.083 5.152 -48 1 C-47.112 1.307 -47.112 1.307 -46.207 1.621 C-33.164 6.068 -17.828 7.663 -4.898 1.973 C-4.272 1.652 -3.645 1.331 -3 1 C-1 0 -1 0 0 0 Z " fill="#FFFFFF" transform="translate(193,444)"/>
<path d="M0 0 C0.66 0 1.32 0 2 0 C1.534 6.401 -0.147 11.268 -3 17 C4.843 13.233 12.363 9.352 19.598 4.48 C22 3 24.354 1.967 27 1 C27 1.66 27 2.32 27 3 C25.399 4.265 25.399 4.265 23.16 5.68 C22.344 6.197 21.527 6.714 20.686 7.246 C19.82 7.784 18.954 8.321 18.062 8.875 C17.232 9.405 16.401 9.935 15.545 10.48 C1.962 19 1.962 19 -4 19 C-3.948 20.243 -3.897 21.485 -3.844 22.766 C-3.844 28.633 -5.144 34.068 -6.5 39.75 C-6.974 41.765 -7.442 43.78 -7.906 45.797 C-8.116 46.677 -8.325 47.557 -8.541 48.464 C-9.006 51.033 -9.082 53.395 -9 56 C-7.559 55.273 -7.559 55.273 -6.09 54.531 C14.748 44.238 36.606 38.317 59.102 32.936 C65.036 31.515 70.955 30.039 76.875 28.562 C77.879 28.315 78.883 28.068 79.918 27.814 C80.829 27.588 81.741 27.362 82.68 27.129 C83.867 26.836 83.867 26.836 85.078 26.537 C87.061 26.048 87.061 26.048 89 25 C89.42 16.325 88.342 9.018 83 2 C83 1.34 83 0.68 83 0 C83.99 0 84.98 0 86 0 C90.391 8.206 92.292 15.736 93 25 C93.888 24.783 93.888 24.783 94.793 24.562 C98.925 23.592 102.723 22.724 107 23 C107 23.66 107 24.32 107 25 C99.538 26.959 92.087 28.836 84.501 30.254 C35.075 39.523 -21.314 53.652 -52 97 C-56.083 103.436 -59.63 110.168 -63 117 C-63.66 117 -64.32 117 -65 117 C-64.405 112.312 -62.415 108.558 -60.125 104.5 C-59.729 103.799 -59.334 103.097 -58.926 102.375 C-54.734 95.191 -49.639 89.083 -44 83 C-43.287 82.229 -42.574 81.458 -41.84 80.664 C-39.194 77.918 -36.783 75.475 -33.508 73.488 C-30.828 71.831 -28.95 70.484 -27 68 C-23.415 51.541 -31.488 35.496 -40 22 C-40.587 21.23 -41.173 20.461 -41.777 19.668 C-43 18 -43 18 -43 16 C-43.66 16 -44.32 16 -45 16 C-46.126 14.84 -47.249 13.678 -48.359 12.504 C-51.037 10.049 -54.125 8.238 -57.207 6.332 C-57.799 5.892 -58.39 5.453 -59 5 C-59 4.34 -59 3.68 -59 3 C-53.535 4.366 -50.452 6.827 -46.5 10.625 C-45.927 11.169 -45.354 11.713 -44.763 12.274 C-36.554 20.192 -31.847 28.791 -27 39 C-12.985 28.052 -4.425 17.544 0 0 Z " fill="#000000" transform="translate(222,9)"/>
<path d="M0 0 C1.092 0.447 1.092 0.447 2.207 0.902 C14.627 5.784 26.861 7.87 39.691 2.973 C41.227 2.28 42.752 1.56 44.258 0.805 C46 0 46 0 48 0 C48.082 2.834 48.141 5.665 48.188 8.5 C48.213 9.291 48.238 10.083 48.264 10.898 C48.344 17.427 47.24 22.796 43.457 28.207 C37.488 34.035 32.408 36.099 24.062 36.438 C16.183 36.189 10.615 34.019 5.062 28.375 C-1.413 20.221 -0.257 9.9 0 0 Z " fill="#FFFFFF" transform="translate(145,541)"/>
<path d="M0 0 C0 0.66 0 1.32 0 2 C-0.967 2.291 -1.934 2.583 -2.93 2.883 C-17.499 7.41 -30.502 14.244 -38.781 27.652 C-43.353 36.459 -44.366 45.471 -41.875 55.062 C-40.125 60.319 -37.363 64.63 -34 69 C-33.282 69.956 -32.564 70.913 -31.824 71.898 C-28.662 75.66 -24.765 78.193 -20.688 80.875 C-19.947 81.373 -19.206 81.87 -18.443 82.383 C-16.634 83.597 -14.818 84.799 -13 86 C-13.99 86.495 -13.99 86.495 -15 87 C-26.62 81.86 -35.342 72.561 -42 62 C-39.346 75.8 -32.576 85.566 -21.154 93.503 C-13.869 98.354 -6.437 101.577 2 104 C3.062 104.318 4.124 104.637 5.219 104.965 C27.218 110.648 50.732 107.369 70.298 96.043 C77.128 92.005 77.128 92.005 82 86 C82.66 86 83.32 86 84 86 C84.371 85.01 84.371 85.01 84.75 84 C85.747 81.607 86.832 79.457 88.062 77.188 C90.157 73.1 90.674 69.561 91 65 C90.732 65.485 90.464 65.969 90.188 66.469 C82.654 79.355 69.931 88.58 55.584 92.692 C53.064 93.28 50.545 93.786 48 94.25 C46.635 94.503 46.635 94.503 45.243 94.76 C33.036 96.863 21.104 96.928 9 94 C9 93.67 9 93.34 9 93 C9.88 93.021 10.761 93.042 11.668 93.063 C35.908 93.564 61.079 93.938 80 76 C89.731 65.838 92.559 55.859 93 42 C93.66 42.33 94.32 42.66 95 43 C95.105 51.071 95.034 58.987 94 67 C94.699 66.639 95.397 66.278 96.117 65.906 C97.027 65.442 97.937 64.978 98.875 64.5 C99.78 64.036 100.685 63.572 101.617 63.094 C104 62 104 62 106 62 C105.67 62.99 105.34 63.98 105 65 C102.503 80.198 103.118 96.92 106 112 C105.34 112 104.68 112 104 112 C102.404 106.284 101.619 100.982 101.375 95.062 C101.336 94.315 101.298 93.568 101.258 92.799 C100.913 85.669 100.699 78.543 101.5 71.438 C101.593 70.591 101.686 69.744 101.781 68.871 C101.853 68.254 101.926 67.636 102 67 C98.702 67.539 95.887 68.285 93 70 C91.248 73.194 90.687 76.449 90 80 C89.682 80.996 89.363 81.993 89.035 83.02 C87.426 88.523 87.008 94.258 86.375 99.938 C86.241 101.098 86.107 102.259 85.969 103.455 C85.641 106.303 85.318 109.151 85 112 C84.34 112 83.68 112 83 112 C83.572 103.657 84.201 95.325 85 87 C84.599 87.436 84.198 87.871 83.785 88.32 C70.286 102.462 51.204 109.497 31.832 110.223 C24.617 110.334 17.505 109.902 10.355 108.926 C7.914 108.765 7.914 108.765 6.176 110.48 C5.788 110.982 5.4 111.483 5 112 C4.01 111.67 3.02 111.34 2 111 C2.99 110.01 3.98 109.02 5 108 C2.69 107.34 0.38 106.68 -2 106 C-2.41 106.433 -2.82 106.866 -3.242 107.312 C-3.781 107.869 -4.32 108.426 -4.875 109 C-5.409 109.557 -5.942 110.114 -6.492 110.688 C-8 112 -8 112 -10 112 C-8.557 108.634 -6.667 106.49 -4 104 C-4.869 103.901 -5.738 103.801 -6.633 103.699 C-15.312 101.897 -23.179 95.477 -30 90 C-38.806 93.559 -45.11 103.708 -49 112 C-49.66 112 -50.32 112 -51 112 C-49.986 108.219 -48.98 105.977 -46.438 102.938 C-42.674 97.868 -43.091 92.092 -43 86 C-42.961 84.628 -42.922 83.255 -42.883 81.883 C-42.767 75.708 -42.869 70.178 -44.499 64.172 C-47.419 51.508 -47.431 37.478 -41 26 C-32.851 13.513 -15.794 0 0 0 Z " fill="#000000" transform="translate(66,184)"/>
<path d="M0 0 C0.66 0 1.32 0 2 0 C3.332 1.977 3.332 1.977 4.812 4.625 C13.403 19.287 24.456 23.271 40 28 C33.658 40.808 23.266 52.189 10 58 C9.01 58 8.02 58 7 58 C7.016 57.325 7.031 56.651 7.048 55.956 C7.111 52.845 7.149 49.736 7.188 46.625 C7.213 45.564 7.238 44.503 7.264 43.41 C7.348 34.285 5.972 26.42 1 18.625 C0.505 17.834 0.01 17.042 -0.5 16.227 C-1.936 14.096 -3.436 12.038 -5 10 C-4.34 10 -3.68 10 -3 10 C-2.876 9.278 -2.752 8.556 -2.625 7.812 C-2.01 5.043 -1.116 2.603 0 0 Z " fill="#FFFFFF" transform="translate(153,193)"/>
<path d="M0 0 C1.613 4.012 0.252 6.597 -1.25 10.5 C-7.947 29.339 -7.722 49.088 -6.63 68.813 C-6.037 79.659 -5.845 90.47 -5.87 101.331 C-5.875 104.158 -5.87 106.985 -5.863 109.812 C-5.864 111.648 -5.865 113.484 -5.867 115.32 C-5.865 116.147 -5.863 116.973 -5.861 117.824 C-5.921 132.841 -5.921 132.841 -8 137 C-7.34 137.66 -6.68 138.32 -6 139 C-7.956 139.838 -9.915 140.67 -11.875 141.5 C-12.966 141.964 -14.056 142.428 -15.18 142.906 C-18 144 -18 144 -20 144 C-20 144.66 -20 145.32 -20 146 C-20.66 146 -21.32 146 -22 146 C-22 146.66 -22 147.32 -22 148 C-22.66 148.33 -23.32 148.66 -24 149 C-24.66 149.99 -25.32 150.98 -26 152 C-26.938 149.375 -26.938 149.375 -27 146 C-23.735 141.785 -20.245 139.771 -15 139 C-15.035 138.051 -15.07 137.102 -15.105 136.125 C-15.46 121.601 -13.729 107.232 -11.098 92.957 C-10.956 92.178 -10.814 91.398 -10.667 90.595 C-10.282 88.547 -9.869 86.504 -9.453 84.461 C-8.731 79.521 -9.297 74.698 -9.716 69.747 C-11.347 48.244 -12.63 18.945 0 0 Z " fill="#000000" transform="translate(104,9)"/>
<path d="M0 0 C0 0.66 0 1.32 0 2 C-1.68 2.814 -1.68 2.814 -3.395 3.645 C-4.867 4.367 -6.34 5.09 -7.812 5.812 C-8.55 6.169 -9.288 6.525 -10.049 6.893 C-11.117 7.419 -11.117 7.419 -12.207 7.957 C-12.862 8.276 -13.516 8.596 -14.191 8.925 C-18.557 11.519 -19.998 14.888 -22.062 19.438 C-25.957 27.645 -31.341 35.894 -39 41 C-39 42.32 -39 43.64 -39 45 C-30.75 46.98 -22.5 48.96 -14 51 C-14.33 51.99 -14.66 52.98 -15 54 C-19.126 53.025 -23.251 52.044 -27.375 51.062 C-29.138 50.646 -29.138 50.646 -30.938 50.221 C-32.059 49.953 -33.18 49.686 -34.336 49.41 C-35.373 49.164 -36.41 48.918 -37.478 48.664 C-40 48 -40 48 -42 47 C-42.115 47.998 -42.229 48.995 -42.348 50.023 C-45.264 70.187 -57.299 95.65 -73.109 108.629 C-76.142 110.828 -79.166 113 -83 113 C-83.34 114.083 -83.34 114.083 -83.688 115.188 C-85.248 118.532 -87.303 120.516 -90 123 C-90.99 122.67 -91.98 122.34 -93 122 C-92.312 121.308 -92.312 121.308 -91.609 120.602 C-80.78 109.09 -79.928 94.617 -79.148 79.453 C-79.085 78.316 -79.021 77.179 -78.955 76.007 C-78.756 72.422 -78.565 68.836 -78.375 65.25 C-78.24 62.799 -78.105 60.349 -77.969 57.898 C-77.639 51.933 -77.316 45.967 -77 40 C-76.34 40 -75.68 40 -75 40 C-74.746 52.533 -75.109 64.991 -75.875 77.5 C-75.914 78.173 -75.954 78.845 -75.994 79.538 C-77.428 103.734 -77.428 103.734 -81 110 C-68.036 101.888 -62.293 91.52 -56 78 C-55.471 76.874 -55.471 76.874 -54.931 75.725 C-50.538 66.32 -46.698 57.047 -44 47 C-45.32 46.67 -46.64 46.34 -48 46 C-48 45.34 -48 44.68 -48 44 C-46.35 44 -44.7 44 -43 44 C-42.67 41.36 -42.34 38.72 -42 36 C-41.34 36 -40.68 36 -40 36 C-40 36.66 -40 37.32 -40 38 C-32.255 30.725 -26.815 22.436 -22 13 C-23.072 13.516 -24.145 14.031 -25.25 14.562 C-27.715 15.632 -28.721 16.036 -31.438 15.688 C-31.953 15.461 -32.469 15.234 -33 15 C-27.454 11.395 -21.342 8.967 -15.305 6.316 C-11.769 4.749 -8.374 3.227 -5.062 1.219 C-3 0 -3 0 0 0 Z " fill="#000000" transform="translate(328,173)"/>
<path d="M0 0 C9.606 1.868 19.121 4.066 28.644 6.313 C30.605 6.775 32.567 7.232 34.53 7.687 C37.377 8.346 40.222 9.015 43.066 9.688 C44.39 9.991 44.39 9.991 45.74 10.3 C47.843 10.804 49.924 11.394 52 12 C52.495 12.99 52.495 12.99 53 14 C50.607 15.153 48.211 16.297 45.812 17.438 C45.139 17.763 44.465 18.088 43.771 18.424 C36.407 21.908 29.584 23.222 21.562 20.875 C12.995 17.739 6.32 11.297 1 4 C0.629 2.677 0.29 1.344 0 0 Z " fill="#FFFFFF" transform="translate(168,192)"/>
<path d="M0 0 C0 0.66 0 1.32 0 2 C-0.967 2.291 -1.934 2.583 -2.93 2.883 C-17.499 7.41 -30.502 14.244 -38.781 27.652 C-43.353 36.459 -44.366 45.471 -41.875 55.062 C-40.125 60.319 -37.363 64.63 -34 69 C-33.282 69.956 -32.564 70.913 -31.824 71.898 C-28.662 75.66 -24.765 78.193 -20.688 80.875 C-19.947 81.373 -19.206 81.87 -18.443 82.383 C-16.634 83.597 -14.818 84.799 -13 86 C-13.99 86.495 -13.99 86.495 -15 87 C-26.62 81.86 -35.342 72.561 -42 62 C-39.528 74.854 -33.428 84.928 -22.656 92.348 C-16.666 96.34 -10.547 99.989 -4 103 C-7 104 -7 104 -9.531 103.066 C-16.894 99.337 -23.48 95.057 -30 90 C-38.806 93.559 -45.11 103.708 -49 112 C-49.66 112 -50.32 112 -51 112 C-49.986 108.219 -48.98 105.977 -46.438 102.938 C-42.674 97.868 -43.091 92.092 -43 86 C-42.961 84.628 -42.922 83.255 -42.883 81.883 C-42.767 75.708 -42.869 70.178 -44.499 64.172 C-47.419 51.508 -47.431 37.478 -41 26 C-32.851 13.513 -15.794 0 0 0 Z " fill="#1B1B1B" transform="translate(66,184)"/>
<path d="M0 0 C4.95 0 9.9 0 15 0 C15 11.88 15 23.76 15 36 C10.38 36 5.76 36 1 36 C0.141 27.9 -0.125 19.955 -0.062 11.812 C-0.058 10.67 -0.053 9.527 -0.049 8.35 C-0.037 5.566 -0.019 2.783 0 0 Z " fill="#FFFFFF" transform="translate(160,347)"/>
<path d="M0 0 C9.331 2.737 16.463 6.694 22 15 C23.704 21.134 23.604 27.132 21.164 33.016 C16.846 40.376 9.011 44.065 1.18 46.586 C-8.521 48.429 -19.695 47.816 -28.246 42.641 C-33.596 38.832 -38.262 34.517 -40 28 C-40.781 21.157 -40.131 15.634 -36 10 C-32.248 5.993 -28.101 3.087 -23 1 C-22.01 1 -21.02 1 -20 1 C-19.67 2.98 -19.34 4.96 -19 7 C-20.812 8.062 -20.812 8.062 -23 9 C-23.99 8.67 -24.98 8.34 -26 8 C-24.68 7.67 -23.36 7.34 -22 7 C-22 6.34 -22 5.68 -22 5 C-23.114 5.66 -24.227 6.32 -25.375 7 C-28.75 9 -28.75 9 -31 9 C-31 9.66 -31 10.32 -31 11 C-31.66 11 -32.32 11 -33 11 C-35.628 18.227 -36.633 26.259 -33.5 33.438 C-27.245 39.849 -19.955 43.191 -10.935 43.38 C-0.227 43.355 8.156 41.844 16 34 C19.108 29.903 18.356 24.723 17.723 19.879 C16.734 14.898 15.099 12.208 11 9 C8.392 7.524 5.738 6.216 3 5 C3.99 5.99 4.98 6.98 6 8 C4.02 7.67 2.04 7.34 0 7 C0 4.69 0 2.38 0 0 Z " fill="#FFFFFF" transform="translate(177,352)"/>
<path d="M0 0 C9.457 0.946 9.457 0.946 12 3 C12.268 3.866 12.536 4.732 12.812 5.625 C15.63 13.632 22.673 19.132 30 23 C37.388 26.234 44.315 27.16 51.968 24.252 C55.576 22.76 59.121 21.153 62.656 19.496 C66 18 66 18 68 18 C68.33 17.34 68.66 16.68 69 16 C72.96 16.99 76.92 17.98 81 19 C79.674 21.651 78.607 21.694 75.844 22.656 C74.985 22.957 74.127 23.257 73.242 23.566 C71.885 24.029 71.885 24.029 70.5 24.5 C69.626 24.808 68.752 25.116 67.852 25.434 C51.563 31.065 36.808 32.076 20.875 24.75 C10.304 19.117 5.262 11.441 0 1 C0 0.67 0 0.34 0 0 Z " fill="#FFFFFF" transform="translate(155,189)"/>
<path d="M0 0 C0 0.66 0 1.32 0 2 C1.109 2.961 2.263 3.871 3.438 4.75 C6.009 6.903 6.949 7.874 8.25 11.062 C8 14 8 14 5.562 16.875 C4.717 17.576 3.871 18.278 3 19 C1.948 18.526 0.896 18.051 -0.188 17.562 C-7.824 14.325 -15.249 13.9 -23 17 C-25.062 14.938 -25.062 14.938 -27 12 C-26.75 8.188 -26.75 8.188 -26 5 C-25.34 5 -24.68 5 -24 5 C-24 4.34 -24 3.68 -24 3 C-15.486 -2.085 -9.554 -2.385 0 0 Z " fill="#FFFFFF" transform="translate(108,150)"/>
<path d="M0 0 C0.33 0 0.66 0 1 0 C0.696 7.883 -0.59 15.244 -2.54 22.859 C-2.712 23.54 -2.885 24.221 -3.062 24.922 C-3.233 25.592 -3.403 26.262 -3.578 26.953 C-4.017 29.081 -4.171 31.134 -4.316 33.301 C-5 37 -5 37 -7.215 39.059 C-8.113 39.514 -9.012 39.969 -9.938 40.438 C-10.833 40.911 -11.729 41.384 -12.652 41.871 C-13.427 42.244 -14.202 42.616 -15 43 C-15.99 43.495 -15.99 43.495 -17 44 C-17.133 42.698 -17.266 41.396 -17.402 40.055 C-17.581 38.328 -17.759 36.602 -17.938 34.875 C-18.068 33.591 -18.068 33.591 -18.201 32.281 C-18.664 27.823 -19.197 23.413 -20 19 C-19.299 18.527 -18.597 18.054 -17.875 17.566 C-11.102 12.845 -3.79 7.58 0 0 Z " fill="#FFFFFF" transform="translate(215,31)"/>
<path d="M0 0 C8.682 10.853 8.682 10.853 9 18 C8.008 20.176 8.008 20.176 7 22 C2.602 21.026 -1.794 20.047 -6.19 19.064 C-7.686 18.73 -9.183 18.398 -10.68 18.066 C-12.828 17.591 -14.975 17.11 -17.121 16.629 C-17.794 16.481 -18.467 16.333 -19.16 16.181 C-23.886 15.114 -23.886 15.114 -25 14 C-25 12.35 -25 10.7 -25 9 C-16.75 6.03 -8.5 3.06 0 0 Z " fill="#FFFFFF" transform="translate(278,196)"/>
<path d="M0 0 C1.275 0.596 2.544 1.202 3.812 1.812 C4.52 2.149 5.228 2.485 5.957 2.832 C8 4 8 4 9.574 5.637 C11.033 7.346 11.033 7.346 14 7 C16.189 10.804 16.328 13.394 15.734 17.68 C14.398 21.903 11.525 24.457 8 27 C5 28.312 5 28.312 2 29 C0.707 29.369 -0.585 29.744 -1.875 30.125 C-3.422 30.558 -3.422 30.558 -5 31 C-4.505 26.545 -4.505 26.545 -4 22 C-2.02 22.33 -0.04 22.66 2 23 C0.02 22.01 -1.96 21.02 -4 20 C-4.108 17.228 -4.187 14.46 -4.25 11.688 C-4.284 10.902 -4.317 10.116 -4.352 9.307 C-4.389 7.133 -4.384 5.14 -4 3 C-1.984 0.957 -1.984 0.957 0 0 Z " fill="#0D0D0D" transform="translate(116,211)"/>
<path d="M0 0 C0 0.66 0 1.32 0 2 C-1.097 2.519 -2.194 3.039 -3.324 3.574 C-4.779 4.278 -6.233 4.983 -7.688 5.688 C-8.409 6.027 -9.13 6.367 -9.873 6.717 C-14.457 8.956 -17.509 11.302 -21 15 C-21.66 15 -22.32 15 -23 15 C-23.277 15.576 -23.554 16.152 -23.84 16.746 C-25 19 -25 19 -26.254 20.973 C-30.449 27.673 -32.059 33.988 -30.402 41.828 C-26.43 54.14 -17.711 62.417 -6.625 68.625 C12.891 77.69 34.645 78.934 55 72 C69.401 66.51 77.634 57.639 84 44 C85 47 85 47 84.25 49.199 C77.051 63.529 66.719 70.969 51.543 76 C30.844 81.842 9.216 79.645 -9.711 69.555 C-20.729 63.235 -28.887 55.339 -33 43 C-35.026 32.888 -33.311 25.055 -27.754 16.418 C-22.107 8.634 -15.592 4.18 -7 0 C-4.333 -1.333 -2.833 -0.671 0 0 Z " fill="#010101" transform="translate(65,192)"/>
<path d="M0 0 C0 1.65 0 3.3 0 5 C-0.922 5.238 -0.922 5.238 -1.863 5.48 C-7.018 6.951 -7.018 6.951 -11.125 10.25 C-12.311 13.977 -12.091 16.25 -11 20 C-5.283 25.871 1.518 25.352 9.25 25.75 C10.262 25.818 11.274 25.887 12.316 25.957 C18.712 26.281 23.204 25.785 29 23 C31.56 20.68 31.928 19.48 32.438 16.062 C31.869 12.084 30.991 10.699 28 8 C25.063 6.736 22.09 5.812 19 5 C19 3.35 19 1.7 19 0 C25.276 0.598 29.16 2.911 33.312 7.625 C36.152 11.622 36.244 13.835 35.621 18.617 C34.334 23.555 31.219 26.558 27.023 29.285 C17.921 33.903 7.631 33.882 -2 31 C-8.761 28.53 -12.609 23.943 -15.625 17.562 C-16.136 12.712 -14.922 9.851 -12 6 C-8.585 2.871 -4.813 0 0 0 Z " fill="#FFFFFF" transform="translate(158,361)"/>
<path d="M0 0 C6.869 -0.444 12.288 1.979 17.504 6.352 C31.688 20.014 42.762 38.466 43.555 58.559 C43.246 67.279 40.07 71.448 33.93 77.309 C28.795 81.666 23.118 85.427 16.992 88.246 C16.332 87.916 15.672 87.586 14.992 87.246 C19.208 83.764 23.63 80.897 28.273 78.027 C34.338 74.054 38.586 70.203 40.602 63.098 C42.979 48.787 34.847 33.273 27.27 21.59 C25.607 19.358 23.87 17.3 21.992 15.246 C21.184 14.358 20.376 13.47 19.543 12.555 C14.615 7.376 11.142 4.071 3.895 2.91 C-9.596 2.642 -20.632 9.494 -31.88 16.053 C-34.629 17.594 -37.448 18.96 -40.301 20.297 C-47.718 24.422 -50.885 34.439 -53.137 42.074 C-54.134 46.282 -54.313 50.31 -54.258 54.621 C-54.254 55.358 -54.25 56.094 -54.246 56.853 C-54.157 62.476 -53.504 67.809 -52.008 73.246 C-56.501 69.147 -56.849 64.449 -57.27 58.621 C-57.775 45.516 -54.802 33.054 -47.008 22.246 C-42.854 18.33 -38.641 15.805 -33.508 13.371 C-32.09 12.684 -30.672 11.997 -29.254 11.309 C-28.545 10.967 -27.836 10.625 -27.105 10.273 C-25.108 9.295 -23.136 8.281 -21.168 7.246 C-14.116 3.552 -7.892 0.967 0 0 Z " fill="#000000" transform="translate(216.0078125,113.75390625)"/>
<path d="M0 0 C-2.769 9.506 -9.215 17.892 -16 25 C-16.66 25 -17.32 25 -18 25 C-20.667 19.667 -23.333 14.333 -26 9 C-21.004 6.99 -16.004 4.99 -11 3 C-10.118 2.648 -9.237 2.296 -8.328 1.934 C-5.393 0.792 -3.18 0 0 0 Z " fill="#FFFFFF" transform="translate(306,186)"/>
<path d="M0 0 C0 0.99 0 1.98 0 3 C-0.88 3.451 -0.88 3.451 -1.778 3.911 C-15.232 10.823 -28.458 18.029 -41.554 25.595 C-50.055 30.478 -58.658 35.189 -67.273 39.867 C-68.636 40.607 -68.636 40.607 -70.026 41.362 C-71.876 42.367 -73.727 43.371 -75.577 44.374 C-83.227 48.539 -90.786 52.851 -98.3 57.255 C-99.532 57.97 -99.532 57.97 -100.789 58.699 C-101.508 59.12 -102.227 59.541 -102.967 59.975 C-104.976 60.988 -106.803 61.549 -109 62 C-105.059 57.617 -100.937 55.05 -95.75 52.312 C-94.14 51.442 -92.53 50.57 -90.922 49.695 C-90.105 49.252 -89.289 48.809 -88.447 48.353 C-84.581 46.216 -80.792 43.952 -77 41.688 C-71.993 38.712 -66.982 35.911 -61.734 33.375 C-50.728 27.84 -40.096 21.498 -29.375 15.438 C-28.405 14.889 -27.435 14.341 -26.436 13.777 C-21.969 11.251 -17.505 8.719 -13.051 6.172 C-12.307 5.748 -11.564 5.325 -10.797 4.889 C-9.428 4.109 -8.06 3.326 -6.695 2.539 C-2.225 0 -2.225 0 0 0 Z " fill="#000000" transform="translate(315,353)"/>
<path d="M0 0 C0 0.66 0 1.32 0 2 C-0.967 2.291 -1.934 2.583 -2.93 2.883 C-17.499 7.41 -30.502 14.244 -38.781 27.652 C-43.353 36.459 -44.366 45.471 -41.875 55.062 C-40.125 60.319 -37.363 64.63 -34 69 C-32.923 70.435 -32.923 70.435 -31.824 71.898 C-28.662 75.66 -24.765 78.193 -20.688 80.875 C-19.947 81.373 -19.206 81.87 -18.443 82.383 C-16.634 83.597 -14.818 84.799 -13 86 C-13.99 86.495 -13.99 86.495 -15 87 C-26.62 81.86 -35.342 72.561 -42 62 C-42 63.98 -42 65.96 -42 68 C-42.66 67.67 -43.32 67.34 -44 67 C-44.485 64.147 -44.846 61.374 -45.125 58.5 C-45.211 57.721 -45.298 56.943 -45.387 56.141 C-46.806 42.538 -45.537 31.309 -36.812 20.062 C-28.374 10.549 -13.308 0 0 0 Z " fill="#000000" transform="translate(66,184)"/>
<path d="M0 0 C5.268 1.856 9.423 4.937 13.965 8.125 C16.941 9.964 19.649 11.041 23 12 C22.34 12.66 21.68 13.32 21 14 C19.657 13.706 18.323 13.372 17 13 C16.01 13.495 16.01 13.495 15 14 C15 14.66 15 15.32 15 16 C17.64 16.66 20.28 17.32 23 18 C22.34 18.99 21.68 19.98 21 21 C15.892 20.498 12.66 18.837 8.375 16.062 C3.321 12.794 3.321 12.794 -2 10 C-2.66 11.32 -3.32 12.64 -4 14 C-4.66 13.67 -5.32 13.34 -6 13 C-5.461 9.123 -4.439 7.024 -2 4 C-1.304 2.682 -0.628 1.352 0 0 Z " fill="#5E5E5E" transform="translate(125,160)"/>
<path d="M0 0 C0.33 0 0.66 0 1 0 C1 2.97 1 5.94 1 9 C2.98 9.99 4.96 10.98 7 12 C4 13 4 13 1 12 C0.34 14.64 -0.32 17.28 -1 20 C-0.216 19.505 0.567 19.01 1.375 18.5 C4 17 4 17 6 17 C6 17.66 6 18.32 6 19 C2.414 21.13 -1.179 23.247 -4.779 25.354 C-6.001 26.071 -7.221 26.792 -8.439 27.516 C-10.196 28.56 -11.961 29.591 -13.727 30.621 C-14.784 31.244 -15.842 31.867 -16.932 32.51 C-26.713 37.261 -39.085 35.748 -49.043 32.328 C-54.724 29.777 -59.184 26.114 -62.125 20.562 C-63.212 16.137 -62.874 13.134 -61 9 C-58.875 6.5 -58.875 6.5 -57 5 C-57.228 5.568 -57.456 6.137 -57.691 6.723 C-59.604 11.86 -60.57 15.556 -59 21 C-56.648 24.772 -56.648 24.772 -52.812 26.688 C-52.214 26.791 -51.616 26.894 -51 27 C-50.67 27.66 -50.34 28.32 -50 29 C-48.117 29.903 -48.117 29.903 -45.938 30.625 C-45.204 30.885 -44.471 31.146 -43.715 31.414 C-42.866 31.704 -42.866 31.704 -42 32 C-41.67 31.01 -41.34 30.02 -41 29 C-40.67 30.32 -40.34 31.64 -40 33 C-37.645 32.885 -35.292 32.758 -32.938 32.625 C-31.627 32.555 -30.316 32.486 -28.965 32.414 C-22.066 31.694 -16.936 29.671 -11.188 25.875 C-5.241 22 -5.241 22 -3 22 C-2.909 20.606 -2.909 20.606 -2.816 19.184 C-1.626 1.626 -1.626 1.626 0 0 Z " fill="#000000" transform="translate(112,222)"/>
<path d="M0 0 C0.66 0 1.32 0 2 0 C2.421 6.099 2.09 9.137 -2 14 C-8.533 20.533 -16.551 22.408 -25.5 22.5 C-35.15 22.38 -42.323 20.022 -49.625 13.562 C-53.138 9.571 -53.201 6.225 -53 1 C-51 2 -51 2 -49.688 5.75 C-47.658 11.367 -44.829 14.102 -39.438 16.75 C-29.294 20.099 -19.337 19.559 -9.688 15.188 C-5.545 12.939 -2.816 10.517 -1.32 5.902 C-0.818 3.95 -0.402 1.976 0 0 Z " fill="#000000" transform="translate(194,374)"/>
<path d="M0 0 C0.33 0 0.66 0 1 0 C1.068 7.175 0.905 14.292 0.449 21.453 C0.39 22.398 0.33 23.342 0.269 24.315 C0.142 26.292 0.014 28.268 -0.117 30.244 C-0.313 33.256 -0.491 36.268 -0.67 39.281 C-0.796 41.214 -0.923 43.146 -1.051 45.078 C-1.101 45.97 -1.151 46.862 -1.203 47.781 C-1.583 53.149 -2.588 57.179 -5 62 C-7.97 61.01 -10.94 60.02 -14 59 C-11.782 54.564 -11.782 54.564 -8.438 53 C-4.954 51.456 -4.954 51.456 -4.305 49.173 C-3.979 46.852 -3.789 44.576 -3.684 42.234 C-3.642 41.345 -3.6 40.455 -3.557 39.539 C-3.517 38.619 -3.478 37.698 -3.438 36.75 C-3.394 35.814 -3.351 34.878 -3.307 33.914 C-3.201 31.61 -3.099 29.305 -3 27 C-3.699 27.433 -4.397 27.866 -5.117 28.312 C-6.027 28.869 -6.937 29.426 -7.875 30 C-8.78 30.557 -9.685 31.114 -10.617 31.688 C-13 33 -13 33 -15 33 C-15 32.34 -15 31.68 -15 31 C-14.157 30.685 -13.314 30.371 -12.445 30.047 C-8.672 28.573 -5.461 27.276 -3 24 C-1.051 17.621 -1.123 10.759 -1.107 4.135 C-1 2 -1 2 0 0 Z " fill="#000000" transform="translate(75,192)"/>
<path d="M0 0 C1.613 4.012 0.252 6.597 -1.25 10.5 C-9.178 32.802 -7.624 56.765 -6 80 C-6.66 80 -7.32 80 -8 80 C-9.624 70.321 -10.356 61.007 -10.312 51.188 C-10.308 49.874 -10.303 48.56 -10.298 47.207 C-10.115 32.028 -8.687 13.031 0 0 Z " fill="#000000" transform="translate(104,9)"/>
<path d="M0 0 C1 2 1 2 0.469 4.066 C-4.606 17.142 -13.562 25.894 -26.188 31.871 C-36.628 36.062 -47.159 38.198 -58.375 38.188 C-59.491 38.188 -59.491 38.188 -60.629 38.189 C-66.004 38.138 -70.817 37.508 -76 36 C-72.87 35.065 -70.179 34.93 -66.922 35.043 C-47.451 35.526 -29.312 33.299 -13.395 20.984 C-7.142 15.026 -3.152 7.962 0 0 Z " fill="#000000" transform="translate(153,236)"/>
<path d="M0 0 C1.122 3.365 1.009 3.77 -0.438 6.812 C-4.47 14.339 -12.17 18.259 -20 21 C-30.618 23.663 -42.074 22.844 -51.66 17.523 C-57.165 13.972 -61.458 10.155 -64 4 C-64 3.01 -64 2.02 -64 1 C-63.34 1 -62.68 1 -62 1 C-61.781 1.519 -61.562 2.039 -61.336 2.574 C-58.176 9.525 -53.906 13.547 -47 17 C-36.915 20.549 -25.282 20.454 -15.434 16.254 C-7.713 12.276 -3.652 7.901 0 0 Z " fill="#000000" transform="translate(200,379)"/>
<path d="M0 0 C0.33 0 0.66 0 1 0 C1.05 5.265 1.086 10.53 1.11 15.796 C1.12 17.584 1.133 19.373 1.151 21.161 C1.175 23.743 1.187 26.324 1.195 28.906 C1.206 29.696 1.216 30.486 1.227 31.3 C1.228 36.52 0.445 40.979 -1 46 C-1.99 46 -2.98 46 -4 46 C-4.615 30.517 -2.678 15.237 0 0 Z " fill="#FFFFFF" transform="translate(95,101)"/>
<path d="M0 0 C3.123 0.68 3.123 0.68 5.938 -0.062 C6.68 -0.207 7.423 -0.351 8.188 -0.5 C10.188 1.5 10.188 1.5 10.418 3.41 C10.299 9.389 10.299 9.389 9.188 10.5 C6.834 10.573 4.479 10.584 2.125 10.562 C0.835 10.553 -0.456 10.544 -1.785 10.535 C-2.784 10.524 -3.783 10.512 -4.812 10.5 C-4.192 6.817 -3.746 4.923 -0.812 2.5 C-2.132 2.83 -3.452 3.16 -4.812 3.5 C-4.812 2.51 -4.812 1.52 -4.812 0.5 C-2.812 -0.5 -2.812 -0.5 0 0 Z " fill="#090909" transform="translate(320.8125,591.5)"/>
<path d="M0 0 C0.33 0 0.66 0 1 0 C0.928 0.739 0.856 1.477 0.781 2.238 C-0.833 19.88 0.136 35.68 10 51 C14.828 56.504 20.712 60.342 27 64 C26.67 64.66 26.34 65.32 26 66 C10.793 57.255 3.403 48.097 -1.551 31.112 C-2.415 27.048 -2.185 22.889 -2.188 18.75 C-2.2 17.833 -2.212 16.917 -2.225 15.973 C-2.237 10.295 -1.617 5.446 0 0 Z " fill="#000000" transform="translate(224,118)"/>
<path d="M0 0 C0 3.3 0 6.6 0 10 C-3.98 10.844 -7.97 11.447 -12 12 C-12.66 11.01 -13.32 10.02 -14 9 C-12.68 8.34 -11.36 7.68 -10 7 C-10.615 7.228 -11.23 7.456 -11.863 7.691 C-13.076 8.123 -13.076 8.123 -14.312 8.562 C-15.513 8.998 -15.513 8.998 -16.738 9.441 C-19 10 -19 10 -22 9 C-20.68 8.67 -19.36 8.34 -18 8 C-18 7.34 -18 6.68 -18 6 C-14.535 5.505 -14.535 5.505 -11 5 C-10.67 4.01 -10.34 3.02 -10 2 C-7.969 1.27 -7.969 1.27 -5.5 0.812 C-4.278 0.575 -4.278 0.575 -3.031 0.332 C-1 0 -1 0 0 0 Z " fill="#222222" transform="translate(77,181)"/>
<path d="M0 0 C0 3 0 3 -1.5 6.312 C-4.4 13.847 -4.171 22.761 -1.438 30.312 C2.886 39.469 9.184 45.288 17.328 51.055 C19.451 52.6 21.233 54.076 23 56 C13.798 54.809 6.734 46.201 0.914 39.527 C-5.176 31.486 -6.762 22.894 -6 13 C-4.928 8.122 -3.419 3.744 0 0 Z " fill="#000000" transform="translate(33,209)"/>
<path d="M0 0 C0.516 0.66 1.031 1.32 1.562 2 C2.367 2.99 3.171 3.98 4 5 C4.498 5.628 4.995 6.256 5.508 6.902 C11.29 13.908 17.865 19.308 27 21 C32.987 21.554 37.485 20.031 43 18 C44.686 17.432 46.373 16.869 48.062 16.312 C48.817 16.061 49.571 15.81 50.348 15.551 C50.893 15.369 51.438 15.187 52 15 C52 15.66 52 16.32 52 17 C41.171 22.103 32.194 26.073 20.25 21.949 C17.169 20.649 14.644 19.043 12 17 C11.01 16.257 10.02 15.515 9 14.75 C4.655 11.059 0.809 6.428 -1 1 C-0.67 0.67 -0.34 0.34 0 0 Z " fill="#000000" transform="translate(167,192)"/>
<path d="M0 0 C1.163 2.749 1.019 3.944 0.062 6.812 C-4.497 13.859 -9.921 17.79 -18.133 19.633 C-25.476 20.573 -33.504 19.769 -40 16 C-44.666 12.357 -47.7 8.921 -49 3 C-48.34 3 -47.68 3 -47 3 C-46.072 4.383 -45.208 5.808 -44.375 7.25 C-40.899 12.668 -37.109 14.792 -31.047 16.574 C-22.913 18.266 -16.353 16.535 -9 13 C-8.267 12.673 -7.533 12.345 -6.777 12.008 C-4.188 10.539 -3.946 8.776 -3 6 C-2.015 3.992 -1.018 1.991 0 0 Z " fill="#000000" transform="translate(193,478)"/>
<path d="M0 0 C0.619 0.206 1.238 0.413 1.875 0.625 C2.205 0.295 2.535 -0.035 2.875 -0.375 C5.546 -0.516 8.199 -0.417 10.875 -0.375 C10.092 3.541 8.483 6.989 6.875 10.625 C6.215 10.625 5.555 10.625 4.875 10.625 C5.04 9.676 5.205 8.727 5.375 7.75 C5.928 4.823 5.928 4.823 5.875 2.625 C4.555 2.955 3.235 3.285 1.875 3.625 C2.153 4.801 2.153 4.801 2.438 6 C2.875 8.625 2.875 8.625 1.875 10.625 C-0.5 10.75 -0.5 10.75 -3.125 10.625 C-5.125 8.625 -5.125 8.625 -5.438 5.688 C-5.125 2.625 -5.125 2.625 -3.875 0.688 C-2.125 -0.375 -2.125 -0.375 0 0 Z " fill="#121212" transform="translate(304.125,591.375)"/>
<path d="M0 0 C0.33 0 0.66 0 1 0 C1 5.28 1 10.56 1 16 C2.32 15.67 3.64 15.34 5 15 C5.99 15.66 6.98 16.32 8 17 C6.044 17.838 4.085 18.67 2.125 19.5 C1.034 19.964 -0.056 20.428 -1.18 20.906 C-4 22 -4 22 -6 22 C-6 22.66 -6 23.32 -6 24 C-6.66 24 -7.32 24 -8 24 C-8 24.66 -8 25.32 -8 26 C-8.66 26.33 -9.32 26.66 -10 27 C-10.66 27.99 -11.32 28.98 -12 30 C-12.938 27.375 -12.938 27.375 -13 24 C-9.735 19.785 -6.245 17.771 -1 17 C-1.012 15.857 -1.023 14.713 -1.035 13.535 C-1.045 12.044 -1.054 10.553 -1.062 9.062 C-1.071 8.308 -1.079 7.553 -1.088 6.775 C-1.097 4.85 -1.052 2.925 -1 1 C-0.67 0.67 -0.34 0.34 0 0 Z " fill="#121212" transform="translate(90,131)"/>
<path d="M0 0 C1 1 1 1 1.312 3.875 C1 7 1 7 -1 8.875 C-1.99 9.432 -1.99 9.432 -3 10 C-1.68 10.33 -0.36 10.66 1 11 C1 11.99 1 12.98 1 14 C-2.3 14 -5.6 14 -9 14 C-7.927 9.708 -6.975 8.975 -4 6 C-4 5.01 -4 4.02 -4 3 C-4.33 3.66 -4.66 4.32 -5 5 C-6.32 5 -7.64 5 -9 5 C-8.625 2.562 -8.625 2.562 -8 0 C-5.118 -1.441 -3.082 -0.656 0 0 Z " fill="#000000" transform="translate(329,341)"/>
<path d="M0 0 C2.64 0.33 5.28 0.66 8 1 C11.08 9.036 11.08 9.036 12 13 C9 14 9 14 6.52 13.004 C5.626 12.528 4.733 12.053 3.812 11.562 C2.461 10.853 2.461 10.853 1.082 10.129 C0.395 9.756 -0.292 9.384 -1 9 C-0.67 6.03 -0.34 3.06 0 0 Z " fill="#FFFFFF" transform="translate(113,222)"/>
<path d="M0 0 C2.375 1.75 2.375 1.75 4 4 C3.875 6.188 3.875 6.188 3 8 C-0.019 9.509 -2.673 9.175 -6 9 C-6.99 8.34 -7.98 7.68 -9 7 C-8.688 4.625 -8.688 4.625 -8 2 C-4.752 -0.166 -3.769 -0.552 0 0 Z " fill="#FFFFFF" transform="translate(170,337)"/>
<path d="M0 0 C5.372 1.679 11.223 5.122 14.23 9.992 C15.272 12.709 15.131 15.12 15 18 C13.214 16.214 11.465 14.42 9.75 12.562 C6.657 9.68 3.723 7.971 0 6 C0 4.02 0 2.04 0 0 Z " fill="#FFFFFF" transform="translate(114,212)"/>
<path d="M0 0 C0.545 0.375 1.091 0.75 1.652 1.137 C8.825 6.004 16.207 10.204 24 14 C24 14.66 24 15.32 24 16 C16.284 15.649 8.562 12.304 2.895 7.047 C1.25 5.125 1.25 5.125 -1 2 C-0.67 1.34 -0.34 0.68 0 0 Z " fill="#FFFFFF" transform="translate(119,175)"/>
<path d="M0 0 C13.145 4.728 22.425 16.426 28.262 28.641 C29.206 30.749 30.122 32.863 31 35 C30.01 35 29.02 35 28 35 C27.563 33.948 27.563 33.948 27.117 32.875 C24.125 25.949 20.848 19.651 15.32 14.406 C14 13 14 13 14 11 C13.448 10.742 12.897 10.484 12.328 10.219 C9.657 8.82 7.231 7.212 4.75 5.5 C3.858 4.892 2.966 4.283 2.047 3.656 C1.371 3.11 0.696 2.563 0 2 C0 1.34 0 0.68 0 0 Z " fill="#000000" transform="translate(297,67)"/>
<path d="M0 0 C0.655 0.447 1.31 0.895 1.984 1.355 C8.715 5.814 15.455 9.143 23 12 C22.01 13.485 22.01 13.485 21 15 C15.946 14.488 12.651 12.887 8.375 10.188 C7.269 9.5 6.163 8.813 5.023 8.105 C2.353 6.246 0.197 4.385 -2 2 C-1.34 1.34 -0.68 0.68 0 0 Z " fill="#FFFFFF" transform="translate(125,166)"/>
<path d="M0 0 C0.66 0 1.32 0 2 0 C2.231 1.281 2.461 2.563 2.699 3.883 C5.45 18.683 8.379 31.967 18 44 C17.01 44 16.02 44 15 44 C4.903 33.831 0 14.123 0 0 Z " fill="#000000" transform="translate(299,94)"/>
<path d="M0 0 C3.125 2 3.125 2 5 4 C4.67 5.32 4.34 6.64 4 8 C2.35 8.33 0.7 8.66 -1 9 C-0.34 7.68 0.32 6.36 1 5 C-3.904 3.2 -3.904 3.2 -8.938 3.875 C-9.618 4.246 -10.299 4.617 -11 5 C-11 5.66 -11 6.32 -11 7 C-9.68 7.66 -8.36 8.32 -7 9 C-7 9.66 -7 10.32 -7 11 C-11.75 9.125 -11.75 9.125 -14 8 C-14.25 5.688 -14.25 5.688 -14 3 C-9.864 -0.975 -5.441 -0.835 0 0 Z " fill="#000000" transform="translate(173,557)"/>
<path d="M0 0 C-0.33 0.66 -0.66 1.32 -1 2 C-6.913 3.267 -12.296 3.205 -18 1 C-19.762 -0.578 -19.762 -0.578 -21 -2 C-13.626 -4.458 -6.927 -3.079 0 0 Z " fill="#FFFFFF" transform="translate(108,169)"/>
<path d="M0 0 C0.33 0 0.66 0 1 0 C1.483 6.759 -0.952 11.407 -5.348 16.484 C-11.031 21.698 -18.969 26.359 -26.812 26.125 C-27.603 26.107 -28.393 26.089 -29.207 26.07 C-29.799 26.047 -30.39 26.024 -31 26 C-28.128 24.452 -25.402 23.506 -22.25 22.688 C-14.202 20.309 -7.559 16.2 -3 9 C-1.755 6.053 -0.8 3.096 0 0 Z " fill="#000000" transform="translate(201,478)"/>
<path d="M0 0 C0.33 0 0.66 0 1 0 C1.112 0.926 1.112 0.926 1.227 1.871 C2.469 9.876 5.555 15.457 11.188 21.25 C15.569 23.976 20.262 25.975 25 28 C22.43 28.959 21.265 29.092 18.633 28.18 C9.421 23.387 3.737 18.905 0 9 C-0.657 6.227 -0.896 3.87 -1 1 C-0.67 0.67 -0.34 0.34 0 0 Z " fill="#000000" transform="translate(135,474)"/>
<path d="M0 0 C0 2 0 2 -1.188 3.312 C-2.591 4.619 -4.011 5.907 -5.438 7.188 C-8.469 10.515 -10.187 13.917 -12 18 C-12.66 18 -13.32 18 -14 18 C-13.143 9.429 -13.143 9.429 -11 6 C-10.34 6 -9.68 6 -9 6 C-9 5.34 -9 4.68 -9 4 C-2.25 0 -2.25 0 0 0 Z " fill="#121212" transform="translate(155,357)"/>
<path d="M0 0 C0.522 0.291 1.044 0.583 1.582 0.883 C7.702 4.291 13.846 7.653 20 11 C16.233 12.154 14.611 11.52 11 10 C10.01 10.495 10.01 10.495 9 11 C6.525 9.886 4.321 8.418 2 7 C2 6.01 2 5.02 2 4 C1.05 1.85 1.05 1.85 0 0 Z " fill="#FFFFFF" transform="translate(124,172)"/>
<path d="M0 0 C1.32 0.33 2.64 0.66 4 1 C3.523 2.459 3.043 3.917 2.562 5.375 C2.296 6.187 2.029 6.999 1.754 7.836 C1 10 1 10 0 12 C-0.99 12 -1.98 12 -3 12 C-2.938 13.031 -2.876 14.062 -2.812 15.125 C-3.011 19.235 -3.945 21.489 -6 25 C-7.32 24.34 -8.64 23.68 -10 23 C-9.175 22.299 -8.35 21.597 -7.5 20.875 C-4.696 18.214 -4.696 18.214 -4.688 14.688 C-4.791 13.801 -4.894 12.914 -5 12 C-4.072 11.722 -4.072 11.722 -3.125 11.438 C0.056 9.286 0.195 6.625 1 3 C0.34 3 -0.32 3 -1 3 C-0.67 2.01 -0.34 1.02 0 0 Z " fill="#FFFFFF" transform="translate(151,172)"/>
<path d="M0 0 C0.438 0.375 0.877 0.75 1.328 1.137 C7.063 5.764 13.134 8.414 20 11 C20 11.66 20 12.32 20 13 C12.178 12.652 8.043 10.713 2.125 5.438 C0 3 0 3 0 0 Z " fill="#FFFFFF" transform="translate(118,182)"/>
<path d="M0 0 C0.99 0.33 1.98 0.66 3 1 C3 5.62 3 10.24 3 15 C2.01 15 1.02 15 0 15 C0 12.03 0 9.06 0 6 C-0.99 6 -1.98 6 -3 6 C-3 3 -3 3 -1.5 1.312 C-0.757 0.663 -0.757 0.663 0 0 Z " fill="#000000" transform="translate(325,220)"/>
<path d="M0 0 C6.062 2.151 11.664 5.442 17 9 C15 10 15 10 13.062 9.5 C10.823 8.764 10.823 8.764 8 10 C5.957 9.004 5.957 9.004 3.812 7.562 C3.097 7.089 2.382 6.616 1.645 6.129 C1.102 5.756 0.559 5.384 0 5 C0.66 4.34 1.32 3.68 2 3 C1.34 2.67 0.68 2.34 0 2 C0 1.34 0 0.68 0 0 Z " fill="#FFFFFF" transform="translate(131,164)"/>
<path d="M0 0 C0 3.482 -0.926 4.805 -3.188 7.375 C-9.149 12.72 -16.053 15.7 -24 16 C-21.594 13.594 -19.559 12.993 -16.375 11.812 C-10.521 9.448 -6.397 6.476 -2 2 C-1.34 1.34 -0.68 0.68 0 0 Z " fill="#000000" transform="translate(201,393)"/>
<path d="M0 0 C0.33 0 0.66 0 1 0 C1.077 4.516 1.102 8.591 0 13 C0.949 13.309 1.897 13.619 2.875 13.938 C6 15 6 15 8 16 C7.67 16.66 7.34 17.32 7 18 C4.69 17.01 2.38 16.02 0 15 C0.33 15.99 0.66 16.98 1 18 C0.01 18.33 -0.98 18.66 -2 19 C-2.214 12.356 -1.512 6.468 0 0 Z " fill="#000000" transform="translate(115,194)"/>
<path d="M0 0 C1.65 0 3.3 0 5 0 C5.66 1.32 6.32 2.64 7 4 C4.771 4.48 2.542 4.959 0.312 5.438 C-0.929 5.704 -2.17 5.971 -3.449 6.246 C-6.296 6.851 -9.145 7.438 -12 8 C-10.68 7.34 -9.36 6.68 -8 6 C-8 5.34 -8 4.68 -8 4 C-4.535 3.505 -4.535 3.505 -1 3 C-0.67 2.01 -0.34 1.02 0 0 Z " fill="#424242" transform="translate(67,183)"/>
<path d="M0 0 C-0.33 2.97 -0.66 5.94 -1 9 C-3.97 8.01 -6.94 7.02 -10 6 C-2.8 0 -2.8 0 0 0 Z " fill="#FFFFFF" transform="translate(71,245)"/>
<path d="M0 0 C0.33 0.66 0.66 1.32 1 2 C-3.16 8.51 -8.116 13.38 -15 17 C-18.312 17.691 -18.312 17.691 -21 18 C-18.335 15.947 -15.613 14.136 -12.75 12.375 C-7.613 9.002 -3.862 4.735 0 0 Z " fill="#000000" transform="translate(205,503)"/>
<path d="M0 0 C2.64 0.99 5.28 1.98 8 3 C8 3.66 8 4.32 8 5 C1.25 9 1.25 9 -1 9 C-0.67 6.03 -0.34 3.06 0 0 Z " fill="#FFFFFF" transform="translate(112,233)"/>
<path d="M0 0 C3.624 1.578 6.314 3.822 9.312 6.375 C13.388 9.768 17.285 12.59 22 15 C19 16 19 16 16.582 14.848 C10.366 10.841 4.816 6.658 0 1 C0 0.67 0 0.34 0 0 Z " fill="#000000" transform="translate(29,279)"/>
<path d="M0 0 C0.66 0 1.32 0 2 0 C2 2.97 2 5.94 2 9 C3.65 9 5.3 9 7 9 C7 9.66 7 10.32 7 11 C4.69 11 2.38 11 0 11 C0 7.37 0 3.74 0 0 Z " fill="#000000" transform="translate(288,591)"/>
<path d="M0 0 C-1.14 3.421 -1.925 4.243 -5 6 C-7.25 5.688 -7.25 5.688 -9 5 C-8.67 4.01 -8.34 3.02 -8 2 C-5.274 0.898 -2.959 0 0 0 Z " fill="#000000" transform="translate(197,419)"/>
<path d="M0 0 C0 0.66 0 1.32 0 2 C0.99 2.33 1.98 2.66 3 3 C3 3.66 3 4.32 3 5 C0.831 4.494 -1 4 -3 3 C-3 3.66 -3 4.32 -3 5 C-4.65 5 -6.3 5 -8 5 C-3.375 0 -3.375 0 0 0 Z " fill="#FFFFFF" transform="translate(326,595)"/>
<path d="M0 0 C2.12 2.615 4.131 5.196 6 8 C4.02 8.99 4.02 8.99 2 10 C0.396 6.492 -0.22 3.856 0 0 Z " fill="#FFFFFF" transform="translate(26,261)"/>
<path d="M0 0 C0.66 0.33 1.32 0.66 2 1 C0.35 4.3 -1.3 7.6 -3 11 C-3.66 10.34 -4.32 9.68 -5 9 C-4.357 7.686 -3.71 6.374 -3.062 5.062 C-2.703 4.332 -2.343 3.601 -1.973 2.848 C-1 1 -1 1 0 0 Z " fill="#FFFFFF" transform="translate(151,188)"/>
</svg>
