<?xml version="1.0" encoding="UTF-8"?>
<!-- Generator: visioncortex VTracer 0.6.4 -->
<svg version="1.1" xmlns="http://www.w3.org/2000/svg" width="338" height="287">
<path d="M0 0 C111.54 0 223.08 0 338 0 C338 94.71 338 189.42 338 287 C226.46 287 114.92 287 0 287 C0 192.29 0 97.58 0 0 Z " fill="#FEFEFE" transform="translate(0,0)"/>
<path d="M0 0 C1.087 0.271 2.173 0.541 3.293 0.82 C14.783 3.743 26.088 7.205 37.372 10.836 C39.656 11.57 41.942 12.301 44.227 13.032 C49.508 14.721 54.786 16.422 60.062 18.125 C61.329 18.533 61.329 18.533 62.622 18.948 C106.66 33.137 106.66 33.137 111.438 39.5 C113.801 45.876 115.125 52.472 116.234 59.16 C116.553 61.009 116.872 62.858 117.19 64.707 C117.353 65.663 117.516 66.619 117.683 67.603 C120.265 82.746 122.984 97.85 126.188 112.875 C126.457 114.147 126.726 115.42 127.003 116.731 C128.73 124.71 130.748 132.583 132.889 140.46 C133.887 144.17 134.843 147.89 135.805 151.609 C141.719 174.473 141.719 174.473 148.635 197.047 C150.396 202.43 152.069 207.841 153.75 213.25 C154.1 214.359 154.45 215.468 154.811 216.61 C156.458 221.913 157.892 226.968 158.438 232.5 C153.482 233.707 150.517 233.128 145.75 231.438 C139.912 229.643 136.146 229.405 130.281 230.891 C119.073 233.29 108.04 230.235 97.125 227.75 C95.524 227.397 93.923 227.046 92.322 226.695 C83.673 224.783 75.116 222.672 66.599 220.238 C62.822 219.356 59.416 219.307 55.566 219.484 C52.309 219.508 49.514 218.507 46.438 217.5 C44.918 217.2 43.397 216.909 41.875 216.625 C36.543 215.466 32.993 212.828 28.875 209.312 C26.204 207.327 24.657 207.094 21.438 206.5 C19.89 206.001 18.353 205.469 16.828 204.906 C15.992 204.598 15.155 204.29 14.293 203.973 C13.433 203.652 12.573 203.331 11.688 203 C10.812 202.679 9.937 202.358 9.035 202.027 C2.569 199.631 2.569 199.631 1.438 198.5 C1.484 199.681 1.53 200.862 1.578 202.078 C1.616 203.635 1.652 205.193 1.688 206.75 C1.721 207.527 1.755 208.305 1.789 209.105 C1.802 209.86 1.815 210.614 1.828 211.391 C1.86 212.428 1.86 212.428 1.892 213.485 C1.222 216.456 -0.244 217.573 -2.562 219.5 C-6.533 221.866 -10.713 223.806 -14.875 225.812 C-15.991 226.375 -17.106 226.938 -18.256 227.518 C-28.452 232.456 -28.452 232.456 -34.562 230.5 C-35.487 230.214 -36.411 229.928 -37.363 229.633 C-38.607 229.134 -38.607 229.134 -39.875 228.625 C-40.717 228.298 -41.559 227.97 -42.426 227.633 C-44.562 226.5 -44.562 226.5 -46.562 223.5 C-46.688 220.812 -46.688 220.812 -46.562 218.5 C-47.553 218.17 -48.542 217.84 -49.562 217.5 C-49.562 216.18 -49.562 214.86 -49.562 213.5 C-48.903 213.17 -48.243 212.84 -47.562 212.5 C-47.645 211.593 -47.727 210.685 -47.812 209.75 C-47.562 206.5 -47.562 206.5 -46.125 204.312 C-42.55 201.784 -38.748 200.681 -34.562 199.5 C-34.562 197.52 -34.562 195.54 -34.562 193.5 C-30.602 191.52 -30.602 191.52 -26.562 189.5 C-30.78 187.576 -34.983 185.7 -39.324 184.074 C-39.982 183.824 -40.639 183.574 -41.316 183.317 C-42.621 182.824 -43.931 182.341 -45.244 181.871 C-49.67 180.185 -52.559 178.163 -55.562 174.5 C-55.562 173.51 -55.562 172.52 -55.562 171.5 C-56.305 171.438 -57.047 171.376 -57.812 171.312 C-61.43 170.244 -62.501 168.592 -64.562 165.5 C-65.495 162.702 -65.75 160.728 -65.879 157.816 C-65.942 156.432 -65.942 156.432 -66.006 155.02 C-66.045 154.044 -66.085 153.068 -66.125 152.062 C-66.189 150.579 -66.189 150.579 -66.254 149.066 C-66.533 142.206 -66.693 135.366 -66.562 128.5 C-67.143 128.728 -67.723 128.956 -68.32 129.191 C-73.379 131.053 -76.223 131.39 -81.562 130.5 C-84.655 131.27 -87.599 132.334 -90.562 133.5 C-90.356 134.572 -90.15 135.645 -89.938 136.75 C-89.562 140.5 -89.562 140.5 -90.125 142.812 C-92.378 145.457 -94.151 145.88 -97.562 146.5 C-102.065 146.2 -105.488 145.606 -108.688 142.312 C-109.803 138.726 -109.347 136.135 -108.562 132.5 C-107.572 132.17 -106.583 131.84 -105.562 131.5 C-105.129 130.541 -105.129 130.541 -104.688 129.562 C-103.562 127.5 -103.562 127.5 -101.312 126.062 C-97.484 125.279 -95.787 126.422 -92.562 128.5 C-91.903 129.49 -91.243 130.48 -90.562 131.5 C-87.263 130.51 -83.963 129.52 -80.562 128.5 C-80.233 126.85 -79.903 125.2 -79.562 123.5 C-77.785 122.137 -77.785 122.137 -75.625 121.188 C-74.915 120.861 -74.204 120.535 -73.473 120.199 C-71.562 119.5 -71.562 119.5 -69.562 119.5 C-69.377 118.324 -69.377 118.324 -69.188 117.125 C-68.562 114.5 -68.562 114.5 -66.562 112.5 C-66.25 109.554 -66.25 109.554 -66.297 106.102 C-66.294 104.818 -66.292 103.534 -66.289 102.211 C-66.293 101.54 -66.297 100.87 -66.302 100.179 C-66.312 98.14 -66.302 96.102 -66.289 94.062 C-66.292 92.776 -66.294 91.49 -66.297 90.164 C-66.299 88.983 -66.301 87.802 -66.304 86.584 C-66.554 83.597 -67.101 82.052 -68.562 79.5 C-68.863 76.844 -68.863 76.844 -68.875 74 C-68.892 73.062 -68.909 72.123 -68.926 71.156 C-68.51 68.117 -67.582 66.759 -65.562 64.5 C-65.892 64.17 -66.222 63.84 -66.562 63.5 C-66.604 61.541 -66.573 59.58 -66.512 57.621 C-66.474 56.397 -66.436 55.172 -66.397 53.91 C-66.349 52.599 -66.3 51.288 -66.25 49.938 C-66.226 49.277 -66.201 48.617 -66.176 47.936 C-65.091 19.205 -65.091 19.205 -59.562 12.5 C-56.707 10.629 -56.707 10.629 -53.375 9.062 C-52.775 8.778 -52.175 8.494 -51.557 8.201 C-49.57 7.274 -47.57 6.382 -45.562 5.5 C-44.831 5.178 -44.099 4.856 -43.345 4.524 C-41.09 3.542 -38.829 2.579 -36.562 1.625 C-35.857 1.327 -35.152 1.028 -34.425 0.721 C-22.911 -3.987 -11.846 -3.028 0 0 Z " fill="#FCFCFC" transform="translate(146.5625,20.5)"/>
<path d="M0 0 C1.087 0.271 2.173 0.541 3.293 0.82 C14.783 3.743 26.088 7.205 37.372 10.836 C39.656 11.57 41.942 12.301 44.227 13.032 C49.508 14.721 54.786 16.422 60.062 18.125 C61.329 18.533 61.329 18.533 62.622 18.948 C106.66 33.137 106.66 33.137 111.438 39.5 C113.801 45.876 115.125 52.472 116.234 59.16 C116.553 61.009 116.872 62.858 117.19 64.707 C117.353 65.663 117.516 66.619 117.683 67.603 C120.265 82.746 122.984 97.85 126.188 112.875 C126.457 114.147 126.726 115.42 127.003 116.731 C128.73 124.71 130.748 132.583 132.889 140.46 C133.887 144.17 134.843 147.89 135.805 151.609 C141.719 174.473 141.719 174.473 148.635 197.047 C150.396 202.43 152.069 207.841 153.75 213.25 C154.1 214.359 154.45 215.468 154.811 216.61 C156.458 221.913 157.892 226.968 158.438 232.5 C153.482 233.707 150.517 233.128 145.75 231.438 C139.912 229.643 136.146 229.405 130.281 230.891 C119.073 233.29 108.04 230.235 97.125 227.75 C95.524 227.397 93.923 227.046 92.322 226.695 C83.673 224.783 75.116 222.672 66.599 220.238 C62.822 219.356 59.416 219.307 55.566 219.484 C52.309 219.508 49.514 218.507 46.438 217.5 C44.918 217.2 43.397 216.909 41.875 216.625 C36.543 215.466 32.993 212.828 28.875 209.312 C26.204 207.327 24.657 207.094 21.438 206.5 C19.89 206.001 18.353 205.469 16.828 204.906 C15.992 204.598 15.155 204.29 14.293 203.973 C13.433 203.652 12.573 203.331 11.688 203 C10.812 202.679 9.937 202.358 9.035 202.027 C2.569 199.631 2.569 199.631 1.438 198.5 C1.484 199.681 1.53 200.862 1.578 202.078 C1.616 203.635 1.652 205.193 1.688 206.75 C1.721 207.527 1.755 208.305 1.789 209.105 C1.802 209.86 1.815 210.614 1.828 211.391 C1.86 212.428 1.86 212.428 1.892 213.485 C1.222 216.456 -0.244 217.573 -2.562 219.5 C-6.533 221.866 -10.713 223.806 -14.875 225.812 C-15.991 226.375 -17.106 226.938 -18.256 227.518 C-28.452 232.456 -28.452 232.456 -34.562 230.5 C-35.487 230.214 -36.411 229.928 -37.363 229.633 C-38.607 229.134 -38.607 229.134 -39.875 228.625 C-40.717 228.298 -41.559 227.97 -42.426 227.633 C-44.562 226.5 -44.562 226.5 -46.562 223.5 C-46.688 220.812 -46.688 220.812 -46.562 218.5 C-47.553 218.17 -48.542 217.84 -49.562 217.5 C-49.562 216.18 -49.562 214.86 -49.562 213.5 C-48.903 213.17 -48.243 212.84 -47.562 212.5 C-47.645 211.593 -47.727 210.685 -47.812 209.75 C-47.562 206.5 -47.562 206.5 -46.125 204.312 C-42.55 201.784 -38.748 200.681 -34.562 199.5 C-34.562 197.52 -34.562 195.54 -34.562 193.5 C-30.602 191.52 -30.602 191.52 -26.562 189.5 C-30.78 187.576 -34.983 185.7 -39.324 184.074 C-39.982 183.824 -40.639 183.574 -41.316 183.317 C-42.621 182.824 -43.931 182.341 -45.244 181.871 C-49.67 180.185 -52.559 178.163 -55.562 174.5 C-55.562 173.51 -55.562 172.52 -55.562 171.5 C-56.305 171.438 -57.047 171.376 -57.812 171.312 C-61.43 170.244 -62.501 168.592 -64.562 165.5 C-65.495 162.702 -65.75 160.728 -65.879 157.816 C-65.942 156.432 -65.942 156.432 -66.006 155.02 C-66.045 154.044 -66.085 153.068 -66.125 152.062 C-66.189 150.579 -66.189 150.579 -66.254 149.066 C-66.533 142.206 -66.693 135.366 -66.562 128.5 C-67.143 128.728 -67.723 128.956 -68.32 129.191 C-73.379 131.053 -76.223 131.39 -81.562 130.5 C-84.655 131.27 -87.599 132.334 -90.562 133.5 C-90.356 134.572 -90.15 135.645 -89.938 136.75 C-89.562 140.5 -89.562 140.5 -90.125 142.812 C-92.378 145.457 -94.151 145.88 -97.562 146.5 C-102.065 146.2 -105.488 145.606 -108.688 142.312 C-109.803 138.726 -109.347 136.135 -108.562 132.5 C-107.572 132.17 -106.583 131.84 -105.562 131.5 C-105.129 130.541 -105.129 130.541 -104.688 129.562 C-103.562 127.5 -103.562 127.5 -101.312 126.062 C-97.484 125.279 -95.787 126.422 -92.562 128.5 C-91.903 129.49 -91.243 130.48 -90.562 131.5 C-87.263 130.51 -83.963 129.52 -80.562 128.5 C-80.233 126.85 -79.903 125.2 -79.562 123.5 C-77.785 122.137 -77.785 122.137 -75.625 121.188 C-74.915 120.861 -74.204 120.535 -73.473 120.199 C-71.562 119.5 -71.562 119.5 -69.562 119.5 C-69.377 118.324 -69.377 118.324 -69.188 117.125 C-68.562 114.5 -68.562 114.5 -66.562 112.5 C-66.25 109.554 -66.25 109.554 -66.297 106.102 C-66.294 104.818 -66.292 103.534 -66.289 102.211 C-66.293 101.54 -66.297 100.87 -66.302 100.179 C-66.312 98.14 -66.302 96.102 -66.289 94.062 C-66.292 92.776 -66.294 91.49 -66.297 90.164 C-66.299 88.983 -66.301 87.802 -66.304 86.584 C-66.554 83.597 -67.101 82.052 -68.562 79.5 C-68.863 76.844 -68.863 76.844 -68.875 74 C-68.892 73.062 -68.909 72.123 -68.926 71.156 C-68.51 68.117 -67.582 66.759 -65.562 64.5 C-65.892 64.17 -66.222 63.84 -66.562 63.5 C-66.604 61.541 -66.573 59.58 -66.512 57.621 C-66.474 56.397 -66.436 55.172 -66.397 53.91 C-66.349 52.599 -66.3 51.288 -66.25 49.938 C-66.226 49.277 -66.201 48.617 -66.176 47.936 C-65.091 19.205 -65.091 19.205 -59.562 12.5 C-56.707 10.629 -56.707 10.629 -53.375 9.062 C-52.775 8.778 -52.175 8.494 -51.557 8.201 C-49.57 7.274 -47.57 6.382 -45.562 5.5 C-44.831 5.178 -44.099 4.856 -43.345 4.524 C-41.09 3.542 -38.829 2.579 -36.562 1.625 C-35.857 1.327 -35.152 1.028 -34.425 0.721 C-22.911 -3.987 -11.846 -3.028 0 0 Z M-46.562 14.5 C-46.562 15.16 -46.562 15.82 -46.562 16.5 C-47.553 16.83 -48.543 17.16 -49.562 17.5 C-55.033 29.073 -53.684 43.066 -53.562 55.5 C-49.483 54.198 -49.483 54.198 -45.562 52.5 C-44.892 50.669 -44.3 48.808 -43.75 46.938 C-40.953 38.225 -37.535 31.728 -29.25 27.25 C-28.693 27.002 -28.136 26.755 -27.562 26.5 C-33.043 26.164 -36.729 26.855 -41.562 29.5 C-46.228 34.165 -47.667 38.897 -47.688 45.375 C-47.656 46.75 -47.617 48.125 -47.562 49.5 C-48.222 49.5 -48.882 49.5 -49.562 49.5 C-48.418 41.305 -47.182 33.943 -41 28.062 C-36.402 25.115 -31.88 24.821 -26.562 25.5 C-11.231 30.04 -3.008 39.557 4.82 52.848 C8.084 59.314 8.667 66.377 9.438 73.5 C9.267 72.666 9.097 71.832 8.922 70.973 C5.828 56.607 -0.686 40.919 -13.562 32.5 C-14.553 32.995 -14.553 32.995 -15.562 33.5 C-13.583 35.81 -11.602 38.12 -9.562 40.5 C-10.166 39.946 -10.769 39.391 -11.391 38.82 C-12.19 38.096 -12.989 37.371 -13.812 36.625 C-14.601 35.906 -15.39 35.186 -16.203 34.445 C-20.155 31.187 -22.68 30.24 -27.812 30.375 C-29.151 30.402 -29.151 30.402 -30.516 30.43 C-31.191 30.453 -31.867 30.476 -32.562 30.5 C-33.222 32.81 -33.882 35.12 -34.562 37.5 C-34.562 36.84 -34.562 36.18 -34.562 35.5 C-34.892 34.51 -35.222 33.52 -35.562 32.5 C-39.493 37.693 -43.562 44.839 -43.562 51.5 C-42.387 51.541 -41.211 51.583 -40 51.625 C-34.89 52.277 -31.844 54.618 -28.562 58.5 C-25.027 65.099 -24.415 71.11 -24.562 78.5 C-25.058 78.005 -25.058 78.005 -25.562 77.5 C-25.503 76.02 -25.414 74.541 -25.312 73.062 C-25.254 66.201 -27.808 61.115 -31.914 55.727 C-33.984 53.634 -35.863 52.555 -38.805 52.324 C-43.134 52.644 -46.394 53.332 -49.562 56.5 C-48.511 57.119 -47.459 57.737 -46.375 58.375 C-41.65 61.823 -39.187 65.905 -37.562 71.5 C-37.289 75.241 -37.305 78.848 -37.484 82.594 C-37.789 85.439 -37.789 85.439 -36.562 87.5 C-42.603 89.771 -48.126 90.989 -54.562 91.5 C-52.393 97.286 -49.415 101.696 -45.562 106.5 C-44.629 107.732 -44.629 107.732 -43.676 108.988 C-41.518 111.553 -39.316 113.489 -36.688 115.562 C-32.007 119.312 -27.42 123.15 -22.875 127.062 C-21.938 127.868 -21.938 127.868 -20.983 128.69 C-19.509 129.959 -18.035 131.229 -16.562 132.5 C-14.495 130.005 -12.662 127.689 -11.152 124.812 C-9.116 121.851 -7.518 121.531 -4.125 120.5 C-0.304 118.936 1.098 118.208 2.906 114.434 C3.536 112.162 4.091 109.869 4.559 107.559 C5.54 104.143 6.751 102.757 9.438 100.5 C8.788 101.747 8.788 101.747 8.125 103.02 C7.29 104.65 7.29 104.65 6.438 106.312 C5.881 107.391 5.324 108.47 4.75 109.582 C3.232 112.423 3.232 112.423 3.438 115.5 C4.077 115.335 4.716 115.17 5.375 115 C11.154 114.056 15.589 113.384 20.75 116.5 C26.011 121.717 28.044 127.883 28.457 135.176 C28.429 138.528 28.14 140.573 26.438 143.5 C23.907 145.443 21.259 147.017 18.438 148.5 C24.822 152.757 30.847 154.319 38.438 153.5 C39.097 153.17 39.757 152.84 40.438 152.5 C40.438 151.84 40.438 151.18 40.438 150.5 C41.097 150.5 41.757 150.5 42.438 150.5 C47.582 142.943 47.525 134.329 46.438 125.5 C45.45 121.634 44.174 118.089 42.438 114.5 C40.787 114.5 39.137 114.5 37.438 114.5 C37.706 113.469 37.974 112.438 38.25 111.375 C38.808 107.437 38.808 107.437 36.5 104.375 C33.336 101.068 29.524 98.539 25.438 96.5 C24.778 96.5 24.118 96.5 23.438 96.5 C23.438 95.84 23.438 95.18 23.438 94.5 C34.95 100.804 34.95 100.804 38.438 106.5 C38.75 110.375 38.75 110.375 38.438 113.5 C39.201 113.5 39.964 113.5 40.75 113.5 C43.438 114.5 43.438 114.5 44.402 116.137 C48.5 126.839 48.462 137.415 45.094 148.285 C44.343 150.435 44.343 150.435 44.438 152.5 C42.787 153.16 41.137 153.82 39.438 154.5 C42.487 155.511 42.487 155.511 45.438 154.5 C45.438 155.16 45.438 155.82 45.438 156.5 C36.113 157.258 26.986 155.311 18.938 150.438 C12.983 148.843 7.856 151.998 2.438 154.5 C3.076 157.565 3.076 157.565 5.18 158.422 C5.884 158.695 6.587 158.968 7.312 159.25 C10.611 160.814 11.331 161.316 13.25 164.625 C13.68 165.906 14.072 167.2 14.438 168.5 C14.713 169.383 14.989 170.266 15.273 171.176 C16.024 173.61 16.742 176.05 17.438 178.5 C18.052 178.295 18.667 178.09 19.301 177.879 C22.68 176.753 26.059 175.626 29.438 174.5 C30.646 172.5 30.646 172.5 31.438 170.5 C34.625 170.125 34.625 170.125 38.438 170.5 C43.705 174.949 44.556 179.844 45.438 186.5 C47.383 185.791 49.318 185.057 51.25 184.312 C52.329 183.906 53.408 183.5 54.52 183.082 C59.485 180.39 60.6 176.361 62.188 171.188 C64.574 164.368 68.435 159.502 74.438 155.5 C69.153 155.629 64.709 155.953 60.656 159.758 C58.211 163.253 57.348 167.385 56.438 171.5 C57.397 165.057 58.732 161.093 63.438 156.5 C68.349 153.413 73.846 153.923 79.438 154.5 C82.692 155.458 85.504 156.809 88.438 158.5 C89.428 159.057 90.417 159.614 91.438 160.188 C103.165 169.227 110.396 179.928 113.438 194.5 C114.2 201.626 113.809 207.162 110.438 213.5 C110.107 214.49 109.778 215.48 109.438 216.5 C102.821 220.089 95.5 220.593 88.344 218.668 C80.77 216.214 80.77 216.214 77.301 214.355 C74.197 212.93 71.675 213.748 68.438 214.5 C66.255 215.985 66.255 215.985 64.438 217.5 C74.658 220.305 84.916 222.859 95.248 225.22 C97.596 225.758 99.943 226.305 102.289 226.852 C103.799 227.198 105.31 227.545 106.82 227.891 C107.513 228.053 108.206 228.216 108.919 228.383 C114.137 229.584 114.137 229.584 119.438 229.5 C121.626 226.217 121.644 225.792 121.125 222.125 C121.017 221.335 120.908 220.545 120.797 219.73 C120.406 217.305 119.979 214.897 119.438 212.5 C121.449 218.284 121.658 223.402 121.438 229.5 C126.856 229.726 131.212 228.967 136.438 227.5 C135.678 226.667 134.919 225.835 134.137 224.977 C131.331 221.586 129.706 218.002 128.25 213.875 C127.964 213.076 127.677 212.278 127.383 211.455 C111.334 165.088 102.558 115.777 95.39 67.364 C94.254 59.699 93.06 52.081 91.438 44.5 C92.097 44.5 92.757 44.5 93.438 44.5 C93.485 45.264 93.533 46.029 93.582 46.816 C94.175 55.448 95.243 63.952 96.562 72.5 C96.67 73.202 96.777 73.903 96.888 74.626 C100.627 98.965 105.414 123.111 110.562 147.188 C110.721 147.933 110.879 148.679 111.041 149.447 C113.414 160.594 116.284 171.549 119.438 182.5 C119.966 184.351 119.966 184.351 120.504 186.24 C121.47 189.601 122.451 192.957 123.438 196.312 C123.755 197.41 124.072 198.508 124.398 199.639 C126.075 205.336 127.877 210.981 129.875 216.574 C130.43 218.136 130.43 218.136 130.996 219.729 C132.658 222.924 134.507 224.459 137.438 226.5 C142.333 224.623 142.333 224.623 146.438 221.5 C146.724 217.355 146.724 217.355 145.438 213.5 C146.097 213.5 146.757 213.5 147.438 213.5 C147.768 214.49 148.097 215.48 148.438 216.5 C147.804 211.175 146.626 206.24 145.102 201.105 C144.615 199.433 144.128 197.76 143.642 196.087 C143.384 195.209 143.127 194.331 142.862 193.426 C132.632 158.405 123.553 123.289 116.438 87.5 C116.033 85.479 115.628 83.458 115.223 81.438 C114.961 80.125 114.699 78.813 114.438 77.5 C114.107 77.5 113.778 77.5 113.438 77.5 C113.905 87.404 115.792 96.857 117.938 106.5 C118.114 107.301 118.29 108.102 118.471 108.927 C123.986 134.004 130.312 158.843 137.25 183.562 C137.481 184.388 137.712 185.213 137.949 186.064 C140.458 195.006 143.059 203.838 146.438 212.5 C145.778 212.5 145.118 212.5 144.438 212.5 C144.334 211.56 144.231 210.621 144.125 209.652 C143.404 204.645 141.897 199.896 140.438 195.062 C139.801 192.912 139.166 190.761 138.531 188.609 C138.192 187.461 137.853 186.314 137.504 185.131 C131.217 163.726 125.401 142.256 120.438 120.5 C120.173 119.346 119.909 118.192 119.637 117.002 C115.787 100.018 112.725 82.97 109.965 65.781 C109.246 61.309 108.511 56.84 107.75 52.375 C107.54 51.114 107.33 49.854 107.113 48.555 C106.512 45.835 105.995 43.8 104.438 41.5 C100.313 40.125 97.844 41.471 93.812 42.809 C83.675 44.885 74.053 42.637 64.16 40.352 C62.68 40.019 61.201 39.687 59.72 39.356 C55.788 38.474 51.858 37.578 47.929 36.679 C43.863 35.752 39.795 34.838 35.726 33.924 C21.549 30.731 7.384 27.49 -6.781 24.246 C-7.813 24.01 -8.845 23.774 -9.908 23.531 C-14.533 22.473 -19.158 21.41 -23.779 20.333 C-25.383 19.962 -26.986 19.593 -28.59 19.223 C-29.621 18.978 -29.621 18.978 -30.673 18.729 C-35.044 17.728 -39.314 17.174 -43.776 16.854 C-44.366 16.737 -44.955 16.62 -45.562 16.5 C-45.892 15.84 -46.222 15.18 -46.562 14.5 Z " fill="#2B2B2B" transform="translate(146.5625,20.5)"/>
<path d="M0 0 C7.085 -0.799 11.261 0.112 16.992 4.395 C17.655 4.924 18.317 5.454 19 6 C20.332 7.002 21.665 8.003 23 9 C21.02 6.69 19.04 4.38 17 2 C27.405 7.202 33.428 16.535 38 27 C38.342 27.768 38.683 28.537 39.035 29.328 C40.131 32.364 40.651 35.246 41.125 38.438 C41.376 40.075 41.376 40.075 41.633 41.746 C41.985 44.864 42.066 47.865 42 51 C45.135 49.883 48.126 48.689 51 47 C51.454 46.031 51.907 45.061 52.375 44.062 C54.985 39.144 59.906 37.802 65 36 C65.66 36 66.32 36 67 36 C67.227 35.196 67.454 34.391 67.688 33.562 C69 31 69 31 71.312 30 C75.647 30 77.952 32.132 81.188 34.812 C83.821 37.991 85.036 40.879 84.965 45.059 C84.596 48.709 84.054 50.919 82 54 C78.699 55.016 77.328 55.109 74 54 C71.531 54.806 71.531 54.806 68.875 56 C64.095 57.864 60.867 58.247 55.875 57.164 C53.662 56.774 53.662 56.774 51 59 C51.909 59.203 51.909 59.203 52.836 59.41 C65.255 62.601 74.598 70.742 81.566 81.395 C82.804 83.564 83.932 85.743 85 88 C85.307 88.641 85.614 89.281 85.93 89.941 C89.549 97.92 91.014 108.616 87.875 117 C85.598 120.644 83.66 122.721 80 125 C77.189 125.395 74.858 125.246 72 125 C75 123 75 123 77 122 C77.379 120.008 77.703 118.006 78 116 C78.351 114.948 78.701 113.896 79.062 112.812 C81.571 102.611 79.397 93.707 76 84 C74.35 83.67 72.7 83.34 71 83 C71.103 81.969 71.206 80.938 71.312 79.875 C71 75.999 70.41 74.319 67.777 71.488 C64.186 68.481 60.096 66.243 56 64 C56 64.66 56 65.32 56 66 C56.866 66.227 57.733 66.454 58.625 66.688 C63.49 68.58 66.705 71.371 69.938 75.438 C71.281 78.677 70.856 80.652 70 84 C71.65 84 73.3 84 75 84 C79.532 93.367 81.289 104.757 78.094 114.867 C77 117.062 77 117.062 75 120 C74.34 120 73.68 120 73 120 C73 120.66 73 121.32 73 122 C68.597 124.201 63.522 123.448 58.961 122.105 C56.281 121.125 53.632 120.102 51 119 C52.83 117.063 54.152 115.922 56.562 114.688 C59.165 113.16 59.165 113.16 60.375 110.438 C61.78 102.712 60.489 95.489 56 89 C53.742 86.171 51.503 84.228 47.789 83.664 C43.769 83.597 39.902 83.993 36 85 C36.628 81.051 37.865 77.801 39.562 74.188 C40.018 73.212 40.473 72.236 40.941 71.23 C41.465 70.126 41.465 70.126 42 69 C38.595 72.747 37.444 75.579 36.438 80.5 C34.746 86.519 34.746 86.519 31.512 88.605 C29.588 89.327 27.652 90.018 25.707 90.68 C20.975 92.988 19.13 97.371 17 102 C11.521 98.087 6.399 93.841 1.312 89.438 C0.671 88.884 0.03 88.33 -0.631 87.759 C-9.287 80.22 -17.339 72.628 -22 62 C-22 61.67 -22 61.34 -22 61 C-21.203 60.879 -20.407 60.758 -19.586 60.633 C-11.655 59.381 -11.655 59.381 -4 57 C-4.17 56.456 -4.34 55.912 -4.516 55.352 C-5.085 52.587 -4.913 50.191 -4.75 47.375 C-4.711 40.928 -6.158 36.202 -10 31 C-12.248 28.943 -14.353 27.557 -17 26 C-13.865 22.865 -10.606 22.086 -6.312 21.754 C-2.784 22.129 -0.964 23.591 1.492 26.07 C6.152 32.034 7.471 37.54 7.043 45.031 C7.022 46.006 7.022 46.006 7 47 C7.495 47.495 7.495 47.495 8 48 C8.449 39.925 7.332 32.455 2.125 26 C-1.191 22.521 -3.963 21.091 -8.812 20.875 C-9.534 20.916 -10.256 20.957 -11 21 C-9.797 13.542 -7.164 8.272 -3 2 C-2.67 2.99 -2.34 3.98 -2 5 C-1.34 3.35 -0.68 1.7 0 0 Z " fill="#242424" transform="translate(114,51)"/>
<path d="M0 0 C1.63 0.406 1.63 0.406 3.293 0.82 C14.783 3.743 26.088 7.205 37.372 10.836 C39.656 11.57 41.942 12.301 44.227 13.032 C49.508 14.721 54.786 16.422 60.062 18.125 C60.907 18.397 61.752 18.668 62.622 18.948 C106.66 33.137 106.66 33.137 111.438 39.5 C113.801 45.876 115.125 52.472 116.234 59.16 C116.553 61.009 116.872 62.858 117.19 64.707 C117.353 65.663 117.516 66.619 117.683 67.603 C120.265 82.746 122.984 97.85 126.188 112.875 C126.457 114.147 126.726 115.42 127.003 116.731 C128.73 124.71 130.748 132.583 132.889 140.46 C133.887 144.17 134.843 147.89 135.805 151.609 C141.719 174.473 141.719 174.473 148.635 197.047 C150.396 202.43 152.069 207.841 153.75 213.25 C154.1 214.359 154.45 215.468 154.811 216.61 C156.458 221.913 157.892 226.968 158.438 232.5 C153.482 233.707 150.517 233.128 145.75 231.438 C139.913 229.643 136.146 229.405 130.282 230.892 C119.159 233.271 108.208 230.283 97.375 227.812 C95.724 227.445 94.073 227.079 92.421 226.713 C81.356 224.244 70.344 221.603 59.438 218.5 C60.463 216.801 61.488 215.102 62.514 213.404 C64.581 209.143 63.995 205.227 62.602 200.91 C61.075 197.002 59.341 193.238 57.438 189.5 C64.423 195.73 65.707 201.353 66.324 210.34 C66.38 211.409 66.38 211.409 66.438 212.5 C68.413 208.549 67.884 203.804 67.438 199.5 C66.365 196.583 65.01 194.203 63.438 191.5 C63.438 190.84 63.438 190.18 63.438 189.5 C62.819 189.191 62.2 188.881 61.562 188.562 C60.188 187.875 58.812 187.188 57.438 186.5 C57.438 185.84 57.438 185.18 57.438 184.5 C62.279 186.472 65.37 189.86 68.188 194.188 C70.311 199.814 70.438 205.531 70.438 211.5 C75.865 209.316 75.865 209.316 80 205.375 C81.089 198.222 80.061 192.154 75.898 186.188 C72.776 182.581 68.713 180.473 64.438 178.5 C67.601 177.946 69.706 178.054 72.477 179.742 C78.293 184.469 81.79 189.576 82.777 197.086 C82.972 202.273 82.388 206.075 79.438 210.5 C78.778 210.83 78.118 211.16 77.438 211.5 C83.552 214.947 89.574 217.548 96.703 216.012 C97.275 215.843 97.848 215.674 98.438 215.5 C98.438 214.84 98.438 214.18 98.438 213.5 C99.097 213.5 99.757 213.5 100.438 213.5 C105.289 201.574 103.789 190.689 100.438 178.5 C98.787 178.17 97.137 177.84 95.438 177.5 C95.438 176.18 95.438 174.86 95.438 173.5 C95.768 174.49 96.097 175.48 96.438 176.5 C98.088 176.5 99.738 176.5 101.438 176.5 C106.629 187.592 107.996 197.689 104.191 209.434 C103.437 211.5 103.437 211.5 102.438 213.5 C103.097 213.5 103.757 213.5 104.438 213.5 C104.438 214.16 104.438 214.82 104.438 215.5 C102.458 216.49 102.458 216.49 100.438 217.5 C101.757 217.5 103.077 217.5 104.438 217.5 C104.438 218.16 104.438 218.82 104.438 219.5 C94.991 222.094 85.863 219.966 77.309 215.352 C74.234 213.952 71.64 214.788 68.438 215.5 C67.778 216.16 67.118 216.82 66.438 217.5 C76.435 219.846 86.435 222.178 96.438 224.5 C97.463 224.739 98.488 224.978 99.544 225.224 C102.028 225.801 104.514 226.371 107 226.938 C107.699 227.101 108.398 227.264 109.119 227.433 C112.621 228.221 115.846 228.672 119.438 228.5 C120.784 222.867 120.012 219.253 118.031 213.832 C117.383 211.285 117.581 209.951 118.438 207.5 C121.182 214.741 122.955 220.732 122.438 228.5 C124.063 228.359 125.688 228.212 127.312 228.062 C128.67 227.941 128.67 227.941 130.055 227.816 C132.449 227.63 132.449 227.63 134.438 226.5 C133.842 225.831 133.246 225.162 132.633 224.473 C130.166 221.133 128.707 217.807 127.312 213.938 C126.876 212.733 126.876 212.733 126.431 211.504 C110.79 166.742 102.257 119.057 95.062 72.312 C94.935 71.485 94.807 70.657 94.676 69.804 C93.387 61.387 92.171 52.988 91.438 44.5 C92.097 44.5 92.757 44.5 93.438 44.5 C93.583 45.513 93.728 46.525 93.877 47.569 C98.572 80.188 104.221 112.512 111.062 144.75 C111.245 145.614 111.427 146.478 111.614 147.368 C114.121 159.216 117.069 170.869 120.438 182.5 C120.789 183.731 121.14 184.962 121.502 186.23 C122.468 189.595 123.45 192.954 124.438 196.312 C124.755 197.41 125.072 198.508 125.398 199.639 C127.08 205.354 128.884 211.021 130.875 216.637 C131.43 218.216 131.43 218.216 131.996 219.827 C133.715 223.014 135.111 224.119 138.438 225.5 C141.135 224.462 143.37 223.568 145.438 221.5 C145.509 220.148 145.521 218.792 145.5 217.438 C145.469 215.488 145.469 215.488 145.438 213.5 C146.097 213.17 146.757 212.84 147.438 212.5 C147.07 211.277 147.07 211.277 146.694 210.03 C135.538 172.831 125.606 135.472 117.438 97.5 C117.209 96.438 117.209 96.438 116.976 95.354 C116.126 91.403 115.28 87.452 114.438 83.5 C122.274 124.614 132.424 165.273 144.864 205.249 C146.438 210.318 146.438 210.318 146.438 212.5 C145.778 212.5 145.118 212.5 144.438 212.5 C135.25 182.061 126.5 151.509 119.438 120.5 C119.175 119.352 118.912 118.203 118.642 117.02 C114.79 100.031 111.728 82.98 108.969 65.785 C108.241 61.288 107.476 56.799 106.688 52.312 C106.466 51.04 106.244 49.768 106.016 48.457 C105.495 45.459 105.495 45.459 104.438 42.5 C100.313 41.125 97.844 42.471 93.812 43.809 C83.675 45.885 74.053 43.637 64.16 41.352 C62.681 41.019 61.201 40.687 59.721 40.356 C55.788 39.474 51.858 38.578 47.929 37.679 C43.863 36.751 39.793 35.837 35.724 34.921 C27.737 33.122 19.754 31.307 11.772 29.488 C5.6 28.081 -0.573 26.681 -6.746 25.281 C-13.216 23.813 -19.685 22.34 -26.152 20.855 C-28.361 20.35 -30.572 19.852 -32.784 19.356 C-35.123 18.826 -37.459 18.277 -39.786 17.698 C-40.684 17.486 -41.582 17.273 -42.508 17.055 C-43.238 16.871 -43.967 16.688 -44.719 16.5 C-46.667 16.316 -46.667 16.316 -48.246 17.76 C-53.035 24.089 -52.221 34.48 -52.688 42 C-52.774 43.299 -52.86 44.599 -52.949 45.938 C-53.16 49.125 -53.364 52.312 -53.562 55.5 C-52.614 55.005 -51.665 54.51 -50.688 54 C-47.562 52.5 -47.562 52.5 -45.562 52.5 C-45.476 51.883 -45.39 51.265 -45.301 50.629 C-43.624 40.52 -39.861 33.598 -31.562 27.5 C-36.818 27.912 -39.934 28.57 -43.562 32.5 C-46.464 37.843 -47.16 43.511 -47.562 49.5 C-48.222 49.5 -48.882 49.5 -49.562 49.5 C-50.062 42.752 -48.959 37.415 -45.562 31.5 C-41.425 26.845 -37.913 24.724 -31.625 24.125 C-21.219 24.294 -11.67 30.253 -4.562 37.5 C4.192 48.405 9.944 59.204 10.438 73.5 C9.778 74.16 9.118 74.82 8.438 75.5 C8.34 74.666 8.242 73.832 8.141 72.973 C7.192 65.83 5.9 59.827 2.438 53.5 C1.97 52.643 1.502 51.786 1.02 50.902 C-1.745 46.077 -4.533 42.3 -8.562 38.5 C-8.892 37.51 -9.222 36.52 -9.562 35.5 C-11.578 34.767 -11.578 34.767 -13.562 34.5 C-11.912 36.15 -10.262 37.8 -8.562 39.5 C-9.058 40.49 -9.058 40.49 -9.562 41.5 C-10.166 40.946 -10.769 40.391 -11.391 39.82 C-12.19 39.096 -12.989 38.371 -13.812 37.625 C-14.996 36.546 -14.996 36.546 -16.203 35.445 C-20.04 32.282 -22.866 31.265 -27.812 30.875 C-28.705 30.8 -29.597 30.725 -30.516 30.648 C-31.191 30.599 -31.867 30.55 -32.562 30.5 C-32.892 32.81 -33.222 35.12 -33.562 37.5 C-35.543 37.995 -35.543 37.995 -37.562 38.5 C-36.572 38.005 -36.572 38.005 -35.562 37.5 C-35.562 36.51 -35.562 35.52 -35.562 34.5 C-38.361 37.815 -39.751 41.198 -41.25 45.25 C-41.687 46.42 -42.124 47.591 -42.574 48.797 C-42.9 49.689 -43.226 50.581 -43.562 51.5 C-42.798 51.314 -42.034 51.129 -41.246 50.938 C-37.388 50.308 -35.813 51.377 -32.562 53.5 C-27.251 58.154 -24.644 63.546 -23.562 70.5 C-23.617 73.317 -23.997 75.723 -24.562 78.5 C-25.552 78.005 -25.552 78.005 -26.562 77.5 C-26.504 76.894 -26.446 76.288 -26.387 75.664 C-25.933 67.243 -28.424 61.248 -33.812 54.812 C-37.815 52.902 -41.332 53.375 -45.562 54.5 C-46.552 55.16 -47.543 55.82 -48.562 56.5 C-47.511 57.119 -46.459 57.737 -45.375 58.375 C-40.628 61.858 -38.14 65.837 -36.562 71.5 C-36.019 76.828 -36.265 82.163 -36.562 87.5 C-37.972 88.202 -39.391 88.886 -40.812 89.562 C-41.601 89.945 -42.39 90.328 -43.203 90.723 C-45.822 91.586 -47.011 91.43 -49.562 90.5 C-48.758 90.046 -47.954 89.593 -47.125 89.125 C-44.474 87.753 -44.474 87.753 -43.562 85.5 C-42.974 78.678 -43.459 73.583 -46.562 67.5 C-46.936 66.177 -47.293 64.848 -47.562 63.5 C-43.165 66.988 -41.706 71.165 -40.562 76.5 C-40.346 79.554 -40.416 82.432 -40.562 85.5 C-37.828 81.398 -37.838 78.318 -38.562 73.5 C-40.619 67.689 -43.148 62.749 -48.562 59.5 C-51.242 58.26 -51.242 58.26 -53.562 57.5 C-53.562 58.16 -53.562 58.82 -53.562 59.5 C-52.573 59.5 -51.582 59.5 -50.562 59.5 C-50.562 60.16 -50.562 60.82 -50.562 61.5 C-53.862 61.17 -57.162 60.84 -60.562 60.5 C-59.596 59.702 -59.596 59.702 -58.61 58.887 C-56.032 55.882 -55.984 54.22 -55.805 50.301 C-55.736 49.091 -55.668 47.881 -55.598 46.635 C-55.545 45.373 -55.492 44.112 -55.438 42.812 C-54.464 22.855 -54.464 22.855 -50.562 15.5 C-51.882 14.84 -53.203 14.18 -54.562 13.5 C-54.233 12.84 -53.903 12.18 -53.562 11.5 C-41.518 8.149 -29.147 12.639 -17.487 15.551 C-11.016 17.138 -4.492 18.49 2.025 19.875 C14.568 22.543 27.088 25.302 39.586 28.176 C41.791 28.683 43.996 29.188 46.201 29.693 C57.237 32.221 57.237 32.221 62.029 33.334 C65.184 34.066 68.341 34.785 71.5 35.5 C72.379 35.708 73.258 35.916 74.164 36.13 C82.546 38.003 90.269 38.341 98.438 35.5 C92.575 32.795 86.691 30.428 80.574 28.363 C79.342 27.942 79.342 27.942 78.085 27.512 C75.433 26.608 72.779 25.71 70.125 24.812 C69.213 24.503 68.301 24.194 67.362 23.875 C61.058 21.737 54.75 19.613 48.438 17.5 C47.712 17.257 46.987 17.014 46.24 16.764 C4.277 1.154 4.277 1.154 -38.562 5.5 C-39.889 5.859 -41.22 6.208 -42.562 6.5 C-38.405 1.208 -31.935 -0.639 -25.625 -2.25 C-16.653 -2.982 -8.714 -2.227 0 0 Z " fill="#232323" transform="translate(146.5625,20.5)"/>
<path d="M0 0 C3.463 1.205 6.931 2.397 10.4 3.585 C12.218 4.211 14.036 4.838 15.854 5.464 C16.648 5.735 17.442 6.006 18.261 6.285 C21.439 7.39 24.036 8.461 26.854 10.339 C25.57 10.86 24.276 11.355 22.979 11.839 C22.259 12.118 21.54 12.396 20.799 12.683 C10.039 15.08 -0.538 11.75 -11.021 9.339 C-12.857 8.926 -14.693 8.513 -16.529 8.101 C-20.274 7.26 -24.017 6.413 -27.759 5.562 C-34.827 3.955 -41.904 2.387 -48.981 0.819 C-51.149 0.339 -53.316 -0.143 -55.483 -0.626 C-69.185 -3.677 -82.897 -6.687 -96.609 -9.692 C-97.864 -9.967 -97.864 -9.967 -99.144 -10.247 C-100.694 -10.587 -102.244 -10.927 -103.795 -11.266 C-105.198 -11.573 -106.6 -11.883 -108.002 -12.195 C-109.546 -12.53 -111.094 -12.847 -112.645 -13.152 C-113.462 -13.317 -114.279 -13.483 -115.12 -13.653 C-115.867 -13.799 -116.613 -13.944 -117.382 -14.094 C-117.964 -14.281 -118.546 -14.468 -119.146 -14.661 C-119.476 -15.321 -119.806 -15.981 -120.146 -16.661 C-117.628 -17.791 -115.107 -18.915 -112.584 -20.036 C-111.88 -20.353 -111.175 -20.67 -110.449 -20.997 C-77.752 -35.462 -31.765 -11.06 0 0 Z " fill="#FFFFFF" transform="translate(220.146484375,45.66064453125)"/>
<path d="M0 0 C6.623 2.856 12.956 3.62 20.138 2.408 C22.856 0.947 22.856 0.947 25.138 -0.592 C25.798 -0.592 26.458 -0.592 27.138 -0.592 C27.468 -1.582 27.798 -2.572 28.138 -3.592 C29.599 -0.944 30.138 0.303 30.138 3.408 C26.805 6.408 26.805 6.408 24.138 6.408 C22.897 9.388 21.883 12.27 21.138 15.408 C21.407 14.877 21.675 14.346 21.951 13.799 C25.004 8.295 28.016 5.211 34.138 3.408 C36.587 3.131 38.666 3.202 41.138 3.408 C40.549 3.687 39.96 3.965 39.353 4.252 C31.982 8.101 28.052 13.716 25.138 21.408 C24.907 22.842 24.696 24.28 24.513 25.721 C23.138 29.408 23.138 29.408 20.787 30.662 C18.832 31.418 16.875 32.168 14.916 32.912 C10.217 35.444 8.309 39.691 6.138 44.408 C0.66 40.495 -4.463 36.25 -9.549 31.846 C-10.19 31.292 -10.832 30.738 -11.493 30.167 C-20.148 22.629 -28.2 15.036 -32.862 4.408 C-32.862 4.078 -32.862 3.748 -32.862 3.408 C-32.123 3.322 -31.384 3.236 -30.623 3.147 C-24.887 2.352 -20.598 1.406 -15.612 -1.592 C-9.674 -4.556 -5.646 -2.491 0 0 Z " fill="#FFFFFF" transform="translate(124.861572265625,108.591552734375)"/>
<path d="M0 0 C7.043 -0.794 11.367 0.074 17.082 4.332 C19.394 6.343 21.283 8.462 23 11 C22.34 11 21.68 11 21 11 C21 12.98 21 14.96 21 17 C22.98 17 24.96 17 27 17 C31.848 25.888 34.737 35.24 32.465 45.391 C31.072 49.987 29.395 53.496 26 57 C21.795 59.102 17.37 58.412 13.027 57.105 C10.328 56.12 7.657 55.094 5 54 C5 51 5 51 7 48 C8.509 41.384 7.793 36.201 5 30 C2.194 25.634 -0.782 22.204 -6 21 C-8.709 20.832 -8.709 20.832 -11 21 C-9.797 13.542 -7.164 8.272 -3 2 C-2.67 2.99 -2.34 3.98 -2 5 C-1.34 3.35 -0.68 1.7 0 0 Z " fill="#FFFFFF" transform="translate(114,51)"/>
<path d="M0 0 C7.523 -0.836 12.018 1.506 18 6 C21.228 8.817 22.904 10.965 23.312 15.375 C23.209 16.241 23.106 17.108 23 18 C23.763 18.165 24.526 18.33 25.312 18.5 C28.78 20.436 29.208 22.184 30.422 25.832 C33.133 35.998 33.367 45.727 28 55 C27.34 55 26.68 55 26 55 C26 55.66 26 56.32 26 57 C21.456 59.629 18.003 59.106 13 58 C9.59 56.828 6.289 55.476 3 54 C3.634 53.722 4.268 53.443 4.922 53.156 C7.23 52.128 7.23 52.128 8.25 49.5 C9.97 41.476 9.551 35.442 5.477 28.203 C2.846 24.279 0.469 21.534 -4.383 20.484 C-6.598 20.221 -8.771 20.054 -11 20 C-10.457 15.435 -9.205 12.027 -7 8 C-5.68 8 -4.36 8 -3 8 C-2.01 5.36 -1.02 2.72 0 0 Z " fill="#FFFFFF" transform="translate(219,179)"/>
<path d="M0 0 C3.698 2.636 6.321 5.042 8.25 9.25 C8 12.625 8 12.625 7.25 15.25 C8.9 15.25 10.55 15.25 12.25 15.25 C16.782 24.617 18.539 36.007 15.344 46.117 C14.25 48.312 14.25 48.312 12.25 51.25 C11.59 51.25 10.93 51.25 10.25 51.25 C10.25 51.91 10.25 52.57 10.25 53.25 C5.847 55.451 0.772 54.698 -3.789 53.355 C-6.469 52.375 -9.118 51.352 -11.75 50.25 C-9.92 48.313 -8.598 47.172 -6.188 45.938 C-3.585 44.41 -3.585 44.41 -2.375 41.688 C-0.97 33.962 -2.261 26.739 -6.75 20.25 C-9.008 17.421 -11.247 15.478 -14.961 14.914 C-18.981 14.847 -22.848 15.243 -26.75 16.25 C-26.143 11.39 -24.022 7.509 -21.75 3.25 C-20.43 3.58 -19.11 3.91 -17.75 4.25 C-17.667 3.136 -17.585 2.022 -17.5 0.875 C-16.75 -2.75 -16.75 -2.75 -15.188 -4.312 C-9.448 -5.343 -4.744 -2.97 0 0 Z " fill="#FFFFFF" transform="translate(176.75,119.75)"/>
<path d="M0 0 C1.438 1.062 1.438 1.062 3 3 C3.495 6.465 3.495 6.465 4 10 C8.62 8.02 13.24 6.04 18 4 C17.67 5.32 17.34 6.64 17 8 C17.99 7.34 18.98 6.68 20 6 C20 6.66 20 7.32 20 8 C20.99 8.66 21.98 9.32 23 10 C22.093 10.371 21.185 10.743 20.25 11.125 C15.868 13.653 13.737 16.604 12.25 21.438 C12.167 22.283 12.085 23.129 12 24 C11.897 24.99 11.794 25.98 11.688 27 C11.862 35.876 15.589 44.304 20.828 51.293 C22 53 22 53 22 55 C22.536 55.248 23.073 55.495 23.625 55.75 C26 57 26 57 28.688 59 C32.705 61.426 36.418 62.226 41 63 C41 62.34 41 61.68 41 61 C39.732 60.722 39.732 60.722 38.438 60.438 C30.14 56.968 25.148 48.991 21.812 40.938 C18.805 33.353 17.166 24.612 20.5 16.875 C20.995 15.926 21.49 14.977 22 14 C22.495 14.99 22.495 14.99 23 16 C22.67 16.66 22.34 17.32 22 18 C21.006 31.947 23.226 41.231 31.844 52.566 C34.722 55.815 37.816 58.629 42 60 C44.133 59.859 44.133 59.859 46 59 C49.103 54.517 50.16 51.275 50.562 45.875 C50.688 44.231 50.688 44.231 50.816 42.555 C50.877 41.712 50.938 40.869 51 40 C53.677 44.015 53.13 46.463 52.609 51.133 C51.708 55.376 49.959 58.818 47 62 C42.776 64.626 38.836 64.718 34 64 C24.427 60.862 18.762 54.687 14.188 45.938 C10.212 37.306 8.144 28.124 10.605 18.676 C11.718 15.982 12.936 14.064 15 12 C13.287 10.774 13.287 10.774 11 10 C8.457 10.627 8.457 10.627 5.938 11.875 C1.258 14 1.258 14 -2 14 C-1.844 15.082 -1.688 16.163 -1.527 17.277 C-0.724 23.69 -0.653 30.145 -0.482 36.6 C-0.55 45.371 -0.55 45.371 3 53 C3 40.13 3 27.26 3 14 C3.66 14 4.32 14 5 14 C5.05 15.251 5.1 16.503 5.152 17.792 C5.34 22.437 5.541 27.081 5.745 31.725 C5.831 33.734 5.915 35.744 5.995 37.754 C6.11 40.644 6.238 43.533 6.367 46.422 C6.401 47.32 6.434 48.218 6.468 49.143 C6.508 49.984 6.548 50.824 6.589 51.69 C6.636 52.796 6.636 52.796 6.684 53.924 C7.045 56.294 7.775 57.947 9 60 C14.583 63.964 21.802 65.751 28.26 67.799 C30.204 68.448 32.107 69.216 34 70 C34.33 70.99 34.66 71.98 35 73 C28.941 71.375 23.042 69.369 17.188 67.125 C16.554 66.893 15.92 66.661 15.267 66.421 C10.89 64.703 7.988 62.631 5 59 C5 58.01 5 57.02 5 56 C3.886 55.907 3.886 55.907 2.75 55.812 C-0.868 54.744 -1.938 53.092 -4 50 C-4.933 47.202 -5.188 45.228 -5.316 42.316 C-5.379 40.932 -5.379 40.932 -5.444 39.52 C-5.483 38.544 -5.522 37.568 -5.562 36.562 C-5.605 35.574 -5.647 34.585 -5.691 33.566 C-5.971 26.706 -6.13 19.866 -6 13 C-6.58 13.228 -7.16 13.456 -7.758 13.691 C-12.816 15.553 -15.661 15.89 -21 15 C-24.092 15.77 -27.037 16.834 -30 18 C-29.691 19.609 -29.691 19.609 -29.375 21.25 C-29 25 -29 25 -29.562 27.312 C-31.815 29.957 -33.588 30.38 -37 31 C-41.503 30.7 -44.926 30.106 -48.125 26.812 C-49.241 23.226 -48.784 20.635 -48 17 C-47.01 16.67 -46.02 16.34 -45 16 C-44.711 15.361 -44.422 14.721 -44.125 14.062 C-43 12 -43 12 -40.75 10.562 C-36.922 9.779 -35.224 10.922 -32 13 C-31.01 14.485 -31.01 14.485 -30 16 C-25.05 14.515 -25.05 14.515 -20 13 C-19.67 11.35 -19.34 9.7 -19 8 C-17.223 6.637 -17.223 6.637 -15.062 5.688 C-13.997 5.198 -13.997 5.198 -12.91 4.699 C-11 4 -11 4 -9 4 C-8.67 3.01 -8.34 2.02 -8 1 C-5.69 1.33 -3.38 1.66 -1 2 C-0.67 1.34 -0.34 0.68 0 0 Z " fill="#333333" transform="translate(86,136)"/>
<path d="M0 0 C-0.639 0.907 -1.279 1.815 -1.938 2.75 C-6.355 9.711 -6.003 18.3 -4.316 26.203 C-1.984 33.75 1.252 41.501 8 46 C8 46.66 8 47.32 8 48 C8.722 48.289 9.444 48.577 10.188 48.875 C13 50 13 50 15.25 51.125 C20.207 52.702 25.017 52.776 29.875 50.875 C34.243 47.021 35.131 42.99 35.625 37.375 C35.679 36.455 35.733 35.534 35.789 34.586 C35.978 32.272 36.362 30.226 37 28 C41.998 35.823 41.625 42.652 39.812 51.562 C38.472 57.105 36.702 60.698 33 65 C30.03 64.505 30.03 64.505 27 64 C27 63.34 27 62.68 27 62 C24.36 62 21.72 62 19 62 C18.67 61.34 18.34 60.68 18 60 C16.195 59.131 16.195 59.131 13.992 58.414 C13.17 58.123 12.347 57.831 11.5 57.531 C10.634 57.232 9.767 56.933 8.875 56.625 C-6.507 51.31 -6.507 51.31 -9.162 47.202 C-10.146 44.616 -10.319 42.503 -10.414 39.738 C-10.453 38.709 -10.492 37.679 -10.531 36.619 C-10.562 35.528 -10.593 34.437 -10.625 33.312 C-10.663 32.2 -10.701 31.088 -10.74 29.942 C-11.026 20.96 -11.111 11.985 -11 3 C-11.66 3 -12.32 3 -13 3 C-12.837 4.16 -12.674 5.319 -12.506 6.514 C-11.995 10.618 -11.886 14.641 -11.902 18.781 C-11.904 19.48 -11.905 20.179 -11.907 20.899 C-11.912 23.1 -11.925 25.3 -11.938 27.5 C-11.943 29.005 -11.947 30.51 -11.951 32.016 C-11.962 35.677 -11.979 39.339 -12 43 C-15.298 40.127 -16.565 38.361 -17 34 C-17.146 31.579 -17.247 29.155 -17.316 26.73 C-17.337 26.049 -17.358 25.368 -17.379 24.667 C-17.444 22.507 -17.504 20.347 -17.562 18.188 C-17.606 16.717 -17.649 15.246 -17.693 13.775 C-17.8 10.184 -17.901 6.592 -18 3 C-15.947 2.104 -13.882 1.234 -11.812 0.375 C-10.664 -0.112 -9.515 -0.6 -8.332 -1.102 C-4.617 -2.103 -3.304 -1.829 0 0 Z " fill="#FFFFFF" transform="translate(102,147)"/>
<path d="M0 0 C0.33 0.66 0.66 1.32 1 2 C1.897 2.443 1.897 2.443 2.812 2.896 C7.079 5.049 10.21 8.84 13.562 12.188 C14.33 12.931 15.098 13.674 15.889 14.439 C21.192 19.715 24.483 23.7 25.398 31.316 C25.347 38.455 24.896 43.097 20.562 48.938 C19 50 19 50 17.25 49.938 C6.623 45.509 0.51 37.463 -4 27 C-5.29 23.13 -5.257 19.165 -5.312 15.125 C-5.342 14.43 -5.371 13.735 -5.4 13.02 C-5.464 7.832 -4.21 5.014 -1 1 C-0.67 0.67 -0.34 0.34 0 0 Z " fill="#FFFFFF" transform="translate(112,147)"/>
<path d="M0 0 C6.344 1.301 10.795 5.266 15 10 C16.302 13.835 16.27 15.191 15 19 C16.65 19 18.3 19 20 19 C26.662 32.945 25.817 44.549 21 59 C20.67 59.33 20.34 59.66 20 60 C20.66 60 21.32 60 22 60 C22 60.66 22 61.32 22 62 C12.294 64.016 3.829 61.542 -4.875 57.062 C-8.114 55.596 -8.114 55.596 -11.75 57.375 C-12.822 57.911 -13.895 58.447 -15 59 C-15.99 58.67 -16.98 58.34 -18 58 C-17.041 56.979 -17.041 56.979 -16.062 55.938 C-12.971 51.535 -12.768 47.822 -13.438 42.562 C-13.623 41.717 -13.809 40.871 -14 40 C-13.34 40 -12.68 40 -12 40 C-10.95 43.149 -10.899 45.388 -10.938 48.688 C-10.947 49.681 -10.956 50.675 -10.965 51.699 C-10.976 52.458 -10.988 53.218 -11 54 C-8.651 48.519 -7.887 44.059 -9.945 38.402 C-13.275 31.292 -16.653 27.841 -24 25 C-23.288 22.619 -22.556 20.246 -21.812 17.875 C-21.616 17.21 -21.419 16.545 -21.217 15.859 C-19.648 10.935 -17.514 7.792 -14 4 C-13.67 4.66 -13.34 5.32 -13 6 C-14.18 8.715 -14.18 8.715 -15.875 11.938 C-18.188 16.362 -18.188 16.362 -20 21 C-19.361 20.67 -18.721 20.34 -18.062 20 C-13.912 18.645 -10.316 18.171 -6 19 C-0.389 21.986 3.054 27.058 5 33 C6.077 37.73 6.605 42.218 5 46.875 C2.44 50.875 0.251 51.995 -4 54 C3.181 57.489 9.041 58.545 17 58 C17 57.34 17 56.68 17 56 C17.66 56 18.32 56 19 56 C19.309 55.051 19.619 54.102 19.938 53.125 C21 50 21 50 22 48 C22.561 38.256 22.368 29.281 19 20 C17.35 20 15.7 20 14 20 C14.083 18.948 14.165 17.896 14.25 16.812 C13.947 12.192 13.369 11.128 10 8 C7.39 6.356 4.752 4.814 2.047 3.332 C1.371 2.892 0.696 2.453 0 2 C0 1.34 0 0.68 0 0 Z " fill="#000000" transform="translate(170,115)"/>
<path d="M0 0 C0 0.66 0 1.32 0 2 C-0.99 2.66 -1.98 3.32 -3 4 C-2.01 4.66 -1.02 5.32 0 6 C-3.63 6 -7.26 6 -11 6 C-11 6.66 -11 7.32 -11 8 C-9.68 8.66 -8.36 9.32 -7 10 C-7.472 10.819 -7.944 11.637 -8.43 12.48 C-10.193 16.433 -10.743 20.057 -11.125 24.312 C-11.206 25.089 -11.286 25.866 -11.37 26.666 C-11.772 30.727 -12.054 34.774 -12.203 38.852 C-12.234 39.622 -12.265 40.392 -12.296 41.186 C-12.348 42.659 -12.381 44.132 -12.395 45.605 C-12.505 48.974 -12.559 50.573 -15.039 52.973 C-15.686 53.312 -16.333 53.651 -17 54 C-15.886 54.144 -14.773 54.289 -13.625 54.438 C-10 55 -10 55 -8 56 C-8 55.34 -8 54.68 -8 54 C-8.99 54 -9.98 54 -11 54 C-11 53.34 -11 52.68 -11 52 C-6.501 52.273 -3.866 54.193 -0.648 57.137 C3.884 62.26 5.691 68.268 5.406 75.047 C4.804 77.941 3.35 79.311 1 81 C1.035 80.383 1.07 79.765 1.105 79.129 C1.303 72.934 0.657 67.656 -2 62 C-2.66 61.34 -3.32 60.68 -4 60 C-3.505 60.598 -3.01 61.196 -2.5 61.812 C-0.318 66.45 -0.577 70.947 -1 76 C-1.33 76.66 -1.66 77.32 -2 78 C-2.66 77.67 -3.32 77.34 -4 77 C-3.954 76.432 -3.907 75.863 -3.859 75.277 C-3.576 69.224 -4.467 65.946 -8 61 C-10.918 59.055 -12.625 58.547 -16 58 C-16 58.66 -16 59.32 -16 60 C-15.34 60.33 -14.68 60.66 -14 61 C-14.928 60.959 -15.856 60.917 -16.812 60.875 C-20.158 60.729 -20.158 60.729 -23 63 C-24.219 66.557 -24.219 66.557 -25 70 C-25.33 70 -25.66 70 -26 70 C-26.369 63.6 -26.369 63.6 -24.5 60.562 C-24.005 60.047 -23.51 59.531 -23 59 C-23.33 58.67 -23.66 58.34 -24 58 C-24.042 56.041 -24.01 54.08 -23.949 52.121 C-23.911 50.897 -23.874 49.672 -23.835 48.41 C-23.786 47.099 -23.738 45.788 -23.688 44.438 C-23.651 43.447 -23.651 43.447 -23.614 42.436 C-22.525 13.61 -22.525 13.61 -17 7 C-14.609 5.488 -12.477 4.285 -9.938 3.125 C-9.313 2.818 -8.688 2.511 -8.045 2.195 C-5.184 0.827 -3.208 0 0 0 Z " fill="#171717" transform="translate(104,26)"/>
<path d="M0 0 C1.514 0.017 1.514 0.017 3.059 0.035 C4.071 0.044 5.082 0.053 6.125 0.062 C7.299 0.08 7.299 0.08 8.496 0.098 C8.826 0.758 9.156 1.418 9.496 2.098 C7.164 3.304 5 4.263 2.496 5.098 C-1.313 12.531 -1.234 21.578 -1.691 29.723 C-1.773 31.013 -1.855 32.303 -1.939 33.633 C-2.138 36.787 -2.326 39.942 -2.504 43.098 C-1.555 42.603 -0.606 42.108 0.371 41.598 C3.496 40.098 3.496 40.098 5.496 40.098 C5.582 39.48 5.669 38.863 5.758 38.227 C7.435 28.117 11.197 21.196 19.496 15.098 C14.241 15.51 11.124 16.167 7.496 20.098 C4.595 25.441 3.898 31.108 3.496 37.098 C2.836 37.098 2.176 37.098 1.496 37.098 C0.996 30.35 2.099 25.013 5.496 19.098 C9.634 14.443 13.146 12.321 19.434 11.723 C29.84 11.892 39.389 17.851 46.496 25.098 C55.251 36.003 61.002 46.802 61.496 61.098 C60.506 62.088 60.506 62.088 59.496 63.098 C59.398 62.264 59.3 61.43 59.199 60.57 C58.25 53.428 56.959 47.425 53.496 41.098 C53.028 40.24 52.56 39.383 52.078 38.5 C49.314 33.675 46.526 29.897 42.496 26.098 C42.001 24.613 42.001 24.613 41.496 23.098 C39.481 22.364 39.481 22.364 37.496 22.098 C39.146 23.748 40.796 25.398 42.496 27.098 C42.166 27.758 41.836 28.418 41.496 29.098 C40.893 28.543 40.29 27.989 39.668 27.418 C38.869 26.694 38.07 25.969 37.246 25.223 C36.457 24.503 35.668 23.784 34.855 23.043 C31.019 19.88 28.192 18.863 23.246 18.473 C22.354 18.398 21.462 18.323 20.543 18.246 C19.53 18.173 19.53 18.173 18.496 18.098 C18.166 20.408 17.836 22.718 17.496 25.098 C16.176 25.428 14.856 25.758 13.496 26.098 C14.156 25.768 14.816 25.438 15.496 25.098 C15.496 24.108 15.496 23.118 15.496 22.098 C12.698 25.413 11.308 28.795 9.809 32.848 C9.372 34.018 8.935 35.189 8.484 36.395 C8.158 37.287 7.832 38.179 7.496 39.098 C8.261 38.912 9.025 38.726 9.812 38.535 C13.671 37.906 15.246 38.975 18.496 41.098 C23.808 45.752 26.415 51.144 27.496 58.098 C27.441 60.915 27.062 63.32 26.496 66.098 C25.506 65.603 25.506 65.603 24.496 65.098 C24.554 64.492 24.612 63.886 24.672 63.262 C25.125 54.84 22.634 48.846 17.246 42.41 C13.244 40.5 9.726 40.973 5.496 42.098 C4.506 42.758 3.516 43.418 2.496 44.098 C3.548 44.716 4.6 45.335 5.684 45.973 C10.431 49.456 12.919 53.435 14.496 59.098 C15.039 64.426 14.794 69.761 14.496 75.098 C13.086 75.799 11.668 76.484 10.246 77.16 C9.457 77.543 8.668 77.926 7.855 78.32 C5.236 79.183 4.048 79.028 1.496 78.098 C2.3 77.644 3.105 77.19 3.934 76.723 C6.585 75.35 6.585 75.35 7.496 73.098 C8.084 66.276 7.6 61.18 4.496 55.098 C4.123 53.775 3.766 52.445 3.496 51.098 C7.894 54.586 9.353 58.762 10.496 64.098 C10.713 67.152 10.642 70.029 10.496 73.098 C13.231 68.995 13.22 65.915 12.496 61.098 C10.44 55.286 7.911 50.346 2.496 47.098 C-0.183 45.857 -0.183 45.857 -2.504 45.098 C-2.504 45.758 -2.504 46.418 -2.504 47.098 C-1.514 47.098 -0.524 47.098 0.496 47.098 C0.496 47.758 0.496 48.418 0.496 49.098 C-2.804 48.768 -6.104 48.438 -9.504 48.098 C-8.537 47.299 -8.537 47.299 -7.551 46.485 C-4.974 43.479 -4.925 41.817 -4.746 37.898 C-4.678 36.689 -4.609 35.479 -4.539 34.232 C-4.486 32.971 -4.433 31.71 -4.379 30.41 C-3.405 10.452 -3.405 10.452 0.496 3.098 C-0.824 2.438 -2.144 1.778 -3.504 1.098 C-2.504 0.098 -2.504 0.098 0 0 Z " fill="#000000" transform="translate(95.50390625,32.90234375)"/>
<path d="M0 0 C2.227 0.967 4.314 2.035 6.418 3.246 C7.872 4.05 7.872 4.05 9.355 4.871 C21.489 14.281 29.26 25.115 32.418 40.246 C33.358 49.03 32.496 54.991 27.293 62.184 C23.328 65.028 20.145 64.709 15.418 64.246 C18.037 62.5 19.456 61.859 22.418 61.246 C22.418 60.586 22.418 59.926 22.418 59.246 C21.758 59.246 21.098 59.246 20.418 59.246 C20.635 58.484 20.851 57.722 21.074 56.938 C24.175 45.441 23.609 37.672 20.418 26.246 C20.08 24.914 19.745 23.581 19.418 22.246 C17.768 22.246 16.118 22.246 14.418 22.246 C14.124 21.376 14.124 21.376 13.824 20.488 C11.031 13.192 7.054 9.939 0.434 6.094 C-1.825 5.144 -3.397 5.04 -5.832 5.121 C-7.07 5.162 -8.307 5.204 -9.582 5.246 C-9.809 6.36 -10.036 7.474 -10.27 8.621 C-11.582 12.246 -11.582 12.246 -14.082 13.434 C-14.907 13.702 -15.732 13.97 -16.582 14.246 C-17.926 16.263 -17.926 16.263 -18.582 18.246 C-19.242 18.246 -19.902 18.246 -20.582 18.246 C-19.766 11.309 -15.496 6.887 -10.582 2.246 C-15.462 2.7 -18.262 3.567 -21.582 7.246 C-23.697 12.363 -24.861 17.766 -25.582 23.246 C-25.912 23.246 -26.242 23.246 -26.582 23.246 C-26.965 17.125 -26.829 11.613 -23.582 6.246 C-16.892 -0.877 -9.621 -2.809 0 0 Z " fill="#121212" transform="translate(228.58203125,174.75390625)"/>
<path d="M0 0 C-3.426 4.025 -8.333 5.85 -12.969 8.184 C-16.361 9.957 -16.361 9.957 -19 14 C-11.41 10.37 -3.82 6.74 4 3 C4 3.99 4 4.98 4 6 C-2.93 9.3 -9.86 12.6 -17 16 C-16.34 18.31 -15.68 20.62 -15 23 C-14.736 24.972 -14.522 26.953 -14.375 28.938 C-14.3 29.895 -14.225 30.853 -14.148 31.84 C-14.099 32.553 -14.05 33.266 -14 34 C-9.789 33.385 -6.567 31.91 -2.812 29.938 C2.793 27 2.793 27 5 27 C5 27.66 5 28.32 5 29 C1.828 30.717 -1.365 32.393 -4.562 34.062 C-5.458 34.548 -6.353 35.033 -7.275 35.533 C-13.912 38.961 -17.58 39.368 -24.801 37.133 C-25.63 36.8 -26.459 36.468 -27.312 36.125 C-28.154 35.798 -28.996 35.47 -29.863 35.133 C-32 34 -32 34 -34 31 C-34.125 28.312 -34.125 28.312 -34 26 C-34.99 25.67 -35.98 25.34 -37 25 C-37 23.68 -37 22.36 -37 21 C-36.34 20.67 -35.68 20.34 -35 20 C-35.082 19.093 -35.165 18.185 -35.25 17.25 C-35 14 -35 14 -33.5 11.688 C-31 10 -31 10 -27.367 9.645 C-22.553 9.126 -18.85 7.267 -14.625 5 C-13.915 4.631 -13.204 4.263 -12.473 3.883 C-10.643 2.932 -8.821 1.967 -7 1 C-4.537 -0.231 -2.72 -0.072 0 0 Z " fill="#131313" transform="translate(134,213)"/>
<path d="M0 0 C0.99 0.495 0.99 0.495 2 1 C2.625 3.062 2.625 3.062 3 5 C3.66 4.67 4.32 4.34 5 4 C5.33 4.99 5.66 5.98 6 7 C6.66 7.33 7.32 7.66 8 8 C8.694 11.05 9.263 14.05 9.77 17.133 C10.012 18.537 10.012 18.537 10.259 19.969 C10.784 23.02 11.298 26.072 11.812 29.125 C12.521 33.264 13.237 37.402 13.957 41.539 C14.133 42.549 14.308 43.559 14.489 44.6 C15.781 51.957 17.285 59.229 19 66.5 C20.786 74.139 21.681 81.119 21 89 C18.717 85.575 18.156 82.933 17.273 78.918 C17.121 78.226 16.968 77.534 16.811 76.822 C16.49 75.359 16.173 73.895 15.858 72.431 C15.379 70.204 14.885 67.98 14.391 65.756 C14.08 64.331 13.77 62.906 13.461 61.48 C13.314 60.821 13.167 60.161 13.016 59.482 C12.191 55.59 11.857 51.974 12 48 C11.34 48 10.68 48 10 48 C9.34 46.02 8.68 44.04 8 42 C15.837 83.114 25.986 123.773 38.426 163.749 C40 168.818 40 168.818 40 171 C39.34 171 38.68 171 38 171 C28.812 140.561 20.062 110.009 13 79 C12.737 77.852 12.475 76.703 12.204 75.52 C9.171 62.139 6.493 48.711 4.188 35.188 C3.98 33.991 3.773 32.794 3.56 31.561 C2.34 24.155 1.625 16.855 1.24 9.368 C1.013 6.189 0.578 3.132 0 0 Z " fill="#1B1B1B" transform="translate(253,62)"/>
<path d="M0 0 C0.495 1.485 0.495 1.485 1 3 C2.65 3 4.3 3 6 3 C11.192 14.092 12.559 24.189 8.754 35.934 C8 38 8 38 7 40 C7.66 40 8.32 40 9 40 C9 40.66 9 41.32 9 42 C7.68 42.66 6.36 43.32 5 44 C6.32 44 7.64 44 9 44 C9 44.66 9 45.32 9 46 C-0.447 48.594 -9.574 46.466 -18.129 41.852 C-21.203 40.452 -23.797 41.288 -27 42 C-27.66 42.66 -28.32 43.32 -29 44 C-19.003 46.346 -9.003 48.678 1 51 C2.025 51.239 3.051 51.478 4.107 51.724 C6.591 52.301 9.076 52.871 11.562 53.438 C12.262 53.601 12.961 53.764 13.681 53.933 C17.184 54.721 20.408 55.172 24 55 C25.347 49.367 24.574 45.753 22.594 40.332 C21.945 37.785 22.144 36.451 23 34 C25.745 41.241 27.518 47.232 27 55 C31.29 54.67 35.58 54.34 40 54 C40 54.66 40 55.32 40 56 C26.956 60.014 14.867 57.262 1.938 54.312 C0.286 53.945 -1.365 53.579 -3.016 53.213 C-14.081 50.744 -25.094 48.103 -36 45 C-34.975 43.301 -33.949 41.602 -32.924 39.904 C-30.856 35.643 -31.442 31.727 -32.836 27.41 C-34.362 23.502 -36.097 19.738 -38 16 C-31.015 22.23 -29.73 27.853 -29.113 36.84 C-29.076 37.553 -29.039 38.266 -29 39 C-27.025 35.049 -27.554 30.304 -28 26 C-29.072 23.083 -30.427 20.703 -32 18 C-32 17.34 -32 16.68 -32 16 C-32.619 15.691 -33.238 15.381 -33.875 15.062 C-35.25 14.375 -36.625 13.688 -38 13 C-38 12.34 -38 11.68 -38 11 C-33.158 12.972 -30.068 16.36 -27.25 20.688 C-25.127 26.314 -25 32.031 -25 38 C-19.573 35.816 -19.573 35.816 -15.438 31.875 C-14.349 24.722 -15.377 18.654 -19.539 12.688 C-22.662 9.081 -26.725 6.973 -31 5 C-27.836 4.446 -25.732 4.554 -22.961 6.242 C-17.144 10.969 -13.647 16.076 -12.66 23.586 C-12.465 28.773 -13.05 32.575 -16 37 C-16.99 37.495 -16.99 37.495 -18 38 C-11.885 41.447 -5.864 44.048 1.266 42.512 C2.124 42.258 2.124 42.258 3 42 C3 41.34 3 40.68 3 40 C3.66 40 4.32 40 5 40 C9.851 28.074 8.351 17.189 5 5 C2.525 4.505 2.525 4.505 0 4 C0 2.68 0 1.36 0 0 Z " fill="#000000" transform="translate(242,194)"/>
<path d="M0 0 C1.165 0.254 2.33 0.508 3.53 0.77 C5.982 1.305 8.435 1.841 10.887 2.378 C14.585 3.188 18.285 3.995 21.984 4.801 C27.791 6.067 33.595 7.349 39.397 8.638 C42.246 9.266 45.099 9.88 47.952 10.489 C49.505 10.831 51.057 11.173 52.609 11.516 C53.64 11.729 53.64 11.729 54.691 11.946 C58.411 12.786 59.279 13.001 61.492 16.32 C61.162 16.98 60.832 17.64 60.492 18.32 C55.437 19.464 51.596 19.196 46.594 17.984 C45.937 17.83 45.281 17.675 44.605 17.516 C42.439 17.004 40.279 16.475 38.117 15.945 C34.996 15.199 31.873 14.461 28.75 13.723 C27.933 13.528 27.117 13.334 26.275 13.134 C19.925 11.631 13.555 10.24 7.172 8.887 C6.237 8.687 5.302 8.488 4.339 8.282 C0.643 7.494 -3.054 6.706 -6.755 5.938 C-9.331 5.402 -11.904 4.853 -14.477 4.301 C-15.247 4.145 -16.017 3.989 -16.811 3.828 C-23.257 2.424 -23.257 2.424 -25.508 -0.68 C-24.848 -1.01 -24.188 -1.34 -23.508 -1.68 C-27.138 -2.01 -30.768 -2.34 -34.508 -2.68 C-34.508 -3.01 -34.508 -3.34 -34.508 -3.68 C-32.906 -3.909 -31.301 -4.112 -29.695 -4.305 C-28.802 -4.421 -27.909 -4.537 -26.988 -4.656 C-17.963 -4.717 -8.779 -1.925 0 0 Z " fill="#2F2F2F" transform="translate(127.5078125,35.6796875)"/>
<path d="M0 0 C1.207 0.031 1.207 0.031 2.438 0.062 C-1.343 3.287 -5.702 5.097 -10.188 7.125 C-11.723 7.82 -13.257 8.519 -14.789 9.223 C-15.465 9.528 -16.142 9.834 -16.838 10.149 C-18.749 11.053 -18.749 11.053 -20.562 13.062 C-19.417 12.52 -18.271 11.977 -17.09 11.418 C-15.56 10.695 -14.03 9.973 -12.5 9.25 C-11.748 8.894 -10.996 8.537 -10.221 8.17 C-5.704 6.039 -1.165 4 3.438 2.062 C3.686 4.666 3.912 7.268 4.125 9.875 C4.198 10.613 4.271 11.351 4.346 12.111 C4.771 17.641 4.771 17.641 3.161 19.676 C1.422 21.075 -0.211 22.058 -2.215 23.035 C-3.256 23.549 -3.256 23.549 -4.318 24.072 C-5.038 24.42 -5.758 24.767 -6.5 25.125 C-7.216 25.476 -7.932 25.828 -8.67 26.189 C-10.008 26.845 -11.347 27.499 -12.687 28.149 C-14.027 28.801 -15.349 29.49 -16.658 30.201 C-19.034 31.276 -20.156 30.922 -22.562 30.062 C-22.898 27.459 -23.231 24.854 -23.562 22.25 C-23.658 21.512 -23.753 20.774 -23.852 20.014 C-24.232 17.008 -24.562 14.095 -24.562 11.062 C-23.932 10.765 -23.301 10.467 -22.651 10.16 C-19.808 8.817 -16.966 7.471 -14.125 6.125 C-13.132 5.656 -12.139 5.188 -11.115 4.705 C-10.171 4.257 -9.227 3.809 -8.254 3.348 C-7.379 2.934 -6.505 2.52 -5.604 2.094 C-1.534 0.037 -1.534 0.037 0 0 Z " fill="#FFFFFF" transform="translate(141.5625,216.9375)"/>
<path d="M0 0 C11.615 1.482 19.816 8.52 26.906 17.383 C35.099 28.457 37.912 39.314 37 53 C36.13 57.204 34.224 59.756 31.312 62.938 C27.062 65.584 24.907 65.423 20 65 C23 63 23 63 25 62 C25.379 60.008 25.703 58.006 26 56 C26.351 54.948 26.701 53.896 27.062 52.812 C29.571 42.611 27.397 33.707 24 24 C22.35 23.67 20.7 23.34 19 23 C19.103 21.969 19.206 20.938 19.312 19.875 C18.934 15.181 17.414 13.009 14 10 C8.669 5.68 4.842 4.304 -2 5 C-2.99 5.33 -3.98 5.66 -5 6 C-5.33 7.155 -5.66 8.31 -6 9.5 C-6.33 10.655 -6.66 11.81 -7 13 C-7.99 13.33 -8.98 13.66 -10 14 C-10.713 7.941 -10.713 7.941 -8.805 5.422 C-5.662 2.674 -4.241 2 0 2 C0 1.34 0 0.68 0 0 Z " fill="#191919" transform="translate(166,111)"/>
<path d="M0 0 C-0.454 0.351 -0.907 0.701 -1.375 1.062 C-5.226 5.654 -5.385 11.631 -5.254 17.387 C-4.118 29.079 1.554 39.039 10 47 C12.009 48.339 13.729 49.148 16 50 C16 50.66 16 51.32 16 52 C7.929 51.87 2.912 49.521 -3 44 C-9.637 36.046 -13.242 26.494 -14.438 16.25 C-13.701 10.778 -12.487 5.859 -9 1.5 C-5.743 -0.943 -3.771 -1.17 0 0 Z " fill="#FFFFFF" transform="translate(111,147)"/>
<path d="M0 0 C0.66 0 1.32 0 2 0 C4.64 12.21 7.28 24.42 10 37 C10 35.68 10 34.36 10 33 C10.66 33 11.32 33 12 33 C13.696 39.564 15.386 46.129 17.072 52.696 C17.646 54.928 18.221 57.16 18.798 59.391 C19.628 62.605 20.453 65.82 21.277 69.035 C21.535 70.027 21.792 71.019 22.057 72.041 C23.621 78.163 24.688 84.155 25.377 90.442 C26.421 99.65 28.575 108.054 31.5 116.875 C33.995 124.543 36.427 132.084 38 140 C36 139 36 139 35.105 136.796 C34.803 135.815 34.5 134.835 34.188 133.824 C33.84 132.705 33.492 131.587 33.133 130.434 C32.759 129.198 32.385 127.961 32 126.688 C31.601 125.382 31.202 124.077 30.802 122.771 C26.126 107.385 21.845 91.888 17.642 76.367 C16.996 73.986 16.347 71.605 15.697 69.225 C11.006 52.008 6.561 34.775 2.875 17.312 C2.649 16.244 2.649 16.244 2.419 15.154 C0 3.636 0 3.636 0 0 Z " fill="#383838" transform="translate(263,110)"/>
<path d="M0 0 C4.748 3.101 8.122 6.574 10 12 C10.987 16.72 11.343 20.679 10.125 25.375 C7.096 29.117 3.461 30.41 -1 32 C-0.965 31.383 -0.93 30.765 -0.895 30.129 C-0.642 22.228 -1.925 14.344 -7 8 C-9.269 6.457 -11.544 5.251 -14 4 C-9.133 0.176 -6.263 -1.965 0 0 Z " fill="#FFFFFF" transform="translate(217,201)"/>
<path d="M0 0 C5.151 2.921 8.213 7.112 10.34 12.562 C11.807 17.981 12.082 22.881 9.5 27.938 C6.173 30.682 3.106 31.7 -1 33 C-0.942 32.105 -0.884 31.211 -0.824 30.289 C-0.518 22.086 -0.899 15.679 -6 9 C-8.25 6.949 -10.355 5.556 -13 4 C-8.778 0.651 -5.444 -0.733 0 0 Z " fill="#FFFFFF" transform="translate(110,73)"/>
<path d="M0 0 C5.399 3.265 8.033 8.098 10 14 C10.486 18.699 10.676 22.677 8.5 26.938 C5.173 29.682 2.106 30.7 -2 32 C-1.93 30.623 -1.93 30.623 -1.859 29.219 C-1.58 19.71 -2.279 14.164 -8.625 7.062 C-10.812 4.99 -10.812 4.99 -13 4 C-13 3.34 -13 2.68 -13 2 C-8.241 -0.902 -5.407 -1.475 0 0 Z " fill="#FFFFFF" transform="translate(164,136)"/>
<path d="M0 0 C0.99 0.33 1.98 0.66 3 1 C4.085 8.524 4.317 16.007 4.518 23.6 C4.45 32.371 4.45 32.371 8 40 C8 27.13 8 14.26 8 1 C8.66 1 9.32 1 10 1 C10.05 2.251 10.1 3.503 10.152 4.792 C10.34 9.437 10.541 14.081 10.745 18.725 C10.831 20.734 10.915 22.744 10.995 24.754 C11.11 27.644 11.238 30.533 11.367 33.422 C11.401 34.32 11.434 35.218 11.468 36.143 C11.508 36.984 11.548 37.824 11.589 38.69 C11.62 39.428 11.652 40.165 11.684 40.924 C12.045 43.294 12.775 44.947 14 47 C19.583 50.964 26.802 52.751 33.26 54.799 C35.204 55.448 37.107 56.216 39 57 C39.33 57.99 39.66 58.98 40 60 C33.941 58.375 28.042 56.369 22.188 54.125 C21.554 53.893 20.92 53.661 20.267 53.421 C15.89 51.703 12.988 49.631 10 46 C10 45.01 10 44.02 10 43 C8.886 42.907 8.886 42.907 7.75 42.812 C4.132 41.744 3.062 40.092 1 37 C0.064 34.192 -0.188 32.205 -0.316 29.281 C-0.358 28.348 -0.4 27.415 -0.443 26.453 C-0.483 25.479 -0.522 24.504 -0.562 23.5 C-0.606 22.556 -0.649 21.613 -0.693 20.641 C-1.299 6.56 -1.299 6.56 -1 1 C-0.67 0.67 -0.34 0.34 0 0 Z " fill="#060606" transform="translate(81,149)"/>
<path d="M0 0 C0 0.99 0 1.98 0 3 C0.99 2.67 1.98 2.34 3 2 C3 2.66 3 3.32 3 4 C3.99 4.66 4.98 5.32 6 6 C5.093 6.371 4.185 6.743 3.25 7.125 C-1.132 9.653 -3.263 12.604 -4.75 17.438 C-4.832 18.283 -4.915 19.129 -5 20 C-5.103 20.99 -5.206 21.98 -5.312 23 C-5.138 31.876 -1.411 40.304 3.828 47.293 C5 49 5 49 5 51 C5.536 51.248 6.073 51.495 6.625 51.75 C9 53 9 53 11.688 55 C15.705 57.426 19.418 58.226 24 59 C24 58.34 24 57.68 24 57 C22.732 56.722 22.732 56.722 21.438 56.438 C13.14 52.968 8.148 44.991 4.812 36.938 C1.805 29.353 0.166 20.612 3.5 12.875 C3.995 11.926 4.49 10.977 5 10 C5.33 10.66 5.66 11.32 6 12 C5.67 12.66 5.34 13.32 5 14 C4.006 27.947 6.226 37.231 14.844 48.566 C17.722 51.815 20.816 54.629 25 56 C27.133 55.859 27.133 55.859 29 55 C32.103 50.517 33.16 47.275 33.562 41.875 C33.646 40.779 33.73 39.684 33.816 38.555 C33.907 37.29 33.907 37.29 34 36 C36.677 40.015 36.13 42.463 35.609 47.133 C34.708 51.376 32.959 54.818 30 58 C25.776 60.626 21.836 60.718 17 60 C7.427 56.862 1.762 50.687 -2.812 41.938 C-6.788 33.306 -8.856 24.124 -6.395 14.676 C-5.282 11.982 -4.064 10.064 -2 8 C-4.572 6.381 -5.677 5.956 -8.75 6.375 C-9.864 6.684 -9.864 6.684 -11 7 C-7.713 3.187 -4.603 1.77 0 0 Z " fill="#000000" transform="translate(103,140)"/>
<path d="M0 0 C3.623 2.174 4.289 4.53 5.5 8.5 C5.441 11.055 5.441 11.055 4.5 13.5 C1.848 15.082 1.848 15.082 -1.438 16.312 C-2.519 16.731 -3.601 17.15 -4.715 17.582 C-7.5 18.5 -7.5 18.5 -9.5 18.5 C-10.49 15.53 -11.48 12.56 -12.5 9.5 C-10.285 15.9 -10.285 15.9 -11.375 18.938 C-11.746 19.453 -12.118 19.969 -12.5 20.5 C-14.15 20.17 -15.8 19.84 -17.5 19.5 C-16.51 18.84 -15.52 18.18 -14.5 17.5 C-14.25 14.416 -14.25 14.416 -14.5 11.5 C-15.676 11.283 -15.676 11.283 -16.875 11.062 C-19.5 10.5 -19.5 10.5 -21.5 9.5 C-19.23 6.095 -19.155 6.282 -15.5 5.5 C-13.795 4.703 -12.108 3.867 -10.438 3 C-3.345 -0.669 -3.345 -0.669 0 0 Z " fill="#FFFFFF" transform="translate(189.5,86.5)"/>
<path d="M0 0 C-0.472 0.982 -0.944 1.965 -1.43 2.977 C-3.181 7.077 -3.723 10.962 -4.125 15.375 C-4.208 16.148 -4.291 16.921 -4.376 17.717 C-4.787 21.755 -5.045 25.754 -5.098 29.812 C-5.115 30.579 -5.132 31.346 -5.15 32.135 C-5.174 33.596 -5.17 35.057 -5.131 36.517 C-5.168 38.523 -5.168 38.523 -6 42 C-8.211 43.85 -10.339 44.773 -13 46 C-13.66 46.66 -14.32 47.32 -15 48 C-15.125 45.625 -15.125 45.625 -15 43 C-14.34 42.34 -13.68 41.68 -13 41 C-12.565 37.781 -12.565 37.781 -12.438 33.98 C-12.401 33.285 -12.364 32.589 -12.326 31.873 C-12.208 29.645 -12.103 27.416 -12 25.188 C-11.864 22.264 -11.717 19.341 -11.562 16.418 C-11.472 14.465 -11.472 14.465 -11.379 12.473 C-10.898 8.068 -9.913 5.165 -7.188 1.688 C-4.567 -0.334 -3.23 -0.359 0 0 Z " fill="#FFFFFF" transform="translate(97,35)"/>
<path d="M0 0 C11.625 6.208 20.326 16.914 25.27 29.125 C26.817 34.468 27.792 40.034 27.984 45.594 C27.324 46.254 26.664 46.914 25.984 47.594 C25.886 46.76 25.788 45.926 25.688 45.066 C24.738 37.924 23.447 31.921 19.984 25.594 C19.516 24.737 19.049 23.879 18.566 22.996 C15.802 18.171 13.014 14.393 8.984 10.594 C8.489 9.109 8.489 9.109 7.984 7.594 C5.969 6.861 5.969 6.861 3.984 6.594 C6.459 9.069 6.459 9.069 8.984 11.594 C8.654 12.254 8.324 12.914 7.984 13.594 C7.381 13.039 6.778 12.485 6.156 11.914 C5.357 11.19 4.558 10.465 3.734 9.719 C2.945 8.999 2.157 8.28 1.344 7.539 C-2.493 4.376 -5.319 3.359 -10.266 2.969 C-11.158 2.894 -12.05 2.819 -12.969 2.742 C-13.982 2.669 -13.982 2.669 -15.016 2.594 C-15.346 4.904 -15.676 7.214 -16.016 9.594 C-17.336 9.924 -18.656 10.254 -20.016 10.594 C-19.356 10.264 -18.696 9.934 -18.016 9.594 C-18.098 8.686 -18.181 7.779 -18.266 6.844 C-18.016 3.594 -18.016 3.594 -16.016 1.219 C-15.356 0.682 -14.696 0.146 -14.016 -0.406 C-19.271 0.006 -22.388 0.663 -26.016 4.594 C-28.917 9.937 -29.614 15.604 -30.016 21.594 C-30.676 21.594 -31.336 21.594 -32.016 21.594 C-32.515 14.846 -31.413 9.509 -28.016 3.594 C-19.905 -5.531 -10.489 -4.792 0 0 Z " fill="#0D0D0D" transform="translate(129.015625,48.40625)"/>
<path d="M0 0 C4.226 0.197 5.702 0.702 8.75 3.75 C13.062 9.979 13.178 13.694 12 21 C10.68 21.33 9.36 21.66 8 22 C8.021 20.886 8.041 19.773 8.062 18.625 C8.264 15.168 8.264 15.168 7 13 C7 15.97 7 18.94 7 22 C6.67 22 6.34 22 6 22 C6 19.69 6 17.38 6 15 C4.564 14.494 3.126 13.996 1.688 13.5 C0.887 13.222 0.086 12.943 -0.738 12.656 C-3.088 11.861 -3.088 11.861 -6 12 C-4.02 12.99 -2.04 13.98 0 15 C-1.188 16.562 -1.188 16.562 -3 18 C-5.688 17.688 -5.688 17.688 -8 17 C-9.188 13.435 -9.263 10.744 -9 7 C-7.812 4.625 -7.812 4.625 -6 3 C-3.375 2.375 -3.375 2.375 -1 2 C-0.67 1.34 -0.34 0.68 0 0 Z " fill="#FCFCFC" transform="translate(195,211)"/>
<path d="M0 0 C10.42 4.998 16.481 14.656 21 25 C21.348 25.77 21.696 26.539 22.055 27.332 C24.179 33.329 25.099 41.072 23 47.188 C20.413 50.825 18.316 51.267 14 52 C14.523 49.237 15.109 46.674 16 44 C16.755 34.018 15.658 26.357 12 17 C11.642 15.673 11.298 14.342 11 13 C9.35 13.33 7.7 13.66 6 14 C5 11 5 11 5.621 9.047 C6.254 6.921 6.254 6.921 4.785 5.078 C4.217 4.475 3.648 3.872 3.062 3.25 C2.497 2.636 1.931 2.023 1.348 1.391 C0.903 0.932 0.458 0.473 0 0 Z " fill="#FFFFFF" transform="translate(131,53)"/>
<path d="M0 0 C1.63 0.406 1.63 0.406 3.293 0.82 C14.772 3.74 26.063 7.202 37.337 10.826 C39.691 11.581 42.048 12.331 44.404 13.08 C48.945 14.524 53.483 15.977 58.02 17.436 C59.83 18.017 61.64 18.597 63.452 19.175 C66.008 19.992 68.561 20.817 71.113 21.645 C71.88 21.888 72.647 22.132 73.436 22.382 C77.442 23.692 80.901 25.139 84.438 27.5 C80.418 28.84 77.749 27.555 73.895 26.254 C73.143 26.008 72.391 25.762 71.616 25.508 C69.158 24.701 66.704 23.882 64.25 23.062 C62.552 22.503 60.854 21.945 59.155 21.388 C51.945 19.017 44.746 16.614 37.562 14.164 C-0.151 0.599 -0.151 0.599 -38.562 5.5 C-39.889 5.859 -41.22 6.208 -42.562 6.5 C-38.405 1.208 -31.935 -0.639 -25.625 -2.25 C-16.653 -2.982 -8.714 -2.227 0 0 Z " fill="#000000" transform="translate(146.5625,20.5)"/>
<path d="M0 0 C2.797 2.068 3.027 3.144 3.688 6.688 C3.791 7.781 3.894 8.874 4 10 C4.66 10 5.32 10 6 10 C6 10.66 6 11.32 6 12 C2.629 13.498 0.796 14 -3 14 C-3 18.29 -3 22.58 -3 27 C-3.33 27 -3.66 27 -4 27 C-4.33 22.38 -4.66 17.76 -5 13 C-7.351 13.773 -7.351 13.773 -9.75 14.562 C-13.235 15.709 -15.523 16.383 -19 15 C-19.66 14.34 -20.32 13.68 -21 13 C-20.36 10.118 -19.653 8.433 -17.156 6.777 C-11.661 4 -11.661 4 -9 4 C-8.67 3.01 -8.34 2.02 -8 1 C-5.69 1.33 -3.38 1.66 -1 2 C-0.67 1.34 -0.34 0.68 0 0 Z " fill="#333333" transform="translate(86,136)"/>
<path d="M0 0 C10.507 4.53 15.391 16.479 19.375 26.438 C20.428 32.442 21.189 39.413 19.242 45.285 C17.668 47.458 16.407 47.933 13.875 48.75 C13.151 48.992 12.426 49.235 11.68 49.484 C11.125 49.655 10.571 49.825 10 50 C10.217 49.334 10.433 48.667 10.656 47.98 C14.386 35.633 13.209 26.027 9 14 C7.35 13.67 5.7 13.34 4 13 C4.083 11.969 4.165 10.938 4.25 9.875 C3.962 5.41 2.714 3.477 0 0 Z " fill="#FFFFFF" transform="translate(181,121)"/>
<path d="M0 0 C0.99 0.33 1.98 0.66 3 1 C3 1.66 3 2.32 3 3 C3.66 3 4.32 3 5 3 C13.854 13.628 19.609 25.05 19.469 39.125 C18.931 42.425 18.036 44.356 16 47 C12.312 48.312 12.312 48.312 9 49 C9.217 48.238 9.433 47.476 9.656 46.691 C12.757 35.194 12.191 27.426 9 16 C8.662 14.668 8.327 13.335 8 12 C6.35 12 4.7 12 3 12 C3.093 10.639 3.093 10.639 3.188 9.25 C2.98 5.656 2.275 4.655 0 2 C0 1.34 0 0.68 0 0 Z " fill="#FFFFFF" transform="translate(240,185)"/>
<path d="M0 0 C6.095 0.239 6.095 0.239 8.543 2.297 C11.882 6.252 13.145 9.409 13.188 14.5 C13.202 15.273 13.216 16.047 13.23 16.844 C13 19 13 19 11 22 C10.34 22 9.68 22 9 22 C8.801 20.645 8.801 20.645 8.598 19.262 C8.421 18.082 8.244 16.903 8.062 15.688 C7.888 14.516 7.714 13.344 7.535 12.137 C7.079 8.984 7.079 8.984 6 6 C5.802 8.961 5.802 8.961 7 11.312 C8.136 14.365 8.15 16.769 8 20 C7.67 20 7.34 20 7 20 C6.96 19.233 6.92 18.466 6.879 17.676 C6.242 14.737 6.242 14.737 3.277 13.418 C2.175 13.012 1.073 12.606 -0.062 12.188 C-1.167 11.769 -2.272 11.35 -3.41 10.918 C-4.692 10.464 -4.692 10.464 -6 10 C-5.01 11.32 -4.02 12.64 -3 14 C-3.99 15.32 -4.98 16.64 -6 18 C-8.829 15.171 -8.733 12.932 -9 9 C-7.965 5.118 -7.416 4.278 -4 2 C-2.68 2 -1.36 2 0 2 C0 1.34 0 0.68 0 0 Z " fill="#FFFFFF" transform="translate(88,84)"/>
<path d="M0 0 C2.965 0.138 5.212 0.289 7.477 2.332 C11.118 6.708 12.127 9.037 12.062 14.625 C12.053 15.628 12.044 16.631 12.035 17.664 C12.024 18.435 12.012 19.206 12 20 C10.02 20.99 10.02 20.99 8 22 C7.879 21.18 7.758 20.36 7.633 19.516 C7.465 18.438 7.298 17.36 7.125 16.25 C6.963 15.183 6.8 14.115 6.633 13.016 C6.068 10.323 5.366 8.364 4 6 C4.33 6.743 4.66 7.485 5 8.25 C6 11 6 11 6 15 C4.582 14.546 3.166 14.086 1.75 13.625 C0.961 13.37 0.172 13.115 -0.641 12.852 C-2.866 12.048 -4.909 11.103 -7 10 C-7 10.66 -7 11.32 -7 12 C-6.34 12.33 -5.68 12.66 -5 13 C-6.98 13.99 -6.98 13.99 -9 15 C-9.956 11.348 -10.103 9.322 -8.938 5.688 C-7 3 -7 3 -3.875 2.25 C-2.926 2.167 -1.977 2.085 -1 2 C-0.67 1.34 -0.34 0.68 0 0 Z " fill="#FFFFFF" transform="translate(142,146)"/>
<path d="M0 0 C2.223 1.254 2.223 1.254 3.598 2.941 C4.485 6.224 3.857 8.953 3.223 12.254 C-1.067 13.904 -5.357 15.554 -9.777 17.254 C-9.94 15.333 -10.103 13.413 -10.266 11.492 C-10.908 8.684 -12.211 6.652 -13.777 4.254 C-12.059 3.357 -10.327 2.487 -8.59 1.629 C-7.627 1.142 -6.664 0.654 -5.672 0.152 C-2.777 -0.746 -2.777 -0.746 0 0 Z " fill="#FFFFFF" transform="translate(183.77734375,194.74609375)"/>
<path d="M0 0 C1.274 1.47 2.544 2.945 3.758 4.465 C5.073 6.091 6.482 7.562 8 9 C7 12 7 12 4.785 13.168 C3.887 13.504 2.988 13.841 2.062 14.188 C1.167 14.532 0.271 14.876 -0.652 15.23 C-3 16 -3 16 -5 16 C-5.99 13.03 -6.98 10.06 -8 7 C-8.66 7.66 -9.32 8.32 -10 9 C-13.125 9.125 -13.125 9.125 -16 9 C-15.34 7.68 -14.68 6.36 -14 5 C-12.68 5.33 -11.36 5.66 -10 6 C-9.67 5.01 -9.34 4.02 -9 3 C-2.889 0 -2.889 0 0 0 Z " fill="#FFFFFF" transform="translate(95,130)"/>
<path d="M0 0 C4.498 0.273 7.131 2.193 10.352 5.133 C14.134 9.417 16.176 14.481 16.438 20.188 C15.987 24.116 15.022 26.63 13 30 C11.905 26.715 11.9 24.263 11.938 20.812 C11.947 19.726 11.956 18.639 11.965 17.52 C11.976 16.688 11.988 15.857 12 15 C11.34 15 10.68 15 10 15 C9.67 15.66 9.34 16.32 9 17 C8.34 14.69 7.68 12.38 7 10 C7.66 10 8.32 10 9 10 C8.01 9.01 7.02 8.02 6 7 C5.67 7.66 5.34 8.32 5 9 C4.629 8.526 4.257 8.051 3.875 7.562 C1.316 5.43 -0.715 5.268 -4 5 C-6.277 5.358 -6.277 5.358 -8 6 C-8 5.34 -8 4.68 -8 4 C-2.25 2 -2.25 2 0 2 C0 1.34 0 0.68 0 0 Z " fill="#F6F6F6" transform="translate(146,140)"/>
<path d="M0 0 C0.33 0.66 0.66 1.32 1 2 C2.65 2 4.3 2 6 2 C5.505 2.598 5.01 3.196 4.5 3.812 C2.302 8.483 2.76 12.92 3 18 C-0.804 15.928 -3.465 13.693 -6.312 10.438 C-7.01 9.652 -7.707 8.867 -8.426 8.059 C-10 6 -10 6 -10 4 C-6.7 2.68 -3.4 1.36 0 0 Z " fill="#FFFFFF" transform="translate(182,210)"/>
<path d="M0 0 C4.499 0.273 7.134 2.193 10.352 5.137 C14.884 10.26 16.691 16.268 16.406 23.047 C15.804 25.941 14.35 27.311 12 29 C12.035 28.383 12.07 27.765 12.105 27.129 C12.303 20.934 11.657 15.656 9 10 C8.34 9.34 7.68 8.68 7 8 C6.67 8.66 6.34 9.32 6 10 C5.175 9.175 4.35 8.35 3.5 7.5 C0.837 5.239 -0.884 4.656 -4.375 4.688 C-5.571 4.791 -6.767 4.894 -8 5 C-7.67 4.34 -7.34 3.68 -7 3 C-3.769 2.138 -1.775 1.694 1.375 2.938 C1.911 3.288 2.448 3.639 3 4 C3 3.34 3 2.68 3 2 C2.01 2 1.02 2 0 2 C0 1.34 0 0.68 0 0 Z " fill="#FBFBFB" transform="translate(93,78)"/>
<path d="M0 0 C0.66 0 1.32 0 2 0 C4.64 12.21 7.28 24.42 10 37 C10 35.68 10 34.36 10 33 C10.66 33 11.32 33 12 33 C13.292 37.12 14.263 40.668 14 45 C13.34 44.67 12.68 44.34 12 44 C12.277 45.146 12.554 46.292 12.84 47.473 C13.206 49.003 13.572 50.533 13.938 52.062 C14.12 52.815 14.302 53.567 14.49 54.342 C15.572 58.884 16.416 63.367 17 68 C16.34 67.67 15.68 67.34 15 67 C14.249 64.667 13.621 62.389 13.047 60.012 C12.866 59.289 12.685 58.567 12.499 57.822 C11.907 55.446 11.328 53.067 10.75 50.688 C10.348 49.055 9.946 47.422 9.543 45.789 C0 6.837 0 6.837 0 0 Z " fill="#000000" transform="translate(263,110)"/>
<path d="M0 0 C-3.75 2 -3.75 2 -6 2 C-5.67 3.32 -5.34 4.64 -5 6 C-7.97 7.32 -10.94 8.64 -14 10 C-14 10.66 -14 11.32 -14 12 C-15.65 12 -17.3 12 -19 12 C-19 14.621 -18.687 16.509 -18 19 C-18.66 19 -19.32 19 -20 19 C-20.33 19.99 -20.66 20.98 -21 22 C-21.33 21.01 -21.66 20.02 -22 19 C-22.66 19 -23.32 19 -24 19 C-23.67 20.32 -23.34 21.64 -23 23 C-23.66 22.67 -24.32 22.34 -25 22 C-25.66 22.99 -26.32 23.98 -27 25 C-27.66 24.34 -28.32 23.68 -29 23 C-29.33 23.99 -29.66 24.98 -30 26 C-30.99 24.35 -31.98 22.7 -33 21 C-30.819 19.223 -29.14 18.045 -26.438 17.188 C-23.714 16.198 -23.714 16.198 -22.875 13.188 C-19.981 8.268 -15.249 6.856 -10 5 C-9.34 5 -8.68 5 -8 5 C-7.732 4.196 -7.464 3.391 -7.188 2.562 C-6.796 1.717 -6.404 0.871 -6 0 C-3 -1 -3 -1 0 0 Z " fill="#020202" transform="translate(189,82)"/>
<path d="M0 0 C4.051 0.238 6.43 0.563 9.688 3.062 C14.739 9.479 16.445 14.358 16.434 22.582 C15.935 25.362 15.173 26.265 13 28 C12.914 26.926 12.827 25.852 12.738 24.746 C11.816 13.926 11.816 13.926 6 5 C5.01 5.33 4.02 5.66 3 6 C2.34 5.67 1.68 5.34 1 5 C-0.54 4.93 -2.083 4.915 -3.625 4.938 C-4.442 4.947 -5.26 4.956 -6.102 4.965 C-6.728 4.976 -7.355 4.988 -8 5 C-6.73 3.48 -6.73 3.48 -5 2 C-1.312 2.312 -1.312 2.312 2 3 C2 2.34 2 1.68 2 1 C1.34 0.67 0.68 0.34 0 0 Z " fill="#FFFFFF" transform="translate(199,206)"/>
<path d="M0 0 C0 0.66 0 1.32 0 2 C-0.99 2.66 -1.98 3.32 -3 4 C-2.01 4.66 -1.02 5.32 0 6 C-3.63 6 -7.26 6 -11 6 C-11.66 7.65 -12.32 9.3 -13 11 C-13.514 11.503 -14.029 12.005 -14.559 12.523 C-16.448 14.459 -16.62 15.984 -17.062 18.625 C-17.473 21.039 -17.473 21.039 -18 23 C-18.66 23.33 -19.32 23.66 -20 24 C-20.279 22.296 -20.522 20.586 -20.75 18.875 C-20.889 17.924 -21.028 16.972 -21.172 15.992 C-20.936 11.887 -19.66 10.112 -17 7 C-14.609 5.488 -12.477 4.285 -9.938 3.125 C-9.313 2.818 -8.688 2.511 -8.045 2.195 C-5.184 0.827 -3.208 0 0 0 Z " fill="#171717" transform="translate(104,26)"/>
<path d="M0 0 C0.99 1.32 1.98 2.64 3 4 C7.104 3.427 10.067 2.573 14 1 C16.64 4.96 19.28 8.92 22 13 C20 14 20 14 18.168 13.487 C17.444 13.195 16.719 12.903 15.973 12.602 C15.181 12.287 14.388 11.972 13.572 11.648 C12.744 11.311 11.916 10.973 11.062 10.625 C9.429 9.971 7.794 9.317 6.16 8.664 C5.434 8.37 4.709 8.075 3.961 7.772 C2.327 7.129 0.666 6.555 -1 6 C-0.67 4.02 -0.34 2.04 0 0 Z " fill="#FFFFFF" transform="translate(150,212)"/>
<path d="M0 0 C1.267 2.281 2.019 4.103 2.5 6.688 C2.665 7.451 2.83 8.214 3 9 C3.66 9.33 4.32 9.66 5 10 C6.188 13.495 6.855 17.143 7.625 20.75 C7.851 21.792 8.077 22.835 8.309 23.908 C9.854 31.401 10.661 38.343 10 46 C7.567 42.35 6.924 38.793 6.055 34.57 C5.793 33.329 5.793 33.329 5.525 32.063 C5.157 30.314 4.793 28.564 4.431 26.813 C3.878 24.14 3.313 21.471 2.746 18.801 C2.39 17.099 2.034 15.397 1.68 13.695 C1.427 12.501 1.427 12.501 1.168 11.283 C0.386 7.46 -0.211 3.928 0 0 Z " fill="#7A7A7A" transform="translate(264,105)"/>
<path d="M0 0 C0 0.66 0 1.32 0 2 C-0.66 2 -1.32 2 -2 2 C-2.33 2.99 -2.66 3.98 -3 5 C-8.222 4.45 -13.03 3.724 -18 2 C-18.33 1.34 -18.66 0.68 -19 0 C-18.34 -0.33 -17.68 -0.66 -17 -1 C-20.63 -1.33 -24.26 -1.66 -28 -2 C-28 -2.33 -28 -2.66 -28 -3 C-18.084 -4.419 -9.406 -3.559 0 0 Z " fill="#474747" transform="translate(121,35)"/>
<path d="M0 0 C0.99 0 1.98 0 3 0 C3 1.98 3 3.96 3 6 C5.874 3.284 5.874 3.284 8 0 C8.99 0 9.98 0 11 0 C12.125 7.625 12.125 7.625 11 11 C10.01 11 9.02 11 8 11 C8 10.01 8 9.02 8 8 C6.35 8 4.7 8 3 8 C2.67 8.99 2.34 9.98 2 11 C1.67 10.01 1.34 9.02 1 8 C-0.65 8 -2.3 8 -4 8 C-2.875 5.028 -1.777 2.666 0 0 Z " fill="#070707" transform="translate(319,270)"/>
<path d="M0 0 C0.66 0.33 1.32 0.66 2 1 C2 1.99 2 2.98 2 4 C1.34 4 0.68 4 0 4 C0.99 5.485 0.99 5.485 2 7 C2 7.99 2 8.98 2 10 C-0.739 11.37 -2.971 11.126 -6 11 C-6.66 10.67 -7.32 10.34 -8 10 C-8 9.01 -8 8.02 -8 7 C-7.34 6.67 -6.68 6.34 -6 6 C-6.66 5.67 -7.32 5.34 -8 5 C-8 3.68 -8 2.36 -8 1 C-4.925 -0.867 -3.399 -1.246 0 0 Z " fill="#101010" transform="translate(132,231)"/>
<path d="M0 0 C5.684 4.168 5.684 4.168 6.371 8.504 C6.352 9.637 6.332 10.77 6.312 11.938 C6.311 13.073 6.31 14.209 6.309 15.379 C5.875 18.375 5.875 18.375 4.484 20.297 C2.875 21.375 2.875 21.375 0.688 21.062 C0.089 20.836 -0.509 20.609 -1.125 20.375 C0.195 19.715 1.515 19.055 2.875 18.375 C2.725 11.709 2.725 11.709 0.125 5.75 C-2.521 4.133 -4.077 4.036 -7.125 4.375 C-7.455 3.385 -7.785 2.395 -8.125 1.375 C-2.771 -0.815 -2.771 -0.815 0 0 Z " fill="#656565" transform="translate(191.125,82.625)"/>
<path d="M0 0 C-3.488 3.811 -7.845 5.765 -12.375 8.125 C-13.226 8.58 -14.077 9.035 -14.953 9.504 C-16.194 10.156 -16.194 10.156 -17.461 10.82 C-18.212 11.215 -18.962 11.61 -19.736 12.016 C-22.207 13.09 -24.316 13.733 -27 14 C-27.99 13.34 -28.98 12.68 -30 12 C-25.945 9.984 -21.88 7.99 -17.812 6 C-16.662 5.428 -15.512 4.855 -14.326 4.266 C-13.214 3.724 -12.103 3.183 -10.957 2.625 C-9.936 2.122 -8.915 1.62 -7.863 1.102 C-4.992 -0.003 -3.04 -0.234 0 0 Z " fill="#FFFFFF" transform="translate(134,213)"/>
<path d="M0 0 C8.571 0.857 8.571 0.857 12 3 C10.779 6.663 9.133 7.35 5.887 9.23 C4 10 4 10 0 10 C0 6.7 0 3.4 0 0 Z " fill="#FFFFFF" transform="translate(103,230)"/>
<path d="M0 0 C2.17 3.254 3.361 6.525 4.625 10.188 C4.854 10.842 5.084 11.496 5.32 12.17 C5.884 13.779 6.442 15.389 7 17 C4.36 17.99 1.72 18.98 -1 20 C-0.67 13.4 -0.34 6.8 0 0 Z " fill="#FFFFFF" transform="translate(153,189)"/>
<path d="M0 0 C0.66 0 1.32 0 2 0 C2.851 4.487 3.307 7.062 1.875 11.438 C0 14 0 14 -2.5 14.938 C-5 15 -5 15 -8 14 C-9.987 14.568 -9.987 14.568 -12 15.5 C-15.667 17.111 -15.667 17.111 -19 16 C-16.752 14.849 -14.502 13.704 -12.25 12.562 C-11.616 12.237 -10.982 11.912 -10.328 11.576 C-7.266 10.029 -4.394 8.608 -1 8 C-1.33 8.99 -1.66 9.98 -2 11 C-2 11.33 -2 11.66 -2 12 C-1.34 12 -0.68 12 0 12 C0 8.04 0 4.08 0 0 Z " fill="#000000" transform="translate(196,91)"/>
<path d="M0 0 C2.571 2.571 2.801 4.605 3.625 8.125 C3.885 9.221 4.146 10.316 4.414 11.445 C4.704 12.71 4.704 12.71 5 14 C-3.571 13.143 -3.571 13.143 -7 11 C-5.824 10.227 -5.824 10.227 -4.625 9.438 C-1.444 6.484 -0.885 4.184 0 0 Z " fill="#FFFFFF" transform="translate(295,237)"/>
<path d="M0 0 C3.125 -0.438 3.125 -0.438 7 0 C9.545 1.965 11.549 4.121 13 7 C12.656 9.234 12.656 9.234 12 11 C9 10 9 10 8 8.062 C7.67 7.382 7.34 6.701 7 6 C3.565 3.71 2.015 3.822 -2 4 C-1.34 2.68 -0.68 1.36 0 0 Z " fill="#464646" transform="translate(178,190)"/>
<path d="M0 0 C5.75 1.875 5.75 1.875 8 3 C8.33 2.34 8.66 1.68 9 1 C10.32 2.65 11.64 4.3 13 6 C12.67 6.66 12.34 7.32 12 8 C11.895 10.211 11.895 10.211 13 13 C13.365 17.933 13.196 21.093 10 25 C9.01 25 8.02 25 7 25 C7.486 24.615 7.972 24.229 8.473 23.832 C11.036 20.757 10.466 17.581 10.344 13.73 C9.854 9.836 8.734 7.804 6 5 C3.688 3.703 1.524 2.874 -1 2 C-0.67 1.34 -0.34 0.68 0 0 Z " fill="#030303" transform="translate(143,144)"/>
<path d="M0 0 C1.32 1.65 2.64 3.3 4 5 C4.598 5.681 5.196 6.361 5.812 7.062 C7 9 7 9 7.062 11.125 C6 13 6 13 0 15 C0 10.05 0 5.1 0 0 Z " fill="#FFFFFF" transform="translate(84,117)"/>
<path d="M0 0 C4.706 0.706 4.706 0.706 6 2 C6.263 6.032 6.294 7.559 4 11 C2.35 10.67 0.7 10.34 -1 10 C-1 9.34 -1 8.68 -1 8 C0.32 8 1.64 8 3 8 C1.68 7.34 0.36 6.68 -1 6 C-1.043 4.334 -1.041 2.666 -1 1 C-0.67 0.67 -0.34 0.34 0 0 Z " fill="#222222" transform="translate(301,270)"/>
<path d="M0 0 C0.66 1.77 0.66 1.77 1 4 C-1.116 7.976 -3.85 10.632 -8.125 12 C-10.661 12 -12.614 11.826 -15 11 C-14.237 10.752 -13.474 10.505 -12.688 10.25 C-9.919 9.219 -9.919 9.219 -8.5 7 C-6.624 4.499 -4.871 4.104 -2 3 C-1.34 2.01 -0.68 1.02 0 0 Z " fill="#414141" transform="translate(201,164)"/>
<path d="M0 0 C0.99 0.495 0.99 0.495 2 1 C2.625 3.062 2.625 3.062 3 5 C3.66 4.67 4.32 4.34 5 4 C6.191 9.38 7.292 14.453 7 20 C6.67 20 6.34 20 6 20 C6 18.35 6 16.7 6 15 C5.34 15 4.68 15 4 15 C4 15.66 4 16.32 4 17 C3.34 17 2.68 17 2 17 C1.14 11.349 0.538 5.691 0 0 Z " fill="#9E9E9E" transform="translate(253,62)"/>
<path d="M0 0 C0.75 1.625 0.75 1.625 1 4 C-0.717 7.302 -2.087 9.457 -5.312 11.375 C-8.602 12.14 -11.634 12.132 -15 12 C-12 10 -12 10 -9.938 9.625 C-7.81 9.19 -7.81 9.19 -7 7.062 C-6.505 6.042 -6.505 6.042 -6 5 C-4.684 4.301 -3.35 3.633 -2 3 C-1.34 2.01 -0.68 1.02 0 0 Z " fill="#4C4C4C" transform="translate(259,227)"/>
<path d="M0 0 C-5.445 2.475 -5.445 2.475 -11 5 C-10.01 6.65 -9.02 8.3 -8 10 C-7.312 13.312 -7.312 13.312 -7 16 C-7.66 16.33 -8.32 16.66 -9 17 C-9.17 16.385 -9.34 15.77 -9.516 15.137 C-10.967 10.027 -10.967 10.027 -14.188 5.938 C-14.786 5.628 -15.384 5.319 -16 5 C-5.846 -1.462 -5.846 -1.462 0 0 Z " fill="#000000" transform="translate(182,194)"/>
<path d="M0 0 C1.578 0.464 1.578 0.464 3.188 0.938 C3.518 1.597 3.847 2.257 4.188 2.938 C-0.268 3.433 -0.268 3.433 -4.812 3.938 C-5.215 5.639 -5.215 5.639 -5.625 7.375 C-6.017 8.551 -6.409 9.726 -6.812 10.938 C-7.803 11.267 -8.792 11.597 -9.812 11.938 C-10.188 8.75 -10.188 8.75 -9.812 4.938 C-6.57 1.141 -5.048 -0.083 0 0 Z " fill="#282828" transform="translate(165.8125,113.0625)"/>
<path d="M0 0 C3.131 3.131 2.97 5.53 3.25 9.938 C3.172 13.735 2.686 16.141 0 19 C-3.688 19.812 -3.688 19.812 -7 20 C-3 16 -3 16 -1.375 14.781 C0.73 12.054 0.288 9.69 0.188 6.312 C0.16 5.133 0.133 3.954 0.105 2.738 C0.071 1.835 0.036 0.931 0 0 Z " fill="#FFFFFF" transform="translate(208,218)"/>
<path d="M0 0 C0 2.64 0 5.28 0 8 C-3.3 7.01 -6.6 6.02 -10 5 C-3.333 0 -3.333 0 0 0 Z " fill="#FFFFFF" transform="translate(116,240)"/>
<path d="M0 0 C-1 3 -1 3 -3.438 5.312 C-8.244 10.353 -8.438 16.347 -9 23 C-9.66 23 -10.32 23 -11 23 C-11.539 15.718 -10.156 9.211 -5.691 3.254 C-2.585 0 -2.585 0 0 0 Z " fill="#000000" transform="translate(108,47)"/>
<path d="M0 0 C2.64 0 5.28 0 8 0 C8 0.99 8 1.98 8 3 C7.01 3 6.02 3 5 3 C5 5.97 5 8.94 5 12 C4.34 12 3.68 12 3 12 C3 9.03 3 6.06 3 3 C1.68 2.67 0.36 2.34 -1 2 C-0.67 1.34 -0.34 0.68 0 0 Z " fill="#000000" transform="translate(287,269)"/>
<path d="M0 0 C0 0.66 0 1.32 0 2 C-2.706 3.296 -5.415 4.587 -8.125 5.875 C-8.886 6.24 -9.646 6.605 -10.43 6.98 C-14.559 8.938 -18.615 10.669 -23 12 C-19.468 7.806 -15.262 5.964 -10.375 3.75 C-9.211 3.205 -9.211 3.205 -8.023 2.648 C-2.288 0 -2.288 0 0 0 Z " fill="#000000" transform="translate(142,219)"/>
<path d="M0 0 C1.923 3.174 2.193 4.953 1.375 8.562 C0.635 11.429 0.165 12.812 -1.812 15.062 C-4.368 16.158 -6.247 16.229 -9 16 C-7.396 14.315 -5.945 12.966 -3.969 11.719 C-1.455 9.525 -1.257 8.067 -0.75 4.812 C-0.6 3.911 -0.451 3.01 -0.297 2.082 C-0.199 1.395 -0.101 0.708 0 0 Z " fill="#FFFFFF" transform="translate(156,157)"/>
<path d="M0 0 C0.33 0 0.66 0 1 0 C1.33 1.98 1.66 3.96 2 6 C2.33 6 2.66 6 3 6 C3.082 10.161 2.982 13.947 2 18 C1.67 18 1.34 18 1 18 C1 16.02 1 14.04 1 12 C0.34 12 -0.32 12 -1 12 C-1.027 10.188 -1.046 8.375 -1.062 6.562 C-1.074 5.553 -1.086 4.544 -1.098 3.504 C-1 1 -1 1 0 0 Z " fill="#000000" transform="translate(83,43)"/>
<path d="M0 0 C2.265 1.661 4.121 3.167 5.875 5.375 C5.625 7.625 5.625 7.625 4.875 9.375 C4.256 8.571 3.637 7.766 3 6.938 C1.133 4.336 1.133 4.336 -1.125 3.375 C-3.458 3.335 -5.792 3.332 -8.125 3.375 C-8.125 2.715 -8.125 2.055 -8.125 1.375 C-2.771 -0.815 -2.771 -0.815 0 0 Z " fill="#898989" transform="translate(191.125,82.625)"/>
<path d="M0 0 C0.33 0 0.66 0 1 0 C1.081 1.749 1.139 3.5 1.188 5.25 C1.222 6.225 1.257 7.199 1.293 8.203 C0.956 11.418 0.233 12.703 -2 15 C-4.562 15.875 -4.562 15.875 -7 16 C-7.66 15.34 -8.32 14.68 -9 14 C-8.051 13.588 -7.103 13.175 -6.125 12.75 C-2.862 10.923 -2.057 10.461 -1 7 C-0.613 4.675 -0.27 2.341 0 0 Z " fill="#FFFFFF" transform="translate(103,95)"/>
<path d="M0 0 C0 0.66 0 1.32 0 2 C-2.287 3.197 -4.579 4.383 -6.875 5.562 C-7.526 5.905 -8.177 6.247 -8.848 6.6 C-10.535 7.461 -12.266 8.237 -14 9 C-14.66 8.67 -15.32 8.34 -16 8 C-11.881 4.28 -5.793 0 0 0 Z " fill="#000000" transform="translate(139,240)"/>
<path d="M0 0 C4.586 1.448 4.586 1.448 6.312 3.75 C7.175 6.571 7.133 9.068 7 12 C6.01 12.33 5.02 12.66 4 13 C4 10.36 4 7.72 4 5 C2.68 4.34 1.36 3.68 0 3 C0 2.01 0 1.02 0 0 Z " fill="#FFFFFF" transform="translate(166,200)"/>
<path d="M0 0 C2.625 -0.188 2.625 -0.188 5 0 C5.66 1.32 6.32 2.64 7 4 C6.031 3.814 5.061 3.629 4.062 3.438 C3.052 3.293 2.041 3.149 1 3 C-0.813 4.813 -0.676 7.612 -1.062 10.062 C-1.239 11.167 -1.416 12.272 -1.598 13.41 C-1.73 14.265 -1.863 15.119 -2 16 C-2.33 16 -2.66 16 -3 16 C-2.886 13.895 -2.758 11.791 -2.625 9.688 C-2.555 8.516 -2.486 7.344 -2.414 6.137 C-2 3 -2 3 0 0 Z " fill="#FFFFFF" transform="translate(148,182)"/>
<path d="M0 0 C0.66 0 1.32 0 2 0 C3.477 7.262 3.477 7.262 1.062 11 C0.382 11.66 -0.299 12.32 -1 13 C-1.99 12.67 -2.98 12.34 -4 12 C-3.34 11.505 -2.68 11.01 -2 10.5 C0.883 6.897 0.302 4.53 0 0 Z " fill="#000000" transform="translate(292,234)"/>
<path d="M0 0 C0 3.63 0 7.26 0 11 C-0.66 11 -1.32 11 -2 11 C-2 8.69 -2 6.38 -2 4 C-2.99 3.67 -3.98 3.34 -5 3 C-2.25 0 -2.25 0 0 0 Z " fill="#000000" transform="translate(313,270)"/>
<path d="M0 0 C3.653 1.25 4.781 1.671 7 5 C7.125 7.688 7.125 7.688 7 10 C4.398 7.528 2.141 4.88 0 2 C0 1.34 0 0.68 0 0 Z " fill="#424242" transform="translate(201,211)"/>
<path d="M0 0 C0.99 0.33 1.98 0.66 3 1 C2.886 2.48 2.759 3.959 2.625 5.438 C2.521 6.673 2.521 6.673 2.414 7.934 C2.277 8.616 2.141 9.297 2 10 C1.01 10.495 1.01 10.495 0 11 C-0.194 9.355 -0.38 7.709 -0.562 6.062 C-0.667 5.146 -0.771 4.229 -0.879 3.285 C-0.919 2.531 -0.959 1.777 -1 1 C-0.67 0.67 -0.34 0.34 0 0 Z " fill="#424242" transform="translate(84,39)"/>
<path d="M0 0 C0.66 1.32 1.32 2.64 2 4 C-0.812 5.562 -0.812 5.562 -4 7 C-4.99 6.67 -5.98 6.34 -7 6 C-4.69 4.02 -2.38 2.04 0 0 Z " fill="#0A0A0A" transform="translate(108,104)"/>
<path d="M0 0 C1.65 0.33 3.3 0.66 5 1 C3.812 3.5 3.812 3.5 2 6 C-0.688 6.312 -0.688 6.312 -3 6 C-2.67 4.68 -2.34 3.36 -2 2 C-1.34 2 -0.68 2 0 2 C0 1.34 0 0.68 0 0 Z " fill="#000000" transform="translate(121,35)"/>
<path d="M0 0 C0 0.66 0 1.32 0 2 C-6.625 5.125 -6.625 5.125 -10 4 C-3.375 0 -3.375 0 0 0 Z " fill="#000000" transform="translate(182,209)"/>
<path d="M0 0 C3.683 2.455 3.946 3.785 5 8 C5.125 11.375 5.125 11.375 5 14 C0 4.385 0 4.385 0 0 Z " fill="#000000" transform="translate(145,151)"/>
<path d="M0 0 C0.66 0.33 1.32 0.66 2 1 C2 3.31 2 5.62 2 8 C0.35 8.33 -1.3 8.66 -3 9 C-3 8.34 -3 7.68 -3 7 C-2.01 7 -1.02 7 0 7 C0 4.69 0 2.38 0 0 Z " fill="#FFFFFF" transform="translate(86,139)"/>
</svg>
