<?xml version="1.0" encoding="UTF-8"?>
<!-- Generator: visioncortex VTracer 0.6.4 -->
<svg version="1.1" xmlns="http://www.w3.org/2000/svg" width="325" height="311">
<path d="M0 0 C107.25 0 214.5 0 325 0 C325 102.63 325 205.26 325 311 C217.75 311 110.5 311 0 311 C0 208.37 0 105.74 0 0 Z " fill="#FBFBFB" transform="translate(0,0)"/>
<path d="M0 0 C0 0.66 0 1.32 0 2 C0.639 2.268 1.279 2.536 1.938 2.812 C4 4 4 4 5 7 C5.66 7 6.32 7 7 7 C7 7.66 7 8.32 7 9 C7.639 9.268 8.279 9.536 8.938 9.812 C11 11 11 11 12 14 C12.66 14 13.32 14 14 14 C14 14.66 14 15.32 14 16 C14.639 16.268 15.279 16.536 15.938 16.812 C18 18 18 18 19 21 C19.66 21 20.32 21 21 21 C20.99 21.94 20.98 22.881 20.969 23.85 C20.906 34.429 21.289 44.939 21.875 55.5 C21.919 56.321 21.963 57.142 22.009 57.988 C22.746 71.684 23.719 85.344 25 99 C25.891 98.691 26.781 98.381 27.699 98.062 C46.659 91.959 68.367 92.23 88.062 90.875 C90.683 90.692 93.303 90.508 95.924 90.324 C102.282 89.879 108.641 89.438 115 89 C110.38 86.36 105.76 83.72 101 81 C101.66 80.67 102.32 80.34 103 80 C105.545 81.219 107.978 82.5 110.438 83.875 C119.158 88.632 128.062 92.911 137.072 97.09 C139.063 98.03 141.033 99.008 143 100 C142.34 100.33 141.68 100.66 141 101 C140.34 100.67 139.68 100.34 139 100 C134.578 98.526 130.551 99.346 126 100 C126 100.66 126 101.32 126 102 C124.622 101.984 124.622 101.984 123.216 101.968 C83.608 100.77 83.608 100.77 45 108 C67.333 109.481 89.495 109.569 111.539 105.284 C112.464 105.105 113.39 104.927 114.344 104.742 C115.15 104.576 115.956 104.409 116.787 104.238 C119.136 103.985 120.764 104.285 123 105 C119.187 106.192 115.599 107.118 111.625 107.562 C108.196 107.598 108.196 107.598 107 109 C107.265 110.515 107.587 112.02 107.93 113.52 C109.413 121.225 109.217 128.882 109.125 136.688 C109.115 138.179 109.106 139.671 109.098 141.162 C109.076 144.775 109.041 148.387 109 152 C105.653 152.906 102.727 153.104 99.25 153.062 C98.265 153.053 97.28 153.044 96.266 153.035 C95.144 153.018 95.144 153.018 94 153 C93.67 154.65 93.34 156.3 93 158 C92.34 158 91.68 158 91 158 C91.052 161.439 91.147 164.875 91.25 168.312 C91.264 169.289 91.278 170.265 91.293 171.271 C91.325 172.209 91.357 173.147 91.391 174.113 C91.412 174.977 91.433 175.841 91.454 176.732 C91.824 179.145 91.824 179.145 93.835 180.812 C97.053 182.578 99.314 181.878 102.875 181.25 C104.069 181.049 105.262 180.848 106.492 180.641 C107.65 180.429 108.807 180.218 110 180 C112 179.664 114 179.33 116 179 C116 179.66 116 180.32 116 181 C118.31 181.33 120.62 181.66 123 182 C123 182.66 123 183.32 123 184 C122.34 184 121.68 184 121 184 C121 184.66 121 185.32 121 186 C120.34 186 119.68 186 119 186 C118.67 186.99 118.34 187.98 118 189 C114.479 190.76 111.44 191.071 107.59 190.965 C99.3 190.905 91.051 191.581 82.787 192.172 C79.969 192.373 77.149 192.566 74.33 192.758 C65.871 193.346 57.441 194.011 49.02 195.004 C38.623 196.228 28.194 196.885 17.75 197.562 C14.865 197.751 11.981 197.94 9.096 198.133 C7.323 198.252 5.548 198.368 3.774 198.481 C-0.544 198.769 -4.737 199.215 -9 200 C-12.88 200.359 -16.051 200.569 -19.5 198.5 C-19.995 198.005 -20.49 197.51 -21 197 C-20.34 197 -19.68 197 -19 197 C-18.228 195.163 -18.228 195.163 -18 193 C-19.354 191.228 -19.354 191.228 -21 190 C-19.062 190.312 -19.062 190.312 -17 191 C-16.67 191.99 -16.34 192.98 -16 194 C-14.35 194 -12.7 194 -11 194 C-10.67 193.01 -10.34 192.02 -10 191 C-9.072 190.814 -9.072 190.814 -8.125 190.625 C-5.042 189.718 -4.527 187.707 -3 185 C-2.34 185 -1.68 185 -1 185 C-1.191 181.58 -1.435 178.166 -1.688 174.75 C-1.768 173.298 -1.768 173.298 -1.85 171.816 C-2.183 166.009 -2.183 166.009 -5.582 161.516 C-6.38 161.015 -7.178 160.515 -8 160 C-8 159.01 -8 158.02 -8 157 C-8.743 157.165 -9.485 157.33 -10.25 157.5 C-13.623 157.95 -16.851 158.168 -20.25 158.25 C-21.805 158.289 -21.805 158.289 -23.391 158.328 C-24.252 158.22 -25.113 158.112 -26 158 C-28 155 -28 155 -28 151 C-28.66 151.33 -29.32 151.66 -30 152 C-32.207 152.273 -32.207 152.273 -34.812 152.375 C-36.091 152.448 -36.091 152.448 -37.395 152.523 C-41.328 151.733 -42.667 150.23 -45 147 C-45.635 143.91 -45.565 140.954 -45.438 137.812 C-45.429 136.584 -45.429 136.584 -45.42 135.33 C-45.296 129.296 -45.296 129.296 -43 127 C-40.18 126.805 -40.18 126.805 -36.875 126.875 C-35.779 126.893 -34.684 126.911 -33.555 126.93 C-32.712 126.953 -31.869 126.976 -31 127 C-31.062 126.072 -31.124 125.144 -31.188 124.188 C-31 121 -31 121 -30.012 119.137 C-26.781 117.311 -23.414 117.69 -19.812 117.812 C-18.688 117.833 -18.688 117.833 -17.541 117.854 C-15.694 117.889 -13.847 117.943 -12 118 C-11.34 115.69 -10.68 113.38 -10 111 C-11.887 111.29 -11.887 111.29 -13.812 111.586 C-15.542 111.849 -17.271 112.112 -19 112.375 C-19.82 112.501 -20.64 112.628 -21.484 112.758 C-27.513 113.671 -33.552 114.453 -39.604 115.197 C-47.769 116.207 -55.915 117.356 -64.062 118.5 C-67.116 118.928 -70.169 119.355 -73.223 119.781 C-73.961 119.885 -74.699 119.988 -75.459 120.095 C-79.055 120.596 -82.652 121.089 -86.252 121.562 C-86.927 121.651 -87.601 121.739 -88.297 121.831 C-90.121 122.069 -91.945 122.305 -93.77 122.541 C-98.22 123.174 -102.611 124.029 -107 125 C-107.33 127.31 -107.66 129.62 -108 132 C-106.68 132.66 -105.36 133.32 -104 134 C-104.33 134.66 -104.66 135.32 -105 136 C-105.784 135.649 -106.567 135.299 -107.375 134.938 C-108.241 134.628 -109.108 134.319 -110 134 C-110.66 134.33 -111.32 134.66 -112 135 C-111.01 131.37 -110.02 127.74 -109 124 C-110.949 124.495 -110.949 124.495 -112.938 125 C-117.726 126.079 -122.104 126.155 -127 126 C-127 126.66 -127 127.32 -127 128 C-128.051 128.061 -129.101 128.121 -130.184 128.184 C-137.483 128.615 -144.741 129.093 -152 130 C-148.337 127.558 -145.011 127.209 -140.75 126.625 C-139.879 126.5 -139.007 126.375 -138.11 126.246 C-128.921 124.945 -119.711 123.794 -110.505 122.626 C-98.744 121.127 -87.009 119.461 -75.277 117.75 C-67.884 116.676 -60.489 115.672 -53.073 114.765 C-45.199 113.793 -37.351 112.642 -29.5 111.5 C-19.497 110.045 -9.493 108.66 0.54 107.429 C5.601 106.802 10.647 106.085 15.695 105.367 C18.83 105.019 21.849 104.933 25 105 C25 104.34 25 103.68 25 103 C24.34 103 23.68 103 23 103 C21.058 81.958 19.44 61.155 20 40 C18.83 40.439 18.83 40.439 17.637 40.887 C13.074 42.283 8.515 43.04 3.812 43.812 C1.756 44.16 -0.3 44.509 -2.355 44.859 C-3.975 45.135 -3.975 45.135 -5.626 45.416 C-11.426 46.42 -17.213 47.489 -23 48.562 C-24.145 48.774 -25.289 48.985 -26.469 49.203 C-32.558 50.335 -38.627 51.534 -44.688 52.812 C-49.587 53.817 -54.009 54.306 -59 54 C-59 53.67 -59 53.34 -59 53 C-57.71 52.807 -56.419 52.613 -55.09 52.414 C-53.372 52.151 -51.655 51.888 -49.938 51.625 C-49.09 51.499 -48.242 51.372 -47.369 51.242 C-43.748 50.683 -40.289 50.085 -36.77 49.047 C-30.855 47.404 -24.808 46.587 -18.75 45.625 C-8.945 44.044 0.808 42.342 10.503 40.168 C13.409 39.52 16.011 39 19 39 C18.859 37.062 18.712 35.125 18.562 33.188 C18.481 32.109 18.4 31.03 18.316 29.918 C18.098 26.94 18.098 26.94 17 24 C13.208 24.452 9.416 24.913 5.625 25.375 C4.564 25.501 3.503 25.628 2.41 25.758 C-3.302 26.459 -8.898 27.345 -14.529 28.527 C-19.028 29.388 -23.576 29.854 -28.125 30.375 C-36.461 31.369 -44.729 32.565 -53 34 C-64.12 35.924 -75.271 37.38 -86.477 38.701 C-89.987 39.117 -93.493 39.558 -97 40 C-96.502 42.756 -96.502 42.756 -95 45 C-94.859 47.671 -94.958 50.324 -95 53 C-95.33 53 -95.66 53 -96 53 C-96.495 49.535 -96.495 49.535 -97 46 C-99.31 45.67 -101.62 45.34 -104 45 C-104 47.31 -104 49.62 -104 52 C-104.33 52 -104.66 52 -105 52 C-105 49.36 -105 46.72 -105 44 C-103.02 44 -101.04 44 -99 44 C-99 42.68 -99 41.36 -99 40 C-104.408 41.098 -104.408 41.098 -108 45 C-110.938 45.375 -110.938 45.375 -114 45 C-115.875 43.5 -115.875 43.5 -117 42 C-116.505 41.01 -116.505 41.01 -116 40 C-114.529 40.041 -114.529 40.041 -113.027 40.082 C-108.778 40.079 -104.74 39.415 -100.562 38.688 C-93.163 37.454 -85.761 36.448 -78.312 35.562 C-69.278 34.476 -60.329 33.102 -51.364 31.553 C-42.091 29.97 -32.786 28.691 -23.464 27.437 C-16.438 26.487 -9.434 25.463 -2.438 24.312 C4.358 23.198 11.119 22.398 18 22 C17.175 21.216 16.35 20.433 15.5 19.625 C13 17 13 17 13 15 C12.34 15 11.68 15 11 15 C8.375 12.625 8.375 12.625 6 10 C6 9.34 6 8.68 6 8 C5.34 8 4.68 8 4 8 C3.267 7.173 2.535 6.346 1.78 5.494 C-0.764 2.722 -0.764 2.722 -4.071 2.676 C-5.196 2.815 -6.321 2.954 -7.48 3.098 C-9.351 3.311 -9.351 3.311 -11.26 3.529 C-12.556 3.705 -13.852 3.881 -15.188 4.062 C-16.464 4.211 -17.741 4.36 -19.057 4.514 C-25.29 5.267 -31.412 6.239 -37.552 7.538 C-42.329 8.44 -47.168 8.868 -52 9.375 C-61.041 10.367 -70.019 11.561 -79 13 C-89.216 14.637 -99.44 15.94 -109.727 17.049 C-111.266 17.216 -111.266 17.216 -112.836 17.387 C-113.739 17.482 -114.642 17.577 -115.572 17.675 C-117.779 17.97 -119.855 18.41 -122 19 C-121.67 17.68 -121.34 16.36 -121 15 C-119.35 14.67 -117.7 14.34 -116 14 C-118.166 11.333 -118.166 11.333 -121 9 C-123.591 9.002 -123.591 9.002 -126 10 C-129.134 10.922 -129.741 11.086 -133 10 C-124.854 6.09 -124.854 6.09 -120 7 C-116.786 9.167 -113.752 11.495 -112 15 C-99.894 13.538 -87.808 12.034 -75.763 10.126 C-70.867 9.37 -65.974 8.764 -61.047 8.25 C-59.858 8.124 -58.67 7.999 -57.445 7.869 C-55.099 7.627 -52.751 7.396 -50.403 7.178 C-49.339 7.068 -48.276 6.957 -47.18 6.844 C-46.228 6.753 -45.277 6.662 -44.296 6.568 C-41.635 6.184 -41.635 6.184 -40 3 C-40 3.99 -40 4.98 -40 6 C-38.186 5.553 -38.186 5.553 -36.336 5.098 C-30.156 3.724 -23.913 3.103 -17.625 2.438 C-15.304 2.189 -12.984 1.938 -10.664 1.684 C-9.14 1.522 -9.14 1.522 -7.584 1.357 C-4.944 0.992 -2.658 0 0 0 Z " fill="#000000" transform="translate(155,27)"/>
<path d="M0 0 C0.33 1.32 0.66 2.64 1 4 C10.57 4.66 20.14 5.32 30 6 C32.255 19.529 32.255 19.529 32.633 24.996 C32.717 26.205 32.801 27.414 32.887 28.66 C32.966 29.906 33.044 31.153 33.125 32.438 C33.21 33.738 33.295 35.039 33.382 36.379 C34.048 47.265 34.217 58.099 34 69 C14.347 70.602 -5.316 71.858 -25 73 C-26.702 58.371 -28.197 43.757 -29.188 29.062 C-29.271 27.851 -29.355 26.64 -29.441 25.392 C-29.941 17.585 -30.095 9.822 -30 2 C-19.858 0.291 -10.258 -0.24 0 0 Z " fill="#FFFFFF" transform="translate(197,132)"/>
<path d="M0 0 C0.99 0.33 1.98 0.66 3 1 C3 1.66 3 2.32 3 3 C3.66 3 4.32 3 5 3 C5 3.66 5 4.32 5 5 C5.557 5.248 6.114 5.495 6.688 5.75 C9.424 7.229 11.677 8.935 14 11 C14 11.66 14 12.32 14 13 C14.99 13 15.98 13 17 13 C17 13.66 17 14.32 17 15 C17.516 15.227 18.031 15.454 18.562 15.688 C21.895 17.482 25.147 19.5 28 22 C28 22.66 28 23.32 28 24 C28.673 24.22 29.346 24.441 30.039 24.668 C33.893 26.402 37.015 28.773 40.375 31.312 C41.653 32.267 42.932 33.222 44.211 34.176 C44.837 34.643 45.463 35.111 46.108 35.592 C51.686 39.957 51.686 39.957 58 43 C58 43.66 58 44.32 58 45 C58.556 45.099 59.111 45.199 59.684 45.301 C62.535 46.161 64.585 47.535 67.062 49.188 C76.947 55.607 87.446 60.792 98 66 C98 66.33 98 66.66 98 67 C97.307 67.043 96.615 67.087 95.901 67.132 C89.27 67.549 82.64 67.975 76.01 68.409 C72.604 68.632 69.198 68.852 65.792 69.065 C47.385 70.222 29.035 71.413 11.015 75.541 C8.685 76.072 6.346 76.546 4 77 C-0.396 24.627 -0.396 24.627 0 0 Z " fill="#FFFFFF" transform="translate(175,50)"/>
<path d="M0 0 C2.143 3.477 2.213 6.212 2.125 10.25 C2.107 11.328 2.089 12.405 2.07 13.516 C2.047 14.335 2.024 15.155 2 16 C-3.309 17.992 -8.619 18.898 -14.188 19.812 C-16.244 20.16 -18.3 20.509 -20.355 20.859 C-21.435 21.043 -22.514 21.227 -23.626 21.416 C-29.426 22.42 -35.213 23.489 -41 24.562 C-42.156 24.777 -43.311 24.991 -44.502 25.212 C-50.261 26.286 -56.011 27.389 -61.75 28.562 C-69.899 30.22 -78.092 31.611 -86.289 33.008 C-89.918 33.629 -93.535 34.286 -97.148 34.992 C-97.93 35.142 -98.712 35.291 -99.518 35.445 C-100.968 35.724 -102.415 36.013 -103.861 36.312 C-108.665 37.224 -108.665 37.224 -112 35 C-112 34.34 -112 33.68 -112 33 C-113.65 32.67 -115.3 32.34 -117 32 C-115.68 31.34 -114.36 30.68 -113 30 C-112.959 28.721 -112.918 27.442 -112.875 26.125 C-112.84 25.046 -112.84 25.046 -112.805 23.945 C-112.817 21.761 -112.817 21.761 -115 20 C-114.67 19.01 -114.34 18.02 -114 17 C-107.805 14.978 -101.454 14.352 -95 13.625 C-86.728 12.645 -78.52 11.484 -70.312 10.062 C-60.059 8.291 -49.78 6.826 -39.469 5.437 C-31.634 4.377 -23.827 3.211 -16.025 1.94 C-10.691 1.081 -5.383 0.441 0 0 Z " fill="#FFFFFF" transform="translate(172,50)"/>
<path d="M0 0 C3.96 0 7.92 0 12 0 C11.565 17.048 10.103 33.691 7.441 50.535 C6.876 54.977 6.646 59.404 6.438 63.875 C6.394 64.741 6.351 65.608 6.307 66.5 C6.092 70.248 6.092 70.248 6 74 C7.98 74 9.96 74 12 74 C12.495 72.515 12.495 72.515 13 71 C13.859 74.434 13.976 76.617 13 80 C11.021 80.194 9.042 80.38 7.062 80.562 C5.409 80.719 5.409 80.719 3.723 80.879 C2.375 80.939 2.375 80.939 1 81 C0 80 0 80 -0.062 76.438 C-0.042 75.303 -0.021 74.169 0 73 C-0.33 73.66 -0.66 74.32 -1 75 C-3.183 75.487 -3.183 75.487 -6.082 75.816 C-7.685 76.002 -7.685 76.002 -9.321 76.192 C-11.049 76.375 -11.049 76.375 -12.812 76.562 C-13.978 76.692 -15.143 76.821 -16.343 76.954 C-26.549 78.044 -36.744 78.664 -47 79 C-44.011 79 -41.09 78.815 -38.109 78.598 C-36.931 78.512 -35.752 78.427 -34.538 78.339 C-33.288 78.248 -32.038 78.157 -30.75 78.062 C-28.208 77.879 -25.667 77.695 -23.125 77.512 C-21.899 77.423 -20.673 77.335 -19.41 77.244 C-13.275 76.805 -7.138 76.397 -1 76 C-1 77.65 -1 79.3 -1 81 C-4.325 81.718 -7.553 82.19 -10.945 82.43 C-11.923 82.501 -12.902 82.573 -13.909 82.647 C-14.971 82.722 -16.032 82.797 -17.125 82.875 C-25.196 83.468 -33.262 84.096 -41.324 84.797 C-42.112 84.865 -42.899 84.934 -43.71 85.004 C-46.856 85.278 -50.001 85.553 -53.146 85.832 C-55.354 86.028 -57.562 86.221 -59.77 86.414 C-61.044 86.527 -62.319 86.64 -63.632 86.756 C-66.441 86.96 -69.186 87.049 -72 87 C-74.851 87 -77.717 87.308 -80.562 87.5 C-81.273 87.548 -81.984 87.595 -82.717 87.645 C-84.478 87.763 -86.239 87.881 -88 88 C-88.495 85.525 -88.495 85.525 -89 83 C-87.515 82.505 -87.515 82.505 -86 82 C-85.67 83.32 -85.34 84.64 -85 86 C-85 84.68 -85 83.36 -85 82 C-83 78.75 -83 78.75 -81 76 C-80.34 76.99 -79.68 77.98 -79 79 C-76 79.5 -76 79.5 -73 79 C-72.34 78.01 -71.68 77.02 -71 76 C-71.495 75.505 -71.495 75.505 -72 75 C-73.042 66.701 -73.135 58.352 -73 50 C-72.34 50.33 -71.68 50.66 -71 51 C-71 51.66 -71 52.32 -71 53 C-68.69 53 -66.38 53 -64 53 C-63.147 56.674 -62.892 60.045 -62.938 63.812 C-62.947 64.788 -62.956 65.764 -62.965 66.77 C-62.976 67.506 -62.988 68.242 -63 69 C-62.121 68.879 -61.242 68.758 -60.336 68.633 C-50.515 67.374 -40.691 66.549 -30.812 65.875 C-29.567 65.788 -28.322 65.7 -27.039 65.61 C-18.664 65.062 -10.391 64.924 -2 65 C-2 60.05 -2 55.1 -2 50 C-1.34 50 -0.68 50 0 50 C0.495 56.93 0.495 56.93 1 64 C0.979 61.711 0.959 59.421 0.938 57.062 C0.916 54.708 0.927 52.353 1 50 C1.33 49.67 1.66 49.34 2 49 C2.581 39.114 1.748 29.371 0.716 19.547 C0.041 12.971 -0.176 6.616 0 0 Z " fill="#FCFCFC" transform="translate(234,137)"/>
<path d="M0 0 C-0.011 0.801 -0.022 1.602 -0.033 2.427 C-0.101 11.561 0.257 20.621 0.8 29.735 C0.939 32.091 1.071 34.447 1.201 36.803 C1.289 38.318 1.376 39.833 1.465 41.348 C1.503 42.044 1.542 42.739 1.582 43.456 C1.802 47.06 2.283 50.468 3 54 C3.142 55.983 3.245 57.97 3.316 59.957 C3.379 61.625 3.379 61.625 3.443 63.326 C3.483 64.477 3.522 65.627 3.562 66.812 C3.606 67.982 3.649 69.152 3.693 70.357 C3.799 73.238 3.901 76.119 4 79 C5.65 79.33 7.3 79.66 9 80 C9 80.33 9 80.66 9 81 C6.125 81.125 6.125 81.125 3 81 C2.34 80.34 1.68 79.68 1 79 C0.01 79.66 -0.98 80.32 -2 81 C-1.34 79.35 -0.68 77.7 0 76 C0.66 76 1.32 76 2 76 C1.809 72.58 1.565 69.166 1.312 65.75 C1.259 64.782 1.206 63.814 1.15 62.816 C0.817 57.009 0.817 57.009 -2.582 52.516 C-3.38 52.015 -4.178 51.515 -5 51 C-5 50.01 -5 49.02 -5 48 C-6.114 48.248 -6.114 48.248 -7.25 48.5 C-10.623 48.95 -13.851 49.168 -17.25 49.25 C-18.286 49.276 -19.323 49.302 -20.391 49.328 C-21.252 49.22 -22.113 49.112 -23 49 C-25 46 -25 46 -25 42 C-25.99 42.495 -25.99 42.495 -27 43 C-29.207 43.273 -29.207 43.273 -31.812 43.375 C-32.665 43.424 -33.517 43.473 -34.395 43.523 C-38.328 42.733 -39.667 41.23 -42 38 C-42.635 34.91 -42.565 31.954 -42.438 28.812 C-42.429 27.584 -42.429 27.584 -42.42 26.33 C-42.296 20.296 -42.296 20.296 -40 18 C-37.18 17.805 -37.18 17.805 -33.875 17.875 C-32.779 17.893 -31.684 17.911 -30.555 17.93 C-29.712 17.953 -28.869 17.976 -28 18 C-28.093 16.608 -28.093 16.608 -28.188 15.188 C-28 12 -28 12 -27.012 10.137 C-23.781 8.311 -20.414 8.69 -16.812 8.812 C-16.063 8.826 -15.313 8.84 -14.541 8.854 C-12.694 8.889 -10.847 8.943 -9 9 C-8.34 6.69 -7.68 4.38 -7 2 C-8.887 2.29 -8.887 2.29 -10.812 2.586 C-12.542 2.849 -14.271 3.112 -16 3.375 C-16.82 3.501 -17.64 3.628 -18.484 3.758 C-24.513 4.671 -30.552 5.453 -36.604 6.197 C-44.769 7.207 -52.915 8.356 -61.062 9.5 C-64.116 9.928 -67.169 10.355 -70.223 10.781 C-71.33 10.936 -71.33 10.936 -72.459 11.095 C-76.055 11.596 -79.652 12.089 -83.252 12.562 C-83.927 12.651 -84.601 12.739 -85.297 12.831 C-87.121 13.069 -88.945 13.305 -90.77 13.541 C-95.22 14.174 -99.611 15.029 -104 16 C-104.33 18.31 -104.66 20.62 -105 23 C-103.68 23.66 -102.36 24.32 -101 25 C-101.33 25.66 -101.66 26.32 -102 27 C-102.784 26.649 -103.567 26.299 -104.375 25.938 C-105.241 25.628 -106.108 25.319 -107 25 C-107.99 25.495 -107.99 25.495 -109 26 C-107.515 20.555 -107.515 20.555 -106 15 C-107.299 15.33 -108.599 15.66 -109.938 16 C-114.726 17.079 -119.104 17.155 -124 17 C-124 17.66 -124 18.32 -124 19 C-125.051 19.061 -126.101 19.121 -127.184 19.184 C-134.483 19.615 -141.741 20.093 -149 21 C-145.337 18.558 -142.011 18.209 -137.75 17.625 C-136.879 17.5 -136.007 17.375 -135.11 17.246 C-125.921 15.945 -116.711 14.794 -107.505 13.626 C-95.744 12.127 -84.009 10.461 -72.277 8.75 C-64.894 7.677 -57.511 6.677 -50.105 5.774 C-45.092 5.155 -40.094 4.45 -35.098 3.711 C-34.355 3.602 -33.611 3.492 -32.846 3.379 C-29.815 2.932 -26.783 2.484 -23.754 2.026 C-7.999 -0.346 -7.999 -0.346 0 0 Z " fill="#282828" transform="translate(152,136)"/>
<path d="M0 0 C0 0.66 0 1.32 0 2 C0.639 2.268 1.279 2.536 1.938 2.812 C4 4 4 4 5 7 C5.66 7 6.32 7 7 7 C7 7.66 7 8.32 7 9 C7.639 9.268 8.279 9.536 8.938 9.812 C11 11 11 11 12 14 C12.66 14 13.32 14 14 14 C14 14.66 14 15.32 14 16 C14.639 16.268 15.279 16.536 15.938 16.812 C18 18 18 18 19 21 C19.66 21 20.32 21 21 21 C20.99 21.94 20.98 22.881 20.969 23.85 C20.906 34.429 21.289 44.939 21.875 55.5 C21.919 56.321 21.963 57.142 22.009 57.988 C22.746 71.684 23.719 85.344 25 99 C25.891 98.691 26.781 98.381 27.699 98.062 C46.659 91.959 68.367 92.23 88.062 90.875 C90.683 90.692 93.303 90.508 95.924 90.324 C102.282 89.879 108.641 89.438 115 89 C110.38 86.36 105.76 83.72 101 81 C101.66 80.67 102.32 80.34 103 80 C105.545 81.219 107.978 82.5 110.438 83.875 C119.158 88.632 128.062 92.911 137.072 97.09 C139.063 98.03 141.033 99.008 143 100 C142.34 100.33 141.68 100.66 141 101 C140.34 100.67 139.68 100.34 139 100 C134.578 98.526 130.551 99.346 126 100 C126 100.66 126 101.32 126 102 C124.622 101.984 124.622 101.984 123.216 101.968 C82.284 100.184 82.284 100.184 43 109 C42.34 107.35 41.68 105.7 41 104 C40.12 104.012 39.239 104.023 38.332 104.035 C36.59 104.049 36.59 104.049 34.812 104.062 C33.664 104.074 32.515 104.086 31.332 104.098 C28.395 104.012 25.857 103.616 23 103 C21.058 81.958 19.44 61.155 20 40 C18.83 40.439 18.83 40.439 17.637 40.887 C13.074 42.283 8.515 43.04 3.812 43.812 C1.756 44.16 -0.3 44.509 -2.355 44.859 C-3.975 45.135 -3.975 45.135 -5.626 45.416 C-11.426 46.42 -17.213 47.489 -23 48.562 C-24.145 48.774 -25.289 48.985 -26.469 49.203 C-32.558 50.335 -38.627 51.534 -44.688 52.812 C-49.587 53.817 -54.009 54.306 -59 54 C-59 53.67 -59 53.34 -59 53 C-57.71 52.807 -56.419 52.613 -55.09 52.414 C-53.372 52.151 -51.655 51.888 -49.938 51.625 C-49.09 51.499 -48.242 51.372 -47.369 51.242 C-43.748 50.683 -40.289 50.085 -36.77 49.047 C-30.855 47.404 -24.808 46.587 -18.75 45.625 C-8.945 44.044 0.808 42.342 10.503 40.168 C13.409 39.52 16.011 39 19 39 C18.859 37.062 18.712 35.125 18.562 33.188 C18.481 32.109 18.4 31.03 18.316 29.918 C18.098 26.94 18.098 26.94 17 24 C13.208 24.452 9.416 24.913 5.625 25.375 C4.564 25.501 3.503 25.628 2.41 25.758 C-3.302 26.459 -8.898 27.345 -14.529 28.527 C-19.028 29.388 -23.576 29.854 -28.125 30.375 C-36.461 31.369 -44.729 32.565 -53 34 C-64.12 35.924 -75.271 37.38 -86.477 38.701 C-89.987 39.117 -93.493 39.558 -97 40 C-96.502 42.756 -96.502 42.756 -95 45 C-94.859 47.671 -94.958 50.324 -95 53 C-95.33 53 -95.66 53 -96 53 C-96.495 49.535 -96.495 49.535 -97 46 C-99.31 45.67 -101.62 45.34 -104 45 C-104 47.31 -104 49.62 -104 52 C-104.33 52 -104.66 52 -105 52 C-105 49.36 -105 46.72 -105 44 C-103.02 44 -101.04 44 -99 44 C-99 42.68 -99 41.36 -99 40 C-104.408 41.098 -104.408 41.098 -108 45 C-110.938 45.375 -110.938 45.375 -114 45 C-115.875 43.5 -115.875 43.5 -117 42 C-116.67 41.34 -116.34 40.68 -116 40 C-114.529 40.041 -114.529 40.041 -113.027 40.082 C-108.778 40.079 -104.74 39.415 -100.562 38.688 C-93.163 37.454 -85.761 36.448 -78.312 35.562 C-69.278 34.476 -60.329 33.102 -51.364 31.553 C-42.091 29.97 -32.786 28.691 -23.464 27.437 C-16.438 26.487 -9.434 25.463 -2.438 24.312 C4.358 23.198 11.119 22.398 18 22 C17.175 21.216 16.35 20.433 15.5 19.625 C13 17 13 17 13 15 C12.34 15 11.68 15 11 15 C8.375 12.625 8.375 12.625 6 10 C6 9.34 6 8.68 6 8 C5.34 8 4.68 8 4 8 C3.267 7.173 2.535 6.346 1.78 5.494 C-0.764 2.722 -0.764 2.722 -4.071 2.676 C-5.759 2.885 -5.759 2.885 -7.48 3.098 C-8.728 3.24 -9.975 3.383 -11.26 3.529 C-12.556 3.705 -13.852 3.881 -15.188 4.062 C-16.464 4.211 -17.741 4.36 -19.057 4.514 C-25.29 5.267 -31.412 6.239 -37.552 7.538 C-42.329 8.44 -47.168 8.868 -52 9.375 C-61.041 10.367 -70.019 11.561 -79 13 C-89.216 14.637 -99.44 15.94 -109.727 17.049 C-110.753 17.16 -111.779 17.272 -112.836 17.387 C-113.739 17.482 -114.642 17.577 -115.572 17.675 C-117.779 17.97 -119.855 18.41 -122 19 C-121.67 17.68 -121.34 16.36 -121 15 C-119.35 14.67 -117.7 14.34 -116 14 C-118.166 11.333 -118.166 11.333 -121 9 C-123.591 9.002 -123.591 9.002 -126 10 C-129.134 10.922 -129.741 11.086 -133 10 C-124.854 6.09 -124.854 6.09 -120 7 C-116.786 9.167 -113.752 11.495 -112 15 C-99.894 13.538 -87.808 12.034 -75.763 10.126 C-70.867 9.37 -65.974 8.764 -61.047 8.25 C-59.858 8.124 -58.67 7.999 -57.445 7.869 C-55.099 7.627 -52.751 7.396 -50.403 7.178 C-49.339 7.068 -48.276 6.957 -47.18 6.844 C-46.228 6.753 -45.277 6.662 -44.296 6.568 C-41.635 6.184 -41.635 6.184 -40 3 C-40 3.99 -40 4.98 -40 6 C-38.186 5.553 -38.186 5.553 -36.336 5.098 C-30.156 3.724 -23.913 3.103 -17.625 2.438 C-15.304 2.189 -12.984 1.938 -10.664 1.684 C-9.14 1.522 -9.14 1.522 -7.584 1.357 C-4.944 0.992 -2.658 0 0 0 Z " fill="#DCDCDC" transform="translate(155,27)"/>
<path d="M0 0 C-3.813 1.192 -7.401 2.118 -11.375 2.562 C-14.804 2.598 -14.804 2.598 -16 4 C-15.735 5.515 -15.413 7.02 -15.07 8.52 C-13.587 16.225 -13.783 23.882 -13.875 31.688 C-13.885 33.179 -13.894 34.671 -13.902 36.162 C-13.924 39.775 -13.959 43.387 -14 47 C-17.347 47.906 -20.273 48.104 -23.75 48.062 C-24.735 48.053 -25.72 48.044 -26.734 48.035 C-27.482 48.024 -28.23 48.012 -29 48 C-29.33 49.65 -29.66 51.3 -30 53 C-30.66 53 -31.32 53 -32 53 C-31.948 56.439 -31.853 59.875 -31.75 63.312 C-31.736 64.289 -31.722 65.265 -31.707 66.271 C-31.675 67.209 -31.643 68.147 -31.609 69.113 C-31.578 70.409 -31.578 70.409 -31.546 71.732 C-31.176 74.145 -31.176 74.145 -29.165 75.812 C-25.947 77.578 -23.686 76.878 -20.125 76.25 C-18.931 76.049 -17.738 75.848 -16.508 75.641 C-15.35 75.429 -14.193 75.218 -13 75 C-11 74.664 -9 74.33 -7 74 C-7 74.66 -7 75.32 -7 76 C-4.69 76.33 -2.38 76.66 0 77 C0 77.66 0 78.32 0 79 C-0.66 79 -1.32 79 -2 79 C-2 79.66 -2 80.32 -2 81 C-2.66 81 -3.32 81 -4 81 C-4.33 81.99 -4.66 82.98 -5 84 C-8.521 85.76 -11.56 86.071 -15.41 85.965 C-23.7 85.905 -31.949 86.581 -40.213 87.172 C-43.031 87.373 -45.851 87.566 -48.67 87.758 C-57.129 88.346 -65.559 89.011 -73.98 90.004 C-84.377 91.228 -94.806 91.885 -105.25 92.562 C-108.135 92.751 -111.019 92.94 -113.904 93.133 C-115.677 93.252 -117.452 93.368 -119.226 93.481 C-123.544 93.769 -127.737 94.215 -132 95 C-135.88 95.359 -139.051 95.569 -142.5 93.5 C-142.995 93.005 -143.49 92.51 -144 92 C-143.34 92 -142.68 92 -142 92 C-141.228 90.163 -141.228 90.163 -141 88 C-142.354 86.228 -142.354 86.228 -144 85 C-142.062 85.312 -142.062 85.312 -140 86 C-139.67 86.99 -139.34 87.98 -139 89 C-137.35 89 -135.7 89 -134 89 C-133.67 88.01 -133.34 87.02 -133 86 C-130.525 85.505 -130.525 85.505 -128 85 C-127.67 86.98 -127.34 88.96 -127 91 C-127.66 91 -128.32 91 -129 91 C-129.33 89.68 -129.66 88.36 -130 87 C-130.99 87.99 -130.99 87.99 -132 89 C-132 90.32 -132 91.64 -132 93 C-131.188 92.754 -131.188 92.754 -130.359 92.504 C-127.598 91.914 -125.072 91.904 -122.25 91.938 C-121.265 91.947 -120.28 91.956 -119.266 91.965 C-118.518 91.976 -117.77 91.988 -117 92 C-117 91.34 -117 90.68 -117 90 C-116.161 90.175 -115.322 90.35 -114.458 90.531 C-110.699 91.041 -107.447 90.863 -103.672 90.512 C-102.973 90.449 -102.275 90.386 -101.555 90.322 C-100.06 90.187 -98.565 90.049 -97.071 89.907 C-93.937 89.611 -90.803 89.331 -87.668 89.05 C-86.08 88.907 -84.493 88.764 -82.906 88.619 C-75.65 87.961 -68.39 87.371 -61.125 86.812 C-60.064 86.729 -59.003 86.645 -57.909 86.559 C-56.931 86.484 -55.953 86.409 -54.945 86.332 C-54.105 86.267 -53.265 86.203 -52.399 86.136 C-49.927 85.996 -47.475 85.977 -45 86 C-45 84.35 -45 82.7 -45 81 C-45.58 81.08 -46.161 81.161 -46.759 81.244 C-68.332 84.189 -90.192 86.668 -112 86 C-112 85.67 -112 85.34 -112 85 C-100.807 83.843 -89.656 82.867 -78.412 82.397 C-71.691 82.092 -65.033 81.454 -58.353 80.66 C-53.864 80.138 -49.52 79.91 -45 80 C-44.01 78.02 -44.01 78.02 -43 76 C-43 78.97 -43 81.94 -43 85 C-39.04 85 -35.08 85 -31 85 C-31 82.36 -31 79.72 -31 77 C-31.557 77.773 -31.557 77.773 -32.125 78.562 C-32.744 79.037 -33.363 79.511 -34 80 C-35.98 79.67 -37.96 79.34 -40 79 C-40 74.71 -40 70.42 -40 66 C-39.67 66 -39.34 66 -39 66 C-35.572 45.388 -33.575 24.833 -32 4 C-28.088 3.259 -24.173 2.529 -20.257 1.809 C-18.926 1.563 -17.595 1.313 -16.265 1.061 C-14.35 0.698 -12.433 0.347 -10.516 -0.004 C-9.364 -0.219 -8.211 -0.433 -7.024 -0.655 C-4.26 -0.97 -2.59 -0.914 0 0 Z " fill="#000000" transform="translate(278,132)"/>
<path d="M0 0 C-0.26 2.051 -0.521 4.102 -0.781 6.152 C-1.02 7.855 -1.02 7.855 -1 9 C-0.154 9.392 0.691 9.784 1.562 10.188 C4.702 11.843 7.373 13.656 10.219 15.746 C12.442 17.311 14.785 18.635 17.156 19.961 C19.27 21.152 21.359 22.374 23.438 23.625 C24.117 24.03 24.796 24.435 25.496 24.852 C25.992 25.231 26.489 25.61 27 26 C27 26.66 27 27.32 27 28 C27.825 28.227 28.65 28.454 29.5 28.688 C33.665 30.249 37.5 32.229 41 35 C41 35.66 41 36.32 41 37 C41.825 37.227 42.65 37.454 43.5 37.688 C47.665 39.249 51.5 41.229 55 44 C55 44.66 55 45.32 55 46 C55.825 46.227 56.65 46.454 57.5 46.688 C61.665 48.249 65.5 50.229 69 53 C69 53.66 69 54.32 69 55 C69.552 55.099 70.103 55.199 70.672 55.301 C78.471 57.643 85.644 64.028 92 69 C91.01 70.98 91.01 70.98 90 73 C89.34 73 88.68 73 88 73 C88 72.34 88 71.68 88 71 C86.02 70.505 86.02 70.505 84 70 C84 69.34 84 68.68 84 68 C83.175 67.773 82.35 67.546 81.5 67.312 C77.335 65.751 73.5 63.771 70 61 C70 60.34 70 59.68 70 59 C69.475 58.92 68.951 58.84 68.41 58.758 C65.055 57.703 62.34 55.807 59.438 53.875 C58.189 53.058 56.94 52.242 55.691 51.426 C55.072 51.018 54.452 50.61 53.813 50.19 C51.179 48.461 48.529 46.759 45.875 45.062 C45.027 44.517 44.179 43.972 43.305 43.41 C41.244 42.15 39.179 41.039 37 40 C37 39.34 37 38.68 37 38 C36.113 37.752 35.226 37.505 34.312 37.25 C30.878 35.954 28.79 34.338 26 32 C25.01 31.67 24.02 31.34 23 31 C23 30.34 23 29.68 23 29 C22.175 28.794 21.35 28.588 20.5 28.375 C16.797 26.92 14.284 25.116 11.223 22.633 C8.884 20.915 6.433 19.522 3.902 18.106 C-0.117 15.769 -3.911 13.071 -7.746 10.447 C-10.478 8.6 -12.855 7.048 -16 6 C-16 5.34 -16 4.68 -16 4 C-16.66 4 -17.32 4 -18 4 C-18 3.34 -18 2.68 -18 2 C-15.563 1.664 -13.125 1.331 -10.688 1 C-9.997 0.905 -9.307 0.809 -8.596 0.711 C-5.704 0.32 -2.922 0 0 0 Z " fill="#FFFFFF" transform="translate(46,151)"/>
<path d="M0 0 C0 0.66 0 1.32 0 2 C0.639 2.268 1.279 2.536 1.938 2.812 C4 4 4 4 5 7 C5.66 7 6.32 7 7 7 C7 7.66 7 8.32 7 9 C7.639 9.268 8.279 9.536 8.938 9.812 C11 11 11 11 12 14 C12.66 14 13.32 14 14 14 C14 14.66 14 15.32 14 16 C14.639 16.268 15.279 16.536 15.938 16.812 C18 18 18 18 19 21 C19.66 21 20.32 21 21 21 C20.99 21.943 20.98 22.887 20.969 23.858 C20.892 34.351 21.288 44.776 21.875 55.25 C21.965 56.907 22.054 58.564 22.144 60.221 C22.927 74.493 23.9 88.749 25 103 C24.34 103 23.68 103 23 103 C21.058 81.958 19.44 61.155 20 40 C18.83 40.439 18.83 40.439 17.637 40.887 C13.074 42.283 8.515 43.04 3.812 43.812 C1.756 44.16 -0.3 44.509 -2.355 44.859 C-3.975 45.135 -3.975 45.135 -5.626 45.416 C-11.426 46.42 -17.213 47.489 -23 48.562 C-24.145 48.774 -25.289 48.985 -26.469 49.203 C-32.558 50.335 -38.627 51.534 -44.688 52.812 C-49.587 53.817 -54.009 54.306 -59 54 C-59 53.67 -59 53.34 -59 53 C-57.71 52.807 -56.419 52.613 -55.09 52.414 C-53.372 52.151 -51.655 51.888 -49.938 51.625 C-49.09 51.499 -48.242 51.372 -47.369 51.242 C-43.748 50.683 -40.289 50.085 -36.77 49.047 C-30.855 47.404 -24.808 46.587 -18.75 45.625 C-8.945 44.044 0.808 42.342 10.503 40.168 C13.409 39.52 16.011 39 19 39 C18.859 37.062 18.712 35.125 18.562 33.188 C18.481 32.109 18.4 31.03 18.316 29.918 C18.098 26.94 18.098 26.94 17 24 C13.208 24.452 9.416 24.913 5.625 25.375 C4.564 25.501 3.503 25.628 2.41 25.758 C-3.302 26.459 -8.898 27.345 -14.529 28.527 C-19.028 29.388 -23.576 29.854 -28.125 30.375 C-36.461 31.369 -44.729 32.565 -53 34 C-64.12 35.924 -75.271 37.38 -86.477 38.701 C-89.987 39.117 -93.493 39.558 -97 40 C-96.502 42.756 -96.502 42.756 -95 45 C-94.859 47.671 -94.958 50.324 -95 53 C-95.33 53 -95.66 53 -96 53 C-96.495 49.535 -96.495 49.535 -97 46 C-99.31 45.67 -101.62 45.34 -104 45 C-104 47.31 -104 49.62 -104 52 C-104.33 52 -104.66 52 -105 52 C-105 49.36 -105 46.72 -105 44 C-103.02 44 -101.04 44 -99 44 C-99 42.68 -99 41.36 -99 40 C-104.408 41.098 -104.408 41.098 -108 45 C-110.938 45.375 -110.938 45.375 -114 45 C-115.875 43.5 -115.875 43.5 -117 42 C-116.67 41.34 -116.34 40.68 -116 40 C-114.529 40.041 -114.529 40.041 -113.027 40.082 C-108.778 40.079 -104.74 39.415 -100.562 38.688 C-93.163 37.454 -85.761 36.448 -78.312 35.562 C-69.278 34.476 -60.329 33.102 -51.364 31.553 C-42.091 29.97 -32.786 28.691 -23.464 27.437 C-16.438 26.487 -9.434 25.463 -2.438 24.312 C4.358 23.198 11.119 22.398 18 22 C17.175 21.216 16.35 20.433 15.5 19.625 C13 17 13 17 13 15 C12.34 15 11.68 15 11 15 C8.375 12.625 8.375 12.625 6 10 C6 9.34 6 8.68 6 8 C5.34 8 4.68 8 4 8 C3.267 7.173 2.535 6.346 1.78 5.494 C-0.764 2.722 -0.764 2.722 -4.071 2.676 C-5.759 2.885 -5.759 2.885 -7.48 3.098 C-8.728 3.24 -9.975 3.383 -11.26 3.529 C-12.556 3.705 -13.852 3.881 -15.188 4.062 C-16.464 4.211 -17.741 4.36 -19.057 4.514 C-25.29 5.267 -31.412 6.239 -37.552 7.538 C-42.329 8.44 -47.168 8.868 -52 9.375 C-61.041 10.367 -70.019 11.561 -79 13 C-89.216 14.637 -99.44 15.94 -109.727 17.049 C-110.753 17.16 -111.779 17.272 -112.836 17.387 C-113.739 17.482 -114.642 17.577 -115.572 17.675 C-117.779 17.97 -119.855 18.41 -122 19 C-121.67 17.68 -121.34 16.36 -121 15 C-119.35 14.67 -117.7 14.34 -116 14 C-118.166 11.333 -118.166 11.333 -121 9 C-123.591 9.002 -123.591 9.002 -126 10 C-129.134 10.922 -129.741 11.086 -133 10 C-124.854 6.09 -124.854 6.09 -120 7 C-116.786 9.167 -113.752 11.495 -112 15 C-99.894 13.538 -87.808 12.034 -75.763 10.126 C-70.867 9.37 -65.974 8.764 -61.047 8.25 C-59.858 8.124 -58.67 7.999 -57.445 7.869 C-55.099 7.627 -52.751 7.396 -50.403 7.178 C-49.339 7.068 -48.276 6.957 -47.18 6.844 C-46.228 6.753 -45.277 6.662 -44.296 6.568 C-41.635 6.184 -41.635 6.184 -40 3 C-40 3.99 -40 4.98 -40 6 C-38.186 5.553 -38.186 5.553 -36.336 5.098 C-30.156 3.724 -23.913 3.103 -17.625 2.438 C-15.304 2.189 -12.984 1.938 -10.664 1.684 C-9.14 1.522 -9.14 1.522 -7.584 1.357 C-4.944 0.992 -2.658 0 0 0 Z " fill="#000000" transform="translate(155,27)"/>
<path d="M0 0 C4.995 0.285 7.442 2.773 11 6 C10.67 6.66 10.34 7.32 10 8 C9.381 7.835 8.763 7.67 8.125 7.5 C6.039 6.924 6.039 6.924 4 7 C1.749 14.916 2.868 21.56 6 29 C6 29.99 6 30.98 6 32 C6.66 32 7.32 32 8 32 C8.413 32.66 8.825 33.32 9.25 34 C10.901 36.325 10.901 36.325 14.062 36.438 C15.032 36.293 16.001 36.149 17 36 C17.66 35.01 18.32 34.02 19 33 C22.625 32.312 22.625 32.312 26 32 C26 33.32 26 34.64 26 36 C24.02 36 22.04 36 20 36 C20.495 36.495 20.495 36.495 21 37 C22.155 37 23.31 37 24.5 37 C25.655 37 26.81 37 28 37 C29 38 29 38 29.098 39.848 C29.065 41.898 29.033 43.949 29 46 C23.576 47.085 18.842 46.822 13.355 46.156 C10.98 45.799 10.98 45.799 9 47 C7.168 46.763 5.336 46.521 3.508 46.258 C-1.312 45.762 -6.16 45.927 -11 46 C-11 45.67 -11 45.34 -11 45 C-8.69 44.34 -6.38 43.68 -4 43 C-4.632 42.329 -4.632 42.329 -5.277 41.645 C-10.719 35.64 -10.719 35.64 -11 31 C-9 32 -9 32 -7.188 35.312 C-5.287 38.734 -3.401 40.926 0 43 C2.71 43.336 2.71 43.336 5 43 C4.113 42.134 3.226 41.267 2.312 40.375 C-5.239 31.424 -6.553 20.722 -6.664 9.496 C-5.849 5.203 -4.308 3.75 -1 1 C-0.67 0.67 -0.34 0.34 0 0 Z " fill="#E8E8E8" transform="translate(30,35)"/>
<path d="M0 0 C-3.813 1.192 -7.401 2.118 -11.375 2.562 C-14.804 2.598 -14.804 2.598 -16 4 C-15.735 5.515 -15.413 7.02 -15.07 8.52 C-13.587 16.225 -13.783 23.882 -13.875 31.688 C-13.885 33.179 -13.894 34.671 -13.902 36.162 C-13.924 39.775 -13.959 43.387 -14 47 C-15.32 46.67 -16.64 46.34 -18 46 C-17.67 45.67 -17.34 45.34 -17 45 C-16.913 43.584 -16.893 42.164 -16.902 40.746 C-16.907 39.465 -16.907 39.465 -16.912 38.158 C-16.92 37.26 -16.929 36.363 -16.938 35.438 C-16.942 34.536 -16.947 33.634 -16.951 32.705 C-16.963 30.47 -16.981 28.235 -17 26 C-20.63 26.66 -24.26 27.32 -28 28 C-28.66 31.63 -29.32 35.26 -30 39 C-30.33 39 -30.66 39 -31 39 C-30.091 27.659 -29.039 16.33 -28 5 C-28.99 5 -29.98 5 -31 5 C-31.015 5.667 -31.029 6.334 -31.044 7.022 C-31.356 19.904 -31.998 32.571 -33.836 45.331 C-35.423 56.506 -36.207 67.745 -37 79 C-36.01 79.33 -35.02 79.66 -34 80 C-35.98 79.67 -37.96 79.34 -40 79 C-40 74.71 -40 70.42 -40 66 C-39.67 66 -39.34 66 -39 66 C-35.572 45.388 -33.575 24.833 -32 4 C-28.088 3.259 -24.173 2.529 -20.257 1.809 C-18.926 1.563 -17.595 1.313 -16.265 1.061 C-14.35 0.698 -12.433 0.347 -10.516 -0.004 C-9.364 -0.219 -8.211 -0.433 -7.024 -0.655 C-4.26 -0.97 -2.59 -0.914 0 0 Z " fill="#000000" transform="translate(278,132)"/>
<path d="M0 0 C0.33 0.66 0.66 1.32 1 2 C1.66 2 2.32 2 3 2 C3 2.99 3 3.98 3 5 C3.577 5.206 4.155 5.412 4.75 5.625 C7.805 7.492 9.094 10.014 11 13 C11.66 13.33 12.32 13.66 13 14 C13 14.66 13 15.32 13 16 C13.66 16 14.32 16 15 16 C15.495 17.485 15.495 17.485 16 19 C13.024 19.992 10.447 20.37 7.336 20.719 C6.213 20.846 5.09 20.974 3.934 21.105 C2.172 21.301 2.172 21.301 0.375 21.5 C-0.776 21.63 -1.927 21.76 -3.113 21.895 C-6.408 22.267 -9.704 22.634 -13 23 C-13.938 23.104 -14.876 23.209 -15.843 23.316 C-17.895 23.545 -19.948 23.772 -22 24 C-21.639 16.953 -17.411 11.974 -13.125 6.688 C-9.211 3.579 -4.722 1.574 0 0 Z " fill="#FFFFFF" transform="translate(137,9)"/>
<path d="M0 0 C1.344 10.718 2.228 21.219 2.014 32.031 C1.813 36.145 1.813 36.145 3 40 C3.157 42.988 3.259 45.955 3.316 48.945 C3.337 49.83 3.358 50.715 3.379 51.627 C3.445 54.46 3.504 57.292 3.562 60.125 C3.606 62.043 3.649 63.961 3.693 65.879 C3.801 70.586 3.902 75.293 4 80 C2.334 80.043 0.666 80.041 -1 80 C-2.756 78.244 -2.213 75.742 -2.281 73.355 C-2.319 72.204 -2.356 71.052 -2.395 69.865 C-2.447 68.045 -2.447 68.045 -2.5 66.188 C-2.569 63.806 -2.642 61.424 -2.719 59.043 C-2.764 57.45 -2.764 57.45 -2.811 55.825 C-2.906 53.131 -2.906 53.131 -3.484 51.097 C-4.268 47.909 -4.356 44.676 -4.535 41.41 C-4.6 40.3 -4.6 40.3 -4.665 39.167 C-4.755 37.597 -4.844 36.028 -4.93 34.459 C-5.06 32.102 -5.199 29.745 -5.338 27.389 C-5.843 18.579 -6.132 9.827 -6 1 C-3.924 0.447 -2.156 0 0 0 Z " fill="#FFFFFF" transform="translate(157,136)"/>
<path d="M0 0 C0.981 -0.001 1.961 -0.002 2.972 -0.002 C7.978 0.037 12.842 0.146 17.75 1.188 C18.245 2.178 18.245 2.178 18.75 3.188 C16.334 3.647 13.917 4.105 11.5 4.562 C10.837 4.689 10.175 4.815 9.492 4.945 C8.054 5.217 6.615 5.482 5.175 5.744 C3.485 6.053 1.799 6.377 0.114 6.711 C-7.845 8.198 -15.731 8.626 -23.803 8.821 C-25.984 8.875 -28.163 8.945 -30.344 9.018 C-39.932 9.303 -49.735 9.54 -59.25 8.188 C-59.58 7.528 -59.91 6.868 -60.25 6.188 C-49.683 2.747 -38.469 1.86 -27.438 1.062 C-25.708 0.936 -25.708 0.936 -23.944 0.807 C-15.96 0.269 -8.002 0.006 0 0 Z " fill="#FFFFFF" transform="translate(259.25,127.8125)"/>
<path d="M0 0 C0.037 0.834 0.075 1.668 0.113 2.527 C0.827 14.747 3.791 25.618 12 35 C3.142 37.433 3.142 37.433 -1.625 35.625 C-2.409 35.089 -3.192 34.553 -4 34 C-4 33.01 -4 32.02 -4 31 C-4.66 31 -5.32 31 -6 31 C-9.774 22.764 -13.189 14.154 -11 5 C-7.567 1.629 -4.881 0 0 0 Z " fill="#FFFFFF" transform="translate(15,44)"/>
<path d="M0 0 C0.086 1.311 0.171 2.622 0.26 3.972 C0.58 8.874 0.903 13.775 1.227 18.677 C1.366 20.791 1.505 22.905 1.643 25.02 C1.842 28.073 2.044 31.126 2.246 34.18 C2.307 35.112 2.367 36.045 2.429 37.006 C2.83 43.019 3.363 49.008 4 55 C1.125 55.188 1.125 55.188 -2 55 C-7.342 46.986 -6.386 32.991 -7.125 23.625 C-7.213 22.52 -7.3 21.415 -7.391 20.277 C-7.848 14.164 -8.09 8.129 -8 2 C-1.125 0 -1.125 0 0 0 Z " fill="#FFFFFF" transform="translate(166,134)"/>
<path d="M0 0 C-0.99 1.485 -0.99 1.485 -2 3 C-3.415 15.583 -1.363 27.483 6.312 37.875 C7.19 38.932 8.079 39.981 9 41 C6.048 41.432 3.857 41.49 1.219 39.98 C-5.637 34.523 -9.877 26.673 -11 18 C-11.492 11.851 -11.932 6.112 -8 1 C-2.842 -1.421 -2.842 -1.421 0 0 Z " fill="#FFFFFF" transform="translate(27,38)"/>
<path d="M0 0 C6.125 1.7 11.489 4.772 17.062 7.75 C25.274 12.092 33.487 16.275 42 20 C41.34 20.33 40.68 20.66 40 21 C39.34 20.67 38.68 20.34 38 20 C33.662 18.554 29.439 18.981 25 20 C24.67 20.66 24.34 21.32 24 22 C24.875 16.25 24.875 16.25 26 14 C-9.431 13.51 -9.431 13.51 -44.625 16.984 C-49.728 17.799 -54.599 18.101 -59.766 18.019 C-62.414 17.996 -64.995 18.199 -67.625 18.5 C-68.463 18.593 -69.301 18.686 -70.164 18.781 C-70.77 18.853 -71.376 18.926 -72 19 C-61.94 8.94 -26.378 11.8 -12.938 10.875 C-10.317 10.692 -7.697 10.508 -5.076 10.324 C1.282 9.879 7.641 9.438 14 9 C9.38 6.36 4.76 3.72 0 1 C0 0.67 0 0.34 0 0 Z " fill="#060606" transform="translate(256,107)"/>
<path d="M0 0 C1 3 1 3 0.938 6.062 C0.664 9.125 0.664 9.125 3 11 C-3.065 11.966 -9.127 12.434 -15.25 12.875 C-23.136 13.46 -31.017 14.076 -38.895 14.762 C-39.654 14.828 -40.413 14.894 -41.196 14.962 C-44.924 15.287 -48.651 15.615 -52.378 15.947 C-60.344 16.648 -68.302 17.241 -76.29 17.63 C-80.26 17.837 -84.09 18.287 -88 19 C-91.88 19.359 -95.051 19.569 -98.5 17.5 C-98.995 17.005 -99.49 16.51 -100 16 C-99.34 16 -98.68 16 -98 16 C-97.228 14.163 -97.228 14.163 -97 12 C-98.354 10.228 -98.354 10.228 -100 9 C-98.062 9.312 -98.062 9.312 -96 10 C-95.67 10.99 -95.34 11.98 -95 13 C-93.35 13 -91.7 13 -90 13 C-89.67 12.01 -89.34 11.02 -89 10 C-87.35 9.67 -85.7 9.34 -84 9 C-83.67 10.98 -83.34 12.96 -83 15 C-83.66 15 -84.32 15 -85 15 C-85.33 13.68 -85.66 12.36 -86 11 C-86.66 11.66 -87.32 12.32 -88 13 C-88 14.32 -88 15.64 -88 17 C-87.188 16.754 -87.188 16.754 -86.359 16.504 C-83.598 15.914 -81.072 15.904 -78.25 15.938 C-77.265 15.947 -76.28 15.956 -75.266 15.965 C-74.144 15.982 -74.144 15.982 -73 16 C-73 15.34 -73 14.68 -73 14 C-72.161 14.175 -71.322 14.35 -70.458 14.531 C-66.699 15.041 -63.447 14.863 -59.672 14.512 C-58.973 14.449 -58.275 14.386 -57.555 14.322 C-56.06 14.187 -54.565 14.049 -53.071 13.907 C-49.937 13.611 -46.803 13.331 -43.668 13.05 C-42.08 12.907 -40.493 12.764 -38.906 12.619 C-31.65 11.961 -24.39 11.371 -17.125 10.812 C-16.064 10.729 -15.003 10.645 -13.909 10.559 C-12.931 10.484 -11.953 10.409 -10.945 10.332 C-10.105 10.267 -9.265 10.203 -8.399 10.136 C-5.927 9.996 -3.475 9.977 -1 10 C-1 8.35 -1 6.7 -1 5 C-1.871 5.121 -1.871 5.121 -2.759 5.244 C-24.332 8.189 -46.192 10.668 -68 10 C-68 9.67 -68 9.34 -68 9 C-56.807 7.843 -45.656 6.867 -34.412 6.397 C-27.691 6.092 -21.033 5.454 -14.353 4.66 C-9.864 4.138 -5.52 3.91 -1 4 C-0.67 2.68 -0.34 1.36 0 0 Z " fill="#000000" transform="translate(234,208)"/>
<path d="M0 0 C1.599 -0.004 1.599 -0.004 3.23 -0.008 C5.812 0.125 5.812 0.125 6.812 1.125 C7.213 3.815 7.563 6.487 7.875 9.188 C8.339 13.117 8.339 13.117 8.812 17.125 C3.202 17.125 -2.407 17.125 -8.188 17.125 C-10.438 9.25 -10.438 9.25 -10.312 5.188 C-10.294 4.415 -10.276 3.643 -10.258 2.848 C-10.235 2.279 -10.211 1.711 -10.188 1.125 C-6.753 0.077 -3.58 -0.009 0 0 Z " fill="#FFFFFF" transform="translate(138.1875,164.875)"/>
<path d="M0 0 C0.495 8.415 0.495 8.415 1 17 C-3.95 17.33 -8.9 17.66 -14 18 C-15.829 13.427 -16.229 11.398 -16.125 6.688 C-16.107 5.619 -16.089 4.55 -16.07 3.449 C-16.047 2.641 -16.024 1.833 -16 1 C-10.593 0.08 -5.487 -0.084 0 0 Z " fill="#FFFFFF" transform="translate(143,147)"/>
<path d="M0 0 C1.246 3.847 1.148 7.691 1.125 11.688 C1.129 12.377 1.133 13.066 1.137 13.775 C1.127 18.873 1.127 18.873 0 20 C-1.853 20.072 -3.708 20.084 -5.562 20.062 C-6.574 20.053 -7.586 20.044 -8.629 20.035 C-9.411 20.024 -10.194 20.012 -11 20 C-13.355 13.766 -12.876 8.543 -12 2 C-7.823 0.409 -4.468 -0.213 0 0 Z " fill="#FFFFFF" transform="translate(261,158)"/>
<path d="M0 0 C0.99 0 1.98 0 3 0 C3.196 9.116 2.647 17.952 1.562 27 C1.428 28.187 1.293 29.374 1.154 30.598 C0.147 39.315 0.147 39.315 -0.527 42.458 C-1.098 45.527 -1.217 48.493 -1.316 51.613 C-1.358 52.86 -1.4 54.108 -1.443 55.393 C-1.483 56.686 -1.522 57.98 -1.562 59.312 C-1.627 61.282 -1.627 61.282 -1.693 63.291 C-1.799 66.527 -1.901 69.764 -2 73 C-3.98 73.495 -3.98 73.495 -6 74 C-6.227 65.687 -5.616 57.518 -4.773 49.255 C-4.561 47.174 -4.357 45.092 -4.154 43.01 C-3.155 32.919 -3.155 32.919 -2.486 28.956 C-1.98 25.876 -1.696 22.839 -1.465 19.727 C-1.334 17.996 -1.334 17.996 -1.201 16.23 C-1.071 14.446 -1.071 14.446 -0.938 12.625 C-0.847 11.412 -0.756 10.199 -0.662 8.949 C-0.439 5.966 -0.218 2.983 0 0 Z " fill="#FFFFFF" transform="translate(247,137)"/>
<path d="M0 0 C0.33 0.66 0.66 1.32 1 2 C0.325 2.08 -0.349 2.161 -1.044 2.244 C-4.155 2.617 -7.265 2.996 -10.375 3.375 C-11.436 3.501 -12.497 3.628 -13.59 3.758 C-19.302 4.459 -24.898 5.345 -30.529 6.527 C-35.028 7.388 -39.576 7.854 -44.125 8.375 C-52.461 9.369 -60.729 10.565 -69 12 C-80.12 13.924 -91.271 15.38 -102.477 16.701 C-105.987 17.117 -109.493 17.558 -113 18 C-112.502 20.756 -112.502 20.756 -111 23 C-110.859 25.671 -110.958 28.324 -111 31 C-111.33 31 -111.66 31 -112 31 C-112.33 28.69 -112.66 26.38 -113 24 C-115.31 23.67 -117.62 23.34 -120 23 C-120 25.31 -120 27.62 -120 30 C-120.33 30 -120.66 30 -121 30 C-121 27.36 -121 24.72 -121 22 C-119.02 22 -117.04 22 -115 22 C-115 20.68 -115 19.36 -115 18 C-120.408 19.098 -120.408 19.098 -124 23 C-126.938 23.375 -126.938 23.375 -130 23 C-131.875 21.5 -131.875 21.5 -133 20 C-132.67 19.34 -132.34 18.68 -132 18 C-131.019 18.027 -130.038 18.054 -129.027 18.082 C-124.778 18.079 -120.74 17.415 -116.562 16.688 C-109.163 15.454 -101.761 14.448 -94.312 13.562 C-85.278 12.476 -76.329 11.102 -67.364 9.553 C-58.093 7.971 -48.789 6.692 -39.469 5.437 C-31.634 4.377 -23.827 3.211 -16.025 1.94 C-10.691 1.081 -5.383 0.441 0 0 Z " fill="#000000" transform="translate(171,49)"/>
<path d="M0 0 C1.65 0 3.3 0 5 0 C5.433 5.067 5.86 10.135 6.282 15.204 C6.426 16.923 6.571 18.643 6.718 20.362 C7.507 29.584 8.282 38.733 8 48 C6.02 48.495 6.02 48.495 4 49 C2.861 38.407 1.854 27.842 1.327 17.2 C1.04 11.45 0.593 5.727 0 0 Z " fill="#FFFFFF" transform="translate(228,137)"/>
<path d="M0 0 C2.97 0 5.94 0 9 0 C10.047 4.187 10.112 7.979 10.062 12.25 C10.058 12.995 10.053 13.74 10.049 14.508 C10.037 16.339 10.019 18.169 10 20 C6.37 20.33 2.74 20.66 -1 21 C-0.67 14.07 -0.34 7.14 0 0 Z " fill="#FFFFFF" transform="translate(251,137)"/>
<path d="M0 0 C-3.279 2.186 -4.952 2.436 -8.809 2.895 C-10.013 3.043 -11.218 3.191 -12.459 3.344 C-13.429 3.458 -13.429 3.458 -14.419 3.575 C-17.905 3.985 -21.388 4.422 -24.871 4.855 C-25.606 4.946 -26.341 5.037 -27.099 5.13 C-35.745 6.203 -44.372 7.413 -53 8.625 C-55.917 9.034 -58.833 9.443 -61.75 9.852 C-62.441 9.949 -63.131 10.046 -63.843 10.146 C-67.289 10.628 -70.736 11.1 -74.186 11.553 C-74.86 11.642 -75.534 11.73 -76.229 11.822 C-78.064 12.062 -79.9 12.299 -81.737 12.536 C-86.199 13.17 -90.6 14.027 -95 15 C-95.33 17.31 -95.66 19.62 -96 22 C-94.68 22.66 -93.36 23.32 -92 24 C-92.33 24.66 -92.66 25.32 -93 26 C-93.784 25.649 -94.567 25.299 -95.375 24.938 C-96.241 24.628 -97.108 24.319 -98 24 C-98.99 24.495 -98.99 24.495 -100 25 C-98.515 19.555 -98.515 19.555 -97 14 C-98.299 14.33 -99.599 14.66 -100.938 15 C-105.726 16.079 -110.104 16.155 -115 16 C-115 16.66 -115 17.32 -115 18 C-116.051 18.061 -117.101 18.121 -118.184 18.184 C-125.483 18.615 -132.741 19.093 -140 20 C-136.337 17.558 -133.011 17.209 -128.75 16.625 C-127.879 16.5 -127.007 16.375 -126.11 16.246 C-116.921 14.945 -107.711 13.794 -98.505 12.626 C-86.744 11.127 -75.009 9.461 -63.277 7.75 C-55.844 6.67 -48.408 5.655 -40.953 4.74 C-36.314 4.169 -31.682 3.56 -27.051 2.93 C-25.771 2.756 -24.492 2.582 -23.174 2.402 C-21.221 2.136 -19.268 1.869 -17.316 1.599 C-15.374 1.331 -13.431 1.068 -11.488 0.805 C-10.359 0.65 -9.231 0.495 -8.068 0.335 C-5.344 0.038 -2.736 -0.066 0 0 Z " fill="#000000" transform="translate(143,137)"/>
<path d="M0 0 C1.346 0.075 2.693 0.151 4.039 0.229 C5.409 0.274 6.779 0.315 8.148 0.352 C11.491 0.457 14.826 0.605 18.164 0.791 C18.164 1.121 18.164 1.451 18.164 1.791 C17.183 2.022 16.202 2.252 15.191 2.49 C6.689 4.533 -1.512 6.93 -9.727 9.936 C-12.867 10.8 -13.859 10.704 -16.836 9.791 C-13.276 1.002 -9.18 -0.207 0 0 Z " fill="#FFFFFF" transform="translate(43.8359375,85.208984375)"/>
<path d="M0 0 C0.66 0 1.32 0 2 0 C3.451 16.702 4.316 33.234 4 50 C3.67 50 3.34 50 3 50 C-4.689 14.068 -4.689 14.068 0 0 Z " fill="#FFFFFF" transform="translate(148,138)"/>
<path d="M0 0 C2 0.75 2 0.75 4 3.75 C4.34 7.825 4.313 9.28 2 12.75 C-1.125 12.938 -1.125 12.938 -4 12.75 C-4.196 11.314 -4.381 9.876 -4.562 8.438 C-4.667 7.637 -4.771 6.836 -4.879 6.012 C-5 3.75 -5 3.75 -4 0.75 C-2 -0.25 -2 -0.25 0 0 Z " fill="#000000" transform="translate(295,289.25)"/>
<path d="M0 0 C1.65 0.33 3.3 0.66 5 1 C5.196 2.436 5.381 3.874 5.562 5.312 C5.667 6.113 5.771 6.914 5.879 7.738 C6 10 6 10 5 13 C2.125 13.188 2.125 13.188 -1 13 C-3.326 9.511 -3.419 8.103 -3 4 C-1.5 1.625 -1.5 1.625 0 0 Z " fill="#000000" transform="translate(273,289)"/>
<path d="M0 0 C1.32 0 2.64 0 4 0 C6.458 3.687 6.311 5.643 6 10 C5.01 11.485 5.01 11.485 4 13 C1.375 13.188 1.375 13.188 -1 13 C-2.919 10.178 -2.991 8.871 -2.75 5.375 C-2 2 -2 2 0 0 Z " fill="#000000" transform="translate(254,289)"/>
<path d="M0 0 C1.32 0 2.64 0 4 0 C4 0.66 4 1.32 4 2 C4.66 2 5.32 2 6 2 C7.33 8.286 7.33 8.286 5.875 11.438 C4 13 4 13 1.312 13.25 C0.549 13.168 -0.214 13.085 -1 13 C-2.177 9.47 -2.199 6.705 -2 3 C-1.34 2.01 -0.68 1.02 0 0 Z " fill="#000000" transform="translate(302,289)"/>
<path d="M0 0 C4.875 0.875 4.875 0.875 6 2 C6.098 3.664 6.13 5.333 6.125 7 C6.128 7.908 6.13 8.815 6.133 9.75 C6 12 6 12 5 13 C2.562 13.188 2.562 13.188 0 13 C-2 11 -2 11 -2.195 8.836 C-2.172 8.024 -2.149 7.212 -2.125 6.375 C-2.107 5.558 -2.089 4.74 -2.07 3.898 C-2.047 3.272 -2.024 2.645 -2 2 C-1.34 2 -0.68 2 0 2 C0 1.34 0 0.68 0 0 Z " fill="#000000" transform="translate(263,289)"/>
<path d="M0 0 C-0.33 2.31 -0.66 4.62 -1 7 C-3.083 7.054 -5.166 7.093 -7.25 7.125 C-8.99 7.16 -8.99 7.16 -10.766 7.195 C-13.828 7.01 -15.442 6.608 -18 5 C-17.67 4.01 -17.34 3.02 -17 2 C-14.73 1.664 -12.459 1.331 -10.188 1 C-8.291 0.722 -8.291 0.722 -6.355 0.438 C-3 0 -3 0 0 0 Z " fill="#E2E2E2" transform="translate(197,124)"/>
<path d="M0 0 C-2.341 2.341 -3.236 2.394 -6.438 2.852 C-7.333 2.98 -8.229 3.109 -9.152 3.242 C-10.092 3.369 -11.032 3.495 -12 3.625 C-12.909 3.759 -13.818 3.893 -14.754 4.031 C-20.146 4.783 -25.362 5.1 -30.804 5.017 C-33.438 4.997 -36.008 5.201 -38.625 5.5 C-39.463 5.593 -40.301 5.686 -41.164 5.781 C-41.77 5.853 -42.376 5.926 -43 6 C-35.274 -1.726 -10.237 -0.32 0 0 Z " fill="#000000" transform="translate(227,120)"/>
<path d="M0 0 C0.144 0.804 0.289 1.609 0.438 2.438 C0.741 4.921 0.741 4.921 2 6 C2.141 8.671 2.042 11.324 2 14 C1.67 14 1.34 14 1 14 C0.67 11.69 0.34 9.38 0 7 C-2.31 6.67 -4.62 6.34 -7 6 C-7 8.31 -7 10.62 -7 13 C-7.33 13 -7.66 13 -8 13 C-8 10.36 -8 7.72 -8 5 C-6.02 5 -4.04 5 -2 5 C-2 3.68 -2 2.36 -2 1 C-7.408 2.098 -7.408 2.098 -11 6 C-13.938 6.375 -13.938 6.375 -17 6 C-18.875 4.5 -18.875 4.5 -20 3 C-19.67 2.34 -19.34 1.68 -19 1 C-17.948 1.021 -16.896 1.041 -15.812 1.062 C-12.198 1.118 -12.198 1.118 -9.5 0.5 C-6.307 -0.139 -3.247 -0.064 0 0 Z " fill="#000000" transform="translate(58,66)"/>
<path d="M0 0 C-0.66 1.98 -1.32 3.96 -2 6 C-8.435 6.495 -8.435 6.495 -15 7 C-14.67 4.69 -14.34 2.38 -14 0 C-12.042 -0.195 -10.084 -0.38 -8.125 -0.562 C-6.489 -0.719 -6.489 -0.719 -4.82 -0.879 C-2 -1 -2 -1 0 0 Z " fill="#FFFFFF" transform="translate(263,210)"/>
<path d="M0 0 C2 1 2 1 3.812 4.312 C5.713 7.734 7.599 9.926 11 12 C13.584 12.334 13.584 12.334 16 12 C19 12 19 12 21 13 C22.447 13.151 23.899 13.249 25.352 13.316 C26.202 13.358 27.053 13.4 27.93 13.443 C28.819 13.483 29.709 13.522 30.625 13.562 C31.971 13.627 31.971 13.627 33.344 13.693 C35.562 13.8 37.781 13.902 40 14 C36.026 16.23 33.423 16.023 28.875 15.562 C24.283 14.866 24.283 14.866 20 16 C18.168 15.763 16.336 15.521 14.508 15.258 C9.688 14.762 4.84 14.927 0 15 C0 14.67 0 14.34 0 14 C2.31 13.34 4.62 12.68 7 12 C6.578 11.553 6.157 11.105 5.723 10.645 C0.281 4.64 0.281 4.64 0 0 Z " fill="#000000" transform="translate(19,66)"/>
<path d="M0 0 C0 0.66 0 1.32 0 2 C0.66 2.33 1.32 2.66 2 3 C1.34 3 0.68 3 0 3 C-0.33 3.99 -0.66 4.98 -1 6 C-4.473 7.158 -7.361 7.069 -11 7 C-10.648 4.394 -10.235 2.392 -8.875 0.125 C-5.873 -1.676 -3.298 -0.685 0 0 Z " fill="#FFFFFF" transform="translate(273,209)"/>
<path d="M0 0 C1.938 0.312 1.938 0.312 4 1 C4.33 1.99 4.66 2.98 5 4 C6.65 4 8.3 4 10 4 C10.33 5.32 10.66 6.64 11 8 C8 10 8 10 4.938 9.75 C2 9 2 9 0 7 C0.66 7 1.32 7 2 7 C2.772 5.163 2.772 5.163 3 3 C1.646 1.228 1.646 1.228 0 0 Z M15 0 C15.667 2 16.333 4 17 6 C16.34 6 15.68 6 15 6 C14.67 4.68 14.34 3.36 14 2 C12.02 2.99 12.02 2.99 10 4 C10.33 3.01 10.66 2.02 11 1 C13.062 0.312 13.062 0.312 15 0 Z " fill="#000000" transform="translate(134,217)"/>
<path d="M0 0 C3.214 2.167 6.248 4.495 8 8 C10.31 8 12.62 8 15 8 C12.443 10.557 11.175 10.339 7.625 10.562 C4.291 10.783 1.217 11.078 -2 12 C-1.67 10.68 -1.34 9.36 -1 8 C0.65 7.67 2.3 7.34 4 7 C1.834 4.333 1.834 4.333 -1 2 C-3.591 2.002 -3.591 2.002 -6 3 C-9.134 3.922 -9.741 4.086 -13 3 C-4.854 -0.91 -4.854 -0.91 0 0 Z " fill="#070707" transform="translate(35,34)"/>
<path d="M0 0 C2.75 1.291 5.5 2.583 8.25 3.875 C9.027 4.24 9.805 4.605 10.605 4.98 C11.36 5.335 12.114 5.689 12.891 6.055 C13.928 6.542 13.928 6.542 14.985 7.039 C17.003 8.001 19.004 8.994 21 10 C20.01 10.495 20.01 10.495 19 11 C18.34 10.67 17.68 10.34 17 10 C12.662 8.554 8.439 8.981 4 10 C3.67 10.66 3.34 11.32 3 12 C3.875 6.25 3.875 6.25 5 4 C3.35 4 1.7 4 0 4 C0 2.68 0 1.36 0 0 Z " fill="#333333" transform="translate(277,117)"/>
<path d="M0 0 C0.763 0.206 1.526 0.413 2.312 0.625 C3.438 5.375 3.438 5.375 2.312 7.625 C0.25 8.75 0.25 8.75 -1.688 9.625 C0.788 10.615 0.788 10.615 3.312 11.625 C3.312 11.955 3.312 12.285 3.312 12.625 C0.342 12.625 -2.627 12.625 -5.688 12.625 C-4.619 8.353 -4.249 7.783 -0.688 5.625 C-0.027 5.625 0.632 5.625 1.312 5.625 C0.983 4.635 0.652 3.645 0.312 2.625 C-0.678 2.295 -1.668 1.965 -2.688 1.625 C-3.017 2.615 -3.348 3.605 -3.688 4.625 C-4.348 4.625 -5.007 4.625 -5.688 4.625 C-5.688 3.635 -5.688 2.645 -5.688 1.625 C-2.688 -0.375 -2.688 -0.375 0 0 Z " fill="#000000" transform="translate(285.6875,289.375)"/>
<path d="M0 0 C2.64 0 5.28 0 8 0 C7.67 1.32 7.34 2.64 7 4 C7 3.34 7 2.68 7 2 C5.35 2 3.7 2 2 2 C1.67 2.99 1.34 3.98 1 5 C3.31 5.33 5.62 5.66 8 6 C9.125 10.75 9.125 10.75 8 13 C5.36 13 2.72 13 0 13 C-0.33 11.68 -0.66 10.36 -1 9 C-0.34 9 0.32 9 1 9 C1.33 9.66 1.66 10.32 2 11 C3.32 11 4.64 11 6 11 C6.33 10.01 6.66 9.02 7 8 C6.051 7.918 5.102 7.835 4.125 7.75 C1 7 1 7 -0.438 5.125 C-1 3 -1 3 0 0 Z " fill="#000000" transform="translate(236,289)"/>
<path d="M0 0 C2.64 0 5.28 0 8 0 C7.321 3.115 6.259 5.851 4.938 8.75 C4.394 9.949 4.394 9.949 3.84 11.172 C3.424 12.077 3.424 12.077 3 13 C2.34 12.67 1.68 12.34 1 12 C2.059 8.597 3.009 5.986 5 3 C3.35 3 1.7 3 0 3 C0 2.01 0 1.02 0 0 Z " fill="#000000" transform="translate(310,289)"/>
<path d="M0 0 C0.99 0 1.98 0 3 0 C4.125 6.625 4.125 6.625 3 10 C1.68 9.67 0.36 9.34 -1 9 C-1.098 2.848 -1.098 2.848 -1 1 C-0.67 0.67 -0.34 0.34 0 0 Z " fill="#FFFFFF" transform="translate(293,291)"/>
<path d="M0 0 C0.99 0.33 1.98 0.66 3 1 C3 3.64 3 6.28 3 9 C1.68 9 0.36 9 -1 9 C-1.625 6.188 -1.625 6.188 -2 3 C-1.34 2.01 -0.68 1.02 0 0 Z " fill="#FFFFFF" transform="translate(274,291)"/>
<path d="M0 0 C1.32 0.66 2.64 1.32 4 2 C3.67 4.31 3.34 6.62 3 9 C2.01 9.33 1.02 9.66 0 10 C-1.491 7.018 -1.119 4.284 -1 1 C-0.67 0.67 -0.34 0.34 0 0 Z " fill="#FFFFFF" transform="translate(264,291)"/>
<path d="M0 0 C1.125 6.625 1.125 6.625 0 10 C-1.32 9.34 -2.64 8.68 -4 8 C-4 5.69 -4 3.38 -4 1 C-2 0 -2 0 0 0 Z " fill="#FFFFFF" transform="translate(257,291)"/>
<path d="M0 0 C3.63 0 7.26 0 11 0 C10.34 1.65 9.68 3.3 9 5 C3.5 5.367 3.5 5.367 1.125 3.625 C0 2 0 2 0 0 Z " fill="#434343" transform="translate(38,67)"/>
<path d="M0 0 C0.99 0.33 1.98 0.66 3 1 C3.125 7.75 3.125 7.75 2 10 C1.01 9.67 0.02 9.34 -1 9 C-1.098 2.848 -1.098 2.848 -1 1 C-0.67 0.67 -0.34 0.34 0 0 Z " fill="#FFFFFF" transform="translate(303,291)"/>
<path d="M0 0 C0.312 2.549 0.513 5.004 0.625 7.562 C0.664 8.273 0.702 8.984 0.742 9.717 C0.837 11.477 0.919 13.239 1 15 C-2.441 11.559 -1.671 6.709 -2 2 C-6.62 2 -11.24 2 -16 2 C-15.67 1.34 -15.34 0.68 -15 0 C-12.129 -0.449 -12.129 -0.449 -8.562 -0.688 C-7.388 -0.774 -6.214 -0.86 -5.004 -0.949 C-2 -1 -2 -1 0 0 Z " fill="#000000" transform="translate(146,164)"/>
<path d="M0 0 C-0.33 0.99 -0.66 1.98 -1 3 C-2.114 2.979 -3.227 2.959 -4.375 2.938 C-9.289 2.929 -14.123 3.44 -19 4 C-14.652 -0.348 -5.884 -0.318 0 0 Z " fill="#1F1F1F" transform="translate(203,122)"/>
<path d="M0 0 C1.98 0 3.96 0 6 0 C6 1.32 6 2.64 6 4 C3.69 3.67 1.38 3.34 -1 3 C-0.67 2.01 -0.34 1.02 0 0 Z " fill="#FFFFFF" transform="translate(138,222)"/>
</svg>
