<?xml version="1.0" encoding="UTF-8"?>
<!-- Generator: visioncortex VTracer 0.6.4 -->
<svg version="1.1" xmlns="http://www.w3.org/2000/svg" width="325" height="311">
<path d="M0 0 C107.25 0 214.5 0 325 0 C325 102.63 325 205.26 325 311 C217.75 311 110.5 311 0 311 C0 208.37 0 105.74 0 0 Z " fill="#F7F7F7" transform="translate(0,0)"/>
<path d="M0 0 C5.61 0 11.22 0 17 0 C17.061 1.556 17.121 3.112 17.184 4.715 C17.268 6.789 17.353 8.863 17.438 10.938 C17.477 11.959 17.516 12.981 17.557 14.033 C17.744 18.552 17.96 23.033 18.508 27.523 C19.157 32.899 19.272 38.279 19.438 43.688 C19.76 52.924 20.344 62.089 21.276 71.284 C21.695 75.443 22.054 79.57 22.176 83.75 C22.201 84.483 22.226 85.216 22.252 85.97 C22.308 87.908 22.337 89.847 22.363 91.785 C23.177 95.892 24.868 97.32 28 100 C31 103.517 31 103.517 31 107 C31.66 107 32.32 107 33 107 C33.33 108.32 33.66 109.64 34 111 C34.66 111 35.32 111 36 111 C36 111.66 36 112.32 36 113 C36.66 113 37.32 113 38 113 C39.727 114.68 39.727 114.68 41.625 116.875 C42.257 117.594 42.888 118.314 43.539 119.055 C45 121 45 121 45 123 C45.66 123 46.32 123 47 123 C48.727 124.898 48.727 124.898 50.625 127.375 C51.572 128.593 51.572 128.593 52.539 129.836 C54 132 54 132 54 134 C54.99 134.33 55.98 134.66 57 135 C58.613 137.187 58.613 137.187 60.312 140 C61.229 141.491 61.229 141.491 62.164 143.012 C62.77 143.998 63.376 144.984 64 146 C65.536 148.348 67.096 150.677 68.668 153 C69.827 154.74 70.92 156.523 72 158.312 C74.29 161.39 76.789 162.957 80 165 C80 165.66 80 166.32 80 167 C80.66 167 81.32 167 82 167 C82 167.66 82 168.32 82 169 C82.66 169 83.32 169 84 169 C84.348 169.901 84.348 169.901 84.703 170.82 C85.753 173.529 86.814 176.233 87.875 178.938 C88.422 180.356 88.422 180.356 88.98 181.803 C89.335 182.702 89.689 183.601 90.055 184.527 C90.379 185.36 90.704 186.193 91.039 187.051 C91.841 189.172 91.841 189.172 94 190 C94 190.66 94 191.32 94 192 C94.99 192.33 95.98 192.66 97 193 C100.655 196.892 102.795 201.296 105.062 206.062 C107.113 210.348 109.092 214.222 112 218 C112 218.66 112 219.32 112 220 C112.897 220.433 112.897 220.433 113.812 220.875 C116 222 116 222 119 224 C119 224.99 119 225.98 119 227 C119.598 227.124 120.196 227.248 120.812 227.375 C123 228 123 228 126 230 C126 230.66 126 231.32 126 232 C126.99 232 127.98 232 129 232 C129 232.66 129 233.32 129 234 C129.66 234 130.32 234 131 234 C131.076 237.199 130.993 240.038 130.375 243.188 C129.658 246.202 129.658 246.202 132 249 C131.67 249.99 131.34 250.98 131 252 C130.381 251.041 130.381 251.041 129.75 250.062 C127.747 247.701 126.913 247.637 124 247 C122.25 245.562 122.25 245.562 121 244 C121 243.34 121 242.68 121 242 C120.34 242 119.68 242 119 242 C118 242 117 242 116 242 C115.091 240.637 114.19 239.269 113.316 237.883 C111.806 235.722 110.106 233.87 108.312 231.938 C104.896 228.167 101.899 224.233 99 220.062 C98.602 219.495 98.204 218.927 97.794 218.342 C95 214.254 95 214.254 95 212 C94.34 212 93.68 212 93 212 C89 207.529 89 207.529 89 205 C88.34 205 87.68 205 87 205 C85.492 203.539 85.492 203.539 83.875 201.625 C83.336 200.999 82.797 200.372 82.242 199.727 C81 198 81 198 81 196 C80.34 196 79.68 196 79 196 C78.443 194.989 77.886 193.979 77.312 192.938 C75.786 190.251 74.14 187.741 72.312 185.25 C70 182 70 182 69 179 C68.319 178.319 67.639 177.639 66.938 176.938 C66.298 176.298 65.659 175.659 65 175 C65 174.34 65 173.68 65 173 C64.34 173 63.68 173 63 173 C61.273 171.32 61.273 171.32 59.375 169.125 C58.743 168.406 58.112 167.686 57.461 166.945 C56 165 56 165 56 163 C54.35 162.34 52.7 161.68 51 161 C51 160.34 51 159.68 51 159 C50.237 158.711 49.474 158.423 48.688 158.125 C46 157 46 157 43 155 C43.66 154.67 44.32 154.34 45 154 C44.602 153.481 44.203 152.961 43.793 152.426 C40.973 148.714 38.338 145.038 36 141 C34.917 139.422 34.917 139.422 33.812 137.812 C32 135 32 135 32 133 C31.34 133 30.68 133 30 133 C28.363 130.737 26.854 128.487 25.375 126.125 C24.955 125.474 24.535 124.823 24.102 124.152 C21 119.268 21 119.268 21 117 C20.34 117 19.68 117 19 117 C17.852 115.355 17.852 115.355 16.625 113.188 C14.763 110.066 13.191 107.891 10 106 C10 106.66 10 107.32 10 108 C8.515 108.99 8.515 108.99 7 110 C7.387 110.568 7.773 111.137 8.172 111.723 C19 127.777 19 127.777 19 134 C19.99 133.67 20.98 133.34 22 133 C22.351 133.639 22.701 134.279 23.062 134.938 C27.538 142.487 27.538 142.487 34 148 C34.667 149.333 35.333 150.667 36 152 C36.66 152.33 37.32 152.66 38 153 C38 153.66 38 154.32 38 155 C38.835 155.402 38.835 155.402 39.688 155.812 C42.212 157.109 44.637 158.425 47 160 C47 160.66 47 161.32 47 162 C47.99 162.33 48.98 162.66 50 163 C50 163.66 50 164.32 50 165 C50.66 165 51.32 165 52 165 C52 165.66 52 166.32 52 167 C52.66 167 53.32 167 54 167 C54 167.66 54 168.32 54 169 C54.99 169.33 55.98 169.66 57 170 C61 175.371 61 175.371 61 178 C61.99 178.33 62.98 178.66 64 179 C65.35 180.551 65.35 180.551 66.699 182.527 C67.186 183.237 67.672 183.947 68.174 184.678 C68.673 185.423 69.173 186.169 69.688 186.938 C70.199 187.679 70.71 188.421 71.236 189.186 C75 194.728 75 194.728 75 197 C75.66 197 76.32 197 77 197 C80 201.385 80 201.385 80 204 C80.66 204 81.32 204 82 204 C83.746 206.45 85.39 208.9 87 211.438 C87.892 212.835 88.787 214.229 89.688 215.621 C90.083 216.244 90.479 216.867 90.887 217.51 C91.946 219.16 91.946 219.16 94 220 C94 220.99 94 221.98 94 223 C94.66 223 95.32 223 96 223 C99 227.385 99 227.385 99 230 C99.66 230 100.32 230 101 230 C102.237 231.437 102.237 231.437 103.602 233.43 C104.091 234.143 104.581 234.855 105.086 235.59 C105.594 236.344 106.102 237.098 106.625 237.875 C107.141 238.621 107.656 239.368 108.188 240.137 C112 245.734 112 245.734 112 248 C112.66 248 113.32 248 114 248 C115.262 249.617 115.262 249.617 116.688 251.875 C119.549 256.333 122.576 260.641 125.68 264.934 C127 267 127 267 127 269 C126.34 269 125.68 269 125 269 C121 263.588 121 263.588 121 261 C120.34 261 119.68 261 119 261 C117.711 259.32 117.711 259.32 116.375 257.125 C115.929 256.406 115.483 255.686 115.023 254.945 C114 253 114 253 114 251 C113.34 251 112.68 251 112 251 C110.492 249.102 110.492 249.102 108.875 246.625 C108.336 245.813 107.797 245.001 107.242 244.164 C106 242 106 242 106 240 C105.34 240 104.68 240 104 240 C104 239.01 104 238.02 104 237 C103.34 237 102.68 237 102 237 C100.711 235.539 100.711 235.539 99.375 233.625 C98.929 232.999 98.483 232.372 98.023 231.727 C97 230 97 230 97 228 C96.34 228 95.68 228 95 228 C94.587 227.093 94.175 226.185 93.75 225.25 C92.073 222.135 90.505 220.429 88 218 C86.636 216.021 85.306 214.018 84 212 C82.352 209.653 80.676 207.327 79 205 C78.963 205.615 78.925 206.23 78.887 206.863 C78.821 207.672 78.755 208.48 78.688 209.312 C78.629 210.113 78.571 210.914 78.512 211.738 C77.912 214.391 77.143 215.365 75 217 C74.34 217 73.68 217 73 217 C73 217.66 73 218.32 73 219 C72.34 219 71.68 219 71 219 C71 219.66 71 220.32 71 221 C69.625 222.625 69.625 222.625 68 224 C67.34 224 66.68 224 66 224 C66 224.66 66 225.32 66 226 C65.34 226 64.68 226 64 226 C64 226.66 64 227.32 64 228 C62.625 229.625 62.625 229.625 61 231 C60.34 231 59.68 231 59 231 C59 231.66 59 232.32 59 233 C58.34 233 57.68 233 57 233 C57 233.66 57 234.32 57 235 C54.625 237.625 54.625 237.625 52 240 C51.34 240 50.68 240 50 240 C50 240.66 50 241.32 50 242 C47.625 244.625 47.625 244.625 45 247 C44.34 247 43.68 247 43 247 C43 247.66 43 248.32 43 249 C40.625 251.625 40.625 251.625 38 254 C37.34 254 36.68 254 36 254 C36 254.66 36 255.32 36 256 C33.428 258.799 30.689 261.288 27.75 263.688 C24.983 265.704 24.983 265.704 24 268 C22.35 267.67 20.7 267.34 19 267 C19 265.68 19 264.36 19 263 C17.68 262.67 16.36 262.34 15 262 C16.32 262 17.64 262 19 262 C19.158 251.335 18.832 240.844 17.889 230.222 C17.528 226.13 17.193 222.036 16.859 217.941 C16.788 217.071 16.717 216.2 16.644 215.303 C15.6 202.283 14.853 189.243 14.064 176.206 C13.943 174.202 13.821 172.199 13.699 170.195 C13.64 169.228 13.582 168.26 13.521 167.264 C13.164 161.462 12.771 155.664 12.332 149.867 C12.233 148.554 12.134 147.242 12.031 145.889 C11.85 143.547 11.664 141.206 11.47 138.865 C11.393 137.863 11.315 136.861 11.234 135.828 C11.164 134.982 11.095 134.135 11.022 133.263 C11 130.987 11.342 129.17 12 127 C12.464 128.176 12.464 128.176 12.938 129.375 C13.929 131.923 13.929 131.923 15 134 C15.66 133.67 16.32 133.34 17 133 C16.423 132.241 15.845 131.481 15.25 130.699 C14.136 129.208 14.136 129.208 13 127.688 C11.886 126.208 11.886 126.208 10.75 124.699 C9 122 9 122 9 119 C8.34 119 7.68 119 7 119 C6.546 118.031 6.093 117.061 5.625 116.062 C4.342 112.929 4.342 112.929 2 112 C3.256 108.231 4.66 107.92 8 106 C8.495 105.01 8.495 105.01 9 104 C9.66 104 10.32 104 11 104 C11 103.34 11 102.68 11 102 C10.34 102 9.68 102 9 102 C8.942 101.373 8.884 100.746 8.824 100.1 C8.213 93.529 7.595 86.958 6.974 80.387 C6.743 77.941 6.514 75.494 6.287 73.047 C5.959 69.514 5.625 65.981 5.289 62.449 C5.14 60.828 5.14 60.828 4.989 59.174 C4.505 54.133 3.896 49.187 2.943 44.211 C2.099 39.799 1.712 35.663 1.621 31.172 C1.604 30.494 1.587 29.816 1.57 29.117 C1.517 26.995 1.477 24.873 1.438 22.75 C1.393 20.613 1.346 18.477 1.295 16.34 C1.249 14.413 1.211 12.485 1.174 10.558 C1.001 7.021 0.501 3.505 0 0 Z " fill="#DFDFDF" transform="translate(180,13)"/>
<path d="M0 0 C5.61 0 11.22 0 17 0 C17.061 1.556 17.121 3.112 17.184 4.715 C17.268 6.789 17.353 8.863 17.438 10.938 C17.477 11.959 17.516 12.981 17.557 14.033 C17.744 18.552 17.96 23.033 18.508 27.523 C19.157 32.899 19.272 38.279 19.438 43.688 C19.76 52.924 20.344 62.089 21.276 71.284 C21.695 75.443 22.054 79.57 22.176 83.75 C22.201 84.483 22.226 85.216 22.252 85.97 C22.308 87.908 22.337 89.847 22.363 91.785 C23.177 95.892 24.868 97.32 28 100 C31 103.517 31 103.517 31 107 C31.66 107 32.32 107 33 107 C33.33 108.32 33.66 109.64 34 111 C34.66 111 35.32 111 36 111 C36 111.66 36 112.32 36 113 C36.66 113 37.32 113 38 113 C39.727 114.68 39.727 114.68 41.625 116.875 C42.257 117.594 42.888 118.314 43.539 119.055 C45 121 45 121 45 123 C45.66 123 46.32 123 47 123 C48.727 124.898 48.727 124.898 50.625 127.375 C51.572 128.593 51.572 128.593 52.539 129.836 C54 132 54 132 54 134 C54.99 134.33 55.98 134.66 57 135 C58.613 137.187 58.613 137.187 60.312 140 C61.229 141.491 61.229 141.491 62.164 143.012 C62.77 143.998 63.376 144.984 64 146 C65.536 148.348 67.096 150.677 68.668 153 C69.827 154.74 70.92 156.523 72 158.312 C74.29 161.39 76.789 162.957 80 165 C80 165.66 80 166.32 80 167 C80.66 167 81.32 167 82 167 C82 167.66 82 168.32 82 169 C82.66 169 83.32 169 84 169 C84.348 169.901 84.348 169.901 84.703 170.82 C85.753 173.529 86.814 176.233 87.875 178.938 C88.422 180.356 88.422 180.356 88.98 181.803 C89.335 182.702 89.689 183.601 90.055 184.527 C90.379 185.36 90.704 186.193 91.039 187.051 C91.841 189.172 91.841 189.172 94 190 C94 190.66 94 191.32 94 192 C94.99 192.33 95.98 192.66 97 193 C100.655 196.892 102.795 201.296 105.062 206.062 C107.113 210.348 109.092 214.222 112 218 C112 218.66 112 219.32 112 220 C112.897 220.433 112.897 220.433 113.812 220.875 C116 222 116 222 119 224 C119 224.99 119 225.98 119 227 C119.598 227.124 120.196 227.248 120.812 227.375 C123 228 123 228 126 230 C126 230.66 126 231.32 126 232 C126.99 232 127.98 232 129 232 C129 232.66 129 233.32 129 234 C129.66 234 130.32 234 131 234 C131.076 237.199 130.993 240.038 130.375 243.188 C129.658 246.202 129.658 246.202 132 249 C131.67 249.99 131.34 250.98 131 252 C130.381 251.041 130.381 251.041 129.75 250.062 C127.747 247.701 126.913 247.637 124 247 C122.25 245.562 122.25 245.562 121 244 C121 243.34 121 242.68 121 242 C120.34 242 119.68 242 119 242 C118 242 117 242 116 242 C115.091 240.637 114.19 239.269 113.316 237.883 C111.806 235.722 110.106 233.87 108.312 231.938 C104.896 228.167 101.899 224.233 99 220.062 C98.602 219.495 98.204 218.927 97.794 218.342 C95 214.254 95 214.254 95 212 C94.34 212 93.68 212 93 212 C89 207.529 89 207.529 89 205 C88.34 205 87.68 205 87 205 C85.492 203.539 85.492 203.539 83.875 201.625 C83.336 200.999 82.797 200.372 82.242 199.727 C81 198 81 198 81 196 C80.34 196 79.68 196 79 196 C78.443 194.989 77.886 193.979 77.312 192.938 C75.786 190.251 74.14 187.741 72.312 185.25 C70 182 70 182 69 179 C68.319 178.319 67.639 177.639 66.938 176.938 C66.298 176.298 65.659 175.659 65 175 C65 174.34 65 173.68 65 173 C64.34 173 63.68 173 63 173 C61.273 171.32 61.273 171.32 59.375 169.125 C58.743 168.406 58.112 167.686 57.461 166.945 C56 165 56 165 56 163 C54.35 162.34 52.7 161.68 51 161 C51 160.34 51 159.68 51 159 C50.237 158.711 49.474 158.423 48.688 158.125 C46 157 46 157 43 155 C43.66 154.67 44.32 154.34 45 154 C44.602 153.481 44.203 152.961 43.793 152.426 C40.973 148.714 38.338 145.038 36 141 C34.917 139.422 34.917 139.422 33.812 137.812 C32 135 32 135 32 133 C31.34 133 30.68 133 30 133 C28.363 130.737 26.854 128.487 25.375 126.125 C24.955 125.474 24.535 124.823 24.102 124.152 C21 119.268 21 119.268 21 117 C20.34 117 19.68 117 19 117 C17.852 115.355 17.852 115.355 16.625 113.188 C14.763 110.066 13.191 107.891 10 106 C10 106.66 10 107.32 10 108 C8.515 108.99 8.515 108.99 7 110 C7.387 110.568 7.773 111.137 8.172 111.723 C19 127.777 19 127.777 19 134 C19.99 133.67 20.98 133.34 22 133 C22.351 133.639 22.701 134.279 23.062 134.938 C27.538 142.487 27.538 142.487 34 148 C34.667 149.333 35.333 150.667 36 152 C36.66 152.33 37.32 152.66 38 153 C38 153.66 38 154.32 38 155 C38.835 155.402 38.835 155.402 39.688 155.812 C42.212 157.109 44.637 158.425 47 160 C47 160.66 47 161.32 47 162 C47.99 162.33 48.98 162.66 50 163 C50 163.66 50 164.32 50 165 C50.66 165 51.32 165 52 165 C52 165.66 52 166.32 52 167 C52.66 167 53.32 167 54 167 C54 167.66 54 168.32 54 169 C54.99 169.33 55.98 169.66 57 170 C61 175.371 61 175.371 61 178 C61.99 178.33 62.98 178.66 64 179 C65.35 180.551 65.35 180.551 66.699 182.527 C67.186 183.237 67.672 183.947 68.174 184.678 C68.673 185.423 69.173 186.169 69.688 186.938 C70.199 187.679 70.71 188.421 71.236 189.186 C75 194.728 75 194.728 75 197 C75.66 197 76.32 197 77 197 C80 201.385 80 201.385 80 204 C80.66 204 81.32 204 82 204 C83.746 206.45 85.39 208.9 87 211.438 C87.892 212.835 88.787 214.229 89.688 215.621 C90.083 216.244 90.479 216.867 90.887 217.51 C91.946 219.16 91.946 219.16 94 220 C94 220.99 94 221.98 94 223 C94.66 223 95.32 223 96 223 C99 227.385 99 227.385 99 230 C99.66 230 100.32 230 101 230 C102.237 231.437 102.237 231.437 103.602 233.43 C104.091 234.143 104.581 234.855 105.086 235.59 C105.594 236.344 106.102 237.098 106.625 237.875 C107.141 238.621 107.656 239.368 108.188 240.137 C112 245.734 112 245.734 112 248 C112.66 248 113.32 248 114 248 C115.262 249.617 115.262 249.617 116.688 251.875 C119.549 256.333 122.576 260.641 125.68 264.934 C127 267 127 267 127 269 C126.34 269 125.68 269 125 269 C121 263.588 121 263.588 121 261 C120.34 261 119.68 261 119 261 C117.711 259.32 117.711 259.32 116.375 257.125 C115.929 256.406 115.483 255.686 115.023 254.945 C114 253 114 253 114 251 C113.34 251 112.68 251 112 251 C110.492 249.102 110.492 249.102 108.875 246.625 C108.336 245.813 107.797 245.001 107.242 244.164 C106 242 106 242 106 240 C105.34 240 104.68 240 104 240 C104 239.01 104 238.02 104 237 C103.34 237 102.68 237 102 237 C100.711 235.539 100.711 235.539 99.375 233.625 C98.929 232.999 98.483 232.372 98.023 231.727 C97 230 97 230 97 228 C96.34 228 95.68 228 95 228 C94.587 227.093 94.175 226.185 93.75 225.25 C92.073 222.135 90.505 220.429 88 218 C86.636 216.021 85.306 214.018 84 212 C82.352 209.653 80.676 207.327 79 205 C78.67 207.97 78.34 210.94 78 214 C77.34 213.67 76.68 213.34 76 213 C76.023 212.108 76.046 211.216 76.07 210.297 C76.088 209.126 76.106 207.956 76.125 206.75 C76.148 205.59 76.171 204.43 76.195 203.234 C76.01 200.172 75.608 198.558 74 196 C73.34 196 72.68 196 72 196 C72 195.01 72 194.02 72 193 C71.34 193 70.68 193 70 193 C67.704 190.439 67 189.52 67 186 C66.34 186 65.68 186 65 186 C63.685 184.362 62.448 182.662 61.25 180.938 C58.794 177.46 56.33 174.118 53.5 170.938 C51 168 51 168 51 166 C50.428 165.732 49.855 165.464 49.266 165.188 C46.921 163.959 44.876 162.575 42.75 161 C42.044 160.484 41.337 159.969 40.609 159.438 C40.078 158.963 39.547 158.489 39 158 C39 157.34 39 156.68 39 156 C38.257 155.732 37.515 155.464 36.75 155.188 C34.109 154.047 32.144 152.906 30 151 C30 150.34 30 149.68 30 149 C29.34 149 28.68 149 28 149 C28 148.34 28 147.68 28 147 C27.01 146.67 26.02 146.34 25 146 C23.855 144.265 22.726 142.517 21.668 140.727 C20.324 138.529 18.936 136.402 17.488 134.273 C17.039 133.612 16.59 132.951 16.127 132.27 C15.219 130.938 14.307 129.608 13.39 128.281 C11.306 125.205 9.749 122.637 9 119 C8.34 119 7.68 119 7 119 C6.546 118.031 6.093 117.061 5.625 116.062 C4.342 112.929 4.342 112.929 2 112 C3.256 108.231 4.66 107.92 8 106 C8.495 105.01 8.495 105.01 9 104 C9.66 104 10.32 104 11 104 C11 103.34 11 102.68 11 102 C10.34 102 9.68 102 9 102 C8.942 101.373 8.884 100.746 8.824 100.1 C8.213 93.529 7.595 86.958 6.974 80.387 C6.743 77.941 6.514 75.494 6.287 73.047 C5.959 69.514 5.625 65.981 5.289 62.449 C5.14 60.828 5.14 60.828 4.989 59.174 C4.505 54.133 3.896 49.187 2.943 44.211 C2.099 39.799 1.712 35.663 1.621 31.172 C1.604 30.494 1.587 29.816 1.57 29.117 C1.517 26.995 1.477 24.873 1.438 22.75 C1.393 20.613 1.346 18.477 1.295 16.34 C1.249 14.413 1.211 12.485 1.174 10.558 C1.001 7.021 0.501 3.505 0 0 Z " fill="#090909" transform="translate(180,13)"/>
<path d="M0 0 C15.844 3.83 15.844 3.83 22.582 6.215 C27.173 7.706 31.873 8.838 36.547 10.035 C37.686 10.354 38.826 10.672 40 11 C40.933 11.184 41.867 11.369 42.828 11.559 C45.458 13.304 45.529 14.023 46.246 17.016 C47.082 21.899 47.61 26.818 48.062 31.75 C48.591 37.722 48.591 37.722 49.527 43.637 C50.389 47.944 50.457 52.345 50.719 56.723 C50.891 59.815 50.891 59.815 51.527 62.012 C52.222 64.933 52.092 67.754 52.062 70.75 C52.053 71.92 52.044 73.091 52.035 74.297 C52.024 75.189 52.012 76.081 52 77 C39.9 73.534 27.617 69.823 16.047 64.836 C14.031 63.958 14.031 63.958 11.953 63.477 C10.062 62.938 10.062 62.938 7 61 C0.943 48.956 1.784 31.381 1.341 18.194 C1.133 12.094 0.686 6.065 0 0 Z " fill="#FFFFFF" transform="translate(93,128)"/>
<path d="M0 0 C2.222 2.222 2.926 4.085 4 7 C4.66 7 5.32 7 6 7 C6.95 8.663 7.9 10.327 8.848 11.992 C9.595 13.295 10.353 14.592 11.121 15.883 C14.222 21.13 15.089 24.956 15.465 30.988 C15.542 32.162 15.618 33.336 15.698 34.546 C15.777 35.789 15.856 37.032 15.938 38.312 C16.451 45.992 16.963 53.63 18.062 61.25 C20.579 78.743 20.112 96.373 20 114 C22.475 113.505 22.475 113.505 25 113 C25 108.05 25 103.1 25 98 C25.33 98 25.66 98 26 98 C26.061 98.771 26.121 99.542 26.184 100.336 C26.267 101.339 26.351 102.342 26.438 103.375 C26.519 104.373 26.6 105.37 26.684 106.398 C26.85 108.979 26.85 108.979 28 111 C29.485 111.99 29.485 111.99 31 113 C26.264 115.991 22.781 116.239 17.367 115.91 C14.62 116.014 13.196 116.331 11 118 C10.298 120.417 10.298 120.417 10.25 123.125 C10.193 124.035 10.137 124.945 10.078 125.883 C10.052 126.581 10.027 127.28 10 128 C11.32 128 12.64 128 14 128 C14.049 127.374 14.098 126.747 14.148 126.102 C14.223 125.284 14.298 124.467 14.375 123.625 C14.479 122.407 14.479 122.407 14.586 121.164 C15 119 15 119 17 117 C16.859 118.625 16.712 120.25 16.562 121.875 C16.481 122.78 16.4 123.685 16.316 124.617 C16 127 16 127 15 129 C15.33 129 15.66 129 16 129 C17.026 127.687 18.027 126.353 19 125 C18.504 129.591 18.504 129.591 16 131.625 C15.34 132.079 14.68 132.533 14 133 C13.67 133.99 13.34 134.98 13 136 C15.712 134.387 18.374 132.751 21 131 C19.501 134.816 17.201 136.537 14 139 C13.505 139.99 13.505 139.99 13 141 C11.35 140.67 9.7 140.34 8 140 C8 138.68 8 137.36 8 136 C6.68 135.67 5.36 135.34 4 135 C5.32 135 6.64 135 8 135 C8.158 124.335 7.832 113.844 6.889 103.222 C6.528 99.13 6.193 95.036 5.859 90.941 C5.788 90.071 5.717 89.2 5.644 88.303 C4.765 77.337 4.104 66.356 3.438 55.375 C3.19 51.315 2.943 47.255 2.695 43.195 C2.636 42.228 2.577 41.26 2.516 40.264 C1.934 30.792 1.269 21.328 0.558 11.865 C0.484 10.863 0.409 9.861 0.332 8.828 C0.267 7.982 0.203 7.135 0.136 6.263 C0.011 4.178 0 2.088 0 0 Z " fill="#0A0A0A" transform="translate(191,140)"/>
<path d="M0 0 C0.33 0 0.66 0 1 0 C2.235 15.971 2.547 31.992 3 48 C6.315 46.291 6.315 46.291 6.688 42.875 C6.791 41.926 6.894 40.977 7 40 C7.33 40 7.66 40 8 40 C8.037 38.819 8.075 37.638 8.113 36.422 C8.179 34.865 8.245 33.307 8.312 31.75 C8.335 30.973 8.358 30.195 8.381 29.395 C8.416 28.64 8.452 27.886 8.488 27.109 C8.514 26.418 8.541 25.727 8.568 25.015 C9 23 9 23 12 19 C12.33 25.6 12.66 32.2 13 39 C13.66 37.68 14.32 36.36 15 35 C15.99 35 16.98 35 18 35 C17.67 34.34 17.34 33.68 17 33 C16.917 31.552 16.893 30.099 16.902 28.648 C16.906 27.798 16.909 26.947 16.912 26.07 C16.925 24.736 16.925 24.736 16.938 23.375 C16.942 22.478 16.947 21.581 16.951 20.656 C16.963 18.437 16.979 16.219 17 14 C17.33 14 17.66 14 18 14 C18.495 20.93 18.495 20.93 19 28 C19.759 24.206 20.136 21.288 20.125 17.5 C20.128 16.582 20.13 15.664 20.133 14.719 C20.002 12.05 19.594 9.601 19 7 C19.495 7.99 19.495 7.99 20 9 C20.66 9 21.32 9 22 9 C22 15.27 22 21.54 22 28 C23.65 27.34 25.3 26.68 27 26 C27.495 24.515 27.495 24.515 28 23 C28.66 22.34 29.32 21.68 30 21 C30 21.99 30 22.98 30 24 C30.66 24 31.32 24 32 24 C32.286 32.571 32.286 32.571 30 36 C29.34 36 28.68 36 28 36 C28 36.66 28 37.32 28 38 C27.34 38 26.68 38 26 38 C26 38.66 26 39.32 26 40 C24.625 41.625 24.625 41.625 23 43 C22.34 43 21.68 43 21 43 C21 43.66 21 44.32 21 45 C20.34 45 19.68 45 19 45 C19 45.66 19 46.32 19 47 C17.625 48.625 17.625 48.625 16 50 C15.34 50 14.68 50 14 50 C14 50.66 14 51.32 14 52 C13.34 52 12.68 52 12 52 C12 52.66 12 53.32 12 54 C9.625 56.625 9.625 56.625 7 59 C6.34 59 5.68 59 5 59 C5 59.66 5 60.32 5 61 C2.625 63.625 2.625 63.625 0 66 C-0.66 66 -1.32 66 -2 66 C-2 66.66 -2 67.32 -2 68 C-4.375 70.625 -4.375 70.625 -7 73 C-7.66 73 -8.32 73 -9 73 C-9 73.66 -9 74.32 -9 75 C-10.609 76.473 -10.609 76.473 -12.75 78.062 C-13.446 78.59 -14.142 79.117 -14.859 79.66 C-16.951 80.969 -18.59 81.56 -21 82 C-20.458 78.204 -18.799 76.528 -16 74 C-17.32 74.99 -18.64 75.98 -20 77 C-20.33 76.34 -20.66 75.68 -21 75 C-20.34 75 -19.68 75 -19 75 C-19 74.01 -19 73.02 -19 72 C-19.495 72.99 -19.495 72.99 -20 74 C-21.32 74 -22.64 74 -24 74 C-24.285 70.621 -24.407 67.373 -24 64 C-22.125 61.875 -22.125 61.875 -19 61 C-16.447 60.905 -13.953 60.937 -11.402 61.09 C-8.756 60.991 -7.256 60.339 -5 59 C-5.227 58.402 -5.454 57.804 -5.688 57.188 C-5.791 56.466 -5.894 55.744 -6 55 C-5.513 54.576 -5.026 54.153 -4.524 53.716 C-2.332 51.247 -2.742 49.606 -2.926 46.355 C-2.981 45.213 -3.036 44.071 -3.092 42.894 C-3.165 41.671 -3.238 40.448 -3.312 39.188 C-3.436 36.655 -3.555 34.123 -3.672 31.59 C-3.732 30.32 -3.792 29.05 -3.854 27.742 C-4.069 22.243 -4.09 16.752 -4.062 11.25 C-4.056 9.841 -4.056 9.841 -4.05 8.403 C-4.038 6.269 -4.02 4.134 -4 2 C-3.67 2 -3.34 2 -3 2 C-2.34 17.51 -1.68 33.02 -1 49 C-0.67 47.02 -0.34 45.04 0 43 C-0.33 43 -0.66 43 -1 43 C-1.127 28.627 -0.88 14.347 0 0 Z " fill="#D6D6D6" transform="translate(225,194)"/>
<path d="M0 0 C4.286 0.55 8.118 1.641 12.176 3.047 C15.785 4.265 19.423 5.378 23.062 6.5 C27.696 7.936 32.288 9.411 36.805 11.184 C40.708 12.635 44.677 13.905 48.635 15.199 C52.143 16.353 55.589 17.585 59 19 C58.67 20.32 58.34 21.64 58 23 C58.922 23.29 58.922 23.29 59.863 23.586 C60.672 23.846 61.48 24.107 62.312 24.375 C63.113 24.63 63.914 24.885 64.738 25.148 C67 26 67 26 70 28 C69.67 29.32 69.34 30.64 69 32 C69.66 32.33 70.32 32.66 71 33 C72.333 33.667 73.667 34.333 75 35 C75.33 32.69 75.66 30.38 76 28 C76.33 28 76.66 28 77 28 C77.381 30.326 77.713 32.661 78 35 C77.67 35.33 77.34 35.66 77 36 C75.18 35.984 75.18 35.984 72.875 35.75 C72.13 35.683 71.385 35.616 70.617 35.547 C67.891 34.977 65.571 33.971 63.039 32.833 C58.143 30.832 52.943 29.586 47.855 28.162 C46.988 27.911 46.12 27.661 45.227 27.402 C44.438 27.181 43.65 26.959 42.838 26.73 C41 26 41 26 40 24 C40.33 23.34 40.66 22.68 41 22 C40.278 21.876 39.556 21.752 38.812 21.625 C36.043 21.01 33.603 20.116 31 19 C31 18.34 31 17.68 31 17 C29.68 17 28.36 17 27 17 C27 16.34 27 15.68 27 15 C26.316 14.912 25.631 14.825 24.926 14.734 C21.305 13.825 18.366 12.141 15.188 10.25 C14.573 9.891 13.959 9.532 13.326 9.162 C11.545 8.117 9.771 7.061 8 6 C7.112 5.47 6.224 4.94 5.309 4.395 C3.516 3.301 1.753 2.157 0 1 C0 0.67 0 0.34 0 0 Z " fill="#BCBCBC" transform="translate(21,159)"/>
<path d="M0 0 C2.97 0.495 2.97 0.495 6 1 C6.58 5.194 7.149 9.389 7.709 13.585 C7.9 15.007 8.094 16.429 8.291 17.85 C11.008 37.491 11.008 37.491 10 44 C8.605 45.823 8.605 45.823 7 47 C6.34 47 5.68 47 5 47 C5 47.66 5 48.32 5 49 C4.34 49 3.68 49 3 49 C1.045 32.692 0.42 16.412 0 0 Z " fill="#FFFFFF" transform="translate(140,205)"/>
<path d="M0 0 C4.904 0.472 9.632 1.278 14.438 2.375 C15.982 2.727 15.982 2.727 17.559 3.086 C18.767 3.538 18.767 3.538 20 4 C20.33 4.99 20.66 5.98 21 7 C22.702 6.923 22.702 6.923 24.438 6.844 C29.266 6.844 33.432 8.035 38 9.5 C38.775 9.738 39.549 9.977 40.348 10.223 C42.235 10.805 44.118 11.401 46 12 C46.66 11.01 47.32 10.02 48 9 C48 12.96 48 16.92 48 21 C47.505 20.01 47.505 20.01 47 19 C44.688 18.409 44.688 18.409 42 18 C38.239 17.085 34.496 16.101 30.75 15.125 C29.751 14.868 28.752 14.612 27.723 14.348 C22.396 12.962 17.153 11.465 11.952 9.662 C8.999 8.66 6.006 7.831 3 7 C2.34 8.32 1.68 9.64 1 11 C0.67 7.37 0.34 3.74 0 0 Z " fill="#969696" transform="translate(91,122)"/>
<path d="M0 0 C2.562 2.375 2.562 2.375 4 5 C4 5.66 4 6.32 4 7 C4.66 7 5.32 7 6 7 C6.081 8.603 6.139 10.208 6.188 11.812 C6.24 13.152 6.24 13.152 6.293 14.52 C6 17 6 17 4.637 18.773 C2.401 20.449 0.783 20.801 -2 21 C-5.915 20.119 -8.56 18.154 -11.051 14.988 C-12.965 10.978 -12.843 6.301 -12 2 C-8.017 -0.656 -4.686 -0.854 0 0 Z " fill="#EEEEEE" transform="translate(145,66)"/>
<path d="M0 0 C1.339 0.783 2.671 1.577 4 2.375 C5.114 3.036 5.114 3.036 6.25 3.711 C6.827 4.136 7.405 4.562 8 5 C8 5.66 8 6.32 8 7 C8.99 7.33 9.98 7.66 11 8 C11 8.66 11 9.32 11 10 C11.66 10 12.32 10 13 10 C13 10.66 13 11.32 13 12 C13.66 12 14.32 12 15 12 C15 12.66 15 13.32 15 14 C15.99 14.33 16.98 14.66 18 15 C22 20.371 22 20.371 22 23 C22.99 23.33 23.98 23.66 25 24 C26.35 25.551 26.35 25.551 27.699 27.527 C28.429 28.592 28.429 28.592 29.174 29.678 C29.673 30.423 30.173 31.169 30.688 31.938 C31.199 32.679 31.71 33.421 32.236 34.186 C36 39.728 36 39.728 36 42 C36.66 42 37.32 42 38 42 C41 46.385 41 46.385 41 49 C41.66 49 42.32 49 43 49 C44.746 51.45 46.39 53.9 48 56.438 C48.892 57.835 49.787 59.229 50.688 60.621 C51.083 61.244 51.479 61.867 51.887 62.51 C52.946 64.16 52.946 64.16 55 65 C55 65.99 55 66.98 55 68 C55.66 68 56.32 68 57 68 C60 72.385 60 72.385 60 75 C60.66 75 61.32 75 62 75 C63.237 76.437 63.237 76.437 64.602 78.43 C65.091 79.143 65.581 79.855 66.086 80.59 C66.594 81.344 67.102 82.098 67.625 82.875 C68.141 83.621 68.656 84.368 69.188 85.137 C73 90.734 73 90.734 73 93 C73.66 93 74.32 93 75 93 C76.262 94.617 76.262 94.617 77.688 96.875 C80.549 101.333 83.576 105.641 86.68 109.934 C88 112 88 112 88 114 C87.34 114 86.68 114 86 114 C82 108.588 82 108.588 82 106 C81.34 106 80.68 106 80 106 C78.711 104.32 78.711 104.32 77.375 102.125 C76.929 101.406 76.483 100.686 76.023 99.945 C75 98 75 98 75 96 C74.34 96 73.68 96 73 96 C71.492 94.102 71.492 94.102 69.875 91.625 C69.336 90.813 68.797 90.001 68.242 89.164 C67 87 67 87 67 85 C66.34 85 65.68 85 65 85 C65 84.01 65 83.02 65 82 C64.34 82 63.68 82 63 82 C61.711 80.539 61.711 80.539 60.375 78.625 C59.929 77.999 59.483 77.372 59.023 76.727 C58 75 58 75 58 73 C57.34 73 56.68 73 56 73 C55.587 72.093 55.175 71.185 54.75 70.25 C53.073 67.135 51.505 65.429 49 63 C47.636 61.021 46.306 59.018 45 57 C43.352 54.653 41.676 52.327 40 50 C39.67 52.97 39.34 55.94 39 59 C38.01 58.505 38.01 58.505 37 58 C37.023 57.108 37.046 56.216 37.07 55.297 C37.088 54.126 37.106 52.956 37.125 51.75 C37.148 50.59 37.171 49.43 37.195 48.234 C37.01 45.172 36.608 43.558 35 41 C34.34 41 33.68 41 33 41 C33 40.01 33 39.02 33 38 C32.34 38 31.68 38 31 38 C28.704 35.439 28 34.52 28 31 C27.34 31 26.68 31 26 31 C24.685 29.362 23.448 27.662 22.25 25.938 C19.794 22.46 17.33 19.118 14.5 15.938 C12 13 12 13 12 11 C11.428 10.731 10.855 10.461 10.266 10.184 C7.935 8.966 5.875 7.609 3.75 6.062 C3.044 5.558 2.337 5.054 1.609 4.535 C1.078 4.029 0.547 3.522 0 3 C0 2.01 0 1.02 0 0 Z " fill="#000000" transform="translate(219,168)"/>
<path d="M0 0 C0.66 0 1.32 0 2 0 C3.587 24.024 4.329 48.015 4.658 72.088 C4.799 82.084 4.992 92.045 5.626 102.023 C6.311 113.375 6.371 124.756 6.562 136.125 C6.606 138.548 6.649 140.971 6.693 143.395 C6.799 149.263 6.901 155.131 7 161 C6.34 161 5.68 161 5 161 C3.307 157.614 3.902 153.769 3.938 150.047 C3.943 148.707 3.943 148.707 3.949 147.341 C3.965 143.514 3.993 139.687 4.021 135.86 C4.039 133.068 4.051 130.276 4.062 127.484 C4.071 126.625 4.079 125.765 4.088 124.88 C4.106 120.451 3.821 116.368 3 112 C2.69 108.006 2.576 104.004 2.438 100 C2.394 98.793 2.351 97.586 2.307 96.343 C1.947 84.972 1.964 73.608 2.01 62.233 C2.06 49.129 1.775 36.084 1 23 C0.67 23 0.34 23 0 23 C0 15.41 0 7.82 0 0 Z " fill="#000000" transform="translate(249,13)"/>
<path d="M0 0 C0.99 0.33 1.98 0.66 3 1 C3.035 1.865 3.071 2.73 3.107 3.621 C3.443 11.815 3.781 20.008 4.122 28.202 C4.297 32.413 4.471 36.624 4.643 40.836 C4.809 44.908 4.978 48.98 5.149 53.051 C5.213 54.597 5.276 56.142 5.339 57.688 C5.65 65.395 6.004 73.076 6.798 80.752 C7.111 84.242 7.095 87.684 7.062 91.188 C7.053 92.48 7.044 93.773 7.035 95.105 C7.018 96.538 7.018 96.538 7 98 C6.67 98 6.34 98 6 98 C5.67 95.03 5.34 92.06 5 89 C4.67 91.31 4.34 93.62 4 96 C3.67 96 3.34 96 3 96 C2.966 94.907 2.966 94.907 2.931 93.792 C2.713 86.851 2.492 79.91 2.27 72.969 C2.155 69.402 2.041 65.836 1.93 62.269 C1.314 42.182 1.314 42.182 0.19 22.119 C-0.087 17.576 -0.112 13.05 -0.062 8.5 C-0.058 7.666 -0.053 6.832 -0.049 5.973 C-0.037 3.982 -0.019 1.991 0 0 Z " fill="#2C2C2C" transform="translate(201,13)"/>
<path d="M0 0 C0.719 2.137 0.719 2.137 1 4 C-1.204 4.845 -3.412 5.676 -5.625 6.5 C-6.855 6.964 -8.085 7.428 -9.352 7.906 C-12.81 8.943 -15.422 9.22 -19 9 C-16 7 -16 7 -14 7 C-14.844 4.812 -14.844 4.812 -17.125 3.938 C-20.403 2.868 -23.581 2.402 -27 2 C-25.608 4.784 -23.844 4.979 -21 6 C-23 7 -23 7 -25.562 6.438 C-28 5 -28 5 -28.812 1.875 C-28.874 0.926 -28.936 -0.023 -29 -1 C-19.959 -5.951 -8.523 -6.849 0 0 Z " fill="#EEEEEE" transform="translate(94,33)"/>
<path d="M0 0 C2.438 0 2.438 0 5 1 C6.812 4.062 6.812 4.062 8 7 C8.33 5.02 8.66 3.04 9 1 C10.65 0.67 12.3 0.34 14 0 C15.886 3.27 16.68 6.237 17 10 C16.01 11.485 16.01 11.485 15 13 C12 13.375 12 13.375 9 13 C8.34 12.01 7.68 11.02 7 10 C6.608 10.516 6.216 11.031 5.812 11.562 C4 13 4 13 1.438 12.875 C-1 12 -1 12 -3 9 C-2.547 2.547 -2.547 2.547 0 0 Z " fill="#000000" transform="translate(266,286)"/>
<path d="M0 0 C-0.012 1.253 -0.023 2.506 -0.035 3.797 C-0.045 5.448 -0.054 7.099 -0.062 8.75 C-0.071 9.575 -0.079 10.4 -0.088 11.25 C-0.093 12.449 -0.093 12.449 -0.098 13.672 C-0.106 14.772 -0.106 14.772 -0.114 15.894 C0.003 18.054 0.444 19.914 1 22 C2.235 34.303 2.117 46.651 2 59 C1.67 59 1.34 59 1 59 C0.67 60.98 0.34 62.96 0 65 C-0.33 65 -0.66 65 -1 65 C-3.427 43.676 -3.207 22.427 -3 1 C-1 0 -1 0 0 0 Z " fill="#FFFFFF" transform="translate(219,23)"/>
<path d="M0 0 C4.604 0.542 6.805 2.632 9.625 6.188 C10.639 10.132 8.959 13.833 7.188 17.375 C5.208 17.375 3.227 17.375 1.188 17.375 C1.188 16.715 1.188 16.055 1.188 15.375 C0.569 15.127 -0.05 14.88 -0.688 14.625 C-3.302 13.087 -3.88 12.251 -4.812 9.375 C-5.062 5.75 -5.062 5.75 -4.812 2.375 C-2.812 0.375 -2.812 0.375 0 0 Z " fill="#FFFFFF" transform="translate(153.8125,194.625)"/>
<path d="M0 0 C0.33 0 0.66 0 1 0 C2.235 15.971 2.547 31.992 3 48 C3.99 47.505 3.99 47.505 5 47 C3.902 49.993 3.323 50.846 0.375 52.25 C-0.409 52.498 -1.192 52.745 -2 53 C-3.73 51.27 -3.232 48.912 -3.316 46.551 C-3.358 45.402 -3.4 44.253 -3.444 43.069 C-3.483 41.83 -3.522 40.59 -3.562 39.312 C-3.605 38.059 -3.647 36.805 -3.691 35.513 C-4.043 24.339 -4.103 13.178 -4 2 C-3.67 2 -3.34 2 -3 2 C-2.34 17.51 -1.68 33.02 -1 49 C-0.505 46.03 -0.505 46.03 0 43 C-0.33 43 -0.66 43 -1 43 C-1.127 28.627 -0.88 14.347 0 0 Z " fill="#000000" transform="translate(225,194)"/>
<path d="M0 0 C0.33 0 0.66 0 1 0 C1.843 11.894 2.287 23.768 2.562 35.688 C2.584 36.561 2.605 37.434 2.627 38.334 C2.939 51.224 3.142 64.106 3 77 C-0.776 73.224 -0.059 67.364 -0.098 62.285 C-0.091 60.211 -0.079 58.137 -0.062 56.062 C-0.058 54.997 -0.053 53.932 -0.049 52.834 C-0.037 50.223 -0.021 47.611 0 45 C-0.33 45 -0.66 45 -1 45 C-1.121 29.961 -0.939 15.011 0 0 Z " fill="#000000" transform="translate(242,80)"/>
<path d="M0 0 C1.099 3.297 0.871 4.405 0.062 7.688 C-0.132 8.496 -0.327 9.304 -0.527 10.137 C-0.683 10.752 -0.839 11.366 -1 12 C-0.67 12 -0.34 12 0 12 C1.026 10.687 2.027 9.353 3 8 C2.504 12.591 2.504 12.591 0 14.625 C-0.66 15.079 -1.32 15.533 -2 16 C-2.33 16.99 -2.66 17.98 -3 19 C-0.288 17.387 2.374 15.751 5 14 C3.501 17.816 1.201 19.537 -2 22 C-2.33 22.66 -2.66 23.32 -3 24 C-4.65 23.67 -6.3 23.34 -8 23 C-8 21.68 -8 20.36 -8 19 C-9.32 18.67 -10.64 18.34 -12 18 C-10.68 18 -9.36 18 -8 18 C-8 13.05 -8 8.1 -8 3 C-7.34 2.67 -6.68 2.34 -6 2 C-6 4.97 -6 7.94 -6 11 C-4.68 11 -3.36 11 -2 11 C-1.939 10.374 -1.879 9.747 -1.816 9.102 C-1.733 8.284 -1.649 7.467 -1.562 6.625 C-1.481 5.813 -1.4 5.001 -1.316 4.164 C-1 2 -1 2 0 0 Z " fill="#000000" transform="translate(207,257)"/>
<path d="M0 0 C3.093 0.981 6.048 2.022 9 3.375 C14.743 5.914 20.958 7.349 27 9 C24.459 6.416 21.952 4.109 19 2 C22.958 2.565 25.666 3.809 29 6 C28.67 7.32 28.34 8.64 28 10 C28.66 10.33 29.32 10.66 30 11 C31.333 11.667 32.667 12.333 34 13 C34.33 10.69 34.66 8.38 35 6 C35.33 6 35.66 6 36 6 C36.381 8.326 36.713 10.661 37 13 C36.67 13.33 36.34 13.66 36 14 C34.18 13.984 34.18 13.984 31.875 13.75 C31.13 13.683 30.385 13.616 29.617 13.547 C26.891 12.977 24.571 11.971 22.039 10.833 C17.143 8.832 11.943 7.586 6.855 6.162 C5.988 5.911 5.12 5.661 4.227 5.402 C3.438 5.181 2.65 4.959 1.838 4.73 C0 4 0 4 -1 2 C-0.67 1.34 -0.34 0.68 0 0 Z " fill="#1D1D1D" transform="translate(62,181)"/>
<path d="M0 0 C0.33 0 0.66 0 1 0 C1.652 9.64 2.13 19.275 2.25 28.938 C2.271 29.795 2.293 30.653 2.314 31.536 C2.319 32.338 2.323 33.139 2.328 33.965 C2.337 34.672 2.347 35.38 2.356 36.109 C1.898 38.539 0.857 39.434 -1 41 C-2.479 38.042 -2.122 35.045 -2.098 31.805 C-2.096 31.097 -2.095 30.39 -2.093 29.661 C-2.088 27.399 -2.075 25.137 -2.062 22.875 C-2.057 21.342 -2.053 19.81 -2.049 18.277 C-2.038 14.518 -2.021 10.759 -2 7 C-1.34 7 -0.68 7 0 7 C0 4.69 0 2.38 0 0 Z " fill="#FFFFFF" transform="translate(234,195)"/>
<path d="M0 0 C1.607 3.215 1.057 6.436 1 10 C0.34 10 -0.32 10 -1 10 C-1 10.66 -1 11.32 -1 12 C-2.65 12 -4.3 12 -6 12 C-7.99 9.191 -8.101 7.127 -7.75 3.812 C-7.502 2.554 -7.255 1.296 -7 0 C-4.302 -1.349 -2.848 -0.803 0 0 Z " fill="#000000" transform="translate(252,287)"/>
<path d="M0 0 C0 3.63 0 7.26 0 11 C-2.326 11.381 -4.661 11.713 -7 12 C-8 11 -8 11 -8.098 8.496 C-8.086 7.487 -8.074 6.477 -8.062 5.438 C-8.053 4.426 -8.044 3.414 -8.035 2.371 C-8.024 1.589 -8.012 0.806 -8 0 C-5.138 -1.431 -3.066 -0.6 0 0 Z " fill="#212121" transform="translate(292,287)"/>
<path d="M0 0 C0 3.63 0 7.26 0 11 C-2.875 11.625 -2.875 11.625 -6 12 C-8.425 9.575 -8.296 8.828 -8.312 5.5 C-8.329 4.706 -8.346 3.912 -8.363 3.094 C-8.183 2.057 -8.183 2.057 -8 1 C-5 -1 -5 -1 0 0 Z " fill="#000000" transform="translate(262,287)"/>
<path d="M0 0 C-0.99 0.495 -0.99 0.495 -2 1 C-3.12 0.509 -3.12 0.509 -4.262 0.008 C-7.58 -1.213 -9.388 -0.868 -12.812 -0.125 C-13.788 0.079 -14.764 0.282 -15.77 0.492 C-16.506 0.66 -17.242 0.827 -18 1 C-18 1.66 -18 2.32 -18 3 C-20.31 3 -22.62 3 -25 3 C-23.608 5.784 -21.844 5.979 -19 7 C-21 8 -21 8 -23.562 7.438 C-26 6 -26 6 -26.812 2.875 C-26.874 1.926 -26.936 0.977 -27 0 C-17.932 -4.966 -9.012 -5.315 0 0 Z " fill="#565656" transform="translate(92,32)"/>
<path d="M0 0 C2.441 0.76 4.878 1.532 7.312 2.312 C8.003 2.526 8.693 2.739 9.404 2.959 C16.177 5.151 16.177 5.151 18 8 C17.688 11.688 17.688 11.688 17 15 C15.35 14.67 13.7 14.34 12 14 C10.875 10.25 10.875 10.25 12 8 C11.319 7.732 10.639 7.464 9.938 7.188 C6.603 5.839 3.303 4.425 0 3 C0 2.01 0 1.02 0 0 Z " fill="#FFFFFF" transform="translate(79,179)"/>
<path d="M0 0 C1.946 2.413 3.875 4.835 5.754 7.301 C6.371 8.109 6.989 8.917 7.625 9.75 C8.215 10.529 8.806 11.307 9.414 12.109 C10.872 14.102 10.872 14.102 13 15 C13.667 16.333 14.333 17.667 15 19 C16.541 20.709 16.541 20.709 18 22 C13.967 22 12.165 20.391 9 18 C9 17.34 9 16.68 9 16 C8.34 16 7.68 16 7 16 C7 15.34 7 14.68 7 14 C6.01 13.67 5.02 13.34 4 13 C2.684 11.293 2.684 11.293 1.438 9.188 C1.024 8.5 0.61 7.813 0.184 7.105 C-0.945 5.098 -1.991 3.069 -3 1 C-2.01 0.67 -1.02 0.34 0 0 Z " fill="#0C0C0C" transform="translate(201,146)"/>
<path d="M0 0 C0.33 0.66 0.66 1.32 1 2 C1.66 2 2.32 2 3 2 C3 8.27 3 14.54 3 21 C3.66 21.33 4.32 21.66 5 22 C3.478 24.629 2.156 26.844 0 29 C-0.99 29 -1.98 29 -3 29 C-3.33 29.66 -3.66 30.32 -4 31 C-4 30.01 -4 29.02 -4 28 C-3.01 28 -2.02 28 -1 28 C-1.33 27.34 -1.66 26.68 -2 26 C-2.083 24.552 -2.107 23.099 -2.098 21.648 C-2.094 20.798 -2.091 19.947 -2.088 19.07 C-2.08 18.181 -2.071 17.291 -2.062 16.375 C-2.058 15.478 -2.053 14.581 -2.049 13.656 C-2.037 11.437 -2.021 9.219 -2 7 C-1.67 7 -1.34 7 -1 7 C-0.67 11.62 -0.34 16.24 0 21 C0.759 17.206 1.136 14.288 1.125 10.5 C1.128 9.582 1.13 8.664 1.133 7.719 C1.002 5.05 0.594 2.601 0 0 Z " fill="#030303" transform="translate(244,201)"/>
<path d="M0 0 C1.268 0.124 1.268 0.124 2.562 0.25 C4.778 3.573 4.757 4.127 4.25 7.875 C4.151 8.672 4.051 9.468 3.949 10.289 C3.562 12.25 3.562 12.25 2.562 13.25 C0.896 13.291 -0.771 13.293 -2.438 13.25 C-2.767 12.26 -3.098 11.27 -3.438 10.25 C-2.777 10.25 -2.118 10.25 -1.438 10.25 C-1.438 10.91 -1.438 11.57 -1.438 12.25 C-0.447 11.26 0.543 10.27 1.562 9.25 C0.243 9.25 -1.077 9.25 -2.438 9.25 C-4.438 6.25 -4.438 6.25 -4.125 3.625 C-3.17 0.325 -3.17 0.325 0 0 Z " fill="#000000" transform="translate(307.4375,285.75)"/>
<path d="M0 0 C2.143 3.57 2.527 6.907 3 11.012 C3.081 11.693 3.161 12.374 3.244 13.076 C3.504 15.279 3.752 17.483 4 19.688 C4.175 21.201 4.35 22.714 4.526 24.228 C4.869 27.179 5.208 30.13 5.545 33.082 C5.909 36.215 6.292 39.342 6.703 42.469 C7.824 51.047 8.247 59.349 8 68 C7.67 68 7.34 68 7 68 C6.942 67.417 6.884 66.834 6.824 66.234 C6.211 60.1 5.593 53.967 4.974 47.834 C4.744 45.553 4.515 43.272 4.287 40.991 C2.493 22.953 2.493 22.953 0 5 C-0.99 4.67 -1.98 4.34 -3 4 C-2.01 4 -1.02 4 0 4 C0 2.68 0 1.36 0 0 Z " fill="#000000" transform="translate(124,13)"/>
<path d="M0 0 C0.33 0 0.66 0 1 0 C1.124 15.371 0.904 30.654 0 46 C-0.33 46 -0.66 46 -1 46 C-1.685 35.523 -2.121 25.063 -2.188 14.562 C-2.2 13.574 -2.213 12.586 -2.227 11.568 C-2.228 10.639 -2.229 9.711 -2.23 8.754 C-2.235 7.932 -2.239 7.111 -2.243 6.264 C-1.976 3.779 -1.244 2.15 0 0 Z " fill="#000000" transform="translate(221,61)"/>
<path d="M0 0 C0.33 0 0.66 0 1 0 C1.33 6.6 1.66 13.2 2 20 C2.66 20.33 3.32 20.66 4 21 C3.67 21.33 3.34 21.66 3 22 C2.854 23.72 2.773 25.446 2.719 27.172 C2.681 28.229 2.644 29.286 2.605 30.375 C2.571 31.489 2.536 32.603 2.5 33.75 C2.431 35.932 2.358 38.115 2.281 40.297 C2.251 41.27 2.221 42.243 2.189 43.245 C2.006 45.909 1.586 48.398 1 51 C0.67 51 0.34 51 0 51 C0 34.17 0 17.34 0 0 Z " fill="#000000" transform="translate(141,234)"/>
<path d="M0 0 C15.997 2.736 15.997 2.736 20 8 C20.074 10.262 20.074 10.262 19.688 12.688 C19.568 13.496 19.448 14.304 19.324 15.137 C19.217 15.752 19.11 16.366 19 17 C18.67 17 18.34 17 18 17 C17.711 15.886 17.422 14.773 17.125 13.625 C16.308 9.997 16.308 9.997 14 8 C11.66 8.281 9.327 8.625 7 9 C4.326 9.089 1.677 9.047 -1 9 C-1 8.67 -1 8.34 -1 8 C2.3 7.34 5.6 6.68 9 6 C8.34 5.34 7.68 4.68 7 4 C7 3.67 7 3.34 7 3 C4.69 2.34 2.38 1.68 0 1 C0 0.67 0 0.34 0 0 Z " fill="#050505" transform="translate(71,112)"/>
<path d="M0 0 C2.03 0.416 2.03 0.416 3.953 -0.773 C3.953 0.217 3.953 1.207 3.953 2.227 C1.643 2.557 -0.667 2.887 -3.047 3.227 C-3.047 3.887 -3.047 4.547 -3.047 5.227 C-6.261 6.834 -9.483 6.284 -13.047 6.227 C-13.047 4.907 -13.047 3.587 -13.047 2.227 C-8.313 -0.808 -5.33 -0.925 0 0 Z " fill="#DFDFDF" transform="translate(70.046875,13.7734375)"/>
<path d="M0 0 C0.33 0 0.66 0 1 0 C1.857 16.011 2.132 31.967 2 48 C1.67 48 1.34 48 1 48 C0.939 46.891 0.879 45.783 0.816 44.641 C0.732 43.177 0.647 41.714 0.562 40.25 C0.504 39.156 0.504 39.156 0.443 38.039 C0.251 34.057 0.251 34.057 -0.527 30.164 C-1.171 27.216 -1.002 24.498 -0.879 21.484 C-0.831 20.234 -0.782 18.984 -0.732 17.695 C-0.676 16.393 -0.62 15.091 -0.562 13.75 C-0.51 12.433 -0.458 11.115 -0.404 9.758 C-0.275 6.505 -0.14 3.252 0 0 Z " fill="#000000" transform="translate(219,13)"/>
<path d="M0 0 C0.33 0 0.66 0 1 0 C1.33 5.28 1.66 10.56 2 16 C2.33 14.02 2.66 12.04 3 10 C3.33 10 3.66 10 4 10 C4.33 16.27 4.66 22.54 5 29 C2.69 27.35 0.38 25.7 -2 24 C-1.34 23.67 -0.68 23.34 0 23 C0 15.41 0 7.82 0 0 Z " fill="#FFFFFF" transform="translate(205,86)"/>
<path d="M0 0 C0.33 0 0.66 0 1 0 C1.33 6.6 1.66 13.2 2 20 C2.66 19.67 3.32 19.34 4 19 C2.502 23.662 -0.885 24.866 -5 27 C-4.67 25.02 -4.34 23.04 -4 21 C-3.67 21 -3.34 21 -3 21 C-2.951 19.819 -2.902 18.638 -2.852 17.422 C-2.777 15.865 -2.701 14.307 -2.625 12.75 C-2.594 11.973 -2.563 11.195 -2.531 10.395 C-2.166 3.276 -2.166 3.276 0 0 Z " fill="#080808" transform="translate(236,213)"/>
<path d="M0 0 C-0.99 1.485 -0.99 1.485 -2 3 C-2.666 5.275 -2.666 5.275 -3.125 7.688 C-3.293 8.496 -3.46 9.304 -3.633 10.137 C-3.754 10.752 -3.875 11.366 -4 12 C-5.32 12 -6.64 12 -8 12 C-8.285 8.621 -8.444 5.369 -8 2 C-4.957 -0.878 -4.008 -1.336 0 0 Z " fill="#FFFFFF" transform="translate(209,256)"/>
<path d="M0 0 C0.99 0.33 1.98 0.66 3 1 C3 1.99 3 2.98 3 4 C0.796 4.845 -1.412 5.676 -3.625 6.5 C-5.47 7.196 -5.47 7.196 -7.352 7.906 C-10.81 8.943 -13.422 9.22 -17 9 C-14 7 -14 7 -12 7 C-12.33 6.01 -12.66 5.02 -13 4 C-8.71 3.34 -4.42 2.68 0 2 C0 1.34 0 0.68 0 0 Z " fill="#262626" transform="translate(92,33)"/>
<path d="M0 0 C-0.942 2.569 -1.655 3.784 -4 5.25 C-8.336 6.334 -12.555 6.155 -17 6 C-11.847 0.605 -7.204 -0.373 0 0 Z " fill="#686868" transform="translate(34,31)"/>
<path d="M0 0 C0.027 1.812 0.046 3.625 0.062 5.438 C0.074 6.447 0.086 7.456 0.098 8.496 C0 11 0 11 -1 12 C-3 12.041 -5 12.043 -7 12 C-7.33 10.35 -7.66 8.7 -8 7 C-6.68 7.99 -5.36 8.98 -4 10 C-3.34 8.68 -2.68 7.36 -2 6 C-2.99 6 -3.98 6 -5 6 C-5 5.34 -5 4.68 -5 4 C-4.01 4 -3.02 4 -2 4 C-2 3.01 -2 2.02 -2 1 C-3.98 1.66 -5.96 2.32 -8 3 C-8 2.01 -8 1.02 -8 0 C-5.138 -1.431 -3.066 -0.6 0 0 Z " fill="#000000" transform="translate(302,287)"/>
<path d="M0 0 C0.33 0.99 0.66 1.98 1 3 C0.196 3.763 -0.609 4.526 -1.438 5.312 C-4.168 7.794 -4.168 7.794 -5 11 C-2.288 9.387 0.374 7.751 3 6 C1.517 10.449 -2.083 12.746 -6 15 C-6.66 15 -7.32 15 -8 15 C-8 11.37 -8 7.74 -8 4 C-7.01 4.495 -7.01 4.495 -6 5 C-3.952 4.905 -3.952 4.905 -2 4 C-0.716 2.016 -0.716 2.016 0 0 Z " fill="#6A6A6A" transform="translate(209,265)"/>
<path d="M0 0 C0.33 0 0.66 0 1 0 C1.99 7.92 2.98 15.84 4 24 C3.01 24.66 2.02 25.32 1 26 C1 25.34 1 24.68 1 24 C-2.3 23.01 -5.6 22.02 -9 21 C-6 20 -6 20 0 22 C0 14.74 0 7.48 0 0 Z " fill="#040404" transform="translate(95,161)"/>
<path d="M0 0 C3.753 0.72 6.861 2.331 10.25 4.062 C11.328 4.61 12.405 5.158 13.516 5.723 C14.745 6.355 14.745 6.355 16 7 C16 7.66 16 8.32 16 9 C17.32 9 18.64 9 20 9 C20 9.66 20 10.32 20 11 C23.3 11.99 26.6 12.98 30 14 C29.67 14.66 29.34 15.32 29 16 C25.7 15.01 22.4 14.02 19 13 C19 12.34 19 11.68 19 11 C18.279 10.719 17.559 10.438 16.816 10.148 C4.016 4.929 4.016 4.929 0 0 Z " fill="#FFFFFF" transform="translate(32,167)"/>
<path d="M0 0 C2.375 -0.125 2.375 -0.125 5 0 C7 2 7 2 7.125 5.125 C7.084 6.074 7.042 7.022 7 8 C4.625 8.125 4.625 8.125 2 8 C0 6 0 6 -0.125 2.875 C-0.084 1.926 -0.042 0.978 0 0 Z " fill="#2D2D2D" transform="translate(137,73)"/>
<path d="M0 0 C0.785 -0.017 1.57 -0.034 2.379 -0.051 C3.398 0.129 3.398 0.129 4.438 0.312 C5.097 1.302 5.757 2.293 6.438 3.312 C5.447 3.808 5.447 3.808 4.438 4.312 C3.602 3.817 3.602 3.817 2.75 3.312 C-0.555 1.884 -3.099 2.646 -6.562 3.312 C-6.398 10.04 -5.419 13.571 -0.562 18.312 C0.428 18.972 1.417 19.632 2.438 20.312 C-1.168 20.106 -2.577 19.3 -5.375 16.938 C-8.29 13.167 -8.082 9.31 -8.031 4.703 C-7.877 3.914 -7.722 3.125 -7.562 2.312 C-4.452 0.239 -3.567 0.018 0 0 Z " fill="#050505" transform="translate(140.5625,65.6875)"/>
<path d="M0 0 C3 3 3 3 3.341 5.544 C3.325 6.533 3.309 7.523 3.293 8.543 C3.283 9.616 3.274 10.689 3.264 11.795 C3.239 12.914 3.213 14.034 3.188 15.188 C3.167 16.884 3.167 16.884 3.146 18.615 C3.111 21.411 3.062 24.205 3 27 C2.67 27 2.34 27 2 27 C1.67 23.37 1.34 19.74 1 16 C0.67 16 0.34 16 0 16 C0 10.72 0 5.44 0 0 Z " fill="#000000" transform="translate(233,186)"/>
<path d="M0 0 C2.97 0.495 2.97 0.495 6 1 C6 2.98 6 4.96 6 7 C4.125 7.625 4.125 7.625 2 8 C0 6 0 6 -0.125 2.875 C-0.084 1.926 -0.042 0.977 0 0 Z " fill="#2A2A2A" transform="translate(152,200)"/>
<path d="M0 0 C4.67 0.267 8.098 2.628 12 5 C12 5.66 12 6.32 12 7 C13.32 7.33 14.64 7.66 16 8 C11.131 7.404 6.672 6.43 2 5 C2 4.34 2 3.68 2 3 C0.68 2.67 -0.64 2.34 -2 2 C-1.34 1.34 -0.68 0.68 0 0 Z " fill="#0A0A0A" transform="translate(39,173)"/>
<path d="M0 0 C0.99 0 1.98 0 3 0 C3.688 3.312 3.688 3.312 4 7 C2.562 8.938 2.562 8.938 1 10 C-1 8 -1 8 -1.188 4.438 C-1 1 -1 1 0 0 Z " fill="#FFFFFF" transform="translate(257,288)"/>
<path d="M0 0 C0.99 0 1.98 0 3 0 C3.688 3.312 3.688 3.312 4 7 C2.562 8.938 2.562 8.938 1 10 C-1 8 -1 8 -1.188 4.438 C-1 1 -1 1 0 0 Z " fill="#FFFFFF" transform="translate(247,288)"/>
<path d="M0 0 C0.66 0 1.32 0 2 0 C2 3.63 2 7.26 2 11 C4.31 11 6.62 11 9 11 C9 11.66 9 12.32 9 13 C6.03 13 3.06 13 0 13 C0 8.71 0 4.42 0 0 Z " fill="#000000" transform="translate(235,286)"/>
<path d="M0 0 C3 1 3 1 5 3 C5 2.34 5 1.68 5 1 C7.709 -0.354 10.009 -0.065 13 0 C13 0.33 13 0.66 13 1 C11.35 1.33 9.7 1.66 8 2 C8 2.66 8 3.32 8 4 C5.69 4 3.38 4 1 4 C2.392 6.784 4.156 6.979 7 8 C5 9 5 9 2.438 8.438 C0 7 0 7 -0.875 3.938 C-0.916 2.968 -0.957 1.999 -1 1 C-0.67 0.67 -0.34 0.34 0 0 Z " fill="#000000" transform="translate(66,31)"/>
<path d="M0 0 C0.33 0 0.66 0 1 0 C1.058 3.375 1.094 6.75 1.125 10.125 C1.15 11.552 1.15 11.552 1.176 13.008 C1.211 18.086 1.033 22.245 -1 27 C-1.33 27 -1.66 27 -2 27 C-2 24.36 -2 21.72 -2 19 C-1.34 19 -0.68 19 0 19 C0 12.73 0 6.46 0 0 Z " fill="#FFFFFF" transform="translate(225,218)"/>
<path d="M0 0 C0.99 0 1.98 0 3 0 C3 2.97 3 5.94 3 9 C1.68 8.67 0.36 8.34 -1 8 C-1.042 5.667 -1.041 3.333 -1 1 C-0.67 0.67 -0.34 0.34 0 0 Z " fill="#FFFFFF" transform="translate(267,288)"/>
<path d="M0 0 C3.724 1.213 7.378 2.509 11 4 C11 4.66 11 5.32 11 6 C9.561 5.913 8.124 5.804 6.688 5.688 C5.887 5.629 5.086 5.571 4.262 5.512 C1.637 4.918 0.692 4.042 -1 2 C-0.67 1.34 -0.34 0.68 0 0 Z " fill="#343434" transform="translate(62,181)"/>
<path d="M0 0 C-2.962 1.671 -5.371 2.327 -8.75 2.625 C-9.949 2.737 -9.949 2.737 -11.172 2.852 C-11.775 2.901 -12.378 2.95 -13 3 C-13 3.66 -13 4.32 -13 5 C-11.35 5 -9.7 5 -8 5 C-7.67 5.66 -7.34 6.32 -7 7 C-10.375 6.688 -10.375 6.688 -14 6 C-14.66 5.01 -15.32 4.02 -16 3 C-11.105 0.063 -5.595 -0.17 0 0 Z " fill="#000000" transform="translate(36,128)"/>
<path d="M0 0 C0 0.66 0 1.32 0 2 C0.66 2 1.32 2 2 2 C2.33 2.99 2.66 3.98 3 5 C2.01 5 1.02 5 0 5 C-0.619 4.257 -0.619 4.257 -1.25 3.5 C-3.965 1.173 -6.564 1.806 -10 2 C-10 1.34 -10 0.68 -10 0 C-6.717 -1.642 -3.575 -0.519 0 0 Z " fill="#191919" transform="translate(160,194)"/>
<path d="M0 0 C2.061 0.376 2.061 0.376 3.988 -0.809 C3.988 0.181 3.988 1.171 3.988 2.191 C1.218 3.115 -0.579 3.355 -3.449 3.379 C-4.211 3.393 -4.973 3.407 -5.758 3.422 C-8.245 3.168 -9.86 2.432 -12.012 1.191 C-7.762 -1.139 -4.604 -0.735 0 0 Z " fill="#111111" transform="translate(70.01171875,13.80859375)"/>
<path d="M0 0 C1.675 0.286 3.344 0.618 5 1 C5.33 1.99 5.66 2.98 6 4 C4.02 4.33 2.04 4.66 0 5 C-0.562 3.062 -0.562 3.062 -1 1 C-0.67 0.67 -0.34 0.34 0 0 Z " fill="#6D6D6D" transform="translate(276,286)"/>
<path d="M0 0 C0.33 0 0.66 0 1 0 C1 2.97 1 5.94 1 9 C0.01 9.33 -0.98 9.66 -2 10 C-2 10.66 -2 11.32 -2 12 C-4.31 12 -6.62 12 -9 12 C-9 11.67 -9 11.34 -9 11 C-7.02 11 -5.04 11 -3 11 C-2.01 7.37 -1.02 3.74 0 0 Z " fill="#000000" transform="translate(164,201)"/>
<path d="M0 0 C0.66 0 1.32 0 2 0 C2.081 1.603 2.139 3.208 2.188 4.812 C2.222 5.706 2.257 6.599 2.293 7.52 C1.951 10.416 1.246 11.226 -1 13 C-1.99 12.67 -2.98 12.34 -4 12 C-3.34 12 -2.68 12 -2 12 C-1.664 10.375 -1.332 8.75 -1 7.125 C-0.814 6.22 -0.629 5.315 -0.438 4.383 C0.06 2.076 0.06 2.076 0 0 Z " fill="#090909" transform="translate(149,73)"/>
<path d="M0 0 C0.66 0.99 1.32 1.98 2 3 C2.66 2.67 3.32 2.34 4 2 C2.902 4.993 2.323 5.846 -0.625 7.25 C-1.409 7.498 -2.192 7.745 -3 8 C-3.33 7.34 -3.66 6.68 -4 6 C-3.34 6 -2.68 6 -2 6 C-1.34 4.02 -0.68 2.04 0 0 Z " fill="#090909" transform="translate(226,239)"/>
<path d="M0 0 C0.33 0 0.66 0 1 0 C1.381 2.326 1.713 4.661 2 7 C1.67 7.33 1.34 7.66 1 8 C-1.031 7.949 -1.031 7.949 -3.5 7.688 C-4.315 7.609 -5.129 7.53 -5.969 7.449 C-6.639 7.301 -7.309 7.153 -8 7 C-8.33 6.34 -8.66 5.68 -9 5 C-7.68 4.67 -6.36 4.34 -5 4 C-4.67 4.66 -4.34 5.32 -4 6 C-3.01 6.33 -2.02 6.66 -1 7 C-0.67 4.69 -0.34 2.38 0 0 Z " fill="#090909" transform="translate(97,187)"/>
<path d="M0 0 C4 4.625 4 4.625 4 8 C0.171 6.547 -1.121 4.571 -3 1 C-2.01 0.67 -1.02 0.34 0 0 Z " fill="#1F1F1F" transform="translate(201,146)"/>
<path d="M0 0 C1.98 0.66 3.96 1.32 6 2 C5.67 4.97 5.34 7.94 5 11 C4.67 11 4.34 11 4 11 C3.711 9.927 3.422 8.855 3.125 7.75 C2.272 4.906 1.436 2.565 0 0 Z " fill="#2C2C2C" transform="translate(85,118)"/>
<path d="M0 0 C1.32 0 2.64 0 4 0 C3.67 1.65 3.34 3.3 3 5 C2.01 5 1.02 5 0 5 C-0.562 3.062 -0.562 3.062 -1 1 C-0.67 0.67 -0.34 0.34 0 0 Z " fill="#FFFFFF" transform="translate(306,288)"/>
<path d="M0 0 C2.97 1.32 5.94 2.64 9 4 C4.45 5.138 2.369 4.428 -2 3 C-1.34 2.67 -0.68 2.34 0 2 C0 1.34 0 0.68 0 0 Z " fill="#000000" transform="translate(73,185)"/>
<path d="M0 0 C0.99 0.33 1.98 0.66 3 1 C3 1.99 3 2.98 3 4 C1.35 4 -0.3 4 -2 4 C-2.33 3.34 -2.66 2.68 -3 2 C-2.01 2 -1.02 2 0 2 C0 1.34 0 0.68 0 0 Z M-5 3 C-4.34 3 -3.68 3 -3 3 C-3 3.66 -3 4.32 -3 5 C-3.99 4.67 -4.98 4.34 -6 4 C-5.67 3.67 -5.34 3.34 -5 3 Z " fill="#555555" transform="translate(92,33)"/>
<path d="M0 0 C1.562 1.188 1.562 1.188 3 3 C2.688 5.688 2.688 5.688 2 8 C1.34 8 0.68 8 0 8 C0 5.36 0 2.72 0 0 Z " fill="#282828" transform="translate(233,186)"/>
<path d="M0 0 C4.195 0.599 8.01 1.575 12 3 C8.85 4.575 6.365 3.708 3 3 C1.062 1.438 1.062 1.438 0 0 Z " fill="#000000" transform="translate(21,159)"/>
<path d="M0 0 C1.98 0.495 1.98 0.495 4 1 C3.67 2.32 3.34 3.64 3 5 C1.68 4.34 0.36 3.68 -1 3 C-0.67 2.01 -0.34 1.02 0 0 Z " fill="#FFFFFF" transform="translate(286,293)"/>
<path d="M0 0 C1.32 0 2.64 0 4 0 C3.67 1.65 3.34 3.3 3 5 C2.01 4.67 1.02 4.34 0 4 C0 2.68 0 1.36 0 0 Z " fill="#FFFFFF" transform="translate(276,293)"/>
<path d="M0 0 C2.625 0.375 2.625 0.375 5 1 C5 1.99 5 2.98 5 4 C4.01 4.33 3.02 4.66 2 5 C2 4.34 2 3.68 2 3 C0.68 2.67 -0.64 2.34 -2 2 C-1.34 1.34 -0.68 0.68 0 0 Z " fill="#2A2A2A" transform="translate(39,173)"/>
<path d="M0 0 C0.66 0.66 1.32 1.32 2 2 C4.688 2.27 7.291 2.087 10 2 C8 4 8 4 6.055 4.195 C4.036 4.13 2.018 4.065 0 4 C0 2.68 0 1.36 0 0 Z " fill="#000000" transform="translate(57,16)"/>
</svg>
