<?xml version="1.0" encoding="UTF-8"?>
<!-- Generator: visioncortex VTracer 0.6.4 -->
<svg version="1.1" xmlns="http://www.w3.org/2000/svg" width="451" height="383">
<path d="M0 0 C148.83 0 297.66 0 451 0 C451 126.39 451 252.78 451 383 C302.17 383 153.34 383 0 383 C0 256.61 0 130.22 0 0 Z " fill="#FEFEFE" transform="translate(0,0)"/>
<path d="M0 0 C0.66 0 1.32 0 2 0 C1.821 0.837 1.642 1.673 1.457 2.535 C-1.066 16.343 1.468 27.527 8.574 39.488 C10 42 10 42 10 44 C14.62 43.34 19.24 42.68 24 42 C23.67 41.01 23.34 40.02 23 39 C22.446 33.891 22.007 29.523 24.875 25.125 C35.393 17.973 35.393 17.973 40.613 18.027 C42.949 18.478 44.895 18.887 47 20 C47.495 21.485 47.495 21.485 48 23 C48.66 23 49.32 23 50 23 C55.162 28.678 56.609 34.388 57 42 C56.218 45.779 55.694 47.306 53 50 C47.334 72.098 56.664 96.85 67 116 C67.33 116.66 67.66 117.32 68 118 C69.578 118.588 69.578 118.588 71.188 119.188 C76.928 121.533 80.362 126.208 82.875 131.75 C84 135 84 135 84 138 C84.888 137.84 84.888 137.84 85.793 137.676 C86.583 137.556 87.373 137.436 88.188 137.312 C89.353 137.121 89.353 137.121 90.543 136.926 C93.961 137.029 95.456 137.701 98 140 C98.505 143.473 98.531 146.619 98.449 150.107 C98.485 153.937 98.598 155.59 101.332 158.379 C102.212 158.914 103.093 159.449 104 160 C110.488 164.071 110.488 164.071 112 168 C112.445 171.738 112.37 175.488 112.375 179.25 C112.399 180.262 112.424 181.274 112.449 182.316 C112.475 189.015 111.476 193.257 108 199 C108.724 198.627 109.449 198.255 110.195 197.871 C118.167 193.97 118.167 193.97 122.5 194.125 C123.738 194.558 123.738 194.558 125 195 C128.058 196.402 128.058 196.402 131.062 194.562 C132.032 194.047 133.001 193.531 134 193 C134.66 193 135.32 193 136 193 C135.897 192.113 135.794 191.226 135.688 190.312 C136.108 185.853 137.641 184.894 141 182 C143.433 180.61 145.786 179.371 148.312 178.188 C149.745 177.494 151.177 176.8 152.609 176.105 C153.338 175.757 154.067 175.408 154.818 175.048 C158.25 173.399 161.657 171.702 165.062 170 C165.724 169.67 166.386 169.34 167.068 169.001 C171.585 166.739 176.052 164.394 180.5 162 C186.915 158.547 193.398 155.254 199.93 152.027 C202.744 150.635 205.537 149.207 208.32 147.754 C209.031 147.387 209.741 147.02 210.473 146.643 C211.823 145.945 213.169 145.24 214.51 144.525 C218.666 142.393 222.323 141.229 227 141 C229.438 142.938 229.438 142.938 231 146 C231.098 147.977 231.098 147.977 231 150.062 C230.559 153.979 230.559 153.979 232.875 156.062 C233.576 156.702 234.277 157.341 235 158 C236.25 161.75 236.25 161.75 237 165 C233.754 168.714 230.078 170.677 225.688 172.75 C224.239 173.453 222.791 174.157 221.344 174.863 C220.614 175.219 219.885 175.574 219.133 175.94 C215.941 177.527 212.817 179.231 209.688 180.938 C203.274 184.408 196.728 187.547 190.127 190.642 C184.973 193.06 179.844 195.52 174.75 198.062 C174.106 198.382 173.461 198.702 172.797 199.031 C169.451 200.707 166.167 202.454 162.918 204.312 C162.25 204.689 161.582 205.065 160.894 205.453 C159.631 206.169 158.377 206.901 157.134 207.651 C152.711 210.149 149.884 210.167 145 209 C144.01 208.67 143.02 208.34 142 208 C141.34 208.33 140.68 208.66 140 209 C139.685 210.626 139.685 210.626 139.363 212.285 C137.495 217.377 134.906 218.23 130.188 220.438 C123.989 223.631 119.443 226.131 117 233 C116.512 234.56 116.033 236.122 115.562 237.688 C113.915 242.976 111.086 245.306 106.242 247.965 C95.954 252.342 82.143 251.222 71.969 247.266 C69.664 245.784 68.976 244.524 68 242 C67.34 242 66.68 242 66 242 C64.567 237.7 64.682 233.306 64.57 228.805 C64.472 224.699 64.472 224.699 62.527 221.227 C62.023 220.822 61.519 220.417 61 220 C59.796 215.892 59.279 213.581 61.07 209.652 C64.104 204.896 67.475 201.34 72 198 C71.361 197.464 70.721 196.928 70.062 196.375 C68 194 68 194 67.816 191.066 C67.297 187.696 67.297 187.696 63.93 186.129 C62.587 185.584 61.235 185.063 59.875 184.562 C58.403 183.972 56.932 183.38 55.461 182.785 C54.713 182.49 53.965 182.195 53.194 181.891 C49.901 180.554 46.705 179.033 43.5 177.5 C37.475 174.653 31.395 171.95 25.277 169.309 C20.166 167.097 20.166 167.097 17.945 165.797 C15.101 164.632 12.617 164.927 9.562 165.062 C-2.117 165.184 -12.236 163.211 -21 155 C-21 154.34 -21 153.68 -21 153 C-29.048 149.647 -36.01 149.219 -44.25 152.562 C-44.833 152.832 -45.415 153.101 -46.016 153.379 C-48 154 -48 154 -54 154 C-54 158.29 -54 162.58 -54 167 C-54.33 167 -54.66 167 -55 167 C-55 162.71 -55 158.42 -55 154 C-56.011 154.062 -57.021 154.124 -58.062 154.188 C-63.577 153.925 -67.453 152.031 -72 149 C-73.434 144.699 -73.184 140.567 -73.188 136.062 C-73.2 135.156 -73.212 134.249 -73.225 133.314 C-73.228 132.001 -73.228 132.001 -73.23 130.66 C-73.235 129.862 -73.239 129.064 -73.243 128.242 C-72.97 125.728 -72.356 124.128 -71 122 C-68.875 121.25 -68.875 121.25 -67 121 C-67.361 120.096 -67.722 119.193 -68.094 118.262 C-68.558 117.082 -69.022 115.903 -69.5 114.688 C-69.964 113.516 -70.428 112.344 -70.906 111.137 C-72.247 107.293 -72.036 104.878 -71.059 101.051 C-69.775 95.465 -69.439 89.895 -69.062 84.188 C-66.966 56.851 -66.966 56.851 -56.934 48.223 C-55 47 -55 47 -53 47 C-52.888 46.393 -52.777 45.785 -52.661 45.16 C-51.491 39.033 -50 33.091 -48.188 27.125 C-47.926 26.261 -47.665 25.397 -47.396 24.507 C-43.266 11.117 -43.266 11.117 -40 5 C-39.34 4.67 -38.68 4.34 -38 4 C-38.299 9.085 -39.338 13.146 -41.25 17.875 C-44.553 26.05 -46.754 34.485 -49 43 C-47.766 42.221 -47.766 42.221 -46.508 41.426 C-41.244 38.137 -35.976 34.865 -30.5 31.938 C-29.747 31.534 -28.994 31.131 -28.219 30.715 C-23.859 29.31 -20.166 31.222 -16.188 33.062 C-15.397 33.425 -14.607 33.787 -13.793 34.16 C-13.201 34.437 -12.61 34.714 -12 35 C-12.289 34.045 -12.577 33.09 -12.875 32.105 C-15.514 23.044 -17.647 14.36 -15 5 C-14.34 5 -13.68 5 -13 5 C-13.035 5.848 -13.07 6.696 -13.105 7.57 C-13.287 15.428 -12.552 22.183 -10.742 29.852 C-9.857 33.606 -9.222 37.149 -9 41 C-9.66 41.66 -10.32 42.32 -11 43 C-10.645 46.689 -9.409 49.439 -7.594 52.633 C-7.102 53.511 -6.61 54.389 -6.103 55.293 C-5.574 56.228 -5.045 57.162 -4.5 58.125 C9.103 82.72 18.299 108.318 27 135 C27.33 135.99 27.66 136.98 28 138 C29.65 138 31.3 138 33 138 C32.463 141.867 31.414 143.971 29 147 C32.042 147.027 35.083 147.047 38.125 147.062 C38.981 147.071 39.837 147.079 40.719 147.088 C45.267 147.105 49.524 146.932 54 146 C52.698 142.353 51.46 138.979 48.157 136.764 C45.984 135.828 43.814 135.041 41.562 134.312 C40.059 133.8 38.561 133.276 37.066 132.738 C36.406 132.522 35.745 132.306 35.065 132.083 C29.636 129.235 27.393 125.302 25.631 119.694 C25.276 118.486 25.276 118.486 24.914 117.254 C24.649 116.406 24.384 115.559 24.111 114.686 C23.268 111.982 22.444 109.273 21.625 106.562 C16.783 90.619 11.159 76.639 2.188 62.523 C1 60 1 60 1.312 57.664 C1.539 57.115 1.766 56.566 2 56 C3.051 55.818 4.101 55.636 5.184 55.449 C12.683 54.118 19.842 52.684 27 50 C26.505 47.03 26.505 47.03 26 44 C25.42 44.277 24.84 44.554 24.242 44.84 C15.287 48.992 6.021 50.633 -3.688 48 C-4.451 47.67 -5.214 47.34 -6 47 C-3.118 46.039 -1.301 45.894 1.688 45.938 C2.9 45.951 2.9 45.951 4.137 45.965 C4.752 45.976 5.366 45.988 6 46 C4.02 45.34 2.04 44.68 0 44 C0.99 43.01 0.99 43.01 2 42 C4.125 42.375 4.125 42.375 6 43 C5.59 42.12 5.18 41.239 4.758 40.332 C4.219 39.171 3.68 38.009 3.125 36.812 C2.591 35.664 2.058 34.515 1.508 33.332 C-3.301 22.706 -4.741 12.716 -0.656 1.652 C-0.44 1.107 -0.223 0.562 0 0 Z " fill="#090909" transform="translate(195,22)"/>
<path d="M0 0 C0 0.66 0 1.32 0 2 C0.66 2 1.32 2 2 2 C2.66 8.27 3.32 14.54 4 21 C5.98 20.67 7.96 20.34 10 20 C8.366 21.708 7.131 22.935 5 24 C5 25.98 5 27.96 5 30 C25.477 37.573 45.961 45.128 66.513 52.493 C72.995 54.818 79.465 57.159 85.895 59.625 C86.911 60.011 87.927 60.396 88.975 60.793 C90.787 61.484 92.595 62.187 94.396 62.906 C102.848 66.107 109.542 63.702 117.875 61.125 C118.722 60.868 119.569 60.612 120.441 60.348 C125.367 58.847 130.247 57.255 135.1 55.534 C137.728 54.795 139.494 54.937 142 56 C144.136 59.205 144.281 61.262 144.645 65.012 C144.918 67.227 144.918 67.227 146.625 69.688 C148 72 148 72 148.125 74.625 C146.463 78.134 143.461 78.725 140 80 C137.391 80.891 134.764 81.706 132.125 82.5 C126.386 84.248 120.686 86.085 115 88 C96.839 94.09 78.653 100.087 60.405 105.912 C56.95 107.016 53.496 108.125 50.043 109.234 C47.82 109.948 45.598 110.662 43.375 111.375 C42.374 111.697 41.374 112.019 40.343 112.35 C34.248 114.303 28.137 116.185 22 118 C22.042 118.793 22.083 119.586 22.126 120.403 C22.468 128.083 22.468 128.083 20.5 131.938 C12.158 138.82 2.246 140.386 -8.312 140.312 C-9.138 140.308 -9.963 140.304 -10.813 140.3 C-20.879 140.115 -30.251 138.702 -37.623 131.39 C-39.614 127.934 -39.468 124.575 -39.469 120.691 C-39.48 119.486 -39.48 119.486 -39.492 118.256 C-39.503 116.559 -39.505 114.862 -39.501 113.165 C-39.5 110.574 -39.542 107.987 -39.586 105.396 C-39.591 103.745 -39.594 102.093 -39.594 100.441 C-39.61 99.67 -39.627 98.899 -39.643 98.105 C-39.592 94.095 -39.202 92.25 -36.65 89.094 C-34 87 -34 87 -31 85.062 C-24.999 80.937 -22.886 76.87 -21 70 C-19.515 69.505 -19.515 69.505 -18 69 C-18.126 68.127 -18.252 67.253 -18.383 66.354 C-19.794 56.236 -20.747 46.119 -21.562 35.938 C-21.751 33.603 -21.941 31.269 -22.133 28.935 C-22.252 27.501 -22.368 26.066 -22.481 24.631 C-22.803 20.71 -23.315 16.873 -24 13 C-24.646 5.908 -24.646 5.908 -22.789 3.297 C-20.492 1.632 -18.941 1.57 -16.125 1.438 C-13.108 1.232 -11.07 1.029 -8.25 -0.125 C-5.229 -1.3 -3.102 -0.721 0 0 Z " fill="#141414" transform="translate(75,209)"/>
<path d="M0 0 C8.363 2.554 12.022 5.566 16.078 13.18 C17.702 16.394 19.209 19.653 20.703 22.93 C21.472 24.527 22.246 26.122 23.023 27.715 C25.764 33.378 28.432 39.058 30.703 44.93 C30.703 41.135 29.307 39.114 27.48 35.867 C26.703 33.93 26.703 33.93 27.703 30.93 C36.029 46.046 42.232 61.396 47.891 77.68 C48.319 78.912 48.748 80.144 49.189 81.413 C51.405 87.87 53.409 94.267 54.923 100.927 C55.181 101.588 55.438 102.249 55.703 102.93 C57.188 103.425 57.188 103.425 58.703 103.93 C57.383 104.26 56.063 104.59 54.703 104.93 C49.176 90.776 44.445 76.362 39.703 61.93 C40.884 67.779 42.397 73.331 44.453 78.93 C44.709 79.647 44.965 80.364 45.229 81.102 C46.612 84.973 48.039 88.825 49.5 92.668 C49.928 93.817 49.928 93.817 50.364 94.99 C50.913 96.464 51.475 97.933 52.05 99.396 C53.879 104.346 53.879 104.346 53.016 107.211 C52.582 107.778 52.149 108.345 51.703 108.93 C51.301 109.48 50.899 110.031 50.484 110.598 C44.713 117.442 38.314 116.801 29.789 117.574 C15.956 118.661 7.858 114.988 -3.336 107.273 C-5.636 105.697 -7.949 104.142 -10.262 102.586 C-12.003 101.409 -13.744 100.232 -15.484 99.055 C-16.335 98.483 -17.185 97.912 -18.062 97.323 C-18.855 96.783 -19.648 96.243 -20.465 95.688 C-21.179 95.204 -21.894 94.721 -22.63 94.223 C-24.297 92.93 -24.297 92.93 -25.297 90.93 C-26.081 90.62 -26.864 90.311 -27.672 89.992 C-30.257 88.946 -31.501 88.009 -33.297 85.93 C-32.802 84.94 -32.802 84.94 -32.297 83.93 C-29.987 84.59 -27.677 85.25 -25.297 85.93 C-23.765 82.865 -24.067 80.313 -24.297 76.93 C-25.199 74.037 -25.199 74.037 -27.297 71.93 C-30.877 70.561 -30.877 70.561 -34.297 69.93 C-34.957 72.24 -35.617 74.55 -36.297 76.93 C-38.297 74.93 -38.297 74.93 -38.536 72.656 C-38.438 64.865 -37.972 57.142 -37.235 49.384 C-37.047 47.367 -36.881 45.349 -36.715 43.33 C-35.627 31.705 -33.641 20.786 -24.297 12.93 C-20.859 11.43 -20.859 11.43 -18.297 10.93 C-18.297 10.27 -18.297 9.61 -18.297 8.93 C-17.717 8.615 -17.137 8.301 -16.539 7.977 C-15.758 7.549 -14.977 7.121 -14.172 6.68 C-13.406 6.262 -12.64 5.844 -11.852 5.414 C-9.159 3.926 -9.159 3.926 -6.414 1.688 C-3.297 -0.07 -3.297 -0.07 0 0 Z " fill="#FFFFFF" transform="translate(165.296875,58.0703125)"/>
<path d="M0 0 C0.33 0.66 0.66 1.32 1 2 C4.882 3.941 8.698 4.594 13 5 C13.66 4.67 14.32 4.34 15 4 C15.04 4.764 15.079 5.529 15.12 6.316 C16.416 30.119 20.064 48.734 31 70 C31.33 70.66 31.66 71.32 32 72 C31.446 72.257 30.891 72.513 30.32 72.777 C25.753 75.147 25.753 75.147 23.023 79.336 C22.553 81.563 22.198 83.733 22 86 C4.991 80.947 4.991 80.947 1.493 75.77 C-0.028 72.947 -1.063 70.251 -2.051 67.203 C-2.599 65.531 -2.599 65.531 -3.158 63.824 C-3.539 62.645 -3.92 61.465 -4.312 60.25 C-5.123 57.797 -5.934 55.344 -6.746 52.891 C-8.034 48.971 -9.304 45.047 -10.535 41.109 C-13.443 32.064 -17.441 24.223 -22.482 16.152 C-22.951 15.393 -23.419 14.634 -23.902 13.852 C-24.544 12.843 -24.544 12.843 -25.199 11.815 C-26 10 -26 10 -25 7 C-24.033 6.914 -23.066 6.827 -22.07 6.738 C-13.756 5.841 -7.25 4.47 0 0 Z " fill="#FFFFFF" transform="translate(224,72)"/>
<path d="M0 0 C0.838 2.933 1.233 4.461 0 7.312 C-1.053 10.142 -0.989 11.262 -0.562 14.168 C-0.377 15.433 -0.191 16.697 0 18 C-12.424 22.188 -24.893 26.218 -37.391 30.179 C-54.789 35.696 -72.149 41.31 -89.443 47.143 C-112.758 55 -112.758 55 -116 55 C-117.001 51.996 -117.166 49.892 -117.188 46.75 C-117.202 45.837 -117.216 44.925 -117.23 43.984 C-116.939 40.212 -116.584 37.473 -115 34 C-112.324 32.262 -109.433 31.528 -106.375 30.688 C-105.458 30.409 -104.54 30.13 -103.595 29.843 C-101.536 29.219 -99.474 28.606 -97.408 28.004 C-91.8 26.352 -86.229 24.578 -80.652 22.824 C-78.605 22.181 -76.557 21.544 -74.509 20.907 C-65.676 18.164 -56.865 15.359 -48.067 12.505 C-43.626 11.065 -39.181 9.634 -34.736 8.204 C-32.224 7.394 -29.712 6.583 -27.201 5.769 C-23.596 4.605 -19.986 3.457 -16.375 2.312 C-14.757 1.785 -14.757 1.785 -13.106 1.248 C-12.109 0.935 -11.113 0.623 -10.086 0.301 C-9.22 0.024 -8.354 -0.253 -7.462 -0.538 C-4.675 -1.061 -2.721 -0.725 0 0 Z " fill="#FFFFFF" transform="translate(216,268)"/>
<path d="M0 0 C1.199 0.153 1.199 0.153 2.422 0.309 C3.025 0.392 3.628 0.476 4.25 0.562 C4.09 1.144 3.93 1.726 3.765 2.325 C-0.347 20.192 6.292 38.35 15.25 53.562 C21.019 62.51 28.766 69.72 38.25 74.562 C36.482 80.188 33.082 83.341 28.25 86.562 C19.846 87.778 13.264 86.26 6.25 81.562 C3.625 79.312 3.625 79.312 1.25 76.562 C0.635 75.914 0.02 75.266 -0.613 74.598 C-12.987 61.339 -20.654 44.023 -21.062 25.75 C-20.766 17.323 -19.193 10.21 -13.75 3.562 C-9.276 0.18 -5.505 -0.729 0 0 Z " fill="#FFFFFF" transform="translate(158.75,78.4375)"/>
<path d="M0 0 C0.584 0.299 1.168 0.598 1.77 0.906 C18.002 8.866 34.06 8.335 51 3 C53.335 1.966 53.335 1.966 55 1 C55.199 2.373 55.199 2.373 55.402 3.773 C55.579 4.962 55.756 6.15 55.938 7.375 C56.112 8.558 56.286 9.742 56.465 10.961 C56.835 13.907 56.835 13.907 58 16 C58.327 19.983 58.081 23.552 55.641 26.82 C46.668 34.451 33.211 34.775 22 34 C14.155 33.303 7.425 31.762 1 27 C-0.331 24.338 -0.113 22.313 -0.098 19.336 C-0.094 18.214 -0.091 17.093 -0.088 15.938 C-0.08 14.762 -0.071 13.586 -0.062 12.375 C-0.058 11.192 -0.053 10.008 -0.049 8.789 C-0.037 5.859 -0.021 2.93 0 0 Z " fill="#FFFFFF" transform="translate(38,310)"/>
<path d="M0 0 C1.613 1.41 1.613 1.41 2.488 4.723 C2.615 8.475 1.967 10.027 0.613 13.41 C0.903 17.614 1.262 19.883 3.613 23.41 C-7.364 30.728 -19.575 36.123 -31.539 41.62 C-34.86 43.159 -38.05 44.769 -41.195 46.645 C-44.387 48.41 -44.387 48.41 -47.387 48.41 C-47.461 47.781 -47.536 47.152 -47.613 46.504 C-48.637 39.839 -50.69 35.299 -55.387 30.41 C-56.047 30.08 -56.707 29.75 -57.387 29.41 C-56.387 26.41 -56.387 26.41 -54.831 25.402 C-54.161 25.104 -53.491 24.807 -52.801 24.5 C-52.045 24.155 -51.288 23.81 -50.509 23.455 C-49.685 23.089 -48.861 22.724 -48.012 22.348 C-41.132 19.199 -34.374 15.909 -27.699 12.348 C-26.132 11.518 -24.564 10.689 -22.996 9.859 C-20.682 8.632 -18.37 7.401 -16.064 6.159 C-13.867 4.978 -11.659 3.817 -9.449 2.66 C-8.793 2.3 -8.136 1.941 -7.46 1.57 C-2.992 -0.74 -2.992 -0.74 0 0 Z " fill="#FFFFFF" transform="translate(421.38671875,165.58984375)"/>
<path d="M0 0 C2.97 1.65 5.94 3.3 9 5 C9 5.66 9 6.32 9 7 C9.87 7.373 9.87 7.373 10.758 7.754 C18.647 12.138 23.193 21.181 27 29 C27.38 29.763 27.761 30.526 28.152 31.312 C29.195 33.515 30.12 35.728 31 38 C31.3 38.759 31.601 39.519 31.91 40.301 C34.048 46.694 34.282 52.882 34.312 59.562 C34.318 60.456 34.323 61.35 34.329 62.271 C34.257 68.743 34.257 68.743 32 71 C26.835 67.725 22.125 64.571 18 60 C17.296 59.232 17.296 59.232 16.578 58.449 C14.995 56.674 13.488 54.856 12 53 C11.504 52.389 11.007 51.778 10.496 51.148 C1.826 39.423 -3.418 21.536 -2 7 C-1.481 4.578 -0.8 2.351 0 0 Z " fill="#FFFFFF" transform="translate(165,80)"/>
<path d="M0 0 C3.438 1.484 6.725 3.188 10 5 C7.99 7.01 6.408 7.899 3.875 9.125 C3.151 9.478 2.426 9.831 1.68 10.195 C1.125 10.461 0.571 10.726 0 11 C0.495 11.99 0.495 11.99 1 13 C4.492 12.353 7.097 11.04 10 9 C10.33 8.01 10.66 7.02 11 6 C11.99 6.66 12.98 7.32 14 8 C14.985 12.924 14.985 12.924 14 16 C11.343 18.578 8.227 20.221 5 22 C-3.098 26.795 -6.804 30.519 -9.25 39.625 C-10.666 44.07 -12.619 45.918 -16.715 48.066 C-26.395 52.021 -37.606 51.975 -47.562 48.812 C-51.435 46.771 -54.361 45.125 -56 41 C-56.4 36.633 -56.292 32.371 -56 28 C-55.478 28.193 -54.956 28.387 -54.418 28.586 C-40.126 33.642 -26.589 34.413 -12.199 28.934 C-8.487 27.093 -5.756 25.361 -3.812 21.625 C-2.809 17.149 -3.159 15.198 -5 11 C-6.861 8.212 -8.866 5.584 -11 3 C-7.133 0.27 -4.72 -0.712 0 0 Z " fill="#FFFFFF" transform="translate(318,219)"/>
<path d="M0 0 C0.568 0.217 1.137 0.433 1.723 0.656 C10.405 3.787 16.466 3.251 25 0 C26.992 2.052 28.968 4.115 30.938 6.188 C31.501 6.766 32.065 7.344 32.646 7.939 C37.992 13.605 37.992 13.605 38 18 C33.784 23.902 27.816 25.088 21.125 26.688 C10.921 27.708 -2.288 28.061 -10.875 21.625 C-13 19 -13 19 -13.398 16.617 C-12.857 13.057 -11.379 11.909 -8.75 9.5 C-5.553 6.485 -2.628 3.541 0 0 Z " fill="#FFFFFF" transform="translate(54,288)"/>
<path d="M0 0 C21.932 7.659 43.769 15.551 65.554 23.618 C75.021 27.122 84.508 30.566 94 34 C90.323 36.451 88.432 36.84 84 37 C80.252 36.078 76.715 34.718 73.125 33.312 C72.183 32.96 71.24 32.607 70.27 32.244 C65.15 30.307 60.138 28.199 55.152 25.944 C51.635 24.401 48.042 23.074 44.438 21.75 C43.715 21.482 42.992 21.214 42.248 20.938 C40.5 20.289 38.75 19.644 37 19 C39.838 20.892 42.28 21.971 45.453 23.172 C46.541 23.586 47.629 24.001 48.75 24.428 C49.905 24.864 51.06 25.301 52.25 25.75 C54.607 26.648 56.964 27.546 59.32 28.445 C60.464 28.881 61.608 29.317 62.786 29.767 C68.886 32.107 74.947 34.543 81 37 C81 37.66 81 38.32 81 39 C76.283 37.735 71.678 36.32 67.172 34.43 C66.513 34.154 65.855 33.878 65.176 33.594 C63.868 33.039 62.565 32.473 61.267 31.894 C57.385 30.247 54.969 29.428 51 31 C48.303 32.622 45.783 34.448 43.25 36.312 C41.745 37.4 40.24 38.487 38.734 39.574 C37.96 40.137 37.186 40.699 36.389 41.279 C33.989 43.008 31.569 44.706 29.141 46.395 C27.974 47.207 27.974 47.207 26.784 48.036 C25.281 49.081 23.777 50.125 22.271 51.165 C21.593 51.639 20.916 52.113 20.219 52.602 C19.62 53.017 19.021 53.433 18.404 53.862 C16.845 54.965 16.845 54.965 16 57 C13.532 55.848 11.952 54.952 10 53 C17.746 47.164 25.681 41.973 34 37 C33.859 34.229 33.713 31.458 33.562 28.688 C33.523 27.902 33.484 27.116 33.443 26.307 C33.401 25.549 33.36 24.792 33.316 24.012 C33.261 22.967 33.261 22.967 33.205 21.901 C33.044 19.778 33.044 19.778 32 17 C30.293 16.116 30.293 16.116 28.156 15.57 C24.514 14.463 20.924 13.287 17.344 11.992 C16.385 11.645 15.426 11.299 14.438 10.941 C13.468 10.589 12.499 10.238 11.5 9.875 C10 9.336 10 9.336 8.469 8.785 C7.046 8.269 7.046 8.269 5.594 7.742 C4.735 7.431 3.875 7.121 2.99 6.8 C1 6 1 6 0 5 C-0.041 3.334 -0.043 1.666 0 0 Z " fill="#FFFFFF" transform="translate(80,242)"/>
<path d="M0 0 C4.041 0.184 5.577 0.544 8.375 3.562 C10.412 7.871 10.393 10.285 10 15 C9.67 15.66 9.34 16.32 9 17 C8.01 17.33 7.02 17.66 6 18 C6.99 18.619 7.98 19.237 9 19.875 C10.485 20.927 10.485 20.927 12 22 C12 22.66 12 23.32 12 24 C12.559 24.21 13.119 24.42 13.695 24.637 C16.799 26.472 18.728 28.983 20.875 31.812 C21.534 32.679 21.534 32.679 22.206 33.562 C33.207 48.506 38.887 67.852 36.727 86.34 C35.317 93.054 31.354 99.682 26 104 C18.499 106.365 11.636 105.686 4.625 102.25 C-10.019 94.434 -19.063 80.137 -25 65 C-25.147 64.277 -25.294 63.554 -25.445 62.809 C-25.914 60.6 -25.914 60.6 -29 59 C-28.34 59 -27.68 59 -27 59 C-27.236 57.848 -27.236 57.848 -27.477 56.672 C-28.983 46.106 -30.502 32.186 -24.57 22.848 C-17.301 14.294 -17.301 14.294 -12.117 13.832 C-6.727 13.785 -2.178 14.494 3 16 C2.361 15.526 1.721 15.051 1.062 14.562 C-1.775 11.037 -2.248 7.487 -2 3 C-1.34 2.01 -0.68 1.02 0 0 Z M-19 19 C-25.345 25.173 -26.927 33.304 -27.312 41.812 C-27.034 60.502 -18.973 78.677 -6 92 C-4.347 93.35 -2.681 94.685 -1 96 C-0.209 96.799 -0.209 96.799 0.598 97.613 C4.948 101.915 10.063 103.307 16.062 103.562 C20.901 103.391 23.981 102.6 27.664 99.438 C30.025 96.897 32 94.557 32 91 C30.375 89.895 28.697 88.866 27 87.875 C12.057 78.538 4.638 64.191 -1 48 C-1.268 47.236 -1.536 46.471 -1.812 45.684 C-4.202 37.205 -4.377 25.493 -2 17 C-8.323 15.785 -13.321 15.67 -19 19 Z M0 18 C-4.897 32.384 -0.424 48.704 6 62 C8.446 66.179 11.119 70.111 14 74 C14.494 74.679 14.987 75.359 15.496 76.059 C19.93 81.698 26.167 86.722 33 89 C37.074 80.852 34.518 66.708 31.812 58.375 C27.525 46.015 21.11 33.623 11 25 C10.34 25 9.68 25 9 25 C9 24.34 9 23.68 9 23 C6.03 21.35 3.06 19.7 0 18 Z " fill="#000000" transform="translate(165,62)"/>
<path d="M0 0 C3.25 0.188 3.25 0.188 5.562 1.188 C9.442 2.631 13.154 2.348 17.25 2.188 C18.206 6.185 18.354 9.896 18.312 14 C18.303 15.161 18.294 16.323 18.285 17.52 C18.274 18.4 18.262 19.28 18.25 20.188 C16.93 20.517 15.61 20.847 14.25 21.188 C14.25 21.847 14.25 22.507 14.25 23.188 C15.9 22.528 17.55 21.868 19.25 21.188 C19.471 23.311 19.677 25.437 19.875 27.562 C20.049 29.338 20.049 29.338 20.227 31.148 C20.234 32.151 20.242 33.154 20.25 34.188 C19.59 34.847 18.93 35.507 18.25 36.188 C18.065 38.617 18.065 38.617 18.273 41.414 C18.351 42.961 18.351 42.961 18.43 44.539 C18.526 46.159 18.526 46.159 18.625 47.812 C18.682 48.9 18.738 49.988 18.797 51.109 C18.939 53.803 19.09 56.495 19.25 59.188 C18.59 59.188 17.93 59.188 17.25 59.188 C17.25 59.847 17.25 60.507 17.25 61.188 C18.735 61.683 18.735 61.683 20.25 62.188 C19.59 62.188 18.93 62.188 18.25 62.188 C18.25 62.847 18.25 63.507 18.25 64.188 C17.59 64.188 16.93 64.188 16.25 64.188 C15.755 52.803 15.755 52.803 15.25 41.188 C13.27 40.197 11.29 39.208 9.25 38.188 C9.58 34.558 9.91 30.928 10.25 27.188 C9.59 27.188 8.93 27.188 8.25 27.188 C8.271 28.446 8.291 29.704 8.312 31 C8.359 33.828 8.167 35.437 7.25 38.188 C4.775 38.683 4.775 38.683 2.25 39.188 C1.92 44.137 1.59 49.087 1.25 54.188 C0.92 54.188 0.59 54.188 0.25 54.188 C-0.327 48.408 -0.896 42.628 -1.459 36.847 C-1.651 34.885 -1.845 32.923 -2.041 30.962 C-4.37 7.617 -4.37 7.617 -3.75 1.188 C-2.75 0.188 -2.75 0.188 0 0 Z " fill="#FCFCFC" transform="translate(57.75,212.8125)"/>
<path d="M0 0 C1.953 0.828 1.953 0.828 5.078 2.578 C4.119 3.011 4.119 3.011 3.141 3.453 C0.926 4.406 0.926 4.406 0.078 6.578 C0.032 11.258 0.502 14.723 3.141 18.641 C4.1 19.6 4.1 19.6 5.078 20.578 C4.533 20.434 3.988 20.289 3.426 20.141 C-3.384 18.464 -9.775 16.975 -16.234 20.266 C-21.848 25.096 -25.55 30.265 -26.195 37.738 C-26.289 41.46 -26.282 45.168 -26.234 48.891 C-26.238 50.178 -26.241 51.465 -26.244 52.791 C-26.71 59.277 -26.71 59.277 -23.922 64.578 C-23.172 67.516 -23.172 67.516 -22.922 70.578 C-23.582 71.568 -24.242 72.558 -24.922 73.578 C-25.314 73.104 -25.706 72.629 -26.109 72.141 C-28.33 70.226 -30.056 69.965 -32.922 69.578 C-33.582 71.888 -34.242 74.198 -34.922 76.578 C-36.922 74.578 -36.922 74.578 -37.161 72.305 C-37.063 64.513 -36.597 56.79 -35.86 49.032 C-35.672 47.015 -35.506 44.997 -35.34 42.979 C-34.252 31.354 -32.266 20.435 -22.922 12.578 C-19.484 11.078 -19.484 11.078 -16.922 10.578 C-16.922 9.918 -16.922 9.258 -16.922 8.578 C-16.342 8.264 -15.762 7.949 -15.164 7.625 C-14.383 7.197 -13.602 6.769 -12.797 6.328 C-11.972 5.88 -11.147 5.431 -10.297 4.969 C-8.281 3.789 -6.598 2.546 -4.797 1.078 C-1.922 -0.422 -1.922 -0.422 0 0 Z " fill="#FDFDFD" transform="translate(163.921875,58.421875)"/>
<path d="M0 0 C0.33 0.66 0.66 1.32 1 2 C9.579 4.922 18.014 7.085 27 5 C27.995 4.776 28.99 4.551 30.016 4.32 C34.057 3.319 34.057 3.319 38 2 C38.33 1.34 38.66 0.68 39 0 C39.162 3.065 39.281 6.121 39.375 9.188 C39.425 10.052 39.476 10.916 39.527 11.807 C39.672 18.083 39.672 18.083 37.767 20.683 C31.693 25.932 24.425 26.42 16.746 26.25 C11.112 25.737 6.808 24.341 2.262 20.969 C-0.886 16.837 -0.571 13.724 -0.312 8.688 C-0.29 7.852 -0.267 7.016 -0.244 6.154 C-0.186 4.102 -0.096 2.051 0 0 Z " fill="#FFFFFF" transform="translate(265,196)"/>
<path d="M0 0 C3.722 2.827 4.801 5.578 6 10 C6.994 12.559 7.495 13.695 9.859 15.125 C10.566 15.414 11.272 15.702 12 16 C15.052 17.337 17.671 18.577 20 21 C20.693 24.428 20.482 27.552 20 31 C16.058 29.758 12.413 28.326 8.727 26.461 C7.744 25.967 6.762 25.472 5.75 24.963 C4.719 24.439 3.688 23.915 2.625 23.375 C0.471 22.289 -1.682 21.203 -3.836 20.117 C-4.886 19.586 -5.936 19.054 -7.019 18.507 C-11.006 16.492 -15.002 14.494 -19 12.5 C-24 10 -29 7.5 -34 5 C-24.342 -1.439 -11.227 -2.356 0 0 Z " fill="#FFFFFF" transform="translate(243,172)"/>
<path d="M0 0 C0.66 5.61 1.32 11.22 2 17 C0.915 17.675 -0.171 18.351 -1.289 19.047 C-2.734 19.948 -4.18 20.849 -5.625 21.75 C-6.338 22.193 -7.051 22.637 -7.785 23.094 C-11.031 25.119 -14.249 27.157 -17.398 29.328 C-20 31 -20 31 -22 31 C-22.495 32.485 -22.495 32.485 -23 34 C-23.268 33.361 -23.536 32.721 -23.812 32.062 C-24.887 29.669 -24.887 29.669 -28 29 C-30.499 26.501 -31.291 24.174 -32.062 20.812 C-32.372 19.554 -32.681 18.296 -33 17 C-33.66 16.67 -34.32 16.34 -35 16 C-33.949 15.348 -32.899 14.695 -31.816 14.023 C-31.14 13.602 -30.465 13.181 -29.768 12.748 C-28.291 11.829 -26.813 10.912 -25.333 9.999 C-21.467 7.598 -17.764 5.113 -14.125 2.375 C-9.476 -0.826 -5.511 -0.466 0 0 Z " fill="#FFFFFF" transform="translate(111,261)"/>
<path d="M0 0 C0.66 0 1.32 0 2 0 C2 2.31 2 4.62 2 7 C3.093 7.103 4.186 7.206 5.312 7.312 C9 8 9 8 10.812 9.188 C14.482 14.789 15.09 21.491 14 28 C10.808 32.2 8.275 33.221 3.125 34 C-1.974 34.277 -5.446 33.277 -10 31 C-12.802 26.798 -13.18 23.009 -13 18 C-11.906 13.908 -10.724 10.086 -7.027 7.758 C-4.586 6.845 -2.585 6.856 0 7 C0 4.69 0 2.38 0 0 Z " fill="#101010" transform="translate(65,94)"/>
<path d="M0 0 C3.198 1.067 6.316 2.292 9.438 3.562 C10.678 4.057 10.678 4.057 11.943 4.561 C13.965 5.367 15.983 6.182 18 7 C15.14 9.86 11.677 10.393 7.875 11.438 C2.916 12.817 -1.896 14.31 -6.705 16.163 C-11.797 18.02 -17.006 19.54 -22.188 21.125 C-23.35 21.485 -24.512 21.844 -25.709 22.215 C-26.83 22.559 -27.951 22.903 -29.105 23.258 C-30.624 23.724 -30.624 23.724 -32.173 24.2 C-37.485 25.703 -37.485 25.703 -40 26 C-40.66 25.34 -41.32 24.68 -42 24 C-37.25 21 -37.25 21 -35 21 C-35 20.34 -35 19.68 -35 19 C-33.305 17.625 -33.305 17.625 -30.875 16 C-26.418 12.969 -22.007 9.888 -17.625 6.75 C-17.031 6.326 -16.436 5.902 -15.824 5.465 C-12.301 2.956 -12.301 2.956 -9.023 0.141 C-5.774 -1.691 -3.57 -0.846 0 0 Z " fill="#FFFFFF" transform="translate(139,274)"/>
<path d="M0 0 C4.202 0.742 6.567 2.303 9.188 5.562 C12.842 11.701 15.319 17.395 14.188 24.562 C12.562 27.125 12.562 27.125 10.188 28.562 C7.375 28.812 7.375 28.812 4.188 27.562 C-1.012 22.982 -5.154 17.489 -6.09 10.488 C-6.234 7.36 -5.975 4.924 -4.688 2.062 C-2.812 0.562 -2.812 0.562 0 0 Z " fill="#FFFFFF" transform="translate(253.8125,147.4375)"/>
<path d="M0 0 C5.212 4.539 9.345 10.102 10.277 17.074 C10.432 20.416 10.232 22.613 8.5 25.5 C8.005 25.995 7.51 26.49 7 27 C0.25 26.125 0.25 26.125 -2 25 C-2 24.34 -2 23.68 -2 23 C-2.99 22.67 -3.98 22.34 -5 22 C-8.991 15.779 -10.402 11.498 -10 4 C-8.027 -1.356 -5.286 -1.695 0 0 Z " fill="#FFFFFF" transform="translate(230,48)"/>
<path d="M0 0 C9.167 -0.632 15.321 2.588 23.067 6.874 C28.366 9.726 33.778 12.361 39.168 15.036 C42.391 16.637 45.61 18.249 48.828 19.859 C50.027 20.459 51.226 21.058 52.425 21.658 C56.885 23.888 61.345 26.118 65.805 28.348 C65.475 29.008 65.145 29.668 64.805 30.348 C42.704 20.908 42.704 20.908 34.055 16.535 C32.969 15.99 31.884 15.445 30.766 14.883 C28.894 13.912 27.041 12.904 25.219 11.844 C18.301 8.108 11.873 7.746 4.148 7.711 C-3.237 7.628 -10.541 6.51 -16.195 1.348 C-13.095 1.064 -9.997 0.813 -6.891 0.602 C-4.59 0.444 -2.292 0.249 0 0 Z " fill="#FFFFFF" transform="translate(197.1953125,176.65234375)"/>
<path d="M0 0 C1.707 1.281 3.374 2.618 5 4 C5 4.66 5 5.32 5 6 C6.394 6.483 7.791 6.961 9.188 7.438 C9.965 7.704 10.742 7.971 11.543 8.246 C21.736 11.374 35.274 11.874 45 7 C46.685 6.032 48.36 5.043 50 4 C50.66 4 51.32 4 52 4 C52.33 2.68 52.66 1.36 53 0 C53.66 0 54.32 0 55 0 C55.438 2.625 55.438 2.625 55 6 C49.966 12.248 42.754 14.954 35 16 C21.956 16.617 11.49 16.233 1.285 7.539 C-0.694 5.169 -0.198 2.968 0 0 Z " fill="#FFFFFF" transform="translate(258,234)"/>
<path d="M0 0 C0.66 0 1.32 0 2 0 C2.037 1.247 2.075 2.493 2.113 3.777 C3.008 28.642 8.223 49.377 21 71 C19.02 71.495 19.02 71.495 17 72 C6.879 56.429 -1.112 38.939 -1.133 19.98 C-1.134 18.876 -1.135 17.772 -1.137 16.635 C-1.133 15.497 -1.129 14.36 -1.125 13.188 C-1.129 12.031 -1.133 10.874 -1.137 9.682 C-1.135 8.035 -1.135 8.035 -1.133 6.355 C-1.132 5.352 -1.131 4.348 -1.129 3.313 C-1 1 -1 1 0 0 Z " fill="#FFFFFF" transform="translate(242,74)"/>
<path d="M0 0 C5.802 3.552 8.866 8.58 11 15 C11.364 18.387 11.324 21.612 11 25 C10.34 25 9.68 25 9 25 C9 25.66 9 26.32 9 27 C7.02 27.66 5.04 28.32 3 29 C3.093 27.546 3.093 27.546 3.188 26.062 C3.173 19.022 0.41 12.417 -4 7 C-5.936 5.473 -7.868 4.26 -10 3 C-6.693 -0.052 -4.46 -0.714 0 0 Z " fill="#FFFFFF" transform="translate(238,43)"/>
<path d="M0 0 C1.32 0.66 2.64 1.32 4 2 C4.375 5.188 4.375 5.188 4 9 C-2.396 16.035 -10.529 17.491 -19.688 18 C-28.958 18 -37.719 16.072 -44.562 9.562 C-46 7 -46 7 -45.75 4.188 C-45.502 3.466 -45.255 2.744 -45 2 C-44.01 1.67 -43.02 1.34 -42 1 C-41.67 2.072 -41.34 3.145 -41 4.25 C-39.284 8.326 -36.883 9.555 -32.938 11.273 C-23.715 14.732 -14.162 13.663 -5.109 10.168 C-2.697 9.043 -2.697 9.043 -1 6 C-0.61 4.01 -0.268 2.01 0 0 Z " fill="#FFFFFF" transform="translate(306,226)"/>
<path d="M0 0 C5.561 3.667 11.053 7.417 16.492 11.262 C19.733 13.508 23.049 15.633 26.383 17.738 C27.183 18.363 27.183 18.363 28 19 C28 19.66 28 20.32 28 21 C18.607 21.581 11.463 20.551 3.5 15.375 C0.639 10.845 0 5.294 0 0 Z " fill="#F9F9F9" transform="translate(135,149)"/>
<path d="M0 0 C9 1.125 9 1.125 12.719 2.629 C13.505 2.942 14.291 3.254 15.102 3.576 C16.289 4.064 16.289 4.064 17.5 4.562 C18.734 5.057 18.734 5.057 19.992 5.561 C21.998 6.365 24 7.181 26 8 C26 8.33 26 8.66 26 9 C23.69 9.33 21.38 9.66 19 10 C19 9.34 19 8.68 19 8 C18.443 7.818 17.886 7.636 17.312 7.449 C12.158 5.751 7.07 3.936 2 2 C5.163 4.109 8.135 5.288 11.688 6.625 C13.457 7.294 13.457 7.294 15.262 7.977 C16.165 8.314 17.069 8.652 18 9 C18 9.66 18 10.32 18 11 C16.547 12.145 16.547 12.145 14.535 13.383 C13.459 14.05 13.459 14.05 12.361 14.73 C11.603 15.191 10.844 15.651 10.062 16.125 C9.308 16.593 8.553 17.061 7.775 17.543 C2.156 21 2.156 21 1 21 C0.67 14.07 0.34 7.14 0 0 Z " fill="#FFFFFF" transform="translate(77,249)"/>
<path d="M0 0 C6.079 2.473 8.736 4.468 11.93 10.168 C14.164 13.993 16.604 14.875 20.75 16.188 C21.822 16.456 22.895 16.724 24 17 C23.67 17.66 23.34 18.32 23 19 C15.782 21.406 9.424 20.262 2.715 16.973 C1 16 1 16 0 15 C-0.073 12.47 -0.092 9.967 -0.062 7.438 C-0.058 6.727 -0.053 6.016 -0.049 5.283 C-0.037 3.522 -0.019 1.761 0 0 Z " fill="#FFFFFF" transform="translate(125,154)"/>
<path d="M0 0 C4.732 3.786 8.351 8.904 9.234 14.965 C9.374 17.599 9.36 19.907 8.875 22.5 C6.281 25.374 4.52 26.285 0.875 27.5 C0.957 26.386 1.04 25.273 1.125 24.125 C1.11 15.783 -3.128 8.885 -8.125 2.5 C-2.785 -0.655 -2.785 -0.655 0 0 Z " fill="#FFFFFF" transform="translate(268.125,145.5)"/>
<path d="M0 0 C1.392 0.34 1.392 0.34 2.812 0.688 C3.142 1.678 3.473 2.668 3.812 3.688 C0.842 3.192 0.842 3.192 -2.188 2.688 C-2.517 3.348 -2.848 4.007 -3.188 4.688 C-2.404 4.667 -1.62 4.646 -0.812 4.625 C1.812 4.688 1.812 4.688 3.812 5.688 C4.019 4.883 4.225 4.079 4.438 3.25 C4.891 2.404 5.345 1.559 5.812 0.688 C10.865 -0.786 10.865 -0.786 13.812 0.688 C13.812 1.678 13.812 2.668 13.812 3.688 C11.337 3.192 11.337 3.192 8.812 2.688 C8.812 3.017 8.812 3.348 8.812 3.688 C10.05 4.275 10.05 4.275 11.312 4.875 C12.137 5.473 12.962 6.071 13.812 6.688 C14.188 9.812 14.188 9.812 13.812 12.688 C12.812 13.688 12.812 13.688 9.938 13.875 C6.812 13.688 6.812 13.688 3.812 11.688 C3.152 12.348 2.493 13.007 1.812 13.688 C-1.188 13.938 -1.188 13.938 -4.188 13.688 C-6.602 11.273 -6.484 10.56 -6.5 7.25 C-6.517 6.468 -6.534 5.685 -6.551 4.879 C-6.188 2.688 -6.188 2.688 -4.867 0.883 C-3.188 -0.312 -3.188 -0.312 0 0 Z " fill="#010101" transform="translate(430.1875,362.3125)"/>
<path d="M0 0 C0 0.66 0 1.32 0 2 C-6.883 5.693 -14.357 6.164 -22 7 C-20.832 11.094 -19.244 14.422 -16.93 17.992 C-10.651 27.678 -7.29 37.663 -3.871 48.619 C-2.814 52.004 -1.737 55.382 -0.652 58.758 C-0.01 60.782 0.607 62.812 1.222 64.844 C1.623 66.098 2.024 67.352 2.438 68.645 C2.787 69.772 3.136 70.9 3.496 72.062 C6.335 77.608 11.738 79.473 17.312 81.625 C22.889 83.779 22.889 83.779 24 86 C20.113 85.343 16.655 84.223 13 82.75 C11.484 82.154 11.484 82.154 9.938 81.547 C4.133 78.49 1.542 74.776 -0.369 68.694 C-0.606 67.889 -0.842 67.084 -1.086 66.254 C-1.351 65.406 -1.616 64.559 -1.889 63.686 C-2.732 60.982 -3.556 58.273 -4.375 55.562 C-9.217 39.619 -14.841 25.639 -23.812 11.523 C-25 9 -25 9 -24.688 6.664 C-24.347 5.84 -24.347 5.84 -24 5 C-22.915 4.807 -21.829 4.613 -20.711 4.414 C-19.266 4.151 -17.82 3.888 -16.375 3.625 C-15.662 3.499 -14.949 3.372 -14.215 3.242 C-9.549 2.386 -4.638 0 0 0 Z " fill="#000000" transform="translate(221,73)"/>
<path d="M0 0 C3.25 -0.25 3.25 -0.25 7 0 C8.333 1.333 9.667 2.667 11 4 C13.138 4.575 13.138 4.575 15.5 4.938 C19.139 5.591 19.838 5.834 22.562 8.625 C23.037 9.409 23.511 10.192 24 11 C23.216 11.763 22.433 12.526 21.625 13.312 C18.927 15.909 18.927 15.909 17 19 C9.74 15.078 3.761 10.287 0.562 2.5 C0.377 1.675 0.191 0.85 0 0 Z " fill="#FFFFFF" transform="translate(245,172)"/>
<path d="M0 0 C0.66 0 1.32 0 2 0 C2.812 1.625 2.812 1.625 3 4 C1.532 6.246 -0.159 8.024 -2 10 C-2 7 -2 7 0 5 C0.167 2.416 0.167 2.416 0 0 Z M-32 4 C-30.824 4.464 -30.824 4.464 -29.625 4.938 C-19.599 7.876 -10.959 6.548 -1 4 C-2.98 6.97 -2.98 6.97 -5 10 C-4.34 10 -3.68 10 -3 10 C-3 10.66 -3 11.32 -3 12 C-10.296 14.78 -19.56 15.48 -27 13 C-27 11.68 -27 10.36 -27 9 C-29.417 6.25 -29.417 6.25 -32 4 Z " fill="#474747" transform="translate(302,226)"/>
<path d="M0 0 C0.66 0 1.32 0 2 0 C16.823 27.092 28.654 54.063 38.149 83.52 C39.22 86.817 40.32 89.96 42 93 C41.01 93 40.02 93 39 93 C37.85 89.876 36.706 86.751 35.562 83.625 C35.202 82.642 34.841 81.659 34.47 80.646 C32.523 75.306 30.635 69.955 28.852 64.559 C22.626 45.791 14.903 28.077 4.816 11.044 C2.705 7.454 1.174 3.997 0 0 Z " fill="#000000" transform="translate(182,68)"/>
<path d="M0 0 C3.736 3.345 6.186 7.228 7.062 12.188 C6.996 16.247 6.664 17.968 4 21 C1.887 21.629 1.887 21.629 0 22 C-0.014 21.443 -0.028 20.886 -0.043 20.312 C-0.425 14.196 -1.884 9.639 -6 5 C-9.117 2.978 -9.117 2.978 -12 2 C-8.259 -1.741 -4.866 -1.402 0 0 Z " fill="#FFFFFF" transform="translate(359,200)"/>
<path d="M0 0 C1.64 0.248 1.64 0.248 3.312 0.5 C6.875 1.067 6.875 1.067 10 1 C10.223 3.082 10.428 5.166 10.625 7.25 C10.741 8.41 10.857 9.57 10.977 10.766 C11 13.939 10.697 15.383 9 18 C0.956 14.924 0.956 14.924 -1.062 10.562 C-2.194 6.263 -1.957 3.914 0 0 Z " fill="#000000" transform="translate(131,128)"/>
<path d="M0 0 C3.319 0.617 4.676 2.044 6.672 4.715 C8.348 7.662 8.688 10.143 8.688 13.5 C7.25 15.938 7.25 15.938 5.688 17.5 C2.109 17.202 0.925 16.758 -1.562 14.062 C-4.373 9.947 -4.581 7.518 -4.312 2.5 C-2.312 0.5 -2.312 0.5 0 0 Z " fill="#000000" transform="translate(206.3125,153.5)"/>
<path d="M0 0 C3.548 0.728 4.91 1.898 7.312 4.625 C9.445 8.891 9.399 11.29 9 16 C8 17 8 17 5.25 17.438 C2 17 2 17 -0.875 14.562 C-3.394 11.158 -3.525 8.091 -3.469 3.953 C-3 2 -3 2 0 0 Z " fill="#000000" transform="translate(255,153)"/>
<path d="M0 0 C6.349 0.479 6.349 0.479 8.875 2.5 C10.528 6.173 11.156 9.971 11 14 C10.01 15.485 10.01 15.485 9 17 C4.959 16.816 3.423 16.456 0.625 13.438 C-1.412 9.129 -1.393 6.715 -1 2 C-0.67 1.34 -0.34 0.68 0 0 Z " fill="#000000" transform="translate(225,53)"/>
<path d="M0 0 C0.33 0 0.66 0 1 0 C0.954 1.03 0.907 2.06 0.859 3.121 C0.2 24.194 6.093 42.599 19.824 58.766 C22 61.1 22 61.1 24.77 63.172 C25.874 64.077 25.874 64.077 27 65 C27 65.66 27 66.32 27 67 C27.887 67.268 28.774 67.536 29.688 67.812 C32.769 68.917 35.262 70.228 38 72 C35 73 35 73 32.914 72.145 C17.788 63.342 8.37 50.242 2 34 C1.853 33.277 1.706 32.554 1.555 31.809 C1.086 29.6 1.086 29.6 -2 28 C-1.34 28 -0.68 28 0 28 C-0.244 26.85 -0.244 26.85 -0.492 25.676 C-1.162 20.829 -1.145 16.073 -1.125 11.188 C-1.129 10.221 -1.133 9.255 -1.137 8.26 C-1.135 7.343 -1.134 6.425 -1.133 5.48 C-1.132 4.644 -1.131 3.808 -1.129 2.946 C-1 1 -1 1 0 0 Z " fill="#000000" transform="translate(138,93)"/>
<path d="M0 0 C1.688 0.793 1.688 0.793 2.938 2.543 C3.783 5.08 3.835 7.135 3.688 9.793 C-2.938 13.793 -2.938 13.793 -6.312 13.793 C-7.668 12.482 -8.999 11.146 -10.312 9.793 C-12.446 8.558 -12.446 8.558 -14.312 7.793 C-14.312 7.133 -14.312 6.473 -14.312 5.793 C-12.404 4.758 -10.485 3.74 -8.562 2.73 C-6.961 1.878 -6.961 1.878 -5.328 1.008 C-2.312 -0.207 -2.312 -0.207 0 0 Z " fill="#FFFFFF" transform="translate(340.3125,213.20703125)"/>
<path d="M0 0 C0 0.66 0 1.32 0 2 C-0.66 2 -1.32 2 -2 2 C-1.541 8.031 0.393 12.166 3.375 17.375 C6.261 22.458 8.629 27.335 10.342 32.938 C11.339 36.063 12.662 39.007 14 42 C13.34 42 12.68 42 12 42 C-6.651 6.779 -6.651 6.779 -5 1 C-2 0 -2 0 0 0 Z " fill="#787878" transform="translate(184,61)"/>
<path d="M0 0 C1.012 0.352 2.024 0.704 3.066 1.066 C3.771 1.307 4.475 1.547 5.201 1.795 C7.616 2.647 9.996 3.566 12.379 4.504 C13.614 4.973 13.614 4.973 14.873 5.451 C16.046 5.908 16.046 5.908 17.242 6.375 C18.308 6.79 18.308 6.79 19.396 7.213 C21.066 8.066 21.066 8.066 22.066 10.066 C16.716 9.251 11.917 7.125 6.949 5.062 C1.531 2.918 1.531 2.918 -3.934 4.066 C-6.815 5.817 -9.528 7.762 -12.246 9.754 C-13.328 10.53 -13.328 10.53 -14.432 11.322 C-17.38 13.445 -20.308 15.586 -23.189 17.799 C-23.903 18.348 -24.616 18.896 -25.352 19.461 C-25.992 19.961 -26.633 20.461 -27.294 20.976 C-28.934 22.066 -28.934 22.066 -30.934 22.066 C-30.934 22.726 -30.934 23.386 -30.934 24.066 C-33.246 25.754 -33.246 25.754 -35.934 27.066 C-36.924 26.736 -37.914 26.406 -38.934 26.066 C-37.832 25.271 -36.73 24.475 -35.629 23.68 C-34.909 23.159 -34.188 22.638 -33.446 22.102 C-31.841 20.943 -30.233 19.787 -28.624 18.632 C-24.355 15.564 -20.12 12.463 -15.941 9.273 C-15.143 8.673 -14.345 8.073 -13.523 7.454 C-11.988 6.297 -10.463 5.127 -8.95 3.943 C-3.785 0.086 -3.785 0.086 0 0 Z " fill="#000000" transform="translate(134.93359375,270.93359375)"/>
<path d="M0 0 C2.5 0.25 2.5 0.25 4.5 2.25 C4.73 4.562 4.73 4.562 4.688 7.25 C4.678 8.58 4.678 8.58 4.668 9.938 C4.5 12.25 4.5 12.25 3.5 14.25 C1.19 14.25 -1.12 14.25 -3.5 14.25 C-3.83 13.26 -4.16 12.27 -4.5 11.25 C-4.17 10.59 -3.84 9.93 -3.5 9.25 C-3.686 8.095 -3.871 6.94 -4.062 5.75 C-4.207 4.595 -4.351 3.44 -4.5 2.25 C-2.5 0.25 -2.5 0.25 0 0 Z " fill="#191919" transform="translate(407.5,361.75)"/>
<path d="M0 0 C1.114 0.155 1.114 0.155 2.25 0.312 C3.599 6.565 3.599 6.565 1.938 10.125 C0.25 12.312 0.25 12.312 -1.75 14.312 C-4.375 13.938 -4.375 13.938 -6.75 13.312 C-7.234 6.173 -7.234 6.173 -5.062 2.312 C-2.75 0.312 -2.75 0.312 0 0 Z " fill="#252525" transform="translate(102.75,267.6875)"/>
<path d="M0 0 C2.034 3.73 3 5.669 3 10 C0.875 11.29 -0.553 12 -3.062 12 C-6.098 10.433 -6.766 8.085 -8 5 C-8 4.01 -8 3.02 -8 2 C-4.912 0.235 -3.767 0 0 0 Z " fill="#FFFFFF" transform="translate(354,207)"/>
<path d="M0 0 C2 1 2 1 2.759 2.724 C3.116 3.845 3.116 3.845 3.48 4.988 C3.754 5.831 4.028 6.674 4.31 7.542 C4.6 8.456 4.889 9.37 5.188 10.312 C5.806 12.222 6.426 14.131 7.047 16.039 C7.366 17.022 7.685 18.004 8.014 19.017 C9.871 24.636 11.868 30.206 13.866 35.777 C14.146 36.566 14.426 37.355 14.715 38.168 C15.088 39.209 15.088 39.209 15.469 40.27 C16 42 16 42 16 44 C16.66 44.33 17.32 44.66 18 45 C16.68 45.66 15.36 46.32 14 47 C13.894 46.456 13.788 45.912 13.679 45.352 C12.496 39.63 10.785 34.32 8.688 28.875 C8.063 27.215 7.441 25.555 6.82 23.895 C6.514 23.075 6.207 22.256 5.892 21.413 C4.562 17.814 3.294 14.196 2.062 10.562 C1.461 8.801 1.461 8.801 0.848 7.004 C0 4 0 4 0 0 Z " fill="#000000" transform="translate(204,119)"/>
<path d="M0 0 C4.618 1.412 8.841 3.301 13.125 5.5 C14.525 6.211 15.924 6.922 17.324 7.633 C18.07 8.012 18.815 8.391 19.583 8.782 C22.199 10.1 24.826 11.392 27.457 12.68 C28.368 13.128 29.278 13.576 30.216 14.037 C32.013 14.92 33.811 15.799 35.612 16.674 C36.43 17.078 37.247 17.482 38.09 17.898 C38.821 18.256 39.551 18.614 40.304 18.982 C42 20 42 20 43 22 C38.657 21.378 35.093 19.742 31.23 17.762 C30.591 17.44 29.951 17.118 29.292 16.786 C27.254 15.759 25.221 14.723 23.188 13.688 C21.833 13.003 20.478 12.318 19.123 11.635 C16.545 10.333 13.968 9.028 11.392 7.72 C7.602 5.798 3.804 3.895 0 2 C0 1.34 0 0.68 0 0 Z " fill="#000000" transform="translate(213,179)"/>
<path d="M0 0 C3.959 1.414 7.917 2.831 11.875 4.25 C12.984 4.646 14.092 5.041 15.234 5.449 C24.735 8.858 34.033 12.35 43 17 C39.221 18.26 38.129 17.532 34.477 16.086 C33.372 15.654 32.267 15.222 31.129 14.777 C29.973 14.315 28.816 13.852 27.625 13.375 C26.507 12.935 25.39 12.496 24.238 12.043 C21.976 11.153 19.716 10.257 17.458 9.354 C15.079 8.423 12.686 7.524 10.284 6.653 C9.105 6.224 7.926 5.794 6.711 5.352 C5.639 4.971 4.567 4.59 3.462 4.198 C2.65 3.802 1.837 3.407 1 3 C0.67 2.01 0.34 1.02 0 0 Z " fill="#000000" transform="translate(116,260)"/>
<path d="M0 0 C5.61 0.33 11.22 0.66 17 1 C17 2.98 17 4.96 17 7 C11.06 6.01 5.12 5.02 -1 4 C-0.67 2.68 -0.34 1.36 0 0 Z " fill="#FFFFFF" transform="translate(273,223)"/>
<path d="M0 0 C0 2.31 0 4.62 0 7 C-3.3 7 -6.6 7 -10 7 C-10.33 4.69 -10.66 2.38 -11 0 C-7.018 -1.054 -4.018 -0.841 0 0 Z " fill="#FFFFFF" transform="translate(71,118)"/>
<path d="M0 0 C3.562 0.963 4.809 1.722 6.938 4.812 C8 8 8 8 7.188 10.875 C6.796 11.576 6.404 12.278 6 13 C2.167 11.546 0.717 9.692 -1 6 C-1.25 3.25 -1.25 3.25 -1 1 C-0.67 0.67 -0.34 0.34 0 0 Z " fill="#FFFFFF" transform="translate(226,55)"/>
<path d="M0 0 C1.176 0.464 1.176 0.464 2.375 0.938 C12.401 3.876 21.041 2.548 31 0 C27.367 4.036 24.358 5.77 18.914 6.301 C12.539 6.323 7.538 6.323 2 3 C1.34 2.01 0.68 1.02 0 0 Z " fill="#FFFFFF" transform="translate(270,230)"/>
<path d="M0 0 C3.133 0.907 4.643 1.416 6.375 4.25 C7.109 7.479 6.745 9.797 6 13 C2.397 12.026 1.202 11.31 -0.875 8.125 C-1.989 5.031 -2.307 3.94 -1 1 C-0.67 0.67 -0.34 0.34 0 0 Z " fill="#FFFFFF" transform="translate(205,156)"/>
<path d="M0 0 C2.659 0.367 3.798 0.791 5.688 2.75 C7.151 5.26 7.777 7.104 8 10 C7.01 11.485 7.01 11.485 6 13 C2.908 11.934 1.996 10.994 0.188 8.188 C-1.071 4.81 -1.09 3.369 0 0 Z " fill="#FFFFFF" transform="translate(132,130)"/>
<path d="M0 0 C2.312 0.188 2.312 0.188 5 1 C7.684 4.332 8.363 6.762 8 11 C6.188 11.688 6.188 11.688 4 12 C1.222 10.29 0.841 8.548 -0.25 5.438 C-1 2 -1 2 0 0 Z " fill="#FFFFFF" transform="translate(165,65)"/>
<path d="M0 0 C2.375 0.25 2.375 0.25 5 1 C7.662 4.296 7.156 7.933 7 12 C6.01 12.495 6.01 12.495 5 13 C1.526 10.8 0.048 9.002 -1 5 C-0.625 2.188 -0.625 2.188 0 0 Z " fill="#FFFFFF" transform="translate(254,156)"/>
<path d="M0 0 C0.66 0 1.32 0 2 0 C2 2.97 2 5.94 2 9 C2.66 9 3.32 9 4 9 C4 9.66 4 10.32 4 11 C3.34 11 2.68 11 2 11 C2 11.99 2 12.98 2 14 C1.34 14 0.68 14 0 14 C0 13.01 0 12.02 0 11 C-1.98 11 -3.96 11 -6 11 C-5.391 7.907 -4.401 5.804 -2.562 3.25 C-2.131 2.636 -1.699 2.023 -1.254 1.391 C-0.633 0.702 -0.633 0.702 0 0 Z " fill="#1D1D1D" transform="translate(419,362)"/>
<path d="M0 0 C0.674 1.267 1.339 2.539 2 3.812 C2.557 4.874 2.557 4.874 3.125 5.957 C4 8 4 8 4 11 C2.35 11.66 0.7 12.32 -1 13 C-1.648 11.563 -2.293 10.126 -2.938 8.688 C-3.297 7.887 -3.657 7.086 -4.027 6.262 C-5 4 -5 4 -6 1 C-4 0 -4 0 0 0 Z " fill="#FFFFFF" transform="translate(368,199)"/>
<path d="M0 0 C3.63 0 7.26 0 11 0 C11 0.99 11 1.98 11 3 C9.68 3 8.36 3 7 3 C7 6.63 7 10.26 7 14 C6.01 14 5.02 14 4 14 C4 10.37 4 6.74 4 3 C2.68 3 1.36 3 0 3 C0 2.01 0 1.02 0 0 Z " fill="#000000" transform="translate(391,362)"/>
<path d="M0 0 C5.153 1.574 7.41 4.315 10.105 8.867 C11.138 11.329 11.203 13.093 11.125 15.75 C11.107 16.549 11.089 17.348 11.07 18.172 C11.036 19.077 11.036 19.077 11 20 C10.34 20 9.68 20 9 20 C9 19.01 9 18.02 9 17 C7.68 17.33 6.36 17.66 5 18 C5.66 17.01 6.32 16.02 7 15 C7.66 15 8.32 15 9 15 C8.01 11.7 7.02 8.4 6 5 C3.36 5.66 0.72 6.32 -2 7 C-0.68 5.68 0.64 4.36 2 3 C1.34 2.67 0.68 2.34 0 2 C0 1.34 0 0.68 0 0 Z " fill="#000000" transform="translate(348,202)"/>
<path d="M0 0 C0.33 0.99 0.66 1.98 1 3 C-3.077 6.262 -6.593 6.447 -11.617 6.297 C-14.686 5.915 -16.664 5.024 -19 3 C-19 2.34 -19 1.68 -19 1 C-18.381 1.165 -17.762 1.33 -17.125 1.5 C-11.215 2.446 -5.311 3.103 0 0 Z " fill="#FFFFFF" transform="translate(294,186)"/>
<path d="M0 0 C0.66 0 1.32 0 2 0 C2.147 0.897 2.294 1.794 2.445 2.719 C3.905 10.841 5.965 18.253 9.106 25.895 C9.787 27.577 10.4 29.287 11 31 C10.67 31.66 10.34 32.32 10 33 C6.916 27.989 4.897 23.279 3.312 17.625 C3.098 16.881 2.884 16.138 2.663 15.371 C1.232 10.247 0.291 5.326 0 0 Z " fill="#000000" transform="translate(240,100)"/>
<path d="M0 0 C0.99 0 1.98 0 3 0 C3.841 1.6 4.672 3.205 5.5 4.812 C5.964 5.706 6.428 6.599 6.906 7.52 C8 10 8 10 8 13 C9.65 12.34 11.3 11.68 13 11 C13 10.34 13 9.68 13 9 C13.66 9 14.32 9 15 9 C15 10.98 15 12.96 15 15 C14.34 15 13.68 15 13 15 C13 14.34 13 13.68 13 13 C10.532 14.152 8.952 15.048 7 17 C6.83 16.336 6.66 15.672 6.484 14.988 C5.051 9.766 3.703 6.086 0 2 C0 1.34 0 0.68 0 0 Z " fill="#000000" transform="translate(359,199)"/>
<path d="M0 0 C0 1.65 0 3.3 0 5 C-5.625 8 -5.625 8 -9 8 C-9 6.02 -9 4.04 -9 2 C-3.375 0 -3.375 0 0 0 Z " fill="#FFFFFF" transform="translate(300,222)"/>
<path d="M0 0 C0.33 0.66 0.66 1.32 1 2 C1.66 2.33 2.32 2.66 3 3 C1.875 4.48 1.875 4.48 0 6 C-2.812 6.363 -2.812 6.363 -6 6.312 C-7.578 6.307 -7.578 6.307 -9.188 6.301 C-12 6 -12 6 -15 4 C-15 3.34 -15 2.68 -15 2 C-14.252 2.107 -13.505 2.214 -12.734 2.324 C-11.75 2.444 -10.765 2.564 -9.75 2.688 C-8.775 2.815 -7.801 2.943 -6.797 3.074 C-3.517 2.987 -2.367 2.192 0 0 Z " fill="#FFFFFF" transform="translate(72,109)"/>
<path d="M0 0 C0.887 0.474 1.774 0.949 2.688 1.438 C1.078 3.051 1.078 3.051 -1.312 4.438 C-4.328 3.855 -4.328 3.855 -7.562 2.625 C-8.64 2.227 -9.718 1.828 -10.828 1.418 C-11.648 1.094 -12.468 0.771 -13.312 0.438 C-8.945 -3.93 -5.076 -2.395 0 0 Z " fill="#FFFFFF" transform="translate(178.3125,57.5625)"/>
<path d="M0 0 C0.99 0.33 1.98 0.66 3 1 C2.67 1.743 2.34 2.485 2 3.25 C0.398 9.257 0.017 16.05 2 22 C0.062 21.438 0.062 21.438 -2 20 C-3.635 14.276 -2.504 9.572 -1 4 C-0.665 2.667 -0.331 1.334 0 0 Z " fill="#FFFFFF" transform="translate(97,302)"/>
<path d="M0 0 C0.25 2.812 0.25 2.812 0 6 C-1.75 7.938 -1.75 7.938 -4 9 C-6.125 8.875 -6.125 8.875 -8 8 C-8.66 7.01 -9.32 6.02 -10 5 C-8.522 4.164 -7.043 3.331 -5.562 2.5 C-4.327 1.804 -4.327 1.804 -3.066 1.094 C-1 0 -1 0 0 0 Z " fill="#FFFFFF" transform="translate(277,172)"/>
<path d="M0 0 C-0.33 0.99 -0.66 1.98 -1 3 C-7.4 4.231 -7.4 4.231 -10.438 3.062 C-10.953 2.712 -11.469 2.361 -12 2 C-11.67 1.01 -11.34 0.02 -11 -1 C-7.211 -2.895 -3.806 -1.244 0 0 Z " fill="#FFFFFF" transform="translate(291,163)"/>
<path d="M0 0 C0.66 0 1.32 0 2 0 C1.988 0.883 1.977 1.766 1.965 2.676 C1.908 10.186 2.147 17.538 3 25 C1 24 1 24 0.367 22.32 C-1.272 15.008 -2.126 7.296 0 0 Z " fill="#000000" transform="translate(180,27)"/>
<path d="M0 0 C0.99 0.33 1.98 0.66 3 1 C2.484 1.557 1.969 2.114 1.438 2.688 C-0.22 4.9 -0.22 4.9 0 7.5 C1.299 10.748 3.164 12.037 6 14 C1.599 13.497 -0.712 11.912 -4 9 C-3.385 3.462 -3.385 3.462 -1.438 1.125 C-0.963 0.754 -0.489 0.382 0 0 Z " fill="#FFFFFF" transform="translate(269,185)"/>
<path d="M0 0 C1.414 2.45 2.032 4.226 2.438 7.062 C3.029 10.153 3.576 11.103 6 13 C5.01 13.33 4.02 13.66 3 14 C-0.171 12.037 -1.742 10.875 -2.812 7.25 C-2.874 6.507 -2.936 5.765 -3 5 C-2.01 4.67 -1.02 4.34 0 4 C0 2.68 0 1.36 0 0 Z " fill="#1F1F1F" transform="translate(267,223)"/>
<path d="M0 0 C3.3 0 6.6 0 10 0 C10.33 0.99 10.66 1.98 11 3 C8.475 4.262 6.688 4.099 3.875 4.062 C2.965 4.053 2.055 4.044 1.117 4.035 C0.419 4.024 -0.28 4.012 -1 4 C-0.67 2.68 -0.34 1.36 0 0 Z " fill="#000000" transform="translate(281,185)"/>
<path d="M0 0 C0.33 0.66 0.66 1.32 1 2 C-2.814 3.795 -5.786 4.375 -10 4 C-10.66 3.34 -11.32 2.68 -12 2 C-7.582 -0.63 -5.001 -1.512 0 0 Z " fill="#FFFFFF" transform="translate(350,204)"/>
<path d="M0 0 C3.231 0.557 5.066 1.292 7 4 C7.438 6.438 7.438 6.438 7 9 C5 11.312 5 11.312 3 13 C2.01 12.67 1.02 12.34 0 12 C0.516 11.629 1.031 11.257 1.562 10.875 C3.329 8.995 3.329 8.995 2.812 6 C2.13 2.851 2.13 2.851 0 0 Z " fill="#FFFFFF" transform="translate(297,185)"/>
<path d="M0 0 C-0.188 2.312 -0.188 2.312 -1 5 C-3.375 6.875 -3.375 6.875 -6 8 C-6.99 7.67 -7.98 7.34 -9 7 C-6.826 2.87 -4.979 0 0 0 Z " fill="#FFFFFF" transform="translate(357,219)"/>
<path d="M0 0 C1 2 1 2 0.566 3.672 C-0.217 6.891 -0.093 9.942 -0.062 13.25 C-0.053 14.513 -0.044 15.777 -0.035 17.078 C-0.024 18.042 -0.012 19.007 0 20 C-0.99 19.34 -1.98 18.68 -3 18 C-3.989 11.521 -3.665 5.497 0 0 Z " fill="#000000" transform="translate(100,303)"/>
<path d="M0 0 C0.66 0 1.32 0 2 0 C3.298 2.372 4.588 4.747 5.875 7.125 C6.24 7.79 6.605 8.455 6.98 9.141 C9.07 13.015 10.744 16.757 12 21 C11.34 21 10.68 21 10 21 C8.327 17.879 6.662 14.752 5 11.625 C4.523 10.736 4.046 9.846 3.555 8.93 C3.104 8.079 2.652 7.228 2.188 6.352 C1.769 5.566 1.35 4.781 0.918 3.971 C0 2 0 2 0 0 Z " fill="#000000" transform="translate(186,82)"/>
<path d="M0 0 C1.65 0.33 3.3 0.66 5 1 C5 1.66 5 2.32 5 3 C6.65 3 8.3 3 10 3 C9.67 3.66 9.34 4.32 9 5 C5.37 5 1.74 5 -2 5 C-2 4.34 -2 3.68 -2 3 C-1.34 2.67 -0.68 2.34 0 2 C0 1.34 0 0.68 0 0 Z " fill="#000000" transform="translate(63,283)"/>
<path d="M0 0 C0 0.66 0 1.32 0 2 C-4.316 2.762 -7.744 3.161 -12 2 C-12 1.34 -12 0.68 -12 0 C-7.916 -1.532 -4.205 -0.631 0 0 Z " fill="#FFFFFF" transform="translate(290,195)"/>
<path d="M0 0 C0.99 0.66 1.98 1.32 3 2 C0.166 5.254 -1.686 6.521 -6 7 C-6 6.01 -6 5.02 -6 4 C-4.085 2.34 -2.264 1.132 0 0 Z " fill="#202020" transform="translate(322,227)"/>
<path d="M0 0 C5.614 1.564 10.868 3.164 16 6 C14 7 14 7 10.742 6.004 C9.45 5.531 8.161 5.05 6.875 4.562 C6.216 4.32 5.558 4.077 4.879 3.826 C3.25 3.224 1.625 2.613 0 2 C0 1.34 0 0.68 0 0 Z " fill="#000000" transform="translate(82,248)"/>
<path d="M0 0 C6.4 0.369 6.4 0.369 9.438 3.562 C9.953 4.367 10.469 5.171 11 6 C10.67 6.66 10.34 7.32 10 8 C9.67 7.361 9.34 6.721 9 6.062 C5.977 2.945 3.263 3.28 -1 3 C-0.67 2.01 -0.34 1.02 0 0 Z " fill="#FFFFFF" transform="translate(335,209)"/>
<path d="M0 0 C-0.33 0.99 -0.66 1.98 -1 3 C-3.31 3 -5.62 3 -8 3 C-8.33 2.01 -8.66 1.02 -9 0 C-5.931 -1.534 -3.299 -0.55 0 0 Z " fill="#FFFFFF" transform="translate(71,254)"/>
<path d="M0 0 C5.135 0.642 9.994 1.683 15 3 C15 3.33 15 3.66 15 4 C13.062 3.859 11.125 3.712 9.188 3.562 C8.109 3.481 7.03 3.4 5.918 3.316 C3 3 3 3 0 2 C0 1.34 0 0.68 0 0 Z " fill="#000000" transform="translate(275,227)"/>
<path d="M0 0 C3.63 0.66 7.26 1.32 11 2 C11 3.98 11 5.96 11 8 C9.948 7.072 9.948 7.072 8.875 6.125 C5.942 3.957 3.488 2.973 0 2 C0 1.34 0 0.68 0 0 Z " fill="#000000" transform="translate(168,59)"/>
<path d="M0 0 C0.66 0 1.32 0 2 0 C2.33 1.32 2.66 2.64 3 4 C4.65 4.33 6.3 4.66 8 5 C8 5.33 8 5.66 8 6 C5.25 6.25 5.25 6.25 2 6 C-0.375 4 -0.375 4 -2 2 C-1.34 1.34 -0.68 0.68 0 0 Z " fill="#FFFFFF" transform="translate(57,280)"/>
<path d="M0 0 C0.66 0 1.32 0 2 0 C2 0.99 2 1.98 2 3 C2.949 2.505 3.897 2.01 4.875 1.5 C8 0 8 0 10 0 C10 0.66 10 1.32 10 2 C8.711 2.672 7.419 3.337 6.125 4 C5.406 4.371 4.686 4.743 3.945 5.125 C2 6 2 6 0 6 C0 4.02 0 2.04 0 0 Z " fill="#000000" transform="translate(65,151)"/>
<path d="M0 0 C0 0.66 0 1.32 0 2 C-1.6 2.841 -3.205 3.672 -4.812 4.5 C-6.152 5.196 -6.152 5.196 -7.52 5.906 C-10 7 -10 7 -13 7 C-13 6.34 -13 5.68 -13 5 C-11.21 4.162 -9.418 3.33 -7.625 2.5 C-6.627 2.036 -5.63 1.572 -4.602 1.094 C-2 0 -2 0 0 0 Z " fill="#000000" transform="translate(115,132)"/>
<path d="M0 0 C1.98 0.99 1.98 0.99 4 2 C4 3.98 4 5.96 4 8 C2.68 7.34 1.36 6.68 0 6 C0 4.02 0 2.04 0 0 Z " fill="#FFFFFF" transform="translate(55,115)"/>
<path d="M0 0 C0.33 0 0.66 0 1 0 C1 4.62 1 9.24 1 14 C0.34 13.67 -0.32 13.34 -1 13 C-1.484 10.566 -1.484 10.566 -1.75 7.562 C-1.848 6.574 -1.946 5.585 -2.047 4.566 C-2 2 -2 2 0 0 Z " fill="#000000" transform="translate(94,308)"/>
<path d="M0 0 C0 0.66 0 1.32 0 2 C-1.598 2.866 -3.203 3.718 -4.812 4.562 C-5.706 5.038 -6.599 5.514 -7.52 6.004 C-10 7 -10 7 -13 6 C-9.405 2.98 -4.814 0 0 0 Z " fill="#000000" transform="translate(105,219)"/>
<path d="M0 0 C3.96 0 7.92 0 12 0 C11.67 0.99 11.34 1.98 11 3 C7.7 3 4.4 3 1 3 C0.67 2.01 0.34 1.02 0 0 Z " fill="#FFFFFF" transform="translate(279,167)"/>
<path d="M0 0 C0 0.66 0 1.32 0 2 C-0.66 2 -1.32 2 -2 2 C-2 4.31 -2 6.62 -2 9 C-4.5 6.826 -5.436 5.27 -6 2 C-2.25 0 -2.25 0 0 0 Z " fill="#FFFFFF" transform="translate(184,61)"/>
<path d="M0 0 C0.99 0.33 1.98 0.66 3 1 C2.67 2.32 2.34 3.64 2 5 C-0.64 5.33 -3.28 5.66 -6 6 C-5.196 5.381 -4.391 4.762 -3.562 4.125 C-0.961 2.258 -0.961 2.258 0 0 Z " fill="#FFFFFF" transform="translate(74,280)"/>
<path d="M0 0 C2.954 1.372 5.44 2.989 8 5 C7.67 5.99 7.34 6.98 7 8 C6.01 8 5.02 8 4 8 C2.667 5.333 1.333 2.667 0 0 Z " fill="#151515" transform="translate(268,230)"/>
<path d="M0 0 C3.96 0 7.92 0 12 0 C11.01 1.485 11.01 1.485 10 3 C7.836 3.293 7.836 3.293 5.375 3.188 C4.558 3.16 3.74 3.133 2.898 3.105 C2.272 3.071 1.645 3.036 1 3 C0.67 2.01 0.34 1.02 0 0 Z " fill="#FFFFFF" transform="translate(279,171)"/>
<path d="M0 0 C0.25 2.812 0.25 2.812 0 6 C-2 7.875 -2 7.875 -4 9 C-4.368 3.48 -4.368 3.48 -2.562 1.125 C-1 0 -1 0 0 0 Z " fill="#FFFFFF" transform="translate(77,114)"/>
<path d="M0 0 C-1 3 -1 3 -2.996 4.168 C-3.802 4.504 -4.607 4.841 -5.438 5.188 C-6.241 5.532 -7.044 5.876 -7.871 6.23 C-10 7 -10 7 -12 7 C-12 6.34 -12 5.68 -12 5 C-10.378 4.162 -8.752 3.33 -7.125 2.5 C-6.22 2.036 -5.315 1.572 -4.383 1.094 C-2 0 -2 0 0 0 Z " fill="#000000" transform="translate(125,209)"/>
<path d="M0 0 C0.66 0.33 1.32 0.66 2 1 C1.67 3.31 1.34 5.62 1 8 C1.99 8.33 2.98 8.66 4 9 C3.01 9.495 3.01 9.495 2 10 C0 8.812 0 8.812 -2 7 C-2.375 4.438 -2.375 4.438 -2 2 C-1.34 1.34 -0.68 0.68 0 0 Z " fill="#FFFFFF" transform="translate(127,145)"/>
<path d="M0 0 C0.33 0 0.66 0 1 0 C1.054 1.458 1.093 2.916 1.125 4.375 C1.148 5.187 1.171 5.999 1.195 6.836 C1 9 1 9 -1 11 C-3.125 10.625 -3.125 10.625 -5 10 C-4.01 9.67 -3.02 9.34 -2 9 C-1.194 6.894 -1.194 6.894 -0.812 4.438 C-0.654 3.611 -0.495 2.785 -0.332 1.934 C-0.222 1.296 -0.113 0.657 0 0 Z " fill="#FFFFFF" transform="translate(346,217)"/>
<path d="M0 0 C1.052 0.186 2.104 0.371 3.188 0.562 C6.571 0.951 8.764 0.882 12 0 C11.67 0.99 11.34 1.98 11 3 C7.7 3 4.4 3 1 3 C0.67 2.01 0.34 1.02 0 0 Z " fill="#FFFFFF" transform="translate(279,182)"/>
<path d="M0 0 C0.99 0.33 1.98 0.66 3 1 C3 2.32 3 3.64 3 5 C2.01 5.33 1.02 5.66 0 6 C-0.66 4.68 -1.32 3.36 -2 2 C-1.34 1.34 -0.68 0.68 0 0 Z " fill="#FFFFFF" transform="translate(407,364)"/>
<path d="M0 0 C0 0.99 0 1.98 0 3 C-2.64 3 -5.28 3 -8 3 C-5.534 -0.115 -3.892 -0.316 0 0 Z " fill="#FFFFFF" transform="translate(73,211)"/>
<path d="M0 0 C0 0.66 0 1.32 0 2 C-1.98 2.33 -3.96 2.66 -6 3 C-6.33 2.01 -6.66 1.02 -7 0 C-4.333 -1.333 -2.833 -0.671 0 0 Z " fill="#FFFFFF" transform="translate(364,196)"/>
<path d="M0 0 C1.98 0.495 1.98 0.495 4 1 C3.67 2.32 3.34 3.64 3 5 C1.68 4.67 0.36 4.34 -1 4 C-0.67 2.68 -0.34 1.36 0 0 Z " fill="#FFFFFF" transform="translate(438,369)"/>
<path d="M0 0 C-0.25 1.875 -0.25 1.875 -1 4 C-3.062 5.25 -3.062 5.25 -5 6 C-4.625 3.562 -4.625 3.562 -4 1 C-2 0 -2 0 0 0 Z " fill="#FFFFFF" transform="translate(372,212)"/>
<path d="M0 0 C0.99 0.33 1.98 0.66 3 1 C2.67 1.66 2.34 2.32 2 3 C1.34 3 0.68 3 0 3 C-0.33 3.99 -0.66 4.98 -1 6 C-2.32 6.33 -3.64 6.66 -5 7 C-3.35 4.69 -1.7 2.38 0 0 Z " fill="#FFFFFF" transform="translate(221,164)"/>
<path d="M0 0 C0.99 0.33 1.98 0.66 3 1 C3.33 3.97 3.66 6.94 4 10 C3.01 10.495 3.01 10.495 2 11 C1.34 7.37 0.68 3.74 0 0 Z " fill="#000000" transform="translate(238,59)"/>
<path d="M0 0 C2.12 3.534 2.532 6.944 3 11 C2.01 10.67 1.02 10.34 0 10 C-0.749 6.337 -1.238 3.576 0 0 Z " fill="#FFFFFF" transform="translate(267,223)"/>
<path d="M0 0 C0.99 0.33 1.98 0.66 3 1 C3 2.32 3 3.64 3 5 C1.68 4.67 0.36 4.34 -1 4 C-1 1 -1 1 0 0 Z " fill="#FFFFFF" transform="translate(428,369)"/>
<path d="M0 0 C0 0.66 0 1.32 0 2 C-1.961 3.389 -3.962 4.726 -6 6 C-6.66 5.67 -7.32 5.34 -8 5 C-2.25 0 -2.25 0 0 0 Z " fill="#000000" transform="translate(95,264)"/>
<path d="M0 0 C0.33 0.99 0.66 1.98 1 3 C-0.65 4.65 -2.3 6.3 -4 8 C-4.66 7.67 -5.32 7.34 -6 7 C-4.02 4.69 -2.04 2.38 0 0 Z " fill="#000000" transform="translate(305,229)"/>
<path d="M0 0 C0.66 0 1.32 0 2 0 C2.33 1.98 2.66 3.96 3 6 C1.68 5.34 0.36 4.68 -1 4 C-0.67 2.68 -0.34 1.36 0 0 Z " fill="#FFFFFF" transform="translate(130,147)"/>
</svg>
