<?xml version="1.0" encoding="UTF-8"?>
<!-- Generator: visioncortex VTracer 0.6.4 -->
<svg version="1.1" xmlns="http://www.w3.org/2000/svg" width="383" height="324">
<path d="M0 0 C126.39 0 252.78 0 383 0 C383 106.92 383 213.84 383 324 C256.61 324 130.22 324 0 324 C0 217.08 0 110.16 0 0 Z " fill="#0A0A0A" transform="translate(0,0)"/>
<path d="M0 0 C126.39 0 252.78 0 383 0 C383 106.92 383 213.84 383 324 C256.61 324 130.22 324 0 324 C0 217.08 0 110.16 0 0 Z M216 10 C213.546 10.188 211.11 10.328 208.652 10.43 C207.103 10.502 205.554 10.574 204.005 10.646 C203.182 10.683 202.358 10.72 201.51 10.758 C171.082 12.142 140.699 14.053 110.454 17.73 C99.019 19.106 99.019 19.106 93.727 19.02 C89.627 18.998 87.457 19.873 84 22 C83.505 20.515 83.505 20.515 83 19 C81.68 19.33 80.36 19.66 79 20 C79 20.99 79 21.98 79 23 C78.32 23.036 77.64 23.072 76.94 23.109 C68.109 23.698 59.578 25.299 50.938 27.125 C50.205 27.278 49.472 27.431 48.718 27.589 C38.282 29.772 27.898 32.131 17.562 34.75 C15.868 35.172 15.868 35.172 14.138 35.602 C13.104 35.873 12.07 36.143 11.004 36.422 C10.105 36.655 9.206 36.888 8.28 37.128 C5.859 38.054 4.66 39.041 3 41 C8.63 39.792 14.191 38.443 19.75 36.945 C36.648 32.396 53.734 28.745 71.001 25.9 C74.61 25.314 74.61 25.314 78 24 C78 24.99 78 25.98 78 27 C77.178 27.026 76.355 27.052 75.508 27.078 C67.925 27.463 61.838 28.681 55 32 C55 33.65 55 35.3 55 37 C71.05 44.766 98.093 40.389 114.566 35.098 C116.968 34.014 118.312 32.995 120 31 C119.338 27.91 119.338 27.91 117.062 26.875 C109.878 24.822 102.419 24.88 95 25 C95 24.01 95 23.02 95 22 C124.556 18.547 154.04 16.07 183.753 14.465 C195.184 13.841 206.592 12.964 218 12 C218 12.66 218 13.32 218 14 C217.178 14.026 216.355 14.052 215.508 14.078 C207.69 14.467 207.69 14.467 200.375 17 C195.565 19.171 191.194 19.394 186 19.562 C158.79 20.472 132.841 28.188 110 43 C109.153 43.539 109.153 43.539 108.289 44.09 C99.283 49.861 91.657 56.583 84 64 C83.31 64.65 82.621 65.299 81.91 65.969 C73.413 74.138 64.762 84.47 60.674 95.615 C59.598 97.478 59.598 97.478 58 99 C53.884 100.082 49.813 99.953 45.578 99.902 C44.363 99.915 43.148 99.927 41.896 99.94 C38.013 99.971 34.133 99.955 30.25 99.938 C27.618 99.951 24.987 99.967 22.355 99.986 C15.903 100.027 9.452 100.029 3 100 C3 100.99 3 101.98 3 103 C20.49 103 37.98 103 56 103 C53.525 108.445 53.525 108.445 51 114 C51 114.66 51 115.32 51 116 C35.16 116 19.32 116 3 116 C3 116.33 3 116.66 3 117 C18.51 117 34.02 117 50 117 C50 117.66 50 118.32 50 119 C34.49 119 18.98 119 3 119 C3 120.98 3 122.96 3 125 C4.65 125 6.3 125 8 125 C7.67 128.96 7.34 132.92 7 137 C5.68 137.33 4.36 137.66 3 138 C3 138.66 3 139.32 3 140 C16.2 140 29.4 140 43 140 C43 140.66 43 141.32 43 142 C29.8 142 16.6 142 3 142 C3 142.33 3 142.66 3 143 C16.2 143 29.4 143 43 143 C42.67 143.66 42.34 144.32 42 145 C42 147.97 42 150.94 42 154 C29.13 154 16.26 154 3 154 C3 154.33 3 154.66 3 155 C15.54 155 28.08 155 41 155 C39 157 39 157 35.468 157.227 C33.955 157.227 32.442 157.215 30.93 157.195 C30.133 157.192 29.337 157.19 28.517 157.187 C25.969 157.176 23.422 157.15 20.875 157.125 C19.15 157.115 17.424 157.106 15.699 157.098 C11.466 157.076 7.233 157.041 3 157 C3 157.66 3 158.32 3 159 C15.54 159 28.08 159 41 159 C41 164.61 41 170.22 41 176 C28.46 176 15.92 176 3 176 C3 176.66 3 177.32 3 178 C15.54 178 28.08 178 41 178 C41 180.64 41 183.28 41 186 C41.33 186.66 41.66 187.32 42 188 C29.13 188 16.26 188 3 188 C3 190.64 3 193.28 3 196 C3.33 196 3.66 196 4 196 C4.33 193.69 4.66 191.38 5 189 C17.21 189 29.42 189 42 189 C42.495 194.445 42.495 194.445 43 200 C29.8 200 16.6 200 3 200 C3.33 200.66 3.66 201.32 4 202 C17.2 202.33 30.4 202.66 44 203 C44.33 203.99 44.66 204.98 45 206 C31.14 206 17.28 206 3 206 C3 206.99 3 207.98 3 209 C17.19 209 31.38 209 46 209 C46.66 211.97 47.32 214.94 48 218 C48.983 221.213 50.194 224.317 51.438 227.438 C51.779 228.294 52.12 229.151 52.472 230.034 C56.029 238.609 60.678 246.401 65.775 254.14 C66.58 255.363 67.371 256.595 68.146 257.837 C69.046 259.259 70.016 260.635 71 262 C71.66 262 72.32 262 73 262 C73.245 262.562 73.49 263.124 73.742 263.703 C76.314 268.399 80.361 272.114 84 276 C84.632 276.686 85.263 277.372 85.914 278.078 C111.881 305.261 150.849 319.91 187.883 320.93 C208.9 321.294 229.707 317.436 249 309 C249.681 308.713 250.362 308.426 251.063 308.13 C269.97 300.106 288.571 287.684 302 272 C302 271.34 302 270.68 302 270 C302.66 270 303.32 270 304 270 C305.769 268.062 307.391 266.128 309 264.062 C309.485 263.441 309.971 262.82 310.471 262.181 C318.217 252.025 324.728 240.628 330 229 C330.333 228.277 330.665 227.554 331.008 226.809 C333.399 221.244 335.1 215.505 336.75 209.688 C337.085 208.522 337.085 208.522 337.426 207.332 C337.631 206.587 337.836 205.842 338.047 205.074 C338.231 204.41 338.415 203.746 338.604 203.061 C339.157 200.531 339.157 200.531 339 196 C342.63 196 346.26 196 350 196 C350 215.47 350 234.94 350 255 C350.33 255 350.66 255 351 255 C351 223.32 351 191.64 351 159 C351.66 158.67 352.32 158.34 353 158 C351.94 156.714 351.94 156.714 349.496 156.902 C348.487 156.914 347.477 156.926 346.438 156.938 C345.426 156.947 344.414 156.956 343.371 156.965 C342.589 156.976 341.806 156.988 341 157 C341 156.34 341 155.68 341 155 C353.87 155 366.74 155 380 155 C380 154.67 380 154.34 380 154 C367.13 154 354.26 154 341 154 C341 152.68 341 151.36 341 150 C353.87 149.67 366.74 149.34 380 149 C380 148.01 380 147.02 380 146 C366.47 146 352.94 146 339 146 C339 139 339 139 340.25 137 C342 136 342 136 344.188 136.312 C344.786 136.539 345.384 136.766 346 137 C346 136.01 346 135.02 346 134 C344.68 133.67 343.36 133.34 342 133 C342.052 132.112 342.052 132.112 342.105 131.207 C342.273 126.303 342.33 122.904 339 119 C336.038 116.852 334.686 116 331 116 C331 113.69 331 111.38 331 109 C347.17 108.67 363.34 108.34 380 108 C380 107.01 380 106.02 380 105 C362.18 105 344.36 105 326 105 C326 104.34 326 103.68 326 103 C343.82 103 361.64 103 380 103 C380 102.01 380 101.02 380 100 C378.974 100.028 378.974 100.028 377.928 100.056 C370.789 100.236 363.654 100.317 356.514 100.342 C353.849 100.356 351.194 100.411 348.529 100.483 C327.002 101.047 327.002 101.047 322.097 97.702 C318.809 94 317.544 89.626 316 85 C314.338 82.358 314.338 82.358 312.445 80.133 C311.894 79.456 311.342 78.779 310.773 78.082 C310.229 77.436 309.685 76.79 309.125 76.125 C308.274 75.075 308.274 75.075 307.406 74.004 C305.297 71.415 305.297 71.415 303 69 C302.34 69 301.68 69 301 69 C300.746 68.424 300.492 67.848 300.23 67.254 C290.424 49.291 263.468 37.166 245.508 29.531 C242 28 242 28 241 27 C242.132 26.746 243.264 26.492 244.43 26.23 C245.912 25.883 247.393 25.536 248.875 25.188 C249.995 24.939 249.995 24.939 251.137 24.686 C255.889 23.632 255.889 23.632 259 20 C258.464 20.227 257.928 20.454 257.375 20.688 C255 21 255 21 252.562 19.688 C247.276 17.183 241.765 16.727 236 16 C236 15.34 236 14.68 236 14 C236.99 14.33 237.98 14.66 239 15 C240.334 15.144 241.672 15.246 243.012 15.316 C243.769 15.358 244.526 15.4 245.307 15.443 C246.485 15.502 246.485 15.502 247.688 15.562 C248.883 15.627 248.883 15.627 250.104 15.693 C252.069 15.799 254.034 15.9 256 16 C252.184 13.53 248.153 13.562 243.75 13.375 C243.005 13.336 242.26 13.298 241.492 13.258 C239.662 13.164 237.831 13.081 236 13 C236 12.34 236 11.68 236 11 C236.944 11.005 237.887 11.01 238.859 11.016 C270.582 11.174 302.284 10.638 334 10 C334 9.67 334 9.34 334 9 C301 9 268 9 234 9 C234 13.62 234 18.24 234 23 C233.01 23 232.02 23 231 23 C231.33 18.38 231.66 13.76 232 9 C229.03 9 226.06 9 223 9 C223.33 13.62 223.66 18.24 224 23 C223.01 23 222.02 23 221 23 C221.33 18.38 221.66 13.76 222 9 C218.947 8.842 218.947 8.842 216 10 Z " fill="#FEFEFE" transform="translate(0,0)"/>
<path d="M0 0 C5.936 5.252 10.646 10.957 15.078 17.52 C19.281 22.944 23.952 24.919 30.281 27.07 C37.794 32.402 40.207 44.577 43.188 52.875 C44.054 55.269 44.922 57.662 45.793 60.055 C46.358 61.625 46.358 61.625 46.934 63.226 C47.921 65.944 47.921 65.944 49.13 68.2 C50.26 70.538 50.142 72.438 50 75 C49.296 74.928 48.592 74.856 47.867 74.781 C32.594 72.779 32.594 72.779 18 76 C16.722 78.813 16.722 78.813 16 82 C10.454 92.651 2.187 101.633 -8 108 C-8.66 108 -9.32 108 -10 108 C-12.967 116.66 -15.502 125.433 -18.039 134.227 C-19.727 139.999 -21.458 145.547 -24 151 C-24.495 152.155 -24.99 153.31 -25.5 154.5 C-25.995 155.655 -26.49 156.81 -27 158 C-27.189 158.647 -27.379 159.294 -27.574 159.961 C-28.188 161.875 -28.188 161.875 -30 165 C-33.004 165.777 -34.982 166.026 -38 166 C-38.717 166.024 -39.433 166.049 -40.172 166.074 C-54.205 166.398 -54.205 166.398 -59 164 C-59.457 162.25 -59.457 162.25 -59.812 160 C-60.485 156.577 -61.381 154.167 -63.293 151.266 C-67.646 143.689 -69.064 134.838 -71.052 126.409 C-71.593 124.139 -72.155 121.874 -72.719 119.609 C-72.874 118.92 -73.029 118.23 -73.19 117.519 C-74.75 111.31 -78.298 107.935 -83.5 104.5 C-86.685 102.291 -89.409 99.905 -92 97 C-92 96.34 -92 95.68 -92 95 C-92.99 94.67 -93.98 94.34 -95 94 C-96.611 91.797 -98.07 89.627 -99.5 87.312 C-100.086 86.393 -100.086 86.393 -100.684 85.455 C-107 75.428 -107 75.428 -107 72 C-114.066 70.955 -120.476 71.182 -127.562 71.938 C-128.571 72.037 -129.58 72.137 -130.619 72.24 C-133.08 72.485 -135.54 72.739 -138 73 C-135.774 64.867 -132.851 57.021 -129.812 49.166 C-128.993 47.045 -128.188 44.92 -127.383 42.795 C-126.86 41.437 -126.337 40.08 -125.812 38.723 C-125.345 37.503 -124.877 36.284 -124.395 35.028 C-121.874 29.555 -119.008 28.385 -113.438 26.312 C-112.281 25.876 -111.125 25.439 -109.934 24.988 C-107 24 -107 24 -105 24 C-104.723 23.425 -104.446 22.85 -104.16 22.258 C-95.64 5.677 -81.706 -6.616 -64.258 -13.004 C-41.723 -20.093 -18.051 -15.033 0 0 Z " fill="#F2F2F2" transform="translate(235,119)"/>
<path d="M0 0 C0.719 0.49 1.439 0.98 2.18 1.484 C3.822 2.606 5.417 3.796 7 5 C7 5.66 7 6.32 7 7 C7.584 7.261 8.167 7.522 8.768 7.792 C12.718 9.93 15.644 13.234 18.812 16.375 C19.518 17.048 20.224 17.721 20.951 18.414 C21.613 19.069 22.275 19.724 22.957 20.398 C23.565 20.993 24.173 21.588 24.8 22.201 C26 24 26 24 25.795 26.1 C24.731 28.643 23.178 30.161 21.25 32.125 C17.057 36.658 14.447 41.364 12 47 C8.732 43.837 5.695 40.538 2.688 37.125 C-1.276 32.702 -5.386 28.734 -10 25 C-10.901 24.267 -10.901 24.267 -11.82 23.52 C-26.539 12.034 -42.928 4.445 -61 0 C-61.801 -0.214 -62.601 -0.428 -63.426 -0.648 C-93.21 -7.747 -126.757 -0.645 -152.578 15.172 C-153.846 15.965 -155.112 16.762 -156.375 17.562 C-156.971 17.939 -157.566 18.315 -158.18 18.702 C-161.509 20.86 -164.215 23.196 -167 26 C-167.66 26 -168.32 26 -169 26 C-169 26.66 -169 27.32 -169 28 C-170.68 29.621 -170.68 29.621 -172.875 31.438 C-175.462 33.584 -177.112 35.168 -179 38 C-179.66 38 -180.32 38 -181 38 C-181.227 38.557 -181.454 39.114 -181.688 39.688 C-183.356 42.628 -185.588 44.65 -188 47 C-189.149 44.897 -190.294 42.793 -191.438 40.688 C-191.763 40.093 -192.088 39.498 -192.424 38.885 C-193.837 36.276 -195.059 33.822 -196 31 C-196.66 31 -197.32 31 -198 31 C-199.714 29.041 -201.384 27.041 -203 25 C-202.34 25 -201.68 25 -201 25 C-200.773 24.464 -200.546 23.928 -200.312 23.375 C-197.241 17.817 -192.861 13.827 -188.07 9.77 C-186.788 8.673 -185.527 7.55 -184.305 6.387 C-134.339 -40.554 -53.474 -38.791 0 0 Z " fill="#FFFFFF" transform="translate(279,51)"/>
<path d="M0 0 C5.936 5.252 10.646 10.957 15.078 17.52 C19.281 22.944 23.952 24.919 30.281 27.07 C37.794 32.402 40.207 44.577 43.188 52.875 C44.054 55.269 44.922 57.662 45.793 60.055 C46.358 61.625 46.358 61.625 46.934 63.226 C47.921 65.944 47.921 65.944 49.13 68.2 C50.26 70.538 50.142 72.438 50 75 C49.296 74.928 48.592 74.856 47.867 74.781 C32.594 72.779 32.594 72.779 18 76 C16.722 78.813 16.722 78.813 16 82 C10.454 92.651 2.187 101.633 -8 108 C-8.66 108 -9.32 108 -10 108 C-12.967 116.66 -15.502 125.433 -18.039 134.227 C-19.727 139.999 -21.458 145.547 -24 151 C-24.495 152.155 -24.99 153.31 -25.5 154.5 C-25.995 155.655 -26.49 156.81 -27 158 C-27.189 158.647 -27.379 159.294 -27.574 159.961 C-28.188 161.875 -28.188 161.875 -30 165 C-33.004 165.777 -34.982 166.026 -38 166 C-38.717 166.024 -39.433 166.049 -40.172 166.074 C-54.205 166.398 -54.205 166.398 -59 164 C-59.457 162.25 -59.457 162.25 -59.812 160 C-60.485 156.577 -61.381 154.167 -63.293 151.266 C-67.646 143.689 -69.064 134.838 -71.052 126.409 C-71.593 124.139 -72.155 121.874 -72.719 119.609 C-72.874 118.92 -73.029 118.23 -73.19 117.519 C-74.75 111.31 -78.298 107.935 -83.5 104.5 C-86.685 102.291 -89.409 99.905 -92 97 C-92 96.34 -92 95.68 -92 95 C-92.99 94.67 -93.98 94.34 -95 94 C-96.611 91.797 -98.07 89.627 -99.5 87.312 C-100.086 86.393 -100.086 86.393 -100.684 85.455 C-107 75.428 -107 75.428 -107 72 C-114.066 70.955 -120.476 71.182 -127.562 71.938 C-128.571 72.037 -129.58 72.137 -130.619 72.24 C-133.08 72.485 -135.54 72.739 -138 73 C-135.774 64.867 -132.851 57.021 -129.812 49.166 C-128.993 47.045 -128.188 44.92 -127.383 42.795 C-126.86 41.437 -126.337 40.08 -125.812 38.723 C-125.345 37.503 -124.877 36.284 -124.395 35.028 C-121.874 29.555 -119.008 28.385 -113.438 26.312 C-112.281 25.876 -111.125 25.439 -109.934 24.988 C-107 24 -107 24 -105 24 C-104.723 23.425 -104.446 22.85 -104.16 22.258 C-95.64 5.677 -81.706 -6.616 -64.258 -13.004 C-41.723 -20.093 -18.051 -15.033 0 0 Z M-91.965 10.152 C-103.657 24.3 -107.565 41.006 -106 59 C-103.579 74.423 -95.584 90.911 -82.863 100.32 C-70.357 108.842 -58.843 113.178 -43.688 113.188 C-42.68 113.2 -41.673 113.212 -40.635 113.225 C-32.264 113.241 -25.566 111.85 -17.812 108.562 C-16.829 108.151 -15.845 107.74 -14.832 107.316 C-12.073 106.034 -9.511 104.721 -7 103 C-7 102.34 -7 101.68 -7 101 C-6.278 100.773 -5.556 100.546 -4.812 100.312 C-1.436 98.737 0.558 96.791 3 94 C3 93.34 3 92.68 3 92 C3.99 91.67 4.98 91.34 6 91 C18.296 75.208 21.728 57.791 19.5 38.188 C17.549 27.632 11.558 17.38 5 9 C4.34 9 3.68 9 3 9 C2.794 8.443 2.588 7.886 2.375 7.312 C0.423 4.03 -1.942 2.293 -5 0 C-5.66 0 -6.32 0 -7 0 C-7 -0.66 -7 -1.32 -7 -2 C-36.796 -17.877 -68.223 -15.855 -91.965 10.152 Z " fill="#FFFFFF" transform="translate(235,119)"/>
<path d="M0 0 C6.484 2.947 11.11 9.406 13.938 15.812 C15.626 21.069 15.692 26.558 15 32 C12.536 36.633 8.285 39.116 4 42 C5.98 41.505 5.98 41.505 8 41 C8 41.66 8 42.32 8 43 C6.864 44.136 5.724 45.269 4.57 46.387 C-0.432 51.526 -4.923 56.729 -6 64 C-5.821 67.526 -5.376 70.159 -3.938 73.375 C-1.002 75.837 2.292 75.903 6 76 C8.745 75.66 11.34 75 14 74.25 C14.699 74.065 15.398 73.879 16.119 73.688 C20.878 72.398 25.412 70.784 30 69 C31.99 68.609 33.988 68.251 36 68 C36.33 68.99 36.66 69.98 37 71 C35.733 73.043 34.401 75.047 33 77 C33 77.33 33 77.66 33 78 C32.6 79.283 32.18 80.559 31.75 81.832 C31.475 82.646 31.201 83.46 30.918 84.299 C30.615 85.191 30.312 86.082 30 87 C29.687 87.923 29.374 88.847 29.051 89.798 C28.041 92.764 27.021 95.726 26 98.688 C25.657 99.694 25.314 100.7 24.961 101.736 C24.005 104.503 23.011 107.253 22 110 C21.578 111.179 21.157 112.359 20.723 113.574 C18.281 117.013 15.379 117.416 11.438 118.125 C6.388 118.877 6.388 118.877 2.52 121.879 C1.352 126.645 2.656 131.148 4.438 135.562 C5 139 5 139 3.934 140.887 C-0.108 145.718 -4.973 150.293 -11.359 151.414 C-12.543 151.518 -12.543 151.518 -13.75 151.625 C-14.949 151.737 -14.949 151.737 -16.172 151.852 C-16.775 151.901 -17.378 151.95 -18 152 C-22.411 142.458 -25.57 133.249 -28 123 C-28.215 122.132 -28.431 121.265 -28.652 120.371 C-30.914 110.879 -31.182 101.467 -31.188 91.75 C-31.2 90.612 -31.212 89.474 -31.225 88.301 C-31.278 56.717 -19.486 24.738 0 0 Z " fill="#F1F1F1" transform="translate(74,79)"/>
<path d="M0 0 C20.022 18.916 31.098 54.057 32.109 80.903 C32.71 105.705 29.81 128.997 20 152 C12 152.154 12 152.154 9 151 C8.67 150.34 8.34 149.68 8 149 C7.278 148.752 6.556 148.505 5.812 148.25 C2.024 146.566 -0.779 144.553 -3 141 C-2.875 137.375 -2.875 137.375 -2.434 135.367 C-1.569 130.647 -1.928 125.783 -2 121 C-3.06 120.746 -4.119 120.492 -5.211 120.23 C-6.599 119.883 -7.987 119.536 -9.375 119.188 C-10.074 119.022 -10.772 118.856 -11.492 118.686 C-16.773 117.34 -16.773 117.34 -19 114 C-10.757 113.737 -3.088 114.394 5 116 C2.652 114.826 0.897 114.72 -1.719 114.5 C-2.651 114.418 -3.583 114.335 -4.543 114.25 C-5.519 114.168 -6.495 114.085 -7.5 114 C-9.427 113.837 -11.355 113.671 -13.281 113.5 C-14.138 113.428 -14.994 113.356 -15.877 113.281 C-18 113 -18 113 -20 112 C-20.845 110.163 -21.601 108.284 -22.312 106.391 C-22.966 104.67 -22.966 104.67 -23.633 102.914 C-24.31 101.1 -24.31 101.1 -25 99.25 C-25.896 96.88 -26.792 94.51 -27.688 92.141 C-28.083 91.084 -28.479 90.027 -28.887 88.938 C-29.606 87.039 -30.377 85.158 -31.207 83.304 C-32 81 -32 81 -31 78 C-26.71 79.98 -22.42 81.96 -18 84 C-19.048 83.481 -20.096 82.961 -21.176 82.426 C-22.555 81.722 -23.934 81.018 -25.312 80.312 C-26.003 79.973 -26.693 79.633 -27.404 79.283 C-31.509 77.161 -34.221 75.495 -36 71 C-35.67 70.01 -35.34 69.02 -35 68 C-27.964 69.621 -21.205 71.513 -14.473 74.133 C-8.411 76.259 -2.304 76.844 3.938 75.25 C6.093 74.2 6.093 74.2 6.812 72.312 C6.905 71.168 6.905 71.168 7 70 C7.155 68.422 7.155 68.422 7.312 66.812 C6.678 59.071 2.999 53.693 -2 48 C-2 47.34 -2 46.68 -2 46 C-2.99 45.67 -3.98 45.34 -5 45 C-5 44.34 -5 43.68 -5 43 C-5.66 43 -6.32 43 -7 43 C-6.67 42.34 -6.34 41.68 -6 41 C-5.67 41 -5.34 41 -5 41 C-5.505 40.59 -6.011 40.18 -6.531 39.758 C-7.181 39.219 -7.831 38.68 -8.5 38.125 C-9.15 37.591 -9.799 37.058 -10.469 36.508 C-10.974 36.01 -11.479 35.513 -12 35 C-12 34.34 -12 33.68 -12 33 C-12.66 33 -13.32 33 -14 33 C-15.016 22.245 -13.37 14.818 -7 6 C-4.768 3.634 -2.66 1.9 0 0 Z " fill="#F4F4F4" transform="translate(307,79)"/>
<path d="M0 0 C0.73 0.001 1.459 0.003 2.211 0.004 C4.544 0.01 6.878 0.022 9.211 0.035 C10.792 0.04 12.372 0.045 13.953 0.049 C17.831 0.06 21.708 0.077 25.586 0.098 C26.137 1.064 26.687 2.03 27.255 3.026 C27.984 4.304 28.712 5.582 29.441 6.859 C29.804 7.495 30.166 8.131 30.539 8.786 C35.986 18.329 42.083 26.346 52.242 31.426 C58.706 36.037 59.511 47.135 61.273 54.348 C61.594 55.626 61.914 56.905 62.244 58.223 C64.586 67.69 64.586 67.69 64.586 71.098 C63.604 72.115 62.602 73.114 61.586 74.098 C60.653 75.906 60.653 75.906 59.98 77.891 C59.589 78.959 59.589 78.959 59.189 80.049 C58.798 81.156 58.798 81.156 58.398 82.285 C58.126 83.035 57.853 83.784 57.572 84.557 C56.903 86.401 56.243 88.249 55.586 90.098 C37.954 84.99 23.6 76.869 9.586 65.098 C8.7 64.405 7.815 63.713 6.902 63 C3.339 60.074 0.534 56.627 -2.414 53.098 C-3.056 52.344 -3.698 51.589 -4.359 50.812 C-9.756 44.305 -14.122 37.359 -18.414 30.098 C-18.95 29.266 -19.487 28.435 -20.039 27.578 C-23.511 21.315 -25.189 13.23 -24.414 6.098 C-21.757 3.441 -19.569 3.307 -15.914 2.535 C-3.907 -0.028 -3.907 -0.028 0 0 Z " fill="#FFFFFF" transform="translate(102.4140625,195.90234375)"/>
<path d="M0 0 C1.383 0.038 2.766 0.092 4.149 0.162 C6.244 0.268 8.331 0.305 10.428 0.329 C17.756 0.481 24.153 1.31 30.946 4.081 C32.274 4.472 33.608 4.848 34.946 5.206 C37.946 6.081 37.946 6.081 38.946 7.081 C40.569 20.881 31.633 35.365 23.493 45.975 C17.883 52.946 11.854 60.378 4.946 66.081 C4.286 66.081 3.626 66.081 2.946 66.081 C2.946 66.741 2.946 67.401 2.946 68.081 C0.982 69.732 -0.966 71.228 -3.054 72.706 C-3.681 73.15 -4.307 73.593 -4.953 74.051 C-16.089 81.728 -28.235 86.915 -41.054 91.081 C-42.06 88.479 -43.059 85.875 -44.054 83.269 C-44.34 82.531 -44.627 81.793 -44.921 81.032 C-45.327 79.964 -45.327 79.964 -45.742 78.874 C-46.119 77.892 -46.119 77.892 -46.503 76.89 C-47.054 75.081 -47.054 75.081 -47.054 72.081 C-48.044 72.081 -49.034 72.081 -50.054 72.081 C-48.491 64.544 -46.451 57.203 -44.242 49.831 C-43.911 48.674 -43.58 47.516 -43.24 46.323 C-40.049 35.717 -40.049 35.717 -35.054 32.081 C-34.064 31.751 -33.074 31.421 -32.054 31.081 C-32.054 30.421 -32.054 29.761 -32.054 29.081 C-30.404 28.421 -28.754 27.761 -27.054 27.081 C-27.054 26.421 -27.054 25.761 -27.054 25.081 C-26.394 25.081 -25.734 25.081 -25.054 25.081 C-25.054 24.421 -25.054 23.761 -25.054 23.081 C-24.394 23.081 -23.734 23.081 -23.054 23.081 C-22.781 22.496 -22.508 21.911 -22.226 21.308 C-20.705 18.418 -18.76 16.028 -16.729 13.48 C-14.976 11.147 -14.976 11.147 -13.963 8.495 C-10.855 1.398 -7.679 -0.004 0 0 Z " fill="#FFFFFF" transform="translate(265.0542297363281,194.91888427734375)"/>
<path d="M0 0 C4.388 2.154 7.521 4.776 10 9 C11.18 13.823 11.487 17.685 9.75 22.375 C8.234 24.65 6.718 26.873 5 29 C5.784 28.154 6.567 27.309 7.375 26.438 C7.816 25.962 8.257 25.486 8.711 24.996 C10.549 22.362 10.549 22.362 12 16 C22.23 16 32.46 16 43 16 C41.643 30.923 37.324 41.993 26 52 C12.992 61.75 0.636 64.353 -15.402 62.762 C-28.511 60.018 -39.219 51.597 -46.461 40.668 C-51.258 32.352 -52.111 25.781 -53 16 C-42.77 16 -32.54 16 -22 16 C-20.515 20.455 -20.515 20.455 -19 25 C-19.495 23.515 -19.495 23.515 -20 22 C-20.495 21.01 -20.495 21.01 -21 20 C-21.546 13.671 -20.7 9.243 -17 4 C-12.047 -0.833 -6.574 -0.97 0 0 Z " fill="#FFFFFF" transform="translate(197,154)"/>
<path d="M0 0 C8.839 7.053 12.876 15.689 17 26 C17.495 31.445 17.495 31.445 18 37 C7.77 37 -2.46 37 -13 37 C-13.99 34.03 -14.98 31.06 -16 28 C-20.77 23.327 -23.624 21.812 -30.188 21.562 C-34.559 21.611 -37.621 21.709 -41.125 24.438 C-44.752 28.507 -44.752 28.507 -47 37 C-57.23 37 -67.46 37 -78 37 C-76.585 21.43 -72.641 10.244 -60.547 -0.098 C-41.6 -14.129 -18.957 -13.124 0 0 Z " fill="#FFFFFF" transform="translate(222,132)"/>
<path d="M0 0 C2.277 2.853 4.102 5.856 5.905 9.025 C10.766 17.512 16.415 24.79 23 32 C23.924 33.013 23.924 33.013 24.867 34.047 C40.067 49.901 58.522 59.015 79 66 C79.533 73.859 78.018 80.711 75 88 C74.032 89.031 73.037 90.038 72 91 C54.776 85.079 40.064 78.363 25 68 C23.895 67.303 22.791 66.605 21.652 65.887 C20.777 65.264 19.902 64.641 19 64 C19 63.34 19 62.68 19 62 C18.417 61.732 17.835 61.464 17.234 61.188 C14.972 59.985 13.194 58.662 11.25 57 C10.636 56.484 10.023 55.969 9.391 55.438 C8 54 8 54 8 52 C6.68 51.34 5.36 50.68 4 50 C4 49.34 4 48.68 4 48 C2.515 47.505 2.515 47.505 1 47 C-0.628 45.181 -2.101 43.384 -3.562 41.438 C-3.995 40.868 -4.428 40.298 -4.873 39.71 C-8.273 35.149 -11.407 30.439 -14.438 25.625 C-14.85 24.972 -15.263 24.319 -15.688 23.646 C-18.21 19.555 -20.208 15.461 -22 11 C-21.25 10.876 -20.5 10.752 -19.727 10.625 C-11.381 8.943 -6.198 5.773 0 0 Z " fill="#FFFFFF" transform="translate(79,222)"/>
<path d="M0 0 C0.436 0.387 0.871 0.773 1.32 1.172 C7.925 6.948 13.267 10.525 22 12 C20.639 17.885 18.245 22.371 15 27.438 C14.549 28.169 14.098 28.901 13.633 29.654 C12.483 31.476 11.248 33.244 10 35 C9.34 35 8.68 35 8 35 C7.34 36.65 6.68 38.3 6 40 C5.34 40 4.68 40 4 40 C3.773 40.701 3.546 41.403 3.312 42.125 C0.613 48.038 -3.917 51.965 -8.789 56.094 C-10.294 57.392 -11.768 58.727 -13.211 60.094 C-28.261 74.294 -46.455 83.617 -66 90 C-67.121 90.374 -68.243 90.748 -69.398 91.133 C-70.257 91.419 -71.115 91.705 -72 92 C-76.599 83.569 -78.12 76.54 -78 67 C-76.277 66.364 -76.277 66.364 -74.52 65.715 C-65.842 62.456 -57.647 59.019 -49.602 54.383 C-47.34 53.181 -45.5 52.462 -43 52 C-43 51.34 -43 50.68 -43 50 C-41.488 48.914 -41.488 48.914 -39.312 47.625 C-34.795 44.729 -30.921 41.387 -27 37.75 C-26.424 37.218 -25.848 36.687 -25.255 36.139 C-22.234 33.38 -22.234 33.38 -20 30 C-19.34 30 -18.68 30 -18 30 C-17.756 29.462 -17.513 28.925 -17.262 28.371 C-15.684 25.406 -13.772 22.79 -11.812 20.062 C-7.278 13.656 -3.559 6.992 0 0 Z " fill="#FFFFFF" transform="translate(302,221)"/>
<path d="M0 0 C0.495 1.485 0.495 1.485 1 3 C1.99 3 2.98 3 4 3 C7.188 5.313 7.188 5.313 10 8 C10 8.99 10 9.98 10 11 C10.66 11 11.32 11 12 11 C11.67 12.32 11.34 13.64 11 15 C11.99 14.67 12.98 14.34 14 14 C18.134 20.614 17.124 29.513 17 37 C16.34 37 15.68 37 15 37 C15.206 37.598 15.412 38.196 15.625 38.812 C16 41 16 41 14 44 C4.894 47.847 -5.074 47.36 -14.75 47.188 C-16.237 47.172 -17.724 47.159 -19.211 47.146 C-22.808 47.114 -26.404 47.062 -30 47 C-30 50.63 -30 54.26 -30 58 C-37.714 54 -37.714 54 -39 50 C-39.66 50 -40.32 50 -41 50 C-45.628 40.953 -47.591 33.243 -47 23 C-45.967 19.829 -44.488 16.977 -43 14 C-42.67 13.01 -42.34 12.02 -42 11 C-29.733 0.884 -15.168 -5.056 0 0 Z " fill="#F8F8F8" transform="translate(168,58)"/>
<path d="M0 0 C9.368 2.162 17.539 6.592 26 11 C26.66 11.33 27.32 11.66 28 12 C28 12.66 28 13.32 28 14 C28.99 14.33 29.98 14.66 31 15 C34 19.333 34 19.333 34 22 C34.66 22.66 35.32 23.32 36 24 C36.045 25.666 36.039 27.334 36 29 C36.297 30.673 36.621 32.343 37 34 C36.34 34 35.68 34 35 34 C35.33 34.99 35.66 35.98 36 37 C35.062 39.188 35.062 39.188 34 41 C34.99 41.495 34.99 41.495 36 42 C35.34 42.66 34.68 43.32 34 44 C33.43 45.385 32.892 46.783 32.375 48.188 C30.137 53.427 26.702 56.835 22 60 C21.34 60 20.68 60 20 60 C20 56.7 20 53.4 20 50 C18.587 50.031 18.587 50.031 17.145 50.063 C13.598 50.132 10.052 50.182 6.505 50.22 C4.98 50.24 3.454 50.267 1.929 50.302 C-7.498 50.512 -15.302 50.181 -24 46 C-24 45.34 -24 44.68 -24 44 C-24.66 43.67 -25.32 43.34 -26 43 C-24.701 42.794 -23.401 42.588 -22.062 42.375 C-16.125 41.227 -10.593 39.15 -4.979 36.945 C-0.776 35.361 1.545 34.896 6 36 C9.086 33.475 10.733 31.801 12 28 C9.999 28.326 7.999 28.661 6 29 C5.093 29.124 4.185 29.248 3.25 29.375 C0.637 29.837 0.637 29.837 -1 33 C-3.898 34.387 -3.898 34.387 -7.375 35.688 C-8.517 36.124 -9.659 36.561 -10.836 37.012 C-14 38 -14 38 -18 38 C-18 37.01 -18 36.02 -18 35 C-19.485 35.495 -19.485 35.495 -21 36 C-21.66 35.67 -22.32 35.34 -23 35 C-23 36.32 -23 37.64 -23 39 C-22.34 39.33 -21.68 39.66 -21 40 C-21.99 40.66 -22.98 41.32 -24 42 C-24.99 41.67 -25.98 41.34 -27 41 C-28.039 33.728 -28.349 27.048 -26 20 C-23.938 19.312 -23.938 19.312 -22 19 C-22.33 18.01 -22.66 17.02 -23 16 C-22.67 15.34 -22.34 14.68 -22 14 C-21.34 14 -20.68 14 -20 14 C-19.67 13.01 -19.34 12.02 -19 11 C-18.01 11 -17.02 11 -16 11 C-16.33 9.68 -16.66 8.36 -17 7 C-16.01 6.67 -15.02 6.34 -14 6 C-13.34 6.33 -12.68 6.66 -12 7 C-11.67 5.68 -11.34 4.36 -11 3 C-10.34 3 -9.68 3 -9 3 C-8.67 2.67 -8.34 2.34 -8 2 C-2.388 0.806 -2.388 0.806 0 2 C0 1.34 0 0.68 0 0 Z " fill="#FBFBFB" transform="translate(226,55)"/>
<path d="M0 0 C2.387 0.969 2.387 0.969 5 3 C6.09 5.76 6.439 8.567 6.812 11.5 C6.929 12.316 7.046 13.132 7.167 13.972 C8.784 25.918 7.56 37.122 6 49 C8.646 34.093 8.903 19.906 6 5 C6.66 5 7.32 5 8 5 C13.272 18.708 12.093 36.339 8.371 50.371 C8.249 50.909 8.126 51.446 8 52 C8.495 52.495 8.495 52.495 9 53 C11.125 38.316 11.224 23.818 11 9 C14.825 12.196 18.544 15.344 21.812 19.125 C22.376 19.767 22.939 20.409 23.52 21.07 C25 23 25 23 27 27 C23.04 27 19.08 27 15 27 C15 27.99 15 28.98 15 30 C19.62 30 24.24 30 29 30 C29.423 32.962 29.846 35.924 30.27 38.887 C31.506 44.158 33.929 47.241 38.062 50.625 C40.606 52.718 42.143 54.215 44 57 C44.125 60.187 44.125 60.187 44 63 C27.756 63.71 27.756 63.71 21.941 60.016 C18.621 58.279 14.999 57.994 11.32 57.492 C9 57 9 57 7 55 C6.723 58.185 6.723 58.185 9 61 C10.072 60.979 11.145 60.959 12.25 60.938 C16.774 61.013 18.417 62.373 22 65 C25.257 66.096 28.441 66.194 31.859 66.316 C32.974 66.358 34.089 66.4 35.238 66.443 C36.397 66.483 37.556 66.522 38.75 66.562 C39.924 66.606 41.099 66.649 42.309 66.693 C45.206 66.799 48.103 66.901 51 67 C51.381 69.326 51.713 71.661 52 74 C49.49 76.51 42.744 75.234 39.375 75.25 C38.293 75.271 37.212 75.291 36.098 75.312 C28.788 75.348 24.321 74.357 17.938 70.875 C15.299 69.683 12.876 69.25 10 69 C9.01 69.99 9.01 69.99 8 71 C7.34 70.67 6.68 70.34 6 70 C5.01 70.99 5.01 70.99 4 72 C3.34 69.03 2.68 66.06 2 63 C1.34 63 0.68 63 0 63 C-0.33 63.66 -0.66 64.32 -1 65 C-4 66 -4 66 -7 66 C-7.33 63.36 -7.66 60.72 -8 58 C-8.66 58 -9.32 58 -10 58 C-10 56.02 -10 54.04 -10 52 C-11.274 52 -12.544 52.137 -13.812 52.25 C-17 52 -17 52 -19.375 50 C-19.911 49.34 -20.447 48.68 -21 48 C-18.779 45.546 -16.647 44.202 -13.688 42.75 C-5.861 38.494 -1.071 31.566 1.594 23.117 C3.085 15.345 2.014 7.552 0 0 Z " fill="#FFFFFF" transform="translate(261,73)"/>
<path d="M0 0 C3 1 3 1 4.125 3.062 C4.863 5.54 5.231 7.64 5.5 10.188 C5.608 14.014 5.608 14.014 8 16 C18.036 18.046 28.117 17.259 38 15 C38.99 10.38 39.98 5.76 41 1 C42.32 1 43.64 1 45 1 C47.331 7.395 49.656 13.792 51.978 20.191 C52.862 22.62 53.752 25.047 54.645 27.473 C55.092 28.699 55.539 29.924 56 31.188 C56.588 32.787 56.588 32.787 57.188 34.418 C58 37 58 37 58 40 C33.857 45.57 10.11 45.902 -14 40 C-13.019 35.91 -11.675 31.964 -10.312 27.988 C-10.05 27.219 -9.787 26.451 -9.517 25.658 C-8.963 24.039 -8.408 22.419 -7.853 20.8 C-7 18.312 -6.152 15.823 -5.305 13.334 C-4.766 11.76 -4.227 10.187 -3.688 8.613 C-3.306 7.491 -3.306 7.491 -2.917 6.347 C-1.114 1.114 -1.114 1.114 0 0 Z " fill="#FFFFFF" transform="translate(169,274)"/>
<path d="M0 0 C0.943 -0.021 1.886 -0.041 2.857 -0.062 C13.185 -0.119 21.655 2.697 30.312 8.25 C31.042 8.708 31.772 9.165 32.523 9.637 C43.69 17.414 50.642 29.552 53.887 42.551 C56.347 58.145 53.359 72.631 44.633 85.781 C36.339 96.932 25.067 104.819 11.312 107.25 C7.752 107.486 4.192 107.481 0.625 107.5 C-0.789 107.531 -0.789 107.531 -2.232 107.562 C-10.506 107.608 -18.116 106.594 -24.688 101.25 C-21.485 101.824 -18.65 102.642 -15.625 103.812 C-4.723 107.14 9.876 106.933 20.312 102.25 C20.989 101.972 21.666 101.693 22.363 101.406 C34.941 95.74 44.058 85.448 49.25 72.75 C51.374 66.692 52.544 60.613 53.312 54.25 C51.993 54.25 50.673 54.25 49.312 54.25 C49.298 54.977 49.284 55.704 49.27 56.453 C48.734 67.737 45.143 77.906 37.312 86.25 C36.322 86.91 35.332 87.57 34.312 88.25 C35.694 85.316 37.309 82.763 39.188 80.125 C44.734 71.846 46.497 64.237 48.312 54.25 C38.082 54.25 27.852 54.25 17.312 54.25 C16.983 56.56 16.653 58.87 16.312 61.25 C14.902 63.465 14.902 63.465 13.25 65.188 C12.702 65.774 12.154 66.361 11.59 66.965 C10.958 67.601 10.958 67.601 10.312 68.25 C9.322 67.755 9.322 67.755 8.312 67.25 C8.734 66.849 9.156 66.448 9.59 66.035 C13.416 62.065 15.225 59.019 15.48 53.457 C15.101 48.476 13.366 45.227 9.75 41.875 C6.184 39.498 4.211 39.069 -0.062 39 C-1.497 38.961 -1.497 38.961 -2.961 38.922 C-6.091 39.299 -7.311 40.261 -9.688 42.25 C-10.347 42.25 -11.007 42.25 -11.688 42.25 C-13.89 47.683 -15.395 52.311 -14.688 58.25 C-13.226 61.049 -13.226 61.049 -11.688 63.25 C-12.017 63.91 -12.347 64.57 -12.688 65.25 C-15.82 61.041 -16.688 59.699 -16.688 54.25 C-26.917 54.25 -37.148 54.25 -47.688 54.25 C-47.688 56.23 -47.688 58.21 -47.688 60.25 C-48.018 60.25 -48.347 60.25 -48.688 60.25 C-48.688 58.27 -48.688 56.29 -48.688 54.25 C-50.007 54.25 -51.327 54.25 -52.688 54.25 C-50.856 67.68 -46.754 77.638 -39.688 89.25 C-45.216 87.407 -47.19 81.228 -49.688 76.25 C-55.461 63.275 -55.846 47.628 -51.027 34.27 C-48.701 29.026 -46.245 23.775 -42.688 19.25 C-40.562 18.531 -40.562 18.531 -38.688 18.25 C-37.107 16.477 -37.107 16.477 -35.688 14.25 C-32.436 9.416 -28.869 7.426 -23.75 5 C-23.047 4.649 -22.344 4.299 -21.619 3.938 C-14.381 0.41 -7.975 0.043 0 0 Z M-34.688 21.25 C-35.242 21.789 -35.796 22.328 -36.367 22.883 C-44.92 31.656 -46.599 41.275 -47.688 53.25 C-37.458 53.25 -27.227 53.25 -16.688 53.25 C-15.697 50.28 -14.708 47.31 -13.688 44.25 C-10.383 40.155 -8.728 38.578 -3.551 37.746 C5.812 37.415 5.812 37.415 9.938 40 C14.715 44.526 15.361 46.42 17.312 53.25 C27.543 53.25 37.773 53.25 48.312 53.25 C47.17 40.677 44.588 31.747 36.312 22.25 C35.859 21.669 35.405 21.087 34.938 20.488 C28.905 13.497 17.548 7.343 8.312 6.25 C-8.474 5.117 -23.01 8.344 -34.688 21.25 Z " fill="#B0B0B0" transform="translate(191.6875,115.75)"/>
<path d="M0 0 C4.95 0 9.9 0 15 0 C15 30.36 15 60.72 15 92 C10.05 92 5.1 92 0 92 C0 61.64 0 31.28 0 0 Z " fill="#FFFFFF" transform="translate(356,159)"/>
<path d="M0 0 C-5 2 -10 4 -15 6 C-15 6.66 -15 7.32 -15 8 C-15.66 8 -16.32 8 -17 8 C-17 8.66 -17 9.32 -17 10 C-17.66 10 -18.32 10 -19 10 C-19.268 10.722 -19.536 11.444 -19.812 12.188 C-21 15 -21 15 -22.562 17.562 C-25.368 22.32 -25.153 27.03 -25.125 32.438 C-25.129 33.188 -25.133 33.939 -25.137 34.713 C-25.135 35.812 -25.135 35.812 -25.133 36.934 C-25.131 37.924 -25.131 37.924 -25.129 38.935 C-25.014 41.51 -25.014 41.51 -24 46 C-28.62 46 -33.24 46 -38 46 C-37.835 44.907 -37.67 43.814 -37.5 42.688 C-36.171 31.606 -36.396 21.586 -43.125 12.25 C-48.51 5.831 -54.811 1.742 -63 0 C-52.761 -10.239 -11.318 -7.545 0 0 Z " fill="#FFFFFF" transform="translate(223,55)"/>
<path d="M0 0 C3.825 3.196 7.544 6.344 10.812 10.125 C11.376 10.767 11.939 11.409 12.52 12.07 C14 14 14 14 16 18 C12.04 18 8.08 18 4 18 C4 18.99 4 19.98 4 21 C8.62 21 13.24 21 18 21 C18.423 23.962 18.846 26.924 19.27 29.887 C20.506 35.158 22.929 38.241 27.062 41.625 C29.606 43.718 31.143 45.215 33 48 C33.125 51.187 33.125 51.187 33 54 C16.766 54.709 16.766 54.709 10.949 51.023 C6.993 48.946 2.383 48.612 -2 48 C-3.153 44.313 -2.554 41.951 -1.543 38.237 C0.501 29.82 0.125 20.972 0.062 12.375 C0.058 11.18 0.053 9.985 0.049 8.754 C0.037 5.836 0.021 2.918 0 0 Z " fill="#FFFFFF" transform="translate(272,82)"/>
<path d="M0 0 C1.32 0.33 2.64 0.66 4 1 C4 1.66 4 2.32 4 3 C4.928 2.505 5.856 2.01 6.812 1.5 C10 0 10 0 13 0 C13.99 4.95 13.99 4.95 15 10 C19.95 10.99 19.95 10.99 25 12 C25 11.34 25 10.68 25 10 C20.05 9.505 20.05 9.505 15 9 C15.33 8.34 15.66 7.68 16 7 C18.688 7.115 21.375 7.242 24.062 7.375 C24.815 7.406 25.567 7.437 26.342 7.469 C31.19 7.721 35.383 8.492 40 10 C38.627 13.382 37.465 14.669 34.125 16.125 C17.08 23.068 -6.314 22.921 -24 19 C-25 18 -25 18 -25.062 15.438 C-25.042 14.633 -25.021 13.829 -25 13 C-17.374 9.299 -10.434 8.264 -2 8 C-2 7.01 -2 6.02 -2 5 C-2.899 5.255 -2.899 5.255 -3.816 5.516 C-10.808 7.385 -17.802 8.689 -24.938 9.875 C-39.925 12.4 -54.735 15.588 -69.117 20.564 C-73.69 22.103 -73.69 22.103 -77 21 C-71.339 18.379 -65.661 16.674 -59.625 15.125 C-58.629 14.867 -57.633 14.61 -56.607 14.344 C-46.089 11.681 -35.476 9.557 -24.819 7.536 C-22.225 7.043 -19.633 6.536 -17.043 6.023 C-5.794 3.829 -5.794 3.829 -1 4 C-0.67 2.68 -0.34 1.36 0 0 Z " fill="#161616" transform="translate(80,19)"/>
<path d="M0 0 C0 0.66 0 1.32 0 2 C-1.136 3.136 -2.276 4.269 -3.43 5.387 C-8.432 10.526 -12.923 15.729 -14 23 C-13.821 26.526 -13.376 29.159 -11.938 32.375 C-9.002 34.837 -5.708 34.903 -2 35 C0.745 34.66 3.34 34 6 33.25 C6.699 33.065 7.398 32.879 8.119 32.688 C12.878 31.398 17.412 29.784 22 28 C23.99 27.609 25.988 27.251 28 27 C28.495 28.485 28.495 28.485 29 30 C26.382 35.161 23.255 37.393 18.062 39.562 C17.402 39.852 16.742 40.142 16.062 40.44 C14.049 41.313 12.026 42.158 10 43 C8.837 43.501 7.675 44.003 6.477 44.52 C-8.109 50.53 -8.109 50.53 -15.359 48.262 C-17.436 47.308 -19.219 46.432 -21 45 C-21.495 43.515 -21.495 43.515 -22 42 C-22.66 42 -23.32 42 -24 42 C-26.588 36.239 -27.556 31.667 -25.984 25.477 C-24.183 20.945 -21.275 17.558 -18 14 C-17.031 12.946 -17.031 12.946 -16.043 11.871 C-4.622 0 -4.622 0 0 0 Z " fill="#FFFFFF" transform="translate(82,120)"/>
<path d="M0 0 C5.007 2.209 8.576 4.979 12.5 8.688 C13.07 9.221 13.639 9.755 14.226 10.305 C21.07 16.83 26.163 22.663 27.438 32.312 C26.768 37.958 24.705 42.843 20.168 46.461 C14.291 49.73 8.666 49.739 2.281 47.969 C1.015 47.496 -0.246 47.005 -1.5 46.5 C-2.176 46.235 -2.853 45.97 -3.55 45.698 C-8.719 43.624 -13.793 41.35 -18.812 38.938 C-19.826 38.464 -19.826 38.464 -20.859 37.98 C-24.885 35.972 -27.29 34.225 -29 30 C-28.505 28.515 -28.505 28.515 -28 27 C-20.964 28.621 -14.205 30.513 -7.473 33.133 C-1.411 35.259 4.696 35.844 10.938 34.25 C13.093 33.2 13.093 33.2 13.812 31.312 C13.905 30.168 13.905 30.168 14 29 C14.155 27.422 14.155 27.422 14.312 25.812 C13.678 18.071 9.999 12.693 5 7 C5 6.34 5 5.68 5 5 C4.01 4.67 3.02 4.34 2 4 C2 3.34 2 2.68 2 2 C1.34 2 0.68 2 0 2 C0 1.34 0 0.68 0 0 Z " fill="#FFFFFF" transform="translate(300,120)"/>
<path d="M0 0 C4.388 2.154 7.521 4.776 10 9 C11.154 13.719 11.474 17.629 9.875 22.25 C9.256 23.157 8.637 24.065 8 25 C7.299 26.072 6.597 27.145 5.875 28.25 C2.144 31.818 -0.895 32.754 -6 33 C-10.521 32.538 -13.989 31.519 -17 28 C-20.362 22.93 -22.154 18.074 -21 12 C-19.591 7.663 -17.703 4.686 -14.438 1.5 C-9.558 -0.629 -5.244 -0.774 0 0 Z " fill="#F6F6F6" transform="translate(197,154)"/>
<path d="M0 0 C-0.01 1.008 -0.021 2.016 -0.032 3.054 C-0.068 6.838 -0.091 10.621 -0.11 14.404 C-0.12 16.034 -0.133 17.663 -0.151 19.292 C-0.255 29.234 -0.179 38.464 3 48 C2.67 48.66 2.34 49.32 2 50 C-0.223 50.492 -0.223 50.492 -3.062 50.875 C-8.421 51.739 -12.244 53.452 -17 56 C-17.99 56 -18.98 56 -20 56 C-20.073 54.32 -20.073 54.32 -20.148 52.605 C-20.223 51.133 -20.299 49.66 -20.375 48.188 C-20.421 47.081 -20.421 47.081 -20.469 45.951 C-20.673 42.181 -20.864 40.203 -23 37 C-22.359 35.323 -21.685 33.659 -21 32 C-20.532 29.003 -20.271 26.024 -20 23 C-15.05 22.67 -10.1 22.34 -5 22 C-5 21.34 -5 20.68 -5 20 C-9.62 20 -14.24 20 -19 20 C-4.172 0 -4.172 0 0 0 Z " fill="#FFFFFF" transform="translate(112,80)"/>
<path d="M0 0 C0 0.66 0 1.32 0 2 C1.083 2.34 1.083 2.34 2.188 2.688 C5.564 4.263 7.558 6.209 10 9 C10 9.66 10 10.32 10 11 C11.485 11.495 11.485 11.495 13 12 C25.296 27.792 28.728 45.209 26.5 64.812 C24.549 75.368 18.558 85.62 12 94 C11.34 94 10.68 94 10 94 C9.794 94.557 9.588 95.114 9.375 95.688 C7.423 98.97 5.058 100.707 2 103 C1.34 103 0.68 103 0 103 C0 103.66 0 104.32 0 105 C-2.228 106.128 -4.457 107.252 -6.688 108.375 C-7.313 108.692 -7.939 109.009 -8.584 109.336 C-22.466 116.313 -40.096 117.734 -55.188 113.438 C-61.562 111.068 -67.281 107.64 -73 104 C-74.052 103.423 -75.104 102.845 -76.188 102.25 C-88.638 92.29 -96.951 76.707 -99 61 C-99.95 43.009 -97.181 26.11 -84.987 12.055 C-61.565 -13.526 -29.689 -16.048 0 0 Z M-76 5 C-76 5.66 -76 6.32 -76 7 C-76.568 7.228 -77.137 7.456 -77.723 7.691 C-85.864 12.369 -90.942 22.44 -94 31 C-94.257 31.717 -94.515 32.434 -94.78 33.173 C-96.911 39.577 -97.544 45.457 -97.5 52.188 C-97.495 53.191 -97.49 54.195 -97.485 55.229 C-97.106 71.521 -90.489 84.336 -79.734 96.383 C-78.151 98.227 -78.151 98.227 -76 98 C-76 98.66 -76 99.32 -76 100 C-62.29 111.375 -45.575 115.475 -28 114 C-11.65 111.577 2.715 103.143 12.812 90.125 C16.476 84.975 19.62 79.86 22 74 C22.318 73.232 22.637 72.463 22.965 71.672 C27.963 57.022 26.05 39.857 19.645 26.086 C11.177 9.605 -1.683 -1.159 -19.258 -7.102 C-39.11 -12.321 -59.796 -7.603 -76 5 Z " fill="#000000" transform="translate(228,117)"/>
<path d="M0 0 C3.014 2.655 4.354 4.5 5.625 8.312 C5.528 13.732 4.165 17.213 0.625 21.312 C-4.391 24.423 -8.256 24.704 -14.07 23.891 C-17.304 23.079 -19.138 21.759 -21.375 19.312 C-23.9 15.042 -24.04 11.164 -23.375 6.312 C-21.505 2.273 -19.987 0.685 -16.188 -1.625 C-10.135 -3.312 -5.612 -2.806 0 0 Z " fill="#575757" transform="translate(372.375,60.6875)"/>
<path d="M0 0 C1.236 3.709 0.48 4.504 -1 8 C-2.932 17.194 -1.921 25.854 2.738 34.062 C6.554 39.634 9.857 43.218 16 46 C17.67 46.995 19.338 47.993 21 49 C19.5 51.562 19.5 51.562 17 54 C14.123 54.154 11.854 53.618 9 53 C8.67 53.99 8.34 54.98 8 56 C8 55.34 8 54.68 8 54 C7.397 54.179 6.793 54.358 6.172 54.543 C5.373 54.756 4.573 54.968 3.75 55.188 C2.961 55.408 2.172 55.628 1.359 55.855 C-1 56 -1 56 -3.219 54.844 C-9.722 48.112 -7.395 31.487 -7.254 22.84 C-7.039 16.134 -6.607 9.255 -4 3 C-1.891 1.145 -1.891 1.145 0 0 Z " fill="#FFFFFF" transform="translate(122,71)"/>
<path d="M0 0 C20.087 -0.641 20.087 -0.641 27.625 3.75 C31.787 7.693 32.124 11.673 32.375 17.188 C32.291 23.311 30.413 28.43 28 34 C22.856 34 21.237 32.435 17.574 29.043 C16 27 16 27 16 23.312 C16.164 22.659 16.327 22.005 16.496 21.332 C17.14 18.35 17.095 15.547 17.062 12.5 C17.053 11.458 17.044 10.417 17.035 9.344 C17.024 8.57 17.012 7.797 17 7 C15.94 6.746 14.881 6.492 13.789 6.23 C12.401 5.883 11.013 5.536 9.625 5.188 C8.926 5.022 8.228 4.856 7.508 4.686 C2.227 3.34 2.227 3.34 0 0 Z " fill="#FFFFFF" transform="translate(288,193)"/>
<path d="M0 0 C0 0.99 0 1.98 0 3 C-1.06 3.242 -2.119 3.485 -3.211 3.734 C-4.599 4.072 -5.987 4.411 -7.375 4.75 C-8.074 4.907 -8.772 5.065 -9.492 5.227 C-13.515 6.198 -13.515 6.198 -16.492 8.902 C-17.644 13.659 -16.339 18.159 -14.562 22.562 C-14 26 -14 26 -15.066 27.887 C-16.613 29.736 -18.22 31.375 -20 33 C-20.722 33.66 -21.444 34.32 -22.188 35 C-23.085 35.495 -23.085 35.495 -24 36 C-27 35 -27 35 -28.168 32.918 C-31.403 24.254 -32.944 15.676 -29 7 C-28.34 7 -27.68 7 -27 7 C-27 6.34 -27 5.68 -27 5 C-21.2 2.096 -15.992 1.317 -9.562 0.812 C-8.179 0.69 -8.179 0.69 -6.768 0.564 C-4.512 0.366 -2.257 0.178 0 0 Z " fill="#FFFFFF" transform="translate(93,192)"/>
<path d="M0 0 C0.88 0.001 1.76 0.002 2.667 0.003 C3.57 -0.002 4.472 -0.006 5.402 -0.01 C7.312 -0.016 9.222 -0.016 11.132 -0.012 C14.062 -0.009 16.991 -0.032 19.921 -0.058 C21.774 -0.06 23.627 -0.061 25.48 -0.06 C26.36 -0.069 27.24 -0.078 28.147 -0.088 C30.615 -0.069 30.615 -0.069 34.574 0.304 C36.574 3.304 36.574 3.304 36.261 5.929 C35.574 8.304 35.574 8.304 34.574 9.304 C31.483 9.405 28.415 9.443 25.324 9.436 C24.395 9.437 23.467 9.438 22.51 9.439 C20.543 9.44 18.576 9.438 16.609 9.434 C13.587 9.429 10.565 9.434 7.542 9.44 C5.636 9.44 3.73 9.438 1.824 9.436 C0.458 9.439 0.458 9.439 -0.935 9.442 C-7.311 9.418 -7.311 9.418 -8.426 8.304 C-8.614 5.366 -8.614 5.366 -8.426 2.304 C-5.74 -0.383 -3.652 0.043 0 0 Z " fill="#292929" transform="translate(178.4263916015625,194.6964569091797)"/>
<path d="M0 0 C8.58 0 17.16 0 26 0 C26.33 0.66 26.66 1.32 27 2 C25.68 2 24.36 2 23 2 C23 7.61 23 13.22 23 19 C24.32 19 25.64 19 27 19 C27 19.66 27 20.32 27 21 C25.68 21 24.36 21 23 21 C23 26.61 23 32.22 23 38 C24.32 38.33 25.64 38.66 27 39 C25.68 39 24.36 39 23 39 C23 58.47 23 77.94 23 98 C22.67 98 22.34 98 22 98 C22 66.32 22 34.64 22 2 C21.01 2 20.02 2 19 2 C19 33.02 19 64.04 19 96 C13.39 96 7.78 96 2 96 C1.985 94.24 1.985 94.24 1.969 92.445 C1.871 81.408 1.768 70.372 1.661 59.335 C1.605 53.661 1.552 47.987 1.503 42.312 C1.455 36.84 1.403 31.367 1.347 25.895 C1.327 23.803 1.308 21.712 1.291 19.62 C1.267 16.699 1.237 13.777 1.205 10.856 C1.2 9.984 1.194 9.112 1.188 8.214 C1.253 3.972 1.253 3.972 0 0 Z M3 2 C3 32.36 3 62.72 3 94 C7.95 94 12.9 94 18 94 C18 63.64 18 33.28 18 2 C13.05 2 8.1 2 3 2 Z " fill="#000000" transform="translate(353,157)"/>
<path d="M0 0 C-0.33 2.64 -0.66 5.28 -1 8 C-1.557 8.098 -2.114 8.196 -2.688 8.297 C-3.451 8.446 -4.214 8.596 -5 8.75 C-5.743 8.889 -6.485 9.028 -7.25 9.172 C-9.722 9.916 -11.313 10.765 -13.504 12.059 C-19.086 14.939 -24.797 14.471 -30.938 14.312 C-32.085 14.303 -33.233 14.293 -34.416 14.283 C-42.831 14.169 -42.831 14.169 -44 13 C-44.041 10.667 -44.042 8.333 -44 6 C-43.219 5.985 -42.437 5.971 -41.633 5.956 C-38.067 5.881 -34.502 5.784 -30.938 5.688 C-29.708 5.665 -28.479 5.642 -27.213 5.619 C-17.176 5.322 -9.355 -0.353 0 0 Z " fill="#FFFFFF" transform="translate(114,134)"/>
<path d="M0 0 C5.803 -0.464 8.358 0.596 13 4 C16.257 5.096 19.441 5.194 22.859 5.316 C23.974 5.358 25.089 5.4 26.238 5.443 C27.397 5.483 28.556 5.522 29.75 5.562 C30.924 5.606 32.099 5.649 33.309 5.693 C36.206 5.799 39.103 5.901 42 6 C42.381 8.326 42.713 10.661 43 13 C40.49 15.51 33.744 14.234 30.375 14.25 C29.293 14.271 28.212 14.291 27.098 14.312 C19.788 14.348 15.321 13.357 8.938 9.875 C6.353 8.708 3.796 8.381 1 8 C0.67 5.36 0.34 2.72 0 0 Z " fill="#FFFFFF" transform="translate(270,134)"/>
<path d="M0 0 C0.99 0.495 0.99 0.495 2 1 C6.459 14.871 4.799 29.997 -1.188 43.062 C-7.926 55.663 -18.221 65.401 -31.746 70.344 C-37.753 72.093 -43.473 72.217 -49.688 72.25 C-51.102 72.281 -51.102 72.281 -52.545 72.312 C-60.818 72.358 -68.429 71.344 -75 66 C-71.797 66.574 -68.963 67.392 -65.938 68.562 C-55.036 71.89 -40.436 71.683 -30 67 C-29.323 66.722 -28.646 66.443 -27.949 66.156 C-15.372 60.49 -6.254 50.198 -1.062 37.5 C1.062 31.442 2.232 25.363 3 19 C1.68 19 0.36 19 -1 19 C-1.014 19.727 -1.028 20.454 -1.043 21.203 C-1.578 32.487 -5.169 42.656 -13 51 C-13.99 51.66 -14.98 52.32 -16 53 C-14.619 50.066 -13.004 47.513 -11.125 44.875 C-5.579 36.596 -3.816 28.987 -2 19 C-12.23 19 -22.46 19 -33 19 C-33.33 21.31 -33.66 23.62 -34 26 C-35.41 28.215 -35.41 28.215 -37.062 29.938 C-37.61 30.524 -38.158 31.111 -38.723 31.715 C-39.355 32.351 -39.355 32.351 -40 33 C-40.99 32.505 -40.99 32.505 -42 32 C-41.578 31.599 -41.157 31.198 -40.723 30.785 C-36.896 26.815 -35.088 23.769 -34.832 18.207 C-35.211 13.226 -36.946 9.977 -40.562 6.625 C-44.128 4.248 -46.102 3.819 -50.375 3.75 C-51.331 3.724 -52.288 3.698 -53.273 3.672 C-56.379 4.046 -57.705 4.934 -60 7 C-60.66 6.67 -61.32 6.34 -62 6 C-58.17 2.406 -55.803 1.451 -50.562 1.5 C-43.676 1.725 -40.514 3.486 -35.688 8.312 C-34 11 -34 11 -33 18 C-22.77 18 -12.54 18 -2 18 C-2.495 12.555 -2.495 12.555 -3 7 C-2.67 7 -2.34 7 -2 7 C-1.505 12.445 -1.505 12.445 -1 18 C0.32 18 1.64 18 3 18 C2.01 12.06 1.02 6.12 0 0 Z " fill="#000000" transform="translate(242,151)"/>
<path d="M0 0 C0.66 0 1.32 0 2 0 C7.97 15.523 5.456 34.459 1 50 C0.77 52.896 0.77 52.896 1.938 54.812 C3.275 57.566 3.741 59.955 4 63 C3.34 63.99 2.68 64.98 2 66 C1.34 65.67 0.68 65.34 0 65 C-0.99 65.99 -0.99 65.99 -2 67 C-2.66 64.03 -3.32 61.06 -4 58 C-4.66 58 -5.32 58 -6 58 C-6.33 58.66 -6.66 59.32 -7 60 C-10 61 -10 61 -13 61 C-13.33 58.36 -13.66 55.72 -14 53 C-14.66 53 -15.32 53 -16 53 C-16 51.02 -16 49.04 -16 47 C-15.67 47.66 -15.34 48.32 -15 49 C-14.34 49 -13.68 49 -13 49 C-13 48.34 -13 47.68 -13 47 C-12.397 47.084 -11.793 47.168 -11.172 47.254 C-10.373 47.356 -9.573 47.458 -8.75 47.562 C-7.961 47.667 -7.172 47.771 -6.359 47.879 C-3.995 48 -2.249 47.696 0 47 C2.235 31.054 3.1 15.913 0 0 Z " fill="#4C4C4C" transform="translate(267,78)"/>
<path d="M0 0 C0 0.33 0 0.66 0 1 C-11.867 2.056 -23.731 3.044 -35.629 3.676 C-36.592 3.727 -37.555 3.779 -38.548 3.832 C-40.532 3.937 -42.517 4.043 -44.502 4.148 C-70.11 5.526 -95.533 8.025 -121 11 C-121 11.99 -121 12.98 -121 14 C-120.166 13.977 -119.332 13.954 -118.473 13.93 C-111.613 13.82 -105.624 14.204 -99 16 C-101.832 16.827 -104.138 17.073 -107.074 16.844 C-107.824 16.791 -108.573 16.738 -109.346 16.684 C-110.118 16.623 -110.891 16.562 -111.688 16.5 C-114.462 16.286 -117.219 16.118 -120 16 C-120.33 16.33 -120.66 16.66 -121 17 C-119.082 16.969 -119.082 16.969 -117.125 16.938 C-113.25 16.875 -113.25 16.875 -111 18 C-111 18.66 -111 19.32 -111 20 C-114.3 19.34 -117.6 18.68 -121 18 C-121.33 18.99 -121.66 19.98 -122 21 C-122.33 17.04 -122.66 13.08 -123 9 C-99.364 5.849 -75.722 3.411 -51.938 1.688 C-50.779 1.601 -49.621 1.514 -48.428 1.424 C-32.262 0.225 -16.209 -0.232 0 0 Z " fill="#000000" transform="translate(216,11)"/>
<path d="M0 0 C2.832 1.982 3.77 3.103 4.625 6.438 C3.853 9.602 2.369 11.116 -0.219 13.051 C-3.265 14.674 -5.649 14.487 -9 14 C-11.875 12.938 -11.875 12.938 -14 11 C-15.062 7.562 -15.062 7.562 -15 4 C-11.017 -1.405 -6.2 -1.609 0 0 Z " fill="#191919" transform="translate(91,171)"/>
<path d="M0 0 C1.906 0.41 1.906 0.41 4.406 1.91 C6.531 5.451 6.568 8.382 5.906 12.41 C4.844 14.848 4.844 14.848 2.906 16.41 C-0.523 17.283 -2.986 17.739 -6.406 16.723 C-9.43 14.371 -9.991 12.218 -10.469 8.473 C-9.663 1.896 -6.299 -0.458 0 0 Z " fill="#0D0D0D" transform="translate(365.09375,119.58984375)"/>
<path d="M0 0 C0.776 0.16 1.552 0.32 2.352 0.484 C4.375 1.25 4.375 1.25 6.375 4.25 C6.812 7.188 6.812 7.188 6.375 10.25 C4.201 12.914 2.583 14.081 -0.855 14.562 C-5.059 14.672 -7.029 14.648 -10.625 12.25 C-10.295 11.59 -9.965 10.93 -9.625 10.25 C-9.585 8.25 -9.582 6.25 -9.625 4.25 C-10.285 5.9 -10.945 7.55 -11.625 9.25 C-11.955 9.25 -12.285 9.25 -12.625 9.25 C-12.991 5.958 -12.947 4.664 -10.875 2 C-7.205 -0.854 -4.47 -0.987 0 0 Z " fill="#252525" transform="translate(299.625,170.75)"/>
<path d="M0 0 C5.61 0 11.22 0 17 0 C17 4.29 17 8.58 17 13 C15.02 13 13.04 13 11 13 C11.33 11.68 11.66 10.36 12 9 C9.69 9 7.38 9 5 9 C5.33 10.32 5.66 11.64 6 13 C4.334 13.043 2.666 13.041 1 13 C0 12 0 12 -0.098 9.277 C-0.065 6.185 -0.033 3.092 0 0 Z " fill="#FFFFFF" transform="translate(10,125)"/>
<path d="M0 0 C3.014 2.655 4.354 4.5 5.625 8.312 C5.528 13.732 4.165 17.213 0.625 21.312 C-4.391 24.423 -8.256 24.704 -14.07 23.891 C-17.304 23.079 -19.138 21.759 -21.375 19.312 C-23.9 15.042 -24.04 11.164 -23.375 6.312 C-21.505 2.273 -19.987 0.685 -16.188 -1.625 C-10.135 -3.312 -5.612 -2.806 0 0 Z M-17.375 3.312 C-17.952 3.725 -18.53 4.138 -19.125 4.562 C-21.125 7.362 -21.2 9.929 -21.375 13.312 C-20.611 16.964 -19.569 18.141 -16.75 20.625 C-12.702 22.649 -9.811 23.196 -5.375 22.312 C-2.214 20.673 -0.106 19.31 2 16.438 C3.437 11.552 2.975 6.808 0.625 2.312 C-5.934 -0.463 -11.523 -0.958 -17.375 3.312 Z " fill="#141414" transform="translate(372.375,60.6875)"/>
<path d="M0 0 C0.66 0.33 1.32 0.66 2 1 C1.541 1.715 1.082 2.431 0.609 3.168 C-5.357 12.857 -9.107 22.611 -10 34 C-8.68 34 -7.36 34 -6 34 C-5.951 33.192 -5.902 32.384 -5.852 31.551 C-5.777 30.482 -5.702 29.414 -5.625 28.312 C-5.555 27.257 -5.486 26.201 -5.414 25.113 C-5.012 22.093 -4.259 19.759 -3 17 C-2 20 -2 20 -5 34 C5.23 34 15.46 34 26 34 C26.33 31.69 26.66 29.38 27 27 C29.062 24.562 29.062 24.562 31 23 C30.691 23.763 30.381 24.526 30.062 25.312 C28.228 29.953 27.406 34.012 28 39 C29.461 41.799 29.461 41.799 31 44 C30.505 44.99 30.505 44.99 30 46 C26.867 41.791 26 40.449 26 35 C15.77 35 5.54 35 -5 35 C-5 36.98 -5 38.96 -5 41 C-5.33 41 -5.66 41 -6 41 C-6 39.02 -6 37.04 -6 35 C-7.32 35 -8.64 35 -10 35 C-8.169 48.43 -4.067 58.388 3 70 C-2.528 68.157 -4.502 61.978 -7 57 C-12.785 44 -13.123 28.415 -8.355 15.023 C-5.995 9.758 -3.112 4.852 0 0 Z " fill="#000000" transform="translate(149,135)"/>
<path d="M0 0 C33 0 66 0 100 0 C100 0.33 100 0.66 100 1 C67.331 1.657 34.677 2.181 2 2 C2 2.66 2 3.32 2 4 C3.663 4.073 3.663 4.073 5.359 4.148 C6.823 4.223 8.286 4.299 9.75 4.375 C10.48 4.406 11.209 4.437 11.961 4.469 C15.739 4.675 18.779 4.915 22 7 C19.229 6.859 16.458 6.713 13.688 6.562 C12.509 6.504 12.509 6.504 11.307 6.443 C10.549 6.401 9.792 6.36 9.012 6.316 C8.315 6.28 7.619 6.243 6.901 6.205 C5 6 5 6 2 5 C2 5.66 2 6.32 2 7 C3.65 7.33 5.3 7.66 7 8 C7 8.33 7 8.66 7 9 C4.69 9.33 2.38 9.66 0 10 C0 6.7 0 3.4 0 0 Z " fill="#000000" transform="translate(234,9)"/>
<path d="M0 0 C5.61 0 11.22 0 17 0 C15.125 10.75 15.125 10.75 14 13 C13.01 12.67 12.02 12.34 11 12 C11.33 11.01 11.66 10.02 12 9 C9.69 9.33 7.38 9.66 5 10 C5.33 10.99 5.66 11.98 6 13 C4.02 13 2.04 13 0 13 C0 8.71 0 4.42 0 0 Z " fill="#FFFFFF" transform="translate(30,125)"/>
<path d="M0 0 C0.789 0.046 1.578 0.093 2.391 0.141 C3.19 0.177 3.989 0.213 4.812 0.25 C5.416 0.296 6.019 0.343 6.641 0.391 C5.788 4.674 4.124 6.681 0.641 9.391 C-0.636 9.104 -0.636 9.104 -1.938 8.812 C-6.865 8.205 -10.405 9.973 -14.922 11.828 C-16.587 12.501 -18.255 13.167 -19.926 13.824 C-20.657 14.124 -21.389 14.423 -22.143 14.732 C-24.64 15.474 -26.768 15.505 -29.359 15.391 C-28.699 14.401 -28.039 13.411 -27.359 12.391 C-27.672 9.744 -27.672 9.744 -28.359 7.391 C-26.709 7.391 -25.059 7.391 -23.359 7.391 C-23.359 8.381 -23.359 9.371 -23.359 10.391 C-20.604 9.488 -17.856 8.57 -15.109 7.641 C-14.332 7.388 -13.555 7.135 -12.754 6.875 C-8.072 5.274 -4.35 0.72 0 0 Z " fill="#151515" transform="translate(231.359375,82.609375)"/>
<path d="M0 0 C2.97 0 5.94 0 9 0 C9 5.61 9 11.22 9 17 C5.37 17 1.74 17 -2 17 C-1.34 11.39 -0.68 5.78 0 0 Z " fill="#FFFFFF" transform="translate(341,178)"/>
<path d="M0 0 C2.855 0.115 5.708 0.242 8.562 0.375 C9.762 0.421 9.762 0.421 10.986 0.469 C15.964 0.713 20.264 1.436 25 3 C24.007 5.533 23.357 6.779 21.012 8.23 C14.376 10.963 9.249 12.142 2 12 C5 10 5 10 7 9 C5.68 8.67 4.36 8.34 3 8 C3.969 7.546 4.939 7.093 5.938 6.625 C9.071 5.342 9.071 5.342 10 3 C6.7 2.67 3.4 2.34 0 2 C0 1.34 0 0.68 0 0 Z " fill="#000000" transform="translate(95,26)"/>
<path d="M0 0 C3.625 -0.188 3.625 -0.188 7 0 C7.495 1.485 7.495 1.485 8 3 C7.402 3.248 6.804 3.495 6.188 3.75 C3.714 5.164 2.566 6.651 1 9 C0.206 8.764 -0.588 8.528 -1.406 8.285 C-6.391 7.89 -9.943 9.556 -14.5 11.438 C-24.478 15.511 -24.478 15.511 -30 15 C-27.813 12.556 -25.934 11.364 -22.875 10.211 C-22.086 9.909 -21.297 9.608 -20.484 9.297 C-19.665 8.993 -18.845 8.688 -18 8.375 C-17.18 8.063 -16.36 7.751 -15.516 7.43 C-12.358 6.233 -9.204 5.068 -6 4 C-4.333 2.5 -4.333 2.5 -3 1 C-2.67 1.66 -2.34 2.32 -2 3 C-1.34 2.01 -0.68 1.02 0 0 Z " fill="#0A0A0A" transform="translate(154,83)"/>
<path d="M0 0 C2.97 0 5.94 0 9 0 C9 5.61 9 11.22 9 17 C6.36 17 3.72 17 1 17 C0.67 11.39 0.34 5.78 0 0 Z " fill="#FFFFFF" transform="translate(341,159)"/>
<path d="M0 0 C1.063 0.067 2.127 0.134 3.223 0.203 C5.938 0.75 5.938 0.75 7.938 3.75 C8.954 8.257 9.481 12.332 7.812 16.688 C4.41 20.43 2.082 21.623 -3 22.188 C-7.272 22.01 -9.83 20.598 -13.062 17.75 C-14.976 14.673 -15.065 12.892 -15 9.25 C-13.88 5.07 -12.395 3.447 -9.062 0.75 C-5.711 -0.367 -3.507 -0.256 0 0 Z M-12.062 6.75 C-12.761 9.59 -12.761 11.91 -12.062 14.75 C-10.073 17.734 -8.677 19.353 -5.125 20.227 C-0.94 20.528 0.552 20.07 3.875 17.312 C4.556 16.467 5.236 15.621 5.938 14.75 C6.267 14.42 6.598 14.09 6.938 13.75 C6.778 9.599 6.28 7.237 3.875 3.812 C0.576 1.496 -1.178 0.989 -5.125 1.273 C-8.677 2.147 -10.073 3.766 -12.062 6.75 Z " fill="#FFFFFF" transform="translate(366.0625,61.25)"/>
<path d="M0 0 C2.375 0.75 2.375 0.75 3.375 1.75 C3.375 3.75 3.375 5.75 3.375 7.75 C3.705 8.74 4.035 9.73 4.375 10.75 C3.438 12.938 3.438 12.938 2.375 14.75 C-0.5 14.875 -0.5 14.875 -3.625 14.75 C-6.135 12.24 -5.922 11.282 -5.938 7.812 C-5.954 6.937 -5.971 6.062 -5.988 5.16 C-5.625 2.75 -5.625 2.75 -4.27 0.918 C-2.625 -0.25 -2.625 -0.25 0 0 Z " fill="#191919" transform="translate(376.625,307.25)"/>
<path d="M0 0 C8.455 0.982 14.555 5.893 19.938 12.312 C25.454 20.001 27.107 28.644 26 38 C24.98 40.824 24.98 40.824 24 43 C23.34 42.67 22.68 42.34 22 42 C22 41.34 22 40.68 22 40 C22.66 40 23.32 40 24 40 C23.814 39.402 23.629 38.804 23.438 38.188 C23 36 23 36 24 33 C23.34 32.67 22.68 32.34 22 32 C22.66 32 23.32 32 24 32 C23.814 31.402 23.629 30.804 23.438 30.188 C23 28 23 28 24 25 C23.34 24.67 22.68 24.34 22 24 C22.33 23.01 22.66 22.02 23 21 C22.34 20.67 21.68 20.34 21 20 C20.67 19.34 20.34 18.68 20 18 C19.34 18 18.68 18 18 18 C18.33 16.68 18.66 15.36 19 14 C18.34 14 17.68 14 17 14 C16.34 13.01 15.68 12.02 15 11 C13.081 8.914 11.402 7.601 9 6 C8.01 6.495 8.01 6.495 7 7 C7 5.68 7 4.36 7 3 C6.01 3.33 5.02 3.66 4 4 C4 3.34 4 2.68 4 2 C2.68 2.33 1.36 2.66 0 3 C0 2.01 0 1.02 0 0 Z " fill="#000000" transform="translate(161,55)"/>
<path d="M0 0 C0.66 0.66 1.32 1.32 2 2 C4.39 2.537 4.39 2.537 7.125 2.875 C10.82 3.465 13.489 4.101 16.625 6.125 C22.833 9.661 31.109 8.282 38 8 C38.495 8.99 38.495 8.99 39 10 C35.999 10.109 33.002 10.188 30 10.25 C28.741 10.3 28.741 10.3 27.457 10.352 C22.04 10.436 18.488 9.632 13.777 6.962 C11.42 5.686 9.132 5.189 6.5 4.75 C5.644 4.6 4.788 4.451 3.906 4.297 C3.277 4.199 2.648 4.101 2 4 C2 4.66 2 5.32 2 6 C3.794 5.876 3.794 5.876 5.625 5.75 C10.112 5.726 12.41 7.308 16 10 C18.988 10.978 21.854 11.183 24.984 11.316 C26.386 11.379 26.386 11.379 27.816 11.443 C28.784 11.483 29.753 11.522 30.75 11.562 C31.734 11.606 32.717 11.649 33.73 11.693 C36.154 11.799 38.577 11.901 41 12 C41 12.33 41 12.66 41 13 C37.479 13.088 33.959 13.141 30.438 13.188 C28.952 13.225 28.952 13.225 27.436 13.264 C19.887 13.339 15.338 12.225 9 8 C6.484 7.758 6.484 7.758 3.812 7.875 C2.461 7.902 2.461 7.902 1.082 7.93 C0.051 7.964 0.051 7.964 -1 8 C-1.625 5.125 -1.625 5.125 -2 2 C-1.34 1.34 -0.68 0.68 0 0 Z " fill="#000000" transform="translate(268,127)"/>
<path d="M0 0 C4.541 0.478 4.541 0.478 6.375 2.562 C7.336 6.312 6.736 9.196 6 13 C4 15 4 15 1.375 15.125 C0.591 15.084 -0.192 15.043 -1 15 C-1.66 13.68 -2.32 12.36 -3 11 C-2.01 11 -1.02 11 0 11 C0 11.66 0 12.32 0 13 C0.99 13 1.98 13 3 13 C3 12.34 3 11.68 3 11 C2.196 10.773 1.391 10.546 0.562 10.312 C-2 9 -2 9 -3 6.625 C-3 3.416 -2.142 2.314 0 0 Z " fill="#000000" transform="translate(342,307)"/>
<path d="M0 0 C0.861 0.163 1.721 0.326 2.608 0.494 C5.895 0.984 8.953 1.114 12.273 1.098 C13.427 1.094 14.581 1.091 15.77 1.088 C17.554 1.075 17.554 1.075 19.375 1.062 C20.588 1.058 21.801 1.053 23.051 1.049 C26.034 1.037 29.017 1.021 32 1 C31.67 1.99 31.34 2.98 31 4 C24.497 5.977 18.287 6.134 11.562 5.812 C10.769 5.782 9.976 5.752 9.159 5.721 C3.461 5.374 3.461 5.374 1.258 3.589 C0 2 0 2 0 0 Z " fill="#FFFFFF" transform="translate(175,285)"/>
<path d="M0 0 C0.882 2.548 0.99 4.059 0.538 6.753 C-0.392 12.366 -0.185 18.011 -0.188 23.688 C-0.2 24.904 -0.212 26.12 -0.225 27.373 C-0.263 40.633 -0.263 40.633 4 53 C1 52 1 52 -0.625 48.938 C-4.021 41.178 -3.183 31.765 -3.188 23.5 C-3.2 22.315 -3.212 21.131 -3.225 19.91 C-3.236 12.929 -3.187 6.374 0 0 Z " fill="#FFFFFF" transform="translate(115,76)"/>
<path d="M0 0 C0.66 0 1.32 0 2 0 C7.281 13.73 6.963 33.842 1.5 47.375 C0 50 0 50 -2 51 C-1.364 48.427 -0.694 45.871 0 43.312 C3.448 29.21 2.757 14.155 0 0 Z " fill="#FFFFFF" transform="translate(267,78)"/>
<path d="M0 0 C0.908 0.392 1.815 0.784 2.75 1.188 C3.438 3.438 3.438 3.438 3.75 6.188 C2.312 8.5 2.312 8.5 0.75 10.188 C-1.56 9.857 -3.87 9.528 -6.25 9.188 C-6.58 6.877 -6.91 4.567 -7.25 2.188 C-4.526 -0.537 -3.864 -0.966 0 0 Z " fill="#FFFFFF" transform="translate(365.25,123.8125)"/>
<path d="M0 0 C0 0.66 0 1.32 0 2 C-0.629 2.098 -1.258 2.196 -1.906 2.297 C-2.762 2.446 -3.618 2.596 -4.5 2.75 C-5.335 2.889 -6.171 3.028 -7.031 3.172 C-9.666 3.907 -11.227 4.698 -13.531 6.062 C-19.112 8.964 -24.857 8.433 -31 8.25 C-32.156 8.232 -33.313 8.214 -34.504 8.195 C-37.337 8.148 -40.168 8.083 -43 8 C-42.67 7.34 -42.34 6.68 -42 6 C-40.972 5.986 -40.972 5.986 -39.924 5.972 C-36.782 5.918 -33.641 5.834 -30.5 5.75 C-29.422 5.736 -28.345 5.722 -27.234 5.707 C-21.319 5.527 -16.815 5.04 -11.701 1.946 C-7.91 -0.162 -4.265 -0.097 0 0 Z " fill="#FFFFFF" transform="translate(114,131)"/>
<path d="M0 0 C-0.33 1.32 -0.66 2.64 -1 4 C-4.3 4 -7.6 4 -11 4 C-9.511 8.12 -9.511 8.12 -6.625 8.875 C-3.735 9.013 -2.417 8.522 0 7 C0 8.32 0 9.64 0 11 C-3.791 11.818 -6.215 12.307 -9.875 10.875 C-12 9 -12 9 -13.062 6.562 C-13 4 -13 4 -11.312 1.75 C-7.307 -1.281 -4.807 -1.202 0 0 Z " fill="#FFFFFF" transform="translate(90,172)"/>
<path d="M0 0 C3.818 0.955 4.977 1.97 7.375 5.188 C9.364 9.084 9.234 11.758 8 16 C5.991 20.018 4.571 21.683 0.625 23.875 C-2.839 24.95 -5.406 25.263 -9 25 C-9 24.34 -9 23.68 -9 23 C-8.095 22.853 -8.095 22.853 -7.172 22.703 C-2.308 21.793 0.891 21.146 4 17 C5.862 13.276 5.145 9.639 4.25 5.688 C3.295 2.841 3.295 2.841 0.875 2.125 C0.256 2.084 -0.363 2.042 -1 2 C-0.67 1.34 -0.34 0.68 0 0 Z " fill="#060606" transform="translate(369,60)"/>
<path d="M0 0 C1.501 0.062 3.001 0.151 4.5 0.25 C5.753 0.32 5.753 0.32 7.031 0.391 C9.793 0.957 11.234 1.632 13.625 3 C18.76 5.704 23.795 5.668 29.5 5.75 C30.513 5.78 31.526 5.809 32.57 5.84 C35.047 5.91 37.523 5.963 40 6 C40.495 6.99 40.495 6.99 41 8 C37.313 8.088 33.626 8.141 29.938 8.188 C28.38 8.225 28.38 8.225 26.791 8.264 C19.081 8.337 14.469 7.313 8 3 C5.951 2.549 5.951 2.549 3.812 2.375 C2.554 2.251 1.296 2.127 0 2 C0 1.34 0 0.68 0 0 Z " fill="#FFFFFF" transform="translate(270,131)"/>
<path d="M0 0 C3.139 4.709 2.551 9.487 2 15 C-0.541 24.39 -5.465 31.031 -13 37 C-13.66 36.67 -14.32 36.34 -15 36 C-14.043 35.221 -14.043 35.221 -13.066 34.426 C-12.24 33.728 -11.414 33.031 -10.562 32.312 C-9.739 31.628 -8.915 30.944 -8.066 30.238 C-5.778 27.76 -5.319 26.309 -5 23 C-4.34 23 -3.68 23 -3 23 C-3.041 22.299 -3.082 21.597 -3.125 20.875 C-3 18 -3 18 -1.938 14.938 C-0.993 11.979 -0.91 10.833 -2 8 C-1.01 8 -0.02 8 1 8 C1 7.34 1 6.68 1 6 C0.34 5.67 -0.32 5.34 -1 5 C-0.67 3.35 -0.34 1.7 0 0 Z " fill="#000000" transform="translate(262,79)"/>
<path d="M0 0 C1.65 0 3.3 0 5 0 C5 3.63 5 7.26 5 11 C3.35 11 1.7 11 0 11 C0 10.34 0 9.68 0 9 C-2.31 9 -4.62 9 -7 9 C-5.688 7 -5.688 7 -4 5 C-3.01 5 -2.02 5 -1 5 C-0.67 3.35 -0.34 1.7 0 0 Z " fill="#FFFFFF" transform="translate(81,125)"/>
<path d="M0 0 C2 0.688 2 0.688 4 2.688 C3.875 5.125 3.875 5.125 3 7.688 C0.938 9.5 0.938 9.5 -1 10.688 C0.65 11.017 2.3 11.348 4 11.688 C4 12.678 4 13.668 4 14.688 C1.03 14.688 -1.94 14.688 -5 14.688 C-6 12.688 -6 12.688 -5.375 10.75 C-4 8.688 -4 8.688 -1.375 7.125 C-0.199 6.413 -0.199 6.413 1 5.688 C1 4.697 1 3.707 1 2.688 C-2.118 3.334 -2.118 3.334 -3 5.688 C-3.66 5.688 -4.32 5.688 -5 5.688 C-4.625 3.25 -4.625 3.25 -4 0.688 C-2 -0.312 -2 -0.312 0 0 Z " fill="#000000" transform="translate(355,307.3125)"/>
<path d="M0 0 C3 0.25 3 0.25 5 2.25 C5.25 4.75 5.25 4.75 5 7.25 C4.34 7.91 3.68 8.57 3 9.25 C-3.577 8.673 -3.577 8.673 -5 7.25 C-5.188 4.812 -5.188 4.812 -5 2.25 C-3 0.25 -3 0.25 0 0 Z " fill="#FFFFFF" transform="translate(363,66.75)"/>
<path d="M0 0 C0.99 0 1.98 0 3 0 C3.33 1.32 3.66 2.64 4 4 C3.01 4.495 3.01 4.495 2 5 C1.062 7.116 1.062 7.116 0.273 9.691 C-0.036 10.636 -0.345 11.58 -0.664 12.553 C-1.14 14.043 -1.14 14.043 -1.625 15.562 C-2.112 17.058 -2.112 17.058 -2.609 18.584 C-3.413 21.054 -4.21 23.526 -5 26 C-5.33 26 -5.66 26 -6 26 C-7.239 16.456 -3.592 8.616 0 0 Z " fill="#FFFFFF" transform="translate(166,269)"/>
<path d="M0 0 C7.59 0 15.18 0 23 0 C22.34 1.32 21.68 2.64 21 4 C13.37 4.349 7.076 4.002 0 1 C0 0.67 0 0.34 0 0 Z " fill="#FFFFFF" transform="translate(288,149)"/>
<path d="M0 0 C7.26 0 14.52 0 22 0 C16.125 4.406 10.226 4.723 3 4 C2.01 3.34 1.02 2.68 0 2 C0 1.34 0 0.68 0 0 Z " fill="#FFFFFF" transform="translate(71,149)"/>
<path d="M0 0 C-3.017 3.017 -6.97 3.827 -10.945 5.145 C-14.825 6.467 -14.825 6.467 -18 9 C-20.125 8.625 -20.125 8.625 -22 8 C-22 7.01 -22 6.02 -22 5 C-14.498 1.812 -8.24 -0.196 0 0 Z " fill="#FFFFFF" transform="translate(78,28)"/>
<path d="M0 0 C3.63 0 7.26 0 11 0 C11 0.99 11 1.98 11 3 C9.68 3 8.36 3 7 3 C7 6.63 7 10.26 7 14 C6.01 14.33 5.02 14.66 4 15 C4 11.04 4 7.08 4 3 C2.68 3 1.36 3 0 3 C0 2.01 0 1.02 0 0 Z " fill="#000000" transform="translate(322,307)"/>
<path d="M0 0 C0.66 0 1.32 0 2 0 C8.888 16.708 8.888 16.708 8 25 C5.508 20.435 3.939 15.469 2.211 10.58 C1.023 6.56 1.023 6.56 -2 4 C-1.34 2.68 -0.68 1.36 0 0 Z " fill="#FFFFFF" transform="translate(214,269)"/>
<path d="M0 0 C0.66 0.99 1.32 1.98 2 3 C1.34 3.66 0.68 4.32 0 5 C-0.677 7.197 -0.677 7.197 -1.125 9.625 C-1.376 10.851 -1.376 10.851 -1.633 12.102 C-1.754 12.728 -1.875 13.355 -2 14 C-1.34 14.33 -0.68 14.66 0 15 C-0.66 15 -1.32 15 -2 15 C-1.718 16.627 -1.424 18.251 -1.125 19.875 C-0.963 20.78 -0.8 21.685 -0.633 22.617 C-0.17 25.165 -0.17 25.165 2 27 C2.856 29.632 3.389 32.295 4 35 C-1.801 29.696 -3.581 22.418 -4.043 14.789 C-3.963 9.609 -3.788 3.788 0 0 Z " fill="#000000" transform="translate(123,73)"/>
<path d="M0 0 C0.99 0.99 1.98 1.98 3 3 C-6.9 3 -16.8 3 -27 3 C-27 2.67 -27 2.34 -27 2 C-5.778 -0.982 -5.778 -0.982 0 0 Z " fill="#FFFFFF" transform="translate(124,192)"/>
<path d="M0 0 C1 2 1 2 0.812 4.938 C0.69 8.026 0.69 8.026 2.625 9.875 C6.941 11.919 10.48 11.13 15 10 C15.33 7.03 15.66 4.06 16 1 C18 3 18 3 18.375 5.312 C17.882 8.849 16.421 10.437 14 13 C10.768 14.616 7.494 14.575 4 14 C1 12 1 12 -1 9 C-1.462 6.143 -1.293 3.929 -1 1 C-0.67 0.67 -0.34 0.34 0 0 Z " fill="#000000" transform="translate(355,67)"/>
<path d="M0 0 C0.66 1.32 1.32 2.64 2 4 C5.3 3.67 8.6 3.34 12 3 C12 2.01 12 1.02 12 0 C15.63 0 19.26 0 23 0 C16.483 4.888 13.167 5.302 5.152 5.559 C3.592 5.777 3.592 5.777 2 6 C1.34 6.99 0.68 7.98 0 9 C0 6.03 0 3.06 0 0 Z " fill="#FFFFFF" transform="translate(139,107)"/>
<path d="M0 0 C0.99 0.33 1.98 0.66 3 1 C3.39 2.6 3.762 4.206 4.125 5.812 C4.334 6.706 4.543 7.599 4.758 8.52 C5 11 5 11 3 14 C2.34 13.67 1.68 13.34 1 13 C0.34 13.66 -0.32 14.32 -1 15 C-1.221 12.876 -1.427 10.751 -1.625 8.625 C-1.741 7.442 -1.857 6.258 -1.977 5.039 C-1.984 4.036 -1.992 3.033 -2 2 C-1.34 1.34 -0.68 0.68 0 0 Z " fill="#969696" transform="translate(266,130)"/>
<path d="M0 0 C2.897 0.114 5.792 0.241 8.688 0.375 C9.504 0.406 10.321 0.437 11.162 0.469 C15.501 0.68 19.043 1.017 23 3 C22.34 4.32 21.68 5.64 21 7 C20.154 6.723 19.309 6.446 18.438 6.16 C12.263 4.189 6.469 2.507 0 2 C0 1.34 0 0.68 0 0 Z " fill="#FFFFFF" transform="translate(95,26)"/>
<path d="M0 0 C0.66 0 1.32 0 2 0 C3.095 3.285 3.1 5.737 3.062 9.188 C3.053 10.274 3.044 11.361 3.035 12.48 C3.024 13.312 3.012 14.143 3 15 C2.01 15 1.02 15 0 15 C-1.305 12.391 -1.133 10.411 -1.125 7.5 C-1.128 6.52 -1.13 5.541 -1.133 4.531 C-1 2 -1 2 0 0 Z " fill="#FFFFFF" transform="translate(81,21)"/>
<path d="M0 0 C3.3 0 6.6 0 10 0 C9.061 3.756 7.719 6.562 6 10 C5.314 12.235 5.314 12.235 5 14 C4.01 14 3.02 14 2 14 C3.75 6.375 3.75 6.375 6 3 C3.03 2.505 3.03 2.505 0 2 C0 1.34 0 0.68 0 0 Z " fill="#000000" transform="translate(360,308)"/>
<path d="M0 0 C1.724 2.73 1.852 4.207 1.5 7.375 C0.51 7.705 -0.48 8.035 -1.5 8.375 C-3.609 4.902 -3.609 4.902 -3.059 2.234 C-2.874 1.621 -2.69 1.007 -2.5 0.375 C-7.633 1.307 -11.361 2.093 -15.5 5.375 C-18.75 6.062 -18.75 6.062 -21.5 6.375 C-19.527 2.429 -14.419 1.004 -10.5 -0.625 C-6.521 -1.814 -3.65 -2.373 0 0 Z " fill="#000000" transform="translate(116.5,133.625)"/>
<path d="M0 0 C2.281 3.421 2.219 4.682 2.125 8.688 C2.107 9.681 2.089 10.675 2.07 11.699 C2.036 12.838 2.036 12.838 2 14 C1.01 14.33 0.02 14.66 -1 15 C-2.232 12.536 -2.167 10.811 -2.188 8.062 C-2.202 7.187 -2.216 6.312 -2.23 5.41 C-2 3 -2 3 0 0 Z " fill="#FFFFFF" transform="translate(92,20)"/>
<path d="M0 0 C0.66 0.66 1.32 1.32 2 2 C1.34 2 0.68 2 0 2 C0.33 2.99 0.66 3.98 1 5 C0.062 7.188 0.062 7.188 -1 9 C-0.34 9.33 0.32 9.66 1 10 C0.34 10.66 -0.32 11.32 -1 12 C-1.333 15 -1.333 15 -1 18 C-0.34 18.66 0.32 19.32 1 20 C0.34 21.32 -0.32 22.64 -1 24 C-1.66 23.67 -2.32 23.34 -3 23 C-3.054 20.271 -3.094 17.542 -3.125 14.812 C-3.142 14.044 -3.159 13.275 -3.176 12.482 C-3.213 8.2 -3.037 4.886 -1 1 C-0.67 0.67 -0.34 0.34 0 0 Z " fill="#000000" transform="translate(200,73)"/>
<path d="M0 0 C0.99 0.33 1.98 0.66 3 1 C2.438 2.813 2.438 2.813 1 5 C-2.991 7.069 -5.476 8 -10 8 C-10.33 7.01 -10.66 6.02 -11 5 C-10.01 4.01 -9.02 3.02 -8 2 C-5.69 2.66 -3.38 3.32 -1 4 C-0.67 2.68 -0.34 1.36 0 0 Z " fill="#000000" transform="translate(117,28)"/>
<path d="M0 0 C0 0.66 0 1.32 0 2 C-6.876 4.159 -12.785 5.355 -20 5 C-15.048 0.048 -6.681 -0.202 0 0 Z " fill="#FFFFFF" transform="translate(218,15)"/>
<path d="M0 0 C2.875 0.312 2.875 0.312 6 1 C8.152 4.228 8.201 5.284 8 9 C7.01 9.33 6.02 9.66 5 10 C4.67 9.01 4.34 8.02 4 7 C3.01 7 2.02 7 1 7 C1.66 5.02 2.32 3.04 3 1 C2.01 0.67 1.02 0.34 0 0 Z " fill="#555555" transform="translate(87,171)"/>
<path d="M0 0 C1.437 -0.054 2.875 -0.093 4.312 -0.125 C5.113 -0.148 5.914 -0.171 6.738 -0.195 C9 0 9 0 12 2 C12 2.66 12 3.32 12 4 C8.7 4 5.4 4 2 4 C1.34 2.68 0.68 1.36 0 0 Z " fill="#FFFFFF" transform="translate(292,172)"/>
<path d="M0 0 C2.375 -0.188 2.375 -0.188 5 0 C7.108 3.162 7.338 4.507 7.625 8.188 C7.7 9.089 7.775 9.99 7.852 10.918 C7.901 11.605 7.95 12.292 8 13 C7.34 13 6.68 13 6 13 C5.818 12.374 5.636 11.747 5.449 11.102 C5.072 9.876 5.072 9.876 4.688 8.625 C4.322 7.407 4.322 7.407 3.949 6.164 C3.086 3.668 3.086 3.668 0 2 C0 1.34 0 0.68 0 0 Z " fill="#F8F8F8" transform="translate(367,62)"/>
<path d="M0 0 C1.485 0.99 1.485 0.99 3 2 C3.221 4.627 3.282 7.009 3.188 9.625 C3.167 10.685 3.167 10.685 3.146 11.766 C3.111 13.511 3.057 15.255 3 17 C2.34 17 1.68 17 1 17 C0.67 11.39 0.34 5.78 0 0 Z " fill="#FFFFFF" transform="translate(88,119)"/>
<path d="M0 0 C3.3 0 6.6 0 10 0 C10.33 0.99 10.66 1.98 11 3 C7.7 3.33 4.4 3.66 1 4 C0.67 2.68 0.34 1.36 0 0 Z " fill="#000000" transform="translate(144,97)"/>
<path d="M0 0 C2.31 0 4.62 0 7 0 C7.33 0.66 7.66 1.32 8 2 C7.34 2 6.68 2 6 2 C6 7.28 6 12.56 6 18 C5.67 18 5.34 18 5 18 C5 12.72 5 7.44 5 2 C3.02 2 1.04 2 -1 2 C-0.67 1.34 -0.34 0.68 0 0 Z " fill="#000000" transform="translate(345,157)"/>
<path d="M0 0 C6.152 0.586 6.152 0.586 8 1 C8.33 1.66 8.66 2.32 9 3 C5.629 4.498 3.796 5 0 5 C0 3.35 0 1.7 0 0 Z " fill="#FFFFFF" transform="translate(95,29)"/>
<path d="M0 0 C0.66 0.33 1.32 0.66 2 1 C1.67 1.66 1.34 2.32 1 3 C1.99 2.67 2.98 2.34 4 2 C4.667 4 5.333 6 6 8 C5.01 8.33 4.02 8.66 3 9 C1.35 6.69 -0.3 4.38 -2 2 C-1.34 1.34 -0.68 0.68 0 0 Z " fill="#080808" transform="translate(370,116)"/>
<path d="M0 0 C1.093 0.33 2.186 0.66 3.312 1 C6.846 2.131 6.846 2.131 10 2 C10.66 2.33 11.32 2.66 12 3 C8.577 6.15 5.557 6.562 1 7 C1.33 6.34 1.66 5.68 2 5 C3.32 5 4.64 5 6 5 C6 4.34 6 3.68 6 3 C4.02 2.34 2.04 1.68 0 1 C0 0.67 0 0.34 0 0 Z " fill="#000000" transform="translate(247,18)"/>
<path d="M0 0 C2 3 2 3 1.625 5.188 C1.419 5.786 1.212 6.384 1 7 C0.34 6.67 -0.32 6.34 -1 6 C-1.33 7.32 -1.66 8.64 -2 10 C-2.688 7.25 -2.688 7.25 -3 4 C-1.562 1.625 -1.562 1.625 0 0 Z " fill="#444444" transform="translate(264,126)"/>
<path d="M0 0 C0 1.32 0 2.64 0 4 C-2.31 4 -4.62 4 -7 4 C-6.625 2.062 -6.625 2.062 -6 0 C-3.509 -1.245 -2.589 -0.777 0 0 Z " fill="#000000" transform="translate(259,86)"/>
<path d="M0 0 C0.99 0.33 1.98 0.66 3 1 C3 3.31 3 5.62 3 8 C2.01 7.67 1.02 7.34 0 7 C-0.33 6.01 -0.66 5.02 -1 4 C-1.66 3.34 -2.32 2.68 -3 2 C-2.01 1.34 -1.02 0.68 0 0 Z " fill="#707070" transform="translate(115,128)"/>
<path d="M0 0 C0.66 1.32 1.32 2.64 2 4 C1.34 4 0.68 4 0 4 C-0.33 3.67 -0.66 3.34 -1 3 C-1.99 3.495 -1.99 3.495 -3 4 C-3 4.66 -3 5.32 -3 6 C-4.875 6.625 -4.875 6.625 -7 7 C-7.66 6.34 -8.32 5.68 -9 5 C-6.03 3.35 -3.06 1.7 0 0 Z " fill="#000000" transform="translate(217,56)"/>
<path d="M0 0 C2.97 0.33 5.94 0.66 9 1 C8.67 1.66 8.34 2.32 8 3 C5.678 3.407 3.343 3.744 1 4 C0.67 2.68 0.34 1.36 0 0 Z " fill="#FFFFFF" transform="translate(235,18)"/>
<path d="M0 0 C2.475 0.495 2.475 0.495 5 1 C5 1.66 5 2.32 5 3 C3.35 2.67 1.7 2.34 0 2 C0 1.34 0 0.68 0 0 Z M0 4 C1.32 4.33 2.64 4.66 4 5 C4 5.66 4 6.32 4 7 C2.02 7 0.04 7 -2 7 C-1.34 6.01 -0.68 5.02 0 4 Z " fill="#5B5B5B" transform="translate(241,17)"/>
<path d="M0 0 C2.64 0.99 5.28 1.98 8 3 C7.67 3.66 7.34 4.32 7 5 C4.69 5 2.38 5 0 5 C-0.33 4.01 -0.66 3.02 -1 2 C-0.67 1.34 -0.34 0.68 0 0 Z " fill="#FFFFFF" transform="translate(293,179)"/>
<path d="M0 0 C1.938 0.375 1.938 0.375 4 1 C4.33 1.66 4.66 2.32 5 3 C4.67 3.66 4.34 4.32 4 5 C2.35 5 0.7 5 -1 5 C-0.67 3.35 -0.34 1.7 0 0 Z " fill="#0A0A0A" transform="translate(37,126)"/>
<path d="M0 0 C6.75 -0.125 6.75 -0.125 9 1 C8.67 1.99 8.34 2.98 8 4 C5.333 4 2.667 4 0 4 C0 2.68 0 1.36 0 0 Z " fill="#000000" transform="translate(226,96)"/>
<path d="M0 0 C1.675 0.286 3.344 0.618 5 1 C5 2.32 5 3.64 5 5 C3.35 5 1.7 5 0 5 C-0.562 3.062 -0.562 3.062 -1 1 C-0.67 0.67 -0.34 0.34 0 0 Z " fill="#000000" transform="translate(242,64)"/>
<path d="M0 0 C0 1.32 0 2.64 0 4 C-2.875 4.125 -2.875 4.125 -6 4 C-6.66 3.34 -7.32 2.68 -8 2 C-2.25 0 -2.25 0 0 0 Z " fill="#FFFFFF" transform="translate(78,31)"/>
<path d="M0 0 C1.98 0.495 1.98 0.495 4 1 C3.67 2.32 3.34 3.64 3 5 C1.68 4.67 0.36 4.34 -1 4 C-0.67 2.68 -0.34 1.36 0 0 Z " fill="#0C0C0C" transform="translate(17,126)"/>
<path d="M0 0 C1.98 0 3.96 0 6 0 C6 1.32 6 2.64 6 4 C4.02 4 2.04 4 0 4 C0 2.68 0 1.36 0 0 Z " fill="#000000" transform="translate(251,94)"/>
<path d="M0 0 C2.31 0 4.62 0 7 0 C7 0.99 7 1.98 7 3 C4.69 3 2.38 3 0 3 C0 2.01 0 1.02 0 0 Z " fill="#000000" transform="translate(251,78)"/>
<path d="M0 0 C1.207 0.031 1.207 0.031 2.438 0.062 C2.438 1.382 2.438 2.703 2.438 4.062 C0.787 4.062 -0.863 4.062 -2.562 4.062 C-2.893 3.073 -3.222 2.082 -3.562 1.062 C-2.562 0.062 -2.562 0.062 0 0 Z " fill="#000000" transform="translate(250.5625,69.9375)"/>
<path d="M0 0 C1.98 0 3.96 0 6 0 C5.34 1.32 4.68 2.64 4 4 C2.68 4 1.36 4 0 4 C0 2.68 0 1.36 0 0 Z " fill="#000000" transform="translate(217,63)"/>
<path d="M0 0 C1.207 0.031 1.207 0.031 2.438 0.062 C2.768 1.053 3.097 2.042 3.438 3.062 C2.438 4.062 2.438 4.062 -0.125 4.125 C-1.332 4.094 -1.332 4.094 -2.562 4.062 C-2.893 3.073 -3.222 2.083 -3.562 1.062 C-2.562 0.062 -2.562 0.062 0 0 Z " fill="#000000" transform="translate(236.5625,60.9375)"/>
<path d="M0 0 C2.31 0 4.62 0 7 0 C7 1.32 7 2.64 7 4 C5.35 3.67 3.7 3.34 2 3 C2 2.34 2 1.68 2 1 C1.34 0.67 0.68 0.34 0 0 Z " fill="#FFFFFF" transform="translate(200,98)"/>
<path d="M0 0 C1.675 0.286 3.344 0.618 5 1 C4.67 2.32 4.34 3.64 4 5 C2.68 5 1.36 5 0 5 C-0.562 3.062 -0.562 3.062 -1 1 C-0.67 0.67 -0.34 0.34 0 0 Z " fill="#000000" transform="translate(226,60)"/>
<path d="M0 0 C0 1.32 0 2.64 0 4 C-2.31 4 -4.62 4 -7 4 C-3.375 0 -3.375 0 0 0 Z " fill="#FFFFFF" transform="translate(68,34)"/>
<path d="M0 0 C1.98 0.66 3.96 1.32 6 2 C6 2.66 6 3.32 6 4 C4.02 4.33 2.04 4.66 0 5 C-0.33 4.01 -0.66 3.02 -1 2 C-0.67 1.34 -0.34 0.68 0 0 Z " fill="#FFFFFF" transform="translate(247,19)"/>
<path d="M0 0 C0.33 0 0.66 0 1 0 C1.33 3.3 1.66 6.6 2 10 C1.01 9.67 0.02 9.34 -1 9 C-1.33 7.35 -1.66 5.7 -2 4 C-1.34 4 -0.68 4 0 4 C0 2.68 0 1.36 0 0 Z " fill="#000000" transform="translate(263,132)"/>
<path d="M0 0 C0.33 0.66 0.66 1.32 1 2 C2.32 1.67 3.64 1.34 5 1 C4.67 2.32 4.34 3.64 4 5 C2.68 5.33 1.36 5.66 0 6 C0 4.02 0 2.04 0 0 Z " fill="#A1A1A1" transform="translate(251,125)"/>
<path d="M0 0 C2.31 0 4.62 0 7 0 C7 0.99 7 1.98 7 3 C5.02 3 3.04 3 1 3 C0.67 2.01 0.34 1.02 0 0 Z " fill="#0D0D0D" transform="translate(156,97)"/>
<path d="M0 0 C1.65 0 3.3 0 5 0 C4.67 1.32 4.34 2.64 4 4 C2.68 4 1.36 4 0 4 C0 2.68 0 1.36 0 0 Z " fill="#000000" transform="translate(129,73)"/>
<path d="M0 0 C1.65 0 3.3 0 5 0 C5 1.32 5 2.64 5 4 C3.35 4 1.7 4 0 4 C0 2.68 0 1.36 0 0 Z " fill="#0D0D0D" transform="translate(138,64)"/>
<path d="M0 0 C2.31 0.66 4.62 1.32 7 2 C4.668 3.206 2.504 4.165 0 5 C-0.33 4.01 -0.66 3.02 -1 2 C-0.67 1.34 -0.34 0.68 0 0 Z " fill="#FFFFFF" transform="translate(107,31)"/>
<path d="M0 0 C1.32 0.33 2.64 0.66 4 1 C3.67 2.32 3.34 3.64 3 5 C2.01 5 1.02 5 0 5 C0 3.35 0 1.7 0 0 Z " fill="#FFFFFF" transform="translate(342,310)"/>
<path d="M0 0 C1.65 0 3.3 0 5 0 C4.67 1.32 4.34 2.64 4 4 C2.68 3.67 1.36 3.34 0 3 C0 2.01 0 1.02 0 0 Z " fill="#0E0E0E" transform="translate(173,98)"/>
<path d="M0 0 C1.32 0 2.64 0 4 0 C4 1.32 4 2.64 4 4 C2.35 3.67 0.7 3.34 -1 3 C-0.67 2.01 -0.34 1.02 0 0 Z " fill="#000000" transform="translate(173,73)"/>
<path d="M0 0 C0.33 1.98 0.66 3.96 1 6 C-0.32 6.33 -1.64 6.66 -3 7 C-3 5.02 -3 3.04 -3 1 C-1 0 -1 0 0 0 Z " fill="#FFFFFF" transform="translate(88,29)"/>
<path d="M0 0 C0.33 1.32 0.66 2.64 1 4 C-1.31 3.67 -3.62 3.34 -6 3 C-3.861 0.861 -2.867 0.573 0 0 Z " fill="#FFFFFF" transform="translate(217,18)"/>
<path d="M0 0 C0.99 0.33 1.98 0.66 3 1 C2.67 2.32 2.34 3.64 2 5 C1.01 5 0.02 5 -1 5 C-0.67 3.35 -0.34 1.7 0 0 Z " fill="#FFFFFF" transform="translate(375,315)"/>
<path d="M0 0 C1.376 1.29 2.708 2.627 4 4 C4 4.66 4 5.32 4 6 C2.68 6 1.36 6 0 6 C-0.382 4.344 -0.714 2.675 -1 1 C-0.67 0.67 -0.34 0.34 0 0 Z " fill="#3C3C3C" transform="translate(291,172)"/>
<path d="M0 0 C2.062 0.438 2.062 0.438 4 1 C3.67 2.32 3.34 3.64 3 5 C2.01 5 1.02 5 0 5 C-0.562 3.062 -0.562 3.062 -1 1 C-0.67 0.67 -0.34 0.34 0 0 Z " fill="#000000" transform="translate(177,85)"/>
<path d="M0 0 C1.32 0 2.64 0 4 0 C3.67 1.32 3.34 2.64 3 4 C1.68 3.67 0.36 3.34 -1 3 C-0.67 2.01 -0.34 1.02 0 0 Z " fill="#000000" transform="translate(206,74)"/>
<path d="M0 0 C1.98 0.495 1.98 0.495 4 1 C4 1.99 4 2.98 4 4 C2.35 4 0.7 4 -1 4 C-0.67 2.68 -0.34 1.36 0 0 Z " fill="#000000" transform="translate(211,67)"/>
</svg>
