<?xml version="1.0" encoding="UTF-8"?>
<!-- Generator: visioncortex VTracer 0.6.4 -->
<svg version="1.1" xmlns="http://www.w3.org/2000/svg" width="338" height="287">
<path d="M0 0 C111.54 0 223.08 0 338 0 C338 94.71 338 189.42 338 287 C226.46 287 114.92 287 0 287 C0 192.29 0 97.58 0 0 Z " fill="#FFFFFF" transform="translate(0,0)"/>
<path d="M0 0 C5.773 0.543 10.318 2.845 15.438 5.375 C17.886 6.567 20.335 7.756 22.79 8.934 C24.624 9.819 26.446 10.727 28.266 11.641 C34.896 14.054 41.913 14.844 48.865 15.93 C59.397 17.717 67.196 20.926 75 28.258 C77.078 30.068 79.201 31.4 81.562 32.812 C87.944 36.909 91.783 43.255 95 50 C98.465 49.505 98.465 49.505 102 49 C102.66 44.38 103.32 39.76 104 35 C104.66 35 105.32 35 106 35 C106.027 36.396 106.047 37.792 106.062 39.188 C106.074 39.965 106.086 40.742 106.098 41.543 C105.995 44.121 105.567 46.487 105 49 C106.663 48.983 106.663 48.983 108.359 48.965 C109.823 48.955 111.286 48.946 112.75 48.938 C113.48 48.929 114.209 48.921 114.961 48.912 C118.487 48.896 121.61 49.047 125 50 C125.928 48.793 125.928 48.793 126.875 47.562 C129 45 129 45 131 44 C134.53 43.847 137.615 43.959 141 45 C141.186 43.298 141.186 43.298 141.375 41.562 C141.581 40.387 141.787 39.211 142 38 C142.66 37.67 143.32 37.34 144 37 C144 39.64 144 42.28 144 45 C158.322 47.035 172.655 48.82 187.038 50.363 C190.12 50.694 193.202 51.031 196.283 51.369 C198.263 51.584 200.243 51.798 202.223 52.012 C203.134 52.112 204.045 52.212 204.984 52.315 C206.632 52.49 208.28 52.655 209.93 52.807 C211.598 52.963 213.262 53.162 214.924 53.374 C215.609 53.251 216.294 53.127 217 53 C217.584 51.763 217.584 51.763 218.18 50.5 C220 48 220 48 223.239 47.476 C224.548 47.525 225.856 47.573 227.203 47.624 C227.914 47.644 228.624 47.665 229.356 47.687 C231.573 47.762 233.785 47.875 236 48 C237.298 48.066 238.597 48.132 239.935 48.2 C243.875 48.434 247.81 48.719 251.746 49.023 C253.178 49.131 254.61 49.238 256.042 49.345 C259.003 49.568 261.963 49.796 264.923 50.026 C268.722 50.322 272.522 50.603 276.322 50.88 C279.261 51.096 282.199 51.322 285.136 51.549 C286.539 51.657 287.942 51.761 289.346 51.863 C291.289 52.004 293.231 52.159 295.174 52.314 C296.278 52.398 297.382 52.483 298.52 52.57 C299.338 52.712 300.157 52.854 301 53 C302 55 302 55 301.441 56.945 C300.628 58.964 299.814 60.982 299 63 C302.63 63.33 306.26 63.66 310 64 C310 64.66 310 65.32 310 66 C296.604 65.409 283.328 64.208 270 62.75 C267.915 62.525 265.829 62.3 263.744 62.076 C250.84 60.677 237.948 59.183 225.062 57.625 C207.746 55.533 190.419 53.543 173.084 51.615 C170.164 51.291 167.245 50.962 164.326 50.63 C160.222 50.164 156.117 49.71 152.012 49.258 C150.771 49.115 149.53 48.973 148.252 48.826 C147.105 48.702 145.958 48.578 144.776 48.45 C143.777 48.338 142.778 48.227 141.748 48.112 C138.929 47.997 136.696 48.165 134 49 C132.625 51.476 132.625 51.476 132 54 C137.861 55.408 143.638 56.434 149.629 57.066 C150.444 57.156 151.258 57.245 152.097 57.338 C154.775 57.632 157.454 57.92 160.133 58.207 C162.033 58.414 163.934 58.622 165.834 58.831 C170.889 59.383 175.944 59.93 180.999 60.475 C186.216 61.038 191.431 61.608 196.646 62.176 C220.251 64.746 243.858 67.289 267.47 69.779 C280.319 71.133 293.162 72.547 306 74 C306 74.99 306 75.98 306 77 C302.37 76.67 298.74 76.34 295 76 C295.33 77.32 295.66 78.64 296 80 C300.29 80.66 304.58 81.32 309 82 C309 82.66 309 83.32 309 84 C304.05 84 299.1 84 294 84 C294 83.34 294 82.68 294 82 C292.021 82.055 292.021 82.055 290.002 82.112 C283.344 82.107 276.793 81.296 270.195 80.488 C267.922 80.21 265.648 79.939 263.374 79.67 C258.561 79.099 253.749 78.519 248.938 77.938 C243.328 77.26 237.717 76.587 232.106 75.923 C229.862 75.655 227.62 75.381 225.377 75.106 C224.014 74.944 222.652 74.782 221.289 74.621 C219.499 74.404 219.499 74.404 217.672 74.183 C216.35 74.093 216.35 74.093 215 74 C214.67 74.33 214.34 74.66 214 75 C215.264 75.078 215.264 75.078 216.553 75.158 C225.244 75.731 233.841 76.63 242.48 77.742 C243.827 77.913 245.174 78.084 246.521 78.254 C249.324 78.61 252.127 78.968 254.929 79.329 C258.46 79.782 261.992 80.23 265.524 80.677 C280.387 82.556 295.225 84.514 310 87 C310 87.33 310 87.66 310 88 C303.881 88.106 298.08 87.774 292.027 86.906 C290.815 86.74 290.815 86.74 289.577 86.57 C287.03 86.219 284.484 85.86 281.938 85.5 C280.196 85.259 278.455 85.018 276.713 84.777 C272.474 84.191 268.237 83.598 264 83 C264.99 83.33 265.98 83.66 267 84 C270 87.444 270 87.444 270 90 C270.743 90.021 271.485 90.041 272.25 90.062 C275.428 91.146 275.728 91.745 277.312 94.562 C277.869 95.697 278.426 96.831 279 98 C287.051 97.148 293.928 94.596 301.248 91.301 C306.698 88.899 306.698 88.899 310 90 C290.93 99 290.93 99 284 99 C284 99.66 284 100.32 284 101 C294.68 98.021 294.68 98.021 304.812 93.625 C305.864 93.089 306.916 92.552 308 92 C308.99 92.33 309.98 92.66 311 93 C306.25 96 306.25 96 304 96 C303.773 96.804 303.546 97.609 303.312 98.438 C301.931 102.188 300.105 105.226 297.926 108.559 C296.629 111.98 297.346 114.431 298 118 C299.016 129.662 297.523 138.026 290.172 147.309 C279.692 158.577 266.682 161.697 252 164 C266.384 165.246 266.384 165.246 278.754 158.879 C285.502 153.234 294.602 150.998 303 149 C303 149.99 303 150.98 303 152 C301.043 152.67 299.084 153.336 297.125 154 C296.034 154.371 294.944 154.743 293.82 155.125 C291 156 291 156 289 156 C289 158.31 289 160.62 289 163 C290.98 163 292.96 163 295 163 C295.041 162.402 295.082 161.804 295.125 161.188 C296 159 296 159 298.5 157.438 C309.304 153 309.304 153 315 153 C315 153.66 315 154.32 315 155 C309.375 158 309.375 158 306 158 C306.33 164.93 306.66 171.86 307 179 C308.98 178.01 310.96 177.02 313 176 C313.66 176 314.32 176 315 176 C315 176.66 315 177.32 315 178 C313.755 178.677 312.504 179.341 311.25 180 C310.554 180.371 309.858 180.743 309.141 181.125 C307 182 307 182 303 182 C303.33 178.7 303.66 175.4 304 172 C303.257 172.165 302.515 172.33 301.75 172.5 C299 173 299 173 295 173 C294.67 173.66 294.34 174.32 294 175 C292.361 175.73 292.361 175.73 290.246 176.402 C289.473 176.653 288.701 176.904 287.904 177.162 C287.09 177.418 286.276 177.674 285.438 177.938 C283.852 178.445 282.268 178.954 280.684 179.465 C279.978 179.688 279.272 179.911 278.545 180.14 C275.77 181.078 273.036 182.11 270.296 183.144 C265.877 184.791 261.424 186.346 256.977 187.914 C255.925 188.286 254.874 188.657 253.79 189.04 C248.08 191.057 242.368 193.068 236.654 195.076 C234.355 195.884 232.057 196.692 229.758 197.5 C228.635 197.894 227.513 198.289 226.356 198.695 C220.305 200.825 214.266 202.983 208.242 205.188 C207.063 205.613 205.884 206.039 204.669 206.478 C202.649 207.209 200.633 207.953 198.624 208.713 C192.295 210.98 186.701 211.39 180 211 C180 211.99 180 212.98 180 214 C179.34 214.33 178.68 214.66 178 215 C177.845 216.671 177.845 216.671 177.688 218.375 C177 222 177 222 174.75 223.875 C169.782 225.907 165.702 225.994 160.375 225.688 C155.258 225.64 152.107 226.059 147.75 228.75 C134.497 236.926 116.402 237.945 101.336 235.375 C81.708 230.128 67.908 214.191 57.879 197.41 C42.36 169.244 36.426 133.011 45.445 101.84 C49.502 88.624 54.464 77.234 64 67 C60.589 65.903 57.793 66.058 54.25 66.438 C52.773 66.59 52.773 66.59 51.266 66.746 C50.144 66.872 50.144 66.872 49 67 C48.734 67.808 48.469 68.616 48.195 69.449 C47.801 70.291 47.406 71.133 47 72 C43.875 72.812 43.875 72.812 41 73 C40.67 74.98 40.34 76.96 40 79 C39.34 79 38.68 79 38 79 C38 79.66 38 80.32 38 81 C37.381 81.062 36.763 81.124 36.125 81.188 C35.073 81.59 35.073 81.59 34 82 C33.72 82.764 33.441 83.529 33.152 84.316 C31.768 87.541 30.255 88.706 27.438 90.75 C26.229 91.639 26.229 91.639 24.996 92.547 C24.337 93.026 23.679 93.506 23 94 C22.67 94.33 22.34 94.66 22 95 C10.457 96.597 -2.455 92.712 -12.082 86.465 C-13.902 85.075 -15.507 83.737 -17 82 C-17 81.34 -17 80.68 -17 80 C-14.608 81.063 -12.888 82.102 -10.938 83.875 C-2.58 89.921 10.698 93.288 21 92 C22.982 90.139 22.982 90.139 24 88 C21.03 87.505 21.03 87.505 18 87 C18 86.34 18 85.68 18 85 C21.63 85.33 25.26 85.66 29 86 C29.66 84.35 30.32 82.7 31 81 C28.69 79.68 26.38 78.36 24 77 C24 76.34 24 75.68 24 75 C27.821 75.531 30.062 76.497 33 79 C35.993 77.902 36.846 77.323 38.25 74.375 C38.498 73.591 38.745 72.808 39 72 C38.443 71.752 37.886 71.505 37.312 71.25 C34.6 69.784 32.364 67.97 30 66 C30.495 64.515 30.495 64.515 31 63 C31.433 63.474 31.866 63.949 32.312 64.438 C34.023 66.237 34.023 66.237 37 67 C37.433 67.516 37.866 68.031 38.312 68.562 C40.786 70.669 42.864 70.209 46 70 C46 66.7 46 63.4 46 60 C45.134 59.752 44.267 59.505 43.375 59.25 C37.623 57.12 33.095 53.327 28.312 49.562 C15.44 39.943 5.599 38.92 -10 41 C-9.67 40.01 -9.34 39.02 -9 38 C-5.535 37.505 -5.535 37.505 -2 37 C-3.98 36.01 -5.96 35.02 -8 34 C-8 33.34 -8 32.68 -8 32 C-0.079 33.556 7.512 35.943 15.184 38.417 C16.703 38.905 18.226 39.38 19.75 39.852 C26.654 42.033 32.862 45.164 39 49 C39.33 48.01 39.66 47.02 40 46 C43.341 43.772 43.628 43.838 47.312 44.5 C51.401 45.081 54.153 44.677 58 43 C54.881 40.235 53.074 39.668 48.938 39.875 C39.346 40.105 31.586 39.558 23 35 C27.032 33.387 29.973 34.816 34 36 C36.64 36.276 39.287 36.484 41.938 36.625 C42.621 36.664 43.305 36.702 44.01 36.742 C45.673 36.835 47.336 36.919 49 37 C49.33 36.01 49.66 35.02 50 34 C50.701 34.459 51.403 34.918 52.125 35.391 C57.625 38.948 63.075 42.205 69 45 C69.33 42.69 69.66 40.38 70 38 C69.047 37.348 68.095 36.695 67.113 36.023 C65.846 35.141 64.579 34.258 63.312 33.375 C62.687 32.948 62.061 32.522 61.416 32.082 C57.214 29.134 54.041 26.152 51 22 C51 21.34 51 20.68 51 20 C51.99 20 52.98 20 54 20 C54.99 21.516 54.99 21.516 56 23.062 C58.921 27.449 62.743 29.559 67.199 32.23 C71.519 34.96 76.663 38.326 79 43 C79.949 43.474 80.897 43.949 81.875 44.438 C84.553 45.777 86.183 46.678 88 49 C88 49.66 88 50.32 88 51 C86 50 84 49 82 48 C83.602 50.187 83.602 50.187 86 52 C89.2 51.857 89.2 51.857 92 51 C90.435 47.541 88.791 44.608 86.312 41.75 C84 39 84 39 84 37 C83.428 36.727 82.855 36.453 82.266 36.172 C76.122 32.994 70.542 28.78 65.215 24.395 C58.95 20.45 52.325 19.406 45.125 18.5 C33.049 16.796 23.614 13.509 12.809 7.941 C8.611 5.782 4.338 3.859 0 2 C0 1.34 0 0.68 0 0 Z " fill="#0B0B0B" transform="translate(18,16)"/>
<path d="M0 0 C5.773 0.543 10.318 2.845 15.438 5.375 C17.886 6.567 20.335 7.756 22.79 8.934 C24.624 9.819 26.446 10.727 28.266 11.641 C34.896 14.054 41.913 14.844 48.865 15.93 C59.397 17.717 67.196 20.926 75 28.258 C77.078 30.068 79.201 31.4 81.562 32.812 C87.944 36.909 91.783 43.255 95 50 C98.465 49.505 98.465 49.505 102 49 C102.66 44.38 103.32 39.76 104 35 C104.66 35 105.32 35 106 35 C106.027 36.396 106.047 37.792 106.062 39.188 C106.074 39.965 106.086 40.742 106.098 41.543 C105.995 44.121 105.567 46.487 105 49 C106.663 48.983 106.663 48.983 108.359 48.965 C109.823 48.955 111.286 48.946 112.75 48.938 C113.48 48.929 114.209 48.921 114.961 48.912 C118.487 48.896 121.61 49.047 125 50 C125.928 48.793 125.928 48.793 126.875 47.562 C129 45 129 45 131 44 C134.53 43.847 137.615 43.959 141 45 C141.186 43.298 141.186 43.298 141.375 41.562 C141.581 40.387 141.787 39.211 142 38 C142.66 37.67 143.32 37.34 144 37 C144 39.64 144 42.28 144 45 C158.322 47.035 172.655 48.82 187.038 50.363 C190.12 50.694 193.202 51.031 196.283 51.369 C198.263 51.584 200.243 51.798 202.223 52.012 C203.134 52.112 204.045 52.212 204.984 52.315 C206.632 52.49 208.28 52.655 209.93 52.807 C211.598 52.963 213.262 53.162 214.924 53.374 C215.609 53.251 216.294 53.127 217 53 C217.584 51.763 217.584 51.763 218.18 50.5 C220 48 220 48 223.239 47.476 C224.548 47.525 225.856 47.573 227.203 47.624 C227.914 47.644 228.624 47.665 229.356 47.687 C231.573 47.762 233.785 47.875 236 48 C237.298 48.066 238.597 48.132 239.935 48.2 C243.875 48.434 247.81 48.719 251.746 49.023 C253.178 49.131 254.61 49.238 256.042 49.345 C259.003 49.568 261.963 49.796 264.923 50.026 C268.722 50.322 272.522 50.603 276.322 50.88 C279.261 51.096 282.199 51.322 285.136 51.549 C286.539 51.657 287.942 51.761 289.346 51.863 C291.289 52.004 293.231 52.159 295.174 52.314 C296.278 52.398 297.382 52.483 298.52 52.57 C299.338 52.712 300.157 52.854 301 53 C302 55 302 55 301.441 56.945 C300.628 58.964 299.814 60.982 299 63 C302.63 63.33 306.26 63.66 310 64 C310 64.66 310 65.32 310 66 C296.604 65.409 283.328 64.208 270 62.75 C267.915 62.525 265.829 62.3 263.744 62.076 C250.84 60.677 237.948 59.183 225.062 57.625 C207.746 55.533 190.419 53.543 173.084 51.615 C170.164 51.291 167.245 50.962 164.326 50.63 C160.222 50.164 156.117 49.71 152.012 49.258 C150.771 49.115 149.53 48.973 148.252 48.826 C147.105 48.702 145.958 48.578 144.776 48.45 C143.777 48.338 142.778 48.227 141.748 48.112 C138.929 47.997 136.696 48.165 134 49 C132.625 51.476 132.625 51.476 132 54 C137.861 55.408 143.638 56.434 149.629 57.066 C150.444 57.156 151.258 57.245 152.097 57.338 C154.775 57.632 157.454 57.92 160.133 58.207 C162.033 58.414 163.934 58.622 165.834 58.831 C170.889 59.383 175.944 59.93 180.999 60.475 C186.216 61.038 191.431 61.608 196.646 62.176 C220.251 64.746 243.858 67.289 267.47 69.779 C280.319 71.133 293.162 72.547 306 74 C306 74.99 306 75.98 306 77 C302.37 76.67 298.74 76.34 295 76 C295.33 77.32 295.66 78.64 296 80 C300.29 80.66 304.58 81.32 309 82 C309 82.66 309 83.32 309 84 C304.05 84 299.1 84 294 84 C294 83.34 294 82.68 294 82 C292.021 82.055 292.021 82.055 290.002 82.112 C283.344 82.107 276.793 81.296 270.195 80.488 C267.922 80.21 265.648 79.939 263.374 79.67 C258.561 79.099 253.749 78.519 248.938 77.938 C243.328 77.26 237.717 76.587 232.106 75.923 C229.862 75.655 227.62 75.381 225.377 75.106 C224.014 74.944 222.652 74.782 221.289 74.621 C219.499 74.404 219.499 74.404 217.672 74.183 C216.35 74.093 216.35 74.093 215 74 C214.67 74.33 214.34 74.66 214 75 C215.264 75.078 215.264 75.078 216.553 75.158 C225.244 75.731 233.841 76.63 242.48 77.742 C243.827 77.913 245.174 78.084 246.521 78.254 C249.324 78.61 252.127 78.968 254.929 79.329 C258.46 79.782 261.992 80.23 265.524 80.677 C280.387 82.556 295.225 84.514 310 87 C310 87.33 310 87.66 310 88 C303.881 88.106 298.08 87.774 292.027 86.906 C290.815 86.74 290.815 86.74 289.577 86.57 C287.03 86.219 284.484 85.86 281.938 85.5 C280.196 85.259 278.455 85.018 276.713 84.777 C272.474 84.191 268.237 83.598 264 83 C264.99 83.33 265.98 83.66 267 84 C270 87.444 270 87.444 270 90 C270.743 90.021 271.485 90.041 272.25 90.062 C275.428 91.146 275.728 91.745 277.312 94.562 C277.869 95.697 278.426 96.831 279 98 C287.051 97.148 293.928 94.596 301.248 91.301 C306.698 88.899 306.698 88.899 310 90 C290.93 99 290.93 99 284 99 C284 99.66 284 100.32 284 101 C294.68 98.021 294.68 98.021 304.812 93.625 C305.864 93.089 306.916 92.552 308 92 C308.99 92.33 309.98 92.66 311 93 C306.25 96 306.25 96 304 96 C303.773 96.804 303.546 97.609 303.312 98.438 C301.931 102.188 300.105 105.226 297.926 108.559 C296.631 111.973 297.37 114.43 298 118 C298.089 120.582 298.13 123.166 298.125 125.75 C298.128 127.044 298.13 128.338 298.133 129.672 C298 133 298 133 297 136 C294.36 135.34 291.72 134.68 289 134 C288.918 134.743 288.835 135.485 288.75 136.25 C287.86 139.512 286.515 140.81 284 143 C285.333 139.667 286.667 136.333 288 133 C287.34 133 286.68 133 286 133 C286.33 131.02 286.66 129.04 287 127 C287.99 127 288.98 127 290 127 C289.867 126.276 289.734 125.551 289.598 124.805 C288.697 119.875 287.802 114.947 287 110 C285.02 110.99 285.02 110.99 283 112 C283.156 112.86 283.312 113.72 283.473 114.605 C284.622 122.003 285.621 129.372 281.438 135.938 C279.754 138.074 279.754 138.074 278 140 C277.24 140.845 277.24 140.845 276.465 141.707 C266.556 151.324 248.414 155.088 234.895 155.105 C233.939 155.071 232.984 155.036 232 155 C232.33 154.34 232.66 153.68 233 153 C235.322 152.593 237.657 152.256 240 152 C238.68 150.02 237.36 148.04 236 146 C234.68 146.33 233.36 146.66 232 147 C231.313 144.509 231 142.621 231 140 C230.34 139.01 229.68 138.02 229 137 C227.934 139.844 227.934 139.844 227.75 142.312 C226.693 146.101 224.632 148.098 222 151 C222 148 222 148 224 145 C223.216 144.691 222.433 144.381 221.625 144.062 C219 143 219 143 217 142 C216.01 142.66 215.02 143.32 214 144 C211.312 144.125 211.312 144.125 209 144 C209 145.65 209 147.3 209 149 C208.34 149 207.68 149 207 149 C206.85 147.816 206.85 147.816 206.696 146.608 C204.924 120.278 204.924 120.278 195 97 C190.542 94.278 187.258 93.638 182.07 93.707 C180.781 93.717 179.492 93.726 178.164 93.736 C176.818 93.761 175.471 93.787 174.125 93.812 C172.755 93.828 171.385 93.841 170.016 93.854 C166.677 93.889 163.339 93.938 160 94 C160.97 98.531 161.986 103.039 163.184 107.516 C168.08 125.878 170.382 143.963 170.842 162.951 C171.005 165.063 171.429 166.964 172 169 C171.01 168.67 170.02 168.34 169 168 C168.941 166.863 168.941 166.863 168.88 165.703 C167.697 144.027 165.664 123.053 158.953 102.301 C158 99 158 99 158 95 C156.02 95 154.04 95 152 95 C152.617 95.373 153.235 95.745 153.871 96.129 C156.609 98.536 157.085 100.445 158.062 103.938 C158.554 105.682 158.554 105.682 159.055 107.461 C159.367 108.629 159.679 109.797 160 111 C160.291 112.024 160.583 113.047 160.883 114.102 C162.771 121.049 163.631 127.816 164 135 C162.68 135.33 161.36 135.66 160 136 C158.813 133.75 158.813 133.75 158 131 C158.493 130.386 158.987 129.771 159.495 129.138 C161.243 127.113 161.243 127.113 160.913 124.637 C160.701 123.781 160.488 122.925 160.27 122.043 C160.043 121.095 159.817 120.147 159.584 119.17 C159.329 118.186 159.075 117.202 158.812 116.188 C158.46 114.729 158.46 114.729 158.1 113.24 C156.849 108.125 155.486 103.051 154 98 C153.01 98.495 153.01 98.495 152 99 C152.33 99.99 152.66 100.98 153 102 C151.044 102.838 149.085 103.67 147.125 104.5 C145.489 105.196 145.489 105.196 143.82 105.906 C141 107 141 107 139 107 C139 109.31 139 111.62 139 114 C138.34 114 137.68 114 137 114 C136.856 112.928 136.711 111.855 136.562 110.75 C134.2 101.318 125.864 92.451 118 87 C108.431 81.456 99.292 79.075 88.207 81.648 C78.127 85.306 71.167 92.774 66 102 C62.081 110.75 60.057 119.5 59 129 C59.159 128.322 59.317 127.644 59.48 126.945 C61.854 117.476 65.308 106.603 73.76 100.789 C75.687 99.686 77.635 98.673 79.625 97.688 C80.293 97.341 80.96 96.995 81.648 96.639 C86.857 93.967 90.598 92.846 96.438 92.812 C97.571 92.798 98.704 92.784 99.871 92.77 C102.855 92.989 104.493 93.442 107 95 C104 96 104 96 101 96 C101.606 96.184 102.212 96.369 102.836 96.559 C111.319 99.495 116.75 104.75 123 111 C123.959 111.371 123.959 111.371 124.938 111.75 C127.947 113.574 128.751 115.779 130 119 C129.67 119.99 129.34 120.98 129 122 C129.33 122.99 129.66 123.98 130 125 C130.66 125 131.32 125 132 125 C132.487 126.351 132.964 127.706 133.438 129.062 C133.704 129.817 133.971 130.571 134.246 131.348 C139.074 148.333 136.88 167.881 128.656 183.301 C124.068 190.779 118.503 194.769 110 197 C101.372 198.573 90.199 195.643 82.473 191.715 C80.446 190.274 78.746 188.77 77 187 C75.973 185.993 75.973 185.993 74.926 184.965 C68.713 178.453 65.264 171.291 62 163 C65.13 173.037 69.036 181.282 75 190 C75.409 190.615 75.817 191.23 76.238 191.863 C82.236 199.955 92.276 205.848 102 208 C109.95 208.98 116.072 207.99 123 204 C124.031 203.423 125.062 202.845 126.125 202.25 C138.234 192.774 142.648 179.435 146 165 C146.66 165 147.32 165 148 165 C146.292 177.72 142.459 188.274 134 198 C133.041 199.361 133.041 199.361 132.062 200.75 C126.149 207.201 118.523 209.779 110 211 C98.459 211.394 89.83 207.128 81.031 200 C79.05 198.049 78.222 196.444 77 194 C76.01 193.67 75.02 193.34 74 193 C63.113 178.105 56.743 160.472 56 142 C55.94 140.863 55.94 140.863 55.879 139.703 C55.409 122.775 59.138 104.386 70.363 91.23 C78.261 83.045 85.837 78.155 97.375 77.688 C110.047 78.057 120.397 84.677 128.949 93.609 C132.008 97.176 134.577 100.98 137 105 C139.97 104.505 139.97 104.505 143 104 C143.13 102.788 143.13 102.788 143.262 101.551 C144.134 94.915 144.693 91.19 150 87 C150 81.745 143.701 75.766 140.312 72.062 C138.061 69.987 138.061 69.987 135.688 68.312 C135.131 67.879 134.574 67.446 134 67 C134 66.34 134 65.68 134 65 C133.319 64.773 132.639 64.546 131.938 64.312 C129 63 129 63 125.938 60.625 C117.716 54.623 107.012 52.652 97 53 C91.839 53.888 86.959 55.347 82 57 C82.495 59.475 82.495 59.475 83 62 C81.68 62 80.36 62 79 62 C79 62.99 79 63.98 79 65 C76.697 66.152 75.365 66.032 72.812 66.062 C68.815 66.485 67 67.45 64.312 70.438 C63.169 71.929 62.065 73.451 61 75 C60.487 75.735 59.974 76.47 59.445 77.227 C54.859 84.332 51.962 92.121 49 100 C48.34 100 47.68 100 47 100 C48.771 88.586 54.247 78.403 61.715 69.672 C63.203 68.087 63.203 68.087 63 66 C58.38 66.33 53.76 66.66 49 67 C48.34 68.65 47.68 70.3 47 72 C43.875 72.812 43.875 72.812 41 73 C40.67 74.98 40.34 76.96 40 79 C39.34 79 38.68 79 38 79 C38 79.66 38 80.32 38 81 C37.381 81.062 36.763 81.124 36.125 81.188 C35.073 81.59 35.073 81.59 34 82 C33.72 82.764 33.441 83.529 33.152 84.316 C31.768 87.541 30.255 88.706 27.438 90.75 C26.229 91.639 26.229 91.639 24.996 92.547 C24.337 93.026 23.679 93.506 23 94 C22.67 94.33 22.34 94.66 22 95 C10.457 96.597 -2.455 92.712 -12.082 86.465 C-13.902 85.075 -15.507 83.737 -17 82 C-17 81.34 -17 80.68 -17 80 C-14.608 81.063 -12.888 82.102 -10.938 83.875 C-2.58 89.921 10.698 93.288 21 92 C22.982 90.139 22.982 90.139 24 88 C21.03 87.505 21.03 87.505 18 87 C18 86.34 18 85.68 18 85 C21.63 85.33 25.26 85.66 29 86 C29.66 84.35 30.32 82.7 31 81 C28.69 79.68 26.38 78.36 24 77 C24 76.34 24 75.68 24 75 C27.821 75.531 30.062 76.497 33 79 C35.993 77.902 36.846 77.323 38.25 74.375 C38.498 73.591 38.745 72.808 39 72 C38.443 71.752 37.886 71.505 37.312 71.25 C34.6 69.784 32.364 67.97 30 66 C30.495 64.515 30.495 64.515 31 63 C31.433 63.474 31.866 63.949 32.312 64.438 C34.023 66.237 34.023 66.237 37 67 C37.433 67.516 37.866 68.031 38.312 68.562 C40.786 70.669 42.864 70.209 46 70 C46 66.7 46 63.4 46 60 C45.134 59.752 44.267 59.505 43.375 59.25 C37.623 57.12 33.095 53.327 28.312 49.562 C15.44 39.943 5.599 38.92 -10 41 C-9.67 40.01 -9.34 39.02 -9 38 C-5.535 37.505 -5.535 37.505 -2 37 C-3.98 36.01 -5.96 35.02 -8 34 C-8 33.34 -8 32.68 -8 32 C-0.079 33.556 7.512 35.943 15.184 38.417 C16.703 38.905 18.226 39.38 19.75 39.852 C26.654 42.033 32.862 45.164 39 49 C39.33 48.01 39.66 47.02 40 46 C43.341 43.772 43.628 43.838 47.312 44.5 C51.401 45.081 54.153 44.677 58 43 C54.881 40.235 53.074 39.668 48.938 39.875 C39.346 40.105 31.586 39.558 23 35 C27.032 33.387 29.973 34.816 34 36 C36.64 36.276 39.287 36.484 41.938 36.625 C42.621 36.664 43.305 36.702 44.01 36.742 C45.673 36.835 47.336 36.919 49 37 C49.33 36.01 49.66 35.02 50 34 C50.701 34.459 51.403 34.918 52.125 35.391 C57.625 38.948 63.075 42.205 69 45 C69.33 42.69 69.66 40.38 70 38 C69.047 37.348 68.095 36.695 67.113 36.023 C65.846 35.141 64.579 34.258 63.312 33.375 C62.687 32.948 62.061 32.522 61.416 32.082 C57.214 29.134 54.041 26.152 51 22 C51 21.34 51 20.68 51 20 C51.99 20 52.98 20 54 20 C54.99 21.516 54.99 21.516 56 23.062 C58.921 27.449 62.743 29.559 67.199 32.23 C71.519 34.96 76.663 38.326 79 43 C79.949 43.474 80.897 43.949 81.875 44.438 C84.553 45.777 86.183 46.678 88 49 C88 49.66 88 50.32 88 51 C86 50 84 49 82 48 C83.602 50.187 83.602 50.187 86 52 C89.2 51.857 89.2 51.857 92 51 C90.435 47.541 88.791 44.608 86.312 41.75 C84 39 84 39 84 37 C83.428 36.727 82.855 36.453 82.266 36.172 C76.122 32.994 70.542 28.78 65.215 24.395 C58.95 20.45 52.325 19.406 45.125 18.5 C33.049 16.796 23.614 13.509 12.809 7.941 C8.611 5.782 4.338 3.859 0 2 C0 1.34 0 0.68 0 0 Z " fill="#131313" transform="translate(18,16)"/>
<path d="M0 0 C0.99 0.495 0.99 0.495 2 1 C2 1.66 2 2.32 2 3 C2.598 3.268 3.196 3.536 3.812 3.812 C5.998 4.999 7.413 6.096 9 8 C9 8.66 9 9.32 9 10 C10.485 10.495 10.485 10.495 12 11 C14.043 13.504 14.043 13.504 16.188 16.562 C16.903 17.574 17.618 18.586 18.355 19.629 C18.898 20.411 19.441 21.194 20 22 C19.01 22.495 19.01 22.495 18 23 C17.67 23.99 17.34 24.98 17 26 C16.01 26.66 15.02 27.32 14 28 C12.979 30.871 12.979 30.871 12.312 34.125 C12.061 35.221 11.81 36.316 11.551 37.445 C11.369 38.288 11.187 39.131 11 40 C10.196 40.124 9.391 40.248 8.562 40.375 C7.717 40.581 6.871 40.787 6 41 C5.505 41.99 5.505 41.99 5 43 C4.588 42.299 4.175 41.597 3.75 40.875 C-3.825 28.431 -13.133 19.252 -27.566 15.469 C-35.792 13.884 -43.805 15.026 -51.129 19.219 C-64.852 28.887 -70.565 42.113 -74 58 C-74.553 61.342 -74.868 64.616 -75 68 C-75.06 69.123 -75.06 69.123 -75.121 70.27 C-75.726 91.711 -69.192 114.96 -54.938 131.375 C-44.658 140.561 -35.125 146.596 -21 146 C-14.627 144.677 -9.159 143.007 -4 139 C-3.34 139 -2.68 139 -2 139 C-1.728 138.404 -1.456 137.809 -1.176 137.195 C-0.029 135.053 1.146 133.625 2.812 131.875 C10.444 123.058 13.001 112.001 16 101 C20.393 102.922 22.859 104.609 25.562 108.562 C27.958 112.085 27.958 112.085 31.652 114.027 C34 115 34 115 34.91 116.75 C35.406 129.165 25.831 144.877 18 154 C17.34 154 16.68 154 16 154 C15.67 154.99 15.34 155.98 15 157 C14.34 157 13.68 157 13 157 C12.67 157.99 12.34 158.98 12 160 C0.12 169.487 -12.246 171.41 -27 170 C-42.585 167.158 -56.381 155.456 -65.546 142.878 C-84.181 115.385 -92.838 80.727 -86.625 47.766 C-83.873 35.59 -80.26 24.078 -73.5 13.5 C-73.132 12.925 -72.765 12.349 -72.386 11.757 C-66.272 2.555 -66.272 2.555 -61.105 1.293 C-60.143 1.258 -59.18 1.223 -58.188 1.188 C-57.212 1.14 -56.236 1.092 -55.23 1.043 C-54.494 1.029 -53.758 1.015 -53 1 C-53 0.01 -53 -0.98 -53 -2 C-51.68 -2 -50.36 -2 -49 -2 C-49 -3.32 -49 -4.64 -49 -6 C-49.99 -6.33 -50.98 -6.66 -52 -7 C-50.294 -7.653 -48.585 -8.297 -46.875 -8.938 C-45.924 -9.297 -44.972 -9.657 -43.992 -10.027 C-28.05 -15.21 -12.777 -9.698 0 0 Z " fill="#FFFFFF" transform="translate(150,80)"/>
<path d="M0 0 C8.667 5.008 14.422 11.663 18.938 20.5 C19.506 21.579 19.506 21.579 20.086 22.68 C27.489 37.875 28.523 56.48 23.195 72.48 C19.93 80.32 15.007 86.691 7.938 91.5 C2.419 93.38 -3.296 93.099 -8.75 91.25 C-22.766 83.846 -29.815 72.401 -34.438 57.5 C-38.305 41.868 -37.269 25.605 -29.766 11.309 C-23.39 0.794 -12.013 -5.384 0 0 Z " fill="#FFFFFF" transform="translate(115.0625,116.5)"/>
<path d="M0 0 C1.116 -0.029 2.231 -0.058 3.381 -0.088 C10.051 -0.139 14.395 0.096 19.688 4.312 C23.171 8.497 24.633 12.691 25.75 17.938 C25.912 18.664 26.074 19.39 26.241 20.139 C27.504 25.997 28.518 31.892 29.438 37.812 C29.565 38.624 29.693 39.436 29.824 40.272 C30.858 47.365 31.573 54.584 29.562 61.562 C29.354 62.351 29.145 63.14 28.93 63.953 C26.524 68.522 23.544 70.638 18.797 72.363 C15.32 73.378 11.832 74.27 8.312 75.125 C6.522 75.592 6.522 75.592 4.695 76.068 C-1.455 77.616 -6.969 78.714 -13.312 78.312 C-12.322 77.322 -12.322 77.322 -11.312 76.312 C-11.018 74.15 -11.018 74.15 -11.082 71.656 C-11.085 70.245 -11.085 70.245 -11.088 68.805 C-11.1 67.817 -11.112 66.83 -11.125 65.812 C-11.126 64.856 -11.126 63.9 -11.127 62.914 C-10.771 52.333 -10.771 52.333 -13.312 42.312 C-13.42 40.689 -13.498 39.063 -13.562 37.438 C-14.014 31.43 -15.238 25.767 -16.688 19.938 C-16.897 19.082 -17.106 18.226 -17.321 17.344 C-19.421 8.64 -19.421 8.64 -25.312 2.312 C-24.312 1.312 -24.312 1.312 -20.75 1.25 C-19.616 1.271 -18.481 1.291 -17.312 1.312 C-17.196 2.449 -17.08 3.586 -16.961 4.758 C-16.383 9.376 -15.204 13.718 -13.938 18.188 C-9.675 33.995 -7.889 49.493 -7.046 65.828 C-6.978 67.041 -6.91 68.254 -6.84 69.504 C-6.759 71.147 -6.759 71.147 -6.676 72.823 C-6.556 73.644 -6.436 74.466 -6.312 75.312 C-5.653 75.642 -4.993 75.972 -4.312 76.312 C-4.637 75.736 -4.961 75.16 -5.295 74.567 C-6.352 72.226 -6.564 70.784 -6.586 68.242 C-6.604 67.441 -6.622 66.64 -6.64 65.815 C-6.656 64.948 -6.671 64.081 -6.688 63.188 C-7.266 45.897 -8.42 24.097 -16.312 8.312 C-16.353 5.98 -16.356 3.645 -16.312 1.312 C-10.986 -0.254 -5.508 0.047 0 0 Z " fill="#FFFFFF" transform="translate(194.3125,108.6875)"/>
<path d="M0 0 C1.218 0.638 1.218 0.638 2.461 1.289 C8.168 4.494 12.808 7.97 17 13 C17.728 13.853 18.457 14.707 19.207 15.586 C24.514 22.519 25.543 27.119 25.02 35.727 C24.796 41.753 26.244 47.552 27.491 53.416 C28.398 57.714 29.113 61.869 29.438 66.254 C29.811 70.478 30.848 73.45 33.062 77.125 C33.61 78.056 34.158 78.986 34.723 79.945 C35.144 80.623 35.566 81.301 36 82 C35.34 82 34.68 82 34 82 C33.907 83.547 33.907 83.547 33.812 85.125 C32.052 98.723 25.606 110.828 15.055 119.531 C7.122 125.202 -0.321 126.822 -10 126 C-17.496 124.265 -23.166 120.897 -29 116 C-29.866 115.381 -30.733 114.762 -31.625 114.125 C-41.322 105.448 -47.75 92.435 -51 80 C-50.67 79.01 -50.34 78.02 -50 77 C-49.648 77.978 -49.296 78.957 -48.934 79.965 C-44.317 92.386 -38.108 103.291 -25.688 109.25 C-16.522 112.985 -6.475 114.751 3.062 111.562 C11.681 107.735 16.256 100.415 19.992 92.066 C22.55 84.284 23.335 76.722 23.25 68.562 C23.243 67.188 23.243 67.188 23.236 65.785 C23.15 59.347 22.554 53.261 21 47 C20.661 45.335 20.326 43.668 20 42 C18.515 42.495 18.515 42.495 17 43 C15.938 41.188 15.938 41.188 15 39 C15.33 38.01 15.66 37.02 16 36 C14.793 32.355 14.793 32.355 13 29 C12.384 28.875 11.768 28.75 11.133 28.621 C8.317 27.801 7.472 26.483 5.688 24.188 C-0.336 16.993 -7.626 14.238 -16.875 13.375 C-18.583 13.243 -20.291 13.116 -22 13 C-18.442 10.737 -15.875 10.927 -11.75 11.375 C-10.134 11.541 -10.134 11.541 -8.484 11.711 C-7.665 11.806 -6.845 11.902 -6 12 C-13.906 9.365 -21.166 10.234 -28.532 13.864 C-30.624 14.967 -32.696 16.1 -34.762 17.25 C-38 19 -38 19 -40 19 C-40.269 19.574 -40.539 20.147 -40.816 20.738 C-42.027 23.051 -43.419 25.066 -44.938 27.188 C-49.769 34.34 -51.928 42.271 -52.316 50.863 C-52.358 51.75 -52.4 52.636 -52.443 53.549 C-52.483 54.461 -52.522 55.373 -52.562 56.312 C-52.606 57.244 -52.649 58.175 -52.693 59.135 C-52.799 61.423 -52.901 63.711 -53 66 C-53.33 66 -53.66 66 -54 66 C-54.588 42.655 -53.111 22.935 -36.281 5.188 C-26.57 -3.974 -11.894 -6.303 0 0 Z " fill="#FEFEFE" transform="translate(130,99)"/>
<path d="M0 0 C6.127 5.256 10.842 11.102 15 18 C14.67 18.66 14.34 19.32 14 20 C13.371 19.143 12.742 18.286 12.094 17.402 C4.265 6.877 -4.323 -3.464 -18 -6 C-28.518 -6.869 -36.867 -5.617 -45.188 1.125 C-56.861 12.257 -61.25 26.274 -63 42 C-62.841 41.322 -62.683 40.644 -62.52 39.945 C-60.146 30.476 -56.692 19.603 -48.24 13.789 C-46.313 12.686 -44.365 11.673 -42.375 10.688 C-41.707 10.341 -41.04 9.995 -40.352 9.639 C-35.143 6.967 -31.402 5.846 -25.562 5.812 C-24.429 5.798 -23.296 5.784 -22.129 5.77 C-19.145 5.989 -17.507 6.442 -15 8 C-18 9 -18 9 -21 9 C-20.394 9.184 -19.788 9.369 -19.164 9.559 C-10.681 12.495 -5.25 17.75 1 24 C1.639 24.248 2.279 24.495 2.938 24.75 C5.947 26.574 6.751 28.779 8 32 C7.67 32.99 7.34 33.98 7 35 C7.33 35.99 7.66 36.98 8 38 C8.66 38 9.32 38 10 38 C10.487 39.351 10.964 40.706 11.438 42.062 C11.704 42.817 11.971 43.571 12.246 44.348 C17.074 61.333 14.88 80.881 6.656 96.301 C2.068 103.779 -3.497 107.769 -12 110 C-20.628 111.573 -31.801 108.643 -39.527 104.715 C-41.554 103.274 -43.254 101.77 -45 100 C-45.684 99.328 -46.369 98.657 -47.074 97.965 C-53.287 91.453 -56.736 84.291 -60 76 C-56.87 86.037 -52.964 94.282 -47 103 C-46.591 103.615 -46.183 104.23 -45.762 104.863 C-39.764 112.955 -29.724 118.848 -20 121 C-12.05 121.98 -5.928 120.99 1 117 C2.031 116.423 3.062 115.845 4.125 115.25 C16.234 105.774 20.648 92.435 24 78 C24.66 78 25.32 78 26 78 C24.292 90.72 20.459 101.274 12 111 C11.041 112.361 11.041 112.361 10.062 113.75 C4.149 120.201 -3.477 122.779 -12 124 C-23.541 124.394 -32.17 120.128 -40.969 113 C-42.95 111.049 -43.778 109.444 -45 107 C-46.485 106.505 -46.485 106.505 -48 106 C-58.887 91.105 -65.257 73.472 -66 55 C-66.04 54.242 -66.08 53.484 -66.121 52.703 C-66.591 35.775 -62.862 17.386 -51.637 4.23 C-36.391 -11.571 -17.903 -13.106 0 0 Z M-53.172 22.363 C-61.795 34.801 -62.861 50.861 -60.618 65.494 C-57.675 79.922 -51.488 93.688 -39.078 102.34 C-33.171 105.886 -27.77 106.609 -21 106 C-13.268 103.734 -8.343 98.565 -4.25 91.812 C3.176 77.181 3.004 59.224 -1.676 43.723 C-6.223 30.938 -13.546 19.186 -26 13 C-37.331 9.223 -45.887 13.688 -53.172 22.363 Z " fill="#060606" transform="translate(140,103)"/>
<path d="M0 0 C1.32 0.33 2.64 0.66 4 1 C4.33 3.31 4.66 5.62 5 8 C5.99 7.34 6.98 6.68 8 6 C14.817 3.442 20.621 1.577 27.562 4.5 C33.942 8.528 36.624 15.459 38.492 22.5 C40.146 30.641 38.766 37.577 35 45 C30.472 49.528 27.474 50.155 21.188 50.188 C19.964 50.202 18.741 50.216 17.48 50.23 C14.173 50.011 11.961 49.427 9 48 C7.68 49.32 6.36 50.64 5 52 C2.426 50.422 1.184 49.499 0.125 46.625 C0 44 0 44 1.125 41.625 C2.236 38.291 1.228 37.114 -0.25 34.078 C-2.896 26.746 -0.875 18.931 2 12 C1.361 11.608 0.721 11.216 0.062 10.812 C-2 9 -2 9 -2.938 6.562 C-3.015 3.372 -2.128 2.298 0 0 Z " fill="#161616" transform="translate(85,136)"/>
<path d="M0 0 C0 0.33 0 0.66 0 1 C-1.65 1.33 -3.3 1.66 -5 2 C-4.085 2 -3.17 2 -2.227 2 C1.849 2 5.924 2 10 2 C10.913 1.741 10.913 1.741 11.845 1.476 C15.824 0.597 19.762 1.544 23.75 2.125 C24.619 2.231 25.488 2.336 26.383 2.445 C32.252 3.291 37.594 4.813 42 9 C42 9.99 42 10.98 42 12 C42.66 12 43.32 12 44 12 C45.5 13.375 45.5 13.375 47 15 C47.99 15.99 47.99 15.99 49 17 C50.023 18.653 51.026 20.318 52 22 C49.36 21.34 46.72 20.68 44 20 C44 20.66 44 21.32 44 22 C49.94 22.33 55.88 22.66 62 23 C61.505 24.485 61.505 24.485 61 26 C51.445 26.303 44.128 25.188 36 20 C35.67 20.66 35.34 21.32 35 22 C36.98 22.66 38.96 23.32 41 24 C38.062 26.503 35.821 27.469 32 28 C30.35 26.02 28.7 24.04 27 22 C23.722 22.752 23.722 22.752 22 26 C20 25 20 25 19 24 C18.34 24.33 17.68 24.66 17 25 C17.495 25.743 17.99 26.485 18.5 27.25 C20 30 20 30 20 34 C18.35 34 16.7 34 15 34 C14.67 35.98 14.34 37.96 14 40 C13.67 40 13.34 40 13 40 C12.505 36.04 12.505 36.04 12 32 C12 34.027 12.005 36.058 12.176 38.078 C12.573 44.393 10.796 48.025 7 53 C6.67 52.01 6.34 51.02 6 50 C6.495 49.01 6.495 49.01 7 48 C7.881 37.809 6.557 30.869 0 23 C0.33 22.34 0.66 21.68 1 21 C-0.65 20.67 -2.3 20.34 -4 20 C-0.366 17.674 2.771 17.837 7 18 C6.505 16.02 6.505 16.02 6 14 C5.34 14 4.68 14 4 14 C4.495 15.98 4.495 15.98 5 18 C1.925 17.668 0.382 17.369 -1.875 15.188 C-3 13 -3 13 -2.688 10.75 C-2.461 10.172 -2.234 9.595 -2 9 C-0.546 8.814 -0.546 8.814 0.938 8.625 C1.948 8.419 2.959 8.213 4 8 C4.33 7.34 4.66 6.68 5 6 C4.34 6 3.68 6 3 6 C3 6.66 3 7.32 3 8 C0.03 7.67 -2.94 7.34 -6 7 C-6 6.67 -6 6.34 -6 6 C-4.02 5.67 -2.04 5.34 0 5 C-2.64 5 -5.28 5 -8 5 C-8 5.66 -8 6.32 -8 7 C-8.549 7.086 -9.099 7.171 -9.665 7.26 C-12.173 7.651 -14.68 8.044 -17.188 8.438 C-18.052 8.572 -18.916 8.707 -19.807 8.846 C-23.889 9.487 -27.957 10.138 -32 11 C-31.34 11.66 -30.68 12.32 -30 13 C-31.65 13.33 -33.3 13.66 -35 14 C-35.224 13.366 -35.449 12.732 -35.68 12.078 C-36.838 9.78 -36.838 9.78 -39.383 9.172 C-40.288 9.033 -41.193 8.893 -42.125 8.75 C-43.035 8.6 -43.945 8.451 -44.883 8.297 C-45.581 8.199 -46.28 8.101 -47 8 C-47.33 8.99 -47.66 9.98 -48 11 C-48.99 11.33 -49.98 11.66 -51 12 C-51.66 10.68 -52.32 9.36 -53 8 C-45.732 5.428 -38.609 3.279 -31 2 C-31 1.34 -31 0.68 -31 0 C-21.098 -4.951 -10.359 -2.679 0 0 Z " fill="#535353" transform="translate(236,93)"/>
<path d="M0 0 C1 1 1 1 1.062 4.062 C1.042 5.032 1.021 6.001 1 7 C0.117 7.311 -0.767 7.622 -1.677 7.943 C-5.868 9.42 -10.059 10.897 -14.25 12.375 C-15.018 12.646 -15.785 12.916 -16.576 13.195 C-26.955 16.856 -37.326 20.539 -47.688 24.25 C-52.124 25.836 -56.562 27.419 -61 29 C-62.652 29.589 -62.652 29.589 -64.337 30.19 C-67.515 31.32 -70.694 32.442 -73.875 33.562 C-74.814 33.897 -75.754 34.232 -76.721 34.577 C-81.139 36.125 -85.326 37.437 -90 38 C-90.99 34.7 -91.98 31.4 -93 28 C-85.088 25.399 -77.175 22.799 -69.262 20.2 C-65.584 18.993 -61.907 17.785 -58.23 16.576 C-50.488 14.031 -42.744 11.492 -34.996 8.964 C-30.48 7.489 -25.972 5.994 -21.464 4.492 C-19.194 3.744 -16.923 2.997 -14.652 2.25 C-13.623 1.902 -12.593 1.555 -11.533 1.197 C-10.591 0.889 -9.65 0.582 -8.679 0.266 C-7.867 -0.005 -7.054 -0.275 -6.216 -0.554 C-3.759 -1.049 -2.34 -0.848 0 0 Z " fill="#FFFFFF" transform="translate(304,184)"/>
<path d="M0 0 C2.293 5.897 3.345 10.666 3 17 C2.01 17 1.02 17 0 17 C-0.33 18.98 -0.66 20.96 -1 23 C-0.34 23 0.32 23 1 23 C0.477 25.763 -0.109 28.326 -1 31 C-0.01 28.69 0.98 26.38 2 24 C3.98 24.33 5.96 24.66 8 25 C2.964 34.805 -4.039 43.219 -14.586 47.242 C-28.004 51.454 -42.125 52.976 -56 55 C-57.555 55.233 -59.109 55.466 -60.664 55.699 C-67.491 56.68 -74.101 57.292 -81 57 C-81 56.34 -81 55.68 -81 55 C-79.877 54.869 -78.755 54.739 -77.598 54.604 C-73.345 54.107 -69.095 53.597 -64.844 53.083 C-63.021 52.865 -61.197 52.65 -59.372 52.438 C-40.174 50.758 -40.174 50.758 -22 45 C-22.574 45.182 -23.147 45.364 -23.738 45.551 C-37.271 49.555 -51.408 50.985 -65.375 52.688 C-66.989 52.885 -66.989 52.885 -68.635 53.086 C-69.65 53.206 -70.665 53.326 -71.711 53.449 C-73.061 53.609 -73.061 53.609 -74.439 53.772 C-76.974 53.998 -79.456 54.04 -82 54 C-82 52.35 -82 50.7 -82 49 C-79.284 48.095 -77.056 47.703 -74.23 47.387 C-73.27 47.275 -72.309 47.164 -71.32 47.049 C-70.286 46.93 -69.252 46.81 -68.188 46.688 C-34.581 43.902 -34.581 43.902 -7.227 26.746 C-4.309 22.593 -3.747 19.747 -3.812 14.625 C-3.819 13.524 -3.825 12.423 -3.832 11.289 C-3.994 8.12 -4.412 5.116 -5 2 C-2 0 -2 0 0 0 Z " fill="#F6F6F6" transform="translate(305,126)"/>
<path d="M0 0 C3 1 3 1 4.027 2.871 C6.207 9.017 7.865 15.21 9.312 21.562 C9.496 22.36 9.68 23.158 9.869 23.98 C11.124 29.752 11.124 29.752 10 32 C9.34 32 8.68 32 8 32 C8.33 33.98 8.66 35.96 9 38 C10.485 38.495 10.485 38.495 12 39 C14.887 61.966 14.887 61.966 14 70 C13.01 70.99 13.01 70.99 12 72 C11.67 71.01 11.34 70.02 11 69 C10.252 68.986 9.505 68.972 8.734 68.957 C0.669 68.566 0.669 68.566 -2.438 65.938 C-4.361 62.321 -6.268 58.713 -8 55 C-7.408 54.841 -6.817 54.683 -6.207 54.52 C-1.017 52.987 2.902 51.697 6 47 C7.348 40.13 5.734 33.841 2 28 C-1.233 24.862 -3.982 24.849 -8.312 24.812 C-9.876 24.86 -11.438 24.918 -13 25 C-13.09 19.848 -12.847 15.081 -12 10 C-7.71 8.35 -3.42 6.7 1 5 C0.67 3.35 0.34 1.7 0 0 Z " fill="#FFFFFF" transform="translate(169,113)"/>
<path d="M0 0 C10.812 1.285 17.093 6.149 24.047 14.336 C35.26 29.63 37.93 48.123 35.531 66.613 C33.327 77.779 28.333 86.367 19 93 C16.188 94.5 16.188 94.5 14 95 C13.01 94.67 12.02 94.34 11 94 C11.866 93.546 12.733 93.093 13.625 92.625 C20.189 88.265 24.728 78.493 26.456 71.029 C26.814 68.897 27.085 66.775 27.312 64.625 C27.436 63.457 27.436 63.457 27.563 62.265 C29.17 44.11 24.699 25.895 13.051 11.609 C8.821 7.122 4.654 4.423 -1 2 C-0.67 1.34 -0.34 0.68 0 0 Z " fill="#FFFFFF" transform="translate(114,113)"/>
<path d="M0 0 C3.912 3.912 4.125 10.753 4.125 16.125 C4.084 17.074 4.042 18.023 4 19 C1.46 14.566 0.795 9.756 -0.219 4.801 C-0.477 3.877 -0.734 2.952 -1 2 C-1.66 1.67 -2.32 1.34 -3 1 C-3.356 5.963 -3.356 5.963 -1.5 10.438 C0.646 14.103 0.134 16.769 0 21 C0.417 23.355 0.417 23.355 1 25 C1.66 24.67 2.32 24.34 3 24 C3 22.68 3 21.36 3 20 C3.66 20 4.32 20 5 20 C5.043 22 5.041 24 5 26 C4 27 4 27 0.438 27.062 C-0.697 27.042 -1.831 27.021 -3 27 C-3.33 26.34 -3.66 25.68 -4 25 C-7.63 25.33 -11.26 25.66 -15 26 C-15.99 28.475 -15.99 28.475 -17 31 C-18.98 31 -20.96 31 -23 31 C-23.675 27.293 -24.339 23.584 -25 19.875 C-25.191 18.828 -25.382 17.782 -25.578 16.703 C-25.759 15.685 -25.939 14.666 -26.125 13.617 C-26.293 12.685 -26.46 11.753 -26.633 10.792 C-27.022 7.832 -27.062 4.983 -27 2 C-6.626 -0.863 -6.626 -0.863 0 0 Z " fill="#191919" transform="translate(216,130)"/>
<path d="M0 0 C0.33 1.32 0.66 2.64 1 4 C6.94 4 12.88 4 19 4 C19 4.99 19 5.98 19 7 C21.97 7 24.94 7 28 7 C25.36 6.67 22.72 6.34 20 6 C20 5.34 20 4.68 20 4 C20.753 4.072 21.506 4.144 22.281 4.219 C28.444 4.757 34.5 5.031 40.688 4.938 C46.82 4.867 52.839 5.229 58.938 5.875 C59.725 5.954 60.513 6.032 61.325 6.113 C63.227 6.333 65.116 6.657 67 7 C67.495 7.99 67.495 7.99 68 9 C64.551 11.299 63.842 11.17 59.875 10.75 C58.824 10.644 57.774 10.539 56.691 10.43 C53.948 10.11 51.206 9.782 48.465 9.445 C47.31 9.305 47.31 9.305 46.131 9.161 C44.595 8.972 43.06 8.776 41.525 8.573 C39.688 8.342 37.844 8.166 36 8 C35.67 8.33 35.34 8.66 35 9 C35.843 9.052 36.685 9.104 37.553 9.158 C46.244 9.731 54.841 10.63 63.48 11.742 C64.827 11.913 66.174 12.084 67.521 12.254 C70.324 12.61 73.127 12.968 75.929 13.329 C79.46 13.782 82.992 14.23 86.524 14.677 C101.387 16.556 116.225 18.514 131 21 C131 21.33 131 21.66 131 22 C124.881 22.106 119.08 21.774 113.027 20.906 C112.219 20.795 111.41 20.684 110.577 20.57 C108.03 20.219 105.484 19.86 102.938 19.5 C101.196 19.259 99.455 19.018 97.713 18.777 C93.474 18.191 89.237 17.598 85 17 C86.485 17.495 86.485 17.495 88 18 C91 21.444 91 21.444 91 24 C91.722 24 92.444 24 93.188 24 C97.53 25.544 98.897 29.071 101 33 C99 35 99 35 96.32 35.012 C95.266 34.905 94.211 34.798 93.125 34.688 C91.551 34.539 91.551 34.539 89.945 34.387 C87.548 34.072 85.321 33.656 83 33 C83 32.34 83 31.68 83 31 C85.31 31.33 87.62 31.66 90 32 C87.781 29.092 86.07 27.047 83 25 C83 24.34 83 23.68 83 23 C82.34 23 81.68 23 81 23 C80.505 21.515 80.505 21.515 80 20 C74.462 16.058 69.286 15.041 62.625 14.188 C61.711 14.054 60.797 13.921 59.855 13.783 C56.437 13.294 56.437 13.294 53 13 C52.67 13.33 52.34 13.66 52 14 C51.01 14.33 50.02 14.66 49 15 C48.34 14.67 47.68 14.34 47 14 C44.116 13.928 41.258 13.907 38.375 13.938 C37.573 13.942 36.771 13.947 35.945 13.951 C33.964 13.963 31.982 13.981 30 14 C30.33 13.34 30.66 12.68 31 12 C34.062 11.375 34.062 11.375 37 11 C34.501 10.633 32.002 10.281 29.5 9.938 C28.804 9.834 28.108 9.73 27.391 9.623 C20.664 8.72 14.631 9.549 8 11 C8 11.66 8 12.32 8 13 C6.02 13.66 4.04 14.32 2 15 C4 12 4 12 5 11 C4.01 10.67 3.02 10.34 2 10 C3.249 9.518 4.499 9.04 5.75 8.562 C6.446 8.296 7.142 8.029 7.859 7.754 C9.891 7.039 11.904 6.486 14 6 C11.625 5.946 9.251 5.906 6.875 5.875 C6.21 5.858 5.545 5.841 4.859 5.824 C0.48 5.781 -2.909 6.508 -7 8 C-9.375 7.625 -9.375 7.625 -11 7 C-10.67 6.01 -10.34 5.02 -10 4 C-7.188 2.938 -7.188 2.938 -4 2 C-2.653 1.362 -1.313 0.707 0 0 Z " fill="#020202" transform="translate(197,82)"/>
<path d="M0 0 C1.133 -0.014 2.266 -0.028 3.434 -0.043 C6.417 0.177 8.055 0.629 10.562 2.188 C7.562 3.188 7.562 3.188 4.562 3.188 C5.471 3.464 5.471 3.464 6.398 3.746 C14.882 6.683 20.312 11.937 26.562 18.188 C27.202 18.435 27.841 18.683 28.5 18.938 C31.509 20.761 32.313 22.966 33.562 26.188 C33.067 27.673 33.067 27.673 32.562 29.188 C33.058 30.673 33.058 30.673 33.562 32.188 C34.222 32.188 34.882 32.188 35.562 32.188 C37.668 37.715 38.941 42.257 38.562 48.188 C37.903 47.197 37.243 46.208 36.562 45.188 C36.562 45.517 36.562 45.847 36.562 46.188 C36.562 47.854 36.562 49.521 36.562 51.188 C35.903 50.858 35.243 50.528 34.562 50.188 C34.098 47.972 33.718 45.738 33.375 43.5 C30.817 29.235 23.645 18.066 12.625 8.688 C8.415 6.625 4.175 5.88 -0.438 5.188 C0.119 5.528 0.676 5.868 1.25 6.219 C14.677 14.747 22.273 26.006 26.5 41.312 C29.666 56.569 29.746 71.76 22.812 85.875 C22.49 86.534 22.167 87.193 21.834 87.873 C19.423 92.401 16.668 95.12 12.562 98.188 C11.573 97.692 11.573 97.692 10.562 97.188 C11.01 96.787 11.457 96.386 11.918 95.973 C21.776 86.703 25.492 75.765 25.967 62.379 C26.203 44.819 21.707 27.987 9.395 14.84 C3.269 9.315 -2.572 6.786 -10.812 6.918 C-17.777 7.633 -22.475 11.478 -26.828 16.75 C-29.782 21.224 -31.621 26.165 -33.438 31.188 C-34.097 31.188 -34.757 31.188 -35.438 31.188 C-34.792 23.01 -30.326 14.832 -24.438 9.188 C-22.003 7.515 -19.457 6.184 -16.812 4.875 C-16.145 4.529 -15.477 4.183 -14.789 3.826 C-9.581 1.154 -5.84 0.033 0 0 Z " fill="#010101" transform="translate(114.4375,108.8125)"/>
<path d="M0 0 C7.934 -0.173 15.736 0.369 23.637 1.059 C24.916 1.167 26.194 1.276 27.512 1.388 C30.201 1.616 32.889 1.848 35.577 2.081 C39.006 2.379 42.436 2.672 45.865 2.962 C49.164 3.242 52.463 3.525 55.762 3.809 C56.985 3.913 58.208 4.017 59.468 4.124 C65.008 4.607 70.508 5.125 76 6 C75.34 8.31 74.68 10.62 74 13 C57.375 11.479 40.782 9.702 24.188 7.875 C21.633 7.595 19.079 7.315 16.525 7.035 C10.35 6.358 4.175 5.68 -2 5 C-1.34 3.35 -0.68 1.7 0 0 Z " fill="#FFFFFF" transform="translate(240,66)"/>
<path d="M0 0 C0 0.33 0 0.66 0 1 C-1.65 1.33 -3.3 1.66 -5 2 C-4.154 1.954 -3.309 1.907 -2.438 1.859 C4.977 1.623 9.803 1.972 16 6 C17.728 7.048 19.455 8.096 21.184 9.143 C23.803 10.74 26.402 12.368 29 14 C28.34 14.66 27.68 15.32 27 16 C26.262 15.5 26.262 15.5 25.51 14.99 C14.129 7.435 5.839 3.11 -8 5 C-8 5.66 -8 6.32 -8 7 C-8.549 7.086 -9.099 7.171 -9.665 7.26 C-12.173 7.651 -14.68 8.044 -17.188 8.438 C-18.052 8.572 -18.916 8.707 -19.807 8.846 C-23.889 9.487 -27.957 10.138 -32 11 C-31.34 11.66 -30.68 12.32 -30 13 C-31.65 13.33 -33.3 13.66 -35 14 C-35.224 13.366 -35.449 12.732 -35.68 12.078 C-36.838 9.78 -36.838 9.78 -39.383 9.172 C-40.288 9.033 -41.193 8.893 -42.125 8.75 C-43.035 8.6 -43.945 8.451 -44.883 8.297 C-45.581 8.199 -46.28 8.101 -47 8 C-47.33 8.99 -47.66 9.98 -48 11 C-48.99 11.33 -49.98 11.66 -51 12 C-51.66 10.68 -52.32 9.36 -53 8 C-45.732 5.428 -38.609 3.279 -31 2 C-31 1.34 -31 0.68 -31 0 C-21.098 -4.951 -10.359 -2.679 0 0 Z " fill="#FFFFFF" transform="translate(236,93)"/>
<path d="M0 0 C10.009 0.632 10.009 0.632 14 4 C14.812 6.188 14.812 6.188 15 8 C14.051 7.979 13.103 7.959 12.125 7.938 C9.093 7.774 9.093 7.774 7 9 C5.617 14.509 5.617 14.509 7.5 19.562 C11.018 21.586 13.149 20.998 17 20 C17.66 19.34 18.32 18.68 19 18 C19.293 23.673 19.006 26.991 16 32 C15.031 31.979 14.061 31.959 13.062 31.938 C10.125 31.644 10.125 31.644 9 33 C8.959 35.333 8.958 37.667 9 40 C7.35 40.66 5.7 41.32 4 42 C3.428 36.662 2.858 31.323 2.291 25.984 C2.098 24.169 1.904 22.353 1.709 20.537 C1.429 17.926 1.152 15.315 0.875 12.703 C0.788 11.893 0.7 11.082 0.61 10.247 C0.247 6.803 0 3.467 0 0 Z " fill="#FFFFFF" transform="translate(281,119)"/>
<path d="M0 0 C2.562 2.25 2.562 2.25 5 5 C4.812 7.312 4.812 7.312 4 9 C4.763 9.083 5.526 9.165 6.312 9.25 C9.547 10.153 10.351 11.136 12 14 C12 14.66 12 15.32 12 16 C5.224 17.891 -1.521 18.807 -8.5 19.625 C-10.163 19.826 -10.163 19.826 -11.859 20.031 C-14.572 20.359 -17.286 20.681 -20 21 C-21.407 18.185 -20.667 16.431 -20.062 13.375 C-19.868 12.372 -19.673 11.369 -19.473 10.336 C-19.317 9.565 -19.161 8.794 -19 8 C-16 7 -13 6 -10 5 C-9.34 5.66 -8.68 6.32 -8 7 C-5.429 7.648 -5.429 7.648 -3 8 C-3.99 9.98 -4.98 11.96 -6 14 C-2.004 10.018 -2.004 10.018 -0.75 4.75 C-0.874 3.389 -0.874 3.389 -1 2 C-0.67 1.34 -0.34 0.68 0 0 Z " fill="#FFFFFF" transform="translate(246,152)"/>
<path d="M0 0 C3.791 2.028 5.365 4.278 6.875 8.188 C8.247 12.932 8.421 17.243 7 22 C3.76 26.147 0.608 25.299 -5 26 C-6.32 17.75 -7.64 9.5 -9 1 C-5.667 -0.111 -3.495 -0.35 0 0 Z " fill="#FFFFFF" transform="translate(166,139)"/>
<path d="M0 0 C15.928 0.527 31.701 2.444 47.513 4.314 C51.073 4.733 54.634 5.147 58.195 5.561 C65.131 6.368 72.066 7.182 79 8 C78.34 9.32 77.68 10.64 77 12 C76.244 11.915 75.488 11.829 74.709 11.741 C67.518 10.929 60.327 10.119 53.135 9.314 C49.439 8.9 45.743 8.484 42.048 8.066 C38.469 7.661 34.89 7.26 31.311 6.86 C29.308 6.636 27.307 6.408 25.305 6.181 C16.543 5.207 7.799 4.518 -1 4 C-0.67 2.68 -0.34 1.36 0 0 Z " fill="#FFFFFF" transform="translate(232,83)"/>
<path d="M0 0 C11.156 0.529 22.155 1.624 33.223 3.102 C35.788 3.443 38.355 3.769 40.922 4.096 C42.568 4.312 44.214 4.528 45.859 4.746 C46.62 4.842 47.38 4.938 48.164 5.037 C51.844 5.539 54.745 6.237 58 8 C51.881 8.106 46.08 7.774 40.027 6.906 C39.219 6.795 38.41 6.684 37.577 6.57 C35.03 6.219 32.484 5.86 29.938 5.5 C28.196 5.259 26.455 5.018 24.713 4.777 C20.474 4.191 16.237 3.598 12 3 C12.99 3.33 13.98 3.66 15 4 C18 7.444 18 7.444 18 10 C18.722 10 19.444 10 20.188 10 C24.53 11.544 25.897 15.071 28 19 C26 21 26 21 23.32 21.012 C22.266 20.905 21.211 20.798 20.125 20.688 C19.076 20.588 18.026 20.489 16.945 20.387 C14.548 20.072 12.321 19.656 10 19 C10 18.34 10 17.68 10 17 C12.31 17.33 14.62 17.66 17 18 C14.781 15.092 13.07 13.047 10 11 C10 10.34 10 9.68 10 9 C9.34 9 8.68 9 8 9 C7.67 8.01 7.34 7.02 7 6 C5.371 4.776 5.371 4.776 3.438 3.812 C2.303 3.214 1.169 2.616 0 2 C0 1.34 0 0.68 0 0 Z " fill="#1A1A1A" transform="translate(270,96)"/>
<path d="M0 0 C2.97 0.495 2.97 0.495 6 1 C0.964 10.805 -6.039 19.219 -16.586 23.242 C-30.004 27.454 -44.125 28.976 -58 31 C-59.555 31.233 -61.109 31.466 -62.664 31.699 C-69.491 32.68 -76.101 33.292 -83 33 C-83 32.34 -83 31.68 -83 31 C-81.877 30.869 -80.755 30.739 -79.598 30.604 C-75.345 30.107 -71.095 29.597 -66.844 29.083 C-65.021 28.865 -63.197 28.65 -61.372 28.438 C-31.429 25.485 -31.429 25.485 -6 11 C-3.356 7.523 -1.382 4.146 0 0 Z " fill="#FFFFFF" transform="translate(307,150)"/>
<path d="M0 0 C3.022 0.284 6.042 0.577 9.062 0.875 C10.334 0.993 10.334 0.993 11.631 1.113 C19.311 1.884 25.799 3.009 32 8 C32 8.99 32 9.98 32 11 C32.66 11 33.32 11 34 11 C35.5 12.375 35.5 12.375 37 14 C37.66 14.66 38.32 15.32 39 16 C40.023 17.653 41.026 19.318 42 21 C29.739 19.097 19.232 12.217 8.625 6.125 C7.774 5.637 6.922 5.148 6.045 4.645 C5.26 4.187 4.474 3.729 3.664 3.258 C2.957 2.847 2.25 2.436 1.522 2.012 C1.02 1.678 0.517 1.344 0 1 C0 0.67 0 0.34 0 0 Z " fill="#FFFFFF" transform="translate(246,94)"/>
<path d="M0 0 C3.96 0 7.92 0 12 0 C12.412 0.907 12.825 1.815 13.25 2.75 C14.904 5.822 16.504 7.628 19 10 C17.411 10.472 17.411 10.472 15.789 10.953 C14.401 11.385 13.013 11.817 11.625 12.25 C10.926 12.455 10.228 12.66 9.508 12.871 C5.399 14.137 5.399 14.137 2.523 17.172 C2.351 17.775 2.178 18.378 2 19 C-2 19 -2 19 -3.824 17.309 C-5 15 -5 15 -4.707 12.598 C-4.412 11.761 -4.117 10.924 -3.812 10.062 C-3.53 9.228 -3.248 8.394 -2.957 7.535 C-2.004 5.011 -1.002 2.505 0 0 Z " fill="#FFFFFF" transform="translate(197,199)"/>
<path d="M0 0 C5.519 0.994 8.285 2.561 11.711 7.031 C16.403 14.198 16.949 21.547 16 30 C14.716 34.431 13.031 37.17 9.438 40.062 C7 41 7 41 4 40 C4.66 40 5.32 40 6 40 C10.64 27.267 9.459 17.98 4 5.762 C2.72 3.507 1.366 2.946 -1 2 C-0.67 1.34 -0.34 0.68 0 0 Z " fill="#FFFFFF" transform="translate(104,142)"/>
<path d="M0 0 C0.433 0.474 0.866 0.949 1.312 1.438 C3.023 3.237 3.023 3.237 6 4 C6.474 4.495 6.949 4.99 7.438 5.5 C9.252 7.242 10.556 7.579 13 8 C13 8.66 13 9.32 13 10 C12.01 10 11.02 10 10 10 C9.67 11.98 9.34 13.96 9 16 C8.34 16 7.68 16 7 16 C7 16.66 7 17.32 7 18 C6.381 18.062 5.763 18.124 5.125 18.188 C4.424 18.456 3.722 18.724 3 19 C2.72 19.764 2.441 20.529 2.152 21.316 C0.768 24.541 -0.745 25.706 -3.562 27.75 C-4.368 28.343 -5.174 28.936 -6.004 29.547 C-6.663 30.026 -7.321 30.506 -8 31 C-8.495 31.495 -8.495 31.495 -9 32 C-20.543 33.597 -33.455 29.712 -43.082 23.465 C-44.902 22.075 -46.507 20.737 -48 19 C-48 18.34 -48 17.68 -48 17 C-45.608 18.063 -43.888 19.102 -41.938 20.875 C-33.58 26.921 -20.302 30.288 -10 29 C-8.018 27.139 -8.018 27.139 -7 25 C-8.98 24.67 -10.96 24.34 -13 24 C-13 23.34 -13 22.68 -13 22 C-9.37 22.33 -5.74 22.66 -2 23 C-1.34 21.35 -0.68 19.7 0 18 C-2.31 16.68 -4.62 15.36 -7 14 C-7 13.34 -7 12.68 -7 12 C-3.179 12.531 -0.938 13.497 2 16 C4.993 14.902 5.846 14.323 7.25 11.375 C7.498 10.591 7.745 9.808 8 9 C7.443 8.752 6.886 8.505 6.312 8.25 C3.6 6.784 1.364 4.97 -1 3 C-0.67 2.01 -0.34 1.02 0 0 Z " fill="#000000" transform="translate(49,79)"/>
<path d="M0 0 C0.99 0 1.98 0 3 0 C3.66 5.94 4.32 11.88 5 18 C5.66 18 6.32 18 7 18 C6.67 15.03 6.34 12.06 6 9 C9.913 10.269 11.856 11.463 14 15 C15.782 20.345 15.747 24.419 13.375 29.438 C10.531 32.506 9.037 32.519 5 33 C4.285 28.783 3.573 24.565 2.864 20.347 C2.622 18.913 2.38 17.478 2.136 16.044 C1.786 13.981 1.44 11.918 1.094 9.855 C0.884 8.614 0.675 7.373 0.459 6.094 C0 3 0 3 0 0 Z " fill="#FFFFFF" transform="translate(221,122)"/>
<path d="M0 0 C0.66 0 1.32 0 2 0 C2.268 0.86 2.536 1.72 2.812 2.605 C5.806 11.634 9.599 19.104 15 27 C15.409 27.615 15.817 28.23 16.238 28.863 C22.236 36.955 32.276 42.848 42 45 C49.95 45.98 56.072 44.99 63 41 C64.031 40.423 65.062 39.845 66.125 39.25 C78.234 29.774 82.648 16.435 86 2 C86.66 2 87.32 2 88 2 C86.292 14.72 82.459 25.274 74 35 C73.041 36.361 73.041 36.361 72.062 37.75 C66.149 44.201 58.523 46.779 50 48 C38.459 48.394 29.83 44.128 21.031 37 C19.05 35.049 18.222 33.444 17 31 C16.01 30.67 15.02 30.34 14 30 C7.828 21.555 0.859 10.59 0 0 Z " fill="#000000" transform="translate(78,179)"/>
<path d="M0 0 C0.66 0.66 1.32 1.32 2 2 C4.323 2.4 6.657 2.74 9 3 C9.33 2.01 9.66 1.02 10 0 C10.99 0.33 11.98 0.66 13 1 C13.33 1.99 13.66 2.98 14 4 C13.01 4.33 12.02 4.66 11 5 C11.33 5.66 11.66 6.32 12 7 C12.99 7 13.98 7 15 7 C15 9.31 15 11.62 15 14 C14.34 14 13.68 14 13 14 C13.33 14.99 13.66 15.98 14 17 C13.402 19.352 12.741 21.689 12 24 C5.375 25.25 5.375 25.25 2 23 C2.66 21.35 3.32 19.7 4 18 C5.32 18 6.64 18 8 18 C7.361 17.732 6.721 17.464 6.062 17.188 C4 16 4 16 3 13 C2.872 10.326 2.956 7.679 3 5 C5 5 7 5 9 5 C6.69 4.67 4.38 4.34 2 4 C2.023 4.771 2.046 5.542 2.07 6.336 C2.097 7.84 2.097 7.84 2.125 9.375 C2.148 10.373 2.171 11.37 2.195 12.398 C2 15 2 15 0 17 C0 16.01 0 15.02 0 14 C-0.99 13.67 -1.98 13.34 -3 13 C-1.68 13 -0.36 13 1 13 C1 10.03 1 7.06 1 4 C-1.97 4 -4.94 4 -8 4 C-8 3.67 -8 3.34 -8 3 C-5.36 3 -2.72 3 0 3 C0 2.01 0 1.02 0 0 Z " fill="#656565" transform="translate(263,128)"/>
<path d="M0 0 C5.789 3.111 11.526 6.286 17.188 9.625 C21.712 12.286 26.27 14.726 31 17 C31 17.66 31 18.32 31 19 C36.94 19.33 42.88 19.66 49 20 C48.505 21.485 48.505 21.485 48 23 C38.445 23.303 31.128 22.188 23 17 C22.67 17.66 22.34 18.32 22 19 C23.98 19.66 25.96 20.32 28 21 C24.772 23.75 23.479 24.104 19 25 C16.69 22.03 14.38 19.06 12 16 C12.66 14.68 13.32 13.36 14 12 C10.711 8.329 6.483 6.143 2.301 3.621 C1.542 3.086 0.782 2.551 0 2 C0 1.34 0 0.68 0 0 Z " fill="#272727" transform="translate(249,96)"/>
<path d="M0 0 C6.127 5.256 10.842 11.102 15 18 C14.67 18.66 14.34 19.32 14 20 C13.371 19.143 12.742 18.286 12.094 17.402 C4.265 6.877 -4.323 -3.464 -18 -6 C-28.518 -6.869 -36.867 -5.617 -45.188 1.125 C-58.998 14.295 -63.034 32.184 -63.625 50.625 C-63.664 51.629 -63.702 52.633 -63.742 53.668 C-63.835 56.112 -63.921 58.556 -64 61 C-64.33 61 -64.66 61 -65 61 C-68.618 43.814 -64.448 24.748 -55.832 9.676 C-49.75 0.792 -41.786 -6.401 -31.094 -8.684 C-19.478 -10.439 -9.377 -6.865 0 0 Z " fill="#000000" transform="translate(140,103)"/>
<path d="M0 0 C2 2 2 2 2.938 4 C3.968 6.321 3.968 6.321 7 8 C6.783 8.522 6.567 9.044 6.344 9.582 C2.952 18.548 3.059 26.16 6.461 35.062 C7 37 7 37 6.25 39.875 C5.838 40.576 5.425 41.278 5 42 C4.67 42.99 4.34 43.98 4 45 C-0.572 35.421 -2.271 26.194 -2.312 15.625 C-2.318 14.769 -2.323 13.913 -2.329 13.031 C-2.276 8.302 -1.815 4.441 0 0 Z " fill="#FFFFFF" transform="translate(81,140)"/>
<path d="M0 0 C3.25 0.309 6.5 0.622 9.75 0.938 C10.67 1.025 11.591 1.112 12.539 1.201 C13.429 1.288 14.318 1.375 15.234 1.465 C16.46 1.583 16.46 1.583 17.71 1.703 C19.871 1.983 21.9 2.424 24 3 C24 4.32 24 5.64 24 7 C20.575 9.66 17.053 10.698 12.875 11.688 C11.841 11.939 10.807 12.19 9.742 12.449 C7 13 7 13 4 13 C3.67 13.99 3.34 14.98 3 16 C2.67 13.69 2.34 11.38 2 9 C1.34 9.99 0.68 10.98 0 12 C0 8.04 0 4.08 0 0 Z " fill="#FFFFFF" transform="translate(173,76)"/>
<path d="M0 0 C3.834 0.31 7.667 0.623 11.5 0.938 C12.578 1.025 13.655 1.112 14.766 1.201 C20.532 1.676 26.265 2.227 32 3 C32 4.98 32 6.96 32 9 C27.71 8.34 23.42 7.68 19 7 C19 7.66 19 8.32 19 9 C20.794 8.969 20.794 8.969 22.625 8.938 C26.18 8.931 29.506 9.301 33 10 C33 10.33 33 10.66 33 11 C28.05 10.67 23.1 10.34 18 10 C18 9.01 18 8.02 18 7 C12.06 7 6.12 7 0 7 C0 4.69 0 2.38 0 0 Z " fill="#FFFFFF" transform="translate(198,79)"/>
<path d="M0 0 C0 0.66 0 1.32 0 2 C-7.563 4.766 -15.143 7.478 -22.738 10.152 C-23.822 10.534 -24.905 10.916 -26.021 11.31 C-29.451 12.52 -32.882 13.729 -36.312 14.938 C-39.725 16.14 -43.138 17.343 -46.55 18.547 C-48.739 19.318 -50.927 20.089 -53.116 20.858 C-57.63 22.445 -62.138 24.039 -66.619 25.715 C-67.276 25.959 -67.934 26.203 -68.611 26.455 C-70.26 27.07 -71.904 27.696 -73.548 28.323 C-76 29 -76 29 -79 28 C-75.092 25.43 -71.121 23.89 -66.688 22.5 C-62.091 21.026 -57.56 19.483 -53.048 17.768 C-49.471 16.427 -45.859 15.189 -42.25 13.938 C-36.011 11.77 -29.785 9.568 -23.574 7.32 C-22.297 6.859 -21.02 6.399 -19.743 5.938 C-17.229 5.03 -14.717 4.117 -12.206 3.201 C-10.478 2.577 -10.478 2.577 -8.715 1.941 C-7.685 1.567 -6.655 1.193 -5.594 0.807 C-3 0 -3 0 0 0 Z " fill="#000000" transform="translate(297,194)"/>
<path d="M0 0 C5.707 3.693 8.9 8.214 10.793 14.73 C12.348 22.014 12.189 28.183 9 35 C7.122 37.727 6.073 38.376 3 40 C-1.588 40.364 -3.58 40.19 -7.102 37.238 C-8.973 35.221 -10.629 33.389 -12 31 C-11.67 30.01 -11.34 29.02 -11 28 C-9.886 29.423 -9.886 29.423 -8.75 30.875 C-5.937 34.253 -5.937 34.253 -2 36 C0.726 35.848 3.298 35.45 6 35 C9.049 27.478 10.444 20.636 7.875 12.688 C6.027 8.459 4.002 6.341 0 4 C-3.119 3.669 -4.865 4.126 -8 5 C-10.702 7.522 -11.756 10.555 -13 14 C-13.33 14 -13.66 14 -14 14 C-13.534 9.246 -12.873 5.867 -10 2 C-6.231 -0.513 -4.468 -0.53 0 0 Z " fill="#FFFFFF" transform="translate(101,144)"/>
<path d="M0 0 C2.812 2.562 2.812 2.562 5 5 C4.01 5.66 3.02 6.32 2 7 C2.66 7.33 3.32 7.66 4 8 C3.01 10.64 2.02 13.28 1 16 C0.01 15.67 -0.98 15.34 -2 15 C-3.188 11.938 -3.188 11.938 -4 9 C-4.66 9 -5.32 9 -6 9 C-5.67 10.32 -5.34 11.64 -5 13 C-8.075 12.668 -9.618 12.369 -11.875 10.188 C-13 8 -13 8 -12.688 5.75 C-12.461 5.172 -12.234 4.595 -12 4 C-11.031 3.876 -10.061 3.752 -9.062 3.625 C-8.052 3.419 -7.041 3.213 -6 3 C-5.67 2.34 -5.34 1.68 -5 1 C-5.66 1 -6.32 1 -7 1 C-7 1.66 -7 2.32 -7 3 C-9.97 2.67 -12.94 2.34 -16 2 C-16 1.67 -16 1.34 -16 1 C-14.273 0.634 -12.543 0.283 -10.812 -0.062 C-9.368 -0.358 -9.368 -0.358 -7.895 -0.66 C-4.899 -1.012 -2.871 -0.892 0 0 Z " fill="#717171" transform="translate(246,98)"/>
<path d="M0 0 C-2.659 2.659 -4.995 2.934 -8.625 3.875 C-13.502 5.209 -17.765 6.69 -22.18 9.117 C-25.322 10.641 -28.597 11.271 -32 12 C-32.99 10.02 -33.98 8.04 -35 6 C-32.343 4.967 -29.678 3.976 -27 3 C-26.287 2.714 -25.574 2.428 -24.84 2.133 C-16.715 -0.794 -8.507 -0.266 0 0 Z " fill="#FFFFFF" transform="translate(213,87)"/>
<path d="M0 0 C1.32 0 2.64 0 4 0 C5.803 3.967 6.492 7.682 7 12 C7.693 8.276 8.111 4.789 8 1 C9.991 0.619 11.993 0.287 14 0 C15.798 1.798 15.257 4.384 15.312 6.812 C15.35 7.871 15.387 8.929 15.426 10.02 C14.91 13.63 13.777 14.738 11 17 C6.575 15.445 4.104 13.979 1.797 9.844 C1.451 9.07 1.106 8.297 0.75 7.5 C0.394 6.727 0.038 5.953 -0.328 5.156 C-1 3 -1 3 0 0 Z " fill="#FFFFFF" transform="translate(209,190)"/>
<path d="M0 0 C8.635 2.429 15.495 10.777 19.914 18.227 C28.117 34.52 31.887 53.002 27 71 C25.923 73.989 24.65 76.837 23.25 79.688 C22.927 80.347 22.604 81.006 22.272 81.685 C19.86 86.213 17.106 88.933 13 92 C12.34 91.67 11.68 91.34 11 91 C11.447 90.599 11.895 90.198 12.355 89.785 C22.214 80.515 25.929 69.578 26.405 56.191 C26.641 38.594 22.113 21.865 9.844 8.648 C7.282 6.358 4.518 4.644 1.504 3.008 C1.008 2.675 0.511 2.343 0 2 C0 1.34 0 0.68 0 0 Z " fill="#000000" transform="translate(114,115)"/>
<path d="M0 0 C0.66 0.99 1.32 1.98 2 3 C-0.957 4.681 -3.189 5.279 -6.578 5.414 C-7.932 5.472 -7.932 5.472 -9.314 5.531 C-10.767 5.578 -10.767 5.578 -12.25 5.625 C-13.25 5.663 -14.251 5.701 -15.281 5.74 C-26.519 6.125 -37.758 6.097 -49 6 C-49 5.34 -49 4.68 -49 4 C-45.161 2.72 -41.43 2.674 -37.422 2.5 C-36.577 2.459 -35.732 2.419 -34.862 2.377 C-32.158 2.247 -29.454 2.123 -26.75 2 C-24.06 1.877 -21.371 1.752 -18.681 1.623 C-17.008 1.543 -15.335 1.466 -13.662 1.393 C-9.048 1.173 -4.562 0.73 0 0 Z " fill="#FFFFFF" transform="translate(286,182)"/>
<path d="M0 0 C3.149 1.416 5.495 3.137 8.062 5.438 C8.734 6.034 9.406 6.631 10.098 7.246 C11.302 8.356 12.481 9.496 13.621 10.672 C14.964 12.129 14.964 12.129 17 12.812 C19.986 14.585 20.77 16.829 22 20 C21.67 20.99 21.34 21.98 21 23 C21.33 23.99 21.66 24.98 22 26 C22.66 26 23.32 26 24 26 C26.106 31.528 27.379 36.07 27 42 C26.34 41.01 25.68 40.02 25 39 C25 39.33 25 39.66 25 40 C25 41.667 25 43.333 25 45 C24.34 44.67 23.68 44.34 23 44 C22.535 41.784 22.155 39.55 21.812 37.312 C19.421 23.976 12.908 11.455 1.73 3.355 C1.159 2.908 0.588 2.461 0 2 C0 1.34 0 0.68 0 0 Z " fill="#141414" transform="translate(126,115)"/>
<path d="M0 0 C-10.133 6.755 -22.229 7.19 -34 7 C-34 5.35 -34 3.7 -34 2 C-31.562 0.781 -29.814 0.795 -27.09 0.684 C-25.604 0.621 -25.604 0.621 -24.088 0.557 C-23.048 0.517 -22.009 0.478 -20.938 0.438 C-19.419 0.373 -19.419 0.373 -17.869 0.307 C-11.907 0.064 -5.966 -0.043 0 0 Z " fill="#FFFFFF" transform="translate(271,190)"/>
<path d="M0 0 C0.799 0.009 1.598 0.018 2.422 0.027 C3.025 0.039 3.628 0.051 4.25 0.062 C4.25 0.392 4.25 0.722 4.25 1.062 C2.6 1.392 0.95 1.722 -0.75 2.062 C0.24 2.722 1.23 3.382 2.25 4.062 C2.25 3.403 2.25 2.743 2.25 2.062 C2.91 2.062 3.57 2.062 4.25 2.062 C3.25 5.062 3.25 5.062 0.25 7.062 C-1.07 7.062 -2.39 7.062 -3.75 7.062 C-3.255 7.681 -2.76 8.3 -2.25 8.938 C-0.75 11.062 -0.75 11.062 -0.75 13.062 C0.57 12.733 1.89 12.403 3.25 12.062 C3.25 11.403 3.25 10.743 3.25 10.062 C4.24 9.733 5.23 9.403 6.25 9.062 C6.58 11.373 6.91 13.683 7.25 16.062 C6.59 15.733 5.93 15.403 5.25 15.062 C4.343 15.124 3.435 15.186 2.5 15.25 C-1.637 15.011 -3.598 13.689 -6.75 11.062 C-6.75 8.062 -6.75 8.062 -5.75 7.062 C-8.39 7.062 -11.03 7.062 -13.75 7.062 C-14.08 6.073 -14.41 5.082 -14.75 4.062 C-13.75 3.062 -13.75 3.062 -11.188 3 C-9.981 3.031 -9.981 3.031 -8.75 3.062 C-8.75 2.403 -8.75 1.743 -8.75 1.062 C-5.755 0.19 -3.114 -0.046 0 0 Z " fill="#090909" transform="translate(236.75,96.9375)"/>
<path d="M0 0 C4.963 4.366 6.336 11.629 7 18 C7.069 21.002 7.06 23.998 7 27 C5.35 26.67 3.7 26.34 2 26 C1.879 25.071 1.758 24.141 1.633 23.184 C0.672 15.445 0.672 15.445 -1.125 7.875 C-2 5 -2 5 -2 1 C-1.34 0.67 -0.68 0.34 0 0 Z " fill="#FFFFFF" transform="translate(307,118)"/>
<path d="M0 0 C1.65 0.33 3.3 0.66 5 1 C5.33 1.99 5.66 2.98 6 4 C5.67 4.66 5.34 5.32 5 6 C5.66 6 6.32 6 7 6 C7.309 5.381 7.619 4.762 7.938 4.125 C8.625 2.75 9.312 1.375 10 0 C10.66 0 11.32 0 12 0 C12.934 3.01 13.044 3.867 12 7 C12.66 7 13.32 7 14 7 C14 7.66 14 8.32 14 9 C13.34 9 12.68 9 12 9 C12 9.66 12 10.32 12 11 C11.34 11 10.68 11 10 11 C10 10.34 10 9.68 10 9 C9.113 9.33 8.226 9.66 7.312 10 C4.291 10.912 2.116 11.183 -1 11 C-2.386 8.229 -2.188 6.067 -2 3 C-1.34 2.01 -0.68 1.02 0 0 Z " fill="#1B1B1B" transform="translate(317,272)"/>
<path d="M0 0 C12.738 1.829 23.557 13.588 30.971 23.34 C33.349 26.536 35.685 29.758 38 33 C35 33 35 33 32 32 C30.711 30.285 30.711 30.285 29.375 28.062 C22.283 17.01 13.287 8.641 1.941 2.199 C1.301 1.803 0.66 1.408 0 1 C0 0.67 0 0.34 0 0 Z " fill="#FFFFFF" transform="translate(142,70)"/>
<path d="M0 0 C2.566 3.849 2.551 6.435 3 11 C3.66 11 4.32 11 5 11 C5.826 34.008 5.826 34.008 1 42 C-0.133 38.447 -0.018 35.289 0.156 31.582 C0.209 30.327 0.262 29.072 0.316 27.779 C0.438 25.154 0.56 22.529 0.684 19.904 C0.968 13.123 0.999 6.718 0 0 Z " fill="#5E5E5E" transform="translate(149,146)"/>
<path d="M0 0 C5.977 2.224 8.345 5.446 11 11 C13.591 17.446 14.335 23.084 14 30 C12.68 30.33 11.36 30.66 10 31 C9.914 29.938 9.827 28.876 9.738 27.781 C8.685 16.607 6.443 9.72 -2 2 C-1.34 1.34 -0.68 0.68 0 0 Z " fill="#2D2D2D" transform="translate(110,140)"/>
<path d="M0 0 C1.415 4.468 0.059 7.744 -1.5 12 C-1.909 13.133 -1.909 13.133 -2.326 14.289 C-5.878 23.778 -10.959 33.588 -18 41 C-18.66 41 -19.32 41 -20 41 C-18.288 37.4 -16.233 34.044 -14.188 30.625 C-10.127 23.677 -7.487 16.662 -5 9 C-2.311 1.156 -2.311 1.156 0 0 Z " fill="#FFFFFF" transform="translate(193,193)"/>
<path d="M0 0 C0 2.31 0 4.62 0 7 C-6.801 10.139 -12.566 10.335 -20 10 C-16.902 5.021 -14.558 3.567 -8.812 2.188 C-7.767 1.975 -6.722 1.762 -5.645 1.543 C-3.769 1.158 -1.839 0 0 0 Z " fill="#FFFFFF" transform="translate(193,230)"/>
<path d="M0 0 C0.33 0 0.66 0 1 0 C1.28 1.131 1.559 2.261 1.848 3.426 C2.598 6.431 3.378 9.427 4.184 12.418 C9.068 30.813 11.382 48.936 11.842 67.951 C12.005 70.063 12.429 71.964 13 74 C12.01 73.67 11.02 73.34 10 73 C9.96 72.242 9.921 71.484 9.88 70.703 C8.741 49.833 7.176 29.172 0.487 9.224 C-0.633 5.814 -1.408 3.411 0 0 Z " fill="#000000" transform="translate(177,111)"/>
<path d="M0 0 C5.661 1.617 8.473 5.31 11.312 10.312 C12.559 15.184 13.088 19.71 10.879 24.359 C9.659 26.309 8.395 28.172 7 30 C6.67 29.01 6.34 28.02 6 27 C6.33 26.34 6.66 25.68 7 25 C7.881 14.809 6.557 7.869 0 0 Z " fill="#FFFFFF" transform="translate(236,116)"/>
<path d="M0 0 C3.31 1.485 5.52 3.38 8 6 C8.682 6.683 9.364 7.366 10.066 8.07 C13.683 11.907 13.683 11.907 15 14 C14.67 14.99 14.34 15.98 14 17 C13.34 16.319 12.68 15.639 12 14.938 C11.003 13.955 10.003 12.976 9 12 C8.407 11.411 7.814 10.822 7.203 10.215 C-0.65 2.817 -8.457 1.571 -19 1 C-13.423 -2.605 -6.215 -1.108 0 0 Z " fill="#919191" transform="translate(127,111)"/>
<path d="M0 0 C0.495 0.99 0.495 0.99 1 2 C-5.003 12.17 -12.76 19.864 -24 24 C-26.726 24.592 -29.203 24.845 -32 25 C-29.881 22.639 -28.19 21.495 -25.188 20.5 C-15.193 16.92 -7.476 11.2 -2 2 C-1.34 1.34 -0.68 0.68 0 0 Z " fill="#000000" transform="translate(313,152)"/>
<path d="M0 0 C1.871 0.633 1.871 0.633 4 2 C5.16 4.617 5.16 4.617 6.062 7.875 C6.39 9.047 6.717 10.219 7.055 11.426 C7.523 13.195 7.523 13.195 8 15 C8.291 16.025 8.583 17.05 8.883 18.105 C10.773 25.051 11.631 31.817 12 39 C10.02 39.495 10.02 39.495 8 40 C6.812 37.75 6.812 37.75 6 35 C6.493 34.386 6.987 33.771 7.495 33.138 C9.243 31.113 9.243 31.113 8.913 28.637 C8.595 27.353 8.595 27.353 8.27 26.043 C8.043 25.095 7.817 24.147 7.584 23.17 C7.329 22.186 7.075 21.202 6.812 20.188 C6.577 19.215 6.342 18.242 6.1 17.24 C4.849 12.125 3.486 7.051 2 2 C1.34 2 0.68 2 0 2 C0 1.34 0 0.68 0 0 Z " fill="#000000" transform="translate(170,112)"/>
<path d="M0 0 C6.93 0 13.86 0 21 0 C17.365 1.818 13.816 3.242 10 4.625 C8.175 5.294 8.175 5.294 6.312 5.977 C3 7 3 7 -1 7 C-0.67 4.69 -0.34 2.38 0 0 Z " fill="#FFFFFF" transform="translate(226,198)"/>
<path d="M0 0 C2.97 0 5.94 0 9 0 C9 1.32 9 2.64 9 4 C6.69 3.67 4.38 3.34 2 3 C2 3.99 2 4.98 2 6 C4.31 6.33 6.62 6.66 9 7 C9.33 8.65 9.66 10.3 10 12 C7.03 12 4.06 12 1 12 C0.67 8.04 0.34 4.08 0 0 Z " fill="#FFFFFF" transform="translate(225,185)"/>
<path d="M0 0 C-0.33 1.32 -0.66 2.64 -1 4 C-0.381 4.268 0.238 4.536 0.875 4.812 C3 6 3 6 5 9 C-1.983 9.602 -1.983 9.602 -4.762 7.957 C-6.228 6.698 -7.617 5.351 -9 4 C-9.99 3.34 -10.98 2.68 -12 2 C-7.879 0.002 -4.548 -0.178 0 0 Z " fill="#FFFFFF" transform="translate(220,105)"/>
<path d="M0 0 C1.65 0.33 3.3 0.66 5 1 C5.33 2.65 5.66 4.3 6 6 C5.01 6.33 4.02 6.66 3 7 C2.67 6.34 2.34 5.68 2 5 C1.01 4.67 0.02 4.34 -1 4 C-0.67 9.015 -0.67 9.015 2 13 C0.734 13.532 -0.538 14.05 -1.812 14.562 C-2.52 14.853 -3.228 15.143 -3.957 15.441 C-6 16 -6 16 -9 15 C-8.361 14.649 -7.721 14.299 -7.062 13.938 C-4.178 11.228 -4.29 8.841 -4 5 C-3.34 5 -2.68 5 -2 5 C-2 4.34 -2 3.68 -2 3 C-1.34 3 -0.68 3 0 3 C0 2.01 0 1.02 0 0 Z " fill="#FFFFFF" transform="translate(277,150)"/>
<path d="M0 0 C1.675 0.286 3.344 0.618 5 1 C6.125 8.75 6.125 8.75 5 11 C3.02 11 1.04 11 -1 11 C-1.948 7.314 -2.021 4.677 -1 1 C-0.67 0.67 -0.34 0.34 0 0 Z " fill="#262626" transform="translate(301,272)"/>
<path d="M0 0 C1.675 0.286 3.344 0.618 5 1 C6.125 8.75 6.125 8.75 5 11 C2.625 11.188 2.625 11.188 0 11 C-2 8 -2 8 -1.688 4.375 C-1 1 -1 1 0 0 Z " fill="#3D3D3D" transform="translate(115,191)"/>
<path d="M0 0 C2.625 0.562 2.625 0.562 5 2 C5.938 4.438 5.938 4.438 6 7 C5.01 8.485 5.01 8.485 4 10 C1.5 10.312 1.5 10.312 -1 10 C-3 8 -3 8 -3.312 5 C-3.209 4.01 -3.106 3.02 -3 2 C-2.01 1.34 -1.02 0.68 0 0 Z " fill="#FFFFFF" transform="translate(292,128)"/>
<path d="M0 0 C1.32 0 2.64 0 4 0 C4 0.66 4 1.32 4 2 C4.99 2 5.98 2 7 2 C7.66 4.31 8.32 6.62 9 9 C5.7 9 2.4 9 -1 9 C-0.67 6.03 -0.34 3.06 0 0 Z " fill="#FFFFFF" transform="translate(199,189)"/>
<path d="M0 0 C2.375 0.312 2.375 0.312 5 1 C7 4 7 4 6.625 7.188 C6.419 8.116 6.213 9.044 6 10 C4.188 10.688 4.188 10.688 2 11 C0.25 9.938 0.25 9.938 -1 8 C-1.253 4.905 -1.399 2.799 0 0 Z " fill="#000000" transform="translate(124,136)"/>
<path d="M0 0 C4.706 0.706 4.706 0.706 6 2 C6.041 4.333 6.042 6.667 6 9 C4.02 9.99 4.02 9.99 2 11 C-0.062 9.375 -0.062 9.375 -2 7 C-1.688 1.688 -1.688 1.688 0 0 Z " fill="#373737" transform="translate(95,124)"/>
<path d="M0 0 C1.675 0.286 3.344 0.618 5 1 C6.25 7.625 6.25 7.625 4 11 C2.125 10.75 2.125 10.75 0 10 C-1.84 7.547 -2.044 6.375 -1.688 3.312 C-1 1 -1 1 0 0 Z " fill="#3C3C3C" transform="translate(127,180)"/>
<path d="M0 0 C0.99 2.97 1.98 5.94 3 9 C1.02 9 -0.96 9 -3 9 C-3.433 8.072 -3.866 7.144 -4.312 6.188 C-5.72 3.528 -6.761 1.919 -9 0 C-5.931 -1.534 -3.299 -0.55 0 0 Z " fill="#FFFFFF" transform="translate(80,63)"/>
<path d="M0 0 C1.675 0.286 3.344 0.618 5 1 C6.25 7.625 6.25 7.625 4 11 C2.125 10.75 2.125 10.75 0 10 C-1.84 7.547 -2.044 6.375 -1.688 3.312 C-1 1 -1 1 0 0 Z " fill="#454545" transform="translate(131,158)"/>
<path d="M0 0 C0.66 0.66 1.32 1.32 2 2 C4.323 2.4 6.657 2.74 9 3 C9.33 2.01 9.66 1.02 10 0 C10.99 0.33 11.98 0.66 13 1 C13.33 1.99 13.66 2.98 14 4 C13.01 4.33 12.02 4.66 11 5 C11 7.97 11 10.94 11 14 C10.67 14 10.34 14 10 14 C9.67 11.03 9.34 8.06 9 5 C6.69 4.67 4.38 4.34 2 4 C2.023 4.771 2.046 5.542 2.07 6.336 C2.097 7.84 2.097 7.84 2.125 9.375 C2.148 10.373 2.171 11.37 2.195 12.398 C2 15 2 15 0 17 C0 16.01 0 15.02 0 14 C-0.99 13.67 -1.98 13.34 -3 13 C-1.68 13 -0.36 13 1 13 C1 10.03 1 7.06 1 4 C-1.97 4 -4.94 4 -8 4 C-8 3.67 -8 3.34 -8 3 C-5.36 3 -2.72 3 0 3 C0 2.01 0 1.02 0 0 Z " fill="#FFFFFF" transform="translate(263,128)"/>
<path d="M0 0 C4.875 0.875 4.875 0.875 6 2 C6.041 4.333 6.042 6.667 6 9 C4.02 9.99 4.02 9.99 2 11 C-0.471 8.851 -1.699 7.311 -2 4 C-1.062 1.75 -1.062 1.75 0 0 Z " fill="#393939" transform="translate(110,123)"/>
<path d="M0 0 C1.83 5.489 -1.669 10.95 -4 16 C-8.297 23.226 -13.681 28.821 -22 31 C-19.714 28.531 -17.444 26.612 -14.625 24.812 C-7.211 19.574 -4.286 11.84 -1.762 3.406 C-1 1 -1 1 0 0 Z " fill="#000000" transform="translate(152,181)"/>
<path d="M0 0 C3.001 -0.267 4.577 -0.264 7.168 1.355 C13.9 7.462 13.9 7.462 15 12 C12.36 11.34 9.72 10.68 7 10 C6.67 8.35 6.34 6.7 6 5 C4.35 4.67 2.7 4.34 1 4 C0.67 2.68 0.34 1.36 0 0 Z " fill="#FFFFFF" transform="translate(219,116)"/>
<path d="M0 0 C3.63 0 7.26 0 11 0 C11 1.65 11 3.3 11 5 C10 6 10 6 7.715 6.098 C6.34 6.08 6.34 6.08 4.938 6.062 C4.018 6.053 3.099 6.044 2.152 6.035 C1.442 6.024 0.732 6.012 0 6 C0 4.02 0 2.04 0 0 Z " fill="#FFFFFF" transform="translate(84,74)"/>
<path d="M0 0 C1 3 1 3 0.18 5.051 C-4.453 13.081 -8.971 19.731 -18 23 C-21.385 23.372 -24.613 23.318 -28 23 C-28 22.67 -28 22.34 -28 22 C-27.371 21.914 -26.742 21.827 -26.094 21.738 C-20.462 20.814 -16.368 19.411 -11.691 16.121 C-10 15 -10 15 -7 14 C-5.9 12.22 -5.9 12.22 -5 10 C-3.333 6.667 -1.667 3.333 0 0 Z " fill="#FFFFFF" transform="translate(148,188)"/>
<path d="M0 0 C1.702 0.433 1.702 0.433 3.438 0.875 C4.958 1.25 6.479 1.625 8 2 C8.744 2.191 9.488 2.382 10.254 2.578 C15.303 3.807 19.804 4.189 25 4 C24.67 4.99 24.34 5.98 24 7 C15.175 7.28 7.806 6.403 0 2 C0 1.34 0 0.68 0 0 Z " fill="#FFFFFF" transform="translate(273,112)"/>
<path d="M0 0 C2.375 0.125 2.375 0.125 5 1 C6.562 3.312 6.562 3.312 8 6 C9.296 7.37 10.62 8.715 12 10 C10.541 9.94 9.082 9.851 7.625 9.75 C6.407 9.68 6.407 9.68 5.164 9.609 C3 9 3 9 1.781 7.094 C1.523 6.403 1.266 5.712 1 5 C0.629 4.257 0.258 3.515 -0.125 2.75 C-0.414 2.172 -0.703 1.595 -1 1 C-0.67 0.67 -0.34 0.34 0 0 Z " fill="#FFFFFF" transform="translate(62,62)"/>
<path d="M0 0 C2.438 1.375 2.438 1.375 3.312 3.812 C3.438 6.375 3.438 6.375 2.438 9.375 C0.457 9.705 -1.522 10.035 -3.562 10.375 C-3.542 9.282 -3.521 8.189 -3.5 7.062 C-3.377 3.431 -3.377 3.431 -4.562 0.375 C-2.562 -0.625 -2.562 -0.625 0 0 Z " fill="#FFFFFF" transform="translate(96.5625,159.625)"/>
<path d="M0 0 C3.63 0.33 7.26 0.66 11 1 C11 4.3 11 7.6 11 11 C2.047 4.093 2.047 4.093 0 0 Z " fill="#FFFFFF" transform="translate(161,75)"/>
<path d="M0 0 C3.63 0 7.26 0 11 0 C10.67 0.99 10.34 1.98 10 3 C10.875 5.167 10.875 5.167 12 7 C10.266 7.711 10.266 7.711 8 8 C5.859 6.602 5.859 6.602 3.75 4.625 C3.044 3.978 2.337 3.331 1.609 2.664 C0 1 0 1 0 0 Z " fill="#FFFFFF" transform="translate(220,104)"/>
<path d="M0 0 C0 1.98 0 3.96 0 6 C-1.766 6.699 -3.538 7.384 -5.312 8.062 C-6.299 8.445 -7.285 8.828 -8.301 9.223 C-11 10 -11 10 -14 9 C-3.333 0 -3.333 0 0 0 Z " fill="#FFFFFF" transform="translate(304,174)"/>
<path d="M0 0 C0 0.66 0 1.32 0 2 C-7.731 3.357 -15.145 4.319 -23 4 C-22.67 3.34 -22.34 2.68 -22 2 C-19.603 1.516 -17.297 1.157 -14.875 0.875 C-12.922 0.624 -12.922 0.624 -10.93 0.367 C-7.257 0.024 -3.686 -0.067 0 0 Z " fill="#000000" transform="translate(250,170)"/>
<path d="M0 0 C5.337 0.73 10.635 1.613 15.938 2.562 C16.717 2.701 17.496 2.84 18.299 2.982 C20.199 3.321 22.1 3.66 24 4 C24 4.66 24 5.32 24 6 C15.3 5.771 7.69 5.48 0 1 C0 0.67 0 0.34 0 0 Z " fill="#000000" transform="translate(41,50)"/>
<path d="M0 0 C2.97 0.99 5.94 1.98 9 3 C8.67 3.99 8.34 4.98 8 6 C1.375 7.25 1.375 7.25 -2 5 C-1.34 3.35 -0.68 1.7 0 0 Z " fill="#FFFFFF" transform="translate(267,146)"/>
<path d="M0 0 C-0.33 0.99 -0.66 1.98 -1 3 C-10.405 3.99 -10.405 3.99 -20 5 C-20 4.01 -20 3.02 -20 2 C-17.229 1.665 -14.459 1.332 -11.688 1 C-10.902 0.905 -10.116 0.809 -9.307 0.711 C-8.549 0.621 -7.792 0.53 -7.012 0.438 C-6.315 0.354 -5.619 0.27 -4.901 0.184 C-3 0 -3 0 0 0 Z " fill="#FFFFFF" transform="translate(211,133)"/>
<path d="M0 0 C1.65 0 3.3 0 5 0 C5.33 1.98 5.66 3.96 6 6 C9.3 5.67 12.6 5.34 16 5 C15.67 5.99 15.34 6.98 15 8 C14.01 7.67 13.02 7.34 12 7 C12.33 8.32 12.66 9.64 13 11 C12.34 11 11.68 11 11 11 C11 10.34 11 9.68 11 9 C9.948 9.217 9.948 9.217 8.875 9.438 C4.868 8.828 3.625 6.772 1.137 3.727 C0 2 0 2 0 0 Z " fill="#FFFFFF" transform="translate(174,183)"/>
<path d="M0 0 C2.679 4.019 2.156 6.242 2 11 C1.567 10.526 1.134 10.051 0.688 9.562 C-1.023 7.763 -1.023 7.763 -4 7 C-5.188 4.438 -5.188 4.438 -6 2 C-4.02 1.34 -2.04 0.68 0 0 Z " fill="#FFFFFF" transform="translate(278,121)"/>
<path d="M0 0 C0.991 3.106 0.959 5.052 0.125 8.188 C-1.006 12.787 -1.551 17.286 -2 22 C-2.66 22 -3.32 22 -4 22 C-4.371 14.581 -3.222 8.092 -1 1 C-0.67 0.67 -0.34 0.34 0 0 Z " fill="#000000" transform="translate(65,116)"/>
<path d="M0 0 C3.375 -0.125 3.375 -0.125 7 0 C7.66 0.66 8.32 1.32 9 2 C8.625 4.625 8.625 4.625 8 7 C6.68 7.33 5.36 7.66 4 8 C2.68 5.36 1.36 2.72 0 0 Z " fill="#FFFFFF" transform="translate(64,73)"/>
<path d="M0 0 C0.66 0 1.32 0 2 0 C2.33 3.96 2.66 7.92 3 12 C1.68 12.33 0.36 12.66 -1 13 C-2.188 10.75 -2.188 10.75 -3 8 C-1.625 5.938 -1.625 5.938 0 4 C0 2.68 0 1.36 0 0 Z " fill="#3E3E3E" transform="translate(179,139)"/>
<path d="M0 0 C2.64 0 5.28 0 8 0 C7.217 3.916 5.608 7.364 4 11 C3.34 11 2.68 11 2 11 C2.875 5.25 2.875 5.25 4 3 C2.68 3 1.36 3 0 3 C0 2.01 0 1.02 0 0 Z " fill="#000000" transform="translate(307,272)"/>
<path d="M0 0 C0.743 0.474 1.485 0.949 2.25 1.438 C4.636 2.793 6.361 3.454 9 4 C9.66 4.33 10.32 4.66 11 5 C9.68 6.32 8.36 7.64 7 9 C3.634 7.557 1.49 5.667 -1 3 C-0.67 2.01 -0.34 1.02 0 0 Z " fill="#FFFFFF" transform="translate(259,155)"/>
<path d="M0 0 C0.66 0.33 1.32 0.66 2 1 C1.67 1.99 1.34 2.98 1 4 C-3.921 4.167 -7.503 4.248 -12 2 C-8.085 -0.61 -4.548 -0.22 0 0 Z " fill="#3B3B3B" transform="translate(273,90)"/>
<path d="M0 0 C1.437 -0.054 2.875 -0.093 4.312 -0.125 C5.113 -0.148 5.914 -0.171 6.738 -0.195 C9 0 9 0 12 2 C7.879 3.998 4.548 4.178 0 4 C0 2.68 0 1.36 0 0 Z " fill="#4A4A4A" transform="translate(213,101)"/>
<path d="M0 0 C2.31 0 4.62 0 7 0 C7 1.65 7 3.3 7 5 C4.69 5.33 2.38 5.66 0 6 C0 4.02 0 2.04 0 0 Z " fill="#FFFFFF" transform="translate(75,74)"/>
<path d="M0 0 C2.97 0 5.94 0 9 0 C9 0.66 9 1.32 9 2 C8.01 2 7.02 2 6 2 C6 4.97 6 7.94 6 11 C5.34 11 4.68 11 4 11 C4 8.03 4 5.06 4 2 C2.68 2 1.36 2 0 2 C0 1.34 0 0.68 0 0 Z " fill="#000000" transform="translate(286,272)"/>
<path d="M0 0 C4.128 0.607 7.332 2.038 11 4 C7.375 7 7.375 7 4 7 C2.02 3.535 2.02 3.535 0 0 Z " fill="#FFFFFF" transform="translate(266,113)"/>
<path d="M0 0 C-0.312 1.875 -0.312 1.875 -1 4 C-4.188 6.125 -6.265 6.502 -10 7 C-8.848 4.532 -7.952 2.952 -6 1 C-3.902 0.344 -2.2 0 0 0 Z " fill="#FFFFFF" transform="translate(193,223)"/>
<path d="M0 0 C0 1.32 0 2.64 0 4 C-2.31 4.66 -4.62 5.32 -7 6 C-7.33 4.35 -7.66 2.7 -8 1 C-2.25 -1.125 -2.25 -1.125 0 0 Z " fill="#FFFFFF" transform="translate(205,219)"/>
<path d="M0 0 C1.32 0.33 2.64 0.66 4 1 C4 3.97 4 6.94 4 10 C2.68 10.33 1.36 10.66 0 11 C0 7.37 0 3.74 0 0 Z " fill="#000000" transform="translate(120,160)"/>
<path d="M0 0 C1.806 4.462 2.117 7.31 1 12 C-1.961 8.636 -2.923 5.308 -4 1 C-2 0 -2 0 0 0 Z " fill="#1E1E1E" transform="translate(121,151)"/>
<path d="M0 0 C0.33 0.66 0.66 1.32 1 2 C-3.12 3.292 -6.668 4.263 -11 4 C-11 3.01 -11 2.02 -11 1 C-7.266 0.121 -3.832 -0.089 0 0 Z " fill="#FFFFFF" transform="translate(207,144)"/>
<path d="M0 0 C2.97 0.495 2.97 0.495 6 1 C5.625 3.938 5.625 3.938 5 7 C4.01 7.495 4.01 7.495 3 8 C2.34 7.67 1.68 7.34 1 7 C0.593 4.678 0.256 2.343 0 0 Z " fill="#FFFFFF" transform="translate(243,106)"/>
<path d="M0 0 C2.312 -0.312 2.312 -0.312 5 0 C6.875 2.375 6.875 2.375 8 5 C7.67 5.66 7.34 6.32 7 7 C4.202 6.614 3.179 6.199 1.25 4.062 C0 2 0 2 0 0 Z " fill="#FFFFFF" transform="translate(233,104)"/>
<path d="M0 0 C4.29 0.33 8.58 0.66 13 1 C11.68 2.32 10.36 3.64 9 5 C5.938 5 5.938 5 3 4 C2.01 2.68 1.02 1.36 0 0 Z " fill="#FFFFFF" transform="translate(93,174)"/>
<path d="M0 0 C0.66 0 1.32 0 2 0 C3.429 2.354 4.087 3.48 3.625 6.25 C3.419 6.827 3.213 7.405 3 8 C2.01 8 1.02 8 0 8 C-0.381 5.674 -0.713 3.339 -1 1 C-0.67 0.67 -0.34 0.34 0 0 Z " fill="#FFFFFF" transform="translate(87,161)"/>
<path d="M0 0 C-0.598 0.289 -1.196 0.577 -1.812 0.875 C-4.193 2.047 -4.193 2.047 -7 4 C-7.99 4 -8.98 4 -10 4 C-10 4.66 -10 5.32 -10 6 C-10.66 5.67 -11.32 5.34 -12 5 C-8.48 -1.24 -7.024 -1.171 0 0 Z " fill="#FFFFFF" transform="translate(102,150)"/>
<path d="M0 0 C0.66 0.33 1.32 0.66 2 1 C0.68 3.31 -0.64 5.62 -2 8 C-2.66 8 -3.32 8 -4 8 C-4.66 6.35 -5.32 4.7 -6 3 C-4.035 1.932 -2.031 0.934 0 0 Z " fill="#FFFFFF" transform="translate(316,114)"/>
<path d="M0 0 C2.31 0.66 4.62 1.32 7 2 C6.34 4.31 5.68 6.62 5 9 C4.34 9 3.68 9 3 9 C2.01 6.03 1.02 3.06 0 0 Z " fill="#FFFFFF" transform="translate(85,63)"/>
<path d="M0 0 C1.98 0.66 3.96 1.32 6 2 C6 2.99 6 3.98 6 5 C5.34 5 4.68 5 4 5 C4 5.66 4 6.32 4 7 C3.01 7.33 2.02 7.66 1 8 C0.234 5.224 0 2.893 0 0 Z " fill="#424242" transform="translate(249,155)"/>
<path d="M0 0 C0.66 0.33 1.32 0.66 2 1 C2 2.65 2 4.3 2 6 C0.35 5.67 -1.3 5.34 -3 5 C-3 3.68 -3 2.36 -3 1 C-2.01 0.67 -1.02 0.34 0 0 Z " fill="#FFFFFF" transform="translate(240,128)"/>
<path d="M0 0 C3.3 0.33 6.6 0.66 10 1 C7 4 7 4 4.738 4.293 C3.938 4.258 3.137 4.223 2.312 4.188 C1.504 4.16 0.696 4.133 -0.137 4.105 C-0.752 4.071 -1.366 4.036 -2 4 C-2 3.34 -2 2.68 -2 2 C-1.34 2 -0.68 2 0 2 C0 1.34 0 0.68 0 0 Z " fill="#000000" transform="translate(295,93)"/>
<path d="M0 0 C0.99 0.33 1.98 0.66 3 1 C2.814 1.619 2.629 2.237 2.438 2.875 C1.763 5.042 1.763 5.042 3 7 C1.02 7.99 1.02 7.99 -1 9 C-1.81 6.085 -2.218 4.539 -1.062 1.688 C-0.712 1.131 -0.361 0.574 0 0 Z " fill="#FFFFFF" transform="translate(252,110)"/>
<path d="M0 0 C2.062 0.438 2.062 0.438 4 1 C4.33 2.32 4.66 3.64 5 5 C4.01 5.495 4.01 5.495 3 6 C2.01 5.67 1.02 5.34 0 5 C-0.75 3 -0.75 3 -1 1 C-0.67 0.67 -0.34 0.34 0 0 Z " fill="#FFFFFF" transform="translate(89,56)"/>
<path d="M0 0 C2 0.25 2 0.25 4 1 C4.33 1.99 4.66 2.98 5 4 C3.35 4.66 1.7 5.32 0 6 C-0.382 4.344 -0.714 2.675 -1 1 C-0.67 0.67 -0.34 0.34 0 0 Z " fill="#FFFFFF" transform="translate(313,180)"/>
<path d="M0 0 C0.99 0 1.98 0 3 0 C3.33 2.31 3.66 4.62 4 7 C2.68 6.67 1.36 6.34 0 6 C0 4.02 0 2.04 0 0 Z " fill="#FFFFFF" transform="translate(268,133)"/>
<path d="M0 0 C2.31 0.33 4.62 0.66 7 1 C6.34 2.32 5.68 3.64 5 5 C3.062 4.188 3.062 4.188 1 3 C0.67 2.01 0.34 1.02 0 0 Z " fill="#FFFFFF" transform="translate(255,142)"/>
<path d="M0 0 C0.66 0.33 1.32 0.66 2 1 C2 3.31 2 5.62 2 8 C1.01 8 0.02 8 -1 8 C-1.042 5.667 -1.041 3.333 -1 1 C-0.67 0.67 -0.34 0.34 0 0 Z " fill="#FFFFFF" transform="translate(276,134)"/>
<path d="M0 0 C1.938 0.75 1.938 0.75 4 2 C4.75 4.125 4.75 4.125 5 6 C3.125 5.75 3.125 5.75 1 5 C-0.25 2.938 -0.25 2.938 -1 1 C-0.67 0.67 -0.34 0.34 0 0 Z " fill="#FFFFFF" transform="translate(261,116)"/>
<path d="M0 0 C0 0.66 0 1.32 0 2 C-2.97 2.66 -5.94 3.32 -9 4 C-5 0 -5 0 0 0 Z " fill="#000000" transform="translate(238,202)"/>
<path d="M0 0 C1.65 0 3.3 0 5 0 C5 1.65 5 3.3 5 5 C3.02 4.34 1.04 3.68 -1 3 C-0.67 2.01 -0.34 1.02 0 0 Z " fill="#FFFFFF" transform="translate(258,133)"/>
<path d="M0 0 C4.522 2.261 5.225 3.423 7 8 C6.67 8.99 6.34 9.98 6 11 C4.02 7.37 2.04 3.74 0 0 Z " fill="#000000" transform="translate(141,127)"/>
<path d="M0 0 C1.206 2.332 2.165 4.496 3 7 C1.35 7.33 -0.3 7.66 -2 8 C-1.34 5.36 -0.68 2.72 0 0 Z " fill="#FFFFFF" transform="translate(165,110)"/>
<path d="M0 0 C0.99 0 1.98 0 3 0 C3 1.32 3 2.64 3 4 C1.35 4.66 -0.3 5.32 -2 6 C-1.34 4.02 -0.68 2.04 0 0 Z " fill="#FFFFFF" transform="translate(190,217)"/>
<path d="M0 0 C2.475 0.495 2.475 0.495 5 1 C4.67 2.65 4.34 4.3 4 6 C3.34 6 2.68 6 2 6 C1.34 4.02 0.68 2.04 0 0 Z " fill="#2A2A2A" transform="translate(145,140)"/>
<path d="M0 0 C0 0.99 0 1.98 0 3 C-1.98 3.33 -3.96 3.66 -6 4 C-6 3.01 -6 2.02 -6 1 C-3.924 0.447 -2.156 0 0 0 Z " fill="#FFFFFF" transform="translate(222,183)"/>
</svg>
