<?xml version="1.0" encoding="UTF-8"?>
<!-- Generator: visioncortex VTracer 0.6.4 -->
<svg version="1.1" xmlns="http://www.w3.org/2000/svg" width="325" height="311">
<path d="M0 0 C107.25 0 214.5 0 325 0 C325 102.63 325 205.26 325 311 C217.75 311 110.5 311 0 311 C0 208.37 0 105.74 0 0 Z " fill="#F9F9F9" transform="translate(0,0)"/>
<path d="M0 0 C0 0.66 0 1.32 0 2 C0.66 2 1.32 2 2 2 C2 3.65 2 5.3 2 7 C3.39 6.983 3.39 6.983 4.809 6.965 C6.006 6.956 7.204 6.947 8.438 6.938 C9.632 6.926 10.827 6.914 12.059 6.902 C15 7 15 7 16 8 C16.093 9.504 16.117 11.013 16.114 12.52 C16.113 13.481 16.113 14.442 16.113 15.432 C16.108 16.476 16.103 17.521 16.098 18.598 C16.096 20.194 16.096 20.194 16.093 21.822 C16.088 25.235 16.075 28.649 16.062 32.062 C16.057 34.37 16.053 36.678 16.049 38.986 C16.038 44.658 16.021 50.329 16 56 C15.67 56 15.34 56 15 56 C14.67 40.49 14.34 24.98 14 9 C11.03 8.67 8.06 8.34 5 8 C5.99 12.455 5.99 12.455 7 17 C6.34 17 5.68 17 5 17 C4.917 17.598 4.835 18.196 4.75 18.812 C3.725 21.801 2.753 22.417 0 24 C-9.707 28.57 -20.121 28.061 -30.172 24.852 C-32 24 -32 24 -33 22 C-32.34 22 -31.68 22 -31 22 C-31 21.34 -31 20.68 -31 20 C-31.66 20 -32.32 20 -33 20 C-33 16.37 -33 12.74 -33 9 C-41.91 9 -50.82 9 -60 9 C-60 9.66 -60 10.32 -60 11 C-55.38 12.65 -50.76 14.3 -46 16 C-50.463 17.116 -51.608 16.69 -55.75 15.062 C-56.735 14.682 -57.72 14.302 -58.734 13.91 C-59.482 13.61 -60.23 13.309 -61 13 C-61.151 22.173 -60.769 31.314 -60.31 40.473 C-60.228 42.172 -60.151 43.871 -60.081 45.57 C-59.978 48.047 -59.856 50.523 -59.73 53 C-59.702 53.759 -59.674 54.519 -59.645 55.301 C-59.432 59.383 -59.432 59.383 -57.587 62.936 C-55.608 64.263 -53.671 65.102 -51.438 65.938 C-50.558 66.271 -49.679 66.605 -48.773 66.949 C-47.401 67.469 -47.401 67.469 -46 68 C-43.374 69.084 -40.75 70.172 -38.129 71.266 C-35.903 72.163 -35.903 72.163 -33 72 C-32.773 71.216 -32.546 70.433 -32.312 69.625 C-31 67 -31 67 -28.812 65.75 C-18.849 63.093 -6.525 62.535 3 67 C3 67.66 3 68.32 3 69 C3.66 69.33 4.32 69.66 5 70 C5 72.97 5 75.94 5 79 C5.928 79.289 6.856 79.577 7.812 79.875 C11 81 11 81 14 83 C15.226 80.547 15.114 78.949 15.098 76.211 C15.094 75.27 15.091 74.329 15.088 73.359 C15.08 72.375 15.071 71.39 15.062 70.375 C15.056 68.886 15.056 68.886 15.049 67.367 C15.037 64.911 15.021 62.456 15 60 C15.66 59.67 16.32 59.34 17 59 C17 63.62 17 68.24 17 73 C17.66 73.33 18.32 73.66 19 74 C18.34 74 17.68 74 17 74 C17.031 75.887 17.031 75.887 17.062 77.812 C17.109 80.641 16.917 82.249 16 85 C17.169 87.06 17.169 87.06 18.875 89.062 C22.64 93.764 23.178 96.654 23.238 102.641 C23.246 103.4 23.254 104.16 23.263 104.943 C23.277 106.554 23.287 108.164 23.295 109.775 C23.312 112.227 23.356 114.677 23.4 117.129 C23.411 118.695 23.419 120.262 23.426 121.828 C23.443 122.556 23.461 123.285 23.479 124.035 C23.457 129.162 22.24 132.06 19 136 C18.34 136.33 17.68 136.66 17 137 C17 141.95 17 146.9 17 152 C16.34 151.67 15.68 151.34 15 151 C14.586 148.277 14.586 148.277 14.375 144.938 C14.263 143.28 14.263 143.28 14.148 141.59 C14.099 140.735 14.05 139.881 14 139 C12.515 139.928 12.515 139.928 11 140.875 C3.583 145.51 -4.865 145.365 -13.312 145.375 C-14.377 145.399 -15.441 145.424 -16.537 145.449 C-24.206 145.477 -29.928 143.97 -37 141 C-37 144.63 -37 148.26 -37 152 C-37.33 152 -37.66 152 -38 152 C-38.026 151.157 -38.052 150.314 -38.078 149.445 C-38.135 148.35 -38.192 147.254 -38.25 146.125 C-38.296 145.034 -38.343 143.944 -38.391 142.82 C-38.688 139.867 -38.688 139.867 -41.047 138.617 C-41.691 138.414 -42.336 138.21 -43 138 C-43 137.34 -43 136.68 -43 136 C-43.66 136 -44.32 136 -45 136 C-47.742 132.651 -49.862 129.329 -50.312 125 C-50.209 124.34 -50.106 123.68 -50 123 C-50.743 122.794 -51.485 122.588 -52.25 122.375 C-56.095 120.453 -57.175 118.92 -59 115 C-59.323 110.976 -59.235 107.027 -59 103 C-59.804 102.918 -60.609 102.835 -61.438 102.75 C-70.287 100.887 -75.144 97.384 -80.957 90.438 C-82.916 87.964 -82.916 87.964 -85.262 86.062 C-87.584 83.307 -87.133 81.507 -87 78 C-97.399 75.182 -107.717 73.069 -118.392 71.617 C-120.632 71.311 -122.871 70.992 -125.109 70.67 C-134.064 69.406 -142.967 68.506 -152 68 C-151.979 68.686 -151.959 69.371 -151.937 70.078 C-151.752 77.276 -151.864 84.397 -157 90 C-156.54 86.856 -156.001 84.002 -154.938 81 C-152.464 72.649 -153.466 63.197 -156 55 C-156.347 53.336 -156.687 51.671 -157 50 C-154.672 52.834 -153.926 54.295 -153 58 C-148.05 58 -143.1 58 -138 58 C-138.389 56.053 -138.779 54.105 -139.168 52.158 C-139.52 50.4 -139.871 48.643 -140.222 46.885 C-141.245 41.764 -142.273 36.645 -143.309 31.527 C-143.527 30.442 -143.746 29.356 -143.972 28.238 C-144.396 26.136 -144.821 24.034 -145.249 21.932 C-146.469 15.869 -147.565 9.798 -148.548 3.691 C-148.981 1.115 -149.474 -1.441 -150 -4 C-152.31 -4 -154.62 -4 -157 -4 C-157 -4.33 -157 -4.66 -157 -5 C-151.599 -5.105 -146.216 -5.091 -140.822 -4.777 C-120.597 -3.62 -100.341 -3.886 -80.091 -3.931 C-74.995 -3.942 -69.899 -3.946 -64.803 -3.951 C-54.868 -3.962 -44.934 -3.979 -35 -4 C-35 -3.67 -35 -3.34 -35 -3 C-50.008 -1.987 -64.962 -1.886 -80 -2 C-79.92 -1.262 -79.839 -0.524 -79.756 0.237 C-78.305 13.596 -76.856 26.953 -75.647 40.337 C-75.326 43.834 -74.958 47.288 -74.449 50.766 C-73.875 54.902 -73.936 58.828 -74 63 C-69.71 63 -65.42 63 -61 63 C-61.055 62.004 -61.111 61.007 -61.168 59.981 C-61.512 53.78 -61.857 47.58 -62.201 41.379 C-62.245 40.597 -62.289 39.814 -62.334 39.008 C-62.421 37.422 -62.507 35.836 -62.59 34.249 C-62.811 30.114 -63.071 25.987 -63.395 21.858 C-63.455 21.031 -63.515 20.204 -63.577 19.352 C-63.693 17.768 -63.821 16.185 -63.962 14.603 C-64.112 12.46 -64.112 12.46 -64 9 C-60.406 6.604 -57.851 6.742 -53.707 6.805 C-53.001 6.808 -52.295 6.81 -51.568 6.813 C-49.316 6.824 -47.064 6.85 -44.812 6.875 C-43.285 6.885 -41.757 6.894 -40.229 6.902 C-36.486 6.924 -32.743 6.959 -29 7 C-29.032 6.048 -29.063 5.097 -29.096 4.116 C-29 1 -29 1 -27.461 -0.863 C-17.844 -7.545 -8.977 -7.668 0 0 Z " fill="#020202" transform="translate(160,80)"/>
<path d="M0 0 C13.405 -0.069 26.788 0.134 40.188 0.5 C42.028 0.548 43.868 0.597 45.709 0.645 C50.139 0.76 54.57 0.879 59 1 C60.259 6.373 61.319 11.685 62 17.168 C62.248 19.128 62.248 19.128 62.5 21.127 C62.667 22.48 62.834 23.834 63 25.188 C63.332 27.848 63.665 30.508 64 33.168 C64.162 34.46 64.325 35.752 64.492 37.083 C65.268 43.064 66.126 49.033 67 55 C64.681 36.998 62.354 18.997 60 1 C62.31 1 64.62 1 67 1 C73 57.958 73 57.958 73 68 C72.34 68 71.68 68 71 68 C70.34 66.35 69.68 64.7 69 63 C68.67 64.65 68.34 66.3 68 68 C67.34 68 66.68 68 66 68 C66 68.66 66 69.32 66 70 C60.605 70.36 56.313 69.357 51.141 67.859 C40.279 64.887 29.157 63.345 18 62 C15.775 55.265 14.95 48.386 14 41.375 C13.667 38.966 13.334 36.557 13 34.148 C12.838 32.972 12.675 31.797 12.508 30.585 C11.724 25.049 10.867 19.524 10 14 C10.451 17.813 10.912 21.626 11.375 25.438 C11.501 26.507 11.628 27.576 11.758 28.678 C12.433 34.197 13.29 39.552 14.572 44.961 C15.24 48.143 15.436 51.321 15.625 54.562 C15.7 55.781 15.775 56.999 15.852 58.254 C15.901 59.16 15.95 60.066 16 61 C14.35 61 12.7 61 11 61 C10.117 56.374 9.235 51.748 8.355 47.121 C7.459 42.405 6.558 37.691 5.655 32.976 C5.012 29.619 4.372 26.262 3.733 22.904 C3.411 21.218 3.088 19.531 2.764 17.845 C2.304 15.447 1.847 13.048 1.391 10.648 C1.25 9.921 1.11 9.194 0.965 8.444 C0.423 5.577 0 2.926 0 0 Z " fill="#F9F9F9" transform="translate(12,77)"/>
<path d="M0 0 C9.57 0 19.14 0 29 0 C28.01 0.495 28.01 0.495 27 1 C27 4.63 27 8.26 27 12 C27.66 12 28.32 12 29 12 C28.67 12.99 28.34 13.98 28 15 C38.505 18.984 48.585 19.731 58.977 15.07 C62.56 13.175 64.766 11.908 66 8 C65.864 5.272 65.451 2.704 65 0 C66.479 -0.027 67.958 -0.046 69.438 -0.062 C70.261 -0.074 71.085 -0.086 71.934 -0.098 C74 0 74 0 75 1 C75.122 2.503 75.178 4.012 75.205 5.52 C75.235 6.961 75.235 6.961 75.266 8.432 C75.282 9.476 75.299 10.521 75.316 11.598 C75.337 12.662 75.358 13.726 75.379 14.822 C75.445 18.235 75.504 21.649 75.562 25.062 C75.606 27.37 75.649 29.678 75.693 31.986 C75.801 37.657 75.902 43.329 76 49 C74.515 49.495 74.515 49.495 73 50 C74.485 50.99 74.485 50.99 76 52 C76.388 54.107 76.388 54.107 76.398 56.684 C76.402 57.611 76.406 58.539 76.41 59.494 C76.399 60.465 76.387 61.437 76.375 62.438 C76.387 63.405 76.398 64.372 76.41 65.369 C76.406 66.298 76.402 67.227 76.398 68.184 C76.395 69.035 76.392 69.886 76.388 70.763 C75.925 73.434 75.07 74.317 73 76 C69.994 74.665 67.383 73.289 65 71 C64.294 67.896 64.509 65.128 65 62 C63.515 61.505 63.515 61.505 62 61 C61.443 60.505 60.886 60.01 60.312 59.5 C57.041 57.378 53.797 57.217 50 57 C49.308 56.959 48.616 56.917 47.902 56.875 C43.413 56.745 39.016 57.124 34.562 57.688 C33.553 57.815 32.544 57.943 31.504 58.074 C30.678 58.38 29.851 58.685 29 59 C28.283 60.646 27.614 62.313 27 64 C25.16 64.949 25.16 64.949 23 65 C20.809 64.145 20.809 64.145 18.438 62.812 C13.829 60.341 9.223 58.589 4.25 56.992 C2 56 2 56 0 53 C-0.31 50.32 -0.514 47.724 -0.633 45.035 C-0.674 44.247 -0.716 43.458 -0.759 42.646 C-0.845 40.972 -0.927 39.299 -1.005 37.625 C-1.123 35.103 -1.254 32.582 -1.387 30.061 C-1.832 21.364 -2.099 12.71 -2 4 C1.3 4.99 4.6 5.98 8 7 C3.545 5.02 3.545 5.02 -1 3 C-0.67 2.01 -0.34 1.02 0 0 Z " fill="#FCFCFC" transform="translate(100,88)"/>
<path d="M0 0 C1.32 0 2.64 0 4 0 C4 1.65 4 3.3 4 5 C3.01 5.33 2.02 5.66 1 6 C1.99 6.33 2.98 6.66 4 7 C4.33 8.98 4.66 10.96 5 13 C17.631 17.753 24.482 18.457 37.461 13.84 C40 13 40 13 42 13 C42 11.02 42 9.04 42 7 C46.95 9.475 46.95 9.475 52 12 C52 12.66 52 13.32 52 14 C52.66 14 53.32 14 54 14 C57.322 19.71 59.131 24.333 58 31 C57.34 31.99 56.68 32.98 56 34 C56.66 33.67 57.32 33.34 58 33 C58.088 36.229 58.141 39.458 58.188 42.688 C58.213 43.6 58.238 44.512 58.264 45.451 C58.318 50.452 58.355 53.997 55 58 C45.067 67.559 33.174 68.329 19.949 68.152 C8.92 67.727 0.047 64.664 -8 57 C-12.171 50.034 -11.09 40.798 -10.938 32.98 C-10.908 30.027 -10.908 30.027 -11.562 27.301 C-12 25 -12 25 -11 22 C-12.231 24.461 -12.206 26.258 -12.316 29.008 C-12.358 29.994 -12.4 30.98 -12.443 31.996 C-12.483 33.029 -12.522 34.061 -12.562 35.125 C-12.606 36.165 -12.649 37.206 -12.693 38.277 C-12.8 40.851 -12.902 43.426 -13 46 C-18.556 42.343 -18.556 42.343 -19.683 38.935 C-20.042 36.513 -20.242 34.132 -20.375 31.688 C-20.443 30.871 -20.512 30.054 -20.582 29.213 C-20.979 24.135 -21.059 19.091 -21 14 C-20.34 15.32 -19.68 16.64 -19 18 C-18.01 18 -17.02 18 -16 18 C-16 17.34 -16 16.68 -16 16 C-16.99 15.67 -17.98 15.34 -19 15 C-19 14.34 -19 13.68 -19 13 C-19.66 13 -20.32 13 -21 13 C-21.33 12.01 -21.66 11.02 -22 10 C-21.34 10 -20.68 10 -20 10 C-20 10.66 -20 11.32 -20 12 C-17.521 12.027 -15.042 12.047 -12.562 12.062 C-11.855 12.071 -11.148 12.079 -10.42 12.088 C-8.613 12.097 -6.806 12.052 -5 12 C-4.67 11.67 -4.34 11.34 -4 11 C-8.95 11 -13.9 11 -19 11 C-19 10.34 -19 9.68 -19 9 C-13.763 6.284 -8.513 3.943 -3.004 1.832 C-1.038 1.165 -1.038 1.165 0 0 Z " fill="#EAEAEA" transform="translate(123,155)"/>
<path d="M0 0 C2.482 -0.039 4.945 0.004 7.426 0.086 C8.275 0.103 9.125 0.119 10 0.137 C18.037 0.547 25.009 3.152 32.426 6.086 C32.096 6.746 31.766 7.406 31.426 8.086 C28.786 7.096 26.146 6.106 23.426 5.086 C23.921 6.076 23.921 6.076 24.426 7.086 C23.106 7.086 21.786 7.086 20.426 7.086 C21.601 7.705 21.601 7.705 22.801 8.336 C25.632 10.224 26.471 10.876 27.426 14.086 C27.886 19.799 27.443 23.057 24.426 28.086 C25.746 27.096 27.066 26.106 28.426 25.086 C25.33 32.34 17.362 36.078 10.426 39.086 C-2.867 44.403 -18.82 44.789 -32.574 41.086 C-32.244 40.426 -31.914 39.766 -31.574 39.086 C-32.117 38.76 -32.66 38.434 -33.219 38.098 C-33.934 37.661 -34.65 37.224 -35.387 36.773 C-36.094 36.344 -36.802 35.915 -37.531 35.473 C-41.23 32.962 -42.403 31.82 -43.449 27.336 C-43.882 22.827 -42.641 20.061 -40.574 16.086 C-40.244 15.426 -39.914 14.766 -39.574 14.086 C-40.234 13.756 -40.894 13.426 -41.574 13.086 C-44.184 13.98 -44.184 13.98 -46.574 15.086 C-46.574 15.746 -46.574 16.406 -46.574 17.086 C-47.234 16.756 -47.894 16.426 -48.574 16.086 C-38.356 4.776 -19.877 0.998 -5.305 0.172 C-3.536 0.116 -1.768 0.059 0 0 Z " fill="#EEEEEE" transform="translate(55.57421875,176.9140625)"/>
<path d="M0 0 C0.942 -0.016 1.885 -0.032 2.855 -0.049 C10.54 -0.054 17.526 0.999 23.688 5.875 C24.492 6.679 25.296 7.484 26.125 8.312 C26.125 8.973 26.125 9.632 26.125 10.312 C27.115 10.642 28.105 10.973 29.125 11.312 C29.125 11.973 29.125 12.632 29.125 13.312 C30.115 13.642 31.105 13.973 32.125 14.312 C32.179 16.062 32.218 17.812 32.25 19.562 C32.273 20.537 32.296 21.512 32.32 22.516 C32.063 26.197 31.137 28.22 28.645 30.91 C18.603 39.527 6.994 41.233 -5.835 40.525 C-12.347 39.846 -19.201 37.61 -24.875 34.312 C-25.574 32.996 -26.242 31.662 -26.875 30.312 C-27.865 29.652 -28.855 28.993 -29.875 28.312 C-30.805 31.103 -31.062 33.078 -31.191 35.98 C-31.254 37.319 -31.254 37.319 -31.318 38.686 C-31.377 40.079 -31.377 40.079 -31.438 41.5 C-31.481 42.44 -31.524 43.381 -31.568 44.35 C-31.674 46.67 -31.776 48.991 -31.875 51.312 C-32.535 51.312 -33.195 51.312 -33.875 51.312 C-33.734 47.396 -33.586 43.479 -33.438 39.562 C-33.398 38.471 -33.359 37.379 -33.318 36.254 C-33.036 28.918 -32.549 21.623 -31.875 14.312 C-30.555 13.983 -29.235 13.652 -27.875 13.312 C-27.875 12.322 -27.875 11.332 -27.875 10.312 C-27.215 10.312 -26.555 10.312 -25.875 10.312 C-25.875 9.652 -25.875 8.993 -25.875 8.312 C-24.371 6.875 -24.371 6.875 -22.312 5.312 C-21.651 4.797 -20.99 4.281 -20.309 3.75 C-13.883 -0.045 -7.236 -0.025 0 0 Z " fill="#E4E4E4" transform="translate(192.875,253.6875)"/>
<path d="M0 0 C0.33 0 0.66 0 1 0 C7.544 43.421 7.544 43.421 10 61 C10.804 61.014 11.609 61.028 12.438 61.043 C24.918 61.549 36.843 64.27 49 67 C50.742 67.387 52.484 67.774 54.227 68.16 C55.472 68.437 56.717 68.714 58 69 C58 68.34 58 67.68 58 67 C58.66 67 59.32 67 60 67 C59.67 65.35 59.34 63.7 59 62 C59.66 62 60.32 62 61 62 C61.99 64.475 61.99 64.475 63 67 C62.578 67.471 62.157 67.941 61.723 68.426 C60.901 69.36 60.901 69.36 60.062 70.312 C59.245 71.235 59.245 71.235 58.41 72.176 C56.429 74.738 55.999 77.009 55.5 80.188 C56.211 85.611 59.196 88.263 63 92 C63.66 89.03 64.32 86.06 65 83 C65.33 83 65.66 83 66 83 C66 87.62 66 92.24 66 97 C69.181 98.59 71.877 99.648 75.25 100.625 C76.817 101.079 78.385 101.532 80 102 C79.67 96.72 79.34 91.44 79 86 C80.485 86.99 80.485 86.99 82 88 C82 88.66 82 89.32 82 90 C82.66 90 83.32 90 84 90 C84 90.66 84 91.32 84 92 C85.98 92.495 85.98 92.495 88 93 C87.505 94.485 87.505 94.485 87 96 C85.02 95.505 85.02 95.505 83 95 C83.22 98.752 83.481 102.501 83.75 106.25 C83.812 107.313 83.874 108.377 83.938 109.473 C84.054 111.01 84.054 111.01 84.172 112.578 C84.235 113.521 84.298 114.463 84.362 115.435 C85.153 118.615 86.541 119.903 89 122 C89.015 121.39 89.029 120.78 89.044 120.152 C89.119 117.371 89.216 114.592 89.312 111.812 C89.335 110.853 89.358 109.893 89.381 108.904 C89.716 100.112 89.716 100.112 93 96 C93.33 96.66 93.66 97.32 94 98 C93.67 98.743 93.34 99.485 93 100.25 C91.75 103.687 92.335 105.408 93 109 C93.028 110.75 93.025 112.5 93 114.25 C92.667 125.97 92.667 125.97 98 136 C109.166 144.882 124.063 145.24 137.723 143.691 C145.816 142.079 153.078 138.774 159 133 C159.941 130.176 160.117 128.471 160.098 125.551 C160.094 124.703 160.091 123.856 160.088 122.982 C160.08 122.101 160.071 121.22 160.062 120.312 C160.056 118.973 160.056 118.973 160.049 117.607 C160.037 115.405 160.021 113.202 160 111 C159.01 111 158.02 111 157 111 C157.487 110.594 157.975 110.188 158.477 109.77 C160.819 107.049 160.406 104.749 160.305 101.289 C159.884 98.128 158.598 95.73 157 93 C157 92.34 157 91.68 157 91 C156.34 91 155.68 91 155 91 C155 90.34 155 89.68 155 89 C153.35 88.34 151.7 87.68 150 87 C149.67 88.65 149.34 90.3 149 92 C148.67 92 148.34 92 148 92 C147.01 88.535 147.01 88.535 146 85 C145.67 86.65 145.34 88.3 145 90 C142.03 90.495 142.03 90.495 139 91 C139.99 89.515 139.99 89.515 141 88 C141.66 88 142.32 88 143 88 C143 85.36 143 82.72 143 80 C142.024 80.289 141.048 80.577 140.043 80.875 C138.758 81.25 137.473 81.625 136.188 82 C134.291 82.557 134.291 82.557 132.355 83.125 C129 84 129 84 126 84 C126 86.31 126 88.62 126 91 C125.67 91 125.34 91 125 91 C124.67 88.69 124.34 86.38 124 84 C125.32 83.67 126.64 83.34 128 83 C128 82.34 128 81.68 128 81 C131.823 79.577 134.913 78.76 139 79 C139 78.34 139 77.68 139 77 C139.66 77 140.32 77 141 77 C141.33 75.68 141.66 74.36 142 73 C140.68 73 139.36 73 138 73 C138 72.01 138 71.02 138 70 C132.39 69.34 126.78 68.68 121 68 C121.33 67.34 121.66 66.68 122 66 C124.563 66.114 127.125 66.241 129.688 66.375 C130.409 66.406 131.13 66.437 131.873 66.469 C135.972 66.693 139.244 67.177 143 69 C143 69.66 143 70.32 143 71 C143.66 71.33 144.32 71.66 145 72 C145 74.97 145 77.94 145 81 C145.928 81.289 146.856 81.577 147.812 81.875 C151 83 151 83 154 85 C155.226 82.547 155.114 80.949 155.098 78.211 C155.094 77.27 155.091 76.329 155.088 75.359 C155.08 74.375 155.071 73.39 155.062 72.375 C155.056 70.886 155.056 70.886 155.049 69.367 C155.037 66.911 155.021 64.456 155 62 C155.66 61.67 156.32 61.34 157 61 C157 65.62 157 70.24 157 75 C157.66 75.33 158.32 75.66 159 76 C158.34 76 157.68 76 157 76 C157.031 77.887 157.031 77.887 157.062 79.812 C157.109 82.641 156.917 84.249 156 87 C157.169 89.06 157.169 89.06 158.875 91.062 C162.64 95.764 163.178 98.654 163.238 104.641 C163.246 105.4 163.254 106.16 163.263 106.943 C163.277 108.554 163.287 110.164 163.295 111.775 C163.312 114.227 163.356 116.677 163.4 119.129 C163.411 120.695 163.419 122.262 163.426 123.828 C163.443 124.556 163.461 125.285 163.479 126.035 C163.457 131.162 162.24 134.06 159 138 C158.34 138.33 157.68 138.66 157 139 C157 143.95 157 148.9 157 154 C156.34 153.67 155.68 153.34 155 153 C154.586 150.277 154.586 150.277 154.375 146.938 C154.263 145.28 154.263 145.28 154.148 143.59 C154.099 142.735 154.05 141.881 154 141 C152.515 141.928 152.515 141.928 151 142.875 C143.583 147.51 135.135 147.365 126.688 147.375 C125.623 147.399 124.559 147.424 123.463 147.449 C115.794 147.477 110.072 145.97 103 143 C103 146.63 103 150.26 103 154 C102.67 154 102.34 154 102 154 C101.974 153.157 101.948 152.314 101.922 151.445 C101.865 150.35 101.808 149.254 101.75 148.125 C101.704 147.034 101.657 145.944 101.609 144.82 C101.312 141.867 101.312 141.867 98.953 140.617 C98.309 140.414 97.664 140.21 97 140 C97 139.34 97 138.68 97 138 C96.34 138 95.68 138 95 138 C92.258 134.651 90.138 131.329 89.688 127 C89.791 126.34 89.894 125.68 90 125 C89.257 124.794 88.515 124.588 87.75 124.375 C83.905 122.453 82.825 120.92 81 117 C80.677 112.976 80.765 109.027 81 105 C80.196 104.918 79.391 104.835 78.562 104.75 C69.713 102.887 64.856 99.384 59.043 92.438 C57.084 89.964 57.084 89.964 54.738 88.062 C52.416 85.307 52.867 83.507 53 80 C42.601 77.182 32.283 75.069 21.608 73.617 C19.368 73.311 17.129 72.992 14.891 72.67 C5.936 71.406 -2.967 70.506 -12 70 C-11.979 70.686 -11.959 71.371 -11.937 72.078 C-11.752 79.276 -11.864 86.397 -17 92 C-16.54 88.856 -16.001 86.002 -14.938 83 C-12.464 74.649 -13.466 65.197 -16 57 C-16.347 55.336 -16.687 53.671 -17 52 C-14.672 54.834 -13.926 56.295 -13 60 C-8.05 60 -3.1 60 2 60 C1.61 58.052 1.221 56.105 0.831 54.157 C0.48 52.403 0.131 50.648 -0.218 48.894 C-1.248 43.719 -2.299 38.551 -3.379 33.387 C-3.607 32.283 -3.835 31.18 -4.07 30.043 C-4.515 27.887 -4.966 25.733 -5.425 23.58 C-6.584 17.928 -7.248 12.77 -7 7 C-6.67 7 -6.34 7 -6 7 C-5.834 7.896 -5.668 8.792 -5.497 9.715 C-4.867 13.111 -4.234 16.507 -3.601 19.903 C-3.33 21.359 -3.06 22.815 -2.79 24.272 C-2.397 26.393 -2.002 28.513 -1.605 30.633 C-1.409 31.685 -1.409 31.685 -1.209 32.759 C-0.127 38.489 1.126 44.169 2.456 49.847 C3.049 53.284 3.091 56.519 3 60 C4.65 60 6.3 60 8 60 C7.695 58.07 7.39 56.14 7.086 54.21 C6.817 52.507 6.548 50.804 6.28 49.101 C5.591 44.733 4.9 40.366 4.203 36 C3.576 32.063 2.955 28.125 2.341 24.187 C2.12 22.77 1.898 21.354 1.675 19.938 C0.624 13.236 -0.272 6.79 0 0 Z " fill="#010101" transform="translate(20,78)"/>
<path d="M0 0 C0.701 0.598 1.403 1.196 2.125 1.812 C13.999 10.847 30.981 11.072 45.254 9.684 C53.987 8.446 61.515 5.634 69 1 C69.088 4.229 69.141 7.458 69.188 10.688 C69.213 11.6 69.238 12.512 69.264 13.451 C69.318 18.452 69.355 21.997 66 26 C56.067 35.559 44.174 36.329 30.949 36.152 C19.92 35.727 11.047 32.664 3 25 C-1.299 17.85 -0.138 8.044 0 0 Z " fill="#FFFFFF" transform="translate(112,187)"/>
<path d="M0 0 C1.417 0.312 2.833 0.624 4.25 0.938 C5.433 1.199 5.433 1.199 6.641 1.465 C8.769 1.948 10.885 2.462 13 3 C13 3.66 13 4.32 13 5 C14.547 4.938 14.547 4.938 16.125 4.875 C19.868 4.996 22.537 5.649 26 7 C26 7.33 26 7.66 26 8 C20.555 7.505 20.555 7.505 15 7 C14.67 8.32 14.34 9.64 14 11 C13.34 11 12.68 11 12 11 C12 11.66 12 12.32 12 13 C11.34 13 10.68 13 10 13 C10 13.66 10 14.32 10 15 C9.34 15 8.68 15 8 15 C7.732 15.536 7.464 16.073 7.188 16.625 C5.792 19.417 4.396 22.208 3 25 C2.34 25 1.68 25 1 25 C1 25.99 1 26.98 1 28 C0.34 28 -0.32 28 -1 28 C-1.33 30.31 -1.66 32.62 -2 35 C-2.66 35 -3.32 35 -4 35 C-3.979 36.217 -3.959 37.434 -3.938 38.688 C-3.898 41.033 -4.009 43.043 -4.5 45.344 C-5.103 48.545 -5.095 51.557 -5.062 54.812 C-5.049 56.555 -5.049 56.555 -5.035 58.332 C-5.024 59.212 -5.012 60.093 -5 61 C-4.34 61.33 -3.68 61.66 -3 62 C-3.103 62.784 -3.206 63.567 -3.312 64.375 C-2.496 73.85 4.395 81.649 9.81 89.111 C10.32 89.814 10.83 90.517 11.355 91.242 C11.816 91.87 12.276 92.497 12.751 93.144 C14.021 95.031 15.028 96.945 16 99 C15.34 99 14.68 99 14 99 C12.189 96.569 10.587 94.031 8.949 91.48 C5.866 87.556 1.734 85.457 -3 84 C-5.074 84.248 -5.074 84.248 -7 85 C-8.333 85.333 -9.667 85.667 -11 86 C-10.526 85.567 -10.051 85.134 -9.562 84.688 C-7.763 82.977 -7.763 82.977 -7 80 C-7.743 79.794 -8.485 79.588 -9.25 79.375 C-12.792 77.604 -14.024 75.366 -16 72 C-18.475 72.99 -18.475 72.99 -21 74 C-21 73.34 -21 72.68 -21 72 C-19 70.375 -19 70.375 -17 69 C-17.284 68.483 -17.567 67.966 -17.86 67.433 C-21.071 61.032 -21.583 55.655 -21.438 48.562 C-21.445 47.59 -21.452 46.617 -21.459 45.615 C-21.338 31.68 -15.913 17.913 -6 8 C-5.01 7.67 -4.02 7.34 -3 7 C-1.791 5 -1.791 5 -1 3 C-0.01 3 0.98 3 2 3 C2 2.34 2 1.68 2 1 C1.34 0.67 0.68 0.34 0 0 Z " fill="#BABABA" transform="translate(201,61)"/>
<path d="M0 0 C2.968 1.457 5.864 3.012 8.75 4.625 C9.549 5.071 10.348 5.517 11.172 5.977 C11.775 6.314 12.378 6.652 13 7 C12.01 7.33 11.02 7.66 10 8 C9.505 7.505 9.505 7.505 9 7 C1.659 6.235 -3.963 8.975 -10 13 C-10.99 13 -11.98 13 -13 13 C-13.054 14.583 -13.093 16.166 -13.125 17.75 C-13.16 19.073 -13.16 19.073 -13.195 20.422 C-12.991 23.114 -12.366 24.699 -11 27 C-7.075 26.587 -3.618 26.21 0.125 24.938 C10.57 22.411 24.666 22.88 34.211 28.242 C35.875 29.562 35.875 29.562 38 32 C38 32.66 38 33.32 38 34 C39.98 34.33 41.96 34.66 44 35 C44 35.66 44 36.32 44 37 C44.557 37.268 45.114 37.536 45.688 37.812 C48.212 39.109 50.637 40.425 53 42 C53 42.66 53 43.32 53 44 C53.804 44.289 54.609 44.577 55.438 44.875 C58 46 58 46 59 48 C54.25 46.125 54.25 46.125 52 45 C52 44.34 52 43.68 52 43 C48.568 41.817 46.75 42.232 43.375 43.438 C27.903 47.926 10.258 45.046 -4 38 C-9.995 34.614 -16.515 30.798 -18.66 23.867 C-19.38 19.744 -19.279 16.83 -17.25 13.125 C-15.594 10.825 -14.147 8.825 -12 7 C-14.929 8.398 -17.649 9.737 -20.25 11.688 C-22 13 -22 13 -24 13 C-26.648 18.764 -25.802 23.909 -25 30 C-27 29 -27 29 -28.188 26.25 C-29.322 21.711 -28.488 19.303 -26.875 15 C-21.915 7.064 -13.628 5.16 -5 3 C-3.004 2.643 -1.005 2.302 1 2 C0.67 1.34 0.34 0.68 0 0 Z " fill="#FFFFFF" transform="translate(230,175)"/>
<path d="M0 0 C0.99 0.66 1.98 1.32 3 2 C3.33 1.67 3.66 1.34 4 1 C14.739 0.135 23.315 0.775 33 6 C32.218 6.596 31.435 7.191 30.629 7.805 C27.835 9.924 27.835 9.924 25.938 13.125 C23.977 16.034 23.082 16.664 20 18 C17.49 21.765 17.974 24.395 18.375 28.688 C18.432 29.389 18.488 30.091 18.547 30.814 C18.688 32.544 18.843 34.272 19 36 C17.247 35.574 15.498 35.134 13.75 34.688 C12.775 34.444 11.801 34.2 10.797 33.949 C7.935 32.978 6.153 32.113 4 30 C3.196 27.305 3.186 24.834 3 22 C2.67 23.65 2.34 25.3 2 27 C-6.784 18.46 -6.784 18.46 -7.5 13.625 C-6.739 8.105 -4.32 3.672 0 0 Z " fill="#FFFFFF" transform="translate(82,145)"/>
<path d="M0 0 C0 0.99 0 1.98 0 3 C-1.391 4.316 -1.391 4.316 -3.25 5.562 C-4.205 6.21 -4.205 6.21 -5.18 6.871 C-7 8 -7 8 -9.375 9.125 C-11.367 9.958 -11.367 9.958 -12 13 C-12.88 13.061 -13.761 13.121 -14.668 13.184 C-16.41 13.309 -16.41 13.309 -18.188 13.438 C-19.336 13.519 -20.485 13.6 -21.668 13.684 C-24.879 13.927 -24.879 13.927 -27.512 14.52 C-36.484 16.252 -46.566 15.627 -55 12 C-56.801 10.395 -56.801 10.395 -58 9 C-52.634 4.801 -47.449 2.181 -41 0 C-40.129 -0.302 -39.257 -0.603 -38.359 -0.914 C-26.403 -4.488 -11.609 -5.014 0 0 Z " fill="#FEFEFE" transform="translate(78,202)"/>
<path d="M0 0 C-4.75 3 -4.75 3 -7 3 C-9.337 6.739 -9.913 10.657 -10 15 C-8.619 20.8 -5.067 24.646 -0.203 27.832 C6.993 31.921 13.89 34.45 22 36 C22.762 36.183 23.524 36.366 24.309 36.555 C28.066 37.176 31.759 37.233 35.562 37.25 C36.357 37.255 37.151 37.259 37.969 37.264 C43.867 37.21 49.087 36.313 54.715 34.461 C55.469 34.309 56.223 34.157 57 34 C58.485 34.99 58.485 34.99 60 36 C60 36.66 60 37.32 60 38 C61.485 38.495 61.485 38.495 63 39 C48.613 46.762 28.254 45.243 12.953 40.93 C5.854 38.746 -0.733 35.995 -7 32 C-7.619 31.626 -8.238 31.252 -8.875 30.867 C-10.295 29.98 -11.656 28.999 -13 28 C-13 27.34 -13 26.68 -13 26 C-13.66 26 -14.32 26 -15 26 C-18.198 20.963 -19.706 17.018 -18.668 11.039 C-16.762 5.219 -11.066 2.676 -6 0 C-3.509 -1.245 -2.589 -0.777 0 0 Z " fill="#FFFFFF" transform="translate(222,182)"/>
<path d="M0 0 C2.141 0.832 4.207 1.852 6.262 2.879 C0.817 2.384 0.817 2.384 -4.738 1.879 C-5.068 3.199 -5.398 4.519 -5.738 5.879 C-6.398 5.879 -7.058 5.879 -7.738 5.879 C-7.738 6.539 -7.738 7.199 -7.738 7.879 C-8.398 7.879 -9.058 7.879 -9.738 7.879 C-9.738 8.539 -9.738 9.199 -9.738 9.879 C-10.398 9.879 -11.058 9.879 -11.738 9.879 C-12.006 10.415 -12.275 10.951 -12.551 11.504 C-13.947 14.296 -15.342 17.087 -16.738 19.879 C-17.398 19.879 -18.058 19.879 -18.738 19.879 C-18.738 20.869 -18.738 21.859 -18.738 22.879 C-19.398 22.879 -20.058 22.879 -20.738 22.879 C-21.068 25.189 -21.398 27.499 -21.738 29.879 C-22.398 29.879 -23.058 29.879 -23.738 29.879 C-23.718 31.096 -23.697 32.313 -23.676 33.566 C-23.636 35.912 -23.747 37.922 -24.238 40.223 C-24.841 43.424 -24.834 46.436 -24.801 49.691 C-24.787 51.434 -24.787 51.434 -24.773 53.211 C-24.762 54.091 -24.75 54.972 -24.738 55.879 C-24.078 56.209 -23.418 56.539 -22.738 56.879 C-22.841 57.663 -22.945 58.446 -23.051 59.254 C-22.234 68.728 -15.343 76.528 -9.929 83.99 C-9.419 84.693 -8.908 85.396 -8.383 86.121 C-7.692 87.063 -7.692 87.063 -6.988 88.023 C-5.717 89.91 -4.71 91.824 -3.738 93.879 C-4.398 93.879 -5.058 93.879 -5.738 93.879 C-7.583 91.416 -9.216 88.845 -10.887 86.262 C-12.738 83.879 -13.961 82.943 -16.738 81.879 C-16.738 80.889 -16.738 79.899 -16.738 78.879 C-17.522 78.611 -18.306 78.343 -19.113 78.066 C-21.738 76.879 -21.738 76.879 -23.738 73.879 C-24.728 73.549 -25.718 73.219 -26.738 72.879 C-27.906 71.172 -27.906 71.172 -28.926 69.066 C-29.27 68.379 -29.614 67.692 -29.969 66.984 C-30.738 64.879 -30.738 64.879 -30.738 60.879 C-29.748 60.879 -28.758 60.879 -27.738 60.879 C-28.728 60.549 -29.718 60.219 -30.738 59.879 C-35.071 49.923 -33.125 37.86 -29.738 27.879 C-24.723 15.841 -15.75 -4.438 0 0 Z " fill="#DEDEDE" transform="translate(220.73828125,66.12109375)"/>
<path d="M0 0 C0.773 0.495 0.773 0.495 1.562 1 C1.562 1.66 1.562 2.32 1.562 3 C2.119 3.268 2.676 3.536 3.25 3.812 C5.775 5.109 8.2 6.425 10.562 8 C10.562 8.66 10.562 9.32 10.562 10 C11.222 10 11.882 10 12.562 10 C12.562 10.99 12.562 11.98 12.562 13 C13.181 13.248 13.8 13.495 14.438 13.75 C16.937 15.22 17.396 16.414 18.562 19 C18.038 18.856 17.513 18.711 16.973 18.562 C3.339 15.296 -9.362 16.358 -22.438 21 C-25.483 16.512 -26.043 13.686 -25.34 8.375 C-24.196 5.364 -23.028 4.574 -20.25 3 C-18.664 2.291 -17.06 1.62 -15.438 1 C-14.406 0.567 -13.375 0.134 -12.312 -0.312 C-7.999 -1.344 -4.159 -1.706 0 0 Z " fill="#FEFEFE" transform="translate(241.4375,182)"/>
<path d="M0 0 C1.32 0.66 2.64 1.32 4 2 C4 5.96 4 9.92 4 14 C4.33 11.69 4.66 9.38 5 7 C6.562 8.125 6.562 8.125 8 10 C8 12.938 8 12.938 7 16 C2.209 20.791 -2.593 22.258 -9.189 22.322 C-10.302 22.317 -10.302 22.317 -11.438 22.312 C-12.175 22.329 -12.913 22.345 -13.674 22.361 C-19.353 22.366 -23.111 20.926 -27.875 17.75 C-29.674 14.951 -29.183 12.229 -29 9 C-28.34 9 -27.68 9 -27 9 C-26.67 9.99 -26.34 10.98 -26 12 C-25.67 11.01 -25.34 10.02 -25 9 C-22.938 8.312 -22.938 8.312 -21 8 C-21 10.64 -21 13.28 -21 16 C-20.34 16 -19.68 16 -19 16 C-19.186 14.927 -19.371 13.855 -19.562 12.75 C-19.93 9.596 -20.045 7.902 -19 5 C-15.125 5.875 -15.125 5.875 -14 7 C-13.031 6.959 -12.061 6.918 -11.062 6.875 C-9.547 6.937 -9.547 6.937 -8 7 C-7.01 8.485 -7.01 8.485 -6 10 C-6.33 10.99 -6.66 11.98 -7 13 C-7.907 12.814 -8.815 12.629 -9.75 12.438 C-12.683 12.043 -14.264 12.053 -17 13 C-17 13.99 -17 14.98 -17 16 C-16.588 15.526 -16.175 15.051 -15.75 14.562 C-13.77 12.795 -12.632 12.247 -10 12 C-9.01 12.66 -8.02 13.32 -7 14 C-7 14.66 -7 15.32 -7 16 C-6.34 16 -5.68 16 -5 16 C-5.66 12.37 -6.32 8.74 -7 5 C-5.68 4.67 -4.36 4.34 -3 4 C-1.246 2.023 -1.246 2.023 0 0 Z " fill="#D2D2D2" transform="translate(157,81)"/>
<path d="M0 0 C57.336 0.336 57.336 0.336 68 11 C67.34 12.32 66.68 13.64 66 15 C61.687 14.211 57.375 13.418 53.062 12.625 C51.85 12.403 50.638 12.182 49.389 11.953 C39.248 10.084 39.248 10.084 34.562 8.906 C28.129 7.435 21.506 7.27 14.938 6.875 C13.581 6.788 12.225 6.701 10.869 6.613 C7.58 6.403 4.29 6.198 1 6 C0.67 4.02 0.34 2.04 0 0 Z " fill="#FFFFFF" transform="translate(7,140)"/>
<path d="M0 0 C2.97 0 5.94 0 9 0 C8.972 1.296 8.943 2.591 8.914 3.926 C8.916 8.795 9.541 13.4 10.375 18.188 C10.653 19.862 10.93 21.536 11.207 23.211 C11.343 24.025 11.479 24.84 11.62 25.679 C12.326 29.989 12.923 34.315 13.527 38.641 C13.863 41.028 14.211 43.413 14.566 45.797 C14.843 47.661 14.843 47.661 15.125 49.562 C15.376 51.235 15.376 51.235 15.633 52.941 C15.96 55.669 16.071 58.258 16 61 C14.35 61 12.7 61 11 61 C10.117 56.374 9.235 51.748 8.355 47.121 C7.459 42.405 6.558 37.691 5.655 32.976 C5.012 29.619 4.372 26.262 3.733 22.904 C3.411 21.218 3.088 19.531 2.764 17.845 C2.304 15.447 1.847 13.048 1.391 10.648 C1.25 9.921 1.11 9.194 0.965 8.444 C0.423 5.577 0 2.926 0 0 Z " fill="#FFFFFF" transform="translate(12,77)"/>
<path d="M0 0 C1.875 0.25 1.875 0.25 4 1 C5.82 3.427 6.048 4.598 5.688 7.625 C5 10 5 10 4 12 C3.34 12 2.68 12 2 12 C2 12.66 2 13.32 2 14 C-1.805 15.763 -4.816 16.271 -9 16.25 C-10.516 16.258 -10.516 16.258 -12.062 16.266 C-15.07 15.994 -17.273 15.263 -20 14 C-20 13.34 -20 12.68 -20 12 C-20.66 12 -21.32 12 -22 12 C-24.215 6.585 -24.215 6.585 -23.125 3.625 C-22.754 3.089 -22.382 2.553 -22 2 C-21.67 2.99 -21.34 3.98 -21 5 C-20.34 4.34 -19.68 3.68 -19 3 C-13.804 0.773 -8.4 -0.131 -2.969 1.676 C-1.29 2.401 0.358 3.196 2 4 C2.33 4 2.66 4 3 4 C3 3.34 3 2.68 3 2 C2.01 1.67 1.02 1.34 0 1 C0 0.67 0 0.34 0 0 Z " fill="#212121" transform="translate(202,267)"/>
<path d="M0 0 C-0.33 0.66 -0.66 1.32 -1 2 C-1.99 2.33 -2.98 2.66 -4 3 C-4.33 7.29 -4.66 11.58 -5 16 C-5.33 16 -5.66 16 -6 16 C-6.495 11.05 -6.495 11.05 -7 6 C-7.99 6 -8.98 6 -10 6 C-9.67 6.516 -9.34 7.031 -9 7.562 C-7.68 10.78 -7.868 13.557 -8 17 C-8.66 17 -9.32 17 -10 17 C-10.412 16.484 -10.825 15.969 -11.25 15.438 C-13.037 13.624 -13.037 13.624 -16.188 14.312 C-17.58 14.653 -17.58 14.653 -19 15 C-19.33 15.99 -19.66 16.98 -20 18 C-20.33 18 -20.66 18 -21 18 C-21 16.02 -21 14.04 -21 12 C-20.67 12.66 -20.34 13.32 -20 14 C-19.196 13.474 -19.196 13.474 -18.375 12.938 C-15.267 11.711 -13.206 12.271 -10 13 C-10.33 11.68 -10.66 10.36 -11 9 C-13.64 9 -16.28 9 -19 9 C-19 8.34 -19 7.68 -19 7 C-19.99 6.67 -20.98 6.34 -22 6 C-22 9.63 -22 13.26 -22 17 C-22.66 17 -23.32 17 -24 17 C-24 14.03 -24 11.06 -24 8 C-25.32 8.33 -26.64 8.66 -28 9 C-28.33 6.36 -28.66 3.72 -29 1 C-19.095 -7.221 -10.202 -8.289 0 0 Z " fill="#000000" transform="translate(160,80)"/>
<path d="M0 0 C2.31 0 4.62 0 7 0 C13 56.958 13 56.958 13 67 C12.34 67 11.68 67 11 67 C10.34 65.35 9.68 63.7 9 62 C8.34 62 7.68 62 7 62 C6.961 60.503 6.961 60.503 6.922 58.977 C6.541 48.391 5.213 38.109 3.521 27.657 C2.038 18.463 0.91 9.267 0 0 Z " fill="#FEFEFE" transform="translate(72,78)"/>
<path d="M0 0 C0 0.99 0 1.98 0 3 C1.32 3 2.64 3 4 3 C3.67 4.32 3.34 5.64 3 7 C2.34 7 1.68 7 1 7 C1 7.66 1 8.32 1 9 C-6.563 11.75 -14.959 12.376 -22.625 9.625 C-26 8 -26 8 -28 6 C-28 4.68 -28 3.36 -28 2 C-18.138 -2.362 -10.47 -3.046 0 0 Z " fill="#FFFFFF" transform="translate(158,148)"/>
<path d="M0 0 C2.482 -0.039 4.945 0.004 7.426 0.086 C8.275 0.103 9.125 0.119 10 0.137 C18.037 0.547 25.009 3.152 32.426 6.086 C32.096 6.746 31.766 7.406 31.426 8.086 C28.786 7.096 26.146 6.106 23.426 5.086 C23.921 6.076 23.921 6.076 24.426 7.086 C23.106 7.086 21.786 7.086 20.426 7.086 C21.416 8.076 21.416 8.076 22.426 9.086 C19.693 8.467 17.531 7.692 14.922 6.543 C9.52 4.489 4.199 4.685 -1.512 4.773 C-2.545 4.77 -3.578 4.767 -4.643 4.764 C-16.982 4.85 -27.737 7.582 -37.48 15.668 C-40.381 18.864 -41.487 21.816 -41.574 26.086 C-40.721 29.867 -40.721 29.867 -39.574 33.086 C-42.574 31.086 -42.574 31.086 -43.449 27.398 C-43.879 22.858 -42.656 20.089 -40.574 16.086 C-40.244 15.426 -39.914 14.766 -39.574 14.086 C-40.234 13.756 -40.894 13.426 -41.574 13.086 C-44.184 13.98 -44.184 13.98 -46.574 15.086 C-46.574 15.746 -46.574 16.406 -46.574 17.086 C-47.234 16.756 -47.894 16.426 -48.574 16.086 C-38.356 4.776 -19.877 0.998 -5.305 0.172 C-3.536 0.116 -1.768 0.059 0 0 Z " fill="#323232" transform="translate(55.57421875,176.9140625)"/>
<path d="M0 0 C5.401 -0.105 10.784 -0.091 16.178 0.223 C36.403 1.38 56.659 1.114 76.909 1.069 C82.005 1.058 87.101 1.054 92.197 1.049 C102.132 1.038 112.066 1.021 122 1 C122 1.33 122 1.66 122 2 C106.992 3.013 92.038 3.114 77 3 C77.08 3.738 77.161 4.476 77.244 5.237 C78.695 18.596 80.144 31.953 81.353 45.337 C81.674 48.834 82.042 52.288 82.551 55.766 C82.938 58.551 83.106 61.133 83.062 63.938 C83.053 64.71 83.044 65.482 83.035 66.277 C83.024 66.846 83.012 67.414 83 68 C82.67 68 82.34 68 82 68 C79.812 54.778 78.419 41.536 77.312 28.188 C77.246 27.398 77.18 26.608 77.111 25.795 C76.92 23.503 76.734 21.21 76.551 18.918 C76.495 18.238 76.439 17.559 76.381 16.859 C76.022 12.222 75.954 7.646 76 3 C73.69 3 71.38 3 69 3 C69.451 4.357 69.451 4.357 69.91 5.742 C71.437 11.101 71.862 16.599 72.438 22.125 C73.465 31.558 74.635 40.947 76.086 50.325 C76.73 54.598 77.147 58.662 77 63 C74.841 59.418 74.492 56.081 74.039 51.957 C73.874 50.516 73.707 49.076 73.54 47.635 C73.454 46.879 73.367 46.122 73.278 45.343 C72.807 41.371 72.257 37.411 71.711 33.449 C71.49 31.829 71.268 30.208 71.047 28.588 C70.708 26.11 70.367 23.633 70.026 21.156 C69.69 18.712 69.357 16.268 69.023 13.824 C68.92 13.081 68.817 12.337 68.711 11.571 C68.319 8.686 68 5.916 68 3 C66.332 3.008 66.332 3.008 64.63 3.016 C60.404 3.034 56.179 3.046 51.954 3.055 C50.144 3.06 48.333 3.067 46.523 3.075 C33.979 3.135 21.52 2.795 9 2 C9.33 4.64 9.66 7.28 10 10 C8.352 7.033 7.557 4.344 7 1 C4.69 1 2.38 1 0 1 C0 0.67 0 0.34 0 0 Z " fill="#000000" transform="translate(3,75)"/>
<path d="M0 0 C10.827 -0.577 19.186 -0.295 29 5 C28.218 5.596 27.435 6.191 26.629 6.805 C23.835 8.924 23.835 8.924 21.938 12.125 C19.999 15.001 19.105 15.758 16 17 C15.34 17.66 14.68 18.32 14 19 C12 17.625 12 17.625 10 16 C10 15.34 10 14.68 10 14 C9.34 14 8.68 14 8 14 C7.34 12.35 6.68 10.7 6 9 C4.68 9.33 3.36 9.66 2 10 C1.333 6.667 0.667 3.333 0 0 Z " fill="#E0E0E0" transform="translate(86,146)"/>
<path d="M0 0 C0.66 0 1.32 0 2 0 C2 1.65 2 3.3 2 5 C3.39 4.983 3.39 4.983 4.809 4.965 C6.006 4.956 7.204 4.947 8.438 4.938 C9.632 4.926 10.827 4.914 12.059 4.902 C15 5 15 5 16 6 C16.093 7.504 16.117 9.013 16.114 10.52 C16.113 11.481 16.113 12.442 16.113 13.432 C16.108 14.476 16.103 15.521 16.098 16.598 C16.096 17.662 16.095 18.726 16.093 19.822 C16.088 23.235 16.075 26.649 16.062 30.062 C16.057 32.37 16.053 34.678 16.049 36.986 C16.038 42.658 16.021 48.329 16 54 C15.67 54 15.34 54 15 54 C14.67 38.49 14.34 22.98 14 7 C11.03 6.67 8.06 6.34 5 6 C5.66 8.97 6.32 11.94 7 15 C6.34 15 5.68 15 5 15 C4.917 15.598 4.835 16.196 4.75 16.812 C3.725 19.801 2.753 20.417 0 22 C-9.707 26.57 -20.121 26.061 -30.172 22.852 C-32 22 -32 22 -33 20 C-32.34 20 -31.68 20 -31 20 C-31 19.34 -31 18.68 -31 18 C-31.66 18 -32.32 18 -33 18 C-33.027 16.208 -33.046 14.417 -33.062 12.625 C-33.074 11.627 -33.086 10.63 -33.098 9.602 C-33 7 -33 7 -32 5 C-29.938 4.375 -29.938 4.375 -28 4 C-27.67 4.66 -27.34 5.32 -27 6 C-26.01 6.33 -25.02 6.66 -24 7 C-25.32 7.33 -26.64 7.66 -28 8 C-28.33 9.32 -28.66 10.64 -29 12 C-29.33 10.68 -29.66 9.36 -30 8 C-30.66 8 -31.32 8 -32 8 C-31.709 13.27 -31.709 13.27 -28.625 17.375 C-22.131 21.395 -13.436 20.719 -6 20 C-1.425 18.724 1.315 17.027 4 13 C3.685 9.858 3.685 9.858 3 7 C2.34 9.31 1.68 11.62 1 14 C-0.382 11.235 -0.095 8.954 -0.062 5.875 C-0.053 4.779 -0.044 3.684 -0.035 2.555 C-0.024 1.712 -0.012 0.869 0 0 Z " fill="#000000" transform="translate(160,82)"/>
<path d="M0 0 C6.163 5.839 6.163 5.839 7 9 C6.125 12.75 6.125 12.75 5 16 C4.34 16 3.68 16 3 16 C2.67 19.63 2.34 23.26 2 27 C-6.784 18.46 -6.784 18.46 -7.5 13.625 C-6.739 8.105 -4.32 3.672 0 0 Z " fill="#F7F7F7" transform="translate(82,145)"/>
<path d="M0 0 C1.709 1.623 3.374 3.293 5 5 C5 5.66 5 6.32 5 7 C7.475 7.99 7.475 7.99 10 9 C9.828 10.77 9.828 10.77 9 13 C6.672 14.887 6.672 14.887 3.75 16.688 C2.796 17.289 1.842 17.891 0.859 18.512 C-1.844 19.919 -4 20.589 -7 21 C-7.827 15.924 -8.424 11.141 -8 6 C-5.798 3.005 -3.378 1.486 0 0 Z " fill="#FFFFFF" transform="translate(184,132)"/>
<path d="M0 0 C0.66 0 1.32 0 2 0 C2.33 1.98 2.66 3.96 3 6 C15.631 10.753 22.482 11.457 35.461 6.84 C38 6 38 6 40 6 C40 4.02 40 2.04 40 0 C40.99 0.66 41.98 1.32 43 2 C43.188 5.125 43.188 5.125 43 8 C35.711 12.463 29.172 14.378 20.625 14.312 C19.878 14.308 19.13 14.304 18.36 14.3 C10.277 14.134 4.055 12.664 -2 7 C-1.125 1.125 -1.125 1.125 0 0 Z " fill="#FFFFFF" transform="translate(125,162)"/>
<path d="M0 0 C2.31 1.65 4.62 3.3 7 5 C7.33 4.34 7.66 3.68 8 3 C9.578 4.114 9.578 4.114 11.188 5.25 C16.704 8.724 22.751 10.314 29 12 C29.637 12.175 30.274 12.35 30.93 12.53 C33.01 13.002 34.946 13.202 37.074 13.316 C37.824 13.358 38.573 13.4 39.346 13.443 C40.118 13.483 40.891 13.522 41.688 13.562 C42.472 13.606 43.256 13.649 44.064 13.693 C48.042 13.91 51.621 13.944 55.562 13.5 C56.389 13.407 57.215 13.314 58.066 13.219 C59.024 13.11 59.024 13.11 60 13 C58.881 9.274 58.881 9.274 56 7 C56.99 7 57.98 7 59 7 C59 7.66 59 8.32 59 9 C59.557 9.268 60.114 9.536 60.688 9.812 C63.212 11.109 65.637 12.425 68 14 C68 14.66 68 15.32 68 16 C68.804 16.289 69.609 16.577 70.438 16.875 C73 18 73 18 74 20 C69.25 18.125 69.25 18.125 67 17 C67 16.34 67 15.68 67 15 C63.568 13.817 61.75 14.232 58.375 15.438 C42.91 19.924 25.249 17.054 11 10 C2.025 4.893 2.025 4.893 0 0 Z " fill="#1B1B1B" transform="translate(215,203)"/>
<path d="M0 0 C1.875 0.25 1.875 0.25 4 1 C5.82 3.427 6.048 4.598 5.688 7.625 C5 10 5 10 4 12 C2 11 2 11 0.84 9.461 C-1.991 7.213 -4.981 7.565 -8.438 7.625 C-9.756 7.617 -11.075 7.61 -12.434 7.602 C-16.104 8.012 -17.363 8.544 -20 11 C-20.99 11.495 -20.99 11.495 -22 12 C-24.215 6.585 -24.215 6.585 -23.125 3.625 C-22.754 3.089 -22.382 2.553 -22 2 C-21.67 2.99 -21.34 3.98 -21 5 C-20.34 4.34 -19.68 3.68 -19 3 C-13.804 0.773 -8.4 -0.131 -2.969 1.676 C-1.29 2.401 0.358 3.196 2 4 C2.33 4 2.66 4 3 4 C3 3.34 3 2.68 3 2 C2.01 1.67 1.02 1.34 0 1 C0 0.67 0 0.34 0 0 Z " fill="#9F9F9F" transform="translate(202,267)"/>
<path d="M0 0 C1.031 -0.01 2.062 -0.021 3.125 -0.031 C6.602 0.611 7.785 1.816 10 4.5 C9.011 7.196 8.34 8.306 5.812 9.75 C1.383 10.931 -2.442 10.906 -6.875 9.75 C-9 8.5 -9 8.5 -10.062 6.625 C-10 4.5 -10 4.5 -8.371 2.398 C-5.393 0.014 -3.776 -0.038 0 0 Z " fill="#FFFFFF" transform="translate(146,75.5)"/>
<path d="M0 0 C0 2.64 0 5.28 0 8 C-2.08 8.842 -4.164 9.673 -6.25 10.5 C-7.41 10.964 -8.57 11.428 -9.766 11.906 C-13 13 -13 13 -17 13 C-17 10.03 -17 7.06 -17 4 C-15.108 3.324 -13.211 2.659 -11.312 2 C-10.257 1.629 -9.201 1.257 -8.113 0.875 C-5.216 0.061 -2.983 -0.177 0 0 Z " fill="#FFFFFF" transform="translate(163,158)"/>
<path d="M0 0 C6.025 -0.502 9.851 0.873 15 4 C16 5 16 5 16.098 6.848 C16.065 8.898 16.033 10.949 16 13 C3.382 11.382 3.382 11.382 0 8 C-0.141 5.329 -0.042 2.676 0 0 Z " fill="#FFFFFF" transform="translate(129,158)"/>
<path d="M0 0 C2.968 1.457 5.864 3.012 8.75 4.625 C9.549 5.071 10.348 5.517 11.172 5.977 C11.775 6.314 12.378 6.652 13 7 C12.01 7.33 11.02 7.66 10 8 C9.505 7.505 9.505 7.505 9 7 C2.715 6.345 -1.423 8.269 -7 11 C-8.662 11.678 -10.326 12.352 -12 13 C-10.68 11.68 -9.36 10.36 -8 9 C-9.98 9.66 -11.96 10.32 -14 11 C-14 11.66 -14 12.32 -14 13 C-14.66 12.67 -15.32 12.34 -16 12 C-14.68 10.35 -13.36 8.7 -12 7 C-14.929 8.398 -17.649 9.737 -20.25 11.688 C-22 13 -22 13 -24 13 C-26.648 18.764 -25.802 23.909 -25 30 C-27 29 -27 29 -28.188 26.25 C-29.322 21.711 -28.488 19.303 -26.875 15 C-21.915 7.064 -13.628 5.16 -5 3 C-3.004 2.643 -1.005 2.302 1 2 C0.67 1.34 0.34 0.68 0 0 Z " fill="#171717" transform="translate(230,175)"/>
<path d="M0 0 C0.33 0.99 0.66 1.98 1 3 C-1.97 2.505 -1.97 2.505 -5 2 C-5 2.66 -5 3.32 -5 4 C-4.257 4.144 -3.515 4.289 -2.75 4.438 C-0.48 4.902 1.758 5.419 4 6 C4.268 5.216 4.536 4.433 4.812 3.625 C6 1 6 1 9 -1 C9 1.97 9 4.94 9 8 C9.66 8.33 10.32 8.66 11 9 C10.34 9 9.68 9 9 9 C9 9.99 9 10.98 9 12 C8.34 12 7.68 12 7 12 C7 11.01 7 10.02 7 9 C2.721 9.416 2.721 9.416 -0.875 11.562 C-1.246 12.037 -1.618 12.511 -2 13 C-4.475 12.01 -4.475 12.01 -7 11 C-8.215 4.681 -8.215 4.681 -7.25 1.625 C-4.998 -1.303 -3.34 -1.113 0 0 Z " fill="#171717" transform="translate(297,290)"/>
<path d="M0 0 C0.66 0.33 1.32 0.66 2 1 C2 1.66 2 2.32 2 3 C12.42 9.947 27.464 7.388 39.039 5.242 C42.155 4.987 43.429 5.307 46 7 C32.486 12.113 16.939 12.753 3 9 C3.33 8.34 3.66 7.68 4 7 C1.36 5.35 -1.28 3.7 -4 2 C-2.68 1.34 -1.36 0.68 0 0 Z " fill="#333333" transform="translate(20,209)"/>
<path d="M0 0 C0.33 0.66 0.66 1.32 1 2 C1.99 1.67 2.98 1.34 4 1 C4 1.66 4 2.32 4 3 C3.01 3 2.02 3 1 3 C1.289 3.699 1.577 4.397 1.875 5.117 C2.432 6.482 2.432 6.482 3 7.875 C3.371 8.78 3.743 9.685 4.125 10.617 C5 13 5 13 5 15 C5.959 15.155 5.959 15.155 6.938 15.312 C7.618 15.539 8.299 15.766 9 16 C9.33 16.99 9.66 17.98 10 19 C12.504 20.219 12.504 20.219 15 21 C14.67 21.66 14.34 22.32 14 23 C12.886 22.474 12.886 22.474 11.75 21.938 C8.773 20.923 7.876 20.979 5 22 C3.667 22.333 2.333 22.667 1 23 C1.474 22.567 1.949 22.134 2.438 21.688 C4.237 19.977 4.237 19.977 5 17 C4.257 16.794 3.515 16.588 2.75 16.375 C-0.792 14.604 -2.024 12.366 -4 9 C-5.65 9.66 -7.3 10.32 -9 11 C-9 10.34 -9 9.68 -9 9 C-7.014 7.67 -4.944 6.56 -2.848 5.414 C-0.645 3.729 -0.361 2.696 0 0 Z " fill="#848484" transform="translate(189,124)"/>
<path d="M0 0 C1.299 0.006 2.597 0.013 3.936 0.02 C5.307 0.036 6.679 0.053 8.051 0.07 C9.434 0.08 10.818 0.089 12.201 0.098 C15.589 0.121 18.976 0.154 22.363 0.195 C22.363 0.525 22.363 0.855 22.363 1.195 C13.123 1.525 3.883 1.855 -5.637 2.195 C-5.637 2.855 -5.637 3.515 -5.637 4.195 C1.293 6.67 1.293 6.67 8.363 9.195 C3.9 10.311 2.756 9.885 -1.387 8.258 C-2.372 7.878 -3.356 7.497 -4.371 7.105 C-5.119 6.805 -5.866 6.505 -6.637 6.195 C-6.738 11.795 -6.669 17.305 -6.137 22.883 C-5.238 33.287 -5.554 43.762 -5.637 54.195 C-5.967 54.195 -6.297 54.195 -6.637 54.195 C-6.771 51.927 -6.905 49.659 -7.039 47.391 C-7.081 46.684 -7.123 45.977 -7.166 45.249 C-7.395 41.372 -7.622 37.495 -7.844 33.617 C-8.407 23.804 -8.407 23.804 -9.098 14 C-9.158 13.163 -9.219 12.326 -9.281 11.464 C-9.39 9.991 -9.511 8.519 -9.646 7.047 C-9.781 5.133 -9.781 5.133 -9.637 2.195 C-6.004 -0.227 -4.319 -0.038 0 0 Z " fill="#020202" transform="translate(105.63671875,86.8046875)"/>
<path d="M0 0 C0.66 0.33 1.32 0.66 2 1 C0.866 1.619 -0.269 2.238 -1.438 2.875 C-3.853 4.59 -4.849 5.546 -5.793 8.383 C-6.32 12.535 -6.392 15.181 -4.562 19 C-3.789 19.99 -3.789 19.99 -3 21 C-3 21.66 -3 22.32 -3 23 C-2.34 23 -1.68 23 -1 23 C-1 23.99 -1 24.98 -1 26 C-4.822 24.383 -8.426 22.294 -11 19 C-12.214 15.07 -12.676 11.54 -11 7.723 C-10.67 7.154 -10.34 6.586 -10 6 C-9.01 6 -8.02 6 -7 6 C-7 5.34 -7 4.68 -7 4 C-1.727 0.777 -1.727 0.777 0 0 Z " fill="#9C9C9C" transform="translate(223,182)"/>
<path d="M0 0 C0.248 1.155 0.495 2.31 0.75 3.5 C2.528 10.598 6.34 16.726 10 23 C9.34 23 8.68 23 8 23 C8 22.34 8 21.68 8 21 C7.216 20.732 6.433 20.464 5.625 20.188 C3 19 3 19 1 16 C0.01 15.67 -0.98 15.34 -2 15 C-3.168 13.293 -3.168 13.293 -4.188 11.188 C-4.532 10.5 -4.876 9.813 -5.23 9.105 C-6 7 -6 7 -6 3 C-5.01 3 -4.02 3 -3 3 C-3 2.34 -3 1.68 -3 1 C-1 0 -1 0 0 0 Z " fill="#DFDFDF" transform="translate(196,124)"/>
<path d="M0 0 C1.562 1.125 1.562 1.125 3 3 C3 5.938 3 5.938 2 9 C-2.791 13.791 -7.593 15.258 -14.189 15.322 C-15.302 15.317 -15.302 15.317 -16.438 15.312 C-17.175 15.329 -17.913 15.345 -18.674 15.361 C-24.353 15.366 -28.111 13.926 -32.875 10.75 C-34.674 7.951 -34.183 5.229 -34 2 C-33.34 2 -32.68 2 -32 2 C-31.67 4.31 -31.34 6.62 -31 9 C-30.34 9 -29.68 9 -29 9 C-28.67 9.66 -28.34 10.32 -28 11 C-22.181 13.757 -15.052 14.07 -8.84 12.43 C-5.731 11.175 -2.831 9.848 -1 7 C-0.27 3.39 -0.27 3.39 0 0 Z " fill="#FFFFFF" transform="translate(162,88)"/>
<path d="M0 0 C1.134 0.021 2.269 0.041 3.438 0.062 C3.438 0.722 3.438 1.382 3.438 2.062 C4.097 2.062 4.757 2.062 5.438 2.062 C5.438 4.043 5.438 6.022 5.438 8.062 C4.778 8.062 4.118 8.062 3.438 8.062 C3.438 8.722 3.438 9.382 3.438 10.062 C1.458 11.052 -0.523 12.043 -2.562 13.062 C0.077 13.392 2.718 13.722 5.438 14.062 C5.438 15.052 5.438 16.043 5.438 17.062 C1.477 17.062 -2.482 17.062 -6.562 17.062 C-5.292 11.471 -3.237 10.111 1.438 7.062 C1.438 5.743 1.438 4.422 1.438 3.062 C-0.213 3.062 -1.863 3.062 -3.562 3.062 C-3.562 4.052 -3.562 5.043 -3.562 6.062 C-4.222 6.062 -4.882 6.062 -5.562 6.062 C-4.488 0.079 -4.488 0.079 0 0 Z " fill="#000000" transform="translate(242.5625,84.9375)"/>
<path d="M0 0 C2.475 0.99 2.475 0.99 5 2 C4.979 2.743 4.959 3.485 4.938 4.25 C4.894 6.932 4.894 6.932 5.562 9.188 C6 11 6 11 5 13 C2.625 13.75 2.625 13.75 0 14 C-0.99 13.34 -1.98 12.68 -3 12 C-3.398 9.941 -3.398 9.941 -3.375 7.562 C-3.383 6.78 -3.39 5.998 -3.398 5.191 C-2.919 2.557 -2.034 1.674 0 0 Z " fill="#464646" transform="translate(312,289)"/>
<path d="M0 0 C3.736 1.472 3.736 1.472 5 4 C5.4 7.685 5.442 9.384 3.25 12.438 C1 14 1 14 -1.25 13.75 C-2.116 13.379 -2.116 13.379 -3 13 C-4.222 5.667 -4.222 5.667 -3.188 2.562 C-2 1 -2 1 0 0 Z " fill="#000000" transform="translate(264,289)"/>
<path d="M0 0 C3.875 1.75 3.875 1.75 5 4 C4.913 5.546 4.76 7.089 4.562 8.625 C4.461 9.442 4.359 10.26 4.254 11.102 C4.17 11.728 4.086 12.355 4 13 C2.145 13.59 2.145 13.59 0 14 C-2.312 12.562 -2.312 12.562 -4 10 C-4.2 7.023 -3.721 4.979 -3 2 C-2.01 1.34 -1.02 0.68 0 0 Z " fill="#000000" transform="translate(254,289)"/>
<path d="M0 0 C0.33 0 0.66 0 1 0 C0.928 0.643 0.856 1.286 0.781 1.949 C0.024 9.32 -0.106 16.595 0 24 C0.66 24.33 1.32 24.66 2 25 C1.897 25.784 1.794 26.567 1.688 27.375 C2.504 36.85 9.395 44.649 14.81 52.111 C15.32 52.814 15.83 53.517 16.355 54.242 C16.816 54.87 17.276 55.497 17.751 56.144 C19.021 58.031 20.028 59.945 21 62 C20.34 62 19.68 62 19 62 C17.152 59.573 15.523 57.032 13.852 54.48 C12.14 51.936 12.14 51.936 9.773 50.363 C9.188 49.913 8.603 49.464 8 49 C8 48.01 8 47.02 8 46 C6.753 43.841 6.753 43.841 5.125 41.625 C-2.139 31.413 -3.359 19.159 -1.547 6.945 C-1.084 4.613 -0.583 2.305 0 0 Z " fill="#000000" transform="translate(196,98)"/>
<path d="M0 0 C1.32 0.66 2.64 1.32 4 2 C4 5.3 4 8.6 4 12 C2.02 12.99 2.02 12.99 0 14 C-1.32 13.34 -2.64 12.68 -4 12 C-4 8.7 -4 5.4 -4 2 C-2.68 1.34 -1.36 0.68 0 0 Z " fill="#000000" transform="translate(274,289)"/>
<path d="M0 0 C1.98 0.99 3.96 1.98 6 3 C5.67 3.66 5.34 4.32 5 5 C4.01 5.33 3.02 5.66 2 6 C1.67 10.29 1.34 14.58 1 19 C0.67 19 0.34 19 0 19 C-0.33 15.7 -0.66 12.4 -1 9 C-1.99 9 -2.98 9 -4 9 C-3.67 9.516 -3.34 10.031 -3 10.562 C-1.68 13.78 -1.868 16.557 -2 20 C-2.66 20 -3.32 20 -4 20 C-4.412 19.484 -4.825 18.969 -5.25 18.438 C-7.037 16.624 -7.037 16.624 -10.188 17.312 C-11.58 17.653 -11.58 17.653 -13 18 C-13.33 18.99 -13.66 19.98 -14 21 C-14.33 21 -14.66 21 -15 21 C-15 19.02 -15 17.04 -15 15 C-14.67 15.66 -14.34 16.32 -14 17 C-13.464 16.649 -12.928 16.299 -12.375 15.938 C-9.267 14.711 -7.206 15.271 -4 16 C-4.33 14.68 -4.66 13.36 -5 12 C-7.64 12 -10.28 12 -13 12 C-12.67 10.68 -12.34 9.36 -12 8 C-10.948 8.021 -9.896 8.041 -8.812 8.062 C-5.673 8.011 -3.031 7.735 0 7 C0.934 3.99 1.044 3.133 0 0 Z " fill="#000000" transform="translate(154,77)"/>
<path d="M0 0 C1.98 0 3.96 0 6 0 C6 0.99 6 1.98 6 3 C6.99 2.34 7.98 1.68 9 1 C6.492 6.925 1.052 9.737 -4.25 13 C-7 14 -7 14 -9.375 13.188 C-9.911 12.796 -10.448 12.404 -11 12 C-6.759 8.607 -2.168 5.723 3 4 C3 3.01 3 2.02 3 1 C2.01 0.67 1.02 0.34 0 0 Z " fill="#303030" transform="translate(75,201)"/>
<path d="M0 0 C-0.398 0.459 -0.797 0.918 -1.207 1.391 C-2.299 2.656 -3.386 3.925 -4.469 5.199 C-5.572 6.497 -6.688 7.783 -7.812 9.062 C-9.47 11.767 -9.814 13.833 -10 17 C-9.147 20.781 -9.147 20.781 -8 24 C-11 22 -11 22 -11.875 18.312 C-12.305 13.772 -11.082 11.003 -9 7 C-8.67 6.34 -8.34 5.68 -8 5 C-8.66 4.67 -9.32 4.34 -10 4 C-12.609 4.894 -12.609 4.894 -15 6 C-15 6.66 -15 7.32 -15 8 C-15.66 7.67 -16.32 7.34 -17 7 C-12.77 2.065 -6.629 -2.486 0 0 Z " fill="#222222" transform="translate(24,186)"/>
<path d="M0 0 C3.875 0.875 3.875 0.875 5 2 C5.969 1.959 6.939 1.918 7.938 1.875 C9.453 1.937 9.453 1.937 11 2 C11.99 3.485 11.99 3.485 13 5 C12.67 5.99 12.34 6.98 12 8 C11.134 7.794 10.268 7.588 9.375 7.375 C5.636 6.96 3.451 7.603 0 9 C-0.845 5.622 -1.108 3.325 0 0 Z " fill="#F4F4F4" transform="translate(138,86)"/>
<path d="M0 0 C0.796 2.915 1.253 5.746 1.562 8.75 C1.646 9.549 1.73 10.348 1.816 11.172 C1.877 11.775 1.938 12.378 2 13 C1.34 12.01 0.68 11.02 0 10 C-0.171 11.07 -0.343 12.139 -0.519 13.241 C-1.157 17.216 -1.804 21.189 -2.454 25.161 C-2.733 26.88 -3.011 28.598 -3.286 30.317 C-3.682 32.791 -4.086 35.263 -4.492 37.734 C-4.613 38.501 -4.734 39.268 -4.859 40.058 C-5.461 43.676 -6.073 46.844 -8 50 C-7.168 41.872 -6.042 33.786 -4.898 25.697 C-4.674 24.102 -4.452 22.507 -4.232 20.912 C-3.912 18.582 -3.584 16.254 -3.254 13.926 C-3.158 13.219 -3.062 12.513 -2.963 11.785 C-2.37 7.671 -1.435 3.901 0 0 Z " fill="#000000" transform="translate(300,232)"/>
<path d="M0 0 C0.66 0.66 1.32 1.32 2 2 C1.34 2 0.68 2 0 2 C-0.083 2.598 -0.165 3.196 -0.25 3.812 C-1.233 6.681 -2.467 7.379 -5 9 C-10.925 10.913 -17.801 11.862 -24 11 C-24.99 10.34 -25.98 9.68 -27 9 C-26.022 8.986 -25.043 8.972 -24.035 8.957 C-14.293 8.603 -6.935 7.321 0 0 Z " fill="#717171" transform="translate(165,95)"/>
<path d="M0 0 C1.98 0 3.96 0 6 0 C6.66 1.32 7.32 2.64 8 4 C5.69 3.34 3.38 2.68 1 2 C1 2.99 1 3.98 1 5 C3.31 5.66 5.62 6.32 8 7 C8 8.98 8 10.96 8 13 C2.375 14.125 2.375 14.125 -1 13 C-1.688 10.938 -1.688 10.938 -2 9 C-1.01 9.33 -0.02 9.66 1 10 C1 10.66 1 11.32 1 12 C2.65 11.67 4.3 11.34 6 11 C6 10.34 6 9.68 6 9 C3.69 8.01 1.38 7.02 -1 6 C-0.67 4.02 -0.34 2.04 0 0 Z " fill="#000000" transform="translate(236,289)"/>
<path d="M0 0 C0.684 2.109 0.684 2.109 1 4 C0.443 3.711 -0.114 3.423 -0.688 3.125 C-6.597 0.25 -11.444 -1.489 -17.984 0.648 C-19.688 1.36 -21.348 2.174 -23 3 C-23.99 3.495 -23.99 3.495 -25 4 C-24.938 2.188 -24.938 2.188 -24 0 C-16.413 -4.52 -7.587 -4.52 0 0 Z " fill="#FFFFFF" transform="translate(205,269)"/>
<path d="M0 0 C1.965 -0.043 1.965 -0.043 3.969 -0.086 C7.952 0.434 9.085 1.257 11.5 4.375 C8.544 4.375 5.749 4.073 2.812 3.75 C-2.507 3.278 -6.446 3.723 -11.5 5.375 C-11.5 4.385 -11.5 3.395 -11.5 2.375 C-7.765 -0.007 -4.357 0.043 0 0 Z " fill="#FFFFFF" transform="translate(193.5,273.625)"/>
<path d="M0 0 C1.134 0.021 2.269 0.041 3.438 0.062 C3.438 0.723 3.438 1.382 3.438 2.062 C1.457 2.062 -0.522 2.062 -2.562 2.062 C-2.562 2.723 -2.562 3.382 -2.562 4.062 C-1.758 4.207 -0.954 4.351 -0.125 4.5 C2.438 5.062 2.438 5.062 3.438 6.062 C3.478 7.729 3.48 9.396 3.438 11.062 C-1.188 13.188 -1.188 13.188 -4.562 12.062 C-4.233 11.072 -3.902 10.082 -3.562 9.062 C-1.582 9.558 -1.582 9.558 0.438 10.062 C0.438 9.072 0.438 8.082 0.438 7.062 C-1.212 7.062 -2.863 7.062 -4.562 7.062 C-4.605 5.063 -4.603 3.062 -4.562 1.062 C-3.562 0.062 -3.562 0.062 0 0 Z " fill="#000000" transform="translate(284.5625,289.9375)"/>
<path d="M0 0 C1.533 3.066 0.966 6.116 0.84 9.492 C1.01 12.162 1.647 13.719 3 16 C2.34 15.67 1.68 15.34 1 15 C0.07 17.79 -0.187 19.765 -0.316 22.668 C-0.358 23.561 -0.4 24.453 -0.443 25.373 C-0.502 26.766 -0.502 26.766 -0.562 28.188 C-0.606 29.128 -0.649 30.068 -0.693 31.037 C-0.799 33.358 -0.901 35.679 -1 38 C-1.66 38 -2.32 38 -3 38 C-2.859 34.083 -2.711 30.167 -2.562 26.25 C-2.523 25.158 -2.484 24.066 -2.443 22.941 C-1.623 1.623 -1.623 1.623 0 0 Z " fill="#000000" transform="translate(162,267)"/>
<path d="M0 0 C0.848 0.052 1.695 0.103 2.568 0.156 C3.449 0.221 4.331 0.285 5.238 0.352 C6.131 0.408 7.024 0.465 7.943 0.523 C10.147 0.665 12.349 0.816 14.551 0.977 C14.551 1.307 14.551 1.637 14.551 1.977 C8.611 2.472 8.611 2.472 2.551 2.977 C6.841 2.977 11.131 2.977 15.551 2.977 C10.68 6.224 5.252 5.449 -0.449 4.977 C-3.099 4.234 -5.032 3.326 -7.449 1.977 C-4.225 -0.173 -3.65 -0.245 0 0 Z " fill="#000000" transform="translate(138.44921875,102.0234375)"/>
<path d="M0 0 C-3.382 1.898 -6.734 2.802 -10.5 3.688 C-12.186 4.095 -12.186 4.095 -13.906 4.512 C-16.768 4.963 -18.322 4.978 -21 4 C-20.34 4 -19.68 4 -19 4 C-18.67 3.01 -18.34 2.02 -18 1 C-11.697 -0.379 -6.35 -1.411 0 0 Z " fill="#2B2B2B" transform="translate(66,215)"/>
<path d="M0 0 C0.66 0 1.32 0 2 0 C2 5.94 2 11.88 2 18 C1.34 18 0.68 18 0 18 C0 14.04 0 10.08 0 6 C-1.65 6 -3.3 6 -5 6 C-5 5.34 -5 4.68 -5 4 C-3.35 3.67 -1.7 3.34 0 3 C0 2.01 0 1.02 0 0 Z " fill="#000000" transform="translate(36,82)"/>
<path d="M0 0 C2.475 0.495 2.475 0.495 5 1 C5.125 6.75 5.125 6.75 4 9 C2.68 8.67 1.36 8.34 0 8 C0 5.36 0 2.72 0 0 Z " fill="#FFFFFF" transform="translate(272,292)"/>
<path d="M0 0 C2.475 0.495 2.475 0.495 5 1 C5.125 6.75 5.125 6.75 4 9 C2.68 8.67 1.36 8.34 0 8 C0 5.36 0 2.72 0 0 Z " fill="#FFFFFF" transform="translate(262,292)"/>
<path d="M0 0 C2.277 0.207 2.277 0.207 4.938 0.812 C5.813 1.005 6.688 1.197 7.59 1.395 C10 2 10 2 13 3 C12.67 3.99 12.34 4.98 12 6 C10.415 5.716 8.832 5.422 7.25 5.125 C6.368 4.963 5.487 4.8 4.578 4.633 C2.131 4.032 0.194 3.22 -2 2 C-1.34 1.34 -0.68 0.68 0 0 Z " fill="#0B0B0B" transform="translate(234,213)"/>
<path d="M0 0 C0.33 0.66 0.66 1.32 1 2 C-0.464 1.948 -0.464 1.948 -1.957 1.895 C-3.229 1.867 -4.502 1.84 -5.812 1.812 C-7.077 1.778 -8.342 1.743 -9.645 1.707 C-12.92 1.703 -12.92 1.703 -14.824 3.324 C-15.906 4.867 -16.955 6.432 -18 8 C-18.99 8 -19.98 8 -21 8 C-20.875 6.25 -20.875 6.25 -20 4 C-13.522 -1.273 -7.878 -1.469 0 0 Z " fill="#272727" transform="translate(153,75)"/>
<path d="M0 0 C0 0.99 0 1.98 0 3 C-2.459 3.054 -4.916 3.094 -7.375 3.125 C-8.423 3.15 -8.423 3.15 -9.492 3.176 C-11.329 3.193 -13.166 3.103 -15 3 C-15.66 2.34 -16.32 1.68 -17 1 C-10.907 -0.883 -6.275 -1.075 0 0 Z " fill="#FFFFFF" transform="translate(201,278)"/>
<path d="M0 0 C1.887 0.031 1.887 0.031 3.812 0.062 C0.806 3.069 -2.011 2.658 -6.188 3.062 C-6.517 2.403 -6.848 1.743 -7.188 1.062 C-4.437 0.146 -2.828 -0.046 0 0 Z M-8.188 2.062 C-7.858 2.722 -7.527 3.382 -7.188 4.062 C-12.467 4.062 -17.748 4.062 -23.188 4.062 C-23.188 3.732 -23.188 3.403 -23.188 3.062 C-18.238 2.732 -13.288 2.403 -8.188 2.062 Z " fill="#BABABA" transform="translate(273.1875,214.9375)"/>
<path d="M0 0 C1.32 0 2.64 0 4 0 C4 2.97 4 5.94 4 9 C2.68 9 1.36 9 0 9 C0 6.03 0 3.06 0 0 Z " fill="#FFFFFF" transform="translate(253,292)"/>
<path d="M0 0 C0.33 0 0.66 0 1 0 C1 2.97 1 5.94 1 9 C1.66 9.33 2.32 9.66 3 10 C2.34 10 1.68 10 1 10 C1 10.99 1 11.98 1 13 C0.34 13 -0.32 13 -1 13 C-1.124 11.866 -1.248 10.731 -1.375 9.562 C-1.581 8.387 -1.788 7.211 -2 6 C-2.66 5.67 -3.32 5.34 -4 5 C-2.693 3.313 -1.358 1.646 0 0 Z " fill="#000000" transform="translate(305,289)"/>
<path d="M0 0 C0 0.66 0 1.32 0 2 C-1.432 2.699 -2.871 3.384 -4.312 4.062 C-5.513 4.637 -5.513 4.637 -6.738 5.223 C-9 6 -9 6 -12 5 C-4.508 -1.352 -4.508 -1.352 0 0 Z " fill="#FFFFFF" transform="translate(120,153)"/>
<path d="M0 0 C0.99 0.66 1.98 1.32 3 2 C3 2.66 3 3.32 3 4 C5.475 4.99 5.475 4.99 8 6 C7.67 6.66 7.34 7.32 7 8 C6.257 7.649 5.515 7.299 4.75 6.938 C1.773 5.923 0.876 5.979 -2 7 C-3.333 7.333 -4.667 7.667 -6 8 C-5.546 7.567 -5.093 7.134 -4.625 6.688 C-2.67 4.657 -1.259 2.518 0 0 Z " fill="#070707" transform="translate(196,139)"/>
<path d="M0 0 C1.875 0.25 1.875 0.25 4 1 C5.82 3.427 6.048 4.598 5.688 7.625 C5 10 5 10 4 12 C3.34 11.67 2.68 11.34 2 11 C2 9.68 2 8.36 2 7 C-0.419 4.731 -0.419 4.731 -3 3 C-1.793 3.248 -1.793 3.248 -0.562 3.5 C1.728 4.032 1.728 4.032 3 4 C3 3.34 3 2.68 3 2 C2.01 1.67 1.02 1.34 0 1 C0 0.67 0 0.34 0 0 Z " fill="#070707" transform="translate(202,267)"/>
<path d="M0 0 C1.32 0.66 2.64 1.32 4 2 C4 3.98 4 5.96 4 8 C1.03 7.505 1.03 7.505 -2 7 C-2.125 4.625 -2.125 4.625 -2 2 C-1.34 1.34 -0.68 0.68 0 0 Z " fill="#D9D9D9" transform="translate(157,81)"/>
<path d="M0 0 C0.99 0.33 1.98 0.66 3 1 C-0.211 4.746 -4.396 6.465 -9 8 C-9 8.66 -9 9.32 -9 10 C-9.66 9.67 -10.32 9.34 -11 9 C-8.688 6.5 -8.688 6.5 -6 4 C-5.01 4 -4.02 4 -3 4 C-2.67 3.01 -2.34 2.02 -2 1 C-1.34 0.67 -0.68 0.34 0 0 Z " fill="#1A1A1A" transform="translate(225,178)"/>
<path d="M0 0 C0.33 0.99 0.66 1.98 1 3 C1.66 2.34 2.32 1.68 3 1 C5.125 1.375 5.125 1.375 7 2 C6.175 2.413 5.35 2.825 4.5 3.25 C3.675 3.827 2.85 4.405 2 5 C2 6.32 2 7.64 2 9 C1.01 9.495 1.01 9.495 0 10 C-2.215 4.585 -2.215 4.585 -1.125 1.625 C-0.754 1.089 -0.382 0.553 0 0 Z " fill="#090909" transform="translate(180,269)"/>
<path d="M0 0 C2.494 1.204 4.681 2.454 7 4 C7 4.66 7 5.32 7 6 C5.02 6.33 3.04 6.66 1 7 C0.67 6.34 0.34 5.68 0 5 C0.66 5 1.32 5 2 5 C2 4.34 2 3.68 2 3 C1.34 3 0.68 3 0 3 C0 2.01 0 1.02 0 0 Z " fill="#252525" transform="translate(127,97)"/>
<path d="M0 0 C1.32 0.33 2.64 0.66 4 1 C4 2.32 4 3.64 4 5 C2.68 5 1.36 5 0 5 C0 3.35 0 1.7 0 0 Z " fill="#FFFFFF" transform="translate(292,296)"/>
<path d="M0 0 C1.32 0 2.64 0 4 0 C4.33 1.32 4.66 2.64 5 4 C3.35 4.33 1.7 4.66 0 5 C0 3.35 0 1.7 0 0 Z " fill="#FFFFFF" transform="translate(132,84)"/>
<path d="M0 0 C2.97 0.495 2.97 0.495 6 1 C6 1.66 6 2.32 6 3 C3.69 3 1.38 3 -1 3 C-0.67 2.01 -0.34 1.02 0 0 Z " fill="#636363" transform="translate(32,180)"/>
<path d="M0 0 C-0.33 0.99 -0.66 1.98 -1 3 C-3.31 2.34 -5.62 1.68 -8 1 C-4.933 -0.862 -3.403 -1.215 0 0 Z " fill="#5A5A5A" transform="translate(247,216)"/>
<path d="M0 0 C2.31 0 4.62 0 7 0 C7 0.66 7 1.32 7 2 C5.02 2.33 3.04 2.66 1 3 C0.67 2.01 0.34 1.02 0 0 Z " fill="#5A5A5A" transform="translate(141,159)"/>
</svg>
