<?xml version="1.0" encoding="UTF-8"?>
<!-- Generator: visioncortex VTracer 0.6.4 -->
<svg version="1.1" xmlns="http://www.w3.org/2000/svg" width="325" height="311">
<path d="M0 0 C107.25 0 214.5 0 325 0 C325 102.63 325 205.26 325 311 C217.75 311 110.5 311 0 311 C0 208.37 0 105.74 0 0 Z " fill="#F4F4F4" transform="translate(0,0)"/>
<path d="M0 0 C0 0.66 0 1.32 0 2 C-0.66 2 -1.32 2 -2 2 C-2 2.66 -2 3.32 -2 4 C-2.66 4 -3.32 4 -4 4 C-4 4.66 -4 5.32 -4 6 C-4.66 6 -5.32 6 -6 6 C-6.33 6.99 -6.66 7.98 -7 9 C-7.66 9 -8.32 9 -9 9 C-9 9.66 -9 10.32 -9 11 C-9.66 11 -10.32 11 -11 11 C-11.66 12.65 -12.32 14.3 -13 16 C-13.66 16 -14.32 16 -15 16 C-15.33 17.32 -15.66 18.64 -16 20 C-16.66 20 -17.32 20 -18 20 C-18.174 21.05 -18.174 21.05 -18.352 22.121 C-19.063 25.278 -20.15 28.068 -21.375 31.062 C-31.073 56.209 -24.114 81.242 -18.578 106.859 C-17.837 110.887 -17.407 114.926 -17 119 C-15.84 119.193 -14.68 119.387 -13.484 119.586 C-12.733 119.711 -11.981 119.837 -11.207 119.966 C-9.564 120.24 -7.921 120.511 -6.277 120.782 C-2.578 121.393 1.112 122.021 4.797 122.715 C5.854 122.912 6.911 123.109 8 123.312 C8.928 123.494 9.856 123.676 10.812 123.863 C11.534 123.908 12.256 123.954 13 124 C13.66 123.34 14.32 122.68 15 122 C15.33 122.66 15.66 123.32 16 124 C16.33 122.68 16.66 121.36 17 120 C14.03 119.01 14.03 119.01 11 118 C11 117.67 11 117.34 11 117 C15.921 117.606 20.478 118.595 25.25 120 C26.451 120.351 27.653 120.701 28.891 121.062 C30.936 121.679 32.973 122.324 35 123 C39.309 123.235 43.623 123.185 47.938 123.188 C49.727 123.206 49.727 123.206 51.553 123.225 C52.699 123.227 53.846 123.228 55.027 123.23 C56.077 123.235 57.126 123.239 58.207 123.243 C61.02 122.998 62.56 122.329 65 121 C67.25 121.375 67.25 121.375 69 122 C68.67 122.66 68.34 123.32 68 124 C68.563 124.111 69.127 124.222 69.707 124.336 C72.316 125.091 74.337 126.27 76.688 127.625 C84.725 131.691 91.294 129.111 99.52 126.523 C102.158 125.967 103.461 126.267 106 127 C105.316 127.191 104.632 127.382 103.927 127.579 C97.301 129.431 90.675 131.287 84.051 133.146 C81.618 133.827 79.184 134.505 76.75 135.18 C68.402 137.518 60.205 140.211 52 143 C50.48 143.501 48.959 144.001 47.438 144.5 C44.739 145.389 42.079 146.341 39.414 147.328 C38.779 147.562 38.144 147.796 37.49 148.037 C35.639 148.722 33.79 149.415 31.941 150.109 C29 151 29 151 27 150 C27 149.34 27 148.68 27 148 C11.785 138.891 -5.786 134.474 -23.398 134.282 C-28.822 134.201 -33.216 133.63 -38.375 131.938 C-49.014 128.475 -59.63 129.574 -70.5 131.25 C-71.594 131.414 -71.594 131.414 -72.71 131.58 C-77.324 132.387 -80.909 133.878 -85.026 136.077 C-88.25 137.585 -91.353 137.97 -94.875 138.5 C-105.439 140.274 -113.343 143.727 -122 150 C-122.66 149.67 -123.32 149.34 -124 149 C-122.728 145.185 -121.394 144.738 -118 142.688 C-114.52 140.565 -111.163 138.405 -107.875 136 C-95.161 127.554 -79.569 123.864 -65 120 C-66.147 119.59 -67.295 119.18 -68.477 118.758 C-72.935 117.085 -77.14 115.044 -81.375 112.875 C-82.085 112.515 -82.796 112.156 -83.527 111.785 C-85.353 110.86 -87.177 109.93 -89 109 C-89.99 108.505 -89.99 108.505 -91 108 C-90.505 106.02 -90.505 106.02 -90 104 C-89.34 104 -88.68 104 -88 104 C-87.794 103.361 -87.588 102.721 -87.375 102.062 C-86 100 -86 100 -82.875 99.25 C-81.926 99.168 -80.977 99.085 -80 99 C-79.505 97.515 -79.505 97.515 -79 96 C-78.34 96 -77.68 96 -77 96 C-77 95.34 -77 94.68 -77 94 C-76.361 93.711 -75.721 93.423 -75.062 93.125 C-72.848 92.172 -72.848 92.172 -72 90 C-73.093 89.856 -74.186 89.711 -75.312 89.562 C-79 89 -79 89 -82 88 C-82 87.34 -82 86.68 -82 86 C-84.64 85.67 -87.28 85.34 -90 85 C-90 84.34 -90 83.68 -90 83 C-90.907 83.062 -91.815 83.124 -92.75 83.188 C-96.292 82.983 -97.527 82.473 -100 80 C-100 79.34 -100 78.68 -100 78 C-100.66 78 -101.32 78 -102 78 C-105.334 73.704 -106.132 68.891 -107.188 63.688 C-107.365 62.852 -107.542 62.016 -107.725 61.154 C-108.158 59.105 -108.58 57.053 -109 55 C-109.99 55.495 -109.99 55.495 -111 56 C-110.822 55.144 -110.644 54.288 -110.461 53.406 C-109.701 47.791 -110.536 42.454 -112 37 C-112.866 36.031 -113.733 35.061 -114.625 34.062 C-118.584 28.957 -117.768 23.211 -117 17 C-116.02 13.755 -114.632 10.959 -113 8 C-112.401 6.653 -111.817 5.299 -111.25 3.938 C-110.838 2.968 -110.425 1.999 -110 1 C-109.34 1.33 -108.68 1.66 -108 2 C-108.277 2.545 -108.554 3.091 -108.84 3.652 C-111.513 9.217 -112.609 13.841 -113 20 C-113.66 19.34 -114.32 18.68 -115 18 C-115.462 24.862 -115.462 24.862 -113 31 C-110.092 32.356 -107.093 33.174 -104 34 C-98 36 -98 36 -95.738 36.789 C-94.938 37.065 -94.137 37.341 -93.312 37.625 C-92.566 37.885 -91.82 38.146 -91.051 38.414 C-88.875 39.137 -88.875 39.137 -86 39 C-86.66 38.34 -87.32 37.68 -88 37 C-86.742 37.248 -85.484 37.495 -84.188 37.75 C-83.28 37.928 -82.373 38.106 -81.438 38.289 C-78.801 38.834 -76.184 39.415 -73.562 40.023 C-64.255 42.151 -55.604 43.748 -46 43 C-44.904 42.964 -43.809 42.928 -42.68 42.891 C-39.449 42.626 -36.962 42.325 -34 41 C-31.813 37.848 -30.799 34.732 -30 31 C-28.122 34.756 -30.856 39.309 -32.09 43.129 C-34.19 52.06 -32.44 60.404 -30.812 69.312 C-30.591 70.566 -30.369 71.82 -30.14 73.112 C-28.967 79.716 -27.76 86.315 -26.555 92.914 C-26.325 94.177 -26.096 95.44 -25.86 96.741 C-25.42 99.157 -24.975 101.573 -24.525 103.988 C-24.224 105.631 -24.224 105.631 -23.918 107.309 C-23.74 108.266 -23.563 109.223 -23.38 110.209 C-22.977 113.171 -22.935 116.014 -23 119 C-22.01 119 -21.02 119 -20 119 C-20.241 117.788 -20.241 117.788 -20.487 116.551 C-23.868 99.498 -27.039 82.454 -29.615 65.257 C-29.965 63.017 -29.965 63.017 -30.536 60.925 C-31.264 57.907 -31.168 55.085 -31 52 C-30.34 51.01 -29.68 50.02 -29 49 C-29.014 47.956 -29.028 46.912 -29.043 45.836 C-28.992 41.278 -27.888 37.855 -26.312 33.625 C-26.037 32.873 -25.762 32.122 -25.478 31.347 C-21.782 21.49 -12.181 0 0 0 Z " fill="#EDEDED" transform="translate(134,91)"/>
<path d="M0 0 C0.33 0.99 0.66 1.98 1 3 C1.949 3.309 2.898 3.619 3.875 3.938 C7.436 5.148 8.274 5.72 10 9 C11.066 11.656 11.888 14.126 12 17 C10.125 19.5 10.125 19.5 8 21 C7.67 20.34 7.34 19.68 7 19 C4.07 18.164 4.07 18.164 1 18 C-1.553 20.553 -1.298 21.583 -1.312 25.125 C-1.242 29.647 -0.535 33.087 1.266 37.207 C2.303 39.739 2.662 42.297 3 45 C6.63 44.34 10.26 43.68 14 43 C14.33 41.35 14.66 39.7 15 38 C15.33 37.01 15.66 36.02 16 35 C16.402 36.423 16.402 36.423 16.812 37.875 C17.75 41.253 17.75 41.253 21 43 C13.81 46.995 7.149 47.748 -1 48 C-0.746 48.678 -0.492 49.356 -0.23 50.055 C6 66.903 6 66.903 6 73 C6.722 73.227 7.444 73.454 8.188 73.688 C11.532 75.248 13.516 77.303 16 80 C13.032 78.543 10.136 76.988 7.25 75.375 C6.051 74.706 6.051 74.706 4.828 74.023 C4.225 73.686 3.622 73.348 3 73 C3 72.34 3 71.68 3 71 C1.639 70.814 1.639 70.814 0.25 70.625 C-2.59 70.079 -4.526 69.427 -7 68 C-7 67.34 -7 66.68 -7 66 C-7.743 65.876 -8.485 65.752 -9.25 65.625 C-11.811 65.043 -13.688 64.196 -16 63 C-16.66 63 -17.32 63 -18 63 C-18.227 63.598 -18.454 64.196 -18.688 64.812 C-20.351 67.585 -22.207 68.433 -25 70 C-25.516 70.536 -26.031 71.072 -26.562 71.625 C-28.298 73.285 -29.665 73.597 -32 74 C-32 74.66 -32 75.32 -32 76 C-39.394 78.94 -45.828 79.507 -53.75 79.438 C-55.476 79.432 -55.476 79.432 -57.237 79.426 C-65.594 79.284 -72.237 78.123 -80 75 C-81.659 74.631 -83.325 74.286 -85 74 C-84.67 74.99 -84.34 75.98 -84 77 C-85.25 78.5 -85.25 78.5 -87 80 C-90.789 80 -93.703 79.474 -97.375 78.625 C-103.683 77.222 -109.924 76.24 -116.332 75.43 C-119 75 -119 75 -120 74 C-120.273 72.526 -120.491 71.041 -120.684 69.555 C-120.868 68.186 -120.868 68.186 -121.057 66.789 C-121.307 64.87 -121.557 62.951 -121.807 61.031 C-121.931 60.111 -122.055 59.19 -122.184 58.242 C-122.292 57.405 -122.401 56.569 -122.513 55.707 C-122.975 52.868 -122.975 52.868 -123.97 49.651 C-125.032 45.885 -125.698 42.21 -126.289 38.344 C-126.451 37.285 -126.451 37.285 -126.617 36.204 C-126.843 34.722 -127.066 33.24 -127.287 31.757 C-127.624 29.505 -127.972 27.254 -128.32 25.004 C-128.54 23.555 -128.758 22.106 -128.977 20.656 C-129.173 19.355 -129.37 18.054 -129.573 16.713 C-129.988 13.104 -130.077 9.629 -130 6 C-128.68 5.34 -127.36 4.68 -126 4 C-125.752 4.804 -125.505 5.609 -125.25 6.438 C-124.309 9.132 -124.309 9.132 -122.188 9.625 C-121.466 9.749 -120.744 9.873 -120 10 C-119.216 10.474 -118.433 10.949 -117.625 11.438 C-114.824 13.105 -112.112 14.059 -109 15 C-109.99 15.33 -110.98 15.66 -112 16 C-112.66 15.67 -113.32 15.34 -114 15 C-113.148 17.288 -113.148 17.288 -110.402 17.895 C-108.687 18.349 -108.687 18.349 -106.938 18.812 C-101.295 20.352 -95.703 21.99 -90.125 23.75 C-89.417 23.973 -88.709 24.196 -87.98 24.425 C-86.32 24.949 -84.66 25.474 -83 26 C-86.552 27.184 -87.698 26.695 -91.188 25.562 C-92.539 25.131 -92.539 25.131 -93.918 24.691 C-94.949 24.349 -94.949 24.349 -96 24 C-96 24.66 -96 25.32 -96 26 C-94.368 26.381 -94.368 26.381 -92.703 26.77 C-91.998 26.935 -91.293 27.1 -90.567 27.271 C-89.006 27.636 -87.446 27.998 -85.885 28.358 C-81.563 29.363 -77.319 30.495 -73.062 31.75 C-57.923 35.535 -40.689 33.434 -27 26 C-24.566 24.41 -24.566 24.41 -23 23 C-23.33 22.67 -23.66 22.34 -24 22 C-18.45 15.216 -12.236 9.145 -6 3 C-5.01 3.33 -4.02 3.66 -3 4 C-3 3.34 -3 2.68 -3 2 C-2.01 1.34 -1.02 0.68 0 0 Z " fill="#EFEFEF" transform="translate(236,136)"/>
<path d="M0 0 C1.65 0.33 3.3 0.66 5 1 C16.633 37.733 16.633 37.733 11 49 C12.647 48.357 14.293 47.711 15.938 47.062 C17.312 46.523 17.312 46.523 18.715 45.973 C20.924 45.2 20.924 45.2 22 44 C37.004 39.827 54.137 38.704 69 44 C70.688 44.964 72.358 45.961 74 47 C75.072 47.495 76.145 47.99 77.25 48.5 C80 50 80 50 81 53 C82.485 53.495 82.485 53.495 84 54 C84 54.66 84 55.32 84 56 C85.485 56.495 85.485 56.495 87 57 C89.163 70.405 89.163 70.405 88.688 76.375 C88.541 80.593 89.705 82.374 92.5 85.5 C93.475 86.444 93.475 86.444 94.469 87.406 C96 89 96 89 96 91 C96.66 91 97.32 91 98 91 C98 91.66 98 92.32 98 93 C99.485 93.495 99.485 93.495 101 94 C104 97.444 104 97.444 104 100 C104.922 99.658 104.922 99.658 105.863 99.309 C106.672 99.021 107.48 98.734 108.312 98.438 C109.513 98.002 109.513 98.002 110.738 97.559 C113 97 113 97 116 98 C118.341 97.722 120.676 97.395 123 97 C121.948 96.773 120.896 96.546 119.812 96.312 C115.762 95.124 113.594 93.409 111 90 C110.043 87.371 109.502 84.747 109 82 C108.675 80.665 108.344 79.331 108 78 C109.708 79.634 110.935 80.869 112 83 C113.485 83.495 113.485 83.495 115 84 C114.67 84.66 114.34 85.32 114 86 C113.34 85.67 112.68 85.34 112 85 C114.23 90.1 114.23 90.1 118 94 C119.733 94.464 119.733 94.464 121.5 94.938 C125 96 125 96 126.875 97.75 C128.241 100.482 128.657 102.978 129 106 C128.01 106 127.02 106 126 106 C125.34 108.64 124.68 111.28 124 114 C124.928 113.938 125.856 113.876 126.812 113.812 C130 114 130 114 131.875 115.5 C132.432 116.243 132.432 116.243 133 117 C131.721 117.124 130.442 117.248 129.125 117.375 C125.652 117.69 125.652 117.69 123 120 C117.687 120.511 114.625 119.523 110 117 C109.01 117 108.02 117 107 117 C107 116.34 107 115.68 107 115 C106.01 115 105.02 115 104 115 C102.725 113.566 101.452 112.126 100.281 110.605 C99.858 110.076 99.436 109.546 99 109 C98.567 108.434 98.134 107.868 97.688 107.285 C95.229 105.413 93.527 105.947 90.5 106.25 C83.944 106.496 80.638 104.33 75.668 100.238 C72.936 98.593 72.936 98.593 69.715 100.156 C69.12 100.46 68.525 100.764 67.912 101.077 C52.255 108.631 33.078 107.037 17.039 102.086 C10.122 99.531 5.062 96.591 1.625 89.812 C-0.071 85.598 -0.291 82.033 -0.055 77.531 C0.002 74.921 -0.366 72.63 -0.812 70.062 C-1.553 63.932 1.11 59.26 4 54 C3.01 54 2.02 54 1 54 C0.876 54.763 0.752 55.526 0.625 56.312 C0 59 0 59 -2 62 C-1.514 58.877 -1.001 56.004 0 53 C1.32 53 2.64 53 4 53 C4.475 40.505 4.054 28.755 1.423 16.5 C0.226 10.862 -0.187 5.769 0 0 Z " fill="#0C0C0C" transform="translate(136,15)"/>
<path d="M0 0 C0 0.66 0 1.32 0 2 C-0.66 2 -1.32 2 -2 2 C-2 2.66 -2 3.32 -2 4 C-2.66 4 -3.32 4 -4 4 C-4 4.66 -4 5.32 -4 6 C-4.66 6 -5.32 6 -6 6 C-6.33 6.99 -6.66 7.98 -7 9 C-7.66 9 -8.32 9 -9 9 C-9 9.66 -9 10.32 -9 11 C-9.66 11 -10.32 11 -11 11 C-11.66 12.65 -12.32 14.3 -13 16 C-13.66 16 -14.32 16 -15 16 C-15.33 17.32 -15.66 18.64 -16 20 C-16.66 20 -17.32 20 -18 20 C-18.174 21.05 -18.174 21.05 -18.352 22.121 C-19.063 25.278 -20.15 28.068 -21.375 31.062 C-31.073 56.209 -24.114 81.242 -18.578 106.859 C-17.837 110.887 -17.407 114.926 -17 119 C-15.84 119.193 -14.68 119.387 -13.484 119.586 C-12.733 119.711 -11.981 119.837 -11.207 119.966 C-9.564 120.24 -7.921 120.511 -6.277 120.782 C-2.578 121.393 1.112 122.021 4.797 122.715 C5.854 122.912 6.911 123.109 8 123.312 C8.928 123.494 9.856 123.676 10.812 123.863 C11.534 123.908 12.256 123.954 13 124 C13.66 123.34 14.32 122.68 15 122 C15.33 122.66 15.66 123.32 16 124 C16.33 122.68 16.66 121.36 17 120 C14.03 119.01 14.03 119.01 11 118 C11 117.67 11 117.34 11 117 C15.921 117.606 20.478 118.595 25.25 120 C26.451 120.351 27.653 120.701 28.891 121.062 C30.936 121.679 32.973 122.324 35 123 C39.309 123.235 43.623 123.185 47.938 123.188 C49.727 123.206 49.727 123.206 51.553 123.225 C52.699 123.227 53.846 123.228 55.027 123.23 C56.077 123.235 57.126 123.239 58.207 123.243 C61.02 122.998 62.56 122.329 65 121 C67.25 121.375 67.25 121.375 69 122 C68.67 122.66 68.34 123.32 68 124 C68.563 124.111 69.127 124.222 69.707 124.336 C72.316 125.091 74.337 126.27 76.688 127.625 C84.725 131.691 91.294 129.111 99.52 126.523 C102.158 125.967 103.461 126.267 106 127 C105.316 127.191 104.632 127.382 103.927 127.579 C97.301 129.431 90.675 131.287 84.051 133.146 C81.618 133.827 79.184 134.505 76.75 135.18 C68.402 137.518 60.205 140.211 52 143 C50.48 143.501 48.959 144.001 47.438 144.5 C44.739 145.389 42.079 146.341 39.414 147.328 C38.779 147.562 38.144 147.796 37.49 148.037 C35.639 148.722 33.79 149.415 31.941 150.109 C29 151 29 151 27 150 C27 149.34 27 148.68 27 148 C11.785 138.891 -5.786 134.474 -23.398 134.282 C-28.822 134.201 -33.216 133.63 -38.375 131.938 C-49.014 128.475 -59.63 129.574 -70.5 131.25 C-71.594 131.414 -71.594 131.414 -72.71 131.58 C-77.324 132.387 -80.909 133.878 -85.026 136.077 C-88.25 137.585 -91.353 137.97 -94.875 138.5 C-105.439 140.274 -113.343 143.727 -122 150 C-122.66 149.67 -123.32 149.34 -124 149 C-122.728 145.185 -121.394 144.738 -118 142.688 C-114.52 140.565 -111.163 138.405 -107.875 136 C-89.518 123.773 -66.409 120.299 -45 118 C-46.98 117.01 -46.98 117.01 -49 116 C-48.67 115.34 -48.34 114.68 -48 114 C-47.287 114.416 -47.287 114.416 -46.559 114.84 C-39.262 118.616 -32.065 118.787 -24 119 C-24.242 117.762 -24.485 116.525 -24.734 115.25 C-26.836 104.422 -28.786 93.581 -30.561 82.695 C-31.302 78.15 -32.058 73.613 -32.918 69.09 C-36.794 48.691 -36.794 48.691 -33 43 C-33.038 44.172 -33.038 44.172 -33.077 45.367 C-33.228 53.686 -32.346 61.4 -30.812 69.562 C-30.591 70.798 -30.369 72.034 -30.14 73.307 C-29.556 76.549 -28.963 79.788 -28.364 83.027 C-27.521 87.594 -26.688 92.163 -25.86 96.732 C-25.421 99.152 -24.976 101.571 -24.525 103.989 C-24.224 105.632 -24.224 105.632 -23.918 107.309 C-23.74 108.266 -23.563 109.223 -23.38 110.209 C-22.977 113.171 -22.935 116.014 -23 119 C-22.01 119 -21.02 119 -20 119 C-20.241 117.788 -20.241 117.788 -20.487 116.551 C-23.868 99.498 -27.039 82.454 -29.615 65.257 C-29.965 63.017 -29.965 63.017 -30.536 60.925 C-31.264 57.907 -31.168 55.085 -31 52 C-30.34 51.01 -29.68 50.02 -29 49 C-29.014 47.956 -29.028 46.912 -29.043 45.836 C-28.992 41.278 -27.888 37.855 -26.312 33.625 C-26.037 32.873 -25.762 32.122 -25.478 31.347 C-21.782 21.49 -12.181 0 0 0 Z " fill="#DBDBDB" transform="translate(134,91)"/>
<path d="M0 0 C1.65 0.33 3.3 0.66 5 1 C16.633 37.733 16.633 37.733 11 49 C12.647 48.357 14.293 47.711 15.938 47.062 C17.312 46.523 17.312 46.523 18.715 45.973 C20.924 45.2 20.924 45.2 22 44 C37.004 39.827 54.137 38.704 69 44 C70.688 44.964 72.358 45.961 74 47 C75.072 47.495 76.145 47.99 77.25 48.5 C80 50 80 50 81 53 C82.485 53.495 82.485 53.495 84 54 C84 54.66 84 55.32 84 56 C85.485 56.495 85.485 56.495 87 57 C89.163 70.405 89.163 70.405 88.688 76.375 C88.541 80.593 89.705 82.374 92.5 85.5 C93.475 86.444 93.475 86.444 94.469 87.406 C96 89 96 89 96 91 C96.66 91 97.32 91 98 91 C98 91.66 98 92.32 98 93 C99.485 93.495 99.485 93.495 101 94 C104 97.444 104 97.444 104 100 C104.922 99.658 104.922 99.658 105.863 99.309 C106.672 99.021 107.48 98.734 108.312 98.438 C109.513 98.002 109.513 98.002 110.738 97.559 C113 97 113 97 116 98 C118.341 97.722 120.676 97.395 123 97 C121.948 96.773 120.896 96.546 119.812 96.312 C115.762 95.124 113.594 93.409 111 90 C110.043 87.371 109.502 84.747 109 82 C108.675 80.665 108.344 79.331 108 78 C109.708 79.634 110.935 80.869 112 83 C113.485 83.495 113.485 83.495 115 84 C114.67 84.66 114.34 85.32 114 86 C113.34 85.67 112.68 85.34 112 85 C114.23 90.1 114.23 90.1 118 94 C119.733 94.464 119.733 94.464 121.5 94.938 C125 96 125 96 126.875 97.75 C128.241 100.482 128.657 102.978 129 106 C128.01 106 127.02 106 126 106 C125.34 108.64 124.68 111.28 124 114 C124.928 113.938 125.856 113.876 126.812 113.812 C130 114 130 114 131.875 115.5 C132.432 116.243 132.432 116.243 133 117 C131.721 117.124 130.442 117.248 129.125 117.375 C125.652 117.69 125.652 117.69 123 120 C117.687 120.511 114.625 119.523 110 117 C109.01 117 108.02 117 107 117 C107 116.34 107 115.68 107 115 C106.01 115 105.02 115 104 115 C101.732 112.449 99.641 109.874 97.625 107.125 C94.93 105.26 92.161 105.821 89 106 C89 105.67 89 105.34 89 105 C93.29 104.01 97.58 103.02 102 102 C102 101.01 102 100.02 102 99 C101.34 99 100.68 99 100 99 C100 98.01 100 97.02 100 96 C99.453 95.801 98.907 95.603 98.344 95.398 C95.031 93.422 92.894 90.586 90.5 87.625 C87.463 83.917 84.44 80.349 81 77 C78 73.357 78 73.357 78 71 C77.237 71.351 76.474 71.701 75.688 72.062 C73 73 73 73 70 72 C70.638 71.734 71.276 71.469 71.934 71.195 C72.76 70.842 73.586 70.489 74.438 70.125 C75.261 69.777 76.085 69.429 76.934 69.07 C79.157 68.176 79.157 68.176 80 66 C78.842 66.482 77.685 66.964 76.492 67.461 C74.953 68.099 73.414 68.737 71.875 69.375 C70.734 69.851 70.734 69.851 69.57 70.336 C56.999 75.538 56.999 75.538 53 74 C57.142 71.282 61.373 69.66 66 68 C67.669 67.339 69.337 66.676 71 66 C69.02 65.505 69.02 65.505 67 65 C69.64 64.01 72.28 63.02 75 62 C72.335 59.791 72.335 59.791 70.09 60.102 C64.145 61.547 58.639 63.646 53 66 C46.735 68.436 46.735 68.436 43 67 C45.491 64.509 47.592 64.004 50.938 62.938 C51.998 62.596 53.059 62.254 54.152 61.902 C55.562 61.456 55.562 61.456 57 61 C57.99 60.67 58.98 60.34 60 60 C59.01 60 58.02 60 57 60 C56.01 59.505 56.01 59.505 55 59 C55.99 58.67 56.98 58.34 58 58 C58 57.34 58 56.68 58 56 C58.66 56 59.32 56 60 56 C59.794 54.721 59.588 53.442 59.375 52.125 C59.259 51.406 59.143 50.686 59.023 49.945 C58.108 47.734 58.108 47.734 55.406 46.766 C51.613 45.913 47.996 45.618 44.125 45.625 C43.42 45.624 42.714 45.622 41.988 45.621 C36.255 45.738 32.764 46.951 28 50 C27.34 50 26.68 50 26 50 C25.67 51.32 25.34 52.64 25 54 C24.34 54 23.68 54 23 54 C23.75 49.25 23.75 49.25 26 47 C17.268 49.737 17.268 49.737 9.688 54.688 C7 57 7 57 5 57 C4.876 57.763 4.752 58.526 4.625 59.312 C4 62 4 62 2 65 C2.33 65.33 2.66 65.66 3 66 C3.141 68.671 3.042 71.324 3 74 C3.66 74.33 4.32 74.66 5 75 C4.34 75 3.68 75 3 75 C3.33 78.96 3.66 82.92 4 87 C4.99 87.33 5.98 87.66 7 88 C7 85.03 7 82.06 7 79 C7.33 79 7.66 79 8 79 C8.33 83.29 8.66 87.58 9 92 C11.64 92.99 14.28 93.98 17 95 C17.33 91.7 17.66 88.4 18 85 C18.33 85 18.66 85 19 85 C19.33 89.29 19.66 93.58 20 98 C22.166 97.969 22.166 97.969 24.375 97.938 C28.75 97.875 28.75 97.875 31 99 C31.33 95.37 31.66 91.74 32 88 C32.33 88 32.66 88 33 88 C33.495 93.94 33.495 93.94 34 100 C38.29 100 42.58 100 47 100 C46.67 96.04 46.34 92.08 46 88 C48.421 90.421 48.528 91.801 49.125 95.125 C49.376 96.49 49.376 96.49 49.633 97.883 C49.754 98.581 49.875 99.28 50 100 C50.887 99.67 51.774 99.34 52.688 99 C55.709 98.088 57.884 97.817 61 98 C61.33 95.36 61.66 92.72 62 90 C62.33 90 62.66 90 63 90 C63.495 93.465 63.495 93.465 64 97 C64.763 96.835 65.526 96.67 66.312 96.5 C69 96 69 96 72 96 C71.695 97.902 71.695 97.902 71 100 C54.324 108.338 34.393 107.443 17.039 102.086 C10.122 99.531 5.062 96.591 1.625 89.812 C-0.071 85.598 -0.291 82.033 -0.055 77.531 C0.002 74.921 -0.366 72.63 -0.812 70.062 C-1.553 63.932 1.11 59.26 4 54 C3.01 54 2.02 54 1 54 C0.876 54.763 0.752 55.526 0.625 56.312 C0 59 0 59 -2 62 C-1.514 58.877 -1.001 56.004 0 53 C1.32 53 2.64 53 4 53 C4.475 40.505 4.054 28.755 1.423 16.5 C0.226 10.862 -0.187 5.769 0 0 Z " fill="#030303" transform="translate(136,15)"/>
<path d="M0 0 C-0.619 0.371 -1.238 0.742 -1.875 1.125 C-4.242 2.89 -4.242 2.89 -4.938 5.938 C-6 9 -6 9 -8.625 10.812 C-11.201 12.724 -11.201 12.724 -11.324 15.246 C-11.314 17.517 -11.217 19.74 -11 22 C-11 20.539 -11.142 19.082 -11.25 17.625 C-11 14 -11 14 -9 12.062 C-8.34 11.712 -7.68 11.361 -7 11 C-7 11.99 -7 12.98 -7 14 C-6.34 14 -5.68 14 -5 14 C-4.34 15.65 -3.68 17.3 -3 19 C-1.948 19.144 -0.896 19.289 0.188 19.438 C3.155 19.875 6.068 20.378 9 21 C8.913 21.905 8.913 21.905 8.824 22.828 C8.685 25.299 8.653 27.547 9 30 C11.592 32.802 13.399 33.8 17 35 C17.456 35.692 17.913 36.384 18.383 37.098 C18.916 37.725 19.45 38.353 20 39 C22.368 39.077 22.368 39.077 24.875 38.438 C29.621 37.777 29.621 37.777 33.188 39.875 C35.684 44.179 35.04 47.274 34 52 C33.397 52.061 32.793 52.121 32.172 52.184 C31.373 52.267 30.573 52.351 29.75 52.438 C28.961 52.519 28.172 52.6 27.359 52.684 C24.704 52.995 24.704 52.995 21 54 C20.34 51.03 19.68 48.06 19 45 C19.495 49.455 19.495 49.455 20 54 C17.771 54.054 15.542 54.093 13.312 54.125 C12.071 54.148 10.83 54.171 9.551 54.195 C6.128 54.007 4.091 53.354 1 52 C-1.342 51.663 -3.652 51.502 -6.012 51.344 C-8 51 -8 51 -10 49 C-11.688 48.397 -13.4 47.861 -15.125 47.375 C-16.035 47.115 -16.945 46.854 -17.883 46.586 C-18.581 46.393 -19.28 46.199 -20 46 C-20 44.02 -20 42.04 -20 40 C-21.98 40.495 -21.98 40.495 -24 41 C-25.177 36.375 -25.114 31.921 -25.062 27.188 C-25.058 26.399 -25.053 25.611 -25.049 24.799 C-25.037 22.866 -25.019 20.933 -25 19 C-25.66 18.67 -26.32 18.34 -27 18 C-26.526 17.422 -26.051 16.845 -25.562 16.25 C-23.899 14.175 -23.899 14.175 -23.613 12.043 C-22.172 7.242 -16.317 4.711 -12.164 2.469 C-3.961 -1.49 -3.961 -1.49 0 0 Z " fill="#F3F3F3" transform="translate(164,62)"/>
<path d="M0 0 C4.324 1.022 8.498 2.142 12.688 3.625 C17.481 5.256 21.12 5.446 26 4 C25.34 4.33 24.68 4.66 24 5 C24 5.99 24 6.98 24 8 C25.609 7.907 25.609 7.907 27.25 7.812 C31 8 31 8 35 11 C30.05 10.01 30.05 10.01 25 9 C24.856 10.32 24.711 11.64 24.562 13 C24.081 17.339 23.551 21.67 23 26 C25.31 26.66 27.62 27.32 30 28 C30 28.33 30 28.66 30 29 C27.292 29.338 24.584 29.67 21.875 30 C20.734 30.143 20.734 30.143 19.57 30.289 C8.024 31.683 8.024 31.683 4 29 C2.552 28.41 1.092 27.851 -0.375 27.312 C-6.888 24.779 -12.909 21.399 -19 18 C-18.67 16.68 -18.34 15.36 -18 14 C-17.34 14 -16.68 14 -16 14 C-15.794 13.361 -15.587 12.721 -15.375 12.062 C-14 10 -14 10 -10.875 9.25 C-9.452 9.126 -9.452 9.126 -8 9 C-7.67 8.01 -7.34 7.02 -7 6 C-6.34 6 -5.68 6 -5 6 C-5 5.34 -5 4.68 -5 4 C-4.361 3.711 -3.721 3.423 -3.062 3.125 C-0.848 2.172 -0.848 2.172 0 0 Z " fill="#D4D4D4" transform="translate(62,181)"/>
<path d="M0 0 C0 0.66 0 1.32 0 2 C-0.66 2 -1.32 2 -2 2 C-2 2.66 -2 3.32 -2 4 C-2.66 4 -3.32 4 -4 4 C-4 4.66 -4 5.32 -4 6 C-4.66 6 -5.32 6 -6 6 C-6.33 6.99 -6.66 7.98 -7 9 C-7.66 9 -8.32 9 -9 9 C-9 9.66 -9 10.32 -9 11 C-9.66 11 -10.32 11 -11 11 C-11.66 12.65 -12.32 14.3 -13 16 C-13.66 16 -14.32 16 -15 16 C-15.33 17.32 -15.66 18.64 -16 20 C-16.66 20 -17.32 20 -18 20 C-18.174 21.05 -18.174 21.05 -18.352 22.121 C-19.063 25.278 -20.15 28.068 -21.375 31.062 C-31.073 56.209 -24.114 81.242 -18.578 106.859 C-17.837 110.887 -17.407 114.926 -17 119 C-15.84 119.193 -14.68 119.387 -13.484 119.586 C-12.733 119.711 -11.981 119.837 -11.207 119.966 C-9.564 120.24 -7.921 120.511 -6.277 120.782 C-2.578 121.393 1.112 122.021 4.797 122.715 C5.854 122.912 6.911 123.109 8 123.312 C8.928 123.494 9.856 123.676 10.812 123.863 C11.534 123.908 12.256 123.954 13 124 C13.66 123.34 14.32 122.68 15 122 C15 122.99 15 123.98 15 125 C18.3 125.99 21.6 126.98 25 128 C25 126.35 25 124.7 25 123 C25.33 123 25.66 123 26 123 C26 124.98 26 126.96 26 129 C28.31 129.66 30.62 130.32 33 131 C29.56 132.199 27.923 131.81 24.625 130.375 C18.855 128.143 13.018 126.69 7 125.312 C5.63 124.991 5.63 124.991 4.233 124.664 C3.331 124.461 2.429 124.259 1.5 124.051 C0.706 123.872 -0.088 123.693 -0.906 123.509 C-5.568 122.742 -10.295 122.428 -15 122 C-7.74 123.32 -0.48 124.64 7 126 C7 126.33 7 126.66 7 127 C2.402 126.623 -2.069 126.19 -6.594 125.266 C-29.639 120.594 -56.35 120.553 -79 127 C-79 127.66 -79 128.32 -79 129 C-80.98 129.33 -82.96 129.66 -85 130 C-85 129.34 -85 128.68 -85 128 C-91.803 130.767 -98.481 133.615 -105 137 C-103.02 137 -101.04 137 -99 137 C-99.66 136.34 -100.32 135.68 -101 135 C-96.38 134.67 -91.76 134.34 -87 134 C-87 134.99 -87 135.98 -87 137 C-88.039 137.17 -89.078 137.34 -90.148 137.516 C-102.305 139.59 -111.891 142.675 -122 150 C-122.66 149.67 -123.32 149.34 -124 149 C-122.728 145.185 -121.394 144.738 -118 142.688 C-114.52 140.565 -111.163 138.405 -107.875 136 C-89.518 123.773 -66.409 120.299 -45 118 C-46.98 117.01 -46.98 117.01 -49 116 C-48.67 115.34 -48.34 114.68 -48 114 C-47.287 114.416 -47.287 114.416 -46.559 114.84 C-39.262 118.616 -32.065 118.787 -24 119 C-24.242 117.762 -24.485 116.525 -24.734 115.25 C-26.836 104.422 -28.786 93.581 -30.561 82.695 C-31.302 78.15 -32.058 73.613 -32.918 69.09 C-36.794 48.691 -36.794 48.691 -33 43 C-33.038 44.172 -33.038 44.172 -33.077 45.367 C-33.228 53.686 -32.346 61.4 -30.812 69.562 C-30.591 70.798 -30.369 72.034 -30.14 73.307 C-29.556 76.549 -28.963 79.788 -28.364 83.027 C-27.521 87.594 -26.688 92.163 -25.86 96.732 C-25.421 99.152 -24.976 101.571 -24.525 103.989 C-24.224 105.632 -24.224 105.632 -23.918 107.309 C-23.74 108.266 -23.563 109.223 -23.38 110.209 C-22.977 113.171 -22.935 116.014 -23 119 C-22.01 119 -21.02 119 -20 119 C-20.241 117.788 -20.241 117.788 -20.487 116.551 C-23.868 99.498 -27.039 82.454 -29.615 65.257 C-29.965 63.017 -29.965 63.017 -30.536 60.925 C-31.264 57.907 -31.168 55.085 -31 52 C-30.34 51.01 -29.68 50.02 -29 49 C-29.014 47.956 -29.028 46.912 -29.043 45.836 C-28.992 41.278 -27.888 37.855 -26.312 33.625 C-26.037 32.873 -25.762 32.122 -25.478 31.347 C-21.782 21.49 -12.181 0 0 0 Z " fill="#0D0D0D" transform="translate(134,91)"/>
<path d="M0 0 C0.549 0.325 1.098 0.65 1.664 0.984 C6.926 3.272 13.284 2.465 18.688 1 C19.451 0.67 20.214 0.34 21 0 C19.693 2.614 18.706 2.937 16 4 C13.926 4.285 11.839 4.489 9.75 4.625 C8.672 4.7 7.595 4.775 6.484 4.852 C5.255 4.925 5.255 4.925 4 5 C9.964 6.988 15.255 6.298 21 4 C21 4.66 21 5.32 21 6 C15.687 8.09 11.713 9.611 6 8 C7.922 9.922 10.4 9.759 13 10 C18.759 8.788 23.442 7.309 26.812 2.312 C27.204 1.549 27.596 0.786 28 0 C30.25 0.438 30.25 0.438 33 2 C34.701 4.844 35.785 7.925 37 11 C37.889 12.899 38.785 14.795 39.688 16.688 C41.392 20.448 42.895 23.808 43 28 C42.34 28.99 41.68 29.98 41 31 C40.505 30.01 40.505 30.01 40 29 C38.35 30.65 36.7 32.3 35 34 C35 33.01 35 32.02 35 31 C35.66 31 36.32 31 37 31 C37 29.68 37 28.36 37 27 C36.113 27.784 35.226 28.567 34.312 29.375 C28.935 33.8 24.8 34.219 18 34 C17.01 34 16.02 34 15 34 C12.48 29.83 10.543 25.918 8.918 21.305 C7.767 18.416 6.361 15.702 4.938 12.938 C2.745 8.646 1.067 4.693 0 0 Z " fill="#BDBDBD" transform="translate(257,246)"/>
<path d="M0 0 C2 1 2 1 3.184 4.535 C3.609 6.042 4.027 7.551 4.438 9.062 C5.684 13.572 6.956 17.998 8.66 22.359 C10.119 26.325 10.406 28.045 9 32 C5.545 36.37 2.081 38.107 -3 40 C-3.531 39.518 -4.062 39.036 -4.609 38.539 C-5.316 37.907 -6.022 37.276 -6.75 36.625 C-7.446 35.999 -8.142 35.372 -8.859 34.727 C-10.859 32.942 -10.859 32.942 -13.032 32.18 C-15.677 30.594 -15.867 29.334 -16.633 26.387 C-16.882 25.468 -17.13 24.55 -17.387 23.604 C-17.752 22.16 -17.752 22.16 -18.125 20.688 C-18.625 18.795 -19.128 16.903 -19.633 15.012 C-19.848 14.171 -20.064 13.33 -20.286 12.464 C-21.031 9.894 -21.968 7.467 -23 5 C-22.094 4.974 -21.188 4.948 -20.254 4.922 C-13.352 4.6 -7.786 4.075 -1.672 0.742 C-1.12 0.497 -0.568 0.252 0 0 Z " fill="#FFFFFF" transform="translate(257,178)"/>
<path d="M0 0 C0.99 0.33 1.98 0.66 3 1 C3 3.64 3 6.28 3 9 C3.66 9.33 4.32 9.66 5 10 C4.34 10 3.68 10 3 10 C3.33 13.96 3.66 17.92 4 22 C4.99 22.33 5.98 22.66 7 23 C7 20.03 7 17.06 7 14 C7.33 14 7.66 14 8 14 C8.33 18.29 8.66 22.58 9 27 C11.64 27.99 14.28 28.98 17 30 C17.33 26.7 17.66 23.4 18 20 C18.33 20 18.66 20 19 20 C19.33 24.29 19.66 28.58 20 33 C22.166 32.969 22.166 32.969 24.375 32.938 C28.75 32.875 28.75 32.875 31 34 C31.33 30.37 31.66 26.74 32 23 C32.33 23 32.66 23 33 23 C33.495 28.94 33.495 28.94 34 35 C38.29 35 42.58 35 47 35 C46.505 29.06 46.505 29.06 46 23 C48.421 25.421 48.528 26.801 49.125 30.125 C49.376 31.49 49.376 31.49 49.633 32.883 C49.815 33.931 49.815 33.931 50 35 C50.887 34.67 51.774 34.34 52.688 34 C55.709 33.088 57.884 32.817 61 33 C61.33 30.36 61.66 27.72 62 25 C62.33 25 62.66 25 63 25 C63.495 28.465 63.495 28.465 64 32 C65.145 31.752 65.145 31.752 66.312 31.5 C69 31 69 31 72 31 C71.695 32.902 71.695 32.902 71 35 C54.324 43.338 34.393 42.443 17.039 37.086 C10.122 34.531 5.062 31.591 1.625 24.812 C-0.074 20.595 -0.282 17.009 -0.07 12.504 C0.002 9.914 -0.229 7.504 -0.562 4.938 C-0.707 3.638 -0.851 2.339 -1 1 C-0.67 0.67 -0.34 0.34 0 0 Z " fill="#151515" transform="translate(136,80)"/>
<path d="M0 0 C0.673 -0.006 1.346 -0.013 2.04 -0.019 C6.623 0.098 9.875 1.069 13.75 3.5 C15.902 6.728 15.951 7.784 15.75 11.5 C15.09 11.5 14.43 11.5 13.75 11.5 C13.75 12.16 13.75 12.82 13.75 13.5 C12.335 14.15 10.918 14.795 9.5 15.438 C8.711 15.797 7.922 16.157 7.109 16.527 C-0.84 19.804 -7.288 18.849 -15.051 15.668 C-17.228 14.512 -18.625 13.335 -20.25 11.5 C-19.793 8.223 -19.019 6.147 -16.453 3.988 C-11.056 0.828 -6.133 0.044 0 0 Z " fill="#DCDCDC" transform="translate(180.25,59.5)"/>
<path d="M0 0 C4.09 3.74 5.32 7.648 6 13 C4.125 15.5 4.125 15.5 2 17 C1.67 16.34 1.34 15.68 1 15 C-1.93 14.164 -1.93 14.164 -5 14 C-7.553 16.553 -7.298 17.583 -7.312 21.125 C-7.242 25.647 -6.535 29.087 -4.734 33.207 C-3.697 35.739 -3.338 38.297 -3 41 C0.63 40.34 4.26 39.68 8 39 C8.33 37.35 8.66 35.7 9 34 C9.33 33.01 9.66 32.02 10 31 C10.268 31.949 10.536 32.898 10.812 33.875 C11.75 37.253 11.75 37.253 15 39 C7.56 43.232 0.453 43.76 -8 44 C-8.33 43.34 -8.66 42.68 -9 42 C-10.444 41.554 -11.906 41.167 -13.375 40.812 C-17.318 39.586 -17.797 39.349 -20 35.562 C-20.33 34.387 -20.66 33.211 -21 32 C-21.34 31.041 -21.34 31.041 -21.688 30.062 C-22.575 24.202 -22.199 19.497 -20 14 C-18.727 16.546 -19.147 17.768 -19.562 20.562 C-20.284 26.865 -18.982 32.054 -17 38 C-15.02 38.33 -13.04 38.66 -11 39 C-11.712 37.515 -11.712 37.515 -12.438 36 C-16.166 27.106 -15.112 18.344 -12.113 9.336 C-9.735 3.564 -7.08 -1.416 0 0 Z " fill="#BBBBBB" transform="translate(242,140)"/>
<path d="M0 0 C1.65 0.33 3.3 0.66 5 1 C16.633 37.733 16.633 37.733 11 49 C12.114 48.505 12.114 48.505 13.25 48 C16 47 16 47 20 47 C20 47.66 20 48.32 20 49 C18.453 49.588 18.453 49.588 16.875 50.188 C14.087 51.364 11.97 52.703 9.688 54.688 C7 57 7 57 5 57 C4.876 57.763 4.752 58.526 4.625 59.312 C4 62 4 62 2 65 C1.34 65 0.68 65 0 65 C0.477 63.541 0.957 62.083 1.438 60.625 C1.704 59.813 1.971 59.001 2.246 58.164 C3 56 3 56 4 54 C3.01 54 2.02 54 1 54 C0.876 54.763 0.752 55.526 0.625 56.312 C0 59 0 59 -2 62 C-1.514 58.877 -1.001 56.004 0 53 C1.32 53 2.64 53 4 53 C4.475 40.505 4.054 28.755 1.423 16.5 C0.226 10.862 -0.187 5.769 0 0 Z " fill="#000000" transform="translate(136,15)"/>
<path d="M0 0 C0.33 0 0.66 0 1 0 C2.051 7.881 2.933 16.118 1.43 23.984 C0.954 27.32 1.321 29.775 2 33.062 C2.831 37.099 3.058 39.996 2 44 C-2.208 45.603 -5.518 46.1 -10 46 C-10.416 44.61 -10.416 44.61 -10.84 43.191 C-11.202 41.994 -11.564 40.796 -11.938 39.562 C-12.297 38.368 -12.657 37.173 -13.027 35.941 C-13.709 33.141 -13.709 33.141 -15 32 C-15.238 29.602 -15.238 29.602 -15.312 26.625 C-15.35 25.648 -15.387 24.671 -15.426 23.664 C-15 21 -15 21 -13.18 19.133 C-10.143 17.555 -8.236 18.137 -5 19 C-4.67 19.33 -4.34 19.66 -4 20 C-2.68 20 -1.36 20 0 20 C0 13.4 0 6.8 0 0 Z " fill="#D7D7D7" transform="translate(249,135)"/>
<path d="M0 0 C0 0.99 0 1.98 0 3 C0.928 3.124 1.856 3.248 2.812 3.375 C6 4 6 4 9 6 C9 6.66 9 7.32 9 8 C9.99 8.33 10.98 8.66 12 9 C12.495 9.99 12.495 9.99 13 11 C13.66 11.309 14.32 11.619 15 11.938 C17 13 17 13 18 16 C18.624 16.307 19.248 16.614 19.891 16.93 C22.504 18.256 23.292 19.614 24.75 22.125 C25.178 22.849 25.606 23.574 26.047 24.32 C26.361 24.875 26.676 25.429 27 26 C26.34 26.99 25.68 27.98 25 29 C25.66 30.32 26.32 31.64 27 33 C25.063 32.188 25.063 32.188 23 31 C22.505 29.515 22.505 29.515 22 28 C21.34 28 20.68 28 20 28 C20 27.34 20 26.68 20 26 C19.01 26 18.02 26 17 26 C17 25.34 17 24.68 17 24 C16.34 24 15.68 24 15 24 C15 23.34 15 22.68 15 22 C14.443 21.732 13.886 21.464 13.312 21.188 C10.788 19.891 8.363 18.575 6 17 C6 16.34 6 15.68 6 15 C5.216 14.691 4.433 14.381 3.625 14.062 C1 13 1 13 -1 12 C-1 11.34 -1 10.68 -1 10 C-1.835 9.907 -1.835 9.907 -2.688 9.812 C-5.95 8.666 -7.687 6.506 -10 4 C-10.675 4.228 -11.351 4.456 -12.047 4.691 C-12.939 4.979 -13.831 5.266 -14.75 5.562 C-15.632 5.853 -16.513 6.143 -17.422 6.441 C-20.078 7.017 -21.47 6.892 -24 6 C-20.339 4.652 -16.67 3.324 -13 2 C-12.144 1.68 -11.288 1.361 -10.406 1.031 C-9.246 0.614 -9.246 0.614 -8.062 0.188 C-7.373 -0.066 -6.683 -0.32 -5.973 -0.582 C-3.665 -1.071 -2.219 -0.73 0 0 Z " fill="#ABABAB" transform="translate(202,257)"/>
<path d="M0 0 C5.459 -0.319 8.954 0.543 13.875 2.875 C19.207 5.322 24.212 7.002 30 8 C30 8.66 30 9.32 30 10 C32.97 10.495 32.97 10.495 36 11 C36.495 12.485 36.495 12.485 37 14 C35.75 15.5 35.75 15.5 34 17 C30.211 17 27.297 16.474 23.625 15.625 C17.317 14.222 11.076 13.24 4.668 12.43 C2 12 2 12 1 11 C0.766 9.151 0.587 7.295 0.438 5.438 C0.354 4.426 0.27 3.414 0.184 2.371 C0.123 1.589 0.062 0.806 0 0 Z " fill="#FBFBFB" transform="translate(115,199)"/>
<path d="M0 0 C0.559 0.277 1.119 0.554 1.695 0.84 C9.065 4.169 15.972 4.769 24 5 C24.495 6.485 24.495 6.485 25 8 C23.567 8.014 23.567 8.014 22.104 8.028 C-4.189 8.316 -4.189 8.316 -30 13 C-30 13.66 -30 14.32 -30 15 C-31.98 15.33 -33.96 15.66 -36 16 C-36 15.34 -36 14.68 -36 14 C-42.803 16.767 -49.481 19.615 -56 23 C-54.02 23 -52.04 23 -50 23 C-50.66 22.34 -51.32 21.68 -52 21 C-47.38 20.67 -42.76 20.34 -38 20 C-38 20.99 -38 21.98 -38 23 C-39.039 23.17 -40.078 23.34 -41.148 23.516 C-53.305 25.59 -62.891 28.675 -73 36 C-73.66 35.67 -74.32 35.34 -75 35 C-73.728 31.185 -72.394 30.738 -69 28.688 C-65.52 26.565 -62.163 24.405 -58.875 22 C-40.518 9.773 -17.409 6.299 4 4 C2.68 3.34 1.36 2.68 0 2 C0 1.34 0 0.68 0 0 Z " fill="#141414" transform="translate(85,205)"/>
<path d="M0 0 C1.708 1.634 2.935 2.869 4 5 C4.99 5.33 5.98 5.66 7 6 C6.67 6.66 6.34 7.32 6 8 C5.34 7.67 4.68 7.34 4 7 C6.23 12.1 6.23 12.1 10 16 C11.155 16.309 12.31 16.619 13.5 16.938 C17 18 17 18 18.875 19.75 C20.241 22.482 20.657 24.978 21 28 C20.01 28 19.02 28 18 28 C17.34 30.64 16.68 33.28 16 36 C17.32 36 18.64 36 20 36 C20 36.66 20 37.32 20 38 C15.496 39.757 11.824 40.193 7 40 C7 37.333 7 34.667 7 32 C5.467 30.103 5.467 30.103 3.5 28.312 C2.85 27.69 2.201 27.067 1.531 26.426 C1.026 25.955 0.521 25.485 0 25 C2 23 2 23 4.562 22.5 C5.769 22.252 5.769 22.252 7 22 C7.33 21.34 7.66 20.68 8 20 C10.322 19.593 12.657 19.256 15 19 C13.422 18.66 13.422 18.66 11.812 18.312 C7.762 17.124 5.594 15.409 3 12 C2.043 9.371 1.502 6.747 1 4 C0.675 2.665 0.344 1.331 0 0 Z " fill="#EBEBEB" transform="translate(244,93)"/>
<path d="M0 0 C0.688 3.312 0.688 3.312 1 7 C-0.312 8.938 -0.312 8.938 -2 10 C-2.66 10 -3.32 10 -4 10 C-4 10.66 -4 11.32 -4 12 C-5.871 12.536 -7.747 13.053 -9.625 13.562 C-10.669 13.853 -11.713 14.143 -12.789 14.441 C-16.19 15.033 -18.654 14.759 -22 14 C-20.68 13.67 -19.36 13.34 -18 13 C-19.65 11.35 -21.3 9.7 -23 8 C-22.01 8 -21.02 8 -20 8 C-19.918 7.402 -19.835 6.804 -19.75 6.188 C-18.795 3.403 -17.429 2.567 -15 1 C-18.629 0.849 -18.629 0.849 -22 2 C-21.67 1.01 -21.34 0.02 -21 -1 C-13.636 -4.038 -7.253 -2.591 0 0 Z " fill="#8C8C8C" transform="translate(90,83)"/>
<path d="M0 0 C0 0.99 0 1.98 0 3 C-1.98 3.66 -3.96 4.32 -6 5 C-3.36 7.64 -0.72 10.28 2 13 C1.34 14.65 0.68 16.3 0 18 C0.928 18 1.856 18 2.812 18 C6.208 18 9.604 18 13 18 C13 17.34 13 16.68 13 16 C15.475 16.99 15.475 16.99 18 18 C15.962 18.51 13.933 19.014 11.875 19.438 C9.779 19.905 9.779 19.905 8 22 C2.687 22.511 -0.375 21.523 -5 19 C-5.99 19 -6.98 19 -8 19 C-8 18.34 -8 17.68 -8 17 C-8.99 17 -9.98 17 -11 17 C-13.268 14.449 -15.359 11.874 -17.375 9.125 C-20.07 7.26 -22.839 7.821 -26 8 C-26 7.67 -26 7.34 -26 7 C-25.143 6.83 -24.286 6.66 -23.402 6.484 C-16.829 5.091 -11.652 3.607 -6 0 C-2.476 -1.238 -2.476 -1.238 0 0 Z " fill="#0C0C0C" transform="translate(251,113)"/>
<path d="M0 0 C1.484 1.461 1.484 1.461 2.75 3.375 C3.178 4.001 3.606 4.628 4.047 5.273 C5 7 5 7 5 9 C5.544 9.195 6.088 9.389 6.648 9.59 C10.05 11.63 12.157 14.498 14.625 17.562 C17.82 21.855 17.82 21.855 22 25 C22 25.99 22 26.98 22 28 C22.66 28 23.32 28 24 28 C24 28.66 24 29.32 24 30 C25.65 30 27.3 30 29 30 C29 30.33 29 30.66 29 31 C15.828 34.634 15.828 34.634 10 34 C9.34 33.34 8.68 32.68 8 32 C10.97 31.67 13.94 31.34 17 31 C16.34 30.216 15.68 29.433 15 28.625 C13 26 13 26 13 24 C12.34 24 11.68 24 11 24 C9.273 22.102 9.273 22.102 7.375 19.625 C6.743 18.813 6.112 18.001 5.461 17.164 C4 15 4 15 4 13 C3.34 13 2.68 13 2 13 C0.213 11.024 -1.406 8.943 -3.051 6.848 C-5.35 4.668 -6.896 4.337 -10 4 C-10 3.34 -10 2.68 -10 2 C-6.38 0.684 -3.904 0 0 0 Z " fill="#FCFCFC" transform="translate(214,86)"/>
<path d="M0 0 C6.416 -0.513 9.731 -0.009 15 4 C16.763 4.712 16.763 4.712 18.562 5.438 C22.38 7.173 24.439 8.685 27 12 C27.75 15.75 27.75 15.75 28 19 C28.33 19.33 28.66 19.66 29 20 C29.072 22.02 29.084 24.042 29.062 26.062 C29.053 27.167 29.044 28.272 29.035 29.41 C29.024 30.265 29.012 31.119 29 32 C28.34 32 27.68 32 27 32 C26.456 28.942 26 26.112 26 23 C24.766 21.146 24.766 21.146 23.125 19.375 C22.324 18.458 22.324 18.458 21.508 17.523 C20.057 15.895 20.057 15.895 18 15 C18 14.34 18 13.68 18 13 C17.34 13 16.68 13 16 13 C16 12.34 16 11.68 16 11 C15.446 11.217 14.891 11.433 14.32 11.656 C13.596 11.935 12.871 12.213 12.125 12.5 C11.406 12.778 10.686 13.057 9.945 13.344 C8 14 8 14 6 14 C6.227 13.237 6.454 12.474 6.688 11.688 C6.842 10.357 6.842 10.357 7 9 C5.709 7.375 5.709 7.375 4 6 C3.317 4.675 2.649 3.342 2 2 C1.34 1.34 0.68 0.68 0 0 Z " fill="#FAFAFA" transform="translate(193,60)"/>
<path d="M0 0 C0.549 0.325 1.098 0.65 1.664 0.984 C6.926 3.272 13.284 2.465 18.688 1 C19.451 0.67 20.214 0.34 21 0 C19.693 2.614 18.706 2.937 16 4 C13.926 4.285 11.839 4.489 9.75 4.625 C8.672 4.7 7.595 4.775 6.484 4.852 C5.255 4.925 5.255 4.925 4 5 C9.964 6.988 15.255 6.298 21 4 C21 4.66 21 5.32 21 6 C15.687 8.09 11.713 9.611 6 8 C8.419 10.419 13.165 10.003 16.375 10.062 C17.241 10.042 18.108 10.021 19 10 C19 10.33 19 10.66 19 11 C17.563 11.169 16.125 11.335 14.688 11.5 C13.887 11.593 13.086 11.686 12.262 11.781 C10 12 10 12 7 12 C10.897 13.867 13.541 14.14 17.812 13.625 C18.788 13.514 19.764 13.403 20.77 13.289 C21.874 13.146 21.874 13.146 23 13 C19.965 15.024 18.806 15.321 15.312 15.625 C14.504 15.7 13.696 15.775 12.863 15.852 C11.941 15.925 11.941 15.925 11 16 C11.33 16.66 11.66 17.32 12 18 C11.34 18 10.68 18 10 18 C10 18.66 10 19.32 10 20 C14.969 21.59 19.461 21.681 24.25 19.562 C25.158 19.047 26.065 18.531 27 18 C27.99 17.67 28.98 17.34 30 17 C30 16.34 30 15.68 30 15 C30.66 15.33 31.32 15.66 32 16 C28.88 19.387 26.518 21.87 22 23 C19.62 23.082 17.27 23.063 14.891 22.973 C12.987 22.781 12.987 22.781 12 24 C13.729 24.027 15.458 24.047 17.188 24.062 C18.632 24.08 18.632 24.08 20.105 24.098 C22.856 24.005 25.325 23.621 28 23 C28 23.66 28 24.32 28 25 C22.458 26.963 18.791 27.016 13 26 C16.751 28.501 20.655 28.433 25 28 C28.368 27.102 28.368 27.102 31 26 C31 26.66 31 27.32 31 28 C27.228 29.752 24.333 30.225 20.188 30.125 C18.724 30.098 18.724 30.098 17.23 30.07 C16.494 30.047 15.758 30.024 15 30 C21.706 32.975 27.273 31.059 34 29 C31.614 31.762 29.508 32.987 26 34 C23.308 34.163 20.704 34.087 18 34 C17.01 34 16.02 34 15 34 C12.48 29.83 10.543 25.918 8.918 21.305 C7.767 18.416 6.361 15.702 4.938 12.938 C2.745 8.646 1.067 4.693 0 0 Z " fill="#030303" transform="translate(257,246)"/>
<path d="M0 0 C1.75 1.563 1.75 1.563 3 3 C2.01 3.33 1.02 3.66 0 4 C0.99 4.33 1.98 4.66 3 5 C-2.973 7.411 -8.956 9.773 -15 12 C-16.421 12.532 -16.421 12.532 -17.871 13.074 C-18.862 13.442 -19.854 13.809 -20.875 14.188 C-21.801 14.532 -22.726 14.876 -23.68 15.23 C-26 16 -26 16 -28 16 C-28.33 17.32 -28.66 18.64 -29 20 C-29.043 18.334 -29.041 16.666 -29 15 C-28.67 14.67 -28.34 14.34 -28 14 C-30.475 13.01 -30.475 13.01 -33 12 C-32 9 -32 9 -30.177 8.064 C-29.005 7.677 -29.005 7.677 -27.809 7.281 C-26.946 6.989 -26.083 6.696 -25.193 6.395 C-24.284 6.099 -23.374 5.804 -22.438 5.5 C-20.665 4.907 -18.893 4.313 -17.121 3.719 C-16.257 3.435 -15.393 3.152 -14.503 2.859 C-12.162 2.056 -9.888 1.154 -7.598 0.219 C-4.042 -0.986 -3.311 -1.184 0 0 Z " fill="#E6E6E6" transform="translate(209,75)"/>
<path d="M0 0 C0.33 0.99 0.66 1.98 1 3 C1.66 3 2.32 3 3 3 C3 3.66 3 4.32 3 5 C3.66 5 4.32 5 5 5 C5.73 6.553 6.433 8.118 7.125 9.688 C7.519 10.558 7.914 11.428 8.32 12.324 C9.167 15.656 8.573 17 7 20 C3.452 25.519 -0.964 26.988 -7 29 C-7.33 31.64 -7.66 34.28 -8 37 C-8.66 36.67 -9.32 36.34 -10 36 C-9.67 31.71 -9.34 27.42 -9 23 C-4.545 22.01 -4.545 22.01 0 21 C0 20.34 0 19.68 0 19 C1.333 17.667 2.667 16.333 4 15 C4 14.34 4 13.68 4 13 C3.319 13.763 2.639 14.526 1.938 15.312 C-1.359 18.328 -3.863 19.459 -8 21 C-8.33 20.01 -8.66 19.02 -9 18 C-9.66 17.67 -10.32 17.34 -11 17 C-10.457 16.685 -9.915 16.371 -9.355 16.047 C-3.757 12.935 -3.757 12.935 0 8 C0.225 5.281 0.137 2.739 0 0 Z " fill="#797979" transform="translate(266,200)"/>
<path d="M0 0 C1.65 0.33 3.3 0.66 5 1 C4.34 1.66 3.68 2.32 3 3 C3.764 3.009 4.529 3.019 5.316 3.028 C33.79 3.465 33.79 3.465 47 8 C48.154 8.396 49.307 8.791 50.496 9.199 C68.542 15.812 68.542 15.812 72 21 C72.66 21.33 73.32 21.66 74 22 C71.69 22.66 69.38 23.32 67 24 C67 23.01 67 22.02 67 21 C51.86 11.936 33.974 7.18 16.395 7.262 C10.551 7.27 5.312 6.614 0 4 C-0.33 3.34 -0.66 2.68 -1 2 C-0.67 1.34 -0.34 0.68 0 0 Z " fill="#4E4E4E" transform="translate(94,218)"/>
<path d="M0 0 C0.99 0.66 1.98 1.32 3 2 C2.06 2.379 2.06 2.379 1.102 2.766 C-2.074 4.631 -2.336 6.757 -3.332 10.176 C-5.866 20.89 -6.488 29.537 -3 40 C-5.812 39.938 -5.812 39.938 -9 39 C-13.284 31.909 -13.527 23.974 -12 16 C-12.66 15.67 -13.32 15.34 -14 15 C-12.384 12.959 -10.714 10.959 -9 9 C-8.34 9 -7.68 9 -7 9 C-7 8.34 -7 7.68 -7 7 C-4.625 4.375 -4.625 4.375 -2 2 C-1.34 2 -0.68 2 0 2 C0 1.34 0 0.68 0 0 Z " fill="#FFFFFF" transform="translate(234,139)"/>
<path d="M0 0 C-0.33 0.99 -0.66 1.98 -1 3 C-1.951 3.067 -1.951 3.067 -2.921 3.136 C-21.749 3.649 -21.749 3.649 -39 10 C-41.562 10.125 -41.562 10.125 -44 10 C-44.66 10 -45.32 10 -46 10 C-46 10.33 -46 10.66 -46 11 C-53.92 11.495 -53.92 11.495 -62 12 C-58.929 8.929 -56.597 7.67 -52.688 5.875 C-51.578 5.357 -50.468 4.839 -49.324 4.305 C-46.169 3.066 -43.353 2.416 -40 2 C-40 2.66 -40 3.32 -40 4 C-38.989 3.711 -37.979 3.423 -36.938 3.125 C-24.666 0.111 -12.547 -0.276 0 0 Z " fill="#303030" transform="translate(89,217)"/>
<path d="M0 0 C0.625 1.812 0.625 1.812 1 4 C0.01 5.485 0.01 5.485 -1 7 C0.652 5.348 1.173 3.151 2 1 C2.66 1 3.32 1 4 1 C5.003 5.765 5.324 8.117 3.625 12.75 C0.832 16.963 -3.2 18.784 -8 20 C-12.198 19.862 -15.394 19.164 -19 17 C-16.532 15.766 -14.937 15.934 -12.188 16 C-8.642 16.041 -5.451 15.92 -2 15 C-5.776 14.702 -5.776 14.702 -8 16 C-13.416 16.355 -16.511 16.367 -21 13 C-19 12 -19 12 -15.812 12.5 C-11.925 13.01 -8.837 12.705 -5 12 C-5.33 11.67 -5.66 11.34 -6 11 C-6.773 11.217 -6.773 11.217 -7.562 11.438 C-12.072 12.478 -16.591 12.47 -21 11 C-20.67 10.34 -20.34 9.68 -20 9 C-19.42 9.035 -18.84 9.07 -18.242 9.105 C-12.952 9.289 -9.659 8.773 -5 6 C-4.01 5.67 -3.02 5.34 -2 5 C-0.781 2.496 -0.781 2.496 0 0 Z " fill="#D8D8D8" transform="translate(290,259)"/>
<path d="M0 0 C0.66 0.33 1.32 0.66 2 1 C1.723 1.545 1.446 2.091 1.16 2.652 C-1.513 8.217 -2.609 12.841 -3 19 C-3.66 18.34 -4.32 17.68 -5 17 C-5.462 23.862 -5.462 23.862 -3 30 C-0.092 31.356 2.907 32.174 6 33 C11 34.667 16 36.333 21 38 C18 39 18 39 15 38 C15 38.66 15 39.32 15 40 C9.947 39.368 5.704 37.865 1 36 C2.384 49.2 4.74 62.131 8 75 C5.402 72.75 4.521 71.12 3.832 67.77 C3.661 66.967 3.49 66.165 3.314 65.338 C3.066 64.088 3.066 64.088 2.812 62.812 C2.547 61.545 2.547 61.545 2.275 60.252 C1.84 58.17 1.419 56.085 1 54 C0.01 54.495 0.01 54.495 -1 55 C-0.822 54.144 -0.644 53.288 -0.461 52.406 C0.299 46.791 -0.536 41.454 -2 36 C-2.866 35.031 -3.733 34.061 -4.625 33.062 C-8.584 27.957 -7.768 22.211 -7 16 C-6.02 12.755 -4.632 9.959 -3 7 C-2.401 5.653 -1.817 4.299 -1.25 2.938 C-0.837 1.968 -0.425 0.999 0 0 Z " fill="#000000" transform="translate(24,92)"/>
<path d="M0 0 C2.48 0.6 4.959 1.205 7.438 1.812 C8.125 1.978 8.813 2.144 9.521 2.314 C13.964 3.41 18.27 4.734 22.6 6.208 C40.842 12.227 55.916 15.199 74.602 9.875 C78 9 78 9 82 9 C81 12 81 12 79.32 12.914 C73.221 14.889 67.395 15.702 61 16 C59.89 16.062 59.89 16.062 58.758 16.125 C41.037 16.644 22.306 10.387 6 4 C4.003 3.323 2.005 2.65 0 2 C0 1.34 0 0.68 0 0 Z " fill="#FFFFFF" transform="translate(122,151)"/>
<path d="M0 0 C0.99 0.33 1.98 0.66 3 1 C3.688 3.062 3.688 3.062 4 5 C4.557 5.103 5.114 5.206 5.688 5.312 C8 6 8 6 10.375 7.438 C13.176 9.105 15.888 10.059 19 11 C18.01 11.33 17.02 11.66 16 12 C15.34 11.67 14.68 11.34 14 11 C14.852 13.288 14.852 13.288 17.598 13.895 C18.741 14.197 19.884 14.5 21.062 14.812 C26.705 16.352 32.297 17.99 37.875 19.75 C38.583 19.973 39.291 20.196 40.02 20.425 C41.68 20.949 43.34 21.474 45 22 C41.697 23.101 40.561 22.876 37.25 22.125 C34.395 21.488 31.611 20.95 28.707 20.574 C24.494 19.922 20.524 18.882 16.438 17.688 C15.709 17.487 14.98 17.287 14.229 17.08 C8.779 15.496 3.524 13.651 0.562 8.5 C-0.035 5.843 0.208 4.552 1 2 C0.67 1.34 0.34 0.68 0 0 Z " fill="#666666" transform="translate(108,140)"/>
<path d="M0 0 C0.33 0.99 0.66 1.98 1 3 C1.66 3 2.32 3 3 3 C3.66 4.65 4.32 6.3 5 8 C6.052 8.144 7.104 8.289 8.188 8.438 C11.155 8.875 14.068 9.378 17 10 C16.67 12.97 16.34 15.94 16 19 C9.897 17.856 4.216 16.515 -1 13 C-3.463 9.305 -3.39 7.367 -3 3 C-1.5 1.062 -1.5 1.062 0 0 Z " fill="#EDEDED" transform="translate(156,73)"/>
<path d="M0 0 C2 1 2 1 3 3.812 C3.33 4.864 3.66 5.916 4 7 C4.509 7.888 4.509 7.888 5.027 8.793 C6.317 11.719 6.391 14.315 6.562 17.5 C6.735 21.717 6.735 21.717 7.509 25.841 C8.112 28.491 8.112 30.923 8.098 33.641 C8.094 34.711 8.091 35.78 8.088 36.883 C8.08 37.994 8.071 39.105 8.062 40.25 C8.058 41.377 8.053 42.503 8.049 43.664 C8.037 46.443 8.021 49.221 8 52 C6.02 52.495 6.02 52.495 4 53 C4.031 52.082 4.031 52.082 4.063 51.146 C4.464 37.547 3.713 24.965 0.875 11.652 C0.045 7.669 -0.176 4.061 0 0 Z " fill="#FFFFFF" transform="translate(137,16)"/>
<path d="M0 0 C1.578 1.637 1.578 1.637 3.25 3.688 C6.15 7.131 9.181 9.993 12.715 12.773 C13.139 13.178 13.563 13.583 14 14 C14 14.66 14 15.32 14 16 C15.083 16.309 15.083 16.309 16.188 16.625 C19.926 18.452 21.492 20.704 24 24 C16.649 23.145 13.067 20.197 8 15 C7.237 14.443 6.474 13.886 5.688 13.312 C5.131 12.879 4.574 12.446 4 12 C4 11.34 4 10.68 4 10 C3.443 9.752 2.886 9.505 2.312 9.25 C0 8 0 8 -2.438 5.875 C-5.298 3.782 -6.548 3.605 -10 4 C-10.33 3.34 -10.66 2.68 -11 2 C-9.734 1.468 -8.462 0.95 -7.188 0.438 C-6.48 0.147 -5.772 -0.143 -5.043 -0.441 C-3 -1 -3 -1 0 0 Z " fill="#FFFFFF" transform="translate(198,93)"/>
<path d="M0 0 C0.495 0.99 0.495 0.99 1 2 C-12.34 12.44 -28.497 14.438 -45 13 C-54.925 11.533 -64.593 8.408 -74 5 C-74 4.34 -74 3.68 -74 3 C-68.313 3.976 -62.872 5.299 -57.375 7.062 C-42.683 11.658 -24.362 12.298 -10 6 C-6.583 4.124 -3.275 2.113 0 0 Z " fill="#FFFFFF" transform="translate(214,157)"/>
<path d="M0 0 C2.475 0.495 2.475 0.495 5 1 C9.74 15.967 15.703 35.36 11 51 C10.34 51 9.68 51 9 51 C8.98 50.402 8.96 49.803 8.94 49.187 C8.55 37.975 8.015 27.05 6 16 C5.827 14.647 5.659 13.293 5.5 11.938 C5.032 9.188 4.369 7.395 3 5 C2.67 4.01 2.34 3.02 2 2 C2 5.3 2 8.6 2 12 C-0.136 8.796 -0.231 7.981 -0.125 4.312 C-0.107 3.504 -0.089 2.696 -0.07 1.863 C-0.047 1.248 -0.024 0.634 0 0 Z " fill="#000000" transform="translate(136,15)"/>
<path d="M0 0 C0.559 0.277 1.119 0.554 1.695 0.84 C9.065 4.169 15.972 4.769 24 5 C24.495 6.485 24.495 6.485 25 8 C23.992 8.02 22.984 8.04 21.946 8.06 C18.162 8.137 14.379 8.225 10.596 8.317 C8.967 8.355 7.337 8.39 5.708 8.422 C-6.265 8.599 -6.265 8.599 -18.047 10.572 C-21.069 11.234 -23.919 11.134 -27 11 C-26 9 -26 9 -23.184 7.977 C-17.899 6.596 -12.475 6.033 -7.062 5.375 C-5.464 5.174 -5.464 5.174 -3.834 4.969 C-1.223 4.641 1.388 4.318 4 4 C2.68 3.34 1.36 2.68 0 2 C0 1.34 0 0.68 0 0 Z " fill="#000000" transform="translate(85,205)"/>
<path d="M0 0 C-0.33 1.65 -0.66 3.3 -1 5 C-5.164 6.586 -8.54 7.474 -13 7 C-15.875 5.688 -15.875 5.688 -18 4 C-18 3.01 -18 2.02 -18 1 C-12.06 -2.16 -6.265 -3.132 0 0 Z " fill="#FFFFFF" transform="translate(187,66)"/>
<path d="M0 0 C0.836 2.905 0.985 4.815 0.93 7.949 C0.868 14.035 2.026 19.845 3.125 25.812 C3.581 28.364 4.035 30.916 4.488 33.469 C4.608 34.14 4.728 34.81 4.852 35.502 C6.414 44.259 7.858 53.037 9.312 61.812 C9.581 63.431 9.85 65.05 10.12 66.669 C10.747 70.446 11.374 74.223 12 78 C2.43 78 -7.14 78 -17 78 C-17 77.67 -17 77.34 -17 77 C-8.42 76.67 0.16 76.34 9 76 C8.233 68.912 8.233 68.912 7.203 61.891 C7.051 60.985 6.9 60.08 6.743 59.147 C6.58 58.191 6.418 57.235 6.25 56.25 C6.08 55.23 5.909 54.21 5.733 53.159 C4.736 47.223 3.697 41.295 2.625 35.371 C2.397 34.093 2.168 32.814 1.933 31.497 C1.488 29.017 1.036 26.538 0.575 24.062 C-2.421 7.264 -2.421 7.264 0 0 Z " fill="#3D3D3D" transform="translate(100,134)"/>
<path d="M0 0 C0.66 0 1.32 0 2 0 C2 0.66 2 1.32 2 2 C3.011 2.268 4.021 2.536 5.062 2.812 C7.577 3.521 9.673 4.316 12.062 5.438 C21.254 9.518 32.132 10.464 42 12 C42 12.66 42 13.32 42 14 C34.871 14.257 28.514 13.35 21.562 11.812 C20.59 11.616 19.617 11.419 18.615 11.217 C11.827 9.743 6.059 7.385 0 4 C0 2.667 0 1.333 0 0 Z " fill="#131313" transform="translate(274,32)"/>
<path d="M0 0 C3 1 3 1 3.992 2.68 C4.284 3.404 4.575 4.129 4.875 4.875 C6.386 8.532 7.99 12.113 9.688 15.688 C11.392 19.448 12.895 22.808 13 27 C12.34 27.99 11.68 28.98 11 30 C10.67 29.34 10.34 28.68 10 28 C8.35 29.65 6.7 31.3 5 33 C5 32.01 5 31.02 5 30 C5.66 30 6.32 30 7 30 C7 28.68 7 27.36 7 26 C6.01 26.66 5.02 27.32 4 28 C4.309 27.484 4.619 26.969 4.938 26.438 C6.831 22.094 7 17.692 7 13 C6.34 13 5.68 13 5 13 C4.856 13.784 4.711 14.567 4.562 15.375 C4 18 4 18 3 20 C2.34 19.67 1.68 19.34 1 19 C1.351 18.237 1.701 17.474 2.062 16.688 C3.324 13.952 3.324 13.952 2 11 C2 10.34 2 9.68 2 9 C1.34 9.66 0.68 10.32 0 11 C0.33 9.02 0.66 7.04 1 5 C0.67 5 0.34 5 0 5 C0 3.35 0 1.7 0 0 Z " fill="#080808" transform="translate(287,247)"/>
<path d="M0 0 C0 0.66 0 1.32 0 2 C-0.66 2 -1.32 2 -2 2 C-2 2.66 -2 3.32 -2 4 C-2.66 4 -3.32 4 -4 4 C-4 4.66 -4 5.32 -4 6 C-4.66 6 -5.32 6 -6 6 C-6.33 6.99 -6.66 7.98 -7 9 C-7.66 9 -8.32 9 -9 9 C-9 9.66 -9 10.32 -9 11 C-9.66 11 -10.32 11 -11 11 C-11.66 12.65 -12.32 14.3 -13 16 C-13.66 16 -14.32 16 -15 16 C-15.33 17.32 -15.66 18.64 -16 20 C-16.66 20 -17.32 20 -18 20 C-18.112 20.715 -18.224 21.431 -18.34 22.168 C-19.045 25.191 -20.133 27.563 -21.562 30.312 C-22.018 31.196 -22.473 32.079 -22.941 32.988 C-23.291 33.652 -23.64 34.316 -24 35 C-25.559 30.546 -24.087 27.831 -22.301 23.656 C-18.623 16.146 -9.475 0 0 0 Z " fill="#202020" transform="translate(134,91)"/>
<path d="M0 0 C0.516 0.165 1.031 0.33 1.562 0.5 C4.752 1.154 7.754 1.122 11 1 C11.33 0.67 11.66 0.34 12 0 C14.186 -0.073 16.375 -0.084 18.562 -0.062 C20.359 -0.049 20.359 -0.049 22.191 -0.035 C23.118 -0.024 24.045 -0.012 25 0 C25 0.66 25 1.32 25 2 C24.34 2 23.68 2 23 2 C23 2.66 23 3.32 23 4 C17.44 7.312 13.492 8.649 7 8 C4.5 7 4.5 7 3 6 C3 5.67 3 5.34 3 5 C4.355 4.927 4.355 4.927 5.738 4.852 C6.918 4.777 8.097 4.702 9.312 4.625 C11.07 4.521 11.07 4.521 12.863 4.414 C16.157 4.214 16.157 4.214 19 2 C18.18 2.483 18.18 2.483 17.344 2.977 C13.094 4.832 8.542 4.593 4 4 C1.312 2 1.312 2 0 0 Z " fill="#FFFFFF" transform="translate(257,245)"/>
<path d="M0 0 C1.708 1.634 2.935 2.869 4 5 C4.99 5.33 5.98 5.66 7 6 C6.67 6.66 6.34 7.32 6 8 C5.34 7.67 4.68 7.34 4 7 C6.23 12.1 6.23 12.1 10 16 C11.155 16.309 12.31 16.619 13.5 16.938 C17 18 17 18 18.875 19.75 C20.241 22.482 20.657 24.978 21 28 C20.01 28 19.02 28 18 28 C17.836 28.849 17.836 28.849 17.668 29.715 C17.509 30.448 17.351 31.182 17.188 31.938 C17.037 32.668 16.886 33.399 16.73 34.152 C16.489 34.762 16.248 35.372 16 36 C14.515 36.495 14.515 36.495 13 37 C13 34.36 13 31.72 13 29 C13.66 29 14.32 29 15 29 C15.381 27.009 15.713 25.007 16 23 C14.032 21.032 10.652 21.338 8 21 C8 20.67 8 20.34 8 20 C11.465 19.505 11.465 19.505 15 19 C13.422 18.66 13.422 18.66 11.812 18.312 C7.762 17.124 5.594 15.409 3 12 C2.043 9.371 1.502 6.747 1 4 C0.675 2.665 0.344 1.331 0 0 Z " fill="#0D0D0D" transform="translate(244,93)"/>
<path d="M0 0 C0.66 0.66 1.32 1.32 2 2 C1.925 6.045 1.664 8.255 -1.062 11.312 C-5.72 13.988 -9.874 15.164 -15.25 14.75 C-17.732 14.073 -19.777 13.282 -22 12 C-19.005 11.128 -16.364 10.892 -13.25 10.938 C-12.451 10.947 -11.652 10.956 -10.828 10.965 C-10.225 10.976 -9.622 10.988 -9 11 C-8.67 10.01 -8.34 9.02 -8 8 C-7.216 7.546 -6.433 7.093 -5.625 6.625 C-2.643 4.779 -1.582 3.081 0 0 Z " fill="#B8B8B8" transform="translate(285,246)"/>
<path d="M0 0 C0.33 0 0.66 0 1 0 C1.306 3.896 1.393 6.309 -0.562 9.75 C-4.229 13.134 -8.332 14.444 -13 16 C-13.33 18.64 -13.66 21.28 -14 24 C-14.66 23.67 -15.32 23.34 -16 23 C-15.67 18.71 -15.34 14.42 -15 10 C-12.03 9.34 -9.06 8.68 -6 8 C-6 7.34 -6 6.68 -6 6 C-4.35 5.67 -2.7 5.34 -1 5 C-0.67 3.35 -0.34 1.7 0 0 Z " fill="#797979" transform="translate(272,213)"/>
<path d="M0 0 C0.33 1.32 0.66 2.64 1 4 C-0.176 4.124 -0.176 4.124 -1.375 4.25 C-4.145 4.708 -4.145 4.708 -5.125 7 C-5.558 7.99 -5.558 7.99 -6 9 C-6.99 9.33 -7.98 9.66 -9 10 C-9 10.66 -9 11.32 -9 12 C-9.66 12 -10.32 12 -11 12 C-11.227 12.536 -11.454 13.072 -11.688 13.625 C-13.456 16.825 -15.537 19.29 -18 22 C-18.66 22 -19.32 22 -20 22 C-20 22.66 -20 23.32 -20 24 C-23 23 -23 23 -24 22 C-18.45 15.216 -12.236 9.145 -6 3 C-5.01 3.33 -4.02 3.66 -3 4 C-3 3.34 -3 2.68 -3 2 C-2.01 1.34 -1.02 0.68 0 0 Z " fill="#323232" transform="translate(236,136)"/>
<path d="M0 0 C2 0 2 0 3.625 1.5 C4.079 1.995 4.532 2.49 5 3 C5.66 2.67 6.32 2.34 7 2 C7 2.66 7 3.32 7 4 C8.32 4.33 9.64 4.66 11 5 C9.68 5.99 8.36 6.98 7 8 C7 7.34 7 6.68 7 6 C4.099 5.322 4.099 5.322 1 5 C-1.553 7.553 -1.298 8.583 -1.312 12.125 C-1.243 17.422 0.006 21.144 2 26 C1.67 26.99 1.34 27.98 1 29 C0.67 27.02 0.34 25.04 0 23 C-0.99 23 -1.98 23 -3 23 C-5.491 18.018 -5.845 13.1 -4.395 7.777 C-3.292 4.694 -2.335 2.335 0 0 Z " fill="#000000" transform="translate(236,149)"/>
<path d="M0 0 C4.033 1.219 7.543 2.56 11 5 C11 5.66 11 6.32 11 7 C11.557 7.186 12.114 7.371 12.688 7.562 C16.022 9.635 18.132 12.563 20 16 C20 16.99 20 17.98 20 19 C20.66 19 21.32 19 22 19 C22.33 19.99 22.66 20.98 23 22 C19.807 21.69 18.387 21.429 16.199 19.004 C15.7 18.198 15.201 17.393 14.688 16.562 C14.176 15.759 13.664 14.956 13.137 14.129 C12 12 12 12 12 10 C9.063 8.477 6.083 7.199 3 6 C3 5.34 3 4.68 3 4 C1.35 3.67 -0.3 3.34 -2 3 C-1.34 2.01 -0.68 1.02 0 0 Z " fill="#313131" transform="translate(249,8)"/>
<path d="M0 0 C0 0.66 0 1.32 0 2 C1.98 1.67 3.96 1.34 6 1 C5.34 1.66 4.68 2.32 4 3 C3.01 3 2.02 3 1 3 C1 3.66 1 4.32 1 5 C-2.465 6.485 -2.465 6.485 -6 8 C-6 8.33 -6 8.66 -6 9 C-13.92 9.495 -13.92 9.495 -22 10 C-18.896 6.896 -16.525 5.665 -12.562 3.875 C-11.429 3.357 -10.296 2.839 -9.129 2.305 C-6.001 1 -3.388 0 0 0 Z " fill="#EEEEEE" transform="translate(49,219)"/>
<path d="M0 0 C17.666 0.278 36.784 3.736 53 11 C53.66 11.99 54.32 12.98 55 14 C50.262 13.083 45.978 12.076 41.562 10.125 C28.575 4.725 13.81 3.155 0 1 C0 0.67 0 0.34 0 0 Z " fill="#FFFFFF" transform="translate(114,212)"/>
<path d="M0 0 C3.125 0.375 3.125 0.375 6 1 C6.054 2.625 6.093 4.25 6.125 5.875 C6.148 6.78 6.171 7.685 6.195 8.617 C6 11 6 11 4 13 C1.065 12.633 0.136 12.136 -2 10 C-2.266 8.125 -2.266 8.125 -2.25 6 C-2.255 5.299 -2.26 4.598 -2.266 3.875 C-2 2 -2 2 0 0 Z " fill="#000000" transform="translate(263,288)"/>
<path d="M0 0 C1 1 1 1 1.25 4.875 C1.211 7.564 1.164 8.73 -0.25 11.062 C-2 12 -2 12 -4.125 11.75 C-6 11 -6 11 -7 10 C-7.072 8.314 -7.084 6.625 -7.062 4.938 C-7.053 4.018 -7.044 3.099 -7.035 2.152 C-7.024 1.442 -7.012 0.732 -7 0 C-4.316 -1.342 -2.847 -0.73 0 0 Z " fill="#000000" transform="translate(259,289)"/>
<path d="M0 0 C4.556 0.556 4.556 0.556 6 2 C6.475 9.366 6.475 9.366 4.5 12 C4.005 12.33 3.51 12.66 3 13 C-0.875 11.125 -0.875 11.125 -2 10 C-2.273 4.264 -2.273 4.264 -2 2 C-1.34 1.34 -0.68 0.68 0 0 Z " fill="#000000" transform="translate(273,288)"/>
<path d="M0 0 C1.887 0.371 1.887 0.371 3.812 0.75 C5.174 1.017 5.174 1.017 6.562 1.289 C9.199 1.834 11.816 2.415 14.438 3.023 C26.962 5.885 38.203 6.735 51 5 C38.545 11.442 23.778 7.852 11 4 C11 4.66 11 5.32 11 6 C2.429 5.143 2.429 5.143 -1 3 C-0.01 2.67 0.98 2.34 2 2 C1.34 1.34 0.68 0.68 0 0 Z " fill="#000000" transform="translate(46,128)"/>
<path d="M0 0 C0 0.66 0 1.32 0 2 C-10.079 3.11 -20.067 3.087 -30.188 3 C-33.348 2.973 -36.508 2.954 -39.668 2.938 C-40.391 2.929 -41.114 2.921 -41.858 2.912 C-43.572 2.904 -45.287 2.947 -47 3 C-47.33 3.33 -47.66 3.66 -48 4 C-51.5 4.125 -51.5 4.125 -55 4 C-55.33 3.67 -55.66 3.34 -56 3 C-57.682 2.767 -59.371 2.587 -61.062 2.438 C-62.441 2.312 -62.441 2.312 -63.848 2.184 C-64.913 2.093 -64.913 2.093 -66 2 C-66 1.67 -66 1.34 -66 1 C-57.838 0.869 -49.675 0.739 -41.513 0.609 C-37.723 0.548 -33.933 0.488 -30.143 0.427 C-26.486 0.369 -22.829 0.31 -19.172 0.252 C-17.776 0.23 -16.38 0.208 -14.985 0.185 C-13.031 0.154 -11.077 0.123 -9.124 0.092 C-8.011 0.074 -6.899 0.056 -5.752 0.038 C-3.835 0.012 -1.918 0 0 0 Z " fill="#111111" transform="translate(316,243)"/>
<path d="M0 0 C0.724 0.306 1.449 0.611 2.195 0.926 C4.767 1.911 7.194 2.58 9.875 3.188 C20.047 5.647 30.008 8.905 40 12 C36.697 13.101 35.561 12.876 32.25 12.125 C29.347 11.489 26.584 10.954 23.625 10.625 C14.91 9.122 7.199 6.122 0 1 C0 0.67 0 0.34 0 0 Z " fill="#8D8D8D" transform="translate(113,150)"/>
<path d="M0 0 C2.189 3.776 3.104 7.861 4.125 12.062 C4.307 12.782 4.489 13.502 4.676 14.244 C5.414 17.235 6 19.908 6 23 C6.66 22.67 7.32 22.34 8 22 C9.498 25.371 10 27.204 10 31 C8.68 30.67 7.36 30.34 6 30 C6 29.34 6 28.68 6 28 C5.34 28.66 4.68 29.32 4 30 C1.848 26.772 1.799 25.716 2 22 C1.01 22.99 0.02 23.98 -1 25 C-0.524 23.52 -0.044 22.041 0.438 20.562 C0.704 19.739 0.971 18.915 1.246 18.066 C2 16 2 16 3 15 C2.783 14.336 2.567 13.672 2.344 12.988 C1.926 11.664 1.926 11.664 1.5 10.312 C1.222 9.442 0.943 8.572 0.656 7.676 C0.001 5.006 -0.118 2.736 0 0 Z " fill="#090909" transform="translate(273,201)"/>
<path d="M0 0 C5.602 0.961 10.963 2.251 16.375 4 C26.43 7.171 36.513 8.293 47 9 C47 9.33 47 9.66 47 10 C29.852 10.671 16.171 7.758 0 2 C0 1.34 0 0.68 0 0 Z " fill="#FFFFFF" transform="translate(39,130)"/>
<path d="M0 0 C0 0.33 0 0.66 0 1 C-1.279 1.124 -2.558 1.248 -3.875 1.375 C-7.348 1.69 -7.348 1.69 -10 4 C-10.167 6.584 -10.167 6.584 -10 9 C-10.66 9 -11.32 9 -12 9 C-9.69 9.66 -7.38 10.32 -5 11 C-6.5 12.188 -6.5 12.188 -9 13 C-11.934 12.476 -14.471 11.586 -17 10 C-18 7.312 -18 7.312 -18 5 C-12.495 -1.482 -8.106 -1.612 0 0 Z " fill="#FFFFFF" transform="translate(81,84)"/>
<path d="M0 0 C4.988 0.61 9.602 1.635 14.438 3.062 C16.292 3.606 16.292 3.606 18.184 4.16 C19.113 4.437 20.042 4.714 21 5 C18 6 18 6 15 6 C14.67 7.65 14.34 9.3 14 11 C10.281 10.493 7.265 9.884 4 8 C4.66 6.35 5.32 4.7 6 3 C4.02 2.34 2.04 1.68 0 1 C0 0.67 0 0.34 0 0 Z " fill="#9D9D9D" transform="translate(145,208)"/>
<path d="M0 0 C0 0.66 0 1.32 0 2 C0.66 2 1.32 2 2 2 C2 2.66 2 3.32 2 4 C2.66 4 3.32 4 4 4 C4 4.66 4 5.32 4 6 C4.66 6 5.32 6 6 6 C6 6.66 6 7.32 6 8 C5.34 8 4.68 8 4 8 C4 8.66 4 9.32 4 10 C-1.083 9.846 -3.358 6.979 -6.645 3.496 C-7.092 3.002 -7.539 2.509 -8 2 C-6.142 -1.716 -3.445 -1.069 0 0 Z " fill="#FFFFFF" transform="translate(243,119)"/>
<path d="M0 0 C4.642 0.484 8.537 1.445 12.867 3.168 C16.526 4.595 20.267 5.782 24 7 C21 8 21 8 18 7 C18 7.66 18 8.32 18 9 C12.947 8.368 8.704 6.865 4 5 C4 4.34 4 3.68 4 3 C2.68 2.34 1.36 1.68 0 1 C0 0.67 0 0.34 0 0 Z " fill="#757575" transform="translate(21,123)"/>
<path d="M0 0 C0.495 1.485 0.495 1.485 1 3 C-7.606 8.42 -15.225 10.886 -25.309 8.773 C-27.989 8.003 -30.486 7.213 -33 6 C-34.312 3.375 -34.312 3.375 -35 1 C-34.457 1.277 -33.915 1.554 -33.355 1.84 C-32.282 2.383 -32.282 2.383 -31.188 2.938 C-30.126 3.477 -30.126 3.477 -29.043 4.027 C-22.948 6.929 -16.342 6.965 -9.902 5.105 C-7.994 4.394 -6.097 3.653 -4.215 2.875 C-2 2 -2 2 0 2 C0 1.34 0 0.68 0 0 Z " fill="#FFFFFF" transform="translate(195,72)"/>
<path d="M0 0 C1 3 1 3 0 6 C-0.66 6 -1.32 6 -2 6 C-2 6.66 -2 7.32 -2 8 C-11.312 13.346 -11.312 13.346 -18 13 C-20.438 12 -20.438 12 -22 11 C-22 10.34 -22 9.68 -22 9 C-21.42 9.023 -20.84 9.046 -20.242 9.07 C-12.755 9.243 -7.685 8.211 -2 3 C-1.34 2.01 -0.68 1.02 0 0 Z " fill="#FFFFFF" transform="translate(289,255)"/>
<path d="M0 0 C1.32 0.33 2.64 0.66 4 1 C3.094 2.299 2.175 3.589 1.25 4.875 C0.74 5.594 0.229 6.314 -0.297 7.055 C-3.543 10.762 -7.13 11.447 -11.961 11.98 C-14.91 12.009 -17.311 11.143 -20 10 C-19.67 9.34 -19.34 8.68 -19 8 C-18.196 8.206 -17.391 8.412 -16.562 8.625 C-12.042 9.101 -8.349 8.169 -4 7 C-4 6.01 -4 5.02 -4 4 C-3.34 4 -2.68 4 -2 4 C-2 3.34 -2 2.68 -2 2 C-1.34 2 -0.68 2 0 2 C0 1.34 0 0.68 0 0 Z " fill="#E1E1E1" transform="translate(282,245)"/>
<path d="M0 0 C7.228 0.35 12.895 2.007 19 6 C19.99 7.485 19.99 7.485 21 9 C21.66 9.33 22.32 9.66 23 10 C20.69 10.66 18.38 11.32 16 12 C16 11.01 16 10.02 16 9 C14.086 8.016 12.169 7.038 10.25 6.062 C9.183 5.517 8.115 4.972 7.016 4.41 C4.616 3.288 2.581 2.495 0 2 C0 1.34 0 0.68 0 0 Z " fill="#2B2B2B" transform="translate(145,230)"/>
<path d="M0 0 C0.66 1.32 1.32 2.64 2 4 C-0.31 3.67 -2.62 3.34 -5 3 C-4.107 5.358 -4.107 5.358 -0.938 6.125 C0.517 6.558 0.517 6.558 2 7 C2 8.65 2 10.3 2 12 C-0.198 13.335 -1.526 14.028 -4.125 13.875 C-6.575 12.732 -7.044 11.469 -8 9 C-7.34 9 -6.68 9 -6 9 C-6 9.66 -6 10.32 -6 11 C-4.35 11 -2.7 11 -1 11 C-0.67 10.01 -0.34 9.02 0 8 C-2.31 7.67 -4.62 7.34 -7 7 C-7 5.02 -7 3.04 -7 1 C-4.537 -0.231 -2.72 -0.072 0 0 Z " fill="#000000" transform="translate(243,287)"/>
<path d="M0 0 C0.75 1.562 0.75 1.562 1 4 C-0.901 8.838 -2.621 11.191 -7.312 13.5 C-12.441 15.474 -16.392 15.137 -21.438 12.938 C-21.953 12.628 -22.469 12.319 -23 12 C-20.532 10.766 -18.937 10.934 -16.188 11 C-12.642 11.041 -9.451 10.92 -6 10 C-6 9.34 -6 8.68 -6 8 C-3.5 5.5 -3.5 5.5 -1 3 C-0.67 2.01 -0.34 1.02 0 0 Z " fill="#FFFFFF" transform="translate(294,264)"/>
<path d="M0 0 C0.688 1.688 0.688 1.688 1 4 C-0.93 8.542 -3.805 10.553 -8 13 C-8.99 13.33 -9.98 13.66 -11 14 C-10.67 14.66 -10.34 15.32 -10 16 C-11.98 16.33 -13.96 16.66 -16 17 C-16 14.69 -16 12.38 -16 10 C-14.175 9.907 -14.175 9.907 -12.312 9.812 C-6.753 9.125 -4.52 5.94 -1.188 1.688 C-0.796 1.131 -0.404 0.574 0 0 Z " fill="#FFFFFF" transform="translate(274,217)"/>
<path d="M0 0 C2 2 2 2 2.438 4 C2.875 6.386 2.875 6.386 6 8 C-1.44 12.232 -8.547 12.76 -17 13 C-17.33 12.34 -17.66 11.68 -18 11 C-16.35 11 -14.7 11 -13 11 C-12.67 9.68 -12.34 8.36 -12 7 C-12 7.99 -12 8.98 -12 10 C-6.555 9.01 -6.555 9.01 -1 8 C0.098 3.36 0.098 3.36 0 0 Z " fill="#0B0B0B" transform="translate(251,171)"/>
<path d="M0 0 C1.271 3.813 0.549 5.36 -1 9 C-4.701 11.468 -6.622 11.307 -11 11 C-13.223 9.984 -13.223 9.984 -15 9 C-14.397 8.734 -13.793 8.469 -13.172 8.195 C-12.373 7.842 -11.573 7.489 -10.75 7.125 C-9.961 6.777 -9.172 6.429 -8.359 6.07 C-7.581 5.717 -6.802 5.364 -6 5 C-5.283 4.688 -4.567 4.376 -3.828 4.055 C-1.675 2.992 -1.675 2.992 0 0 Z " fill="#A4A4A4" transform="translate(275,222)"/>
<path d="M0 0 C1.21 2.859 0.972 4.094 0.062 7.125 C-2.275 10.383 -3.9 11.049 -7.805 11.762 C-12.381 12.258 -16.572 12.476 -21 11 C-20.67 10.34 -20.34 9.68 -20 9 C-19.42 9.035 -18.84 9.07 -18.242 9.105 C-12.952 9.289 -9.659 8.773 -5 6 C-4.01 5.67 -3.02 5.34 -2 5 C-0.781 2.496 -0.781 2.496 0 0 Z " fill="#EEEEEE" transform="translate(290,259)"/>
<path d="M0 0 C0 0.66 0 1.32 0 2 C-1.524 2.364 -1.524 2.364 -3.078 2.734 C-10.729 4.589 -18.163 6.589 -25.547 9.363 C-28.165 10.043 -29.488 9.91 -32 9 C-7.069 -0.558 -7.069 -0.558 0 0 Z " fill="#FFFFFF" transform="translate(43,246)"/>
<path d="M0 0 C-1 3 -1 3 -2.807 3.936 C-3.582 4.194 -4.357 4.452 -5.156 4.719 C-6.015 5.011 -6.873 5.304 -7.758 5.605 C-8.663 5.901 -9.568 6.196 -10.5 6.5 C-11.374 6.795 -12.248 7.09 -13.148 7.395 C-15.762 8.275 -18.38 9.139 -21 10 C-22.719 10.572 -24.438 11.145 -26.156 11.719 C-27.438 12.146 -28.719 12.573 -30 13 C-30 12.34 -30 11.68 -30 11 C-23.397 7.879 -16.661 5.401 -9.766 3.019 C-1.032 0 -1.032 0 0 0 Z " fill="#FFFFFF" transform="translate(216,81)"/>
<path d="M0 0 C3 1 3 1 3.984 2.891 C6.522 10.711 6.522 10.711 5 15 C4.34 14.34 3.68 13.68 3 13 C1.35 14.65 -0.3 16.3 -2 18 C-2 17.01 -2 16.02 -2 15 C-1.34 15 -0.68 15 0 15 C0 13.68 0 12.36 0 11 C-0.99 11.66 -1.98 12.32 -3 13 C-2.683 12.438 -2.366 11.876 -2.039 11.297 C-0.931 8.848 -0.61 6.916 -0.375 4.25 C-0.3 3.451 -0.225 2.652 -0.148 1.828 C-0.099 1.225 -0.05 0.622 0 0 Z " fill="#000000" transform="translate(294,262)"/>
<path d="M0 0 C0.66 0 1.32 0 2 0 C2 0.66 2 1.32 2 2 C2.583 2.268 3.165 2.536 3.766 2.812 C6.028 4.015 7.806 5.338 9.75 7 C10.67 7.773 10.67 7.773 11.609 8.562 C13 10 13 10 13 12 C13.577 12.227 14.155 12.454 14.75 12.688 C17.566 14.33 19.081 16.395 21 19 C20.34 19.33 19.68 19.66 19 20 C19 19.34 19 18.68 19 18 C18.34 18 17.68 18 17 18 C15.86 16.895 14.728 15.782 13.629 14.637 C9.42 10.408 4.966 6.311 0 3 C0 2.01 0 1.02 0 0 Z " fill="#FFFFFF" transform="translate(220,255)"/>
<path d="M0 0 C2.5 -0.312 2.5 -0.312 5 0 C5.66 0.66 6.32 1.32 7 2 C6.812 4.5 6.812 4.5 6 7 C5.01 7.66 4.02 8.32 3 9 C4.32 9.33 5.64 9.66 7 10 C7 10.66 7 11.32 7 12 C4.03 12 1.06 12 -2 12 C0 8 0 8 2 6 C2.99 6 3.98 6 5 6 C5 4.68 5 3.36 5 2 C3.68 2 2.36 2 1 2 C1 2.66 1 3.32 1 4 C0.01 3.67 -0.98 3.34 -2 3 C-1.34 2.01 -0.68 1.02 0 0 Z " fill="#000000" transform="translate(282,288)"/>
<path d="M0 0 C2.744 1.372 3.385 3.451 4.707 6.113 C7.979 10.888 12.52 12.826 17.812 14.75 C18.974 15.178 20.135 15.606 21.332 16.047 C22.212 16.361 23.093 16.676 24 17 C19.849 18.384 17.179 16.76 13.312 15.188 C7.921 13.024 2.668 11.304 -3 10 C-3 9.67 -3 9.34 -3 9 C-1.02 8.67 0.96 8.34 3 8 C2.505 7.051 2.01 6.102 1.5 5.125 C0 2 0 2 0 0 Z " fill="#040404" transform="translate(119,189)"/>
<path d="M0 0 C0.66 0.33 1.32 0.66 2 1 C1.723 1.545 1.446 2.091 1.16 2.652 C-1.513 8.217 -2.609 12.841 -3 19 C-3.66 18.34 -4.32 17.68 -5 17 C-5.271 23.738 -5.271 23.738 -3 30 C-2.34 30.33 -1.68 30.66 -1 31 C-3.169 30.494 -5 30 -7 29 C-7.471 20.533 -7.043 14.463 -3 7 C-2.402 5.652 -1.818 4.298 -1.25 2.938 C-0.837 1.968 -0.425 0.999 0 0 Z " fill="#0E0E0E" transform="translate(24,92)"/>
<path d="M0 0 C1.273 2.546 0.853 3.768 0.438 6.562 C-0.284 12.865 1.018 18.054 3 24 C4.98 24.33 6.96 24.66 9 25 C9.33 24.34 9.66 23.68 10 23 C12.475 24.98 12.475 24.98 15 27 C10.236 27.191 6.279 27.237 2 25 C0.188 21.625 0.188 21.625 -1 18 C-1.34 17.041 -1.34 17.041 -1.688 16.062 C-2.575 10.202 -2.199 5.497 0 0 Z " fill="#000000" transform="translate(222,154)"/>
<path d="M0 0 C0.66 0 1.32 0 2 0 C2 2.64 2 5.28 2 8 C2.66 8.33 3.32 8.66 4 9 C3.34 9 2.68 9 2 9 C2 9.99 2 10.98 2 12 C1.34 12 0.68 12 0 12 C0 11.01 0 10.02 0 9 C-1.65 9 -3.3 9 -5 9 C-3.758 5.561 -2.443 2.748 0 0 Z " fill="#2C2C2C" transform="translate(305,288)"/>
<path d="M0 0 C0.688 1.75 0.688 1.75 1 4 C-0.312 6.25 -0.312 6.25 -2 8 C-2.66 8 -3.32 8 -4 8 C-4 8.66 -4 9.32 -4 10 C-5.134 10.289 -6.269 10.577 -7.438 10.875 C-8.613 11.246 -9.789 11.618 -11 12 C-11.33 12.66 -11.66 13.32 -12 14 C-15 9.25 -15 9.25 -15 7 C-14.34 7 -13.68 7 -13 7 C-12.67 7.66 -12.34 8.32 -12 9 C-6.798 6.999 -2.623 5.246 0 0 Z " fill="#FFFFFF" transform="translate(270,211)"/>
<path d="M0 0 C-0.99 0.495 -0.99 0.495 -2 1 C-2 1.99 -2 2.98 -2 4 C-4 3 -4 3 -5 1 C-7.916 0.75 -7.916 0.75 -11 1 C-13.185 3.676 -13.185 3.676 -13 6 C-10.69 6 -8.38 6 -6 6 C-6.99 7.485 -6.99 7.485 -8 9 C-10.875 9.438 -10.875 9.438 -14 9 C-16.375 7 -16.375 7 -18 5 C-17.01 5 -16.02 5 -15 5 C-14.876 4.381 -14.752 3.763 -14.625 3.125 C-14 1 -14 1 -12 -1 C-3.684 -2.61 -3.684 -2.61 0 0 Z " fill="#040404" transform="translate(85,86)"/>
<path d="M0 0 C0.66 0 1.32 0 2 0 C2 0.66 2 1.32 2 2 C3.011 2.268 4.021 2.536 5.062 2.812 C8.873 3.894 12.389 5.379 16 7 C16 7.66 16 8.32 16 9 C9.753 9.822 5.287 6.926 0 4 C0 2.667 0 1.333 0 0 Z " fill="#2C2C2C" transform="translate(274,32)"/>
<path d="M0 0 C0.66 0 1.32 0 2 0 C1.67 1.32 1.34 2.64 1 4 C0.34 4 -0.32 4 -1 4 C-1.112 4.715 -1.224 5.431 -1.34 6.168 C-2.045 9.191 -3.133 11.563 -4.562 14.312 C-5.018 15.196 -5.473 16.079 -5.941 16.988 C-6.465 17.984 -6.465 17.984 -7 19 C-8.611 14.498 -6.981 11.63 -5.184 7.418 C-3.786 4.563 -2.251 2.251 0 0 Z " fill="#1A1A1A" transform="translate(117,107)"/>
<path d="M0 0 C0.969 0.124 1.939 0.248 2.938 0.375 C3.597 1.365 4.257 2.355 4.938 3.375 C3.875 4.875 3.875 4.875 1.938 6.375 C-1.75 6.562 -1.75 6.562 -5.062 6.375 C-5.392 5.385 -5.722 4.395 -6.062 3.375 C-4.134 0.803 -3.268 0.4 0 0 Z " fill="#FFFFFF" transform="translate(77.0625,85.625)"/>
<path d="M0 0 C0.66 0 1.32 0 2 0 C2 2.64 2 5.28 2 8 C2.66 8.33 3.32 8.66 4 9 C3.34 9 2.68 9 2 9 C1.67 9.99 1.34 10.98 1 12 C1 11.01 1 10.02 1 9 C-0.98 9 -2.96 9 -5 9 C-3.758 5.561 -2.443 2.748 0 0 Z " fill="#454545" transform="translate(295,288)"/>
<path d="M0 0 C0.33 0.66 0.66 1.32 1 2 C1.557 1.773 2.114 1.546 2.688 1.312 C5 1 5 1 7.75 2.125 C10 4 10 4 10.312 6.688 C10.158 7.832 10.158 7.832 10 9 C6.646 8.051 3.308 7.103 0 6 C-0.382 4.344 -0.714 2.675 -1 1 C-0.67 0.67 -0.34 0.34 0 0 Z " fill="#000000" transform="translate(47,160)"/>
<path d="M0 0 C3.561 1.462 5.362 3.338 7.688 6.375 C8.289 7.146 8.891 7.917 9.512 8.711 C10.924 10.882 11.567 12.471 12 15 C8.515 14.355 5.972 12.899 3 11 C5 10 5 10 8 10 C3.978 7.032 0.999 5.476 -4 5 C-4 4.67 -4 4.34 -4 4 C-2.02 3.67 -0.04 3.34 2 3 C1.34 2.01 0.68 1.02 0 0 Z " fill="#0A0A0A" transform="translate(266,122)"/>
<path d="M0 0 C1.417 0.312 2.833 0.624 4.25 0.938 C5.433 1.199 5.433 1.199 6.641 1.465 C8.769 1.948 10.885 2.462 13 3 C13.33 2.01 13.66 1.02 14 0 C16.624 3.061 17 3.732 17 8 C17.99 8.33 18.98 8.66 20 9 C18.542 9.054 17.084 9.093 15.625 9.125 C14.813 9.148 14.001 9.171 13.164 9.195 C11 9 11 9 9 7 C10.65 7 12.3 7 14 7 C11.429 4.429 9.395 4.199 5.875 3.375 C4.779 3.115 3.684 2.854 2.555 2.586 C1.29 2.296 1.29 2.296 0 2 C0 1.34 0 0.68 0 0 Z " fill="#0A0A0A" transform="translate(296,253)"/>
<path d="M0 0 C1.176 0.014 1.176 0.014 2.375 0.027 C4.292 0.051 6.208 0.087 8.125 0.125 C7.795 1.115 7.465 2.105 7.125 3.125 C4.022 3.351 0.918 3.553 -2.188 3.75 C-3.509 3.847 -3.509 3.847 -4.857 3.945 C-5.705 3.997 -6.553 4.048 -7.426 4.102 C-8.596 4.18 -8.596 4.18 -9.79 4.26 C-11.875 4.125 -11.875 4.125 -14.875 2.125 C-9.763 0.051 -5.412 -0.119 0 0 Z " fill="#1B1B1B" transform="translate(80.875,216.875)"/>
<path d="M0 0 C0.66 0.33 1.32 0.66 2 1 C2.625 4.062 2.625 4.062 3 7 C2.01 7 1.02 7 0 7 C-0.11 7.566 -0.219 8.132 -0.332 8.715 C-0.491 9.448 -0.649 10.182 -0.812 10.938 C-0.963 11.668 -1.114 12.399 -1.27 13.152 C-1.511 13.762 -1.752 14.372 -2 15 C-2.99 15.33 -3.98 15.66 -5 16 C-5 13.36 -5 10.72 -5 8 C-4.34 8 -3.68 8 -3 8 C-2.876 6.866 -2.752 5.731 -2.625 4.562 C-2.419 3.387 -2.212 2.211 -2 1 C-1.34 0.67 -0.68 0.34 0 0 Z " fill="#000000" transform="translate(262,114)"/>
<path d="M0 0 C1.65 0.33 3.3 0.66 5 1 C4.34 1.66 3.68 2.32 3 3 C16.86 3.495 16.86 3.495 31 4 C31 4.33 31 4.66 31 5 C27.147 5.228 23.292 5.429 19.438 5.625 C17.808 5.722 17.808 5.722 16.146 5.82 C10.327 6.103 5.434 6.241 0 4 C-0.33 3.34 -0.66 2.68 -1 2 C-0.67 1.34 -0.34 0.68 0 0 Z " fill="#050505" transform="translate(94,218)"/>
<path d="M0 0 C0 0.66 0 1.32 0 2 C0.66 2.33 1.32 2.66 2 3 C0.234 4.008 -1.538 5.006 -3.312 6 C-4.792 6.835 -4.792 6.835 -6.301 7.688 C-9 9 -9 9 -12 9 C-10.792 5.376 -9.703 4.848 -6.562 2.812 C-5.759 2.283 -4.956 1.753 -4.129 1.207 C-2 0 -2 0 0 0 Z " fill="#131313" transform="translate(22,231)"/>
<path d="M0 0 C0.99 0.33 1.98 0.66 3 1 C2.723 2.074 2.446 3.148 2.16 4.254 C1.794 5.69 1.428 7.126 1.062 8.562 C0.88 9.267 0.698 9.971 0.51 10.697 C-0.612 15.121 -1.435 19.471 -2 24 C-2.33 24 -2.66 24 -3 24 C-3.307 15.383 -3.396 8.065 0 0 Z " fill="#111111" transform="translate(108,124)"/>
<path d="M0 0 C0.66 0 1.32 0 2 0 C4.209 3.314 4.225 4.345 4.125 8.188 C4.107 9.089 4.089 9.99 4.07 10.918 C4.036 11.949 4.036 11.949 4 13 C2.68 12.67 1.36 12.34 0 12 C0 8.04 0 4.08 0 0 Z " fill="#FFFFFF" transform="translate(139,90)"/>
<path d="M0 0 C0.66 0 1.32 0 2 0 C2.027 2.417 2.047 4.833 2.062 7.25 C2.071 7.932 2.079 8.614 2.088 9.316 C2.104 12.693 2.056 15.773 1 19 C0.34 19 -0.32 19 -1 19 C-0.67 12.73 -0.34 6.46 0 0 Z " fill="#575757" transform="translate(146,47)"/>
<path d="M0 0 C1.32 0 2.64 0 4 0 C4 1.32 4 2.64 4 4 C1.384 5.909 -0.926 6.975 -4 8 C-4 5.69 -4 3.38 -4 1 C-2.68 1.33 -1.36 1.66 0 2 C0 1.34 0 0.68 0 0 Z " fill="#FFFFFF" transform="translate(283,290)"/>
<path d="M0 0 C2.062 0.438 2.062 0.438 4 1 C4 3.31 4 5.62 4 8 C2.062 8.562 2.062 8.562 0 9 C-1 8 -1 8 -1.125 4.5 C-1 1 -1 1 0 0 Z " fill="#FFFFFF" transform="translate(264,290)"/>
<path d="M0 0 C2.062 0.438 2.062 0.438 4 1 C4 3.31 4 5.62 4 8 C3.01 8.33 2.02 8.66 1 9 C0.34 8.67 -0.32 8.34 -1 8 C-1.042 5.667 -1.041 3.333 -1 1 C-0.67 0.67 -0.34 0.34 0 0 Z " fill="#FFFFFF" transform="translate(254,290)"/>
<path d="M0 0 C6.625 0.75 6.625 0.75 10 3 C10 3.66 10 4.32 10 5 C10.99 5.33 11.98 5.66 13 6 C11.02 6.99 11.02 6.99 9 8 C7.886 7.072 7.886 7.072 6.75 6.125 C4.512 4.396 2.563 3.139 0 2 C0 1.34 0 0.68 0 0 Z " fill="#353535" transform="translate(201,260)"/>
<path d="M0 0 C4.05 0.467 6.14 1.783 9.25 4.375 C9.25 5.365 9.25 6.355 9.25 7.375 C8.742 7.098 8.234 6.821 7.711 6.535 C3.542 4.342 0.009 2.851 -4.75 2.375 C-2.75 0.375 -2.75 0.375 0 0 Z " fill="#FFFFFF" transform="translate(264.75,126.625)"/>
<path d="M0 0 C2.5 2.312 2.5 2.312 5 5 C5 5.99 5 6.98 5 8 C5.66 8 6.32 8 7 8 C7.33 8.99 7.66 9.98 8 11 C5.676 10.785 5.676 10.785 3 10 C1.418 7.934 1.418 7.934 0.188 5.438 C-0.231 4.611 -0.65 3.785 -1.082 2.934 C-1.385 2.296 -1.688 1.657 -2 1 C-1.34 0.67 -0.68 0.34 0 0 Z " fill="#2E2E2E" transform="translate(264,19)"/>
<path d="M0 0 C2.477 0.385 3.703 0.673 5.414 2.559 C6.013 3.489 6.013 3.489 6.625 4.438 C8.01 6.55 9.2 8.2 11 10 C9.68 10 8.36 10 7 10 C7 9.34 7 8.68 7 8 C6.34 8 5.68 8 5 8 C5 7.34 5 6.68 5 6 C4.01 6 3.02 6 2 6 C0 3 0 3 0 0 Z " fill="#FFFFFF" transform="translate(218,107)"/>
<path d="M0 0 C2.31 0.33 4.62 0.66 7 1 C7 1.66 7 2.32 7 3 C8.32 3.33 9.64 3.66 11 4 C11 4.66 11 5.32 11 6 C2.429 5.143 2.429 5.143 -1 3 C-0.01 2.67 0.98 2.34 2 2 C1.34 1.34 0.68 0.68 0 0 Z " fill="#616161" transform="translate(46,128)"/>
<path d="M0 0 C2 2 2 2 2.125 5.625 C2.084 6.739 2.042 7.853 2 9 C1.34 9 0.68 9 0 9 C0 8.34 0 7.68 0 7 C-0.639 6.732 -1.279 6.464 -1.938 6.188 C-4 5 -4 5 -5 2 C-3.35 1.34 -1.7 0.68 0 0 Z " fill="#FFFFFF" transform="translate(209,94)"/>
<path d="M0 0 C0.99 0 1.98 0 3 0 C3 2.64 3 5.28 3 8 C1.68 8 0.36 8 -1 8 C-1.042 5.667 -1.041 3.333 -1 1 C-0.67 0.67 -0.34 0.34 0 0 Z " fill="#FFFFFF" transform="translate(274,290)"/>
<path d="M0 0 C-0.33 0.99 -0.66 1.98 -1 3 C-2.604 3.169 -4.208 3.335 -5.812 3.5 C-6.706 3.593 -7.599 3.686 -8.52 3.781 C-11 4 -11 4 -14 4 C-13.67 3.01 -13.34 2.02 -13 1 C-8.624 0.407 -4.425 -0.138 0 0 Z " fill="#454545" transform="translate(70,218)"/>
<path d="M0 0 C4.95 0.99 4.95 0.99 10 2 C9.01 3.485 9.01 3.485 8 5 C4.875 5.188 4.875 5.188 2 5 C1.34 3.35 0.68 1.7 0 0 Z " fill="#1E1E1E" transform="translate(106,215)"/>
<path d="M0 0 C2.097 3.146 2.52 5.015 3.125 8.688 C3.293 9.681 3.46 10.675 3.633 11.699 C3.754 12.458 3.875 13.218 4 14 C3.01 14.33 2.02 14.66 1 15 C0.635 13.252 0.284 11.502 -0.062 9.75 C-0.26 8.775 -0.457 7.801 -0.66 6.797 C-0.984 4.132 -0.855 2.511 0 0 Z " fill="#2F2F2F" transform="translate(112,190)"/>
<path d="M0 0 C3.527 5.29 5.363 9.628 6 16 C5.34 15.34 4.68 14.68 4 14 C4 12.68 4 11.36 4 10 C3.01 10 2.02 10 1 10 C-1.429 3.714 -1.429 3.714 0 0 Z " fill="#373737" transform="translate(232,162)"/>
<path d="M0 0 C1.32 0.99 2.64 1.98 4 3 C4.66 2.67 5.32 2.34 6 2 C6 2.66 6 3.32 6 4 C7.32 4.33 8.64 4.66 10 5 C8.68 5.99 7.36 6.98 6 8 C6 7.34 6 6.68 6 6 C3.03 5.67 0.06 5.34 -3 5 C-2.01 3.35 -1.02 1.7 0 0 Z " fill="#1F1F1F" transform="translate(237,149)"/>
<path d="M0 0 C5.691 1.097 10.746 2.541 16 5 C16 5.33 16 5.66 16 6 C11.168 5.408 6.6 4.623 2 3 C1.34 2.01 0.68 1.02 0 0 Z " fill="#FFFFFF" transform="translate(34,125)"/>
<path d="M0 0 C0 3.96 0 7.92 0 12 C-0.66 12 -1.32 12 -2 12 C-2 9.36 -2 6.72 -2 4 C-2.99 4 -3.98 4 -5 4 C-5 3.34 -5 2.68 -5 2 C-2 0 -2 0 0 0 Z " fill="#000000" transform="translate(316,288)"/>
<path d="M0 0 C2.964 2.808 5.445 5.183 7 9 C6.01 10.485 6.01 10.485 5 12 C0.098 5.926 0.098 5.926 -0.312 2.062 C-0.209 1.382 -0.106 0.701 0 0 Z " fill="#292929" transform="translate(222,274)"/>
<path d="M0 0 C0.549 0.325 1.098 0.65 1.664 0.984 C6.926 3.272 13.284 2.465 18.688 1 C19.451 0.67 20.214 0.34 21 0 C19.68 2.64 18.752 2.948 16 4 C13.592 4.289 11.172 4.49 8.75 4.625 C7.487 4.7 6.223 4.775 4.922 4.852 C3.476 4.925 3.476 4.925 2 5 C1.34 3.35 0.68 1.7 0 0 Z " fill="#000000" transform="translate(257,246)"/>
<path d="M0 0 C-0.33 0.99 -0.66 1.98 -1 3 C-1.674 2.847 -2.348 2.693 -3.043 2.535 C-6.469 1.915 -9.839 1.665 -13.312 1.438 C-14.567 1.354 -15.821 1.27 -17.113 1.184 C-18.542 1.093 -18.542 1.093 -20 1 C-20 0.67 -20 0.34 -20 0 C-17.605 -0.196 -15.209 -0.382 -12.812 -0.562 C-11.802 -0.647 -11.802 -0.647 -10.771 -0.732 C-6.983 -1.01 -3.682 -0.965 0 0 Z " fill="#949494" transform="translate(94,218)"/>
<path d="M0 0 C2.562 2.25 2.562 2.25 5 5 C4.812 7.312 4.812 7.312 4 9 C3.01 9 2.02 9 1 9 C0.34 8.34 -0.32 7.68 -1 7 C-0.625 3.375 -0.625 3.375 0 0 Z " fill="#FFFFFF" transform="translate(212,97)"/>
<path d="M0 0 C1.079 7.192 0.794 13.782 0 21 C-0.33 21 -0.66 21 -1 21 C-1.061 19.975 -1.121 18.95 -1.184 17.895 C-1.268 16.534 -1.353 15.173 -1.438 13.812 C-1.477 13.139 -1.516 12.465 -1.557 11.771 C-1.789 8.103 -2.172 4.583 -3 1 C-1 0 -1 0 0 0 Z " fill="#000000" transform="translate(146,38)"/>
<path d="M0 0 C0.66 0 1.32 0 2 0 C2.727 1.575 3.431 3.16 4.125 4.75 C4.519 5.632 4.914 6.513 5.32 7.422 C6 10 6 10 5.117 12.328 C4.749 12.88 4.38 13.432 4 14 C3.67 13.01 3.34 12.02 3 11 C2.67 11.66 2.34 12.32 2 13 C1.34 12.67 0.68 12.34 0 12 C0.186 11.134 0.371 10.268 0.562 9.375 C1.007 5.948 0.72 3.358 0 0 Z " fill="#000000" transform="translate(269,205)"/>
<path d="M0 0 C1.485 0.99 1.485 0.99 3 2 C3.99 2 4.98 2 6 2 C6 3.98 6 5.96 6 8 C4.02 7.34 2.04 6.68 0 6 C0 4.02 0 2.04 0 0 Z " fill="#080808" transform="translate(140,189)"/>
<path d="M0 0 C4.517 -0.366 4.517 -0.366 6.812 1.375 C8 3 8 3 8 5 C8.66 5.33 9.32 5.66 10 6 C9.67 6.66 9.34 7.32 9 8 C8.34 8 7.68 8 7 8 C7 7.34 7 6.68 7 6 C6.34 6 5.68 6 5 6 C3.286 4.041 1.616 2.041 0 0 Z " fill="#343434" transform="translate(212,268)"/>
<path d="M0 0 C0.33 0 0.66 0 1 0 C1 1.98 1 3.96 1 6 C2.65 6 4.3 6 6 6 C6 6.66 6 7.32 6 8 C1.496 9.757 -2.176 10.193 -7 10 C-7 9.67 -7 9.34 -7 9 C-5.02 9 -3.04 9 -1 9 C-0.67 6.03 -0.34 3.06 0 0 Z " fill="#B8B8B8" transform="translate(258,123)"/>
<path d="M0 0 C1.481 0.281 2.96 0.575 4.438 0.875 C5.673 1.119 5.673 1.119 6.934 1.367 C7.616 1.576 8.297 1.785 9 2 C9.33 2.66 9.66 3.32 10 4 C9.01 5.485 9.01 5.485 8 7 C7.67 6.67 7.34 6.34 7 6 C6.34 6.66 5.68 7.32 5 8 C5 6.35 5 4.7 5 3 C3.68 3.33 2.36 3.66 1 4 C0.67 2.68 0.34 1.36 0 0 Z " fill="#FFFFFF" transform="translate(141,188)"/>
<path d="M0 0 C2.31 0.33 4.62 0.66 7 1 C6.34 2.65 5.68 4.3 5 6 C3.35 5.67 1.7 5.34 0 5 C0 3.35 0 1.7 0 0 Z " fill="#242424" transform="translate(50,122)"/>
<path d="M0 0 C0.901 0.111 1.802 0.222 2.73 0.336 C3.761 0.479 3.761 0.479 4.812 0.625 C4.483 1.615 4.152 2.605 3.812 3.625 C-2.127 2.635 -2.127 2.635 -8.188 1.625 C-4.735 -0.676 -3.953 -0.513 0 0 Z " fill="#1B1B1B" transform="translate(295.1875,40.375)"/>
<path d="M0 0 C0.66 3.96 1.32 7.92 2 12 C1.01 12.33 0.02 12.66 -1 13 C-1.66 9.04 -2.32 5.08 -3 1 C-1 0 -1 0 0 0 Z " fill="#000000" transform="translate(109,165)"/>
<path d="M0 0 C3 1.812 3 1.812 6 4 C6 4.99 6 5.98 6 7 C4.02 7.33 2.04 7.66 0 8 C0 5.36 0 2.72 0 0 Z " fill="#F5F5F5" transform="translate(199,105)"/>
<path d="M0 0 C3.875 1.75 3.875 1.75 5 4 C5.66 4.33 6.32 4.66 7 5 C4.69 5.66 2.38 6.32 0 7 C0 6.01 0 5.02 0 4 C-0.66 3.67 -1.32 3.34 -2 3 C-1 1 -1 1 0 0 Z " fill="#090909" transform="translate(161,235)"/>
<path d="M0 0 C0.66 0 1.32 0 2 0 C2 0.66 2 1.32 2 2 C2.66 2.33 3.32 2.66 4 3 C3.34 3 2.68 3 2 3 C2 3.66 2 4.32 2 5 C2.763 5.268 3.526 5.536 4.312 5.812 C6.874 6.944 8.197 7.912 10 10 C6.49 9.35 3.876 8.119 1 6 C-0.312 3.312 -0.312 3.312 -1 1 C-0.67 0.67 -0.34 0.34 0 0 Z " fill="#131313" transform="translate(109,145)"/>
<path d="M0 0 C2.494 0.998 3.787 1.686 5.312 3.938 C6 6 6 6 5 9 C0 3.375 0 3.375 0 0 Z " fill="#FFFFFF" transform="translate(248,100)"/>
<path d="M0 0 C0.33 0.66 0.66 1.32 1 2 C1.99 2 2.98 2 4 2 C4.33 3.98 4.66 5.96 5 8 C2.5 6.812 2.5 6.812 0 5 C-0.312 2.312 -0.312 2.312 0 0 Z " fill="#FFFFFF" transform="translate(174,86)"/>
<path d="M0 0 C0.33 0.99 0.66 1.98 1 3 C-0.312 5.188 -0.312 5.188 -2 7 C-2.66 7 -3.32 7 -4 7 C-4 9.31 -4 11.62 -4 14 C-4.33 14 -4.66 14 -5 14 C-5 11.36 -5 8.72 -5 6 C-4.34 6 -3.68 6 -3 6 C-2.691 5.196 -2.381 4.391 -2.062 3.562 C-1 1 -1 1 0 0 Z " fill="#515151" transform="translate(262,116)"/>
<path d="M0 0 C5.94 0.99 5.94 0.99 12 2 C12 2.66 12 3.32 12 4 C7.123 4.348 4.229 3.417 0 1 C0 0.67 0 0.34 0 0 Z " fill="#858585" transform="translate(137,227)"/>
<path d="M0 0 C0.688 1.688 0.688 1.688 1 4 C-0.438 6.75 -0.438 6.75 -2 9 C-2.971 5.979 -3.136 3.995 -2 1 C-1.34 0.67 -0.68 0.34 0 0 Z " fill="#4C4C4C" transform="translate(112,117)"/>
<path d="M0 0 C0.99 0 1.98 0 3 0 C2.34 2.31 1.68 4.62 1 7 C0.01 7 -0.98 7 -2 7 C-1.34 4.69 -0.68 2.38 0 0 Z " fill="#FFFFFF" transform="translate(137,69)"/>
<path d="M0 0 C3 1 3 1 3 1 Z M0 1 C0 1.99 0 2.98 0 4 C-1.65 4.66 -3.3 5.32 -5 6 C-4.625 4.062 -4.625 4.062 -4 2 C-2 1 -2 1 0 1 Z " fill="#383838" transform="translate(15,235)"/>
<path d="M0 0 C2.36 2.36 2.491 3.779 3 7 C2.01 7.33 1.02 7.66 0 8 C-0.381 5.674 -0.713 3.339 -1 1 C-0.67 0.67 -0.34 0.34 0 0 Z " fill="#1E1E1E" transform="translate(143,31)"/>
<path d="M0 0 C2.438 0.812 2.438 0.812 5 2 C5.33 2.99 5.66 3.98 6 5 C3.36 4.34 0.72 3.68 -2 3 C-1.34 2.01 -0.68 1.02 0 0 Z " fill="#4B4B4B" transform="translate(249,8)"/>
</svg>
