<?xml version="1.0" encoding="UTF-8"?>
<!-- Generator: visioncortex VTracer 0.6.4 -->
<svg version="1.1" xmlns="http://www.w3.org/2000/svg" width="430" height="509">
<path d="M0 0 C141.9 0 283.8 0 430 0 C430 167.97 430 335.94 430 509 C288.1 509 146.2 509 0 509 C0 341.03 0 173.06 0 0 Z " fill="#FDFDFD" transform="translate(0,0)"/>
<path d="M0 0 C9.94 3.499 19.712 8.079 24.426 17.883 C32.02 37.038 25.666 59.91 17.867 78.074 C15.324 83.363 12.694 88.67 9.25 93.438 C8.59 93.438 7.93 93.438 7.25 93.438 C6.982 94.077 6.714 94.716 6.438 95.375 C5.25 97.438 5.25 97.438 2.25 98.438 C2.25 99.097 2.25 99.757 2.25 100.438 C-4.657 104.403 -10.609 105.854 -18.598 105.207 C-25.217 104.745 -28.881 105.772 -34.25 109.625 C-39.82 113.446 -39.82 113.446 -44.203 113.406 C-47.299 112.673 -49.954 111.956 -52.75 110.438 C-53.08 109.447 -53.41 108.457 -53.75 107.438 C-54.303 107.795 -54.856 108.152 -55.426 108.52 C-58.47 109.722 -59.872 109.153 -62.938 108.125 C-64.258 107.698 -64.258 107.698 -65.605 107.262 C-67.75 106.438 -67.75 106.438 -68.75 105.438 C-69.25 102.75 -69.25 102.75 -68.75 99.438 C-67.095 97.713 -65.317 96.331 -63.418 94.883 C-61.521 93.464 -61.521 93.464 -60.688 90.75 C-59.75 88.438 -59.75 88.438 -56.75 86.625 C-53.75 85.438 -53.75 85.438 -51.75 85.438 C-51.75 84.778 -51.75 84.118 -51.75 83.438 C-49.77 82.942 -49.77 82.942 -47.75 82.438 C-47.519 81.48 -47.289 80.522 -47.051 79.535 C-45.026 71.235 -42.815 63.022 -40.325 54.848 C-39.16 51.208 -39.16 51.208 -38.75 47.438 C-39.41 47.108 -40.07 46.778 -40.75 46.438 C-40.75 44.787 -40.75 43.138 -40.75 41.438 C-42.07 41.108 -43.39 40.778 -44.75 40.438 C-44.75 38.787 -44.75 37.138 -44.75 35.438 C-43.76 34.942 -43.76 34.942 -42.75 34.438 C-42.098 32.413 -42.098 32.413 -41.75 30.438 C-43.4 30.108 -45.05 29.778 -46.75 29.438 C-46.75 27.787 -46.75 26.138 -46.75 24.438 C-46.09 24.108 -45.43 23.778 -44.75 23.438 C-44.687 22.681 -44.624 21.924 -44.559 21.145 C-43.533 17.71 -41.836 16.854 -38.783 15.154 C-38.133 14.815 -37.483 14.475 -36.812 14.125 C-36.166 13.766 -35.52 13.407 -34.854 13.037 C-30.085 10.438 -30.085 10.438 -27.75 10.438 C-27.557 9.655 -27.363 8.873 -27.164 8.066 C-26.904 7.054 -26.643 6.043 -26.375 5 C-25.992 3.486 -25.992 3.486 -25.602 1.941 C-23.14 -5.295 -5.764 -1.635 0 0 Z " fill="#EAEAEA" transform="translate(125.75,39.5625)"/>
<path d="M0 0 C0 2.31 0 4.62 0 7 C5.252 9.333 10.551 11.305 16 13.125 C17.152 13.521 17.152 13.521 18.328 13.926 C22.898 15.457 27.207 16.477 32 17 C32 17.66 32 18.32 32 19 C32.857 19.129 33.713 19.257 34.595 19.389 C46.698 21.56 58.471 26.043 70.115 29.908 C71.293 30.293 72.47 30.678 73.684 31.074 C74.731 31.421 75.778 31.767 76.857 32.124 C80.255 33.071 83.484 33.695 87 34 C89.63 32.525 89.63 32.525 91.875 30.375 C96.285 26.946 96.285 26.946 99.641 27.199 C101.887 27.98 103.925 28.842 106 30 C105.725 37.173 105.725 37.173 102.516 40.836 C101.445 41.705 100.355 42.551 99.25 43.375 C98.676 43.83 98.102 44.285 97.51 44.753 C96.304 45.704 95.089 46.645 93.867 47.576 C91.997 49.002 90.155 50.459 88.316 51.926 C87.15 52.848 85.982 53.768 84.812 54.688 C84.26 55.122 83.708 55.556 83.14 56.003 C79.236 59 79.236 59 77 59 C77 59.66 77 60.32 77 61 C75.391 62.402 75.391 62.402 73.25 63.938 C72.554 64.442 71.858 64.946 71.141 65.465 C70.434 65.971 69.728 66.478 69 67 C68.294 67.558 67.587 68.116 66.859 68.691 C65 70 65 70 63 70 C63 70.66 63 71.32 63 72 C61.595 73.297 61.595 73.297 59.641 74.75 C58.585 75.539 58.585 75.539 57.508 76.344 C56.763 76.89 56.018 77.437 55.25 78 C54.52 78.547 53.791 79.093 53.039 79.656 C46.382 84.595 46.382 84.595 43 86 C40.859 85.32 40.859 85.32 38.75 84.125 C38.044 83.736 37.337 83.346 36.609 82.945 C35.813 82.477 35.813 82.477 35 82 C34.516 78.224 34.302 74.757 35 71 C36.881 68.849 38.704 67.576 41.152 66.121 C43.158 65.129 43.158 65.129 44 63 C43.457 62.83 42.914 62.659 42.355 62.484 C36.671 60.651 31.247 58.465 25.801 56.023 C24.08 55.263 22.359 54.502 20.639 53.742 C17.965 52.555 15.292 51.366 12.621 50.174 C10.017 49.014 7.409 47.862 4.801 46.711 C4.007 46.354 3.213 45.996 2.395 45.628 C-1.744 43.807 -5.455 42.497 -10 42 C-10 41.01 -10 40.02 -10 39 C-10.591 38.843 -11.183 38.686 -11.792 38.524 C-19.656 36.315 -26.786 33.004 -34.141 29.496 C-42.482 25.369 -42.482 25.369 -51.473 26.031 C-52.657 26.516 -53.842 27.001 -55.062 27.5 C-62.352 30.476 -62.352 30.476 -67 29 C-67.66 26.36 -68.32 23.72 -69 21 C-62.994 18.108 -56.877 15.858 -50.562 13.75 C-49.757 13.48 -48.951 13.21 -48.122 12.931 C-42.259 11 -42.259 11 -40 11 C-40 11.66 -40 12.32 -40 13 C-38.02 12.34 -36.04 11.68 -34 11 C-34.99 10.67 -35.98 10.34 -37 10 C-30.356 7.185 -23.587 4.668 -16.812 2.188 C-15.958 1.861 -15.103 1.535 -14.222 1.199 C-8.966 -0.695 -5.459 -1.322 0 0 Z " fill="#F0F0F0" transform="translate(300,49)"/>
<path d="M0 0 C0 2.31 0 4.62 0 7 C5.252 9.333 10.551 11.305 16 13.125 C17.152 13.521 17.152 13.521 18.328 13.926 C22.898 15.457 27.207 16.477 32 17 C32 17.66 32 18.32 32 19 C32.857 19.129 33.713 19.257 34.595 19.389 C46.698 21.56 58.471 26.043 70.115 29.908 C71.293 30.293 72.47 30.678 73.684 31.074 C74.731 31.421 75.778 31.767 76.857 32.124 C80.255 33.071 83.484 33.695 87 34 C89.63 32.525 89.63 32.525 91.875 30.375 C96.285 26.946 96.285 26.946 99.641 27.199 C101.887 27.98 103.925 28.842 106 30 C105.725 37.173 105.725 37.173 102.516 40.836 C101.445 41.705 100.355 42.551 99.25 43.375 C98.676 43.83 98.102 44.285 97.51 44.753 C96.304 45.704 95.089 46.645 93.867 47.576 C91.997 49.002 90.155 50.459 88.316 51.926 C87.15 52.848 85.982 53.768 84.812 54.688 C84.26 55.122 83.708 55.556 83.14 56.003 C79.236 59 79.236 59 77 59 C77 59.66 77 60.32 77 61 C75.391 62.402 75.391 62.402 73.25 63.938 C72.554 64.442 71.858 64.946 71.141 65.465 C70.434 65.971 69.728 66.478 69 67 C68.294 67.558 67.587 68.116 66.859 68.691 C65 70 65 70 63 70 C63 70.66 63 71.32 63 72 C61.595 73.297 61.595 73.297 59.641 74.75 C58.585 75.539 58.585 75.539 57.508 76.344 C56.763 76.89 56.018 77.437 55.25 78 C54.52 78.547 53.791 79.093 53.039 79.656 C46.382 84.595 46.382 84.595 43 86 C40.859 85.32 40.859 85.32 38.75 84.125 C38.044 83.736 37.337 83.346 36.609 82.945 C35.813 82.477 35.813 82.477 35 82 C34.516 78.224 34.302 74.757 35 71 C36.881 68.849 38.704 67.576 41.152 66.121 C43.158 65.129 43.158 65.129 44 63 C43.457 62.83 42.914 62.659 42.355 62.484 C36.671 60.651 31.247 58.465 25.801 56.023 C24.08 55.263 22.359 54.502 20.639 53.742 C17.965 52.555 15.292 51.366 12.621 50.174 C10.017 49.014 7.409 47.862 4.801 46.711 C4.007 46.354 3.213 45.996 2.395 45.628 C-1.744 43.807 -5.455 42.497 -10 42 C-10 41.01 -10 40.02 -10 39 C-10.591 38.843 -11.183 38.686 -11.792 38.524 C-19.656 36.315 -26.786 33.004 -34.141 29.496 C-42.482 25.369 -42.482 25.369 -51.473 26.031 C-52.657 26.516 -53.842 27.001 -55.062 27.5 C-62.352 30.476 -62.352 30.476 -67 29 C-67.66 26.36 -68.32 23.72 -69 21 C-62.994 18.108 -56.877 15.858 -50.562 13.75 C-49.757 13.48 -48.951 13.21 -48.122 12.931 C-42.259 11 -42.259 11 -40 11 C-40 11.66 -40 12.32 -40 13 C-36.535 12.505 -36.535 12.505 -33 12 C-33.99 12.99 -34.98 13.98 -36 15 C-31.83 16.179 -29.299 15.784 -25.25 14.312 C-24.286 13.979 -23.322 13.645 -22.328 13.301 C-19.826 12.228 -19.826 12.228 -19.172 9.855 C-19.087 8.937 -19.087 8.937 -19 8 C-19.66 7.67 -20.32 7.34 -21 7 C-16.946 5.842 -14.782 6.163 -11 8 C-14.01 8.934 -14.867 9.044 -18 8 C-17.846 9.975 -17.846 9.975 -17 12 C-15.023 13.026 -15.023 13.026 -12.557 13.533 C-9.028 14.462 -5.584 15.44 -2.146 16.667 C-1.329 16.958 -0.512 17.249 0.33 17.549 C1.18 17.855 2.03 18.161 2.906 18.477 C4.279 18.967 4.279 18.967 5.679 19.467 C7.622 20.161 9.563 20.856 11.505 21.552 C16.549 23.359 21.597 25.158 26.645 26.957 C28.127 27.486 28.127 27.486 29.639 28.025 C37.478 30.819 45.325 33.586 53.188 36.312 C54.168 36.654 55.149 36.996 56.16 37.348 C58.768 38.249 61.382 39.128 64 40 C64.91 40.315 65.82 40.631 66.758 40.956 C67.646 41.249 68.534 41.542 69.449 41.844 C70.238 42.11 71.026 42.376 71.839 42.65 C74.478 43.077 75.426 42.65 77.625 41.188 C78.801 40.105 78.801 40.105 80 39 C80.66 39.33 81.32 39.66 82 40 C74.729 45.982 66.96 51.006 59 56 C58.67 55.34 58.34 54.68 58 54 C56.821 53.762 55.641 53.523 54.426 53.277 C47.753 51.919 41.631 49.135 35.389 46.494 C31.618 44.899 27.838 43.327 24.059 41.754 C23.296 41.436 22.534 41.118 21.749 40.79 C14.456 37.755 7.112 34.863 -0.25 32 C-8.216 28.9 -16.11 25.716 -23.938 22.281 C-29.534 19.94 -35.264 17.97 -41 16 C-41.33 16.33 -41.66 16.66 -42 17 C-35.07 19.97 -28.14 22.94 -21 26 C-24.545 27.182 -25.14 26.791 -28.449 25.348 C-29.297 24.983 -30.144 24.619 -31.018 24.244 C-31.899 23.854 -32.78 23.464 -33.688 23.062 C-35.027 22.483 -35.027 22.483 -36.393 21.893 C-38.599 20.937 -40.801 19.972 -43 19 C-43 20.32 -43 21.64 -43 23 C-42.482 23.216 -41.964 23.432 -41.43 23.655 C-23.298 31.231 -23.298 31.231 -15.031 35.09 C-12.871 36.098 -12.871 36.098 -10 37 C-10 35.68 -10 34.36 -10 33 C-11.98 32.01 -13.96 31.02 -16 30 C-15.34 29.67 -14.68 29.34 -14 29 C-11.252 29.983 -8.608 31.035 -5.93 32.184 C-4.735 32.685 -4.735 32.685 -3.517 33.197 C-0.966 34.27 1.579 35.353 4.125 36.438 C5.85 37.165 7.575 37.893 9.301 38.619 C13.537 40.405 17.77 42.2 22 44 C18.173 45.276 17.11 44.476 13.457 42.91 C12.384 42.456 11.311 42.001 10.205 41.533 C9.086 41.048 7.966 40.563 6.812 40.062 C5.681 39.581 4.55 39.1 3.385 38.604 C0.586 37.411 -2.208 36.209 -5 35 C-4.748 37.446 -4.748 37.446 -4 40 C-1.498 41.437 0.709 42.479 3.375 43.5 C4.857 44.106 6.339 44.713 7.82 45.32 C8.906 45.754 8.906 45.754 10.013 46.196 C12.459 47.186 14.856 48.266 17.25 49.375 C22.66 51.848 28.078 54.302 33.5 56.75 C34.829 57.352 34.829 57.352 36.185 57.966 C37.021 58.344 37.857 58.721 38.719 59.109 C39.847 59.619 39.847 59.619 40.998 60.14 C43.14 61.093 43.14 61.093 46 62 C46.66 60.68 47.32 59.36 48 58 C47.325 57.662 46.649 57.325 45.953 56.977 C41.969 54.984 37.984 52.992 34 51 C36 50 36 50 37.971 50.621 C39.149 51.131 39.149 51.131 40.352 51.652 C41.628 52.199 41.628 52.199 42.93 52.756 C43.819 53.146 44.709 53.536 45.625 53.938 C46.522 54.324 47.419 54.71 48.344 55.107 C50.566 56.065 52.784 57.029 55 58 C51.645 61.508 48.226 64.409 44.25 67.188 C40.533 69.574 40.533 69.574 38 73 C42.979 73.754 42.979 73.754 48 74 C47.34 74.66 46.68 75.32 46 76 C45.833 79.083 45.833 79.083 46 82 C46.99 81.67 47.98 81.34 49 81 C49 80.34 49 79.68 49 79 C50.461 77.711 50.461 77.711 52.375 76.375 C53.001 75.929 53.628 75.483 54.273 75.023 C56 74 56 74 58 74 C58 73.34 58 72.68 58 72 C61.462 69 61.462 69 64 69 C64 68.34 64 67.68 64 67 C65.609 65.598 65.609 65.598 67.75 64.062 C68.446 63.558 69.142 63.054 69.859 62.535 C70.566 62.029 71.272 61.522 72 61 C72.706 60.442 73.413 59.884 74.141 59.309 C76 58 76 58 78 58 C78 57.34 78 56.68 78 56 C79.461 54.711 79.461 54.711 81.375 53.375 C82.001 52.929 82.628 52.483 83.273 52.023 C85 51 85 51 87 51 C87 50.34 87 49.68 87 49 C88.926 47.369 90.843 45.863 92.875 44.375 C93.431 43.955 93.986 43.535 94.559 43.102 C98.738 40 98.738 40 101 40 C101 39.34 101 38.68 101 38 C101.66 38 102.32 38 103 38 C103 36.35 103 34.7 103 33 C101.68 33.99 100.36 34.98 99 36 C98.34 35.67 97.68 35.34 97 35 C99.475 33.02 99.475 33.02 102 31 C99.779 30.126 99.779 30.126 97 30 C94.11 31.66 94.11 31.66 91.375 34 C88.523 36.312 88.523 36.312 86 38 C83.317 37.106 80.639 36.197 77.961 35.285 C64.307 30.666 50.604 26.31 36.798 22.171 C27.382 19.348 18.017 16.42 8.711 13.25 C3.175 11.385 -2.406 9.68 -8 8 C-8 7.34 -8 6.68 -8 6 C-5.69 6 -3.38 6 -1 6 C-1 4.68 -1 3.36 -1 2 C-1.615 2.168 -2.23 2.335 -2.863 2.508 C-4.076 2.813 -4.076 2.813 -5.312 3.125 C-6.513 3.438 -6.513 3.438 -7.738 3.758 C-10 4 -10 4 -13 2 C-8.222 -0.914 -5.449 -1.199 0 0 Z " fill="#000000" transform="translate(300,49)"/>
<path d="M0 0 C9.94 3.499 19.712 8.079 24.426 17.883 C32.02 37.038 25.666 59.91 17.867 78.074 C15.324 83.363 12.694 88.67 9.25 93.438 C8.59 93.438 7.93 93.438 7.25 93.438 C6.982 94.077 6.714 94.716 6.438 95.375 C5.25 97.438 5.25 97.438 2.25 98.438 C2.25 99.097 2.25 99.757 2.25 100.438 C-5.987 105.166 -13.437 106.26 -22.75 104.438 C-22.75 104.108 -22.75 103.778 -22.75 103.438 C-19.78 103.438 -16.81 103.438 -13.75 103.438 C-12.76 98.817 -11.77 94.197 -10.75 89.438 C-10.42 89.438 -10.09 89.438 -9.75 89.438 C-10.27 93.817 -10.807 98.126 -11.75 102.438 C-1.143 99.696 4.014 94.659 9.621 85.352 C14.616 76.415 17.763 67.361 20.25 57.438 C20.478 56.569 20.706 55.7 20.941 54.805 C22.319 48.659 22.483 42.523 22.562 36.25 C22.58 35.406 22.598 34.562 22.616 33.693 C22.607 25.583 20.355 18.819 15.25 12.438 C14.26 12.438 13.27 12.438 12.25 12.438 C11.26 16.398 10.27 20.358 9.25 24.438 C8.92 24.438 8.59 24.438 8.25 24.438 C8.865 19.429 9.522 14.431 10.25 9.438 C0.25 2.993 -11.024 1.203 -22.75 1.438 C-23.08 3.418 -23.41 5.398 -23.75 7.438 C-22.76 6.778 -21.77 6.117 -20.75 5.438 C-17.062 5.812 -17.062 5.812 -13.75 6.438 C-14.74 6.767 -15.73 7.097 -16.75 7.438 C-18.091 8.088 -19.423 8.758 -20.75 9.438 C-21.676 9.889 -22.601 10.34 -23.555 10.805 C-28.855 13.408 -33.958 15.977 -38.75 19.438 C-37.76 20.097 -36.77 20.758 -35.75 21.438 C-37.4 21.438 -39.05 21.438 -40.75 21.438 C-40.689 21.987 -40.629 22.536 -40.566 23.102 C-40.291 25.61 -40.021 28.117 -39.75 30.625 C-39.655 31.489 -39.559 32.354 -39.461 33.244 C-39.023 37.325 -38.614 41.325 -38.75 45.438 C-35.755 45.119 -34.203 44.946 -32.16 42.652 C-31.715 41.901 -31.271 41.149 -30.812 40.375 C-28.379 36.428 -25.777 32.74 -22.949 29.066 C-21.68 27.439 -21.68 27.439 -20.75 25.438 C-21.74 25.108 -22.73 24.778 -23.75 24.438 C-22.946 24.541 -22.141 24.644 -21.312 24.75 C-16.354 24.315 -12.918 22.031 -8.75 19.438 C-8.255 20.428 -8.255 20.428 -7.75 21.438 C-7.09 21.438 -6.43 21.438 -5.75 21.438 C-7.193 25.767 -10.458 26.682 -14.312 28.625 C-15.023 28.993 -15.734 29.361 -16.467 29.74 C-18.223 30.648 -19.986 31.544 -21.75 32.438 C-20.76 32.933 -20.76 32.933 -19.75 33.438 C-17.507 32.436 -17.507 32.436 -15.031 30.91 C-14.099 30.366 -13.167 29.821 -12.207 29.26 C-11.231 28.679 -10.255 28.098 -9.25 27.5 C-7.325 26.362 -5.398 25.228 -3.469 24.098 C-2.612 23.589 -1.756 23.079 -0.873 22.555 C1.25 21.438 1.25 21.438 3.25 21.438 C2.142 24.36 1.504 25.301 -1.312 26.812 C-2.117 27.349 -2.921 27.885 -3.75 28.438 C-3.894 29.407 -4.039 30.376 -4.188 31.375 C-4.373 32.386 -4.559 33.396 -4.75 34.438 C-5.703 35.011 -6.655 35.585 -7.637 36.176 C-11.57 39.033 -12.003 41.027 -13.125 45.688 C-13.601 47.582 -13.601 47.582 -14.086 49.516 C-14.415 50.962 -14.415 50.962 -14.75 52.438 C-15.849 49.141 -15.621 48.033 -14.812 44.75 C-14.618 43.942 -14.423 43.134 -14.223 42.301 C-13.989 41.378 -13.989 41.378 -13.75 40.438 C-16.77 41.142 -16.77 41.142 -19.75 43.438 C-21.371 47.035 -22.158 50.781 -23 54.625 C-23.242 55.641 -23.485 56.658 -23.734 57.705 C-24.206 59.691 -24.668 61.679 -25.119 63.669 C-25.941 67.274 -26.84 70.855 -27.75 74.438 C-25.73 73.836 -23.729 73.164 -21.75 72.438 C-21.42 71.778 -21.09 71.118 -20.75 70.438 C-20.75 71.097 -20.75 71.757 -20.75 72.438 C-19.1 73.097 -17.45 73.757 -15.75 74.438 C-15.75 75.757 -15.75 77.078 -15.75 78.438 C-17.73 79.427 -17.73 79.427 -19.75 80.438 C-19.42 82.088 -19.09 83.737 -18.75 85.438 C-21.473 86.927 -24.205 88.402 -26.938 89.875 C-27.706 90.296 -28.475 90.717 -29.268 91.15 C-33.065 93.188 -36.396 94.958 -40.75 95.438 C-41.245 94.447 -41.245 94.447 -41.75 93.438 C-38.796 91.764 -35.836 90.1 -32.875 88.438 C-32.033 87.961 -31.191 87.484 -30.324 86.992 C-29.519 86.541 -28.713 86.09 -27.883 85.625 C-27.139 85.206 -26.396 84.787 -25.629 84.355 C-23.75 83.438 -23.75 83.438 -21.75 83.438 C-21.75 82.778 -21.75 82.118 -21.75 81.438 C-22.493 81.974 -23.235 82.51 -24 83.062 C-25.361 83.743 -25.361 83.743 -26.75 84.438 C-29.062 83.625 -29.062 83.625 -30.75 82.438 C-28.565 80.032 -26.491 78.642 -23.562 77.25 C-22.847 76.906 -22.132 76.562 -21.395 76.207 C-20.852 75.953 -20.309 75.699 -19.75 75.438 C-20.74 75.108 -21.73 74.778 -22.75 74.438 C-25.199 75.695 -27.483 76.987 -29.812 78.438 C-32.101 79.853 -34.374 81.165 -36.75 82.438 C-37.41 82.108 -38.07 81.778 -38.75 81.438 C-37.1 80.448 -35.45 79.457 -33.75 78.438 C-38.905 78.921 -42.566 81.624 -46.75 84.438 C-46.255 85.427 -46.255 85.427 -45.75 86.438 C-46.534 86.52 -47.317 86.603 -48.125 86.688 C-50.897 87.166 -50.897 87.166 -52.062 89.5 C-52.289 90.139 -52.516 90.779 -52.75 91.438 C-53.41 91.438 -54.07 91.438 -54.75 91.438 C-55.018 91.994 -55.286 92.551 -55.562 93.125 C-58.063 97.994 -60.266 101.165 -64.75 104.438 C-61.78 105.097 -58.81 105.757 -55.75 106.438 C-55.936 105.654 -56.121 104.87 -56.312 104.062 C-56.75 101.438 -56.75 101.438 -55.75 99.438 C-52.875 99.688 -52.875 99.688 -49.75 100.438 C-48.25 102.25 -48.25 102.25 -47.75 104.438 C-48.625 106.688 -48.625 106.688 -49.75 108.438 C-48.43 109.097 -47.11 109.757 -45.75 110.438 C-45.75 110.767 -45.75 111.097 -45.75 111.438 C-49.215 110.942 -49.215 110.942 -52.75 110.438 C-53.08 109.447 -53.41 108.457 -53.75 107.438 C-54.303 107.795 -54.856 108.152 -55.426 108.52 C-58.47 109.722 -59.872 109.153 -62.938 108.125 C-64.258 107.698 -64.258 107.698 -65.605 107.262 C-67.75 106.438 -67.75 106.438 -68.75 105.438 C-69.25 102.75 -69.25 102.75 -68.75 99.438 C-67.095 97.713 -65.317 96.331 -63.418 94.883 C-61.521 93.464 -61.521 93.464 -60.688 90.75 C-59.75 88.438 -59.75 88.438 -56.75 86.625 C-53.75 85.438 -53.75 85.438 -51.75 85.438 C-51.75 84.778 -51.75 84.118 -51.75 83.438 C-49.77 82.942 -49.77 82.942 -47.75 82.438 C-47.519 81.48 -47.289 80.522 -47.051 79.535 C-45.026 71.235 -42.815 63.022 -40.325 54.848 C-39.16 51.208 -39.16 51.208 -38.75 47.438 C-39.41 47.108 -40.07 46.778 -40.75 46.438 C-40.75 44.787 -40.75 43.138 -40.75 41.438 C-42.07 41.108 -43.39 40.778 -44.75 40.438 C-44.75 38.787 -44.75 37.138 -44.75 35.438 C-43.76 34.942 -43.76 34.942 -42.75 34.438 C-42.098 32.413 -42.098 32.413 -41.75 30.438 C-43.4 30.108 -45.05 29.778 -46.75 29.438 C-46.75 27.787 -46.75 26.138 -46.75 24.438 C-46.09 24.108 -45.43 23.778 -44.75 23.438 C-44.687 22.681 -44.624 21.924 -44.559 21.145 C-43.533 17.71 -41.836 16.854 -38.783 15.154 C-38.133 14.815 -37.483 14.475 -36.812 14.125 C-36.166 13.766 -35.52 13.407 -34.854 13.037 C-30.085 10.438 -30.085 10.438 -27.75 10.438 C-27.557 9.655 -27.363 8.873 -27.164 8.066 C-26.904 7.054 -26.643 6.043 -26.375 5 C-25.992 3.486 -25.992 3.486 -25.602 1.941 C-23.14 -5.295 -5.764 -1.635 0 0 Z " fill="#080808" transform="translate(125.75,39.5625)"/>
<path d="M0 0 C3.8 1.995 5.771 3.627 7.75 7.438 C8.157 8.199 8.565 8.961 8.984 9.746 C15.532 24.277 10.537 45.269 5.422 59.582 C0.528 72.428 -5.753 85.842 -18.812 92 C-22 93 -22 93 -25 92 C-22.811 83.023 -20.5 74.095 -17.995 65.201 C-16.271 59.05 -14.658 52.873 -13.062 46.688 C-10.436 36.526 -7.606 26.433 -4.682 16.354 C-3.653 12.801 -2.639 9.244 -1.625 5.688 C-1.083 3.792 -0.542 1.896 0 0 Z " fill="#FFFFFF" transform="translate(138,50)"/>
<path d="M0 0 C0.33 0 0.66 0 1 0 C1 54.78 1 109.56 1 166 C70.63 166 140.26 166 212 166 C212 166.66 212 167.32 212 168 C142.37 168 72.74 168 1 168 C1 222.78 1 277.56 1 334 C70.63 334 140.26 334 212 334 C212 334.33 212 334.66 212 335 C142.37 335 72.74 335 1 335 C1 389.78 1 444.56 1 501 C0.67 501 0.34 501 0 501 C0 446.22 0 391.44 0 335 C-69.96 335 -139.92 335 -212 335 C-212 334.67 -212 334.34 -212 334 C-142.04 334 -72.08 334 0 334 C0 279.22 0 224.44 0 168 C-3.63 168 -7.26 168 -11 168 C-11 167.34 -11 166.68 -11 166 C-7.37 166 -3.74 166 0 166 C0 111.22 0 56.44 0 0 Z " fill="#000000" transform="translate(215,4)"/>
<path d="M0 0 C0.33 0.33 0.66 0.66 1 1 C3.007 0.713 5.009 0.381 7 0 C7 1.32 7 2.64 7 4 C2.25 5.125 2.25 5.125 0 4 C0 4.66 0 5.32 0 6 C0.55 6.115 1.099 6.231 1.666 6.35 C7.064 7.512 12.343 8.893 17.625 10.5 C18.889 10.881 18.889 10.881 20.179 11.271 C28.7 13.865 37.167 16.629 45.637 19.384 C61.353 24.492 77.169 29.263 93 34 C92.01 34.495 92.01 34.495 91 35 C91 35.66 91 36.32 91 37 C89.73 37.648 88.459 38.294 87.188 38.938 C86.48 39.297 85.772 39.657 85.043 40.027 C80.579 42.153 80.579 42.153 77.549 41.354 C76.577 40.994 75.604 40.633 74.602 40.262 C72.945 39.657 72.945 39.657 71.254 39.041 C70.057 38.594 68.859 38.148 67.625 37.688 C65.074 36.753 62.521 35.824 59.969 34.895 C59.312 34.654 58.655 34.414 57.978 34.167 C51.059 31.641 44.095 29.256 37.125 26.875 C28.33 23.858 19.552 20.8 10.812 17.625 C9.532 17.161 9.532 17.161 8.225 16.687 C6.619 16.1 5.016 15.506 3.417 14.903 C1.687 14.257 -0.052 13.634 -1.795 13.026 C-2.705 12.695 -3.614 12.364 -4.551 12.023 C-5.379 11.731 -6.207 11.439 -7.06 11.138 C-9 10 -9 10 -9.778 7.874 C-9.851 7.255 -9.925 6.637 -10 6 C-8.68 6 -7.36 6 -6 6 C-7.32 5.67 -8.64 5.34 -10 5 C-10.103 5.907 -10.206 6.815 -10.312 7.75 C-12.664 12.279 -15.508 12.81 -20.176 14.434 C-23.232 15.046 -25.04 14.917 -28 14 C-28.99 13.34 -29.98 12.68 -31 12 C-29.02 11.67 -27.04 11.34 -25 11 C-25.33 10.34 -25.66 9.68 -26 9 C-26.99 8.67 -27.98 8.34 -29 8 C-7.707 -0.856 -7.707 -0.856 0 0 Z " fill="#AEAEAE" transform="translate(292,51)"/>
<path d="M0 0 C2.062 0.438 2.062 0.438 4 1 C2.593 3.815 0.744 4.275 -2.062 5.625 C-2.982 6.071 -3.901 6.517 -4.848 6.977 C-5.558 7.314 -6.268 7.652 -7 8 C-6.01 8.66 -5.02 9.32 -4 10 C-1.329 9.198 -1.329 9.198 1 8 C1 8.66 1 9.32 1 10 C-0.744 11.237 -0.744 11.237 -3.156 12.602 C-4.013 13.091 -4.871 13.581 -5.754 14.086 C-6.66 14.594 -7.566 15.102 -8.5 15.625 C-9.406 16.141 -10.312 16.656 -11.246 17.188 C-13.494 18.465 -15.745 19.736 -18 21 C-14.571 20.437 -11.918 19.611 -8.898 17.898 C-8.161 17.491 -7.424 17.084 -6.664 16.664 C-5.129 15.799 -3.595 14.932 -2.062 14.062 C-0.96 13.455 -0.96 13.455 0.164 12.836 C0.829 12.46 1.493 12.084 2.178 11.697 C4 11 4 11 7 12 C6.67 13.65 6.34 15.3 6 17 C5.34 17 4.68 17 4 17 C4.13 17.603 4.26 18.207 4.395 18.828 C4.82 21.292 5.121 23.5 5 26 C2.562 28.5 2.562 28.5 0 30 C0 30.33 0 30.66 0 31 C-0.818 31.22 -0.818 31.22 -1.652 31.445 C-7.19 33.092 -11.298 35.343 -15.859 38.891 C-18 40 -18 40 -20.703 39.797 C-23 39 -23 39 -24 37 C-26.017 35.866 -26.017 35.866 -28 35 C-27.34 33.35 -26.68 31.7 -26 30 C-28.174 27.5 -29.73 26.564 -33 26 C-33 28.31 -33 30.62 -33 33 C-36.3 32.67 -39.6 32.34 -43 32 C-41.719 30.293 -40.382 28.626 -39 27 C-38.34 27 -37.68 27 -37 27 C-36.598 25.886 -36.598 25.886 -36.188 24.75 C-35.047 22.109 -33.906 20.144 -32 18 C-31.34 18 -30.68 18 -30 18 C-29.876 17.072 -29.876 17.072 -29.75 16.125 C-29 14 -29 14 -26.938 12.75 C-26.298 12.502 -25.659 12.255 -25 12 C-25 11.34 -25 10.68 -25 10 C-23.278 8.987 -21.547 7.99 -19.812 7 C-18.368 6.165 -18.368 6.165 -16.895 5.312 C-13.951 3.978 -12.181 3.721 -9 4 C-10.32 4.99 -11.64 5.98 -13 7 C-11.02 6.023 -9.041 5.044 -7.062 4.062 C-5.96 3.517 -4.858 2.972 -3.723 2.41 C-1.152 1.253 -1.152 1.253 0 0 Z " fill="#4C4C4C" transform="translate(103,113)"/>
<path d="M0 0 C1.268 0.402 1.268 0.402 2.562 0.812 C1.243 2.463 -0.077 4.112 -1.438 5.812 C0.212 4.823 1.863 3.832 3.562 2.812 C3.233 4.793 2.903 6.772 2.562 8.812 C1.903 8.812 1.243 8.812 0.562 8.812 C0.562 9.472 0.562 10.132 0.562 10.812 C-1.153 12.236 -2.936 13.579 -4.75 14.875 C-5.736 15.588 -6.722 16.301 -7.738 17.035 C-10.438 18.812 -10.438 18.812 -13.438 19.812 C-13.438 20.472 -13.438 21.132 -13.438 21.812 C-14.898 23.102 -14.898 23.102 -16.812 24.438 C-17.439 24.884 -18.065 25.33 -18.711 25.789 C-20.438 26.812 -20.438 26.812 -22.438 26.812 C-22.438 27.472 -22.438 28.132 -22.438 28.812 C-24.047 30.215 -24.047 30.215 -26.188 31.75 C-26.884 32.254 -27.58 32.758 -28.297 33.277 C-29.003 33.784 -29.71 34.291 -30.438 34.812 C-31.144 35.371 -31.85 35.929 -32.578 36.504 C-34.438 37.812 -34.438 37.812 -36.438 37.812 C-36.438 38.472 -36.438 39.132 -36.438 39.812 C-39.899 42.812 -39.899 42.812 -42.438 42.812 C-42.438 43.472 -42.438 44.132 -42.438 44.812 C-43.898 46.102 -43.898 46.102 -45.812 47.438 C-46.439 47.884 -47.065 48.33 -47.711 48.789 C-49.438 49.812 -49.438 49.812 -51.438 49.812 C-51.438 50.472 -51.438 51.132 -51.438 51.812 C-52.757 52.472 -54.077 53.132 -55.438 53.812 C-55.438 51.146 -55.438 48.479 -55.438 45.812 C-57.748 45.153 -60.058 44.493 -62.438 43.812 C-60.904 39.388 -57.416 37.276 -53.75 34.688 C-53.085 34.209 -52.42 33.73 -51.735 33.237 C-46.503 29.498 -41.169 25.916 -35.798 22.381 C-31.07 19.265 -26.487 15.982 -21.93 12.621 C-18.846 10.384 -15.691 8.276 -12.496 6.203 C-10.425 4.844 -10.425 4.844 -8.535 3.297 C-5.451 0.84 -4.022 -0.219 0 0 Z " fill="#D7D7D7" transform="translate(400.4375,78.1875)"/>
<path d="M0 0 C1.996 0.016 1.996 0.016 4.438 0.25 C5.642 0.351 5.642 0.351 6.871 0.453 C9 1 9 1 11 4 C11.639 3.773 12.279 3.546 12.938 3.312 C17.375 2.86 20.895 4.417 25 6 C24.023 7.693 23.047 9.385 22.07 11.078 C20.968 12.966 20.968 12.966 20.212 14.943 C18.68 17.544 17.167 18.379 14.535 19.832 C13.653 20.32 12.77 20.808 11.861 21.311 C10.938 21.806 10.014 22.302 9.062 22.812 C8.143 23.327 7.223 23.842 6.275 24.373 C1.153 27.164 1.153 27.164 -1 28 C-1.99 27.67 -2.98 27.34 -4 27 C-0.529 22.918 4.483 21.023 9.164 18.621 C12.08 17.302 12.08 17.302 13 15 C12.041 15.278 12.041 15.278 11.062 15.562 C10.382 15.707 9.701 15.851 9 16 C8.67 15.67 8.34 15.34 8 15 C6.36 15.99 6.36 15.99 4.688 17 C2.063 18.585 1.174 19 -2 19 C-2.26 19.733 -2.521 20.467 -2.789 21.223 C-4.025 24.057 -5.426 26.05 -7.375 28.438 C-9.507 31.072 -11.43 33.63 -13.125 36.562 C-14.053 37.769 -14.053 37.769 -15 39 C-16.65 39 -18.3 39 -20 39 C-20.99 30.75 -21.98 22.5 -23 14 C-22.01 14 -21.02 14 -20 14 C-20.33 13.34 -20.66 12.68 -21 12 C-14.429 8.101 -7.859 4.365 -1 1 C-0.67 0.67 -0.34 0.34 0 0 Z " fill="#252525" transform="translate(107,46)"/>
<path d="M0 0 C0 2.31 0 4.62 0 7 C5.252 9.333 10.551 11.305 16 13.125 C17.152 13.521 17.152 13.521 18.328 13.926 C22.898 15.457 27.207 16.477 32 17 C32 17.66 32 18.32 32 19 C32.857 19.129 33.713 19.257 34.595 19.389 C46.698 21.56 58.471 26.043 70.115 29.908 C71.293 30.293 72.47 30.678 73.684 31.074 C74.731 31.421 75.778 31.767 76.857 32.124 C80.255 33.071 83.484 33.695 87 34 C89.63 32.525 89.63 32.525 91.875 30.375 C96.285 26.946 96.285 26.946 99.641 27.199 C101.887 27.98 103.925 28.842 106 30 C105.725 37.173 105.725 37.173 102.516 40.836 C101.445 41.705 100.355 42.551 99.25 43.375 C98.676 43.83 98.102 44.285 97.51 44.753 C96.304 45.704 95.089 46.645 93.867 47.576 C91.997 49.002 90.155 50.459 88.316 51.926 C87.15 52.848 85.982 53.768 84.812 54.688 C84.26 55.122 83.708 55.556 83.14 56.003 C79.236 59 79.236 59 77 59 C77 59.66 77 60.32 77 61 C75.391 62.402 75.391 62.402 73.25 63.938 C72.554 64.442 71.858 64.946 71.141 65.465 C70.434 65.971 69.728 66.478 69 67 C67.94 67.837 67.94 67.837 66.859 68.691 C65 70 65 70 63 70 C63 70.66 63 71.32 63 72 C61.595 73.297 61.595 73.297 59.641 74.75 C58.585 75.539 58.585 75.539 57.508 76.344 C56.763 76.89 56.018 77.437 55.25 78 C54.52 78.547 53.791 79.093 53.039 79.656 C46.382 84.595 46.382 84.595 43 86 C40.859 85.32 40.859 85.32 38.75 84.125 C38.044 83.736 37.337 83.346 36.609 82.945 C35.813 82.477 35.813 82.477 35 82 C34.516 78.224 34.302 74.757 35 71 C36.881 68.849 38.704 67.576 41.152 66.121 C43.158 65.129 43.158 65.129 44 63 C43.457 62.83 42.914 62.659 42.355 62.484 C36.671 60.651 31.247 58.465 25.801 56.023 C24.08 55.263 22.359 54.502 20.639 53.742 C17.965 52.555 15.292 51.366 12.621 50.174 C10.017 49.014 7.409 47.862 4.801 46.711 C4.007 46.354 3.213 45.996 2.395 45.628 C-1.744 43.807 -5.455 42.497 -10 42 C-10 41.01 -10 40.02 -10 39 C-10.587 38.844 -11.174 38.687 -11.779 38.526 C-18.718 36.574 -25.105 33.864 -31.625 30.812 C-32.629 30.349 -33.633 29.886 -34.668 29.408 C-37.115 28.278 -39.559 27.142 -42 26 C-42 25.34 -42 24.68 -42 24 C-36.947 25.31 -32.384 27.083 -27.688 29.375 C-21.875 32.154 -16.028 34.716 -10 37 C-10 35.68 -10 34.36 -10 33 C-11.98 32.01 -13.96 31.02 -16 30 C-15.34 29.67 -14.68 29.34 -14 29 C-11.252 29.983 -8.608 31.035 -5.93 32.184 C-4.735 32.685 -4.735 32.685 -3.517 33.197 C-0.966 34.27 1.579 35.353 4.125 36.438 C5.85 37.165 7.575 37.893 9.301 38.619 C13.537 40.405 17.77 42.2 22 44 C18.173 45.276 17.11 44.476 13.457 42.91 C12.384 42.456 11.311 42.001 10.205 41.533 C9.086 41.048 7.966 40.563 6.812 40.062 C5.681 39.581 4.55 39.1 3.385 38.604 C0.586 37.411 -2.208 36.209 -5 35 C-4.748 37.446 -4.748 37.446 -4 40 C-1.498 41.437 0.709 42.479 3.375 43.5 C4.857 44.106 6.339 44.713 7.82 45.32 C8.544 45.609 9.267 45.898 10.013 46.196 C12.459 47.186 14.856 48.266 17.25 49.375 C22.66 51.848 28.078 54.302 33.5 56.75 C34.829 57.352 34.829 57.352 36.185 57.966 C37.021 58.344 37.857 58.721 38.719 59.109 C39.847 59.619 39.847 59.619 40.998 60.14 C43.14 61.093 43.14 61.093 46 62 C46.66 60.68 47.32 59.36 48 58 C47.325 57.662 46.649 57.325 45.953 56.977 C41.969 54.984 37.984 52.992 34 51 C36 50 36 50 37.971 50.621 C39.149 51.131 39.149 51.131 40.352 51.652 C41.628 52.199 41.628 52.199 42.93 52.756 C43.819 53.146 44.709 53.536 45.625 53.938 C46.522 54.324 47.419 54.71 48.344 55.107 C50.566 56.065 52.784 57.029 55 58 C51.645 61.508 48.226 64.409 44.25 67.188 C40.533 69.574 40.533 69.574 38 73 C42.979 73.754 42.979 73.754 48 74 C47.34 74.66 46.68 75.32 46 76 C45.833 79.083 45.833 79.083 46 82 C46.99 81.67 47.98 81.34 49 81 C49 80.34 49 79.68 49 79 C50.461 77.711 50.461 77.711 52.375 76.375 C53.001 75.929 53.628 75.483 54.273 75.023 C56 74 56 74 58 74 C58 73.34 58 72.68 58 72 C61.462 69 61.462 69 64 69 C64 68.34 64 67.68 64 67 C65.609 65.598 65.609 65.598 67.75 64.062 C68.446 63.558 69.142 63.054 69.859 62.535 C70.566 62.029 71.272 61.522 72 61 C72.706 60.442 73.413 59.884 74.141 59.309 C76 58 76 58 78 58 C78 57.34 78 56.68 78 56 C79.461 54.711 79.461 54.711 81.375 53.375 C82.001 52.929 82.628 52.483 83.273 52.023 C85 51 85 51 87 51 C87 50.34 87 49.68 87 49 C88.926 47.369 90.843 45.863 92.875 44.375 C93.431 43.955 93.986 43.535 94.559 43.102 C98.738 40 98.738 40 101 40 C101 39.34 101 38.68 101 38 C101.66 38 102.32 38 103 38 C103 36.35 103 34.7 103 33 C101.68 33.99 100.36 34.98 99 36 C98.34 35.67 97.68 35.34 97 35 C99.475 33.02 99.475 33.02 102 31 C99.779 30.126 99.779 30.126 97 30 C94.11 31.66 94.11 31.66 91.375 34 C88.523 36.312 88.523 36.312 86 38 C83.317 37.106 80.639 36.197 77.961 35.285 C64.307 30.666 50.604 26.31 36.798 22.171 C27.382 19.348 18.017 16.42 8.711 13.25 C3.175 11.385 -2.406 9.68 -8 8 C-8 7.34 -8 6.68 -8 6 C-5.69 6 -3.38 6 -1 6 C-1 4.68 -1 3.36 -1 2 C-1.615 2.168 -2.23 2.335 -2.863 2.508 C-4.076 2.813 -4.076 2.813 -5.312 3.125 C-6.513 3.438 -6.513 3.438 -7.738 3.758 C-10 4 -10 4 -13 2 C-8.222 -0.914 -5.449 -1.199 0 0 Z " fill="#010101" transform="translate(300,49)"/>
<path d="M0 0 C1.621 0.887 1.621 0.887 3.809 3.387 C4.811 7.299 4.451 10.277 2.434 13.762 C-0.33 15.473 -1.961 15.741 -5.129 16.199 C-8.728 16.827 -10.766 17.303 -13.004 20.262 C-15.562 24.544 -17.307 29.26 -19.078 33.91 C-20.191 36.387 -20.191 36.387 -22.191 37.387 C-26.397 46.289 -28.064 56.031 -25.25 65.582 C-24.536 67.487 -23.78 69.377 -22.969 71.242 C-22.712 71.95 -22.456 72.658 -22.191 73.387 C-22.521 74.047 -22.851 74.707 -23.191 75.387 C-29.703 65.619 -29.422 53.633 -27.191 42.449 C-26.873 41.091 -26.547 39.735 -26.191 38.387 C-27.676 38.882 -27.676 38.882 -29.191 39.387 C-27.534 32.688 -25.529 27.78 -21.191 22.387 C-22.841 22.057 -24.491 21.727 -26.191 21.387 C-26.274 22.109 -26.356 22.83 -26.441 23.574 C-27.339 26.94 -28.903 28.803 -31.191 31.387 C-34.191 30.387 -34.191 30.387 -36.191 29.387 C-36.439 30.15 -36.686 30.913 -36.941 31.699 C-37.606 33.66 -38.286 35.617 -39.074 37.531 C-41.558 43.741 -43.074 49.972 -44.379 56.512 C-44.629 57.764 -44.629 57.764 -44.884 59.042 C-46.599 67.987 -47.347 76.858 -47.754 85.949 C-47.797 86.863 -47.84 87.776 -47.885 88.717 C-47.99 90.94 -48.092 93.163 -48.191 95.387 C-48.521 95.387 -48.851 95.387 -49.191 95.387 C-50.075 72.346 -47.496 48.78 -37.34 27.789 C-36.146 25.366 -36.146 25.366 -35.137 22.699 C-34.191 20.387 -34.191 20.387 -32.691 18.449 C-30.994 16.354 -30.994 16.354 -30.254 13.262 C-29.191 10.387 -29.191 10.387 -27.316 8.949 C-24.876 8.303 -23.545 8.546 -21.191 9.387 C-21.191 11.037 -21.191 12.687 -21.191 14.387 C-21.604 13.871 -22.016 13.355 -22.441 12.824 C-23.019 12.35 -23.596 11.875 -24.191 11.387 C-26.354 11.614 -26.354 11.614 -28.191 12.387 C-28.336 13.17 -28.48 13.954 -28.629 14.762 C-29.191 17.387 -29.191 17.387 -30.191 19.387 C-27.881 19.717 -25.571 20.047 -23.191 20.387 C-23.042 18.312 -23.042 18.312 -24.191 16.387 C-22.541 16.717 -20.891 17.047 -19.191 17.387 C-18.531 14.747 -17.871 12.107 -17.191 9.387 C-17.851 9.387 -18.511 9.387 -19.191 9.387 C-19.521 10.377 -19.851 11.367 -20.191 12.387 C-20.273 10.95 -20.331 9.512 -20.379 8.074 C-20.431 6.873 -20.431 6.873 -20.484 5.648 C-20.125 2.87 -19.359 2.092 -17.191 0.387 C-12.415 -2.002 -5.052 -1.414 0 0 Z " fill="#2F2F2F" transform="translate(96.19140625,223.61328125)"/>
<path d="M0 0 C15.752 -0.784 29.048 2.313 41.719 12.363 C48.365 19.232 49.627 29.905 49.543 39.012 C48.737 58.149 42.274 79.396 31 95 C30.34 95 29.68 95 29 95 C28.732 95.639 28.464 96.279 28.188 96.938 C27 99 27 99 24 100 C24 100.66 24 101.32 24 102 C15.763 106.729 8.313 107.822 -1 106 C-1 105.67 -1 105.34 -1 105 C1.97 105 4.94 105 8 105 C8.99 100.38 9.98 95.76 11 91 C11.33 91 11.66 91 12 91 C11.48 95.379 10.943 99.688 10 104 C20.607 101.258 25.764 96.222 31.371 86.914 C36.366 77.978 39.513 68.923 42 59 C42.228 58.131 42.456 57.262 42.691 56.367 C44.069 50.222 44.233 44.085 44.312 37.812 C44.339 36.547 44.339 36.547 44.366 35.255 C44.357 27.145 42.105 20.382 37 14 C36.01 14 35.02 14 34 14 C33.01 17.96 32.02 21.92 31 26 C30.67 26 30.34 26 30 26 C30.615 20.991 31.272 15.994 32 11 C21.929 4.509 10.663 3.338 -1 2 C-0.67 1.34 -0.34 0.68 0 0 Z " fill="#1A1A1A" transform="translate(104,38)"/>
<path d="M0 0 C1.077 3.232 0.966 3.904 0.039 7.02 C-0.297 8.183 -0.297 8.183 -0.641 9.369 C-0.883 10.175 -1.125 10.982 -1.375 11.812 C-2.865 16.86 -4.276 21.771 -5 27 C-3.68 27 -2.36 27 -1 27 C-0.853 26.07 -0.853 26.07 -0.703 25.121 C0.279 19.302 1.523 13.586 3 7.875 C3.166 7.212 3.332 6.548 3.503 5.865 C3.938 4.225 4.462 2.609 5 1 C5.66 0.67 6.32 0.34 7 0 C5.267 8.418 3.377 16.739 1 25 C3.02 24.398 5.021 23.727 7 23 C7.33 22.34 7.66 21.68 8 21 C8 21.66 8 22.32 8 23 C10.475 23.99 10.475 23.99 13 25 C13 26.32 13 27.64 13 29 C11.02 29.99 11.02 29.99 9 31 C9.495 33.475 9.495 33.475 10 36 C7.277 37.49 4.545 38.965 1.812 40.438 C1.044 40.858 0.275 41.279 -0.518 41.713 C-4.315 43.75 -7.646 45.52 -12 46 C-12.33 45.34 -12.66 44.68 -13 44 C-10.046 42.326 -7.086 40.662 -4.125 39 C-3.283 38.523 -2.441 38.046 -1.574 37.555 C-0.769 37.104 0.037 36.652 0.867 36.188 C1.611 35.769 2.354 35.35 3.121 34.918 C5 34 5 34 7 34 C7 33.34 7 32.68 7 32 C6.257 32.536 5.515 33.072 4.75 33.625 C3.389 34.306 3.389 34.306 2 35 C-0.312 34.188 -0.312 34.188 -2 33 C0.185 30.594 2.259 29.205 5.188 27.812 C5.903 27.468 6.618 27.124 7.355 26.77 C7.898 26.516 8.441 26.262 9 26 C8.01 25.67 7.02 25.34 6 25 C3.551 26.258 1.267 27.55 -1.062 29 C-3.351 30.416 -5.624 31.728 -8 33 C-8.66 32.67 -9.32 32.34 -10 32 C-7.525 30.515 -7.525 30.515 -5 29 C-10.155 29.483 -13.816 32.186 -18 35 C-17.67 35.66 -17.34 36.32 -17 37 C-17.784 37.083 -18.567 37.165 -19.375 37.25 C-22.147 37.728 -22.147 37.728 -23.312 40.062 C-23.539 40.702 -23.766 41.341 -24 42 C-24.66 42 -25.32 42 -26 42 C-26.268 42.557 -26.536 43.114 -26.812 43.688 C-29.313 48.557 -31.516 51.728 -36 55 C-33.03 55.66 -30.06 56.32 -27 57 C-27.186 56.216 -27.371 55.433 -27.562 54.625 C-28 52 -28 52 -27 50 C-24.125 50.25 -24.125 50.25 -21 51 C-19.5 52.812 -19.5 52.812 -19 55 C-19.875 57.25 -19.875 57.25 -21 59 C-19.68 59.66 -18.36 60.32 -17 61 C-17 61.33 -17 61.66 -17 62 C-20.465 61.505 -20.465 61.505 -24 61 C-24.495 59.515 -24.495 59.515 -25 58 C-25.553 58.357 -26.106 58.714 -26.676 59.082 C-29.72 60.284 -31.122 59.715 -34.188 58.688 C-35.508 58.26 -35.508 58.26 -36.855 57.824 C-39 57 -39 57 -40 56 C-40.5 53.312 -40.5 53.312 -40 50 C-38.345 48.276 -36.567 46.894 -34.668 45.445 C-32.771 44.027 -32.771 44.027 -31.938 41.312 C-31 39 -31 39 -28 37.188 C-25 36 -25 36 -23 36 C-23 35.34 -23 34.68 -23 34 C-22.381 33.959 -21.763 33.917 -21.125 33.875 C-20.073 33.442 -20.073 33.442 -19 33 C-17.695 30.004 -17.695 30.004 -17 27 C-16.67 27.99 -16.34 28.98 -16 30 C-11.902 28.285 -8.747 26.592 -6.81 22.463 C-5.941 19.428 -5.247 16.408 -4.625 13.312 C-4.164 11.224 -3.698 9.137 -3.227 7.051 C-3.037 6.13 -2.847 5.208 -2.651 4.259 C-2 2 -2 2 0 0 Z " fill="#000000" transform="translate(97,89)"/>
<path d="M0 0 C6.174 1.261 12.121 2.886 18.102 4.863 C18.941 5.137 19.781 5.411 20.646 5.693 C23.307 6.562 25.966 7.437 28.625 8.312 C30.384 8.888 32.143 9.463 33.902 10.037 C41.494 12.519 49.078 15.021 56.652 17.555 C65.062 20.365 73.499 23.089 81.938 25.812 C83.507 26.32 85.077 26.827 86.646 27.334 C90.431 28.557 94.215 29.779 98 31 C95.312 33.252 93.354 34.882 90 36 C87.549 35.354 87.549 35.354 84.602 34.262 C82.945 33.657 82.945 33.657 81.254 33.041 C80.057 32.594 78.859 32.148 77.625 31.688 C75.074 30.753 72.521 29.824 69.969 28.895 C69.312 28.654 68.655 28.414 67.978 28.167 C61.059 25.641 54.095 23.256 47.125 20.875 C38.33 17.858 29.552 14.8 20.812 11.625 C19.532 11.161 19.532 11.161 18.225 10.687 C16.619 10.1 15.016 9.506 13.417 8.903 C11.687 8.257 9.948 7.634 8.205 7.026 C7.295 6.695 6.386 6.364 5.449 6.023 C4.621 5.731 3.793 5.439 2.94 5.138 C1 4 1 4 0.379 1.929 C0.254 1.292 0.129 0.656 0 0 Z " fill="#FFFFFF" transform="translate(282,57)"/>
<path d="M0 0 C0.935 0.317 1.87 0.634 2.833 0.96 C5.652 1.941 8.452 2.963 11.25 4 C12.662 4.514 12.662 4.514 14.102 5.039 C19.137 6.887 24.094 8.832 29 11 C25.61 14.814 21.79 18.143 17 20 C13.754 19.801 11.132 18.618 8.195 17.277 C7.39 16.942 6.585 16.607 5.755 16.261 C3.197 15.186 0.662 14.062 -1.875 12.938 C-3.603 12.206 -5.332 11.477 -7.062 10.752 C-19.54 5.46 -19.54 5.46 -22 3 C-20.425 1.894 -18.813 0.842 -17.188 -0.188 C-16.294 -0.779 -15.401 -1.371 -14.48 -1.98 C-9.151 -3.542 -5.13 -1.776 0 0 Z " fill="#FFFFFF" transform="translate(342,83)"/>
<path d="M0 0 C1 3 1 3 0 6 C-0.66 6 -1.32 6 -2 6 C-2 6.66 -2 7.32 -2 8 C-3.715 9.424 -5.499 10.766 -7.312 12.062 C-8.299 12.775 -9.285 13.488 -10.301 14.223 C-13 16 -13 16 -16 17 C-16 17.66 -16 18.32 -16 19 C-17.461 20.289 -17.461 20.289 -19.375 21.625 C-20.001 22.071 -20.628 22.517 -21.273 22.977 C-23 24 -23 24 -25 24 C-25 24.66 -25 25.32 -25 26 C-26.609 27.402 -26.609 27.402 -28.75 28.938 C-29.446 29.442 -30.142 29.946 -30.859 30.465 C-31.566 30.971 -32.272 31.478 -33 32 C-33.706 32.558 -34.413 33.116 -35.141 33.691 C-37 35 -37 35 -39 35 C-39 35.66 -39 36.32 -39 37 C-42.462 40 -42.462 40 -45 40 C-45 40.66 -45 41.32 -45 42 C-46.461 43.289 -46.461 43.289 -48.375 44.625 C-49.001 45.071 -49.628 45.517 -50.273 45.977 C-52 47 -52 47 -54 47 C-54 47.66 -54 48.32 -54 49 C-55.32 49.66 -56.64 50.32 -58 51 C-58.324 47.801 -58.324 47.801 -58 44 C-55.77 41.418 -55.77 41.418 -52.812 39.188 C-51.368 38.064 -51.368 38.064 -49.895 36.918 C-47.291 35.193 -44.94 34.016 -42 33 C-42 32.34 -42 31.68 -42 31 C-40.234 29.59 -40.234 29.59 -37.75 27.938 C-33.803 25.252 -29.938 22.497 -26.125 19.625 C-25.13 18.876 -24.135 18.127 -23.109 17.355 C-20.948 15.718 -18.792 14.076 -16.641 12.426 C-15.821 11.801 -15.821 11.801 -14.984 11.164 C-13.453 9.997 -11.925 8.825 -10.398 7.652 C-8 6 -8 6 -6 6 C-6 5.34 -6 4.68 -6 4 C-4.039 2.611 -2.038 1.274 0 0 Z " fill="#FFFFFF" transform="translate(403,81)"/>
<path d="M0 0 C7.568 2.076 14.719 4.811 21.938 7.875 C22.945 8.297 23.952 8.718 24.99 9.152 C30.912 11.643 36.774 14.244 42.614 16.92 C45.278 18.126 47.965 19.247 50.688 20.312 C51.516 20.639 52.345 20.965 53.199 21.301 C53.793 21.532 54.388 21.762 55 22 C54.34 22.66 53.68 23.32 53 24 C52.303 25.317 51.63 26.649 51 28 C31.838 20.003 31.838 20.003 24.105 16.426 C21.386 15.177 18.658 13.95 15.926 12.73 C15.014 12.323 14.103 11.916 13.164 11.496 C11.323 10.673 9.481 9.853 7.639 9.033 C6.796 8.656 5.954 8.279 5.086 7.891 C4.323 7.551 3.561 7.211 2.775 6.86 C1 6 1 6 0 5 C-0.041 3.334 -0.043 1.666 0 0 Z " fill="#FFFFFF" transform="translate(295,84)"/>
<path d="M0 0 C1 2 1 2 0.812 4.25 C1.218 10.201 5.942 14.048 10 18 C10.66 18.99 11.32 19.98 12 21 C13.268 21.464 13.268 21.464 14.562 21.938 C15.769 22.463 15.769 22.463 17 23 C17.812 25.125 17.812 25.125 18 27 C16.68 26.01 15.36 25.02 14 24 C14.66 24.949 15.32 25.898 16 26.875 C18 30 18 30 18 32 C18.66 32 19.32 32 20 32 C19.67 30.68 19.34 29.36 19 28 C21.232 29.728 22.799 31.082 23.418 33.906 C23.556 35.301 23.678 36.697 23.785 38.094 C24.043 40.378 24.786 42.058 26 44 C24.35 43.01 22.7 42.02 21 41 C20.67 41.99 20.34 42.98 20 44 C13.383 41.308 9.903 38.604 7 32 C6.723 30.918 6.446 29.837 6.16 28.723 C4.582 23.66 1.887 19.67 -0.986 15.254 C-2.062 13.546 -3.039 11.776 -4 10 C-3.67 9.01 -3.34 8.02 -3 7 C-2.023 8.79 -1.047 10.581 -0.07 12.371 C0.914 14.166 0.914 14.166 3 15 C2.34 13.989 1.68 12.979 1 11.938 C-1.148 8.211 -1.432 5.321 -1 1 C-0.67 0.67 -0.34 0.34 0 0 Z " fill="#171717" transform="translate(119,203)"/>
<path d="M0 0 C0 0.99 0 1.98 0 3 C-1.65 3.33 -3.3 3.66 -5 4 C-5 4.66 -5 5.32 -5 6 C-4.271 6.127 -3.542 6.254 -2.79 6.385 C-0.125 6.973 2.141 7.775 4.645 8.848 C5.486 9.205 6.327 9.563 7.193 9.932 C8.058 10.305 8.922 10.678 9.812 11.062 C10.696 11.44 11.58 11.817 12.49 12.205 C14.662 13.132 16.832 14.064 19 15 C15.455 16.182 14.86 15.791 11.551 14.348 C10.703 13.983 9.856 13.619 8.982 13.244 C8.101 12.854 7.22 12.464 6.312 12.062 C4.973 11.483 4.973 11.483 3.607 10.893 C1.401 9.937 -0.801 8.972 -3 8 C-2.67 9.98 -2.34 11.96 -2 14 C-3.887 14.124 -3.887 14.124 -5.812 14.25 C-10.728 14.762 -14.892 16.337 -19.422 18.258 C-22.359 19.103 -24.092 18.826 -27 18 C-27.66 15.36 -28.32 12.72 -29 10 C-22.994 7.108 -16.877 4.858 -10.562 2.75 C-9.757 2.48 -8.951 2.21 -8.122 1.931 C-2.259 0 -2.259 0 0 0 Z " fill="#080808" transform="translate(260,60)"/>
<path d="M0 0 C0 2.31 0 4.62 0 7 C5.252 9.333 10.551 11.305 16 13.125 C17.152 13.521 17.152 13.521 18.328 13.926 C22.898 15.457 27.207 16.477 32 17 C32 17.66 32 18.32 32 19 C32.857 19.129 33.713 19.257 34.595 19.389 C46.698 21.56 58.471 26.043 70.115 29.908 C71.293 30.293 72.47 30.678 73.684 31.074 C74.731 31.421 75.778 31.767 76.857 32.124 C80.255 33.071 83.484 33.695 87 34 C89.63 32.525 89.63 32.525 91.875 30.375 C96.285 26.946 96.285 26.946 99.641 27.199 C101.887 27.98 103.925 28.842 106 30 C105.828 36.923 105.828 36.923 103.699 39.691 C102.007 41.234 100.27 42.629 98.438 44 C97.514 44.733 97.514 44.733 96.572 45.48 C95.064 46.673 93.534 47.84 92 49 C91.34 48.67 90.68 48.34 90 48 C91.453 46.661 92.912 45.329 94.375 44 C95.187 43.257 95.999 42.515 96.836 41.75 C99 40 99 40 101 40 C101 39.34 101 38.68 101 38 C101.66 38 102.32 38 103 38 C103 36.35 103 34.7 103 33 C101.68 33.99 100.36 34.98 99 36 C98.34 35.67 97.68 35.34 97 35 C98.65 33.68 100.3 32.36 102 31 C99.779 30.126 99.779 30.126 97 30 C94.11 31.66 94.11 31.66 91.375 34 C88.523 36.312 88.523 36.312 86 38 C83.317 37.106 80.639 36.197 77.961 35.285 C64.307 30.666 50.604 26.31 36.798 22.171 C27.382 19.348 18.017 16.42 8.711 13.25 C3.175 11.385 -2.406 9.68 -8 8 C-8 7.34 -8 6.68 -8 6 C-5.69 6 -3.38 6 -1 6 C-1 4.68 -1 3.36 -1 2 C-1.615 2.168 -2.23 2.335 -2.863 2.508 C-4.076 2.813 -4.076 2.813 -5.312 3.125 C-6.513 3.438 -6.513 3.438 -7.738 3.758 C-10 4 -10 4 -13 2 C-8.222 -0.914 -5.449 -1.199 0 0 Z " fill="#000000" transform="translate(300,49)"/>
<path d="M0 0 C0.66 0.66 1.32 1.32 2 2 C2.66 2 3.32 2 4 2 C2.557 6.33 -0.708 7.245 -4.562 9.188 C-5.273 9.556 -5.984 9.924 -6.717 10.303 C-8.473 11.211 -10.236 12.106 -12 13 C-11.34 13.33 -10.68 13.66 -10 14 C-7.757 12.999 -7.757 12.999 -5.281 11.473 C-4.349 10.928 -3.417 10.383 -2.457 9.822 C-1.481 9.242 -0.505 8.661 0.5 8.062 C2.425 6.925 4.352 5.79 6.281 4.66 C7.138 4.151 7.994 3.642 8.877 3.117 C11 2 11 2 13 2 C11.924 4.836 11.224 5.868 8.562 7.438 C5.85 8.804 5.85 8.804 4.645 11.417 C2.741 14.407 1.253 15.315 -1.887 16.895 C-2.825 17.375 -3.762 17.855 -4.729 18.35 C-5.705 18.832 -6.681 19.315 -7.688 19.812 C-9.17 20.566 -9.17 20.566 -10.682 21.334 C-13.115 22.568 -15.554 23.79 -18 25 C-18.99 24.01 -19.98 23.02 -21 22 C-19.662 18.201 -17.974 15.431 -15.438 12.312 C-12.975 9.312 -12.975 9.312 -11 6 C-11.99 5.67 -12.98 5.34 -14 5 C-13.175 5.103 -12.35 5.206 -11.5 5.312 C-6.749 4.888 -3.821 2.716 0 0 Z " fill="#1A1A1A" transform="translate(116,59)"/>
<path d="M0 0 C8.908 2.564 17.625 5.611 26.367 8.684 C29.573 9.804 32.785 10.906 36 12 C36.961 12.334 37.922 12.669 38.912 13.013 C39.794 13.304 40.677 13.595 41.586 13.895 C42.355 14.153 43.123 14.412 43.916 14.679 C46.499 15.077 47.469 14.61 49.625 13.188 C50.409 12.466 51.192 11.744 52 11 C52.99 11.495 52.99 11.495 54 12 C46.729 17.982 38.96 23.006 31 28 C30.505 27.01 30.505 27.01 30 26 C28.155 25.425 28.155 25.425 25.946 25.074 C21.319 24.134 17.195 22.655 12.859 20.812 C12.129 20.509 11.399 20.206 10.647 19.894 C8.345 18.936 6.048 17.968 3.75 17 C2.196 16.351 0.641 15.702 -0.914 15.055 C-3.763 13.868 -6.609 12.676 -9.454 11.48 C-12.294 10.295 -15.139 9.132 -18 8 C-17.67 7.34 -17.34 6.68 -17 6 C-16.154 6.227 -15.309 6.454 -14.438 6.688 C-9.916 7.099 -7.958 6.173 -4 4 C-3.67 3.01 -3.34 2.02 -3 1 C-2.67 1.66 -2.34 2.32 -2 3 C-1.34 3 -0.68 3 0 3 C0 2.01 0 1.02 0 0 Z M-2.625 6 C-3.628 6.557 -4.631 7.114 -5.664 7.688 C-6.435 8.121 -7.206 8.554 -8 9 C-2.612 13.537 4.321 15.851 10.761 18.537 C12.377 19.22 13.986 19.92 15.587 20.636 C24.506 25.073 24.506 25.073 34.014 25.167 C36.377 23.622 38.125 22.101 40 20 C41 19 42 18 43 17 C35.844 13.645 28.514 10.976 21.041 8.426 C19.04 7.742 17.043 7.051 15.045 6.359 C13.771 5.921 12.497 5.484 11.223 5.047 C10.075 4.653 8.928 4.26 7.746 3.854 C3.15 2.424 1.512 3.691 -2.625 6 Z " fill="#000000" transform="translate(328,77)"/>
<path d="M0 0 C0.66 1.32 1.32 2.64 2 4 C1.01 5.32 0.02 6.64 -1 8 C-0.67 8.66 -0.34 9.32 0 10 C-1.176 10.124 -1.176 10.124 -2.375 10.25 C-5.147 10.728 -5.147 10.728 -6.312 13.062 C-6.653 14.022 -6.653 14.022 -7 15 C-7.66 15 -8.32 15 -9 15 C-9.268 15.557 -9.536 16.114 -9.812 16.688 C-12.313 21.557 -14.516 24.728 -19 28 C-14.545 28.99 -14.545 28.99 -10 30 C-10.186 29.216 -10.371 28.433 -10.562 27.625 C-11 25 -11 25 -10 23 C-7.125 23.25 -7.125 23.25 -4 24 C-2.5 25.812 -2.5 25.812 -2 28 C-2.875 30.25 -2.875 30.25 -4 32 C-2.68 32.66 -1.36 33.32 0 34 C0 34.33 0 34.66 0 35 C-3.465 34.505 -3.465 34.505 -7 34 C-7.495 32.515 -7.495 32.515 -8 31 C-8.553 31.357 -9.106 31.714 -9.676 32.082 C-12.72 33.284 -14.122 32.715 -17.188 31.688 C-18.068 31.403 -18.948 31.118 -19.855 30.824 C-22 30 -22 30 -23 29 C-23.5 26.312 -23.5 26.312 -23 23 C-21.345 21.276 -19.567 19.894 -17.668 18.445 C-15.771 17.027 -15.771 17.027 -14.938 14.312 C-14 12 -14 12 -11 10.188 C-8 9 -8 9 -6 9 C-6 8.34 -6 7.68 -6 7 C-5.381 6.959 -4.763 6.918 -4.125 6.875 C-3.073 6.442 -3.073 6.442 -2 6 C-0.695 3.004 -0.695 3.004 0 0 Z " fill="#282828" transform="translate(80,116)"/>
<path d="M0 0 C2.64 0.66 5.28 1.32 8 2 C7.814 3.134 7.629 4.269 7.438 5.438 C7.221 7.201 7.221 7.201 7 9 C8.066 10.296 8.066 10.296 10.562 10.062 C11.367 10.042 12.171 10.021 13 10 C13 8.35 13 6.7 13 5 C16.29 3.903 17.713 4.2 21 5 C19.689 8.694 18.1 11.406 15.625 14.438 C13.493 17.072 11.57 19.63 9.875 22.562 C8.947 23.769 8.947 23.769 8 25 C6.35 25 4.7 25 3 25 C2.01 16.75 1.02 8.5 0 0 Z " fill="#FFFFFF" transform="translate(84,60)"/>
<path d="M0 0 C1.32 0.33 2.64 0.66 4 1 C4.99 8.92 5.98 16.84 7 25 C4.69 24.67 2.38 24.34 0 24 C0 20 0 20 1 18 C-1.174 15.5 -2.73 14.564 -6 14 C-6 16.31 -6 18.62 -6 21 C-9.3 20.67 -12.6 20.34 -16 20 C-14.719 18.293 -13.382 16.626 -12 15 C-11.34 15 -10.68 15 -10 15 C-9.598 13.886 -9.598 13.886 -9.188 12.75 C-8.047 10.109 -6.906 8.144 -5 6 C-4.34 6 -3.68 6 -3 6 C-2.876 5.381 -2.752 4.762 -2.625 4.125 C-2 2 -2 2 0 0 Z " fill="#FFFFFF" transform="translate(76,125)"/>
<path d="M0 0 C0.763 0.206 1.526 0.412 2.312 0.625 C2.312 2.275 2.312 3.925 2.312 5.625 C1.9 5.109 1.487 4.594 1.062 4.062 C0.485 3.588 -0.093 3.114 -0.688 2.625 C-2.85 2.853 -2.85 2.853 -4.688 3.625 C-4.832 4.409 -4.976 5.192 -5.125 6 C-5.688 8.625 -5.688 8.625 -6.688 10.625 C-4.377 10.955 -2.067 11.285 0.312 11.625 C0.462 9.55 0.462 9.55 -0.688 7.625 C1.787 8.12 1.787 8.12 4.312 8.625 C4.972 7.305 5.632 5.985 6.312 4.625 C6.972 5.615 7.632 6.605 8.312 7.625 C7.312 8.625 6.312 9.625 5.312 10.625 C4.859 11.202 4.405 11.78 3.938 12.375 C2.312 13.625 2.312 13.625 -0.375 13.312 C-1.52 12.972 -1.52 12.972 -2.688 12.625 C-2.77 13.347 -2.852 14.069 -2.938 14.812 C-3.835 18.178 -5.399 20.041 -7.688 22.625 C-10.687 21.625 -10.687 21.625 -12.688 20.625 C-12.935 21.388 -13.182 22.151 -13.438 22.938 C-14.102 24.898 -14.782 26.855 -15.57 28.77 C-18.054 34.979 -19.571 41.211 -20.875 47.75 C-21.125 49.002 -21.125 49.002 -21.38 50.28 C-23.095 59.225 -23.843 68.096 -24.25 77.188 C-24.293 78.101 -24.336 79.014 -24.381 79.955 C-24.486 82.178 -24.588 84.402 -24.688 86.625 C-25.017 86.625 -25.347 86.625 -25.688 86.625 C-26.571 63.585 -23.992 40.018 -13.836 19.027 C-12.642 16.604 -12.642 16.604 -11.633 13.938 C-10.688 11.625 -10.688 11.625 -9.188 9.688 C-7.495 7.588 -7.495 7.588 -6.688 4.5 C-5.369 0.71 -4.088 -0.57 0 0 Z " fill="#161616" transform="translate(72.6875,232.375)"/>
<path d="M0 0 C0.99 0.66 1.98 1.32 3 2 C2.138 16.071 -4.288 29.431 -12 41 C-12.66 41 -13.32 41 -14 41 C-14.268 41.639 -14.536 42.279 -14.812 42.938 C-16 45 -16 45 -19 46 C-19 46.66 -19 47.32 -19 48 C-27.237 52.729 -34.687 53.822 -44 52 C-44 51.67 -44 51.34 -44 51 C-41.03 51 -38.06 51 -35 51 C-33.515 44.07 -33.515 44.07 -32 37 C-31.67 37 -31.34 37 -31 37 C-31.52 41.379 -32.057 45.688 -33 50 C-22.392 47.258 -17.216 42.218 -11.625 32.895 C-5.729 22.393 -2.832 11.631 0 0 Z " fill="#050505" transform="translate(147,92)"/>
<path d="M0 0 C0 0.99 0 1.98 0 3 C-2.117 5.043 -2.117 5.043 -4.875 7.188 C-5.78 7.903 -6.685 8.618 -7.617 9.355 C-10 11 -10 11 -12 11 C-12 11.66 -12 12.32 -12 13 C-13.609 14.402 -13.609 14.402 -15.75 15.938 C-16.446 16.442 -17.142 16.946 -17.859 17.465 C-18.566 17.971 -19.272 18.478 -20 19 C-20.706 19.558 -21.413 20.116 -22.141 20.691 C-24 22 -24 22 -26 22 C-26 22.66 -26 23.32 -26 24 C-27.405 25.297 -27.405 25.297 -29.359 26.75 C-30.063 27.276 -30.767 27.802 -31.492 28.344 C-32.237 28.89 -32.982 29.437 -33.75 30 C-34.48 30.547 -35.209 31.093 -35.961 31.656 C-42.618 36.595 -42.618 36.595 -46 38 C-48.141 37.32 -48.141 37.32 -50.25 36.125 C-50.956 35.736 -51.663 35.346 -52.391 34.945 C-52.922 34.633 -53.453 34.321 -54 34 C-54.283 30.292 -54.463 26.697 -54 23 C-51.5 20.812 -51.5 20.812 -49 20 C-49.99 22.475 -49.99 22.475 -51 25 C-46.021 25.754 -46.021 25.754 -41 26 C-41.66 26.66 -42.32 27.32 -43 28 C-43.167 31.083 -43.167 31.083 -43 34 C-41.515 33.505 -41.515 33.505 -40 33 C-40 32.34 -40 31.68 -40 31 C-38.539 29.711 -38.539 29.711 -36.625 28.375 C-35.999 27.929 -35.372 27.483 -34.727 27.023 C-33 26 -33 26 -31 26 C-31 25.34 -31 24.68 -31 24 C-27.538 21 -27.538 21 -25 21 C-25 20.34 -25 19.68 -25 19 C-23.391 17.598 -23.391 17.598 -21.25 16.062 C-20.554 15.558 -19.858 15.054 -19.141 14.535 C-18.081 13.775 -18.081 13.775 -17 13 C-16.294 12.442 -15.587 11.884 -14.859 11.309 C-13 10 -13 10 -11 10 C-11 9.34 -11 8.68 -11 8 C-9.539 6.711 -9.539 6.711 -7.625 5.375 C-6.999 4.929 -6.372 4.483 -5.727 4.023 C-4 3 -4 3 -2 3 C-2 2.34 -2 1.68 -2 1 C-1.34 0.67 -0.68 0.34 0 0 Z " fill="#000000" transform="translate(389,97)"/>
<path d="M0 0 C2.64 0.33 5.28 0.66 8 1 C7.023 5.241 5.986 9.464 4.938 13.688 C4.662 14.886 4.387 16.084 4.104 17.318 C1.589 27.237 1.589 27.237 -2.621 30.332 C-6 32 -6 32 -8 32 C-6.652 24.68 -4.875 17.542 -2.875 10.375 C-2.598 9.371 -2.321 8.367 -2.035 7.332 C-1.36 4.887 -0.681 2.443 0 0 Z " fill="#FFFFFF" transform="translate(89,87)"/>
<path d="M0 0 C0 -0.66 0 -1.32 0 -2 C3.375 -1.453 5.082 -0.945 8 1 C7.67 1.33 7.34 1.66 7 2 C7.66 2.33 8.32 2.66 9 3 C9 2.34 9 1.68 9 1 C9.66 1.33 10.32 1.66 11 2 C10.64 4.421 10.407 5.659 8.496 7.258 C2.545 9.765 -1.488 8.577 -7.25 6.312 C-9.256 5.492 -11.248 4.648 -13.232 3.776 C-15.467 2.795 -17.73 1.893 -20 1 C-20 0.34 -20 -0.32 -20 -1 C-12.725 -5.025 -7.203 -3.821 0 0 Z " fill="#FAFAFA" transform="translate(314,76)"/>
<path d="M0 0 C0.66 -0.33 1.32 -0.66 2 -1 C2.66 -0.67 3.32 -0.34 4 0 C4 0.66 4 1.32 4 2 C4.66 2 5.32 2 6 2 C6 1.34 6 0.68 6 0 C6.577 0.206 7.155 0.413 7.75 0.625 C10.549 1.092 11.537 0.271 14 -1 C14.99 -0.67 15.98 -0.34 17 0 C20.722 0.171 20.722 0.171 23.125 -0.562 C25 -1 25 -1 27 0 C26.722 1.176 26.722 1.176 26.438 2.375 C25.74 4.971 25.74 4.971 27 7 C26.072 6.979 25.144 6.959 24.188 6.938 C20.977 6.842 20.977 6.842 18 8 C17.34 7.67 16.68 7.34 16 7 C15.01 7.33 14.02 7.66 13 8 C12.01 7.67 11.02 7.34 10 7 C9.01 7.33 8.02 7.66 7 8 C6.34 7.67 5.68 7.34 5 7 C5 6.34 5 5.68 5 5 C5.99 4.67 6.98 4.34 8 4 C6.68 4 5.36 4 4 4 C4 4.99 4 5.98 4 7 C0.229 8.257 -2.229 8.257 -6 7 C-6 4.69 -6 2.38 -6 0 C-3.479 -1.26 -2.649 -0.662 0 0 Z " fill="#282828" transform="translate(395,493)"/>
<path d="M0 0 C0.33 0.33 0.66 0.66 1 1 C3.007 0.713 5.009 0.381 7 0 C7 1.32 7 2.64 7 4 C1.293 4.993 -4.214 5.105 -10 5 C-10.103 5.907 -10.206 6.815 -10.312 7.75 C-12.664 12.279 -15.508 12.81 -20.176 14.434 C-23.232 15.046 -25.04 14.917 -28 14 C-28.99 13.34 -29.98 12.68 -31 12 C-29.02 11.67 -27.04 11.34 -25 11 C-25.33 10.34 -25.66 9.68 -26 9 C-26.99 8.67 -27.98 8.34 -29 8 C-7.707 -0.856 -7.707 -0.856 0 0 Z " fill="#7C7C7C" transform="translate(292,51)"/>
<path d="M0 0 C2.06 4.12 -0.92 9.974 -2.123 14.321 C-2.682 16.356 -3.22 18.396 -3.756 20.438 C-4.111 21.737 -4.467 23.037 -4.824 24.336 C-5.145 25.517 -5.465 26.698 -5.796 27.916 C-7.073 31.188 -8.295 32.8 -11 35 C-13.25 35.75 -13.25 35.75 -15 36 C-14.758 35.031 -14.515 34.061 -14.266 33.062 C-14.106 32.422 -13.946 31.782 -13.782 31.122 C-13.424 29.693 -13.062 28.266 -12.697 26.839 C-11.739 23.078 -10.846 19.323 -10.09 15.516 C-9.862 14.442 -9.862 14.442 -9.63 13.348 C-9.208 11.345 -8.812 9.337 -8.418 7.328 C-6.48 2.778 -4.415 2.03 0 0 Z " fill="#FFFFFF" transform="translate(112,79)"/>
<path d="M0 0 C0.956 0.352 1.913 0.704 2.898 1.066 C5.237 1.932 7.559 2.826 9.875 3.75 C6.022 6.752 1.747 10.046 -3.359 9.52 C-7.004 8.505 -10.443 7.129 -13.938 5.688 C-14.63 5.406 -15.323 5.124 -16.037 4.834 C-17.735 4.143 -19.43 3.447 -21.125 2.75 C-21.125 2.09 -21.125 1.43 -21.125 0.75 C-13.114 -3.662 -8.346 -3.341 0 0 Z " fill="#FFFFFF" transform="translate(293.125,65.25)"/>
<path d="M0 0 C2.312 0.812 2.312 0.812 3.312 2.812 C3.753 7.127 3.783 10.759 2 14.75 C0.312 16.812 0.312 16.812 -2.688 18.812 C-5.312 18.562 -5.312 18.562 -7.688 17.812 C-9.661 13.865 -9.044 9.149 -7.938 5 C-5.893 1.423 -4.24 -0.296 0 0 Z " fill="#040404" transform="translate(138.6875,90.1875)"/>
<path d="M0 0 C3.961 1.555 7.918 3.12 11.875 4.688 C12.984 5.123 14.092 5.558 15.234 6.006 C22.003 8.693 28.552 11.612 35 15 C34.67 16.32 34.34 17.64 34 19 C28.931 18.301 24.477 16.249 19.812 14.25 C18.968 13.892 18.124 13.533 17.255 13.164 C11.393 10.654 5.626 8.008 0 5 C0 3.35 0 1.7 0 0 Z " fill="#FFFFFF" transform="translate(256,67)"/>
<path d="M0 0 C1.673 0.3 3.34 0.636 5 1 C7.428 1 9.629 0.499 12 0 C12.66 1.65 13.32 3.3 14 5 C14.619 4.175 15.238 3.35 15.875 2.5 C16.576 1.675 17.277 0.85 18 0 C18.66 0 19.32 0 20 0 C21.125 7.75 21.125 7.75 20 10 C19.34 10 18.68 10 18 10 C18 9.34 18 8.68 18 8 C17.092 8.309 16.185 8.619 15.25 8.938 C12.834 9.727 10.472 10.429 8 11 C7.34 10.01 6.68 9.02 6 8 C5.587 8.516 5.175 9.031 4.75 9.562 C4.173 10.037 3.595 10.511 3 11 C0.891 10.59 0.891 10.59 -1 10 C-1.027 8.521 -1.046 7.042 -1.062 5.562 C-1.074 4.739 -1.086 3.915 -1.098 3.066 C-1 1 -1 1 0 0 Z " fill="#1D1D1D" transform="translate(252,13)"/>
<path d="M0 0 C1.98 0.66 3.96 1.32 6 2 C3.51 4.667 1.366 6.557 -2 8 C-2 8.99 -2 9.98 -2 11 C-3.453 11.864 -4.912 12.716 -6.375 13.562 C-7.593 14.276 -7.593 14.276 -8.836 15.004 C-9.907 15.497 -9.907 15.497 -11 16 C-11.66 15.67 -12.32 15.34 -13 15 C-12.34 14.34 -11.68 13.68 -11 13 C-11.99 13.66 -12.98 14.32 -14 15 C-17.125 14.75 -17.125 14.75 -20 14 C-20.33 13.34 -20.66 12.68 -21 12 C-14.429 8.101 -7.859 4.365 -1 1 C-0.67 0.67 -0.34 0.34 0 0 Z " fill="#F1F1F1" transform="translate(107,46)"/>
<path d="M0 0 C1.294 3.881 0.46 5.718 -0.652 9.637 C-0.831 10.276 -1.01 10.916 -1.195 11.574 C-1.768 13.614 -2.352 15.651 -2.938 17.688 C-3.328 19.071 -3.718 20.454 -4.107 21.838 C-5.063 25.228 -6.029 28.615 -7 32 C-8.32 32 -9.64 32 -11 32 C-10.383 25.393 -9.298 19.076 -7.75 12.625 C-7.558 11.737 -7.366 10.849 -7.168 9.934 C-5.617 3.485 -5.617 3.485 -2.328 0.898 C-1.56 0.602 -0.792 0.305 0 0 Z " fill="#FFFFFF" transform="translate(103,84)"/>
<path d="M0 0 C1.65 0.33 3.3 0.66 5 1 C5.33 1.99 5.66 2.98 6 4 C6.33 2.68 6.66 1.36 7 0 C8.98 0 10.96 0 13 0 C13 0.66 13 1.32 13 2 C12.01 2.495 12.01 2.495 11 3 C11.66 3.66 12.32 4.32 13 5 C12.625 7.625 12.625 7.625 12 10 C10.125 10.625 10.125 10.625 8 11 C7.34 10.34 6.68 9.68 6 9 C4.855 9.557 4.855 9.557 3.688 10.125 C2.801 10.414 1.914 10.703 1 11 C0.01 10.34 -0.98 9.68 -2 9 C-2 8.34 -2 7.68 -2 7 C-3.32 7 -4.64 7 -6 7 C-6 6.34 -6 5.68 -6 5 C-5.381 4.918 -4.763 4.835 -4.125 4.75 C-1.816 4.187 -1.816 4.187 -0.75 1.938 C-0.502 1.298 -0.255 0.659 0 0 Z " fill="#272727" transform="translate(40,13)"/>
<path d="M0 0 C1.32 0.66 2.64 1.32 4 2 C4 3.32 4 4.64 4 6 C2.02 6.99 2.02 6.99 0 8 C0.33 9.65 0.66 11.3 1 13 C-1.723 14.49 -4.455 15.965 -7.188 17.438 C-7.956 17.858 -8.725 18.279 -9.518 18.713 C-13.315 20.75 -16.646 22.52 -21 23 C-21.33 22.34 -21.66 21.68 -22 21 C-19.046 19.326 -16.086 17.662 -13.125 16 C-12.283 15.523 -11.441 15.046 -10.574 14.555 C-9.769 14.104 -8.963 13.652 -8.133 13.188 C-7.389 12.769 -6.646 12.35 -5.879 11.918 C-4 11 -4 11 -2 11 C-2 10.34 -2 9.68 -2 9 C-2.743 9.536 -3.485 10.073 -4.25 10.625 C-5.157 11.079 -6.065 11.532 -7 12 C-9.312 11.188 -9.312 11.188 -11 10 C-8.815 7.594 -6.741 6.205 -3.812 4.812 C-3.097 4.468 -2.382 4.124 -1.645 3.77 C-1.102 3.516 -0.559 3.262 0 3 C0 2.01 0 1.02 0 0 Z " fill="#222222" transform="translate(106,112)"/>
<path d="M0 0 C0.66 0.66 1.32 1.32 2 2 C-0.893 3.63 -3.79 5.253 -6.688 6.875 C-7.504 7.335 -8.321 7.795 -9.162 8.27 C-19.723 14.17 -19.723 14.17 -23.812 13.625 C-24.534 13.419 -25.256 13.213 -26 13 C-26 12.34 -26 11.68 -26 11 C-25.047 10.457 -24.095 9.915 -23.113 9.355 C-21.846 8.633 -20.579 7.91 -19.312 7.188 C-18.687 6.831 -18.061 6.475 -17.416 6.107 C-16.8 5.756 -16.185 5.405 -15.551 5.043 C-14.64 4.525 -14.64 4.525 -13.711 3.996 C-12.209 3.122 -10.738 2.194 -9.273 1.258 C-6.081 -0.508 -3.581 -0.338 0 0 Z " fill="#FFFFFF" transform="translate(127,51)"/>
<path d="M0 0 C3.062 1.021 4.147 1.441 6 4 C6.535 7.594 6.448 9.319 4.438 12.375 C1.183 14.545 -1.171 14.295 -5 14 C-5.268 13.216 -5.536 12.433 -5.812 11.625 C-6.848 8.719 -6.848 8.719 -10 7 C-9.031 6.381 -8.061 5.762 -7.062 5.125 C-3.972 3.343 -3.972 3.343 -3 1 C-2.34 1 -1.68 1 -1 1 C-0.67 1.33 -0.34 1.66 0 2 C0 1.34 0 0.68 0 0 Z " fill="#676767" transform="translate(94,225)"/>
<path d="M0 0 C4.75 0.875 4.75 0.875 7 2 C7 1.34 7 0.68 7 0 C8.666 -0.043 10.334 -0.041 12 0 C13 1 13 1 13.133 2.812 C13.13 3.534 13.128 4.256 13.125 5 C13.128 5.722 13.13 6.444 13.133 7.188 C13 9 13 9 12 10 C10.334 10.041 8.666 10.043 7 10 C7 9.34 7 8.68 7 8 C6.34 8 5.68 8 5 8 C5 8.66 5 9.32 5 10 C3.35 10 1.7 10 0 10 C-0.66 8.68 -1.32 7.36 -2 6 C-1.01 6 -0.02 6 1 6 C1 5.34 1 4.68 1 4 C0.34 4 -0.32 4 -1 4 C-0.67 2.68 -0.34 1.36 0 0 Z " fill="#0F0F0F" transform="translate(74,179)"/>
<path d="M0 0 C0.66 0 1.32 0 2 0 C1.67 2.64 1.34 5.28 1 8 C1.99 7.34 2.98 6.68 4 6 C7.688 6.375 7.688 6.375 11 7 C10.01 7.33 9.02 7.66 8 8 C6.659 8.65 5.327 9.32 4 10 C3.074 10.451 2.149 10.902 1.195 11.367 C-4.105 13.97 -9.208 16.539 -14 20 C-13.01 20.66 -12.02 21.32 -11 22 C-12.65 22 -14.3 22 -16 22 C-16 23.98 -16 25.96 -16 28 C-17.32 27.34 -18.64 26.68 -20 26 C-19.67 27.32 -19.34 28.64 -19 30 C-19.99 30 -20.98 30 -22 30 C-22 28.35 -22 26.7 -22 25 C-21.34 24.67 -20.68 24.34 -20 24 C-19.937 23.243 -19.874 22.487 -19.809 21.707 C-18.783 18.273 -17.086 17.416 -14.033 15.717 C-13.058 15.207 -13.058 15.207 -12.062 14.688 C-11.416 14.328 -10.77 13.969 -10.104 13.6 C-5.335 11 -5.335 11 -3 11 C-2.01 7.37 -1.02 3.74 0 0 Z " fill="#000000" transform="translate(101,39)"/>
<path d="M0 0 C2.062 0.438 2.062 0.438 4 1 C2.259 4.482 -1.594 5.633 -4.949 7.391 C-6.894 8.417 -8.817 9.486 -10.707 10.609 C-16.945 14.174 -16.945 14.174 -20.18 13.641 C-22.125 12.812 -22.125 12.812 -25 11 C-21.255 6.941 -16.542 4.212 -11 3.75 C-10.34 3.832 -9.68 3.915 -9 4 C-10.32 4.99 -11.64 5.98 -13 7 C-11.02 6.023 -9.041 5.044 -7.062 4.062 C-5.96 3.517 -4.858 2.972 -3.723 2.41 C-1.152 1.253 -1.152 1.253 0 0 Z " fill="#E7E7E7" transform="translate(103,113)"/>
<path d="M0 0 C0.99 0.33 1.98 0.66 3 1 C4.188 3.562 4.188 3.562 5 6 C5.66 6 6.32 6 7 6 C6.67 4.68 6.34 3.36 6 2 C8.232 3.728 9.799 5.082 10.418 7.906 C10.556 9.301 10.678 10.697 10.785 12.094 C11.043 14.378 11.786 16.058 13 18 C11.35 17.01 9.7 16.02 8 15 C7.67 15.99 7.34 16.98 7 18 C1.332 14.796 1.332 14.796 -0.25 11 C-0.498 10.01 -0.745 9.02 -1 8 C-1.638 6.653 -2.293 5.313 -3 4 C0 5 0 5 1 7 C1.99 7.33 2.98 7.66 4 8 C2.68 5.36 1.36 2.72 0 0 Z " fill="#313131" transform="translate(132,229)"/>
<path d="M0 0 C3.192 2.966 5.459 6.05 7.75 9.75 C8.364 10.735 8.977 11.72 9.609 12.734 C10.298 13.856 10.298 13.856 11 15 C11 11.796 10.257 9.906 9 7 C12.58 10.341 14.897 12.738 15.125 17.75 C15.084 18.493 15.042 19.235 15 20 C15.66 20 16.32 20 17 20 C17 22.64 17 25.28 17 28 C15.02 28 13.04 28 11 28 C11.093 27.406 11.186 26.811 11.281 26.199 C11.921 18.858 9.607 15.171 5.043 9.543 C0 3.266 0 3.266 0 0 Z " fill="#000000" transform="translate(133,210)"/>
<path d="M0 0 C1.65 0 3.3 0 5 0 C5.66 1.32 6.32 2.64 7 4 C7.454 3.34 7.907 2.68 8.375 2 C8.911 1.34 9.447 0.68 10 0 C10.66 0 11.32 0 12 0 C12 1.98 12 3.96 12 6 C12.66 6.33 13.32 6.66 14 7 C13.01 8.485 13.01 8.485 12 10 C11.34 10 10.68 10 10 10 C10 9.34 10 8.68 10 8 C8.917 8.495 8.917 8.495 7.812 9 C4.983 10.006 2.971 10.17 0 10 C-0.33 8.68 -0.66 7.36 -1 6 C-0.34 6 0.32 6 1 6 C1 5.34 1 4.68 1 4 C0.34 4 -0.32 4 -1 4 C-0.67 2.68 -0.34 1.36 0 0 Z " fill="#202020" transform="translate(51,179)"/>
<path d="M0 0 C0 0.99 0 1.98 0 3 C-20.458 11 -20.458 11 -25 11 C-25 12.65 -25 14.3 -25 16 C-25.33 15.01 -25.66 14.02 -26 13 C-26.99 12.67 -27.98 12.34 -29 12 C-28.67 11.01 -28.34 10.02 -28 9 C-25.531 7.833 -25.531 7.833 -22.285 6.738 C-21.124 6.342 -19.964 5.946 -18.768 5.537 C-16.934 4.931 -16.934 4.931 -15.062 4.312 C-13.844 3.897 -12.625 3.481 -11.369 3.053 C-2.331 0 -2.331 0 0 0 Z " fill="#6F6F6F" transform="translate(260,60)"/>
<path d="M0 0 C2.875 0.25 2.875 0.25 6 1 C7.5 2.812 7.5 2.812 8 5 C7.125 7.25 7.125 7.25 6 9 C7.32 9.66 8.64 10.32 10 11 C10 11.33 10 11.66 10 12 C7.69 11.67 5.38 11.34 3 11 C2.67 10.01 2.34 9.02 2 8 C1.484 8.371 0.969 8.743 0.438 9.125 C-3.124 10.403 -5.517 9.206 -9 8 C-9 7.34 -9 6.68 -9 6 C-6.03 6.33 -3.06 6.66 0 7 C-0.278 5.824 -0.278 5.824 -0.562 4.625 C-1 2 -1 2 0 0 Z " fill="#0E0E0E" transform="translate(70,139)"/>
<path d="M0 0 C-0.875 5.75 -0.875 5.75 -2 8 C-3.32 8 -4.64 8 -6 8 C-5.34 8.66 -4.68 9.32 -4 10 C-4.66 10.66 -5.32 11.32 -6 12 C-8.31 11.34 -10.62 10.68 -13 10 C-12.25 3.25 -12.25 3.25 -10 1 C-6.464 1.536 -6.464 1.536 -5 3 C-4.546 2.505 -4.093 2.01 -3.625 1.5 C-2 0 -2 0 0 0 Z " fill="#F6F6F6" transform="translate(79,233)"/>
<path d="M0 0 C3.988 1.223 7.963 2.483 11.938 3.75 C13.074 4.098 14.21 4.446 15.381 4.805 C17 5.327 17 5.327 18.652 5.859 C19.653 6.174 20.653 6.488 21.683 6.812 C24 8 24 8 24.834 10.134 C24.889 10.75 24.944 11.365 25 12 C23 12 23 12 21.375 10.5 C20.921 10.005 20.467 9.51 20 9 C20 9.66 20 10.32 20 11 C17.532 9.848 15.952 8.952 14 7 C13.01 6.67 12.02 6.34 11 6 C11 6.66 11 7.32 11 8 C9.394 7.548 7.79 7.088 6.188 6.625 C5.294 6.37 4.401 6.115 3.48 5.852 C1 5 1 5 -2 3 C-1.34 2.01 -0.68 1.02 0 0 Z " fill="#222222" transform="translate(303,68)"/>
<path d="M0 0 C8.227 2.574 16.12 5.864 24.062 9.188 C25.418 9.752 26.775 10.317 28.131 10.881 C31.422 12.251 34.711 13.624 38 15 C34.173 16.276 33.11 15.476 29.457 13.91 C28.384 13.456 27.311 13.001 26.205 12.533 C24.526 11.805 24.526 11.805 22.812 11.062 C21.116 10.34 21.116 10.34 19.385 9.604 C16.586 8.411 13.792 7.209 11 6 C11 7.65 11 9.3 11 11 C10.01 11 9.02 11 8 11 C6.539 8.353 6 7.106 6 4 C4.02 3.01 2.04 2.02 0 1 C0 0.67 0 0.34 0 0 Z " fill="#1C1C1C" transform="translate(284,78)"/>
<path d="M0 0 C0 2.31 0 4.62 0 7 C3.982 8.718 7.965 10.41 12 12 C8.944 12.978 7.147 13.008 4.109 12.004 C3.4 11.775 2.691 11.546 1.961 11.311 C0.867 10.94 0.867 10.94 -0.25 10.562 C-0.995 10.32 -1.74 10.077 -2.508 9.826 C-4.342 9.227 -6.171 8.615 -8 8 C-8 7.34 -8 6.68 -8 6 C-5.69 6 -3.38 6 -1 6 C-1 4.68 -1 3.36 -1 2 C-1.615 2.168 -2.23 2.335 -2.863 2.508 C-4.076 2.813 -4.076 2.813 -5.312 3.125 C-6.513 3.438 -6.513 3.438 -7.738 3.758 C-10 4 -10 4 -13 2 C-8.222 -0.914 -5.449 -1.199 0 0 Z " fill="#000000" transform="translate(300,49)"/>
<path d="M0 0 C1.532 3.064 1.229 5.617 1 9 C-0.312 11.875 -0.312 11.875 -2 14 C-2.99 14.33 -3.98 14.66 -5 15 C-6.56 13.44 -6.245 11.911 -6.312 9.75 C-6.284 6.194 -6.055 5.09 -4.125 1.938 C-2 0 -2 0 0 0 Z " fill="#FFFFFF" transform="translate(138,92)"/>
<path d="M0 0 C-0.172 2.352 -0.172 2.352 -1 5 C-3.328 6.398 -3.328 6.398 -6.25 7.375 C-7.204 7.713 -8.158 8.05 -9.141 8.398 C-12.226 9.048 -14.009 8.933 -17 8 C-17.99 7.34 -18.98 6.68 -20 6 C-17.043 4.995 -14.084 3.997 -11.125 3 C-10.283 2.714 -9.441 2.428 -8.574 2.133 C-7.769 1.862 -6.963 1.591 -6.133 1.312 C-5.389 1.061 -4.646 0.81 -3.879 0.551 C-2 0 -2 0 0 0 Z " fill="#FFFFFF" transform="translate(281,57)"/>
<path d="M0 0 C0 1.98 0 3.96 0 6 C-1.934 6.698 -3.872 7.383 -5.812 8.062 C-6.891 8.445 -7.97 8.828 -9.082 9.223 C-12 10 -12 10 -15 9 C-15 7.68 -15 6.36 -15 5 C-12.688 4.165 -10.376 3.332 -8.062 2.5 C-7.403 2.262 -6.744 2.023 -6.064 1.777 C-1.113 0 -1.113 0 0 0 Z " fill="#FFFFFF" transform="translate(251,67)"/>
<path d="M0 0 C0.99 0 1.98 0 3 0 C3.66 1.98 4.32 3.96 5 6 C5.99 4.02 6.98 2.04 8 0 C8.66 0 9.32 0 10 0 C10 3.63 10 7.26 10 11 C9.34 11 8.68 11 8 11 C7.67 10.34 7.34 9.68 7 9 C6.67 9.66 6.34 10.32 6 11 C5.34 11 4.68 11 4 11 C3.67 10.34 3.34 9.68 3 9 C2.67 9.66 2.34 10.32 2 11 C1.34 11 0.68 11 0 11 C0 7.37 0 3.74 0 0 Z " fill="#000000" transform="translate(23,178)"/>
<path d="M0 0 C0.99 0 1.98 0 3 0 C3.66 1.65 4.32 3.3 5 5 C5.66 3.35 6.32 1.7 7 0 C7.99 0 8.98 0 10 0 C10 3.3 10 6.6 10 10 C8 10 6 10 4 10 C3.67 9.34 3.34 8.68 3 8 C2.67 8.66 2.34 9.32 2 10 C1.34 10 0.68 10 0 10 C0 6.7 0 3.4 0 0 Z " fill="#000000" transform="translate(23,13)"/>
<path d="M0 0 C0.99 0 1.98 0 3 0 C3.66 1.65 4.32 3.3 5 5 C5.66 3.35 6.32 1.7 7 0 C7.99 0 8.98 0 10 0 C10 3.3 10 6.6 10 10 C8 10 6 10 4 10 C3.67 9.34 3.34 8.68 3 8 C2.67 8.66 2.34 9.32 2 10 C1.34 10 0.68 10 0 10 C0 6.7 0 3.4 0 0 Z " fill="#000000" transform="translate(235,13)"/>
<path d="M0 0 C0.33 0.99 0.66 1.98 1 3 C-6.26 6.96 -13.52 10.92 -21 15 C-21.66 14.01 -22.32 13.02 -23 12 C-19.803 9.966 -16.611 8.404 -13.113 6.961 C-8.607 4.912 -4.319 2.413 0 0 Z " fill="#FFFFFF" transform="translate(119,69)"/>
<path d="M0 0 C0.66 -0.33 1.32 -0.66 2 -1 C2.66 -0.67 3.32 -0.34 4 0 C4 2.31 4 4.62 4 7 C0.229 8.257 -2.229 8.257 -6 7 C-6 4.69 -6 2.38 -6 0 C-3.479 -1.26 -2.649 -0.662 0 0 Z " fill="#4B4B4B" transform="translate(395,493)"/>
<path d="M0 0 C-3.46 2.727 -7.149 5.015 -10.938 7.25 C-11.545 7.626 -12.153 8.003 -12.779 8.391 C-15.717 10.114 -17.5 11.045 -20.941 10.734 C-21.621 10.492 -22.3 10.25 -23 10 C-19.54 7.273 -15.851 4.985 -12.062 2.75 C-11.455 2.374 -10.847 1.997 -10.221 1.609 C-6.439 -0.61 -4.21 -1.502 0 0 Z " fill="#141414" transform="translate(107,124)"/>
<path d="M0 0 C-1.656 4.969 -6.436 6.349 -10.875 8.75 C-11.799 9.269 -12.724 9.789 -13.676 10.324 C-14.564 10.81 -15.452 11.296 -16.367 11.797 C-17.183 12.244 -17.999 12.691 -18.839 13.151 C-21 14 -21 14 -24 13 C-20.573 9.29 -16.382 7.228 -12 4.812 C-11.18 4.349 -10.36 3.886 -9.516 3.408 C-8.727 2.971 -7.938 2.533 -7.125 2.082 C-6.406 1.682 -5.686 1.282 -4.945 0.87 C-3 0 -3 0 0 0 Z " fill="#FFFFFF" transform="translate(127,60)"/>
<path d="M0 0 C-3.465 1.485 -3.465 1.485 -7 3 C-6.67 3.66 -6.34 4.32 -6 5 C-11.796 7.326 -15.861 8.437 -22 7 C-20.271 3.543 -16.167 3.027 -12.688 1.812 C-11.915 1.527 -11.142 1.241 -10.346 0.947 C-9.221 0.55 -9.221 0.55 -8.074 0.145 C-7.389 -0.099 -6.704 -0.343 -5.999 -0.594 C-3.683 -1.064 -2.225 -0.728 0 0 Z " fill="#1A1A1A" transform="translate(285,53)"/>
<path d="M0 0 C0.66 0 1.32 0 2 0 C2.33 0.99 2.66 1.98 3 3 C3.454 2.505 3.907 2.01 4.375 1.5 C6 0 6 0 8 0 C7.629 0.887 7.258 1.774 6.875 2.688 C5.892 6.408 6.239 7.674 8 11 C6.68 10.34 5.36 9.68 4 9 C4 8.34 4 7.68 4 7 C3.34 7 2.68 7 2 7 C2 8.32 2 9.64 2 11 C1.34 11 0.68 11 0 11 C0 7.37 0 3.74 0 0 Z " fill="#000000" transform="translate(14,178)"/>
<path d="M0 0 C1.675 0.286 3.344 0.618 5 1 C5.81 3.915 6.218 5.461 5.062 8.312 C4.537 9.148 4.537 9.148 4 10 C2.35 10 0.7 10 -1 10 C-0.67 9.01 -0.34 8.02 0 7 C-0.33 6.67 -0.66 6.34 -1 6 C-1.125 3.5 -1.125 3.5 -1 1 C-0.67 0.67 -0.34 0.34 0 0 Z " fill="#262626" transform="translate(94,179)"/>
<path d="M0 0 C0.66 0.99 1.32 1.98 2 3 C1.67 4.65 1.34 6.3 1 8 C-4.94 8.495 -4.94 8.495 -11 9 C-8.906 4.812 -8.296 4.267 -4.375 2.25 C-3.558 1.822 -2.74 1.394 -1.898 0.953 C-0.959 0.481 -0.959 0.481 0 0 Z " fill="#333333" transform="translate(127,53)"/>
<path d="M0 0 C0.33 1.32 0.66 2.64 1 4 C1.99 4 2.98 4 4 4 C4 6.64 4 9.28 4 12 C2.02 12 0.04 12 -2 12 C-2.178 7.452 -1.998 4.121 0 0 Z " fill="#6E6E6E" transform="translate(146,226)"/>
<path d="M0 0 C3.465 1.485 3.465 1.485 7 3 C7 5.31 7 7.62 7 10 C1.125 8.125 1.125 8.125 0 7 C-0.041 4.667 -0.042 2.333 0 0 Z " fill="#FFFFFF" transform="translate(336,122)"/>
<path d="M0 0 C1.65 0.33 3.3 0.66 5 1 C5.33 3.64 5.66 6.28 6 9 C3.625 10.062 3.625 10.062 1 11 C0.34 10.67 -0.32 10.34 -1 10 C-0.67 9.01 -0.34 8.02 0 7 C0.99 7.33 1.98 7.66 3 8 C3.33 7.34 3.66 6.68 4 6 C3.01 6 2.02 6 1 6 C1 5.34 1 4.68 1 4 C0.34 4 -0.32 4 -1 4 C-0.67 2.68 -0.34 1.36 0 0 Z " fill="#000000" transform="translate(55,13)"/>
<path d="M0 0 C0.66 0 1.32 0 2 0 C2 0.99 2 1.98 2 3 C2.66 3 3.32 3 4 3 C4 2.34 4 1.68 4 1 C5.32 0.67 6.64 0.34 8 0 C7.629 0.722 7.258 1.444 6.875 2.188 C5.81 5.61 6.397 6.882 8 10 C6.68 9.34 5.36 8.68 4 8 C4 7.34 4 6.68 4 6 C3.34 6 2.68 6 2 6 C2 7.32 2 8.64 2 10 C1.34 10 0.68 10 0 10 C0 6.7 0 3.4 0 0 Z " fill="#000000" transform="translate(14,13)"/>
<path d="M0 0 C2.46 3.69 3.125 5.274 3.062 9.625 C3.053 10.442 3.044 11.26 3.035 12.102 C3.024 12.728 3.012 13.355 3 14 C2.01 14.33 1.02 14.66 0 15 C-0.66 14.67 -1.32 14.34 -2 14 C-2 13.01 -2 12.02 -2 11 C-1.34 10.67 -0.68 10.34 0 10 C0.652 7.975 0.652 7.975 1 6 C0.34 6 -0.32 6 -1 6 C-1.33 4.35 -1.66 2.7 -2 1 C-1.34 0.67 -0.68 0.34 0 0 Z " fill="#5E5E5E" transform="translate(83,64)"/>
<path d="M0 0 C0.66 0 1.32 0 2 0 C2.33 0.99 2.66 1.98 3 3 C3.454 2.505 3.907 2.01 4.375 1.5 C6 0 6 0 8 0 C8 0.66 8 1.32 8 2 C7.34 2 6.68 2 6 2 C6.523 4.763 7.109 7.326 8 10 C5.007 9.002 4.052 8.248 2 6 C2 7.32 2 8.64 2 10 C1.34 10 0.68 10 0 10 C0 6.7 0 3.4 0 0 Z " fill="#000000" transform="translate(226,13)"/>
<path d="M0 0 C0.99 0.33 1.98 0.66 3 1 C2.34 1 1.68 1 1 1 C1.33 2.32 1.66 3.64 2 5 C5.96 4.01 9.92 3.02 14 2 C14 2.66 14 3.32 14 4 C12.277 4.703 10.546 5.387 8.812 6.062 C7.368 6.637 7.368 6.637 5.895 7.223 C2.791 8.056 1.051 7.887 -2 7 C-2.33 5.35 -2.66 3.7 -3 2 C-2.34 2 -1.68 2 -1 2 C-0.67 1.34 -0.34 0.68 0 0 Z " fill="#000000" transform="translate(235,71)"/>
<path d="M0 0 C0.33 0 0.66 0 1 0 C1 3.63 1 7.26 1 11 C-0.65 11 -2.3 11 -4 11 C-4.33 10.01 -4.66 9.02 -5 8 C-6.32 8 -7.64 8 -9 8 C-9 7.34 -9 6.68 -9 6 C-6.03 6.495 -6.03 6.495 -3 7 C-3 7.66 -3 8.32 -3 9 C-2.34 9 -1.68 9 -1 9 C-1.021 7.701 -1.041 6.401 -1.062 5.062 C-1.084 3.708 -1.071 2.352 -1 1 C-0.67 0.67 -0.34 0.34 0 0 Z " fill="#000000" transform="translate(43,178)"/>
<path d="M0 0 C1.65 0 3.3 0 5 0 C5.33 2.31 5.66 4.62 6 7 C4.02 7.99 4.02 7.99 2 9 C1.01 8.34 0.02 7.68 -1 7 C-0.67 6.34 -0.34 5.68 0 5 C1.32 5.66 2.64 6.32 4 7 C4 6.34 4 5.68 4 5 C2.35 4.67 0.7 4.34 -1 4 C-0.67 2.68 -0.34 1.36 0 0 Z " fill="#131313" transform="translate(374,492)"/>
<path d="M0 0 C0.33 0.66 0.66 1.32 1 2 C0.059 2.531 -0.882 3.062 -1.852 3.609 C-3.109 4.323 -4.367 5.036 -5.625 5.75 C-6.242 6.098 -6.86 6.446 -7.496 6.805 C-10.524 8.526 -13.468 10.288 -16.336 12.266 C-19 14 -19 14 -21 14 C-19.769 10.306 -18.875 10.09 -15.527 8.301 C-14.628 7.814 -13.729 7.328 -12.803 6.826 C-11.857 6.327 -10.912 5.827 -9.938 5.312 C-8.988 4.801 -8.039 4.29 -7.061 3.764 C-4.711 2.501 -2.358 1.247 0 0 Z " fill="#FFFFFF" transform="translate(105,136)"/>
<path d="M0 0 C-2.579 2.042 -5.268 3.92 -8 5.75 C-8.66 6.199 -9.32 6.647 -10 7.109 C-12.442 8.197 -13.537 7.902 -16 7 C-11.867 2.52 -6.245 -0.781 0 0 Z " fill="#FFFFFF" transform="translate(94,117)"/>
<path d="M0 0 C0.99 0.33 1.98 0.66 3 1 C3 3.31 3 5.62 3 8 C2.01 8.33 1.02 8.66 0 9 C-2 7 -2 7 -2.125 3.875 C-2.084 2.926 -2.043 1.978 -2 1 C-1.34 0.67 -0.68 0.34 0 0 Z " fill="#555555" transform="translate(385,492)"/>
<path d="M0 0 C2.335 2.257 4.187 4.281 6 7 C6 7.99 6 8.98 6 10 C4.25 9.875 4.25 9.875 2 9 C-2 3.778 -2 3.778 -2 1 C-1.34 0.67 -0.68 0.34 0 0 Z " fill="#FFFFFF" transform="translate(130,227)"/>
<path d="M0 0 C2.31 0 4.62 0 7 0 C6.01 3.3 5.02 6.6 4 10 C3.01 10 2.02 10 1 10 C1.66 7.69 2.32 5.38 3 3 C2.01 2.67 1.02 2.34 0 2 C0 1.34 0 0.68 0 0 Z " fill="#000000" transform="translate(65,179)"/>
<path d="M0 0 C0.625 1.875 0.625 1.875 1 4 C0.34 4.66 -0.32 5.32 -1 6 C-1 6.33 -1 6.66 -1 7 C-3.64 7 -6.28 7 -9 7 C-7.667 5.667 -6.333 4.333 -5 3 C-4.464 2.423 -3.927 1.845 -3.375 1.25 C-2 0 -2 0 0 0 Z " fill="#FFFFFF" transform="translate(93,226)"/>
<path d="M0 0 C-0.523 2.763 -1.109 5.326 -2 8 C-2.99 7.67 -3.98 7.34 -5 7 C-5.33 5.35 -5.66 3.7 -6 2 C-3 0 -3 0 0 0 Z " fill="#F6F6F6" transform="translate(81,242)"/>
<path d="M0 0 C0.99 0.66 1.98 1.32 3 2 C2.67 4.64 2.34 7.28 2 10 C0.68 10.33 -0.64 10.66 -2 11 C-1.34 7.37 -0.68 3.74 0 0 Z " fill="#000000" transform="translate(147,92)"/>
<path d="M0 0 C0.66 0.99 1.32 1.98 2 3 C1 4 0 5 -1 6 C-1.743 6.835 -1.743 6.835 -2.5 7.688 C-4 9 -4 9 -7 9 C-6.67 8.34 -6.34 7.68 -6 7 C-5.851 4.925 -5.851 4.925 -7 3 C-4.525 3.495 -4.525 3.495 -2 4 C-1.34 2.68 -0.68 1.36 0 0 Z " fill="#000000" transform="translate(79,237)"/>
<path d="M0 0 C-6.364 5 -6.364 5 -11 5 C-10 2 -10 2 -7.75 0.25 C-4.589 -1.187 -3.252 -1.022 0 0 Z " fill="#090909" transform="translate(107,124)"/>
<path d="M0 0 C0 1.32 0 2.64 0 4 C-2.915 4.81 -4.461 5.218 -7.312 4.062 C-7.869 3.712 -8.426 3.361 -9 3 C-5.732 0.821 -3.92 0 0 0 Z " fill="#FFFFFF" transform="translate(299,51)"/>
<path d="M0 0 C2.475 0.99 2.475 0.99 5 2 C5 2.66 5 3.32 5 4 C5.99 4.33 6.98 4.66 8 5 C3.946 6.158 1.782 5.837 -2 4 C-1.34 2.68 -0.68 1.36 0 0 Z " fill="#313131" transform="translate(303,68)"/>
<path d="M0 0 C2.352 0.599 4.686 1.269 7 2 C7.33 2.66 7.66 3.32 8 4 C7.34 4 6.68 4 6 4 C6 4.66 6 5.32 6 6 C4.02 5.34 2.04 4.68 0 4 C0 2.68 0 1.36 0 0 Z " fill="#0A0A0A" transform="translate(308,70)"/>
<path d="M0 0 C1.258 0.124 2.516 0.248 3.812 0.375 C4.874 0.479 4.874 0.479 5.957 0.586 C8 1 8 1 11 3 C11 3.66 11 4.32 11 5 C8.03 4.505 8.03 4.505 5 4 C5 3.34 5 2.68 5 2 C3.35 1.67 1.7 1.34 0 1 C0 0.67 0 0.34 0 0 Z " fill="#B7B7B7" transform="translate(284,55)"/>
<path d="M0 0 C0 3.3 0 6.6 0 10 C-0.66 10 -1.32 10 -2 10 C-2 7.69 -2 5.38 -2 3 C-2.66 3 -3.32 3 -4 3 C-4 2.34 -4 1.68 -4 1 C-2 0 -2 0 0 0 Z " fill="#000000" transform="translate(105,179)"/>
<path d="M0 0 C-1 3 -1 3 -3.375 4.75 C-6 6 -6 6 -9 5 C-7.879 4.161 -6.753 3.329 -5.625 2.5 C-4.999 2.036 -4.372 1.572 -3.727 1.094 C-2 0 -2 0 0 0 Z " fill="#000000" transform="translate(120,61)"/>
<path d="M0 0 C3.3 0.66 6.6 1.32 10 2 C10 2.99 10 3.98 10 5 C9.01 5.33 8.02 5.66 7 6 C6.67 5.01 6.34 4.02 6 3 C3.69 2.67 1.38 2.34 -1 2 C-0.67 1.34 -0.34 0.68 0 0 Z " fill="#0B0B0B" transform="translate(121,49)"/>
<path d="M0 0 C-1.453 3.753 -1.453 3.753 -3.938 4.875 C-6 5 -6 5 -9 3 C-3.375 0 -3.375 0 0 0 Z " fill="#222222" transform="translate(296,48)"/>
<path d="M0 0 C1.65 0.33 3.3 0.66 5 1 C4.67 1.99 4.34 2.98 4 4 C2.35 4 0.7 4 -1 4 C-0.67 2.68 -0.34 1.36 0 0 Z " fill="#484848" transform="translate(55,13)"/>
<path d="M0 0 C2.335 2.257 4.187 4.281 6 7 C5.67 7.99 5.34 8.98 5 10 C4.158 8.902 3.327 7.797 2.5 6.688 C2.036 6.073 1.572 5.458 1.094 4.824 C0 3 0 3 0 0 Z " fill="#FFFFFF" transform="translate(127,231)"/>
<path d="M0 0 C0.99 0 1.98 0 3 0 C2.814 0.784 2.629 1.567 2.438 2.375 C1.74 4.971 1.74 4.971 3 7 C1.35 7 -0.3 7 -2 7 C-1.67 6.402 -1.34 5.804 -1 5.188 C0.208 2.946 0.208 2.946 0 0 Z " fill="#000000" transform="translate(419,493)"/>
<path d="M0 0 C1.32 0.66 2.64 1.32 4 2 C3.34 3.32 2.68 4.64 2 6 C2 5.34 2 4.68 2 4 C0.68 4 -0.64 4 -2 4 C-1.34 2.68 -0.68 1.36 0 0 Z " fill="#FFFFFF" transform="translate(74,250)"/>
<path d="M0 0 C0.66 0 1.32 0 2 0 C1.375 1.875 1.375 1.875 0 4 C-3.125 5.25 -3.125 5.25 -6 6 C-4 4 -2 2 0 0 Z " fill="#000000" transform="translate(92,145)"/>
<path d="M0 0 C0.99 0.33 1.98 0.66 3 1 C3 1.66 3 2.32 3 3 C1.035 4.068 -0.969 5.066 -3 6 C-3.66 5.67 -4.32 5.34 -5 5 C-3.35 3.35 -1.7 1.7 0 0 Z " fill="#000000" transform="translate(99,131)"/>
<path d="M0 0 C0 0.99 0 1.98 0 3 C-2.64 3.33 -5.28 3.66 -8 4 C-5.574 1.343 -3.761 0 0 0 Z " fill="#505050" transform="translate(260,60)"/>
<path d="M0 0 C0.99 0 1.98 0 3 0 C3 1.98 3 3.96 3 6 C2.01 6 1.02 6 0 6 C0 4.02 0 2.04 0 0 Z " fill="#FFFFFF" transform="translate(82,181)"/>
<path d="M0 0 C0.99 0.66 1.98 1.32 3 2 C1.35 2.66 -0.3 3.32 -2 4 C-2.33 3.34 -2.66 2.68 -3 2 C-2.01 1.34 -1.02 0.68 0 0 Z M-5 3 C-4.34 3 -3.68 3 -3 3 C-3.33 3.99 -3.66 4.98 -4 6 C-4.66 6 -5.32 6 -6 6 C-5.67 5.01 -5.34 4.02 -5 3 Z " fill="#717171" transform="translate(102,128)"/>
<path d="M0 0 C0.66 1.32 1.32 2.64 2 4 C1.01 4.99 0.02 5.98 -1 7 C-1.66 5.68 -2.32 4.36 -3 3 C-2.01 2.01 -1.02 1.02 0 0 Z " fill="#000000" transform="translate(75,254)"/>
<path d="M0 0 C0.66 0.33 1.32 0.66 2 1 C1.01 1.33 0.02 1.66 -1 2 C-1.33 2.99 -1.66 3.98 -2 5 C-4.062 5.688 -4.062 5.688 -6 6 C-4.985 3.464 -4.315 2.206 -2 0.688 C-1.34 0.461 -0.68 0.234 0 0 Z " fill="#696969" transform="translate(122,56)"/>
<path d="M0 0 C0.66 0 1.32 0 2 0 C2 1.98 2 3.96 2 6 C1.01 6.495 1.01 6.495 0 7 C-0.381 5.009 -0.713 3.007 -1 1 C-0.67 0.67 -0.34 0.34 0 0 Z " fill="#FFFFFF" transform="translate(261,15)"/>
</svg>
