<?xml version="1.0" encoding="UTF-8"?>
<!-- Generator: visioncortex VTracer 0.6.4 -->
<svg version="1.1" xmlns="http://www.w3.org/2000/svg" width="325" height="311">
<path d="M0 0 C107.25 0 214.5 0 325 0 C325 102.63 325 205.26 325 311 C217.75 311 110.5 311 0 311 C0 208.37 0 105.74 0 0 Z " fill="#FAFAFA" transform="translate(0,0)"/>
<path d="M0 0 C0.33 0.99 0.66 1.98 1 3 C-2.435 5.29 -3.985 5.178 -8 5 C-8 6.32 -8 7.64 -8 9 C-4.7 8.67 -1.4 8.34 2 8 C2.33 6.68 2.66 5.36 3 4 C3 4.99 3 5.98 3 7 C3.763 7.186 4.526 7.371 5.312 7.562 C9.056 9.565 9.462 12.155 11 16 C11.99 16.33 12.98 16.66 14 17 C13.505 15.515 13.505 15.515 13 14 C13.66 14 14.32 14 15 14 C15.495 15.98 15.495 15.98 16 18 C17.317 17.577 18.629 17.136 19.938 16.688 C20.668 16.444 21.399 16.2 22.152 15.949 C24.359 15.088 24.359 15.088 25 12 C31.144 8.23 37.992 7.417 45 9 C49.903 11.574 54.113 15.182 58.363 18.697 C60.423 20.337 62.597 21.684 64.875 23 C68 25 68 25 69 28 C72.008 29.225 72.008 29.225 75 30 C75 30.66 75 31.32 75 32 C76.485 32.495 76.485 32.495 78 33 C78.33 33.66 78.66 34.32 79 35 C80.747 36.018 80.747 36.018 82.812 36.938 C85.795 38.378 88.536 39.742 91 42 C91 42.66 91 43.32 91 44 C91.66 44 92.32 44 93 44 C97.322 50.483 99.112 57.495 101 65 C101.167 65.649 101.334 66.298 101.506 66.967 C102.909 72.77 103.399 78.374 103.641 84.328 C103.742 86.281 103.845 88.234 103.949 90.188 C104.104 93.231 104.251 96.274 104.375 99.318 C104.501 102.282 104.661 105.242 104.828 108.203 C104.871 109.566 104.871 109.566 104.914 110.956 C105.129 115.676 105.129 115.676 107.411 119.647 C108.886 120.836 110.439 121.927 112 123 C112 123.66 112 124.32 112 125 C112.66 125 113.32 125 114 125 C114 125.66 114 126.32 114 127 C115.65 127 117.3 127 119 127 C119 127.99 119 128.98 119 130 C120.261 131.475 120.261 131.475 121.992 132.812 C122.615 133.331 123.237 133.849 123.879 134.383 C124.538 134.916 125.196 135.45 125.875 136 C127.167 137.059 128.456 138.121 129.742 139.188 C130.606 139.889 130.606 139.889 131.488 140.605 C133 142 133 142 135 145 C134.845 146.876 134.845 146.876 134.688 148.789 C134.62 151.431 134.704 152.605 136.305 154.741 C138.135 156.402 140.016 157.901 142 159.375 C144.367 161.217 146.69 163.085 149 165 C149 165.66 149 166.32 149 167 C151.758 167.955 153.134 167.973 156.062 167.375 C159 167 159 167 160.875 168.438 C161.246 168.953 161.618 169.469 162 170 C161.041 169.629 161.041 169.629 160.062 169.25 C155.433 168.872 151.974 170.73 148 173 C145.643 175.103 145.643 175.103 144 177 C143.34 177 142.68 177 142 177 C141.752 177.681 141.505 178.361 141.25 179.062 C140.25 181.411 139.217 183.297 137.875 185.438 C135.949 188.775 135.322 191.1 136 195 C137.878 197.849 137.878 197.849 140 200 C137.532 198.848 135.952 197.952 134 196 C133.805 193.617 133.805 193.617 133.875 190.875 C133.893 189.965 133.911 189.055 133.93 188.117 C133.953 187.419 133.976 186.72 134 186 C133.402 185.711 132.804 185.423 132.188 185.125 C130 184 130 184 127 182 C127 181.34 127 180.68 127 180 C126.443 179.752 125.886 179.505 125.312 179.25 C122.576 177.771 120.323 176.065 118 174 C118 173.34 118 172.68 118 172 C117.112 172.16 117.112 172.16 116.207 172.324 C109.784 173.299 109.784 173.299 106.375 172 C103.722 169.766 101.305 167.386 98.891 164.898 C94.701 160.691 90.128 156.901 85.5 153.188 C84.675 152.466 83.85 151.744 83 151 C83 150.34 83 149.68 83 149 C82.34 149 81.68 149 81 149 C81 148.34 81 147.68 81 147 C80.34 147 79.68 147 79 147 C79 146.34 79 145.68 79 145 C78.381 144.691 77.762 144.381 77.125 144.062 C75.75 143.375 74.375 142.688 73 142 C71.886 142.433 70.772 142.866 69.625 143.312 C64.207 144.798 60.411 142.331 55.723 139.711 C52.414 137.632 50.21 136.236 48 133 C47.688 129.188 47.688 129.188 48 126 C43.519 125.277 43.519 125.277 39 125 C38.917 126.093 38.835 127.186 38.75 128.312 C38 132 38 132 35.938 133.938 C35.298 134.288 34.659 134.639 34 135 C34.33 134.505 34.66 134.01 35 133.5 C36.436 129.909 36.129 126.855 36 123 C32.427 121.958 30.296 121.402 26.859 122.988 C21.654 126.565 19.412 129.85 18 136 C18.66 136.99 19.32 137.98 20 139 C23.568 139.736 23.568 139.736 27 140 C24 142 24 142 20.812 141.625 C19.884 141.419 18.956 141.213 18 141 C18.33 141.66 18.66 142.32 19 143 C19.122 144.809 19.175 146.624 19.188 148.438 C19.202 149.406 19.216 150.374 19.23 151.371 C19 154 19 154 17 157 C16.34 156.67 15.68 156.34 15 156 C15.66 153.69 16.32 151.38 17 149 C15.35 149.33 13.7 149.66 12 150 C12 152.64 12 155.28 12 158 C12.66 158.33 13.32 158.66 14 159 C13.34 159 12.68 159 12 159 C11.01 163.29 10.02 167.58 9 172 C7.9 168.7 8.126 167.769 8.938 164.5 C10.78 155.946 10.13 147.613 9 139 C9.66 139.66 10.32 140.32 11 141 C13.475 140.01 13.475 140.01 16 139 C15.722 137.144 15.722 137.144 15.438 135.25 C15.053 132.237 14.913 129.9 16 127 C16.66 127 17.32 127 18 127 C18.268 126.361 18.536 125.721 18.812 125.062 C20 123 20 123 23 122 C23 121.34 23 120.68 23 120 C25.31 119.01 27.62 118.02 30 117 C30 116.34 30 115.68 30 115 C25.791 113.272 25.791 113.272 21.375 113.625 C20.591 113.749 19.808 113.873 19 114 C16.688 112.062 16.688 112.062 15 110 C15.33 109.34 15.66 108.68 16 108 C16.598 108.722 17.196 109.444 17.812 110.188 C20.802 112.319 20.802 112.319 23.781 111.598 C26.56 110.821 29.283 109.971 32 109 C32.144 108.216 32.289 107.433 32.438 106.625 C33 104 33 104 34 102 C33.01 102.495 33.01 102.495 32 103 C29.328 103.134 26.677 103.043 24 103 C24 104.32 24 105.64 24 107 C21.36 107 18.72 107 16 107 C16 106.34 16 105.68 16 105 C15.01 105.33 14.02 105.66 13 106 C6.615 95.967 3.405 84.896 4 73 C3.175 73.165 2.35 73.33 1.5 73.5 C-9.412 75.059 -9.412 75.059 -14 72 C-14 71.34 -14 70.68 -14 70 C-14.99 69.67 -15.98 69.34 -17 69 C-18.448 66.104 -19 64.258 -19 61 C-19.66 60.67 -20.32 60.34 -21 60 C-18.737 51.9 -15.857 46.084 -9 41 C-4.256 38.407 0.672 37.555 6 37 C5.34 36.34 4.68 35.68 4 35 C7.536 35.578 9.21 36.827 11.688 39.375 C12.289 39.981 12.891 40.587 13.512 41.211 C16.022 44.229 16.117 46.921 16.062 50.688 C16.053 51.496 16.044 52.304 16.035 53.137 C16.024 53.752 16.012 54.366 16 55 C16.928 54.361 17.856 53.721 18.812 53.062 C24.006 50.074 30.469 49.261 36.332 50.488 C36.882 50.657 37.433 50.826 38 51 C38 51.66 38 52.32 38 53 C38.743 53.268 39.485 53.536 40.25 53.812 C42.891 54.953 44.856 56.094 47 58 C47 58.66 47 59.32 47 60 C47.804 60.289 48.609 60.578 49.438 60.875 C52 62 52 62 53 64 C55.527 64.656 55.527 64.656 58 65 C57.691 64.072 57.381 63.144 57.062 62.188 C56.375 60.125 55.688 58.062 55 56 C53.352 55.288 51.682 54.626 50 54 C47.688 52.5 47.688 52.5 46 51 C46 50.34 46 49.68 46 49 C45.257 48.732 44.515 48.464 43.75 48.188 C41 47 41 47 39.262 45.379 C35.97 43.372 33.801 44.096 30.062 44.75 C28.255 45.052 28.255 45.052 26.41 45.359 C23.602 45.887 20.799 46.426 18 47 C17.505 45.02 17.505 45.02 17 43 C17.33 43.66 17.66 44.32 18 45 C19.048 44.783 20.096 44.567 21.176 44.344 C22.555 44.062 23.934 43.781 25.312 43.5 C26.003 43.357 26.693 43.214 27.404 43.066 C30.325 42.474 33.011 42 36 42 C34.072 32.302 34.072 32.302 28.276 24.833 C24.003 23.027 19.608 22.303 15 22 C14.01 22.495 14.01 22.495 13 23 C13.495 24.299 13.495 24.299 14 25.625 C14.987 28.957 15.164 31.552 15 35 C14.67 35 14.34 35 14 35 C13.01 31.37 12.02 27.74 11 24 C7.422 24 5.164 25.109 1.938 26.539 C1.298 26.691 0.659 26.843 0 27 C-0.99 26.34 -1.98 25.68 -3 25 C-1.68 24.34 -0.36 23.68 1 23 C0.724 21.059 0.724 21.059 0 19 C-0.99 18.34 -1.98 17.68 -3 17 C-3 16.34 -3 15.68 -3 15 C-3.619 14.691 -4.237 14.381 -4.875 14.062 C-6.25 13.375 -7.625 12.688 -9 12 C-8.67 14.64 -8.34 17.28 -8 20 C-10 18 -10 18 -10.125 14.875 C-10.084 13.926 -10.043 12.977 -10 12 C-11.258 12.33 -12.516 12.66 -13.812 13 C-16.39 13.676 -18.302 14 -21 14 C-20.67 13.01 -20.34 12.02 -20 11 C-16.7 10.67 -13.4 10.34 -10 10 C-10 9.34 -10 8.68 -10 8 C-11.237 8.351 -12.475 8.701 -13.75 9.062 C-16.903 9.956 -18.868 10.009 -22 9 C-17.879 7.002 -14.548 6.822 -10 7 C-9.897 6.216 -9.794 5.432 -9.688 4.625 C-8.314 -0.618 -4.659 -0.207 0 0 Z " fill="#EBEBEB" transform="translate(106,27)"/>
<path d="M0 0 C0.841 -0.008 1.682 -0.015 2.549 -0.023 C3.768 -0.02 3.768 -0.02 5.012 -0.016 C5.742 -0.013 6.473 -0.011 7.225 -0.009 C11.74 0.551 14.181 2.901 17.062 6.25 C17.676 6.951 18.29 7.653 18.922 8.375 C20.312 10.25 20.312 10.25 20.312 12.25 C21.302 12.25 22.293 12.25 23.312 12.25 C28.383 18.172 31.652 24.387 31.312 32.25 C31.105 34.639 30.764 36.89 30.312 39.25 C29.653 39.25 28.993 39.25 28.312 39.25 C28.22 40.735 28.22 40.735 28.125 42.25 C27.484 46.859 25.275 50.697 22.312 54.25 C21.653 54.25 20.993 54.25 20.312 54.25 C19.653 55.9 18.993 57.55 18.312 59.25 C18.972 59.25 19.632 59.25 20.312 59.25 C20.312 59.91 20.312 60.57 20.312 61.25 C19.653 61.25 18.993 61.25 18.312 61.25 C18.312 61.91 18.312 62.57 18.312 63.25 C17.653 63.25 16.993 63.25 16.312 63.25 C16.106 63.972 15.9 64.694 15.688 65.438 C13.837 69.222 11.71 70.773 8.312 73.25 C7.653 73.25 6.993 73.25 6.312 73.25 C6.312 73.91 6.312 74.57 6.312 75.25 C2.352 76.24 -1.608 77.23 -5.688 78.25 C-5.688 77.59 -5.688 76.93 -5.688 76.25 C-6.76 76.704 -7.833 77.158 -8.938 77.625 C-18.936 81.335 -29.392 82.334 -39.688 79.25 C-41.187 77.875 -41.187 77.875 -42.688 76.25 C-43.409 75.734 -44.131 75.219 -44.875 74.688 C-45.473 74.213 -46.071 73.739 -46.688 73.25 C-46.688 72.59 -46.688 71.93 -46.688 71.25 C-47.678 70.92 -48.668 70.59 -49.688 70.25 C-49.688 69.59 -49.688 68.93 -49.688 68.25 C-51.668 67.59 -53.648 66.93 -55.688 66.25 C-54.697 65.26 -54.697 65.26 -53.688 64.25 C-54.183 62.765 -54.183 62.765 -54.688 61.25 C-55.347 61.25 -56.008 61.25 -56.688 61.25 C-60.115 53.848 -60.266 48.213 -57.789 40.426 C-55.155 33.484 -55.155 33.484 -52.688 32.25 C-51.634 29.94 -50.63 27.607 -49.688 25.25 C-49.028 25.25 -48.367 25.25 -47.688 25.25 C-47.688 24.59 -47.688 23.93 -47.688 23.25 C-47.028 23.25 -46.367 23.25 -45.688 23.25 C-45.688 22.26 -45.688 21.27 -45.688 20.25 C-44.038 19.59 -42.388 18.93 -40.688 18.25 C-40.688 17.59 -40.688 16.93 -40.688 16.25 C-40.028 16.25 -39.367 16.25 -38.688 16.25 C-38.688 15.59 -38.688 14.93 -38.688 14.25 C-36.377 13.59 -34.067 12.93 -31.688 12.25 C-31.688 11.26 -31.688 10.27 -31.688 9.25 C-30.132 8.404 -28.568 7.574 -27 6.75 C-26.13 6.286 -25.26 5.822 -24.363 5.344 C-21.57 4.202 -19.671 4.035 -16.688 4.25 C-16.688 3.59 -16.688 2.93 -16.688 2.25 C-11.012 0.32 -5.972 -0.056 0 0 Z " fill="#F1F1F1" transform="translate(62.6875,184.75)"/>
<path d="M0 0 C3.536 0.578 5.21 1.827 7.688 4.375 C8.289 4.981 8.891 5.587 9.512 6.211 C12.022 9.229 12.117 11.921 12.062 15.688 C12.053 16.496 12.044 17.304 12.035 18.137 C12.024 18.752 12.012 19.366 12 20 C12.928 19.361 13.856 18.721 14.812 18.062 C20.006 15.074 26.469 14.261 32.332 15.488 C32.882 15.657 33.433 15.826 34 16 C34 16.66 34 17.32 34 18 C34.743 18.268 35.485 18.536 36.25 18.812 C38.891 19.953 40.856 21.094 43 23 C43 23.66 43 24.32 43 25 C43.804 25.289 44.609 25.578 45.438 25.875 C48 27 48 27 49 29 C51.527 29.656 51.527 29.656 54 30 C53.67 29.072 53.34 28.144 53 27.188 C52 24 52 24 52 21 C54.31 22.65 56.62 24.3 59 26 C59.928 25.484 60.856 24.969 61.812 24.438 C65 23 65 23 68 24 C63.155 26.85 58.482 29.072 53.211 31.043 C52.275 31.421 51.339 31.798 50.375 32.188 C49.434 32.552 48.493 32.917 47.523 33.293 C42.344 36.797 41.343 43.867 39.812 49.625 C39.468 50.896 39.124 52.167 38.77 53.477 C38.112 56.488 37.744 58.943 38 62 C39.968 63.968 43.348 63.662 46 64 C44.515 64.495 44.515 64.495 43 65 C41.602 69.194 40.781 72.661 42 77 C44.409 79.722 46.959 81.905 49.812 84.152 C50.895 85.067 50.895 85.067 52 86 C52 86.66 52 87.32 52 88 C52.99 88 53.98 88 55 88 C55 88.66 55 89.32 55 90 C55.66 90 56.32 90 57 90 C57 90.66 57 91.32 57 92 C57.66 92 58.32 92 59 92 C60.625 93.375 60.625 93.375 62 95 C62 95.66 62 96.32 62 97 C62.572 97.255 63.145 97.51 63.734 97.773 C66.242 99.131 68.133 100.72 70.25 102.625 C71.31 103.572 71.31 103.572 72.391 104.539 C72.922 105.021 73.453 105.503 74 106 C74.99 104.68 75.98 103.36 77 102 C76.835 103.011 76.67 104.021 76.5 105.062 C77.073 109.576 77.667 110.019 81 112.812 C81.743 113.376 82.485 113.939 83.25 114.52 C83.827 115.008 84.405 115.497 85 116 C85 116.66 85 117.32 85 118 C85.66 118 86.32 118 87 118 C87 118.66 87 119.32 87 120 C87.66 120 88.32 120 89 120 C90.625 121.375 90.625 121.375 92 123 C92 123.66 92 124.32 92 125 C92.866 125.371 92.866 125.371 93.75 125.75 C96.3 127.167 98.018 128.876 100 131 C100.29 130.043 100.29 130.043 100.586 129.066 C100.846 128.24 101.107 127.414 101.375 126.562 C101.63 125.739 101.885 124.915 102.148 124.066 C103 122 103 122 105 121 C104.01 125.29 103.02 129.58 102 134 C104.31 134.33 106.62 134.66 109 135 C108.484 134.34 107.969 133.68 107.438 133 C105.546 129.054 105.898 126.167 107 122 C108.937 117.119 112.665 114.72 117 112 C120.326 110.763 121.443 110.814 124.812 111.938 C125.534 112.288 126.256 112.639 127 113 C126.67 111.02 126.34 109.04 126 107 C124.416 107.623 122.833 108.248 121.25 108.875 C120.368 109.223 119.487 109.571 118.578 109.93 C116.326 110.865 114.164 111.878 112 113 C112 112.34 112 111.68 112 111 C114.97 109.35 117.94 107.7 121 106 C121 105.01 121 104.02 121 103 C120.34 103 119.68 103 119 103 C118.237 102.196 117.474 101.391 116.688 100.562 C113.923 97.927 112.712 97.318 109 97 C109 96.34 109 95.68 109 95 C109.99 95 110.98 95 112 95 C112.33 94.01 112.66 93.02 113 92 C113.66 92.33 114.32 92.66 115 93 C115 93.66 115 94.32 115 95 C116.286 96.359 116.286 96.359 117.992 97.715 C118.926 98.497 118.926 98.497 119.879 99.295 C120.538 99.837 121.196 100.379 121.875 100.938 C123.167 102.006 124.456 103.077 125.742 104.152 C126.318 104.627 126.894 105.101 127.488 105.59 C129 107 129 107 131 110 C130.897 111.25 130.794 112.501 130.688 113.789 C130.62 116.431 130.704 117.605 132.305 119.741 C134.135 121.402 136.016 122.901 138 124.375 C140.367 126.217 142.69 128.085 145 130 C145 130.66 145 131.32 145 132 C147.758 132.955 149.134 132.973 152.062 132.375 C155 132 155 132 156.875 133.438 C157.246 133.953 157.618 134.469 158 135 C157.041 134.629 157.041 134.629 156.062 134.25 C151.433 133.872 147.974 135.73 144 138 C141.643 140.103 141.643 140.103 140 142 C139.34 142 138.68 142 138 142 C137.752 142.681 137.505 143.361 137.25 144.062 C136.25 146.411 135.217 148.297 133.875 150.438 C131.949 153.775 131.322 156.1 132 160 C133.878 162.849 133.878 162.849 136 165 C133.532 163.848 131.952 162.952 130 161 C129.805 158.617 129.805 158.617 129.875 155.875 C129.893 154.965 129.911 154.055 129.93 153.117 C129.953 152.419 129.976 151.72 130 151 C129.402 150.711 128.804 150.423 128.188 150.125 C126 149 126 149 123 147 C123 146.34 123 145.68 123 145 C122.443 144.752 121.886 144.505 121.312 144.25 C118.576 142.771 116.323 141.065 114 139 C114 138.34 114 137.68 114 137 C113.112 137.16 113.112 137.16 112.207 137.324 C105.784 138.299 105.784 138.299 102.375 137 C99.722 134.766 97.305 132.386 94.891 129.898 C90.701 125.691 86.128 121.901 81.5 118.188 C80.675 117.466 79.85 116.744 79 116 C79 115.34 79 114.68 79 114 C78.34 114 77.68 114 77 114 C77 113.34 77 112.68 77 112 C76.34 112 75.68 112 75 112 C75 111.34 75 110.68 75 110 C74.381 109.691 73.762 109.381 73.125 109.062 C71.75 108.375 70.375 107.688 69 107 C67.886 107.433 66.772 107.866 65.625 108.312 C60.207 109.798 56.411 107.331 51.723 104.711 C48.414 102.632 46.21 101.236 44 98 C43.688 94.188 43.688 94.188 44 91 C39.519 90.277 39.519 90.277 35 90 C34.917 91.093 34.835 92.186 34.75 93.312 C34 97 34 97 31.938 98.938 C31.298 99.288 30.659 99.639 30 100 C30.33 99.505 30.66 99.01 31 98.5 C32.436 94.909 32.129 91.855 32 88 C28.427 86.958 26.296 86.402 22.859 87.988 C17.654 91.565 15.412 94.85 14 101 C14.99 102.485 14.99 102.485 16 104 C19.568 104.736 19.568 104.736 23 105 C20 107 20 107 16.812 106.625 C15.884 106.419 14.956 106.213 14 106 C14.33 106.66 14.66 107.32 15 108 C15.122 109.809 15.175 111.624 15.188 113.438 C15.202 114.406 15.216 115.374 15.23 116.371 C15 119 15 119 13 122 C12.01 121.505 12.01 121.505 11 121 C11.66 118.69 12.32 116.38 13 114 C10.525 114.495 10.525 114.495 8 115 C8 117.64 8 120.28 8 123 C8.99 123.495 8.99 123.495 10 124 C9.34 124 8.68 124 8 124 C7.01 128.29 6.02 132.58 5 137 C3.9 133.7 4.126 132.769 4.938 129.5 C6.78 120.946 6.13 112.613 5 104 C5.66 104.66 6.32 105.32 7 106 C9.475 105.01 9.475 105.01 12 104 C11.814 102.762 11.629 101.525 11.438 100.25 C11.053 97.237 10.913 94.9 12 92 C12.66 92 13.32 92 14 92 C14.268 91.361 14.536 90.721 14.812 90.062 C16 88 16 88 19 87 C19 86.34 19 85.68 19 85 C21.31 84.01 23.62 83.02 26 82 C26 81.34 26 80.68 26 80 C21.791 78.272 21.791 78.272 17.375 78.625 C16.591 78.749 15.808 78.873 15 79 C12.688 77.062 12.688 77.062 11 75 C11.33 74.34 11.66 73.68 12 73 C12.598 73.722 13.196 74.444 13.812 75.188 C16.802 77.319 16.802 77.319 19.781 76.598 C22.56 75.821 25.283 74.971 28 74 C28.144 73.216 28.289 72.433 28.438 71.625 C29 69 29 69 30 67 C29.01 67.495 29.01 67.495 28 68 C25.328 68.134 22.677 68.043 20 68 C20 69.32 20 70.64 20 72 C17.36 72 14.72 72 12 72 C12 71.34 12 70.68 12 70 C11.01 70.33 10.02 70.66 9 71 C2.615 60.967 -0.595 49.896 0 38 C-1.237 38.248 -1.237 38.248 -2.5 38.5 C-13.412 40.059 -13.412 40.059 -18 37 C-18 36.34 -18 35.68 -18 35 C-18.99 34.67 -19.98 34.34 -21 34 C-22.448 31.104 -23 29.258 -23 26 C-23.66 25.67 -24.32 25.34 -25 25 C-22.737 16.9 -19.857 11.084 -13 6 C-8.256 3.407 -3.328 2.555 2 2 C1.34 1.34 0.68 0.68 0 0 Z " fill="#242424" transform="translate(110,62)"/>
<path d="M0 0 C0.799 0.617 1.598 1.235 2.422 1.871 C3.025 2.429 3.628 2.987 4.25 3.562 C4.25 4.222 4.25 4.882 4.25 5.562 C4.807 5.802 5.364 6.042 5.938 6.289 C8.76 7.843 10.877 9.76 13.25 11.938 C14.518 13.094 14.518 13.094 15.812 14.273 C18.002 16.33 20.141 18.424 22.25 20.562 C21.755 21.058 21.755 21.058 21.25 21.562 C22.085 21.686 22.085 21.686 22.938 21.812 C25.987 22.801 27.902 24.41 30.25 26.562 C30.25 27.222 30.25 27.882 30.25 28.562 C31.219 28.851 32.189 29.14 33.188 29.438 C36.25 30.562 36.25 30.562 37.25 32.562 C36.26 32.562 35.27 32.562 34.25 32.562 C34.972 32.81 35.694 33.058 36.438 33.312 C39.526 34.685 41.76 36.286 44.25 38.562 C44.25 39.222 44.25 39.882 44.25 40.562 C44.91 40.562 45.57 40.562 46.25 40.562 C46.25 41.222 46.25 41.882 46.25 42.562 C46.91 42.892 47.57 43.222 48.25 43.562 C45.28 45.213 42.31 46.863 39.25 48.562 C41.267 47.554 43.285 46.543 45.25 45.438 C47.25 44.562 47.25 44.562 51.25 44.562 C53.402 47.79 53.451 48.847 53.25 52.562 C52.92 51.903 52.59 51.243 52.25 50.562 C46.408 49.165 46.408 49.165 41 51.375 C40.093 52.097 39.185 52.819 38.25 53.562 C37.507 53.831 36.765 54.099 36 54.375 C33.002 56.409 32.915 59.128 32.25 62.562 C32.109 65.256 32.155 67.862 32.25 70.562 C33.735 71.058 33.735 71.058 35.25 71.562 C34.92 72.222 34.59 72.882 34.25 73.562 C29.5 72.688 29.5 72.688 27.25 71.562 C27.58 68.262 27.91 64.963 28.25 61.562 C27.359 64.236 26.773 66.8 26.25 69.562 C25.26 69.067 25.26 69.067 24.25 68.562 C24.25 67.903 24.25 67.243 24.25 66.562 C23.652 66.274 23.054 65.985 22.438 65.688 C20.25 64.562 20.25 64.562 17.25 62.562 C17.25 61.903 17.25 61.243 17.25 60.562 C16.26 60.233 15.27 59.903 14.25 59.562 C14.25 58.903 14.25 58.243 14.25 57.562 C13.59 57.562 12.93 57.562 12.25 57.562 C12.25 56.903 12.25 56.243 12.25 55.562 C11.59 55.562 10.93 55.562 10.25 55.562 C10.25 54.903 10.25 54.243 10.25 53.562 C9.693 53.336 9.136 53.109 8.562 52.875 C5.523 51.15 3.492 49.241 1.25 46.562 C0.938 43.75 0.938 43.75 1.25 41.562 C0.59 42.553 -0.07 43.542 -0.75 44.562 C-1.281 44.092 -1.812 43.621 -2.359 43.137 C-3.066 42.514 -3.772 41.891 -4.5 41.25 C-5.196 40.635 -5.892 40.02 -6.609 39.387 C-8.72 37.533 -8.72 37.533 -11.016 35.957 C-11.588 35.497 -12.16 35.037 -12.75 34.562 C-12.75 33.903 -12.75 33.243 -12.75 32.562 C-14.235 32.067 -14.235 32.067 -15.75 31.562 C-15.75 30.903 -15.75 30.243 -15.75 29.562 C-16.41 29.562 -17.07 29.562 -17.75 29.562 C-17.75 28.903 -17.75 28.243 -17.75 27.562 C-18.41 27.562 -19.07 27.562 -19.75 27.562 C-19.75 26.903 -19.75 26.243 -19.75 25.562 C-20.74 25.562 -21.73 25.562 -22.75 25.562 C-23.98 24.133 -25.2 22.694 -26.344 21.195 C-27.791 19.515 -29.233 18.484 -31.062 17.25 C-33.999 14.314 -34.168 13.851 -34.25 9.938 C-34.109 6.503 -33.748 5.559 -31.75 2.562 C-30.058 1.687 -30.058 1.687 -28.047 0.992 C-27.313 0.736 -26.58 0.479 -25.824 0.215 C-25.057 -0.042 -24.29 -0.298 -23.5 -0.562 C-22.748 -0.827 -21.997 -1.091 -21.223 -1.363 C-12.77 -4.269 -7.371 -5.793 0 0 Z " fill="#FEFEFE" transform="translate(184.75,124.4375)"/>
<path d="M0 0 C2.333 -0.042 4.667 -0.041 7 0 C7.495 0.495 7.495 0.495 8 1 C10.081 1.1 12.166 1.13 14.25 1.125 C15.959 1.129 15.959 1.129 17.703 1.133 C20.935 1.108 20.935 1.108 23.746 0.348 C24.49 0.233 25.234 0.118 26 0 C28.812 2.312 28.812 2.312 31 5 C31 5.66 31 6.32 31 7 C31.99 7 32.98 7 34 7 C36.698 19.891 33.45 30.263 27.064 41.379 C25.638 43.552 23.943 45.284 22 47 C23.782 42.229 26.147 37.794 28.609 33.348 C30.846 29.072 31.507 25.797 31 21 C29.14 18.715 29.14 18.715 26.219 18.738 C14.535 19.688 4.428 29.612 -3 38 C-4.015 39.658 -5.021 41.321 -6 43 C-6.66 43 -7.32 43 -8 43 C-8.309 43.784 -8.619 44.567 -8.938 45.375 C-10 48 -10 48 -11 50 C-11.66 50 -12.32 50 -13 50 C-13.103 50.516 -13.206 51.031 -13.312 51.562 C-14 54 -14 54 -15.562 57.188 C-17.456 61.417 -17.279 65.446 -17 70 C-13.885 71.558 -11.345 71.73 -8 71 C-4.771 69.369 -1.734 67.553 1.328 65.629 C4 64 4 64 7 63 C7.33 62.01 7.66 61.02 8 60 C8.99 60.495 8.99 60.495 10 61 C3.135 68.508 -6.11 73.94 -16.25 75.5 C-19.864 74.843 -22.02 73.111 -25 71 C-25.949 70.711 -26.898 70.423 -27.875 70.125 C-32.967 68.292 -37.621 65.384 -40.371 60.629 C-41.195 57.185 -40.434 55.857 -38.812 52.75 C-34.519 44.253 -34.519 44.253 -33 35 C-33.66 34.67 -34.32 34.34 -35 34 C-34.67 33.34 -34.34 32.68 -34 32 C-33.34 32 -32.68 32 -32 32 C-31.629 31.041 -31.629 31.041 -31.25 30.062 C-29.67 27.456 -28.832 27.708 -26 27 C-25.732 26.423 -25.464 25.845 -25.188 25.25 C-23.625 22.289 -21.548 21.141 -18.809 19.301 C-16.736 17.884 -16.736 17.884 -14.25 15.25 C-12 13 -12 13 -9 12 C-8.67 10.35 -8.34 8.7 -8 7 C-7.01 7 -6.02 7 -5 7 C-4.732 6.361 -4.464 5.721 -4.188 5.062 C-3 3 -3 3 0 2 C0 1.34 0 0.68 0 0 Z " fill="#D4D4D4" transform="translate(282,196)"/>
<path d="M0 0 C3.3 0.66 6.6 1.32 10 2 C9.01 2.33 8.02 2.66 7 3 C5.602 7.194 4.781 10.661 6 15 C8.409 17.722 10.959 19.905 13.812 22.152 C14.534 22.762 15.256 23.372 16 24 C16 24.66 16 25.32 16 26 C16.99 26 17.98 26 19 26 C19 26.66 19 27.32 19 28 C19.66 28 20.32 28 21 28 C21 28.66 21 29.32 21 30 C21.66 30 22.32 30 23 30 C24.625 31.375 24.625 31.375 26 33 C26 33.66 26 34.32 26 35 C26.572 35.255 27.145 35.51 27.734 35.773 C30.242 37.131 32.133 38.72 34.25 40.625 C34.956 41.257 35.663 41.888 36.391 42.539 C36.922 43.021 37.453 43.503 38 44 C38.99 42.68 39.98 41.36 41 40 C40.752 41.516 40.752 41.516 40.5 43.062 C41.073 47.576 41.667 48.019 45 50.812 C45.743 51.376 46.485 51.939 47.25 52.52 C47.827 53.008 48.405 53.497 49 54 C49 54.66 49 55.32 49 56 C49.66 56 50.32 56 51 56 C51 56.66 51 57.32 51 58 C51.66 58 52.32 58 53 58 C54.625 59.375 54.625 59.375 56 61 C56 61.66 56 62.32 56 63 C56.577 63.248 57.155 63.495 57.75 63.75 C60.3 65.167 62.018 66.876 64 69 C64.193 68.362 64.387 67.724 64.586 67.066 C64.846 66.24 65.107 65.414 65.375 64.562 C65.63 63.739 65.885 62.915 66.148 62.066 C67 60 67 60 69 59 C68.01 63.29 67.02 67.58 66 72 C68.31 72.33 70.62 72.66 73 73 C72.484 72.34 71.969 71.68 71.438 71 C69.546 67.054 69.898 64.167 71 60 C72.937 55.119 76.665 52.72 81 50 C84.326 48.763 85.443 48.814 88.812 49.938 C89.895 50.463 89.895 50.463 91 51 C90.505 48.03 90.505 48.03 90 45 C88.416 45.623 86.833 46.248 85.25 46.875 C84.368 47.223 83.487 47.571 82.578 47.93 C80.326 48.865 78.164 49.878 76 51 C76 50.34 76 49.68 76 49 C78.97 47.35 81.94 45.7 85 44 C85 43.01 85 42.02 85 41 C84.34 41 83.68 41 83 41 C82.237 40.196 81.474 39.391 80.688 38.562 C77.923 35.927 76.712 35.318 73 35 C73 34.34 73 33.68 73 33 C73.99 33 74.98 33 76 33 C76.33 32.01 76.66 31.02 77 30 C77.66 30.33 78.32 30.66 79 31 C79 31.66 79 32.32 79 33 C80.286 34.359 80.286 34.359 81.992 35.715 C82.615 36.236 83.237 36.758 83.879 37.295 C84.538 37.837 85.196 38.379 85.875 38.938 C87.167 40.006 88.456 41.077 89.742 42.152 C90.318 42.627 90.894 43.101 91.488 43.59 C93 45 93 45 95 48 C94.897 49.25 94.794 50.501 94.688 51.789 C94.62 54.431 94.704 55.605 96.305 57.741 C98.135 59.402 100.016 60.901 102 62.375 C104.367 64.217 106.69 66.085 109 68 C109 68.66 109 69.32 109 70 C111.758 70.955 113.134 70.973 116.062 70.375 C119 70 119 70 120.875 71.438 C121.246 71.953 121.618 72.469 122 73 C121.041 72.629 121.041 72.629 120.062 72.25 C115.433 71.872 111.974 73.73 108 76 C105.643 78.103 105.643 78.103 104 80 C103.34 80 102.68 80 102 80 C101.752 80.681 101.505 81.361 101.25 82.062 C100.25 84.411 99.217 86.297 97.875 88.438 C95.949 91.775 95.322 94.1 96 98 C97.878 100.849 97.878 100.849 100 103 C97.532 101.848 95.952 100.952 94 99 C93.805 96.617 93.805 96.617 93.875 93.875 C93.893 92.965 93.911 92.055 93.93 91.117 C93.953 90.419 93.976 89.72 94 89 C93.402 88.711 92.804 88.423 92.188 88.125 C90 87 90 87 87 85 C87 84.34 87 83.68 87 83 C86.443 82.752 85.886 82.505 85.312 82.25 C82.576 80.771 80.323 79.065 78 77 C78 76.34 78 75.68 78 75 C77.408 75.107 76.817 75.214 76.207 75.324 C69.784 76.299 69.784 76.299 66.375 75 C63.722 72.766 61.305 70.386 58.891 67.898 C54.701 63.691 50.128 59.901 45.5 56.188 C44.675 55.466 43.85 54.744 43 54 C43 53.34 43 52.68 43 52 C42.34 52 41.68 52 41 52 C41 51.34 41 50.68 41 50 C40.34 50 39.68 50 39 50 C39 49.34 39 48.68 39 48 C38.381 47.691 37.762 47.381 37.125 47.062 C35.75 46.375 34.375 45.688 33 45 C31.824 45.392 30.649 45.784 29.438 46.188 C24.189 47.661 20.564 45.557 16 43 C16 42.01 16 41.02 16 40 C15.402 39.752 14.804 39.505 14.188 39.25 C11.608 37.776 10.418 36.613 9 34 C9.312 31.25 9.312 31.25 10 29 C10.66 29 11.32 29 12 29 C12 28.01 12 27.02 12 26 C10.701 26.309 10.701 26.309 9.375 26.625 C5.636 27.04 3.451 26.397 0 25 C0 24.34 0 23.68 0 23 C-0.66 23 -1.32 23 -2 23 C-5.309 16.771 -3.33 10.872 -1.438 4.5 C-0.963 3.015 -0.489 1.53 0 0 Z " fill="#0C0C0C" transform="translate(146,124)"/>
<path d="M0 0 C2.475 0.495 2.475 0.495 5 1 C5 1.66 5 2.32 5 3 C5.33 2.67 5.66 2.34 6 2 C6 1.34 6 0.68 6 0 C9.344 0.557 12.033 1.352 15 3 C15 3.66 15 4.32 15 5 C15.66 5 16.32 5 17 5 C19.132 9.264 19.808 13.315 19 18 C17.67 21.54 16.156 24.885 14 28 C13.01 28.33 12.02 28.66 11 29 C10.526 28.175 10.051 27.35 9.562 26.5 C9.047 25.675 8.531 24.85 8 24 C7.67 24 7.34 24 7 24 C9.475 27.96 9.475 27.96 12 32 C10.051 32.062 10.051 32.062 8.062 32.125 C1.822 32.824 -3.309 35.837 -7.383 40.625 C-8.334 42.034 -9.175 43.514 -10 45 C-10.66 45.99 -11.32 46.98 -12 48 C-12.495 47.505 -12.495 47.505 -13 47 C-13.574 47.313 -14.147 47.626 -14.738 47.949 C-20.952 50.836 -26.748 50.199 -33.055 47.984 C-36.091 46.448 -37.643 44.696 -39.188 41.688 C-40.099 38.672 -40.146 36.134 -40 33 C-38.68 33.33 -37.36 33.66 -36 34 C-36.66 33.34 -37.32 32.68 -38 32 C-38.125 28.875 -38.125 28.875 -38 26 C-37.34 26 -36.68 26 -36 26 C-32 32.75 -32 32.75 -32 35 C-27.38 35 -22.76 35 -18 35 C-17.67 36.98 -17.34 38.96 -17 41 C-17.103 39.804 -17.206 38.608 -17.312 37.375 C-17.344 33.884 -16.761 32.163 -14.5 29.5 C-13.675 28.675 -12.85 27.85 -12 27 C-16.75 31.875 -16.75 31.875 -19 33 C-21 30 -21 30 -20.875 27.125 C-19.512 22.258 -17.385 19.825 -13.062 17.25 C-10.322 16.132 -7.893 15.529 -5 15 C-11.324 16.36 -17.56 17.377 -24 18 C-26 15 -26 15 -25.836 13 C-23.838 8.22 -18.577 5.675 -14.023 3.727 C-11.364 2.758 -8.701 1.844 -6 1 C-6 1.66 -6 2.32 -6 3 C-5.01 3 -4.02 3 -3 3 C-3 4.65 -3 6.3 -3 8 C-2.34 7.67 -1.68 7.34 -1 7 C-1 7.66 -1 8.32 -1 9 C0.98 9.66 2.96 10.32 5 11 C5 8.385 4.07 7.559 2.5 5.5 C0 2.222 0 2.222 0 0 Z " fill="#DEDEDE" transform="translate(63,206)"/>
<path d="M0 0 C0.841 -0.008 1.682 -0.015 2.549 -0.023 C3.768 -0.02 3.768 -0.02 5.012 -0.016 C5.742 -0.013 6.473 -0.011 7.225 -0.009 C11.74 0.551 14.181 2.901 17.062 6.25 C17.676 6.951 18.29 7.653 18.922 8.375 C20.312 10.25 20.312 10.25 20.312 12.25 C21.302 12.25 22.293 12.25 23.312 12.25 C28.383 18.172 31.652 24.387 31.312 32.25 C31.105 34.639 30.764 36.89 30.312 39.25 C29.983 39.25 29.653 39.25 29.312 39.25 C29.309 37.765 29.309 37.765 29.305 36.25 C29.097 26.17 29.097 26.17 24.02 17.703 C17.103 11.815 9.01 12.591 0.312 13.25 C-6.782 14.449 -12.907 17.7 -19.219 21.043 C-21.688 22.25 -21.688 22.25 -23.688 22.25 C-23.688 22.91 -23.688 23.57 -23.688 24.25 C-25.667 25.614 -27.669 26.944 -29.688 28.25 C-30.265 28.827 -30.843 29.405 -31.438 30 C-31.85 30.412 -32.263 30.825 -32.688 31.25 C-33.347 31.25 -34.008 31.25 -34.688 31.25 C-34.688 31.91 -34.688 32.57 -34.688 33.25 C-35.854 34.382 -37.02 35.514 -38.188 36.645 C-44.519 43.422 -48.781 51.58 -48.938 60.938 C-48.815 64.436 -48.392 67.817 -47.688 71.25 C-48.347 70.92 -49.008 70.59 -49.688 70.25 C-49.688 69.59 -49.688 68.93 -49.688 68.25 C-51.668 67.59 -53.648 66.93 -55.688 66.25 C-54.697 65.26 -54.697 65.26 -53.688 64.25 C-54.183 62.765 -54.183 62.765 -54.688 61.25 C-55.347 61.25 -56.008 61.25 -56.688 61.25 C-60.115 53.848 -60.266 48.213 -57.789 40.426 C-55.155 33.484 -55.155 33.484 -52.688 32.25 C-51.634 29.94 -50.63 27.607 -49.688 25.25 C-49.028 25.25 -48.367 25.25 -47.688 25.25 C-47.688 24.59 -47.688 23.93 -47.688 23.25 C-47.028 23.25 -46.367 23.25 -45.688 23.25 C-45.688 22.26 -45.688 21.27 -45.688 20.25 C-44.038 19.59 -42.388 18.93 -40.688 18.25 C-40.688 17.59 -40.688 16.93 -40.688 16.25 C-40.028 16.25 -39.367 16.25 -38.688 16.25 C-38.688 15.59 -38.688 14.93 -38.688 14.25 C-36.377 13.59 -34.067 12.93 -31.688 12.25 C-31.688 11.26 -31.688 10.27 -31.688 9.25 C-30.132 8.404 -28.568 7.574 -27 6.75 C-26.13 6.286 -25.26 5.822 -24.363 5.344 C-21.57 4.202 -19.671 4.035 -16.688 4.25 C-16.688 3.59 -16.688 2.93 -16.688 2.25 C-11.012 0.32 -5.972 -0.056 0 0 Z " fill="#DADADA" transform="translate(62.6875,184.75)"/>
<path d="M0 0 C1.875 1.062 1.875 1.062 3 3 C3.47 8.569 2.433 11.924 -0.188 16.812 C-0.835 18.036 -1.482 19.26 -2.129 20.484 C-2.746 21.645 -3.364 22.805 -4 24 C-4.879 25.852 -5.755 27.706 -6.625 29.562 C-8.592 33.504 -10.574 36.222 -14 39 C-14.66 39 -15.32 39 -16 39 C-16 39.66 -16 40.32 -16 41 C-16.743 41.248 -17.485 41.495 -18.25 41.75 C-21.033 42.821 -21.033 42.821 -22.812 44.812 C-27.421 49.421 -34.001 53.79 -40.562 54.25 C-44 54 -44 54 -47 52 C-47.991 44.195 -45.587 38.854 -42 32 C-41.34 32 -40.68 32 -40 32 C-39.691 31.216 -39.381 30.433 -39.062 29.625 C-38 27 -38 27 -37 25 C-36.34 25 -35.68 25 -35 25 C-34.755 24.267 -34.51 23.533 -34.258 22.777 C-29.763 12.852 -11.619 -2.267 0 0 Z " fill="#EEEEEE" transform="translate(311,214)"/>
<path d="M0 0 C1.114 1.021 1.114 1.021 2.25 2.062 C2.25 2.722 2.25 3.382 2.25 4.062 C3.704 4.496 3.704 4.496 5.188 4.938 C8.25 6.062 8.25 6.062 9.25 8.062 C8.26 8.062 7.27 8.062 6.25 8.062 C6.972 8.31 7.694 8.558 8.438 8.812 C11.526 10.185 13.76 11.786 16.25 14.062 C16.25 14.722 16.25 15.382 16.25 16.062 C16.91 16.062 17.57 16.062 18.25 16.062 C18.25 16.722 18.25 17.382 18.25 18.062 C18.91 18.392 19.57 18.722 20.25 19.062 C15.795 21.537 15.795 21.537 11.25 24.062 C13.267 23.054 15.285 22.043 17.25 20.938 C19.25 20.062 19.25 20.062 23.25 20.062 C25.402 23.29 25.451 24.347 25.25 28.062 C24.755 27.072 24.755 27.072 24.25 26.062 C18.408 24.665 18.408 24.665 13 26.875 C12.093 27.597 11.185 28.319 10.25 29.062 C9.507 29.331 8.765 29.599 8 29.875 C5.002 31.909 4.915 34.628 4.25 38.062 C4.109 40.756 4.155 43.362 4.25 46.062 C5.24 46.392 6.23 46.722 7.25 47.062 C6.755 48.053 6.755 48.053 6.25 49.062 C1.5 48.188 1.5 48.188 -0.75 47.062 C-0.42 43.762 -0.09 40.463 0.25 37.062 C-0.641 39.736 -1.227 42.3 -1.75 45.062 C-2.41 44.733 -3.07 44.403 -3.75 44.062 C-3.75 43.403 -3.75 42.743 -3.75 42.062 C-4.647 41.629 -4.647 41.629 -5.562 41.188 C-7.75 40.062 -7.75 40.062 -10.75 38.062 C-10.75 37.403 -10.75 36.743 -10.75 36.062 C-11.74 35.733 -12.73 35.403 -13.75 35.062 C-13.75 34.403 -13.75 33.743 -13.75 33.062 C-14.41 33.062 -15.07 33.062 -15.75 33.062 C-15.75 32.403 -15.75 31.743 -15.75 31.062 C-16.41 31.062 -17.07 31.062 -17.75 31.062 C-17.75 30.403 -17.75 29.743 -17.75 29.062 C-18.307 28.836 -18.864 28.609 -19.438 28.375 C-22.704 26.521 -24.536 25.162 -26.75 22.062 C-27.31 16.666 -26.822 12.424 -23.438 8.125 C-22.107 7.104 -22.107 7.104 -20.75 6.062 C-17.801 3.203 -17.801 3.203 -15.438 -0.125 C-11.072 -4.814 -4.622 -3.256 0 0 Z " fill="#F3F3F3" transform="translate(212.75,148.9375)"/>
<path d="M0 0 C2.283 0.369 4.553 0.821 6.812 1.312 C8.056 1.577 9.3 1.841 10.582 2.113 C16.127 3.552 16.127 3.552 18 5 C19.104 7.37 19.962 9.531 20.75 12 C21.081 12.963 21.081 12.963 21.418 13.945 C23 18.642 23 18.642 23 21 C17.173 23.428 11.224 23.617 5 24 C5.33 24.33 5.66 24.66 6 25 C9.145 24.423 12.25 23.745 15.365 23.027 C22.329 21.516 25.335 22.962 31.113 26.668 C33.33 28.233 35.118 30.053 37 32 C37.846 32.495 38.691 32.99 39.562 33.5 C42.187 35.115 43.501 36.317 45 39 C45.188 41.75 45.188 41.75 45 44 C43.35 44 41.7 44 40 44 C39.67 43.01 39.34 42.02 39 41 C36.496 39.781 36.496 39.781 34 39 C34 38.34 34 37.68 34 37 C33.443 36.732 32.886 36.464 32.312 36.188 C29.788 34.891 27.363 33.575 25 32 C25 31.34 25 30.68 25 30 C17.989 29.605 12.518 30.427 6 33 C4.515 33.495 4.515 33.495 3 34 C2.67 34.66 2.34 35.32 2 36 C2.035 35.264 2.07 34.528 2.105 33.77 C2.311 26.359 1.631 22.987 -3.312 17.375 C-5.894 14.876 -5.894 14.876 -9.125 13.5 C-12.446 11.768 -13.384 10.317 -15 7 C-15.33 6.34 -15.66 5.68 -16 5 C-14.989 4.897 -13.979 4.794 -12.938 4.688 C-8.788 3.963 -5.786 2.777 -2 1 C-1.34 2.32 -0.68 3.64 0 5 C-0.278 4.041 -0.278 4.041 -0.562 3.062 C-0.707 2.382 -0.851 1.701 -1 1 C-0.67 0.67 -0.34 0.34 0 0 Z " fill="#F9F9F9" transform="translate(119,48)"/>
<path d="M0 0 C0.66 0.33 1.32 0.66 2 1 C2 1.66 2 2.32 2 3 C3.286 4.359 3.286 4.359 4.992 5.715 C5.615 6.236 6.237 6.758 6.879 7.295 C7.538 7.837 8.196 8.379 8.875 8.938 C10.167 10.006 11.456 11.077 12.742 12.152 C13.318 12.627 13.894 13.101 14.488 13.59 C16 15 16 15 18 18 C17.897 19.25 17.794 20.501 17.688 21.789 C17.62 24.431 17.704 25.605 19.305 27.741 C21.135 29.402 23.016 30.901 25 32.375 C27.367 34.217 29.69 36.085 32 38 C32 38.66 32 39.32 32 40 C34.758 40.955 36.134 40.973 39.062 40.375 C42 40 42 40 43.875 41.438 C44.246 41.953 44.618 42.469 45 43 C43.931 42.716 43.931 42.716 42.84 42.426 C36.915 41.537 30.332 43.812 25.438 47.188 C24.633 47.786 23.829 48.384 23 49 C22.34 49 21.68 49 21 49 C19.68 51.64 18.36 54.28 17 57 C16.67 55.68 16.34 54.36 16 53 C15.34 53.66 14.68 54.32 14 55 C13.34 54.34 12.68 53.68 12 53 C12.375 50.625 12.375 50.625 13 48 C13 46.68 13 45.36 13 44 C13 43.34 13 42.68 13 42 C11.02 44.475 11.02 44.475 9 47 C9.495 44.03 9.495 44.03 10 41 C9.01 42.98 8.02 44.96 7 47 C6.505 45.515 6.505 45.515 6 44 C5.34 44.66 4.68 45.32 4 46 C3.34 45.34 2.68 44.68 2 44 C2.346 40.022 3.186 37.627 5 34 C3.68 36.64 2.36 39.28 1 42 C0.67 40.68 0.34 39.36 0 38 C-0.66 38.66 -1.32 39.32 -2 40 C-1.477 37.237 -0.891 34.674 0 32 C0.66 32 1.32 32 2 32 C2 31.01 2 30.02 2 29 C1.34 28.67 0.68 28.34 0 28 C-3.092 30.53 -3.909 33.225 -5 37 C-6.355 32.934 -5.817 29.792 -4 26 C-0.898 22.759 2.492 20.561 6.688 19 C9.517 19 11.471 19.772 14 21 C13.67 19.02 13.34 17.04 13 15 C11.416 15.623 9.833 16.248 8.25 16.875 C7.368 17.223 6.487 17.571 5.578 17.93 C3.326 18.865 1.164 19.878 -1 21 C-1 20.34 -1 19.68 -1 19 C1.97 17.35 4.94 15.7 8 14 C8 13.01 8 12.02 8 11 C7.34 11 6.68 11 6 11 C5.237 10.196 4.474 9.391 3.688 8.562 C0.923 5.927 -0.288 5.318 -4 5 C-4 4.34 -4 3.68 -4 3 C-3.01 3 -2.02 3 -1 3 C-0.67 2.01 -0.34 1.02 0 0 Z " fill="#DFDFDF" transform="translate(223,154)"/>
<path d="M0 0 C3.125 1.812 3.125 1.812 6 4 C6.784 4.536 7.567 5.073 8.375 5.625 C8.911 6.079 9.447 6.532 10 7 C10 7.66 10 8.32 10 9 C8.584 9.481 7.167 9.96 5.75 10.438 C4.961 10.704 4.172 10.971 3.359 11.246 C-1.052 12.656 -1.052 12.656 -3 13 C-4.75 11.688 -4.75 11.688 -6 10 C-6 9.34 -6 8.68 -6 8 C-7.65 7.34 -9.3 6.68 -11 6 C-11.66 7.32 -12.32 8.64 -13 10 C-13.33 9.34 -13.66 8.68 -14 8 C-14.66 8 -15.32 8 -16 8 C-16 8.99 -16 9.98 -16 11 C-15.01 11 -14.02 11 -13 11 C-11.613 12.496 -11.613 12.496 -10.312 14.438 C-9.876 15.076 -9.439 15.714 -8.988 16.371 C-8 18 -8 18 -8 19 C-7.021 20.02 -6.021 21.021 -5 22 C-6.009 23.758 -7.018 25.516 -8.027 27.273 C-10.219 31.163 -10.479 34.583 -10 39 C-9.102 41.148 -9.102 41.148 -7 42 C-5.845 42 -4.69 42 -3.5 42 C0 42 0 42 1.938 43.5 C2.288 43.995 2.639 44.49 3 45 C-0.724 47.793 -3.538 48.477 -8.07 48.289 C-11.758 47.737 -14.101 46.199 -16.312 43.25 C-17.265 40.131 -17.125 37.238 -17 34 C-17.33 36.31 -17.66 38.62 -18 41 C-20 39.625 -20 39.625 -22 38 C-22 37.34 -22 36.68 -22 36 C-22.66 36 -23.32 36 -24 36 C-24 35.34 -24 34.68 -24 34 C-24.66 34 -25.32 34 -26 34 C-28.168 31.27 -29.031 29.707 -28.875 26.188 C-26.405 17.19 -23.091 9.323 -15 4 C-14.01 4 -13.02 4 -12 4 C-12 3.34 -12 2.68 -12 2 C-7.836 0.414 -4.457 -0.557 0 0 Z " fill="#F7F7F7" transform="translate(140,79)"/>
<path d="M0 0 C3.062 1.75 3.062 1.75 5 5 C6.008 10.806 5.91 16.243 2.938 21.438 C-0.527 26.07 -3.991 29.351 -9.754 30.594 C-14.492 31.149 -17.807 31.524 -22 29 C-22 28.34 -22 27.68 -22 27 C-22.66 27 -23.32 27 -24 27 C-25.872 23.256 -25.545 19.076 -25 15 C-23.72 12.019 -22.205 9.392 -20 7 C-19.34 7 -18.68 7 -18 7 C-18 6.34 -18 5.68 -18 5 C-12.202 1.162 -7.068 -1.613 0 0 Z " fill="#FEFEFE" transform="translate(115,69)"/>
<path d="M0 0 C0 0.66 0 1.32 0 2 C0.99 2.33 1.98 2.66 3 3 C4.59 5.217 5.723 7.579 7 10 C5.701 10.041 4.401 10.083 3.062 10.125 C-3.178 10.824 -8.309 13.837 -12.383 18.625 C-13.334 20.034 -14.175 21.514 -15 23 C-15.66 23.99 -16.32 24.98 -17 26 C-17.33 25.67 -17.66 25.34 -18 25 C-18.574 25.313 -19.147 25.626 -19.738 25.949 C-25.952 28.836 -31.748 28.199 -38.055 25.984 C-41.091 24.448 -42.643 22.696 -44.188 19.688 C-45.099 16.672 -45.146 14.134 -45 11 C-43.68 11.33 -42.36 11.66 -41 12 C-41.66 11.34 -42.32 10.68 -43 10 C-43.125 6.875 -43.125 6.875 -43 4 C-42.34 4 -41.68 4 -41 4 C-37 10.75 -37 10.75 -37 13 C-32.38 13 -27.76 13 -23 13 C-22.67 14.98 -22.34 16.96 -22 19 C-22.124 17.824 -22.248 16.649 -22.375 15.438 C-22.359 10.95 -20.921 8.707 -17.836 5.543 C-12.177 0.787 -7.304 -0.522 0 0 Z " fill="#FAFAFA" transform="translate(68,228)"/>
<path d="M0 0 C2.44 3.87 4.166 7.253 5.312 11.688 C7.039 17.956 10.344 25.344 15 30 C15.309 33.473 15.387 35.387 13.5 38.375 C13.005 38.911 12.51 39.447 12 40 C11.636 39.541 11.273 39.082 10.898 38.609 C8.361 35.512 6.039 32.825 2.625 30.688 C1.759 30.131 0.892 29.574 0 29 C0 28.34 0 27.68 0 27 C-0.712 26.876 -1.423 26.752 -2.156 26.625 C-6.022 25.775 -9.59 24.348 -13.281 22.938 C-15.85 22.052 -18.327 21.465 -21 21 C-21.366 14.649 -21.366 14.649 -19.625 11.562 C-18 10 -18 10 -16 10 C-15.67 9.01 -15.34 8.02 -15 7 C-12.891 5.176 -12.891 5.176 -10.25 3.312 C-8.958 2.379 -8.958 2.379 -7.641 1.426 C-4.791 -0.113 -3.183 -0.303 0 0 Z " fill="#FFFFFF" transform="translate(95,111)"/>
<path d="M0 0 C5.14 1.402 8.796 4.854 12 9 C12 9.99 12 10.98 12 12 C12.99 12.33 13.98 12.66 15 13 C13 14 13 14 9.938 13.812 C2.861 14.149 -2.176 16.7 -6.938 21.938 C-11.392 27.521 -12.592 33.123 -14 40 C-17.337 38.827 -19.774 37.811 -22 35 C-22 34.34 -22 33.68 -22 33 C-22.66 33 -23.32 33 -24 33 C-24 32.34 -24 31.68 -24 31 C-24.99 30.67 -25.98 30.34 -27 30 C-27.33 29.01 -27.66 28.02 -28 27 C-27.34 27 -26.68 27 -26 27 C-25.67 27.66 -25.34 28.32 -25 29 C-24.879 28.408 -24.758 27.817 -24.633 27.207 C-22.729 18.228 -20.019 10.955 -11.973 5.668 C-8.126 3.697 -4.141 2.242 0 1 C0 0.67 0 0.34 0 0 Z " fill="#DEDEDE" transform="translate(95,48)"/>
<path d="M0 0 C0 0.66 0 1.32 0 2 C0.66 2 1.32 2 2 2 C3.714 3.959 5.384 5.959 7 8 C6.34 8 5.68 8 5 8 C5 8.99 5 9.98 5 11 C0.657 15 0.657 15 -2 15 C-2.33 15.99 -2.66 16.98 -3 18 C-4.949 19.606 -7.003 20.982 -9.09 22.402 C-11.143 24.12 -11.988 25.548 -13 28 C-13.99 27.67 -14.98 27.34 -16 27 C-16.99 29.475 -16.99 29.475 -18 32 C-21.893 30.414 -24.486 28.376 -27 25 C-27.923 18.904 -25.382 13.958 -21.875 9.145 C-16.341 2.815 -8.55 -4.526 0 0 Z " fill="#FDFDFD" transform="translate(268,197)"/>
<path d="M0 0 C3.536 0.578 5.21 1.827 7.688 4.375 C8.289 4.981 8.891 5.587 9.512 6.211 C12.022 9.229 12.117 11.921 12.062 15.688 C12.053 16.496 12.044 17.304 12.035 18.137 C12.024 18.752 12.012 19.366 12 20 C12.928 19.361 13.856 18.721 14.812 18.062 C20.006 15.074 26.469 14.261 32.332 15.488 C32.882 15.657 33.433 15.826 34 16 C34 16.66 34 17.32 34 18 C34.743 18.268 35.485 18.536 36.25 18.812 C38.891 19.953 40.856 21.094 43 23 C43 23.66 43 24.32 43 25 C43.804 25.289 44.609 25.578 45.438 25.875 C48 27 48 27 49 29 C51.527 29.656 51.527 29.656 54 30 C53.67 29.072 53.34 28.144 53 27.188 C52 24 52 24 52 21 C54.31 22.65 56.62 24.3 59 26 C59.928 25.484 60.856 24.969 61.812 24.438 C65 23 65 23 68 24 C64.04 26.329 60.287 28.336 56 30 C53.895 30.872 51.79 31.747 49.688 32.625 C48.619 33.071 47.55 33.517 46.449 33.977 C45.641 34.314 44.833 34.652 44 35 C44.33 34.01 44.66 33.02 45 32 C45.99 31.505 45.99 31.505 47 31 C44.338 28.338 42.732 28.282 39 28 C34.656 28.772 34.656 28.772 31 31 C31.66 31.66 32.32 32.32 33 33 C31.68 33.66 30.36 34.32 29 35 C26.959 33.384 24.959 31.714 23 30 C23 29.34 23 28.68 23 28 C22.01 27.67 21.02 27.34 20 27 C21.21 29.859 22.515 31.576 24.625 33.938 C27 37 27 37 27.438 39.562 C26.957 42.239 26.008 44.48 25 47 C24.832 49.709 24.832 49.709 25 52 C24.546 51.526 24.093 51.051 23.625 50.562 C22.067 48.91 22.067 48.91 20 48 C21.109 44.513 22.263 41.225 24 38 C22.68 37.67 21.36 37.34 20 37 C20.33 36.01 20.66 35.02 21 34 C20.34 33.381 19.68 32.763 19 32.125 C17 30 17 30 17 28 C16.01 28 15.02 28 14 28 C14 27.01 14 26.02 14 25 C15.32 25 16.64 25 18 25 C17.505 24.01 17.505 24.01 17 23 C17.99 22.67 18.98 22.34 20 22 C22.188 23.312 22.188 23.312 24 25 C24 25.66 24 26.32 24 27 C24.99 27.33 25.98 27.66 27 28 C27 28.66 27 29.32 27 30 C27.687 29.711 28.374 29.422 29.082 29.125 C29.983 28.754 30.884 28.382 31.812 28 C32.706 27.629 33.599 27.257 34.52 26.875 C37 26 37 26 40 26 C40 25.34 40 24.68 40 24 C39.196 23.629 39.196 23.629 38.375 23.25 C36 22 36 22 33.125 19.875 C28.019 16.812 23.652 17.923 18 19 C18 19.66 18 20.32 18 21 C16.342 22.014 14.673 23.011 13 24 C11.626 25.291 10.291 26.626 9 28 C7.667 29.333 6.333 30.667 5 32 C6.125 29.028 7.223 26.666 9 24 C9.393 21.166 9.393 21.166 9.375 18.062 C9.418 16.502 9.418 16.502 9.461 14.91 C8.888 11.292 7.925 10.152 5 8 C0.357 6.833 -3.848 7.605 -7.938 10 C-8.948 10.66 -9.959 11.32 -11 12 C-11.66 12 -12.32 12 -13 12 C-13 12.66 -13 13.32 -13 14 C-13.66 14 -14.32 14 -15 14 C-15.289 14.763 -15.578 15.526 -15.875 16.312 C-17 19 -17 19 -19 22 C-19.242 24.974 -19.242 24.974 -19.125 28.188 C-19.098 29.818 -19.098 29.818 -19.07 31.48 C-19.047 32.312 -19.024 33.143 -19 34 C-18.34 34 -17.68 34 -17 34 C-16.67 34.99 -16.34 35.98 -16 37 C-16.66 37 -17.32 37 -18 37 C-18 36.34 -18 35.68 -18 35 C-18.99 34.67 -19.98 34.34 -21 34 C-22.448 31.104 -23 29.258 -23 26 C-23.66 25.67 -24.32 25.34 -25 25 C-22.737 16.9 -19.857 11.084 -13 6 C-8.256 3.407 -3.328 2.555 2 2 C1.34 1.34 0.68 0.68 0 0 Z " fill="#000000" transform="translate(110,62)"/>
<path d="M0 0 C2.418 2.418 2.348 3.168 2.438 6.5 C2.369 11.738 0.713 15.306 -1.906 19.773 C-3.294 22.185 -3.294 22.185 -3 26 C-2.34 26.66 -1.68 27.32 -1 28 C0.32 26.68 1.64 25.36 3 24 C3.495 24.99 3.495 24.99 4 26 C3.34 26 2.68 26 2 26 C1.34 27.65 0.68 29.3 0 31 C0.66 31 1.32 31 2 31 C2 31.66 2 32.32 2 33 C1.34 33 0.68 33 0 33 C0 33.66 0 34.32 0 35 C-0.66 35 -1.32 35 -2 35 C-2.206 35.722 -2.412 36.444 -2.625 37.188 C-4.475 40.972 -6.602 42.523 -10 45 C-10.66 45 -11.32 45 -12 45 C-12 45.66 -12 46.32 -12 47 C-15.96 47.99 -19.92 48.98 -24 50 C-24 49.34 -24 48.68 -24 48 C-24.99 48 -25.98 48 -27 48 C-28.688 45.5 -28.688 45.5 -30 43 C-30.99 43.107 -31.98 43.214 -33 43.324 C-40.329 44.022 -46.254 44.442 -53 41 C-51 40 -51 40 -47.938 41 C-42.359 42.708 -37.256 41.752 -31.812 39.938 C-29.113 38.078 -27.969 36.75 -26.125 34.125 C-22.67 29.239 -18.648 25.834 -12.711 24.477 C-10.817 24.229 -8.908 24.102 -7 24 C-9.376 19.853 -9.376 19.853 -13 17 C-12.67 16.34 -12.34 15.68 -12 15 C-10.291 16.623 -8.626 18.293 -7 20 C-7 20.66 -7 21.32 -7 22 C-3.404 18.9 -1.132 15.612 0 11 C0.233 7.317 0.18 3.684 0 0 Z " fill="#9C9C9C" transform="translate(81,213)"/>
<path d="M0 0 C1.152 3.455 0.845 3.868 -0.5 7.062 C-2.388 12.256 -1.93 16.633 -1 22 C-0.34 22 0.32 22 1 22 C1 22.66 1 23.32 1 24 C4.96 24.33 8.92 24.66 13 25 C13 25.99 13 26.98 13 28 C12.01 28.495 12.01 28.495 11 29 C11 30.32 11 31.64 11 33 C13.97 33.33 16.94 33.66 20 34 C20 34.33 20 34.66 20 35 C16.535 35.495 16.535 35.495 13 36 C14.32 36.99 15.64 37.98 17 39 C16.505 39.99 16.505 39.99 16 41 C13.416 39.2 11.066 37.387 9 35 C8.562 31.125 8.562 31.125 9 28 C4.519 27.277 4.519 27.277 0 27 C-0.083 28.093 -0.165 29.186 -0.25 30.312 C-1 34 -1 34 -3.062 35.938 C-4.022 36.463 -4.022 36.463 -5 37 C-4.505 36.257 -4.505 36.257 -4 35.5 C-2.564 31.909 -2.871 28.855 -3 25 C-6.573 23.958 -8.704 23.402 -12.141 24.988 C-17.346 28.565 -19.588 31.85 -21 38 C-20.34 38.99 -19.68 39.98 -19 41 C-15.432 41.736 -15.432 41.736 -12 42 C-15 44 -15 44 -18.188 43.625 C-19.116 43.419 -20.044 43.213 -21 43 C-20.67 43.66 -20.34 44.32 -20 45 C-19.878 46.809 -19.825 48.624 -19.812 50.438 C-19.798 51.406 -19.784 52.374 -19.77 53.371 C-20 56 -20 56 -22 59 C-22.66 58.67 -23.32 58.34 -24 58 C-23.34 55.69 -22.68 53.38 -22 51 C-24.475 51.495 -24.475 51.495 -27 52 C-27 54.64 -27 57.28 -27 60 C-26.34 60.33 -25.68 60.66 -25 61 C-25.66 61 -26.32 61 -27 61 C-27.99 65.29 -28.98 69.58 -30 74 C-31.1 70.7 -30.874 69.769 -30.062 66.5 C-28.22 57.946 -28.87 49.613 -30 41 C-29.34 41.66 -28.68 42.32 -28 43 C-26.35 42.34 -24.7 41.68 -23 41 C-23.186 39.762 -23.371 38.525 -23.562 37.25 C-23.947 34.237 -24.087 31.9 -23 29 C-22.34 29 -21.68 29 -21 29 C-20.732 28.361 -20.464 27.721 -20.188 27.062 C-19 25 -19 25 -16 24 C-16 23.34 -16 22.68 -16 22 C-13.69 21.01 -11.38 20.02 -9 19 C-9 18.34 -9 17.68 -9 17 C-13.209 15.272 -13.209 15.272 -17.625 15.625 C-18.801 15.811 -18.801 15.811 -20 16 C-22.312 14.062 -22.312 14.062 -24 12 C-23.67 11.34 -23.34 10.68 -23 10 C-22.402 10.722 -21.804 11.444 -21.188 12.188 C-18.198 14.319 -18.198 14.319 -15.219 13.598 C-12.44 12.821 -9.717 11.971 -7 11 C-6.876 10.361 -6.752 9.721 -6.625 9.062 C-6.419 8.382 -6.213 7.701 -6 7 C-5.34 6.67 -4.68 6.34 -4 6 C-3.67 6.66 -3.34 7.32 -3 8 C-2.01 5.36 -1.02 2.72 0 0 Z " fill="#000000" transform="translate(145,125)"/>
<path d="M0 0 C2 2 2 2 2.125 5.625 C2.084 6.739 2.043 7.852 2 9 C0.02 9.99 0.02 9.99 -2 11 C-0.68 11.33 0.64 11.66 2 12 C0.68 12.33 -0.64 12.66 -2 13 C-2 13.66 -2 14.32 -2 15 C1.378 15.845 3.675 16.108 7 15 C7.33 13.68 7.66 12.36 8 11 C8 11.99 8 12.98 8 14 C8.66 14 9.32 14 10 14 C10.66 16.31 11.32 18.62 12 21 C12.66 21 13.32 21 14 21 C14 21.99 14 22.98 14 24 C14.832 23.984 14.832 23.984 15.681 23.968 C18.204 23.927 20.727 23.901 23.25 23.875 C24.559 23.85 24.559 23.85 25.895 23.824 C26.739 23.818 27.583 23.811 28.453 23.805 C29.228 23.794 30.003 23.784 30.802 23.773 C33.259 24.027 34.873 24.776 37 26 C35 27 35 27 32.5 26.25 C26.256 25.804 21.068 29.621 16 33 C15.34 33 14.68 33 14 33 C13.233 37.274 12.706 41.533 12.281 45.852 C12.005 47.961 11.557 49.948 11 52 C9.335 47.579 8.756 43.697 8.438 39 C7.512 31.19 4.554 26.211 -0.004 19.926 C-1.704 17.434 -2.594 15.93 -3 13 C-3.66 13 -4.32 13 -5 13 C-6.461 10.353 -7 9.106 -7 6 C-7.66 6 -8.32 6 -9 6 C-8.67 5.01 -8.34 4.02 -8 3 C-8 3.66 -8 4.32 -8 5 C-4.512 4.23 -4.512 4.23 -1 3 C-0.67 2.01 -0.34 1.02 0 0 Z " fill="#545454" transform="translate(41,7)"/>
<path d="M0 0 C2.283 0.369 4.553 0.821 6.812 1.312 C8.056 1.577 9.3 1.841 10.582 2.113 C16.127 3.552 16.127 3.552 18 5 C19.104 7.37 19.962 9.531 20.75 12 C20.97 12.642 21.191 13.284 21.418 13.945 C23 18.642 23 18.642 23 21 C17.173 23.428 11.224 23.617 5 24 C4.734 22.926 4.469 21.852 4.195 20.746 C3.839 19.31 3.482 17.874 3.125 16.438 C2.951 15.733 2.777 15.029 2.598 14.303 C1.487 9.84 0.288 5.415 -1 1 C-0.67 0.67 -0.34 0.34 0 0 Z " fill="#FFFFFF" transform="translate(119,48)"/>
<path d="M0 0 C0.33 0.99 0.66 1.98 1 3 C-2.435 5.29 -3.985 5.178 -8 5 C-8 6.32 -8 7.64 -8 9 C-4.7 8.67 -1.4 8.34 2 8 C2.33 6.68 2.66 5.36 3 4 C3 4.99 3 5.98 3 7 C3.763 7.186 4.526 7.371 5.312 7.562 C9.056 9.565 9.462 12.155 11 16 C11.99 16.33 12.98 16.66 14 17 C13.505 15.515 13.505 15.515 13 14 C13.66 14 14.32 14 15 14 C15.495 15.98 15.495 15.98 16 18 C17.98 17.34 19.96 16.68 22 16 C23.98 18.97 23.98 18.97 26 22 C25.484 21.67 24.969 21.34 24.438 21 C21.138 19.646 18.53 19.673 15 20 C14.34 20.99 13.68 21.98 13 23 C13.626 25.013 14.298 27.012 15 29 C15.125 32.375 15.125 32.375 15 35 C14.67 35 14.34 35 14 35 C13.01 31.37 12.02 27.74 11 24 C7.422 24 5.164 25.109 1.938 26.539 C1.298 26.691 0.659 26.843 0 27 C-0.99 26.34 -1.98 25.68 -3 25 C-1.68 24.34 -0.36 23.68 1 23 C0.724 21.059 0.724 21.059 0 19 C-0.99 18.34 -1.98 17.68 -3 17 C-3 16.34 -3 15.68 -3 15 C-3.619 14.691 -4.237 14.381 -4.875 14.062 C-6.25 13.375 -7.625 12.688 -9 12 C-8.67 14.64 -8.34 17.28 -8 20 C-10 18 -10 18 -10.125 14.875 C-10.084 13.926 -10.043 12.977 -10 12 C-11.258 12.33 -12.516 12.66 -13.812 13 C-16.39 13.676 -18.302 14 -21 14 C-20.67 13.01 -20.34 12.02 -20 11 C-16.7 10.67 -13.4 10.34 -10 10 C-10 9.34 -10 8.68 -10 8 C-11.237 8.351 -12.475 8.701 -13.75 9.062 C-16.903 9.956 -18.868 10.009 -22 9 C-17.879 7.002 -14.548 6.822 -10 7 C-9.897 6.216 -9.794 5.432 -9.688 4.625 C-8.314 -0.618 -4.659 -0.207 0 0 Z " fill="#0C0C0C" transform="translate(106,27)"/>
<path d="M0 0 C-1.32 0.33 -2.64 0.66 -4 1 C-4 1.66 -4 2.32 -4 3 C-3.34 3 -2.68 3 -2 3 C-2.33 3.66 -2.66 4.32 -3 5 C-3.412 4.526 -3.825 4.051 -4.25 3.562 C-6.2 1.821 -7.489 1.534 -10 1 C-9.555 1.568 -9.111 2.137 -8.652 2.723 C-4 9.071 -4 9.071 -4 13.938 C-5 17 -5 17 -7 19 C-6.125 14.25 -6.125 14.25 -5 12 C-9.393 10.437 -9.393 10.437 -14 10 C-13.67 8.02 -13.34 6.04 -13 4 C-15.636 3 -16.825 2.944 -19.551 3.82 C-25.135 6.459 -30.121 9.205 -35 13 C-34.67 14.98 -34.34 16.96 -34 19 C-33.01 18.536 -33.01 18.536 -32 18.062 C-28.99 16.996 -26.167 16.55 -22.996 16.227 C-21.192 16.022 -19.405 15.675 -17.625 15.312 C-16.759 15.209 -15.892 15.106 -15 15 C-14.34 15.66 -13.68 16.32 -13 17 C-13.996 17.147 -13.996 17.147 -15.012 17.297 C-20.326 18.197 -24.168 18.929 -28 23 C-29.851 25.609 -30.062 26.545 -29.625 29.75 C-29.419 30.493 -29.212 31.235 -29 32 C-28.34 32 -27.68 32 -27 32 C-25.618 30.374 -24.281 28.707 -23 27 C-22.34 27.33 -21.68 27.66 -21 28 C-21.825 28.784 -22.65 29.567 -23.5 30.375 C-26.641 34.056 -26.417 37.355 -26.176 42.023 C-26.118 42.676 -26.06 43.328 -26 44 C-26.66 43.67 -27.32 43.34 -28 43 C-29.262 38.525 -29.262 38.525 -28 36 C-29.485 36.495 -29.485 36.495 -31 37 C-33.156 37.203 -33.156 37.203 -35.5 37.25 C-36.273 37.276 -37.047 37.302 -37.844 37.328 C-40.488 36.926 -41.332 36.031 -43 34 C-42.67 33.34 -42.34 32.68 -42 32 C-41.67 32.99 -41.34 33.98 -41 35 C-40.34 35 -39.68 35 -39 35 C-36.352 28.191 -34.603 22.19 -37 15 C-37.66 14.67 -38.32 14.34 -39 14 C-34.011 9.277 -29.319 5.703 -23 3 C-21.824 2.423 -20.649 1.845 -19.438 1.25 C-13.352 -1.015 -6.398 -0.225 0 0 Z " fill="#202020" transform="translate(73,205)"/>
<path d="M0 0 C0.33 0 0.66 0 1 0 C3.228 8.288 4.304 16.271 4.738 24.816 C4.813 26.245 4.813 26.245 4.89 27.702 C5.089 31.665 5.276 35.628 5.43 39.593 C5.549 42.523 5.704 45.45 5.863 48.379 C5.889 49.272 5.914 50.164 5.94 51.084 C6.144 55.733 6.144 55.733 8.409 59.636 C9.886 60.827 11.439 61.922 13 63 C13 63.66 13 64.32 13 65 C13.66 65 14.32 65 15 65 C15 65.66 15 66.32 15 67 C15.99 67.495 15.99 67.495 17 68 C13 68 13 68 10 66 C10 65.34 10 64.68 10 64 C9.01 63.67 8.02 63.34 7 63 C7 62.34 7 61.68 7 61 C4.03 60.67 1.06 60.34 -2 60 C-1.34 59.01 -0.68 58.02 0 57 C-0.65 56.446 -1.299 55.891 -1.969 55.32 C-2.804 54.596 -3.639 53.871 -4.5 53.125 C-5.335 52.406 -6.171 51.686 -7.031 50.945 C-7.681 50.303 -8.331 49.661 -9 49 C-9 48.34 -9 47.68 -9 47 C-9.897 46.567 -9.897 46.567 -10.812 46.125 C-13 45 -13 45 -16 43 C-16 42.34 -16 41.68 -16 41 C-16.804 40.66 -16.804 40.66 -17.625 40.312 C-20 39 -20 39 -22.688 36.375 C-26.031 33.444 -28.942 33.576 -33.242 33.824 C-33.822 33.882 -34.402 33.94 -35 34 C-35 33.67 -35 33.34 -35 33 C-28.637 31.422 -23.457 30.641 -17 32 C-16.01 32.66 -15.02 33.32 -14 34 C-15.32 34 -16.64 34 -18 34 C-17.812 36.445 -17.812 36.445 -17 39 C-15.688 39.707 -14.35 40.368 -13 41 C-11.718 41.959 -10.467 42.96 -9.25 44 C-8.33 44.773 -8.33 44.773 -7.391 45.562 C-6 47 -6 47 -6 49 C-5.01 49 -4.02 49 -3 49 C-3 49.66 -3 50.32 -3 51 C-2.34 51 -1.68 51 -1 51 C-0.67 48.03 -0.34 45.06 0 42 C0.33 42 0.66 42 1 42 C1.049 42.843 1.098 43.686 1.148 44.555 C1.223 45.65 1.298 46.746 1.375 47.875 C1.479 49.511 1.479 49.511 1.586 51.18 C1.733 54.13 1.733 54.13 4 56 C4.113 49.889 3.896 44.048 3 38 C2.34 38.66 1.68 39.32 1 40 C-0.32 40 -1.64 40 -3 40 C-2.67 38.35 -2.34 36.7 -2 35 C0.475 34.505 0.475 34.505 3 34 C2.885 31.02 2.758 28.042 2.625 25.062 C2.594 24.232 2.563 23.401 2.531 22.545 C2.296 17.517 1.667 12.844 0.428 7.963 C-0.155 5.289 -0.14 2.723 0 0 Z " fill="#030303" transform="translate(205,87)"/>
<path d="M0 0 C1.707 1.281 3.374 2.618 5 4 C5 4.66 5 5.32 5 6 C5.66 6 6.32 6 7 6 C9.625 8.312 9.625 8.312 12 11 C12 11.99 12 12.98 12 14 C11.01 14.33 10.02 14.66 9 15 C9 15.66 9 16.32 9 17 C7.753 17.651 6.502 18.296 5.25 18.938 C4.554 19.297 3.858 19.657 3.141 20.027 C1.098 20.956 -0.811 21.532 -3 22 C-8.371 10.478 -8.371 10.478 -10 5 C-6.7 3.35 -3.4 1.7 0 0 Z " fill="#FFFFFF" transform="translate(66,75)"/>
<path d="M0 0 C3.375 0.688 3.375 0.688 4.375 1.688 C4.859 6.451 5.087 9.383 2 13.188 C-0.625 15.688 -0.625 15.688 -2.625 15.688 C-2.625 16.347 -2.625 17.007 -2.625 17.688 C-6.234 18.891 -8.839 19.093 -12.625 18.688 C-14.75 16.625 -14.75 16.625 -15.625 13.688 C-13.745 6.671 -7.822 -0.674 0 0 Z " fill="#FFFFFF" transform="translate(138.625,148.3125)"/>
<path d="M0 0 C0.66 0.33 1.32 0.66 2 1 C2 1.66 2 2.32 2 3 C3.286 4.359 3.286 4.359 4.992 5.715 C5.615 6.236 6.237 6.758 6.879 7.295 C7.538 7.837 8.196 8.379 8.875 8.938 C10.167 10.006 11.456 11.077 12.742 12.152 C13.318 12.627 13.894 13.101 14.488 13.59 C16 15 16 15 18 18 C17.897 19.25 17.794 20.501 17.688 21.789 C17.62 24.431 17.704 25.605 19.305 27.741 C21.135 29.402 23.016 30.901 25 32.375 C27.367 34.217 29.69 36.085 32 38 C32 38.66 32 39.32 32 40 C34.758 40.955 36.134 40.973 39.062 40.375 C42 40 42 40 43.875 41.438 C44.246 41.953 44.618 42.469 45 43 C44.34 42.794 43.68 42.588 43 42.375 C40.016 42.002 38.784 42.26 36 43.125 C32.731 44.066 32.283 44.13 29 42.625 C28.34 42.089 27.68 41.553 27 41 C27.99 40.505 27.99 40.505 29 40 C27.907 39.773 26.814 39.546 25.688 39.312 C21.459 37.808 20.935 36.87 19 33 C18.01 32.34 17.02 31.68 16 31 C14 29 14 29 13 27 C12.01 26.67 11.02 26.34 10 26 C9.34 25.34 8.68 24.68 8 24 C8.66 23.67 9.32 23.34 10 23 C7.219 20.666 7.219 20.666 4.312 21.375 C3.549 21.581 2.786 21.787 2 22 C3.688 20.438 3.688 20.438 6 19 C8.889 19.282 11.243 20.081 14 21 C13.67 19.02 13.34 17.04 13 15 C11.416 15.623 9.833 16.248 8.25 16.875 C7.368 17.223 6.487 17.571 5.578 17.93 C3.326 18.865 1.164 19.878 -1 21 C-1 20.34 -1 19.68 -1 19 C1.97 17.35 4.94 15.7 8 14 C8 13.01 8 12.02 8 11 C7.34 11 6.68 11 6 11 C5.237 10.196 4.474 9.391 3.688 8.562 C0.923 5.927 -0.288 5.318 -4 5 C-4 4.34 -4 3.68 -4 3 C-3.01 3 -2.02 3 -1 3 C-0.67 2.01 -0.34 1.02 0 0 Z " fill="#050505" transform="translate(223,154)"/>
<path d="M0 0 C3.536 0.578 5.21 1.827 7.688 4.375 C8.289 4.981 8.891 5.587 9.512 6.211 C12.746 10.099 12.078 14.225 12 19 C11.34 19 10.68 19 10 19 C9.917 17.927 9.835 16.855 9.75 15.75 C9.24 12.075 9.24 12.075 7.5 9.562 C3.723 7.202 0.335 7.241 -4 8 C-6.553 9.118 -8.651 10.466 -11 12 C-11.66 12 -12.32 12 -13 12 C-13 12.66 -13 13.32 -13 14 C-13.66 14 -14.32 14 -15 14 C-15.289 14.763 -15.578 15.526 -15.875 16.312 C-17 19 -17 19 -19 22 C-19.242 24.974 -19.242 24.974 -19.125 28.188 C-19.098 29.818 -19.098 29.818 -19.07 31.48 C-19.047 32.312 -19.024 33.143 -19 34 C-18.34 34 -17.68 34 -17 34 C-16.67 34.99 -16.34 35.98 -16 37 C-16.66 37 -17.32 37 -18 37 C-18 36.34 -18 35.68 -18 35 C-18.99 34.67 -19.98 34.34 -21 34 C-22.448 31.104 -23 29.258 -23 26 C-23.66 25.67 -24.32 25.34 -25 25 C-22.737 16.9 -19.857 11.084 -13 6 C-8.256 3.407 -3.328 2.555 2 2 C1.34 1.34 0.68 0.68 0 0 Z " fill="#292929" transform="translate(110,62)"/>
<path d="M0 0 C1.152 3.455 0.845 3.868 -0.5 7.062 C-2.388 12.256 -1.93 16.633 -1 22 C-0.34 22 0.32 22 1 22 C1 22.66 1 23.32 1 24 C4.96 24.33 8.92 24.66 13 25 C13 25.99 13 26.98 13 28 C12.01 28.495 12.01 28.495 11 29 C11 30.32 11 31.64 11 33 C13.97 33.33 16.94 33.66 20 34 C20 34.33 20 34.66 20 35 C16.535 35.495 16.535 35.495 13 36 C14.32 36.99 15.64 37.98 17 39 C16.505 39.99 16.505 39.99 16 41 C13.416 39.2 11.066 37.387 9 35 C8.562 31.125 8.562 31.125 9 28 C4.519 27.277 4.519 27.277 0 27 C-0.083 28.093 -0.165 29.186 -0.25 30.312 C-1 34 -1 34 -3.062 35.938 C-4.022 36.463 -4.022 36.463 -5 37 C-4.505 36.257 -4.505 36.257 -4 35.5 C-2.229 31.073 -2.28 27.014 -3.863 22.586 C-4.557 21.038 -5.276 19.501 -6.027 17.98 C-7 16 -7 16 -8 13 C-8.66 13.66 -9.32 14.32 -10 15 C-9.34 15.33 -8.68 15.66 -8 16 C-8.33 16.66 -8.66 17.32 -9 18 C-9.887 17.484 -10.774 16.969 -11.688 16.438 C-14.822 14.696 -14.822 14.696 -17.625 15.562 C-18.801 15.779 -18.801 15.779 -20 16 C-22.312 14.062 -22.312 14.062 -24 12 C-23.67 11.34 -23.34 10.68 -23 10 C-22.402 10.722 -21.804 11.444 -21.188 12.188 C-18.198 14.319 -18.198 14.319 -15.219 13.598 C-12.44 12.821 -9.717 11.971 -7 11 C-6.876 10.361 -6.752 9.721 -6.625 9.062 C-6.419 8.382 -6.213 7.701 -6 7 C-5.34 6.67 -4.68 6.34 -4 6 C-3.67 6.66 -3.34 7.32 -3 8 C-2.01 5.36 -1.02 2.72 0 0 Z " fill="#060606" transform="translate(145,125)"/>
<path d="M0 0 C1.98 0.66 3.96 1.32 6 2 C5.67 2.66 5.34 3.32 5 4 C4.903 5.79 4.87 7.583 4.875 9.375 C4.872 10.331 4.87 11.288 4.867 12.273 C4.986 14.718 5.136 16.714 6 19 C8.49 20.297 8.49 20.297 11 21 C11 21.66 11 22.32 11 23 C11.66 23 12.32 23 13 23 C13 23.66 13 24.32 13 25 C7.965 26.007 4.761 25.974 0 24 C0 23.34 0 22.68 0 22 C-0.66 22 -1.32 22 -2 22 C-4.808 16.715 -3.877 11.974 -2.258 6.484 C-1.539 4.309 -0.791 2.15 0 0 Z " fill="#FFFFFF" transform="translate(146,125)"/>
<path d="M0 0 C3.914 1.269 5.791 2.512 8 6 C7.67 6.66 7.34 7.32 7 8 C5.732 7.474 5.732 7.474 4.438 6.938 C-0.277 5.652 -3.738 5.863 -8.152 8.082 C-11.625 10.161 -13.718 11.577 -16 15 C-16.66 15 -17.32 15 -18 15 C-20.574 21.273 -20.84 27.494 -19 34 C-17.68 34 -16.36 34 -15 34 C-14.34 33.01 -13.68 32.02 -13 31 C-12.875 37.75 -12.875 37.75 -14 40 C-17.337 38.827 -19.774 37.811 -22 35 C-22 34.34 -22 33.68 -22 33 C-22.66 33 -23.32 33 -24 33 C-24 32.34 -24 31.68 -24 31 C-24.99 30.67 -25.98 30.34 -27 30 C-27.33 29.01 -27.66 28.02 -28 27 C-27.34 27 -26.68 27 -26 27 C-25.67 27.66 -25.34 28.32 -25 29 C-24.879 28.408 -24.758 27.817 -24.633 27.207 C-22.729 18.228 -20.019 10.955 -11.973 5.668 C-8.126 3.697 -4.141 2.242 0 1 C0 0.67 0 0.34 0 0 Z " fill="#1E1E1E" transform="translate(95,48)"/>
<path d="M0 0 C0.873 3.411 1.283 5.34 -0.125 8.625 C-2.314 11.397 -3.933 13.2 -7 15 C-10.032 15.321 -12.964 15.238 -16 15 C-16.864 11.624 -17.263 9.651 -15.938 6.375 C-11.17 0.531 -7.18 -0.495 0 0 Z " fill="#E4E4E4" transform="translate(75,244)"/>
<path d="M0 0 C0.33 0.66 0.66 1.32 1 2 C1.99 2 2.98 2 4 2 C4.062 4.688 4.062 4.688 3 8 C0.797 9.549 -1.433 10.685 -3.871 11.824 C-6.301 12.953 -6.301 12.953 -8 16 C-10.164 16.512 -10.164 16.512 -12.625 16.688 C-13.442 16.753 -14.26 16.819 -15.102 16.887 C-16.041 16.943 -16.041 16.943 -17 17 C-19 14 -19 14 -18.84 12 C-16.88 7.332 -11.654 4.765 -7.246 2.727 C-4.846 1.764 -2.442 0.851 0 0 Z " fill="#FBFBFB" transform="translate(56,207)"/>
<path d="M0 0 C0.526 0.681 0.526 0.681 1.062 1.375 C0.433 1.466 -0.196 1.557 -0.845 1.65 C-1.535 1.889 -2.226 2.129 -2.938 2.375 C-4.064 5.106 -4.919 7.608 -5.688 10.438 C-5.908 11.196 -6.128 11.955 -6.355 12.736 C-6.898 14.612 -7.42 16.493 -7.938 18.375 C-8.938 15.375 -8.938 15.375 -7.938 12.375 C-9.588 12.045 -11.238 11.715 -12.938 11.375 C-13.268 12.035 -13.597 12.695 -13.938 13.375 C-14.928 14.035 -15.917 14.695 -16.938 15.375 C-17.597 16.365 -18.257 17.355 -18.938 18.375 C-19.688 16.188 -19.688 16.188 -19.938 13.375 C-18 10.562 -18 10.562 -15.938 8.375 C-16.597 7.715 -17.257 7.055 -17.938 6.375 C-16.287 6.045 -14.637 5.715 -12.938 5.375 C-13.653 3.359 -13.653 3.359 -14.938 1.375 C-16.988 0.57 -16.988 0.57 -18.938 0.375 C-12.63 -3.77 -6.364 -5.338 0 0 Z " fill="#232323" transform="translate(157.9375,92.625)"/>
<path d="M0 0 C0.99 0.99 1.98 1.98 3 3 C1.991 4.758 0.982 6.516 -0.027 8.273 C-2.219 12.163 -2.479 15.583 -2 20 C-1.102 22.148 -1.102 22.148 1 23 C2.155 23 3.31 23 4.5 23 C8 23 8 23 9.938 24.5 C10.463 25.243 10.463 25.243 11 26 C7.276 28.793 4.462 29.477 -0.07 29.289 C-2.958 28.857 -4.761 27.844 -7 26 C-9.25 22.314 -9.242 19.778 -8.691 15.594 C-7.371 10.64 -4.657 6.347 -2 2 C-1.34 2 -0.68 2 0 2 C0 1.34 0 0.68 0 0 Z " fill="#FFFFFF" transform="translate(132,98)"/>
<path d="M0 0 C2.496 3.744 2.641 6.665 2 11 C0.888 14.122 -0.475 17.06 -2 20 C-2.66 20 -3.32 20 -4 20 C-9 14.524 -9 14.524 -9 12 C-9.66 12 -10.32 12 -11 12 C-10.67 13.093 -10.34 14.186 -10 15.312 C-9 19 -9 19 -9 22 C-10.32 21.01 -11.64 20.02 -13 19 C-12.34 22.63 -11.68 26.26 -11 30 C-14.296 25.605 -14.677 23.216 -14 18 C-12.525 11.263 -8.577 6.04 -4 1 C-2 0 -2 0 0 0 Z " fill="#B3B3B3" transform="translate(36,220)"/>
<path d="M0 0 C1.938 1.125 1.938 1.125 3 3 C2.688 6.188 2.688 6.188 2 9 C0.68 9.33 -0.64 9.66 -2 10 C-2.155 10.928 -2.155 10.928 -2.312 11.875 C-3 14 -3 14 -6 16 C-8.227 16.23 -8.227 16.23 -10.625 16.188 C-11.422 16.181 -12.218 16.175 -13.039 16.168 C-15 16 -15 16 -16 15 C-16.141 12.329 -16.042 9.676 -16 7 C-15.34 6.67 -14.68 6.34 -14 6 C-14 6.66 -14 7.32 -14 8 C-13.051 7.505 -12.102 7.01 -11.125 6.5 C-8 5 -8 5 -6 5 C-6 4.34 -6 3.68 -6 3 C-5.67 2.67 -5.34 2.34 -5 2 C-6.32 1.67 -7.64 1.34 -9 1 C-5.724 -0.092 -3.432 -0.286 0 0 Z " fill="#C8C8C8" transform="translate(47,149)"/>
<path d="M0 0 C2 0 2 0 3.625 1.375 C5 3 5 3 5 5 C5.66 5 6.32 5 7 5 C8.056 9.313 8.36 11.986 6.125 15.812 C5.424 16.864 4.722 17.916 4 19 C3.67 19.66 3.34 20.32 3 21 C2.576 20.408 2.152 19.817 1.715 19.207 C-4.457 10.891 -10.473 6.867 -20 3 C-18 2 -18 2 -16.055 2.559 C-15.335 2.849 -14.616 3.139 -13.875 3.438 C-13.151 3.725 -12.426 4.012 -11.68 4.309 C-11.125 4.537 -10.571 4.765 -10 5 C-10 4.67 -10 4.34 -10 4 C-7 4 -7 4 -5.613 5.312 C-4.409 6.875 -3.204 8.438 -2 10 C0.429 6.356 0.162 4.288 0 0 Z " fill="#020202" transform="translate(109,140)"/>
<path d="M0 0 C1.938 1.375 1.938 1.375 3 3 C3 3.66 3 4.32 3 5 C2.004 5.346 2.004 5.346 0.988 5.699 C-4.474 7.717 -8.1 9.527 -12 14 C-13.312 15.028 -14.637 16.041 -16 17 C-18 14 -18 14 -17.875 11.125 C-16.525 6.304 -14.368 3.882 -10.188 1.188 C-6.508 -0.183 -3.896 -0.441 0 0 Z " fill="#FFFFFF" transform="translate(60,222)"/>
<path d="M0 0 C2.625 1.312 2.625 1.312 5 3 C5 3.66 5 4.32 5 5 C5.99 5.33 6.98 5.66 8 6 C8 6.66 8 7.32 8 8 C8.66 8 9.32 8 10 8 C10 8.66 10 9.32 10 10 C11.32 10.33 12.64 10.66 14 11 C12.02 11.99 12.02 11.99 10 13 C7.959 11.384 5.959 9.714 4 8 C4 7.34 4 6.68 4 6 C3.01 5.67 2.02 5.34 1 5 C2.21 7.859 3.515 9.576 5.625 11.938 C8 15 8 15 8.438 17.562 C7.957 20.239 7.008 22.48 6 25 C5.832 27.709 5.832 27.709 6 30 C5.546 29.526 5.093 29.051 4.625 28.562 C3.067 26.91 3.067 26.91 1 26 C2.109 22.513 3.263 19.225 5 16 C3.68 15.67 2.36 15.34 1 15 C1.33 14.01 1.66 13.02 2 12 C1.34 11.381 0.68 10.763 0 10.125 C-2 8 -2 8 -2 6 C-2.99 6 -3.98 6 -5 6 C-5 5.01 -5 4.02 -5 3 C-3.68 3 -2.36 3 -1 3 C-1.33 2.34 -1.66 1.68 -2 1 C-1.34 0.67 -0.68 0.34 0 0 Z " fill="#060606" transform="translate(129,84)"/>
<path d="M0 0 C2.152 3.228 2.201 4.284 2 8 C1.67 7.34 1.34 6.68 1 6 C-4.842 4.603 -4.842 4.603 -10.25 6.812 C-11.611 7.895 -11.611 7.895 -13 9 C-13.743 9.268 -14.485 9.536 -15.25 9.812 C-18.248 11.847 -18.335 14.566 -19 18 C-19.141 20.693 -19.095 23.299 -19 26 C-18.01 26.33 -17.02 26.66 -16 27 C-16.33 27.66 -16.66 28.32 -17 29 C-21.75 28.125 -21.75 28.125 -24 27 C-23.384 16.061 -23.384 16.061 -20 12 C-19.34 12 -18.68 12 -18 12 C-17.791 11.254 -17.582 10.507 -17.367 9.738 C-15.578 6.154 -13.593 5.133 -10.125 3.188 C-9.076 2.583 -8.026 1.978 -6.945 1.355 C-4 0 -4 0 0 0 Z " fill="#FFFFFF" transform="translate(236,169)"/>
<path d="M0 0 C2.418 2.418 2.348 3.168 2.438 6.5 C2.369 11.738 0.713 15.306 -1.906 19.773 C-3.294 22.185 -3.294 22.185 -3 26 C-2.34 26.66 -1.68 27.32 -1 28 C0.32 26.68 1.64 25.36 3 24 C3.33 24.66 3.66 25.32 4 26 C3.34 26 2.68 26 2 26 C1.01 28.475 1.01 28.475 0 31 C0.66 31 1.32 31 2 31 C2 31.66 2 32.32 2 33 C1.34 33 0.68 33 0 33 C0 33.66 0 34.32 0 35 C-0.66 35 -1.32 35 -2 35 C-2.206 35.722 -2.412 36.444 -2.625 37.188 C-4.452 40.926 -6.704 42.492 -10 45 C-10.66 44.67 -11.32 44.34 -12 44 C-11.196 43.526 -10.391 43.051 -9.562 42.562 C-6.01 39.01 -6.114 35.859 -6 31 C-5.01 31 -4.02 31 -3 31 C-3.33 30.01 -3.66 29.02 -4 28 C-7.181 26.409 -10.537 26.594 -14 27 C-16.799 28.461 -16.799 28.461 -19 30 C-19.66 29.67 -20.32 29.34 -21 29 C-16.25 25.319 -12.993 24.413 -7 24 C-9.376 19.853 -9.376 19.853 -13 17 C-12.67 16.34 -12.34 15.68 -12 15 C-10.291 16.623 -8.626 18.293 -7 20 C-7 20.66 -7 21.32 -7 22 C-3.404 18.9 -1.132 15.612 0 11 C0.233 7.317 0.18 3.684 0 0 Z " fill="#000000" transform="translate(81,213)"/>
<path d="M0 0 C0.577 0.495 1.155 0.99 1.75 1.5 C1.75 2.16 1.75 2.82 1.75 3.5 C2.74 3.83 3.73 4.16 4.75 4.5 C4.75 5.16 4.75 5.82 4.75 6.5 C-1.623 7.699 -5.488 7.565 -11.25 4.5 C-11.25 3.84 -11.25 3.18 -11.25 2.5 C-12.209 2.067 -12.209 2.067 -13.188 1.625 C-15.25 0.5 -15.25 0.5 -16.25 -1.5 C-14.671 -1.892 -13.086 -2.263 -11.5 -2.625 C-10.618 -2.834 -9.737 -3.043 -8.828 -3.258 C-4.989 -3.618 -3.106 -2.071 0 0 Z " fill="#FFFFFF" transform="translate(173.25,161.5)"/>
<path d="M0 0 C-0.782 5.083 -4.053 9.77 -8 13 C-8.66 13 -9.32 13 -10 13 C-10 13.66 -10 14.32 -10 15 C-11.65 15.33 -13.3 15.66 -15 16 C-15.33 15.01 -15.66 14.02 -16 13 C-14.742 10.625 -14.742 10.625 -12.875 8 C-12.274 7.134 -11.674 6.268 -11.055 5.375 C-7.63 1.416 -5.265 0 0 0 Z " fill="#FFFFFF" transform="translate(301,237)"/>
<path d="M0 0 C0.99 0.33 1.98 0.66 3 1 C4 4 4 4 3.25 6.5 C1.603 9.794 0.169 11.51 -3.262 12.949 C-4.462 13.315 -4.462 13.315 -5.688 13.688 C-6.9 14.065 -6.9 14.065 -8.137 14.449 C-8.752 14.631 -9.366 14.813 -10 15 C-11.5 13.688 -11.5 13.688 -13 12 C-13 11.01 -13 10.02 -13 9 C-11.927 8.588 -10.855 8.175 -9.75 7.75 C-6.455 6.359 -4.448 4.63 -2 2 C-1.34 2 -0.68 2 0 2 C0 1.34 0 0.68 0 0 Z " fill="#FFFFFF" transform="translate(86,149)"/>
<path d="M0 0 C0 0.66 0 1.32 0 2 C0.66 2 1.32 2 2 2 C2.688 3.812 2.688 3.812 3 6 C1.562 7.75 1.562 7.75 0 9 C0 7.35 0 5.7 0 4 C-2.555 5.283 -2.555 5.283 -5 7 C-5 7.99 -5 8.98 -5 10 C-3.68 10.33 -2.36 10.66 -1 11 C-1.66 11.66 -2.32 12.32 -3 13 C-5.625 12.625 -5.625 12.625 -8 12 C-8 11.34 -8 10.68 -8 10 C-8.66 10 -9.32 10 -10 10 C-11.188 7.812 -11.188 7.812 -12 5 C-9.056 -1.477 -6.624 -1.104 0 0 Z " fill="#1A1A1A" transform="translate(111,80)"/>
<path d="M0 0 C0.536 0.681 1.072 1.361 1.625 2.062 C3.904 4.881 6.249 7.622 8.633 10.352 C10 12 10 12 12 15 C18.603 15.932 24.735 15.046 31 13 C33.937 12.875 33.937 12.875 36 13 C26.493 18.324 14.564 18.573 4 17 C-1.792 15.248 -7.014 12.392 -12 9 C-12.33 8.34 -12.66 7.68 -13 7 C-7.882 8.97 -2.993 11.373 1.941 13.758 C5.067 15.251 5.067 15.251 9 15 C8.495 14.59 7.989 14.18 7.469 13.758 C6.819 13.219 6.169 12.68 5.5 12.125 C4.525 11.324 4.525 11.324 3.531 10.508 C3.026 10.01 2.521 9.513 2 9 C2 8.34 2 7.68 2 7 C0.68 6.67 -0.64 6.34 -2 6 C-1.01 5.67 -0.02 5.34 1 5 C0.34 4.01 -0.32 3.02 -1 2 C-0.67 1.34 -0.34 0.68 0 0 Z " fill="#000000" transform="translate(20,90)"/>
<path d="M0 0 C0.99 0.33 1.98 0.66 3 1 C3 1.66 3 2.32 3 3 C3.66 3 4.32 3 5 3 C6.632 4.707 8.183 6.492 9.688 8.312 C10.516 9.299 11.345 10.285 12.199 11.301 C13.091 12.637 13.091 12.637 14 14 C13 17 13 17 11.223 18.168 C10.51 18.504 9.797 18.841 9.062 19.188 C8.352 19.532 7.642 19.876 6.91 20.23 C5 21 5 21 3 21 C3.33 22.32 3.66 23.64 4 25 C3.34 24.67 2.68 24.34 2 24 C2 23.34 2 22.68 2 22 C1.34 22 0.68 22 0 22 C0.33 23.65 0.66 25.3 1 27 C0.34 26.34 -0.32 25.68 -1 25 C-1 23.68 -1 22.36 -1 21 C1.31 20.34 3.62 19.68 6 19 C5.67 17.824 5.34 16.649 5 15.438 C4.003 11.499 3.831 8.049 4 4 C3.34 4 2.68 4 2 4 C1.34 2.68 0.68 1.36 0 0 Z " fill="#686868" transform="translate(53,59)"/>
<path d="M0 0 C0.33 0.66 0.66 1.32 1 2 C0.67 2.66 0.34 3.32 0 4 C-0.07 5.54 -0.085 7.083 -0.062 8.625 C-0.053 9.442 -0.044 10.26 -0.035 11.102 C-0.024 11.728 -0.012 12.355 0 13 C3.115 14.558 5.655 14.73 9 14 C12.229 12.369 15.266 10.553 18.328 8.629 C21 7 21 7 24 6 C24.33 5.01 24.66 4.02 25 3 C25.66 3.33 26.32 3.66 27 4 C20.135 11.508 10.89 16.94 0.75 18.5 C-2.864 17.843 -5.02 16.111 -8 14 C-11.225 12.757 -11.225 12.757 -14 12 C-11.479 10.74 -10.146 11.081 -7.375 11.438 C-6.558 11.539 -5.74 11.641 -4.898 11.746 C-4.272 11.83 -3.645 11.914 -3 12 C-2.951 11.385 -2.902 10.77 -2.852 10.137 C-2.777 9.328 -2.702 8.52 -2.625 7.688 C-2.521 6.487 -2.521 6.487 -2.414 5.262 C-2 3 -2 3 0 0 Z " fill="#282828" transform="translate(265,253)"/>
<path d="M0 0 C-1.625 6.75 -1.625 6.75 -5 9 C-7.262 9.633 -7.262 9.633 -9.688 10.125 C-11.111 10.414 -12.534 10.702 -14 11 C-15.98 8.69 -17.96 6.38 -20 4 C-19.34 3.67 -18.68 3.34 -18 3 C-18 3.66 -18 4.32 -18 5 C-15.36 5 -12.72 5 -10 5 C-10 3.68 -10 2.36 -10 1 C-2.25 0 -2.25 0 0 0 Z " fill="#FFFFFF" transform="translate(140,129)"/>
<path d="M0 0 C1.65 0.33 3.3 0.66 5 1 C5.196 2.436 5.381 3.874 5.562 5.312 C5.667 6.113 5.771 6.914 5.879 7.738 C6 10 6 10 5 13 C2.125 13.188 2.125 13.188 -1 13 C-3.326 9.511 -3.419 8.103 -3 4 C-1.5 1.625 -1.5 1.625 0 0 Z " fill="#000000" transform="translate(273,291)"/>
<path d="M0 0 C1.32 0 2.64 0 4 0 C6.712 4.068 6.307 6.165 6 11 C4 13 4 13 1.375 13.125 C0.591 13.084 -0.192 13.043 -1 13 C-2.919 10.178 -2.991 8.871 -2.75 5.375 C-2 2 -2 2 0 0 Z " fill="#000000" transform="translate(254,291)"/>
<path d="M0 0 C2.084 3.847 3.497 7.901 5 12 C3.989 11.897 2.979 11.794 1.938 11.688 C-2.506 12.04 -4.09 13.076 -7.422 15.809 C-9 17 -9 17 -12 18 C-12.33 18.99 -12.66 19.98 -13 21 C-13.66 21 -14.32 21 -15 21 C-15 19.68 -15 18.36 -15 17 C-14.34 17 -13.68 17 -13 17 C-12.732 16.361 -12.464 15.721 -12.188 15.062 C-11 13 -11 13 -8 12 C-8 11.34 -8 10.68 -8 10 C-6.866 9.567 -5.731 9.134 -4.562 8.688 C-3.387 8.131 -2.211 7.574 -1 7 C-0.67 6.01 -0.34 5.02 0 4 C-1.65 3.67 -3.3 3.34 -5 3 C-4.361 2.691 -3.721 2.381 -3.062 2.062 C-1.064 1.165 -1.064 1.165 0 0 Z M-16 21 C-15.01 21.495 -15.01 21.495 -14 22 C-14 22.66 -14 23.32 -14 24 C-14.66 24 -15.32 24 -16 24 C-16 23.01 -16 22.02 -16 21 Z " fill="#0D0D0D" transform="translate(137,137)"/>
<path d="M0 0 C4.875 0.875 4.875 0.875 6 2 C6.098 3.664 6.13 5.333 6.125 7 C6.128 7.908 6.13 8.815 6.133 9.75 C6 12 6 12 5 13 C2.562 13.188 2.562 13.188 0 13 C-2.607 10.393 -2.239 8.527 -2.266 4.973 C-2 3 -2 3 0 0 Z " fill="#000000" transform="translate(263,291)"/>
<path d="M0 0 C4.475 2.557 5.981 6.479 8 11 C5.435 13.565 3.523 13.54 0 14 C-0.433 13.237 -0.866 12.474 -1.312 11.688 C-2.737 9.419 -4.033 7.78 -6 6 C-4.02 5.34 -2.04 4.68 0 4 C0 2.68 0 1.36 0 0 Z " fill="#FFFFFF" transform="translate(109,35)"/>
<path d="M0 0 C0.639 0.248 1.279 0.495 1.938 0.75 C2.267 1.74 2.598 2.73 2.938 3.75 C1.288 3.42 -0.363 3.09 -2.062 2.75 C-2.392 3.41 -2.723 4.07 -3.062 4.75 C-2.279 4.709 -1.495 4.668 -0.688 4.625 C1.938 4.75 1.938 4.75 3.938 6.75 C3.382 11.306 3.382 11.306 1.938 12.75 C-0.062 12.791 -2.063 12.793 -4.062 12.75 C-5.557 9.76 -5.178 7.05 -5.062 3.75 C-4.733 2.76 -4.402 1.77 -4.062 0.75 C-2.062 -0.25 -2.062 -0.25 0 0 Z " fill="#000000" transform="translate(305.0625,291.25)"/>
<path d="M0 0 C1.65 0 3.3 0 5 0 C4.453 3.375 3.945 5.082 2 8 C1.758 10.974 1.758 10.974 1.875 14.188 C1.902 15.818 1.902 15.818 1.93 17.48 C1.953 18.312 1.976 19.143 2 20 C2.66 20 3.32 20 4 20 C4.33 20.99 4.66 21.98 5 23 C4.34 23 3.68 23 3 23 C3 22.34 3 21.68 3 21 C2.01 20.67 1.02 20.34 0 20 C-1.448 17.104 -2 15.258 -2 12 C-2.66 11.67 -3.32 11.34 -4 11 C-2.68 7.37 -1.36 3.74 0 0 Z " fill="#343434" transform="translate(89,76)"/>
<path d="M0 0 C2.6 2.302 3.847 4.499 5.188 7.688 C5.532 8.496 5.876 9.304 6.23 10.137 C6.484 10.752 6.738 11.366 7 12 C7.626 11.711 8.253 11.422 8.898 11.125 C9.716 10.754 10.533 10.382 11.375 10 C12.187 9.629 12.999 9.257 13.836 8.875 C16 8 16 8 18 8 C18 7.34 18 6.68 18 6 C18.66 6.33 19.32 6.66 20 7 C16.615 10.585 13.375 13.678 9 16 C5.625 15.75 5.625 15.75 3 15 C3.66 14.67 4.32 14.34 5 14 C4.34 12.35 3.68 10.7 3 9 C2.01 9.66 1.02 10.32 0 11 C-2 8 -2 8 -1.688 5.5 C-1.179 3.651 -0.606 1.819 0 0 Z " fill="#0F0F0F" transform="translate(57,84)"/>
<path d="M0 0 C0.526 0.681 0.526 0.681 1.062 1.375 C0.464 1.478 -0.134 1.581 -0.75 1.688 C-3.22 2.464 -4.26 3.446 -5.938 5.375 C-5.938 4.715 -5.938 4.055 -5.938 3.375 C-7.051 3.231 -8.165 3.086 -9.312 2.938 C-12.938 2.375 -12.938 2.375 -14.938 1.375 C-16.266 1.023 -17.599 0.687 -18.938 0.375 C-12.63 -3.77 -6.364 -5.338 0 0 Z " fill="#FFFFFF" transform="translate(157.9375,92.625)"/>
<path d="M0 0 C-1.207 1.176 -1.207 1.176 -2.438 2.375 C-5.623 5.615 -5.623 5.615 -6.125 9.938 C-6.14 13.042 -6.14 13.042 -5 16 C-7.709 17.354 -10.009 17.065 -13 17 C-12.795 16.432 -12.59 15.863 -12.379 15.277 C-10.709 10.492 -9.536 6.041 -9 1 C-3.375 -1.125 -3.375 -1.125 0 0 Z " fill="#FFFFFF" transform="translate(48,224)"/>
<path d="M0 0 C0.743 0.248 1.485 0.495 2.25 0.75 C1.92 3.72 1.59 6.69 1.25 9.75 C-1.75 10.75 -1.75 10.75 -4.75 9.75 C-5.74 10.74 -6.73 11.73 -7.75 12.75 C-8.697 10.193 -8.795 8.914 -8.062 6.25 C-4.563 -0.415 -4.563 -0.415 0 0 Z M-1.75 0.75 C-0.75 2.75 -0.75 2.75 -0.75 2.75 Z " fill="#787878" transform="translate(147.75,104.25)"/>
<path d="M0 0 C0.99 0.33 1.98 0.66 3 1 C3.354 4.189 3.32 5.569 1.375 8.188 C-1.382 10.292 -3.609 11.279 -7 12 C-7.99 11.34 -8.98 10.68 -10 10 C-10 9.01 -10 8.02 -10 7 C-9.169 6.619 -9.169 6.619 -8.32 6.23 C-7.596 5.886 -6.871 5.542 -6.125 5.188 C-5.406 4.851 -4.686 4.515 -3.945 4.168 C-1.695 3.005 -1.695 3.005 0 0 Z " fill="#FFFFFF" transform="translate(105,170)"/>
<path d="M0 0 C3.083 -0.058 6.166 -0.094 9.25 -0.125 C10.559 -0.15 10.559 -0.15 11.895 -0.176 C12.739 -0.182 13.583 -0.189 14.453 -0.195 C15.228 -0.206 16.003 -0.216 16.802 -0.227 C19.259 0.027 20.873 0.776 23 2 C21 3 21 3 18.5 2.25 C12.256 1.804 7.068 5.621 2 9 C1.01 9 0.02 9 -1 9 C0.204 6.506 1.454 4.319 3 2 C2.01 2.33 1.02 2.66 0 3 C0 2.01 0 1.02 0 0 Z " fill="#252525" transform="translate(55,31)"/>
<path d="M0 0 C0.755 -0.012 1.511 -0.024 2.289 -0.037 C6.599 -0.048 9.632 0.415 13.625 2.188 C14.285 1.857 14.945 1.528 15.625 1.188 C21.449 9.323 24.491 15.24 23.188 25.25 C22.909 26.704 22.909 26.704 22.625 28.188 C22.295 28.188 21.965 28.188 21.625 28.188 C21.621 26.702 21.621 26.702 21.617 25.188 C21.409 15.107 21.409 15.107 16.332 6.641 C9.352 0.699 1.383 1.772 -7.375 2.188 C-10.081 2.418 -12.694 2.75 -15.375 3.188 C-10.159 0.49 -5.817 0.005 0 0 Z " fill="#000000" transform="translate(70.375,195.8125)"/>
<path d="M0 0 C0.33 0 0.66 0 1 0 C4.118 13.079 5.218 25.552 5 39 C4.01 39 3.02 39 2 39 C0.329 39.311 -1.339 39.641 -3 40 C-2.67 38.35 -2.34 36.7 -2 35 C0.475 34.505 0.475 34.505 3 34 C2.885 31.02 2.758 28.042 2.625 25.062 C2.594 24.232 2.563 23.401 2.531 22.545 C2.296 17.517 1.667 12.844 0.428 7.963 C-0.155 5.289 -0.14 2.723 0 0 Z " fill="#1B1B1B" transform="translate(205,87)"/>
<path d="M0 0 C0.66 0 1.32 0 2 0 C2 2.64 2 5.28 2 8 C2.66 8 3.32 8 4 8 C4.33 9.32 4.66 10.64 5 12 C6.32 12 7.64 12 9 12 C9.66 11.01 10.32 10.02 11 9 C11.125 15.75 11.125 15.75 10 18 C6.663 16.827 4.226 15.811 2 13 C2 12.34 2 11.68 2 11 C1.34 11 0.68 11 0 11 C0 10.34 0 9.68 0 9 C-0.99 8.67 -1.98 8.34 -3 8 C-3.33 7.01 -3.66 6.02 -4 5 C-3.34 5 -2.68 5 -2 5 C-1.67 5.66 -1.34 6.32 -1 7 C-0.67 4.69 -0.34 2.38 0 0 Z " fill="#505050" transform="translate(71,70)"/>
<path d="M0 0 C0.33 0 0.66 0 1 0 C1.252 13.633 -0.627 26.028 -10.262 36.445 C-10.835 36.958 -11.409 37.471 -12 38 C-10.218 33.229 -7.853 28.794 -5.391 24.348 C-3.154 20.072 -2.493 16.797 -3 12 C-5.565 9.435 -7.477 9.46 -11 9 C-11 8.67 -11 8.34 -11 8 C-8 8 -5 8 -2 8 C-1.34 5.36 -0.68 2.72 0 0 Z " fill="#000000" transform="translate(316,205)"/>
<path d="M0 0 C4.248 0.472 6.2 2.967 9 6 C7 8 7 8 4.836 8.195 C3.618 8.161 3.618 8.161 2.375 8.125 C1.558 8.107 0.74 8.089 -0.102 8.07 C-0.728 8.047 -1.355 8.024 -2 8 C-2.33 6.35 -2.66 4.7 -3 3 C-2.01 2.67 -1.02 2.34 0 2 C0 1.34 0 0.68 0 0 Z " fill="#FFFFFF" transform="translate(158,151)"/>
<path d="M0 0 C1.65 0.33 3.3 0.66 5 1 C5 1.66 5 2.32 5 3 C5.66 3.33 6.32 3.66 7 4 C5.577 5.083 5.577 5.083 4.125 6.188 C1.326 8.498 0.015 10.448 -1 14 C-1.33 13.01 -1.66 12.02 -2 11 C-2.66 11.66 -3.32 12.32 -4 13 C-4 10.69 -4 8.38 -4 6 C-3.01 5.67 -2.02 5.34 -1 5 C-0.67 3.35 -0.34 1.7 0 0 Z " fill="#A1A1A1" transform="translate(231,187)"/>
<path d="M0 0 C2 2 2 2 2.188 5.562 C2 9 2 9 1 10 C-1.333 10.041 -3.667 10.042 -6 10 C-6.33 8.68 -6.66 7.36 -7 6 C-7.66 6 -8.32 6 -9 6 C-8.67 5.01 -8.34 4.02 -8 3 C-8 3.66 -8 4.32 -8 5 C-4.512 4.23 -4.512 4.23 -1 3 C-0.67 2.01 -0.34 1.02 0 0 Z " fill="#666666" transform="translate(41,7)"/>
<path d="M0 0 C2.64 0 5.28 0 8 0 C8.33 1.32 8.66 2.64 9 4 C8.34 4 7.68 4 7 4 C7 3.34 7 2.68 7 2 C5.02 2 3.04 2 1 2 C1 2.99 1 3.98 1 5 C3.31 5.33 5.62 5.66 8 6 C9.125 10.75 9.125 10.75 8 13 C5.36 13 2.72 13 0 13 C-0.33 11.68 -0.66 10.36 -1 9 C-0.34 9 0.32 9 1 9 C1 9.66 1 10.32 1 11 C2.65 11 4.3 11 6 11 C6.33 10.01 6.66 9.02 7 8 C6.031 7.856 5.061 7.711 4.062 7.562 C1 7 1 7 0 6 C-0.041 4 -0.043 2 0 0 Z " fill="#000000" transform="translate(236,291)"/>
<path d="M0 0 C0.66 0 1.32 0 2 0 C2 0.66 2 1.32 2 2 C2.66 2 3.32 2 4 2 C5.149 5.553 5.087 6.8 3.562 10.312 C2.789 11.643 2.789 11.643 2 13 C-0.34 12.094 -1.697 11.545 -2.938 9.312 C-3.034 5.73 -1.544 3.212 0 0 Z " fill="#FFFFFF" transform="translate(111,144)"/>
<path d="M0 0 C0.33 0.66 0.66 1.32 1 2 C1.66 2 2.32 2 3 2 C3.784 2.825 4.567 3.65 5.375 4.5 C7.879 7.46 7.879 7.46 12 7 C14.25 8.5 14.25 8.5 16 10 C15 11 15 11 12.438 11.062 C11.633 11.042 10.829 11.021 10 11 C10 11.66 10 12.32 10 13 C9.01 13.33 8.02 13.66 7 14 C6.423 12.927 5.845 11.855 5.25 10.75 C3.516 7.697 1.637 5.354 -1 3 C-0.67 2.01 -0.34 1.02 0 0 Z " fill="#FFFFFF" transform="translate(130,88)"/>
<path d="M0 0 C0.33 2.64 0.66 5.28 1 8 C1.66 8 2.32 8 3 8 C3 8.66 3 9.32 3 10 C-1.495 8.746 -4.591 7.214 -8 4 C-8.33 3.01 -8.66 2.02 -9 1 C-5.804 -0.065 -3.343 -0.074 0 0 Z " fill="#C7C7C7" transform="translate(96,39)"/>
<path d="M0 0 C0.33 0.99 0.66 1.98 1 3 C-2.435 5.29 -3.985 5.178 -8 5 C-8.66 6.32 -9.32 7.64 -10 9 C-10.866 8.979 -11.733 8.959 -12.625 8.938 C-15.859 8.997 -18.828 9.396 -22 10 C-17.581 7.054 -15.322 6.901 -10 7 C-9.897 6.216 -9.794 5.432 -9.688 4.625 C-8.314 -0.618 -4.659 -0.207 0 0 Z " fill="#373737" transform="translate(106,27)"/>
<path d="M0 0 C1.98 0 3.96 0 6 0 C6 0.99 6 1.98 6 3 C4.35 3 2.7 3 1 3 C1 3.66 1 4.32 1 5 C2.65 5 4.3 5 6 5 C7.125 10.75 7.125 10.75 6 13 C3.69 13 1.38 13 -1 13 C-1.33 12.01 -1.66 11.02 -2 10 C-1.01 10 -0.02 10 1 10 C1 10.66 1 11.32 1 12 C1.99 11.67 2.98 11.34 4 11 C4.733 8.985 4.733 8.985 5 7 C3.68 6.67 2.36 6.34 1 6 C1 6.66 1 7.32 1 8 C0.34 8 -0.32 8 -1 8 C-1.125 2.25 -1.125 2.25 0 0 Z " fill="#000000" transform="translate(282,291)"/>
<path d="M0 0 C1.32 0.33 2.64 0.66 4 1 C3.67 2.32 3.34 3.64 3 5 C3.99 4.67 4.98 4.34 6 4 C5.67 10.27 5.34 16.54 5 23 C2.745 19.617 1.911 16.947 1.465 12.988 C1.378 12.231 1.291 11.474 1.201 10.693 C1.071 9.515 1.071 9.515 0.938 8.312 C0.847 7.515 0.756 6.718 0.662 5.896 C0.439 3.931 0.219 1.966 0 0 Z " fill="#1F1F1F" transform="translate(48,36)"/>
<path d="M0 0 C0.375 2.188 0.375 2.188 0 5 C-2.867 8.001 -4.678 9.856 -8.875 10.312 C-9.927 10.158 -9.927 10.158 -11 10 C-10.443 9.752 -9.886 9.505 -9.312 9.25 C-5.374 7.121 -2.443 5.329 -1 1 C-1.722 1.454 -2.444 1.907 -3.188 2.375 C-6 4 -6 4 -8.688 5.062 C-11.143 5.883 -11.143 5.883 -13 8 C-12.666 4.907 -12.44 3.411 -10.125 1.25 C-6.329 -0.983 -4.18 -1.017 0 0 Z " fill="#1A1A1A" transform="translate(107,201)"/>
<path d="M0 0 C0.66 0.33 1.32 0.66 2 1 C1.783 1.58 1.567 2.16 1.344 2.758 C-0.284 7.326 -1.379 11.078 -1 16 C-1.66 15.67 -2.32 15.34 -3 15 C-3 12.03 -3 9.06 -3 6 C-3.825 6.165 -4.65 6.33 -5.5 6.5 C-9.465 7.066 -12.997 7.2 -17 7 C-17.66 6.34 -18.32 5.68 -19 5 C-18.42 5.023 -17.84 5.046 -17.242 5.07 C-10.468 5.227 -5.339 4.518 0 0 Z " fill="#040404" transform="translate(113,94)"/>
<path d="M0 0 C1.98 0 3.96 0 6 0 C5.688 2.875 5.688 2.875 5 6 C2 8 2 8 -0.688 7.625 C-1.451 7.419 -2.214 7.213 -3 7 C-3 5.68 -3 4.36 -3 3 C-2.34 3 -1.68 3 -1 3 C-0.67 2.01 -0.34 1.02 0 0 Z " fill="#2E2E2E" transform="translate(132,154)"/>
<path d="M0 0 C0.66 0 1.32 0 2 0 C2 5.61 2 11.22 2 17 C1.01 16.67 0.02 16.34 -1 16 C-1 12.37 -1 8.74 -1 5 C-1.99 5 -2.98 5 -4 5 C-4 4.34 -4 3.68 -4 3 C-3.01 2.67 -2.02 2.34 -1 2 C-0.67 1.34 -0.34 0.68 0 0 Z " fill="#000000" transform="translate(260,111)"/>
<path d="M0 0 C0 0.99 0 1.98 0 3 C1.32 3.33 2.64 3.66 4 4 C2.25 4.688 2.25 4.688 0 5 C-2.25 3.562 -2.25 3.562 -4 2 C-3.67 4.64 -3.34 7.28 -3 10 C-5 8 -5 8 -5.125 4.875 C-5.084 3.926 -5.043 2.977 -5 2 C-6.258 2.33 -7.516 2.66 -8.812 3 C-11.39 3.676 -13.302 4 -16 4 C-15.67 3.01 -15.34 2.02 -15 1 C-13.44 0.634 -11.877 0.282 -10.312 -0.062 C-9.442 -0.26 -8.572 -0.457 -7.676 -0.66 C-4.84 -1.02 -2.752 -0.709 0 0 Z " fill="#000000" transform="translate(101,37)"/>
<path d="M0 0 C0.33 0.99 0.66 1.98 1 3 C1.804 3.248 2.609 3.495 3.438 3.75 C6 5 6 5 7.312 8.625 C7.539 9.739 7.766 10.852 8 12 C7.01 11.34 6.02 10.68 5 10 C5 9.34 5 8.68 5 8 C4.34 7.67 3.68 7.34 3 7 C2.67 6.34 2.34 5.68 2 5 C1.67 5.99 1.34 6.98 1 8 C-1.709 9.354 -4.009 9.065 -7 9 C-7 8.01 -7 7.02 -7 6 C-4.69 5.34 -2.38 4.68 0 4 C0 2.68 0 1.36 0 0 Z " fill="#3E3E3E" transform="translate(108,31)"/>
<path d="M0 0 C2.97 0 5.94 0 9 0 C8.196 3.216 7.297 5.769 5.938 8.75 C5.394 9.949 5.394 9.949 4.84 11.172 C4.563 11.775 4.286 12.378 4 13 C3.34 13 2.68 13 2 13 C2.557 9.656 3.352 6.967 5 4 C3.35 3.67 1.7 3.34 0 3 C0 2.01 0 1.02 0 0 Z " fill="#000000" transform="translate(290,291)"/>
<path d="M0 0 C1.625 -0.054 3.25 -0.093 4.875 -0.125 C5.78 -0.148 6.685 -0.171 7.617 -0.195 C10 0 10 0 12 2 C14.316 3.038 16.649 4.042 19 5 C18.67 5.66 18.34 6.32 18 7 C13.05 5.68 8.1 4.36 3 3 C3 2.34 3 1.68 3 1 C2.01 0.67 1.02 0.34 0 0 Z " fill="#828282" transform="translate(118,46)"/>
<path d="M0 0 C1.5 1.188 1.5 1.188 3 3 C3.188 5.688 3.188 5.688 3 8 C1.188 9.062 1.188 9.062 -1 10 C-4 9 -4 9 -6 8 C-6 7.34 -6 6.68 -6 6 C-5.01 5.67 -4.02 5.34 -3 5 C-1.301 2.502 -1.301 2.502 0 0 Z " fill="#A4A4A4" transform="translate(45,14)"/>
<path d="M0 0 C0.66 0 1.32 0 2 0 C3.625 2 3.625 2 5 4 C4.34 4.66 3.68 5.32 3 6 C2.357 8.069 2.357 8.069 2 10 C1.01 10 0.02 10 -1 10 C-2.188 7.812 -2.188 7.812 -3 5 C-1.75 2.188 -1.75 2.188 0 0 Z " fill="#515151" transform="translate(102,80)"/>
<path d="M0 0 C1 1 1 1 1.062 4.062 C1.042 5.032 1.021 6.001 1 7 C0.67 7 0.34 7 0 7 C-0.33 5.35 -0.66 3.7 -1 2 C-1.66 2 -2.32 2 -3 2 C-4.207 3.238 -4.207 3.238 -5.438 4.5 C-8 7 -8 7 -11 7 C-10.688 4.625 -10.688 4.625 -10 2 C-6.343 -0.438 -4.31 -0.239 0 0 Z " fill="#535353" transform="translate(108,169)"/>
<path d="M0 0 C0.66 0.33 1.32 0.66 2 1 C2.66 1 3.32 1 4 1 C3.34 2.65 2.68 4.3 2 6 C1.34 6 0.68 6 0 6 C-0.33 7.32 -0.66 8.64 -1 10 C-1.66 10 -2.32 10 -3 10 C-3.33 10.99 -3.66 11.98 -4 13 C-4.492 5.738 -4.492 5.738 -2 2 C-1.34 1.34 -0.68 0.68 0 0 Z " fill="#5B5B5B" transform="translate(223,180)"/>
<path d="M0 0 C0.99 0.66 1.98 1.32 3 2 C5.671 1.198 5.671 1.198 8 0 C8 0.66 8 1.32 8 2 C7.34 2 6.68 2 6 2 C6 2.66 6 3.32 6 4 C5.34 4 4.68 4 4 4 C3.794 4.722 3.588 5.444 3.375 6.188 C1.548 9.926 -0.704 11.492 -4 14 C-4.66 13.67 -5.32 13.34 -6 13 C-5.196 12.526 -4.391 12.051 -3.562 11.562 C-0.01 8.01 -0.114 4.859 0 0 Z " fill="#060606" transform="translate(75,244)"/>
<path d="M0 0 C0.99 0.33 1.98 0.66 3 1 C3 3.64 3 6.28 3 9 C1.68 9 0.36 9 -1 9 C-1.625 6.188 -1.625 6.188 -2 3 C-1.34 2.01 -0.68 1.02 0 0 Z " fill="#FFFFFF" transform="translate(274,293)"/>
<path d="M0 0 C1.32 0.66 2.64 1.32 4 2 C4 3.98 4 5.96 4 8 C2.02 8.99 2.02 8.99 0 10 C-1.37 7.261 -1.126 5.029 -1 2 C-0.67 1.34 -0.34 0.68 0 0 Z " fill="#FFFFFF" transform="translate(264,293)"/>
<path d="M0 0 C0.66 0 1.32 0 2 0 C3.37 2.739 3.126 4.971 3 8 C2.67 8.66 2.34 9.32 2 10 C0.68 9.34 -0.64 8.68 -2 8 C-2.125 5.125 -2.125 5.125 -2 2 C-1.34 1.34 -0.68 0.68 0 0 Z " fill="#FFFFFF" transform="translate(255,293)"/>
<path d="M0 0 C0.66 0 1.32 0 2 0 C2 4.29 2 8.58 2 13 C1.01 13 0.02 13 -1 13 C-1 10.03 -1 7.06 -1 4 C-1.99 3.67 -2.98 3.34 -4 3 C-3.01 2.67 -2.02 2.34 -1 2 C-0.67 1.34 -0.34 0.68 0 0 Z " fill="#000000" transform="translate(314,291)"/>
<path d="M0 0 C0.99 0.66 1.98 1.32 3 2 C2.812 3.875 2.812 3.875 2 6 C-0.562 7.25 -0.562 7.25 -3 8 C-3.33 6.02 -3.66 4.04 -4 2 C-2.68 1.34 -1.36 0.68 0 0 Z " fill="#FFFFFF" transform="translate(121,168)"/>
<path d="M0 0 C0.66 0.33 1.32 0.66 2 1 C1.67 1.99 1.34 2.98 1 4 C1.33 4.66 1.66 5.32 2 6 C1.34 6 0.68 6 0 6 C0 6.66 0 7.32 0 8 C-0.66 8 -1.32 8 -2 8 C-2.33 8.66 -2.66 9.32 -3 10 C-4.32 9.01 -5.64 8.02 -7 7 C-4.69 4.69 -2.38 2.38 0 0 Z " fill="#060606" transform="translate(97,68)"/>
<path d="M0 0 C0.99 0.33 1.98 0.66 3 1 C1.377 2.709 -0.293 4.374 -2 6 C-2.66 6 -3.32 6 -4 6 C-4.402 7.145 -4.402 7.145 -4.812 8.312 C-5.944 10.874 -6.912 12.197 -9 14 C-8.362 8.579 -5.885 4.77 -1.938 1.062 C-0.978 0.537 -0.978 0.537 0 0 Z " fill="#000000" transform="translate(252,198)"/>
<path d="M0 0 C0.33 0.66 0.66 1.32 1 2 C2.98 1.34 4.96 0.68 7 0 C7 0.66 7 1.32 7 2 C5.02 2.66 3.04 3.32 1 4 C1 5.32 1 6.64 1 8 C5.548 8.178 8.879 7.998 13 6 C11.562 8 11.562 8 9 10 C5.969 10.408 3.034 10.375 0 10 C-1 9 -1 9 -1.133 7.188 C-1.13 6.466 -1.128 5.744 -1.125 5 C-1.128 4.278 -1.13 3.556 -1.133 2.812 C-1 1 -1 1 0 0 Z " fill="#000000" transform="translate(32,155)"/>
<path d="M0 0 C-1.32 0.33 -2.64 0.66 -4 1 C-4.103 1.639 -4.206 2.279 -4.312 2.938 C-4.539 3.618 -4.766 4.299 -5 5 C-5.99 5.33 -6.98 5.66 -8 6 C-8.33 6.99 -8.66 7.98 -9 9 C-9.66 9 -10.32 9 -11 9 C-11 7.68 -11 6.36 -11 5 C-10.34 5 -9.68 5 -9 5 C-8.752 4.381 -8.505 3.762 -8.25 3.125 C-6.058 -0.602 -4.061 -1.354 0 0 Z M-12 9 C-11.01 9.495 -11.01 9.495 -10 10 C-10 10.66 -10 11.32 -10 12 C-10.66 12 -11.32 12 -12 12 C-12 11.01 -12 10.02 -12 9 Z " fill="#757575" transform="translate(133,149)"/>
<path d="M0 0 C0 0.33 0 0.66 0 1 C-0.928 1.144 -1.856 1.289 -2.812 1.438 C-6.007 1.921 -6.007 1.921 -9 3 C-9.309 3.825 -9.619 4.65 -9.938 5.5 C-10.288 6.325 -10.639 7.15 -11 8 C-13.125 8.812 -13.125 8.812 -15 9 C-12.171 0.512 -8.386 -0.645 0 0 Z " fill="#828282" transform="translate(149,100)"/>
<path d="M0 0 C1.086 3.257 0.857 3.865 0 7 C-0.315 12.094 -0.027 16.993 1 22 C0.34 21.67 -0.32 21.34 -1 21 C-1 20.34 -1 19.68 -1 19 C-2.98 18.34 -4.96 17.68 -7 17 C-6.047 16.706 -6.047 16.706 -5.074 16.406 C-2.684 15.116 -2.684 15.116 -2.207 12.031 C-2.077 10.866 -1.947 9.701 -1.812 8.5 C-1.057 2.113 -1.057 2.113 0 0 Z " fill="#070707" transform="translate(14,234)"/>
<path d="M0 0 C0 0.66 0 1.32 0 2 C-0.66 2 -1.32 2 -2 2 C-2.268 2.598 -2.536 3.196 -2.812 3.812 C-3.998 5.997 -5.221 7.295 -7 9 C-7.66 9.99 -8.32 10.98 -9 12 C-9.472 8.037 -9.176 5.741 -6.75 2.625 C-4 0 -4 0 0 0 Z " fill="#868686" transform="translate(246,197)"/>
<path d="M0 0 C2.31 1.98 4.62 3.96 7 6 C5.68 7.65 4.36 9.3 3 11 C0 4.5 0 4.5 0 0 Z " fill="#FFFFFF" transform="translate(114,116)"/>
<path d="M0 0 C0.66 0.33 1.32 0.66 2 1 C-1.388 4.587 -4.735 7.497 -9 10 C-9.99 10 -10.98 10 -12 10 C-12 9.34 -12 8.68 -12 8 C-11.34 8 -10.68 8 -10 8 C-10 7.34 -10 6.68 -10 6 C-8.711 5.328 -7.419 4.663 -6.125 4 C-5.406 3.629 -4.686 3.257 -3.945 2.875 C-2 2 -2 2 0 2 C0 1.34 0 0.68 0 0 Z " fill="#1E1E1E" transform="translate(75,90)"/>
<path d="M0 0 C0.99 0.33 1.98 0.66 3 1 C3 1.66 3 2.32 3 3 C3.66 3 4.32 3 5 3 C6.714 4.959 8.384 6.959 10 9 C9.67 9.66 9.34 10.32 9 11 C8.01 10.67 7.02 10.34 6 10 C5.67 10.66 5.34 11.32 5 12 C4 11 4 11 3.938 7.438 C3.958 6.303 3.979 5.169 4 4 C3.34 4 2.68 4 2 4 C1.34 2.68 0.68 1.36 0 0 Z " fill="#171717" transform="translate(53,59)"/>
<path d="M0 0 C0.33 0.66 0.66 1.32 1 2 C-2.96 2.99 -6.92 3.98 -11 5 C-11 4.34 -11 3.68 -11 3 C-11.99 3 -12.98 3 -14 3 C-14 2.34 -14 1.68 -14 1 C-9.38 0.67 -4.76 0.34 0 0 Z " fill="#101010" transform="translate(68,258)"/>
<path d="M0 0 C0.33 0 0.66 0 1 0 C0.67 3.96 0.34 7.92 0 12 C-0.99 12 -1.98 12 -3 12 C-3.66 11.34 -4.32 10.68 -5 10 C-6.988 9.602 -8.989 9.262 -11 9 C-11 8.67 -11 8.34 -11 8 C-8 8 -5 8 -2 8 C-1.34 5.36 -0.68 2.72 0 0 Z " fill="#080808" transform="translate(316,205)"/>
<path d="M0 0 C0.66 0.33 1.32 0.66 2 1 C2 2.32 2 3.64 2 5 C1.01 5.66 0.02 6.32 -1 7 C-4 6 -4 6 -6 5 C-6 4.34 -6 3.68 -6 3 C-4.035 1.932 -2.031 0.934 0 0 Z " fill="#DDDDDD" transform="translate(48,22)"/>
<path d="M0 0 C0.235 0.645 0.469 1.289 0.711 1.953 C1.812 4.208 1.812 4.208 4.164 4.609 C4.976 4.656 5.788 4.702 6.625 4.75 C7.851 4.835 7.851 4.835 9.102 4.922 C9.728 4.948 10.355 4.973 11 5 C11 5.33 11 5.66 11 6 C8.69 6.33 6.38 6.66 4 7 C5.32 7.99 6.64 8.98 8 10 C7.67 10.66 7.34 11.32 7 12 C4.461 10.173 2.095 8.331 0 6 C-0.438 2.625 -0.438 2.625 0 0 Z " fill="#000000" transform="translate(154,154)"/>
<path d="M0 0 C1.32 0.66 2.64 1.32 4 2 C-0.75 5 -0.75 5 -3 5 C-2.67 6.32 -2.34 7.64 -2 9 C-2.66 8.67 -3.32 8.34 -4 8 C-4 7.34 -4 6.68 -4 6 C-4.66 6 -5.32 6 -6 6 C-5.67 7.65 -5.34 9.3 -5 11 C-5.66 10.34 -6.32 9.68 -7 9 C-7 7.68 -7 6.36 -7 5 C-4.69 4.34 -2.38 3.68 0 3 C0 2.01 0 1.02 0 0 Z " fill="#000000" transform="translate(59,75)"/>
<path d="M0 0 C0.66 0.33 1.32 0.66 2 1 C2 3.97 2 6.94 2 10 C1.01 9.01 0.02 8.02 -1 7 C-1.66 6.67 -2.32 6.34 -3 6 C-1.125 1.125 -1.125 1.125 0 0 Z " fill="#121212" transform="translate(133,104)"/>
<path d="M0 0 C3.509 1.027 6.565 2.251 9.688 4.125 C12.801 6.246 12.801 6.246 16 6 C16.33 6.66 16.66 7.32 17 8 C14 9 14 9 10.645 7.348 C9.361 6.596 8.084 5.834 6.812 5.062 C5.831 4.483 5.831 4.483 4.83 3.893 C3.215 2.937 1.607 1.97 0 1 C0 0.67 0 0.34 0 0 Z " fill="#000000" transform="translate(3,82)"/>
<path d="M0 0 C0.66 0.66 1.32 1.32 2 2 C1.257 2.65 1.257 2.65 0.5 3.312 C-1.332 4.997 -1.332 4.997 -1 8 C0.32 8.33 1.64 8.66 3 9 C2.34 9.66 1.68 10.32 1 11 C-1.625 10.625 -1.625 10.625 -4 10 C-2.998 6.207 -2.19 3.285 0 0 Z " fill="#000000" transform="translate(107,82)"/>
<path d="M0 0 C-1.369 2.95 -2.878 5.525 -5 8 C-5.66 8 -6.32 8 -7 8 C-6.659 4.849 -6.419 3.392 -4.062 1.188 C-2 0 -2 0 0 0 Z " fill="#FFFFFF" transform="translate(58,33)"/>
<path d="M0 0 C1.65 0.33 3.3 0.66 5 1 C4.67 2.32 4.34 3.64 4 5 C3.34 4.67 2.68 4.34 2 4 C1.01 4.33 0.02 4.66 -1 5 C-0.67 3.35 -0.34 1.7 0 0 Z M-3 5 C-2.34 5.33 -1.68 5.66 -1 6 C-1.99 6.66 -2.98 7.32 -4 8 C-3.67 7.01 -3.34 6.02 -3 5 Z " fill="#6A6A6A" transform="translate(231,187)"/>
<path d="M0 0 C0.66 0 1.32 0 2 0 C1.691 0.804 1.381 1.609 1.062 2.438 C-0.186 6.622 -0.634 10.663 -1 15 C-1.33 15 -1.66 15 -2 15 C-3.442 6.052 -3.442 6.052 -1.688 1.875 C-1.131 1.256 -0.574 0.638 0 0 Z " fill="#000000" transform="translate(75,63)"/>
<path d="M0 0 C0.33 0.99 0.66 1.98 1 3 C1.66 3 2.32 3 3 3 C3.75 5.25 3.75 5.25 4 8 C2.062 10.312 2.062 10.312 0 12 C-0.99 11.67 -1.98 11.34 -3 11 C-1.35 10.34 0.3 9.68 2 9 C2 8.34 2 7.68 2 7 C1.34 6.67 0.68 6.34 0 6 C0 4 0 2 0 0 Z " fill="#0A0A0A" transform="translate(48,18)"/>
<path d="M0 0 C1.32 0.66 2.64 1.32 4 2 C3.67 3.65 3.34 5.3 3 7 C1.68 7.33 0.36 7.66 -1 8 C-0.835 7.051 -0.67 6.103 -0.5 5.125 C0.053 2.198 0.053 2.198 0 0 Z " fill="#000000" transform="translate(305,296)"/>
<path d="M0 0 C2.062 1.562 2.062 1.562 4 4 C3.786 10.214 3.786 10.214 1 13 C1.875 8.25 1.875 8.25 3 6 C1.68 5.34 0.36 4.68 -1 4 C-0.34 4 0.32 4 1 4 C0.67 2.68 0.34 1.36 0 0 Z " fill="#000000" transform="translate(65,211)"/>
<path d="M0 0 C4.429 5.143 4.429 5.143 5 9 C2.69 8.01 0.38 7.02 -2 6 C-1.01 5.67 -0.02 5.34 1 5 C0.34 4.01 -0.32 3.02 -1 2 C-0.67 1.34 -0.34 0.68 0 0 Z " fill="#212121" transform="translate(20,90)"/>
<path d="M0 0 C0.33 0 0.66 0 1 0 C1.125 6.75 1.125 6.75 0 9 C-2.475 8.01 -2.475 8.01 -5 7 C-4.34 6.67 -3.68 6.34 -3 6 C-2.67 5.34 -2.34 4.68 -2 4 C-1.333 2.667 -0.667 1.333 0 0 Z " fill="#000000" transform="translate(81,79)"/>
<path d="M0 0 C0.33 0.66 0.66 1.32 1 2 C0.67 2.66 0.34 3.32 0 4 C-0.07 5.707 -0.084 7.417 -0.062 9.125 C-0.049 10.49 -0.049 10.49 -0.035 11.883 C-0.024 12.581 -0.012 13.28 0 14 C-0.99 14.495 -0.99 14.495 -2 15 C-2.66 14.67 -3.32 14.34 -4 14 C-3.67 13.34 -3.34 12.68 -3 12 C-2.729 9.733 -2.555 7.467 -2.379 5.191 C-2 3 -2 3 0 0 Z " fill="#000000" transform="translate(265,253)"/>
<path d="M0 0 C1.648 2.967 2.443 5.656 3 9 C1.5 7.625 1.5 7.625 0 6 C0 5.34 0 4.68 0 4 C-1.65 3.67 -3.3 3.34 -5 3 C-4.361 2.691 -3.721 2.381 -3.062 2.062 C-1.064 1.165 -1.064 1.165 0 0 Z " fill="#FFFFFF" transform="translate(137,137)"/>
<path d="M0 0 C0.66 0.33 1.32 0.66 2 1 C1.67 2.65 1.34 4.3 1 6 C0.01 5.67 -0.98 5.34 -2 5 C-2 3.68 -2 2.36 -2 1 C-1.34 0.67 -0.68 0.34 0 0 Z " fill="#FFFFFF" transform="translate(304,297)"/>
<path d="M0 0 C1.675 0.286 3.344 0.618 5 1 C5 2.65 5 4.3 5 6 C4.01 5.34 3.02 4.68 2 4 C1.01 4.495 1.01 4.495 0 5 C-0.562 3.062 -0.562 3.062 -1 1 C-0.67 0.67 -0.34 0.34 0 0 Z " fill="#000000" transform="translate(143,113)"/>
<path d="M0 0 C4.875 2.625 4.875 2.625 6 6 C3.562 5.25 3.562 5.25 1 4 C0.188 1.875 0.188 1.875 0 0 Z " fill="#FFFFFF" transform="translate(121,126)"/>
<path d="M0 0 C1.32 0.33 2.64 0.66 4 1 C4 2.98 4 4.96 4 7 C3.01 6.67 2.02 6.34 1 6 C0.67 4.02 0.34 2.04 0 0 Z " fill="#0E0E0E" transform="translate(48,36)"/>
<path d="M0 0 C2.97 1.98 2.97 1.98 6 4 C5.67 4.99 5.34 5.98 5 7 C4.34 7 3.68 7 3 7 C0 2.615 0 2.615 0 0 Z " fill="#2D2D2D" transform="translate(161,83)"/>
</svg>
