<?xml version="1.0" encoding="UTF-8"?>
<!-- Generator: visioncortex VTracer 0.6.4 -->
<svg version="1.1" xmlns="http://www.w3.org/2000/svg" width="521" height="443">
<path d="M0 0 C171.93 0 343.86 0 521 0 C521 146.19 521 292.38 521 443 C349.07 443 177.14 443 0 443 C0 296.81 0 150.62 0 0 Z " fill="#FBFBFB" transform="translate(0,0)"/>
<path d="M0 0 C3.567 2.432 4.307 3.767 5.75 7.875 C5.935 13.369 5.398 18.835 4.988 24.311 C4.474 32.77 5.079 38.824 10.922 45.477 C14.3 48.061 18.343 49.187 22.32 50.59 C29.135 53.143 36.553 56.678 41.75 61.875 C41.75 62.865 41.75 63.855 41.75 64.875 C42.585 65.277 42.585 65.277 43.438 65.688 C44.201 66.079 44.964 66.471 45.75 66.875 C46.517 67.244 47.284 67.612 48.074 67.992 C51.654 70.511 53.55 73.53 55.875 77.188 C56.304 77.839 56.734 78.491 57.176 79.162 C59.083 82.094 60.791 84.959 62.324 88.109 C63.762 90.898 65.186 92.652 67.438 94.812 C68.145 95.493 68.853 96.174 69.582 96.875 C72.21 99.299 74.876 101.668 77.586 104 C81.697 107.562 85.715 111.228 89.75 114.875 C86.75 114.875 86.75 114.875 84.688 112.938 C80.566 110.043 76.683 110.067 71.75 109.875 C71.464 114.726 71.533 119.152 72.75 123.875 C75.129 126.123 77.386 127.067 80.395 128.344 C84.361 130.154 87.593 132.45 91.062 135.062 C92.015 135.772 92.015 135.772 92.987 136.497 C99.664 141.508 106.214 146.681 112.75 151.875 C115.248 153.857 117.748 155.836 120.25 157.812 C120.813 158.261 121.377 158.71 121.957 159.172 C125.452 161.933 129.019 164.453 132.75 166.875 C133.286 166.38 133.822 165.885 134.375 165.375 C137.344 163.5 139.303 163.64 142.75 163.875 C141.558 158.349 140.151 155.697 135.75 151.875 C139.611 153.448 142.192 155.586 144.75 158.875 C144.562 162.688 144.562 162.688 143.75 165.875 C141.797 166.526 139.844 167.177 137.891 167.828 C135.622 168.759 135.622 168.759 134.1 170.833 C130.993 173.532 127.958 173.971 124.016 174.586 C122.855 174.786 122.855 174.786 121.67 174.99 C119.116 175.426 116.558 175.838 114 176.25 C112.214 176.55 110.429 176.851 108.643 177.154 C99.343 178.713 90.025 180.15 80.695 181.52 C79.803 181.651 78.911 181.782 77.992 181.918 C73.722 182.544 69.452 183.157 65.177 183.746 C56.795 184.927 48.906 186.447 40.832 189.056 C37.482 189.946 34.395 190.191 30.938 190.312 C23.407 190.697 18.775 193.733 12.754 197.996 C7.68 200.849 2.25 200.554 -3.438 200.625 C-4.614 200.652 -5.79 200.68 -7.001 200.708 C-10.751 200.786 -14.5 200.833 -18.25 200.875 C-19.484 200.895 -20.717 200.916 -21.988 200.937 C-48.965 201.368 -48.965 201.368 -62.25 198.875 C-63.253 198.727 -64.256 198.579 -65.289 198.426 C-67.991 197.877 -69.935 197.372 -72.25 195.875 C-73.649 193.476 -74.446 191.161 -75.27 188.512 C-77.71 181.949 -83.297 177.258 -89.25 173.875 C-92.535 172.78 -94.987 172.775 -98.438 172.812 C-99.524 172.822 -100.611 172.831 -101.73 172.84 C-102.562 172.851 -103.393 172.863 -104.25 172.875 C-104.738 170.889 -105.227 168.904 -105.715 166.918 C-106.16 165.218 -106.694 163.542 -107.25 161.875 C-112.87 159.868 -118.464 158.95 -124.25 160.875 C-126.44 162.69 -127.618 164.475 -129.25 166.875 C-130.231 167.894 -131.227 168.899 -132.25 169.875 C-133.325 169.131 -134.4 168.387 -135.508 167.621 C-141.616 163.804 -148.383 162.065 -155.23 160.002 C-163.844 157.293 -171.371 153.729 -178 147.5 C-187.578 138.784 -200.699 133.516 -212.25 127.875 C-212.25 127.215 -212.25 126.555 -212.25 125.875 C-212.827 125.586 -213.405 125.298 -214 125 C-215.114 124.443 -215.114 124.443 -216.25 123.875 C-217.271 123.473 -217.271 123.473 -218.312 123.062 C-220.25 121.875 -220.25 121.875 -221.625 119.5 C-223.646 116.236 -226.044 114.921 -229.25 112.875 C-229.91 111.885 -230.57 110.895 -231.25 109.875 C-229.001 106.477 -226.66 103.161 -224.25 99.875 C-223.779 99.211 -223.309 98.547 -222.824 97.863 C-219.098 93.394 -214.658 91.554 -209.312 89.625 C-208.339 89.274 -208.339 89.274 -207.346 88.915 C-193.231 84.254 -179.471 83.435 -164.739 83.594 C-161.792 83.625 -158.847 83.635 -155.9 83.641 C-153.997 83.65 -152.094 83.66 -150.191 83.672 C-149.326 83.676 -148.46 83.68 -147.568 83.685 C-142.744 83.741 -138.029 84.038 -133.242 84.64 C-120.152 86.184 -104.015 85.407 -93.121 77.121 C-85.399 71.978 -75.576 70.401 -66.74 68.1 C-59.068 66.001 -52.83 63.332 -46.25 58.875 C-31.353 49.679 -31.353 49.679 -25.098 48.453 C-22.872 47.986 -22.872 47.986 -21.562 44.938 C-19.201 38.658 -19.232 31.75 -19.074 25.113 C-19.05 24.139 -19.027 23.166 -19.002 22.162 C-18.959 20.168 -18.928 18.173 -18.908 16.178 C-18.729 9.896 -17.94 6.014 -14.25 0.875 C-10.055 -2.452 -4.794 -1.66 0 0 Z " fill="#F6F6F6" transform="translate(288.25,48.125)"/>
<path d="M0 0 C0.99 0.495 0.99 0.495 2 1 C-3.583 8.04 -13.25 8.621 -21.602 9.727 C-25.938 10.075 -29.722 9.738 -34 9 C-25.923 13.039 -13.316 9.115 -5 7 C-3.319 6.37 -1.645 5.718 0 5 C-0.277 6.284 -0.554 7.568 -0.84 8.891 C-3.417 21.307 -4.728 33.328 -5 46 C-5.66 46 -6.32 46 -7 46 C-6.105 46.401 -5.211 46.802 -4.289 47.215 C9.41 53.563 19.057 61.898 25.316 75.957 C29.085 86.397 30.155 99.513 26 110 C25.67 110 25.34 110 25 110 C25.107 108.935 25.214 107.87 25.324 106.773 C26.633 91.895 24.45 80.163 17 67 C17.41 67.834 17.82 68.668 18.242 69.527 C23.315 80.122 26.168 89.127 25 101 C23.984 103.355 23.984 103.355 23 105 C22.484 104.134 21.969 103.267 21.438 102.375 C17.367 96.319 11.059 91.1 4 89 C2.269 89.026 0.538 89.112 -1.188 89.25 C-3.742 89.379 -3.742 89.379 -6 89 C-7.767 87.132 -8.775 85.261 -9.949 82.98 C-11.525 80.01 -12.822 79.105 -16 78 C-20.464 77.398 -24.918 76.909 -29.012 79.055 C-31.149 80.804 -32.761 82.521 -34 85 C-36 84.333 -38 83.667 -40 83 C-40.87 82.714 -41.739 82.428 -42.635 82.133 C-45.698 81.122 -48.756 80.093 -51.812 79.062 C-52.874 78.715 -53.936 78.368 -55.029 78.01 C-56.037 77.668 -57.044 77.325 -58.082 76.973 C-59.002 76.666 -59.922 76.359 -60.87 76.043 C-61.573 75.699 -62.276 75.355 -63 75 C-63.33 74.01 -63.66 73.02 -64 72 C-58.516 61.523 -49.056 53.931 -38 50 C-50.835 53.291 -58.971 63.457 -66 74 C-73.359 70.634 -73.359 70.634 -74.754 67.078 C-75.022 64.755 -75.056 62.537 -75 60.199 C-75.011 59.363 -75.022 58.526 -75.033 57.665 C-75.059 55.004 -75.03 52.348 -75 49.688 C-75.008 47.88 -75.02 46.072 -75.035 44.264 C-75.065 39.842 -75.046 35.422 -75 31 C-78.36 29.32 -82.153 29.858 -85.848 29.867 C-86.734 29.866 -87.619 29.865 -88.532 29.864 C-90.413 29.864 -92.293 29.865 -94.174 29.87 C-97.027 29.875 -99.879 29.87 -102.732 29.863 C-104.563 29.864 -106.393 29.865 -108.223 29.867 C-109.067 29.865 -109.911 29.863 -110.781 29.861 C-115.604 29.88 -120.297 30.17 -125.082 30.786 C-127.754 31.084 -129.561 31.22 -132 30 C-129.933 24.219 -127.043 20.531 -122 17 C-116.866 14.744 -111.414 13.403 -106 12 C-105.01 11.67 -104.02 11.34 -103 11 C-104.048 11.3 -105.096 11.601 -106.176 11.91 C-107.555 12.295 -108.933 12.679 -110.312 13.062 C-111.003 13.262 -111.693 13.461 -112.404 13.666 C-117.66 15.113 -117.66 15.113 -121 14 C-102.402 5.405 -84.428 3.799 -64.125 3.812 C-63.049 3.81 -63.049 3.81 -61.952 3.807 C-52.703 3.793 -43.639 4.167 -34.438 5.188 C-22.028 6.532 -11.618 4.647 0 0 Z " fill="#F2F2F2" transform="translate(192,129)"/>
<path d="M0 0 C3.026 0.608 5.162 1.543 7.688 3.312 C8.289 3.721 8.891 4.13 9.512 4.551 C11.309 6.3 11.459 7.601 12 10 C13.66 10.683 15.328 11.346 17 12 C18.06 12.903 19.093 13.84 20.105 14.797 C24.098 18.295 28.352 20.273 33.188 22.375 C42.561 26.638 51.265 31.202 58.625 38.562 C66.83 46.081 80.144 48.764 90.496 52.09 C93.958 53.348 96.898 55.026 100 57 C99.539 59.153 99.038 60.93 97.988 62.875 C96.279 66.55 96.376 70.04 97 74 C98.986 79.045 102.062 82.985 106.984 85.371 C111.87 86.896 116.618 87.038 121.348 84.977 C124.777 82.923 126.753 81.37 129 78 C129.486 73.136 129.509 67.678 128 63 C127.34 62.67 126.68 62.34 126 62 C130.294 59.138 133.962 59.414 139 60 C146.532 62.196 153.558 68.115 157.68 74.672 C161 81.162 161 81.162 161 84 C176.519 88.527 192.37 88.318 208.386 88.044 C212.021 88 215.651 88.022 219.285 88.051 C232.537 88.026 241.604 87.614 252 79 C255.349 77.884 258.36 77.609 261.875 77.25 C268.303 76.526 274.428 75.234 280.688 73.625 C290.067 71.26 299.439 69.837 309.026 68.599 C321.625 66.964 334.156 64.958 346.697 62.93 C347.493 62.802 348.289 62.674 349.109 62.542 C350.609 62.301 352.108 62.058 353.607 61.813 C356.445 61.357 359.12 61 362 61 C362.268 60.381 362.536 59.762 362.812 59.125 C364.579 55.964 366.712 55.1 370.062 53.938 C376.581 54.041 381.089 58.117 385.609 62.594 C387.58 64.881 389.201 67.321 390.805 69.875 C393.038 73.055 395.341 75.373 398.25 77.938 C399.21 78.79 400.171 79.642 401.16 80.52 C402.097 81.338 403.034 82.157 404 83 C404.824 83.726 405.647 84.451 406.496 85.199 C408.325 86.806 410.159 88.407 412 90 C416.226 88.5 419.959 86.374 423.816 84.121 C428.466 81.734 432.976 81.817 438.125 81.812 C438.853 81.8 439.582 81.788 440.332 81.775 C442.223 81.77 444.113 81.878 446 82 C446.66 82.66 447.32 83.32 448 84 C446.973 83.954 445.945 83.907 444.887 83.859 C432.926 83.479 423.518 85.021 414.016 92.934 C409.529 97.533 406 102.489 406 109 C406.352 108.42 406.704 107.84 407.066 107.242 C413.099 97.697 419.858 91.938 431 89 C436.001 88.476 440.988 88.692 446 89 C445.67 89.66 445.34 90.32 445 91 C444.261 90.954 443.523 90.907 442.762 90.859 C432.509 90.495 423.831 92.664 415.781 99.246 C408.665 106.253 404.998 115.063 404.625 125 C404.902 133.015 407.338 139.569 412 146 C412 146.66 412 147.32 412 148 C412.66 148 413.32 148 414 148 C414 148.66 414 149.32 414 150 C414.66 150 415.32 150 416 150 C416 150.66 416 151.32 416 152 C416.576 152.287 417.152 152.575 417.746 152.871 C419.161 153.58 420.571 154.3 421.973 155.035 C427.189 157.599 431.722 158.531 437.52 158.824 C439.804 158.986 441.805 159.371 444 160 C444 160.33 444 160.66 444 161 C433.206 161.678 423.575 159.953 415 153 C415 152.34 415 151.68 415 151 C414.34 151 413.68 151 413 151 C413 150.34 413 149.68 413 149 C412.34 149 411.68 149 411 149 C402.331 138.52 401.415 125.049 402 112 C400.952 111.818 400.952 111.818 399.883 111.633 C398.973 111.465 398.063 111.298 397.125 111.125 C396.22 110.963 395.315 110.8 394.383 110.633 C392 110 392 110 390 108 C389.713 105.07 389.713 105.07 389.656 101.34 C389.642 100.676 389.627 100.012 389.612 99.328 C389.565 97.198 389.531 95.068 389.5 92.938 C389.929 76.431 389.929 76.431 382.57 62.441 C379.213 59.359 377.005 58.123 372.438 57.562 C368.499 58.064 367.399 58.929 365 62 C365.887 62.557 366.774 63.114 367.688 63.688 C375.257 68.835 375.257 68.835 376.672 72.957 C377.062 75.062 377.062 75.062 377 79 C374.107 82.803 371.072 83.936 366.562 85.25 C365.45 85.585 364.338 85.92 363.191 86.266 C360.314 86.928 357.933 87.154 355 87 C358.329 84.781 361.149 83.992 365 82.938 C370.027 81.556 370.027 81.556 375 80 C375.009 74.518 375.009 74.518 372.293 69.945 C368.998 66.999 366.415 64.778 362 64 C359.769 64.132 359.769 64.132 357.413 64.573 C356.506 64.724 355.6 64.874 354.666 65.029 C353.687 65.2 352.708 65.371 351.699 65.547 C350.672 65.719 349.644 65.891 348.586 66.068 C345.285 66.621 341.986 67.185 338.688 67.75 C334.401 68.479 330.113 69.203 325.824 69.922 C324.763 70.1 323.702 70.279 322.608 70.463 C314.293 71.838 305.96 72.983 297.591 73.974 C290.865 74.792 284.565 76.238 278.031 78.047 C274.194 79.039 270.359 79.487 266.428 79.942 C256.074 81.162 249.38 83.75 241 90 C238.434 91.283 236.635 91.097 233.766 91.062 C232.192 91.051 232.192 91.051 230.586 91.039 C228.378 91.013 226.169 90.987 223.961 90.961 C222.906 90.953 221.852 90.945 220.766 90.938 C219.324 90.92 219.324 90.92 217.853 90.902 C214.824 91.006 211.983 91.484 209 92 C205.689 92.203 202.38 92.19 199.062 92.188 C198.138 92.188 197.214 92.189 196.262 92.189 C189.398 92.137 182.801 91.535 176.031 90.438 C173.298 90.043 170.755 89.918 168 90 C167.83 90.652 167.66 91.305 167.484 91.977 C165.99 97.367 164.398 101.548 161 106 C161 102.371 162.07 100.138 163.5 96.812 C163.964 95.726 164.428 94.639 164.906 93.52 C165.267 92.688 165.628 91.857 166 91 C163.69 90.67 161.38 90.34 159 90 C158.59 90.638 158.18 91.276 157.758 91.934 C157.219 92.76 156.68 93.586 156.125 94.438 C155.591 95.261 155.058 96.085 154.508 96.934 C153 99 153 99 151 100 C152.011 97.97 153.029 95.944 154.07 93.93 C154.418 93.252 154.766 92.574 155.125 91.875 C155.478 91.192 155.831 90.509 156.195 89.805 C157.136 88.025 157.136 88.025 157 86 C156.648 86.629 156.296 87.258 155.934 87.906 C150.992 96.473 144.726 106.374 135 110 C129.797 109.689 125.196 108.575 120.188 107.125 C111.452 104.754 102.571 103.906 93.581 103.04 C76.562 101.374 76.562 101.374 72.73 98.004 C64.775 85.417 60.683 71.714 63.637 56.781 C64.548 53.402 65.432 50.136 67 47 C64.811 47.821 64.811 47.821 64.148 50.055 C61.499 59.715 61.72 69.075 62 79 C58.813 75.813 59.244 72.174 58.957 67.809 C59.041 60.385 60.655 53.035 63 46 C61.515 45.01 61.515 45.01 60 44 C60.021 44.804 60.041 45.609 60.062 46.438 C60 49 60 49 59 50 C48.371 51.108 37.628 51.213 26.949 51.24 C24.578 51.25 22.207 51.281 19.836 51.312 C18.32 51.319 16.805 51.324 15.289 51.328 C14.584 51.34 13.879 51.353 13.152 51.366 C11.186 51.356 11.186 51.356 8 51 C6.011 48.016 5.734 47.29 5.573 43.927 C5.53 43.113 5.487 42.299 5.443 41.46 C5.406 40.585 5.37 39.71 5.332 38.809 C5.288 37.908 5.244 37.006 5.199 36.078 C5.108 34.174 5.022 32.271 4.94 30.366 C4.813 27.445 4.67 24.524 4.525 21.604 C4.439 19.755 4.354 17.907 4.27 16.059 C4.227 15.182 4.184 14.304 4.14 13.401 C3.884 7.231 3.884 7.231 5 5 C2.525 4.01 2.525 4.01 0 3 C-0.241 3.67 -0.482 4.341 -0.73 5.031 C-2.301 8.703 -4.272 12.077 -6.312 15.5 C-6.746 16.233 -7.18 16.965 -7.627 17.72 C-11.742 24.638 -15.982 31.477 -20.234 38.311 C-23.909 44.221 -27.524 50.163 -31.09 56.139 C-33.671 60.463 -36.308 64.745 -39 69 C-39.33 68.34 -39.66 67.68 -40 67 C-39.31 65.362 -39.31 65.362 -38.148 63.387 C-37.716 62.644 -37.284 61.902 -36.838 61.137 C-36.355 60.329 -35.872 59.52 -35.375 58.688 C-34.63 57.422 -34.63 57.422 -33.871 56.131 C-29.656 49.007 -25.307 41.967 -20.929 34.942 C-17.043 28.703 -13.217 22.43 -9.438 16.125 C-8.949 15.311 -8.461 14.497 -7.957 13.658 C-5.251 9.135 -2.599 4.586 0 0 Z " fill="#000000" transform="translate(56,170)"/>
<path d="M0 0 C2.27 1.833 3.21 3.127 4.25 5.816 C4.91 5.816 5.57 5.816 6.25 5.816 C12.565 13.768 16.022 24.235 15.598 34.406 C14.121 44.641 10.204 54.875 2.25 61.816 C1.59 61.816 0.93 61.816 0.25 61.816 C0.25 62.476 0.25 63.136 0.25 63.816 C-1.976 64.97 -4.205 66.114 -6.438 67.254 C-7.063 67.579 -7.689 67.905 -8.334 68.24 C-17.185 72.735 -27.332 73.275 -36.938 70.691 C-48.073 66.805 -55.973 60.309 -61.562 49.941 C-66.528 39.191 -66.767 28.47 -63.188 17.191 C-58.606 5.836 -50.335 -1.38 -39.281 -6.277 C-25.078 -11.258 -12.224 -7.761 0 0 Z " fill="#E6E6E6" transform="translate(131.75,334.18359375)"/>
<path d="M0 0 C3.567 2.432 4.307 3.767 5.75 7.875 C5.935 13.369 5.398 18.835 4.988 24.311 C4.474 32.77 5.079 38.824 10.922 45.477 C14.3 48.061 18.345 49.187 22.32 50.594 C29.715 53.356 36.58 56.814 41.75 62.875 C38.231 61.565 35.173 60.001 32 58 C15.367 47.961 -2.914 45.348 -21.871 49.902 C-30.477 52.38 -37.911 55.969 -45.289 61.031 C-51.886 65.139 -58.341 68.075 -65.867 70.086 C-66.537 70.265 -67.207 70.444 -67.898 70.629 C-70.678 71.363 -73.461 72.086 -76.253 72.776 C-84.215 74.46 -84.215 74.46 -91.008 78.517 C-92.274 80.51 -92.274 80.51 -93.25 83.875 C-93.644 84.842 -94.039 85.809 -94.445 86.805 C-98.699 100.279 -99.651 113.813 -99.25 127.875 C-97.902 128.287 -97.902 128.287 -96.527 128.707 C-85.392 132.675 -77.46 141.317 -71.828 151.426 C-65.149 166.024 -65.634 178.207 -69.25 193.875 C-56.38 193.875 -43.51 193.875 -30.25 193.875 C-30.58 194.535 -30.91 195.195 -31.25 195.875 C-33.964 196.187 -36.589 196.388 -39.312 196.5 C-40.071 196.539 -40.83 196.577 -41.611 196.617 C-43.49 196.712 -45.37 196.794 -47.25 196.875 C-38.657 198.021 -30.219 198.346 -21.594 197.352 C-17.882 196.959 -14.29 196.85 -10.559 196.953 C-9.594 196.979 -8.629 197.005 -7.635 197.031 C-5.665 197.094 -3.697 197.172 -1.729 197.266 C6.956 197.452 11.946 194.67 18.812 189.625 C22.42 187.476 25.653 187.132 29.75 186.875 C35.069 186.525 39.805 185.614 44.906 184.027 C53.854 181.37 62.958 180.157 72.186 178.866 C77.388 178.138 82.586 177.38 87.785 176.625 C88.811 176.477 89.836 176.329 90.892 176.177 C103.881 174.293 116.818 172.115 129.75 169.875 C128.681 166.668 128.2 166.182 125.625 164.246 C125.001 163.768 124.377 163.291 123.734 162.799 C123.08 162.308 122.425 161.818 121.75 161.312 C114.873 156.121 114.873 156.121 113.75 153.875 C116.5 155.166 118.829 156.586 121.203 158.477 C121.822 158.966 122.441 159.456 123.078 159.961 C123.712 160.469 124.347 160.977 125 161.5 C125.65 162.016 126.299 162.531 126.969 163.062 C128.565 164.33 130.158 165.602 131.75 166.875 C132.507 166.384 133.263 165.893 134.043 165.387 C137.199 163.624 139.192 163.627 142.75 163.875 C141.558 158.349 140.151 155.697 135.75 151.875 C139.611 153.448 142.192 155.586 144.75 158.875 C144.562 162.688 144.562 162.688 143.75 165.875 C141.797 166.526 139.844 167.177 137.891 167.828 C135.622 168.759 135.622 168.759 134.1 170.833 C130.993 173.532 127.958 173.971 124.016 174.586 C122.855 174.786 122.855 174.786 121.67 174.99 C119.116 175.426 116.558 175.838 114 176.25 C112.214 176.55 110.429 176.851 108.643 177.154 C99.343 178.713 90.025 180.15 80.695 181.52 C79.803 181.651 78.911 181.782 77.992 181.918 C73.722 182.544 69.452 183.157 65.177 183.746 C56.795 184.927 48.906 186.447 40.832 189.056 C37.482 189.946 34.395 190.191 30.938 190.312 C23.407 190.697 18.775 193.733 12.754 197.996 C7.68 200.849 2.25 200.554 -3.438 200.625 C-4.614 200.652 -5.79 200.68 -7.001 200.708 C-10.751 200.786 -14.5 200.833 -18.25 200.875 C-19.484 200.895 -20.717 200.916 -21.988 200.937 C-48.965 201.368 -48.965 201.368 -62.25 198.875 C-63.253 198.727 -64.256 198.579 -65.289 198.426 C-67.991 197.877 -69.935 197.372 -72.25 195.875 C-73.649 193.476 -74.446 191.161 -75.27 188.512 C-77.71 181.949 -83.297 177.258 -89.25 173.875 C-92.535 172.78 -94.987 172.775 -98.438 172.812 C-99.524 172.822 -100.611 172.831 -101.73 172.84 C-102.562 172.851 -103.393 172.863 -104.25 172.875 C-104.738 170.889 -105.227 168.904 -105.715 166.918 C-106.16 165.218 -106.694 163.542 -107.25 161.875 C-112.87 159.868 -118.464 158.95 -124.25 160.875 C-126.44 162.69 -127.618 164.475 -129.25 166.875 C-130.231 167.894 -131.227 168.899 -132.25 169.875 C-133.325 169.131 -134.4 168.387 -135.508 167.621 C-141.616 163.804 -148.383 162.065 -155.23 160.002 C-163.844 157.293 -171.371 153.729 -178 147.5 C-187.578 138.784 -200.699 133.516 -212.25 127.875 C-212.25 127.215 -212.25 126.555 -212.25 125.875 C-212.827 125.586 -213.405 125.298 -214 125 C-215.114 124.443 -215.114 124.443 -216.25 123.875 C-217.271 123.473 -217.271 123.473 -218.312 123.062 C-220.25 121.875 -220.25 121.875 -221.625 119.5 C-223.646 116.236 -226.044 114.921 -229.25 112.875 C-229.91 111.885 -230.57 110.895 -231.25 109.875 C-229.001 106.477 -226.66 103.161 -224.25 99.875 C-223.779 99.211 -223.309 98.547 -222.824 97.863 C-219.098 93.394 -214.658 91.554 -209.312 89.625 C-208.339 89.274 -208.339 89.274 -207.346 88.915 C-193.231 84.254 -179.471 83.435 -164.739 83.594 C-161.792 83.625 -158.847 83.635 -155.9 83.641 C-153.997 83.65 -152.094 83.66 -150.191 83.672 C-149.326 83.676 -148.46 83.68 -147.568 83.685 C-142.744 83.741 -138.029 84.038 -133.242 84.64 C-120.152 86.184 -104.015 85.407 -93.121 77.121 C-85.399 71.978 -75.576 70.401 -66.74 68.1 C-59.068 66.001 -52.83 63.332 -46.25 58.875 C-31.353 49.679 -31.353 49.679 -25.098 48.453 C-22.872 47.986 -22.872 47.986 -21.562 44.938 C-19.201 38.658 -19.232 31.75 -19.074 25.113 C-19.05 24.139 -19.027 23.166 -19.002 22.162 C-18.959 20.168 -18.928 18.173 -18.908 16.178 C-18.729 9.896 -17.94 6.014 -14.25 0.875 C-10.055 -2.452 -4.794 -1.66 0 0 Z M-102 82.75 C-113.261 86.196 -122.934 87.119 -134.527 85.698 C-160.801 82.724 -191.965 82.179 -216.25 93.875 C-216.58 94.535 -216.91 95.195 -217.25 95.875 C-215.688 95.562 -214.125 95.25 -212.562 94.938 C-209.848 94.395 -207.133 93.852 -204.418 93.309 C-203.703 93.166 -202.987 93.022 -202.25 92.875 C-203.301 93.132 -204.351 93.388 -205.434 93.652 C-214.583 96.076 -221.629 98.713 -227.25 106.875 C-227.997 109.036 -227.997 109.036 -228.25 110.875 C-226.27 111.865 -226.27 111.865 -224.25 112.875 C-223.92 112.545 -223.59 112.215 -223.25 111.875 C-216.968 110.997 -210.808 110.715 -204.473 110.707 C-203.58 110.704 -202.688 110.7 -201.768 110.697 C-199.9 110.692 -198.032 110.69 -196.164 110.69 C-193.296 110.687 -190.428 110.669 -187.561 110.65 C-185.74 110.647 -183.919 110.645 -182.098 110.645 C-181.239 110.637 -180.381 110.63 -179.497 110.623 C-173.479 110.646 -173.479 110.646 -171.25 112.875 C-171.102 115.611 -171.07 118.255 -171.117 120.988 C-171.116 122.645 -171.114 124.302 -171.109 125.959 C-171.111 128.573 -171.125 131.186 -171.171 133.8 C-171.794 143.545 -171.794 143.545 -168.411 152.158 C-166.356 153.443 -164.593 154.28 -162.25 154.875 C-161.042 153.064 -159.842 151.247 -158.656 149.422 C-152.725 140.719 -145.832 135.162 -136.25 130.875 C-137.884 132.509 -139.945 133.47 -141.938 134.625 C-149.791 139.355 -155.893 144.663 -160.25 152.875 C-159.92 153.865 -159.59 154.855 -159.25 155.875 C-157.055 157.009 -157.055 157.009 -154.332 157.848 C-153.325 158.19 -152.317 158.532 -151.279 158.885 C-150.218 159.232 -149.156 159.58 -148.062 159.938 C-147.02 160.289 -145.978 160.64 -144.904 161.002 C-142.023 161.971 -139.138 162.925 -136.25 163.875 C-134.25 164.542 -132.25 165.208 -130.25 165.875 C-129.466 164.906 -128.683 163.936 -127.875 162.938 C-126.337 161.035 -125.457 159.979 -123.25 158.875 C-118.048 158.357 -113.614 158.255 -108.812 160.438 C-105.724 163.375 -104.151 166.073 -102.25 169.875 C-101.621 169.829 -100.992 169.782 -100.344 169.734 C-90.041 169.3 -84.705 173.102 -77.23 179.875 C-75.355 181.768 -73.787 183.703 -72.25 185.875 C-68.637 173.522 -72.414 160.612 -78.262 149.641 C-78.588 149.058 -78.914 148.475 -79.25 147.875 C-71.152 161.948 -69.525 175.062 -71.25 190.875 C-70.59 190.545 -69.93 190.215 -69.25 189.875 C-65.526 177.381 -67.889 162.154 -73.828 150.879 C-81.695 137.82 -92.064 131.006 -106.25 125.875 C-104.6 126.205 -102.95 126.535 -101.25 126.875 C-101.213 125.617 -101.175 124.359 -101.137 123.062 C-100.739 112.042 -99.608 101.652 -97.25 90.875 C-96.914 89.209 -96.579 87.543 -96.25 85.875 C-97.033 86.165 -97.033 86.165 -97.832 86.461 C-108.329 90.175 -118.137 91.193 -129.25 90.875 C-127.93 90.875 -126.61 90.875 -125.25 90.875 C-115.113 90.467 -103.772 89.966 -95.25 83.875 C-94.92 82.885 -94.59 81.895 -94.25 80.875 C-97.063 80.875 -99.332 81.858 -102 82.75 Z " fill="#010101" transform="translate(288.25,48.125)"/>
<path d="M0 0 C5.513 0.663 10.397 2.441 15.562 4.375 C16.4 4.679 17.237 4.983 18.1 5.297 C22.335 6.866 26.218 8.479 30 11 C29.567 11.978 29.567 11.978 29.125 12.977 C27.079 17.792 25.438 21.659 26 27 C26.66 26.67 27.32 26.34 28 26 C28.371 27.052 28.743 28.104 29.125 29.188 C30.924 33.41 33.278 35.364 37 38 C40.56 39.187 43.438 39.097 47.188 39.062 C48.46 39.053 49.732 39.044 51.043 39.035 C52.019 39.024 52.995 39.012 54 39 C51.692 41.734 50.17 42.435 46.625 42.75 C43.228 43.033 40.306 42.96 37 42 C42.674 43.891 48.008 43.784 53.438 41.188 C56.351 39.651 57.075 38.887 59 36 C59.66 36 60.32 36 61 36 C63.106 28.637 63.441 22.324 61 15 C67.34 13.474 70.907 14.252 76.602 17.406 C80.269 19.843 83.176 22.638 86 26 C86.681 26.804 87.361 27.609 88.062 28.438 C89.504 32.379 88.579 35.288 87 39 C82.203 48.27 75.459 56.256 66 61 C64 60.961 64 60.961 62 60.375 C61.207 60.165 60.414 59.955 59.598 59.738 C58.74 59.495 57.883 59.251 57 59 C43.994 55.502 30.543 53.873 17.135 52.763 C16.245 52.689 15.355 52.615 14.438 52.539 C13.649 52.482 12.86 52.425 12.047 52.366 C8.451 51.723 7.097 49.876 5 47 C3.147 44.079 1.523 41.105 0 38 C-0.312 37.372 -0.624 36.744 -0.945 36.098 C-5.497 25.646 -4.904 12.689 -0.926 2.156 C-0.62 1.445 -0.315 0.733 0 0 Z " fill="#FDFDFD" transform="translate(124,218)"/>
<path d="M0 0 C-0.33 0.66 -0.66 1.32 -1 2 C-2.65 2 -4.3 2 -6 2 C-5.505 2.495 -5.505 2.495 -5 3 C-3.176 2.977 -1.351 2.947 0.472 2.883 C13.93 2.466 24.472 5.28 35 14 C35.636 14.5 36.271 15 36.926 15.516 C44.539 22.2 50.091 33.937 51 44 C51.661 55.555 51.661 55.555 49 60 C48.484 59.134 47.969 58.267 47.438 57.375 C43.367 51.319 37.059 46.1 30 44 C28.269 44.026 26.538 44.112 24.812 44.25 C22.258 44.379 22.258 44.379 20 44 C18.233 42.132 17.225 40.261 16.051 37.98 C14.475 35.01 13.178 34.105 10 33 C5.536 32.398 1.082 31.909 -3.012 34.055 C-5.149 35.804 -6.761 37.521 -8 40 C-10 39.333 -12 38.667 -14 38 C-14.87 37.714 -15.739 37.428 -16.635 37.133 C-19.698 36.122 -22.756 35.093 -25.812 34.062 C-26.874 33.715 -27.936 33.368 -29.029 33.01 C-30.037 32.668 -31.044 32.325 -32.082 31.973 C-33.002 31.666 -33.922 31.359 -34.87 31.043 C-35.573 30.699 -36.276 30.355 -37 30 C-37.33 29.01 -37.66 28.02 -38 27 C-32.516 16.523 -23.056 8.931 -12 5 C-18.593 6.69 -23.864 10.531 -29.148 14.691 C-31 16 -31 16 -33 16 C-31.706 12.119 -29.368 10.776 -26.125 8.562 C-25.543 8.163 -24.961 7.763 -24.361 7.352 C-18.511 3.468 -6.965 -3.483 0 0 Z " fill="#FFFFFF" transform="translate(166,174)"/>
<path d="M0 0 C3.231 2.741 5.403 5.851 7.637 9.422 C9.881 12.611 12.186 14.939 15.105 17.512 C16.066 18.364 17.026 19.216 18.016 20.094 C18.953 20.912 19.89 21.731 20.855 22.574 C21.679 23.3 22.503 24.026 23.352 24.773 C25.18 26.381 27.014 27.981 28.855 29.574 C33.082 28.075 36.814 25.948 40.672 23.695 C45.321 21.308 49.831 21.391 54.98 21.387 C55.709 21.374 56.437 21.362 57.188 21.35 C59.078 21.344 60.969 21.452 62.855 21.574 C63.515 22.234 64.175 22.894 64.855 23.574 C63.314 23.505 63.314 23.505 61.742 23.434 C49.781 23.053 40.373 24.595 30.871 32.508 C26.385 37.107 22.855 42.064 22.855 48.574 C23.207 47.994 23.559 47.414 23.922 46.816 C29.954 37.272 36.713 31.512 47.855 28.574 C52.856 28.051 57.844 28.266 62.855 28.574 C62.525 29.234 62.195 29.894 61.855 30.574 C61.117 30.528 60.378 30.481 59.617 30.434 C49.364 30.069 40.687 32.238 32.637 38.82 C25.52 45.827 21.854 54.637 21.48 64.574 C21.758 72.59 24.193 79.143 28.855 85.574 C28.855 86.234 28.855 86.894 28.855 87.574 C29.515 87.574 30.175 87.574 30.855 87.574 C30.855 88.234 30.855 88.894 30.855 89.574 C31.515 89.574 32.175 89.574 32.855 89.574 C32.855 90.234 32.855 90.894 32.855 91.574 C33.432 91.862 34.008 92.149 34.602 92.445 C36.017 93.154 37.427 93.874 38.828 94.609 C44.044 97.174 48.577 98.106 54.375 98.398 C56.659 98.56 58.66 98.945 60.855 99.574 C60.855 99.904 60.855 100.234 60.855 100.574 C50.061 101.252 40.431 99.527 31.855 92.574 C31.855 91.914 31.855 91.254 31.855 90.574 C31.195 90.574 30.535 90.574 29.855 90.574 C29.855 89.914 29.855 89.254 29.855 88.574 C29.195 88.574 28.535 88.574 27.855 88.574 C19.186 78.094 18.27 64.624 18.855 51.574 C17.807 51.392 17.807 51.392 16.738 51.207 C15.828 51.039 14.918 50.872 13.98 50.699 C13.076 50.537 12.171 50.374 11.238 50.207 C8.855 49.574 8.855 49.574 6.855 47.574 C6.568 44.644 6.568 44.644 6.512 40.914 C6.497 40.25 6.482 39.586 6.467 38.902 C6.421 36.772 6.387 34.642 6.355 32.512 C6.784 16.005 6.784 16.005 -0.574 2.016 C-3.932 -1.066 -6.14 -2.302 -10.707 -2.863 C-14.645 -2.362 -15.746 -1.496 -18.145 1.574 C-17.258 2.131 -16.371 2.688 -15.457 3.262 C-7.888 8.41 -7.888 8.41 -6.473 12.531 C-6.082 14.637 -6.082 14.637 -6.145 18.574 C-9.037 22.377 -12.073 23.51 -16.582 24.824 C-17.694 25.159 -18.807 25.495 -19.953 25.84 C-22.83 26.502 -25.212 26.728 -28.145 26.574 C-24.815 24.355 -21.995 23.567 -18.145 22.512 C-13.118 21.13 -13.118 21.13 -8.145 19.574 C-8.135 14.093 -8.135 14.093 -10.852 9.52 C-14.146 6.573 -16.73 4.353 -21.145 3.574 C-23.376 3.706 -23.376 3.706 -25.732 4.147 C-26.638 4.298 -27.545 4.449 -28.479 4.604 C-29.458 4.774 -30.437 4.945 -31.445 5.121 C-32.473 5.293 -33.5 5.465 -34.559 5.642 C-37.859 6.195 -41.158 6.759 -44.457 7.324 C-48.744 8.054 -53.032 8.777 -57.32 9.496 C-58.382 9.675 -59.443 9.853 -60.536 10.037 C-68.851 11.413 -77.184 12.558 -85.554 13.548 C-92.279 14.366 -98.58 15.812 -105.113 17.621 C-108.95 18.613 -112.785 19.061 -116.717 19.516 C-127.07 20.736 -133.765 23.324 -142.145 29.574 C-144.711 30.857 -146.509 30.672 -149.379 30.637 C-150.953 30.625 -150.953 30.625 -152.559 30.613 C-154.767 30.587 -156.975 30.561 -159.184 30.535 C-160.238 30.527 -161.293 30.52 -162.379 30.512 C-163.34 30.5 -164.302 30.489 -165.292 30.477 C-168.32 30.58 -171.161 31.059 -174.145 31.574 C-177.456 31.777 -180.765 31.764 -184.082 31.762 C-185.006 31.762 -185.931 31.763 -186.883 31.764 C-193.747 31.711 -200.344 31.109 -207.113 30.012 C-209.847 29.617 -212.389 29.492 -215.145 29.574 C-215.315 30.226 -215.485 30.879 -215.66 31.551 C-217.155 36.941 -218.747 41.122 -222.145 45.574 C-222.145 41.946 -221.075 39.713 -219.645 36.387 C-219.18 35.3 -218.716 34.213 -218.238 33.094 C-217.877 32.262 -217.516 31.431 -217.145 30.574 C-219.455 30.244 -221.765 29.914 -224.145 29.574 C-224.554 30.212 -224.964 30.85 -225.387 31.508 C-226.195 32.747 -226.195 32.747 -227.02 34.012 C-227.553 34.835 -228.087 35.659 -228.637 36.508 C-230.145 38.574 -230.145 38.574 -232.145 39.574 C-231.134 37.544 -230.116 35.519 -229.074 33.504 C-228.552 32.487 -228.552 32.487 -228.02 31.449 C-227.49 30.424 -227.49 30.424 -226.949 29.379 C-226.009 27.599 -226.009 27.599 -226.145 25.574 C-226.543 26.296 -226.941 27.018 -227.352 27.762 C-227.881 28.69 -228.411 29.618 -228.957 30.574 C-229.479 31.502 -230.001 32.43 -230.539 33.387 C-231.069 34.109 -231.599 34.83 -232.145 35.574 C-233.135 35.574 -234.125 35.574 -235.145 35.574 C-234.735 35.017 -234.325 34.46 -233.902 33.887 C-230.358 28.867 -227.539 24.789 -227.145 18.574 C-230.377 11.509 -237.116 6.834 -243.707 3.137 C-247.041 2.367 -249.818 2.922 -253.145 3.574 C-252.794 4.564 -252.443 5.554 -252.082 6.574 C-250.392 12.495 -251.544 18.027 -254.145 23.574 C-254.805 23.574 -255.465 23.574 -256.145 23.574 C-256.529 24.495 -256.529 24.495 -256.922 25.434 C-259.002 29.076 -262.267 30.282 -266.145 31.574 C-271.919 32.46 -276.104 31.676 -281.145 28.574 C-280.155 28.079 -280.155 28.079 -279.145 27.574 C-278.299 27.904 -277.453 28.234 -276.582 28.574 C-272.222 29.843 -268.561 29.495 -264.145 28.574 C-263.815 28.244 -263.485 27.914 -263.145 27.574 C-263.93 27.621 -264.715 27.667 -265.523 27.715 C-273.362 27.984 -277.838 27.591 -283.711 22.113 C-285.145 20.574 -285.145 20.574 -287.145 17.574 C-286.77 15.387 -286.77 15.387 -286.145 13.574 C-285.865 14.105 -285.585 14.636 -285.297 15.184 C-282.434 20.228 -279.825 23.802 -274.145 25.574 C-267.648 26.689 -263.152 25.655 -257.738 21.961 C-255.453 19.972 -254.218 18.313 -253.914 15.27 C-253.903 8.838 -253.903 8.838 -255.145 2.574 C-255.805 2.244 -256.465 1.914 -257.145 1.574 C-252.851 -1.288 -249.182 -1.012 -244.145 -0.426 C-236.612 1.77 -229.587 7.689 -225.465 14.246 C-222.145 20.737 -222.145 20.737 -222.145 23.574 C-206.625 28.101 -190.774 27.892 -174.758 27.619 C-171.124 27.574 -167.494 27.596 -163.859 27.625 C-150.607 27.601 -141.54 27.188 -131.145 18.574 C-127.796 17.458 -124.784 17.184 -121.27 16.824 C-114.842 16.1 -108.717 14.808 -102.457 13.199 C-93.078 10.834 -83.706 9.411 -74.119 8.173 C-61.52 6.538 -48.988 4.532 -36.448 2.504 C-35.652 2.376 -34.856 2.248 -34.036 2.117 C-32.536 1.876 -31.037 1.632 -29.538 1.387 C-26.7 0.931 -24.025 0.574 -21.145 0.574 C-20.876 -0.045 -20.608 -0.663 -20.332 -1.301 C-18.724 -4.178 -16.871 -5.196 -13.77 -6.176 C-8.135 -6.712 -4.255 -3.297 0 0 Z " fill="#020202" transform="translate(439.14453125,230.42578125)"/>
<path d="M0 0 C7.278 -0.606 10.919 -0.157 16.602 4.492 C18 6 18 6 18 8 C18.588 8.277 19.177 8.555 19.783 8.841 C21.873 9.934 23.613 11.109 25.477 12.547 C26.138 13.055 26.8 13.563 27.481 14.086 C28.189 14.635 28.896 15.184 29.625 15.75 C30.369 16.323 31.113 16.897 31.88 17.488 C34.257 19.321 36.629 21.16 39 23 C39.768 23.595 40.537 24.19 41.329 24.804 C47.436 29.536 47.436 29.536 50.438 31.89 C54.004 34.686 57.585 37.445 61.246 40.117 C61.903 40.606 62.559 41.094 63.236 41.597 C64.458 42.505 65.692 43.398 66.938 44.274 C68.57 45.5 68.57 45.5 71 48 C71.367 51.312 71.367 51.312 71 54 C69.742 54.289 68.484 54.577 67.188 54.875 C64.146 55.573 62.693 56.204 60 58 C59.042 57.212 58.084 56.425 57.098 55.613 C47.912 48.088 38.596 40.765 29.12 33.608 C26.99 31.993 24.873 30.361 22.758 28.727 C15.417 23.088 8.303 18.152 0 14 C0 9.38 0 4.76 0 0 Z " fill="#FFFFFF" transform="translate(360,158)"/>
<path d="M0 0 C16.17 0 32.34 0 49 0 C49.591 12.41 50.158 24.61 50 37 C49.573 36.66 49.147 36.319 48.707 35.969 C39.171 28.576 29.069 22.704 18 17.965 C12.896 15.703 9.072 12.797 5 9 C4.216 8.319 3.433 7.639 2.625 6.938 C1 5 1 5 0 0 Z " fill="#FFFFFF" transform="translate(67,160)"/>
<path d="M0 0 C3.344 1.145 4.929 3.043 7.168 5.742 C7.672 8.937 7.672 8.937 7.516 12.512 C7.481 13.813 7.447 15.114 7.412 16.455 C7.354 17.822 7.294 19.188 7.23 20.555 C6.755 31.392 7.103 37.645 13.168 46.742 C3.268 46.742 -6.632 46.742 -16.832 46.742 C-16.172 44.102 -15.512 41.462 -14.832 38.742 C-14.644 36.6 -14.527 34.451 -14.488 32.301 C-14.459 31.14 -14.429 29.979 -14.398 28.783 C-14.354 26.377 -14.31 23.971 -14.266 21.564 C-13.898 7.196 -13.898 7.196 -9.832 2.367 C-6.411 -0.412 -4.377 -0.288 0 0 Z " fill="#FFFFFF" transform="translate(284.83203125,48.2578125)"/>
<path d="M0 0 C0.33 0.66 0.66 1.32 1 2 C1.771 2.308 2.542 2.616 3.336 2.934 C6.042 4.017 7.48 5.132 9.625 7.062 C14.207 10.766 19.113 13.079 24.438 15.5 C34.68 20.187 43.006 24.981 50 34 C47.154 34.802 44.567 35.148 41.615 35.221 C40.757 35.244 39.9 35.268 39.016 35.291 C37.641 35.321 37.641 35.321 36.238 35.352 C35.292 35.375 34.345 35.398 33.37 35.422 C31.374 35.469 29.378 35.515 27.382 35.558 C24.313 35.625 21.246 35.703 18.178 35.781 C16.24 35.826 14.301 35.87 12.363 35.914 C11.44 35.938 10.518 35.962 9.567 35.986 C7.378 36.03 5.189 36.021 3 36 C-1.092 31.908 0.611 18.375 0.438 13 C0.394 11.748 0.351 10.497 0.307 9.207 C0.201 6.138 0.099 3.069 0 0 Z " fill="#FFFFFF" transform="translate(65,180)"/>
<path d="M0 0 C4.839 2.33 7.67 5.161 10 10 C10.797 14.994 10.579 18.797 8.375 23.375 C5.018 27.085 2.482 29.675 -2.656 30.348 C-7.782 30.506 -12.039 30.601 -16 27 C-19.411 23.312 -20.307 20.4 -20.5 15.5 C-20.3 10.579 -19.429 7.7 -16 4 C-11.063 -0.467 -6.391 -1.02 0 0 Z " fill="#FFFFFF" transform="translate(288,154)"/>
<path d="M0 0 C4.292 2.146 7.834 4.766 11.66 7.637 C12.818 8.312 12.818 8.312 14 9 C17.335 7.888 18.637 6.526 21 4 C22.706 12.649 24.328 21.197 25 30 C21.98 30.507 18.959 31.006 15.938 31.5 C15.09 31.643 14.242 31.786 13.369 31.934 C8.507 32.722 3.925 33.16 -1 33 C0.333 30.333 1.667 27.667 3 25 C1.718 24.06 1.718 24.06 0.41 23.102 C-0.706 22.276 -1.822 21.451 -2.938 20.625 C-3.501 20.213 -4.065 19.8 -4.646 19.375 C-8.887 16.227 -8.887 16.227 -10 14 C-6.7 9.38 -3.4 4.76 0 0 Z " fill="#000000" transform="translate(30,133)"/>
<path d="M0 0 C2.762 2.762 2.579 5.207 3 9 C3.641 8.867 4.281 8.734 4.941 8.598 C9.95 7.575 14.931 6.661 20 6 C20.509 7.873 21.007 9.748 21.5 11.625 C21.778 12.669 22.057 13.713 22.344 14.789 C22.991 17.957 23.116 20.777 23 24 C17.352 25.842 11.915 26.548 6 27 C6.33 29.97 6.66 32.94 7 36 C2.661 33.831 -1.188 31.289 -5.188 28.562 C-5.924 28.072 -6.661 27.582 -7.42 27.076 C-8.121 26.599 -8.821 26.121 -9.543 25.629 C-10.183 25.197 -10.822 24.764 -11.481 24.319 C-13 23 -13 23 -14 20 C-13.151 18.254 -13.151 18.254 -11.797 16.348 C-11.311 15.653 -10.825 14.959 -10.324 14.244 C-9.545 13.164 -9.545 13.164 -8.75 12.062 C-8.246 11.346 -7.742 10.63 -7.223 9.893 C-4.867 6.556 -2.477 3.248 0 0 Z " fill="#000000" transform="translate(449,197)"/>
<path d="M0 0 C0.66 0 1.32 0 2 0 C3.738 2.343 5.352 4.682 6.938 7.125 C7.602 8.123 7.602 8.123 8.279 9.141 C10.243 12.126 12.014 15.03 13.586 18.246 C15.017 21.032 16.439 22.78 18.688 24.938 C19.395 25.618 20.103 26.299 20.832 27 C23.46 29.424 26.126 31.793 28.836 34.125 C32.947 37.687 36.965 41.353 41 45 C38 45 38 45 35.938 43.062 C31.816 40.168 27.933 40.192 23 40 C22.714 44.856 22.724 49.285 24 54 C26.718 56.406 29.181 57.62 32.531 58.984 C35 60 35 60 36 62 C23.235 57.471 23.235 57.471 21 53 C20.904 51.19 20.87 49.375 20.875 47.562 C20.872 46.594 20.87 45.626 20.867 44.629 C21 42 21 42 22 39 C24.31 38.34 26.62 37.68 29 37 C25.04 33.37 21.08 29.74 17 26 C17.495 28.351 17.495 28.351 18 30.75 C21.367 51.417 18.491 71.226 7 89 C3.721 93.39 -0.063 97.204 -4 101 C-4.61 101.641 -5.219 102.281 -5.848 102.941 C-14.064 111.008 -28.72 119.531 -40 122 C-42.258 121.582 -42.258 121.582 -44 121 C-41.69 120.01 -39.38 119.02 -37 118 C-38.239 118.238 -38.239 118.238 -39.504 118.48 C-58.581 121.315 -75.037 116.642 -91 106 C-90.505 105.01 -90.505 105.01 -90 104 C-89.14 104.531 -88.28 105.062 -87.395 105.609 C-70.369 115.887 -53.589 118.985 -34 115 C-18.253 110.205 -5.091 100.171 3.43 86.102 C11.734 69.7 12.968 52.606 8 35 C5.451 27.426 2.204 21.08 -3 15 C-2.67 14.34 -2.34 13.68 -2 13 C10.645 27.142 14.202 44.035 13.26 62.446 C12.42 70.689 9.091 78.389 6 86 C16.41 66.464 19.954 47.854 14 26 C11.479 18.889 7.712 12.675 3.551 6.41 C2.205 4.318 1.059 2.248 0 0 Z " fill="#010101" transform="translate(337,118)"/>
<path d="M0 0 C5.304 3.838 10.241 7.882 15 12.375 C15.584 12.92 16.168 13.466 16.77 14.027 C18.183 15.348 19.592 16.674 21 18 C20.518 18.797 20.036 19.593 19.539 20.414 C18.907 21.474 18.276 22.533 17.625 23.625 C16.999 24.669 16.372 25.713 15.727 26.789 C14.095 29.822 12.979 32.706 12 36 C8.7 35.67 5.4 35.34 2 35 C0.278 30.526 -0.238 26.853 -0.195 22.07 C-0.189 20.781 -0.182 19.492 -0.176 18.164 C-0.159 16.818 -0.142 15.471 -0.125 14.125 C-0.115 12.755 -0.106 11.385 -0.098 10.016 C-0.074 6.677 -0.041 3.339 0 0 Z " fill="#FFFFFF" transform="translate(447,244)"/>
<path d="M0 0 C2.642 2.251 3.137 5.133 3.688 8.438 C3.783 12.078 3.552 15.68 3.312 19.312 C3.205 21.364 3.099 23.417 2.996 25.469 C2.917 26.983 2.917 26.983 2.835 28.527 C1.697 42.645 1.697 42.645 5.812 55.871 C6.688 57.438 6.688 57.438 6.688 59.438 C7.347 59.438 8.007 59.438 8.688 59.438 C8.192 60.428 8.192 60.428 7.688 61.438 C1.84 57.013 0.823 51.48 -0.312 44.438 C-0.51 39.684 -0.289 34.997 0 30.25 C0.122 27.84 0.243 25.43 0.363 23.02 C0.423 21.895 0.483 20.77 0.545 19.612 C0.727 15.547 0.736 11.506 0.688 7.438 C-5.957 6.978 -11.646 8.67 -18 10.5 C-19.204 10.839 -20.409 11.179 -21.65 11.528 C-26.209 12.815 -30.761 14.126 -35.312 15.438 C-37.402 16.038 -39.492 16.639 -41.582 17.24 C-50.831 19.901 -60.079 22.566 -69.323 25.244 C-70.426 25.564 -71.53 25.883 -72.667 26.213 C-74.738 26.813 -76.808 27.413 -78.879 28.015 C-79.827 28.29 -80.774 28.564 -81.75 28.847 C-82.664 29.113 -83.577 29.379 -84.518 29.654 C-86.469 30.201 -88.431 30.715 -90.398 31.203 C-91.389 31.452 -92.381 31.7 -93.402 31.956 C-94.296 32.17 -95.191 32.384 -96.113 32.604 C-98.657 33.324 -98.657 33.324 -100.312 36.438 C-100.973 36.438 -101.632 36.438 -102.312 36.438 C-101.812 34.625 -101.812 34.625 -100.312 32.438 C-93.578 29.572 -86.532 27.679 -79.504 25.672 C-78.265 25.315 -77.026 24.959 -75.749 24.592 C-73.125 23.837 -70.5 23.084 -67.875 22.333 C-64.591 21.393 -61.309 20.45 -58.026 19.506 C-51.02 17.49 -44.01 15.487 -36.998 13.49 C-33.378 12.456 -29.761 11.411 -26.144 10.365 C-23.918 9.728 -21.691 9.09 -19.465 8.453 C-18.466 8.161 -17.467 7.87 -16.437 7.569 C-10.703 5.94 -5.257 4.924 0.688 4.438 C0.688 3.777 0.688 3.118 0.688 2.438 C-6.525 0.926 -11.844 2.31 -18.812 4.438 C-20.435 4.913 -20.435 4.913 -22.089 5.397 C-24.355 6.062 -26.62 6.734 -28.882 7.412 C-33.345 8.746 -37.82 10.041 -42.295 11.338 C-45.284 12.205 -48.271 13.08 -51.258 13.957 C-55.271 15.135 -59.289 16.295 -63.312 17.438 C-63.312 16.777 -63.312 16.118 -63.312 15.438 C-49.618 11.155 -35.898 6.958 -22.125 2.938 C-20.951 2.588 -19.777 2.238 -18.567 1.877 C-6.552 -1.594 -6.552 -1.594 0 0 Z " fill="#000000" transform="translate(431.3125,262.5625)"/>
<path d="M0 0 C0.66 0 1.32 0 2 0 C2.937 2.812 3.135 4.587 3.125 7.5 C3.129 8.66 3.129 8.66 3.133 9.844 C3 12 3 12 2 15 C4.931 15.251 6.556 15.28 9.082 13.688 C13.039 11.399 17.149 10.162 21.5 8.812 C22.342 8.54 23.184 8.267 24.051 7.986 C28.116 6.709 31.683 5.602 36 6 C33.11 7.927 31.006 8.724 27.711 9.691 C26.176 10.149 26.176 10.149 24.609 10.615 C23.542 10.928 22.475 11.24 21.375 11.562 C19.257 12.186 17.14 12.812 15.023 13.441 C13.615 13.854 13.615 13.854 12.177 14.276 C10.047 14.804 10.047 14.804 9 16 C9.132 18.979 9.327 21.948 9.551 24.922 C8.913 28.488 7.687 29.976 4.764 32.103 C1.707 33.658 -0.823 33.329 -4.188 33 C-4.902 32.936 -5.617 32.872 -6.354 32.806 C-8.906 32.567 -11.452 32.283 -14 32 C-16.161 31.783 -18.323 31.567 -20.484 31.352 C-30.809 30.292 -41.121 29.112 -51.375 27.5 C-52.087 27.394 -52.799 27.288 -53.533 27.178 C-57.606 26.494 -60.607 25.358 -64 23 C-64.04 23.628 -64.079 24.255 -64.12 24.902 C-65.492 45.707 -68.968 64.381 -76 84 C-76.66 83.67 -77.32 83.34 -78 83 C-77.528 81.672 -77.528 81.672 -77.047 80.316 C-68.879 56.673 -64.401 33.697 -70 9 C-69.34 9 -68.68 9 -68 9 C-67.758 9.759 -67.515 10.519 -67.266 11.301 C-66.93 12.295 -66.595 13.289 -66.25 14.312 C-65.763 15.792 -65.763 15.792 -65.266 17.301 C-63.844 20.333 -62.786 21.225 -60 23 C-57.903 23.713 -57.903 23.713 -55.633 24.062 C-54.762 24.218 -53.891 24.374 -52.993 24.534 C-52.047 24.688 -51.1 24.842 -50.125 25 C-48.636 25.25 -48.636 25.25 -47.116 25.505 C-38.527 26.882 -29.902 27.868 -21.25 28.75 C-19.379 28.941 -19.379 28.941 -17.469 29.137 C-5.357 31.242 -5.357 31.242 5.795 28.625 C7.214 27.034 7.214 27.034 7.074 24.738 C6.947 23.938 6.819 23.137 6.688 22.312 C6.568 21.504 6.448 20.696 6.324 19.863 C6.164 18.941 6.164 18.941 6 18 C4.35 17.34 2.7 16.68 1 16 C0.67 10.72 0.34 5.44 0 0 Z " fill="#000000" transform="translate(319,277)"/>
<path d="M0 0 C0.99 0.495 0.99 0.495 2 1 C2.055 2.075 2.111 3.15 2.168 4.257 C2.374 8.244 2.586 12.23 2.8 16.216 C2.891 17.942 2.981 19.667 3.07 21.393 C3.198 23.873 3.331 26.352 3.465 28.832 C3.503 29.604 3.542 30.376 3.582 31.171 C3.756 34.321 3.997 36.991 5 40 C20.84 40 36.68 40 53 40 C52.67 40.99 52.34 41.98 52 43 C35.664 43.611 19.351 44.185 3 44 C0.961 38.86 0.577 34.202 0.375 28.75 C0.337 27.884 0.299 27.018 0.26 26.126 C-0.089 17.418 -0.095 8.713 0 0 Z " fill="#FFFFFF" transform="translate(62,176)"/>
<path d="M0 0 C3.3 0 6.6 0 10 0 C9.67 0.99 9.34 1.98 9 3 C10.32 4.32 11.64 5.64 13 7 C13.66 5.35 14.32 3.7 15 2 C14.01 1.67 13.02 1.34 12 1 C12 0.67 12 0.34 12 0 C14.97 0 17.94 0 21 0 C21 0.66 21 1.32 21 2 C20.01 2.33 19.02 2.66 18 3 C16.614 4.623 15.274 6.287 14 8 C15.605 13.136 18.731 16.807 22 21 C18.37 21 14.74 21 11 21 C11.66 20.67 12.32 20.34 13 20 C11.245 16.818 11.245 16.818 9 14 C8.34 15.32 7.68 16.64 7 18 C7.99 18.99 8.98 19.98 10 21 C6.7 21 3.4 21 0 21 C0 20.34 0 19.68 0 19 C0.99 18.67 1.98 18.34 3 18 C3.33 17.34 3.66 16.68 4 16 C4.66 16 5.32 16 6 16 C6.945 13.021 7.48 10.944 6.023 8.078 C3.527 4.466 3.527 4.466 0 2 C0 1.34 0 0.68 0 0 Z " fill="#000000" transform="translate(16,17)"/>
<path d="M0 0 C8.345 1.403 16.391 3.249 24.438 5.875 C25.17 6.107 25.902 6.339 26.656 6.579 C34.561 9.245 41.246 13.018 46 20 C46 21.32 46 22.64 46 24 C51.903 19.366 57.643 14.625 63.188 9.566 C66.701 6.53 69.434 6.764 74 7 C76.438 8 76.438 8 78 9 C78 9.66 78 10.32 78 11 C78.66 11 79.32 11 80 11 C81.658 13.049 83.183 15.092 84.688 17.25 C85.13 17.877 85.573 18.503 86.029 19.149 C90.04 24.904 93.604 30.86 97 37 C96.01 37.495 96.01 37.495 95 38 C94.348 36.854 93.695 35.708 93.023 34.527 C92.141 32.997 91.258 31.467 90.375 29.938 C89.948 29.185 89.522 28.433 89.082 27.658 C86.466 23.149 83.68 19.231 80.124 15.412 C79 14 79 14 79 12 C78.34 12 77.68 12 77 12 C77 11.34 77 10.68 77 10 C72.311 9.013 69.99 8.593 65.5 10.438 C61.902 12.804 59.005 15.83 56.035 18.926 C54.099 20.899 52.1 22.704 50 24.5 C45.783 28.123 41.883 32.025 38 36 C37.01 35.505 37.01 35.505 36 35 C36.589 34.515 37.178 34.031 37.785 33.531 C42.103 29.846 42.103 29.846 44.555 24.898 C44.328 20.985 42.983 18.518 40.188 15.812 C30.954 8.975 19.621 6.688 8.658 4.055 C7.684 3.816 6.71 3.578 5.707 3.332 C4.825 3.123 3.943 2.914 3.034 2.698 C1 2 1 2 0 0 Z " fill="#000000" transform="translate(376,386)"/>
<path d="M0 0 C1.092 -0.018 1.092 -0.018 2.207 -0.037 C4.098 -0.042 5.988 0.065 7.875 0.188 C8.535 0.847 9.195 1.507 9.875 2.188 C8.848 2.141 7.82 2.095 6.762 2.047 C-5.177 1.667 -14.678 3.172 -24.117 11.156 C-31.315 18.438 -33.216 26.192 -34.125 36.188 C-34.785 36.188 -35.445 36.188 -36.125 36.188 C-36.125 34.207 -36.125 32.228 -36.125 30.188 C-36.785 30.188 -37.445 30.188 -38.125 30.188 C-38.125 29.527 -38.125 28.868 -38.125 28.188 C-37.135 28.188 -36.145 28.188 -35.125 28.188 C-35.084 27.404 -35.043 26.62 -35 25.812 C-33.931 21.382 -31.877 18.247 -29.402 14.457 C-27.88 12.186 -27.88 12.186 -28.125 9.188 C-30.563 6.5 -30.563 6.5 -33.125 4.188 C-32.795 3.528 -32.465 2.868 -32.125 2.188 C-30.145 4.167 -28.165 6.147 -26.125 8.188 C-21.899 6.688 -18.166 4.562 -14.309 2.309 C-9.659 -0.079 -5.149 0.005 0 0 Z " fill="#000000" transform="translate(494.125,251.8125)"/>
<path d="M0 0 C3.452 1.477 5.65 3.438 8.25 6.125 C8.956 6.849 9.663 7.574 10.391 8.32 C11.187 9.152 11.187 9.152 12 10 C9 10 9 10 7 8.062 C6.34 7.382 5.68 6.701 5 6 C4.01 5.67 3.02 5.34 2 5 C0.812 2.438 0.812 2.438 0 0 Z " fill="#090909" transform="translate(349,138)"/>
<path d="M0 0 C0.33 0 0.66 0 1 0 C1.081 1.457 1.139 2.916 1.188 4.375 C1.222 5.187 1.257 5.999 1.293 6.836 C1.196 7.55 1.1 8.264 1 9 C0.01 9.66 -0.98 10.32 -2 11 C-2.286 3.571 -2.286 3.571 0 0 Z " fill="#141414" transform="translate(151,235)"/>
<path d="M0 0 C0.33 0.66 0.66 1.32 1 2 C0.67 2.99 0.34 3.98 0 5 C-0.66 5 -1.32 5 -2 5 C-2.66 6.32 -3.32 7.64 -4 9 C-4.99 8.67 -5.98 8.34 -7 8 C-6.34 7.67 -5.68 7.34 -5 7 C-4.691 6.381 -4.381 5.762 -4.062 5.125 C-2.971 2.942 -1.793 1.63 0 0 Z " fill="#1F1F1F" transform="translate(185,249)"/>
<path d="M0 0 C0 3.196 -0.547 4.417 -2 7.188 C-2.371 7.903 -2.743 8.618 -3.125 9.355 C-3.558 10.17 -3.558 10.17 -4 11 C-4.99 11 -5.98 11 -7 11 C-6.023 9.353 -5.043 7.708 -4.062 6.062 C-3.517 5.146 -2.972 4.229 -2.41 3.285 C-1 1 -1 1 0 0 Z " fill="#373737" transform="translate(343,200)"/>
<path d="M0 0 C0 2.97 0 5.94 0 9 C-0.66 9 -1.32 9 -2 9 C-2 7.02 -2 5.04 -2 3 C-2.66 3 -3.32 3 -4 3 C-4 2.34 -4 1.68 -4 1 C-1 0 -1 0 0 0 Z " fill="#303030" transform="translate(460,279)"/>
</svg>
