<?xml version="1.0" encoding="UTF-8"?>
<!-- Generator: visioncortex VTracer 0.6.4 -->
<svg version="1.1" xmlns="http://www.w3.org/2000/svg" width="338" height="287">
<path d="M0 0 C111.54 0 223.08 0 338 0 C338 94.71 338 189.42 338 287 C226.46 287 114.92 287 0 287 C0 192.29 0 97.58 0 0 Z " fill="#FDFDFD" transform="translate(0,0)"/>
<path d="M0 0 C0.99 0.495 0.99 0.495 2 1 C-0.475 6.445 -0.475 6.445 -3 12 C-0.109 11.739 -0.109 11.739 3 10 C5.037 6.821 6.549 3.48 8 0 C8.99 0.495 8.99 0.495 10 1 C7.525 5.95 7.525 5.95 5 11 C7.376 10.885 9.75 10.758 12.125 10.625 C12.79 10.594 13.455 10.563 14.141 10.531 C18.394 10.281 22.113 9.783 26 8 C27.541 6.114 27.541 6.114 28.375 3.875 C28.851 2.788 28.851 2.788 29.336 1.68 C29.555 1.125 29.774 0.571 30 0 C31.32 0 32.64 0 34 0 C34 0.66 34 1.32 34 2 C35.98 2.33 37.96 2.66 40 3 C40 3.33 40 3.66 40 4 C36.7 4 33.4 4 30 4 C29.629 5.145 29.629 5.145 29.25 6.312 C27.822 9.382 26.877 10.278 24 12 C21.159 12.524 21.159 12.524 17.922 12.73 C16.762 12.811 15.602 12.892 14.406 12.975 C13.2 13.045 11.993 13.115 10.75 13.188 C8.917 13.31 8.917 13.31 7.047 13.436 C4.032 13.636 1.017 13.823 -2 14 C0.178 19.795 2.36 25.573 4.832 31.25 C10.348 43.924 14.91 56.797 19 70 C19.254 70.814 19.508 71.628 19.77 72.467 C24.211 86.997 26.227 101.942 28 117 C28.089 117.744 28.177 118.489 28.268 119.255 C29.717 131.66 30.331 143.89 30.25 156.375 C30.247 157.245 30.244 158.115 30.241 159.011 C29.866 249.883 29.866 249.883 12 279 C11.34 279.33 10.68 279.66 10 280 C11.419 276.41 12.917 272.861 14.438 269.312 C19.398 258.916 19.398 258.916 19 248 C16.884 245.672 14.505 243.725 12.062 241.75 C11.416 241.209 10.77 240.667 10.104 240.109 C6.743 237.269 6.743 237.269 3 235 C3 234.34 3 233.68 3 233 C2.411 232.728 1.822 232.456 1.216 232.176 C-0.958 231.022 -2.602 229.791 -4.453 228.18 C-5.072 227.645 -5.691 227.11 -6.328 226.559 C-6.962 226.003 -7.597 225.447 -8.25 224.875 C-8.9 224.312 -9.549 223.748 -10.219 223.168 C-11.816 221.782 -13.408 220.392 -15 219 C-11.054 219 -10.111 220.282 -7.125 222.812 C-6.15 223.631 -5.176 224.45 -4.172 225.293 C-3.114 226.195 -2.057 227.097 -1 228 C1.207 229.876 3.416 231.751 5.625 233.625 C6.169 234.088 6.713 234.551 7.274 235.028 C11.746 238.821 16.324 242.46 21 246 C23.004 238.963 23.814 231.955 24.562 224.688 C24.688 223.547 24.814 222.407 24.943 221.232 C26.72 204.405 27.239 187.47 27.688 170.562 C27.712 169.661 27.736 168.759 27.761 167.83 C28.162 152.094 27.608 136.669 26 121 C25.971 122.314 25.942 123.628 25.912 124.981 C25.794 129.964 25.639 134.945 25.475 139.927 C25.41 142.063 25.353 144.199 25.307 146.335 C24.973 161.433 22.862 174.686 18 189 C14.291 190.135 14.291 190.135 11.673 188.92 C10.825 188.37 9.978 187.82 9.105 187.254 C7.681 186.368 7.681 186.368 6.229 185.464 C5.225 184.836 4.222 184.209 3.188 183.562 C-6.22 177.909 -13.03 174.972 -24 177 C-23.885 179.709 -23.759 182.417 -23.625 185.125 C-23.579 186.266 -23.579 186.266 -23.531 187.43 C-23.24 193.051 -22.876 197.964 -18.902 202.277 C-16.109 206.275 -16.45 209.804 -16.562 214.562 C-16.555 215.413 -16.548 216.263 -16.541 217.139 C-16.577 220.62 -16.667 223.288 -18.152 226.465 C-22.474 230.055 -27.463 230.235 -32.875 230.125 C-34.027 230.107 -35.18 230.089 -36.367 230.07 C-37.236 230.047 -38.105 230.024 -39 230 C-38.996 230.557 -38.991 231.114 -38.987 231.688 C-38.942 237.479 -38.912 243.27 -38.89 249.061 C-38.88 251.223 -38.866 253.386 -38.849 255.548 C-38.825 258.653 -38.814 261.758 -38.805 264.863 C-38.794 265.832 -38.784 266.801 -38.773 267.799 C-38.773 268.7 -38.773 269.601 -38.773 270.529 C-38.769 271.321 -38.764 272.114 -38.759 272.931 C-39 275 -39 275 -41 278 C-41.006 277.268 -41.012 276.537 -41.018 275.783 C-41.076 268.854 -41.148 261.926 -41.236 254.997 C-41.28 251.436 -41.32 247.875 -41.346 244.314 C-41.378 240.21 -41.432 236.107 -41.488 232.004 C-41.498 230.105 -41.498 230.105 -41.508 228.168 C-41.684 217.483 -43.723 210.035 -50 201.438 C-50.989 200.042 -51.977 198.646 -52.965 197.25 C-53.469 196.546 -53.973 195.842 -54.492 195.117 C-56.889 191.752 -59.226 188.345 -61.562 184.938 C-62.237 183.954 -62.237 183.954 -62.926 182.951 C-63.83 181.632 -64.734 180.312 -65.637 178.992 C-66.559 177.645 -67.482 176.299 -68.406 174.953 C-69.777 172.952 -71.14 170.946 -72.5 168.938 C-72.909 168.343 -73.319 167.748 -73.74 167.135 C-79.131 159.125 -81.023 151.955 -81.281 142.422 C-81.337 140.556 -81.337 140.556 -81.395 138.652 C-81.429 137.365 -81.464 136.077 -81.5 134.75 C-81.122 119.932 -81.122 119.932 -85 106 C-85.487 104.404 -85.944 102.799 -86.375 101.188 C-90.526 87.264 -100.566 82.472 -112.688 75.625 C-115.012 74.301 -117.334 72.973 -119.656 71.645 C-120.757 71.015 -121.858 70.385 -122.992 69.737 C-127.518 67.123 -131.964 64.398 -136.387 61.613 C-137.249 61.081 -138.111 60.549 -139 60 C-140.008 59.316 -141.016 58.631 -142.054 57.926 C-146.548 55.381 -150.684 55.473 -155.746 55.574 C-156.675 55.578 -157.604 55.581 -158.561 55.584 C-161.52 55.6 -164.478 55.644 -167.438 55.688 C-169.39 55.699 -171.342 55.709 -173.295 55.717 C-184.228 55.787 -195.098 56.163 -206 57 C-205.477 57.272 -204.954 57.543 -204.415 57.823 C-185.216 67.804 -185.216 67.804 -177 73 C-177.99 73.495 -177.99 73.495 -179 74 C-181.196 73.037 -183.256 72.019 -185.363 70.887 C-185.992 70.557 -186.621 70.227 -187.269 69.888 C-189.288 68.829 -191.3 67.759 -193.312 66.688 C-195.315 65.629 -197.319 64.573 -199.324 63.519 C-200.572 62.862 -201.818 62.203 -203.063 61.539 C-206.313 59.821 -209.558 58.293 -213 57 C-209.5 59.86 -205.633 61.848 -201.621 63.879 C-200.541 64.431 -200.541 64.431 -199.44 64.995 C-197.903 65.78 -196.365 66.565 -194.827 67.347 C-190.822 69.384 -186.824 71.433 -182.824 73.48 C-182.044 73.88 -181.263 74.279 -180.458 74.69 C-174.154 77.915 -167.876 81.184 -161.622 84.505 C-157.443 86.722 -153.248 88.902 -149.035 91.055 C-148.002 91.585 -146.969 92.116 -145.905 92.663 C-143.91 93.687 -141.912 94.705 -139.911 95.716 C-129.96 100.839 -122.78 105.634 -118 116 C-114.878 126.299 -114.075 136.866 -113.184 147.535 C-111.502 165.843 -103.013 175.871 -91.211 189.324 C-88.324 192.618 -85.486 195.944 -82.688 199.312 C-81.61 200.606 -81.61 200.606 -80.512 201.926 C-79 204 -79 204 -79 206 C-78.34 206 -77.68 206 -77 206 C-75.266 207.906 -75.266 207.906 -73.25 210.5 C-72.188 211.861 -72.188 211.861 -71.105 213.25 C-70.411 214.157 -69.716 215.065 -69 216 C-68.398 216.784 -67.796 217.567 -67.176 218.375 C-61.873 225.36 -61.873 225.36 -61.886 231 C-61.887 232.041 -61.887 233.082 -61.887 234.155 C-61.892 235.282 -61.897 236.409 -61.902 237.57 C-61.904 239.297 -61.904 239.297 -61.907 241.059 C-61.912 244.748 -61.925 248.436 -61.938 252.125 C-61.943 254.621 -61.947 257.117 -61.951 259.613 C-61.962 265.742 -61.979 271.871 -62 278 C-62.33 278 -62.66 278 -63 278 C-63.006 277.402 -63.012 276.803 -63.018 276.187 C-63.082 269.941 -63.166 263.695 -63.262 257.449 C-63.296 255.121 -63.324 252.792 -63.346 250.463 C-63.38 247.109 -63.432 243.756 -63.488 240.402 C-63.498 238.849 -63.498 238.849 -63.508 237.264 C-63.689 228.282 -65.552 223.034 -71.938 216.438 C-74.572 213.699 -76.904 211.145 -79.004 207.973 C-81.07 204.896 -83.349 202.577 -86 200 C-87.483 198.271 -88.941 196.52 -90.375 194.75 C-91.539 193.315 -91.539 193.315 -92.727 191.852 C-94.763 189.297 -96.763 186.719 -98.75 184.125 C-100.624 181.681 -102.383 179.635 -104.625 177.5 C-111.106 170.678 -114.114 162.167 -114.965 152.953 C-115.127 151.37 -115.289 149.786 -115.451 148.203 C-115.696 145.731 -115.937 143.258 -116.175 140.785 C-117.435 125.631 -117.435 125.631 -123.312 111.75 C-123.68 111.147 -124.047 110.543 -124.426 109.922 C-128.419 105.047 -133.422 101.993 -138.996 99.215 C-139.989 98.708 -139.989 98.708 -141.001 98.191 C-143.143 97.1 -145.29 96.019 -147.438 94.938 C-148.93 94.179 -150.423 93.419 -151.915 92.658 C-154.892 91.14 -157.872 89.625 -160.852 88.112 C-166.38 85.302 -171.881 82.438 -177.375 79.562 C-178.283 79.088 -179.191 78.614 -180.127 78.125 C-186.998 74.532 -193.861 70.922 -200.714 67.295 C-205.445 64.797 -210.208 62.377 -215 60 C-214.17 63.845 -213.34 67.69 -212.51 71.535 C-211.79 74.866 -211.072 78.196 -210.356 81.527 C-208.567 89.829 -206.756 98.125 -204.875 106.406 C-204.386 108.578 -203.897 110.75 -203.408 112.923 C-203.096 114.301 -202.78 115.679 -202.46 117.056 C-202.015 118.973 -201.584 120.893 -201.152 122.812 C-200.905 123.891 -200.657 124.97 -200.402 126.082 C-199.753 130.796 -200.648 134.013 -203.438 137.812 C-203.869 138.417 -204.301 139.022 -204.746 139.645 C-205.16 140.092 -205.574 140.539 -206 141 C-206.66 141 -207.32 141 -208 141 C-208 141.99 -208 142.98 -208 144 C-207.237 144.392 -206.473 144.783 -205.687 145.187 C-192.039 152.196 -178.418 159.232 -164.983 166.645 C-159.399 169.718 -153.771 172.684 -148.1 175.595 C-117.719 191.216 -117.719 191.216 -106 204 C-106 204.66 -106 205.32 -106 206 C-105.01 206.33 -104.02 206.66 -103 207 C-101.317 208.925 -99.774 210.831 -98.25 212.875 C-97.805 213.467 -97.361 214.058 -96.903 214.667 C-84.625 231.17 -69 256.803 -69 278 C-69.66 278 -70.32 278 -71 278 C-71.19 277.322 -71.38 276.645 -71.576 275.947 C-78.727 250.775 -88.023 229.101 -105 209 C-105.854 207.896 -106.708 206.792 -107.562 205.688 C-110.257 202.716 -113.132 200.562 -116.426 198.297 C-116.945 197.869 -117.465 197.441 -118 197 C-118 196.34 -118 195.68 -118 195 C-118.99 194.652 -118.99 194.652 -120 194.297 C-123.889 192.616 -127.384 190.447 -131 188.25 C-156.285 173.204 -182.394 166.931 -211.537 165.234 C-213.796 165.019 -215.811 164.575 -218 164 C-218.023 146.546 -218.041 129.092 -218.052 111.638 C-218.057 103.534 -218.064 95.43 -218.075 87.326 C-218.085 80.266 -218.092 73.205 -218.094 66.145 C-218.095 62.404 -218.098 58.663 -218.106 54.922 C-218.114 50.753 -218.114 46.584 -218.114 42.414 C-218.117 41.165 -218.121 39.915 -218.124 38.628 C-218.123 37.499 -218.122 36.37 -218.12 35.207 C-218.121 34.22 -218.122 33.233 -218.123 32.216 C-218 30 -218 30 -217 29 C-214.505 28.923 -212.038 28.91 -209.543 28.938 C-207.903 28.946 -206.264 28.955 -204.624 28.963 C-203.742 28.97 -202.86 28.976 -201.952 28.982 C-161.477 29.242 -121.035 28.205 -80.615 26.132 C-77.975 25.999 -75.335 25.871 -72.694 25.746 C-68.509 25.546 -64.325 25.337 -60.141 25.12 C-58.604 25.041 -57.067 24.965 -55.529 24.891 C-53.442 24.791 -51.356 24.678 -49.27 24.562 C-48.1 24.502 -46.931 24.441 -45.726 24.379 C-42.857 24.259 -42.857 24.259 -41 22 C-38.39 21.498 -38.39 21.498 -35.109 21.148 C-33.925 21.02 -32.74 20.891 -31.52 20.758 C-30.276 20.631 -29.032 20.505 -27.75 20.375 C-26.522 20.241 -25.293 20.107 -24.027 19.969 C-18.655 19.398 -13.408 18.924 -8 19 C-7.841 18.466 -7.683 17.933 -7.52 17.383 C-5.599 11.251 -2.998 5.675 0 0 Z " fill="#111111" transform="translate(218,5)"/>
<path d="M0 0 C0.33 0 0.66 0 1 0 C1.168 2.917 1.334 5.833 1.5 8.75 C1.572 9.987 1.572 9.987 1.645 11.25 C1.69 12.049 1.735 12.848 1.781 13.672 C1.844 14.772 1.844 14.772 1.908 15.894 C2.164 21.755 2.164 21.755 0 25 C-1.826 25.727 -1.826 25.727 -4.063 26.227 C-4.901 26.42 -5.74 26.614 -6.603 26.813 C-7.966 27.109 -7.966 27.109 -9.355 27.41 C-10.29 27.623 -11.225 27.836 -12.189 28.056 C-15.186 28.736 -18.186 29.4 -21.188 30.062 C-24.17 30.732 -27.151 31.406 -30.133 32.08 C-31.988 32.499 -33.845 32.914 -35.702 33.326 C-39.465 34.165 -43.185 35.026 -46.876 36.142 C-50 37 -50 37 -54 37 C-53.97 45.285 -52.453 49.818 -47 56 C-46.67 56.66 -46.34 57.32 -46 58 C-45.67 51.4 -45.34 44.8 -45 38 C-37.125 35.75 -37.125 35.75 -34 37 C-34.33 37.99 -34.66 38.98 -35 40 C-37.062 40.688 -37.062 40.688 -39 41 C-39.027 42.792 -39.046 44.583 -39.062 46.375 C-39.08 47.872 -39.08 47.872 -39.098 49.398 C-39.18 51.984 -39.18 51.984 -38 54 C-37.34 53.67 -36.68 53.34 -36 53 C-36.33 52.34 -36.66 51.68 -37 51 C-37.25 47.165 -37.438 44.102 -35 41 C-31.921 39.527 -30.074 38.672 -26.75 39.688 C-25 41 -25 41 -23 44 C-22.921 46.332 -22.912 48.668 -23 51 C-20.03 50.34 -17.06 49.68 -14 49 C-14 50.32 -14 51.64 -14 53 C-17.079 53.87 -20.164 54.718 -23.25 55.562 C-24.123 55.809 -24.995 56.056 -25.895 56.311 C-26.739 56.539 -27.583 56.768 -28.453 57.004 C-29.228 57.219 -30.003 57.433 -30.802 57.655 C-34.001 58.157 -36.147 57.427 -39 56 C-38.67 56.66 -38.34 57.32 -38 58 C-36.023 58.623 -36.023 58.623 -33.633 59 C-32.304 59.248 -32.304 59.248 -30.949 59.5 C-30.017 59.665 -29.085 59.83 -28.125 60 C-26.293 60.327 -24.462 60.66 -22.633 61 C-21.817 61.144 -21.001 61.289 -20.161 61.438 C-18 62 -18 62 -15 64 C-36.432 62.568 -36.432 62.568 -41 58 C-41.319 56.121 -41.319 56.121 -41.414 53.867 C-41.453 53.062 -41.491 52.256 -41.531 51.426 C-41.578 50.163 -41.578 50.163 -41.625 48.875 C-41.664 48.026 -41.702 47.176 -41.742 46.301 C-41.837 44.201 -41.919 42.1 -42 40 C-42.66 40 -43.32 40 -44 40 C-43.856 41.114 -43.711 42.227 -43.562 43.375 C-42.012 57.552 -41.858 71.756 -42 86 C-42.66 85.67 -43.32 85.34 -44 85 C-44.344 82.855 -44.344 82.855 -44.5 80.188 C-44.715 76.543 -45.29 74.205 -47 71 C-47.487 69.404 -47.944 67.799 -48.375 66.188 C-52.526 52.264 -62.566 47.472 -74.688 40.625 C-77.012 39.301 -79.334 37.973 -81.656 36.645 C-82.757 36.015 -83.858 35.385 -84.992 34.737 C-89.518 32.123 -93.964 29.398 -98.387 26.613 C-99.249 26.081 -100.111 25.549 -101 25 C-102.008 24.316 -103.016 23.631 -104.054 22.926 C-108.548 20.381 -112.684 20.473 -117.746 20.574 C-118.675 20.578 -119.604 20.581 -120.561 20.584 C-123.52 20.6 -126.478 20.644 -129.438 20.688 C-131.39 20.699 -133.342 20.709 -135.295 20.717 C-146.228 20.787 -157.098 21.163 -168 22 C-167.477 22.272 -166.954 22.543 -166.415 22.823 C-147.216 32.804 -147.216 32.804 -139 38 C-139.99 38.495 -139.99 38.495 -141 39 C-143.196 38.037 -145.256 37.019 -147.363 35.887 C-147.992 35.557 -148.621 35.227 -149.269 34.888 C-151.288 33.829 -153.3 32.759 -155.312 31.688 C-157.315 30.629 -159.319 29.573 -161.324 28.519 C-162.572 27.862 -163.818 27.203 -165.063 26.539 C-168.313 24.821 -171.558 23.293 -175 22 C-171.5 24.86 -167.633 26.848 -163.621 28.879 C-162.541 29.431 -162.541 29.431 -161.44 29.995 C-159.903 30.78 -158.365 31.565 -156.827 32.347 C-152.822 34.384 -148.824 36.433 -144.824 38.48 C-144.044 38.88 -143.263 39.279 -142.458 39.69 C-136.154 42.915 -129.876 46.184 -123.622 49.505 C-119.443 51.722 -115.248 53.902 -111.035 56.055 C-110.002 56.585 -108.969 57.116 -107.905 57.663 C-105.91 58.687 -103.912 59.705 -101.911 60.716 C-91.96 65.839 -84.78 70.634 -80 81 C-76.878 91.299 -76.075 101.866 -75.184 112.535 C-73.502 130.843 -65.013 140.871 -53.211 154.324 C-50.324 157.618 -47.486 160.944 -44.688 164.312 C-43.61 165.606 -43.61 165.606 -42.512 166.926 C-41 169 -41 169 -41 171 C-40.34 171 -39.68 171 -39 171 C-37.266 172.906 -37.266 172.906 -35.25 175.5 C-34.188 176.861 -34.188 176.861 -33.105 178.25 C-32.411 179.157 -31.716 180.065 -31 181 C-30.398 181.784 -29.796 182.567 -29.176 183.375 C-23.873 190.36 -23.873 190.36 -23.886 196 C-23.887 197.041 -23.887 198.082 -23.887 199.155 C-23.892 200.282 -23.897 201.409 -23.902 202.57 C-23.904 204.297 -23.904 204.297 -23.907 206.059 C-23.912 209.748 -23.925 213.436 -23.938 217.125 C-23.943 219.621 -23.947 222.117 -23.951 224.613 C-23.962 230.742 -23.979 236.871 -24 243 C-24.33 243 -24.66 243 -25 243 C-25.006 242.402 -25.012 241.803 -25.018 241.187 C-25.082 234.941 -25.166 228.695 -25.262 222.449 C-25.296 220.121 -25.324 217.792 -25.346 215.463 C-25.38 212.109 -25.432 208.756 -25.488 205.402 C-25.498 203.849 -25.498 203.849 -25.508 202.264 C-25.689 193.282 -27.552 188.034 -33.938 181.438 C-36.572 178.699 -38.904 176.145 -41.004 172.973 C-43.07 169.896 -45.349 167.577 -48 165 C-49.483 163.271 -50.941 161.52 -52.375 159.75 C-53.539 158.315 -53.539 158.315 -54.727 156.852 C-56.763 154.297 -58.763 151.719 -60.75 149.125 C-62.624 146.681 -64.383 144.635 -66.625 142.5 C-73.106 135.678 -76.114 127.167 -76.965 117.953 C-77.127 116.37 -77.289 114.786 -77.451 113.203 C-77.696 110.731 -77.937 108.258 -78.175 105.785 C-79.435 90.631 -79.435 90.631 -85.312 76.75 C-85.68 76.147 -86.047 75.543 -86.426 74.922 C-90.419 70.047 -95.422 66.993 -100.996 64.215 C-101.658 63.877 -102.32 63.539 -103.001 63.191 C-105.143 62.1 -107.29 61.019 -109.438 59.938 C-110.93 59.179 -112.423 58.419 -113.915 57.658 C-116.892 56.14 -119.872 54.625 -122.852 53.112 C-128.38 50.302 -133.881 47.438 -139.375 44.562 C-140.283 44.088 -141.191 43.614 -142.127 43.125 C-148.998 39.532 -155.861 35.922 -162.714 32.295 C-167.445 29.797 -172.208 27.377 -177 25 C-176.17 28.845 -175.34 32.69 -174.51 36.535 C-173.79 39.866 -173.072 43.196 -172.356 46.527 C-170.567 54.829 -168.756 63.125 -166.875 71.406 C-166.386 73.578 -165.897 75.75 -165.408 77.923 C-165.096 79.301 -164.78 80.679 -164.46 82.056 C-164.015 83.973 -163.584 85.893 -163.152 87.812 C-162.905 88.891 -162.657 89.97 -162.402 91.082 C-161.753 95.796 -162.648 99.013 -165.438 102.812 C-166.085 103.719 -166.085 103.719 -166.746 104.645 C-167.16 105.092 -167.574 105.539 -168 106 C-168.66 106 -169.32 106 -170 106 C-170 106.99 -170 107.98 -170 109 C-169.237 109.392 -168.473 109.783 -167.687 110.187 C-154.039 117.196 -140.418 124.232 -126.983 131.645 C-121.399 134.718 -115.771 137.684 -110.1 140.595 C-79.719 156.216 -79.719 156.216 -68 169 C-68 169.66 -68 170.32 -68 171 C-67.01 171.33 -66.02 171.66 -65 172 C-63.317 173.925 -61.774 175.831 -60.25 177.875 C-59.805 178.467 -59.361 179.058 -58.903 179.667 C-46.625 196.17 -31 221.803 -31 243 C-31.66 243 -32.32 243 -33 243 C-33.19 242.322 -33.38 241.645 -33.576 240.947 C-40.727 215.775 -50.023 194.101 -67 174 C-67.854 172.896 -68.708 171.792 -69.562 170.688 C-72.257 167.716 -75.132 165.562 -78.426 163.297 C-78.945 162.869 -79.465 162.441 -80 162 C-80 161.34 -80 160.68 -80 160 C-80.99 159.652 -80.99 159.652 -82 159.297 C-85.889 157.616 -89.384 155.447 -93 153.25 C-118.285 138.204 -144.394 131.931 -173.537 130.234 C-175.796 130.019 -177.811 129.575 -180 129 C-180.07 114.97 -180.123 100.941 -180.155 86.911 C-180.171 80.397 -180.192 73.883 -180.226 67.369 C-180.259 61.086 -180.277 54.803 -180.285 48.52 C-180.29 46.12 -180.301 43.719 -180.317 41.318 C-180.339 37.964 -180.342 34.609 -180.341 31.255 C-180.351 30.256 -180.362 29.256 -180.373 28.227 C-180.369 27.314 -180.365 26.401 -180.361 25.461 C-180.364 24.667 -180.366 23.874 -180.369 23.056 C-179.906 20.475 -179.043 19.594 -177 18 C-175.051 17.569 -175.051 17.569 -172.804 17.49 C-171.955 17.455 -171.105 17.42 -170.23 17.384 C-169.306 17.362 -168.382 17.339 -167.43 17.316 C-166.46 17.283 -165.49 17.25 -164.491 17.216 C-152.705 16.854 -140.915 16.891 -129.125 16.938 C-126.865 16.943 -124.604 16.947 -122.344 16.951 C-116.896 16.962 -111.448 16.979 -106 17 C-106 16.34 -106 15.68 -106 15 C-102.279 13.867 -98.546 13.71 -94.687 13.519 C-93.956 13.48 -93.226 13.441 -92.473 13.401 C-90.054 13.272 -87.634 13.15 -85.215 13.027 C-83.517 12.939 -81.82 12.851 -80.122 12.763 C-76.554 12.578 -72.985 12.396 -69.417 12.216 C-64.899 11.987 -60.381 11.751 -55.863 11.513 C-52.348 11.328 -48.833 11.148 -45.317 10.97 C-43.655 10.885 -41.994 10.798 -40.332 10.71 C-35.685 10.465 -31.039 10.251 -26.389 10.087 C-24.721 10.026 -23.054 9.958 -21.387 9.884 C-18.763 9.775 -16.14 9.701 -13.514 9.635 C-12.705 9.596 -11.897 9.558 -11.064 9.518 C-8.789 9.482 -8.789 9.482 -5 10 C-3.093 12.46 -3.093 12.46 -2 15 C-1.01 15.495 -1.01 15.495 0 16 C0 10.72 0 5.44 0 0 Z " fill="#232323" transform="translate(180,40)"/>
<path d="M0 0 C2.139 2.139 2.427 3.133 3 6 C0.918 6.505 -1.166 7.004 -3.25 7.5 C-4.41 7.778 -5.57 8.057 -6.766 8.344 C-10 9 -10 9 -14 9 C-13.958 9.625 -13.916 10.249 -13.873 10.893 C-12.829 28.739 -12.829 28.739 -15.605 34.102 C-18.394 36.811 -21.397 38.638 -24.719 40.633 C-28.041 44.08 -27.778 47.122 -27.812 51.75 C-27.838 52.543 -27.863 53.336 -27.889 54.152 C-27.947 56.101 -27.977 58.051 -28 60 C-28.33 60 -28.66 60 -29 60 C-29.056 58.086 -29.056 58.086 -29.113 56.133 C-29.179 54.464 -29.245 52.794 -29.312 51.125 C-29.335 50.283 -29.358 49.441 -29.381 48.574 C-29.416 47.769 -29.452 46.963 -29.488 46.133 C-29.514 45.389 -29.541 44.646 -29.568 43.879 C-29.867 41.593 -29.867 41.593 -33 40 C-33.66 37.723 -33.66 37.723 -34.062 35.062 C-34.605 31.554 -34.976 30.035 -37 27 C-37.681 26.67 -38.361 26.34 -39.062 26 C-41 25 -41 25 -42 22 C-54.964 21.885 -67.848 22.206 -80.793 22.875 C-82.604 22.965 -84.416 23.055 -86.227 23.144 C-90.924 23.377 -95.62 23.615 -100.317 23.854 C-105.137 24.099 -109.958 24.338 -114.779 24.578 C-124.186 25.047 -133.593 25.521 -143 26 C-143 26.66 -143 27.32 -143 28 C-143.561 28.01 -144.121 28.021 -144.699 28.031 C-150.671 28.142 -156.644 28.256 -162.617 28.372 C-164.829 28.415 -167.042 28.457 -169.254 28.497 C-184.848 28.785 -200.42 29.279 -216 30 C-216.33 30.66 -216.66 31.32 -217 32 C-217 25.4 -217 18.8 -217 12 C-212.17 12.017 -212.17 12.017 -207.242 12.035 C-161.323 12.167 -115.582 11.012 -69.727 8.719 C-68.504 8.658 -67.281 8.598 -66.021 8.535 C-60.911 8.276 -55.807 8.002 -50.706 7.613 C-49.95 7.557 -49.193 7.501 -48.414 7.443 C-46.526 7.296 -44.638 7.134 -42.751 6.971 C-40 7 -40 7 -37 9 C-29.154 9.214 -21.168 8.035 -13.438 6.75 C-12.157 6.539 -10.877 6.327 -9.559 6.109 C-5.266 4.771 -3.24 3.055 0 0 Z " fill="#FFFFFF" transform="translate(217,29)"/>
<path d="M0 0 C0.33 0 0.66 0 1 0 C1.175 14.217 0.698 28.404 0.2 42.611 C0.063 46.558 -0.07 50.504 -0.201 54.451 C-0.627 66.981 -1.08 79.496 -2 92 C-2.959 91.964 -3.918 91.929 -4.906 91.892 C-8.458 91.762 -12.01 91.639 -15.562 91.518 C-17.1 91.464 -18.639 91.409 -20.177 91.352 C-22.386 91.27 -24.595 91.195 -26.805 91.121 C-27.494 91.094 -28.184 91.067 -28.895 91.039 C-32.569 90.864 -32.569 90.864 -36 92 C-36.069 84.733 -36.123 77.466 -36.155 70.199 C-36.171 66.825 -36.192 63.451 -36.226 60.077 C-36.263 56.199 -36.28 52.323 -36.293 48.445 C-36.308 47.231 -36.324 46.016 -36.34 44.765 C-36.34 43.083 -36.34 43.083 -36.341 41.368 C-36.347 40.377 -36.354 39.387 -36.361 38.366 C-36.242 37.586 -36.123 36.805 -36 36 C-35.01 35.34 -34.02 34.68 -33 34 C-32.616 31.227 -32.397 28.657 -32.312 25.875 C-32.278 25.121 -32.244 24.367 -32.209 23.59 C-32.126 21.727 -32.062 19.864 -32 18 C-31.178 17.841 -30.355 17.683 -29.508 17.52 C-21.981 15.946 -15.699 13.738 -9 10 C-8.27 9.658 -7.541 9.317 -6.789 8.965 C-4.442 7.699 -4.062 6.408 -3 4 C-1.438 1.75 -1.438 1.75 0 0 Z " fill="#FFFFFF" transform="translate(233,87)"/>
<path d="M0 0 C0.99 0.495 0.99 0.495 2 1 C-0.475 6.445 -0.475 6.445 -3 12 C-0.109 11.739 -0.109 11.739 3 10 C5.037 6.821 6.549 3.48 8 0 C8.99 0.495 8.99 0.495 10 1 C7.525 5.95 7.525 5.95 5 11 C7.376 10.885 9.75 10.758 12.125 10.625 C12.79 10.594 13.455 10.563 14.141 10.531 C18.394 10.281 22.113 9.783 26 8 C27.541 6.114 27.541 6.114 28.375 3.875 C28.851 2.788 28.851 2.788 29.336 1.68 C29.555 1.125 29.774 0.571 30 0 C31.32 0 32.64 0 34 0 C34 0.66 34 1.32 34 2 C35.98 2.33 37.96 2.66 40 3 C40 3.33 40 3.66 40 4 C36.7 4 33.4 4 30 4 C29.629 5.145 29.629 5.145 29.25 6.312 C27.822 9.382 26.877 10.278 24 12 C21.159 12.524 21.159 12.524 17.922 12.73 C16.762 12.811 15.602 12.892 14.406 12.975 C13.2 13.045 11.993 13.115 10.75 13.188 C8.917 13.31 8.917 13.31 7.047 13.436 C4.032 13.636 1.017 13.823 -2 14 C0.274 20.048 2.574 26.061 5.148 31.988 C5.516 32.838 5.883 33.688 6.262 34.563 C6.998 36.258 7.743 37.95 8.496 39.638 C8.835 40.42 9.174 41.202 9.523 42.008 C9.986 43.054 9.986 43.054 10.458 44.122 C11 46 11 46 10 49 C9.329 47.544 8.663 46.085 8 44.625 C7.629 43.813 7.257 43.001 6.875 42.164 C6 40 6 40 6 38 C0.72 39.32 -4.56 40.64 -10 42 C-10.037 43.842 -10.075 45.684 -10.113 47.582 C-10.179 49.992 -10.245 52.402 -10.312 54.812 C-10.346 56.635 -10.346 56.635 -10.381 58.494 C-10.416 59.658 -10.452 60.821 -10.488 62.02 C-10.514 63.093 -10.541 64.167 -10.568 65.273 C-11.042 68.268 -11.634 69.185 -14 71 C-14.99 70.67 -15.98 70.34 -17 70 C-17 69.34 -17 68.68 -17 68 C-17.66 68 -18.32 68 -19 68 C-21.475 76.91 -21.475 76.91 -24 86 C-25.32 85.67 -26.64 85.34 -28 85 C-29.881 79.356 -30.911 72.774 -29 67 C-27.139 64.761 -24.907 63.147 -22.562 61.438 C-19.02 58.821 -16.457 56.704 -15.286 52.338 C-14.48 45.889 -14.648 39.477 -15 33 C-10.05 32.01 -5.1 31.02 0 30 C0 28.68 0 27.36 0 26 C-2.229 25.78 -2.229 25.78 -4.164 27.895 C-12.132 33.81 -28.174 34.259 -38 34 C-38.924 33.501 -38.924 33.501 -39.866 32.993 C-42.538 31.75 -44.313 31.858 -47.246 32.032 C-48.295 32.089 -49.345 32.146 -50.427 32.205 C-51.562 32.278 -52.698 32.351 -53.867 32.426 C-55.052 32.493 -56.237 32.56 -57.459 32.629 C-61.265 32.846 -65.07 33.079 -68.875 33.312 C-71.368 33.459 -73.862 33.604 -76.355 33.748 C-80.051 33.962 -83.747 34.176 -87.442 34.393 C-105.455 35.447 -123.46 36.181 -141.5 36.562 C-142.462 36.583 -143.424 36.604 -144.415 36.626 C-160.11 36.958 -175.802 37.106 -191.5 37.125 C-192.495 37.128 -193.49 37.13 -194.515 37.133 C-197.333 37.139 -200.151 37.137 -202.969 37.133 C-203.798 37.135 -204.627 37.137 -205.481 37.139 C-209.766 37.122 -213.78 36.852 -218 36 C-218.043 34 -218.041 32 -218 30 C-217 29 -217 29 -213.856 28.902 C-212.418 28.909 -210.981 28.921 -209.543 28.938 C-207.903 28.946 -206.264 28.955 -204.624 28.963 C-203.742 28.97 -202.86 28.976 -201.952 28.982 C-161.477 29.242 -121.035 28.205 -80.615 26.132 C-77.975 25.999 -75.335 25.871 -72.694 25.746 C-68.509 25.546 -64.325 25.337 -60.141 25.12 C-58.604 25.041 -57.067 24.965 -55.529 24.891 C-53.442 24.791 -51.356 24.678 -49.27 24.562 C-48.1 24.502 -46.931 24.441 -45.726 24.379 C-42.857 24.259 -42.857 24.259 -41 22 C-38.39 21.498 -38.39 21.498 -35.109 21.148 C-33.925 21.02 -32.74 20.891 -31.52 20.758 C-30.276 20.631 -29.032 20.505 -27.75 20.375 C-26.522 20.241 -25.293 20.107 -24.027 19.969 C-18.655 19.398 -13.408 18.924 -8 19 C-7.841 18.466 -7.683 17.933 -7.52 17.383 C-5.599 11.251 -2.998 5.675 0 0 Z " fill="#000000" transform="translate(218,5)"/>
<path d="M0 0 C3.381 2.254 3.56 3.241 4.381 7.05 C4.518 7.748 4.655 8.445 4.797 9.164 C4.951 9.896 5.106 10.629 5.265 11.383 C5.772 13.795 6.261 16.21 6.75 18.625 C7.096 20.292 7.443 21.959 7.791 23.625 C8.326 26.189 8.861 28.753 9.391 31.317 C10.573 37.025 11.819 42.715 13.113 48.398 C13.445 49.865 13.777 51.332 14.108 52.798 C14.581 54.886 15.056 56.972 15.541 59.056 C15.985 60.973 16.417 62.893 16.848 64.812 C17.095 65.891 17.343 66.97 17.598 68.082 C18.247 72.796 17.352 76.013 14.562 79.812 C13.915 80.719 13.915 80.719 13.254 81.645 C12.84 82.092 12.426 82.539 12 83 C11.34 83 10.68 83 10 83 C10 83.99 10 84.98 10 86 C10.763 86.392 11.527 86.783 12.313 87.187 C25.961 94.196 39.582 101.232 53.017 108.645 C58.601 111.718 64.229 114.684 69.9 117.595 C100.281 133.216 100.281 133.216 112 146 C112 146.66 112 147.32 112 148 C112.99 148.33 113.98 148.66 115 149 C116.683 150.925 118.226 152.831 119.75 154.875 C120.195 155.467 120.639 156.058 121.097 156.667 C133.375 173.17 149 198.803 149 220 C148.34 220 147.68 220 147 220 C146.81 219.322 146.62 218.645 146.424 217.947 C139.273 192.775 129.977 171.101 113 151 C112.146 149.896 111.292 148.792 110.438 147.688 C107.743 144.716 104.868 142.562 101.574 140.297 C101.055 139.869 100.535 139.441 100 139 C100 138.34 100 137.68 100 137 C99.01 136.652 99.01 136.652 98 136.297 C94.111 134.616 90.616 132.447 87 130.25 C61.715 115.204 35.606 108.931 6.463 107.234 C4 107 4 107 0 106 C0 71.02 0 36.04 0 0 Z " fill="#000000" transform="translate(0,63)"/>
<path d="M0 0 C0.66 0 1.32 0 2 0 C2.66 5.94 3.32 11.88 4 18 C10.304 20.22 16.513 21.881 23.062 23.188 C26.012 23.786 28.961 24.384 32 25 C32 35.89 32 46.78 32 58 C30 55 30 55 29.309 52.258 C28.285 48.576 27.305 46.075 25 43 C19.796 40.13 13.784 39.097 8 38 C8.165 39.155 8.33 40.31 8.5 41.5 C9.005 46.041 9.112 50.56 9.125 55.125 C9.13 55.793 9.134 56.462 9.139 57.15 C9.129 60.484 8.909 63.627 8.43 66.93 C8.288 67.943 8.146 68.956 8 70 C8.33 70.33 8.66 70.66 9 71 C9.073 73.863 9.092 76.701 9.062 79.562 C9.058 80.369 9.053 81.175 9.049 82.006 C9.037 84.004 9.019 86.002 9 88 C9.66 88 10.32 88 11 88 C10.67 82.39 10.34 76.78 10 71 C12.135 71.062 12.135 71.062 14.312 71.125 C17.981 71.231 18.796 71.136 22 69 C21.616 64.271 21.616 64.271 19.75 60 C17.971 58.759 17.971 58.759 15.5 59.25 C13.657 59.803 11.825 60.392 10 61 C10 54.07 10 47.14 10 40 C22.75 42.75 22.75 42.75 25 45 C25.319 47.27 25.319 47.27 25.414 50.168 C25.453 51.271 25.492 52.374 25.531 53.511 C25.562 54.724 25.593 55.937 25.625 57.188 C25.663 58.44 25.701 59.693 25.74 60.983 C26.225 78.316 26.088 95.663 26 113 C23.03 110.075 20.361 107.38 18.188 103.812 C17.769 103.138 17.35 102.464 16.918 101.77 C16 100 16 100 16 98 C15.34 98 14.68 98 14 98 C12.583 96.026 11.312 94.077 10.062 92 C9.373 90.886 8.683 89.772 7.973 88.625 C2.846 79.455 2.389 70.95 2.051 60.645 C1.989 59.054 1.926 57.463 1.862 55.872 C1.697 51.704 1.549 47.535 1.403 43.366 C1.252 39.124 1.085 34.883 0.92 30.643 C0.681 24.445 0.447 18.248 0.228 12.05 C0.184 10.806 0.139 9.562 0.094 8.281 C0.015 5.518 -0.019 2.764 0 0 Z " fill="#FFFFFF" transform="translate(136,80)"/>
<path d="M0 0 C2.053 -0.072 4.106 -0.119 6.16 -0.157 C7.92 -0.198 7.92 -0.198 9.716 -0.239 C14.566 0.262 17.594 2.588 20.851 6.085 C19.851 8.085 19.851 8.085 17.849 8.781 C16.969 8.99 16.089 9.198 15.183 9.413 C14.188 9.654 13.193 9.894 12.167 10.141 C11.082 10.393 9.997 10.645 8.879 10.905 C7.767 11.169 6.655 11.432 5.51 11.704 C3.15 12.261 0.788 12.814 -1.574 13.363 C-5.174 14.201 -8.77 15.058 -12.365 15.917 C-14.659 16.456 -16.952 16.994 -19.246 17.53 C-20.853 17.914 -20.853 17.914 -22.492 18.307 C-30.728 20.2 -37.335 21.155 -45.449 18.073 C-46.592 17.645 -47.735 17.216 -48.912 16.774 C-50.083 16.32 -51.255 15.866 -52.461 15.397 C-53.621 14.962 -54.78 14.527 -55.975 14.079 C-63.165 11.351 -70.192 8.362 -77.149 5.085 C-77.149 4.755 -77.149 4.425 -77.149 4.085 C-67.629 3.558 -58.11 3.037 -48.589 2.52 C-44.167 2.28 -39.745 2.039 -35.324 1.794 C-31.044 1.557 -26.765 1.324 -22.485 1.094 C-20.865 1.006 -19.245 0.916 -17.624 0.826 C-11.751 0.497 -5.878 0.232 0 0 Z " fill="#FFFFFF" transform="translate(160.14866256713867,52.9151611328125)"/>
<path d="M0 0 C1.97 3.94 2.882 7.526 3.734 11.789 C3.893 12.557 4.052 13.325 4.215 14.117 C4.732 16.618 5.241 19.122 5.75 21.625 C6.46 25.078 7.174 28.529 7.891 31.98 C8.068 32.838 8.246 33.695 8.429 34.578 C10.211 43.113 12.183 51.601 14.272 60.067 C17.334 72.811 17.334 72.811 14.25 77.871 C13.508 78.718 12.765 79.565 12 80.438 C11.258 81.302 10.515 82.167 9.75 83.059 C9.172 83.699 8.595 84.34 8 85 C6.855 84.536 6.855 84.536 5.688 84.062 C3.812 83.321 1.913 82.638 0 82 C0 54.94 0 27.88 0 0 Z " fill="#FFFFFF" transform="translate(0,63)"/>
<path d="M0 0 C0.33 1.32 0.66 2.64 1 4 C-2.971 4.719 -6.839 5.178 -10.868 5.373 C-12.005 5.43 -13.142 5.487 -14.313 5.545 C-15.535 5.602 -16.757 5.66 -18.016 5.719 C-19.941 5.813 -19.941 5.813 -21.906 5.909 C-24.633 6.042 -27.359 6.173 -30.086 6.302 C-33.497 6.464 -36.908 6.629 -40.319 6.796 C-47.65 7.155 -54.981 7.498 -62.313 7.83 C-65.632 7.983 -68.949 8.147 -72.267 8.314 C-92.256 9.263 -112.255 9.116 -132.261 9.069 C-137.096 9.058 -141.931 9.054 -146.766 9.049 C-156.177 9.038 -165.589 9.021 -175 9 C-175 7.68 -175 6.36 -175 5 C-173.683 4.988 -173.683 4.988 -172.34 4.975 C-93.343 4.46 -93.343 4.46 -14.473 0.367 C-9.632 0.003 -4.853 -0.071 0 0 Z " fill="#FFFFFF" transform="translate(175,31)"/>
<path d="M0 0 C-0.33 0.99 -0.66 1.98 -1 3 C-2.465 3.038 -2.465 3.038 -3.959 3.076 C-7.664 3.172 -11.37 3.272 -15.075 3.372 C-16.663 3.415 -18.251 3.457 -19.839 3.497 C-30.579 3.773 -41.283 4.252 -52 5 C-51.477 5.272 -50.954 5.543 -50.415 5.823 C-31.216 15.804 -31.216 15.804 -23 21 C-23.99 21.495 -23.99 21.495 -25 22 C-27.196 21.037 -29.256 20.019 -31.363 18.887 C-31.992 18.557 -32.621 18.227 -33.269 17.888 C-35.288 16.829 -37.3 15.759 -39.312 14.688 C-41.315 13.629 -43.319 12.573 -45.324 11.519 C-46.572 10.862 -47.818 10.203 -49.063 9.539 C-52.313 7.821 -55.558 6.293 -59 5 C-55.5 7.86 -51.633 9.848 -47.621 11.879 C-46.541 12.431 -46.541 12.431 -45.44 12.995 C-43.903 13.78 -42.365 14.565 -40.827 15.347 C-36.822 17.384 -32.824 19.433 -28.824 21.48 C-28.044 21.88 -27.263 22.279 -26.458 22.69 C-20.154 25.915 -13.876 29.184 -7.622 32.505 C-3.443 34.722 0.752 36.902 4.965 39.055 C5.998 39.585 7.031 40.116 8.095 40.663 C10.09 41.687 12.088 42.705 14.089 43.716 C24.04 48.839 31.22 53.634 36 64 C39.122 74.299 39.925 84.866 40.816 95.535 C42.498 113.843 50.987 123.871 62.789 137.324 C65.676 140.618 68.514 143.944 71.312 147.312 C72.39 148.606 72.39 148.606 73.488 149.926 C75 152 75 152 75 154 C75.66 154 76.32 154 77 154 C78.734 155.906 78.734 155.906 80.75 158.5 C81.812 159.861 81.812 159.861 82.895 161.25 C83.589 162.157 84.284 163.065 85 164 C85.602 164.784 86.204 165.567 86.824 166.375 C92.127 173.36 92.127 173.36 92.114 179 C92.113 180.041 92.113 181.082 92.113 182.155 C92.108 183.282 92.103 184.409 92.098 185.57 C92.096 187.297 92.096 187.297 92.093 189.059 C92.088 192.748 92.075 196.436 92.062 200.125 C92.057 202.621 92.053 205.117 92.049 207.613 C92.038 213.742 92.021 219.871 92 226 C91.67 226 91.34 226 91 226 C90.994 225.402 90.988 224.803 90.982 224.187 C90.918 217.941 90.834 211.695 90.738 205.449 C90.704 203.121 90.676 200.792 90.654 198.463 C90.62 195.109 90.568 191.756 90.512 188.402 C90.502 186.849 90.502 186.849 90.492 185.264 C90.311 176.282 88.448 171.034 82.062 164.438 C79.428 161.699 77.096 159.145 74.996 155.973 C72.93 152.896 70.651 150.577 68 148 C66.517 146.271 65.059 144.52 63.625 142.75 C62.461 141.315 62.461 141.315 61.273 139.852 C59.237 137.297 57.237 134.719 55.25 132.125 C53.376 129.681 51.617 127.635 49.375 125.5 C42.894 118.678 39.886 110.167 39.035 100.953 C38.873 99.37 38.711 97.786 38.549 96.203 C38.304 93.731 38.063 91.258 37.825 88.785 C36.565 73.631 36.565 73.631 30.688 59.75 C30.32 59.147 29.953 58.543 29.574 57.922 C25.581 53.047 20.578 49.993 15.004 47.215 C14.342 46.877 13.68 46.539 12.999 46.191 C10.857 45.1 8.71 44.019 6.562 42.938 C5.07 42.179 3.577 41.419 2.085 40.658 C-0.892 39.14 -3.872 37.625 -6.852 36.112 C-12.38 33.302 -17.881 30.438 -23.375 27.562 C-24.285 27.087 -25.194 26.612 -26.131 26.123 C-30.518 23.829 -34.899 21.528 -39.277 19.219 C-40.122 18.773 -40.967 18.328 -41.837 17.869 C-43.45 17.018 -45.063 16.165 -46.675 15.311 C-51.517 12.751 -56.396 10.304 -61.383 8.035 C-63 7 -63 7 -64 4 C-61.626 1.248 -61.134 1.018 -57.266 0.488 C-55.594 0.413 -53.922 0.356 -52.25 0.312 C-51.331 0.279 -50.411 0.246 -49.464 0.211 C-32.988 -0.291 -16.481 -0.081 0 0 Z " fill="#000000" transform="translate(64,57)"/>
<path d="M0 0 C2.139 2.139 2.427 3.133 3 6 C0.918 6.505 -1.166 7.004 -3.25 7.5 C-4.41 7.778 -5.57 8.057 -6.766 8.344 C-10 9 -10 9 -14 9 C-13.958 9.625 -13.916 10.249 -13.873 10.893 C-12.829 28.739 -12.829 28.739 -15.605 34.102 C-18.394 36.811 -21.397 38.638 -24.719 40.633 C-28.041 44.08 -27.778 47.122 -27.812 51.75 C-27.838 52.543 -27.863 53.336 -27.889 54.152 C-27.947 56.101 -27.977 58.051 -28 60 C-28.33 60 -28.66 60 -29 60 C-29.056 58.086 -29.056 58.086 -29.113 56.133 C-29.179 54.464 -29.245 52.794 -29.312 51.125 C-29.335 50.283 -29.358 49.441 -29.381 48.574 C-29.416 47.769 -29.452 46.963 -29.488 46.133 C-29.514 45.389 -29.541 44.646 -29.568 43.879 C-29.867 41.593 -29.867 41.593 -33 40 C-33.695 37.652 -33.695 37.652 -34.125 34.938 C-34.432 31.668 -34.432 31.668 -36 29 C-36.087 27.584 -36.107 26.164 -36.098 24.746 C-36.094 23.892 -36.091 23.038 -36.088 22.158 C-36.08 21.26 -36.071 20.363 -36.062 19.438 C-36.058 18.536 -36.053 17.634 -36.049 16.705 C-36.037 14.47 -36.021 12.235 -36 10 C-34.919 9.834 -34.919 9.834 -33.816 9.665 C-30.523 9.156 -27.23 8.641 -23.938 8.125 C-22.804 7.951 -21.67 7.777 -20.502 7.598 C-9.055 6.305 -9.055 6.305 0 0 Z " fill="#D5D5D5" transform="translate(217,29)"/>
<path d="M0 0 C2.613 -0.156 2.613 -0.156 5 0 C8.109 10.982 9.807 22.066 11.188 33.375 C11.272 34.063 11.356 34.752 11.443 35.461 C11.991 39.971 12.502 44.484 13 49 C13.108 49.911 13.216 50.823 13.328 51.761 C14.297 60.752 14.199 69.781 14.188 78.812 C14.187 80.151 14.187 80.151 14.186 81.517 C14.02 172.632 14.02 172.632 -4 202 C-4.66 202.33 -5.32 202.66 -6 203 C-4.581 199.41 -3.083 195.861 -1.562 192.312 C3.398 181.916 3.398 181.916 3 171 C0.884 168.672 -1.495 166.725 -3.938 164.75 C-4.584 164.209 -5.23 163.667 -5.896 163.109 C-9.257 160.269 -9.257 160.269 -13 158 C-13 157.34 -13 156.68 -13 156 C-13.589 155.728 -14.178 155.456 -14.784 155.176 C-16.958 154.022 -18.602 152.791 -20.453 151.18 C-21.072 150.645 -21.691 150.11 -22.328 149.559 C-22.962 149.003 -23.597 148.447 -24.25 147.875 C-25.225 147.03 -25.225 147.03 -26.219 146.168 C-27.816 144.782 -29.408 143.392 -31 142 C-27.054 142 -26.111 143.282 -23.125 145.812 C-22.15 146.631 -21.176 147.45 -20.172 148.293 C-19.114 149.195 -18.057 150.097 -17 151 C-14.793 152.876 -12.584 154.751 -10.375 156.625 C-9.831 157.088 -9.287 157.551 -8.726 158.028 C-4.254 161.821 0.324 165.46 5 169 C7.004 161.963 7.814 154.955 8.562 147.688 C8.688 146.547 8.814 145.407 8.943 144.232 C10.72 127.405 11.239 110.47 11.688 93.562 C11.712 92.661 11.736 91.759 11.761 90.83 C12.162 75.094 11.608 59.669 10 44 C9.984 44.556 9.968 45.111 9.951 45.683 C9.777 51.542 9.578 57.399 9.365 63.257 C9.289 65.433 9.22 67.611 9.156 69.788 C8.215 101.785 8.215 101.785 2 108 C2.425 103.493 3.121 99.488 4.5 95.176 C6.481 88.014 6.573 80.873 6.688 73.5 C6.719 72.022 6.752 70.543 6.784 69.065 C6.881 64.377 6.943 59.689 7 55 C7.016 53.801 7.016 53.801 7.033 52.578 C7.099 47.794 7.148 43.01 7.174 38.226 C7.183 36.716 7.194 35.206 7.209 33.697 C7.275 25.899 7.221 18.537 5 11 C4.505 10.505 4.505 10.505 4 10 C3.962 11.405 3.962 11.405 3.924 12.839 C3.828 16.373 3.729 19.906 3.628 23.44 C3.585 24.958 3.543 26.477 3.503 27.996 C3.261 37.028 2.887 46.002 2 55 C1.67 55 1.34 55 1 55 C0.67 52.69 0.34 50.38 0 48 C-0.33 48 -0.66 48 -1 48 C-1 34.14 -1 20.28 -1 6 C-1.66 5.67 -2.32 5.34 -3 5 C-1.812 2.5 -1.812 2.5 0 0 Z " fill="#000000" transform="translate(234,82)"/>
<path d="M0 0 C3 1 3 1 3.92 2.718 C4.172 3.448 4.424 4.178 4.684 4.93 C4.972 5.725 5.26 6.52 5.557 7.34 C6.141 9.022 6.724 10.704 7.307 12.387 C7.596 13.185 7.885 13.983 8.184 14.805 C8.437 15.537 8.69 16.269 8.951 17.023 C9.866 19.168 9.866 19.168 12.089 20.211 C14 22 14 22 14.454 25.921 C14.453 27.555 14.431 29.19 14.391 30.824 C14.385 31.686 14.379 32.547 14.373 33.435 C14.351 36.186 14.301 38.936 14.25 41.688 C14.23 43.553 14.212 45.418 14.195 47.283 C14.151 51.856 14.082 56.428 14 61 C12.515 61.495 12.515 61.495 11 62 C10.67 62.66 10.34 63.32 10 64 C9.34 64 8.68 64 8 64 C7.34 65.32 6.68 66.64 6 68 C5.34 68 4.68 68 4 68 C1.863 64.795 1.727 63.841 1.621 60.137 C1.587 59.122 1.554 58.107 1.519 57.062 C1.492 55.948 1.465 54.835 1.438 53.688 C1.402 52.531 1.367 51.374 1.33 50.182 C1.232 46.875 1.143 43.568 1.059 40.261 C0.973 36.973 0.882 33.685 0.791 30.397 C0.513 20.265 0.251 10.133 0 0 Z " fill="#E1E1E1" transform="translate(162,133)"/>
<path d="M0 0 C0.905 0.023 1.81 0.046 2.742 0.07 C3.652 0.088 4.562 0.106 5.5 0.125 C6.199 0.148 6.897 0.171 7.617 0.195 C4.101 2.137 1.646 2.378 -2.383 2.195 C-2.107 6.013 -2.107 6.013 -0.383 9.195 C8.29 10.024 16.563 8.5 25.027 6.852 C28.617 6.195 28.617 6.195 31.617 6.195 C31.617 6.855 31.617 7.515 31.617 8.195 C3.926 13.981 3.926 13.981 -1.249 11.188 C-3.921 9.945 -5.695 10.053 -8.628 10.228 C-9.678 10.285 -10.728 10.342 -11.81 10.4 C-13.513 10.51 -13.513 10.51 -15.25 10.621 C-16.435 10.688 -17.62 10.755 -18.841 10.824 C-22.648 11.042 -26.453 11.274 -30.258 11.508 C-32.751 11.654 -35.245 11.799 -37.738 11.943 C-41.434 12.157 -45.129 12.371 -48.825 12.588 C-66.838 13.643 -84.843 14.377 -102.883 14.758 C-103.845 14.779 -104.807 14.8 -105.798 14.821 C-121.493 15.154 -137.185 15.301 -152.883 15.32 C-153.878 15.323 -154.873 15.325 -155.898 15.328 C-158.716 15.334 -161.534 15.332 -164.352 15.328 C-165.181 15.33 -166.01 15.332 -166.864 15.334 C-171.149 15.317 -175.163 15.047 -179.383 14.195 C-179.383 13.865 -179.383 13.535 -179.383 13.195 C-178.498 13.189 -177.614 13.184 -176.703 13.178 C-136.867 12.903 -97.058 12.499 -57.258 10.695 C-56.526 10.662 -55.795 10.629 -55.041 10.595 C-45.487 10.163 -35.934 9.693 -26.383 9.195 C-25.433 9.147 -24.483 9.099 -23.505 9.049 C-21.091 8.925 -18.678 8.796 -16.266 8.664 C-14.404 8.563 -14.404 8.563 -12.504 8.459 C-9.722 8.224 -7.102 7.814 -4.383 7.195 C-4.383 6.205 -4.383 5.215 -4.383 4.195 C-5.271 4.276 -6.159 4.356 -7.074 4.439 C-64.445 9.512 -121.843 9.486 -179.383 9.195 C-179.053 8.535 -178.723 7.875 -178.383 7.195 C-177.383 7.201 -176.383 7.206 -175.353 7.211 C-130.864 7.421 -86.43 6.606 -41.998 4.327 C-39.358 4.194 -36.718 4.067 -34.077 3.941 C-29.892 3.742 -25.708 3.533 -21.524 3.315 C-19.987 3.236 -18.449 3.16 -16.912 3.087 C-14.825 2.986 -12.739 2.874 -10.652 2.758 C-9.483 2.697 -8.314 2.637 -7.109 2.574 C-3.807 2.115 -3.238 0.265 0 0 Z " fill="#000000" transform="translate(179.3828125,26.8046875)"/>
<path d="M0 0 C39.204 19.408 39.204 19.408 57 30 C53.825 31.588 51.015 29.817 47.812 28.75 C32.396 23.916 16.061 22.828 0 22 C0 14.74 0 7.48 0 0 Z " fill="#FFFFFF" transform="translate(0,146)"/>
<path d="M0 0 C0.33 0 0.66 0 1 0 C3.654 10.212 4.419 19.74 4.25 30.25 C4.234 31.774 4.218 33.297 4.204 34.821 C4.169 37.972 4.123 41.122 4.069 44.272 C4.006 48.135 3.988 51.996 3.982 55.858 C3.94 72.439 3.546 88.46 -3 104 C-3.99 104.495 -3.99 104.495 -5 105 C-7.475 103.886 -9.679 102.418 -12 101 C-11.361 100.423 -10.721 99.845 -10.062 99.25 C-7.942 96.937 -7.703 95.913 -7 93 C-5.515 92.505 -5.515 92.505 -4 92 C-3.733 84.791 -3.467 77.582 -3.202 70.373 C-3.109 67.84 -3.016 65.307 -2.923 62.774 C-2.247 44.459 -2.247 44.459 -1.68 26.141 C-1.658 25.361 -1.636 24.582 -1.613 23.779 C-1.516 20.285 -1.425 16.791 -1.342 13.297 C-1.295 11.505 -1.295 11.505 -1.246 9.676 C-1.222 8.664 -1.198 7.653 -1.174 6.611 C-1.018 4.271 -0.661 2.243 0 0 Z " fill="#FFFFFF" transform="translate(238,88)"/>
<path d="M0 0 C1.65 0.351 3.3 0.701 5 1.062 C12.863 2.407 20.082 1.683 28 1 C28 6.61 28 12.22 28 18 C18.173 21.276 9.557 20.888 0 17 C0 11.39 0 5.78 0 0 Z " fill="#FFFFFF" transform="translate(170,103)"/>
<path d="M0 0 C2.207 3.31 2.783 5.82 3.625 9.688 C4.016 11.457 4.016 11.457 4.414 13.262 C4.607 14.165 4.801 15.069 5 16 C4.01 15.67 3.02 15.34 2 15 C1.615 16.098 1.615 16.098 1.223 17.219 C-2.003 24.556 -8.11 29.578 -15.02 33.32 C-17 34 -17 34 -20 33 C-19.504 32.72 -19.007 32.441 -18.496 32.152 C-11.172 27.83 -5.327 23.023 -2 15 C-2.33 14.67 -2.66 14.34 -3 14 C-3.671 15.121 -3.671 15.121 -4.355 16.266 C-5.262 17.743 -5.262 17.743 -6.188 19.25 C-6.779 20.225 -7.371 21.199 -7.98 22.203 C-10.065 25.09 -12.074 26.989 -15 29 C-15.66 29 -16.32 29 -17 29 C-17.145 25.584 -17.234 22.168 -17.312 18.75 C-17.354 17.782 -17.396 16.814 -17.439 15.816 C-17.564 8.598 -17.564 8.598 -14.48 5.328 C-13.662 4.89 -12.843 4.452 -12 4 C-11.67 4.33 -11.34 4.66 -11 5 C-6.956 5.409 -6.956 5.409 -3 5 C-0.918 2.645 -0.918 2.645 0 0 Z " fill="#FFFFFF" transform="translate(232,67)"/>
<path d="M0 0 C0.66 1.32 1.32 2.64 2 4 C1.336 4.193 0.672 4.387 -0.012 4.586 C-0.895 4.846 -1.778 5.107 -2.688 5.375 C-3.993 5.758 -3.993 5.758 -5.324 6.148 C-7.943 6.982 -10.455 7.967 -13 9 C-13.015 9.802 -13.029 10.604 -13.044 11.431 C-13.119 15.059 -13.215 18.685 -13.312 22.312 C-13.335 23.575 -13.358 24.838 -13.381 26.139 C-13.416 27.347 -13.452 28.556 -13.488 29.801 C-13.514 30.916 -13.541 32.032 -13.568 33.181 C-14.036 36.237 -14.578 37.165 -17 39 C-17.99 38.67 -18.98 38.34 -20 38 C-20 37.34 -20 36.68 -20 36 C-20.66 36 -21.32 36 -22 36 C-23.65 41.94 -25.3 47.88 -27 54 C-28.32 53.67 -29.64 53.34 -31 53 C-32.374 38.069 -32.374 38.069 -29.066 33.09 C-23.293 28 -23.293 28 -20 28 C-20 27.34 -20 26.68 -20 26 C-19.34 25.67 -18.68 25.34 -18 25 C-17.67 17.41 -17.34 9.82 -17 2 C-4.625 -0.25 -4.625 -0.25 0 0 Z " fill="#FFFFFF" transform="translate(221,37)"/>
<path d="M0 0 C15.21 1.812 15.21 1.812 19.5 7.055 C23.463 15.61 23.463 15.61 22 20 C21.711 19.361 21.423 18.721 21.125 18.062 C20.172 15.848 20.172 15.848 18 15 C18.33 15.99 18.66 16.98 19 18 C19.178 20.985 19.306 23.95 19.387 26.938 C19.412 27.814 19.438 28.69 19.464 29.594 C19.516 31.446 19.565 33.299 19.613 35.151 C19.687 37.989 19.778 40.827 19.869 43.664 C19.918 45.464 19.965 47.263 20.012 49.062 C20.041 49.913 20.07 50.763 20.1 51.638 C20.229 57.657 20.229 57.657 18 61 C17.34 43.18 16.68 25.36 16 7 C9.549 4.833 9.549 4.833 3 3 C3 9.27 3 15.54 3 22 C4.32 21.34 5.64 20.68 7 20 C9.562 20.062 9.562 20.062 12 21 C14.054 23.55 14.9 25.399 15.438 28.625 C15 31 15 31 13.5 32.812 C11 34 11 34 3 34 C3 39.28 3 44.56 3 50 C2.34 50 1.68 50 1 50 C0.939 48.784 0.879 47.569 0.816 46.316 C0.732 44.732 0.647 43.147 0.562 41.562 C0.523 40.76 0.484 39.958 0.443 39.131 C0.595 35.248 0.595 35.248 -1 32 C-0.755 30.445 -0.51 28.89 -0.262 27.335 C0.306 22.272 0.1 17.151 0.062 12.062 C0.058 10.902 0.053 9.741 0.049 8.545 C0.037 5.697 0.021 2.848 0 0 Z " fill="#131313" transform="translate(144,118)"/>
<path d="M0 0 C4.95 0 9.9 0 15 0 C15 8.25 15 16.5 15 25 C8 25 8 25 5.25 23.875 C4.507 23.586 3.765 23.298 3 23 C2.01 23.66 1.02 24.32 0 25 C0 16.75 0 8.5 0 0 Z " fill="#FFFFFF" transform="translate(178,125)"/>
<path d="M0 0 C-0.33 0.99 -0.66 1.98 -1 3 C-3.062 3.688 -3.062 3.688 -5 4 C-5.027 5.792 -5.046 7.583 -5.062 9.375 C-5.074 10.373 -5.086 11.37 -5.098 12.398 C-5.18 14.984 -5.18 14.984 -4 17 C-3.34 16.67 -2.68 16.34 -2 16 C-2.33 15.34 -2.66 14.68 -3 14 C-3.25 10.165 -3.438 7.102 -1 4 C2.079 2.527 3.926 1.672 7.25 2.688 C9 4 9 4 11 7 C11.079 9.332 11.088 11.668 11 14 C13.97 13.34 16.94 12.68 20 12 C20 13.32 20 14.64 20 16 C16.921 16.87 13.836 17.718 10.75 18.562 C9.877 18.809 9.005 19.056 8.105 19.311 C6.839 19.654 6.839 19.654 5.547 20.004 C4.384 20.326 4.384 20.326 3.198 20.655 C-0.001 21.157 -2.147 20.427 -5 19 C-4.67 19.66 -4.34 20.32 -4 21 C-2.023 21.623 -2.023 21.623 0.367 22 C1.253 22.165 2.138 22.33 3.051 22.5 C3.983 22.665 4.915 22.83 5.875 23 C7.707 23.327 9.538 23.66 11.367 24 C12.183 24.144 12.999 24.289 13.839 24.438 C16 25 16 25 19 27 C-2.432 25.568 -2.432 25.568 -7 21 C-7.319 19.121 -7.319 19.121 -7.414 16.867 C-7.453 16.062 -7.491 15.256 -7.531 14.426 C-7.578 13.163 -7.578 13.163 -7.625 11.875 C-7.664 11.026 -7.702 10.176 -7.742 9.301 C-7.837 7.201 -7.919 5.1 -8 3 C-8.66 3 -9.32 3 -10 3 C-9.794 3.928 -9.588 4.856 -9.375 5.812 C-9 9 -9 9 -11 12 C-11 8.37 -11 4.74 -11 1 C-3.571 -1.429 -3.571 -1.429 0 0 Z " fill="#181818" transform="translate(146,77)"/>
<path d="M0 0 C2.31 0.33 4.62 0.66 7 1 C7 17.17 7 33.34 7 50 C5.35 50 3.7 50 2 50 C0 48 0 48 -0.241 45.937 C-0.236 45.089 -0.232 44.241 -0.227 43.367 C-0.227 42.406 -0.227 41.445 -0.227 40.455 C-0.216 39.415 -0.206 38.376 -0.195 37.305 C-0.192 36.242 -0.19 35.18 -0.187 34.085 C-0.176 30.681 -0.15 27.278 -0.125 23.875 C-0.115 21.572 -0.106 19.268 -0.098 16.965 C-0.076 11.31 -0.042 5.655 0 0 Z " fill="#FFFFFF" transform="translate(185,151)"/>
<path d="M0 0 C1.953 0.926 1.953 0.926 4.25 2.312 C8.732 4.907 12.723 7 18 7 C18 12.28 18 17.56 18 23 C11.24 23 11.24 23 8.02 20.988 C7.331 20.56 6.642 20.131 5.932 19.689 C5.232 19.235 4.533 18.781 3.812 18.312 C3.102 17.877 2.391 17.442 1.658 16.994 C-2.322 14.467 -4.947 12.399 -7 8 C-6.214 6.851 -5.421 5.706 -4.625 4.562 C-4.184 3.924 -3.743 3.286 -3.289 2.629 C-2 1 -2 1 0 0 Z " fill="#FFFFFF" transform="translate(175,195)"/>
<path d="M0 0 C1.991 2.986 2.941 5.597 4 9 C-0.525 15.2 -6.754 15.736 -14 17 C-15.091 17.199 -15.091 17.199 -16.203 17.402 C-20.203 18.016 -24.273 18.196 -28.312 18.375 C-29.319 18.424 -30.326 18.473 -31.363 18.523 C-34 18 -34 18 -35.918 15.664 C-37 13 -37 13 -36 10 C-31.64 9.428 -27.28 8.858 -22.92 8.291 C-21.437 8.098 -19.954 7.904 -18.471 7.709 C-16.339 7.429 -14.207 7.152 -12.074 6.875 C-10.791 6.707 -9.508 6.54 -8.186 6.367 C-5 6 -5 6 -2 6 C-1.34 4.02 -0.68 2.04 0 0 Z " fill="#FFFFFF" transform="translate(213,19)"/>
<path d="M0 0 C37.652 -1.584 76.718 11.026 104.738 36.488 C111.635 43.08 116.871 49.979 122 58 C122.543 58.82 123.085 59.64 123.645 60.484 C130.134 70.689 134.497 82.093 138.375 93.5 C138.626 94.229 138.876 94.958 139.135 95.709 C140.701 100.478 141.516 105.002 142 110 C139.854 107.854 139.555 106.98 138.809 104.133 C138.591 103.34 138.374 102.547 138.149 101.729 C137.914 100.87 137.68 100.011 137.438 99.125 C128.458 67.996 111.265 39.802 82.848 23.07 C63.509 12.454 43.033 5.164 21 3 C20.133 2.913 19.266 2.825 18.373 2.735 C12.251 2.121 6.128 1.546 0 1 C0 0.67 0 0.34 0 0 Z " fill="#000000" transform="translate(0,175)"/>
<path d="M0 0 C10.125 1.125 10.125 1.125 14.562 2.562 C15.833 2.967 15.833 2.967 17.129 3.379 C17.746 3.584 18.364 3.789 19 4 C18.34 5.98 17.68 7.96 17 10 C17.992 10.905 17.992 10.905 19.004 11.828 C19.848 12.627 20.693 13.427 21.562 14.25 C22.409 15.039 23.256 15.828 24.129 16.641 C26 19 26 19 25.777 21.297 C25.521 21.859 25.264 22.421 25 23 C24.34 23 23.68 23 23 23 C22.67 23.99 22.34 24.98 22 26 C18.194 22.792 14.454 19.593 11 16 C9.02 16.66 7.04 17.32 5 18 C3.35 12.06 1.7 6.12 0 0 Z " fill="#000000" transform="translate(193,236)"/>
<path d="M0 0 C0.66 0.66 1.32 1.32 2 2 C1.625 4.125 1.625 4.125 1 6 C-0.149 6.122 -1.298 6.245 -2.481 6.371 C-6.866 6.921 -11.036 7.919 -15.297 9.066 C-16.053 9.265 -16.809 9.463 -17.588 9.667 C-19.977 10.294 -22.363 10.928 -24.75 11.562 C-27.91 12.403 -31.072 13.236 -34.234 14.066 C-34.954 14.26 -35.674 14.454 -36.416 14.653 C-39.768 15.533 -42.503 16 -46 16 C-46 23.26 -46 30.52 -46 38 C-46.99 36.68 -47.98 35.36 -49 34 C-49.53 33.421 -50.06 32.842 -50.605 32.246 C-54.106 28.244 -55.357 25.608 -55.176 20.223 C-55.15 19.242 -55.125 18.261 -55.099 17.25 C-55.066 16.508 -55.034 15.765 -55 15 C-49.561 13.628 -44.12 12.259 -38.679 10.892 C-36.835 10.429 -34.99 9.964 -33.146 9.499 C-30.47 8.824 -27.794 8.151 -25.117 7.48 C-24.248 7.262 -23.378 7.044 -22.482 6.819 C-16.162 5.248 -9.826 3.882 -3.426 2.669 C-2.225 2.338 -2.225 2.338 -1 2 C-0.67 1.34 -0.34 0.68 0 0 Z " fill="#FFFFFF" transform="translate(181,62)"/>
<path d="M0 0 C5.621 0.912 9.934 3.405 14.875 6.125 C15.748 6.586 16.62 7.048 17.52 7.523 C25.28 11.771 31.324 16.632 35.312 24.688 C35.783 25.599 36.254 26.51 36.738 27.449 C40.334 37.569 40.718 48.842 41.768 59.465 C43.303 73.763 47.346 82.022 56.898 92.555 C58 94 58 94 58 96 C58.66 96 59.32 96 60 96 C61.594 97.766 61.594 97.766 63.5 100.25 C66.583 104.203 69.718 108.095 72.938 111.938 C93.155 136.136 93.155 136.136 93.062 146.188 C93.053 147.46 93.044 148.732 93.035 150.043 C93.024 151.019 93.012 151.995 93 153 C92.67 153 92.34 153 92 153 C91.888 151.532 91.888 151.532 91.773 150.035 C90.921 141.539 89.672 135.582 84 129 C83.536 128.454 83.072 127.908 82.594 127.345 C79.838 124.105 77.05 120.894 74.238 117.703 C70.808 113.801 67.522 109.792 64.254 105.754 C62.121 103.147 59.951 100.577 57.764 98.015 C55.496 95.355 53.246 92.679 51 90 C50.376 89.257 49.752 88.515 49.109 87.75 C42.426 79.379 40.426 70.423 39.438 59.938 C39.196 57.725 38.951 55.513 38.703 53.301 C38.526 51.691 38.526 51.691 38.346 50.049 C36.801 36.423 35.159 23.7 23.984 14.457 C20.658 12.015 17.065 10.201 13.375 8.375 C8.509 5.942 4.132 3.609 0 0 Z " fill="#000000" transform="translate(67,92)"/>
<path d="M0 0 C0.66 0 1.32 0 2 0 C2 4.62 2 9.24 2 14 C-3.994 17.197 -9.252 17.582 -16 17 C-16.66 16.67 -17.32 16.34 -18 16 C-18.312 13.451 -18.513 10.996 -18.625 8.438 C-18.664 7.727 -18.702 7.016 -18.742 6.283 C-18.837 4.523 -18.919 2.761 -19 1 C-18.432 1.144 -17.863 1.289 -17.277 1.438 C-12.451 2.598 -7.996 3.5 -3 3 C-1.185 1.604 -1.185 1.604 0 0 Z " fill="#FFFFFF" transform="translate(196,216)"/>
<path d="M0 0 C0 15.84 0 31.68 0 48 C-6 44 -6 44 -6.748 42.027 C-6.747 41.338 -6.746 40.648 -6.745 39.938 C-6.757 39.15 -6.77 38.362 -6.782 37.551 C-6.764 36.709 -6.746 35.867 -6.727 35 C-6.728 34.127 -6.729 33.255 -6.73 32.355 C-6.725 30.513 -6.705 28.67 -6.672 26.828 C-6.625 24.009 -6.631 21.194 -6.645 18.375 C-6.633 16.583 -6.619 14.792 -6.602 13 C-6.603 12.158 -6.605 11.316 -6.607 10.449 C-6.513 6.568 -6.461 4.618 -4.087 1.438 C-2 0 -2 0 0 0 Z " fill="#FFFFFF" transform="translate(183,150)"/>
<path d="M0 0 C0.33 0 0.66 0 1 0 C1.168 2.917 1.334 5.833 1.5 8.75 C1.548 9.575 1.595 10.4 1.645 11.25 C1.69 12.049 1.735 12.848 1.781 13.672 C1.823 14.405 1.865 15.138 1.908 15.894 C2.164 21.755 2.164 21.755 0 25 C-1.806 25.74 -1.806 25.74 -4.016 26.259 C-4.844 26.459 -5.673 26.659 -6.526 26.865 C-7.874 27.169 -7.874 27.169 -9.25 27.48 C-10.178 27.698 -11.106 27.916 -12.062 28.14 C-14.031 28.599 -16.001 29.052 -17.973 29.499 C-20.964 30.179 -23.949 30.884 -26.934 31.592 C-28.851 32.035 -30.769 32.477 -32.688 32.918 C-33.57 33.127 -34.453 33.337 -35.362 33.552 C-41.32 34.882 -46.903 35.245 -53 35 C-53 34.34 -53 33.68 -53 33 C-43.295 30.126 -33.557 27.634 -23.688 25.375 C-22.382 25.073 -21.077 24.771 -19.771 24.469 C-13.188 22.948 -6.599 21.454 0 20 C-3.287 16.187 -6.397 14.77 -11 13 C-10.67 12.01 -10.34 11.02 -10 10 C-7.688 9.688 -7.688 9.688 -5 10 C-3.312 12.438 -3.312 12.438 -2 15 C-1.34 15.33 -0.68 15.66 0 16 C0 10.72 0 5.44 0 0 Z " fill="#161616" transform="translate(180,40)"/>
<path d="M0 0 C0 2.31 0 4.62 0 7 C-0.66 5.68 -1.32 4.36 -2 3 C-5.469 3.458 -8.674 3.891 -12 5 C-12.027 6.625 -12.046 8.25 -12.062 9.875 C-12.074 10.78 -12.086 11.685 -12.098 12.617 C-12.162 15.017 -12.162 15.017 -11 17 C-12.957 17.67 -14.916 18.336 -16.875 19 C-17.966 19.371 -19.056 19.743 -20.18 20.125 C-23 21 -23 21 -25 21 C-25.124 19.907 -25.248 18.814 -25.375 17.688 C-25.755 13.926 -25.755 13.926 -28 11 C-30.552 9.795 -30.552 9.795 -33 9 C-29.787 6.858 -27.384 6.195 -23.652 5.273 C-22.408 4.964 -21.163 4.655 -19.881 4.336 C-19.234 4.178 -18.587 4.021 -17.921 3.858 C-15.94 3.376 -13.961 2.884 -11.982 2.391 C-2.294 0 -2.294 0 0 0 Z " fill="#FFFFFF" transform="translate(182,70)"/>
<path d="M0 0 C2.613 -0.156 2.613 -0.156 5 0 C5.677 2.685 6.341 5.373 7 8.062 C7.191 8.815 7.382 9.567 7.578 10.342 C8.714 15.028 9.205 19.179 9 24 C7.428 21.126 6.569 18.522 5.938 15.312 C5.523 12.372 5.523 12.372 4 10 C3.975 10.937 3.95 11.874 3.924 12.839 C3.828 16.373 3.729 19.906 3.628 23.44 C3.585 24.958 3.543 26.477 3.503 27.996 C3.261 37.028 2.887 46.002 2 55 C1.67 55 1.34 55 1 55 C0.67 52.69 0.34 50.38 0 48 C-0.33 48 -0.66 48 -1 48 C-1 34.14 -1 20.28 -1 6 C-1.66 5.67 -2.32 5.34 -3 5 C-1.812 2.5 -1.812 2.5 0 0 Z " fill="#202020" transform="translate(234,82)"/>
<path d="M0 0 C0 0.33 0 0.66 0 1 C-3.96 1.99 -7.92 2.98 -12 4 C-12.33 5.98 -12.66 7.96 -13 10 C-13.33 10.66 -13.66 11.32 -14 12 C-15.65 12 -17.3 12 -19 12 C-19 12.66 -19 13.32 -19 14 C-24.553 13.356 -30.013 12.499 -35.5 11.438 C-36.227 11.299 -36.954 11.16 -37.703 11.018 C-39.469 10.681 -41.235 10.341 -43 10 C-43.33 9.01 -43.66 8.02 -44 7 C-43.167 7.204 -42.335 7.409 -41.477 7.619 C-37.398 8.066 -34.225 7.265 -30.371 6.094 C-29.659 5.89 -28.947 5.687 -28.213 5.477 C-25.951 4.83 -23.694 4.167 -21.438 3.5 C-18.461 2.622 -15.48 1.76 -12.496 0.906 C-11.48 0.599 -11.48 0.599 -10.444 0.285 C-6.604 -0.815 -3.847 -1.172 0 0 Z " fill="#FFFFFF" transform="translate(185,89)"/>
<path d="M0 0 C0 0.66 0 1.32 0 2 C-0.66 2 -1.32 2 -2 2 C-2 2.66 -2 3.32 -2 4 C-3.406 5.305 -3.406 5.305 -5.5 6.875 C-6.705 7.786 -6.705 7.786 -7.934 8.715 C-8.946 9.469 -9.957 10.223 -11 11 C-12.387 12.042 -13.774 13.085 -15.16 14.129 C-19.102 17.093 -23.05 20.048 -27 23 C-25.55 22.221 -25.55 22.221 -24.07 21.426 C-20.697 19.617 -17.319 17.818 -13.937 16.026 C-12.239 15.127 -10.543 14.224 -8.848 13.32 C-7.97 12.864 -7.092 12.408 -6.188 11.938 C-5.033 11.332 -5.033 11.332 -3.855 10.715 C-3.243 10.479 -2.631 10.243 -2 10 C-1.01 10.495 -1.01 10.495 0 11 C-6.44 15.142 -13.066 18.821 -19.812 22.438 C-21.861 23.54 -23.909 24.643 -25.957 25.746 C-26.96 26.285 -27.963 26.825 -28.997 27.381 C-32.86 29.464 -36.712 31.567 -40.564 33.672 C-43.578 35.315 -46.6 36.941 -49.625 38.562 C-54.775 41.331 -59.9 44.14 -65 47 C-63.648 42.943 -61.777 42.398 -58.125 40.25 C-56.924 39.532 -55.724 38.813 -54.523 38.094 C-53.924 37.738 -53.324 37.382 -52.706 37.016 C-35.464 26.751 -18.208 14.859 -3.488 1.18 C-2 0 -2 0 0 0 Z " fill="#040404" transform="translate(328,37)"/>
<path d="M0 0 C3.258 2.926 4.913 5.512 6.551 9.559 C6.998 10.656 7.446 11.753 7.907 12.884 C8.371 14.056 8.835 15.229 9.312 16.438 C9.797 17.651 10.282 18.864 10.782 20.115 C23.327 51.849 31.835 84.735 33 119 C32.67 119 32.34 119 32 119 C31.855 117.905 31.71 116.809 31.56 115.681 C26.595 78.554 18.638 44.359 3.629 9.863 C2.233 6.629 1.054 3.364 0 0 Z " fill="#000000" transform="translate(218,20)"/>
<path d="M0 0 C7.152 1.255 13.568 3.717 20.246 6.469 C25.106 8.471 30.045 10.249 35 12 C35 14.64 35 17.28 35 20 C30.448 18.645 26.655 16.802 22.578 14.375 C21.992 14.027 21.406 13.68 20.802 13.322 C19.574 12.592 18.347 11.859 17.122 11.123 C15.245 9.997 13.363 8.881 11.48 7.766 C2.293 2.293 2.293 2.293 0 0 Z " fill="#FFFFFF" transform="translate(86,64)"/>
<path d="M0 0 C0.99 0.495 0.99 0.495 2 1 C-5.924 7.619 -14.289 13.522 -22.749 19.427 C-26.404 21.981 -30.045 24.553 -33.688 27.125 C-34.398 27.626 -35.109 28.128 -35.841 28.644 C-39.62 31.312 -43.392 33.99 -47.152 36.685 C-49.422 38.312 -51.696 39.933 -53.97 41.553 C-55.477 42.627 -56.982 43.702 -58.487 44.779 C-61.195 46.713 -63.909 48.638 -66.625 50.562 C-67.491 51.183 -68.357 51.804 -69.249 52.443 C-70.067 53.02 -70.884 53.597 -71.727 54.191 C-72.818 54.968 -72.818 54.968 -73.932 55.76 C-75.98 56.988 -77.666 57.563 -80 58 C-76.795 54.639 -73.66 51.934 -69.75 49.438 C-55.491 40.129 -41.785 29.989 -28 20 C-8.372 5.785 -8.372 5.785 0 0 Z " fill="#000000" transform="translate(326,225)"/>
<path d="M0 0 C15.591 2.279 15.591 2.279 19.5 7.055 C23.463 15.61 23.463 15.61 22 20 C21.711 19.361 21.423 18.721 21.125 18.062 C20.172 15.848 20.172 15.848 18 15 C18.33 15.99 18.66 16.98 19 18 C19.178 20.985 19.306 23.95 19.387 26.938 C19.412 27.814 19.438 28.69 19.464 29.594 C19.516 31.446 19.565 33.299 19.613 35.151 C19.687 37.989 19.778 40.827 19.869 43.664 C19.918 45.464 19.965 47.263 20.012 49.062 C20.041 49.913 20.07 50.763 20.1 51.638 C20.229 57.657 20.229 57.657 18 61 C17.34 43.18 16.68 25.36 16 7 C9.549 4.833 9.549 4.833 3 3 C2.67 9.6 2.34 16.2 2 23 C1.67 23 1.34 23 1 23 C0.67 15.41 0.34 7.82 0 0 Z " fill="#000000" transform="translate(144,118)"/>
<path d="M0 0 C-2.26 3.39 -2.712 3.487 -6.465 4.387 C-7.347 4.603 -8.23 4.819 -9.139 5.041 C-10.062 5.254 -10.986 5.468 -11.938 5.688 C-12.857 5.912 -13.777 6.137 -14.725 6.369 C-21.521 8 -21.521 8 -25 8 C-25 8.66 -25 9.32 -25 10 C-26.32 10.33 -27.64 10.66 -29 11 C-29.196 12.603 -29.381 14.208 -29.562 15.812 C-29.719 17.152 -29.719 17.152 -29.879 18.52 C-30.157 21.134 -30.157 21.134 -29 24 C-30.32 24.33 -31.64 24.66 -33 25 C-34.05 21.851 -34.101 19.612 -34.062 16.312 C-34.053 15.319 -34.044 14.325 -34.035 13.301 C-34.024 12.542 -34.012 11.782 -34 11 C-33.216 10.752 -32.433 10.505 -31.625 10.25 C-28.871 9.29 -28.871 9.29 -28.138 7.031 C-27 5 -27 5 -24.833 3.979 C-23.514 3.624 -23.514 3.624 -22.168 3.262 C-21.204 2.999 -20.241 2.737 -19.248 2.467 C-17.733 2.081 -17.733 2.081 -16.188 1.688 C-15.189 1.411 -14.191 1.134 -13.162 0.85 C-8.324 -0.43 -4.931 -1.287 0 0 Z " fill="#1A1A1A" transform="translate(174,70)"/>
<path d="M0 0 C0.99 0.33 1.98 0.66 3 1 C-5.271 7.254 -13.578 13.45 -22 19.5 C-27.715 23.605 -33.384 27.761 -39 32 C-44.889 36.433 -50.8 40.836 -56.75 45.188 C-57.895 46.035 -57.895 46.035 -59.062 46.9 C-59.779 47.422 -60.496 47.943 -61.234 48.48 C-61.866 48.943 -62.497 49.406 -63.147 49.884 C-65.096 51.058 -66.778 51.569 -69 52 C-65.534 48.361 -62.021 45.445 -57.875 42.562 C-56.627 41.686 -55.379 40.809 -54.133 39.93 C-53.467 39.46 -52.801 38.991 -52.114 38.507 C-48.291 35.782 -44.523 32.981 -40.75 30.188 C-33.668 24.949 -26.546 19.771 -19.382 14.645 C-15.895 12.138 -12.454 9.599 -9.09 6.93 C-8.49 6.455 -7.891 5.98 -7.273 5.491 C-5.675 4.215 -4.089 2.924 -2.504 1.633 C-1.678 1.094 -0.851 0.555 0 0 Z " fill="#000000" transform="translate(325,232)"/>
<path d="M0 0 C0.33 0 0.66 0 1 0 C4.048 32.39 4.048 32.39 1 47 C0.01 47.495 0.01 47.495 -1 48 C-2.072 40.377 -2.154 32.816 -2.13 25.131 C-2.125 22.977 -2.13 20.822 -2.137 18.668 C-2.136 17.299 -2.135 15.931 -2.133 14.562 C-2.132 13.326 -2.131 12.09 -2.129 10.816 C-2 8 -2 8 -1 7 C-0.632 4.672 -0.298 2.338 0 0 Z " fill="#4E4E4E" transform="translate(234,123)"/>
<path d="M0 0 C2.817 0.756 5.628 1.529 8.438 2.312 C9.24 2.526 10.042 2.739 10.869 2.959 C12.015 3.283 12.015 3.283 13.184 3.613 C13.891 3.807 14.598 4.001 15.326 4.2 C15.878 4.464 16.431 4.728 17 5 C17.33 5.99 17.66 6.98 18 8 C16.36 8.217 16.36 8.217 14.688 8.438 C11.069 8.883 11.069 8.883 8 10 C7.67 12.31 7.34 14.62 7 17 C6.072 16.474 6.072 16.474 5.125 15.938 C4.424 15.628 3.722 15.319 3 15 C2.01 15.495 2.01 15.495 1 16 C0.67 10.72 0.34 5.44 0 0 Z " fill="#FFFFFF" transform="translate(211,51)"/>
<path d="M0 0 C0.724 0.258 1.447 0.516 2.193 0.781 C3.4 1.207 3.4 1.207 4.632 1.64 C5.473 1.946 6.314 2.252 7.181 2.567 C8.394 3 8.394 3 9.633 3.442 C12.091 4.326 14.543 5.225 16.993 6.129 C17.825 6.433 18.658 6.736 19.515 7.049 C20.319 7.345 21.122 7.641 21.95 7.946 C22.668 8.209 23.386 8.473 24.125 8.745 C26.21 9.578 28.188 10.535 30.181 11.567 C30.181 12.227 30.181 12.887 30.181 13.567 C23.602 14.128 18.662 12.15 12.618 9.692 C10.784 8.964 8.95 8.238 7.115 7.512 C6.262 7.172 5.41 6.832 4.532 6.482 C1.779 5.41 -1.002 4.457 -3.819 3.567 C-3.819 2.577 -3.819 1.587 -3.819 0.567 C-1.819 -0.433 -1.819 -0.433 0 0 Z " fill="#313131" transform="translate(86.819091796875,59.433349609375)"/>
<path d="M0 0 C0.671 1.623 1.337 3.249 2 4.875 C2.557 6.232 2.557 6.232 3.125 7.617 C4 10 4 10 4 12 C-2.487 10.319 -8.768 8.469 -15 6 C-15 5.01 -15 4.02 -15 3 C-13.252 2.494 -11.501 1.995 -9.75 1.5 C-8.775 1.222 -7.801 0.943 -6.797 0.656 C-4 0 -4 0 0 0 Z " fill="#FFFFFF" transform="translate(224,43)"/>
<path d="M0 0 C-0.33 0.99 -0.66 1.98 -1 3 C-5.458 3.339 -9.916 3.67 -14.375 4 C-15.627 4.095 -16.878 4.191 -18.168 4.289 C-25.128 4.799 -32.021 5.147 -39 5 C-38.67 4.01 -38.34 3.02 -38 2 C-35.293 0.993 -32.595 0.828 -29.727 0.684 C-28.908 0.642 -28.089 0.6 -27.245 0.556 C-26.38 0.517 -25.516 0.478 -24.625 0.438 C-23.74 0.395 -22.854 0.353 -21.942 0.309 C-14.623 -0.02 -7.327 -0.109 0 0 Z " fill="#202020" transform="translate(170,50)"/>
<path d="M0 0 C-0.33 0.99 -0.66 1.98 -1 3 C-3.062 3.688 -3.062 3.688 -5 4 C-5.027 5.708 -5.047 7.417 -5.062 9.125 C-5.074 10.076 -5.086 11.028 -5.098 12.008 C-4.997 15.086 -4.57 17.977 -4 21 C-3.41 21.111 -2.82 21.221 -2.212 21.335 C0.464 21.842 3.138 22.358 5.812 22.875 C7.206 23.136 7.206 23.136 8.627 23.402 C9.52 23.576 10.412 23.75 11.332 23.93 C12.565 24.165 12.565 24.165 13.823 24.406 C16 25 16 25 19 27 C-2.432 25.568 -2.432 25.568 -7 21 C-7.319 19.121 -7.319 19.121 -7.414 16.867 C-7.453 16.062 -7.491 15.256 -7.531 14.426 C-7.578 13.163 -7.578 13.163 -7.625 11.875 C-7.664 11.026 -7.702 10.176 -7.742 9.301 C-7.837 7.201 -7.919 5.1 -8 3 C-8.66 3 -9.32 3 -10 3 C-9.794 3.928 -9.588 4.856 -9.375 5.812 C-9 9 -9 9 -11 12 C-11 8.37 -11 4.74 -11 1 C-3.571 -1.429 -3.571 -1.429 0 0 Z " fill="#020202" transform="translate(146,77)"/>
<path d="M0 0 C1.98 0.495 1.98 0.495 4 1 C4 10.57 4 20.14 4 30 C0.207 27.471 -0.027 26.423 -1 22 C-1.089 18.193 -0.87 14.424 -0.625 10.625 C-0.568 9.603 -0.512 8.581 -0.453 7.527 C-0.312 5.017 -0.161 2.509 0 0 Z " fill="#FFFFFF" transform="translate(172,123)"/>
<path d="M0 0 C0.99 0.495 0.99 0.495 2 1 C2 4.96 2 8.92 2 13 C7.61 13 13.22 13 19 13 C19 13.66 19 14.32 19 15 C15.578 16.141 12.913 16.098 9.312 16.062 C7.543 16.049 7.543 16.049 5.738 16.035 C4.383 16.018 4.383 16.018 3 16 C3.004 16.557 3.009 17.114 3.013 17.688 C3.058 23.479 3.088 29.27 3.11 35.061 C3.12 37.223 3.134 39.386 3.151 41.548 C3.175 44.653 3.186 47.758 3.195 50.863 C3.206 51.832 3.216 52.801 3.227 53.799 C3.227 54.7 3.227 55.601 3.227 56.529 C3.231 57.321 3.236 58.114 3.241 58.931 C3 61 3 61 1 64 C0.67 42.88 0.34 21.76 0 0 Z " fill="#000000" transform="translate(176,219)"/>
<path d="M0 0 C1.485 0.99 1.485 0.99 3 2 C3.253 5.034 3.327 7.846 3.25 10.875 C3.239 11.727 3.228 12.58 3.217 13.458 C3.103 19.998 2.727 26.499 2 33 C1.67 33 1.34 33 1 33 C0.67 30.69 0.34 28.38 0 26 C-0.33 26 -0.66 26 -1 26 C-1.029 21.854 -1.047 17.708 -1.062 13.562 C-1.071 12.378 -1.079 11.194 -1.088 9.975 C-1.091 8.85 -1.094 7.725 -1.098 6.566 C-1.103 5.524 -1.108 4.482 -1.114 3.408 C-1 1 -1 1 0 0 Z " fill="#000000" transform="translate(234,104)"/>
<path d="M0 0 C-0.33 0.99 -0.66 1.98 -1 3 C-4.063 4.201 -7.177 4.165 -10.438 4.188 C-11.364 4.202 -12.291 4.216 -13.246 4.23 C-16.178 3.985 -18.339 3.222 -21 2 C-19 -1 -19 -1 -16.812 -1.688 C-10.666 -2.37 -5.817 -1.9 0 0 Z " fill="#FFFFFF" transform="translate(196,94)"/>
<path d="M0 0 C0.33 0.99 0.66 1.98 1 3 C2.32 2.34 3.64 1.68 5 1 C4.01 2.485 4.01 2.485 3 4 C10.656 6.552 20.108 5.263 28 4 C28 3.34 28 2.68 28 2 C29.32 1.67 30.64 1.34 32 1 C31.634 7.872 30.907 13.72 28 20 C27.34 20.33 26.68 20.66 26 21 C26.497 18.996 27.001 16.995 27.535 15 C27.796 14.01 27.796 14.01 28.062 13 C28.239 12.34 28.416 11.68 28.598 11 C29.131 8.686 29.131 8.686 29 5 C27.861 5.485 27.861 5.485 26.699 5.98 C21.695 7.36 16.979 7.329 11.812 7.312 C10.815 7.329 9.818 7.345 8.791 7.361 C7.835 7.362 6.879 7.363 5.895 7.363 C5.027 7.366 4.159 7.369 3.265 7.372 C0.565 6.929 -0.308 6.093 -2 4 C-1.34 2.68 -0.68 1.36 0 0 Z " fill="#000000" transform="translate(262,4)"/>
<path d="M0 0 C2.743 0.536 5.486 1.073 8.312 1.625 C9.603 1.856 9.603 1.856 10.919 2.092 C15.069 2.988 16.565 3.367 19.062 7 C19.99 9.967 20.191 11.184 19 14 C18.34 14 17.68 14 17 14 C16.67 11.69 16.34 9.38 16 7 C14.584 6.519 13.167 6.04 11.75 5.562 C10.961 5.296 10.172 5.029 9.359 4.754 C7.265 4.085 5.133 3.533 3 3 C2.67 9.6 2.34 16.2 2 23 C1.67 23 1.34 23 1 23 C0.67 15.41 0.34 7.82 0 0 Z " fill="#060606" transform="translate(144,118)"/>
<path d="M0 0 C0.66 0.33 1.32 0.66 2 1 C0.159 9.184 -6.418 15.201 -13 20 C-18.772 23.239 -18.772 23.239 -22.211 22.57 C-22.801 22.382 -23.392 22.194 -24 22 C-21.917 20.874 -19.834 19.749 -17.75 18.625 C-16.59 17.999 -15.43 17.372 -14.234 16.727 C-11 15 -11 15 -8.703 14.023 C-6.463 12.677 -6.005 11.389 -5 9 C-4.133 7.412 -3.257 5.829 -2.375 4.25 C-1.929 3.451 -1.483 2.652 -1.023 1.828 C-0.686 1.225 -0.348 0.622 0 0 Z " fill="#000000" transform="translate(229,79)"/>
<path d="M0 0 C1.162 0.014 1.162 0.014 2.348 0.027 C4.232 0.051 6.116 0.086 8 0.125 C8.33 0.785 8.66 1.445 9 2.125 C2.77 5.24 -7.197 4.793 -14 4.125 C-14.99 3.465 -15.98 2.805 -17 2.125 C-11.164 0.441 -6.055 -0.136 0 0 Z " fill="#303030" transform="translate(124,51.875)"/>
<path d="M0 0 C0.33 0 0.66 0 1 0 C1.135 2.269 1.232 4.541 1.312 6.812 C1.4 8.709 1.4 8.709 1.488 10.645 C1 14 1 14 -1.145 15.887 C-4.116 17.045 -6.837 17.632 -10 18 C-9.294 16.931 -9.294 16.931 -8.574 15.84 C-5.221 10.682 -2.176 5.76 0 0 Z " fill="#FFFFFF" transform="translate(213,83)"/>
<path d="M0 0 C1.666 -0.043 3.334 -0.041 5 0 C6 1 6 1 6.133 2.812 C6.13 3.534 6.128 4.256 6.125 5 C6.128 5.722 6.13 6.444 6.133 7.188 C6 9 6 9 5 10 C3.334 10.041 1.666 10.043 0 10 C-2.215 4.585 -2.215 4.585 -1.125 1.625 C-0.754 1.089 -0.382 0.553 0 0 Z " fill="#000000" transform="translate(318,274)"/>
<path d="M0 0 C2 -0.043 4 -0.041 6 0 C7 1 7 1 7.125 4.438 C7 8 7 8 6 10 C4.02 10 2.04 10 0 10 C0 6.7 0 3.4 0 0 Z " fill="#363636" transform="translate(325,274)"/>
<path d="M0 0 C2.5 0.125 2.5 0.125 3.5 1.125 C3.633 2.938 3.633 2.938 3.625 5.125 C3.628 5.847 3.63 6.569 3.633 7.312 C3.5 9.125 3.5 9.125 2.5 10.125 C0 10.25 0 10.25 -2.5 10.125 C-3.5 9.125 -3.5 9.125 -3.633 7.312 C-3.63 6.591 -3.628 5.869 -3.625 5.125 C-3.628 4.403 -3.63 3.681 -3.633 2.938 C-3.422 0.059 -2.892 0.145 0 0 Z " fill="#000000" transform="translate(304.5,273.875)"/>
<path d="M0 0 C-0.33 0.99 -0.66 1.98 -1 3 C-8.028 3.854 -14.923 4.121 -22 4 C-21.67 3.01 -21.34 2.02 -21 1 C-13.982 -0.101 -7.094 -0.097 0 0 Z " fill="#000000" transform="translate(111,53)"/>
<path d="M0 0 C0.99 0 1.98 0 3 0 C4.688 2.5 4.688 2.5 6 5 C6.33 3.35 6.66 1.7 7 0 C7.66 0 8.32 0 9 0 C9 3.3 9 6.6 9 10 C5 9 5 9 3 6 C2.67 7.32 2.34 8.64 2 10 C1.34 10 0.68 10 0 10 C0 6.7 0 3.4 0 0 Z " fill="#000000" transform="translate(287,274)"/>
<path d="M0 0 C-1.32 0.33 -2.64 0.66 -4 1 C-4.196 2.603 -4.381 4.208 -4.562 5.812 C-4.667 6.706 -4.771 7.599 -4.879 8.52 C-5.157 11.134 -5.157 11.134 -4 14 C-5.32 14.33 -6.64 14.66 -8 15 C-9.05 11.851 -9.101 9.612 -9.062 6.312 C-9.053 5.319 -9.044 4.325 -9.035 3.301 C-9.024 2.542 -9.012 1.782 -9 1 C-3.616 -1.339 -3.616 -1.339 0 0 Z " fill="#FFFFFF" transform="translate(149,80)"/>
<path d="M0 0 C-0.99 0.495 -0.99 0.495 -2 1 C-2 1.66 -2 2.32 -2 3 C-8.378 4.173 -14.503 5.295 -21 5 C-21 4.34 -21 3.68 -21 3 C-13.842 0.714 -7.518 -0.44 0 0 Z " fill="#5A5A5A" transform="translate(148,70)"/>
<path d="M0 0 C0 0.99 0 1.98 0 3 C-1.942 4.717 -3.847 6.234 -5.938 7.75 C-7.132 8.636 -8.326 9.523 -9.52 10.41 C-10.111 10.846 -10.702 11.282 -11.311 11.731 C-14.357 14.02 -17.272 16.475 -20.195 18.918 C-21.089 19.454 -21.089 19.454 -22 20 C-22.99 19.67 -23.98 19.34 -25 19 C-22.148 16.768 -19.293 14.54 -16.438 12.312 C-15.638 11.687 -14.838 11.061 -14.014 10.416 C-9.415 6.831 -4.772 3.35 0 0 Z " fill="#000000" transform="translate(327,253)"/>
<path d="M0 0 C0.776 0.272 1.552 0.544 2.352 0.824 C3.508 1.221 3.508 1.221 4.688 1.625 C6.864 2.468 8.91 3.431 10.977 4.512 C10.977 5.172 10.977 5.832 10.977 6.512 C5.703 6.066 0.959 5.428 -4.023 3.512 C-4.023 2.522 -4.023 1.532 -4.023 0.512 C-2.023 -0.488 -2.023 -0.488 0 0 Z " fill="#383838" transform="translate(87.0234375,59.48828125)"/>
<path d="M0 0 C0 0.66 0 1.32 0 2 C3.3 1.34 6.6 0.68 10 0 C10 0.66 10 1.32 10 2 C2.007 4.217 -4.781 5.54 -13 4 C-12.67 3.34 -12.34 2.68 -12 2 C-10.039 1.367 -10.039 1.367 -7.625 0.875 C-6.834 0.707 -6.042 0.54 -5.227 0.367 C-3 0 -3 0 0 0 Z " fill="#141414" transform="translate(153,67)"/>
<path d="M0 0 C1.078 0.009 2.155 0.018 3.266 0.027 C4.085 0.039 4.905 0.051 5.75 0.062 C5.42 1.053 5.09 2.042 4.75 3.062 C-0.611 4.191 -5.803 4.159 -11.25 4.062 C-10.92 3.072 -10.59 2.083 -10.25 1.062 C-6.953 -0.286 -3.515 -0.038 0 0 Z " fill="#000000" transform="translate(142.25,50.9375)"/>
<path d="M0 0 C2 1 2 1 2.621 2.672 C3.091 5.562 3.094 8.323 3.062 11.25 C3.053 12.328 3.044 13.405 3.035 14.516 C3.024 15.335 3.012 16.155 3 17 C2.01 16.34 1.02 15.68 0 15 C-0.221 12.373 -0.282 9.991 -0.188 7.375 C-0.174 6.669 -0.16 5.962 -0.146 5.234 C-0.111 3.489 -0.057 1.745 0 0 Z " fill="#FFFFFF" transform="translate(184,71)"/>
<path d="M0 0 C-1.476 4.428 -3.731 8.634 -7 12 C-7.99 12 -8.98 12 -10 12 C-9.394 8.914 -8.415 6.846 -6.562 4.312 C-6.131 3.711 -5.699 3.109 -5.254 2.488 C-3.596 0.521 -2.579 0 0 0 Z " fill="#FFFFFF" transform="translate(210,87)"/>
<path d="M0 0 C-0.33 0.99 -0.66 1.98 -1 3 C-4.63 3.66 -8.26 4.32 -12 5 C-12 4.01 -12 3.02 -12 2 C-10.756 1.465 -9.504 0.948 -8.25 0.438 C-7.554 0.147 -6.858 -0.143 -6.141 -0.441 C-3.7 -1.078 -2.36 -0.802 0 0 Z " fill="#181818" transform="translate(158,74)"/>
<path d="M0 0 C-1.913 2.576 -2.902 2.984 -6.137 3.512 C-7.308 3.57 -8.48 3.628 -9.688 3.688 C-10.867 3.753 -12.046 3.819 -13.262 3.887 C-14.617 3.943 -14.617 3.943 -16 4 C-15.67 3.01 -15.34 2.02 -15 1 C-10.071 -1.034 -5.151 -1.321 0 0 Z " fill="#5D5D5D" transform="translate(169,65)"/>
<path d="M0 0 C1.32 0 2.64 0 4 0 C4 0.66 4 1.32 4 2 C6.97 2.495 6.97 2.495 10 3 C10 3.33 10 3.66 10 4 C6.7 4 3.4 4 0 4 C-0.248 4.763 -0.495 5.526 -0.75 6.312 C-2.136 9.292 -3.11 10.47 -6 12 C-8.25 11.688 -8.25 11.688 -10 11 C-9.093 10.67 -8.185 10.34 -7.25 10 C-3.019 7.397 -1.815 4.494 0 0 Z " fill="#000000" transform="translate(248,5)"/>
<path d="M0 0 C3.3 0.66 6.6 1.32 10 2 C10 2.66 10 3.32 10 4 C9.072 3.979 8.144 3.959 7.188 3.938 C3.977 3.842 3.977 3.842 1 5 C-1.188 4.062 -1.188 4.062 -3 3 C-2.67 2.34 -2.34 1.68 -2 1 C-1.34 1.33 -0.68 1.66 0 2 C0 1.34 0 0.68 0 0 Z " fill="#101010" transform="translate(117,71)"/>
<path d="M0 0 C1.32 0.33 2.64 0.66 4 1 C4.33 2.98 4.66 4.96 5 7 C3.68 7 2.36 7 1 7 C0.67 4.69 0.34 2.38 0 0 Z " fill="#FFFFFF" transform="translate(220,63)"/>
<path d="M0 0 C-0.99 1.485 -0.99 1.485 -2 3 C-5.625 3.688 -5.625 3.688 -9 4 C-9.33 3.34 -9.66 2.68 -10 2 C-6.275 -0.661 -4.421 -1.39 0 0 Z " fill="#2D2D2D" transform="translate(174,70)"/>
<path d="M0 0 C0.33 1.32 0.66 2.64 1 4 C-2.3 4 -5.6 4 -9 4 C-9 3.34 -9 2.68 -9 2 C-3.375 0 -3.375 0 0 0 Z " fill="#4B4B4B" transform="translate(136,71)"/>
<path d="M0 0 C2.625 0.938 2.625 0.938 5 2 C4.67 2.99 4.34 3.98 4 5 C2.35 5 0.7 5 -1 5 C-1.33 3.68 -1.66 2.36 -2 1 C-1.34 0.67 -0.68 0.34 0 0 Z " fill="#4E4E4E" transform="translate(85,59)"/>
<path d="M0 0 C0.66 0 1.32 0 2 0 C2 3.3 2 6.6 2 10 C1.34 10 0.68 10 0 10 C-0.544 6.942 -1 4.112 -1 1 C-0.67 0.67 -0.34 0.34 0 0 Z " fill="#000000" transform="translate(312,274)"/>
<path d="M0 0 C-0.99 1.32 -1.98 2.64 -3 4 C-4.98 3.34 -6.96 2.68 -9 2 C-3.429 -1.714 -3.429 -1.714 0 0 Z " fill="#FFFFFF" transform="translate(203,90)"/>
<path d="M0 0 C0.66 0.33 1.32 0.66 2 1 C2 2.98 2 4.96 2 7 C1.01 7 0.02 7 -1 7 C-1.043 5 -1.041 3 -1 1 C-0.67 0.67 -0.34 0.34 0 0 Z " fill="#FFFFFF" transform="translate(320,275)"/>
<path d="M0 0 C0.66 0.33 1.32 0.66 2 1 C2 2.98 2 4.96 2 7 C1.01 7 0.02 7 -1 7 C-1.043 5 -1.041 3 -1 1 C-0.67 0.67 -0.34 0.34 0 0 Z " fill="#FFFFFF" transform="translate(304,275)"/>
<path d="M0 0 C1.32 0 2.64 0 4 0 C4 0.66 4 1.32 4 2 C6.97 2.495 6.97 2.495 10 3 C10 3.33 10 3.66 10 4 C6.7 4 3.4 4 0 4 C0 2.68 0 1.36 0 0 Z " fill="#0D0D0D" transform="translate(248,5)"/>
<path d="M0 0 C0.99 0.33 1.98 0.66 3 1 C3.688 3.062 3.688 3.062 4 5 C1.69 4.34 -0.62 3.68 -3 3 C-2.67 2.34 -2.34 1.68 -2 1 C-1.34 1.33 -0.68 1.66 0 2 C0 1.34 0 0.68 0 0 Z " fill="#1C1C1C" transform="translate(98,64)"/>
<path d="M0 0 C0.99 0.33 1.98 0.66 3 1 C3 1.99 3 2.98 3 4 C1.35 3.67 -0.3 3.34 -2 3 C-2 2.34 -2 1.68 -2 1 C-1.34 0.67 -0.68 0.34 0 0 Z " fill="#2D2D2D" transform="translate(163,89)"/>
</svg>
