<?xml version="1.0" encoding="UTF-8"?>
<!-- Generator: visioncortex VTracer 0.6.4 -->
<svg version="1.1" xmlns="http://www.w3.org/2000/svg" width="338" height="287">
<path d="M0 0 C111.54 0 223.08 0 338 0 C338 94.71 338 189.42 338 287 C226.46 287 114.92 287 0 287 C0 192.29 0 97.58 0 0 Z " fill="#FBFBFB" transform="translate(0,0)"/>
<path d="M0 0 C0.66 0 1.32 0 2 0 C6 4.471 6 4.471 6 7 C6.66 7 7.32 7 8 7 C9.121 8.293 9.121 8.293 10.438 10.188 C13.187 13.985 16.135 17.57 19.188 21.125 C24.501 27.342 29.565 33.728 34.581 40.186 C36.076 42.097 37.587 43.995 39.102 45.891 C39.86 46.844 39.86 46.844 40.635 47.817 C41.607 49.037 42.582 50.255 43.561 51.47 C45.551 53.978 46.978 55.935 48 59 C49.328 59.354 50.662 59.685 52 60 C53.75 61.438 53.75 61.438 55 63 C55 63.66 55 64.32 55 65 C55.66 65 56.32 65 57 65 C58.297 66.437 58.297 66.437 59.75 68.43 C60.276 69.143 60.802 69.855 61.344 70.59 C61.89 71.344 62.437 72.098 63 72.875 C64.082 74.353 65.165 75.829 66.25 77.305 C66.73 77.965 67.209 78.624 67.703 79.304 C69.035 81.123 69.035 81.123 71 83 C82.043 84.219 95.293 82.841 106 80 C100.483 70.961 94.798 62.142 88.574 53.574 C85.767 49.704 83.071 45.761 80.375 41.812 C74.765 33.625 69.002 25.593 62.949 17.727 C62.22 16.777 61.49 15.827 60.739 14.848 C59.258 12.923 57.773 11.001 56.282 9.083 C55.601 8.199 54.92 7.314 54.219 6.402 C53.599 5.603 52.98 4.804 52.342 3.98 C51 2 51 2 51 0 C54.255 1.378 55.872 2.787 57.883 5.676 C58.666 6.784 58.666 6.784 59.465 7.914 C60.013 8.705 60.561 9.497 61.125 10.312 C62.293 11.967 63.462 13.621 64.633 15.273 C65.207 16.085 65.781 16.897 66.372 17.733 C68.504 20.702 70.738 23.567 73 26.438 C83.433 39.883 92.591 54.322 102.004 68.488 C102.533 69.265 103.061 70.042 103.606 70.842 C105 73 105 73 105.937 74.935 C106.81 76.863 106.81 76.863 109 79 C112.386 79.748 115.576 79.375 119 79 C120.154 78.874 121.307 78.748 122.496 78.618 C126.339 78.149 130.168 77.616 134 77.062 C135.335 76.878 136.669 76.693 138.004 76.51 C144.183 75.89 144.183 75.89 150 74 C131.616 38.512 131.616 38.512 110.648 4.547 C109 2 109 2 109 0 C109.66 0 110.32 0 111 0 C112.182 1.515 112.182 1.515 113.512 3.68 C114.014 4.493 114.517 5.306 115.035 6.144 C115.58 7.045 116.126 7.946 116.688 8.875 C117.26 9.812 117.832 10.75 118.422 11.716 C130.385 31.423 141.568 51.445 152 72 C156.788 70.322 158.888 67.987 161.688 63.875 C163.079 61.865 164.497 59.932 166 58 C166.66 58 167.32 58 168 58 C168.25 57.444 168.5 56.889 168.758 56.316 C170.213 53.602 171.952 51.343 173.875 48.938 C174.892 47.652 174.892 47.652 175.93 46.34 C179.801 41.965 182.677 40.579 188.438 39.5 C189.074 39.38 189.711 39.261 190.367 39.137 C196.244 38.067 202.152 37.179 208.062 36.312 C208.954 36.181 209.846 36.05 210.765 35.914 C213.174 35.575 215.583 35.276 218 35 C219.112 34.87 220.225 34.74 221.371 34.605 C224 35 224 35 226.072 37.165 C228.106 40.156 228.81 42.226 229.484 45.754 C229.697 46.857 229.91 47.959 230.129 49.096 C230.334 50.24 230.539 51.384 230.75 52.562 C230.97 53.679 231.191 54.796 231.418 55.947 C232.758 63.126 234.109 70.709 233 78 C231.089 80.612 229.179 81.5 226.121 82.395 C225.369 82.625 224.617 82.855 223.842 83.092 C223.048 83.33 222.255 83.568 221.438 83.812 C209.712 87.202 209.712 87.202 200.73 94.879 C199.85 97.437 199.963 99.138 200.312 101.812 C200.421 102.683 200.529 103.553 200.641 104.449 C200.819 105.712 200.819 105.712 201 107 C201.098 107.728 201.196 108.457 201.297 109.207 C201.518 110.807 201.757 112.404 202 114 C202.562 113.792 203.124 113.585 203.703 113.371 C212.56 110.125 221.458 106.999 230.371 103.911 C232.126 103.303 233.88 102.693 235.633 102.081 C238.128 101.213 240.626 100.355 243.125 99.5 C243.889 99.233 244.653 98.965 245.44 98.69 C247.275 98.069 249.136 97.527 251 97 C251.66 97.33 252.32 97.66 253 98 C246.26 101.187 239.4 103.643 232.312 105.938 C224.323 108.554 216.387 111.243 208.512 114.188 C206 115 206 115 203 115 C203.684 117.405 204.395 119.796 205.125 122.188 C205.313 122.861 205.501 123.535 205.695 124.229 C207.302 129.373 209.387 131.945 214 135 C220.683 138.233 227.153 138.709 234.5 139.188 C236.163 139.31 236.163 139.31 237.859 139.436 C240.572 139.634 243.286 139.822 246 140 C249.669 148.212 251.484 155.957 251 165 C250.67 165.66 250.34 166.32 250 167 C249.01 167.33 248.02 167.66 247 168 C246.546 168.784 246.092 169.567 245.625 170.375 C243.679 173.519 242.333 174.424 239 176 C235.406 176.363 235.406 176.363 231.5 176.312 C230.211 176.309 228.922 176.305 227.594 176.301 C224.267 176.022 221.982 175.439 219 174 C213.564 180.727 208.728 187.762 204 195 C203.34 195.99 202.68 196.98 202 198 C202.587 200.901 203.283 203.611 204.125 206.438 C208.961 223.739 211.783 241.189 214 259 C214.887 258.361 215.774 257.721 216.688 257.062 C222.905 253.191 229.84 253.343 237 254 C242.109 255.374 246.01 256.515 249 261 C249.376 264.757 249.164 265.754 247 269 C246.34 269 245.68 269 245 269 C245 269.66 245 270.32 245 271 C248.96 271 252.92 271 257 271 C257 271.66 257 272.32 257 273 C255.606 272.948 255.606 272.948 254.184 272.895 C246.495 272.441 246.495 272.441 239.25 274.5 C232.622 277.559 226.572 276.419 219.875 274 C218.244 273.349 216.616 272.688 215 272 C215.66 271.67 216.32 271.34 217 271 C217 270.34 217 269.68 217 269 C216.34 269 215.68 269 215 269 C214.67 272.96 214.34 276.92 214 281 C213.67 281 213.34 281 213 281 C212.905 279.98 212.81 278.96 212.712 277.908 C210.898 258.645 208.893 239.644 204.616 220.741 C203.778 217.013 203.003 213.272 202.227 209.53 C201.496 206.017 200.749 202.509 200 199 C196.062 199.474 192.125 199.955 188.188 200.438 C186.508 200.64 186.508 200.64 184.795 200.846 C183.722 200.978 182.649 201.11 181.543 201.246 C180.553 201.367 179.563 201.487 178.544 201.611 C175.886 201.944 175.886 201.944 173 203 C173.216 203.658 173.432 204.316 173.655 204.993 C181.722 229.632 189.898 254.879 191 281 C190.34 281 189.68 281 189 281 C188.885 280.233 188.77 279.465 188.652 278.675 C184.702 252.686 178.642 227.867 170 203 C163.4 203 156.8 203 150 203 C151.98 207.455 151.98 207.455 154 212 C153.67 212.66 153.34 213.32 153 214 C150.525 209.05 150.525 209.05 148 204 C148 207.384 148.782 209.158 150.125 212.25 C150.584 213.334 151.043 214.418 151.516 215.535 C152.476 217.776 153.444 220.013 154.422 222.246 C161.857 239.855 169.628 261.652 169 281 C166.997 277.996 166.543 276.446 165.922 272.977 C165.734 271.967 165.546 270.957 165.353 269.916 C165.055 268.287 165.055 268.287 164.75 266.625 C160.744 245.974 154.51 227.501 145.915 208.281 C145 206 145 206 145 204 C144.01 204.33 143.02 204.66 142 205 C142.407 205.995 142.407 205.995 142.823 207.009 C150.021 224.643 156.864 241.848 160.875 260.5 C161.091 261.491 161.306 262.483 161.529 263.504 C162.795 269.747 163.267 275.635 163 282 C161.042 279.063 160.665 277.938 160.211 274.59 C160.078 273.696 159.946 272.801 159.81 271.88 C159.666 270.909 159.523 269.938 159.375 268.938 C156.18 249.18 149.706 230.194 141.759 211.861 C141 210 141 210 140.211 207.082 C139.095 204.604 139.095 204.604 135.637 204.074 C130.944 202.688 130.159 201.016 127.812 196.812 C127.479 196.229 127.145 195.645 126.801 195.044 C125.849 193.373 124.924 191.687 124 190 C123.169 188.561 122.336 187.123 121.5 185.688 C121.005 184.801 120.51 183.914 120 183 C117.771 182.919 115.542 182.861 113.312 182.812 C112.071 182.778 110.83 182.743 109.551 182.707 C105.727 183.023 104.172 183.987 101 186 C94.837 186.915 89.258 186.549 84 183 C81.436 181.077 81.004 180.012 80 176.875 C79.67 175.926 79.34 174.977 79 174 C78.01 173.67 77.02 173.34 76 173 C71.971 168.33 68.752 163.331 69 157 C71.767 153.522 74.09 152.392 78.375 151.438 C84.477 149.933 84.477 149.933 90 147 C91.137 143.876 91.187 142.453 89.908 139.356 C89.348 138.428 88.788 137.499 88.211 136.543 C87.599 135.512 86.986 134.482 86.355 133.42 C85.702 132.353 85.048 131.287 84.375 130.188 C83.745 129.132 83.114 128.077 82.465 126.99 C80.662 123.982 78.833 120.99 77 118 C76.276 116.781 76.276 116.781 75.537 115.537 C75.11 114.826 74.682 114.115 74.242 113.383 C73.882 112.777 73.523 112.171 73.152 111.547 C68.032 104.67 56.979 104.503 49.129 103.307 C47.161 103.023 45.19 102.766 43.219 102.512 C32.037 101.037 32.037 101.037 28 97 C26.841 94.925 25.938 92.844 25.066 90.633 C23.847 87.621 22.413 84.769 20.938 81.875 C14.328 68.706 14.328 68.706 15 64 C17.471 61.529 18.63 61.588 22.051 61.184 C23.059 61.059 24.068 60.935 25.107 60.807 C26.165 60.685 27.223 60.563 28.312 60.438 C30.392 60.188 32.472 59.936 34.551 59.684 C35.475 59.576 36.4 59.468 37.353 59.357 C39.931 59.009 42.455 58.539 45 58 C44.643 57.562 44.286 57.125 43.918 56.674 C32.168 42.27 32.168 42.27 28.375 37.312 C25.002 32.923 21.418 28.719 17.818 24.515 C11 16.537 11 16.537 11 14 C10.34 14 9.68 14 9 14 C7.344 12.102 7.344 12.102 5.5 9.625 C3.736 7.271 2.081 5.081 0 3 C0 2.01 0 1.02 0 0 Z " fill="#0E0E0E" transform="translate(25,3)"/>
<path d="M0 0 C0.331 0.843 0.662 1.685 1.003 2.553 C8.932 22.731 16.929 42.879 25 63 C27.064 68.145 29.127 73.291 31.188 78.438 C31.436 79.058 31.684 79.678 31.94 80.317 C36.692 92.186 41.367 104.084 46 116 C43.652 118.348 42.977 118.317 39.772 118.594 C38.459 118.714 38.459 118.714 37.119 118.836 C36.167 118.914 35.215 118.991 34.234 119.07 C33.249 119.156 32.264 119.242 31.25 119.331 C29.155 119.511 27.06 119.688 24.965 119.86 C21.804 120.121 18.644 120.397 15.484 120.676 C9.66 121.18 3.833 121.607 -2 122 C-2.766 122.058 -3.532 122.116 -4.321 122.176 C-14.833 122.928 -14.833 122.928 -19.031 119.59 C-20.039 117.917 -20.039 117.917 -21 116 C-21.42 115.309 -21.84 114.618 -22.273 113.907 C-23.741 111.489 -25.124 109.034 -26.5 106.562 C-27.016 105.649 -27.531 104.735 -28.062 103.793 C-29.156 101.854 -30.247 99.913 -31.335 97.97 C-34.066 93.098 -36.815 88.237 -39.562 83.375 C-40.108 82.408 -40.653 81.441 -41.215 80.445 C-44.583 74.481 -47.991 68.544 -51.438 62.625 C-56.39 54.117 -61.201 45.534 -66.002 36.94 C-74.734 21.239 -74.734 21.239 -84.066 5.891 C-84.374 5.267 -84.683 4.643 -85 4 C-84.67 3.34 -84.34 2.68 -84 2 C-83.567 2.454 -83.134 2.907 -82.688 3.375 C-80.892 5.2 -80.892 5.2 -78 7 C-78.99 7.495 -78.99 7.495 -80 8 C-70.064 7.42 -60.217 6.546 -50.332 5.371 C-48.995 5.215 -47.659 5.06 -46.322 4.905 C-42.856 4.502 -39.391 4.095 -35.926 3.686 C-30.344 3.029 -24.761 2.376 -19.179 1.726 C-17.242 1.5 -15.305 1.271 -13.369 1.042 C-12.196 0.905 -11.024 0.768 -9.816 0.627 C-8.786 0.505 -7.757 0.384 -6.696 0.259 C-4 0 -4 0 0 0 Z " fill="#FFFFFF" transform="translate(176,83)"/>
<path d="M0 0 C2.525 2.525 2.557 4.138 3.125 7.625 C3.376 9.129 3.376 9.129 3.633 10.664 C3.754 11.435 3.875 12.206 4 13 C4.66 13 5.32 13 6 13 C6.056 13.888 6.056 13.888 6.113 14.793 C6.522 19.702 7.218 22.827 10 27 C9.67 27.66 9.34 28.32 9 29 C9.579 31.702 10.218 34.336 10.938 37 C13 44.787 13 44.787 13 47 C13.66 47 14.32 47 15 47 C14.821 47.606 14.642 48.212 14.457 48.836 C12.907 54.941 13.092 58.961 15.273 64.871 C16 67 16 67 16 70 C12.123 71.193 9.084 72 5 72 C5.33 73.32 5.66 74.64 6 76 C6.99 75.67 7.98 75.34 9 75 C9.33 74.34 9.66 73.68 10 73 C12.314 72.269 14.648 71.599 17 71 C17.303 72.085 17.606 73.171 17.918 74.289 C18.34 75.735 18.764 77.18 19.188 78.625 C19.384 79.338 19.581 80.051 19.783 80.785 C21.634 86.992 24.211 91.338 29.938 94.75 C39.589 98.309 50.833 98.358 61 99 C61.532 100.266 62.05 101.538 62.562 102.812 C62.853 103.52 63.143 104.228 63.441 104.957 C64 107 64 107 63 110 C61.969 109.34 60.938 108.68 59.875 108 C52.558 104.348 43.527 105.078 35.75 107 C33.157 107.986 32.26 108.479 31.012 110.98 C30.32 113.429 30.32 113.429 30 117 C28.226 114.338 27.518 112.764 26.711 109.77 C26.492 108.967 26.273 108.165 26.047 107.338 C25.714 106.088 25.714 106.088 25.375 104.812 C25.146 103.968 24.916 103.123 24.68 102.252 C24.115 100.169 23.557 98.085 23 96 C23.603 98.438 24.207 100.875 24.812 103.312 C24.993 104.038 25.173 104.763 25.358 105.51 C26.644 110.655 28.017 115.767 29.484 120.863 C30 123 30 123 30 126 C30.99 124.02 30.99 124.02 32 122 C32.66 123.65 33.32 125.3 34 127 C33.381 127.227 32.762 127.454 32.125 127.688 C29.829 128.813 29.829 128.813 29.156 131.125 C27.663 134.839 25.571 137.98 23.375 141.312 C22.955 141.958 22.535 142.603 22.102 143.268 C21.072 144.848 20.036 146.424 19 148 C16.604 145.604 15.946 143.633 14.742 140.465 C14.29 139.284 13.838 138.104 13.372 136.888 C13.008 135.928 13.008 135.928 12.637 134.948 C11.586 132.174 10.523 129.404 9.46 126.634 C8.885 125.133 8.31 123.631 7.736 122.13 C4.575 113.872 1.357 105.636 -1.863 97.402 C-2.877 94.808 -3.889 92.214 -4.901 89.62 C-7.956 81.789 -11.014 73.959 -14.087 66.134 C-15.396 62.799 -16.701 59.463 -18.007 56.126 C-18.622 54.556 -19.238 52.986 -19.857 51.417 C-20.709 49.254 -21.556 47.088 -22.402 44.922 C-23.122 43.09 -23.122 43.09 -23.855 41.222 C-24.836 38.462 -25.529 35.883 -26 33 C-26.66 33 -27.32 33 -28 33 C-27.632 33.916 -27.632 33.916 -27.257 34.851 C-18.272 57.23 -9.403 79.652 -0.785 102.176 C1.433 107.963 3.68 113.739 5.965 119.5 C6.213 120.128 6.462 120.756 6.718 121.403 C7.918 124.433 9.123 127.462 10.334 130.488 C12.884 136.917 15.157 143.332 17 150 C16.01 150.33 15.02 150.66 14 151 C7.953 136.273 1.996 121.52 -3.804 106.694 C-8.367 95.039 -13.015 83.42 -17.674 71.803 C-19.585 67.04 -21.489 62.274 -23.391 57.508 C-24.221 55.428 -25.051 53.349 -25.882 51.269 C-26.416 49.931 -26.949 48.593 -27.483 47.255 C-28.221 45.404 -28.96 43.554 -29.699 41.703 C-30.331 40.12 -30.331 40.12 -30.975 38.505 C-31.939 36.059 -31.939 36.059 -33 34 C-31.298 33.072 -31.298 33.072 -29.562 32.125 C-21.456 27.049 -15.84 18.893 -9.996 11.473 C-6.807 7.522 -3.413 3.758 0 0 Z " fill="#F7F7F7" transform="translate(209,48)"/>
<path d="M0 0 C0.66 0 1.32 0 2 0 C2.902 4.059 3.15 8.044 3.25 12.188 C3.276 13.212 3.302 14.237 3.328 15.293 C2.943 18.47 2.409 19.017 0 21 C-1.834 21.796 -1.834 21.796 -3.879 22.395 C-5.007 22.74 -5.007 22.74 -6.158 23.092 C-6.952 23.33 -7.745 23.568 -8.562 23.812 C-20.288 27.202 -20.288 27.202 -29.27 34.879 C-30.15 37.437 -30.037 39.138 -29.688 41.812 C-29.579 42.683 -29.471 43.553 -29.359 44.449 C-29.241 45.291 -29.122 46.133 -29 47 C-28.902 47.728 -28.804 48.457 -28.703 49.207 C-28.482 50.807 -28.243 52.404 -28 54 C-27.438 53.792 -26.876 53.585 -26.297 53.371 C-17.44 50.125 -8.542 46.999 0.371 43.911 C2.126 43.303 3.88 42.693 5.633 42.081 C8.128 41.213 10.626 40.355 13.125 39.5 C13.889 39.233 14.653 38.965 15.44 38.69 C17.275 38.069 19.136 37.527 21 37 C21.66 37.33 22.32 37.66 23 38 C16.26 41.187 9.4 43.643 2.312 45.938 C-5.677 48.554 -13.613 51.243 -21.488 54.188 C-24 55 -24 55 -27 55 C-26.316 57.405 -25.605 59.796 -24.875 62.188 C-24.687 62.861 -24.499 63.535 -24.305 64.229 C-22.698 69.373 -20.613 71.945 -16 75 C-9.317 78.233 -2.847 78.709 4.5 79.188 C5.609 79.269 6.717 79.351 7.859 79.436 C10.572 79.634 13.286 79.822 16 80 C19.669 88.212 21.484 95.957 21 105 C20.67 105.66 20.34 106.32 20 107 C18.515 107.495 18.515 107.495 17 108 C16.319 109.176 16.319 109.176 15.625 110.375 C13.679 113.519 12.333 114.424 9 116 C5.406 116.363 5.406 116.363 1.5 116.312 C0.211 116.309 -1.078 116.305 -2.406 116.301 C-5.733 116.022 -8.018 115.439 -11 114 C-16.436 120.727 -21.272 127.762 -26 135 C-26.66 135.99 -27.32 136.98 -28 138 C-27.413 140.901 -26.717 143.611 -25.875 146.438 C-21.039 163.739 -18.217 181.189 -16 199 C-14.67 198.041 -14.67 198.041 -13.312 197.062 C-7.095 193.191 -0.16 193.343 7 194 C12.109 195.374 16.01 196.515 19 201 C19.376 204.757 19.164 205.754 17 209 C16.34 209 15.68 209 15 209 C15 209.66 15 210.32 15 211 C18.96 211 22.92 211 27 211 C27 211.66 27 212.32 27 213 C26.071 212.965 25.141 212.93 24.184 212.895 C16.495 212.441 16.495 212.441 9.25 214.5 C2.622 217.559 -3.428 216.419 -10.125 214 C-11.756 213.349 -13.384 212.688 -15 212 C-14.34 211.67 -13.68 211.34 -13 211 C-13 210.34 -13 209.68 -13 209 C-13.66 209 -14.32 209 -15 209 C-15.33 212.96 -15.66 216.92 -16 221 C-16.33 221 -16.66 221 -17 221 C-17.142 219.47 -17.142 219.47 -17.288 217.908 C-19.102 198.645 -21.107 179.644 -25.384 160.741 C-26.222 157.013 -26.997 153.272 -27.773 149.53 C-28.504 146.017 -29.251 142.509 -30 139 C-33.938 139.474 -37.875 139.955 -41.812 140.438 C-42.932 140.572 -44.052 140.707 -45.205 140.846 C-46.278 140.978 -47.351 141.11 -48.457 141.246 C-49.942 141.427 -49.942 141.427 -51.456 141.611 C-54.114 141.944 -54.114 141.944 -57 143 C-56.784 143.658 -56.568 144.316 -56.345 144.993 C-48.278 169.632 -40.102 194.879 -39 221 C-39.66 221 -40.32 221 -41 221 C-41.115 220.233 -41.23 219.465 -41.348 218.675 C-45.298 192.686 -51.358 167.867 -60 143 C-66.6 143 -73.2 143 -80 143 C-78.68 145.97 -77.36 148.94 -76 152 C-76.495 152.99 -76.495 152.99 -77 154 C-77.864 152.213 -78.716 150.42 -79.562 148.625 C-80.038 147.627 -80.514 146.63 -81.004 145.602 C-81.333 144.743 -81.661 143.885 -82 143 C-81.505 142.01 -81.505 142.01 -81 141 C-79.133 140.608 -79.133 140.608 -76.664 140.406 C-75.282 140.286 -75.282 140.286 -73.873 140.164 C-72.872 140.086 -71.871 140.009 -70.84 139.93 C-69.31 139.801 -69.31 139.801 -67.75 139.669 C-64.48 139.396 -61.209 139.135 -57.938 138.875 C-55.726 138.692 -53.514 138.509 -51.303 138.324 C-45.869 137.873 -40.435 137.432 -35 137 C-35 132.888 -35.671 130.856 -37.203 127.102 C-37.682 125.917 -38.161 124.732 -38.655 123.511 C-39.187 122.216 -39.718 120.92 -40.25 119.625 C-40.801 118.267 -41.352 116.908 -41.902 115.55 C-43.041 112.736 -44.183 109.923 -45.329 107.112 C-47.807 101.022 -50.247 94.918 -52.688 88.812 C-53.162 87.627 -53.637 86.442 -54.126 85.221 C-57.247 77.421 -60.343 69.611 -63.43 61.797 C-63.812 60.828 -64.195 59.859 -64.589 58.861 C-66.495 54.035 -68.399 49.208 -70.302 44.38 C-71.004 42.598 -71.707 40.817 -72.41 39.035 C-72.728 38.226 -73.047 37.417 -73.375 36.583 C-73.676 35.818 -73.978 35.054 -74.289 34.266 C-74.573 33.544 -74.858 32.821 -75.15 32.077 C-75.974 30.063 -76.875 28.098 -77.787 26.123 C-79 23 -79 23 -78 20 C-73.526 29.383 -69.575 38.88 -65.812 48.562 C-65.246 50.011 -64.68 51.459 -64.113 52.907 C-62.961 55.848 -61.812 58.79 -60.665 61.732 C-58.183 68.097 -55.685 74.455 -53.188 80.812 C-52.511 82.536 -52.511 82.536 -51.82 84.295 C-49.171 91.038 -46.505 97.774 -43.812 104.5 C-43.499 105.282 -43.186 106.064 -42.864 106.87 C-41.162 111.117 -39.449 115.361 -37.73 119.602 C-37.358 120.525 -36.985 121.449 -36.6 122.4 C-35.882 124.179 -35.161 125.956 -34.437 127.732 C-34.117 128.525 -33.798 129.317 -33.469 130.133 C-33.185 130.833 -32.9 131.533 -32.607 132.254 C-32 134 -32 134 -32 136 C-31.34 135.67 -30.68 135.34 -30 135 C-32.255 126.835 -35.218 119.003 -38.312 111.125 C-38.84 109.773 -39.367 108.421 -39.894 107.069 C-41.013 104.2 -42.134 101.331 -43.256 98.463 C-45.016 93.961 -46.767 89.456 -48.516 84.949 C-54.874 68.565 -61.262 52.191 -67.695 35.836 C-68.081 34.855 -68.467 33.873 -68.864 32.862 C-69.63 30.932 -70.406 29.006 -71.19 27.083 C-71.558 26.182 -71.926 25.28 -72.305 24.352 C-72.632 23.558 -72.959 22.765 -73.296 21.948 C-74 20 -74 20 -74 18 C-73.34 18 -72.68 18 -72 18 C-71.66 18.876 -71.319 19.752 -70.969 20.654 C-69.623 24.116 -68.278 27.578 -66.932 31.04 C-66.309 32.643 -65.686 34.246 -65.063 35.849 C-61.349 45.403 -57.629 54.955 -53.895 64.5 C-52.534 67.979 -51.173 71.458 -49.812 74.938 C-49.477 75.796 -49.141 76.655 -48.795 77.54 C-43.905 90.051 -39.081 102.584 -34.361 115.16 C-32.354 120.496 -30.308 125.786 -28 131 C-24.034 127.398 -21.56 123.181 -18.912 118.602 C-17.127 115.591 -15.969 113.979 -13 112 C-13.33 111.34 -13.66 110.68 -14 110 C-14.99 110.495 -14.99 110.495 -16 111 C-17.156 107.17 -18.298 103.335 -19.438 99.5 C-19.763 98.422 -20.088 97.345 -20.424 96.234 C-22.129 90.467 -23.483 84.996 -24 79 C-21.815 81.185 -21.492 82.216 -20.711 85.133 C-20.492 85.938 -20.273 86.744 -20.047 87.574 C-19.825 88.416 -19.603 89.258 -19.375 90.125 C-19.146 90.974 -18.916 91.824 -18.68 92.699 C-18.114 94.798 -17.554 96.898 -17 99 C-16.584 98.223 -16.167 97.445 -15.738 96.645 C-12.99 92.464 -9.758 91.243 -5 90 C3.366 89.055 9.855 89.427 17 94 C16.01 89.545 16.01 89.545 15 85 C12.792 84.836 12.792 84.836 10.539 84.668 C8.568 84.508 6.596 84.348 4.625 84.188 C3.659 84.117 2.694 84.047 1.699 83.975 C-6.944 83.25 -15.985 82.125 -22.531 75.934 C-26.815 70.294 -28.383 62.94 -29 56 C-29.598 56.33 -30.196 56.66 -30.812 57 C-33 58 -33 58 -36 58 C-36.66 59.32 -37.32 60.64 -38 62 C-39.32 61.34 -40.64 60.68 -42 60 C-41.67 58.68 -41.34 57.36 -41 56 C-39.68 56 -38.36 56 -37 56 C-34.664 55.688 -32.33 55.358 -30 55 C-30.3 54.143 -30.601 53.286 -30.91 52.402 C-34.888 40.442 -34.888 40.442 -33 35 C-29.621 30.362 -26.749 27.915 -21.5 25.375 C-20.898 25.083 -20.296 24.791 -19.675 24.49 C-14.429 22.026 -9.034 20.276 -3.449 18.727 C-1.075 18.234 -1.075 18.234 0 17 C0.073 14.137 0.092 11.299 0.062 8.438 C0.058 7.631 0.053 6.825 0.049 5.994 C0.037 3.996 0.019 1.998 0 0 Z " fill="#000000" transform="translate(255,63)"/>
<path d="M0 0 C6.703 6.31 6.923 16.235 7.359 24.926 C7.417 27.013 7.464 29.1 7.5 31.188 C7.546 32.712 7.546 32.712 7.593 34.267 C7.594 36.937 7.522 39.382 7 42 C4.918 44.031 4.918 44.031 2 45 C0.308 45.582 0.308 45.582 -1.418 46.176 C-2.662 46.551 -3.906 46.926 -5.188 47.312 C-10.967 49.124 -15.885 51.372 -20.949 54.766 C-23.004 56.003 -24.681 56.476 -27 57 C-27.865 54.065 -28.717 51.128 -29.562 48.188 C-29.809 47.354 -30.056 46.521 -30.311 45.662 C-30.539 44.86 -30.768 44.057 -31.004 43.23 C-31.219 42.492 -31.433 41.754 -31.655 40.993 C-32 39 -32 39 -31 36 C-31.474 35.464 -31.949 34.928 -32.438 34.375 C-34.81 30.769 -34.242 27.201 -34 23 C-34.66 23 -35.32 23 -36 23 C-37.153 18.057 -37.54 13.043 -38 8 C-40.31 9.65 -42.62 11.3 -45 13 C-43.536 9.584 -41.883 7.361 -39 5 C-36.455 4.314 -34.19 3.852 -31.602 3.516 C-30.889 3.41 -30.176 3.305 -29.442 3.196 C-27.939 2.977 -26.434 2.766 -24.929 2.562 C-22.637 2.252 -20.35 1.919 -18.062 1.582 C-16.597 1.371 -15.13 1.161 -13.664 0.953 C-12.986 0.856 -12.307 0.759 -11.609 0.66 C-7.714 0.135 -3.926 -0.284 0 0 Z " fill="#555555" transform="translate(249,38)"/>
<path d="M0 0 C6.175 -0.465 6.175 -0.465 9.144 1.655 C10.845 3.5 12.261 5.394 13.677 7.465 C14.17 8.13 14.664 8.795 15.173 9.48 C16.59 11.408 17.952 13.365 19.302 15.34 C20.28 16.728 20.28 16.728 21.278 18.145 C24.193 22.748 26.719 27.544 29.302 32.34 C37.044 46.466 44.919 60.498 53.081 74.386 C59.661 85.606 65.986 96.969 72.302 108.34 C72.8 109.237 73.299 110.135 73.813 111.059 C74.976 113.152 76.139 115.246 77.302 117.34 C73.672 117.34 70.042 117.34 66.302 117.34 C67.292 115.36 67.292 115.36 68.302 113.34 C68.885 110.382 68.885 110.382 68.302 107.34 C65.361 103.643 62.753 101.775 58.302 100.34 C51.715 99.705 44.803 99.176 39.302 103.34 C37.897 105.391 37.897 105.391 37.302 107.34 C33.871 106.196 33.387 105.475 31.489 102.527 C31.029 101.84 30.569 101.153 30.095 100.445 C29.302 98.34 29.302 98.34 29.739 96.207 C32.091 93.397 34.598 93.128 38.114 92.277 C45.314 90.539 45.314 90.539 51.302 86.34 C52.297 79.797 49.725 75.797 46.428 70.279 C45.061 67.925 43.771 65.533 42.478 63.137 C41.44 61.246 40.403 59.355 39.364 57.465 C38.875 56.549 38.385 55.633 37.881 54.689 C34.357 48.376 31.083 43.936 24.06 41.592 C21.671 40.974 19.29 40.479 16.864 40.027 C16.037 39.859 15.21 39.691 14.358 39.518 C12.343 39.11 10.323 38.723 8.302 38.34 C8.772 37.89 9.243 37.44 9.728 36.977 C11.417 35.22 12.31 33.552 13.302 31.34 C13.962 31.34 14.622 31.34 15.302 31.34 C16.225 28.569 16.465 26.773 16.489 23.902 C16.503 23.141 16.518 22.379 16.532 21.594 C16.27 19.025 15.703 17.504 14.302 15.34 C12.744 14.06 12.744 14.06 10.927 13.152 C10.049 12.667 10.049 12.667 9.153 12.172 C3.135 9.467 -4.696 9.072 -10.968 11.059 C-13.984 12.633 -15.56 14.075 -17.136 17.09 C-17.321 17.832 -17.507 18.575 -17.698 19.34 C-19.702 16.334 -20.959 13.49 -22.323 10.152 C-22.769 9.066 -23.215 7.979 -23.675 6.859 C-24.013 6.028 -24.35 5.196 -24.698 4.34 C-22.308 1.95 -16.988 2.236 -13.761 1.777 C-12.391 1.569 -12.391 1.569 -10.993 1.357 C-7.336 0.832 -3.665 0.462 0 0 Z " fill="#FFFFFF" transform="translate(66.6982421875,65.66015625)"/>
<path d="M0 0 C0 0.33 0 0.66 0 1 C-1.64 1.433 -1.64 1.433 -3.312 1.875 C-7.04 2.819 -7.04 2.819 -10 5 C-8.35 8.63 -6.7 12.26 -5 16 C-3.907 15.031 -2.814 14.061 -1.688 13.062 C3.243 8.69 7.521 8.716 13.922 8.785 C19.647 9.185 23.542 10.728 27.938 14.562 C31.179 18.393 31.332 20.927 31.293 25.816 C30.874 28.94 29.412 30.084 27 32 C26.318 33.326 25.648 34.658 25 36 C24.01 36.495 24.01 36.495 23 37 C24.702 37.329 24.702 37.329 26.438 37.664 C43.201 41.096 43.201 41.096 48 47 C50.533 50.903 52.744 54.917 54.922 59.025 C57.17 63.142 59.666 67.116 62.119 71.113 C65.259 76.284 66.536 79.89 66 86 C63.448 89.994 59.626 91.197 55.262 92.539 C52.294 93.144 49.898 92.817 47 92 C47 91.34 47 90.68 47 90 C47.987 89.662 48.975 89.325 49.992 88.977 C51.287 88.526 52.581 88.076 53.875 87.625 C54.526 87.403 55.177 87.182 55.848 86.953 C58.766 85.93 60.786 85.214 63 83 C62.686 78.647 61.474 75.587 59.234 71.883 C58.393 70.477 58.393 70.477 57.535 69.043 C56.946 68.08 56.357 67.117 55.75 66.125 C55.176 65.17 54.603 64.215 54.012 63.23 C52.882 61.355 51.746 59.484 50.603 57.617 C49.583 55.952 48.574 54.282 47.577 52.604 C47.15 51.893 46.722 51.182 46.281 50.449 C45.916 49.834 45.55 49.219 45.174 48.585 C40.055 41.674 29.001 41.506 21.129 40.307 C19.161 40.023 17.19 39.766 15.219 39.512 C4.037 38.037 4.037 38.037 0 34 C-1.159 31.925 -2.062 29.844 -2.934 27.633 C-4.153 24.621 -5.587 21.769 -7.062 18.875 C-8.043 16.917 -9.022 14.959 -10 13 C-10.358 12.292 -10.717 11.585 -11.086 10.855 C-12.826 7.192 -13.297 4.89 -12 1 C-7.947 0.018 -4.161 -0.082 0 0 Z " fill="#111111" transform="translate(53,66)"/>
<path d="M0 0 C0.66 0 1.32 0 2 0 C2.902 4.059 3.15 8.044 3.25 12.188 C3.276 13.212 3.302 14.237 3.328 15.293 C2.943 18.47 2.409 19.017 0 21 C-1.834 21.796 -1.834 21.796 -3.879 22.395 C-5.007 22.74 -5.007 22.74 -6.158 23.092 C-6.952 23.33 -7.745 23.568 -8.562 23.812 C-20.288 27.202 -20.288 27.202 -29.27 34.879 C-30.15 37.437 -30.037 39.138 -29.688 41.812 C-29.579 42.683 -29.471 43.553 -29.359 44.449 C-29.241 45.291 -29.122 46.133 -29 47 C-28.902 47.728 -28.804 48.457 -28.703 49.207 C-28.482 50.807 -28.243 52.404 -28 54 C-27.438 53.792 -26.876 53.585 -26.297 53.371 C-17.44 50.125 -8.542 46.999 0.371 43.911 C2.126 43.303 3.88 42.693 5.633 42.081 C8.128 41.213 10.626 40.355 13.125 39.5 C14.271 39.099 14.271 39.099 15.44 38.69 C17.275 38.069 19.136 37.527 21 37 C21.66 37.33 22.32 37.66 23 38 C16.26 41.187 9.4 43.643 2.312 45.938 C-5.677 48.554 -13.613 51.243 -21.488 54.188 C-24 55 -24 55 -27 55 C-26.316 57.405 -25.605 59.796 -24.875 62.188 C-24.687 62.861 -24.499 63.535 -24.305 64.229 C-22.698 69.373 -20.613 71.945 -16 75 C-9.317 78.233 -2.847 78.709 4.5 79.188 C5.609 79.269 6.717 79.351 7.859 79.436 C10.572 79.634 13.286 79.822 16 80 C19.669 88.212 21.484 95.957 21 105 C20.67 105.66 20.34 106.32 20 107 C19.01 107.33 18.02 107.66 17 108 C16.319 109.176 16.319 109.176 15.625 110.375 C13.715 113.461 12.305 114.54 9 116 C3.504 116.767 -1.903 114.999 -7 113 C-7.99 112.01 -7.99 112.01 -9 111 C-8.673 108.384 -8.18 106.359 -7 104 C-7.66 104 -8.32 104 -9 104 C-9.495 105.485 -9.495 105.485 -10 107 C-10.33 107 -10.66 107 -11 107 C-11.388 104.364 -11.44 102.631 -9.887 100.402 C-8.6 98.927 -7.301 97.463 -6 96 C-6 95.34 -6 94.68 -6 94 C-4.02 93.01 -4.02 93.01 -2 92 C-2 91.67 -2 91.34 -2 91 C5.736 89.692 10.278 89.815 17 94 C16.34 91.03 15.68 88.06 15 85 C12.792 84.836 12.792 84.836 10.539 84.668 C8.568 84.508 6.596 84.348 4.625 84.188 C3.177 84.082 3.177 84.082 1.699 83.975 C-6.944 83.25 -15.985 82.125 -22.531 75.934 C-26.815 70.294 -28.383 62.94 -29 56 C-29.897 56.495 -29.897 56.495 -30.812 57 C-33 58 -33 58 -36 58 C-36.66 59.32 -37.32 60.64 -38 62 C-39.32 61.34 -40.64 60.68 -42 60 C-41.67 58.68 -41.34 57.36 -41 56 C-39.68 56 -38.36 56 -37 56 C-34.664 55.688 -32.33 55.358 -30 55 C-30.3 54.143 -30.601 53.286 -30.91 52.402 C-34.888 40.442 -34.888 40.442 -33 35 C-29.621 30.362 -26.749 27.915 -21.5 25.375 C-20.898 25.083 -20.296 24.791 -19.675 24.49 C-14.429 22.026 -9.034 20.276 -3.449 18.727 C-1.075 18.234 -1.075 18.234 0 17 C0.073 14.137 0.092 11.299 0.062 8.438 C0.058 7.631 0.053 6.825 0.049 5.994 C0.037 3.996 0.019 1.998 0 0 Z " fill="#292929" transform="translate(255,63)"/>
<path d="M0 0 C0.851 0.048 1.702 0.097 2.578 0.146 C3.468 0.203 4.357 0.259 5.273 0.316 C6.171 0.369 7.068 0.421 7.992 0.475 C10.211 0.604 12.43 0.739 14.648 0.879 C14.978 1.539 15.308 2.199 15.648 2.879 C11.028 2.879 6.408 2.879 1.648 2.879 C14.061 2.638 14.061 2.638 18.582 6.172 C20.772 8.656 22.776 11.149 24.648 13.879 C25.308 13.219 25.968 12.559 26.648 11.879 C25.898 18.629 25.898 18.629 23.648 20.879 C23.38 21.663 23.112 22.446 22.836 23.254 C21.355 26.528 19.59 27.87 16.648 29.879 C11.014 31.757 3.851 32.068 -1.762 29.984 C-3.664 28.879 -3.664 28.879 -6.352 26.879 C-6.219 27.543 -6.086 28.207 -5.949 28.891 C-5.083 33.22 -4.217 37.549 -3.352 41.879 C-4.012 41.879 -4.672 41.879 -5.352 41.879 C-6.216 38.944 -7.069 36.007 -7.914 33.066 C-8.161 32.233 -8.408 31.4 -8.662 30.541 C-8.891 29.739 -9.12 28.936 -9.355 28.109 C-9.57 27.371 -9.785 26.633 -10.006 25.872 C-10.352 23.879 -10.352 23.879 -9.352 20.879 C-9.826 20.343 -10.3 19.806 -10.789 19.254 C-13.162 15.648 -12.594 12.08 -12.352 7.879 C-13.012 7.879 -13.672 7.879 -14.352 7.879 C-14.682 6.229 -15.012 4.579 -15.352 2.879 C-14.692 2.879 -14.032 2.879 -13.352 2.879 C-12.362 4.364 -12.362 4.364 -11.352 5.879 C-10.176 4.672 -10.176 4.672 -8.977 3.441 C-5.65 0.194 -4.47 -0.268 0 0 Z " fill="#030303" transform="translate(227.3515625,53.12109375)"/>
<path d="M0 0 C2.188 2.375 2.188 2.375 3 5 C2.793 9.243 1.686 10.419 -1 14 C13.19 14 27.38 14 42 14 C42 14.33 42 14.66 42 15 C38.438 15.175 34.875 15.339 31.312 15.5 C30.234 15.549 29.156 15.598 28.045 15.649 C19.977 15.988 11.938 16.063 3.866 15.787 C-1.633 15.686 -5.039 16.661 -10 19 C-12.555 19.398 -12.555 19.398 -14.875 19.375 C-15.636 19.383 -16.396 19.39 -17.18 19.398 C-19.749 19.035 -21.584 18.421 -23.981 17.496 C-29.404 15.667 -34.439 15.598 -40.119 15.659 C-41.731 15.659 -41.731 15.659 -43.375 15.658 C-46.897 15.66 -50.419 15.683 -53.941 15.707 C-56.395 15.713 -58.848 15.717 -61.301 15.72 C-67.738 15.731 -74.174 15.761 -80.61 15.794 C-87.186 15.825 -93.762 15.838 -100.338 15.854 C-113.225 15.886 -126.113 15.936 -139 16 C-139 15.67 -139 15.34 -139 15 C-137.782 14.99 -136.564 14.979 -135.309 14.969 C-123.804 14.871 -112.299 14.768 -100.794 14.661 C-94.88 14.606 -88.966 14.552 -83.052 14.503 C-77.339 14.455 -71.627 14.402 -65.915 14.347 C-63.74 14.327 -61.566 14.308 -59.392 14.291 C-56.335 14.267 -53.279 14.237 -50.223 14.205 C-49.333 14.2 -48.444 14.194 -47.527 14.188 C-41.638 14.12 -35.85 13.677 -30 13 C-30.485 12.576 -30.969 12.152 -31.469 11.715 C-33 10 -33 10 -33.5 6.562 C-33 3 -33 3 -30.938 0.688 C-21.63 -4.66 -9.669 -4.64 0 0 Z " fill="#141414" transform="translate(143,260)"/>
<path d="M0 0 C3.255 1.378 4.872 2.787 6.883 5.676 C7.405 6.414 7.927 7.153 8.465 7.914 C9.013 8.705 9.561 9.497 10.125 10.312 C11.293 11.967 12.462 13.621 13.633 15.273 C14.494 16.491 14.494 16.491 15.372 17.733 C17.504 20.702 19.738 23.567 22 26.438 C32.433 39.883 41.591 54.322 51.004 68.488 C51.797 69.654 51.797 69.654 52.606 70.842 C54 73 54 73 54.937 74.935 C55.81 76.863 55.81 76.863 58 79 C61.386 79.748 64.576 79.375 68 79 C69.154 78.874 70.307 78.748 71.496 78.618 C75.339 78.149 79.168 77.616 83 77.062 C84.335 76.878 85.669 76.693 87.004 76.51 C93.183 75.89 93.183 75.89 99 74 C80.616 38.512 80.616 38.512 59.648 4.547 C58 2 58 2 58 0 C58.66 0 59.32 0 60 0 C61.182 1.515 61.182 1.515 62.512 3.68 C63.014 4.493 63.517 5.306 64.035 6.144 C64.58 7.045 65.126 7.946 65.688 8.875 C66.26 9.812 66.832 10.75 67.422 11.716 C79.385 31.423 90.568 51.445 101 72 C105.788 70.322 107.888 67.987 110.688 63.875 C112.079 61.865 113.497 59.932 115 58 C115.66 58 116.32 58 117 58 C117.375 57.169 117.375 57.169 117.758 56.32 C119.218 53.593 120.956 51.301 122.875 48.875 C123.553 48.006 124.231 47.137 124.93 46.242 C126.898 44.11 128.336 43.063 131 42 C130.67 43.32 130.34 44.64 130 46 C130.454 45.505 130.907 45.01 131.375 44.5 C133 43 133 43 135 43 C137.429 49.286 137.429 49.286 136 53 C135.01 50.69 134.02 48.38 133 46 C127.473 51.875 122.274 57.842 117.375 64.25 C110.371 73.31 103.754 79.983 91.93 81.724 C90.508 81.895 89.085 82.054 87.66 82.203 C86.511 82.333 86.511 82.333 85.338 82.466 C83.729 82.646 82.12 82.821 80.51 82.99 C78.07 83.249 75.634 83.53 73.197 83.812 C71.623 83.986 70.048 84.158 68.473 84.328 C67.757 84.411 67.041 84.495 66.303 84.58 C61.075 85.111 56.195 84.754 51 84 C51.495 82.515 51.495 82.515 52 81 C52.99 80.67 53.98 80.34 55 80 C49.483 70.961 43.798 62.142 37.574 53.574 C34.767 49.704 32.071 45.761 29.375 41.812 C23.765 33.625 18.002 25.593 11.949 17.727 C11.22 16.777 10.49 15.827 9.739 14.848 C8.258 12.923 6.773 11.001 5.282 9.083 C4.261 7.756 4.261 7.756 3.219 6.402 C2.599 5.603 1.98 4.804 1.342 3.98 C0 2 0 2 0 0 Z " fill="#212121" transform="translate(76,3)"/>
<path d="M0 0 C2.164 3.246 2.376 4.243 2 8 C1.34 8.99 0.68 9.98 0 11 C-0.66 11 -1.32 11 -2 11 C-2 11.66 -2 12.32 -2 13 C1.96 13 5.92 13 10 13 C10 13.66 10 14.32 10 15 C9.071 14.965 8.141 14.93 7.184 14.895 C-0.505 14.441 -0.505 14.441 -7.75 16.5 C-14.378 19.559 -20.428 18.419 -27.125 16 C-28.756 15.349 -30.384 14.688 -32 14 C-31.34 13.67 -30.68 13.34 -30 13 C-30 12.34 -30 11.68 -30 11 C-30.66 11 -31.32 11 -32 11 C-32.33 14.96 -32.66 18.92 -33 23 C-33.33 23 -33.66 23 -34 23 C-34.88 16.288 -35.114 9.766 -35 3 C-34.34 3 -33.68 3 -33 3 C-32.75 2.376 -32.5 1.752 -32.242 1.109 C-30.354 -2.098 -28.149 -2.452 -24.691 -3.457 C-16.031 -5.204 -7.698 -4.585 0 0 Z " fill="#1B1B1B" transform="translate(272,261)"/>
<path d="M0 0 C0.66 0 1.32 0 2 0 C2.902 4.059 3.15 8.044 3.25 12.188 C3.276 13.212 3.302 14.237 3.328 15.293 C2.943 18.47 2.409 19.017 0 21 C-1.834 21.796 -1.834 21.796 -3.879 22.395 C-5.007 22.74 -5.007 22.74 -6.158 23.092 C-6.952 23.33 -7.745 23.568 -8.562 23.812 C-20.288 27.202 -20.288 27.202 -29.27 34.879 C-30.15 37.437 -30.037 39.138 -29.688 41.812 C-29.579 42.683 -29.471 43.553 -29.359 44.449 C-29.241 45.291 -29.122 46.133 -29 47 C-28.902 47.728 -28.804 48.457 -28.703 49.207 C-28.482 50.807 -28.243 52.404 -28 54 C-27.438 53.792 -26.876 53.585 -26.297 53.371 C-17.44 50.125 -8.542 46.999 0.371 43.911 C2.126 43.303 3.88 42.693 5.633 42.081 C8.128 41.213 10.626 40.355 13.125 39.5 C14.271 39.099 14.271 39.099 15.44 38.69 C17.275 38.069 19.136 37.527 21 37 C21.66 37.33 22.32 37.66 23 38 C16.26 41.187 9.4 43.643 2.312 45.938 C-5.677 48.554 -13.613 51.243 -21.488 54.188 C-24 55 -24 55 -27 55 C-26.316 57.405 -25.605 59.796 -24.875 62.188 C-24.687 62.861 -24.499 63.535 -24.305 64.229 C-22.509 69.98 -19.69 73.06 -14.236 75.928 C-8.531 78.372 -2.631 78.749 3.5 79.188 C4.513 79.269 5.526 79.351 6.57 79.436 C9.046 79.634 11.523 79.822 14 80 C14 81.333 14 82.667 14 84 C1.052 84.427 -12.618 84.543 -22.75 75.562 C-26.691 70.38 -29 62.449 -29 56 C-29.897 56.495 -29.897 56.495 -30.812 57 C-33 58 -33 58 -36 58 C-36.66 59.32 -37.32 60.64 -38 62 C-39.32 61.34 -40.64 60.68 -42 60 C-41.67 58.68 -41.34 57.36 -41 56 C-39.68 56 -38.36 56 -37 56 C-34.664 55.688 -32.33 55.358 -30 55 C-30.3 54.143 -30.601 53.286 -30.91 52.402 C-34.888 40.442 -34.888 40.442 -33 35 C-29.621 30.362 -26.749 27.915 -21.5 25.375 C-20.898 25.083 -20.296 24.791 -19.675 24.49 C-14.429 22.026 -9.034 20.276 -3.449 18.727 C-1.075 18.234 -1.075 18.234 0 17 C0.073 14.137 0.092 11.299 0.062 8.438 C0.058 7.631 0.053 6.825 0.049 5.994 C0.037 3.996 0.019 1.998 0 0 Z " fill="#050505" transform="translate(255,63)"/>
<path d="M0 0 C1.689 2.533 2.699 4.541 3.777 7.34 C4.12 8.223 4.463 9.107 4.816 10.017 C5.186 10.981 5.556 11.944 5.938 12.938 C6.75 15.034 7.562 17.13 8.375 19.227 C8.803 20.333 9.231 21.439 9.672 22.579 C11.451 27.161 13.253 31.733 15.055 36.305 C19.497 47.574 23.886 58.862 28.215 70.175 C30.433 75.963 32.679 81.738 34.965 87.5 C35.213 88.128 35.462 88.756 35.718 89.403 C36.918 92.433 38.123 95.462 39.334 98.488 C41.884 104.917 44.157 111.332 46 118 C45.01 118.33 44.02 118.66 43 119 C36.953 104.273 30.996 89.52 25.196 74.694 C20.633 63.039 15.985 51.42 11.326 39.803 C9.415 35.04 7.511 30.274 5.609 25.508 C4.779 23.428 3.949 21.349 3.118 19.269 C2.584 17.931 2.051 16.593 1.517 15.255 C0.779 13.404 0.04 11.554 -0.699 9.703 C-1.331 8.12 -1.331 8.12 -1.975 6.505 C-2.939 4.059 -2.939 4.059 -4 2 C-2.68 1.34 -1.36 0.68 0 0 Z " fill="#FFFFFF" transform="translate(180,80)"/>
<path d="M0 0 C16.165 -0.859 16.165 -0.859 23 3 C25.747 6.724 27.456 10.71 29.163 14.974 C30.586 18.419 32.268 21.731 33.938 25.062 C34.225 25.662 34.513 26.261 34.81 26.878 C37.774 32.92 41.371 38.566 44.928 44.273 C48.076 49.344 51.154 54.46 54.25 59.562 C54.617 60.167 54.984 60.772 55.363 61.396 C61.945 72.242 68.486 83.112 75 94 C77.082 97.48 79.166 100.959 81.25 104.438 C81.709 105.206 82.169 105.974 82.642 106.766 C86.014 112.393 89.447 117.982 92.89 123.567 C96.817 129.947 100.69 136.362 104.573 142.771 C113.798 157.998 113.798 157.998 123.223 173.102 C123.698 173.858 124.173 174.615 124.662 175.395 C125.623 176.925 126.592 178.451 127.568 179.973 C128.263 181.088 128.263 181.088 128.973 182.227 C129.388 182.882 129.803 183.538 130.231 184.213 C131 186 131 186 130 189 C128.457 186.542 126.916 184.084 125.375 181.625 C124.948 180.946 124.522 180.266 124.082 179.566 C120.65 174.086 117.314 168.552 114 163 C113.024 161.368 112.047 159.737 111.07 158.105 C110.589 157.302 110.108 156.498 109.613 155.671 C105.096 148.13 100.549 140.612 95.926 133.137 C93.758 129.606 91.626 126.056 89.5 122.5 C86.822 118.022 84.122 113.561 81.375 109.125 C77.356 102.62 73.429 96.06 69.5 89.5 C65.045 82.06 60.568 74.639 56.004 67.266 C52.867 62.154 49.784 57.009 46.711 51.859 C44.121 47.519 41.51 43.196 38.844 38.902 C37.811 37.228 36.78 35.552 35.75 33.875 C35.247 33.058 34.744 32.24 34.226 31.398 C30.44 25.094 27.418 18.605 25.024 11.646 C23.822 8.529 22.99 6.554 20.008 4.886 C15.447 3.287 10.719 2.467 5.938 1.812 C4.812 1.654 3.687 1.495 2.527 1.332 C1.276 1.168 1.276 1.168 0 1 C0 0.67 0 0.34 0 0 Z " fill="#000000" transform="translate(3,62)"/>
<path d="M0 0 C2.397 0.283 4.792 0.576 7.188 0.875 C7.861 0.954 8.535 1.032 9.229 1.113 C13.129 1.608 16.529 2.134 20 4 C21.606 6.534 21.606 6.534 22.973 9.707 C23.48 10.851 23.987 11.995 24.51 13.174 C25.022 14.375 25.535 15.575 26.062 16.812 C27.089 19.176 28.121 21.537 29.16 23.895 C29.835 25.47 29.835 25.47 30.524 27.077 C32.045 30.089 33.846 32.417 36 35 C37.021 36.989 38.019 38.991 39 41 C40.656 43.845 42.392 46.639 44.125 49.438 C45.122 51.057 46.118 52.677 47.113 54.297 C47.605 55.097 48.097 55.897 48.604 56.721 C50.529 59.863 52.423 63.023 54.312 66.188 C64.086 82.532 74.064 98.754 84 115 C90.05 124.891 96.093 134.786 102.125 144.688 C102.719 145.662 103.313 146.637 103.924 147.641 C107.734 153.901 111.523 160.174 115.249 166.485 C116.65 168.842 118.069 171.091 119.738 173.27 C121 175 121 175 121 177 C120.34 177 119.68 177 119 177 C117.668 175.348 117.668 175.348 116.188 173.062 C115.466 171.966 115.466 171.966 114.73 170.848 C113.351 168.578 112.058 166.301 110.785 163.973 C107.481 157.98 103.856 152.189 100.25 146.375 C98.809 144.044 97.369 141.711 95.93 139.379 C95.245 138.269 94.56 137.159 93.854 136.016 C91.67 132.463 89.511 128.895 87.375 125.312 C83.684 119.122 79.94 112.966 76.188 106.812 C71.638 99.351 67.113 91.874 62.625 84.375 C54.47 70.654 54.47 70.654 45.812 57.25 C43.494 53.819 41.487 50.309 39.527 46.664 C38.344 44.601 37.123 42.631 35.816 40.648 C34.98 39.371 34.146 38.092 33.312 36.812 C32.88 36.151 32.448 35.489 32.003 34.808 C29.43 30.724 27.351 26.647 25.516 22.18 C25.104 21.187 24.692 20.195 24.268 19.173 C23.48 17.221 22.727 15.255 22.015 13.275 C19.885 7.969 19.885 7.969 15.381 4.726 C12.58 3.944 9.879 3.399 7 3 C6.255 2.874 5.51 2.749 4.742 2.619 C3.167 2.369 1.584 2.176 0 2 C0 1.34 0 0.68 0 0 Z " fill="#000000" transform="translate(4,73)"/>
<path d="M0 0 C2.86 2.304 3.86 4.167 4.469 7.781 C4.723 10.523 4.904 13.248 5 16 C4.397 15.651 3.793 15.301 3.172 14.941 C2.373 14.486 1.573 14.031 0.75 13.562 C-0.039 13.11 -0.828 12.658 -1.641 12.191 C-7.828 9.067 -15.17 8.969 -21.801 10.754 C-26.315 12.459 -29.946 14.113 -33 18 C-34.703 13.631 -36.116 9.608 -37 5 C-32.535 4.283 -28.069 3.571 -23.603 2.864 C-22.085 2.623 -20.567 2.38 -19.049 2.136 C-16.863 1.785 -14.676 1.439 -12.488 1.094 C-11.814 0.984 -11.14 0.875 -10.445 0.762 C-6.94 0.214 -3.546 -0.296 0 0 Z " fill="#FFFFFF" transform="translate(248,42)"/>
<path d="M0 0 C1.526 0.454 3.053 0.907 4.625 1.375 C14.226 3.816 24.15 4.268 34 5 C34.532 6.266 35.05 7.538 35.562 8.812 C35.853 9.52 36.143 10.228 36.441 10.957 C37 13 37 13 36 16 C34.969 15.34 33.938 14.68 32.875 14 C25.493 10.315 16.414 10.968 8.688 13.375 C5.665 14.4 5.665 14.4 4 17 C2.68 11.39 1.36 5.78 0 0 Z " fill="#FFFFFF" transform="translate(236,142)"/>
<path d="M0 0 C2.748 1.749 4.362 2.8 5.75 5.75 C5.132 8.915 4.159 10.368 1.812 12.562 C-3.273 14.534 -9.083 14.949 -14.262 12.988 C-16.53 11.599 -18.041 10.11 -19.375 7.812 C-19.174 4.496 -17.548 3.048 -15.25 0.75 C-10.248 -2.089 -5.306 -2.041 0 0 Z " fill="#FFFFFF" transform="translate(241.25,68.25)"/>
<path d="M0 0 C3.255 1.378 4.872 2.787 6.883 5.676 C7.405 6.414 7.927 7.153 8.465 7.914 C9.013 8.705 9.561 9.497 10.125 10.312 C11.293 11.967 12.462 13.621 13.633 15.273 C14.494 16.491 14.494 16.491 15.372 17.733 C17.504 20.702 19.738 23.567 22 26.438 C32.433 39.883 41.591 54.322 51.004 68.488 C51.526 69.266 52.048 70.043 52.585 70.844 C53.464 72.182 54.315 73.539 55.122 74.922 C56.168 76.769 56.168 76.769 58 79 C60.344 79.718 60.344 79.718 62.75 79.375 C63.549 79.321 64.348 79.267 65.172 79.211 C66.077 79.107 66.077 79.107 67 79 C67.33 79.66 67.66 80.32 68 81 C71.029 81.658 71.029 81.658 74 82 C70.225 84.415 66.286 84.472 61.938 84.688 C61.218 84.735 60.498 84.782 59.756 84.83 C56.51 85.014 54.113 85.038 51 84 C51.495 82.515 51.495 82.515 52 81 C52.99 80.67 53.98 80.34 55 80 C49.483 70.961 43.798 62.142 37.574 53.574 C34.767 49.704 32.071 45.761 29.375 41.812 C23.765 33.625 18.002 25.593 11.949 17.727 C11.22 16.777 10.49 15.827 9.739 14.848 C8.258 12.923 6.773 11.001 5.282 9.083 C4.261 7.756 4.261 7.756 3.219 6.402 C2.599 5.603 1.98 4.804 1.342 3.98 C0 2 0 2 0 0 Z " fill="#090909" transform="translate(76,3)"/>
<path d="M0 0 C0 0.66 0 1.32 0 2 C-0.56 2.055 -1.12 2.111 -1.697 2.168 C-4.236 2.421 -6.774 2.679 -9.312 2.938 C-10.634 3.068 -10.634 3.068 -11.982 3.201 C-13.254 3.332 -13.254 3.332 -14.551 3.465 C-15.721 3.583 -15.721 3.583 -16.915 3.703 C-19.189 3.963 -19.189 3.963 -22 5 C-21.676 5.987 -21.676 5.987 -21.345 6.993 C-13.278 31.632 -5.102 56.879 -4 83 C-4.66 83 -5.32 83 -6 83 C-6.115 82.233 -6.23 81.465 -6.348 80.675 C-10.298 54.686 -16.358 29.867 -25 5 C-31.6 5 -38.2 5 -45 5 C-43.68 7.97 -42.36 10.94 -41 14 C-41.33 14.66 -41.66 15.32 -42 16 C-42.864 14.213 -43.716 12.42 -44.562 10.625 C-45.038 9.627 -45.514 8.63 -46.004 7.602 C-46.497 6.314 -46.497 6.314 -47 5 C-46.67 4.34 -46.34 3.68 -46 3 C-43.352 2.605 -40.79 2.338 -38.125 2.148 C-37.327 2.085 -36.528 2.021 -35.705 1.955 C-34.008 1.821 -32.309 1.692 -30.611 1.567 C-28.038 1.378 -25.466 1.175 -22.895 0.969 C-21.242 0.84 -19.59 0.713 -17.938 0.586 C-17.178 0.527 -16.418 0.467 -15.635 0.406 C-10.411 0.026 -5.238 -0.049 0 0 Z " fill="#000000" transform="translate(220,201)"/>
<path d="M0 0 C3.892 3.462 6.257 7.441 8.875 11.875 C13.207 19.091 17.652 26.223 22.188 33.312 C26.436 39.962 30.646 46.627 34.762 53.359 C42.48 65.953 50.373 78.443 58.25 90.938 C58.727 91.694 59.204 92.451 59.695 93.231 C62.163 97.134 64.658 101.019 67.188 104.883 C67.702 105.669 68.216 106.456 68.745 107.266 C69.726 108.763 70.711 110.257 71.7 111.748 C75 116.78 75 116.78 75 119 C74.34 119 73.68 119 73 119 C71.507 116.971 71.507 116.971 69.77 114.137 C69.131 113.104 68.492 112.07 67.834 111.006 C67.167 109.911 66.5 108.816 65.812 107.688 C64.507 105.566 63.201 103.445 61.895 101.324 C61.245 100.266 60.596 99.209 59.927 98.119 C57.545 94.263 55.109 90.443 52.668 86.624 C50.009 82.441 47.412 78.22 44.812 74 C37.389 61.98 29.855 50.031 22.25 38.125 C19.191 33.33 16.229 28.479 13.266 23.625 C11.572 20.885 9.82 18.189 8.047 15.5 C7.29 14.35 7.29 14.35 6.519 13.176 C5.52 11.663 4.516 10.153 3.505 8.648 C3.05 7.957 2.594 7.266 2.125 6.555 C1.715 5.941 1.305 5.327 0.883 4.695 C0 3 0 3 0 0 Z " fill="#000000" transform="translate(5,130)"/>
<path d="M0 0 C0.33 0 0.66 0 1 0 C1.897 4.039 2.205 8.064 2.375 12.188 C2.424 13.212 2.473 14.237 2.523 15.293 C2 18 2 18 -0.074 19.719 C-3.396 21.173 -6.715 22.265 -10.188 23.312 C-16.018 25.136 -20.95 27.422 -26.047 30.863 C-28 32 -28 32 -31 32 C-31.533 30.254 -32.051 28.503 -32.562 26.75 C-32.853 25.775 -33.143 24.801 -33.441 23.797 C-33.992 21.038 -33.938 19.609 -33 17 C-32.113 17.66 -31.226 18.32 -30.312 19 C-24.899 22.087 -19.033 21.745 -13 21 C-8.752 19.71 -6.481 17.813 -4.188 13.938 C-3.796 12.968 -3.404 11.999 -3 11 C-2.34 10.01 -1.68 9.02 -1 8 C-0.549 5.951 -0.549 5.951 -0.375 3.812 C-0.189 1.925 -0.189 1.925 0 0 Z " fill="#FFFFFF" transform="translate(254,62)"/>
<path d="M0 0 C2.65 2.514 3.238 3.719 3.438 7.312 C0.451 10.395 -1.773 11.641 -6 11.812 C-10.484 11.596 -13.181 10.364 -16.562 7.312 C-18.062 4.75 -18.062 4.75 -18.562 2.312 C-14.526 -3.742 -6.013 -2.848 0 0 Z " fill="#FFFFFF" transform="translate(72.5625,91.6875)"/>
<path d="M0 0 C3.062 2.062 3.062 2.062 5 4 C3.63 7.161 3.011 7.993 0 10 C-5.69 11.339 -9.552 10.755 -15 9 C-17 7 -17 7 -17.062 4.562 C-16 2 -16 2 -13 0.125 C-8.597 -1.461 -4.473 -1.271 0 0 Z " fill="#FFFFFF" transform="translate(263,167)"/>
<path d="M0 0 C2.562 1.75 2.562 1.75 3.438 3.938 C3.479 4.536 3.52 5.134 3.562 5.75 C-0.314 9.134 -3.031 9.205 -8.02 9.035 C-11.207 8.659 -13.116 7.994 -15.438 5.75 C-15.75 3.062 -15.75 3.062 -15.438 0.75 C-10.553 -2.506 -5.231 -1.902 0 0 Z " fill="#FFFFFF" transform="translate(125.4375,178.25)"/>
<path d="M0 0 C-2.421 2.421 -3.62 2.481 -6.953 3.035 C-8.462 3.288 -8.462 3.288 -10.001 3.547 C-11.073 3.717 -12.145 3.887 -13.25 4.062 C-14.336 4.242 -15.422 4.421 -16.54 4.605 C-23.484 5.715 -30.255 6.46 -37.293 6.531 C-40.748 7.13 -42.455 8.655 -45 11 C-43.543 7.599 -41.825 5.395 -39 3 C-36.258 2.163 -36.258 2.163 -33.125 1.699 C-31.974 1.527 -30.823 1.355 -29.637 1.178 C-28.437 1.016 -27.236 0.854 -26 0.688 C-24.246 0.416 -24.246 0.416 -22.457 0.139 C-14.774 -0.957 -7.694 -1.003 0 0 Z " fill="#2C2C2C" transform="translate(249,40)"/>
<path d="M0 0 C0.866 0.021 1.733 0.041 2.625 0.062 C4.5 0.062 6.375 0.045 8.25 0 C10.625 0.062 10.625 0.062 11.625 1.062 C11.723 2.56 11.755 4.062 11.75 5.562 C11.753 6.377 11.755 7.192 11.758 8.031 C11.625 10.062 11.625 10.062 10.625 11.062 C8.959 11.106 7.291 11.102 5.625 11.062 C3.75 11.062 1.875 11.08 0 11.125 C-2.375 11.062 -2.375 11.062 -3.375 10.062 C-3.473 8.565 -3.505 7.063 -3.5 5.562 C-3.503 4.748 -3.505 3.933 -3.508 3.094 C-3.314 0.126 -2.985 0.079 0 0 Z " fill="#303030" transform="translate(312.375,269.9375)"/>
<path d="M0 0 C3.125 1.312 3.125 1.312 5 3 C5 3.99 5 4.98 5 6 C0.571 8.953 -4.11 9.472 -9.367 8.613 C-11.262 8.138 -13.134 7.577 -15 7 C-15.33 5.68 -15.66 4.36 -16 3 C-10.73 -0.329 -6.061 -0.756 0 0 Z " fill="#FFFFFF" transform="translate(133,268)"/>
<path d="M0 0 C0.656 2.078 0.656 2.078 1 4 C-5.201 6.595 -10.392 7.784 -17 6 C-19.562 4.438 -19.562 4.438 -21 3 C-20 0 -20 0 -18 -1.188 C-12.026 -2.805 -5.616 -2.808 0 0 Z " fill="#FFFFFF" transform="translate(266,270)"/>
<path d="M0 0 C0.66 0 1.32 0 2 0 C8.194 14.891 13.497 29.698 16.875 45.5 C17.198 46.986 17.198 46.986 17.528 48.502 C18.795 54.745 19.267 60.634 19 67 C17.042 64.063 16.665 62.938 16.211 59.59 C16.078 58.695 15.946 57.8 15.809 56.878 C15.666 55.908 15.523 54.937 15.375 53.938 C12.632 36.834 7.423 20.13 0.812 4.125 C0 2 0 2 0 0 Z " fill="#000000" transform="translate(169,218)"/>
<path d="M0 0 C0 0.66 0 1.32 0 2 C1.98 2 3.96 2 6 2 C3.139 4.861 -0.017 4.762 -3.875 5.188 C-4.634 5.275 -5.392 5.362 -6.174 5.453 C-12.547 6.11 -18.649 5.906 -25 5 C-23 2 -23 2 -20.059 1.27 C-13.314 0.418 -6.799 -0.234 0 0 Z " fill="#252525" transform="translate(168,80)"/>
<path d="M0 0 C0.66 0 1.32 0 2 0 C5.118 12.627 8.135 25.224 9.875 38.125 C9.995 39.005 10.114 39.885 10.238 40.792 C10.878 45.9 11.107 50.852 11 56 C10.34 55.67 9.68 55.34 9 55 C8.577 53.156 8.577 53.156 8.324 50.715 C8.169 49.347 8.169 49.347 8.011 47.951 C7.904 46.957 7.798 45.962 7.688 44.938 C6.542 35.182 4.834 25.661 2.714 16.072 C1.534 10.716 0.58 5.455 0 0 Z " fill="#000000" transform="translate(227,208)"/>
<path d="M0 0 C0.66 0 1.32 0 2 0 C1.814 0.907 1.629 1.815 1.438 2.75 C0.857 6.532 0.857 6.532 2 10 C3.164 10.362 3.164 10.362 4.352 10.73 C7.994 12.476 8.593 14.417 10.25 18.062 C10.84 19.327 11.432 20.59 12.027 21.852 C12.34 22.522 12.654 23.193 12.976 23.884 C15.141 28.358 17.576 32.7 19.979 37.049 C22.28 41.308 23.841 45.296 25 50 C24.34 50 23.68 50 23 50 C22.678 49.311 22.357 48.622 22.025 47.911 C13.534 27.536 13.534 27.536 0.801 9.871 C-1 8 -1 8 -1.312 4.875 C-1 2 -1 2 0 0 Z " fill="#000000" transform="translate(144,195)"/>
<path d="M0 0 C4.62 0 9.24 0 14 0 C14 1.98 14 3.96 14 6 C11.173 6.942 9.368 7.135 6.438 7.125 C5.26 7.129 5.26 7.129 4.059 7.133 C2 7 2 7 0 6 C0 4.02 0 2.04 0 0 Z " fill="#FFFFFF" transform="translate(228,59)"/>
<path d="M0 0 C2.429 6.286 2.429 6.286 1 10 C0.01 7.69 -0.98 5.38 -2 3 C-7.527 8.875 -12.729 14.84 -17.625 21.25 C-21.619 26.464 -25.746 30.995 -31 35 C-31.66 34.67 -32.32 34.34 -33 34 C-32.031 33.237 -31.061 32.474 -30.062 31.688 C-25.025 27.37 -21.104 22.183 -17 17 C-3.359 0 -3.359 0 0 0 Z " fill="#000000" transform="translate(211,46)"/>
<path d="M0 0 C4.379 0.52 8.688 1.057 13 2 C12.67 3.98 12.34 5.96 12 8 C10.375 7.859 8.75 7.712 7.125 7.562 C6.22 7.481 5.315 7.4 4.383 7.316 C2 7 2 7 0 6 C0 4.02 0 2.04 0 0 Z " fill="#FFFFFF" transform="translate(61,81)"/>
<path d="M0 0 C4.706 0.706 4.706 0.706 6 2 C6.188 5.438 6.188 5.438 6 9 C5.34 9.66 4.68 10.32 4 11 C1.375 10.625 1.375 10.625 -1 10 C-1.027 8.521 -1.046 7.042 -1.062 5.562 C-1.074 4.739 -1.086 3.915 -1.098 3.066 C-1 1 -1 1 0 0 Z " fill="#000000" transform="translate(302,270)"/>
<path d="M0 0 C2.688 0.312 2.688 0.312 5 1 C5.33 1.99 5.66 2.98 6 4 C3.03 3.505 3.03 3.505 0 3 C0 3.66 0 4.32 0 5 C2.97 5.495 2.97 5.495 6 6 C6 7.65 6 9.3 6 11 C3.69 11.33 1.38 11.66 -1 12 C-1.66 10.68 -2.32 9.36 -3 8 C-0.69 8.66 1.62 9.32 4 10 C3.15 7.733 3.15 7.733 0.5 7.062 C-0.325 6.712 -1.15 6.361 -2 6 C-2.33 5.01 -2.66 4.02 -3 3 C-1.812 1.438 -1.812 1.438 0 0 Z " fill="#000000" transform="translate(290,269)"/>
<path d="M0 0 C3.96 0 7.92 0 12 0 C12 1.65 12 3.3 12 5 C8.04 5 4.08 5 0 5 C0 3.35 0 1.7 0 0 Z " fill="#FFFFFF" transform="translate(251,159)"/>
<path d="M0 0 C4.29 0 8.58 0 13 0 C13 1.32 13 2.64 13 4 C8.527 5.491 4.473 5.491 0 4 C0 2.68 0 1.36 0 0 Z " fill="#FFFFFF" transform="translate(250,262)"/>
<path d="M0 0 C3.96 0 7.92 0 12 0 C12 1.32 12 2.64 12 4 C8.499 5.167 5.673 5.134 2 5 C1.34 4.67 0.68 4.34 0 4 C0 2.68 0 1.36 0 0 Z " fill="#FFFFFF" transform="translate(122,262)"/>
<path d="M0 0 C3.63 0.33 7.26 0.66 11 1 C11 2.65 11 4.3 11 6 C7.37 5.67 3.74 5.34 0 5 C0 3.35 0 1.7 0 0 Z " fill="#FFFFFF" transform="translate(115,170)"/>
<path d="M0 0 C-0.33 0.99 -0.66 1.98 -1 3 C-10.41 4.333 -10.41 4.333 -15 3 C-12.415 1.276 -10.962 0.553 -8.062 -0.188 C-7.393 -0.367 -6.724 -0.546 -6.035 -0.73 C-3.753 -1.033 -2.18 -0.688 0 0 Z " fill="#4B4B4B" transform="translate(69,63)"/>
<path d="M0 0 C-3.57 3.008 -3.57 3.008 -7.438 2.938 C-11.692 3.012 -13.008 4.098 -16 7 C-12.399 -1.403 -8.367 -1.469 0 0 Z " fill="#737373" transform="translate(220,44)"/>
<path d="M0 0 C0.99 0.33 1.98 0.66 3 1 C2.578 1.436 2.157 1.871 1.723 2.32 C-1.764 6.11 -3.739 8.646 -4 14 C-6 12 -6 12 -6.438 9.188 C-5.863 5.005 -4.147 3.686 -1 1 C-0.67 0.67 -0.34 0.34 0 0 Z " fill="#FFFFFF" transform="translate(223,57)"/>
<path d="M0 0 C0.849 5.376 1.002 9.654 0 15 C-0.66 15 -1.32 15 -2 15 C-2 11.7 -2 8.4 -2 5 C-2.99 5 -3.98 5 -5 5 C-5 3 -5 3 -3.625 1.375 C-2 0 -2 0 0 0 Z " fill="#000000" transform="translate(287,88)"/>
<path d="M0 0 C1.145 0.248 1.145 0.248 2.312 0.5 C5.009 1.002 6.44 0.853 9 0 C9 0.66 9 1.32 9 2 C8.216 2.082 7.433 2.165 6.625 2.25 C3.853 2.728 3.853 2.728 2.688 5.062 C2.461 5.702 2.234 6.341 2 7 C0.68 6.34 -0.64 5.68 -2 5 C-1.125 1.125 -1.125 1.125 0 0 Z " fill="#000000" transform="translate(215,118)"/>
<path d="M0 0 C2.64 0 5.28 0 8 0 C6.55 3.791 4.848 7.387 3 11 C2.34 11 1.68 11 1 11 C1.498 7.265 1.875 5.188 4 2 C2.68 2 1.36 2 0 2 C0 1.34 0 0.68 0 0 Z " fill="#000000" transform="translate(325,270)"/>
<path d="M0 0 C0.33 0 0.66 0 1 0 C1.637 5.221 0.232 7.677 -2.809 11.68 C-3.202 12.115 -3.595 12.551 -4 13 C-4.33 13 -4.66 13 -5 13 C-5.6 7.002 -5.6 7.002 -3.922 4.199 C-2.562 2.562 -2.562 2.562 0 0 Z " fill="#FFFFFF" transform="translate(226,59)"/>
<path d="M0 0 C3.566 0.891 5.714 1.736 8.438 4.25 C10 7 10 7 9.75 10.312 C9.502 11.199 9.255 12.086 9 13 C8.745 12.426 8.49 11.853 8.227 11.262 C6.872 8.764 5.287 6.909 3.375 4.812 C0 1.1 0 1.1 0 0 Z " fill="#FFFFFF" transform="translate(243,57)"/>
<path d="M0 0 C3.125 0.438 3.125 0.438 5.5 2.625 C7.219 5.6 7.509 7.074 7.125 10.438 C2.25 5.688 2.25 5.688 1.125 3.438 C-1.904 2.78 -1.904 2.78 -4.875 2.438 C-2.875 0.438 -2.875 0.438 0 0 Z " fill="#000000" transform="translate(245.875,37.5625)"/>
<path d="M0 0 C0.516 0.371 1.031 0.743 1.562 1.125 C1.233 1.785 0.903 2.445 0.562 3.125 C-6.849 4.419 -6.849 4.419 -9.438 3.125 C-9.438 2.465 -9.438 1.805 -9.438 1.125 C-3.037 -1.09 -3.037 -1.09 0 0 Z " fill="#383838" transform="translate(109.4375,154.875)"/>
<path d="M0 0 C2.64 0 5.28 0 8 0 C8 0.66 8 1.32 8 2 C8.99 2.33 9.98 2.66 11 3 C9.564 3.196 8.126 3.381 6.688 3.562 C5.887 3.667 5.086 3.771 4.262 3.879 C2 4 2 4 -1 3 C-0.67 2.01 -0.34 1.02 0 0 Z " fill="#232323" transform="translate(119,85)"/>
<path d="M0 0 C-0.33 0.99 -0.66 1.98 -1 3 C-7.435 3.495 -7.435 3.495 -14 4 C-13.67 3.01 -13.34 2.02 -13 1 C-8.624 0.407 -4.425 -0.138 0 0 Z " fill="#636363" transform="translate(235,40)"/>
<path d="M0 0 C4.74 4.253 4.74 4.253 5.938 7.688 C5.958 8.451 5.979 9.214 6 10 C5.34 10.66 4.68 11.32 4 12 C-0.571 4.714 -0.571 4.714 0 0 Z " fill="#FFFFFF" transform="translate(243,60)"/>
<path d="M0 0 C2.051 0.033 4.102 0.065 6.152 0.098 C6.152 0.758 6.152 1.418 6.152 2.098 C7.142 2.428 8.132 2.758 9.152 3.098 C7.564 4.686 5.905 4.306 3.715 4.348 C2.912 4.373 2.109 4.399 1.281 4.426 C0.579 4.317 -0.124 4.209 -0.848 4.098 C-1.508 3.108 -2.168 2.118 -2.848 1.098 C-1.848 0.098 -1.848 0.098 0 0 Z " fill="#000000" transform="translate(111.84765625,85.90234375)"/>
<path d="M0 0 C-0.482 0.398 -0.964 0.797 -1.461 1.207 C-2.408 2.002 -2.408 2.002 -3.375 2.812 C-4.001 3.335 -4.628 3.857 -5.273 4.395 C-7.222 6.082 -7.222 6.082 -9 9 C-10 7 -10 7 -9.375 4.562 C-7.139 0.396 -4.611 -1.537 0 0 Z " fill="#FFFFFF" transform="translate(60,80)"/>
<path d="M0 0 C4.875 2.75 4.875 2.75 6 5 C6.04 7 6.043 9 6 11 C5.01 11.495 5.01 11.495 4 12 C3.567 10.422 3.567 10.422 3.125 8.812 C2.228 5.772 1.236 2.913 0 0 Z " fill="#FFFFFF" transform="translate(76,82)"/>
<path d="M0 0 C0 1.65 0 3.3 0 5 C-0.99 5.33 -1.98 5.66 -3 6 C-3.33 6.99 -3.66 7.98 -4 9 C-4.33 9 -4.66 9 -5 9 C-5.25 6.75 -5.25 6.75 -5 4 C-1.649 0 -1.649 0 0 0 Z " fill="#FFFFFF" transform="translate(249,161)"/>
<path d="M0 0 C6.094 2.141 6.094 2.141 8 5 C7.688 7.688 7.688 7.688 7 10 C6.773 9.464 6.546 8.928 6.312 8.375 C4.566 5.215 2.36 2.732 0 0 Z " fill="#FFFFFF" transform="translate(265,158)"/>
<path d="M0 0 C0.99 0.33 1.98 0.66 3 1 C2.01 1.33 1.02 1.66 0 2 C-0.33 2.99 -0.66 3.98 -1 5 C-1.99 5.495 -1.99 5.495 -3 6 C-3.66 6.99 -4.32 7.98 -5 9 C-5.312 6.75 -5.312 6.75 -5 4 C-2.688 1.625 -2.688 1.625 0 0 Z " fill="#FFFFFF" transform="translate(246,158)"/>
<path d="M0 0 C0.33 0.99 0.66 1.98 1 3 C-0.404 5.264 -2.197 7.021 -4 9 C-4.812 7.312 -4.812 7.312 -5 5 C-2.562 2.25 -2.562 2.25 0 0 Z " fill="#FFFFFF" transform="translate(59,82)"/>
<path d="M0 0 C2.31 0.33 4.62 0.66 7 1 C7 1.66 7 2.32 7 3 C4.36 3.33 1.72 3.66 -1 4 C-0.67 2.68 -0.34 1.36 0 0 Z " fill="#393939" transform="translate(244,141)"/>
<path d="M0 0 C0.99 0.33 1.98 0.66 3 1 C3 2.98 3 4.96 3 7 C2.01 7 1.02 7 0 7 C0 4.69 0 2.38 0 0 Z " fill="#FFFFFF" transform="translate(303,272)"/>
<path d="M0 0 C2 1.188 2 1.188 4 3 C4.25 5.688 4.25 5.688 4 8 C2 6.812 2 6.812 0 5 C-0.25 2.312 -0.25 2.312 0 0 Z " fill="#FFFFFF" transform="translate(265,161)"/>
<path d="M0 0 C1.5 1.062 1.5 1.062 3 3 C3.188 6.688 3.188 6.688 3 10 C0.646 7.449 0.017 6.29 -0.188 2.75 C-0.126 1.843 -0.064 0.935 0 0 Z " fill="#FFFFFF" transform="translate(75,86)"/>
<path d="M0 0 C0.66 0.33 1.32 0.66 2 1 C1.67 2.32 1.34 3.64 1 5 C-0.65 4.67 -2.3 4.34 -4 4 C-3.67 3.01 -3.34 2.02 -3 1 C-2.01 0.67 -1.02 0.34 0 0 Z " fill="#0C0C0C" transform="translate(242,64)"/>
<path d="M0 0 C0.99 0.33 1.98 0.66 3 1 C2.196 1.619 1.391 2.238 0.562 2.875 C-2.039 4.742 -2.039 4.742 -3 7 C-3.66 7 -4.32 7 -5 7 C-4.619 4.237 -4.164 3.159 -2.125 1.188 C-1.424 0.796 -0.722 0.404 0 0 Z " fill="#FFFFFF" transform="translate(110,169)"/>
<path d="M0 0 C2.438 0.75 2.438 0.75 5 2 C5.812 4.125 5.812 4.125 6 6 C5.01 6.495 5.01 6.495 4 7 C3.67 6.01 3.34 5.02 3 4 C2.01 3.34 1.02 2.68 0 2 C0 1.34 0 0.68 0 0 Z " fill="#FFFFFF" transform="translate(138,262)"/>
<path d="M0 0 C1.65 0.99 3.3 1.98 5 3 C4.67 4.32 4.34 5.64 4 7 C2 5.188 2 5.188 0 3 C0 2.01 0 1.02 0 0 Z " fill="#FFFFFF" transform="translate(264,264)"/>
<path d="M0 0 C0.33 0.99 0.66 1.98 1 3 C-0.375 4.5 -0.375 4.5 -2 6 C-2.66 6 -3.32 6 -4 6 C-3.688 4.125 -3.688 4.125 -3 2 C-2.01 1.34 -1.02 0.68 0 0 Z " fill="#FFFFFF" transform="translate(119,264)"/>
<path d="M0 0 C0 0.66 0 1.32 0 2 C-0.99 2.66 -1.98 3.32 -3 4 C-3.66 4.99 -4.32 5.98 -5 7 C-5.33 5.68 -5.66 4.36 -6 3 C-2.25 0 -2.25 0 0 0 Z " fill="#FFFFFF" transform="translate(246,262)"/>
<path d="M0 0 C2 1.812 2 1.812 4 4 C4 4.99 4 5.98 4 7 C3.01 6.67 2.02 6.34 1 6 C0.67 4.02 0.34 2.04 0 0 Z " fill="#FFFFFF" transform="translate(127,173)"/>
<path d="M0 0 C0.66 0 1.32 0 2 0 C1.602 2.886 1.21 3.822 -1.062 5.75 C-1.702 6.162 -2.341 6.575 -3 7 C-2.67 5.35 -2.34 3.7 -2 2 C-1.34 2 -0.68 2 0 2 C0 1.34 0 0.68 0 0 Z " fill="#FFFFFF" transform="translate(111,172)"/>
</svg>
