<?xml version="1.0" encoding="UTF-8"?>
<!-- Generator: visioncortex VTracer 0.6.4 -->
<svg version="1.1" xmlns="http://www.w3.org/2000/svg" width="378" height="327">
<path d="M0 0 C124.74 0 249.48 0 378 0 C378 107.91 378 215.82 378 327 C253.26 327 128.52 327 0 327 C0 219.09 0 111.18 0 0 Z " fill="#FEFEFE" transform="translate(0,0)"/>
<path d="M0 0 C0.99 0.33 1.98 0.66 3 1 C2.988 1.967 2.977 2.934 2.965 3.93 C2.913 11.377 3.088 18.594 4 26 C7.3 26.33 10.6 26.66 14 27 C15.354 50.081 16.444 73.173 17.464 96.271 C17.561 98.465 17.659 100.66 17.756 102.855 C18.618 122.233 19.372 141.612 20 161 C17.69 161.99 15.38 162.98 13 164 C12.67 171.92 12.34 179.84 12 188 C-8.46 188 -28.92 188 -50 188 C-50 184.37 -50 180.74 -50 177 C-50.66 177 -51.32 177 -52 177 C-52 180.63 -52 184.26 -52 188 C-72.13 188 -92.26 188 -113 188 C-113.33 179.75 -113.66 171.5 -114 163 C-116.97 162.67 -119.94 162.34 -123 162 C-123.03 157.521 -123.047 153.042 -123.062 148.562 C-123.071 147.322 -123.079 146.081 -123.088 144.803 C-123.105 138.279 -122.968 131.831 -122.541 125.32 C-121.91 115.177 -121.576 105.028 -121.246 94.871 C-121.18 92.9 -121.115 90.929 -121.049 88.958 C-120.877 83.83 -120.709 78.703 -120.541 73.576 C-120.368 68.319 -120.193 63.063 -120.018 57.807 C-119.676 47.538 -119.337 37.269 -119 27 C-116.03 26.34 -113.06 25.68 -110 25 C-109.197 17.329 -109.197 17.329 -109 9.625 C-109 6.543 -108.743 3.974 -108 1 C-106.02 1 -104.04 1 -102 1 C-97.571 8.286 -97.571 8.286 -97 13 C-95.054 13.591 -95.054 13.591 -93 14 C-92.67 13.67 -92.34 13.34 -92 13 C-89.043 12.911 -86.109 12.885 -83.152 12.902 C-81.823 12.904 -81.823 12.904 -80.466 12.907 C-77.623 12.912 -74.78 12.925 -71.938 12.938 C-70.015 12.943 -68.092 12.947 -66.17 12.951 C-61.447 12.962 -56.723 12.979 -52 13 C-52 16.3 -52 19.6 -52 23 C-51.01 22.505 -51.01 22.505 -50 22 C-50 19.03 -50 16.06 -50 13 C-36.47 13 -22.94 13 -9 13 C-8.01 11.02 -7.02 9.04 -6 7 C-2.384 1.192 -2.384 1.192 0 0 Z " fill="#FDFDFD" transform="translate(240,89)"/>
<path d="M0 0 C0.66 0 1.32 0 2 0 C2.185 15.745 2.185 15.745 1 23 C1.773 22.66 1.773 22.66 2.562 22.312 C5.588 21.925 7.262 22.979 9.981 24.192 C20.848 28.543 33.718 29.403 45.25 30.5 C46.297 30.614 47.343 30.727 48.421 30.844 C54.97 31.383 59.563 30.855 65 27 C66.369 25.703 67.717 24.382 69 23 C69.66 23 70.32 23 71 23 C71 22.34 71 21.68 71 21 C73.561 18.704 74.48 18 78 18 C76.445 22.083 73.749 24.082 70.375 26.75 C69.372 27.549 68.369 28.348 67.336 29.172 C66.565 29.775 65.794 30.378 65 31 C78.332 30.911 91.31 30.115 104.438 27.688 C105.543 27.487 106.648 27.286 107.786 27.079 C114.586 25.745 120.645 23.762 127 21 C126.67 14.4 126.34 7.8 126 1 C126.99 1.33 127.98 1.66 129 2 C129.33 12.89 129.66 23.78 130 35 C148.936 30.673 148.936 30.673 167.801 26.051 C174.154 24.447 180.534 22.951 186.909 21.437 C192.862 20.016 198.8 18.55 204.727 17.023 C206.002 16.697 207.277 16.371 208.591 16.034 C211.079 15.395 213.565 14.75 216.05 14.096 C217.738 13.664 217.738 13.664 219.461 13.223 C220.459 12.962 221.457 12.702 222.486 12.434 C225 12 225 12 228 13 C227 15 227 15 224.958 15.711 C224.056 15.929 223.154 16.146 222.225 16.369 C221.199 16.621 220.173 16.872 219.116 17.131 C217.988 17.399 216.861 17.666 215.699 17.941 C214.531 18.225 213.364 18.509 212.161 18.802 C208.993 19.571 205.824 20.332 202.654 21.091 C199.389 21.874 196.126 22.666 192.863 23.458 C191.557 23.774 190.251 24.091 188.945 24.408 C188.3 24.564 187.655 24.721 186.99 24.882 C185.033 25.356 183.075 25.829 181.118 26.302 C173.506 28.142 165.902 30.009 158.309 31.926 C157.458 32.14 156.608 32.355 155.732 32.576 C152.608 33.365 149.483 34.156 146.36 34.953 C144.296 35.479 142.23 36.002 140.164 36.523 C139.034 36.811 137.905 37.099 136.741 37.396 C134 38 134 38 131 38 C130.67 41.3 130.34 44.6 130 48 C130.928 47.959 131.856 47.917 132.812 47.875 C136 48 136 48 139 50 C140.561 54.683 140.42 59.467 140.625 64.375 C140.677 65.417 140.728 66.458 140.781 67.531 C140.825 68.539 140.869 69.547 140.914 70.586 C140.975 71.963 140.975 71.963 141.038 73.369 C140.999 76.044 140.541 78.387 140 81 C139.956 82.489 139.959 83.98 140.008 85.469 C140.025 86.287 140.041 87.106 140.059 87.949 C140.103 89.65 140.155 91.351 140.215 93.051 C140.358 101.326 140.358 101.326 137 105 C135.68 105 134.36 105 133 105 C133.075 106.254 133.15 107.507 133.228 108.799 C134.957 137.849 136.402 166.902 137.587 195.98 C137.687 198.436 137.788 200.892 137.889 203.348 C138.048 207.249 138.206 211.15 138.362 215.052 C138.419 216.496 138.477 217.941 138.536 219.385 C138.616 221.377 138.694 223.369 138.772 225.361 C138.816 226.48 138.861 227.598 138.906 228.75 C139.005 232.169 139.016 235.58 139 239 C140.238 238.938 141.475 238.876 142.75 238.812 C145.41 238.679 146.748 238.863 149.109 240.145 C151 242 151 242 151.454 244.727 C151.433 245.801 151.412 246.874 151.391 247.98 C151.378 249.144 151.365 250.307 151.352 251.506 C151.301 253.328 151.301 253.328 151.25 255.188 C151.232 256.414 151.214 257.641 151.195 258.904 C151.148 261.937 151.082 264.968 151 268 C151.66 268 152.32 268 153 268 C153 268.66 153 269.32 153 270 C152.34 270 151.68 270 151 270 C151.021 270.706 151.042 271.412 151.063 272.14 C151.147 275.343 151.199 278.546 151.25 281.75 C151.3 283.417 151.3 283.417 151.352 285.117 C151.364 286.187 151.377 287.257 151.391 288.359 C151.412 289.344 151.433 290.328 151.454 291.343 C150.863 294.802 149.788 295.916 147 298 C145.35 298.33 143.7 298.66 142 299 C142 302.63 142 306.26 142 310 C141.34 310 140.68 310 140 310 C140 306.04 140 302.08 140 298 C138.391 298.093 138.391 298.093 136.75 298.188 C133 298 133 298 129 295 C129 287.41 129 279.82 129 272 C108.54 272 88.08 272 67 272 C67 274.97 67 277.94 67 281 C66.34 281 65.68 281 65 281 C65 278.03 65 275.06 65 272 C44.87 272 24.74 272 4 272 C4 278.93 4 285.86 4 293 C3.01 294.65 2.02 296.3 1 298 C-2.095 298.706 -4.837 299 -8 299 C-8.495 304.94 -8.495 304.94 -9 311 C-9.66 311 -10.32 311 -11 311 C-11 307.04 -11 303.08 -11 299 C-11.969 298.691 -12.939 298.381 -13.938 298.062 C-17 297 -17 297 -18 296 C-18.088 294 -18.107 291.998 -18.098 289.996 C-18.093 288.174 -18.093 288.174 -18.088 286.314 C-18.075 284.395 -18.075 284.395 -18.062 282.438 C-18.058 281.154 -18.053 279.871 -18.049 278.549 C-18.037 275.366 -18.021 272.183 -18 269 C-19.32 268.67 -20.64 268.34 -22 268 C-21.01 267.67 -20.02 267.34 -19 267 C-18.98 266.253 -18.96 265.506 -18.94 264.737 C-18.845 261.366 -18.735 257.996 -18.625 254.625 C-18.594 253.449 -18.563 252.274 -18.531 251.062 C-18.493 249.941 -18.454 248.82 -18.414 247.664 C-18.367 246.109 -18.367 246.109 -18.319 244.522 C-18 242 -18 242 -16 240 C-13.312 239.73 -10.709 239.913 -8 240 C-8.007 239.177 -8.007 239.177 -8.014 238.337 C-8.109 225.056 -7.855 211.83 -7.259 198.563 C-7.02 193.224 -6.799 187.883 -6.578 182.543 C-6.531 181.404 -6.484 180.266 -6.435 179.092 C-5.817 163.857 -5.349 148.616 -4.875 133.375 C-4.83 131.94 -4.786 130.506 -4.741 129.071 C-4.491 121.048 -4.244 113.024 -4 105 C-4.969 104.856 -5.939 104.711 -6.938 104.562 C-10 104 -10 104 -11 103 C-11.087 101.073 -11.107 99.143 -11.098 97.215 C-11.093 95.46 -11.093 95.46 -11.088 93.67 C-11.075 91.822 -11.075 91.822 -11.062 89.938 C-11.058 88.702 -11.053 87.466 -11.049 86.193 C-11.037 83.129 -11.019 80.064 -11 77 C-15.29 77 -19.58 77 -24 77 C-23.67 76.34 -23.34 75.68 -23 75 C-19.04 75 -15.08 75 -11 75 C-11.023 73.219 -11.046 71.437 -11.07 69.602 C-11.089 67.276 -11.107 64.951 -11.125 62.625 C-11.142 61.449 -11.159 60.274 -11.176 59.062 C-11.182 57.941 -11.189 56.82 -11.195 55.664 C-11.206 54.627 -11.216 53.59 -11.227 52.522 C-11 50 -11 50 -9 48 C-5.375 47.875 -5.375 47.875 -2 48 C-1.865 46.565 -1.768 45.127 -1.688 43.688 C-1.629 42.887 -1.571 42.086 -1.512 41.262 C-1.778 38.847 -1.778 38.847 -3.888 37.544 C-8.201 35.404 -12.63 34.261 -17.273 33.031 C-18.294 32.754 -19.315 32.477 -20.366 32.192 C-23.701 31.288 -27.038 30.394 -30.375 29.5 C-33.83 28.565 -37.284 27.628 -40.739 26.69 C-43.073 26.056 -45.407 25.424 -47.742 24.792 C-58.744 21.81 -69.72 18.733 -80.688 15.625 C-82.364 15.15 -84.041 14.676 -85.718 14.201 C-89.479 13.136 -93.24 12.069 -97 11 C-97 10.34 -97 9.68 -97 9 C-89.551 9.595 -82.688 11.248 -75.5 13.25 C-74.346 13.566 -73.192 13.881 -72.002 14.207 C-65.109 16.103 -58.249 18.09 -51.406 20.157 C-44.375 22.248 -37.25 23.944 -30.126 25.686 C-20.31 28.115 -10.651 30.989 -1 34 C-1.005 33.396 -1.01 32.793 -1.016 32.171 C-1.183 10.011 -1.183 10.011 0 0 Z M117 78 C112.676 82.174 110.26 85.35 108 91 C94.47 91 80.94 91 67 91 C67 93.97 67 96.94 67 100 C66.34 100.33 65.68 100.66 65 101 C65 97.7 65 94.4 65 91 C59.358 90.975 53.717 90.957 48.075 90.945 C46.155 90.94 44.236 90.933 42.316 90.925 C39.558 90.912 36.801 90.907 34.043 90.902 C33.184 90.897 32.324 90.892 31.439 90.887 C30.638 90.887 29.837 90.887 29.012 90.886 C28.309 90.884 27.605 90.882 26.879 90.88 C24.772 90.934 24.772 90.934 22 92 C20 91 20 91 19.219 89.039 C18.982 88.242 18.744 87.446 18.5 86.625 C17.586 83.574 16.804 81.705 15 79 C11.916 78.75 11.916 78.75 9 79 C8.333 84.706 7.95 90.272 8.031 96.016 C7.993 98.429 7.602 100.666 7 103 C4.03 103.66 1.06 104.32 -2 105 C-2.035 106.107 -2.071 107.213 -2.107 108.354 C-2.443 118.842 -2.781 129.33 -3.122 139.818 C-3.297 145.208 -3.471 150.598 -3.643 155.989 C-3.809 161.202 -3.978 166.415 -4.149 171.628 C-4.213 173.606 -4.276 175.584 -4.339 177.561 C-4.659 187.699 -5.072 197.805 -5.797 207.923 C-6.037 211.565 -6.114 215.159 -6.098 218.809 C-6.094 220.069 -6.091 221.329 -6.088 222.627 C-6.08 223.884 -6.071 225.142 -6.062 226.438 C-6.058 227.753 -6.053 229.068 -6.049 230.424 C-6.037 233.616 -6.021 236.808 -6 240 C-3.03 240.33 -0.06 240.66 3 241 C3.33 249.25 3.66 257.5 4 266 C24.13 266 44.26 266 65 266 C65 262.37 65 258.74 65 255 C65.66 255 66.32 255 67 255 C67 258.63 67 262.26 67 266 C87.46 266 107.92 266 129 266 C129.33 258.08 129.66 250.16 130 242 C132.31 241.01 134.62 240.02 137 239 C136.039 209.107 134.94 179.226 133.536 149.351 C133.438 147.262 133.341 145.174 133.244 143.086 C133.06 139.146 132.872 135.206 132.684 131.266 C132.602 129.538 132.602 129.538 132.52 127.775 C132.149 120.171 131.621 112.587 131 105 C127.7 104.67 124.4 104.34 121 104 C119.852 87.292 119.852 87.292 120 79 C119.01 78.67 118.02 78.34 117 78 Z " fill="#040404" transform="translate(123,11)"/>
<path d="M0 0 C2.375 0.435 4.75 0.873 7.125 1.312 C7.859 1.448 8.592 1.583 9.348 1.723 C13.741 2.544 18.086 3.476 22.438 4.5 C30.42 6.275 38.519 7.078 46.646 7.91 C48.221 8.08 48.221 8.08 49.828 8.254 C50.776 8.35 51.724 8.446 52.7 8.545 C55 9 55 9 57 11 C57.568 10.676 58.136 10.353 58.721 10.019 C61.174 8.922 62.795 8.734 65.465 8.691 C66.773 8.657 66.773 8.657 68.107 8.622 C69.041 8.602 69.975 8.583 70.938 8.562 C86.77 8.024 102.085 5.759 117.434 1.867 C120.616 1.093 123.764 0.49 127 0 C127 3.3 127 6.6 127 10 C126.34 10 125.68 10 125 10 C125.495 10.99 125.495 10.99 126 12 C127.287 15.861 127.138 18.942 127 23 C124.69 23.33 122.38 23.66 120 24 C119.1 32.023 118.885 39.93 119 48 C116.03 47.67 113.06 47.34 110 47 C109.732 48.052 109.464 49.104 109.188 50.188 C107.64 55.154 106.361 58.093 102 61 C99.242 61.172 96.588 61.232 93.832 61.195 C92.64 61.191 92.64 61.191 91.424 61.187 C88.886 61.176 86.35 61.15 83.812 61.125 C82.092 61.115 80.371 61.106 78.65 61.098 C74.433 61.076 70.217 61.041 66 61 C66 57.37 66 53.74 66 50 C65.34 50 64.68 50 64 50 C64 53.63 64 57.26 64 61 C58.538 61.173 53.077 61.3 47.612 61.385 C45.754 61.42 43.897 61.467 42.04 61.528 C39.366 61.613 36.695 61.653 34.02 61.684 C33.192 61.72 32.365 61.756 31.513 61.793 C25.892 61.797 25.892 61.797 23.358 59.533 C20.303 55.456 19.31 52.059 19 47 C13.06 47.495 13.06 47.495 7 48 C7.023 46.519 7.046 45.038 7.07 43.512 C7.089 41.57 7.107 39.629 7.125 37.688 C7.142 36.711 7.159 35.735 7.176 34.729 C7.182 33.791 7.189 32.853 7.195 31.887 C7.211 30.591 7.211 30.591 7.227 29.268 C7.151 26.718 7.151 26.718 5 24 C1.946 22.787 1.946 22.787 -1 22 C-1 19.36 -1 16.72 -1 14 C-0.01 14 0.98 14 2 14 C2 12.35 2 10.7 2 9 C1.34 9 0.68 9 0 9 C0 6.03 0 3.06 0 0 Z " fill="#FEFEFE" transform="translate(124,36)"/>
<path d="M0 0 C0.66 0 1.32 0 2 0 C2.462 9.896 2.921 19.791 3.375 29.688 C3.409 30.426 3.443 31.165 3.478 31.925 C4.809 60.945 5.966 89.968 7 119 C8.238 118.938 9.475 118.876 10.75 118.812 C13.506 118.827 14.926 118.966 17.476 120.126 C19.638 122.784 19.457 124.583 19.391 127.98 C19.378 129.144 19.365 130.307 19.352 131.506 C19.301 133.328 19.301 133.328 19.25 135.188 C19.232 136.414 19.214 137.641 19.195 138.904 C19.148 141.937 19.082 144.968 19 148 C19.66 148 20.32 148 21 148 C21 148.66 21 149.32 21 150 C20.34 150 19.68 150 19 150 C19.021 150.706 19.042 151.412 19.063 152.14 C19.147 155.343 19.199 158.546 19.25 161.75 C19.284 162.861 19.317 163.972 19.352 165.117 C19.364 166.187 19.377 167.257 19.391 168.359 C19.412 169.344 19.433 170.328 19.454 171.343 C18.863 174.802 17.788 175.916 15 178 C13.35 178.33 11.7 178.66 10 179 C10 182.63 10 186.26 10 190 C9.34 190 8.68 190 8 190 C8 186.04 8 182.08 8 178 C6.928 178.062 5.855 178.124 4.75 178.188 C1 178 1 178 -3 175 C-3 167.41 -3 159.82 -3 152 C-23.46 152 -43.92 152 -65 152 C-65 154.97 -65 157.94 -65 161 C-65.66 161 -66.32 161 -67 161 C-67 158.03 -67 155.06 -67 152 C-87.13 152 -107.26 152 -128 152 C-128 158.93 -128 165.86 -128 173 C-128.99 174.65 -129.98 176.3 -131 178 C-134.095 178.706 -136.837 179 -140 179 C-140.33 182.96 -140.66 186.92 -141 191 C-141.66 191 -142.32 191 -143 191 C-143 187.04 -143 183.08 -143 179 C-143.969 178.691 -144.939 178.381 -145.938 178.062 C-149 177 -149 177 -150 176 C-150.088 174 -150.107 171.998 -150.098 169.996 C-150.094 168.781 -150.091 167.566 -150.088 166.314 C-150.08 165.035 -150.071 163.756 -150.062 162.438 C-150.058 161.154 -150.053 159.871 -150.049 158.549 C-150.037 155.366 -150.021 152.183 -150 149 C-151.32 148.67 -152.64 148.34 -154 148 C-153.01 147.67 -152.02 147.34 -151 147 C-150.98 146.253 -150.96 145.506 -150.94 144.737 C-150.845 141.366 -150.735 137.996 -150.625 134.625 C-150.594 133.449 -150.563 132.274 -150.531 131.062 C-150.493 129.941 -150.454 128.82 -150.414 127.664 C-150.367 126.109 -150.367 126.109 -150.319 124.522 C-150 122 -150 122 -148 120 C-145.312 119.73 -142.709 119.913 -140 120 C-140.011 118.692 -140.022 117.384 -140.033 116.036 C-140.107 103.008 -139.781 90.035 -139.202 77.021 C-138.961 71.598 -138.736 66.174 -138.512 60.75 C-138.467 59.672 -138.422 58.594 -138.376 57.483 C-137.958 47.283 -137.643 37.08 -137.375 26.875 C-137.355 26.101 -137.334 25.326 -137.313 24.528 C-137.204 20.352 -137.1 16.176 -137 12 C-136.34 11.67 -135.68 11.34 -135 11 C-134.883 27.716 -134.978 44.414 -135.438 61.125 C-135.457 61.876 -135.477 62.626 -135.497 63.4 C-135.714 71.533 -136.086 79.625 -136.761 87.735 C-137.213 93.919 -137.371 100.116 -137.562 106.312 C-137.606 107.65 -137.649 108.988 -137.693 110.326 C-137.798 113.551 -137.9 116.775 -138 120 C-136.886 119.979 -135.773 119.959 -134.625 119.938 C-131 120 -131 120 -129 121 C-126.977 129.091 -128 137.66 -128 146 C-107.87 146 -87.74 146 -67 146 C-67 142.37 -67 138.74 -67 135 C-66.34 135 -65.68 135 -65 135 C-65 138.63 -65 142.26 -65 146 C-44.54 146 -24.08 146 -3 146 C-3 138.08 -3 130.16 -3 122 C1 119 1 119 5 119 C4.843 118.147 4.685 117.295 4.523 116.417 C4.005 113.031 3.77 109.755 3.627 106.334 C3.542 104.369 3.542 104.369 3.455 102.364 C3.397 100.941 3.339 99.517 3.281 98.094 C3.218 96.608 3.155 95.122 3.091 93.637 C2.924 89.719 2.761 85.802 2.599 81.885 C2.437 77.979 2.271 74.073 2.105 70.168 C1.913 65.62 1.72 61.071 1.531 56.523 C1.222 49.126 0.898 41.729 0.543 34.334 C0.149 26.092 -0.142 17.879 -0.062 9.625 C-0.058 8.675 -0.053 7.725 -0.049 6.746 C-0.037 4.497 -0.021 2.249 0 0 Z " fill="#0F0F0F" transform="translate(255,131)"/>
<path d="M0 0 C0.66 0 1.32 0 2 0 C2.185 15.745 2.185 15.745 1 23 C1.773 22.66 1.773 22.66 2.562 22.312 C5.588 21.925 7.262 22.979 9.981 24.192 C20.848 28.543 33.718 29.403 45.25 30.5 C46.297 30.614 47.343 30.727 48.421 30.844 C54.97 31.383 59.563 30.855 65 27 C66.369 25.703 67.717 24.382 69 23 C69.66 23 70.32 23 71 23 C71 22.34 71 21.68 71 21 C73.561 18.704 74.48 18 78 18 C76.445 22.083 73.749 24.082 70.375 26.75 C69.372 27.549 68.369 28.348 67.336 29.172 C66.565 29.775 65.794 30.378 65 31 C78.332 30.911 91.31 30.115 104.438 27.688 C105.543 27.487 106.648 27.286 107.786 27.079 C114.586 25.745 120.645 23.762 127 21 C126.67 14.4 126.34 7.8 126 1 C126.99 1.33 127.98 1.66 129 2 C129 10.91 129 19.82 129 29 C128.67 27.68 128.34 26.36 128 25 C127.01 25.66 126.02 26.32 125 27 C123.072 27.266 121.143 27.525 119.208 27.727 C115.554 28.179 112.015 29.087 108.438 29.938 C95.459 32.89 82.789 34.243 69.499 34.571 C64.935 34.714 61.139 34.835 57 37 C56.67 36.34 56.34 35.68 56 35 C53.19 34.403 53.19 34.403 49.754 34.07 C48.449 33.917 47.144 33.763 45.8 33.605 C44.761 33.487 44.761 33.487 43.701 33.368 C31.281 31.957 19.119 30.114 7 27 C5.846 26.727 5.846 26.727 4.668 26.449 C3 26 3 26 1 25 C1 27.97 1 30.94 1 34 C1.66 34 2.32 34 3 34 C3 35.65 3 37.3 3 39 C2.01 39 1.02 39 0 39 C-0.33 39.99 -0.66 40.98 -1 42 C-1.329 41.226 -1.658 40.453 -1.998 39.656 C-4.735 36.025 -7.802 35.493 -12.039 34.512 C-13.679 34.095 -15.319 33.678 -16.958 33.259 C-18.217 32.948 -18.217 32.948 -19.502 32.63 C-23.366 31.655 -27.193 30.555 -31.023 29.457 C-32.558 29.023 -34.092 28.589 -35.627 28.156 C-36.402 27.936 -37.176 27.717 -37.975 27.491 C-57.632 21.932 -77.311 16.45 -97 11 C-97 10.34 -97 9.68 -97 9 C-89.551 9.595 -82.688 11.248 -75.5 13.25 C-74.346 13.566 -73.192 13.881 -72.002 14.207 C-65.109 16.103 -58.249 18.09 -51.406 20.157 C-44.375 22.248 -37.25 23.944 -30.126 25.686 C-20.31 28.115 -10.651 30.989 -1 34 C-1.005 33.396 -1.01 32.793 -1.016 32.171 C-1.183 10.011 -1.183 10.011 0 0 Z " fill="#000000" transform="translate(123,11)"/>
<path d="M0 0 C3.375 -0.125 3.375 -0.125 7 0 C9 2 9 2 9.227 4.43 C9.211 5.923 9.211 5.923 9.195 7.445 C9.186 9.06 9.186 9.06 9.176 10.707 C9.159 11.835 9.142 12.963 9.125 14.125 C9.116 15.261 9.107 16.396 9.098 17.566 C9.074 20.378 9.041 23.189 9 26 C7.35 26 5.7 26 4 26 C4 26.66 4 27.32 4 28 C5.65 28 7.3 28 9 28 C9.029 31.437 9.047 34.875 9.062 38.312 C9.071 39.289 9.079 40.265 9.088 41.271 C9.091 42.209 9.094 43.147 9.098 44.113 C9.103 44.977 9.108 45.841 9.114 46.732 C9 49 9 49 8 52 C6.02 52 4.04 52 2 52 C1.803 48.417 1.619 44.834 1.438 41.25 C1.381 40.234 1.325 39.218 1.268 38.172 C1.219 37.192 1.171 36.212 1.121 35.203 C1.074 34.302 1.027 33.402 0.978 32.474 C0.999 30.125 1.422 28.258 2 26 C1.67 25.67 1.34 25.34 1 25 C-0.477 16.794 -0.1 8.298 0 0 Z " fill="#FFFFFF" transform="translate(262,253)"/>
<path d="M0 0 C1.98 0 3.96 0 6 0 C6.029 4.146 6.047 8.292 6.062 12.438 C6.071 13.622 6.079 14.806 6.088 16.025 C6.091 17.15 6.094 18.275 6.098 19.434 C6.103 20.476 6.108 21.518 6.114 22.592 C6 25 6 25 5 26 C2.667 26.041 0.333 26.042 -2 26 C-2.369 8.144 -2.369 8.144 0 0 Z " fill="#FFFFFF" transform="translate(117,280)"/>
<path d="M0 0 C0.949 0.041 1.897 0.083 2.875 0.125 C3.271 20.03 3.271 20.03 -0.125 25.125 C-2.75 25.312 -2.75 25.312 -5.125 25.125 C-5.183 21.333 -5.219 17.542 -5.25 13.75 C-5.267 12.67 -5.284 11.59 -5.301 10.477 C-5.307 9.445 -5.314 8.414 -5.32 7.352 C-5.331 6.398 -5.341 5.445 -5.352 4.463 C-4.979 0.619 -3.734 0.149 0 0 Z " fill="#FFFFFF" transform="translate(112.125,253.875)"/>
<path d="M0 0 C2.5 0.312 2.5 0.312 5 1 C6.258 3.517 6.208 5.413 6.316 8.227 C6.358 9.258 6.4 10.289 6.443 11.352 C6.483 12.432 6.522 13.512 6.562 14.625 C6.606 15.713 6.649 16.801 6.693 17.922 C6.8 20.614 6.902 23.307 7 26 C4.667 26.042 2.333 26.041 0 26 C-1.716 24.284 -1.13 22.026 -1.133 19.688 C-1.134 18.612 -1.135 17.537 -1.137 16.43 C-1.131 14.732 -1.131 14.732 -1.125 13 C-1.129 11.868 -1.133 10.736 -1.137 9.57 C-1.135 8.495 -1.134 7.42 -1.133 6.312 C-1.132 5.319 -1.131 4.325 -1.129 3.301 C-1 1 -1 1 0 0 Z " fill="#FFFFFF" transform="translate(247,87)"/>
<path d="M0 0 C0.33 0 0.66 0 1 0 C1.209 30.025 1.193 60.114 -2 90 C-2.66 89.67 -3.32 89.34 -4 89 C-3.773 80.541 -3.538 72.083 -3.285 63.625 C-3.264 62.898 -3.243 62.17 -3.222 61.421 C-3.067 56.316 -2.803 51.223 -2.5 46.125 C-2.141 40.069 -1.891 34.022 -1.75 27.957 C-1.708 26.299 -1.665 24.64 -1.623 22.982 C-1.54 19.645 -1.465 16.308 -1.393 12.971 C-1.356 11.427 -1.318 9.884 -1.281 8.34 C-1.261 7.252 -1.261 7.252 -1.24 6.143 C-1.113 1.113 -1.113 1.113 0 0 Z " fill="#000000" transform="translate(119,142)"/>
<path d="M0 0 C1.91 0.23 1.91 0.23 3.91 2.23 C3.951 4.563 3.953 6.898 3.91 9.23 C4.24 9.56 4.57 9.89 4.91 10.23 C5.285 13.043 5.285 13.043 4.91 16.23 C2.785 18.668 2.785 18.668 -0.09 20.23 C-3.386 20.165 -5.298 19.767 -8.027 17.918 C-9.09 16.23 -9.09 16.23 -8.777 14.043 C-8.437 13.146 -8.437 13.146 -8.09 12.23 C-6.152 12.605 -6.152 12.605 -4.09 13.23 C-3.76 13.89 -3.43 14.55 -3.09 15.23 C-2.43 15.23 -1.77 15.23 -1.09 15.23 C-0.76 13.91 -0.43 12.59 -0.09 11.23 C-1.41 11.23 -2.73 11.23 -4.09 11.23 C-4.09 9.91 -4.09 8.59 -4.09 7.23 C-3.1 6.9 -2.11 6.57 -1.09 6.23 C-1.09 5.57 -1.09 4.91 -1.09 4.23 C-1.75 4.23 -2.41 4.23 -3.09 4.23 C-3.42 4.89 -3.75 5.55 -4.09 6.23 C-5.74 6.23 -7.39 6.23 -9.09 6.23 C-6.832 0.361 -6.469 0.129 0 0 Z " fill="#000000" transform="translate(366.08984375,10.76953125)"/>
<path d="M0 0 C2.946 0.048 3.813 0.067 6.188 1.938 C7.487 5.23 7.241 6.963 6.125 10.312 C3.562 12.688 3.562 12.688 1.125 14.312 C4.095 14.808 4.095 14.808 7.125 15.312 C7.125 16.633 7.125 17.953 7.125 19.312 C2.505 19.312 -2.115 19.312 -6.875 19.312 C-5.553 14.025 -3.391 11.323 1.125 8.312 C1.849 6.253 1.849 6.253 2.125 4.312 C0.805 4.312 -0.515 4.312 -1.875 4.312 C-1.875 5.303 -1.875 6.293 -1.875 7.312 C-3.525 7.312 -5.175 7.312 -6.875 7.312 C-4.661 0.376 -4.661 0.376 0 0 Z " fill="#000000" transform="translate(214.875,10.6875)"/>
<path d="M0 0 C1.666 -0.043 3.334 -0.041 5 0 C6 1 6 1 6.114 3.317 C6.108 4.317 6.103 5.317 6.098 6.348 C6.093 7.967 6.093 7.967 6.088 9.619 C6.08 10.755 6.071 11.892 6.062 13.062 C6.058 14.203 6.053 15.343 6.049 16.518 C6.037 19.345 6.021 22.173 6 25 C3.625 25.125 3.625 25.125 1 25 C-1 23 -1 23 -1.243 21.092 C-1.237 19.952 -1.237 19.952 -1.23 18.789 C-1.229 17.956 -1.227 17.124 -1.225 16.266 C-1.212 15.394 -1.2 14.523 -1.188 13.625 C-1.187 12.761 -1.186 11.898 -1.186 11.008 C-1.159 7.154 -1.06 3.727 0 0 Z " fill="#FFFFFF" transform="translate(117,254)"/>
<path d="M0 0 C1.65 0 3.3 0 5 0 C7.158 5.25 7.24 9.808 7.125 15.375 C7.116 16.206 7.107 17.038 7.098 17.895 C7.074 19.93 7.038 21.965 7 24 C5 24.043 3 24.041 1 24 C0 23 0 23 -0.114 20.775 C-0.108 19.817 -0.103 18.858 -0.098 17.871 C-0.094 16.837 -0.091 15.802 -0.088 14.736 C-0.08 13.648 -0.071 12.559 -0.062 11.438 C-0.058 10.345 -0.053 9.253 -0.049 8.127 C-0.037 5.418 -0.021 2.709 0 0 Z " fill="#FFFFFF" transform="translate(255,281)"/>
<path d="M0 0 C1.666 -0.043 3.334 -0.041 5 0 C6 1 6 1 6.114 3.408 C6.106 4.972 6.106 4.972 6.098 6.566 C6.093 8.253 6.093 8.253 6.088 9.975 C6.08 11.159 6.071 12.343 6.062 13.562 C6.058 14.75 6.053 15.938 6.049 17.162 C6.037 20.108 6.021 23.054 6 26 C1.125 25.125 1.125 25.125 0 24 C-0.087 22.219 -0.107 20.435 -0.098 18.652 C-0.094 17.573 -0.091 16.493 -0.088 15.381 C-0.08 14.245 -0.071 13.108 -0.062 11.938 C-0.058 10.797 -0.053 9.657 -0.049 8.482 C-0.037 5.655 -0.021 2.827 0 0 Z " fill="#FFFFFF" transform="translate(107,280)"/>
<path d="M0 0 C1.32 0 2.64 0 4 0 C4 7.92 4 15.84 4 24 C2.02 24.33 0.04 24.66 -2 25 C-2.058 21.208 -2.094 17.417 -2.125 13.625 C-2.142 12.545 -2.159 11.465 -2.176 10.352 C-2.182 9.32 -2.189 8.289 -2.195 7.227 C-2.206 6.273 -2.216 5.32 -2.227 4.338 C-2 2 -2 2 0 0 Z " fill="#FFFFFF" transform="translate(124,88)"/>
<path d="M0 0 C1.207 0.031 1.207 0.031 2.438 0.062 C2.466 3.875 2.484 7.687 2.5 11.5 C2.508 12.589 2.517 13.677 2.525 14.799 C2.529 15.833 2.532 16.868 2.535 17.934 C2.54 18.892 2.546 19.85 2.551 20.838 C2.438 23.062 2.438 23.062 1.438 24.062 C-0.229 24.103 -1.896 24.105 -3.562 24.062 C-3.591 20.25 -3.609 16.438 -3.625 12.625 C-3.633 11.536 -3.642 10.448 -3.65 9.326 C-3.654 8.292 -3.657 7.257 -3.66 6.191 C-3.665 5.233 -3.671 4.275 -3.676 3.287 C-3.512 0.072 -3.239 0.079 0 0 Z " fill="#FFFFFF" transform="translate(249.5625,61.9375)"/>
<path d="M0 0 C0.66 0 1.32 0 2 0 C2.438 8.553 2.865 17.106 3.277 25.661 C3.469 29.632 3.664 33.604 3.869 37.575 C4.066 41.407 4.253 45.239 4.433 49.071 C4.504 50.534 4.578 51.997 4.656 53.46 C4.764 55.507 4.86 57.553 4.952 59.601 C5.009 60.767 5.067 61.932 5.127 63.134 C5 66 5 66 3 69 C2.176 63.776 1.73 58.62 1.465 53.34 C1.422 52.52 1.379 51.701 1.334 50.856 C1.198 48.217 1.067 45.577 0.938 42.938 C0.893 42.043 0.848 41.149 0.802 40.228 C0.134 26.807 -0.277 13.439 0 0 Z " fill="#000000" transform="translate(255,131)"/>
<path d="M0 0 C1.32 0 2.64 0 4 0 C4.196 4.145 4.38 8.291 4.562 12.438 C4.619 13.622 4.675 14.806 4.732 16.025 C4.781 17.15 4.829 18.275 4.879 19.434 C4.95 20.997 4.95 20.997 5.022 22.592 C5 25 5 25 4 26 C2.334 26.041 0.666 26.043 -1 26 C-1.029 22.042 -1.047 18.083 -1.062 14.125 C-1.071 12.997 -1.079 11.869 -1.088 10.707 C-1.091 9.631 -1.094 8.554 -1.098 7.445 C-1.103 6.45 -1.108 5.455 -1.114 4.43 C-1 2 -1 2 0 0 Z " fill="#FFFFFF" transform="translate(256,253)"/>
<path d="M0 0 C1.207 0.031 1.207 0.031 2.438 0.062 C2.622 15.807 2.622 15.807 1.438 23.062 C-0.213 23.392 -1.862 23.722 -3.562 24.062 C-3.591 20.25 -3.609 16.438 -3.625 12.625 C-3.633 11.536 -3.642 10.448 -3.65 9.326 C-3.654 8.292 -3.657 7.257 -3.66 6.191 C-3.665 5.233 -3.671 4.275 -3.676 3.287 C-3.512 0.072 -3.239 0.079 0 0 Z " fill="#FFFFFF" transform="translate(118.5625,61.9375)"/>
<path d="M0 0 C1.666 -0.043 3.334 -0.041 5 0 C6 1 6 1 6.114 3.225 C6.108 4.183 6.103 5.142 6.098 6.129 C6.093 7.681 6.093 7.681 6.088 9.264 C6.08 10.352 6.071 11.441 6.062 12.562 C6.058 13.655 6.053 14.747 6.049 15.873 C6.037 18.582 6.021 21.291 6 24 C2.125 23.125 2.125 23.125 1 22 C0.843 20.367 0.749 18.729 0.684 17.09 C0.642 16.1 0.6 15.111 0.557 14.092 C0.517 13.051 0.478 12.01 0.438 10.938 C0.394 9.893 0.351 8.848 0.307 7.771 C0.2 5.181 0.098 2.591 0 0 Z " fill="#FFFFFF" transform="translate(253,62)"/>
<path d="M0 0 C1.65 0 3.3 0 5 0 C5 7.92 5 15.84 5 24 C4.34 24.33 3.68 24.66 3 25 C1.68 24.34 0.36 23.68 -1 23 C-0.67 15.41 -0.34 7.82 0 0 Z " fill="#FFFFFF" transform="translate(123,62)"/>
<path d="M0 0 C2.375 0.688 2.375 0.688 3.375 1.688 C3.5 3.497 3.551 5.311 3.562 7.125 C3.577 8.114 3.591 9.102 3.605 10.121 C3.375 12.688 3.375 12.688 1.375 14.688 C-1.125 14.938 -1.125 14.938 -3.625 14.688 C-6.237 12.076 -5.923 10.816 -5.938 7.188 C-5.954 6.208 -5.971 5.228 -5.988 4.219 C-5.868 3.383 -5.749 2.548 -5.625 1.688 C-2.625 -0.312 -2.625 -0.312 0 0 Z " fill="#000000" transform="translate(345.625,306.3125)"/>
<path d="M0 0 C1.32 0 2.64 0 4 0 C5.279 2.557 5.113 4.367 5.098 7.227 C5.093 8.773 5.093 8.773 5.088 10.352 C5.08 11.432 5.071 12.512 5.062 13.625 C5.058 14.713 5.053 15.801 5.049 16.922 C5.037 19.615 5.021 22.307 5 25 C3.35 24.67 1.7 24.34 0 24 C0 16.08 0 8.16 0 0 Z " fill="#FFFFFF" transform="translate(115,88)"/>
<path d="M0 0 C1.65 0 3.3 0 5 0 C5.185 13.633 5.185 13.633 4 20 C2.68 20 1.36 20 0 20 C0 15.71 0 11.42 0 7 C-1.32 7 -2.64 7 -4 7 C-3.67 5.68 -3.34 4.36 -3 3 C-2.01 3 -1.02 3 0 3 C0 2.01 0 1.02 0 0 Z " fill="#000000" transform="translate(14,11)"/>
<path d="M0 0 C0.99 0 1.98 0 3 0 C3 1.65 3 3.3 3 5 C4.65 5 6.3 5 8 5 C8.33 3.35 8.66 1.7 9 0 C9.99 0 10.98 0 12 0 C12 4.95 12 9.9 12 15 C11.01 14.67 10.02 14.34 9 14 C9 12.02 9 10.04 9 8 C7.02 8 5.04 8 3 8 C3 9.98 3 11.96 3 14 C2.01 14.33 1.02 14.66 0 15 C0 10.05 0 5.1 0 0 Z " fill="#000000" transform="translate(310,306)"/>
<path d="M0 0 C0.812 2.188 0.812 2.188 1 5 C-1.375 7.75 -1.375 7.75 -4 10 C-4.33 10.33 -4.66 10.66 -5 11 C-3.35 11 -1.7 11 0 11 C0 11.99 0 12.98 0 14 C-3.3 14 -6.6 14 -10 14 C-9.875 11.75 -9.875 11.75 -9 9 C-7.044 7.603 -5.046 6.262 -3 5 C-3 4.34 -3 3.68 -3 3 C-3.99 2.67 -4.98 2.34 -6 2 C-6.33 2.99 -6.66 3.98 -7 5 C-7.99 5 -8.98 5 -10 5 C-7.773 -1.203 -6.348 -1.242 0 0 Z " fill="#000000" transform="translate(338,307)"/>
<path d="M0 0 C0.66 0 1.32 0 2 0 C2 8.58 2 17.16 2 26 C1.01 26 0.02 26 -1 26 C-2.032 20.88 -2.183 15.949 -2.188 10.75 C-2.2 9.935 -2.212 9.121 -2.225 8.281 C-2.23 6.186 -2.123 4.091 -2 2 C-1.34 1.34 -0.68 0.68 0 0 Z " fill="#FFFFFF" transform="translate(257,87)"/>
<path d="M0 0 C0.812 2.688 0.812 2.688 1 6 C-1.438 8.875 -1.438 8.875 -4 11 C-2.35 11.33 -0.7 11.66 1 12 C1 12.66 1 13.32 1 14 C-2.3 14 -5.6 14 -9 14 C-8.659 10.849 -8.419 9.392 -6.062 7.188 C-4 6 -4 6 -2 6 C-2 4.68 -2 3.36 -2 2 C-2.784 2.495 -3.567 2.99 -4.375 3.5 C-7 5 -7 5 -9 5 C-8.625 2.562 -8.625 2.562 -8 0 C-5.138 -1.431 -3.066 -0.6 0 0 Z " fill="#000000" transform="translate(359,307)"/>
<path d="M0 0 C0.66 0 1.32 0 2 0 C2.754 3.351 3.12 6.431 3.098 9.863 C3.093 11.193 3.093 11.193 3.088 12.549 C3.08 13.461 3.071 14.373 3.062 15.312 C3.058 16.244 3.053 17.175 3.049 18.135 C3.037 20.423 3.021 22.712 3 25 C2.01 25 1.02 25 0 25 C0 16.75 0 8.5 0 0 Z " fill="#000000" transform="translate(188,122)"/>
<path d="M0 0 C0.66 0.33 1.32 0.66 2 1 C2 8.92 2 16.84 2 25 C1.01 25.33 0.02 25.66 -1 26 C-1.029 21.854 -1.047 17.708 -1.062 13.562 C-1.071 12.378 -1.079 11.194 -1.088 9.975 C-1.091 8.85 -1.094 7.725 -1.098 6.566 C-1.103 5.524 -1.108 4.482 -1.114 3.408 C-1 1 -1 1 0 0 Z " fill="#000000" transform="translate(189,50)"/>
<path d="M0 0 C0.99 0 1.98 0 3 0 C3.11 8.402 2.955 16.647 2 25 C1.34 25 0.68 25 0 25 C0 16.75 0 8.5 0 0 Z " fill="#000000" transform="translate(188,158)"/>
<path d="M0 0 C0 4.95 0 9.9 0 15 C-0.99 15 -1.98 15 -3 15 C-3 11.7 -3 8.4 -3 5 C-3.99 5 -4.98 5 -6 5 C-6 4.34 -6 3.68 -6 3 C-2.538 0 -2.538 0 0 0 Z " fill="#000000" transform="translate(368,306)"/>
<path d="M0 0 C2.062 0.438 2.062 0.438 4 1 C4.188 4.375 4.188 4.375 4 8 C3.01 8.66 2.02 9.32 1 10 C-1 8 -1 8 -1.188 4.438 C-1 1 -1 1 0 0 Z " fill="#FFFFFF" transform="translate(343,309)"/>
</svg>
