<?xml version="1.0" encoding="UTF-8"?>
<!-- Generator: visioncortex VTracer 0.6.4 -->
<svg version="1.1" xmlns="http://www.w3.org/2000/svg" width="325" height="310">
<path d="M0 0 C107.25 0 214.5 0 325 0 C325 102.3 325 204.6 325 310 C217.75 310 110.5 310 0 310 C0 207.7 0 105.4 0 0 Z " fill="#FEFEFE" transform="translate(0,0)"/>
<path d="M0 0 C0 0.66 0 1.32 0 2 C1.137 1.916 2.274 1.832 3.445 1.746 C24.972 0.274 24.972 0.274 32 2 C33.375 4.051 33.375 4.051 34 6 C33.218 6.061 32.435 6.121 31.629 6.184 C30.617 6.267 29.605 6.351 28.562 6.438 C27.553 6.519 26.544 6.6 25.504 6.684 C23.064 6.732 23.064 6.732 22 8 C39.777 8.68 57.525 9.236 75.312 8.688 C77.23 8.635 77.23 8.635 79.186 8.582 C85.107 8.364 90.41 8.023 96 6 C97 7 97 7 97.062 10.062 C97.042 11.032 97.021 12.001 97 13 C93.7 13 90.4 13 87 13 C87 13.66 87 14.32 87 15 C68.965 16.619 50.889 16.17 32.812 15.562 C31.013 15.504 31.013 15.504 29.177 15.444 C28.053 15.402 26.928 15.36 25.77 15.316 C24.775 15.28 23.781 15.243 22.757 15.205 C20.092 15.007 17.61 14.556 15 14 C12.545 13.755 10.086 13.55 7.625 13.375 C6.359 13.28 5.093 13.184 3.789 13.086 C0.018 13 -3.272 13.448 -7 14 C-23.028 16.013 -38.753 16.081 -54.875 15.562 C-79.174 14.272 -79.174 14.272 -103 18 C-106.455 17.545 -106.455 17.545 -108 16 C-110.778 15.952 -113.536 15.958 -116.312 16 C-123.596 16.064 -130.752 15.796 -138 15 C-138.495 13.515 -138.495 13.515 -139 12 C-131.29 9.816 -131.29 9.816 -127 11 C-126.67 10.67 -126.34 10.34 -126 10 C-132.758 8.978 -139.379 8.839 -146.207 8.832 C-147.368 8.829 -148.529 8.825 -149.726 8.822 C-152.174 8.817 -154.622 8.815 -157.071 8.815 C-160.79 8.813 -164.509 8.794 -168.229 8.775 C-170.617 8.772 -173.006 8.77 -175.395 8.77 C-176.494 8.762 -177.593 8.755 -178.726 8.748 C-186.703 8.771 -194.396 9.465 -202 12 C-204 9 -204 9 -203.625 6.812 C-203.419 6.214 -203.213 5.616 -203 5 C-202.229 4.867 -201.458 4.734 -200.664 4.598 C-199.661 4.421 -198.658 4.244 -197.625 4.062 C-196.627 3.888 -195.63 3.714 -194.602 3.535 C-192.031 3.123 -192.031 3.123 -190 2 C-175.693 0.57 -161.11 0.874 -146.75 1.312 C-144.881 1.364 -144.881 1.364 -142.974 1.417 C-135.334 1.694 -127.895 2.442 -120.343 3.562 C-112.627 4.573 -105.365 4.099 -97.688 3 C-90.844 2.028 -84.096 1.808 -77.188 1.812 C-75.774 1.812 -75.774 1.812 -74.333 1.811 C-69.712 1.846 -65.165 2.043 -60.566 2.504 C-54.62 3.092 -48.721 3.148 -42.75 3.125 C-41.714 3.129 -40.677 3.133 -39.609 3.137 C-34.291 3.13 -29.263 2.833 -24 2 C-20.356 1.718 -16.704 1.565 -13.053 1.395 C-8.963 1.205 -8.963 1.205 -4.946 0.482 C-3 0 -3 0 0 0 Z " fill="#1B1B1B" transform="translate(213,148)"/>
<path d="M0 0 C0 0.66 0 1.32 0 2 C1.137 1.916 2.274 1.832 3.445 1.746 C24.972 0.274 24.972 0.274 32 2 C33.375 4.051 33.375 4.051 34 6 C33.218 6.061 32.435 6.121 31.629 6.184 C30.111 6.309 30.111 6.309 28.562 6.438 C27.553 6.519 26.544 6.6 25.504 6.684 C23.064 6.732 23.064 6.732 22 8 C39.777 8.68 57.525 9.236 75.312 8.688 C77.23 8.635 77.23 8.635 79.186 8.582 C85.107 8.364 90.41 8.023 96 6 C97 7 97 7 97.062 10.062 C97.042 11.032 97.021 12.001 97 13 C93.7 13 90.4 13 87 13 C87 13.66 87 14.32 87 15 C68.965 16.619 50.889 16.17 32.812 15.562 C31.013 15.504 31.013 15.504 29.177 15.444 C28.053 15.402 26.928 15.36 25.77 15.316 C24.775 15.28 23.781 15.243 22.757 15.205 C20.092 15.007 17.61 14.556 15 14 C12.545 13.755 10.086 13.55 7.625 13.375 C6.359 13.28 5.093 13.184 3.789 13.086 C0.018 13 -3.272 13.448 -7 14 C-23.048 16.017 -38.795 16.08 -54.938 15.562 C-59.342 15.43 -63.747 15.306 -68.152 15.191 C-69.19 15.164 -70.228 15.137 -71.298 15.109 C-79.256 14.937 -87.078 15.213 -95 16 C-95.33 15.34 -95.66 14.68 -96 14 C-94.003 13.65 -92.002 13.322 -90 13 C-88.329 12.722 -88.329 12.722 -86.625 12.438 C-71.679 10.656 -55.954 12.209 -40.945 12.648 C-38.107 12.73 -35.268 12.805 -32.43 12.879 C-31.57 12.906 -30.711 12.933 -29.825 12.961 C-25.395 13.071 -21.372 12.851 -17 12 C-14.542 11.934 -12.083 11.914 -9.625 11.938 C-8.38 11.947 -7.135 11.956 -5.852 11.965 C-4.44 11.982 -4.44 11.982 -3 12 C-3 9.69 -3 7.38 -3 5 C-4.075 5.217 -5.15 5.433 -6.258 5.656 C-18.727 7.905 -30.994 8.285 -43.625 8.25 C-44.45 8.249 -45.274 8.248 -46.124 8.247 C-54.382 8.225 -62.554 8.091 -70.773 7.218 C-73.75 6.926 -76.698 6.902 -79.688 6.938 C-80.702 6.947 -81.716 6.956 -82.762 6.965 C-83.5 6.976 -84.239 6.988 -85 7 C-85.33 6.34 -85.66 5.68 -86 5 C-82.535 4.505 -82.535 4.505 -79 4 C-79 3.34 -79 2.68 -79 2 C-77.063 1.972 -75.125 1.953 -73.188 1.938 C-72.109 1.926 -71.03 1.914 -69.918 1.902 C-66.837 1.979 -63.877 2.187 -60.816 2.496 C-54.785 3.077 -48.805 3.148 -42.75 3.125 C-41.714 3.129 -40.677 3.133 -39.609 3.137 C-34.291 3.13 -29.263 2.833 -24 2 C-20.356 1.718 -16.704 1.565 -13.053 1.395 C-8.963 1.205 -8.963 1.205 -4.946 0.482 C-3 0 -3 0 0 0 Z " fill="#141414" transform="translate(213,148)"/>
<path d="M0 0 C0 2.31 0 4.62 0 7 C-14.033 8.752 -27.628 9.132 -41.75 8.625 C-45.411 8.509 -49.073 8.399 -52.734 8.289 C-53.61 8.262 -54.486 8.234 -55.388 8.206 C-69.295 7.546 -69.295 7.546 -83.125 8.5 C-89.071 9.267 -95.013 9.076 -101 9 C-100.67 6.69 -100.34 4.38 -100 2 C-99.25 2.012 -98.5 2.023 -97.727 2.035 C-92.8 2.079 -87.96 2.073 -83.062 1.5 C-75.782 0.681 -68.43 0.557 -61.16 1.496 C-54.565 2.269 -47.932 2.186 -41.301 2.185 C-39.033 2.187 -36.765 2.206 -34.496 2.225 C-25.372 2.258 -16.518 1.654 -7.477 0.431 C-4 0 -4 0 0 0 Z " fill="#FFFFFF" transform="translate(210,153)"/>
<path d="M0 0 C2.838 0.082 5.677 0.157 8.516 0.231 C9.375 0.258 10.234 0.285 11.12 0.313 C15.548 0.423 19.577 0.216 23.945 -0.648 C25.903 -0.712 27.862 -0.735 29.82 -0.711 C30.787 -0.702 31.754 -0.693 32.75 -0.683 C33.474 -0.672 34.199 -0.66 34.945 -0.648 C34.615 0.012 34.285 0.672 33.945 1.352 C30.863 2.099 27.659 2.235 24.504 2.504 C23.034 2.633 23.034 2.633 21.534 2.764 C9.682 3.681 -2.124 3.295 -13.992 2.914 C-18.397 2.782 -22.802 2.658 -27.207 2.543 C-28.245 2.516 -29.283 2.489 -30.352 2.461 C-38.311 2.289 -46.132 2.564 -54.055 3.352 C-54.385 2.692 -54.715 2.032 -55.055 1.352 C-53.057 1.002 -51.057 0.674 -49.055 0.352 C-47.384 0.073 -47.384 0.073 -45.68 -0.211 C-30.733 -1.993 -15.009 -0.439 0 0 Z " fill="#000000" transform="translate(172.0546875,160.648193359375)"/>
<path d="M0 0 C2.938 0.375 2.938 0.375 6 1 C7.525 4.05 7.236 6.642 7 10 C5.812 12 5.812 12 4 13 C1.375 12.812 1.375 12.812 -1 12 C-2.509 8.981 -2.175 6.327 -2 3 C-1.34 2.01 -0.68 1.02 0 0 Z " fill="#000000" transform="translate(269,286)"/>
<path d="M0 0 C-0.206 0.619 -0.413 1.238 -0.625 1.875 C-0.749 2.576 -0.873 3.277 -1 4 C-0.34 4.66 0.32 5.32 1 6 C0.625 8.625 0.625 8.625 0 11 C-5.75 12.125 -5.75 12.125 -8 11 C-8 7.333 -8 3.667 -8 0 C-4.71 -1.097 -3.287 -0.8 0 0 Z " fill="#232323" transform="translate(285,287)"/>
<path d="M0 0 C1.258 -0.041 2.516 -0.082 3.812 -0.125 C4.52 -0.148 5.228 -0.171 5.957 -0.195 C8 0 8 0 11 2 C10.625 4.438 10.625 4.438 10 7 C7.291 8.354 4.991 8.065 2 8 C2 9.65 2 11.3 2 13 C1.34 13 0.68 13 0 13 C0 8.71 0 4.42 0 0 Z " fill="#000000" transform="translate(236,286)"/>
<path d="M0 0 C0.054 1.625 0.093 3.25 0.125 4.875 C0.148 5.78 0.171 6.685 0.195 7.617 C0 10 0 10 -2 12 C-5.125 11.625 -5.125 11.625 -8 11 C-7.67 10.01 -7.34 9.02 -7 8 C-4.525 8.99 -4.525 8.99 -2 10 C-2 9.34 -2 8.68 -2 8 C-2.804 7.856 -3.609 7.711 -4.438 7.562 C-7 7 -7 7 -8 6 C-8.041 4 -8.043 2 -8 0 C-5.138 -1.431 -3.066 -0.6 0 0 Z " fill="#080808" transform="translate(305,287)"/>
<path d="M0 0 C1.134 0.021 2.269 0.041 3.438 0.062 C3.438 0.723 3.438 1.382 3.438 2.062 C1.457 2.062 -0.522 2.062 -2.562 2.062 C-2.562 2.723 -2.562 3.382 -2.562 4.062 C-1.758 4.207 -0.954 4.351 -0.125 4.5 C2.438 5.062 2.438 5.062 3.438 6.062 C3.478 8.062 3.48 10.063 3.438 12.062 C-2.312 13.188 -2.312 13.188 -4.562 12.062 C-4.233 11.072 -3.902 10.082 -3.562 9.062 C-1.913 9.392 -0.262 9.723 1.438 10.062 C1.438 9.072 1.438 8.082 1.438 7.062 C-0.543 7.062 -2.522 7.062 -4.562 7.062 C-4.605 5.063 -4.603 3.062 -4.562 1.062 C-3.562 0.062 -3.562 0.062 0 0 Z " fill="#000000" transform="translate(311.5625,285.9375)"/>
<path d="M0 0 C2.475 0.495 2.475 0.495 5 1 C5 3.31 5 5.62 5 8 C3.35 8.33 1.7 8.66 0 9 C0 6.03 0 3.06 0 0 Z " fill="#FFFFFF" transform="translate(269,288)"/>
<path d="M0 0 C1.98 0 3.96 0 6 0 C6 1.32 6 2.64 6 4 C4.02 4 2.04 4 0 4 C0 2.68 0 1.36 0 0 Z " fill="#FFFFFF" transform="translate(238,288)"/>
<path d="M0 0 C1.65 0.33 3.3 0.66 5 1 C5 1.99 5 2.98 5 4 C1.25 5.125 1.25 5.125 -1 4 C-0.67 2.68 -0.34 1.36 0 0 Z " fill="#FFFFFF" transform="translate(299,288)"/>
<path d="M0 0 C1.65 0.33 3.3 0.66 5 1 C5 1.99 5 2.98 5 4 C3.02 4 1.04 4 -1 4 C-0.67 2.68 -0.34 1.36 0 0 Z " fill="#FFFFFF" transform="translate(279,293)"/>
</svg>
