<?xml version="1.0" encoding="UTF-8"?>
<!-- Generator: visioncortex VTracer 0.6.4 -->
<svg version="1.1" xmlns="http://www.w3.org/2000/svg" width="383" height="324">
<path d="M0 0 C126.39 0 252.78 0 383 0 C383 106.92 383 213.84 383 324 C256.61 324 130.22 324 0 324 C0 217.08 0 110.16 0 0 Z " fill="#FEFEFE" transform="translate(0,0)"/>
<path d="M0 0 C0.99 0.495 0.99 0.495 2 1 C-3.696 12.392 -14.994 19.994 -24 29 C2.73 29.33 29.46 29.66 57 30 C57 47.16 57 64.32 57 82 C67.56 82 78.12 82 89 82 C89 82.66 89 83.32 89 84 C78.44 84 67.88 84 57 84 C57 88.95 57 93.9 57 99 C62.28 99 67.56 99 73 99 C73 99.99 73 100.98 73 102 C67.72 102 62.44 102 57 102 C57 123.45 57 144.9 57 167 C56.01 167.33 55.02 167.66 54 168 C54 166.68 54 165.36 54 164 C52.714 164.165 51.428 164.329 50.103 164.499 C45.162 165.045 40.315 165.098 35.349 165.022 C33.972 165.007 33.972 165.007 32.567 164.993 C29.564 164.96 26.561 164.919 23.559 164.879 C21.464 164.855 19.369 164.831 17.275 164.807 C11.785 164.745 6.296 164.676 0.807 164.605 C-4.804 164.534 -10.415 164.47 -16.025 164.404 C-27.017 164.276 -38.009 164.14 -49 164 C-48.697 164.656 -48.394 165.312 -48.082 165.988 C-46.717 168.948 -45.359 171.912 -44 174.875 C-43.285 176.424 -43.285 176.424 -42.555 178.004 C-42.104 178.99 -41.652 179.976 -41.188 180.992 C-40.769 181.903 -40.35 182.815 -39.918 183.753 C-39 186 -39 186 -39 188 C-4.35 187.67 30.3 187.34 66 187 C65.67 184.69 65.34 182.38 65 180 C64.985 177.803 65.027 175.605 65.121 173.41 C65.194 171.617 65.194 171.617 65.268 169.787 C65.324 168.558 65.38 167.329 65.438 166.062 C65.49 164.806 65.542 163.55 65.596 162.256 C65.725 159.17 65.86 156.085 66 153 C66.99 153 67.98 153 69 153 C69.025 157.663 69.043 162.326 69.055 166.989 C69.06 168.576 69.067 170.163 69.075 171.75 C69.088 174.029 69.093 176.307 69.098 178.586 C69.103 179.297 69.108 180.009 69.113 180.742 C69.114 185.772 69.114 185.772 68 188 C76.25 188 84.5 188 93 188 C93 188.99 93 189.98 93 191 C92.381 191.083 91.762 191.165 91.125 191.25 C88.856 191.786 88.856 191.786 88 193.812 C87.67 194.534 87.34 195.256 87 196 C85 198.25 85 198.25 83 200 C82.34 200 81.68 200 81 200 C80.34 201.32 79.68 202.64 79 204 C78.01 204 77.02 204 76 204 C77.477 200.548 79.438 198.35 82.125 195.75 C82.849 195.044 83.574 194.337 84.32 193.609 C84.875 193.078 85.429 192.547 86 192 C84.35 192 82.7 192 81 192 C80.752 192.577 80.505 193.155 80.25 193.75 C78.817 196.329 77.216 198.061 75 200 C74.34 200 73.68 200 73 200 C72.67 200.99 72.34 201.98 72 203 C69.938 203.688 69.938 203.688 68 204 C69.477 200.548 71.438 198.35 74.125 195.75 C74.849 195.044 75.574 194.337 76.32 193.609 C76.875 193.078 77.429 192.547 78 192 C76.35 192 74.7 192 73 192 C72.773 192.577 72.546 193.155 72.312 193.75 C70.656 196.59 68.605 198.015 66 200 C64.917 201.114 64.917 201.114 63.812 202.25 C62 204 62 204 60 204 C60.472 199.752 62.889 197.732 66 195 C66.66 195 67.32 195 68 195 C68.33 194.01 68.66 193.02 69 192 C68.01 192 67.02 192 66 192 C64.745 193.42 63.498 194.848 62.324 196.336 C57.417 202.502 57.417 202.502 53.688 203.812 C53.131 203.874 52.574 203.936 52 204 C52 201 52 201 54.312 198.375 C57 196 57 196 60 195 C60.33 194.01 60.66 193.02 61 192 C60.01 192 59.02 192 58 192 C56.745 193.42 55.498 194.848 54.324 196.336 C49.417 202.502 49.417 202.502 45.688 203.812 C45.131 203.874 44.574 203.936 44 204 C44 203.01 44 202.02 44 201 C44.66 201 45.32 201 46 201 C46.33 200.01 46.66 199.02 47 198 C47.66 198 48.32 198 49 198 C49.33 197.01 49.66 196.02 50 195 C50.66 195 51.32 195 52 195 C52 194.34 52 193.68 52 193 C52.66 192.67 53.32 192.34 54 192 C49.095 192.42 47.248 194.435 44 198 C42.045 200.062 40.056 202.035 38 204 C37.34 204 36.68 204 36 204 C36.25 202.125 36.25 202.125 37 200 C38.325 199.316 39.659 198.65 41 198 C42.15 196.033 42.15 196.033 43 194 C43.66 193.34 44.32 192.68 45 192 C41.639 192.249 40.885 193.133 38.625 195.75 C38.209 196.284 37.792 196.817 37.363 197.367 C35.176 199.987 32.721 201.944 30 204 C29.34 204 28.68 204 28 204 C28.25 202.125 28.25 202.125 29 200 C30.325 199.316 31.659 198.65 33 198 C34.15 196.033 34.15 196.033 35 194 C35.66 193.34 36.32 192.68 37 192 C33.639 192.249 32.885 193.133 30.625 195.75 C30.209 196.284 29.792 196.817 29.363 197.367 C27.176 199.987 24.721 201.944 22 204 C21.34 204 20.68 204 20 204 C20.474 199.732 22.958 197.825 26 195 C26.598 194.402 27.196 193.804 27.812 193.188 C28.204 192.796 28.596 192.404 29 192 C24.566 192.409 22.288 195.482 19.438 198.562 C17.675 200.466 15.908 202.232 14 204 C13.01 204 12.02 204 11 204 C12.477 200.548 14.438 198.35 17.125 195.75 C17.849 195.044 18.574 194.337 19.32 193.609 C19.875 193.078 20.429 192.547 21 192 C16.566 192.409 14.288 195.482 11.438 198.562 C9.675 200.466 7.908 202.232 6 204 C5.01 204 4.02 204 3 204 C4.477 200.548 6.438 198.35 9.125 195.75 C9.849 195.044 10.574 194.337 11.32 193.609 C11.875 193.078 12.429 192.547 13 192 C8.566 192.409 6.288 195.482 3.438 198.562 C1.675 200.466 -0.092 202.232 -2 204 C-2.99 204 -3.98 204 -5 204 C-3.523 200.548 -1.562 198.35 1.125 195.75 C1.849 195.044 2.574 194.337 3.32 193.609 C3.875 193.078 4.429 192.547 5 192 C0.566 192.409 -1.712 195.482 -4.562 198.562 C-6.325 200.466 -8.092 202.232 -10 204 C-10.99 204 -11.98 204 -13 204 C-11.523 200.548 -9.562 198.35 -6.875 195.75 C-6.151 195.044 -5.426 194.337 -4.68 193.609 C-3.848 192.813 -3.848 192.813 -3 192 C-7.434 192.409 -9.712 195.482 -12.562 198.562 C-14.325 200.466 -16.092 202.232 -18 204 C-18.99 204 -19.98 204 -21 204 C-19.523 200.548 -17.562 198.35 -14.875 195.75 C-14.151 195.044 -13.426 194.337 -12.68 193.609 C-11.848 192.813 -11.848 192.813 -11 192 C-15.434 192.409 -17.712 195.482 -20.562 198.562 C-22.325 200.466 -24.092 202.232 -26 204 C-26.99 204 -27.98 204 -29 204 C-27.523 200.548 -25.562 198.35 -22.875 195.75 C-22.151 195.044 -21.426 194.337 -20.68 193.609 C-19.848 192.813 -19.848 192.813 -19 192 C-20.32 192 -21.64 192 -23 192 C-24.382 193.626 -25.719 195.293 -27 197 C-27.66 197 -28.32 197 -29 197 C-29 197.66 -29 198.32 -29 199 C-29.99 199.66 -30.98 200.32 -32 201 C-29.544 207.483 -26.744 213.773 -23.783 220.038 C-21.256 225.406 -18.856 230.823 -16.503 236.269 C-14.36 241.219 -12.098 246.104 -9.75 250.961 C-9.502 251.634 -9.255 252.307 -9 253 C-9.33 253.66 -9.66 254.32 -10 255 C-10.66 255 -11.32 255 -12 255 C-12.519 253.828 -13.039 252.656 -13.574 251.449 C-18.001 241.458 -18.001 241.458 -22.5 231.5 C-24.776 226.512 -27.017 221.508 -29.25 216.5 C-29.781 215.314 -29.781 215.314 -30.322 214.104 C-30.82 212.985 -30.82 212.985 -31.328 211.844 C-31.626 211.175 -31.924 210.507 -32.231 209.818 C-32.898 208.242 -33.459 206.623 -34 205 C-34.99 204.67 -35.98 204.34 -37 204 C-37 202.35 -37 200.7 -37 199 C-40.113 199.669 -40.113 199.669 -41.188 202.062 C-41.456 202.702 -41.724 203.341 -42 204 C-42.99 204 -43.98 204 -45 204 C-43.688 200.063 -42.081 197.773 -39 195 C-41.53 195 -42.854 195.685 -45 197 C-45.33 197.99 -45.66 198.98 -46 200 C-46.66 200 -47.32 200 -48 200 C-48.66 201.32 -49.32 202.64 -50 204 C-50.99 204 -51.98 204 -53 204 C-51.604 200.814 -49.954 198.761 -47.438 196.375 C-44.86 193.955 -44.86 193.955 -43 191 C-46.025 191.324 -46.912 191.898 -48.938 194.25 C-49.618 195.157 -50.299 196.065 -51 197 C-54.128 200.449 -56.529 202.595 -61 204 C-59.523 200.548 -57.562 198.35 -54.875 195.75 C-54.151 195.044 -53.426 194.337 -52.68 193.609 C-51.848 192.813 -51.848 192.813 -51 192 C-52.32 192 -53.64 192 -55 192 C-57.035 194.23 -57.035 194.23 -59 197 C-62.128 200.449 -64.529 202.595 -69 204 C-68.45 200.125 -66.724 198.404 -63.938 195.75 C-62.837 194.69 -62.837 194.69 -61.715 193.609 C-61.149 193.078 -60.583 192.547 -60 192 C-60.99 192 -61.98 192 -63 192 C-64.202 193.402 -65.396 194.812 -66.535 196.266 C-69.007 199.192 -71.876 201.781 -75 204 C-75.66 204 -76.32 204 -77 204 C-76.528 199.752 -74.111 197.732 -71 195 C-70.34 195 -69.68 195 -69 195 C-68.67 194.01 -68.34 193.02 -68 192 C-68.99 192 -69.98 192 -71 192 C-72.202 193.402 -73.396 194.812 -74.535 196.266 C-77.007 199.192 -79.876 201.781 -83 204 C-83.66 204 -84.32 204 -85 204 C-84.75 202.125 -84.75 202.125 -84 200 C-82.684 199.301 -81.35 198.633 -80 198 C-79.67 197.01 -79.34 196.02 -79 195 C-78.34 195 -77.68 195 -77 195 C-76.67 194.01 -76.34 193.02 -76 192 C-80.439 192.41 -82.755 195.489 -85.625 198.562 C-87.381 200.427 -89.154 202.221 -91 204 C-91.66 204 -92.32 204 -93 204 C-92.75 202.125 -92.75 202.125 -92 200 C-90.675 199.316 -89.341 198.65 -88 198 C-86.85 196.033 -86.85 196.033 -86 194 C-85.34 193.34 -84.68 192.68 -84 192 C-88.292 192.477 -90.145 194.941 -93 198 C-94.958 200.059 -96.944 202.035 -99 204 C-99.66 204 -100.32 204 -101 204 C-100.75 202.125 -100.75 202.125 -100 200 C-98.675 199.316 -97.341 198.65 -96 198 C-94.85 196.033 -94.85 196.033 -94 194 C-93.34 193.34 -92.68 192.68 -92 192 C-96.292 192.477 -98.145 194.941 -101 198 C-102.958 200.059 -104.944 202.035 -107 204 C-107.66 204 -108.32 204 -109 204 C-108.75 202.125 -108.75 202.125 -108 200 C-106.675 199.316 -105.341 198.65 -104 198 C-102.85 196.033 -102.85 196.033 -102 194 C-101.34 193.34 -100.68 192.68 -100 192 C-104.434 192.409 -106.712 195.482 -109.562 198.562 C-111.325 200.466 -113.092 202.232 -115 204 C-115.99 204 -116.98 204 -118 204 C-116.523 200.548 -114.562 198.35 -111.875 195.75 C-111.151 195.044 -110.426 194.337 -109.68 193.609 C-108.848 192.813 -108.848 192.813 -108 192 C-112.434 192.409 -114.712 195.482 -117.562 198.562 C-119.325 200.466 -121.092 202.232 -123 204 C-123.99 204 -124.98 204 -126 204 C-124.523 200.548 -122.562 198.35 -119.875 195.75 C-119.151 195.044 -118.426 194.337 -117.68 193.609 C-116.848 192.813 -116.848 192.813 -116 192 C-120.434 192.409 -122.712 195.482 -125.562 198.562 C-127.325 200.466 -129.092 202.232 -131 204 C-131.99 204 -132.98 204 -134 204 C-132.523 200.548 -130.562 198.35 -127.875 195.75 C-127.151 195.044 -126.426 194.337 -125.68 193.609 C-124.848 192.813 -124.848 192.813 -124 192 C-128.434 192.409 -130.712 195.482 -133.562 198.562 C-135.325 200.466 -137.092 202.232 -139 204 C-139.99 204 -140.98 204 -142 204 C-140.523 200.548 -138.562 198.35 -135.875 195.75 C-135.151 195.044 -134.426 194.337 -133.68 193.609 C-133.125 193.078 -132.571 192.547 -132 192 C-136.434 192.409 -138.712 195.482 -141.562 198.562 C-143.325 200.466 -145.092 202.232 -147 204 C-147.99 204 -148.98 204 -150 204 C-148.439 200.168 -145.971 197.826 -143 195 C-142.402 194.402 -141.804 193.804 -141.188 193.188 C-140.796 192.796 -140.404 192.404 -140 192 C-144.434 192.409 -146.712 195.482 -149.562 198.562 C-151.325 200.466 -153.092 202.232 -155 204 C-155.99 204 -156.98 204 -158 204 C-156.439 200.168 -153.971 197.826 -151 195 C-150.402 194.402 -149.804 193.804 -149.188 193.188 C-148.796 192.796 -148.404 192.404 -148 192 C-151.842 191.557 -151.842 191.557 -153.527 193.355 C-153.993 193.96 -154.458 194.565 -154.938 195.188 C-155.448 195.822 -155.958 196.456 -156.484 197.109 C-156.985 197.733 -157.485 198.357 -158 199 C-160.688 201.938 -160.688 201.938 -163 204 C-163.99 204 -164.98 204 -166 204 C-166 203.01 -166 202.02 -166 201 C-165.34 201 -164.68 201 -164 201 C-164 200.34 -164 199.68 -164 199 C-162.35 197.646 -160.683 196.313 -159 195 C-158.67 194.34 -158.34 193.68 -158 193 C-157.34 193 -156.68 193 -156 193 C-156 192.34 -156 191.68 -156 191 C-159.472 191.561 -160.841 192.572 -163 195.312 C-163.51 195.939 -164.021 196.565 -164.547 197.211 C-165.026 197.801 -165.506 198.392 -166 199 C-168.25 201.438 -168.25 201.438 -170 203 C-170.66 203 -171.32 203 -172 203 C-170.957 206.809 -169.912 210.618 -168.865 214.426 C-168.498 215.763 -168.131 217.101 -167.764 218.439 C-165.136 228.032 -165.136 228.032 -162.32 237.57 C-162.083 238.347 -161.845 239.124 -161.6 239.924 C-161.171 241.31 -160.733 242.694 -160.284 244.074 C-159.256 247.389 -158.694 249.706 -160 253 C-162 252 -162 252 -162.772 249.982 C-163.016 249.096 -163.261 248.21 -163.512 247.297 C-163.792 246.296 -164.072 245.295 -164.361 244.263 C-164.657 243.175 -164.953 242.086 -165.258 240.965 C-165.566 239.856 -165.874 238.748 -166.191 237.606 C-167.176 234.052 -168.151 230.495 -169.125 226.938 C-169.79 224.533 -170.455 222.129 -171.121 219.725 C-172.756 213.819 -174.381 207.91 -176 202 C-176.99 202.66 -177.98 203.32 -179 204 C-179.99 204 -180.98 204 -182 204 C-180.25 199.125 -180.25 199.125 -178 198 C-178.33 197.34 -178.66 196.68 -179 196 C-181.546 197.981 -183.936 199.934 -186.188 202.25 C-188 204 -188 204 -190 204 C-188.758 199.306 -186.23 197.225 -182.559 194.332 C-180.87 193.064 -180.87 193.064 -180 191 C-181.975 191.348 -181.975 191.348 -184 192 C-184.33 192.66 -184.66 193.32 -185 194 C-185.66 194 -186.32 194 -187 194 C-187.33 194.99 -187.66 195.98 -188 197 C-191.057 200.481 -193.562 202.605 -198 204 C-197.45 200.125 -195.724 198.404 -192.938 195.75 C-192.204 195.044 -191.471 194.337 -190.715 193.609 C-190.149 193.078 -189.583 192.547 -189 192 C-189.99 192 -190.98 192 -192 192 C-193.389 193.621 -194.713 195.297 -196 197 C-199.128 200.449 -201.529 202.595 -206 204 C-205.45 200.125 -203.724 198.404 -200.938 195.75 C-200.204 195.044 -199.471 194.337 -198.715 193.609 C-198.149 193.078 -197.583 192.547 -197 192 C-197.99 192 -198.98 192 -200 192 C-201.389 193.621 -202.713 195.297 -204 197 C-207.128 200.449 -209.529 202.595 -214 204 C-213.45 200.125 -211.724 198.404 -208.938 195.75 C-208.204 195.044 -207.471 194.337 -206.715 193.609 C-206.149 193.078 -205.583 192.547 -205 192 C-209.439 192.41 -211.755 195.489 -214.625 198.562 C-216.381 200.427 -218.154 202.221 -220 204 C-220.66 204 -221.32 204 -222 204 C-221.45 200.125 -219.724 198.404 -216.938 195.75 C-216.204 195.044 -215.471 194.337 -214.715 193.609 C-214.149 193.078 -213.583 192.547 -213 192 C-217.439 192.41 -219.755 195.489 -222.625 198.562 C-224.381 200.427 -226.154 202.221 -228 204 C-228.66 204 -229.32 204 -230 204 C-229.75 202.125 -229.75 202.125 -229 200 C-227.675 199.316 -226.341 198.65 -225 198 C-223.85 196.033 -223.85 196.033 -223 194 C-222.34 193.34 -221.68 192.68 -221 192 C-225.439 192.41 -227.755 195.489 -230.625 198.562 C-232.381 200.427 -234.154 202.221 -236 204 C-236.66 204 -237.32 204 -238 204 C-237.75 202.125 -237.75 202.125 -237 200 C-235.675 199.316 -234.341 198.65 -233 198 C-231.85 196.033 -231.85 196.033 -231 194 C-230.01 193.01 -230.01 193.01 -229 192 C-233.434 192.409 -235.712 195.482 -238.562 198.562 C-240.325 200.466 -242.092 202.232 -244 204 C-244.99 204 -245.98 204 -247 204 C-245.523 200.548 -243.562 198.35 -240.875 195.75 C-240.151 195.044 -239.426 194.337 -238.68 193.609 C-237.848 192.813 -237.848 192.813 -237 192 C-241.434 192.409 -243.712 195.482 -246.562 198.562 C-248.325 200.466 -250.092 202.232 -252 204 C-252.99 204 -253.98 204 -255 204 C-253.523 200.548 -251.562 198.35 -248.875 195.75 C-248.151 195.044 -247.426 194.337 -246.68 193.609 C-245.848 192.813 -245.848 192.813 -245 192 C-245.99 191.67 -246.98 191.34 -248 191 C-248 190.01 -248 189.02 -248 188 C-238.792 187.775 -229.584 187.596 -220.375 187.438 C-219.635 187.425 -218.894 187.412 -218.131 187.399 C-180.254 186.763 -142.378 187.122 -104.5 187.438 C-103.345 187.447 -103.345 187.447 -102.167 187.457 C-82.111 187.624 -62.056 187.806 -42 188 C-45.63 180.08 -49.26 172.16 -53 164 C-57.29 164 -61.58 164 -66 164 C-66 163.34 -66 162.68 -66 162 C-62.04 162 -58.08 162 -54 162 C-57.609 153.031 -61.648 144.704 -66 136 C-114.18 136 -162.36 136 -212 136 C-212 144.58 -212 153.16 -212 162 C-209.03 161.67 -206.06 161.34 -203 161 C-200.26 160.944 -197.555 160.927 -194.818 160.978 C-193.675 160.993 -193.675 160.993 -192.509 161.007 C-190.025 161.04 -187.542 161.08 -185.059 161.121 C-183.323 161.145 -181.587 161.169 -179.851 161.193 C-175.309 161.255 -170.766 161.324 -166.224 161.395 C-161.579 161.466 -156.933 161.531 -152.287 161.596 C-143.191 161.724 -134.096 161.86 -125 162 C-125 162.66 -125 163.32 -125 164 C-135.605 164.154 -146.21 164.302 -156.815 164.443 C-161.74 164.509 -166.664 164.576 -171.589 164.648 C-176.341 164.718 -181.094 164.782 -185.847 164.843 C-187.66 164.867 -189.472 164.893 -191.285 164.921 C-193.825 164.959 -196.365 164.991 -198.905 165.022 C-199.654 165.035 -200.403 165.048 -201.174 165.061 C-204.921 165.099 -208.359 164.91 -212 164 C-212 165.32 -212 166.64 -212 168 C-212.99 168 -213.98 168 -215 168 C-215 157.44 -215 146.88 -215 136 C-224.9 136 -234.8 136 -245 136 C-244.67 135.01 -244.34 134.02 -244 133 C-243.34 132.67 -242.68 132.34 -242 132 C-242.174 131.214 -242.348 130.427 -242.527 129.617 C-243.125 125.044 -242.863 120.715 -242.562 116.125 C-242.51 115.246 -242.458 114.367 -242.404 113.461 C-242.276 111.307 -242.139 109.153 -242 107 C-241.01 107 -240.02 107 -239 107 C-239 115.58 -239 124.16 -239 133 C-231.08 133 -223.16 133 -215 133 C-215 100 -215 67 -215 33 C-223.25 33 -231.5 33 -240 33 C-239.67 33.66 -239.34 34.32 -239 35 C-238.915 36.813 -238.893 38.63 -238.902 40.445 C-238.906 41.522 -238.909 42.598 -238.912 43.707 C-238.92 44.835 -238.929 45.963 -238.938 47.125 C-238.942 48.261 -238.947 49.396 -238.951 50.566 C-238.963 53.378 -238.979 56.189 -239 59 C-239.99 59 -240.98 59 -242 59 C-242.228 55.793 -242.429 52.584 -242.625 49.375 C-242.689 48.471 -242.754 47.568 -242.82 46.637 C-243.114 41.604 -243.058 37.728 -241 33 C-242.32 33 -243.64 33 -245 33 C-245 32.01 -245 31.02 -245 30 C-244.426 29.999 -243.853 29.997 -243.262 29.996 C-229.307 29.959 -215.353 29.899 -201.398 29.816 C-194.65 29.776 -187.902 29.744 -181.153 29.729 C-174.643 29.715 -168.134 29.68 -161.624 29.632 C-159.138 29.617 -156.651 29.609 -154.165 29.608 C-150.688 29.606 -147.212 29.579 -143.735 29.546 C-142.702 29.551 -141.67 29.556 -140.605 29.561 C-135.14 29.569 -135.14 29.569 -130.422 27.117 C-128.847 24.772 -127.432 22.444 -126.125 19.938 C-125.62 18.981 -125.114 18.025 -124.594 17.039 C-124.068 16.036 -123.542 15.033 -123 14 C-121.879 11.936 -120.754 9.873 -119.625 7.812 C-119.122 6.891 -118.62 5.969 -118.102 5.02 C-117.738 4.353 -117.375 3.687 -117 3 C-116.01 3.33 -115.02 3.66 -114 4 C-115.342 7.556 -116.922 10.791 -118.82 14.082 C-119.355 15.013 -119.89 15.945 -120.441 16.904 C-120.997 17.864 -121.553 18.824 -122.125 19.812 C-122.688 20.792 -123.252 21.771 -123.832 22.779 C-125.218 25.188 -126.608 27.595 -128 30 C-115.744 30.703 -103.494 31.232 -91.222 31.554 C-85.518 31.709 -79.829 31.918 -74.133 32.263 C-45.392 34.638 -45.392 34.638 -20.126 23.188 C-12.482 16.286 -5.976 8.363 0 0 Z " fill="#FFFFFF" transform="translate(268,34)"/>
<path d="M0 0 C0.99 0.495 0.99 0.495 2 1 C-3.696 12.392 -14.994 19.994 -24 29 C2.73 29.33 29.46 29.66 57 30 C57 47.16 57 64.32 57 82 C67.56 82 78.12 82 89 82 C89 82.66 89 83.32 89 84 C78.44 84 67.88 84 57 84 C57 88.95 57 93.9 57 99 C62.28 99 67.56 99 73 99 C73 99.99 73 100.98 73 102 C67.72 102 62.44 102 57 102 C57 123.45 57 144.9 57 167 C56.01 167.33 55.02 167.66 54 168 C54 166.68 54 165.36 54 164 C52.714 164.165 51.428 164.329 50.103 164.499 C45.162 165.045 40.315 165.098 35.349 165.022 C33.972 165.007 33.972 165.007 32.567 164.993 C29.564 164.96 26.561 164.919 23.559 164.879 C21.464 164.855 19.369 164.831 17.275 164.807 C11.785 164.745 6.296 164.676 0.807 164.605 C-4.804 164.534 -10.415 164.47 -16.025 164.404 C-27.017 164.276 -38.009 164.14 -49 164 C-48.697 164.656 -48.394 165.312 -48.082 165.988 C-46.717 168.948 -45.359 171.912 -44 174.875 C-43.285 176.424 -43.285 176.424 -42.555 178.004 C-42.104 178.99 -41.652 179.976 -41.188 180.992 C-40.769 181.903 -40.35 182.815 -39.918 183.753 C-39 186 -39 186 -39 188 C-4.35 187.67 30.3 187.34 66 187 C65.67 184.69 65.34 182.38 65 180 C64.985 177.803 65.027 175.605 65.121 173.41 C65.194 171.617 65.194 171.617 65.268 169.787 C65.324 168.558 65.38 167.329 65.438 166.062 C65.49 164.806 65.542 163.55 65.596 162.256 C65.725 159.17 65.86 156.085 66 153 C66.99 153 67.98 153 69 153 C69.025 157.663 69.043 162.326 69.055 166.989 C69.06 168.576 69.067 170.163 69.075 171.75 C69.088 174.029 69.093 176.307 69.098 178.586 C69.103 179.297 69.108 180.009 69.113 180.742 C69.114 185.772 69.114 185.772 68 188 C76.25 188 84.5 188 93 188 C93 188.99 93 189.98 93 191 C92.381 191.083 91.762 191.165 91.125 191.25 C88.856 191.786 88.856 191.786 88 193.812 C87.67 194.534 87.34 195.256 87 196 C85 198.25 85 198.25 83 200 C82.34 200 81.68 200 81 200 C80.34 201.32 79.68 202.64 79 204 C78.01 204 77.02 204 76 204 C77.477 200.548 79.438 198.35 82.125 195.75 C82.849 195.044 83.574 194.337 84.32 193.609 C84.875 193.078 85.429 192.547 86 192 C84.35 192 82.7 192 81 192 C80.752 192.577 80.505 193.155 80.25 193.75 C78.817 196.329 77.216 198.061 75 200 C74.34 200 73.68 200 73 200 C72.67 200.99 72.34 201.98 72 203 C69.938 203.688 69.938 203.688 68 204 C69.477 200.548 71.438 198.35 74.125 195.75 C74.849 195.044 75.574 194.337 76.32 193.609 C76.875 193.078 77.429 192.547 78 192 C76.35 192 74.7 192 73 192 C72.773 192.577 72.546 193.155 72.312 193.75 C70.656 196.59 68.605 198.015 66 200 C64.917 201.114 64.917 201.114 63.812 202.25 C62 204 62 204 60 204 C60.472 199.752 62.889 197.732 66 195 C66.66 195 67.32 195 68 195 C68.33 194.01 68.66 193.02 69 192 C68.01 192 67.02 192 66 192 C64.745 193.42 63.498 194.848 62.324 196.336 C57.417 202.502 57.417 202.502 53.688 203.812 C53.131 203.874 52.574 203.936 52 204 C52 201 52 201 54.312 198.375 C57 196 57 196 60 195 C60.33 194.01 60.66 193.02 61 192 C60.01 192 59.02 192 58 192 C56.745 193.42 55.498 194.848 54.324 196.336 C49.417 202.502 49.417 202.502 45.688 203.812 C45.131 203.874 44.574 203.936 44 204 C44 203.01 44 202.02 44 201 C44.66 201 45.32 201 46 201 C46.33 200.01 46.66 199.02 47 198 C47.66 198 48.32 198 49 198 C49.33 197.01 49.66 196.02 50 195 C50.66 195 51.32 195 52 195 C52 194.34 52 193.68 52 193 C52.66 192.67 53.32 192.34 54 192 C49.095 192.42 47.248 194.435 44 198 C42.045 200.062 40.056 202.035 38 204 C37.34 204 36.68 204 36 204 C36.25 202.125 36.25 202.125 37 200 C38.325 199.316 39.659 198.65 41 198 C42.15 196.033 42.15 196.033 43 194 C43.66 193.34 44.32 192.68 45 192 C41.639 192.249 40.885 193.133 38.625 195.75 C38.209 196.284 37.792 196.817 37.363 197.367 C35.176 199.987 32.721 201.944 30 204 C29.34 204 28.68 204 28 204 C28.25 202.125 28.25 202.125 29 200 C30.325 199.316 31.659 198.65 33 198 C34.15 196.033 34.15 196.033 35 194 C35.66 193.34 36.32 192.68 37 192 C33.639 192.249 32.885 193.133 30.625 195.75 C30.209 196.284 29.792 196.817 29.363 197.367 C27.176 199.987 24.721 201.944 22 204 C21.34 204 20.68 204 20 204 C20.474 199.732 22.958 197.825 26 195 C26.598 194.402 27.196 193.804 27.812 193.188 C28.204 192.796 28.596 192.404 29 192 C24.566 192.409 22.288 195.482 19.438 198.562 C17.675 200.466 15.908 202.232 14 204 C13.01 204 12.02 204 11 204 C12.477 200.548 14.438 198.35 17.125 195.75 C17.849 195.044 18.574 194.337 19.32 193.609 C19.875 193.078 20.429 192.547 21 192 C16.566 192.409 14.288 195.482 11.438 198.562 C9.675 200.466 7.908 202.232 6 204 C5.01 204 4.02 204 3 204 C4.477 200.548 6.438 198.35 9.125 195.75 C9.849 195.044 10.574 194.337 11.32 193.609 C11.875 193.078 12.429 192.547 13 192 C8.566 192.409 6.288 195.482 3.438 198.562 C1.675 200.466 -0.092 202.232 -2 204 C-2.99 204 -3.98 204 -5 204 C-3.523 200.548 -1.562 198.35 1.125 195.75 C1.849 195.044 2.574 194.337 3.32 193.609 C3.875 193.078 4.429 192.547 5 192 C0.566 192.409 -1.712 195.482 -4.562 198.562 C-6.325 200.466 -8.092 202.232 -10 204 C-10.99 204 -11.98 204 -13 204 C-11.523 200.548 -9.562 198.35 -6.875 195.75 C-6.151 195.044 -5.426 194.337 -4.68 193.609 C-3.848 192.813 -3.848 192.813 -3 192 C-7.434 192.409 -9.712 195.482 -12.562 198.562 C-14.325 200.466 -16.092 202.232 -18 204 C-18.99 204 -19.98 204 -21 204 C-19.523 200.548 -17.562 198.35 -14.875 195.75 C-14.151 195.044 -13.426 194.337 -12.68 193.609 C-11.848 192.813 -11.848 192.813 -11 192 C-15.434 192.409 -17.712 195.482 -20.562 198.562 C-22.325 200.466 -24.092 202.232 -26 204 C-26.99 204 -27.98 204 -29 204 C-27.523 200.548 -25.562 198.35 -22.875 195.75 C-22.151 195.044 -21.426 194.337 -20.68 193.609 C-19.848 192.813 -19.848 192.813 -19 192 C-20.32 192 -21.64 192 -23 192 C-24.382 193.626 -25.719 195.293 -27 197 C-27.66 197 -28.32 197 -29 197 C-29 197.66 -29 198.32 -29 199 C-29.99 199.66 -30.98 200.32 -32 201 C-29.544 207.483 -26.744 213.773 -23.783 220.038 C-21.256 225.406 -18.856 230.823 -16.503 236.269 C-14.36 241.219 -12.098 246.104 -9.75 250.961 C-9.502 251.634 -9.255 252.307 -9 253 C-9.33 253.66 -9.66 254.32 -10 255 C-10.66 255 -11.32 255 -12 255 C-12.519 253.828 -13.039 252.656 -13.574 251.449 C-18.001 241.458 -18.001 241.458 -22.5 231.5 C-24.776 226.512 -27.017 221.508 -29.25 216.5 C-29.781 215.314 -29.781 215.314 -30.322 214.104 C-30.82 212.985 -30.82 212.985 -31.328 211.844 C-31.626 211.175 -31.924 210.507 -32.231 209.818 C-32.898 208.242 -33.459 206.623 -34 205 C-34.99 204.67 -35.98 204.34 -37 204 C-37 202.35 -37 200.7 -37 199 C-40.113 199.669 -40.113 199.669 -41.188 202.062 C-41.456 202.702 -41.724 203.341 -42 204 C-42.99 204 -43.98 204 -45 204 C-43.688 200.063 -42.081 197.773 -39 195 C-41.53 195 -42.854 195.685 -45 197 C-45.33 197.99 -45.66 198.98 -46 200 C-46.66 200 -47.32 200 -48 200 C-48.66 201.32 -49.32 202.64 -50 204 C-50.99 204 -51.98 204 -53 204 C-51.604 200.814 -49.954 198.761 -47.438 196.375 C-44.86 193.955 -44.86 193.955 -43 191 C-46.025 191.324 -46.912 191.898 -48.938 194.25 C-49.618 195.157 -50.299 196.065 -51 197 C-54.128 200.449 -56.529 202.595 -61 204 C-59.523 200.548 -57.562 198.35 -54.875 195.75 C-54.151 195.044 -53.426 194.337 -52.68 193.609 C-51.848 192.813 -51.848 192.813 -51 192 C-52.32 192 -53.64 192 -55 192 C-57.035 194.23 -57.035 194.23 -59 197 C-62.128 200.449 -64.529 202.595 -69 204 C-68.45 200.125 -66.724 198.404 -63.938 195.75 C-62.837 194.69 -62.837 194.69 -61.715 193.609 C-61.149 193.078 -60.583 192.547 -60 192 C-60.99 192 -61.98 192 -63 192 C-64.202 193.402 -65.396 194.812 -66.535 196.266 C-69.007 199.192 -71.876 201.781 -75 204 C-75.66 204 -76.32 204 -77 204 C-76.528 199.752 -74.111 197.732 -71 195 C-70.34 195 -69.68 195 -69 195 C-68.67 194.01 -68.34 193.02 -68 192 C-68.99 192 -69.98 192 -71 192 C-72.202 193.402 -73.396 194.812 -74.535 196.266 C-77.007 199.192 -79.876 201.781 -83 204 C-83.66 204 -84.32 204 -85 204 C-84.75 202.125 -84.75 202.125 -84 200 C-82.684 199.301 -81.35 198.633 -80 198 C-79.67 197.01 -79.34 196.02 -79 195 C-78.34 195 -77.68 195 -77 195 C-76.67 194.01 -76.34 193.02 -76 192 C-80.439 192.41 -82.755 195.489 -85.625 198.562 C-87.381 200.427 -89.154 202.221 -91 204 C-91.66 204 -92.32 204 -93 204 C-92.75 202.125 -92.75 202.125 -92 200 C-90.675 199.316 -89.341 198.65 -88 198 C-86.85 196.033 -86.85 196.033 -86 194 C-85.34 193.34 -84.68 192.68 -84 192 C-88.292 192.477 -90.145 194.941 -93 198 C-94.958 200.059 -96.944 202.035 -99 204 C-99.66 204 -100.32 204 -101 204 C-100.75 202.125 -100.75 202.125 -100 200 C-98.675 199.316 -97.341 198.65 -96 198 C-94.85 196.033 -94.85 196.033 -94 194 C-93.34 193.34 -92.68 192.68 -92 192 C-96.292 192.477 -98.145 194.941 -101 198 C-102.958 200.059 -104.944 202.035 -107 204 C-107.66 204 -108.32 204 -109 204 C-108.75 202.125 -108.75 202.125 -108 200 C-106.675 199.316 -105.341 198.65 -104 198 C-102.85 196.033 -102.85 196.033 -102 194 C-101.34 193.34 -100.68 192.68 -100 192 C-104.434 192.409 -106.712 195.482 -109.562 198.562 C-111.325 200.466 -113.092 202.232 -115 204 C-115.99 204 -116.98 204 -118 204 C-116.523 200.548 -114.562 198.35 -111.875 195.75 C-111.151 195.044 -110.426 194.337 -109.68 193.609 C-108.848 192.813 -108.848 192.813 -108 192 C-112.434 192.409 -114.712 195.482 -117.562 198.562 C-119.325 200.466 -121.092 202.232 -123 204 C-123.99 204 -124.98 204 -126 204 C-124.523 200.548 -122.562 198.35 -119.875 195.75 C-119.151 195.044 -118.426 194.337 -117.68 193.609 C-116.848 192.813 -116.848 192.813 -116 192 C-120.434 192.409 -122.712 195.482 -125.562 198.562 C-127.325 200.466 -129.092 202.232 -131 204 C-131.99 204 -132.98 204 -134 204 C-132.523 200.548 -130.562 198.35 -127.875 195.75 C-127.151 195.044 -126.426 194.337 -125.68 193.609 C-124.848 192.813 -124.848 192.813 -124 192 C-128.434 192.409 -130.712 195.482 -133.562 198.562 C-135.325 200.466 -137.092 202.232 -139 204 C-139.99 204 -140.98 204 -142 204 C-140.523 200.548 -138.562 198.35 -135.875 195.75 C-135.151 195.044 -134.426 194.337 -133.68 193.609 C-133.125 193.078 -132.571 192.547 -132 192 C-136.434 192.409 -138.712 195.482 -141.562 198.562 C-143.325 200.466 -145.092 202.232 -147 204 C-147.99 204 -148.98 204 -150 204 C-148.439 200.168 -145.971 197.826 -143 195 C-142.402 194.402 -141.804 193.804 -141.188 193.188 C-140.796 192.796 -140.404 192.404 -140 192 C-144.434 192.409 -146.712 195.482 -149.562 198.562 C-151.325 200.466 -153.092 202.232 -155 204 C-155.99 204 -156.98 204 -158 204 C-156.439 200.168 -153.971 197.826 -151 195 C-150.402 194.402 -149.804 193.804 -149.188 193.188 C-148.796 192.796 -148.404 192.404 -148 192 C-151.842 191.557 -151.842 191.557 -153.527 193.355 C-153.993 193.96 -154.458 194.565 -154.938 195.188 C-155.448 195.822 -155.958 196.456 -156.484 197.109 C-156.985 197.733 -157.485 198.357 -158 199 C-160.688 201.938 -160.688 201.938 -163 204 C-163.99 204 -164.98 204 -166 204 C-166 203.01 -166 202.02 -166 201 C-165.34 201 -164.68 201 -164 201 C-164 200.34 -164 199.68 -164 199 C-162.35 197.646 -160.683 196.313 -159 195 C-158.67 194.34 -158.34 193.68 -158 193 C-157.34 193 -156.68 193 -156 193 C-156 192.34 -156 191.68 -156 191 C-159.472 191.561 -160.841 192.572 -163 195.312 C-163.51 195.939 -164.021 196.565 -164.547 197.211 C-165.026 197.801 -165.506 198.392 -166 199 C-168.25 201.438 -168.25 201.438 -170 203 C-170.66 203 -171.32 203 -172 203 C-170.957 206.809 -169.912 210.618 -168.865 214.426 C-168.498 215.763 -168.131 217.101 -167.764 218.439 C-165.136 228.032 -165.136 228.032 -162.32 237.57 C-162.083 238.347 -161.845 239.124 -161.6 239.924 C-161.171 241.31 -160.733 242.694 -160.284 244.074 C-159.256 247.389 -158.694 249.706 -160 253 C-162 252 -162 252 -162.772 249.982 C-163.016 249.096 -163.261 248.21 -163.512 247.297 C-163.792 246.296 -164.072 245.295 -164.361 244.263 C-164.657 243.175 -164.953 242.086 -165.258 240.965 C-165.566 239.856 -165.874 238.748 -166.191 237.606 C-167.176 234.052 -168.151 230.495 -169.125 226.938 C-169.79 224.533 -170.455 222.129 -171.121 219.725 C-172.756 213.819 -174.381 207.91 -176 202 C-176.99 202.66 -177.98 203.32 -179 204 C-179.99 204 -180.98 204 -182 204 C-180.25 199.125 -180.25 199.125 -178 198 C-178.33 197.34 -178.66 196.68 -179 196 C-181.546 197.981 -183.936 199.934 -186.188 202.25 C-188 204 -188 204 -190 204 C-188.758 199.306 -186.23 197.225 -182.559 194.332 C-180.87 193.064 -180.87 193.064 -180 191 C-181.975 191.348 -181.975 191.348 -184 192 C-184.33 192.66 -184.66 193.32 -185 194 C-185.66 194 -186.32 194 -187 194 C-187.33 194.99 -187.66 195.98 -188 197 C-191.057 200.481 -193.562 202.605 -198 204 C-197.45 200.125 -195.724 198.404 -192.938 195.75 C-192.204 195.044 -191.471 194.337 -190.715 193.609 C-190.149 193.078 -189.583 192.547 -189 192 C-189.99 192 -190.98 192 -192 192 C-193.389 193.621 -194.713 195.297 -196 197 C-199.128 200.449 -201.529 202.595 -206 204 C-205.45 200.125 -203.724 198.404 -200.938 195.75 C-200.204 195.044 -199.471 194.337 -198.715 193.609 C-198.149 193.078 -197.583 192.547 -197 192 C-197.99 192 -198.98 192 -200 192 C-201.389 193.621 -202.713 195.297 -204 197 C-207.128 200.449 -209.529 202.595 -214 204 C-213.45 200.125 -211.724 198.404 -208.938 195.75 C-208.204 195.044 -207.471 194.337 -206.715 193.609 C-206.149 193.078 -205.583 192.547 -205 192 C-209.439 192.41 -211.755 195.489 -214.625 198.562 C-216.381 200.427 -218.154 202.221 -220 204 C-220.66 204 -221.32 204 -222 204 C-221.45 200.125 -219.724 198.404 -216.938 195.75 C-216.204 195.044 -215.471 194.337 -214.715 193.609 C-214.149 193.078 -213.583 192.547 -213 192 C-217.439 192.41 -219.755 195.489 -222.625 198.562 C-224.381 200.427 -226.154 202.221 -228 204 C-228.66 204 -229.32 204 -230 204 C-229.75 202.125 -229.75 202.125 -229 200 C-227.675 199.316 -226.341 198.65 -225 198 C-223.85 196.033 -223.85 196.033 -223 194 C-222.34 193.34 -221.68 192.68 -221 192 C-225.439 192.41 -227.755 195.489 -230.625 198.562 C-232.381 200.427 -234.154 202.221 -236 204 C-236.66 204 -237.32 204 -238 204 C-237.75 202.125 -237.75 202.125 -237 200 C-235.675 199.316 -234.341 198.65 -233 198 C-231.85 196.033 -231.85 196.033 -231 194 C-230.01 193.01 -230.01 193.01 -229 192 C-233.434 192.409 -235.712 195.482 -238.562 198.562 C-240.325 200.466 -242.092 202.232 -244 204 C-244.99 204 -245.98 204 -247 204 C-245.523 200.548 -243.562 198.35 -240.875 195.75 C-240.151 195.044 -239.426 194.337 -238.68 193.609 C-237.848 192.813 -237.848 192.813 -237 192 C-241.434 192.409 -243.712 195.482 -246.562 198.562 C-248.325 200.466 -250.092 202.232 -252 204 C-252.99 204 -253.98 204 -255 204 C-253.523 200.548 -251.562 198.35 -248.875 195.75 C-248.151 195.044 -247.426 194.337 -246.68 193.609 C-245.848 192.813 -245.848 192.813 -245 192 C-245.99 191.67 -246.98 191.34 -248 191 C-248 190.01 -248 189.02 -248 188 C-238.792 187.775 -229.584 187.596 -220.375 187.438 C-219.635 187.425 -218.894 187.412 -218.131 187.399 C-180.254 186.763 -142.378 187.122 -104.5 187.438 C-103.345 187.447 -103.345 187.447 -102.167 187.457 C-82.111 187.624 -62.056 187.806 -42 188 C-45.63 180.08 -49.26 172.16 -53 164 C-57.29 164 -61.58 164 -66 164 C-66 163.34 -66 162.68 -66 162 C-62.04 162 -58.08 162 -54 162 C-57.609 153.031 -61.648 144.704 -66 136 C-114.18 136 -162.36 136 -212 136 C-212 144.58 -212 153.16 -212 162 C-209.03 161.67 -206.06 161.34 -203 161 C-200.26 160.944 -197.555 160.927 -194.818 160.978 C-193.675 160.993 -193.675 160.993 -192.509 161.007 C-190.025 161.04 -187.542 161.08 -185.059 161.121 C-183.323 161.145 -181.587 161.169 -179.851 161.193 C-175.309 161.255 -170.766 161.324 -166.224 161.395 C-161.579 161.466 -156.933 161.531 -152.287 161.596 C-143.191 161.724 -134.096 161.86 -125 162 C-125 162.66 -125 163.32 -125 164 C-135.605 164.154 -146.21 164.302 -156.815 164.443 C-161.74 164.509 -166.664 164.576 -171.589 164.648 C-176.341 164.718 -181.094 164.782 -185.847 164.843 C-187.66 164.867 -189.472 164.893 -191.285 164.921 C-193.825 164.959 -196.365 164.991 -198.905 165.022 C-199.654 165.035 -200.403 165.048 -201.174 165.061 C-204.921 165.099 -208.359 164.91 -212 164 C-212 165.32 -212 166.64 -212 168 C-212.99 168 -213.98 168 -215 168 C-215 157.44 -215 146.88 -215 136 C-224.9 136 -234.8 136 -245 136 C-244.67 135.01 -244.34 134.02 -244 133 C-243.34 132.67 -242.68 132.34 -242 132 C-242.174 131.214 -242.348 130.427 -242.527 129.617 C-243.125 125.044 -242.863 120.715 -242.562 116.125 C-242.51 115.246 -242.458 114.367 -242.404 113.461 C-242.276 111.307 -242.139 109.153 -242 107 C-241.01 107 -240.02 107 -239 107 C-239 115.58 -239 124.16 -239 133 C-231.08 133 -223.16 133 -215 133 C-215 100 -215 67 -215 33 C-223.25 33 -231.5 33 -240 33 C-239.67 33.66 -239.34 34.32 -239 35 C-238.915 36.813 -238.893 38.63 -238.902 40.445 C-238.906 41.522 -238.909 42.598 -238.912 43.707 C-238.92 44.835 -238.929 45.963 -238.938 47.125 C-238.942 48.261 -238.947 49.396 -238.951 50.566 C-238.963 53.378 -238.979 56.189 -239 59 C-239.99 59 -240.98 59 -242 59 C-242.228 55.793 -242.429 52.584 -242.625 49.375 C-242.689 48.471 -242.754 47.568 -242.82 46.637 C-243.114 41.604 -243.058 37.728 -241 33 C-242.32 33 -243.64 33 -245 33 C-245 32.01 -245 31.02 -245 30 C-244.426 29.999 -243.853 29.997 -243.262 29.996 C-229.307 29.959 -215.353 29.899 -201.398 29.816 C-194.65 29.776 -187.902 29.744 -181.153 29.729 C-174.643 29.715 -168.134 29.68 -161.624 29.632 C-159.138 29.617 -156.651 29.609 -154.165 29.608 C-150.688 29.606 -147.212 29.579 -143.735 29.546 C-142.702 29.551 -141.67 29.556 -140.605 29.561 C-135.14 29.569 -135.14 29.569 -130.422 27.117 C-128.847 24.772 -127.432 22.444 -126.125 19.938 C-125.62 18.981 -125.114 18.025 -124.594 17.039 C-124.068 16.036 -123.542 15.033 -123 14 C-121.879 11.936 -120.754 9.873 -119.625 7.812 C-119.122 6.891 -118.62 5.969 -118.102 5.02 C-117.738 4.353 -117.375 3.687 -117 3 C-116.01 3.33 -115.02 3.66 -114 4 C-115.342 7.556 -116.922 10.791 -118.82 14.082 C-119.355 15.013 -119.89 15.945 -120.441 16.904 C-120.997 17.864 -121.553 18.824 -122.125 19.812 C-122.688 20.792 -123.252 21.771 -123.832 22.779 C-125.218 25.188 -126.608 27.595 -128 30 C-115.744 30.703 -103.494 31.232 -91.222 31.554 C-85.518 31.709 -79.829 31.918 -74.133 32.263 C-45.392 34.638 -45.392 34.638 -20.126 23.188 C-12.482 16.286 -5.976 8.363 0 0 Z M-37.062 40.562 C-39.468 43.468 -42.051 45.64 -45 48 C-46.02 49.15 -47.018 50.318 -48 51.5 C-50.423 54.415 -52.968 56.706 -56 59 C-57.773 60.52 -57.773 60.52 -59 62 C-59 62.66 -59 63.32 -59 64 C-59.66 64 -60.32 64 -61 64 C-61.536 64.681 -62.072 65.361 -62.625 66.062 C-65.245 69.302 -68.133 71.68 -71.391 74.254 C-73.452 76.094 -73.452 76.094 -73 80 C-74.98 80 -76.96 80 -79 80 C-79 80.66 -79 81.32 -79 82 C-77.68 82 -76.36 82 -75 82 C-75 82.99 -75 83.98 -75 85 C-76.32 85 -77.64 85 -79 85 C-79 85.99 -79 86.98 -79 88 C-79.66 88 -80.32 88 -81 88 C-81 87.01 -81 86.02 -81 85 C-81.99 85 -82.98 85 -84 85 C-84 84.01 -84 83.02 -84 82 C-83.01 82 -82.02 82 -81 82 C-81 81.01 -81 80.02 -81 79 C-80.34 79 -79.68 79 -79 79 C-77.813 77.847 -76.633 76.687 -75.488 75.492 C-73.896 73.896 -72.226 72.451 -70.5 71 C-67.504 68.456 -64.658 65.899 -62 63 C-62 62.34 -62 61.68 -62 61 C-61.01 60.67 -60.02 60.34 -59 60 C-56.316 57.528 -53.975 54.968 -51.688 52.125 C-49.137 49 -46.199 46.488 -43.137 43.875 C-39.592 40.764 -36.189 37.477 -33 34 C-33 33.67 -33 33.34 -33 33 C-48.18 33 -63.36 33 -79 33 C-79 34.65 -79 36.3 -79 38 C-79.99 37.505 -79.99 37.505 -81 37 C-81.33 35.68 -81.66 34.36 -82 33 C-124.9 33 -167.8 33 -212 33 C-212 66 -212 99 -212 133 C-169.1 133 -126.2 133 -82 133 C-81.67 131.68 -81.34 130.36 -81 129 C-80.34 128.67 -79.68 128.34 -79 128 C-79 129.65 -79 131.3 -79 133 C-74.71 133 -70.42 133 -66 133 C-69.085 124.563 -72.475 116.76 -77 109 C-77.66 109 -78.32 109 -79 109 C-79 107.68 -79 106.36 -79 105 C-77.35 105.33 -75.7 105.66 -74 106 C-73.916 106.803 -73.832 107.606 -73.746 108.434 C-72.795 112.979 -71.008 116.864 -69.062 121.062 C-68.344 122.636 -67.627 124.211 -66.91 125.785 C-66.41 126.88 -66.41 126.88 -65.899 127.997 C-64.863 130.305 -63.908 132.638 -63 135 C-62.67 134.34 -62.34 133.68 -62 133 C-23.72 133 14.56 133 54 133 C54 122.77 54 112.54 54 102 C47.07 102 40.14 102 33 102 C33 101.01 33 100.02 33 99 C39.93 99 46.86 99 54 99 C54 94.05 54 89.1 54 84 C11.76 84 -30.48 84 -74 84 C-74 83.34 -74 82.68 -74 82 C-31.76 82 10.48 82 54 82 C54 65.83 54 49.66 54 33 C39.573 32.676 39.573 32.676 25.145 32.4 C19.258 32.298 13.372 32.191 7.487 32.05 C2.741 31.937 -2.005 31.849 -6.752 31.778 C-8.561 31.746 -10.371 31.706 -12.18 31.657 C-14.717 31.589 -17.253 31.553 -19.792 31.524 C-20.537 31.497 -21.282 31.47 -22.05 31.441 C-29.281 31.425 -32.743 35.134 -37.062 40.562 Z " fill="#000000" transform="translate(268,34)"/>
<path d="M0 0 C0.8 0.009 1.6 0.019 2.425 0.029 C5.071 0.062 7.717 0.11 10.363 0.159 C12.197 0.185 14.031 0.21 15.865 0.235 C20.694 0.301 25.522 0.38 30.35 0.461 C36.143 0.557 41.936 0.637 47.729 0.719 C56.53 0.846 65.331 0.993 74.132 1.135 C74.132 17.305 74.132 33.475 74.132 50.135 C57.382 50.288 40.631 50.437 23.881 50.578 C16.103 50.644 8.326 50.711 0.549 50.783 C-6.23 50.846 -13.008 50.905 -19.786 50.96 C-23.376 50.989 -26.965 51.02 -30.555 51.056 C-34.56 51.095 -38.566 51.126 -42.572 51.157 C-44.36 51.176 -44.36 51.176 -46.184 51.196 C-47.275 51.203 -48.366 51.21 -49.49 51.218 C-50.911 51.23 -50.911 51.23 -52.361 51.243 C-54.685 51.143 -56.646 50.796 -58.868 50.135 C-58.868 49.475 -58.868 48.815 -58.868 48.135 C-56.888 48.135 -54.908 48.135 -52.868 48.135 C-52.847 47.434 -52.827 46.733 -52.805 46.01 C-51.592 42.29 -49.655 41.005 -46.649 38.627 C-44.376 36.723 -42.706 34.45 -40.868 32.135 C-40.208 32.135 -39.548 32.135 -38.868 32.135 C-38.868 31.475 -38.868 30.815 -38.868 30.135 C-37.224 28.773 -35.553 27.446 -33.868 26.135 C-31.392 23.78 -29.129 21.477 -27.055 18.76 C-25.134 16.455 -23.267 14.694 -20.993 12.76 C-17.69 9.949 -14.896 7.001 -12.192 3.616 C-8.562 -0.442 -5.019 -0.11 0 0 Z " fill="#FFFFFF" transform="translate(247.867919921875,65.86474609375)"/>
<path d="M0 0 C38.28 0 76.56 0 116 0 C116 8.58 116 17.16 116 26 C64.52 26.495 64.52 26.495 12 27 C0 1.286 0 1.286 0 0 Z " fill="#FFFFFF" transform="translate(206,170)"/>
<path d="M0 0 C11.166 -0.607 11.166 -0.607 14.75 2 C16.352 5.845 16.696 8.896 16 13 C14.688 15.938 14.688 15.938 13 18 C9.985 19.005 7.958 19.103 4.812 19.062 C3.224 19.042 1.636 19.021 0 19 C0 12.73 0 6.46 0 0 Z " fill="#000000" transform="translate(105,291)"/>
<path d="M0 0 C11.362 -0.367 11.362 -0.367 13.863 1.07 C15.613 4.041 15.396 6.651 15.375 10.062 C15.383 11.312 15.39 12.561 15.398 13.848 C15.267 14.888 15.135 15.928 15 17 C10.254 20.164 5.632 19.121 0 19 C0 12.73 0 6.46 0 0 Z " fill="#101010" transform="translate(273,14)"/>
<path d="M0 0 C4.62 0 9.24 0 14 0 C14 1.32 14 2.64 14 4 C10.7 4 7.4 4 4 4 C4 4.99 4 5.98 4 7 C7.3 7 10.6 7 14 7 C14 8.32 14 9.64 14 11 C10.7 11 7.4 11 4 11 C4 12.32 4 13.64 4 15 C7.63 15 11.26 15 15 15 C15 16.32 15 17.64 15 19 C10.05 19 5.1 19 0 19 C0 12.73 0 6.46 0 0 Z " fill="#000000" transform="translate(257,292)"/>
<path d="M0 0 C2.129 0.43 2.129 0.43 4.691 2.242 C6.129 4.43 6.129 4.43 6.129 7.43 C4.479 7.43 2.829 7.43 1.129 7.43 C0.799 6.77 0.469 6.11 0.129 5.43 C-1.521 5.76 -3.171 6.09 -4.871 6.43 C-4.871 8.74 -4.871 11.05 -4.871 13.43 C-2.796 13.983 -1.027 14.43 1.129 14.43 C1.129 13.77 1.129 13.11 1.129 12.43 C2.779 12.43 4.429 12.43 6.129 12.43 C6.004 14.742 6.004 14.742 5.129 17.43 C2.175 19.444 0.163 20.43 -3.434 20.43 C-6.96 18.983 -8.615 17.524 -10.871 14.43 C-11.814 9.943 -11.374 6.502 -9.434 2.367 C-6.167 -0.103 -4.019 -0.225 0 0 Z " fill="#000000" transform="translate(162.87109375,13.5703125)"/>
<path d="M0 0 C0.66 0 1.32 0 2 0 C2.027 2.292 2.046 4.583 2.062 6.875 C2.074 8.151 2.086 9.427 2.098 10.742 C2 14 2 14 1 16 C6.61 16 12.22 16 18 16 C18 16.66 18 17.32 18 18 C12.72 18 7.44 18 2 18 C2.079 23.176 2.079 23.176 2.18 28.351 C2.195 30.235 2.099 32.119 2 34 C0 36 0 36 -3.477 36.195 C-4.86 36.182 -6.242 36.158 -7.625 36.125 C-8.331 36.116 -9.038 36.107 -9.766 36.098 C-11.511 36.074 -13.255 36.038 -15 36 C-15 35.01 -15 34.02 -15 33 C-10.05 33 -5.1 33 0 33 C0 28.05 0 23.1 0 18 C-2.31 18 -4.62 18 -7 18 C-7 17.34 -7 16.68 -7 16 C-4.69 16 -2.38 16 0 16 C-0.66 13.03 -1.32 10.06 -2 7 C-1.34 7 -0.68 7 0 7 C0 4.69 0 2.38 0 0 Z " fill="#000000" transform="translate(164,100)"/>
<path d="M0 0 C2.105 3.157 2.247 3.874 2.227 7.471 C2.227 8.372 2.227 9.273 2.227 10.201 C2.216 11.17 2.206 12.139 2.195 13.137 C2.192 14.131 2.19 15.126 2.187 16.151 C2.176 19.33 2.15 22.508 2.125 25.688 C2.115 27.842 2.106 29.996 2.098 32.15 C2.076 37.434 2.042 42.717 2 48 C1.01 48 0.02 48 -1 48 C-1.193 42.129 -1.372 36.257 -1.537 30.385 C-1.595 28.389 -1.658 26.393 -1.724 24.397 C-1.818 21.523 -1.899 18.648 -1.977 15.773 C-2.009 14.886 -2.041 13.998 -2.074 13.083 C-2.189 8.278 -1.894 4.518 0 0 Z " fill="#000000" transform="translate(351,119)"/>
<path d="M0 0 C3.062 0.25 3.062 0.25 6.062 2.25 C5.898 2.869 5.733 3.487 5.562 4.125 C4.947 6.739 5.031 8.125 5.688 10.75 C5.811 11.575 5.935 12.4 6.062 13.25 C4.062 15.25 4.062 15.25 1.125 15.5 C-1.938 15.25 -1.938 15.25 -4.938 13.25 C-4.752 12.363 -4.566 11.476 -4.375 10.562 C-3.765 7.332 -3.765 7.332 -4.5 4.5 C-4.644 3.757 -4.789 3.015 -4.938 2.25 C-2.938 0.25 -2.938 0.25 0 0 Z " fill="#232323" transform="translate(26.9375,95.75)"/>
<path d="M0 0 C2.025 0.09 2.025 0.09 4 -0.562 C6 -1 6 -1 8 0 C8 2.97 8 5.94 8 9 C3.333 9 -1.333 9 -6 9 C-6 6.03 -6 3.06 -6 0 C-3.483 -1.258 -2.634 -0.741 0 0 Z " fill="#303030" transform="translate(190,192)"/>
<path d="M0 0 C0.99 0 1.98 0 3 0 C3 13.53 3 27.06 3 41 C2.01 41 1.02 41 0 41 C-0.865 35.899 -1.077 31.053 -0.879 25.879 C-0.855 25.134 -0.832 24.389 -0.807 23.622 C-0.731 21.269 -0.647 18.916 -0.562 16.562 C-0.509 14.956 -0.456 13.35 -0.404 11.744 C-0.276 7.829 -0.14 3.915 0 0 Z " fill="#000000" transform="translate(350,179)"/>
<path d="M0 0 C3.5 0.125 3.5 0.125 4.5 1.125 C4.5 3.125 4.5 5.125 4.5 7.125 C4.706 7.847 4.913 8.569 5.125 9.312 C5.249 9.911 5.373 10.509 5.5 11.125 C4.51 12.61 4.51 12.61 3.5 14.125 C-0.062 14.375 -0.062 14.375 -3.5 14.125 C-4.5 13.125 -4.5 13.125 -4.633 10.438 C-4.63 9.344 -4.628 8.251 -4.625 7.125 C-4.628 6.032 -4.63 4.939 -4.633 3.812 C-4.432 -0.241 -4.189 0.15 0 0 Z " fill="#2F2F2F" transform="translate(340.5,296.875)"/>
<path d="M0 0 C1.134 0.021 2.269 0.041 3.438 0.062 C3.991 2.138 4.438 3.906 4.438 6.062 C4.499 7.548 4.499 7.548 4.562 9.062 C4.438 12.062 4.438 12.062 2.438 14.062 C-0.688 14.188 -0.688 14.188 -3.562 14.062 C-5.438 10.922 -5.745 8.984 -5.25 5.375 C-5.151 4.587 -5.051 3.8 -4.949 2.988 C-4.26 -0.444 -3.737 0.066 0 0 Z " fill="#303030" transform="translate(329.5625,296.9375)"/>
<path d="M0 0 C0.99 0.66 1.98 1.32 3 2 C3 2.99 3 3.98 3 5 C1.68 4.67 0.36 4.34 -1 4 C-1 3.34 -1 2.68 -1 2 C-3.032 2.64 -3.032 2.64 -5 4 C-5.86 6.796 -6 9.072 -6 12 C-4.02 11.34 -2.04 10.68 0 10 C-0.99 9.67 -1.98 9.34 -3 9 C-3 8.01 -3 7.02 -3 6 C-1.02 6 0.96 6 3 6 C3 8.97 3 11.94 3 15 C-0.379 15.285 -3.628 15.417 -7 15 C-9.188 13 -9.188 13 -10 10 C-10.062 7.072 -9.67 4.92 -9 2 C-5.53 -0.313 -4.075 -0.34 0 0 Z " fill="#000000" transform="translate(313,296)"/>
<path d="M0 0 C2 2 2 2 2.227 5.715 C2.227 7.313 2.215 8.91 2.195 10.508 C2.191 11.769 2.191 11.769 2.187 13.055 C2.176 15.745 2.15 18.435 2.125 21.125 C2.115 22.947 2.106 24.768 2.098 26.59 C2.076 31.06 2.041 35.53 2 40 C1.01 40 0.02 40 -1 40 C-1.193 35.268 -1.372 30.536 -1.537 25.803 C-1.595 24.195 -1.657 22.587 -1.724 20.979 C-1.818 18.661 -1.899 16.342 -1.977 14.023 C-2.009 13.311 -2.041 12.598 -2.074 11.864 C-2.204 7.485 -1.629 4.064 0 0 Z " fill="#000000" transform="translate(335,137)"/>
<path d="M0 0 C3.5 0.125 3.5 0.125 4.5 1.125 C4.625 2.934 4.676 4.749 4.688 6.562 C4.702 7.551 4.716 8.54 4.73 9.559 C4.5 12.125 4.5 12.125 2.5 14.125 C-0.625 14.25 -0.625 14.25 -3.5 14.125 C-3.83 12.805 -4.16 11.485 -4.5 10.125 C-3.696 10.311 -2.891 10.496 -2.062 10.688 C-1.217 10.832 -0.371 10.976 0.5 11.125 C0.83 10.795 1.16 10.465 1.5 10.125 C-0.48 9.465 -2.46 8.805 -4.5 8.125 C-4.542 5.792 -4.541 3.458 -4.5 1.125 C-3.5 0.125 -3.5 0.125 0 0 Z " fill="#252525" transform="translate(363.5,296.875)"/>
<path d="M0 0 C0.99 0 1.98 0 3 0 C3 2.64 3 5.28 3 8 C3.66 8 4.32 8 5 8 C5 8.99 5 9.98 5 11 C4.34 11 3.68 11 3 11 C3 11.99 3 12.98 3 14 C2.34 14 1.68 14 1 14 C1 13.01 1 12.02 1 11 C-0.98 11 -2.96 11 -5 11 C-4.47 6.493 -2.804 3.546 0 0 Z " fill="#101010" transform="translate(352,297)"/>
<path d="M0 0 C1.98 0 3.96 0 6 0 C7.399 2.799 7.253 4.905 7 8 C5.75 9.875 5.75 9.875 4 11 C2.68 11 1.36 11 0 11 C0 7.37 0 3.74 0 0 Z " fill="#FFFFFF" transform="translate(109,295)"/>
<path d="M0 0 C2.051 0.033 4.102 0.065 6.152 0.098 C6.152 0.758 6.152 1.418 6.152 2.098 C3.842 2.098 1.532 2.098 -0.848 2.098 C-0.848 2.758 -0.848 3.418 -0.848 4.098 C1.462 4.098 3.772 4.098 6.152 4.098 C6.152 4.758 6.152 5.418 6.152 6.098 C3.842 6.098 1.532 6.098 -0.848 6.098 C-0.848 6.758 -0.848 7.418 -0.848 8.098 C1.462 8.098 3.772 8.098 6.152 8.098 C6.152 8.758 6.152 9.418 6.152 10.098 C3.182 10.098 0.212 10.098 -2.848 10.098 C-2.945 3.164 -2.945 3.164 -2.848 1.098 C-1.848 0.098 -1.848 0.098 0 0 Z " fill="#000000" transform="translate(26.84765625,128.90234375)"/>
<path d="M0 0 C3.3 0 6.6 0 10 0 C10 0.99 10 1.98 10 3 C8.35 3 6.7 3 5 3 C5 3.99 5 4.98 5 6 C6.65 6 8.3 6 10 6 C9.67 6.99 9.34 7.98 9 9 C6.03 8.67 3.06 8.34 0 8 C0 7.34 0 6.68 0 6 C0.99 6 1.98 6 3 6 C3 5.01 3 4.02 3 3 C2.01 3 1.02 3 0 3 C0 2.01 0 1.02 0 0 Z " fill="#000000" transform="translate(347,169)"/>
<path d="M0 0 C2.5 0.125 2.5 0.125 3.5 1.125 C3.625 4.125 3.625 4.125 3.5 7.125 C2.5 8.125 2.5 8.125 0.062 8.312 C-2.5 8.125 -2.5 8.125 -4.5 6.125 C-3.776 0.189 -3.776 0.189 0 0 Z " fill="#121212" transform="translate(158.5,122.875)"/>
<path d="M0 0 C3.3 0 6.6 0 10 0 C10 2.31 10 4.62 10 7 C9.34 7 8.68 7 8 7 C7.67 5.35 7.34 3.7 7 2 C6.67 3.65 6.34 5.3 6 7 C5.34 7 4.68 7 4 7 C4 5.35 4 3.7 4 2 C3.34 2 2.68 2 2 2 C2 3.65 2 5.3 2 7 C1.34 7 0.68 7 0 7 C0 4.69 0 2.38 0 0 Z " fill="#000000" transform="translate(148,194)"/>
<path d="M0 0 C2.31 0 4.62 0 7 0 C7 0.66 7 1.32 7 2 C5.02 2 3.04 2 1 2 C1 2.66 1 3.32 1 4 C2.98 4 4.96 4 7 4 C7 4.99 7 5.98 7 7 C3.7 7 0.4 7 -3 7 C-3 6.01 -3 5.02 -3 4 C-2.01 4 -1.02 4 0 4 C0 2.68 0 1.36 0 0 Z " fill="#000000" transform="translate(333,179)"/>
<path d="M0 0 C4.95 0 9.9 0 15 0 C15 0.99 15 1.98 15 3 C10.05 3 5.1 3 0 3 C0 2.01 0 1.02 0 0 Z " fill="#000000" transform="translate(282,133)"/>
<path d="M0 0 C4.95 0 9.9 0 15 0 C15 0.99 15 1.98 15 3 C10.05 3 5.1 3 0 3 C0 2.01 0 1.02 0 0 Z " fill="#000000" transform="translate(263,133)"/>
<path d="M0 0 C4.95 0 9.9 0 15 0 C15 0.99 15 1.98 15 3 C10.05 3 5.1 3 0 3 C0 2.01 0 1.02 0 0 Z " fill="#000000" transform="translate(244,133)"/>
<path d="M0 0 C4.95 0 9.9 0 15 0 C15 0.99 15 1.98 15 3 C10.05 3 5.1 3 0 3 C0 2.01 0 1.02 0 0 Z " fill="#000000" transform="translate(225,133)"/>
<path d="M0 0 C4.95 0 9.9 0 15 0 C15 0.99 15 1.98 15 3 C10.05 3 5.1 3 0 3 C0 2.01 0 1.02 0 0 Z " fill="#000000" transform="translate(206,133)"/>
<path d="M0 0 C4.95 0 9.9 0 15 0 C15 0.99 15 1.98 15 3 C10.05 3 5.1 3 0 3 C0 2.01 0 1.02 0 0 Z " fill="#000000" transform="translate(111,133)"/>
<path d="M0 0 C4.95 0 9.9 0 15 0 C15 0.99 15 1.98 15 3 C10.05 3 5.1 3 0 3 C0 2.01 0 1.02 0 0 Z " fill="#000000" transform="translate(92,133)"/>
<path d="M0 0 C4.62 0 9.24 0 14 0 C14 0.99 14 1.98 14 3 C9.05 3 4.1 3 -1 3 C-0.67 2.01 -0.34 1.02 0 0 Z " fill="#000000" transform="translate(131,133)"/>
<path d="M0 0 C2.051 0.033 4.102 0.065 6.152 0.098 C6.152 0.758 6.152 1.418 6.152 2.098 C4.172 2.428 2.192 2.758 0.152 3.098 C3.122 3.593 3.122 3.593 6.152 4.098 C6.152 4.758 6.152 5.418 6.152 6.098 C3.182 6.098 0.212 6.098 -2.848 6.098 C-2.89 4.432 -2.888 2.764 -2.848 1.098 C-1.848 0.098 -1.848 0.098 0 0 Z " fill="#000000" transform="translate(26.84765625,118.90234375)"/>
<path d="M0 0 C4.29 0 8.58 0 13 0 C13 0.99 13 1.98 13 3 C8.71 3 4.42 3 0 3 C0 2.01 0 1.02 0 0 Z " fill="#000000" transform="translate(168,133)"/>
<path d="M0 0 C0.66 0 1.32 0 2 0 C2 0.99 2 1.98 2 3 C3.32 3 4.64 3 6 3 C6 3.99 6 4.98 6 6 C4.68 6 3.36 6 2 6 C2 6.99 2 7.98 2 9 C1.34 9 0.68 9 0 9 C0 8.01 0 7.02 0 6 C-0.99 6 -1.98 6 -3 6 C-3 5.01 -3 4.02 -3 3 C-2.01 3 -1.02 3 0 3 C0 2.01 0 1.02 0 0 Z " fill="#000000" transform="translate(187,130)"/>
<path d="M0 0 C2 2 2 2 2.195 5.258 C2.161 7.172 2.161 7.172 2.125 9.125 C2.107 10.406 2.089 11.688 2.07 13.008 C2.047 13.995 2.024 14.983 2 16 C1.34 16.33 0.68 16.66 0 17 C0 14.36 0 11.72 0 9 C-0.66 9 -1.32 9 -2 9 C-1.34 6.03 -0.68 3.06 0 0 Z " fill="#000000" transform="translate(164,136)"/>
<path d="M0 0 C1.32 0 2.64 0 4 0 C4 0.66 4 1.32 4 2 C3.34 2 2.68 2 2 2 C1.67 2.99 1.34 3.98 1 5 C0.34 5 -0.32 5 -1 5 C-1.33 5.99 -1.66 6.98 -2 8 C-2.66 8 -3.32 8 -4 8 C-4.33 8.99 -4.66 9.98 -5 11 C-5.812 8.812 -5.812 8.812 -6 6 C-3.625 3.25 -3.625 3.25 -1 1 C-0.67 0.67 -0.34 0.34 0 0 Z " fill="#FFFFFF" transform="translate(100,225)"/>
<path d="M0 0 C1.98 0 3.96 0 6 0 C6 2.31 6 4.62 6 7 C5.34 7 4.68 7 4 7 C3.67 5.35 3.34 3.7 3 2 C2.67 3.65 2.34 5.3 2 7 C1.34 7 0.68 7 0 7 C0 4.69 0 2.38 0 0 Z " fill="#000000" transform="translate(162,194)"/>
<path d="M0 0 C-0.812 1.938 -0.812 1.938 -2 4 C-2.99 4.33 -3.98 4.66 -5 5 C-5.33 5.99 -5.66 6.98 -6 8 C-6.66 6.68 -7.32 5.36 -8 4 C-4.5 0 -4.5 0 0 0 Z " fill="#FFFFFF" transform="translate(241,225)"/>
<path d="M0 0 C2.64 0 5.28 0 8 0 C8 0.99 8 1.98 8 3 C5.36 3 2.72 3 0 3 C0 2.01 0 1.02 0 0 Z " fill="#000000" transform="translate(80,133)"/>
<path d="M0 0 C2.31 0.33 4.62 0.66 7 1 C7 1.66 7 2.32 7 3 C4.69 3.33 2.38 3.66 0 4 C0 2.68 0 1.36 0 0 Z " fill="#FFFFFF" transform="translate(277,25)"/>
<path d="M0 0 C2.31 0 4.62 0 7 0 C7 0.99 7 1.98 7 3 C4.69 3 2.38 3 0 3 C0 2.01 0 1.02 0 0 Z " fill="#000000" transform="translate(195,133)"/>
</svg>
