<?xml version="1.0" encoding="UTF-8"?>
<!-- Generator: visioncortex VTracer 0.6.4 -->
<svg version="1.1" xmlns="http://www.w3.org/2000/svg" width="325" height="311">
<path d="M0 0 C107.25 0 214.5 0 325 0 C325 102.63 325 205.26 325 311 C217.75 311 110.5 311 0 311 C0 208.37 0 105.74 0 0 Z " fill="#F9F9F9" transform="translate(0,0)"/>
<path d="M0 0 C6.216 0.179 10.666 4.092 15.562 7.562 C16.758 8.365 17.956 9.165 19.156 9.961 C20.355 10.765 21.553 11.569 22.75 12.375 C23.327 12.76 23.904 13.144 24.499 13.541 C25.89 14.497 27.232 15.524 28.562 16.562 C28.562 17.222 28.562 17.882 28.562 18.562 C29.326 18.789 30.089 19.016 30.875 19.25 C34.201 20.874 35.208 22.135 36.562 25.562 C36 28.312 36 28.312 34.562 30.562 C32.438 31.375 32.438 31.375 30.562 31.562 C30.562 32.222 30.562 32.882 30.562 33.562 C26.178 36.562 26.178 36.562 23.562 36.562 C23.562 37.222 23.562 37.882 23.562 38.562 C21.762 39.824 21.762 39.824 19.25 41.25 C12.142 45.386 5.195 49.71 -1.551 54.418 C-2.265 54.916 -2.98 55.414 -3.716 55.927 C-5.133 56.919 -6.547 57.916 -7.956 58.919 C-8.608 59.376 -9.261 59.833 -9.934 60.305 C-10.803 60.921 -10.803 60.921 -11.689 61.55 C-13.586 62.649 -15.297 63.131 -17.438 63.562 C-17.438 64.222 -17.438 64.882 -17.438 65.562 C-18.386 66.078 -19.335 66.594 -20.312 67.125 C-24.463 69.475 -28.266 72.251 -32.105 75.074 C-34.293 76.47 -35.904 77.126 -38.438 77.562 C-38.438 78.222 -38.438 78.882 -38.438 79.562 C-39.489 80.161 -40.541 80.759 -41.625 81.375 C-43.864 82.649 -46.061 83.951 -48.25 85.312 C-50.438 86.562 -50.438 86.562 -52.438 86.562 C-52.438 87.222 -52.438 87.882 -52.438 88.562 C-54.457 90.043 -54.457 90.043 -57.25 91.75 C-58.248 92.365 -59.245 92.98 -60.273 93.613 C-61.318 94.257 -62.362 94.9 -63.438 95.562 C-66.304 97.43 -69.168 99.301 -72.027 101.18 C-74.224 102.44 -75.963 103.115 -78.438 103.562 C-78.438 104.222 -78.438 104.882 -78.438 105.562 C-79.51 106.078 -80.583 106.594 -81.688 107.125 C-85.242 108.896 -88.65 110.844 -92.062 112.875 C-98.691 116.782 -105.529 120.183 -112.438 123.562 C-118.896 126.746 -125.293 130.011 -131.625 133.438 C-137.881 136.82 -144.25 139.9 -150.716 142.861 C-153.709 144.238 -156.504 145.604 -159.305 147.355 C-160.009 147.754 -160.712 148.152 -161.438 148.562 C-162.097 148.232 -162.757 147.903 -163.438 147.562 C-157.285 143.709 -151.157 140.322 -144.438 137.562 C-145.687 134.103 -147.113 131.416 -149.438 128.562 C-150.275 128.887 -151.113 129.212 -151.977 129.547 C-160.433 132.028 -170.108 131.282 -178.438 128.562 C-178.376 129.326 -178.314 130.089 -178.25 130.875 C-178.438 133.562 -178.438 133.562 -179.938 135.375 C-180.433 135.767 -180.928 136.159 -181.438 136.562 C-181.767 136.232 -182.097 135.903 -182.438 135.562 C-183.386 135.604 -184.335 135.645 -185.312 135.688 C-188.438 135.562 -188.438 135.562 -190.312 134.5 C-192.08 131.456 -191.806 128.999 -191.438 125.562 C-189.895 123.459 -188.756 122.722 -186.438 121.562 C-187.097 120.511 -187.757 119.459 -188.438 118.375 C-191.292 112.707 -191.121 106.767 -190.438 100.562 C-189.414 97.668 -189.414 97.668 -188.438 95.562 C-187.778 95.562 -187.118 95.562 -186.438 95.562 C-186.438 94.572 -186.438 93.582 -186.438 92.562 C-184.758 90.957 -184.758 90.957 -182.562 89.375 C-181.843 88.845 -181.124 88.315 -180.383 87.77 C-178.438 86.562 -178.438 86.562 -176.438 86.562 C-176.438 85.903 -176.438 85.243 -176.438 84.562 C-184.725 88.377 -192.974 92.219 -201 96.562 C-206.379 99.474 -211.788 102.31 -217.25 105.062 C-217.938 105.413 -218.627 105.764 -219.336 106.125 C-224.201 108.562 -224.201 108.562 -226.438 108.562 C-226.438 109.222 -226.438 109.882 -226.438 110.562 C-228.828 111.741 -231.224 112.906 -233.625 114.062 C-234.299 114.396 -234.972 114.73 -235.666 115.074 C-239.401 116.86 -242.195 118.024 -246.438 117.562 C-245.778 118.222 -245.118 118.882 -244.438 119.562 C-246.057 120.426 -247.684 121.278 -249.312 122.125 C-250.217 122.601 -251.122 123.076 -252.055 123.566 C-252.841 123.895 -253.627 124.224 -254.438 124.562 C-255.097 124.233 -255.757 123.903 -256.438 123.562 C-258.536 123.962 -258.536 123.962 -260.438 124.562 C-260.438 123.903 -260.438 123.243 -260.438 122.562 C-259.722 122.211 -259.007 121.859 -258.27 121.496 C-251.46 118.122 -244.782 114.596 -238.152 110.883 C-235.438 109.562 -235.438 109.562 -232.438 109.562 C-232.438 108.903 -232.438 108.243 -232.438 107.562 C-228.075 105.116 -224.411 104.06 -219.438 103.562 C-220.428 103.233 -221.417 102.903 -222.438 102.562 C-219.881 101.217 -217.318 99.886 -214.75 98.562 C-214.029 98.181 -213.308 97.799 -212.564 97.406 C-208.732 95.446 -205.864 94.004 -201.438 94.562 C-202.428 93.572 -202.428 93.572 -203.438 92.562 C-192.841 86.802 -182.113 81.41 -171.195 76.282 C-169.791 75.62 -169.791 75.62 -168.359 74.945 C-167.53 74.557 -166.701 74.17 -165.847 73.77 C-163.347 72.564 -163.347 72.564 -160.754 70.886 C-158.438 69.562 -158.438 69.562 -156.453 69.996 C-155.788 70.183 -155.123 70.37 -154.438 70.562 C-151.806 69.824 -151.806 69.824 -149.188 68.625 C-148.295 68.245 -147.403 67.864 -146.484 67.473 C-145.809 67.172 -145.133 66.872 -144.438 66.562 C-145.923 65.572 -145.923 65.572 -147.438 64.562 C-145.672 63.696 -143.9 62.845 -142.125 62 C-141.139 61.524 -140.153 61.049 -139.137 60.559 C-136.438 59.562 -136.438 59.562 -133.438 60.562 C-131.27 59.688 -131.27 59.688 -129.438 58.562 C-130.428 58.233 -131.417 57.903 -132.438 57.562 C-129.917 56.375 -127.396 55.187 -124.875 54 C-124.111 53.64 -123.347 53.28 -122.559 52.909 C-116.284 49.956 -109.998 47.026 -103.707 44.105 C-101.511 43.069 -99.338 41.98 -97.191 40.844 C-94.042 39.378 -92.687 39.511 -89.438 40.562 C-89.438 39.572 -89.438 38.583 -89.438 37.562 C-87.862 36.694 -86.277 35.843 -84.688 35 C-83.365 34.287 -83.365 34.287 -82.016 33.559 C-79.438 32.562 -79.438 32.562 -77.52 33.09 C-74.944 33.675 -73.921 33.22 -71.547 32.129 C-70.838 31.81 -70.129 31.491 -69.398 31.162 C-68.669 30.82 -67.939 30.478 -67.188 30.125 C-66.442 29.787 -65.697 29.448 -64.93 29.1 C-63.094 28.264 -61.265 27.415 -59.438 26.562 C-60.201 26.913 -60.964 27.264 -61.75 27.625 C-64.438 28.562 -64.438 28.562 -67.438 27.562 C-66.554 27.187 -65.671 26.812 -64.762 26.426 C-63.562 25.914 -62.361 25.402 -61.125 24.875 C-60.491 24.605 -59.856 24.334 -59.203 24.056 C-55.27 22.371 -51.377 20.622 -47.5 18.812 C-37.029 14.032 -37.029 14.032 -32.438 15.562 C-30.617 14.936 -30.617 14.936 -28.77 13.852 C-18.519 8.407 -8.006 4.029 3.562 2.562 C0.592 2.562 -2.377 2.562 -5.438 2.562 C-3.438 0.562 -3.438 0.562 0 0 Z " fill="#ECECEC" transform="translate(268.4375,75.4375)"/>
<path d="M0 0 C5.598 5.384 5.598 5.384 6 9 C4.67 9.34 4.67 9.34 3.312 9.688 C-1.292 11.512 -3.804 14.361 -6.688 18.312 C-7.121 18.869 -7.554 19.426 -8 20 C-8.66 20 -9.32 20 -10 20 C-10 21.32 -10 22.64 -10 24 C-10.639 23.835 -11.279 23.67 -11.938 23.5 C-13.808 22.961 -13.808 22.961 -15 23 C-14.446 23.17 -13.891 23.34 -13.32 23.516 C-7.306 25.528 -7.306 25.528 -5.625 28.125 C-5.316 29.053 -5.316 29.053 -5 30 C-4.34 30.33 -3.68 30.66 -3 31 C-2.67 31.33 -2.34 31.66 -2 32 C-2.089 31.272 -2.178 30.543 -2.27 29.793 C-1.904 26.006 -0.426 24.885 2.312 22.312 C3.113 21.546 3.914 20.779 4.738 19.988 C7.52 17.543 9.383 16.113 13.062 15.438 C18.731 16.247 22.757 19.226 27 23 C27 23.66 27 24.32 27 25 C27.99 25 28.98 25 30 25 C34.565 29.13 34.565 29.13 36 32 C35.34 32 34.68 32 34 32 C34 32.66 34 33.32 34 34 C33.34 34 32.68 34 32 34 C32 34.66 32 35.32 32 36 C31.34 36 30.68 36 30 36 C29.752 36.557 29.505 37.114 29.25 37.688 C26.947 41.947 24.109 45.398 20 48 C19.34 48 18.68 48 18 48 C18 48.66 18 49.32 18 50 C12.126 53.155 6.41 55.213 0 57 C-1.485 57.495 -1.485 57.495 -3 58 C-3 58.99 -3 59.98 -3 61 C-4.621 62.711 -6.295 64.373 -8 66 C-8.722 66.928 -9.444 67.856 -10.188 68.812 C-10.786 69.534 -11.384 70.256 -12 71 C-12.66 71 -13.32 71 -14 71 C-14 71.66 -14 72.32 -14 73 C-16.375 75.625 -16.375 75.625 -19 78 C-19.66 78 -20.32 78 -21 78 C-21 78.66 -21 79.32 -21 80 C-22.667 81.667 -24.333 83.333 -26 85 C-26.66 86.031 -27.32 87.062 -28 88.125 C-30.118 91.169 -31.852 92.177 -35 94 C-35.33 94.66 -35.66 95.32 -36 96 C-37.373 98.745 -39.406 99.444 -42 101 C-42.699 102.316 -43.367 103.65 -44 105 C-45.292 106.053 -46.636 107.042 -48 108 C-52.667 111.819 -57.056 115.888 -61.336 120.133 C-61.901 120.692 -62.466 121.251 -63.048 121.827 C-64.227 122.997 -65.405 124.169 -66.582 125.341 C-68.385 127.135 -70.198 128.917 -72.012 130.699 C-73.162 131.843 -74.312 132.988 -75.461 134.133 C-76.273 134.927 -76.273 134.927 -77.102 135.737 C-79.765 138.416 -81.34 140.27 -82 144 C-84.562 146.25 -84.562 146.25 -87 148 C-87.66 147.67 -88.32 147.34 -89 147 C-88.67 147.99 -88.34 148.98 -88 150 C-92.75 153 -92.75 153 -95 153 C-95 153.66 -95 154.32 -95 155 C-99.205 156.179 -103.414 157.341 -107.625 158.5 C-108.815 158.834 -110.005 159.168 -111.23 159.512 C-112.961 159.985 -112.961 159.985 -114.727 160.469 C-115.784 160.762 -116.842 161.055 -117.932 161.357 C-121.045 162.01 -123.829 162.116 -127 162 C-127 161.67 -127 161.34 -127 161 C-125.784 160.746 -124.569 160.492 -123.316 160.23 C-121.732 159.884 -120.147 159.536 -118.562 159.188 C-117.359 158.939 -117.359 158.939 -116.131 158.686 C-114.063 158.223 -112.027 157.62 -110 157 C-109.67 156.01 -109.34 155.02 -109 154 C-108.34 154 -107.68 154 -107 154 C-107 153.34 -107 152.68 -107 152 C-106.34 152 -105.68 152 -105 152 C-105 151.34 -105 150.68 -105 150 C-104.34 150 -103.68 150 -103 150 C-102.67 148.35 -102.34 146.7 -102 145 C-100.68 145 -99.36 145 -98 145 C-98 144.34 -98 143.68 -98 143 C-97.34 143 -96.68 143 -96 143 C-95.67 142.01 -95.34 141.02 -95 140 C-94.34 140 -93.68 140 -93 140 C-92.67 138.68 -92.34 137.36 -92 136 C-91.01 136 -90.02 136 -89 136 C-89.474 134.907 -89.949 133.814 -90.438 132.688 C-91.402 130.465 -92.232 128.305 -93 126 C-93.66 126 -94.32 126 -95 126 C-96.727 124.102 -96.727 124.102 -98.625 121.625 C-99.257 120.813 -99.888 120.001 -100.539 119.164 C-102 117 -102 117 -102 115 C-102.66 115 -103.32 115 -104 115 C-104 114.01 -104 113.02 -104 112 C-104.66 112 -105.32 112 -106 112 C-107.289 110.539 -107.289 110.539 -108.625 108.625 C-109.071 107.999 -109.517 107.372 -109.977 106.727 C-111 105 -111 105 -111 103 C-111.66 103 -112.32 103 -113 103 C-114.727 101.102 -114.727 101.102 -116.625 98.625 C-117.257 97.813 -117.888 97.001 -118.539 96.164 C-120 94 -120 94 -120 92 C-120.66 92 -121.32 92 -122 92 C-123.508 90.031 -123.508 90.031 -125.125 87.5 C-125.664 86.665 -126.203 85.829 -126.758 84.969 C-127.168 84.319 -127.578 83.669 -128 83 C-125.016 79.702 -122.116 77.815 -118.125 75.875 C-117.117 75.377 -116.109 74.88 -115.07 74.367 C-112.089 73.04 -109.112 71.976 -106 71 C-104.5 72.375 -104.5 72.375 -103 74 C-103 74.66 -103 75.32 -103 76 C-101.515 76.495 -101.515 76.495 -100 77 C-98.176 78.996 -98.176 78.996 -96.312 81.438 C-95.69 82.241 -95.067 83.044 -94.426 83.871 C-93 86 -93 86 -93 88 C-92.34 88 -91.68 88 -91 88 C-90.34 89.65 -89.68 91.3 -89 93 C-88.34 93 -87.68 93 -87 93 C-85.625 94.547 -85.625 94.547 -84 96.75 C-81.84 99.633 -79.645 102.446 -77.281 105.164 C-76.821 105.697 -76.361 106.229 -75.887 106.778 C-74.97 107.834 -74.046 108.883 -73.113 109.925 C-71.844 111.398 -71.844 111.398 -70 114 C-70.495 115.485 -70.495 115.485 -71 117 C-71.66 117 -72.32 117 -73 117 C-73 117.66 -73 118.32 -73 119 C-73.66 119 -74.32 119 -75 119 C-75.268 119.598 -75.536 120.196 -75.812 120.812 C-76.999 122.998 -78.096 124.413 -80 126 C-80.66 126 -81.32 126 -82 126 C-82 126.99 -82 127.98 -82 129 C-79.589 126.654 -77.298 124.408 -75.312 121.688 C-74.879 121.131 -74.446 120.574 -74 120 C-73.34 120 -72.68 120 -72 120 C-72 119.34 -72 118.68 -72 118 C-69.625 115.375 -69.625 115.375 -67 113 C-66.34 113 -65.68 113 -65 113 C-65 112.34 -65 111.68 -65 111 C-62.625 108.375 -62.625 108.375 -60 106 C-59.34 106 -58.68 106 -58 106 C-58 105.34 -58 104.68 -58 104 C-56.546 102.777 -55.088 101.558 -53.602 100.375 C-51.408 98.492 -49.719 96.314 -48 94 C-51.502 95.401 -52.465 96.623 -54 100 C-55.5 101.75 -55.5 101.75 -57 103 C-57.66 103 -58.32 103 -59 103 C-59 103.66 -59 104.32 -59 105 C-59.66 105 -60.32 105 -61 105 C-61.371 105.959 -61.371 105.959 -61.75 106.938 C-63 109 -63 109 -65.125 109.75 C-65.744 109.832 -66.363 109.915 -67 110 C-69 105.25 -69 105.25 -69 103 C-70.458 101.375 -70.458 101.375 -72 100 C-72.99 100.495 -72.99 100.495 -74 101 C-74 100.34 -74 99.68 -74 99 C-74.66 99 -75.32 99 -76 99 C-75.505 97.515 -75.505 97.515 -75 96 C-76.207 94.161 -76.207 94.161 -77.938 92.438 C-81 89.194 -81 89.194 -81 87 C-81.66 87 -82.32 87 -83 87 C-83 86.34 -83 85.68 -83 85 C-83.66 85 -84.32 85 -85 85 C-85 84.01 -85 83.02 -85 82 C-85.495 83.485 -85.495 83.485 -86 85 C-86.66 85 -87.32 85 -88 85 C-88 84.01 -88 83.02 -88 82 C-88.66 82 -89.32 82 -90 82 C-89.505 80.515 -89.505 80.515 -89 79 C-89.619 78.918 -90.238 78.835 -90.875 78.75 C-93 78 -93 78 -94.25 75.938 C-94.498 75.298 -94.745 74.659 -95 74 C-94.34 74 -93.68 74 -93 74 C-94.32 72.68 -95.64 71.36 -97 70 C-95.899 65.765 -95.072 63.748 -91.422 61.199 C-83.765 57 -83.765 57 -81 57 C-81 56.34 -81 55.68 -81 55 C-79.378 54.162 -77.752 53.33 -76.125 52.5 C-75.22 52.036 -74.315 51.572 -73.383 51.094 C-71 50 -71 50 -69 50 C-69 49.34 -69 48.68 -69 48 C-62.25 44 -62.25 44 -60 44 C-60 43.34 -60 42.68 -60 42 C-55.615 39 -55.615 39 -53 39 C-53 38.34 -53 37.68 -53 37 C-48.615 34 -48.615 34 -46 34 C-46 33.34 -46 32.68 -46 32 C-39.25 28 -39.25 28 -37 28 C-36.505 26.515 -36.505 26.515 -36 25 C-32.938 23.812 -32.938 23.812 -30 23 C-30 22.34 -30 21.68 -30 21 C-29.01 21 -28.02 21 -27 21 C-27 20.34 -27 19.68 -27 19 C-24.439 16.704 -23.52 16 -20 16 C-20 15.34 -20 14.68 -20 14 C-17.439 11.704 -16.52 11 -13 11 C-13 10.34 -13 9.68 -13 9 C-10.862 7.373 -8.732 5.86 -6.5 4.375 C-5.88 3.955 -5.26 3.535 -4.621 3.102 C-3.085 2.062 -1.543 1.03 0 0 Z " fill="#F6F6F6" transform="translate(271,144)"/>
<path d="M0 0 C1.688 0.812 1.688 0.812 2.688 2.812 C0.962 3.724 -0.763 4.635 -2.488 5.547 C-4.62 7.026 -5.857 8.681 -7.312 10.812 C-6.669 10.754 -6.026 10.696 -5.363 10.637 C2.899 10.224 9.196 12.478 16.688 15.812 C16.688 16.472 16.688 17.132 16.688 17.812 C17.291 18.07 17.894 18.328 18.516 18.594 C22.277 20.705 24.034 23.905 25.688 27.812 C26.754 33.16 26.264 37.466 23.5 42.188 C20.076 46.945 16.593 49.967 10.809 51.473 C8.687 51.812 8.687 51.812 6.098 51.871 C-2.955 52.078 -8.895 55.335 -16.514 59.786 C-19.141 61.285 -21.845 62.61 -24.562 63.938 C-29.486 66.363 -34.272 68.983 -39.035 71.711 C-41.312 72.812 -41.312 72.812 -44.312 72.812 C-44.416 73.369 -44.519 73.926 -44.625 74.5 C-46.418 80.532 -50.295 84.271 -55.312 87.812 C-63.675 92.292 -74.153 92.067 -83.25 89.812 C-84.261 89.483 -85.271 89.153 -86.312 88.812 C-86.251 89.576 -86.189 90.339 -86.125 91.125 C-86.312 93.812 -86.312 93.812 -87.812 95.625 C-88.308 96.017 -88.802 96.409 -89.312 96.812 C-89.642 96.483 -89.972 96.153 -90.312 95.812 C-91.261 95.854 -92.21 95.895 -93.188 95.938 C-96.312 95.812 -96.312 95.812 -98.188 94.75 C-99.955 91.706 -99.681 89.249 -99.312 85.812 C-97.77 83.709 -96.631 82.972 -94.312 81.812 C-94.972 80.761 -95.632 79.709 -96.312 78.625 C-99.167 72.957 -98.996 67.017 -98.312 60.812 C-97.289 57.918 -97.289 57.918 -96.312 55.812 C-95.653 55.812 -94.993 55.812 -94.312 55.812 C-94.312 54.822 -94.312 53.833 -94.312 52.812 C-92.633 51.207 -92.633 51.207 -90.438 49.625 C-89.718 49.095 -88.999 48.565 -88.258 48.02 C-86.312 46.812 -86.312 46.812 -84.312 46.812 C-84.312 46.153 -84.312 45.493 -84.312 44.812 C-92.6 48.627 -100.849 52.469 -108.875 56.812 C-114.254 59.724 -119.663 62.56 -125.125 65.312 C-125.813 65.663 -126.502 66.014 -127.211 66.375 C-132.076 68.812 -132.076 68.812 -134.312 68.812 C-134.312 69.472 -134.312 70.132 -134.312 70.812 C-136.703 71.991 -139.099 73.156 -141.5 74.312 C-142.174 74.646 -142.847 74.98 -143.541 75.324 C-147.276 77.11 -150.07 78.274 -154.312 77.812 C-153.653 78.472 -152.993 79.132 -152.312 79.812 C-153.932 80.676 -155.559 81.528 -157.188 82.375 C-158.092 82.851 -158.997 83.326 -159.93 83.816 C-160.716 84.145 -161.502 84.474 -162.312 84.812 C-162.972 84.483 -163.632 84.153 -164.312 83.812 C-166.411 84.212 -166.411 84.212 -168.312 84.812 C-168.312 84.153 -168.312 83.493 -168.312 82.812 C-167.597 82.461 -166.882 82.109 -166.145 81.746 C-159.335 78.372 -152.657 74.846 -146.027 71.133 C-143.312 69.812 -143.312 69.812 -140.312 69.812 C-140.312 69.153 -140.312 68.493 -140.312 67.812 C-135.95 65.366 -132.286 64.31 -127.312 63.812 C-128.303 63.483 -129.292 63.153 -130.312 62.812 C-127.756 61.467 -125.193 60.136 -122.625 58.812 C-121.904 58.431 -121.183 58.049 -120.439 57.656 C-116.607 55.696 -113.739 54.254 -109.312 54.812 C-109.972 54.153 -110.632 53.493 -111.312 52.812 C-100.716 47.052 -89.988 41.66 -79.07 36.532 C-77.666 35.87 -77.666 35.87 -76.234 35.195 C-75.405 34.807 -74.576 34.42 -73.722 34.02 C-71.222 32.814 -71.222 32.814 -68.629 31.136 C-66.312 29.812 -66.312 29.812 -64.328 30.246 C-63.663 30.433 -62.998 30.62 -62.312 30.812 C-59.681 30.074 -59.681 30.074 -57.062 28.875 C-56.17 28.495 -55.278 28.114 -54.359 27.723 C-53.684 27.422 -53.008 27.122 -52.312 26.812 C-53.302 26.153 -54.293 25.493 -55.312 24.812 C-53.547 23.946 -51.775 23.095 -50 22.25 C-49.014 21.774 -48.028 21.299 -47.012 20.809 C-44.312 19.812 -44.312 19.812 -41.312 20.812 C-39.145 19.938 -39.145 19.938 -37.312 18.812 C-38.303 18.483 -39.292 18.153 -40.312 17.812 C-37.792 16.625 -35.271 15.437 -32.75 14.25 C-31.986 13.89 -31.222 13.53 -30.434 13.159 C-24.159 10.206 -17.873 7.276 -11.582 4.355 C-9.377 3.315 -7.193 2.229 -5.031 1.102 C-2.312 -0.188 -2.312 -0.188 0 0 Z " fill="#020202" transform="translate(176.3125,115.1875)"/>
<path d="M0 0 C1.688 0.812 1.688 0.812 2.688 2.812 C-4.741 7.098 -4.741 7.098 -8.312 8.812 C-8.312 9.802 -8.312 10.793 -8.312 11.812 C-8.976 12.081 -9.64 12.349 -10.324 12.625 C-15.825 15.066 -19.661 17.241 -22.547 22.637 C-24.306 27.637 -23.52 32.427 -22.75 37.562 C-22.312 40.819 -22.326 42.707 -23.312 45.812 C-25.098 47.289 -25.098 47.289 -27.375 48.438 C-28.183 48.849 -28.991 49.26 -29.824 49.684 C-33.265 51.244 -36.761 52.527 -40.312 53.812 C-41.303 54.472 -42.293 55.132 -43.312 55.812 C-44.632 55.812 -45.952 55.812 -47.312 55.812 C-48.582 54.347 -49.847 52.875 -51.031 51.34 C-54.215 47.545 -58.682 46.124 -63.312 44.812 C-68.318 44.488 -73.302 44.668 -78.312 44.812 C-79.121 44.796 -79.929 44.779 -80.762 44.762 C-87.335 44.924 -92.607 48.41 -98.184 51.551 C-103.155 54.331 -108.313 56.681 -113.502 59.022 C-117.729 60.958 -121.436 63.224 -125.312 65.812 C-127.867 66.859 -127.867 66.859 -130.188 67.562 C-130.969 67.805 -131.75 68.047 -132.555 68.297 C-133.135 68.467 -133.715 68.637 -134.312 68.812 C-134.312 69.472 -134.312 70.132 -134.312 70.812 C-136.703 71.991 -139.099 73.156 -141.5 74.312 C-142.174 74.646 -142.847 74.98 -143.541 75.324 C-147.276 77.11 -150.07 78.274 -154.312 77.812 C-153.653 78.472 -152.993 79.132 -152.312 79.812 C-153.932 80.676 -155.559 81.528 -157.188 82.375 C-158.092 82.851 -158.997 83.326 -159.93 83.816 C-160.716 84.145 -161.502 84.474 -162.312 84.812 C-162.972 84.483 -163.632 84.153 -164.312 83.812 C-166.411 84.212 -166.411 84.212 -168.312 84.812 C-168.312 84.153 -168.312 83.493 -168.312 82.812 C-167.597 82.461 -166.882 82.109 -166.145 81.746 C-159.335 78.372 -152.657 74.846 -146.027 71.133 C-143.312 69.812 -143.312 69.812 -140.312 69.812 C-140.312 69.153 -140.312 68.493 -140.312 67.812 C-135.95 65.366 -132.286 64.31 -127.312 63.812 C-128.303 63.483 -129.292 63.153 -130.312 62.812 C-127.756 61.467 -125.193 60.136 -122.625 58.812 C-121.904 58.431 -121.183 58.049 -120.439 57.656 C-116.607 55.696 -113.739 54.254 -109.312 54.812 C-109.972 54.153 -110.632 53.493 -111.312 52.812 C-100.716 47.052 -89.988 41.66 -79.07 36.532 C-77.666 35.87 -77.666 35.87 -76.234 35.195 C-75.405 34.807 -74.576 34.42 -73.722 34.02 C-71.222 32.814 -71.222 32.814 -68.629 31.136 C-66.312 29.812 -66.312 29.812 -64.328 30.246 C-63.663 30.433 -62.998 30.62 -62.312 30.812 C-59.681 30.074 -59.681 30.074 -57.062 28.875 C-56.17 28.495 -55.278 28.114 -54.359 27.723 C-53.684 27.422 -53.008 27.122 -52.312 26.812 C-53.302 26.153 -54.293 25.493 -55.312 24.812 C-53.547 23.946 -51.775 23.095 -50 22.25 C-49.014 21.774 -48.028 21.299 -47.012 20.809 C-44.312 19.812 -44.312 19.812 -41.312 20.812 C-39.145 19.938 -39.145 19.938 -37.312 18.812 C-38.303 18.483 -39.292 18.153 -40.312 17.812 C-37.792 16.625 -35.271 15.437 -32.75 14.25 C-31.986 13.89 -31.222 13.53 -30.434 13.159 C-24.159 10.206 -17.873 7.276 -11.582 4.355 C-9.377 3.315 -7.193 2.229 -5.031 1.102 C-2.312 -0.188 -2.312 -0.188 0 0 Z " fill="#F0F0F0" transform="translate(176.3125,115.1875)"/>
<path d="M0 0 C3.49 1.266 3.49 1.266 6.562 -0.062 C7.553 0.597 8.542 1.257 9.562 1.938 C9.562 2.597 9.562 3.257 9.562 3.938 C10.553 4.268 11.542 4.597 12.562 4.938 C15.865 10.342 17.068 15.6 16.215 21.832 C14.008 28.955 8.761 32.358 2.562 35.938 C-5.292 39.136 -13.497 38.357 -21.438 35.938 C-24.5 34.438 -24.5 34.438 -26.438 32.938 C-26.438 32.278 -26.438 31.618 -26.438 30.938 C-27.036 30.69 -27.634 30.442 -28.25 30.188 C-31.301 28.444 -32.881 26.405 -34.125 23.125 C-34.99 17.069 -34.913 11.328 -31.191 6.23 C-29.98 4.765 -28.713 3.347 -27.438 1.938 C-26.778 2.268 -26.118 2.597 -25.438 2.938 C-26.427 4.423 -26.427 4.423 -27.438 5.938 C-28.097 5.938 -28.757 5.938 -29.438 5.938 C-29.438 6.928 -29.438 7.917 -29.438 8.938 C-29.108 8.278 -28.778 7.618 -28.438 6.938 C-27.778 6.938 -27.118 6.938 -26.438 6.938 C-26.097 6.04 -26.097 6.04 -25.75 5.125 C-23.712 1.729 -20.966 0.418 -17.25 -0.75 C-11.381 -1.402 -5.731 -1.565 0 0 Z " fill="#BEBEBE" transform="translate(114.4375,165.0625)"/>
<path d="M0 0 C1.812 1.312 1.812 1.312 2.812 4.312 C3.803 4.643 4.792 4.972 5.812 5.312 C7.637 7.309 7.637 7.309 9.5 9.75 C10.123 10.553 10.745 11.356 11.387 12.184 C12.812 14.312 12.812 14.312 12.812 16.312 C13.472 16.312 14.132 16.312 14.812 16.312 C15.472 17.963 16.132 19.613 16.812 21.312 C17.472 21.312 18.132 21.312 18.812 21.312 C20.188 22.859 20.188 22.859 21.812 25.062 C23.973 27.946 26.168 30.758 28.531 33.477 C28.991 34.009 29.452 34.542 29.926 35.091 C30.843 36.146 31.767 37.195 32.699 38.237 C33.969 39.711 33.969 39.711 35.812 42.312 C35.483 43.303 35.153 44.293 34.812 45.312 C34.153 45.312 33.493 45.312 32.812 45.312 C32.812 45.972 32.812 46.632 32.812 47.312 C32.153 47.312 31.493 47.312 30.812 47.312 C30.544 47.911 30.276 48.509 30 49.125 C28.813 51.311 27.717 52.726 25.812 54.312 C25.153 54.312 24.493 54.312 23.812 54.312 C23.153 55.962 22.493 57.613 21.812 59.312 C21.153 59.312 20.493 59.312 19.812 59.312 C19.812 59.972 19.812 60.632 19.812 61.312 C18.822 61.642 17.833 61.972 16.812 62.312 C12.812 56.562 12.812 56.562 12.812 54.312 C12.153 54.312 11.493 54.312 10.812 54.312 C9.086 52.414 9.086 52.414 7.188 49.938 C6.556 49.125 5.924 48.313 5.273 47.477 C3.812 45.312 3.812 45.312 3.812 43.312 C3.153 43.312 2.493 43.312 1.812 43.312 C1.812 42.322 1.812 41.332 1.812 40.312 C1.153 40.312 0.493 40.312 -0.188 40.312 C-1.477 38.852 -1.477 38.852 -2.812 36.938 C-3.259 36.311 -3.705 35.685 -4.164 35.039 C-5.188 33.312 -5.188 33.312 -5.188 31.312 C-5.847 31.312 -6.507 31.312 -7.188 31.312 C-8.914 29.414 -8.914 29.414 -10.812 26.938 C-11.444 26.125 -12.076 25.313 -12.727 24.477 C-14.188 22.312 -14.188 22.312 -14.188 20.312 C-14.847 20.312 -15.507 20.312 -16.188 20.312 C-17.695 18.344 -17.695 18.344 -19.312 15.812 C-20.121 14.56 -20.121 14.56 -20.945 13.281 C-21.56 12.307 -21.56 12.307 -22.188 11.312 C-19.175 7.966 -16.239 6.122 -12.188 4.188 C-11.156 3.69 -10.125 3.192 -9.062 2.68 C-8.114 2.229 -7.165 1.777 -6.188 1.312 C-5.449 0.909 -4.71 0.506 -3.949 0.09 C-2.188 -0.688 -2.188 -0.688 0 0 Z " fill="#FFFFFF" transform="translate(165.1875,215.6875)"/>
<path d="M0 0 C3.595 2.007 6.921 4.261 10 7 C10 7.66 10 8.32 10 9 C10.99 9 11.98 9 13 9 C17.565 13.13 17.565 13.13 19 16 C18.34 16 17.68 16 17 16 C17 16.66 17 17.32 17 18 C16.34 18 15.68 18 15 18 C15 18.66 15 19.32 15 20 C14.34 20 13.68 20 13 20 C12.752 20.557 12.505 21.114 12.25 21.688 C9.947 25.947 7.109 29.398 3 32 C2.34 32 1.68 32 1 32 C1 32.66 1 33.32 1 34 C-13.309 41.684 -13.309 41.684 -19.297 40.574 C-20.14 40.29 -20.14 40.29 -21 40 C-23.494 31.27 -23.494 24.73 -21 16 C-20.34 16 -19.68 16 -19 16 C-19.089 15.272 -19.178 14.543 -19.27 13.793 C-18.904 10.006 -17.426 8.885 -14.688 6.312 C-13.887 5.546 -13.086 4.779 -12.262 3.988 C-7.987 0.23 -5.696 -0.814 0 0 Z " fill="#FFFFFF" transform="translate(288,160)"/>
<path d="M0 0 C2.779 0.691 2.779 0.691 5 1 C5 1.66 5 2.32 5 3 C5.66 3 6.32 3 7 3 C6.67 3.99 6.34 4.98 6 6 C6.309 6.577 6.619 7.155 6.938 7.75 C8.412 10.873 8.129 13.592 8 17 C8 17.33 8 17.66 8 18 C8.66 16.02 9.32 14.04 10 12 C11.336 15.036 10.916 16.262 9.875 19.5 C6.984 24.897 3.863 26.871 -1.812 28.812 C-6.603 30.148 -10.156 29.987 -15 29 C-15 28.67 -15 28.34 -15 28 C-13.77 27.927 -13.77 27.927 -12.516 27.852 C-11.438 27.777 -10.36 27.702 -9.25 27.625 C-8.183 27.555 -7.115 27.486 -6.016 27.414 C-3.198 27.027 -1.417 26.443 1 25 C0.283 25.322 -0.433 25.645 -1.172 25.977 C-7.32 28.202 -13.861 27.797 -19.875 25.312 C-23.668 23.399 -26.317 21.289 -29 18 C-29 17.34 -29 16.68 -29 16 C-29.66 16 -30.32 16 -31 16 C-31.859 5.273 -31.859 5.273 -29.062 1.5 C-19.951 -5.938 -10.101 -4.753 0 0 Z " fill="#D6D6D6" transform="translate(189,134)"/>
<path d="M0 0 C0.99 0.495 0.99 0.495 2 1 C-1.61 3.369 -5.169 4.879 -9.23 6.254 C-11.208 6.957 -11.208 6.957 -13 9 C-13.99 8.505 -13.99 8.505 -15 8 C-14.505 9.485 -14.505 9.485 -14 11 C-14.66 11.99 -15.32 12.98 -16 14 C-16.66 14 -17.32 14 -18 14 C-18 14.66 -18 15.32 -18 16 C-20.375 18.625 -20.375 18.625 -23 21 C-23.66 21 -24.32 21 -25 21 C-25 21.66 -25 22.32 -25 23 C-25.66 23 -26.32 23 -27 23 C-27 23.66 -27 24.32 -27 25 C-28.375 26.625 -28.375 26.625 -30 28 C-30.66 28 -31.32 28 -32 28 C-32 28.66 -32 29.32 -32 30 C-32.66 30 -33.32 30 -34 30 C-34.263 30.588 -34.526 31.176 -34.796 31.782 C-36.058 34.107 -37.384 35.625 -39.256 37.483 C-39.917 38.144 -40.577 38.804 -41.258 39.485 C-41.969 40.186 -42.681 40.887 -43.414 41.609 C-44.144 42.336 -44.873 43.063 -45.625 43.812 C-47.954 46.129 -50.289 48.44 -52.625 50.75 C-54.206 52.321 -55.787 53.893 -57.367 55.465 C-61.24 59.315 -65.118 63.16 -69 67 C-68.67 67.804 -68.34 68.609 -68 69.438 C-67 72 -67 72 -67 73 C-66.361 73.268 -65.721 73.536 -65.062 73.812 C-63 75 -63 75 -62 78 C-61.34 78 -60.68 78 -60 78 C-59 81 -59 81 -59 84 C-58.67 84.99 -58.34 85.98 -58 87 C-57.34 87 -56.68 87 -56 87 C-55.67 86.34 -55.34 85.68 -55 85 C-54.67 85.33 -54.34 85.66 -54 86 C-52.721 86.082 -51.442 86.165 -50.125 86.25 C-47.945 86.48 -47.945 86.48 -46 87 C-44 89.562 -44 89.562 -43 92 C-47.228 97.355 -51.372 98.138 -58 99 C-54.498 96.172 -51.377 95.094 -47 94 C-48.98 94 -50.96 94 -53 94 C-50.64 91.64 -49.221 91.509 -46 91 C-46.33 90.34 -46.66 89.68 -47 89 C-51.606 89.427 -55.716 90.146 -60.125 91.562 C-63.878 92.756 -67.025 93.314 -71 93 C-71 92.67 -71 92.34 -71 92 C-68.36 91.67 -65.72 91.34 -63 91 C-63 90.01 -63 89.02 -63 88 C-63.99 87.67 -64.98 87.34 -66 87 C-67.57 85.258 -67.57 85.258 -69.125 83.125 C-69.902 82.077 -69.902 82.077 -70.695 81.008 C-72 79 -72 79 -73 76 C-73.66 76 -74.32 76 -75 76 C-75.33 75.34 -75.66 74.68 -76 74 C-78.069 76.014 -80.13 78.036 -82.188 80.062 C-82.766 80.624 -83.344 81.185 -83.939 81.764 C-87.804 85.585 -90.917 89.526 -94 94 C-96.199 96.199 -98.561 98.074 -101 100 C-100.237 100.99 -99.474 101.98 -98.688 103 C-98.258 103.557 -97.829 104.114 -97.387 104.688 C-95.955 106.344 -95.955 106.344 -93 106 C-93 104.35 -93 102.7 -93 101 C-91.68 101.66 -90.36 102.32 -89 103 C-88.505 101.515 -88.505 101.515 -88 100 C-87.67 100.99 -87.34 101.98 -87 103 C-85.422 102.505 -85.422 102.505 -83.812 102 C-80.611 101.16 -78.259 100.802 -75 101 C-79.418 103.431 -84.185 104.6 -89.004 106 C-92.132 106.898 -92.132 106.898 -95 109 C-99.58 110.389 -104.201 111.31 -109 111 C-106.333 109.667 -103.667 108.333 -101 107 C-102.157 104.9 -102.157 104.9 -104 103 C-106.626 102.666 -106.626 102.666 -109 103 C-108.072 102.319 -108.072 102.319 -107.125 101.625 C-104.941 100.029 -104.941 100.029 -103 98 C-103 97.34 -103 96.68 -103 96 C-102.402 95.918 -101.804 95.835 -101.188 95.75 C-98.336 94.772 -97.587 93.525 -96 91 C-95.704 90.362 -95.407 89.725 -95.102 89.068 C-93.946 86.898 -92.722 85.468 -90.991 83.732 C-90.383 83.118 -89.776 82.504 -89.15 81.872 C-88.494 81.221 -87.839 80.569 -87.164 79.898 C-86.488 79.221 -85.813 78.543 -85.116 77.845 C-83.688 76.415 -82.257 74.988 -80.824 73.563 C-78.633 71.383 -76.453 69.192 -74.273 67 C-72.883 65.611 -71.493 64.223 -70.102 62.836 C-69.45 62.181 -68.799 61.526 -68.128 60.85 C-67.207 59.939 -67.207 59.939 -66.268 59.009 C-65.732 58.475 -65.196 57.941 -64.644 57.39 C-63 56 -63 56 -60.917 54.996 C-58.678 54.03 -58.678 54.03 -57.062 51.062 C-54.903 47.856 -53.267 46.891 -50 45 C-49.505 44.01 -49.505 44.01 -49 43 C-47.627 40.255 -45.594 39.556 -43 38 C-41.892 36.117 -41.892 36.117 -41 34 C-39 31.25 -39 31.25 -37 29 C-36.34 29 -35.68 29 -35 29 C-35 28.34 -35 27.68 -35 27 C-34.34 27 -33.68 27 -33 27 C-32.732 26.361 -32.464 25.721 -32.188 25.062 C-31 23 -31 23 -28 22 C-28 21.34 -28 20.68 -28 20 C-27.34 20 -26.68 20 -26 20 C-25.732 19.402 -25.464 18.804 -25.188 18.188 C-24.001 16.002 -22.904 14.587 -21 13 C-20.34 13 -19.68 13 -19 13 C-17.743 10.094 -17 8.204 -17 5 C-16.443 4.89 -15.886 4.781 -15.312 4.668 C-11.247 3.823 -7.423 2.857 -3.562 1.312 C-2.387 0.879 -1.211 0.446 0 0 Z " fill="#373737" transform="translate(285,195)"/>
<path d="M0 0 C0.33 0.66 0.66 1.32 1 2 C1.643 1.942 2.286 1.884 2.949 1.824 C11.211 1.412 17.509 3.665 25 7 C25 7.66 25 8.32 25 9 C25.603 9.258 26.207 9.516 26.828 9.781 C30.59 11.892 32.346 15.093 34 19 C35.066 24.348 34.577 28.654 31.812 33.375 C28.388 38.133 24.906 41.155 19.121 42.66 C17 43 17 43 14.41 43.059 C3.799 43.301 -4.068 48.079 -12.754 53.82 C-13.866 54.404 -13.866 54.404 -15 55 C-15.99 54.67 -16.98 54.34 -18 54 C-12.375 49.125 -12.375 49.125 -9 48 C-9 45.36 -9 42.72 -9 40 C-7.68 40.66 -6.36 41.32 -5 42 C-5 43.32 -5 44.64 -5 46 C-2.69 44.68 -0.38 43.36 2 42 C0.02 41.34 -1.96 40.68 -4 40 C-4 39.34 -4 38.68 -4 38 C-5.65 37.34 -7.3 36.68 -9 36 C-9 35.34 -9 34.68 -9 34 C-9.66 34 -10.32 34 -11 34 C-11 33.34 -11 32.68 -11 32 C-11.99 32 -12.98 32 -14 32 C-16.046 25.989 -17.547 19.91 -15.125 13.789 C-11.872 8.033 -7.911 5.204 -1.562 3.25 C-0.789 3.126 -0.789 3.126 0 3 C0 2.01 0 1.02 0 0 Z M-8.062 11.5 C-11.202 15.736 -10.401 20.997 -10 26 C-9.34 26 -8.68 26 -8 26 C-7.794 26.557 -7.588 27.114 -7.375 27.688 C-4.937 31.787 -1.517 34.259 2.688 36.312 C8.366 37.491 14.458 37.847 20 36 C17.298 37.351 14.882 37.339 11.875 37.562 C10.779 37.646 9.684 37.73 8.555 37.816 C7.712 37.877 6.869 37.938 6 38 C6 38.33 6 38.66 6 39 C13.289 40.485 19.384 39.688 25.898 35.895 C29.552 33.141 31.147 30.452 32 26 C31.505 24.02 31.505 24.02 31 22 C30.34 24.97 29.68 27.94 29 31 C29 28.52 29.035 26.04 29.125 23.562 C29.004 20.123 28.332 18.107 27 15 C27.33 14.34 27.66 13.68 28 13 C27.34 13 26.68 13 26 13 C26 12.34 26 11.68 26 11 C25.319 10.897 24.639 10.794 23.938 10.688 C21 10 21 10 17.812 8.5 C8.764 4.535 -0.378 5.227 -8.062 11.5 Z " fill="#1C1C1C" transform="translate(168,124)"/>
<path d="M0 0 C-1.634 1.708 -2.869 2.935 -5 4 C-6.88 8.417 -6.88 8.417 -6 13 C-5.01 13.33 -4.02 13.66 -3 14 C-3.33 14.66 -3.66 15.32 -4 16 C-3.67 16.66 -3.34 17.32 -3 18 C-2.01 18 -1.02 18 0 18 C0 18.99 0 19.98 0 21 C0.33 21.33 0.66 21.66 1 22 C1 22.99 1 23.98 1 25 C1.66 25 2.32 25 3 25 C2.67 24.01 2.34 23.02 2 22 C2.66 22 3.32 22 4 22 C4 22.99 4 23.98 4 25 C4.66 25 5.32 25 6 25 C6 25.66 6 26.32 6 27 C6.66 27 7.32 27 8 27 C9.727 28.969 9.727 28.969 11.625 31.5 C12.257 32.335 12.888 33.171 13.539 34.031 C14.021 34.681 14.503 35.331 15 36 C14.505 36.99 14.505 36.99 14 38 C15.03 39.144 15.03 39.144 16.875 39.875 C19.021 41.011 20.377 42.215 22 44 C21.67 44.99 21.34 45.98 21 47 C21.33 47.99 21.66 48.98 22 50 C25.628 48.134 25.628 48.134 28 45 C28.66 45 29.32 45 30 45 C30 44.34 30 43.68 30 43 C31.429 41.77 32.865 40.546 34.34 39.371 C36.246 37.841 36.246 37.841 38.75 35.25 C41 33 41 33 43 32 C42.188 33.938 42.188 33.938 41 36 C39.515 36.495 39.515 36.495 38 37 C37.298 38.315 36.635 39.651 36 41 C34.5 42.75 34.5 42.75 33 44 C32.34 44 31.68 44 31 44 C31 44.66 31 45.32 31 46 C30.34 46 29.68 46 29 46 C28.732 46.639 28.464 47.279 28.188 47.938 C27 50 27 50 24 51 C24 51.66 24 52.32 24 53 C23.34 53 22.68 53 22 53 C21.732 53.639 21.464 54.279 21.188 54.938 C20 57 20 57 17 58 C17 58.66 17 59.32 17 60 C16.34 60 15.68 60 15 60 C14.732 60.598 14.464 61.196 14.188 61.812 C13.001 63.998 11.904 65.413 10 67 C9.34 67 8.68 67 8 67 C7.34 68.32 6.68 69.64 6 71 C6 68 6 68 8.312 65.562 C9.199 64.717 10.086 63.871 11 63 C11.557 62.237 12.114 61.474 12.688 60.688 C13.121 60.131 13.554 59.574 14 59 C14.66 59 15.32 59 16 59 C16 58.34 16 57.68 16 57 C16.66 56.67 17.32 56.34 18 56 C16.495 52.66 14.556 50.026 12.25 47.188 C11.544 46.315 10.837 45.442 10.109 44.543 C8.273 42.329 6.401 40.158 4.5 38 C2 35 2 35 2 33 C1.34 33 0.68 33 0 33 C-0.66 31.35 -1.32 29.7 -2 28 C-2.66 28 -3.32 28 -4 28 C-5.288 26.336 -6.506 24.616 -7.688 22.875 C-11.08 18.095 -14.256 14.442 -19 11 C-19.99 11 -20.98 11 -22 11 C-22.66 10.67 -23.32 10.34 -24 10 C-20.093 7.265 -16.183 5.013 -11.883 2.953 C-9.81 1.953 -9.81 1.953 -7.312 0.188 C-4.434 -1.291 -3.028 -0.952 0 0 Z " fill="#9A9A9A" transform="translate(182,204)"/>
<path d="M0 0 C2.992 2.215 2.992 2.215 5.875 4.938 C6.842 5.833 7.809 6.729 8.805 7.652 C11 10 11 10 11 12 C11.66 12 12.32 12 13 12 C13 12.66 13 13.32 13 14 C11.783 14.371 10.566 14.743 9.312 15.125 C4.733 16.825 2.729 18.992 0 23 C0 23.66 0 24.32 0 25 C-7.399 28.423 -7.399 28.423 -11.086 27.449 C-14.469 25.6 -16.806 23.714 -18 20 C-18.66 20 -19.32 20 -20 20 C-20 19.34 -20 18.68 -20 18 C-20.66 18 -21.32 18 -22 18 C-21.391 14.907 -20.401 12.804 -18.562 10.25 C-18.131 9.636 -17.699 9.023 -17.254 8.391 C-16.633 7.702 -16.633 7.702 -16 7 C-15.34 7 -14.68 7 -14 7 C-13.732 6.402 -13.464 5.804 -13.188 5.188 C-10.063 -0.569 -6.272 -1.718 0 0 Z " fill="#FFFFFF" transform="translate(192,74)"/>
<path d="M0 0 C3.461 1.563 5.189 3.907 7.438 6.938 C8.278 10.019 7.934 11.949 7 15 C4.562 17.75 4.562 17.75 2 20 C1.34 20.66 0.68 21.32 0 22 C-5.663 22.681 -11.936 23.015 -17.188 20.5 C-20.283 17.749 -21.354 16.111 -22.051 12.094 C-21.941 7.576 -19.469 4.426 -16.281 1.332 C-11.452 -1.488 -5.381 -0.674 0 0 Z " fill="#F3F3F3" transform="translate(112,172)"/>
<path d="M0 0 C0.99 1.485 0.99 1.485 2 3 C1.01 3.33 0.02 3.66 -1 4 C-1 4.66 -1 5.32 -1 6 C-5.385 9 -5.385 9 -8 9 C-8 9.66 -8 10.32 -8 11 C-9.469 12.237 -9.469 12.237 -11.5 13.602 C-12.222 14.091 -12.944 14.581 -13.688 15.086 C-14.832 15.848 -14.832 15.848 -16 16.625 C-17.145 17.398 -17.145 17.398 -18.312 18.188 C-20.204 19.464 -22.1 20.735 -24 22 C-23.01 24.97 -23.01 24.97 -22 28 C-23.65 26.68 -25.3 25.36 -27 24 C-27.771 24.577 -28.542 25.155 -29.336 25.75 C-30.339 26.493 -31.342 27.235 -32.375 28 C-33.373 28.743 -34.37 29.485 -35.398 30.25 C-38 32 -38 32 -40 32 C-40 32.66 -40 33.32 -40 34 C-44.385 37 -44.385 37 -47 37 C-47 37.66 -47 38.32 -47 39 C-51.385 42 -51.385 42 -54 42 C-54 42.66 -54 43.32 -54 44 C-54.99 44 -55.98 44 -57 44 C-57 44.66 -57 45.32 -57 46 C-57.928 46.433 -58.856 46.866 -59.812 47.312 C-62.575 48.775 -63.914 49.823 -66 52 C-70.556 55 -70.556 55 -73 55 C-73 55.66 -73 56.32 -73 57 C-77.385 60 -77.385 60 -80 60 C-80 60.66 -80 61.32 -80 62 C-84.385 65 -84.385 65 -87 65 C-87 65.66 -87 66.32 -87 67 C-93.75 71 -93.75 71 -96 71 C-96 71.66 -96 72.32 -96 73 C-97.433 73.841 -98.872 74.673 -100.312 75.5 C-101.513 76.196 -101.513 76.196 -102.738 76.906 C-105 78 -105 78 -108 78 C-108 78.66 -108 79.32 -108 80 C-110.313 81.688 -110.313 81.688 -113 83 C-113.99 82.67 -114.98 82.34 -116 82 C-116.33 81.34 -116.66 80.68 -117 80 C-115.02 79.505 -115.02 79.505 -113 79 C-113 78.34 -113 77.68 -113 77 C-111.732 76.494 -110.46 75.995 -109.188 75.5 C-108.48 75.222 -107.772 74.943 -107.043 74.656 C-105 74 -105 74 -102 74 C-100.515 73.01 -100.515 73.01 -99 72 C-99.495 71.01 -99.495 71.01 -100 70 C-99.031 69.36 -99.031 69.36 -98.043 68.707 C-85.026 60.07 -72.072 51.349 -59.519 42.046 C-54.819 38.573 -50.056 35.199 -45.25 31.875 C-44.23 31.164 -44.23 31.164 -43.189 30.439 C-40.481 28.578 -38.134 27.045 -35 26 C-35 25.34 -35 24.68 -35 24 C-32.69 23.34 -30.38 22.68 -28 22 C-28 21.67 -28 21.34 -28 21 C-28 20.34 -28 19.68 -28 19 C-26.928 18.732 -25.855 18.464 -24.75 18.188 C-21.435 17.138 -19.561 16.254 -17 14 C-17.495 13.01 -17.495 13.01 -18 12 C-16.68 11.34 -15.36 10.68 -14 10 C-14 10.66 -14 11.32 -14 12 C-13.608 11.608 -13.216 11.216 -12.812 10.812 C-12.214 10.214 -11.616 9.616 -11 9 C-9.855 7.793 -9.855 7.793 -8.688 6.562 C-5.916 3.92 -3.23 2.028 0 0 Z " fill="#464646" transform="translate(298,121)"/>
<path d="M0 0 C0.681 0.206 1.361 0.412 2.062 0.625 C4.072 0.354 6.076 0.031 8.062 -0.375 C4.233 2.897 -0.213 4.734 -4.75 6.812 C-10.78 9.617 -16.726 12.499 -22.562 15.688 C-28.605 18.985 -34.768 21.939 -41.013 24.832 C-45.362 26.856 -49.581 29.004 -53.742 31.395 C-66.642 38.625 -66.642 38.625 -69.938 38.625 C-69.938 39.285 -69.938 39.945 -69.938 40.625 C-72.328 41.804 -74.724 42.968 -77.125 44.125 C-77.799 44.459 -78.472 44.793 -79.166 45.137 C-82.901 46.922 -85.695 48.086 -89.938 47.625 C-89.278 48.285 -88.618 48.945 -87.938 49.625 C-89.557 50.489 -91.184 51.341 -92.812 52.188 C-93.717 52.663 -94.622 53.139 -95.555 53.629 C-96.734 54.122 -96.734 54.122 -97.938 54.625 C-98.597 54.295 -99.257 53.965 -99.938 53.625 C-102.036 54.024 -102.036 54.024 -103.938 54.625 C-103.938 53.965 -103.938 53.305 -103.938 52.625 C-103.222 52.273 -102.507 51.921 -101.77 51.559 C-94.96 48.185 -88.282 44.658 -81.652 40.945 C-78.938 39.625 -78.938 39.625 -75.938 39.625 C-75.938 38.965 -75.938 38.305 -75.938 37.625 C-71.575 35.178 -67.911 34.122 -62.938 33.625 C-63.928 33.295 -64.917 32.965 -65.938 32.625 C-63.381 31.279 -60.818 29.948 -58.25 28.625 C-57.529 28.243 -56.808 27.862 -56.064 27.469 C-52.232 25.509 -49.364 24.066 -44.938 24.625 C-45.597 23.965 -46.257 23.305 -46.938 22.625 C-36.341 16.864 -25.613 11.473 -14.695 6.344 C-13.291 5.683 -13.291 5.683 -11.859 5.008 C-11.03 4.62 -10.201 4.232 -9.347 3.833 C-6.847 2.626 -6.847 2.626 -4.251 0.953 C-1.938 -0.375 -1.938 -0.375 0 0 Z " fill="#101010" transform="translate(111.9375,145.375)"/>
<path d="M0 0 C0.66 0 1.32 0 2 0 C2 0.66 2 1.32 2 2 C2.66 2 3.32 2 4 2 C4 2.66 4 3.32 4 4 C4.681 4.268 5.361 4.536 6.062 4.812 C9.397 6.161 12.697 7.575 16 9 C13.455 11.969 10.51 13.362 7 15 C6.67 13.68 6.34 12.36 6 11 C5.67 11 5.34 11 5 11 C5 12.65 5 14.3 5 16 C-0.357 19.075 -5.8 21.965 -11.312 24.75 C-12.484 25.343 -13.656 25.936 -14.863 26.547 C-17.307 27.679 -19.374 28.507 -22 29 C-22.984 24.942 -23.039 21.165 -23 17 C-5.851 8.234 -5.851 8.234 3 5 C2.01 5 1.02 5 0 5 C0 3.35 0 1.7 0 0 Z " fill="#FFFFFF" transform="translate(155,156)"/>
<path d="M0 0 C2.955 1.839 5.089 3.857 5.957 7.234 C5.883 11.383 5.628 13.485 2.832 16.609 C-1.234 18.907 -4.657 19.896 -9.27 18.617 C-11.221 17.893 -13.136 17.071 -15.043 16.234 C-15.043 15.574 -15.043 14.914 -15.043 14.234 C-15.703 14.234 -16.363 14.234 -17.043 14.234 C-17.043 13.574 -17.043 12.914 -17.043 12.234 C-17.703 12.234 -18.363 12.234 -19.043 12.234 C-19.802 4.345 -19.802 4.345 -17.293 0.672 C-11.916 -1.707 -5.584 -2.093 0 0 Z " fill="#FFFFFF" transform="translate(184.04296875,137.765625)"/>
<path d="M0 0 C0.33 0.99 0.66 1.98 1 3 C1.66 3 2.32 3 3 3 C4.396 4.765 5.718 6.588 7 8.438 C9.459 12.327 9.459 12.327 13 15 C13 15.99 13 16.98 13 18 C11.866 18.266 10.731 18.531 9.562 18.805 C8.042 19.161 6.521 19.518 5 19.875 C4.256 20.049 3.512 20.223 2.746 20.402 C2.005 20.576 1.264 20.75 0.5 20.93 C-0.246 21.103 -0.993 21.277 -1.762 21.456 C-3.25 21.818 -4.732 22.204 -6.207 22.614 C-9.901 23.634 -12.342 24.138 -16 23 C-16 22.34 -16 21.68 -16 21 C-16.66 21 -17.32 21 -18 21 C-14.42 12.76 -6.366 6.182 0 0 Z " fill="#FFFFFF" transform="translate(209,268)"/>
<path d="M0 0 C0.66 0.99 1.32 1.98 2 3 C-3.75 5 -3.75 5 -6 5 C-6 5.66 -6 6.32 -6 7 C-33.234 15.436 -33.234 15.436 -40 15 C-40.33 14.34 -40.66 13.68 -41 13 C-41.33 13.66 -41.66 14.32 -42 15 C-42.99 15 -43.98 15 -45 15 C-45.33 15.99 -45.66 16.98 -46 18 C-48.062 18.688 -48.062 18.688 -50 19 C-50.454 18.216 -50.907 17.433 -51.375 16.625 C-52.884 13.963 -52.884 13.963 -55 12 C-51.827 8.464 -49.833 6.414 -45 6 C-44.67 6.66 -44.34 7.32 -44 8 C-38.931 7.554 -34.149 6.863 -29.223 5.531 C-26.54 4.89 -23.851 4.48 -21.125 4.062 C-16.324 3.304 -11.85 2.157 -7.254 0.586 C-4.683 -0.082 -2.642 -0.309 0 0 Z " fill="#E1E1E1" transform="translate(238,283)"/>
<path d="M0 0 C0.66 0.33 1.32 0.66 2 1 C2.124 1.969 2.248 2.939 2.375 3.938 C2.655 7.017 2.655 7.017 4.625 8.25 C7.733 9.231 10.86 10.128 14 11 C14.66 11.33 15.32 11.66 16 12 C15.67 12.66 15.34 13.32 15 14 C14.01 13.34 13.02 12.68 12 12 C8.803 11.077 8.803 11.077 5 12 C-0.919 16.085 -5.142 19.918 -7 27 C-7.66 27 -8.32 27 -9 27 C-9.33 28.32 -9.66 29.64 -10 31 C-9.938 30.093 -9.876 29.185 -9.812 28.25 C-10.024 24.58 -10.294 23.444 -13 21 C-15.322 20.295 -17.656 19.628 -20 19 C-21.938 17.375 -21.938 17.375 -23 16 C-22.237 16.309 -21.474 16.619 -20.688 16.938 C-18.812 17.679 -16.913 18.362 -15 19 C-15 17.68 -15 16.36 -15 15 C-14.34 15 -13.68 15 -13 15 C-12.732 14.402 -12.464 13.804 -12.188 13.188 C-11.001 11.002 -9.904 9.587 -8 8 C-7.34 8 -6.68 8 -6 8 C-5.67 7.01 -5.34 6.02 -5 5 C-2.438 3.812 -2.438 3.812 0 3 C0 2.01 0 1.02 0 0 Z " fill="#949494" transform="translate(276,149)"/>
<path d="M0 0 C5.598 5.384 5.598 5.384 6 9 C4.67 9.34 4.67 9.34 3.312 9.688 C-1.292 11.512 -3.804 14.361 -6.688 18.312 C-7.121 18.869 -7.554 19.426 -8 20 C-8.66 20 -9.32 20 -10 20 C-10 21.32 -10 22.64 -10 24 C-14.644 23.107 -18.764 21.443 -21.875 17.812 C-22.246 17.214 -22.618 16.616 -23 16 C-22.01 16 -21.02 16 -20 16 C-20 15.34 -20 14.68 -20 14 C-17.439 11.704 -16.52 11 -13 11 C-13 10.34 -13 9.68 -13 9 C-10.862 7.373 -8.732 5.86 -6.5 4.375 C-5.88 3.955 -5.26 3.535 -4.621 3.102 C-3.085 2.062 -1.543 1.03 0 0 Z " fill="#FFFFFF" transform="translate(271,144)"/>
<path d="M0 0 C1.32 0.66 2.64 1.32 4 2 C3.67 2.66 3.34 3.32 3 4 C4.041 5.163 4.041 5.163 6 5.875 C8 7 8 7 9 10 C9.66 10 10.32 10 11 10 C12 13 12 13 12 16 C12.33 16.99 12.66 17.98 13 19 C13.66 19 14.32 19 15 19 C15.33 18.34 15.66 17.68 16 17 C16.33 17.33 16.66 17.66 17 18 C18.279 18.082 19.558 18.165 20.875 18.25 C23.055 18.48 23.055 18.48 25 19 C27 21.562 27 21.562 28 24 C23.772 29.355 19.628 30.138 13 31 C16.502 28.172 19.623 27.094 24 26 C22.02 26 20.04 26 18 26 C20.36 23.64 21.779 23.509 25 23 C24.67 22.34 24.34 21.68 24 21 C19.394 21.427 15.284 22.146 10.875 23.562 C7.122 24.756 3.975 25.314 0 25 C0 24.67 0 24.34 0 24 C3.96 23.505 3.96 23.505 8 23 C8 22.01 8 21.02 8 20 C7.01 19.67 6.02 19.34 5 19 C3.43 17.258 3.43 17.258 1.875 15.125 C1.098 14.077 1.098 14.077 0.305 13.008 C-1 11 -1 11 -2 8 C-2.66 8 -3.32 8 -4 8 C-3.401 4.644 -2.154 2.622 0 0 Z " fill="#CBCBCB" transform="translate(214,263)"/>
<path d="M0 0 C0.99 0.495 0.99 0.495 2 1 C-1.61 3.369 -5.169 4.879 -9.23 6.254 C-11.208 6.957 -11.208 6.957 -13 9 C-13.66 8.67 -14.32 8.34 -15 8 C-14.505 9.485 -14.505 9.485 -14 11 C-14.66 11.99 -15.32 12.98 -16 14 C-16.66 14 -17.32 14 -18 14 C-18 14.66 -18 15.32 -18 16 C-20.375 18.625 -20.375 18.625 -23 21 C-23.66 21 -24.32 21 -25 21 C-25 21.66 -25 22.32 -25 23 C-25.66 23 -26.32 23 -27 23 C-27 23.66 -27 24.32 -27 25 C-28.375 26.625 -28.375 26.625 -30 28 C-30.66 28 -31.32 28 -32 28 C-32 28.66 -32 29.32 -32 30 C-32.66 30 -33.32 30 -34 30 C-34.269 30.594 -34.538 31.188 -34.816 31.799 C-36.001 34.002 -37.191 35.444 -38.949 37.208 C-39.543 37.808 -40.137 38.409 -40.749 39.027 C-41.389 39.663 -42.029 40.298 -42.688 40.953 C-43.346 41.613 -44.004 42.274 -44.682 42.954 C-46.072 44.345 -47.464 45.733 -48.858 47.119 C-50.999 49.249 -53.129 51.39 -55.258 53.531 C-56.609 54.881 -57.96 56.23 -59.312 57.578 C-59.952 58.222 -60.592 58.865 -61.251 59.529 C-65.77 64 -65.77 64 -68 64 C-66.542 60.597 -64.682 58.529 -62 56 C-61.175 55.175 -60.35 54.35 -59.5 53.5 C-46 40 -46 40 -44.566 38.637 C-42.22 36.185 -40.361 33.41 -38.402 30.645 C-37.708 29.83 -37.708 29.83 -37 29 C-36.34 29 -35.68 29 -35 29 C-35 28.34 -35 27.68 -35 27 C-34.34 27 -33.68 27 -33 27 C-32.732 26.361 -32.464 25.721 -32.188 25.062 C-31 23 -31 23 -28 22 C-28 21.34 -28 20.68 -28 20 C-27.34 20 -26.68 20 -26 20 C-25.732 19.402 -25.464 18.804 -25.188 18.188 C-24.001 16.002 -22.904 14.587 -21 13 C-20.34 13 -19.68 13 -19 13 C-17.743 10.094 -17 8.204 -17 5 C-16.443 4.89 -15.886 4.781 -15.312 4.668 C-11.247 3.823 -7.423 2.857 -3.562 1.312 C-2.387 0.879 -1.211 0.446 0 0 Z " fill="#131313" transform="translate(285,195)"/>
<path d="M0 0 C2.169 0.506 4 1 6 2 C6 2.66 6 3.32 6 4 C6.99 4.33 7.98 4.66 9 5 C12.303 10.405 13.506 15.662 12.652 21.895 C10.445 29.018 5.199 32.421 -1 36 C-8.855 39.198 -17.06 38.419 -25 36 C-28.062 34.5 -28.062 34.5 -30 33 C-30 32.34 -30 31.68 -30 31 C-30.598 30.752 -31.196 30.505 -31.812 30.25 C-34.864 28.506 -36.443 26.468 -37.688 23.188 C-38.553 17.132 -38.475 11.391 -34.754 6.293 C-33.543 4.828 -32.275 3.41 -31 2 C-30.34 2.33 -29.68 2.66 -29 3 C-29.99 4.485 -29.99 4.485 -31 6 C-31.66 6 -32.32 6 -33 6 C-35.929 13.14 -35.929 19.86 -33 27 C-32.34 27 -31.68 27 -31 27 C-30.649 27.598 -30.299 28.196 -29.938 28.812 C-26.974 32.158 -23.204 32.804 -19 34 C-17.515 34.495 -17.515 34.495 -16 35 C-9.336 35.694 -4.135 33.433 2 31 C2.99 30.67 3.98 30.34 5 30 C6.219 27.496 6.219 27.496 7 25 C7.66 25 8.32 25 9 25 C9 19.39 9 13.78 9 8 C8.34 8 7.68 8 7 8 C6.773 7.216 6.546 6.433 6.312 5.625 C5.219 2.781 5.219 2.781 2.375 1.688 C1.591 1.461 0.808 1.234 0 1 C0 0.67 0 0.34 0 0 Z " fill="#FFFFFF" transform="translate(118,165)"/>
<path d="M0 0 C-10.714 5.907 -21.657 11.253 -32.715 16.484 C-37.175 18.596 -41.596 20.774 -46 23 C-46.33 22.34 -46.66 21.68 -47 21 C-46.34 20.67 -45.68 20.34 -45 20 C-45.66 19.34 -46.32 18.68 -47 18 C-46.01 18 -45.02 18 -44 18 C-43.67 15.36 -43.34 12.72 -43 10 C-42.34 10.66 -41.68 11.32 -41 12 C-40.67 9.03 -40.34 6.06 -40 3 C-40.66 3 -41.32 3 -42 3 C-41.67 2.34 -41.34 1.68 -41 1 C-39.5 2.188 -39.5 2.188 -38 4 C-37.906 6.613 -37.906 6.613 -38 9 C-33.196 10.937 -28.656 11.965 -23.647 10.146 C-18.591 7.78 -13.798 4.971 -8.993 2.139 C-2.8 -1.4 -2.8 -1.4 0 0 Z " fill="#090909" transform="translate(50,166)"/>
<path d="M0 0 C1.238 0.041 2.475 0.083 3.75 0.125 C0.14 3.076 -3.82 5.114 -7.938 7.25 C-9.455 8.041 -10.972 8.833 -12.488 9.625 C-13.269 10.032 -14.05 10.44 -14.854 10.859 C-17.264 12.132 -19.655 13.436 -22.043 14.75 C-22.811 15.169 -23.579 15.588 -24.37 16.019 C-25.852 16.828 -27.33 17.645 -28.803 18.469 C-30.579 19.431 -32.412 20.288 -34.25 21.125 C-35.24 20.795 -36.23 20.465 -37.25 20.125 C-39.393 20.514 -39.393 20.514 -41.25 21.125 C-38.563 17.961 -35.127 16.304 -31.5 14.438 C-30.155 13.733 -28.81 13.029 -27.465 12.324 C-26.772 11.964 -26.08 11.603 -25.367 11.232 C-21.919 9.429 -18.492 7.588 -15.062 5.75 C-12.795 4.536 -10.524 3.328 -8.25 2.125 C-7.537 1.723 -6.824 1.321 -6.09 0.906 C-3.927 -0.012 -2.338 -0.078 0 0 Z " fill="#4A4A4A" transform="translate(155.25,216.875)"/>
<path d="M0 0 C6.216 0.179 10.666 4.092 15.562 7.562 C16.758 8.365 17.956 9.165 19.156 9.961 C20.355 10.765 21.553 11.569 22.75 12.375 C23.327 12.76 23.904 13.144 24.499 13.541 C25.89 14.497 27.232 15.524 28.562 16.562 C28.562 17.222 28.562 17.882 28.562 18.562 C29.326 18.789 30.089 19.016 30.875 19.25 C34.201 20.874 35.208 22.135 36.562 25.562 C36 28.312 36 28.312 34.562 30.562 C32.438 31.375 32.438 31.375 30.562 31.562 C31.078 31.15 31.594 30.737 32.125 30.312 C33.774 28.682 33.774 28.682 33.562 26.562 C32.186 23.809 30.195 23.048 27.562 21.562 C27.562 20.903 27.562 20.243 27.562 19.562 C26.884 19.346 26.206 19.129 25.508 18.906 C22.358 17.469 20.041 15.715 17.346 13.575 C10.719 8.322 5.311 4.799 -3.438 4.562 C-2.118 3.903 -0.798 3.243 0.562 2.562 C-1.418 2.562 -3.397 2.562 -5.438 2.562 C-3.438 0.562 -3.438 0.562 0 0 Z " fill="#262626" transform="translate(268.4375,75.4375)"/>
<path d="M0 0 C0.495 1.485 0.495 1.485 1 3 C1.66 3.33 2.32 3.66 3 4 C2.394 3.856 1.788 3.711 1.164 3.562 C-8.162 1.497 -17.195 0.542 -26 5 C-27.923 7.029 -27.923 7.029 -29 9 C-29.66 9 -30.32 9 -31 9 C-31.66 10.65 -32.32 12.3 -33 14 C-33.33 13.34 -33.66 12.68 -34 12 C-33.062 9.875 -33.062 9.875 -32 8 C-31.34 8 -30.68 8 -30 8 C-30 7.01 -30 6.02 -30 5 C-31.176 6.485 -31.176 6.485 -32.375 8 C-33.241 8.99 -34.108 9.98 -35 11 C-35.66 11 -36.32 11 -37 11 C-37 10.01 -37 9.02 -37 8 C-36.34 8 -35.68 8 -35 8 C-35 7.01 -35 6.02 -35 5 C-26.22 -4.857 -11.637 -3.879 0 0 Z " fill="#494949" transform="translate(117,163)"/>
<path d="M0 0 C1.688 0.812 1.688 0.812 2.688 2.812 C0.962 3.789 -0.763 4.766 -2.488 5.742 C-4.132 6.707 -5.727 7.755 -7.312 8.812 C-9.938 9 -9.938 9 -12.312 8.812 C-12.642 8.483 -12.972 8.153 -13.312 7.812 C-15.292 8.802 -15.292 8.802 -17.312 9.812 C-16.653 10.142 -15.993 10.472 -15.312 10.812 C-17.871 12.133 -20.434 13.444 -23 14.75 C-23.721 15.123 -24.442 15.496 -25.186 15.881 C-32.538 19.608 -32.538 19.608 -36.312 19.812 C-38.625 18.875 -38.625 18.875 -40.312 17.812 C-37.792 16.625 -35.271 15.437 -32.75 14.25 C-31.604 13.71 -31.604 13.71 -30.434 13.159 C-24.159 10.206 -17.873 7.276 -11.582 4.355 C-9.377 3.315 -7.193 2.229 -5.031 1.102 C-2.312 -0.188 -2.312 -0.188 0 0 Z " fill="#2B2B2B" transform="translate(176.3125,115.1875)"/>
<path d="M0 0 C-0.99 0.33 -1.98 0.66 -3 1 C-3.66 1.99 -4.32 2.98 -5 4 C-7.548 5.325 -10.066 6.528 -12.688 7.688 C-19.233 10.665 -25.615 13.827 -31.913 17.298 C-43.289 23.519 -43.289 23.519 -49 23 C-46.669 20.38 -44.374 19.049 -41.203 17.582 C-40.251 17.136 -39.299 16.69 -38.318 16.23 C-36.799 15.528 -36.799 15.528 -35.25 14.812 C-26.994 10.937 -18.872 6.921 -10.863 2.559 C-9.918 2.044 -8.974 1.53 -8 1 C-7.256 0.591 -6.512 0.183 -5.746 -0.238 C-3.484 -1.225 -2.277 -0.813 0 0 Z " fill="#707070" transform="translate(114,146)"/>
<path d="M0 0 C-2.881 1.921 -4.844 2.668 -8.125 3.625 C-15.09 5.707 -22.015 7.905 -28.938 10.125 C-30.028 10.474 -31.118 10.823 -32.241 11.182 C-38.242 13.098 -38.242 13.098 -44.201 15.136 C-47.061 16.019 -48.258 16.055 -51 15 C-46.804 12.161 -42.698 10.876 -37.875 9.562 C-32.952 8.173 -28.1 6.75 -23.312 4.938 C-19.105 3.363 -14.866 1.98 -10.562 0.688 C-8.832 0.167 -8.832 0.167 -7.066 -0.363 C-4.161 -0.967 -2.726 -1.038 0 0 Z " fill="#FFFFFF" transform="translate(239,289)"/>
<path d="M0 0 C0.66 0.99 1.32 1.98 2 3 C1.01 3.33 0.02 3.66 -1 4 C-1 4.66 -1 5.32 -1 6 C-5.385 9 -5.385 9 -8 9 C-8 9.66 -8 10.32 -8 11 C-9.469 12.237 -9.469 12.237 -11.5 13.602 C-12.583 14.336 -12.583 14.336 -13.688 15.086 C-14.451 15.594 -15.214 16.102 -16 16.625 C-16.763 17.141 -17.526 17.656 -18.312 18.188 C-20.204 19.464 -22.1 20.735 -24 22 C-23.34 23.98 -22.68 25.96 -22 28 C-23.65 26.68 -25.3 25.36 -27 24 C-28.32 24.99 -29.64 25.98 -31 27 C-31.66 26.67 -32.32 26.34 -33 26 C-32.505 24.515 -32.505 24.515 -32 23 C-29.938 22.312 -29.938 22.312 -28 22 C-28 21.67 -28 21.34 -28 21 C-28 20.34 -28 19.68 -28 19 C-26.928 18.732 -25.855 18.464 -24.75 18.188 C-21.435 17.138 -19.561 16.254 -17 14 C-17.33 13.34 -17.66 12.68 -18 12 C-16.68 11.34 -15.36 10.68 -14 10 C-14 10.66 -14 11.32 -14 12 C-13.608 11.608 -13.216 11.216 -12.812 10.812 C-12.214 10.214 -11.616 9.616 -11 9 C-10.237 8.196 -9.474 7.391 -8.688 6.562 C-5.916 3.92 -3.23 2.028 0 0 Z " fill="#0B0B0B" transform="translate(298,121)"/>
<path d="M0 0 C1.32 0 2.64 0 4 0 C4.33 0.66 4.66 1.32 5 2 C6.459 1.859 7.917 1.712 9.375 1.562 C10.187 1.481 10.999 1.4 11.836 1.316 C14.043 1.109 14.043 1.109 16 0 C18 -0.04 20 -0.043 22 0 C22 0.33 22 0.66 22 1 C17.05 2.32 12.1 3.64 7 5 C7 6.32 7 7.64 7 9 C6.01 9 5.02 9 4 9 C3.67 9.99 3.34 10.98 3 12 C0.938 12.688 0.938 12.688 -1 13 C-1.454 12.216 -1.907 11.433 -2.375 10.625 C-3.884 7.963 -3.884 7.963 -6 6 C-4 4 -2 2 0 0 Z " fill="#737373" transform="translate(189,289)"/>
<path d="M0 0 C0.722 0.371 1.444 0.743 2.188 1.125 C-1.312 3.458 -4.919 5.04 -8.754 6.746 C-10.796 7.667 -12.825 8.618 -14.84 9.598 C-15.8 10.06 -16.761 10.523 -17.75 11 C-18.625 11.431 -19.501 11.861 -20.402 12.305 C-23.123 13.231 -24.141 12.982 -26.812 12.125 C-28.822 12.396 -30.826 12.719 -32.812 13.125 C-30.064 10.909 -27.553 9.48 -24.25 8.25 C-19.529 6.434 -14.944 4.402 -10.355 2.273 C-9.516 1.894 -8.677 1.515 -7.812 1.125 C-6.939 0.728 -6.065 0.331 -5.164 -0.078 C-2.812 -0.875 -2.812 -0.875 0 0 Z " fill="#323232" transform="translate(233.8125,90.875)"/>
<path d="M0 0 C0.66 0.33 1.32 0.66 2 1 C-1.61 3.369 -5.169 4.879 -9.23 6.254 C-11.208 6.957 -11.208 6.957 -13 9 C-13.66 8.67 -14.32 8.34 -15 8 C-14.67 8.99 -14.34 9.98 -14 11 C-14.99 12.485 -14.99 12.485 -16 14 C-16.66 14 -17.32 14 -18 14 C-18 14.66 -18 15.32 -18 16 C-20.375 18.625 -20.375 18.625 -23 21 C-23.66 21 -24.32 21 -25 21 C-25 21.66 -25 22.32 -25 23 C-25.66 23 -26.32 23 -27 23 C-27 23.66 -27 24.32 -27 25 C-28.98 25.66 -30.96 26.32 -33 27 C-32.188 25.062 -32.188 25.062 -31 23 C-30.01 22.67 -29.02 22.34 -28 22 C-28 21.34 -28 20.68 -28 20 C-27.34 20 -26.68 20 -26 20 C-25.732 19.402 -25.464 18.804 -25.188 18.188 C-24.001 16.002 -22.904 14.587 -21 13 C-20.34 13 -19.68 13 -19 13 C-17.743 10.094 -17 8.204 -17 5 C-16.443 4.89 -15.886 4.781 -15.312 4.668 C-11.247 3.823 -7.423 2.857 -3.562 1.312 C-2.387 0.879 -1.211 0.446 0 0 Z M-35 27 C-34.34 27 -33.68 27 -33 27 C-33.33 27.66 -33.66 28.32 -34 29 C-34.33 28.34 -34.66 27.68 -35 27 Z " fill="#2B2B2B" transform="translate(285,195)"/>
<path d="M0 0 C0.66 1.32 1.32 2.64 2 4 C1.34 4 0.68 4 0 4 C0 4.66 0 5.32 0 6 C-6.75 10 -6.75 10 -9 10 C-9 10.66 -9 11.32 -9 12 C-10.433 12.841 -11.872 13.673 -13.312 14.5 C-14.113 14.964 -14.914 15.428 -15.738 15.906 C-18 17 -18 17 -21 17 C-21 17.66 -21 18.32 -21 19 C-23.312 20.688 -23.312 20.688 -26 22 C-26.99 21.67 -27.98 21.34 -29 21 C-29.33 20.34 -29.66 19.68 -30 19 C-28.68 18.67 -27.36 18.34 -26 18 C-26 17.34 -26 16.68 -26 16 C-24.732 15.494 -23.46 14.995 -22.188 14.5 C-21.48 14.222 -20.772 13.943 -20.043 13.656 C-18 13 -18 13 -15 13 C-14.01 12.34 -13.02 11.68 -12 11 C-12.33 10.34 -12.66 9.68 -13 9 C-11.718 8.151 -11.718 8.151 -10.41 7.285 C-9.294 6.544 -8.178 5.803 -7.062 5.062 C-6.499 4.689 -5.935 4.316 -5.354 3.932 C-2.54 2.14 -2.54 2.14 0 0 Z " fill="#0C0C0C" transform="translate(211,182)"/>
<path d="M0 0 C-1.671 3.343 -5.37 4.314 -8.625 5.875 C-10.035 6.558 -11.444 7.243 -12.852 7.93 C-13.546 8.267 -14.24 8.605 -14.956 8.953 C-16.944 9.971 -18.837 11.085 -20.746 12.242 C-25.027 14.555 -27.261 14.333 -32 14 C-28.571 11.091 -25.234 8.952 -21.188 7 C-17.634 5.284 -14.143 3.528 -10.688 1.625 C-6.973 -0.26 -4.122 -0.343 0 0 Z " fill="#4A4A4A" transform="translate(50,274)"/>
<path d="M0 0 C2.562 0.25 2.562 0.25 5 1 C6.509 4.019 6.175 6.673 6 10 C5.01 11.485 5.01 11.485 4 13 C1.625 12.688 1.625 12.688 -1 12 C-3 9 -3 9 -2.75 5.438 C-2 2 -2 2 0 0 Z " fill="#000000" transform="translate(255,293)"/>
<path d="M0 0 C1.509 3.019 1.175 5.673 1 9 C0.01 10.485 0.01 10.485 -1 12 C-3.375 11.688 -3.375 11.688 -6 11 C-8.807 6.789 -7.945 4.884 -7 0 C-4.302 -1.349 -2.848 -0.803 0 0 Z " fill="#000000" transform="translate(270,294)"/>
<path d="M0 0 C1.525 3.05 1.236 5.642 1 9 C-0.25 11 -0.25 11 -2 12 C-4.062 11.875 -4.062 11.875 -6 11 C-8.807 6.789 -7.945 4.884 -7 0 C-4.302 -1.349 -2.848 -0.803 0 0 Z " fill="#000000" transform="translate(280,294)"/>
<path d="M0 0 C1.32 0.66 2.64 1.32 4 2 C4 2.66 4 3.32 4 4 C6.02 3.398 8.021 2.727 10 2 C10.33 1.34 10.66 0.68 11 0 C11.33 0.33 11.66 0.66 12 1 C13.279 1.082 14.558 1.165 15.875 1.25 C18.055 1.48 18.055 1.48 20 2 C22 4.562 22 4.562 23 7 C18.772 12.355 14.628 13.138 8 14 C11.502 11.172 14.623 10.094 19 9 C17.02 9 15.04 9 13 9 C15.36 6.64 16.779 6.509 20 6 C19.67 5.34 19.34 4.68 19 4 C14.394 4.427 10.284 5.146 5.875 6.562 C2.122 7.756 -1.025 8.314 -5 8 C-5 7.67 -5 7.34 -5 7 C-2.36 6.67 0.28 6.34 3 6 C3 5.01 3 4.02 3 3 C2.01 2.67 1.02 2.34 0 2 C0 1.34 0 0.68 0 0 Z " fill="#060606" transform="translate(219,280)"/>
<path d="M0 0 C2.33 0.932 3.759 1.69 5.312 3.688 C6.406 7.366 6.187 9.314 5 13 C2.246 15.703 -0.836 17.806 -4 20 C-5.361 21.237 -5.361 21.237 -6.75 22.5 C-9 24 -9 24 -11.812 23.75 C-12.534 23.502 -13.256 23.255 -14 23 C-11.17 20.025 -8.239 17.6 -4.875 15.25 C-4.006 14.636 -3.137 14.023 -2.242 13.391 C0 12 0 12 2 12 C2 11.34 2 10.68 2 10 C2.66 10 3.32 10 4 10 C2.998 6.207 2.19 3.285 0 0 Z " fill="#232323" transform="translate(313,98)"/>
<path d="M0 0 C1.145 0.34 1.145 0.34 2.312 0.688 C1.983 1.678 1.652 2.668 1.312 3.688 C1.312 3.027 1.312 2.368 1.312 1.688 C-0.007 1.688 -1.327 1.688 -2.688 1.688 C-1.296 4.471 0.468 4.666 3.312 5.688 C3.438 8.062 3.438 8.062 3.312 10.688 C2.652 11.348 1.993 12.007 1.312 12.688 C-1.188 12.5 -1.188 12.5 -3.688 11.688 C-6 8.218 -6.112 6.765 -5.688 2.688 C-3.956 -0.138 -3.321 -0.386 0 0 Z " fill="#000000" transform="translate(306.6875,293.3125)"/>
<path d="M0 0 C1.354 6.277 1.354 6.277 -0.438 9.938 C-1.211 10.958 -1.211 10.958 -2 12 C-4.169 11.494 -6 11 -8 10 C-8 9.34 -8 8.68 -8 8 C-5.69 8.33 -3.38 8.66 -1 9 C-2.176 8.567 -2.176 8.567 -3.375 8.125 C-6 7 -6 7 -8 5 C-7.75 2.438 -7.75 2.438 -7 0 C-4.333 -1.333 -2.833 -0.671 0 0 Z " fill="#000000" transform="translate(299,294)"/>
<path d="M0 0 C0.66 0.33 1.32 0.66 2 1 C2 1.66 2 2.32 2 3 C3.052 2.67 4.104 2.34 5.188 2 C8.389 1.16 10.741 0.802 14 1 C9.582 3.431 4.815 4.6 -0.004 6 C-3.132 6.898 -3.132 6.898 -6 9 C-10.58 10.389 -15.201 11.31 -20 11 C-16 9 -16 9 -12 7 C-12 6.01 -12 5.02 -12 4 C-11.67 4 -11.34 4 -11 4 C-10.67 3.34 -10.34 2.68 -10 2 C-9.567 2.66 -9.134 3.32 -8.688 4 C-7.852 4.99 -7.852 4.99 -7 6 C-6.01 6 -5.02 6 -4 6 C-4 4.35 -4 2.7 -4 1 C-2.68 1.66 -1.36 2.32 0 3 C0 2.01 0 1.02 0 0 Z " fill="#030303" transform="translate(196,295)"/>
<path d="M0 0 C1.32 0.66 2.64 1.32 4 2 C4.188 4.875 4.188 4.875 4 8 C1 10 1 10 -3 10 C-3.33 10.99 -3.66 11.98 -4 13 C-6.504 15.043 -6.504 15.043 -9.562 17.188 C-10.574 17.903 -11.586 18.618 -12.629 19.355 C-13.411 19.898 -14.194 20.441 -15 21 C-15.33 20.34 -15.66 19.68 -16 19 C-15.469 18.636 -14.938 18.273 -14.391 17.898 C-9.804 14.634 -6.947 11.761 -4 7 C-3.34 7 -2.68 7 -2 7 C-2 6.34 -2 5.68 -2 5 C-1.34 5 -0.68 5 0 5 C0 3.68 0 2.36 0 1 C0 0.67 0 0.34 0 0 Z " fill="#262626" transform="translate(305,173)"/>
<path d="M0 0 C0.66 0 1.32 0 2 0 C2 0.66 2 1.32 2 2 C2.66 2 3.32 2 4 2 C4 2.66 4 3.32 4 4 C4.681 4.268 5.361 4.536 6.062 4.812 C9.397 6.161 12.697 7.575 16 9 C13.455 11.969 10.51 13.362 7 15 C6.856 14.402 6.711 13.804 6.562 13.188 C6.113 11.438 5.571 9.713 5 8 C4.34 8 3.68 8 3 8 C3 7.01 3 6.02 3 5 C2.01 5 1.02 5 0 5 C0 3.35 0 1.7 0 0 Z " fill="#EDEDED" transform="translate(155,156)"/>
<path d="M0 0 C2.5 0.25 2.5 0.25 4.5 2.25 C4.17 3.24 3.84 4.23 3.5 5.25 C2.84 4.59 2.18 3.93 1.5 3.25 C0.51 3.25 -0.48 3.25 -1.5 3.25 C-1.5 3.91 -1.5 4.57 -1.5 5.25 C0.48 5.91 2.46 6.57 4.5 7.25 C4.625 9.625 4.625 9.625 4.5 12.25 C2.5 14.25 2.5 14.25 0.062 14.5 C-2.5 14.25 -2.5 14.25 -5.5 12.25 C-5.5 11.26 -5.5 10.27 -5.5 9.25 C-4.943 9.58 -4.386 9.91 -3.812 10.25 C-1.197 11.381 0.681 11.407 3.5 11.25 C3.5 10.59 3.5 9.93 3.5 9.25 C1.19 8.59 -1.12 7.93 -3.5 7.25 C-4.125 4.875 -4.125 4.875 -4.5 2.25 C-2.5 0.25 -2.5 0.25 0 0 Z " fill="#000000" transform="translate(241.5,291.75)"/>
<path d="M0 0 C5.635 6.647 7.145 16.45 8.41 24.879 C9.117 27.419 10.32 28.993 12 31 C11.67 31.66 11.34 32.32 11 33 C10.67 32.67 10.34 32.34 10 32 C7.329 31.859 4.676 31.958 2 32 C2.33 31.34 2.66 30.68 3 30 C5.563 29.375 5.563 29.375 8 29 C6.476 25.92 6.476 25.92 4 23 C0.363 22.026 0.363 22.026 -3 22 C-3 21.67 -3 21.34 -3 21 C2.625 19.875 2.625 19.875 6 21 C5.476 19.355 5.476 19.355 4.941 17.676 C4.482 16.221 4.022 14.767 3.562 13.312 C3.332 12.591 3.102 11.87 2.865 11.127 C1.703 7.438 0.656 3.82 0 0 Z " fill="#000000" transform="translate(64,268)"/>
<path d="M0 0 C-1.634 1.708 -2.869 2.935 -5 4 C-5.99 5.485 -5.99 5.485 -7 7 C-8.98 6.34 -10.96 5.68 -13 5 C-13 5.66 -13 6.32 -13 7 C-14.75 9.188 -14.75 9.188 -17 11 C-19.062 10.75 -19.062 10.75 -21 10 C-21.99 10 -22.98 10 -24 10 C-20.093 7.265 -16.183 5.013 -11.883 2.953 C-9.81 1.953 -9.81 1.953 -7.312 0.188 C-4.434 -1.291 -3.028 -0.952 0 0 Z " fill="#111111" transform="translate(182,204)"/>
<path d="M0 0 C0.369 4.554 0.369 4.554 -1.5 6.812 C-1.995 7.204 -2.49 7.596 -3 8 C-2.01 8.33 -1.02 8.66 0 9 C0 9.99 0 10.98 0 12 C-2.64 12 -5.28 12 -8 12 C-7.504 7.409 -7.504 7.409 -5 5.375 C-4.34 4.921 -3.68 4.467 -3 4 C-2.67 3.01 -2.34 2.02 -2 1 C-3.32 1 -4.64 1 -6 1 C-6 1.66 -6 2.32 -6 3 C-6.66 3 -7.32 3 -8 3 C-8 2.01 -8 1.02 -8 0 C-5.138 -1.431 -3.066 -0.6 0 0 Z " fill="#000000" transform="translate(290,294)"/>
<path d="M0 0 C0.707 1.777 0.707 1.777 1 4 C-0.363 5.816 -0.363 5.816 -2.312 7.562 C-4.644 9.686 -6.226 11.339 -8 14 C-9.938 14.562 -9.938 14.562 -12 15 C-12.99 15.66 -13.98 16.32 -15 17 C-13.688 14.074 -12.247 12.247 -10 10 C-8.824 7.9 -8.824 7.9 -8 6 C-7.34 6 -6.68 6 -6 6 C-5.67 5.34 -5.34 4.68 -5 4 C-3.357 2.638 -1.692 1.301 0 0 Z " fill="#909090" transform="translate(151,144)"/>
<path d="M0 0 C0 4.168 -2.239 6.142 -5 9 C-6.631 10.377 -8.287 11.727 -10 13 C-9.227 14.145 -9.227 14.145 -8.438 15.312 C-7.963 16.199 -7.489 17.086 -7 18 C-7.33 18.99 -7.66 19.98 -8 21 C-8.722 20.175 -9.444 19.35 -10.188 18.5 C-12.729 15.756 -12.729 15.756 -15.812 15.688 C-16.534 15.791 -17.256 15.894 -18 16 C-17.381 15.546 -16.762 15.092 -16.125 14.625 C-13.941 13.029 -13.941 13.029 -12 11 C-12 10.34 -12 9.68 -12 9 C-11.428 8.919 -10.855 8.838 -10.266 8.754 C-7.301 7.767 -5.894 6.189 -3.75 3.938 C-2.69 2.837 -2.69 2.837 -1.609 1.715 C-1.078 1.149 -0.547 0.583 0 0 Z " fill="#303030" transform="translate(194,282)"/>
<path d="M0 0 C2.5 2.312 2.5 2.312 5 5 C5 5.99 5 6.98 5 8 C6.03 9.144 6.03 9.144 7.875 9.875 C10.021 11.011 11.377 12.215 13 14 C12.67 14.99 12.34 15.98 12 17 C12 17.99 12 18.98 12 20 C7 14.25 7 14.25 7 12 C6.34 12 5.68 12 5 12 C5 11.34 5 10.68 5 10 C4.34 10 3.68 10 3 10 C3 9.01 3 8.02 3 7 C2.34 7 1.68 7 1 7 C0 4 0 4 0 0 Z " fill="#343434" transform="translate(191,234)"/>
<path d="M0 0 C4.95 0.99 9.9 1.98 15 3 C15 3.66 15 4.32 15 5 C12 7 12 7 9.844 6.793 C9.07 6.593 8.297 6.393 7.5 6.188 C6.34 5.899 6.34 5.899 5.156 5.605 C3.423 5.119 1.708 4.569 0 4 C0 2.68 0 1.36 0 0 Z " fill="#FFFFFF" transform="translate(12,171)"/>
<path d="M0 0 C0.66 0.33 1.32 0.66 2 1 C-1.61 3.369 -5.169 4.879 -9.23 6.254 C-11.208 6.957 -11.208 6.957 -13 9 C-13.66 8.67 -14.32 8.34 -15 8 C-14.67 8.99 -14.34 9.98 -14 11 C-14.99 12.485 -14.99 12.485 -16 14 C-16.66 14 -17.32 14 -18 14 C-18 14.66 -18 15.32 -18 16 C-18.66 15.67 -19.32 15.34 -20 15 C-19.67 14.237 -19.34 13.474 -19 12.688 C-17.826 10.009 -17.826 10.009 -18 7 C-17.67 6.34 -17.34 5.68 -17 5 C-15.215 4.473 -15.215 4.473 -12.938 4.062 C-9.65 3.411 -6.671 2.565 -3.562 1.312 C-2.387 0.879 -1.211 0.446 0 0 Z " fill="#0E0E0E" transform="translate(285,195)"/>
<path d="M0 0 C1.32 0.33 2.64 0.66 4 1 C3.01 1.33 2.02 1.66 1 2 C1 2.66 1 3.32 1 4 C-3.385 7 -3.385 7 -6 7 C-6 7.66 -6 8.32 -6 9 C-6.99 9 -7.98 9 -9 9 C-9 9.66 -9 10.32 -9 11 C-10.32 11.33 -11.64 11.66 -13 12 C-11.672 7.716 -10.175 6.022 -6.375 3.688 C-5.558 3.176 -4.74 2.664 -3.898 2.137 C-3.272 1.762 -2.645 1.386 -2 1 C-1.67 1.33 -1.34 1.66 -1 2 C-0.67 1.34 -0.34 0.68 0 0 Z " fill="#3C3C3C" transform="translate(250,156)"/>
<path d="M0 0 C0.99 0 1.98 0 3 0 C1.412 3.177 -1.805 3.868 -4.938 5.188 C-5.584 5.473 -6.23 5.759 -6.896 6.053 C-8.571 6.767 -10.284 7.391 -12 8 C-12.66 7.67 -13.32 7.34 -14 7 C-14 6.01 -14 5.02 -14 4 C-12.425 3.131 -10.839 2.28 -9.25 1.438 C-8.368 0.962 -7.487 0.486 -6.578 -0.004 C-3.718 -1.109 -2.813 -0.987 0 0 Z " fill="#2D2D2D" transform="translate(193,109)"/>
<path d="M0 0 C0.66 0.99 1.32 1.98 2 3 C1.34 3 0.68 3 0 3 C0 3.99 0 4.98 0 6 C-5.75 7.125 -5.75 7.125 -8 6 C-8 4.68 -8 3.36 -8 2 C-4.792 -0.139 -3.723 -0.477 0 0 Z " fill="#FFFFFF" transform="translate(87,200)"/>
<path d="M0 0 C0.66 0 1.32 0 2 0 C2 0.66 2 1.32 2 2 C2.784 2.082 3.567 2.165 4.375 2.25 C7 3 7 3 8.312 5.062 C8.653 6.022 8.653 6.022 9 7 C9.66 7 10.32 7 11 7 C12.071 10.212 12 12.639 12 16 C7 10.25 7 10.25 7 8 C6.34 8 5.68 8 5 8 C4.34 6.35 3.68 4.7 3 3 C2.34 3 1.68 3 1 3 C0.67 2.01 0.34 1.02 0 0 Z " fill="#464646" transform="translate(214,266)"/>
<path d="M0 0 C2.638 -0.394 2.638 -0.394 5 -1 C2.94 3.119 -2.83 4.586 -7 6 C-9.687 6.119 -11.389 5.754 -14 5 C-9.948 1.596 -5.277 -1.759 0 0 Z " fill="#343434" transform="translate(135,136)"/>
<path d="M0 0 C0 0.99 0 1.98 0 3 C0.99 3.33 1.98 3.66 3 4 C3.33 4.99 3.66 5.98 4 7 C3.67 7.66 3.34 8.32 3 9 C0.938 9.625 0.938 9.625 -1 10 C-1.454 9.216 -1.907 8.433 -2.375 7.625 C-3.884 4.963 -3.884 4.963 -6 3 C-3.375 0 -3.375 0 0 0 Z " fill="#FFFFFF" transform="translate(189,292)"/>
<path d="M0 0 C-0.33 0.99 -0.66 1.98 -1 3 C-1.66 3 -2.32 3 -3 3 C-3.33 3.99 -3.66 4.98 -4 6 C-6.398 6.984 -6.398 6.984 -9.375 7.75 C-10.352 8.013 -11.329 8.276 -12.336 8.547 C-15 9 -15 9 -18 8 C-15.377 6.662 -12.752 5.329 -10.125 4 C-9.005 3.428 -9.005 3.428 -7.863 2.844 C-7.148 2.483 -6.432 2.122 -5.695 1.75 C-5.035 1.415 -4.376 1.08 -3.696 0.734 C-2 0 -2 0 0 0 Z " fill="#676767" transform="translate(64,170)"/>
<path d="M0 0 C0.33 0.66 0.66 1.32 1 2 C-0.725 2.977 -2.451 3.953 -4.176 4.93 C-5.82 5.894 -7.414 6.943 -9 8 C-11.688 8.125 -11.688 8.125 -14 8 C-13 5 -13 5 -11 3.938 C-10.34 3.628 -9.68 3.319 -9 3 C-8.67 2.34 -8.34 1.68 -8 1 C-5.044 -0.937 -3.306 -1.368 0 0 Z " fill="#7B7B7B" transform="translate(178,116)"/>
<path d="M0 0 C2.8 2.481 4.368 5.216 6.125 8.5 C6.643 9.459 7.161 10.418 7.695 11.406 C9 14 9 14 10 17 C9.01 17.33 8.02 17.66 7 18 C6.59 17.229 6.18 16.458 5.758 15.664 C5.219 14.661 4.68 13.658 4.125 12.625 C3.324 11.128 3.324 11.128 2.508 9.602 C1.118 6.947 1.118 6.947 -1 5 C-0.625 2.375 -0.625 2.375 0 0 Z " fill="#0A0A0A" transform="translate(27,289)"/>
<path d="M0 0 C0.33 0.66 0.66 1.32 1 2 C-1.269 5.404 -2.65 6.037 -6.312 7.688 C-7.73 8.343 -7.73 8.343 -9.176 9.012 C-12 10 -14.037 10.2 -17 10 C-14.263 6.693 -10.6 5.132 -6.812 3.312 C-6.158 2.992 -5.504 2.672 -4.83 2.342 C-3.223 1.556 -1.612 0.777 0 0 Z " fill="#696969" transform="translate(82,159)"/>
<path d="M0 0 C3.3 0.66 6.6 1.32 10 2 C9 4 9 4 7.004 4.887 C6.198 5.151 5.393 5.415 4.562 5.688 C3.759 5.959 2.956 6.231 2.129 6.512 C0 7 0 7 -2 6 C-1.34 4.02 -0.68 2.04 0 0 Z " fill="#FFFFFF" transform="translate(11,176)"/>
<path d="M0 0 C0.577 0.227 1.155 0.454 1.75 0.688 C0.46 2.063 -0.877 3.395 -2.25 4.688 C-2.91 4.688 -3.57 4.688 -4.25 4.688 C-4.25 5.347 -4.25 6.007 -4.25 6.688 C-7.25 8.688 -7.25 8.688 -9.438 8.312 C-10.036 8.106 -10.634 7.9 -11.25 7.688 C-3.321 -0.461 -3.321 -0.461 0 0 Z " fill="#565656" transform="translate(222.25,176.3125)"/>
<path d="M0 0 C0.33 0.66 0.66 1.32 1 2 C1.598 1.649 2.196 1.299 2.812 0.938 C5 0 5 0 8 1 C6.236 2.033 4.464 3.051 2.688 4.062 C1.208 4.915 1.208 4.915 -0.301 5.785 C-3 7 -3 7 -6 6 C-8.143 6.389 -8.143 6.389 -10 7 C-7.218 3.727 -3.72 2.036 0 0 Z " fill="#242424" transform="translate(124,231)"/>
<path d="M0 0 C2.97 0 5.94 0 9 0 C7.313 4.498 5.183 8.729 3 13 C2.34 12.34 1.68 11.68 1 11 C2.32 8.36 3.64 5.72 5 3 C3.35 2.67 1.7 2.34 0 2 C0 1.34 0 0.68 0 0 Z " fill="#000000" transform="translate(311,293)"/>
<path d="M0 0 C2.187 -0.379 2.187 -0.379 4 -1 C1.04 2.453 -2.562 4.789 -7.168 5.188 C-9.113 5.188 -11.058 5.1 -13 5 C-5.234 -1.472 -5.234 -1.472 0 0 Z " fill="#262626" transform="translate(31,283)"/>
<path d="M0 0 C0.33 0.66 0.66 1.32 1 2 C-1.297 5.446 -2.782 6.087 -6.5 7.75 C-7.48 8.199 -8.459 8.647 -9.469 9.109 C-10.304 9.403 -11.139 9.697 -12 10 C-12.66 9.67 -13.32 9.34 -14 9 C-11.484 6.14 -8.661 4.585 -5.312 2.812 C-4.319 2.283 -3.325 1.753 -2.301 1.207 C-1.542 0.809 -0.782 0.41 0 0 Z " fill="#797979" transform="translate(96,152)"/>
<path d="M0 0 C0.99 0 1.98 0 3 0 C4.125 6.75 4.125 6.75 3 9 C1.68 8.67 0.36 8.34 -1 8 C-1.042 5.667 -1.041 3.333 -1 1 C-0.67 0.67 -0.34 0.34 0 0 Z " fill="#FFFFFF" transform="translate(265,295)"/>
<path d="M0 0 C2.143 -0.389 2.143 -0.389 4 -1 C0.104 3.546 -5.43 5.276 -11 7 C-10 5 -10 5 -9 4 C-9.33 3.34 -9.66 2.68 -10 2 C-3.375 -1.125 -3.375 -1.125 0 0 Z " fill="#141414" transform="translate(99,247)"/>
<path d="M0 0 C0.66 0.33 1.32 0.66 2 1 C-4.364 5.732 -11.134 7.992 -19 9 C-19 8.34 -19 7.68 -19 7 C-15.618 5.055 -12.799 3.844 -8.938 3.5 C-5.031 3.004 -3.227 2.088 0 0 Z " fill="#141414" transform="translate(55,176)"/>
<path d="M0 0 C0.99 0 1.98 0 3 0 C3.33 2.31 3.66 4.62 4 7 C3.01 7.66 2.02 8.32 1 9 C0.34 8.67 -0.32 8.34 -1 8 C-1.042 5.667 -1.041 3.333 -1 1 C-0.67 0.67 -0.34 0.34 0 0 Z " fill="#FFFFFF" transform="translate(275,295)"/>
<path d="M0 0 C0.33 0.66 0.66 1.32 1 2 C-1.97 3.32 -4.94 4.64 -8 6 C-8 5.34 -8 4.68 -8 4 C-9.65 4.66 -11.3 5.32 -13 6 C-10.993 2.99 -10.159 2.295 -7.062 0.75 C-6.373 0.394 -5.683 0.038 -4.973 -0.328 C-3 -1 -3 -1 0 0 Z " fill="#222222" transform="translate(74,260)"/>
<path d="M0 0 C-2.881 2.241 -5.747 4.332 -9 6 C-9.99 5.67 -10.98 5.34 -12 5 C-14.638 5.394 -14.638 5.394 -17 6 C-10.907 0.922 -7.841 -0.261 0 0 Z " fill="#141414" transform="translate(159,217)"/>
<path d="M0 0 C-2.881 2.241 -5.747 4.332 -9 6 C-9.99 5.67 -10.98 5.34 -12 5 C-12.66 5 -13.32 5 -14 5 C-14 4.34 -14 3.68 -14 3 C-4.59 -1.777 -4.59 -1.777 0 0 Z " fill="#000000" transform="translate(62,268)"/>
<path d="M0 0 C1.32 0 2.64 0 4 0 C4 2.64 4 5.28 4 8 C2.68 8 1.36 8 0 8 C0 5.36 0 2.72 0 0 Z " fill="#FFFFFF" transform="translate(255,295)"/>
<path d="M0 0 C0.99 0.66 1.98 1.32 3 2 C2.34 2 1.68 2 1 2 C1 2.99 1 3.98 1 5 C-1.312 6.75 -1.312 6.75 -4 8 C-4.99 7.67 -5.98 7.34 -7 7 C-7.33 6.34 -7.66 5.68 -8 5 C-6.68 4.67 -5.36 4.34 -4 4 C-4 3.34 -4 2.68 -4 2 C-2.68 1.34 -1.36 0.68 0 0 Z " fill="#434343" transform="translate(189,196)"/>
<path d="M0 0 C0 0.99 0 1.98 0 3 C-7.286 6.429 -7.286 6.429 -12 6 C-11.34 5.67 -10.68 5.34 -10 5 C-9.67 4.01 -9.34 3.02 -9 2 C-5.828 0.69 -3.441 0 0 0 Z " fill="#787878" transform="translate(42,183)"/>
<path d="M0 0 C0.66 0.33 1.32 0.66 2 1 C1.794 1.743 1.587 2.485 1.375 3.25 C0.956 6.323 1.381 7.428 3 10 C1.35 8.68 -0.3 7.36 -2 6 C-3.32 6.99 -4.64 7.98 -6 9 C-6.66 8.67 -7.32 8.34 -8 8 C-7.67 7.01 -7.34 6.02 -7 5 C-4.938 4.312 -4.938 4.312 -3 4 C-3 3.67 -3 3.34 -3 3 C-3 2.34 -3 1.68 -3 1 C-2.01 0.67 -1.02 0.34 0 0 Z " fill="#000000" transform="translate(273,139)"/>
<path d="M0 0 C0.66 0.99 1.32 1.98 2 3 C1.01 3.33 0.02 3.66 -1 4 C-1 4.66 -1 5.32 -1 6 C-4 8 -4 8 -6.188 7.625 C-6.786 7.419 -7.384 7.213 -8 7 C-5.422 4.352 -3.084 2.056 0 0 Z " fill="#434343" transform="translate(298,121)"/>
<path d="M0 0 C1.32 0 2.64 0 4 0 C3.614 2.798 3.199 3.821 1.062 5.75 C-1 7 -1 7 -3 7 C-3 5.35 -3 3.7 -3 2 C-2.01 2 -1.02 2 0 2 C0 1.34 0 0.68 0 0 Z " fill="#FFFFFF" transform="translate(284,295)"/>
<path d="M0 0 C0.66 0 1.32 0 2 0 C2 0.99 2 1.98 2 3 C2.66 3 3.32 3 4 3 C4 3.66 4 4.32 4 5 C4.66 5 5.32 5 6 5 C6.33 5.99 6.66 6.98 7 8 C6.01 9.485 6.01 9.485 5 11 C3.02 8.36 1.04 5.72 -1 3 C-0.34 3 0.32 3 1 3 C0.67 2.01 0.34 1.02 0 0 Z " fill="#292929" transform="translate(184,226)"/>
<path d="M0 0 C0.33 0.66 0.66 1.32 1 2 C1.66 2.33 2.32 2.66 3 3 C2.34 3 1.68 3 1 3 C1 3.66 1 4.32 1 5 C-0.43 5.866 -1.869 6.718 -3.312 7.562 C-4.513 8.276 -4.513 8.276 -5.738 9.004 C-8 10 -8 10 -11 9 C-11 8.34 -11 7.68 -11 7 C-8 6 -8 6 -5 6 C-4.01 5.34 -3.02 4.68 -2 4 C-2.33 3.34 -2.66 2.68 -3 2 C-2.01 1.34 -1.02 0.68 0 0 Z " fill="#080808" transform="translate(201,189)"/>
<path d="M0 0 C-5.548 4.777 -5.548 4.777 -9 5 C-10.35 4.368 -11.686 3.705 -13 3 C-4.738 -1.777 -4.738 -1.777 0 0 Z " fill="#222222" transform="translate(115,240)"/>
<path d="M0 0 C1.98 0.66 3.96 1.32 6 2 C3.455 4.969 0.51 6.362 -3 8 C-2.453 4.625 -1.945 2.918 0 0 Z " fill="#FFFFFF" transform="translate(165,163)"/>
<path d="M0 0 C1.483 0.953 2.961 1.912 4.438 2.875 C5.673 3.676 5.673 3.676 6.934 4.492 C9 6 9 6 10 8 C9.01 8.33 8.02 8.66 7 9 C3.875 7.375 3.875 7.375 1 5 C0.32 2.352 0.32 2.352 0 0 Z " fill="#191919" transform="translate(282,82)"/>
<path d="M0 0 C-3.837 2.558 -7.757 4.345 -12.438 3.625 C-12.953 3.419 -13.469 3.213 -14 3 C-13.01 3 -12.02 3 -11 3 C-10.67 2.01 -10.34 1.02 -10 0 C-6.037 -2.312 -4.021 -2.068 0 0 Z " fill="#696969" transform="translate(236,92)"/>
<path d="M0 0 C2.5 2.312 2.5 2.312 5 5 C5 5.99 5 6.98 5 8 C5.33 8.33 5.66 8.66 6 9 C6.33 9.99 6.66 10.98 7 12 C6.34 12 5.68 12 5 12 C5 11.34 5 10.68 5 10 C4.34 10 3.68 10 3 10 C3 9.01 3 8.02 3 7 C2.34 7 1.68 7 1 7 C0 4 0 4 0 0 Z " fill="#1B1B1B" transform="translate(191,234)"/>
<path d="M0 0 C2 3.75 2 3.75 2 6 C2.99 6.33 3.98 6.66 5 7 C4.67 7.66 4.34 8.32 4 9 C2.062 8.688 2.062 8.688 0 8 C-0.33 7.01 -0.66 6.02 -1 5 C-1.66 4.67 -2.32 4.34 -3 4 C-2.67 3.01 -2.34 2.02 -2 1 C-1.34 0.67 -0.68 0.34 0 0 Z " fill="#242424" transform="translate(174,211)"/>
<path d="M0 0 C0.66 1.32 1.32 2.64 2 4 C-3.75 7 -3.75 7 -6 7 C-6 5.68 -6 4.36 -6 3 C-4.02 2.01 -2.04 1.02 0 0 Z " fill="#3F3F3F" transform="translate(31,186)"/>
<path d="M0 0 C2.97 0.495 2.97 0.495 6 1 C6 1.99 6 2.98 6 4 C1.25 5.125 1.25 5.125 -1 4 C-0.67 2.68 -0.34 1.36 0 0 Z " fill="#484848" transform="translate(175,144)"/>
<path d="M0 0 C0.66 0.33 1.32 0.66 2 1 C1.01 1.33 0.02 1.66 -1 2 C-1.33 2.99 -1.66 3.98 -2 5 C-4.31 5.33 -6.62 5.66 -9 6 C-9.33 5.34 -9.66 4.68 -10 4 C-9.169 3.693 -9.169 3.693 -8.32 3.379 C-7.596 3.109 -6.871 2.84 -6.125 2.562 C-5.406 2.296 -4.686 2.029 -3.945 1.754 C-1.964 1.021 -1.964 1.021 0 0 Z " fill="#939393" transform="translate(148,220)"/>
<path d="M0 0 C-0.688 2.375 -0.688 2.375 -2 5 C-4.625 6.312 -4.625 6.312 -7 7 C-3.862 0 -3.862 0 0 0 Z M-9 7 C-8.34 7 -7.68 7 -7 7 C-7.33 7.66 -7.66 8.32 -8 9 C-8.33 8.34 -8.66 7.68 -9 7 Z " fill="#444444" transform="translate(266,208)"/>
<path d="M0 0 C0.33 0.66 0.66 1.32 1 2 C1.598 1.649 2.196 1.299 2.812 0.938 C5 0 5 0 8 1 C1.593 5.066 1.593 5.066 -1.25 4.75 C-1.828 4.502 -2.405 4.255 -3 4 C-3.99 4 -4.98 4 -6 4 C-4.02 2.68 -2.04 1.36 0 0 Z " fill="#0A0A0A" transform="translate(80,254)"/>
<path d="M0 0 C1.98 0 3.96 0 6 0 C5.67 0.99 5.34 1.98 5 3 C4.34 3 3.68 3 3 3 C2.67 3.99 2.34 4.98 2 6 C1.34 5.34 0.68 4.68 0 4 C-1.317 3.303 -2.649 2.63 -4 2 C-2.68 2 -1.36 2 0 2 C0 1.34 0 0.68 0 0 Z " fill="#8E8E8E" transform="translate(169,209)"/>
<path d="M0 0 C-1.433 0.841 -2.872 1.673 -4.312 2.5 C-5.513 3.196 -5.513 3.196 -6.738 3.906 C-9 5 -9 5 -12 5 C-12 4.34 -12 3.68 -12 3 C-10.568 2.301 -9.129 1.616 -7.688 0.938 C-6.487 0.363 -6.487 0.363 -5.262 -0.223 C-3 -1 -3 -1 0 0 Z " fill="#949494" transform="translate(93,251)"/>
<path d="M0 0 C3.092 2.53 3.909 5.225 5 9 C2 9 2 9 0.25 7.312 C-1 5 -1 5 -0.688 2.25 C-0.461 1.507 -0.234 0.765 0 0 Z " fill="#161616" transform="translate(27,289)"/>
<path d="M0 0 C0.99 0.33 1.98 0.66 3 1 C4.375 3.812 4.375 3.812 5 7 C3.625 9.375 3.625 9.375 2 11 C1.01 10.67 0.02 10.34 -1 10 C-0.01 9.34 0.98 8.68 2 8 C1.433 3.87 1.433 3.87 0 0 Z " fill="#000000" transform="translate(300,96)"/>
<path d="M0 0 C1.98 0.99 1.98 0.99 4 2 C4 2.66 4 3.32 4 4 C4.66 4 5.32 4 6 4 C6.33 5.98 6.66 7.96 7 10 C5.02 9.34 3.04 8.68 1 8 C2.32 7.67 3.64 7.34 5 7 C5 6.34 5 5.68 5 5 C4.34 5 3.68 5 3 5 C1.375 2.5 1.375 2.5 0 0 Z " fill="#000000" transform="translate(200,81)"/>
<path d="M0 0 C1.65 0.33 3.3 0.66 5 1 C3.026 3.523 2.033 3.993 -1.188 4.688 C-2.58 4.842 -2.58 4.842 -4 5 C-3.67 4.34 -3.34 3.68 -3 3 C-2.34 3 -1.68 3 -1 3 C-0.67 2.01 -0.34 1.02 0 0 Z " fill="#6D6D6D" transform="translate(177,203)"/>
<path d="M0 0 C0.33 0.66 0.66 1.32 1 2 C-1 5 -1 5 -2.945 5.512 C-3.665 5.57 -4.384 5.628 -5.125 5.688 C-7.043 5.842 -7.043 5.842 -9 6 C-6.119 3.599 -3.436 1.527 0 0 Z " fill="#484848" transform="translate(55,173)"/>
<path d="M0 0 C-1 2 -1 2 -3.066 2.852 C-4.302 3.234 -4.302 3.234 -5.562 3.625 C-6.802 4.016 -6.802 4.016 -8.066 4.414 C-8.704 4.607 -9.343 4.801 -10 5 C-9 2 -9 2 -7.25 0.812 C-4.7 -0.108 -2.691 -0.149 0 0 Z " fill="#7F7F7F" transform="translate(13,292)"/>
<path d="M0 0 C0.66 0 1.32 0 2 0 C2 0.66 2 1.32 2 2 C2.804 2.124 3.609 2.248 4.438 2.375 C5.706 2.684 5.706 2.684 7 3 C7.33 3.66 7.66 4.32 8 5 C7.34 5 6.68 5 6 5 C6.33 5.99 6.66 6.98 7 8 C6.34 8 5.68 8 5 8 C4.34 6.35 3.68 4.7 3 3 C2.34 3 1.68 3 1 3 C0.67 2.01 0.34 1.02 0 0 Z " fill="#0C0C0C" transform="translate(214,266)"/>
<path d="M0 0 C-2.688 2.252 -4.646 3.882 -8 5 C-8 3.333 -8 1.667 -8 0 C-4.71 -1.097 -3.287 -0.8 0 0 Z " fill="#0C0C0C" transform="translate(11,201)"/>
<path d="M0 0 C0.99 0.66 1.98 1.32 3 2 C1.75 3.562 1.75 3.562 0 5 C-2.188 4.688 -2.188 4.688 -4 4 C-2.68 2.68 -1.36 1.36 0 0 Z M-5 4 C-4.67 4.99 -4.34 5.98 -4 7 C-4.66 6.67 -5.32 6.34 -6 6 C-5.67 5.34 -5.34 4.68 -5 4 Z " fill="#727272" transform="translate(237,164)"/>
<path d="M0 0 C0 0.99 0 1.98 0 3 C-3 5 -3 5 -6 5 C-6 4.01 -6 3.02 -6 2 C-3 0 -3 0 0 0 Z " fill="#595959" transform="translate(312,113)"/>
<path d="M0 0 C1.32 0 2.64 0 4 0 C3.67 1.65 3.34 3.3 3 5 C2.01 5 1.02 5 0 5 C0 3.35 0 1.7 0 0 Z " fill="#FFFFFF" transform="translate(304,299)"/>
<path d="M0 0 C0.66 0.33 1.32 0.66 2 1 C0.906 1.867 -0.201 2.718 -1.312 3.562 C-1.927 4.038 -2.542 4.514 -3.176 5.004 C-3.778 5.333 -4.38 5.661 -5 6 C-5.99 5.67 -6.98 5.34 -8 5 C-5.312 2.748 -3.354 1.118 0 0 Z " fill="#868686" transform="translate(281,134)"/>
<path d="M0 0 C1.812 0.75 1.812 0.75 2.812 2.75 C0.833 3.41 -1.148 4.07 -3.188 4.75 C-4.178 3.76 -5.167 2.77 -6.188 1.75 C-3.913 0.369 -2.686 -0.307 0 0 Z " fill="#0D0D0D" transform="translate(176.1875,115.25)"/>
<path d="M0 0 C1.145 0.278 1.145 0.278 2.312 0.562 C5.09 1.228 5.09 1.228 8 0 C7.34 1.32 6.68 2.64 6 4 C3.831 3.494 2 3 0 2 C0 1.34 0 0.68 0 0 Z " fill="#000000" transform="translate(291,302)"/>
<path d="M0 0 C1.32 0 2.64 0 4 0 C3.67 1.32 3.34 2.64 3 4 C2.01 4 1.02 4 0 4 C0 2.68 0 1.36 0 0 Z " fill="#FFFFFF" transform="translate(294,295)"/>
<path d="M0 0 C0 0.66 0 1.32 0 2 C-4.455 3.485 -4.455 3.485 -9 5 C-9 4.34 -9 3.68 -9 3 C-3.375 0 -3.375 0 0 0 Z " fill="#383838" transform="translate(57,268)"/>
<path d="M0 0 C0.99 0.66 1.98 1.32 3 2 C2.67 2.66 2.34 3.32 2 4 C2.33 4.33 2.66 4.66 3 5 C2.67 5.99 2.34 6.98 2 8 C2 7.34 2 6.68 2 6 C1.34 6 0.68 6 0 6 C-0.66 4.35 -1.32 2.7 -2 1 C-1.34 0.67 -0.68 0.34 0 0 Z " fill="#0E0E0E" transform="translate(180,221)"/>
<path d="M0 0 C-0.33 0.66 -0.66 1.32 -1 2 C-3.322 2.407 -5.657 2.744 -8 3 C-8.33 2.34 -8.66 1.68 -9 1 C-3.375 -1.125 -3.375 -1.125 0 0 Z " fill="#9B9B9B" transform="translate(164,214)"/>
<path d="M0 0 C0.99 0.66 1.98 1.32 3 2 C-2.75 6 -2.75 6 -5 6 C-3.63 2.839 -3.011 2.007 0 0 Z " fill="#717171" transform="translate(207,185)"/>
<path d="M0 0 C1.32 0.33 2.64 0.66 4 1 C3.01 1.33 2.02 1.66 1 2 C1 2.66 1 3.32 1 4 C-0.875 4.625 -0.875 4.625 -3 5 C-3.66 4.34 -4.32 3.68 -5 3 C-4.01 2.34 -3.02 1.68 -2 1 C-1.67 1.33 -1.34 1.66 -1 2 C-0.67 1.34 -0.34 0.68 0 0 Z " fill="#000000" transform="translate(250,156)"/>
<path d="M0 0 C0.99 0.33 1.98 0.66 3 1 C1.515 3.475 1.515 3.475 0 6 C-0.66 5.67 -1.32 5.34 -2 5 C-2 4.01 -2 3.02 -2 2 C-1.34 2 -0.68 2 0 2 C0 1.34 0 0.68 0 0 Z " fill="#383838" transform="translate(263,145)"/>
<path d="M0 0 C-2.688 2.252 -4.646 3.882 -8 5 C-8 4.01 -8 3.02 -8 2 C-4.772 -0.152 -3.716 -0.201 0 0 Z " fill="#969696" transform="translate(201,192)"/>
<path d="M0 0 C2.475 0.495 2.475 0.495 5 1 C4.67 1.99 4.34 2.98 4 4 C2.68 3.67 1.36 3.34 0 3 C0 2.01 0 1.02 0 0 Z " fill="#FFFFFF" transform="translate(103,181)"/>
<path d="M0 0 C0.66 0.99 1.32 1.98 2 3 C2.33 2.01 2.66 1.02 3 0 C3.33 0.66 3.66 1.32 4 2 C3.01 2.99 2.02 3.98 1 5 C-0.32 4.34 -1.64 3.68 -3 3 C-2.01 2.01 -1.02 1.02 0 0 Z " fill="#0F0F0F" transform="translate(231,168)"/>
<path d="M0 0 C1.32 0.99 2.64 1.98 4 3 C3.67 3.66 3.34 4.32 3 5 C0.525 4.01 0.525 4.01 -2 3 C-2 2.34 -2 1.68 -2 1 C-1.34 0.67 -0.68 0.34 0 0 Z " fill="#4B4B4B" transform="translate(292,89)"/>
</svg>
