<?xml version="1.0" encoding="UTF-8"?>
<!-- Generator: visioncortex VTracer 0.6.4 -->
<svg version="1.1" xmlns="http://www.w3.org/2000/svg" width="338" height="287">
<path d="M0 0 C111.54 0 223.08 0 338 0 C338 94.71 338 189.42 338 287 C226.46 287 114.92 287 0 287 C0 192.29 0 97.58 0 0 Z " fill="#111111" transform="translate(0,0)"/>
<path d="M0 0 C111.54 0 223.08 0 338 0 C338 94.71 338 189.42 338 287 C226.46 287 114.92 287 0 287 C0 192.29 0 97.58 0 0 Z M74 6 C74 6.66 74 7.32 74 8 C70.04 7.67 66.08 7.34 62 7 C62 7.66 62 8.32 62 9 C63.98 9 65.96 9 68 9 C67.01 11.64 66.02 14.28 65 17 C51.794 17.827 38.602 18.275 25.375 18.562 C23.482 18.606 21.589 18.649 19.695 18.693 C15.13 18.799 10.565 18.9 6 19 C6.33 19.66 6.66 20.32 7 21 C26.47 20.67 45.94 20.34 66 20 C66.66 18.68 67.32 17.36 68 16 C67.37 20.339 66.69 24.67 66 29 C65.89 29.842 65.781 30.684 65.668 31.551 C64.753 37.208 62.35 40.57 58.68 44.918 C56.661 47.42 55.375 50.106 54 53 C50.557 54.721 46.481 54.698 42.674 55.074 C38.424 55.57 35.396 56.365 32 59 C24.17 69.418 22.7 84.853 21.683 97.441 C21.285 102.198 20.38 106.407 19 111 C18.446 114.298 18.003 117.599 17.562 120.914 C17 124 17 124 15.945 126.566 C14.875 129.322 14.797 131.37 14.875 134.312 C14.902 135.637 14.902 135.637 14.93 136.988 C14.953 137.652 14.976 138.316 15 139 C13.02 139 11.04 139 9 139 C7.83 141.34 7.834 142.834 7.812 145.438 C7.791 146.611 7.791 146.611 7.77 147.809 C7.859 150.292 7.859 150.292 10 153 C13.084 153.25 13.084 153.25 16 153 C16.082 153.969 16.165 154.939 16.25 155.938 C16.672 158.894 17.466 161.246 18.75 163.938 C21.384 169.513 23.069 175.343 24.852 181.23 C25.531 183.461 26.232 185.686 26.98 187.895 C27.807 190.411 28.551 192.919 29.262 195.469 C32.189 205.891 35.272 215.741 41 225 C41.451 225.733 41.902 226.467 42.367 227.223 C44.604 229.877 46.464 230.864 49.955 231.173 C58.091 231.368 65.734 230.874 73 227 C77.563 222.385 79.032 216.24 80 210 C80.66 210 81.32 210 82 210 C82.133 210.603 82.266 211.207 82.402 211.828 C82.667 213.027 82.667 213.027 82.938 214.25 C83.199 215.433 83.199 215.433 83.465 216.641 C83.73 217.809 83.73 217.809 84 219 C84.218 220.106 84.218 220.106 84.441 221.234 C84.626 221.817 84.81 222.4 85 223 C89.896 225.448 97.295 224.568 102.531 223.469 C106.405 222.139 109.139 220.722 111 217 C111 216.01 111 215.02 111 214 C112.604 213.973 114.208 213.954 115.812 213.938 C116.706 213.926 117.599 213.914 118.52 213.902 C121 214 121 214 124 215 C124 215.99 124 216.98 124 218 C124.66 218 125.32 218 126 218 C126.135 218.562 126.271 219.124 126.41 219.703 C128.135 226.438 130.291 232.997 132.562 239.562 C133.02 240.902 133.02 240.902 133.487 242.269 C133.781 243.109 134.076 243.95 134.379 244.816 C134.643 245.574 134.906 246.331 135.178 247.112 C135.945 249.19 135.945 249.19 138 251 C137.409 246.949 136.524 243.242 135.188 239.375 C134.658 237.82 134.658 237.82 134.117 236.234 C133.749 235.167 133.38 234.1 133 233 C132.267 230.876 131.537 228.752 130.812 226.625 C130.489 225.689 130.165 224.753 129.832 223.789 C128.962 220.873 128.439 218.009 128 215 C133.635 212.341 139.165 210.887 145.246 209.59 C146.701 209.27 146.701 209.27 148.185 208.944 C151.268 208.269 154.353 207.603 157.438 206.938 C160.518 206.267 163.599 205.594 166.679 204.92 C168.59 204.503 170.501 204.087 172.412 203.674 C176.208 202.851 179.964 202.01 183.711 200.986 C190.028 199.386 196.542 198.763 202.996 197.941 C204.472 197.75 205.947 197.558 207.423 197.366 C210.518 196.964 213.614 196.565 216.71 196.169 C220.599 195.671 224.487 195.168 228.374 194.663 C246.238 192.343 264.109 190.099 282 188 C281.342 189.79 280.685 191.579 280.027 193.369 C279.468 194.889 278.909 196.41 278.351 197.931 C276.424 203.164 274.482 208.391 272.528 213.614 C271.337 216.795 270.149 219.977 268.961 223.159 C268.361 224.764 267.76 226.368 267.158 227.971 C266.302 230.252 265.449 232.534 264.598 234.816 C264.335 235.511 264.073 236.207 263.803 236.923 C262.454 240.368 262.454 240.368 262 244 C262.66 244 263.32 244 264 244 C264.219 243.404 264.438 242.808 264.663 242.194 C266.95 235.964 269.238 229.734 271.526 223.504 C272.378 221.182 273.231 218.861 274.083 216.539 C275.312 213.192 276.541 209.846 277.77 206.5 C278.148 205.469 278.526 204.439 278.916 203.377 C280.924 197.91 282.948 192.45 285 187 C285.861 186.894 285.861 186.894 286.74 186.786 C292.694 186.05 298.647 185.302 304.598 184.546 C306.822 184.266 309.047 183.988 311.271 183.714 C314.462 183.321 317.651 182.915 320.84 182.508 C321.841 182.387 322.842 182.266 323.873 182.141 C325.255 181.961 325.255 181.961 326.664 181.778 C327.479 181.676 328.294 181.574 329.133 181.468 C329.749 181.314 330.365 181.159 331 181 C331.33 180.34 331.66 179.68 332 179 C330.68 179 329.36 179 328 179 C328.35 175.758 328.562 174.385 331.062 172.188 C331.702 171.796 332.341 171.404 333 171 C332.01 171 331.02 171 330 171 C330.478 169.229 330.958 167.458 331.438 165.688 C331.838 164.208 331.838 164.208 332.246 162.699 C332.781 160.785 333.371 158.886 334 157 C332.35 157 330.7 157 329 157 C329.144 156.368 329.289 155.737 329.438 155.086 C331.046 147.334 331.208 139.899 331 132 C331.66 132 332.32 132 333 132 C332.814 131.402 332.629 130.804 332.438 130.188 C332 128 332 128 333 125 C333 124.01 333 123.02 333 122 C333 120.333 333 118.667 333 117 C331.059 117.276 331.059 117.276 329 118 C328.34 118.99 327.68 119.98 327 121 C326.34 120.34 325.68 119.68 325 119 C327.64 117.35 330.28 115.7 333 114 C329.036 112.526 329.036 112.526 325.941 114.695 C324.806 115.492 323.68 116.303 322.562 117.125 C322.002 117.517 321.442 117.909 320.865 118.312 C317.227 120.911 314.1 123.762 311 127 C310.402 127.557 309.804 128.114 309.188 128.688 C307.776 129.952 307.776 129.952 308 132 C307.34 132 306.68 132 306 132 C305.321 133.317 304.682 134.654 304.062 136 C302.412 138.737 301.638 139.807 298.543 140.742 C291.234 141.09 286.4 138.782 281 134 C277.099 130.108 274.911 126.493 274.438 120.938 C274.459 114.518 278.686 110.363 283 106 C284.485 105.01 284.485 105.01 286 104 C286 103.34 286 102.68 286 102 C286.534 101.758 287.067 101.515 287.617 101.266 C290.639 99.661 293.333 97.728 296.125 95.75 C307.548 87.8 319.103 82.199 332 77 C332 76.34 332 75.68 332 75 C321.034 76.451 311.298 82.126 302.063 87.928 C298.716 90.025 295.713 91.515 292 93 C292 89.37 292 85.74 292 82 C294.64 82 297.28 82 300 82 C300.33 81.01 300.66 80.02 301 79 C303.191 77.622 305.328 76.417 307.625 75.242 C308.287 74.894 308.949 74.545 309.631 74.186 C311.75 73.073 313.874 71.974 316 70.875 C318.124 69.766 320.247 68.655 322.369 67.543 C323.69 66.851 325.014 66.162 326.338 65.476 C329.365 64.022 329.365 64.022 332 62 C332.071 60.648 332.084 59.292 332.062 57.938 C332.032 55.988 332.032 55.988 332 54 C329.231 52.994 326.46 51.995 323.688 51 C322.902 50.714 322.116 50.428 321.307 50.133 C320.549 49.862 319.792 49.591 319.012 49.312 C318.315 49.061 317.619 48.81 316.901 48.551 C314.85 47.861 314.85 47.861 312 48 C312 47.34 312 46.68 312 46 C312.639 45.732 313.279 45.464 313.938 45.188 C316.331 44.113 316.331 44.113 317 41 C317.66 41 318.32 41 319 41 C320.571 39.486 320.571 39.486 322.188 37.5 C324.097 35.238 326.002 32.998 328.016 30.828 C328.967 29.799 328.967 29.799 329.938 28.75 C330.524 28.126 331.111 27.502 331.715 26.859 C333.379 24.828 333.379 24.828 333 21 C329.638 22.441 327.408 24.248 325 27 C325 27.66 325 28.32 325 29 C324.34 29 323.68 29 323 29 C319.364 32.48 319.364 32.48 318 37 C317.01 37.33 316.02 37.66 315 38 C315 38.66 315 39.32 315 40 C314.34 40 313.68 40 313 40 C312.608 40.474 312.216 40.949 311.812 41.438 C309.111 43.767 306.461 44.069 303 44 C299.084 43.148 295.346 41.852 291.562 40.543 C289.313 39.793 287.063 39.044 284.812 38.294 C283.105 37.717 283.105 37.717 281.363 37.129 C276.28 35.423 271.172 33.8 266.062 32.176 C264.075 31.54 262.088 30.903 260.1 30.266 C250.465 27.18 240.829 24.099 231.191 21.02 C229.085 20.347 226.978 19.673 224.871 19 C219.039 17.136 213.207 15.274 207.372 13.418 C205.595 12.852 203.819 12.285 202.042 11.717 C199.595 10.935 197.147 10.157 194.699 9.379 C193.631 9.036 193.631 9.036 192.541 8.687 C189.051 7.582 185.608 6.628 182 6 C184.593 9.186 187.33 9.962 191.203 11.129 C192.135 11.414 192.135 11.414 193.085 11.706 C194.431 12.117 195.778 12.524 197.126 12.927 C200.027 13.795 202.922 14.683 205.817 15.571 C207.321 16.032 208.825 16.491 210.329 16.95 C217.684 19.196 224.999 21.558 232.312 23.938 C242.75 27.326 253.208 30.645 263.683 33.919 C268.076 35.295 272.465 36.681 276.855 38.068 C281.354 39.487 285.861 40.879 290.371 42.262 C292.539 42.944 294.707 43.628 296.875 44.312 C298.327 44.746 298.327 44.746 299.808 45.188 C305.628 47.059 308.561 48.899 312 54 C301.087 51.208 290.371 47.739 279.625 44.375 C277.597 43.742 275.57 43.109 273.542 42.476 C270.51 41.53 267.478 40.583 264.446 39.636 C257.553 37.483 250.656 35.342 243.756 33.21 C240.317 32.146 236.881 31.074 233.445 30 C229.137 28.655 224.819 27.347 220.492 26.062 C204.682 21.293 190.137 14.877 175.543 7.176 C173.013 5.79 173.013 5.79 170 6 C170.672 9.109 170.672 9.109 173.054 10.211 C173.938 10.595 174.823 10.979 175.734 11.375 C176.701 11.803 177.668 12.231 178.664 12.672 C179.682 13.11 180.701 13.548 181.75 14 C183.746 14.872 185.741 15.747 187.734 16.625 C188.624 17.009 189.513 17.393 190.429 17.789 C193 19 193 19 195.704 20.648 C197.843 22.169 197.843 22.169 200 22 C200 22.66 200 23.32 200 24 C199.34 24 198.68 24 198 24 C195.63 26.954 195.63 26.954 196 31 C184.78 32.32 173.56 33.64 162 35 C163.65 32.69 165.3 30.38 167 28 C169.46 21.557 170.23 15.418 167.5 9 C166.757 7.515 166.757 7.515 166 6 C165.34 6 164.68 6 164 6 C164.168 6.678 164.335 7.356 164.508 8.055 C166.15 15.561 166.638 22.221 162.816 29.145 C161.126 31.607 159.711 33.644 157 35 C157.41 34.504 157.82 34.007 158.242 33.496 C163.759 26.541 165.431 21.172 164.484 12.332 C163.988 9.941 163.19 8.122 162 6 C161.062 9.025 161.05 11.092 161.625 14.188 C162.362 19.903 161.114 25.169 157.641 29.82 C157.099 30.21 156.558 30.599 156 31 C154.68 30.67 153.36 30.34 152 30 C152.33 22.41 152.66 14.82 153 7 C152.34 7 151.68 7 151 7 C150.962 8.022 150.962 8.022 150.924 9.064 C150.808 12.147 150.685 15.23 150.562 18.312 C150.523 19.384 150.484 20.456 150.443 21.561 C150.401 22.589 150.36 23.617 150.316 24.676 C150.261 26.098 150.261 26.098 150.205 27.548 C150 30 150 30 149 33 C147.68 33 146.36 33 145 33 C145.072 32.14 145.144 31.28 145.219 30.395 C145.859 22.242 146.122 14.176 146 6 C143.744 7.829 143.744 7.829 143.773 10.522 C143.783 11.559 143.794 12.596 143.805 13.664 C143.811 14.786 143.818 15.907 143.824 17.062 C143.841 18.238 143.858 19.414 143.875 20.625 C143.884 21.808 143.893 22.992 143.902 24.211 C143.926 27.141 143.959 30.07 144 33 C142.35 33 140.7 33 139 33 C139.238 31.92 139.238 31.92 139.48 30.818 C139.973 28.147 140.2 25.628 140.316 22.918 C140.358 21.987 140.4 21.055 140.443 20.096 C140.483 19.136 140.522 18.176 140.562 17.188 C140.627 15.719 140.627 15.719 140.693 14.221 C140.799 11.814 140.901 9.407 141 7 C140.34 7 139.68 7 139 7 C138.02 12.688 137.881 18.173 137.938 23.938 C137.944 25.249 137.944 25.249 137.951 26.588 C137.963 28.725 137.981 30.863 138 33 C136.02 33 134.04 33 132 33 C132.091 32.355 132.182 31.709 132.275 31.044 C132.686 28.113 133.093 25.182 133.5 22.25 C133.643 21.234 133.786 20.218 133.934 19.172 C134.137 17.702 134.137 17.702 134.344 16.203 C134.469 15.302 134.595 14.402 134.725 13.474 C135.074 10.752 135.074 10.752 135 7 C134.34 7 133.68 7 133 7 C132.519 9.833 132.04 12.666 131.562 15.5 C131.36 16.687 131.36 16.687 131.154 17.898 C130.956 19.078 130.956 19.078 130.754 20.281 C130.621 21.066 130.487 21.851 130.35 22.66 C130.01 24.93 129.815 27.182 129.625 29.469 C129 33 129 33 127.371 34.438 C125.581 34.958 123.79 35.479 122 36 C121.67 35.67 121.34 35.34 121 35 C117.935 34.839 115.945 35.018 113 36 C112.01 36 111.02 36 110 36 C110.121 35.228 110.242 34.456 110.367 33.661 C110.914 30.17 111.457 26.679 112 23.188 C112.191 21.973 112.382 20.758 112.578 19.506 C112.849 17.761 112.849 17.761 113.125 15.98 C113.293 14.907 113.46 13.833 113.633 12.727 C114.067 9.963 114.067 9.963 114 7 C113.01 7 112.02 7 111 7 C110.01 15.91 109.02 24.82 108 34 C104.7 33.67 101.4 33.34 98 33 C98 24.42 98 15.84 98 7 C97.34 7 96.68 7 96 7 C96 15.58 96 24.16 96 33 C93.69 32.67 91.38 32.34 89 32 C81.22 31.373 74.032 32.484 67 36 C67.151 35.283 67.303 34.567 67.459 33.829 C68.141 30.595 68.821 27.36 69.5 24.125 C69.738 22.997 69.977 21.869 70.223 20.707 C70.448 19.631 70.674 18.554 70.906 17.445 C71.116 16.45 71.325 15.455 71.541 14.43 C72.062 12.085 72.062 12.085 72 10 C72.66 10 73.32 10 74 10 C74 17.26 74 24.52 74 32 C74.66 32 75.32 32 76 32 C76 23.42 76 14.84 76 6 C75.34 6 74.68 6 74 6 Z " fill="#FEFEFE" transform="translate(0,0)"/>
<path d="M0 0 C5.989 -0.21 9.523 0.005 14.176 4.203 C15.083 4.966 15.991 5.729 16.926 6.516 C21.96 12.529 21.752 20.622 22.301 28.141 C22.383 29.246 22.465 30.352 22.549 31.491 C22.992 37.786 23.415 44.081 23.551 50.391 C23.579 51.58 23.608 52.77 23.637 53.996 C22.77 60.026 18.749 64.402 14.176 68.203 C11.335 69.107 8.514 69.358 5.551 69.602 C4.314 69.728 4.314 69.728 3.052 69.856 C1.315 70.029 -0.423 70.192 -2.162 70.344 C-4.818 70.578 -7.469 70.842 -10.121 71.113 C-11.814 71.278 -13.506 71.441 -15.199 71.602 C-16.384 71.717 -16.384 71.717 -17.592 71.835 C-21.537 72.174 -24.988 72.255 -28.824 71.203 C-28.839 70.32 -28.853 69.436 -28.868 68.526 C-29.199 50.484 -30.013 32.741 -32.203 14.816 C-32.715 10.566 -32.965 6.481 -32.824 2.203 C-24.007 0.983 -15.186 0.644 -6.298 0.303 C-4.198 0.218 -2.099 0.111 0 0 Z " fill="#FFFFFF" transform="translate(87.82421875,100.796875)"/>
<path d="M0 0 C4.645 2.765 6.577 6.334 9 11 C9.66 10.67 10.32 10.34 11 10 C9.625 5.989 7.69 3.253 5 0 C7.855 0.115 10.708 0.242 13.562 0.375 C14.762 0.421 14.762 0.421 15.986 0.469 C24.676 0.894 31.095 2.855 37.895 8.43 C41.151 12.405 41.396 16.325 41.719 21.34 C41.812 22.218 41.904 23.096 42 24 C42.66 24.33 43.32 24.66 44 25 C40.525 27.317 38.091 27.426 34 28 C31.664 28.956 31.664 28.956 30 30 C30 30.66 30 31.32 30 32 C28.834 33.132 27.663 34.26 26.473 35.367 C24.715 37.316 23.601 39.404 22.312 41.688 C20.506 44.542 19.568 45.777 16.395 47.023 C13.916 47.506 11.519 47.846 9 48 C8.602 41.737 9.195 37.878 11.977 32.285 C13.598 28.664 14.301 24.889 15 21 C14.34 21 13.68 21 13 21 C13.062 21.763 13.124 22.526 13.188 23.312 C12.959 26.589 12.227 26.773 10 29 C9.119 30.933 9.119 30.933 8.5 33 C7.52 36.081 6.524 37.929 4 40 C2.34 40.364 0.673 40.7 -1 41 C-1.66 41.66 -2.32 42.32 -3 43 C-4.65 42.34 -6.3 41.68 -8 41 C-8 39.35 -8 37.7 -8 36 C-7.397 36.119 -6.793 36.237 -6.172 36.359 C-1.048 37.329 -1.048 37.329 3.5 35.25 C5.15 32.989 5.15 32.989 6 30 C4.886 31.454 4.886 31.454 3.75 32.938 C2.185 34.793 1.158 35.916 -1 37.062 C-4.086 36.966 -5.571 35.882 -8 34 C-12.715 27.844 -13.706 22.603 -13 15 C-11.414 9.908 -9.702 6.687 -5 4 C-0.607 4 1.801 6.167 5 9 C2.261 5.679 0.806 4.144 -3.5 3.375 C-8.026 4.183 -9.333 5.267 -12 9 C-12.953 11.967 -13.55 14.919 -14 18 C-14.66 17.67 -15.32 17.34 -16 17 C-13.816 5.207 -13.816 5.207 -8.688 1.188 C-5.444 -0.246 -3.513 -0.512 0 0 Z " fill="#F5F5F5" transform="translate(168,63)"/>
<path d="M0 0 C11.044 -0.079 22.034 0.118 33.067 0.643 C34.586 0.712 36.106 0.781 37.626 0.849 C41.691 1.034 45.756 1.223 49.821 1.414 C54.091 1.613 58.362 1.807 62.633 2.002 C70.693 2.371 78.753 2.744 86.813 3.118 C96.001 3.544 105.188 3.966 114.376 4.387 C133.251 5.253 152.126 6.125 171 7 C172.37 9.739 172.126 11.971 172 15 C171.67 15.66 171.34 16.32 171 17 C159.03 17.148 147.159 16.691 135.211 16.012 C133.317 15.907 131.422 15.803 129.528 15.7 C124.509 15.424 119.49 15.143 114.472 14.861 C109.282 14.57 104.091 14.284 98.901 13.997 C90.697 13.543 82.493 13.087 74.29 12.628 C65.273 12.125 56.257 11.63 47.24 11.143 C42.888 10.908 38.537 10.67 34.186 10.433 C31.959 10.312 29.732 10.192 27.505 10.072 C24.489 9.91 21.473 9.745 18.457 9.578 C17.614 9.534 16.772 9.489 15.904 9.443 C0.586 8.586 0.586 8.586 -1 7 C-0.713 4.661 -0.381 2.326 0 0 Z " fill="#FFFFFF" transform="translate(95,49)"/>
<path d="M0 0 C0.883 0.269 1.766 0.539 2.676 0.816 C3.34 1.021 4.004 1.226 4.688 1.438 C4.688 2.097 4.688 2.757 4.688 3.438 C-5.609 6.278 -15.934 8.762 -26.375 11.012 C-27.885 11.34 -29.395 11.669 -30.904 11.998 C-34.076 12.688 -37.247 13.377 -40.419 14.064 C-48.643 15.846 -56.865 17.641 -65.086 19.438 C-66.293 19.701 -66.293 19.701 -67.524 19.97 C-80.348 22.772 -93.154 25.641 -105.938 28.625 C-106.693 28.801 -107.449 28.977 -108.228 29.159 C-111.04 29.815 -113.852 30.471 -116.663 31.127 C-123.119 32.632 -129.587 34.082 -136.062 35.5 C-137.45 35.807 -137.45 35.807 -138.866 36.12 C-139.689 36.298 -140.512 36.476 -141.359 36.66 C-142.409 36.888 -142.409 36.888 -143.479 37.121 C-145.312 37.438 -145.312 37.438 -148.312 37.438 C-148.898 31.578 -148.898 31.578 -148.312 29.438 C-143.139 25.072 -137.651 24.115 -131.117 22.852 C-130.025 22.629 -128.933 22.407 -127.808 22.178 C-124.27 21.461 -120.729 20.762 -117.188 20.062 C-114.745 19.57 -112.303 19.076 -109.861 18.581 C-105.101 17.616 -100.339 16.657 -95.577 15.702 C-88.496 14.278 -81.432 12.786 -74.375 11.25 C-66.807 9.612 -59.235 7.996 -51.656 6.406 C-50.808 6.228 -49.959 6.05 -49.085 5.867 C-44.903 4.989 -40.72 4.113 -36.537 3.24 C-34.995 2.916 -33.453 2.593 -31.91 2.27 C-31.169 2.115 -30.428 1.961 -29.665 1.802 C-24.077 0.628 -18.537 -0.704 -13.01 -2.138 C-8.398 -2.864 -4.39 -1.346 0 0 Z " fill="#FFFFFF" transform="translate(279.3125,172.5625)"/>
<path d="M0 0 C1.789 5.476 2.46 10.571 2.75 16.312 C2.805 17.123 2.861 17.933 2.918 18.768 C3.032 20.842 3.025 22.922 3 25 C-0.006 28.006 -2.824 27.596 -7 28 C-7.66 26.68 -8.32 25.36 -9 24 C-9.566 24.158 -10.132 24.317 -10.716 24.48 C-13.035 25.008 -15.174 25.204 -17.547 25.316 C-18.391 25.358 -19.236 25.4 -20.105 25.443 C-20.978 25.483 -21.851 25.522 -22.75 25.562 C-23.638 25.606 -24.526 25.649 -25.441 25.693 C-27.627 25.799 -29.814 25.901 -32 26 C-32.33 26.99 -32.66 27.98 -33 29 C-35.64 29 -38.28 29 -41 29 C-41.833 22.81 -42.108 16.675 -42.125 10.438 C-42.13 9.723 -42.134 9.008 -42.139 8.271 C-42.124 3.124 -42.124 3.124 -41 2 C-39.253 1.771 -37.498 1.604 -35.742 1.465 C-34.648 1.378 -33.553 1.29 -32.425 1.201 C-31.254 1.114 -30.082 1.027 -28.875 0.938 C-27.697 0.848 -26.519 0.759 -25.305 0.667 C-16.847 0.057 -8.477 -0.252 0 0 Z " fill="#393939" transform="translate(102,121)"/>
<path d="M0 0 C0.99 0.66 1.98 1.32 3 2 C3 2.66 3 3.32 3 4 C5.31 4 7.62 4 10 4 C10.651 17.676 8.614 37.208 0.125 48.312 C-1.982 50.414 -3.02 51.006 -5.938 51.938 C-10.945 50.404 -13.216 47.335 -16 43 C-26.998 22.166 -26.998 22.166 -25.562 14.734 C-25.377 14.162 -25.191 13.59 -25 13 C-23.561 13.087 -22.124 13.196 -20.688 13.312 C-19.887 13.371 -19.086 13.429 -18.262 13.488 C-15.605 14.089 -14.759 14.981 -13 17 C-11.167 18.167 -11.167 18.167 -9 18 C-3.565 14.421 -2.869 9.699 -1.578 3.547 C-1 1 -1 1 0 0 Z " fill="#FFFFFF" transform="translate(57,178)"/>
<path d="M0 0 C1.551 2.327 2.823 4.512 4.062 7 C4.404 7.681 4.746 8.361 5.098 9.062 C6 11 6 11 7 14 C8.802 15.092 8.802 15.092 11 16 C11.77 16.425 12.539 16.851 13.332 17.289 C18.418 20.028 22.077 21.711 28 21 C28.743 20.773 29.485 20.546 30.25 20.312 C30.827 20.209 31.405 20.106 32 20 C33.75 21.438 33.75 21.438 35 23 C34.794 22.257 34.587 21.515 34.375 20.75 C33.956 17.677 34.381 16.572 36 14 C39 15 39 15 40.164 17.16 C41.811 22.755 42.187 29.534 40.277 35.109 C38.146 38.596 35.793 39.844 32 41 C29.203 41.216 26.543 41.333 23.75 41.312 C22.993 41.308 22.236 41.304 21.456 41.3 C13.175 41.133 6.537 39.321 0 34 C-4.886 27.662 -5.958 21.867 -5 14 C-3.582 9.221 -1.866 4.624 0 0 Z " fill="#FFFFFF" transform="translate(271,121)"/>
<path d="M0 0 C1.625 0.145 3.25 0.291 4.875 0.438 C6.389 0.573 6.389 0.573 7.934 0.711 C9.802 0.887 11.67 1.076 13.535 1.289 C20.039 2.029 26.458 2.101 33 2 C33.12 9.751 30.773 14.558 26.719 21.055 C22.543 28.21 21.503 35.84 21 44 C19.515 44.495 19.515 44.495 18 45 C18.476 50.478 20.027 54.841 22.258 59.863 C22.625 60.921 22.625 60.921 23 62 C22.67 62.66 22.34 63.32 22 64 C15.383 59.196 12.743 54.211 9.625 46.75 C9.188 45.745 8.751 44.739 8.301 43.703 C7.499 41.856 6.705 40.006 5.92 38.151 C5.321 36.75 4.682 35.364 4 34 C4.312 32.661 4.649 31.329 5 30 C5.694 21.89 4.259 14.758 2 7 C1.787 6.237 1.575 5.474 1.355 4.688 C0.917 3.121 0.461 1.56 0 0 Z " fill="#FFFFFF" transform="translate(243,100)"/>
<path d="M0 0 C6.775 2.526 9.367 8.638 12.391 14.906 C18.688 29.212 18.688 29.212 18.688 36.375 C17.038 36.375 15.388 36.375 13.688 36.375 C13.223 37.551 13.223 37.551 12.75 38.75 C11.687 41.375 11.687 41.375 10.688 43.375 C10.028 43.375 9.367 43.375 8.688 43.375 C7.609 41.66 7.609 41.66 6.438 39.438 C4.347 35.913 4.347 35.913 0.562 34.25 C-2.514 34.135 -2.514 34.135 -5.312 36.375 C-5.642 37.365 -5.972 38.355 -6.312 39.375 C-7.591 39.519 -8.87 39.664 -10.188 39.812 C-12.569 40.081 -14.157 40.297 -16.312 41.375 C-15.787 27.728 -13.516 13.145 -5.5 1.812 C-3.312 0.375 -3.312 0.375 0 0 Z " fill="#FFFFFF" transform="translate(40.3125,57.625)"/>
<path d="M0 0 C2.546 0.203 3.66 0.622 5.379 2.531 C8.302 7.393 10.914 12.381 12 18 C11.67 18.99 11.34 19.98 11 21 C10.34 20.67 9.68 20.34 9 20 C9.33 23.3 9.66 26.6 10 30 C11.32 29.67 12.64 29.34 14 29 C17.885 47.456 18.887 70.15 12 88 C10.484 89.934 10.484 89.934 9 91 C6.118 91 5.093 90.087 3 88.125 C-0.847 82.114 -3.232 75.104 -4 68 C0.95 67.01 0.95 67.01 6 66 C8.068 60.868 8.349 56.383 8.312 50.938 C8.309 50.103 8.306 49.268 8.302 48.408 C8.158 40.106 7.83 30.441 2 24 C0.671 23.648 -0.662 23.312 -2 23 C-2.33 22.01 -2.66 21.02 -3 20 C-3.66 19.67 -4.32 19.34 -5 19 C-5.33 20.65 -5.66 22.3 -6 24 C-6.33 24 -6.66 24 -7 24 C-6.714 15.68 -6.22 6.22 0 0 Z " fill="#FFFFFF" transform="translate(27,99)"/>
<path d="M0 0 C3.258 0.361 5.112 1.384 7.912 3.08 C8.903 3.672 9.894 4.263 10.916 4.873 C11.958 5.508 13.001 6.144 14.076 6.799 C16.228 8.085 18.382 9.369 20.537 10.65 C22.11 11.589 22.11 11.589 23.715 12.546 C29.601 16.002 35.637 19.17 41.701 22.299 C41.701 22.629 41.701 22.959 41.701 23.299 C39.455 23.716 37.204 24.107 34.951 24.486 C33.698 24.707 32.445 24.927 31.154 25.154 C27.701 25.299 27.701 25.299 25.248 23.975 C23.701 22.299 23.701 22.299 23.701 20.299 C21.721 20.299 19.741 20.299 17.701 20.299 C17.206 22.774 17.206 22.774 16.701 25.299 C15.463 25.67 14.226 26.041 12.951 26.424 C6.397 28.601 -1.362 31.361 -6.299 36.299 C-8.88 36.444 -11.349 36.486 -13.924 36.424 C-14.631 36.415 -15.337 36.406 -16.065 36.396 C-17.81 36.373 -19.555 36.337 -21.299 36.299 C-20.309 33.329 -19.319 30.359 -18.299 27.299 C-15.329 27.299 -12.359 27.299 -9.299 27.299 C-5.635 22.524 -5.066 19.699 -5.674 13.674 C-5.826 12.588 -5.979 11.503 -6.135 10.385 C-6.313 7.035 -5.841 5.248 -4.299 2.299 C-2.299 0.299 -2.299 0.299 0 0 Z " fill="#FFFFFF" transform="translate(157.29931640625,132.701171875)"/>
<path d="M0 0 C7.99 3.124 15.382 4.432 23.812 2.5 C24.472 1.84 25.132 1.18 25.812 0.5 C28.09 -0.098 28.09 -0.098 30.75 -0.562 C33.564 -1.064 36.094 -1.594 38.812 -2.5 C38.38 2.907 37.23 6.254 33.812 10.5 C33.153 10.5 32.493 10.5 31.812 10.5 C31.483 11.49 31.153 12.48 30.812 13.5 C27.355 16.174 23.589 18.309 19.812 20.5 C19.136 20.951 18.459 21.402 17.762 21.867 C15.605 23.059 14.287 23.496 11.812 23.5 C7.92 22.061 4.508 19.956 0.979 17.791 C-3.491 15.128 -8.108 12.719 -12.688 10.25 C-14.574 9.226 -16.459 8.2 -18.344 7.172 C-19.157 6.729 -19.969 6.287 -20.807 5.831 C-23.299 4.438 -25.746 2.981 -28.188 1.5 C-24.823 -0.384 -21.493 -1.3 -17.75 -2.188 C-16.081 -2.595 -16.081 -2.595 -14.379 -3.012 C-8.883 -3.853 -5.038 -2.111 0 0 Z " fill="#FFFFFF" transform="translate(200.1875,128.5)"/>
<path d="M0 0 C2.959 -0.054 5.916 -0.094 8.875 -0.125 C9.717 -0.142 10.559 -0.159 11.426 -0.176 C12.231 -0.182 13.037 -0.189 13.867 -0.195 C14.611 -0.206 15.354 -0.216 16.121 -0.227 C18 0 18 0 20 2 C19.402 2.474 18.804 2.949 18.188 3.438 C15.196 6.941 14.263 10.632 13 15 C12.67 15.99 12.34 16.98 12 18 C11.34 18 10.68 18 10 18 C10 20.64 10 23.28 10 26 C10.66 26 11.32 26 12 26 C13.42 28.841 13.315 30.855 13 34 C11.125 36.375 11.125 36.375 9 38 C8.34 38 7.68 38 7 38 C6.604 38.872 6.604 38.872 6.199 39.762 C4.18 43.53 1.522 46.563 -2 49 C-5.937 48.938 -5.937 48.938 -9 48 C-9 46.35 -9 44.7 -9 43 C-8.01 42.505 -8.01 42.505 -7 42 C-6.766 37.21 -6.766 37.21 -9 33 C-7.68 32.34 -6.36 31.68 -5 31 C-4.695 26.573 -4.695 26.573 -6.5 22.625 C-6.995 22.089 -7.49 21.552 -8 21 C-6.35 20.01 -4.7 19.02 -3 18 C-3.438 13.443 -3.85 10.423 -7 7 C-5.546 6.381 -5.546 6.381 -4.062 5.75 C-0.862 4.375 -0.862 4.375 -0.309 1.891 C-0.207 1.267 -0.105 0.643 0 0 Z " fill="#FFFFFF" transform="translate(138,62)"/>
<path d="M0 0 C-1.133 2.455 -2.37 4.52 -3.945 6.734 C-9.868 16.147 -12.24 29.921 -12 41 C-11.505 40.505 -11.505 40.505 -11 40 C-8.329 39.859 -5.676 39.958 -3 40 C-2.845 39.072 -2.845 39.072 -2.688 38.125 C-2 36 -2 36 1 34 C4.931 34.084 6.504 34.504 9.312 37.312 C10.791 39.668 11.597 41.283 12 44 C12.66 44 13.32 44 14 44 C14.309 43.216 14.619 42.433 14.938 41.625 C16 39 16 39 17 37 C18.65 37 20.3 37 22 37 C22 36.01 22 35.02 22 34 C22.66 34 23.32 34 24 34 C24.337 35.437 24.67 36.874 25 38.312 C25.186 39.113 25.371 39.914 25.562 40.738 C26 43 26 43 26 46 C23.36 46 20.72 46 18 46 C18.086 46.634 18.171 47.268 18.26 47.921 C18.655 50.864 19.046 53.807 19.438 56.75 C19.572 57.746 19.707 58.743 19.846 59.77 C21.573 72.827 22.136 85.6 22.062 98.75 C22.057 100.333 22.053 101.917 22.049 103.5 C22.038 107.333 22.021 111.167 22 115 C21.67 115 21.34 115 21 115 C20.97 113.893 20.97 113.893 20.94 112.763 C20.386 93.034 19.227 73.564 16.367 54.031 C16.038 51.314 15.929 48.733 16 46 C15.01 46.33 14.02 46.66 13 47 C11.239 51.802 10.554 56.456 10.125 61.562 C10.004 62.822 9.883 64.081 9.758 65.379 C10.048 69.721 11.486 71.526 14 75 C14.609 77.555 14.609 77.555 14.75 79.875 C14.807 80.656 14.863 81.437 14.922 82.242 C14.948 82.822 14.973 83.402 15 84 C13 83 13 83 12.254 81.039 C11.795 79.435 11.336 77.831 10.879 76.227 C10.156 73.937 10.156 73.937 8.418 72.5 C7 71 7 71 6.672 68.836 C6.698 68.024 6.723 67.212 6.75 66.375 C6.777 65.497 6.804 64.619 6.832 63.715 C7.528 52.472 7.528 52.472 9 51 C8.715 45.975 8.715 45.975 6 42 C4.088 41.72 4.088 41.72 2 41.812 C0.948 41.822 0.948 41.822 -0.125 41.832 C-2.091 41.893 -2.091 41.893 -4 43 C-3.528 43.713 -3.528 43.713 -3.047 44.441 C6.283 59.701 7.363 78.681 7.316 96.13 C7.312 98.563 7.336 100.995 7.361 103.428 C7.396 112.369 6.804 120.409 4 129 C3.34 129 2.68 129 2 129 C2.217 128.17 2.433 127.34 2.656 126.484 C4.748 117.224 5.302 108.305 5.312 98.812 C5.318 97.65 5.323 96.488 5.328 95.29 C5.266 87.372 4.409 79.788 3 72 C1.68 72 0.36 72 -1 72 C-1 68.7 -1 65.4 -1 62 C-0.34 62 0.32 62 1 62 C-0.623 54.822 -2.663 48.982 -7 43 C-8.947 43.145 -8.947 43.145 -11 44 C-14.106 49.148 -15.484 55.064 -16 61 C-16.66 61 -17.32 61 -18 61 C-18.15 57.336 -18.102 54.342 -17.047 50.812 C-15.87 46.527 -15.481 42.474 -15.125 38.062 C-13.966 25.812 -12.112 12.39 -5 2 C-2 0 -2 0 0 0 Z " fill="#080808" transform="translate(37,57)"/>
<path d="M0 0 C2.87 2.512 3.881 3.955 4.312 7.75 C4 10 4 10 3 11 C0.902 22.29 0.902 22.29 3.875 32.688 C4.576 33.451 5.278 34.214 6 35 C8.354 40.716 8.295 46.028 7 52 C6.34 52.99 5.68 53.98 5 55 C4.744 60.11 4.973 64.967 6 70 C6.66 70.33 7.32 70.66 8 71 C8.681 72.661 9.347 74.328 10 76 C10.66 76.66 11.32 77.32 12 78 C11.572 79.42 11.132 80.836 10.688 82.25 C10.322 83.433 10.322 83.433 9.949 84.641 C8.898 87.254 7.999 89.001 6 91 C3.301 91.609 3.301 91.609 0.312 91.75 C-0.681 91.807 -1.675 91.863 -2.699 91.922 C-3.458 91.948 -4.218 91.973 -5 92 C-4.723 91.264 -4.446 90.528 -4.16 89.77 C-3.798 88.794 -3.436 87.818 -3.062 86.812 C-2.703 85.85 -2.343 84.887 -1.973 83.895 C-0.21 78.649 0.18 73.699 0.238 68.191 C0.248 67.436 0.258 66.681 0.268 65.903 C0.293 63.456 0.305 61.009 0.312 58.562 C0.315 57.731 0.318 56.9 0.32 56.043 C0.327 36.428 -1.75 18.575 -11 1 C-7.292 -0.236 -3.848 -0.689 0 0 Z " fill="#FFFFFF" transform="translate(43,98)"/>
<path d="M0 0 C-0.084 0.557 -0.168 1.114 -0.254 1.688 C-0.971 7.058 -0.875 11.654 0 17 C0.99 17.33 1.98 17.66 3 18 C3.97 20.911 4.165 22.902 4.188 25.938 C4.202 26.792 4.216 27.647 4.23 28.527 C3.984 31.172 3.422 32.769 2 35 C-0.336 36.012 -1.471 36.194 -3.875 35.312 C-7.318 34.806 -9.26 37.076 -12 39 C-12.99 39 -13.98 39 -15 39 C-15.341 35.376 -15.671 31.75 -16 28.125 C-16.095 27.112 -16.191 26.099 -16.289 25.055 C-16.861 18.682 -17.128 12.397 -17 6 C-15.108 8.386 -13.976 10.072 -13 13 C-12.34 13.33 -11.68 13.66 -11 14 C-11 11.69 -11 9.38 -11 7 C-11.66 8.32 -12.32 9.64 -13 11 C-16 5.375 -16 5.375 -16 2 C-12.899 -0.067 -11.598 -0.361 -8 -0.688 C-6.701 -0.817 -6.701 -0.817 -5.375 -0.949 C-3 -1 -3 -1 0 0 Z " fill="#FFFFFF" transform="translate(128,111)"/>
<path d="M0 0 C2.262 2.715 3.06 4.135 2.812 7.688 C2 10 2 10 0 12 C-2.873 12.805 -5.713 13.513 -8.621 14.164 C-9.477 14.361 -10.332 14.558 -11.214 14.761 C-13.025 15.176 -14.836 15.588 -16.649 15.996 C-19.425 16.622 -22.198 17.259 -24.971 17.898 C-26.729 18.3 -28.487 18.701 -30.246 19.102 C-31.077 19.292 -31.909 19.483 -32.765 19.679 C-35.901 20.383 -38.776 21 -42 21 C-42.66 16.71 -43.32 12.42 -44 8 C-38.54 6.687 -33.078 5.387 -27.612 4.1 C-25.754 3.66 -23.896 3.217 -22.04 2.77 C-19.369 2.127 -16.695 1.498 -14.02 0.871 C-13.192 0.669 -12.365 0.467 -11.513 0.259 C-4.001 -1.476 -4.001 -1.476 0 0 Z " fill="#FFFFFF" transform="translate(197,110)"/>
<path d="M0 0 C0 0.66 0 1.32 0 2 C-24.255 7.445 -24.255 7.445 -49 13 C-32.712 11.113 -16.475 9 -0.239 6.714 C0.888 6.556 0.888 6.556 2.038 6.394 C3.44 6.196 4.842 5.998 6.244 5.799 C9.543 5.333 12.845 4.889 16.152 4.479 C19.223 4.097 22.285 3.688 25.348 3.246 C26.283 3.114 27.218 2.982 28.182 2.846 C30.107 2.573 32.031 2.297 33.955 2.018 C39.027 1.307 43.879 0.837 49 1 C39.697 7.202 27.082 5.522 16 7 C9.07 25.81 2.14 44.62 -5 64 C-5.66 64 -6.32 64 -7 64 C-4.798 56.203 -2.098 48.644 0.75 41.062 C1.638 38.682 2.526 36.302 3.414 33.922 C3.85 32.756 4.286 31.59 4.735 30.389 C6.547 25.535 8.337 20.675 10.125 15.812 C10.644 14.402 11.163 12.992 11.682 11.581 C12.117 10.399 12.552 9.218 13 8 C5.958 8.841 -1.084 9.687 -8.125 10.535 C-12.024 11.003 -15.923 11.467 -19.823 11.93 C-28.323 12.944 -36.819 13.991 -45.312 15.062 C-46.06 15.157 -46.808 15.251 -47.579 15.348 C-71.896 18.421 -95.759 22.416 -119.487 28.705 C-123.074 29.637 -126.29 30.215 -130 30 C-129.67 29.34 -129.34 28.68 -129 28 C-126.631 27.241 -126.631 27.241 -123.445 26.52 C-122.257 26.246 -121.069 25.973 -119.845 25.691 C-118.531 25.398 -117.217 25.105 -115.902 24.812 C-114.542 24.503 -113.182 24.193 -111.822 23.883 C-108.256 23.071 -104.688 22.27 -101.118 21.473 C-99.081 21.018 -97.044 20.561 -95.007 20.103 C-86.522 18.198 -78.034 16.313 -69.543 14.438 C-64.268 13.272 -58.995 12.104 -53.721 10.936 C-51.768 10.503 -49.815 10.072 -47.861 9.64 C-41.001 8.122 -34.147 6.58 -27.3 5.004 C-25.869 4.676 -24.438 4.348 -23.006 4.02 C-20.288 3.397 -17.572 2.767 -14.856 2.133 C-13.636 1.853 -12.417 1.573 -11.16 1.285 C-9.552 0.912 -9.552 0.912 -7.912 0.531 C-5.195 0.036 -2.753 -0.105 0 0 Z " fill="#000000" transform="translate(269,180)"/>
<path d="M0 0 C5.657 0.188 11.312 0.401 16.968 0.635 C18.888 0.711 20.808 0.781 22.729 0.844 C44.174 1.557 44.174 1.557 51 6 C53.312 8.625 53.312 8.625 55 11 C59.099 13.277 63.402 13.532 68 14 C64.687 17.711 61.482 19.914 57 22 C52.727 21.615 49.064 20.4 45.098 18.812 C43.97 18.365 42.842 17.917 41.681 17.456 C40.487 16.976 39.293 16.495 38.062 16 C36.822 15.505 35.58 15.012 34.339 14.518 C31.805 13.511 29.273 12.501 26.741 11.49 C21.089 9.235 15.419 7.025 9.75 4.812 C7.849 4.069 5.948 3.326 4.047 2.582 C2.698 2.055 1.349 1.527 0 1 C0 0.67 0 0.34 0 0 Z " fill="#FFFFFF" transform="translate(205,65)"/>
<path d="M0 0 C2.332 0.211 2.332 0.211 5 1 C11.504 9.773 13.48 21.733 12.859 32.422 C11.458 41.015 6.106 47.79 -0.812 52.812 C-2.522 53.907 -4.251 54.971 -6 56 C-6.759 56.45 -7.519 56.9 -8.301 57.363 C-20.71 64.1 -34.094 66.761 -48 68 C-48 66.35 -48 64.7 -48 63 C-47.306 62.844 -46.611 62.689 -45.896 62.529 C-26.369 58.495 -26.369 58.495 -8.328 50.355 C-6 49 -6 49 -4 49 C-4 48.34 -4 47.68 -4 47 C-3.257 46.443 -2.515 45.886 -1.75 45.312 C3.163 41.181 6.467 34.922 7.336 28.527 C7.482 18.814 4.478 10.508 0 2 C0 1.34 0 0.68 0 0 Z " fill="#FFFFFF" transform="translate(234,97)"/>
<path d="M0 0 C3.375 1.434 5.185 3.233 7.5 6.062 C8.312 8.875 8.312 8.875 8.5 11.062 C7.84 11.062 7.18 11.062 6.5 11.062 C6.842 14.033 6.842 14.033 7.5 17.062 C8.16 17.392 8.82 17.722 9.5 18.062 C9.166 24.526 8.224 27.558 3.5 32.062 C1.5 33.125 1.5 33.125 -0.5 33.062 C-5.039 31.133 -7.09 28.281 -9.5 24.062 C-11.257 18.375 -11.071 12.896 -9.312 7.25 C-7.005 3.192 -4.948 0.124 0 0 Z " fill="#FFFFFF" transform="translate(165.5,66.9375)"/>
<path d="M0 0 C0.33 0.66 0.66 1.32 1 2 C3.22 2.47 3.22 2.47 5.812 2.625 C7.122 2.737 7.122 2.737 8.457 2.852 C10.635 2.979 12.818 3 15 3 C15.094 7.99 15.097 12.961 14.688 17.938 C14.629 18.648 14.571 19.358 14.512 20.09 C13.86 22.524 12.988 23.473 11 25 C6.518 25.927 2.758 26.068 -1.773 25.516 C-2.569 25.421 -3.365 25.325 -4.185 25.228 C-4.784 25.152 -5.383 25.077 -6 25 C-6.087 21.896 -6.14 18.792 -6.188 15.688 C-6.213 14.806 -6.238 13.925 -6.264 13.018 C-6.273 12.17 -6.283 11.322 -6.293 10.449 C-6.309 9.669 -6.324 8.889 -6.341 8.085 C-5.913 5.469 -5.086 4.586 -3 3 C-2.34 3 -1.68 3 -1 3 C-0.67 2.01 -0.34 1.02 0 0 Z " fill="#FFFFFF" transform="translate(280,49)"/>
<path d="M0 0 C10.89 0 21.78 0 33 0 C32.67 0.99 32.34 1.98 32 3 C30.274 3.696 30.274 3.696 28.003 4.151 C27.155 4.328 26.307 4.504 25.433 4.686 C24.51 4.865 23.588 5.043 22.637 5.227 C21.693 5.42 20.75 5.613 19.778 5.812 C16.75 6.429 13.719 7.027 10.688 7.625 C8.654 8.035 6.621 8.447 4.588 8.859 C0.096 9.771 -4.397 10.67 -8.893 11.558 C-10.286 11.85 -11.671 12.18 -13.045 12.55 C-16.243 13.286 -19.486 13.103 -22.75 13.062 C-23.447 13.058 -24.145 13.053 -24.863 13.049 C-26.576 13.037 -28.288 13.019 -30 13 C-31 11 -31 11 -31 2 C-18.46 2 -5.92 2 7 2 C4.69 1.67 2.38 1.34 0 1 C0 0.67 0 0.34 0 0 Z " fill="#FFFFFF" transform="translate(232,167)"/>
<path d="M0 0 C8.59 2.361 16.692 5.62 24.873 9.123 C25.85 9.522 26.826 9.921 27.832 10.332 C28.706 10.7 29.58 11.069 30.48 11.448 C35.774 12.607 40.497 8.631 44.914 6.023 C47 5 47 5 50 5 C49.67 9.62 49.34 14.24 49 19 C39.552 19.441 30.563 19.076 21.25 17.312 C20.405 17.164 19.561 17.015 18.69 16.862 C13.343 15.762 10.623 14.294 7 10 C6.113 9.361 5.226 8.721 4.312 8.062 C1.536 5.586 0.891 3.562 0 0 Z " fill="#FFFFFF" transform="translate(227,77)"/>
<path d="M0 0 C0 1.65 0 3.3 0 5 C-0.69 5.219 -1.379 5.438 -2.09 5.664 C-17.197 10.762 -25.338 20.175 -34.588 32.658 C-36.597 35.34 -38.178 37.119 -41 39 C-43.875 39.062 -43.875 39.062 -47 38 C-50.659 34.361 -52.78 29.99 -54 25 C-54 23.68 -54 22.36 -54 21 C-52.02 20.67 -50.04 20.34 -48 20 C-47.746 20.843 -47.492 21.686 -47.23 22.555 C-46.886 23.65 -46.542 24.746 -46.188 25.875 C-45.683 27.511 -45.683 27.511 -45.168 29.18 C-44.193 32.273 -44.193 32.273 -41 34 C-40.888 33.407 -40.775 32.814 -40.659 32.203 C-39.941 29.803 -39.099 28.622 -37.453 26.758 C-36.938 26.166 -36.422 25.574 -35.891 24.965 C-35.349 24.358 -34.808 23.751 -34.25 23.125 C-33.192 21.92 -32.135 20.714 -31.078 19.508 C-30.558 18.921 -30.037 18.334 -29.501 17.729 C-28.098 16.113 -26.765 14.459 -25.434 12.785 C-19.435 5.92 -9.382 0 0 0 Z " fill="#FFFFFF" transform="translate(173,161)"/>
<path d="M0 0 C0 0.66 0 1.32 0 2 C-1.961 3.389 -3.962 4.726 -6 6 C0.208 6.099 6.156 5.749 12.312 5 C19.572 4.169 26.685 3.737 34 4 C30.335 6.279 26.618 6.504 22.418 6.816 C21.686 6.878 20.953 6.939 20.199 7.002 C17.862 7.197 15.525 7.38 13.188 7.562 C10.861 7.751 8.535 7.941 6.209 8.133 C4.764 8.252 3.319 8.368 1.874 8.481 C-6.014 8.639 -6.014 8.639 -12.938 11.562 C-13.288 12.037 -13.639 12.511 -14 13 C-7.101 13.279 -0.406 12.786 6.438 12 C13.657 11.172 20.724 10.739 28 11 C28 11.66 28 12.32 28 13 C27.107 13.083 27.107 13.083 26.196 13.168 C23.505 13.42 20.815 13.679 18.125 13.938 C17.188 14.025 16.251 14.112 15.285 14.201 C14.389 14.288 13.493 14.375 12.57 14.465 C11.329 14.583 11.329 14.583 10.063 14.703 C7.942 14.898 7.942 14.898 6 16 C7.418 17.813 7.418 17.813 10 19 C13.236 18.797 16.302 17.984 19.438 17.188 C29.76 14.695 29.76 14.695 34 15 C34 15.66 34 16.32 34 17 C27.561 18.433 21.119 19.856 14.676 21.272 C12.486 21.755 10.296 22.24 8.106 22.728 C4.955 23.428 1.802 24.121 -1.352 24.812 C-2.814 25.141 -2.814 25.141 -4.307 25.475 C-8.952 26.486 -13.212 27.28 -18 27 C-17.67 26.34 -17.34 25.68 -17 25 C-14.775 24.314 -14.775 24.314 -11.871 23.711 C-10.837 23.492 -9.802 23.273 -8.736 23.047 C-7.648 22.825 -6.559 22.603 -5.438 22.375 C-3.799 22.031 -3.799 22.031 -2.127 21.68 C0.581 21.112 3.289 20.553 6 20 C3.412 16.891 3.412 16.891 -0.29 15.638 C-1.107 15.701 -1.924 15.763 -2.766 15.828 C-4.1 15.915 -4.1 15.915 -5.461 16.004 C-6.381 16.085 -7.302 16.166 -8.25 16.25 C-9.186 16.316 -10.122 16.381 -11.086 16.449 C-13.393 16.614 -15.696 16.798 -18 17 C-18.268 17.639 -18.536 18.279 -18.812 18.938 C-20 21 -20 21 -23 22 C-19.383 14.221 -9.698 0 0 0 Z " fill="#000000" transform="translate(164,169)"/>
<path d="M0 0 C0.594 0.144 1.189 0.289 1.801 0.438 C8.287 1.89 14.366 2.227 21 2 C20.965 2.615 20.93 3.23 20.895 3.863 C20.867 4.672 20.84 5.48 20.812 6.312 C20.778 7.113 20.743 7.914 20.707 8.738 C21.068 11.528 21.869 12.241 24 14 C24.66 14.66 25.32 15.32 26 16 C17.581 18.167 9.014 19.136 1 15 C0 14 0 14 -0.098 10.84 C-0.08 8.908 -0.08 8.908 -0.062 6.938 C-0.053 5.647 -0.044 4.357 -0.035 3.027 C-0.024 2.028 -0.012 1.029 0 0 Z " fill="#FFFFFF" transform="translate(70,46)"/>
<path d="M0 0 C2.31 0 4.62 0 7 0 C12.928 11.587 13.872 26.591 10 39 C9 40 9 40 5.938 40.062 C4.968 40.042 3.999 40.021 3 40 C3.039 38.806 3.039 38.806 3.079 37.588 C3.184 33.934 3.249 30.28 3.312 26.625 C3.354 25.373 3.396 24.122 3.439 22.832 C3.547 14.637 2.481 8.924 -2 2 C-1.34 2 -0.68 2 0 2 C0 1.34 0 0.68 0 0 Z " fill="#FFFFFF" transform="translate(23,125)"/>
<path d="M0 0 C4.236 4 5.895 8.272 6.117 14.051 C6.124 17.037 6.087 20.015 6 23 C4.397 23.505 2.793 24.004 1.188 24.5 C0.294 24.778 -0.599 25.057 -1.52 25.344 C-4 26 -4 26 -7 26 C-6.835 25.319 -6.67 24.639 -6.5 23.938 C-5.472 17.896 -5.963 13.45 -8.266 7.867 C-9.15 5.618 -9.627 3.384 -10 1 C-6.58 -0.052 -3.564 -0.445 0 0 Z " fill="#FFFFFF" transform="translate(139,120)"/>
<path d="M0 0 C7.938 2.314 15.784 4.878 23.625 7.5 C24.801 7.891 25.976 8.281 27.188 8.684 C33.171 10.68 39.114 12.733 45 15 C45 15.33 45 15.66 45 16 C40.998 16.067 37.002 16.039 33 16 C31.867 16.019 30.734 16.039 29.566 16.059 C17.979 15.868 8.446 11.697 -2 7 C-2.125 4.625 -2.125 4.625 -2 2 C-1.34 1.34 -0.68 0.68 0 0 Z " fill="#FFFFFF" transform="translate(191,37)"/>
<path d="M0 0 C-0.26 2.018 -0.521 4.036 -0.781 6.055 C-1.037 8.005 -1.037 8.005 -1 10 C-4.895 10.505 -8.791 11.003 -12.688 11.5 C-13.79 11.643 -14.893 11.786 -16.029 11.934 C-17.096 12.069 -18.163 12.204 -19.262 12.344 C-20.241 12.469 -21.22 12.595 -22.229 12.725 C-25 13 -25 13 -30 13 C-30 9.7 -30 6.4 -30 3 C-26.313 2.494 -22.626 1.995 -18.938 1.5 C-17.899 1.357 -16.861 1.214 -15.791 1.066 C-10.478 0.358 -5.36 -0.182 0 0 Z " fill="#FFFFFF" transform="translate(187,35)"/>
<path d="M0 0 C0.495 2.475 0.495 2.475 1 5 C-6.25 6.543 -13.51 7.717 -20.852 8.727 C-22.5 8.955 -22.5 8.955 -24.181 9.189 C-26.489 9.508 -28.797 9.826 -31.104 10.142 C-34.623 10.625 -38.139 11.117 -41.656 11.609 C-43.909 11.92 -46.161 12.23 -48.414 12.539 C-49.457 12.686 -50.5 12.833 -51.574 12.984 C-57.109 13.733 -62.415 14.156 -68 14 C-68 13.67 -68 13.34 -68 13 C-67.003 12.79 -67.003 12.79 -65.985 12.576 C-62.719 11.887 -59.453 11.194 -56.188 10.5 C-54.959 10.24 -53.73 9.979 -52.465 9.711 C-45.132 8.146 -37.821 6.506 -30.523 4.785 C-28.935 4.413 -27.346 4.04 -25.757 3.668 C-23.417 3.119 -21.078 2.566 -18.741 2.002 C-16.549 1.473 -14.355 0.956 -12.16 0.441 C-10.267 -0.012 -10.267 -0.012 -8.336 -0.474 C-5.137 -0.978 -3.083 -0.886 0 0 Z " fill="#FFFFFF" transform="translate(283,180)"/>
<path d="M0 0 C1.969 1.969 2.775 3.36 3.945 5.844 C4.3 6.595 4.654 7.347 5.02 8.121 C5.384 8.906 5.749 9.691 6.125 10.5 C6.498 11.285 6.87 12.07 7.254 12.879 C10 18.743 10 18.743 10 21 C-0.23 20.67 -10.46 20.34 -21 20 C-18.838 18.379 -16.661 16.774 -14.414 15.273 C-8.034 10.93 -3.721 6.783 0 0 Z " fill="#FFFFFF" transform="translate(246,137)"/>
<path d="M0 0 C1.673 0.3 3.34 0.636 5 1 C7.031 1.099 7.031 1.099 9 0.375 C9.66 0.251 10.32 0.127 11 0 C13 2 13 2 13 6 C13.66 4.02 14.32 2.04 15 0 C16.98 0 18.96 0 21 0 C21 1.98 21 3.96 21 6 C21.66 6 22.32 6 23 6 C23.268 5.196 23.536 4.391 23.812 3.562 C24.204 2.717 24.596 1.871 25 1 C25.99 0.67 26.98 0.34 28 0 C28.195 1.457 28.381 2.916 28.562 4.375 C28.667 5.187 28.771 5.999 28.879 6.836 C29 9 29 9 28 11 C27.34 11 26.68 11 26 11 C26 10.34 26 9.68 26 9 C24.35 9 22.7 9 21 9 C21 9.66 21 10.32 21 11 C19.188 11.625 19.188 11.625 17 12 C16.01 11.34 15.02 10.68 14 10 C13.196 10.33 12.391 10.66 11.562 11 C10.294 11.495 10.294 11.495 9 12 C7.659 11.35 6.325 10.684 5 10 C2.765 10.783 2.765 10.783 1 12 C-0.5 10.688 -0.5 10.688 -2 9 C-2 2 -2 2 0 0 Z " fill="#151515" transform="translate(302,272)"/>
<path d="M0 0 C4.645 2.765 6.577 6.334 9 11 C9.66 10.67 10.32 10.34 11 10 C14.015 13.498 14.186 16.194 13.875 20.625 C13.508 24.68 12.963 26.277 10 29 C9.119 30.933 9.119 30.933 8.5 33 C7.52 36.081 6.524 37.929 4 40 C2.34 40.364 0.673 40.7 -1 41 C-1.66 41.66 -2.32 42.32 -3 43 C-4.65 42.34 -6.3 41.68 -8 41 C-8 39.35 -8 37.7 -8 36 C-7.397 36.119 -6.793 36.237 -6.172 36.359 C-1.089 37.323 -1.089 37.323 3.438 35.312 C3.953 34.549 4.469 33.786 5 33 C5.412 32.402 5.825 31.804 6.25 31.188 C7.309 28.098 7.125 25.237 7 22 C6.01 21.67 5.02 21.34 4 21 C4 19.02 4 17.04 4 15 C4.66 15 5.32 15 6 15 C5.059 9.579 5.059 9.579 2.312 5 C-1.06 3.542 -3.364 3.49 -7 4 C-10.97 6.735 -12.275 9.246 -13.312 13.812 C-13.56 15.205 -13.796 16.6 -14 18 C-14.66 17.67 -15.32 17.34 -16 17 C-13.816 5.207 -13.816 5.207 -8.688 1.188 C-5.444 -0.246 -3.513 -0.512 0 0 Z " fill="#353535" transform="translate(168,63)"/>
<path d="M0 0 C0.33 0 0.66 0 1 0 C1.381 3.001 1.714 5.989 2 9 C2.08 9.708 2.16 10.415 2.242 11.145 C2.7 18.405 -0.154 24.446 -3 31 C-3.403 31.935 -3.807 32.869 -4.223 33.832 C-5.13 35.897 -6.053 37.953 -7 40 C-7.33 40 -7.66 40 -8 40 C-8.99 36.535 -8.99 36.535 -10 33 C-13.343 32.926 -15.804 32.935 -19 34 C-19.66 32.68 -20.32 31.36 -21 30 C-20.241 29.83 -19.481 29.66 -18.699 29.484 C-17.208 29.121 -17.208 29.121 -15.688 28.75 C-14.701 28.518 -13.715 28.286 -12.699 28.047 C-9.603 26.846 -8.648 25.837 -7 23 C-5.838 19.515 -5.867 16.733 -5.875 13.062 C-5.872 11.837 -5.87 10.611 -5.867 9.348 C-5.973 6.672 -6.201 4.531 -7 2 C-4.69 2 -2.38 2 0 2 C0 1.34 0 0.68 0 0 Z " fill="#FFFFFF" transform="translate(319,134)"/>
<path d="M0 0 C6.93 0 13.86 0 21 0 C21.195 8.398 21.195 8.398 21 11 C17.415 14.585 11.876 13.969 7 14 C4.448 13.58 2.424 12.937 0 12 C0 8.04 0 4.08 0 0 Z " fill="#FFFFFF" transform="translate(84,184)"/>
<path d="M0 0 C0.66 0 1.32 0 2 0 C2 8.58 2 17.16 2 26 C1.34 26 0.68 26 0 26 C0 18.74 0 11.48 0 4 C-0.66 4 -1.32 4 -2 4 C-2.116 4.681 -2.232 5.362 -2.351 6.064 C-2.878 9.147 -3.408 12.23 -3.938 15.312 C-4.12 16.384 -4.302 17.456 -4.49 18.561 C-4.667 19.589 -4.845 20.617 -5.027 21.676 C-5.19 22.624 -5.352 23.572 -5.519 24.548 C-6 27 -6 27 -7 30 C-6.402 29.67 -5.804 29.34 -5.188 29 C-3 28 -3 28 0 28 C0 28.66 0 29.32 0 30 C-0.543 30.254 -1.085 30.508 -1.645 30.77 C-2.36 31.114 -3.075 31.458 -3.812 31.812 C-4.52 32.149 -5.228 32.485 -5.957 32.832 C-8.058 33.914 -8.058 33.914 -9.637 35.637 C-10.087 36.087 -10.536 36.536 -11 37 C-11.66 37 -12.32 37 -13 37 C-12.711 36.443 -12.422 35.886 -12.125 35.312 C-9.757 30.446 -8.391 25.682 -7.375 20.375 C-7.174 19.373 -7.174 19.373 -6.969 18.352 C-6.413 15.514 -6 12.899 -6 10 C-6.66 11.32 -7.32 12.64 -8 14 C-27.47 14.33 -46.94 14.66 -67 15 C-67.33 14.34 -67.66 13.68 -68 13 C-66.278 12.962 -66.278 12.962 -64.522 12.924 C-60.172 12.828 -55.822 12.729 -51.472 12.628 C-49.606 12.585 -47.741 12.543 -45.875 12.503 C-33.565 12.234 -21.289 11.77 -9 11 C-8.01 8.36 -7.02 5.72 -6 3 C-7.98 3 -9.96 3 -12 3 C-12 2.34 -12 1.68 -12 1 C-8.04 1.33 -4.08 1.66 0 2 C0 1.34 0 0.68 0 0 Z " fill="#020202" transform="translate(74,6)"/>
<path d="M0 0 C4.953 0.571 7.756 2.532 10.891 6.398 C15.658 13.179 18.317 20.017 17.25 28.375 C16.279 31.924 14.903 34.7 12.312 37.375 C10.25 38.375 10.25 38.375 8 38.062 C7.423 37.836 6.845 37.609 6.25 37.375 C6.724 36.715 7.199 36.055 7.688 35.375 C10.755 29.486 10.678 23.893 9.031 17.609 C6.39 10.054 2.295 6.011 -4.75 2.375 C-2.75 0.375 -2.75 0.375 0 0 Z " fill="#FFFFFF" transform="translate(206.75,91.625)"/>
<path d="M0 0 C-0.33 2.31 -0.66 4.62 -1 7 C-5.355 7.434 -9.711 7.861 -14.068 8.282 C-15.545 8.425 -17.022 8.571 -18.498 8.718 C-27.011 9.567 -35.433 10.248 -44 10 C-36.951 3.634 -30.681 1.678 -21.34 2.062 C-16.115 1.965 -11.229 0.737 -6.152 -0.441 C-3 -1 -3 -1 0 0 Z " fill="#FFFFFF" transform="translate(200,166)"/>
<path d="M0 0 C4.929 2.725 9.893 5.375 14.875 8 C20.707 11.077 26.505 14.2 32.25 17.438 C29.591 20.097 27.977 20.226 24.25 20.438 C21.445 19.277 21.445 19.277 18.375 17.375 C17.167 16.641 15.959 15.908 14.75 15.176 C14.062 14.752 13.373 14.329 12.664 13.893 C9.802 12.167 6.904 10.511 4 8.855 C2.909 8.231 1.819 7.607 0.695 6.963 C-1.51 5.701 -3.717 4.442 -5.925 3.187 C-6.937 2.602 -7.949 2.017 -8.992 1.414 C-9.909 0.889 -10.825 0.364 -11.769 -0.177 C-12.423 -0.634 -13.076 -1.092 -13.75 -1.562 C-13.75 -2.222 -13.75 -2.882 -13.75 -3.562 C-8.554 -5.487 -4.524 -2.529 0 0 Z " fill="#FFFFFF" transform="translate(176.75,134.5625)"/>
<path d="M0 0 C0.99 0 1.98 0 3 0 C3.655 4.207 4.297 8.416 4.938 12.625 C5.211 14.381 5.211 14.381 5.49 16.172 C7.519 29.598 8.152 42.806 8.062 56.375 C8.057 57.708 8.053 59.042 8.049 60.375 C8.037 63.583 8.021 66.792 8 70 C6.68 70 5.36 70 4 70 C3.711 69.196 3.422 68.391 3.125 67.562 C2.267 64.867 2.267 64.867 0 64 C-1.735 55.79 -1.34 49.209 3 42 C3.33 42 3.66 42 4 42 C4.33 43.65 4.66 45.3 5 47 C5.12 39.986 4.791 33.106 4.125 26.125 C4.035 25.166 3.946 24.206 3.854 23.218 C2.792 11.443 2.792 11.443 0 0 Z " fill="#FFFFFF" transform="translate(50,103)"/>
<path d="M0 0 C0.495 2.475 0.495 2.475 1 5 C-4.334 5.578 -9.668 6.147 -15.003 6.709 C-16.813 6.901 -18.623 7.095 -20.432 7.291 C-30.309 8.361 -40.047 9.366 -50 9 C-47.916 5.845 -46.779 4.22 -43.074 3.173 C-41.957 3.08 -40.839 2.987 -39.688 2.891 C-38.446 2.776 -37.205 2.661 -35.926 2.543 C-34.63 2.446 -33.335 2.35 -32 2.25 C-30.735 2.138 -29.471 2.026 -28.168 1.91 C-24.447 1.584 -20.724 1.291 -17 1 C-13.862 0.727 -10.724 0.453 -7.586 0.175 C-5.048 0.003 -2.543 -0.031 0 0 Z " fill="#FFFFFF" transform="translate(199,174)"/>
<path d="M0 0 C1.607 3.215 1.057 6.436 1 10 C-9.066 10.108 -18.971 9.977 -29 9 C-29 7.02 -29 5.04 -29 3 C-25.105 2.495 -21.209 1.997 -17.312 1.5 C-16.21 1.357 -15.107 1.214 -13.971 1.066 C-12.904 0.931 -11.837 0.796 -10.738 0.656 C-9.759 0.531 -8.78 0.405 -7.771 0.275 C-5.158 0.016 -2.624 -0.05 0 0 Z " fill="#FFFFFF" transform="translate(151,39)"/>
<path d="M0 0 C5.452 4.148 7.376 10.702 8.324 17.328 C8.571 23.974 7.465 29.532 3.875 35.188 C2.908 36.219 1.916 37.23 0.875 38.188 C0.215 37.858 -0.445 37.528 -1.125 37.188 C-0.63 36.218 -0.135 35.249 0.375 34.25 C3.284 27.35 2.216 20.57 -0.078 13.613 C-2.68 7.584 -6.777 2.963 -12.125 -0.812 C-8.252 -2.749 -4.012 -1.043 0 0 Z " fill="#FFFFFF" transform="translate(223.125,90.8125)"/>
<path d="M0 0 C0.66 0 1.32 0 2 0 C6.215 17.159 7.171 34.653 7.062 52.25 C7.057 53.689 7.053 55.128 7.049 56.566 C7.038 60.044 7.021 63.522 7 67 C6.67 67 6.34 67 6 67 C5.974 65.693 5.948 64.386 5.922 63.039 C5.664 53.924 5.152 45.049 3.188 36.125 C3.034 35.408 2.881 34.691 2.724 33.952 C1.872 30.38 0.823 27.54 -1.145 24.43 C-3.293 20.458 -3.341 18.44 -2.875 14 C-2.687 12.186 -2.687 12.186 -2.496 10.336 C-1.957 6.711 -1.231 3.445 0 0 Z " fill="#959595" transform="translate(49,104)"/>
<path d="M0 0 C4.824 1.419 7.726 3.732 10.453 7.848 C13.574 13.903 14.229 20.222 13.188 26.938 C10.845 31.609 10.845 31.609 8.188 32.938 C2.764 33.399 2.764 33.399 0.312 31.438 C-0.059 30.942 -0.43 30.448 -0.812 29.938 C2.653 29.442 2.653 29.442 6.188 28.938 C8.018 21.615 7.8 16.226 4.355 9.602 C3.124 7.634 3.124 7.634 0.188 5.938 C-1.882 5.91 -1.882 5.91 -4 6.312 C-5.887 6.622 -5.887 6.622 -7.812 6.938 C-6.3 2.516 -5.172 -0.115 0 0 Z " fill="#FFFFFF" transform="translate(201.8125,96.0625)"/>
<path d="M0 0 C7.78 2.072 15.492 4.323 23.188 6.688 C24.759 7.168 24.759 7.168 26.361 7.658 C28.908 8.437 31.454 9.218 34 10 C34 12 34 12 32.062 14.25 C28.127 16.499 26.769 15.786 22.561 14.734 C18.121 13.461 13.781 11.943 9.438 10.375 C8.524 10.05 7.611 9.725 6.67 9.391 C4.445 8.598 2.222 7.802 0 7 C0 4.69 0 2.38 0 0 Z " fill="#FFFFFF" transform="translate(228,31)"/>
<path d="M0 0 C1.108 0.416 1.108 0.416 2.238 0.84 C7.613 2.759 12.334 4.184 18.062 4.375 C20.766 4.535 20.766 4.535 23 5 C25.312 7.812 25.312 7.812 26 11 C25.043 13.199 25.043 13.199 24 15 C16.564 14.523 9.021 13.6 2 11 C-0.679 6.981 -0.156 4.758 0 0 Z " fill="#FFFFFF" transform="translate(273,159)"/>
<path d="M0 0 C1.281 0.433 2.563 0.866 3.883 1.312 C14.219 4.682 23.038 6.98 34 6 C24.248 14 24.248 14 17.312 14 C11.422 12.878 5.689 10.865 0 9 C0 6.03 0 3.06 0 0 Z " fill="#FFFFFF" transform="translate(296,52)"/>
<path d="M0 0 C6.364 1.312 12.421 3.012 18.562 5.125 C19.38 5.402 20.198 5.679 21.041 5.965 C23.029 6.639 25.015 7.319 27 8 C27.382 9.656 27.714 11.325 28 13 C27 14 27 14 23.035 14.25 C17.768 14.192 13.347 12.794 8.438 11 C7.62 10.714 6.802 10.428 5.959 10.133 C3.968 9.434 1.983 8.719 0 8 C-0.8 4.713 -1.097 3.29 0 0 Z " fill="#FFFFFF" transform="translate(228,40)"/>
<path d="M0 0 C3.428 1.167 4.889 2.005 6.938 5 C7.399 8.69 7.423 11.03 5.75 14.375 C3.408 16.475 2.079 16.854 -1.062 17 C-5.268 16.01 -6.621 15.662 -9.062 12 C-8.952 5.042 -8.952 5.042 -5.875 1.438 C-3.062 0 -3.062 0 0 0 Z " fill="#111111" transform="translate(284.0625,53)"/>
<path d="M0 0 C0.33 0.99 0.66 1.98 1 3 C1.66 3.33 2.32 3.66 3 4 C-1.067 5.434 -5.037 6.492 -9.273 7.289 C-10.427 7.508 -11.581 7.727 -12.77 7.953 C-13.959 8.175 -15.149 8.397 -16.375 8.625 C-17.588 8.854 -18.801 9.084 -20.051 9.32 C-23.033 9.884 -26.016 10.444 -29 11 C-28.578 10.446 -28.157 9.891 -27.723 9.32 C-27.175 8.596 -26.627 7.871 -26.062 7.125 C-25.517 6.406 -24.972 5.686 -24.41 4.945 C-22.96 3.056 -22.96 3.056 -22 1 C-14.998 -1.334 -7.199 -1.473 0 0 Z " fill="#FFFFFF" transform="translate(168,185)"/>
<path d="M0 0 C0.66 0.33 1.32 0.66 2 1 C2 2.32 2 3.64 2 5 C2.66 5 3.32 5 4 5 C4.339 6.415 4.671 7.832 5 9.25 C5.186 10.039 5.371 10.828 5.562 11.641 C6 14 6 14 6 18 C-0.575 17.38 -6.667 15.851 -13 14 C-13 12.02 -13 10.04 -13 8 C-10.36 7.67 -7.72 7.34 -5 7 C-5 6.34 -5 5.68 -5 5 C-4.34 5 -3.68 5 -3 5 C-2.691 4.361 -2.381 3.721 -2.062 3.062 C-1 1 -1 1 0 0 Z " fill="#DEDEDE" transform="translate(110,163)"/>
<path d="M0 0 C4.8 3.323 4.8 3.323 5.812 6.75 C5.874 7.493 5.936 8.235 6 9 C-0.221 11.437 -5.642 12.493 -12.312 12.375 C-13.135 12.366 -13.957 12.358 -14.804 12.349 C-21.273 12.194 -28.099 11.87 -34 9 C-35.309 6.891 -35.309 6.891 -36 5 C-34.625 3.5 -34.625 3.5 -33 2 C-32.34 2 -31.68 2 -31 2 C-30.67 2.99 -30.34 3.98 -30 5 C-24.676 7.61 -19.161 7.263 -13.375 7.188 C-12.434 7.187 -11.493 7.186 -10.523 7.186 C-4.657 7.29 -4.657 7.29 1 6 C1.33 5.01 1.66 4.02 2 3 C1.01 3.33 0.02 3.66 -1 4 C-0.67 2.68 -0.34 1.36 0 0 Z " fill="#FFFFFF" transform="translate(126,83)"/>
<path d="M0 0 C1.887 0.031 1.887 0.031 3.812 0.062 C5.132 3.032 6.453 6.002 7.812 9.062 C6.823 10.053 5.832 11.042 4.812 12.062 C4.483 12.722 4.153 13.382 3.812 14.062 C1.746 14.695 1.746 14.695 -0.75 15.188 C-1.576 15.355 -2.403 15.523 -3.254 15.695 C-3.892 15.816 -4.53 15.938 -5.188 16.062 C-5.621 14.639 -5.621 14.639 -6.062 13.188 C-6.956 10.01 -6.956 10.01 -9.188 8.062 C-8.528 8.062 -7.868 8.062 -7.188 8.062 C-7.188 5.752 -7.188 3.442 -7.188 1.062 C-4.437 0.146 -2.828 -0.046 0 0 Z " fill="#FFFFFF" transform="translate(114.1875,188.9375)"/>
<path d="M0 0 C0.495 2.97 0.495 2.97 1 6 C-11.007 6.613 -22.974 7.185 -35 7 C-35 5.68 -35 4.36 -35 3 C-31.714 1.905 -28.925 1.695 -25.469 1.465 C-24.184 1.378 -22.898 1.291 -21.574 1.201 C-20.571 1.136 -20.571 1.136 -19.548 1.07 C-17.507 0.938 -15.466 0.801 -13.426 0.662 C-3.499 0 -3.499 0 0 0 Z " fill="#FFFFFF" transform="translate(97,122)"/>
<path d="M0 0 C6.487 1.681 12.768 3.531 19 6 C15.947 8.409 12.786 10.325 9.375 12.188 C8.413 12.717 7.452 13.247 6.461 13.793 C4 15 4 15 2 15 C2 15.99 2 16.98 2 18 C1.34 18 0.68 18 0 18 C0 17.34 0 16.68 0 16 C-0.66 15.67 -1.32 15.34 -2 15 C-1.67 14.67 -1.34 14.34 -1 14 C-0.765 11.65 -0.586 9.294 -0.438 6.938 C-0.354 5.647 -0.27 4.357 -0.184 3.027 C-0.123 2.028 -0.062 1.029 0 0 Z " fill="#FFFFFF" transform="translate(296,62)"/>
<path d="M0 0 C0.99 1.98 1.98 3.96 3 6 C-3.458 9.974 -9.408 11.296 -17 10 C-19.152 6.772 -19.201 5.716 -19 2 C-16.396 1.664 -13.792 1.331 -11.188 1 C-10.45 0.905 -9.712 0.809 -8.951 0.711 C-5.946 0.33 -3.033 0 0 0 Z " fill="#FFFFFF" transform="translate(105,212)"/>
<path d="M0 0 C3.354 1.388 5.113 2.886 7 6 C7 6.99 7 7.98 7 9 C0.608 11.833 -4.612 12.437 -11.562 12.312 C-12.923 12.317 -12.923 12.317 -14.311 12.322 C-19.583 12.28 -24.011 11.718 -29 10 C-28.34 8.68 -27.68 7.36 -27 6 C-25.984 6.168 -24.968 6.335 -23.922 6.508 C-15.524 7.79 -7.225 8.917 1 6 C1.66 5.01 2.32 4.02 3 3 C2.01 3.33 1.02 3.66 0 4 C0 2.68 0 1.36 0 0 Z " fill="#FFFFFF" transform="translate(127,70)"/>
<path d="M0 0 C0.99 0 1.98 0 3 0 C3.565 17.794 0.958 36.397 -8 52 C-8.99 52 -9.98 52 -11 52 C-10.685 51.461 -10.371 50.922 -10.047 50.367 C-2.193 35.274 -1.464 16.686 0 0 Z " fill="#FFFFFF" transform="translate(80,173)"/>
<path d="M0 0 C0.99 0 1.98 0 3 0 C3.755 17.151 2.414 39.367 -9 53 C-9.66 52.67 -10.32 52.34 -11 52 C-10.422 51.01 -9.845 50.02 -9.25 49 C-1.919 34.233 -1.16 16.114 0 0 Z " fill="#FFFFFF" transform="translate(69,174)"/>
<path d="M0 0 C0.495 1.98 0.495 1.98 1 4 C-9.435 9.974 -23.606 8.633 -35 6 C-37.391 4.926 -37.391 4.926 -39 4 C-38 2 -38 2 -36.145 1.316 C-34 1 -34 1 -30.688 1.938 C-19.17 5.092 -10.581 0 0 0 Z " fill="#FFFFFF" transform="translate(135,61)"/>
<path d="M0 0 C0.99 0.33 1.98 0.66 3 1 C2.524 5.377 1.331 7.065 -2.062 9.812 C-2.796 10.417 -3.529 11.022 -4.285 11.645 C-4.851 12.092 -5.417 12.539 -6 13 C-4.806 13.117 -4.806 13.117 -3.66 11.688 C-2.596 10.564 -1.534 9.439 -0.473 8.312 C1 7 1 7 3 7 C3.438 10.188 3.438 10.188 3 14 C1.021 16.421 -1.086 17.876 -4 19 C-7.25 18.562 -7.25 18.562 -10 17 C-10.99 15.68 -11.98 14.36 -13 13 C-8.71 8.71 -4.42 4.42 0 0 Z " fill="#FFFFFF" transform="translate(151,97)"/>
<path d="M0 0 C2.782 0.376 4.588 0.673 6.812 2.438 C8 4 8 4 8 6 C8.66 6 9.32 6 10 6 C16.582 17.591 20.881 30.863 23 44 C21.68 44 20.36 44 19 44 C18.774 43.102 18.774 43.102 18.544 42.187 C13.02 19.268 13.02 19.268 0 0 Z " fill="#FFFFFF" transform="translate(54,56)"/>
<path d="M0 0 C5.331 1.411 8.067 4.534 11 9 C16.519 19.422 19.256 30.611 22 42 C21.01 42.66 20.02 43.32 19 44 C17.476 40.444 16.345 36.849 15.301 33.125 C12.322 22.506 9.329 12.191 2.234 3.523 C1 2 1 2 0 0 Z " fill="#FFFFFF" transform="translate(44,57)"/>
<path d="M0 0 C0.788 0.205 1.575 0.41 2.387 0.621 C9.444 2.367 16.151 3.401 23.418 3.691 C26 4 26 4 28 6 C23.802 6.598 19.603 7.185 15.402 7.764 C13.974 7.962 12.546 8.163 11.119 8.366 C9.065 8.659 7.009 8.942 4.953 9.223 C3.717 9.395 2.481 9.568 1.208 9.746 C-1.593 9.968 -3.384 9.917 -6 9 C-5.01 8.67 -4.02 8.34 -3 8 C-2.389 6.143 -2.389 6.143 -2 4 C-1.354 2.657 -0.69 1.321 0 0 Z " fill="#FFFFFF" transform="translate(291,175)"/>
<path d="M0 0 C0.027 1.437 0.046 2.875 0.062 4.312 C0.074 5.113 0.086 5.914 0.098 6.738 C0 9 0 9 -1 12 C-4.63 12.66 -8.26 13.32 -12 14 C-12.134 4.893 -12.134 4.893 -11 1 C-7.326 -0.176 -3.831 -0.074 0 0 Z " fill="#FFFFFF" transform="translate(291,82)"/>
<path d="M0 0 C1.235 0.085 2.471 0.171 3.744 0.259 C10.293 0.837 10.293 0.837 12.812 1.438 C13.472 2.428 14.132 3.417 14.812 4.438 C13.745 4.432 12.678 4.427 11.578 4.422 C7.537 4.403 3.497 4.392 -0.544 4.383 C-2.278 4.378 -4.011 4.371 -5.745 4.362 C-16.941 4.307 -28.022 4.573 -39.188 5.438 C-28.382 -1.766 -12.333 -0.878 0 0 Z " fill="#FFFFFF" transform="translate(246.1875,158.5625)"/>
<path d="M0 0 C0.807 0.257 0.807 0.257 1.63 0.519 C4.146 1.314 6.667 2.095 9.188 2.875 C10.032 3.144 10.877 3.414 11.748 3.691 C24.069 7.475 35.976 8.29 48.812 8.125 C50.199 8.115 51.585 8.106 52.971 8.098 C56.314 8.074 59.657 8.042 63 8 C62 10 62 10 60.319 10.61 C42.666 13.578 16.819 12.835 1 3 C0.67 2.01 0.34 1.02 0 0 Z " fill="#FFFFFF" transform="translate(226,89)"/>
<path d="M0 0 C0.66 0.66 1.32 1.32 2 2 C-12.85 4.97 -12.85 4.97 -28 8 C-29.32 6.35 -30.64 4.7 -32 3 C-21.402 1.095 -10.794 -0.514 0 0 Z " fill="#FFFFFF" transform="translate(201,181)"/>
<path d="M0 0 C1.092 -0.003 2.184 -0.005 3.309 -0.008 C6.474 0.121 9.453 0.534 12.562 1.125 C9.955 4.011 8.398 5.493 4.562 6.125 C2.21 6.218 -0.145 6.255 -2.5 6.25 C-4.343 6.254 -4.343 6.254 -6.223 6.258 C-9.438 6.125 -9.438 6.125 -12.438 5.125 C-12.108 3.805 -11.778 2.485 -11.438 1.125 C-7.569 0.217 -3.97 -0.009 0 0 Z " fill="#FFFFFF" transform="translate(85.4375,37.875)"/>
<path d="M0 0 C-0.66 0.557 -1.32 1.114 -2 1.688 C-4.255 3.841 -4.255 3.841 -4.25 6.75 C-4.126 7.864 -4.126 7.864 -4 9 C-4.743 9.021 -5.485 9.041 -6.25 9.062 C-9.428 10.146 -9.728 10.745 -11.312 13.562 C-11.869 14.697 -12.426 15.831 -13 17 C-15.254 13.618 -15.924 12.052 -16 8 C-14.886 4.782 -13.484 2.344 -11 0 C-7.28 -1.255 -3.579 -1.789 0 0 Z " fill="#FFFFFF" transform="translate(93,83)"/>
<path d="M0 0 C6.6 0 13.2 0 20 0 C19.67 1.98 19.34 3.96 19 6 C12.73 6 6.46 6 0 6 C0 4.02 0 2.04 0 0 Z " fill="#FFFFFF" transform="translate(105,70)"/>
<path d="M0 0 C1.173 -0.016 2.346 -0.032 3.555 -0.049 C11.132 -0.053 17.693 0.9 24.875 3.312 C25.865 3.642 26.855 3.972 27.875 4.312 C27.875 4.972 27.875 5.633 27.875 6.312 C27.064 6.108 26.253 5.903 25.418 5.691 C18.219 3.94 11.277 2.659 3.875 2.312 C2.885 2.26 1.895 2.207 0.875 2.152 C-6.594 1.933 -14.262 2.011 -20.195 7.082 C-23.608 10.816 -26.15 14.666 -28.125 19.312 C-29.115 18.983 -30.105 18.653 -31.125 18.312 C-22.68 4.045 -16.636 -0.045 0 0 Z " fill="#FFFFFF" transform="translate(87.125,34.6875)"/>
<path d="M0 0 C0 0.33 0 0.66 0 1 C-18.15 1 -36.3 1 -55 1 C-55 0.67 -55 0.34 -55 0 C-36.297 -2.424 -18.734 -2.055 0 0 Z " fill="#FFFFFF" transform="translate(264,165)"/>
<path d="M0 0 C0 0.66 0 1.32 0 2 C-6.173 3.432 -12.348 4.855 -18.524 6.272 C-20.625 6.756 -22.724 7.241 -24.824 7.728 C-27.844 8.428 -30.865 9.121 -33.887 9.812 C-34.823 10.031 -35.76 10.25 -36.725 10.475 C-37.606 10.676 -38.486 10.876 -39.393 11.082 C-40.164 11.26 -40.934 11.437 -41.728 11.62 C-44.189 12.032 -46.51 12.065 -49 12 C-48.67 11.34 -48.34 10.68 -48 10 C-45.339 9.178 -45.339 9.178 -41.797 8.379 C-41.163 8.233 -40.53 8.088 -39.877 7.938 C-37.836 7.472 -35.793 7.017 -33.75 6.562 C-32.419 6.261 -31.088 5.958 -29.758 5.654 C-27.123 5.054 -24.487 4.461 -21.85 3.872 C-19.326 3.3 -16.807 2.713 -14.291 2.109 C-13.148 1.834 -12.006 1.56 -10.828 1.277 C-9.822 1.031 -8.815 0.785 -7.778 0.531 C-5.107 0.021 -2.711 -0.101 0 0 Z " fill="#000000" transform="translate(188,198)"/>
<path d="M0 0 C3 1 3 1 4.156 3.236 C9.082 19.359 4.456 35.885 -3.06 50.242 C-3.37 50.822 -3.681 51.402 -4 52 C-4.33 52.66 -4.66 53.32 -5 54 C-5.66 53.67 -6.32 53.34 -7 53 C-6.591 52.242 -6.591 52.242 -6.174 51.469 C1.776 36.275 5.752 19.78 0.957 2.773 C0.641 1.858 0.325 0.943 0 0 Z " fill="#FFFFFF" transform="translate(323,122)"/>
<path d="M0 0 C0.99 0 1.98 0 3 0 C7.649 8.181 7.308 21.789 5.416 30.773 C3.016 38.719 -0.819 45.87 -5 53 C-5.33 52.34 -5.66 51.68 -6 51 C-5.096 49.138 -4.185 47.28 -3.242 45.438 C3.106 32.651 3.817 19.087 2 5 C1.046 2.235 1.046 2.235 0 0 Z " fill="#FFFFFF" transform="translate(319,123)"/>
<path d="M0 0 C6.6 0.33 13.2 0.66 20 1 C19.67 2.65 19.34 4.3 19 6 C12.73 6 6.46 6 0 6 C0 4.02 0 2.04 0 0 Z " fill="#FFFFFF" transform="translate(103,83)"/>
<path d="M0 0 C2.125 0.312 2.125 0.312 5 1 C8.006 1.101 10.991 1.045 14 1 C14 6.61 14 12.22 14 18 C13.01 17.67 12.02 17.34 11 17 C11.087 16.095 11.087 16.095 11.176 15.172 C11.511 9.833 11.511 9.833 8.875 5.312 C6.046 3.719 6.046 3.719 2.875 4.375 C-0.679 6.384 -1.535 8.257 -3 12 C-3.33 12 -3.66 12 -4 12 C-3.913 10.561 -3.804 9.124 -3.688 7.688 C-3.629 6.887 -3.571 6.086 -3.512 5.262 C-2.912 2.61 -2.162 1.615 0 0 Z " fill="#FFFFFF" transform="translate(212,29)"/>
<path d="M0 0 C0 0.33 0 0.66 0 1 C-12.376 1.104 -24.668 1.197 -37 0 C-37 -0.33 -37 -0.66 -37 -1 C-33.315 -1.537 -29.627 -2.051 -25.938 -2.562 C-24.899 -2.714 -23.861 -2.865 -22.791 -3.021 C-14.03 -4.217 -8.032 -3.77 0 0 Z " fill="#FFFFFF" transform="translate(200,50)"/>
<path d="M0 0 C2.625 0.375 2.625 0.375 5 1 C5 1.99 5 2.98 5 4 C6.65 3.34 8.3 2.68 10 2 C10 5 10 5 9 7 C9.66 7 10.32 7 11 7 C11 7.99 11 8.98 11 10 C9.02 9.34 7.04 8.68 5 8 C4.34 9.32 3.68 10.64 3 12 C0.525 11.01 0.525 11.01 -2 10 C-1.67 9.01 -1.34 8.02 -1 7 C-1.186 6.154 -1.371 5.309 -1.562 4.438 C-1.707 3.633 -1.851 2.829 -2 2 C-1.34 1.34 -0.68 0.68 0 0 Z " fill="#313131" transform="translate(302,272)"/>
<path d="M0 0 C4.62 0 9.24 0 14 0 C17.099 6.198 17.329 7.639 17 14 C16.319 13.299 15.639 12.597 14.938 11.875 C8.322 5.147 8.322 5.147 0 1 C0 0.67 0 0.34 0 0 Z " fill="#FFFFFF" transform="translate(94,98)"/>
<path d="M0 0 C5.75 -0.125 5.75 -0.125 8 1 C8.25 3.75 8.25 3.75 8 7 C6 9.375 6 9.375 4 11 C5.32 11.33 6.64 11.66 8 12 C8 12.99 8 13.98 8 15 C4.7 15 1.4 15 -2 15 C-0.85 10.402 0.731 9.269 4 6 C4.861 3.827 4.861 3.827 5 2 C1.882 2.646 1.882 2.646 1 5 C0.01 4.67 -0.98 4.34 -2 4 C-1.34 2.68 -0.68 1.36 0 0 Z " fill="#000000" transform="translate(255,247)"/>
<path d="M0 0 C0 0.99 0 1.98 0 3 C-7.661 7.502 -18.331 7.299 -27 7 C-26 5 -26 5 -24.038 4.314 C-22.774 4.015 -22.774 4.015 -21.484 3.711 C-20.563 3.492 -19.641 3.273 -18.691 3.047 C-17.721 2.825 -16.75 2.603 -15.75 2.375 C-14.795 2.146 -13.84 1.916 -12.855 1.68 C-8.462 0.653 -4.532 -0.133 0 0 Z " fill="#0E0E0E" transform="translate(215,192)"/>
<path d="M0 0 C2.255 3.382 2.333 5.012 2.562 9 C2.76 12.288 2.955 14.866 4 18 C1.812 17.938 1.812 17.938 -1 17 C-2.961 14.796 -4.407 12.504 -6 10 C-4.02 6.7 -2.04 3.4 0 0 Z " fill="#FFFFFF" transform="translate(66,45)"/>
<path d="M0 0 C0.33 1.32 0.66 2.64 1 4 C-4.633 7.702 -9.142 8.13 -15.812 8.062 C-16.974 8.053 -18.135 8.044 -19.332 8.035 C-20.212 8.024 -21.093 8.012 -22 8 C-22.33 6.68 -22.66 5.36 -23 4 C-22.143 4.07 -22.143 4.07 -21.27 4.141 C-13.605 4.482 -7.187 2.523 0 0 Z " fill="#FFFFFF" transform="translate(106,204)"/>
<path d="M0 0 C4.629 2.756 6.75 6.241 9 11 C8.67 11.99 8.34 12.98 8 14 C7.59 13.362 7.18 12.724 6.758 12.066 C6.219 11.24 5.68 10.414 5.125 9.562 C4.591 8.739 4.058 7.915 3.508 7.066 C2.162 4.89 2.162 4.89 0 4 C-4.209 3.523 -6.278 3.503 -9.812 5.938 C-12.585 9.818 -13.32 13.341 -14 18 C-14.66 17.67 -15.32 17.34 -16 17 C-13.816 5.207 -13.816 5.207 -8.688 1.188 C-5.444 -0.246 -3.513 -0.512 0 0 Z " fill="#FFFFFF" transform="translate(168,63)"/>
<path d="M0 0 C1.564 4.835 2.231 8.802 2.125 13.938 C2.107 15.081 2.089 16.224 2.07 17.402 C2.047 18.26 2.024 19.117 2 20 C1.67 20 1.34 20 1 20 C0.34 14.39 -0.32 8.78 -1 3 C-4.249 2.188 -5.92 1.905 -9.09 2.121 C-10.258 2.194 -10.258 2.194 -11.45 2.268 C-12.681 2.352 -12.681 2.352 -13.938 2.438 C-21.644 2.909 -29.278 3.125 -37 3 C-37 2.67 -37 2.34 -37 2 C-24.836 -0.23 -12.328 -0.159 0 0 Z " fill="#000000" transform="translate(102,121)"/>
<path d="M0 0 C0.99 0.33 1.98 0.66 3 1 C6.19 8.293 7.643 16.083 8 24 C6.344 24.382 4.675 24.714 3 25 C2 24 2 24 1.902 21.715 C1.92 20.34 1.92 20.34 1.938 18.938 C1.947 18.018 1.956 17.099 1.965 16.152 C1.976 15.442 1.988 14.732 2 14 C2.66 14 3.32 14 4 14 C3.522 12.229 3.042 10.458 2.562 8.688 C2.296 7.701 2.029 6.715 1.754 5.699 C1.219 3.785 0.629 1.886 0 0 Z " fill="#0C0C0C" transform="translate(34,105)"/>
<path d="M0 0 C1.105 1.652 1.105 1.652 2 4 C1.426 6.691 1.426 6.691 0.312 9.562 C-0.042 10.513 -0.396 11.463 -0.762 12.441 C-1.948 14.892 -2.878 16.326 -5 18 C-6.66 18.364 -8.327 18.7 -10 19 C-10.66 19.66 -11.32 20.32 -12 21 C-14.475 20.01 -14.475 20.01 -17 19 C-17 17.35 -17 15.7 -17 14 C-16.397 14.119 -15.793 14.237 -15.172 14.359 C-14.373 14.488 -13.573 14.617 -12.75 14.75 C-11.961 14.889 -11.172 15.028 -10.359 15.172 C-7.866 15.205 -7.866 15.205 -5.844 13.375 C-3.792 10.733 -2.805 8.416 -1.75 5.25 C-1.415 4.265 -1.08 3.28 -0.734 2.266 C-0.492 1.518 -0.25 0.77 0 0 Z " fill="#FFFFFF" transform="translate(177,85)"/>
<path d="M0 0 C3.63 0 7.26 0 11 0 C11 0.66 11 1.32 11 2 C10.34 2 9.68 2 9 2 C9 2.66 9 3.32 9 4 C8.381 4.454 7.762 4.907 7.125 5.375 C4.866 7.103 4.072 8.408 3 11 C2.711 10.361 2.423 9.721 2.125 9.062 C1.172 6.848 1.172 6.848 -1 6 C-1 6.66 -1 7.32 -1 8 C-0.34 8 0.32 8 1 8 C0.67 8.66 0.34 9.32 0 10 C-1.98 9.34 -3.96 8.68 -6 8 C-4.726 5.962 -3.389 3.961 -2 2 C-1.34 2 -0.68 2 0 2 C0 1.34 0 0.68 0 0 Z " fill="#FFFFFF" transform="translate(267,46)"/>
<path d="M0 0 C0.33 0 0.66 0 1 0 C0.453 8.181 -1.171 16.018 -3 24 C-2.402 23.67 -1.804 23.34 -1.188 23 C1 22 1 22 4 22 C4 22.66 4 23.32 4 24 C3.457 24.254 2.915 24.508 2.355 24.77 C1.64 25.114 0.925 25.458 0.188 25.812 C-0.52 26.149 -1.228 26.485 -1.957 26.832 C-4.058 27.914 -4.058 27.914 -5.637 29.637 C-6.087 30.087 -6.536 30.536 -7 31 C-7.66 31 -8.32 31 -9 31 C-8.711 30.443 -8.422 29.886 -8.125 29.312 C-6.149 25.251 -4.757 21.405 -3.965 16.953 C-3.795 16.026 -3.626 15.099 -3.451 14.145 C-3.282 13.189 -3.112 12.234 -2.938 11.25 C-2.596 9.338 -2.251 7.426 -1.902 5.516 C-1.678 4.252 -1.678 4.252 -1.449 2.962 C-1 1 -1 1 0 0 Z " fill="#000000" transform="translate(70,12)"/>
<path d="M0 0 C0.66 0.66 1.32 1.32 2 2 C1.67 2.33 1.34 2.66 1 3 C0.632 5.328 0.298 7.662 0 10 C-3.63 10.33 -7.26 10.66 -11 11 C-11 9.02 -11 7.04 -11 5 C-9.927 4.732 -8.855 4.464 -7.75 4.188 C-4.435 3.138 -2.561 2.254 0 0 Z " fill="#FFFFFF" transform="translate(124,146)"/>
<path d="M0 0 C0 0.66 0 1.32 0 2 C-4.373 3.011 -8.748 4.007 -13.125 5 C-14.363 5.286 -15.6 5.572 -16.875 5.867 C-18.074 6.138 -19.273 6.409 -20.508 6.688 C-21.608 6.939 -22.707 7.19 -23.84 7.449 C-26.964 7.994 -29.837 8.1 -33 8 C-32.67 7.34 -32.34 6.68 -32 6 C-29.595 5.222 -29.595 5.222 -26.426 4.492 C-25.283 4.228 -24.14 3.964 -22.963 3.691 C-21.758 3.422 -20.554 3.153 -19.312 2.875 C-18.127 2.598 -16.942 2.321 -15.721 2.035 C-10.357 0.814 -5.525 -0.164 0 0 Z " fill="#000000" transform="translate(259,171)"/>
<path d="M0 0 C-0.33 1.65 -0.66 3.3 -1 5 C-4.63 5.66 -8.26 6.32 -12 7 C-12.33 5.02 -12.66 3.04 -13 1 C-11.586 0.634 -10.169 0.283 -8.75 -0.062 C-7.961 -0.26 -7.172 -0.457 -6.359 -0.66 C-3.896 -1.015 -2.344 -0.769 0 0 Z " fill="#FFFFFF" transform="translate(124,205)"/>
<path d="M0 0 C2.97 0 5.94 0 9 0 C9.125 5.75 9.125 5.75 8 8 C5.36 8 2.72 8 0 8 C0 5.36 0 2.72 0 0 Z " fill="#FFFFFF" transform="translate(83,70)"/>
<path d="M0 0 C0.499 6.118 -0.751 9.025 -4 14 C-5.576 11.114 -6.463 8.467 -7.125 5.25 C-7.293 4.451 -7.46 3.652 -7.633 2.828 C-7.754 2.225 -7.875 1.622 -8 1 C-1.125 0 -1.125 0 0 0 Z " fill="#FFFFFF" transform="translate(81,75)"/>
<path d="M0 0 C1.514 0.017 1.514 0.017 3.059 0.035 C4.071 0.044 5.082 0.053 6.125 0.062 C7.299 0.08 7.299 0.08 8.496 0.098 C7.063 2.686 5.608 5.012 3.496 7.098 C-0.316 7.535 -0.316 7.535 -3.504 7.098 C-3.546 5.098 -3.545 3.097 -3.504 1.098 C-2.504 0.098 -2.504 0.098 0 0 Z " fill="#FFFFFF" transform="translate(138.50390625,170.90234375)"/>
<path d="M0 0 C0.66 0 1.32 0 2 0 C1.385 2.982 0.759 5.96 0.125 8.938 C-0.049 9.788 -0.223 10.638 -0.402 11.514 C-0.576 12.323 -0.75 13.131 -0.93 13.965 C-1.087 14.714 -1.244 15.463 -1.406 16.234 C-2 18 -2 18 -4 19 C-6.125 18.062 -6.125 18.062 -8 17 C-6.857 14.353 -5.711 11.707 -4.562 9.062 C-4.237 8.308 -3.912 7.553 -3.576 6.775 C-1.113 1.113 -1.113 1.113 0 0 Z " fill="#FFFFFF" transform="translate(327,160)"/>
<path d="M0 0 C2.228 2.228 2.692 3.658 3.625 6.625 C3.885 7.442 4.146 8.26 4.414 9.102 C4.607 9.728 4.801 10.355 5 11 C0.179 16.223 0.179 16.223 -4 17 C-3.795 16.359 -3.59 15.719 -3.379 15.059 C-1.812 10.027 -0.57 5.24 0 0 Z " fill="#FFFFFF" transform="translate(233,110)"/>
<path d="M0 0 C2.501 2.501 2.324 3.478 2.375 6.938 C2.403 7.813 2.432 8.688 2.461 9.59 C2 12 2 12 -0.023 13.816 C-0.676 14.207 -1.328 14.598 -2 15 C-2.66 14.34 -3.32 13.68 -4 13 C-4 11.68 -4 10.36 -4 9 C-3.34 9 -2.68 9 -2 9 C-2.33 6.69 -2.66 4.38 -3 2 C-2.01 1.34 -1.02 0.68 0 0 Z " fill="#FFFFFF" transform="translate(129,148)"/>
<path d="M0 0 C-1.129 2.446 -2.354 4.491 -3.938 6.688 C-6.146 10.235 -7.186 13.347 -8.25 17.375 C-8.753 19.243 -8.753 19.243 -9.266 21.148 C-9.629 22.56 -9.629 22.56 -10 24 C-10.66 24 -11.32 24 -12 24 C-11.487 16.043 -10.09 7.861 -4.375 1.875 C-2 0 -2 0 0 0 Z " fill="#000000" transform="translate(37,57)"/>
<path d="M0 0 C0.66 0 1.32 0 2 0 C2 0.66 2 1.32 2 2 C3.33 2.433 3.33 2.433 4.688 2.875 C7.504 3.831 10.251 4.868 13 6 C8.705 8.423 4.867 8.571 0 9 C0 6.03 0 3.06 0 0 Z " fill="#FFFFFF" transform="translate(156,106)"/>
<path d="M0 0 C0.33 0.66 0.66 1.32 1 2 C-2.25 2.337 -5.5 2.669 -8.75 3 C-9.67 3.095 -10.591 3.191 -11.539 3.289 C-12.429 3.379 -13.318 3.47 -14.234 3.562 C-15.46 3.688 -15.46 3.688 -16.71 3.816 C-18.801 3.984 -20.902 4 -23 4 C-23 3.01 -23 2.02 -23 1 C-15.307 0.152 -7.737 -0.122 0 0 Z " fill="#FFFFFF" transform="translate(91,135)"/>
<path d="M0 0 C1.953 0.75 1.953 0.75 4 2 C4.609 3.812 4.609 3.812 4.75 6 C4.805 6.793 4.861 7.586 4.918 8.402 C5.051 12.604 5.079 16.797 5 21 C3 19.438 3 19.438 1 17 C0.75 13.5 0.75 13.5 1 10 C1 6.491 0.625 3.435 0 0 Z " fill="#FFFFFF" transform="translate(98,122)"/>
<path d="M0 0 C0.66 0 1.32 0 2 0 C2.474 1.011 2.949 2.021 3.438 3.062 C6.428 8.363 11.594 12.297 17 15 C18.704 15.226 20.413 15.409 22.125 15.562 C23.035 15.646 23.945 15.73 24.883 15.816 C25.931 15.907 25.931 15.907 27 16 C26.67 16.66 26.34 17.32 26 18 C19.296 18.729 14.663 16.506 9 13 C5.217 9.792 2.55 6.25 0 2 C0 1.34 0 0.68 0 0 Z " fill="#000000" transform="translate(273,125)"/>
<path d="M0 0 C0.99 0 1.98 0 3 0 C2.01 7.92 1.02 15.84 0 24 C-0.66 24 -1.32 24 -2 24 C-1.036 7.107 -1.036 7.107 0 0 Z " fill="#000000" transform="translate(111,7)"/>
<path d="M0 0 C-0.804 1.011 -1.609 2.021 -2.438 3.062 C-5.105 6.755 -5.724 9.494 -6 14 C-6.33 14 -6.66 14 -7 14 C-7.33 11.03 -7.66 8.06 -8 5 C-8.99 4.67 -9.98 4.34 -11 4 C-10.67 3.01 -10.34 2.02 -10 1 C-6.785 -0.607 -3.564 -0.057 0 0 Z " fill="#FFFFFF" transform="translate(212,26)"/>
<path d="M0 0 C1.98 0 3.96 0 6 0 C6 0.66 6 1.32 6 2 C7.98 2 9.96 2 12 2 C12 2.33 12 2.66 12 3 C10.35 3.33 8.7 3.66 7 4 C7 4.99 7 5.98 7 7 C4.69 7.33 2.38 7.66 0 8 C0 5.36 0 2.72 0 0 Z " fill="#FFFFFF" transform="translate(13,143)"/>
<path d="M0 0 C0.33 0 0.66 0 1 0 C2.142 11.602 -0.405 19.937 -6 30 C-6.66 30.33 -7.32 30.66 -8 31 C-7.381 27.123 -6.191 23.973 -4.5 20.438 C-2.035 15.272 -0.865 11.544 -1 5.812 C-1.038 4.209 -1.047 2.603 -1 1 C-0.67 0.67 -0.34 0.34 0 0 Z " fill="#000000" transform="translate(321,141)"/>
<path d="M0 0 C4.655 2.834 4.655 2.834 5.633 6.141 C5.754 6.754 5.875 7.368 6 8 C5.481 7.555 4.961 7.111 4.426 6.652 C0.31 3.136 0.31 3.136 -4.75 1.812 C-9.357 4.244 -11.359 8.215 -13 13 C-14 10 -14 10 -12.812 6.5 C-9.653 0.399 -6.889 -0.846 0 0 Z " fill="#000000" transform="translate(168,66)"/>
<path d="M0 0 C1.207 0.031 1.207 0.031 2.438 0.062 C0.938 3.062 0.938 3.062 -1.562 6.062 C-4.409 6.617 -6.632 6.356 -9.562 6.062 C-9.892 4.743 -10.222 3.423 -10.562 2.062 C-9.428 1.918 -8.294 1.774 -7.125 1.625 C-3.804 1.101 -3.098 0.076 0 0 Z " fill="#FFFFFF" transform="translate(137.5625,178.9375)"/>
<path d="M0 0 C1.016 1.321 2.011 2.658 3 4 C3.722 4.846 4.444 5.691 5.188 6.562 C7.73 11.385 7.342 15.656 7 21 C5.68 21.33 4.36 21.66 3 22 C3 20.68 3 19.36 3 18 C3.99 18 4.98 18 6 18 C5.567 16.952 5.134 15.904 4.688 14.824 C4.125 13.445 3.562 12.067 3 10.688 C2.714 9.997 2.428 9.307 2.133 8.596 C0.911 5.585 0 3.281 0 0 Z " fill="#FFFFFF" transform="translate(264,147)"/>
<path d="M0 0 C4.457 0.262 6.515 0.577 9.938 3.562 C10.618 4.367 11.299 5.171 12 6 C7.545 6.495 7.545 6.495 3 7 C0 2.25 0 2.25 0 0 Z " fill="#FFFFFF" transform="translate(68,65)"/>
<path d="M0 0 C0 4.62 0 9.24 0 14 C-4 11 -4 11 -4.496 8.809 C-4.477 8.026 -4.457 7.244 -4.438 6.438 C-4.436 5.652 -4.435 4.867 -4.434 4.059 C-3.922 1.63 -2.843 0 0 0 Z " fill="#FFFFFF" transform="translate(78,173)"/>
<path d="M0 0 C1.32 0.66 2.64 1.32 4 2 C3.67 3.98 3.34 5.96 3 8 C1.125 8.625 1.125 8.625 -1 9 C-1.66 8.34 -2.32 7.68 -3 7 C-2.67 3.703 -2.377 2.377 0 0 Z " fill="#FFFFFF" transform="translate(285,58)"/>
<path d="M0 0 C2.771 -0.054 5.541 -0.094 8.312 -0.125 C9.098 -0.142 9.884 -0.159 10.693 -0.176 C11.451 -0.182 12.208 -0.189 12.988 -0.195 C13.685 -0.206 14.381 -0.216 15.099 -0.227 C17 0 17 0 20 2 C17.792 2.197 15.584 2.382 13.375 2.562 C12.145 2.667 10.915 2.771 9.648 2.879 C6.244 2.992 3.324 2.69 0 2 C0 1.34 0 0.68 0 0 Z " fill="#FFFFFF" transform="translate(107,60)"/>
<path d="M0 0 C2.97 0 5.94 0 9 0 C9 0.99 9 1.98 9 3 C8.01 3 7.02 3 6 3 C6 5.64 6 8.28 6 11 C5.34 11 4.68 11 4 11 C4 8.36 4 5.72 4 3 C2.68 3 1.36 3 0 3 C0 2.01 0 1.02 0 0 Z " fill="#000000" transform="translate(287,272)"/>
<path d="M0 0 C7.75 0.875 7.75 0.875 10 2 C10 2.99 10 3.98 10 5 C6.7 5.33 3.4 5.66 0 6 C0 4.02 0 2.04 0 0 Z " fill="#FFFFFF" transform="translate(107,182)"/>
<path d="M0 0 C1.65 0.33 3.3 0.66 5 1 C5.33 1.99 5.66 2.98 6 4 C5.01 5.485 5.01 5.485 4 7 C1.375 7.188 1.375 7.188 -1 7 C-1.625 5.188 -1.625 5.188 -2 3 C-1.34 2.01 -0.68 1.02 0 0 Z " fill="#242424" transform="translate(101,155)"/>
<path d="M0 0 C0 1.65 0 3.3 0 5 C-4.29 4.67 -8.58 4.34 -13 4 C-12.67 3.01 -12.34 2.02 -12 1 C-10.563 0.831 -9.125 0.665 -7.688 0.5 C-6.887 0.407 -6.086 0.314 -5.262 0.219 C-3 0 -3 0 0 0 Z " fill="#FFFFFF" transform="translate(117,43)"/>
<path d="M0 0 C0.99 0 1.98 0 3 0 C3.195 1.457 3.381 2.916 3.562 4.375 C3.667 5.187 3.771 5.999 3.879 6.836 C4 9 4 9 3 11 C2.01 10.67 1.02 10.34 0 10 C-1.125 3.375 -1.125 3.375 0 0 Z " fill="#121212" transform="translate(38,161)"/>
<path d="M0 0 C0.66 0 1.32 0 2 0 C1.34 5.94 0.68 11.88 0 18 C-0.66 18 -1.32 18 -2 18 C-2.233 11.717 -1.405 6.12 0 0 Z " fill="#000000" transform="translate(133,7)"/>
<path d="M0 0 C0.99 0.33 1.98 0.66 3 1 C4.125 8.75 4.125 8.75 3 11 C2.01 10.67 1.02 10.34 0 10 C-1.125 3.375 -1.125 3.375 0 0 Z " fill="#1A1A1A" transform="translate(28,169)"/>
<path d="M0 0 C0.99 0 1.98 0 3 0 C4.158 3.473 4.069 6.361 4 10 C3.01 10.33 2.02 10.66 1 11 C-0.203 8.595 -0.101 7.05 -0.062 4.375 C-0.053 3.558 -0.044 2.74 -0.035 1.898 C-0.024 1.272 -0.012 0.645 0 0 Z " fill="#141414" transform="translate(31,107)"/>
<path d="M0 0 C0.66 0 1.32 0 2 0 C2 4.62 2 9.24 2 14 C1.34 14 0.68 14 0 14 C-0.33 11.03 -0.66 8.06 -1 5 C-1.99 5.495 -1.99 5.495 -3 6 C-2.427 3.133 -2.139 2.139 0 0 Z " fill="#000000" transform="translate(140,254)"/>
<path d="M0 0 C0.33 1.32 0.66 2.64 1 4 C0.34 4 -0.32 4 -1 4 C-0.67 5.65 -0.34 7.3 0 9 C-0.99 9 -1.98 9 -3 9 C-3.33 7.35 -3.66 5.7 -4 4 C-4.99 4.33 -5.98 4.66 -7 5 C-6.67 3.68 -6.34 2.36 -6 1 C-3.924 0.447 -2.156 0 0 0 Z " fill="#FFFFFF" transform="translate(123,167)"/>
<path d="M0 0 C0.66 0.33 1.32 0.66 2 1 C2 1.66 2 2.32 2 3 C8.968 4.327 15.93 4.088 23 4 C17.812 7.169 11.867 6.491 6 6 C3.352 5.256 1.416 4.348 -1 3 C-0.67 2.01 -0.34 1.02 0 0 Z " fill="#FFFFFF" transform="translate(70,41)"/>
<path d="M0 0 C0.99 0 1.98 0 3 0 C3.969 5.373 3.969 5.373 4 8 C2.562 10 2.562 10 1 11 C-1.125 3.375 -1.125 3.375 0 0 Z " fill="#0E0E0E" transform="translate(25,107)"/>
<path d="M0 0 C0.75 2.625 0.75 2.625 1 5 C0.01 5.495 0.01 5.495 -1 6 C-1.33 4.68 -1.66 3.36 -2 2 C-5.63 1.34 -9.26 0.68 -13 0 C-13 -0.33 -13 -0.66 -13 -1 C-11.586 -1.224 -10.168 -1.428 -8.75 -1.625 C-7.567 -1.799 -7.567 -1.799 -6.359 -1.977 C-3.629 -2.004 -2.249 -1.526 0 0 Z " fill="#FFFFFF" transform="translate(129,98)"/>
<path d="M0 0 C0.99 0.33 1.98 0.66 3 1 C3 2.65 3 4.3 3 6 C1.35 6.33 -0.3 6.66 -2 7 C-2.688 5.188 -2.688 5.188 -3 3 C-1.562 1.25 -1.562 1.25 0 0 Z " fill="#FFFFFF" transform="translate(219,37)"/>
<path d="M0 0 C0.33 0.99 0.66 1.98 1 3 C-2.491 7.004 -4.65 8.627 -10 9 C-7.833 6.725 -5.544 4.842 -3 3 C-3.33 2.34 -3.66 1.68 -4 1 C-2.68 0.67 -1.36 0.34 0 0 Z " fill="#000000" transform="translate(110,214)"/>
<path d="M0 0 C1 3 1 3 0.074 5.008 C-0.383 5.706 -0.841 6.405 -1.312 7.125 C-1.762 7.829 -2.212 8.533 -2.676 9.258 C-4 11 -4 11 -6 12 C-8 12.04 -10 12.043 -12 12 C-12 11.34 -12 10.68 -12 10 C-11.093 9.938 -10.185 9.876 -9.25 9.812 C-5.189 8.797 -4.248 7.453 -2 4 C-1.291 2.689 -0.605 1.362 0 0 Z " fill="#000000" transform="translate(175,89)"/>
<path d="M0 0 C3.875 2.625 3.875 2.625 5 6 C5.232 8.723 5.131 11.25 5 14 C4.34 14.66 3.68 15.32 3 16 C2.951 15.348 2.902 14.695 2.852 14.023 C2.428 9.067 1.843 4.67 0 0 Z " fill="#FFFFFF" transform="translate(201,106)"/>
<path d="M0 0 C2.475 0.99 2.475 0.99 5 2 C3.515 4.475 3.515 4.475 2 7 C0.68 6.34 -0.64 5.68 -2 5 C-1.125 1.125 -1.125 1.125 0 0 Z " fill="#FFFFFF" transform="translate(129,165)"/>
<path d="M0 0 C2.64 0 5.28 0 8 0 C8 0.99 8 1.98 8 3 C5.36 3.33 2.72 3.66 0 4 C0 2.68 0 1.36 0 0 Z " fill="#FFFFFF" transform="translate(115,158)"/>
<path d="M0 0 C2.31 0 4.62 0 7 0 C7 1.98 7 3.96 7 6 C5.02 6 3.04 6 1 6 C0.67 4.02 0.34 2.04 0 0 Z " fill="#FFFFFF" transform="translate(126,173)"/>
<path d="M0 0 C0.398 0.481 0.797 0.962 1.207 1.457 C3.435 3.374 4.788 3.477 7.688 3.688 C8.496 3.753 9.304 3.819 10.137 3.887 C10.752 3.924 11.366 3.961 12 4 C11.67 4.99 11.34 5.98 11 7 C7.7 6.34 4.4 5.68 1 5 C0.67 3.35 0.34 1.7 0 0 Z " fill="#FFFFFF" transform="translate(136,152)"/>
<path d="M0 0 C0 0.66 0 1.32 0 2 C-8.429 4.286 -8.429 4.286 -13 4 C-9.472 -0.271 -5.247 -0.15 0 0 Z " fill="#000000" transform="translate(189,124)"/>
<path d="M0 0 C0.66 0.33 1.32 0.66 2 1 C-2.247 4.451 -6.611 7.733 -11 11 C-11.66 10.67 -12.32 10.34 -13 10 C-11.397 8.707 -9.793 7.416 -8.188 6.125 C-7.294 5.406 -6.401 4.686 -5.48 3.945 C-3 2 -3 2 0 0 Z " fill="#000000" transform="translate(197,69)"/>
<path d="M0 0 C0.33 0.99 0.66 1.98 1 3 C-0.562 5.625 -0.562 5.625 -3 8 C-6.25 8.812 -6.25 8.812 -9 9 C-6 6 -3 3 0 0 Z " fill="#000000" transform="translate(312,154)"/>
<path d="M0 0 C0.33 0 0.66 0 1 0 C1.953 4.763 2.083 9.167 2 14 C0.68 13.34 -0.64 12.68 -2 12 C-2 11.34 -2 10.68 -2 10 C-1.34 10 -0.68 10 0 10 C0 6.7 0 3.4 0 0 Z " fill="#000000" transform="translate(116,112)"/>
<path d="M0 0 C1.627 0.282 3.251 0.576 4.875 0.875 C5.78 1.037 6.685 1.2 7.617 1.367 C10 2 10 2 12 4 C10.564 4.108 9.126 4.186 7.688 4.25 C6.487 4.32 6.487 4.32 5.262 4.391 C3 4 3 4 1.207 1.984 C0.809 1.33 0.41 0.675 0 0 Z " fill="#FFFFFF" transform="translate(315,51)"/>
<path d="M0 0 C0.66 0.66 1.32 1.32 2 2 C1.01 3.485 1.01 3.485 0 5 C0.66 5 1.32 5 2 5 C2 5.99 2 6.98 2 8 C-0.475 7.01 -0.475 7.01 -3 6 C-3 4.68 -3 3.36 -3 2 C-2.01 1.34 -1.02 0.68 0 0 Z " fill="#FFFFFF" transform="translate(311,274)"/>
<path d="M0 0 C0.66 0 1.32 0 2 0 C3.125 5.75 3.125 5.75 2 8 C1.01 8 0.02 8 -1 8 C-0.67 5.36 -0.34 2.72 0 0 Z " fill="#FFFFFF" transform="translate(94,72)"/>
<path d="M0 0 C0 0.99 0 1.98 0 3 C-1.65 3.66 -3.3 4.32 -5 5 C-5.66 3.68 -6.32 2.36 -7 1 C-3.535 0.505 -3.535 0.505 0 0 Z " fill="#FFFFFF" transform="translate(50,190)"/>
<path d="M0 0 C0.593 0.215 1.186 0.431 1.797 0.652 C0.512 1.516 -0.782 2.368 -2.078 3.215 C-2.797 3.691 -3.517 4.166 -4.258 4.656 C-4.9 4.985 -5.542 5.314 -6.203 5.652 C-6.863 5.322 -7.523 4.992 -8.203 4.652 C-2.745 -0.433 -2.745 -0.433 0 0 Z " fill="#000000" transform="translate(331.203125,113.34765625)"/>
<path d="M0 0 C1.32 0.66 2.64 1.32 4 2 C3.34 3.32 2.68 4.64 2 6 C0.68 5.67 -0.64 5.34 -2 5 C-1.34 3.35 -0.68 1.7 0 0 Z " fill="#FFFFFF" transform="translate(130,112)"/>
<path d="M0 0 C5 7.5 5 7.5 5 11 C4.01 10.67 3.02 10.34 2 10 C1.051 7.934 1.051 7.934 0.312 5.438 C0.061 4.611 -0.19 3.785 -0.449 2.934 C-0.631 2.296 -0.813 1.657 -1 1 C-0.67 0.67 -0.34 0.34 0 0 Z " fill="#FFFFFF" transform="translate(153,87)"/>
<path d="M0 0 C1.65 0 3.3 0 5 0 C5 1.32 5 2.64 5 4 C3.35 4 1.7 4 0 4 C0 2.68 0 1.36 0 0 Z " fill="#FFFFFF" transform="translate(92,200)"/>
<path d="M0 0 C0.66 0 1.32 0 2 0 C2.33 2.64 2.66 5.28 3 8 C2.01 7.67 1.02 7.34 0 7 C0 4.69 0 2.38 0 0 Z " fill="#FFFFFF" transform="translate(178,159)"/>
<path d="M0 0 C3.3 0.99 6.6 1.98 10 3 C10 3.33 10 3.66 10 4 C7.03 4 4.06 4 1 4 C0.67 2.68 0.34 1.36 0 0 Z " fill="#FFFFFF" transform="translate(93,66)"/>
<path d="M0 0 C0.66 0 1.32 0 2 0 C2.33 1.98 2.66 3.96 3 6 C1.68 6 0.36 6 -1 6 C-1.043 4.334 -1.041 2.666 -1 1 C-0.67 0.67 -0.34 0.34 0 0 Z " fill="#FFFFFF" transform="translate(69,94)"/>
<path d="M0 0 C1.75 1.312 1.75 1.312 3 3 C3 3.66 3 4.32 3 5 C0.98 4.398 -1.021 3.727 -3 3 C-3.33 2.34 -3.66 1.68 -4 1 C-2.188 0.312 -2.188 0.312 0 0 Z " fill="#FFFFFF" transform="translate(198,33)"/>
<path d="M0 0 C0.66 0.66 1.32 1.32 2 2 C1.625 4.625 1.625 4.625 1 7 C0.34 6.67 -0.32 6.34 -1 6 C-1.625 3.438 -1.625 3.438 -2 1 C-1.34 0.67 -0.68 0.34 0 0 Z " fill="#FFFFFF" transform="translate(108,209)"/>
<path d="M0 0 C2.438 0.375 2.438 0.375 5 1 C5.33 1.66 5.66 2.32 6 3 C3.36 3 0.72 3 -2 3 C-1.34 2.01 -0.68 1.02 0 0 Z " fill="#FFFFFF" transform="translate(38,93)"/>
<path d="M0 0 C1.875 0.312 1.875 0.312 4 1 C4.66 1.99 5.32 2.98 6 4 C4.35 4 2.7 4 1 4 C0.67 2.68 0.34 1.36 0 0 Z " fill="#FFFFFF" transform="translate(258,68)"/>
<path d="M0 0 C0.66 0.33 1.32 0.66 2 1 C1 4 1 4 -0.812 5.25 C-3.339 6.116 -4.522 5.885 -7 5 C-6.031 4.546 -5.061 4.093 -4.062 3.625 C-0.929 2.342 -0.929 2.342 0 0 Z " fill="#FFFFFF" transform="translate(100,39)"/>
</svg>
