<?xml version="1.0" encoding="UTF-8"?>
<!-- Generator: visioncortex VTracer 0.6.4 -->
<svg version="1.1" xmlns="http://www.w3.org/2000/svg" width="325" height="311">
<path d="M0 0 C107.25 0 214.5 0 325 0 C325 102.63 325 205.26 325 311 C217.75 311 110.5 311 0 311 C0 208.37 0 105.74 0 0 Z " fill="#F2F2F2" transform="translate(0,0)"/>
<path d="M0 0 C0.33 0 0.66 0 1 0 C0.337 7.724 -0.765 15.348 -2 23 C-1.807 21.88 -1.613 20.76 -1.414 19.605 C-1.151 18.133 -0.888 16.66 -0.625 15.188 C-0.436 14.081 -0.436 14.081 -0.242 12.951 C0.402 9.394 0.97 7.045 3 4 C3.08 8.703 2.935 12.325 2 17 C2.99 12.05 3.98 7.1 5 2 C13 10 13 10 13 13 C13.66 13 14.32 13 15 13 C16.289 14.461 16.289 14.461 17.625 16.375 C18.071 17.001 18.517 17.628 18.977 18.273 C20 20 20 20 20 22 C20.598 22.083 21.196 22.165 21.812 22.25 C24.674 23.231 25.513 24.398 27 27 C27 28.32 27 29.64 27 31 C27.66 31 28.32 31 29 31 C29 31.99 29 32.98 29 34 C29.66 34 30.32 34 31 34 C35.169 37.493 37.392 41.252 39.789 46.109 C40.929 48.325 40.929 48.325 44 49 C44.495 51.97 44.495 51.97 45 55 C45.66 55 46.32 55 47 55 C47.33 55.66 47.66 56.32 48 57 C49.485 57.495 49.485 57.495 51 58 C51.495 60.97 51.495 60.97 52 64 C52.66 64 53.32 64 54 64 C57 67.462 57 67.462 57 70 C59.31 70 61.62 70 64 70 C64 69.34 64 68.68 64 68 C66.343 68.256 68.678 68.593 71 69 C71.33 69.66 71.66 70.32 72 71 C71.223 72.727 71.223 72.727 70.062 74.625 C69.382 75.739 68.701 76.853 68 78 C66.886 77.505 65.772 77.01 64.625 76.5 C61.346 74.873 61.346 74.873 59 75 C58.34 75.495 57.68 75.99 57 76.5 C55 78 55 78 53 78 C53 78.66 53 79.32 53 80 C50.9 81.473 48.822 82.813 46.625 84.125 C46.022 84.498 45.418 84.87 44.797 85.254 C40.27 88 40.27 88 38 88 C38.33 88.33 38.66 88.66 39 89 C39.66 89 40.32 89 41 89 C40.657 98.787 40.657 98.787 38.375 103 C33.714 106.925 29.963 108.302 23.938 108.125 C16.579 107.254 10.372 103.562 4 100 C4 99.34 4 98.68 4 98 C3.107 97.577 3.107 97.577 2.195 97.145 C-8.022 91.818 -16.766 79.541 -21 69 C-21.284 68.335 -21.567 67.67 -21.859 66.984 C-24.984 59.261 -26.08 51.009 -24.312 42.812 C-22.208 38.302 -19.607 35.718 -15.062 33.688 C-11.935 32.985 -9.194 32.848 -6 33 C-6.66 32.34 -7.32 31.68 -8 31 C-7.983 28.94 -7.983 28.94 -7.609 26.422 C-7.477 25.508 -7.344 24.594 -7.207 23.652 C-7.056 22.695 -6.905 21.737 -6.75 20.75 C-6.615 19.808 -6.479 18.865 -6.34 17.895 C-5.617 13.076 -4.75 8.574 -3 4 C-2.06 7.039 -2.001 9.207 -2.559 12.328 C-2.697 13.127 -2.836 13.927 -2.979 14.75 C-3.13 15.575 -3.281 16.4 -3.438 17.25 C-3.585 18.09 -3.733 18.931 -3.885 19.797 C-4.249 21.866 -4.624 23.933 -5 26 C-1.925 8.144 -1.925 8.144 0 0 Z " fill="#F1F1F1" transform="translate(193,189)"/>
<path d="M0 0 C0.66 1.32 1.32 2.64 2 4 C2.66 3.67 3.32 3.34 4 3 C14.31 2.893 24.362 6.744 34 10 C33.34 10.99 32.68 11.98 32 13 C26.623 12.114 21.637 10.948 16.562 8.938 C11.071 6.827 5.85 6.226 0 6 C0.021 7.114 0.041 8.227 0.062 9.375 C0.071 14.289 -0.44 19.123 -1 24 C-0.464 22.907 0.073 21.814 0.625 20.688 C2.842 16.886 4.698 15.354 9 14 C17.438 13.052 17.438 13.052 21.305 15.398 C21.864 15.927 22.424 16.455 23 17 C23 17.66 23 18.32 23 19 C23.66 19 24.32 19 25 19 C25.99 22.3 26.98 25.6 28 29 C28.66 29 29.32 29 30 29 C30.144 28.051 30.289 27.102 30.438 26.125 C31 23 31 23 32 21 C39.995 21.731 47.71 23.703 55.5 25.562 C56.909 25.896 58.318 26.228 59.727 26.561 C63.152 27.369 66.576 28.183 70 29 C70.058 32.867 70.084 36.498 69.23 40.277 C69.065 41.031 68.9 41.785 68.729 42.561 C68.551 43.345 68.372 44.13 68.188 44.938 C67.82 46.609 67.454 48.281 67.09 49.953 C66.907 50.79 66.723 51.628 66.535 52.49 C65.707 56.377 64.971 60.28 64.25 64.188 C64.123 64.876 63.995 65.565 63.864 66.275 C63.574 67.85 63.287 69.425 63 71 C67.981 72.743 72.762 74.156 77.938 75.188 C84.463 76.754 89.478 80.038 94 85 C94 85.99 94 86.98 94 88 C93.67 88 93.34 88 93 88 C93.277 88.603 93.554 89.207 93.84 89.828 C94.202 90.627 94.564 91.427 94.938 92.25 C95.297 93.039 95.657 93.828 96.027 94.641 C99.767 103.713 97.55 111.893 95 121 C94.67 119.68 94.34 118.36 94 117 C93.67 118.65 93.34 120.3 93 122 C92.67 122 92.34 122 92 122 C91.928 117.707 91.95 114.152 93 110 C94.042 100.684 92.021 94.061 86.203 86.738 C80.668 80.75 74.163 77.053 66 76 C66.33 75.34 66.66 74.68 67 74 C66.089 74.058 65.177 74.116 64.238 74.176 C58.711 74.172 53.5 72.579 48.188 71.188 C47.158 70.926 46.129 70.665 45.068 70.396 C38.662 68.755 32.318 66.954 26 65 C26 65.99 26 66.98 26 68 C26.887 68.103 27.774 68.206 28.688 68.312 C34.536 69.134 40.262 70.628 46 72 C46 72.33 46 72.66 46 73 C39.254 72.336 32.656 71.281 26 70 C25.269 68.023 24.606 66.019 24 64 C24.495 63.01 24.495 63.01 25 62 C31.051 63.166 37.035 64.453 43 66 C42.67 65.01 42.34 64.02 42 63 C42.784 62.278 43.567 61.556 44.375 60.812 C46.844 58.167 47.933 56.396 49 53 C48.34 53 47.68 53 47 53 C47 53.66 47 54.32 47 55 C44.312 55.812 44.312 55.812 41 56 C38.027 53.568 36.127 51.191 34 48 C34 46.68 34 45.36 34 44 C33.01 44.495 33.01 44.495 32 45 C31.306 47.177 31.306 47.177 30.875 49.75 C30.707 50.611 30.54 51.472 30.367 52.359 C30.008 54.945 29.934 57.393 30 60 C27.69 60 25.38 60 23 60 C22.67 60.99 22.34 61.98 22 63 C22 62.01 22 61.02 22 60 C21.67 60.99 21.34 61.98 21 63 C14.949 61.835 8.964 60.545 3 59 C1.5 58.624 0 58.249 -1.5 57.875 C-2.655 57.586 -3.81 57.297 -5 57 C-5 56.01 -5 55.02 -5 54 C-4.252 54.144 -3.505 54.289 -2.734 54.438 C-1.257 54.716 -1.257 54.716 0.25 55 C1.712 55.278 1.712 55.278 3.203 55.562 C6.187 56.103 6.187 56.103 10 56 C11.575 54.255 11.575 54.255 12.75 52 C13.178 51.258 13.606 50.515 14.047 49.75 C14.361 49.172 14.676 48.595 15 48 C12.545 43.539 12.545 43.539 9 40 C7.845 39.732 6.69 39.464 5.5 39.188 C2 38 2 38 0.062 35.062 C-1 32 -1 32 -1 29 C-1.66 29 -2.32 29 -3 29 C-3.037 30.076 -3.075 31.153 -3.113 32.262 C-3.506 41.527 -4.519 50.028 -7 59 C-3.7 59.66 -0.4 60.32 3 61 C3 61.33 3 61.66 3 62 C-1.028 62.183 -3.484 61.942 -7 60 C-6.988 60.568 -6.977 61.137 -6.965 61.723 C-6.922 65.354 -6.966 68.774 -7.5 72.375 C-7.933 75.512 -8.199 78.526 -8.312 81.688 C-8.35 82.599 -8.387 83.51 -8.426 84.449 C-8.239 87.17 -8.239 87.17 -5.934 88.918 C-4 91 -4 91 -4.047 94.102 C-4.279 95.264 -4.511 96.427 -4.75 97.625 C-5.699 102.938 -6.175 107.821 -5.973 113.207 C-6 115 -6 115 -7 116 C-7.136 119.663 -7.165 122.506 -6 126 C-6.66 126 -7.32 126 -8 126 C-12.306 117.389 -7.56 101.05 -6 92 C-6.66 91.67 -7.32 91.34 -8 91 C-14.198 81.703 -8.666 62.754 -7.301 52.317 C-6.828 48.679 -6.364 45.039 -5.898 41.4 C-5.228 36.162 -4.551 30.925 -3.875 25.688 C-3.741 24.647 -3.607 23.607 -3.469 22.536 C-3.084 19.548 -2.695 16.561 -2.305 13.574 C-2.188 12.668 -2.072 11.762 -1.951 10.828 C-1.841 9.987 -1.731 9.146 -1.617 8.28 C-1.521 7.547 -1.426 6.814 -1.328 6.059 C-1 3.999 -0.537 2.015 0 0 Z " fill="#D6D6D6" transform="translate(111,3)"/>
<path d="M0 0 C1.32 0.66 2.64 1.32 4 2 C4.104 7.01 3.71 11.73 3 16.688 C2.073 23.49 1.766 30.128 2 37 C2 34.812 1.976 32.625 1.938 30.438 C2 27 2 27 3 25 C3.02 23.646 2.992 22.291 2.938 20.938 C2.866 16.07 3.759 11.687 5 7 C18.863 12.151 18.863 12.151 22.875 17.5 C24 20 24 20 24 24 C24.66 24.66 25.32 25.32 26 26 C26.23 28.094 26.23 28.094 26.188 30.5 C26.181 31.294 26.175 32.088 26.168 32.906 C26 35 26 35 25 37 C24.34 37 23.68 37 23 37 C23 37.66 23 38.32 23 39 C-1.25 46.103 -1.25 46.103 -8 44 C-11.011 41.389 -12.672 39.713 -13.425 35.781 C-13.567 33.189 -13.537 30.656 -13.438 28.062 C-13.42 27.142 -13.403 26.221 -13.385 25.273 C-13.172 17.423 -12.331 9.737 -11 2 C-7.7 2.66 -4.4 3.32 -1 4 C-0.67 2.68 -0.34 1.36 0 0 Z " fill="#F9F9F9" transform="translate(101,92)"/>
<path d="M0 0 C-3.613 4.688 -3.613 4.688 -5 6 C-5.99 6 -6.98 6 -8 6 C-8 6.66 -8 7.32 -8 8 C-8.66 8 -9.32 8 -10 8 C-12.766 17.252 -11.551 26.624 -7.504 35.227 C-3.877 42.654 -3.877 42.654 2 48 C2 48.99 2 49.98 2 51 C2.66 51 3.32 51 4 51 C4 51.66 4 52.32 4 53 C4.557 53.268 5.114 53.536 5.688 53.812 C8.212 55.109 10.637 56.425 13 58 C13 58.66 13 59.32 13 60 C15.991 60.713 18.991 61.366 22 62 C22.692 62.164 23.384 62.327 24.098 62.496 C29.912 63.617 33.175 61.869 38 59 C39.329 58.324 40.661 57.655 42 57 C42 56.34 42 55.68 42 55 C42.66 55 43.32 55 44 55 C43.657 64.787 43.657 64.787 41.375 69 C36.714 72.925 32.963 74.302 26.938 74.125 C19.579 73.254 13.372 69.562 7 66 C7 65.34 7 64.68 7 64 C6.107 63.577 6.107 63.577 5.195 63.145 C-5.022 57.818 -13.766 45.541 -18 35 C-18.284 34.335 -18.567 33.67 -18.859 32.984 C-21.984 25.261 -23.08 17.009 -21.312 8.812 C-19.241 4.374 -16.622 1.811 -12.25 -0.375 C-7.991 -1.194 -4.249 -0.699 0 0 Z " fill="#FFFFFF" transform="translate(190,223)"/>
<path d="M0 0 C-0.58 -0.023 -1.16 -0.046 -1.758 -0.07 C-8.135 -0.218 -12.705 0.113 -17.812 4.312 C-21.637 9.011 -21.414 14.119 -21 20 C-18.768 35.654 -9.774 51.853 2.906 61.441 C4.262 62.308 5.63 63.157 7 64 C7 64.66 7 65.32 7 66 C8.238 66.371 8.238 66.371 9.5 66.75 C12.201 67.714 14.238 68.674 16.688 70.062 C22.083 72.812 28.189 73.844 34.152 72.523 C37.877 71.09 39.938 69.341 42 66 C42.783 63.197 42.783 63.197 43.188 60.25 C43.346 59.265 43.505 58.28 43.668 57.266 C43.778 56.518 43.887 55.77 44 55 C43.34 55 42.68 55 42 55 C42 55.66 42 56.32 42 57 C41.34 56.67 40.68 56.34 40 56 C42.773 52.919 45.063 51.312 49 50 C48.34 50.99 47.68 51.98 47 53 C46.34 53 45.68 53 45 53 C45.035 53.762 45.07 54.524 45.105 55.309 C45.285 62.172 44.687 67.665 42 74 C41.34 74 40.68 74 40 74 C40 74.66 40 75.32 40 76 C34.55 80.56 30.614 82.304 23.336 81.824 C20.883 81.593 18.443 81.319 16 81 C16.33 80.34 16.66 79.68 17 79 C16.143 78.553 15.286 78.105 14.402 77.645 C2.06 71.118 2.06 71.118 -3 67 C-3 66.34 -3 65.68 -3 65 C-3.66 65 -4.32 65 -5 65 C-6.625 63.625 -6.625 63.625 -8 62 C-8 61.34 -8 60.68 -8 60 C-8.66 60 -9.32 60 -10 60 C-11.289 58.539 -11.289 58.539 -12.625 56.625 C-13.071 55.999 -13.517 55.372 -13.977 54.727 C-15 53 -15 53 -15 51 C-15.66 51 -16.32 51 -17 51 C-23.081 39.015 -27.963 28.559 -29 15 C-29.227 21.933 -28.42 28.217 -27 35 C-29 34 -29 34 -29.633 32.32 C-31.017 26.147 -31.186 20.308 -31 14 C-31 13.01 -31 12.02 -31 11 C-31.66 10.67 -32.32 10.34 -33 10 C-32.34 9.01 -31.68 8.02 -31 7 C-31.33 6.34 -31.66 5.68 -32 5 C-31.216 5.041 -30.433 5.083 -29.625 5.125 C-26.839 5.287 -26.839 5.287 -25 3 C-24.01 3 -23.02 3 -22 3 C-22 2.34 -22 1.68 -22 1 C-21.01 1 -20.02 1 -19 1 C-19 0.34 -19 -0.32 -19 -1 C-12.406 -3.385 -6.045 -4.03 0 0 Z " fill="#B8B8B8" transform="translate(190,223)"/>
<path d="M0 0 C0.66 1.32 1.32 2.64 2 4 C2.66 3.67 3.32 3.34 4 3 C14.31 2.893 24.362 6.744 34 10 C33.34 10.99 32.68 11.98 32 13 C26.623 12.114 21.637 10.948 16.562 8.938 C11.071 6.827 5.85 6.226 0 6 C0.021 7.114 0.041 8.227 0.062 9.375 C0.071 14.289 -0.44 19.123 -1 24 C-0.464 22.907 0.073 21.814 0.625 20.688 C2.842 16.886 4.698 15.354 9 14 C17.438 13.052 17.438 13.052 21.305 15.398 C21.864 15.927 22.424 16.455 23 17 C23 17.66 23 18.32 23 19 C23.66 19 24.32 19 25 19 C25.205 19.699 25.41 20.397 25.621 21.117 C25.891 22.027 26.16 22.937 26.438 23.875 C26.704 24.78 26.971 25.685 27.246 26.617 C27.926 28.983 27.926 28.983 29 31 C26.03 35.29 23.06 39.58 20 44 C19.67 43.01 19.34 42.02 19 41 C16.525 41.495 16.525 41.495 14 42 C14.33 43.65 14.66 45.3 15 47 C13 46 13 46 12 43 C10.033 40.268 8.878 39.972 5.5 39.188 C2 38 2 38 0.062 35.062 C-1 32 -1 32 -1 29 C-1.66 29 -2.32 29 -3 29 C-3.037 30.076 -3.075 31.153 -3.113 32.262 C-3.506 41.527 -4.519 50.028 -7 59 C-3.7 59.66 -0.4 60.32 3 61 C3 61.33 3 61.66 3 62 C-1.028 62.183 -3.484 61.942 -7 60 C-6.988 60.568 -6.977 61.137 -6.965 61.723 C-6.922 65.354 -6.966 68.774 -7.5 72.375 C-7.933 75.512 -8.199 78.526 -8.312 81.688 C-8.35 82.599 -8.387 83.51 -8.426 84.449 C-8.239 87.17 -8.239 87.17 -5.934 88.918 C-4 91 -4 91 -4.047 94.102 C-4.279 95.264 -4.511 96.427 -4.75 97.625 C-5.699 102.938 -6.175 107.821 -5.973 113.207 C-6 115 -6 115 -7 116 C-7.136 119.663 -7.165 122.506 -6 126 C-6.66 126 -7.32 126 -8 126 C-12.306 117.389 -7.56 101.05 -6 92 C-6.66 91.67 -7.32 91.34 -8 91 C-14.198 81.703 -8.666 62.754 -7.301 52.317 C-6.828 48.679 -6.364 45.039 -5.898 41.4 C-5.228 36.162 -4.551 30.925 -3.875 25.688 C-3.741 24.647 -3.607 23.607 -3.469 22.536 C-3.084 19.548 -2.695 16.561 -2.305 13.574 C-2.188 12.668 -2.072 11.762 -1.951 10.828 C-1.841 9.987 -1.731 9.146 -1.617 8.28 C-1.521 7.547 -1.426 6.814 -1.328 6.059 C-1 3.999 -0.537 2.015 0 0 Z " fill="#111111" transform="translate(111,3)"/>
<path d="M0 0 C0.704 0.009 1.409 0.018 2.135 0.027 C3.819 0.05 5.503 0.086 7.188 0.125 C7.188 0.455 7.188 0.785 7.188 1.125 C6.089 1.223 4.991 1.321 3.859 1.422 C-8.171 2.52 -20.18 3.795 -32.188 5.125 C-32.947 5.209 -33.707 5.292 -34.49 5.378 C-38.893 5.864 -43.293 6.367 -47.692 6.884 C-49.814 7.125 -51.938 7.339 -54.064 7.55 C-55.404 7.697 -56.743 7.844 -58.082 7.992 C-59.839 8.172 -59.839 8.172 -61.632 8.355 C-66.287 9.482 -68.965 12.008 -72.176 15.445 C-72.986 16.277 -72.986 16.277 -73.812 17.125 C-74.472 17.125 -75.132 17.125 -75.812 17.125 C-75.854 17.702 -75.895 18.28 -75.938 18.875 C-77.247 22.241 -79.822 23.256 -82.812 25.125 C-83.142 25.785 -83.472 26.445 -83.812 27.125 C-84.803 27.125 -85.792 27.125 -86.812 27.125 C-86.812 27.785 -86.812 28.445 -86.812 29.125 C-88.248 29.941 -89.686 30.752 -91.125 31.562 C-91.926 32.015 -92.726 32.467 -93.551 32.934 C-95.812 34.125 -95.812 34.125 -98.812 35.125 C-98.812 35.785 -98.812 36.445 -98.812 37.125 C-101.287 37.62 -101.287 37.62 -103.812 38.125 C-104.472 36.805 -105.132 35.485 -105.812 34.125 C-106.472 34.125 -107.132 34.125 -107.812 34.125 C-109.539 31.938 -109.539 31.938 -111.438 29.125 C-112.069 28.197 -112.701 27.269 -113.352 26.312 C-114.075 25.23 -114.075 25.23 -114.812 24.125 C-116.684 33.088 -118.243 42.105 -119.812 51.125 C-120.143 51.125 -120.472 51.125 -120.812 51.125 C-119.782 28.064 -119.782 28.064 -115.812 20.125 C-116.71 19.816 -116.71 19.816 -117.625 19.5 C-120.623 17.616 -121.426 15.314 -122.812 12.125 C-122.153 12.125 -121.493 12.125 -120.812 12.125 C-119.188 14.125 -119.188 14.125 -117.812 16.125 C-117.173 15.824 -116.533 15.523 -115.873 15.213 C-111.904 13.802 -108.003 13.282 -103.84 12.723 C-102.523 12.538 -102.523 12.538 -101.18 12.349 C-98.371 11.956 -95.561 11.571 -92.75 11.188 C-90.006 10.807 -87.262 10.425 -84.518 10.042 C-82.685 9.787 -80.851 9.532 -79.018 9.279 C-73.644 8.534 -68.28 7.747 -62.918 6.922 C-53.917 5.539 -44.944 4.416 -35.875 3.562 C-28.874 2.896 -21.926 2.18 -14.984 1.043 C-9.932 0.234 -5.109 -0.131 0 0 Z " fill="#B9B9B9" transform="translate(313.8125,167.875)"/>
<path d="M0 0 C6.443 1.373 12.745 2.915 19 5 C19 4.34 19 3.68 19 3 C22.215 1.393 25.436 1.943 29 2 C29.274 7.394 29.361 10.519 26 15 C25.34 14.67 24.68 14.34 24 14 C25.32 11.36 26.64 8.72 28 6 C25.36 6.66 22.72 7.32 20 8 C20.041 8.928 20.082 9.856 20.125 10.812 C20 14 20 14 18 17 C17.897 17.825 17.794 18.65 17.688 19.5 C16.737 22.958 15.05 23.209 12 25 C9.4 27.248 6.909 29.59 4.402 31.941 C0.264 35.488 -2.732 36.434 -8.098 36.234 C-10 36 -10 36 -12.438 35.062 C-14.579 32.235 -14.618 29.738 -14.824 26.254 C-14.927 24.004 -14.927 24.004 -15.578 21.918 C-16.228 18.963 -15.064 16.755 -14 14 C-13.34 14 -12.68 14 -12 14 C-12.33 15.65 -12.66 17.3 -13 19 C-10.648 18.401 -8.314 17.731 -6 17 C-5 15 -4.506 13.169 -4 11 C-2.68 11 -1.36 11 0 11 C0.99 9.02 1.98 7.04 3 5 C1.35 4.34 -0.3 3.68 -2 3 C-1.34 2.01 -0.68 1.02 0 0 Z " fill="#030303" transform="translate(261,254)"/>
<path d="M0 0 C0.99 0 1.98 0 3 0 C2.988 0.953 2.977 1.905 2.965 2.887 C2.956 4.141 2.947 5.395 2.938 6.688 C2.926 7.929 2.914 9.17 2.902 10.449 C2.985 13.462 3.292 16.083 4 19 C2 18 2 18 1 15 C0.34 15 -0.32 15 -1 15 C-1 26.22 -1 37.44 -1 49 C3.29 49 7.58 49 12 49 C13.65 49.66 15.3 50.32 17 51 C17 51.66 17 52.32 17 53 C12.05 52.67 7.1 52.34 2 52 C1.505 52.99 1.505 52.99 1 54 C-2.473 55.158 -5.361 55.069 -9 55 C-9 54.67 -9 54.34 -9 54 C-9.638 53.818 -10.276 53.636 -10.934 53.449 C-11.76 53.198 -12.586 52.946 -13.438 52.688 C-14.261 52.444 -15.085 52.2 -15.934 51.949 C-16.616 51.636 -17.297 51.323 -18 51 C-18.33 50.01 -18.66 49.02 -19 48 C-19.66 48 -20.32 48 -21 48 C-21.66 50.31 -22.32 52.62 -23 55 C-24.252 51.244 -23.568 48.915 -23 45 C-22.914 41.998 -22.939 39.003 -23 36 C-23.908 38.725 -24.184 40.622 -24.316 43.449 C-24.358 44.297 -24.4 45.144 -24.443 46.018 C-24.483 46.899 -24.522 47.78 -24.562 48.688 C-24.606 49.58 -24.649 50.473 -24.693 51.393 C-24.799 53.595 -24.9 55.797 -25 58 C-30.28 58 -35.56 58 -41 58 C-41 60.97 -41 63.94 -41 67 C-34.73 67.33 -28.46 67.66 -22 68 C-22 65.69 -22 63.38 -22 61 C-21 58.562 -21 58.562 -20 57 C-20 58.32 -20 59.64 -20 61 C-18.515 61.495 -18.515 61.495 -17 62 C-17.266 62.508 -17.531 63.016 -17.805 63.539 C-19.9 67.622 -21.676 71.587 -23 76 C-24.044 72.867 -23.934 72.01 -23 69 C-23.869 69.012 -24.738 69.023 -25.633 69.035 C-26.785 69.044 -27.938 69.053 -29.125 69.062 C-30.262 69.074 -31.399 69.086 -32.57 69.098 C-35.813 69.005 -38.819 68.614 -42 68 C-44.385 58.981 -41.263 52.086 -37.794 43.883 C-36.693 41.273 -35.662 38.636 -34.625 36 C-34.085 34.666 -33.544 33.332 -33 32 C-32.67 33.32 -32.34 34.64 -32 36 C-31.34 36 -30.68 36 -30 36 C-30 35.01 -30 34.02 -30 33 C-29.34 33.33 -28.68 33.66 -28 34 C-27.67 33.01 -27.34 32.02 -27 31 C-25.438 29.312 -25.438 29.312 -24 28 C-23.01 28.33 -22.02 28.66 -21 29 C-20.505 36.92 -20.505 36.92 -20 45 C-19.795 43.686 -19.59 42.373 -19.379 41.02 C-19.107 39.284 -18.835 37.548 -18.562 35.812 C-18.428 34.948 -18.293 34.084 -18.154 33.193 C-17.513 29.111 -16.862 25.043 -16 21 C-15.67 21 -15.34 21 -15 21 C-15 22.98 -15 24.96 -15 27 C-12.69 27.99 -10.38 28.98 -8 30 C-8 30.33 -8 30.66 -8 31 C-10.31 30.67 -12.62 30.34 -15 30 C-16.521 33.042 -16.374 36.28 -16.562 39.625 C-16.606 40.331 -16.649 41.038 -16.693 41.766 C-16.799 43.51 -16.9 45.255 -17 47 C-14.431 48.284 -12.234 48.33 -9.375 48.562 C-8.372 48.646 -7.369 48.73 -6.336 48.816 C-5.565 48.877 -4.794 48.938 -4 49 C-3.985 47.978 -3.971 46.955 -3.956 45.902 C-3.897 42.045 -3.82 38.189 -3.738 34.333 C-3.705 32.676 -3.677 31.019 -3.654 29.362 C-3.509 19.162 -2.856 9.859 0 0 Z " fill="#000000" transform="translate(78,3)"/>
<path d="M0 0 C0 3.742 -0.513 7.29 -1 11 C-1.33 11 -1.66 11 -2 11 C-2.495 8.03 -2.495 8.03 -3 5 C-3.99 7.97 -4.98 10.94 -6 14 C-6.33 14 -6.66 14 -7 14 C-7 12.02 -7 10.04 -7 8 C-8.472 9.472 -8.584 11.054 -9.062 13.062 C-9.239 13.796 -9.416 14.529 -9.598 15.285 C-9.73 15.851 -9.863 16.417 -10 17 C-10.33 17 -10.66 17 -11 17 C-11.495 14.03 -11.495 14.03 -12 11 C-12.335 12.791 -12.668 14.583 -13 16.375 C-13.186 17.373 -13.371 18.37 -13.562 19.398 C-14.055 21.889 -14.055 21.889 -14 24 C-12.68 24.66 -11.36 25.32 -10 26 C-10.495 27.485 -10.495 27.485 -11 29 C-11.266 31.909 -11.266 31.909 -9.938 33.688 C-7.027 35.659 -4.42 35.194 -1 35 C-1.99 34.34 -2.98 33.68 -4 33 C-1.03 32.505 -1.03 32.505 2 32 C0.02 31.01 -1.96 30.02 -4 29 C-3.67 28.34 -3.34 27.68 -3 27 C-2.072 27.516 -1.144 28.031 -0.188 28.562 C2.928 30.401 2.928 30.401 6 29 C4.68 28.01 3.36 27.02 2 26 C4.97 26.33 7.94 26.66 11 27 C9.35 26.01 7.7 25.02 6 24 C9.09 22.455 11.672 23.416 15 24 C15.99 24.33 16.98 24.66 18 25 C2.469 36.125 2.469 36.125 -3 37 C-3.186 38.114 -3.186 38.114 -3.375 39.25 C-3.955 41.801 -4.737 43.727 -6 46 C-6.66 46 -7.32 46 -8 46 C-8 46.66 -8 47.32 -8 48 C-8.66 48 -9.32 48 -10 48 C-10 48.66 -10 49.32 -10 50 C-12.248 50.673 -14.499 51.338 -16.75 52 C-18.003 52.371 -19.256 52.743 -20.547 53.125 C-24 54 -24 54 -28 54 C-27.461 48.723 -26.227 44.744 -24 40 C-23.67 40.66 -23.34 41.32 -23 42 C-20.69 40.68 -18.38 39.36 -16 38 C-16.394 32.654 -16.758 27.933 -19 23 C-19 22.01 -19 21.02 -19 20 C-20.65 20.66 -22.3 21.32 -24 22 C-23.67 23.98 -23.34 25.96 -23 28 C-25.776 26.612 -26.535 24.423 -27.98 21.781 C-29.034 19.853 -29.034 19.853 -30.75 17.688 C-32 16 -32 16 -32 14 C-33.32 14.33 -34.64 14.66 -36 15 C-38.97 10.71 -41.94 6.42 -45 2 C-44.34 1.67 -43.68 1.34 -43 1 C-41.02 3.97 -39.04 6.94 -37 10 C-36.34 9.67 -35.68 9.34 -35 9 C-34.34 9.66 -33.68 10.32 -33 11 C-33.33 11.66 -33.66 12.32 -34 13 C-32.484 12.505 -32.484 12.505 -30.938 12 C-26.372 10.706 -22.048 10.16 -17.562 12 C-16.789 12.495 -16.789 12.495 -16 13 C-15.67 12.01 -15.34 11.02 -15 10 C-13.145 8.535 -13.145 8.535 -10.812 7.062 C-9.602 6.287 -9.602 6.287 -8.367 5.496 C-7.586 5.002 -6.805 4.509 -6 4 C-4.81 3.212 -3.622 2.421 -2.438 1.625 C-1.633 1.089 -0.829 0.553 0 0 Z " fill="#2B2B2B" transform="translate(254,49)"/>
<path d="M0 0 C0.552 0.481 1.103 0.962 1.672 1.457 C4.361 3.24 6.058 3.478 9.25 3.688 C10.142 3.753 11.034 3.819 11.953 3.887 C12.629 3.924 13.304 3.961 14 4 C12.132 9.722 10.147 15.377 8 21 C10.882 21.807 13.56 22.175 16.547 22.316 C17.391 22.358 18.236 22.4 19.105 22.443 C20.415 22.502 20.415 22.502 21.75 22.562 C23.082 22.627 23.082 22.627 24.441 22.693 C26.627 22.799 28.814 22.901 31 23 C31.167 27.921 31.248 31.503 29 36 C7.159 34.919 7.159 34.919 -1 29 C-4.85 22.791 -4.981 16.25 -3.355 9.207 C-2.424 6.028 -1.483 2.966 0 0 Z " fill="#FFFFFF" transform="translate(19,72)"/>
<path d="M0 0 C0.33 0 0.66 0 1 0 C1 2.64 1 5.28 1 8 C7.27 8.33 13.54 8.66 20 9 C18.875 16.875 18.875 16.875 18.246 19.965 C18.114 20.619 17.982 21.273 17.846 21.947 C17.711 22.604 17.576 23.261 17.438 23.938 C17.299 24.621 17.16 25.305 17.018 26.01 C16.68 27.674 16.34 29.337 16 31 C12.896 31.058 9.792 31.094 6.688 31.125 C5.366 31.15 5.366 31.15 4.018 31.176 C3.17 31.182 2.322 31.189 1.449 31.195 C0.669 31.206 -0.111 31.216 -0.915 31.227 C-3 31 -3 31 -6 29 C-4.928 24.265 -3.599 19.893 -1.812 15.375 C-0.203 11.097 0.207 8.499 -1 4 C-0.562 1.625 -0.562 1.625 0 0 Z " fill="#FFFFFF" transform="translate(35,63)"/>
<path d="M0 0 C1.582 2.066 1.582 2.066 2.812 4.562 C3.231 5.389 3.65 6.215 4.082 7.066 C4.385 7.704 4.688 8.343 5 9 C5.99 8.67 6.98 8.34 8 8 C7.004 10.905 6.016 12.98 4.062 15.375 C2.318 17.595 1.414 19.14 0.375 21.688 C-1 25 -1 25 -3 27 C-2.67 25.35 -2.34 23.7 -2 22 C-2.66 22 -3.32 22 -4 22 C-4 22.66 -4 23.32 -4 24 C-6.688 24.812 -6.688 24.812 -10 25 C-14.399 21.726 -16.442 18.132 -18 13 C-17.141 8.489 -14.381 5.969 -11 3 C-10.01 2.67 -9.02 2.34 -8 2 C-8 1.34 -8 0.68 -8 0 C-4.639 -1.12 -3.315 -1.129 0 0 Z " fill="#CECECE" transform="translate(162,34)"/>
<path d="M0 0 C0.33 0.66 0.66 1.32 1 2 C0.223 3.727 0.223 3.727 -0.938 5.625 C-1.618 6.739 -2.299 7.853 -3 9 C0.688 7.771 1.724 6.061 4 3 C3.494 5.169 3 7 2 9 C10.414 11.693 10.414 11.693 18.938 14 C19.547 14.152 20.157 14.304 20.785 14.461 C22.601 14.903 24.423 15.318 26.246 15.727 C34.51 17.773 41.221 20.515 47 27 C47 27.99 47 28.98 47 30 C46.67 30 46.34 30 46 30 C46.277 30.603 46.554 31.207 46.84 31.828 C47.383 33.027 47.383 33.027 47.938 34.25 C48.297 35.039 48.657 35.828 49.027 36.641 C52.767 45.713 50.55 53.893 48 63 C47.505 61.02 47.505 61.02 47 59 C46.67 60.65 46.34 62.3 46 64 C45.67 64 45.34 64 45 64 C44.928 59.707 44.95 56.152 46 52 C47.042 42.684 45.021 36.061 39.203 28.738 C33.668 22.75 27.163 19.053 19 18 C19.33 17.34 19.66 16.68 20 16 C19.089 16.058 18.177 16.116 17.238 16.176 C11.711 16.172 6.5 14.579 1.188 13.188 C0.158 12.926 -0.871 12.665 -1.932 12.396 C-8.338 10.755 -14.682 8.954 -21 7 C-21 7.99 -21 8.98 -21 10 C-19.67 10.155 -19.67 10.155 -18.312 10.312 C-12.464 11.134 -6.738 12.628 -1 14 C-1 14.33 -1 14.66 -1 15 C-7.746 14.336 -14.344 13.281 -21 12 C-21.731 10.023 -22.394 8.019 -23 6 C-22.67 5.34 -22.34 4.68 -22 4 C-15.949 5.166 -9.965 6.453 -4 8 C-4.33 7.01 -4.66 6.02 -5 5 C-3.35 3.35 -1.7 1.7 0 0 Z " fill="#575757" transform="translate(158,61)"/>
<path d="M0 0 C0.33 0 0.66 0 1 0 C0.337 7.724 -0.765 15.348 -2 23 C-1.807 21.88 -1.613 20.76 -1.414 19.605 C-1.151 18.133 -0.888 16.66 -0.625 15.188 C-0.499 14.45 -0.372 13.712 -0.242 12.951 C0.402 9.394 0.97 7.045 3 4 C3.08 8.703 2.935 12.325 2 17 C2.99 12.05 3.98 7.1 5 2 C13 10 13 10 13 13 C13.66 13 14.32 13 15 13 C18 16.462 18 16.462 18 19 C12.588 23 12.588 23 10 23 C9.67 23.99 9.34 24.98 9 26 C7.039 27.789 7.039 27.789 4.625 29.625 C3.834 30.236 3.042 30.847 2.227 31.477 C0 33 0 33 -3 34 C-5.687 33.062 -5.687 33.062 -8 32 C-7.551 28.457 -7.089 24.916 -6.625 21.375 C-6.499 20.376 -6.372 19.377 -6.242 18.348 C-5.581 13.354 -4.853 8.722 -3 4 C-2.06 7.039 -2.001 9.207 -2.559 12.328 C-2.697 13.127 -2.836 13.927 -2.979 14.75 C-3.13 15.575 -3.281 16.4 -3.438 17.25 C-3.585 18.09 -3.733 18.931 -3.885 19.797 C-4.249 21.866 -4.624 23.933 -5 26 C-1.925 8.144 -1.925 8.144 0 0 Z " fill="#FFFFFF" transform="translate(193,189)"/>
<path d="M0 0 C2.475 1.485 2.475 1.485 5 3 C5 2.34 5 1.68 5 1 C6.32 1 7.64 1 9 1 C11 4 11 4 12 7 C10.891 9.445 10.891 9.445 9.25 12.125 C8.453 13.459 8.453 13.459 7.641 14.82 C6 17 6 17 3 18 C2.319 19.326 1.654 20.66 1 22 C-3.55 26.467 -7.636 28.735 -14 29 C-11.697 26.459 -9.327 24.929 -6.312 23.312 C-5.504 22.876 -4.696 22.439 -3.863 21.988 C-2.941 21.499 -2.941 21.499 -2 21 C-2 20.67 -2 20.34 -2 20 C-3.011 20.784 -4.021 21.567 -5.062 22.375 C-8.626 24.942 -11.736 26.043 -16 27 C-18.12 23.509 -18.12 23.509 -17.5 20.875 C-17.335 20.256 -17.17 19.637 -17 19 C-17.66 18.34 -18.32 17.68 -19 17 C-13.375 15.875 -13.375 15.875 -10 17 C-10 16.34 -10 15.68 -10 15 C-9.67 14.01 -9.34 13.02 -9 12 C-8.34 12 -7.68 12 -7 12 C-7 11.34 -7 10.68 -7 10 C-4 8 -4 8 -1.812 8.375 C-1.214 8.581 -0.616 8.788 0 9 C-0.33 8.34 -0.66 7.68 -1 7 C-0.718 4.66 -0.387 2.325 0 0 Z " fill="#979797" transform="translate(267,259)"/>
<path d="M0 0 C6.21 1.16 12.356 2.536 18.5 4 C29.364 6.602 29.364 6.602 40.375 8.438 C43.382 9.082 44.608 10.101 47 12 C48.225 12.552 49.454 13.092 50.688 13.625 C58.18 17.308 64.405 23.779 67.418 31.594 C68.489 36.02 68.635 40.494 68 45 C67.34 45.99 66.68 46.98 66 48 C65.334 50.275 65.334 50.275 64.875 52.688 C64.707 53.496 64.54 54.304 64.367 55.137 C64.185 56.059 64.185 56.059 64 57 C62.847 53.541 63.158 51.48 63.562 47.875 C64.251 39.84 63.523 33.784 59 27 C59 26.34 59 25.68 59 25 C58.34 25 57.68 25 57 25 C56.278 24.257 55.556 23.515 54.812 22.75 C48.503 16.581 41.565 14.832 33.188 12.812 C31.118 12.3 29.049 11.786 26.98 11.27 C26.072 11.049 25.163 10.828 24.227 10.601 C22 10 22 10 20 9 C20 8.34 20 7.68 20 7 C18.928 6.897 17.855 6.794 16.75 6.688 C11.047 5.99 5.544 4.469 0 3 C0 2.01 0 1.02 0 0 Z " fill="#B6B6B6" transform="translate(137,68)"/>
<path d="M0 0 C0.66 0 1.32 0 2 0 C2.208 0.626 2.415 1.253 2.629 1.898 C4.265 6.71 4.265 6.71 7.824 10.043 C9.948 10.661 9.948 10.661 13 11 C13 11.66 13 12.32 13 13 C13.99 13.33 14.98 13.66 16 14 C17.688 17.062 17.688 17.062 19 20 C17.308 23.033 15.59 25.664 13 28 C7.934 28.876 2.688 26.803 -2 25 C-2.33 25.99 -2.66 26.98 -3 28 C-2.232 18.639 -1.126 9.324 0 0 Z " fill="#FFFFFF" transform="translate(108,32)"/>
<path d="M0 0 C0.33 0 0.66 0 1 0 C0.251 6.504 -0.803 12.928 -1.938 19.375 C-2.107 20.352 -2.277 21.329 -2.451 22.336 C-3.543 28.577 -4.727 34.794 -6 41 C-7.772 40.717 -9.543 40.423 -11.312 40.125 C-12.299 39.963 -13.285 39.8 -14.301 39.633 C-17 39 -17 39 -20 37 C-15.119 28.257 -10.192 19.563 -5 11 C-1.765 5.806 -1.765 5.806 0 0 Z " fill="#FFFFFF" transform="translate(179,33)"/>
<path d="M0 0 C0.66 1.32 1.32 2.64 2 4 C2.66 3.67 3.32 3.34 4 3 C14.31 2.893 24.362 6.744 34 10 C33.34 10.99 32.68 11.98 32 13 C26.623 12.114 21.637 10.948 16.562 8.938 C11.071 6.827 5.85 6.226 0 6 C0.041 7.031 0.082 8.062 0.125 9.125 C0.148 15.482 -1.015 21.737 -2 28 C-2.33 28 -2.66 28 -3 28 C-3.463 18.425 -1.716 9.379 0 0 Z M-4 28 C-3.67 28 -3.34 28 -3 28 C-3.348 38.698 -4.091 48.646 -7 59 C-3.7 59.66 -0.4 60.32 3 61 C3 61.33 3 61.66 3 62 C-1.028 62.183 -3.484 61.942 -7 60 C-6.988 60.568 -6.977 61.137 -6.965 61.723 C-6.922 65.354 -6.966 68.774 -7.5 72.375 C-7.933 75.512 -8.199 78.526 -8.312 81.688 C-8.35 82.599 -8.387 83.51 -8.426 84.449 C-8.239 87.17 -8.239 87.17 -5.934 88.918 C-4 91 -4 91 -4.047 94.102 C-4.279 95.264 -4.511 96.427 -4.75 97.625 C-5.699 102.938 -6.175 107.821 -5.973 113.207 C-6 115 -6 115 -7 116 C-7.136 119.663 -7.165 122.506 -6 126 C-6.66 126 -7.32 126 -8 126 C-12.306 117.389 -7.56 101.05 -6 92 C-6.66 91.67 -7.32 91.34 -8 91 C-17.047 77.43 -6.155 43.389 -4 28 Z " fill="#000000" transform="translate(111,3)"/>
<path d="M0 0 C3.635 1.212 3.769 1.947 5.438 5.25 C6.917 8.105 8.079 10.083 10.312 12.438 C12.92 16.398 12.322 20.39 12 25 C6.125 24.125 6.125 24.125 5 23 C3.68 24.32 2.36 25.64 1 27 C0.34 26.67 -0.32 26.34 -1 26 C-1.029 21.854 -1.047 17.708 -1.062 13.562 C-1.071 12.378 -1.079 11.194 -1.088 9.975 C-1.091 8.85 -1.094 7.725 -1.098 6.566 C-1.103 5.524 -1.108 4.482 -1.114 3.408 C-1 1 -1 1 0 0 Z " fill="#F7F7F7" transform="translate(77,17)"/>
<path d="M0 0 C0.268 0.639 0.536 1.279 0.812 1.938 C1.887 4.331 1.887 4.331 5 5 C7.835 8.675 8.588 11.394 8 16 C7 18.375 7 18.375 5 20 C1.203 20.362 -1.739 20.259 -5.438 19.5 C-7.754 17.277 -7.861 15.023 -8.109 11.895 C-8 10 -8 10 -6.688 8.25 C-5.852 7.631 -5.852 7.631 -5 7 C-4.67 6.34 -4.34 5.68 -4 5 C-2.94 2.88 -1.743 1.584 0 0 Z " fill="#000000" transform="translate(215,68)"/>
<path d="M0 0 C15.585 5.79 15.585 5.79 19 13 C19 13.66 19 14.32 19 15 C18.406 14.881 17.811 14.763 17.199 14.641 C9.871 13.501 4.714 15.026 -2 18 C-2.202 11.64 -1.628 6.148 0 0 Z " fill="#FFFFFF" transform="translate(106,99)"/>
<path d="M0 0 C0.99 0 1.98 0 3 0 C2.988 0.953 2.977 1.905 2.965 2.887 C2.956 4.141 2.947 5.395 2.938 6.688 C2.926 7.929 2.914 9.17 2.902 10.449 C2.985 13.462 3.292 16.083 4 19 C2 18 2 18 1 15 C0.34 15 -0.32 15 -1 15 C-1 26.22 -1 37.44 -1 49 C3.29 49 7.58 49 12 49 C13.65 49.66 15.3 50.32 17 51 C17 51.66 17 52.32 17 53 C12.05 52.67 7.1 52.34 2 52 C1.67 52.66 1.34 53.32 1 54 C-2.473 55.158 -5.361 55.069 -9 55 C-9 54.67 -9 54.34 -9 54 C-11.31 53.34 -13.62 52.68 -16 52 C-16 51.34 -16 50.68 -16 50 C-11.71 50 -7.42 50 -3 50 C-3.016 48.947 -3.031 47.894 -3.048 46.81 C-3.103 42.842 -3.137 38.874 -3.165 34.906 C-3.18 33.2 -3.2 31.494 -3.226 29.789 C-3.382 19.381 -3.016 10.051 0 0 Z " fill="#323232" transform="translate(78,3)"/>
<path d="M0 0 C0.33 0.66 0.66 1.32 1 2 C0.223 3.727 0.223 3.727 -0.938 5.625 C-1.618 6.739 -2.299 7.853 -3 9 C0.688 7.771 1.724 6.061 4 3 C3.494 5.169 3 7 2 9 C10.663 11.758 10.663 11.758 19.438 14.125 C22.699 14.926 25.832 15.891 29 17 C28.505 18.485 28.505 18.485 28 20 C23.545 19.01 23.545 19.01 19 18 C19.33 17.34 19.66 16.68 20 16 C19.089 16.058 18.177 16.116 17.238 16.176 C11.711 16.172 6.5 14.579 1.188 13.188 C0.158 12.926 -0.871 12.665 -1.932 12.396 C-8.338 10.755 -14.682 8.954 -21 7 C-21 7.99 -21 8.98 -21 10 C-19.67 10.155 -19.67 10.155 -18.312 10.312 C-12.464 11.134 -6.738 12.628 -1 14 C-1 14.33 -1 14.66 -1 15 C-7.746 14.336 -14.344 13.281 -21 12 C-21.731 10.023 -22.394 8.019 -23 6 C-22.67 5.34 -22.34 4.68 -22 4 C-15.949 5.166 -9.965 6.453 -4 8 C-4.33 7.01 -4.66 6.02 -5 5 C-3.35 3.35 -1.7 1.7 0 0 Z " fill="#000000" transform="translate(158,61)"/>
<path d="M0 0 C1.986 0.586 3.971 1.172 5.957 1.758 C5.627 2.418 5.297 3.078 4.957 3.758 C5.287 4.748 5.617 5.738 5.957 6.758 C5.639 8.427 5.307 10.095 4.957 11.758 C5.287 12.088 5.617 12.418 5.957 12.758 C5.957 13.418 5.957 14.078 5.957 14.758 C2.255 15.705 0.566 16.062 -2.918 14.32 C-3.619 13.805 -4.32 13.289 -5.043 12.758 C-5.043 13.418 -5.043 14.078 -5.043 14.758 C-6.033 15.088 -7.023 15.418 -8.043 15.758 C-9.355 12.695 -9.355 12.695 -10.043 8.758 C-8.287 4.838 -4.766 -0.565 0 0 Z " fill="#333333" transform="translate(154.04296875,36.2421875)"/>
<path d="M0 0 C0.763 0.165 1.526 0.33 2.312 0.5 C5.036 1.091 5.036 1.091 8 1 C7.01 2.485 7.01 2.485 6 4 C5.34 4 4.68 4 4 4 C4 4.66 4 5.32 4 6 C3.34 6 2.68 6 2 6 C2.33 8.31 2.66 10.62 3 13 C2.34 13 1.68 13 1 13 C1 12.34 1 11.68 1 11 C-1.31 11 -3.62 11 -6 11 C-5.835 11.743 -5.67 12.485 -5.5 13.25 C-5 16 -5 16 -5 20 C1.193 18.71 5.153 16.004 10 12 C10.66 12.33 11.32 12.66 12 13 C10.61 14.132 9.213 15.256 7.812 16.375 C7.035 17.001 6.258 17.628 5.457 18.273 C3.031 19.978 0.787 21.02 -2 22 C-0.02 22 1.96 22 4 22 C3.67 22.99 3.34 23.98 3 25 C-4.08 25.354 -4.08 25.354 -7.438 24.062 C-9.579 21.235 -9.618 18.738 -9.824 15.254 C-9.927 13.004 -9.927 13.004 -10.578 10.918 C-11.228 7.963 -10.064 5.755 -9 3 C-8.34 3 -7.68 3 -7 3 C-7.33 4.65 -7.66 6.3 -8 8 C-5.648 7.401 -3.314 6.731 -1 6 C0.298 3.776 0.298 3.776 0 0 Z " fill="#0B0B0B" transform="translate(256,265)"/>
<path d="M0 0 C1.938 0.812 1.938 0.812 3.938 3.812 C2.648 5.188 1.311 6.52 -0.062 7.812 C-0.723 7.812 -1.382 7.812 -2.062 7.812 C-2.062 8.473 -2.062 9.132 -2.062 9.812 C-2.723 9.812 -3.382 9.812 -4.062 9.812 C-3.733 11.132 -3.402 12.452 -3.062 13.812 C-10.491 18.241 -10.491 18.241 -14.062 18.812 C-16.182 15.321 -16.182 15.321 -15.562 12.688 C-15.398 12.069 -15.232 11.45 -15.062 10.812 C-15.722 10.152 -16.382 9.493 -17.062 8.812 C-11.438 7.688 -11.438 7.688 -8.062 8.812 C-8.062 8.152 -8.062 7.493 -8.062 6.812 C-7.733 5.822 -7.402 4.832 -7.062 3.812 C-6.402 3.812 -5.743 3.812 -5.062 3.812 C-5.062 3.152 -5.062 2.493 -5.062 1.812 C-2.062 -0.188 -2.062 -0.188 0 0 Z " fill="#F8F8F8" transform="translate(265.0625,267.1875)"/>
<path d="M0 0 C2.876 1.1 4.226 2.39 6.125 4.812 C7.184 8.2 7.568 9.902 6 13.125 C3.627 15.261 2.318 15.736 -0.875 15.812 C-3.625 14.812 -3.625 14.812 -5.875 12.812 C-7.056 8.827 -7.301 6.746 -5.562 2.938 C-3.733 0.633 -2.975 -0.298 0 0 Z " fill="#FFFFFF" transform="translate(119.875,23.1875)"/>
<path d="M0 0 C1.263 2.527 0.854 3.417 0.223 6.133 C-0.053 7.341 -0.053 7.341 -0.334 8.574 C-0.533 9.416 -0.732 10.258 -0.938 11.125 C-1.133 11.974 -1.328 12.824 -1.529 13.699 C-2.013 15.801 -2.506 17.901 -3 20 C-7.75 21 -7.75 21 -10 21 C-10.205 20.434 -10.41 19.868 -10.621 19.285 C-10.891 18.552 -11.16 17.818 -11.438 17.062 C-11.704 16.332 -11.971 15.601 -12.246 14.848 C-12.854 13.017 -12.854 13.017 -14 12 C-12.75 8.347 -12.329 7.219 -9 5 C-9 5.99 -9 6.98 -9 8 C-7.68 5.69 -6.36 3.38 -5 1 C-4.67 1 -4.34 1 -4 1 C-4 3.31 -4 5.62 -4 8 C-3.711 6.866 -3.423 5.731 -3.125 4.562 C-2.754 3.387 -2.382 2.211 -2 1 C-1.34 0.67 -0.68 0.34 0 0 Z " fill="#DEDEDE" transform="translate(142,41)"/>
<path d="M0 0 C0.33 0 0.66 0 1 0 C1.026 0.788 1.052 1.575 1.078 2.387 C1.69 14.147 4.225 24.137 10.828 33.977 C12 36 12 36 12 39 C12.66 39 13.32 39 14 39 C15.289 40.461 15.289 40.461 16.625 42.375 C17.071 43.001 17.517 43.628 17.977 44.273 C19 46 19 46 19 48 C19.66 48 20.32 48 21 48 C21 48.66 21 49.32 21 50 C22.485 50.495 22.485 50.495 24 51 C24 51.66 24 52.32 24 53 C24.66 53 25.32 53 26 53 C26 53.66 26 54.32 26 55 C26.739 55.271 27.477 55.541 28.238 55.82 C30.87 56.945 32.879 58.203 35.188 59.875 C39.852 63.079 44.686 65.114 50 67 C50 67.33 50 67.66 50 68 C40.336 67.195 32.379 62.139 25 56 C25 55.34 25 54.68 25 54 C24.361 53.732 23.721 53.464 23.062 53.188 C21 52 21 52 20 49 C19.34 49 18.68 49 18 49 C18 48.34 18 47.68 18 47 C17.34 47 16.68 47 16 47 C14.294 44.762 12.726 42.537 11.188 40.188 C10.738 39.505 10.289 38.822 9.826 38.119 C2.817 27.266 -2.136 16.158 -1 3 C-0.67 2.01 -0.34 1.02 0 0 Z " fill="#FFFFFF" transform="translate(161,235)"/>
<path d="M0 0 C0.33 0 0.66 0 1 0 C0.192 7.252 -1.185 14.337 -2.627 21.486 C-2.803 22.382 -2.979 23.277 -3.16 24.199 C-3.321 25.002 -3.483 25.805 -3.649 26.632 C-4.018 29.121 -4.06 31.487 -4 34 C-6.31 34 -8.62 34 -11 34 C-11.33 34.99 -11.66 35.98 -12 37 C-12 36.01 -12 35.02 -12 34 C-12.33 34.99 -12.66 35.98 -13 37 C-19.051 35.835 -25.036 34.545 -31 33 C-32.5 32.624 -34 32.249 -35.5 31.875 C-36.655 31.586 -37.81 31.297 -39 31 C-39 30.01 -39 29.02 -39 28 C-38.252 28.144 -37.505 28.289 -36.734 28.438 C-35.75 28.623 -34.765 28.809 -33.75 29 C-32.775 29.186 -31.801 29.371 -30.797 29.562 C-27.813 30.103 -27.813 30.103 -24 30 C-21.718 27.077 -21.718 27.077 -20 24 C-19.67 24.66 -19.34 25.32 -19 26 C-19.934 28.031 -20.932 30.035 -22 32 C-21.34 31.67 -20.68 31.34 -20 31 C-20 31.66 -20 32.32 -20 33 C-18.02 33 -16.04 33 -14 33 C-13.67 32.01 -13.34 31.02 -13 30 C-13 30.99 -13 31.98 -13 33 C-10.03 32.505 -10.03 32.505 -7 32 C-6.346 28.877 -5.703 25.751 -5.062 22.625 C-4.88 21.755 -4.698 20.885 -4.51 19.988 C-3.424 14.657 -2.684 9.442 -2.342 4.009 C-2 2 -2 2 0 0 Z " fill="#000000" transform="translate(145,29)"/>
<path d="M0 0 C0.66 0.66 1.32 1.32 2 2 C1.34 2 0.68 2 0 2 C0.012 2.664 0.023 3.328 0.035 4.012 C0.049 5.336 0.049 5.336 0.062 6.688 C0.074 7.558 0.086 8.428 0.098 9.324 C0 12 0 12 -0.493 14.361 C-1.33 18.72 -1.226 23.073 -1.25 27.5 C-1.271 28.437 -1.291 29.374 -1.312 30.34 C-1.341 35.387 -1.307 38.893 2 43 C1.01 43.495 1.01 43.495 0 44 C2.151 47.857 4.235 51.543 7 55 C3.66 54.722 2.28 54.28 -0.125 51.875 C-4.43 45.275 -5.466 40.251 -5.312 32.5 C-5.316 31.684 -5.319 30.868 -5.322 30.027 C-5.278 24.993 -4.491 20.84 -3 16 C-2.498 12.697 -2.084 9.397 -1.701 6.078 C-1.096 1.096 -1.096 1.096 0 0 Z " fill="#2D2D2D" transform="translate(90,92)"/>
<path d="M0 0 C2.579 6.055 3.61 11.441 4 18 C-1.75 22 -1.75 22 -4 22 C-4.061 20.891 -4.121 19.783 -4.184 18.641 C-4.268 17.177 -4.353 15.714 -4.438 14.25 C-4.477 13.52 -4.516 12.791 -4.557 12.039 C-4.761 8.573 -5.085 5.347 -6 2 C-3 0 -3 0 0 0 Z " fill="#E8E8E8" transform="translate(235,69)"/>
<path d="M0 0 C7.995 0.731 15.71 2.703 23.5 4.562 C24.909 4.896 26.318 5.228 27.727 5.561 C31.152 6.369 34.576 7.183 38 8 C38.058 11.867 38.084 15.498 37.23 19.277 C37.065 20.031 36.9 20.785 36.729 21.561 C36.461 22.738 36.461 22.738 36.188 23.938 C35.82 25.609 35.454 27.281 35.09 28.953 C34.907 29.79 34.723 30.628 34.535 31.49 C33.707 35.377 32.971 39.28 32.25 43.188 C32.123 43.876 31.995 44.565 31.864 45.275 C31.574 46.85 31.287 48.425 31 50 C30.67 50 30.34 50 30 50 C30.618 42.629 31.699 35.404 33 28.125 C33.178 27.107 33.356 26.088 33.539 25.039 C34.89 17.377 34.89 17.377 35.621 14.871 C36.205 12.785 36.205 12.785 35 10 C34.438 9.914 33.876 9.827 33.297 9.738 C25.693 8.467 18.274 6.618 10.819 4.677 C9.982 4.461 9.144 4.246 8.281 4.023 C7.529 3.827 6.777 3.63 6.002 3.427 C3.852 2.896 3.852 2.896 1 3 C0.67 3.99 0.34 4.98 0 6 C-0.66 5.67 -1.32 5.34 -2 5 C-1.34 3.35 -0.68 1.7 0 0 Z " fill="#000000" transform="translate(143,24)"/>
<path d="M0 0 C23.995 6.338 23.995 6.338 33 10 C33 10.66 33 11.32 33 12 C33.66 12.33 34.32 12.66 35 13 C34.34 13 33.68 13 33 13 C32.67 13.66 32.34 14.32 32 15 C31.468 14.544 30.935 14.087 30.387 13.617 C27.57 11.708 25.101 10.996 21.812 10.125 C20.589 9.792 19.366 9.46 18.105 9.117 C17.449 8.94 16.792 8.763 16.115 8.581 C12.269 7.524 8.449 6.383 4.625 5.25 C3.159 4.818 1.693 4.385 0.227 3.953 C-1.371 3.481 -1.371 3.481 -3 3 C-2.67 2.34 -2.34 1.68 -2 1 C-1.34 1.33 -0.68 1.66 0 2 C0 1.34 0 0.68 0 0 Z " fill="#474747" transform="translate(164,19)"/>
<path d="M0 0 C0.66 0.33 1.32 0.66 2 1 C1.691 1.701 1.381 2.402 1.062 3.125 C-0.033 6.089 -0.564 8.877 -1 12 C-1.33 12 -1.66 12 -2 12 C-2 9.36 -2 6.72 -2 4 C-3.611 7.651 -4.449 11.051 -5 15 C-5.33 15 -5.66 15 -6 15 C-6 12.36 -6 9.72 -6 7 C-7.422 10.317 -8.39 13.442 -9 17 C-9.33 17 -9.66 17 -10 17 C-10 14.69 -10 12.38 -10 10 C-12.296 13.445 -12.54 15.938 -13 20 C-13.33 20 -13.66 20 -14 20 C-14.33 18.02 -14.66 16.04 -15 14 C-16.583 15.583 -16.347 17.38 -16.562 19.562 C-16.688 20.802 -16.688 20.802 -16.816 22.066 C-16.877 22.704 -16.938 23.343 -17 24 C-17.33 24 -17.66 24 -18 24 C-18.33 21.36 -18.66 18.72 -19 16 C-20.611 19.651 -21.449 23.051 -22 27 C-22.33 27 -22.66 27 -23 27 C-23.573 23.192 -23.756 19.791 -23 16 C-20.408 12.862 -17.247 11.025 -13.75 9 C-12.877 8.455 -12.005 7.909 -11.105 7.348 C-9.481 6.333 -7.846 5.335 -6.198 4.359 C-4.029 3.018 -2.016 1.56 0 0 Z " fill="#000000" transform="translate(291,22)"/>
<path d="M0 0 C3.125 0.312 3.125 0.312 5.125 2 C6.125 4.312 6.125 4.312 5.688 6.812 C3.692 10.005 1.34 11.425 -1.875 13.312 C0.765 13.643 3.405 13.972 6.125 14.312 C6.125 15.303 6.125 16.292 6.125 17.312 C2.165 17.312 -1.795 17.312 -5.875 17.312 C-4.686 11.367 -4.686 11.367 -1.875 9.312 C-0.885 9.312 0.105 9.312 1.125 9.312 C1.125 8.653 1.125 7.993 1.125 7.312 C1.785 7.312 2.445 7.312 3.125 7.312 C3.125 5.993 3.125 4.673 3.125 3.312 C1.145 3.312 -0.835 3.312 -2.875 3.312 C-2.875 4.303 -2.875 5.292 -2.875 6.312 C-3.865 6.312 -4.855 6.312 -5.875 6.312 C-3.598 0.391 -3.598 0.391 0 0 Z " fill="#000000" transform="translate(178.875,149.6875)"/>
<path d="M0 0 C3.682 0.607 7.345 1.248 11 2 C11 2.33 11 2.66 11 3 C6.972 3.183 4.516 2.942 1 1 C1.012 1.568 1.023 2.137 1.035 2.723 C1.078 6.354 1.034 9.774 0.5 13.375 C0.067 16.512 -0.199 19.526 -0.312 22.688 C-0.35 23.599 -0.387 24.51 -0.426 25.449 C-0.239 28.17 -0.239 28.17 2.066 29.918 C4 32 4 32 3.953 35.102 C3.721 36.264 3.489 37.427 3.25 38.625 C2.301 43.938 1.825 48.821 2.027 54.207 C2 56 2 56 1 57 C0.864 60.663 0.835 63.506 2 67 C1.34 67 0.68 67 0 67 C-4.306 58.389 0.44 42.05 2 33 C1.34 32.67 0.68 32.34 0 32 C-5.447 23.83 -1.351 9.399 0 0 Z " fill="#000000" transform="translate(103,62)"/>
<path d="M0 0 C3.125 -0.188 3.125 -0.188 6 0 C6.196 1.436 6.381 2.874 6.562 4.312 C6.667 5.113 6.771 5.914 6.879 6.738 C7 9 7 9 6 12 C3.125 12.188 3.125 12.188 0 12 C-2.313 8.53 -2.34 7.075 -2 3 C-1.34 2.01 -0.68 1.02 0 0 Z " fill="#000000" transform="translate(275,294)"/>
<path d="M0 0 C3.125 -0.188 3.125 -0.188 6 0 C6.196 1.436 6.381 2.874 6.562 4.312 C6.667 5.113 6.771 5.914 6.879 6.738 C7 9 7 9 6 12 C3.125 12.188 3.125 12.188 0 12 C-2.313 8.53 -2.34 7.075 -2 3 C-1.34 2.01 -0.68 1.02 0 0 Z " fill="#000000" transform="translate(265,294)"/>
<path d="M0 0 C0.33 0 0.66 0 1 0 C1 2.64 1 5.28 1 8 C1.665 7.984 2.331 7.969 3.016 7.952 C6.052 7.89 9.088 7.851 12.125 7.812 C13.172 7.787 14.218 7.762 15.297 7.736 C21.055 7.682 25.135 7.793 30 11 C28.68 11.99 27.36 12.98 26 14 C26 13.34 26 12.68 26 12 C21.043 9.365 16.088 9.699 10.625 9.75 C9.627 9.754 8.628 9.758 7.599 9.762 C-3.317 9.884 -14.149 10.859 -25 12 C-22.686 9.686 -22.014 9.677 -18.867 9.367 C-18.062 9.283 -17.256 9.2 -16.426 9.113 C-15.584 9.035 -14.742 8.956 -13.875 8.875 C-13.026 8.789 -12.176 8.702 -11.301 8.613 C-9.201 8.401 -7.101 8.199 -5 8 C-4.67 6.02 -4.34 4.04 -4 2 C-3.34 2.33 -2.68 2.66 -2 3 C-2.33 4.32 -2.66 5.64 -3 7 C-2.01 7.33 -1.02 7.66 0 8 C0 5.36 0 2.72 0 0 Z " fill="#000000" transform="translate(29,218)"/>
<path d="M0 0 C0.66 0.33 1.32 0.66 2 1 C0.02 1.99 0.02 1.99 -2 3 C-1.948 4.143 -1.948 4.143 -1.895 5.309 C-1.715 12.172 -2.313 17.665 -5 24 C-5.66 23.67 -6.32 23.34 -7 23 C-7.99 23.33 -8.98 23.66 -10 24 C-17.438 26.479 -24.946 24.892 -32 22 C-35.125 19.812 -35.125 19.812 -37 18 C-34.37 18.526 -32.373 19.307 -29.938 20.5 C-24.103 23.035 -17.045 24.156 -11 21.812 C-7.131 19.475 -5.421 17.61 -4.27 13.203 C-4.119 12.229 -3.968 11.254 -3.812 10.25 C-3.654 9.265 -3.495 8.28 -3.332 7.266 C-3.222 6.518 -3.113 5.77 -3 5 C-3.66 5 -4.32 5 -5 5 C-5 5.66 -5 6.32 -5 7 C-5.66 6.67 -6.32 6.34 -7 6 C-4.743 3.665 -2.719 1.813 0 0 Z " fill="#050505" transform="translate(237,273)"/>
<path d="M0 0 C0.66 0 1.32 0 2 0 C3.32 2.64 4.64 5.28 6 8 C6.66 8 7.32 8 8 8 C10.717 16.151 8.223 24.059 6 32 C5.67 30.68 5.34 29.36 5 28 C4.67 29.65 4.34 31.3 4 33 C3.67 33 3.34 33 3 33 C2.928 28.704 2.957 25.155 4 21 C4.769 13.104 3.452 7.105 0 0 Z " fill="#353535" transform="translate(200,92)"/>
<path d="M0 0 C0.66 0 1.32 0 2 0 C3.508 1.969 3.508 1.969 5.125 4.5 C5.664 5.335 6.203 6.171 6.758 7.031 C7.168 7.681 7.578 8.331 8 9 C8.66 8.67 9.32 8.34 10 8 C10.66 8.66 11.32 9.32 12 10 C11.67 10.66 11.34 11.32 11 12 C12.516 11.505 12.516 11.505 14.062 11 C17.8 9.948 21.103 9.632 25 10 C27.438 11.5 27.438 11.5 29 13 C27.35 13.66 25.7 14.32 24 15 C23.67 14.67 23.34 14.34 23 14 C21.468 14.252 19.947 14.576 18.438 14.938 C17.198 15.229 17.198 15.229 15.934 15.527 C15.296 15.683 14.657 15.839 14 16 C13.67 15.01 13.34 14.02 13 13 C11.68 13.33 10.36 13.66 9 14 C7.497 11.856 5.998 9.71 4.5 7.562 C4.071 6.951 3.641 6.339 3.199 5.709 C0 1.113 0 1.113 0 0 Z " fill="#0B0B0B" transform="translate(209,50)"/>
<path d="M0 0 C0.99 0.33 1.98 0.66 3 1 C2.196 1.454 1.391 1.907 0.562 2.375 C-2.089 3.747 -2.089 3.747 -3 6 C-3.155 8.25 -3.25 10.504 -3.316 12.758 C-3.337 13.421 -3.358 14.084 -3.379 14.767 C-3.445 16.886 -3.504 19.006 -3.562 21.125 C-3.606 22.561 -3.649 23.997 -3.693 25.434 C-3.8 28.956 -3.902 32.478 -4 36 C-4.33 36 -4.66 36 -5 36 C-5.33 33.69 -5.66 31.38 -6 29 C-6.701 29.536 -7.403 30.073 -8.125 30.625 C-11 32 -11 32 -14.312 31.188 C-15.199 30.796 -16.086 30.404 -17 30 C-13.25 25.125 -13.25 25.125 -11 24 C-11 24.66 -11 25.32 -11 26 C-9.02 26.33 -7.04 26.66 -5 27 C-5.084 26.334 -5.168 25.667 -5.254 24.98 C-7.107 8.206 -7.107 8.206 -3.816 3.199 C-2.438 1.813 -2.438 1.813 0 0 Z " fill="#2A2A2A" transform="translate(94,15)"/>
<path d="M0 0 C0.99 0.33 1.98 0.66 3 1 C2.567 1.731 2.567 1.731 2.125 2.477 C-1.594 9.579 -1.404 16.119 -1 24 C-3.495 21.505 -3.359 20.327 -3.625 16.875 C-3.7 15.965 -3.775 15.055 -3.852 14.117 C-3.901 13.419 -3.95 12.72 -4 12 C-4.227 18.933 -3.42 25.217 -2 32 C-4 31 -4 31 -4.633 29.32 C-6.017 23.147 -6.186 17.308 -6 11 C-6 10.01 -6 9.02 -6 8 C-6.66 7.67 -7.32 7.34 -8 7 C-7.34 6.01 -6.68 5.02 -6 4 C-6.33 3.34 -6.66 2.68 -7 2 C-6.216 2.041 -5.433 2.083 -4.625 2.125 C-1.839 2.287 -1.839 2.287 0 0 Z " fill="#111111" transform="translate(165,226)"/>
<path d="M0 0 C2.739 1.004 3.812 1.662 5.25 4.25 C6.594 9.176 6.524 12.436 4 16.875 C3.34 17.906 2.68 18.938 2 20 C0.35 19.67 -1.3 19.34 -3 19 C-1.02 14.545 -1.02 14.545 1 10 C2 13 2 13 1.062 15.188 C0.537 16.085 0.537 16.085 0 17 C0.33 17.33 0.66 17.66 1 18 C1.66 14.04 2.32 10.08 3 6 C2.01 7.485 2.01 7.485 1 9 C-0.5 7.75 -0.5 7.75 -2 6 C-2 4.68 -2 3.36 -2 2 C-1.34 2 -0.68 2 0 2 C0 1.34 0 0.68 0 0 Z " fill="#F3F3F3" transform="translate(129,21)"/>
<path d="M0 0 C0.99 0 1.98 0 3 0 C2.983 1.429 2.983 1.429 2.965 2.887 C2.956 4.141 2.947 5.395 2.938 6.688 C2.926 7.929 2.914 9.17 2.902 10.449 C2.985 13.462 3.292 16.083 4 19 C2 18 2 18 1 15 C0.34 15 -0.32 15 -1 15 C-0.995 15.746 -0.99 16.491 -0.984 17.26 C-0.963 20.673 -0.95 24.087 -0.938 27.5 C-0.929 28.673 -0.921 29.846 -0.912 31.055 C-0.895 37.138 -1.055 42.988 -2 49 C-2.33 49 -2.66 49 -3 49 C-3.075 44.111 -3.129 39.223 -3.165 34.333 C-3.18 32.676 -3.2 31.019 -3.226 29.362 C-3.385 19.089 -2.954 9.925 0 0 Z " fill="#080808" transform="translate(78,3)"/>
<path d="M0 0 C2.562 0.188 2.562 0.188 4.562 2.188 C4.828 4.062 4.828 4.062 4.812 6.188 C4.818 6.889 4.823 7.59 4.828 8.312 C4.562 10.188 4.562 10.188 2.562 12.188 C0 12.375 0 12.375 -2.438 12.188 C-3.438 11.188 -3.438 11.188 -3.57 8.938 C-3.568 8.03 -3.565 7.123 -3.562 6.188 C-3.565 5.28 -3.568 4.373 -3.57 3.438 C-3.384 0.285 -3.157 0.243 0 0 Z " fill="#000000" transform="translate(306.4375,293.8125)"/>
<path d="M0 0 C2.438 0.188 2.438 0.188 3.438 1.188 C3.536 2.852 3.567 4.52 3.562 6.188 C3.565 7.095 3.568 8.002 3.57 8.938 C3.438 11.188 3.438 11.188 2.438 12.188 C0 12.375 0 12.375 -2.562 12.188 C-4.562 10.188 -4.562 10.188 -4.828 8.312 C-4.823 7.611 -4.818 6.91 -4.812 6.188 C-4.818 5.486 -4.823 4.785 -4.828 4.062 C-4.375 0.865 -3.089 0.226 0 0 Z " fill="#000000" transform="translate(258.5625,293.8125)"/>
<path d="M0 0 C0.33 0 0.66 0 1 0 C1.098 0.739 1.196 1.477 1.297 2.238 C2.953 13.473 6.119 22.27 12.512 31.688 C14 34 14 34 15 37 C15.66 37 16.32 37 17 37 C17 37.99 17 38.98 17 40 C17.577 40.227 18.155 40.454 18.75 40.688 C21.566 42.33 23.081 44.395 25 47 C22 47 22 47 19.812 45.125 C18 43 18 43 18 41 C17.34 41 16.68 41 16 41 C15.34 39.35 14.68 37.7 14 36 C13.34 36 12.68 36 12 36 C11.67 34.68 11.34 33.36 11 32 C10.34 32 9.68 32 9 32 C7.867 29.816 6.744 27.628 5.625 25.438 C5.308 24.828 4.991 24.219 4.664 23.592 C1.601 17.562 -0.294 11.912 -0.125 5.062 C-0.107 4.105 -0.089 3.147 -0.07 2.16 C-0.047 1.447 -0.024 0.734 0 0 Z " fill="#FFFFFF" transform="translate(144,255)"/>
<path d="M0 0 C-0.282 1.315 -0.576 2.627 -0.875 3.938 C-1.037 4.668 -1.2 5.399 -1.367 6.152 C-2 8 -2 8 -4 9 C-4.685 10.888 -4.685 10.888 -5.125 13.062 C-5.293 13.796 -5.46 14.529 -5.633 15.285 C-5.754 15.851 -5.875 16.417 -6 17 C-7 14 -7 14 -7 10 C-8.32 11.98 -9.64 13.96 -11 16 C-11.894 13.585 -12.051 12.212 -11.438 9.688 C-8.636 4.45 -6.236 0 0 0 Z M-15 13 C-14.01 13.495 -14.01 13.495 -13 14 C-13.99 14.495 -13.99 14.495 -15 15 C-15 14.34 -15 13.68 -15 13 Z " fill="#9D9D9D" transform="translate(144,34)"/>
<path d="M0 0 C1.32 0 2.64 0 4 0 C4 4.95 4 9.9 4 15 C1.03 14.67 -1.94 14.34 -5 14 C-4.436 12.347 -3.848 10.703 -3.25 9.062 C-2.925 8.146 -2.6 7.229 -2.266 6.285 C-1 4 -1 4 1.141 3.184 C2.061 3.093 2.061 3.093 3 3 C3 2.34 3 1.68 3 1 C2.01 0.67 1.02 0.34 0 0 Z " fill="#FFFFFF" transform="translate(44,40)"/>
<path d="M0 0 C0.33 0.66 0.66 1.32 1 2 C0.34 2 -0.32 2 -1 2 C-1 2.66 -1 3.32 -1 4 C-1.979 5.021 -2.98 6.021 -4 7 C-5.114 9.228 -5.179 10.589 -5.281 13.062 C-5.319 13.859 -5.356 14.656 -5.395 15.477 C-5.429 16.309 -5.464 17.142 -5.5 18 C-5.569 19.646 -5.642 21.292 -5.719 22.938 C-5.749 23.668 -5.779 24.399 -5.811 25.152 C-6 27 -6 27 -7 29 C-6.681 31.226 -6.681 31.226 -6.062 33.625 C-5.868 34.442 -5.673 35.26 -5.473 36.102 C-5.317 36.728 -5.161 37.355 -5 38 C-7 37 -7 37 -8.062 34.25 C-10.415 25.105 -11.339 14.678 -7 6 C-6.34 6 -5.68 6 -5 6 C-4.67 5.01 -4.34 4.02 -4 3 C-3.34 3 -2.68 3 -2 3 C-2 2.34 -2 1.68 -2 1 C-1.34 0.67 -0.68 0.34 0 0 Z " fill="#000000" transform="translate(152,237)"/>
<path d="M0 0 C2.343 0.256 4.678 0.593 7 1 C7.33 1.66 7.66 2.32 8 3 C7.223 4.727 7.223 4.727 6.062 6.625 C5.382 7.739 4.701 8.853 4 10 C2.928 9.526 1.855 9.051 0.75 8.562 C-1.808 7.462 -4.258 6.548 -7 6 C-6.67 4.68 -6.34 3.36 -6 2 C-4.02 2 -2.04 2 0 2 C0 1.34 0 0.68 0 0 Z " fill="#C0C0C0" transform="translate(257,257)"/>
<path d="M0 0 C0.99 0 1.98 0 3 0 C4.754 2.047 4.754 2.047 6.562 4.75 C7.162 5.632 7.761 6.513 8.379 7.422 C12.347 13.733 12.855 18.541 12 26 C10.644 30.804 8.9 35.388 7 40 C6.616 40.96 6.232 41.921 5.836 42.91 C5.56 43.6 5.284 44.289 5 45 C4.67 45 4.34 45 4 45 C4.675 38.973 6.31 33.651 8.359 27.961 C10.179 22.543 10.202 18.3 8.203 12.812 C5.802 8.246 3.097 4.13 0 0 Z " fill="#FFFFFF" transform="translate(219,63)"/>
<path d="M0 0 C0.66 0.33 1.32 0.66 2 1 C0.658 6 -1.484 10.191 -5 14 C-5.66 14 -6.32 14 -7 14 C-7.381 14.891 -7.381 14.891 -7.77 15.801 C-10.118 19.997 -14.461 23.262 -19.082 24.605 C-21 24.875 -21 24.875 -24 25 C-21.805 22.576 -19.749 21.278 -16.812 19.875 C-11.053 16.792 -5.949 11.898 -3 6 C-2.34 6 -1.68 6 -1 6 C-0.67 4.02 -0.34 2.04 0 0 Z " fill="#FFFFFF" transform="translate(277,263)"/>
<path d="M0 0 C-0.527 4.072 -1.63 6.216 -4.375 9.25 C-4.981 9.936 -5.587 10.622 -6.211 11.328 C-8 13 -8 13 -11 14 C-10.78 13.138 -10.78 13.138 -10.555 12.258 C-10.202 10.821 -9.871 9.378 -9.57 7.93 C-9.423 7.252 -9.276 6.574 -9.125 5.875 C-8.983 5.192 -8.841 4.509 -8.695 3.805 C-7.094 -0.351 -3.843 -0.208 0 0 Z " fill="#FFFFFF" transform="translate(289,260)"/>
<path d="M0 0 C0.33 0.66 0.66 1.32 1 2 C0.066 4.031 -0.932 6.035 -2 8 C-1.34 7.67 -0.68 7.34 0 7 C0 7.66 0 8.32 0 9 C0.66 9 1.32 9 2 9 C1.67 9.99 1.34 10.98 1 12 C-7.375 9.906 -7.375 9.906 -15.75 7.812 C-17.359 7.41 -17.359 7.41 -19 7 C-19 6.01 -19 5.02 -19 4 C-18.252 4.144 -17.505 4.289 -16.734 4.438 C-15.257 4.716 -15.257 4.716 -13.75 5 C-12.288 5.278 -12.288 5.278 -10.797 5.562 C-7.813 6.103 -7.813 6.103 -4 6 C-1.718 3.077 -1.718 3.077 0 0 Z " fill="#252525" transform="translate(125,53)"/>
<path d="M0 0 C1 3 1 3 0.102 5.074 C-1.48 9.274 -1.466 13.358 -1.625 17.812 C-1.683 19.138 -1.683 19.138 -1.742 20.49 C-1.836 22.66 -1.919 24.83 -2 27 C-6.95 26.67 -11.9 26.34 -17 26 C-16.67 25.34 -16.34 24.68 -16 24 C-13.059 23.367 -13.059 23.367 -9.438 22.875 C-8.24 22.707 -7.042 22.54 -5.809 22.367 C-4.882 22.246 -3.955 22.125 -3 22 C-3.035 20.915 -3.07 19.829 -3.105 18.711 C-3.134 17.266 -3.161 15.82 -3.188 14.375 C-3.213 13.662 -3.238 12.949 -3.264 12.215 C-3.33 7.377 -2.556 4.253 0 0 Z " fill="#FFFFFF" transform="translate(54,33)"/>
<path d="M0 0 C0.99 0.99 1.98 1.98 3 3 C3 4.32 3 5.64 3 7 C3.99 7.33 4.98 7.66 6 8 C2.167 10.706 -0.325 11.326 -5 11 C-4.67 9.35 -4.34 7.7 -4 6 C-4.99 5.67 -5.98 5.34 -7 5 C-4.69 3.35 -2.38 1.7 0 0 Z " fill="#FFFFFF" transform="translate(253,262)"/>
<path d="M0 0 C0.103 0.639 0.206 1.279 0.312 1.938 C0.653 2.958 0.653 2.958 1 4 C1.99 4.33 2.98 4.66 4 5 C3.734 5.508 3.469 6.016 3.195 6.539 C1.1 10.622 -0.676 14.587 -2 19 C-3.044 15.867 -2.934 15.01 -2 12 C-2.869 12.012 -3.738 12.023 -4.633 12.035 C-5.785 12.044 -6.938 12.053 -8.125 12.062 C-9.262 12.074 -10.399 12.086 -11.57 12.098 C-14.813 12.005 -17.819 11.614 -21 11 C-21.33 8.03 -21.66 5.06 -22 2 C-21.34 1.67 -20.68 1.34 -20 1 C-20 3.97 -20 6.94 -20 10 C-13.73 10.33 -7.46 10.66 -1 11 C-1 8.69 -1 6.38 -1 4 C-0.5 1.562 -0.5 1.562 0 0 Z " fill="#000000" transform="translate(57,60)"/>
<path d="M0 0 C0.66 1.32 1.32 2.64 2 4 C2.99 4 3.98 4 5 4 C3.125 8.75 3.125 8.75 2 11 C1.768 13.713 1.581 16.408 1.438 19.125 C1.394 19.879 1.351 20.633 1.307 21.41 C1.201 23.273 1.1 25.137 1 27 C0.67 27 0.34 27 0 27 C0.012 25.784 0.023 24.569 0.035 23.316 C0.045 21.732 0.054 20.147 0.062 18.562 C0.071 17.76 0.079 16.958 0.088 16.131 C0.097 14.087 0.052 12.043 0 10 C-0.33 9.67 -0.66 9.34 -1 9 C-1 9.99 -1 10.98 -1 12 C-1.66 12 -2.32 12 -3 12 C-3.348 7.123 -2.417 4.229 0 0 Z " fill="#7F7F7F" transform="translate(49,27)"/>
<path d="M0 0 C2 1.375 2 1.375 4 3 C4 3.66 4 4.32 4 5 C4.66 5 5.32 5 6 5 C8.488 9.789 8.264 14.308 8.188 19.562 C8.187 20.413 8.186 21.263 8.186 22.139 C8.159 25.946 8.044 29.318 7 33 C6.34 33 5.68 33 5 33 C5.16 31.333 5.16 31.333 5.324 29.633 C6.628 16.075 6.628 16.075 1.391 3.863 C0 2 0 2 0 0 Z " fill="#FFFFFF" transform="translate(202,88)"/>
<path d="M0 0 C0 0.99 0 1.98 0 3 C-0.66 3 -1.32 3 -2 3 C-2 2.34 -2 1.68 -2 1 C-3.65 1 -5.3 1 -7 1 C-7 1.99 -7 2.98 -7 4 C-6.051 4.124 -5.102 4.248 -4.125 4.375 C-1 5 -1 5 1 7 C0.464 10.536 0.464 10.536 -1 12 C-3.333 12.041 -5.667 12.042 -8 12 C-8.33 10.68 -8.66 9.36 -9 8 C-5.535 9.485 -5.535 9.485 -2 11 C-2 10.01 -2 9.02 -2 8 C-4.31 7.01 -6.62 6.02 -9 5 C-9 3.35 -9 1.7 -9 0 C-5.931 -1.534 -3.299 -0.55 0 0 Z " fill="#000000" transform="translate(247,294)"/>
<path d="M0 0 C0 3.742 -0.513 7.29 -1 11 C-1.33 11 -1.66 11 -2 11 C-2.33 9.02 -2.66 7.04 -3 5 C-3.99 7.97 -4.98 10.94 -6 14 C-6.33 14 -6.66 14 -7 14 C-7 12.02 -7 10.04 -7 8 C-8.472 9.472 -8.584 11.054 -9.062 13.062 C-9.327 14.163 -9.327 14.163 -9.598 15.285 C-9.797 16.134 -9.797 16.134 -10 17 C-10.33 17 -10.66 17 -11 17 C-11.33 15.02 -11.66 13.04 -12 11 C-12.99 12.485 -12.99 12.485 -14 14 C-14.66 13.67 -15.32 13.34 -16 13 C-14.809 9.428 -13.915 9.022 -10.812 7.062 C-10.006 6.546 -9.199 6.029 -8.367 5.496 C-7.586 5.002 -6.805 4.509 -6 4 C-4.81 3.212 -3.622 2.421 -2.438 1.625 C-1.633 1.089 -0.829 0.553 0 0 Z " fill="#040404" transform="translate(254,49)"/>
<path d="M0 0 C4.775 3.922 7.552 8.871 8.22 15.029 C8.359 17.314 8.419 19.585 8.438 21.875 C8.452 23 8.452 23 8.468 24.147 C8.383 29.496 8.383 29.496 6.473 32.008 C5.987 32.335 5.501 32.663 5 33 C5.164 32.438 5.327 31.876 5.496 31.297 C6.029 28.869 6.099 26.731 6.062 24.25 C6.053 23.451 6.044 22.652 6.035 21.828 C6.024 21.225 6.012 20.622 6 20 C5.67 20 5.34 20 5 20 C4.963 19.397 4.925 18.793 4.887 18.172 C4.437 12.006 4.437 12.006 1 7 C1.66 7 2.32 7 3 7 C2.505 6.216 2.01 5.433 1.5 4.625 C0 2 0 2 0 0 Z " fill="#000000" transform="translate(122,107)"/>
<path d="M0 0 C0 2.78 -0.213 5.425 -0.5 8.188 C-0.593 9.089 -0.686 9.99 -0.781 10.918 C-0.89 11.949 -0.89 11.949 -1 13 C-1.66 13 -2.32 13 -3 13 C-3 10.36 -3 7.72 -3 5 C-5.398 7.398 -5.343 8.333 -5.625 11.625 C-5.7 12.442 -5.775 13.26 -5.852 14.102 C-5.901 14.728 -5.95 15.355 -6 16 C-6.33 16 -6.66 16 -7 16 C-7.33 13.69 -7.66 11.38 -8 9 C-8.66 12.3 -9.32 15.6 -10 19 C-10.33 19 -10.66 19 -11 19 C-11.33 15.7 -11.66 12.4 -12 9 C-11.01 8.67 -10.02 8.34 -9 8 C-8.67 7.01 -8.34 6.02 -8 5 C-6.152 3.613 -6.152 3.613 -3.938 2.312 C-3.204 1.876 -2.471 1.439 -1.715 0.988 C-1.149 0.662 -0.583 0.336 0 0 Z " fill="#070707" transform="translate(305,12)"/>
<path d="M0 0 C1.263 2.527 0.854 3.417 0.223 6.133 C0.039 6.938 -0.145 7.744 -0.334 8.574 C-0.533 9.416 -0.732 10.258 -0.938 11.125 C-1.133 11.974 -1.328 12.824 -1.529 13.699 C-2.013 15.801 -2.506 17.901 -3 20 C-4.32 20.33 -5.64 20.66 -7 21 C-6.416 17.871 -5.804 14.748 -5.188 11.625 C-5.022 10.736 -4.856 9.846 -4.686 8.93 C-4.515 8.079 -4.344 7.228 -4.168 6.352 C-4.016 5.566 -3.864 4.781 -3.708 3.971 C-3 2 -3 2 0 0 Z " fill="#FFFFFF" transform="translate(142,41)"/>
<path d="M0 0 C0.871 0.29 1.743 0.58 2.641 0.879 C3.46 1.166 4.28 1.454 5.125 1.75 C6.321 2.142 7.517 2.534 8.75 2.938 C9.534 3.206 10.317 3.474 11.125 3.75 C10.135 5.235 10.135 5.235 9.125 6.75 C2.416 5.705 -2.931 4.052 -8.875 0.75 C-5.453 -1.426 -3.787 -1.298 0 0 Z " fill="#3F3F3F" transform="translate(133.875,9.25)"/>
<path d="M0 0 C0.66 0 1.32 0 2 0 C0.749 3.754 -0.565 4.241 -4 6 C-4.66 6 -5.32 6 -6 6 C-6 6.66 -6 7.32 -6 8 C-12.75 12 -12.75 12 -15 12 C-15 12.66 -15 13.32 -15 14 C-17.31 15.32 -19.62 16.64 -22 18 C-21.67 16.68 -21.34 15.36 -21 14 C-19.68 13.67 -18.36 13.34 -17 13 C-17 12.34 -17 11.68 -17 11 C-15.484 10.165 -15.484 10.165 -13.938 9.312 C-11.231 7.781 -8.739 6.113 -6.25 4.25 C-3 2 -3 2 0 2 C0 1.34 0 0.68 0 0 Z " fill="#FFFFFF" transform="translate(316,265)"/>
<path d="M0 0 C0 5.28 0 10.56 0 16 C-0.99 16 -1.98 16 -3 16 C-3 12.37 -3 8.74 -3 5 C-3.99 5 -4.98 5 -6 5 C-6 4.34 -6 3.68 -6 3 C-2.538 0 -2.538 0 0 0 Z " fill="#000000" transform="translate(237,17)"/>
<path d="M0 0 C2.31 0 4.62 0 7 0 C6.67 0.66 6.34 1.32 6 2 C4.35 2 2.7 2 1 2 C1 2.66 1 3.32 1 4 C1.784 4.082 2.567 4.165 3.375 4.25 C6 5 6 5 7.312 7.062 C7.653 8.022 7.653 8.022 8 9 C7.01 10.485 7.01 10.485 6 12 C2.875 12.188 2.875 12.188 0 12 C-0.33 11.01 -0.66 10.02 -1 9 C-0.34 9 0.32 9 1 9 C1 9.66 1 10.32 1 11 C1.99 10.67 2.98 10.34 4 10 C4 8.35 4 6.7 4 5 C2.35 5.66 0.7 6.32 -1 7 C-0.67 4.69 -0.34 2.38 0 0 Z " fill="#000000" transform="translate(294,294)"/>
<path d="M0 0 C2.31 0 4.62 0 7 0 C6.67 0.66 6.34 1.32 6 2 C4.35 2 2.7 2 1 2 C1 2.66 1 3.32 1 4 C2.176 3.907 2.176 3.907 3.375 3.812 C4.674 3.905 4.674 3.905 6 4 C8 7 8 7 7.688 9.125 C7 11 7 11 6 12 C4 12.041 2 12.043 0 12 C-0.33 11.01 -0.66 10.02 -1 9 C0.98 9.66 2.96 10.32 5 11 C4.67 9.35 4.34 7.7 4 6 C2.68 6.33 1.36 6.66 0 7 C0 4.69 0 2.38 0 0 Z " fill="#000000" transform="translate(284,294)"/>
<path d="M0 0 C0 0.66 0 1.32 0 2 C0.66 2 1.32 2 2 2 C2 2.99 2 3.98 2 5 C-0.31 5.33 -2.62 5.66 -5 6 C-5.289 5.381 -5.577 4.762 -5.875 4.125 C-6.937 1.867 -6.937 1.867 -9 0 C-5.931 -1.534 -3.299 -0.55 0 0 Z " fill="#D0D0D0" transform="translate(257,276)"/>
<path d="M0 0 C0.66 0.33 1.32 0.66 2 1 C1.01 4.3 0.02 7.6 -1 11 C-1.33 11 -1.66 11 -2 11 C-2 8.69 -2 6.38 -2 4 C-3.422 7.317 -4.39 10.442 -5 14 C-5.33 14 -5.66 14 -6 14 C-6 11.69 -6 9.38 -6 7 C-6.99 8.32 -7.98 9.64 -9 11 C-9 10.34 -9 9.68 -9 9 C-9.66 8.67 -10.32 8.34 -11 8 C-7.25 5 -7.25 5 -5 5 C-5 4.34 -5 3.68 -5 3 C-2.625 1.312 -2.625 1.312 0 0 Z " fill="#050505" transform="translate(266,40)"/>
<path d="M0 0 C6.27 0 12.54 0 19 0 C15.354 3.646 14.061 3.679 9 4 C5.648 3.79 2.329 3.435 -1 3 C-0.67 2.01 -0.34 1.02 0 0 Z " fill="#000000" transform="translate(207,301)"/>
<path d="M0 0 C1.191 0.422 1.191 0.422 2.406 0.852 C3.2 1.127 3.994 1.403 4.812 1.688 C6.906 2.477 6.906 2.477 8.906 3.477 C8.576 4.467 8.246 5.457 7.906 6.477 C3.521 6.477 1.633 5.664 -2.094 3.477 C-2.754 2.487 -3.414 1.497 -4.094 0.477 C-2.094 -0.523 -2.094 -0.523 0 0 Z " fill="#4B4B4B" transform="translate(189.09375,78.5234375)"/>
<path d="M0 0 C3.785 0.257 5.018 0.687 7.688 3.25 C6.037 3.91 4.387 4.57 2.688 5.25 C2.357 4.92 2.028 4.59 1.688 4.25 C-0.32 4.537 -2.321 4.869 -4.312 5.25 C-4.312 0.325 -4.312 0.325 0 0 Z " fill="#111111" transform="translate(230.3125,59.75)"/>
<path d="M0 0 C3.875 -0.088 7.749 -0.141 11.625 -0.188 C13.267 -0.225 13.267 -0.225 14.941 -0.264 C20.797 -0.317 25.063 -0.3 30 3 C28.68 3.99 27.36 4.98 26 6 C26 5.34 26 4.68 26 4 C22.535 2.453 19.705 1.725 15.918 1.586 C14.987 1.547 14.055 1.509 13.096 1.469 C12.136 1.438 11.176 1.407 10.188 1.375 C9.208 1.336 8.229 1.298 7.221 1.258 C4.814 1.164 2.407 1.078 0 1 C0 0.67 0 0.34 0 0 Z " fill="#0B0B0B" transform="translate(29,226)"/>
<path d="M0 0 C0.436 0.41 0.871 0.82 1.32 1.242 C5.044 4.611 8.008 6.782 13 8 C12.67 8.66 12.34 9.32 12 10 C5.707 10.484 5.707 10.484 2.625 8.375 C0.7 5.562 0.306 3.367 0 0 Z " fill="#FFFFFF" transform="translate(241,75)"/>
<path d="M0 0 C4.345 0.474 8.644 1.049 12.938 1.875 C13.689 2.017 14.441 2.159 15.215 2.305 C16.098 2.649 16.098 2.649 17 3 C17.33 3.99 17.66 4.98 18 6 C11.949 4.834 5.965 3.547 0 2 C0 1.34 0 0.68 0 0 Z " fill="#FFFFFF" transform="translate(136,63)"/>
<path d="M0 0 C0.33 0 0.66 0 1 0 C1.249 7.29 0.723 13.907 -1 21 C-1.33 21 -1.66 21 -2 21 C-2.054 18.437 -2.094 15.876 -2.125 13.312 C-2.15 12.231 -2.15 12.231 -2.176 11.127 C-2.214 6.951 -1.879 3.751 0 0 Z " fill="#FFFFFF" transform="translate(55,37)"/>
<path d="M0 0 C1.98 0.495 1.98 0.495 4 1 C4 3.64 4 6.28 4 9 C2.68 9.33 1.36 9.66 0 10 C-1.125 3.375 -1.125 3.375 0 0 Z " fill="#FFFFFF" transform="translate(276,295)"/>
<path d="M0 0 C0.99 0 1.98 0 3 0 C4.617 3.234 3.009 6.306 2.062 9.625 C1.867 10.331 1.672 11.038 1.471 11.766 C0.987 13.512 0.494 15.256 0 17 C-0.66 17 -1.32 17 -2 17 C-1.67 14.36 -1.34 11.72 -1 9 C-1.66 10.32 -2.32 11.64 -3 13 C-2.451 8.429 -1.583 4.326 0 0 Z " fill="#0C0C0C" transform="translate(222,103)"/>
<path d="M0 0 C1.145 0.248 1.145 0.248 2.312 0.5 C5.036 1.091 5.036 1.091 8 1 C7.01 2.485 7.01 2.485 6 4 C5.34 4 4.68 4 4 4 C4 4.66 4 5.32 4 6 C3.34 6 2.68 6 2 6 C2.33 8.31 2.66 10.62 3 13 C2.34 13 1.68 13 1 13 C1 12.34 1 11.68 1 11 C0.01 10.67 -0.98 10.34 -2 10 C-1.34 10 -0.68 10 0 10 C-0.186 9.381 -0.371 8.762 -0.562 8.125 C-1 6 -1 6 0 4 C0 2.68 0 1.36 0 0 Z " fill="#000000" transform="translate(256,265)"/>
<path d="M0 0 C0.33 0.66 0.66 1.32 1 2 C0.67 2.66 0.34 3.32 0 4 C-0.225 5.537 -0.408 7.08 -0.562 8.625 C-0.646 9.442 -0.73 10.26 -0.816 11.102 C-0.877 11.728 -0.938 12.355 -1 13 C-1.33 13 -1.66 13 -2 13 C-2.33 10.36 -2.66 7.72 -3 5 C-3.99 6.32 -4.98 7.64 -6 9 C-6.33 8.67 -6.66 8.34 -7 8 C-7.66 9.32 -8.32 10.64 -9 12 C-9.66 10.68 -10.32 9.36 -11 8 C-7.25 5 -7.25 5 -5 5 C-5 4.34 -5 3.68 -5 3 C-4.01 3 -3.02 3 -2 3 C-2 2.34 -2 1.68 -2 1 C-1.34 0.67 -0.68 0.34 0 0 Z " fill="#060606" transform="translate(317,3)"/>
<path d="M0 0 C0.66 0 1.32 0 2 0 C3.37 2.739 3.126 4.971 3 8 C2.67 8.66 2.34 9.32 2 10 C0.68 9.34 -0.64 8.68 -2 8 C-2.125 5.125 -2.125 5.125 -2 2 C-1.34 1.34 -0.68 0.68 0 0 Z " fill="#FFFFFF" transform="translate(306,295)"/>
<path d="M0 0 C0.99 0.33 1.98 0.66 3 1 C3 3.64 3 6.28 3 9 C1.68 9 0.36 9 -1 9 C-1.625 6.188 -1.625 6.188 -2 3 C-1.34 2.01 -0.68 1.02 0 0 Z " fill="#FFFFFF" transform="translate(267,295)"/>
<path d="M0 0 C-0.66 3.96 -1.32 7.92 -2 12 C-2.33 12 -2.66 12 -3 12 C-3.33 9.36 -3.66 6.72 -4 4 C-5.611 7.651 -6.449 11.051 -7 15 C-7.33 15 -7.66 15 -8 15 C-8.347 11.273 -8.534 7.714 -8 4 C-3.721 0 -3.721 0 0 0 Z " fill="#060606" transform="translate(276,34)"/>
<path d="M0 0 C0.99 0.66 1.98 1.32 3 2 C3.375 5 3.375 5 3 8 C2.01 8.66 1.02 9.32 0 10 C-2 8 -2 8 -2.25 5 C-2 2 -2 2 0 0 Z " fill="#FFFFFF" transform="translate(258,295)"/>
<path d="M0 0 C0.66 0 1.32 0 2 0 C0.841 3.477 0.317 3.716 -2.812 5.312 C-3.843 5.864 -3.843 5.864 -4.895 6.426 C-7 7 -7 7 -9.262 6.105 C-9.835 5.741 -10.409 5.376 -11 5 C-8.944 2.218 -7.902 1.983 -4.375 1.375 C-3.261 1.251 -2.147 1.127 -1 1 C-0.67 0.67 -0.34 0.34 0 0 Z " fill="#FFFFFF" transform="translate(260,279)"/>
<path d="M0 0 C0.33 0.66 0.66 1.32 1 2 C0.34 2 -0.32 2 -1 2 C-1 2.66 -1 3.32 -1 4 C-1.69 4.659 -1.69 4.659 -2.395 5.332 C-4.333 7.346 -4.878 9.028 -5.688 11.688 C-5.939 12.496 -6.19 13.304 -6.449 14.137 C-6.722 15.059 -6.722 15.059 -7 16 C-7.66 16 -8.32 16 -9 16 C-9.179 12.053 -9.094 9.402 -7 6 C-6.34 6 -5.68 6 -5 6 C-4.67 5.01 -4.34 4.02 -4 3 C-3.34 3 -2.68 3 -2 3 C-2 2.34 -2 1.68 -2 1 C-1.34 0.67 -0.68 0.34 0 0 Z " fill="#212121" transform="translate(152,237)"/>
<path d="M0 0 C-0.557 -0.023 -1.114 -0.046 -1.688 -0.07 C-5.805 -0.168 -9.449 -0.028 -13.438 1.062 C-17 2 -17 2 -19 1 C-19 0.34 -19 -0.32 -19 -1 C-12.406 -3.385 -6.045 -4.03 0 0 Z " fill="#000000" transform="translate(190,223)"/>
<path d="M0 0 C5.469 1.016 10.764 2.071 16 4 C15.67 4.99 15.34 5.98 15 7 C10.545 6.01 10.545 6.01 6 5 C6.33 4.34 6.66 3.68 7 3 C4.69 3 2.38 3 0 3 C0 2.01 0 1.02 0 0 Z " fill="#000000" transform="translate(171,74)"/>
<path d="M0 0 C4.571 0.549 8.674 1.417 13 3 C12.67 3.66 12.34 4.32 12 5 C7.515 4.344 3.331 3.299 -1 2 C-0.67 1.34 -0.34 0.68 0 0 Z " fill="#242424" transform="translate(158,71)"/>
<path d="M0 0 C5.445 1.485 5.445 1.485 11 3 C10.01 4.485 10.01 4.485 9 6 C3.06 4.515 3.06 4.515 -3 3 C-2.67 2.34 -2.34 1.68 -2 1 C-1.34 1.33 -0.68 1.66 0 2 C0 1.34 0 0.68 0 0 Z " fill="#242424" transform="translate(164,19)"/>
<path d="M0 0 C1.65 1.32 3.3 2.64 5 4 C4.34 5.98 3.68 7.96 3 10 C1.68 9.01 0.36 8.02 -1 7 C-0.67 4.69 -0.34 2.38 0 0 Z " fill="#FFFFFF" transform="translate(267,259)"/>
<path d="M0 0 C1.926 0.051 1.926 0.051 4.312 0.312 C5.482 0.43 5.482 0.43 6.676 0.551 C9.082 1.016 10.871 1.807 13 3 C12.34 3.66 11.68 4.32 11 5 C8.688 4.828 8.688 4.828 6 4.25 C4.67 3.979 4.67 3.979 3.312 3.703 C1 3 1 3 -1 1 C-0.67 0.67 -0.34 0.34 0 0 Z " fill="#0F0F0F" transform="translate(116,6)"/>
<path d="M0 0 C3 0 3 0 6 2 C6 2.66 6 3.32 6 4 C7.65 4 9.3 4 11 4 C11 4.66 11 5.32 11 6 C8.312 6.812 8.312 6.812 5 7 C2.125 4.688 2.125 4.688 0 2 C0 1.34 0 0.68 0 0 Z " fill="#272727" transform="translate(147,52)"/>
<path d="M0 0 C4.01 3.676 6.453 7.19 9 12 C8.34 12 7.68 12 7 12 C6.67 12.66 6.34 13.32 6 14 C3 9.375 3 9.375 3 6 C2.02 4.652 1.02 3.318 0 2 C0 1.34 0 0.68 0 0 Z " fill="#1F1F1F" transform="translate(201,34)"/>
<path d="M0 0 C0.33 0 0.66 0 1 0 C0.472 4.667 -0.169 9.303 -0.938 13.938 C-1.168 15.343 -1.168 15.343 -1.402 16.777 C-1.6 17.511 -1.797 18.244 -2 19 C-2.66 19.33 -3.32 19.66 -4 20 C-3.69 17.583 -3.377 15.166 -3.062 12.75 C-2.975 12.068 -2.888 11.386 -2.799 10.684 C-1.61 1.61 -1.61 1.61 0 0 Z " fill="#080808" transform="translate(145,29)"/>
<path d="M0 0 C1.718 3.094 2.576 5.968 3.25 9.438 C3.441 10.364 3.632 11.291 3.828 12.246 C4.024 15.378 3.36 17.205 2 20 C1.34 19.67 0.68 19.34 0 19 C0.165 18.484 0.33 17.969 0.5 17.438 C1.696 11.609 0.817 5.819 0 0 Z " fill="#000000" transform="translate(29,31)"/>
<path d="M0 0 C1.812 0.375 1.812 0.375 4 1 C4.743 1.186 5.485 1.371 6.25 1.562 C6.828 1.707 7.405 1.851 8 2 C8 2.99 8 3.98 8 5 C5.36 4.67 2.72 4.34 0 4 C-0.33 3.01 -0.66 2.02 -1 1 C-0.67 0.67 -0.34 0.34 0 0 Z " fill="#9E9E9E" transform="translate(92,91)"/>
<path d="M0 0 C0 3.96 0 7.92 0 12 C-0.66 12 -1.32 12 -2 12 C-2 9.03 -2 6.06 -2 3 C-2.99 2.67 -3.98 2.34 -5 2 C-2 0 -2 0 0 0 Z " fill="#000000" transform="translate(318,294)"/>
<path d="M0 0 C1 2 1 2 0.938 4.375 C1.004 7.169 1.593 8.625 3 11 C0.69 9.35 -1.62 7.7 -4 6 C-1.125 1.125 -1.125 1.125 0 0 Z " fill="#252525" transform="translate(266,259)"/>
<path d="M0 0 C0.33 0.66 0.66 1.32 1 2 C-0.312 4.625 -0.312 4.625 -2 7 C-2.66 7 -3.32 7 -4 7 C-4.66 5.02 -5.32 3.04 -6 1 C-4.02 0.67 -2.04 0.34 0 0 Z " fill="#FFFFFF" transform="translate(130,43)"/>
<path d="M0 0 C2.97 1.98 2.97 1.98 6 4 C4.68 5.32 3.36 6.64 2 8 C1.34 7.67 0.68 7.34 0 7 C0 4.69 0 2.38 0 0 Z " fill="#FFFFFF" transform="translate(76,36)"/>
<path d="M0 0 C4 1.333 4.838 3.496 7 7 C3.758 6.65 2.385 6.438 0.188 3.938 C-0.4 2.978 -0.4 2.978 -1 2 C-0.67 1.34 -0.34 0.68 0 0 Z " fill="#0A0A0A" transform="translate(90,140)"/>
<path d="M0 0 C3.672 3.08 4.568 5.248 5 10 C4.01 10.495 4.01 10.495 3 11 C0 4.5 0 4.5 0 0 Z " fill="#6A6A6A" transform="translate(202,90)"/>
<path d="M0 0 C1.32 0.99 2.64 1.98 4 3 C4.66 2.67 5.32 2.34 6 2 C4.926 4.915 4.222 6.778 2 9 C1.34 8.67 0.68 8.34 0 8 C0 5.36 0 2.72 0 0 Z " fill="#0A0A0A" transform="translate(164,40)"/>
<path d="M0 0 C0.33 0.66 0.66 1.32 1 2 C-0.98 4.97 -0.98 4.97 -3 8 C-3.66 7.01 -4.32 6.02 -5 5 C-3.35 3.35 -1.7 1.7 0 0 Z M-7 7 C-6.01 7.33 -5.02 7.66 -4 8 C-4 8.66 -4 9.32 -4 10 C-6.97 9.505 -6.97 9.505 -10 9 C-9.01 8.34 -8.02 7.68 -7 7 Z " fill="#424242" transform="translate(158,61)"/>
<path d="M0 0 C3.63 0.66 7.26 1.32 11 2 C6.82 4.786 4.853 3.796 0 3 C0 2.01 0 1.02 0 0 Z " fill="#0B0B0B" transform="translate(106,57)"/>
<path d="M0 0 C1.884 3.265 2.493 6.281 3 10 C2.01 9.67 1.02 9.34 0 9 C-1.125 2.25 -1.125 2.25 0 0 Z " fill="#515151" transform="translate(88,132)"/>
<path d="M0 0 C3.081 2.773 4.688 5.063 6 9 C4.68 9 3.36 9 2 9 C1.67 8.34 1.34 7.68 1 7 C1.66 7 2.32 7 3 7 C2.505 6.216 2.01 5.433 1.5 4.625 C0 2 0 2 0 0 Z " fill="#222222" transform="translate(122,107)"/>
<path d="M0 0 C0.33 0.66 0.66 1.32 1 2 C1.66 2.33 2.32 2.66 3 3 C2.01 4.485 2.01 4.485 1 6 C0.34 6 -0.32 6 -1 6 C-1 6.99 -1 7.98 -1 9 C-1.66 9 -2.32 9 -3 9 C-2.443 5.656 -1.648 2.967 0 0 Z " fill="#FFFFFF" transform="translate(49,30)"/>
<path d="M0 0 C0.66 0.33 1.32 0.66 2 1 C1.288 1.99 1.288 1.99 0.562 3 C-1.413 6.793 -1.64 9.755 -2 14 C-2.33 14 -2.66 14 -3 14 C-3.33 10.7 -3.66 7.4 -4 4 C-3.01 3.67 -2.02 3.34 -1 3 C-0.67 2.01 -0.34 1.02 0 0 Z " fill="#000000" transform="translate(297,17)"/>
<path d="M0 0 C0.33 0.99 0.66 1.98 1 3 C-0.32 4.32 -1.64 5.64 -3 7 C-1.125 2.25 -1.125 2.25 0 0 Z M-7 5 C-5.68 5.66 -4.36 6.32 -3 7 C-3.66 7.66 -4.32 8.32 -5 9 C-6.32 8.34 -7.64 7.68 -9 7 C-8.34 7 -7.68 7 -7 7 C-7 6.34 -7 5.68 -7 5 Z " fill="#0C0C0C" transform="translate(161,64)"/>
<path d="M0 0 C0.33 0.66 0.66 1.32 1 2 C-0.65 2.66 -2.3 3.32 -4 4 C-4 3.34 -4 2.68 -4 2 C-5.65 2.33 -7.3 2.66 -9 3 C-9.33 2.34 -9.66 1.68 -10 1 C-8.711 0.637 -7.418 0.285 -6.125 -0.062 C-5.406 -0.26 -4.686 -0.457 -3.945 -0.66 C-2 -1 -2 -1 0 0 Z " fill="#CECECE" transform="translate(234,64)"/>
<path d="M0 0 C1.5 1.312 1.5 1.312 3 3 C3 3.99 3 4.98 3 6 C1.02 6 -0.96 6 -3 6 C-3 5.34 -3 4.68 -3 4 C-2.34 4 -1.68 4 -1 4 C-0.67 2.68 -0.34 1.36 0 0 Z " fill="#FFFFFF" transform="translate(128,56)"/>
<path d="M0 0 C0.66 0 1.32 0 2 0 C2.33 1.65 2.66 3.3 3 5 C1.68 5 0.36 5 -1 5 C-1 1 -1 1 0 0 Z " fill="#FFFFFF" transform="translate(150,42)"/>
<path d="M0 0 C0.103 0.639 0.206 1.279 0.312 1.938 C0.539 2.618 0.766 3.299 1 4 C1.99 4.33 2.98 4.66 4 5 C3.01 6.485 3.01 6.485 2 8 C1.01 8 0.02 8 -1 8 C-0.67 5.36 -0.34 2.72 0 0 Z " fill="#333333" transform="translate(57,60)"/>
<path d="M0 0 C0.66 0.33 1.32 0.66 2 1 C1.67 1.66 1.34 2.32 1 3 C1.99 3.33 2.98 3.66 4 4 C3.01 4.495 3.01 4.495 2 5 C1.315 6.888 1.315 6.888 0.875 9.062 C0.707 9.796 0.54 10.529 0.367 11.285 C0.246 11.851 0.125 12.417 0 13 C-1.491 8.527 -1.491 4.473 0 0 Z " fill="#000000" transform="translate(138,38)"/>
<path d="M0 0 C2.475 0.495 2.475 0.495 5 1 C5 1.66 5 2.32 5 3 C5.66 3.33 6.32 3.66 7 4 C6.34 4 5.68 4 5 4 C4.67 4.66 4.34 5.32 4 6 C2.624 4.71 1.292 3.373 0 2 C0 1.34 0 0.68 0 0 Z " fill="#262626" transform="translate(192,28)"/>
<path d="M0 0 C-2.278 2.278 -3.938 3.052 -7 4 C-9.312 3.625 -9.312 3.625 -11 3 C-10.01 3 -9.02 3 -8 3 C-8 2.34 -8 1.68 -8 1 C-5.291 -0.354 -2.991 -0.065 0 0 Z " fill="#FFFFFF" transform="translate(289,257)"/>
<path d="M0 0 C1.65 0 3.3 0 5 0 C3.02 0.99 3.02 0.99 1 2 C1 2.66 1 3.32 1 4 C2.32 4.33 3.64 4.66 5 5 C3.35 5.33 1.7 5.66 0 6 C-1.245 3.509 -0.777 2.589 0 0 Z " fill="#FFFFFF" transform="translate(214,80)"/>
<path d="M0 0 C2.31 0.33 4.62 0.66 7 1 C6.67 1.99 6.34 2.98 6 4 C3.03 3.505 3.03 3.505 0 3 C0 2.01 0 1.02 0 0 Z " fill="#282828" transform="translate(136,65)"/>
<path d="M0 0 C0.66 1.32 1.32 2.64 2 4 C0.68 5.65 -0.64 7.3 -2 9 C-1.67 7.35 -1.34 5.7 -1 4 C-1.66 3.67 -2.32 3.34 -3 3 C-2.01 2.01 -1.02 1.02 0 0 Z " fill="#0E0E0E" transform="translate(161,52)"/>
<path d="M0 0 C1.32 0.66 2.64 1.32 4 2 C3.67 2.99 3.34 3.98 3 5 C1.68 5 0.36 5 -1 5 C-1.66 4.34 -2.32 3.68 -3 3 C-2.01 2.67 -1.02 2.34 0 2 C0 1.34 0 0.68 0 0 Z " fill="#2D2D2D" transform="translate(194,80)"/>
<path d="M0 0 C0.99 0 1.98 0 3 0 C3.33 1.65 3.66 3.3 4 5 C3.01 5 2.02 5 1 5 C0.67 3.35 0.34 1.7 0 0 Z " fill="#FFFFFF" transform="translate(209,79)"/>
<path d="M0 0 C0 0.99 0 1.98 0 3 C-2 4.688 -2 4.688 -4 6 C-4 5.34 -4 4.68 -4 4 C-4.66 3.67 -5.32 3.34 -6 3 C-2.25 0 -2.25 0 0 0 Z " fill="#FFFFFF" transform="translate(217,74)"/>
<path d="M0 0 C0.33 0.66 0.66 1.32 1 2 C0.062 4.625 0.062 4.625 -1 7 C-1.99 7 -2.98 7 -4 7 C-2.926 4.085 -2.222 2.222 0 0 Z " fill="#FFFFFF" transform="translate(143,34)"/>
</svg>
