<?xml version="1.0" encoding="UTF-8"?>
<!-- Generator: visioncortex VTracer 0.6.4 -->
<svg version="1.1" xmlns="http://www.w3.org/2000/svg" width="325" height="311">
<path d="M0 0 C107.25 0 214.5 0 325 0 C325 102.63 325 205.26 325 311 C217.75 311 110.5 311 0 311 C0 208.37 0 105.74 0 0 Z " fill="#F5F5F5" transform="translate(0,0)"/>
<path d="M0 0 C0.99 0.495 0.99 0.495 2 1 C2.379 2.82 2.379 2.82 2.562 5.125 C2.675 6.345 2.675 6.345 2.789 7.59 C2.893 8.783 2.893 8.783 3 10 C3.545 14.591 4.41 18.654 6 23 C6.66 23 7.32 23 8 23 C8 23.66 8 24.32 8 25 C9.176 25.464 9.176 25.464 10.375 25.938 C13 27 13 27 15 28 C15 28.66 15 29.32 15 30 C15.577 30.144 16.155 30.289 16.75 30.438 C19.875 31.219 19.875 31.219 23 32 C23.33 31.01 23.66 30.02 24 29 C24.99 28.505 24.99 28.505 26 28 C25.01 26.02 25.01 26.02 24 24 C26.31 24.66 28.62 25.32 31 26 C31 25.01 31 24.02 31 23 C32.898 21.176 32.898 21.176 35.375 19.312 C36.593 18.379 36.593 18.379 37.836 17.426 C40 16 40 16 42 16 C42 15.34 42 14.68 42 14 C43.207 13.598 43.207 13.598 44.438 13.188 C45.283 12.796 46.129 12.404 47 12 C47.33 11.01 47.66 10.02 48 9 C48.99 9 49.98 9 51 9 C51 8.34 51 7.68 51 7 C53.884 7.345 54.821 7.783 56.703 10.066 C57.214 10.89 57.724 11.714 58.25 12.562 C58.771 13.389 59.292 14.215 59.828 15.066 C60.215 15.704 60.602 16.343 61 17 C60.67 17.66 60.34 18.32 60 19 C58.02 16.36 56.04 13.72 54 11 C51.637 17.597 50.086 24.043 48.875 30.938 C48.542 32.801 48.206 34.665 47.867 36.527 C47.724 37.339 47.581 38.151 47.433 38.988 C47 41 47 41 46 43 C56.642 44.608 67.3 45.86 78 47 C78.33 46.34 78.66 45.68 79 45 C79 45.66 79 46.32 79 47 C81.564 46.379 84.126 45.754 86.688 45.125 C87.409 44.951 88.13 44.777 88.873 44.598 C96.056 43.247 96.056 43.247 101.312 38.875 C101.653 37.947 101.653 37.947 102 37 C102.33 37.99 102.66 38.98 103 40 C104.114 40.186 104.114 40.186 105.25 40.375 C108 41 108 41 109.844 42 C112.375 43.174 114.476 43.406 117.25 43.625 C118.142 43.7 119.034 43.775 119.953 43.852 C120.629 43.901 121.304 43.95 122 44 C122 44.33 122 44.66 122 45 C117.38 45.33 112.76 45.66 108 46 C110.573 50.289 111.395 51.611 115.188 54.188 C117.355 55.668 117.355 55.668 119 57 C119 57.66 119 58.32 119 59 C119.66 59 120.32 59 121 59 C121 59.66 121 60.32 121 61 C121.99 61 122.98 61 124 61 C125.689 62.644 127.353 64.314 129 66 C129.887 66.516 130.774 67.031 131.688 67.562 C134.226 69.14 134.956 70.249 136 73 C135.34 73 134.68 73 134 73 C133.847 73.965 133.847 73.965 133.691 74.949 C132.767 79.03 131.358 82.881 129.938 86.812 C129.656 87.601 129.374 88.389 129.084 89.201 C128.392 91.135 127.697 93.068 127 95 C127.715 95.122 128.431 95.245 129.168 95.371 C132.051 96.011 134.586 96.936 137.312 98.062 C138.196 98.425 139.079 98.787 139.988 99.16 C140.652 99.437 141.316 99.714 142 100 C142.186 98.824 142.186 98.824 142.375 97.625 C143 95 143 95 145 93 C144.325 97.819 142.42 101.919 140.438 106.312 C140.108 107.053 139.779 107.794 139.439 108.557 C138.631 110.373 137.816 112.187 137 114 C136.884 113.383 136.768 112.765 136.648 112.129 C135.693 108.99 133.59 107.912 131 106 C129.188 104.375 129.188 104.375 128 103 C128 102.34 128 101.68 128 101 C126.68 100.67 125.36 100.34 124 100 C123.879 100.545 123.758 101.091 123.633 101.652 C122.422 107.102 121.211 112.551 120 118 C119.01 118 118.02 118 117 118 C115.68 120.64 114.36 123.28 113 126 C112.34 126 111.68 126 111 126 C111 126.99 111 127.98 111 129 C110.34 129 109.68 129 109 129 C108.732 129.557 108.464 130.114 108.188 130.688 C105.689 135.552 103.108 139.313 99 143 C98.34 143 97.68 143 97 143 C97 143.66 97 144.32 97 145 C96.01 145 95.02 145 94 145 C94 145.66 94 146.32 94 147 C93.34 147 92.68 147 92 147 C91.67 147.99 91.34 148.98 91 150 C88.823 151.679 86.676 153.196 84.375 154.688 C83.706 155.126 83.038 155.564 82.349 156.016 C72.464 162.396 62.122 168.09 51 172 C49.849 172.41 48.698 172.82 47.512 173.242 C33.637 178.081 21.208 182.413 7 177 C7 176.34 7 175.68 7 175 C5.793 174.598 5.793 174.598 4.562 174.188 C3.717 173.796 2.871 173.404 2 173 C1.67 172.01 1.34 171.02 1 170 C-0.331 169.329 -1.665 168.663 -3 168 C-16.632 153.862 -28.247 133.71 -34 115 C-34.296 114.046 -34.593 113.092 -34.898 112.109 C-35.618 109.745 -36.32 107.376 -37 105 C-37.308 111.261 -36.586 116.27 -34.801 122.27 C-33.665 126.142 -32.841 130.054 -32 134 C-32.66 133.67 -33.32 133.34 -34 133 C-34.744 130.753 -35.397 128.476 -36 126.188 C-37.517 120.405 -37.517 120.405 -40 115 C-41.98 115.99 -41.98 115.99 -44 117 C-43.341 116.327 -42.683 115.654 -42.004 114.961 C-39.437 111.168 -39.683 109.164 -39.938 104.625 C-40.334 93.607 -38.626 82.871 -37 72 C-36.01 73.485 -36.01 73.485 -35 75 C-34.505 73.02 -34.505 73.02 -34 71 C-35.98 70.505 -35.98 70.505 -38 70 C-38.33 68.35 -38.66 66.7 -39 65 C-40.98 64.67 -42.96 64.34 -45 64 C-45.66 67.63 -46.32 71.26 -47 75 C-47.33 75 -47.66 75 -48 75 C-47.859 73.541 -47.712 72.083 -47.562 70.625 C-47.481 69.813 -47.4 69.001 -47.316 68.164 C-47 66 -47 66 -46 64 C-47.619 63.759 -49.238 63.522 -50.859 63.301 C-52.352 63.091 -53.842 62.857 -55.328 62.605 C-60.127 61.788 -60.127 61.788 -64.562 63.438 C-65.037 63.953 -65.511 64.469 -66 65 C-66.99 64.505 -66.99 64.505 -68 64 C-66.68 63.01 -65.36 62.02 -64 61 C-65.715 60.602 -65.715 60.602 -67.465 60.195 C-68.956 59.839 -70.447 59.482 -71.938 59.125 C-72.692 58.951 -73.447 58.777 -74.225 58.598 C-76.166 58.128 -78.085 57.57 -80 57 C-80.33 56.34 -80.66 55.68 -81 55 C-86.209 53.225 -91.52 52.285 -96.938 51.375 C-98.106 51.174 -98.106 51.174 -99.299 50.969 C-101.199 50.642 -103.099 50.321 -105 50 C-105 49.67 -105 49.34 -105 49 C-99.883 48.847 -95.175 49.371 -90.188 50.438 C-89.52 50.572 -88.853 50.707 -88.166 50.846 C-83.292 51.854 -83.292 51.854 -81 53 C-81.052 51.892 -81.052 51.892 -81.105 50.762 C-81.299 43.495 -80.779 36.795 -78 30 C-77.34 29.67 -76.68 29.34 -76 29 C-76.312 30.417 -76.624 31.833 -76.938 33.25 C-77.112 34.039 -77.286 34.828 -77.465 35.641 C-77.785 37.053 -78.14 38.459 -78.562 39.844 C-79.201 42.99 -79.092 46.045 -79.062 49.25 C-79.053 50.513 -79.044 51.777 -79.035 53.078 C-79.024 54.042 -79.012 55.007 -79 56 C-78.044 56.126 -77.087 56.253 -76.102 56.383 C-71.492 57.043 -66.939 57.953 -62.375 58.875 C-61.501 59.051 -60.626 59.226 -59.726 59.407 C-52.785 60.814 -45.89 62.36 -39 64 C-39 59.38 -39 54.76 -39 50 C-38.34 50.33 -37.68 50.66 -37 51 C-34.66 50.718 -32.325 50.387 -30 50 C-31.32 49.34 -32.64 48.68 -34 48 C-34.371 42.195 -33.577 37.269 -31 32 C-28.938 29.812 -28.938 29.812 -26 29 C-22.581 29.378 -19.318 30.105 -16 31 C-16 31.99 -16 32.98 -16 34 C-15.762 33.169 -15.762 33.169 -15.52 32.32 C-13.614 26.404 -13.614 26.404 -10.625 24.438 C-7.75 23.958 -5.828 24.42 -3 25 C-0.87 24.078 -0.87 24.078 1 23 C1.17 11.463 1.17 11.463 0 0 Z " fill="#F6F6F6" transform="translate(126,80)"/>
<path d="M0 0 C1.384 2.768 0.529 3.846 -0.438 6.75 C-2.414 13.514 -2.276 20.009 -2 27 C-1.044 27.126 -0.087 27.253 0.898 27.383 C5.508 28.043 10.061 28.953 14.625 29.875 C15.499 30.051 16.374 30.226 17.274 30.407 C24.215 31.814 31.11 33.36 38 35 C38 30.38 38 25.76 38 21 C39.485 21.495 39.485 21.495 41 22 C40.905 22.797 40.809 23.593 40.711 24.414 C39.637 32.464 39.637 32.464 42 40 C44.51 41.439 44.51 41.439 47 42 C45.515 42.495 45.515 42.495 44 43 C43.523 60.908 47.033 75.291 54.828 91.383 C56 94 56 94 56 96 C56.66 96 57.32 96 58 96 C58.326 96.675 58.652 97.351 58.988 98.047 C59.425 98.939 59.862 99.831 60.312 100.75 C60.742 101.632 61.171 102.513 61.613 103.422 C62.905 106.011 62.905 106.011 64.668 108.078 C66 110 66 110 66 114 C67.485 114.495 67.485 114.495 69 115 C69 115.66 69 116.32 69 117 C69.66 117 70.32 117 71 117 C72.293 118.617 73.51 120.297 74.688 122 C83.261 134.049 83.261 134.049 96 141 C108.406 141.648 121.589 136.616 133 132 C133.33 131.67 133.66 131.34 134 131 C135.666 130.959 137.334 130.957 139 131 C139 130.34 139 129.68 139 129 C139.739 128.648 140.477 128.296 141.238 127.934 C147.668 124.805 153.695 121.416 159.625 117.418 C161.816 116.11 163.509 115.444 166 115 C166 114.34 166 113.68 166 113 C168.561 110.704 169.48 110 173 110 C173.289 109.381 173.577 108.762 173.875 108.125 C175 106 175 106 177 104 C177.99 104 178.98 104 180 104 C180 103.01 180 102.02 180 101 C180.66 101 181.32 101 182 101 C182.248 100.257 182.495 99.515 182.75 98.75 C184.111 95.755 185.657 94.272 188 92 C188.536 91.093 189.072 90.185 189.625 89.25 C190.079 88.507 190.532 87.765 191 87 C191.66 87 192.32 87 193 87 C193.289 86.257 193.577 85.515 193.875 84.75 C194.823 82.433 195.848 80.221 197 78 C197.66 78.33 198.32 78.66 199 79 C198.34 82.3 197.68 85.6 197 89 C196.01 89 195.02 89 194 89 C192.68 91.64 191.36 94.28 190 97 C189.34 97 188.68 97 188 97 C188 97.99 188 98.98 188 100 C187.34 100 186.68 100 186 100 C185.732 100.557 185.464 101.114 185.188 101.688 C182.689 106.552 180.108 110.313 176 114 C175.34 114 174.68 114 174 114 C174 114.66 174 115.32 174 116 C173.01 116 172.02 116 171 116 C171 116.66 171 117.32 171 118 C170.34 118 169.68 118 169 118 C168.67 118.99 168.34 119.98 168 121 C165.823 122.679 163.676 124.196 161.375 125.688 C160.706 126.126 160.038 126.564 159.349 127.016 C149.464 133.396 139.122 139.09 128 143 C126.849 143.41 125.698 143.82 124.512 144.242 C110.637 149.081 98.208 153.413 84 148 C84 147.34 84 146.68 84 146 C82.793 145.598 82.793 145.598 81.562 145.188 C80.717 144.796 79.871 144.404 79 144 C78.67 143.01 78.34 142.02 78 141 C76.669 140.329 75.335 139.663 74 139 C60.368 124.862 48.753 104.71 43 86 C42.704 85.046 42.407 84.092 42.102 83.109 C41.382 80.745 40.68 78.376 40 76 C39.692 82.261 40.414 87.27 42.199 93.27 C43.335 97.142 44.159 101.054 45 105 C44.34 104.67 43.68 104.34 43 104 C42.256 101.753 41.603 99.476 41 97.188 C39.483 91.405 39.483 91.405 37 86 C35.02 86.99 35.02 86.99 33 88 C33.659 87.327 34.317 86.654 34.996 85.961 C37.563 82.168 37.317 80.164 37.062 75.625 C36.666 64.607 38.374 53.871 40 43 C40.66 43.99 41.32 44.98 42 46 C42.33 44.68 42.66 43.36 43 42 C41.02 41.505 41.02 41.505 39 41 C38.67 39.35 38.34 37.7 38 36 C36.02 35.67 34.04 35.34 32 35 C31.34 38.63 30.68 42.26 30 46 C29.67 46 29.34 46 29 46 C29.141 44.541 29.288 43.083 29.438 41.625 C29.519 40.813 29.6 40.001 29.684 39.164 C30 37 30 37 31 35 C29.381 34.759 27.762 34.522 26.141 34.301 C24.648 34.091 23.158 33.857 21.672 33.605 C16.873 32.788 16.873 32.788 12.438 34.438 C11.963 34.953 11.489 35.469 11 36 C10.01 35.505 10.01 35.505 9 35 C10.32 34.01 11.64 33.02 13 32 C11.857 31.734 10.713 31.469 9.535 31.195 C8.044 30.839 6.553 30.482 5.062 30.125 C4.308 29.951 3.553 29.777 2.775 29.598 C0.834 29.128 -1.085 28.57 -3 28 C-3.33 27.34 -3.66 26.68 -4 26 C-9.209 24.225 -14.52 23.285 -19.938 22.375 C-20.717 22.241 -21.496 22.107 -22.299 21.969 C-24.199 21.642 -26.099 21.321 -28 21 C-28 20.67 -28 20.34 -28 20 C-22.883 19.847 -18.175 20.371 -13.188 21.438 C-12.52 21.572 -11.853 21.707 -11.166 21.846 C-6.292 22.854 -6.292 22.854 -4 24 C-4.052 22.892 -4.052 22.892 -4.105 21.762 C-4.302 14.385 -3.521 7.961 -1 1 C-0.67 0.67 -0.34 0.34 0 0 Z " fill="#B6B6B6" transform="translate(49,109)"/>
<path d="M0 0 C0.33 0.99 0.66 1.98 1 3 C2.114 3.186 2.114 3.186 3.25 3.375 C6 4 6 4 7.844 5 C10.375 6.174 12.476 6.406 15.25 6.625 C16.142 6.7 17.034 6.775 17.953 6.852 C18.966 6.925 18.966 6.925 20 7 C20 7.33 20 7.66 20 8 C15.38 8.33 10.76 8.66 6 9 C8.573 13.289 9.395 14.611 13.188 17.188 C15.355 18.668 15.355 18.668 17 20 C17 20.66 17 21.32 17 22 C17.66 22 18.32 22 19 22 C19 22.66 19 23.32 19 24 C19.99 24 20.98 24 22 24 C23.689 25.644 25.353 27.314 27 29 C27.887 29.516 28.774 30.031 29.688 30.562 C32.226 32.14 32.956 33.249 34 36 C33.34 36 32.68 36 32 36 C31.898 36.643 31.796 37.286 31.691 37.949 C30.767 42.03 29.358 45.881 27.938 49.812 C27.656 50.601 27.374 51.389 27.084 52.201 C26.392 54.135 25.697 56.068 25 58 C26.073 58.184 26.073 58.184 27.168 58.371 C30.051 59.011 32.586 59.936 35.312 61.062 C36.637 61.606 36.637 61.606 37.988 62.16 C38.652 62.437 39.316 62.714 40 63 C40.124 62.216 40.248 61.433 40.375 60.625 C41 58 41 58 43 56 C42.325 60.819 40.42 64.919 38.438 69.312 C38.108 70.053 37.779 70.794 37.439 71.557 C36.631 73.373 35.816 75.187 35 77 C34.884 76.383 34.768 75.765 34.648 75.129 C33.693 71.99 31.59 70.912 29 69 C27.188 67.375 27.188 67.375 26 66 C26 65.34 26 64.68 26 64 C24.68 63.67 23.36 63.34 22 63 C21.34 64.98 20.68 66.96 20 69 C19.01 68.67 18.02 68.34 17 68 C17.66 68 18.32 68 19 68 C19 67.34 19 66.68 19 66 C18.175 66.495 17.35 66.99 16.5 67.5 C11.575 69.611 7.661 69.855 2.629 68.238 C-1.656 66.458 -5.001 64.651 -8 61 C-6.438 62.812 -6.438 62.812 -5 65 C-5.33 65.99 -5.66 66.98 -6 68 C-9 64.25 -9 64.25 -9 62 C-9.66 62 -10.32 62 -11 62 C-11.33 64.31 -11.66 66.62 -12 69 C-12.33 69 -12.66 69 -13 69 C-13.426 63.463 -11.905 59.103 -10 54 C-9.01 55.32 -8.02 56.64 -7 58 C-6.879 57.408 -6.758 56.817 -6.633 56.207 C-5.733 51.962 -4.795 47.976 -3 44 C-2.34 44 -1.68 44 -1 44 C-1.66 42.35 -2.32 40.7 -3 39 C-3.33 39 -3.66 39 -4 39 C-4.66 41.31 -5.32 43.62 -6 46 C-8.403 38.791 -3.477 28.525 -1.375 21.438 C-1.05 20.333 -0.725 19.229 -0.391 18.092 C0.404 15.394 1.201 12.697 2 10 C1.01 10 0.02 10 -1 10 C-1.309 10.897 -1.309 10.897 -1.625 11.812 C-3.995 15.583 -7.676 16.683 -11.875 17.688 C-12.576 17.791 -13.278 17.894 -14 18 C-13.34 19.98 -12.68 21.96 -12 24 C-17.571 18.857 -17.571 18.857 -18 15 C-18.66 15 -19.32 15 -20 15 C-20.66 13.35 -21.32 11.7 -22 10 C-8.485 5.403 -8.485 5.403 -3.688 4.625 C-1.779 4.117 -1.779 4.117 -0.75 1.938 C-0.502 1.298 -0.255 0.659 0 0 Z " fill="#E1E1E1" transform="translate(228,117)"/>
<path d="M0 0 C5.538 0.154 10.746 1.323 16 3 C16 3.99 16 4.98 16 6 C16.33 5.01 16.66 4.02 17 3 C19.875 3.188 19.875 3.188 23 4 C24.188 6.5 24.188 6.5 25 9 C25.99 9.33 26.98 9.66 28 10 C27.67 12.97 27.34 15.94 27 19 C26.01 17.02 26.01 17.02 25 15 C24.039 16.415 23.081 17.832 22.125 19.25 C21.591 20.039 21.058 20.828 20.508 21.641 C19.182 23.716 18.051 25.776 17 28 C16.34 28 15.68 28 15 28 C15 28.99 15 29.98 15 31 C10.657 35 10.657 35 8 35 C7.67 35.99 7.34 36.98 7 38 C-1.857 42.806 -10.423 43.246 -19.938 40.5 C-26.373 38.18 -31.94 34.602 -37 30 C-37 29.34 -37 28.68 -37 28 C-38.65 27.34 -40.3 26.68 -42 26 C-42 25.34 -42 24.68 -42 24 C-42.66 24 -43.32 24 -44 24 C-44 23.01 -44 22.02 -44 21 C-48.62 21.66 -53.24 22.32 -58 23 C-57.505 21.515 -57.505 21.515 -57 20 C-56.421 19.9 -55.843 19.8 -55.247 19.696 C-41.018 17.309 -41.018 17.309 -27.32 12.918 C-24.964 11.986 -22.643 11.37 -20.188 10.75 C-13.634 8.869 -4.877 4.877 0 0 Z " fill="#C0C0C0" transform="translate(64,141)"/>
<path d="M0 0 C0.33 0 0.66 0 1 0 C1.075 0.657 1.15 1.315 1.227 1.992 C4.761 27.566 19.081 58.227 39.336 74.926 C40.009 75.383 40.682 75.841 41.375 76.312 C43.461 77.738 43.461 77.738 45 79 C45 79.66 45 80.32 45 81 C46.352 81.343 47.707 81.674 49.062 82 C49.817 82.186 50.571 82.371 51.348 82.562 C58.165 83.687 64.053 82.519 70.625 80.812 C71.511 80.585 72.397 80.357 73.31 80.122 C89.946 75.73 105.524 68.267 120 59 C120.848 58.461 121.696 57.922 122.57 57.367 C126.955 54.82 126.955 54.82 130 51 C130.66 51 131.32 51 132 51 C132 50.34 132 49.68 132 49 C132.99 49 133.98 49 135 49 C135 48.34 135 47.68 135 47 C135.66 47 136.32 47 137 47 C137.268 46.361 137.536 45.721 137.812 45.062 C139 43 139 43 142 42 C142.712 40.352 143.374 38.682 144 37 C145.5 34.688 145.5 34.688 147 33 C147.66 33 148.32 33 149 33 C149 32.01 149 31.02 149 30 C149.66 30 150.32 30 151 30 C151.122 29.428 151.245 28.855 151.371 28.266 C152.028 25.9 152.937 23.928 154.062 21.75 C154.425 21.044 154.787 20.337 155.16 19.609 C155.437 19.078 155.714 18.547 156 18 C156.711 19.531 156.711 19.531 157 22 C155.984 24.638 154.922 27.006 153.625 29.5 C153.266 30.203 152.908 30.905 152.539 31.629 C149.069 38.224 145.037 44.482 140 50 C139.34 50 138.68 50 138 50 C138 50.99 138 51.98 138 53 C137.34 53 136.68 53 136 53 C136 53.66 136 54.32 136 55 C135.34 55 134.68 55 134 55 C134 55.66 134 56.32 134 57 C116.859 73 116.859 73 110 73 C111.32 73 112.64 73 114 73 C115.964 71.941 115.964 71.941 117.75 70.5 C118.364 70.036 118.977 69.572 119.609 69.094 C120.068 68.733 120.527 68.372 121 68 C121.66 68.33 122.32 68.66 123 69 C117.521 79.876 117.521 79.876 111.414 82.398 C107.334 83.415 103.242 83.649 99.051 83.824 C94.376 84.094 90.498 85.078 86.188 86.875 C85.319 87.231 84.45 87.587 83.555 87.953 C82.712 88.299 81.869 88.644 81 89 C70.16 93.274 57.345 97.862 46 93 C42.75 91 42.75 91 40 89 C39.01 88.34 38.02 87.68 37 87 C37 86.34 37 85.68 37 85 C36.34 85 35.68 85 35 85 C35 84.34 35 83.68 35 83 C34.34 83 33.68 83 33 83 C33 82.01 33 81.02 33 80 C32.01 79.67 31.02 79.34 30 79 C26 73.629 26 73.629 26 71 C25.34 71 24.68 71 24 71 C23.67 69.68 23.34 68.36 23 67 C22.34 67 21.68 67 21 67 C12.533 52.438 5.252 38.363 1 22 C0.731 21.049 0.731 21.049 0.456 20.079 C-0.027 17.875 -0.114 15.926 -0.098 13.672 C-0.093 12.473 -0.093 12.473 -0.088 11.25 C-0.08 10.425 -0.071 9.6 -0.062 8.75 C-0.058 7.91 -0.053 7.069 -0.049 6.203 C-0.037 4.135 -0.019 2.068 0 0 Z " fill="#FCFCFC" transform="translate(88,176)"/>
<path d="M0 0 C1.558 3.116 0.541 6.219 0.062 9.562 C-0.703 15.109 -1.044 20.375 -0.786 25.97 C-0.387 34.952 -0.387 34.952 -2.34 38.293 C-4.183 39.926 -5.778 40.942 -8 42 C-8.893 42.529 -9.787 43.057 -10.707 43.602 C-19.057 47.148 -30.309 46.067 -38.688 43.062 C-46.101 39.764 -53.362 35.673 -60 31 C-60 30.34 -60 29.68 -60 29 C-60.804 28.66 -60.804 28.66 -61.625 28.312 C-66.075 25.853 -69.563 22.661 -72.75 18.75 C-74.706 15.976 -74.706 15.976 -77 15 C-77 14.01 -77 13.02 -77 12 C-77.66 12 -78.32 12 -79 12 C-79.66 10.68 -80.32 9.36 -81 8 C-76.463 6.548 -72.819 5.765 -68 6 C-68 6.99 -68 7.98 -68 9 C-67.34 9 -66.68 9 -66 9 C-66 9.66 -66 10.32 -66 11 C-65.257 11.248 -64.515 11.495 -63.75 11.75 C-60.723 13.126 -59.305 14.628 -57 17 C-49.549 23.209 -40.32 26.845 -30.516 26.387 C-22.932 25.221 -17.017 22.801 -12 17 C-11.01 16.67 -10.02 16.34 -9 16 C-9 15.01 -9 14.02 -9 13 C-8.34 13 -7.68 13 -7 13 C-6.773 12.154 -6.546 11.309 -6.312 10.438 C-4.743 6.326 -2.657 3.496 0 0 Z " fill="#FFFFFF" transform="translate(88,156)"/>
<path d="M0 0 C1.14 0.211 1.14 0.211 2.304 0.427 C5.807 1.077 9.31 1.726 12.812 2.375 C14.606 2.708 14.606 2.708 16.436 3.047 C23.621 4.378 30.809 5.699 38 7 C38.781 10.536 38.892 12.53 38 16 C38.037 18.006 38.125 19.998 38.258 22 C38 24 38 24 36.535 25.891 C34.583 28.574 34.508 30.465 34.312 33.75 C34.247 34.735 34.181 35.72 34.113 36.734 C34.076 37.482 34.039 38.23 34 39 C21.852 37.438 9.929 34.734 -2 32 C-2.742 31.853 -3.484 31.706 -4.248 31.555 C-4.826 31.372 -5.404 31.189 -6 31 C-9.626 23.748 -6.471 14.013 -4.168 6.812 C-3.054 4.129 -1.776 2.27 0 0 Z " fill="#FDFDFD" transform="translate(53,105)"/>
<path d="M0 0 C0.66 0.33 1.32 0.66 2 1 C2.379 2.82 2.379 2.82 2.562 5.125 C2.637 5.938 2.712 6.752 2.789 7.59 C2.859 8.385 2.928 9.181 3 10 C3.545 14.591 4.41 18.654 6 23 C6.66 23 7.32 23 8 23 C8 23.66 8 24.32 8 25 C8.784 25.309 9.567 25.619 10.375 25.938 C13 27 13 27 15 28 C15 28.66 15 29.32 15 30 C15.577 30.144 16.155 30.289 16.75 30.438 C19.875 31.219 19.875 31.219 23 32 C23.495 30.515 23.495 30.515 24 29 C24.66 28.67 25.32 28.34 26 28 C25.34 26.68 24.68 25.36 24 24 C26.31 24.66 28.62 25.32 31 26 C31 25.01 31 24.02 31 23 C32.898 21.176 32.898 21.176 35.375 19.312 C36.187 18.69 36.999 18.067 37.836 17.426 C40 16 40 16 42 16 C42 15.34 42 14.68 42 14 C42.804 13.732 43.609 13.464 44.438 13.188 C45.283 12.796 46.129 12.404 47 12 C47.33 11.01 47.66 10.02 48 9 C48.99 9 49.98 9 51 9 C51 8.34 51 7.68 51 7 C53.884 7.345 54.821 7.783 56.703 10.066 C57.214 10.89 57.724 11.714 58.25 12.562 C58.771 13.389 59.292 14.215 59.828 15.066 C60.215 15.704 60.602 16.343 61 17 C60.67 17.66 60.34 18.32 60 19 C58.02 16.36 56.04 13.72 54 11 C51.157 18.665 49.723 26.326 48.375 34.375 C47.947 36.883 47.518 39.391 47.086 41.898 C46.901 42.998 46.716 44.099 46.525 45.232 C46 48 46 48 45 51 C47.97 51.495 47.97 51.495 51 52 C47.99 52.934 47.133 53.044 44 52 C43.67 52.99 43.34 53.98 43 55 C42.67 54.01 42.34 53.02 42 52 C40.244 51.079 40.244 51.079 38.055 50.492 C37.232 50.232 36.409 49.973 35.561 49.705 C34.675 49.431 33.788 49.157 32.875 48.875 C20.94 44.937 8.23 39.846 1 29 C0.367 26.801 0.367 26.801 0 25 C-0.66 25.66 -1.32 26.32 -2 27 C-5.625 27.125 -5.625 27.125 -9 27 C-10.65 30.3 -12.3 33.6 -14 37 C-14.33 36.34 -14.66 35.68 -15 35 C-14.333 33.333 -13.667 31.667 -13 30 C-13.33 29.34 -13.66 28.68 -14 28 C-12.438 25.938 -12.438 25.938 -10 24 C-7.656 24.251 -5.32 24.586 -3 25 C-0.814 24.106 -0.814 24.106 1 23 C1.17 11.463 1.17 11.463 0 0 Z " fill="#C1C1C1" transform="translate(126,80)"/>
<path d="M0 0 C1.417 0.312 2.833 0.624 4.25 0.938 C5.039 1.112 5.828 1.286 6.641 1.465 C8.769 1.948 10.885 2.462 13 3 C12.548 5.085 12.088 7.168 11.625 9.25 C11.242 10.99 11.242 10.99 10.852 12.766 C10.142 15.461 9.369 17.595 8 20 C7.34 20 6.68 20 6 20 C6 20.99 6 21.98 6 23 C5.34 23 4.68 23 4 23 C4 23.66 4 24.32 4 25 C-1.575 30.03 -5.637 30.742 -13 30.5 C-13.864 30.503 -14.727 30.505 -15.617 30.508 C-21.134 30.424 -25.085 29.511 -30 27 C-30 26.34 -30 25.68 -30 25 C-30.784 24.773 -31.568 24.546 -32.375 24.312 C-35 23 -35 23 -36.312 20.375 C-36.653 19.199 -36.653 19.199 -37 18 C-36.464 17.853 -35.927 17.706 -35.375 17.555 C-24.325 14.392 -12.877 11.085 -3.602 4.102 C-2 3 -2 3 0 3 C0 2.01 0 1.02 0 0 Z " fill="#FFFFFF" transform="translate(67,141)"/>
<path d="M0 0 C0.66 0.66 1.32 1.32 2 2 C1.625 4.125 1.625 4.125 1 6 C-0.98 6 -2.96 6 -5 6 C-5.33 6.99 -5.66 7.98 -6 9 C-3.03 9.33 -0.06 9.66 3 10 C2.67 8.68 2.34 7.36 2 6 C2.99 6 3.98 6 5 6 C5.66 6.66 6.32 7.32 7 8 C8.929 8.46 8.929 8.46 11.133 8.633 C11.938 8.717 12.744 8.8 13.574 8.887 C14.837 9.005 14.837 9.005 16.125 9.125 C16.974 9.211 17.824 9.298 18.699 9.387 C20.799 9.599 22.899 9.801 25 10 C25.184 8.817 25.184 8.817 25.371 7.609 C26 5 26 5 28.062 3.25 C31.786 1.666 34.973 1.341 39 1 C36.772 3.228 35.342 3.692 32.375 4.625 C31.558 4.885 30.74 5.146 29.898 5.414 C29.272 5.607 28.645 5.801 28 6 C27.856 6.763 27.711 7.526 27.562 8.312 C27 11 27 11 26 14 C25.505 13.01 25.505 13.01 25 12 C18.996 10.908 13.088 10.888 7 11 C7.656 14.61 7.656 14.61 9 18 C9.336 24.607 8.093 29.72 6 36 C1.849 38.767 -2.238 39.32 -7.125 38.754 C-12.911 37.516 -16.333 35.136 -20 30.438 C-21.533 25.168 -19.987 21.001 -18 16 C-15.938 12.564 -15.08 11.319 -11.25 10.188 C-10.507 10.126 -9.765 10.064 -9 10 C-9 8.35 -9 6.7 -9 5 C-10.052 4.876 -11.104 4.752 -12.188 4.625 C-15.46 4.089 -18.005 3.361 -21 2 C-20.34 1.67 -19.68 1.34 -19 1 C-17.701 1.464 -17.701 1.464 -16.375 1.938 C-11.474 3.481 -5.895 3.958 -1 2 C-0.67 1.34 -0.34 0.68 0 0 Z " fill="#1D1D1D" transform="translate(154,208)"/>
<path d="M0 0 C8.02 1.585 16.029 3.182 24 5 C23.807 5.536 23.613 6.073 23.414 6.625 C20.758 14.619 19.879 22.664 19 31 C15.059 30.416 11.123 29.804 7.188 29.188 C6.068 29.022 4.948 28.856 3.795 28.686 C2.722 28.515 1.649 28.344 0.543 28.168 C-0.942 27.94 -0.942 27.94 -2.456 27.708 C-5.213 26.941 -6.311 26.281 -8 24 C-9.087 16.808 -8.015 10.533 -5 4 C-4.34 4.33 -3.68 4.66 -3 5 C-2.01 3.35 -1.02 1.7 0 0 Z " fill="#FDFDFD" transform="translate(26,102)"/>
<path d="M0 0 C2.577 0.08 4.123 0.155 6.438 1.312 C6.438 1.972 6.438 2.632 6.438 3.312 C7.097 3.312 7.757 3.312 8.438 3.312 C11.134 11.751 12.547 19.094 8.438 27.312 C7.778 27.312 7.118 27.312 6.438 27.312 C6.108 27.972 5.778 28.632 5.438 29.312 C5.438 28.322 5.438 27.333 5.438 26.312 C6.097 26.312 6.757 26.312 7.438 26.312 C7.438 24.662 7.438 23.012 7.438 21.312 C3.623 22.48 3.623 22.48 1.125 25.438 C0.898 26.056 0.671 26.675 0.438 27.312 C1.757 27.972 3.077 28.632 4.438 29.312 C0.477 29.808 0.477 29.808 -3.562 30.312 C-1.912 30.642 -0.262 30.972 1.438 31.312 C1.438 31.642 1.438 31.972 1.438 32.312 C-4.322 32.903 -8.63 31.083 -13.562 28.312 C-16.125 26.062 -16.125 26.062 -17.562 24.312 C-16 26.125 -16 26.125 -14.562 28.312 C-14.893 29.303 -15.222 30.292 -15.562 31.312 C-18.562 27.562 -18.562 27.562 -18.562 25.312 C-19.222 25.312 -19.882 25.312 -20.562 25.312 C-20.893 27.623 -21.222 29.933 -21.562 32.312 C-21.893 32.312 -22.222 32.312 -22.562 32.312 C-22.988 26.776 -21.468 22.416 -19.562 17.312 C-18.572 18.632 -17.583 19.952 -16.562 21.312 C-16.441 20.721 -16.32 20.129 -16.195 19.52 C-15.295 15.274 -14.358 11.288 -12.562 7.312 C-11.903 7.312 -11.243 7.312 -10.562 7.312 C-10.893 5.662 -11.222 4.012 -11.562 2.312 C-10.243 2.972 -8.923 3.632 -7.562 4.312 C-7.253 3.653 -6.944 2.993 -6.625 2.312 C-4.139 -0.098 -3.361 0.016 0 0 Z " fill="#171717" transform="translate(237.5625,153.6875)"/>
<path d="M0 0 C0.33 0 0.66 0 1 0 C1.248 0.887 1.495 1.774 1.75 2.688 C4.032 8.736 7.564 11.664 13 15 C12.237 15.598 11.474 16.196 10.688 16.812 C8.087 18.84 8.087 18.84 6.312 20.75 C5 22 5 22 3 22 C3.495 23.485 3.495 23.485 4 25 C2.35 25.33 0.7 25.66 -1 26 C-1.186 25.041 -1.186 25.041 -1.375 24.062 C-1.581 23.382 -1.787 22.701 -2 22 C-2.66 21.67 -3.32 21.34 -4 21 C-4.625 18.438 -4.625 18.438 -5 16 C-6.434 15.75 -7.873 15.526 -9.312 15.312 C-10.113 15.185 -10.914 15.057 -11.738 14.926 C-14.053 14.78 -14.053 14.78 -15.668 16.293 C-16.851 17.809 -17.934 19.401 -19 21 C-19 20.34 -19 19.68 -19 19 C-20.32 19.33 -21.64 19.66 -23 20 C-23 20.66 -23 21.32 -23 22 C-23.66 22 -24.32 22 -25 22 C-25 23.65 -25 25.3 -25 27 C-27.97 26.01 -30.94 25.02 -34 24 C-34.371 18.195 -33.577 13.269 -31 8 C-28.938 5.812 -28.938 5.812 -26 5 C-22.581 5.378 -19.318 6.105 -16 7 C-16 7.99 -16 8.98 -16 10 C-15.34 8.35 -14.68 6.7 -14 5 C-13.34 5.33 -12.68 5.66 -12 6 C-12.33 7.32 -12.66 8.64 -13 10 C-11.68 7.36 -10.36 4.72 -9 2 C-7.329 2.062 -7.329 2.062 -5.625 2.125 C-1.956 2.411 -1.956 2.411 0 0 Z " fill="#FEFEFE" transform="translate(126,104)"/>
<path d="M0 0 C25 30.751 25 30.751 25 38 C14.332 38.555 3.18 37.393 -7 34 C-6.405 30.394 -5.797 26.791 -5.188 23.188 C-4.939 21.68 -4.939 21.68 -4.686 20.143 C-3.519 13.296 -1.952 6.665 0 0 Z " fill="#EAEAEA" transform="translate(179,89)"/>
<path d="M0 0 C2.288 0.515 4.515 1.106 6.75 1.812 C6.75 3.132 6.75 4.453 6.75 5.812 C7.41 6.142 8.07 6.472 8.75 6.812 C10.25 8.812 10.25 8.812 11.75 10.812 C12.41 11.143 13.07 11.472 13.75 11.812 C13.255 12.411 12.76 13.009 12.25 13.625 C10.467 15.783 10.467 15.783 10.75 18.812 C10.433 21.148 10.102 23.482 9.75 25.812 C9.09 25.812 8.43 25.812 7.75 25.812 C7.42 24.493 7.09 23.173 6.75 21.812 C6.152 21.998 5.554 22.184 4.938 22.375 C2.75 22.812 2.75 22.812 -0.25 21.812 C-0.58 22.472 -0.91 23.132 -1.25 23.812 C-2.323 23.173 -3.395 22.534 -4.5 21.875 C-7.058 20.406 -9.303 19.284 -12.25 18.812 C-12.25 20.132 -12.25 21.452 -12.25 22.812 C-12.91 22.812 -13.57 22.812 -14.25 22.812 C-14.58 20.833 -14.91 18.852 -15.25 16.812 C-13.93 16.812 -12.61 16.812 -11.25 16.812 C-11.766 16.441 -12.281 16.07 -12.812 15.688 C-14.25 13.812 -14.25 13.812 -13.938 10.625 C-13.711 9.697 -13.484 8.769 -13.25 7.812 C-12.59 7.812 -11.93 7.812 -11.25 7.812 C-11.25 7.153 -11.25 6.493 -11.25 5.812 C-10.507 5.565 -9.765 5.317 -9 5.062 C-6.127 4.013 -6.127 4.013 -4.5 1.562 C-2.25 -0.188 -2.25 -0.188 0 0 Z " fill="#CBCBCB" transform="translate(114.25,118.1875)"/>
<path d="M0 0 C0.495 0.99 0.495 0.99 1 2 C6.94 2 12.88 2 19 2 C18.34 2.33 17.68 2.66 17 3 C17 3.66 17 4.32 17 5 C6.605 6.485 6.605 6.485 -4 8 C0.455 9.98 0.455 9.98 5 12 C2 14 2 14 -0.48 13.758 C-1.374 13.549 -2.267 13.34 -3.188 13.125 C-4.089 12.921 -4.99 12.718 -5.918 12.508 C-6.605 12.34 -7.292 12.173 -8 12 C-7.505 13.485 -7.505 13.485 -7 15 C-8.392 14.691 -8.392 14.691 -9.812 14.375 C-13.152 13.633 -13.152 13.633 -16 16 C-15.34 16.99 -14.68 17.98 -14 19 C-14.825 18.588 -15.65 18.175 -16.5 17.75 C-20.848 16.818 -22.369 17.78 -26.07 19.957 C-28 21 -28 21 -30.18 21.449 C-30.78 21.631 -31.381 21.813 -32 22 C-32.33 22.99 -32.66 23.98 -33 25 C-34.488 26.324 -34.488 26.324 -36.312 27.688 C-39.712 30.474 -41.432 33.167 -43.176 37.168 C-44 39 -44 39 -46 42 C-45.36 36.862 -43.803 32.412 -41.938 27.625 C-41.656 26.889 -41.374 26.153 -41.084 25.395 C-40.394 23.594 -39.698 21.797 -39 20 C-38.01 20 -37.02 20 -36 20 C-35.01 19.67 -34.02 19.34 -33 19 C-32.67 18.34 -32.34 17.68 -32 17 C-31 15 -31 15 -28 14 C-28 13.34 -28 12.68 -28 12 C-24.912 10.235 -23.767 10 -20 10 C-19.67 9.01 -19.34 8.02 -19 7 C-16.493 6.115 -14.135 5.423 -11.562 4.812 C-10.868 4.635 -10.174 4.458 -9.459 4.275 C-4.372 3 -4.372 3 -2 3 C-1.34 2.01 -0.68 1.02 0 0 Z " fill="#A6A6A6" transform="translate(303,184)"/>
<path d="M0 0 C3.629 0.364 5.605 1.751 8.613 3.781 C9.589 4.431 10.565 5.081 11.57 5.75 C12.306 6.255 13.042 6.761 13.801 7.281 C12.151 14.376 8.932 20.734 5.801 27.281 C2.839 26.668 1.42 26.028 -1.199 24.281 C-1.199 23.621 -1.199 22.961 -1.199 22.281 C-1.777 22.178 -2.354 22.075 -2.949 21.969 C-5.52 21.183 -7.136 19.976 -9.199 18.281 C-8.835 12.691 -6.544 0.837 0 0 Z " fill="#FFFFFF" transform="translate(210.19921875,268.71875)"/>
<path d="M0 0 C0.66 0 1.32 0 2 0 C2.619 0.99 3.238 1.98 3.875 3 C4.927 4.485 4.927 4.485 6 6 C7.32 6 8.64 6 10 6 C12.179 9.904 13.426 12.527 13 17 C11.906 19.676 11.906 19.676 10.5 22.312 C9.804 23.637 9.804 23.637 9.094 24.988 C8.552 25.984 8.552 25.984 8 27 C4.338 26.373 1.118 25.355 -2.312 23.938 C-3.196 23.575 -4.079 23.213 -4.988 22.84 C-5.652 22.563 -6.316 22.286 -7 22 C-6.36 16.862 -4.803 12.412 -2.938 7.625 C-2.656 6.889 -2.374 6.153 -2.084 5.395 C-1.394 3.594 -0.698 1.797 0 0 Z " fill="#FFFFFF" transform="translate(260,153)"/>
<path d="M0 0 C1.203 0.182 1.203 0.182 2.43 0.367 C12.264 1.817 22.116 2.947 32 4 C32.33 3.34 32.66 2.68 33 2 C36 6.75 36 6.75 36 9 C36.66 9 37.32 9 38 9 C38 9.66 38 10.32 38 11 C29.306 15.347 10.331 11.647 1.535 8.93 C0.699 8.623 -0.138 8.316 -1 8 C-0.67 5.36 -0.34 2.72 0 0 Z " fill="#FFFFFF" transform="translate(172,123)"/>
<path d="M0 0 C0.66 0.33 1.32 0.66 2 1 C2.379 2.82 2.379 2.82 2.562 5.125 C2.637 5.938 2.712 6.752 2.789 7.59 C2.859 8.385 2.928 9.181 3 10 C3.545 14.591 4.41 18.654 6 23 C6.66 23 7.32 23 8 23 C8 23.66 8 24.32 8 25 C8.784 25.309 9.567 25.619 10.375 25.938 C13 27 13 27 15 28 C15 28.66 15 29.32 15 30 C15.598 30.144 16.196 30.289 16.812 30.438 C18.562 30.887 20.287 31.429 22 32 C22 32.66 22 33.32 22 34 C20.031 35.508 20.031 35.508 17.5 37.125 C16.665 37.664 15.829 38.203 14.969 38.758 C14.319 39.168 13.669 39.578 13 40 C11.557 38.923 10.121 37.838 8.688 36.75 C7.887 36.147 7.086 35.543 6.262 34.922 C2.841 32.015 0.795 29.455 0 25 C-0.66 25.66 -1.32 26.32 -2 27 C-5.625 27.125 -5.625 27.125 -9 27 C-10.65 30.3 -12.3 33.6 -14 37 C-14.33 36.34 -14.66 35.68 -15 35 C-14.333 33.333 -13.667 31.667 -13 30 C-13.33 29.34 -13.66 28.68 -14 28 C-12.438 25.938 -12.438 25.938 -10 24 C-7.656 24.251 -5.32 24.586 -3 25 C-0.814 24.106 -0.814 24.106 1 23 C1.17 11.463 1.17 11.463 0 0 Z " fill="#B9B9B9" transform="translate(126,80)"/>
<path d="M0 0 C0.33 0.99 0.66 1.98 1 3 C2.114 3.186 2.114 3.186 3.25 3.375 C6 4 6 4 7.844 5 C10.375 6.174 12.476 6.406 15.25 6.625 C16.142 6.7 17.034 6.775 17.953 6.852 C18.966 6.925 18.966 6.925 20 7 C20 7.33 20 7.66 20 8 C19.001 8.049 18.002 8.098 16.973 8.148 C15.682 8.223 14.392 8.298 13.062 8.375 C11.775 8.445 10.487 8.514 9.16 8.586 C8.117 8.723 7.074 8.859 6 9 C5.67 9.66 5.34 10.32 5 11 C4.01 11.66 3.02 12.32 2 13 C2 11.68 2 10.36 2 9 C1.01 9.33 0.02 9.66 -1 10 C-1.268 10.619 -1.536 11.238 -1.812 11.875 C-3.551 14.986 -5.761 15.666 -9 17 C-11.875 17.688 -11.875 17.688 -14 18 C-13.34 19.98 -12.68 21.96 -12 24 C-17.571 18.857 -17.571 18.857 -18 15 C-18.66 15 -19.32 15 -20 15 C-20.66 13.35 -21.32 11.7 -22 10 C-8.485 5.403 -8.485 5.403 -3.688 4.625 C-1.779 4.117 -1.779 4.117 -0.75 1.938 C-0.502 1.298 -0.255 0.659 0 0 Z " fill="#959595" transform="translate(228,117)"/>
<path d="M0 0 C1.576 0.217 1.576 0.217 3.184 0.438 C4.601 0.626 6.019 0.813 7.438 1 C8.169 1.1 8.901 1.199 9.656 1.302 C13.611 1.811 17.2 2.018 21.188 1.625 C25 2 25 2 26.648 3.703 C30 8.851 30 8.851 30 12 C19.332 12.555 8.18 11.393 -2 8 C-1.34 5.36 -0.68 2.72 0 0 Z " fill="#DCDCDC" transform="translate(174,115)"/>
<path d="M0 0 C0 2.333 0 4.667 0 7 C0.33 7.66 0.66 8.32 1 9 C1.07 10.707 1.084 12.417 1.062 14.125 C1.053 15.035 1.044 15.945 1.035 16.883 C1.024 17.581 1.012 18.28 1 19 C2.32 19.66 3.64 20.32 5 21 C2.442 22.279 1.24 21.822 -1.562 21.375 C-6.37 20.804 -9.663 21.542 -14.09 23.406 C-16 24 -16 24 -19 23 C-18.407 22.776 -17.814 22.551 -17.203 22.32 C-14.355 20.613 -13.372 18.75 -11.75 15.875 C-10.389 13.462 -10.389 13.462 -9 11 C-12.63 12.98 -16.26 14.96 -20 17 C-20.33 16.34 -20.66 15.68 -21 15 C-20.478 14.743 -19.956 14.487 -19.418 14.223 C-12.273 10.507 -5.708 5.708 0 0 Z " fill="#B8B8B8" transform="translate(219,234)"/>
<path d="M0 0 C3.723 -0.477 4.792 -0.139 8 2 C8 2.66 8 3.32 8 4 C8.66 4 9.32 4 10 4 C13.006 9.009 13.293 12.327 13 18 C4.93 22.129 4.93 22.129 2 23 C1.01 22.34 0.02 21.68 -1 21 C0.98 21 2.96 21 5 21 C3.807 14.325 3.807 14.325 0 9 C-3.126 8.666 -3.126 8.666 -6 9 C-6 8.34 -6 7.68 -6 7 C-5.34 7 -4.68 7 -4 7 C-4 6.34 -4 5.68 -4 5 C-3.34 4.34 -2.68 3.68 -2 3 C-1.34 2.01 -0.68 1.02 0 0 Z " fill="#6C6C6C" transform="translate(96,266)"/>
<path d="M0 0 C1.384 2.768 0.529 3.846 -0.438 6.75 C-2.414 13.514 -2.276 20.009 -2 27 C-1.044 27.126 -0.087 27.253 0.898 27.383 C5.508 28.043 10.061 28.953 14.625 29.875 C15.499 30.051 16.374 30.226 17.274 30.407 C24.215 31.814 31.11 33.36 38 35 C38 30.38 38 25.76 38 21 C39.485 21.495 39.485 21.495 41 22 C40.905 22.797 40.809 23.593 40.711 24.414 C39.637 32.464 39.637 32.464 42 40 C44.51 41.439 44.51 41.439 47 42 C45.515 42.495 45.515 42.495 44 43 C44 50.59 44 58.18 44 66 C43.67 66 43.34 66 43 66 C41.809 58.256 40.716 49.612 43 42 C41.02 41.505 41.02 41.505 39 41 C38.67 39.35 38.34 37.7 38 36 C36.02 35.67 34.04 35.34 32 35 C31.34 38.63 30.68 42.26 30 46 C29.67 46 29.34 46 29 46 C29.141 44.541 29.288 43.083 29.438 41.625 C29.519 40.813 29.6 40.001 29.684 39.164 C30 37 30 37 31 35 C29.381 34.759 27.762 34.522 26.141 34.301 C24.648 34.091 23.158 33.857 21.672 33.605 C16.873 32.788 16.873 32.788 12.438 34.438 C11.963 34.953 11.489 35.469 11 36 C10.01 35.505 10.01 35.505 9 35 C10.32 34.01 11.64 33.02 13 32 C11.857 31.734 10.713 31.469 9.535 31.195 C8.044 30.839 6.553 30.482 5.062 30.125 C4.308 29.951 3.553 29.777 2.775 29.598 C0.834 29.128 -1.085 28.57 -3 28 C-3.33 27.34 -3.66 26.68 -4 26 C-9.209 24.225 -14.52 23.285 -19.938 22.375 C-20.717 22.241 -21.496 22.107 -22.299 21.969 C-24.199 21.642 -26.099 21.321 -28 21 C-28 20.67 -28 20.34 -28 20 C-22.883 19.847 -18.175 20.371 -13.188 21.438 C-12.52 21.572 -11.853 21.707 -11.166 21.846 C-6.292 22.854 -6.292 22.854 -4 24 C-4.052 22.892 -4.052 22.892 -4.105 21.762 C-4.302 14.385 -3.521 7.961 -1 1 C-0.67 0.67 -0.34 0.34 0 0 Z " fill="#000000" transform="translate(49,109)"/>
<path d="M0 0 C1.442 2.883 0.483 4.39 -0.434 7.445 C-0.753 8.522 -1.072 9.598 -1.4 10.707 C-1.743 11.835 -2.085 12.963 -2.438 14.125 C-2.776 15.261 -3.114 16.396 -3.463 17.566 C-4.302 20.38 -5.148 23.191 -6 26 C-7.376 24.71 -8.708 23.373 -10 22 C-10 21.34 -10 20.68 -10 20 C-10.66 20 -11.32 20 -12 20 C-13.324 18.355 -13.324 18.355 -14.688 16.188 C-15.145 15.48 -15.603 14.772 -16.074 14.043 C-17 12 -17 12 -16 9 C-14.18 8.262 -14.18 8.262 -11.875 7.688 C-6.857 6.194 -3.674 3.65 0 0 Z " fill="#FFFFFF" transform="translate(230,125)"/>
<path d="M0 0 C2.31 0.33 4.62 0.66 7 1 C6.795 1.571 6.59 2.142 6.379 2.73 C4.031 9.796 3.337 16.584 3 24 C0.125 24.188 0.125 24.188 -3 24 C-6.038 19.443 -4.805 15.25 -4 10 C-3.025 6.424 -1.755 3.259 0 0 Z " fill="#FFFFFF" transform="translate(14,102)"/>
<path d="M0 0 C3 1 3 1 4.188 3.062 C4.456 3.702 4.724 4.341 5 5 C4.01 6.32 3.02 7.64 2 9 C2 8.34 2 7.68 2 7 C0.02 7.99 0.02 7.99 -2 9 C-1.34 9.33 -0.68 9.66 0 10 C1.595 14.784 -0.525 18.391 -2.32 22.945 C-4.814 27.48 -7.168 28.444 -12 30 C-12 29.34 -12 28.68 -12 28 C-12.99 28 -13.98 28 -15 28 C-14.67 27.34 -14.34 26.68 -14 26 C-13.01 26.33 -12.02 26.66 -11 27 C-10.608 25.742 -10.216 24.484 -9.812 23.188 C-7.961 17.598 -5.515 12.317 -3 7 C-3.99 6.67 -4.98 6.34 -6 6 C-5.34 5.67 -4.68 5.34 -4 5 C-3.34 5.33 -2.68 5.66 -2 6 C-1.34 4.02 -0.68 2.04 0 0 Z " fill="#000000" transform="translate(227,269)"/>
<path d="M0 0 C0.99 0 1.98 0 3 0 C3 0.99 3 1.98 3 3 C-12.765 15.517 -37.083 21.648 -57 21 C-53.287 18.525 -49.815 18.23 -45.5 17.625 C-39.163 16.658 -33.391 15.379 -27.426 12.953 C-25.03 12.012 -22.681 11.378 -20.188 10.75 C-13.634 8.869 -4.877 4.877 0 0 Z " fill="#A3A3A3" transform="translate(64,141)"/>
<path d="M0 0 C1.172 3.516 0.837 3.999 -0.652 7.23 C-1.017 8.033 -1.381 8.835 -1.756 9.662 C-2.341 10.912 -2.341 10.912 -2.938 12.188 C-3.324 13.032 -3.71 13.877 -4.107 14.748 C-5.063 16.836 -6.027 18.92 -7 21 C-7.116 20.383 -7.232 19.765 -7.352 19.129 C-8.307 15.99 -10.41 14.912 -13 13 C-15.647 10.658 -17.324 8.113 -19 5 C-19 4.34 -19 3.68 -19 3 C-12.545 2.439 -7.846 4.365 -2 7 C-1.856 6.216 -1.711 5.433 -1.562 4.625 C-1 2 -1 2 0 0 Z " fill="#969696" transform="translate(270,173)"/>
<path d="M0 0 C1.201 0.313 1.201 0.313 2.426 0.633 C3.234 0.836 4.042 1.04 4.875 1.25 C5.49 1.418 6.105 1.585 6.738 1.758 C6.738 3.078 6.738 4.398 6.738 5.758 C7.398 6.088 8.058 6.418 8.738 6.758 C10.238 8.758 10.238 8.758 11.738 10.758 C12.398 11.088 13.058 11.418 13.738 11.758 C13.243 12.356 12.748 12.954 12.238 13.57 C10.456 15.728 10.456 15.728 10.738 18.758 C10.422 21.093 10.09 23.427 9.738 25.758 C9.078 25.758 8.418 25.758 7.738 25.758 C7.078 23.118 6.418 20.478 5.738 17.758 C6.398 17.758 7.058 17.758 7.738 17.758 C7.408 16.438 7.078 15.118 6.738 13.758 C5.418 13.428 4.098 13.098 2.738 12.758 C2.924 12.139 3.11 11.52 3.301 10.883 C3.975 8.716 3.975 8.716 2.738 6.758 C3.728 6.758 4.718 6.758 5.738 6.758 C5.408 5.768 5.078 4.778 4.738 3.758 C1.155 2.756 1.155 2.756 -2.262 3.758 C-2.262 4.418 -2.262 5.078 -2.262 5.758 C-1.602 5.758 -0.942 5.758 -0.262 5.758 C0.068 6.748 0.398 7.738 0.738 8.758 C-0.252 9.253 -0.252 9.253 -1.262 9.758 C-3.887 8.32 -3.887 8.32 -6.262 6.758 C-5.949 4.383 -5.949 4.383 -5.262 1.758 C-2.262 -0.242 -2.262 -0.242 0 0 Z " fill="#050505" transform="translate(114.26171875,118.2421875)"/>
<path d="M0 0 C0.33 0 0.66 0 1 0 C0.99 0.634 0.979 1.268 0.968 1.921 C0.768 15.868 0.603 28.82 5.402 42.086 C6.139 44.444 6.237 46.547 6 49 C4.218 45.693 3.038 42.318 1.875 38.75 C1.522 37.672 1.169 36.595 0.805 35.484 C0.539 34.665 0.274 33.845 0 33 C-0.308 39.261 0.414 44.27 2.199 50.27 C3.335 54.142 4.159 58.054 5 62 C4.34 61.67 3.68 61.34 3 61 C2.256 58.753 1.603 56.476 1 54.188 C-0.517 48.405 -0.517 48.405 -3 43 C-4.32 43.66 -5.64 44.32 -7 45 C-6.341 44.327 -5.683 43.654 -5.004 42.961 C-2.437 39.168 -2.683 37.164 -2.938 32.625 C-3.334 21.607 -1.626 10.871 0 0 Z " fill="#000000" transform="translate(89,152)"/>
<path d="M0 0 C0.33 0.66 0.66 1.32 1 2 C6.94 2 12.88 2 19 2 C18.01 2.495 18.01 2.495 17 3 C17 3.66 17 4.32 17 5 C6.605 6.485 6.605 6.485 -4 8 C0.455 9.98 0.455 9.98 5 12 C2 14 2 14 -0.48 13.758 C-1.374 13.549 -2.267 13.34 -3.188 13.125 C-4.089 12.921 -4.99 12.718 -5.918 12.508 C-6.605 12.34 -7.292 12.173 -8 12 C-7.67 12.99 -7.34 13.98 -7 15 C-8.98 14.34 -10.96 13.68 -13 13 C-9.25 10 -9.25 10 -7 10 C-6.773 9.464 -6.546 8.928 -6.312 8.375 C-4.566 5.215 -2.36 2.732 0 0 Z " fill="#1B1B1B" transform="translate(303,184)"/>
<path d="M0 0 C14.781 0.779 14.781 0.779 21 3 C20.34 5.31 19.68 7.62 19 10 C18.34 9.67 17.68 9.34 17 9 C15.149 12.929 14.78 15.988 14.875 20.312 C14.916 22.189 14.957 24.066 15 26 C15.33 21.71 15.66 17.42 16 13 C16.33 13 16.66 13 17 13 C17 18.28 17 23.56 17 29 C5.286 27 5.286 27 0 25 C1.32 24.67 2.64 24.34 4 24 C3.977 23.385 3.954 22.77 3.93 22.137 C3.912 21.328 3.894 20.52 3.875 19.688 C3.852 18.887 3.829 18.086 3.805 17.262 C4 15 4 15 6 12 C5.988 12.771 5.977 13.542 5.965 14.336 C5.956 15.339 5.947 16.342 5.938 17.375 C5.926 18.373 5.914 19.37 5.902 20.398 C5.82 22.984 5.82 22.984 7 25 C10.029 25.658 10.029 25.658 13 26 C12.954 25.178 12.907 24.355 12.859 23.508 C12.608 15.725 13.48 9.962 17 3 C14.69 2.67 12.38 2.34 10 2 C9.34 3.65 8.68 5.3 8 7 C7.67 5.68 7.34 4.36 7 3 C4.69 2.67 2.38 2.34 0 2 C0 1.34 0 0.68 0 0 Z " fill="#000000" transform="translate(4,100)"/>
<path d="M0 0 C8.559 1.121 16.976 2.526 25.43 4.273 C29.582 5.119 33.748 5.858 37.926 6.57 C40 7 40 7 42 8 C42.66 6.68 43.32 5.36 44 4 C46.31 4 48.62 4 51 4 C48 6 48 6 45.922 6.863 C42.818 8.699 42.52 11.285 41.527 14.602 C40.813 17.851 40.788 20.686 41 24 C43.31 24.66 45.62 25.32 48 26 C44.614 27.042 41.526 27.039 38 27 C37.973 24.938 37.954 22.875 37.938 20.812 C37.926 19.664 37.914 18.515 37.902 17.332 C37.988 14.395 38.384 11.857 39 9 C38.387 8.895 37.774 8.789 37.143 8.68 C24.744 6.544 12.357 4.367 0 2 C0 1.34 0 0.68 0 0 Z " fill="#000000" transform="translate(52,104)"/>
<path d="M0 0 C2.625 -0.188 2.625 -0.188 5 0 C5.144 0.784 5.289 1.567 5.438 2.375 C5.878 4.964 5.878 4.964 7 7 C7.33 6.34 7.66 5.68 8 5 C8.66 5 9.32 5 10 5 C10.289 4.361 10.577 3.721 10.875 3.062 C12 1 12 1 14 0 C14 2.64 14 5.28 14 8 C14.66 8 15.32 8 16 8 C16 8.66 16 9.32 16 10 C15.34 10 14.68 10 14 10 C13.67 10.99 13.34 11.98 13 13 C13 12.01 13 11.02 13 10 C9.956 9.918 7.928 10.024 5 11 C5 11.66 5 12.32 5 13 C2.625 13.125 2.625 13.125 0 13 C-0.66 12.34 -1.32 11.68 -2 11 C-2 10.01 -2 9.02 -2 8 C-1.34 8 -0.68 8 0 8 C0.33 8.66 0.66 9.32 1 10 C1.99 10 2.98 10 4 10 C3.224 6.925 3.224 6.925 1 5 C1.99 5 2.98 5 4 5 C4 4.01 4 3.02 4 2 C2.68 2 1.36 2 0 2 C0 2.66 0 3.32 0 4 C-0.66 3.67 -1.32 3.34 -2 3 C-1.34 2.01 -0.68 1.02 0 0 Z " fill="#1F1F1F" transform="translate(304,293)"/>
<path d="M0 0 C2.25 -0.312 2.25 -0.312 5 0 C9.176 4.408 10.13 7.022 10 13 C7.312 13.5 7.312 13.5 4 13 C1.707 10.62 0.213 8.067 -1 5 C-0.812 2 -0.812 2 0 0 Z " fill="#FFFFFF" transform="translate(91,274)"/>
<path d="M0 0 C1 1 1 1 1.098 3.066 C1.086 3.89 1.074 4.714 1.062 5.562 C1.053 6.389 1.044 7.215 1.035 8.066 C1.024 8.704 1.012 9.343 1 10 C0.34 10 -0.32 10 -1 10 C-1 10.66 -1 11.32 -1 12 C-5.56 11.52 -5.56 11.52 -7.375 9.375 C-8.262 6.006 -7.762 3.366 -7 0 C-4.316 -1.342 -2.847 -0.73 0 0 Z " fill="#000000" transform="translate(261,294)"/>
<path d="M0 0 C0.054 1.625 0.093 3.25 0.125 4.875 C0.148 5.78 0.171 6.685 0.195 7.617 C0 10 0 10 -2 12 C-6.556 11.444 -6.556 11.444 -8 10 C-8.072 8.314 -8.084 6.625 -8.062 4.938 C-8.053 4.018 -8.044 3.099 -8.035 2.152 C-8.024 1.442 -8.012 0.732 -8 0 C-5.138 -1.431 -3.066 -0.6 0 0 Z " fill="#000000" transform="translate(281,294)"/>
<path d="M0 0 C0.054 1.625 0.093 3.25 0.125 4.875 C0.148 5.78 0.171 6.685 0.195 7.617 C0 10 0 10 -2 12 C-6.556 11.444 -6.556 11.444 -8 10 C-8.072 8.314 -8.084 6.625 -8.062 4.938 C-8.053 4.018 -8.044 3.099 -8.035 2.152 C-8.024 1.442 -8.012 0.732 -8 0 C-5.138 -1.431 -3.066 -0.6 0 0 Z " fill="#000000" transform="translate(271,294)"/>
<path d="M0 0 C1.154 2.308 1.534 4.472 2 7 C3.64 7.464 3.64 7.464 5.312 7.938 C7.554 8.583 9.787 9.262 12 10 C12.66 9.67 13.32 9.34 14 9 C14.33 8.01 14.66 7.02 15 6 C15.99 6.33 16.98 6.66 18 7 C18 8.32 18 9.64 18 11 C17.34 11 16.68 11 16 11 C16 11.66 16 12.32 16 13 C5.335 13.621 5.335 13.621 0.375 11.312 C-2.067 8.935 -3.094 7.26 -4 4 C-2.68 2.68 -1.36 1.36 0 0 Z " fill="#F6F6F6" transform="translate(143,220)"/>
<path d="M0 0 C3.123 0.486 5.996 0.999 9 2 C9 2.66 9 3.32 9 4 C9.99 4 10.98 4 12 4 C12 5.98 12 7.96 12 10 C7.809 10.195 4.741 9.975 1 8 C-1 5 -1 5 -0.625 2.312 C-0.419 1.549 -0.213 0.786 0 0 Z " fill="#FFFFFF" transform="translate(138,235)"/>
<path d="M0 0 C0.66 0.33 1.32 0.66 2 1 C2.379 2.82 2.379 2.82 2.562 5.125 C2.637 5.938 2.712 6.752 2.789 7.59 C2.859 8.385 2.928 9.181 3 10 C3.545 14.591 4.41 18.654 6 23 C5.01 22.34 4.02 21.68 3 21 C3 22.093 3 23.186 3 24.312 C3 26.542 3 28.771 3 31 C0.861 28.861 0.573 27.867 0 25 C-0.66 25.66 -1.32 26.32 -2 27 C-5.625 27.125 -5.625 27.125 -9 27 C-10.65 30.3 -12.3 33.6 -14 37 C-14.33 36.34 -14.66 35.68 -15 35 C-14.333 33.333 -13.667 31.667 -13 30 C-13.33 29.34 -13.66 28.68 -14 28 C-12.438 25.938 -12.438 25.938 -10 24 C-7.656 24.251 -5.32 24.586 -3 25 C-0.814 24.106 -0.814 24.106 1 23 C1.17 11.463 1.17 11.463 0 0 Z " fill="#000000" transform="translate(126,80)"/>
<path d="M0 0 C0.99 1.32 1.98 2.64 3 4 C3.66 3.34 4.32 2.68 5 2 C7 3 7 3 7.875 5.438 C8.771 8.136 8.771 8.136 11.125 9.312 C11.744 9.539 12.363 9.766 13 10 C12.67 10.66 12.34 11.32 12 12 C9.875 12.438 9.875 12.438 7 12 C4.724 9.873 2.854 7.498 1 5 C1.681 5.928 2.361 6.856 3.062 7.812 C3.702 8.864 4.341 9.916 5 11 C4.67 11.99 4.34 12.98 4 14 C1 10.25 1 10.25 1 8 C0.34 8 -0.32 8 -1 8 C-1.33 10.31 -1.66 12.62 -2 15 C-2.33 15 -2.66 15 -3 15 C-3.426 9.463 -1.905 5.103 0 0 Z " fill="#212121" transform="translate(218,171)"/>
<path d="M0 0 C0.66 0.33 1.32 0.66 2 1 C1.34 4.3 0.68 7.6 0 11 C-0.99 11 -1.98 11 -3 11 C-4.32 13.64 -5.64 16.28 -7 19 C-7.66 19 -8.32 19 -9 19 C-9 19.99 -9 20.98 -9 22 C-9.66 21.67 -10.32 21.34 -11 21 C-10.67 20.34 -10.34 19.68 -10 19 C-10.66 19 -11.32 19 -12 19 C-12.66 20.32 -13.32 21.64 -14 23 C-14 19.22 -12.921 18.318 -10.562 15.438 C-8.03 12.38 -8.03 12.38 -6 9 C-5.34 9 -4.68 9 -4 9 C-3.711 8.257 -3.423 7.515 -3.125 6.75 C-2.177 4.433 -1.152 2.221 0 0 Z " fill="#1E1E1E" transform="translate(246,187)"/>
<path d="M0 0 C0 1.65 0 3.3 0 5 C-0.66 5 -1.32 5 -2 5 C-1.67 5.66 -1.34 6.32 -1 7 C0.98 6.34 2.96 5.68 5 5 C4.34 6.98 3.68 8.96 3 11 C2.01 10.67 1.02 10.34 0 10 C0.66 10 1.32 10 2 10 C2 9.34 2 8.68 2 8 C1.196 8.536 0.391 9.072 -0.438 9.625 C-5.185 11.457 -8.266 10.462 -13 9 C-13 8.67 -13 8.34 -13 8 C-12.237 7.959 -11.474 7.917 -10.688 7.875 C-7.684 7.238 -7.684 7.238 -6.375 4 C-5.694 2.515 -5.694 2.515 -5 1 C-2 0 -2 0 0 0 Z " fill="#686868" transform="translate(245,175)"/>
<path d="M0 0 C2.64 0.33 5.28 0.66 8 1 C8 1.66 8 2.32 8 3 C8.99 3 9.98 3 11 3 C12.125 6.75 12.125 6.75 11 9 C7.477 9.415 5.909 8.954 2.688 7.312 C0 5 0 5 -0.375 2.25 C-0.251 1.507 -0.127 0.765 0 0 Z " fill="#FFFFFF" transform="translate(225,173)"/>
<path d="M0 0 C0.195 4.182 0.269 7.408 -2 11 C-4.559 12.603 -7.215 13.841 -10 15 C-10 14.34 -10 13.68 -10 13 C-10.99 13 -11.98 13 -13 13 C-12.67 12.34 -12.34 11.68 -12 11 C-11.01 11.33 -10.02 11.66 -9 12 C-8.01 9.03 -7.02 6.06 -6 3 C-5.34 3 -4.68 3 -4 3 C-3.67 2.34 -3.34 1.68 -3 1 C-1 0 -1 0 0 0 Z " fill="#5A5A5A" transform="translate(225,284)"/>
<path d="M0 0 C2.007 1.938 3.799 3.668 5.25 6.062 C8.352 9.497 12.564 10.704 17.09 11.254 C21.419 11.379 25.001 10.6 29 9 C29 9.66 29 10.32 29 11 C18.757 15.806 18.757 15.806 13.062 13.812 C11.705 13.216 10.35 12.612 9 12 C7.952 11.799 7.952 11.799 6.883 11.594 C3.958 10.672 3.174 8.376 1.816 5.789 C0.947 3.885 0.331 2.07 0 0 Z " fill="#FFFFFF" transform="translate(218,174)"/>
<path d="M0 0 C2.475 0.99 2.475 0.99 5 2 C4.67 2.99 4.34 3.98 4 5 C4 4.34 4 3.68 4 3 C2.02 3 0.04 3 -2 3 C-1.107 5.358 -1.107 5.358 2.062 6.125 C3.032 6.414 4.001 6.702 5 7 C5.625 9.375 5.625 9.375 6 12 C4 14 4 14 1 14.25 C-2 14 -2 14 -4 12 C-4 11.01 -4 10.02 -4 9 C-3.34 9 -2.68 9 -2 9 C-1.67 9.66 -1.34 10.32 -1 11 C0.32 11 1.64 11 3 11 C3 10.34 3 9.68 3 9 C2.031 8.732 1.061 8.464 0.062 8.188 C-0.948 7.796 -1.959 7.404 -3 7 C-3.33 6.01 -3.66 5.02 -4 4 C-2.68 2.68 -1.36 1.36 0 0 Z " fill="#000000" transform="translate(241,292)"/>
<path d="M0 0 C1.98 0.495 1.98 0.495 4 1 C4 1.66 4 2.32 4 3 C4.99 3.33 5.98 3.66 7 4 C7 4.66 7 5.32 7 6 C7.619 6.268 8.238 6.536 8.875 6.812 C11 8 11 8 13 11 C12.67 11.99 12.34 12.98 12 14 C10 14 10 14 7.75 11.812 C6.842 10.884 5.935 9.956 5 9 C3.034 7.288 1.023 5.646 -1 4 C-0.67 2.68 -0.34 1.36 0 0 Z " fill="#FFFFFF" transform="translate(250,180)"/>
<path d="M0 0 C1.32 0 2.64 0 4 0 C4 1.65 4 3.3 4 5 C9.94 5.99 9.94 5.99 16 7 C16.33 5.68 16.66 4.36 17 3 C17.66 3 18.32 3 19 3 C19.043 4.666 19.041 6.334 19 8 C17.216 9.784 14.73 9.298 12.312 9.375 C8.278 9.346 5.476 9.284 2.25 6.75 C0 4 0 4 0 0 Z " fill="#FFFFFF" transform="translate(227,162)"/>
<path d="M0 0 C0.99 0 1.98 0 3 0 C3 5.61 3 11.22 3 17 C2.01 17 1.02 17 0 17 C0 13.04 0 9.08 0 5 C-1.32 5 -2.64 5 -4 5 C-3.67 4.01 -3.34 3.02 -3 2 C-2.01 2 -1.02 2 0 2 C0 1.34 0 0.68 0 0 Z " fill="#000000" transform="translate(178,66)"/>
<path d="M0 0 C-0.338 0.552 -0.675 1.103 -1.023 1.672 C-2.211 4.503 -2.023 6.227 -1.625 9.25 C-1.514 10.142 -1.403 11.034 -1.289 11.953 C-1.194 12.629 -1.098 13.304 -1 14 C-2.32 14 -3.64 14 -5 14 C-5 15.32 -5 16.64 -5 18 C-5.66 18 -6.32 18 -7 18 C-7.33 16.02 -7.66 14.04 -8 12 C-6.68 12 -5.36 12 -4 12 C-4.516 11.629 -5.031 11.257 -5.562 10.875 C-7 9 -7 9 -6.688 5.812 C-6.461 4.884 -6.234 3.956 -6 3 C-5.34 3 -4.68 3 -4 3 C-4 2.34 -4 1.68 -4 1 C-2 0 -2 0 0 0 Z " fill="#0D0D0D" transform="translate(107,123)"/>
<path d="M0 0 C1.454 0.031 1.454 0.031 2.938 0.062 C2.938 0.723 2.938 1.382 2.938 2.062 C1.288 2.062 -0.363 2.062 -2.062 2.062 C-2.062 2.723 -2.062 3.382 -2.062 4.062 C-0.413 4.392 1.238 4.723 2.938 5.062 C3.625 7.375 3.625 7.375 3.938 10.062 C2.75 11.875 2.75 11.875 0.938 13.062 C-0.382 13.062 -1.702 13.062 -3.062 13.062 C-3.062 12.402 -3.062 11.743 -3.062 11.062 C-3.723 11.062 -4.382 11.062 -5.062 11.062 C-5.062 10.402 -5.062 9.743 -5.062 9.062 C-2.092 9.558 -2.092 9.558 0.938 10.062 C1.267 8.743 1.598 7.423 1.938 6.062 C-0.043 6.392 -2.022 6.723 -4.062 7.062 C-4.105 5.063 -4.103 3.062 -4.062 1.062 C-3.062 0.062 -3.062 0.062 0 0 Z " fill="#000000" transform="translate(287.0625,292.9375)"/>
<path d="M0 0 C1.5 1.312 1.5 1.312 3 3 C3 3.99 3 4.98 3 6 C2.01 6.495 2.01 6.495 1 7 C-0.915 11.618 -1.49 16.073 -2 21 C-3.539 19.793 -3.539 19.793 -5 18 C-4.961 15.801 -4.961 15.801 -4.375 13.312 C-4.169 12.435 -3.963 11.557 -3.75 10.652 C-2.715 6.993 -1.435 3.522 0 0 Z " fill="#FFFFFF" transform="translate(224,155)"/>
<path d="M0 0 C1.32 1.32 2.64 2.64 4 4 C3.01 4 2.02 4 1 4 C1.66 6.64 2.32 9.28 3 12 C3.99 11.67 4.98 11.34 6 11 C6 11.66 6 12.32 6 13 C5.34 13 4.68 13 4 13 C4.33 14.65 4.66 16.3 5 18 C3.312 19.562 3.312 19.562 1 21 C-1.75 20.688 -1.75 20.688 -4 20 C-4 19.67 -4 19.34 -4 19 C-2.02 19 -0.04 19 2 19 C0.932 14.499 -0.14 10.251 -2 6 C-1.34 5.67 -0.68 5.34 0 5 C0 3.35 0 1.7 0 0 Z " fill="#000000" transform="translate(99,268)"/>
<path d="M0 0 C1.904 1.904 2.935 3.334 3.199 6.047 C3.189 8.032 3.099 10.017 3 12 C-1.75 13 -1.75 13 -4 13 C-3.67 11.68 -3.34 10.36 -3 9 C-2.34 9 -1.68 9 -1 9 C-0.67 6.03 -0.34 3.06 0 0 Z " fill="#626262" transform="translate(106,272)"/>
<path d="M0 0 C0 1.98 0 3.96 0 6 C-0.66 6 -1.32 6 -2 6 C-2 6.66 -2 7.32 -2 8 C-3.98 8 -5.96 8 -8 8 C-7.812 5.688 -7.812 5.688 -7 3 C-2.966 0 -2.966 0 0 0 Z " fill="#FFFFFF" transform="translate(159,237)"/>
<path d="M0 0 C0.66 0.33 1.32 0.66 2 1 C0.02 4.63 -1.96 8.26 -4 12 C-5 9 -5 9 -4 6 C-4.459 6.349 -4.918 6.699 -5.391 7.059 C-6.004 7.514 -6.618 7.969 -7.25 8.438 C-8.155 9.116 -8.155 9.116 -9.078 9.809 C-11.063 11.039 -12.72 11.561 -15 12 C-15 11.34 -15 10.68 -15 10 C-14.42 9.697 -13.84 9.394 -13.242 9.082 C-8.338 6.452 -4.142 3.717 0 0 Z " fill="#000000" transform="translate(213,239)"/>
<path d="M0 0 C14.781 0.779 14.781 0.779 21 3 C20.34 5.31 19.68 7.62 19 10 C18.67 10 18.34 10 18 10 C17.67 8.02 17.34 6.04 17 4 C14.69 3.34 12.38 2.68 10 2 C9.34 3.65 8.68 5.3 8 7 C7.67 5.68 7.34 4.36 7 3 C4.69 2.67 2.38 2.34 0 2 C0 1.34 0 0.68 0 0 Z " fill="#0C0C0C" transform="translate(4,100)"/>
<path d="M0 0 C1.938 0.312 1.938 0.312 4 1 C5 4 5 4 4 8 C1.03 8 -1.94 8 -5 8 C-5 7.34 -5 6.68 -5 6 C-4.34 6 -3.68 6 -3 6 C-3 5.34 -3 4.68 -3 4 C-2.34 3.34 -1.68 2.68 -1 2 C-0.67 1.34 -0.34 0.68 0 0 Z " fill="#636363" transform="translate(95,267)"/>
<path d="M0 0 C2.062 0.438 2.062 0.438 4 1 C4 3.31 4 5.62 4 8 C3.01 8.33 2.02 8.66 1 9 C0.34 8.67 -0.32 8.34 -1 8 C-1.042 5.667 -1.041 3.333 -1 1 C-0.67 0.67 -0.34 0.34 0 0 Z " fill="#FFFFFF" transform="translate(256,295)"/>
<path d="M0 0 C2.97 0 5.94 0 9 0 C8.732 0.66 8.464 1.32 8.188 2 C6.743 5.649 5.371 9.322 4 13 C3.34 13 2.68 13 2 13 C2.308 11.52 2.622 10.041 2.938 8.562 C3.112 7.739 3.286 6.915 3.465 6.066 C4 4 4 4 5 3 C3.35 2.67 1.7 2.34 0 2 C0 1.34 0 0.68 0 0 Z " fill="#000000" transform="translate(292,293)"/>
<path d="M0 0 C1.32 0 2.64 0 4 0 C4.33 2.31 4.66 4.62 5 7 C3.02 7.99 3.02 7.99 1 9 C0 8 0 8 -0.098 6.152 C-0.065 4.102 -0.033 2.051 0 0 Z " fill="#FFFFFF" transform="translate(275,295)"/>
<path d="M0 0 C0 0.99 0 1.98 0 3 C-2.763 3.597 -5.16 4 -8 4 C-9.65 7.3 -11.3 10.6 -13 14 C-13.33 13.34 -13.66 12.68 -14 12 C-13.333 10.333 -12.667 8.667 -12 7 C-12.33 6.34 -12.66 5.68 -13 5 C-11.438 2.938 -11.438 2.938 -9 1 C-5.375 1.375 -5.375 1.375 -2 2 C-1.34 1.34 -0.68 0.68 0 0 Z " fill="#0D0D0D" transform="translate(125,103)"/>
<path d="M0 0 C1.32 0 2.64 0 4 0 C4.33 2.31 4.66 4.62 5 7 C4.01 7.66 3.02 8.32 2 9 C1.34 8.67 0.68 8.34 0 8 C0 5.36 0 2.72 0 0 Z " fill="#FFFFFF" transform="translate(265,295)"/>
<path d="M0 0 C0.289 0.639 0.577 1.279 0.875 1.938 C1.828 4.152 1.828 4.152 4 5 C3.602 5.412 3.203 5.825 2.793 6.25 C-1.2 10.603 -3.222 14.37 -5 20 C-6.028 16.863 -5.994 15.168 -4.785 12.109 C-4.374 11.046 -4.374 11.046 -3.955 9.961 C-3.661 9.231 -3.366 8.502 -3.062 7.75 C-2.772 7.005 -2.481 6.26 -2.182 5.492 C-1.464 3.658 -0.733 1.828 0 0 Z " fill="#000000" transform="translate(263,206)"/>
<path d="M0 0 C0 1.65 0 3.3 0 5 C-0.66 5 -1.32 5 -2 5 C-2 5.66 -2 6.32 -2 7 C-3.98 7 -5.96 7 -8 7 C-6.688 4.062 -6.688 4.062 -5 1 C-2 0 -2 0 0 0 Z " fill="#FFFFFF" transform="translate(245,175)"/>
<path d="M0 0 C-0.99 0.495 -0.99 0.495 -2 1 C-2 1.66 -2 2.32 -2 3 C-7.687 3.914 -12.313 3.914 -18 3 C-18 2.67 -18 2.34 -18 2 C-17.06 1.909 -17.06 1.909 -16.102 1.816 C-14.876 1.691 -14.876 1.691 -13.625 1.562 C-12.813 1.481 -12.001 1.4 -11.164 1.316 C-1.918 -0.036 -1.918 -0.036 0 0 Z " fill="#5C5C5C" transform="translate(322,186)"/>
<path d="M0 0 C0.99 0.33 1.98 0.66 3 1 C2.916 1.82 2.832 2.64 2.746 3.484 C2.593 5.101 2.593 5.101 2.438 6.75 C2.333 7.817 2.229 8.885 2.121 9.984 C2.014 12.641 2.181 14.5 3 17 C2.01 17.33 1.02 17.66 0 18 C-1.301 14.185 -0.894 10.724 -0.562 6.75 C-0.461 5.487 -0.359 4.223 -0.254 2.922 C-0.17 1.958 -0.086 0.993 0 0 Z " fill="#0F0F0F" transform="translate(87,130)"/>
<path d="M0 0 C5.625 -0.25 5.625 -0.25 9 2 C8.67 2.99 8.34 3.98 8 5 C4.625 4.453 2.918 3.945 0 2 C0 1.34 0 0.68 0 0 Z " fill="#FFFFFF" transform="translate(234,156)"/>
<path d="M0 0 C0.99 0 1.98 0 3 0 C6 4.222 6 4.222 6 7 C4.68 7.33 3.36 7.66 2 8 C-0.152 4.772 -0.201 3.716 0 0 Z " fill="#FFFFFF" transform="translate(100,272)"/>
<path d="M0 0 C0.66 0.66 1.32 1.32 2 2 C1.625 4.125 1.625 4.125 1 6 C2.98 6 4.96 6 7 6 C7 6.33 7 6.66 7 7 C0.946 8.081 -3.136 7.921 -9 6 C-9.66 5.34 -10.32 4.68 -11 4 C-7.37 4.66 -3.74 5.32 0 6 C0 4.02 0 2.04 0 0 Z " fill="#000000" transform="translate(150,239)"/>
<path d="M0 0 C2.31 0 4.62 0 7 0 C4 2 4 2 1.938 2.875 C-0.42 4.244 -1.004 5.509 -2 8 C-2.66 8 -3.32 8 -4 8 C-4.33 6.35 -4.66 4.7 -5 3 C-4.01 3.33 -3.02 3.66 -2 4 C-1.34 2.68 -0.68 1.36 0 0 Z " fill="#080808" transform="translate(96,108)"/>
<path d="M0 0 C0.882 0.046 1.763 0.093 2.672 0.141 C3.564 0.177 4.456 0.213 5.375 0.25 C6.388 0.32 6.388 0.32 7.422 0.391 C7.092 1.381 6.762 2.371 6.422 3.391 C-0.013 3.886 -0.013 3.886 -6.578 4.391 C-2.578 0.391 -2.578 0.391 0 0 Z " fill="#080808" transform="translate(305.578125,186.609375)"/>
<path d="M0 0 C0.981 3.053 0.981 4.947 0 8 C-0.66 7.67 -1.32 7.34 -2 7 C-1.67 6.34 -1.34 5.68 -1 5 C-1.66 5 -2.32 5 -3 5 C-3.66 6.32 -4.32 7.64 -5 9 C-5 4.61 -2.872 3.231 0 0 Z " fill="#272727" transform="translate(237,201)"/>
<path d="M0 0 C0.66 0.33 1.32 0.66 2 1 C2 4.96 2 8.92 2 13 C1.67 13 1.34 13 1 13 C0.67 11.35 0.34 9.7 0 8 C-2.97 7.505 -2.97 7.505 -6 7 C-6 6.67 -6 6.34 -6 6 C-4.02 6 -2.04 6 0 6 C0 4.02 0 2.04 0 0 Z " fill="#000000" transform="translate(102,146)"/>
<path d="M0 0 C1.65 0.99 3.3 1.98 5 3 C4.67 3.66 4.34 4.32 4 5 C4.33 5.33 4.66 5.66 5 6 C5.33 6.99 5.66 7.98 6 9 C5.34 9 4.68 9 4 9 C4 8.34 4 7.68 4 7 C3.34 7 2.68 7 2 7 C2 6.34 2 5.68 2 5 C1.34 5 0.68 5 0 5 C-0.33 4.01 -0.66 3.02 -1 2 C-0.67 1.34 -0.34 0.68 0 0 Z " fill="#1E1E1E" transform="translate(308,197)"/>
<path d="M0 0 C-0.523 2.763 -1.109 5.326 -2 8 C-2.66 8 -3.32 8 -4 8 C-4.66 5.36 -5.32 2.72 -6 0 C-3.509 -1.245 -2.589 -0.777 0 0 Z " fill="#000000" transform="translate(126,136)"/>
<path d="M0 0 C-1.98 2.97 -1.98 2.97 -4 6 C-4.99 5.34 -5.98 4.68 -7 4 C-7 2.68 -7 1.36 -7 0 C-2.25 -1.125 -2.25 -1.125 0 0 Z " fill="#3F3F3F" transform="translate(128,130)"/>
<path d="M0 0 C0.99 0.33 1.98 0.66 3 1 C4 4 4 4 3.062 6.188 C2.537 7.085 2.537 7.085 2 8 C0.438 6.812 0.438 6.812 -1 5 C-0.688 2.312 -0.688 2.312 0 0 Z " fill="#454545" transform="translate(224,278)"/>
<path d="M0 0 C0.66 0.33 1.32 0.66 2 1 C0.02 4.63 -1.96 8.26 -4 12 C-5 9 -5 9 -4.258 6.992 C-3.884 6.294 -3.51 5.595 -3.125 4.875 C-2.756 4.171 -2.388 3.467 -2.008 2.742 C-1 1 -1 1 0 0 Z " fill="#181818" transform="translate(213,239)"/>
<path d="M0 0 C0 0.66 0 1.32 0 2 C-0.66 2 -1.32 2 -2 2 C-2.33 2.99 -2.66 3.98 -3 5 C-3 4.01 -3 3.02 -3 2 C-4.65 2 -6.3 2 -8 2 C-8 1.34 -8 0.68 -8 0 C-4.713 -0.8 -3.29 -1.097 0 0 Z " fill="#000000" transform="translate(320,301)"/>
<path d="M0 0 C0.66 0.66 1.32 1.32 2 2 C1.625 4.125 1.625 4.125 1 6 C-1.97 5.505 -1.97 5.505 -5 5 C-4 3 -4 3 -1 2 C-0.67 1.34 -0.34 0.68 0 0 Z " fill="#000000" transform="translate(154,208)"/>
<path d="M0 0 C1.265 2.529 0.725 3.342 0 6 C0 6.99 0 7.98 0 9 C-1.5 10.688 -1.5 10.688 -3 12 C-2.492 7.682 -1.803 3.967 0 0 Z " fill="#0C0C0C" transform="translate(269,191)"/>
<path d="M0 0 C0.99 0.33 1.98 0.66 3 1 C2.67 2.65 2.34 4.3 2 6 C0.68 5.67 -0.64 5.34 -2 5 C-1.34 3.35 -0.68 1.7 0 0 Z " fill="#787878" transform="translate(227,269)"/>
<path d="M0 0 C0.33 0.66 0.66 1.32 1 2 C2.98 1.67 4.96 1.34 7 1 C4.145 2.903 2.581 3.462 -0.688 4.125 C-1.496 4.293 -2.304 4.46 -3.137 4.633 C-3.752 4.754 -4.366 4.875 -5 5 C-3.35 3.35 -1.7 1.7 0 0 Z " fill="#000000" transform="translate(205,253)"/>
<path d="M0 0 C1.875 0.125 1.875 0.125 4 1 C5.25 4.062 5.25 4.062 6 7 C4.02 6.34 2.04 5.68 0 5 C0.66 4.01 1.32 3.02 2 2 C1.34 1.34 0.68 0.68 0 0 Z " fill="#0D0D0D" transform="translate(106,133)"/>
<path d="M0 0 C0.289 0.639 0.577 1.279 0.875 1.938 C1.828 4.152 1.828 4.152 4 5 C2.625 6.5 2.625 6.5 1 8 C0.34 8 -0.32 8 -1 8 C-0.67 5.36 -0.34 2.72 0 0 Z " fill="#2D2D2D" transform="translate(263,206)"/>
</svg>
