<?xml version="1.0" encoding="UTF-8"?>
<!-- Generator: visioncortex VTracer 0.6.4 -->
<svg version="1.1" xmlns="http://www.w3.org/2000/svg" width="325" height="311">
<path d="M0 0 C107.25 0 214.5 0 325 0 C325 102.63 325 205.26 325 311 C217.75 311 110.5 311 0 311 C0 208.37 0 105.74 0 0 Z " fill="#F7F7F7" transform="translate(0,0)"/>
<path d="M0 0 C0.808 0.102 1.616 0.204 2.449 0.309 C3.064 0.392 3.679 0.476 4.312 0.562 C4.56 1.367 4.808 2.171 5.062 3 C5.475 3.846 5.888 4.691 6.312 5.562 C8.337 6.215 8.337 6.215 10.312 6.562 C10.808 8.047 10.808 8.047 11.312 9.562 C13.328 10.296 13.328 10.296 15.312 10.562 C15.312 11.222 15.312 11.883 15.312 12.562 C15.862 12.793 16.411 13.024 16.977 13.262 C19.966 14.927 22.188 17.04 24.688 19.375 C27.73 22.197 30.751 24.98 34 27.562 C34.763 28.222 35.526 28.883 36.312 29.562 C36.312 30.222 36.312 30.883 36.312 31.562 C37.303 31.562 38.293 31.562 39.312 31.562 C39.312 32.222 39.312 32.883 39.312 33.562 C39.972 33.562 40.632 33.562 41.312 33.562 C44.021 45.979 46.626 58.363 48.323 70.964 C49.278 79.602 49.278 79.602 52.562 87.438 C66.088 96.133 92.533 94.313 108.043 94.805 C109.126 94.839 110.21 94.874 111.326 94.91 C113.391 94.969 115.456 95.014 117.521 95.045 C122.869 95.188 126.653 95.626 131.312 98.562 C130.982 99.222 130.653 99.882 130.312 100.562 C128.662 99.573 127.012 98.582 125.312 97.562 C125.911 98.14 126.509 98.718 127.125 99.312 C133.425 108.673 134.717 123.448 134.312 134.562 C134.312 135.553 134.312 136.542 134.312 137.562 C132.436 139.439 129.239 138.832 126.729 138.923 C126.041 138.949 125.353 138.975 124.645 139.002 C122.36 139.087 120.074 139.163 117.789 139.238 C117.01 139.264 116.232 139.291 115.43 139.317 C111.309 139.455 107.188 139.586 103.067 139.712 C98.804 139.844 94.541 140 90.279 140.161 C87.007 140.28 83.735 140.381 80.463 140.477 C78.891 140.526 77.319 140.582 75.748 140.646 C73.55 140.733 71.353 140.794 69.155 140.849 C67.903 140.89 66.652 140.932 65.362 140.974 C62.312 140.562 62.312 140.562 60.417 138.678 C58.663 135.318 58.626 132.32 58.312 128.562 C57.322 128.232 56.332 127.903 55.312 127.562 C55.251 128.161 55.189 128.759 55.125 129.375 C54.857 130.097 54.589 130.819 54.312 131.562 C53.485 131.916 52.658 132.27 51.806 132.634 C49.2 134.246 49.2 134.246 48.83 136.375 C48.635 138.796 48.594 141.177 48.605 143.605 C48.583 144.931 48.583 144.931 48.56 146.283 C48.517 149.106 48.508 151.927 48.5 154.75 C48.477 156.663 48.452 158.577 48.424 160.49 C48.361 165.181 48.329 169.871 48.312 174.562 C52.708 173.959 57.104 173.355 61.5 172.75 C62.494 172.614 62.494 172.614 63.507 172.475 C73.207 171.145 73.207 171.145 82.895 169.734 C94.415 168.009 105.949 166.705 117.543 165.564 C118.724 165.448 119.905 165.331 121.121 165.211 C122.171 165.11 123.221 165.008 124.302 164.904 C126.375 164.669 128.442 164.373 130.499 164.028 C133.609 163.513 136.538 163.465 139.688 163.5 C140.747 163.509 141.807 163.518 142.898 163.527 C143.695 163.539 144.492 163.551 145.312 163.562 C145.312 163.893 145.312 164.222 145.312 164.562 C144.007 164.703 142.701 164.844 141.356 164.99 C136.467 165.519 131.579 166.053 126.691 166.589 C124.583 166.819 122.476 167.048 120.368 167.275 C117.322 167.604 114.276 167.938 111.23 168.273 C109.839 168.422 109.839 168.422 108.42 168.574 C102.827 169.195 97.332 170.069 91.802 171.111 C88.715 171.671 85.628 172.053 82.508 172.379 C81.348 172.503 80.188 172.628 78.992 172.756 C77.819 172.878 76.646 172.999 75.438 173.125 C73.065 173.374 70.692 173.626 68.32 173.879 C67.285 173.987 66.25 174.094 65.184 174.205 C62.522 174.536 59.94 175.031 57.312 175.562 C55.543 175.627 53.771 175.649 52 175.625 C51.117 175.616 50.234 175.607 49.324 175.598 C48.328 175.58 48.328 175.58 47.312 175.562 C47.312 177.542 47.312 179.523 47.312 181.562 C48.102 181.452 48.891 181.341 49.705 181.227 C76.228 177.516 76.228 177.516 87.303 176.277 C91.592 175.789 95.857 175.199 100.125 174.561 C114.585 172.401 129.109 170.862 143.642 169.292 C148.407 168.776 153.169 168.235 157.93 167.676 C171.058 166.142 184.1 164.999 197.312 164.562 C194.36 167.515 191.004 167.139 187.023 167.414 C186.205 167.478 185.387 167.542 184.543 167.607 C181.925 167.809 179.307 167.999 176.688 168.188 C174.914 168.322 173.141 168.457 171.367 168.594 C167.016 168.926 162.665 169.247 158.312 169.562 C160.883 169.409 163.453 169.254 166.023 169.098 C166.748 169.055 167.472 169.012 168.219 168.967 C171.809 168.747 175.373 168.489 178.938 168 C185.029 167.24 191.186 167.484 197.312 167.562 C197.312 167.893 197.312 168.222 197.312 168.562 C180.265 170.319 163.218 171.832 146.125 173.062 C131.425 174.127 116.787 175.454 102.142 177.131 C97.624 177.64 93.103 178.124 88.582 178.605 C86.885 178.787 85.188 178.968 83.491 179.149 C80.985 179.416 78.479 179.683 75.973 179.949 C73.651 180.196 71.329 180.445 69.008 180.695 C68.318 180.768 67.629 180.841 66.919 180.916 C64.032 181.228 61.187 181.586 58.332 182.117 C54.606 182.667 51.077 182.627 47.312 182.562 C47.304 183.163 47.296 183.763 47.288 184.381 C46.862 215.48 46.173 246.514 44.312 277.562 C43.653 277.892 42.993 278.223 42.312 278.562 C42.091 256.99 42.238 235.505 43.389 213.959 C44.104 200.577 44.59 187.21 44.875 173.812 C45.17 160.051 45.564 146.309 46.312 132.562 C45.222 136.59 44.995 140.535 44.812 144.688 C44.752 146 44.752 146 44.689 147.34 C44.206 158.685 44.001 170.039 43.75 181.391 C43.521 191.716 43.27 202.025 42.688 212.337 C42.084 223.762 41.937 235.211 41.705 246.649 C41.486 256.977 41.055 267.257 40.312 277.562 C39.983 277.562 39.653 277.562 39.312 277.562 C39.257 263.555 39.397 249.566 39.75 235.562 C39.772 234.64 39.795 233.718 39.818 232.768 C40.051 223.194 40.3 213.626 40.812 204.062 C41.165 197.27 41.418 190.483 41.562 183.684 C41.583 182.781 41.604 181.879 41.625 180.949 C41.73 176.361 41.828 171.772 41.92 167.184 C42.169 155.296 42.656 143.435 43.312 131.562 C42.653 131.562 41.993 131.562 41.312 131.562 C41.292 132.323 41.271 133.084 41.25 133.868 C40.986 143.579 40.715 153.29 40.438 163 C40.404 164.167 40.404 164.167 40.37 165.358 C39.807 185.044 39.173 204.717 38.123 224.384 C37.178 242.102 36.7 259.825 36.312 277.562 C35.983 277.562 35.653 277.562 35.312 277.562 C35.097 255.914 35.202 234.353 36.388 212.733 C37.695 188.695 37.971 164.63 38.312 140.562 C37.629 153.671 37.132 166.768 36.867 179.891 C36.385 203.555 36.385 203.555 35.812 214.062 C35.452 220.949 35.205 227.829 35.062 234.723 C35.02 236.609 34.978 238.496 34.936 240.383 C34.854 244.137 34.778 247.891 34.705 251.645 C34.521 260.651 34.259 269.596 33.312 278.562 C32.653 278.562 31.993 278.562 31.312 278.562 C31.122 246.271 31.122 246.271 31.886 233.31 C32.439 223.402 32.598 213.482 32.812 203.562 C33.296 181.257 33.296 181.257 33.875 171.188 C34.593 158.659 34.401 146.106 34.312 133.562 C34.287 134.158 34.262 134.753 34.237 135.367 C34.121 138.057 33.998 140.747 33.875 143.438 C33.836 144.375 33.796 145.312 33.756 146.277 C33.693 147.621 33.693 147.621 33.629 148.992 C33.592 149.82 33.556 150.647 33.518 151.5 C33.312 153.562 33.312 153.562 32.312 155.562 C29.75 156.187 29.75 156.187 27.312 156.562 C27.354 157.47 27.395 158.377 27.438 159.312 C27.315 162.49 27.069 163.975 25.312 166.562 C22.109 168.698 21.293 168.794 17.625 168.688 C16.817 168.669 16.009 168.651 15.176 168.633 C14.561 168.61 13.946 168.586 13.312 168.562 C13.274 169.667 13.274 169.667 13.234 170.793 C12.671 180.485 12.671 180.485 8.312 184.562 C9.401 178.805 10.606 173.17 12.312 167.562 C12.927 167.502 13.542 167.441 14.176 167.379 C14.984 167.295 15.792 167.211 16.625 167.125 C17.426 167.044 18.226 166.963 19.051 166.879 C21.473 166.61 21.473 166.61 24.312 165.562 C24.642 162.262 24.972 158.963 25.312 155.562 C24.069 155.377 24.069 155.377 22.801 155.188 C18.976 154.502 15.248 153.572 11.5 152.562 C10.48 152.296 10.48 152.296 9.439 152.023 C4.437 150.687 4.437 150.687 3.312 149.562 C3.24 147.376 3.229 145.187 3.25 143 C3.259 141.802 3.268 140.605 3.277 139.371 C3.289 138.444 3.301 137.517 3.312 136.562 C2.653 136.562 1.993 136.562 1.312 136.562 C-2.277 117.732 -2.844 98.668 -3.688 79.562 C-3.028 79.562 -2.368 79.562 -1.688 79.562 C-1.637 80.56 -1.587 81.557 -1.536 82.585 C-1.345 86.343 -1.145 90.1 -0.943 93.857 C-0.857 95.472 -0.774 97.088 -0.693 98.704 C-0.22 108.114 0.454 117.3 2.312 126.562 C2.642 124.252 2.972 121.942 3.312 119.562 C3.642 119.562 3.972 119.562 4.312 119.562 C4.312 128.472 4.312 137.382 4.312 146.562 C6.292 146.562 8.273 146.562 10.312 146.562 C10.307 145.841 10.302 145.119 10.297 144.375 C10.276 141.125 10.263 137.875 10.25 134.625 C10.242 133.489 10.233 132.352 10.225 131.182 C10.221 130.102 10.218 129.022 10.215 127.91 C10.21 126.91 10.204 125.91 10.199 124.879 C10.312 122.562 10.312 122.562 11.312 121.562 C14.429 121.449 17.523 121.398 20.641 121.395 C21.582 121.391 22.523 121.388 23.493 121.384 C25.49 121.379 27.487 121.377 29.485 121.377 C32.536 121.375 35.586 121.357 38.637 121.338 C40.576 121.335 42.514 121.333 44.453 121.332 C45.365 121.325 46.276 121.318 47.216 121.31 C51.691 121.326 55.249 121.437 59.312 123.562 C58.561 120.285 58.561 120.285 55.312 118.562 C39.199 115.549 21.587 117.922 5.312 118.562 C5.312 117.903 5.312 117.243 5.312 116.562 C11.583 116.233 17.852 115.903 24.312 115.562 C24.251 113.995 24.189 112.428 24.125 110.812 C24.09 109.931 24.055 109.049 24.02 108.141 C23.543 105.346 23.543 105.346 20.903 103.824 C17.642 100.977 17.169 98.978 16.164 94.801 C15.924 93.816 15.924 93.816 15.678 92.811 C13.958 85.527 12.794 78.148 11.688 70.75 C10.913 65.685 10.117 60.623 9.312 55.562 C9.163 54.539 9.014 53.515 8.86 52.459 C8.713 51.561 8.566 50.663 8.414 49.738 C8.296 48.97 8.178 48.203 8.057 47.411 C7.044 44.897 5.74 44.617 3.312 43.562 C2.673 42.758 2.034 41.954 1.375 41.125 C-0.779 38.449 -2.773 37.295 -5.688 35.562 C-6.017 34.572 -6.347 33.583 -6.688 32.562 C-8.703 31.829 -8.703 31.829 -10.688 31.562 C-10.688 30.903 -10.688 30.242 -10.688 29.562 C-11.347 29.562 -12.007 29.562 -12.688 29.562 C-12.688 28.573 -12.688 27.582 -12.688 26.562 C-13.409 26.501 -14.131 26.439 -14.875 26.375 C-18.587 25.303 -20.2 23.465 -22.688 20.562 C-23.017 19.573 -23.347 18.582 -23.688 17.562 C-24.347 17.562 -25.007 17.562 -25.688 17.562 C-26.895 13.939 -26.231 12.921 -24.688 9.562 C-24.028 10.222 -23.368 10.883 -22.688 11.562 C-21.821 11.129 -20.955 10.696 -20.062 10.25 C-18.949 9.693 -17.835 9.136 -16.688 8.562 C-15.615 8.006 -14.543 7.449 -13.438 6.875 C-10.688 5.562 -10.688 5.562 -8.688 5.562 C-8.358 3.913 -8.028 2.262 -7.688 0.562 C-4.593 -0.469 -3.161 -0.412 0 0 Z " fill="#EBEBEB" transform="translate(118.6875,23.4375)"/>
<path d="M0 0 C0.66 0 1.32 0 2 0 C2.05 0.997 2.1 1.995 2.152 3.022 C2.343 6.78 2.542 10.537 2.745 14.294 C2.83 15.91 2.914 17.525 2.995 19.141 C3.467 28.552 4.142 37.737 6 47 C6.33 44.69 6.66 42.38 7 40 C7.33 40 7.66 40 8 40 C8 48.91 8 57.82 8 67 C9.98 67 11.96 67 14 67 C13.995 66.278 13.99 65.556 13.984 64.813 C13.963 61.563 13.95 58.313 13.938 55.062 C13.929 53.926 13.921 52.79 13.912 51.619 C13.909 50.54 13.906 49.46 13.902 48.348 C13.897 47.347 13.892 46.347 13.886 45.317 C14 43 14 43 15 42 C18.117 41.886 21.211 41.836 24.328 41.832 C25.74 41.827 25.74 41.827 27.18 41.822 C29.178 41.817 31.175 41.815 33.172 41.815 C36.223 41.813 39.274 41.794 42.324 41.775 C44.263 41.772 46.202 41.77 48.141 41.77 C49.052 41.762 49.964 41.755 50.903 41.748 C55.378 41.764 58.937 41.874 63 44 C62.002 41.007 61.248 40.052 59 38 C59.66 38 60.32 38 61 38 C61 37.01 61 36.02 61 35 C51.229 33.126 41.896 32.771 32 33 C35 31 35 31 39 31 C39.33 28.03 39.66 25.06 40 22 C39.34 21.67 38.68 21.34 38 21 C39 20 39 20 41.801 19.867 C43.539 19.871 43.539 19.871 45.312 19.875 C46.464 19.872 47.615 19.87 48.801 19.867 C51.413 19.976 53.523 20.229 56 21 C56 21.66 56 22.32 56 23 C55.34 23 54.68 23 54 23 C54 25.97 54 28.94 54 32 C55.918 32.186 55.918 32.186 57.875 32.375 C61.75 32.75 61.75 32.75 64 35 C64.195 38.039 64.195 38.039 64.125 41.625 C64.107 42.814 64.089 44.002 64.07 45.227 C64.047 46.142 64.024 47.057 64 48 C62.35 48 60.7 48 59 48 C58.907 48.897 58.907 48.897 58.812 49.812 C58.544 50.534 58.276 51.256 58 52 C57.173 52.354 56.346 52.707 55.493 53.072 C52.888 54.684 52.888 54.684 52.517 56.812 C52.323 59.233 52.282 61.614 52.293 64.043 C52.278 64.927 52.263 65.81 52.247 66.721 C52.204 69.543 52.195 72.365 52.188 75.188 C52.164 77.101 52.139 79.014 52.111 80.928 C52.048 85.619 52.016 90.309 52 95 C56.396 94.397 60.792 93.792 65.188 93.188 C65.85 93.097 66.512 93.006 67.195 92.912 C76.894 91.583 76.894 91.583 86.582 90.172 C98.103 88.446 109.637 87.143 121.23 86.002 C122.411 85.885 123.592 85.769 124.809 85.648 C125.858 85.547 126.908 85.446 127.99 85.341 C130.063 85.106 132.129 84.811 134.186 84.466 C137.296 83.951 140.225 83.903 143.375 83.938 C144.435 83.947 145.494 83.956 146.586 83.965 C147.781 83.982 147.781 83.982 149 84 C149 84.33 149 84.66 149 85 C147.694 85.141 146.389 85.282 145.044 85.427 C140.155 85.956 135.266 86.491 130.378 87.026 C128.271 87.257 126.163 87.485 124.056 87.713 C121.01 88.042 117.964 88.376 114.918 88.711 C113.99 88.81 113.063 88.909 112.107 89.011 C106.514 89.632 101.019 90.506 95.49 91.549 C92.402 92.108 89.316 92.49 86.195 92.816 C85.035 92.941 83.875 93.065 82.68 93.193 C81.507 93.315 80.334 93.437 79.125 93.562 C76.752 93.812 74.38 94.063 72.008 94.316 C70.973 94.424 69.938 94.532 68.872 94.643 C66.209 94.974 63.628 95.469 61 96 C59.23 96.065 57.458 96.086 55.688 96.062 C54.363 96.049 54.363 96.049 53.012 96.035 C52.348 96.024 51.684 96.012 51 96 C51 97.98 51 99.96 51 102 C51.789 101.889 52.579 101.779 53.392 101.665 C79.916 97.954 79.916 97.954 90.991 96.715 C95.279 96.227 99.544 95.637 103.813 94.998 C118.273 92.839 132.796 91.3 147.329 89.73 C152.095 89.213 156.857 88.673 161.617 88.113 C174.745 86.579 187.788 85.437 201 85 C198.048 87.952 194.691 87.576 190.711 87.852 C189.893 87.915 189.074 87.979 188.231 88.045 C185.613 88.247 182.994 88.436 180.375 88.625 C178.601 88.76 176.828 88.895 175.055 89.031 C170.704 89.364 166.352 89.685 162 90 C164.57 89.847 167.141 89.692 169.711 89.535 C170.797 89.471 170.797 89.471 171.906 89.405 C175.497 89.185 179.06 88.927 182.625 88.438 C188.716 87.678 194.874 87.922 201 88 C201 88.33 201 88.66 201 89 C183.953 90.756 166.906 92.27 149.812 93.5 C135.112 94.564 120.474 95.892 105.83 97.569 C101.311 98.078 96.791 98.562 92.27 99.043 C90.573 99.224 88.875 99.405 87.178 99.586 C84.672 99.854 82.166 100.121 79.66 100.387 C77.338 100.634 75.017 100.883 72.695 101.133 C72.006 101.206 71.317 101.278 70.606 101.353 C67.719 101.666 64.875 102.023 62.019 102.554 C58.293 103.104 54.765 103.065 51 103 C50.992 103.6 50.984 104.2 50.975 104.819 C50.549 135.917 49.86 166.951 48 198 C47.34 198.33 46.68 198.66 46 199 C45.779 177.428 45.926 155.942 47.077 134.396 C47.791 121.015 48.278 107.648 48.562 94.25 C48.857 80.488 49.251 66.746 50 53 C48.909 57.027 48.683 60.973 48.5 65.125 C48.439 66.438 48.439 66.438 48.377 67.777 C47.894 79.122 47.688 90.477 47.438 101.829 C47.209 112.153 46.958 122.463 46.375 132.774 C45.771 144.2 45.625 155.648 45.393 167.086 C45.173 177.415 44.743 187.695 44 198 C43.67 198 43.34 198 43 198 C42.944 183.992 43.084 170.003 43.438 156 C43.46 155.078 43.482 154.156 43.505 153.206 C43.739 143.632 43.987 134.064 44.5 124.5 C44.853 117.708 45.105 110.921 45.25 104.121 C45.271 103.219 45.291 102.316 45.313 101.386 C45.417 96.798 45.515 92.21 45.607 87.621 C45.856 75.733 46.344 63.872 47 52 C46.34 52 45.68 52 45 52 C44.969 53.141 44.969 53.141 44.938 54.306 C44.673 64.016 44.402 73.727 44.125 83.438 C44.092 84.605 44.092 84.605 44.058 85.795 C43.494 105.482 42.86 125.154 41.81 144.822 C40.865 162.54 40.388 180.262 40 198 C39.67 198 39.34 198 39 198 C38.785 176.352 38.89 154.79 40.076 133.17 C41.382 109.132 41.659 85.068 42 61 C41.316 74.109 40.82 87.205 40.554 100.329 C40.072 123.992 40.072 123.992 39.5 134.5 C39.14 141.386 38.892 148.266 38.75 155.16 C38.708 157.047 38.665 158.934 38.623 160.82 C38.541 164.574 38.465 168.328 38.393 172.082 C38.208 181.089 37.946 190.033 37 199 C36.34 199 35.68 199 35 199 C34.81 166.709 34.81 166.709 35.574 153.747 C36.127 143.839 36.285 133.92 36.5 124 C36.984 101.695 36.984 101.695 37.562 91.625 C38.281 79.097 38.089 66.544 38 54 C37.962 54.893 37.962 54.893 37.924 55.804 C37.808 58.495 37.685 61.185 37.562 63.875 C37.523 64.812 37.484 65.749 37.443 66.715 C37.381 68.059 37.381 68.059 37.316 69.43 C37.261 70.671 37.261 70.671 37.205 71.937 C37 74 37 74 36 76 C33.438 76.625 33.438 76.625 31 77 C31.041 77.907 31.083 78.815 31.125 79.75 C31.003 82.927 30.756 84.412 29 87 C25.796 89.136 24.981 89.231 21.312 89.125 C20.504 89.107 19.696 89.089 18.863 89.07 C18.248 89.047 17.634 89.024 17 89 C16.974 89.736 16.948 90.472 16.922 91.23 C16.359 100.923 16.359 100.923 12 105 C13.089 99.242 14.293 93.608 16 88 C16.615 87.939 17.23 87.879 17.863 87.816 C18.672 87.733 19.48 87.649 20.312 87.562 C21.513 87.441 21.513 87.441 22.738 87.316 C25.161 87.047 25.161 87.047 28 86 C28.33 82.7 28.66 79.4 29 76 C28.171 75.876 27.342 75.752 26.488 75.625 C22.664 74.94 18.936 74.009 15.188 73 C14.168 72.733 14.168 72.733 13.127 72.461 C8.124 71.124 8.124 71.124 7 70 C6.927 67.814 6.916 65.625 6.938 63.438 C6.947 62.24 6.956 61.042 6.965 59.809 C6.976 58.882 6.988 57.955 7 57 C6.34 57 5.68 57 5 57 C1.411 38.169 0.844 19.105 0 0 Z " fill="#000000" transform="translate(115,103)"/>
<path d="M0 0 C1.738 0.004 1.738 0.004 3.512 0.008 C4.663 0.005 5.814 0.003 7 0 C9.612 0.108 11.722 0.362 14.199 1.133 C14.199 1.793 14.199 2.453 14.199 3.133 C13.539 3.133 12.879 3.133 12.199 3.133 C12.199 6.103 12.199 9.073 12.199 12.133 C14.117 12.318 14.117 12.318 16.074 12.508 C19.949 12.883 19.949 12.883 22.199 15.133 C22.395 18.172 22.395 18.172 22.324 21.758 C22.306 22.946 22.288 24.135 22.27 25.359 C22.246 26.275 22.223 27.19 22.199 28.133 C20.549 28.133 18.899 28.133 17.199 28.133 C17.106 29.03 17.106 29.03 17.012 29.945 C16.744 30.667 16.475 31.389 16.199 32.133 C14.958 32.663 14.958 32.663 13.693 33.204 C11.087 34.816 11.087 34.816 10.717 36.945 C10.522 39.366 10.481 41.747 10.492 44.176 C10.477 45.059 10.462 45.943 10.446 46.853 C10.403 49.676 10.395 52.497 10.387 55.32 C10.364 57.234 10.338 59.147 10.311 61.061 C10.248 65.751 10.215 70.442 10.199 75.133 C14.595 74.53 18.991 73.925 23.387 73.32 C24.049 73.229 24.712 73.139 25.394 73.045 C35.093 71.716 35.093 71.716 44.781 70.305 C56.302 68.579 67.836 67.276 79.43 66.135 C80.61 66.018 81.791 65.901 83.008 65.781 C84.058 65.68 85.108 65.579 86.189 65.474 C88.262 65.239 90.328 64.943 92.385 64.598 C95.496 64.084 98.424 64.035 101.574 64.07 C103.164 64.084 103.164 64.084 104.785 64.098 C105.582 64.109 106.378 64.121 107.199 64.133 C107.199 64.463 107.199 64.793 107.199 65.133 C105.894 65.274 104.588 65.415 103.243 65.56 C98.354 66.089 93.466 66.623 88.577 67.159 C86.47 67.389 84.363 67.618 82.255 67.846 C79.209 68.175 76.163 68.509 73.117 68.844 C72.19 68.943 71.262 69.042 70.306 69.144 C64.713 69.765 59.218 70.639 53.689 71.682 C50.601 72.241 47.515 72.623 44.395 72.949 C43.234 73.074 42.074 73.198 40.879 73.326 C39.706 73.448 38.533 73.57 37.324 73.695 C34.952 73.945 32.579 74.196 30.207 74.449 C29.172 74.557 28.137 74.665 27.071 74.776 C24.408 75.107 21.827 75.601 19.199 76.133 C17.429 76.197 15.658 76.219 13.887 76.195 C12.562 76.182 12.562 76.182 11.211 76.168 C10.547 76.156 9.883 76.145 9.199 76.133 C9.199 78.113 9.199 80.093 9.199 82.133 C9.989 82.022 10.778 81.911 11.592 81.797 C38.115 78.086 38.115 78.086 49.19 76.848 C53.479 76.359 57.743 75.77 62.012 75.131 C76.472 72.972 90.996 71.433 105.528 69.862 C110.294 69.346 115.056 68.806 119.816 68.246 C132.944 66.712 145.987 65.57 159.199 65.133 C156.247 68.085 152.89 67.709 148.91 67.984 C148.092 68.048 147.273 68.112 146.43 68.178 C143.812 68.38 141.193 68.569 138.574 68.758 C136.801 68.892 135.027 69.028 133.254 69.164 C128.903 69.497 124.551 69.818 120.199 70.133 C122.77 69.98 125.34 69.824 127.91 69.668 C128.997 69.603 128.997 69.603 130.105 69.538 C133.696 69.318 137.26 69.059 140.824 68.57 C146.915 67.81 153.073 68.054 159.199 68.133 C159.199 68.463 159.199 68.793 159.199 69.133 C142.152 70.889 125.105 72.403 108.012 73.633 C93.312 74.697 78.673 76.024 64.029 77.702 C59.511 78.21 54.99 78.695 50.469 79.176 C48.772 79.357 47.075 79.538 45.378 79.719 C42.872 79.986 40.366 80.253 37.86 80.52 C35.538 80.766 33.216 81.016 30.895 81.266 C30.205 81.338 29.516 81.411 28.805 81.486 C25.919 81.799 23.074 82.156 20.218 82.687 C16.493 83.237 12.964 83.198 9.199 83.133 C9.191 83.733 9.183 84.333 9.175 84.952 C8.749 116.05 8.06 147.084 6.199 178.133 C5.539 178.463 4.879 178.793 4.199 179.133 C3.978 157.56 4.125 136.075 5.276 114.529 C6.083 99.423 6.563 84.331 6.866 69.207 C7.072 59.137 7.366 49.087 8.158 39.042 C8.359 36.497 8.359 36.497 8.199 33.133 C4.867 30.911 3.978 30.952 0.137 31.133 C-2.523 31.258 -2.523 31.258 -4.801 31.133 C-5.461 30.473 -6.121 29.813 -6.801 29.133 C-6.426 27.008 -6.426 27.008 -5.801 25.133 C-4.151 24.803 -2.501 24.473 -0.801 24.133 C-0.801 23.803 -0.801 23.473 -0.801 23.133 C2.914 22.279 6.39 21.97 10.199 21.945 C11.715 21.924 11.715 21.924 13.262 21.902 C16.288 22.14 18.461 22.86 21.199 24.133 C20.201 21.139 19.447 20.185 17.199 18.133 C17.859 18.133 18.519 18.133 19.199 18.133 C19.199 17.143 19.199 16.153 19.199 15.133 C9.428 13.259 0.096 12.904 -9.801 13.133 C-6.801 11.133 -6.801 11.133 -2.801 11.133 C-2.471 8.163 -2.141 5.193 -1.801 2.133 C-2.461 1.803 -3.121 1.473 -3.801 1.133 C-2.801 0.133 -2.801 0.133 0 0 Z " fill="#101010" transform="translate(156.80078125,122.8671875)"/>
<path d="M0 0 C0.808 0.102 1.616 0.204 2.449 0.309 C3.064 0.392 3.679 0.476 4.312 0.562 C4.56 1.367 4.808 2.171 5.062 3 C5.475 3.846 5.888 4.691 6.312 5.562 C8.337 6.215 8.337 6.215 10.312 6.562 C10.642 7.553 10.972 8.543 11.312 9.562 C13.328 10.296 13.328 10.296 15.312 10.562 C15.312 11.222 15.312 11.883 15.312 12.562 C15.862 12.793 16.411 13.024 16.977 13.262 C19.966 14.927 22.188 17.04 24.688 19.375 C27.73 22.197 30.751 24.98 34 27.562 C34.763 28.222 35.526 28.883 36.312 29.562 C36.312 30.222 36.312 30.883 36.312 31.562 C37.303 31.562 38.292 31.562 39.312 31.562 C39.312 32.222 39.312 32.883 39.312 33.562 C39.972 33.562 40.632 33.562 41.312 33.562 C44.021 45.979 46.626 58.363 48.323 70.964 C49.278 79.602 49.278 79.602 52.562 87.438 C66.088 96.133 92.533 94.313 108.043 94.805 C109.126 94.839 110.21 94.874 111.326 94.91 C113.391 94.969 115.456 95.014 117.521 95.045 C122.869 95.188 126.653 95.626 131.312 98.562 C130.982 99.222 130.653 99.882 130.312 100.562 C128.662 99.573 127.012 98.582 125.312 97.562 C125.911 98.14 126.509 98.718 127.125 99.312 C131.725 106.148 132.78 114.46 132.312 122.562 C131.982 122.562 131.653 122.562 131.312 122.562 C131.119 121.621 130.926 120.68 130.727 119.711 C130.466 118.466 130.206 117.22 129.938 115.938 C129.682 114.708 129.427 113.478 129.164 112.211 C128.061 105.828 128.061 105.828 124.188 101.188 C123.569 100.981 122.95 100.775 122.312 100.562 C122.312 100.892 122.312 101.222 122.312 101.562 C121.134 101.643 119.956 101.723 118.743 101.806 C114.28 102.112 109.819 102.422 105.357 102.734 C103.443 102.868 101.529 102.999 99.615 103.13 C89.144 103.844 78.705 104.62 68.29 105.934 C63.584 106.507 59.043 106.639 54.312 106.562 C54.312 106.233 54.312 105.903 54.312 105.562 C66.197 103.858 78.012 102.297 90.019 101.854 C94.838 101.675 99.534 101.22 104.312 100.562 C103.159 100.525 102.005 100.488 100.816 100.449 C90.921 100.073 81.092 99.353 71.25 98.25 C70.229 98.145 69.208 98.039 68.156 97.93 C51.071 95.905 51.071 95.905 46.281 90.102 C44.819 84.759 43.762 79.393 42.812 73.938 C42.597 72.744 42.382 71.551 42.161 70.322 C40.708 62.154 39.392 53.968 38.301 45.744 C37.75 41.749 37.027 38.226 35.312 34.562 C34.653 34.562 33.993 34.562 33.312 34.562 C33.312 33.903 33.312 33.242 33.312 32.562 C32.758 32.327 32.204 32.091 31.633 31.848 C28.748 30.25 26.601 28.244 24.188 26 C20.997 22.925 20.997 22.925 17.312 20.562 C17.312 19.903 17.312 19.242 17.312 18.562 C16.322 18.233 15.333 17.903 14.312 17.562 C14.312 16.903 14.312 16.242 14.312 15.562 C13.456 15.195 13.456 15.195 12.582 14.82 C9.936 13.354 8.146 11.564 6 9.438 C3.045 6.786 1.753 5.657 -2.188 4.812 C-6.056 5.642 -9.257 6.99 -12.77 8.785 C-13.402 9.042 -14.035 9.298 -14.688 9.562 C-15.347 9.233 -16.007 8.903 -16.688 8.562 C-10.938 5.562 -10.938 5.562 -8.688 5.562 C-8.358 3.913 -8.028 2.262 -7.688 0.562 C-4.593 -0.469 -3.161 -0.412 0 0 Z " fill="#8E8E8E" transform="translate(118.6875,23.4375)"/>
<path d="M0 0 C1.186 0.008 1.186 0.008 2.396 0.016 C3.677 0.021 3.677 0.021 4.984 0.026 C5.882 0.034 6.78 0.042 7.705 0.051 C8.607 0.056 9.508 0.06 10.437 0.065 C12.672 0.077 14.907 0.093 17.142 0.114 C16.152 0.444 15.162 0.774 14.142 1.114 C14.802 3.424 15.462 5.734 16.142 8.114 C15.482 8.114 14.822 8.114 14.142 8.114 C14.142 15.374 14.142 22.634 14.142 30.114 C2.892 28.989 2.892 28.989 -2.858 27.114 C-2.198 26.784 -1.538 26.454 -0.858 26.114 C-0.858 18.524 -0.858 10.934 -0.858 3.114 C-1.188 10.374 -1.518 17.634 -1.858 25.114 C-2.188 25.114 -2.518 25.114 -2.858 25.114 C-2.887 21.134 -2.904 17.155 -2.92 13.176 C-2.929 12.04 -2.937 10.903 -2.946 9.733 C-2.949 8.653 -2.952 7.573 -2.955 6.461 C-2.961 5.461 -2.966 4.461 -2.971 3.43 C-2.812 0.172 -2.812 0.172 0 0 Z " fill="#FEFEFE" transform="translate(132.857666015625,145.886474609375)"/>
<path d="M0 0 C1.65 0 3.3 0 5 0 C5.075 1.54 5.075 1.54 5.152 3.111 C5.344 7.014 5.543 10.917 5.745 14.819 C5.83 16.491 5.913 18.162 5.995 19.834 C6.434 28.835 6.995 37.798 7.984 46.758 C8.064 47.478 8.143 48.197 8.225 48.939 C10.417 67.985 10.417 67.985 20 84 C22.619 85.79 22.619 85.79 25 87 C23 88 23 88 21.266 87.469 C14.384 84.161 10.49 80.681 7.59 73.516 C4.711 65.246 3.042 56.924 2.21 48.203 C1.973 45.718 1.706 43.236 1.441 40.754 C0.065 27.145 -0.248 13.671 0 0 Z " fill="#FFFFFF" transform="translate(100,102)"/>
<path d="M0 0 C1.562 1.625 1.562 1.625 1.562 4.625 C0.942 4.462 0.321 4.299 -0.319 4.131 C-4.668 3.425 -8.934 3.503 -13.332 3.527 C-14.279 3.529 -15.227 3.53 -16.203 3.532 C-19.219 3.537 -22.234 3.55 -25.25 3.562 C-27.299 3.568 -29.348 3.572 -31.396 3.576 C-36.41 3.586 -41.424 3.606 -46.438 3.625 C-46.768 11.545 -47.097 19.465 -47.438 27.625 C-49.418 27.625 -51.397 27.625 -53.438 27.625 C-53.495 23.167 -53.531 18.709 -53.562 14.25 C-53.579 12.979 -53.596 11.708 -53.613 10.398 C-53.62 9.187 -53.626 7.975 -53.633 6.727 C-53.649 5.046 -53.649 5.046 -53.665 3.331 C-53.438 0.625 -53.438 0.625 -51.438 -1.375 C-48.97 -1.694 -48.97 -1.694 -45.863 -1.789 C-44.727 -1.828 -43.591 -1.867 -42.421 -1.907 C-41.21 -1.938 -39.998 -1.968 -38.75 -2 C-37.524 -2.037 -36.299 -2.074 -35.036 -2.113 C-5.262 -2.968 -5.262 -2.968 0 0 Z " fill="#FFFFFF" transform="translate(176.4375,142.375)"/>
<path d="M0 0 C0.66 0 1.32 0 2 0 C2.05 0.997 2.1 1.995 2.152 3.022 C2.343 6.78 2.542 10.537 2.745 14.294 C2.83 15.91 2.914 17.525 2.995 19.141 C3.467 28.552 4.142 37.737 6 47 C6.33 44.69 6.66 42.38 7 40 C7.33 40 7.66 40 8 40 C8 48.91 8 57.82 8 67 C11.465 66.505 11.465 66.505 15 66 C15.33 59.4 15.66 52.8 16 46 C16.99 45.505 16.99 45.505 18 45 C17.67 52.92 17.34 60.84 17 69 C20.63 70.32 24.26 71.64 28 73 C28 65.08 28 57.16 28 49 C28.33 49 28.66 49 29 49 C29 56.92 29 64.84 29 73 C29.99 73 30.98 73 32 73 C32 65.74 32 58.48 32 51 C33.32 51.33 34.64 51.66 36 52 C35.67 59.59 35.34 67.18 35 75 C24.869 75 24.869 75 21.219 74.16 C20.44 73.984 19.662 73.808 18.859 73.627 C18.081 73.441 17.302 73.254 16.5 73.062 C15.69 72.88 14.881 72.698 14.047 72.51 C8.149 71.149 8.149 71.149 7 70 C6.927 67.814 6.916 65.625 6.938 63.438 C6.947 62.24 6.956 61.042 6.965 59.809 C6.976 58.882 6.988 57.955 7 57 C6.34 57 5.68 57 5 57 C1.411 38.169 0.844 19.105 0 0 Z " fill="#000000" transform="translate(115,103)"/>
<path d="M0 0 C-3.21 1.605 -6.754 1.486 -10.289 1.754 C-11.517 1.852 -11.517 1.852 -12.769 1.951 C-15.387 2.159 -18.006 2.361 -20.625 2.562 C-22.398 2.702 -24.172 2.842 -25.945 2.982 C-30.297 3.326 -34.648 3.664 -39 4 C-36.43 3.847 -33.859 3.692 -31.289 3.535 C-30.565 3.492 -29.84 3.449 -29.094 3.405 C-25.503 3.185 -21.94 2.927 -18.375 2.438 C-12.284 1.678 -6.126 1.922 0 2 C0 2.33 0 2.66 0 3 C-17.047 4.756 -34.094 6.27 -51.188 7.5 C-65.89 8.564 -80.532 9.892 -95.179 11.569 C-99.671 12.076 -104.165 12.561 -108.66 13.043 C-109.913 13.177 -109.913 13.177 -111.191 13.314 C-112.878 13.495 -114.565 13.676 -116.252 13.857 C-120.205 14.281 -124.157 14.706 -128.109 15.133 C-128.788 15.206 -129.467 15.278 -130.167 15.353 C-134.785 15.853 -139.392 16.414 -144 17 C-143.67 16.34 -143.34 15.68 -143 15 C-140.354 14.497 -137.781 14.122 -135.109 13.816 C-134.302 13.716 -133.495 13.616 -132.664 13.513 C-130.027 13.188 -127.389 12.875 -124.75 12.562 C-122.029 12.23 -119.308 11.894 -116.588 11.558 C-114.801 11.338 -113.015 11.118 -111.228 10.9 C-105.242 10.165 -99.275 9.346 -93.312 8.438 C-80.156 6.477 -66.911 5.16 -53.689 3.73 C-48.872 3.208 -44.056 2.668 -39.242 2.113 C-5.456 -1.77 -5.456 -1.77 0 0 Z " fill="#040404" transform="translate(316,189)"/>
<path d="M0 0 C0.632 0.242 1.263 0.485 1.914 0.734 C9.511 3.581 17.178 5.853 25 8 C25.99 12.12 25.871 14.147 24 18 C17.848 17.414 17.848 17.414 16 17 C15.67 16.34 15.34 15.68 15 15 C14.278 14.732 13.556 14.464 12.812 14.188 C9.164 12.647 6.901 10.699 4 8 C4 7.34 4 6.68 4 6 C3.01 5.67 2.02 5.34 1 5 C0.67 3.35 0.34 1.7 0 0 Z " fill="#CFCFCF" transform="translate(119,171)"/>
<path d="M0 0 C3.5 0.31 7 0.624 10.5 0.938 C11.482 1.025 12.465 1.112 13.477 1.201 C14.443 1.288 15.41 1.375 16.406 1.465 C17.286 1.543 18.166 1.622 19.072 1.703 C21.312 1.93 23.546 2.214 25.776 2.522 C30.246 3.089 34.671 3.152 39.172 3.176 C40.905 3.199 42.638 3.223 44.371 3.248 C47.073 3.283 49.773 3.313 52.475 3.326 C55.104 3.341 57.731 3.382 60.359 3.426 C61.167 3.424 61.974 3.422 62.806 3.42 C66.407 3.499 68.557 3.666 71.475 5.865 C75.881 12.033 76.425 20.635 76 28 C75.67 28 75.34 28 75 28 C74.807 27.059 74.613 26.118 74.414 25.148 C74.154 23.903 73.893 22.658 73.625 21.375 C73.37 20.145 73.115 18.915 72.852 17.648 C71.749 11.266 71.749 11.266 67.875 6.625 C67.256 6.419 66.637 6.213 66 6 C66 6.33 66 6.66 66 7 C64.233 7.121 64.233 7.121 62.43 7.244 C57.968 7.549 53.506 7.86 49.044 8.172 C47.13 8.305 45.216 8.437 43.302 8.567 C32.832 9.282 22.393 10.058 11.978 11.371 C7.271 11.945 2.73 12.076 -2 12 C-2 11.67 -2 11.34 -2 11 C9.885 9.296 21.699 7.734 33.706 7.291 C38.525 7.112 43.221 6.657 48 6 C46.846 5.963 45.693 5.925 44.504 5.887 C34.432 5.502 24.451 4.73 14.438 3.562 C13.35 3.44 12.262 3.318 11.141 3.192 C10.124 3.068 9.107 2.944 8.059 2.816 C7.154 2.708 6.25 2.599 5.318 2.487 C3 2 3 2 0 0 Z " fill="#000000" transform="translate(175,118)"/>
<path d="M0 0 C2.625 -0.188 2.625 -0.188 5 0 C5.33 1.65 5.66 3.3 6 5 C6.66 5 7.32 5 8 5 C8.66 3.35 9.32 1.7 10 0 C11.65 0 13.3 0 15 0 C17.029 4.058 17.169 6.617 16 11 C15.34 11.66 14.68 12.32 14 13 C12.68 13 11.36 13 10 13 C10 12.34 10 11.68 10 11 C9.34 11 8.68 11 8 11 C8 10.01 8 9.02 8 8 C7.34 8 6.68 8 6 8 C5.67 9.32 5.34 10.64 5 12 C3.35 12.33 1.7 12.66 0 13 C0 12.34 0 11.68 0 11 C-0.66 11 -1.32 11 -2 11 C-2.25 3.375 -2.25 3.375 0 0 Z " fill="#000000" transform="translate(263,291)"/>
<path d="M0 0 C1.236 0.017 1.236 0.017 2.496 0.035 C3.322 0.044 4.149 0.053 5 0.062 C5.638 0.074 6.276 0.086 6.934 0.098 C6.934 0.758 6.934 1.418 6.934 2.098 C7.594 2.098 8.254 2.098 8.934 2.098 C10.059 9.723 10.059 9.723 8.934 13.098 C8.274 13.098 7.614 13.098 6.934 13.098 C6.934 13.758 6.934 14.418 6.934 15.098 C4.294 15.098 1.654 15.098 -1.066 15.098 C-1.066 14.438 -1.066 13.778 -1.066 13.098 C-2.056 12.768 -3.046 12.438 -4.066 12.098 C-5.09 7.696 -5.149 5.147 -3.066 1.098 C-2.066 0.098 -2.066 0.098 0 0 Z " fill="#B5B5B5" transform="translate(230.06640625,130.90234375)"/>
<path d="M0 0 C3.25 -0.312 3.25 -0.312 7 0 C9.971 2.59 10.88 4.161 11.438 8.062 C10.934 11.443 10.668 12.832 8 15 C5.26 15.508 2.724 15.61 0 15 C-1.738 13.766 -1.738 13.766 -3 12 C-3.293 9.738 -3.293 9.738 -3.188 7.312 C-3.16 6.504 -3.133 5.696 -3.105 4.863 C-3.071 4.248 -3.036 3.634 -3 3 C-2.01 3 -1.02 3 0 3 C0 2.01 0 1.02 0 0 Z " fill="#9A9A9A" transform="translate(190,138)"/>
<path d="M0 0 C2.129 0.312 2.129 0.312 4.691 1.375 C6.85 4.285 6.394 6.803 6.129 10.312 C2.481 12.647 -0.615 12.616 -4.871 12.312 C-7.184 11.688 -7.184 11.688 -8.871 10.312 C-10.121 7.188 -10.121 7.188 -10.871 4.312 C-7.767 -0.007 -5.004 -0.264 0 0 Z " fill="#000000" transform="translate(114.87109375,33.6875)"/>
<path d="M0 0 C0 0.66 0 1.32 0 2 C-20.56 4.526 -41.268 6.526 -62 6 C-58.465 3.643 -55.546 3.397 -51.438 3 C-50.662 2.92 -49.886 2.84 -49.087 2.758 C-32.774 1.134 -16.408 -0.487 0 0 Z " fill="#FFFFFF" transform="translate(240,125)"/>
<path d="M0 0 C0 0.66 0 1.32 0 2 C1.32 2.33 2.64 2.66 4 3 C2.581 3.121 2.581 3.121 1.133 3.244 C-2.461 3.55 -6.054 3.86 -9.647 4.172 C-11.187 4.305 -12.727 4.437 -14.267 4.567 C-23.51 5.353 -32.705 6.288 -41.906 7.478 C-46.339 8.05 -50.778 8.564 -55.219 9.07 C-55.983 9.158 -56.748 9.245 -57.535 9.335 C-59.857 9.599 -62.178 9.862 -64.5 10.125 C-66.113 10.309 -67.727 10.492 -69.34 10.676 C-73.226 11.118 -77.113 11.559 -81 12 C-80.67 11.34 -80.34 10.68 -80 10 C-77.354 9.497 -74.781 9.122 -72.109 8.816 C-71.302 8.716 -70.494 8.616 -69.662 8.513 C-67.025 8.188 -64.388 7.875 -61.75 7.562 C-59.048 7.232 -56.346 6.898 -53.644 6.564 C-51.866 6.345 -50.088 6.126 -48.31 5.909 C-41.923 5.125 -35.552 4.261 -29.188 3.312 C-6.723 0 -6.723 0 0 0 Z " fill="#000000" transform="translate(253,194)"/>
<path d="M0 0 C0.33 0 0.66 0 1 0 C1 7.92 1 15.84 1 24 C1.99 24 2.98 24 4 24 C4 16.74 4 9.48 4 2 C5.32 2.33 6.64 2.66 8 3 C7.67 10.59 7.34 18.18 7 26 C-3.125 26 -3.125 26 -7.062 25 C-7.817 24.814 -8.571 24.629 -9.348 24.438 C-10.166 24.221 -10.166 24.221 -11 24 C-10.34 23.34 -9.68 22.68 -9 22 C-4.545 22.99 -4.545 22.99 0 24 C0 16.08 0 8.16 0 0 Z " fill="#525252" transform="translate(143,152)"/>
<path d="M0 0 C2.563 -0.054 5.124 -0.094 7.688 -0.125 C8.409 -0.142 9.13 -0.159 9.873 -0.176 C14.049 -0.214 17.249 0.121 21 2 C20.67 3.32 20.34 4.64 20 6 C15.705 7.171 12.364 6.677 8 6 C6.742 6.021 5.484 6.041 4.188 6.062 C1 6 1 6 -1 4 C-0.625 1.875 -0.625 1.875 0 0 Z " fill="#FFFFFF" transform="translate(151,148)"/>
<path d="M0 0 C0.33 1.65 0.66 3.3 1 5 C-0.062 4.673 -1.124 4.345 -2.219 4.008 C-7.946 2.576 -13.632 2.784 -19.5 2.875 C-20.609 2.884 -21.717 2.893 -22.859 2.902 C-25.573 2.926 -28.286 2.959 -31 3 C-31 2.01 -31 1.02 -31 0 C-20.336 -3.16 -10.851 -1.905 0 0 Z " fill="#FFFFFF" transform="translate(176,137)"/>
<path d="M0 0 C0.33 0 0.66 0 1 0 C1 3.667 1 7.333 1 11 C-0.882 12.882 -4.119 12.231 -6.631 12.297 C-7.324 12.317 -8.016 12.336 -8.73 12.357 C-11.03 12.421 -13.329 12.478 -15.629 12.535 C-17.219 12.578 -18.81 12.622 -20.4 12.665 C-24.594 12.78 -28.788 12.888 -32.982 12.996 C-37.258 13.106 -41.534 13.222 -45.811 13.338 C-54.207 13.564 -62.603 13.784 -71 14 C-71 13.01 -71 12.02 -71 11 C-69.981 11.008 -69.981 11.008 -68.941 11.016 C-53.938 11.114 -38.937 11.041 -23.937 10.737 C-22.23 10.704 -20.523 10.676 -18.815 10.654 C-16.405 10.621 -13.996 10.569 -11.586 10.512 C-10.862 10.505 -10.138 10.499 -9.393 10.492 C-6.53 10.408 -4.48 10.323 -2.069 8.698 C-0.362 5.986 -0.296 3.138 0 0 Z " fill="#000000" transform="translate(252,150)"/>
<path d="M0 0 C2.312 0.562 2.312 0.562 5 2 C7.95 7.636 9.068 13.402 10.188 19.625 C10.365 20.553 10.542 21.481 10.725 22.438 C12.826 33.762 12.826 33.762 10 38 C9.34 37.67 8.68 37.34 8 37 C8.093 35.484 8.093 35.484 8.188 33.938 C8.2 27.167 6.425 20.583 5 14 C4.822 13.055 4.644 12.11 4.461 11.137 C3.668 7.032 2.961 4.864 0 2 C0 1.34 0 0.68 0 0 Z " fill="#FFFFFF" transform="translate(244,121)"/>
<path d="M0 0 C1.454 0.031 1.454 0.031 2.938 0.062 C3.92 4.115 4.019 7.901 3.938 12.062 C-1.812 13.188 -1.812 13.188 -4.062 12.062 C-4.089 10.25 -4.109 8.438 -4.125 6.625 C-4.137 5.616 -4.148 4.606 -4.16 3.566 C-4.016 -0.131 -3.764 0.077 0 0 Z " fill="#383838" transform="translate(314.0625,290.9375)"/>
<path d="M0 0 C2.375 -0.188 2.375 -0.188 5 0 C7.463 3.695 7.39 5.633 7 10 C5.812 12 5.812 12 4 13 C1.312 12.688 1.312 12.688 -1 12 C-2.429 3.429 -2.429 3.429 0 0 Z " fill="#000000" transform="translate(302,291)"/>
<path d="M0 0 C1.268 0.124 1.268 0.124 2.562 0.25 C5.242 4.269 4.719 6.492 4.562 11.25 C3.902 11.25 3.243 11.25 2.562 11.25 C2.562 11.91 2.562 12.57 2.562 13.25 C-1.998 12.77 -1.998 12.77 -3.812 10.625 C-4.692 7.284 -4.133 4.599 -3.438 1.25 C-2.438 0.25 -2.438 0.25 0 0 Z " fill="#000000" transform="translate(255.4375,290.75)"/>
<path d="M0 0 C0.33 1.32 0.66 2.64 1 4 C0.34 4 -0.32 4 -1 4 C-1 3.01 -1 2.02 -1 1 C-2.65 1.33 -4.3 1.66 -6 2 C-5.67 2.66 -5.34 3.32 -5 4 C-4.196 4.103 -3.391 4.206 -2.562 4.312 C0 5 0 5 1.438 7.375 C1.623 8.241 1.809 9.108 2 10 C1.01 11.485 1.01 11.485 0 13 C-3.625 13.188 -3.625 13.188 -7 13 C-7.66 11.35 -8.32 9.7 -9 8 C-8.34 8 -7.68 8 -7 8 C-6.67 8.66 -6.34 9.32 -6 10 C-3.473 10.656 -3.473 10.656 -1 11 C-1.33 10.01 -1.66 9.02 -2 8 C-5.008 6.775 -5.008 6.775 -8 6 C-8 4.02 -8 2.04 -8 0 C-5.138 -1.431 -3.066 -0.6 0 0 Z " fill="#000000" transform="translate(244,291)"/>
<path d="M0 0 C0.33 0.66 0.66 1.32 1 2 C0.004 4.164 0.004 4.164 -1.438 6.625 C-1.911 7.442 -2.384 8.26 -2.871 9.102 C-3.244 9.728 -3.616 10.355 -4 11 C-4.66 11 -5.32 11 -6 11 C-6.248 11.907 -6.495 12.815 -6.75 13.75 C-8.04 17.104 -9.32 18.677 -12 21 C-12.33 20.34 -12.66 19.68 -13 19 C-13.66 19.99 -14.32 20.98 -15 22 C-15.66 21.67 -16.32 21.34 -17 21 C-11.39 13.953 -5.717 6.961 0 0 Z " fill="#3A3A3A" transform="translate(129,226)"/>
<path d="M0 0 C0.33 0 0.66 0 1 0 C0.67 7.92 0.34 15.84 0 24 C0.66 24.33 1.32 24.66 2 25 C2 25.66 2 26.32 2 27 C0.375 27.688 0.375 27.688 -2 28 C-7.667 25.667 -7.667 25.667 -9 23 C-6.69 22.34 -4.38 21.68 -2 21 C-1.975 20.399 -1.95 19.799 -1.924 19.18 C-1.808 16.474 -1.686 13.768 -1.562 11.062 C-1.523 10.117 -1.484 9.171 -1.443 8.197 C-1.401 7.298 -1.36 6.399 -1.316 5.473 C-1.261 4.224 -1.261 4.224 -1.205 2.949 C-1 1 -1 1 0 0 Z " fill="#262626" transform="translate(132,148)"/>
<path d="M0 0 C3.125 -0.188 3.125 -0.188 6 0 C6.33 1.98 6.66 3.96 7 6 C6.196 6.454 5.391 6.908 4.562 7.375 C1.911 8.747 1.911 8.747 1 11 C2.98 11 4.96 11 7 11 C7 11.66 7 12.32 7 13 C4.03 13 1.06 13 -2 13 C-1.037 9.149 -0.819 8.368 2 6 C2.66 5.67 3.32 5.34 4 5 C4 4.01 4 3.02 4 2 C1.876 1.774 1.876 1.774 0.375 3.5 C-0.079 3.995 -0.533 4.49 -1 5 C-1.33 4.34 -1.66 3.68 -2 3 C-1.34 2.01 -0.68 1.02 0 0 Z " fill="#000000" transform="translate(282,291)"/>
<path d="M0 0 C2.728 0.079 4.114 0.307 6.625 1.5 C8.125 3.312 8.125 3.312 8.375 6 C8.293 6.763 8.21 7.526 8.125 8.312 C7.135 8.312 6.145 8.312 5.125 8.312 C4.795 6.663 4.465 5.013 4.125 3.312 C0.687 3.494 0.687 3.494 -2.875 4.312 C-4.388 6.248 -4.388 6.248 -4.875 8.312 C-5.5 5.438 -5.5 5.438 -5.875 2.312 C-3.875 0.312 -3.875 0.312 0 0 Z " fill="#FFFFFF" transform="translate(111.875,34.6875)"/>
<path d="M0 0 C5.572 5.572 4.56 17.607 5 25 C4.01 25.33 3.02 25.66 2 26 C1.927 24.875 1.927 24.875 1.852 23.727 C1.413 17.727 0.728 12.005 -0.695 6.156 C-1.028 3.805 -0.724 2.243 0 0 Z " fill="#FFFFFF" transform="translate(131,195)"/>
<path d="M0 0 C2.31 0 4.62 0 7 0 C7 0.66 7 1.32 7 2 C6.196 2.124 5.391 2.248 4.562 2.375 C3.294 2.684 3.294 2.684 2 3 C1.67 3.66 1.34 4.32 1 5 C1.99 4.67 2.98 4.34 4 4 C4.99 4.33 5.98 4.66 7 5 C7.33 6.98 7.66 8.96 8 11 C7.34 11 6.68 11 6 11 C6 11.66 6 12.32 6 13 C3.625 13.188 3.625 13.188 1 13 C0.34 12.01 -0.32 11.02 -1 10 C-0.34 9.67 0.32 9.34 1 9 C1 9.66 1 10.32 1 11 C2.32 10.67 3.64 10.34 5 10 C5 8.68 5 7.36 5 6 C3.35 6.33 1.7 6.66 0 7 C0 4.69 0 2.38 0 0 Z " fill="#000000" transform="translate(291,291)"/>
<path d="M0 0 C3.334 2.646 4.038 5.685 5.188 9.688 C5.532 10.867 5.876 12.046 6.23 13.262 C6.484 14.165 6.738 15.069 7 16 C8.98 15.67 10.96 15.34 13 15 C12.67 15.66 12.34 16.32 12 17 C10.004 17.457 10.004 17.457 7.562 17.812 C5.131 18.244 5.131 18.244 3 19 C1.442 21.353 1.442 21.353 1 24 C0.34 24.99 -0.32 25.98 -1 27 C-1.66 26.67 -2.32 26.34 -3 26 C-2.483 25.348 -1.966 24.695 -1.434 24.023 C-0.446 22.712 -0.446 22.712 0.562 21.375 C1.554 20.087 1.554 20.087 2.566 18.773 C4.363 15.297 4.042 13.713 3 10 C2.293 8.02 2.293 8.02 1.438 6.312 C0 3 0 3 0 0 Z " fill="#000000" transform="translate(138,194)"/>
<path d="M0 0 C2.625 -0.188 2.625 -0.188 5 0 C5.33 1.65 5.66 3.3 6 5 C4.35 3.68 2.7 2.36 1 1 C1 3.97 1 6.94 1 10 C1.99 10 2.98 10 4 10 C4.66 9.34 5.32 8.68 6 8 C5.67 9.32 5.34 10.64 5 12 C3.35 12.33 1.7 12.66 0 13 C0 12.34 0 11.68 0 11 C-0.66 11 -1.32 11 -2 11 C-2.25 3.375 -2.25 3.375 0 0 Z " fill="#000000" transform="translate(263,291)"/>
<path d="M0 0 C3 1 3 1 4 3 C4.04 5 4.043 7 4 9 C2.062 9.562 2.062 9.562 0 10 C-1 9 -1 9 -1.125 5.562 C-1 2 -1 2 0 0 Z " fill="#FFFFFF" transform="translate(264,292)"/>
<path d="M0 0 C0.66 0 1.32 0 2 0 C2.33 2.97 2.66 5.94 3 9 C1.68 9.33 0.36 9.66 -1 10 C-2 9 -2 9 -2.188 5.562 C-2 2 -2 2 0 0 Z " fill="#FFFFFF" transform="translate(255,292)"/>
<path d="M0 0 C1.5 1.188 1.5 1.188 3 3 C3.188 5.688 3.188 5.688 3 8 C1.02 8.99 1.02 8.99 -1 10 C-2 9 -2 9 -2.188 5.562 C-2 2 -2 2 0 0 Z " fill="#FFFFFF" transform="translate(304,292)"/>
<path d="M0 0 C4.29 0 8.58 0 13 0 C12.67 0.99 12.34 1.98 12 3 C7.71 3 3.42 3 -1 3 C-0.67 2.01 -0.34 1.02 0 0 Z " fill="#131313" transform="translate(226,122)"/>
<path d="M0 0 C0.99 0.33 1.98 0.66 3 1 C3 3.97 3 6.94 3 10 C1.68 9.67 0.36 9.34 -1 9 C-1.125 2.25 -1.125 2.25 0 0 Z " fill="#FFFFFF" transform="translate(274,292)"/>
<path d="M0 0 C1.093 0.351 2.186 0.701 3.312 1.062 C6.909 2.33 6.909 2.33 10 1 C13.188 2.438 13.188 2.438 16 4 C15.67 4.66 15.34 5.32 15 6 C9.177 6.597 5.079 4.528 0 2 C0 1.34 0 0.68 0 0 Z " fill="#1C1C1C" transform="translate(115,186)"/>
<path d="M0 0 C1.236 0.017 1.236 0.017 2.496 0.035 C3.322 0.044 4.149 0.053 5 0.062 C5.638 0.074 6.276 0.086 6.934 0.098 C6.604 0.758 6.274 1.418 5.934 2.098 C3.624 2.098 1.314 2.098 -1.066 2.098 C-1.215 4.172 -1.215 4.172 -0.066 6.098 C-1.108 8.66 -2.093 10.124 -4.066 12.098 C-5.09 7.696 -5.149 5.147 -3.066 1.098 C-2.066 0.098 -2.066 0.098 0 0 Z " fill="#000000" transform="translate(230.06640625,130.90234375)"/>
<path d="M0 0 C1.207 0.031 1.207 0.031 2.438 0.062 C3.097 1.712 3.757 3.362 4.438 5.062 C3.438 6.062 3.438 6.062 0.875 6.125 C-0.332 6.094 -0.332 6.094 -1.562 6.062 C-2.222 4.413 -2.882 2.763 -3.562 1.062 C-2.562 0.062 -2.562 0.062 0 0 Z " fill="#F7F7F7" transform="translate(112.5625,38.9375)"/>
<path d="M0 0 C0.33 0.66 0.66 1.32 1 2 C0.004 4.164 0.004 4.164 -1.438 6.625 C-1.911 7.442 -2.384 8.26 -2.871 9.102 C-3.244 9.728 -3.616 10.355 -4 11 C-4.66 11 -5.32 11 -6 11 C-6.33 11.66 -6.66 12.32 -7 13 C-7.33 12.01 -7.66 11.02 -8 10 C-6.348 7.52 -6.348 7.52 -4.062 4.812 C-3.311 3.911 -2.559 3.01 -1.785 2.082 C-0.902 1.051 -0.902 1.051 0 0 Z " fill="#080808" transform="translate(129,226)"/>
<path d="M0 0 C0.66 0.99 1.32 1.98 2 3 C-6.571 4.286 -6.571 4.286 -10 3 C-10 2.34 -10 1.68 -10 1 C-6.7 0.67 -3.4 0.34 0 0 Z " fill="#383838" transform="translate(263,193)"/>
<path d="M0 0 C0.33 0 0.66 0 1 0 C1 3.667 1 7.333 1 11 C0 12 0 12 -3.062 12.062 C-4.032 12.042 -5.001 12.021 -6 12 C-5.196 11.319 -4.391 10.639 -3.562 9.938 C-0.577 6.515 -0.262 4.457 0 0 Z " fill="#1C1C1C" transform="translate(252,150)"/>
<path d="M0 0 C0.66 0.66 1.32 1.32 2 2 C4.603 1.68 4.603 1.68 7 1 C5.036 2.506 3.217 3.891 1 5 C0.34 5.99 -0.32 6.98 -1 8 C-2.208 4.377 -1.543 3.359 0 0 Z " fill="#000000" transform="translate(94,33)"/>
<path d="M0 0 C1.65 0.33 3.3 0.66 5 1 C4.67 1.99 4.34 2.98 4 4 C2.35 3.67 0.7 3.34 -1 3 C-0.67 2.01 -0.34 1.02 0 0 Z " fill="#FFFFFF" transform="translate(312,298)"/>
<path d="M0 0 C0.33 0.99 0.66 1.98 1 3 C-4.75 4.125 -4.75 4.125 -7 3 C-7 2.34 -7 1.68 -7 1 C-5.546 1.031 -5.546 1.031 -4.062 1.062 C-1.125 1.356 -1.125 1.356 0 0 Z " fill="#000000" transform="translate(317,300)"/>
</svg>
