<?xml version="1.0" encoding="UTF-8"?>
<!-- Generator: visioncortex VTracer 0.6.4 -->
<svg version="1.1" xmlns="http://www.w3.org/2000/svg" width="325" height="311">
<path d="M0 0 C107.25 0 214.5 0 325 0 C325 102.63 325 205.26 325 311 C217.75 311 110.5 311 0 311 C0 208.37 0 105.74 0 0 Z " fill="#F6F6F6" transform="translate(0,0)"/>
<path d="M0 0 C2.188 0.062 2.188 0.062 5 1 C7.386 3.567 10 6.389 10 10 C10.99 10.33 11.98 10.66 13 11 C14.386 12.623 15.726 14.287 17 16 C16.67 16.66 16.34 17.32 16 18 C15.01 18 14.02 18 13 18 C11.395 16.25 11.395 16.25 9.812 14 C9.283 13.258 8.753 12.515 8.207 11.75 C7.61 10.884 7.61 10.884 7 10 C11.046 18.29 15.184 26.51 19.688 34.562 C20.043 35.204 20.399 35.845 20.765 36.506 C22.931 40.337 25.314 43.903 27.908 47.457 C29.163 49.23 30.161 51.055 31.125 53 C35.422 60.974 41.231 68.228 46.836 75.324 C48 77 48 77 48 79 C48.66 79 49.32 79 50 79 C50.66 80.65 51.32 82.3 52 84 C52.66 84 53.32 84 54 84 C54 84.66 54 85.32 54 86 C54.99 86.33 55.98 86.66 57 87 C58.499 88.518 58.499 88.518 60.109 90.477 C64.252 95.357 68.714 99.861 73.25 104.375 C74.052 105.181 74.854 105.986 75.68 106.816 C76.451 107.586 77.221 108.356 78.016 109.148 C79.056 110.188 79.056 110.188 80.118 111.248 C82.083 113.172 82.083 113.172 85 115 C85 115.66 85 116.32 85 117 C85.66 117 86.32 117 87 117 C87 117.66 87 118.32 87 119 C87.563 119.254 88.127 119.508 88.707 119.77 C91.306 121.164 93.406 122.818 95.688 124.688 C99.106 127.463 102.531 130.225 106 132.938 C106.722 133.503 107.444 134.069 108.188 134.652 C109.962 136.054 109.962 136.054 112 137 C112 137.66 112 138.32 112 139 C112.784 139.309 113.567 139.619 114.375 139.938 C117 141 117 141 119 142 C119 142.66 119 143.32 119 144 C119.57 144.115 120.14 144.229 120.727 144.348 C123.228 145.065 125.138 146.115 127.375 147.438 C130.838 149.418 134.141 150.912 138 152 C138 152.66 138 153.32 138 154 C138.907 154.289 139.815 154.577 140.75 154.875 C144 156 144 156 145.938 157.062 C148.873 158.397 151.817 158.633 155 159 C154.67 159.66 154.34 160.32 154 161 C153.34 161 152.68 161 152 161 C152 161.66 152 162.32 152 163 C152.887 163.268 153.774 163.536 154.688 163.812 C157.791 164.925 160.311 166.102 163 168 C163 168.66 163 169.32 163 170 C163.532 170.088 164.065 170.175 164.613 170.266 C167.839 171.258 170.341 172.941 173.188 174.75 C178.368 178.011 183.608 181.102 189 184 C189 184.66 189 185.32 189 186 C189.598 186.144 190.196 186.289 190.812 186.438 C192.562 186.887 194.287 187.429 196 188 C196 188.66 196 189.32 196 190 C196.705 190.266 197.41 190.531 198.137 190.805 C201.156 192.065 203.952 193.54 206.812 195.125 C207.788 195.664 208.764 196.203 209.77 196.758 C210.506 197.168 211.242 197.578 212 198 C212 198.66 212 199.32 212 200 C212.587 200.124 213.174 200.248 213.779 200.375 C215.997 200.999 217.579 201.791 219.531 202.996 C220.177 203.39 220.823 203.784 221.488 204.189 C222.152 204.601 222.816 205.013 223.5 205.438 C229.127 208.94 229.127 208.94 235 212 C235 212.66 235 213.32 235 214 C235.598 214.144 236.196 214.289 236.812 214.438 C238.562 214.887 240.287 215.429 242 216 C242 216.66 242 217.32 242 218 C242.686 218.253 243.372 218.505 244.078 218.766 C247.45 220.19 250.587 221.922 253.75 223.75 C254.367 224.104 254.984 224.458 255.619 224.823 C259.871 227.287 263.981 229.909 268.035 232.688 C270.935 234.625 273.958 236.296 277 238 C277.99 238.66 278.98 239.32 280 240 C279.67 240.66 279.34 241.32 279 242 C271.821 238.202 264.868 234.126 257.973 229.836 C254.69 227.808 251.369 225.88 248 224 C248 223.34 248 222.68 248 222 C247.402 221.856 246.804 221.711 246.188 221.562 C244.438 221.113 242.713 220.571 241 220 C241 219.34 241 218.68 241 218 C240.321 217.752 239.641 217.505 238.941 217.25 C235.443 215.763 232.211 213.916 228.938 212 C223.548 208.853 223.548 208.853 218 206 C218 205.34 218 204.68 218 204 C217.295 203.734 216.59 203.469 215.863 203.195 C212.844 201.935 210.048 200.46 207.188 198.875 C206.212 198.336 205.236 197.797 204.23 197.242 C203.494 196.832 202.758 196.422 202 196 C202 195.34 202 194.68 202 194 C201.402 193.856 200.804 193.711 200.188 193.562 C198.438 193.113 196.713 192.571 195 192 C195 191.34 195 190.68 195 190 C194.295 189.734 193.59 189.469 192.863 189.195 C189.844 187.935 187.048 186.46 184.188 184.875 C183.212 184.336 182.236 183.797 181.23 183.242 C180.494 182.832 179.758 182.422 179 182 C179 181.34 179 180.68 179 180 C178.437 179.89 177.873 179.781 177.293 179.668 C174.65 178.898 172.659 177.752 170.312 176.312 C169.441 175.779 168.57 175.245 167.672 174.695 C164.369 172.6 161.127 170.424 157.91 168.199 C155.91 166.839 155.91 166.839 153 166 C153 165.34 153 164.68 153 164 C151.67 163.629 151.67 163.629 150.312 163.25 C146.878 161.954 144.79 160.338 142 158 C141.01 157.67 140.02 157.34 139 157 C139 156.34 139 155.68 139 155 C137.35 154.34 135.7 153.68 134 153 C129.127 159.889 126.591 166.744 125 175 C125.99 175.619 126.98 176.238 128 176.875 C128.99 177.576 129.98 178.278 131 179 C131 179.66 131 180.32 131 181 C131.677 181.236 132.354 181.472 133.051 181.715 C136.703 183.306 139.872 185.37 143.188 187.562 C147.492 190.455 147.492 190.455 152 193 C152 193.66 152 194.32 152 195 C153.32 195.33 154.64 195.66 156 196 C156 196.66 156 197.32 156 198 C156.557 198.094 157.114 198.188 157.688 198.285 C160.589 199.182 162.555 200.644 165 202.438 C167.923 204.572 170.709 206.484 174 208 C173.34 208.66 172.68 209.32 172 210 C171.299 209.553 170.597 209.105 169.875 208.645 C168.926 208.04 167.977 207.435 167 206.812 C166.004 206.176 165.007 205.539 163.98 204.883 C161.444 203.281 158.885 201.73 156.312 200.188 C155.219 199.466 154.126 198.744 153 198 C153 197.34 153 196.68 153 196 C151.72 195.644 151.72 195.644 150.414 195.281 C146.627 193.86 143.611 191.866 140.375 189.5 C137.014 187.076 133.734 184.819 130 183 C129.567 182.464 129.134 181.928 128.688 181.375 C126.952 179.644 126.952 179.644 123.828 180.188 C119.03 179.952 116.809 178.43 113.062 175.625 C112.474 175.213 111.886 174.8 111.279 174.375 C109.805 173.313 108.396 172.163 107 171 C107 170.34 107 169.68 107 169 C106.01 169 105.02 169 104 169 C104 168.34 104 167.68 104 167 C103.443 166.732 102.886 166.464 102.312 166.188 C95.841 162.864 95.841 162.864 93.297 160.25 C89.745 156.771 85.747 153.88 81.781 150.891 C80.152 149.638 78.572 148.324 77 147 C77 146.34 77 145.68 77 145 C75.35 144.34 73.7 143.68 72 143 C72 142.34 72 141.68 72 141 C71.446 140.764 70.891 140.528 70.32 140.285 C67.436 138.687 65.288 136.681 62.875 134.438 C59.685 131.363 59.685 131.363 56 129 C56 128.34 56 127.68 56 127 C55.01 126.67 54.02 126.34 53 126 C53 125.34 53 124.68 53 124 C52.34 124 51.68 124 51 124 C51 123.34 51 122.68 51 122 C50.34 122 49.68 122 49 122 C49 121.34 49 120.68 49 120 C48.01 120 47.02 120 46 120 C46 119.34 46 118.68 46 118 C45.34 118 44.68 118 44 118 C42.611 116.039 41.274 114.038 40 112 C40.99 112 41.98 112 43 112 C43 112.66 43 113.32 43 114 C43.66 114 44.32 114 45 114 C46.728 115.627 48.365 117.282 50 119 C55.048 124.272 60.266 128.93 66.094 133.336 C67.037 134.16 67.037 134.16 68 135 C68 135.66 68 136.32 68 137 C68.552 137.248 69.103 137.495 69.672 137.75 C72.451 139.242 74.781 141.037 77.25 143 C78.142 143.701 79.034 144.403 79.953 145.125 C80.629 145.744 81.304 146.363 82 147 C82 147.66 82 148.32 82 149 C82.99 149 83.98 149 85 149 C85 149.66 85 150.32 85 151 C85.773 151.34 85.773 151.34 86.562 151.688 C91.701 154.454 95.887 157.887 100 162 C101.238 162.743 101.238 162.743 102.5 163.5 C105 165 105 165 106.703 166.797 C109.624 169.598 112.827 171.614 116.25 173.75 C116.9 174.161 117.549 174.572 118.219 174.996 C119.81 176.002 121.404 177.002 123 178 C122.951 176.83 122.902 175.659 122.852 174.453 C122.853 170.172 123.844 166.767 125.375 162.75 C126.036 160.979 126.036 160.979 126.711 159.172 C127.713 156.706 128.756 154.349 130 152 C128.35 151.34 126.7 150.68 125 150 C125 149.34 125 148.68 125 148 C124.12 147.83 124.12 147.83 123.223 147.656 C120.827 146.949 119.407 146.016 117.438 144.5 C115.171 142.764 113.775 141.925 111 141 C111 140.34 111 139.68 111 139 C110.443 138.732 109.886 138.464 109.312 138.188 C106.788 136.891 104.363 135.575 102 134 C102 133.34 102 132.68 102 132 C101.428 131.732 100.855 131.464 100.266 131.188 C97.921 129.959 95.876 128.575 93.75 127 C93.044 126.484 92.337 125.969 91.609 125.438 C91.078 124.963 90.547 124.489 90 124 C90 123.34 90 122.68 90 122 C89.405 121.726 88.81 121.453 88.197 121.171 C86.076 120.04 84.599 118.906 82.855 117.27 C82.268 116.721 81.681 116.173 81.076 115.608 C80.453 115.016 79.83 114.423 79.188 113.812 C78.534 113.195 77.88 112.578 77.207 111.942 C56.697 92.479 56.697 92.479 49.613 83.051 C48.017 80.936 48.017 80.936 45.992 79.008 C43.976 76.975 42.426 74.925 40.812 72.562 C40.214 71.691 39.616 70.82 39 69.922 C38.34 68.958 37.68 67.993 37 67 C36.23 65.9 35.46 64.801 34.688 63.703 C30.868 58.26 27.187 52.844 24 47 C22.878 45.081 21.753 43.165 20.625 41.25 C11 24.744 11 24.744 11 22 C10.34 22 9.68 22 9 22 C7.681 19.274 6.369 16.545 5.062 13.812 C4.689 13.044 4.316 12.275 3.932 11.482 C2.119 7.678 0.534 4.23 0 0 Z " fill="#000000" transform="translate(43,3)"/>
<path d="M0 0 C2.188 0.062 2.188 0.062 5 1 C7.386 3.567 10 6.389 10 10 C10.99 10.33 11.98 10.66 13 11 C14.386 12.623 15.726 14.287 17 16 C16.67 16.66 16.34 17.32 16 18 C15.01 18 14.02 18 13 18 C11.395 16.25 11.395 16.25 9.812 14 C9.283 13.258 8.753 12.515 8.207 11.75 C7.61 10.884 7.61 10.884 7 10 C11.046 18.29 15.184 26.51 19.688 34.562 C20.043 35.204 20.399 35.845 20.765 36.506 C22.931 40.337 25.314 43.903 27.908 47.457 C29.163 49.23 30.161 51.055 31.125 53 C35.422 60.974 41.231 68.228 46.836 75.324 C48 77 48 77 48 79 C48.66 79 49.32 79 50 79 C50.66 80.65 51.32 82.3 52 84 C52.66 84 53.32 84 54 84 C54 84.66 54 85.32 54 86 C54.99 86.33 55.98 86.66 57 87 C58.499 88.518 58.499 88.518 60.109 90.477 C64.252 95.357 68.714 99.861 73.25 104.375 C74.052 105.181 74.854 105.986 75.68 106.816 C76.451 107.586 77.221 108.356 78.016 109.148 C79.056 110.188 79.056 110.188 80.118 111.248 C82.083 113.172 82.083 113.172 85 115 C85 115.66 85 116.32 85 117 C85.66 117 86.32 117 87 117 C87 117.66 87 118.32 87 119 C87.563 119.254 88.127 119.508 88.707 119.77 C91.306 121.164 93.406 122.818 95.688 124.688 C99.106 127.463 102.531 130.225 106 132.938 C106.722 133.503 107.444 134.069 108.188 134.652 C109.962 136.054 109.962 136.054 112 137 C112 137.66 112 138.32 112 139 C112.784 139.309 113.567 139.619 114.375 139.938 C117 141 117 141 119 142 C119 142.66 119 143.32 119 144 C119.928 144.155 119.928 144.155 120.875 144.312 C123 145 123 145 125 148 C121.894 147.399 119.936 146.423 117.438 144.5 C115.171 142.764 113.775 141.925 111 141 C111 140.34 111 139.68 111 139 C110.443 138.732 109.886 138.464 109.312 138.188 C106.788 136.891 104.363 135.575 102 134 C102 133.34 102 132.68 102 132 C101.428 131.732 100.855 131.464 100.266 131.188 C97.921 129.959 95.876 128.575 93.75 127 C93.044 126.484 92.337 125.969 91.609 125.438 C91.078 124.963 90.547 124.489 90 124 C90 123.34 90 122.68 90 122 C89.405 121.726 88.81 121.453 88.197 121.171 C86.076 120.04 84.599 118.906 82.855 117.27 C82.268 116.721 81.681 116.173 81.076 115.608 C80.453 115.016 79.83 114.423 79.188 113.812 C78.534 113.195 77.88 112.578 77.207 111.942 C56.697 92.479 56.697 92.479 49.613 83.051 C48.017 80.936 48.017 80.936 45.992 79.008 C43.976 76.975 42.426 74.925 40.812 72.562 C40.214 71.691 39.616 70.82 39 69.922 C38.34 68.958 37.68 67.993 37 67 C36.23 65.9 35.46 64.801 34.688 63.703 C30.868 58.26 27.187 52.844 24 47 C22.878 45.081 21.753 43.165 20.625 41.25 C11 24.744 11 24.744 11 22 C10.34 22 9.68 22 9 22 C7.681 19.274 6.369 16.545 5.062 13.812 C4.689 13.044 4.316 12.275 3.932 11.482 C2.119 7.678 0.534 4.23 0 0 Z " fill="#000000" transform="translate(43,3)"/>
<path d="M0 0 C1.812 0.006 1.812 0.006 3.66 0.012 C6.687 0.289 8.397 0.722 10.938 2.312 C10.938 2.972 10.938 3.632 10.938 4.312 C11.489 4.417 12.041 4.521 12.609 4.629 C15.433 5.458 17.663 6.74 20.188 8.25 C21.08 8.775 21.972 9.299 22.891 9.84 C23.566 10.326 24.242 10.812 24.938 11.312 C24.938 11.972 24.938 12.632 24.938 13.312 C25.597 13.312 26.257 13.312 26.938 13.312 C27.597 14.963 28.257 16.613 28.938 18.312 C22.338 17.983 15.738 17.653 8.938 17.312 C8.938 13.023 8.938 8.733 8.938 4.312 C5.308 4.312 1.678 4.312 -2.062 4.312 C-3.548 10.748 -3.548 10.748 -5.062 17.312 C-10.812 13.688 -10.812 13.688 -13.062 10.312 C-13 6.812 -13 6.812 -12.062 3.312 C-8.136 0.161 -4.942 -0.069 0 0 Z " fill="#FFFFFF" transform="translate(160.0625,113.6875)"/>
<path d="M0 0 C0.99 0 1.98 0 3 0 C3.208 0.536 3.415 1.072 3.629 1.625 C8.756 14.669 14.513 27.342 20.895 39.815 C21.721 41.448 22.534 43.087 23.34 44.73 C26.921 52.007 30.783 59.062 34.875 66.062 C35.449 67.061 36.022 68.059 36.613 69.088 C40.23 75.295 44.146 81.103 48.5 86.818 C50 89 50 89 50 91 C50.66 91 51.32 91 52 91 C52.66 92.65 53.32 94.3 54 96 C54.66 96 55.32 96 56 96 C57.691 97.645 57.691 97.645 59.562 99.812 C60.183 100.52 60.803 101.228 61.441 101.957 C63 104 63 104 64 107 C64.66 107 65.32 107 66 107 C67.625 109 67.625 109 69 111 C68.01 111.495 68.01 111.495 67 112 C64.5 109.5 64.5 109.5 62 107 C61.237 106.278 60.474 105.556 59.688 104.812 C58 103 58 103 58 101 C57.34 101 56.68 101 56 101 C54.165 98.892 52.447 96.779 50.75 94.562 C50.258 93.927 49.766 93.291 49.259 92.636 C39 79.278 39 79.278 39 76 C38.34 76 37.68 76 37 76 C35.566 73.371 34.132 70.742 32.699 68.113 C31.662 66.214 30.624 64.315 29.582 62.418 C28.046 59.617 26.522 56.809 25 54 C24.65 53.357 24.3 52.714 23.939 52.052 C19.566 44.002 15.43 36.028 12.047 27.5 C11.138 25.329 10.149 23.387 8.938 21.375 C6.471 17.078 4.748 12.626 3 8 C2.546 6.803 2.546 6.803 2.082 5.582 C1.381 3.724 0.69 1.862 0 0 Z " fill="#000000" transform="translate(15,3)"/>
<path d="M0 0 C0.99 0.33 1.98 0.66 3 1 C3 1.66 3 2.32 3 3 C3.536 3.103 4.072 3.206 4.625 3.312 C7.625 4.181 10.238 5.556 13 7 C13 7.66 13 8.32 13 9 C14.32 9.33 15.64 9.66 17 10 C17 10.66 17 11.32 17 12 C17.556 12.093 18.111 12.186 18.684 12.281 C21.611 13.189 23.598 14.686 26.062 16.5 C28.791 18.502 30.778 19.926 34 21 C34 21.66 34 22.32 34 23 C35.062 23.385 35.062 23.385 36.145 23.777 C39.236 25.101 41.874 26.724 44.688 28.562 C48.263 30.923 48.263 30.923 52 33 C52 33.66 52 34.32 52 35 C52.825 35.227 53.65 35.454 54.5 35.688 C58.665 37.249 62.5 39.229 66 42 C66 42.66 66 43.32 66 44 C66.639 44.227 67.279 44.454 67.938 44.688 C72.133 46.486 76.039 48.739 80 51 C80 51.66 80 52.32 80 53 C81.087 53.391 81.087 53.391 82.195 53.789 C85.087 55.038 87.337 56.518 89.875 58.375 C92.813 60.482 95.715 62.493 98.875 64.25 C101.452 65.693 103.785 67.051 106 69 C106 69.66 106 70.32 106 71 C102.645 69.755 99.812 68.35 96.875 66.312 C93.307 63.878 89.706 61.509 86.062 59.188 C85.146 58.604 84.229 58.02 83.285 57.418 C81.084 56.004 81.084 56.004 79 55 C79 54.34 79 53.68 79 53 C77.979 52.629 77.979 52.629 76.938 52.25 C73.431 50.758 70.284 48.932 67 47 C67 46.34 67 45.68 67 45 C65.824 44.722 65.824 44.722 64.625 44.438 C60.465 42.788 57.322 40.544 53.715 37.93 C50.991 35.993 48.21 34.207 45.375 32.438 C42.088 30.374 38.941 28.253 35.875 25.875 C32.524 23.295 29.037 21.288 25.312 19.297 C22.032 17.457 18.95 15.357 15.848 13.234 C14.021 11.959 14.021 11.959 12 11 C12 10.34 12 9.68 12 9 C11.319 8.752 10.639 8.505 9.938 8.25 C6.431 6.758 3.284 4.932 0 3 C0 2.01 0 1.02 0 0 Z " fill="#000000" transform="translate(217,212)"/>
<path d="M0 0 C5.906 1.554 10.977 4.595 16 8 C16 8.33 16 8.66 16 9 C14.554 9.073 14.554 9.073 13.078 9.148 C11.183 9.261 11.183 9.261 9.25 9.375 C7.371 9.479 7.371 9.479 5.453 9.586 C2.372 9.955 0.491 10.197 -2 12 C-3.26 15.318 -3.26 15.318 -3 19 C-0.75 21.918 -0.75 21.918 2 24 C2.33 24.33 2.66 24.66 3 25 C3.205 24.145 3.41 23.291 3.621 22.41 C3.891 21.305 4.16 20.201 4.438 19.062 C4.704 17.96 4.971 16.858 5.246 15.723 C6 13 6 13 7 12 C8.519 11.928 10.042 11.916 11.562 11.938 C12.389 11.947 13.215 11.956 14.066 11.965 C14.704 11.976 15.343 11.988 16 12 C16 12.33 16 12.66 16 13 C13.36 13.33 10.72 13.66 8 14 C6.615 19.455 5.76 24.367 6 30 C-3.116 26.289 -3.116 26.289 -6.188 21.812 C-7.489 15.703 -7.514 10.344 -4.062 5 C-3.382 4.34 -2.701 3.68 -2 3 C-1.34 2.34 -0.68 1.68 0 1 C0 0.67 0 0.34 0 0 Z " fill="#1D1D1D" transform="translate(151,105)"/>
<path d="M0 0 C2.64 0 5.28 0 8 0 C9.904 3.922 10.141 6.36 9.312 10.625 C9.144 11.566 8.975 12.507 8.801 13.477 C7.946 16.169 7.283 17.36 5 19 C1.938 18.875 1.938 18.875 -1 18 C-3.801 13.799 -2.891 10.806 -2 6 C-1.397 3.98 -0.757 1.968 0 0 Z " fill="#FFFFFF" transform="translate(159,118)"/>
<path d="M0 0 C3.125 0.375 3.125 0.375 6 1 C6.33 1.99 6.66 2.98 7 4 C7.66 2.68 8.32 1.36 9 0 C11.375 -0.188 11.375 -0.188 14 0 C16.463 3.695 16.39 5.633 16 10 C14.5 11.938 14.5 11.938 13 13 C8.125 11.25 8.125 11.25 7 9 C6.67 9.99 6.34 10.98 6 12 C1.597 13.309 1.597 13.309 -0.812 12.062 C-2.758 8.684 -2.306 5.86 -2 2 C-1.34 1.34 -0.68 0.68 0 0 Z " fill="#000000" transform="translate(254,290)"/>
<path d="M0 0 C2.188 0.062 2.188 0.062 5 1 C7.386 3.567 10 6.389 10 10 C10.99 10.33 11.98 10.66 13 11 C14.386 12.623 15.726 14.287 17 16 C16.67 16.66 16.34 17.32 16 18 C15.01 18 14.02 18 13 18 C11.395 16.25 11.395 16.25 9.812 14 C9.283 13.258 8.753 12.515 8.207 11.75 C7.61 10.884 7.61 10.884 7 10 C8.224 12.503 9.453 15.003 10.688 17.5 C11.05 18.233 11.412 18.966 11.785 19.721 C13.703 23.558 15.679 27.238 18.062 30.812 C18.702 31.864 19.341 32.916 20 34 C19.67 34.99 19.34 35.98 19 37 C15.572 33.083 11 27.478 11 22 C10.34 22 9.68 22 9 22 C7.681 19.274 6.369 16.545 5.062 13.812 C4.689 13.044 4.316 12.275 3.932 11.482 C2.119 7.678 0.534 4.23 0 0 Z " fill="#0D0D0D" transform="translate(43,3)"/>
<path d="M0 0 C3.656 1.37 6.955 3.01 10.312 5 C11.196 5.516 12.079 6.031 12.988 6.562 C13.984 7.274 13.984 7.274 15 8 C15 8.66 15 9.32 15 10 C15.66 10 16.32 10 17 10 C18.463 11.974 19.807 13.932 21.125 16 C21.498 16.572 21.87 17.145 22.254 17.734 C23.176 19.152 24.089 20.576 25 22 C24.67 22.66 24.34 23.32 24 24 C23.474 23.041 23.474 23.041 22.938 22.062 C18.827 17.686 10.359 18.722 4.562 18.438 C3.322 18.373 3.322 18.373 2.057 18.307 C0.038 18.202 -1.981 18.1 -4 18 C-3.916 17.096 -3.832 16.193 -3.746 15.262 C-3.644 14.082 -3.542 12.903 -3.438 11.688 C-3.333 10.516 -3.229 9.344 -3.121 8.137 C-2.814 4.97 -2.814 4.97 -4 2 C-3.34 2 -2.68 2 -2 2 C-0.979 6.651 -1.249 10.322 -2 15 C-0.808 14.988 0.385 14.977 1.613 14.965 C3.18 14.955 4.746 14.946 6.312 14.938 C7.098 14.929 7.884 14.921 8.693 14.912 C9.451 14.909 10.208 14.906 10.988 14.902 C11.685 14.897 12.381 14.892 13.099 14.886 C15 15 15 15 18 16 C17.34 14.35 16.68 12.7 16 11 C15.34 11 14.68 11 14 11 C14 10.34 14 9.68 14 9 C13.361 8.773 12.721 8.546 12.062 8.312 C7.867 6.514 3.961 4.261 0 2 C0 1.34 0 0.68 0 0 Z " fill="#000000" transform="translate(171,116)"/>
<path d="M0 0 C0.66 0.33 1.32 0.66 2 1 C1.01 2.485 1.01 2.485 0 4 C-0.451 6.049 -0.451 6.049 -0.625 8.188 C-0.749 9.446 -0.873 10.704 -1 12 C-0.34 12 0.32 12 1 12 C1 12.66 1 13.32 1 14 C1.66 14 2.32 14 3 14 C3 14.66 3 15.32 3 16 C4.176 16.33 5.351 16.66 6.562 17 C11.658 18.693 16.235 21.172 20.924 23.742 C25.728 26.36 30.599 28.761 35.562 31.062 C43.117 34.566 50.573 38.233 58 42 C56.418 42.715 56.418 42.715 54 43 C51.642 41.948 49.531 40.855 47.312 39.562 C41.798 36.479 36.242 33.636 30.5 31 C23.616 27.82 16.921 24.371 10.258 20.754 C7.631 19.34 4.995 17.989 2.312 16.688 C-0.4 15.305 -2.67 13.941 -5 12 C-4.67 11.34 -4.34 10.68 -4 10 C-3.67 10.33 -3.34 10.66 -3 11 C-2.876 9.742 -2.752 8.484 -2.625 7.188 C-2.301 3.897 -1.934 2.901 0 0 Z " fill="#000000" transform="translate(180,31)"/>
<path d="M0 0 C2.31 0 4.62 0 7 0 C7 0.66 7 1.32 7 2 C5.35 2.33 3.7 2.66 2 3 C3.32 3.33 4.64 3.66 6 4 C6 4.66 6 5.32 6 6 C9.246 5.652 9.975 5.031 12.125 2.438 C13.053 1.231 13.053 1.231 14 0 C14.66 0 15.32 0 16 0 C16.196 1.436 16.381 2.874 16.562 4.312 C16.667 5.113 16.771 5.914 16.879 6.738 C17 9 17 9 16 12 C15.34 12 14.68 12 14 12 C14 11.01 14 10.02 14 9 C9.776 9.321 9.776 9.321 6.438 11.625 C5.963 12.079 5.489 12.533 5 13 C2.312 12.688 2.312 12.688 0 12 C-0.33 11.01 -0.66 10.02 -1 9 C-0.34 9 0.32 9 1 9 C1 9.66 1 10.32 1 11 C2.32 11 3.64 11 5 11 C5 9.68 5 8.36 5 7 C3.35 7 1.7 7 0 7 C0 4.69 0 2.38 0 0 Z " fill="#000000" transform="translate(282,290)"/>
<path d="M0 0 C3.454 3.353 6.607 6.831 9.668 10.547 C10.958 12.128 10.958 12.128 13 13 C13 13.66 13 14.32 13 15 C13.639 15.289 14.279 15.577 14.938 15.875 C17 17 17 17 18 19 C16.68 18.67 15.36 18.34 14 18 C14 17.34 14 16.68 14 16 C13.444 15.907 12.889 15.814 12.316 15.719 C9.389 14.811 7.402 13.314 4.938 11.5 C2.209 9.498 0.222 8.074 -3 7 C-3 6.34 -3 5.68 -3 5 C-3.66 4.67 -4.32 4.34 -5 4 C-3.35 2.68 -1.7 1.36 0 0 Z " fill="#FFFFFF" transform="translate(72,124)"/>
<path d="M0 0 C2.375 -0.188 2.375 -0.188 5 0 C7.463 3.695 7.39 5.633 7 10 C5.5 11.938 5.5 11.938 4 13 C1.525 12.01 1.525 12.01 -1 11 C-2.231 4.6 -2.231 4.6 -1.062 1.562 C-0.712 1.047 -0.361 0.531 0 0 Z " fill="#000000" transform="translate(273,290)"/>
<path d="M0 0 C2 2 2 2 2.062 4.312 C0.676 7.82 -1.281 8.921 -4.406 10.887 C-6.161 11.924 -6.161 11.924 -7 14 C-4.03 14 -1.06 14 2 14 C2 14.66 2 15.32 2 16 C-1.96 16 -5.92 16 -10 16 C-8.859 11.435 -7.424 10.09 -4 7 C-3.34 6.67 -2.68 6.34 -2 6 C-2 4.68 -2 3.36 -2 2 C-3.32 2 -4.64 2 -6 2 C-6.33 2.99 -6.66 3.98 -7 5 C-7.99 4.67 -8.98 4.34 -10 4 C-7.571 -1.378 -5.646 -1.294 0 0 Z " fill="#000000" transform="translate(165,261)"/>
<path d="M0 0 C0.081 1.437 0.139 2.874 0.188 4.312 C0.222 5.113 0.257 5.914 0.293 6.738 C0 9 0 9 -1.344 10.812 C-3 12 -3 12 -5.688 11.688 C-6.451 11.461 -7.214 11.234 -8 11 C-7.67 10.01 -7.34 9.02 -7 8 C-5.02 8.495 -5.02 8.495 -3 9 C-2.67 8.34 -2.34 7.68 -2 7 C-2.99 7.33 -3.98 7.66 -5 8 C-5.99 7.34 -6.98 6.68 -8 6 C-8.188 2.875 -8.188 2.875 -8 0 C-5.138 -1.431 -3.066 -0.6 0 0 Z " fill="#000000" transform="translate(309,291)"/>
<path d="M0 0 C0.949 0.041 1.898 0.082 2.875 0.125 C3.535 1.445 4.195 2.765 4.875 4.125 C3.885 4.125 2.895 4.125 1.875 4.125 C1.875 3.465 1.875 2.805 1.875 2.125 C-0.1 2.473 -0.1 2.473 -2.125 3.125 C-2.455 3.785 -2.785 4.445 -3.125 5.125 C-0.815 5.785 1.495 6.445 3.875 7.125 C4.205 8.775 4.535 10.425 4.875 12.125 C1.025 14.692 -0.711 13.958 -5.125 13.125 C-4.795 11.805 -4.465 10.485 -4.125 9.125 C-3.795 10.115 -3.465 11.105 -3.125 12.125 C-1.475 11.795 0.175 11.465 1.875 11.125 C1.875 10.465 1.875 9.805 1.875 9.125 C-0.105 8.465 -2.085 7.805 -4.125 7.125 C-4.75 4.75 -4.75 4.75 -5.125 2.125 C-3.125 0.125 -3.125 0.125 0 0 Z " fill="#000000" transform="translate(241.125,288.875)"/>
<path d="M0 0 C0.66 0 1.32 0 2 0 C2 5.61 2 11.22 2 17 C1.01 16.67 0.02 16.34 -1 16 C-1 12.37 -1 8.74 -1 5 C-1.99 5 -2.98 5 -4 5 C-4 4.34 -4 3.68 -4 3 C-3.01 3 -2.02 3 -1 3 C-0.67 2.01 -0.34 1.02 0 0 Z " fill="#000000" transform="translate(21,158)"/>
<path d="M0 0 C0.66 0 1.32 0 2 0 C2.196 1.436 2.381 2.874 2.562 4.312 C2.667 5.113 2.771 5.914 2.879 6.738 C3 9 3 9 2 12 C1.34 12 0.68 12 0 12 C0 11.01 0 10.02 0 9 C-1.65 9 -3.3 9 -5 9 C-4.427 5.131 -2.61 2.848 0 0 Z " fill="#373737" transform="translate(296,290)"/>
<path d="M0 0 C1.32 0.33 2.64 0.66 4 1 C4 1.66 4 2.32 4 3 C4.639 3.144 5.279 3.289 5.938 3.438 C8 4 8 4 9 5 C9.99 5 10.98 5 12 5 C14.262 6.75 14.262 6.75 16.688 9 C17.9 10.114 17.9 10.114 19.137 11.25 C19.752 11.827 20.366 12.405 21 13 C20.67 13.66 20.34 14.32 20 15 C19.313 14.506 18.626 14.013 17.918 13.504 C17.017 12.863 16.116 12.223 15.188 11.562 C14.294 10.924 13.401 10.286 12.48 9.629 C10.029 7.867 10.029 7.867 7 7 C7 6.34 7 5.68 7 5 C5.68 4.67 4.36 4.34 3 4 C3 3.34 3 2.68 3 2 C2.01 2 1.02 2 0 2 C0 1.34 0 0.68 0 0 Z " fill="#000000" transform="translate(82,139)"/>
<path d="M0 0 C0.66 0 1.32 0 2 0 C3.016 4.629 2.838 8.345 2 13 C5.3 13 8.6 13 12 13 C12 13.66 12 14.32 12 15 C9.475 16.262 7.688 16.099 4.875 16.062 C3.965 16.053 3.055 16.044 2.117 16.035 C1.069 16.018 1.069 16.018 0 16 C0.084 15.096 0.168 14.193 0.254 13.262 C0.356 12.082 0.458 10.903 0.562 9.688 C0.667 8.516 0.771 7.344 0.879 6.137 C1.186 2.97 1.186 2.97 0 0 Z " fill="#383838" transform="translate(167,118)"/>
<path d="M0 0 C3.125 0.375 3.125 0.375 6 1 C5.67 2.32 5.34 3.64 5 5 C4.67 4.34 4.34 3.68 4 3 C3.01 3 2.02 3 1 3 C1 5.31 1 7.62 1 10 C1.99 10 2.98 10 4 10 C4.66 9.34 5.32 8.68 6 8 C6 9.32 6 10.64 6 12 C1.597 13.309 1.597 13.309 -0.812 12.062 C-2.758 8.684 -2.306 5.86 -2 2 C-1.34 1.34 -0.68 0.68 0 0 Z " fill="#000000" transform="translate(254,290)"/>
<path d="M0 0 C5.906 1.554 10.977 4.595 16 8 C16 8.33 16 8.66 16 9 C13.69 9 11.38 9 9 9 C9 8.67 9 8.34 9 8 C6.03 7.505 6.03 7.505 3 7 C4.32 6.34 5.64 5.68 7 5 C4.846 3.603 4.846 3.603 2 3 C-1.312 4.763 -1.312 4.763 -4 7 C-2.848 4.532 -1.952 2.952 0 1 C0 0.67 0 0.34 0 0 Z " fill="#000000" transform="translate(151,105)"/>
<path d="M0 0 C2.97 0.33 5.94 0.66 9 1 C5 2 5 2 3 1 C3 2.98 3 4.96 3 7 C1.02 7.99 1.02 7.99 -1 9 C-2.32 7.68 -3.64 6.36 -5 5 C-3.68 5.33 -2.36 5.66 -1 6 C-0.67 4.02 -0.34 2.04 0 0 Z " fill="#0C0C0C" transform="translate(110,56)"/>
<path d="M0 0 C2.062 0.438 2.062 0.438 4 1 C4 3.31 4 5.62 4 8 C2.062 8.562 2.062 8.562 0 9 C-1 8 -1 8 -1.125 4.5 C-1 1 -1 1 0 0 Z " fill="#FFFFFF" transform="translate(255,292)"/>
<path d="M0 0 C2.97 0 5.94 0 9 0 C8.67 1.65 8.34 3.3 8 5 C7.34 5 6.68 5 6 5 C5.67 6.98 5.34 8.96 5 11 C4.01 11.33 3.02 11.66 2 12 C2.645 8.515 4.101 5.972 6 3 C3.03 2.505 3.03 2.505 0 2 C0 1.34 0 0.68 0 0 Z " fill="#000000" transform="translate(310,290)"/>
<path d="M0 0 C4.37 1.366 7.498 3.76 11.035 6.562 C12.953 7.966 14.848 9.003 17 10 C16.34 10.66 15.68 11.32 15 12 C13.249 10.898 11.499 9.793 9.75 8.688 C8.775 8.073 7.801 7.458 6.797 6.824 C1.977 3.681 1.977 3.681 0 2 C0 1.34 0 0.68 0 0 Z " fill="#060606" transform="translate(200,201)"/>
<path d="M0 0 C1.32 0 2.64 0 4 0 C4 2.97 4 5.94 4 9 C2.68 9 1.36 9 0 9 C0 6.03 0 3.06 0 0 Z " fill="#FFFFFF" transform="translate(264,292)"/>
<path d="M0 0 C1.98 0.99 3.96 1.98 6 3 C6 3.33 6 3.66 6 4 C2.04 4.99 -1.92 5.98 -6 7 C-4.117 3.233 -3.309 2.206 0 0 Z " fill="#FFFFFF" transform="translate(153,107)"/>
<path d="M0 0 C0.66 0 1.32 0 2 0 C3.251 1.449 4.497 2.903 5.691 4.398 C7.331 6.405 9.135 8.204 11 10 C10.01 10 9.02 10 8 10 C8 9.34 8 8.68 8 8 C6.68 8 5.36 8 4 8 C1.25 6 1.25 6 -1 4 C-0.67 2.68 -0.34 1.36 0 0 Z " fill="#161616" transform="translate(63,24)"/>
<path d="M0 0 C0.99 0 1.98 0 3 0 C4.125 6.75 4.125 6.75 3 9 C2.01 9 1.02 9 0 9 C0 6.03 0 3.06 0 0 Z " fill="#FFFFFF" transform="translate(274,292)"/>
<path d="M0 0 C3.255 0.349 4.019 1.021 6.25 3.562 C6.828 4.367 7.405 5.171 8 6 C7.67 6.66 7.34 7.32 7 8 C6.01 8 5.02 8 4 8 C0 3.771 0 3.771 0 0 Z " fill="#292929" transform="translate(52,13)"/>
<path d="M0 0 C0.66 0.33 1.32 0.66 2 1 C1.01 2.485 1.01 2.485 0 4 C-0.242 6.516 -0.242 6.516 -0.125 9.188 C-0.107 10.089 -0.089 10.99 -0.07 11.918 C-0.047 12.605 -0.024 13.292 0 14 C-2.475 13.01 -2.475 13.01 -5 12 C-4.67 11.34 -4.34 10.68 -4 10 C-3.67 10.33 -3.34 10.66 -3 11 C-2.876 9.742 -2.752 8.484 -2.625 7.188 C-2.301 3.897 -1.934 2.901 0 0 Z " fill="#0A0A0A" transform="translate(180,31)"/>
<path d="M0 0 C1.32 0 2.64 0 4 0 C4 1.32 4 2.64 4 4 C2.35 3.67 0.7 3.34 -1 3 C-0.67 2.01 -0.34 1.02 0 0 Z " fill="#FFFFFF" transform="translate(303,292)"/>
<path d="M0 0 C0.99 0 1.98 0 3 0 C3 1.32 3 2.64 3 4 C1.68 4 0.36 4 -1 4 C-1 4.66 -1 5.32 -1 6 C-1.66 5.67 -2.32 5.34 -3 5 C-2.67 4.34 -2.34 3.68 -2 3 C-1.34 3 -0.68 3 0 3 C0 2.01 0 1.02 0 0 Z " fill="#000000" transform="translate(87,107)"/>
</svg>
