<?xml version="1.0" encoding="UTF-8"?>
<!-- Generator: visioncortex VTracer 0.6.4 -->
<svg version="1.1" xmlns="http://www.w3.org/2000/svg" width="325" height="311">
<path d="M0 0 C107.25 0 214.5 0 325 0 C325 102.63 325 205.26 325 311 C217.75 311 110.5 311 0 311 C0 208.37 0 105.74 0 0 Z " fill="#FEFEFE" transform="translate(0,0)"/>
<path d="M0 0 C1.966 3.704 3.921 7.414 5.875 11.125 C6.431 12.172 6.986 13.218 7.559 14.297 C8.094 15.315 8.629 16.334 9.18 17.383 C9.672 18.315 10.164 19.247 10.671 20.208 C12.04 23.085 13.055 25.96 14 29 C14.743 28.752 14.743 28.752 15.5 28.5 C19.034 27.793 22.397 27.94 26 28 C26 27.34 26 26.68 26 26 C48.988 21.874 76.016 21.999 99 26 C101.018 28.522 101 29.751 101 33 C101.66 33 102.32 33 103 33 C103 33.66 103 34.32 103 35 C103.66 35 104.32 35 105 35 C107.178 42.26 107.597 49.453 108 57 C108.66 57 109.32 57 110 57 C110.166 57.866 110.332 58.732 110.503 59.624 C111.134 62.908 111.766 66.192 112.399 69.476 C112.67 70.883 112.94 72.291 113.21 73.699 C113.604 75.75 113.999 77.801 114.395 79.852 C114.591 80.871 114.591 80.871 114.791 81.912 C115.898 87.597 117.141 93.245 118.438 98.891 C119.29 103.605 119.263 108.23 119 113 C114.337 114.729 109.766 115.593 104.855 116.219 C103.702 116.374 103.702 116.374 102.524 116.532 C100.08 116.86 97.634 117.181 95.188 117.5 C82.745 119.048 82.745 119.048 70.458 121.486 C63.11 123.022 55.574 123.807 48.138 124.823 C37.029 126.322 37.029 126.322 26.05 128.558 C21.853 129.463 17.573 129.871 13.312 130.375 C5.486 131.344 -2.254 132.523 -10 134 C-17.479 135.423 -24.944 136.572 -32.5 137.5 C-39.786 138.397 -46.98 139.488 -54.188 140.875 C-65.902 143.125 -77.705 144.685 -89.526 146.25 C-96.059 147.121 -102.525 148.005 -108.939 149.553 C-113.139 150.464 -117.423 150.87 -121.688 151.375 C-129.727 152.366 -137.669 153.606 -145.625 155.125 C-166.027 158.991 -166.027 158.991 -172 157 C-175.651 148.007 -176.248 137.327 -177.562 127.75 C-177.875 125.487 -178.19 123.225 -178.51 120.963 C-178.799 118.922 -179.08 116.881 -179.362 114.839 C-179.819 112.088 -180.342 109.493 -181.03 106.802 C-181.757 103.952 -182.341 101.269 -182.711 98.363 C-182.819 97.549 -182.928 96.734 -183.04 95.895 C-183.15 95.043 -183.261 94.19 -183.375 93.312 C-184.526 84.784 -185.994 76.358 -187.73 67.929 C-189.495 59.157 -189.495 59.157 -189 55 C-184.288 51.859 -178.995 51.807 -173.451 51.085 C-171.401 50.816 -169.355 50.527 -167.309 50.236 C-160.321 49.284 -153.978 48.791 -147 50 C-147.371 48.742 -147.743 47.484 -148.125 46.188 C-148.758 44.043 -148.758 44.043 -149 42 C-148.34 41.01 -147.68 40.02 -147 39 C-147.66 39 -148.32 39 -149 39 C-150.861 34.295 -151.251 30.124 -151.125 25.125 C-151.116 24.437 -151.107 23.748 -151.098 23.039 C-151.074 21.359 -151.038 19.68 -151 18 C-143.362 16.025 -135.867 15.425 -128 15 C-128 15.66 -128 16.32 -128 17 C-128.495 17.495 -128.495 17.495 -129 18 C-128.34 18.99 -127.68 19.98 -127 21 C-126.459 22.554 -125.974 24.127 -125.527 25.711 C-125.268 26.626 -125.008 27.541 -124.74 28.484 C-124.475 29.438 -124.21 30.392 -123.938 31.375 C-123.669 32.321 -123.4 33.267 -123.123 34.242 C-121.93 38.479 -120.823 42.673 -120 47 C-119.433 46.522 -118.867 46.045 -118.283 45.553 C-115.822 43.879 -114.395 43.497 -111.473 43.156 C-110.58 43.046 -109.687 42.936 -108.767 42.822 C-107.322 42.663 -107.322 42.663 -105.848 42.5 C-104.838 42.378 -103.828 42.256 -102.787 42.131 C-99.547 41.742 -96.305 41.371 -93.062 41 C-88.845 40.504 -84.627 40.002 -80.41 39.5 C-79.367 39.377 -78.323 39.254 -77.248 39.128 C-69.57 38.216 -61.922 37.154 -54.273 36.032 C-46.823 34.949 -39.367 34.117 -31.875 33.375 C-29.476 33.136 -27.078 32.894 -24.68 32.648 C-23.656 32.547 -22.632 32.446 -21.578 32.341 C-18.889 32.068 -18.889 32.068 -16 31 C-16.256 28.657 -16.593 26.322 -17 24 C-17.66 23.67 -18.32 23.34 -19 23 C-22.088 17.027 -22.937 10.484 -21 4 C-17.517 1.678 -15.189 1.421 -11.062 0.875 C-9.224 0.624 -9.224 0.624 -7.348 0.367 C-4 0 -4 0 0 0 Z " fill="#FAFAFA" transform="translate(199,73)"/>
<path d="M0 0 C3.507 3.059 4.879 4.488 5.25 9.125 C3.909 14.923 0.058 19.989 -3 25 C-4.118 26.971 -5.224 28.95 -6.312 30.938 C-6.783 31.792 -7.254 32.647 -7.738 33.527 C-8.986 35.973 -10.023 38.436 -11 41 C-11.66 41 -12.32 41 -13 41 C-13.268 41.866 -13.536 42.733 -13.812 43.625 C-16.783 52.067 -16.783 52.067 -19.875 54.438 C-22.641 55.17 -24.253 54.785 -27 54 C-29.133 52.441 -29.133 52.441 -31.125 50.562 C-33.384 48.458 -35.416 46.723 -38 45 C-38 44.34 -38 43.68 -38 43 C-38.66 43 -39.32 43 -40 43 C-40 42.34 -40 41.68 -40 41 C-40.639 40.732 -41.279 40.464 -41.938 40.188 C-44 39 -44 39 -45 36 C-45.66 36 -46.32 36 -47 36 C-47 35.34 -47 34.68 -47 34 C-47.743 33.773 -48.485 33.546 -49.25 33.312 C-52.543 31.741 -53.975 30 -56 27 C-56 26.34 -56 25.68 -56 25 C-56.99 25 -57.98 25 -59 25 C-59.33 24.01 -59.66 23.02 -60 22 C-60.99 21.67 -61.98 21.34 -63 21 C-63.25 19.566 -63.474 18.127 -63.688 16.688 C-63.815 15.887 -63.943 15.086 -64.074 14.262 C-64 12 -64 12 -62.895 10.332 C-57.427 6.488 -50.632 6.341 -44.188 5.625 C-34.139 4.451 -24.172 2.974 -14.2 1.27 C-3.984 -0.441 -3.984 -0.441 0 0 Z " fill="#B0B0B0" transform="translate(248,126)"/>
<path d="M0 0 C1.966 3.704 3.921 7.414 5.875 11.125 C6.431 12.172 6.986 13.218 7.559 14.297 C8.094 15.315 8.629 16.334 9.18 17.383 C9.672 18.315 10.164 19.247 10.671 20.208 C12.04 23.085 13.055 25.96 14 29 C14.743 28.752 14.743 28.752 15.5 28.5 C19.034 27.793 22.397 27.94 26 28 C26 27.34 26 26.68 26 26 C48.988 21.874 76.016 21.999 99 26 C101.018 28.522 101 29.751 101 33 C101.66 33 102.32 33 103 33 C103 33.66 103 34.32 103 35 C103.66 35 104.32 35 105 35 C106.467 40.225 107.226 44.581 107 50 C106.67 50 106.34 50 106 50 C105.853 49.096 105.706 48.193 105.555 47.262 C104.884 43.737 104.168 40.395 103 37 C100.097 34.838 100.097 34.838 97 34 C95.191 31.368 95 30.239 95 27 C90.184 26.854 85.369 26.712 80.553 26.573 C78.923 26.525 77.293 26.477 75.663 26.427 C66.983 26.165 58.305 25.948 49.621 25.906 C48.926 25.9 48.231 25.893 47.514 25.887 C43.871 25.883 40.548 26.185 37 27 C35.397 27.064 33.792 27.086 32.188 27.062 C31.002 27.049 31.002 27.049 29.793 27.035 C29.201 27.024 28.61 27.012 28 27 C28 27.66 28 28.32 28 29 C27.117 29.116 26.235 29.232 25.325 29.351 C22.036 29.784 18.747 30.219 15.457 30.654 C14.036 30.842 12.616 31.029 11.195 31.216 C9.146 31.485 7.099 31.756 5.051 32.027 C3.82 32.19 2.589 32.352 1.322 32.519 C-0.682 32.809 -2.68 33.145 -4.659 33.566 C-7.043 34.008 -9.082 34.022 -11.5 33.922 C-20.718 33.842 -29.861 35.176 -39 36.25 C-40.979 36.478 -42.958 36.707 -44.937 36.935 C-58.784 38.548 -72.565 40.449 -86.341 42.593 C-95.543 44.001 -104.668 45.333 -114 45 C-114 45.66 -114 46.32 -114 47 C-139.977 51.247 -139.977 51.247 -149.25 50.938 C-155.657 50.77 -161.909 51.903 -168.214 52.933 C-174.194 53.876 -179.949 54.175 -186 54 C-186 53.67 -186 53.34 -186 53 C-181.894 52.398 -177.787 51.81 -173.677 51.236 C-172.283 51.039 -170.889 50.838 -169.496 50.634 C-161.817 49.507 -154.709 48.643 -147 50 C-147.371 48.742 -147.743 47.484 -148.125 46.188 C-148.758 44.043 -148.758 44.043 -149 42 C-148.34 41.01 -147.68 40.02 -147 39 C-147.66 39 -148.32 39 -149 39 C-150.861 34.295 -151.251 30.124 -151.125 25.125 C-151.116 24.437 -151.107 23.748 -151.098 23.039 C-151.074 21.359 -151.038 19.68 -151 18 C-143.362 16.025 -135.867 15.425 -128 15 C-128 15.66 -128 16.32 -128 17 C-128.495 17.495 -128.495 17.495 -129 18 C-128.34 18.99 -127.68 19.98 -127 21 C-126.459 22.554 -125.974 24.127 -125.527 25.711 C-125.268 26.626 -125.008 27.541 -124.74 28.484 C-124.475 29.438 -124.21 30.392 -123.938 31.375 C-123.669 32.321 -123.4 33.267 -123.123 34.242 C-121.93 38.479 -120.823 42.673 -120 47 C-119.433 46.522 -118.867 46.045 -118.283 45.553 C-115.822 43.879 -114.395 43.497 -111.473 43.156 C-110.58 43.046 -109.687 42.936 -108.767 42.822 C-107.322 42.663 -107.322 42.663 -105.848 42.5 C-104.838 42.378 -103.828 42.256 -102.787 42.131 C-99.547 41.742 -96.305 41.371 -93.062 41 C-88.845 40.504 -84.627 40.002 -80.41 39.5 C-79.367 39.377 -78.323 39.254 -77.248 39.128 C-69.57 38.216 -61.922 37.154 -54.273 36.032 C-46.823 34.949 -39.367 34.117 -31.875 33.375 C-29.476 33.136 -27.078 32.894 -24.68 32.648 C-23.656 32.547 -22.632 32.446 -21.578 32.341 C-18.889 32.068 -18.889 32.068 -16 31 C-16.256 28.657 -16.593 26.322 -17 24 C-17.66 23.67 -18.32 23.34 -19 23 C-22.088 17.027 -22.937 10.484 -21 4 C-17.517 1.678 -15.189 1.421 -11.062 0.875 C-9.224 0.624 -9.224 0.624 -7.348 0.367 C-4 0 -4 0 0 0 Z " fill="#010101" transform="translate(199,73)"/>
<path d="M0 0 C1 2 1 2 1 5 C1.516 4.34 2.031 3.68 2.562 3 C5.8 0.344 7.926 0.687 12 1 C12 1.66 12 2.32 12 3 C12.99 3.33 13.98 3.66 15 4 C15 4.66 15 5.32 15 6 C15.66 6 16.32 6 17 6 C17 6.66 17 7.32 17 8 C17.66 8 18.32 8 19 8 C19 8.66 19 9.32 19 10 C19.99 10.33 20.98 10.66 22 11 C22 11.66 22 12.32 22 13 C22.66 13 23.32 13 24 13 C24 13.66 24 14.32 24 15 C24.66 15 25.32 15 26 15 C26 15.66 26 16.32 26 17 C26.892 17.402 26.892 17.402 27.802 17.812 C30.018 19.01 31.421 20.203 33.164 22.004 C33.729 22.579 34.293 23.155 34.875 23.748 C35.453 24.347 36.03 24.946 36.625 25.562 C37.782 26.753 38.94 27.942 40.102 29.129 C40.61 29.656 41.119 30.182 41.643 30.725 C42.994 32.116 42.994 32.116 45 33 C45.594 35.649 45.742 38.292 46 41 C44.539 38.353 44 37.106 44 34 C43.34 34 42.68 34 42 34 C42 36.31 42 38.62 42 41 C41.34 41 40.68 41 40 41 C40 41.66 40 42.32 40 43 C36.008 44.996 31.198 45.043 26.812 45.625 C25.783 45.772 24.754 45.919 23.693 46.07 C18.226 46.799 13.387 47.35 8 46 C6.562 43.938 6.562 43.938 6 42 C6.363 44.629 6.788 45.793 8.71 47.673 C11.685 49.397 13.052 49.07 16.395 48.418 C17.433 48.228 18.471 48.038 19.541 47.842 C21.16 47.518 21.16 47.518 22.812 47.188 C35.852 44.693 35.852 44.693 42 45 C42 45.33 42 45.66 42 46 C38.355 46.651 34.709 47.295 31.062 47.938 C29.53 48.211 29.53 48.211 27.967 48.49 C25.938 48.847 23.908 49.191 21.875 49.523 C20.061 49.824 18.25 50.155 16.449 50.528 C12.169 51.288 10.51 51.27 6.543 49.172 C2.92 45.54 2.757 41.152 2.312 36.25 C2.098 34.367 1.88 32.484 1.66 30.602 C1.556 29.662 1.452 28.723 1.344 27.755 C0.749 22.992 -0.192 18.292 -1.175 13.595 C-2.033 9.142 -1.921 5.437 -1 1 C-0.67 0.67 -0.34 0.34 0 0 Z " fill="#000000" transform="translate(34,158)"/>
<path d="M0 0 C-0.33 0.66 -0.66 1.32 -1 2 C-2.454 1.957 -2.454 1.957 -3.938 1.914 C-8.38 1.916 -12.631 2.626 -17 3.375 C-18.689 3.654 -20.377 3.931 -22.066 4.207 C-23.316 4.411 -23.316 4.411 -24.59 4.62 C-29.119 5.335 -33.666 5.903 -38.215 6.473 C-43.495 7.208 -48.745 8.106 -54 9 C-52.8 8.834 -52.8 8.834 -51.576 8.665 C-43.896 7.602 -36.215 6.543 -28.535 5.487 C-25.659 5.091 -22.785 4.691 -19.91 4.289 C-17.975 4.022 -17.975 4.022 -16 3.75 C-14.928 3.6 -13.855 3.451 -12.75 3.297 C-10.141 3.015 -7.622 2.942 -5 3 C-8.413 5.006 -11.464 5.476 -15.375 5.938 C-16.683 6.099 -17.992 6.26 -19.34 6.426 C-20.434 6.558 -20.434 6.558 -21.55 6.694 C-26.352 7.294 -31.144 7.966 -35.938 8.625 C-37.863 8.888 -39.789 9.151 -41.715 9.414 C-43.143 9.609 -44.572 9.805 -46 10 C-46 11.32 -46 12.64 -46 14 C-45.34 14 -44.68 14 -44 14 C-43.34 16.64 -42.68 19.28 -42 22 C-41.01 21.67 -40.02 21.34 -39 21 C-36.609 20.656 -34.212 20.349 -31.812 20.062 C-31.112 19.975 -30.412 19.888 -29.69 19.798 C-25.985 19.34 -22.279 18.923 -18.562 18.566 C-17.85 18.492 -17.137 18.418 -16.403 18.342 C-14.412 18.135 -12.419 17.946 -10.426 17.758 C-6.635 16.919 -4.794 15.639 -2 13 C-2.33 15.64 -2.66 18.28 -3 21 C-3.66 21 -4.32 21 -5 21 C-5.141 21.584 -5.281 22.168 -5.426 22.77 C-7.332 30.174 -10.584 35.826 -15 42 C-15 38.804 -14.453 37.583 -13 34.812 C-12.629 34.097 -12.257 33.382 -11.875 32.645 C-11.586 32.102 -11.297 31.559 -11 31 C-11.99 31.99 -12.98 32.98 -14 34 C-14 33.01 -14 32.02 -14 31 C-15.073 31.199 -15.073 31.199 -16.168 31.402 C-23.767 32.749 -31.3 33.528 -39 34 C-38.289 40.402 -36.652 44.467 -31.801 48.816 C-29.993 50.232 -29.993 50.232 -27.375 50.062 C-26.591 49.712 -25.808 49.361 -25 49 C-24.113 48.691 -23.226 48.381 -22.312 48.062 C-19.872 47.103 -19.872 47.103 -18 45 C-18.576 47.386 -19.222 49.667 -20 52 C-20.66 52 -21.32 52 -22 52 C-22 52.66 -22 53.32 -22 54 C-25.549 56.366 -26.819 56.629 -31 56 C-33.29 54.152 -35.108 52.463 -37.062 50.312 C-37.818 49.517 -37.818 49.517 -38.588 48.705 C-39.587 47.651 -40.581 46.592 -41.569 45.528 C-43.658 43.297 -45.83 41.152 -48 39 C-48.804 38.175 -49.609 37.35 -50.438 36.5 C-53.009 33.917 -53.009 33.917 -56.062 31.5 C-58.803 29.167 -60.935 26.939 -63 24 C-63 23.34 -63 22.68 -63 22 C-63.99 22 -64.98 22 -66 22 C-68.458 18.313 -68.311 16.357 -68 12 C-65.713 8.569 -64.521 8.311 -60.633 7.461 C-56.196 6.684 -51.733 6.132 -47.266 5.566 C-42.641 4.969 -38.041 4.239 -33.438 3.5 C-31.823 3.243 -30.208 2.987 -28.594 2.73 C-26.38 2.379 -24.166 2.027 -21.953 1.67 C-14.577 0.492 -7.475 -0.31 0 0 Z " fill="#060606" transform="translate(134,143)"/>
<path d="M0 0 C6.505 1.35 6.505 1.35 8.685 4.214 C10.128 7.271 10.504 9.531 10.73 12.895 C10.811 14.015 10.892 15.136 10.975 16.291 C11.045 17.453 11.115 18.615 11.188 19.812 C11.269 20.963 11.351 22.113 11.436 23.299 C11.656 26.532 11.837 29.764 12 33 C12.051 33.814 12.102 34.628 12.155 35.466 C12.272 38.427 12.149 40.663 10.945 43.391 C5.677 47.749 -4.578 48.118 -11.25 48.438 C-15 48 -15 48 -17 46.438 C-18.542 42.678 -19.854 39.195 -18.305 35.213 C-17.977 34.599 -17.65 33.985 -17.312 33.352 C-16.946 32.653 -16.579 31.954 -16.201 31.234 C-15.805 30.497 -15.408 29.76 -15 29 C-14.199 27.471 -13.398 25.943 -12.598 24.414 C-11.753 22.817 -10.908 21.221 -10.062 19.625 C-6.627 13.123 -3.228 6.609 0 0 Z " fill="#000000" transform="translate(270,124)"/>
<path d="M0 0 C1.372 1.287 2.69 2.631 4.004 3.977 C4.004 4.637 4.004 5.297 4.004 5.977 C4.664 5.977 5.324 5.977 6.004 5.977 C6.004 8.287 6.004 10.597 6.004 12.977 C1.747 15.154 -2.029 16.244 -6.77 16.914 C-11.801 17.649 -16.821 18.429 -21.836 19.266 C-23.179 19.487 -24.522 19.709 -25.865 19.93 C-27.915 20.267 -29.964 20.607 -32.013 20.95 C-34.037 21.289 -36.061 21.622 -38.086 21.953 C-39.271 22.15 -40.455 22.347 -41.676 22.549 C-44.85 22.958 -47.802 23.173 -50.996 22.977 C-52.934 21.352 -52.934 21.352 -53.996 18.977 C-53.996 14.275 -52.029 10.738 -49.836 6.711 C-44.382 1.57 -33.691 2.018 -26.532 1.117 C-24.434 0.852 -22.337 0.577 -20.24 0.301 C-18.887 0.127 -17.533 -0.046 -16.18 -0.219 C-14.969 -0.374 -13.757 -0.528 -12.51 -0.688 C-3.095 -1.587 -3.095 -1.587 0 0 Z " fill="#FFFFFF" transform="translate(189.99609375,166.0234375)"/>
<path d="M0 0 C0.99 1.485 0.99 1.485 2 3 C-0.31 2.67 -2.62 2.34 -5 2 C-4.01 2.33 -3.02 2.66 -2 3 C-0.5 5.438 -0.5 5.438 0 9 C-1.64 13.652 -3.889 19.057 -8 22 C-10.801 22.406 -10.801 22.406 -14.312 22.5 C-21.185 22.785 -27.937 23.558 -34.75 24.5 C-35.715 24.631 -36.679 24.762 -37.673 24.896 C-42.908 25.626 -42.908 25.626 -48 27 C-46.35 28.65 -44.7 30.3 -43 32 C-43.99 32 -44.98 32 -46 32 C-46.33 31.01 -46.66 30.02 -47 29 C-48.325 28.316 -49.659 27.65 -51 27 C-51.66 26.01 -52.32 25.02 -53 24 C-49.37 24 -45.74 24 -42 24 C-42.825 22.433 -43.65 20.865 -44.5 19.25 C-46.387 15.664 -47 14.164 -47 10 C-52.445 11.485 -52.445 11.485 -58 13 C-57.34 12.01 -56.68 11.02 -56 10 C-57.98 10.33 -59.96 10.66 -62 11 C-62.33 13.31 -62.66 15.62 -63 18 C-63.33 18 -63.66 18 -64 18 C-64.362 12.564 -64.362 12.564 -62.875 10.25 C-57.341 6.561 -50.612 6.338 -44.188 5.625 C-34.139 4.451 -24.172 2.974 -14.2 1.27 C-3.793 -0.473 -3.793 -0.473 0 0 Z " fill="#282828" transform="translate(248,126)"/>
<path d="M0 0 C0.882 0.862 1.763 1.725 2.672 2.613 C3.564 3.463 4.456 4.312 5.375 5.188 C7.777 8.401 7.858 10.007 7.422 13.926 C6.762 13.926 6.102 13.926 5.422 13.926 C5.422 14.586 5.422 15.246 5.422 15.926 C0.982 18.146 -4.578 18.12 -9.453 18.738 C-10.651 18.91 -11.848 19.082 -13.082 19.26 C-14.233 19.403 -15.384 19.547 -16.57 19.695 C-17.626 19.836 -18.681 19.976 -19.769 20.12 C-22.578 19.926 -22.578 19.926 -24.902 18.074 C-28.626 13.301 -28.88 6.804 -28.578 0.926 C-23.69 -0.573 -18.974 -1.578 -13.891 -2.262 C-12.608 -2.441 -11.325 -2.62 -10.004 -2.805 C-5.281 -3.176 -3.71 -2.985 0 0 Z " fill="#FFFFFF" transform="translate(67.578125,184.07421875)"/>
<path d="M0 0 C0.33 0.66 0.66 1.32 1 2 C0.34 2 -0.32 2 -1 2 C-1 2.99 -1 3.98 -1 5 C-0.34 4.34 0.32 3.68 1 3 C4.342 7.675 5.388 12.689 6.688 18.188 C6.912 19.102 7.137 20.017 7.369 20.959 C9 27.676 9 27.676 9 30 C2.622 31.173 -3.503 32.295 -10 32 C-10.689 29.244 -11.378 26.487 -12.066 23.73 C-12.738 21.045 -13.413 18.36 -14.09 15.676 C-14.363 14.59 -14.363 14.59 -14.642 13.482 C-15.003 12.045 -15.366 10.607 -15.729 9.17 C-17 4.113 -17 4.113 -17 3 C-11.39 2.01 -5.78 1.02 0 0 Z " fill="#FFFFFF" transform="translate(67,90)"/>
<path d="M0 0 C1.27 5.762 1.27 5.762 1 8 C-1.581 11.425 -3.238 12.81 -7.426 13.855 C-8.708 13.965 -9.991 14.075 -11.312 14.188 C-12.729 14.323 -14.146 14.46 -15.562 14.598 C-16.29 14.661 -17.017 14.724 -17.766 14.79 C-21.46 15.138 -25.134 15.64 -28.812 16.125 C-35.631 17 -35.631 17 -39 17 C-39.66 14.36 -40.32 11.72 -41 9 C-41.66 9 -42.32 9 -43 9 C-43 7.68 -43 6.36 -43 5 C-38.321 3.568 -33.874 2.599 -29 2 C-27.702 1.839 -26.404 1.678 -25.066 1.512 C-24.399 1.43 -23.731 1.348 -23.043 1.263 C-20.992 0.999 -18.948 0.702 -16.902 0.395 C-16.238 0.297 -15.573 0.2 -14.889 0.1 C-13.038 -0.173 -11.189 -0.451 -9.34 -0.73 C-6 -1 -3.264 -0.7 0 0 Z " fill="#FFFFFF" transform="translate(131,148)"/>
<path d="M0 0 C0.8 0.002 1.6 0.005 2.424 0.007 C3.33 0.011 3.33 0.011 4.254 0.016 C4.797 1.185 5.339 2.354 5.898 3.559 C6.621 5.107 7.344 6.655 8.066 8.203 C8.601 9.357 8.601 9.357 9.146 10.533 C11.004 14.504 12.989 18.259 15.254 22.016 C15.914 23.666 16.574 25.316 17.254 27.016 C8.344 28.006 8.344 28.006 -0.746 29.016 C-4.121 21.766 -4.121 21.766 -5.173 19.503 C-6.657 16.319 -8.149 13.145 -9.746 10.016 C-11.066 11.006 -12.386 11.996 -13.746 13.016 C-15.065 9.059 -14.21 6.685 -13.121 2.766 C-11.746 1.016 -11.746 1.016 -8.684 0.266 C-5.761 0.08 -2.922 -0.011 0 0 Z " fill="#F1F1F1" transform="translate(193.74609375,75.984375)"/>
<path d="M0 0 C0.66 0.33 1.32 0.66 2 1 C1.794 1.66 1.588 2.32 1.375 3 C0.967 6.26 1.623 8.569 2.452 11.708 C3.415 15.737 3.895 19.834 4.438 23.938 C5.61 32.451 6.993 40.898 8.526 49.354 C9.564 55.148 10.56 60.949 11.562 66.75 C11.772 67.958 11.982 69.166 12.199 70.41 C13.392 77.317 14.497 84.224 15.453 91.169 C16.264 95.365 17.632 98.448 20 102 C31.918 100.706 43.73 98.8 55.555 96.853 C62.844 95.655 70.136 94.541 77.45 93.514 C83.834 92.59 90.197 91.539 96.562 90.5 C104.018 89.285 111.474 88.073 118.941 86.934 C123.093 86.3 127.235 85.63 131.372 84.91 C138.977 83.589 146.59 82.515 154.25 81.562 C162.801 80.495 171.237 79.099 179.701 77.485 C187.482 76.029 195.29 74.97 203.15 74.039 C207.181 73.552 211.125 73.021 215.074 72.07 C223.208 70.162 231.591 69.308 239.862 68.177 C250.951 66.682 250.951 66.682 261.91 64.451 C266.307 63.502 270.789 63.044 275.25 62.5 C282.716 61.562 290.152 60.567 297.574 59.332 C300 59 300 59 304 59 C304.66 55.37 305.32 51.74 306 48 C306.33 48 306.66 48 307 48 C307 51.63 307 55.26 307 59 C302.337 60.729 297.766 61.593 292.855 62.219 C291.702 62.374 291.702 62.374 290.524 62.532 C288.08 62.86 285.634 63.181 283.188 63.5 C270.745 65.048 270.745 65.048 258.458 67.486 C251.11 69.022 243.574 69.807 236.138 70.823 C225.029 72.322 225.029 72.322 214.05 74.558 C209.853 75.463 205.573 75.871 201.312 76.375 C193.486 77.344 185.746 78.523 178 80 C170.521 81.423 163.056 82.572 155.5 83.5 C148.214 84.397 141.02 85.488 133.812 86.875 C122.098 89.125 110.295 90.685 98.474 92.25 C91.941 93.121 85.475 94.005 79.061 95.553 C74.861 96.464 70.577 96.87 66.312 97.375 C58.273 98.366 50.331 99.606 42.375 101.125 C21.973 104.991 21.973 104.991 16 103 C12.349 94.007 11.752 83.327 10.438 73.75 C10.125 71.487 9.81 69.225 9.49 66.963 C9.201 64.922 8.92 62.881 8.638 60.839 C8.181 58.088 7.658 55.493 6.97 52.802 C6.243 49.952 5.659 47.269 5.289 44.363 C5.181 43.549 5.072 42.734 4.96 41.895 C4.85 41.043 4.739 40.19 4.625 39.312 C3.474 30.784 2.006 22.358 0.27 13.929 C-0.609 9.56 -1.32 5.484 -1 1 C-0.67 0.67 -0.34 0.34 0 0 Z " fill="#010101" transform="translate(11,127)"/>
<path d="M0 0 C0 0.66 0 1.32 0 2 C-0.33 2.33 -0.66 2.66 -1 3 C-0.34 3.99 0.32 4.98 1 6 C1.541 7.554 2.026 9.127 2.473 10.711 C2.732 11.626 2.992 12.541 3.26 13.484 C3.525 14.438 3.79 15.392 4.062 16.375 C4.466 17.794 4.466 17.794 4.877 19.242 C6.07 23.479 7.177 27.673 8 32 C8.567 31.522 9.133 31.045 9.717 30.553 C12.178 28.879 13.605 28.497 16.527 28.156 C17.42 28.046 18.313 27.936 19.233 27.822 C20.196 27.716 21.16 27.61 22.152 27.5 C23.162 27.378 24.172 27.256 25.213 27.131 C28.453 26.742 31.695 26.371 34.938 26 C38.106 25.628 41.273 25.252 44.441 24.875 C46.546 24.624 48.651 24.375 50.756 24.128 C57.526 23.325 64.272 22.412 71.016 21.418 C79.93 20.108 88.841 19.125 97.812 18.312 C99.21 18.182 100.608 18.051 102.006 17.92 C105.337 17.609 108.668 17.302 112 17 C108.959 20.041 105.237 19.739 101.129 20.148 C100.228 20.246 99.326 20.343 98.398 20.443 C96.461 20.652 94.523 20.858 92.585 21.059 C87.54 21.586 82.499 22.142 77.457 22.699 C76.462 22.809 75.467 22.919 74.441 23.032 C66.516 23.917 58.632 24.973 50.75 26.188 C49.689 26.351 48.627 26.514 47.534 26.682 C45.576 26.985 43.617 27.289 41.659 27.593 C32.457 29.001 23.332 30.333 14 30 C14 30.66 14 31.32 14 32 C-11.977 36.247 -11.977 36.247 -21.25 35.938 C-27.657 35.77 -33.909 36.903 -40.214 37.933 C-46.194 38.876 -51.949 39.175 -58 39 C-58 38.67 -58 38.34 -58 38 C-53.894 37.398 -49.787 36.81 -45.677 36.236 C-44.283 36.039 -42.889 35.838 -41.496 35.634 C-33.817 34.507 -26.709 33.643 -19 35 C-19.371 33.742 -19.742 32.484 -20.125 31.188 C-20.758 29.043 -20.758 29.043 -21 27 C-20.34 26.01 -19.68 25.02 -19 24 C-19.66 24 -20.32 24 -21 24 C-22.861 19.295 -23.251 15.124 -23.125 10.125 C-23.116 9.437 -23.107 8.748 -23.098 8.039 C-23.074 6.359 -23.038 4.68 -23 3 C-15.391 1.129 -7.852 0 0 0 Z M-4 2 C-12.415 3.485 -12.415 3.485 -21 5 C-20.546 7.372 -20.093 9.744 -19.625 12.188 C-19.487 12.925 -19.348 13.663 -19.206 14.423 C-18.474 18.158 -17.467 21.499 -16 25 C-15.589 26.595 -15.212 28.2 -14.875 29.812 C-14.707 30.603 -14.54 31.393 -14.367 32.207 C-14.246 32.799 -14.125 33.39 -14 34 C-11.958 33.858 -9.916 33.711 -7.875 33.562 C-6.17 33.441 -6.17 33.441 -4.43 33.316 C-1.246 33.023 1.855 32.569 5 32 C3.066 17.283 3.066 17.283 -4 5 C-4.33 5.33 -4.66 5.66 -5 6 C-5 5.34 -5 4.68 -5 4 C-4.34 4 -3.68 4 -3 4 C-3.33 3.34 -3.66 2.68 -4 2 Z " fill="#020202" transform="translate(71,88)"/>
<path d="M0 0 C-0.33 0.66 -0.66 1.32 -1 2 C-2.454 1.957 -2.454 1.957 -3.938 1.914 C-8.38 1.916 -12.631 2.626 -17 3.375 C-18.695 3.654 -20.39 3.931 -22.086 4.207 C-22.92 4.343 -23.753 4.479 -24.612 4.62 C-36.023 6.437 -47.524 7.68 -59 9 C-59 9.66 -59 10.32 -59 11 C-59.516 11.392 -60.031 11.784 -60.562 12.188 C-62.416 14.099 -62.416 14.099 -61.688 17.688 C-61.347 19.327 -61.347 19.327 -61 21 C-61 20.34 -61 19.68 -61 19 C-55.429 17.408 -50.789 16.793 -45 17 C-45 18.98 -45 20.96 -45 23 C-45.699 23.061 -46.397 23.121 -47.117 23.184 C-48.027 23.267 -48.937 23.351 -49.875 23.438 C-50.78 23.519 -51.685 23.6 -52.617 23.684 C-55.011 23.87 -55.011 23.87 -57 25 C-53.426 28.722 -49.833 32.424 -46.221 36.108 C-44.996 37.364 -43.776 38.625 -42.561 39.892 C-40.813 41.713 -39.045 43.514 -37.273 45.312 C-36.467 46.166 -36.467 46.166 -35.644 47.036 C-33.043 49.639 -31.468 50.931 -27.78 51.473 C-23.376 50.724 -21.064 48.064 -18 45 C-18.576 47.386 -19.222 49.667 -20 52 C-20.66 52 -21.32 52 -22 52 C-22 52.66 -22 53.32 -22 54 C-25.549 56.366 -26.819 56.629 -31 56 C-33.29 54.152 -35.108 52.463 -37.062 50.312 C-37.818 49.517 -37.818 49.517 -38.588 48.705 C-39.587 47.651 -40.581 46.592 -41.569 45.528 C-43.658 43.297 -45.83 41.152 -48 39 C-48.804 38.175 -49.609 37.35 -50.438 36.5 C-53.009 33.917 -53.009 33.917 -56.062 31.5 C-58.803 29.167 -60.935 26.939 -63 24 C-63 23.34 -63 22.68 -63 22 C-63.99 22 -64.98 22 -66 22 C-68.458 18.313 -68.311 16.357 -68 12 C-65.713 8.569 -64.521 8.311 -60.633 7.461 C-56.196 6.684 -51.733 6.132 -47.266 5.566 C-42.641 4.969 -38.041 4.239 -33.438 3.5 C-31.823 3.243 -30.208 2.987 -28.594 2.73 C-26.38 2.379 -24.166 2.027 -21.953 1.67 C-14.577 0.492 -7.475 -0.31 0 0 Z " fill="#797979" transform="translate(134,143)"/>
<path d="M0 0 C0.25 1.914 0.474 3.832 0.688 5.75 C0.815 6.817 0.943 7.885 1.074 8.984 C1 12 1 12 -0.027 14.281 C-2.889 16.775 -5.54 17.085 -9.25 17.75 C-11.176 18.114 -11.176 18.114 -13.141 18.484 C-16.817 18.976 -20.297 19.096 -24 19 C-24.33 18.01 -24.66 17.02 -25 16 C-25.66 16 -26.32 16 -27 16 C-26.54 11.306 -26.124 7.645 -23 4 C-18.097 2.327 -13.255 1.515 -8.125 0.875 C-7.45 0.789 -6.774 0.702 -6.078 0.613 C-1.23 0 -1.23 0 0 0 Z " fill="#FFFFFF" transform="translate(280,152)"/>
<path d="M0 0 C0.992 0.029 0.992 0.029 2.005 0.058 C0.533 4.216 -1.124 7.685 -3.995 11.058 C-8.556 12.85 -13.006 13.045 -17.87 13.246 C-19.131 13.339 -20.392 13.433 -21.691 13.529 C-24.792 13.752 -27.889 13.927 -30.995 14.058 C-31.655 12.738 -32.315 11.418 -32.995 10.058 C-34.009 10.253 -34.009 10.253 -35.042 10.453 C-37.76 10.873 -40.246 11.179 -42.995 11.058 C-45.62 8.621 -45.62 8.621 -46.995 6.058 C-45.249 4.312 -42.76 4.617 -40.378 4.375 C-38.63 4.19 -38.63 4.19 -36.847 4.001 C-35.617 3.876 -34.387 3.75 -33.12 3.621 C-25.443 2.835 -17.889 1.914 -10.309 0.457 C-6.837 -0.142 -3.504 -0.102 0 0 Z " fill="#FFFFFF" transform="translate(125.995361328125,161.94189453125)"/>
<path d="M0 0 C0.66 0.99 1.32 1.98 2 3 C2.66 3.309 3.32 3.619 4 3.938 C6.475 5.253 6.87 6.502 8 9 C-0.091 10.59 -8.183 11.705 -16.375 12.625 C-17.524 12.759 -18.672 12.893 -19.855 13.031 C-24.598 13.572 -29.221 14.082 -34 14 C-31.767 6.982 -31.767 6.982 -30 4 C-26.271 2.136 -21.909 2.016 -17.812 1.438 C-16.879 1.299 -15.945 1.16 -14.982 1.018 C-4.739 -0.446 -4.739 -0.446 0 0 Z " fill="#FDFDFD" transform="translate(178,155)"/>
<path d="M0 0 C0.416 4.495 -0.748 6.823 -3.188 10.562 C-3.779 11.492 -4.371 12.421 -4.98 13.379 C-7.09 16.117 -9.165 18.033 -12 20 C-14.997 20.237 -16.432 19.409 -18.836 17.676 C-22.535 14.437 -24.397 12.024 -24.938 7.062 C-24.989 5.709 -25.021 4.354 -25 3 C-21.799 1.4 -18.269 1.337 -14.75 0.938 C-13.998 0.847 -13.247 0.756 -12.473 0.662 C-8.29 0.177 -4.219 -0.101 0 0 Z " fill="#EEEEEE" transform="translate(120,174)"/>
<path d="M0 0 C-0.617 2.418 -0.617 2.418 -2 5 C-4.758 5.926 -4.758 5.926 -8.125 6.312 C-9.867 6.519 -9.867 6.519 -11.645 6.73 C-15.469 7.038 -19.167 7.15 -23 7 C-23.33 8.98 -23.66 10.96 -24 13 C-27.028 13.666 -29.894 14.135 -33 14 C-36.062 11.688 -36.062 11.688 -38 9 C-38 8.34 -38 7.68 -38 7 C-38.99 6.67 -39.98 6.34 -41 6 C-37.386 3.823 -33.939 3.436 -29.785 2.93 C-29.092 2.844 -28.4 2.758 -27.686 2.669 C-26.225 2.489 -24.763 2.313 -23.301 2.14 C-21.073 1.876 -18.846 1.601 -16.619 1.324 C-4.804 -0.118 -4.804 -0.118 0 0 Z " fill="#FFFFFF" transform="translate(240,147)"/>
<path d="M0 0 C1.949 0.816 1.949 0.816 4 2 C4.992 5.586 5.184 7.447 4 11 C1.142 12.905 0.022 13.342 -3.218 13.838 C-4.491 14.038 -4.491 14.038 -5.79 14.243 C-7.168 14.447 -7.168 14.447 -8.574 14.656 C-9.531 14.804 -10.487 14.952 -11.473 15.104 C-13.506 15.417 -15.54 15.726 -17.573 16.032 C-20.632 16.492 -23.688 16.962 -26.744 17.434 C-31.6 18.18 -36.459 18.903 -41.321 19.609 C-43.053 19.862 -44.784 20.118 -46.515 20.379 C-48.744 20.713 -50.975 21.031 -53.207 21.344 C-54.435 21.521 -55.664 21.698 -56.929 21.881 C-60.068 22.003 -61.467 21.803 -64 20 C-65.41 17.18 -65.245 15.13 -65 12 C-63.5 9.125 -63.5 9.125 -62 7 C-60.393 10.215 -60.943 13.436 -61 17 C-60.34 17 -59.68 17 -59 17 C-59 17.66 -59 18.32 -59 19 C-53.757 18.203 -48.514 17.403 -43.271 16.601 C-41.496 16.33 -39.721 16.06 -37.945 15.79 C-28.731 14.389 -19.523 12.958 -10.34 11.363 C-9.625 11.241 -8.911 11.119 -8.174 10.992 C-4.477 10.354 -4.477 10.354 -1 9 C-0.533 6.874 -0.533 6.874 -0.375 4.438 C-0.3 3.611 -0.225 2.785 -0.148 1.934 C-0.075 0.976 -0.075 0.976 0 0 Z " fill="#FFFFFF" transform="translate(197,171)"/>
<path d="M0 0 C2.938 0.812 2.938 0.812 4.938 2.812 C7.038 11.942 7.3 21.618 7.812 30.938 C7.886 32.028 7.96 33.119 8.035 34.242 C8.236 38.603 8.328 41.882 6.625 45.938 C2.418 48.873 -1.916 49.151 -6.938 49.688 C-7.918 49.816 -8.899 49.945 -9.91 50.078 C-14.787 50.67 -19.265 51.185 -24.062 49.812 C-26.062 47.812 -26.062 47.812 -26.258 45.867 C-26.16 42.84 -26.16 42.84 -26.062 39.812 C-25.732 39.812 -25.403 39.812 -25.062 39.812 C-24.753 40.761 -24.444 41.71 -24.125 42.688 C-23.189 45.673 -23.189 45.673 -22.062 47.812 C-16.246 48.119 -10.843 47.583 -5.125 46.5 C-3.837 46.256 -2.549 46.013 -1.223 45.762 C2.208 45.097 2.208 45.097 3.938 41.812 C4.154 39.163 4.154 39.163 3.984 36.184 C3.942 35.065 3.899 33.947 3.855 32.795 C3.8 31.625 3.745 30.455 3.688 29.25 C3.648 28.107 3.608 26.964 3.566 25.787 C3.247 14.489 3.247 14.489 -0.062 3.812 C-3.092 3.155 -3.092 3.155 -6.062 2.812 C-4.09 0.072 -3.469 -0.212 0 0 Z " fill="#FFFFFF" transform="translate(277.0625,123.1875)"/>
<path d="M0 0 C0 0.66 0 1.32 0 2 C3.386 3.509 3.386 3.509 7 4 C7 5.32 7 6.64 7 8 C1.624 9.756 -3.301 10.393 -8.938 10.625 C-9.717 10.664 -10.496 10.702 -11.299 10.742 C-13.199 10.835 -15.099 10.919 -17 11 C-17.33 7.7 -17.66 4.4 -18 1 C-12.033 -0.326 -6.074 -0.088 0 0 Z " fill="#FDFDFD" transform="translate(55,172)"/>
<path d="M0 0 C3.082 0.367 4.407 1.177 6.625 3.312 C6.625 3.972 6.625 4.632 6.625 5.312 C7.615 5.643 8.605 5.972 9.625 6.312 C9.625 6.972 9.625 7.632 9.625 8.312 C10.945 8.972 12.265 9.632 13.625 10.312 C13.625 10.643 13.625 10.972 13.625 11.312 C11.127 11.822 8.627 12.32 6.125 12.812 C5.429 12.956 4.733 13.099 4.016 13.246 C-0.866 14.195 -5.402 14.447 -10.375 14.312 C-8.873 9.054 -6.147 0.809 0 0 Z " fill="#FFFFFF" transform="translate(161.375,142.6875)"/>
<path d="M0 0 C2.5 0.125 2.5 0.125 5 1 C6.312 3.062 6.312 3.062 7 5 C7.413 4.175 7.825 3.35 8.25 2.5 C8.827 1.675 9.405 0.85 10 0 C11.32 0 12.64 0 14 0 C14 0.66 14 1.32 14 2 C14.66 2 15.32 2 16 2 C16.054 3.458 16.093 4.916 16.125 6.375 C16.148 7.187 16.171 7.999 16.195 8.836 C16 11 16 11 14 13 C10.875 12.625 10.875 12.625 8 12 C7.67 10.68 7.34 9.36 7 8 C5.515 10.475 5.515 10.475 4 13 C-0.578 12.518 -0.578 12.518 -2.375 10.312 C-3.208 7.23 -2.8 5.068 -2 2 C-1.34 1.34 -0.68 0.68 0 0 Z " fill="#000000" transform="translate(253,292)"/>
<path d="M0 0 C0.99 0.33 1.98 0.66 3 1 C2.294 4.672 0.693 7.687 -1 11 C0.258 10.807 1.516 10.613 2.812 10.414 C12.433 8.947 22.05 7.569 31.715 6.43 C34.514 6.064 37.242 5.597 40 5 C39.505 4.01 39.505 4.01 39 3 C39.33 2.67 39.66 2.34 40 2 C40.33 1.34 40.66 0.68 41 0 C41.66 0.33 42.32 0.66 43 1 C43 1.66 43 2.32 43 3 C43.66 3 44.32 3 45 3 C46 6 46 6 46 9 C45.01 8.67 44.02 8.34 43 8 C37.737 7.786 32.737 8.315 27.547 9.059 C26.374 9.222 26.374 9.222 25.177 9.388 C23.536 9.617 21.896 9.848 20.256 10.081 C17.744 10.438 15.232 10.787 12.719 11.135 C11.12 11.359 9.521 11.583 7.922 11.809 C7.172 11.913 6.422 12.017 5.649 12.124 C-0.056 12.636 -0.056 12.636 -4.422 15.82 C-7.553 21.1 -7.553 21.1 -7.812 27.062 C-7.544 28.032 -7.276 29.001 -7 30 C-7.66 30 -8.32 30 -9 30 C-10.478 27.043 -10.06 24.258 -10 21 C-12.6 24.9 -12.151 28.474 -12 33 C-12.66 32.67 -13.32 32.34 -14 32 C-14.599 25.01 -13.001 21.258 -9.25 15.438 C-8.359 13.999 -7.468 12.56 -6.578 11.121 C-6.146 10.435 -5.713 9.749 -5.268 9.042 C-3.426 6.075 -1.712 3.044 0 0 Z " fill="#000000" transform="translate(145,158)"/>
<path d="M0 0 C0.959 3.54 1.492 5.752 0.129 9.211 C-3.024 14.653 -3.024 14.653 -6.812 16 C-7.534 16 -8.256 16 -9 16 C-9.619 14.298 -9.619 14.298 -10.25 12.562 C-11.567 8.905 -11.567 8.905 -14.188 8.062 C-14.786 8.042 -15.384 8.021 -16 8 C-16 6.02 -16 4.04 -16 2 C-10.429 0.408 -5.789 -0.207 0 0 Z " fill="#FFFFFF" transform="translate(245,130)"/>
<path d="M0 0 C0 3.3 0 6.6 0 10 C-2.947 11.473 -6.08 11.646 -9.312 12.062 C-9.977 12.153 -10.642 12.244 -11.326 12.338 C-14.908 12.809 -18.387 13.105 -22 13 C-20.94 9.104 -19.658 6.069 -17 3 C-11.55 0.984 -5.828 0 0 0 Z " fill="#FFFFFF" transform="translate(280,141)"/>
<path d="M0 0 C0.66 0.99 1.32 1.98 2 3 C-0.31 2.67 -2.62 2.34 -5 2 C-4.01 2.33 -3.02 2.66 -2 3 C-0.5 5.438 -0.5 5.438 0 9 C-1.708 13.846 -3.977 18.685 -8 22 C-10.085 22.432 -10.085 22.432 -12.449 22.512 C-13.721 22.565 -13.721 22.565 -15.018 22.619 C-15.899 22.642 -16.78 22.664 -17.688 22.688 C-19.027 22.739 -19.027 22.739 -20.393 22.791 C-22.595 22.873 -24.797 22.943 -27 23 C-25 21 -25 21 -22.617 20.805 C-21.712 20.828 -20.807 20.851 -19.875 20.875 C-18.51 20.902 -18.51 20.902 -17.117 20.93 C-16.419 20.953 -15.72 20.976 -15 21 C-15 20.34 -15 19.68 -15 19 C-15.99 19.33 -16.98 19.66 -18 20 C-20.393 20.226 -22.789 20.408 -25.188 20.562 C-27.096 20.688 -27.096 20.688 -29.043 20.816 C-30.019 20.877 -30.995 20.938 -32 21 C-29.154 18.154 -26.196 18.544 -22.375 18.375 C-21.315 18.317 -21.315 18.317 -20.234 18.258 C-18.49 18.164 -16.745 18.081 -15 18 C-15.33 17.34 -15.66 16.68 -16 16 C-18.126 15.533 -18.126 15.533 -20.562 15.375 C-21.389 15.3 -22.215 15.225 -23.066 15.148 C-23.704 15.099 -24.343 15.05 -25 15 C-24.67 14.34 -24.34 13.68 -24 13 C-23.34 13 -22.68 13 -22 13 C-22 10.36 -22 7.72 -22 5 C-18.798 3.238 -15.664 2.266 -12.125 1.375 C-11.117 1.115 -10.109 0.854 -9.07 0.586 C-5.91 -0.017 -3.205 -0.32 0 0 Z M-19 6 C-19 7.98 -19 9.96 -19 12 C-18.402 12.021 -17.804 12.041 -17.188 12.062 C-15 13 -15 13 -13.25 16.562 C-12.838 17.697 -12.425 18.831 -12 20 C-9.659 20.122 -9.659 20.122 -7 19 C-4.315 16.095 -2.084 12.953 -1.91 8.914 C-2.178 6.798 -2.178 6.798 -3 4 C-8.789 3.793 -13.429 4.408 -19 6 Z " fill="#000000" transform="translate(248,126)"/>
<path d="M0 0 C3.622 2.415 4.507 4.933 6.062 8.812 C6.446 9.738 6.446 9.738 6.838 10.682 C8.255 14.109 9.628 17.554 11 21 C7.785 22.607 4.564 22.057 1 22 C-0.604 18.492 -1.22 15.856 -1 12 C-1.66 11.67 -2.32 11.34 -3 11 C-4.968 7.939 -5.2 5.598 -5 2 C-4.01 2.33 -3.02 2.66 -2 3 C-1.34 2.01 -0.68 1.02 0 0 Z " fill="#212121" transform="translate(183,85)"/>
<path d="M0 0 C0 2.31 0 4.62 0 7 C-0.915 7.133 -1.83 7.266 -2.773 7.402 C-3.962 7.579 -5.15 7.756 -6.375 7.938 C-7.558 8.112 -8.742 8.286 -9.961 8.465 C-12.907 8.835 -12.907 8.835 -15 10 C-15.99 11.485 -15.99 11.485 -17 13 C-17.99 13 -18.98 13 -20 13 C-21.32 9.7 -22.64 6.4 -24 3 C-20.751 2.496 -17.5 1.997 -14.25 1.5 C-13.33 1.357 -12.409 1.214 -11.461 1.066 C-10.127 0.863 -10.127 0.863 -8.766 0.656 C-7.949 0.531 -7.132 0.405 -6.29 0.275 C-4 0 -4 0 0 0 Z " fill="#FFFFFF" transform="translate(226,132)"/>
<path d="M0 0 C0.649 1.582 1.294 3.166 1.938 4.75 C2.297 5.632 2.657 6.513 3.027 7.422 C3.854 9.612 4.494 11.719 5 14 C1.972 14.666 -0.895 15.135 -4 15 C-6.938 12.688 -6.938 12.688 -9 10 C-9.66 9.34 -10.32 8.68 -11 8 C-11.125 5.375 -11.125 5.375 -11 3 C-4.5 0 -4.5 0 0 0 Z " fill="#FFFFFF" transform="translate(201,136)"/>
<path d="M0 0 C0.33 0.99 0.66 1.98 1 3 C0.01 3.99 -0.98 4.98 -2 6 C-2 5.34 -2 4.68 -2 4 C-2.99 4.495 -2.99 4.495 -4 5 C-6.371 5.23 -8.747 5.411 -11.125 5.562 C-12.406 5.646 -13.688 5.73 -15.008 5.816 C-15.995 5.877 -16.983 5.938 -18 6 C-17.67 7.32 -17.34 8.64 -17 10 C-17.66 9.67 -18.32 9.34 -19 9 C-20.12 14.765 -20.12 14.765 -18 20 C-18 20.99 -18 21.98 -18 23 C-15.12 22.658 -15.12 22.658 -12 21 C-9.989 18.158 -8.466 15.152 -7 12 C-6 15 -6 15 -6.969 17.262 C-8.521 19.72 -9.976 21.907 -12 24 C-15.875 24.562 -15.875 24.562 -19 24 C-19 23.34 -19 22.68 -19 22 C-19.835 21.691 -19.835 21.691 -20.688 21.375 C-23.925 19.45 -25.682 16.961 -28 14 C-26.68 14.33 -25.36 14.66 -24 15 C-24.33 14.34 -24.66 13.68 -25 13 C-26.65 13 -28.3 13 -30 13 C-30.33 12.34 -30.66 11.68 -31 11 C-24.25 8.875 -24.25 8.875 -22 10 C-21.67 8.02 -21.34 6.04 -21 4 C-13.945 2.796 -7.166 1.719 0 2 C0 1.34 0 0.68 0 0 Z " fill="#010101" transform="translate(238,150)"/>
<path d="M0 0 C1.259 4.358 1.02 6.959 -1 11 C-1.66 11 -2.32 11 -3 11 C-3.33 12.32 -3.66 13.64 -4 15 C-4.66 14.67 -5.32 14.34 -6 14 C-5.67 13.67 -5.34 13.34 -5 13 C-4.928 11.147 -4.916 9.292 -4.938 7.438 C-4.947 6.426 -4.956 5.414 -4.965 4.371 C-4.976 3.589 -4.988 2.806 -5 2 C-5.66 2 -6.32 2 -7 2 C-7 1.34 -7 0.68 -7 0 C-7.632 0.105 -8.263 0.211 -8.914 0.32 C-21.002 2.326 -33.092 4.224 -45.25 5.75 C-46.756 5.941 -46.756 5.941 -48.293 6.136 C-52.566 6.659 -56.689 7.063 -61 7 C-58.276 4.276 -56.374 4.493 -52.562 4.062 C-51.199 3.899 -49.836 3.734 -48.473 3.566 C-47.384 3.433 -47.384 3.433 -46.274 3.297 C-42.336 2.782 -38.42 2.136 -34.5 1.5 C-4.864 -3.243 -4.864 -3.243 0 0 Z " fill="#E5E5E5" transform="translate(136,146)"/>
<path d="M0 0 C2.438 0.188 2.438 0.188 5 1 C7.875 4.422 7.141 8.776 7 13 C4.876 13.503 2.75 14.002 0.625 14.5 C-0.558 14.778 -1.742 15.057 -2.961 15.344 C-6 16 -6 16 -8 16 C-6.642 12.488 -5.125 9.116 -3.438 5.75 C-2.786 4.443 -2.786 4.443 -2.121 3.109 C-1 1 -1 1 0 0 Z " fill="#FFFFFF" transform="translate(272,127)"/>
<path d="M0 0 C4.69 3.908 9.051 7.98 13.301 12.363 C14.917 14.083 14.917 14.083 17 15 C17.594 17.649 17.742 20.292 18 23 C16.539 20.353 16 19.106 16 16 C15.34 16 14.68 16 14 16 C14 18.31 14 20.62 14 23 C13.34 23 12.68 23 12 23 C12 23.66 12 24.32 12 25 C8.008 26.996 3.198 27.043 -1.188 27.625 C-2.731 27.845 -2.731 27.845 -4.307 28.07 C-9.817 28.805 -14.548 29.157 -20 28 C-20.33 26.68 -20.66 25.36 -21 24 C-20.474 24.502 -19.949 25.005 -19.407 25.523 C-16.145 27.525 -14.253 27.099 -10.484 26.637 C-9.234 26.492 -7.984 26.347 -6.695 26.197 C-5.393 26.029 -4.091 25.861 -2.75 25.688 C-1.419 25.528 -0.089 25.37 1.242 25.213 C4.497 24.824 7.749 24.419 11 24 C11 23.34 11 22.68 11 22 C11.66 22 12.32 22 13 22 C12.116 16.062 9.553 11.824 5.262 7.625 C-1.807 4.103 -10.51 6.556 -18 8 C-17.67 7.34 -17.34 6.68 -17 6 C-13.818 5.527 -10.665 5.209 -7.459 4.965 C-5.187 4.771 -5.187 4.771 -2 4 C-0.446 2.066 -0.446 2.066 0 0 Z " fill="#0E0E0E" transform="translate(62,176)"/>
<path d="M0 0 C1.039 0.003 2.078 0.005 3.148 0.008 C11.187 0.055 19.217 0.265 27.25 0.562 C28.329 0.602 29.407 0.641 30.519 0.681 C36.14 0.912 41.702 1.159 47.25 2.125 C49.268 4.647 49.25 5.876 49.25 9.125 C49.91 9.125 50.57 9.125 51.25 9.125 C51.25 9.785 51.25 10.445 51.25 11.125 C51.91 11.125 52.57 11.125 53.25 11.125 C54.717 16.35 55.476 20.706 55.25 26.125 C54.92 26.125 54.59 26.125 54.25 26.125 C54.103 25.221 53.956 24.318 53.805 23.387 C53.134 19.862 52.418 16.52 51.25 13.125 C48.347 10.963 48.347 10.963 45.25 10.125 C43.441 7.493 43.25 6.364 43.25 3.125 C38.434 2.979 33.619 2.837 28.803 2.698 C27.173 2.65 25.543 2.602 23.913 2.552 C15.244 2.29 6.58 2.078 -2.094 2.062 C-2.784 2.06 -3.475 2.058 -4.186 2.056 C-9.116 2.063 -13.875 2.416 -18.75 3.125 C-14.238 -1.387 -6.011 -0.028 0 0 Z " fill="#000000" transform="translate(250.75,96.875)"/>
<path d="M0 0 C0.66 0 1.32 0 2 0 C2 2.64 2 5.28 2 8 C4.648 5.422 6.944 3.084 9 0 C9.66 0 10.32 0 11 0 C11 2.64 11 5.28 11 8 C11.66 8 12.32 8 13 8 C13 8.66 13 9.32 13 10 C12.34 10 11.68 10 11 10 C10.67 10.99 10.34 11.98 10 13 C9.67 12.01 9.34 11.02 9 10 C6.69 10 4.38 10 2 10 C1.67 10.99 1.34 11.98 1 13 C0.34 12.67 -0.32 12.34 -1 12 C-1 11.34 -1 10.68 -1 10 C-2.65 10 -4.3 10 -6 10 C-5.494 7.831 -5 6 -4 4 C-3.34 4 -2.68 4 -2 4 C-1.34 2.68 -0.68 1.36 0 0 Z " fill="#1A1A1A" transform="translate(295,292)"/>
<path d="M0 0 C1.32 1.32 2.64 2.64 4 4 C4.887 3.67 5.774 3.34 6.688 3 C9.741 2.078 11.862 1.914 15 2 C14.046 3.794 13.087 5.585 12.125 7.375 C11.591 8.373 11.058 9.37 10.508 10.398 C9 13 9 13 7 15 C4.375 15.125 4.375 15.125 2 15 C-0.491 9.32 -1.388 6.055 0 0 Z " fill="#FFFFFF" transform="translate(218,158)"/>
<path d="M0 0 C2.273 1.282 3.824 2.337 5.438 4.375 C5.438 5.035 5.438 5.695 5.438 6.375 C6.097 6.375 6.758 6.375 7.438 6.375 C7.438 7.035 7.438 7.695 7.438 8.375 C8.097 8.375 8.758 8.375 9.438 8.375 C9.438 9.035 9.438 9.695 9.438 10.375 C4.487 10.705 -0.462 11.035 -5.562 11.375 C-7.104 8.292 -6.86 5.766 -6.562 2.375 C-4.325 -0.36 -3.461 -0.844 0 0 Z " fill="#FFFFFF" transform="translate(42.5625,160.625)"/>
<path d="M0 0 C0.66 0 1.32 0 2 0 C3.343 6.348 3.343 6.348 1.866 9.157 C-0.56 11.553 -2.194 11.757 -5.551 12.23 C-6.642 12.394 -7.733 12.557 -8.857 12.725 C-9.998 12.877 -11.138 13.03 -12.312 13.188 C-13.441 13.352 -14.57 13.516 -15.732 13.686 C-17.844 13.993 -19.957 14.292 -22.072 14.583 C-24.113 14.874 -26.145 15.247 -28.161 15.681 C-31 16 -31 16 -34.375 13.938 C-37 11 -37 11 -37.375 7.688 C-37.251 6.801 -37.127 5.914 -37 5 C-35 8 -35 8 -34 11 C-27.209 12.488 -20.894 11.475 -14.062 10.562 C-12.902 10.415 -11.741 10.267 -10.545 10.115 C-7.695 9.752 -4.847 9.38 -2 9 C-2 8.34 -2 7.68 -2 7 C-1.34 7 -0.68 7 0 7 C0 4.69 0 2.38 0 0 Z " fill="#FFFFFF" transform="translate(76,192)"/>
<path d="M0 0 C3.367 1.393 4.986 2.979 7 6 C6.34 6 5.68 6 5 6 C4.979 7.258 4.959 8.516 4.938 9.812 C4.637 12.027 4.637 12.027 4 14 C-0.049 16.761 -3.979 17.202 -8.777 17.906 C-13.783 18.657 -18.778 19.452 -23.77 20.289 C-25.103 20.511 -26.437 20.732 -27.771 20.953 C-29.804 21.29 -31.835 21.629 -33.866 21.974 C-47.873 24.347 -47.873 24.347 -55 24 C-54.67 23.34 -54.34 22.68 -54 22 C-51.94 21.652 -51.94 21.652 -49.227 21.492 C-42.881 21.023 -36.657 20.117 -30.375 19.125 C-29.246 18.949 -28.117 18.772 -26.953 18.591 C-20.295 17.543 -13.641 16.466 -7 15.312 C-6.307 15.193 -5.614 15.074 -4.9 14.952 C-1.343 14.321 -1.343 14.321 2 13 C2.407 10.678 2.744 8.343 3 6 C2.34 6 1.68 6 1 6 C-0.062 4.125 -0.062 4.125 -1 2 C-0.67 1.34 -0.34 0.68 0 0 Z " fill="#000000" transform="translate(193,166)"/>
<path d="M0 0 C-0.33 2.97 -0.66 5.94 -1 9 C-1.66 9 -2.32 9 -3 9 C-3 9.66 -3 10.32 -3 11 C-3.99 11 -4.98 11 -6 11 C-6 11.66 -6 12.32 -6 13 C-6.99 12.67 -7.98 12.34 -9 12 C-9.25 10.566 -9.474 9.127 -9.688 7.688 C-9.815 6.887 -9.943 6.086 -10.074 5.262 C-10 3 -10 3 -8.707 1.27 C-5.395 -1.193 -4.049 -1.012 0 0 Z " fill="#111111" transform="translate(24,135)"/>
<path d="M0 0 C1.938 1 1.938 1 3.25 3.75 C3.936 6.994 3.862 8.857 2.938 12 C0.625 12.625 0.625 12.625 -2.062 13 C-3.053 12.34 -4.043 11.68 -5.062 11 C-5.461 8.906 -5.461 8.906 -5.438 6.5 C-5.445 5.706 -5.453 4.912 -5.461 4.094 C-5.329 3.403 -5.198 2.712 -5.062 2 C-2.062 0 -2.062 0 0 0 Z " fill="#000000" transform="translate(275.0625,292)"/>
<path d="M0 0 C0 1.98 0 3.96 0 6 C-6.435 6.495 -6.435 6.495 -13 7 C-13.99 5.35 -14.98 3.7 -16 2 C-10.429 0.408 -5.789 -0.207 0 0 Z " fill="#FFFFFF" transform="translate(89,160)"/>
<path d="M0 0 C1.125 3.75 1.125 3.75 0 6 C-0.66 6 -1.32 6 -2 6 C-1.494 3.831 -1 2 0 0 Z M-3 6 C-2.34 6.66 -1.68 7.32 -1 8 C-1.338 8.496 -1.675 8.993 -2.023 9.504 C-6.535 16.375 -8.7 21.671 -7 30 C-7.66 30 -8.32 30 -9 30 C-10.478 27.043 -10.06 24.258 -10 21 C-12.6 24.9 -12.151 28.474 -12 33 C-12.66 32.67 -13.32 32.34 -14 32 C-14.638 24.884 -12.856 20.999 -9.062 15.062 C-8.594 14.296 -8.125 13.53 -7.643 12.74 C-4.283 7.283 -4.283 7.283 -3 6 Z " fill="#3C3C3C" transform="translate(145,158)"/>
<path d="M0 0 C0.99 0.33 1.98 0.66 3 1 C0.993 6.248 -0.964 11.249 -4 16 C-5.993 19.679 -7.39 22.85 -8 27 C-8.33 27 -8.66 27 -9 27 C-10.608 20.566 -9.188 17.614 -6 12 C-4.907 9.838 -3.824 7.671 -2.75 5.5 C-1.833 3.667 -0.917 1.833 0 0 Z " fill="#1C1C1C" transform="translate(261,141)"/>
<path d="M0 0 C0.33 0.66 0.66 1.32 1 2 C-7.669 4.039 -16.101 5.527 -25 6 C-25 5.01 -25 4.02 -25 3 C-22.335 2.491 -19.668 1.993 -17 1.5 C-15.884 1.285 -15.884 1.285 -14.746 1.066 C-9.748 0.154 -5.081 -0.139 0 0 Z " fill="#363636" transform="translate(230,129)"/>
<path d="M0 0 C1 3 1 3 0.223 4.824 C-0.852 6.549 -1.926 8.275 -3 10 C0.793 9.359 4.584 8.712 8.375 8.062 C9.995 7.789 9.995 7.789 11.648 7.51 C12.68 7.333 13.711 7.155 14.773 6.973 C15.727 6.81 16.68 6.648 17.662 6.481 C20.009 6.103 20.009 6.103 22 5 C22 5.66 22 6.32 22 7 C22.99 7 23.98 7 25 7 C26.688 9.5 26.688 9.5 28 12 C26.68 11.34 25.36 10.68 24 10 C24 9.34 24 8.68 24 8 C22.84 8.205 21.68 8.41 20.484 8.621 C11.668 10.151 2.947 11.491 -6 12 C-5.649 11.216 -5.299 10.433 -4.938 9.625 C-4.628 8.759 -4.319 7.893 -4 7 C-4.33 6.34 -4.66 5.68 -5 5 C-3.333 3.333 -1.667 1.667 0 0 Z " fill="#000000" transform="translate(154,147)"/>
<path d="M0 0 C0.33 0.99 0.66 1.98 1 3 C-1.395 3.364 -3.79 3.717 -6.188 4.062 C-6.861 4.166 -7.535 4.27 -8.229 4.377 C-12.079 4.922 -15.241 5.044 -19 4 C-19 3.34 -19 2.68 -19 2 C-12.532 0.488 -6.644 -0.214 0 0 Z " fill="#FFFFFF" transform="translate(232,141)"/>
<path d="M0 0 C2.97 0.495 2.97 0.495 6 1 C6.33 2.32 6.66 3.64 7 5 C6.01 4.34 5.02 3.68 4 3 C3.01 3 2.02 3 1 3 C1 3.66 1 4.32 1 5 C1.969 5.248 2.939 5.495 3.938 5.75 C7 7 7 7 8.062 8.938 C8 11 8 11 7 12.812 C3.905 14.65 1.404 13.706 -2 13 C-2.33 12.01 -2.66 11.02 -3 10 C-2.01 10 -1.02 10 0 10 C0 10.66 0 11.32 0 12 C1.98 12 3.96 12 6 12 C5.67 11.01 5.34 10.02 5 9 C4.01 8.691 3.02 8.381 2 8.062 C-1 7 -1 7 -2 5.062 C-2 3 -2 3 0 0 Z " fill="#000000" transform="translate(237,291)"/>
<path d="M0 0 C0 1.65 0 3.3 0 5 C-3.155 5.936 -5.966 6.106 -9.25 6.062 C-10.142 6.053 -11.034 6.044 -11.953 6.035 C-12.629 6.024 -13.304 6.012 -14 6 C-13.207 4.078 -13.207 4.078 -12 2 C-7.929 0.464 -4.344 -0.263 0 0 Z " fill="#FFFFFF" transform="translate(86,153)"/>
<path d="M0 0 C0.33 0 0.66 0 1 0 C2.292 4.12 3.263 7.668 3 12 C4.98 12 6.96 12 9 12 C7.02 12.99 7.02 12.99 5 14 C5 16.64 5 19.28 5 22 C4.01 22.33 3.02 22.66 2 23 C1.465 20.481 0.947 17.961 0.438 15.438 C0.286 14.733 0.135 14.029 -0.021 13.303 C-0.968 8.528 -0.948 4.779 0 0 Z " fill="#000000" transform="translate(35,171)"/>
<path d="M0 0 C3.024 0.819 4.239 1.268 6 3.812 C6 4.803 6 5.792 6 6.812 C5.01 6.812 4.02 6.812 3 6.812 C2.67 6.482 2.34 6.153 2 5.812 C-1.166 5.47 -2.605 5.556 -5.312 7.312 C-5.869 7.808 -6.426 8.303 -7 8.812 C-6.688 5.438 -6.688 5.438 -6 1.812 C-3 -0.188 -3 -0.188 0 0 Z " fill="#6F6F6F" transform="translate(162,138.1875)"/>
<path d="M0 0 C-0.562 1.875 -0.562 1.875 -2 4 C-6.422 5.701 -10.284 6.23 -15 6 C-15.33 4.68 -15.66 3.36 -16 2 C-13.709 1.665 -11.417 1.332 -9.125 1 C-7.211 0.722 -7.211 0.722 -5.258 0.438 C-2 0 -2 0 0 0 Z " fill="#FFFFFF" transform="translate(236,154)"/>
<path d="M0 0 C1.65 0 3.3 0 5 0 C6.471 4.412 7.369 7.483 6 12 C4.02 12.33 2.04 12.66 0 13 C-0.66 11.68 -1.32 10.36 -2 9 C-1.34 9 -0.68 9 0 9 C0 9.66 0 10.32 0 11 C1.32 10.67 2.64 10.34 4 10 C4 9.34 4 8.68 4 8 C3.01 7.67 2.02 7.34 1 7 C1 6.34 1 5.68 1 5 C1.99 5 2.98 5 4 5 C4 4.01 4 3.02 4 2 C0.882 2.646 0.882 2.646 0 5 C-0.66 5 -1.32 5 -2 5 C-1.34 3.35 -0.68 1.7 0 0 Z " fill="#000000" transform="translate(311,292)"/>
<path d="M0 0 C0.66 0.33 1.32 0.66 2 1 C2.625 4.062 2.625 4.062 3 7 C3.66 7 4.32 7 5 7 C5 7.66 5 8.32 5 9 C5.66 9 6.32 9 7 9 C8.467 14.225 9.226 18.581 9 24 C8.67 24 8.34 24 8 24 C7.853 23.096 7.706 22.193 7.555 21.262 C6.884 17.735 6.176 14.394 5 11 C1.999 9.082 1.999 9.082 -1 8 C-1.875 4.312 -1.875 4.312 -2 1 C-1.34 0.67 -0.68 0.34 0 0 Z " fill="#080808" transform="translate(297,99)"/>
<path d="M0 0 C4.706 0.706 4.706 0.706 6 2 C6.375 4.375 6.375 4.375 6 7 C3.5 8.812 3.5 8.812 1 10 C2.65 10.33 4.3 10.66 6 11 C6 11.66 6 12.32 6 13 C3.36 13 0.72 13 -2 13 C-2 11.68 -2 10.36 -2 9 C-1.34 9 -0.68 9 0 9 C0 8.34 0 7.68 0 7 C0.639 6.711 1.279 6.423 1.938 6.125 C4.152 5.172 4.152 5.172 5 3 C3.68 3 2.36 3 1 3 C0.67 3.66 0.34 4.32 0 5 C-0.66 5 -1.32 5 -2 5 C-1.125 1.125 -1.125 1.125 0 0 Z " fill="#000000" transform="translate(282,292)"/>
<path d="M0 0 C0 0.66 0 1.32 0 2 C0.99 2.33 1.98 2.66 3 3 C3 3.66 3 4.32 3 5 C3.66 5 4.32 5 5 5 C5 5.66 5 6.32 5 7 C5.66 7 6.32 7 7 7 C7 7.66 7 8.32 7 9 C7.66 9 8.32 9 9 9 C8.67 9.99 8.34 10.98 8 12 C6.68 11.34 5.36 10.68 4 10 C4 9.34 4 8.68 4 8 C3.34 8 2.68 8 2 8 C2 7.34 2 6.68 2 6 C1.01 5.67 0.02 5.34 -1 5 C-1 4.34 -1 3.68 -1 3 C-3.915 2.19 -5.461 1.782 -8.312 2.938 C-8.869 3.288 -9.426 3.639 -10 4 C-9.67 3.01 -9.34 2.02 -9 1 C-6.043 -0.478 -3.258 -0.06 0 0 Z " fill="#383838" transform="translate(46,159)"/>
<path d="M0 0 C0.33 0.99 0.66 1.98 1 3 C0.34 3 -0.32 3 -1 3 C-1.141 3.584 -1.281 4.168 -1.426 4.77 C-3.332 12.174 -6.584 17.826 -11 24 C-11 20.467 -9.729 18.907 -7.938 15.965 C-6.915 13.821 -6.705 12.232 -6.562 9.875 C-5.891 5.247 -4.538 3.919 -1 1 C-0.67 0.67 -0.34 0.34 0 0 Z " fill="#676767" transform="translate(130,161)"/>
<path d="M0 0 C1.98 0.66 3.96 1.32 6 2 C5.417 2.193 4.835 2.387 4.234 2.586 C1.088 4.577 -0.138 7.388 -1.75 10.625 C-2.066 11.236 -2.382 11.847 -2.707 12.477 C-3.482 13.979 -4.242 15.489 -5 17 C-5.99 17 -6.98 17 -8 17 C-5.74 11.027 -3.323 5.459 0 0 Z " fill="#090909" transform="translate(270,124)"/>
<path d="M0 0 C0.66 0 1.32 0 2 0 C2 5.61 2 11.22 2 17 C1.34 17 0.68 17 0 17 C0 13.04 0 9.08 0 5 C-1.65 5 -3.3 5 -5 5 C-5 4.34 -5 3.68 -5 3 C-3.35 2.67 -1.7 2.34 0 2 C0 1.34 0 0.68 0 0 Z " fill="#000000" transform="translate(108,18)"/>
<path d="M0 0 C0.66 0.99 1.32 1.98 2 3 C-0.31 2.67 -2.62 2.34 -5 2 C-4.01 2.33 -3.02 2.66 -2 3 C-0.812 6.062 -0.812 6.062 0 9 C-0.66 9.66 -1.32 10.32 -2 11 C-2.33 8.69 -2.66 6.38 -3 4 C-6.63 4.33 -10.26 4.66 -14 5 C-14.33 4.34 -14.66 3.68 -15 3 C-5.003 -0.732 -5.003 -0.732 0 0 Z " fill="#111111" transform="translate(248,126)"/>
<path d="M0 0 C3.367 1.393 4.986 2.979 7 6 C6.34 6 5.68 6 5 6 C4.979 7.258 4.959 8.516 4.938 9.812 C4.676 12.016 4.676 12.016 4 14 C0.625 16.062 0.625 16.062 -3 17 C-3.99 16.67 -4.98 16.34 -6 16 C-3.36 15.01 -0.72 14.02 2 13 C2.33 10.69 2.66 8.38 3 6 C2.34 6 1.68 6 1 6 C-0.062 4.125 -0.062 4.125 -1 2 C-0.67 1.34 -0.34 0.68 0 0 Z " fill="#171717" transform="translate(193,166)"/>
<path d="M0 0 C0.99 0 1.98 0 3 0 C3 0.66 3 1.32 3 2 C3.66 2 4.32 2 5 2 C5.054 3.458 5.093 4.916 5.125 6.375 C5.148 7.187 5.171 7.999 5.195 8.836 C5 11 5 11 3 13 C-0.125 12.625 -0.125 12.625 -3 12 C-2.67 11.01 -2.34 10.02 -2 9 C-0.02 9.495 -0.02 9.495 2 10 C2 7.69 2 5.38 2 3 C0.68 2.67 -0.64 2.34 -2 2 C-1.34 1.34 -0.68 0.68 0 0 Z " fill="#000000" transform="translate(264,292)"/>
<path d="M0 0 C0.99 0.33 1.98 0.66 3 1 C3 1.66 3 2.32 3 3 C3.66 3 4.32 3 5 3 C6 6 6 6 6 9 C5.01 8.67 4.02 8.34 3 8 C-2.117 7.799 -6.948 8.291 -12 9 C-9.579 6.579 -8.199 6.472 -4.875 5.875 C-3.51 5.624 -3.51 5.624 -2.117 5.367 C-1.069 5.185 -1.069 5.185 0 5 C-0.33 4.34 -0.66 3.68 -1 3 C-0.67 2.67 -0.34 2.34 0 2 C0 1.34 0 0.68 0 0 Z " fill="#121212" transform="translate(185,158)"/>
<path d="M0 0 C0.99 0.33 1.98 0.66 3 1 C3 3.31 3 5.62 3 8 C1.062 8.562 1.062 8.562 -1 9 C-2 8 -2 8 -2.062 4.438 C-2.042 3.303 -2.021 2.169 -2 1 C-1.34 0.67 -0.68 0.34 0 0 Z " fill="#FFFFFF" transform="translate(264,294)"/>
<path d="M0 0 C0.99 0.33 1.98 0.66 3 1 C3 3.31 3 5.62 3 8 C1.062 8.562 1.062 8.562 -1 9 C-2 8 -2 8 -2.062 4.438 C-2.042 3.303 -2.021 2.169 -2 1 C-1.34 0.67 -0.68 0.34 0 0 Z " fill="#FFFFFF" transform="translate(274,294)"/>
<path d="M0 0 C0.99 0.33 1.98 0.66 3 1 C3 3.64 3 6.28 3 9 C1.68 9 0.36 9 -1 9 C-1.098 2.848 -1.098 2.848 -1 1 C-0.67 0.67 -0.34 0.34 0 0 Z " fill="#FFFFFF" transform="translate(254,294)"/>
<path d="M0 0 C0.33 0.66 0.66 1.32 1 2 C-2.96 2.66 -6.92 3.32 -11 4 C-11.33 3.34 -11.66 2.68 -12 2 C-8.1 -0.6 -4.526 -0.151 0 0 Z " fill="#5D5D5D" transform="translate(230,129)"/>
<path d="M0 0 C0.33 0.66 0.66 1.32 1 2 C1.66 2 2.32 2 3 2 C3 2.66 3 3.32 3 4 C3.66 4 4.32 4 5 4 C5 4.66 5 5.32 5 6 C5.66 6.33 6.32 6.66 7 7 C6.01 7.33 5.02 7.66 4 8 C1.812 6.688 1.812 6.688 0 5 C0 4.34 0 3.68 0 3 C-1.65 3 -3.3 3 -5 3 C-4.361 2.691 -3.721 2.381 -3.062 2.062 C-1.064 1.165 -1.064 1.165 0 0 Z " fill="#121212" transform="translate(55,169)"/>
<path d="M0 0 C-0.33 1.98 -0.66 3.96 -1 6 C-1.66 6 -2.32 6 -3 6 C-3 6.66 -3 7.32 -3 8 C-3.66 8 -4.32 8 -5 8 C-5 5.69 -5 3.38 -5 1 C-2 0 -2 0 0 0 Z " fill="#FFFFFF" transform="translate(23,137)"/>
<path d="M0 0 C0.66 0.33 1.32 0.66 2 1 C2.407 3.322 2.744 5.657 3 8 C1.68 8 0.36 8 -1 8 C-1.33 5.69 -1.66 3.38 -2 1 C-1.34 0.67 -0.68 0.34 0 0 Z " fill="#3F3F3F" transform="translate(297,99)"/>
<path d="M0 0 C3.367 1.393 4.986 2.979 7 6 C5.312 6.75 5.312 6.75 3 7 C0.25 5.062 0.25 5.062 -2 3 C-1 1 -1 1 0 0 Z " fill="#252525" transform="translate(170,145)"/>
<path d="M0 0 C0.99 0.33 1.98 0.66 3 1 C3.125 8.75 3.125 8.75 2 11 C1.01 10.67 0.02 10.34 -1 10 C-0.67 6.7 -0.34 3.4 0 0 Z " fill="#5B5B5B" transform="translate(16,137)"/>
<path d="M0 0 C1 2 1 2 1 5 C1.33 5 1.66 5 2 5 C2 6.65 2 8.3 2 10 C1.01 10.33 0.02 10.66 -1 11 C-2.25 3.375 -2.25 3.375 0 0 Z " fill="#151515" transform="translate(34,158)"/>
<path d="M0 0 C1.98 0 3.96 0 6 0 C6.33 1.32 6.66 2.64 7 4 C5.35 4 3.7 4 2 4 C1.34 2.68 0.68 1.36 0 0 Z " fill="#FFFFFF" transform="translate(86,174)"/>
<path d="M0 0 C0.33 0 0.66 0 1 0 C1.66 3.3 2.32 6.6 3 10 C2.01 10.33 1.02 10.66 0 11 C-1.374 7.182 -0.68 3.927 0 0 Z " fill="#727272" transform="translate(35,171)"/>
<path d="M0 0 C0.33 0 0.66 0 1 0 C1.66 2.97 2.32 5.94 3 9 C2.01 9.33 1.02 9.66 0 10 C-1.238 6.424 -0.749 3.663 0 0 Z " fill="#717171" transform="translate(37,184)"/>
<path d="M0 0 C-0.33 0.99 -0.66 1.98 -1 3 C-1.742 2.794 -2.485 2.588 -3.25 2.375 C-6.323 1.956 -7.428 2.381 -10 4 C-9.67 3.01 -9.34 2.02 -9 1 C-6.043 -0.478 -3.258 -0.06 0 0 Z " fill="#0E0E0E" transform="translate(46,159)"/>
<path d="M0 0 C0.66 0.33 1.32 0.66 2 1 C2.625 3.562 2.625 3.562 3 6 C2.01 6.66 1.02 7.32 0 8 C-1.097 4.71 -0.8 3.287 0 0 Z " fill="#FFFFFF" transform="translate(180,81)"/>
<path d="M0 0 C0.33 1.32 0.66 2.64 1 4 C-0.32 4.33 -1.64 4.66 -3 5 C-3.33 4.01 -3.66 3.02 -4 2 C-2.68 1.34 -1.36 0.68 0 0 Z " fill="#000000" transform="translate(63,97)"/>
</svg>
