<?xml version="1.0" encoding="UTF-8"?>
<!-- Generator: visioncortex VTracer 0.6.4 -->
<svg version="1.1" xmlns="http://www.w3.org/2000/svg" width="325" height="311">
<path d="M0 0 C107.25 0 214.5 0 325 0 C325 102.63 325 205.26 325 311 C217.75 311 110.5 311 0 311 C0 208.37 0 105.74 0 0 Z " fill="#F6F6F6" transform="translate(0,0)"/>
<path d="M0 0 C0.33 0 0.66 0 1 0 C1.098 0.869 1.196 1.738 1.297 2.633 C2.326 11.553 2.326 11.553 7 19 C9.283 20.748 11.635 22.363 14 24 C14 24.66 14 25.32 14 26 C14.949 25.918 15.898 25.835 16.875 25.75 C21.12 25.75 24.357 27.204 28.211 28.863 C31.187 30.076 34.171 31.02 37.25 31.938 C41.89 33.326 46.448 34.846 51 36.5 C56.509 38.496 62.049 40.278 67.656 41.973 C76.332 44.638 84.908 47.589 93.438 50.688 C103.203 54.165 114.127 57.833 124.25 53.5 C125.158 53.005 126.065 52.51 127 52 C126.67 52.99 126.34 53.98 126 55 C122.748 56.351 119.412 57.093 116 58 C116 61.63 116 65.26 116 69 C116.66 69 117.32 69 118 69 C119.54 72.08 119.191 75.309 119.188 78.688 C119.187 79.442 119.187 80.196 119.187 80.974 C119.097 90.108 117.865 99.059 116 108 C115.67 108 115.34 108 115 108 C115.534 100.647 116.131 93.321 117 86 C116.01 88.97 115.02 91.94 114 95 C113.34 95 112.68 95 112 95 C111.598 95.897 111.598 95.897 111.188 96.812 C110.001 98.998 108.904 100.413 107 102 C106.34 102 105.68 102 105 102 C105 102.66 105 103.32 105 104 C97.686 107.063 90.979 109.803 83 110 C82.185 110.039 81.371 110.077 80.531 110.117 C63.984 110.555 50.088 105.966 34.856 100.187 C26.508 97.041 18.01 94.115 9 96 C6.149 98.363 4.456 100.603 3 104 C4.423 104.464 4.423 104.464 5.875 104.938 C9 106 9 106 11 107 C12.604 107.045 14.209 107.038 15.812 107 C19.358 106.959 22.549 107.08 26 108 C26 108.33 26 108.66 26 109 C19.4 109 12.8 109 6 109 C6 109.66 6 110.32 6 111 C3.988 112.77 3.988 112.77 1 114 C-1.844 113.396 -4.145 112.732 -6.812 111.688 C-7.505 111.435 -8.198 111.183 -8.912 110.924 C-10.615 110.301 -12.309 109.653 -14 109 C-14 109.66 -14 110.32 -14 111 C-12.02 111.33 -10.04 111.66 -8 112 C-11.01 112.934 -11.867 113.044 -15 112 C-18.738 119.969 -22.464 127.938 -26 136 C-25.01 136.33 -24.02 136.66 -23 137 C-23.66 137.33 -24.32 137.66 -25 138 C-25.66 137.67 -26.32 137.34 -27 137 C-27 137.66 -27 138.32 -27 139 C-24.69 139.66 -22.38 140.32 -20 141 C-21.98 141.99 -21.98 141.99 -24 143 C-25.32 142.01 -26.64 141.02 -28 140 C-29.769 144.928 -30.932 149.886 -32 155 C-31.01 155 -30.02 155 -29 155 C-29.041 154.051 -29.082 153.102 -29.125 152.125 C-29 149 -29 149 -27 147 C-27.33 149.31 -27.66 151.62 -28 154 C-26.032 153.969 -26.032 153.969 -24 153 C-22.695 150.004 -22.695 150.004 -22 147 C-21.783 147.928 -21.783 147.928 -21.562 148.875 C-21.068 151.033 -21.068 151.033 -20 153 C-25.928 156.952 -33.085 156.594 -40 156 C-48.009 154.076 -55.441 149.204 -62.648 145.32 C-67.787 142.56 -73.007 139.979 -78.242 137.41 C-81 136 -81 136 -84 134 C-84 133.34 -84 132.68 -84 132 C-84.804 132 -85.609 132 -86.438 132 C-87.625 132 -88.812 132 -90 132 C-90 133.65 -90 135.3 -90 137 C-90.667 135.667 -91.333 134.333 -92 133 C-92.557 132.041 -92.557 132.041 -93.125 131.062 C-94.174 128.589 -94.148 126.66 -94 124 C-94.66 124 -95.32 124 -96 124 C-96.387 123.276 -96.773 122.551 -97.172 121.805 C-102.082 112.463 -102.082 112.463 -108.688 104.312 C-111 102 -111 102 -112 99 C-113.324 98.315 -114.659 97.651 -116 97 C-117.371 95.705 -118.713 94.378 -120 93 C-119.01 92.505 -119.01 92.505 -118 92 C-118 92.66 -118 93.32 -118 94 C-117.227 94.371 -117.227 94.371 -116.438 94.75 C-114.478 95.755 -112.572 96.862 -110.688 98 C-104.177 101.697 -97.42 102.98 -90 102 C-85.016 99.644 -82.978 97.1 -81 92 C-80.845 90.793 -80.845 90.793 -80.688 89.562 C-79.945 86.793 -79.238 86.008 -77.324 83.961 C-73.577 79.699 -70.888 74.999 -68.125 70.062 C-67.379 68.751 -67.379 68.751 -66.617 67.412 C-65.405 65.278 -64.199 63.141 -63 61 C-62 64 -62 64 -62 66 C-61.67 66.99 -61.34 67.98 -61 69 C-60.051 69.082 -59.102 69.165 -58.125 69.25 C-53.11 69.94 -48.615 72.003 -44 74 C-44 74.66 -44 75.32 -44 76 C-46.673 75.542 -48.996 75.002 -51.5 73.938 C-54.335 72.707 -54.335 72.707 -59 73 C-61.64 77.62 -64.28 82.24 -67 87 C-67.66 87 -68.32 87 -69 87 C-69.063 87.651 -69.126 88.302 -69.191 88.973 C-70.339 93.271 -72.607 96.676 -74.938 100.438 C-77.876 105.197 -80.49 109.556 -82 115 C-78.427 113.809 -78.271 113.197 -76.582 109.984 C-76.136 109.151 -75.69 108.317 -75.23 107.458 C-74.762 106.564 -74.294 105.671 -73.812 104.75 C-72.836 102.926 -71.857 101.103 -70.875 99.281 C-70.392 98.384 -69.908 97.487 -69.41 96.562 C-66.484 91.246 -63.259 86.117 -60 81 C-57.121 81.25 -57.121 81.25 -54 82 C-52.785 83.812 -52.785 83.812 -52.062 86 C-51.2 88.182 -51.2 88.182 -50 90 C-46.54 91.078 -46.54 91.078 -43 91 C-41.661 91.309 -40.323 91.629 -39 92 C-39.99 92 -40.98 92 -42 92 C-42 92.66 -42 93.32 -42 94 C-34.708 90.997 -30.399 88.826 -26 82 C-25.34 82 -24.68 82 -24 82 C-23.873 81.425 -23.746 80.85 -23.615 80.257 C-22.994 77.978 -22.169 76.02 -21.152 73.891 C-20.616 72.759 -20.616 72.759 -20.068 71.605 C-19.695 70.828 -19.322 70.051 -18.938 69.25 C-18.56 68.457 -18.183 67.664 -17.795 66.848 C-16.867 64.897 -15.934 62.948 -15 61 C-14.34 61 -13.68 61 -13 61 C-12.67 59.804 -12.34 58.608 -12 57.375 C-10.358 52.433 -7.916 48.151 -5.273 43.679 C-1.14 36.642 2.421 29.33 6 22 C-3.037 31.037 -8.356 46.561 -14 58 C-14.66 58 -15.32 58 -16 58 C-16.107 58.539 -16.214 59.078 -16.324 59.633 C-18.394 66.884 -22.599 73.906 -27 80 C-27 76.62 -26.125 74.165 -25 71 C-25.678 70.697 -26.356 70.394 -27.055 70.082 C-31.817 67.938 -36.537 65.754 -41.188 63.375 C-45.38 61.252 -49.574 59.575 -54 58 C-55.669 57.339 -57.337 56.676 -59 56 C-58.369 52.781 -57.22 50.492 -55.438 47.75 C-54.982 47.044 -54.527 46.337 -54.059 45.609 C-53.709 45.078 -53.36 44.547 -53 44 C-52.67 44.66 -52.34 45.32 -52 46 C-52.33 46.99 -52.66 47.98 -53 49 C-52.42 49.182 -51.84 49.364 -51.242 49.551 C-46.609 51.042 -42.302 52.683 -38 55 C-38 55.66 -38 56.32 -38 57 C-37.196 56.979 -36.391 56.959 -35.562 56.938 C-33 57 -33 57 -32 58 C-31.34 56.35 -30.68 54.7 -30 53 C-29.34 53 -28.68 53 -28 53 C-27.743 52.335 -27.487 51.67 -27.223 50.984 C-25.735 47.354 -24.103 43.8 -22.438 40.25 C-22.093 39.515 -21.749 38.78 -21.394 38.023 C-18.423 31.751 -15.217 25.62 -11.883 19.534 C-10.168 16.374 -8.766 13.511 -8 10 C-2.25 9.875 -2.25 9.875 0 11 C-0.186 9.928 -0.371 8.855 -0.562 7.75 C-0.93 4.596 -1.045 2.902 0 0 Z " fill="#EBEBEB" transform="translate(190,42)"/>
<path d="M0 0 C4.856 0.559 9.058 1.585 13.625 3.312 C18.201 4.999 22.769 6.59 27.438 8 C37.094 10.918 46.64 14.131 56.125 17.562 C61.568 19.521 67.037 21.305 72.582 22.953 C75.062 23.713 77.501 24.509 79.949 25.359 C89.251 28.542 98.708 31.461 108.25 27.5 C109.158 27.005 110.065 26.51 111 26 C110.67 26.99 110.34 27.98 110 29 C106.748 30.351 103.412 31.093 100 32 C100 35.63 100 39.26 100 43 C100.66 43 101.32 43 102 43 C103.54 46.08 103.191 49.309 103.188 52.688 C103.187 53.442 103.187 54.196 103.187 54.974 C103.097 64.108 101.865 73.059 100 82 C99.67 82 99.34 82 99 82 C99.534 74.647 100.131 67.321 101 60 C100.01 62.97 99.02 65.94 98 69 C97.34 69 96.68 69 96 69 C95.598 69.897 95.598 69.897 95.188 70.812 C94.001 72.998 92.904 74.413 91 76 C90.34 76 89.68 76 89 76 C89 76.66 89 77.32 89 78 C81.686 81.063 74.979 83.803 67 84 C66.185 84.039 65.371 84.077 64.531 84.117 C47.984 84.555 34.088 79.966 18.856 74.187 C10.508 71.041 2.01 68.115 -7 70 C-9.851 72.363 -11.544 74.603 -13 78 C-11.577 78.464 -11.577 78.464 -10.125 78.938 C-7 80 -7 80 -5 81 C-3.396 81.045 -1.791 81.038 -0.188 81 C3.358 80.959 6.549 81.08 10 82 C10 82.33 10 82.66 10 83 C3.4 83 -3.2 83 -10 83 C-10 83.66 -10 84.32 -10 85 C-12.012 86.77 -12.012 86.77 -15 88 C-17.844 87.396 -20.145 86.732 -22.812 85.688 C-23.505 85.435 -24.198 85.183 -24.912 84.924 C-26.615 84.301 -28.309 83.653 -30 83 C-30 83.66 -30 84.32 -30 85 C-28.02 85.33 -26.04 85.66 -24 86 C-26.606 86.931 -27.642 87.149 -30.25 86.062 C-30.827 85.712 -31.405 85.361 -32 85 C-31.67 84.01 -31.34 83.02 -31 82 C-30.01 82 -29.02 82 -28 82 C-27.856 81.402 -27.711 80.804 -27.562 80.188 C-27.113 78.438 -26.571 76.713 -26 75 C-23.69 75 -21.38 75 -19 75 C-18.856 74.402 -18.711 73.804 -18.562 73.188 C-18.113 71.438 -17.571 69.713 -17 68 C-16.34 68 -15.68 68 -15 68 C-14.794 67.402 -14.588 66.804 -14.375 66.188 C-13 64 -13 64 -10.062 62.625 C-6.335 60.647 -5.538 58.845 -4 55 C-3.67 55.66 -3.34 56.32 -3 57 C-3.33 57.99 -3.66 58.98 -4 60 C-2.389 60.381 -2.389 60.381 -0.746 60.77 C0.69 61.117 2.126 61.465 3.562 61.812 C4.267 61.978 4.971 62.144 5.697 62.314 C10.395 63.462 14.582 65.037 19 67 C20.573 67.512 22.156 67.995 23.75 68.438 C27.392 69.484 30.902 70.701 34.438 72.062 C47.366 76.755 64.616 78.919 77.848 74.059 C84.975 70.692 84.975 70.692 90 65 C90.66 65 91.32 65 92 65 C92.103 64.484 92.206 63.969 92.312 63.438 C93 61 93 61 94.562 57.562 C95.913 54.216 96.138 52.493 96 49 C95.622 49.773 95.245 50.547 94.855 51.344 C89.371 61.722 81.711 68.696 70.422 72.383 C57.969 74.629 43.66 74.266 32 69 C32 68.34 32 67.68 32 67 C31.257 66.794 30.515 66.588 29.75 66.375 C26.05 64.525 24.897 62.659 23 59 C20.51 48.15 24.712 39.02 30 29.688 C32.823 24.618 34.61 19.62 36 14 C30.43 11.344 25.101 9.07 19 8 C18.34 8.66 17.68 9.32 17 10 C17 9.01 17 8.02 17 7 C8.585 4.03 8.585 4.03 0 1 C0 0.67 0 0.34 0 0 Z " fill="#000000" transform="translate(206,68)"/>
<path d="M0 0 C1.847 3.694 0.419 8.079 -0.125 12.062 C-0.231 12.98 -0.336 13.897 -0.445 14.842 C-1.346 21.459 -3.37 26.405 -7 32 C-7.66 32 -8.32 32 -9 32 C-9 32.66 -9 33.32 -9 34 C-9.66 34 -10.32 34 -11 34 C-11.33 34.99 -11.66 35.98 -12 37 C-17.597 40.731 -24.161 44 -31 44 C-31.33 43.34 -31.66 42.68 -32 42 C-33.146 41.963 -34.292 41.925 -35.473 41.887 C-37.003 41.821 -38.533 41.755 -40.062 41.688 C-41.191 41.654 -41.191 41.654 -42.342 41.619 C-48.827 41.31 -53.787 39.964 -58.773 35.539 C-62.769 32.009 -67.594 30.854 -72.625 29.375 C-73.608 29.077 -74.592 28.778 -75.605 28.47 C-78.399 27.63 -81.198 26.812 -84 26 C-85.843 25.449 -85.843 25.449 -87.723 24.887 C-93.54 23.27 -98.626 22.89 -104.648 23.09 C-107.763 22.971 -109.598 21.937 -112 20 C-112.66 19.67 -113.32 19.34 -114 19 C-112.825 14.593 -111.979 12.319 -108 10 C-98.859 8.417 -90.834 10.976 -82.351 14.135 C-77.51 15.916 -72.631 17.582 -67.75 19.25 C-66.756 19.603 -65.763 19.956 -64.739 20.32 C-48.978 25.719 -30.266 26.146 -15 19 C-14.01 19 -13.02 19 -12 19 C-12 18.34 -12 17.68 -12 17 C-10.017 15.313 -8.017 13.646 -6 12 C-5.67 11.34 -5.34 10.68 -5 10 C-4.34 10 -3.68 10 -3 10 C-2.867 9.362 -2.734 8.724 -2.598 8.066 C-2.421 7.24 -2.244 6.414 -2.062 5.562 C-1.888 4.739 -1.714 3.915 -1.535 3.066 C-1 1 -1 1 0 0 Z " fill="#FFFFFF" transform="translate(307,127)"/>
<path d="M0 0 C6.297 1.399 12.061 3.493 18 6 C15.875 14.184 13.136 21.102 8.586 28.246 C4.753 34.901 3.245 42.223 4.75 49.75 C6.848 55.403 6.848 55.403 11.188 59.312 C11.786 59.539 12.384 59.766 13 60 C13 60.66 13 61.32 13 62 C13.959 62.186 13.959 62.186 14.938 62.375 C16.6 62.714 18.261 63.066 19.905 63.483 C33.19 66.762 47.974 67.035 60 60 C60.816 59.589 61.632 59.178 62.473 58.754 C69.446 54.831 72.392 48.926 76 42 C76.66 41.01 77.32 40.02 78 39 C78.312 44.922 77.709 48.581 75 54 C74.608 54.804 74.216 55.609 73.812 56.438 C73.544 56.953 73.276 57.469 73 58 C72.34 58 71.68 58 71 58 C70.765 58.596 70.531 59.191 70.289 59.805 C68.687 62.533 67.088 63.52 64.375 65.125 C63.558 65.623 62.74 66.12 61.898 66.633 C55.308 69.742 48.988 70.363 41.812 70.312 C40.98 70.308 40.147 70.303 39.288 70.298 C27.06 70.068 16.37 66.224 5 62 C2.013 60.956 -0.988 59.967 -4 59 C-5.053 58.658 -6.106 58.317 -7.191 57.965 C-12.791 56.188 -18.14 54.545 -24 54 C-21.583 47.501 -19.182 41.095 -15.961 34.949 C-14.861 32.717 -13.962 30.445 -13.062 28.125 C-11.367 23.777 -9.36 19.676 -7.23 15.527 C-5.579 12.136 -4.225 8.656 -2.895 5.129 C-2 3 -2 3 0 0 Z " fill="#FFFFFF" transform="translate(225,75)"/>
<path d="M0 0 C1 3 1 3 1 5 C1.495 6.485 1.495 6.485 2 8 C2.949 8.082 3.898 8.165 4.875 8.25 C9.89 8.94 14.385 11.003 19 13 C19 13.66 19 14.32 19 15 C16.327 14.542 14.004 14.002 11.5 12.938 C8.665 11.707 8.665 11.707 4 12 C1.36 16.62 -1.28 21.24 -4 26 C-4.66 26 -5.32 26 -6 26 C-6.063 26.651 -6.126 27.302 -6.191 27.973 C-7.339 32.271 -9.607 35.676 -11.938 39.438 C-14.876 44.197 -17.49 48.556 -19 54 C-15.427 52.809 -15.271 52.197 -13.582 48.984 C-13.136 48.151 -12.69 47.317 -12.23 46.458 C-11.528 45.118 -11.528 45.118 -10.812 43.75 C-9.836 41.926 -8.857 40.103 -7.875 38.281 C-7.392 37.384 -6.908 36.487 -6.41 35.562 C-3.484 30.246 -0.259 25.117 3 20 C4.98 20.33 6.96 20.66 9 21 C7.68 23.64 6.36 26.28 5 29 C4 26 4 26 4 24 C0.539 30.275 -2.844 36.566 -6 43 C-6.66 43 -7.32 43 -8 43 C-8.33 44.65 -8.66 46.3 -9 48 C-9.66 48 -10.32 48 -11 48 C-11.144 48.619 -11.289 49.238 -11.438 49.875 C-12 52 -12 52 -13 54 C-12.01 54 -11.02 54 -10 54 C-10 53.01 -10 52.02 -10 51 C-9.01 51.495 -9.01 51.495 -8 52 C-8 53.98 -8 55.96 -8 58 C-8.99 57.505 -8.99 57.505 -10 57 C-9.67 57.99 -9.34 58.98 -9 60 C-9 60.99 -9 61.98 -9 63 C-8.34 63 -7.68 63 -7 63 C-6.67 64.65 -6.34 66.3 -6 68 C-5.34 68 -4.68 68 -4 68 C-3.746 68.531 -3.492 69.062 -3.23 69.609 C-1.417 73.332 0.331 76.798 3 80 C3.33 79.34 3.66 78.68 4 78 C4.329 78.603 4.657 79.207 4.996 79.828 C8.71 86.068 12.086 88.803 19 91 C18.67 91.66 18.34 92.32 18 93 C14.029 91.014 10.057 89.029 6.086 87.043 C5.387 86.693 4.687 86.344 3.967 85.984 C2.286 85.143 0.606 84.302 -1.074 83.461 C-3.228 82.385 -5.385 81.314 -7.543 80.246 C-8.758 79.643 -9.973 79.04 -11.188 78.438 C-11.803 78.134 -12.419 77.83 -13.053 77.518 C-15.83 76.137 -18.415 74.724 -21 73 C-21 72.34 -21 71.68 -21 71 C-21.804 71 -22.609 71 -23.438 71 C-24.625 71 -25.812 71 -27 71 C-27 72.65 -27 74.3 -27 76 C-27.667 74.667 -28.333 73.333 -29 72 C-29.557 71.041 -29.557 71.041 -30.125 70.062 C-31.174 67.589 -31.148 65.66 -31 63 C-31.66 63 -32.32 63 -33 63 C-33.387 62.276 -33.773 61.551 -34.172 60.805 C-39.082 51.463 -39.082 51.463 -45.688 43.312 C-48 41 -48 41 -49 38 C-50.324 37.315 -51.659 36.651 -53 36 C-54.371 34.705 -55.713 33.378 -57 32 C-56.34 31.67 -55.68 31.34 -55 31 C-55 31.66 -55 32.32 -55 33 C-54.484 33.248 -53.969 33.495 -53.438 33.75 C-51.478 34.755 -49.572 35.862 -47.688 37 C-41.177 40.697 -34.42 41.98 -27 41 C-22.016 38.644 -19.978 36.1 -18 31 C-17.897 30.196 -17.794 29.391 -17.688 28.562 C-16.945 25.793 -16.238 25.008 -14.324 22.961 C-10.577 18.699 -7.888 13.999 -5.125 9.062 C-4.627 8.188 -4.13 7.313 -3.617 6.412 C-2.405 4.278 -1.199 2.141 0 0 Z " fill="#D5D5D5" transform="translate(127,103)"/>
<path d="M0 0 C0.33 0 0.66 0 1 0 C1.147 1.303 1.147 1.303 1.297 2.633 C2.53 12.758 2.53 12.758 8.816 20.461 C10.505 21.696 12.249 22.855 14 24 C11 25 11 25 8.812 24.062 C8.214 23.712 7.616 23.361 7 23 C6.896 23.532 6.791 24.065 6.684 24.613 C5.809 27.668 4.479 30.344 3.062 33.188 C2.538 34.254 2.013 35.32 1.473 36.418 C0 39 0 39 -2 40 C-0.652 35.64 1.049 31.687 3.125 27.625 C3.664 26.565 4.203 25.506 4.758 24.414 C5.168 23.617 5.578 22.821 6 22 C-3.037 31.037 -8.356 46.561 -14 58 C-14.66 58 -15.32 58 -16 58 C-16.107 58.539 -16.214 59.078 -16.324 59.633 C-18.394 66.884 -22.599 73.906 -27 80 C-27 76.62 -26.125 74.165 -25 71 C-25.678 70.697 -26.356 70.394 -27.055 70.082 C-31.817 67.938 -36.537 65.754 -41.188 63.375 C-45.38 61.252 -49.574 59.575 -54 58 C-55.669 57.339 -57.337 56.676 -59 56 C-58.369 52.781 -57.22 50.492 -55.438 47.75 C-54.982 47.044 -54.527 46.337 -54.059 45.609 C-53.709 45.078 -53.36 44.547 -53 44 C-52.67 44.66 -52.34 45.32 -52 46 C-52.33 46.99 -52.66 47.98 -53 49 C-52.42 49.182 -51.84 49.364 -51.242 49.551 C-46.609 51.042 -42.302 52.683 -38 55 C-38 55.66 -38 56.32 -38 57 C-37.196 56.979 -36.391 56.959 -35.562 56.938 C-33 57 -33 57 -32 58 C-31.34 56.35 -30.68 54.7 -30 53 C-29.34 53 -28.68 53 -28 53 C-27.743 52.335 -27.487 51.67 -27.223 50.984 C-25.735 47.354 -24.103 43.8 -22.438 40.25 C-22.093 39.515 -21.749 38.78 -21.394 38.023 C-18.423 31.751 -15.217 25.62 -11.883 19.534 C-10.168 16.374 -8.766 13.511 -8 10 C-2.25 9.875 -2.25 9.875 0 11 C-0.186 9.928 -0.371 8.855 -0.562 7.75 C-0.93 4.596 -1.045 2.902 0 0 Z " fill="#E0E0E0" transform="translate(190,42)"/>
<path d="M0 0 C0.99 1.98 0.99 1.98 2 4 C2.66 4 3.32 4 4 4 C5.54 7.08 5.191 10.309 5.188 13.688 C5.187 14.442 5.187 15.196 5.187 15.974 C5.097 25.108 3.865 34.059 2 43 C1.67 43 1.34 43 1 43 C1.534 35.647 2.131 28.321 3 21 C2.01 23.97 1.02 26.94 0 30 C-0.66 30 -1.32 30 -2 30 C-2.268 30.598 -2.536 31.196 -2.812 31.812 C-3.999 33.998 -5.096 35.413 -7 37 C-7.66 37 -8.32 37 -9 37 C-9 37.66 -9 38.32 -9 39 C-16.314 42.063 -23.021 44.803 -31 45 C-31.815 45.039 -32.629 45.077 -33.469 45.117 C-50.016 45.555 -63.912 40.966 -79.144 35.187 C-87.492 32.041 -95.99 29.115 -105 31 C-107.851 33.363 -109.544 35.603 -111 39 C-110.051 39.309 -109.102 39.619 -108.125 39.938 C-105 41 -105 41 -103 42 C-101.396 42.045 -99.791 42.038 -98.188 42 C-94.642 41.959 -91.451 42.08 -88 43 C-88 43.33 -88 43.66 -88 44 C-94.6 44 -101.2 44 -108 44 C-108 44.66 -108 45.32 -108 46 C-110.012 47.77 -110.012 47.77 -113 49 C-115.844 48.396 -118.145 47.732 -120.812 46.688 C-121.505 46.435 -122.198 46.183 -122.912 45.924 C-124.615 45.301 -126.309 44.653 -128 44 C-128 44.66 -128 45.32 -128 46 C-126.02 46.33 -124.04 46.66 -122 47 C-124.606 47.931 -125.642 48.149 -128.25 47.062 C-129.116 46.537 -129.116 46.537 -130 46 C-129.67 45.01 -129.34 44.02 -129 43 C-128.01 43 -127.02 43 -126 43 C-125.856 42.402 -125.711 41.804 -125.562 41.188 C-125.113 39.438 -124.571 37.713 -124 36 C-121.69 36 -119.38 36 -117 36 C-116.856 35.402 -116.711 34.804 -116.562 34.188 C-116.113 32.438 -115.571 30.713 -115 29 C-114.34 29 -113.68 29 -113 29 C-112.691 28.103 -112.691 28.103 -112.375 27.188 C-111 25 -111 25 -108.062 23.625 C-104.335 21.647 -103.538 19.845 -102 16 C-101.67 16.66 -101.34 17.32 -101 18 C-101.33 18.99 -101.66 19.98 -102 21 C-100.389 21.381 -100.389 21.381 -98.746 21.77 C-97.31 22.117 -95.874 22.465 -94.438 22.812 C-93.733 22.978 -93.029 23.144 -92.303 23.314 C-87.605 24.462 -83.418 26.037 -79 28 C-77.427 28.512 -75.844 28.995 -74.25 29.438 C-70.608 30.484 -67.098 31.701 -63.562 33.062 C-50.634 37.755 -33.384 39.919 -20.152 35.059 C-13.025 31.692 -13.025 31.692 -8 26 C-7.34 26 -6.68 26 -6 26 C-5.897 25.361 -5.794 24.721 -5.688 24.062 C-5.461 23.382 -5.234 22.701 -5 22 C-4.01 21.67 -3.02 21.34 -2 21 C-1.636 18.918 -1.284 16.835 -0.938 14.75 C-0.74 13.59 -0.543 12.43 -0.34 11.234 C-0.034 8.321 -0.157 6.726 -1 4 C-0.562 1.75 -0.562 1.75 0 0 Z " fill="#9B9B9B" transform="translate(304,107)"/>
<path d="M0 0 C5.054 1.196 9.824 2.59 14.688 4.438 C21.36 6.876 28.047 8.579 35 10 C37.293 16.752 33.505 24.29 30.562 30.375 C25.663 39.51 18.827 44.584 9 48 C8.01 48 7.02 48 6 48 C0.359 32.601 -0.634 16.23 0 0 Z " fill="#FFFFFF" transform="translate(267,89)"/>
<path d="M0 0 C4.185 0.598 8.089 1.363 12 3 C12.942 5.827 13.161 7.744 13.246 10.684 C13.293 12.067 13.293 12.067 13.342 13.479 C13.373 14.455 13.405 15.431 13.438 16.438 C13.792 25.527 14.164 34.491 17.062 43.188 C18.355 47.065 18.657 50.942 19 55 C9.119 57.246 -0.165 54.417 -9 50 C-8.725 45.062 -8.434 40.125 -8.128 35.188 C-8.019 33.322 -7.933 31.454 -7.852 29.586 C-7.512 23.452 -6.33 18.398 -4.055 12.691 C-2.429 8.544 -1.225 4.28 0 0 Z " fill="#FFFFFF" transform="translate(248,83)"/>
<path d="M0 0 C6.154 0.893 11.058 3.25 14.938 8.188 C16.791 14.859 16.751 21.227 13.875 27.562 C13.215 27.562 12.555 27.562 11.875 27.562 C11.875 28.222 11.875 28.882 11.875 29.562 C-0.114 33.233 -0.114 33.233 -5.125 31.562 C-8.53 24.491 -10.536 18.108 -8.559 10.336 C-5.196 0.935 -5.196 0.935 0 0 Z " fill="#2F2F2F" transform="translate(134.125,144.4375)"/>
<path d="M0 0 C0.99 0.33 1.98 0.66 3 1 C2.143 6.2 1.084 10.961 -1 15.812 C-5.275 26.963 -5.144 40.185 -5 52 C-4.022 52.316 -4.022 52.316 -3.024 52.639 C3.52 54.757 3.52 54.757 6.094 56.062 C8.657 57.323 11.188 57.616 14 58 C14 58.33 14 58.66 14 59 C6.752 59.416 0.831 58.442 -6 56 C-6 55.34 -6 54.68 -6 54 C-6.743 53.794 -7.485 53.588 -8.25 53.375 C-11.95 51.525 -13.103 49.659 -15 46 C-17.988 32.981 -11.159 22.022 -5 11 C-4.34 11 -3.68 11 -3 11 C-2.876 10.113 -2.752 9.226 -2.625 8.312 C-2.056 5.296 -1.234 2.797 0 0 Z " fill="#3F3F3F" transform="translate(244,81)"/>
<path d="M0 0 C2.97 0.495 2.97 0.495 6 1 C4.68 3.64 3.36 6.28 2 9 C1 6 1 6 1 4 C-2.461 10.275 -5.844 16.566 -9 23 C-9.66 23 -10.32 23 -11 23 C-11.33 24.65 -11.66 26.3 -12 28 C-12.66 28 -13.32 28 -14 28 C-14.144 28.619 -14.289 29.238 -14.438 29.875 C-15 32 -15 32 -16 34 C-15.01 34 -14.02 34 -13 34 C-13 33.01 -13 32.02 -13 31 C-12.34 31.33 -11.68 31.66 -11 32 C-11 33.98 -11 35.96 -11 38 C-11.66 37.67 -12.32 37.34 -13 37 C-12.67 37.99 -12.34 38.98 -12 40 C-12 40.99 -12 41.98 -12 43 C-11.34 43 -10.68 43 -10 43 C-9.67 44.65 -9.34 46.3 -9 48 C-8.34 48 -7.68 48 -7 48 C-6.746 48.531 -6.492 49.062 -6.23 49.609 C-4.417 53.332 -2.669 56.798 0 60 C0.33 59.34 0.66 58.68 1 58 C1.329 58.603 1.657 59.207 1.996 59.828 C5.71 66.068 9.086 68.803 16 71 C15.67 71.66 15.34 72.32 15 73 C7.667 69.333 0.333 65.667 -7 62 C-7 61.01 -7 60.02 -7 59 C-7.619 58.752 -8.237 58.505 -8.875 58.25 C-11.425 56.75 -11.762 55.63 -13 53 C-13.924 52.12 -13.924 52.12 -14.867 51.223 C-17.236 48.754 -18.574 46.354 -20.125 43.312 C-21.851 39.456 -21.851 39.456 -25 37 C-25.99 38.98 -26.98 40.96 -28 43 C-29 40 -29 40 -27.82 37.625 C-27.261 36.759 -26.701 35.892 -26.125 35 C-24.382 32.275 -23.026 30.078 -22 27 C-21.34 27.33 -20.68 27.66 -20 28 C-20.66 29.98 -21.32 31.96 -22 34 C-18.427 32.809 -18.271 32.197 -16.582 28.984 C-16.136 28.151 -15.69 27.317 -15.23 26.458 C-14.762 25.564 -14.294 24.671 -13.812 23.75 C-12.836 21.926 -11.857 20.103 -10.875 18.281 C-10.392 17.384 -9.908 16.487 -9.41 15.562 C-6.484 10.246 -3.259 5.117 0 0 Z " fill="#DADADA" transform="translate(130,123)"/>
<path d="M0 0 C5 1.667 10 3.333 15 5 C13.568 8.232 12.128 11.46 10.688 14.688 C10.283 15.6 9.879 16.512 9.463 17.451 C3.697 30.343 3.697 30.343 0.234 31.684 C-2.671 32.095 -4.131 31.333 -6.75 30.062 C-7.549 29.682 -8.348 29.302 -9.172 28.91 C-9.775 28.61 -10.378 28.309 -11 28 C-11 27.34 -11 26.68 -11 26 C-10.01 26 -9.02 26 -8 26 C-8.66 25.67 -9.32 25.34 -10 25 C-8.05 18.499 -5.462 12.708 -2.305 6.699 C-1.203 4.42 -0.481 2.469 0 0 Z " fill="#FBFBFB" transform="translate(174,153)"/>
<path d="M0 0 C0.33 0.66 0.66 1.32 1 2 C0.67 2.99 0.34 3.98 0 5 C0.58 5.182 1.16 5.364 1.758 5.551 C6.391 7.042 10.698 8.683 15 11 C15 11.66 15 12.32 15 13 C15.804 12.979 16.609 12.959 17.438 12.938 C20 13 20 13 21 14 C21.66 12.35 22.32 10.7 23 9 C24.354 11.709 24.065 14.009 24 17 C24.722 16.938 25.444 16.876 26.188 16.812 C29.529 17.035 31.27 18.128 34 20 C34.124 19.381 34.248 18.763 34.375 18.125 C35 16 35 16 37 14 C35.437 21.873 30.661 29.547 26 36 C26 32.62 26.875 30.165 28 27 C26.983 26.546 26.983 26.546 25.945 26.082 C21.183 23.938 16.463 21.754 11.812 19.375 C7.62 17.252 3.426 15.575 -1 14 C-2.669 13.339 -4.337 12.676 -6 12 C-5.369 8.781 -4.22 6.492 -2.438 3.75 C-1.982 3.044 -1.527 2.337 -1.059 1.609 C-0.535 0.813 -0.535 0.813 0 0 Z " fill="#999999" transform="translate(137,86)"/>
<path d="M0 0 C4.8 0.693 8.954 2.54 13.375 4.438 C24.216 9.082 34.191 12.592 45.688 8 C47.134 7.352 48.575 6.693 50 6 C49.073 11.468 47.087 15.159 42.875 18.875 C35.574 21.732 28.627 20.035 21.562 17.215 C17.946 15.5 15.061 13.585 12 11 C12 10.34 12 9.68 12 9 C11.428 8.733 10.855 8.466 10.266 8.191 C7.907 6.951 5.877 5.541 3.75 3.938 C3.044 3.41 2.337 2.883 1.609 2.34 C1.078 1.898 0.547 1.456 0 1 C0 0.67 0 0.34 0 0 Z " fill="#FFFFFF" transform="translate(60,125)"/>
<path d="M0 0 C0.66 0.33 1.32 0.66 2 1 C-1.876 8.937 -5.793 16.807 -10.25 24.438 C-13.207 29.519 -15.753 34.569 -18 40 C-18.66 40 -19.32 40 -20 40 C-20.122 40.98 -20.122 40.98 -20.246 41.98 C-21.27 46.081 -23.127 49.573 -25.062 53.312 C-25.628 54.423 -25.628 54.423 -26.205 55.557 C-27.131 57.374 -28.065 59.187 -29 61 C-29.66 61 -30.32 61 -31 61 C-31.227 61.557 -31.454 62.114 -31.688 62.688 C-34.325 67.334 -38.223 70.673 -43 73 C-44.32 73 -45.64 73 -47 73 C-47 72.34 -47 71.68 -47 71 C-45.711 70.328 -44.419 69.663 -43.125 69 C-42.406 68.629 -41.686 68.257 -40.945 67.875 C-39 67 -39 67 -37 67 C-36.34 65.35 -35.68 63.7 -35 62 C-34.34 62 -33.68 62 -33 62 C-32.903 61.469 -32.807 60.938 -32.707 60.391 C-31.777 57.245 -30.275 54.619 -28.688 51.75 C-26.018 46.878 -23.445 41.988 -21 37 C-20.34 37 -19.68 37 -19 37 C-18.901 36.02 -18.901 36.02 -18.801 35.02 C-17.675 30.773 -15.476 27.41 -13.188 23.688 C-10.204 18.784 -7.37 13.889 -4.851 8.73 C-3.377 5.734 -1.681 2.882 0 0 Z " fill="#FFFFFF" transform="translate(195,63)"/>
<path d="M0 0 C0.66 0.66 1.32 1.32 2 2 C2.66 1.67 3.32 1.34 4 1 C6.101 0.851 8.207 0.779 10.312 0.75 C12.008 0.711 12.008 0.711 13.738 0.672 C17.278 1.028 19.133 1.956 22 4 C21.67 4.99 21.34 5.98 21 7 C20.01 6.01 19.02 5.02 18 4 C17.567 4.959 17.567 4.959 17.125 5.938 C16 8 16 8 14 9 C7.529 9.353 7.529 9.353 4 7 C3.67 6.01 3.34 5.02 3 4 C2.34 4 1.68 4 1 4 C0.34 6.97 -0.32 9.94 -1 13 C-0.01 13.33 0.98 13.66 2 14 C1.103 14.062 1.103 14.062 0.188 14.125 C-2.351 14.877 -2.351 14.877 -3.75 18.062 C-4.162 19.032 -4.575 20.001 -5 21 C-5.99 21 -6.98 21 -8 21 C-8 24.96 -8 28.92 -8 33 C-8.33 33 -8.66 33 -9 33 C-11.43 23.079 -7.874 12.618 -2.75 4.062 C-1.852 2.696 -0.943 1.336 0 0 Z " fill="#212121" transform="translate(201,14)"/>
<path d="M0 0 C2.97 0.495 2.97 0.495 6 1 C4.68 3.64 3.36 6.28 2 9 C1 6 1 6 1 4 C-2.461 10.275 -5.844 16.566 -9 23 C-9.66 23 -10.32 23 -11 23 C-11.33 24.65 -11.66 26.3 -12 28 C-12.66 28 -13.32 28 -14 28 C-14.144 28.619 -14.289 29.238 -14.438 29.875 C-15 32 -15 32 -16 34 C-15.01 34 -14.02 34 -13 34 C-13 33.01 -13 32.02 -13 31 C-12.34 31.33 -11.68 31.66 -11 32 C-11 33.98 -11 35.96 -11 38 C-11.66 37.67 -12.32 37.34 -13 37 C-12.67 37.99 -12.34 38.98 -12 40 C-12.33 40.99 -12.66 41.98 -13 43 C-13.99 41.02 -14.98 39.04 -16 37 C-17.65 37 -19.3 37 -21 37 C-20.225 38.247 -20.225 38.247 -19.434 39.52 C-18.775 40.606 -18.116 41.693 -17.438 42.812 C-16.776 43.891 -16.115 44.97 -15.434 46.082 C-14 49 -14 49 -15 52 C-15.554 51.001 -16.109 50.002 -16.68 48.973 C-17.411 47.669 -18.143 46.366 -18.875 45.062 C-19.24 44.403 -19.605 43.744 -19.98 43.064 C-21.854 39.421 -21.854 39.421 -25 37 C-25.99 38.98 -26.98 40.96 -28 43 C-29 40 -29 40 -27.82 37.625 C-27.261 36.759 -26.701 35.892 -26.125 35 C-24.382 32.275 -23.026 30.078 -22 27 C-21.34 27.33 -20.68 27.66 -20 28 C-20.66 29.98 -21.32 31.96 -22 34 C-18.427 32.809 -18.271 32.197 -16.582 28.984 C-16.136 28.151 -15.69 27.317 -15.23 26.458 C-14.762 25.564 -14.294 24.671 -13.812 23.75 C-12.836 21.926 -11.857 20.103 -10.875 18.281 C-10.392 17.384 -9.908 16.487 -9.41 15.562 C-6.484 10.246 -3.259 5.117 0 0 Z " fill="#040404" transform="translate(130,123)"/>
<path d="M0 0 C0.66 0.33 1.32 0.66 2 1 C1.67 1.99 1.34 2.98 1 4 C4.501 5.167 7.327 5.134 11 5 C11.66 4.67 12.32 4.34 13 4 C13 2.68 13 1.36 13 0 C16.179 0.92 17.652 1.414 19.375 4.312 C20.092 7.395 20.193 9.058 19 12 C15.487 14.342 12.358 14.133 8.27 13.492 C4.103 12.589 0.051 11.32 -4 10 C-3.385 3.477 -3.385 3.477 -1.438 1.062 C-0.726 0.537 -0.726 0.537 0 0 Z " fill="#FFFFFF" transform="translate(204,17)"/>
<path d="M0 0 C1.32 0 2.64 0 4 0 C4.004 0.571 4.008 1.142 4.012 1.73 C4.197 16.578 6.081 30.389 9.557 44.821 C10 47 10 47 10 50 C8.68 50 7.36 50 6 50 C4.609 44.68 3.276 39.349 2 34 C1.765 33.023 1.531 32.046 1.289 31.039 C-0.772 20.852 -0.179 10.342 0 0 Z " fill="#FFFFFF" transform="translate(262,88)"/>
<path d="M0 0 C0.99 0.33 1.98 0.66 3 1 C2.142 6.207 1.066 11.025 -0.969 15.906 C-3.551 22.86 -4.126 29.839 -4.75 37.188 C-4.875 38.535 -5.001 39.882 -5.129 41.229 C-5.432 44.485 -5.722 47.742 -6 51 C-6.99 50.34 -7.98 49.68 -9 49 C-9.112 45.95 -9.047 43.152 -8.812 40.125 C-8.754 39.261 -8.695 38.397 -8.634 37.507 C-7.706 24.906 -5.726 11.453 0 0 Z " fill="#FFFFFF" transform="translate(244,81)"/>
<path d="M0 0 C0.676 1.668 0.676 1.668 1 4 C-2.992 13.411 -9.816 19.101 -18.875 23.348 C-23.854 25.343 -27.686 26.724 -33 25 C-30 23 -30 23 -28 23 C-28.464 21.824 -28.464 21.824 -28.938 20.625 C-30.263 16.101 -30.648 11.686 -31 7 C-28.279 9.721 -28.393 11.848 -27.875 15.625 C-27.707 16.814 -27.54 18.002 -27.367 19.227 C-27.246 20.142 -27.125 21.057 -27 22 C-21.705 20.204 -17.299 18.118 -12.664 14.988 C-11 14 -11 14 -9 14 C-8.722 13.437 -8.443 12.873 -8.156 12.293 C-6.972 9.945 -5.753 7.624 -4.5 5.312 C-4.077 4.525 -3.654 3.737 -3.219 2.926 C-2 1 -2 1 0 0 Z " fill="#353535" transform="translate(300,115)"/>
<path d="M0 0 C0.33 0 0.66 0 1 0 C1.33 1.98 1.66 3.96 2 6 C2.639 5.505 3.279 5.01 3.938 4.5 C7.98 2.52 11.563 2.389 16 3 C18.277 4.02 18.277 4.02 20 5 C20 5.66 20 6.32 20 7 C20.99 7.33 21.98 7.66 23 8 C23 10.156 22.553 11.924 22 14 C20.375 14.688 20.375 14.688 18 15 C14.75 13.562 14.75 13.562 12 12 C12 10.35 12 8.7 12 7 C10.303 5.691 10.303 5.691 8 5 C5.358 6.319 5.358 6.319 3 8 C2.34 8 1.68 8 1 8 C1.743 8.65 1.743 8.65 2.5 9.312 C4 11 4 11 4 14 C2.016 12.855 2.016 12.855 0 11 C-0.391 8.301 -0.391 8.301 -0.25 5.312 C-0.214 4.319 -0.178 3.325 -0.141 2.301 C-0.094 1.542 -0.048 0.782 0 0 Z " fill="#000000" transform="translate(298,43)"/>
<path d="M0 0 C0.753 -0.005 1.506 -0.01 2.281 -0.016 C4.795 0.285 6.386 0.859 8.5 2.25 C8.83 3.24 9.16 4.23 9.5 5.25 C6.171 8.29 3.893 8.634 -0.562 8.562 C-1.605 8.559 -2.648 8.555 -3.723 8.551 C-6.5 8.25 -6.5 8.25 -9.5 6.25 C-9.25 4.375 -9.25 4.375 -8.5 2.25 C-5.627 0.432 -3.371 -0.023 0 0 Z " fill="#FFFFFF" transform="translate(257.5,22.75)"/>
<path d="M0 0 C1.128 3.384 0.572 4.623 -0.457 7.909 C-1.719 12.768 -1.82 17.89 -2.211 22.881 C-2.286 23.739 -2.36 24.597 -2.438 25.48 C-2.498 26.253 -2.559 27.025 -2.621 27.821 C-3 30 -3 30 -5 34 C-4.67 27.4 -4.34 20.8 -4 14 C-6.264 20.698 -7.341 25.943 -7 33 C-8.485 33.495 -8.485 33.495 -10 34 C-12.698 21.319 -5.997 10.733 0 0 Z " fill="#0C0C0C" transform="translate(239,92)"/>
<path d="M0 0 C2.007 0.287 4.009 0.619 6 1 C4.68 3.64 3.36 6.28 2 9 C1 6 1 6 1 4 C-2.461 10.275 -5.844 16.566 -9 23 C-9.66 23 -10.32 23 -11 23 C-11.33 24.65 -11.66 26.3 -12 28 C-12.99 28 -13.98 28 -15 28 C-14.331 24.327 -12.731 21.618 -10.812 18.438 C-7.8 13.382 -4.94 8.27 -2.164 3.082 C-1 1 -1 1 0 0 Z " fill="#070707" transform="translate(130,123)"/>
<path d="M0 0 C2.375 -0.188 2.375 -0.188 5 0 C7.463 3.695 7.39 5.633 7 10 C5.812 12 5.812 12 4 13 C1.312 12.688 1.312 12.688 -1 12 C-2.429 3.429 -2.429 3.429 0 0 Z " fill="#000000" transform="translate(262,292)"/>
<path d="M0 0 C2.625 -0.188 2.625 -0.188 5 0 C6.984 2.917 6.988 4.124 6.625 7.75 C6.419 8.822 6.212 9.895 6 11 C4.35 11.66 2.7 12.32 1 13 C-0.5 11.938 -0.5 11.938 -2 10 C-2.39 5.633 -2.463 3.695 0 0 Z " fill="#000000" transform="translate(311,292)"/>
<path d="M0 0 C2.375 -0.188 2.375 -0.188 5 0 C7.463 3.695 7.39 5.633 7 10 C5.5 11.938 5.5 11.938 4 13 C1.525 12.01 1.525 12.01 -1 11 C-2.231 4.6 -2.231 4.6 -1.062 1.562 C-0.712 1.047 -0.361 0.531 0 0 Z " fill="#000000" transform="translate(252,292)"/>
<path d="M0 0 C4.556 0.556 4.556 0.556 6 2 C6.168 3.996 6.168 3.996 6.188 6.438 C6.202 7.241 6.216 8.044 6.23 8.871 C6 11 6 11 4 13 C-0.556 12.444 -0.556 12.444 -2 11 C-2.168 9.004 -2.168 9.004 -2.188 6.562 C-2.202 5.759 -2.216 4.956 -2.23 4.129 C-2 2 -2 2 0 0 Z " fill="#000000" transform="translate(272,292)"/>
<path d="M0 0 C0 0.99 0 1.98 0 3 C-4.95 4.485 -4.95 4.485 -10 6 C-9.959 7.423 -9.918 8.846 -9.875 10.312 C-9.769 13.981 -9.864 14.796 -12 18 C-11.752 19.083 -11.752 19.083 -11.5 20.188 C-10.591 25.299 -12.168 29.752 -15 34 C-14.67 30.37 -14.34 26.74 -14 23 C-14.99 22.67 -15.98 22.34 -17 22 C-16.783 21.12 -16.567 20.239 -16.344 19.332 C-16.065 18.171 -15.787 17.009 -15.5 15.812 C-15.222 14.664 -14.943 13.515 -14.656 12.332 C-14.085 9.432 -13.867 6.939 -14 4 C-13.325 3.879 -12.649 3.758 -11.953 3.633 C-10.615 3.381 -10.615 3.381 -9.25 3.125 C-8.368 2.963 -7.487 2.8 -6.578 2.633 C-4.131 2.032 -2.194 1.22 0 0 Z " fill="#131313" transform="translate(316,94)"/>
<path d="M0 0 C0.992 2.583 1.136 3.669 0.066 6.27 C-0.678 7.528 -0.678 7.528 -1.438 8.812 C-4.173 13.563 -6.81 18.344 -9.375 23.188 C-10.07 24.494 -10.765 25.8 -11.461 27.105 C-11.969 28.061 -12.477 29.016 -13 30 C-13.66 30 -14.32 30 -15 30 C-15 30.99 -15 31.98 -15 33 C-15.99 33 -16.98 33 -18 33 C-17.34 31.02 -16.68 29.04 -16 27 C-15.34 27 -14.68 27 -14 27 C-13.67 25.35 -13.34 23.7 -13 22 C-12.34 22 -11.68 22 -11 22 C-10.905 21.287 -10.809 20.574 -10.711 19.84 C-9.884 16.537 -8.521 14.382 -6.625 11.562 C-4.139 7.785 -1.887 4.106 0 0 Z " fill="#FFFFFF" transform="translate(132,124)"/>
<path d="M0 0 C1.642 3.283 0.519 6.425 0 10 C2.97 10.495 2.97 10.495 6 11 C6 11.33 6 11.66 6 12 C3.69 11.67 1.38 11.34 -1 11 C-1.735 15.371 -2.453 19.744 -3.125 24.125 C-3.313 25.324 -3.501 26.523 -3.695 27.758 C-4.172 30.846 -4.172 30.846 -3.434 33.164 C-2.822 35.753 -3.678 36.96 -4.938 39.25 C-5.318 39.956 -5.698 40.663 -6.09 41.391 C-6.39 41.922 -6.691 42.453 -7 43 C-8.225 39.42 -7.789 36.769 -7.074 33.09 C-6.854 31.934 -6.635 30.779 -6.408 29.588 C-6.17 28.383 -5.933 27.179 -5.688 25.938 C-5.233 23.572 -4.779 21.206 -4.324 18.84 C-4.1 17.695 -3.877 16.55 -3.646 15.371 C-2.858 11.261 -2.14 7.14 -1.441 3.014 C-1 1 -1 1 0 0 Z " fill="#000000" transform="translate(302,6)"/>
<path d="M0 0 C2.875 -0.125 2.875 -0.125 6 0 C6.66 0.66 7.32 1.32 8 2 C7.67 2.99 7.34 3.98 7 5 C6.34 4.34 5.68 3.68 5 3 C2.931 2.357 2.931 2.357 1 2 C1 2.99 1 3.98 1 5 C3.31 5.66 5.62 6.32 8 7 C8 8.98 8 10.96 8 13 C1.375 14.25 1.375 14.25 -2 12 C-2 11.01 -2 10.02 -2 9 C-1.34 9 -0.68 9 0 9 C0.33 9.66 0.66 10.32 1 11 C2.65 11 4.3 11 6 11 C6 10.34 6 9.68 6 9 C5.051 8.732 4.102 8.464 3.125 8.188 C0 7 0 7 -2 4 C-1.34 2.68 -0.68 1.36 0 0 Z " fill="#000000" transform="translate(236,291)"/>
<path d="M0 0 C0.99 0.33 1.98 0.66 3 1 C3.027 2.792 3.046 4.583 3.062 6.375 C3.074 7.373 3.086 8.37 3.098 9.398 C3 12 3 12 2 14 C-1.875 12.125 -1.875 12.125 -3 11 C-3.136 7.337 -3.165 4.494 -2 1 C-1.34 0.67 -0.68 0.34 0 0 Z " fill="#FFFFFF" transform="translate(144,154)"/>
<path d="M0 0 C2.721 2.721 2.607 4.848 3.125 8.625 C3.293 9.814 3.46 11.002 3.633 12.227 C3.754 13.142 3.875 14.057 4 15 C4.531 14.795 5.062 14.59 5.609 14.379 C6.316 14.109 7.022 13.84 7.75 13.562 C8.446 13.296 9.142 13.029 9.859 12.754 C11.891 12.039 13.904 11.486 16 11 C16 11.99 16 12.98 16 14 C14.134 14.873 12.256 15.723 10.375 16.562 C9.331 17.038 8.287 17.514 7.211 18.004 C3.656 19.107 1.571 18.896 -2 18 C1 16 1 16 3 16 C2.691 15.216 2.381 14.433 2.062 13.625 C0.737 9.101 0.352 4.686 0 0 Z " fill="#333333" transform="translate(269,122)"/>
<path d="M0 0 C3.949 0.551 7.349 1.389 11 3 C10.67 4.32 10.34 5.64 10 7 C8.375 7.688 8.375 7.688 6 8 C2.75 6.562 2.75 6.562 0 5 C0 3.35 0 1.7 0 0 Z " fill="#7F7F7F" transform="translate(310,50)"/>
<path d="M0 0 C1.044 3.133 0.934 3.99 0 7 C0.99 7.33 1.98 7.66 3 8 C2.103 8.062 2.103 8.062 1.188 8.125 C-1.351 8.877 -1.351 8.877 -2.75 12.062 C-3.162 13.032 -3.575 14.001 -4 15 C-4.99 15 -5.98 15 -7 15 C-7 18.96 -7 22.92 -7 27 C-7.33 27 -7.66 27 -8 27 C-9.389 21.326 -8.729 16.792 -7.25 11.188 C-6.996 10.2 -6.996 10.2 -6.737 9.193 C-5.763 5.726 -4.898 3.24 -2 1 C-2.66 3.64 -3.32 6.28 -4 9 C-1.314 6.314 -0.94 3.624 0 0 Z " fill="#000000" transform="translate(200,20)"/>
<path d="M0 0 C0.33 0 0.66 0 1 0 C0.858 2.521 0.711 5.042 0.562 7.562 C0.504 8.619 0.504 8.619 0.443 9.697 C0.175 14.18 -0.306 18.563 -1 23 C-1.66 22.67 -2.32 22.34 -3 22 C-5.07 14.297 -3.51 7.02 0 0 Z " fill="#FFFFFF" transform="translate(235,104)"/>
<path d="M0 0 C2.475 0.99 2.475 0.99 5 2 C4.493 3.212 4.493 3.212 3.977 4.449 C3.308 6.052 3.308 6.052 2.625 7.688 C2.184 8.743 1.743 9.799 1.289 10.887 C0.172 13.584 -0.923 16.287 -2 19 C-2.33 19 -2.66 19 -3 19 C-2.484 12.501 -1.533 6.338 0 0 Z " fill="#FFFFFF" transform="translate(300,21)"/>
<path d="M0 0 C0.99 0.33 1.98 0.66 3 1 C3 2.65 3 4.3 3 6 C2.01 6.33 1.02 6.66 0 7 C-0.33 9.64 -0.66 12.28 -1 15 C-1.99 15 -2.98 15 -4 15 C-4.506 8.927 -3.042 5.228 0 0 Z " fill="#E6E6E6" transform="translate(162,182)"/>
<path d="M0 0 C2 1 2 1 3.5 4.25 C6.188 9.264 10.945 10.907 16 13 C15.67 13.66 15.34 14.32 15 15 C7.667 11.333 0.333 7.667 -7 4 C-5 3 -5 3 -1 3 C-0.67 2.01 -0.34 1.02 0 0 Z " fill="#0F0F0F" transform="translate(130,181)"/>
<path d="M0 0 C0.66 0 1.32 0 2 0 C4.603 4.531 7.174 9.077 9.691 13.656 C10.594 15.273 11.52 16.876 12.465 18.469 C12.93 19.263 13.396 20.057 13.875 20.875 C14.306 21.594 14.736 22.314 15.18 23.055 C16 25 16 25 15 28 C13.825 26.067 12.661 24.129 11.5 22.188 C10.85 21.109 10.201 20.03 9.531 18.918 C8 16 8 16 8 13 C7.34 13 6.68 13 6 13 C5.67 11.35 5.34 9.7 5 8 C4.34 8 3.68 8 3 8 C2.01 5.36 1.02 2.72 0 0 Z " fill="#FFFFFF" transform="translate(115,158)"/>
<path d="M0 0 C4.706 0.706 4.706 0.706 6 2 C6.375 4.375 6.375 4.375 6 7 C3.5 8.812 3.5 8.812 1 10 C2.65 10.33 4.3 10.66 6 11 C6 11.33 6 11.66 6 12 C3.36 12 0.72 12 -2 12 C-1.604 9.129 -1.268 8.211 1.062 6.375 C1.702 5.921 2.341 5.467 3 5 C3 4.34 3 3.68 3 3 C1.68 3 0.36 3 -1 3 C-1.33 3.66 -1.66 4.32 -2 5 C-1.125 1.125 -1.125 1.125 0 0 Z " fill="#000000" transform="translate(282,292)"/>
<path d="M0 0 C1.65 0 3.3 0 5 0 C5 3.3 5 6.6 5 10 C3.68 10 2.36 10 1 10 C-0.158 6.527 -0.069 3.639 0 0 Z " fill="#FFFFFF" transform="translate(131,158)"/>
<path d="M0 0 C0.66 0 1.32 0 2 0 C2 0.66 2 1.32 2 2 C2.516 2.248 3.031 2.495 3.562 2.75 C6.772 4.396 9.876 6.198 13 8 C13 9.667 13 11.333 13 13 C13.99 13.33 14.98 13.66 16 14 C18.25 16.875 18.25 16.875 20 20 C19.67 20.99 19.34 21.98 19 23 C18.697 22.481 18.394 21.961 18.082 21.426 C15.441 17.029 12.697 13.594 9 10 C8.67 9.01 8.34 8.02 8 7 C6.676 6.315 5.341 5.651 4 5 C1.75 2.938 1.75 2.938 0 1 C0 0.67 0 0.34 0 0 Z " fill="#050505" transform="translate(70,134)"/>
<path d="M0 0 C-0.33 1.32 -0.66 2.64 -1 4 C-3.64 4 -6.28 4 -9 4 C-9 3.34 -9 2.68 -9 2 C-9.99 1.67 -10.98 1.34 -12 1 C-8.004 -1.83 -4.573 -0.762 0 0 Z " fill="#A0A0A0" transform="translate(218,18)"/>
<path d="M0 0 C0 2.621 -0.313 4.509 -1 7 C0.32 6.67 1.64 6.34 3 6 C3 6.66 3 7.32 3 8 C1.35 8 -0.3 8 -2 8 C-1.67 11.3 -1.34 14.6 -1 18 C0.65 17.67 2.3 17.34 4 17 C4.33 17.99 4.66 18.98 5 20 C3.02 20.33 1.04 20.66 -1 21 C-3.924 15.334 -3.677 9.527 -2.062 3.5 C-1 1 -1 1 0 0 Z " fill="#000000" transform="translate(133,150)"/>
<path d="M0 0 C7.444 2.233 14.12 5.403 21 9 C20.01 9.495 20.01 9.495 19 10 C18.072 9.505 17.144 9.01 16.188 8.5 C12.735 6.875 11.541 6.854 8 8 C8 7.34 8 6.68 8 6 C7.422 5.752 6.845 5.505 6.25 5.25 C3.7 3.833 1.982 2.124 0 0 Z " fill="#0C0C0C" transform="translate(51,119)"/>
<path d="M0 0 C0.99 0 1.98 0 3 0 C4.125 6.75 4.125 6.75 3 9 C1.68 8.67 0.36 8.34 -1 8 C-1.042 5.667 -1.041 3.333 -1 1 C-0.67 0.67 -0.34 0.34 0 0 Z " fill="#FFFFFF" transform="translate(263,294)"/>
<path d="M0 0 C0.99 0.33 1.98 0.66 3 1 C3.625 3.312 3.625 3.312 4 6 C3.01 7.485 3.01 7.485 2 9 C1.01 8.67 0.02 8.34 -1 8 C-1.625 5.688 -1.625 5.688 -2 3 C-1.34 2.01 -0.68 1.02 0 0 Z " fill="#FFFFFF" transform="translate(273,294)"/>
<path d="M0 0 C4.764 3.176 5.975 6.794 8 12 C4.258 11.064 2.573 9.791 0.625 6.562 C-1 3 -1 3 0 0 Z " fill="#353535" transform="translate(230,123)"/>
<path d="M0 0 C2.52 2.958 3.734 5.098 4 9 C3.32 13.227 2.391 16.414 0 20 C0.33 16.37 0.66 12.74 1 9 C0.01 8.67 -0.98 8.34 -2 8 C-1.34 5.36 -0.68 2.72 0 0 Z " fill="#000000" transform="translate(301,108)"/>
<path d="M0 0 C3.739 1.345 7.181 3.078 10.672 4.961 C12.003 5.631 13.336 6.299 14.672 6.961 C12.672 7.961 12.672 7.961 10.5 7.289 C9.649 6.933 8.798 6.578 7.922 6.211 C7.027 5.841 6.133 5.471 5.211 5.09 C3.199 4.195 1.237 3.19 -0.703 2.148 C-3.216 0.734 -3.216 0.734 -5.703 1.273 C-6.239 1.5 -6.776 1.727 -7.328 1.961 C-7.988 0.971 -8.648 -0.019 -9.328 -1.039 C-6.074 -2.666 -3.343 -1.053 0 0 Z " fill="#000000" transform="translate(38.328125,102.0390625)"/>
<path d="M0 0 C0.33 0 0.66 0 1 0 C1.133 0.892 1.266 1.784 1.402 2.703 C1.579 3.874 1.756 5.044 1.938 6.25 C2.112 7.41 2.286 8.57 2.465 9.766 C2.873 12.231 3.339 14.594 4 17 C3.319 16.361 2.639 15.721 1.938 15.062 C-1.464 12.674 -3.904 12.321 -8 12 C-8 11.34 -8 10.68 -8 10 C-2.25 9.875 -2.25 9.875 0 11 C-0.186 9.928 -0.371 8.855 -0.562 7.75 C-0.93 4.596 -1.045 2.902 0 0 Z " fill="#070707" transform="translate(190,42)"/>
<path d="M0 0 C0.99 0 1.98 0 3 0 C3 2.97 3 5.94 3 9 C1.68 9 0.36 9 -1 9 C-1.098 2.848 -1.098 2.848 -1 1 C-0.67 0.67 -0.34 0.34 0 0 Z " fill="#FFFFFF" transform="translate(312,294)"/>
<path d="M0 0 C1.32 0.33 2.64 0.66 4 1 C4 3.64 4 6.28 4 9 C2.68 9 1.36 9 0 9 C0 6.03 0 3.06 0 0 Z " fill="#FFFFFF" transform="translate(253,294)"/>
<path d="M0 0 C4.721 1.543 9.417 3.078 14 5 C14 5.66 14 6.32 14 7 C10.483 6.347 7.107 5.486 3.688 4.438 C2.804 4.168 1.921 3.899 1.012 3.621 C0.348 3.416 -0.316 3.211 -1 3 C-0.67 2.01 -0.34 1.02 0 0 Z " fill="#070707" transform="translate(132,111)"/>
<path d="M0 0 C3.916 0.783 7.364 2.392 11 4 C11.33 3.01 11.66 2.02 12 1 C12.454 1.804 12.907 2.609 13.375 3.438 C14.747 6.089 14.747 6.089 17 7 C16.67 7.66 16.34 8.32 16 9 C13.892 8.071 11.789 7.131 9.688 6.188 C8.516 5.665 7.344 5.143 6.137 4.605 C3.487 3.249 1.872 2.251 0 0 Z " fill="#070707" transform="translate(106,175)"/>
<path d="M0 0 C5.258 0.674 10.026 2.243 15 4 C14.67 4.66 14.34 5.32 14 6 C8.947 5.368 4.704 3.865 0 2 C0 1.34 0 0.68 0 0 Z " fill="#FFFFFF" transform="translate(176,151)"/>
<path d="M0 0 C0.66 0.33 1.32 0.66 2 1 C1.67 2.65 1.34 4.3 1 6 C0.34 6 -0.32 6 -1 6 C-1.33 7.65 -1.66 9.3 -2 11 C-2.99 11 -3.98 11 -5 11 C-4.329 6.806 -2.144 3.597 0 0 Z " fill="#171717" transform="translate(120,140)"/>
<path d="M0 0 C0.66 0 1.32 0 2 0 C2 3.96 2 7.92 2 12 C1.34 12 0.68 12 0 12 C0 9.36 0 6.72 0 4 C-0.99 3.67 -1.98 3.34 -3 3 C-2.01 2.67 -1.02 2.34 0 2 C0 1.34 0 0.68 0 0 Z " fill="#000000" transform="translate(303,292)"/>
<path d="M0 0 C0.33 0.66 0.66 1.32 1 2 C-0.145 4.785 -0.145 4.785 -1.812 8.062 C-2.355 9.147 -2.898 10.231 -3.457 11.348 C-5 14 -5 14 -7 15 C-6.037 8.535 -4.585 4.706 0 0 Z " fill="#000000" transform="translate(114,125)"/>
<path d="M0 0 C0.99 0.33 1.98 0.66 3 1 C3 4.63 3 8.26 3 12 C2.01 12.33 1.02 12.66 0 13 C-0.838 8.345 -1.016 4.629 0 0 Z " fill="#000000" transform="translate(229,113)"/>
<path d="M0 0 C0 0.33 0 0.66 0 1 C-1.887 1.34 -1.887 1.34 -3.812 1.688 C-7.174 2.502 -7.804 2.742 -10 5.625 C-10.33 6.409 -10.66 7.193 -11 8 C-11.99 7.34 -12.98 6.68 -14 6 C-14 5.34 -14 4.68 -14 4 C-9.025 0.751 -6.118 -0.499 0 0 Z " fill="#FFFFFF" transform="translate(313,47)"/>
<path d="M0 0 C1.207 0.031 1.207 0.031 2.438 0.062 C2.107 1.053 1.778 2.042 1.438 3.062 C0.778 3.062 0.118 3.062 -0.562 3.062 C-0.893 4.053 -1.222 5.042 -1.562 6.062 C-2.553 6.062 -3.542 6.062 -4.562 6.062 C-3.49 0.085 -3.49 0.085 0 0 Z " fill="#FFFFFF" transform="translate(136.5625,150.9375)"/>
<path d="M0 0 C2.475 0.99 2.475 0.99 5 2 C5 2.66 5 3.32 5 4 C5.99 4.33 6.98 4.66 8 5 C5.625 5.625 5.625 5.625 3 6 C2.34 5.34 1.68 4.68 1 4 C-1.323 3.6 -3.657 3.26 -6 3 C-6 2.67 -6 2.34 -6 2 C-4.02 2 -2.04 2 0 2 C0 1.34 0 0.68 0 0 Z " fill="#121212" transform="translate(313,46)"/>
<path d="M0 0 C1.32 0 2.64 0 4 0 C3.436 3.27 2.5 4.826 0 7 C-0.66 6.67 -1.32 6.34 -2 6 C-1.34 4.02 -0.68 2.04 0 0 Z " fill="#FFFFFF" transform="translate(181,144)"/>
<path d="M0 0 C0.99 0 1.98 0 3 0 C2.34 1.65 1.68 3.3 1 5 C0.34 5 -0.32 5 -1 5 C-1.33 5.99 -1.66 6.98 -2 8 C-2.66 7.67 -3.32 7.34 -4 7 C-2.926 4.085 -2.222 2.222 0 0 Z " fill="#FFFFFF" transform="translate(172,186)"/>
<path d="M0 0 C2.312 0.812 2.312 0.812 5 2 C6.992 2.376 8.992 2.72 11 3 C11 3.33 11 3.66 11 4 C9.417 4.054 7.834 4.093 6.25 4.125 C5.368 4.148 4.487 4.171 3.578 4.195 C0.886 3.991 -0.699 3.366 -3 2 C-2.01 1.34 -1.02 0.68 0 0 Z " fill="#666666" transform="translate(247,136)"/>
<path d="M0 0 C1 2 1 2 0.547 3.805 C-0.917 7.607 -2.279 10.891 -5 14 C-4.534 8.293 -3.062 4.841 0 0 Z " fill="#FFFFFF" transform="translate(200,18)"/>
<path d="M0 0 C0.66 0.66 1.32 1.32 2 2 C5.597 1.677 5.597 1.677 9 1 C6.927 2.111 5.114 2.974 2.812 3.5 C2.214 3.665 1.616 3.83 1 4 C0.67 4.66 0.34 5.32 0 6 C-0.33 5.67 -0.66 5.34 -1 5 C-1.66 5.66 -2.32 6.32 -3 7 C-2.387 4.038 -1.746 2.619 0 0 Z " fill="#000000" transform="translate(201,14)"/>
<path d="M0 0 C2.062 0.438 2.062 0.438 4 1 C2 4 2 4 -0.438 4.812 C-3 5 -3 5 -6 3 C-5.196 2.691 -4.391 2.381 -3.562 2.062 C-1.109 1.237 -1.109 1.237 0 0 Z " fill="#0C0C0C" transform="translate(282,133)"/>
<path d="M0 0 C0.99 0.33 1.98 0.66 3 1 C2.67 2.32 2.34 3.64 2 5 C0.125 5.625 0.125 5.625 -2 6 C-2.66 5.34 -3.32 4.68 -4 4 C-3.01 4 -2.02 4 -1 4 C0.149 2.075 0.149 2.075 0 0 Z " fill="#000000" transform="translate(318,52)"/>
</svg>
