<?xml version="1.0" encoding="UTF-8"?>
<!-- Generator: visioncortex VTracer 0.6.4 -->
<svg version="1.1" xmlns="http://www.w3.org/2000/svg" width="451" height="383">
<path d="M0 0 C148.83 0 297.66 0 451 0 C451 126.39 451 252.78 451 383 C302.17 383 153.34 383 0 383 C0 256.61 0 130.22 0 0 Z " fill="#FFFFFF" transform="translate(0,0)"/>
<path d="M0 0 C0.892 0.561 0.892 0.561 1.802 1.133 C3.178 2.031 4.502 3.008 5.812 4 C5.812 4.66 5.812 5.32 5.812 6 C6.617 6.34 6.617 6.34 7.438 6.688 C11.602 8.989 15.228 11.122 16.688 15.812 C16.812 19 16.812 19 16.582 22.688 C16.578 27.542 18.334 30.995 20.625 35.188 C20.981 35.873 21.338 36.558 21.705 37.264 C22.716 39.191 23.757 41.097 24.812 43 C25.291 43.883 25.769 44.766 26.262 45.676 C27.801 48.157 27.801 48.157 30.301 50.43 C33.005 53.197 34.394 55.619 36 59.125 C36.489 60.159 36.977 61.193 37.48 62.258 C40.835 71.683 41.323 81.585 41.938 91.5 C42.001 92.485 42.001 92.485 42.065 93.489 C42.754 104.338 43.156 115.133 42.812 126 C42.783 127.24 42.753 128.48 42.723 129.758 C42.493 134.671 42.233 138.398 39.895 142.758 C37.516 147.256 36.626 151.708 35.75 156.688 C34.625 162.998 33.634 167.969 29.125 172.812 C25.614 174.616 22.602 174.784 18.812 174 C15.22 172.384 12.064 170.211 8.812 168 C7.63 167.217 6.446 166.436 5.262 165.656 C2.695 163.961 0.137 162.254 -2.414 160.535 C-4.837 158.903 -7.268 157.285 -9.711 155.684 C-10.776 154.984 -11.84 154.284 -12.938 153.562 C-14.353 152.636 -14.353 152.636 -15.797 151.691 C-16.586 151.133 -17.375 150.575 -18.188 150 C-18.729 149.619 -19.271 149.238 -19.83 148.846 C-21.975 145.93 -21.433 143.329 -21.305 139.77 C-21.272 138.312 -21.239 136.854 -21.207 135.396 C-21.139 133.11 -21.063 130.824 -20.975 128.538 C-20.289 117.306 -20.289 117.306 -24.841 107.364 C-33.077 99.019 -46.725 97.797 -57.688 95.266 C-58.356 95.111 -59.024 94.956 -59.712 94.797 C-63.115 94.009 -66.52 93.229 -69.928 92.461 C-71.193 92.173 -72.458 91.884 -73.762 91.586 C-74.902 91.329 -76.043 91.071 -77.218 90.806 C-79.788 90.108 -81.878 89.302 -84.188 88 C-83.728 81.644 -83.014 75.506 -81.59 69.289 C-81.156 66.819 -81.121 64.503 -81.188 62 C-88.849 59.657 -96.16 57.554 -104.188 57 C-104.27 58.134 -104.352 59.269 -104.438 60.438 C-104.991 65.364 -105.985 70.166 -107.062 75 C-107.224 75.766 -107.385 76.533 -107.552 77.322 C-108.055 79.5 -108.055 79.5 -109.188 83 C-113.31 84.374 -116.637 83.31 -120.75 82.375 C-121.531 82.222 -122.311 82.068 -123.115 81.91 C-125.268 81.423 -127.189 80.939 -129.188 80 C-130.715 77.352 -130.715 77.352 -131.188 75 C-132.507 75 -133.827 75 -135.188 75 C-135.847 75.99 -136.507 76.98 -137.188 78 C-148.006 77.141 -158.396 74.931 -168.954 72.485 C-181.106 69.671 -193.289 67.042 -205.5 64.5 C-206.41 64.31 -207.32 64.12 -208.258 63.925 C-217.847 61.927 -227.44 59.945 -237.035 57.977 C-237.808 57.818 -238.582 57.659 -239.379 57.495 C-242.966 56.759 -246.553 56.025 -250.142 55.295 C-257.252 53.841 -264.327 52.287 -271.393 50.634 C-274.58 49.911 -277.771 49.318 -281 48.812 C-281.996 48.654 -282.993 48.495 -284.02 48.332 C-284.735 48.222 -285.45 48.113 -286.188 48 C-285.99 48.59 -285.792 49.179 -285.588 49.787 C-284.912 53.52 -287.303 56.362 -289.125 59.5 C-302.217 83.177 -309.29 109.08 -311.454 135.97 C-311.632 137.987 -311.901 139.996 -312.188 142 C-314.188 143 -314.188 143 -317.5 142.812 C-322.014 143.042 -323.137 143.709 -326.188 147 C-326.796 148.415 -327.4 149.832 -328 151.25 C-331.624 158.333 -340.064 161.301 -347.188 164 C-351.219 165.077 -354.094 164.857 -358.188 164 C-358.242 162.625 -358.281 161.25 -358.312 159.875 C-358.336 159.109 -358.359 158.344 -358.383 157.555 C-358.188 155 -358.188 155 -357.24 152.351 C-356.039 148.528 -355.549 144.792 -355.152 140.824 C-355.069 140.034 -354.986 139.243 -354.9 138.429 C-354.633 135.849 -354.379 133.269 -354.125 130.688 C-354.035 129.805 -353.945 128.923 -353.853 128.014 C-352.888 118.472 -352.074 108.963 -351.883 99.371 C-351.86 98.248 -351.86 98.248 -351.836 97.102 C-351.774 93.595 -351.751 90.092 -351.779 86.585 C-351.715 76.931 -349.478 70.935 -344.188 63 C-343.528 63 -342.868 63 -342.188 63 C-341.961 62.316 -341.734 61.631 -341.5 60.926 C-339.853 57.255 -337.652 54.346 -335.188 51.188 C-334.736 50.59 -334.285 49.993 -333.82 49.377 C-332.661 47.877 -331.429 46.433 -330.188 45 C-329.528 45 -328.868 45 -328.188 45 C-327.961 44.299 -327.734 43.597 -327.5 42.875 C-324.488 36.278 -318.833 30.595 -312.188 27.688 C-309.083 26.976 -306.361 26.849 -303.188 27 C-303.188 25.68 -303.188 24.36 -303.188 23 C-302.013 22.765 -300.839 22.531 -299.629 22.289 C-295.088 21.15 -291.876 19.1 -288.125 16.375 C-260.063 -3.047 -230.642 -6.97 -197.193 -9.766 C-181.342 -11.113 -167.711 -13.862 -153.004 -20.008 C-99.621 -42.311 -47.509 -30.055 0 0 Z " fill="#050505" transform="translate(382.1875,127)"/>
<path d="M0 0 C32.779 -0.624 32.779 -0.624 46 3 C47.674 3.435 47.674 3.435 49.383 3.879 C57.318 6.121 64.586 9.434 72 13 C73.476 13.653 74.955 14.299 76.438 14.938 C87.5 19.852 97.787 25.538 108 32 C108.947 32.531 109.895 33.062 110.871 33.609 C111.574 34.068 112.276 34.527 113 35 C113 35.66 113 36.32 113 37 C113.717 37.244 114.433 37.487 115.172 37.738 C118.376 39.168 120.605 40.887 123.25 43.188 C124.121 43.924 124.993 44.66 125.891 45.418 C128.545 48.667 128.504 50.873 129 55 C130.09 57.816 131.468 60.456 132.875 63.125 C133.403 64.159 133.403 64.159 133.941 65.215 C137.248 72.242 137.248 72.242 142.438 77.75 C146.043 80.915 147.299 84.595 149 89 C149.501 90.085 149.501 90.085 150.012 91.191 C155.139 105.763 154.354 122.965 154.475 138.224 C154.491 140.226 154.516 142.227 154.549 144.229 C154.83 163.301 154.83 163.301 150.221 172.464 C147.948 177.185 147.41 182.342 146.617 187.48 C145.893 191.515 145.465 193.507 142.586 196.562 C138.918 198.602 137.005 198.105 133 197 C127.462 194.014 122.214 190.647 117.078 187.016 C113.701 184.659 110.532 182.724 106.691 181.215 C102.178 179.258 98.447 177.435 96 173 C94.404 164.664 95.192 156.015 95.716 147.589 C96.788 129.879 92.019 112.68 84 97 C83.416 95.819 83.416 95.819 82.82 94.613 C66.876 63.99 37.85 48.09 6.242 37.773 C-35.2 26.048 -77.47 31.447 -115 52 C-119.789 54.756 -124.496 57.639 -129.172 60.582 C-129.847 60.999 -130.522 61.416 -131.217 61.846 C-133.144 63.048 -133.144 63.048 -135.328 64.887 C-143.882 68.451 -155.272 63.518 -163.625 61.062 C-164.915 60.698 -166.206 60.334 -167.496 59.971 C-174.46 57.957 -174.46 57.957 -177 57 C-177.33 56.34 -177.66 55.68 -178 55 C-177.221 54.654 -177.221 54.654 -176.426 54.301 C-175.38 53.812 -175.38 53.812 -174.312 53.312 C-173.628 52.999 -172.944 52.686 -172.238 52.363 C-169.828 51.018 -169.828 51.018 -167.625 48.609 C-145.845 26.959 -105.94 21.327 -76.867 20.96 C-74.077 20.994 -71.289 21.052 -68.5 21.125 C-59.935 21.308 -53.773 19.76 -46 16 C-42.847 14.614 -39.674 13.274 -36.5 11.938 C-35.269 11.418 -35.269 11.418 -34.014 10.888 C-2.858 -2.153 28.454 4.517 58.953 16.836 C78.691 25.126 98.67 37.063 111 55 C111 55.66 111 56.32 111 57 C111.66 57 112.32 57 113 57 C119.696 69.046 125.602 80.612 129 94 C129.439 95.605 129.439 95.605 129.887 97.242 C134.1 113.726 136.347 133.186 133 150 C136.818 149.725 136.818 149.725 140 148 C142.223 116.77 137.875 83.027 119.758 56.672 C118 54 118 54 118 52 C117.34 52 116.68 52 116 52 C115.34 50.35 114.68 48.7 114 47 C113.34 47 112.68 47 112 47 C110.995 45.895 110.046 44.738 109.125 43.562 C97.273 29.744 78.746 20.461 62 14 C61.058 13.634 60.115 13.268 59.145 12.891 C56.444 11.878 53.731 10.927 51 10 C50.065 9.673 49.131 9.345 48.168 9.008 C32.544 3.833 16.41 1.43 0 1 C0 0.67 0 0.34 0 0 Z " fill="#FFFFFF" transform="translate(268,101)"/>
<path d="M0 0 C0.804 0.789 0.804 0.789 1.625 1.594 C1.625 2.254 1.625 2.914 1.625 3.594 C2.264 3.862 2.904 4.13 3.562 4.406 C5.625 5.594 5.625 5.594 6.625 8.594 C7.615 8.924 8.605 9.254 9.625 9.594 C11.313 11.497 12.853 13.378 14.375 15.406 C14.817 15.993 15.26 16.58 15.716 17.184 C26.149 31.251 36.219 50.531 35.625 68.594 C34.717 67.707 33.81 66.82 32.875 65.906 C25.276 59.411 15.161 56.903 5.625 54.594 C5.955 51.624 6.285 48.654 6.625 45.594 C5.635 47.574 5.635 47.574 4.625 49.594 C4.625 47.284 4.625 44.974 4.625 42.594 C3.635 46.224 2.645 49.854 1.625 53.594 C0.635 53.264 -0.355 52.934 -1.375 52.594 C-1.185 51.428 -1.185 51.428 -0.992 50.239 C-0.426 46.733 0.131 43.226 0.688 39.719 C0.887 38.495 1.086 37.272 1.291 36.012 C1.567 34.262 1.567 34.262 1.848 32.477 C2.02 31.398 2.193 30.319 2.371 29.208 C2.857 26.614 2.857 26.614 1.625 24.594 C-1.224 23.867 -4.021 23.262 -6.906 22.719 C-7.771 22.549 -8.636 22.379 -9.528 22.204 C-12.309 21.659 -15.092 21.126 -17.875 20.594 C-20.629 20.059 -23.383 19.522 -26.137 18.984 C-27.851 18.65 -29.567 18.318 -31.282 17.989 C-39.695 16.368 -48.026 14.464 -56.348 12.43 C-57.156 12.233 -57.965 12.036 -58.798 11.833 C-61.345 11.212 -63.891 10.591 -66.438 9.969 C-68.179 9.544 -69.921 9.12 -71.662 8.695 C-75.9 7.662 -80.138 6.628 -84.375 5.594 C-84.375 4.934 -84.375 4.274 -84.375 3.594 C-74.923 4.065 -65.887 5.247 -56.625 7.156 C-53.937 7.698 -51.248 8.239 -48.559 8.777 C-47.846 8.921 -47.134 9.064 -46.4 9.212 C-40.333 10.426 -34.249 11.534 -28.16 12.629 C-25.284 13.153 -22.409 13.678 -19.533 14.203 C-17.642 14.546 -15.751 14.883 -13.858 15.215 C-11.19 15.684 -8.527 16.172 -5.863 16.664 C-4.664 16.867 -4.664 16.867 -3.44 17.074 C1.067 17.929 3.879 18.817 6.625 22.594 C7.148 26.335 6.806 29.796 6.625 33.594 C6.955 29.964 7.285 26.334 7.625 22.594 C8.285 23.254 8.945 23.914 9.625 24.594 C9.851 22.39 9.851 22.39 7.801 20.617 C3.343 17.777 -1.029 17.132 -6.188 16.219 C-7.272 16.015 -8.356 15.81 -9.474 15.6 C-11.841 15.156 -14.209 14.718 -16.579 14.287 C-20.523 13.567 -24.463 12.827 -28.402 12.082 C-32.515 11.304 -36.629 10.529 -40.745 9.768 C-46.713 8.663 -52.676 7.547 -58.621 6.324 C-72.38 3.369 -72.38 3.369 -86.375 3.594 C-90.081 6.065 -90.113 7.254 -91.199 11.477 C-91.658 13.226 -91.658 13.226 -92.127 15.012 C-92.436 16.235 -92.744 17.458 -93.062 18.719 C-93.383 19.95 -93.703 21.181 -94.033 22.449 C-94.824 25.495 -95.604 28.543 -96.375 31.594 C-97.623 31.213 -98.872 30.832 -100.158 30.439 C-112.482 26.755 -124.793 23.937 -137.443 21.638 C-142.61 20.699 -147.772 19.726 -152.934 18.758 C-153.941 18.57 -154.947 18.382 -155.985 18.188 C-163.687 16.742 -171.348 15.162 -179 13.469 C-195.713 9.78 -212.549 6.714 -229.375 3.594 C-224.613 -2.282 -224.613 -2.282 -222.469 -3.402 C-219.366 -3.408 -216.81 -2.451 -213.875 -1.469 C-206.303 0.77 -198.931 2.718 -191.477 -0.758 C-189.728 -1.815 -188.01 -2.923 -186.336 -4.094 C-184.375 -5.406 -184.375 -5.406 -182.375 -5.406 C-182.375 -6.066 -182.375 -6.726 -182.375 -7.406 C-179.6 -8.794 -176.824 -10.18 -174.047 -11.562 C-171.546 -12.812 -169.059 -14.085 -166.578 -15.375 C-113.625 -42.724 -46.948 -37.682 0 0 Z " fill="#FFFFFF" transform="translate(326.375,166.40625)"/>
<path d="M0 0 C-1.375 1.5 -1.375 1.5 -3 3 C-3.66 3 -4.32 3 -5 3 C-5.268 3.949 -5.536 4.898 -5.812 5.875 C-7 9 -7 9 -10 11 C-10.495 10.01 -10.495 10.01 -11 9 C-10.67 8.34 -10.34 7.68 -10 7 C-10.66 7.33 -11.32 7.66 -12 8 C-11.397 11.378 -10.098 13.323 -8 16 C-8.496 16.969 -8.993 17.939 -9.504 18.938 C-23.494 46.45 -31.347 73.143 -34 104 C-34.843 104.098 -35.686 104.196 -36.555 104.297 C-37.65 104.446 -38.746 104.596 -39.875 104.75 C-41.511 104.959 -41.511 104.959 -43.18 105.172 C-46.071 105.704 -46.071 105.704 -47.277 107.805 C-47.635 108.891 -47.635 108.891 -48 110 C-49.437 114.052 -50.801 117.719 -54.684 119.981 C-57.981 121.509 -61.36 122.734 -64.797 123.906 C-67.824 124.677 -67.824 124.677 -69 126 C-71 126.041 -73 126.043 -75 126 C-74.48 120.628 -73.922 115.263 -73.316 109.9 C-72.867 105.914 -72.431 101.926 -72 97.938 C-71.863 96.666 -71.863 96.666 -71.722 95.368 C-70.272 81.727 -69.477 68.176 -69.416 54.459 C-69.294 44.071 -67.705 37.394 -61 29.375 C-60.017 28.162 -59.034 26.948 -58.051 25.734 C-57.548 25.12 -57.044 24.506 -56.526 23.873 C-54.04 20.822 -51.616 17.722 -49.188 14.625 C-48.491 13.746 -48.491 13.746 -47.78 12.849 C-45.356 9.783 -43.074 6.667 -40.875 3.438 C-36.788 -2.003 -31.093 -4.922 -24.438 -6.062 C-16.641 -6.53 -6.474 -4.316 0 0 Z " fill="#FFFFFF" transform="translate(102,163)"/>
<path d="M0 0 C2.675 1.926 5.308 3.891 7.922 5.898 C9.065 6.695 9.065 6.695 10.23 7.508 C10.789 7.967 11.347 8.426 11.922 8.898 C11.922 9.558 11.922 10.218 11.922 10.898 C12.492 11.115 13.061 11.332 13.648 11.555 C29.966 21.199 38.053 49.534 42.637 66.703 C46.492 81.86 49.301 98.234 47.922 113.898 C47.262 114.558 46.602 115.218 45.922 115.898 C42.386 115.363 42.386 115.363 40.922 113.898 C40.67 112.138 40.477 110.368 40.309 108.598 C40.197 107.485 40.086 106.372 39.971 105.226 C39.852 104.025 39.732 102.824 39.609 101.586 C37.44 81.116 34.094 60.543 24.922 41.898 C24.504 40.979 24.087 40.06 23.656 39.113 C10.759 11.654 -13.785 -3.088 -41.185 -13.421 C-48.964 -16.224 -56.83 -18.179 -64.951 -19.695 C-66.436 -19.979 -67.916 -20.284 -69.393 -20.606 C-75.971 -22.022 -82.5 -22.706 -89.203 -23.227 C-90.781 -23.356 -90.781 -23.356 -92.391 -23.488 C-94.953 -23.698 -97.515 -23.902 -100.078 -24.102 C-100.078 -24.762 -100.078 -25.422 -100.078 -26.102 C-68.486 -33.219 -25.788 -17.606 0 0 Z " fill="#000000" transform="translate(349.078125,135.1015625)"/>
<path d="M0 0 C4.29 0.99 8.58 1.98 13 3 C13 2.34 13 1.68 13 1 C20.346 2.245 26.485 4.812 33.155 8.095 C35.11 9.054 37.074 9.99 39.039 10.926 C46.854 14.689 54.117 18.666 61 24 C62.313 25.009 62.313 25.009 63.652 26.039 C72.338 32.85 72.338 32.85 76 37 C76 37.66 76 38.32 76 39 C76.66 39 77.32 39 78 39 C78.99 41.475 78.99 41.475 80 44 C80.66 44 81.32 44 82 44 C83.157 45.538 83.157 45.538 84.426 47.699 C84.89 48.49 85.355 49.28 85.834 50.095 C86.322 50.951 86.81 51.806 87.312 52.688 C87.81 53.557 88.308 54.426 88.821 55.321 C92.603 62.048 95.653 68.631 98 76 C98.354 77.057 98.709 78.114 99.074 79.203 C103.888 94.591 105.283 110.022 105.438 126.062 C105.45 126.733 105.462 127.404 105.474 128.094 C105.504 130.012 105.501 131.93 105.496 133.848 C105.498 134.961 105.5 136.075 105.502 137.223 C105 140 105 140 103.219 141.947 C101 143 101 143 98.75 142.688 C97.884 142.347 97.884 142.347 97 142 C97.016 141.368 97.031 140.737 97.048 140.086 C97.699 109.579 93.955 83.462 80.066 56.21 C78.926 53.846 77.949 51.446 77 49 C76.34 49 75.68 49 75 49 C74.041 47.595 73.088 46.186 72.164 44.758 C56.627 21.295 25.617 9.967 0 2 C0 1.34 0 0.68 0 0 Z " fill="#000000" transform="translate(304,109)"/>
<path d="M0 0 C12.54 2.97 25.08 5.94 38 9 C37.332 15.678 36.549 21.701 34.938 28.125 C34.751 28.891 34.565 29.656 34.373 30.445 C33.921 32.298 33.462 34.149 33 36 C31.082 35.717 29.166 35.423 27.25 35.125 C26.183 34.963 25.115 34.8 24.016 34.633 C21.299 34.063 19.331 33.479 17 32 C16.691 31.319 16.381 30.639 16.062 29.938 C15.143 27.741 15.143 27.741 12.562 27.188 C9.881 26.826 9.881 26.826 7 28 C6.67 28.66 6.34 29.32 6 30 C1.452 30.178 -1.879 29.998 -6 28 C-5.421 21.406 -4.201 15.309 -2.438 8.938 C-1.231 4.513 -1.231 4.513 0 0 Z " fill="#FFFFFF" transform="translate(238,172)"/>
<path d="M0 0 C0 0.66 0 1.32 0 2 C-1.067 2.147 -2.135 2.294 -3.234 2.445 C-11.863 3.714 -20.204 5.427 -28.562 7.938 C-29.37 8.178 -30.177 8.419 -31.009 8.667 C-39.217 11.215 -46.821 14.697 -54.25 19 C-54.835 19.33 -55.42 19.66 -56.023 20 C-58.794 21.591 -61.305 23.245 -63.797 25.25 C-66 27 -66 27 -68 27 C-68.33 27.99 -68.66 28.98 -69 30 C-71.217 31.59 -73.579 32.723 -76 34 C-72.218 35.134 -68.431 36.255 -64.641 37.363 C-62.732 37.924 -60.826 38.496 -58.92 39.068 C-46.219 43.187 -46.219 43.187 -33.5 41.5 C-32.318 40.688 -31.153 39.852 -30 39 C-21.912 33.581 -13.587 29.086 -4.826 24.878 C-3.29 24.14 -1.761 23.386 -0.234 22.629 C37.943 4.32 80.727 5.232 120.291 19.134 C149.374 29.792 174.165 49.594 187.656 77.887 C196.528 98.441 196.528 98.441 196 109 C193.185 106.185 193.016 102.961 192.25 99.188 C190.499 91.212 187.793 84.254 184 77 C183.526 76.045 183.051 75.09 182.562 74.105 C179.109 67.396 174.894 61.724 170 56 C169.411 55.288 168.822 54.577 168.215 53.844 C161.491 45.879 153.692 39.705 145 34 C144.153 33.434 143.306 32.868 142.434 32.285 C112.572 13.552 68.998 6.944 34.484 13.125 C16.298 17.692 -2.555 24.549 -18.223 35.004 C-20 36 -20 36 -23 36 C-23 36.66 -23 37.32 -23 38 C-29.416 43.028 -35.521 45.963 -43.711 45.531 C-46.274 45.117 -48.613 44.601 -51.102 43.906 C-51.81 43.709 -52.518 43.513 -53.247 43.31 C-54.64 42.903 -56.023 42.462 -57.394 41.985 C-59.586 41.241 -59.586 41.241 -63 41 C-65.487 42.388 -66.987 43.922 -69 46 C-69.66 45.67 -70.32 45.34 -71 45 C-68.525 42.525 -68.525 42.525 -66 40 C-71.28 38.35 -76.56 36.7 -82 35 C-81.67 34.01 -81.34 33.02 -81 32 C-79.039 31.156 -79.039 31.156 -76.625 30.5 C-73.156 29.551 -71.463 28.592 -69 26 C-68.34 26 -67.68 26 -67 26 C-67 25.34 -67 24.68 -67 24 C-64.925 22.458 -62.871 21.06 -60.688 19.688 C-60.05 19.284 -59.413 18.88 -58.757 18.464 C-53.374 15.116 -47.891 12.351 -42 10 C-41.189 9.666 -40.378 9.332 -39.543 8.988 C-33.564 6.665 -27.442 4.96 -21.25 3.312 C-20.446 3.098 -19.641 2.883 -18.812 2.662 C-12.58 1.047 -6.474 -0.196 0 0 Z " fill="#000000" transform="translate(167,123)"/>
<path d="M0 0 C5.621 0.541 11.051 1.332 16.562 2.562 C17.781 2.832 18.999 3.101 20.254 3.379 C21.16 3.584 22.066 3.789 23 4 C22.525 7.751 22.044 11.5 21.562 15.25 C21.428 16.313 21.293 17.377 21.154 18.473 C21.022 19.497 20.89 20.522 20.754 21.578 C20.633 22.521 20.513 23.463 20.389 24.435 C20.049 26.677 19.596 28.814 19 31 C13.732 30.342 8.699 29.267 3.562 27.938 C2.831 27.751 2.099 27.565 1.346 27.373 C-0.437 26.919 -2.219 26.46 -4 26 C-4.257 20.088 -3.296 14.819 -2 9.062 C-1.809 8.188 -1.618 7.313 -1.422 6.412 C-0.954 4.273 -0.48 2.136 0 0 Z " fill="#FFFFFF" transform="translate(305,188)"/>
<path d="M0 0 C16.852 2.397 33.094 12.669 47 22 C47.99 22.66 48.98 23.32 50 24 C50 24.66 50 25.32 50 26 C50.553 26.231 51.106 26.461 51.676 26.699 C69.577 36.718 79.985 60.712 85.312 79.5 C90.256 98.006 93.667 119.164 89 138 C88.01 138 87.02 138 86 138 C85.985 137.13 85.971 136.26 85.956 135.364 C85.273 98.821 81.374 63.577 56 35 C55.398 34.316 54.796 33.631 54.176 32.926 C41.179 19.057 22.436 9.952 5 3 C4.045 2.617 3.09 2.234 2.105 1.84 C1.411 1.563 0.716 1.286 0 1 C0 0.67 0 0.34 0 0 Z " fill="#FFFFFF" transform="translate(317,112)"/>
<path d="M0 0 C5.932 0.592 11.072 2.244 16.625 4.375 C17.526 4.718 18.426 5.061 19.354 5.414 C29.648 9.461 39.335 14.649 49 20 C49 20.66 49 21.32 49 22 C49.7 22.22 50.4 22.441 51.121 22.668 C54.679 24.314 57.25 26.648 60.062 29.312 C60.579 29.786 61.095 30.26 61.627 30.748 C64.716 33.624 67.529 36.558 70 40 C70 40.66 70 41.32 70 42 C70.66 42 71.32 42 72 42 C88.749 69.842 97.387 100.318 96 133 C95.01 133 94.02 133 93 133 C92.246 130.244 91.816 127.636 91.605 124.789 C89.229 95.214 83.606 64.995 65.25 40.82 C64 39 64 39 64 37 C63.01 36.67 62.02 36.34 61 36 C59.642 34.354 58.307 32.687 57 31 C56.34 30.67 55.68 30.34 55 30 C55 29.34 55 28.68 55 28 C54.428 27.722 53.855 27.443 53.266 27.156 C51.034 26.017 48.891 24.801 46.75 23.5 C46.044 23.077 45.337 22.654 44.609 22.219 C44.078 21.817 43.547 21.414 43 21 C43 20.34 43 19.68 43 19 C41.733 18.617 41.733 18.617 40.441 18.227 C36.751 16.911 33.39 15.2 29.938 13.375 C20.296 8.397 10.186 4.696 0 1 C0 0.67 0 0.34 0 0 Z " fill="#FFFFFF" transform="translate(299,116)"/>
<path d="M0 0 C0.935 0.63 1.869 1.261 2.832 1.91 C8.734 6.139 8.734 6.139 10.062 10.438 C10.042 11.283 10.021 12.129 10 13 C6.321 10.58 2.717 8.094 -0.843 5.5 C-35.168 -19.447 -72.423 -34.057 -115 -33 C-115.33 -33.66 -115.66 -34.32 -116 -35 C-74.166 -40.288 -33.959 -23.222 0 0 Z " fill="#FFFFFF" transform="translate(386,133)"/>
<path d="M0 0 C-0.66 0.33 -1.32 0.66 -2 1 C-2 1.66 -2 2.32 -2 3 C-1.063 2.942 -0.126 2.884 0.84 2.824 C10.207 2.443 18.934 3.461 28.125 5.312 C29.191 5.525 30.257 5.738 31.355 5.958 C36.897 7.133 41.895 8.534 47 11 C47 11.66 47 12.32 47 13 C45.976 12.853 44.953 12.706 43.898 12.555 C41.55 12.221 39.202 11.891 36.852 11.57 C31.095 10.776 25.372 9.903 19.66 8.838 C8.514 6.77 -2.371 5.329 -13.695 6.844 C-16 7 -16 7 -17.868 6.422 C-20.551 5.891 -21.887 6.416 -24.422 7.406 C-25.702 7.899 -25.702 7.899 -27.009 8.403 C-27.913 8.765 -28.818 9.127 -29.75 9.5 C-31.143 10.042 -31.143 10.042 -32.564 10.595 C-39.195 13.203 -45.745 15.985 -52.2 19.004 C-53.776 19.725 -55.385 20.371 -57 21 C-57.66 20.67 -58.32 20.34 -59 20 C-50.587 14.615 -42.226 10.93 -32.841 7.652 C-30.312 6.756 -27.816 5.776 -25.312 4.812 C-17.198 1.887 -8.685 -0.606 0 0 Z " fill="#2A2A2A" transform="translate(270,99)"/>
<path d="M0 0 C2.347 0.459 4.695 0.918 7.043 1.375 C8.946 1.75 8.946 1.75 10.888 2.133 C15.497 3.03 20.117 3.86 24.738 4.688 C26.423 4.991 28.107 5.294 29.791 5.597 C32.271 6.044 34.75 6.489 37.231 6.929 C45.354 8.372 53.447 9.899 61.453 11.902 C62.634 12.196 63.815 12.49 65.032 12.793 C68.301 14.028 69.898 15.222 72.062 17.938 C72.523 20.41 72.523 20.41 72.438 23 C72.425 23.857 72.412 24.714 72.398 25.598 C72.062 27.937 72.062 27.937 70.062 30.938 C70.062 27.308 70.062 23.678 70.062 19.938 C69.877 22.103 69.877 22.103 69.688 24.312 C69.312 28.688 69.312 28.688 67.062 30.938 C67.097 30.034 67.132 29.13 67.168 28.199 C67.209 26.43 67.209 26.43 67.25 24.625 C67.285 23.453 67.32 22.281 67.355 21.074 C67.347 18.019 67.347 18.019 65.837 16.313 C63.664 14.628 62.085 14.278 59.383 13.797 C58.41 13.617 57.437 13.437 56.435 13.252 C54.828 12.972 54.828 12.972 53.188 12.688 C50.828 12.257 48.469 11.826 46.109 11.395 C44.181 11.048 44.181 11.048 42.213 10.694 C37.787 9.893 33.37 9.048 28.953 8.199 C11.69 4.885 -5.576 1.702 -22.938 -1.062 C-22.938 -0.403 -22.938 0.257 -22.938 0.938 C-21.874 1.042 -20.811 1.146 -19.715 1.254 C-13.869 1.987 -8.208 3.445 -2.5 4.875 C-0.85 5.272 -0.85 5.272 0.834 5.678 C1.877 5.937 2.921 6.197 3.996 6.465 C4.945 6.699 5.895 6.934 6.873 7.176 C9.062 7.938 9.062 7.938 10.062 9.938 C2.361 9.247 -4.962 7.293 -12.438 5.375 C-13.75 5.042 -15.062 4.709 -16.375 4.377 C-19.564 3.568 -22.751 2.755 -25.938 1.938 C-27.706 7.086 -29.347 12.204 -30.625 17.5 C-30.876 18.533 -31.128 19.565 -31.387 20.629 C-31.659 21.772 -31.659 21.772 -31.938 22.938 C-32.597 22.938 -33.257 22.938 -33.938 22.938 C-33.194 18.155 -32.232 13.459 -31.125 8.75 C-30.972 8.039 -30.819 7.328 -30.662 6.596 C-29.96 3.645 -29.411 1.412 -27.236 -0.767 C-19.739 -4.993 -8.01 -1.642 0 0 Z " fill="#000000" transform="translate(264.9375,171.0625)"/>
<path d="M0 0 C0 0.33 0 0.66 0 1 C-0.708 1.09 -1.416 1.18 -2.145 1.272 C-27.301 4.535 -50.509 9.211 -71.828 23.617 C-74 25 -74 25 -77 26 C-77 26.66 -77 27.32 -77 28 C-82.763 33.248 -88.322 34.968 -96 35 C-96 33.68 -96 32.36 -96 31 C-95.072 31 -94.144 31 -93.188 31 C-88.257 30.293 -85.075 27.274 -81.211 24.32 C-62.571 10.85 -42.002 4.416 -19.5 1.25 C-18.593 1.122 -17.685 0.994 -16.75 0.863 C-11.118 0.127 -5.679 -0.115 0 0 Z " fill="#FFFFFF" transform="translate(177,121)"/>
<path d="M0 0 C37.601 0.064 78.477 14.234 107.053 39.381 C106.063 39.876 106.063 39.876 105.053 40.381 C104.393 40.051 103.733 39.721 103.053 39.381 C103.053 38.721 103.053 38.061 103.053 37.381 C102.075 37.046 102.075 37.046 101.077 36.705 C97.014 34.925 93.419 32.563 89.678 30.193 C78.142 23.026 66.128 17.673 53.491 12.74 C51.188 11.829 48.907 10.862 46.651 9.842 C42.638 8.212 38.707 7.193 34.491 6.256 C33.762 6.087 33.033 5.918 32.282 5.744 C25.806 4.263 19.566 3.263 12.905 3.064 C12.247 3.043 11.59 3.023 10.913 3.001 C8.835 2.936 6.756 2.877 4.678 2.818 C3.26 2.775 1.842 2.731 0.424 2.687 C-3.033 2.581 -6.49 2.479 -9.947 2.381 C-6.944 -0.622 -4.113 0.06 0 0 Z " fill="#000000" transform="translate(277.94677734375,98.619384765625)"/>
<path d="M0 0 C4.118 1.915 7.633 3.93 11 7 C11 7.66 11 8.32 11 9 C11.888 9.389 11.888 9.389 12.793 9.785 C28.094 18.207 36.427 43.354 41 59 C45.558 75.044 48.737 91.262 48 108 C47.67 108 47.34 108 47 108 C46.812 106.559 46.812 106.559 46.62 105.089 C43.421 79.211 43.421 79.211 37 54 C36.611 52.824 36.221 51.649 35.82 50.438 C29.081 31.761 17.972 14.589 1.469 3.227 C0.984 2.822 0.499 2.417 0 2 C0 1.34 0 0.68 0 0 Z " fill="#000000" transform="translate(343,137)"/>
<path d="M0 0 C8.243 0.709 16.233 2.411 24.312 4.125 C27.348 4.764 30.385 5.399 33.422 6.031 C34.203 6.194 34.984 6.357 35.788 6.525 C41.396 7.686 47.014 8.782 52.641 9.844 C53.432 9.994 54.224 10.144 55.039 10.299 C59.654 11.174 59.654 11.174 64.272 12.03 C72.456 13.532 80.495 15.285 88.496 17.586 C89.233 17.794 89.97 18.003 90.73 18.218 C92.507 18.748 94.257 19.367 96 20 C96.495 20.99 96.495 20.99 97 22 C92.629 21.032 88.259 20.061 83.893 19.068 C73.441 16.701 62.954 14.58 52.429 12.564 C38.303 9.857 24.211 7.06 10.176 3.91 C6.799 3.156 3.421 2.525 0 2 C0 1.34 0 0.68 0 0 Z " fill="#000000" transform="translate(130,176)"/>
<path d="M0 0 C1.529 0.177 1.529 0.177 3.09 0.357 C9.325 1.138 15.007 2.429 20.875 4.688 C20.875 5.347 20.875 6.007 20.875 6.688 C16.79 7.802 14.139 7.469 10.082 6.355 C2.294 4.426 -5.472 3.685 -13.438 3 C-14.872 2.87 -16.306 2.739 -17.74 2.607 C-21.201 2.291 -24.663 1.986 -28.125 1.688 C-28.125 1.028 -28.125 0.368 -28.125 -0.312 C-18.813 -2.406 -9.369 -1.199 0 0 Z " fill="#050505" transform="translate(277.125,109.3125)"/>
<path d="M0 0 C7.889 0.493 15.416 1.527 23.125 3.25 C30.699 4.895 38.276 6.44 45.9 7.834 C58.524 10.151 70.74 13.213 83 17 C79.429 18.227 76.887 17.775 73.232 16.984 C72.069 16.736 70.906 16.489 69.708 16.234 C68.451 15.957 67.194 15.68 65.898 15.395 C64.58 15.11 63.261 14.827 61.942 14.545 C58.459 13.796 54.978 13.037 51.497 12.276 C48.023 11.518 44.547 10.77 41.07 10.021 C27.369 7.067 13.677 4.066 0 1 C0 0.67 0 0.34 0 0 Z " fill="#FFFFFF" transform="translate(144,181)"/>
<path d="M0 0 C1.238 0.155 1.238 0.155 2.5 0.312 C4.667 3.563 4.772 4.605 4.75 8.375 C4.755 9.253 4.76 10.131 4.766 11.035 C4.5 13.312 4.5 13.312 2.5 15.312 C-1.125 14.938 -1.125 14.938 -4.5 14.312 C-4.554 12.354 -4.593 10.396 -4.625 8.438 C-4.648 7.347 -4.671 6.256 -4.695 5.133 C-4.44 1.444 -3.702 0.463 0 0 Z " fill="#393939" transform="translate(429.5,364.6875)"/>
<path d="M0 0 C2.007 0.287 4.009 0.619 6 1 C7.188 4.565 7.263 7.256 7 11 C5.5 13.438 5.5 13.438 4 15 C2.35 14.67 0.7 14.34 -1 14 C-2.846 8.872 -3.27 6.017 -1 1 C-0.67 0.67 -0.34 0.34 0 0 Z " fill="#000000" transform="translate(406,365)"/>
<path d="M0 0 C4.556 0.556 4.556 0.556 6 2 C6.312 3.614 6.551 5.243 6.75 6.875 C6.869 7.759 6.987 8.644 7.109 9.555 C7 12 7 12 5.715 13.84 C4 15 4 15 0.812 14.688 C-0.116 14.461 -1.044 14.234 -2 14 C-3.161 9.742 -2.894 6.308 -2 2 C-1.34 1.34 -0.68 0.68 0 0 Z " fill="#3B3B3B" transform="translate(438,365)"/>
<path d="M0 0 C2.051 0.033 4.102 0.065 6.152 0.098 C6.482 1.748 6.812 3.398 7.152 5.098 C6.492 5.098 5.832 5.098 5.152 5.098 C4.822 4.438 4.492 3.778 4.152 3.098 C2.128 2.446 2.128 2.446 0.152 2.098 C0.152 3.088 0.152 4.078 0.152 5.098 C2.462 5.758 4.772 6.418 7.152 7.098 C8.277 11.848 8.277 11.848 7.152 14.098 C3.777 14.848 3.777 14.848 0.152 15.098 C-0.838 14.438 -1.828 13.778 -2.848 13.098 C-2.848 11.778 -2.848 10.458 -2.848 9.098 C-2.188 9.098 -1.528 9.098 -0.848 9.098 C-0.373 9.593 0.101 10.088 0.59 10.598 C2.152 12.444 2.152 12.444 5.152 12.098 C5.152 11.108 5.152 10.118 5.152 9.098 C4.204 8.974 3.255 8.85 2.277 8.723 C-0.848 8.098 -0.848 8.098 -2.848 6.098 C-3.035 3.535 -3.035 3.535 -2.848 1.098 C-1.848 0.098 -1.848 0.098 0 0 Z " fill="#000000" transform="translate(388.84765625,364.90234375)"/>
<path d="M0 0 C-2.926 1.595 -5.922 2.695 -9.078 3.752 C-19.104 7.11 -28.767 11.219 -38.44 15.48 C-39.521 15.95 -40.601 16.419 -41.715 16.902 C-42.685 17.33 -43.656 17.758 -44.656 18.199 C-45.43 18.463 -46.203 18.728 -47 19 C-47.66 18.67 -48.32 18.34 -49 18 C-40.6 12.623 -32.247 8.936 -22.876 5.661 C-20.174 4.709 -17.496 3.693 -14.812 2.688 C-9.828 0.827 -5.337 -0.152 0 0 Z " fill="#FFFFFF" transform="translate(260,101)"/>
<path d="M0 0 C17.43 2.322 17.43 2.322 23 5 C23.33 5.99 23.66 6.98 24 8 C22.992 7.856 21.984 7.711 20.945 7.562 C18.441 7.205 15.935 6.851 13.43 6.5 C11.67 6.252 11.67 6.252 9.875 6 C8.697 5.835 7.519 5.67 6.305 5.5 C3.513 5.078 0.762 4.584 -2 4 C-2 3.34 -2 2.68 -2 2 C-1.34 2 -0.68 2 0 2 C0 1.34 0 0.68 0 0 Z " fill="#333333" transform="translate(293,104)"/>
<path d="M0 0 C6.762 0.409 12.672 1.57 19 4 C19 4.66 19 5.32 19 6 C14.707 7.2 11.616 6.723 7.312 5.688 C6.174 5.423 5.036 5.159 3.863 4.887 C1 4 1 4 -1 2 C-0.67 1.34 -0.34 0.68 0 0 Z " fill="#0B0B0B" transform="translate(279,110)"/>
<path d="M0 0 C3.3 0 6.6 0 10 0 C9.061 3.756 7.719 6.562 6 10 C5.314 12.235 5.314 12.235 5 14 C4.01 14 3.02 14 2 14 C2.99 10.7 3.98 7.4 5 4 C3.35 3.67 1.7 3.34 0 3 C0 2.01 0 1.02 0 0 Z " fill="#000000" transform="translate(414,365)"/>
<path d="M0 0 C2.782 2.782 2.332 4.549 2.375 8.438 C2.304 15.309 0.842 20.784 -2 27 C-2.33 27 -2.66 27 -3 27 C-3.054 24.896 -3.093 22.792 -3.125 20.688 C-3.148 19.516 -3.171 18.344 -3.195 17.137 C-3 14 -3 14 -1 11 C-0.542 8.261 -0.542 8.261 -0.375 5.312 C-0.3 4.319 -0.225 3.325 -0.148 2.301 C-0.099 1.542 -0.05 0.782 0 0 Z " fill="#8C8C8C" transform="translate(334,189)"/>
<path d="M0 0 C0.66 0.33 1.32 0.66 2 1 C2.862 4.231 3.306 6.225 2.062 9.375 C1.712 9.911 1.361 10.447 1 11 C0.01 10.34 -0.98 9.68 -2 9 C-2.312 5.5 -2.312 5.5 -2 2 C-1.34 1.34 -0.68 0.68 0 0 Z " fill="#FFFFFF" transform="translate(408,367)"/>
<path d="M0 0 C1.181 0.253 1.181 0.253 2.387 0.512 C3.022 0.776 3.658 1.04 4.312 1.312 C4.642 2.302 4.973 3.293 5.312 4.312 C0.444 3.716 -4.015 2.743 -8.688 1.312 C-5.463 -0.658 -3.663 -0.854 0 0 Z " fill="#707070" transform="translate(311.6875,107.6875)"/>
<path d="M0 0 C0 0.66 0 1.32 0 2 C-2.375 2.625 -2.375 2.625 -5 3 C-5.66 2.34 -6.32 1.68 -7 1 C-9.571 0.352 -9.571 0.352 -12 0 C-12 -0.33 -12 -0.66 -12 -1 C-7.542 -2.146 -4.156 -2.078 0 0 Z " fill="#606060" transform="translate(298,114)"/>
<path d="M0 0 C0.33 0.99 0.66 1.98 1 3 C-1.31 3.33 -3.62 3.66 -6 4 C-6 3.34 -6 2.68 -6 2 C-6.99 1.67 -7.98 1.34 -9 1 C-5.927 0.089 -3.199 -0.089 0 0 Z " fill="#424242" transform="translate(292,103)"/>
<path d="M0 0 C3.375 -0.125 3.375 -0.125 7 0 C7.66 0.66 8.32 1.32 9 2 C8.67 2.66 8.34 3.32 8 4 C5.69 4 3.38 4 1 4 C0.67 2.68 0.34 1.36 0 0 Z " fill="#000000" transform="translate(278,102)"/>
<path d="M0 0 C2.97 0.495 2.97 0.495 6 1 C4.812 2.5 4.812 2.5 3 4 C0.312 4.188 0.312 4.188 -2 4 C-2 3.34 -2 2.68 -2 2 C-1.34 2 -0.68 2 0 2 C0 1.34 0 0.68 0 0 Z " fill="#000000" transform="translate(293,104)"/>
</svg>
