<?xml version="1.0" encoding="UTF-8"?>
<!-- Generator: visioncortex VTracer 0.6.4 -->
<svg version="1.1" xmlns="http://www.w3.org/2000/svg" width="380" height="328">
<path d="M0 0 C125.4 0 250.8 0 380 0 C380 108.24 380 216.48 380 328 C254.6 328 129.2 328 0 328 C0 219.76 0 111.52 0 0 Z " fill="#FEFEFE" transform="translate(0,0)"/>
<path d="M0 0 C0.99 0.99 0.99 0.99 2 2 C0.482 3.087 -1.04 4.17 -2.562 5.25 C-3.409 5.853 -4.256 6.457 -5.129 7.078 C-7.704 8.802 -10.324 10.362 -13.025 11.879 C-16.974 14.12 -20.857 16.476 -24.75 18.812 C-25.644 19.349 -26.538 19.885 -27.459 20.438 C-32.685 23.582 -37.856 26.793 -42.98 30.102 C-47.215 32.764 -51.516 35.314 -55.812 37.875 C-62.94 42.126 -69.966 46.495 -76.922 51.02 C-81.22 53.785 -85.599 56.403 -90 59 C-89.403 76.223 -88.039 93.338 -86.5 110.5 C-86.159 114.345 -85.82 118.19 -85.481 122.036 C-85.272 124.402 -85.062 126.769 -84.85 129.135 C-82.786 152.356 -82.786 152.356 -83 164 C-82.313 163.977 -81.626 163.954 -80.918 163.93 C-80.017 163.912 -79.116 163.894 -78.188 163.875 C-77.294 163.852 -76.401 163.829 -75.48 163.805 C-73 164 -73 164 -70 166 C-68.917 169.553 -68.936 172.834 -69.121 176.52 C-69.169 177.541 -69.218 178.563 -69.268 179.615 C-69.324 180.67 -69.38 181.725 -69.438 182.812 C-69.49 183.887 -69.542 184.961 -69.596 186.068 C-69.725 188.713 -69.86 191.356 -70 194 C-68.68 194 -67.36 194 -66 194 C-66 194.66 -66 195.32 -66 196 C-67.32 196 -68.64 196 -70 196 C-69.979 196.711 -69.958 197.423 -69.937 198.156 C-69.853 201.374 -69.801 204.593 -69.75 207.812 C-69.7 209.492 -69.7 209.492 -69.648 211.205 C-69.636 212.278 -69.623 213.351 -69.609 214.457 C-69.588 215.447 -69.567 216.437 -69.546 217.456 C-70 220 -70 220 -71.774 221.846 C-74 223 -74 223 -78 223 C-77.783 224.321 -77.783 224.321 -77.562 225.668 C-77.377 226.829 -77.191 227.991 -77 229.188 C-76.814 230.336 -76.629 231.485 -76.438 232.668 C-76.065 235.504 -75.914 238.147 -76 241 C-76.66 241 -77.32 241 -78 241 C-78.99 232.09 -78.99 232.09 -80 223 C-82.64 223 -85.28 223 -88 223 C-89.32 221.68 -90.64 220.36 -92 219 C-92 212.07 -92 205.14 -92 198 C-112.13 198 -132.26 198 -153 198 C-153 204.6 -153 211.2 -153 218 C-153.66 218 -154.32 218 -155 218 C-155 211.4 -155 204.8 -155 198 C-175.46 198 -195.92 198 -217 198 C-217 204.93 -217 211.86 -217 219 C-218 222 -218 222 -220 223 C-222.672 223.134 -225.323 223.043 -228 223 C-228 224.32 -228 225.64 -228 227 C-228.66 227 -229.32 227 -230 227 C-230 225.68 -230 224.36 -230 223 C-231.093 223.082 -232.186 223.165 -233.312 223.25 C-237 223 -237 223 -238.712 221.323 C-240.269 218.515 -240.346 216.775 -240.293 213.578 C-240.283 212.553 -240.274 211.529 -240.264 210.473 C-240.239 209.409 -240.213 208.346 -240.188 207.25 C-240.174 206.171 -240.16 205.092 -240.146 203.98 C-240.111 201.32 -240.062 198.66 -240 196 C-240.66 196 -241.32 196 -242 196 C-242 195.34 -242 194.68 -242 194 C-241.34 194 -240.68 194 -240 194 C-240.016 193.264 -240.031 192.527 -240.048 191.769 C-240.11 188.429 -240.149 185.09 -240.188 181.75 C-240.213 180.591 -240.238 179.432 -240.264 178.238 C-240.273 177.123 -240.283 176.008 -240.293 174.859 C-240.309 173.833 -240.324 172.807 -240.341 171.749 C-239.948 168.577 -239.294 167.21 -237 165 C-233.313 164.75 -233.313 164.75 -230 165 C-230 162.69 -230 160.38 -230 158 C-229.34 158 -228.68 158 -228 158 C-228 160.31 -228 162.62 -228 165 C-226.742 164.938 -225.484 164.876 -224.188 164.812 C-222.043 164.707 -222.043 164.707 -220 165 C-219.01 165.99 -218.02 166.98 -217 168 C-217 175.59 -217 183.18 -217 191 C-176.08 191 -135.16 191 -93 191 C-92.67 183.08 -92.34 175.16 -92 167 C-88 164 -88 164 -84 164 C-84.33 163.01 -84.66 162.02 -85 161 C-85.249 158.854 -85.453 156.703 -85.633 154.551 C-85.688 153.9 -85.743 153.249 -85.801 152.578 C-85.984 150.418 -86.162 148.258 -86.34 146.098 C-86.468 144.58 -86.596 143.063 -86.725 141.546 C-87.064 137.534 -87.399 133.522 -87.733 129.51 C-88.327 122.393 -88.927 115.277 -89.527 108.16 C-89.591 107.402 -89.655 106.643 -89.721 105.862 C-90.702 94.229 -91.768 82.609 -93 71 C-93.583 71.647 -94.165 72.294 -94.766 72.961 C-97.427 75.39 -99.342 75.516 -102.863 75.789 C-104.987 75.999 -106.883 76.434 -108.938 77 C-121.903 80.335 -134.721 79.388 -147 74 C-147 74.66 -147 75.32 -147 76 C-147.743 75.691 -148.485 75.381 -149.25 75.062 C-152.164 73.872 -152.164 73.872 -156 73 C-156 64.75 -156 56.5 -156 48 C-155.34 48 -154.68 48 -154 48 C-154 54.93 -154 61.86 -154 69 C-151.03 69.33 -148.06 69.66 -145 70 C-145 70.99 -145 71.98 -145 73 C-137.689 74.666 -130.478 75.512 -123 76 C-122.505 74.515 -122.505 74.515 -122 73 C-119.674 72.31 -117.339 71.647 -115 71 C-111.755 69.205 -111.755 69.205 -108.562 67 C-107.327 66.183 -106.092 65.366 -104.855 64.551 C-104.22 64.129 -103.585 63.707 -102.931 63.272 C-99.777 61.194 -96.579 59.188 -93.375 57.188 C-92.718 56.776 -92.06 56.365 -91.383 55.941 C-85.984 52.579 -80.527 49.317 -75.062 46.062 C-67.972 41.838 -61.003 37.467 -54.1 32.945 C-48.849 29.516 -43.509 26.265 -38.114 23.071 C-33.986 20.619 -29.993 18.023 -26.027 15.32 C-23.962 13.975 -21.858 12.793 -19.688 11.625 C-14.767 8.97 -10.206 5.836 -5.602 2.672 C-3 1 -3 1 0 0 Z " fill="#131313" transform="translate(349,79)"/>
<path d="M0 0 C0.66 0 1.32 0 2 0 C2.708 7.356 3.147 14.609 3 22 C3.66 22 4.32 22 5 22 C5.382 23.656 5.714 25.325 6 27 C5.67 27.33 5.34 27.66 5 28 C4.928 29.853 4.916 31.708 4.938 33.562 C4.947 34.574 4.956 35.586 4.965 36.629 C4.976 37.411 4.988 38.194 5 39 C5.699 38.977 6.397 38.954 7.117 38.93 C8.027 38.912 8.937 38.894 9.875 38.875 C11.232 38.84 11.232 38.84 12.617 38.805 C15 39 15 39 17 41 C17.319 43.338 17.319 43.338 17.414 46.227 C17.453 47.258 17.491 48.289 17.531 49.352 C17.578 50.972 17.578 50.972 17.625 52.625 C17.664 53.713 17.702 54.801 17.742 55.922 C17.837 58.614 17.922 61.307 18 64 C19.98 64 21.96 64 24 64 C24 64.66 24 65.32 24 66 C21.03 66.495 21.03 66.495 18 67 C17.98 67.742 17.96 68.483 17.94 69.247 C17.845 72.603 17.735 75.958 17.625 79.312 C17.594 80.48 17.563 81.647 17.531 82.85 C17.473 84.527 17.473 84.527 17.414 86.238 C17.383 87.27 17.351 88.302 17.319 89.365 C17 92 17 92 15 95 C12.375 95.688 12.375 95.688 10 96 C10.142 98.667 10.289 101.333 10.438 104 C10.477 104.744 10.516 105.488 10.557 106.254 C10.837 111.207 11.335 116.083 12 121 C11.01 121 10.02 121 9 121 C8.245 112.644 7.864 104.39 8 96 C7.374 95.974 6.747 95.948 6.102 95.922 C4.876 95.837 4.876 95.837 3.625 95.75 C2.813 95.704 2.001 95.657 1.164 95.609 C-1 95 -1 95 -2.109 93.287 C-3.126 90.676 -3.316 88.594 -3.414 85.797 C-3.453 84.817 -3.491 83.838 -3.531 82.828 C-3.578 81.304 -3.578 81.304 -3.625 79.75 C-3.664 78.719 -3.702 77.688 -3.742 76.625 C-3.836 74.084 -3.922 71.542 -4 69 C-7.937 71.021 -9.66 72.488 -11.25 76.625 C-12.963 80.963 -12.963 80.963 -14 82 C-16.601 82.09 -19.176 82.115 -21.777 82.098 C-22.591 82.096 -23.406 82.095 -24.245 82.093 C-26.02 82.089 -27.795 82.083 -29.57 82.075 C-32.377 82.062 -35.184 82.056 -37.991 82.051 C-44.965 82.038 -51.939 82.013 -58.913 81.99 C-64.799 81.97 -70.685 81.954 -76.571 81.944 C-79.34 81.938 -82.109 81.925 -84.879 81.912 C-86.574 81.909 -88.269 81.905 -89.964 81.902 C-90.737 81.897 -91.511 81.892 -92.307 81.887 C-95.479 81.886 -97.967 81.989 -101 83 C-103.078 82.414 -103.078 82.414 -105 81 C-106.047 78.398 -106.047 78.398 -106.75 75.375 C-106.992 74.372 -107.235 73.369 -107.484 72.336 C-107.655 71.565 -107.825 70.794 -108 70 C-110.31 70 -112.62 70 -115 70 C-114.984 70.615 -114.969 71.23 -114.952 71.864 C-114.89 74.659 -114.851 77.454 -114.812 80.25 C-114.787 81.218 -114.762 82.186 -114.736 83.184 C-114.727 84.118 -114.717 85.053 -114.707 86.016 C-114.691 86.874 -114.676 87.733 -114.659 88.618 C-115.08 91.561 -115.901 92.91 -118 95 C-121.687 95.25 -121.687 95.25 -125 95 C-125 97.64 -125 100.28 -125 103 C-125.66 103 -126.32 103 -127 103 C-127 100.36 -127 97.72 -127 95 C-127.949 95.041 -128.898 95.082 -129.875 95.125 C-133 95 -133 95 -135 93 C-135.227 90.386 -135.227 90.386 -135.195 87.117 C-135.189 85.951 -135.182 84.784 -135.176 83.582 C-135.159 82.359 -135.142 81.135 -135.125 79.875 C-135.116 78.644 -135.107 77.413 -135.098 76.145 C-135.074 73.096 -135.041 70.048 -135 67 C-136.32 66.67 -137.64 66.34 -139 66 C-137.515 65.505 -137.515 65.505 -136 65 C-135.985 64.253 -135.971 63.506 -135.956 62.737 C-135.882 59.366 -135.785 55.996 -135.688 52.625 C-135.665 51.449 -135.642 50.274 -135.619 49.062 C-135.584 47.941 -135.548 46.82 -135.512 45.664 C-135.486 44.627 -135.459 43.59 -135.432 42.522 C-135.29 41.69 -135.147 40.857 -135 40 C-131.565 37.71 -130.015 37.822 -126 38 C-126 37.01 -126 36.02 -126 35 C-125.34 35.33 -124.68 35.66 -124 36 C-124.33 36.66 -124.66 37.32 -125 38 C-124.093 37.917 -123.185 37.835 -122.25 37.75 C-119 38 -119 38 -116.812 39.344 C-113.94 43.554 -114.578 47.786 -114.75 52.75 C-114.768 53.734 -114.786 54.717 -114.805 55.73 C-114.852 58.155 -114.917 60.577 -115 63 C-114.301 62.905 -113.603 62.809 -112.883 62.711 C-111.973 62.6 -111.063 62.489 -110.125 62.375 C-109.22 62.259 -108.315 62.143 -107.383 62.023 C-106.203 62.012 -106.203 62.012 -105 62 C-102.338 64.662 -101.842 67.355 -100.781 70.906 C-100.099 73.178 -100.099 73.178 -98 75 C-95.528 75.214 -93.167 75.304 -90.692 75.306 C-89.939 75.315 -89.186 75.323 -88.41 75.332 C-85.913 75.356 -83.416 75.364 -80.918 75.371 C-79.184 75.38 -77.45 75.389 -75.716 75.398 C-72.077 75.415 -68.438 75.423 -64.799 75.426 C-60.138 75.431 -55.478 75.469 -50.817 75.514 C-47.233 75.544 -43.65 75.551 -40.067 75.552 C-38.349 75.556 -36.631 75.569 -34.913 75.59 C-32.507 75.617 -30.102 75.612 -27.696 75.599 C-26.988 75.614 -26.28 75.629 -25.55 75.644 C-21.663 75.587 -20.118 75.097 -17.08 72.587 C-15.296 70.368 -14.303 68.92 -13.5 66.25 C-12 63 -12 63 -9.562 62 C-7.149 62 -5.31 62.372 -3 63 C-3.01 62.415 -3.021 61.83 -3.032 61.228 C-3.073 58.568 -3.099 55.909 -3.125 53.25 C-3.142 52.33 -3.159 51.409 -3.176 50.461 C-3.182 49.571 -3.189 48.682 -3.195 47.766 C-3.206 46.949 -3.216 46.132 -3.227 45.29 C-2.978 42.781 -2.257 41.166 -1 39 C0.32 39 1.64 39 3 39 C2.34 34.71 1.68 30.42 1 26 C-0.908 25.893 -2.816 25.786 -4.781 25.676 C-13.211 25.072 -21.512 23.861 -29.863 22.589 C-34.398 21.898 -38.935 21.225 -43.473 20.551 C-44.376 20.416 -45.279 20.282 -46.209 20.143 C-54.108 18.971 -62.018 17.904 -69.938 16.875 C-82.313 15.259 -94.646 13.422 -106.973 11.476 C-112.313 10.637 -117.657 9.819 -123 9 C-122.67 8.01 -122.34 7.02 -122 6 C-74.818 11.845 -74.818 11.845 -58.915 14.669 C-51.035 16.051 -43.127 17.01 -35.181 17.922 C-28.209 18.724 -21.259 19.623 -14.312 20.625 C-13.458 20.748 -12.603 20.871 -11.722 20.998 C-7.471 21.619 -3.239 22.293 1 23 C0.67 15.41 0.34 7.82 0 0 Z " fill="#0C0C0C" transform="translate(246,13)"/>
<path d="M0 0 C0.99 0.99 0.99 0.99 2 2 C0.482 3.087 -1.04 4.17 -2.562 5.25 C-3.409 5.853 -4.256 6.457 -5.129 7.078 C-7.704 8.802 -10.324 10.362 -13.025 11.879 C-16.974 14.12 -20.857 16.476 -24.75 18.812 C-25.644 19.349 -26.538 19.885 -27.459 20.438 C-32.685 23.582 -37.856 26.793 -42.98 30.102 C-47.215 32.764 -51.516 35.314 -55.812 37.875 C-62.94 42.126 -69.966 46.495 -76.922 51.02 C-81.22 53.785 -85.599 56.403 -90 59 C-89.403 76.223 -88.039 93.338 -86.5 110.5 C-86.159 114.345 -85.82 118.19 -85.481 122.036 C-85.272 124.402 -85.062 126.769 -84.85 129.135 C-82.781 152.419 -82.781 152.419 -83 163 C-85.727 160.273 -85.434 158.487 -85.746 154.665 C-85.802 154.014 -85.857 153.363 -85.915 152.692 C-86.097 150.527 -86.267 148.361 -86.438 146.195 C-86.564 144.677 -86.69 143.158 -86.818 141.639 C-87.154 137.62 -87.479 133.6 -87.802 129.579 C-88.315 123.221 -88.845 116.864 -89.371 110.506 C-89.561 108.209 -89.75 105.912 -89.938 103.615 C-90.835 92.73 -91.839 81.86 -93 71 C-93.583 71.647 -94.165 72.294 -94.766 72.961 C-97.427 75.39 -99.342 75.516 -102.863 75.789 C-104.987 75.999 -106.883 76.434 -108.938 77 C-121.903 80.335 -134.721 79.388 -147 74 C-147 74.66 -147 75.32 -147 76 C-147.743 75.691 -148.485 75.381 -149.25 75.062 C-152.164 73.872 -152.164 73.872 -156 73 C-156 64.75 -156 56.5 -156 48 C-155.34 48 -154.68 48 -154 48 C-154 54.93 -154 61.86 -154 69 C-151.03 69.33 -148.06 69.66 -145 70 C-145 70.99 -145 71.98 -145 73 C-137.689 74.666 -130.478 75.512 -123 76 C-122.505 74.515 -122.505 74.515 -122 73 C-119.674 72.31 -117.339 71.647 -115 71 C-111.755 69.205 -111.755 69.205 -108.562 67 C-107.327 66.183 -106.092 65.366 -104.855 64.551 C-104.22 64.129 -103.585 63.707 -102.931 63.272 C-99.777 61.194 -96.579 59.188 -93.375 57.188 C-92.718 56.776 -92.06 56.365 -91.383 55.941 C-85.984 52.579 -80.527 49.317 -75.062 46.062 C-67.972 41.838 -61.003 37.467 -54.1 32.945 C-48.849 29.516 -43.509 26.265 -38.114 23.071 C-33.986 20.619 -29.993 18.023 -26.027 15.32 C-23.962 13.975 -21.858 12.793 -19.688 11.625 C-14.767 8.97 -10.206 5.836 -5.602 2.672 C-3 1 -3 1 0 0 Z " fill="#000000" transform="translate(349,79)"/>
<path d="M0 0 C12.769 1.015 25.441 2.552 38.125 4.312 C52.19 6.263 66.268 8.013 80.375 9.625 C92.143 10.971 103.904 12.327 115.645 13.9 C124.359 15.063 133.085 16.127 141.812 17.188 C142.556 17.278 143.3 17.369 144.067 17.463 C146.176 17.72 148.285 17.976 150.395 18.23 C152.233 18.453 152.233 18.453 154.109 18.68 C156.846 19.037 156.846 19.037 159 19 C159.33 18.34 159.66 17.68 160 17 C160.99 17.99 160.99 17.99 162 19 C161.982 21.631 161.859 24.138 161.625 26.75 C161.511 28.161 161.399 29.573 161.289 30.984 C161.233 31.664 161.176 32.344 161.118 33.045 C161.011 34.824 161.041 36.609 161.086 38.391 C161 41 161 41 159 43 C157.85 38.91 157.889 34.968 157.938 30.75 C157.942 30.005 157.947 29.26 157.951 28.492 C157.963 26.661 157.981 24.831 158 23 C157.285 22.911 156.57 22.822 155.833 22.73 C147.441 21.684 139.05 20.637 130.659 19.59 C129.182 19.405 127.704 19.221 126.227 19.037 C106.548 16.581 86.87 14.116 67.205 11.548 C59.19 10.506 51.171 9.548 43.135 8.685 C37.763 8.104 32.424 7.366 27.078 6.574 C17.741 5.227 8.363 4.152 -1 3 C-0.67 2.01 -0.34 1.02 0 0 Z " fill="#000000" transform="translate(35,182)"/>
<path d="M0 0 C1.98 0 3.96 0 6 0 C6 0.99 6 1.98 6 3 C6.66 3 7.32 3 8 3 C8 2.01 8 1.02 8 0 C10.31 0 12.62 0 15 0 C16.305 2.61 16.113 4.527 16.098 7.445 C16.094 8.522 16.091 9.598 16.088 10.707 C16.08 11.835 16.071 12.963 16.062 14.125 C16.058 15.261 16.053 16.396 16.049 17.566 C16.037 20.378 16.021 23.189 16 26 C13.36 26 10.72 26 8 26 C8 18.74 8 11.48 8 4 C7.34 4 6.68 4 6 4 C6 11.26 6 18.52 6 26 C4.02 26 2.04 26 0 26 C0 17.42 0 8.84 0 0 Z " fill="#FFFFFF" transform="translate(113,247)"/>
<path d="M0 0 C1.98 0 3.96 0 6 0 C6 0.99 6 1.98 6 3 C6.66 3 7.32 3 8 3 C8 2.01 8 1.02 8 0 C10.64 0 13.28 0 16 0 C16.029 3.625 16.047 7.25 16.062 10.875 C16.071 11.908 16.079 12.94 16.088 14.004 C16.093 15.483 16.093 15.483 16.098 16.992 C16.106 18.359 16.106 18.359 16.114 19.753 C16 22 16 22 15 24 C12.69 24 10.38 24 8 24 C8 22.02 8 20.04 8 18 C7.34 18 6.68 18 6 18 C6 19.98 6 21.96 6 24 C4.334 24.043 2.666 24.041 1 24 C0 23 0 23 -0.114 20.775 C-0.108 19.817 -0.103 18.858 -0.098 17.871 C-0.094 16.837 -0.091 15.802 -0.088 14.736 C-0.08 13.648 -0.071 12.559 -0.062 11.438 C-0.058 10.345 -0.053 9.253 -0.049 8.127 C-0.037 5.418 -0.021 2.709 0 0 Z " fill="#FFFFFF" transform="translate(113,275)"/>
<path d="M0 0 C6.152 -0.098 6.152 -0.098 8 0 C9 1 9 1 9.114 3.5 C9.108 4.584 9.103 5.668 9.098 6.785 C9.094 7.955 9.091 9.125 9.088 10.33 C9.08 11.562 9.071 12.793 9.062 14.062 C9.058 15.298 9.053 16.534 9.049 17.807 C9.037 20.871 9.021 23.936 9 27 C7.02 27 5.04 27 3 27 C3 27.66 3 28.32 3 29 C4.98 29 6.96 29 9 29 C9 36.26 9 43.52 9 51 C6.525 51.495 6.525 51.495 4 52 C2.945 47.446 2.596 42.91 2.246 38.262 C2.181 37.422 2.116 36.583 2.049 35.717 C1.912 33.945 1.777 32.172 1.643 30.4 C1.439 27.707 1.229 25.015 1.018 22.322 C0.885 20.594 0.753 18.865 0.621 17.137 C0.527 15.943 0.527 15.943 0.432 14.724 C0.066 9.801 -0.056 4.937 0 0 Z " fill="#FFFFFF" transform="translate(267,246)"/>
<path d="M0 0 C7.875 0.875 7.875 0.875 9 2 C9.087 3.635 9.107 5.273 9.098 6.91 C9.094 7.9 9.091 8.889 9.088 9.908 C9.08 10.949 9.071 11.99 9.062 13.062 C9.058 14.107 9.053 15.152 9.049 16.229 C9.037 18.819 9.021 21.41 9 24 C8.01 24 7.02 24 6 24 C6 24.66 6 25.32 6 26 C6.99 26 7.98 26 9 26 C9 33.92 9 41.84 9 50 C6.525 50.495 6.525 50.495 4 51 C2.836 42.715 1.728 34.624 2.027 26.234 C2.09 24.043 2.09 24.043 1.518 22.158 C0.955 19.813 0.792 17.643 0.684 15.234 C0.642 14.345 0.6 13.455 0.557 12.539 C0.498 11.158 0.498 11.158 0.438 9.75 C0.394 8.814 0.351 7.878 0.307 6.914 C0.201 4.61 0.099 2.305 0 0 Z " fill="#FDFDFD" transform="translate(251,54)"/>
<path d="M0 0 C1.65 0 3.3 0 5 0 C6.231 2.463 6.072 4.28 6 7 C6.66 7.33 7.32 7.66 8 8 C7.67 5.69 7.34 3.38 7 1 C10.01 0.066 10.867 -0.044 14 1 C13.862 4.813 13.713 8.625 13.562 12.438 C13.523 13.526 13.484 14.615 13.443 15.736 C13.401 16.771 13.36 17.805 13.316 18.871 C13.261 20.309 13.261 20.309 13.205 21.775 C13 24 13 24 12 25 C10.169 25.099 8.334 25.13 6.5 25.125 C5.5 25.128 4.499 25.13 3.469 25.133 C1 25 1 25 0 24 C-0.087 22.219 -0.107 20.435 -0.098 18.652 C-0.094 17.573 -0.091 16.493 -0.088 15.381 C-0.08 14.245 -0.071 13.108 -0.062 11.938 C-0.058 10.797 -0.053 9.657 -0.049 8.482 C-0.037 5.655 -0.021 2.827 0 0 Z " fill="#FDFDFD" transform="translate(114,80)"/>
<path d="M0 0 C1.98 0 3.96 0 6 0 C6 1.98 6 3.96 6 6 C6.66 6.33 7.32 6.66 8 7 C7.722 5.824 7.722 5.824 7.438 4.625 C7 2 7 2 8 0 C9.65 0.33 11.3 0.66 13 1 C14.018 6.016 14.119 10.786 14.062 15.875 C14.058 16.659 14.053 17.442 14.049 18.25 C14.037 20.167 14.019 22.083 14 24 C12.02 24.33 10.04 24.66 8 25 C6.794 20.328 6.906 15.785 7 11 C6.67 11 6.34 11 6 11 C6 15.29 6 19.58 6 24 C4.02 24.33 2.04 24.66 0 25 C0 16.75 0 8.5 0 0 Z " fill="#FDFDFD" transform="translate(114,54)"/>
<path d="M0 0 C2.895 2.895 2.579 6.059 2.87 9.963 C2.972 11.197 2.972 11.197 3.077 12.457 C3.303 15.189 3.515 17.923 3.727 20.656 C3.88 22.558 4.034 24.459 4.189 26.36 C4.512 30.355 4.829 34.349 5.142 38.345 C5.541 43.445 5.951 48.544 6.366 53.643 C6.685 57.576 6.999 61.509 7.313 65.441 C7.462 67.32 7.613 69.199 7.765 71.077 C9.215 89.128 9.215 89.128 9 98 C6.273 95.273 6.566 93.487 6.254 89.665 C6.198 89.014 6.143 88.363 6.085 87.692 C5.903 85.527 5.733 83.361 5.562 81.195 C5.436 79.677 5.31 78.158 5.182 76.639 C4.846 72.62 4.521 68.6 4.198 64.579 C3.685 58.221 3.155 51.864 2.629 45.506 C2.439 43.209 2.25 40.912 2.062 38.615 C1.165 27.73 0.161 16.86 -1 6 C-1.616 6.652 -2.232 7.304 -2.866 7.976 C-5 10 -5 10 -7.141 10.391 C-10.07 10.195 -10.07 10.195 -13 10 C-10.22 6.209 -8.547 3.93 -3.875 2.875 C-2.596 2.586 -1.317 2.298 0 2 C0 1.34 0 0.68 0 0 Z " fill="#000000" transform="translate(257,144)"/>
<path d="M0 0 C2.31 0 4.62 0 7 0 C8.203 2.405 8.203 4.104 8.316 6.789 C8.379 8.201 8.379 8.201 8.443 9.641 C8.483 10.625 8.522 11.61 8.562 12.625 C8.606 13.618 8.649 14.61 8.693 15.633 C8.8 18.088 8.902 20.544 9 23 C2.848 23.098 2.848 23.098 1 23 C0 22 0 22 -0.114 19.867 C-0.108 18.951 -0.103 18.034 -0.098 17.09 C-0.094 16.1 -0.091 15.111 -0.088 14.092 C-0.08 13.051 -0.071 12.01 -0.062 10.938 C-0.058 9.893 -0.053 8.848 -0.049 7.771 C-0.037 5.181 -0.021 2.59 0 0 Z " fill="#FFFFFF" transform="translate(260,275)"/>
<path d="M0 0 C2.419 2.345 2.97 3.762 3.398 7.129 C3.391 8.262 3.383 9.395 3.375 10.562 C3.383 11.698 3.39 12.834 3.398 14.004 C3 17 3 17 1.695 18.879 C-1.165 20.77 -3.691 20.355 -7 20 C-8.937 18.75 -8.937 18.75 -10 17 C-10 15.68 -10 14.36 -10 13 C-8.68 13 -7.36 13 -6 13 C-5.67 13.66 -5.34 14.32 -5 15 C-4.01 15 -3.02 15 -2 15 C-2.33 14.01 -2.66 13.02 -3 12 C-3.99 11.67 -4.98 11.34 -6 11 C-6 10.01 -6 9.02 -6 8 C-4.68 8 -3.36 8 -2 8 C-2 6.68 -2 5.36 -2 4 C-5.118 4.646 -5.118 4.646 -6 7 C-7.32 7 -8.64 7 -10 7 C-9.688 4.625 -9.688 4.625 -9 2 C-5.53 -0.314 -4.082 -0.51 0 0 Z " fill="#000000" transform="translate(22,174)"/>
<path d="M0 0 C2.938 0.75 2.938 0.75 4.938 2.75 C5.384 6.771 5.618 8.888 3.062 12.125 C0.938 13.75 0.938 13.75 -1.062 14.75 C1.248 15.41 3.558 16.07 5.938 16.75 C5.608 17.74 5.277 18.73 4.938 19.75 C0.978 19.75 -2.983 19.75 -7.062 19.75 C-8.062 16.75 -8.062 16.75 -6.938 14.312 C-5.062 11.75 -5.062 11.75 -2.375 9.625 C-1.23 8.697 -1.23 8.697 -0.062 7.75 C-0.062 6.76 -0.062 5.77 -0.062 4.75 C-0.723 4.75 -1.382 4.75 -2.062 4.75 C-2.392 5.74 -2.723 6.73 -3.062 7.75 C-4.712 7.75 -6.363 7.75 -8.062 7.75 C-5.74 -0.469 -5.74 -0.469 0 0 Z " fill="#000000" transform="translate(366.0625,66.25)"/>
<path d="M0 0 C1.98 0 3.96 0 6 0 C9.358 7.765 8.785 16.168 6 24 C4.334 24.043 2.666 24.041 1 24 C0 23 0 23 -0.114 20.775 C-0.108 19.817 -0.103 18.858 -0.098 17.871 C-0.094 16.837 -0.091 15.802 -0.088 14.736 C-0.08 13.648 -0.071 12.559 -0.062 11.438 C-0.058 10.345 -0.053 9.253 -0.049 8.127 C-0.037 5.418 -0.021 2.709 0 0 Z " fill="#DBDBDB" transform="translate(113,275)"/>
<path d="M0 0 C1.32 0 2.64 0 4 0 C4.34 2.812 4.672 5.624 5 8.438 C5.095 9.221 5.191 10.004 5.289 10.811 C5.915 16.244 6.088 21.531 6 27 C3.69 27 1.38 27 -1 27 C-1.029 22.688 -1.047 18.375 -1.062 14.062 C-1.071 12.831 -1.079 11.599 -1.088 10.33 C-1.091 9.16 -1.094 7.99 -1.098 6.785 C-1.103 5.701 -1.108 4.617 -1.114 3.5 C-1 1 -1 1 0 0 Z " fill="#FFFFFF" transform="translate(261,246)"/>
<path d="M0 0 C1.65 0 3.3 0 5 0 C5.338 2.854 5.671 5.708 6 8.562 C6.095 9.362 6.191 10.162 6.289 10.986 C6.827 15.695 7.102 20.261 7 25 C5 25.043 3 25.041 1 25 C0 24 0 24 -0.114 21.683 C-0.108 20.683 -0.103 19.683 -0.098 18.652 C-0.094 17.573 -0.091 16.493 -0.088 15.381 C-0.08 14.245 -0.071 13.108 -0.062 11.938 C-0.058 10.797 -0.053 9.657 -0.049 8.482 C-0.037 5.655 -0.021 2.827 0 0 Z " fill="#FFFFFF" transform="translate(246,80)"/>
<path d="M0 0 C2.875 -0.188 2.875 -0.188 6 0 C8.452 3.678 8.704 6.727 8 11 C6.25 13.562 6.25 13.562 4 15 C1.875 14.938 1.875 14.938 0 14 C-2.468 10.299 -2.307 8.378 -2 4 C-1 1.562 -1 1.562 0 0 Z " fill="#000000" transform="translate(343,305)"/>
<path d="M0 0 C2 3.75 2 3.75 2 6 C1.362 6.266 0.724 6.531 0.066 6.805 C-0.76 7.158 -1.586 7.511 -2.438 7.875 C-3.261 8.223 -4.085 8.571 -4.934 8.93 C-7.157 9.824 -7.157 9.824 -8 12 C-10.363 12.887 -10.363 12.887 -13.312 13.688 C-14.278 13.959 -15.244 14.231 -16.238 14.512 C-18.952 14.992 -20.437 14.907 -23 14 C-22.143 13.49 -22.143 13.49 -21.27 12.969 C-14.141 8.708 -7.066 4.364 0 0 Z " fill="#FFFFFF" transform="translate(255,140)"/>
<path d="M0 0 C1.32 0 2.64 0 4 0 C4 6.6 4 13.2 4 20 C2.68 20 1.36 20 0 20 C0 15.71 0 11.42 0 7 C-1.65 7 -3.3 7 -5 7 C-4.34 5.68 -3.68 4.36 -3 3 C-2.01 3 -1.02 3 0 3 C0 2.01 0 1.02 0 0 Z " fill="#000000" transform="translate(108,10)"/>
<path d="M0 0 C1.726 3.015 2.281 5.305 2.414 8.766 C2.453 9.655 2.491 10.545 2.531 11.461 C2.562 12.381 2.593 13.302 2.625 14.25 C2.664 15.186 2.702 16.122 2.742 17.086 C2.836 19.39 2.922 21.695 3 24 C1.35 24 -0.3 24 -2 24 C-2.058 20.375 -2.094 16.75 -2.125 13.125 C-2.142 12.092 -2.159 11.06 -2.176 9.996 C-2.182 9.01 -2.189 8.024 -2.195 7.008 C-2.206 6.097 -2.216 5.185 -2.227 4.247 C-2 2 -2 2 0 0 Z " fill="#FFFFFF" transform="translate(248,54)"/>
<path d="M0 0 C3.062 0.188 3.062 0.188 5.062 2.188 C5.562 4.562 5.562 4.562 5.062 7.188 C2.062 9.5 2.062 9.5 -0.938 11.188 C2.033 11.683 2.033 11.683 5.062 12.188 C5.062 12.848 5.062 13.507 5.062 14.188 C1.762 14.188 -1.538 14.188 -4.938 14.188 C-4.75 11.875 -4.75 11.875 -3.938 9.188 C-2.296 8.147 -0.63 7.142 1.062 6.188 C1.062 5.197 1.062 4.207 1.062 3.188 C0.402 3.188 -0.257 3.188 -0.938 3.188 C-1.267 4.178 -1.598 5.168 -1.938 6.188 C-2.928 6.188 -3.918 6.188 -4.938 6.188 C-3.871 0.247 -3.871 0.247 0 0 Z " fill="#000000" transform="translate(334.9375,304.8125)"/>
<path d="M0 0 C0.66 0 1.32 0 2 0 C2 1.98 2 3.96 2 6 C4.31 6 6.62 6 9 6 C9 4.02 9 2.04 9 0 C9.66 0 10.32 0 11 0 C11 4.95 11 9.9 11 15 C10.01 15 9.02 15 8 15 C8 13.35 8 11.7 8 10 C5.03 9.505 5.03 9.505 2 9 C2 10.98 2 12.96 2 15 C1.34 15 0.68 15 0 15 C0 10.05 0 5.1 0 0 Z " fill="#000000" transform="translate(312,304)"/>
<path d="M0 0 C2.333 -0.042 4.667 -0.041 7 0 C8.811 1.811 8.215 4.498 8.25 6.938 C8.289 8.56 8.289 8.56 8.328 10.215 C8.22 11.134 8.112 12.053 8 13 C5 15 5 15 1.812 14.625 C0.42 14.316 0.42 14.316 -1 14 C-1.33 12.35 -1.66 10.7 -2 9 C-1.01 9 -0.02 9 1 9 C1 9.99 1 10.98 1 12 C2.32 11.67 3.64 11.34 5 11 C5 10.34 5 9.68 5 9 C4.01 8.67 3.02 8.34 2 8 C2 7.34 2 6.68 2 6 C3.32 5.67 4.64 5.34 6 5 C5.67 4.34 5.34 3.68 5 3 C4.01 3 3.02 3 2 3 C1.67 3.66 1.34 4.32 1 5 C0.34 5 -0.32 5 -1 5 C-0.67 3.35 -0.34 1.7 0 0 Z " fill="#000000" transform="translate(364,305)"/>
<path d="M0 0 C2.333 -0.042 4.667 -0.041 7 0 C8 1 8 1 8.25 3.875 C8 7 8 7 6.688 8.875 C5 10 5 10 2 10 C2 10.66 2 11.32 2 12 C3.98 12 5.96 12 8 12 C8 12.66 8 13.32 8 14 C4.7 14 1.4 14 -2 14 C-0.636 9.535 1.344 7.79 5 5 C5 4.34 5 3.68 5 3 C4.01 2.67 3.02 2.34 2 2 C1.67 3.32 1.34 4.64 1 6 C0.34 6 -0.32 6 -1 6 C-0.67 4.02 -0.34 2.04 0 0 Z " fill="#000000" transform="translate(353,305)"/>
<path d="M0 0 C0.66 0 1.32 0 2 0 C2.33 8.25 2.66 16.5 3 25 C2.01 25 1.02 25 0 25 C0 16.75 0 8.5 0 0 Z " fill="#000000" transform="translate(193,163)"/>
<path d="M0 0 C0.99 0.33 1.98 0.66 3 1 C3.625 3.812 3.625 3.812 4 7 C3.01 8.485 3.01 8.485 2 10 C1.01 9.67 0.02 9.34 -1 9 C-1.098 2.848 -1.098 2.848 -1 1 C-0.67 0.67 -0.34 0.34 0 0 Z " fill="#FFFFFF" transform="translate(345,307)"/>
<path d="M0 0 C0.33 0 0.66 0 1 0 C2.101 8.356 2.101 16.588 2 25 C1.01 25 0.02 25 -1 25 C-1.136 16.61 -0.755 8.356 0 0 Z " fill="#000000" transform="translate(194,235)"/>
<path d="M0 0 C0.99 0 1.98 0 3 0 C2.67 3.3 2.34 6.6 2 10 C1.34 10 0.68 10 0 10 C0 6.7 0 3.4 0 0 Z " fill="#000000" transform="translate(119,92)"/>
</svg>
