<?xml version="1.0" encoding="UTF-8"?>
<!-- Generator: visioncortex VTracer 0.6.4 -->
<svg version="1.1" xmlns="http://www.w3.org/2000/svg" width="224" height="224">
<path d="M0 0 C73.92 0 147.84 0 224 0 C224 73.92 224 147.84 224 224 C150.08 224 76.16 224 0 224 C0 150.08 0 76.16 0 0 Z " fill="#FEFEFE" transform="translate(0,0)"/>
<path d="M0 0 C7.044 5.75 11.537 13.269 14.918 21.605 C15.858 23.845 15.858 23.845 17.383 26.133 C21.942 34.118 22.183 44.062 22.312 53.059 C22.335 53.882 22.357 54.705 22.38 55.553 C22.358 61.735 20.733 66.303 17.875 71.746 C17.545 72.406 17.215 73.066 16.875 73.746 C14.258 74.562 14.258 74.562 11 75.309 C7.898 76.03 4.897 76.739 1.875 77.746 C-0.387 77.625 -0.387 77.625 -2.812 77.309 C-3.621 77.207 -4.429 77.105 -5.262 77 C-5.877 76.916 -6.491 76.832 -7.125 76.746 C-7.125 76.086 -7.125 75.426 -7.125 74.746 C-17.142 70.905 -36.234 80.535 -46.125 83.746 C-49.352 84.794 -52.581 85.837 -55.812 86.871 C-56.985 87.247 -56.985 87.247 -58.182 87.63 C-64.625 89.659 -71.121 91.294 -77.707 92.789 C-81.859 93.952 -85.895 95.114 -88.559 98.648 C-89.226 100.002 -89.893 101.356 -90.559 102.711 C-94.752 108.159 -102.192 110.021 -108.5 111.996 C-109.699 112.398 -109.699 112.398 -110.922 112.809 C-117.199 114.799 -123.364 115.998 -129.754 113.871 C-131.544 112.829 -133.335 111.788 -135.125 110.746 C-135.125 110.086 -135.125 109.426 -135.125 108.746 C-136.61 108.251 -136.61 108.251 -138.125 107.746 C-143.493 103.59 -146.272 96.358 -147.125 89.746 C-147.785 89.746 -148.445 89.746 -149.125 89.746 C-153.735 77.3 -157.937 59.614 -152.366 46.793 C-148.323 40.124 -141.107 36.943 -133.855 35.047 C-132.913 34.824 -131.971 34.601 -131 34.371 C-130.05 34.125 -129.1 33.879 -128.121 33.625 C-125.464 32.951 -122.799 32.345 -120.125 31.746 C-118.911 31.424 -117.696 31.102 -116.445 30.77 C-112.709 30.743 -112.226 31.217 -109.387 33.371 C-106.829 35.148 -105.687 35.788 -102.545 35.555 C-99.604 34.764 -96.791 33.81 -93.938 32.746 C-92.008 32.075 -90.077 31.408 -88.145 30.746 C-86.671 30.235 -86.671 30.235 -85.168 29.713 C-81.005 28.39 -76.782 27.49 -72.519 26.55 C-66.423 25.106 -60.473 23.192 -54.5 21.309 C-53.268 20.926 -52.035 20.544 -50.766 20.15 C-47.211 19.039 -43.666 17.901 -40.125 16.746 C-39.043 16.399 -37.961 16.051 -36.846 15.693 C-35.362 15.191 -35.362 15.191 -33.848 14.68 C-32.545 14.245 -32.545 14.245 -31.215 13.802 C-28.771 12.567 -28.192 11.755 -27.188 9.246 C-26.837 8.091 -26.486 6.936 -26.125 5.746 C-20.814 -0.685 -7.571 -4.468 0 0 Z " fill="#FCFCFC" transform="translate(179.125,53.25390625)"/>
<path d="M0 0 C7.044 5.75 11.537 13.269 14.918 21.605 C15.858 23.845 15.858 23.845 17.383 26.133 C21.942 34.118 22.183 44.062 22.312 53.059 C22.335 53.882 22.357 54.705 22.38 55.553 C22.358 61.735 20.733 66.303 17.875 71.746 C17.545 72.406 17.215 73.066 16.875 73.746 C14.258 74.562 14.258 74.562 11 75.309 C7.898 76.03 4.897 76.739 1.875 77.746 C-0.387 77.625 -0.387 77.625 -2.812 77.309 C-3.621 77.207 -4.429 77.105 -5.262 77 C-5.877 76.916 -6.491 76.832 -7.125 76.746 C-7.125 76.086 -7.125 75.426 -7.125 74.746 C-17.142 70.905 -36.234 80.535 -46.125 83.746 C-49.352 84.794 -52.581 85.837 -55.812 86.871 C-56.985 87.247 -56.985 87.247 -58.182 87.63 C-64.625 89.659 -71.121 91.294 -77.707 92.789 C-81.859 93.952 -85.895 95.114 -88.559 98.648 C-89.226 100.002 -89.893 101.356 -90.559 102.711 C-94.752 108.159 -102.192 110.021 -108.5 111.996 C-109.699 112.398 -109.699 112.398 -110.922 112.809 C-117.199 114.799 -123.364 115.998 -129.754 113.871 C-131.544 112.829 -133.335 111.788 -135.125 110.746 C-135.125 110.086 -135.125 109.426 -135.125 108.746 C-136.61 108.251 -136.61 108.251 -138.125 107.746 C-143.493 103.59 -146.272 96.358 -147.125 89.746 C-147.785 89.746 -148.445 89.746 -149.125 89.746 C-153.735 77.3 -157.937 59.614 -152.366 46.793 C-148.323 40.124 -141.107 36.943 -133.855 35.047 C-132.913 34.824 -131.971 34.601 -131 34.371 C-130.05 34.125 -129.1 33.879 -128.121 33.625 C-125.464 32.951 -122.799 32.345 -120.125 31.746 C-118.911 31.424 -117.696 31.102 -116.445 30.77 C-112.709 30.743 -112.226 31.217 -109.387 33.371 C-106.829 35.148 -105.687 35.788 -102.545 35.555 C-99.604 34.764 -96.791 33.81 -93.938 32.746 C-92.008 32.075 -90.077 31.408 -88.145 30.746 C-86.671 30.235 -86.671 30.235 -85.168 29.713 C-81.005 28.39 -76.782 27.49 -72.519 26.55 C-66.423 25.106 -60.473 23.192 -54.5 21.309 C-53.268 20.926 -52.035 20.544 -50.766 20.15 C-47.211 19.039 -43.666 17.901 -40.125 16.746 C-39.043 16.399 -37.961 16.051 -36.846 15.693 C-35.362 15.191 -35.362 15.191 -33.848 14.68 C-32.545 14.245 -32.545 14.245 -31.215 13.802 C-28.771 12.567 -28.192 11.755 -27.188 9.246 C-26.837 8.091 -26.486 6.936 -26.125 5.746 C-20.814 -0.685 -7.571 -4.468 0 0 Z M-13.125 3.746 C-12.135 5.231 -12.135 5.231 -11.125 6.746 C-12.115 6.086 -13.105 5.426 -14.125 4.746 C-17.25 4.579 -17.25 4.579 -20.125 4.746 C-20.455 5.736 -20.785 6.726 -21.125 7.746 C-22.115 8.076 -23.105 8.406 -24.125 8.746 C-24.416 9.825 -24.708 10.904 -25.008 12.016 C-26.134 14.869 -26.924 15.64 -29.683 17.099 C-33.093 18.34 -36.517 19.414 -40 20.434 C-41.165 20.798 -42.331 21.162 -43.531 21.537 C-45.882 22.268 -48.236 22.986 -50.594 23.69 C-55.127 25.046 -59.638 26.47 -64.149 27.895 C-67.267 28.787 -70.378 29.448 -73.562 30.059 C-83.651 32.097 -93.367 35.516 -103.125 38.746 C-102.738 39.268 -102.352 39.79 -101.953 40.328 C-97.823 46.165 -95.286 51.946 -93.125 58.746 C-80.221 55.047 -67.351 51.291 -54.611 47.056 C-49.582 45.414 -44.626 44.15 -39.414 43.23 C-36.994 42.718 -34.758 41.974 -32.438 41.121 C-28.473 39.717 -25.309 39.479 -21.125 39.746 C-22.115 40.241 -22.115 40.241 -23.125 40.746 C-22.908 41.612 -22.908 41.612 -22.688 42.496 C-22.167 44.579 -21.646 46.663 -21.125 48.746 C-18.155 48.251 -18.155 48.251 -15.125 47.746 C-15.125 47.086 -15.125 46.426 -15.125 45.746 C-16.115 45.086 -17.105 44.426 -18.125 43.746 C-15.125 44.746 -15.125 44.746 -14.125 46.746 C-13.465 46.746 -12.805 46.746 -12.125 46.746 C-12.434 45.529 -12.744 44.312 -13.062 43.059 C-14.424 37.015 -14.763 30.917 -15.125 24.746 C-15.785 25.406 -16.445 26.066 -17.125 26.746 C-16.795 24.436 -16.465 22.126 -16.125 19.746 C-9.375 21.621 -9.375 21.621 -7.125 22.746 C-6.077 24.721 -5.073 26.721 -4.125 28.746 C-3.465 28.746 -2.805 28.746 -2.125 28.746 C-1.939 29.705 -1.939 29.705 -1.75 30.684 C-1.544 31.694 -1.338 32.705 -1.125 33.746 C-0.979 34.494 -0.834 35.241 -0.684 36.012 C-0.52 36.811 -0.356 37.61 -0.188 38.434 C-0.034 39.201 0.119 39.968 0.277 40.758 C0.766 42.953 0.766 42.953 2.875 44.746 C-3.127 46.765 -9.146 48.723 -15.188 50.621 C-16.007 50.879 -16.826 51.136 -17.67 51.402 C-19.347 51.929 -21.023 52.455 -22.7 52.982 C-24.966 53.696 -27.229 54.417 -29.492 55.141 C-30.849 55.572 -32.206 56.003 -33.562 56.434 C-34.737 56.809 -35.911 57.184 -37.121 57.57 C-40.22 58.518 -43.341 59.289 -46.492 60.043 C-53.937 61.879 -61.211 64.201 -68.502 66.562 C-70.844 67.319 -73.19 68.063 -75.537 68.807 C-77.029 69.287 -78.52 69.768 -80.012 70.25 C-80.713 70.471 -81.414 70.692 -82.136 70.919 C-83.819 71.471 -85.475 72.102 -87.125 72.746 C-87.455 73.406 -87.785 74.066 -88.125 74.746 C-87.795 75.406 -87.465 76.066 -87.125 76.746 C-89.105 77.241 -89.105 77.241 -91.125 77.746 C-91.232 76.787 -91.339 75.828 -91.449 74.84 C-92.122 70.156 -93.505 65.746 -94.938 61.246 C-95.31 60.022 -95.31 60.022 -95.689 58.773 C-97.303 53.659 -99.299 49.307 -102.125 44.746 C-102.785 44.746 -103.445 44.746 -104.125 44.746 C-104.373 43.983 -104.62 43.22 -104.875 42.434 C-106.246 39.485 -107.36 38.388 -110.125 36.746 C-110.785 36.746 -111.445 36.746 -112.125 36.746 C-112.125 36.086 -112.125 35.426 -112.125 34.746 C-115.5 33.604 -117.519 33.902 -120.891 34.961 C-121.78 35.235 -122.67 35.509 -123.586 35.791 C-124.506 36.086 -125.427 36.38 -126.375 36.684 C-127.311 36.974 -128.247 37.265 -129.211 37.564 C-131.519 38.283 -133.823 39.01 -136.125 39.746 C-136.125 40.406 -136.125 41.066 -136.125 41.746 C-135.795 42.076 -135.465 42.406 -135.125 42.746 C-135.991 42.499 -136.858 42.251 -137.75 41.996 C-142.141 41.671 -143.804 42.978 -147.125 45.746 C-147.125 46.406 -147.125 47.066 -147.125 47.746 C-147.785 47.746 -148.445 47.746 -149.125 47.746 C-153.196 60.978 -151.392 76.007 -145.852 88.652 C-145.035 90.098 -144.182 91.523 -143.281 92.918 C-142.095 94.793 -141.338 96.609 -140.562 98.684 C-139.411 101.831 -139.411 101.831 -136.938 103.184 C-136.04 103.462 -136.04 103.462 -135.125 103.746 C-135.125 104.406 -135.125 105.066 -135.125 105.746 C-130.808 109.693 -127.473 111.787 -121.562 111.684 C-117.395 110.547 -116.356 109.381 -114.125 105.746 C-112.885 103.067 -112.885 103.067 -112.125 100.746 C-112.785 103.386 -113.445 106.026 -114.125 108.746 C-104.095 107.2 -104.095 107.2 -95.125 102.746 C-93.75 100.63 -93.75 100.63 -92.688 98.246 C-90.425 93.543 -88.049 92.209 -83.211 90.5 C-80.478 89.832 -77.792 89.348 -75.02 88.887 C-68.936 87.812 -63.261 85.964 -57.438 83.934 C-55.328 83.215 -53.219 82.498 -51.109 81.781 C-50.09 81.433 -49.071 81.085 -48.021 80.727 C-44.091 79.396 -40.146 78.116 -36.188 76.871 C-35.023 76.502 -33.859 76.134 -32.66 75.754 C-30.098 75.023 -27.619 74.412 -25.02 73.871 C-17.601 72.273 -10.418 69.785 -3.191 67.492 C-2.069 67.14 -0.946 66.788 0.211 66.426 C1.227 66.103 2.243 65.781 3.291 65.449 C5.875 64.746 5.875 64.746 8.875 64.746 C8.875 67.386 8.875 70.026 8.875 72.746 C12.936 71.362 15.26 69.81 17.25 66.059 C22.162 53.303 18.595 37.469 13.414 25.32 C11.984 22.406 10.467 19.574 8.875 16.746 C8.536 16.071 8.197 15.395 7.848 14.699 C5.399 9.948 2.166 5.933 -2.125 2.746 C-6.472 1.493 -9.305 1.148 -13.125 3.746 Z " fill="#000000" transform="translate(179.125,53.25390625)"/>
<path d="M0 0 C5.358 -0.523 8.847 0.724 13 4 C14.75 6.562 14.75 6.562 16 9 C16.455 9.42 16.91 9.84 17.379 10.273 C19.581 12.619 20.77 15.182 22.188 18.062 C22.717 19.126 23.247 20.189 23.793 21.285 C25 24 25 24 25 26 C25.66 26 26.32 26 27 26 C28.652 31.175 30.127 36.524 30 42 C27.72 45.42 26.985 45.611 23.188 46.688 C22.335 46.939 21.483 47.19 20.605 47.449 C17.989 48.002 15.665 48.1 13 48 C13 48.66 13 49.32 13 50 C2.626 53.444 2.626 53.444 -3 53 C-3 53.66 -3 54.32 -3 55 C-4.561 55.34 -6.124 55.671 -7.688 56 C-8.558 56.186 -9.428 56.371 -10.324 56.562 C-12.937 56.99 -15.358 57.076 -18 57 C-18 57.66 -18 58.32 -18 59 C-18.74 59.227 -19.481 59.453 -20.244 59.687 C-23.642 60.728 -27.04 61.77 -30.438 62.812 C-31.602 63.169 -32.767 63.525 -33.967 63.893 C-39.016 65.443 -44.047 67.002 -49.031 68.75 C-52.128 69.796 -54.761 70.345 -58.062 70.188 C-59.362 70.126 -60.661 70.064 -62 70 C-62 70.66 -62 71.32 -62 72 C-63.65 72 -65.3 72 -67 72 C-67.33 71.01 -67.66 70.02 -68 69 C-60.36 65.767 -52.556 63.121 -44.66 60.591 C-42.634 59.94 -40.61 59.282 -38.586 58.623 C-32.768 56.742 -26.962 54.935 -21.012 53.508 C-13.608 51.729 -6.415 49.316 0.812 46.938 C2.871 46.264 4.929 45.591 6.988 44.92 C8.843 44.315 10.697 43.706 12.55 43.097 C16.018 41.994 19.496 40.982 23 40 C22.34 39.34 21.68 38.68 21 38 C20.402 36.012 20.402 36.012 19.938 33.688 C19.692 32.489 19.692 32.489 19.441 31.266 C19.296 30.518 19.15 29.77 19 29 C18.691 27.484 18.691 27.484 18.375 25.938 C18.189 24.978 18.189 24.978 18 24 C16.515 23.505 16.515 23.505 15 23 C14.319 21.339 13.653 19.672 13 18 C9.812 15.875 7.735 15.498 4 15 C3.67 17.31 3.34 19.62 3 22 C3.66 21.34 4.32 20.68 5 20 C5.133 21.253 5.266 22.506 5.402 23.797 C5.581 25.448 5.759 27.099 5.938 28.75 C6.025 29.575 6.112 30.4 6.201 31.25 C6.288 32.049 6.375 32.848 6.465 33.672 C6.543 34.405 6.622 35.138 6.703 35.894 C6.997 37.981 7.451 39.966 8 42 C7.34 42 6.68 42 6 42 C5.34 41.01 4.68 40.02 4 39 C3.01 39 2.02 39 1 39 C2.32 39.66 3.64 40.32 5 41 C5 41.66 5 42.32 5 43 C3.02 43.33 1.04 43.66 -1 44 C-3.125 39.375 -3.125 39.375 -2 36 C-1.67 35.67 -1.34 35.34 -1 35 C-6.784 34.474 -11.142 35.892 -16.547 37.93 C-19.462 38.833 -22.135 39.399 -25.133 39.895 C-31.337 40.966 -37.162 42.821 -43.125 44.812 C-45.313 45.529 -47.502 46.244 -49.691 46.957 C-51.289 47.478 -51.289 47.478 -52.918 48.01 C-59.57 50.147 -66.283 52.078 -73 54 C-73.303 53.227 -73.606 52.453 -73.918 51.656 C-74.337 50.615 -74.756 49.573 -75.188 48.5 C-75.594 47.479 -76 46.458 -76.418 45.406 C-78.292 41.371 -80.569 37.718 -83 34 C-79.036 32.75 -75.071 31.505 -71.104 30.265 C-69.759 29.843 -68.414 29.42 -67.069 28.996 C-60.529 26.934 -54.032 24.908 -47.309 23.524 C-42.013 22.322 -36.827 20.676 -31.625 19.125 C-29.892 18.616 -29.892 18.616 -28.125 18.098 C-24.741 17.093 -21.368 16.058 -18 15 C-16.942 14.67 -15.883 14.34 -14.793 14 C-13.811 13.673 -12.828 13.345 -11.816 13.008 C-10.95 12.723 -10.083 12.438 -9.19 12.145 C-5.277 10.099 -4.415 7.044 -3 3 C-2.34 3 -1.68 3 -1 3 C-0.67 2.01 -0.34 1.02 0 0 Z " fill="#ECECEC" transform="translate(159,58)"/>
<path d="M0 0 C1.031 0.33 2.062 0.66 3.125 1 C5.012 1.557 5.012 1.557 6.938 2.125 C16.679 7.359 21.357 21.766 24.43 31.717 C27.474 42.815 28.14 55.412 23.125 66 C20.994 68.535 20.215 68.976 16.875 69.875 C11.774 70.045 8.159 68.64 4.188 65.438 C3.125 64 3.125 64 3.125 62 C2.506 61.756 1.888 61.513 1.25 61.262 C-1.357 59.714 -1.798 58.607 -2.875 55.812 C-4.017 52.902 -5.222 50.43 -6.859 47.742 C-9.168 43.768 -10.193 39.786 -11.125 35.312 C-11.293 34.524 -11.462 33.735 -11.635 32.922 C-13.512 23.594 -13.687 15.14 -10.875 6 C-10.215 6 -9.555 6 -8.875 6 C-8.875 5.34 -8.875 4.68 -8.875 4 C-5.873 1.498 -3.977 0 0 0 Z " fill="#EAEAEA" transform="translate(40.875,95)"/>
<path d="M0 0 C1.765 3.088 2 4.233 2 8 C-10.235 12.022 -22.389 15.997 -34.938 18.922 C-41.08 20.454 -47.046 22.657 -52.997 24.803 C-53.849 25.101 -54.701 25.4 -55.578 25.707 C-56.335 25.98 -57.092 26.253 -57.872 26.534 C-60 27 -60 27 -64 26 C-64.66 23.36 -65.32 20.72 -66 18 C-65.068 17.752 -65.068 17.752 -64.117 17.5 C-56.727 15.513 -49.393 13.358 -42.067 11.148 C-40.135 10.565 -38.202 9.985 -36.27 9.404 C-29.106 7.249 -21.953 5.066 -14.812 2.837 C-9.953 1.391 -5.096 0 0 0 Z " fill="#FFFFFF" transform="translate(153,96)"/>
<path d="M0 0 C3.635 -0.363 5.367 -0.513 8.266 1.836 C15.685 11.329 17.464 20.99 16 33 C14.48 35.887 14.48 35.887 13 38 C7.772 36.616 5.051 33.24 2 29 C-1.979 22.152 -2.812 12.791 -2 5 C-1 1.938 -1 1.938 0 0 Z " fill="#FFFFFF" transform="translate(38,113)"/>
<path d="M0 0 C5.19 0.247 9.991 1.677 14 5 C25.663 19.87 30.899 38.291 29 57 C28.072 61.783 26.83 65.78 23 69 C22.34 69 21.68 69 21 69 C21.507 66.422 22.034 63.858 22.641 61.301 C25.503 47.265 22.21 33.698 16 21 C15.62 20.107 15.239 19.213 14.848 18.293 C12.333 12.645 9.482 9.149 4.574 5.375 C3.795 4.694 3.795 4.694 3 4 C3 3.34 3 2.68 3 2 C1.35 2 -0.3 2 -2 2 C-1.34 1.34 -0.68 0.68 0 0 Z " fill="#B0B0B0" transform="translate(38,95)"/>
<path d="M0 0 C2.438 0.812 2.438 0.812 5 2 C5.33 2.99 5.66 3.98 6 5 C6.371 4.041 6.371 4.041 6.75 3.062 C8 1 8 1 9.875 0.062 C12 0 12 0 14.109 1.18 C16 3 16 3 16.461 5.41 C16.418 6.723 16.418 6.723 16.375 8.062 C16.356 9.379 16.356 9.379 16.336 10.723 C16 13 16 13 14 15 C10.875 15.125 10.875 15.125 8 15 C7.34 13.68 6.68 12.36 6 11 C5.34 12.32 4.68 13.64 4 15 C1.125 15.125 1.125 15.125 -2 15 C-4.393 12.607 -4.321 11.906 -4.375 8.625 C-4.319 5.147 -4.217 4.278 -2 1.438 C-1.34 0.963 -0.68 0.489 0 0 Z " fill="#000000" transform="translate(136,188)"/>
<path d="M0 0 C2.139 1.757 2.421 2.724 2.75 5.438 C2.75 6.428 2.75 7.418 2.75 8.438 C2.812 9.953 2.812 9.953 2.875 11.5 C2.75 14.438 2.75 14.438 0.75 16.438 C-2.188 16.812 -2.188 16.812 -5.25 16.438 C-7.25 14.812 -7.25 14.812 -8.25 12.438 C-7.375 9.438 -7.375 9.438 -6.25 6.438 C-6.526 4.15 -6.526 4.15 -7.25 2.438 C-2.879 -0.72 -2.879 -0.72 0 0 Z " fill="#000000" transform="translate(97.25,19.5625)"/>
<path d="M0 0 C3 1 3 1 4.352 3.004 C7.067 8.46 8.661 12.902 9 19 C6.69 19.33 4.38 19.66 2 20 C-0.583 13.635 -1.71 7.885 -1 1 C-0.67 0.67 -0.34 0.34 0 0 Z " fill="#FFFFFF" transform="translate(168,78)"/>
<path d="M0 0 C1.32 0.33 2.64 0.66 4 1 C5.789 4.54 6.78 8.21 8 12 C9.65 8.04 11.3 4.08 13 0 C13.99 0 14.98 0 16 0 C16 5.61 16 11.22 16 17 C15.34 17 14.68 17 14 17 C13.67 13.7 13.34 10.4 13 7 C11.68 10.3 10.36 13.6 9 17 C8.34 17 7.68 17 7 17 C5.68 13.37 4.36 9.74 3 6 C2.67 9.63 2.34 13.26 2 17 C1.34 17 0.68 17 0 17 C0 11.39 0 5.78 0 0 Z " fill="#000000" transform="translate(37,19)"/>
<path d="M0 0 C2.475 0.99 2.475 0.99 5 2 C5 2.66 5 3.32 5 4 C3.02 3.34 1.04 2.68 -1 2 C-1.33 3.32 -1.66 4.64 -2 6 C0.31 6.33 2.62 6.66 5 7 C6.334 13.425 6.334 13.425 4.875 15.938 C2.364 17.361 0.845 17.427 -2 17 C-4.222 15.338 -4.919 14.406 -5.469 11.66 C-5.554 4.582 -5.554 4.582 -2.5 1.375 C-1.675 0.921 -0.85 0.468 0 0 Z " fill="#000000" transform="translate(69,19)"/>
<path d="M0 0 C-0.021 0.928 -0.041 1.856 -0.062 2.812 C-0.158 6.023 -0.158 6.023 1 9 C0.062 11.188 0.062 11.188 -1 13 C-3.31 13 -5.62 13 -8 13 C-8 8.38 -8 3.76 -8 -1 C-4.377 -2.208 -3.359 -1.543 0 0 Z " fill="#000000" transform="translate(195,190)"/>
<path d="M0 0 C0.33 0 0.66 0 1 0 C1.33 2.31 1.66 4.62 2 7 C2.543 6.483 3.085 5.966 3.645 5.434 C4.36 4.775 5.075 4.116 5.812 3.438 C6.874 2.446 6.874 2.446 7.957 1.434 C8.968 0.724 8.968 0.724 10 0 C10.99 0.33 11.98 0.66 13 1 C11.35 2.32 9.7 3.64 8 5 C9.376 9.014 11.343 11.723 14 15 C14 15.66 14 16.32 14 17 C12.68 17 11.36 17 10 17 C8.516 15.25 8.516 15.25 7.25 13 C6.822 12.258 6.394 11.515 5.953 10.75 C5.481 9.884 5.481 9.884 5 9 C1.685 10.709 1.685 10.709 1.312 14.125 C1.209 15.074 1.106 16.023 1 17 C0.67 17 0.34 17 0 17 C0 11.39 0 5.78 0 0 Z " fill="#000000" transform="translate(22,19)"/>
<path d="M0 0 C2.688 1.438 2.688 1.438 5 3 C4.794 3.722 4.588 4.444 4.375 5.188 C3.748 8.029 3.748 8.029 5.125 10.562 C6 13 6 13 5 15.312 C3 17 3 17 0 17.562 C-3 17 -3 17 -4.875 14.5 C-5.246 13.675 -5.618 12.85 -6 12 C-5.01 12 -4.02 12 -3 12 C-2.67 12.66 -2.34 13.32 -2 14 C-0.68 14 0.64 14 2 14 C2 12.68 2 11.36 2 10 C1.01 9.67 0.02 9.34 -1 9 C-1 8.34 -1 7.68 -1 7 C-0.01 7 0.98 7 2 7 C2 6.01 2 5.02 2 4 C-0.31 4.33 -2.62 4.66 -5 5 C-4.188 3.062 -4.188 3.062 -3 1 C-2.01 0.67 -1.02 0.34 0 0 Z " fill="#000000" transform="translate(82,19)"/>
<path d="M0 0 C0.66 0 1.32 0 2 0 C2.33 1.98 2.66 3.96 3 6 C4.65 4.02 6.3 2.04 8 0 C8.99 0.33 9.98 0.66 11 1 C9.02 3.97 9.02 3.97 7 7 C7.66 7.949 8.32 8.898 9 9.875 C11 13 11 13 11 15 C10.01 15 9.02 15 8 15 C7.01 13.02 6.02 11.04 5 9 C4.01 9.495 4.01 9.495 3 10 C2.344 12.527 2.344 12.527 2 15 C1.34 15 0.68 15 0 15 C0 10.05 0 5.1 0 0 Z " fill="#000000" transform="translate(120,188)"/>
<path d="M0 0 C1 1 1 1 1.5 3.25 C0.894 6.585 0.184 6.913 -2.5 8.812 C-3.656 9.558 -4.82 10.293 -6 11 C-3.69 11.33 -1.38 11.66 1 12 C1 12.66 1 13.32 1 14 C-2.3 14 -5.6 14 -9 14 C-7.769 9.074 -5.806 8.159 -2 5 C-2 4.01 -2 3.02 -2 2 C-3.975 2.348 -3.975 2.348 -6 3 C-6.33 3.66 -6.66 4.32 -7 5 C-7.66 5 -8.32 5 -9 5 C-6.988 -0.605 -5.85 -1.5 0 0 Z " fill="#000000" transform="translate(184,189)"/>
<path d="M0 0 C1.32 0.33 2.64 0.66 4 1 C4 3.97 4 6.94 4 10 C2.02 10.99 2.02 10.99 0 12 C-2.313 8.53 -2.34 7.075 -2 3 C-1.34 2.01 -0.68 1.02 0 0 Z " fill="#FFFFFF" transform="translate(146,190)"/>
<path d="M0 0 C2.062 0.438 2.062 0.438 4 1 C5.25 8.625 5.25 8.625 3 12 C1.68 11.67 0.36 11.34 -1 11 C-1.027 9.354 -1.046 7.708 -1.062 6.062 C-1.074 5.146 -1.086 4.229 -1.098 3.285 C-1 1 -1 1 0 0 Z " fill="#FFFFFF" transform="translate(135,190)"/>
<path d="M0 0 C3.96 0 7.92 0 12 0 C11.34 1.65 10.68 3.3 10 5 C9.285 6.935 8.576 8.872 7.875 10.812 C7.345 12.276 7.345 12.276 6.805 13.77 C6.539 14.506 6.274 15.242 6 16 C5.01 16 4.02 16 3 16 C3.607 11.14 5.728 7.259 8 3 C5.36 2.67 2.72 2.34 0 2 C0 1.34 0 0.68 0 0 Z " fill="#000000" transform="translate(102,20)"/>
<path d="M0 0 C-0.33 1.65 -0.66 3.3 -1 5 C-5.791 6.629 -9.056 7.206 -14 6 C-13.67 5.01 -13.34 4.02 -13 3 C-10.82 2.051 -10.82 2.051 -8.125 1.312 C-7.241 1.061 -6.356 0.81 -5.445 0.551 C-3 0 -3 0 0 0 Z " fill="#FFFFFF" transform="translate(187,121)"/>
<path d="M0 0 C2.25 0.25 2.25 0.25 4 1 C4.687 3.491 5 5.379 5 8 C5.041 8.846 5.083 9.691 5.125 10.562 C5 13 5 13 3 15 C0.375 15.125 0.375 15.125 -2 15 C-2.66 13.68 -3.32 12.36 -4 11 C-3.34 11 -2.68 11 -2 11 C-2 11.66 -2 12.32 -2 13 C-0.68 13 0.64 13 2 13 C2 11.68 2 10.36 2 9 C1.34 8.34 0.68 7.68 0 7 C0.66 5.68 1.32 4.36 2 3 C0.68 3 -0.64 3 -2 3 C-2 3.66 -2 4.32 -2 5 C-2.66 4.67 -3.32 4.34 -4 4 C-2.25 1.938 -2.25 1.938 0 0 Z " fill="#000000" transform="translate(201,188)"/>
<path d="M0 0 C0 4.62 0 9.24 0 14 C-2.31 14 -4.62 14 -7 14 C-7.66 12.68 -8.32 11.36 -9 10 C-8.402 10.33 -7.804 10.66 -7.188 11 C-4.946 12.208 -4.946 12.208 -2 12 C-2 10.68 -2 9.36 -2 8 C-2.99 7.34 -3.98 6.68 -5 6 C-4.01 5.67 -3.02 5.34 -2 5 C-2 4.01 -2 3.02 -2 2 C-4.169 2.506 -6 3 -8 4 C-7.625 2.062 -7.625 2.062 -7 0 C-5 -1 -5 -1 0 0 Z " fill="#000000" transform="translate(173,189)"/>
<path d="M0 0 C0.33 0 0.66 0 1 0 C1.133 1.253 1.266 2.506 1.402 3.797 C1.581 5.448 1.759 7.099 1.938 8.75 C2.025 9.575 2.112 10.4 2.201 11.25 C2.288 12.049 2.375 12.848 2.465 13.672 C2.543 14.405 2.622 15.138 2.703 15.894 C2.997 17.981 3.451 19.966 4 22 C3.34 22 2.68 22 2 22 C-1.1 15.283 -1.589 9.368 -1 2 C-0.67 1.34 -0.34 0.68 0 0 Z " fill="#FFFFFF" transform="translate(163,78)"/>
<path d="M0 0 C2.125 0.375 2.125 0.375 4 1 C4 2.98 4 4.96 4 7 C2.35 6.67 0.7 6.34 -1 6 C-1.625 4.125 -1.625 4.125 -2 2 C-1.34 1.34 -0.68 0.68 0 0 Z " fill="#FFFFFF" transform="translate(68,27)"/>
<path d="M0 0 C0 4.95 0 9.9 0 15 C-0.66 15 -1.32 15 -2 15 C-2 11.7 -2 8.4 -2 5 C-2.66 5 -3.32 5 -4 5 C-4 3 -4 3 -2.562 1.375 C-1 0 -1 0 0 0 Z " fill="#000000" transform="translate(159,188)"/>
<path d="M0 0 C1.65 0.33 3.3 0.66 5 1 C4.67 2.65 4.34 4.3 4 6 C2.35 5.67 0.7 5.34 -1 5 C-0.67 3.35 -0.34 1.7 0 0 Z " fill="#FFFFFF" transform="translate(93,28)"/>
<path d="M0 0 C2.062 0.438 2.062 0.438 4 1 C4 2.32 4 3.64 4 5 C2.68 5.33 1.36 5.66 0 6 C-0.382 4.344 -0.714 2.675 -1 1 C-0.67 0.67 -0.34 0.34 0 0 Z " fill="#FFFFFF" transform="translate(189,196)"/>
<path d="M0 0 C1.339 0.783 2.671 1.577 4 2.375 C5.114 3.036 5.114 3.036 6.25 3.711 C6.827 4.136 7.405 4.562 8 5 C8 5.66 8 6.32 8 7 C6.02 7.33 4.04 7.66 2 8 C0.743 5.094 0 3.204 0 0 Z " fill="#FFFFFF" transform="translate(156,94)"/>
<path d="M0 0 C1.98 0.495 1.98 0.495 4 1 C4 1.99 4 2.98 4 4 C3.01 4.33 2.02 4.66 1 5 C0.34 4.67 -0.32 4.34 -1 4 C-0.67 2.68 -0.34 1.36 0 0 Z " fill="#FFFFFF" transform="translate(189,190)"/>
<path d="M0 0 C0.99 0.99 1.98 1.98 3 3 C2.67 3.66 2.34 4.32 2 5 C0.68 4.67 -0.64 4.34 -2 4 C-2 3.01 -2 2.02 -2 1 C-1.34 0.67 -0.68 0.34 0 0 Z " fill="#FFFFFF" transform="translate(95,21)"/>
</svg>
