<?xml version="1.0" encoding="UTF-8"?>
<!-- Generator: visioncortex VTracer 0.6.4 -->
<svg version="1.1" xmlns="http://www.w3.org/2000/svg" width="520" height="443">
<path d="M0 0 C171.6 0 343.2 0 520 0 C520 146.19 520 292.38 520 443 C348.4 443 176.8 443 0 443 C0 296.81 0 150.62 0 0 Z " fill="#FEFEFE" transform="translate(0,0)"/>
<path d="M0 0 C79.2 0 158.4 0 240 0 C240 66.33 240 132.66 240 201 C160.8 201 81.6 201 0 201 C-0.495 192.09 -0.495 192.09 -1 183 C-18.962 194.004 -18.962 194.004 -36.812 205.188 C-38.307 206.133 -39.802 207.078 -41.297 208.023 C-43.805 209.609 -46.311 211.198 -48.814 212.79 C-51.726 214.639 -54.643 216.476 -57.562 218.312 C-58.474 218.895 -59.386 219.477 -60.325 220.077 C-61.168 220.605 -62.011 221.132 -62.879 221.676 C-63.627 222.149 -64.376 222.623 -65.147 223.111 C-65.758 223.404 -66.37 223.698 -67 224 C-67.66 223.67 -68.32 223.34 -69 223 C-60.755 216.319 -52.436 209.772 -43.921 203.437 C-38.914 199.705 -33.987 195.885 -29.089 192.012 C-25.144 188.895 -21.176 185.811 -17.188 182.75 C-16.653 182.339 -16.118 181.929 -15.566 181.505 C-14.044 180.337 -12.522 179.168 -11 178 C-9.269 176.669 -7.54 175.336 -5.812 174 C-4.77 173.196 -4.77 173.196 -3.707 172.375 C-1.891 170.963 -1.891 170.963 0 169 C0.3 165.971 0.3 165.971 0.241 162.344 C0.243 161.308 0.243 161.308 0.246 160.252 C0.249 157.921 0.238 155.59 0.227 153.259 C0.226 151.567 0.227 149.875 0.228 148.182 C0.228 143.639 0.217 139.095 0.203 134.552 C0.191 130.293 0.191 126.034 0.189 121.775 C0.179 109.308 0.151 96.842 0.125 84.375 C0.084 56.531 0.043 28.688 0 0 Z " fill="#F4F4F4" transform="translate(256,21)"/>
<path d="M0 0 C7.628 -0.18 14.927 -0.258 22.335 1.833 C24.551 2.327 24.551 2.327 27.218 0.075 C31.29 -0.382 35.322 -0.086 39.343 0.638 C42.816 1.166 45.765 0.607 49.218 0.075 C50.208 0.57 50.208 0.57 51.218 1.075 C55.363 1.323 55.363 1.323 59.218 0.075 C62.371 -0.044 65.313 -0.124 68.406 0.556 C72.977 1.4 77.605 1.434 82.244 1.593 C88.002 1.859 88.002 1.859 90.218 4.075 C91.969 12.017 91.335 20.626 91.281 28.7 C91.276 29.991 91.272 31.281 91.267 32.61 C91.255 35.765 91.239 38.92 91.218 42.075 C93.59 30.138 94.289 18.973 91.218 7.075 C92.208 7.57 92.208 7.57 93.218 8.075 C95.528 8.281 97.841 8.441 100.156 8.575 C106.888 8.965 106.888 8.965 110.218 10.075 C115.14 10.377 119.969 10.161 124.843 9.45 C130.21 8.795 134.96 9.359 139.398 12.731 C143.455 17.955 142.554 26.786 142.093 33.2 C140.963 36.916 139.508 38.086 136.218 40.075 C133.149 41.082 130.549 41.123 127.339 40.919 C126.418 40.866 125.497 40.813 124.548 40.759 C123.117 40.668 123.117 40.668 121.656 40.575 C119.759 40.455 117.862 40.34 115.964 40.231 C115.126 40.178 114.287 40.124 113.423 40.069 C111.04 39.96 111.04 39.96 108.218 41.075 C104.669 41.347 101.121 41.521 97.566 41.696 C94.534 42.039 92.713 42.371 90.218 44.075 C89.485 46.09 89.485 46.09 89.218 48.075 C87.682 49.612 86.202 49.273 84.062 49.356 C82.774 49.413 82.774 49.413 81.46 49.47 C80.556 49.505 79.651 49.539 78.718 49.575 C73.492 49.783 68.318 50.027 63.125 50.669 C61.191 50.87 61.191 50.87 59.218 51.075 C58.888 50.745 58.558 50.415 58.218 50.075 C54.484 49.926 51.046 50.1 47.343 50.638 C46.312 50.782 45.281 50.926 44.218 51.075 C43.888 50.745 43.558 50.415 43.218 50.075 C42.208 50.22 41.197 50.364 40.156 50.513 C36.05 51.099 32.356 51.218 28.218 51.075 C27.888 50.745 27.558 50.415 27.218 50.075 C22.704 49.885 22.704 49.885 18.265 50.571 C16.046 51.118 14.072 51.229 11.789 51.268 C10.921 51.284 10.053 51.3 9.159 51.317 C5.219 51.361 1.278 51.402 -2.663 51.425 C-4.742 51.442 -6.822 51.469 -8.901 51.507 C-11.903 51.562 -14.904 51.584 -17.907 51.599 C-18.836 51.621 -19.765 51.644 -20.723 51.667 C-27.154 51.646 -27.154 51.646 -30.322 48.764 C-34.296 41.443 -34.119 33.896 -34.094 25.763 C-34.11 24.699 -34.126 23.634 -34.143 22.538 C-34.147 15.337 -33.235 8.872 -30.782 2.075 C-29.058 0.352 -26.73 0.844 -24.375 0.759 C-23.247 0.717 -22.118 0.675 -20.955 0.631 C-19.743 0.592 -18.531 0.553 -17.282 0.513 C-15.441 0.451 -15.441 0.451 -13.563 0.388 C-9.042 0.245 -4.521 0.122 0 0 Z " fill="#000000" transform="translate(206.78173828125,358.9248046875)"/>
<path d="M0 0 C6.395 0.698 6.395 0.698 9 2 C9 2.66 9 3.32 9 4 C8.01 4.33 7.02 4.66 6 5 C4.723 7.182 3.655 9.266 2.625 11.562 C2.321 12.222 2.017 12.882 1.704 13.561 C-0.825 19.224 -2.733 25.014 -4.402 30.983 C-4.883 32.671 -5.435 34.338 -6 36 C-6.99 36.495 -6.99 36.495 -8 37 C-6.362 27.993 -3.13 19.574 0 11 C-1.65 14.63 -3.3 18.26 -5 22 C-5.33 20.68 -5.66 19.36 -6 18 C-10.132 30.9 -13.956 43.588 -16 57 C-15.34 57.33 -14.68 57.66 -14 58 C-14.99 65.92 -15.98 73.84 -17 82 C-15.826 77.306 -15.636 72.815 -15.379 67.996 C-15 65 -15 65 -13 62 C-13.33 69.92 -13.66 77.84 -14 86 C-7.41 79.41 -6.528 72.252 -5.188 63.375 C-2.654 47.821 1.281 32.662 7.02 17.973 C8.113 14.658 8.597 11.461 9 8 C9.99 8 10.98 8 12 8 C13.705 6.06 13.705 6.06 15 4 C20.033 4.493 24.926 5.326 29.875 6.375 C30.986 6.61 32.097 6.844 33.242 7.086 C36 8 36 8 38 11 C38.539 13.66 38.734 16.293 39 19 C41.706 19.954 41.706 19.954 45 20 C46.453 18.709 47.904 17.416 49.332 16.098 C52.047 14.311 54.188 14.789 57.289 15.355 C58.184 15.568 59.078 15.781 60 16 C61.183 16.264 62.367 16.529 63.586 16.801 C73.452 19.272 73.452 19.272 75.871 22.484 C77 25 77 25 77.688 27.5 C79.47 30.896 81.906 32.002 85.223 33.789 C87 35 87 35 88 38 C88.582 45.674 87.54 52.794 85.812 60.25 C85.587 61.248 85.361 62.246 85.129 63.274 C83.245 71.385 81.089 79.258 78 87 C77.68 87.864 77.361 88.727 77.031 89.617 C75.899 92.027 75.114 93.372 73 95 C69.686 95.85 66.57 96.246 63.156 96.453 C59.404 97.103 57.897 98.622 55 101 C51.603 101.425 48.352 100.627 45 100 C43.867 99.811 42.734 99.621 41.566 99.426 C32.546 97.686 32.546 97.686 30.121 94.641 C29 92 29 92 29 88 C25.669 87.499 25.669 87.499 22 88 C19.557 90.831 19.557 90.831 18 94 C17.67 94.33 17.34 94.66 17 95 C9.733 94.939 1.726 93.753 -5 91 C-7.25 87.812 -7.25 87.812 -8 85 C-8.66 85.99 -9.32 86.98 -10 88 C-13.716 88.27 -16.457 88.181 -20 87 C-24.794 78.055 -21.812 65.937 -19.875 56.5 C-19.651 55.381 -19.428 54.261 -19.197 53.108 C-10.398 10.398 -10.398 10.398 0 0 Z " fill="#060606" transform="translate(171,244)"/>
<path d="M0 0 C4.091 1.267 7.741 2.789 11.5 4.836 C12.542 5.4 13.584 5.965 14.658 6.546 C15.761 7.15 16.864 7.753 18 8.375 C19.14 8.993 20.279 9.61 21.453 10.247 C27.15 13.335 32.828 16.454 38.496 19.594 C39.5 20.148 40.503 20.701 41.537 21.272 C43.439 22.323 45.337 23.38 47.232 24.443 C48.083 24.913 48.933 25.383 49.809 25.867 C50.919 26.488 50.919 26.488 52.052 27.121 C54.1 28.206 54.1 28.206 57 28 C58.596 25.747 59.875 23.386 61.207 20.969 C63 19 63 19 65.764 18.717 C69.325 19.028 71.421 19.889 74.562 21.562 C75.601 22.109 76.639 22.655 77.708 23.218 C78.794 23.806 79.881 24.394 81 25 C82.115 25.591 83.229 26.183 84.378 26.792 C91.443 30.559 98.44 34.43 105.328 38.512 C109.912 41.065 113.312 42.164 118.562 42.25 C124.651 42.648 129.014 44.595 134.309 47.527 C136.833 48.908 139.325 49.953 142 51 C143.779 51.857 145.551 52.732 147.312 53.625 C148.196 54.071 149.079 54.517 149.988 54.977 C150.652 55.314 151.316 55.652 152 56 C151.56 62.836 148.811 68.259 145.875 74.375 C142.707 81.045 139.681 87.654 137.184 94.606 C133.461 104.765 133.461 104.765 128.875 107 C122.295 108.112 116.194 103.554 111 100 C109.998 99.002 108.997 98.003 108 97 C105.621 95.627 103.204 94.351 100.766 93.086 C98.078 91.059 96.887 89.487 95.012 86.758 C90.438 80.658 84.252 77.832 77.562 74.5 C76.305 73.853 75.049 73.204 73.793 72.552 C71.328 71.273 68.858 70.003 66.384 68.74 C62.003 66.487 57.676 64.151 53.375 61.75 C52.738 61.404 52.1 61.058 51.444 60.701 C48.415 59.011 46.969 57.954 45 55 C45.288 50.585 46.536 47.643 49 44 C42.755 39.706 36.358 35.833 29.75 32.125 C27.897 31.069 26.044 30.011 24.191 28.953 C21.146 27.216 18.093 25.497 15.027 23.797 C8.139 19.833 1.539 15.379 -2 8 C-1.768 4.958 -1.362 2.724 0 0 Z " fill="#F4F4F4" transform="translate(20,288)"/>
<path d="M0 0 C2.339 0.287 4.674 0.619 7 1 C8.803 4.967 9.492 8.682 10 13 C9.67 9.7 9.34 6.4 9 3 C11.97 2.505 11.97 2.505 15 2 C20.912 12.526 19.212 32.002 16.438 43.445 C16.293 43.958 16.149 44.471 16 45 C14.298 44.722 14.298 44.722 12.562 44.438 C11.387 44.293 10.211 44.149 9 44 C8.67 44.33 8.34 44.66 8 45 C5 47 5 47 2.188 46.75 C-0.958 46.01 -3.958 45.086 -7 44 C-7 43.01 -7 42.02 -7 41 C-7.289 41.639 -7.577 42.279 -7.875 42.938 C-9 45 -9 45 -11 46 C-12.389 46.089 -13.782 46.118 -15.174 46.114 C-16.465 46.113 -16.465 46.113 -17.783 46.113 C-18.713 46.108 -19.643 46.103 -20.602 46.098 C-21.553 46.096 -22.505 46.095 -23.485 46.093 C-26.532 46.088 -29.578 46.075 -32.625 46.062 C-34.687 46.057 -36.75 46.053 -38.812 46.049 C-43.875 46.038 -48.938 46.021 -54 46 C-54 45.01 -54 44.02 -54 43 C-54.99 43.99 -55.98 44.98 -57 46 C-62.409 33.065 -62.307 18.554 -59 5 C-57.93 2.656 -57.93 2.656 -57 1 C-54.958 2.692 -54.082 3.637 -53.488 6.262 C-53.43 7.062 -53.372 7.863 -53.312 8.688 C-53.247 9.496 -53.181 10.304 -53.113 11.137 C-53.076 11.752 -53.039 12.366 -53 13 C-52.67 12.67 -52.34 12.34 -52 12 C-52.253 10.137 -52.577 8.283 -52.938 6.438 C-53.229 4.92 -53.229 4.92 -53.527 3.371 C-53.683 2.589 -53.839 1.806 -54 1 C-48.073 0.975 -42.147 0.957 -36.22 0.945 C-34.204 0.94 -32.187 0.933 -30.171 0.925 C-27.274 0.912 -24.377 0.907 -21.48 0.902 C-20.577 0.897 -19.674 0.892 -18.743 0.887 C-17.482 0.887 -17.482 0.887 -16.196 0.886 C-15.457 0.884 -14.717 0.882 -13.955 0.88 C-12 1 -12 1 -9 2 C-6.643 7.107 -6.449 12.464 -6 18 C-6.495 10.575 -6.495 10.575 -7 3 C-5.02 2.34 -3.04 1.68 -1 1 C-0.67 0.67 -0.34 0.34 0 0 Z " fill="#FFFFFF" transform="translate(236,361)"/>
<path d="M0 0 C79.2 0 158.4 0 240 0 C240 66.33 240 132.66 240 201 C160.8 201 81.6 201 0 201 C-0.495 192.09 -0.495 192.09 -1 183 C-18.962 194.004 -18.962 194.004 -36.812 205.188 C-38.307 206.133 -39.802 207.078 -41.297 208.023 C-43.805 209.609 -46.311 211.198 -48.814 212.79 C-51.726 214.639 -54.643 216.476 -57.562 218.312 C-58.474 218.895 -59.386 219.477 -60.325 220.077 C-61.168 220.605 -62.011 221.132 -62.879 221.676 C-63.627 222.149 -64.376 222.623 -65.147 223.111 C-65.758 223.404 -66.37 223.698 -67 224 C-67.66 223.67 -68.32 223.34 -69 223 C-60.755 216.319 -52.436 209.772 -43.921 203.437 C-38.914 199.705 -33.987 195.885 -29.089 192.012 C-25.144 188.895 -21.176 185.811 -17.188 182.75 C-16.653 182.339 -16.118 181.929 -15.566 181.505 C-14.044 180.337 -12.522 179.168 -11 178 C-9.269 176.669 -7.54 175.336 -5.812 174 C-4.77 173.196 -4.77 173.196 -3.707 172.375 C-1.891 170.963 -1.891 170.963 0 169 C0.3 165.971 0.3 165.971 0.241 162.344 C0.243 161.308 0.243 161.308 0.246 160.252 C0.249 157.921 0.238 155.59 0.227 153.259 C0.226 151.567 0.227 149.875 0.228 148.182 C0.228 143.639 0.217 139.095 0.203 134.552 C0.191 130.293 0.191 126.034 0.189 121.775 C0.179 109.308 0.151 96.842 0.125 84.375 C0.084 56.531 0.043 28.688 0 0 Z M3 2 C3 66.68 3 131.36 3 198 C80.55 198 158.1 198 238 198 C238 133.32 238 68.64 238 2 C160.45 2 82.9 2 3 2 Z " fill="#000000" transform="translate(256,21)"/>
<path d="M0 0 C4.091 1.267 7.741 2.789 11.5 4.836 C12.542 5.4 13.584 5.965 14.658 6.546 C15.761 7.15 16.864 7.753 18 8.375 C19.14 8.993 20.279 9.61 21.453 10.247 C27.15 13.335 32.828 16.454 38.496 19.594 C39.5 20.148 40.503 20.701 41.537 21.272 C43.439 22.323 45.337 23.38 47.232 24.443 C48.083 24.913 48.933 25.383 49.809 25.867 C50.919 26.488 50.919 26.488 52.052 27.121 C54.1 28.206 54.1 28.206 57 28 C58.596 25.747 59.875 23.386 61.207 20.969 C63 19 63 19 65.764 18.717 C69.325 19.028 71.421 19.889 74.562 21.562 C75.601 22.109 76.639 22.655 77.708 23.218 C78.794 23.806 79.881 24.394 81 25 C82.115 25.591 83.229 26.183 84.378 26.792 C91.443 30.559 98.44 34.43 105.328 38.512 C109.912 41.065 113.312 42.164 118.562 42.25 C124.651 42.648 129.014 44.595 134.309 47.527 C136.833 48.908 139.325 49.953 142 51 C143.779 51.857 145.551 52.732 147.312 53.625 C148.196 54.071 149.079 54.517 149.988 54.977 C150.652 55.314 151.316 55.652 152 56 C151.56 62.836 148.811 68.259 145.875 74.375 C142.707 81.045 139.681 87.654 137.184 94.606 C133.461 104.765 133.461 104.765 128.875 107 C122.295 108.112 116.194 103.554 111 100 C109.998 99.002 108.997 98.003 108 97 C105.621 95.627 103.204 94.351 100.766 93.086 C98.078 91.059 96.887 89.487 95.012 86.758 C90.438 80.658 84.252 77.832 77.562 74.5 C76.305 73.853 75.049 73.204 73.793 72.552 C71.328 71.273 68.858 70.003 66.384 68.74 C62.003 66.487 57.676 64.151 53.375 61.75 C52.738 61.404 52.1 61.058 51.444 60.701 C48.415 59.011 46.969 57.954 45 55 C45.288 50.585 46.536 47.643 49 44 C42.755 39.706 36.358 35.833 29.75 32.125 C27.897 31.069 26.044 30.011 24.191 28.953 C21.146 27.216 18.093 25.497 15.027 23.797 C8.139 19.833 1.539 15.379 -2 8 C-1.768 4.958 -1.362 2.724 0 0 Z M65 21 C60.163 26.924 56.629 34.02 53.062 40.75 C52.304 42.129 52.304 42.129 51.529 43.535 C51.057 44.426 50.584 45.317 50.098 46.234 C49.67 47.031 49.242 47.827 48.801 48.647 C47.808 51.564 47.975 53.11 49 56 C51.519 57.751 53.848 59.12 56.562 60.5 C57.345 60.917 58.128 61.335 58.934 61.764 C61.615 63.192 64.307 64.595 67 66 C70.206 67.691 73.407 69.389 76.603 71.098 C78.71 72.223 80.821 73.339 82.938 74.445 C88.964 77.654 94.013 80.481 97.469 86.602 C99.399 89.624 101.349 90.706 104.5 92.375 C105.459 92.898 106.418 93.422 107.406 93.961 C110.047 95.343 110.047 95.343 113 94 C114.405 91.77 115.636 89.591 116.836 87.254 C117.197 86.569 117.558 85.884 117.931 85.178 C119.088 82.977 120.231 80.77 121.375 78.562 C122.137 77.11 122.9 75.657 123.664 74.205 C127.527 66.845 131.328 59.457 135 52 C129.627 48.063 125.235 45.768 118.535 45.25 C110.268 44.201 103.733 40.842 96.562 36.875 C95.289 36.191 94.015 35.51 92.739 34.83 C89.147 32.909 85.573 30.956 82 29 C79.577 27.691 77.152 26.387 74.724 25.088 C72.963 24.143 71.21 23.184 69.457 22.223 C67.159 20.851 67.159 20.851 65 21 Z " fill="#020202" transform="translate(20,288)"/>
<path d="M0 0 C0.578 0.516 1.155 1.031 1.75 1.562 C3.878 3.265 3.878 3.265 6.25 2.688 C6.828 2.461 7.405 2.234 8 2 C8.66 2.99 9.32 3.98 10 5 C10.99 4.34 11.98 3.68 13 3 C13.578 3.516 14.155 4.031 14.75 4.562 C16.878 6.265 16.878 6.265 19.25 5.688 C20.116 5.347 20.116 5.347 21 5 C21 5.99 21 6.98 21 8 C22.32 7.34 23.64 6.68 25 6 C25.578 6.516 26.155 7.031 26.75 7.562 C28.878 9.265 28.878 9.265 31.25 8.688 C31.827 8.461 32.405 8.234 33 8 C33.99 9.485 33.99 9.485 35 11 C35.99 10.34 36.98 9.68 38 9 C38.99 9.495 38.99 9.495 40 10 C40.495 11.485 40.495 11.485 41 13 C41.33 12.34 41.66 11.68 42 11 C43.938 11.375 43.938 11.375 46 12 C46.495 12.99 46.495 12.99 47 14 C48.32 13.34 49.64 12.68 51 12 C51.495 13.98 51.495 13.98 52 16 C52.99 15.34 53.98 14.68 55 14 C55.99 14 56.98 14 58 14 C58.495 17.465 58.495 17.465 59 21 C58.01 21 57.02 21 56 21 C55.505 20.01 55.505 20.01 55 19 C53.68 21.31 52.36 23.62 51 26 C50 24 50 24 50 20 C49.505 18.515 49.505 18.515 49 17 C47.68 19.64 46.36 22.28 45 25 C44 22 44 22 45 19 C44.01 17.515 44.01 17.515 43 16 C41.68 18.31 40.36 20.62 39 23 C38 20 38 20 38 17 C37.505 15.515 37.505 15.515 37 14 C35.68 16.64 34.36 19.28 33 22 C32.25 19.002 31.589 16.031 31 13 C29.108 15.386 27.976 17.072 27 20 C26.34 20 25.68 20 25 20 C25.33 18.02 25.66 16.04 26 14 C24.68 13.34 23.36 12.68 22 12 C21.876 12.784 21.752 13.567 21.625 14.375 C21 17 21 17 19 19 C19.875 14.25 19.875 14.25 21 12 C20.34 12 19.68 12 19 12 C18.505 11.01 18.505 11.01 18 10 C16.68 12.31 15.36 14.62 14 17 C13 14 13 14 13 11 C12.505 9.515 12.505 9.515 12 8 C10.68 10.64 9.36 13.28 8 16 C6.891 12.674 6.458 9.469 6 6 C4.68 8.64 3.36 11.28 2 14 C1.34 13.67 0.68 13.34 0 13 C0.206 12.237 0.412 11.474 0.625 10.688 C1.334 7.781 1.334 7.781 -1 5 C-1.99 7.31 -2.98 9.62 -4 12 C-4.66 11.67 -5.32 11.34 -6 11 C-5.34 9.02 -4.68 7.04 -4 5 C-6.513 8.004 -7.681 10.604 -8.719 14.367 C-9.01 15.411 -9.301 16.455 -9.601 17.531 C-9.898 18.635 -10.194 19.738 -10.5 20.875 C-10.808 22.002 -11.116 23.128 -11.434 24.289 C-14.36 35.102 -17.036 45.812 -18 57 C-17.34 57 -16.68 57 -16 57 C-15.895 56.3 -15.789 55.601 -15.68 54.88 C-15.189 51.648 -14.689 48.418 -14.188 45.188 C-14.022 44.087 -13.856 42.987 -13.686 41.854 C-12.574 34.744 -11.057 27.897 -9 21 C-8.34 21.33 -7.68 21.66 -7 22 C-7.146 22.629 -7.292 23.257 -7.443 23.905 C-11.404 40.78 -11.404 40.78 -13 58 C-11.515 57.505 -11.515 57.505 -10 57 C-9.859 56.219 -9.718 55.437 -9.573 54.633 C-8.927 51.067 -8.276 47.502 -7.625 43.938 C-7.403 42.708 -7.182 41.479 -6.953 40.213 C-5.884 34.379 -4.798 28.656 -3 23 C-2.34 23.33 -1.68 23.66 -1 24 C-1.151 24.664 -1.303 25.328 -1.459 26.013 C-2.153 29.089 -2.826 32.169 -3.5 35.25 C-3.738 36.294 -3.977 37.338 -4.223 38.414 C-5.799 45.71 -6.301 52.543 -6 60 C-2.883 58.388 -2.883 58.388 -2.432 56.036 C-2.341 55.243 -2.25 54.45 -2.156 53.633 C-2.046 52.752 -1.936 51.871 -1.822 50.964 C-1.716 50.027 -1.609 49.09 -1.5 48.125 C0.661 31.22 0.661 31.22 3 25 C3.66 24.67 4.32 24.34 5 24 C4.89 24.525 4.781 25.049 4.668 25.59 C2.203 37.636 -0.23 49.709 -1 62 C-0.34 62 0.32 62 1 62 C1 61.34 1 60.68 1 60 C1.66 60 2.32 60 3 60 C3.158 58.943 3.158 58.943 3.32 57.864 C3.81 54.616 4.311 51.371 4.812 48.125 C4.978 47.016 5.144 45.908 5.314 44.766 C6.373 37.973 7.812 31.52 10 25 C10.976 28.092 10.975 30.152 10.258 33.301 C10.079 34.114 9.899 34.926 9.715 35.764 C9.52 36.605 9.326 37.446 9.125 38.312 C6.682 48.763 6.682 48.763 5.938 59.438 C5.958 60.613 5.979 61.789 6 63 C7.98 62.505 7.98 62.505 10 62 C9.942 60.088 9.942 60.088 9.883 58.137 C9.885 52.862 10.777 47.956 11.875 42.812 C12.049 41.949 12.223 41.086 12.402 40.197 C13.335 35.681 14.422 31.344 16 27 C17.07 30.209 16.941 31.225 16.258 34.43 C15.99 35.738 15.99 35.738 15.716 37.073 C15.423 38.46 15.423 38.46 15.125 39.875 C13.495 47.943 12.306 55.761 12 64 C12.99 63.67 13.98 63.34 15 63 C15.105 62.366 15.211 61.732 15.32 61.079 C19.212 37.821 19.212 37.821 22 28 C22.33 28 22.66 28 23 28 C22.492 33.684 21.604 39.216 20.5 44.812 C19.184 51.523 18.375 58.164 18 65 C19.32 65 20.64 65 22 65 C22.014 64.317 22.028 63.634 22.043 62.93 C22.576 51.659 25.33 40.925 28 30 C28.66 30 29.32 30 30 30 C29.849 30.689 29.697 31.378 29.541 32.089 C25.427 49.867 25.427 49.867 25 68 C25.99 67.67 26.98 67.34 28 67 C28.098 65.97 28.196 64.94 28.297 63.879 C29.105 55.978 30.207 48.242 32 40.5 C32.166 39.765 32.332 39.029 32.503 38.272 C32.933 36.496 33.458 34.744 34 33 C34.66 32.67 35.32 32.34 36 32 C35.849 32.73 35.697 33.46 35.541 34.212 C34.85 37.577 34.175 40.944 33.5 44.312 C33.262 45.46 33.023 46.608 32.777 47.791 C31.355 54.961 30.666 61.692 31 69 C31.99 68.67 32.98 68.34 34 68 C34.105 67.156 34.105 67.156 34.212 66.294 C35.66 54.872 37.37 43.963 41 33 C42.056 36.168 41.967 37.07 41.258 40.203 C41.079 41.019 40.899 41.835 40.715 42.676 C40.52 43.525 40.326 44.375 40.125 45.25 C37.684 55.733 37.684 55.733 36.938 66.438 C36.958 67.613 36.979 68.789 37 70 C38.32 70 39.64 70 41 70 C40.961 68.898 40.923 67.796 40.883 66.66 C40.885 61.453 41.851 56.527 42.875 51.438 C43.049 50.531 43.223 49.624 43.402 48.689 C44.378 43.709 45.521 38.855 47 34 C47.33 34 47.66 34 48 34 C47.517 39.508 46.657 44.778 45.5 50.188 C43.99 57.467 43.332 64.563 43 72 C44.32 72 45.64 72 47 72 C46.01 73.65 45.02 75.3 44 77 C41 76 41 76 39 74 C36.892 74.319 36.892 74.319 35 75 C34.34 74.01 33.68 73.02 33 72 C32.01 72.66 31.02 73.32 30 74 C29.588 73.484 29.175 72.969 28.75 72.438 C28.173 71.963 27.595 71.489 27 71 C24.837 71.228 24.837 71.228 23 72 C22.34 71.01 21.68 70.02 21 69 C20.01 69.66 19.02 70.32 18 71 C17.01 70.505 17.01 70.505 16 70 C16 69.01 16 68.02 16 67 C13.525 67.99 13.525 67.99 11 69 C10.01 68.01 9.02 67.02 8 66 C7.01 66.66 6.02 67.32 5 68 C4.588 67.484 4.175 66.969 3.75 66.438 C3.172 65.963 2.595 65.489 2 65 C-0.163 65.228 -0.163 65.228 -2 66 C-2.66 65.01 -3.32 64.02 -4 63 C-5.98 63.495 -5.98 63.495 -8 64 C-8.66 63.01 -9.32 62.02 -10 61 C-11.32 61.66 -12.64 62.32 -14 63 C-14.661 62.259 -15.323 61.518 -16.004 60.754 C-19.211 57.549 -22.861 55.826 -26.938 53.938 C-41.352 47.141 -41.352 47.141 -43.605 41.078 C-44.372 37.043 -43.827 32.995 -43 29 C-42.67 28.67 -42.34 28.34 -42 28 C-39.661 28.287 -37.326 28.619 -35 29 C-35.041 30.052 -35.082 31.104 -35.125 32.188 C-34.417 36.031 -34.417 36.031 -31.883 37.508 C-29.288 38.794 -26.693 39.936 -24 41 C-23.067 41.375 -22.133 41.75 -21.172 42.137 C-20.455 42.422 -19.738 42.706 -19 43 C-18.895 42.436 -18.789 41.872 -18.68 41.291 C-18.19 38.693 -17.689 36.096 -17.188 33.5 C-17.022 32.613 -16.856 31.726 -16.686 30.812 C-15.605 25.269 -14.133 20.231 -12 15 C-14.397 14.891 -16.789 14.812 -19.188 14.75 C-19.861 14.716 -20.535 14.683 -21.229 14.648 C-26.253 14.55 -28.319 15.734 -32 19 C-35.313 18.75 -35.313 18.75 -38 18 C-38.315 13.433 -38.408 10.864 -36.438 6.688 C-32.535 2.384 -29.467 1.191 -23.82 0.754 C-16.339 0.615 -9.288 1.334 -2 3 C-2 2.34 -2 1.68 -2 1 C-1.34 0.67 -0.68 0.34 0 0 Z " fill="#000000" transform="translate(102,239)"/>
<path d="M0 0 C5.821 0.166 11.408 1.475 17 3 C16.506 3.964 16.013 4.928 15.504 5.922 C14.857 7.198 14.209 8.474 13.562 9.75 C13.237 10.384 12.912 11.018 12.576 11.672 C10.989 14.813 9.859 17.563 9 21 C11.64 15.72 14.28 10.44 17 5 C18.32 5 19.64 5 21 5 C21.812 8.188 21.812 8.188 22 12 C20.353 13.686 18.684 15.35 17 17 C11.279 27.149 8.582 38.733 6 50 C5.751 51.083 5.502 52.166 5.246 53.281 C3.946 59.898 3.856 66.326 4.161 73.04 C4.303 77.817 3.641 80.993 1 85 C-0.485 85.495 -0.485 85.495 -2 86 C-4.232 71.938 -1.001 57.746 2 44 C1.884 44.559 1.768 45.117 1.649 45.693 C1.116 48.274 0.589 50.856 0.062 53.438 C-0.12 54.316 -0.302 55.194 -0.49 56.1 C-2.079 63.929 -3.155 71.557 -3.062 79.562 C-3.053 80.595 -3.044 81.628 -3.035 82.691 C-3.024 83.453 -3.012 84.215 -3 85 C-4.709 84.714 -6.417 84.421 -8.125 84.125 C-9.076 83.963 -10.028 83.8 -11.008 83.633 C-14.107 82.977 -17.015 82.054 -20 81 C-21.662 54.482 -14.504 23.964 -1 1 C-0.67 0.67 -0.34 0.34 0 0 Z " fill="#FFFFFF" transform="translate(187,251)"/>
<path d="M0 0 C1.693 1.497 3.385 2.995 5.078 4.492 C6.979 5.983 8.832 6.955 11 8 C10.561 9.464 10.122 10.927 9.684 12.391 C9.271 13.766 9.271 13.766 8.851 15.17 C8.323 16.928 7.791 18.684 7.254 20.439 C0.52 41.843 0.52 41.843 -2 64 C-4.26 65.13 -5.929 65.269 -8.438 65.5 C-11.215 65.756 -13.327 66.109 -16 67 C-16.661 55.366 -15.443 44.945 -12.855 33.583 C-11.384 27.082 -10.409 20.969 -10.238 14.293 C-10 12 -10 12 -8 9 C-7.34 9.33 -6.68 9.66 -6 10 C-4.02 6.7 -2.04 3.4 0 0 Z " fill="#FFFFFF" transform="translate(244,272)"/>
<path d="M0 0 C3.979 1.931 7.457 4.364 11 7 C12.22 7.903 12.22 7.903 13.465 8.824 C24.741 17.542 34.797 27.708 44.875 37.75 C45.767 38.637 46.659 39.524 47.577 40.438 C62 54.896 62 54.896 62 58 C58.053 57.468 56.601 55.775 54.086 52.785 C48.767 46.669 43.12 40.934 37.39 35.204 C35.629 33.442 33.877 31.671 32.125 29.9 C23.764 21.497 15.19 13.363 5.125 7 C4.261 6.443 3.398 5.886 2.508 5.312 C-0.034 3.982 -2.174 3.405 -5 3 C2.176 34.778 30.456 64.731 50 90 C49.67 90.66 49.34 91.32 49 92 C41.711 83.449 35.149 74.453 28.642 65.302 C27.091 63.127 25.526 60.963 23.957 58.801 C14.125 45.178 4.861 31.06 -2.75 16.062 C-3.073 15.431 -3.396 14.799 -3.729 14.148 C-5.535 10.453 -6.526 7.083 -7 3 C-11.085 4.486 -12.215 6.7 -14.125 10.5 C-16.834 15.834 -16.834 15.834 -19 18 C-19 16.68 -19 15.36 -19 14 C-23.708 16.113 -23.708 16.113 -27 20 C-30.492 45.506 4.164 81.739 18.434 100.895 C19.773 102.695 21.105 104.5 22.434 106.309 C28.223 114.138 34.363 121.665 40.53 129.198 C42.453 131.556 44.354 133.932 46.25 136.312 C48.957 139.706 51.688 143.078 54.438 146.438 C55.177 147.342 55.917 148.247 56.68 149.18 C58.302 151.151 59.93 153.114 61.57 155.07 C62.393 156.058 63.215 157.045 64.062 158.062 C64.817 158.961 65.571 159.859 66.348 160.785 C68 163 68 163 68 165 C59.486 161.419 53.774 151.541 48.237 144.397 C44.206 139.21 39.989 134.207 35.703 129.23 C29.888 122.374 24.562 115.123 19.25 107.875 C18.645 107.051 18.04 106.227 17.417 105.378 C16.19 103.707 14.964 102.036 13.738 100.364 C12.165 98.225 10.585 96.091 9 93.961 C-32.347 38.27 -32.347 38.27 -30 18 C-28.562 14.938 -28.562 14.938 -26 13 C-24.47 12.636 -22.926 12.327 -21.375 12.062 C-19.018 11.717 -19.018 11.717 -17 11 C-15.725 8.175 -15.725 8.175 -15 5 C-10.573 0.033 -6.597 -1.618 0 0 Z " fill="#000000" transform="translate(317,48)"/>
<path d="M0 0 C19.667 1.667 19.667 1.667 23 5 C23.237 17.352 20.778 29.497 14 40 C10.516 39.25 7.039 38.472 3.562 37.688 C2.569 37.474 1.576 37.261 0.553 37.041 C-0.392 36.825 -1.336 36.609 -2.309 36.387 C-3.183 36.193 -4.058 35.999 -4.959 35.8 C-5.632 35.536 -6.306 35.272 -7 35 C-8.195 31.415 -7.714 29.877 -6.855 26.23 C-6.591 25.094 -6.326 23.958 -6.053 22.787 C-5.767 21.599 -5.482 20.411 -5.188 19.188 C-4.914 18.011 -4.64 16.835 -4.357 15.623 C-3.108 10.322 -1.78 5.151 0 0 Z " fill="#FFFFFF" transform="translate(210,281)"/>
<path d="M0 0 C2.939 -0.135 5.872 -0.234 8.812 -0.312 C10.063 -0.375 10.063 -0.375 11.338 -0.439 C13.655 -0.486 15.729 -0.466 18 0 C24.427 7.144 22.468 21.813 22.158 30.921 C21.829 35.249 20.558 38.975 19 43 C12.73 43 6.46 43 0 43 C0.33 40.442 0.66 37.885 1 35.25 C2.455 23.124 2.001 12.078 0 0 Z " fill="#FFFFFF" transform="translate(275,363)"/>
<path d="M0 0 C4.498 1.687 8.729 3.817 13 6 C10.058 13.015 6.69 19.781 3.24 26.557 C2.362 28.287 1.489 30.021 0.619 31.756 C-0.825 34.635 -2.286 37.506 -3.75 40.375 C-4.21 41.297 -4.669 42.219 -5.143 43.168 C-5.585 44.028 -6.028 44.888 -6.484 45.773 C-6.873 46.541 -7.262 47.308 -7.663 48.099 C-9.239 50.339 -10.409 51.145 -13 52 C-15.797 50.883 -15.797 50.883 -18.75 49.125 C-20.227 48.263 -20.227 48.263 -21.734 47.383 C-22.482 46.926 -23.23 46.47 -24 46 C-23.395 41.944 -22.078 38.909 -20.121 35.316 C-19.533 34.23 -18.945 33.143 -18.339 32.023 C-17.711 30.881 -17.084 29.739 -16.438 28.562 C-15.798 27.388 -15.158 26.213 -14.519 25.037 C-1.878 1.878 -1.878 1.878 0 0 Z " fill="#E9E9E9" transform="translate(157,340)"/>
<path d="M0 0 C0.66 0.33 1.32 0.66 2 1 C1.854 1.629 1.708 2.257 1.557 2.905 C-2.404 19.78 -2.404 19.78 -4 37 C-2.515 36.505 -2.515 36.505 -1 36 C-0.859 35.219 -0.718 34.437 -0.573 33.633 C0.073 30.067 0.724 26.502 1.375 22.938 C1.597 21.708 1.818 20.479 2.047 19.213 C3.116 13.379 4.202 7.656 6 2 C6.66 2.33 7.32 2.66 8 3 C7.773 3.996 7.773 3.996 7.541 5.013 C6.847 8.089 6.174 11.169 5.5 14.25 C5.262 15.294 5.023 16.338 4.777 17.414 C3.201 24.71 2.699 31.543 3 39 C6.117 37.388 6.117 37.388 6.568 35.036 C6.659 34.243 6.75 33.45 6.844 32.633 C6.954 31.752 7.064 30.871 7.178 29.964 C7.284 29.027 7.391 28.09 7.5 27.125 C9.661 10.22 9.661 10.22 12 4 C12.66 3.67 13.32 3.34 14 3 C13.836 3.787 13.836 3.787 13.668 4.59 C11.203 16.636 8.77 28.709 8 41 C8.66 41 9.32 41 10 41 C10 40.34 10 39.68 10 39 C10.66 39 11.32 39 12 39 C12.158 37.943 12.158 37.943 12.32 36.864 C12.81 33.616 13.311 30.371 13.812 27.125 C13.978 26.016 14.144 24.908 14.314 23.766 C15.373 16.973 16.812 10.52 19 4 C19.976 7.092 19.975 9.152 19.258 12.301 C19.079 13.114 18.899 13.926 18.715 14.764 C18.52 15.605 18.326 16.446 18.125 17.312 C15.682 27.763 15.682 27.763 14.938 38.438 C14.958 39.613 14.979 40.789 15 42 C16.98 41.505 16.98 41.505 19 41 C18.961 39.725 18.923 38.45 18.883 37.137 C18.885 31.862 19.777 26.956 20.875 21.812 C21.049 20.949 21.223 20.086 21.402 19.197 C22.335 14.681 23.422 10.344 25 6 C26.07 9.209 25.941 10.225 25.258 13.43 C24.99 14.738 24.99 14.738 24.716 16.073 C24.423 17.46 24.423 17.46 24.125 18.875 C22.495 26.943 21.306 34.761 21 43 C22.485 42.505 22.485 42.505 24 42 C24.105 41.366 24.211 40.732 24.32 40.079 C28.212 16.821 28.212 16.821 31 7 C31.33 7 31.66 7 32 7 C31.492 12.684 30.604 18.216 29.5 23.812 C28.184 30.523 27.375 37.164 27 44 C28.32 44 29.64 44 31 44 C31.014 43.317 31.028 42.634 31.043 41.93 C31.576 30.659 34.33 19.925 37 9 C37.66 9 38.32 9 39 9 C38.849 9.689 38.697 10.378 38.541 11.089 C34.427 28.867 34.427 28.867 34 47 C34.99 46.67 35.98 46.34 37 46 C37.098 44.97 37.196 43.94 37.297 42.879 C38.105 34.978 39.207 27.242 41 19.5 C41.166 18.765 41.332 18.029 41.503 17.272 C41.933 15.496 42.458 13.744 43 12 C43.66 11.67 44.32 11.34 45 11 C44.849 11.73 44.697 12.46 44.541 13.212 C43.85 16.577 43.175 19.944 42.5 23.312 C42.262 24.46 42.023 25.608 41.777 26.791 C40.355 33.961 39.666 40.692 40 48 C40.99 47.67 41.98 47.34 43 47 C43.105 46.156 43.105 46.156 43.212 45.294 C44.66 33.872 46.37 22.963 50 12 C51.056 15.168 50.967 16.07 50.258 19.203 C50.079 20.019 49.899 20.835 49.715 21.676 C49.52 22.525 49.326 23.375 49.125 24.25 C46.684 34.733 46.684 34.733 45.938 45.438 C45.958 46.613 45.979 47.789 46 49 C47.32 49 48.64 49 50 49 C49.942 47.347 49.942 47.347 49.883 45.66 C49.885 40.453 50.851 35.527 51.875 30.438 C52.049 29.531 52.223 28.624 52.402 27.689 C53.378 22.709 54.521 17.855 56 13 C56.33 13 56.66 13 57 13 C56.517 18.508 55.657 23.778 54.5 29.188 C52.99 36.467 52.332 43.563 52 51 C53.32 51 54.64 51 56 51 C55.01 52.65 54.02 54.3 53 56 C50 55 50 55 48 53 C45.892 53.319 45.892 53.319 44 54 C43.34 53.01 42.68 52.02 42 51 C41.01 51.66 40.02 52.32 39 53 C38.588 52.484 38.175 51.969 37.75 51.438 C37.173 50.963 36.595 50.489 36 50 C33.837 50.228 33.837 50.228 32 51 C31.34 50.01 30.68 49.02 30 48 C29.01 48.66 28.02 49.32 27 50 C26.01 49.505 26.01 49.505 25 49 C25 48.01 25 47.02 25 46 C23.35 46.66 21.7 47.32 20 48 C19.01 47.01 18.02 46.02 17 45 C16.01 45.66 15.02 46.32 14 47 C13.588 46.484 13.175 45.969 12.75 45.438 C12.172 44.963 11.595 44.489 11 44 C8.837 44.228 8.837 44.228 7 45 C6.34 44.01 5.68 43.02 5 42 C3.02 42.495 3.02 42.495 1 43 C0.34 42.01 -0.32 41.02 -1 40 C-2.32 40.66 -3.64 41.32 -5 42 C-8.016 38.628 -8.016 38.628 -7.946 35.877 C-7.748 35.112 -7.551 34.347 -7.348 33.559 C-7.138 32.681 -6.928 31.803 -6.711 30.898 C-6.477 29.942 -6.242 28.985 -6 28 C-5.572 25.889 -5.154 23.775 -4.746 21.66 C-4.31 19.461 -3.874 17.262 -3.438 15.062 C-3.216 13.94 -2.995 12.818 -2.768 11.662 C-2.554 10.589 -2.341 9.516 -2.121 8.41 C-1.93 7.442 -1.738 6.474 -1.541 5.477 C-1 3 -1 3 0 0 Z " fill="#010101" transform="translate(93,260)"/>
<path d="M0 0 C1.176 3.529 1.222 6.763 1.25 10.438 C1.276 11.756 1.302 13.075 1.328 14.434 C0.99 18.108 0.637 19.492 -2 22 C-9.789 24.596 -17.593 23.073 -25 20 C-25.33 20.66 -25.66 21.32 -26 22 C-27.32 22 -28.64 22 -30 22 C-30 14.08 -30 6.16 -30 -2 C-28.68 -1.67 -27.36 -1.34 -26 -1 C-24.646 1.709 -24.935 4.009 -25 7 C-24.34 7 -23.68 7 -23 7 C-23.66 4.36 -24.32 1.72 -25 -1 C-7.111 -4.683 -7.111 -4.683 0 0 Z " fill="#FFFFFF" transform="translate(345,374)"/>
<path d="M0 0 C2.97 0.33 5.94 0.66 9 1 C8.636 1.767 8.273 2.534 7.898 3.324 C-0.719 22.35 -5.854 43.143 -7 64 C-9.64 64 -12.28 64 -15 64 C-18.65 56.7 -15.473 45.417 -13.875 37.812 C-13.652 36.73 -13.429 35.648 -13.199 34.533 C-10.585 22.365 -7.388 10.212 0 0 Z " fill="#FFFFFF" transform="translate(207,265)"/>
<path d="M0 0 C3.949 0.601 6.906 1.826 10.402 3.738 C11.448 4.306 12.493 4.873 13.571 5.458 C15.237 6.376 15.237 6.376 16.938 7.312 C18.678 8.263 20.418 9.214 22.159 10.165 C23.344 10.812 24.528 11.461 25.712 12.111 C29.648 14.27 33.603 16.391 37.57 18.492 C38.582 19.032 39.594 19.572 40.637 20.128 C42.557 21.151 44.481 22.169 46.408 23.179 C47.265 23.639 48.121 24.1 49.004 24.574 C49.755 24.972 50.506 25.37 51.28 25.78 C53 27 53 27 54 30 C52.927 32.517 51.452 34.668 50 37 C49.279 36.585 48.559 36.17 47.816 35.742 C46.743 35.126 45.669 34.51 44.562 33.875 C43.665 33.359 43.665 33.359 42.75 32.833 C38.44 30.365 34.104 27.952 29.75 25.562 C28.1 24.652 28.1 24.652 26.416 23.723 C24.213 22.509 22.007 21.302 19.797 20.101 C11.692 15.621 4.58 11.244 0 3 C0 2.01 0 1.02 0 0 Z " fill="#FFFFFF" transform="translate(21,292)"/>
<path d="M0 0 C4.884 1.127 9.749 2.295 14.59 3.598 C13.854 9.819 11.499 12.912 7.59 17.598 C6.971 18.443 6.352 19.289 5.715 20.16 C3.014 21.987 1.234 21.732 -1.906 21.16 C-2.733 20.975 -3.559 20.789 -4.41 20.598 C-5.536 20.35 -6.661 20.103 -7.82 19.848 C-11.024 19.123 -14.218 18.371 -17.41 17.598 C-17.41 16.608 -17.41 15.618 -17.41 14.598 C-14.44 15.093 -14.44 15.093 -11.41 15.598 C-13.885 14.608 -13.885 14.608 -16.41 13.598 C-15.49 8.629 -13.16 5.419 -9.785 1.723 C-5.857 -0.751 -4.402 -0.775 0 0 Z " fill="#FFFFFF" transform="translate(229.41015625,262.40234375)"/>
<path d="M0 0 C3.612 0.695 7.212 1.437 10.812 2.188 C11.837 2.384 12.861 2.581 13.916 2.783 C21.469 4.393 21.469 4.393 24.148 7.457 C25.602 11.798 26.422 15.383 25.25 19.875 C24 22 24 22 21 23 C17.934 22.656 14.985 21.83 12 21.062 C11.18 20.887 10.36 20.711 9.516 20.529 C3.793 19.047 3.793 19.047 1.77 16.375 C-0.486 11.113 -0.311 5.628 0 0 Z " fill="#FFFFFF" transform="translate(201,320)"/>
<path d="M0 0 C0.578 0.516 1.155 1.031 1.75 1.562 C3.878 3.265 3.878 3.265 6.25 2.688 C7.116 2.347 7.116 2.347 8 2 C8.99 3.485 8.99 3.485 10 5 C10.99 4.34 11.98 3.68 13 3 C13.578 3.516 14.155 4.031 14.75 4.562 C16.878 6.265 16.878 6.265 19.25 5.688 C20.116 5.347 20.116 5.347 21 5 C21 5.99 21 6.98 21 8 C22.32 7.34 23.64 6.68 25 6 C25.578 6.516 26.155 7.031 26.75 7.562 C28.878 9.265 28.878 9.265 31.25 8.688 C31.827 8.461 32.405 8.234 33 8 C33.66 8.99 34.32 9.98 35 11 C35.99 10.34 36.98 9.68 38 9 C38.66 9.33 39.32 9.66 40 10 C40.495 11.485 40.495 11.485 41 13 C41.33 12.34 41.66 11.68 42 11 C43.938 11.375 43.938 11.375 46 12 C46.495 12.99 46.495 12.99 47 14 C48.32 13.34 49.64 12.68 51 12 C51.495 13.98 51.495 13.98 52 16 C52.99 15.34 53.98 14.68 55 14 C55.99 14 56.98 14 58 14 C58.495 17.465 58.495 17.465 59 21 C58.01 21 57.02 21 56 21 C55.505 20.01 55.505 20.01 55 19 C53.68 21.31 52.36 23.62 51 26 C50 24 50 24 50 20 C49.505 18.515 49.505 18.515 49 17 C47.68 19.64 46.36 22.28 45 25 C44 22 44 22 45 19 C44.34 18.01 43.68 17.02 43 16 C41.68 18.31 40.36 20.62 39 23 C38 20 38 20 38 17 C37.505 15.515 37.505 15.515 37 14 C35.68 16.64 34.36 19.28 33 22 C32.25 19.002 31.589 16.031 31 13 C29.108 15.386 27.976 17.072 27 20 C26.34 20 25.68 20 25 20 C25.33 18.02 25.66 16.04 26 14 C24.68 13.34 23.36 12.68 22 12 C21.876 12.784 21.752 13.567 21.625 14.375 C21 17 21 17 19 19 C19.875 14.25 19.875 14.25 21 12 C20.34 12 19.68 12 19 12 C18.67 11.34 18.34 10.68 18 10 C16.68 12.31 15.36 14.62 14 17 C13 14 13 14 13 11 C12.67 10.01 12.34 9.02 12 8 C10.68 10.64 9.36 13.28 8 16 C6.891 12.674 6.458 9.469 6 6 C4.68 8.64 3.36 11.28 2 14 C1.34 13.67 0.68 13.34 0 13 C0.206 12.237 0.412 11.474 0.625 10.688 C1.334 7.781 1.334 7.781 -1 5 C-1.99 7.31 -2.98 9.62 -4 12 C-4.66 11.67 -5.32 11.34 -6 11 C-5.649 10.051 -5.299 9.102 -4.938 8.125 C-3.65 5.129 -3.65 5.129 -5 3 C-4.01 3 -3.02 3 -2 3 C-2 2.34 -2 1.68 -2 1 C-1.34 0.67 -0.68 0.34 0 0 Z " fill="#000000" transform="translate(102,239)"/>
<path d="M0 0 C0.66 0 1.32 0 2 0 C2.99 3.3 3.98 6.6 5 10 C5.66 10 6.32 10 7 10 C8.52 12.264 9.926 14.531 11.312 16.875 C17.038 26.293 23.419 35.165 30 44 C30.454 44.61 30.908 45.22 31.376 45.849 C36.778 53.069 42.468 60.014 48.332 66.859 C50.862 69.819 53.309 72.841 55.75 75.875 C58.765 79.582 61.886 83.008 65.32 86.324 C67.144 88.143 68.82 90.048 70.5 92 C76.049 98.842 76.049 98.842 83 104 C83 104.99 83 105.98 83 107 C79.358 105.465 77.036 103.28 74.262 100.492 C73.359 99.587 72.456 98.682 71.525 97.75 C71.059 97.277 70.592 96.804 70.111 96.316 C68.708 94.895 67.296 93.483 65.885 92.07 C60.721 86.873 55.726 81.598 51 76 C50.47 75.377 49.94 74.753 49.393 74.111 C36.071 58.345 23.612 41.886 12.152 24.716 C11.087 23.13 10 21.558 8.91 19.988 C4.629 13.644 2.069 7.362 0 0 Z " fill="#000000" transform="translate(363,104)"/>
<path d="M0 0 C3.96 0 7.92 0 12 0 C13.279 2.557 13.113 4.367 13.098 7.227 C13.094 8.258 13.091 9.289 13.088 10.352 C13.08 11.432 13.071 12.512 13.062 13.625 C13.058 14.713 13.053 15.801 13.049 16.922 C13.037 19.615 13.021 22.307 13 25 C9 27 9 27 0 26 C0 17.42 0 8.84 0 0 Z " fill="#FFFFFF" transform="translate(301,371)"/>
<path d="M0 0 C6.93 0 13.86 0 21 0 C21.33 0.66 21.66 1.32 22 2 C21.34 2 20.68 2 20 2 C20.642 3.814 21.289 5.626 21.938 7.438 C22.297 8.447 22.657 9.456 23.027 10.496 C23.769 12.903 23.769 12.903 25 14 C25.506 12.732 26.005 11.46 26.5 10.188 C26.778 9.48 27.057 8.772 27.344 8.043 C28.153 5.882 28.153 5.882 28 3 C27.34 2.67 26.68 2.34 26 2 C26.33 1.34 26.66 0.68 27 0 C29.64 0 32.28 0 35 0 C34.67 0.99 34.34 1.98 34 3 C33.34 3 32.68 3 32 3 C31.719 3.86 31.438 4.72 31.148 5.605 C30.043 8.874 28.882 12.099 27.625 15.312 C27.026 16.885 27.026 16.885 26.414 18.488 C25 21 25 21 22.912 21.657 C22.281 21.77 21.65 21.883 21 22 C20.819 21.465 20.639 20.93 20.453 20.379 C19.618 17.952 18.747 15.539 17.875 13.125 C17.591 12.283 17.308 11.441 17.016 10.574 C16.719 9.769 16.423 8.963 16.117 8.133 C15.855 7.389 15.594 6.646 15.324 5.879 C13.756 3.259 13.756 3.259 8 2 C8 7.94 8 13.88 8 20 C8.99 20 9.98 20 11 20 C11 20.66 11 21.32 11 22 C7.37 22 3.74 22 0 22 C0 21.34 0 20.68 0 20 C0.99 20 1.98 20 3 20 C3 14.06 3 8.12 3 2 C2.01 2 1.02 2 0 2 C0 1.34 0 0.68 0 0 Z " fill="#000000" transform="translate(15,19)"/>
<path d="M0 0 C2.875 -0.188 2.875 -0.188 6 0 C10.22 6.33 9.184 13.902 9.188 21.25 C9.2 22.44 9.212 23.63 9.225 24.855 C9.236 31.569 8.76 37.516 7 44 C3.535 44.495 3.535 44.495 0 45 C0.144 43.984 0.289 42.968 0.438 41.922 C2.408 27.559 1.903 14.338 0 0 Z " fill="#FFFFFF" transform="translate(267,362)"/>
<path d="M0 0 C1 3 1 3 0 7 C3.63 7.99 7.26 8.98 11 10 C7.617 11.128 6.232 10.818 2.812 10.062 C1.911 9.868 1.01 9.673 0.082 9.473 C-0.605 9.317 -1.292 9.161 -2 9 C-2 9.33 -2 9.66 -2 10 C0.749 10.672 3.499 11.338 6.25 12 C7.027 12.191 7.805 12.382 8.605 12.578 C9.36 12.759 10.114 12.939 10.891 13.125 C11.582 13.293 12.273 13.46 12.985 13.633 C15.315 14.12 15.315 14.12 19 14 C20.903 12.326 20.903 12.326 22.562 10.125 C24.677 7.497 26.151 5.899 29 4 C27.41 8.035 25.718 12.018 24 16 C23.34 15.01 22.68 14.02 22 13 C20.726 15.549 20.689 17.96 20.455 20.766 C19.413 33.096 16.839 44.974 14 57 C13.67 57 13.34 57 13 57 C13 54.69 13 52.38 13 50 C12.34 50.99 11.68 51.98 11 53 C3.093 52.355 -4.391 50.13 -12 48 C-12 48.66 -12 49.32 -12 50 C-11.322 50.11 -10.644 50.219 -9.945 50.332 C-3.454 51.438 2.74 52.963 9 55 C5.955 55.958 3.977 55.994 0.891 55.223 C0.137 55.039 -0.618 54.855 -1.395 54.666 C-2.172 54.467 -2.949 54.268 -3.75 54.062 C-4.543 53.867 -5.336 53.672 -6.152 53.471 C-8.104 52.989 -10.052 52.495 -12 52 C-12.33 53.98 -12.66 55.96 -13 58 C-13.33 58 -13.66 58 -14 58 C-14.299 50.624 -13.493 43.891 -11.938 36.688 C-11.61 35.142 -11.61 35.142 -11.276 33.566 C-5.763 8.645 -5.763 8.645 0 0 Z M-4 12 C-8.883 28.806 -8.883 28.806 -12 46 C-4.772 48.573 2.507 50.367 10 52 C16.298 40.3 18.489 30.216 19 17 C15.224 15.38 11.501 14.301 7.5 13.375 C6.397 13.115 5.293 12.854 4.156 12.586 C1.326 12.061 -1.138 11.954 -4 12 Z " fill="#000000" transform="translate(214,269)"/>
<path d="M0 0 C3.498 13.76 4.856 29.402 0 43 C-1.98 42.67 -3.96 42.34 -6 42 C-5.916 40.716 -5.832 39.432 -5.746 38.109 C-5.004 25.644 -5.13 13.454 -6 1 C-3.924 0.447 -2.156 0 0 0 Z " fill="#FFFFFF" transform="translate(266,363)"/>
<path d="M0 0 C2.97 0.495 2.97 0.495 6 1 C8.055 8.617 8.302 15.759 8.25 23.625 C8.258 24.814 8.265 26.002 8.273 27.227 C8.26 33.193 8.076 38.382 6 44 C3.525 44.495 3.525 44.495 1 45 C1.161 43.967 1.322 42.935 1.488 41.871 C2.265 35.62 2.184 29.353 2.188 23.062 C2.2 21.839 2.212 20.615 2.225 19.354 C2.236 12.57 1.788 6.55 0 0 Z " fill="#FFFFFF" transform="translate(252,362)"/>
<path d="M0 0 C0.33 0 0.66 0 1 0 C2.584 16.69 -3.13 34.929 -10 50 C-10.66 50.66 -11.32 51.32 -12 52 C-11.591 42.619 -10.058 33.948 -7.688 24.875 C-7.392 23.69 -7.096 22.506 -6.791 21.285 C-4.936 14.015 -2.717 6.994 0 0 Z " fill="#FFFFFF" transform="translate(255,283)"/>
<path d="M0 0 C0.76 -0.004 1.52 -0.008 2.303 -0.012 C6.231 -0.005 9.852 0.161 13.688 1.125 C13.358 2.115 13.028 3.105 12.688 4.125 C9.388 4.125 6.088 4.125 2.688 4.125 C5.328 4.785 7.968 5.445 10.688 6.125 C10.688 7.115 10.688 8.105 10.688 9.125 C9.758 9.03 8.829 8.934 7.871 8.836 C-1.436 7.857 -1.436 7.857 -10.312 10.125 C-10.642 10.785 -10.972 11.445 -11.312 12.125 C-12.632 12.125 -13.953 12.125 -15.312 12.125 C-14.86 7.258 -13.667 4.683 -10.312 1.125 C-7.077 -0.493 -3.55 -0.018 0 0 Z " fill="#FFFFFF" transform="translate(81.3125,242.875)"/>
<path d="M0 0 C0.99 0 1.98 0 3 0 C3.248 1.217 3.495 2.434 3.75 3.688 C4.913 6.892 5.73 7.844 8.73 9.574 C11.793 10.816 14.878 11.919 18 13 C19.346 13.641 20.686 14.297 22 15 C22 17.64 22 20.28 22 23 C14.5 20.935 6.004 18.047 1.223 11.605 C-0.072 8.846 -0.323 7.203 -0.188 4.188 C-0.16 3.397 -0.133 2.607 -0.105 1.793 C-0.071 1.201 -0.036 0.61 0 0 Z " fill="#FFFFFF" transform="translate(61,270)"/>
<path d="M0 0 C10.457 1.807 10.457 1.807 15.438 3.125 C19.036 4.159 19.036 4.159 23 4 C24.774 2.08 24.774 2.08 26 0 C25.67 2.97 25.34 5.94 25 9 C24.34 9 23.68 9 23 9 C22.67 8.34 22.34 7.68 22 7 C19.792 6.414 19.792 6.414 17.125 6.062 C11.286 5.106 5.678 3.647 0 2 C0 1.34 0 0.68 0 0 Z " fill="#FFFFFF" transform="translate(202,317)"/>
</svg>
