<?xml version="1.0" encoding="UTF-8"?>
<!-- Generator: visioncortex VTracer 0.6.4 -->
<svg version="1.1" xmlns="http://www.w3.org/2000/svg" width="325" height="311">
<path d="M0 0 C107.25 0 214.5 0 325 0 C325 102.63 325 205.26 325 311 C217.75 311 110.5 311 0 311 C0 208.37 0 105.74 0 0 Z " fill="#FAFAFA" transform="translate(0,0)"/>
<path d="M0 0 C0.33 0 0.66 0 1 0 C0.983 1.282 0.983 1.282 0.965 2.59 C0.956 3.695 0.947 4.799 0.938 5.938 C0.92 7.591 0.92 7.591 0.902 9.277 C0.687 11.914 0.687 11.914 2 13 C2.156 14.34 2.25 15.688 2.316 17.035 C2.379 18.248 2.379 18.248 2.443 19.486 C2.483 20.336 2.522 21.187 2.562 22.062 C2.606 22.917 2.649 23.771 2.693 24.65 C2.8 26.767 2.9 28.883 3 31 C4.183 30.651 5.367 30.301 6.586 29.941 C21.086 25.731 33.957 24.853 49 25 C49 25.66 49 26.32 49 27 C47.403 27.073 47.403 27.073 45.773 27.148 C28.369 27.893 28.369 27.893 11.59 32.164 C8.753 33.08 5.892 33.678 2.975 34.282 C-7.044 36.39 -15.652 39.661 -23.734 46.219 C-26 48 -26 48 -28 48 C-28 48.66 -28 49.32 -28 50 C-43.635 61.222 -61.552 65.713 -80.101 69.42 C-81.8 69.764 -83.494 70.131 -85.188 70.5 C-86.068 70.675 -86.948 70.851 -87.855 71.031 C-90.784 72.354 -91.597 74.184 -93 77 C-93 76.01 -93 75.02 -93 74 C-95.386 74.576 -97.667 75.222 -100 76 C-100 76.66 -100 77.32 -100 78 C-100.66 78 -101.32 78 -102 78 C-102 78.66 -102 79.32 -102 80 C-102.66 80 -103.32 80 -104 80 C-106.11 86.083 -106.128 90.357 -104.188 96.625 C-100.889 103.222 -96.737 105.58 -90 108 C-81.922 110.647 -71.651 109.193 -63.336 108.227 C-56.808 107.593 -50.449 107.878 -44 109 C-44.66 107.68 -45.32 106.36 -46 105 C-43.665 105.173 -42.308 105.702 -40.621 107.332 C-37 111.572 -37 111.572 -37 114 C-36.34 114 -35.68 114 -35 114 C-33.022 118.237 -32.426 122.399 -31.938 127 C-31.449 131.372 -30.949 135.699 -30 140 C-31.814 137.773 -32.978 136.067 -33.875 133.312 C-34.782 130.769 -34.782 130.769 -37.375 130.125 C-39.889 129.872 -39.889 129.872 -41.812 130.486 C-44.477 131.112 -46.903 131.112 -49.641 131.098 C-50.711 131.094 -51.78 131.091 -52.883 131.088 C-53.994 131.08 -55.105 131.071 -56.25 131.062 C-57.94 131.056 -57.94 131.056 -59.664 131.049 C-62.443 131.037 -65.221 131.021 -68 131 C-68.33 133.64 -68.66 136.28 -69 139 C-69.33 139 -69.66 139 -70 139 C-70.125 133.25 -70.125 133.25 -69 131 C-70.791 130.665 -72.583 130.332 -74.375 130 C-75.373 129.814 -76.37 129.629 -77.398 129.438 C-79.889 128.945 -79.889 128.945 -82 129 C-81.505 129.619 -81.01 130.238 -80.5 130.875 C-79 133 -79 133 -79 135 C-78.34 135 -77.68 135 -77 135 C-76.752 135.784 -76.505 136.567 -76.25 137.375 C-74.763 140.498 -74.064 140.638 -71 142 C-70.154 142.743 -69.309 143.485 -68.438 144.25 C-59.721 151.471 -51.675 153.654 -40.635 154.955 C-35.027 155.634 -30.337 156.69 -25.184 159.078 C-14.91 163.416 -5.15 162.19 4.957 158.312 C9.689 156.272 14.259 153.952 18.836 151.586 C21.524 150.238 24.19 149.063 27 148 C27.33 148.66 27.66 149.32 28 150 C25.36 151.65 22.72 153.3 20 155 C22.31 154.67 24.62 154.34 27 154 C27 153.34 27 152.68 27 152 C28.32 151.67 29.64 151.34 31 151 C31 150.34 31 149.68 31 149 C31.784 148.752 32.567 148.505 33.375 148.25 C36.103 147.295 36.103 147.295 36.844 145.156 C38.401 142.253 40.401 141.066 43.125 139.25 C44.035 138.636 44.945 138.023 45.883 137.391 C46.581 136.932 47.28 136.473 48 136 C48.33 136.99 48.66 137.98 49 139 C44.25 143 44.25 143 42 143 C42 143.66 42 144.32 42 145 C41.01 145 40.02 145 39 145 C38.67 145.99 38.34 146.98 38 148 C36.406 149.316 36.406 149.316 34.5 150.562 C31.745 152.316 31.745 152.316 30 155 C23.829 158.851 18.138 159.536 11 159 C11.516 159.598 12.031 160.196 12.562 160.812 C13.037 161.534 13.511 162.256 14 163 C13.67 163.99 13.34 164.98 13 166 C11.68 164.02 10.36 162.04 9 160 C8.49 160.277 7.979 160.554 7.453 160.84 C-2.575 165.836 -13.925 166.303 -24.527 162.852 C-26.988 161.988 -29.423 161.08 -31.863 160.156 C-36.453 158.465 -40.107 157.918 -45 157.75 C-52.045 157.279 -57.702 155.075 -64 152 C-64 151.34 -64 150.68 -64 150 C-64.722 149.732 -65.444 149.464 -66.188 149.188 C-68.976 148.01 -71.441 146.609 -74 145 C-74.99 146.32 -75.98 147.64 -77 149 C-76.237 149.722 -75.474 150.444 -74.688 151.188 C-70.918 155.132 -69.002 158.995 -67 164 C-66.196 165.33 -66.196 165.33 -65.375 166.688 C-64 169 -64 169 -64 171 C-63.34 171 -62.68 171 -62 171 C-60.887 172.574 -60.887 172.574 -59.688 174.688 C-57.511 178.328 -55.091 181.072 -52 184 C-48.314 188.253 -46.101 193.494 -45 199 C-44.34 199 -43.68 199 -43 199 C-40 203.385 -40 203.385 -40 206 C-39.34 206 -38.68 206 -38 206 C-38 206.66 -38 207.32 -38 208 C-37.01 208.33 -36.02 208.66 -35 209 C-31.742 212.516 -29.687 216.524 -27.957 220.965 C-26.176 224.753 -23.743 228.167 -21.426 231.645 C-20 234 -20 234 -20 236 C-19.419 236.062 -18.837 236.124 -18.238 236.188 C-14.151 237.671 -12.543 241.421 -10.352 244.988 C-8.322 249.51 -8.834 252.257 -10 257 C-20.643 260.965 -20.643 260.965 -24.875 262.062 C-28.018 263.005 -30.213 264.301 -33 266 C-35.641 267.088 -38.307 268.042 -41 269 C-40.299 268.856 -39.597 268.711 -38.875 268.562 C-37.926 268.377 -36.977 268.191 -36 268 C-34.948 267.773 -33.896 267.546 -32.812 267.312 C-31.884 267.209 -30.956 267.106 -30 267 C-29.34 267.66 -28.68 268.32 -28 269 C-29.32 269.66 -30.64 270.32 -32 271 C-30.896 270.696 -30.896 270.696 -29.77 270.387 C-21.92 268.531 -21.92 268.531 -17.812 270.625 C-15.109 275.66 -15.598 280.403 -16 286 C-16.33 286 -16.66 286 -17 286 C-17 282.37 -17 278.74 -17 275 C-18.299 275.681 -18.299 275.681 -19.625 276.375 C-22.715 277.863 -25.729 278.988 -29 280 C-26.525 281.485 -26.525 281.485 -24 283 C-25.939 283 -27.878 282.941 -29.812 282.812 C-33.533 283.031 -35.725 284.292 -39 286 C-40.32 286 -41.64 286 -43 286 C-43 285.34 -43 284.68 -43 284 C-45.97 284.66 -48.94 285.32 -52 286 C-52.33 292.27 -52.66 298.54 -53 305 C-53.33 305 -53.66 305 -54 305 C-54.027 302.208 -54.047 299.417 -54.062 296.625 C-54.071 295.831 -54.079 295.037 -54.088 294.219 C-54.113 288.227 -54.113 288.227 -53 286 C-53.66 286 -54.32 286 -55 286 C-55.33 292.27 -55.66 298.54 -56 305 C-56.33 305 -56.66 305 -57 305 C-57.33 298.73 -57.66 292.46 -58 286 C-62.757 287.599 -62.757 287.599 -67.513 289.201 C-70.663 290.255 -73.774 291.194 -77 292 C-77 296.29 -77 300.58 -77 305 C-77.33 305 -77.66 305 -78 305 C-78 301.37 -78 297.74 -78 294 C-82.29 295.65 -86.58 297.3 -91 299 C-87.535 300.485 -87.535 300.485 -84 302 C-84.33 302.66 -84.66 303.32 -85 304 C-85.66 303.67 -86.32 303.34 -87 303 C-89.117 303.061 -89.117 303.061 -91.438 303.375 C-92.22 303.465 -93.002 303.555 -93.809 303.648 C-96.169 303.967 -96.169 303.967 -99 305 C-101 304 -101 304 -102 302 C-102.664 302.217 -103.328 302.433 -104.012 302.656 C-105.336 303.074 -105.336 303.074 -106.688 303.5 C-107.993 303.918 -107.993 303.918 -109.324 304.344 C-111.994 304.999 -114.264 305.118 -117 305 C-117 304.34 -117 303.68 -117 303 C-117.99 303 -118.98 303 -120 303 C-120.66 303.66 -121.32 304.32 -122 305 C-122.201 301.284 -122.152 300.228 -120 297 C-119.01 297 -118.02 297 -117 297 C-117 296.34 -117 295.68 -117 295 C-117.545 295.205 -118.091 295.41 -118.652 295.621 C-124.154 297.587 -129.176 298.538 -135 299 C-135.214 298.407 -135.428 297.814 -135.648 297.203 C-137.473 294.23 -139.541 293.328 -142.625 291.75 C-143.628 291.229 -144.631 290.708 -145.664 290.172 C-146.435 289.785 -147.206 289.398 -148 289 C-148 288.01 -148 287.02 -148 286 C-148.669 285.749 -149.338 285.497 -150.027 285.238 C-153.635 283.735 -157.086 281.967 -160.562 280.188 C-167.256 276.798 -174.033 273.791 -181 271 C-183.339 270.012 -185.669 269.006 -188 268 C-187.514 264.877 -187.001 262.004 -186 259 C-187.083 260.176 -187.083 260.176 -188.188 261.375 C-190.93 263.934 -192.415 265.097 -196 266 C-198.422 264.918 -198.422 264.918 -200.75 263.188 C-201.529 262.624 -202.307 262.061 -203.109 261.48 C-205 260 -205 260 -206 259 C-206.041 257.334 -206.043 255.666 -206 254 C-208.97 255.98 -208.97 255.98 -212 258 C-212.66 257.67 -213.32 257.34 -214 257 C-211.69 255.35 -209.38 253.7 -207 252 C-208.32 252.33 -209.64 252.66 -211 253 C-211.33 252.34 -211.66 251.68 -212 251 C-211.056 250.437 -211.056 250.437 -210.094 249.863 C-204.691 246.633 -199.327 243.354 -194 240 C-198.295 236.259 -202.999 233.658 -208 231 C-207.505 230.01 -207.505 230.01 -207 229 C-203.938 228.375 -203.938 228.375 -201 228 C-201 227.34 -201 226.68 -201 226 C-196.615 223 -196.615 223 -194 223 C-194 222.34 -194 221.68 -194 221 C-192.539 219.711 -192.539 219.711 -190.625 218.375 C-189.999 217.929 -189.372 217.483 -188.727 217.023 C-187 216 -187 216 -185 216 C-185 215.34 -185 214.68 -185 214 C-184.01 214 -183.02 214 -182 214 C-182 213.34 -182 212.68 -182 212 C-180.539 210.711 -180.539 210.711 -178.625 209.375 C-177.999 208.929 -177.372 208.483 -176.727 208.023 C-175 207 -175 207 -173 207 C-173 206.34 -173 205.68 -173 205 C-170.992 203.316 -168.98 201.741 -166.875 200.188 C-165.726 199.328 -164.577 198.467 -163.43 197.605 C-162.861 197.181 -162.292 196.756 -161.706 196.318 C-159.986 194.989 -158.341 193.595 -156.695 192.176 C-154 190 -154 190 -152 190 C-152 189.34 -152 188.68 -152 188 C-151.34 188 -150.68 188 -150 188 C-150 187.34 -150 186.68 -150 186 C-149.01 186 -148.02 186 -147 186 C-147 185.34 -147 184.68 -147 184 C-146.34 184 -145.68 184 -145 184 C-145 183.34 -145 182.68 -145 182 C-142.953 180.125 -142.953 180.125 -140.25 178 C-139.368 177.299 -138.487 176.597 -137.578 175.875 C-135.422 174.307 -133.423 173.087 -131 172 C-131 171.34 -131 170.68 -131 170 C-130.34 170 -129.68 170 -129 170 C-129 169.34 -129 168.68 -129 168 C-127.366 166.522 -125.665 165.117 -123.938 163.75 C-122.938 162.949 -121.939 162.149 -120.91 161.324 C-119.47 160.174 -119.47 160.174 -118 159 C-113.394 155.513 -113.394 155.513 -110 151 C-109.34 151 -108.68 151 -108 151 C-108 150.34 -108 149.68 -108 149 C-107.34 149 -106.68 149 -106 149 C-106 148.34 -106 147.68 -106 147 C-105.34 146.67 -104.68 146.34 -104 146 C-104.445 134.214 -105.038 122.448 -105.938 110.688 C-106.012 109.658 -106.087 108.628 -106.164 107.567 C-106.59 102.227 -107.261 97.138 -108.582 91.942 C-109.67 86.889 -109.076 83.728 -106.414 79.453 C-100.474 71.989 -94.068 69.215 -85 67 C-84.01 67 -83.02 67 -82 67 C-82.016 66.347 -82.032 65.695 -82.048 65.022 C-82.146 57.845 -81.563 50.923 -80.625 43.812 C-80.499 42.784 -80.372 41.756 -80.242 40.697 C-79.513 34.998 -78.526 29.54 -77 24 C-75.867 27.4 -76.169 28.825 -76.836 32.297 C-78.084 39.254 -78.877 46.224 -79.625 53.25 C-79.826 55.1 -79.826 55.1 -80.031 56.988 C-80.357 59.992 -80.68 62.996 -81 66 C-64.002 63.192 -64.002 63.192 -48 57 C-46.906 56.455 -45.811 55.909 -44.684 55.348 C-42.581 54.293 -40.485 53.224 -38.398 52.137 C-36 51 -36 51 -34 51 C-34 50.34 -34 49.68 -34 49 C-33.01 48.464 -32.02 47.928 -31 47.375 C-28.165 45.763 -25.584 43.989 -23 42 C-15.55 36.355 -9.125 33.978 0 32 C0.081 29.062 0.14 26.126 0.188 23.188 C0.213 22.354 0.238 21.521 0.264 20.662 C0.273 19.86 0.283 19.057 0.293 18.23 C0.309 17.492 0.324 16.754 0.341 15.993 C-0.089 13.478 -1.075 12.606 -3 11 C-2.34 11 -1.68 11 -1 11 C-0.67 7.37 -0.34 3.74 0 0 Z " fill="#F6F6F6" transform="translate(274,3)"/>
<path d="M0 0 C0.33 0 0.66 0 1 0 C0.983 1.282 0.983 1.282 0.965 2.59 C0.956 3.695 0.947 4.799 0.938 5.938 C0.92 7.591 0.92 7.591 0.902 9.277 C0.687 11.914 0.687 11.914 2 13 C2.156 14.34 2.25 15.688 2.316 17.035 C2.379 18.248 2.379 18.248 2.443 19.486 C2.483 20.336 2.522 21.187 2.562 22.062 C2.606 22.917 2.649 23.771 2.693 24.65 C2.8 26.767 2.9 28.883 3 31 C4.183 30.651 5.367 30.301 6.586 29.941 C21.086 25.731 33.957 24.853 49 25 C49 25.66 49 26.32 49 27 C47.403 27.073 47.403 27.073 45.773 27.148 C28.369 27.893 28.369 27.893 11.59 32.164 C8.753 33.08 5.892 33.678 2.975 34.282 C-7.044 36.39 -15.652 39.661 -23.734 46.219 C-26 48 -26 48 -28 48 C-28 48.66 -28 49.32 -28 50 C-43.635 61.222 -61.552 65.713 -80.101 69.42 C-81.8 69.764 -83.494 70.131 -85.188 70.5 C-86.068 70.675 -86.948 70.851 -87.855 71.031 C-90.784 72.354 -91.597 74.184 -93 77 C-93 76.01 -93 75.02 -93 74 C-95.386 74.576 -97.667 75.222 -100 76 C-100 76.66 -100 77.32 -100 78 C-100.66 78 -101.32 78 -102 78 C-102 78.66 -102 79.32 -102 80 C-102.66 80 -103.32 80 -104 80 C-106.11 86.083 -106.128 90.357 -104.188 96.625 C-100.889 103.222 -96.737 105.58 -90 108 C-81.922 110.647 -71.651 109.193 -63.336 108.227 C-56.808 107.593 -50.449 107.878 -44 109 C-44.66 107.68 -45.32 106.36 -46 105 C-43.665 105.173 -42.308 105.702 -40.621 107.332 C-37 111.572 -37 111.572 -37 114 C-36.34 114 -35.68 114 -35 114 C-33.022 118.237 -32.426 122.399 -31.938 127 C-31.449 131.372 -30.949 135.699 -30 140 C-31.814 137.773 -32.978 136.067 -33.875 133.312 C-34.782 130.769 -34.782 130.769 -37.375 130.125 C-39.889 129.872 -39.889 129.872 -41.812 130.486 C-44.477 131.112 -46.903 131.112 -49.641 131.098 C-50.711 131.094 -51.78 131.091 -52.883 131.088 C-53.994 131.08 -55.105 131.071 -56.25 131.062 C-57.94 131.056 -57.94 131.056 -59.664 131.049 C-62.443 131.037 -65.221 131.021 -68 131 C-68.33 133.64 -68.66 136.28 -69 139 C-69.33 139 -69.66 139 -70 139 C-70.125 133.25 -70.125 133.25 -69 131 C-70.791 130.665 -72.583 130.332 -74.375 130 C-75.373 129.814 -76.37 129.629 -77.398 129.438 C-79.889 128.945 -79.889 128.945 -82 129 C-81.505 129.619 -81.01 130.238 -80.5 130.875 C-79 133 -79 133 -79 135 C-78.34 135 -77.68 135 -77 135 C-76.752 135.784 -76.505 136.567 -76.25 137.375 C-74.763 140.498 -74.064 140.638 -71 142 C-70.154 142.743 -69.309 143.485 -68.438 144.25 C-59.721 151.471 -51.675 153.654 -40.635 154.955 C-35.027 155.634 -30.337 156.69 -25.184 159.078 C-14.91 163.416 -5.15 162.19 4.957 158.312 C9.689 156.272 14.259 153.952 18.836 151.586 C21.524 150.238 24.19 149.063 27 148 C27.33 148.66 27.66 149.32 28 150 C25.36 151.65 22.72 153.3 20 155 C22.31 154.67 24.62 154.34 27 154 C27 153.34 27 152.68 27 152 C28.32 151.67 29.64 151.34 31 151 C31 150.34 31 149.68 31 149 C31.784 148.752 32.567 148.505 33.375 148.25 C36.103 147.295 36.103 147.295 36.844 145.156 C38.401 142.253 40.401 141.066 43.125 139.25 C44.035 138.636 44.945 138.023 45.883 137.391 C46.581 136.932 47.28 136.473 48 136 C48.33 136.99 48.66 137.98 49 139 C44.25 143 44.25 143 42 143 C42 143.66 42 144.32 42 145 C41.01 145 40.02 145 39 145 C38.67 145.99 38.34 146.98 38 148 C36.406 149.316 36.406 149.316 34.5 150.562 C31.745 152.316 31.745 152.316 30 155 C23.829 158.851 18.138 159.536 11 159 C11.516 159.598 12.031 160.196 12.562 160.812 C13.037 161.534 13.511 162.256 14 163 C13.67 163.99 13.34 164.98 13 166 C11.68 164.02 10.36 162.04 9 160 C8.49 160.277 7.979 160.554 7.453 160.84 C-2.575 165.836 -13.925 166.303 -24.527 162.852 C-26.988 161.988 -29.423 161.08 -31.863 160.156 C-36.453 158.465 -40.107 157.918 -45 157.75 C-52.045 157.279 -57.702 155.075 -64 152 C-64 151.34 -64 150.68 -64 150 C-64.722 149.732 -65.444 149.464 -66.188 149.188 C-68.976 148.01 -71.441 146.609 -74 145 C-74.99 146.32 -75.98 147.64 -77 149 C-76.237 149.722 -75.474 150.444 -74.688 151.188 C-72.273 153.714 -70.523 155.869 -69 159 C-69.33 159.66 -69.66 160.32 -70 161 C-71.006 159.713 -72.004 158.42 -73 157.125 C-73.557 156.406 -74.114 155.686 -74.688 154.945 C-76 153 -76 153 -76 151 C-80.598 152.233 -82.93 153.515 -85.938 157.188 C-90.69 162.756 -95.811 167.871 -101.035 172.997 C-101.663 173.617 -102.291 174.236 -102.938 174.875 C-103.503 175.429 -104.069 175.984 -104.652 176.555 C-106.107 177.978 -106.107 177.978 -107 180 C-107.66 180 -108.32 180 -109 180 C-109.33 180.99 -109.66 181.98 -110 183 C-110.66 183 -111.32 183 -112 183 C-112 183.66 -112 184.32 -112 185 C-112.66 185 -113.32 185 -114 185 C-114 185.66 -114 186.32 -114 187 C-114.66 187 -115.32 187 -116 187 C-116 187.66 -116 188.32 -116 189 C-117.375 190.625 -117.375 190.625 -119 192 C-119.66 192 -120.32 192 -121 192 C-121 192.66 -121 193.32 -121 194 C-121.66 194 -122.32 194 -123 194 C-123 194.66 -123 195.32 -123 196 C-124.375 197.625 -124.375 197.625 -126 199 C-126.66 199 -127.32 199 -128 199 C-128 199.66 -128 200.32 -128 201 C-128.66 201 -129.32 201 -130 201 C-130.271 201.597 -130.542 202.194 -130.821 202.809 C-131.984 204.971 -133.119 206.351 -134.863 208.059 C-135.421 208.61 -135.978 209.161 -136.553 209.729 C-137.424 210.574 -137.424 210.574 -138.312 211.438 C-138.882 211.998 -139.451 212.558 -140.037 213.135 C-141.688 214.76 -143.344 216.38 -145 218 C-148.413 221.362 -151.672 224.813 -154.875 228.375 C-160.101 234.147 -165.58 239.645 -171.136 245.099 C-171.754 245.708 -172.371 246.318 -173.008 246.945 C-173.561 247.487 -174.114 248.028 -174.684 248.586 C-176.11 249.985 -176.11 249.985 -177 252 C-177.66 252 -178.32 252 -179 252 C-179 252.66 -179 253.32 -179 254 C-179.66 254 -180.32 254 -181 254 C-181.33 254.99 -181.66 255.98 -182 257 C-182.66 257 -183.32 257 -184 257 C-184.33 257.99 -184.66 258.98 -185 260 C-185.577 260.124 -186.155 260.248 -186.75 260.375 C-190.069 261.297 -191.709 263.518 -194 266 C-199.205 264.637 -202.286 262.802 -206 259 C-206.375 256.188 -206.375 256.188 -206 254 C-208.97 255.98 -208.97 255.98 -212 258 C-212.66 257.67 -213.32 257.34 -214 257 C-211.69 255.35 -209.38 253.7 -207 252 C-208.32 252.33 -209.64 252.66 -211 253 C-211.33 252.34 -211.66 251.68 -212 251 C-211.056 250.437 -211.056 250.437 -210.094 249.863 C-204.691 246.633 -199.327 243.354 -194 240 C-198.295 236.259 -202.999 233.658 -208 231 C-207.505 230.01 -207.505 230.01 -207 229 C-203.938 228.375 -203.938 228.375 -201 228 C-201 227.34 -201 226.68 -201 226 C-196.615 223 -196.615 223 -194 223 C-194 222.34 -194 221.68 -194 221 C-192.539 219.711 -192.539 219.711 -190.625 218.375 C-189.999 217.929 -189.372 217.483 -188.727 217.023 C-187 216 -187 216 -185 216 C-185 215.34 -185 214.68 -185 214 C-184.01 214 -183.02 214 -182 214 C-182 213.34 -182 212.68 -182 212 C-180.539 210.711 -180.539 210.711 -178.625 209.375 C-177.999 208.929 -177.372 208.483 -176.727 208.023 C-175 207 -175 207 -173 207 C-173 206.34 -173 205.68 -173 205 C-170.992 203.316 -168.98 201.741 -166.875 200.188 C-165.726 199.328 -164.577 198.467 -163.43 197.605 C-162.861 197.181 -162.292 196.756 -161.706 196.318 C-159.986 194.989 -158.341 193.595 -156.695 192.176 C-154 190 -154 190 -152 190 C-152 189.34 -152 188.68 -152 188 C-151.34 188 -150.68 188 -150 188 C-150 187.34 -150 186.68 -150 186 C-149.01 186 -148.02 186 -147 186 C-147 185.34 -147 184.68 -147 184 C-146.34 184 -145.68 184 -145 184 C-145 183.34 -145 182.68 -145 182 C-142.953 180.125 -142.953 180.125 -140.25 178 C-139.368 177.299 -138.487 176.597 -137.578 175.875 C-135.422 174.307 -133.423 173.087 -131 172 C-131 171.34 -131 170.68 -131 170 C-130.34 170 -129.68 170 -129 170 C-129 169.34 -129 168.68 -129 168 C-127.366 166.522 -125.665 165.117 -123.938 163.75 C-122.938 162.949 -121.939 162.149 -120.91 161.324 C-119.47 160.174 -119.47 160.174 -118 159 C-113.394 155.513 -113.394 155.513 -110 151 C-109.34 151 -108.68 151 -108 151 C-108 150.34 -108 149.68 -108 149 C-107.34 149 -106.68 149 -106 149 C-106 148.34 -106 147.68 -106 147 C-105.34 146.67 -104.68 146.34 -104 146 C-104.445 134.214 -105.038 122.448 -105.938 110.688 C-106.012 109.658 -106.087 108.628 -106.164 107.567 C-106.59 102.227 -107.261 97.138 -108.582 91.942 C-109.67 86.889 -109.076 83.728 -106.414 79.453 C-100.474 71.989 -94.068 69.215 -85 67 C-84.01 67 -83.02 67 -82 67 C-82.016 66.347 -82.032 65.695 -82.048 65.022 C-82.146 57.845 -81.563 50.923 -80.625 43.812 C-80.499 42.784 -80.372 41.756 -80.242 40.697 C-79.513 34.998 -78.526 29.54 -77 24 C-75.867 27.4 -76.169 28.825 -76.836 32.297 C-78.084 39.254 -78.877 46.224 -79.625 53.25 C-79.826 55.1 -79.826 55.1 -80.031 56.988 C-80.357 59.992 -80.68 62.996 -81 66 C-64.002 63.192 -64.002 63.192 -48 57 C-46.906 56.455 -45.811 55.909 -44.684 55.348 C-42.581 54.293 -40.485 53.224 -38.398 52.137 C-36 51 -36 51 -34 51 C-34 50.34 -34 49.68 -34 49 C-33.01 48.464 -32.02 47.928 -31 47.375 C-28.165 45.763 -25.584 43.989 -23 42 C-15.55 36.355 -9.125 33.978 0 32 C0.081 29.062 0.14 26.126 0.188 23.188 C0.213 22.354 0.238 21.521 0.264 20.662 C0.273 19.86 0.283 19.057 0.293 18.23 C0.309 17.492 0.324 16.754 0.341 15.993 C-0.089 13.478 -1.075 12.606 -3 11 C-2.34 11 -1.68 11 -1 11 C-0.67 7.37 -0.34 3.74 0 0 Z " fill="#D4D4D4" transform="translate(274,3)"/>
<path d="M0 0 C22.394 0.119 47.011 0.955 66.805 12.266 C66.805 18.206 66.805 24.146 66.805 30.266 C65.464 30.699 64.123 31.132 62.742 31.578 C53.541 34.674 44.732 38.692 37.367 45.141 C34.805 47.266 34.805 47.266 31.805 47.266 C31.805 47.926 31.805 48.586 31.805 49.266 C26.578 52.264 21.403 55.007 15.805 57.266 C15.137 57.584 14.469 57.902 13.781 58.23 C5.049 62.179 -5.606 64.266 -15.195 64.266 C-15.348 57.235 -14.784 50.485 -13.883 43.516 C-13.746 42.451 -13.609 41.386 -13.468 40.289 C-12.065 29.746 -9.715 19.742 -6.633 9.578 C-6.423 8.881 -6.213 8.185 -5.997 7.467 C-3.791 0.459 -3.791 0.459 0 0 Z " fill="#FFFFFF" transform="translate(208.1953125,4.734375)"/>
<path d="M0 0 C0.33 0 0.66 0 1 0 C0.983 1.282 0.983 1.282 0.965 2.59 C0.956 3.695 0.947 4.799 0.938 5.938 C0.92 7.591 0.92 7.591 0.902 9.277 C0.687 11.914 0.687 11.914 2 13 C2.156 14.34 2.25 15.688 2.316 17.035 C2.379 18.248 2.379 18.248 2.443 19.486 C2.483 20.336 2.522 21.187 2.562 22.062 C2.606 22.917 2.649 23.771 2.693 24.65 C2.8 26.767 2.9 28.883 3 31 C4.183 30.651 5.367 30.301 6.586 29.941 C21.086 25.731 33.957 24.853 49 25 C49 25.66 49 26.32 49 27 C47.403 27.073 47.403 27.073 45.773 27.148 C28.369 27.893 28.369 27.893 11.59 32.164 C8.753 33.08 5.892 33.678 2.975 34.282 C-7.044 36.39 -15.652 39.661 -23.734 46.219 C-26 48 -26 48 -28 48 C-28 48.66 -28 49.32 -28 50 C-43.635 61.222 -61.552 65.713 -80.101 69.42 C-81.8 69.764 -83.494 70.131 -85.188 70.5 C-86.068 70.675 -86.948 70.851 -87.855 71.031 C-90.784 72.354 -91.597 74.184 -93 77 C-93 76.01 -93 75.02 -93 74 C-95.386 74.576 -97.667 75.222 -100 76 C-100 76.66 -100 77.32 -100 78 C-100.66 78 -101.32 78 -102 78 C-102 78.66 -102 79.32 -102 80 C-102.66 80 -103.32 80 -104 80 C-106.11 86.083 -106.128 90.357 -104.188 96.625 C-100.889 103.222 -96.737 105.58 -90 108 C-81.922 110.647 -71.651 109.193 -63.336 108.227 C-56.808 107.593 -50.449 107.878 -44 109 C-44.66 107.68 -45.32 106.36 -46 105 C-43.665 105.173 -42.308 105.702 -40.621 107.332 C-37 111.572 -37 111.572 -37 114 C-36.34 114 -35.68 114 -35 114 C-33.022 118.237 -32.426 122.399 -31.938 127 C-31.449 131.372 -30.949 135.699 -30 140 C-31.814 137.773 -32.978 136.067 -33.875 133.312 C-34.782 130.769 -34.782 130.769 -37.375 130.125 C-39.889 129.872 -39.889 129.872 -41.812 130.486 C-44.477 131.112 -46.903 131.112 -49.641 131.098 C-50.711 131.094 -51.78 131.091 -52.883 131.088 C-53.994 131.08 -55.105 131.071 -56.25 131.062 C-57.94 131.056 -57.94 131.056 -59.664 131.049 C-62.443 131.037 -65.221 131.021 -68 131 C-68.33 133.64 -68.66 136.28 -69 139 C-69.33 139 -69.66 139 -70 139 C-70.125 133.25 -70.125 133.25 -69 131 C-70.791 130.665 -72.583 130.332 -74.375 130 C-75.373 129.814 -76.37 129.629 -77.398 129.438 C-79.889 128.945 -79.889 128.945 -82 129 C-81.505 129.619 -81.01 130.238 -80.5 130.875 C-79 133 -79 133 -79 135 C-78.34 135 -77.68 135 -77 135 C-76.752 135.784 -76.505 136.567 -76.25 137.375 C-74.763 140.498 -74.064 140.638 -71 142 C-70.154 142.743 -69.309 143.485 -68.438 144.25 C-59.721 151.471 -51.675 153.654 -40.635 154.955 C-35.027 155.634 -30.337 156.69 -25.184 159.078 C-14.91 163.416 -5.15 162.19 4.957 158.312 C9.689 156.272 14.259 153.952 18.836 151.586 C21.524 150.238 24.19 149.063 27 148 C27.33 148.66 27.66 149.32 28 150 C25.36 151.65 22.72 153.3 20 155 C22.31 154.67 24.62 154.34 27 154 C27 153.34 27 152.68 27 152 C28.32 151.67 29.64 151.34 31 151 C31 150.34 31 149.68 31 149 C31.784 148.752 32.567 148.505 33.375 148.25 C36.103 147.295 36.103 147.295 36.844 145.156 C38.401 142.253 40.401 141.066 43.125 139.25 C44.035 138.636 44.945 138.023 45.883 137.391 C46.581 136.932 47.28 136.473 48 136 C48.33 136.99 48.66 137.98 49 139 C44.25 143 44.25 143 42 143 C42 143.66 42 144.32 42 145 C41.01 145 40.02 145 39 145 C38.67 145.99 38.34 146.98 38 148 C36.406 149.316 36.406 149.316 34.5 150.562 C31.745 152.316 31.745 152.316 30 155 C23.829 158.851 18.138 159.536 11 159 C11.516 159.598 12.031 160.196 12.562 160.812 C13.037 161.534 13.511 162.256 14 163 C13.67 163.99 13.34 164.98 13 166 C11.68 164.02 10.36 162.04 9 160 C8.49 160.277 7.979 160.554 7.453 160.84 C-2.575 165.836 -13.925 166.303 -24.527 162.852 C-26.988 161.988 -29.423 161.08 -31.863 160.156 C-36.453 158.465 -40.107 157.918 -45 157.75 C-52.045 157.279 -57.702 155.075 -64 152 C-64 151.34 -64 150.68 -64 150 C-64.722 149.732 -65.444 149.464 -66.188 149.188 C-69 148 -69 148 -71.688 146.312 C-72.451 145.879 -73.214 145.446 -74 145 C-74.66 145.33 -75.32 145.66 -76 146 C-76.041 145.34 -76.083 144.68 -76.125 144 C-77.405 139.611 -80.148 136.515 -83 133 C-85.652 136.978 -86.591 141.106 -87.902 145.676 C-90.515 153.588 -93.919 157.738 -101 162 C-108.398 165.437 -114.924 168.1 -123 166 C-123.33 166.99 -123.66 167.98 -124 169 C-125.571 170.417 -127.207 171.761 -128.875 173.062 C-133.947 177.104 -138.734 181.328 -143.492 185.738 C-150.435 192 -150.435 192 -153 192 C-153 192.66 -153 193.32 -153 194 C-154.207 194.402 -154.207 194.402 -155.438 194.812 C-156.706 195.4 -156.706 195.4 -158 196 C-158.33 196.99 -158.66 197.98 -159 199 C-160.496 200.324 -160.496 200.324 -162.438 201.688 C-166.739 204.776 -170.818 208.088 -174.898 211.461 C-177 213 -177 213 -179 213 C-179 213.66 -179 214.32 -179 215 C-181.45 216.746 -183.9 218.39 -186.438 220 C-187.835 220.892 -189.229 221.787 -190.621 222.688 C-191.244 223.083 -191.867 223.479 -192.51 223.887 C-194.16 224.946 -194.16 224.946 -195 227 C-197.257 228.483 -199.626 229.705 -202 231 C-199.396 233.139 -197.381 234.577 -194 235 C-191.813 234.621 -191.813 234.621 -190 234 C-190.33 234.66 -190.66 235.32 -191 236 C-191.66 236 -192.32 236 -193 236 C-192.34 237.32 -191.68 238.64 -191 240 C-192.98 240.99 -192.98 240.99 -195 242 C-194.67 241.01 -194.34 240.02 -194 239 C-198.62 236.36 -203.24 233.72 -208 231 C-207.505 230.01 -207.505 230.01 -207 229 C-203.938 228.375 -203.938 228.375 -201 228 C-201 227.34 -201 226.68 -201 226 C-196.615 223 -196.615 223 -194 223 C-194 222.34 -194 221.68 -194 221 C-192.539 219.711 -192.539 219.711 -190.625 218.375 C-189.999 217.929 -189.372 217.483 -188.727 217.023 C-187 216 -187 216 -185 216 C-185 215.34 -185 214.68 -185 214 C-184.01 214 -183.02 214 -182 214 C-182 213.34 -182 212.68 -182 212 C-180.539 210.711 -180.539 210.711 -178.625 209.375 C-177.999 208.929 -177.372 208.483 -176.727 208.023 C-175 207 -175 207 -173 207 C-173 206.34 -173 205.68 -173 205 C-170.992 203.316 -168.98 201.741 -166.875 200.188 C-165.726 199.328 -164.577 198.467 -163.43 197.605 C-162.861 197.181 -162.292 196.756 -161.706 196.318 C-159.986 194.989 -158.341 193.595 -156.695 192.176 C-154 190 -154 190 -152 190 C-152 189.34 -152 188.68 -152 188 C-151.34 188 -150.68 188 -150 188 C-150 187.34 -150 186.68 -150 186 C-149.01 186 -148.02 186 -147 186 C-147 185.34 -147 184.68 -147 184 C-146.34 184 -145.68 184 -145 184 C-145 183.34 -145 182.68 -145 182 C-142.953 180.125 -142.953 180.125 -140.25 178 C-139.368 177.299 -138.487 176.597 -137.578 175.875 C-135.422 174.307 -133.423 173.087 -131 172 C-131 171.34 -131 170.68 -131 170 C-130.34 170 -129.68 170 -129 170 C-129 169.34 -129 168.68 -129 168 C-127.366 166.522 -125.665 165.117 -123.938 163.75 C-122.938 162.949 -121.939 162.149 -120.91 161.324 C-119.47 160.174 -119.47 160.174 -118 159 C-113.394 155.513 -113.394 155.513 -110 151 C-109.34 151 -108.68 151 -108 151 C-108 150.34 -108 149.68 -108 149 C-107.34 149 -106.68 149 -106 149 C-106 148.34 -106 147.68 -106 147 C-105.34 146.67 -104.68 146.34 -104 146 C-104.445 134.214 -105.038 122.448 -105.938 110.688 C-106.012 109.658 -106.087 108.628 -106.164 107.567 C-106.59 102.227 -107.261 97.138 -108.582 91.942 C-109.67 86.889 -109.076 83.728 -106.414 79.453 C-100.474 71.989 -94.068 69.215 -85 67 C-84.01 67 -83.02 67 -82 67 C-82.016 66.347 -82.032 65.695 -82.048 65.022 C-82.146 57.845 -81.563 50.923 -80.625 43.812 C-80.499 42.784 -80.372 41.756 -80.242 40.697 C-79.513 34.998 -78.526 29.54 -77 24 C-75.867 27.4 -76.169 28.825 -76.836 32.297 C-78.084 39.254 -78.877 46.224 -79.625 53.25 C-79.826 55.1 -79.826 55.1 -80.031 56.988 C-80.357 59.992 -80.68 62.996 -81 66 C-64.002 63.192 -64.002 63.192 -48 57 C-46.906 56.455 -45.811 55.909 -44.684 55.348 C-42.581 54.293 -40.485 53.224 -38.398 52.137 C-36 51 -36 51 -34 51 C-34 50.34 -34 49.68 -34 49 C-33.01 48.464 -32.02 47.928 -31 47.375 C-28.165 45.763 -25.584 43.989 -23 42 C-15.55 36.355 -9.125 33.978 0 32 C0.081 29.062 0.14 26.126 0.188 23.188 C0.213 22.354 0.238 21.521 0.264 20.662 C0.273 19.86 0.283 19.057 0.293 18.23 C0.309 17.492 0.324 16.754 0.341 15.993 C-0.089 13.478 -1.075 12.606 -3 11 C-2.34 11 -1.68 11 -1 11 C-0.67 7.37 -0.34 3.74 0 0 Z " fill="#050505" transform="translate(274,3)"/>
<path d="M0 0 C2.063 0.438 2.063 0.438 4 1 C3.01 1.33 2.02 1.66 1 2 C1.701 1.856 2.403 1.711 3.125 1.562 C4.074 1.377 5.022 1.191 6 1 C7.052 0.773 8.104 0.546 9.188 0.312 C10.116 0.209 11.044 0.106 12 0 C12.99 0.99 12.99 0.99 14 2 C12.68 2.66 11.36 3.32 10 4 C10.736 3.798 11.472 3.595 12.23 3.387 C20.08 1.531 20.08 1.531 24.188 3.625 C26.891 8.66 26.402 13.403 26 19 C25.67 19 25.34 19 25 19 C25 15.37 25 11.74 25 8 C24.134 8.454 23.267 8.908 22.375 9.375 C19.285 10.863 16.271 11.988 13 13 C14.65 13.99 16.3 14.98 18 16 C16.061 16 14.122 15.941 12.188 15.812 C8.467 16.031 6.275 17.292 3 19 C1.68 19 0.36 19 -1 19 C-1 18.34 -1 17.68 -1 17 C-3.97 17.66 -6.94 18.32 -10 19 C-10.33 25.27 -10.66 31.54 -11 38 C-11.33 38 -11.66 38 -12 38 C-12.027 35.208 -12.047 32.417 -12.062 29.625 C-12.071 28.831 -12.079 28.037 -12.088 27.219 C-12.113 21.227 -12.113 21.227 -11 19 C-11.66 19 -12.32 19 -13 19 C-13.33 25.27 -13.66 31.54 -14 38 C-14.33 38 -14.66 38 -15 38 C-15.33 31.73 -15.66 25.46 -16 19 C-20.757 20.599 -20.757 20.599 -25.513 22.201 C-28.663 23.255 -31.774 24.194 -35 25 C-35 29.29 -35 33.58 -35 38 C-35.33 38 -35.66 38 -36 38 C-36 34.37 -36 30.74 -36 27 C-40.29 28.65 -44.58 30.3 -49 32 C-46.69 32.99 -44.38 33.98 -42 35 C-42.495 35.99 -42.495 35.99 -43 37 C-43.99 36.505 -43.99 36.505 -45 36 C-47.117 36.061 -47.117 36.061 -49.438 36.375 C-50.22 36.465 -51.002 36.555 -51.809 36.648 C-54.169 36.967 -54.169 36.967 -57 38 C-59 37 -59 37 -60 35 C-60.664 35.217 -61.328 35.433 -62.012 35.656 C-62.895 35.935 -63.778 36.213 -64.688 36.5 C-65.558 36.778 -66.428 37.057 -67.324 37.344 C-69.994 37.999 -72.264 38.118 -75 38 C-75 37.34 -75 36.68 -75 36 C-75.99 36 -76.98 36 -78 36 C-78.66 36.66 -79.32 37.32 -80 38 C-80.201 34.284 -80.152 33.228 -78 30 C-77.01 30 -76.02 30 -75 30 C-75 29.34 -75 28.68 -75 28 C-75.545 28.205 -76.091 28.41 -76.652 28.621 C-82.154 30.587 -87.176 31.538 -93 32 C-93 31.01 -93 30.02 -93 29 C-92.327 29.219 -91.654 29.438 -90.961 29.664 C-87.035 30.109 -84.18 28.85 -80.625 27.375 C-79.198 26.812 -77.769 26.25 -76.34 25.691 C-75.257 25.264 -75.257 25.264 -74.152 24.829 C-49.272 15.248 -49.272 15.248 -40 16 C-40.66 15.34 -41.32 14.68 -42 14 C-39.272 13.185 -36.542 12.373 -33.812 11.562 C-33.044 11.332 -32.275 11.102 -31.482 10.865 C-20.672 7.664 -20.672 7.664 -18 9 C-16 9.04 -14 9.043 -12 9 C-12.99 7.02 -12.99 7.02 -14 5 C-13.073 4.723 -12.146 4.446 -11.191 4.16 C-9.994 3.798 -8.796 3.436 -7.562 3.062 C-6.368 2.703 -5.173 2.343 -3.941 1.973 C-1.141 1.291 -1.141 1.291 0 0 Z " fill="#B9B9B9" transform="translate(232,270)"/>
<path d="M0 0 C1.921 0.423 3.841 0.846 5.762 1.27 C4.66 3.021 3.555 4.771 2.449 6.52 C1.834 7.494 1.219 8.469 0.586 9.473 C-2.557 14.292 -2.557 14.292 -4.238 16.27 C-4.898 16.27 -5.558 16.27 -6.238 16.27 C-6.478 16.829 -6.718 17.388 -6.965 17.965 C-8.512 20.765 -10.426 22.812 -12.613 25.145 C-15.188 27.934 -17.589 30.579 -19.551 33.832 C-21.489 36.632 -22.055 36.673 -25.238 37.27 C-26.591 38.583 -27.927 39.915 -29.238 41.27 C-29.898 41.27 -30.558 41.27 -31.238 41.27 C-31.238 41.93 -31.238 42.59 -31.238 43.27 C-32.699 44.559 -32.699 44.559 -34.613 45.895 C-35.24 46.341 -35.866 46.787 -36.512 47.246 C-38.238 48.27 -38.238 48.27 -40.238 48.27 C-40.238 48.93 -40.238 49.59 -40.238 50.27 C-41.228 50.27 -42.218 50.27 -43.238 50.27 C-43.238 50.93 -43.238 51.59 -43.238 52.27 C-45.218 52.765 -45.218 52.765 -47.238 53.27 C-47.238 53.93 -47.238 54.59 -47.238 55.27 C-48.196 55.808 -49.154 56.347 -50.141 56.902 C-53.091 58.584 -55.984 60.342 -58.867 62.137 C-60.512 63.139 -62.156 64.142 -63.801 65.145 C-65.037 65.93 -65.037 65.93 -66.299 66.73 C-72.414 70.407 -72.414 70.407 -76.711 69.691 C-78.997 68.405 -80.585 67.291 -82.238 65.27 C-77.613 61.27 -77.613 61.27 -74.238 61.27 C-73.908 60.28 -73.578 59.29 -73.238 58.27 C-71.121 56.601 -69.033 55.079 -66.801 53.582 C-66.202 53.166 -65.603 52.751 -64.986 52.322 C-60.51 49.27 -60.51 49.27 -58.238 49.27 C-58.238 48.61 -58.238 47.95 -58.238 47.27 C-56.252 45.582 -54.264 44.01 -52.176 42.457 C-51.58 42.006 -50.985 41.556 -50.371 41.091 C-47.342 38.807 -44.285 36.57 -41.176 34.395 C-38.224 32.377 -38.224 32.377 -35.926 29.957 C-35.369 29.4 -34.812 28.843 -34.238 28.27 C-33.578 28.27 -32.918 28.27 -32.238 28.27 C-32.238 27.61 -32.238 26.95 -32.238 26.27 C-30.156 24.359 -30.156 24.359 -27.426 22.207 C-26.532 21.494 -25.639 20.781 -24.719 20.047 C-22.238 18.27 -22.238 18.27 -19.238 17.27 C-18.743 15.785 -18.743 15.785 -18.238 14.27 C-16.542 12.749 -14.782 11.299 -12.988 9.895 C-9.98 7.529 -7.25 5.282 -4.648 2.469 C-2.238 0.27 -2.238 0.27 0 0 Z " fill="#FEFEFE" transform="translate(153.23828125,168.73046875)"/>
<path d="M0 0 C6.423 -0.076 12.846 -0.129 19.269 -0.165 C21.452 -0.18 23.635 -0.2 25.819 -0.226 C28.964 -0.263 32.109 -0.28 35.254 -0.293 C36.224 -0.308 37.194 -0.324 38.193 -0.34 C43.896 -0.341 48.012 0.137 53 3 C55.328 7.054 56.425 10.324 56 15 C42.752 20.778 23.591 19.357 10.25 14.688 C5.622 12.285 2.869 9.303 0 5 C-0.125 2.312 -0.125 2.312 0 0 Z " fill="#FFFFFF" transform="translate(183,114)"/>
<path d="M0 0 C0.33 0 0.66 0 1 0 C0.988 0.855 0.977 1.709 0.965 2.59 C0.956 3.695 0.947 4.799 0.938 5.938 C0.926 7.04 0.914 8.142 0.902 9.277 C0.687 11.914 0.687 11.914 2 13 C2.156 14.34 2.25 15.688 2.316 17.035 C2.358 17.844 2.4 18.653 2.443 19.486 C2.483 20.336 2.522 21.187 2.562 22.062 C2.606 22.917 2.649 23.771 2.693 24.65 C2.8 26.767 2.9 28.883 3 31 C4.183 30.651 5.367 30.301 6.586 29.941 C21.086 25.731 33.957 24.853 49 25 C49 25.66 49 26.32 49 27 C47.403 27.073 47.403 27.073 45.773 27.148 C28.369 27.893 28.369 27.893 11.59 32.164 C8.753 33.08 5.892 33.678 2.975 34.282 C-7.044 36.39 -15.652 39.661 -23.734 46.219 C-26 48 -26 48 -28 48 C-28 48.66 -28 49.32 -28 50 C-43.635 61.222 -61.552 65.713 -80.101 69.42 C-81.8 69.764 -83.494 70.131 -85.188 70.5 C-86.068 70.675 -86.948 70.851 -87.855 71.031 C-90.784 72.354 -91.597 74.184 -93 77 C-93 76.01 -93 75.02 -93 74 C-95.386 74.576 -97.667 75.222 -100 76 C-100 76.66 -100 77.32 -100 78 C-100.66 78 -101.32 78 -102 78 C-102 78.66 -102 79.32 -102 80 C-102.66 80 -103.32 80 -104 80 C-104.99 83.63 -105.98 87.26 -107 91 C-107.66 90.67 -108.32 90.34 -109 90 C-109.13 82.99 -106.69 79.297 -101.887 74.277 C-96.393 69.944 -89.043 67 -82 67 C-82.016 66.347 -82.032 65.695 -82.048 65.022 C-82.146 57.845 -81.563 50.923 -80.625 43.812 C-80.499 42.784 -80.372 41.756 -80.242 40.697 C-79.513 34.998 -78.526 29.54 -77 24 C-75.867 27.4 -76.169 28.825 -76.836 32.297 C-78.084 39.254 -78.877 46.224 -79.625 53.25 C-79.759 54.484 -79.893 55.717 -80.031 56.988 C-80.357 59.992 -80.68 62.996 -81 66 C-64.002 63.192 -64.002 63.192 -48 57 C-46.906 56.455 -45.811 55.909 -44.684 55.348 C-42.581 54.293 -40.485 53.224 -38.398 52.137 C-36 51 -36 51 -34 51 C-34 50.34 -34 49.68 -34 49 C-33.01 48.464 -32.02 47.928 -31 47.375 C-28.165 45.763 -25.584 43.989 -23 42 C-15.55 36.355 -9.125 33.978 0 32 C0.081 29.062 0.14 26.126 0.188 23.188 C0.213 22.354 0.238 21.521 0.264 20.662 C0.273 19.86 0.283 19.057 0.293 18.23 C0.309 17.492 0.324 16.754 0.341 15.993 C-0.089 13.478 -1.075 12.606 -3 11 C-2.34 11 -1.68 11 -1 11 C-0.67 7.37 -0.34 3.74 0 0 Z " fill="#000000" transform="translate(274,3)"/>
<path d="M0 0 C0 0.66 0 1.32 0 2 C-1.32 2.33 -2.64 2.66 -4 3 C2.348 0.692 8.295 0.802 15 1 C12.41 3.59 10.128 4.027 6.625 5.062 C5.483 5.404 4.341 5.746 3.164 6.098 C0.788 6.775 -1.603 7.401 -4 8 C-4 12.29 -4 16.58 -4 21 C-4.33 21 -4.66 21 -5 21 C-5 17.37 -5 13.74 -5 10 C-9.29 11.65 -13.58 13.3 -18 15 C-14.535 16.485 -14.535 16.485 -11 18 C-11.33 18.66 -11.66 19.32 -12 20 C-12.66 19.67 -13.32 19.34 -14 19 C-16.117 19.061 -16.117 19.061 -18.438 19.375 C-19.22 19.465 -20.002 19.555 -20.809 19.648 C-23.169 19.967 -23.169 19.967 -26 21 C-28 20 -28 20 -29 18 C-29.664 18.217 -30.328 18.433 -31.012 18.656 C-31.895 18.935 -32.778 19.213 -33.688 19.5 C-34.558 19.778 -35.428 20.057 -36.324 20.344 C-38.994 20.999 -41.264 21.118 -44 21 C-44 20.01 -44 19.02 -44 18 C-44.66 17.67 -45.32 17.34 -46 17 C-46 16.01 -46 15.02 -46 14 C-40.049 11.783 -34.138 9.637 -28 8 C-28 7.34 -28 6.68 -28 6 C-27.154 5.865 -26.309 5.729 -25.438 5.59 C-21.939 4.989 -18.473 4.297 -15 3.562 C-13.824 3.316 -12.649 3.07 -11.438 2.816 C-7.666 1.921 -3.871 0 0 0 Z " fill="#AEAEAE" transform="translate(201,287)"/>
<path d="M0 0 C4.789 1.586 4.789 1.586 6.688 5.312 C7.121 6.529 7.554 7.746 8 9 C8.887 11.47 9.643 13.56 11.305 15.607 C13.647 18.612 15.08 20.737 14.833 24.632 C14.095 27.567 13.17 30.348 12.125 33.188 C11.81 34.159 11.496 35.13 11.172 36.131 C9.301 41.591 7.561 45.39 3 49 C2.67 49 2.34 49 2 49 C1.975 48.297 1.95 47.595 1.924 46.871 C1.364 31.243 0.742 15.62 0 0 Z " fill="#FFFFFF" transform="translate(174,110)"/>
<path d="M0 0 C0.99 0.33 1.98 0.66 3 1 C1.68 1.99 0.36 2.98 -1 4 C-0.505 4.99 -0.505 4.99 0 6 C-22.427 15 -22.427 15 -34 15 C-33.34 15.66 -32.68 16.32 -32 17 C-34.728 17.815 -37.458 18.627 -40.188 19.438 C-40.956 19.668 -41.725 19.898 -42.518 20.135 C-46.325 21.262 -50.082 22.317 -54 23 C-54 23.66 -54 24.32 -54 25 C-53.34 25.33 -52.68 25.66 -52 26 C-52 26.66 -52 27.32 -52 28 C-52.99 28 -53.98 28 -55 28 C-55.66 28.66 -56.32 29.32 -57 30 C-57.201 26.284 -57.152 25.228 -55 22 C-54.01 22 -53.02 22 -52 22 C-52 21.34 -52 20.68 -52 20 C-52.545 20.205 -53.091 20.41 -53.652 20.621 C-59.154 22.587 -64.176 23.538 -70 24 C-70 23.01 -70 22.02 -70 21 C-69.327 21.219 -68.654 21.438 -67.961 21.664 C-64.035 22.109 -61.18 20.85 -57.625 19.375 C-56.198 18.812 -54.769 18.25 -53.34 17.691 C-52.257 17.264 -52.257 17.264 -51.152 16.829 C-26.272 7.248 -26.272 7.248 -17 8 C-17.66 7.34 -18.32 6.68 -19 6 C-17.796 5.651 -16.592 5.301 -15.352 4.941 C-13.776 4.482 -12.2 4.022 -10.625 3.562 C-9.831 3.332 -9.037 3.102 -8.219 2.865 C-7.458 2.643 -6.698 2.421 -5.914 2.191 C-5.212 1.987 -4.511 1.783 -3.788 1.573 C-1.925 1.026 -1.925 1.026 0 0 Z " fill="#383838" transform="translate(209,278)"/>
<path d="M0 0 C0.495 1.485 0.495 1.485 1 3 C-3.75 7 -3.75 7 -6 7 C-6 7.66 -6 8.32 -6 9 C-6.99 9 -7.98 9 -9 9 C-9.33 9.99 -9.66 10.98 -10 12 C-11.594 13.316 -11.594 13.316 -13.5 14.562 C-16.255 16.316 -16.255 16.316 -18 19 C-24.171 22.851 -29.862 23.536 -37 23 C-36.484 23.598 -35.969 24.196 -35.438 24.812 C-34.963 25.534 -34.489 26.256 -34 27 C-34.495 28.485 -34.495 28.485 -35 30 C-36.32 28.02 -37.64 26.04 -39 24 C-39.766 24.416 -39.766 24.416 -40.547 24.84 C-50.575 29.836 -61.925 30.303 -72.527 26.852 C-74.988 25.988 -77.423 25.08 -79.863 24.156 C-82.252 23.276 -84.52 22.539 -87 22 C-87 21.34 -87 20.68 -87 20 C-80.998 20.395 -76.558 21.604 -71 24 C-55.153 28.179 -43.146 22.814 -29.164 15.586 C-26.476 14.238 -23.81 13.063 -21 12 C-20.505 12.99 -20.505 12.99 -20 14 C-22.64 15.65 -25.28 17.3 -28 19 C-25.69 18.67 -23.38 18.34 -21 18 C-21 17.34 -21 16.68 -21 16 C-19.68 15.67 -18.36 15.34 -17 15 C-17 14.34 -17 13.68 -17 13 C-16.216 12.752 -15.433 12.505 -14.625 12.25 C-11.897 11.295 -11.897 11.295 -11.156 9.156 C-9.599 6.253 -7.599 5.066 -4.875 3.25 C-3.965 2.636 -3.055 2.023 -2.117 1.391 C-1.069 0.702 -1.069 0.702 0 0 Z " fill="#000000" transform="translate(322,139)"/>
<path d="M0 0 C2.062 0.438 2.062 0.438 4 1 C3.01 1.33 2.02 1.66 1 2 C1.701 1.856 2.403 1.711 3.125 1.562 C4.074 1.377 5.023 1.191 6 1 C7.052 0.773 8.104 0.546 9.188 0.312 C10.58 0.158 10.58 0.158 12 0 C12.66 0.66 13.32 1.32 14 2 C12.02 2.99 12.02 2.99 10 4 C11.98 4 13.96 4 16 4 C9.242 10.758 -5.81 11.443 -15 13 C-15 13.66 -15 14.32 -15 15 C-17.354 15.794 -19.708 16.585 -22.062 17.375 C-22.719 17.597 -23.376 17.818 -24.053 18.047 C-36.796 22.315 -36.796 22.315 -42 22 C-39.302 20.381 -37.58 19.957 -34.375 19.625 C-33.261 19.419 -32.148 19.212 -31 19 C-29.833 17.083 -29.833 17.083 -29 15 C-26.375 13.75 -26.375 13.75 -24 13 C-25.32 12.34 -26.64 11.68 -28 11 C-25.896 10.664 -23.792 10.331 -21.688 10 C-20.516 9.814 -19.344 9.629 -18.137 9.438 C-15 9 -15 9 -12 9 C-12.66 7.68 -13.32 6.36 -14 5 C-12.61 4.584 -12.61 4.584 -11.191 4.16 C-9.994 3.798 -8.796 3.436 -7.562 3.062 C-6.368 2.703 -5.173 2.343 -3.941 1.973 C-1.141 1.291 -1.141 1.291 0 0 Z " fill="#FFFFFF" transform="translate(232,270)"/>
<path d="M0 0 C4.615 -0.603 7.591 -0.657 11.449 2.047 C12.545 2.928 13.624 3.83 14.688 4.75 C15.23 5.193 15.772 5.637 16.33 6.094 C17.899 7.381 19.45 8.69 21 10 C21.955 10.727 22.91 11.454 23.895 12.203 C24.589 12.796 25.284 13.389 26 14 C26 14.66 26 15.32 26 16 C26.66 16 27.32 16 28 16 C28 16.66 28 17.32 28 18 C28.99 18.33 29.98 18.66 31 19 C31 19.66 31 20.32 31 21 C31.66 21 32.32 21 33 21 C33 21.66 33 22.32 33 23 C33.66 23 34.32 23 35 23 C35 23.66 35 24.32 35 25 C30.581 24.581 28.25 21.552 25.375 18.5 C22.043 14.797 22.043 14.797 18 12 C18 11.34 18 10.68 18 10 C16.35 9.34 14.7 8.68 13 8 C13 7.34 13 6.68 13 6 C9.775 4.263 6.487 3.109 3 2 C3 4.762 4.314 5.893 6 8 C4 7 2 6 0 5 C0.784 5.743 1.567 6.485 2.375 7.25 C5 10 5 10 6.062 12.188 C7.289 14.559 8.609 14.913 11 16 C12.75 17.5 12.75 17.5 14 19 C14 19.66 14 20.32 14 21 C14.583 21.228 15.165 21.456 15.766 21.691 C18.598 23.35 19.897 25.241 21.75 27.938 C22.364 28.813 22.977 29.688 23.609 30.59 C25 33 25 33 25 36 C24.34 36 23.68 36 23 36 C23 35.01 23 34.02 23 33 C22.34 33 21.68 33 21 33 C19.711 31.539 19.711 31.539 18.375 29.625 C17.929 28.999 17.483 28.372 17.023 27.727 C16 26 16 26 16 24 C15.01 23.67 14.02 23.34 13 23 C11.246 21.188 11.246 21.188 9.438 19 C7.078 16.05 7.078 16.05 4 14 C4 13.34 4 12.68 4 12 C3.34 12 2.68 12 2 12 C2 11.34 2 10.68 2 10 C-0.475 9.01 -0.475 9.01 -3 8 C-2.453 4.625 -1.945 2.918 0 0 Z " fill="#000000" transform="translate(127,129)"/>
<path d="M0 0 C0.66 0 1.32 0 2 0 C2.66 13.2 3.32 26.4 4 40 C5.485 39.505 5.485 39.505 7 39 C7.923 36.907 7.923 36.907 8.5 34.375 C9.692 30.026 11.017 26.053 13 22 C13.66 21.67 14.32 21.34 15 21 C14.227 29.698 12.296 37.602 5.438 43.438 C0.438 47.043 -4.941 49.72 -11 51 C-11.99 50.67 -12.98 50.34 -14 50 C-10.13 47.503 -6.134 45.714 -1.891 43.965 C0.174 43.147 0.174 43.147 1 41 C1.097 39.386 1.131 37.769 1.133 36.152 C1.135 35.162 1.137 34.171 1.139 33.15 C1.134 32.09 1.13 31.03 1.125 29.938 C1.123 28.863 1.121 27.789 1.119 26.682 C1.071 17.76 0.677 8.894 0 0 Z " fill="#000000" transform="translate(173,118)"/>
<path d="M0 0 C0 0.99 0 1.98 0 3 C-1.345 4.259 -1.345 4.259 -3.211 5.48 C-3.879 5.922 -4.546 6.363 -5.234 6.818 C-6.294 7.496 -6.294 7.496 -7.375 8.188 C-8.074 8.651 -8.772 9.114 -9.492 9.592 C-14.712 13 -14.712 13 -17 13 C-17 13.66 -17 14.32 -17 15 C-18.453 16.221 -18.453 16.221 -20.465 17.566 C-21.182 18.052 -21.9 18.537 -22.639 19.037 C-23.777 19.792 -23.777 19.792 -24.938 20.562 C-26.426 21.563 -27.915 22.564 -29.402 23.566 C-30.067 24.009 -30.732 24.452 -31.418 24.908 C-32.967 25.907 -32.967 25.907 -34 27 C-36.333 27.041 -38.667 27.042 -41 27 C-39.68 26.34 -38.36 25.68 -37 25 C-37 24.34 -37 23.68 -37 23 C-36.105 22.504 -35.211 22.007 -34.289 21.496 C-27.825 17.877 -21.609 14.154 -15.598 9.809 C-10.554 6.297 -5.26 3.174 0 0 Z " fill="#FFFFFF" transform="translate(67,253)"/>
<path d="M0 0 C4.845 2.592 9.399 5.536 13.938 8.625 C14.529 9.021 15.121 9.418 15.731 9.826 C17.192 10.832 18.601 11.91 20 13 C20 13.66 20 14.32 20 15 C23.465 14.505 23.465 14.505 27 14 C27 14.66 27 15.32 27 16 C26.34 16.33 25.68 16.66 25 17 C26.65 17.33 28.3 17.66 30 18 C30 18.33 30 18.66 30 19 C26.04 19.66 22.08 20.32 18 21 C17.67 19.68 17.34 18.36 17 17 C14.935 15.005 14.935 15.005 12.438 13.25 C11.611 12.636 10.785 12.023 9.934 11.391 C9.296 10.932 8.657 10.473 8 10 C8.33 9.34 8.66 8.68 9 8 C8.01 8 7.02 8 6 8 C3.813 7 3.813 7 2 6 C2 5.01 2 4.02 2 3 C1.34 2.67 0.68 2.34 0 2 C0 1.34 0 0.68 0 0 Z " fill="#373737" transform="translate(3,262)"/>
<path d="M0 0 C0.99 0.33 1.98 0.66 3 1 C1.68 1.99 0.36 2.98 -1 4 C-0.67 4.66 -0.34 5.32 0 6 C-2.52 6.962 -5.041 7.92 -7.562 8.875 C-8.267 9.144 -8.971 9.414 -9.697 9.691 C-22.053 14.36 -22.053 14.36 -28 14 C-27.361 13.876 -26.721 13.752 -26.062 13.625 C-25.382 13.419 -24.701 13.212 -24 13 C-23.67 12.34 -23.34 11.68 -23 11 C-21.025 9.952 -19.025 8.948 -17 8 C-17.66 7.34 -18.32 6.68 -19 6 C-17.796 5.651 -16.592 5.301 -15.352 4.941 C-13.776 4.482 -12.2 4.022 -10.625 3.562 C-9.831 3.332 -9.037 3.102 -8.219 2.865 C-7.458 2.643 -6.698 2.421 -5.914 2.191 C-5.212 1.987 -4.511 1.783 -3.788 1.573 C-1.925 1.026 -1.925 1.026 0 0 Z " fill="#4C4C4C" transform="translate(209,278)"/>
<path d="M0 0 C0.99 0.495 0.99 0.495 2 1 C2.411 3.211 2.411 3.211 2.633 6.16 C2.717 7.253 2.801 8.346 2.888 9.473 C2.966 10.657 3.044 11.842 3.125 13.062 C3.25 14.868 3.25 14.868 3.378 16.711 C3.908 24.973 4.208 33.221 4.25 41.5 C4.264 43.02 4.264 43.02 4.278 44.571 C4.274 45.506 4.27 46.442 4.266 47.406 C4.263 48.224 4.261 49.042 4.259 49.885 C4 52 4 52 2 55 C1.34 54.67 0.68 54.34 0 54 C0.351 52.762 0.701 51.525 1.062 50.25 C1.88 46.558 2.006 43.502 1.594 39.75 C0.833 31.759 0.651 23.77 0.438 15.75 C0.394 14.215 0.351 12.68 0.307 11.145 C0.201 7.43 0.099 3.715 0 0 Z " fill="#FFFFFF" transform="translate(171,107)"/>
<path d="M0 0 C0.66 0.33 1.32 0.66 2 1 C2 4.96 2 8.92 2 13 C1.67 13 1.34 13 1 13 C1 9.37 1 5.74 1 2 C-0.299 2.681 -0.299 2.681 -1.625 3.375 C-4.715 4.863 -7.729 5.988 -11 7 C-9.35 7.99 -7.7 8.98 -6 10 C-7.939 10 -9.878 9.941 -11.812 9.812 C-15.533 10.031 -17.725 11.292 -21 13 C-22.32 13 -23.64 13 -25 13 C-25 12.34 -25 11.68 -25 11 C-27.31 11.33 -29.62 11.66 -32 12 C-24.085 7.869 -15.38 5.439 -6.848 2.93 C-4.039 2.1 -4.039 2.1 -1.746 0.82 C-0.882 0.414 -0.882 0.414 0 0 Z " fill="#030303" transform="translate(256,276)"/>
<path d="M0 0 C2.625 -0.188 2.625 -0.188 5 0 C6.951 2.87 6.989 4.126 6.688 7.688 C6 11 6 11 5 12 C2.562 12.25 2.562 12.25 0 12 C-2.313 8.53 -2.34 7.075 -2 3 C-1.34 2.01 -0.68 1.02 0 0 Z " fill="#000000" transform="translate(263,293)"/>
<path d="M0 0 C-2 1 -4 2 -6 3 C-5.01 3.66 -4.02 4.32 -3 5 C-5.354 5.794 -7.708 6.585 -10.062 7.375 C-10.719 7.597 -11.376 7.818 -12.053 8.047 C-24.796 12.315 -24.796 12.315 -30 12 C-27.302 10.381 -25.58 9.957 -22.375 9.625 C-21.261 9.419 -20.148 9.212 -19 9 C-17.833 7.083 -17.833 7.083 -17 5 C-14.375 3.75 -14.375 3.75 -12 3 C-13.32 2.34 -14.64 1.68 -16 1 C-5.626 -1.481 -5.626 -1.481 0 0 Z " fill="#767676" transform="translate(220,280)"/>
<path d="M0 0 C2.625 -0.188 2.625 -0.188 5 0 C6.753 2.681 7.013 3.869 6.688 7.125 C6 10 6 10 5 12 C2.625 12.188 2.625 12.188 0 12 C-2.313 8.53 -2.34 7.075 -2 3 C-1.34 2.01 -0.68 1.02 0 0 Z " fill="#000000" transform="translate(273,293)"/>
<path d="M0 0 C6.913 2.026 13.103 4.957 19.504 8.23 C24.269 10.642 29.119 12.835 34 15 C34.884 15.394 35.769 15.789 36.68 16.195 C38.785 17.133 40.892 18.068 43 19 C40.416 19.971 39.242 20.082 36.59 19.18 C35.715 18.749 34.839 18.319 33.938 17.875 C32.482 17.175 32.482 17.175 30.996 16.461 C30.007 15.979 29.019 15.497 28 15 C26.169 14.161 24.336 13.327 22.5 12.5 C19.678 11.218 16.857 9.935 14.039 8.645 C13.077 8.205 12.116 7.765 11.125 7.312 C10.261 6.917 9.398 6.521 8.508 6.113 C5.987 4.953 5.987 4.953 3.242 4.043 C2.502 3.699 1.762 3.355 1 3 C0.67 2.01 0.34 1.02 0 0 Z " fill="#FFFFFF" transform="translate(87,271)"/>
<path d="M0 0 C0 0.66 0 1.32 0 2 C-5.968 3.851 -11.938 5.69 -17.93 7.461 C-30.125 11.066 -30.125 11.066 -42.102 15.336 C-44 16 -44 16 -46 16 C-46 15.34 -46 14.68 -46 14 C-40.049 11.783 -34.138 9.637 -28 8 C-28 7.34 -28 6.68 -28 6 C-27.154 5.865 -26.309 5.729 -25.438 5.59 C-21.939 4.989 -18.473 4.297 -15 3.562 C-13.824 3.316 -12.649 3.07 -11.438 2.816 C-7.666 1.921 -3.871 0 0 0 Z " fill="#F9F9F9" transform="translate(201,287)"/>
<path d="M0 0 C-1.32 0.99 -2.64 1.98 -4 3 C-2.02 3 -0.04 3 2 3 C-0.597 5.597 -2.938 6.107 -6.438 7.188 C-7.591 7.552 -8.745 7.917 -9.934 8.293 C-13 9 -13 9 -16 8 C-14.68 7.34 -13.36 6.68 -12 6 C-12.66 4.68 -13.32 3.36 -14 2 C-4.59 -1.629 -4.59 -1.629 0 0 Z " fill="#1D1D1D" transform="translate(246,271)"/>
<path d="M0 0 C0.99 0.99 1.98 1.98 3 3 C0.03 3.66 -2.94 4.32 -6 5 C-6 5.66 -6 6.32 -6 7 C-5.34 7.33 -4.68 7.66 -4 8 C-4 8.66 -4 9.32 -4 10 C-4.99 10 -5.98 10 -7 10 C-7.66 10.66 -8.32 11.32 -9 12 C-9.201 8.284 -9.152 7.228 -7 4 C-6.01 4 -5.02 4 -4 4 C-4 3.34 -4 2.68 -4 2 C-4.818 2.307 -4.818 2.307 -5.652 2.621 C-11.154 4.587 -16.176 5.538 -22 6 C-22 5.01 -22 4.02 -22 3 C-20.966 3.325 -20.966 3.325 -19.91 3.656 C-16.1 4.106 -13.934 3.023 -10.438 1.5 C-3.347 -1.582 -3.347 -1.582 0 0 Z " fill="#000000" transform="translate(161,296)"/>
<path d="M0 0 C0.33 1.32 0.66 2.64 1 4 C0.34 4 -0.32 4 -1 4 C-1 3.34 -1 2.68 -1 2 C-2.65 2.33 -4.3 2.66 -6 3 C-3.237 4.984 -3.237 4.984 -0.875 5.875 C1 7 1 7 1.875 9 C1.937 9.99 1.937 9.99 2 11 C0 13 0 13 -3.625 13.125 C-4.739 13.084 -5.852 13.043 -7 13 C-7.33 11.68 -7.66 10.36 -8 9 C-7.67 9.66 -7.34 10.32 -7 11 C-5.02 11 -3.04 11 -1 11 C-1.33 10.01 -1.66 9.02 -2 8 C-5.008 6.775 -5.008 6.775 -8 6 C-8 4.35 -8 2.7 -8 1 C-5.291 -0.354 -2.991 -0.065 0 0 Z " fill="#000000" transform="translate(244,292)"/>
<path d="M0 0 C-0.33 0.66 -0.66 1.32 -1 2 C-1.66 1.67 -2.32 1.34 -3 1 C-5.117 1.061 -5.117 1.061 -7.438 1.375 C-8.22 1.465 -9.002 1.555 -9.809 1.648 C-12.169 1.967 -12.169 1.967 -15 3 C-17 2 -17 2 -18 0 C-21.3 0.66 -24.6 1.32 -28 2 C-21.548 -4.452 -7.348 -4.899 0 0 Z " fill="#111111" transform="translate(190,305)"/>
<path d="M0 0 C0.66 0.33 1.32 0.66 2 1 C1.453 4.375 0.945 6.082 -1 9 C-1.242 11.516 -1.242 11.516 -1.125 14.188 C-1.107 15.089 -1.089 15.99 -1.07 16.918 C-1.047 17.605 -1.024 18.292 -1 19 C-1.66 19 -2.32 19 -3 19 C-5.109 15.572 -5.399 12.991 -5 9 C-3.588 5.728 -1.976 2.965 0 0 Z " fill="#252525" transform="translate(229,289)"/>
<path d="M0 0 C2 -0.043 4 -0.041 6 0 C7 1 7 1 7.312 3.375 C7 6 7 6 5 7.812 C4.34 8.204 3.68 8.596 3 9 C4.32 9.33 5.64 9.66 7 10 C7 10.66 7 11.32 7 12 C4.36 12 1.72 12 -1 12 C-0.441 8.757 0.413 7.069 3 5 C3.66 5 4.32 5 5 5 C4.34 4.01 3.68 3.02 3 2 C2.34 2 1.68 2 1 2 C1 2.66 1 3.32 1 4 C0.34 4 -0.32 4 -1 4 C-0.67 2.68 -0.34 1.36 0 0 Z " fill="#000000" transform="translate(282,293)"/>
<path d="M0 0 C1 1 1 1 1.312 3.375 C1 6 1 6 -1 7.812 C-1.66 8.204 -2.32 8.596 -3 9 C-1.68 9.33 -0.36 9.66 1 10 C1 10.66 1 11.32 1 12 C-1.64 12 -4.28 12 -7 12 C-6.614 9.202 -6.199 8.179 -4.062 6.25 C-2 5 -2 5 0 5 C0 4.01 0 3.02 0 2 C-1.65 2 -3.3 2 -5 2 C-5 2.66 -5 3.32 -5 4 C-5.66 4 -6.32 4 -7 4 C-7 3.01 -7 2.02 -7 1 C-4.516 -0.242 -2.748 -0.141 0 0 Z " fill="#000000" transform="translate(317,293)"/>
<path d="M0 0 C2.31 0 4.62 0 7 0 C7 0.66 7 1.32 7 2 C5.35 2.33 3.7 2.66 2 3 C3.98 3.99 5.96 4.98 8 6 C7.125 10.875 7.125 10.875 6 12 C4.334 12.041 2.666 12.043 1 12 C1 11.01 1 10.02 1 9 C2.65 9.33 4.3 9.66 6 10 C6 8.68 6 7.36 6 6 C4.02 6 2.04 6 0 6 C0 4.02 0 2.04 0 0 Z " fill="#000000" transform="translate(301,293)"/>
<path d="M0 0 C0.66 0 1.32 0 2 0 C2 2.64 2 5.28 2 8 C2.66 8.33 3.32 8.66 4 9 C3.34 9 2.68 9 2 9 C1.67 9.99 1.34 10.98 1 12 C1 11.01 1 10.02 1 9 C-0.98 9 -2.96 9 -5 9 C-3.758 5.561 -2.443 2.748 0 0 Z " fill="#4A4A4A" transform="translate(295,293)"/>
<path d="M0 0 C-0.33 0.66 -0.66 1.32 -1 2 C-0.01 2.33 0.98 2.66 2 3 C-0.393 3.843 -2.789 4.674 -5.188 5.5 C-6.198 5.858 -6.198 5.858 -7.229 6.223 C-10.932 7.487 -14.079 8.305 -18 8 C-17.361 7.876 -16.721 7.752 -16.062 7.625 C-15.382 7.419 -14.701 7.212 -14 7 C-13.67 6.34 -13.34 5.68 -13 5 C-11.025 3.952 -9.025 2.948 -7 2 C-7.66 1.34 -8.32 0.68 -9 0 C-5.675 -1.108 -3.378 -0.845 0 0 Z " fill="#050505" transform="translate(199,284)"/>
<path d="M0 0 C1.32 0.33 2.64 0.66 4 1 C0.04 2.98 0.04 2.98 -4 5 C-3.67 5.99 -3.34 6.98 -3 8 C-5.97 8.66 -8.94 9.32 -12 10 C-12.66 8.35 -13.32 6.7 -14 5 C-13.073 4.723 -12.146 4.446 -11.191 4.16 C-9.994 3.798 -8.796 3.436 -7.562 3.062 C-6.368 2.703 -5.173 2.343 -3.941 1.973 C-1.141 1.291 -1.141 1.291 0 0 Z " fill="#101010" transform="translate(232,270)"/>
<path d="M0 0 C0 1.98 0 3.96 0 6 C-1.62 6.864 -3.246 7.716 -4.875 8.562 C-6.232 9.276 -6.232 9.276 -7.617 10.004 C-8.404 10.333 -9.19 10.661 -10 11 C-10.66 10.67 -11.32 10.34 -12 10 C-10.19 8.33 -8.377 6.664 -6.562 5 C-5.788 4.285 -5.788 4.285 -4.998 3.555 C-1.113 0 -1.113 0 0 0 Z " fill="#FFFFFF" transform="translate(171,152)"/>
<path d="M0 0 C0.99 0.33 1.98 0.66 3 1 C3 3.64 3 6.28 3 9 C2.01 9.33 1.02 9.66 0 10 C-2 8 -2 8 -2.25 5 C-2 2 -2 2 0 0 Z " fill="#FFFFFF" transform="translate(265,294)"/>
<path d="M0 0 C0 1.32 0 2.64 0 4 C-1.98 4.33 -3.96 4.66 -6 5 C-6 4.34 -6 3.68 -6 3 C-8.31 3.33 -10.62 3.66 -13 4 C-11.667 3.333 -10.333 2.667 -9 2 C-8.361 1.629 -7.721 1.257 -7.062 0.875 C-4.589 -0.174 -2.66 -0.148 0 0 Z " fill="#2A2A2A" transform="translate(237,284)"/>
<path d="M0 0 C2.915 1.074 4.778 1.778 7 4 C3.25 10.875 3.25 10.875 1 12 C0.67 11.67 0.34 11.34 0 11 C-0.99 10.67 -1.98 10.34 -3 10 C-2.34 10 -1.68 10 -1 10 C-1 9.34 -1 8.68 -1 8 C0.333 7 1.667 6 3 5 C3.226 2.876 3.226 2.876 1.5 1.375 C1.005 0.921 0.51 0.468 0 0 Z " fill="#070707" transform="translate(28,209)"/>
<path d="M0 0 C0.99 0 1.98 0 3 0 C3.8 3.287 4.097 4.71 3 8 C1.68 7.67 0.36 7.34 -1 7 C-1.043 5 -1.041 3 -1 1 C-0.67 0.67 -0.34 0.34 0 0 Z " fill="#FFFFFF" transform="translate(274,295)"/>
<path d="M0 0 C-0.598 0.124 -1.196 0.248 -1.812 0.375 C-4.262 0.955 -4.262 0.955 -7 3 C-9.688 2.625 -9.688 2.625 -12 2 C-11.67 1.01 -11.34 0.02 -11 -1 C-6.707 -2.263 -4.122 -1.63 0 0 Z " fill="#737373" transform="translate(192,288)"/>
<path d="M0 0 C-2.597 2.597 -4.938 3.107 -8.438 4.188 C-9.591 4.552 -10.745 4.917 -11.934 5.293 C-15 6 -15 6 -18 5 C-12.026 0.328 -7.518 -0.693 0 0 Z " fill="#525252" transform="translate(248,274)"/>
<path d="M0 0 C0 0.66 0 1.32 0 2 C1.32 2.33 2.64 2.66 4 3 C2.68 3 1.36 3 0 3 C0 3.66 0 4.32 0 5 C-1.98 5 -3.96 5 -6 5 C-6 3.68 -6 2.36 -6 1 C-3.924 0.447 -2.156 0 0 0 Z " fill="#777777" transform="translate(166,293)"/>
<path d="M0 0 C0.846 0.309 1.691 0.619 2.562 0.938 C6.05 2.015 9.382 2.566 13 3 C13 3.33 13 3.66 13 4 C10.69 4.33 8.38 4.66 6 5 C6.33 5.66 6.66 6.32 7 7 C4.506 5.796 2.319 4.546 0 3 C0 2.01 0 1.02 0 0 Z " fill="#090909" transform="translate(126,288)"/>
<path d="M0 0 C0.66 0.33 1.32 0.66 2 1 C1.67 1.66 1.34 2.32 1 3 C0.34 3 -0.32 3 -1 3 C-1 3.66 -1 4.32 -1 5 C-1.66 5 -2.32 5 -3 5 C-3.33 5.99 -3.66 6.98 -4 8 C-4.66 8 -5.32 8 -6 8 C-6.33 8.99 -6.66 9.98 -7 11 C-8.32 11 -9.64 11 -11 11 C-11 10.34 -11 9.68 -11 9 C-9.546 8.319 -9.546 8.319 -8.062 7.625 C-4.929 6.342 -4.929 6.342 -4 4 C-3.34 4 -2.68 4 -2 4 C-2 3.34 -2 2.68 -2 2 C-1.34 2 -0.68 2 0 2 C0 1.34 0 0.68 0 0 Z " fill="#000000" transform="translate(96,252)"/>
<path d="M0 0 C-1.125 1.5 -1.125 1.5 -3 3 C-6.188 3.188 -6.188 3.188 -9 3 C-9.33 2.01 -9.66 1.02 -10 0 C-6.305 -0.95 -3.695 -0.95 0 0 Z " fill="#9B9B9B" transform="translate(235,274)"/>
<path d="M0 0 C1.114 0.598 2.228 1.196 3.375 1.812 C4.001 2.149 4.628 2.485 5.273 2.832 C7 4 7 4 9 7 C7.188 7.688 7.188 7.688 5 8 C3.25 6.688 3.25 6.688 2 5 C2 4.34 2 3.68 2 3 C1.34 2.67 0.68 2.34 0 2 C0 1.34 0 0.68 0 0 Z " fill="#161616" transform="translate(3,262)"/>
<path d="M0 0 C-2.967 1.648 -5.656 2.443 -9 3 C-9.33 2.01 -9.66 1.02 -10 0 C-6.424 -1.238 -3.663 -0.749 0 0 Z " fill="#000000" transform="translate(220,280)"/>
<path d="M0 0 C2.97 0.99 5.94 1.98 9 3 C9 3.99 9 4.98 9 6 C4.752 5.528 2.8 3.033 0 0 Z " fill="#383838" transform="translate(16,275)"/>
</svg>
