<?xml version="1.0" encoding="UTF-8"?>
<!-- Generator: visioncortex VTracer 0.6.4 -->
<svg version="1.1" xmlns="http://www.w3.org/2000/svg" width="588" height="387">
<path d="M0 0 C194.04 0 388.08 0 588 0 C588 127.71 588 255.42 588 387 C393.96 387 199.92 387 0 387 C0 259.29 0 131.58 0 0 Z " fill="#FFFFFF" transform="translate(0,0)"/>
<path d="M0 0 C0.66 0 1.32 0 2 0 C2.171 0.605 2.343 1.209 2.519 1.833 C3.303 4.597 4.089 7.361 4.875 10.125 C5.144 11.076 5.414 12.028 5.691 13.008 C7.03 17.709 8.398 22.38 10 27 C9.34 27 8.68 27 8 27 C7.01 25.68 6.02 24.36 5 23 C5 26.63 5 30.26 5 34 C4.34 34 3.68 34 3 34 C3.33 34.66 3.66 35.32 4 36 C7.889 35.296 10.993 33.512 14.438 31.625 C15.55 31.019 16.662 30.413 17.809 29.789 C19.809 28.668 21.786 27.502 23.723 26.273 C26 25 26 25 29 25 C29 24.34 29 23.68 29 23 C31 22 33 21 35 20 C36.072 19.423 37.145 18.845 38.25 18.25 C39.157 17.838 40.065 17.425 41 17 C41.66 17.33 42.32 17.66 43 18 C40.313 19.584 37.625 21.167 34.938 22.75 C34.185 23.193 33.433 23.637 32.658 24.094 C31.16 24.976 29.661 25.855 28.16 26.732 C26.763 27.552 25.37 28.381 23.985 29.221 C19.327 32 19.327 32 16 32 C16 32.66 16 33.32 16 34 C14.02 34.99 14.02 34.99 12 36 C12.722 36.144 13.444 36.289 14.188 36.438 C18.415 38.786 20.227 42.578 22 47 C22 48.32 22 49.64 22 51 C22.66 50.67 23.32 50.34 24 50 C43.837 46.449 63.957 46.557 84.024 46.677 C87.102 46.691 90.181 46.686 93.26 46.68 C96.281 46.677 99.302 46.684 102.323 46.693 C103.737 46.697 105.152 46.698 106.567 46.697 C115.887 46.695 124.809 47.47 134 49 C135.799 49.275 137.598 49.548 139.398 49.816 C141.871 50.187 144.343 50.557 146.812 50.943 C160.779 53.008 174.89 53.146 188.979 53.389 C202.045 53.619 215.041 53.927 228.062 55.062 C239.281 56.009 250.466 56.246 261.72 56.299 C263.648 56.308 265.577 56.322 267.505 56.341 C270.204 56.364 272.902 56.367 275.602 56.363 C276.831 56.377 276.831 56.377 278.085 56.391 C280.594 56.406 280.594 56.406 284 56 C284.66 55.01 285.32 54.02 286 53 C286.66 53 287.32 53 288 53 C288.264 52.417 288.529 51.835 288.801 51.234 C290.048 48.911 291.423 47.204 293.188 45.25 C293.804 44.56 294.42 43.871 295.055 43.16 C295.697 42.447 296.339 41.734 297 41 C298.274 39.565 299.545 38.128 300.812 36.688 C301.376 36.052 301.939 35.416 302.52 34.762 C304.174 32.859 304.174 32.859 306 30 C310.287 30.39 314.109 30.935 318.168 32.383 C321.398 33.497 324.612 34.438 327.93 35.254 C340.927 38.6 340.927 38.6 343.895 42.473 C344.682 45.108 345.014 47.256 345 50 C345 51.32 345 52.64 345 54 C348.3 54.33 351.6 54.66 355 55 C355.062 54.113 355.124 53.226 355.188 52.312 C356.186 48.242 357.891 46.721 361 44 C361.33 43.67 361.66 43.34 362 43 C369.113 42.548 376.323 43.041 383.438 43.375 C384.206 43.406 384.975 43.437 385.767 43.468 C388.942 43.636 391.487 43.786 394.441 45.016 C399.066 46.795 404.142 46.361 409.051 46.391 C412.752 46.496 415.356 46.657 418.656 48.414 C421 51 421 51 422.276 53.45 C423.959 56.493 425.399 58.671 428 61 C433.494 62.395 438.803 62.268 444.438 62.125 C445.947 62.123 447.457 62.126 448.967 62.133 C452.646 62.141 456.322 62.087 460 62 C459.983 63.247 459.983 63.247 459.965 64.52 C459.956 65.606 459.947 66.693 459.938 67.812 C459.92 69.431 459.92 69.431 459.902 71.082 C459.864 74.065 459.864 74.065 461 77 C460.697 78.341 460.362 79.674 460 81 C460 82.32 460 83.64 460 85 C450.1 85 440.2 85 430 85 C429.67 86.32 429.34 87.64 429 89 C427.887 90.928 426.715 92.822 425.5 94.688 C424.871 95.661 424.242 96.634 423.594 97.637 C422 100 422 100 421 101 C414.233 102.23 407.777 101.937 401 101 C401.517 101.915 402.034 102.83 402.566 103.773 C403.232 104.974 403.898 106.174 404.562 107.375 C404.905 107.978 405.247 108.582 405.6 109.203 C406.461 110.77 407.237 112.383 408 114 C407.67 114.66 407.34 115.32 407 116 C402.753 108.913 398.825 101.806 395.359 94.301 C394.154 91.687 394.154 91.687 391 91 C391.33 89.35 391.66 87.7 392 86 C393.32 86.33 394.64 86.66 396 87 C396.124 87.907 396.247 88.815 396.375 89.75 C396.921 92.59 397.573 94.526 399 97 C401.724 90.772 402.514 85.646 402.438 78.875 C402.431 77.956 402.425 77.038 402.419 76.092 C402.183 65.723 400.285 56.5 394 48 C390.958 46.479 387.72 46.626 384.375 46.438 C383.315 46.373 383.315 46.373 382.234 46.307 C380.49 46.201 378.745 46.1 377 46 C377.598 47.093 378.196 48.186 378.812 49.312 C385.801 63.289 387.346 81.002 383 96 C382.34 97.65 381.68 99.3 381 101 C386.61 101 392.22 101 398 101 C398 101.99 398 102.98 398 104 C397.405 104.025 396.809 104.05 396.196 104.076 C393.505 104.192 390.815 104.315 388.125 104.438 C387.188 104.477 386.251 104.516 385.285 104.557 C384.389 104.599 383.493 104.64 382.57 104.684 C381.743 104.72 380.915 104.757 380.063 104.795 C377.938 104.882 377.938 104.882 376 106 C370.535 106.429 366.739 105.808 362 103 C358.458 98.767 356.649 94.23 355 89 C347.208 88.889 339.467 89.002 331.688 89.438 C330.941 89.477 330.194 89.516 329.424 89.556 C325.915 89.475 325.915 89.475 323 91 C321.481 91.072 319.958 91.084 318.438 91.062 C317.198 91.049 317.198 91.049 315.934 91.035 C314.976 91.018 314.976 91.018 314 91 C314 90.34 314 89.68 314 89 C313.322 89.154 312.644 89.307 311.945 89.465 C299.555 91.715 286.479 91.15 273.93 91.133 C272.151 91.133 270.372 91.134 268.593 91.136 C264.901 91.137 261.208 91.135 257.516 91.13 C252.793 91.125 248.07 91.128 243.347 91.134 C239.689 91.138 236.031 91.136 232.373 91.134 C230.631 91.133 228.888 91.134 227.146 91.136 C224.718 91.139 222.291 91.135 219.863 91.129 C219.152 91.131 218.441 91.133 217.709 91.136 C213.69 91.119 209.951 90.693 206 90 C203.434 89.795 200.881 89.621 198.312 89.485 C197.561 89.443 196.81 89.402 196.036 89.359 C193.543 89.224 191.049 89.097 188.555 88.973 C187.684 88.929 186.813 88.884 185.916 88.839 C164.656 87.785 143.397 87.597 122.116 87.457 C114.106 87.404 106.097 87.34 98.088 87.269 C95.335 87.247 92.582 87.23 89.829 87.214 C75.375 87.11 75.375 87.11 68.193 86.247 C64.016 85.776 59.815 85.647 55.617 85.465 C54.677 85.422 53.737 85.379 52.768 85.335 C49.804 85.2 46.839 85.069 43.875 84.938 C41.849 84.846 39.823 84.754 37.797 84.662 C32.865 84.439 27.932 84.218 23 84 C22.814 85.874 22.814 85.874 22.625 87.785 C22.17 92.375 20.288 95.712 17 99 C15.657 99.086 14.31 99.107 12.965 99.098 C12.156 99.094 11.347 99.091 10.514 99.088 C9.664 99.08 8.813 99.071 7.938 99.062 C7.083 99.058 6.229 99.053 5.35 99.049 C3.233 99.037 1.117 99.019 -1 99 C-1.99 100.98 -1.99 100.98 -3 103 C-7.219 103.196 -10.17 102.802 -14 101 C-14.495 102.98 -14.495 102.98 -15 105 C-15.66 105 -16.32 105 -17 105 C-17.66 106.65 -18.32 108.3 -19 110 C-19.626 110.049 -20.253 110.098 -20.898 110.148 C-22.124 110.261 -22.124 110.261 -23.375 110.375 C-24.187 110.445 -24.999 110.514 -25.836 110.586 C-28.203 110.829 -28.203 110.829 -30 113 C-33.12 111.96 -33.849 111.323 -36 109 C-36.722 108.319 -37.444 107.639 -38.188 106.938 C-40 105 -40 105 -40 103 C-41.051 103.119 -42.101 103.237 -43.184 103.359 C-58.595 104.87 -58.595 104.87 -65 100 C-73.276 90.636 -73.18 77.369 -73.188 65.562 C-73.2 64.577 -73.212 63.592 -73.225 62.576 C-73.243 53.302 -71.428 45.569 -68 37 C-67.34 37 -66.68 37 -66 37 C-65.67 36.01 -65.34 35.02 -65 34 C-62 32.875 -62 32.875 -59 32 C-58.67 31.67 -58.34 31.34 -58 31 C-55.647 30.927 -53.292 30.916 -50.938 30.938 C-49.647 30.947 -48.357 30.956 -47.027 30.965 C-46.028 30.976 -45.029 30.988 -44 31 C-43.536 30.072 -43.536 30.072 -43.062 29.125 C-42.375 27.75 -41.688 26.375 -41 25 C-36.489 24.662 -33.487 25.562 -29.348 27.277 C-25.574 28.439 -21.759 28.47 -17.832 28.594 C-15 29 -15 29 -12.469 30.551 C-9.485 32.303 -8.063 32.183 -4.688 31.688 C-3.804 31.568 -2.921 31.448 -2.012 31.324 C-1.348 31.217 -0.684 31.11 0 31 C0 30.01 0 29.02 0 28 C-0.647 27.822 -1.294 27.644 -1.961 27.461 C-2.634 26.979 -3.307 26.497 -4 26 C-4.416 23.424 -4.605 21.206 -4.625 18.625 C-4.668 12.536 -4.668 12.536 -7 7 C-7.66 7 -8.32 7 -9 7 C-9 6.34 -9 5.68 -9 5 C-8.434 4.723 -7.868 4.446 -7.285 4.16 C-6.185 3.617 -6.185 3.617 -5.062 3.062 C-3.966 2.523 -3.966 2.523 -2.848 1.973 C-1.038 1.136 -1.038 1.136 0 0 Z " fill="#282828" transform="translate(116,123)"/>
<path d="M0 0 C4.287 0.39 8.109 0.935 12.168 2.383 C15.398 3.497 18.612 4.438 21.93 5.254 C34.927 8.6 34.927 8.6 37.895 12.473 C38.682 15.108 39.014 17.256 39 20 C39 21.32 39 22.64 39 24 C42.3 24.33 45.6 24.66 49 25 C49.062 24.113 49.124 23.226 49.188 22.312 C50.186 18.242 51.891 16.721 55 14 C55.33 13.67 55.66 13.34 56 13 C63.113 12.548 70.323 13.041 77.438 13.375 C78.206 13.406 78.975 13.437 79.767 13.468 C82.942 13.636 85.487 13.786 88.441 15.016 C93.066 16.795 98.142 16.361 103.051 16.391 C106.752 16.496 109.356 16.657 112.656 18.414 C115 21 115 21 116.276 23.45 C117.959 26.493 119.399 28.671 122 31 C127.494 32.395 132.803 32.268 138.438 32.125 C139.947 32.123 141.457 32.126 142.967 32.133 C146.646 32.141 150.322 32.087 154 32 C153.983 33.247 153.983 33.247 153.965 34.52 C153.956 35.606 153.947 36.693 153.938 37.812 C153.92 39.431 153.92 39.431 153.902 41.082 C153.864 44.065 153.864 44.065 155 47 C154.697 48.341 154.362 49.674 154 51 C154 52.32 154 53.64 154 55 C144.1 55 134.2 55 124 55 C123.67 56.32 123.34 57.64 123 59 C121.887 60.928 120.715 62.822 119.5 64.688 C118.871 65.661 118.242 66.634 117.594 67.637 C116 70 116 70 115 71 C108.233 72.23 101.777 71.937 95 71 C95.517 71.915 96.034 72.83 96.566 73.773 C97.232 74.974 97.898 76.174 98.562 77.375 C98.905 77.978 99.247 78.582 99.6 79.203 C100.461 80.77 101.237 82.383 102 84 C101.67 84.66 101.34 85.32 101 86 C96.753 78.913 92.825 71.806 89.359 64.301 C88.154 61.687 88.154 61.687 85 61 C85.33 59.35 85.66 57.7 86 56 C87.32 56.33 88.64 56.66 90 57 C90.124 57.907 90.247 58.815 90.375 59.75 C90.921 62.59 91.573 64.526 93 67 C95.724 60.772 96.514 55.646 96.438 48.875 C96.431 47.956 96.425 47.038 96.419 46.092 C96.183 35.723 94.285 26.5 88 18 C84.958 16.479 81.72 16.626 78.375 16.438 C77.669 16.394 76.962 16.351 76.234 16.307 C74.49 16.201 72.745 16.1 71 16 C71.598 17.093 72.196 18.186 72.812 19.312 C79.801 33.289 81.346 51.002 77 66 C76.34 67.65 75.68 69.3 75 71 C80.61 71 86.22 71 92 71 C92 71.99 92 72.98 92 74 C91.405 74.025 90.809 74.05 90.196 74.076 C87.505 74.192 84.815 74.315 82.125 74.438 C81.188 74.477 80.251 74.516 79.285 74.557 C78.389 74.599 77.493 74.64 76.57 74.684 C75.743 74.72 74.915 74.757 74.063 74.795 C71.938 74.882 71.938 74.882 70 76 C64.535 76.429 60.739 75.808 56 73 C52.458 68.767 50.649 64.23 49 59 C41.208 58.889 33.467 59.002 25.688 59.438 C24.941 59.477 24.194 59.516 23.424 59.556 C19.915 59.475 19.915 59.475 17 61 C15.481 61.072 13.958 61.084 12.438 61.062 C11.611 61.053 10.785 61.044 9.934 61.035 C9.296 61.024 8.657 61.012 8 61 C8 60.34 8 59.68 8 59 C7.327 59.154 6.654 59.307 5.96 59.465 C-5.155 61.473 -16.937 61.165 -28.188 61.125 C-29.215 61.123 -29.215 61.123 -30.262 61.121 C-42.178 61.097 -54.088 60.871 -66 60.562 C-66.79 60.543 -67.579 60.523 -68.392 60.503 C-76.303 60.302 -84.148 60.062 -92 59 C-92 58.67 -92 58.34 -92 58 C-81.77 58 -71.54 58 -61 58 C-66.723 57.845 -66.723 57.845 -72.562 57.688 C-80.98 57.424 -89.359 57.021 -97.75 56.301 C-98.876 56.204 -98.876 56.204 -100.025 56.106 C-101.578 55.972 -103.132 55.838 -104.686 55.704 C-129.424 53.579 -154.182 53.264 -179 53 C-179 52.67 -179 52.34 -179 52 C-166.926 50.946 -154.863 50.668 -142.75 50.438 C-141.695 50.416 -140.639 50.395 -139.552 50.373 C-112.036 49.831 -84.52 49.901 -57 50 C-57 49.34 -57 48.68 -57 48 C-59.64 47.67 -62.28 47.34 -65 47 C-65 46.67 -65 46.34 -65 46 C-57.74 46 -50.48 46 -43 46 C-43 45.34 -43 44.68 -43 44 C-44.65 43.67 -46.3 43.34 -48 43 C-48 42.67 -48 42.34 -48 42 C-45.03 41.505 -45.03 41.505 -42 41 C-42 40.67 -42 40.34 -42 40 C-39.03 39.505 -39.03 39.505 -36 39 C-46.89 38.34 -57.78 37.68 -69 37 C-69 36.67 -69 36.34 -69 36 C-54.81 36 -40.62 36 -26 36 C-26 34.02 -26 32.04 -26 30 C-25.67 30.66 -25.34 31.32 -25 32 C-23.68 32 -22.36 32 -21 32 C-20.67 31.34 -20.34 30.68 -20 30 C-11.75 30 -3.5 30 5 30 C6.158 26.525 5.773 24.863 5.062 21.312 C4.771 19.822 4.771 19.822 4.473 18.301 C4.317 17.542 4.161 16.782 4 16 C4.33 18.97 4.66 21.94 5 25 C3.02 25 1.04 25 -1 25 C-0.67 19.72 -0.34 14.44 0 9 C-0.66 15.27 -1.32 21.54 -2 28 C-4.97 28 -7.94 28 -11 28 C-11 27.67 -11 27.34 -11 27 C-8.36 27 -5.72 27 -3 27 C-3 26.34 -3 25.68 -3 25 C-3.987 25.072 -4.975 25.144 -5.992 25.219 C-7.274 25.312 -8.555 25.404 -9.875 25.5 C-11.151 25.593 -12.427 25.686 -13.742 25.781 C-15.492 25.899 -17.246 26 -19 26 C-19 25.34 -19 24.68 -19 24 C-18.34 24 -17.68 24 -17 24 C-16.732 23.402 -16.464 22.804 -16.188 22.188 C-15 20 -15 20 -13.5 18.562 C-11.842 17.05 -11.842 17.05 -11.191 14.727 C-9.761 11.453 -7.882 9.406 -5.438 6.812 C-2.358 3.658 -2.358 3.658 0 0 Z " fill="#343434" transform="translate(422,153)"/>
<path d="M0 0 C0.66 0 1.32 0 2 0 C2.171 0.605 2.343 1.209 2.519 1.833 C3.303 4.597 4.089 7.361 4.875 10.125 C5.144 11.076 5.414 12.028 5.691 13.008 C7.03 17.709 8.398 22.38 10 27 C9.34 27 8.68 27 8 27 C7.01 25.68 6.02 24.36 5 23 C5 26.63 5 30.26 5 34 C4.34 34 3.68 34 3 34 C3.33 34.66 3.66 35.32 4 36 C7.889 35.296 10.993 33.512 14.438 31.625 C15.55 31.019 16.662 30.413 17.809 29.789 C19.809 28.668 21.786 27.502 23.723 26.273 C26 25 26 25 29 25 C29 24.34 29 23.68 29 23 C31 22 33 21 35 20 C36.072 19.423 37.145 18.845 38.25 18.25 C39.157 17.838 40.065 17.425 41 17 C41.66 17.33 42.32 17.66 43 18 C40.313 19.584 37.625 21.167 34.938 22.75 C34.185 23.193 33.433 23.637 32.658 24.094 C31.16 24.976 29.661 25.855 28.16 26.732 C26.763 27.552 25.37 28.381 23.985 29.221 C19.327 32 19.327 32 16 32 C16 32.66 16 33.32 16 34 C14.35 34.66 12.7 35.32 11 36 C11.907 36.619 12.815 37.238 13.75 37.875 C19.363 42.559 21.047 49.673 21.823 56.696 C22.171 61.232 22.185 65.765 22.188 70.312 C22.2 71.281 22.212 72.25 22.225 73.248 C22.238 80.031 21.466 86.38 20 93 C19.855 93.722 19.709 94.445 19.559 95.189 C19 97 19 97 17 99 C15.121 99.227 15.121 99.227 12.867 99.195 C12.062 99.189 11.256 99.182 10.426 99.176 C9.584 99.159 8.742 99.142 7.875 99.125 C7.026 99.116 6.176 99.107 5.301 99.098 C3.2 99.074 1.1 99.038 -1 99 C-1.99 100.98 -1.99 100.98 -3 103 C-7.219 103.196 -10.17 102.802 -14 101 C-14.495 102.98 -14.495 102.98 -15 105 C-15.66 105 -16.32 105 -17 105 C-17.66 106.65 -18.32 108.3 -19 110 C-19.626 110.049 -20.253 110.098 -20.898 110.148 C-22.124 110.261 -22.124 110.261 -23.375 110.375 C-24.187 110.445 -24.999 110.514 -25.836 110.586 C-28.203 110.829 -28.203 110.829 -30 113 C-33.12 111.96 -33.849 111.323 -36 109 C-36.722 108.319 -37.444 107.639 -38.188 106.938 C-40 105 -40 105 -40 103 C-41.051 103.119 -42.101 103.237 -43.184 103.359 C-58.595 104.87 -58.595 104.87 -65 100 C-73.276 90.636 -73.18 77.369 -73.188 65.562 C-73.2 64.577 -73.212 63.592 -73.225 62.576 C-73.243 53.302 -71.428 45.569 -68 37 C-67.34 37 -66.68 37 -66 37 C-65.67 36.01 -65.34 35.02 -65 34 C-62 32.875 -62 32.875 -59 32 C-58.67 31.67 -58.34 31.34 -58 31 C-55.647 30.927 -53.292 30.916 -50.938 30.938 C-49.647 30.947 -48.357 30.956 -47.027 30.965 C-46.028 30.976 -45.029 30.988 -44 31 C-43.536 30.072 -43.536 30.072 -43.062 29.125 C-42.375 27.75 -41.688 26.375 -41 25 C-36.489 24.662 -33.487 25.562 -29.348 27.277 C-25.574 28.439 -21.759 28.47 -17.832 28.594 C-15 29 -15 29 -12.469 30.551 C-9.485 32.303 -8.063 32.183 -4.688 31.688 C-3.804 31.568 -2.921 31.448 -2.012 31.324 C-1.348 31.217 -0.684 31.11 0 31 C0 30.01 0 29.02 0 28 C-0.647 27.822 -1.294 27.644 -1.961 27.461 C-2.634 26.979 -3.307 26.497 -4 26 C-4.416 23.424 -4.605 21.206 -4.625 18.625 C-4.668 12.536 -4.668 12.536 -7 7 C-7.66 7 -8.32 7 -9 7 C-9 6.34 -9 5.68 -9 5 C-8.434 4.723 -7.868 4.446 -7.285 4.16 C-6.185 3.617 -6.185 3.617 -5.062 3.062 C-3.966 2.523 -3.966 2.523 -2.848 1.973 C-1.038 1.136 -1.038 1.136 0 0 Z " fill="#141414" transform="translate(116,123)"/>
<path d="M0 0 C0.995 0.017 1.99 0.034 3.015 0.052 C5.857 0.103 8.698 0.168 11.539 0.238 C12.402 0.253 13.266 0.268 14.155 0.283 C20.145 0.457 20.145 0.457 22.375 2.688 C21.223 2.713 20.071 2.738 18.885 2.763 C-9.759 3.358 -9.759 3.358 -38.385 4.478 C-39.181 4.517 -39.976 4.556 -40.795 4.597 C-41.399 4.627 -42.003 4.657 -42.625 4.688 C-41.609 4.658 -40.593 4.628 -39.547 4.598 C-14.316 3.873 10.895 3.525 36.136 3.557 C40.688 3.563 45.239 3.559 49.791 3.554 C66.654 3.536 83.508 3.582 100.363 4.133 C101.55 4.172 102.736 4.21 103.959 4.25 C110.464 4.494 116.908 4.943 123.375 5.688 C120.135 8.276 118.483 9.06 114.297 9.016 C112.813 9.009 112.813 9.009 111.299 9.002 C109.728 8.97 109.728 8.97 108.125 8.938 C106.523 8.921 106.523 8.921 104.889 8.904 C96.362 8.786 87.873 8.387 79.375 7.688 C79.375 8.347 79.375 9.007 79.375 9.688 C80.529 9.68 80.529 9.68 81.707 9.672 C109.956 9.505 109.956 9.505 122.375 10.688 C122.375 11.018 122.375 11.347 122.375 11.688 C100.843 11.879 100.843 11.879 90.375 10.688 C90.375 11.347 90.375 12.007 90.375 12.688 C89.78 12.698 89.184 12.708 88.571 12.719 C82.308 12.828 76.045 12.942 69.782 13.06 C67.452 13.103 65.123 13.145 62.793 13.185 C46.246 13.462 46.246 13.462 29.732 14.449 C22.417 14.969 15.08 15.08 7.75 15.25 C6.875 15.271 6 15.292 5.099 15.313 C-76.726 17.22 -76.726 17.22 -93.625 13.688 C-96.232 13.469 -98.827 13.277 -101.438 13.125 C-102.477 13.06 -102.477 13.06 -103.537 12.994 C-105.233 12.889 -106.929 12.788 -108.625 12.688 C-108.625 12.357 -108.625 12.028 -108.625 11.688 C-76.285 11.688 -43.945 11.688 -10.625 11.688 C-43.955 11.357 -77.285 11.028 -111.625 10.688 C-111.625 8.708 -111.625 6.727 -111.625 4.688 C-110.977 4.652 -110.328 4.617 -109.66 4.58 C-102.895 4.211 -96.13 3.837 -89.365 3.461 C-86.843 3.321 -84.32 3.182 -81.797 3.045 C-78.165 2.846 -74.534 2.644 -70.902 2.441 C-69.218 2.351 -69.218 2.351 -67.499 2.258 C-62.152 1.956 -56.922 1.509 -51.625 0.688 C-34.473 -0.735 -17.187 -0.345 0 0 Z " fill="#868686" transform="translate(251.625,186.3125)"/>
<path d="M0 0 C0.812 -0.029 1.624 -0.058 2.461 -0.088 C6.132 -0.127 8.609 -0.026 11.891 1.707 C14.25 4.312 14.25 4.312 15.527 6.764 C17.209 9.807 18.65 11.984 21.25 14.312 C26.744 15.707 32.053 15.58 37.688 15.438 C39.197 15.436 40.707 15.438 42.217 15.445 C45.896 15.453 49.572 15.4 53.25 15.312 C53.25 18.942 53.25 22.572 53.25 26.312 C47.31 26.312 41.37 26.312 35.25 26.312 C35.106 27.777 34.961 29.241 34.812 30.75 C34.375 35.188 34.375 35.188 33.25 36.312 C31.731 36.384 30.208 36.396 28.688 36.375 C27.861 36.366 27.035 36.357 26.184 36.348 C25.546 36.336 24.907 36.324 24.25 36.312 C24.057 35.12 23.863 33.928 23.664 32.699 C23.401 31.133 23.138 29.566 22.875 28 C22.749 27.214 22.622 26.429 22.492 25.619 C22.363 24.862 22.234 24.104 22.102 23.324 C21.986 22.628 21.871 21.931 21.752 21.214 C21.278 19.004 21.278 19.004 19.25 16.312 C18.46 19.75 18.165 22.812 18.293 26.332 C18.314 27.272 18.336 28.213 18.357 29.182 C18.41 31.133 18.475 33.083 18.553 35.033 C18.663 41.012 18.335 46.594 14.25 51.312 C12.11 52.023 12.11 52.023 10.25 52.312 C10.467 51.762 10.683 51.212 10.906 50.645 C14.219 40.752 13.53 30.607 13.25 20.312 C12.59 20.312 11.93 20.312 11.25 20.312 C11.497 21.736 11.497 21.736 11.75 23.188 C12.991 32.147 13.528 44.518 8.25 52.312 C6.176 52.921 6.176 52.921 4.25 53.312 C4.539 52.164 4.827 51.015 5.125 49.832 C7.395 40.457 8.866 32.005 8.25 22.312 C7.59 22.312 6.93 22.312 6.25 22.312 C6.26 22.882 6.271 23.451 6.282 24.037 C6.324 26.65 6.349 29.262 6.375 31.875 C6.392 32.77 6.409 33.666 6.426 34.588 C6.472 40.896 6.3 46.457 2.5 51.75 C-0.395 53.76 -2.3 53.626 -5.75 53.312 C-5.286 52.292 -5.286 52.292 -4.812 51.25 C-2.593 45.114 -2.592 38.818 -2.625 32.375 C-2.621 31.615 -2.617 30.855 -2.613 30.072 C-2.631 19.823 -3.875 9.985 -9.75 1.312 C-7.597 -0.841 -2.97 0.035 0 0 Z " fill="#030303" transform="translate(522.75,169.6875)"/>
<path d="M0 0 C7.92 0 15.84 0 24 0 C24 0.66 24 1.32 24 2 C24.66 2 25.32 2 26 2 C28.943 5.955 30.12 10.261 31.188 15 C31.362 15.769 31.536 16.538 31.716 17.33 C33.656 26.83 33.342 36.356 33 46 C30.69 46 28.38 46 26 46 C25.963 45.31 25.925 44.621 25.887 43.91 C25.178 33.78 22.7 26.607 17.207 18.066 C16 16 16 16 16 14 C15.01 14 14.02 14 13 14 C13.164 15.185 13.327 16.369 13.496 17.59 C14.235 24.237 14.107 30.883 14.062 37.562 C14.058 38.857 14.053 40.152 14.049 41.486 C14.037 44.658 14.019 47.829 14 51 C19.61 51.33 25.22 51.66 31 52 C29.742 60.808 29.742 60.808 27 64 C24.365 64.568 24.365 64.568 21.238 64.488 C20.12 64.472 19.002 64.456 17.85 64.439 C16.682 64.398 15.515 64.356 14.312 64.312 C13.134 64.29 11.955 64.267 10.74 64.244 C7.826 64.185 4.913 64.103 2 64 C2.274 63.437 2.548 62.873 2.831 62.293 C10.019 46.954 9.841 26.77 4.977 10.598 C4.285 8.732 3.565 6.877 2.805 5.039 C2 3 2 3 2 1 C1.34 0.67 0.68 0.34 0 0 Z " fill="#FFFFFF" transform="translate(58,159)"/>
<path d="M0 0 C3.543 0.081 7.083 0.194 10.625 0.312 C11.624 0.335 12.623 0.358 13.652 0.381 C19.067 0.578 23.43 0.768 28 4 C29.914 6.792 30.648 9.944 31.562 13.188 C32.284 16.371 32.284 16.371 34 19 C34.907 24.716 35.154 30.283 35.125 36.062 C35.131 37.208 35.131 37.208 35.137 38.377 C35.115 50.808 35.115 50.808 32 56 C34.31 56 36.62 56 39 56 C42.996 46.449 42.732 36.185 43 26 C43.66 26 44.32 26 45 26 C46.181 34.565 45.795 41.707 43.691 50.102 C42.884 52.99 42.884 52.99 43 56 C43.66 56 44.32 56 45 56 C47.654 45.145 48.368 35.142 48 24 C48.66 24 49.32 24 50 24 C53.35 34.049 51.594 46.69 47 56 C50.334 55.231 50.334 55.231 52.18 51.703 C54.772 46.173 54.365 40.736 54.125 34.75 C54.056 32.62 53.996 30.49 53.945 28.359 C53.891 26.959 53.891 26.959 53.836 25.53 C54.01 22.851 54.633 21.284 56 19 C59.675 22.746 59.738 26.773 60.188 31.75 C60.269 32.543 60.351 33.336 60.436 34.152 C60.635 36.1 60.819 38.05 61 40 C65.455 39.505 65.455 39.505 70 39 C70.66 36.03 71.32 33.06 72 30 C77.94 30.33 83.88 30.66 90 31 C91.083 34.249 90.853 34.873 90 38 C90 39.32 90 40.64 90 42 C80.1 42 70.2 42 60 42 C59.67 43.32 59.34 44.64 59 46 C57.887 47.928 56.715 49.822 55.5 51.688 C54.871 52.661 54.242 53.634 53.594 54.637 C52 57 52 57 51 58 C44.233 59.23 37.777 58.937 31 58 C31.517 58.915 32.034 59.83 32.566 60.773 C33.232 61.974 33.898 63.174 34.562 64.375 C34.905 64.978 35.247 65.582 35.6 66.203 C36.461 67.77 37.237 69.383 38 71 C37.67 71.66 37.34 72.32 37 73 C32.753 65.913 28.825 58.806 25.359 51.301 C24.154 48.687 24.154 48.687 21 48 C21.33 46.35 21.66 44.7 22 43 C23.32 43.33 24.64 43.66 26 44 C26.124 44.907 26.247 45.815 26.375 46.75 C26.921 49.59 27.573 51.526 29 54 C31.724 47.772 32.514 42.646 32.438 35.875 C32.431 34.956 32.425 34.038 32.419 33.092 C32.183 22.723 30.285 13.5 24 5 C20.958 3.479 17.72 3.626 14.375 3.438 C13.669 3.394 12.962 3.351 12.234 3.307 C10.49 3.201 8.745 3.1 7 3 C7.598 4.093 8.196 5.186 8.812 6.312 C15.801 20.289 17.346 38.002 13 53 C12.01 55.475 12.01 55.475 11 58 C16.61 58 22.22 58 28 58 C28 58.99 28 59.98 28 61 C27.405 61.025 26.809 61.05 26.196 61.076 C23.505 61.192 20.815 61.315 18.125 61.438 C17.188 61.477 16.251 61.516 15.285 61.557 C14.389 61.599 13.493 61.64 12.57 61.684 C11.743 61.72 10.915 61.757 10.063 61.795 C7.938 61.882 7.938 61.882 6 63 C2.327 63.134 -0.499 63.167 -4 62 C-4 61.34 -4 60.68 -4 60 C-2.35 59.34 -0.7 58.68 1 58 C1 58.66 1 59.32 1 60 C5.391 56.06 6.673 50.999 7.3 45.245 C7.438 42.26 7.466 39.3 7.438 36.312 C7.434 35.26 7.43 34.207 7.426 33.122 C7.273 24.834 6.007 17.765 3 10 C2.67 9.01 2.34 8.02 2 7 C2.99 7 3.98 7 5 7 C5.653 9.019 6.297 11.04 6.938 13.062 C7.297 14.188 7.657 15.313 8.027 16.473 C9.818 22.967 10.182 29.25 10.188 35.938 C10.2 36.697 10.212 37.457 10.225 38.24 C10.245 46.156 8.287 52.829 5 60 C10.987 54.705 11.658 47.951 12.324 40.254 C12.535 32.907 11.887 26.107 10.25 18.938 C10.093 18.248 9.937 17.558 9.775 16.847 C8.427 11.537 6.543 5.625 1.75 2.562 C1.173 2.377 0.595 2.191 0 2 C0 1.34 0 0.68 0 0 Z " fill="#000000" transform="translate(486,166)"/>
<path d="M0 0 C1.75 0.062 1.75 0.062 4 1 C12.863 13.891 13.666 30.819 11.188 45.875 C8.935 56.605 8.935 56.605 4.312 59.938 C3.549 60.288 2.786 60.639 2 61 C-8.207 48.514 -8.118 32.404 -7 17 C-6.079 10.444 -4.921 4.751 0 0 Z " fill="#FFFFFF" transform="translate(52,161)"/>
<path d="M0 0 C4.184 -0.41 6.29 -0.516 9.75 2 C16.482 10.976 16.181 21.72 16.188 32.5 C16.2 33.494 16.212 34.488 16.225 35.512 C16.241 43.761 15.251 50.737 11 58 C8.475 59.262 6.688 59.099 3.875 59.062 C2.965 59.053 2.055 59.044 1.117 59.035 C0.419 59.024 -0.28 59.012 -1 59 C-0.505 56.03 -0.505 56.03 0 53 C-0.99 53 -1.98 53 -3 53 C-2.856 52.14 -2.711 51.28 -2.562 50.395 C-0.689 38.467 0.905 24.715 -3 13 C-1.02 13 0.96 13 3 13 C3 11.35 3 9.7 3 8 C2.01 7.67 1.02 7.34 0 7 C0 4.69 0 2.38 0 0 Z " fill="#FFFFFF" transform="translate(122,161)"/>
<path d="M0 0 C3.793 -0.01 7.586 -0.041 11.379 -0.072 C27.287 -0.139 42.724 0.899 58.461 3.24 C58.461 3.57 58.461 3.9 58.461 4.24 C48.745 4.39 39.145 3.936 29.461 3.24 C29.461 3.9 29.461 4.56 29.461 5.24 C28.394 5.265 27.327 5.29 26.227 5.316 C22.186 5.412 18.146 5.512 14.105 5.613 C12.371 5.655 10.638 5.697 8.904 5.738 C6.381 5.797 3.859 5.86 1.336 5.924 C0.213 5.949 0.213 5.949 -0.932 5.974 C-8.827 6.182 -16.637 6.746 -24.539 7.24 C-6.719 7.24 11.101 7.24 29.461 7.24 C29.461 7.57 29.461 7.9 29.461 8.24 C28.34 8.27 28.34 8.27 27.196 8.3 C12.862 8.696 -1.396 9.279 -15.686 10.505 C-29.621 11.696 -43.549 12.47 -57.539 12.24 C-57.539 11.91 -57.539 11.58 -57.539 11.24 C-50.609 10.25 -50.609 10.25 -43.539 9.24 C-43.539 8.25 -43.539 7.26 -43.539 6.24 C-52.449 7.23 -52.449 7.23 -61.539 8.24 C-61.869 6.92 -62.199 5.6 -62.539 4.24 C-59.019 3.753 -55.498 3.277 -51.976 2.803 C-51.005 2.668 -50.033 2.533 -49.033 2.395 C-32.702 0.213 -16.452 0.025 0 0 Z " fill="#4B4B4B" transform="translate(201.53857421875,173.759765625)"/>
<path d="M0 0 C0.995 0.017 1.99 0.034 3.015 0.052 C5.857 0.103 8.698 0.168 11.539 0.238 C12.402 0.253 13.266 0.268 14.155 0.283 C20.145 0.457 20.145 0.457 22.375 2.688 C21.223 2.713 20.071 2.738 18.885 2.763 C-1.629 3.213 -22.131 3.663 -42.625 4.688 C-41.454 4.647 -40.283 4.606 -39.077 4.564 C-34.742 4.416 -30.407 4.281 -26.072 4.15 C-24.194 4.092 -22.316 4.03 -20.438 3.964 C-17.743 3.87 -15.047 3.789 -12.352 3.711 C-11.509 3.679 -10.666 3.647 -9.798 3.613 C-7.741 3.56 -5.681 3.614 -3.625 3.688 C-2.635 4.678 -2.635 4.678 -1.625 5.688 C-9.545 6.018 -17.465 6.347 -25.625 6.688 C-24.635 7.678 -24.635 7.678 -23.625 8.688 C-32.514 9.492 -41.315 9.836 -50.238 9.82 C-51.492 9.821 -52.745 9.822 -54.036 9.823 C-57.336 9.824 -60.635 9.82 -63.935 9.814 C-67.25 9.811 -70.566 9.819 -73.881 9.824 C-86.497 9.827 -99.05 9.785 -111.625 8.688 C-111.625 7.368 -111.625 6.048 -111.625 4.688 C-110.977 4.652 -110.328 4.617 -109.66 4.58 C-102.895 4.211 -96.13 3.837 -89.365 3.461 C-86.843 3.321 -84.32 3.182 -81.797 3.045 C-78.165 2.846 -74.534 2.644 -70.902 2.441 C-69.218 2.351 -69.218 2.351 -67.499 2.258 C-62.152 1.956 -56.922 1.509 -51.625 0.688 C-34.473 -0.735 -17.187 -0.345 0 0 Z " fill="#565656" transform="translate(251.625,186.3125)"/>
<path d="M0 0 C14.587 1.67 29.343 2.064 44.001 2.806 C44.001 3.136 44.001 3.466 44.001 3.806 C3.682 5.644 -37.496 6.774 -77.713 2.95 C-99.4 0.932 -121.234 1.037 -142.999 0.806 C-142.999 0.476 -142.999 0.146 -142.999 -0.194 C-130.595 -1.294 -118.193 -1.528 -105.749 -1.757 C-104.114 -1.788 -104.114 -1.788 -102.447 -1.82 C-26.856 -3.247 -26.856 -3.247 0 0 Z " fill="#FFFFFF" transform="translate(385.9990234375,205.1943359375)"/>
<path d="M0 0 C4.266 0.388 8.108 0.929 12.156 2.344 C17.101 4.039 22.076 5.621 27.062 7.188 C27.928 7.46 28.794 7.733 29.686 8.014 C31.79 8.676 33.895 9.339 36 10 C36.495 13.465 36.495 13.465 37 17 C35 14 35 14 35 11 C34.047 10.807 33.095 10.613 32.113 10.414 C30.859 10.154 29.605 9.893 28.312 9.625 C27.071 9.37 25.83 9.115 24.551 8.852 C21 8 21 8 18.293 6.898 C15.79 5.757 15.79 5.757 12 6 C17.226 9.284 22.051 12.215 28 14 C28.66 14.66 29.32 15.32 30 16 C29.505 17.485 29.505 17.485 29 19 C26.69 18.34 24.38 17.68 22 17 C21.67 17.66 21.34 18.32 21 19 C21.124 18.254 21.248 17.507 21.375 16.738 C21.29 13.734 21.29 13.734 18.375 11.98 C17.261 11.389 16.147 10.797 15 10.188 C13.886 9.583 12.772 8.978 11.625 8.355 C10.759 7.908 9.892 7.461 9 7 C11.64 9.64 14.28 12.28 17 15 C16.67 15.66 16.34 16.32 16 17 C15.278 16.257 14.556 15.515 13.812 14.75 C11.314 12.307 8.764 10.132 6 8 C6.351 8.598 6.701 9.196 7.062 9.812 C8 12 8 12 7 15 C6.01 13.68 5.02 12.36 4 11 C4.495 17.93 4.495 17.93 5 25 C3.02 25 1.04 25 -1 25 C-0.67 19.72 -0.34 14.44 0 9 C-0.66 15.27 -1.32 21.54 -2 28 C-4.97 28 -7.94 28 -11 28 C-11 27.67 -11 27.34 -11 27 C-8.36 27 -5.72 27 -3 27 C-3 26.34 -3 25.68 -3 25 C-3.987 25.072 -4.975 25.144 -5.992 25.219 C-7.274 25.312 -8.555 25.404 -9.875 25.5 C-11.151 25.593 -12.427 25.686 -13.742 25.781 C-15.492 25.899 -17.246 26 -19 26 C-19 25.34 -19 24.68 -19 24 C-18.34 24 -17.68 24 -17 24 C-16.732 23.402 -16.464 22.804 -16.188 22.188 C-15 20 -15 20 -13.5 18.562 C-11.842 17.05 -11.842 17.05 -11.191 14.727 C-9.761 11.453 -7.882 9.406 -5.438 6.812 C-2.358 3.658 -2.358 3.658 0 0 Z " fill="#080808" transform="translate(422,153)"/>
<path d="M0 0 C13.152 -0.268 25.937 0.458 39 2 C38.67 2.99 38.34 3.98 38 5 C33.71 5.33 29.42 5.66 25 6 C27.97 6.495 27.97 6.495 31 7 C30.34 7.99 29.68 8.98 29 10 C27.121 10.341 27.121 10.341 24.867 10.293 C24.062 10.283 23.256 10.274 22.426 10.264 C21.584 10.239 20.742 10.213 19.875 10.188 C19.026 10.174 18.176 10.16 17.301 10.146 C15.2 10.111 13.1 10.057 11 10 C13.97 10.33 16.94 10.66 20 11 C19.67 11.99 19.34 12.98 19 14 C11.08 14 3.16 14 -5 14 C-5.495 13.01 -5.495 13.01 -6 12 C-24.48 11.67 -42.96 11.34 -62 11 C-61.67 10.34 -61.34 9.68 -61 9 C-44.83 9 -28.66 9 -12 9 C-12 8.34 -12 7.68 -12 7 C-6.39 7 -0.78 7 5 7 C-8.86 6.505 -8.86 6.505 -23 6 C-23 5.34 -23 4.68 -23 4 C-10.13 4 2.74 4 16 4 C16 3.67 16 3.34 16 3 C10.72 2.34 5.44 1.68 0 1 C0 0.67 0 0.34 0 0 Z " fill="#000000" transform="translate(354,190)"/>
<path d="M0 0 C0.861 0.022 1.722 0.044 2.609 0.067 C5.267 0.136 7.924 0.209 10.582 0.281 C12.423 0.33 14.263 0.378 16.104 0.426 C20.534 0.542 24.964 0.661 29.395 0.781 C29.395 1.111 29.395 1.441 29.395 1.781 C28.799 1.792 28.204 1.802 27.591 1.812 C21.327 1.922 15.064 2.036 8.801 2.154 C6.472 2.197 4.142 2.238 1.813 2.279 C-14.734 2.555 -14.734 2.555 -31.249 3.543 C-38.564 4.062 -45.9 4.174 -53.23 4.344 C-54.105 4.365 -54.98 4.385 -55.882 4.407 C-137.707 6.314 -137.707 6.314 -154.605 2.781 C-157.212 2.562 -159.808 2.371 -162.418 2.219 C-163.457 2.154 -163.457 2.154 -164.518 2.088 C-166.213 1.983 -167.909 1.882 -169.605 1.781 C-169.605 1.451 -169.605 1.121 -169.605 0.781 C-168.471 0.783 -167.336 0.786 -166.168 0.788 C-155.261 0.809 -144.355 0.823 -133.449 0.833 C-127.847 0.838 -122.246 0.845 -116.644 0.857 C-92.281 0.906 -67.937 0.844 -43.582 0.134 C-29.054 -0.286 -14.531 -0.409 0 0 Z " fill="#FFFFFF" transform="translate(312.60546875,197.21875)"/>
<path d="M0 0 C3.188 -0.375 3.188 -0.375 7 0 C12.888 5.352 15.013 12.253 16 20 C16.164 23.48 16.185 26.954 16.188 30.438 C16.2 31.353 16.212 32.269 16.225 33.213 C16.238 39.524 16.049 45.146 12.25 50.438 C9.355 52.448 7.45 52.314 4 52 C4.464 50.979 4.464 50.979 4.938 49.938 C7.157 43.802 7.158 37.505 7.125 31.062 C7.129 30.303 7.133 29.543 7.137 28.76 C7.119 18.51 5.875 8.673 0 0 Z " fill="#FFFFFF" transform="translate(513,171)"/>
<path d="M0 0 C3.543 0.081 7.083 0.194 10.625 0.312 C11.624 0.335 12.623 0.358 13.652 0.381 C19.118 0.58 23.308 0.88 28 4 C29.25 5.875 29.25 5.875 30 8 C30.371 8.804 30.742 9.609 31.125 10.438 C32.043 13.126 32.161 15.181 32 18 C30 17 30 17 28.688 13.25 C28.485 12.575 28.283 11.899 28.074 11.203 C26.515 8.006 24.792 6.213 22 4 C19.204 3.476 16.975 3.212 14.188 3.188 C13.148 3.15 13.148 3.15 12.088 3.111 C10.393 3.053 8.696 3.023 7 3 C7.598 4.093 8.196 5.186 8.812 6.312 C15.801 20.289 17.346 38.002 13 53 C12.01 55.475 12.01 55.475 11 58 C16.61 58 22.22 58 28 58 C28 58.99 28 59.98 28 61 C27.405 61.025 26.809 61.05 26.196 61.076 C23.505 61.192 20.815 61.315 18.125 61.438 C17.188 61.477 16.251 61.516 15.285 61.557 C14.389 61.599 13.493 61.64 12.57 61.684 C11.743 61.72 10.915 61.757 10.063 61.795 C7.938 61.882 7.938 61.882 6 63 C2.327 63.134 -0.499 63.167 -4 62 C-4 61.34 -4 60.68 -4 60 C-2.35 59.34 -0.7 58.68 1 58 C1 58.66 1 59.32 1 60 C5.391 56.06 6.673 50.999 7.3 45.245 C7.438 42.26 7.466 39.3 7.438 36.312 C7.434 35.26 7.43 34.207 7.426 33.122 C7.273 24.834 6.007 17.765 3 10 C2.67 9.01 2.34 8.02 2 7 C2.99 7 3.98 7 5 7 C5.653 9.019 6.297 11.04 6.938 13.062 C7.297 14.188 7.657 15.313 8.027 16.473 C9.818 22.967 10.182 29.25 10.188 35.938 C10.2 36.697 10.212 37.457 10.225 38.24 C10.245 46.156 8.287 52.829 5 60 C10.987 54.705 11.658 47.951 12.324 40.254 C12.535 32.907 11.887 26.107 10.25 18.938 C10.093 18.248 9.937 17.558 9.775 16.847 C8.427 11.537 6.543 5.625 1.75 2.562 C1.173 2.377 0.595 2.191 0 2 C0 1.34 0 0.68 0 0 Z " fill="#010101" transform="translate(486,166)"/>
<path d="M0 0 C3.104 -0.029 6.208 -0.047 9.312 -0.062 C10.194 -0.071 11.075 -0.079 11.982 -0.088 C12.83 -0.091 13.678 -0.094 14.551 -0.098 C15.331 -0.103 16.111 -0.108 16.915 -0.114 C19 0 19 0 22 1 C23.7 1.082 25.403 1.107 27.105 1.098 C28.58 1.093 28.58 1.093 30.084 1.088 C31.108 1.08 32.132 1.071 33.188 1.062 C34.223 1.058 35.259 1.053 36.326 1.049 C38.884 1.037 41.442 1.021 44 1 C43.67 1.99 43.34 2.98 43 4 C37.06 3.67 31.12 3.34 25 3 C25 3.66 25 4.32 25 5 C30.94 5 36.88 5 43 5 C43 5.33 43 5.66 43 6 C42.073 6.061 41.146 6.121 40.191 6.184 C38.994 6.267 37.796 6.351 36.562 6.438 C35.368 6.519 34.173 6.6 32.941 6.684 C30.114 6.677 30.114 6.677 29 8 C36.425 8.99 36.425 8.99 44 10 C44 10.33 44 10.66 44 11 C39.024 11.075 34.048 11.129 29.071 11.165 C27.386 11.18 25.7 11.2 24.015 11.226 C12.631 11.399 2.105 10.563 -9 8 C-9 7.34 -9 6.68 -9 6 C-11.64 5.67 -14.28 5.34 -17 5 C-17 4.67 -17 4.34 -17 4 C-9.74 4 -2.48 4 5 4 C5 3.34 5 2.68 5 2 C2.525 1.505 2.525 1.505 0 1 C0 0.67 0 0.34 0 0 Z " fill="#757575" transform="translate(374,195)"/>
<path d="M0 0 C3.793 -0.01 7.586 -0.041 11.379 -0.072 C27.287 -0.139 42.724 0.899 58.461 3.24 C58.461 3.57 58.461 3.9 58.461 4.24 C57.86 4.225 57.258 4.211 56.638 4.196 C16.759 3.229 -21.889 3.798 -61.539 8.24 C-61.869 6.92 -62.199 5.6 -62.539 4.24 C-59.019 3.753 -55.498 3.277 -51.976 2.803 C-51.005 2.668 -50.033 2.533 -49.033 2.395 C-32.702 0.213 -16.452 0.025 0 0 Z " fill="#FFFFFF" transform="translate(201.53857421875,173.759765625)"/>
<path d="M0 0 C0.995 0.017 1.99 0.034 3.015 0.052 C5.857 0.103 8.698 0.168 11.539 0.238 C12.402 0.253 13.266 0.268 14.155 0.283 C20.145 0.457 20.145 0.457 22.375 2.688 C21.328 2.707 20.281 2.727 19.202 2.748 C-0.776 3.135 -20.731 3.671 -40.688 4.688 C-64.321 5.89 -87.965 6.315 -111.625 6.688 C-111.625 6.028 -111.625 5.368 -111.625 4.688 C-110.977 4.652 -110.328 4.617 -109.66 4.58 C-102.895 4.211 -96.13 3.837 -89.365 3.461 C-86.843 3.321 -84.32 3.182 -81.797 3.045 C-78.165 2.846 -74.534 2.644 -70.902 2.441 C-69.218 2.351 -69.218 2.351 -67.499 2.258 C-62.152 1.956 -56.922 1.509 -51.625 0.688 C-34.473 -0.735 -17.187 -0.345 0 0 Z " fill="#FFFFFF" transform="translate(251.625,186.3125)"/>
<path d="M0 0 C7.467 2.203 7.467 2.203 9.656 5.477 C11.392 10.027 12.061 14.437 12.688 19.25 C12.817 20.141 12.947 21.031 13.08 21.949 C13.91 27.998 14.156 33.899 14 40 C8.375 42 8.375 42 5 42 C4.98 41.361 4.96 40.722 4.94 40.063 C4.843 37.104 4.734 34.146 4.625 31.188 C4.594 30.183 4.563 29.178 4.531 28.143 C4.158 18.475 2.466 9.336 0 0 Z " fill="#FFFFFF" transform="translate(98,160)"/>
<path d="M0 0 C3.165 2.393 4.283 4.276 4.828 8.109 C4.987 9.655 5.127 11.202 5.25 12.75 C5.327 13.543 5.405 14.336 5.484 15.152 C5.672 17.1 5.838 19.05 6 21 C8.97 20.67 11.94 20.34 15 20 C15.66 17.03 16.32 14.06 17 11 C22.94 11.33 28.88 11.66 35 12 C36.083 15.249 35.853 15.873 35 19 C35 20.32 35 21.64 35 23 C33.615 23.03 33.615 23.03 32.202 23.06 C28.774 23.138 25.347 23.225 21.92 23.317 C20.437 23.356 18.954 23.391 17.471 23.422 C15.338 23.468 13.206 23.526 11.074 23.586 C9.791 23.617 8.508 23.649 7.186 23.681 C3.846 23.764 3.846 23.764 1 26 C1.017 24.819 1.017 24.819 1.035 23.613 C1.101 15.689 0.723 7.89 0 0 Z " fill="#131313" transform="translate(541,185)"/>
<path d="M0 0 C4.755 0.576 7.97 2.551 12 5 C12 5.66 12 6.32 12 7 C13.98 7.66 15.96 8.32 18 9 C15.688 11.5 15.688 11.5 13 14 C12.01 14 11.02 14 10 14 C10 14.66 10 15.32 10 16 C8.02 16.66 6.04 17.32 4 18 C4 18.66 4 19.32 4 20 C2.68 20.33 1.36 20.66 0 21 C0.66 19.35 1.32 17.7 2 16 C-1.63 15.67 -5.26 15.34 -9 15 C-9 11.7 -9 8.4 -9 5 C-5.7 4.67 -2.4 4.34 1 4 C0.67 2.68 0.34 1.36 0 0 Z " fill="#000000" transform="translate(504,137)"/>
<path d="M0 0 C0.66 0 1.32 0 2 0 C2.171 0.605 2.343 1.209 2.519 1.833 C3.303 4.597 4.089 7.361 4.875 10.125 C5.144 11.076 5.414 12.028 5.691 13.008 C7.03 17.709 8.398 22.38 10 27 C9.34 27 8.68 27 8 27 C7.01 25.68 6.02 24.36 5 23 C5 26.63 5 30.26 5 34 C3.68 33.67 2.36 33.34 1 33 C0.918 32.216 0.835 31.433 0.75 30.625 C0.502 29.759 0.255 28.892 0 28 C-0.663 27.768 -1.325 27.536 -2.008 27.297 C-2.665 26.869 -3.323 26.441 -4 26 C-4.416 23.424 -4.605 21.206 -4.625 18.625 C-4.668 12.536 -4.668 12.536 -7 7 C-7.66 7 -8.32 7 -9 7 C-9 6.34 -9 5.68 -9 5 C-8.434 4.723 -7.868 4.446 -7.285 4.16 C-6.552 3.798 -5.818 3.436 -5.062 3.062 C-3.966 2.523 -3.966 2.523 -2.848 1.973 C-1.038 1.136 -1.038 1.136 0 0 Z " fill="#010101" transform="translate(116,123)"/>
<path d="M0 0 C2.719 0.017 5.439 0.029 8.158 0.041 C14.71 0.074 21.261 0.123 27.812 0.188 C27.812 0.518 27.812 0.847 27.812 1.188 C10.488 1.683 10.488 1.683 -7.188 2.188 C4.016 2.148 4.016 2.148 15.219 2.097 C16.637 2.094 18.055 2.092 19.473 2.09 C20.193 2.085 20.912 2.08 21.654 2.074 C26.143 2.074 30.383 2.453 34.812 3.188 C34.812 3.518 34.812 3.847 34.812 4.188 C34.175 4.196 33.538 4.204 32.882 4.212 C-8.703 4.573 -8.703 4.573 -50.188 7.188 C-49.857 6.528 -49.528 5.868 -49.188 5.188 C-52.488 5.188 -55.787 5.188 -59.188 5.188 C-58.857 4.528 -58.528 3.868 -58.188 3.188 C-54.385 2.282 -50.456 1.994 -46.574 1.574 C-44.769 1.377 -44.769 1.377 -42.927 1.176 C-28.624 -0.246 -14.357 -0.141 0 0 Z " fill="#0B0B0B" transform="translate(198.1875,169.8125)"/>
<path d="M0 0 C1.293 0.005 2.587 0.01 3.92 0.016 C4.95 0.018 4.95 0.018 6 0.02 C8.201 0.026 10.402 0.038 12.603 0.051 C14.092 0.056 15.581 0.061 17.07 0.065 C20.727 0.076 24.384 0.093 28.041 0.114 C27.711 1.104 27.381 2.094 27.041 3.114 C16.796 6.529 3.521 5.276 -7.147 5.239 C-7.831 5.237 -8.516 5.236 -9.222 5.235 C-21.138 5.21 -33.048 4.984 -44.959 4.676 C-45.749 4.656 -46.538 4.637 -47.352 4.617 C-55.262 4.416 -63.107 4.175 -70.959 3.114 C-70.959 2.784 -70.959 2.454 -70.959 2.114 C-70.209 2.119 -69.458 2.124 -68.685 2.129 C-52.477 2.226 -36.287 2.105 -20.084 1.676 C-19.282 1.656 -18.481 1.637 -17.654 1.616 C-15.383 1.56 -13.113 1.496 -10.842 1.43 C-9.536 1.393 -8.231 1.357 -6.885 1.319 C-3.534 1.084 -3.37 0.129 0 0 Z " fill="#646464" transform="translate(400.959228515625,208.886474609375)"/>
<path d="M0 0 C1.75 0.062 1.75 0.062 4 1 C9.975 9.51 11.515 18.906 11.438 29.125 C11.457 30.062 11.477 30.999 11.498 31.965 C11.494 37.817 10.942 43.379 7 48 C4.861 48.711 4.861 48.711 3 49 C3.325 48.122 3.325 48.122 3.656 47.227 C8.823 31.296 6.329 15.195 0 0 Z " fill="#FFFFFF" transform="translate(530,173)"/>
<path d="M0 0 C0.771 0.01 1.542 0.019 2.336 0.029 C4.89 0.062 7.444 0.102 9.998 0.143 C11.766 0.167 13.534 0.191 15.303 0.214 C19.962 0.277 24.621 0.346 29.28 0.417 C34.032 0.487 38.784 0.552 43.537 0.617 C52.865 0.747 62.193 0.882 71.521 1.022 C71.521 1.352 71.521 1.682 71.521 2.022 C65.596 2.741 59.763 3.205 53.798 3.338 C52.987 3.359 52.175 3.38 51.339 3.401 C48.712 3.467 46.085 3.526 43.458 3.584 C42.562 3.605 41.665 3.627 40.741 3.648 C23.666 4.049 6.6 4.14 -10.479 4.022 C-10.149 3.032 -9.819 2.042 -9.479 1.022 C-6.446 -0.495 -3.322 -0.059 0 0 Z " fill="#555555" transform="translate(285.47900390625,199.978271484375)"/>
<path d="M0 0 C0.33 0 0.66 0 1 0 C0.036 16.893 0.036 16.893 -1 24 C-3.97 24 -6.94 24 -10 24 C-10 23.67 -10 23.34 -10 23 C-7.36 23 -4.72 23 -2 23 C-2 22.34 -2 21.68 -2 21 C-2.987 21.072 -3.975 21.144 -4.992 21.219 C-6.274 21.312 -7.555 21.404 -8.875 21.5 C-10.151 21.593 -11.427 21.686 -12.742 21.781 C-14.492 21.899 -16.246 22 -18 22 C-18 21.34 -18 20.68 -18 20 C-17.34 20 -16.68 20 -16 20 C-15.749 19.442 -15.497 18.884 -15.238 18.309 C-11.748 11.801 -6.364 6.039 -1 1 C-0.67 0.67 -0.34 0.34 0 0 Z " fill="#FFFFFF" transform="translate(421,157)"/>
<path d="M0 0 C2.97 0 5.94 0 9 0 C11.212 5.253 12.558 9.199 12 15 C11.34 16.32 10.68 17.64 10 19 C7.03 19 4.06 19 1 19 C1.021 17.721 1.041 16.442 1.062 15.125 C1.071 10.028 0.57 5.063 0 0 Z " fill="#FFFFFF" transform="translate(546,187)"/>
<path d="M0 0 C5.658 0.873 11.297 1.563 17 2.062 C17.495 3.548 17.495 3.548 18 5.062 C11.969 6.159 6.543 5.97 0.5 5.25 C-0.199 5.168 -0.898 5.085 -1.619 5 C-5.133 4.549 -8.495 3.942 -11.92 3.033 C-18.105 1.646 -24.256 1.814 -30.566 1.867 C-31.841 1.87 -33.116 1.873 -34.429 1.876 C-37.788 1.885 -41.146 1.903 -44.505 1.925 C-47.944 1.946 -51.383 1.955 -54.822 1.965 C-61.548 1.987 -68.274 2.02 -75 2.062 C-75 1.732 -75 1.403 -75 1.062 C-63.686 0.167 -52.391 -0.203 -41.046 -0.44 C-38.175 -0.5 -35.303 -0.565 -32.432 -0.631 C-30.573 -0.672 -28.714 -0.713 -26.855 -0.754 C-26.014 -0.773 -25.172 -0.791 -24.304 -0.811 C-7.207 -1.164 -7.207 -1.164 0 0 Z " fill="#727272" transform="translate(243,170.9375)"/>
<path d="M0 0 C3.699 1.373 6.951 3.064 10.312 5.125 C11.196 5.664 12.079 6.203 12.988 6.758 C13.652 7.168 14.316 7.578 15 8 C14.01 8.495 14.01 8.495 13 9 C13.33 9.66 13.66 10.32 14 11 C16.322 11.407 18.657 11.744 21 12 C22.125 17.75 22.125 17.75 21 20 C20.34 20 19.68 20 19 20 C19 20.66 19 21.32 19 22 C19.99 21.67 20.98 21.34 22 21 C22.66 21.66 23.32 22.32 24 23 C26.069 23.643 26.069 23.643 28 24 C28 24.33 28 24.66 28 25 C27.218 25.049 26.435 25.098 25.629 25.148 C24.617 25.223 23.605 25.298 22.562 25.375 C21.553 25.445 20.544 25.514 19.504 25.586 C18.678 25.723 17.851 25.859 17 26 C16.67 26.66 16.34 27.32 16 28 C15.34 28.33 14.68 28.66 14 29 C13.67 28.01 13.34 27.02 13 26 C12.34 25.34 11.68 24.68 11 24 C11.36 23.428 11.719 22.855 12.09 22.266 C13.215 20.07 13.215 20.07 12.566 17.922 C10.204 12.81 7.451 8.828 3.586 4.727 C2 3 2 3 0 0 Z " fill="#7F7F7F" transform="translate(430,159)"/>
<path d="M0 0 C24.75 0.33 49.5 0.66 75 1 C75 1.33 75 1.66 75 2 C55.661 2.601 36.351 3.138 17 3 C35.315 3.495 35.315 3.495 54 4 C54 4.33 54 4.66 54 5 C47.292 5.051 40.585 5.086 33.877 5.11 C31.596 5.12 29.316 5.134 27.036 5.151 C23.752 5.175 20.468 5.187 17.184 5.195 C16.17 5.206 15.156 5.216 14.111 5.227 C8.667 5.227 4.145 4.814 -1 3 C-0.67 2.01 -0.34 1.02 0 0 Z " fill="#000000" transform="translate(322,209)"/>
<path d="M0 0 C3.416 1.413 4.991 2.914 7 6 C11.81 19.237 13.049 34.856 8.18 48.258 C6.666 50.494 5.569 50.478 3 51 C3.3 49.851 3.601 48.703 3.91 47.52 C7.914 31.492 8.091 14.984 0 0 Z " fill="#FFFFFF" transform="translate(524,172)"/>
<path d="M0 0 C5.669 0.45 10.597 1.278 15.926 3.277 C18.175 4.133 18.175 4.133 21.375 4.5 C24.764 6.436 24.829 7.752 25.875 11.438 C26.566 14.42 27 16.935 27 20 C25.02 20 23.04 20 21 20 C20.807 19.374 20.613 18.747 20.414 18.102 C20.154 17.284 19.893 16.467 19.625 15.625 C19.37 14.813 19.115 14.001 18.852 13.164 C18.101 10.835 18.101 10.835 16 9 C14.62 8.514 13.221 8.083 11.812 7.688 C7.105 6.202 3.831 4.097 0 1 C0 0.67 0 0.34 0 0 Z " fill="#FFFFFF" transform="translate(433,158)"/>
<path d="M0 0 C9.063 -0.102 17.982 -0.07 27 1 C27 1.33 27 1.66 27 2 C19.74 2.33 12.48 2.66 5 3 C4.67 3.99 4.34 4.98 4 6 C2.35 6 0.7 6 -1 6 C-1 5.67 -1 5.34 -1 5 C-18.82 5 -36.64 5 -55 5 C-54.67 4.34 -54.34 3.68 -54 3 C-42.184 1.319 -29.907 1.877 -18 1.938 C-16.242 1.943 -14.484 1.947 -12.727 1.951 C-8.484 1.962 -4.242 1.979 0 2 C0 1.34 0 0.68 0 0 Z " fill="#000000" transform="translate(231,177)"/>
<path d="M0 0 C5.959 4.469 7.729 10.865 9 18 C10.803 32.498 10.755 46.402 5 60 C4.066 56.99 3.956 56.133 5 53 C5.133 50.505 5.212 48.039 5.238 45.543 C5.246 44.804 5.254 44.064 5.263 43.302 C5.277 41.731 5.287 40.16 5.295 38.589 C5.307 37.008 5.327 35.426 5.357 33.845 C5.56 23.074 4.51 14.27 1 4 C0.65 2.671 0.308 1.339 0 0 Z " fill="#FFFFFF" transform="translate(107,160)"/>
<path d="M0 0 C3 1 3 1 5 4.125 C11.913 18.878 13.01 40.197 10 56 C8.11 52.791 7.75 50.406 7.727 46.703 C7.709 45.669 7.691 44.635 7.672 43.569 C7.657 42.474 7.641 41.378 7.625 40.25 C7.234 22.633 7.234 22.633 0 7 C-0.188 3.25 -0.188 3.25 0 0 Z " fill="#FFFFFF" transform="translate(84,154)"/>
<path d="M0 0 C7.75 -0.125 7.75 -0.125 10 1 C10 1.66 10 2.32 10 3 C8.35 3.33 6.7 3.66 5 4 C5.268 5.176 5.536 6.351 5.812 7.562 C6.081 8.812 6.081 8.812 6.355 10.086 C6.805 12.119 7.29 14.145 7.801 16.164 C10.443 27.461 10.308 38.456 10 50 C12.31 50 14.62 50 17 50 C17 51.65 17 53.3 17 55 C13.7 55 10.4 55 7 55 C7.165 53.907 7.33 52.814 7.5 51.688 C9.356 35.912 7.397 18.877 0.988 4.301 C0 2 0 2 0 0 Z " fill="#FFFFFF" transform="translate(92,154)"/>
<path d="M0 0 C3.322 1.359 4.634 2.459 6.062 5.75 C11.944 20.327 13.774 38.078 8 53 C6.52 55.328 6.52 55.328 5 57 C4.34 57 3.68 57 3 57 C3.205 56.42 3.41 55.84 3.621 55.242 C4.025 54.07 4.025 54.07 4.438 52.875 C4.704 52.109 4.971 51.344 5.246 50.555 C8.796 38.527 7.757 25.026 4.754 13.016 C4.006 10.023 3.47 7.047 3 4 C2.34 4 1.68 4 1 4 C0.67 2.68 0.34 1.36 0 0 Z " fill="#FFFFFF" transform="translate(488,169)"/>
<path d="M0 0 C0.928 0.165 1.856 0.33 2.812 0.5 C5.842 0.975 7.165 0.85 10 0 C13.113 0 15.108 0.174 18 1 C18.125 7.75 18.125 7.75 17 10 C15.68 9.67 14.36 9.34 13 9 C13 8.34 13 7.68 13 7 C12.35 7.743 12.35 7.743 11.688 8.5 C10 10 10 10 7 10 C5.312 8.5 5.312 8.5 4 7 C3.67 7.99 3.34 8.98 3 10 C2.01 10 1.02 10 0 10 C-1.491 7.018 -1.119 4.284 -1 1 C-0.67 0.67 -0.34 0.34 0 0 Z " fill="#4C4C4C" transform="translate(533,371)"/>
<path d="M0 0 C5.096 5.794 7.953 13.066 8.027 20.848 C7.75 23.312 7.75 23.312 7 27 C9.97 27 12.94 27 16 27 C16 27.33 16 27.66 16 28 C10.39 28 4.78 28 -1 28 C-0.67 26.02 -0.34 24.04 0 22 C0.076 20.202 0.108 18.401 0.098 16.602 C0.094 15.628 0.091 14.655 0.088 13.652 C0.08 12.653 0.071 11.654 0.062 10.625 C0.058 9.603 0.053 8.581 0.049 7.527 C0.037 5.018 0.021 2.509 0 0 Z " fill="#FFFFFF" transform="translate(75,181)"/>
<path d="M0 0 C0 0.33 0 0.66 0 1 C-1.121 1.03 -1.121 1.03 -2.265 1.06 C-16.6 1.456 -30.857 2.039 -45.147 3.265 C-59.082 4.455 -73.011 5.23 -87 5 C-87 4.67 -87 4.34 -87 4 C-77.952 2.615 -68.945 1.501 -59.812 0.875 C-58.577 0.79 -57.342 0.705 -56.07 0.618 C-37.414 -0.553 -18.681 -0.171 0 0 Z " fill="#FFFFFF" transform="translate(231,181)"/>
<path d="M0 0 C0 0.33 0 0.66 0 1 C7.92 1.33 15.84 1.66 24 2 C24 2.33 24 2.66 24 3 C5.007 4.248 -13.977 4.102 -33 4 C-33.33 3.01 -33.66 2.02 -34 1 C-22.693 -0.336 -11.366 -0.099 0 0 Z " fill="#000000" transform="translate(248,192)"/>
<path d="M0 0 C1.64 0 3.28 0.012 4.919 0.032 C6.214 0.036 6.214 0.036 7.534 0.04 C10.295 0.052 13.057 0.077 15.818 0.102 C17.688 0.112 19.557 0.121 21.427 0.129 C26.016 0.151 30.604 0.186 35.193 0.227 C34.863 1.217 34.533 2.207 34.193 3.227 C23.508 3.905 12.904 4.382 2.193 4.227 C2.193 3.897 2.193 3.567 2.193 3.227 C-0.447 2.897 -3.087 2.567 -5.807 2.227 C-3.807 0.227 -3.807 0.227 0 0 Z " fill="#1F1F1F" transform="translate(240.80712890625,200.77294921875)"/>
<path d="M0 0 C3 1 3 1 5 4.312 C9.295 13.778 10.308 22.747 10.438 33.062 C10.46 34.067 10.482 35.072 10.505 36.107 C10.484 43.166 9.461 49.742 6 56 C4.515 56.495 4.515 56.495 3 57 C3.205 56.408 3.41 55.817 3.621 55.207 C3.891 54.417 4.16 53.627 4.438 52.812 C4.704 52.035 4.971 51.258 5.246 50.457 C7.038 44.618 7.152 39.192 7.125 33.125 C7.129 32.252 7.133 31.38 7.137 30.48 C7.12 19.309 4.518 10.113 0 0 Z " fill="#FFFFFF" transform="translate(484,169)"/>
<path d="M0 0 C-0.33 0.99 -0.66 1.98 -1 3 C-3.354 3.055 -5.708 3.094 -8.062 3.125 C-9.373 3.148 -10.684 3.171 -12.035 3.195 C-16 3 -16 3 -19.25 2.031 C-24.464 0.597 -29.553 0.535 -34.938 0.375 C-36.003 0.336 -37.068 0.298 -38.166 0.258 C-40.777 0.164 -43.388 0.078 -46 0 C-46 -0.33 -46 -0.66 -46 -1 C-8.692 -2.897 -8.692 -2.897 0 0 Z " fill="#6B6B6B" transform="translate(322,209)"/>
<path d="M0 0 C0.99 0 1.98 0 3 0 C9.48 8.209 14 19.501 14 30 C13.34 30 12.68 30 12 30 C11.662 28.808 11.325 27.615 10.977 26.387 C10.526 24.82 10.076 23.254 9.625 21.688 C9.403 20.902 9.182 20.116 8.953 19.307 C8.734 18.549 8.515 17.792 8.289 17.012 C8.09 16.315 7.891 15.619 7.686 14.901 C6.983 12.715 6.983 12.715 5 10 C4.34 11.98 3.68 13.96 3 16 C0.926 11.99 -0.128 8.846 -0.062 4.312 C-0.053 3.504 -0.044 2.696 -0.035 1.863 C-0.024 1.248 -0.012 0.634 0 0 Z " fill="#101010" transform="translate(71,173)"/>
<path d="M0 0 C3 1 3 1 4.062 2.801 C9.005 16.043 13.764 37.14 8.98 50.941 C8.657 51.621 8.333 52.3 8 53 C7.67 53 7.34 53 7 53 C7.023 51.753 7.046 50.507 7.07 49.223 C7.283 32.687 7.135 15.242 0 0 Z " fill="#000000" transform="translate(87,156)"/>
<path d="M0 0 C1 1 1 1 1.188 3.938 C1 7 1 7 -1 9 C-0.34 9.33 0.32 9.66 1 10 C1 11.32 1 12.64 1 14 C-2.3 14 -5.6 14 -9 14 C-7.672 10.016 -5.99 7.894 -3 5 C-2.67 4.01 -2.34 3.02 -2 2 C-2.433 2.495 -2.866 2.99 -3.312 3.5 C-5 5 -5 5 -8 5 C-7.625 2.562 -7.625 2.562 -7 0 C-4.316 -1.342 -2.847 -0.73 0 0 Z " fill="#000000" transform="translate(427,136)"/>
<path d="M0 0 C1.372 8.746 1.372 8.746 1 12 C-2 14 -2 14 -4.688 13.625 C-5.451 13.419 -6.214 13.213 -7 13 C-7.33 11.68 -7.66 10.36 -8 9 C-7.01 9 -6.02 9 -5 9 C-5 9.66 -5 10.32 -5 11 C-4.01 11 -3.02 11 -2 11 C-2 10.01 -2 9.02 -2 8 C-2.99 8 -3.98 8 -5 8 C-5 7.01 -5 6.02 -5 5 C-5.99 5 -6.98 5 -8 5 C-7.625 2.562 -7.625 2.562 -7 0 C-4.333 -1.333 -2.833 -0.671 0 0 Z " fill="#121212" transform="translate(169,125)"/>
<path d="M0 0 C2.31 0 4.62 0 7 0 C8.327 3.981 8.069 7.85 8 12 C5.69 12 3.38 12 1 12 C0.67 8.04 0.34 4.08 0 0 Z " fill="#3D3D3D" transform="translate(124,178)"/>
<path d="M0 0 C0.33 0.66 0.66 1.32 1 2 C6.61 2 12.22 2 18 2 C18 2.99 18 3.98 18 5 C17.405 5.025 16.809 5.05 16.196 5.076 C13.505 5.192 10.815 5.315 8.125 5.438 C7.188 5.477 6.251 5.516 5.285 5.557 C4.389 5.599 3.493 5.64 2.57 5.684 C1.743 5.72 0.915 5.757 0.063 5.795 C-2.062 5.882 -2.062 5.882 -4 7 C-7.673 7.134 -10.499 7.167 -14 6 C-14 5.34 -14 4.68 -14 4 C-12.35 3.34 -10.7 2.68 -9 2 C-9 2.66 -9 3.32 -9 4 C-4.031 2.873 -4.031 2.873 0 0 Z " fill="#090909" transform="translate(496,222)"/>
<path d="M0 0 C3.104 -0.029 6.208 -0.047 9.312 -0.062 C10.194 -0.071 11.075 -0.079 11.982 -0.088 C12.83 -0.091 13.678 -0.094 14.551 -0.098 C15.721 -0.106 15.721 -0.106 16.915 -0.114 C19 0 19 0 22 1 C23.7 1.082 25.403 1.107 27.105 1.098 C28.58 1.093 28.58 1.093 30.084 1.088 C31.108 1.08 32.132 1.071 33.188 1.062 C34.223 1.058 35.259 1.053 36.326 1.049 C38.884 1.037 41.442 1.021 44 1 C43.67 1.99 43.34 2.98 43 4 C28.579 3.569 14.31 2.882 0 1 C0 0.67 0 0.34 0 0 Z " fill="#FFFFFF" transform="translate(374,195)"/>
<path d="M0 0 C14.19 0 28.38 0 43 0 C43 0.99 43 1.98 43 3 C33.927 3.144 24.923 2.58 15.875 2 C14.331 1.903 12.786 1.807 11.242 1.711 C7.495 1.477 3.747 1.24 0 1 C0 0.67 0 0.34 0 0 Z " fill="#FFFFFF" transform="translate(353,189)"/>
<path d="M0 0 C1.8 2.701 2.638 4.576 3.562 7.625 C3.811 8.422 4.06 9.218 4.316 10.039 C6.251 18.42 6.154 26.875 6.125 35.438 C6.129 36.62 6.133 37.803 6.137 39.021 C6.135 40.147 6.134 41.273 6.133 42.434 C6.132 43.455 6.131 44.477 6.129 45.529 C6 48 6 48 5 50 C4.34 50 3.68 50 3 50 C3.16 48.993 3.32 47.986 3.484 46.949 C5.16 34.118 3.509 21.85 1.364 9.195 C0.857 6.136 0.425 3.071 0 0 Z " fill="#FFFFFF" transform="translate(92,161)"/>
<path d="M0 0 C1.094 0.002 1.094 0.002 2.211 0.004 C4.544 0.01 6.878 0.022 9.211 0.035 C10.792 0.04 12.372 0.045 13.953 0.049 C17.831 0.06 21.708 0.077 25.586 0.098 C25.586 0.428 25.586 0.758 25.586 1.098 C23.958 1.171 23.958 1.171 22.297 1.246 C20.852 1.321 19.406 1.397 17.961 1.473 C17.248 1.504 16.535 1.535 15.801 1.566 C11.381 1.81 7.794 2.636 3.586 4.098 C0.918 4.328 0.918 4.328 -1.602 4.285 C-2.441 4.279 -3.28 4.272 -4.145 4.266 C-6.414 4.098 -6.414 4.098 -9.414 3.098 C-9.414 2.438 -9.414 1.778 -9.414 1.098 C-6.402 -0.408 -3.301 -0.024 0 0 Z " fill="#757575" transform="translate(167.4140625,178.90234375)"/>
<path d="M0 0 C0.66 0.33 1.32 0.66 2 1 C-0.687 2.584 -3.375 4.167 -6.062 5.75 C-6.815 6.193 -7.567 6.637 -8.342 7.094 C-9.84 7.976 -11.339 8.855 -12.84 9.732 C-14.237 10.552 -15.63 11.381 -17.015 12.221 C-21.673 15 -21.673 15 -25 15 C-25 15.66 -25 16.32 -25 17 C-26.65 17.66 -28.3 18.32 -30 19 C-29.67 19.66 -29.34 20.32 -29 21 C-30.98 21 -32.96 21 -35 21 C-32.12 17.863 -29.333 15.898 -25.562 13.938 C-22.756 12.466 -20.018 11.011 -17.34 9.316 C-15 8 -15 8 -12 8 C-12 7.34 -12 6.68 -12 6 C-10 5 -8 4 -6 3 C-4.928 2.423 -3.855 1.845 -2.75 1.25 C-1.843 0.838 -0.935 0.425 0 0 Z " fill="#000000" transform="translate(157,140)"/>
<path d="M0 0 C2.851 2.307 3.908 3.566 4.68 7.207 C5.355 19.671 5.355 19.671 3 25 C2.34 25.33 1.68 25.66 1 26 C1.017 24.819 1.017 24.819 1.035 23.613 C1.101 15.689 0.723 7.89 0 0 Z " fill="#FFFFFF" transform="translate(541,185)"/>
<path d="M0 0 C2.62 2.371 4.358 4.873 6 8 C6 8.99 6 9.98 6 11 C8.31 11.33 10.62 11.66 13 12 C13 12.66 13 13.32 13 14 C10.854 15.303 9.565 16.059 7.027 15.793 C3.234 14.309 1.76 10.494 0 7 C-1.324 2.649 -1.324 2.649 0 0 Z " fill="#4D4D4D" transform="translate(473,211)"/>
<path d="M0 0 C2.007 0.287 4.009 0.619 6 1 C5.01 2.485 5.01 2.485 4 4 C4.99 4.66 5.98 5.32 7 6 C7 6.66 7 7.32 7 8 C6.34 8 5.68 8 5 8 C5 8.66 5 9.32 5 10 C2.688 10.25 2.688 10.25 0 10 C-1.938 8.312 -1.938 8.312 -3 6 C-2.332 3.607 -1.779 1.779 0 0 Z " fill="#575757" transform="translate(475,168)"/>
<path d="M0 0 C1.98 0 3.96 0 6 0 C7.32 3.3 8.64 6.6 10 10 C8.35 10.33 6.7 10.66 5 11 C1.709 7.39 0.453 4.874 0 0 Z " fill="#FFFFFF" transform="translate(475,211)"/>
<path d="M0 0 C3 1 3 1 4 3 C4.072 5.552 4.093 8.075 4.062 10.625 C4.058 11.331 4.053 12.038 4.049 12.766 C4.037 14.51 4.019 16.255 4 18 C2.02 18.99 2.02 18.99 0 20 C0 13.4 0 6.8 0 0 Z " fill="#2B2B2B" transform="translate(72,185)"/>
<path d="M0 0 C1.158 3.473 1.069 6.361 1 10 C-1.31 10 -3.62 10 -6 10 C-6.33 7.36 -6.66 4.72 -7 2 C-4.353 0.539 -3.106 0 0 0 Z " fill="#FFFFFF" transform="translate(438,174)"/>
<path d="M0 0 C0.66 0 1.32 0 2 0 C3.841 8.513 3.505 16.703 1 25 C0.67 25 0.34 25 0 25 C0 16.75 0 8.5 0 0 Z " fill="#000000" transform="translate(98,184)"/>
<path d="M0 0 C2.01 4.02 2.621 7.378 3.125 11.75 C3.211 12.447 3.298 13.145 3.387 13.863 C3.598 15.575 3.8 17.287 4 19 C2.02 19 0.04 19 -2 19 C-1.34 12.73 -0.68 6.46 0 0 Z " fill="#FFFFFF" transform="translate(423,159)"/>
<path d="M0 0 C3.699 1.373 6.951 3.064 10.312 5.125 C11.196 5.664 12.079 6.203 12.988 6.758 C13.652 7.168 14.316 7.578 15 8 C14.01 8.495 14.01 8.495 13 9 C13.33 12.63 13.66 16.26 14 20 C12.399 17.599 11.121 15.305 9.812 12.75 C7.533 8.572 4.843 5.525 1.355 2.312 C0.908 1.879 0.461 1.446 0 1 C0 0.67 0 0.34 0 0 Z " fill="#FFFFFF" transform="translate(430,159)"/>
<path d="M0 0 C-1.941 1.941 -5.473 1.399 -8.062 1.562 C-9.353 1.646 -10.643 1.73 -11.973 1.816 C-12.972 1.877 -13.971 1.938 -15 2 C-14.67 1.34 -14.34 0.68 -14 0 C-17.3 0 -20.6 0 -24 0 C-23.67 -0.66 -23.34 -1.32 -23 -2 C-5.495 -4.779 -5.495 -4.779 0 0 Z " fill="#000000" transform="translate(163,175)"/>
<path d="M0 0 C1.152 0.93 2.297 1.869 3.438 2.812 C4.076 3.335 4.714 3.857 5.371 4.395 C7 6 7 6 8 9 C8.99 9.33 9.98 9.66 11 10 C11.688 12.062 11.688 12.062 12 14 C6.583 13.519 6.583 13.519 4.312 11.5 C2.384 7.827 1.194 3.964 0 0 Z " fill="#FFFFFF" transform="translate(427,159)"/>
<path d="M0 0 C-1.32 2.31 -2.64 4.62 -4 7 C-6.25 7.25 -6.25 7.25 -9 7 C-11.312 5 -11.312 5 -13 3 C-8.482 0.663 -5.11 -0.114 0 0 Z " fill="#FFFFFF" transform="translate(91,224)"/>
<path d="M0 0 C0 0.66 0 1.32 0 2 C0.99 2.33 1.98 2.66 3 3 C-4.253 5.418 -10.424 5.515 -18 4 C-18 3.67 -18 3.34 -18 3 C-17.374 2.867 -16.747 2.734 -16.102 2.598 C-15.284 2.421 -14.467 2.244 -13.625 2.062 C-12.813 1.888 -12.001 1.714 -11.164 1.535 C-7.144 0.541 -4.314 -0.08 0 0 Z " fill="#3B3B3B" transform="translate(158,180)"/>
<path d="M0 0 C1.195 0.723 1.195 0.723 2.414 1.461 C3.474 2.093 4.533 2.724 5.625 3.375 C7.191 4.315 7.191 4.315 8.789 5.273 C11.824 6.905 14.74 7.926 18 9 C18.66 9.66 19.32 10.32 20 11 C19.67 11.99 19.34 12.98 19 14 C16.69 13.34 14.38 12.68 12 12 C11.67 12.66 11.34 13.32 11 14 C11.113 13.251 11.227 12.502 11.344 11.73 C11.292 8.777 11.292 8.777 8.594 7.051 C7.573 6.477 6.552 5.904 5.5 5.312 C3.64 4.253 1.799 3.159 0 2 C0 1.34 0 0.68 0 0 Z " fill="#000000" transform="translate(432,158)"/>
<path d="M0 0 C0.99 0 1.98 0 3 0 C3 4.95 3 9.9 3 15 C2.01 15 1.02 15 0 15 C0 11.7 0 8.4 0 5 C-1.32 5 -2.64 5 -4 5 C-4 4.34 -4 3.68 -4 3 C-3.01 2.67 -2.02 2.34 -1 2 C-0.67 1.34 -0.34 0.68 0 0 Z " fill="#000000" transform="translate(536,260)"/>
<path d="M0 0 C0.33 2.97 0.66 5.94 1 9 C-1.31 9 -3.62 9 -6 9 C-6 6.36 -6 3.72 -6 1 C-4 0 -4 0 0 0 Z " fill="#FFFFFF" transform="translate(437,200)"/>
<path d="M0 0 C0.66 0 1.32 0 2 0 C3.936 6.465 4.246 12.276 4.125 19 C4.116 19.966 4.107 20.931 4.098 21.926 C4.074 24.284 4.042 26.642 4 29 C3.67 29 3.34 29 3 29 C2.496 24.917 1.998 20.834 1.5 16.75 C1.357 15.591 1.214 14.432 1.066 13.238 C0.931 12.123 0.796 11.008 0.656 9.859 C0.531 8.833 0.405 7.807 0.275 6.749 C0 4 0 4 0 0 Z " fill="#000000" transform="translate(109,170)"/>
<path d="M0 0 C0.33 2.97 0.66 5.94 1 9 C-0.98 9 -2.96 9 -5 9 C-5.33 6.36 -5.66 3.72 -6 1 C-3 0 -3 0 0 0 Z " fill="#FFFFFF" transform="translate(424,190)"/>
<path d="M0 0 C0.33 0.66 0.66 1.32 1 2 C2.32 2 3.64 2 5 2 C5.33 1.34 5.66 0.68 6 0 C7.158 3.473 7.069 6.361 7 10 C5.35 10 3.7 10 2 10 C0 3.375 0 3.375 0 0 Z " fill="#FFFFFF" transform="translate(396,183)"/>
<path d="M0 0 C2.062 0.438 2.062 0.438 4 1 C4 3.64 4 6.28 4 9 C2.125 9.625 2.125 9.625 0 10 C-0.66 9.34 -1.32 8.68 -2 8 C-1.423 1.423 -1.423 1.423 0 0 Z " fill="#2F2F2F" transform="translate(554,371)"/>
<path d="M0 0 C2.31 0.33 4.62 0.66 7 1 C8.125 6.75 8.125 6.75 7 9 C5.35 9 3.7 9 2 9 C1.34 6.03 0.68 3.06 0 0 Z " fill="#FFFFFF" transform="translate(444,170)"/>
<path d="M0 0 C3.692 0.692 3.692 0.692 5 2 C4.713 4.339 4.381 6.674 4 9 C2.68 9.33 1.36 9.66 0 10 C-0.33 9.01 -0.66 8.02 -1 7 C-0.01 7 0.98 7 2 7 C1.01 6.67 0.02 6.34 -1 6 C-1.043 4.334 -1.041 2.666 -1 1 C-0.67 0.67 -0.34 0.34 0 0 Z " fill="#2C2C2C" transform="translate(574,371)"/>
<path d="M0 0 C0.99 0.33 1.98 0.66 3 1 C3.33 3.31 3.66 5.62 4 8 C2.125 9.062 2.125 9.062 0 10 C-0.66 9.67 -1.32 9.34 -2 9 C-2 6.36 -2 3.72 -2 1 C-1.34 0.67 -0.68 0.34 0 0 Z " fill="#313131" transform="translate(568,371)"/>
<path d="M0 0 C1.478 2.957 1.06 5.742 1 9 C-1.97 8.505 -1.97 8.505 -5 8 C-5.33 5.69 -5.66 3.38 -6 1 C-3.924 0.447 -2.156 0 0 0 Z " fill="#FFFFFF" transform="translate(452,195)"/>
<path d="M0 0 C2 -0.043 4 -0.041 6 0 C7 1 7 1 7.062 4.562 C7.042 5.697 7.021 6.831 7 8 C5.02 8 3.04 8 1 8 C0.67 5.36 0.34 2.72 0 0 Z " fill="#FFFFFF" transform="translate(459,181)"/>
<path d="M0 0 C1.65 0 3.3 0 5 0 C6.062 1.875 6.062 1.875 7 4 C6.67 4.66 6.34 5.32 6 6 C4.35 6 2.7 6 1 6 C0.67 7.32 0.34 8.64 0 10 C0 6.7 0 3.4 0 0 Z " fill="#4A4A4A" transform="translate(524,371)"/>
<path d="M0 0 C3.488 4.475 5.215 7.882 4.625 13.688 C4.419 14.781 4.212 15.874 4 17 C4 17.99 4 18.98 4 20 C1.686 17.686 1.677 17.014 1.367 13.867 C1.283 13.062 1.2 12.256 1.113 11.426 C1.035 10.584 0.956 9.742 0.875 8.875 C0.789 8.026 0.702 7.176 0.613 6.301 C0.401 4.201 0.199 2.101 0 0 Z " fill="#FFFFFF" transform="translate(426,162)"/>
<path d="M0 0 C1.65 0.33 3.3 0.66 5 1 C5 3.64 5 6.28 5 9 C3.35 9.33 1.7 9.66 0 10 C-0.33 9.01 -0.66 8.02 -1 7 C0.32 6.67 1.64 6.34 3 6 C2.34 5.67 1.68 5.34 1 5 C1 4.34 1 3.68 1 3 C0.34 3 -0.32 3 -1 3 C-0.67 2.01 -0.34 1.02 0 0 Z " fill="#0E0E0E" transform="translate(560,371)"/>
<path d="M0 0 C1.258 -0.021 2.516 -0.041 3.812 -0.062 C4.52 -0.074 5.228 -0.086 5.957 -0.098 C8 0 8 0 11 1 C11.33 1.99 11.66 2.98 12 4 C8.04 3.67 4.08 3.34 0 3 C0 2.01 0 1.02 0 0 Z " fill="#FFFFFF" transform="translate(405,189)"/>
<path d="M0 0 C3.939 4.377 6.951 9.48 9 15 C8.67 15.99 8.34 16.98 8 18 C6.659 15.566 5.327 13.129 4 10.688 C3.618 9.997 3.237 9.307 2.844 8.596 C0 3.34 0 3.34 0 0 Z " fill="#000000" transform="translate(524,239)"/>
<path d="M0 0 C1.98 0 3.96 0 6 0 C5.744 2.343 5.407 4.678 5 7 C4.01 7.495 4.01 7.495 3 8 C2.01 5.36 1.02 2.72 0 0 Z " fill="#FFFFFF" transform="translate(482,211)"/>
<path d="M0 0 C1.32 0 2.64 0 4 0 C4 1.98 4 3.96 4 6 C2.35 6 0.7 6 -1 6 C-1.043 4.334 -1.041 2.666 -1 1 C-0.67 0.67 -0.34 0.34 0 0 Z " fill="#FFFFFF" transform="translate(106,211)"/>
<path d="M0 0 C0.763 0.619 1.526 1.238 2.312 1.875 C4.996 4.056 4.996 4.056 8 6 C5.36 6.99 2.72 7.98 0 9 C0 6.03 0 3.06 0 0 Z " fill="#000000" transform="translate(430,168)"/>
<path d="M0 0 C1.32 0.66 2.64 1.32 4 2 C4 2.66 4 3.32 4 4 C3.34 4 2.68 4 2 4 C2 4.66 2 5.32 2 6 C0.35 6 -1.3 6 -3 6 C-2.427 3.133 -2.139 2.139 0 0 Z " fill="#FFFFFF" transform="translate(478,172)"/>
<path d="M0 0 C1.32 0 2.64 0 4 0 C4 2 4 2 2.562 3.5 C2.047 3.995 1.531 4.49 1 5 C0.67 5.66 0.34 6.32 0 7 C-0.99 6.67 -1.98 6.34 -3 6 C-2.01 4.02 -1.02 2.04 0 0 Z " fill="#FFFFFF" transform="translate(96,224)"/>
<path d="M0 0 C0.99 0.33 1.98 0.66 3 1 C3 1.99 3 2.98 3 4 C4.32 4.33 5.64 4.66 7 5 C3.7 5 0.4 5 -3 5 C-2.34 4.67 -1.68 4.34 -1 4 C-0.348 1.975 -0.348 1.975 0 0 Z " fill="#000000" transform="translate(472,174)"/>
<path d="M0 0 C2.475 0.495 2.475 0.495 5 1 C5 1.99 5 2.98 5 4 C3.35 4 1.7 4 0 4 C0 2.68 0 1.36 0 0 Z " fill="#FFFFFF" transform="translate(126,185)"/>
<path d="M0 0 C0.66 0.33 1.32 0.66 2 1 C0.515 4.465 0.515 4.465 -1 8 C-1.66 8 -2.32 8 -3 8 C-1.125 1.125 -1.125 1.125 0 0 Z " fill="#FFFFFF" transform="translate(92,214)"/>
</svg>
