<?xml version="1.0" encoding="UTF-8"?>
<!-- Generator: visioncortex VTracer 0.6.4 -->
<svg version="1.1" xmlns="http://www.w3.org/2000/svg" width="325" height="311">
<path d="M0 0 C107.25 0 214.5 0 325 0 C325 102.63 325 205.26 325 311 C217.75 311 110.5 311 0 311 C0 208.37 0 105.74 0 0 Z " fill="#F3F3F3" transform="translate(0,0)"/>
<path d="M0 0 C-1.98 0.99 -1.98 0.99 -4 2 C-2.447 7.055 -0.857 11.511 2 16 C2 16.66 2 17.32 2 18 C2.66 18 3.32 18 4 18 C4 18.66 4 19.32 4 20 C4.99 20.33 5.98 20.66 7 21 C7 21.66 7 22.32 7 23 C7.558 23.268 8.116 23.536 8.691 23.812 C12.062 25.546 15.243 27.57 18.465 29.562 C22.04 31.59 24.856 33 29 33 C28.67 32.67 28.34 32.34 28 32 C27.797 30.039 27.797 30.039 27.75 27.625 C27.724 26.834 27.698 26.042 27.672 25.227 C28.075 22.492 28.864 21.691 31 20 C31.99 19.505 31.99 19.505 33 19 C33.33 18.34 33.66 17.68 34 17 C37.815 19.166 41.001 21.002 43 25 C43.396 28.639 43.495 30.346 41.25 33.312 C39.021 34.984 37.663 35.435 35 36 C42.808 37.701 50.209 38.284 58.188 38.188 C59.216 38.187 60.244 38.186 61.303 38.186 C66.956 38.153 72.408 37.837 78 37 C77.67 36.01 77.34 35.02 77 34 C77.66 34 78.32 34 79 34 C83 40.625 83 40.625 83 44 C83.66 44 84.32 44 85 44 C86.48 46.02 86.48 46.02 88.188 48.812 C88.811 49.822 89.435 50.831 90.078 51.871 C90.712 52.904 91.347 53.936 92 55 C93.143 56.794 94.288 58.585 95.438 60.375 C96.625 62.25 97.813 64.125 99 66 C99.364 66.566 99.727 67.133 100.102 67.716 C101.242 69.494 102.372 71.277 103.5 73.062 C104.191 74.147 104.882 75.231 105.594 76.348 C106.058 77.223 106.522 78.098 107 79 C106.67 79.66 106.34 80.32 106 81 C105.34 80.34 104.68 79.68 104 79 C101.506 79.474 99.179 80.044 96.75 80.75 C84.397 84.301 72.131 85.317 59.312 85.188 C58.085 85.187 56.857 85.186 55.592 85.186 C40.122 85.111 26.791 82.544 12.062 78 C11.245 77.751 10.428 77.502 9.586 77.245 C5.349 75.909 1.731 74.472 -2 72 C-3.6 71.097 -5.204 70.201 -6.812 69.312 C-7.603 68.876 -8.393 68.439 -9.207 67.988 C-9.799 67.662 -10.39 67.336 -11 67 C-11 66.34 -11 65.68 -11 65 C-11.743 64.732 -12.485 64.464 -13.25 64.188 C-15.891 63.047 -17.856 61.906 -20 60 C-20 59.34 -20 58.68 -20 58 C-20.66 58 -21.32 58 -22 58 C-22 57.34 -22 56.68 -22 56 C-22.575 55.791 -23.15 55.582 -23.742 55.367 C-26.838 53.492 -28.176 51.157 -30.125 48.125 C-30.808 47.076 -31.491 46.026 -32.195 44.945 C-36 38.736 -36 38.736 -36 35 C-37.65 34.34 -39.3 33.68 -41 33 C-39.515 32.505 -39.515 32.505 -38 32 C-38.339 27.513 -38.339 27.513 -41.062 24.125 C-41.702 23.754 -42.341 23.382 -43 23 C-41.35 23.33 -39.7 23.66 -38 24 C-38 20.7 -38 17.4 -38 14 C-39.361 14.773 -39.361 14.773 -40.75 15.562 C-44.164 17.073 -44.686 17.088 -48 16 C-41.552 13.197 -35.169 10.611 -28.402 8.691 C-24.561 7.586 -20.784 6.289 -17 5 C-17.199 5.572 -17.397 6.145 -17.602 6.734 C-18.63 12.581 -13.371 19.481 -10.27 24.23 C-8.407 26.826 -6.393 28.879 -4 31 C-3.41 31.532 -2.819 32.065 -2.211 32.613 C11.784 44.433 30.866 49.917 48.812 51.312 C50.404 51.441 50.404 51.441 52.027 51.572 C63.126 52.315 73.986 51.383 85 50 C85 49.01 85 48.02 85 47 C84.05 47.316 83.1 47.632 82.121 47.957 C77.471 49.279 72.874 49.5 68.062 49.688 C67.137 49.725 66.211 49.763 65.257 49.802 C40.511 50.649 22.166 45.188 1 33 C1 32.34 1 31.68 1 31 C0.422 30.755 -0.155 30.51 -0.75 30.258 C-7.203 26.65 -12.779 19.035 -15 12 C-15.279 9.554 -15.206 7.471 -15 5 C-14.01 4.67 -13.02 4.34 -12 4 C-11.67 3.34 -11.34 2.68 -11 2 C-3.796 -1.67 -3.796 -1.67 0 0 Z " fill="#D2D2D2" transform="translate(93,134)"/>
<path d="M0 0 C1.546 2.319 2.796 4.506 4 7 C4.683 6.984 5.366 6.969 6.069 6.952 C27.217 6.533 51.959 6.346 71.082 16.984 C74.895 19.003 78.979 20.451 83 22 C83 22.66 83 23.32 83 24 C84.32 24 85.64 24 87 24 C87.66 23.34 88.32 22.68 89 22 C89.098 22.598 89.196 23.196 89.297 23.812 C90.142 26.441 91.113 27.29 93.25 29 C93.875 29.508 94.5 30.016 95.145 30.539 C95.757 31.021 96.369 31.503 97 32 C97.969 32.784 98.939 33.567 99.938 34.375 C100.618 34.911 101.299 35.447 102 36 C101.67 36.66 101.34 37.32 101 38 C103.842 39.573 103.842 39.573 107 40 C107.33 39.34 107.66 38.68 108 38 C108.66 38.33 109.32 38.66 110 39 C109.732 39.99 109.464 40.98 109.188 42 C108.677 45.442 109.342 46.984 111.312 49.812 C116.98 57.95 116.32 68.001 116.261 77.56 C116.25 79.629 116.261 81.697 116.273 83.766 C116.288 96.516 113.915 107.711 106 118 C105.34 118 104.68 118 104 118 C103.67 118.99 103.34 119.98 103 121 C107.796 121.9 112.514 122.294 117.375 122.562 C118.111 122.606 118.847 122.649 119.605 122.693 C121.403 122.798 123.202 122.9 125 123 C125 123.33 125 123.66 125 124 C116.42 124.33 107.84 124.66 99 125 C99 125.66 99 126.32 99 127 C101.31 127.99 103.62 128.98 106 130 C102.074 131.309 100.58 130.194 96.938 128.594 C94.816 127.739 94.816 127.739 92 129 C92 129.66 92 130.32 92 131 C89.525 131.99 89.525 131.99 87 133 C87 133.66 87 134.32 87 135 C87.66 135 88.32 135 89 135 C88.67 135.66 88.34 136.32 88 137 C86.438 135.75 86.438 135.75 85 134 C84.875 132.063 84.875 132.063 86 130 C87.736 128.939 89.478 127.884 91.285 126.949 C93.197 125.891 94.503 124.575 96 123 C96.66 123 97.32 123 98 123 C98 122.34 98 121.68 98 121 C98.66 121 99.32 121 100 121 C100 120.34 100 119.68 100 119 C100.66 119 101.32 119 102 119 C102 118.01 102 117.02 102 116 C101.67 116.66 101.34 117.32 101 118 C100.34 118 99.68 118 99 118 C99 118.66 99 119.32 99 120 C98.34 120 97.68 120 97 120 C97 120.66 97 121.32 97 122 C96.01 121.67 95.02 121.34 94 121 C94.66 121 95.32 121 96 121 C96 120.34 96 119.68 96 119 C96.66 119 97.32 119 98 119 C98 118.34 98 117.68 98 117 C98.66 117 99.32 117 100 117 C100.33 116.01 100.66 115.02 101 114 C101.66 114 102.32 114 103 114 C103 113.34 103 112.68 103 112 C103.66 112 104.32 112 105 112 C105.33 110.68 105.66 109.36 106 108 C105.34 108 104.68 108 104 108 C103.67 108.66 103.34 109.32 103 110 C103 109.01 103 108.02 103 107 C103.66 107 104.32 107 105 107 C105.99 105.02 105.99 105.02 107 103 C107.66 103.33 108.32 103.66 109 104 C109.33 102.68 109.66 101.36 110 100 C108.025 100.348 108.025 100.348 106 101 C105.67 101.66 105.34 102.32 105 103 C104.319 103.392 103.639 103.784 102.938 104.188 C100.408 105.748 98.545 107.258 96.375 109.25 C92.28 112.937 87.829 115.767 83.125 118.617 C82.424 119.074 81.722 119.53 81 120 C81 120.33 81 120.66 81 121 C81.99 121.33 82.98 121.66 84 122 C83.361 122.124 82.721 122.248 82.062 122.375 C81.382 122.581 80.701 122.787 80 123 C79.67 123.66 79.34 124.32 79 125 C78.34 123.35 77.68 121.7 77 120 C76.34 120 75.68 120 75 120 C72 115.615 72 115.615 72 113 C71.34 113 70.68 113 70 113 C67 108.615 67 108.615 67 106 C66.34 106 65.68 106 65 106 C61 99.25 61 99.25 61 97 C60.34 97 59.68 97 59 97 C59 96.01 59 95.02 59 94 C58.34 94 57.68 94 57 94 C57.33 93.34 57.66 92.68 58 92 C58.99 92.33 59.98 92.66 61 93 C65.901 90.683 68.86 88.522 72 84 C71.196 84.309 71.196 84.309 70.375 84.625 C67.167 85.131 64.987 84.154 62 83 C62.99 81.515 62.99 81.515 64 80 C64.33 80.66 64.66 81.32 65 82 C67.916 82.25 67.916 82.25 71 82 C71.99 80.515 71.99 80.515 73 79 C73.99 79.33 74.98 79.66 76 80 C76.649 78.418 77.294 76.834 77.938 75.25 C78.297 74.368 78.657 73.487 79.027 72.578 C79.854 70.388 80.494 68.281 81 66 C80.34 66 79.68 66 79 66 C79 65.34 79 64.68 79 64 C78.34 64 77.68 64 77 64 C77 63.34 77 62.68 77 62 C76.34 62 75.68 62 75 62 C74.296 61.261 73.592 60.523 72.867 59.762 C69.533 56.55 66.26 54.795 62.125 52.812 C61.443 52.47 60.761 52.128 60.059 51.775 C55.778 49.676 51.621 48.176 47 47 C46.67 47.66 46.34 48.32 46 49 C45.298 47.758 44.614 46.506 43.938 45.25 C43.555 44.554 43.172 43.858 42.777 43.141 C41.869 40.639 42.117 39.467 43 37 C43.66 39.31 44.32 41.62 45 44 C45.629 44.11 46.258 44.219 46.906 44.332 C60.125 46.781 70.577 52.112 80 62 C77.039 52.549 74.283 45.489 65.688 39.812 C64.801 39.214 63.914 38.616 63 38 C63 37.34 63 36.68 63 36 C61.515 35.629 61.515 35.629 60 35.25 C57.235 34.475 54.934 33.47 52.438 32.062 C46.097 28.73 38.146 27 31 27 C33.31 28.32 35.62 29.64 38 31 C36.515 31.495 36.515 31.495 35 32 C33.321 31.021 31.657 30.017 30 29 C17.647 24.767 -1.093 25.312 -13 31 C-14.142 31.544 -15.284 32.088 -16.461 32.648 C-21.576 35.135 -26.446 37.574 -31 41 C-31.66 41 -32.32 41 -33 41 C-33 41.66 -33 42.32 -33 43 C-34.5 44.625 -34.5 44.625 -36 46 C-33.69 46.33 -31.38 46.66 -29 47 C-29.495 47.99 -29.495 47.99 -30 49 C-30.641 48.965 -31.281 48.93 -31.941 48.895 C-37.917 48.708 -41.644 49.429 -47 52 C-48.32 52 -49.64 52 -51 52 C-50.691 51.278 -50.381 50.556 -50.062 49.812 C-48.832 46.554 -48 43.494 -48 40 C-47.34 40 -46.68 40 -46 40 C-46 39.34 -46 38.68 -46 38 C-45.34 38 -44.68 38 -44 38 C-43.67 37.01 -43.34 36.02 -43 35 C-37.743 31 -37.743 31 -34 31 C-34 30.34 -34 29.68 -34 29 C-22.411 23.468 -11.918 19.55 0.824 17.559 C1.542 17.374 2.26 17.19 3 17 C3.33 16.34 3.66 15.68 4 15 C3.325 15.156 2.649 15.312 1.953 15.473 C0.615 15.765 0.615 15.765 -0.75 16.062 C-1.632 16.26 -2.513 16.457 -3.422 16.66 C-6 17 -6 17 -10 16 C-5.38 15.01 -0.76 14.02 4 13 C2.878 11.656 2.878 11.656 -0.023 11.832 C-4.396 12.017 -8.372 12.715 -12.625 13.688 C-13.409 13.863 -14.193 14.039 -15.001 14.22 C-21.017 15.631 -26.603 17.544 -32.301 19.949 C-34.874 20.951 -37.282 21.549 -40 22 C-40 22.66 -40 23.32 -40 24 C-41.609 24.712 -41.609 24.712 -43.25 25.438 C-48.889 28.242 -58.123 33.246 -61 39 C-61.66 39 -62.32 39 -63 39 C-63.258 39.549 -63.516 40.098 -63.781 40.664 C-65.695 44.332 -68.055 47.706 -70.344 51.148 C-72.025 54.043 -73.055 56.797 -74 60 C-73.257 59.649 -72.515 59.299 -71.75 58.938 C-68.789 57.928 -67.879 58.12 -65 59 C-67.622 60.03 -70.247 61.049 -72.875 62.062 C-73.621 62.357 -74.368 62.652 -75.137 62.955 C-77.07 63.695 -79.034 64.354 -81 65 C-81.66 64.67 -82.32 64.34 -83 64 C-80.69 63.34 -78.38 62.68 -76 62 C-76.103 61.216 -76.206 60.433 -76.312 59.625 C-75.695 52.467 -71.316 45.656 -67 40 C-66.34 40 -65.68 40 -65 40 C-64.598 39.103 -64.598 39.103 -64.188 38.188 C-63.001 36.002 -61.904 34.587 -60 33 C-59.34 33 -58.68 33 -58 33 C-58 32.34 -58 31.68 -58 31 C-55.805 29.285 -53.629 27.723 -51.312 26.188 C-50.636 25.738 -49.96 25.288 -49.264 24.824 C-43.109 20.852 -36.934 18.363 -30 16 C-28.824 15.464 -27.649 14.927 -26.438 14.375 C-17.192 10.677 -7.895 9.463 2 9 C1.505 7.886 1.505 7.886 1 6.75 C0 4 0 4 0 0 Z " fill="#B6B6B6" transform="translate(133,68)"/>
<path d="M0 0 C-1.32 0.33 -2.64 0.66 -4 1 C-3.405 2.753 -2.798 4.502 -2.188 6.25 C-1.851 7.225 -1.515 8.199 -1.168 9.203 C-0.129 12.015 -0.129 12.015 1.637 14.172 C3 16 3 16 3 19 C3.66 19 4.32 19 5 19 C6.086 20.434 6.086 20.434 7.375 22.438 C11.564 28.228 17.183 31.967 23 36 C23.657 36.485 24.315 36.969 24.992 37.469 C31.088 41.695 38.237 43.914 45.181 46.358 C46.674 46.885 48.162 47.429 49.648 47.977 C69.322 55.008 93.443 54.869 113.844 51.438 C117.264 50.963 120.551 50.93 124 51 C124.33 50.01 124.66 49.02 125 48 C135.277 62.291 135.277 62.291 138 68 C137.67 68.66 137.34 69.32 137 70 C136.34 69.34 135.68 68.68 135 68 C132.506 68.474 130.179 69.044 127.75 69.75 C115.397 73.301 103.131 74.317 90.312 74.188 C89.085 74.187 87.857 74.186 86.592 74.186 C71.122 74.111 57.791 71.544 43.062 67 C42.245 66.751 41.428 66.502 40.586 66.245 C36.349 64.909 32.731 63.472 29 61 C27.4 60.097 25.796 59.201 24.188 58.312 C23.397 57.876 22.607 57.439 21.793 56.988 C21.201 56.662 20.61 56.336 20 56 C20 55.34 20 54.68 20 54 C19.257 53.732 18.515 53.464 17.75 53.188 C15.109 52.047 13.144 50.906 11 49 C11 48.34 11 47.68 11 47 C10.34 47 9.68 47 9 47 C9 46.34 9 45.68 9 45 C8.425 44.791 7.85 44.582 7.258 44.367 C4.162 42.492 2.824 40.157 0.875 37.125 C0.192 36.076 -0.491 35.026 -1.195 33.945 C-5 27.736 -5 27.736 -5 24 C-7.475 23.01 -7.475 23.01 -10 22 C-9.01 21.67 -8.02 21.34 -7 21 C-7.339 16.513 -7.339 16.513 -10.062 13.125 C-10.702 12.754 -11.341 12.382 -12 12 C-10.35 12.33 -8.7 12.66 -7 13 C-7 9.7 -7 6.4 -7 3 C-8.361 3.773 -8.361 3.773 -9.75 4.562 C-13.164 6.073 -13.686 6.088 -17 5 C-15.109 4.156 -13.212 3.325 -11.312 2.5 C-10.257 2.036 -9.201 1.572 -8.113 1.094 C-5.144 0.05 -3.108 -0.231 0 0 Z " fill="#838383" transform="translate(62,145)"/>
<path d="M0 0 C1.121 0.257 2.243 0.513 3.398 0.777 C14.714 3.687 25.956 8.463 35 16 C35 16.66 35 17.32 35 18 C35.583 18.235 36.165 18.469 36.766 18.711 C39.505 20.292 40.87 22.094 42.75 24.625 C43.67 25.851 43.67 25.851 44.609 27.102 C45.068 27.728 45.527 28.355 46 29 C45.67 27.68 45.34 26.36 45 25 C45.66 25 46.32 25 47 25 C47.982 26.936 48.96 28.874 49.938 30.812 C50.483 31.891 51.028 32.97 51.59 34.082 C55.066 41.275 55.498 50.691 52.875 58.312 C47.836 69.39 38.247 80.572 26.871 85.301 C24 86 24 86 21 85 C19.006 82.339 17 79.388 17 76 C16.34 76 15.68 76 15 76 C15 75.01 15 74.02 15 73 C14.34 73 13.68 73 13 73 C13.33 72.34 13.66 71.68 14 71 C15.485 71.495 15.485 71.495 17 72 C21.901 69.683 24.86 67.522 28 63 C27.196 63.309 27.196 63.309 26.375 63.625 C23.167 64.131 20.987 63.154 18 62 C18.66 61.01 19.32 60.02 20 59 C20.33 59.66 20.66 60.32 21 61 C23.916 61.25 23.916 61.25 27 61 C27.66 60.01 28.32 59.02 29 58 C30.485 58.495 30.485 58.495 32 59 C32.649 57.418 33.294 55.834 33.938 54.25 C34.477 52.927 34.477 52.927 35.027 51.578 C35.854 49.388 36.494 47.281 37 45 C36.34 45 35.68 45 35 45 C35 44.34 35 43.68 35 43 C34.34 43 33.68 43 33 43 C33 42.34 33 41.68 33 41 C32.34 41 31.68 41 31 41 C30.296 40.261 29.592 39.523 28.867 38.762 C25.533 35.55 22.26 33.795 18.125 31.812 C17.443 31.47 16.761 31.128 16.059 30.775 C11.778 28.676 7.621 27.176 3 26 C2.67 26.66 2.34 27.32 2 28 C1.298 26.758 0.614 25.506 -0.062 24.25 C-0.445 23.554 -0.828 22.858 -1.223 22.141 C-2.131 19.639 -1.883 18.467 -1 16 C-0.01 19.465 -0.01 19.465 1 23 C1.629 23.11 2.258 23.219 2.906 23.332 C16.125 25.781 26.577 31.112 36 41 C33.039 31.549 30.283 24.489 21.688 18.812 C20.801 18.214 19.914 17.616 19 17 C19 16.34 19 15.68 19 15 C17.515 14.629 17.515 14.629 16 14.25 C13.235 13.475 10.934 12.47 8.438 11.062 C2.097 7.73 -5.854 6 -13 6 C-10.69 7.32 -8.38 8.64 -6 10 C-6.99 10.33 -7.98 10.66 -9 11 C-10.679 10.021 -12.343 9.017 -14 8 C-26.353 3.767 -45.093 4.312 -57 10 C-58.142 10.544 -59.284 11.088 -60.461 11.648 C-65.576 14.135 -70.446 16.574 -75 20 C-75.66 20 -76.32 20 -77 20 C-77 20.66 -77 21.32 -77 22 C-78.5 23.625 -78.5 23.625 -80 25 C-77.69 25.33 -75.38 25.66 -73 26 C-73.33 26.66 -73.66 27.32 -74 28 C-74.641 27.965 -75.281 27.93 -75.941 27.895 C-81.917 27.708 -85.644 28.429 -91 31 C-92.32 31 -93.64 31 -95 31 C-93.515 25.719 -89.913 21.719 -86 18 C-85.34 18 -84.68 18 -84 18 C-83.67 17.01 -83.34 16.02 -83 15 C-61.16 -2.826 -26.626 -6.147 0 0 Z " fill="#D7D7D7" transform="translate(177,89)"/>
<path d="M0 0 C-1.98 0.99 -1.98 0.99 -4 2 C-2.447 7.055 -0.857 11.511 2 16 C2 16.66 2 17.32 2 18 C2.66 18 3.32 18 4 18 C4 18.66 4 19.32 4 20 C4.99 20.33 5.98 20.66 7 21 C7 21.66 7 22.32 7 23 C7.558 23.268 8.116 23.536 8.691 23.812 C12.062 25.546 15.243 27.57 18.465 29.562 C22.04 31.59 24.856 33 29 33 C28.67 32.67 28.34 32.34 28 32 C27.797 30.039 27.797 30.039 27.75 27.625 C27.724 26.834 27.698 26.042 27.672 25.227 C28.075 22.492 28.864 21.691 31 20 C31.66 19.67 32.32 19.34 33 19 C33.33 18.34 33.66 17.68 34 17 C37.815 19.166 41.001 21.002 43 25 C43.396 28.639 43.495 30.346 41.25 33.312 C39.021 34.984 37.663 35.435 35 36 C42.808 37.701 50.209 38.284 58.188 38.188 C59.216 38.187 60.244 38.186 61.303 38.186 C66.956 38.153 72.408 37.837 78 37 C77.67 36.01 77.34 35.02 77 34 C77.66 34 78.32 34 79 34 C83 40.625 83 40.625 83 44 C83.66 44 84.32 44 85 44 C86.691 46.266 86.691 46.266 88.562 49.25 C89.493 50.712 89.493 50.712 90.441 52.203 C91.759 54.568 92.541 56.362 93 59 C91.515 58.01 91.515 58.01 90 57 C87.903 57.125 87.903 57.125 85.625 57.75 C64.373 62.486 44.001 61.597 23 56 C23 55.67 23 55.34 23 55 C27.779 55.499 32.528 56.061 37.277 56.789 C49.445 58.617 60.769 59.37 73 58 C73.766 57.915 74.532 57.83 75.322 57.743 C79.89 57.224 84.447 56.639 89 56 C88.01 54.35 87.02 52.7 86 51 C85.215 51.133 84.43 51.266 83.621 51.402 C82.571 51.579 81.52 51.756 80.438 51.938 C79.405 52.112 78.372 52.286 77.309 52.465 C59.664 55.319 42.087 54.43 25 49 C25 48.67 25 48.34 25 48 C29.905 48.49 34.714 49.111 39.562 50 C55.021 52.563 69.494 51.665 85 50 C85 49.01 85 48.02 85 47 C84.05 47.316 83.1 47.632 82.121 47.957 C77.471 49.279 72.874 49.5 68.062 49.688 C67.137 49.725 66.211 49.763 65.257 49.802 C40.511 50.649 22.166 45.188 1 33 C1 32.34 1 31.68 1 31 C0.422 30.755 -0.155 30.51 -0.75 30.258 C-7.203 26.65 -12.779 19.035 -15 12 C-15.279 9.554 -15.206 7.471 -15 5 C-14.01 4.67 -13.02 4.34 -12 4 C-11.67 3.34 -11.34 2.68 -11 2 C-3.796 -1.67 -3.796 -1.67 0 0 Z " fill="#8C8C8C" transform="translate(93,134)"/>
<path d="M0 0 C1.546 2.319 2.796 4.506 4 7 C4.683 6.984 5.366 6.969 6.069 6.952 C27.217 6.533 51.959 6.346 71.082 16.984 C74.895 19.003 78.979 20.451 83 22 C83 22.66 83 23.32 83 24 C84.32 24 85.64 24 87 24 C87.66 23.34 88.32 22.68 89 22 C89.098 22.598 89.196 23.196 89.297 23.812 C90.142 26.441 91.113 27.29 93.25 29 C93.875 29.508 94.5 30.016 95.145 30.539 C95.757 31.021 96.369 31.503 97 32 C97.969 32.784 98.939 33.567 99.938 34.375 C100.618 34.911 101.299 35.447 102 36 C101.67 36.66 101.34 37.32 101 38 C103.842 39.573 103.842 39.573 107 40 C107.33 39.34 107.66 38.68 108 38 C108.66 38.33 109.32 38.66 110 39 C109.732 39.99 109.464 40.98 109.188 42 C108.677 45.442 109.342 46.984 111.312 49.812 C116.98 57.95 116.32 68.001 116.261 77.56 C116.25 79.629 116.261 81.697 116.273 83.766 C116.288 96.516 113.915 107.711 106 118 C105.34 118 104.68 118 104 118 C103.67 118.99 103.34 119.98 103 121 C107.796 121.9 112.514 122.294 117.375 122.562 C118.111 122.606 118.847 122.649 119.605 122.693 C121.403 122.798 123.202 122.9 125 123 C125 123.33 125 123.66 125 124 C116.42 124.33 107.84 124.66 99 125 C99 125.66 99 126.32 99 127 C101.31 127.99 103.62 128.98 106 130 C102.074 131.309 100.58 130.194 96.938 128.594 C94.816 127.739 94.816 127.739 92 129 C92 129.66 92 130.32 92 131 C89.525 131.99 89.525 131.99 87 133 C87 133.66 87 134.32 87 135 C87.66 135 88.32 135 89 135 C88.67 135.66 88.34 136.32 88 137 C86.438 135.75 86.438 135.75 85 134 C84.875 132.063 84.875 132.063 86 130 C87.736 128.939 89.478 127.884 91.285 126.949 C93.197 125.891 94.503 124.575 96 123 C96.66 123 97.32 123 98 123 C98 122.34 98 121.68 98 121 C98.66 121 99.32 121 100 121 C100 120.34 100 119.68 100 119 C100.66 119 101.32 119 102 119 C102 118.01 102 117.02 102 116 C101.67 116.66 101.34 117.32 101 118 C100.34 118 99.68 118 99 118 C99 118.66 99 119.32 99 120 C98.34 120 97.68 120 97 120 C97 120.66 97 121.32 97 122 C96.01 121.67 95.02 121.34 94 121 C94.66 121 95.32 121 96 121 C96 120.34 96 119.68 96 119 C96.66 119 97.32 119 98 119 C98 118.34 98 117.68 98 117 C98.66 117 99.32 117 100 117 C100.33 116.01 100.66 115.02 101 114 C101.66 114 102.32 114 103 114 C103 113.34 103 112.68 103 112 C103.66 112 104.32 112 105 112 C105.33 110.68 105.66 109.36 106 108 C105.34 108 104.68 108 104 108 C103.67 108.66 103.34 109.32 103 110 C103 109.01 103 108.02 103 107 C103.66 107 104.32 107 105 107 C105.99 105.02 105.99 105.02 107 103 C107.66 103.33 108.32 103.66 109 104 C109.33 102.68 109.66 101.36 110 100 C108.025 100.348 108.025 100.348 106 101 C105.67 101.66 105.34 102.32 105 103 C104.319 103.392 103.639 103.784 102.938 104.188 C100.408 105.748 98.545 107.258 96.375 109.25 C92.28 112.937 87.829 115.767 83.125 118.617 C82.424 119.074 81.722 119.53 81 120 C81 120.33 81 120.66 81 121 C81.99 121.33 82.98 121.66 84 122 C83.361 122.124 82.721 122.248 82.062 122.375 C81.382 122.581 80.701 122.787 80 123 C79.67 123.66 79.34 124.32 79 125 C78.34 123.35 77.68 121.7 77 120 C76.34 120 75.68 120 75 120 C74.67 118.68 74.34 117.36 74 116 C74.99 116.66 75.98 117.32 77 118 C81.296 115.985 84.972 113.677 88.75 110.812 C93.778 107 93.778 107 96 107 C96 106.34 96 105.68 96 105 C96.66 105 97.32 105 98 105 C98 104.34 98 103.68 98 103 C98.66 103 99.32 103 100 103 C100.33 102.01 100.66 101.02 101 100 C101.66 100 102.32 100 103 100 C103.268 99.448 103.536 98.897 103.812 98.328 C105.127 95.751 106.565 93.262 108 90.75 C113.029 81.452 114.676 71.998 112.465 61.445 C110.35 54.766 107.268 48.548 103 43 C103 42.34 103 41.68 103 41 C102.361 40.732 101.721 40.464 101.062 40.188 C99 39 99 39 98 36 C97.34 36 96.68 36 96 36 C96 35.34 96 34.68 96 34 C95.34 33.794 94.68 33.588 94 33.375 C91.373 32.171 89.816 31.107 87.625 29.312 C82.231 25.121 76.044 22.518 69.819 19.799 C68.072 19.032 66.34 18.229 64.609 17.426 C60.388 15.758 56.249 14.776 51.812 13.875 C51.038 13.706 50.264 13.537 49.467 13.363 C38.627 11.108 27.788 10.853 16.75 10.938 C15.612 10.942 14.474 10.947 13.301 10.951 C10.534 10.963 7.767 10.979 5 11 C4.67 11.66 4.34 12.32 4 13 C3.505 12.505 3.505 12.505 3 12 C-2.467 11.696 -7.337 12.478 -12.625 13.688 C-13.409 13.863 -14.193 14.039 -15.001 14.22 C-21.017 15.631 -26.603 17.544 -32.301 19.949 C-34.874 20.951 -37.282 21.549 -40 22 C-40 22.66 -40 23.32 -40 24 C-41.609 24.712 -41.609 24.712 -43.25 25.438 C-48.889 28.242 -58.123 33.246 -61 39 C-61.66 39 -62.32 39 -63 39 C-63.258 39.549 -63.516 40.098 -63.781 40.664 C-65.695 44.332 -68.055 47.706 -70.344 51.148 C-72.025 54.043 -73.055 56.797 -74 60 C-73.257 59.649 -72.515 59.299 -71.75 58.938 C-68.789 57.928 -67.879 58.12 -65 59 C-67.622 60.03 -70.247 61.049 -72.875 62.062 C-73.621 62.357 -74.368 62.652 -75.137 62.955 C-77.07 63.695 -79.034 64.354 -81 65 C-81.66 64.67 -82.32 64.34 -83 64 C-80.69 63.34 -78.38 62.68 -76 62 C-76.103 61.216 -76.206 60.433 -76.312 59.625 C-75.695 52.467 -71.316 45.656 -67 40 C-66.34 40 -65.68 40 -65 40 C-64.598 39.103 -64.598 39.103 -64.188 38.188 C-63.001 36.002 -61.904 34.587 -60 33 C-59.34 33 -58.68 33 -58 33 C-58 32.34 -58 31.68 -58 31 C-55.805 29.285 -53.629 27.723 -51.312 26.188 C-50.636 25.738 -49.96 25.288 -49.264 24.824 C-43.109 20.852 -36.934 18.363 -30 16 C-28.824 15.464 -27.649 14.927 -26.438 14.375 C-17.192 10.677 -7.895 9.463 2 9 C1.505 7.886 1.505 7.886 1 6.75 C0 4 0 4 0 0 Z " fill="#0C0C0C" transform="translate(133,68)"/>
<path d="M0 0 C-1.32 0.33 -2.64 0.66 -4 1 C-3.405 2.753 -2.798 4.502 -2.188 6.25 C-1.851 7.225 -1.515 8.199 -1.168 9.203 C-0.129 12.015 -0.129 12.015 1.637 14.172 C3 16 3 16 3 19 C3.66 19 4.32 19 5 19 C6.086 20.434 6.086 20.434 7.375 22.438 C11.564 28.228 17.183 31.967 23 36 C23.657 36.485 24.315 36.969 24.992 37.469 C31.088 41.695 38.237 43.914 45.181 46.358 C46.674 46.885 48.162 47.429 49.648 47.977 C69.322 55.008 93.443 54.869 113.844 51.438 C117.264 50.963 120.551 50.93 124 51 C124.33 50.01 124.66 49.02 125 48 C125.99 49.98 125.99 49.98 127 52 C99.343 62.178 63.056 58.819 36.625 46.688 C28.353 42.83 20.151 38.721 13 33 C13 32.34 13 31.68 13 31 C12.34 31.33 11.68 31.66 11 32 C11.99 33.32 12.98 34.64 14 36 C12.063 35.188 12.063 35.188 10 34 C9.67 33.01 9.34 32.02 9 31 C7.68 31 6.36 31 5 31 C5 34.147 5.6 35.288 7 38 C7 39.333 7 40.667 7 42 C7.536 42.227 8.073 42.454 8.625 42.688 C11.825 44.456 14.29 46.537 17 49 C17 49.66 17 50.32 17 51 C17.887 51.248 18.774 51.495 19.688 51.75 C23 53 23 53 25.25 54.812 C33.348 61.254 43.105 63.735 52.917 66.393 C54.575 66.876 56.213 67.427 57.842 68 C67.935 71.195 78.749 71.36 89.25 71.312 C90.51 71.309 91.77 71.306 93.068 71.302 C114.205 71.466 114.205 71.466 133 64 C132.34 63.34 131.68 62.68 131 62 C131.99 61.01 131.99 61.01 133 60 C133.864 61.285 134.716 62.578 135.562 63.875 C136.038 64.594 136.514 65.314 137.004 66.055 C137.333 66.697 137.661 67.339 138 68 C137.67 68.66 137.34 69.32 137 70 C136.34 69.34 135.68 68.68 135 68 C132.506 68.474 130.179 69.044 127.75 69.75 C115.397 73.301 103.131 74.317 90.312 74.188 C89.085 74.187 87.857 74.186 86.592 74.186 C71.122 74.111 57.791 71.544 43.062 67 C42.245 66.751 41.428 66.502 40.586 66.245 C36.349 64.909 32.731 63.472 29 61 C27.4 60.097 25.796 59.201 24.188 58.312 C23.397 57.876 22.607 57.439 21.793 56.988 C21.201 56.662 20.61 56.336 20 56 C20 55.34 20 54.68 20 54 C19.257 53.732 18.515 53.464 17.75 53.188 C15.109 52.047 13.144 50.906 11 49 C11 48.34 11 47.68 11 47 C10.34 47 9.68 47 9 47 C9 46.34 9 45.68 9 45 C8.425 44.791 7.85 44.582 7.258 44.367 C4.162 42.492 2.824 40.157 0.875 37.125 C0.192 36.076 -0.491 35.026 -1.195 33.945 C-5 27.736 -5 27.736 -5 24 C-7.475 23.01 -7.475 23.01 -10 22 C-9.01 21.67 -8.02 21.34 -7 21 C-7.339 16.513 -7.339 16.513 -10.062 13.125 C-10.702 12.754 -11.341 12.382 -12 12 C-10.35 12.33 -8.7 12.66 -7 13 C-7 9.7 -7 6.4 -7 3 C-8.361 3.773 -8.361 3.773 -9.75 4.562 C-13.164 6.073 -13.686 6.088 -17 5 C-15.109 4.156 -13.212 3.325 -11.312 2.5 C-10.257 2.036 -9.201 1.572 -8.113 1.094 C-5.144 0.05 -3.108 -0.231 0 0 Z " fill="#0C0C0C" transform="translate(62,145)"/>
<path d="M0 0 C1.216 0.171 2.431 0.343 3.684 0.52 C18.468 2.944 31.75 9.509 44 18 C45.229 18.772 46.458 19.543 47.688 20.312 C48.832 21.148 48.832 21.148 50 22 C50 22.66 50 23.32 50 24 C50.66 24 51.32 24 52 24 C60.468 32.02 67.379 43.078 68.203 54.918 C68.304 61.922 67.866 67.592 65 74 C64.636 74.834 64.273 75.668 63.898 76.527 C61.383 81.923 58.508 87.008 54 91 C53.34 91 52.68 91 52 91 C52 91.66 52 92.32 52 93 C51.34 93 50.68 93 50 93 C50 93.66 50 94.32 50 95 C47.827 96.762 45.658 98.392 43.375 100 C42.758 100.451 42.14 100.902 41.504 101.367 C37.792 104.008 34.454 105.794 30 107 C29.34 105.35 28.68 103.7 28 102 C29.454 100.994 30.914 99.996 32.375 99 C33.187 98.443 33.999 97.886 34.836 97.312 C37 96 37 96 39 96 C39 95.34 39 94.68 39 94 C40.504 92.809 40.504 92.809 42.562 91.438 C51.145 85.194 57.038 76.152 59.312 65.812 C60.922 55.12 59.587 46.797 54.277 37.363 C53 35 53 35 53 33 C52.34 33 51.68 33 51 33 C51 32.01 51 31.02 51 30 C49.824 29.66 49.824 29.66 48.625 29.312 C46 28 46 28 44.688 25.375 C44.461 24.591 44.234 23.808 44 23 C43.01 23 42.02 23 41 23 C41 22.34 41 21.68 41 21 C40.257 20.918 39.515 20.835 38.75 20.75 C35.436 19.846 34.397 18.397 32 16 C28.866 14.732 28.866 14.732 26 14 C26 13.34 26 12.68 26 12 C25.428 11.857 24.855 11.714 24.266 11.566 C19.133 10.283 19.133 10.283 14 9 C14 8.34 14 7.68 14 7 C12.706 6.799 12.706 6.799 11.387 6.594 C7.103 5.843 2.923 4.779 -1.293 3.719 C-10.375 1.958 -19.465 1.864 -28.688 1.938 C-29.783 1.942 -30.878 1.947 -32.006 1.951 C-34.671 1.963 -37.335 1.979 -40 2 C-40.33 1.01 -40.66 0.02 -41 -1 C-28.982 -5.006 -12.236 -2.02 0 0 Z " fill="#FDFDFD" transform="translate(179,80)"/>
<path d="M0 0 C0.66 0.33 1.32 0.66 2 1 C0.02 1.99 0.02 1.99 -2 3 C-2 3.66 -2 4.32 -2 5 C-2.66 5 -3.32 5 -4 5 C-4.33 7.31 -4.66 9.62 -5 12 C-4.299 11.526 -3.598 11.051 -2.875 10.562 C3.779 6.946 12.898 6.933 20.125 9 C21.074 9.33 22.022 9.66 23 10 C23 10.66 23 11.32 23 12 C23.66 12 24.32 12 25 12 C25 12.66 25 13.32 25 14 C25.66 14 26.32 14 27 14 C27 14.66 27 15.32 27 16 C27.66 16 28.32 16 29 16 C29.027 18.458 29.047 20.917 29.062 23.375 C29.071 24.074 29.079 24.772 29.088 25.492 C29.113 30.773 29.113 30.773 28 33 C27.34 33 26.68 33 26 33 C26 33.66 26 34.32 26 35 C20.033 39.453 12.454 39.52 5.258 38.68 C1.537 37.911 -0.793 37.138 -4 35 C-4.495 33.515 -4.495 33.515 -5 32 C-5.66 31.67 -6.32 31.34 -7 31 C-7.058 27.438 -7.094 23.875 -7.125 20.312 C-7.142 19.305 -7.159 18.298 -7.176 17.26 C-7.185 15.795 -7.185 15.795 -7.195 14.301 C-7.206 13.405 -7.216 12.51 -7.227 11.587 C-6.977 8.738 -6.18 6.591 -5 4 C-4.34 4 -3.68 4 -3 4 C-3 3.34 -3 2.68 -3 2 C-2.01 1.34 -1.02 0.68 0 0 Z " fill="#C7C7C7" transform="translate(273,178)"/>
<path d="M0 0 C0.99 1.485 0.99 1.485 2 3 C-0.31 3.33 -2.62 3.66 -5 4 C-3.02 4 -1.04 4 1 4 C0.67 4.99 0.34 5.98 0 7 C-0.704 7.086 -1.408 7.173 -2.133 7.262 C-13.158 8.831 -23.296 12.53 -33.328 17.301 C-35 18 -35 18 -37 18 C-37 18.66 -37 19.32 -37 20 C-37.957 20.507 -37.957 20.507 -38.934 21.023 C-40.173 21.692 -40.173 21.692 -41.438 22.375 C-42.261 22.816 -43.085 23.257 -43.934 23.711 C-46.135 24.834 -46.135 24.834 -47 27 C-47.66 27 -48.32 27 -49 27 C-49 27.66 -49 28.32 -49 29 C-49.66 29 -50.32 29 -51 29 C-50.752 29.866 -50.505 30.733 -50.25 31.625 C-49.927 35.989 -51.355 37.634 -54 41 C-53.34 41.33 -52.68 41.66 -52 42 C-66.484 47.33 -66.484 47.33 -74 49 C-75.334 49.33 -76.668 49.663 -78 50 C-75.727 42.914 -72.13 37.161 -68 31 C-67.34 30.01 -66.68 29.02 -66 28 C-65.34 28 -64.68 28 -64 28 C-63.67 27.01 -63.34 26.02 -63 25 C-60.771 22.892 -58.234 21.171 -55.75 19.375 C-55.081 18.872 -54.412 18.37 -53.723 17.852 C-50.215 15.288 -47.463 13.363 -43 13 C-43 12.34 -43 11.68 -43 11 C-37.674 8.981 -32.341 6.98 -27 5 C-26.116 4.671 -25.231 4.343 -24.32 4.004 C-16.677 1.302 -8.139 -0.866 0 0 Z " fill="#C5C5C5" transform="translate(136,79)"/>
<path d="M0 0 C1.375 0.018 2.75 0.038 4.125 0.062 C5.115 0.062 6.105 0.062 7.125 0.062 C14.425 11.013 16.567 19.966 14.125 32.75 C13.803 34.19 13.473 35.629 13.125 37.062 C13.785 37.062 14.445 37.062 15.125 37.062 C15.62 39.043 15.62 39.043 16.125 41.062 C15.465 41.062 14.805 41.062 14.125 41.062 C14.125 40.072 14.125 39.083 14.125 38.062 C13.465 38.062 12.805 38.062 12.125 38.062 C11.135 33.773 10.145 29.483 9.125 25.062 C8.156 26.073 7.186 27.084 6.188 28.125 C3.893 30.132 2.727 31.02 -0.344 31.238 C-2.569 30.967 -4.701 30.605 -6.875 30.062 C-7.205 29.072 -7.535 28.083 -7.875 27.062 C-11.505 26.733 -15.135 26.403 -18.875 26.062 C-18.875 25.403 -18.875 24.743 -18.875 24.062 C-19.535 24.062 -20.195 24.062 -20.875 24.062 C-21.071 21.98 -21.256 19.896 -21.438 17.812 C-21.542 16.652 -21.646 15.492 -21.754 14.297 C-21.931 9.577 -21.931 9.577 -20.875 7.062 C-17.494 4.808 -16.269 4.817 -12.312 4.875 C-11.342 4.881 -10.371 4.888 -9.371 4.895 C-6.875 5.062 -6.875 5.062 -4.875 6.062 C-4.896 5.258 -4.916 4.454 -4.938 3.625 C-4.836 -0.518 -4.344 0.07 0 0 Z " fill="#F8F8F8" transform="translate(172.875,116.9375)"/>
<path d="M0 0 C10.205 2.469 21.17 6.846 29 14 C29 14.66 29 15.32 29 16 C29.66 16 30.32 16 31 16 C31 16.66 31 17.32 31 18 C31.66 18 32.32 18 33 18 C33 18.66 33 19.32 33 20 C33.66 20 34.32 20 35 20 C34.392 24.864 33.432 29.699 31 34 C28.375 35.438 28.375 35.438 26 36 C25.67 36.33 25.34 36.66 25 37 C23 37.041 21 37.043 19 37 C21.491 37.687 23.379 38 26 38 C24.408 42.299 21.607 44.35 18 47 C17.01 47 16.02 47 15 47 C14.67 47.66 14.34 48.32 14 49 C14 48.34 14 47.68 14 47 C13.01 46.67 12.02 46.34 11 46 C9 43 9 43 9 40 C8.34 40 7.68 40 7 40 C6.875 32.25 6.875 32.25 8 30 C9.953 19.853 5.091 11.416 0.734 2.591 C0 1 0 1 0 0 Z " fill="#FFFFFF" transform="translate(179,114)"/>
<path d="M0 0 C0 0.66 0 1.32 0 2 C0.897 2.186 0.897 2.186 1.812 2.375 C4 3 4 3 7 5 C7 5.66 7 6.32 7 7 C7.639 7.268 8.279 7.536 8.938 7.812 C11 9 11 9 12 12 C12.66 12 13.32 12 14 12 C15.32 14.31 16.64 16.62 18 19 C17.34 19.33 16.68 19.66 16 20 C15.01 18.35 14.02 16.7 13 15 C14.316 18.444 14.316 18.444 16.051 21.684 C17.417 25.017 17.329 28.267 17.312 31.812 C17.329 32.499 17.345 33.185 17.361 33.893 C17.366 38.959 16.248 42.463 14 47 C13.34 47 12.68 47 12 47 C11.907 47.804 11.907 47.804 11.812 48.625 C9.823 54.44 5.158 58.02 0 61 C-0.66 61 -1.32 61 -2 61 C-2 61.66 -2 62.32 -2 63 C-2.66 63 -3.32 63 -4 63 C-4.495 64.485 -4.495 64.485 -5 66 C-5 65.34 -5 64.68 -5 64 C-5.66 64 -6.32 64 -7 64 C-7 63.01 -7 62.02 -7 61 C-7.66 61 -8.32 61 -9 61 C-8.67 60.34 -8.34 59.68 -8 59 C-6.515 59.495 -6.515 59.495 -5 60 C-0.099 57.683 2.86 55.522 6 51 C5.464 51.206 4.928 51.412 4.375 51.625 C1.167 52.131 -1.013 51.154 -4 50 C-3.34 49.01 -2.68 48.02 -2 47 C-1.67 47.66 -1.34 48.32 -1 49 C1.916 49.25 1.916 49.25 5 49 C5.66 48.01 6.32 47.02 7 46 C8.485 46.495 8.485 46.495 10 47 C10.649 45.418 11.294 43.834 11.938 42.25 C12.477 40.927 12.477 40.927 13.027 39.578 C13.854 37.388 14.494 35.281 15 33 C14.34 33 13.68 33 13 33 C13 32.34 13 31.68 13 31 C12.34 31 11.68 31 11 31 C11 30.34 11 29.68 11 29 C10.34 29 9.68 29 9 29 C8.296 28.261 7.592 27.523 6.867 26.762 C3.533 23.55 0.26 21.795 -3.875 19.812 C-4.557 19.47 -5.239 19.128 -5.941 18.775 C-10.222 16.676 -14.379 15.176 -19 14 C-19.33 14.66 -19.66 15.32 -20 16 C-20.702 14.758 -21.386 13.506 -22.062 12.25 C-22.445 11.554 -22.828 10.858 -23.223 10.141 C-24.131 7.639 -23.883 6.467 -23 4 C-22.01 7.465 -22.01 7.465 -21 11 C-20.371 11.11 -19.742 11.219 -19.094 11.332 C-5.875 13.781 4.577 19.112 14 29 C11.039 19.549 8.283 12.489 -0.312 6.812 C-1.199 6.214 -2.086 5.616 -3 5 C-3 4.34 -3 3.68 -3 3 C-3.99 2.752 -4.98 2.505 -6 2.25 C-8.765 1.475 -11.066 0.47 -13.562 -0.938 C-19.903 -4.27 -27.854 -6 -35 -6 C-32.69 -4.68 -30.38 -3.36 -28 -2 C-28.99 -1.67 -29.98 -1.34 -31 -1 C-32.679 -1.979 -34.343 -2.983 -36 -4 C-48.353 -8.233 -67.093 -7.688 -79 -2 C-80.142 -1.456 -81.284 -0.912 -82.461 -0.352 C-87.576 2.135 -92.446 4.574 -97 8 C-97.66 8 -98.32 8 -99 8 C-99 8.66 -99 9.32 -99 10 C-100.5 11.625 -100.5 11.625 -102 13 C-99.69 13.33 -97.38 13.66 -95 14 C-95.33 14.66 -95.66 15.32 -96 16 C-99.3 15.67 -102.6 15.34 -106 15 C-106 14.34 -106 13.68 -106 13 C-106.66 12.67 -107.32 12.34 -108 12 C-104.375 7.125 -104.375 7.125 -101 6 C-100.67 5.34 -100.34 4.68 -100 4 C-99.34 4 -98.68 4 -98 4 C-98 3.34 -98 2.68 -98 2 C-89.224 -2.684 -80.709 -6.57 -71 -9 C-70.13 -9.226 -69.26 -9.451 -68.363 -9.684 C-45.553 -14.512 -20.55 -10.873 0 0 Z " fill="#0C0C0C" transform="translate(199,101)"/>
<path d="M0 0 C1.136 0.964 2.238 1.968 3.312 3 C7.495 6.991 11.366 6.846 17 7 C17.495 12.94 17.495 12.94 18 19 C18.66 19 19.32 19 20 19 C20.495 20.485 20.495 20.485 21 22 C19.35 22.33 17.7 22.66 16 23 C15.973 24.792 15.954 26.583 15.938 28.375 C15.926 29.373 15.914 30.37 15.902 31.398 C15.82 33.984 15.82 33.984 17 36 C7.219 34.472 -2.476 29.601 -9 22 C-9 21.34 -9 20.68 -9 20 C-9.66 20 -10.32 20 -11 20 C-11.987 18.108 -12.964 16.211 -13.938 14.312 C-14.483 13.257 -15.028 12.201 -15.59 11.113 C-16.847 8.338 -17.561 5.997 -18 3 C-5.973 -2.068 -5.973 -2.068 0 0 Z " fill="#FFFFFF" transform="translate(106,132)"/>
<path d="M0 0 C2.168 2.168 2.414 3.066 3.188 5.938 C5.063 11.882 8.302 17.01 12 22 C12.66 22.33 13.32 22.66 14 23 C14 23.66 14 24.32 14 25 C14.66 25 15.32 25 16 25 C17.689 26.644 19.353 28.314 21 30 C39.932 46.377 71.684 51.62 96 50 C108.171 48.848 108.171 48.848 120 46 C122 49 122 49 122 52 C120.397 52.319 118.793 52.63 117.188 52.938 C116.294 53.112 115.401 53.286 114.48 53.465 C82.401 58.397 45.328 55.396 18.312 36.062 C5.859 26.709 5.859 26.709 3 22 C3 21.34 3 20.68 3 20 C2.34 20 1.68 20 1 20 C0.011 18.13 -0.966 16.254 -1.938 14.375 C-2.755 12.809 -2.755 12.809 -3.59 11.211 C-4.967 8.076 -5.598 5.385 -6 2 C-4.02 1.34 -2.04 0.68 0 0 Z " fill="#FFFFFF" transform="translate(64,144)"/>
<path d="M0 0 C1.32 0 2.64 0 4 0 C4 0.66 4 1.32 4 2 C4.66 2 5.32 2 6 2 C6.66 4.97 7.32 7.94 8 11 C7.67 9.02 7.34 7.04 7 5 C7.99 5.66 8.98 6.32 10 7 C10 7.66 10 8.32 10 9 C10.99 9.33 11.98 9.66 13 10 C15.188 11.875 15.188 11.875 17 14 C17 14.99 17 15.98 17 17 C17.843 16.988 18.686 16.977 19.555 16.965 C20.65 16.956 21.746 16.947 22.875 16.938 C24.511 16.92 24.511 16.92 26.18 16.902 C29 17 29 17 31 18 C31 18.66 31 19.32 31 20 C28.69 20.66 26.38 21.32 24 22 C25.886 22 27.731 21.413 29.562 21 C30.389 20.814 31.215 20.629 32.066 20.438 C32.704 20.293 33.343 20.149 34 20 C35.172 21.621 36.338 23.247 37.5 24.875 C38.475 26.232 38.475 26.232 39.469 27.617 C41 30 41 30 41 32 C34.376 33.984 28.27 34.347 21.375 34.312 C19.792 34.311 19.792 34.311 18.178 34.309 C10.117 34.21 2.759 33.295 -5 31 C-5 30.67 -5 30.34 -5 30 C-4.362 29.879 -3.724 29.758 -3.066 29.633 C-2.24 29.465 -1.414 29.298 -0.562 29.125 C0.673 28.881 0.673 28.881 1.934 28.633 C2.616 28.424 3.297 28.215 4 28 C5.644 24.711 5.075 21.347 4.875 17.75 C4.07 15.648 4.07 15.648 1.062 14.875 C0.052 14.586 -0.959 14.298 -2 14 C-4 12 -4 12 -4.25 8.562 C-4 5 -4 5 -2 2 C-1.34 2 -0.68 2 0 2 C0 1.34 0 0.68 0 0 Z " fill="#FBFBFB" transform="translate(130,139)"/>
<path d="M0 0 C3.413 1.138 4.507 2.47 7 5 C13.56 9.895 20.395 13.184 28.074 15.945 C31 17 31 17 34.562 18.625 C39.601 20.641 44.701 21.857 50 23 C50.957 23.21 50.957 23.21 51.934 23.423 C71.774 27.636 91.159 26.61 111 23 C113 22.664 114.999 22.33 117 22 C117 22.99 117 23.98 117 25 C115.232 25.491 113.461 25.967 111.688 26.438 C110.701 26.704 109.715 26.971 108.699 27.246 C98.981 29.227 89.193 29.129 79.312 29.062 C78.027 29.058 76.741 29.053 75.416 29.049 C72.277 29.037 69.139 29.021 66 29 C83.577 31.76 101.598 28.937 119 26 C119.495 26.99 119.495 26.99 120 28 C107.421 33.424 93.899 33.569 80.438 33.5 C79.559 33.499 78.681 33.498 77.775 33.497 C64.004 33.447 51.139 32.434 38 28 C37.011 27.68 37.011 27.68 36.003 27.353 C28.895 25.007 22.409 21.833 16 18 C14.647 17.227 13.293 16.456 11.938 15.688 C10.483 14.852 10.483 14.852 9 14 C9.33 13.01 9.66 12.02 10 11 C9.529 10.602 9.059 10.203 8.574 9.793 C7.952 9.263 7.329 8.733 6.688 8.188 C6.073 7.665 5.458 7.143 4.824 6.605 C1.48 3.663 1.48 3.663 0 2 C0 1.34 0 0.68 0 0 Z " fill="#DBDBDB" transform="translate(72,175)"/>
<path d="M0 0 C3.625 0.375 3.625 0.375 7 1 C7 1.33 7 1.66 7 2 C4.69 2.66 2.38 3.32 0 4 C0.66 4.33 1.32 4.66 2 5 C0.384 7.041 -1.286 9.041 -3 11 C-3.66 11 -4.32 11 -5 11 C-6.391 17.073 -6.263 23.11 -6.312 29.312 C-6.356 31.11 -6.356 31.11 -6.4 32.943 C-6.452 40.11 -5.969 44.954 -2 51 C-1.34 51.33 -0.68 51.66 0 52 C0 52.66 0 53.32 0 54 C0.784 54.309 1.567 54.619 2.375 54.938 C5 56 5 56 7 57 C7 57.66 7 58.32 7 59 C8.114 59.186 8.114 59.186 9.25 59.375 C11.814 59.958 13.692 60.787 16 62 C13.291 62.081 10.585 62.141 7.875 62.188 C7.114 62.213 6.354 62.238 5.57 62.264 C0.577 62.328 -2.599 61.612 -7 59 C-7.33 59 -7.66 59 -8 59 C-8.33 53.06 -8.66 47.12 -9 41 C-10.32 40.67 -11.64 40.34 -13 40 C-18.314 37.395 -22.465 34.511 -25 29 C-24.855 24.714 -24.385 22.577 -22 19 C-21.34 19 -20.68 19 -20 19 C-20 18.34 -20 17.68 -20 17 C-19.34 17 -18.68 17 -18 17 C-18 16.34 -18 15.68 -18 15 C-11.25 11 -11.25 11 -9 11 C-9.206 10.422 -9.413 9.845 -9.625 9.25 C-10 7 -10 7 -9.438 4.812 C-7.346 2.175 -5.243 2.405 -2 2 C-1.34 1.34 -0.68 0.68 0 0 Z " fill="#FDFDFD" transform="translate(266,85)"/>
<path d="M0 0 C0 0.66 0 1.32 0 2 C-2.748 4.443 -5.561 5.758 -9 7 C-10.197 14.631 -11.471 23.588 -9 31 C-8.34 31 -7.68 31 -7 31 C-7 31.99 -7 32.98 -7 34 C-5.68 34.66 -4.36 35.32 -3 36 C-3.495 36.99 -3.495 36.99 -4 38 C-4.99 37.34 -5.98 36.68 -7 36 C-9.279 35.546 -9.279 35.546 -11.688 35.375 C-12.496 35.3 -13.304 35.225 -14.137 35.148 C-14.752 35.099 -15.366 35.05 -16 35 C-16.33 34.01 -16.66 33.02 -17 32 C-17.66 32 -18.32 32 -19 32 C-19 31.34 -19 30.68 -19 30 C-19.598 29.773 -20.196 29.546 -20.812 29.312 C-23.566 27.661 -24.442 25.761 -26 23 C-26.66 22.67 -27.32 22.34 -28 22 C-28 21.34 -28 20.68 -28 20 C-30.97 20 -33.94 20 -37 20 C-36.34 19.67 -35.68 19.34 -35 19 C-34.67 18.01 -34.34 17.02 -34 16 C-33.34 16 -32.68 16 -32 16 C-32 15.34 -32 14.68 -32 14 C-23.057 7.25 -11.516 0 0 0 Z " fill="#CDCDCD" transform="translate(132,95)"/>
<path d="M0 0 C12.378 0.249 23.18 4.157 34 10 C34 10.66 34 11.32 34 12 C34.743 12.248 35.485 12.495 36.25 12.75 C39.23 14.105 40.899 15.51 43 18 C43 18.66 43 19.32 43 20 C43.99 20.33 44.98 20.66 46 21 C49.181 25.883 51.538 31.151 52 37 C51.072 36.154 50.144 35.309 49.188 34.438 C40.707 27.205 30.873 20.946 19.688 19.375 C15.399 17.776 15.218 17.15 13.375 13.188 C12.991 12.294 12.607 11.401 12.211 10.48 C9.993 5.937 6.7 3.776 2.125 1.688 C1.424 1.461 0.722 1.234 0 1 C0 0.67 0 0.34 0 0 Z " fill="#FFFFFF" transform="translate(162,94)"/>
<path d="M0 0 C-1.98 0.99 -1.98 0.99 -4 2 C-2.447 7.055 -0.857 11.511 2 16 C2 16.66 2 17.32 2 18 C2.66 18 3.32 18 4 18 C4 18.66 4 19.32 4 20 C4.99 20.33 5.98 20.66 7 21 C7 21.66 7 22.32 7 23 C7.558 23.268 8.116 23.536 8.691 23.812 C12.062 25.546 15.243 27.57 18.465 29.562 C22.04 31.59 24.856 33 29 33 C28.67 32.67 28.34 32.34 28 32 C27.797 30.039 27.797 30.039 27.75 27.625 C27.724 26.834 27.698 26.042 27.672 25.227 C28.075 22.492 28.864 21.691 31 20 C31.66 19.67 32.32 19.34 33 19 C33.33 18.34 33.66 17.68 34 17 C37.815 19.166 41.001 21.002 43 25 C43.396 28.639 43.495 30.346 41.25 33.312 C39.021 34.984 37.663 35.435 35 36 C42.808 37.701 50.209 38.284 58.188 38.188 C59.216 38.187 60.244 38.186 61.303 38.186 C66.956 38.153 72.408 37.837 78 37 C77.67 36.01 77.34 35.02 77 34 C77.66 34 78.32 34 79 34 C82.223 39.176 82.223 39.176 83 41 C82.67 41.99 82.34 42.98 82 44 C80.68 44 79.36 44 78 44 C77.097 44.242 77.097 44.242 76.176 44.49 C71.304 45.633 66.092 45.186 61.101 45.185 C59.007 45.187 56.914 45.206 54.82 45.225 C53.484 45.228 52.148 45.23 50.812 45.23 C49.602 45.235 48.392 45.239 47.145 45.243 C44.164 45.013 42.503 44.567 40 43 C40.927 43.005 41.855 43.01 42.811 43.016 C46.285 43.033 49.758 43.045 53.232 43.055 C54.73 43.06 56.227 43.067 57.725 43.075 C59.889 43.088 62.054 43.093 64.219 43.098 C65.517 43.103 66.816 43.108 68.154 43.114 C72.181 42.995 76.014 42.56 80 42 C79.67 41.34 79.34 40.68 79 40 C77.748 40.161 76.497 40.322 75.207 40.488 C51.808 43.073 27.92 40.951 8.438 26.812 C1.032 20.82 -4.398 14.426 -6.234 4.934 C-6.487 4.296 -6.74 3.657 -7 3 C-9.013 2.152 -9.013 2.152 -11 2 C-3.571 -1.571 -3.571 -1.571 0 0 Z " fill="#010101" transform="translate(93,134)"/>
<path d="M0 0 C1.649 -0.001 1.649 -0.001 3.332 -0.002 C11.687 0.052 19.717 0.69 27.938 2.188 C27.938 2.517 27.938 2.847 27.938 3.188 C26.942 3.115 25.947 3.043 24.922 2.969 C13.582 2.198 2.301 2.082 -9.062 2.188 C-9.062 2.847 -9.062 3.507 -9.062 4.188 C-8.278 4.167 -7.494 4.146 -6.686 4.124 C19.711 3.513 44.69 5.683 65.938 23.188 C65.938 23.847 65.938 24.507 65.938 25.188 C66.536 25.456 67.134 25.724 67.75 26 C69.936 27.187 71.351 28.283 72.938 30.188 C72.938 30.847 72.938 31.507 72.938 32.188 C73.597 32.188 74.257 32.188 74.938 32.188 C75.268 33.507 75.597 34.828 75.938 36.188 C75.278 35.858 74.618 35.528 73.938 35.188 C73.938 36.178 73.938 37.167 73.938 38.188 C71.316 35.641 68.945 33.198 66.688 30.312 C57.972 19.827 44.967 14.15 32.188 10.312 C31.515 10.109 30.843 9.906 30.15 9.697 C14.109 5.195 -5.945 5.466 -22.062 9.188 C-23.184 9.444 -24.305 9.701 -25.461 9.965 C-38.732 13.378 -51.422 19.287 -61.062 29.188 C-62.052 29.847 -63.043 30.507 -64.062 31.188 C-64.392 29.868 -64.722 28.547 -65.062 27.188 C-64.403 27.188 -63.743 27.188 -63.062 27.188 C-63.062 26.528 -63.062 25.868 -63.062 25.188 C-62.403 25.188 -61.743 25.188 -61.062 25.188 C-60.733 24.198 -60.403 23.207 -60.062 22.188 C-54.805 18.188 -54.805 18.188 -51.062 18.188 C-51.062 17.528 -51.062 16.868 -51.062 16.188 C-39.473 10.656 -28.981 6.738 -16.238 4.746 C-15.52 4.562 -14.802 4.377 -14.062 4.188 C-13.733 3.528 -13.403 2.868 -13.062 2.188 C-13.738 2.343 -14.413 2.499 -15.109 2.66 C-16.001 2.855 -16.893 3.049 -17.812 3.25 C-18.694 3.447 -19.576 3.644 -20.484 3.848 C-23.049 4.186 -24.633 3.999 -27.062 3.188 C-18.057 0.373 -9.389 -0.006 0 0 Z " fill="#070707" transform="translate(150.0625,80.8125)"/>
<path d="M0 0 C1.546 2.319 2.796 4.506 4 7 C4.683 6.984 5.366 6.969 6.069 6.952 C45.516 6.169 45.516 6.169 60 13 C60.33 13.66 60.66 14.32 61 15 C56.537 14.495 52.159 13.858 47.75 13 C37.46 11.101 27.19 10.857 16.75 10.938 C15.612 10.942 14.474 10.947 13.301 10.951 C10.534 10.963 7.767 10.979 5 11 C4.67 11.66 4.34 12.32 4 13 C3.505 12.505 3.505 12.505 3 12 C-2.467 11.696 -7.337 12.478 -12.625 13.688 C-13.409 13.863 -14.193 14.039 -15.001 14.22 C-21.017 15.631 -26.603 17.544 -32.301 19.949 C-34.874 20.951 -37.282 21.549 -40 22 C-40 22.66 -40 23.32 -40 24 C-41.609 24.712 -41.609 24.712 -43.25 25.438 C-48.889 28.242 -58.123 33.246 -61 39 C-61.66 39 -62.32 39 -63 39 C-63.258 39.549 -63.516 40.098 -63.781 40.664 C-65.695 44.332 -68.055 47.706 -70.344 51.148 C-72.025 54.043 -73.055 56.797 -74 60 C-73.257 59.649 -72.515 59.299 -71.75 58.938 C-68.789 57.928 -67.879 58.12 -65 59 C-67.622 60.03 -70.247 61.049 -72.875 62.062 C-73.621 62.357 -74.368 62.652 -75.137 62.955 C-77.07 63.695 -79.034 64.354 -81 65 C-81.66 64.67 -82.32 64.34 -83 64 C-80.69 63.34 -78.38 62.68 -76 62 C-76.103 61.216 -76.206 60.433 -76.312 59.625 C-75.695 52.467 -71.316 45.656 -67 40 C-66.34 40 -65.68 40 -65 40 C-64.598 39.103 -64.598 39.103 -64.188 38.188 C-63.001 36.002 -61.904 34.587 -60 33 C-59.34 33 -58.68 33 -58 33 C-58 32.34 -58 31.68 -58 31 C-55.805 29.285 -53.629 27.723 -51.312 26.188 C-50.636 25.738 -49.96 25.288 -49.264 24.824 C-43.109 20.852 -36.934 18.363 -30 16 C-28.824 15.464 -27.649 14.927 -26.438 14.375 C-17.192 10.677 -7.895 9.463 2 9 C1.505 7.886 1.505 7.886 1 6.75 C0 4 0 4 0 0 Z " fill="#010101" transform="translate(133,68)"/>
<path d="M0 0 C0.248 1.176 0.495 2.351 0.75 3.562 C3.414 14.015 10.884 22.482 20 28 C25.098 30.966 30.332 32.885 35.938 34.688 C36.594 34.902 37.25 35.117 37.926 35.338 C46.657 38.038 55.358 38.161 64.438 38.125 C65.896 38.131 65.896 38.131 67.385 38.137 C73.648 38.128 79.782 37.748 86 37 C86 37.99 86 38.98 86 40 C78.918 42.192 72.256 42.31 64.875 42.25 C63.669 42.243 62.463 42.235 61.22 42.227 C46.203 42.046 32.477 40.1 19 33 C19 32.34 19 31.68 19 31 C18.464 30.917 17.927 30.835 17.375 30.75 C14.127 29.724 11.712 28.034 9 26 C9 25.34 9 24.68 9 24 C8.34 24 7.68 24 7 24 C7 23.34 7 22.68 7 22 C6.34 22 5.68 22 5 22 C-0.529 15.757 -4 9.506 -4 1 C-1 0 -1 0 0 0 Z " fill="#CACACA" transform="translate(87,136)"/>
<path d="M0 0 C0.495 1.485 0.495 1.485 1 3 C0.34 3 -0.32 3 -1 3 C-1 3.99 -1 4.98 -1 6 C-1.66 6 -2.32 6 -3 6 C-3.269 6.558 -3.539 7.116 -3.816 7.691 C-5.091 10.177 -6.491 12.549 -7.938 14.938 C-8.442 15.772 -8.946 16.606 -9.465 17.465 C-10.511 19.193 -11.562 20.918 -12.617 22.641 C-14.017 25.03 -15.037 27.407 -16 30 C-16.66 29.34 -17.32 28.68 -18 28 C-18.66 28 -19.32 28 -20 28 C-20.99 27.67 -21.98 27.34 -23 27 C-23 26.34 -23 25.68 -23 25 C-23.629 24.83 -24.258 24.66 -24.906 24.484 C-30.664 22.854 -35.729 20.831 -41 18 C-41 17.34 -41 16.68 -41 16 C-31.673 10.268 -22.727 8.764 -11.875 10.5 C-11.256 10.665 -10.637 10.83 -10 11 C-10 11.66 -10 12.32 -10 13 C-10.66 13 -11.32 13 -12 13 C-12.66 14.98 -13.32 16.96 -14 19 C-13.546 18.175 -13.093 17.35 -12.625 16.5 C-12.089 15.675 -11.553 14.85 -11 14 C-10.34 14 -9.68 14 -9 14 C-8.896 13.428 -8.791 12.855 -8.684 12.266 C-7.888 9.63 -6.721 7.94 -5.062 5.75 C-4.538 5.044 -4.013 4.337 -3.473 3.609 C-2.987 3.078 -2.501 2.547 -2 2 C-1.34 2 -0.68 2 0 2 C0 1.34 0 0.68 0 0 Z " fill="#FBFBFB" transform="translate(239,65)"/>
<path d="M0 0 C0.969 0.846 1.939 1.691 2.938 2.562 C30.718 26.271 62.331 33.179 98.354 30.848 C108.327 29.952 118.189 27.957 128 26 C128.33 26.66 128.66 27.32 129 28 C114.558 33.229 100.225 35.18 84.938 35.188 C83.703 35.2 82.469 35.212 81.197 35.225 C69.593 35.243 58.292 34.105 47.188 30.625 C46.468 30.406 45.749 30.187 45.008 29.961 C39.811 28.342 34.865 26.451 30 24 C29.183 23.609 28.365 23.219 27.523 22.816 C16.143 17.298 16.143 17.298 12 14 C12 13.34 12 12.68 12 12 C11.464 11.773 10.927 11.546 10.375 11.312 C6.187 8.998 2.752 6.538 0.625 2.188 C0.419 1.466 0.213 0.744 0 0 Z " fill="#FFFFFF" transform="translate(67,182)"/>
<path d="M0 0 C1.852 5.557 -1.676 11.789 -4 17 C-7.463 23.492 -11.41 29.19 -17 34 C-17.66 34 -18.32 34 -19 34 C-19.206 34.578 -19.412 35.155 -19.625 35.75 C-21.498 38.814 -23.97 40.155 -27 42 C-27.66 41.67 -28.32 41.34 -29 41 C-27.68 39.68 -26.36 38.36 -25 37 C-25.66 36.34 -26.32 35.68 -27 35 C-27.678 33.544 -28.295 32.06 -28.875 30.562 C-29.218 29.679 -29.561 28.796 -29.914 27.887 C-31.65 23.272 -33.341 18.642 -35 14 C-28.023 15.183 -22.271 17.556 -15.918 20.66 C-13.564 21.741 -11.526 22.505 -9 23 C-8.752 22.175 -8.505 21.35 -8.25 20.5 C-7.309 17.866 -6.345 15.64 -5.062 13.188 C-2.87 8.942 -1.394 4.562 0 0 Z " fill="#A7A7A7" transform="translate(89,6)"/>
<path d="M0 0 C-0.33 0.99 -0.66 1.98 -1 3 C-2.056 3.13 -2.056 3.13 -3.133 3.262 C-14.158 4.831 -24.296 8.53 -34.328 13.301 C-36 14 -36 14 -38 14 C-38 14.66 -38 15.32 -38 16 C-38.638 16.338 -39.276 16.675 -39.934 17.023 C-40.76 17.469 -41.586 17.915 -42.438 18.375 C-43.261 18.816 -44.085 19.257 -44.934 19.711 C-47.135 20.834 -47.135 20.834 -48 23 C-48.66 23 -49.32 23 -50 23 C-50 23.66 -50 24.32 -50 25 C-50.66 25 -51.32 25 -52 25 C-51.752 25.557 -51.505 26.114 -51.25 26.688 C-51 29 -51 29 -52.812 31.5 C-53.534 32.325 -54.256 33.15 -55 34 C-55.259 34.665 -55.518 35.33 -55.785 36.016 C-57.533 38.87 -59.493 39.23 -62.625 40.25 C-63.628 40.585 -64.631 40.92 -65.664 41.266 C-66.435 41.508 -67.206 41.75 -68 42 C-68.33 41.34 -68.66 40.68 -69 40 C-67.637 37.534 -66.233 35.222 -64.688 32.875 C-64.27 32.216 -63.853 31.558 -63.424 30.879 C-62.342 29.212 -61.177 27.601 -60 26 C-59.34 26 -58.68 26 -58 26 C-58 25.34 -58 24.68 -58 24 C-57.34 24 -56.68 24 -56 24 C-55.67 23.01 -55.34 22.02 -55 21 C-40.907 9.059 -18.736 -1 0 0 Z " fill="#F3F3F3" transform="translate(137,83)"/>
<path d="M0 0 C0.99 0.33 1.98 0.66 3 1 C2.67 2.65 2.34 4.3 2 6 C1.01 6 0.02 6 -1 6 C-1.33 6.66 -1.66 7.32 -2 8 C-1.67 7.67 -1.34 7.34 -1 7 C-0.67 7.99 -0.34 8.98 0 10 C-0.99 11.485 -0.99 11.485 -2 13 C-2.66 13 -3.32 13 -4 13 C-4 13.66 -4 14.32 -4 15 C-5.375 16.625 -5.375 16.625 -7 18 C-7.66 18 -8.32 18 -9 18 C-9 18.66 -9 19.32 -9 20 C-9.66 20 -10.32 20 -11 20 C-10.67 20.33 -10.34 20.66 -10 21 C-9.34 21 -8.68 21 -8 21 C-8 20.34 -8 19.68 -8 19 C-7.34 19 -6.68 19 -6 19 C-5.67 18.01 -5.34 17.02 -5 16 C-4.34 16.33 -3.68 16.66 -3 17 C-3.66 17.99 -4.32 18.98 -5 20 C-5.66 20 -6.32 20 -7 20 C-7 20.66 -7 21.32 -7 22 C-7.66 22 -8.32 22 -9 22 C-9 22.66 -9 23.32 -9 24 C-10.863 25.727 -10.863 25.727 -13.312 27.625 C-14.513 28.572 -14.513 28.572 -15.738 29.539 C-18 31 -18 31 -21 31 C-21 31.66 -21 32.32 -21 33 C-21.99 32.67 -22.98 32.34 -24 32 C-24.688 29.938 -24.688 29.938 -25 28 C-25.66 28 -26.32 28 -27 28 C-27 24 -27 24 -26 23 C-26.99 22.67 -27.98 22.34 -29 22 C-27.241 20.827 -25.465 19.678 -23.652 18.59 C-17.492 14.84 -12.266 10.752 -7.094 5.723 C-5 4 -5 4 -2 4 C-1.34 2.68 -0.68 1.36 0 0 Z " fill="#6D6D6D" transform="translate(240,167)"/>
<path d="M0 0 C0.66 0 1.32 0 2 0 C2.098 0.568 2.196 1.137 2.297 1.723 C4.205 11.573 9.015 17.954 16 25 C16.66 25.33 17.32 25.66 18 26 C18 26.66 18 27.32 18 28 C18.665 28.249 19.33 28.498 20.016 28.754 C22.987 29.995 25.81 31.397 28.671 32.869 C41.52 39.476 53.601 43.099 68.125 43.688 C69.03 43.727 69.935 43.767 70.868 43.808 C81.355 44.194 91.616 43.567 102 42 C102 42.99 102 43.98 102 45 C72.413 50.675 42.866 47.723 17.289 30.672 C14.497 28.632 12.206 26.663 10 24 C10 23.34 10 22.68 10 22 C9.404 21.765 8.809 21.531 8.195 21.289 C2.988 18.232 0.092 11.145 -1.5 5.5 C-1.665 4.345 -1.83 3.19 -2 2 C-1.34 1.34 -0.68 0.68 0 0 Z " fill="#FFFFFF" transform="translate(76,139)"/>
<path d="M0 0 C0.66 0 1.32 0 2 0 C3.727 2.117 3.727 2.117 5.625 4.875 C6.572 6.232 6.572 6.232 7.539 7.617 C9 10 9 10 9 12 C10.918 11.938 10.918 11.938 12.875 11.875 C18.089 11.858 22.94 12.817 28 14 C28 14.33 28 14.66 28 15 C27.018 14.892 27.018 14.892 26.016 14.781 C11.511 13.306 -0.568 13.998 -14 20 C-14.99 20 -15.98 20 -17 20 C-17 20.66 -17 21.32 -17 22 C-18.75 23.508 -18.75 23.508 -21 25.125 C-21.743 25.664 -22.485 26.203 -23.25 26.758 C-23.827 27.168 -24.405 27.578 -25 28 C-23.848 25.532 -22.952 23.952 -21 22 C-21 21.01 -21 20.02 -21 19 C-20.67 18.67 -20.34 18.34 -20 18 C-20.66 17.67 -21.32 17.34 -22 17 C-22 16.34 -22 15.68 -22 15 C-22.66 15 -23.32 15 -24 15 C-24.33 14.01 -24.66 13.02 -25 12 C-24.34 11.01 -23.68 10.02 -23 9 C-23.33 8.34 -23.66 7.68 -24 7 C-19.217 4.193 -14.399 4.351 -9 5 C-5.089 6.99 -3.423 8.365 -1 12 C1.64 11.67 4.28 11.34 7 11 C6.495 10.29 5.989 9.579 5.469 8.848 C4.494 7.469 4.494 7.469 3.5 6.062 C2.85 5.146 2.201 4.229 1.531 3.285 C0 1 0 1 0 0 Z " fill="#161616" transform="translate(288,68)"/>
<path d="M0 0 C4.854 4.126 4.854 4.126 5.5 8 C4.786 12.283 3.671 14.552 0.359 17.422 C-6.747 22.25 -14.788 22.066 -23 21 C-26.646 19.731 -29.801 18.153 -33 16 C-33 15.34 -33 14.68 -33 14 C-33.66 14 -34.32 14 -35 14 C-36.125 6.375 -36.125 6.375 -35 3 C-34.34 3 -33.68 3 -33 3 C-33 2.34 -33 1.68 -33 1 C-32.34 1.33 -31.68 1.66 -31 2 C-30.959 3.072 -30.917 4.145 -30.875 5.25 C-29.967 9.141 -29.782 9.724 -26.75 11.938 C-21.109 14.992 -15.228 14.953 -9 14 C-5.731 12.876 -3.305 11.602 -1 9 C0.144 5.416 0.144 5.416 0 2 C0 1.34 0 0.68 0 0 Z " fill="#FFFFFF" transform="translate(274,6)"/>
<path d="M0 0 C0.871 0.447 1.743 0.895 2.641 1.355 C19.693 10.046 35.982 15.545 55 18 C56.145 18.168 56.145 18.168 57.312 18.34 C74.784 20.684 92.755 17.91 110 15 C110.495 15.99 110.495 15.99 111 17 C98.421 22.424 84.899 22.569 71.438 22.5 C70.559 22.499 69.681 22.498 68.775 22.497 C55.004 22.447 42.139 21.434 29 17 C28.341 16.786 27.682 16.573 27.003 16.353 C19.895 14.007 13.409 10.833 7 7 C5.647 6.227 4.293 5.456 2.938 4.688 C1.968 4.131 0.999 3.574 0 3 C0 2.01 0 1.02 0 0 Z " fill="#FFFFFF" transform="translate(81,186)"/>
<path d="M0 0 C1.375 0.018 2.75 0.038 4.125 0.062 C5.115 0.062 6.105 0.062 7.125 0.062 C14.425 11.013 16.567 19.966 14.125 32.75 C13.803 34.19 13.473 35.629 13.125 37.062 C13.785 37.062 14.445 37.062 15.125 37.062 C15.62 39.043 15.62 39.043 16.125 41.062 C15.465 41.062 14.805 41.062 14.125 41.062 C14.125 40.072 14.125 39.083 14.125 38.062 C13.465 38.062 12.805 38.062 12.125 38.062 C11.835 36.724 11.835 36.724 11.539 35.359 C11.279 34.189 11.018 33.018 10.75 31.812 C10.495 30.652 10.24 29.492 9.977 28.297 C9.267 25.602 8.494 23.467 7.125 21.062 C7.785 21.062 8.445 21.062 9.125 21.062 C9.182 17.694 9.182 17.694 8.125 14.062 C5.654 12.209 3.914 11.191 1.125 10.062 C0.416 9.763 -0.293 9.464 -1.023 9.156 C-7.279 6.786 -13.444 5.919 -19.875 8.062 C-19.875 13.012 -19.875 17.963 -19.875 23.062 C-19.215 23.062 -18.555 23.062 -17.875 23.062 C-17.545 24.053 -17.215 25.042 -16.875 26.062 C-17.535 26.062 -18.195 26.062 -18.875 26.062 C-18.875 25.403 -18.875 24.743 -18.875 24.062 C-19.535 24.062 -20.195 24.062 -20.875 24.062 C-21.071 21.98 -21.256 19.896 -21.438 17.812 C-21.542 16.652 -21.646 15.492 -21.754 14.297 C-21.931 9.577 -21.931 9.577 -20.875 7.062 C-17.494 4.808 -16.269 4.817 -12.312 4.875 C-11.342 4.881 -10.371 4.888 -9.371 4.895 C-6.875 5.062 -6.875 5.062 -4.875 6.062 C-4.896 5.258 -4.916 4.454 -4.938 3.625 C-4.836 -0.518 -4.344 0.07 0 0 Z " fill="#666666" transform="translate(172.875,116.9375)"/>
<path d="M0 0 C2.221 2.221 2.837 3.834 3.938 6.75 C5.096 9.756 6.285 12.559 7.75 15.438 C9 18 9 18 9 21 C7.426 22.352 7.426 22.352 5.312 23.625 C4.628 24.05 3.944 24.476 3.238 24.914 C0.827 26.084 -1.362 26.584 -4 27 C-12 11.569 -12 11.569 -12 6 C-11.161 7.121 -10.329 8.247 -9.5 9.375 C-8.804 10.315 -8.804 10.315 -8.094 11.273 C-7 13 -7 13 -7 15 C-6.34 14.67 -5.68 14.34 -5 14 C-5.33 11.69 -5.66 9.38 -6 7 C-5.01 7.66 -4.02 8.32 -3 9 C-3 9.66 -3 10.32 -3 11 C-1.68 10.67 -0.36 10.34 1 10 C0.67 6.7 0.34 3.4 0 0 Z " fill="#FFFFFF" transform="translate(55,24)"/>
<path d="M0 0 C3.271 1.323 6.122 2.965 9 5 C8.01 5.495 8.01 5.495 7 6 C6.34 5.67 5.68 5.34 5 5 C5.34 6.64 5.34 6.64 5.688 8.312 C6 12 6 12 4.875 13.875 C0.596 16.443 -4.133 16.256 -9 16 C-12.481 15.08 -14.45 14.55 -17 12 C-16.67 11.01 -16.34 10.02 -16 9 C-14 9 -14 9 -12.375 10.5 C-11.921 10.995 -11.467 11.49 -11 12 C-10.67 11.34 -10.34 10.68 -10 10 C-10.66 9.67 -11.32 9.34 -12 9 C-11.34 9 -10.68 9 -10 9 C-9.67 8.34 -9.34 7.68 -9 7 C-7.907 7.021 -6.814 7.041 -5.688 7.062 C-2.056 7.185 -2.056 7.185 1 6 C1 5.01 1 4.02 1 3 C-1.44 1.78 -3.153 1.798 -5.875 1.75 C-6.739 1.724 -7.602 1.698 -8.492 1.672 C-11.489 2.064 -12.73 3.062 -15 5 C-15.866 5.474 -16.733 5.949 -17.625 6.438 C-20.158 8.104 -20.941 9.209 -22 12 C-22.312 9.75 -22.312 9.75 -22 7 C-19.812 4.875 -19.812 4.875 -17 3 C-16.236 2.477 -15.471 1.953 -14.684 1.414 C-9.974 -1.067 -5.18 -0.732 0 0 Z " fill="#2F2F2F" transform="translate(306,99)"/>
<path d="M0 0 C0.66 0 1.32 0 2 0 C2.578 0.804 3.155 1.609 3.75 2.438 C6.459 5.523 7.994 5.727 12 6 C12.289 6.969 12.578 7.939 12.875 8.938 C13.642 12.107 13.642 12.107 16 13 C16 14.65 16 16.3 16 18 C16.66 18.33 17.32 18.66 18 19 C13.816 21.064 10.794 21.09 6.188 20.625 C5.026 20.514 3.865 20.403 2.668 20.289 C1.788 20.194 0.907 20.098 0 20 C-0.625 17.688 -0.625 17.688 -1 15 C-0.34 14.01 0.32 13.02 1 12 C1.66 12 2.32 12 3 12 C2.475 5.711 2.475 5.711 0 0 Z " fill="#000000" transform="translate(19,120)"/>
<path d="M0 0 C0.66 0 1.32 0 2 0 C2.982 1.936 3.96 3.874 4.938 5.812 C5.483 6.891 6.028 7.97 6.59 9.082 C10.066 16.275 10.498 25.691 7.875 33.312 C2.967 44.1 -5.292 52.387 -15 59 C-18.316 60.238 -18.316 60.238 -21 61 C-21 60.01 -21 59.02 -21 58 C-20.01 58 -19.02 58 -18 58 C-18 57.34 -18 56.68 -18 56 C-13.615 53 -13.615 53 -11 53 C-11 52.34 -11 51.68 -11 51 C-9.426 49.52 -9.426 49.52 -7.312 47.812 C0.391 41.198 4.298 34.282 5.285 24.043 C5.542 15.34 3.438 7.935 0 0 Z " fill="#FFFFFF" transform="translate(222,114)"/>
<path d="M0 0 C2.375 0.312 2.375 0.312 5 1 C5.66 1.99 6.32 2.98 7 4 C7.66 2.68 8.32 1.36 9 0 C11.375 -0.188 11.375 -0.188 14 0 C16.463 3.695 16.39 5.633 16 10 C14.812 12 14.812 12 13 13 C10.312 12.688 10.312 12.688 8 12 C7.67 11.01 7.34 10.02 7 9 C6.423 9.681 5.845 10.361 5.25 11.062 C4.136 12.022 4.136 12.022 3 13 C0.75 12.75 0.75 12.75 -1 12 C-2.188 8.812 -2.188 8.812 -3 5 C-1.625 2.062 -1.625 2.062 0 0 Z " fill="#000000" transform="translate(253,292)"/>
<path d="M0 0 C0.66 0 1.32 0 2 0 C4.296 2.561 5 3.48 5 7 C5.66 7 6.32 7 7 7 C9.893 14.575 10.444 23.042 8.16 30.883 C4.16 39.475 -3.296 48.848 -12.312 52.25 C-13.199 52.498 -14.086 52.745 -15 53 C-15 52.01 -15 51.02 -15 50 C-14.34 50 -13.68 50 -13 50 C-13 49.34 -13 48.68 -13 48 C-11.426 46.922 -11.426 46.922 -9.312 45.75 C-4.385 42.797 -0.865 39.596 1 34 C1.66 34 2.32 34 3 34 C3.217 32.824 3.217 32.824 3.438 31.625 C4 29 4 29 5 27 C5.837 16.871 5.32 8.968 0 0 Z " fill="#FFFFFF" transform="translate(210,114)"/>
<path d="M0 0 C2.743 3.2 4.63 6.005 6 10 C5.01 9.34 4.02 8.68 3 8 C0.471 8.467 -1.856 9.028 -4.312 9.75 C-16.64 13.319 -28.891 14.316 -41.688 14.188 C-42.915 14.187 -44.143 14.186 -45.408 14.186 C-63.707 14.098 -63.707 14.098 -70 12 C-70 11.34 -70 10.68 -70 10 C-68.783 9.979 -67.566 9.959 -66.312 9.938 C-65.628 9.926 -64.944 9.914 -64.238 9.902 C-62 10 -62 10 -59.748 10.493 C-41.244 13.905 -17.647 11.925 0 5 C0.33 4.67 0.66 4.34 1 4 C0.01 3.01 0.01 3.01 -1 2 C-0.67 1.34 -0.34 0.68 0 0 Z " fill="#000000" transform="translate(194,205)"/>
<path d="M0 0 C2.875 1.5 2.875 1.5 5 4 C5.422 6.802 5.238 9.142 5 12 C4.041 12.217 4.041 12.217 3.062 12.438 C1.025 12.81 1.025 12.81 0 14 C-3.671 14.163 -6.398 13.9 -10 13 C-10 9.37 -10 5.74 -10 2 C-5.945 -0.027 -4.386 -0.537 0 0 Z " fill="#1F1F1F" transform="translate(204,137)"/>
<path d="M0 0 C1.299 0.568 2.589 1.155 3.875 1.75 C4.954 2.237 4.954 2.237 6.055 2.734 C8.389 4.253 9.056 5.405 10 8 C10.125 11.25 10.125 11.25 10 14 C9.01 14.33 8.02 14.66 7 15 C7 14.01 7 13.02 7 12 C6.01 11.67 5.02 11.34 4 11 C3.01 10.67 2.02 10.34 1 10 C0.67 10.99 0.34 11.98 0 13 C-0.66 13 -1.32 13 -2 13 C-2 13.99 -2 14.98 -2 16 C-2.99 15.67 -3.98 15.34 -5 15 C-5.081 13.563 -5.139 12.126 -5.188 10.688 C-5.222 9.887 -5.257 9.086 -5.293 8.262 C-4.933 5.484 -4.168 4.706 -2 3 C-1.34 2.67 -0.68 2.34 0 2 C0 1.34 0 0.68 0 0 Z " fill="#1E1E1E" transform="translate(126,151)"/>
<path d="M0 0 C-0.33 0.99 -0.66 1.98 -1 3 C-3.542 3.996 -6.019 4.832 -8.625 5.625 C-14.908 7.684 -20.59 10.135 -26.25 13.562 C-26.857 13.926 -27.463 14.29 -28.088 14.665 C-31.892 17.046 -34.894 19.782 -38 23 C-38.99 23.66 -39.98 24.32 -41 25 C-41.33 23.68 -41.66 22.36 -42 21 C-41.34 21 -40.68 21 -40 21 C-40 20.34 -40 19.68 -40 19 C-39.34 19 -38.68 19 -38 19 C-37.67 18.01 -37.34 17.02 -37 16 C-31.743 12 -31.743 12 -28 12 C-28 11.34 -28 10.68 -28 10 C-25.149 8.7 -22.294 7.412 -19.438 6.125 C-18.238 5.578 -18.238 5.578 -17.014 5.02 C-5.834 0 -5.834 0 0 0 Z " fill="#202020" transform="translate(127,87)"/>
<path d="M0 0 C0.66 0 1.32 0 2 0 C5.223 5.176 5.223 5.176 6 7 C5.67 7.99 5.34 8.98 5 10 C3.68 10 2.36 10 1 10 C0.398 10.162 -0.204 10.323 -0.824 10.49 C-5.696 11.633 -10.908 11.186 -15.899 11.185 C-17.993 11.187 -20.086 11.206 -22.18 11.225 C-23.516 11.228 -24.852 11.23 -26.188 11.23 C-27.398 11.235 -28.608 11.239 -29.855 11.243 C-32.836 11.013 -34.497 10.567 -37 9 C-36.073 9.005 -35.145 9.01 -34.189 9.016 C-30.715 9.033 -27.242 9.045 -23.768 9.055 C-22.27 9.06 -20.773 9.067 -19.275 9.075 C-17.111 9.088 -14.946 9.093 -12.781 9.098 C-11.483 9.103 -10.184 9.108 -8.846 9.114 C-4.819 8.995 -0.986 8.56 3 8 C2.505 7.01 2.505 7.01 2 6 C0.764 6.164 -0.472 6.327 -1.746 6.496 C-7.523 7.138 -13.257 7.11 -19.062 7.062 C-20.119 7.058 -21.175 7.053 -22.264 7.049 C-24.843 7.037 -27.421 7.021 -30 7 C-30 6.34 -30 5.68 -30 5 C-29.345 4.975 -28.69 4.95 -28.016 4.924 C-25.01 4.807 -22.005 4.685 -19 4.562 C-17.455 4.504 -17.455 4.504 -15.879 4.443 C-10.198 4.208 -4.63 3.805 1 3 C0.505 1.515 0.505 1.515 0 0 Z " fill="#000000" transform="translate(170,168)"/>
<path d="M0 0 C0.878 0.005 1.756 0.01 2.66 0.016 C3.535 0.01 4.411 0.005 5.312 0 C7.723 0.266 7.723 0.266 10.723 2.266 C10.41 4.203 10.41 4.203 9.723 6.266 C6.249 7.423 3.362 7.334 -0.277 7.266 C-0.607 8.916 -0.937 10.566 -1.277 12.266 C-4.215 11.516 -4.215 11.516 -7.277 10.266 C-8.152 8.141 -8.152 8.141 -8.277 6.266 C-7.617 6.266 -6.957 6.266 -6.277 6.266 C-5.989 5.647 -5.7 5.028 -5.402 4.391 C-3.951 1.65 -3.167 0.369 0 0 Z " fill="#FFFFFF" transform="translate(297.27734375,99.734375)"/>
<path d="M0 0 C6.625 -0.25 6.625 -0.25 10 2 C8.726 4.038 7.389 6.039 6 8 C5.34 8 4.68 8 4 8 C4 8.66 4 9.32 4 10 C3.34 10 2.68 10 2 10 C2 10.66 2 11.32 2 12 C-0.23 13.656 -0.23 13.656 -3.188 15.5 C-4.632 16.413 -4.632 16.413 -6.105 17.344 C-8.725 18.843 -11.118 20.109 -14 21 C-14.99 20.67 -15.98 20.34 -17 20 C-15.68 19.67 -14.36 19.34 -13 19 C-13 17.68 -13 16.36 -13 15 C-13.99 14.67 -14.98 14.34 -16 14 C-14.02 13.34 -12.04 12.68 -10 12 C-10.66 13.98 -11.32 15.96 -12 18 C-10.373 17.045 -8.748 16.086 -7.125 15.125 C-5.768 14.324 -5.768 14.324 -4.383 13.508 C-1.934 12.08 -1.934 12.08 0 10 C-2.621 10 -4.509 10.313 -7 11 C-4.743 8.665 -2.719 6.813 0 5 C0.25 2.416 0.25 2.416 0 0 Z " fill="#000000" transform="translate(21,13)"/>
<path d="M0 0 C3.375 -0.125 3.375 -0.125 7 0 C9 2 9 2 9.23 5.223 C9.209 7.123 9.209 7.123 9.188 9.062 C9.178 10.967 9.178 10.967 9.168 12.91 C9 16 9 16 8 17 C6.004 17.168 6.004 17.168 3.562 17.188 C2.358 17.209 2.358 17.209 1.129 17.23 C-1 17 -1 17 -3 15 C-3.195 11.961 -3.195 11.961 -3.125 8.375 C-3.107 7.186 -3.089 5.998 -3.07 4.773 C-3.047 3.858 -3.024 2.943 -3 2 C-1.68 2.33 -0.36 2.66 1 3 C0.67 5.31 0.34 7.62 0 10 C1.98 10 3.96 10 6 10 C6.33 11.65 6.66 13.3 7 15 C7 11.04 7 7.08 7 3 C4.69 2.34 2.38 1.68 0 1 C0 0.67 0 0.34 0 0 Z " fill="#222222" transform="translate(158,124)"/>
<path d="M0 0 C1.078 0.105 1.078 0.105 2.178 0.212 C5.162 0.572 7.218 0.863 9.602 2.762 C9.939 3.232 10.277 3.703 10.625 4.188 C4.095 4.313 4.095 4.313 1.812 3.703 C-1.17 3 -4.048 2.965 -7.109 2.871 C-8.405 2.829 -9.7 2.787 -11.035 2.744 C-12.398 2.704 -13.762 2.665 -15.125 2.625 C-16.504 2.582 -17.883 2.538 -19.262 2.494 C-22.633 2.388 -26.004 2.286 -29.375 2.188 C-29.375 1.528 -29.375 0.868 -29.375 0.188 C-20.582 -2.743 -9.104 -0.976 0 0 Z " fill="#FFFFFF" transform="translate(170.375,82.8125)"/>
<path d="M0 0 C0.66 0 1.32 0 2 0 C3.727 2.117 3.727 2.117 5.625 4.875 C6.572 6.232 6.572 6.232 7.539 7.617 C9 10 9 10 9 12 C10.918 11.938 10.918 11.938 12.875 11.875 C18.089 11.858 22.94 12.817 28 14 C28 14.33 28 14.66 28 15 C27.018 14.892 27.018 14.892 26.016 14.781 C15.899 13.752 6.086 13.655 -4 15 C-5 13 -5 13 -5.812 11 C-7.331 8.442 -8.158 7.897 -11 7 C-15.306 6.582 -18.28 6.52 -22 9 C-22.66 8.34 -23.32 7.68 -24 7 C-19.217 4.193 -14.399 4.351 -9 5 C-5.089 6.99 -3.423 8.365 -1 12 C1.64 11.67 4.28 11.34 7 11 C6.495 10.29 5.989 9.579 5.469 8.848 C4.494 7.469 4.494 7.469 3.5 6.062 C2.85 5.146 2.201 4.229 1.531 3.285 C0 1 0 1 0 0 Z " fill="#000000" transform="translate(288,68)"/>
<path d="M0 0 C0.66 0 1.32 0 2 0 C2 0.66 2 1.32 2 2 C6.261 2.752 9.827 3.35 14 2 C14.33 1.34 14.66 0.68 15 0 C16.5 1.375 16.5 1.375 18 3 C18 3.66 18 4.32 18 5 C16.68 5 15.36 5 14 5 C14 5.66 14 6.32 14 7 C13.34 7 12.68 7 12 7 C11.34 10.3 10.68 13.6 10 17 C9.34 17 8.68 17 8 17 C7.34 13.37 6.68 9.74 6 6 C4.577 5.897 3.154 5.794 1.688 5.688 C-2.444 5.388 -2.839 5.161 -6 2 C-1.05 2.99 -1.05 2.99 4 4 C3.01 3.67 2.02 3.34 1 3 C0.67 2.01 0.34 1.02 0 0 Z " fill="#454545" transform="translate(116,134)"/>
<path d="M0 0 C0.33 0.99 0.66 1.98 1 3 C0.34 3 -0.32 3 -1 3 C-0.452 5.982 -0.452 5.982 1 9 C6.324 11.724 11.695 11.64 17.375 10.062 C19.885 9.245 19.885 9.245 21 8 C21.041 5.667 21.042 3.333 21 1 C22.32 1.33 23.64 1.66 25 2 C25.75 4.25 25.75 4.25 26 7 C23.166 11.134 19.79 12.073 15 13 C7.387 13.579 1.041 13.111 -5 8 C-4.65 4.758 -4.438 3.385 -1.938 1.188 C-1.298 0.796 -0.659 0.404 0 0 Z " fill="#FFFFFF" transform="translate(290,103)"/>
<path d="M0 0 C1.65 0 3.3 0 5 0 C7.091 3.397 7.421 6.043 7 10 C5.75 11.938 5.75 11.938 4 13 C1.026 12.73 0.146 12.146 -2 10 C-2.344 6.048 -2.089 3.395 0 0 Z " fill="#000000" transform="translate(301,292)"/>
<path d="M0 0 C4.556 0.556 4.556 0.556 6 2 C6.072 3.686 6.084 5.375 6.062 7.062 C6.053 7.982 6.044 8.901 6.035 9.848 C6.024 10.558 6.012 11.268 6 12 C3.688 12.625 3.688 12.625 1 13 C0.01 12.34 -0.98 11.68 -2 11 C-2.363 8.906 -2.363 8.906 -2.312 6.5 C-2.309 5.706 -2.305 4.912 -2.301 4.094 C-2 2 -2 2 0 0 Z " fill="#000000" transform="translate(272,292)"/>
<path d="M0 0 C1.945 0.926 1.945 0.926 4.125 2.312 C4.849 2.762 5.574 3.212 6.32 3.676 C6.875 4.113 7.429 4.55 8 5 C8 5.66 8 6.32 8 7 C8.598 7.268 9.196 7.536 9.812 7.812 C11.998 8.999 13.413 10.096 15 12 C15 12.66 15 13.32 15 14 C15.66 14 16.32 14 17 14 C17.33 15.32 17.66 16.64 18 18 C17.34 17.67 16.68 17.34 16 17 C16 17.99 16 18.98 16 20 C13.357 17.433 10.972 14.964 8.688 12.062 C6.091 8.842 2.966 6.629 -0.426 4.297 C-0.945 3.869 -1.465 3.441 -2 3 C-2 2.34 -2 1.68 -2 1 C-1.34 0.67 -0.68 0.34 0 0 Z " fill="#393939" transform="translate(208,99)"/>
<path d="M0 0 C7.411 2.579 14.618 5.286 20.93 10.02 C19.94 10.68 18.95 11.34 17.93 12.02 C17.058 11.561 16.187 11.102 15.289 10.629 C8.374 7.048 1.669 4.036 -5.84 1.844 C-8.07 1.02 -8.07 1.02 -9.07 -0.98 C-5.862 -2.585 -3.302 -1.048 0 0 Z " fill="#1D1D1D" transform="translate(187.0703125,88.98046875)"/>
<path d="M0 0 C3.125 0.375 3.125 0.375 6 1 C6 1.66 6 2.32 6 3 C4.35 3 2.7 3 1 3 C1.825 3.371 2.65 3.743 3.5 4.125 C4.738 5.053 4.738 5.053 6 6 C6.312 9.188 6.312 9.188 6 12 C3.125 12.625 3.125 12.625 0 13 C-2 11 -2 11 -2.266 8.906 C-2.258 7.715 -2.258 7.715 -2.25 6.5 C-2.255 5.706 -2.26 4.912 -2.266 4.094 C-2 2 -2 2 0 0 Z " fill="#040404" transform="translate(282,292)"/>
<path d="M0 0 C0.33 1.65 0.66 3.3 1 5 C-1.645 6.322 -3.678 6.097 -6.625 6.062 C-7.628 6.053 -8.631 6.044 -9.664 6.035 C-10.435 6.024 -11.206 6.012 -12 6 C-12.33 4.35 -12.66 2.7 -13 1 C-8.315 -1.489 -5.056 -0.857 0 0 Z " fill="#FFFFFF" transform="translate(290,192)"/>
<path d="M0 0 C3.062 0.188 3.062 0.188 5.062 2.188 C5.258 5.008 5.258 5.008 5.188 8.312 C5.169 9.408 5.151 10.504 5.133 11.633 C5.11 12.476 5.086 13.319 5.062 14.188 C4.072 14.683 4.072 14.683 3.062 15.188 C3.062 13.208 3.062 11.227 3.062 9.188 C1.083 9.188 -0.898 9.188 -2.938 9.188 C-2.607 6.877 -2.278 4.567 -1.938 2.188 C-2.597 1.858 -3.257 1.528 -3.938 1.188 C-2.938 0.188 -2.938 0.188 0 0 Z " fill="#FFFFFF" transform="translate(160.9375,124.8125)"/>
<path d="M0 0 C2.509 1.038 3.832 1.766 5.438 4 C6.869 6.18 6.869 6.18 9.375 6.938 C12.724 8.293 14.576 10.368 17 13 C16.34 13 15.68 13 15 13 C14.67 13.66 14.34 14.32 14 15 C14.99 15.33 15.98 15.66 17 16 C16.34 16.33 15.68 16.66 15 17 C14.34 16.67 13.68 16.34 13 16 C13 15.34 13 14.68 13 14 C12.319 13.814 11.639 13.629 10.938 13.438 C6.807 11.416 3.857 8.588 1 5 C0.062 2.062 0.062 2.062 0 0 Z " fill="#6F6F6F" transform="translate(67,174)"/>
<path d="M0 0 C7.101 0.257 12.098 0.934 18 5 C17.67 5.66 17.34 6.32 17 7 C10.103 9.035 3.179 9.733 -4 9 C-4.99 8.34 -5.98 7.68 -7 7 C-5.606 7.017 -5.606 7.017 -4.184 7.035 C4.957 7.118 4.957 7.118 14 6 C14 5.34 14 4.68 14 4 C13.013 4.023 12.025 4.046 11.008 4.07 C9.726 4.088 8.445 4.106 7.125 4.125 C5.211 4.16 5.211 4.16 3.258 4.195 C0 4 0 4 -2 2 C-1.34 2 -0.68 2 0 2 C0 1.34 0 0.68 0 0 Z " fill="#0E0E0E" transform="translate(147,153)"/>
<path d="M0 0 C1.65 0.33 3.3 0.66 5 1 C3.68 1.33 2.36 1.66 1 2 C1 3.65 1 5.3 1 7 C3.64 6.67 6.28 6.34 9 6 C9 6.66 9 7.32 9 8 C6.03 8 3.06 8 0 8 C-0.33 7.01 -0.66 6.02 -1 5 C-1 5.99 -1 6.98 -1 8 C3.732 8.928 6.667 9.228 11 7 C11.66 6.67 12.32 6.34 13 6 C13 6.99 13 7.98 13 9 C13.66 9.33 14.32 9.66 15 10 C10.816 12.064 7.794 12.09 3.188 11.625 C2.026 11.514 0.865 11.403 -0.332 11.289 C-1.212 11.194 -2.093 11.098 -3 11 C-3.625 8.688 -3.625 8.688 -4 6 C-3.34 5.01 -2.68 4.02 -2 3 C-1.34 3 -0.68 3 0 3 C0 2.01 0 1.02 0 0 Z " fill="#000000" transform="translate(22,129)"/>
<path d="M0 0 C0.33 0 0.66 0 1 0 C1.249 7.29 0.723 13.907 -1 21 C-0.34 21 0.32 21 1 21 C1.33 22.32 1.66 23.64 2 25 C1.34 25 0.68 25 0 25 C0 24.01 0 23.02 0 22 C-0.66 22 -1.32 22 -2 22 C-2.205 21.085 -2.41 20.17 -2.621 19.227 C-2.891 18.038 -3.16 16.85 -3.438 15.625 C-3.838 13.85 -3.838 13.85 -4.246 12.039 C-4.856 9.105 -4.856 9.105 -6 7 C-5.01 7 -4.02 7 -3 7 C-2.67 5.68 -2.34 4.36 -2 3 C-1.34 3 -0.68 3 0 3 C0 2.01 0 1.02 0 0 Z " fill="#000000" transform="translate(187,133)"/>
<path d="M0 0 C0.99 0 1.98 0 3 0 C3 5.28 3 10.56 3 16 C1.68 16 0.36 16 -1 16 C-1 12.37 -1 8.74 -1 5 C-1.99 5 -2.98 5 -4 5 C-4 4.34 -4 3.68 -4 3 C-3.01 3 -2.02 3 -1 3 C-0.67 2.01 -0.34 1.02 0 0 Z " fill="#000000" transform="translate(118,10)"/>
<path d="M0 0 C0.33 0.99 0.66 1.98 1 3 C0.01 4.485 0.01 4.485 -1 6 C-1.66 6 -2.32 6 -3 6 C-3 6.66 -3 7.32 -3 8 C-4.375 9.625 -4.375 9.625 -6 11 C-6.66 11 -7.32 11 -8 11 C-8 11.66 -8 12.32 -8 13 C-8.66 13 -9.32 13 -10 13 C-10 13.66 -10 14.32 -10 15 C-12.082 16.727 -12.082 16.727 -14.812 18.625 C-16.152 19.572 -16.152 19.572 -17.52 20.539 C-20 22 -20 22 -23 22 C-21.506 18.008 -19.3 16.679 -15.688 14.562 C-10.547 11.418 -6.877 8.573 -3.312 3.688 C-2.663 2.852 -2.663 2.852 -2 2 C-1.34 2 -0.68 2 0 2 C0 1.34 0 0.68 0 0 Z " fill="#FFFFFF" transform="translate(239,174)"/>
<path d="M0 0 C2.875 -0.125 2.875 -0.125 6 0 C6.66 0.66 7.32 1.32 8 2 C7.67 2.99 7.34 3.98 7 5 C6.34 4.34 5.68 3.68 5 3 C2.931 2.357 2.931 2.357 1 2 C1 2.99 1 3.98 1 5 C3.31 5.66 5.62 6.32 8 7 C8 8.98 8 10.96 8 13 C2.375 14.125 2.375 14.125 -1 13 C-1.688 10.938 -1.688 10.938 -2 9 C-1.01 9.33 -0.02 9.66 1 10 C1 10.66 1 11.32 1 12 C2.65 11.67 4.3 11.34 6 11 C6 10.34 6 9.68 6 9 C4.02 8.34 2.04 7.68 0 7 C-1.125 2.25 -1.125 2.25 0 0 Z " fill="#000000" transform="translate(236,291)"/>
<path d="M0 0 C4.108 1.45 7.503 3.398 11 6 C11 6.66 11 7.32 11 8 C11.99 8.33 12.98 8.66 14 9 C18.879 15.109 22.834 22.189 24 30 C23.67 30.99 23.34 31.98 23 33 C19.74 23.59 19.74 23.59 19 19 C18.34 19 17.68 19 17 19 C14 14.615 14 14.615 14 12 C13.34 12 12.68 12 12 12 C11.464 11.299 10.928 10.597 10.375 9.875 C7.751 6.699 4.952 4.601 1.609 2.234 C1.078 1.827 0.547 1.42 0 1 C0 0.67 0 0.34 0 0 Z " fill="#FFFFFF" transform="translate(41,166)"/>
<path d="M0 0 C3.63 0.66 7.26 1.32 11 2 C10.34 3.32 9.68 4.64 9 6 C9 5.01 9 4.02 9 3 C6.36 3 3.72 3 1 3 C1 4.32 1 5.64 1 7 C3.31 7 5.62 7 8 7 C8 7.66 8 8.32 8 9 C3.189 9.192 -0.54 8.867 -5 7 C-5.66 6.34 -6.32 5.68 -7 5 C-6.67 4.01 -6.34 3.02 -6 2 C-4 2 -4 2 -2.375 3.5 C-1.921 3.995 -1.467 4.49 -1 5 C-0.67 4.34 -0.34 3.68 0 3 C-0.66 2.67 -1.32 2.34 -2 2 C-1.34 2 -0.68 2 0 2 C0 1.34 0 0.68 0 0 Z " fill="#060606" transform="translate(296,106)"/>
<path d="M0 0 C0.872 0.253 0.872 0.253 1.762 0.512 C5.699 1.371 9.7 1.013 13.711 0.938 C16.911 0.998 19.862 1.393 23 2 C22.67 3.32 22.34 4.64 22 6 C21.34 6 20.68 6 20 6 C19.711 6.784 19.423 7.567 19.125 8.375 C18 11 18 11 16 13 C16.628 10.071 17.586 7.639 19 5 C19.66 5 20.32 5 21 5 C21 4.34 21 3.68 21 3 C12.692 2.803 5.059 2.754 -3 5 C-4.332 5.337 -5.665 5.672 -7 6 C-6.34 5.67 -5.68 5.34 -5 5 C-5 4.34 -5 3.68 -5 3 C-5.99 2.67 -6.98 2.34 -8 2 C-4.716 -0.19 -3.79 -0.277 0 0 Z " fill="#000000" transform="translate(208,73)"/>
<path d="M0 0 C2.992 2.024 4.42 4.28 6.125 7.438 C6.062 9.688 6.062 9.688 5.125 11.438 C2.125 13.438 2.125 13.438 -0.875 13.438 C-1.205 11.127 -1.535 8.817 -1.875 6.438 C-0.885 5.778 0.105 5.117 1.125 4.438 C0.795 3.778 0.465 3.117 0.125 2.438 C-0.865 2.108 -1.855 1.778 -2.875 1.438 C-3.205 2.428 -3.535 3.417 -3.875 4.438 C-3.875 3.117 -3.875 1.797 -3.875 0.438 C-1.875 -0.562 -1.875 -0.562 0 0 Z " fill="#000000" transform="translate(18.875,39.5625)"/>
<path d="M0 0 C0 3 0 3 -1.938 5.75 C-5.32 8.235 -5.869 8.267 -9.812 7.812 C-11.213 7.568 -12.611 7.306 -14 7 C-14.33 6.01 -14.66 5.02 -15 4 C-14.336 3.879 -13.672 3.758 -12.988 3.633 C-8.466 2.775 -4.201 1.96 0 0 Z " fill="#FFFFFF" transform="translate(180,140)"/>
<path d="M0 0 C0.625 1.875 0.625 1.875 1 4 C-1 6 -1 6 -3.938 6.25 C-7 6 -7 6 -10 4 C-7.535 -1.459 -5.69 -1.113 0 0 Z " fill="#FFFFFF" transform="translate(205,139)"/>
<path d="M0 0 C1.258 -0.041 2.516 -0.082 3.812 -0.125 C4.52 -0.148 5.228 -0.171 5.957 -0.195 C8 0 8 0 11 2 C11 2.66 11 3.32 11 4 C6.923 6.038 4.408 6.078 0 5 C-0.66 4.67 -1.32 4.34 -2 4 C-1.34 2.68 -0.68 1.36 0 0 Z " fill="#FFFFFF" transform="translate(269,74)"/>
<path d="M0 0 C3 0.188 3 0.188 5 1.188 C5 2.838 5 4.488 5 6.188 C2.03 6.188 -0.94 6.188 -4 6.188 C-4.33 4.868 -4.66 3.548 -5 2.188 C-3 0.188 -3 0.188 0 0 Z " fill="#FFFFFF" transform="translate(128,154.8125)"/>
<path d="M0 0 C0.33 1.65 0.66 3.3 1 5 C-2.644 7.429 -4.712 7.162 -9 7 C-8.398 4.98 -7.727 2.979 -7 1 C-4.537 -0.231 -2.72 -0.072 0 0 Z " fill="#4B4B4B" transform="translate(41,37)"/>
<path d="M0 0 C0.99 0.33 1.98 0.66 3 1 C3 1.66 3 2.32 3 3 C0.5 4.5 0.5 4.5 -2 6 C-3.687 7.646 -5.355 9.312 -7 11 C-7.99 11.66 -8.98 12.32 -10 13 C-10.33 11.68 -10.66 10.36 -11 9 C-10.34 9 -9.68 9 -9 9 C-9 8.34 -9 7.68 -9 7 C-8.34 7 -7.68 7 -7 7 C-6.67 6.01 -6.34 5.02 -6 4 C-3.125 1.75 -3.125 1.75 0 0 Z " fill="#1F1F1F" transform="translate(96,99)"/>
<path d="M0 0 C0 3 0 3 -2.414 5.629 C-3.476 6.615 -4.547 7.593 -5.625 8.562 C-6.147 9.057 -6.669 9.551 -7.207 10.061 C-10.599 13.155 -13.456 14.847 -18 16 C-18 16.66 -18 17.32 -18 18 C-19.65 18.33 -21.3 18.66 -23 19 C-23.33 18.34 -23.66 17.68 -24 17 C-22.907 16.505 -21.814 16.01 -20.688 15.5 C-12.99 11.651 -5.786 6.384 0 0 Z " fill="#FFFFFF" transform="translate(235,171)"/>
<path d="M0 0 C0.772 -0.004 1.544 -0.008 2.34 -0.012 C5.645 -0.006 8.344 0.073 11.5 1.125 C11.5 1.785 11.5 2.445 11.5 3.125 C3.58 3.125 -4.34 3.125 -12.5 3.125 C-10.268 -1.34 -4.36 -0.022 0 0 Z " fill="#FFFFFF" transform="translate(219.5,71.875)"/>
<path d="M0 0 C0.99 0.99 1.98 1.98 3 3 C1.212 4.172 -0.581 5.338 -2.375 6.5 C-3.373 7.15 -4.37 7.799 -5.398 8.469 C-8 10 -8 10 -10 10 C-9.785 7.676 -9.785 7.676 -9 5 C-6.934 3.418 -6.934 3.418 -4.438 2.188 C-3.611 1.769 -2.785 1.35 -1.934 0.918 C-1.296 0.615 -0.657 0.312 0 0 Z " fill="#FFFFFF" transform="translate(19,21)"/>
<path d="M0 0 C2.375 -0.188 2.375 -0.188 5 0 C7.463 3.695 7.39 5.633 7 10 C5.812 12 5.812 12 4 13 C1.312 12.688 1.312 12.688 -1 12 C-1 11.34 -1 10.68 -1 10 C1.475 10.495 1.475 10.495 4 11 C4 8.03 4 5.06 4 2 C2.35 2.33 0.7 2.66 -1 3 C-0.67 2.01 -0.34 1.02 0 0 Z " fill="#000000" transform="translate(262,292)"/>
<path d="M0 0 C5.653 -0.87 8.69 1.403 13.145 4.492 C15 6 15 6 16 8 C13.333 6.667 10.667 5.333 8 4 C8.99 5.32 9.98 6.64 11 8 C7.223 6.187 3.627 4.093 0 2 C0 1.34 0 0.68 0 0 Z " fill="#0C0C0C" transform="translate(36,164)"/>
<path d="M0 0 C2.97 0 5.94 0 9 0 C9 0.99 9 1.98 9 3 C8.34 3 7.68 3 7 3 C6.01 5.97 5.02 8.94 4 12 C3.01 11.67 2.02 11.34 1 11 C1.99 8.69 2.98 6.38 4 4 C4.66 4 5.32 4 6 4 C6 3.34 6 2.68 6 2 C4.02 2 2.04 2 0 2 C0 1.34 0 0.68 0 0 Z " fill="#000000" transform="translate(309,292)"/>
<path d="M0 0 C0.66 0.33 1.32 0.66 2 1 C1.01 2.485 1.01 2.485 0 4 C-0.66 4 -1.32 4 -2 4 C-2 4.66 -2 5.32 -2 6 C-2.66 6 -3.32 6 -4 6 C-4 6.66 -4 7.32 -4 8 C-5.863 9.727 -5.863 9.727 -8.312 11.625 C-9.113 12.257 -9.914 12.888 -10.738 13.539 C-13 15 -13 15 -16 15 C-16.33 15.66 -16.66 16.32 -17 17 C-17 16.01 -17 15.02 -17 14 C-15.539 12.613 -15.539 12.613 -13.625 11.312 C-12.685 10.657 -12.685 10.657 -11.727 9.988 C-10 9 -10 9 -8 9 C-8 8.34 -8 7.68 -8 7 C-7.01 7 -6.02 7 -5 7 C-5 6.34 -5 5.68 -5 5 C-4.34 5 -3.68 5 -3 5 C-3 4.34 -3 3.68 -3 3 C-2.34 3 -1.68 3 -1 3 C-0.67 2.01 -0.34 1.02 0 0 Z " fill="#FFFFFF" transform="translate(235,183)"/>
<path d="M0 0 C0.99 0.33 1.98 0.66 3 1 C2.67 2.65 2.34 4.3 2 6 C1.01 6 0.02 6 -1 6 C-1.33 6.66 -1.66 7.32 -2 8 C-4.937 10.01 -6.392 11 -10 11 C-9.049 9.827 -8.089 8.662 -7.125 7.5 C-6.324 6.525 -6.324 6.525 -5.508 5.531 C-5.01 5.026 -4.513 4.521 -4 4 C-3.34 4 -2.68 4 -2 4 C-1.34 2.68 -0.68 1.36 0 0 Z " fill="#373737" transform="translate(240,167)"/>
<path d="M0 0 C0.043 1.666 0.041 3.334 0 5 C-1 6 -1 6 -4.562 6.062 C-5.697 6.042 -6.831 6.021 -8 6 C-8 4.35 -8 2.7 -8 1 C-1.125 0 -1.125 0 0 0 Z " fill="#FFFFFF" transform="translate(31,130)"/>
<path d="M0 0 C0.99 0 1.98 0 3 0 C4.125 6.75 4.125 6.75 3 9 C1.68 8.67 0.36 8.34 -1 8 C-1.042 5.667 -1.041 3.333 -1 1 C-0.67 0.67 -0.34 0.34 0 0 Z " fill="#FFFFFF" transform="translate(263,294)"/>
<path d="M0 0 C1.735 2.603 2.611 3.987 3 7 C2.34 7.66 1.68 8.32 1 9 C-1.125 8.625 -1.125 8.625 -3 8 C-3.33 6.35 -3.66 4.7 -4 3 C-2.68 2.01 -1.36 1.02 0 0 Z " fill="#FFFFFF" transform="translate(12,50)"/>
<path d="M0 0 C0.66 0.66 1.32 1.32 2 2 C1.34 2 0.68 2 0 2 C0 2.66 0 3.32 0 4 C1.609 5.052 1.609 5.052 3.25 6.125 C7.457 8.967 9.15 12.37 11 17 C10.34 17 9.68 17 9 17 C7.636 14.983 6.496 12.879 5.316 10.75 C4.882 10.172 4.448 9.595 4 9 C3.01 9 2.02 9 1 9 C-0.75 7.812 -0.75 7.812 -2 6 C-1.579 1.579 -1.579 1.579 0 0 Z " fill="#000000" transform="translate(39,22)"/>
<path d="M0 0 C1.32 0.66 2.64 1.32 4 2 C3.67 4.31 3.34 6.62 3 9 C1.68 8.67 0.36 8.34 -1 8 C-1.042 5.667 -1.041 3.333 -1 1 C-0.67 0.67 -0.34 0.34 0 0 Z " fill="#FFFFFF" transform="translate(273,294)"/>
<path d="M0 0 C1 1 1 1 1.062 3.562 C1.042 4.367 1.021 5.171 1 6 C0.67 5.34 0.34 4.68 0 4 C-0.99 3.67 -1.98 3.34 -3 3 C-2.34 2.67 -1.68 2.34 -1 2 C-7.061 0.919 -7.061 0.919 -13 2 C-12.34 2.66 -11.68 3.32 -11 4 C-11.99 4 -12.98 4 -14 4 C-14 4.66 -14 5.32 -14 6 C-14.66 6 -15.32 6 -16 6 C-15.812 3.625 -15.812 3.625 -15 1 C-10.612 -2.114 -5.019 -0.92 0 0 Z " fill="#060606" transform="translate(291,191)"/>
<path d="M0 0 C3.356 0.599 5.378 1.846 8 4 C7 7 7 7 5 8 C3 8.04 1 8.043 -1 8 C-1 7.67 -1 7.34 -1 7 C0.65 6.67 2.3 6.34 4 6 C4 5.34 4 4.68 4 4 C2.02 4 0.04 4 -2 4 C-2.33 4.66 -2.66 5.32 -3 6 C-3.33 4.68 -3.66 3.36 -4 2 C-3.01 2 -2.02 2 -1 2 C-0.67 1.34 -0.34 0.68 0 0 Z " fill="#000000" transform="translate(127,161)"/>
<path d="M0 0 C1.603 0.041 1.603 0.041 3.238 0.082 C4.047 0.117 4.855 0.152 5.688 0.188 C6.017 0.847 6.348 1.507 6.688 2.188 C5.458 2.135 5.458 2.135 4.203 2.082 C2.587 2.041 2.587 2.041 0.938 2 C-0.13 1.965 -1.197 1.93 -2.297 1.895 C-5.672 2.222 -6.826 2.975 -9.312 5.188 C-10.179 5.662 -11.045 6.136 -11.938 6.625 C-14.471 8.292 -15.254 9.397 -16.312 12.188 C-16.625 9.938 -16.625 9.938 -16.312 7.188 C-14.125 5.062 -14.125 5.062 -11.312 3.188 C-10.183 2.393 -10.183 2.393 -9.031 1.582 C-5.775 -0.088 -3.634 -0.12 0 0 Z " fill="#000000" transform="translate(300.3125,98.8125)"/>
<path d="M0 0 C1.32 0 2.64 0 4 0 C4 2.97 4 5.94 4 9 C2.68 9 1.36 9 0 9 C0 6.03 0 3.06 0 0 Z " fill="#FFFFFF" transform="translate(253,294)"/>
<path d="M0 0 C0.66 0.33 1.32 0.66 2 1 C1.319 2.011 0.639 3.021 -0.062 4.062 C-2.327 8.002 -2.089 10.56 -1 15 C-0.773 15.763 -0.546 16.526 -0.312 17.312 C-0.209 17.869 -0.106 18.426 0 19 C-0.66 19.66 -1.32 20.32 -2 21 C-4.626 16.431 -4.679 12.156 -4 7 C-2.919 4.344 -1.652 2.375 0 0 Z " fill="#000000" transform="translate(275,96)"/>
<path d="M0 0 C2.31 0 4.62 0 7 0 C7.33 1.32 7.66 2.64 8 4 C5.03 4 2.06 4 -1 4 C-0.67 2.68 -0.34 1.36 0 0 Z " fill="#FFFFFF" transform="translate(170,118)"/>
<path d="M0 0 C0.99 0 1.98 0 3 0 C4.125 5.625 4.125 5.625 3 9 C2.01 9 1.02 9 0 9 C-1.125 3.375 -1.125 3.375 0 0 Z " fill="#FFFFFF" transform="translate(302,294)"/>
<path d="M0 0 C0.99 0.99 1.98 1.98 3 3 C-0.576 5.384 -2.983 6.131 -7.188 6.062 C-9.075 6.032 -9.075 6.032 -11 6 C-10 4 -10 4 -7 3 C-4.667 2.96 -2.333 2.956 0 3 C0 2.01 0 1.02 0 0 Z " fill="#000000" transform="translate(186,193)"/>
<path d="M0 0 C0.66 0 1.32 0 2 0 C2 0.66 2 1.32 2 2 C2.66 2 3.32 2 4 2 C7.077 7.292 7.077 7.292 6.688 10.875 C6.461 11.576 6.234 12.278 6 13 C3 9.25 3 9.25 3 7 C2.34 7 1.68 7 1 7 C1 6.34 1 5.68 1 5 C0.34 4.67 -0.32 4.34 -1 4 C-0.01 4 0.98 4 2 4 C1.67 3.67 1.34 3.34 1 3 C0.67 2.01 0.34 1.02 0 0 Z " fill="#0F0F0F" transform="translate(98,62)"/>
<path d="M0 0 C4.542 1.851 7.729 5.035 10.375 9.125 C11 11 11 11 10 14 C9.709 13.457 9.417 12.915 9.117 12.355 C6.379 7.577 4.361 4.995 -1 3 C-0.67 2.01 -0.34 1.02 0 0 Z " fill="#FFFFFF" transform="translate(39,24)"/>
<path d="M0 0 C2.64 0 5.28 0 8 0 C7.67 1.32 7.34 2.64 7 4 C1.25 4.125 1.25 4.125 -1 3 C-0.67 2.01 -0.34 1.02 0 0 Z " fill="#FFFFFF" transform="translate(140,127)"/>
<path d="M0 0 C2.64 0 5.28 0 8 0 C8 1.32 8 2.64 8 4 C5.36 4 2.72 4 0 4 C0 2.68 0 1.36 0 0 Z " fill="#FFFFFF" transform="translate(297,109)"/>
<path d="M0 0 C0.66 0.99 1.32 1.98 2 3 C2.99 3.33 3.98 3.66 5 4 C4.67 4.99 4.34 5.98 4 7 C3.34 7 2.68 7 2 7 C2 7.99 2 8.98 2 10 C1.01 9.67 0.02 9.34 -1 9 C-1.098 2.848 -1.098 2.848 -1 1 C-0.67 0.67 -0.34 0.34 0 0 Z " fill="#525252" transform="translate(122,157)"/>
<path d="M0 0 C2.475 0.99 2.475 0.99 5 2 C5 3.98 5 5.96 5 8 C2.062 7.25 2.062 7.25 -1 6 C-1.875 3.875 -1.875 3.875 -2 2 C-1.34 2 -0.68 2 0 2 C0 1.34 0 0.68 0 0 Z " fill="#838383" transform="translate(291,104)"/>
<path d="M0 0 C0.33 0.66 0.66 1.32 1 2 C-3.62 2 -8.24 2 -13 2 C-12 0 -12 0 -10.438 -0.688 C-6.769 -1.158 -3.646 -0.658 0 0 Z " fill="#BBBBBB" transform="translate(290,192)"/>
<path d="M0 0 C2.97 0.495 2.97 0.495 6 1 C4.625 3.5 4.625 3.5 3 6 C2.34 6 1.68 6 1 6 C1 6.66 1 7.32 1 8 C0.01 8 -0.98 8 -2 8 C-1.34 5.36 -0.68 2.72 0 0 Z " fill="#FFFFFF" transform="translate(23,14)"/>
<path d="M0 0 C5.61 0 11.22 0 17 0 C17 0.33 17 0.66 17 1 C14.36 1 11.72 1 9 1 C9.33 1.99 9.66 2.98 10 4 C6.7 3.01 3.4 2.02 0 1 C0 0.67 0 0.34 0 0 Z " fill="#000000" transform="translate(156,143)"/>
<path d="M0 0 C0.33 1.32 0.66 2.64 1 4 C3.97 4 6.94 4 10 4 C10.33 3.01 10.66 2.02 11 1 C11.66 1 12.32 1 13 1 C12.438 2.938 12.438 2.938 11 5 C6.333 6.233 3.301 6.216 -1 4 C-0.67 2.68 -0.34 1.36 0 0 Z " fill="#FFFFFF" transform="translate(21,133)"/>
<path d="M0 0 C0.99 0 1.98 0 3 0 C3.66 1.98 4.32 3.96 5 6 C3.35 6.66 1.7 7.32 0 8 C0 5.36 0 2.72 0 0 Z " fill="#FFFFFF" transform="translate(7,44)"/>
<path d="M0 0 C2.743 3.2 4.63 6.005 6 10 C5.01 9.34 4.02 8.68 3 8 C0.375 7.833 0.375 7.833 -2 8 C-1.01 6.68 -0.02 5.36 1 4 C0.34 3.34 -0.32 2.68 -1 2 C-0.67 1.34 -0.34 0.68 0 0 Z " fill="#090909" transform="translate(194,205)"/>
<path d="M0 0 C0 1.32 0 2.64 0 4 C-1.98 4 -3.96 4 -6 4 C-6.33 3.01 -6.66 2.02 -7 1 C-4.537 -0.231 -2.72 -0.072 0 0 Z " fill="#FFFFFF" transform="translate(204,147)"/>
<path d="M0 0 C3.63 0.66 7.26 1.32 11 2 C10.34 3.32 9.68 4.64 9 6 C9 5.01 9 4.02 9 3 C6.36 3 3.72 3 1 3 C0.67 3.66 0.34 4.32 0 5 C0 4.34 0 3.68 0 3 C-0.66 2.67 -1.32 2.34 -2 2 C-1.34 2 -0.68 2 0 2 C0 1.34 0 0.68 0 0 Z " fill="#000000" transform="translate(296,106)"/>
<path d="M0 0 C5.94 0.99 5.94 0.99 12 2 C11.67 2.99 11.34 3.98 11 5 C5.06 4.01 5.06 4.01 -1 3 C-0.67 2.01 -0.34 1.02 0 0 Z " fill="#000000" transform="translate(168,85)"/>
<path d="M0 0 C0.144 0.619 0.289 1.237 0.438 1.875 C1.359 5.358 1.848 5.899 5 8 C4.67 8.66 4.34 9.32 4 10 C1.69 10 -0.62 10 -3 10 C-2.01 9.34 -1.02 8.68 0 8 C-0.33 7.67 -0.66 7.34 -1 7 C-1.125 4 -1.125 4 -1 1 C-0.67 0.67 -0.34 0.34 0 0 Z " fill="#000000" transform="translate(261,78)"/>
<path d="M0 0 C1.65 0 3.3 0 5 0 C5 1.65 5 3.3 5 5 C3.35 5 1.7 5 0 5 C0 3.35 0 1.7 0 0 Z " fill="#FFFFFF" transform="translate(158,135)"/>
<path d="M0 0 C0.812 0.29 1.624 0.58 2.461 0.879 C3.278 1.166 4.095 1.454 4.938 1.75 C5.564 1.978 6.19 2.206 6.836 2.441 C6.506 3.101 6.176 3.761 5.836 4.441 C4.355 4.16 2.876 3.866 1.398 3.566 C0.575 3.404 -0.249 3.242 -1.098 3.074 C-1.78 2.865 -2.461 2.657 -3.164 2.441 C-3.494 1.781 -3.824 1.121 -4.164 0.441 C-2.164 -0.559 -2.164 -0.559 0 0 Z " fill="#282828" transform="translate(182.1640625,87.55859375)"/>
<path d="M0 0 C-0.33 0.99 -0.66 1.98 -1 3 C-2.98 3 -4.96 3 -7 3 C-7 2.01 -7 1.02 -7 0 C-4.333 -1.333 -2.833 -0.671 0 0 Z " fill="#FFFFFF" transform="translate(132,165)"/>
<path d="M0 0 C1.98 0 3.96 0 6 0 C4.837 3.489 3.86 4.1 0.938 6.188 C0.204 6.717 -0.529 7.247 -1.285 7.793 C-1.851 8.191 -2.417 8.59 -3 9 C-1.848 6.532 -0.952 4.952 1 3 C0.67 2.01 0.34 1.02 0 0 Z " fill="#0A0A0A" transform="translate(266,87)"/>
<path d="M0 0 C-0.33 0.99 -0.66 1.98 -1 3 C-3.64 3.33 -6.28 3.66 -9 4 C-9.33 3.34 -9.66 2.68 -10 2 C-3.375 0 -3.375 0 0 0 Z " fill="#353535" transform="translate(127,87)"/>
<path d="M0 0 C-0.312 1.875 -0.312 1.875 -1 4 C-1.99 4.66 -2.98 5.32 -4 6 C-4.99 5.67 -5.98 5.34 -7 5 C-6.34 5 -5.68 5 -5 5 C-5 4.34 -5 3.68 -5 3 C-5.99 2.67 -6.98 2.34 -8 2 C-4.772 -0.152 -3.716 -0.201 0 0 Z " fill="#4A4A4A" transform="translate(208,73)"/>
<path d="M0 0 C2.31 0.33 4.62 0.66 7 1 C7 1.99 7 2.98 7 4 C6.34 4 5.68 4 5 4 C4.67 4.99 4.34 5.98 4 7 C4 6.34 4 5.68 4 5 C3.34 5 2.68 5 2 5 C2 4.01 2 3.02 2 2 C1.34 2 0.68 2 0 2 C0 1.34 0 0.68 0 0 Z " fill="#000000" transform="translate(190,160)"/>
<path d="M0 0 C5.875 2.75 5.875 2.75 7 5 C6.01 5.33 5.02 5.66 4 6 C1.312 4.562 1.312 4.562 -1 3 C-0.67 2.01 -0.34 1.02 0 0 Z " fill="#161616" transform="translate(201,95)"/>
<path d="M0 0 C0.66 0.33 1.32 0.66 2 1 C1.67 1.619 1.34 2.237 1 2.875 C-0.142 4.91 -0.142 4.91 0 7 C0.66 7 1.32 7 2 7 C2 7.66 2 8.32 2 9 C0.68 8.67 -0.64 8.34 -2 8 C-3.125 4.25 -3.125 4.25 -2 2 C-1.34 2 -0.68 2 0 2 C0 1.34 0 0.68 0 0 Z " fill="#FFFFFF" transform="translate(264,76)"/>
<path d="M0 0 C0.99 0.33 1.98 0.66 3 1 C3 1.66 3 2.32 3 3 C-2.273 6.223 -2.273 6.223 -4 7 C-4.66 6.67 -5.32 6.34 -6 6 C-4 4 -2 2 0 0 Z " fill="#616161" transform="translate(96,99)"/>
<path d="M0 0 C0.99 1.32 1.98 2.64 3 4 C0.525 5.485 0.525 5.485 -2 7 C-2.688 5.188 -2.688 5.188 -3 3 C-1.562 1.25 -1.562 1.25 0 0 Z " fill="#FFFFFF" transform="translate(21,45)"/>
<path d="M0 0 C1.98 0.495 1.98 0.495 4 1 C3.67 2.32 3.34 3.64 3 5 C1.68 5 0.36 5 -1 5 C-0.67 3.35 -0.34 1.7 0 0 Z " fill="#FFFFFF" transform="translate(283,298)"/>
<path d="M0 0 C0.33 0.99 0.66 1.98 1 3 C1.66 3.33 2.32 3.66 3 4 C0.69 4.66 -1.62 5.32 -4 6 C-4 5.01 -4 4.02 -4 3 C-2 1.312 -2 1.312 0 0 Z " fill="#191919" transform="translate(34,135)"/>
<path d="M0 0 C-3.006 3.006 -5.824 2.596 -10 3 C-10 2.34 -10 1.68 -10 1 C-6.218 -0.837 -4.054 -1.158 0 0 Z " fill="#191919" transform="translate(120,91)"/>
<path d="M0 0 C2.31 0 4.62 0 7 0 C6.67 0.99 6.34 1.98 6 3 C4.35 3 2.7 3 1 3 C0.67 2.01 0.34 1.02 0 0 Z " fill="#FFFFFF" transform="translate(23,127)"/>
<path d="M0 0 C0.66 0.66 1.32 1.32 2 2 C1.188 3.938 1.188 3.938 0 6 C-0.99 6.33 -1.98 6.66 -3 7 C-3.188 4.625 -3.188 4.625 -3 2 C-2.01 1.34 -1.02 0.68 0 0 Z " fill="#939393" transform="translate(281,76)"/>
<path d="M0 0 C0.33 0.66 0.66 1.32 1 2 C1.66 2 2.32 2 3 2 C2.67 3.65 2.34 5.3 2 7 C0.68 5.68 -0.64 4.36 -2 3 C-1 1 -1 1 0 0 Z " fill="#B8B8B8" transform="translate(65,167)"/>
<path d="M0 0 C0.33 0 0.66 0 1 0 C1.369 5.415 1.369 5.415 -0.5 8.375 C-0.995 8.911 -1.49 9.447 -2 10 C-2.179 6.053 -2.094 3.402 0 0 Z " fill="#FFFFFF" transform="translate(186,137)"/>
<path d="M0 0 C4.248 0.472 6.2 2.967 9 6 C5.917 4.801 2.937 3.523 0 2 C0 1.34 0 0.68 0 0 Z " fill="#FFFFFF" transform="translate(297,176)"/>
<path d="M0 0 C0.99 0.33 1.98 0.66 3 1 C2.67 2.65 2.34 4.3 2 6 C1.01 5.67 0.02 5.34 -1 5 C-0.67 3.35 -0.34 1.7 0 0 Z " fill="#878787" transform="translate(240,167)"/>
<path d="M0 0 C1.65 0 3.3 0 5 0 C5.33 0.99 5.66 1.98 6 3 C4.02 3 2.04 3 0 3 C0 2.01 0 1.02 0 0 Z " fill="#FFFFFF" transform="translate(271,81)"/>
<path d="M0 0 C1.938 0.312 1.938 0.312 4 1 C4.33 1.99 4.66 2.98 5 4 C3.68 4.33 2.36 4.66 1 5 C0.67 3.35 0.34 1.7 0 0 Z " fill="#FFFFFF" transform="translate(16,41)"/>
</svg>
