<?xml version="1.0" encoding="UTF-8"?>
<!-- Generator: visioncortex VTracer 0.6.4 -->
<svg version="1.1" xmlns="http://www.w3.org/2000/svg" width="325" height="311">
<path d="M0 0 C107.25 0 214.5 0 325 0 C325 102.63 325 205.26 325 311 C217.75 311 110.5 311 0 311 C0 208.37 0 105.74 0 0 Z " fill="#FBFBFB" transform="translate(0,0)"/>
<path d="M0 0 C1.68 1.187 1.68 1.187 2.461 3.094 C2.819 6.522 1.929 9.007 0.68 12.188 C-3.587 16.73 -9.849 19.313 -15.32 22.188 C-15.32 22.847 -15.32 23.507 -15.32 24.188 C-14.763 23.414 -14.763 23.414 -14.195 22.625 C-12.32 21.188 -12.32 21.188 -9.32 21.25 C-5.905 22.317 -5.169 23.23 -3.32 26.188 C-2.66 26.517 -2 26.847 -1.32 27.188 C-1.843 29.95 -2.429 32.514 -3.32 35.188 C-2.66 35.188 -2 35.188 -1.32 35.188 C-1.32 37.167 -1.32 39.148 -1.32 41.188 C-0.516 40.878 0.288 40.569 1.117 40.25 C4.053 39.374 6.244 39.018 9.242 38.812 C13.527 38.418 15.444 37.074 18.68 34.188 C25.96 31.242 34.36 30.642 41.812 33.309 C44.186 34.502 46.448 35.748 48.68 37.188 C47.69 37.517 46.7 37.847 45.68 38.188 C46.154 39.281 46.628 40.374 47.117 41.5 C52.443 53.772 49.906 67.575 45.355 79.723 C40.588 91.423 34.336 100.053 25.68 109.188 C25.234 109.722 24.788 110.257 24.328 110.809 C21.826 112.901 19.039 113.759 15.992 114.875 C14.223 115.53 14.223 115.53 12.418 116.199 C11.514 116.525 10.611 116.851 9.68 117.188 C13.344 118.836 16.492 119.523 20.492 119.812 C21.956 119.925 21.956 119.925 23.449 120.039 C24.553 120.113 24.553 120.113 25.68 120.188 C25.68 120.517 25.68 120.847 25.68 121.188 C14.954 122.65 6.415 119.171 -2.32 113.188 C-7.173 108.799 -9.411 103.334 -11.32 97.188 C-11.692 96.094 -12.063 95.001 -12.445 93.875 C-12.878 92.545 -12.878 92.545 -13.32 91.188 C-13.65 90.197 -13.98 89.207 -14.32 88.188 C-14.98 88.188 -15.64 88.188 -16.32 88.188 C-17.781 85.54 -18.32 84.293 -18.32 81.188 C-19.125 81.497 -19.929 81.806 -20.758 82.125 C-24.943 83.373 -28.983 83.821 -33.32 84.188 C-33.297 84.9 -33.274 85.613 -33.25 86.348 C-33.143 92.007 -33.085 96.935 -35.32 102.188 C-37.445 103.625 -37.445 103.625 -39.32 104.188 C-39.65 103.197 -39.98 102.207 -40.32 101.188 C-40.65 101.517 -40.98 101.847 -41.32 102.188 C-43.3 102.188 -45.28 102.188 -47.32 102.188 C-47.32 108.457 -47.32 114.728 -47.32 121.188 C-45.34 121.188 -43.36 121.188 -41.32 121.188 C-41.32 121.517 -41.32 121.847 -41.32 122.188 C-45.361 122.693 -49.403 123.191 -53.445 123.688 C-54.587 123.831 -55.73 123.974 -56.906 124.121 C-58.015 124.256 -59.123 124.392 -60.266 124.531 C-61.79 124.72 -61.79 124.72 -63.344 124.912 C-66.32 125.188 -66.32 125.188 -69.636 125.166 C-72.24 124.873 -72.24 124.873 -73.32 126.188 C-75.654 126.188 -77.987 126.188 -80.32 126.188 C-81.219 126.454 -81.219 126.454 -82.137 126.727 C-85.206 127.374 -87.845 126.975 -90.945 126.562 C-92.093 126.426 -93.24 126.289 -94.422 126.148 C-97.32 125.188 -97.32 125.188 -98.594 122.664 C-98.834 121.847 -99.073 121.03 -99.32 120.188 C-100.31 119.692 -100.31 119.692 -101.32 119.188 C-100.99 118.528 -100.66 117.868 -100.32 117.188 C-100.249 114.636 -100.227 112.113 -100.258 109.562 C-100.262 108.856 -100.267 108.15 -100.271 107.422 C-100.283 105.677 -100.301 103.932 -100.32 102.188 C-100.98 102.188 -101.64 102.188 -102.32 102.188 C-102.65 106.478 -102.98 110.767 -103.32 115.188 C-104.48 115.153 -105.641 115.118 -106.836 115.082 C-120.463 114.485 -120.463 114.485 -133.32 118.188 C-134.525 120.647 -134.525 120.647 -135.32 123.188 C-137.695 125.062 -137.695 125.062 -140.32 126.188 C-142.633 125.875 -142.633 125.875 -144.32 125.188 C-139.695 122.188 -139.695 122.188 -136.32 122.188 C-136.65 119.877 -136.98 117.567 -137.32 115.188 C-138.31 114.858 -139.3 114.528 -140.32 114.188 C-137.83 113.5 -135.941 113.188 -133.32 113.188 C-131.044 112.541 -128.774 111.871 -126.508 111.188 C-118.979 109.028 -112.164 108.752 -104.32 109.188 C-104.597 108.512 -104.875 107.837 -105.16 107.141 C-105.703 105.803 -105.703 105.803 -106.258 104.438 C-106.617 103.556 -106.977 102.674 -107.348 101.766 C-108.174 99.576 -108.814 97.469 -109.32 95.188 C-109.98 95.188 -110.64 95.188 -111.32 95.188 C-111.32 83.637 -111.32 72.088 -111.32 60.188 C-103.477 56.826 -103.477 56.826 -98.273 56.449 C-97.182 56.351 -96.09 56.252 -94.965 56.15 C-92.687 55.966 -90.408 55.794 -88.129 55.635 C-85.076 55.347 -82.264 55.052 -79.32 54.188 C-76.919 51.301 -76.919 51.301 -76.32 48.188 C-75.66 48.188 -75 48.188 -74.32 48.188 C-74.32 47.197 -74.32 46.208 -74.32 45.188 C-74.836 44.713 -75.352 44.239 -75.883 43.75 C-76.357 43.234 -76.832 42.719 -77.32 42.188 C-77.008 40 -77.008 40 -76.32 38.188 C-73.695 37.5 -73.695 37.5 -70.32 37.188 C-69.433 37.744 -68.547 38.301 -67.633 38.875 C-62.949 40.731 -60.456 39.056 -55.957 37.184 C-52.958 36.051 -50.504 35.843 -47.32 36.188 C-46.99 34.868 -46.66 33.547 -46.32 32.188 C-45.66 32.188 -45 32.188 -44.32 32.188 C-43.934 28.223 -44.298 25.88 -46.383 22.562 C-48.32 19.188 -48.32 19.188 -48.195 16.938 C-47.32 15.187 -47.32 15.187 -45.32 12.188 C-44.33 12.517 -43.34 12.847 -42.32 13.188 C-41.99 10.877 -41.66 8.567 -41.32 6.188 C-37.32 7.188 -37.32 7.188 -35.523 7.871 C-32.384 8.322 -30.632 7.211 -27.82 5.812 C-24.632 4.244 -21.763 3.016 -18.32 2.188 C-17.502 1.832 -16.683 1.476 -15.84 1.109 C-9.863 -1.478 -6.166 -2.282 0 0 Z " fill="#FFFFFF" transform="translate(156.3203125,52.8125)"/>
<path d="M0 0 C1.68 1.187 1.68 1.187 2.461 3.094 C2.819 6.522 1.929 9.007 0.68 12.188 C-3.587 16.73 -9.849 19.313 -15.32 22.188 C-15.32 22.847 -15.32 23.507 -15.32 24.188 C-14.763 23.414 -14.763 23.414 -14.195 22.625 C-12.32 21.188 -12.32 21.188 -9.32 21.25 C-5.905 22.317 -5.169 23.23 -3.32 26.188 C-2.66 26.517 -2 26.847 -1.32 27.188 C-2.07 31.937 -2.07 31.937 -4.32 34.188 C-8.796 32.781 -11.083 30.508 -14.32 27.188 C-16.487 25.892 -16.487 25.892 -18.32 25.188 C-17.825 26.178 -17.825 26.178 -17.32 27.188 C-17.195 29.929 -17.135 32.634 -17.133 35.375 C-17.121 36.118 -17.108 36.861 -17.096 37.627 C-17.083 42.527 -17.763 46.539 -19.32 51.188 C-20.001 51.023 -20.682 50.858 -21.383 50.688 C-28.826 49.421 -33.008 50.557 -39.195 54.5 C-39.871 54.904 -40.546 55.308 -41.242 55.725 C-45.265 58.117 -45.265 58.117 -47.32 62.188 C-46.64 61.342 -45.959 60.496 -45.258 59.625 C-42.32 57.188 -42.32 57.188 -38.508 57.375 C-37.456 57.643 -36.404 57.911 -35.32 58.188 C-35.32 57.528 -35.32 56.868 -35.32 56.188 C-36.805 55.692 -36.805 55.692 -38.32 55.188 C-35.945 53.625 -35.945 53.625 -33.32 52.188 C-32.66 52.517 -32 52.847 -31.32 53.188 C-31.98 54.838 -32.64 56.487 -33.32 58.188 C-32.66 58.188 -32 58.188 -31.32 58.188 C-31.65 60.498 -31.98 62.808 -32.32 65.188 C-33.97 65.188 -35.62 65.188 -37.32 65.188 C-36.33 64.198 -35.34 63.207 -34.32 62.188 C-39.784 60.191 -39.784 60.191 -45.32 61.188 C-45.135 61.806 -44.949 62.425 -44.758 63.062 C-44.32 65.188 -44.32 65.188 -45.32 67.188 C-48.107 68.116 -49.853 68.328 -52.737 68.365 C-53.63 68.377 -54.522 68.39 -55.441 68.403 C-56.407 68.411 -57.372 68.418 -58.367 68.426 C-59.371 68.434 -60.374 68.442 -61.408 68.45 C-63.54 68.464 -65.671 68.475 -67.803 68.483 C-69.96 68.494 -72.116 68.514 -74.273 68.544 C-86.928 68.719 -98.301 68.464 -110.32 64.188 C-110.32 67.157 -110.32 70.127 -110.32 73.188 C-102.643 74.78 -94.871 75.962 -87.07 76.75 C-83.32 77.188 -83.32 77.188 -82.32 78.188 C-82.179 80.858 -82.278 83.512 -82.32 86.188 C-82.65 86.188 -82.98 86.188 -83.32 86.188 C-83.32 83.877 -83.32 81.567 -83.32 79.188 C-84.64 78.858 -85.96 78.528 -87.32 78.188 C-87.32 85.778 -87.32 93.368 -87.32 101.188 C-86.33 101.683 -86.33 101.683 -85.32 102.188 C-85.65 102.517 -85.98 102.847 -86.32 103.188 C-76.75 103.188 -67.18 103.188 -57.32 103.188 C-70.19 102.692 -70.19 102.692 -83.32 102.188 C-83.32 101.858 -83.32 101.528 -83.32 101.188 C-82.413 101.162 -81.505 101.137 -80.57 101.112 C-77.182 101.016 -73.793 100.917 -70.405 100.815 C-68.943 100.772 -67.48 100.73 -66.018 100.69 C-63.907 100.632 -61.797 100.568 -59.688 100.504 C-58.42 100.467 -57.153 100.431 -55.847 100.393 C-52.6 100.204 -49.513 99.791 -46.32 99.188 C-46.32 95.228 -46.32 91.267 -46.32 87.188 C-45.99 87.188 -45.66 87.188 -45.32 87.188 C-45.32 91.147 -45.32 95.108 -45.32 99.188 C-41.027 97.647 -41.027 97.647 -37.32 95.188 C-36.318 92.169 -36.212 89.351 -36.32 86.188 C-37.805 85.692 -37.805 85.692 -39.32 85.188 C-39.32 84.528 -39.32 83.868 -39.32 83.188 C-38.681 83.064 -38.042 82.94 -37.383 82.812 C-36.702 82.606 -36.022 82.4 -35.32 82.188 C-33.969 79.486 -33.982 77.069 -33.758 74.062 C-33.632 72.419 -33.632 72.419 -33.504 70.742 C-33.443 69.899 -33.383 69.056 -33.32 68.188 C-32 67.858 -30.68 67.528 -29.32 67.188 C-29.65 67.847 -29.98 68.507 -30.32 69.188 C-30.98 69.188 -31.64 69.188 -32.32 69.188 C-31.825 75.623 -31.825 75.623 -31.32 82.188 C-29.01 82.188 -26.7 82.188 -24.32 82.188 C-24.32 82.517 -24.32 82.847 -24.32 83.188 C-28.775 83.683 -28.775 83.683 -33.32 84.188 C-33.297 84.9 -33.274 85.613 -33.25 86.348 C-33.143 92.007 -33.085 96.935 -35.32 102.188 C-37.445 103.625 -37.445 103.625 -39.32 104.188 C-39.65 103.197 -39.98 102.207 -40.32 101.188 C-40.65 101.517 -40.98 101.847 -41.32 102.188 C-43.3 102.188 -45.28 102.188 -47.32 102.188 C-47.32 108.457 -47.32 114.728 -47.32 121.188 C-45.34 121.188 -43.36 121.188 -41.32 121.188 C-41.32 121.517 -41.32 121.847 -41.32 122.188 C-45.361 122.693 -49.403 123.191 -53.445 123.688 C-54.587 123.831 -55.73 123.974 -56.906 124.121 C-58.015 124.256 -59.123 124.392 -60.266 124.531 C-61.79 124.72 -61.79 124.72 -63.344 124.912 C-66.32 125.188 -66.32 125.188 -69.636 125.166 C-72.24 124.873 -72.24 124.873 -73.32 126.188 C-75.654 126.188 -77.987 126.188 -80.32 126.188 C-81.219 126.454 -81.219 126.454 -82.137 126.727 C-85.206 127.374 -87.845 126.975 -90.945 126.562 C-92.093 126.426 -93.24 126.289 -94.422 126.148 C-97.32 125.188 -97.32 125.188 -98.594 122.664 C-98.834 121.847 -99.073 121.03 -99.32 120.188 C-100.31 119.692 -100.31 119.692 -101.32 119.188 C-100.99 118.528 -100.66 117.868 -100.32 117.188 C-100.249 114.636 -100.227 112.113 -100.258 109.562 C-100.262 108.856 -100.267 108.15 -100.271 107.422 C-100.283 105.677 -100.301 103.932 -100.32 102.188 C-100.98 102.188 -101.64 102.188 -102.32 102.188 C-102.65 106.478 -102.98 110.767 -103.32 115.188 C-104.48 115.153 -105.641 115.118 -106.836 115.082 C-120.463 114.485 -120.463 114.485 -133.32 118.188 C-134.525 120.647 -134.525 120.647 -135.32 123.188 C-137.695 125.062 -137.695 125.062 -140.32 126.188 C-142.633 125.875 -142.633 125.875 -144.32 125.188 C-139.695 122.188 -139.695 122.188 -136.32 122.188 C-136.65 119.877 -136.98 117.567 -137.32 115.188 C-138.31 114.858 -139.3 114.528 -140.32 114.188 C-137.83 113.5 -135.941 113.188 -133.32 113.188 C-131.044 112.541 -128.774 111.871 -126.508 111.188 C-118.979 109.028 -112.164 108.752 -104.32 109.188 C-104.597 108.512 -104.875 107.837 -105.16 107.141 C-105.703 105.803 -105.703 105.803 -106.258 104.438 C-106.617 103.556 -106.977 102.674 -107.348 101.766 C-108.174 99.576 -108.814 97.469 -109.32 95.188 C-109.98 95.188 -110.64 95.188 -111.32 95.188 C-111.32 83.637 -111.32 72.088 -111.32 60.188 C-103.477 56.826 -103.477 56.826 -98.273 56.449 C-97.182 56.351 -96.09 56.252 -94.965 56.15 C-92.687 55.966 -90.408 55.794 -88.129 55.635 C-85.076 55.347 -82.264 55.052 -79.32 54.188 C-76.919 51.301 -76.919 51.301 -76.32 48.188 C-75.66 48.188 -75 48.188 -74.32 48.188 C-74.32 47.197 -74.32 46.208 -74.32 45.188 C-74.836 44.713 -75.352 44.239 -75.883 43.75 C-76.357 43.234 -76.832 42.719 -77.32 42.188 C-77.008 40 -77.008 40 -76.32 38.188 C-73.695 37.5 -73.695 37.5 -70.32 37.188 C-69.433 37.744 -68.547 38.301 -67.633 38.875 C-62.949 40.731 -60.456 39.056 -55.957 37.184 C-52.958 36.051 -50.504 35.843 -47.32 36.188 C-46.99 34.868 -46.66 33.547 -46.32 32.188 C-45.66 32.188 -45 32.188 -44.32 32.188 C-43.934 28.223 -44.298 25.88 -46.383 22.562 C-48.32 19.188 -48.32 19.188 -48.195 16.938 C-47.32 15.187 -47.32 15.187 -45.32 12.188 C-44.33 12.517 -43.34 12.847 -42.32 13.188 C-41.99 10.877 -41.66 8.567 -41.32 6.188 C-37.32 7.188 -37.32 7.188 -35.523 7.871 C-32.384 8.322 -30.632 7.211 -27.82 5.812 C-24.632 4.244 -21.763 3.016 -18.32 2.188 C-17.502 1.832 -16.683 1.476 -15.84 1.109 C-9.863 -1.478 -6.166 -2.282 0 0 Z " fill="#141414" transform="translate(156.3203125,52.8125)"/>
<path d="M0 0 C0.66 0 1.32 0 2 0 C2.66 0 3.32 0 4 0 C4 0.66 4 1.32 4 2 C4.66 2 5.32 2 6 2 C5.67 2.99 5.34 3.98 5 5 C5.54 7.303 5.54 7.303 6.438 9.75 C10.656 23.179 5.817 36.55 -0.332 48.613 C-1.946 51.592 -3.551 54.411 -5.605 57.109 C-7.071 59.097 -7.57 60.591 -8 63 C-10.475 63.495 -10.475 63.495 -13 64 C-13 64.66 -13 65.32 -13 66 C-18.382 70.447 -23.888 74.151 -31.062 73.484 C-34.26 72.685 -35.843 71.475 -38 69 C-40.088 64.967 -41 62.564 -41 58 C-42.453 55.995 -42.453 55.995 -44.375 54.125 C-47.491 50.957 -48.792 48.283 -50 44 C-48.212 42.828 -46.419 41.662 -44.625 40.5 C-43.128 39.525 -43.128 39.525 -41.602 38.531 C-39 37 -39 37 -37 37 C-36.34 35.35 -35.68 33.7 -35 32 C-35.495 32.495 -35.495 32.495 -36 33 C-37.667 34.667 -39.333 36.333 -41 38 C-41.66 37.67 -42.32 37.34 -43 37 C-42.602 36.455 -42.203 35.909 -41.793 35.348 C-36.761 28.186 -34.295 21.636 -33 13 C-32.67 12.67 -32.34 12.34 -32 12 C-31.959 10.334 -31.957 8.666 -32 7 C-24.435 4.149 -15.992 3.573 -8.312 6.438 C-2.622 9.122 -2.622 9.122 -1 13 C2.079 26.763 -2.519 38.592 -9.688 50.25 C-11.449 53.016 -11.449 53.016 -13 55 C-13.66 55 -14.32 55 -15 55 C-14.67 55.33 -14.34 55.66 -14 56 C-13.34 56 -12.68 56 -12 56 C-11.742 55.471 -11.484 54.943 -11.219 54.398 C-9.139 50.305 -6.877 46.308 -4.656 42.289 C0.712 31.628 1.253 19.425 -2 8 C-2.675 7.807 -3.351 7.613 -4.047 7.414 C-4.939 7.154 -5.831 6.893 -6.75 6.625 C-7.632 6.37 -8.513 6.115 -9.422 5.852 C-11.761 5.079 -13.834 4.164 -16 3 C-11.133 -1.028 -5.959 -0.259 0 0 Z " fill="#FCFCFC" transform="translate(188,88)"/>
<path d="M0 0 C0.99 0.495 0.99 0.495 2 1 C1.01 1.33 0.02 1.66 -1 2 C-0.505 8.435 -0.505 8.435 0 15 C2.31 15 4.62 15 7 15 C7 15.33 7 15.66 7 16 C4.03 16.33 1.06 16.66 -2 17 C-1.977 17.713 -1.954 18.426 -1.93 19.16 C-1.823 24.82 -1.765 29.747 -4 35 C-6.125 36.438 -6.125 36.438 -8 37 C-8.33 36.01 -8.66 35.02 -9 34 C-9.33 34.33 -9.66 34.66 -10 35 C-11.98 35 -13.96 35 -16 35 C-16 41.27 -16 47.54 -16 54 C-14.02 54 -12.04 54 -10 54 C-10 54.33 -10 54.66 -10 55 C-14.041 55.506 -18.083 56.004 -22.125 56.5 C-23.267 56.643 -24.409 56.786 -25.586 56.934 C-27.249 57.137 -27.249 57.137 -28.945 57.344 C-29.961 57.469 -30.977 57.595 -32.024 57.725 C-35 58 -35 58 -38.316 57.979 C-40.919 57.686 -40.919 57.686 -42 59 C-44.333 59 -46.667 59 -49 59 C-49.599 59.178 -50.199 59.356 -50.816 59.539 C-53.885 60.187 -56.525 59.788 -59.625 59.375 C-60.772 59.238 -61.92 59.102 -63.102 58.961 C-66 58 -66 58 -67.273 55.477 C-67.513 54.659 -67.753 53.842 -68 53 C-68.99 52.505 -68.99 52.505 -70 52 C-69.505 51.01 -69.505 51.01 -69 50 C-68.928 47.448 -68.907 44.925 -68.938 42.375 C-68.942 41.669 -68.947 40.962 -68.951 40.234 C-68.963 38.49 -68.981 36.745 -69 35 C-69.66 35 -70.32 35 -71 35 C-71.33 39.29 -71.66 43.58 -72 48 C-73.16 47.965 -74.32 47.93 -75.516 47.895 C-89.142 47.298 -89.142 47.298 -102 51 C-103.205 53.459 -103.205 53.459 -104 56 C-106.375 57.875 -106.375 57.875 -109 59 C-111.312 58.688 -111.312 58.688 -113 58 C-108.375 55 -108.375 55 -105 55 C-105.33 52.69 -105.66 50.38 -106 48 C-106.99 47.67 -107.98 47.34 -109 47 C-106.509 46.313 -104.621 46 -102 46 C-99.723 45.354 -97.453 44.683 -95.188 44 C-87.659 41.84 -80.844 41.565 -73 42 C-73.643 40.353 -74.289 38.707 -74.938 37.062 C-75.297 36.146 -75.657 35.229 -76.027 34.285 C-76.8 32.076 -76.8 32.076 -78 31 C-78.158 29.221 -78.251 27.437 -78.316 25.652 C-78.358 24.573 -78.4 23.493 -78.443 22.381 C-78.483 21.245 -78.522 20.108 -78.562 18.938 C-78.606 17.797 -78.649 16.657 -78.693 15.482 C-78.8 12.655 -78.902 9.828 -79 7 C-77.885 7.144 -76.77 7.289 -75.621 7.438 C-72.45 7.834 -69.278 8.184 -66.098 8.5 C-65.271 8.583 -64.444 8.665 -63.592 8.75 C-61.879 8.919 -60.165 9.086 -58.451 9.25 C-57.633 9.333 -56.815 9.415 -55.973 9.5 C-55.233 9.572 -54.493 9.644 -53.731 9.719 C-52 10 -52 10 -51 11 C-50.859 13.671 -50.958 16.324 -51 19 C-51.33 19 -51.66 19 -52 19 C-52 16.69 -52 14.38 -52 12 C-53.32 11.67 -54.64 11.34 -56 11 C-56 18.59 -56 26.18 -56 34 C-55.01 34.495 -55.01 34.495 -54 35 C-54.33 35.33 -54.66 35.66 -55 36 C-45.43 36 -35.86 36 -26 36 C-38.87 35.505 -38.87 35.505 -52 35 C-52 34.67 -52 34.34 -52 34 C-51.092 33.975 -50.185 33.95 -49.25 33.924 C-45.861 33.829 -42.473 33.729 -39.085 33.628 C-37.622 33.585 -36.16 33.543 -34.697 33.503 C-32.587 33.444 -30.477 33.381 -28.367 33.316 C-26.466 33.261 -26.466 33.261 -24.527 33.205 C-21.28 33.016 -18.193 32.604 -15 32 C-15 28.04 -15 24.08 -15 20 C-14.67 20 -14.34 20 -14 20 C-14 23.96 -14 27.92 -14 32 C-9.707 30.46 -9.707 30.46 -6 28 C-4.997 24.982 -4.892 22.163 -5 19 C-6.485 18.505 -6.485 18.505 -8 18 C-8 17.34 -8 16.68 -8 16 C-7.361 15.876 -6.721 15.752 -6.062 15.625 C-5.382 15.419 -4.701 15.213 -4 15 C-2.259 11.518 -2.594 7.497 -2.379 3.652 C-2.254 2.777 -2.129 1.902 -2 1 C-1.34 0.67 -0.68 0.34 0 0 Z " fill="#717171" transform="translate(125,120)"/>
<path d="M0 0 C1.392 0.805 2.774 1.628 4.125 2.5 C3.135 2.83 2.145 3.16 1.125 3.5 C1.599 4.593 2.074 5.686 2.562 6.812 C7.888 19.085 5.351 32.887 0.801 45.035 C-3.967 56.736 -10.219 65.366 -18.875 74.5 C-19.321 75.035 -19.767 75.57 -20.227 76.121 C-22.728 78.214 -25.516 79.071 -28.562 80.188 C-29.742 80.624 -30.921 81.061 -32.137 81.512 C-33.04 81.838 -33.944 82.164 -34.875 82.5 C-31.211 84.148 -28.063 84.836 -24.062 85.125 C-22.599 85.237 -22.599 85.237 -21.105 85.352 C-20.001 85.425 -20.001 85.425 -18.875 85.5 C-18.875 85.83 -18.875 86.16 -18.875 86.5 C-29.601 87.963 -38.14 84.484 -46.875 78.5 C-51.734 74.106 -53.953 68.647 -55.875 62.5 C-56.267 61.407 -56.659 60.314 -57.062 59.188 C-57.875 56.5 -57.875 56.5 -57.875 53.5 C-55.565 55.48 -53.255 57.46 -50.875 59.5 C-52.36 59.995 -52.36 59.995 -53.875 60.5 C-51.603 66.352 -51.603 66.352 -48.188 71.562 C-44.351 73.118 -40.933 73.334 -36.875 72.5 C-34.299 71.12 -32.045 69.582 -29.723 67.812 C-27.875 66.5 -27.875 66.5 -25.875 66.5 C-25.875 65.84 -25.875 65.18 -25.875 64.5 C-25.071 64.252 -24.266 64.005 -23.438 63.75 C-22.592 63.338 -21.746 62.925 -20.875 62.5 C-20.514 61.174 -20.186 59.839 -19.875 58.5 C-18.985 56.89 -18.042 55.308 -17.062 53.75 C-9.577 41.544 -3.32 27.05 -6.551 12.445 C-7.087 10.284 -7.642 8.127 -8.219 5.977 C-8.875 3.5 -8.875 3.5 -8.875 2.5 C-9.37 2.005 -9.37 2.005 -9.875 1.5 C-10.865 1.5 -11.855 1.5 -12.875 1.5 C-13.731 1.477 -14.587 1.454 -15.469 1.43 C-16.907 1.403 -16.907 1.403 -18.375 1.375 C-19.334 1.352 -20.293 1.329 -21.281 1.305 C-24.114 1.305 -24.114 1.305 -26.875 3.5 C-26.176 3.777 -25.478 4.054 -24.758 4.34 C-23.393 4.883 -23.393 4.883 -22 5.438 C-21.095 5.797 -20.19 6.157 -19.258 6.527 C-15.035 8.251 -15.035 8.251 -13.797 10.18 C-9.584 20.783 -12.344 32.797 -16.598 42.895 C-18.935 47.661 -21.628 52.294 -24.875 56.5 C-25.535 56.5 -26.195 56.5 -26.875 56.5 C-26.875 57.16 -26.875 57.82 -26.875 58.5 C-27.535 58.17 -28.195 57.84 -28.875 57.5 C-28.545 56.84 -28.215 56.18 -27.875 55.5 C-27.215 55.5 -26.555 55.5 -25.875 55.5 C-25.617 54.971 -25.359 54.443 -25.094 53.898 C-23.014 49.805 -20.752 45.808 -18.531 41.789 C-14.075 32.939 -12.852 23.208 -14.875 13.5 C-14.965 12.814 -15.055 12.128 -15.148 11.422 C-15.702 9.342 -15.702 9.342 -17.703 8.453 C-26.78 5.818 -35.603 5.779 -44.875 7.5 C-44.545 9.81 -44.215 12.12 -43.875 14.5 C-44.205 14.5 -44.535 14.5 -44.875 14.5 C-45.205 16.15 -45.535 17.8 -45.875 19.5 C-46.205 19.5 -46.535 19.5 -46.875 19.5 C-46.875 13.23 -46.875 6.96 -46.875 0.5 C-46.545 0.5 -46.215 0.5 -45.875 0.5 C-45.875 2.48 -45.875 4.46 -45.875 6.5 C-45.071 6.191 -44.266 5.881 -43.438 5.562 C-40.502 4.687 -38.311 4.331 -35.312 4.125 C-31.027 3.731 -29.111 2.386 -25.875 -0.5 C-17.492 -3.892 -8.134 -4.09 0 0 Z " fill="#8A8A8A" transform="translate(200.875,87.5)"/>
<path d="M0 0 C1.68 1.188 1.68 1.188 2.461 3.094 C2.819 6.522 1.929 9.007 0.68 12.188 C-3.587 16.73 -9.849 19.313 -15.32 22.188 C-15.32 22.847 -15.32 23.507 -15.32 24.188 C-14.949 23.672 -14.578 23.156 -14.195 22.625 C-12.32 21.188 -12.32 21.188 -9.32 21.25 C-5.905 22.317 -5.169 23.23 -3.32 26.188 C-2.66 26.517 -2 26.847 -1.32 27.188 C-2.07 31.938 -2.07 31.938 -4.32 34.188 C-8.796 32.781 -11.083 30.508 -14.32 27.188 C-16.487 25.892 -16.487 25.892 -18.32 25.188 C-17.825 26.178 -17.825 26.178 -17.32 27.188 C-17.195 29.929 -17.135 32.634 -17.133 35.375 C-17.121 36.118 -17.108 36.861 -17.096 37.627 C-17.083 42.527 -17.763 46.539 -19.32 51.188 C-20.001 51.023 -20.682 50.858 -21.383 50.688 C-26.642 49.792 -30.038 49.441 -34.758 52.188 C-35.603 52.847 -36.449 53.507 -37.32 54.188 C-39.32 53.187 -39.32 53.187 -42.32 51.188 C-41.66 51.188 -41 51.188 -40.32 51.188 C-40.98 49.868 -41.64 48.547 -42.32 47.188 C-40.01 47.847 -37.7 48.507 -35.32 49.188 C-35.32 47.868 -35.32 46.547 -35.32 45.188 C-34.66 45.188 -34 45.188 -33.32 45.188 C-32.99 46.178 -32.66 47.167 -32.32 48.188 C-31.33 47.692 -31.33 47.692 -30.32 47.188 C-28.654 47.148 -26.986 47.144 -25.32 47.188 C-25.98 46.858 -26.64 46.528 -27.32 46.188 C-26.99 45.528 -26.66 44.868 -26.32 44.188 C-24.67 44.847 -23.02 45.507 -21.32 46.188 C-21.32 44.868 -21.32 43.547 -21.32 42.188 C-22.31 41.692 -22.31 41.692 -23.32 41.188 C-23.32 39.868 -23.32 38.547 -23.32 37.188 C-25.96 35.868 -28.6 34.547 -31.32 33.188 C-27.32 32.188 -27.32 32.188 -25.398 32.965 C-22.859 34.576 -22.859 34.576 -20.32 36.188 C-20.65 35.197 -20.98 34.208 -21.32 33.188 C-21.043 30.847 -20.715 28.511 -20.32 26.188 C-21.31 26.683 -21.31 26.683 -22.32 27.188 C-23.31 26.858 -24.3 26.528 -25.32 26.188 C-25.65 27.177 -25.98 28.168 -26.32 29.188 C-28.285 30.255 -30.289 31.253 -32.32 32.188 C-33.31 32.847 -34.3 33.507 -35.32 34.188 C-35.65 33.528 -35.98 32.868 -36.32 32.188 C-36.98 33.178 -37.64 34.167 -38.32 35.188 C-41.473 36.172 -41.473 36.172 -45.258 36.938 C-47.128 37.332 -47.128 37.332 -49.035 37.734 C-52.32 38.188 -52.32 38.188 -55.32 37.188 C-52.612 35.833 -50.311 36.122 -47.32 36.188 C-46.99 34.868 -46.66 33.547 -46.32 32.188 C-45.66 32.188 -45 32.188 -44.32 32.188 C-43.934 28.223 -44.298 25.88 -46.383 22.562 C-48.32 19.188 -48.32 19.188 -48.195 16.938 C-47.32 15.188 -47.32 15.188 -45.32 12.188 C-44.33 12.517 -43.34 12.847 -42.32 13.188 C-41.99 10.877 -41.66 8.567 -41.32 6.188 C-37.32 7.188 -37.32 7.188 -35.523 7.871 C-32.384 8.322 -30.632 7.211 -27.82 5.812 C-24.632 4.244 -21.763 3.016 -18.32 2.188 C-17.502 1.832 -16.683 1.476 -15.84 1.109 C-9.863 -1.478 -6.166 -2.282 0 0 Z " fill="#121212" transform="translate(156.3203125,52.8125)"/>
<path d="M0 0 C4.445 1.6 6.666 3.666 10 7 C12.632 8.254 12.632 8.254 15 9 C17.495 11.495 16.92 16.711 17 20 C16.561 29.888 15.182 37.913 9 46 C9.99 46 10.98 46 12 46 C12.268 45.257 12.536 44.515 12.812 43.75 C13.942 41.134 15.209 39.198 17 37 C16.429 40.996 15.322 43.697 13 47 C10.59 48.73 10.59 48.73 7.938 50.188 C4.215 52.253 4.215 52.253 1 55 C1.99 57.64 2.98 60.28 4 63 C3.34 63 2.68 63 2 63 C0.539 60.353 0 59.106 0 56 C-0.843 56.246 -0.843 56.246 -1.703 56.496 C-4.131 57.029 -6.269 57.099 -8.75 57.062 C-9.549 57.053 -10.348 57.044 -11.172 57.035 C-11.775 57.024 -12.378 57.012 -13 57 C-14.312 54.377 -14.133 52.363 -14.125 49.438 C-14.128 48.446 -14.13 47.455 -14.133 46.434 C-14 44 -14 44 -13 43 C-13.66 43 -14.32 43 -15 43 C-14.34 39.7 -13.68 36.4 -13 33 C-13.66 33 -14.32 33 -15 33 C-14.67 31.35 -14.34 29.7 -14 28 C-14.99 28.66 -15.98 29.32 -17 30 C-16.67 31.32 -16.34 32.64 -16 34 C-17.237 33.794 -18.475 33.588 -19.75 33.375 C-22.339 33.059 -23.845 32.955 -26.375 33.688 C-28.309 35.249 -29.084 36.709 -30 39 C-30 36 -30 36 -28.25 33.75 C-23.299 29.125 -15.917 23.616 -8.938 23.438 C-6 24 -6 24 -3 26 C-0.979 22.093 0.127 18.969 0.098 14.551 C0.093 13.279 0.093 13.279 0.088 11.982 C0.08 11.101 0.071 10.22 0.062 9.312 C0.058 8.42 0.053 7.527 0.049 6.607 C0.037 4.405 0.021 2.202 0 0 Z " fill="#F2F2F2" transform="translate(138,78)"/>
<path d="M0 0 C6.726 3.424 6.726 3.424 7.883 5.855 C8.044 8.81 7.054 10.104 5.438 12.562 C3.143 16.175 0.969 19.795 -1.062 23.562 C-1.56 24.483 -2.058 25.403 -2.57 26.352 C-3.042 27.226 -3.514 28.1 -4 29 C-6.735 34.006 -9.55 38.956 -12.438 43.875 C-14.714 47.758 -16.925 51.664 -19.062 55.625 C-21.883 60.849 -24.903 65.936 -28 71 C-28.495 70.01 -28.495 70.01 -29 69 C-29.66 69 -30.32 69 -31 69 C-31 68.34 -31 67.68 -31 67 C-31.99 67 -32.98 67 -34 67 C-33.34 67.33 -32.68 67.66 -32 68 C-32 68.66 -32 69.32 -32 70 C-31.34 70 -30.68 70 -30 70 C-30 70.66 -30 71.32 -30 72 C-30.66 72 -31.32 72 -32 72 C-32.33 73.32 -32.66 74.64 -33 76 C-39.466 74.922 -39.466 74.922 -42 73 C-42.938 70.125 -42.938 70.125 -43.363 68.277 C-44.496 64.225 -46.303 60.428 -47.977 56.574 C-49 54 -49 54 -49 52 C-45.703 52.658 -43.159 53.894 -40.25 55.562 C-39.451 56.018 -38.652 56.473 -37.828 56.941 C-36.923 57.465 -36.923 57.465 -36 58 C-36 58.66 -36 59.32 -36 60 C-35.492 59.094 -34.984 58.188 -34.461 57.254 C-28.223 46.192 -28.223 46.192 -24.875 41.312 C-22.154 37.341 -19.9 33.2 -17.633 28.957 C-15.226 24.598 -12.591 20.388 -9.961 16.16 C-7.673 12.473 -5.444 8.753 -3.227 5.023 C-2.195 3.322 -1.104 1.656 0 0 Z " fill="#FDFDFD" transform="translate(309,164)"/>
<path d="M0 0 C4.966 1.753 9.302 3.999 12.75 8.062 C18.515 21.611 15.525 36.608 10.375 49.883 C8.518 54.092 6.429 58.094 4 62 C3.34 62 2.68 62 2 62 C1.691 62.784 1.381 63.567 1.062 64.375 C0 67 0 67 -1 69 C-1.66 69 -2.32 69 -3 69 C-3 69.66 -3 70.32 -3 71 C-3.66 71 -4.32 71 -5 71 C-5.25 71.596 -5.5 72.191 -5.758 72.805 C-7.172 75.304 -8.557 76.454 -10.875 78.125 C-11.553 78.623 -12.231 79.12 -12.93 79.633 C-18.596 83.375 -23.268 83.67 -30 83 C-33.688 81.5 -33.688 81.5 -36 80 C-26.385 75 -26.385 75 -22 75 C-21.67 74.01 -21.34 73.02 -21 72 C-19.182 70.286 -17.253 68.765 -15.301 67.207 C-9.275 61.426 -5.582 54.705 -2.25 47.125 C-1.865 46.291 -1.479 45.457 -1.082 44.598 C3.962 33.306 7.079 18.164 2.562 6.188 C2.047 5.136 1.531 4.084 1 3 C0.505 1.515 0.505 1.515 0 0 Z " fill="#FFFFFF" transform="translate(201,90)"/>
<path d="M0 0 C2.31 0.33 4.62 0.66 7 1 C7.33 3.97 7.66 6.94 8 10 C8.33 7.36 8.66 4.72 9 2 C9.988 2.005 10.976 2.01 11.994 2.016 C15.692 2.034 19.389 2.045 23.087 2.055 C24.681 2.06 26.276 2.067 27.87 2.075 C30.174 2.088 32.478 2.093 34.781 2.098 C35.835 2.105 35.835 2.105 36.91 2.113 C41.762 2.114 46.109 1.611 51 1 C51 6.61 51 12.22 51 18 C45.149 20.926 39.69 21.129 33.227 21.062 C31.99 21.055 30.754 21.047 29.48 21.039 C28.208 21.026 26.936 21.013 25.625 21 C23.076 20.975 20.526 20.954 17.977 20.938 C16.853 20.926 15.73 20.914 14.573 20.902 C12.068 20.706 12.068 20.706 11 22 C8.329 22.141 5.676 22.042 3 22 C1.11 17.129 0.599 12.776 0.375 7.625 C0.336 6.889 0.298 6.153 0.258 5.395 C0.164 3.597 0.081 1.798 0 0 Z " fill="#FFFFFF" transform="translate(57,155)"/>
<path d="M0 0 C-0.33 3.3 -0.66 6.6 -1 10 C-2.98 9.34 -4.96 8.68 -7 8 C-6.041 8.588 -6.041 8.588 -5.062 9.188 C-2.562 11.385 -2.35 12.758 -2 16 C-2 14.35 -2 12.7 -2 11 C-1.67 11 -1.34 11 -1 11 C-0.946 12.458 -0.907 13.916 -0.875 15.375 C-0.852 16.187 -0.829 16.999 -0.805 17.836 C-1 20 -1 20 -3 22 C-3 21.34 -3 20.68 -3 20 C-4.32 19.67 -5.64 19.34 -7 19 C-6.67 19.33 -6.34 19.66 -6 20 C-5.34 20.66 -4.68 21.32 -4 22 C-6.018 21.967 -8.036 21.935 -10.055 21.902 C-12.082 21.874 -12.082 21.874 -14 23 C-14 21.68 -14 20.36 -14 19 C-14.495 21.475 -14.495 21.475 -15 24 C-17.31 23.34 -19.62 22.68 -22 22 C-21.505 23.485 -21.505 23.485 -21 25 C-21.66 25 -22.32 25 -23 25 C-23 25.66 -23 26.32 -23 27 C-25.64 27 -28.28 27 -31 27 C-29.68 27.66 -28.36 28.32 -27 29 C-28.457 29.081 -29.916 29.139 -31.375 29.188 C-32.187 29.222 -32.999 29.257 -33.836 29.293 C-34.55 29.196 -35.264 29.1 -36 29 C-38 26 -38 26 -38 22 C-38.99 21.67 -39.98 21.34 -41 21 C-40.01 20.67 -39.02 20.34 -38 20 C-40.64 20 -43.28 20 -46 20 C-44 18 -44 18 -41.617 17.805 C-40.712 17.828 -39.807 17.851 -38.875 17.875 C-37.965 17.893 -37.055 17.911 -36.117 17.93 C-35.419 17.953 -34.72 17.976 -34 18 C-35.044 16.726 -35.044 16.726 -37.375 16.938 C-38.674 16.968 -38.674 16.968 -40 17 C-40.99 17 -41.98 17 -43 17 C-45.097 18.084 -45.097 18.084 -47.188 19.5 C-47.903 19.964 -48.618 20.428 -49.355 20.906 C-49.898 21.267 -50.441 21.628 -51 22 C-50.34 21.67 -49.68 21.34 -49 21 C-47 20.96 -45 20.957 -43 21 C-43 21.33 -43 21.66 -43 22 C-44.65 22 -46.3 22 -48 22 C-48 22.66 -48 23.32 -48 24 C-45.69 24.33 -43.38 24.66 -41 25 C-40.67 26.32 -40.34 27.64 -40 29 C-45.28 29 -50.56 29 -56 29 C-56.33 28.34 -56.66 27.68 -57 27 C-57.738 31.324 -58.392 35.655 -59 40 C-59.66 40 -60.32 40 -61 40 C-61.734 33.245 -59.276 28.815 -56 23 C-55.34 23 -54.68 23 -54 23 C-54 22.34 -54 21.68 -54 21 C-51.518 17.667 -47.873 16.46 -44.125 15 C-43.465 14.739 -42.804 14.479 -42.124 14.21 C-34.692 11.369 -27.001 9 -19 9 C-18.34 7.68 -17.68 6.36 -17 5 C-16.34 5.66 -15.68 6.32 -15 7 C-14.608 6.546 -14.216 6.093 -13.812 5.625 C-11.696 3.727 -9.625 3.036 -7 2 C-6.67 1.34 -6.34 0.68 -6 0 C-2.491 -1.245 -2.491 -1.245 0 0 Z " fill="#D7D7D7" transform="translate(137,79)"/>
<path d="M0 0 C0.66 0 1.32 0 2 0 C2.66 0 3.32 0 4 0 C4 0.66 4 1.32 4 2 C4.66 2 5.32 2 6 2 C5.67 2.99 5.34 3.98 5 5 C5.54 7.303 5.54 7.303 6.438 9.75 C10.656 23.179 5.817 36.55 -0.332 48.613 C-1.946 51.592 -3.551 54.411 -5.605 57.109 C-7.071 59.097 -7.57 60.591 -8 63 C-10.475 63.495 -10.475 63.495 -13 64 C-13 64.66 -13 65.32 -13 66 C-18.382 70.447 -23.888 74.151 -31.062 73.484 C-34.26 72.685 -35.843 71.475 -38 69 C-39.575 66.136 -41 63.33 -41 60 C-38.467 60.422 -36.373 60.789 -34.125 62.062 C-30.849 63.508 -28.555 63.415 -25 63 C-22.799 61.839 -20.816 60.547 -18.797 59.094 C-17 58 -17 58 -14 58 C-14 57.34 -14 56.68 -14 56 C-13.34 56 -12.68 56 -12 56 C-11.742 55.471 -11.484 54.943 -11.219 54.398 C-9.139 50.305 -6.877 46.308 -4.656 42.289 C0.712 31.628 1.253 19.425 -2 8 C-2.675 7.807 -3.351 7.613 -4.047 7.414 C-4.939 7.154 -5.831 6.893 -6.75 6.625 C-7.632 6.37 -8.513 6.115 -9.422 5.852 C-11.761 5.079 -13.834 4.164 -16 3 C-11.133 -1.028 -5.959 -0.259 0 0 Z " fill="#F3F3F3" transform="translate(188,88)"/>
<path d="M0 0 C1.245 0.018 2.49 0.036 3.773 0.055 C5.185 0.089 5.185 0.089 6.625 0.125 C7.12 1.115 7.12 1.115 7.625 2.125 C6.635 2.125 5.645 2.125 4.625 2.125 C5.264 2.434 5.904 2.744 6.562 3.062 C9.781 6.281 9.353 9.738 9.625 14.125 C9.738 14.914 9.852 15.703 9.969 16.516 C12.26 32.656 5.465 47.471 -2.375 61.125 C-3.035 61.125 -3.695 61.125 -4.375 61.125 C-4.623 61.868 -4.87 62.61 -5.125 63.375 C-6.48 66.355 -7.885 68.024 -10.375 70.125 C-11.035 70.125 -11.695 70.125 -12.375 70.125 C-12.599 70.728 -12.824 71.332 -13.055 71.953 C-14.778 74.787 -16.513 75.496 -19.5 76.875 C-20.41 77.303 -21.32 77.731 -22.258 78.172 C-22.956 78.486 -23.655 78.801 -24.375 79.125 C-20.266 77.997 -16.299 76.79 -12.375 75.125 C-12.375 75.785 -12.375 76.445 -12.375 77.125 C-17.823 80.908 -21.822 81.246 -28.375 81.125 C-29.035 81.125 -29.695 81.125 -30.375 81.125 C-28.079 82.273 -26.298 82.433 -23.75 82.688 C-22.524 82.813 -22.524 82.813 -21.273 82.941 C-20.647 83.002 -20.02 83.063 -19.375 83.125 C-20.86 84.115 -20.86 84.115 -22.375 85.125 C-18.711 86.773 -15.563 87.461 -11.562 87.75 C-10.099 87.862 -10.099 87.862 -8.605 87.977 C-7.501 88.05 -7.501 88.05 -6.375 88.125 C-6.375 88.455 -6.375 88.785 -6.375 89.125 C-17.101 90.588 -25.64 87.109 -34.375 81.125 C-39.234 76.731 -41.453 71.272 -43.375 65.125 C-43.767 64.032 -44.159 62.939 -44.562 61.812 C-45.375 59.125 -45.375 59.125 -45.375 56.125 C-43.065 58.105 -40.755 60.085 -38.375 62.125 C-39.86 62.62 -39.86 62.62 -41.375 63.125 C-39.103 68.977 -39.103 68.977 -35.688 74.188 C-31.851 75.743 -28.433 75.959 -24.375 75.125 C-21.799 73.745 -19.545 72.207 -17.223 70.438 C-15.375 69.125 -15.375 69.125 -13.375 69.125 C-13.375 68.465 -13.375 67.805 -13.375 67.125 C-12.571 66.877 -11.766 66.63 -10.938 66.375 C-10.092 65.963 -9.246 65.55 -8.375 65.125 C-8.014 63.799 -7.686 62.464 -7.375 61.125 C-6.485 59.515 -5.542 57.933 -4.562 56.375 C2.923 44.169 9.18 29.675 5.949 15.07 C5.413 12.909 4.858 10.752 4.281 8.602 C3.625 6.125 3.625 6.125 3.625 5.125 C3.13 4.63 3.13 4.63 2.625 4.125 C1.635 4.125 0.645 4.125 -0.375 4.125 C-1.231 4.102 -2.087 4.079 -2.969 4.055 C-4.407 4.028 -4.407 4.028 -5.875 4 C-6.834 3.977 -7.793 3.954 -8.781 3.93 C-11.614 3.93 -11.614 3.93 -14.375 6.125 C-13.676 6.402 -12.978 6.679 -12.258 6.965 C-10.893 7.508 -10.893 7.508 -9.5 8.062 C-8.595 8.422 -7.69 8.782 -6.758 9.152 C-2.535 10.876 -2.535 10.876 -1.297 12.805 C2.916 23.408 0.156 35.422 -4.098 45.52 C-6.435 50.286 -9.128 54.919 -12.375 59.125 C-13.035 59.125 -13.695 59.125 -14.375 59.125 C-14.375 59.785 -14.375 60.445 -14.375 61.125 C-15.035 60.795 -15.695 60.465 -16.375 60.125 C-16.045 59.465 -15.715 58.805 -15.375 58.125 C-14.715 58.125 -14.055 58.125 -13.375 58.125 C-13.117 57.596 -12.859 57.068 -12.594 56.523 C-10.514 52.43 -8.252 48.433 -6.031 44.414 C-1.575 35.564 -0.352 25.833 -2.375 16.125 C-2.465 15.439 -2.555 14.753 -2.648 14.047 C-3.202 11.967 -3.202 11.967 -5.203 11.078 C-14.28 8.443 -23.103 8.404 -32.375 10.125 C-32.045 12.435 -31.715 14.745 -31.375 17.125 C-31.705 17.125 -32.035 17.125 -32.375 17.125 C-32.705 18.775 -33.035 20.425 -33.375 22.125 C-33.705 22.125 -34.035 22.125 -34.375 22.125 C-34.375 15.855 -34.375 9.585 -34.375 3.125 C-34.045 3.125 -33.715 3.125 -33.375 3.125 C-33.375 5.105 -33.375 7.085 -33.375 9.125 C-32.571 8.816 -31.766 8.506 -30.938 8.188 C-28.002 7.312 -25.811 6.956 -22.812 6.75 C-18.527 6.356 -16.611 5.011 -13.375 2.125 C-8.798 0.213 -4.934 -0.093 0 0 Z " fill="#232323" transform="translate(188.375,84.875)"/>
<path d="M0 0 C1.816 0.616 3.627 1.243 5.438 1.875 C6.447 2.223 7.456 2.571 8.496 2.93 C11 4 11 4 12 6 C11.34 6 10.68 6 10 6 C10 6.66 10 7.32 10 8 C8.38 9.712 6.704 11.372 5 13 C2.012 15.883 -0.766 18.864 -3.453 22.023 C-4.073 22.734 -4.693 23.444 -5.332 24.176 C-6.616 25.648 -7.879 27.138 -9.121 28.645 C-13.753 33.849 -13.753 33.849 -17.383 34.288 C-21.501 33.869 -25.261 32.809 -29 31 C-28.094 29.701 -27.175 28.411 -26.25 27.125 C-25.74 26.406 -25.229 25.686 -24.703 24.945 C-22.913 22.901 -21.437 22.118 -19 21 C-18.296 19.686 -17.637 18.348 -17 17 C-15.441 14.858 -13.79 12.969 -12 11 C-11.34 11 -10.68 11 -10 11 C-10 10.34 -10 9.68 -10 9 C-8.32 7.344 -8.32 7.344 -6.125 5.5 C-4.01 3.711 -1.96 1.96 0 0 Z " fill="#FEFEFE" transform="translate(263,239)"/>
<path d="M0 0 C11.88 0 23.76 0 36 0 C36 3.63 36 7.26 36 11 C31.454 12.759 27.713 13.237 22.852 13.195 C22.194 13.192 21.537 13.19 20.859 13.187 C18.781 13.176 16.703 13.151 14.625 13.125 C13.207 13.115 11.789 13.106 10.371 13.098 C6.914 13.077 3.457 13.038 0 13 C0 8.71 0 4.42 0 0 Z " fill="#FFFFFF" transform="translate(74,141)"/>
<path d="M0 0 C0.99 0.495 0.99 0.495 2 1 C1.01 1.33 0.02 1.66 -1 2 C-0.505 8.435 -0.505 8.435 0 15 C2.31 15 4.62 15 7 15 C7 15.33 7 15.66 7 16 C4.03 16.33 1.06 16.66 -2 17 C-1.977 17.713 -1.954 18.426 -1.93 19.16 C-1.823 24.82 -1.765 29.747 -4 35 C-6.125 36.438 -6.125 36.438 -8 37 C-8.33 36.01 -8.66 35.02 -9 34 C-9.33 34.33 -9.66 34.66 -10 35 C-11.98 35 -13.96 35 -16 35 C-16 41.27 -16 47.54 -16 54 C-14.02 54 -12.04 54 -10 54 C-10 54.33 -10 54.66 -10 55 C-14.041 55.506 -18.083 56.004 -22.125 56.5 C-23.267 56.643 -24.409 56.786 -25.586 56.934 C-27.249 57.137 -27.249 57.137 -28.945 57.344 C-29.961 57.469 -30.977 57.595 -32.024 57.725 C-35 58 -35 58 -38.316 57.979 C-40.919 57.686 -40.919 57.686 -42 59 C-44 59.041 -46 59.043 -48 59 C-48 58.67 -48 58.34 -48 58 C-46.35 58 -44.7 58 -43 58 C-43 57.34 -43 56.68 -43 56 C-42.355 55.945 -41.709 55.889 -41.044 55.832 C-38.112 55.579 -35.181 55.321 -32.25 55.062 C-31.234 54.975 -30.218 54.888 -29.172 54.799 C-27.702 54.668 -27.702 54.668 -26.203 54.535 C-25.302 54.457 -24.402 54.378 -23.474 54.297 C-20.721 54.019 -20.721 54.019 -17 53 C-17 47.39 -17 41.78 -17 36 C-19.64 36.66 -22.28 37.32 -25 38 C-27.482 38.163 -29.97 38.239 -32.457 38.23 C-33.127 38.23 -33.796 38.23 -34.486 38.229 C-35.885 38.226 -37.284 38.218 -38.683 38.206 C-40.825 38.187 -42.966 38.185 -45.107 38.186 C-55.556 38.148 -55.556 38.148 -59 37 C-59 42.28 -59 47.56 -59 53 C-59.33 53 -59.66 53 -60 53 C-60.832 47.28 -61.12 41.778 -61 36 C-61.66 35.67 -62.32 35.34 -63 35 C-62.34 35 -61.68 35 -61 35 C-61 34.34 -61 33.68 -61 33 C-59.68 33.33 -58.36 33.66 -57 34 C-57 26.41 -57 18.82 -57 11 C-57.99 11 -58.98 11 -60 11 C-60 17.93 -60 24.86 -60 32 C-60.33 32 -60.66 32 -61 32 C-61.33 25.07 -61.66 18.14 -62 11 C-64.31 10.67 -66.62 10.34 -69 10 C-69 16.6 -69 23.2 -69 30 C-69.33 30 -69.66 30 -70 30 C-70 23.07 -70 16.14 -70 9 C-59.769 9 -59.769 9 -56 9.438 C-55.257 9.519 -54.515 9.6 -53.75 9.684 C-52 10 -52 10 -51 11 C-50.859 13.671 -50.958 16.324 -51 19 C-51.33 19 -51.66 19 -52 19 C-52 16.69 -52 14.38 -52 12 C-53.32 11.67 -54.64 11.34 -56 11 C-56 18.59 -56 26.18 -56 34 C-55.34 34.33 -54.68 34.66 -54 35 C-54.495 35.495 -54.495 35.495 -55 36 C-45.43 36 -35.86 36 -26 36 C-38.87 35.505 -38.87 35.505 -52 35 C-52 34.67 -52 34.34 -52 34 C-51.092 33.975 -50.185 33.95 -49.25 33.924 C-45.861 33.829 -42.473 33.729 -39.085 33.628 C-37.622 33.585 -36.16 33.543 -34.697 33.503 C-32.587 33.444 -30.477 33.381 -28.367 33.316 C-26.466 33.261 -26.466 33.261 -24.527 33.205 C-21.28 33.016 -18.193 32.604 -15 32 C-15 28.04 -15 24.08 -15 20 C-14.67 20 -14.34 20 -14 20 C-14 23.96 -14 27.92 -14 32 C-9.707 30.46 -9.707 30.46 -6 28 C-4.997 24.982 -4.892 22.163 -5 19 C-5.99 18.67 -6.98 18.34 -8 18 C-8 17.34 -8 16.68 -8 16 C-7.361 15.876 -6.721 15.752 -6.062 15.625 C-5.382 15.419 -4.701 15.213 -4 15 C-2.259 11.518 -2.594 7.497 -2.379 3.652 C-2.254 2.777 -2.129 1.902 -2 1 C-1.34 0.67 -0.68 0.34 0 0 Z " fill="#000000" transform="translate(125,120)"/>
<path d="M0 0 C1.32 0.33 2.64 0.66 4 1 C4 3.31 4 5.62 4 8 C8.146 7.857 12.292 7.711 16.438 7.562 C17.664 7.52 18.891 7.477 20.154 7.432 C25.599 7.234 31.037 7.024 36.473 6.641 C37.641 6.558 37.641 6.558 38.832 6.474 C40.868 6.322 42.903 6.156 44.938 5.988 C48 6 48 6 51 8 C51.398 10.059 51.398 10.059 51.375 12.438 C51.387 13.611 51.387 13.611 51.398 14.809 C50.909 17.503 50.171 18.37 48 20 C44.812 20.688 44.812 20.688 42 21 C41.505 15.555 41.505 15.555 41 10 C39.672 10.108 39.672 10.108 38.316 10.219 C31.143 10.756 24.008 11.106 16.812 11.125 C16.095 11.13 15.377 11.134 14.637 11.139 C11.179 11.129 8.386 10.846 5 10 C5 14.29 5 18.58 5 23 C19.85 23.495 19.85 23.495 35 24 C35 24.33 35 24.66 35 25 C31.059 25.93 27.389 26.129 23.344 26.133 C22.074 26.134 20.804 26.135 19.496 26.137 C18.177 26.133 16.859 26.129 15.5 26.125 C13.522 26.131 13.522 26.131 11.504 26.137 C10.234 26.135 8.964 26.134 7.656 26.133 C5.921 26.131 5.921 26.131 4.15 26.129 C1.311 26.013 -1.24 25.651 -4 25 C-2.68 24.34 -1.36 23.68 0 23 C0 15.41 0 7.82 0 0 Z " fill="#9A9A9A" transform="translate(69,131)"/>
<path d="M0 0 C4.276 -0.084 7.764 0.153 12 1 C12 8.59 12 16.18 12 24 C10.68 23.67 9.36 23.34 8 23 C8 23.66 8 24.32 8 25 C3.25 26.125 3.25 26.125 1 25 C1.33 25.66 1.66 26.32 2 27 C2.207 29.247 2.367 31.498 2.5 33.75 C2.767 38.237 3.186 42.578 4 47 C5.299 46.856 6.599 46.711 7.938 46.562 C8.668 46.481 9.399 46.4 10.152 46.316 C12.011 46.181 12.011 46.181 13 45 C15.191 45.09 17.378 45.247 19.562 45.438 C20.76 45.539 21.958 45.641 23.191 45.746 C24.118 45.83 25.045 45.914 26 46 C26 46.66 26 47.32 26 48 C18.403 50.229 10.549 50.798 3 48 C1.75 45.473 1.75 45.473 1 43 C0.34 42.67 -0.32 42.34 -1 42 C-0.67 41.34 -0.34 40.68 0 40 C0.072 37.448 0.093 34.925 0.062 32.375 C0.058 31.669 0.053 30.962 0.049 30.234 C0.037 28.49 0.019 26.745 0 25 C-1.32 25 -2.64 25 -4 25 C-3 22 -3 22 -1 20 C-0.63 17.871 -0.63 17.871 -0.586 15.43 C-0.547 14.534 -0.509 13.638 -0.469 12.715 C-0.438 11.778 -0.407 10.841 -0.375 9.875 C-0.336 8.93 -0.298 7.985 -0.258 7.012 C-0.163 4.675 -0.078 2.338 0 0 Z " fill="#0F0F0F" transform="translate(56,130)"/>
<path d="M0 0 C0.062 0.619 0.124 1.237 0.188 1.875 C0.829 4.278 0.829 4.278 3.562 5.25 C4.367 5.498 5.171 5.745 6 6 C4 7 4 7 2.129 6.473 C-0.492 5.891 -1.627 6.382 -4.062 7.438 C-6.725 8.577 -8.027 9 -11 9 C-10.948 10.031 -10.948 10.031 -10.895 11.082 C-10.867 11.983 -10.84 12.884 -10.812 13.812 C-10.76 15.152 -10.76 15.152 -10.707 16.52 C-11.049 19.416 -11.754 20.226 -14 22 C-12.68 22.66 -11.36 23.32 -10 24 C-11.457 24.081 -12.916 24.139 -14.375 24.188 C-15.187 24.222 -15.999 24.257 -16.836 24.293 C-17.55 24.196 -18.264 24.1 -19 24 C-21 21 -21 21 -21 17 C-21.99 16.67 -22.98 16.34 -24 16 C-23.01 15.67 -22.02 15.34 -21 15 C-23.64 15 -26.28 15 -29 15 C-27 13 -27 13 -24.617 12.805 C-23.712 12.828 -22.807 12.851 -21.875 12.875 C-20.965 12.893 -20.055 12.911 -19.117 12.93 C-18.419 12.953 -17.72 12.976 -17 13 C-18.044 11.726 -18.044 11.726 -20.375 11.938 C-21.241 11.958 -22.108 11.979 -23 12 C-23.99 12 -24.98 12 -26 12 C-28.097 13.084 -28.097 13.084 -30.188 14.5 C-30.903 14.964 -31.618 15.428 -32.355 15.906 C-32.898 16.267 -33.441 16.628 -34 17 C-33.34 16.67 -32.68 16.34 -32 16 C-30 15.96 -28 15.957 -26 16 C-26 16.33 -26 16.66 -26 17 C-27.65 17 -29.3 17 -31 17 C-31 17.66 -31 18.32 -31 19 C-28.69 19.33 -26.38 19.66 -24 20 C-23.67 21.32 -23.34 22.64 -23 24 C-28.28 24 -33.56 24 -39 24 C-39.33 23.34 -39.66 22.68 -40 22 C-40.738 26.324 -41.392 30.655 -42 35 C-42.66 35 -43.32 35 -44 35 C-44.734 28.245 -42.276 23.815 -39 18 C-38.34 18 -37.68 18 -37 18 C-37 17.34 -37 16.68 -37 16 C-34.518 12.667 -30.873 11.46 -27.125 10 C-26.465 9.739 -25.804 9.479 -25.124 9.21 C-17.692 6.369 -10.001 4 -2 4 C-1.34 2.68 -0.68 1.36 0 0 Z " fill="#6A6A6A" transform="translate(120,84)"/>
<path d="M0 0 C0.516 0.248 1.031 0.495 1.562 0.75 C1.562 1.41 1.562 2.07 1.562 2.75 C4.037 3.245 4.037 3.245 6.562 3.75 C4.885 10.818 4.885 10.818 1.277 13.359 C-2.547 15.275 -6.253 16.828 -10.438 17.75 C-10.767 16.43 -11.097 15.11 -11.438 13.75 C-11.767 13.75 -12.097 13.75 -12.438 13.75 C-11.778 15.73 -11.118 17.71 -10.438 19.75 C-11.097 19.75 -11.757 19.75 -12.438 19.75 C-13.757 16.78 -15.077 13.81 -16.438 10.75 C-16.768 11.74 -17.097 12.73 -17.438 13.75 C-19.5 15.437 -19.5 15.437 -21.438 16.75 C-18.816 16.75 -16.928 16.437 -14.438 15.75 C-14.438 16.41 -14.438 17.07 -14.438 17.75 C-16.417 18.41 -18.398 19.07 -20.438 19.75 C-20.107 21.4 -19.778 23.05 -19.438 24.75 C-20.097 24.75 -20.757 24.75 -21.438 24.75 C-21.438 25.41 -21.438 26.07 -21.438 26.75 C-22.757 26.09 -24.078 25.43 -25.438 24.75 C-25.438 24.09 -25.438 23.43 -25.438 22.75 C-24.778 22.42 -24.118 22.09 -23.438 21.75 C-24.097 20.76 -24.757 19.77 -25.438 18.75 C-25.477 16.75 -25.481 14.75 -25.438 12.75 C-25.767 12.42 -26.097 12.09 -26.438 11.75 C-26.767 12.74 -27.097 13.73 -27.438 14.75 C-27.767 13.76 -28.097 12.77 -28.438 11.75 C-23.18 7.939 -18.351 6.02 -12.055 4.512 C-9.546 3.782 -7.7 2.883 -5.5 1.5 C-2.438 -0.25 -2.438 -0.25 0 0 Z " fill="#E3E3E3" transform="translate(150.4375,53.25)"/>
<path d="M0 0 C-0.33 0.99 -0.66 1.98 -1 3 C2.3 2.67 5.6 2.34 9 2 C11.366 5.549 11.109 6.576 10.625 10.688 C10.459 12.178 10.459 12.178 10.289 13.699 C10.146 14.838 10.146 14.838 10 16 C9.67 16 9.34 16 9 16 C9 13.03 9 10.06 9 7 C8.01 7.66 7.02 8.32 6 9 C5.598 11.137 5.598 11.137 5.75 13.5 C5.765 14.294 5.781 15.088 5.797 15.906 C5.879 18.057 5.879 18.057 7 20 C1.72 20 -3.56 20 -9 20 C-9 13.73 -9 7.46 -9 1 C-2 -1 -2 -1 0 0 Z " fill="#000000" transform="translate(118,154)"/>
<path d="M0 0 C2.625 -0.188 2.625 -0.188 5 0 C5.66 1.32 6.32 2.64 7 4 C7.66 2.68 8.32 1.36 9 0 C10.98 0 12.96 0 15 0 C15.33 1.65 15.66 3.3 16 5 C16.66 5 17.32 5 18 5 C18.33 3.35 18.66 1.7 19 0 C21.375 -0.188 21.375 -0.188 24 0 C26.712 4.068 26.307 6.165 26 11 C24 13 24 13 21.375 13.125 C20.591 13.084 19.808 13.043 19 13 C18.67 11.35 18.34 9.7 18 8 C17.34 8 16.68 8 16 8 C15.67 9.65 15.34 11.3 15 13 C13.02 13 11.04 13 9 13 C8.34 11.68 7.68 10.36 7 9 C6.34 10.32 5.68 11.64 5 13 C2.625 13.188 2.625 13.188 0 13 C-2.458 9.313 -2.311 7.357 -2 3 C-1.34 2.01 -0.68 1.02 0 0 Z " fill="#000000" transform="translate(252,291)"/>
<path d="M0 0 C1.245 0.018 2.49 0.036 3.773 0.055 C5.185 0.089 5.185 0.089 6.625 0.125 C7.12 1.115 7.12 1.115 7.625 2.125 C6.635 2.125 5.645 2.125 4.625 2.125 C5.264 2.434 5.904 2.744 6.562 3.062 C9.781 6.281 9.353 9.739 9.625 14.125 C9.738 14.937 9.852 15.749 9.969 16.586 C10.833 22.815 10.189 28.05 8.625 34.125 C7.635 34.455 6.645 34.785 5.625 35.125 C5.732 34.037 5.839 32.949 5.949 31.828 C6.74 22.618 6.525 15.037 3.625 6.125 C3.625 5.795 3.625 5.465 3.625 5.125 C3.13 4.63 3.13 4.63 2.625 4.125 C1.635 4.125 0.645 4.125 -0.375 4.125 C-1.231 4.102 -2.087 4.079 -2.969 4.055 C-4.407 4.028 -4.407 4.028 -5.875 4 C-6.834 3.977 -7.793 3.954 -8.781 3.93 C-11.614 3.93 -11.614 3.93 -14.375 6.125 C-13.676 6.402 -12.978 6.679 -12.258 6.965 C-11.348 7.327 -10.438 7.689 -9.5 8.062 C-8.595 8.422 -7.69 8.782 -6.758 9.152 C-2.535 10.876 -2.535 10.876 -1.297 12.805 C2.916 23.408 0.156 35.422 -4.098 45.52 C-6.435 50.286 -9.128 54.919 -12.375 59.125 C-13.035 59.125 -13.695 59.125 -14.375 59.125 C-14.375 59.785 -14.375 60.445 -14.375 61.125 C-15.035 60.795 -15.695 60.465 -16.375 60.125 C-16.045 59.465 -15.715 58.805 -15.375 58.125 C-14.715 58.125 -14.055 58.125 -13.375 58.125 C-13.117 57.596 -12.859 57.068 -12.594 56.523 C-10.514 52.43 -8.252 48.433 -6.031 44.414 C-1.575 35.564 -0.352 25.833 -2.375 16.125 C-2.465 15.439 -2.555 14.753 -2.648 14.047 C-3.202 11.967 -3.202 11.967 -5.203 11.078 C-14.28 8.443 -23.103 8.404 -32.375 10.125 C-32.045 12.435 -31.715 14.745 -31.375 17.125 C-31.705 17.125 -32.035 17.125 -32.375 17.125 C-32.705 18.775 -33.035 20.425 -33.375 22.125 C-33.705 22.125 -34.035 22.125 -34.375 22.125 C-34.375 15.855 -34.375 9.585 -34.375 3.125 C-34.045 3.125 -33.715 3.125 -33.375 3.125 C-33.375 5.105 -33.375 7.085 -33.375 9.125 C-32.571 8.816 -31.766 8.506 -30.938 8.188 C-28.002 7.312 -25.811 6.956 -22.812 6.75 C-18.527 6.356 -16.611 5.011 -13.375 2.125 C-8.798 0.213 -4.934 -0.093 0 0 Z " fill="#000000" transform="translate(188.375,84.875)"/>
<path d="M0 0 C1.149 0.007 1.149 0.007 2.322 0.014 C3.093 0.016 3.864 0.018 4.658 0.02 C9.945 0.06 15.084 0.377 20.322 1.139 C20.322 6.282 20.322 6.282 18.322 9.139 C16.502 9.748 16.502 9.748 14.197 9.889 C13.32 9.944 12.444 10 11.541 10.057 C5.133 10.22 -1.269 10.21 -7.678 10.139 C-7.537 8.659 -7.39 7.18 -7.24 5.701 C-7.159 4.877 -7.078 4.054 -6.994 3.205 C-6.348 -1.014 -3.73 0.01 0 0 Z " fill="#FFFFFF" transform="translate(86.677978515625,108.861328125)"/>
<path d="M0 0 C3.408 1.929 6.741 3.828 10 6 C10 6.66 10 7.32 10 8 C10.66 7.67 11.32 7.34 12 7 C11.505 6.546 11.01 6.093 10.5 5.625 C9 4 9 4 9 2 C8.34 1.67 7.68 1.34 7 1 C10 0 10 0 12.375 1.125 C15.259 3.185 17.634 5.363 20 8 C20 8.66 20 9.32 20 10 C20.66 10 21.32 10 22 10 C22.464 11.207 22.464 11.207 22.938 12.438 C23.763 14.891 23.763 14.891 25 16 C25.66 15.67 26.32 15.34 27 15 C27 15.66 27 16.32 27 17 C27.66 17 28.32 17 29 17 C28.67 17.66 28.34 18.32 28 19 C28.33 19.33 28.66 19.66 29 20 C29 20.66 29 21.32 29 22 C29.66 22 30.32 22 31 22 C31.33 22.33 31.66 22.66 32 23 C32.66 22.67 33.32 22.34 34 22 C34 22.66 34 23.32 34 24 C34.66 24 35.32 24 36 24 C35.67 24.66 35.34 25.32 35 26 C35.33 26.33 35.66 26.66 36 27 C36.33 27.33 36.66 27.66 37 28 C37.99 28 38.98 28 40 28 C41.901 29.561 41.901 29.561 44.012 31.719 C45.148 32.869 45.148 32.869 46.307 34.043 C47.092 34.854 47.878 35.665 48.688 36.5 C49.883 37.716 49.883 37.716 51.104 38.957 C53.076 40.965 55.041 42.979 57 45 C56.34 45.66 55.68 46.32 55 47 C55.99 47.495 55.99 47.495 57 48 C57 48.66 57 49.32 57 50 C57.66 50 58.32 50 59 50 C58.505 50.99 58.505 50.99 58 52 C57.01 51.505 57.01 51.505 56 51 C56 50.34 56 49.68 56 49 C55.01 48.67 54.02 48.34 53 48 C53 47.34 53 46.68 53 46 C52.34 46 51.68 46 51 46 C51 45.34 51 44.68 51 44 C50.34 44 49.68 44 49 44 C49 43.34 49 42.68 49 42 C48.01 41.67 47.02 41.34 46 41 C46 40.34 46 39.68 46 39 C45.34 39 44.68 39 44 39 C44 38.34 44 37.68 44 37 C43.34 37 42.68 37 42 37 C42 36.34 42 35.68 42 35 C41.01 34.67 40.02 34.34 39 34 C39 33.34 39 32.68 39 32 C38.34 32 37.68 32 37 32 C37 31.34 37 30.68 37 30 C36.34 30 35.68 30 35 30 C35 29.34 35 28.68 35 28 C34.34 28 33.68 28 33 28 C31.375 26.625 31.375 26.625 30 25 C30 24.34 30 23.68 30 23 C29.34 23 28.68 23 28 23 C28 22.34 28 21.68 28 21 C27.34 21 26.68 21 26 21 C24.375 19.625 24.375 19.625 23 18 C23 17.34 23 16.68 23 16 C22.34 16 21.68 16 21 16 C21 15.34 21 14.68 21 14 C20.34 14 19.68 14 19 14 C19.33 13.34 19.66 12.68 20 12 C19.67 11.67 19.34 11.34 19 11 C18.67 10.67 18.34 10.34 18 10 C17.01 10.495 17.01 10.495 16 11 C16 10.34 16 9.68 16 9 C13.69 9 11.38 9 9 9 C9 8.34 9 7.68 9 7 C8.443 6.732 7.886 6.464 7.312 6.188 C4.788 4.891 2.363 3.575 0 2 C0 1.34 0 0.68 0 0 Z " fill="#060606" transform="translate(159,14)"/>
<path d="M0 0 C3.904 3.372 4.9 6.724 5.301 11.82 C5.32 13.255 5.323 14.69 5.312 16.125 C5.305 17.258 5.305 17.258 5.298 18.415 C4.966 34.339 -2.949 51.158 -13.625 62.883 C-16 65 -16 65 -18 65 C-18 65.66 -18 66.32 -18 67 C-23.119 71.477 -28.334 72.83 -35 73 C-32.395 71.263 -29.949 70.005 -27.125 68.688 C-21.391 65.833 -17.944 62.404 -14.312 57.188 C-13.549 56.136 -12.786 55.084 -12 54 C-11.34 54 -10.68 54 -10 54 C-9.773 53.216 -9.546 52.433 -9.312 51.625 C-8.226 48.625 -7.023 46.008 -5.562 43.188 C0.262 31.693 3.033 19.84 1 7 C0.812 5.625 0.625 4.25 0.438 2.875 C0.293 1.926 0.149 0.978 0 0 Z " fill="#FFFFFF" transform="translate(196,92)"/>
<path d="M0 0 C1.68 1.188 1.68 1.188 2.422 3.312 C2.507 3.931 2.592 4.55 2.68 5.188 C0.37 4.528 -1.94 3.867 -4.32 3.188 C-4.32 2.528 -4.32 1.867 -4.32 1.188 C-7.79 1.79 -10.829 2.696 -14.07 4.062 C-17.394 5.435 -20.704 6.668 -24.133 7.75 C-27.507 8.839 -30.366 10.186 -33.32 12.188 C-32.99 12.188 -32.66 12.188 -32.32 12.188 C-30.652 12.513 -28.985 12.846 -27.32 13.188 C-28.31 13.517 -29.3 13.847 -30.32 14.188 C-30.522 17.813 -30.178 20.053 -28.32 23.188 C-29.97 23.517 -31.62 23.847 -33.32 24.188 C-33.98 21.547 -34.64 18.907 -35.32 16.188 C-38.62 16.847 -41.92 17.507 -45.32 18.188 C-45.32 17.528 -45.32 16.868 -45.32 16.188 C-44.33 15.858 -43.34 15.528 -42.32 15.188 C-41.99 12.218 -41.66 9.248 -41.32 6.188 C-37.32 7.188 -37.32 7.188 -35.414 7.898 C-32.352 8.321 -30.557 7.173 -27.82 5.812 C-24.632 4.244 -21.763 3.016 -18.32 2.188 C-17.092 1.654 -17.092 1.654 -15.84 1.109 C-9.863 -1.478 -6.166 -2.282 0 0 Z " fill="#1A1A1A" transform="translate(156.3203125,52.8125)"/>
<path d="M0 0 C0.99 0.66 1.98 1.32 3 2 C3.33 1.34 3.66 0.68 4 0 C4.391 4.459 3.218 6.978 1 10.812 C0.443 11.788 -0.114 12.764 -0.688 13.77 C-1.121 14.506 -1.554 15.242 -2 16 C-2.66 16 -3.32 16 -4 16 C-4 16.66 -4 17.32 -4 18 C-5.65 18.33 -7.3 18.66 -9 19 C-8.34 15.7 -7.68 12.4 -7 9 C-7.66 9 -8.32 9 -9 9 C-8.67 7.35 -8.34 5.7 -8 4 C-8.99 4.66 -9.98 5.32 -11 6 C-10.67 7.32 -10.34 8.64 -10 10 C-11.237 9.794 -12.475 9.588 -13.75 9.375 C-16.339 9.059 -17.845 8.955 -20.375 9.688 C-22.309 11.249 -23.084 12.709 -24 15 C-24 12 -24 12 -22.25 9.75 C-16.371 4.258 -8.3 -1.589 0 0 Z " fill="#292929" transform="translate(132,102)"/>
<path d="M0 0 C0 0.66 0 1.32 0 2 C-0.967 2.147 -1.934 2.294 -2.93 2.445 C-11.388 3.858 -17.931 5.86 -25 11 C-24.34 10.67 -23.68 10.34 -23 10 C-21 9.96 -19 9.957 -17 10 C-17 10.33 -17 10.66 -17 11 C-18.65 11 -20.3 11 -22 11 C-22 11.66 -22 12.32 -22 13 C-19.69 13.33 -17.38 13.66 -15 14 C-14.67 15.32 -14.34 16.64 -14 18 C-19.28 18 -24.56 18 -30 18 C-30.33 17.34 -30.66 16.68 -31 16 C-31.738 20.324 -32.392 24.655 -33 29 C-33.66 29 -34.32 29 -35 29 C-35.734 22.245 -33.276 17.815 -30 12 C-29.34 12 -28.68 12 -28 12 C-28 11.34 -28 10.68 -28 10 C-25.453 6.469 -21.418 5.36 -17.5 3.875 C-16.823 3.611 -16.146 3.346 -15.449 3.074 C-9.954 0.939 -5.92 -0.112 0 0 Z " fill="#FFFFFF" transform="translate(111,90)"/>
<path d="M0 0 C0.99 0 1.98 0 3 0 C3 0.66 3 1.32 3 2 C3.66 2 4.32 2 5 2 C5 2.66 5 3.32 5 4 C5.66 4 6.32 4 7 4 C8.625 5.375 8.625 5.375 10 7 C10 7.66 10 8.32 10 9 C10.66 9 11.32 9 12 9 C12 9.66 12 10.32 12 11 C12.66 11 13.32 11 14 11 C16.625 13.375 16.625 13.375 19 16 C19 16.66 19 17.32 19 18 C19.66 18 20.32 18 21 18 C23.625 20.375 23.625 20.375 26 23 C26 23.66 26 24.32 26 25 C26.66 25 27.32 25 28 25 C30.625 27.375 30.625 27.375 33 30 C33 30.66 33 31.32 33 32 C33.596 32.27 34.191 32.541 34.805 32.819 C36.982 33.99 38.385 35.143 40.116 36.889 C40.697 37.47 41.277 38.05 41.875 38.648 C42.488 39.272 43.102 39.896 43.734 40.539 C44.372 41.18 45.01 41.821 45.668 42.481 C47.7 44.524 49.725 46.575 51.75 48.625 C53.128 50.013 54.507 51.402 55.887 52.789 C59.263 56.187 62.633 59.592 66 63 C64.515 63.495 64.515 63.495 63 64 C62.67 63.01 62.34 62.02 62 61 C60.685 60.298 59.349 59.635 58 59 C56.25 57.5 56.25 57.5 55 56 C55 55.34 55 54.68 55 54 C54.402 53.732 53.804 53.464 53.188 53.188 C51.002 52.001 49.587 50.904 48 49 C48 48.34 48 47.68 48 47 C47.402 46.732 46.804 46.464 46.188 46.188 C44.002 45.001 42.587 43.904 41 42 C41 41.34 41 40.68 41 40 C40.402 39.732 39.804 39.464 39.188 39.188 C37.002 38.001 35.587 36.904 34 35 C34 34.34 34 33.68 34 33 C33.434 32.758 32.868 32.517 32.284 32.268 C29.548 30.749 27.669 28.928 25.453 26.719 C24.187 25.456 24.187 25.456 22.895 24.168 C22.022 23.288 21.149 22.407 20.25 21.5 C19.362 20.62 18.474 19.739 17.559 18.832 C16.719 17.99 15.88 17.149 15.016 16.281 C14.245 15.508 13.475 14.736 12.681 13.939 C11 12 11 12 11 10 C10.402 9.732 9.804 9.464 9.188 9.188 C7.002 8.001 5.587 6.904 4 5 C4 4.34 4 3.68 4 3 C2.68 2.34 1.36 1.68 0 1 C0 0.67 0 0.34 0 0 Z " fill="#FFFFFF" transform="translate(247,93)"/>
<path d="M0 0 C-0.33 3.3 -0.66 6.6 -1 10 C-4.23 9.718 -7.459 9.424 -10.688 9.125 C-11.6 9.046 -12.512 8.968 -13.451 8.887 C-17.95 8.461 -21.897 8.056 -26 6 C-25.09 4.078 -25.09 4.078 -23 2 C-19.892 1.181 -16.762 0.979 -13.562 0.75 C-12.274 0.634 -12.274 0.634 -10.959 0.516 C-7.282 0.196 -3.696 0 0 0 Z " fill="#FFFFFF" transform="translate(76,109)"/>
<path d="M0 0 C0.66 0.33 1.32 0.66 2 1 C1.34 2.65 0.68 4.3 0 6 C0.66 6 1.32 6 2 6 C1.67 8.31 1.34 10.62 1 13 C-0.65 13 -2.3 13 -4 13 C-3.01 12.01 -2.02 11.02 -1 10 C-6.464 8.003 -6.464 8.003 -12 9 C-11.814 9.619 -11.629 10.237 -11.438 10.875 C-11 13 -11 13 -12 15 C-15.885 16.295 -19.559 16.123 -23.605 16.098 C-24.445 16.096 -25.284 16.095 -26.149 16.093 C-28.828 16.088 -31.508 16.075 -34.188 16.062 C-36.005 16.057 -37.822 16.053 -39.639 16.049 C-44.092 16.038 -48.546 16.021 -53 16 C-52.67 15.01 -52.34 14.02 -52 13 C-49.69 13.33 -47.38 13.66 -45 14 C-45.041 12.886 -45.082 11.773 -45.125 10.625 C-45 7 -45 7 -43 5 C-43.33 7.97 -43.66 10.94 -44 14 C-42.925 13.955 -42.925 13.955 -41.829 13.908 C-38.594 13.772 -35.36 13.636 -32.125 13.5 C-30.433 13.428 -30.433 13.428 -28.707 13.355 C-27.631 13.31 -26.554 13.265 -25.445 13.219 C-23.953 13.156 -23.953 13.156 -22.43 13.092 C-20.954 13.036 -19.477 13 -18 13 C-16.576 11.675 -15.185 10.315 -13.812 8.938 C-9.635 5.091 -9.635 5.091 -6.852 4.691 C-4.938 5 -4.938 5 -2 6 C-2 5.34 -2 4.68 -2 4 C-2.99 3.67 -3.98 3.34 -5 3 C-2.625 1.438 -2.625 1.438 0 0 Z " fill="#000000" transform="translate(123,105)"/>
<path d="M0 0 C-0.115 2.209 -0.242 4.417 -0.375 6.625 C-0.445 7.855 -0.514 9.085 -0.586 10.352 C-0.981 13.837 -1.763 16.73 -3 20 C-4.98 20 -6.96 20 -9 20 C-9 13.73 -9 7.46 -9 1 C-2 -1 -2 -1 0 0 Z " fill="#FFFFFF" transform="translate(118,154)"/>
<path d="M0 0 C2.31 0.33 4.62 0.66 7 1 C7.33 6.61 7.66 12.22 8 18 C9.32 18.33 10.64 18.66 12 19 C11.67 19.99 11.34 20.98 11 22 C8.36 22 5.72 22 3 22 C1.11 17.129 0.599 12.776 0.375 7.625 C0.336 6.889 0.298 6.153 0.258 5.395 C0.164 3.597 0.081 1.798 0 0 Z " fill="#F8F8F8" transform="translate(57,155)"/>
<path d="M0 0 C0.66 0.33 1.32 0.66 2 1 C1.01 1.33 0.02 1.66 -1 2 C-0.67 6.29 -0.34 10.58 0 15 C2.31 15 4.62 15 7 15 C7 15.33 7 15.66 7 16 C4.03 16.33 1.06 16.66 -2 17 C-1.977 17.713 -1.954 18.426 -1.93 19.16 C-1.823 24.82 -1.765 29.747 -4 35 C-6.125 36.438 -6.125 36.438 -8 37 C-8.495 35.515 -8.495 35.515 -9 34 C-10.485 34.495 -10.485 34.495 -12 35 C-14.687 34.062 -14.687 34.062 -17 33 C-16.01 32.505 -16.01 32.505 -15 32 C-15 28.04 -15 24.08 -15 20 C-14.67 20 -14.34 20 -14 20 C-14 23.96 -14 27.92 -14 32 C-9.707 30.46 -9.707 30.46 -6 28 C-4.997 24.982 -4.892 22.163 -5 19 C-5.99 18.67 -6.98 18.34 -8 18 C-8 17.34 -8 16.68 -8 16 C-7.361 15.876 -6.721 15.752 -6.062 15.625 C-5.382 15.419 -4.701 15.213 -4 15 C-2.259 11.518 -2.594 7.497 -2.379 3.652 C-2.254 2.777 -2.129 1.902 -2 1 C-1.34 0.67 -0.68 0.34 0 0 Z M-19 33 C-18.34 33 -17.68 33 -17 33 C-17 33.66 -17 34.32 -17 35 C-17.99 34.67 -18.98 34.34 -20 34 C-19.67 33.67 -19.34 33.34 -19 33 Z " fill="#121212" transform="translate(125,120)"/>
<path d="M0 0 C2.64 1.98 5.28 3.96 8 6 C7.01 6.33 6.02 6.66 5 7 C7.493 14.25 7.493 14.25 13 19 C15.681 19.51 18.271 19.773 21 20 C21.33 20.99 21.66 21.98 22 23 C26.109 21.872 30.076 20.665 34 19 C34 19.66 34 20.32 34 21 C28.552 24.783 24.553 25.121 18 25 C17.34 25 16.68 25 16 25 C18.296 26.148 20.077 26.308 22.625 26.562 C23.442 26.646 24.26 26.73 25.102 26.816 C26.041 26.907 26.041 26.907 27 27 C26.01 27.66 25.02 28.32 24 29 C27.664 30.648 30.812 31.336 34.812 31.625 C35.788 31.7 36.764 31.775 37.77 31.852 C38.506 31.901 39.242 31.95 40 32 C40 32.33 40 32.66 40 33 C29.274 34.463 20.735 30.984 12 25 C7.147 20.611 4.909 15.147 3 9 C2.443 7.36 2.443 7.36 1.875 5.688 C1.586 4.801 1.298 3.914 1 3 C0.67 2.01 0.34 1.02 0 0 Z " fill="#040404" transform="translate(142,141)"/>
<path d="M0 0 C2.31 0 4.62 0 7 0 C8 1 8 1 8.114 3.133 C8.108 4.049 8.103 4.966 8.098 5.91 C8.094 6.9 8.091 7.889 8.088 8.908 C8.08 9.949 8.071 10.99 8.062 12.062 C8.058 13.107 8.053 14.152 8.049 15.229 C8.037 17.819 8.021 20.41 8 23 C5 23 5 23 0 22 C0 14.74 0 7.48 0 0 Z " fill="#FFFFFF" transform="translate(56,130)"/>
<path d="M0 0 C0.081 1.437 0.139 2.874 0.188 4.312 C0.24 5.513 0.24 5.513 0.293 6.738 C0 9 0 9 -1.312 10.75 C-3.723 12.536 -6.065 12.674 -9 13 C-9.33 9.37 -9.66 5.74 -10 2 C-12.64 1.67 -15.28 1.34 -18 1 C-18 0.34 -18 -0.32 -18 -1 C-16.272 -1.197 -14.542 -1.382 -12.812 -1.562 C-11.85 -1.667 -10.887 -1.771 -9.895 -1.879 C-6.244 -2.032 -3.276 -1.638 0 0 Z " fill="#8E8E8E" transform="translate(120,139)"/>
<path d="M0 0 C3.96 0 7.92 0 12 0 C12.33 0.66 12.66 1.32 13 2 C12.01 2 11.02 2 10 2 C10.639 2.309 11.279 2.619 11.938 2.938 C15.156 6.156 14.728 9.614 15 14 C15.113 14.812 15.227 15.624 15.344 16.461 C16.208 22.69 15.564 27.925 14 34 C12.515 34.495 12.515 34.495 11 35 C11.107 33.912 11.214 32.824 11.324 31.703 C12.115 22.493 11.9 14.912 9 6 C9 5.67 9 5.34 9 5 C8.67 4.67 8.34 4.34 8 4 C7.01 4 6.02 4 5 4 C3.318 3.374 1.648 2.712 0 2 C0 1.34 0 0.68 0 0 Z " fill="#141414" transform="translate(183,85)"/>
<path d="M0 0 C-0.33 3.3 -0.66 6.6 -1 10 C-2.98 9.34 -4.96 8.68 -7 8 C-6.34 8.412 -5.68 8.825 -5 9.25 C-4.34 9.828 -3.68 10.405 -3 11 C-3 12.32 -3 13.64 -3 15 C-7.827 13.587 -11.716 11.57 -16 9 C-13.297 5.196 -11.379 3.539 -7 2 C-6.67 1.34 -6.34 0.68 -6 0 C-2.491 -1.245 -2.491 -1.245 0 0 Z " fill="#FFFFFF" transform="translate(137,79)"/>
<path d="M0 0 C3.96 0.33 7.92 0.66 12 1 C12 1.99 12 2.98 12 4 C11.056 4.037 10.113 4.075 9.141 4.113 C-3.271 4.508 -3.271 4.508 -15 8 C-16.22 10.454 -16.22 10.454 -17 13 C-19.375 14.875 -19.375 14.875 -22 16 C-24.312 15.688 -24.312 15.688 -26 15 C-21.375 12 -21.375 12 -18 12 C-18.33 9.69 -18.66 7.38 -19 5 C-19.99 4.67 -20.98 4.34 -22 4 C-19.509 3.313 -17.621 3 -15 3 C-13.948 2.835 -12.896 2.67 -11.812 2.5 C-7.791 1.973 -4.049 1.929 0 2 C0 1.34 0 0.68 0 0 Z " fill="#000000" transform="translate(38,163)"/>
<path d="M0 0 C2 5.625 2 5.625 2 9 C2.66 9.66 3.32 10.32 4 11 C-0.455 12.485 -0.455 12.485 -5 14 C-8 6.125 -8 6.125 -8 5 C-8.66 4.34 -9.32 3.68 -10 3 C-6.27 0.966 -4.331 0 0 0 Z " fill="#DBDBDB" transform="translate(121,69)"/>
<path d="M0 0 C1.98 0 3.96 0 6 0 C6.838 4.655 7.016 8.371 6 13 C3.125 13.125 3.125 13.125 0 13 C-0.66 12.34 -1.32 11.68 -2 11 C-2 9.68 -2 8.36 -2 7 C-1.34 7 -0.68 7 0 7 C-0.278 5.824 -0.278 5.824 -0.562 4.625 C-1 2 -1 2 0 0 Z " fill="#3C3C3C" transform="translate(310,291)"/>
<path d="M0 0 C1.32 0.33 2.64 0.66 4 1 C4 8.26 4 15.52 4 23 C2.68 23 1.36 23 0 23 C0 15.41 0 7.82 0 0 Z " fill="#FFFFFF" transform="translate(69,131)"/>
<path d="M0 0 C0.125 3.375 0.125 3.375 0 7 C-0.66 7.66 -1.32 8.32 -2 9 C-0.68 9.66 0.64 10.32 2 11 C0.543 11.081 -0.916 11.139 -2.375 11.188 C-3.187 11.222 -3.999 11.257 -4.836 11.293 C-5.55 11.196 -6.264 11.1 -7 11 C-9 8 -9 8 -9 4 C-9.99 3.67 -10.98 3.34 -12 3 C-10.753 2.492 -9.503 1.994 -8.25 1.5 C-7.554 1.222 -6.858 0.943 -6.141 0.656 C-4 0 -4 0 0 0 Z " fill="#8A8A8A" transform="translate(108,97)"/>
<path d="M0 0 C0 3.539 -0.837 4.719 -2.688 7.688 C-3.23 8.565 -3.773 9.443 -4.332 10.348 C-4.882 11.223 -5.433 12.098 -6 13 C-6.499 13.803 -6.998 14.606 -7.512 15.434 C-8.668 17.293 -9.833 19.147 -11 21 C-11.33 20.34 -11.66 19.68 -12 19 C-11.066 16.969 -10.068 14.965 -9 13 C-9.66 13 -10.32 13 -11 13 C-11 12.34 -11 11.68 -11 11 C-11.66 11 -12.32 11 -13 11 C-13.33 9.35 -13.66 7.7 -14 6 C-11.212 4.967 -10.132 4.955 -7.25 5.938 C-6.507 6.288 -5.765 6.639 -5 7 C-3.35 4.69 -1.7 2.38 0 0 Z " fill="#000000" transform="translate(300,177)"/>
<path d="M0 0 C0 0.33 0 0.66 0 1 C-1.65 1 -3.3 1 -5 1 C-5 1.66 -5 2.32 -5 3 C-2.69 3.33 -0.38 3.66 2 4 C2.33 5.32 2.66 6.64 3 8 C-2.28 8 -7.56 8 -13 8 C-12 3 -12 3 -9.312 1.188 C-5.945 -0.02 -3.543 -0.253 0 0 Z " fill="#858585" transform="translate(94,100)"/>
<path d="M0 0 C2.169 0.506 4 1 6 2 C6 2.66 6 3.32 6 4 C7.32 4.33 8.64 4.66 10 5 C8.55 9.11 6.489 12.433 4 16 C0.04 14.35 -3.92 12.7 -8 11 C-7.34 10.67 -6.68 10.34 -6 10 C-5.67 9.34 -5.34 8.68 -5 8 C-2.03 8.99 0.94 9.98 4 11 C4.33 9.68 4.66 8.36 5 7 C5.66 7 6.32 7 7 7 C7 6.34 7 5.68 7 5 C6.34 5 5.68 5 5 5 C5 4.34 5 3.68 5 3 C2.525 2.01 2.525 2.01 0 1 C0 0.67 0 0.34 0 0 Z " fill="#1E1E1E" transform="translate(272,229)"/>
<path d="M0 0 C1.98 0.66 3.96 1.32 6 2 C6.33 1.34 6.66 0.68 7 0 C7.66 0 8.32 0 9 0 C8.67 2.31 8.34 4.62 8 7 C7.319 6.835 6.639 6.67 5.938 6.5 C0.678 5.605 -2.717 5.254 -7.438 8 C-8.283 8.66 -9.129 9.32 -10 10 C-12 9 -12 9 -15 7 C-14.34 7 -13.68 7 -13 7 C-13.66 5.68 -14.32 4.36 -15 3 C-12.69 3.66 -10.38 4.32 -8 5 C-8 3.68 -8 2.36 -8 1 C-7.34 1 -6.68 1 -6 1 C-5.67 1.99 -5.34 2.98 -5 4 C-4.34 3.67 -3.68 3.34 -3 3 C-1.334 2.96 0.334 2.956 2 3 C1.34 2.67 0.68 2.34 0 2 C0 1.34 0 0.68 0 0 Z " fill="#000000" transform="translate(129,97)"/>
<path d="M0 0 C0.33 1.32 0.66 2.64 1 4 C0.01 3.67 -0.98 3.34 -2 3 C-2 2.34 -2 1.68 -2 1 C-3.32 1.33 -4.64 1.66 -6 2 C-6 2.66 -6 3.32 -6 4 C-2.535 5.485 -2.535 5.485 1 7 C0.125 11.875 0.125 11.875 -1 13 C-6.364 13.466 -6.364 13.466 -8.875 11.625 C-10 10 -10 10 -10 8 C-9.134 8.495 -9.134 8.495 -8.25 9 C-5.801 10.271 -5.801 10.271 -2 10 C-1.67 9.34 -1.34 8.68 -1 8 C-3.31 7.34 -5.62 6.68 -8 6 C-9.125 2.25 -9.125 2.25 -8 0 C-4.71 -1.097 -3.287 -0.8 0 0 Z " fill="#000000" transform="translate(243,291)"/>
<path d="M0 0 C0.99 0 1.98 0 3 0 C3 7.59 3 15.18 3 23 C2.01 22.67 1.02 22.34 0 22 C0 14.74 0 7.48 0 0 Z " fill="#FFFFFF" transform="translate(65,131)"/>
<path d="M0 0 C-1.65 1.32 -3.3 2.64 -5 4 C-2.379 4 -0.491 3.687 2 3 C2 3.66 2 4.32 2 5 C0.02 5.66 -1.96 6.32 -4 7 C-3.67 8.65 -3.34 10.3 -3 12 C-3.66 12 -4.32 12 -5 12 C-5 12.66 -5 13.32 -5 14 C-6.32 13.34 -7.64 12.68 -9 12 C-9 11.34 -9 10.68 -9 10 C-8.34 9.67 -7.68 9.34 -7 9 C-7.66 8.01 -8.32 7.02 -9 6 C-9.125 2.812 -9.125 2.812 -9 0 C-5.622 -0.845 -3.325 -1.108 0 0 Z " fill="#FFFFFF" transform="translate(134,66)"/>
<path d="M0 0 C1.364 2.728 0.878 4.61 0.562 7.625 C0.461 8.628 0.359 9.631 0.254 10.664 C0.17 11.435 0.086 12.206 0 13 C-0.33 13 -0.66 13 -1 13 C-1 10.03 -1 7.06 -1 4 C-2.98 4.99 -2.98 4.99 -5 6 C-5.702 8.417 -5.702 8.417 -5.75 11.125 C-5.807 12.035 -5.863 12.945 -5.922 13.883 C-5.961 14.931 -5.961 14.931 -6 16 C-6.66 16 -7.32 16 -8 16 C-7.887 13.353 -7.76 10.708 -7.625 8.062 C-7.594 7.308 -7.563 6.553 -7.531 5.775 C-7.427 3.845 -7.221 1.921 -7 0 C-4.302 -1.349 -2.848 -0.803 0 0 Z " fill="#939393" transform="translate(128,157)"/>
<path d="M0 0 C0 0.99 0 1.98 0 3 C-0.572 2.795 -1.145 2.59 -1.734 2.379 C-4.599 1.9 -5.735 2.554 -8.25 3.938 C-8.956 4.318 -9.663 4.698 -10.391 5.09 C-10.922 5.39 -11.453 5.691 -12 6 C-11.34 6 -10.68 6 -10 6 C-10 7.32 -10 8.64 -10 10 C-11.237 9.794 -12.475 9.588 -13.75 9.375 C-16.339 9.059 -17.845 8.955 -20.375 9.688 C-22.309 11.249 -23.084 12.709 -24 15 C-24 12 -24 12 -22.25 9.75 C-16.264 4.158 -8.424 -1.34 0 0 Z " fill="#F9F9F9" transform="translate(132,102)"/>
<path d="M0 0 C0.33 0 0.66 0 1 0 C1.054 1.458 1.093 2.916 1.125 4.375 C1.148 5.187 1.171 5.999 1.195 6.836 C1 9 1 9 -1 11 C-1 10.34 -1 9.68 -1 9 C-2.32 8.67 -3.64 8.34 -5 8 C-4.67 8.33 -4.34 8.66 -4 9 C-3.34 9.66 -2.68 10.32 -2 11 C-4.31 11 -6.62 11 -9 11 C-9 7.424 -7.912 5.947 -6 3 C-6.99 2.67 -7.98 2.34 -9 2 C-8.34 1.67 -7.68 1.34 -7 1 C-4.525 2.114 -2.321 3.582 0 5 C0 3.35 0 1.7 0 0 Z " fill="#646464" transform="translate(135,90)"/>
<path d="M0 0 C3.408 1.929 6.741 3.828 10 6 C10 6.66 10 7.32 10 8 C10.66 7.67 11.32 7.34 12 7 C11.505 6.546 11.01 6.093 10.5 5.625 C9 4 9 4 9 2 C8.34 1.67 7.68 1.34 7 1 C10 0 10 0 12.438 1.062 C15.447 3.338 17.07 5.783 19 9 C18.67 9.66 18.34 10.32 18 11 C17.34 11 16.68 11 16 11 C16 10.34 16 9.68 16 9 C13.69 9 11.38 9 9 9 C9 8.34 9 7.68 9 7 C8.443 6.732 7.886 6.464 7.312 6.188 C4.788 4.891 2.363 3.575 0 2 C0 1.34 0 0.68 0 0 Z " fill="#222222" transform="translate(159,14)"/>
<path d="M0 0 C2.667 1.333 5.333 2.667 8 4 C4.018 6.939 1.006 8.782 -4 9 C-6.375 8.062 -6.375 8.062 -8 7 C-7.01 6.34 -6.02 5.68 -5 5 C-3.314 3.353 -1.644 1.689 0 0 Z " fill="#5C5C5C" transform="translate(115,111)"/>
<path d="M0 0 C3.259 1.426 5.402 3.167 7.891 5.695 C8.954 6.768 8.954 6.768 10.039 7.863 C11.133 8.983 11.133 8.983 12.25 10.125 C12.995 10.879 13.74 11.633 14.508 12.41 C16.343 14.269 18.174 16.132 20 18 C19.34 18.33 18.68 18.66 18 19 C17.01 18.67 16.02 18.34 15 18 C15 17.34 15 16.68 15 16 C14.34 16 13.68 16 13 16 C13 15.34 13 14.68 13 14 C12.01 13.67 11.02 13.34 10 13 C10 12.34 10 11.68 10 11 C9.34 11 8.68 11 8 11 C8 10.34 8 9.68 8 9 C7.34 9 6.68 9 6 9 C6 8.34 6 7.68 6 7 C5.01 6.67 4.02 6.34 3 6 C1.312 2.938 1.312 2.938 0 0 Z " fill="#5D5D5D" transform="translate(196,41)"/>
<path d="M0 0 C0 0.66 0 1.32 0 2 C-0.66 2 -1.32 2 -2 2 C-2.259 2.614 -2.518 3.227 -2.785 3.859 C-4.867 7.528 -8.061 8.79 -12 10 C-15.696 10.311 -19.302 10.245 -23 10 C-23 9.67 -23 9.34 -23 9 C-21.928 9 -20.855 9 -19.75 9 C-14.104 8.364 -10.119 4.98 -5.637 1.715 C-3 0 -3 0 0 0 Z " fill="#676767" transform="translate(178,153)"/>
<path d="M0 0 C1.666 -0.043 3.334 -0.041 5 0 C6 1 6 1 6.133 3.469 C6.13 4.469 6.128 5.469 6.125 6.5 C6.128 7.5 6.13 8.501 6.133 9.531 C6 12 6 12 5 13 C3 13.041 1 13.043 -1 13 C-1.33 11.68 -1.66 10.36 -2 9 C0.97 9.495 0.97 9.495 4 10 C4.33 9.34 4.66 8.68 5 8 C3.68 7.67 2.36 7.34 1 7 C1 6.34 1 5.68 1 5 C1.99 5 2.98 5 4 5 C4 4.01 4 3.02 4 2 C2.02 2.66 0.04 3.32 -2 4 C-1.34 2.68 -0.68 1.36 0 0 Z " fill="#000000" transform="translate(291,291)"/>
<path d="M0 0 C2.31 0 4.62 0 7 0 C7 0.66 7 1.32 7 2 C5.35 2 3.7 2 2 2 C2 2.66 2 3.32 2 4 C3.98 4.66 5.96 5.32 8 6 C8.125 8.375 8.125 8.375 8 11 C6 13 6 13 2.875 13.125 C1.452 13.063 1.452 13.063 0 13 C-0.33 12.01 -0.66 11.02 -1 10 C0.98 10 2.96 10 5 10 C5 8.68 5 7.36 5 6 C3.35 6.33 1.7 6.66 0 7 C0 4.69 0 2.38 0 0 Z " fill="#000000" transform="translate(280,291)"/>
<path d="M0 0 C0.66 0 1.32 0 2 0 C2 5.61 2 11.22 2 17 C1.01 17 0.02 17 -1 17 C-1 13.04 -1 9.08 -1 5 C-1.99 5 -2.98 5 -4 5 C-4 4.34 -4 3.68 -4 3 C-3.01 3 -2.02 3 -1 3 C-0.67 2.01 -0.34 1.02 0 0 Z " fill="#000000" transform="translate(86,28)"/>
<path d="M0 0 C1.98 0 3.96 0 6 0 C6 0.66 6 1.32 6 2 C4.68 2 3.36 2 2 2 C2 2.66 2 3.32 2 4 C3.32 4.33 4.64 4.66 6 5 C7.125 10.75 7.125 10.75 6 13 C3.125 13.188 3.125 13.188 0 13 C-0.66 12.01 -1.32 11.02 -2 10 C0.31 10.33 2.62 10.66 5 11 C4.67 9.68 4.34 8.36 4 7 C2.35 7 0.7 7 -1 7 C-0.67 4.69 -0.34 2.38 0 0 Z " fill="#000000" transform="translate(300,291)"/>
<path d="M0 0 C1.454 0.031 1.454 0.031 2.938 0.062 C1.947 0.558 1.947 0.558 0.938 1.062 C0.582 3.322 0.494 5.552 0.379 7.836 C-0.144 10.472 -1.023 11.377 -3.062 13.062 C-3.997 10.052 -4.107 9.196 -3.062 6.062 C-3.722 6.062 -4.382 6.062 -5.062 6.062 C-3.989 0.081 -3.989 0.081 0 0 Z " fill="#DEDEDE" transform="translate(128.0625,104.9375)"/>
<path d="M0 0 C0.788 0.241 1.575 0.482 2.387 0.73 C4.312 1.812 4.312 1.812 5.082 3.926 C5.158 4.548 5.234 5.171 5.312 5.812 C3.002 5.153 0.692 4.492 -1.688 3.812 C-1.688 3.153 -1.688 2.492 -1.688 1.812 C-4.8 2.27 -6.941 2.947 -9.75 4.438 C-12.951 5.936 -13.512 5.837 -16.688 4.812 C-15.442 3.993 -14.191 3.182 -12.938 2.375 C-11.893 1.696 -11.893 1.696 -10.828 1.004 C-6.816 -1.229 -4.373 -1.424 0 0 Z " fill="#000000" transform="translate(153.6875,52.1875)"/>
<path d="M0 0 C0.66 0 1.32 0 2 0 C2.117 3.396 2.187 6.791 2.25 10.188 C2.284 11.147 2.317 12.107 2.352 13.096 C2.451 20.289 2.451 20.289 -0.016 24.176 C-0.67 24.778 -1.325 25.38 -2 26 C-2.33 24.35 -2.66 22.7 -3 21 C-2.34 20.67 -1.68 20.34 -1 20 C-0.67 13.4 -0.34 6.8 0 0 Z " fill="#EBEBEB" transform="translate(53,130)"/>
<path d="M0 0 C2.375 -0.188 2.375 -0.188 5 0 C7.712 4.068 7.307 6.165 7 11 C5 13 5 13 2.375 13.125 C1.591 13.084 0.808 13.043 0 13 C-0.33 11.68 -0.66 10.36 -1 9 C1.475 9.495 1.475 9.495 4 10 C4 7.36 4 4.72 4 2 C3.01 2 2.02 2 1 2 C1 2.66 1 3.32 1 4 C0.34 4 -0.32 4 -1 4 C-0.67 2.68 -0.34 1.36 0 0 Z " fill="#000000" transform="translate(271,291)"/>
<path d="M0 0 C3.96 0 7.92 0 12 0 C12.33 0.66 12.66 1.32 13 2 C12.01 2 11.02 2 10 2 C10.66 2.454 11.32 2.907 12 3.375 C12.66 3.911 13.32 4.448 14 5 C14 5.66 14 6.32 14 7 C13.01 7 12.02 7 11 7 C11 6.34 11 5.68 11 5 C10.34 5 9.68 5 9 5 C8.67 4.67 8.34 4.34 8 4 C7.01 4 6.02 4 5 4 C3.318 3.374 1.648 2.712 0 2 C0 1.34 0 0.68 0 0 Z M9 6 C9.99 6.99 10.98 7.98 12 9 C11.01 8.67 10.02 8.34 9 8 C9 7.34 9 6.68 9 6 Z " fill="#232323" transform="translate(183,85)"/>
<path d="M0 0 C0.66 0.33 1.32 0.66 2 1 C1.34 2.65 0.68 4.3 0 6 C0.66 6 1.32 6 2 6 C1.67 8.31 1.34 10.62 1 13 C-0.65 13 -2.3 13 -4 13 C-3.01 12.01 -2.02 11.02 -1 10 C-2.98 9.34 -4.96 8.68 -7 8 C-6.67 7.01 -6.34 6.02 -6 5 C-4.02 5.495 -4.02 5.495 -2 6 C-2 5.34 -2 4.68 -2 4 C-2.99 3.67 -3.98 3.34 -5 3 C-2.625 1.438 -2.625 1.438 0 0 Z " fill="#141414" transform="translate(123,105)"/>
<path d="M0 0 C2.625 -0.188 2.625 -0.188 5 0 C5.33 1.32 5.66 2.64 6 4 C3.525 3.01 3.525 3.01 1 2 C1 4.64 1 7.28 1 10 C2.65 9.67 4.3 9.34 6 9 C5.67 10.32 5.34 11.64 5 13 C2.625 13.188 2.625 13.188 0 13 C-2.458 9.313 -2.311 7.357 -2 3 C-1.34 2.01 -0.68 1.02 0 0 Z " fill="#000000" transform="translate(252,291)"/>
<path d="M0 0 C5.412 0.353 5.412 0.353 7.875 3.062 C8.432 4.022 8.432 4.022 9 5 C8.01 5 7.02 5 6 5 C5.67 6.32 5.34 7.64 5 9 C0.23 5.576 0.23 5.576 -0.875 2.812 C-0.916 2.214 -0.958 1.616 -1 1 C-0.67 0.67 -0.34 0.34 0 0 Z " fill="#777777" transform="translate(144,74)"/>
<path d="M0 0 C1.179 0.12 2.359 0.24 3.574 0.363 C4.93 0.524 4.93 0.524 6.312 0.688 C6.312 1.347 6.312 2.007 6.312 2.688 C-4.061 5.353 -4.061 5.353 -9.688 2.688 C-6.969 -1.13 -4.382 -0.477 0 0 Z " fill="#313131" transform="translate(75.6875,175.3125)"/>
<path d="M0 0 C1.958 -0.054 3.916 -0.093 5.875 -0.125 C7.511 -0.16 7.511 -0.16 9.18 -0.195 C12 0 12 0 14 2 C9.71 2 5.42 2 1 2 C0.67 1.34 0.34 0.68 0 0 Z M0 1 C0 1.66 0 2.32 0 3 C-2.64 3.33 -5.28 3.66 -8 4 C-8.33 3.34 -8.66 2.68 -9 2 C-5.847 1.299 -3.273 1 0 1 Z " fill="#7C7C7C" transform="translate(38,162)"/>
<path d="M0 0 C2 3 2 3 1.645 5.488 C0.139 10.598 -1.365 15.358 -4 20 C-4.66 20 -5.32 20 -6 20 C-4.388 13.141 -2.64 6.538 0 0 Z " fill="#3E3E3E" transform="translate(195,116)"/>
<path d="M0 0 C5.625 -0.25 5.625 -0.25 9 2 C8.67 3.32 8.34 4.64 8 6 C6.25 6.75 6.25 6.75 4 7 C1.75 5.25 1.75 5.25 0 3 C0 2.01 0 1.02 0 0 Z " fill="#5A5A5A" transform="translate(221,101)"/>
<path d="M0 0 C0.66 0.99 1.32 1.98 2 3 C2.66 2.01 3.32 1.02 4 0 C5.32 0.33 6.64 0.66 8 1 C7.25 5.75 7.25 5.75 5 8 C2.625 7.312 2.625 7.312 0 6 C-1.312 3.375 -1.312 3.375 -2 1 C-1.34 0.67 -0.68 0.34 0 0 Z " fill="#383838" transform="translate(147,79)"/>
<path d="M0 0 C2.31 0.33 4.62 0.66 7 1 C7.33 2.65 7.66 4.3 8 6 C5.688 6.625 5.688 6.625 3 7 C2.01 6.34 1.02 5.68 0 5 C-0.188 2.375 -0.188 2.375 0 0 Z " fill="#555555" transform="translate(161,182)"/>
<path d="M0 0 C1.125 3.75 1.125 3.75 0 6 C-1.98 6 -3.96 6 -6 6 C-6 4.02 -6 2.04 -6 0 C-3.509 -1.245 -2.589 -0.777 0 0 Z " fill="#000000" transform="translate(151,31)"/>
<path d="M0 0 C1.98 0.495 1.98 0.495 4 1 C4 3.31 4 5.62 4 8 C2.062 8.562 2.062 8.562 0 9 C-1 8 -1 8 -1.125 5.062 C-1 2 -1 2 0 0 Z " fill="#FFFFFF" transform="translate(253,293)"/>
<path d="M0 0 C0.99 0 1.98 0 3 0 C4.354 2.709 4.065 5.009 4 8 C2.062 8.562 2.062 8.562 0 9 C-1 8 -1 8 -1.125 5.062 C-1 2 -1 2 0 0 Z " fill="#FFFFFF" transform="translate(272,293)"/>
<path d="M0 0 C0.99 0.33 1.98 0.66 3 1 C2.34 1 1.68 1 1 1 C0.773 1.557 0.546 2.114 0.312 2.688 C-1.386 5.68 -3.421 7.735 -6 10 C-6.99 10 -7.98 10 -9 10 C-7.635 6.883 -6.131 4.913 -3.562 2.688 C-2.966 2.155 -2.369 1.623 -1.754 1.074 C-1.175 0.72 -0.596 0.365 0 0 Z " fill="#212121" transform="translate(247,252)"/>
<path d="M0 0 C0 4.29 0 8.58 0 13 C-0.99 13 -1.98 13 -3 13 C-3 12.34 -3 11.68 -3 11 C-6.3 11 -9.6 11 -13 11 C-13 10.67 -13 10.34 -13 10 C-9.7 9.67 -6.4 9.34 -3 9 C-3 8.34 -3 7.68 -3 7 C-2.34 7 -1.68 7 -1 7 C-1.66 5.02 -2.32 3.04 -3 1 C-1 0 -1 0 0 0 Z " fill="#575757" transform="translate(53,155)"/>
<path d="M0 0 C1 3 1 3 -0.312 6.312 C-3.216 11.117 -7.992 13.717 -13 16 C-13.99 16 -14.98 16 -16 16 C-9.804 10.161 -9.804 10.161 -6.188 9.438 C-5.466 9.293 -4.744 9.149 -4 9 C-2.724 6.686 -2.724 6.686 -2 4 C-1.348 2.659 -0.686 1.323 0 0 Z " fill="#000000" transform="translate(154,115)"/>
<path d="M0 0 C0.062 0.619 0.124 1.237 0.188 1.875 C0.829 4.278 0.829 4.278 3.562 5.25 C4.367 5.498 5.171 5.745 6 6 C4 7 4 7 2.172 6.535 C-0.336 5.917 -2.199 6.1 -4.75 6.438 C-5.549 6.539 -6.348 6.641 -7.172 6.746 C-7.775 6.83 -8.378 6.914 -9 7 C-7.75 5.5 -7.75 5.5 -6 4 C-4.68 4 -3.36 4 -2 4 C-1.34 2.68 -0.68 1.36 0 0 Z " fill="#979797" transform="translate(120,84)"/>
<path d="M0 0 C1.32 0 2.64 0 4 0 C4 2.97 4 5.94 4 9 C2.68 9 1.36 9 0 9 C0 6.03 0 3.06 0 0 Z " fill="#FFFFFF" transform="translate(262,293)"/>
<path d="M0 0 C-0.33 2.31 -0.66 4.62 -1 7 C-2.875 6.75 -2.875 6.75 -5 6 C-6.312 4.062 -6.312 4.062 -7 2 C-6 0 -6 0 -4.062 -0.688 C-2 -1 -2 -1 0 0 Z " fill="#BFBFBF" transform="translate(137,79)"/>
<path d="M0 0 C0.66 0 1.32 0 2 0 C2.061 0.941 2.121 1.882 2.184 2.852 C2.267 4.097 2.351 5.342 2.438 6.625 C2.559 8.47 2.559 8.47 2.684 10.352 C2.967 13.615 3.41 16.779 4 20 C5.98 20 7.96 20 10 20 C10 20.33 10 20.66 10 21 C7.69 21 5.38 21 3 21 C2.711 20.196 2.422 19.391 2.125 18.562 C1.267 15.867 1.267 15.867 -1 15 C-0.67 14.34 -0.34 13.68 0 13 C0.071 10.793 0.084 8.583 0.062 6.375 C0.053 5.186 0.044 3.998 0.035 2.773 C0.024 1.858 0.012 0.943 0 0 Z " fill="#000000" transform="translate(56,157)"/>
<path d="M0 0 C2.64 0 5.28 0 8 0 C8.33 1.32 8.66 2.64 9 4 C6.03 4 3.06 4 0 4 C-0.33 3.34 -0.66 2.68 -1 2 C-0.67 1.34 -0.34 0.68 0 0 Z " fill="#FFFFFF" transform="translate(88,104)"/>
<path d="M0 0 C3.3 0 6.6 0 10 0 C10 1.98 10 3.96 10 6 C9.01 5.67 8.02 5.34 7 5 C7 4.34 7 3.68 7 3 C4.69 2.67 2.38 2.34 0 2 C0 1.34 0 0.68 0 0 Z " fill="#484848" transform="translate(89,101)"/>
<path d="M0 0 C0.897 0.526 0.897 0.526 1.812 1.062 C0.823 1.392 -0.168 1.722 -1.188 2.062 C-1.188 2.722 -1.188 3.382 -1.188 4.062 C-5.477 4.722 -9.767 5.382 -14.188 6.062 C-12.188 4.062 -12.188 4.062 -9.062 3.938 C-8.114 3.979 -7.165 4.02 -6.188 4.062 C-6.084 3.423 -5.981 2.784 -5.875 2.125 C-5.648 1.444 -5.421 0.764 -5.188 0.062 C-2.188 -0.938 -2.188 -0.938 0 0 Z " fill="#414141" transform="translate(115.1875,84.9375)"/>
<path d="M0 0 C0.99 1.32 1.98 2.64 3 4 C1.63 7.161 1.011 7.993 -2 10 C-2.99 9.67 -3.98 9.34 -5 9 C-5.33 8.34 -5.66 7.68 -6 7 C-4.02 6.01 -2.04 5.02 0 4 C-0.99 3.34 -1.98 2.68 -3 2 C-2.01 2 -1.02 2 0 2 C0 1.34 0 0.68 0 0 Z " fill="#2B2B2B" transform="translate(133,62)"/>
<path d="M0 0 C0.705 0.164 1.41 0.327 2.137 0.496 C5.097 1.017 7.811 1.099 10.812 1.062 C11.788 1.053 12.764 1.044 13.77 1.035 C14.506 1.024 15.242 1.012 16 1 C16 1.66 16 2.32 16 3 C12.559 4.721 8.77 4.384 5 4 C1.938 2.562 1.938 2.562 0 1 C0 0.67 0 0.34 0 0 Z " fill="#FFFFFF" transform="translate(155,164)"/>
<path d="M0 0 C0 3 0 3 -1.5 4.688 C-1.995 5.121 -2.49 5.554 -3 6 C-1.68 6.99 -0.36 7.98 1 9 C-1.64 8.67 -4.28 8.34 -7 8 C-6.615 5.21 -6.228 4.198 -4.062 2.312 C-2 1 -2 1 0 0 Z " fill="#070707" transform="translate(238,263)"/>
<path d="M0 0 C0.66 0.99 1.32 1.98 2 3 C1.01 4.485 1.01 4.485 0 6 C-0.66 6 -1.32 6 -2 6 C-2 6.66 -2 7.32 -2 8 C-2.66 8 -3.32 8 -4 8 C-4.33 8.66 -4.66 9.32 -5 10 C-5.99 9.34 -6.98 8.68 -8 8 C-7.01 7.67 -6.02 7.34 -5 7 C-4.298 5.685 -3.635 4.349 -3 3 C-1.375 1.25 -1.375 1.25 0 0 Z " fill="#171717" transform="translate(255,242)"/>
<path d="M0 0 C3.96 0.33 7.92 0.66 12 1 C12 1.99 12 2.98 12 4 C7.05 4 2.1 4 -3 4 C-2.67 3.34 -2.34 2.68 -2 2 C-1.34 2 -0.68 2 0 2 C0 1.34 0 0.68 0 0 Z " fill="#000000" transform="translate(38,163)"/>
<path d="M0 0 C0 0.66 0 1.32 0 2 C1.98 2 3.96 2 6 2 C6 2.33 6 2.66 6 3 C-2.415 3.495 -2.415 3.495 -11 4 C-10.67 3.01 -10.34 2.02 -10 1 C-2.25 0 -2.25 0 0 0 Z " fill="#000000" transform="translate(102,138)"/>
<path d="M0 0 C2.31 0.66 4.62 1.32 7 2 C7.33 3.65 7.66 5.3 8 7 C3.545 5.02 3.545 5.02 -1 3 C-0.67 2.01 -0.34 1.02 0 0 Z " fill="#FFFFFF" transform="translate(114,96)"/>
<path d="M0 0 C0.33 0 0.66 0 1 0 C1.054 1.458 1.093 2.916 1.125 4.375 C1.148 5.187 1.171 5.999 1.195 6.836 C1 9 1 9 -1 11 C-1 10.34 -1 9.68 -1 9 C-3.475 8.01 -3.475 8.01 -6 7 C-5.34 6.01 -4.68 5.02 -4 4 C-2.68 4.33 -1.36 4.66 0 5 C0 3.35 0 1.7 0 0 Z " fill="#FFFFFF" transform="translate(135,90)"/>
<path d="M0 0 C0.66 0.33 1.32 0.66 2 1 C2.081 2.958 2.139 4.916 2.188 6.875 C2.24 8.511 2.24 8.511 2.293 10.18 C2.196 11.11 2.1 12.041 2 13 C1.01 13.66 0.02 14.32 -1 15 C-0.67 10.05 -0.34 5.1 0 0 Z " fill="#FFFFFF" transform="translate(118,158)"/>
<path d="M0 0 C2.97 0.33 5.94 0.66 9 1 C8.67 1.99 8.34 2.98 8 4 C5.03 4 2.06 4 -1 4 C-0.67 2.68 -0.34 1.36 0 0 Z " fill="#444444" transform="translate(62,117)"/>
<path d="M0 0 C1.98 0 3.96 0 6 0 C6.33 1.32 6.66 2.64 7 4 C5.02 4.33 3.04 4.66 1 5 C0.67 3.35 0.34 1.7 0 0 Z " fill="#6D6D6D" transform="translate(310,291)"/>
<path d="M0 0 C2.64 1.98 5.28 3.96 8 6 C7.01 6.33 6.02 6.66 5 7 C5.33 8.98 5.66 10.96 6 13 C4 12 4 12 3.184 10.039 C2.937 9.242 2.691 8.446 2.438 7.625 C2.189 6.834 1.94 6.042 1.684 5.227 C1.458 4.492 1.232 3.757 1 3 C0.67 2.01 0.34 1.02 0 0 Z " fill="#000000" transform="translate(142,141)"/>
<path d="M0 0 C1.32 0.66 2.64 1.32 4 2 C4 2.66 4 3.32 4 4 C3.34 4 2.68 4 2 4 C2 4.66 2 5.32 2 6 C-0.31 6 -2.62 6 -5 6 C-3.35 4.02 -1.7 2.04 0 0 Z " fill="#FFFFFF" transform="translate(112,100)"/>
<path d="M0 0 C4.75 0.875 4.75 0.875 7 2 C6.67 2.99 6.34 3.98 6 5 C1.25 4.125 1.25 4.125 -1 3 C-0.67 2.01 -0.34 1.02 0 0 Z " fill="#FFFFFF" transform="translate(82,91)"/>
<path d="M0 0 C0 0.66 0 1.32 0 2 C-0.66 2 -1.32 2 -2 2 C-2.66 3.32 -3.32 4.64 -4 6 C-5.32 6 -6.64 6 -8 6 C-6.241 1.94 -4.714 0 0 0 Z " fill="#444444" transform="translate(178,153)"/>
<path d="M0 0 C0.33 0 0.66 0 1 0 C1.073 1.265 1.073 1.265 1.148 2.555 C1.223 3.65 1.298 4.746 1.375 5.875 C1.445 6.966 1.514 8.056 1.586 9.18 C1.733 12.13 1.733 12.13 4 14 C2.35 14 0.7 14 -1 14 C-1.33 13.34 -1.66 12.68 -2 12 C-1.34 12 -0.68 12 0 12 C0 8.04 0 4.08 0 0 Z M-4 13 C-3.34 13 -2.68 13 -2 13 C-2 13.66 -2 14.32 -2 15 C-2.99 14.67 -3.98 14.34 -5 14 C-4.67 13.67 -4.34 13.34 -4 13 Z " fill="#4E4E4E" transform="translate(110,140)"/>
<path d="M0 0 C1.32 1.32 2.64 2.64 4 4 C0.865 5.858 -1.375 6.201 -5 6 C-3.867 2.601 -2.875 1.947 0 0 Z " fill="#FFFFFF" transform="translate(115,111)"/>
<path d="M0 0 C0.33 0.99 0.66 1.98 1 3 C-3.308 6.938 -3.308 6.938 -6.812 7.25 C-7.534 7.168 -8.256 7.085 -9 7 C-6.166 3.746 -4.314 2.479 0 2 C0 1.34 0 0.68 0 0 Z " fill="#626262" transform="translate(117,103)"/>
<path d="M0 0 C0.99 1.98 1.98 3.96 3 6 C1.35 6.33 -0.3 6.66 -2 7 C-2.66 5.02 -3.32 3.04 -4 1 C-2 0 -2 0 0 0 Z " fill="#FFFFFF" transform="translate(118,76)"/>
<path d="M0 0 C0.66 0 1.32 0 2 0 C2 0.66 2 1.32 2 2 C2.66 2 3.32 2 4 2 C3.67 2.66 3.34 3.32 3 4 C3.33 4.33 3.66 4.66 4 5 C4 5.66 4 6.32 4 7 C5.32 7.33 6.64 7.66 8 8 C7.67 8.99 7.34 9.98 7 11 C6.34 10.67 5.68 10.34 5 10 C5 9.34 5 8.68 5 8 C4.34 8 3.68 8 3 8 C3 7.34 3 6.68 3 6 C2.34 6 1.68 6 1 6 C0.67 4.02 0.34 2.04 0 0 Z " fill="#272727" transform="translate(191,36)"/>
<path d="M0 0 C1.98 0.66 3.96 1.32 6 2 C5.67 3.32 5.34 4.64 5 6 C4.01 6 3.02 6 2 6 C2 5.34 2 4.68 2 4 C1.34 4 0.68 4 0 4 C-0.33 3.01 -0.66 2.02 -1 1 C-0.67 0.67 -0.34 0.34 0 0 Z " fill="#FFFFFF" transform="translate(288,183)"/>
<path d="M0 0 C2.97 0.495 2.97 0.495 6 1 C6 2.65 6 4.3 6 6 C3 6 3 6 0 4 C0.66 4 1.32 4 2 4 C1.34 2.68 0.68 1.36 0 0 Z " fill="#212121" transform="translate(114,100)"/>
<path d="M0 0 C2.125 0.938 2.125 0.938 4 2 C3.67 3.65 3.34 5.3 3 7 C2.34 6.01 1.68 5.02 1 4 C0.01 4 -0.98 4 -2 4 C-2 3.01 -2 2.02 -2 1 C-1.34 0.67 -0.68 0.34 0 0 Z " fill="#0B0B0B" transform="translate(115,150)"/>
<path d="M0 0 C0.33 0.66 0.66 1.32 1 2 C0.34 2.66 -0.32 3.32 -1 4 C-0.67 2.68 -0.34 1.36 0 0 Z M-2 4 C-1.34 4.66 -0.68 5.32 0 6 C-0.367 8.935 -0.864 9.864 -3 12 C-3.931 9.394 -4.149 8.358 -3.062 5.75 C-2.712 5.173 -2.361 4.595 -2 4 Z " fill="#0B0B0B" transform="translate(190,130)"/>
<path d="M0 0 C0 0.33 0 0.66 0 1 C-1.98 1 -3.96 1 -6 1 C-6.33 2.65 -6.66 4.3 -7 6 C-7.99 6 -8.98 6 -10 6 C-10.33 4.68 -10.66 3.36 -11 2 C-7.366 -0.326 -4.229 -0.163 0 0 Z " fill="#171717" transform="translate(59,110)"/>
<path d="M0 0 C1.32 0 2.64 0 4 0 C4 0.99 4 1.98 4 3 C1.36 3.99 -1.28 4.98 -4 6 C-4 5.34 -4 4.68 -4 4 C-3.34 4 -2.68 4 -2 4 C-1.34 2.68 -0.68 1.36 0 0 Z " fill="#171717" transform="translate(147,62)"/>
<path d="M0 0 C0.66 0.33 1.32 0.66 2 1 C1.67 1.66 1.34 2.32 1 3 C2.32 3.66 3.64 4.32 5 5 C5 5.66 5 6.32 5 7 C3.35 6.67 1.7 6.34 0 6 C-1.125 2.25 -1.125 2.25 0 0 Z " fill="#242424" transform="translate(80,91)"/>
<path d="M0 0 C1.98 0.66 3.96 1.32 6 2 C5.67 2.66 5.34 3.32 5 4 C2.69 3.67 0.38 3.34 -2 3 C-1.34 2.67 -0.68 2.34 0 2 C0 1.34 0 0.68 0 0 Z " fill="#353535" transform="translate(266,237)"/>
<path d="M0 0 C2.125 0.375 2.125 0.375 4 1 C4 1.66 4 2.32 4 3 C1.5 4.625 1.5 4.625 -1 6 C-1.625 4.125 -1.625 4.125 -2 2 C-1.34 1.34 -0.68 0.68 0 0 Z " fill="#1A1A1A" transform="translate(260,236)"/>
<path d="M0 0 C-0.33 3.63 -0.66 7.26 -1 11 C-1.33 11 -1.66 11 -2 11 C-2 8.03 -2 5.06 -2 2 C-2.66 1.67 -3.32 1.34 -4 1 C-2 0 -2 0 0 0 Z " fill="#000000" transform="translate(129,159)"/>
<path d="M0 0 C1.65 0.33 3.3 0.66 5 1 C5 1.66 5 2.32 5 3 C2.625 3.625 2.625 3.625 0 4 C-0.66 3.34 -1.32 2.68 -2 2 C-1.34 2 -0.68 2 0 2 C0 1.34 0 0.68 0 0 Z " fill="#353535" transform="translate(59,152)"/>
<path d="M0 0 C0.66 0.33 1.32 0.66 2 1 C0.625 2.5 0.625 2.5 -1 4 C-1.66 4 -2.32 4 -3 4 C-3.66 5.32 -4.32 6.64 -5 8 C-5 5 -5 5 -2.5 2.312 C-1.675 1.549 -0.85 0.786 0 0 Z " fill="#FFFFFF" transform="translate(113,109)"/>
<path d="M0 0 C4.75 1.875 4.75 1.875 7 3 C6.67 3.66 6.34 4.32 6 5 C4.35 4.67 2.7 4.34 1 4 C1 3.34 1 2.68 1 2 C0.34 1.67 -0.32 1.34 -1 1 C-0.67 0.67 -0.34 0.34 0 0 Z " fill="#1A1A1A" transform="translate(167,14)"/>
<path d="M0 0 C2.062 0.438 2.062 0.438 4 1 C4 1.99 4 2.98 4 4 C3.01 3.34 2.02 2.68 1 2 C0.34 1.67 -0.32 1.34 -1 1 C-0.67 0.67 -0.34 0.34 0 0 Z M6 0 C7.32 0.66 8.64 1.32 10 2 C8.68 2.33 7.36 2.66 6 3 C6 2.01 6 1.02 6 0 Z " fill="#464646" transform="translate(17,166)"/>
<path d="M0 0 C0.99 0.33 1.98 0.66 3 1 C3 2.32 3 3.64 3 5 C1.68 5 0.36 5 -1 5 C-0.67 3.35 -0.34 1.7 0 0 Z " fill="#FFFFFF" transform="translate(147,31)"/>
<path d="M0 0 C0.66 1.32 1.32 2.64 2 4 C0.188 4.625 0.188 4.625 -2 5 C-2.99 4.34 -3.98 3.68 -5 3 C-2.25 0 -2.25 0 0 0 Z " fill="#0F0F0F" transform="translate(100,105)"/>
</svg>
