<?xml version="1.0" encoding="UTF-8"?>
<!-- Generator: visioncortex VTracer 0.6.4 -->
<svg version="1.1" xmlns="http://www.w3.org/2000/svg" width="325" height="311">
<path d="M0 0 C107.25 0 214.5 0 325 0 C325 102.63 325 205.26 325 311 C217.75 311 110.5 311 0 311 C0 208.37 0 105.74 0 0 Z " fill="#FAFAFA" transform="translate(0,0)"/>
<path d="M0 0 C1.777 -0.031 1.777 -0.031 3.59 -0.062 C10.215 -0.092 15.619 0.03 21.5 3.25 C23.852 6.891 23.866 10.797 24.125 15.062 C24.237 16.805 24.237 16.805 24.352 18.582 C24.425 19.903 24.425 19.903 24.5 21.25 C25.16 21.25 25.82 21.25 26.5 21.25 C26.561 22.347 26.621 23.444 26.684 24.574 C26.768 26.029 26.853 27.483 26.938 28.938 C26.977 29.659 27.016 30.38 27.057 31.123 C27.119 32.182 27.119 32.182 27.184 33.262 C27.22 33.906 27.257 34.55 27.295 35.214 C27.533 37.581 28.033 39.917 28.5 42.25 C28.5 37.63 28.5 33.01 28.5 28.25 C32.26 32.01 31.382 38.164 31.5 43.25 C31.205 57.57 31.205 57.57 29.5 63.25 C28.84 63.25 28.18 63.25 27.5 63.25 C27.418 63.993 27.335 64.735 27.25 65.5 C26.352 68.793 25.116 70.11 22.5 72.25 C21.84 72.25 21.18 72.25 20.5 72.25 C20.17 73.24 19.84 74.23 19.5 75.25 C17.355 76.715 17.355 76.715 14.688 78.188 C11.065 80.194 8.323 82.211 5.5 85.25 C5.17 85.58 4.84 85.91 4.5 86.25 C6.564 85.966 8.626 85.672 10.688 85.375 C11.836 85.213 12.985 85.05 14.168 84.883 C17.403 84.41 17.403 84.41 19.801 83.18 C22.528 82.24 24.125 82.195 26.969 82.277 C33.491 82.411 39.63 81.099 46 79.812 C53.825 78.259 61.538 76.848 69.5 76.25 C69.83 76.91 70.16 77.57 70.5 78.25 C64.376 80.173 58.2 81.257 51.875 82.312 C49.841 82.657 47.807 83.002 45.773 83.348 C44.881 83.497 43.988 83.647 43.068 83.801 C41.342 84.103 39.622 84.437 37.909 84.802 C34.753 85.389 31.701 85.313 28.5 85.25 C28.17 85.91 27.84 86.57 27.5 87.25 C27.5 86.59 27.5 85.93 27.5 85.25 C26.51 85.58 25.52 85.91 24.5 86.25 C24.974 87.322 25.449 88.395 25.938 89.5 C28.112 94.628 28.709 98.596 28.5 104.25 C28.17 104.91 27.84 105.57 27.5 106.25 C28.16 106.58 28.82 106.91 29.5 107.25 C30.501 103.939 30.604 100.949 30.562 97.5 C30.553 96.515 30.544 95.53 30.535 94.516 C30.524 93.768 30.512 93.02 30.5 92.25 C32.636 95.454 32.731 96.269 32.625 99.938 C32.607 100.746 32.589 101.554 32.57 102.387 C32.547 103.002 32.524 103.616 32.5 104.25 C36.75 103.439 41 102.626 45.25 101.812 C46.457 101.582 47.663 101.352 48.906 101.115 C50.646 100.782 50.646 100.782 52.422 100.441 C54.024 100.135 54.024 100.135 55.659 99.823 C57.363 99.479 59.061 99.108 60.746 98.682 C62.799 98.176 64.64 98.152 66.75 98.188 C68.606 98.218 68.606 98.218 70.5 98.25 C70.17 98.91 69.84 99.57 69.5 100.25 C67.282 100.888 67.282 100.888 64.355 101.434 C63.285 101.639 62.214 101.845 61.111 102.057 C59.981 102.265 58.852 102.473 57.688 102.688 C42.673 105.115 42.673 105.115 28.5 110.25 C25.906 110.559 25.906 110.559 23 110.688 C17.522 111.049 12.556 112.113 7.289 113.629 C4.281 114.299 1.572 114.354 -1.5 114.25 C-2.16 112.93 -2.82 111.61 -3.5 110.25 C-5.037 110.467 -5.037 110.467 -6.605 110.688 C-7.966 110.875 -9.327 111.063 -10.688 111.25 C-11.361 111.345 -12.035 111.441 -12.729 111.539 C-20.111 112.547 -20.111 112.547 -23.5 112.25 C-26.506 109.244 -26.096 106.426 -26.5 102.25 C-31.45 102.25 -36.4 102.25 -41.5 102.25 C-42.16 100.27 -42.82 98.29 -43.5 96.25 C-50.08 96.343 -56.659 96.451 -63.239 96.567 C-65.471 96.605 -67.704 96.64 -69.936 96.672 C-86.357 96.858 -86.357 96.858 -102.641 98.78 C-106.928 99.485 -111.235 99.734 -115.566 100.031 C-119.235 100.305 -122.856 100.75 -126.5 101.25 C-123.647 98.925 -120.959 97.499 -117.5 96.25 C-117.5 96.91 -117.5 97.57 -117.5 98.25 C-116.841 98.164 -116.182 98.079 -115.503 97.99 C-92.405 95.004 -92.405 95.004 -82.598 94.461 C-80.514 94.475 -80.514 94.475 -79.5 93.25 C-80.043 92.875 -80.585 92.5 -81.145 92.113 C-85.203 89.21 -88.32 86.883 -90.5 82.25 C-92.125 82.391 -93.75 82.538 -95.375 82.688 C-96.28 82.769 -97.185 82.85 -98.117 82.934 C-100.511 83.12 -100.511 83.12 -102.5 84.25 C-104.177 83.971 -105.846 83.642 -107.5 83.25 C-106.84 82.92 -106.18 82.59 -105.5 82.25 C-105.232 81.528 -104.964 80.806 -104.688 80.062 C-103.5 77.25 -103.5 77.25 -101 74.312 C-95.717 67.84 -96.185 61.12 -96.25 53.125 C-96.254 51.977 -96.258 50.828 -96.262 49.645 C-96.356 40.211 -97.074 30.93 -98.316 21.582 C-98.588 18.134 -98.525 14.708 -98.5 11.25 C-110.436 11.084 -122.176 11.492 -134.062 12.562 C-135.636 12.7 -137.209 12.837 -138.782 12.975 C-171.829 14.699 -171.829 14.699 -202.617 25.297 C-204.5 26.25 -204.5 26.25 -207.5 26.25 C-194.031 15.23 -174.757 13.982 -158 12.688 C-155.725 12.503 -153.45 12.317 -151.175 12.13 C-149.677 12.008 -148.179 11.886 -146.68 11.766 C-142.621 11.438 -138.572 11.065 -134.523 10.617 C-122.989 9.358 -111.603 9.171 -100.015 9.268 C-89.362 9.351 -78.995 9.195 -68.56 6.806 C-59.443 4.789 -50.153 4.09 -40.875 3.188 C-38.243 2.927 -35.61 2.665 -32.978 2.403 C-31.351 2.241 -29.724 2.08 -28.096 1.922 C-24.502 1.568 -20.92 1.182 -17.34 0.706 C-11.557 0.019 -5.818 0.025 0 0 Z " fill="#F1F1F1" transform="translate(247.5,95.75)"/>
<path d="M0 0 C1.799 14.093 3.301 28.092 3.375 42.312 C3.389 43.384 3.402 44.455 3.416 45.558 C3.37 53.581 1.966 58.929 -3.125 65.312 C-5.27 68.024 -5.27 68.024 -7 71 C-2.974 72.611 -0.016 71.177 4 70 C7.438 69.875 7.438 69.875 10 70 C10 70.99 10 71.98 10 73 C12.721 77.082 15.844 79.45 20 82 C17.638 84.362 16.906 84.321 13.676 84.598 C12.811 84.677 11.947 84.756 11.057 84.838 C10.151 84.912 9.246 84.986 8.312 85.062 C6.538 85.219 4.763 85.376 2.988 85.535 C2.134 85.61 1.28 85.685 0.4 85.762 C-1.678 85.968 -3.747 86.254 -5.812 86.555 C-8.703 86.958 -11.4 87.103 -14.312 87.062 C-15.154 87.053 -15.996 87.044 -16.863 87.035 C-17.568 87.024 -18.274 87.012 -19 87 C-21.476 87 -22.76 87.81 -25 88.875 C-34.207 92.671 -45.118 93.189 -55 93 C-54.67 90.69 -54.34 88.38 -54 86 C-63.339 84.591 -72.104 85.225 -81.438 86.312 C-82.563 86.442 -83.688 86.572 -84.847 86.706 C-90.412 87.398 -95.67 88.244 -101 90 C-101.33 91.32 -101.66 92.64 -102 94 C-102.99 94 -103.98 94 -105 94 C-111.365 81.85 -110.637 65.939 -111.562 52.5 C-111.751 49.802 -111.94 47.105 -112.133 44.408 C-112.252 42.745 -112.368 41.082 -112.481 39.419 C-112.716 36.101 -113.016 32.905 -113.587 29.623 C-114.391 24.516 -111.691 20.21 -109 16 C-97.065 4.175 -73.371 3.676 -57.438 2.438 C-55.184 2.254 -52.93 2.069 -50.677 1.883 C-49.191 1.761 -47.704 1.64 -46.218 1.521 C-41.984 1.177 -37.759 0.784 -33.535 0.332 C-22.186 -0.873 -11.373 -1.039 0 0 Z " fill="#F9F9F9" transform="translate(149,107)"/>
<path d="M0 0 C2.899 2.474 4.72 4.857 6.562 8.188 C6.562 9.177 6.562 10.168 6.562 11.188 C6.004 11.172 5.446 11.156 4.871 11.14 C-15.007 10.669 -34.607 12.227 -54.385 14.004 C-56.249 14.171 -58.113 14.332 -59.978 14.494 C-62.778 14.736 -65.577 14.989 -68.375 15.25 C-69.498 15.35 -69.498 15.35 -70.644 15.453 C-73.801 15.769 -76.666 16.257 -79.706 17.183 C-83.519 18.209 -86.929 18.58 -90.867 18.785 C-91.558 18.822 -92.248 18.86 -92.96 18.898 C-99.801 19.248 -106.646 19.419 -113.494 19.576 C-124.899 19.845 -136.237 20.312 -147.588 21.527 C-152.576 22.06 -157.42 22.274 -162.438 22.188 C-161.447 21.858 -160.458 21.528 -159.438 21.188 C-160.097 19.868 -160.757 18.547 -161.438 17.188 C-162.097 18.838 -162.757 20.487 -163.438 22.188 C-163.767 22.188 -164.097 22.188 -164.438 22.188 C-164.767 20.537 -165.097 18.888 -165.438 17.188 C-166.097 18.177 -166.757 19.168 -167.438 20.188 C-167.933 19.197 -167.933 19.197 -168.438 18.188 C-168.933 20.662 -168.933 20.662 -169.438 23.188 C-170.442 23.308 -170.442 23.308 -171.466 23.431 C-174.561 23.805 -177.656 24.184 -180.75 24.562 C-181.803 24.689 -182.855 24.815 -183.939 24.945 C-190.824 25.793 -197.628 26.866 -204.438 28.188 C-204.108 28.847 -203.778 29.507 -203.438 30.188 C-204.292 30.392 -205.147 30.597 -206.027 30.809 C-207.132 31.078 -208.237 31.347 -209.375 31.625 C-210.477 31.892 -211.579 32.159 -212.715 32.434 C-215.332 32.917 -215.332 32.917 -216.438 34.188 C-220.085 35.364 -220.085 35.364 -222.438 34.188 C-221.362 27.43 -218.42 20.878 -213.285 16.246 C-199.953 7.153 -185.005 6.555 -169.438 5.188 C-168.366 5.089 -167.294 4.991 -166.19 4.889 C-150.416 3.458 -135.058 2.643 -119.316 4.719 C-111.178 5.702 -103.262 5.641 -95.262 3.824 C-77.058 -0.28 -58.544 -1.725 -39.977 -3.115 C-10.201 -5.379 -10.201 -5.379 0 0 Z " fill="#FDFDFD" transform="translate(261.4375,80.8125)"/>
<path d="M0 0 C-3.456 2.304 -5.974 2.741 -10.047 3.508 C-10.736 3.638 -11.426 3.769 -12.136 3.903 C-13.595 4.177 -15.054 4.447 -16.514 4.714 C-18.73 5.121 -20.943 5.542 -23.156 5.965 C-24.578 6.23 -26 6.494 -27.422 6.758 C-28.707 6.996 -29.992 7.235 -31.315 7.481 C-34.932 7.99 -38.353 8.094 -42 8 C-42.33 8.66 -42.66 9.32 -43 10 C-43 9.34 -43 8.68 -43 8 C-43.99 8.33 -44.98 8.66 -46 9 C-45.526 10.072 -45.051 11.145 -44.562 12.25 C-42.388 17.378 -41.791 21.346 -42 27 C-42.33 27.66 -42.66 28.32 -43 29 C-42.34 29.33 -41.68 29.66 -41 30 C-39.999 26.689 -39.896 23.699 -39.938 20.25 C-39.947 19.265 -39.956 18.28 -39.965 17.266 C-39.976 16.518 -39.988 15.77 -40 15 C-37.864 18.204 -37.769 19.019 -37.875 22.688 C-37.893 23.496 -37.911 24.304 -37.93 25.137 C-37.953 25.752 -37.976 26.366 -38 27 C-33.75 26.189 -29.5 25.376 -25.25 24.562 C-24.043 24.332 -22.837 24.102 -21.594 23.865 C-20.434 23.643 -19.273 23.421 -18.078 23.191 C-17.01 22.987 -15.942 22.783 -14.841 22.573 C-13.137 22.229 -11.439 21.858 -9.754 21.432 C-7.701 20.926 -5.86 20.902 -3.75 20.938 C-1.894 20.968 -1.894 20.968 0 21 C-0.33 21.66 -0.66 22.32 -1 23 C-3.218 23.638 -3.218 23.638 -6.145 24.184 C-7.215 24.389 -8.286 24.595 -9.389 24.807 C-10.519 25.015 -11.648 25.223 -12.812 25.438 C-27.827 27.865 -27.827 27.865 -42 33 C-44.594 33.309 -44.594 33.309 -47.5 33.438 C-52.978 33.799 -57.944 34.863 -63.211 36.379 C-66.219 37.049 -68.928 37.104 -72 37 C-72.99 35.02 -72.99 35.02 -74 33 C-75.025 33.144 -76.05 33.289 -77.105 33.438 C-78.466 33.625 -79.827 33.813 -81.188 34 C-81.861 34.095 -82.535 34.191 -83.229 34.289 C-90.611 35.297 -90.611 35.297 -94 35 C-97.006 31.994 -96.596 29.176 -97 25 C-101.95 25 -106.9 25 -112 25 C-112.99 22.03 -112.99 22.03 -114 19 C-120.58 19.093 -127.159 19.201 -133.739 19.317 C-135.971 19.355 -138.204 19.39 -140.436 19.422 C-156.857 19.608 -156.857 19.608 -173.141 21.53 C-177.428 22.235 -181.735 22.484 -186.066 22.781 C-189.735 23.055 -193.356 23.5 -197 24 C-194.147 21.675 -191.459 20.249 -188 19 C-188 19.66 -188 20.32 -188 21 C-187.341 20.914 -186.682 20.829 -186.003 20.74 C-162.966 17.762 -162.966 17.762 -153.488 17.211 C-150.947 17.049 -150.947 17.049 -148.293 16.414 C-146 16 -146 16 -144 17 C-141.968 17.085 -139.933 17.107 -137.898 17.098 C-136.081 17.093 -136.081 17.093 -134.227 17.088 C-132.956 17.08 -131.685 17.071 -130.375 17.062 C-128.457 17.056 -128.457 17.056 -126.5 17.049 C-123.333 17.037 -120.167 17.021 -117 17 C-117.041 16.051 -117.082 15.102 -117.125 14.125 C-117 11 -117 11 -115 9 C-112.375 8.875 -112.375 8.875 -110 9 C-110.619 9.268 -111.238 9.536 -111.875 9.812 C-114.3 10.956 -114.3 10.956 -116 14 C-115.105 13.662 -114.211 13.325 -113.289 12.977 C-99.183 7.773 -86.029 5.743 -71 6 C-71 5.01 -71 4.02 -71 3 C-73.75 3.309 -76.5 3.622 -79.25 3.938 C-80.027 4.025 -80.805 4.112 -81.605 4.201 C-82.36 4.288 -83.114 4.375 -83.891 4.465 C-84.582 4.543 -85.273 4.622 -85.985 4.703 C-88.037 5.005 -89.991 5.494 -92 6 C-93.415 6.065 -94.833 6.086 -96.25 6.062 C-98.106 6.032 -98.106 6.032 -100 6 C-100 5.67 -100 5.34 -100 5 C-89.822 2.779 -80.461 1.559 -70 2 C-69.01 4.475 -69.01 4.475 -68 7 C-67.01 6.34 -66.02 5.68 -65 5 C-64.01 5.33 -63.02 5.66 -62 6 C-63.32 6.99 -64.64 7.98 -66 9 C-63.936 8.716 -61.874 8.422 -59.812 8.125 C-58.664 7.963 -57.515 7.8 -56.332 7.633 C-53.097 7.16 -53.097 7.16 -50.699 5.93 C-47.974 4.991 -46.38 4.945 -43.539 5.027 C-36.976 5.162 -30.787 3.847 -24.375 2.562 C-4.174 -1.391 -4.174 -1.391 0 0 Z " fill="#252525" transform="translate(318,173)"/>
<path d="M0 0 C0 1.98 0 3.96 0 6 C-0.66 6 -1.32 6 -2 6 C-2 8.97 -2 11.94 -2 15 C-2.99 15.495 -2.99 15.495 -4 16 C-3.18 16.398 -2.36 16.797 -1.516 17.207 C-0.438 17.737 0.64 18.267 1.75 18.812 C2.817 19.335 3.885 19.857 4.984 20.395 C8 22 8 22 9.91 23.547 C12.913 25.635 16.205 26.469 19.688 27.438 C20.433 27.651 21.178 27.864 21.946 28.083 C28.613 29.959 35.336 31.566 42.09 33.098 C45.374 33.844 48.622 34.689 51.875 35.562 C56.983 36.866 62.105 37.667 67.312 38.438 C74.515 39.505 81.339 41.03 88.348 43.023 C93.47 44.393 98.64 45.345 103.855 46.289 C107 47 107 47 108.922 47.975 C111.087 49.043 113.034 49.589 115.387 50.113 C116.235 50.307 117.084 50.5 117.958 50.7 C118.859 50.902 119.759 51.104 120.688 51.312 C127.755 52.95 134.779 54.675 141.75 56.688 C142.83 56.991 142.83 56.991 143.932 57.3 C145.641 57.804 147.325 58.394 149 59 C149.33 59.66 149.66 60.32 150 61 C151.992 61.38 153.994 61.706 156 62 C160.001 63.138 163.931 64.489 167.875 65.812 C168.926 66.156 169.976 66.5 171.059 66.854 C176.997 68.834 182.461 71.089 188 74 C189.489 74.631 190.988 75.24 192.5 75.812 C202.521 79.737 212.453 84.028 222 89 C222 89.99 222 90.98 222 92 C216.73 90.667 212.239 88.771 207.438 86.25 C200.091 82.489 192.639 79.134 185 76 C184.382 75.745 183.765 75.49 183.128 75.227 C174.853 71.814 166.52 68.75 158 66 C156.178 65.383 154.355 64.765 152.534 64.146 C145.781 61.86 138.991 59.813 132.121 57.898 C129.603 57.173 127.154 56.38 124.688 55.5 C119.673 53.775 114.518 52.662 109.356 51.48 C105.414 50.576 101.513 49.618 97.625 48.5 C87.106 45.577 76.303 43.641 65.594 41.551 C63.613 41.162 61.633 40.773 59.652 40.384 C57.747 40.012 55.841 39.647 53.934 39.282 C46.567 37.839 39.396 36.073 32.205 33.91 C28.908 32.974 25.608 32.246 22.25 31.562 C16.266 30.225 11.336 27.96 6 25 C1.736 22.808 -2.495 20.66 -7 19 C-7.99 18.629 -8.98 18.257 -10 17.875 C-14.623 16.527 -16.783 16.367 -21.125 18.625 C-24.406 21.335 -25.701 22.95 -27 27 C-27.186 31.456 -26.88 34.855 -24.125 38.438 C-20.744 40.923 -17.959 42.431 -13.938 43.562 C-9.176 44.912 -9.176 44.912 -7 46 C-5.669 46.129 -4.335 46.229 -3 46.312 C0.543 46.67 3.389 47.438 6.652 48.852 C11.863 51.006 17.128 52.581 22.562 54.062 C32.545 56.816 32.545 56.816 37.375 58.512 C42.954 60.406 48.68 61.538 54.438 62.75 C73.539 66.887 92.442 71.857 111 78 C112.12 78.371 113.24 78.741 114.395 79.123 C122.089 81.672 129.78 84.23 137.459 86.825 C139.816 87.607 142.182 88.363 144.557 89.093 C145.647 89.432 146.736 89.772 147.859 90.121 C148.828 90.413 149.797 90.705 150.796 91.006 C151.523 91.334 152.251 91.662 153 92 C153.33 92.99 153.66 93.98 154 95 C150.019 94.515 146.793 93.528 143.152 91.879 C139.39 90.342 135.48 89.269 131.59 88.102 C127.89 86.966 124.228 85.743 120.562 84.5 C114.682 82.516 108.764 80.744 102.785 79.082 C100.129 78.323 97.502 77.536 94.871 76.699 C83.979 73.264 72.996 70.508 61.875 67.938 C46.197 64.311 30.776 60.375 15.531 55.195 C4.914 51.571 4.914 51.571 -6 49.062 C-13.475 47.668 -20.929 45.211 -27.125 40.75 C-29.29 37.575 -30.375 34.568 -31.422 30.891 C-31.836 29.008 -31.836 29.008 -33 28 C-33.072 26.481 -33.084 24.958 -33.062 23.438 C-33.053 22.611 -33.044 21.785 -33.035 20.934 C-33.024 20.296 -33.012 19.657 -33 19 C-34.048 19.017 -34.048 19.017 -35.117 19.035 C-36.027 19.044 -36.937 19.053 -37.875 19.062 C-38.78 19.074 -39.685 19.086 -40.617 19.098 C-43 19 -43 19 -45 18 C-45.407 15.678 -45.744 13.343 -46 11 C-48.475 10.01 -48.475 10.01 -51 9 C-50.01 8.67 -49.02 8.34 -48 8 C-47.67 6.35 -47.34 4.7 -47 3 C-40.452 0.811 -33.842 0.127 -27 -0.625 C-25.275 -0.826 -25.275 -0.826 -23.516 -1.031 C-15.104 -1.981 -8.109 -2.648 0 0 Z " fill="#0E0E0E" transform="translate(95,193)"/>
<path d="M0 0 C1.266 -0.008 2.532 -0.015 3.836 -0.023 C9.959 -0.011 15.365 0.083 21.125 2.25 C21.125 2.91 21.125 3.57 21.125 4.25 C21.785 4.25 22.445 4.25 23.125 4.25 C23.125 5.24 23.125 6.23 23.125 7.25 C24.115 7.58 25.105 7.91 26.125 8.25 C26.62 13.695 26.62 13.695 27.125 19.25 C28.078 19.481 29.03 19.711 30.012 19.949 C31.266 20.275 32.52 20.601 33.812 20.938 C35.054 21.251 36.295 21.564 37.574 21.887 C41.473 23.384 43.413 25.123 46.125 28.25 C43.259 27.121 40.438 25.943 37.625 24.688 C28.516 20.946 19.552 22.099 9.977 23.4 C3.873 24.209 -2.237 24.715 -8.375 25.188 C-17.977 25.928 -27.5 27.005 -37.033 28.373 C-41.967 29.046 -45.949 29.271 -50.875 28.25 C-51.865 28.58 -52.855 28.91 -53.875 29.25 C-54.853 23.422 -55.187 18.864 -52.875 13.25 C-50.576 10.414 -48.33 8.469 -44.875 7.25 C-41.625 7.125 -41.625 7.125 -38.875 7.25 C-38.875 6.59 -38.875 5.93 -38.875 5.25 C-25.932 1.359 -13.501 -0.084 0 0 Z " fill="#BFBFBF" transform="translate(217.875,54.75)"/>
<path d="M0 0 C0.66 0 1.32 0 2 0 C2 1.98 2 3.96 2 6 C1.34 6 0.68 6 0 6 C0 8.97 0 11.94 0 15 C-0.99 15.495 -0.99 15.495 -2 16 C-1.18 16.398 -0.36 16.797 0.484 17.207 C1.562 17.737 2.64 18.267 3.75 18.812 C4.817 19.335 5.885 19.857 6.984 20.395 C10 22 10 22 11.91 23.547 C14.913 25.635 18.205 26.469 21.688 27.438 C22.433 27.651 23.178 27.864 23.946 28.083 C30.613 29.959 37.336 31.566 44.09 33.098 C47.374 33.844 50.622 34.689 53.875 35.562 C58.983 36.866 64.105 37.667 69.312 38.438 C76.515 39.505 83.339 41.03 90.348 43.023 C95.47 44.393 100.64 45.345 105.855 46.289 C109 47 109 47 110.922 47.975 C113.087 49.043 115.034 49.589 117.387 50.113 C118.235 50.307 119.084 50.5 119.958 50.7 C120.859 50.902 121.759 51.104 122.688 51.312 C129.755 52.95 136.779 54.675 143.75 56.688 C144.83 56.991 144.83 56.991 145.932 57.3 C147.641 57.804 149.325 58.394 151 59 C151.33 59.66 151.66 60.32 152 61 C153.992 61.38 155.994 61.706 158 62 C162.001 63.138 165.931 64.489 169.875 65.812 C170.926 66.156 171.976 66.5 173.059 66.854 C178.997 68.834 184.461 71.089 190 74 C191.489 74.631 192.988 75.24 194.5 75.812 C204.521 79.737 214.453 84.028 224 89 C224 89.99 224 90.98 224 92 C218.73 90.667 214.239 88.771 209.438 86.25 C202.091 82.489 194.639 79.134 187 76 C186.382 75.745 185.765 75.49 185.128 75.227 C176.853 71.814 168.52 68.75 160 66 C158.178 65.383 156.355 64.765 154.534 64.146 C147.781 61.86 140.991 59.813 134.121 57.898 C131.603 57.173 129.154 56.38 126.688 55.5 C121.673 53.775 116.518 52.662 111.356 51.48 C107.414 50.576 103.513 49.618 99.625 48.5 C89.106 45.577 78.303 43.641 67.594 41.551 C65.613 41.162 63.633 40.773 61.652 40.384 C59.747 40.012 57.841 39.647 55.934 39.282 C48.567 37.839 41.396 36.073 34.205 33.91 C30.908 32.974 27.608 32.246 24.25 31.562 C18.266 30.225 13.336 27.96 8 25 C3.736 22.808 -0.495 20.66 -5 19 C-5.99 18.629 -6.98 18.257 -8 17.875 C-12.623 16.527 -14.783 16.367 -19.125 18.625 C-22.233 21.192 -23.488 23.303 -25 27 C-25.66 27 -26.32 27 -27 27 C-26.477 24.237 -25.891 21.674 -25 19 C-24.34 18.67 -23.68 18.34 -23 18 C-24.65 18 -26.3 18 -28 18 C-27.67 17.34 -27.34 16.68 -27 16 C-21.421 14.46 -15.776 13.848 -10 14 C-9.67 13.67 -9.34 13.34 -9 13 C-15.6 13.66 -22.2 14.32 -29 15 C-28 13 -28 13 -25 12 C-21.676 11.655 -18.338 11.535 -15 11.375 C-14.085 11.323 -13.17 11.272 -12.227 11.219 C-11.347 11.175 -10.468 11.131 -9.562 11.086 C-8.759 11.045 -7.956 11.004 -7.129 10.962 C-5 11 -5 11 -2 12 C-2.33 9.69 -2.66 7.38 -3 5 C-4.632 5.108 -4.632 5.108 -6.297 5.219 C-14.877 5.768 -23.398 6.149 -32 6 C-31 4 -31 4 -29.345 3.381 C-26.362 2.896 -23.507 2.889 -20.484 2.902 C-19.234 2.906 -17.984 2.909 -16.695 2.912 C-14.742 2.925 -14.742 2.925 -12.75 2.938 C-10.774 2.944 -10.774 2.944 -8.758 2.951 C-5.505 2.963 -2.253 2.979 1 3 C0.505 1.515 0.505 1.515 0 0 Z " fill="#020202" transform="translate(93,193)"/>
<path d="M0 0 C0.33 0.99 0.66 1.98 1 3 C3.975 4.158 3.975 4.158 7 5 C8 6 8 6 8.062 9.562 C8.042 10.697 8.021 11.831 8 13 C7.598 12.072 7.598 12.072 7.188 11.125 C6.044 8.7 6.044 8.7 3 7 C3.33 6.67 3.66 6.34 4 6 C-1.88 4.382 -7.618 3.823 -13.703 3.852 C-14.44 3.854 -15.176 3.856 -15.935 3.858 C-24.592 3.94 -33.191 4.641 -41.812 5.375 C-43.486 5.513 -45.159 5.65 -46.833 5.786 C-58.235 6.727 -69.627 7.757 -81 9 C-71.149 8.507 -61.369 7.544 -51.562 6.5 C-15.807 2.721 -15.807 2.721 1 5 C1 5.33 1 5.66 1 6 C0.002 5.977 -0.995 5.954 -2.023 5.93 C-21.89 5.623 -41.677 7.776 -61.424 9.746 C-64.162 10.016 -66.901 10.276 -69.641 10.535 C-71.469 10.711 -73.297 10.887 -75.125 11.062 C-75.973 11.142 -76.821 11.221 -77.695 11.303 C-80.951 11.621 -83.885 11.962 -87 13 C-102.652 15.272 -118.468 15.366 -134.252 15.57 C-142.811 15.701 -151.062 16.108 -159.53 17.483 C-163.441 18.066 -167.338 18.43 -171.277 18.746 C-172.34 18.833 -172.34 18.833 -173.424 18.921 C-176.32 19.155 -179.215 19.383 -182.111 19.602 C-195.079 20.593 -207.69 22.26 -220.047 26.547 C-222 27 -222 27 -225 26 C-225.33 25.34 -225.66 24.68 -226 24 C-224.344 23.618 -222.675 23.286 -221 23 C-220.67 23.33 -220.34 23.66 -220 24 C-217.69 23.34 -215.38 22.68 -213 22 C-213.33 21.34 -213.66 20.68 -214 20 C-206.384 18.19 -198.833 16.729 -191.062 15.812 C-190.366 15.729 -189.669 15.645 -188.951 15.559 C-184.599 15.075 -180.369 14.926 -176 15 C-176 13.02 -176 11.04 -176 9 C-175.01 9 -174.02 9 -173 9 C-172.34 8.67 -171.68 8.34 -171 8 C-170.505 9.485 -170.505 9.485 -170 11 C-169.34 10.01 -168.68 9.02 -168 8 C-166 10 -166 10 -166 13 C-165.032 12.917 -165.032 12.917 -164.045 12.832 C-148.618 11.536 -133.248 10.703 -117.774 10.342 C-110.994 10.177 -104.221 9.962 -97.449 9.598 C-96.188 9.532 -94.927 9.466 -93.628 9.399 C-90.001 9.104 -90.001 9.104 -86.616 8.027 C-82.301 6.801 -78.147 6.361 -73.691 5.965 C-72.365 5.839 -72.365 5.839 -71.011 5.712 C-69.143 5.536 -67.275 5.364 -65.406 5.195 C-62.602 4.941 -59.798 4.677 -56.994 4.412 C-42.601 3.065 -28.219 1.809 -13.75 1.875 C-12.854 1.871 -11.958 1.867 -11.035 1.863 C-10.173 1.865 -9.31 1.866 -8.422 1.867 C-7.665 1.868 -6.908 1.869 -6.128 1.871 C-3.973 2.002 -2.072 2.409 0 3 C0 2.01 0 1.02 0 0 Z " fill="#383838" transform="translate(268,89)"/>
<path d="M0 0 C1.425 0.015 2.85 0.029 4.275 0.041 C7.705 0.073 11.134 0.125 14.562 0.188 C14.562 0.517 14.562 0.847 14.562 1.188 C2.188 1.682 2.188 1.682 -10.438 2.188 C-3.332 2.148 -3.332 2.148 3.773 2.097 C4.659 2.095 5.544 2.092 6.457 2.09 C7.363 2.085 8.269 2.079 9.202 2.074 C11.562 2.188 11.562 2.188 14.562 3.188 C14.562 3.847 14.562 4.508 14.562 5.188 C15.553 5.517 16.543 5.847 17.562 6.188 C16.62 6.028 15.678 5.868 14.707 5.703 C-6.865 2.652 -32.351 5.683 -51.547 16.234 C-53.438 17.188 -53.438 17.188 -55.438 17.188 C-55.438 17.847 -55.438 18.507 -55.438 19.188 C-54.785 18.85 -54.133 18.512 -53.461 18.164 C-46.274 14.496 -40.65 11.891 -32.488 12.215 C-30.235 12.289 -30.235 12.289 -27.438 11.188 C-28.428 10.858 -29.417 10.528 -30.438 10.188 C-29.774 10.055 -29.11 9.922 -28.426 9.785 C-27.101 9.52 -27.101 9.52 -25.75 9.25 C-23.979 8.896 -22.208 8.542 -20.438 8.188 C-19.335 7.926 -19.335 7.926 -18.211 7.66 C-14.894 7.095 -11.752 7.076 -8.387 7.09 C-7.728 7.091 -7.069 7.093 -6.39 7.094 C-4.302 7.1 -2.213 7.112 -0.125 7.125 C1.298 7.13 2.72 7.135 4.143 7.139 C7.616 7.15 11.089 7.167 14.562 7.188 C13.903 8.507 13.243 9.828 12.562 11.188 C13.882 11.517 15.202 11.847 16.562 12.188 C14.016 13.461 13.253 12.908 10.562 12.188 C-2.361 11.202 -14.833 12.42 -27.438 15.188 C-28.645 15.427 -29.853 15.667 -31.098 15.914 C-37.463 17.244 -42.78 18.971 -48.438 22.188 C-42.779 21.714 -37.135 21.16 -31.494 20.503 C-23.215 19.542 -14.937 18.814 -6.625 18.188 C1.852 17.546 10.198 16.751 18.562 15.188 C18.562 14.198 18.562 13.207 18.562 12.188 C19.553 12.188 20.543 12.188 21.562 12.188 C22.058 13.672 22.058 13.672 22.562 15.188 C26.015 16.335 29.503 17.107 33.047 17.93 C36.983 19.338 38.855 21.056 41.562 24.188 C38.697 23.059 35.876 21.881 33.062 20.625 C23.954 16.884 14.989 18.036 5.415 19.337 C-0.689 20.146 -6.799 20.652 -12.938 21.125 C-22.54 21.865 -32.062 22.942 -41.596 24.31 C-46.53 24.984 -50.511 25.208 -55.438 24.188 C-56.428 24.517 -57.417 24.847 -58.438 25.188 C-59.438 19.224 -59.504 14.9 -57.438 9.188 C-57.107 10.177 -56.778 11.168 -56.438 12.188 C-55.721 11.738 -55.004 11.288 -54.266 10.824 C-46.868 6.543 -39.951 4.629 -31.438 5.188 C-31.438 4.528 -31.438 3.867 -31.438 3.188 C-20.773 0.625 -10.929 -0.206 0 0 Z " fill="#171717" transform="translate(222.4375,58.8125)"/>
<path d="M0 0 C2.565 2.565 2.54 4.477 3 8 C0.525 8.99 0.525 8.99 -2 10 C-2.33 8.35 -2.66 6.7 -3 5 C-3.763 4.856 -4.526 4.711 -5.312 4.562 C-8 4 -8 4 -11 3 C-15.246 2.761 -19.498 2.815 -23.75 2.812 C-24.899 2.8 -26.047 2.788 -27.23 2.775 C-34.671 2.763 -41.802 3.398 -49.161 4.472 C-53.08 5.011 -56.998 5.409 -60.938 5.746 C-61.601 5.804 -62.264 5.862 -62.947 5.921 C-65.637 6.154 -68.329 6.383 -71.021 6.602 C-79.684 7.313 -88.036 8.532 -96.548 10.32 C-104.868 11.959 -113.01 12.066 -121.466 11.935 C-139.79 11.654 -157.844 12.899 -176.077 14.633 C-179.325 14.937 -182.572 15.213 -185.824 15.469 C-200.827 16.717 -221.199 18.425 -232.438 29.375 C-235.164 33.956 -237 37.616 -237 43 C-238.32 42.67 -239.64 42.34 -241 42 C-240.971 35.767 -239.825 31.531 -235.781 26.715 C-223.358 14.755 -200.303 14.796 -184.125 13.5 C-181.211 13.265 -178.296 13.026 -175.383 12.781 C-174.666 12.721 -173.949 12.661 -173.21 12.6 C-168.831 12.216 -164.525 11.642 -160.184 10.938 C-152.011 9.709 -143.864 9.643 -135.616 9.536 C-111.483 10.095 -111.483 10.095 -88 6 C-86.196 5.739 -84.386 5.516 -82.574 5.316 C-81.479 5.194 -80.384 5.072 -79.256 4.947 C-78.078 4.82 -76.901 4.693 -75.688 4.562 C-74.47 4.431 -73.252 4.299 -71.998 4.163 C-68.333 3.769 -64.666 3.383 -61 3 C-59.52 2.843 -59.52 2.843 -58.01 2.682 C-42.696 1.075 -27.388 0.434 -12 0 C-21.864 -0.219 -31.568 0.365 -41.392 1.172 C-43.864 1.374 -46.336 1.567 -48.809 1.758 C-57.507 2.447 -66.13 3.329 -74.762 4.607 C-79.516 5.184 -84.221 5.179 -89 5 C-86.219 3.46 -83.997 2.705 -80.837 2.422 C-80.024 2.345 -79.212 2.268 -78.376 2.189 C-77.066 2.078 -77.066 2.078 -75.73 1.965 C-74.361 1.839 -74.361 1.839 -72.963 1.712 C-70.039 1.446 -67.113 1.192 -64.188 0.938 C-62.261 0.763 -60.335 0.588 -58.408 0.412 C-10.942 -3.879 -10.942 -3.879 0 0 Z " fill="#FEFEFE" transform="translate(272,94)"/>
<path d="M0 0 C5.242 3.863 5.915 7.772 6.934 14.062 C7.01 17.433 6.879 19.179 5 22 C2.449 22.867 0.375 23.372 -2.25 23.75 C-3.234 23.918 -3.234 23.918 -4.238 24.09 C-6.155 24.414 -8.078 24.707 -10 25 C-12 25.332 -14 25.665 -16 26 C-15.965 25.383 -15.93 24.765 -15.895 24.129 C-15.669 17.081 -16.842 11.316 -20 5 C-19.145 4.826 -19.145 4.826 -18.272 4.649 C-15.701 4.124 -13.132 3.593 -10.562 3.062 C-9.665 2.88 -8.767 2.698 -7.842 2.51 C-6.988 2.333 -6.134 2.155 -5.254 1.973 C-4.463 1.81 -3.672 1.648 -2.858 1.481 C-0.998 1.167 -0.998 1.167 0 0 Z " fill="#FFFFFF" transform="translate(268,181)"/>
<path d="M0 0 C0.907 -0.021 1.815 -0.041 2.75 -0.062 C8.739 -0.097 13.19 0.676 18.625 3.25 C19.12 4.24 19.12 4.24 19.625 5.25 C7.035 7.007 -5.532 8.523 -18.204 9.546 C-25.14 10.114 -32.012 10.908 -38.902 11.883 C-42.771 12.292 -46.487 12.31 -50.375 12.25 C-43.254 3.684 -26.789 2.829 -16.375 1.25 C-15.434 1.064 -14.493 0.879 -13.523 0.688 C-9.013 0.061 -4.549 0.026 0 0 Z " fill="#FFFFFF" transform="translate(222.375,69.75)"/>
<path d="M0 0 C0 0.66 0 1.32 0 2 C-1.027 2.182 -2.055 2.364 -3.113 2.551 C-10.471 3.877 -17.689 5.307 -24.863 7.449 C-27 8 -27 8 -30 8 C-29.01 11.465 -29.01 11.465 -28 15 C-25.03 15.33 -22.06 15.66 -19 16 C-20.98 15.34 -22.96 14.68 -25 14 C-24.423 13.876 -23.845 13.752 -23.25 13.625 C-21.008 13.096 -21.008 13.096 -19.188 12 C-16.642 10.836 -14.533 10.595 -11.75 10.375 C-10.412 10.263 -10.412 10.263 -9.047 10.148 C-8.371 10.099 -7.696 10.05 -7 10 C-10.006 13.006 -12.824 12.596 -17 13 C-16.505 13.495 -16.505 13.495 -16 14 C-14.475 13.911 -12.953 13.755 -11.438 13.562 C-10.611 13.461 -9.785 13.359 -8.934 13.254 C-8.296 13.17 -7.657 13.086 -7 13 C-9 15 -9 15 -13 16 C-12.505 20.455 -12.505 20.455 -12 25 C-11.01 24.67 -10.02 24.34 -9 24 C-6.659 24.278 -4.324 24.605 -2 25 C-2 25.66 -2 26.32 -2 27 C-3.623 27.222 -5.249 27.427 -6.875 27.625 C-8.232 27.799 -8.232 27.799 -9.617 27.977 C-10.797 27.988 -10.797 27.988 -12 28 C-15.006 24.994 -14.596 22.176 -15 18 C-19.95 18 -24.9 18 -30 18 C-30.99 15.03 -30.99 15.03 -32 12 C-38.58 12.093 -45.159 12.201 -51.739 12.317 C-53.971 12.355 -56.204 12.39 -58.436 12.422 C-74.857 12.608 -74.857 12.608 -91.141 14.53 C-95.428 15.235 -99.735 15.484 -104.066 15.781 C-107.735 16.055 -111.356 16.5 -115 17 C-112.147 14.675 -109.459 13.249 -106 12 C-106 12.66 -106 13.32 -106 14 C-105.341 13.914 -104.682 13.829 -104.003 13.74 C-80.966 10.762 -80.966 10.762 -71.488 10.211 C-68.947 10.049 -68.947 10.049 -66.293 9.414 C-64 9 -64 9 -62 10 C-59.968 10.085 -57.933 10.107 -55.898 10.098 C-54.081 10.093 -54.081 10.093 -52.227 10.088 C-50.956 10.08 -49.685 10.071 -48.375 10.062 C-46.457 10.056 -46.457 10.056 -44.5 10.049 C-41.333 10.037 -38.167 10.021 -35 10 C-35.041 9.051 -35.082 8.102 -35.125 7.125 C-35 4 -35 4 -33 2 C-30.375 1.875 -30.375 1.875 -28 2 C-28.619 2.268 -29.238 2.536 -29.875 2.812 C-32.3 3.956 -32.3 3.956 -34 7 C-33.105 6.662 -32.211 6.325 -31.289 5.977 C-20.708 2.073 -11.35 -0.435 0 0 Z " fill="#000000" transform="translate(236,180)"/>
<path d="M0 0 C0 0.99 0 1.98 0 3 C2.721 7.082 5.844 9.45 10 12 C7.638 14.362 6.906 14.321 3.676 14.598 C2.811 14.677 1.947 14.756 1.057 14.838 C0.151 14.912 -0.754 14.986 -1.688 15.062 C-3.462 15.219 -5.237 15.376 -7.012 15.535 C-7.866 15.61 -8.721 15.685 -9.601 15.762 C-11.675 15.968 -13.742 16.254 -15.805 16.555 C-18.737 16.963 -21.482 17.103 -24.438 17.062 C-25.735 17.049 -25.735 17.049 -27.059 17.035 C-28.02 17.018 -28.02 17.018 -29 17 C-29 16.34 -29 15.68 -29 15 C-27.355 13.527 -27.355 13.527 -25.188 11.938 C-24.48 11.41 -23.772 10.883 -23.043 10.34 C-21 9 -21 9 -18 8 C-18 7.34 -18 6.68 -18 6 C-12.306 0.442 -7.912 -0.188 0 0 Z " fill="#FFFFFF" transform="translate(159,177)"/>
<path d="M0 0 C0.99 0 1.98 0 3 0 C4.694 3.389 3.995 7.228 3.879 10.945 C3.855 11.83 3.832 12.715 3.807 13.627 C3.731 16.46 3.647 19.292 3.562 22.125 C3.509 24.043 3.457 25.961 3.404 27.879 C3.275 32.586 3.139 37.293 3 42 C3.66 42 4.32 42 5 42 C5 46.62 5 51.24 5 56 C4.67 56 4.34 56 4 56 C4 51.71 4 47.42 4 43 C1.36 43 -1.28 43 -4 43 C-3.67 43.33 -3.34 43.66 -3 44 C-2.175 44 -1.35 44 -0.5 44 C0.325 44 1.15 44 2 44 C3 45 3 45 3.022 47.041 C2.975 47.916 2.927 48.79 2.879 49.691 C2.831 50.636 2.782 51.58 2.732 52.553 C2.648 54.043 2.648 54.043 2.562 55.562 C2.51 56.56 2.458 57.557 2.404 58.584 C2.274 61.056 2.139 63.528 2 66 C1.34 65.67 0.68 65.34 0 65 C0.33 58.4 0.66 51.8 1 45 C0.01 45 -0.98 45 -2 45 C-2.061 45.99 -2.121 46.98 -2.184 48 C-2.605 54.695 -3.051 61.355 -4 68 C-4.33 68 -4.66 68 -5 68 C-5 59.42 -5 50.84 -5 42 C-4.01 41.505 -4.01 41.505 -3 41 C-2.945 39.794 -2.889 38.587 -2.832 37.344 C-2.626 32.884 -2.414 28.425 -2.2 23.965 C-2.109 22.032 -2.018 20.099 -1.93 18.165 C-1.803 15.393 -1.67 12.62 -1.535 9.848 C-1.477 8.543 -1.477 8.543 -1.418 7.212 C-1.114 1.114 -1.114 1.114 0 0 Z " fill="#000000" transform="translate(292,108)"/>
<path d="M0 0 C0 1.98 0 3.96 0 6 C-6.286 7.963 -12.552 8.929 -19.061 9.855 C-23.568 10.526 -27.71 11.387 -32 13 C-30.68 13 -29.36 13 -28 13 C-28 13.66 -28 14.32 -28 15 C-30.97 15 -33.94 15 -37 15 C-38.257 12.094 -39 10.204 -39 7 C-36.548 6.26 -34.095 5.523 -31.641 4.793 C-29.65 4.195 -27.667 3.572 -25.688 2.938 C-17.191 0.777 -8.758 -0.297 0 0 Z " fill="#FCFCFC" transform="translate(245,181)"/>
<path d="M0 0 C1.815 3.858 2.094 6.767 2 11 C-6.717 12.211 -15.176 13.276 -24 13 C-24.66 9.7 -25.32 6.4 -26 3 C-19.25 2 -19.25 2 -17 2 C-15.248 1.679 -13.498 1.344 -11.75 1 C-7.767 0.257 -4.067 -0.22 0 0 Z " fill="#FCFCFC" transform="translate(248,192)"/>
<path d="M0 0 C0.495 3.465 0.495 3.465 1 7 C0.033 7.03 0.033 7.03 -0.953 7.06 C-3.927 7.156 -6.901 7.266 -9.875 7.375 C-10.888 7.406 -11.901 7.437 -12.945 7.469 C-18.75 7.692 -24.219 8.27 -29.885 9.572 C-32.613 10.124 -35.227 10.146 -38 10 C-38 8.02 -38 6.04 -38 4 C-25.804 -0.897 -12.916 -0.138 0 0 Z " fill="#FFFFFF" transform="translate(90,198)"/>
<path d="M0 0 C1.425 0.015 2.85 0.029 4.275 0.041 C7.705 0.073 11.134 0.125 14.562 0.188 C14.562 0.517 14.562 0.847 14.562 1.188 C2.188 1.682 2.188 1.682 -10.438 2.188 C-3.332 2.148 -3.332 2.148 3.773 2.097 C4.659 2.095 5.544 2.092 6.457 2.09 C7.363 2.085 8.269 2.079 9.202 2.074 C11.562 2.188 11.562 2.188 14.562 3.188 C14.562 3.847 14.562 4.508 14.562 5.188 C15.553 5.517 16.543 5.847 17.562 6.188 C16.62 6.028 15.678 5.868 14.707 5.703 C-7.931 2.501 -35.875 5.879 -55.438 18.188 C-56.097 19.177 -56.757 20.168 -57.438 21.188 C-56 13.587 -56 13.587 -53.062 11.5 C-50.438 10.188 -50.438 10.188 -47.438 10.188 C-47.107 9.198 -46.778 8.207 -46.438 7.188 C-41.5 4.842 -36.773 4.974 -31.438 5.188 C-31.438 4.528 -31.438 3.867 -31.438 3.188 C-20.773 0.625 -10.929 -0.206 0 0 Z " fill="#0C0C0C" transform="translate(222.4375,58.8125)"/>
<path d="M0 0 C0.936 -0.009 1.872 -0.019 2.836 -0.028 C8.135 -0.004 12.551 0.513 17.562 2.25 C17.562 2.91 17.562 3.57 17.562 4.25 C16.626 4.24 15.689 4.229 14.724 4.218 C11.19 4.184 7.656 4.159 4.123 4.14 C2.604 4.13 1.085 4.117 -0.433 4.099 C-9.654 3.996 -18.369 4.304 -27.438 6.25 C-25.127 6.25 -22.817 6.25 -20.438 6.25 C-23.278 7.831 -25.582 8.569 -28.812 8.875 C-29.542 8.95 -30.272 9.025 -31.023 9.102 C-33.438 9.25 -33.438 9.25 -36.344 9.121 C-39.928 9.27 -42.304 10.216 -45.562 11.688 C-48.841 13.152 -51.915 14.517 -55.438 15.25 C-55.438 14.59 -55.438 13.93 -55.438 13.25 C-45.624 7.791 -36.425 4.432 -25.438 2.25 C-24.331 2.024 -23.225 1.799 -22.086 1.566 C-14.722 0.292 -7.461 0.052 0 0 Z " fill="#FBFBFB" transform="translate(222.4375,62.75)"/>
<path d="M0 0 C1.98 0 3.96 0 6 0 C6.33 1.65 6.66 3.3 7 5 C7.66 5 8.32 5 9 5 C9.33 3.35 9.66 1.7 10 0 C12.375 -0.188 12.375 -0.188 15 0 C17.712 4.068 17.307 6.165 17 11 C15 13 15 13 12.375 13.125 C11.591 13.084 10.808 13.043 10 13 C9.67 11.35 9.34 9.7 9 8 C8.34 8 7.68 8 7 8 C6.67 9.65 6.34 11.3 6 13 C4.02 13 2.04 13 0 13 C-2.448 7.959 -1.718 5.155 0 0 Z " fill="#000000" transform="translate(252,291)"/>
<path d="M0 0 C2.136 3.204 2.231 4.019 2.125 7.688 C2.107 8.496 2.089 9.304 2.07 10.137 C2.047 10.752 2.024 11.366 2 12 C6.25 11.189 10.5 10.376 14.75 9.562 C15.957 9.332 17.163 9.102 18.406 8.865 C19.566 8.643 20.727 8.421 21.922 8.191 C22.99 7.987 24.058 7.783 25.159 7.573 C26.863 7.229 28.561 6.858 30.246 6.432 C32.299 5.926 34.14 5.902 36.25 5.938 C38.106 5.968 38.106 5.968 40 6 C39.67 6.66 39.34 7.32 39 8 C36.782 8.638 36.782 8.638 33.855 9.184 C32.785 9.389 31.714 9.595 30.611 9.807 C29.481 10.015 28.352 10.223 27.188 10.438 C12.176 12.873 12.176 12.873 -2 18 C-3.951 18.239 -5.912 18.4 -7.875 18.5 C-12.273 18.794 -15.839 19.514 -20 21 C-23.375 21.125 -23.375 21.125 -26 21 C-22.767 16.15 -17.496 16.114 -12 15 C-4.866 13.711 -4.866 13.711 -1 15 C0.001 11.689 0.104 8.699 0.062 5.25 C0.053 4.265 0.044 3.28 0.035 2.266 C0.024 1.518 0.012 0.77 0 0 Z " fill="#000000" transform="translate(278,188)"/>
<path d="M0 0 C1.386 0.01 2.772 0.019 4.158 0.027 C7.501 0.051 10.844 0.083 14.188 0.125 C13.528 1.445 12.868 2.765 12.188 4.125 C13.507 4.455 14.827 4.785 16.188 5.125 C13.641 6.398 12.878 5.845 10.188 5.125 C-2.785 4.135 -15.14 5.539 -27.812 8.125 C-30.857 8.628 -33.726 8.963 -36.812 9.125 C-37.472 8.465 -38.132 7.805 -38.812 7.125 C-31.882 5.64 -31.882 5.64 -24.812 4.125 C-26.792 4.125 -28.773 4.125 -30.812 4.125 C-24.294 -2.393 -8.596 -0.11 0 0 Z " fill="#000000" transform="translate(222.8125,65.875)"/>
<path d="M0 0 C-3.456 2.304 -5.974 2.741 -10.047 3.508 C-10.736 3.638 -11.426 3.769 -12.136 3.903 C-13.595 4.177 -15.054 4.447 -16.514 4.714 C-18.73 5.121 -20.943 5.542 -23.156 5.965 C-24.578 6.23 -26 6.494 -27.422 6.758 C-28.707 6.996 -29.992 7.235 -31.315 7.481 C-34.932 7.99 -38.353 8.094 -42 8 C-42.33 8.66 -42.66 9.32 -43 10 C-43 9.34 -43 8.68 -43 8 C-43.99 8.33 -44.98 8.66 -46 9 C-45.526 10.072 -45.051 11.145 -44.562 12.25 C-42.4 17.351 -41.687 21.367 -42 27 C-42.66 27.66 -43.32 28.32 -44 29 C-43.959 28.031 -43.918 27.061 -43.875 26.062 C-43.898 20.387 -44.432 14.891 -48.125 10.438 C-48.744 9.963 -49.363 9.489 -50 9 C-50.33 9.33 -50.66 9.66 -51 10 C-53 10.041 -55 10.043 -57 10 C-55.545 7.091 -53.284 6.633 -50.344 5.582 C-47.926 4.982 -46.045 4.941 -43.566 5.066 C-37.001 5.158 -30.79 3.848 -24.375 2.562 C-4.174 -1.391 -4.174 -1.391 0 0 Z " fill="#000000" transform="translate(318,173)"/>
<path d="M0 0 C0 3.908 -1.506 5.116 -4 8 C1.141 7.594 6.283 7.185 11.424 6.773 C13.17 6.634 14.917 6.495 16.664 6.357 C19.184 6.158 21.703 5.956 24.223 5.754 C24.996 5.693 25.769 5.633 26.566 5.571 C31.075 5.205 35.522 4.657 40 4 C41.812 3.938 43.625 3.913 45.438 3.938 C46.735 3.951 46.735 3.951 48.059 3.965 C48.699 3.976 49.34 3.988 50 4 C49.67 4.66 49.34 5.32 49 6 C45.506 7.165 42.151 7.405 38.508 7.684 C36.982 7.808 35.456 7.932 33.93 8.057 C31.543 8.247 29.156 8.435 26.77 8.622 C10.908 9.034 10.908 9.034 -4 13 C-5.677 12.721 -7.346 12.392 -9 12 C-8.34 11.67 -7.68 11.34 -7 11 C-6.732 10.278 -6.464 9.556 -6.188 8.812 C-4.668 5.213 -2.583 2.922 0 0 Z " fill="#040404" transform="translate(149,167)"/>
<path d="M0 0 C-0.33 0.99 -0.66 1.98 -1 3 C-5.82 4.607 -10.828 4.669 -15.875 5.062 C-17.566 5.197 -17.566 5.197 -19.291 5.333 C-26.882 5.908 -34.386 6.272 -42 6 C-42 5.01 -42 4.02 -42 3 C-27.925 0.979 -14.226 -0.485 0 0 Z " fill="#565656" transform="translate(127,140)"/>
<path d="M0 0 C0 0.99 0 1.98 0 3 C0.99 3.33 1.98 3.66 3 4 C3.195 10.055 3.195 10.055 3 12 C2.34 12.66 1.68 13.32 1 14 C-1.31 13.01 -3.62 12.02 -6 11 C-6 10.34 -6 9.68 -6 9 C-14.91 9 -23.82 9 -33 9 C-33 8.67 -33 8.34 -33 8 C-28.764 7.832 -24.529 7.672 -20.292 7.518 C-18.851 7.464 -17.41 7.409 -15.968 7.352 C-13.898 7.27 -11.828 7.195 -9.758 7.121 C-7.888 7.05 -7.888 7.05 -5.981 6.978 C-3 7 -3 7 -1 8 C-1 7.01 -1 6.02 -1 5 C-1.99 5 -2.98 5 -4 5 C-4 4.34 -4 3.68 -4 3 C-15.55 3 -27.1 3 -39 3 C-39 2.67 -39 2.34 -39 2 C-34.84 1.019 -30.85 0.804 -26.582 0.684 C-25.534 0.652 -25.534 0.652 -24.465 0.621 C-22.248 0.556 -20.03 0.497 -17.812 0.438 C-16.311 0.394 -14.809 0.351 -13.307 0.307 C-2.695 0 -2.695 0 0 0 Z " fill="#C5C5C5" transform="translate(241,59)"/>
<path d="M0 0 C0 0.99 0 1.98 0 3 C-9.959 4.394 -19.891 5.275 -29.938 5.75 C-30.998 5.807 -32.058 5.863 -33.15 5.922 C-34.636 5.984 -34.636 5.984 -36.152 6.047 C-37.483 6.106 -37.483 6.106 -38.84 6.167 C-41 6 -41 6 -43 4 C-39.613 2.513 -36.689 1.688 -33.008 1.367 C-32.062 1.283 -31.116 1.199 -30.141 1.113 C-29.146 1.034 -28.15 0.956 -27.125 0.875 C-26.106 0.79 -25.087 0.705 -24.037 0.618 C-16.004 -0.012 -8.054 -0.229 0 0 Z " fill="#4D4D4D" transform="translate(248,129)"/>
<path d="M0 0 C0.99 0 1.98 0 3 0 C3.99 1.485 3.99 1.485 5 3 C8.47 4.117 11.97 4.912 15.52 5.742 C19.428 7.155 21.305 8.889 24 12 C21.134 10.871 18.313 9.693 15.5 8.438 C6.391 4.696 -2.573 5.849 -12.148 7.15 C-18.252 7.959 -24.362 8.465 -30.5 8.938 C-40.131 9.68 -49.683 10.762 -59.246 12.123 C-60.19 12.251 -61.133 12.379 -62.105 12.512 C-62.932 12.63 -63.759 12.748 -64.61 12.87 C-67.242 13.013 -69.447 12.617 -72 12 C-66.072 10.363 -59.898 9.849 -53.812 9.062 C-53.124 8.973 -52.436 8.883 -51.728 8.791 C-41.264 7.436 -30.812 6.409 -20.287 5.653 C-13.111 5.128 -6.079 4.323 1 3 C0.505 1.515 0.505 1.515 0 0 Z " fill="#000000" transform="translate(240,71)"/>
<path d="M0 0 C0.495 1.485 0.495 1.485 1 3 C0.215 3.02 -0.571 3.04 -1.38 3.06 C-5.004 3.156 -8.627 3.266 -12.25 3.375 C-14.102 3.421 -14.102 3.421 -15.992 3.469 C-25.833 3.78 -35.734 4.397 -45 8 C-44.67 6.68 -44.34 5.36 -44 4 C-29.581 -0.389 -14.936 -0.283 0 0 Z " fill="#FFFFFF" transform="translate(93,193)"/>
<path d="M0 0 C0 0.99 0 1.98 0 3 C-0.86 3.067 -0.86 3.067 -1.737 3.136 C-15.103 4.212 -27.492 5.849 -40.16 10.449 C-42 11 -42 11 -45 11 C-44.379 9.129 -44.379 9.129 -43 7 C-30.234 1.432 -13.801 -0.718 0 0 Z " fill="#FFFFFF" transform="translate(247,176)"/>
<path d="M0 0 C0.99 0 1.98 0 3 0 C4.846 3.984 5.36 7.444 5.625 11.812 C5.7 12.974 5.775 14.135 5.852 15.332 C5.901 16.212 5.95 17.093 6 18 C6.66 18 7.32 18 8 18 C8.061 19.097 8.121 20.194 8.184 21.324 C8.268 22.779 8.353 24.233 8.438 25.688 C8.477 26.409 8.516 27.13 8.557 27.873 C8.619 28.932 8.619 28.932 8.684 30.012 C8.72 30.656 8.757 31.3 8.795 31.964 C9.033 34.331 9.533 36.667 10 39 C10 34.38 10 29.76 10 25 C13.762 28.762 12.877 34.913 13 40 C12.963 42.859 12.847 45.708 12.688 48.562 C12.653 49.241 12.618 49.919 12.583 50.618 C12.334 54.245 11.727 56.828 10 60 C9.92 59.316 9.839 58.632 9.756 57.927 C7.819 41.222 7.819 41.222 5.531 24.562 C5.094 21.627 4.682 18.691 4.281 15.75 C4.021 13.896 3.761 12.042 3.5 10.188 C3.381 9.296 3.263 8.404 3.141 7.485 C3.022 6.659 2.903 5.832 2.781 4.98 C2.679 4.237 2.576 3.493 2.471 2.727 C2.315 2.157 2.16 1.587 2 1 C1.34 0.67 0.68 0.34 0 0 Z " fill="#020202" transform="translate(266,99)"/>
<path d="M0 0 C2.625 -0.188 2.625 -0.188 5 0 C7.226 4.322 6.996 7.293 6 12 C5 13 5 13 2.562 13.188 C0 13 0 13 -2 11 C-2.464 3.696 -2.464 3.696 0 0 Z " fill="#000000" transform="translate(272,291)"/>
<path d="M0 0 C1.98 0 3.96 0 6 0 C7.462 4.385 8.449 7.52 7 12 C6 13 6 13 2.938 13.062 C1.968 13.042 0.999 13.021 0 13 C-1.016 8.371 -0.838 4.655 0 0 Z " fill="#272727" transform="translate(310,291)"/>
<path d="M0 0 C0.33 0 0.66 0 1 0 C1 13.2 1 26.4 1 40 C0.01 40 -0.98 40 -2 40 C-2.124 30.507 -1.952 21.048 -1.562 11.562 C-1.504 10.025 -1.504 10.025 -1.444 8.457 C-1.402 7.503 -1.36 6.549 -1.316 5.566 C-1.28 4.71 -1.243 3.853 -1.205 2.971 C-1 1 -1 1 0 0 Z " fill="#FFFFFF" transform="translate(293,109)"/>
<path d="M0 0 C0.33 0 0.66 0 1 0 C1.188 2.875 1.188 2.875 1 6 C-2.233 8.155 -3.83 8.418 -7.621 8.852 C-8.721 8.98 -9.822 9.109 -10.955 9.242 C-12.104 9.369 -13.253 9.495 -14.438 9.625 C-16.155 9.826 -16.155 9.826 -17.908 10.031 C-22.308 10.536 -26.567 11 -31 11 C-31 11.66 -31 12.32 -31 13 C-34.63 13 -38.26 13 -42 13 C-39.085 11.057 -37.929 10.65 -34.605 10.184 C-33.738 10.06 -32.871 9.936 -31.977 9.808 C-30.596 9.625 -30.596 9.625 -29.188 9.438 C-28.251 9.308 -27.314 9.179 -26.349 9.046 C-18.912 8.049 -11.497 7.365 -4 7 C-4 5.02 -4 3.04 -4 1 C-3.01 1 -2.02 1 -1 1 C-0.67 0.67 -0.34 0.34 0 0 Z " fill="#1D1D1D" transform="translate(96,97)"/>
<path d="M0 0 C1.454 0.031 1.454 0.031 2.938 0.062 C2.938 0.722 2.938 1.382 2.938 2.062 C1.947 2.392 0.958 2.722 -0.062 3.062 C-0.062 3.722 -0.062 4.382 -0.062 5.062 C-1.833 5.709 -3.604 6.355 -5.375 7 C-6.361 7.36 -7.347 7.719 -8.363 8.09 C-10.255 8.771 -12.155 9.427 -14.062 10.062 C-14.062 10.722 -14.062 11.382 -14.062 12.062 C-15.382 11.403 -16.702 10.743 -18.062 10.062 C-13.641 5.909 -9.736 3.218 -4.062 1.062 C-3.062 0.062 -3.062 0.062 0 0 Z " fill="#6B6B6B" transform="translate(186.0625,70.9375)"/>
<path d="M0 0 C0.99 0 1.98 0 3 0 C3.196 1.603 3.381 3.208 3.562 4.812 C3.667 5.706 3.771 6.599 3.879 7.52 C4 10 4 10 3 13 C2.01 13 1.02 13 0 13 C0 12.01 0 11.02 0 10 C-1.65 10 -3.3 10 -5 10 C-4.387 7.038 -3.746 5.619 -2 3 C-1.34 3 -0.68 3 0 3 C0 2.01 0 1.02 0 0 Z " fill="#121212" transform="translate(294,291)"/>
<path d="M0 0 C1.32 0 2.64 0 4 0 C9.656 13.963 9.656 13.963 7 20.438 C6.67 20.953 6.34 21.469 6 22 C5.01 21.67 4.02 21.34 3 21 C3.33 20.34 3.66 19.68 4 19 C4.487 13.034 3.052 8.486 1 3 C0.67 2.01 0.34 1.02 0 0 Z " fill="#FFFFFF" transform="translate(271,181)"/>
<path d="M0 0 C-0.33 1.32 -0.66 2.64 -1 4 C-1.33 3.01 -1.66 2.02 -2 1 C-3.65 1 -5.3 1 -7 1 C-7 2.32 -7 3.64 -7 5 C-4.69 5.33 -2.38 5.66 0 6 C0.625 7.812 0.625 7.812 1 10 C0.01 11.485 0.01 11.485 -1 13 C-4.625 13.188 -4.625 13.188 -8 13 C-8.66 11.35 -9.32 9.7 -10 8 C-9.01 8.33 -8.02 8.66 -7 9 C-7 9.66 -7 10.32 -7 11 C-4.527 10.656 -4.527 10.656 -2 10 C-1.67 9.34 -1.34 8.68 -1 8 C-1.763 7.876 -2.526 7.752 -3.312 7.625 C-6 7 -6 7 -9 5 C-8.625 2.562 -8.625 2.562 -8 0 C-5.138 -1.431 -3.066 -0.6 0 0 Z " fill="#000000" transform="translate(244,291)"/>
<path d="M0 0 C0.33 0.66 0.66 1.32 1 2 C0.67 2.99 0.34 3.98 0 5 C1.32 5.66 2.64 6.32 4 7 C3.113 7.474 2.226 7.949 1.312 8.438 C-3.911 11.915 -6.452 17.599 -7.812 23.562 C-7.874 24.367 -7.936 25.171 -8 26 C-8.66 25.34 -9.32 24.68 -10 24 C-9.889 18.547 -8.09 14.935 -5.344 10.289 C-3.381 6.945 -1.708 3.48 0 0 Z " fill="#000000" transform="translate(39,110)"/>
<path d="M0 0 C-3.042 3.402 -5.996 5.16 -10.125 7.062 C-14.79 9.141 -14.79 9.141 -18 13 C-17.477 10.237 -16.891 7.674 -16 5 C-13.855 3.648 -13.855 3.648 -11.188 2.375 C-10.315 1.95 -9.442 1.524 -8.543 1.086 C-2.764 -1.382 -2.764 -1.382 0 0 Z " fill="#5E5E5E" transform="translate(183,67)"/>
<path d="M0 0 C8.25 0 16.5 0 25 0 C25 0.66 25 1.32 25 2 C26.32 2.33 27.64 2.66 29 3 C26.438 4.281 25.726 3.696 23 3 C21.121 2.92 19.24 2.892 17.359 2.902 C15.754 2.907 15.754 2.907 14.117 2.912 C13.006 2.92 11.895 2.929 10.75 2.938 C9.623 2.942 8.497 2.947 7.336 2.951 C4.557 2.963 1.779 2.979 -1 3 C-0.67 2.01 -0.34 1.02 0 0 Z " fill="#000000" transform="translate(210,68)"/>
<path d="M0 0 C3.201 -0.337 5.929 0.09 9 1 C9 2.65 9 4.3 9 6 C5.491 6 2.435 5.625 -1 5 C-1.33 5.66 -1.66 6.32 -2 7 C-2.66 7 -3.32 7 -4 7 C-4 5.02 -4 3.04 -4 1 C-3.34 1.66 -2.68 2.32 -2 3 C-1.34 2.01 -0.68 1.02 0 0 Z " fill="#080808" transform="translate(105,147)"/>
<path d="M0 0 C2.5 0.125 2.5 0.125 3.5 1.125 C3.875 4 3.875 4 3.5 7.125 C1 9 1 9 -1.5 10.125 C0.15 10.455 1.8 10.785 3.5 11.125 C3.5 11.785 3.5 12.445 3.5 13.125 C0.86 13.125 -1.78 13.125 -4.5 13.125 C-4.159 9.974 -3.919 8.517 -1.562 6.312 C0.5 5.125 0.5 5.125 2.5 5.125 C2.17 4.465 1.84 3.805 1.5 3.125 C-0.669 3.631 -2.5 4.125 -4.5 5.125 C-3.381 0.169 -3.381 0.169 0 0 Z " fill="#000000" transform="translate(284.5,290.875)"/>
<path d="M0 0 C3.604 -0.029 7.208 -0.047 10.812 -0.062 C11.837 -0.071 12.861 -0.079 13.916 -0.088 C15.39 -0.093 15.39 -0.093 16.895 -0.098 C17.801 -0.103 18.706 -0.108 19.64 -0.114 C22 0 22 0 25 1 C25 1.66 25 2.32 25 3 C25.99 3.33 26.98 3.66 28 4 C27.081 3.847 26.162 3.693 25.215 3.535 C20.021 2.793 14.8 2.645 9.562 2.438 C8.545 2.394 7.527 2.351 6.479 2.307 C3.986 2.201 1.493 2.099 -1 2 C-0.67 1.34 -0.34 0.68 0 0 Z " fill="#000000" transform="translate(212,61)"/>
<path d="M0 0 C1.454 0.031 1.454 0.031 2.938 0.062 C2.938 0.723 2.938 1.382 2.938 2.062 C1.288 2.062 -0.363 2.062 -2.062 2.062 C-2.062 3.053 -2.062 4.043 -2.062 5.062 C-0.413 5.392 1.238 5.723 2.938 6.062 C3.562 7.875 3.562 7.875 3.938 10.062 C2.947 11.548 2.947 11.548 1.938 13.062 C-0.562 13.438 -0.562 13.438 -3.062 13.062 C-3.723 12.072 -4.382 11.082 -5.062 10.062 C-2.092 10.558 -2.092 10.558 0.938 11.062 C0.938 9.413 0.938 7.762 0.938 6.062 C-0.712 6.392 -2.363 6.723 -4.062 7.062 C-4.105 5.063 -4.103 3.062 -4.062 1.062 C-3.062 0.062 -3.062 0.062 0 0 Z " fill="#000000" transform="translate(304.0625,290.9375)"/>
<path d="M0 0 C2.375 -0.188 2.375 -0.188 5 0 C7.712 4.068 7.307 6.165 7 11 C5 13 5 13 2.375 13.125 C1.591 13.084 0.808 13.043 0 13 C-0.33 11.68 -0.66 10.36 -1 9 C1.475 9.495 1.475 9.495 4 10 C4 7.36 4 4.72 4 2 C3.01 2 2.02 2 1 2 C1 2.66 1 3.32 1 4 C0.34 4 -0.32 4 -1 4 C-0.67 2.68 -0.34 1.36 0 0 Z " fill="#000000" transform="translate(262,291)"/>
<path d="M0 0 C0.639 0.412 1.279 0.825 1.938 1.25 C-0.686 2.999 -3.257 4.447 -6.062 5.875 C-6.929 6.321 -7.795 6.767 -8.688 7.227 C-11.062 8.25 -11.062 8.25 -14.062 8.25 C-13.402 7.59 -12.743 6.93 -12.062 6.25 C-12.062 5.26 -12.062 4.27 -12.062 3.25 C-4.027 -0.986 -4.027 -0.986 0 0 Z " fill="#2E2E2E" transform="translate(296.0625,220.75)"/>
<path d="M0 0 C-0.99 0.495 -0.99 0.495 -2 1 C-1.34 1.66 -0.68 2.32 0 3 C-3.96 5.64 -7.92 8.28 -12 11 C-12 8 -12 8 -10 6 C-10.33 5.34 -10.66 4.68 -11 4 C-10.01 4 -9.02 4 -8 4 C-8 3.34 -8 2.68 -8 2 C-3.61 -1.203 -3.61 -1.203 0 0 Z " fill="#232323" transform="translate(258,241)"/>
<path d="M0 0 C0.99 0 1.98 0 3 0 C4.354 2.709 4.065 5.009 4 8 C2.062 8.562 2.062 8.562 0 9 C-1 8 -1 8 -1.125 5.062 C-1 2 -1 2 0 0 Z " fill="#FFFFFF" transform="translate(273,293)"/>
<path d="M0 0 C0.99 0 1.98 0 3 0 C4.354 2.709 4.065 5.009 4 8 C2.062 8.562 2.062 8.562 0 9 C-1 8 -1 8 -1.125 5.062 C-1 2 -1 2 0 0 Z " fill="#FFFFFF" transform="translate(263,293)"/>
<path d="M0 0 C0.33 1.32 0.66 2.64 1 4 C-0.56 4.366 -2.123 4.718 -3.688 5.062 C-4.558 5.26 -5.428 5.457 -6.324 5.66 C-9.16 6.02 -11.248 5.709 -14 5 C-10.99 3.383 -8.029 2.324 -4.75 1.375 C-3.412 0.984 -3.412 0.984 -2.047 0.586 C-1.371 0.393 -0.696 0.199 0 0 Z " fill="#3A3A3A" transform="translate(315,213)"/>
<path d="M0 0 C0.33 0.66 0.66 1.32 1 2 C-0.188 3.5 -0.188 3.5 -2 5 C-4.688 5.188 -4.688 5.188 -7 5 C-7 4.34 -7 3.68 -7 3 C-8.98 3.33 -10.96 3.66 -13 4 C-12 2 -12 2 -9.312 0.875 C-6.042 0.011 -3.363 -0.16 0 0 Z " fill="#2E2E2E" transform="translate(188,64)"/>
<path d="M0 0 C0.66 0.33 1.32 0.66 2 1 C-3.587 6.405 -6.997 7.935 -14.875 8.062 C-16.422 8.032 -16.422 8.032 -18 8 C-17.67 7.34 -17.34 6.68 -17 6 C-14.689 5.259 -12.352 4.598 -10 4 C-9.196 3.794 -8.391 3.588 -7.562 3.375 C-7.047 3.251 -6.531 3.127 -6 3 C-6.66 3.66 -7.32 4.32 -8 5 C-5.046 3.628 -2.56 2.011 0 0 Z " fill="#0D0D0D" transform="translate(280,230)"/>
<path d="M0 0 C2.125 0.375 2.125 0.375 4 1 C2.02 1.33 0.04 1.66 -2 2 C-1.34 1.34 -0.68 0.68 0 0 Z M-2 3 C-5.311 6.311 -8.703 9.09 -13 11 C-10.812 4.438 -10.812 4.438 -7.562 2.688 C-5 2 -5 2 -2 3 Z " fill="#060606" transform="translate(177,73)"/>
<path d="M0 0 C1.32 0 2.64 0 4 0 C4 2.97 4 5.94 4 9 C2.68 9 1.36 9 0 9 C0 6.03 0 3.06 0 0 Z " fill="#FFFFFF" transform="translate(253,293)"/>
<path d="M0 0 C0 0.66 0 1.32 0 2 C-0.99 2.33 -1.98 2.66 -3 3 C-3 3.66 -3 4.32 -3 5 C-8.75 6.125 -8.75 6.125 -11 5 C-11 4.34 -11 3.68 -11 3 C-7.28 0.155 -4.626 -0.323 0 0 Z " fill="#5A5A5A" transform="translate(189,71)"/>
<path d="M0 0 C-0.99 0.33 -1.98 0.66 -3 1 C-3.806 3.106 -3.806 3.106 -4.188 5.562 C-4.425 6.802 -4.425 6.802 -4.668 8.066 C-4.778 8.704 -4.887 9.343 -5 10 C-7 8 -7 8 -7.195 6.055 C-7.13 4.036 -7.065 2.018 -7 0 C-3.867 -1.044 -3.01 -0.934 0 0 Z " fill="#FFFFFF" transform="translate(71,211)"/>
<path d="M0 0 C0.99 0 1.98 0 3 0 C3.33 1.98 3.66 3.96 4 6 C1.69 6.33 -0.62 6.66 -3 7 C-3.33 5.02 -3.66 3.04 -4 1 C-3.01 1.33 -2.02 1.66 -1 2 C-0.67 1.34 -0.34 0.68 0 0 Z " fill="#000000" transform="translate(224,136)"/>
<path d="M0 0 C0 0.66 0 1.32 0 2 C-1.956 2.389 -3.915 2.761 -5.875 3.125 C-6.966 3.334 -8.056 3.543 -9.18 3.758 C-10.576 3.878 -10.576 3.878 -12 4 C-12.66 3.34 -13.32 2.68 -14 2 C-9.158 0.664 -5.066 -0.253 0 0 Z " fill="#080808" transform="translate(198,71)"/>
<path d="M0 0 C0 0.99 0 1.98 0 3 C0.99 3.33 1.98 3.66 3 4 C2.67 5.32 2.34 6.64 2 8 C2 7.34 2 6.68 2 6 C-0.97 5.505 -0.97 5.505 -4 5 C-4 3.68 -4 2.36 -4 1 C-2 0 -2 0 0 0 Z " fill="#383838" transform="translate(241,59)"/>
<path d="M0 0 C-2 2 -2 2 -4.383 2.195 C-5.288 2.172 -6.193 2.149 -7.125 2.125 C-8.49 2.098 -8.49 2.098 -9.883 2.07 C-10.581 2.047 -11.28 2.024 -12 2 C-11.67 1.34 -11.34 0.68 -11 0 C-7.011 -0.997 -3.968 -1.05 0 0 Z " fill="#141414" transform="translate(173,174)"/>
<path d="M0 0 C0.33 0.66 0.66 1.32 1 2 C0.67 2.99 0.34 3.98 0 5 C1.32 5.66 2.64 6.32 4 7 C1.353 8.461 0.106 9 -3 9 C-2.01 6.03 -1.02 3.06 0 0 Z " fill="#282828" transform="translate(39,110)"/>
<path d="M0 0 C-0.33 0.99 -0.66 1.98 -1 3 C-2.65 3.33 -4.3 3.66 -6 4 C-6.33 2.68 -6.66 1.36 -7 0 C-3.99 -0.934 -3.133 -1.044 0 0 Z " fill="#5C5C5C" transform="translate(210,68)"/>
<path d="M0 0 C2.97 0 5.94 0 9 0 C8.67 0.66 8.34 1.32 8 2 C5.678 2.407 3.343 2.744 1 3 C0.67 2.01 0.34 1.02 0 0 Z " fill="#181818" transform="translate(190,171)"/>
<path d="M0 0 C1.65 0 3.3 0 5 0 C5.33 1.65 5.66 3.3 6 5 C4.35 5 2.7 5 1 5 C0.67 3.35 0.34 1.7 0 0 Z " fill="#000000" transform="translate(228,136)"/>
<path d="M0 0 C1.392 0.093 1.392 0.093 2.812 0.188 C2.812 0.847 2.812 1.507 2.812 2.188 C-1.643 2.683 -1.643 2.683 -6.188 3.188 C-3.188 0.188 -3.188 0.188 0 0 Z " fill="#0D0D0D" transform="translate(194.1875,63.8125)"/>
<path d="M0 0 C2.475 0.495 2.475 0.495 5 1 C4.67 1.99 4.34 2.98 4 4 C2.68 4 1.36 4 0 4 C0 2.68 0 1.36 0 0 Z " fill="#FFFFFF" transform="translate(311,298)"/>
</svg>
