<?xml version="1.0" encoding="UTF-8"?>
<!-- Generator: visioncortex VTracer 0.6.4 -->
<svg version="1.1" xmlns="http://www.w3.org/2000/svg" width="338" height="287">
<path d="M0 0 C111.54 0 223.08 0 338 0 C338 94.71 338 189.42 338 287 C226.46 287 114.92 287 0 287 C0 192.29 0 97.58 0 0 Z " fill="#FFFFFF" transform="translate(0,0)"/>
<path d="M0 0 C0.958 0.001 1.917 0.003 2.904 0.004 C10.015 0.094 10.015 0.094 13.438 2.375 C14.125 6 14.125 6 14.438 9.375 C17.077 9.375 19.718 9.375 22.438 9.375 C24.602 17.589 25.135 25.918 24.438 34.375 C23.778 35.365 23.118 36.355 22.438 37.375 C21.778 37.375 21.118 37.375 20.438 37.375 C20.768 41.665 21.097 45.955 21.438 50.375 C18.279 52.481 17.588 52.609 14 52.5 C13.238 52.482 12.476 52.464 11.691 52.445 C10.576 52.411 10.576 52.411 9.438 52.375 C5.096 52.375 3.794 53.046 0.188 55.25 C-0.705 55.784 -1.597 56.317 -2.516 56.867 C-3.529 57.614 -3.529 57.614 -4.562 58.375 C-4.767 60.52 -4.767 60.52 -3.062 62.312 C-1.562 64.375 -1.562 64.375 -1.562 67.375 C1.903 66.385 1.903 66.385 5.438 65.375 C5.438 66.035 5.438 66.695 5.438 67.375 C6.097 67.375 6.757 67.375 7.438 67.375 C7.107 69.685 6.778 71.995 6.438 74.375 C7.757 74.375 9.077 74.375 10.438 74.375 C10.52 73.591 10.602 72.808 10.688 72 C11.438 69.375 11.438 69.375 13 68.062 C17.004 66.933 21.64 66.476 25.438 68.375 C26.625 71.636 26.567 74.837 26.57 78.277 C26.572 79.415 26.573 80.553 26.574 81.725 C26.57 82.909 26.566 84.093 26.562 85.312 C26.566 86.493 26.57 87.673 26.574 88.889 C26.572 90.597 26.572 90.597 26.57 92.34 C26.569 93.377 26.568 94.415 26.567 95.484 C26.444 98.221 26.055 100.71 25.438 103.375 C24.778 103.375 24.118 103.375 23.438 103.375 C23.438 93.805 23.438 84.235 23.438 74.375 C20.137 75.035 16.838 75.695 13.438 76.375 C14.105 77.297 14.105 77.297 14.785 78.238 C15.351 79.047 15.917 79.855 16.5 80.688 C17.353 81.888 17.353 81.888 18.223 83.113 C18.624 83.86 19.024 84.606 19.438 85.375 C19.107 86.365 18.778 87.355 18.438 88.375 C16.127 85.075 13.817 81.775 11.438 78.375 C10.118 80.025 8.798 81.675 7.438 83.375 C7.962 84.081 7.962 84.081 8.496 84.801 C8.951 85.423 9.406 86.046 9.875 86.688 C10.327 87.302 10.78 87.917 11.246 88.551 C13.766 92.409 13.812 95.884 13.438 100.375 C10.388 107.619 5.527 111.578 -1.621 114.719 C-4.917 115.992 -8.231 117.196 -11.562 118.375 C-19.87 121.46 -27.689 125.336 -35.562 129.375 C-35.562 130.035 -35.562 130.695 -35.562 131.375 C-32.672 132.697 -32.672 132.697 -30.328 131.484 C-29.498 131.036 -28.668 130.587 -27.812 130.125 C-23.785 128.005 -19.767 126.112 -15.562 124.375 C-15.893 123.385 -16.222 122.395 -16.562 121.375 C-15.572 120.715 -14.583 120.055 -13.562 119.375 C-12.903 119.705 -12.243 120.035 -11.562 120.375 C-10.734 122.859 -10.562 124.727 -10.562 127.375 C-11.489 127.713 -12.416 128.05 -13.371 128.398 C-14.569 128.844 -15.766 129.29 -17 129.75 C-18.195 130.191 -19.39 130.632 -20.621 131.086 C-23.664 132.046 -23.664 132.046 -24.562 134.375 C-26.541 135.102 -28.542 135.773 -30.562 136.375 C-30.057 136.785 -29.552 137.195 -29.031 137.617 C-28.382 138.156 -27.732 138.695 -27.062 139.25 C-26.413 139.784 -25.763 140.317 -25.094 140.867 C-24.588 141.365 -24.083 141.862 -23.562 142.375 C-23.562 143.035 -23.562 143.695 -23.562 144.375 C-22.572 144.375 -21.583 144.375 -20.562 144.375 C-19.176 145.906 -19.176 145.906 -17.875 147.875 C-17.438 148.525 -17.001 149.174 -16.551 149.844 C-16.225 150.349 -15.899 150.854 -15.562 151.375 C-16.553 151.375 -17.542 151.375 -18.562 151.375 C-19.113 150.687 -19.663 149.998 -20.23 149.289 C-22.552 146.936 -22.552 146.936 -26.363 147.648 C-27.874 147.986 -29.378 148.356 -30.875 148.75 C-32.067 149.05 -32.067 149.05 -33.283 149.356 C-35.721 149.994 -38.141 150.678 -40.562 151.375 C-41.281 151.569 -42 151.762 -42.741 151.961 C-50.248 154.052 -55.702 156.503 -60 163.312 C-60.912 165.05 -61.823 166.788 -62.675 168.556 C-63.575 170.402 -64.541 172.195 -65.535 173.992 C-69.366 180.943 -72.9 188.036 -76.406 195.154 C-79.509 201.392 -82.889 207.466 -86.326 213.525 C-86.936 214.605 -86.936 214.605 -87.559 215.707 C-87.921 216.344 -88.284 216.98 -88.658 217.636 C-89.702 219.533 -89.702 219.533 -90.562 222.375 C-87.923 222.705 -85.282 223.035 -82.562 223.375 C-82.353 234.344 -82.569 245.569 -84.562 256.375 C-84.893 256.375 -85.222 256.375 -85.562 256.375 C-85.678 249.02 -85.522 241.741 -85.059 234.402 C-85.011 233.626 -84.964 232.849 -84.915 232.049 C-84.799 230.157 -84.681 228.266 -84.562 226.375 C-88.988 228.116 -93.413 229.858 -97.838 231.6 C-99.336 232.189 -100.834 232.779 -102.332 233.368 C-121.134 240.751 -121.134 240.751 -139.828 248.402 C-140.984 248.884 -142.141 249.365 -143.332 249.861 C-145.702 250.849 -148.069 251.845 -150.434 252.846 C-151.574 253.318 -152.715 253.791 -153.891 254.277 C-154.911 254.705 -155.931 255.133 -156.981 255.574 C-159.562 256.375 -159.562 256.375 -162.562 255.375 C-146.591 248.554 -130.476 242.113 -114.334 235.707 C-111.028 234.394 -107.723 233.078 -104.418 231.762 C-102.913 231.166 -102.913 231.166 -101.378 230.559 C-96.66 228.678 -92.055 226.747 -87.562 224.375 C-89.937 224.124 -89.937 224.124 -92.562 224.375 C-93.037 224.87 -93.511 225.365 -94 225.875 C-95.562 227.375 -95.562 227.375 -98.75 227.562 C-99.678 227.501 -100.606 227.439 -101.562 227.375 C-101.892 226.055 -102.222 224.735 -102.562 223.375 C-103.305 224.344 -104.047 225.314 -104.812 226.312 C-107.287 229.242 -107.287 229.242 -109.375 230.25 C-111.563 230.375 -111.563 230.375 -115.184 230.186 C-119.922 230.188 -123.531 231.615 -127.812 233.523 C-128.581 233.852 -129.349 234.181 -130.14 234.519 C-132.62 235.583 -135.091 236.667 -137.562 237.75 C-139.268 238.484 -140.974 239.216 -142.681 239.947 C-146.879 241.747 -151.071 243.56 -155.261 245.378 C-160.747 247.755 -166.245 250.104 -171.75 252.438 C-172.721 252.86 -173.693 253.283 -174.693 253.718 C-175.572 254.091 -176.45 254.464 -177.355 254.848 C-178.103 255.17 -178.851 255.492 -179.622 255.824 C-181.562 256.375 -181.562 256.375 -184.562 255.375 C-173.913 250.292 -163.054 245.814 -152.125 241.375 C-146.352 239.025 -140.58 236.67 -134.816 234.299 C-133.348 233.697 -131.879 233.098 -130.409 232.501 C-128.462 231.709 -126.519 230.907 -124.578 230.102 C-123.5 229.659 -122.421 229.216 -121.31 228.76 C-117.408 226.793 -114.632 224.232 -112.562 220.375 C-111.918 218.247 -111.918 218.247 -111.562 216.375 C-110.545 216.336 -110.545 216.336 -109.508 216.297 C-103.269 215.917 -98.263 214.779 -92.559 212.215 C-90.562 211.375 -90.562 211.375 -88.562 211.375 C-89.121 209.337 -89.121 209.337 -90.562 207.375 C-93.43 206.452 -93.43 206.452 -96.688 206.125 C-97.783 205.975 -98.879 205.826 -100.008 205.672 C-101.272 205.525 -101.272 205.525 -102.562 205.375 C-100.93 200.901 -98.72 196.877 -96.375 192.75 C-95.971 192.038 -95.566 191.326 -95.15 190.592 C-82.27 168.055 -65.549 143.571 -42.562 130.375 C-42.893 128.725 -43.222 127.075 -43.562 125.375 C-54.841 132.853 -64.946 140.834 -73.562 151.375 C-74.009 151.914 -74.455 152.454 -74.915 153.009 C-81.371 160.826 -87.344 168.666 -92.562 177.375 C-93.47 178.854 -94.379 180.332 -95.289 181.809 C-98.064 186.32 -100.833 190.836 -103.562 195.375 C-103.965 196.034 -104.368 196.694 -104.784 197.373 C-107.033 201.106 -107.033 201.106 -107.562 205.375 C-106.125 207.063 -106.125 207.063 -104.562 208.375 C-106.543 207.715 -108.522 207.055 -110.562 206.375 C-110.562 207.035 -110.562 207.695 -110.562 208.375 C-109.573 208.705 -108.582 209.035 -107.562 209.375 C-108.552 209.705 -109.543 210.035 -110.562 210.375 C-109.903 211.035 -109.243 211.695 -108.562 212.375 C-109.882 212.375 -111.203 212.375 -112.562 212.375 C-112.789 213.056 -113.016 213.736 -113.25 214.438 C-119.075 227.475 -131.836 230.681 -144.438 235.5 C-146.89 236.449 -149.342 237.4 -151.793 238.352 C-152.422 238.595 -153.05 238.838 -153.698 239.089 C-158.392 240.909 -163.068 242.769 -167.738 244.648 C-168.411 244.919 -169.083 245.189 -169.776 245.468 C-172.405 246.526 -175.034 247.585 -177.661 248.648 C-184.57 251.444 -191.458 254.116 -198.562 256.375 C-198.562 255.715 -198.562 255.055 -198.562 254.375 C-197.856 254.099 -197.149 253.824 -196.421 253.54 C-183.039 248.316 -169.676 243.052 -156.375 237.625 C-155.259 237.17 -154.143 236.715 -152.993 236.246 C-148.053 234.226 -143.119 232.195 -138.199 230.129 C-137.405 229.797 -136.61 229.464 -135.792 229.122 C-134.358 228.521 -132.925 227.915 -131.495 227.304 C-128.665 226.117 -126.669 225.375 -123.562 225.375 C-123.439 224.798 -123.315 224.22 -123.188 223.625 C-122.556 221.352 -121.674 219.45 -120.562 217.375 C-128.177 215.59 -133.233 217.681 -140.312 220.625 C-141.435 221.074 -142.557 221.524 -143.714 221.987 C-146.102 222.944 -148.488 223.908 -150.871 224.878 C-155.816 226.883 -160.784 228.827 -165.753 230.771 C-169.198 232.118 -172.64 233.474 -176.082 234.832 C-180.54 236.588 -185.009 238.316 -189.484 240.027 C-194.654 242.009 -199.741 244.132 -204.809 246.359 C-207.724 247.435 -210.489 247.959 -213.562 248.375 C-211.405 246.218 -210.023 245.65 -207.195 244.605 C-205.865 244.108 -205.865 244.108 -204.508 243.6 C-203.577 243.257 -202.646 242.915 -201.688 242.562 C-195.006 240.086 -188.399 237.496 -181.831 234.734 C-165.677 228.016 -149.324 221.687 -132.938 215.562 C-131.644 215.066 -131.644 215.066 -130.325 214.559 C-125.506 212.789 -121.698 212.024 -116.562 212.375 C-115.903 210.725 -115.243 209.075 -114.562 207.375 C-119.588 206.137 -123.317 206.794 -128.141 208.336 C-128.875 208.562 -129.609 208.787 -130.365 209.02 C-139.808 211.987 -149.057 215.503 -158.312 219 C-160.203 219.709 -162.094 220.417 -163.985 221.125 C-172.544 224.334 -181.093 227.571 -189.633 230.832 C-190.652 231.221 -190.652 231.221 -191.691 231.617 C-194.795 232.801 -197.897 233.99 -200.995 235.188 C-202.067 235.599 -203.138 236.01 -204.242 236.434 C-205.157 236.787 -206.072 237.141 -207.015 237.506 C-209.52 238.361 -211.958 238.92 -214.562 239.375 C-214.562 238.715 -214.562 238.055 -214.562 237.375 C-214.027 237.182 -213.491 236.989 -212.94 236.79 C-178.177 224.284 -178.177 224.284 -143.562 211.375 C-141.193 210.476 -138.822 209.578 -136.451 208.682 C-134.503 207.947 -132.556 207.208 -130.609 206.469 C-126.473 204.984 -123.211 204.248 -118.812 204.312 C-118.013 204.322 -117.214 204.331 -116.391 204.34 C-115.486 204.357 -115.486 204.357 -114.562 204.375 C-114.56 203.818 -114.557 203.261 -114.555 202.688 C-114.209 195.867 -111.945 192.438 -107.562 187.375 C-105.997 185.461 -104.435 183.544 -102.875 181.625 C-102.129 180.723 -101.382 179.82 -100.613 178.891 C-97.576 175.164 -95.132 171.727 -93.062 167.375 C-91.503 164.095 -89.957 161.127 -87.562 158.375 C-86.903 158.375 -86.243 158.375 -85.562 158.375 C-85.893 151.115 -86.222 143.855 -86.562 136.375 C-92.829 133.876 -92.829 133.876 -99.096 131.38 C-103.948 129.442 -108.771 127.458 -113.562 125.375 C-113.562 124.715 -113.562 124.055 -113.562 123.375 C-107.048 125.428 -100.775 127.87 -94.5 130.562 C-93.634 130.931 -92.769 131.299 -91.877 131.678 C-89.771 132.574 -87.666 133.474 -85.562 134.375 C-85.562 130.745 -85.562 127.115 -85.562 123.375 C-83.583 122.385 -81.602 121.395 -79.562 120.375 C-80.532 120.066 -81.501 119.756 -82.5 119.438 C-85.562 117.375 -85.562 117.375 -86.184 115.172 C-86.416 112.896 -86.553 110.663 -86.562 108.375 C-87.553 108.375 -88.543 108.375 -89.562 108.375 C-89.562 106.725 -89.562 105.075 -89.562 103.375 C-88.469 103.066 -87.376 102.756 -86.25 102.438 C-84.008 101.792 -81.776 101.113 -79.562 100.375 C-77.668 100.306 -75.771 100.29 -73.875 100.312 C-72.881 100.322 -71.887 100.331 -70.863 100.34 C-70.104 100.351 -69.345 100.363 -68.562 100.375 C-68.232 101.035 -67.903 101.695 -67.562 102.375 C-68.738 102.334 -69.914 102.293 -71.125 102.25 C-75.31 102.25 -78.634 102.932 -82.562 104.375 C-82.893 105.035 -83.222 105.695 -83.562 106.375 C-82.717 106.045 -81.871 105.715 -81 105.375 C-77.309 104.301 -74.387 104.081 -70.562 104.375 C-69.903 105.035 -69.243 105.695 -68.562 106.375 C-72.028 106.87 -72.028 106.87 -75.562 107.375 C-75.232 108.035 -74.903 108.695 -74.562 109.375 C-77.896 109.375 -81.229 109.375 -84.562 109.375 C-80.273 110.365 -75.982 111.355 -71.562 112.375 C-72.222 113.035 -72.882 113.695 -73.562 114.375 C-72.903 114.705 -72.243 115.035 -71.562 115.375 C-71.562 116.035 -71.562 116.695 -71.562 117.375 C-75.523 116.715 -79.482 116.055 -83.562 115.375 C-83.562 116.035 -83.562 116.695 -83.562 117.375 C-81.5 117.544 -79.438 117.71 -77.375 117.875 C-76.226 117.968 -75.078 118.061 -73.895 118.156 C-71.102 118.34 -68.359 118.417 -65.562 118.375 C-66.222 119.035 -66.882 119.695 -67.562 120.375 C-66.758 120.643 -65.954 120.911 -65.125 121.188 C-61.944 123.903 -62.094 125.003 -61.75 129.062 C-61.665 130.832 -61.596 132.603 -61.562 134.375 C-60.738 133.746 -59.912 133.117 -59.062 132.469 C-50.933 126.397 -42.664 121.677 -33.519 117.322 C-30.348 115.787 -27.233 114.156 -24.125 112.5 C-23.074 111.946 -22.024 111.391 -20.941 110.82 C-18.451 109.596 -18.451 109.596 -17.562 107.375 C-16.903 107.375 -16.243 107.375 -15.562 107.375 C-13.953 102.27 -12.784 98.166 -15.359 93.133 C-17.332 90.251 -19.692 87.755 -22.137 85.27 C-23.562 83.375 -23.562 83.375 -23.562 79.375 C-24.738 79.189 -24.738 79.189 -25.938 79 C-28.562 78.375 -28.562 78.375 -30.562 76.375 C-30.188 73.25 -30.188 73.25 -29.562 70.375 C-30.264 70.189 -30.965 70.004 -31.688 69.812 C-35.148 68.082 -36.698 65.956 -39.078 62.98 C-40.976 60.928 -42.966 60.312 -45.562 59.375 C-47.555 56.291 -47.889 53.558 -48.125 49.938 C-48.555 43.633 -49.556 38.996 -52.562 33.375 C-51.779 33.396 -50.995 33.416 -50.188 33.438 C-47.581 33.562 -47.581 33.562 -45.562 32.375 C-45.562 33.035 -45.562 33.695 -45.562 34.375 C-43.252 34.375 -40.942 34.375 -38.562 34.375 C-38.232 33.715 -37.903 33.055 -37.562 32.375 C-36.903 32.375 -36.243 32.375 -35.562 32.375 C-35.201 30.085 -34.848 27.793 -34.5 25.5 C-34.303 24.224 -34.106 22.948 -33.902 21.633 C-33.28 18.493 -33.28 18.493 -34.562 16.375 C-37.038 22.81 -37.038 22.81 -39.562 29.375 C-40.222 29.045 -40.882 28.715 -41.562 28.375 C-40.586 25.895 -39.607 23.416 -38.625 20.938 C-38.347 20.23 -38.069 19.523 -37.783 18.795 C-35.676 13.488 -35.676 13.488 -34.562 12.375 C-33.232 12.277 -31.897 12.244 -30.562 12.242 C-29.758 12.241 -28.954 12.24 -28.125 12.238 C-27.279 12.242 -26.434 12.246 -25.562 12.25 C-24.294 12.244 -24.294 12.244 -23 12.238 C-22.196 12.24 -21.391 12.241 -20.562 12.242 C-19.82 12.243 -19.077 12.244 -18.312 12.246 C-16.562 12.375 -16.562 12.375 -15.562 13.375 C-15.537 12.772 -15.511 12.168 -15.484 11.547 C-15.428 10.748 -15.371 9.948 -15.312 9.125 C-15.266 8.336 -15.22 7.547 -15.172 6.734 C-13.151 -1.091 -6.722 -0.172 0 0 Z M-74.562 183.375 C-79.713 188.956 -84.275 194.605 -87.574 201.484 C-88.562 203.375 -88.562 203.375 -90.562 205.375 C-89.903 205.375 -89.243 205.375 -88.562 205.375 C-88.233 206.365 -87.903 207.355 -87.562 208.375 C-86.903 208.375 -86.243 208.375 -85.562 208.375 C-83.529 204.59 -81.513 200.796 -79.5 197 C-78.919 195.92 -78.339 194.84 -77.74 193.727 C-76.923 192.18 -76.923 192.18 -76.09 190.602 C-75.582 189.648 -75.074 188.695 -74.551 187.713 C-74.224 186.942 -73.898 186.17 -73.562 185.375 C-73.892 184.715 -74.222 184.055 -74.562 183.375 Z " fill="#060606" transform="translate(222.5625,24.625)"/>
<path d="M0 0 C0.958 0.001 1.917 0.003 2.904 0.004 C10.015 0.094 10.015 0.094 13.438 2.375 C14.125 6 14.125 6 14.438 9.375 C17.077 9.375 19.718 9.375 22.438 9.375 C24.602 17.589 25.135 25.918 24.438 34.375 C23.778 35.365 23.118 36.355 22.438 37.375 C21.778 37.375 21.118 37.375 20.438 37.375 C20.933 43.81 20.933 43.81 21.438 50.375 C18.279 52.481 17.588 52.609 14 52.5 C13.238 52.482 12.476 52.464 11.691 52.445 C10.948 52.422 10.204 52.399 9.438 52.375 C5.096 52.375 3.794 53.046 0.188 55.25 C-0.705 55.784 -1.597 56.317 -2.516 56.867 C-3.191 57.365 -3.867 57.862 -4.562 58.375 C-4.767 60.52 -4.767 60.52 -3.062 62.312 C-1.562 64.375 -1.562 64.375 -1.562 67.375 C1.903 66.385 1.903 66.385 5.438 65.375 C5.438 66.035 5.438 66.695 5.438 67.375 C6.097 67.375 6.757 67.375 7.438 67.375 C7.108 69.685 6.778 71.995 6.438 74.375 C7.757 74.375 9.077 74.375 10.438 74.375 C10.52 73.591 10.602 72.808 10.688 72 C11.438 69.375 11.438 69.375 13 68.062 C17.004 66.933 21.64 66.476 25.438 68.375 C26.625 71.636 26.567 74.837 26.57 78.277 C26.572 79.415 26.573 80.553 26.574 81.725 C26.57 82.909 26.566 84.093 26.562 85.312 C26.566 86.493 26.57 87.673 26.574 88.889 C26.573 90.028 26.572 91.166 26.57 92.34 C26.569 93.377 26.568 94.415 26.567 95.484 C26.444 98.221 26.055 100.71 25.438 103.375 C24.778 103.375 24.118 103.375 23.438 103.375 C23.438 93.805 23.438 84.235 23.438 74.375 C18.488 75.365 18.488 75.365 13.438 76.375 C13.882 76.99 14.327 77.605 14.785 78.238 C15.351 79.047 15.917 79.855 16.5 80.688 C17.068 81.488 17.637 82.289 18.223 83.113 C18.624 83.86 19.024 84.606 19.438 85.375 C18.942 86.86 18.942 86.86 18.438 88.375 C16.127 85.075 13.817 81.775 11.438 78.375 C10.118 80.025 8.798 81.675 7.438 83.375 C7.962 84.081 7.962 84.081 8.496 84.801 C8.951 85.423 9.406 86.046 9.875 86.688 C10.327 87.302 10.78 87.917 11.246 88.551 C13.761 92.401 13.6 95.903 13.438 100.375 C13.108 101.035 12.778 101.695 12.438 102.375 C11.778 102.375 11.118 102.375 10.438 102.375 C10.525 101.54 10.525 101.54 10.613 100.688 C10.995 94.235 9.464 90.388 5.438 85.375 C4.901 84.85 4.365 84.326 3.812 83.785 C2.139 82.069 1.839 80.705 1.438 78.375 C0.509 78.189 0.509 78.189 -0.438 78 C-2.562 77.375 -2.562 77.375 -4.562 75.375 C-4.688 72.75 -4.688 72.75 -4.562 70.375 C-5.882 69.715 -7.202 69.055 -8.562 68.375 C-8.562 67.715 -8.562 67.055 -8.562 66.375 C-9.222 66.375 -9.882 66.375 -10.562 66.375 C-10.94 65.72 -11.318 65.065 -11.707 64.391 C-13.514 61.984 -13.514 61.984 -17.137 61.984 C-18.508 62.011 -19.88 62.058 -21.25 62.125 C-21.952 62.143 -22.654 62.161 -23.377 62.18 C-25.106 62.227 -26.834 62.298 -28.562 62.375 C-27.903 64.355 -27.243 66.335 -26.562 68.375 C-23.097 67.88 -23.097 67.88 -19.562 67.375 C-18.903 69.025 -18.243 70.675 -17.562 72.375 C-18.522 73.551 -18.522 73.551 -19.5 74.75 C-21.544 77.17 -21.544 77.17 -22.562 79.375 C-25.327 79.599 -27.025 79.697 -29.438 78.25 C-31.115 75.453 -30.311 73.438 -29.562 70.375 C-30.614 70.097 -30.614 70.097 -31.688 69.812 C-35.148 68.082 -36.698 65.956 -39.078 62.98 C-40.976 60.928 -42.966 60.312 -45.562 59.375 C-47.555 56.291 -47.889 53.558 -48.125 49.938 C-48.555 43.633 -49.556 38.996 -52.562 33.375 C-51.779 33.396 -50.995 33.416 -50.188 33.438 C-47.581 33.562 -47.581 33.562 -45.562 32.375 C-45.562 33.035 -45.562 33.695 -45.562 34.375 C-43.252 34.375 -40.942 34.375 -38.562 34.375 C-38.232 33.715 -37.903 33.055 -37.562 32.375 C-36.903 32.375 -36.243 32.375 -35.562 32.375 C-35.201 30.085 -34.848 27.793 -34.5 25.5 C-34.303 24.224 -34.106 22.948 -33.902 21.633 C-33.28 18.493 -33.28 18.493 -34.562 16.375 C-36.213 20.665 -37.863 24.955 -39.562 29.375 C-40.222 29.045 -40.882 28.715 -41.562 28.375 C-40.586 25.895 -39.607 23.416 -38.625 20.938 C-38.347 20.23 -38.069 19.523 -37.783 18.795 C-35.676 13.488 -35.676 13.488 -34.562 12.375 C-33.232 12.277 -31.897 12.244 -30.562 12.242 C-29.758 12.241 -28.954 12.24 -28.125 12.238 C-27.279 12.242 -26.434 12.246 -25.562 12.25 C-24.294 12.244 -24.294 12.244 -23 12.238 C-22.196 12.24 -21.391 12.241 -20.562 12.242 C-19.82 12.243 -19.077 12.244 -18.312 12.246 C-16.562 12.375 -16.562 12.375 -15.562 13.375 C-15.524 12.47 -15.524 12.47 -15.484 11.547 C-15.399 10.348 -15.399 10.348 -15.312 9.125 C-15.266 8.336 -15.22 7.547 -15.172 6.734 C-13.151 -1.091 -6.722 -0.172 0 0 Z " fill="#2D2D2D" transform="translate(222.5625,24.625)"/>
<path d="M0 0 C0.151 4.586 0.258 9.17 0.33 13.757 C0.359 15.311 0.4 16.864 0.453 18.417 C0.914 32.42 -1.291 42.831 -10.688 53.812 C-13.219 56.493 -14.485 57.828 -18 59 C-18 71.87 -18 84.74 -18 98 C-18.99 98 -19.98 98 -21 98 C-21.248 97.381 -21.495 96.762 -21.75 96.125 C-23.251 93.574 -24.395 93.286 -27 92 C-28.584 90.675 -28.584 90.675 -30.094 89.172 C-30.927 88.342 -30.927 88.342 -31.777 87.496 C-32.346 86.92 -32.914 86.344 -33.5 85.75 C-34.353 84.909 -34.353 84.909 -35.223 84.051 C-39.393 79.861 -43.099 75.703 -45 70 C-45.99 70 -46.98 70 -48 70 C-51.051 67.255 -53.64 64.354 -56 61 C-52.535 60.505 -52.535 60.505 -49 60 C-48.67 59.01 -48.34 58.02 -48 57 C-45.059 55.613 -45.059 55.613 -41.438 54.312 C-40.24 53.876 -39.042 53.439 -37.809 52.988 C-36.882 52.662 -35.955 52.336 -35 52 C-35.66 51.01 -36.32 50.02 -37 49 C-36.67 48.01 -36.34 47.02 -36 46 C-37.98 46.495 -37.98 46.495 -40 47 C-39.67 48.32 -39.34 49.64 -39 51 C-39.797 51.326 -40.593 51.652 -41.414 51.988 C-42.474 52.425 -43.533 52.862 -44.625 53.312 C-45.721 53.764 -46.816 54.215 -47.945 54.68 C-50.237 55.67 -52.344 56.698 -54.5 57.938 C-57 59 -57 59 -59.312 58.312 C-61 57 -61 57 -62 55 C-52.392 50.089 -42.892 45.458 -32.715 41.828 C-26.505 39.56 -21.807 37.547 -17 33 C-16.34 33 -15.68 33 -15 33 C-14.691 32.216 -14.381 31.433 -14.062 30.625 C-13 28 -13 28 -12 26 C-11.28 20.117 -12.866 16.847 -15.906 12.016 C-17 10 -17 10 -17 7 C-15.68 5.68 -14.36 4.36 -13 3 C-10.69 6.3 -8.38 9.6 -6 13 C-7.294 9.766 -8.403 7.115 -10.125 4.188 C-10.744 3.136 -11.363 2.084 -12 1 C-10.377 0.638 -8.751 0.285 -7.125 -0.062 C-6.22 -0.26 -5.315 -0.457 -4.383 -0.66 C-2 -1 -2 -1 0 0 Z " fill="#000000" transform="translate(247,99)"/>
<path d="M0 0 C0.994 0.009 1.988 0.018 3.012 0.027 C4.151 0.045 4.151 0.045 5.312 0.062 C5.643 0.722 5.972 1.382 6.312 2.062 C4.549 2.001 4.549 2.001 2.75 1.938 C-1.435 1.938 -4.759 2.619 -8.688 4.062 C-9.018 4.722 -9.347 5.382 -9.688 6.062 C-8.842 5.732 -7.996 5.403 -7.125 5.062 C-3.434 3.989 -0.512 3.768 3.312 4.062 C4.303 5.053 4.303 5.053 5.312 6.062 C3.002 6.393 0.692 6.722 -1.688 7.062 C-1.357 7.722 -1.028 8.382 -0.688 9.062 C-4.021 9.062 -7.354 9.062 -10.688 9.062 C-6.398 10.053 -2.107 11.042 2.312 12.062 C1.653 12.722 0.993 13.382 0.312 14.062 C1.303 14.558 1.303 14.558 2.312 15.062 C2.312 15.722 2.312 16.382 2.312 17.062 C-1.648 16.403 -5.607 15.743 -9.688 15.062 C-9.688 15.722 -9.688 16.382 -9.688 17.062 C-7.625 17.232 -5.563 17.398 -3.5 17.562 C-2.351 17.655 -1.203 17.748 -0.02 17.844 C2.773 18.027 5.516 18.105 8.312 18.062 C7.653 18.722 6.993 19.382 6.312 20.062 C7.117 20.331 7.921 20.599 8.75 20.875 C11.931 23.59 11.781 24.691 12.125 28.75 C12.21 30.52 12.279 32.291 12.312 34.062 C13.277 33.352 14.241 32.642 15.234 31.91 C16.51 30.981 17.786 30.053 19.062 29.125 C20.014 28.422 20.014 28.422 20.984 27.705 C21.913 27.033 21.913 27.033 22.859 26.348 C23.425 25.934 23.991 25.52 24.573 25.094 C26.468 23.97 28.162 23.493 30.312 23.062 C30.312 23.722 30.312 24.382 30.312 25.062 C28.382 26.494 26.45 27.817 24.438 29.125 C15.228 35.312 7.337 42.469 0.312 51.062 C-0.134 51.602 -0.58 52.141 -1.04 52.697 C-7.496 60.513 -13.469 68.353 -18.688 77.062 C-19.595 78.541 -20.504 80.019 -21.414 81.496 C-24.189 86.008 -26.958 90.523 -29.688 95.062 C-30.09 95.722 -30.493 96.381 -30.909 97.061 C-33.158 100.793 -33.158 100.793 -33.688 105.062 C-32.25 106.75 -32.25 106.75 -30.688 108.062 C-32.668 107.403 -34.647 106.743 -36.688 106.062 C-36.688 106.722 -36.688 107.382 -36.688 108.062 C-35.203 108.558 -35.203 108.558 -33.688 109.062 C-35.172 109.558 -35.172 109.558 -36.688 110.062 C-36.028 110.722 -35.368 111.382 -34.688 112.062 C-36.007 112.062 -37.328 112.062 -38.688 112.062 C-38.914 112.743 -39.141 113.424 -39.375 114.125 C-45.2 127.163 -57.961 130.368 -70.562 135.188 C-73.015 136.137 -75.467 137.087 -77.918 138.039 C-78.547 138.282 -79.175 138.526 -79.823 138.777 C-84.517 140.597 -89.193 142.456 -93.863 144.336 C-94.536 144.606 -95.208 144.877 -95.901 145.156 C-98.53 146.214 -101.159 147.273 -103.786 148.336 C-110.695 151.132 -117.583 153.804 -124.688 156.062 C-124.688 155.403 -124.688 154.743 -124.688 154.062 C-123.981 153.787 -123.274 153.511 -122.546 153.227 C-109.164 148.004 -95.801 142.739 -82.5 137.312 C-81.384 136.857 -80.268 136.402 -79.118 135.933 C-74.178 133.914 -69.244 131.882 -64.324 129.816 C-63.53 129.484 -62.735 129.152 -61.917 128.81 C-60.483 128.208 -59.05 127.603 -57.62 126.991 C-54.79 125.804 -52.794 125.062 -49.688 125.062 C-49.502 124.196 -49.502 124.196 -49.312 123.312 C-48.681 121.039 -47.799 119.137 -46.688 117.062 C-54.302 115.277 -59.358 117.368 -66.438 120.312 C-67.56 120.762 -68.682 121.211 -69.839 121.675 C-72.227 122.631 -74.613 123.595 -76.996 124.566 C-81.941 126.571 -86.909 128.514 -91.878 130.458 C-95.323 131.806 -98.765 133.162 -102.207 134.52 C-106.665 136.276 -111.134 138.003 -115.609 139.715 C-120.779 141.697 -125.866 143.82 -130.934 146.047 C-133.849 147.122 -136.614 147.646 -139.688 148.062 C-137.53 145.905 -136.148 145.337 -133.32 144.293 C-131.99 143.795 -131.99 143.795 -130.633 143.287 C-129.702 142.945 -128.771 142.603 -127.812 142.25 C-121.131 139.774 -114.524 137.184 -107.956 134.422 C-91.802 127.704 -75.449 121.374 -59.062 115.25 C-58.2 114.919 -57.338 114.588 -56.45 114.247 C-51.631 112.477 -47.823 111.711 -42.688 112.062 C-42.028 110.412 -41.368 108.762 -40.688 107.062 C-45.713 105.824 -49.442 106.481 -54.266 108.023 C-55 108.249 -55.734 108.475 -56.49 108.708 C-65.933 111.675 -75.182 115.19 -84.438 118.688 C-86.328 119.396 -88.219 120.105 -90.11 120.813 C-98.669 124.021 -107.218 127.259 -115.758 130.52 C-116.777 130.908 -116.777 130.908 -117.816 131.305 C-120.92 132.489 -124.022 133.678 -127.12 134.875 C-128.192 135.287 -129.263 135.698 -130.367 136.121 C-131.282 136.475 -132.197 136.829 -133.14 137.193 C-135.645 138.048 -138.083 138.607 -140.688 139.062 C-140.688 138.403 -140.688 137.743 -140.688 137.062 C-140.152 136.87 -139.616 136.677 -139.065 136.478 C-104.302 123.971 -104.302 123.971 -69.688 111.062 C-67.318 110.163 -64.947 109.265 -62.576 108.37 C-60.628 107.634 -58.681 106.895 -56.734 106.156 C-52.598 104.671 -49.336 103.935 -44.938 104 C-44.138 104.009 -43.339 104.018 -42.516 104.027 C-41.912 104.039 -41.309 104.051 -40.688 104.062 C-40.685 103.506 -40.682 102.949 -40.68 102.375 C-40.334 95.554 -38.07 92.125 -33.688 87.062 C-32.122 85.148 -30.56 83.231 -29 81.312 C-28.254 80.41 -27.507 79.508 -26.738 78.578 C-23.701 74.852 -21.257 71.415 -19.188 67.062 C-17.628 63.783 -16.082 60.814 -13.688 58.062 C-13.028 58.062 -12.368 58.062 -11.688 58.062 C-12.018 50.803 -12.347 43.542 -12.688 36.062 C-18.954 33.564 -18.954 33.564 -25.221 31.067 C-30.073 29.129 -34.896 27.146 -39.688 25.062 C-39.688 24.403 -39.688 23.743 -39.688 23.062 C-33.173 25.116 -26.9 27.558 -20.625 30.25 C-19.759 30.618 -18.894 30.986 -18.002 31.365 C-15.896 32.261 -13.791 33.161 -11.688 34.062 C-11.688 30.433 -11.688 26.803 -11.688 23.062 C-9.708 22.072 -7.727 21.083 -5.688 20.062 C-6.657 19.753 -7.626 19.444 -8.625 19.125 C-11.688 17.062 -11.688 17.062 -12.309 14.859 C-12.541 12.583 -12.678 10.35 -12.688 8.062 C-13.678 8.062 -14.668 8.062 -15.688 8.062 C-15.688 6.412 -15.688 4.762 -15.688 3.062 C-14.594 2.753 -13.501 2.444 -12.375 2.125 C-7.934 0.845 -4.624 -0.054 0 0 Z " fill="#000000" transform="translate(148.6875,124.9375)"/>
<path d="M0 0 C-0.344 2.876 -0.863 3.875 -3.039 5.859 C-3.892 6.483 -4.746 7.107 -5.625 7.75 C-9.881 10.994 -13.288 14.36 -16.625 18.531 C-17.079 19.016 -17.532 19.501 -18 20 C-18.66 20 -19.32 20 -20 20 C-20 23.96 -20 27.92 -20 32 C-19.01 31.34 -18.02 30.68 -17 30 C-18.512 35.267 -20.914 39.661 -23.625 44.375 C-26.911 50.179 -30.071 56.007 -33 62 C-36.352 68.853 -40 75.515 -43.764 82.15 C-44.17 82.87 -44.577 83.59 -44.996 84.332 C-45.359 84.969 -45.722 85.605 -46.095 86.261 C-47.14 88.158 -47.14 88.158 -48 91 C-45.36 91.33 -42.72 91.66 -40 92 C-39.791 102.969 -40.006 114.194 -42 125 C-42.33 125 -42.66 125 -43 125 C-43.115 117.645 -42.959 110.366 -42.496 103.027 C-42.449 102.251 -42.401 101.474 -42.352 100.674 C-42.237 98.782 -42.119 96.891 -42 95 C-46.425 96.741 -50.85 98.483 -55.275 100.225 C-56.773 100.814 -58.271 101.404 -59.769 101.993 C-78.571 109.376 -78.571 109.376 -97.266 117.027 C-98.422 117.509 -99.578 117.99 -100.77 118.486 C-103.139 119.474 -105.507 120.47 -107.871 121.471 C-109.012 121.943 -110.153 122.416 -111.328 122.902 C-112.348 123.33 -113.368 123.758 -114.419 124.199 C-117 125 -117 125 -120 124 C-104.028 117.179 -87.913 110.738 -71.771 104.332 C-68.465 103.019 -65.16 101.703 -61.855 100.387 C-60.852 99.99 -59.849 99.593 -58.816 99.184 C-54.097 97.303 -49.493 95.372 -45 93 C-47.374 92.749 -47.374 92.749 -50 93 C-50.474 93.495 -50.949 93.99 -51.438 94.5 C-53 96 -53 96 -56.188 96.188 C-57.116 96.126 -58.044 96.064 -59 96 C-59.33 94.68 -59.66 93.36 -60 92 C-60.743 92.969 -61.485 93.939 -62.25 94.938 C-64.725 97.867 -64.725 97.867 -66.812 98.875 C-69 99 -69 99 -72.621 98.811 C-77.36 98.813 -80.969 100.24 -85.25 102.148 C-86.018 102.477 -86.786 102.806 -87.578 103.144 C-90.057 104.208 -92.528 105.292 -95 106.375 C-96.705 107.109 -98.412 107.841 -100.118 108.572 C-104.316 110.372 -108.508 112.185 -112.698 114.003 C-118.184 116.38 -123.682 118.729 -129.188 121.062 C-130.159 121.485 -131.13 121.908 -132.131 122.343 C-133.009 122.716 -133.888 123.089 -134.793 123.473 C-135.541 123.795 -136.289 124.117 -137.059 124.449 C-139 125 -139 125 -142 124 C-131.351 118.917 -120.491 114.439 -109.562 110 C-103.789 107.65 -98.018 105.295 -92.253 102.924 C-90.785 102.322 -89.316 101.723 -87.846 101.126 C-85.899 100.334 -83.957 99.532 -82.016 98.727 C-80.937 98.284 -79.858 97.841 -78.747 97.385 C-74.845 95.418 -72.069 92.857 -70 89 C-69.355 86.872 -69.355 86.872 -69 85 C-68.322 84.974 -67.644 84.948 -66.945 84.922 C-60.706 84.542 -55.7 83.404 -49.996 80.84 C-48 80 -48 80 -46 80 C-46.558 77.962 -46.558 77.962 -48 76 C-50.867 75.077 -50.867 75.077 -54.125 74.75 C-55.221 74.6 -56.316 74.451 -57.445 74.297 C-58.288 74.199 -59.131 74.101 -60 74 C-58.368 69.526 -56.158 65.502 -53.812 61.375 C-53.408 60.663 -53.004 59.951 -52.587 59.217 C-18.746 0 -18.746 0 0 0 Z M-32 52 C-37.15 57.581 -41.712 63.23 -45.012 70.109 C-46 72 -46 72 -48 74 C-47.34 74 -46.68 74 -46 74 C-45.67 74.99 -45.34 75.98 -45 77 C-44.34 77 -43.68 77 -43 77 C-40.966 73.215 -38.95 69.421 -36.938 65.625 C-36.357 64.545 -35.776 63.465 -35.178 62.352 C-34.361 60.805 -34.361 60.805 -33.527 59.227 C-33.019 58.273 -32.511 57.32 -31.988 56.338 C-31.662 55.567 -31.336 54.795 -31 54 C-31.33 53.34 -31.66 52.68 -32 52 Z " fill="#000000" transform="translate(180,156)"/>
<path d="M0 0 C0.99 1.485 0.99 1.485 2 3 C4.475 2.505 4.475 2.505 7 2 C6.34 2.99 5.68 3.98 5 5 C5.33 5 5.66 5 6 5 C6 8.3 6 11.6 6 15 C4.68 15.33 3.36 15.66 2 16 C2.069 16.765 2.138 17.53 2.209 18.318 C2 21 2 21 0.615 22.579 C-0.359 23.242 -0.359 23.242 -1.352 23.918 C-2.083 24.421 -2.814 24.924 -3.567 25.443 C-7.791 28.147 -12.055 30.765 -16.375 33.312 C-17.727 34.118 -17.727 34.118 -19.105 34.939 C-28.341 40.43 -35.421 40.193 -46 40 C-47.216 39.983 -48.431 39.966 -49.684 39.949 C-54.509 39.738 -57.216 39.543 -61.25 36.75 C-63.178 33.72 -63.163 32.478 -63 29 C-42.068 28.815 -42.068 28.815 -32 30 C-32 32.97 -32 35.94 -32 39 C-31.34 39 -30.68 39 -30 39 C-30.495 34.545 -30.495 34.545 -31 30 C-28.03 28.68 -25.06 27.36 -22 26 C-22.99 26.33 -23.98 26.66 -25 27 C-33.222 29.403 -41.103 29.029 -49.562 28.625 C-50.967 28.567 -52.371 28.509 -53.775 28.453 C-57.184 28.313 -60.592 28.161 -64 28 C-64 27.34 -64 26.68 -64 26 C-52.12 26 -40.24 26 -28 26 C-28.495 22.04 -28.495 22.04 -29 18 C-28.045 17.432 -27.09 16.863 -26.105 16.277 C-17.294 11.02 -8.54 5.693 0 0 Z " fill="#FFFFFF" transform="translate(239,45)"/>
<path d="M0 0 C1.134 0.021 2.269 0.041 3.438 0.062 C2.118 0.392 0.798 0.722 -0.562 1.062 C-0.378 1.921 -0.194 2.78 -0.004 3.664 C0.459 7.232 0.165 9.917 -0.5 13.438 C-0.695 14.497 -0.889 15.557 -1.09 16.648 C-1.246 17.445 -1.402 18.242 -1.562 19.062 C-0.243 18.073 1.077 17.082 2.438 16.062 C3.097 16.392 3.757 16.722 4.438 17.062 C2.458 18.712 0.477 20.362 -1.562 22.062 C2.067 22.392 5.697 22.722 9.438 23.062 C9.438 23.392 9.438 23.722 9.438 24.062 C6.021 24.092 2.604 24.109 -0.812 24.125 C-1.781 24.133 -2.749 24.142 -3.746 24.15 C-4.681 24.154 -5.615 24.157 -6.578 24.16 C-7.437 24.165 -8.296 24.171 -9.181 24.176 C-11.449 24.068 -13.389 23.698 -15.562 23.062 C-15.562 23.722 -15.562 24.383 -15.562 25.062 C-8.963 25.062 -2.363 25.062 4.438 25.062 C4.438 25.392 4.438 25.722 4.438 26.062 C-2.162 26.062 -8.762 26.062 -15.562 26.062 C-15.562 28.043 -15.562 30.023 -15.562 32.062 C-11.079 32.23 -6.595 32.391 -2.11 32.545 C-0.586 32.598 0.939 32.653 2.464 32.711 C4.658 32.793 6.852 32.868 9.047 32.941 C10.066 32.982 10.066 32.982 11.105 33.023 C14.391 33.126 17.299 33.098 20.438 32.062 C20.108 33.053 19.778 34.042 19.438 35.062 C7.39 35.182 -4.544 34.924 -16.562 34.062 C-16.562 34.722 -16.562 35.382 -16.562 36.062 C-12.17 36.137 -7.778 36.191 -3.385 36.227 C-1.894 36.242 -0.404 36.263 1.087 36.289 C10.252 36.446 18.036 36.263 26.438 32.062 C26.108 33.053 25.778 34.042 25.438 35.062 C23.371 36.012 23.371 36.012 20.875 36.75 C19.636 37.127 19.636 37.127 18.371 37.512 C17.733 37.693 17.095 37.875 16.438 38.062 C16.933 42.517 16.933 42.517 17.438 47.062 C16.778 47.062 16.118 47.062 15.438 47.062 C15.438 44.093 15.438 41.123 15.438 38.062 C5.208 37.733 -5.023 37.403 -15.562 37.062 C-14.407 43.967 -14.407 43.967 -10.562 46.062 C-6.6 46.78 -2.58 46.864 1.438 47.062 C2.475 47.145 2.475 47.145 3.534 47.23 C16.05 48.209 23.084 46.181 33.438 39.062 C35.75 37.688 38.089 36.374 40.438 35.062 C40.767 36.053 41.097 37.042 41.438 38.062 C44.077 38.062 46.718 38.062 49.438 38.062 C49.438 38.722 49.438 39.382 49.438 40.062 C45.104 40.062 40.771 40.062 36.438 40.062 C33.796 41.283 33.796 41.283 31.188 42.938 C30.295 43.471 29.403 44.005 28.484 44.555 C27.809 45.052 27.133 45.55 26.438 46.062 C26.233 48.207 26.233 48.207 27.938 50 C29.438 52.062 29.438 52.062 29.438 55.062 C31.748 54.403 34.058 53.743 36.438 53.062 C36.438 53.722 36.438 54.382 36.438 55.062 C37.097 55.062 37.757 55.062 38.438 55.062 C38.108 57.373 37.778 59.683 37.438 62.062 C38.757 62.062 40.077 62.062 41.438 62.062 C41.52 61.279 41.602 60.495 41.688 59.688 C42.438 57.062 42.438 57.062 44 55.75 C48.004 54.621 52.64 54.164 56.438 56.062 C57.625 59.323 57.567 62.524 57.57 65.965 C57.572 67.102 57.573 68.24 57.574 69.412 C57.57 70.596 57.566 71.78 57.562 73 C57.566 74.18 57.57 75.36 57.574 76.576 C57.573 77.715 57.572 78.854 57.57 80.027 C57.569 81.065 57.568 82.103 57.567 83.172 C57.444 85.909 57.055 88.398 56.438 91.062 C55.778 91.062 55.118 91.062 54.438 91.062 C54.438 81.493 54.438 71.922 54.438 62.062 C51.137 62.722 47.838 63.382 44.438 64.062 C44.882 64.677 45.327 65.292 45.785 65.926 C46.351 66.734 46.917 67.542 47.5 68.375 C48.068 69.176 48.637 69.976 49.223 70.801 C49.624 71.547 50.024 72.294 50.438 73.062 C49.942 74.547 49.942 74.547 49.438 76.062 C47.127 72.763 44.817 69.463 42.438 66.062 C41.118 67.713 39.798 69.362 38.438 71.062 C38.962 71.768 38.962 71.768 39.496 72.488 C39.951 73.111 40.406 73.734 40.875 74.375 C41.327 74.99 41.78 75.605 42.246 76.238 C44.761 80.089 44.6 83.59 44.438 88.062 C44.108 88.722 43.778 89.382 43.438 90.062 C42.778 90.062 42.118 90.062 41.438 90.062 C41.525 89.227 41.525 89.227 41.613 88.375 C41.995 81.923 40.464 78.075 36.438 73.062 C35.901 72.538 35.365 72.013 34.812 71.473 C33.139 69.756 32.839 68.393 32.438 66.062 C31.509 65.877 31.509 65.877 30.562 65.688 C28.438 65.062 28.438 65.062 26.438 63.062 C26.312 60.438 26.312 60.438 26.438 58.062 C25.118 57.403 23.798 56.743 22.438 56.062 C22.438 55.403 22.438 54.743 22.438 54.062 C21.778 54.062 21.118 54.062 20.438 54.062 C20.06 53.408 19.682 52.753 19.293 52.078 C17.486 49.671 17.486 49.671 13.863 49.672 C12.492 49.698 11.12 49.746 9.75 49.812 C9.048 49.831 8.346 49.849 7.623 49.867 C5.894 49.914 4.166 49.986 2.438 50.062 C3.097 52.042 3.757 54.023 4.438 56.062 C7.903 55.567 7.903 55.567 11.438 55.062 C12.097 56.713 12.757 58.362 13.438 60.062 C12.798 60.846 12.159 61.63 11.5 62.438 C9.456 64.858 9.456 64.858 8.438 67.062 C5.673 67.287 3.975 67.385 1.562 65.938 C-0.115 63.141 0.689 61.126 1.438 58.062 C0.386 57.784 0.386 57.784 -0.688 57.5 C-4.148 55.77 -5.698 53.643 -8.078 50.668 C-9.976 48.615 -11.966 48 -14.562 47.062 C-16.555 43.979 -16.889 41.245 -17.125 37.625 C-17.555 31.32 -18.556 26.683 -21.562 21.062 C-20.779 21.083 -19.995 21.104 -19.188 21.125 C-16.581 21.249 -16.581 21.249 -14.562 20.062 C-14.562 20.722 -14.562 21.383 -14.562 22.062 C-12.252 22.062 -9.942 22.062 -7.562 22.062 C-7.232 21.403 -6.903 20.742 -6.562 20.062 C-5.903 20.062 -5.243 20.062 -4.562 20.062 C-4.201 17.772 -3.848 15.48 -3.5 13.188 C-3.303 11.911 -3.106 10.635 -2.902 9.32 C-2.28 6.18 -2.28 6.18 -3.562 4.062 C-5.213 8.352 -6.863 12.642 -8.562 17.062 C-9.222 16.733 -9.882 16.403 -10.562 16.062 C-9.586 13.582 -8.607 11.103 -7.625 8.625 C-7.347 7.918 -7.069 7.211 -6.783 6.482 C-4.238 0.074 -4.238 0.074 0 0 Z " fill="#232323" transform="translate(191.5625,36.9375)"/>
<path d="M0 0 C0 3.988 -1.417 5.138 -3.875 8.25 C-11.73 18.438 -18.623 29.154 -25.125 40.25 C-25.611 41.073 -26.097 41.895 -26.597 42.742 C-27.042 43.513 -27.487 44.284 -27.945 45.078 C-28.343 45.763 -28.74 46.448 -29.149 47.153 C-30.209 49.115 -30.209 49.115 -30 52 C-28.562 53.688 -28.562 53.688 -27 55 C-28.98 54.34 -30.96 53.68 -33 53 C-33 53.66 -33 54.32 -33 55 C-31.515 55.495 -31.515 55.495 -30 56 C-31.485 56.495 -31.485 56.495 -33 57 C-32.34 57.66 -31.68 58.32 -31 59 C-32.32 59 -33.64 59 -35 59 C-35.227 59.681 -35.454 60.361 -35.688 61.062 C-41.513 74.1 -54.273 77.306 -66.875 82.125 C-69.327 83.074 -71.779 84.025 -74.23 84.977 C-74.859 85.22 -75.488 85.463 -76.136 85.714 C-80.829 87.534 -85.506 89.394 -90.176 91.273 C-91.185 91.679 -91.185 91.679 -92.214 92.093 C-94.843 93.151 -97.471 94.21 -100.098 95.273 C-107.007 98.069 -113.896 100.741 -121 103 C-121 102.34 -121 101.68 -121 101 C-119.94 100.587 -119.94 100.587 -118.858 100.165 C-105.476 94.941 -92.114 89.677 -78.812 84.25 C-77.696 83.795 -76.58 83.34 -75.43 82.871 C-70.491 80.851 -65.557 78.82 -60.637 76.754 C-59.842 76.422 -59.048 76.089 -58.229 75.747 C-56.795 75.146 -55.363 74.54 -53.933 73.929 C-51.102 72.742 -49.106 72 -46 72 C-45.814 71.134 -45.814 71.134 -45.625 70.25 C-44.994 67.977 -44.111 66.075 -43 64 C-50.614 62.215 -55.671 64.306 -62.75 67.25 C-63.872 67.699 -64.995 68.149 -66.151 68.612 C-68.54 69.569 -70.925 70.533 -73.308 71.503 C-78.253 73.508 -83.221 75.452 -88.19 77.396 C-91.636 78.743 -95.078 80.099 -98.52 81.457 C-102.978 83.213 -107.446 84.941 -111.922 86.652 C-117.091 88.634 -122.178 90.757 -127.246 92.984 C-130.161 94.06 -132.927 94.584 -136 95 C-133.843 92.843 -132.461 92.275 -129.633 91.23 C-128.746 90.899 -127.859 90.567 -126.945 90.225 C-126.015 89.882 -125.084 89.54 -124.125 89.188 C-117.444 86.711 -110.836 84.121 -104.268 81.359 C-88.115 74.641 -71.761 68.312 -55.375 62.188 C-54.513 61.856 -53.651 61.525 -52.762 61.184 C-47.943 59.414 -44.135 58.649 -39 59 C-38.34 57.35 -37.68 55.7 -37 54 C-42.025 52.762 -45.754 53.419 -50.578 54.961 C-51.312 55.187 -52.046 55.412 -52.803 55.645 C-62.245 58.612 -71.494 62.128 -80.75 65.625 C-82.641 66.334 -84.531 67.042 -86.422 67.75 C-94.982 70.959 -103.53 74.196 -112.07 77.457 C-112.75 77.716 -113.429 77.975 -114.129 78.242 C-117.232 79.426 -120.334 80.615 -123.433 81.813 C-124.504 82.224 -125.576 82.635 -126.68 83.059 C-127.595 83.412 -128.51 83.766 -129.453 84.131 C-131.958 84.986 -134.395 85.545 -137 86 C-137 85.34 -137 84.68 -137 84 C-136.464 83.807 -135.929 83.614 -135.377 83.415 C-100.614 70.909 -100.614 70.909 -66 58 C-63.63 57.101 -61.26 56.203 -58.888 55.307 C-56.94 54.572 -54.994 53.833 -53.047 53.094 C-48.91 51.609 -45.648 50.873 -41.25 50.938 C-40.451 50.947 -39.652 50.956 -38.828 50.965 C-38.225 50.976 -37.622 50.988 -37 51 C-36.997 50.443 -36.995 49.886 -36.992 49.312 C-36.647 42.492 -34.382 39.063 -30 34 C-28.435 32.086 -26.872 30.169 -25.312 28.25 C-24.566 27.348 -23.82 26.445 -23.051 25.516 C-20.02 21.798 -17.631 18.432 -15.625 14.062 C-13.576 9.846 -11.546 7.039 -8 4 C-7.01 4.99 -7.01 4.99 -6 6 C-4.02 4.02 -2.04 2.04 0 0 Z " fill="#101010" transform="translate(145,178)"/>
<path d="M0 0 C2.605 -0.081 5.207 -0.14 7.812 -0.188 C8.55 -0.213 9.288 -0.238 10.049 -0.264 C15.51 -0.338 15.51 -0.338 18.012 1.387 C19 3 19 3 19 5 C19.66 5 20.32 5 21 5 C21 5.66 21 6.32 21 7 C23.475 7.495 23.475 7.495 26 8 C25.959 8.949 25.917 9.898 25.875 10.875 C25.65 14.102 25.65 14.102 28 16 C30.584 16.167 30.584 16.167 33 16 C32.814 17.021 32.814 17.021 32.625 18.062 C33.119 21.932 34.855 23.495 37.492 26.254 C39.675 28.782 40.936 30.807 41.117 34.184 C40.577 39.21 39.846 42.387 36 46 C35.34 46 34.68 46 34 46 C34 46.66 34 47.32 34 48 C32.441 48.82 30.878 49.631 29.312 50.438 C28.007 51.116 28.007 51.116 26.676 51.809 C24.09 52.96 21.786 53.563 19 54 C19.632 53.074 19.632 53.074 20.277 52.129 C24.845 45.067 26.552 39.97 25.625 31.625 C23.477 26.834 20.34 23.291 16.898 19.355 C15 17 15 17 15 15 C13.35 15 11.7 15 10 15 C10.186 14.072 10.371 13.144 10.562 12.188 C11.241 8.987 11.241 8.987 10 6 C7.36 6.66 4.72 7.32 2 8 C1.34 5.36 0.68 2.72 0 0 Z " fill="#FFFFFF" transform="translate(193,86)"/>
<path d="M0 0 C1.945 -0.293 1.945 -0.293 4.125 -0.188 C5.404 -0.126 6.683 -0.064 8 0 C7.34 2.31 6.68 4.62 6 7 C5.34 7 4.68 7 4 7 C3.818 7.545 3.636 8.091 3.449 8.652 C1.633 14.102 -0.184 19.551 -2 25 C3.716 25.396 3.716 25.396 9 23.5 C11.895 19.882 11.379 17.547 11 13 C11.771 12.939 12.542 12.879 13.336 12.816 C14.339 12.733 15.342 12.649 16.375 12.562 C17.373 12.481 18.37 12.4 19.398 12.316 C21.979 12.15 21.979 12.15 24 11 C24.33 10.01 24.66 9.02 25 8 C26.98 8 28.96 8 31 8 C29.793 8.897 29.793 8.897 28.562 9.812 C25.777 11.809 25.777 11.809 25 15 C25.66 15.33 26.32 15.66 27 16 C26.285 16.413 25.569 16.825 24.832 17.25 C18.087 21.159 11.427 25.175 4.812 29.301 C0.619 31.834 -2.013 33.256 -6.984 33.195 C-7.919 33.189 -8.854 33.182 -9.816 33.176 C-11.269 33.151 -11.269 33.151 -12.75 33.125 C-13.734 33.116 -14.717 33.107 -15.73 33.098 C-18.154 33.074 -20.577 33.041 -23 33 C-19.219 29.172 -19.219 29.172 -17.25 27.625 C-15.681 25.945 -15.681 25.945 -16.125 23 C-16.084 22.01 -16.042 21.02 -16 20 C-13.29 17.689 -11.327 17.051 -7.812 16.5 C-6.884 16.335 -5.956 16.17 -5 16 C-2.889 12.834 -2.718 11.667 -2.5 8 C-2.282 4.333 -2.111 3.166 0 0 Z " fill="#FFFFFF" transform="translate(211,27)"/>
<path d="M0 0 C0.489 19.415 0.812 38.569 -13 54 C-13.66 54 -14.32 54 -15 54 C-15 54.66 -15 55.32 -15 56 C-16.485 56.495 -16.485 56.495 -18 57 C-17.477 54.237 -16.891 51.674 -16 49 C-17.32 49 -18.64 49 -20 49 C-19.67 49.99 -19.34 50.98 -19 52 C-18.438 55.375 -18.438 55.375 -19 59 C-22.453 62.215 -26.414 64.029 -31 65 C-31.671 63.544 -32.337 62.085 -33 60.625 C-33.371 59.813 -33.743 59.001 -34.125 58.164 C-35 56 -35 56 -35 54 C-32.691 52.449 -32.691 52.449 -29.562 50.688 C-28.467 50.061 -27.371 49.435 -26.242 48.789 C-24.327 47.732 -22.399 46.697 -20.445 45.711 C-13.463 42.159 -8.195 37.377 -5.062 30.062 C-2.797 22.814 -3.518 16.911 -6.844 10.152 C-8.504 7.062 -10.204 4.015 -12 1 C-10.377 0.638 -8.751 0.285 -7.125 -0.062 C-6.22 -0.26 -5.315 -0.457 -4.383 -0.66 C-2 -1 -2 -1 0 0 Z " fill="#FFFFFF" transform="translate(247,99)"/>
<path d="M0 0 C6.026 5.7 9.061 10.449 9.312 18.75 C9.235 26.252 5.873 31.479 1 37 C-6.381 42.446 -14.04 45.332 -23 47 C-22.67 45.68 -22.34 44.36 -22 43 C-23.98 43.495 -23.98 43.495 -26 44 C-25.67 45.32 -25.34 46.64 -25 48 C-25.797 48.326 -26.593 48.652 -27.414 48.988 C-28.474 49.425 -29.533 49.862 -30.625 50.312 C-31.721 50.764 -32.816 51.215 -33.945 51.68 C-36.237 52.67 -38.344 53.698 -40.5 54.938 C-43 56 -43 56 -45.312 55.312 C-47 54 -47 54 -48 52 C-38.392 47.089 -28.892 42.458 -18.715 38.828 C-12.505 36.56 -7.807 34.547 -3 30 C-2.34 30 -1.68 30 -1 30 C-0.691 29.216 -0.381 28.433 -0.062 27.625 C1 25 1 25 2 23 C2.72 17.117 1.134 13.847 -1.906 9.016 C-3 7 -3 7 -3 4 C-1.5 1.812 -1.5 1.812 0 0 Z " fill="#FFFFFF" transform="translate(233,102)"/>
<path d="M0 0 C0.99 1.485 0.99 1.485 2 3 C4.475 2.505 4.475 2.505 7 2 C6.34 2.99 5.68 3.98 5 5 C5.33 5 5.66 5 6 5 C6 8.3 6 11.6 6 15 C4.68 15.33 3.36 15.66 2 16 C1.505 15.01 1.505 15.01 1 14 C-4.054 15.414 -7.845 17.649 -12.125 20.562 C-15.683 22.976 -18.781 25.014 -23 26 C-23.88 26.379 -23.88 26.379 -24.777 26.765 C-32.458 30.004 -40.436 29.097 -48.562 28.688 C-50.063 28.624 -51.564 28.562 -53.064 28.502 C-56.711 28.352 -60.355 28.182 -64 28 C-64 27.34 -64 26.68 -64 26 C-52.12 26 -40.24 26 -28 26 C-28.495 22.04 -28.495 22.04 -29 18 C-28.045 17.432 -27.09 16.863 -26.105 16.277 C-17.294 11.02 -8.54 5.693 0 0 Z " fill="#8E8E8E" transform="translate(239,45)"/>
<path d="M0 0 C0.33 0 0.66 0 1 0 C1.784 10.034 -0.668 19.04 -7 27 C-8.654 28.615 -10.333 30.2 -12.012 31.789 C-14.986 35.096 -17.313 38.889 -19.54 42.733 C-20.594 44.402 -20.594 44.402 -23 47 C-26.781 47.379 -26.781 47.379 -30 47 C-30.33 46.34 -30.66 45.68 -31 45 C-29.746 42.419 -28.438 39.977 -27 37.5 C-26.584 36.775 -26.169 36.049 -25.74 35.302 C-22.456 29.639 -18.923 24.244 -15 19 C-14.22 17.955 -13.44 16.909 -12.637 15.832 C-11.071 13.738 -9.497 11.651 -7.918 9.566 C-6.56 7.749 -5.259 5.888 -4 4 C-3.34 4 -2.68 4 -2 4 C-1.34 2.68 -0.68 1.36 0 0 Z " fill="#FFFFFF" transform="translate(157,177)"/>
<path d="M0 0 C8.319 2.308 16.021 7.473 20.52 14.977 C20.885 18.555 20.208 20.05 18.09 22.902 C16.621 24.656 15.11 26.333 13.52 27.977 C12.86 27.647 12.2 27.317 11.52 26.977 C12.048 26.385 12.577 25.793 13.121 25.184 C13.789 24.393 14.457 23.603 15.145 22.789 C16.154 21.623 16.154 21.623 17.184 20.434 C18.836 18.039 18.836 18.039 17.926 15.367 C14.449 9.457 7.981 5.13 1.52 2.977 C-0.962 2.424 -0.962 2.424 -3.48 2.977 C-5.826 5.151 -5.826 5.151 -7.793 7.977 C-8.49 8.905 -9.188 9.833 -9.906 10.789 C-10.426 11.511 -10.945 12.233 -11.48 12.977 C-10.572 13.253 -10.572 13.253 -9.645 13.535 C-2.256 16.093 3.368 20.065 8.52 25.977 C9.297 28.258 9.297 28.258 9.52 29.977 C8.839 29.275 8.158 28.574 7.457 27.852 C-1.496 18.858 -1.496 18.858 -13.48 15.977 C-14.47 20.267 -15.46 24.557 -16.48 28.977 C-14.5 29.307 -12.52 29.637 -10.48 29.977 C-7.031 32.005 -4.29 34.167 -1.48 36.977 C-0.82 36.977 -0.16 36.977 0.52 36.977 C0.52 37.637 0.52 38.297 0.52 38.977 C-0.418 39.607 -0.418 39.607 -1.375 40.25 C-5.801 43.879 -5.881 50.548 -6.48 55.977 C-7.077 64.298 -7.303 72.637 -7.48 80.977 C-7.81 80.977 -8.14 80.977 -8.48 80.977 C-8.556 77.048 -8.61 73.12 -8.645 69.191 C-8.667 67.211 -8.706 65.231 -8.744 63.252 C-8.798 56.155 -8.364 50 -6.13 43.24 C-5.297 40.728 -5.297 40.728 -5.48 36.977 C-8.974 33.483 -11.423 31.423 -16.48 30.977 C-17.409 32.678 -17.409 32.678 -18.355 34.414 C-18.704 35.052 -19.052 35.69 -19.41 36.348 C-23.263 45.81 -22.715 55.524 -22.605 65.539 C-22.595 67.136 -22.586 68.733 -22.578 70.33 C-22.556 74.212 -22.522 78.094 -22.48 81.977 C-19.18 82.637 -15.88 83.297 -12.48 83.977 C-12.48 84.307 -12.48 84.637 -12.48 84.977 C-13.897 85.004 -15.314 85.023 -16.73 85.039 C-17.914 85.056 -17.914 85.056 -19.121 85.074 C-21.387 84.98 -23.309 84.609 -25.48 83.977 C-25.15 84.637 -24.82 85.297 -24.48 85.977 C-22.166 86.707 -19.832 87.378 -17.48 87.977 C-17.48 88.307 -17.48 88.637 -17.48 88.977 C-23.23 89.102 -23.23 89.102 -25.48 87.977 C-25.15 91.937 -24.82 95.897 -24.48 99.977 C-20.19 100.637 -15.9 101.297 -11.48 101.977 C-11.48 102.307 -11.48 102.637 -11.48 102.977 C-15.77 102.977 -20.06 102.977 -24.48 102.977 C-20.19 103.637 -15.9 104.297 -11.48 104.977 C-11.48 105.307 -11.48 105.637 -11.48 105.977 C-13.23 106.031 -14.98 106.069 -16.73 106.102 C-17.705 106.125 -18.68 106.148 -19.684 106.172 C-22.5 105.975 -24.09 105.422 -26.48 103.977 C-27.048 46.262 -27.048 46.262 -19.383 31.191 C-18.25 28.412 -17.891 25.758 -17.48 22.789 C-16.733 17.803 -15.761 14.93 -12.48 10.977 C-11.815 10.041 -11.15 9.105 -10.465 8.141 C-9.707 7.117 -8.949 6.094 -8.168 5.039 C-7.45 4.061 -6.732 3.082 -5.992 2.074 C-3.48 -0.023 -3.48 -0.023 0 0 Z " fill="#000000" transform="translate(164.48046875,17.0234375)"/>
<path d="M0 0 C0.99 0.33 1.98 0.66 3 1 C2.67 1.763 2.34 2.526 2 3.312 C0.826 5.991 0.826 5.991 1 9 C3.64 9.33 6.28 9.66 9 10 C9.209 20.969 8.994 32.194 7 43 C6.67 43 6.34 43 6 43 C5.885 35.645 6.041 28.366 6.504 21.027 C6.551 20.251 6.599 19.474 6.648 18.674 C6.763 16.782 6.881 14.891 7 13 C2.575 14.741 -1.85 16.483 -6.275 18.225 C-7.773 18.814 -9.271 19.404 -10.769 19.993 C-29.571 27.376 -29.571 27.376 -48.266 35.027 C-49.422 35.509 -50.578 35.99 -51.77 36.486 C-54.139 37.474 -56.507 38.47 -58.871 39.471 C-60.582 40.179 -60.582 40.179 -62.328 40.902 C-63.348 41.33 -64.368 41.758 -65.419 42.199 C-68 43 -68 43 -71 42 C-55.028 35.179 -38.913 28.738 -22.771 22.332 C-19.465 21.019 -16.16 19.703 -12.855 18.387 C-11.852 17.99 -10.849 17.593 -9.816 17.184 C-5.097 15.303 -0.493 13.372 4 11 C1.626 10.749 1.626 10.749 -1 11 C-1.474 11.495 -1.949 11.99 -2.438 12.5 C-4 14 -4 14 -7.188 14.188 C-8.116 14.126 -9.044 14.064 -10 14 C-10.495 12.02 -10.495 12.02 -11 10 C-11.846 10.804 -12.691 11.609 -13.562 12.438 C-16.852 15.216 -19.686 15.741 -24 16 C-24 11.867 -22.331 9.953 -19.859 6.746 C-16.724 3.802 -14.217 3.93 -10 4 C-9.34 4.33 -8.68 4.66 -8 5 C-8 4.34 -8 3.68 -8 3 C-7.01 3.33 -6.02 3.66 -5 4 C-4.546 3.526 -4.093 3.051 -3.625 2.562 C-2 1 -2 1 0 0 Z " fill="#000000" transform="translate(131,238)"/>
<path d="M0 0 C6.183 5.83 10.667 10.677 11.137 19.508 C10.805 25.562 8.332 30.779 4 35 C-1.783 39.087 -8.194 42.186 -14.5 45.375 C-15.207 45.733 -15.913 46.091 -16.642 46.46 C-21.755 49 -21.755 49 -24 49 C-24 48.01 -24 47.02 -24 46 C-24.66 46 -25.32 46 -26 46 C-26 45.34 -26 44.68 -26 44 C-25.466 43.764 -24.933 43.528 -24.383 43.285 C-7.949 36.868 -7.949 36.868 3 24 C3.725 19.361 3.488 15.907 1.25 11.75 C0.507 10.843 -0.235 9.935 -1 9 C-1.743 8.051 -2.485 7.103 -3.25 6.125 C-3.827 5.424 -4.405 4.722 -5 4 C-3.35 2.68 -1.7 1.36 0 0 Z " fill="#FFFFFF" transform="translate(207,104)"/>
<path d="M0 0 C0.905 5.199 1.152 9.316 -1.91 13.793 C-3.628 15.633 -5.385 17.437 -7.176 19.207 C-10.079 22.078 -12.566 25.01 -15.125 28.188 C-16.243 29.57 -16.243 29.57 -17.383 30.98 C-18.183 31.98 -18.183 31.98 -19 33 C-19.993 30.021 -20.055 28.408 -19.879 25.332 C-19.831 24.439 -19.782 23.547 -19.732 22.627 C-19.676 21.698 -19.62 20.769 -19.562 19.812 C-19.51 18.872 -19.458 17.932 -19.404 16.963 C-19.275 14.642 -19.14 12.321 -19 10 C-16.98 10.602 -14.979 11.273 -13 12 C-12.67 12.66 -12.34 13.32 -12 14 C-11.34 14 -10.68 14 -10 14 C-10 13.01 -10 12.02 -10 11 C-10.566 10.867 -11.132 10.734 -11.715 10.598 C-12.448 10.421 -13.182 10.244 -13.938 10.062 C-14.668 9.888 -15.399 9.714 -16.152 9.535 C-18 9 -18 9 -19 8 C-19.041 5.667 -19.042 3.333 -19 1 C-17.952 1.012 -16.904 1.023 -15.824 1.035 C-14.445 1.045 -13.066 1.054 -11.688 1.062 C-10.997 1.071 -10.307 1.079 -9.596 1.088 C-6.272 1.104 -3.134 0 0 0 Z " fill="#FFFFFF" transform="translate(158,152)"/>
<path d="M0 0 C1.134 0.021 2.269 0.041 3.438 0.062 C2.118 0.392 0.798 0.722 -0.562 1.062 C-0.378 1.921 -0.194 2.78 -0.004 3.664 C0.459 7.232 0.165 9.917 -0.5 13.438 C-0.695 14.497 -0.889 15.557 -1.09 16.648 C-1.246 17.445 -1.402 18.242 -1.562 19.062 C-0.243 18.073 1.077 17.082 2.438 16.062 C3.097 16.392 3.757 16.722 4.438 17.062 C2.458 18.712 0.477 20.362 -1.562 22.062 C2.067 22.392 5.697 22.722 9.438 23.062 C9.438 23.392 9.438 23.722 9.438 24.062 C6.021 24.092 2.604 24.109 -0.812 24.125 C-1.781 24.133 -2.749 24.142 -3.746 24.15 C-4.681 24.154 -5.615 24.157 -6.578 24.16 C-7.437 24.165 -8.296 24.171 -9.181 24.176 C-11.449 24.068 -13.389 23.698 -15.562 23.062 C-15.562 23.722 -15.562 24.383 -15.562 25.062 C-8.963 25.062 -2.363 25.062 4.438 25.062 C4.438 25.392 4.438 25.722 4.438 26.062 C-2.162 26.062 -8.762 26.062 -15.562 26.062 C-15.562 28.043 -15.562 30.023 -15.562 32.062 C-11.079 32.23 -6.595 32.391 -2.11 32.545 C-0.586 32.598 0.939 32.653 2.464 32.711 C4.658 32.793 6.852 32.868 9.047 32.941 C10.066 32.982 10.066 32.982 11.105 33.023 C14.391 33.126 17.299 33.098 20.438 32.062 C20.108 33.053 19.778 34.042 19.438 35.062 C7.39 35.182 -4.544 34.924 -16.562 34.062 C-16.562 34.722 -16.562 35.382 -16.562 36.062 C-12.17 36.137 -7.778 36.191 -3.385 36.227 C-1.894 36.242 -0.404 36.263 1.087 36.289 C10.252 36.446 18.036 36.263 26.438 32.062 C26.108 33.053 25.778 34.042 25.438 35.062 C23.371 36.012 23.371 36.012 20.875 36.75 C19.636 37.127 19.636 37.127 18.371 37.512 C17.733 37.693 17.095 37.875 16.438 38.062 C16.933 42.517 16.933 42.517 17.438 47.062 C16.778 47.062 16.118 47.062 15.438 47.062 C15.438 44.093 15.438 41.123 15.438 38.062 C5.208 37.733 -5.023 37.403 -15.562 37.062 C-13.845 43.796 -13.845 43.796 -9.562 48.062 C-11.938 47.812 -11.938 47.812 -14.562 47.062 C-16.585 44.004 -16.89 41.234 -17.125 37.625 C-17.555 31.32 -18.556 26.683 -21.562 21.062 C-20.779 21.083 -19.995 21.104 -19.188 21.125 C-16.581 21.249 -16.581 21.249 -14.562 20.062 C-14.562 20.722 -14.562 21.383 -14.562 22.062 C-12.252 22.062 -9.942 22.062 -7.562 22.062 C-7.232 21.403 -6.903 20.742 -6.562 20.062 C-5.903 20.062 -5.243 20.062 -4.562 20.062 C-4.201 17.772 -3.848 15.48 -3.5 13.188 C-3.303 11.911 -3.106 10.635 -2.902 9.32 C-2.28 6.18 -2.28 6.18 -3.562 4.062 C-5.213 8.352 -6.863 12.642 -8.562 17.062 C-9.222 16.733 -9.882 16.403 -10.562 16.062 C-9.586 13.582 -8.607 11.103 -7.625 8.625 C-7.347 7.918 -7.069 7.211 -6.783 6.482 C-4.238 0.074 -4.238 0.074 0 0 Z " fill="#000000" transform="translate(191.5625,36.9375)"/>
<path d="M0 0 C1.187 3.261 1.129 6.462 1.133 9.902 C1.134 11.04 1.135 12.178 1.137 13.35 C1.133 14.534 1.129 15.718 1.125 16.938 C1.131 18.708 1.131 18.708 1.137 20.514 C1.135 21.653 1.134 22.791 1.133 23.965 C1.132 25.002 1.131 26.04 1.129 27.109 C1.007 29.846 0.617 32.335 0 35 C-0.66 35 -1.32 35 -2 35 C-2 25.43 -2 15.86 -2 6 C-5.3 6.66 -8.6 7.32 -12 8 C-11.555 8.615 -11.111 9.23 -10.652 9.863 C-10.086 10.672 -9.521 11.48 -8.938 12.312 C-8.369 13.113 -7.801 13.914 -7.215 14.738 C-6.814 15.485 -6.413 16.231 -6 17 C-6.33 17.99 -6.66 18.98 -7 20 C-9.31 16.7 -11.62 13.4 -14 10 C-15.32 11.65 -16.64 13.3 -18 15 C-17.651 15.471 -17.301 15.941 -16.941 16.426 C-16.486 17.048 -16.031 17.671 -15.562 18.312 C-15.11 18.927 -14.658 19.542 -14.191 20.176 C-11.677 24.026 -11.837 27.528 -12 32 C-12.33 32.66 -12.66 33.32 -13 34 C-13.66 34 -14.32 34 -15 34 C-14.913 33.165 -14.913 33.165 -14.824 32.312 C-14.443 25.86 -15.974 22.013 -20 17 C-20.536 16.496 -21.072 15.992 -21.625 15.473 C-23.692 13.259 -23.674 10.931 -24 8 C-22.35 6.68 -20.7 5.36 -19 4 C-19 4.66 -19 5.32 -19 6 C-17.68 6 -16.36 6 -15 6 C-14.917 5.216 -14.835 4.433 -14.75 3.625 C-14 1 -14 1 -12.438 -0.312 C-8.433 -1.442 -3.797 -1.899 0 0 Z " fill="#070707" transform="translate(248,93)"/>
<path d="M0 0 C0.99 0.33 1.98 0.66 3 1 C3.5 4.125 3.5 4.125 3 8 C1.564 9.467 1.564 9.467 -0.387 10.844 C-1.114 11.357 -1.84 11.87 -2.589 12.399 C-6.764 15.172 -11.011 17.804 -15.312 20.375 C-16.205 20.92 -17.098 21.466 -18.018 22.027 C-18.874 22.542 -19.731 23.056 -20.613 23.586 C-21.77 24.283 -21.77 24.283 -22.95 24.994 C-25 26 -25 26 -28 26 C-28 22.7 -28 19.4 -28 16 C-27.319 15.683 -26.639 15.366 -25.938 15.039 C-18.709 11.559 -12.014 7.621 -5.346 3.165 C-3.61 2.035 -1.809 1.008 0 0 Z " fill="#F7F7F7" transform="translate(238,58)"/>
<path d="M0 0 C0.33 0.66 0.66 1.32 1 2 C0.012 4.338 0.012 4.338 -1.527 7.227 C-2.344 8.773 -2.344 8.773 -3.178 10.352 C-3.758 11.432 -4.339 12.512 -4.938 13.625 C-5.514 14.713 -6.091 15.801 -6.686 16.922 C-8.117 19.618 -9.555 22.311 -11 25 C-11.99 25 -12.98 25 -14 25 C-14 24.01 -14 23.02 -14 22 C-14.66 21.67 -15.32 21.34 -16 21 C-15.01 20.34 -14.02 19.68 -13 19 C-12.069 17.106 -11.142 15.21 -10.242 13.301 C-7.592 8.391 -3.939 3.939 0 0 Z M-23.492 21.074 C-22.629 21.277 -21.765 21.479 -20.875 21.688 C-20.006 21.877 -19.137 22.066 -18.242 22.262 C-16 23 -16 23 -14 25 C-14 25.99 -14 26.98 -14 28 C-21.716 31.649 -28.434 33.815 -37 34 C-37.33 33.34 -37.66 32.68 -38 32 C-37.67 31.34 -37.34 30.68 -37 30 C-36.01 30 -35.02 30 -34 30 C-34 29.34 -34 28.68 -34 28 C-34.99 27.67 -35.98 27.34 -37 27 C-36.01 26.67 -35.02 26.34 -34 26 C-34.99 25.01 -35.98 24.02 -37 23 C-34 23 -34 23 -32.062 23.688 C-31.382 23.791 -30.701 23.894 -30 24 C-29.403 23.497 -28.806 22.995 -28.191 22.477 C-26 21 -26 21 -23.492 21.074 Z " fill="#3C3C3C" transform="translate(148,208)"/>
<path d="M0 0 C3.475 3.253 3.973 8.126 4.773 12.66 C3.783 12.66 2.793 12.66 1.773 12.66 C1.113 13.98 0.453 15.3 -0.227 16.66 C-13.86 17.029 -13.86 17.029 -20.227 14.66 C-20.227 14 -20.227 13.34 -20.227 12.66 C-14.287 13.65 -14.287 13.65 -8.227 14.66 C-8.227 14 -8.227 13.34 -8.227 12.66 C-10.537 12.33 -12.847 12 -15.227 11.66 C-14.897 11 -14.567 10.34 -14.227 9.66 C-16.537 9 -18.847 8.34 -21.227 7.66 C-21.227 6.67 -21.227 5.68 -21.227 4.66 C-18.257 4.99 -15.287 5.32 -12.227 5.66 C-13.877 5.33 -15.527 5 -17.227 4.66 C-17.227 4.33 -17.227 4 -17.227 3.66 C-13.927 3.33 -10.627 3 -7.227 2.66 C-11.701 2.571 -15.832 2.803 -20.227 3.66 C-19.897 2.67 -19.567 1.68 -19.227 0.66 C-13.505 -1.653 -5.534 -3.33 0 0 Z " fill="#393939" transform="translate(159.2265625,127.33984375)"/>
<path d="M0 0 C0 3.929 -1.623 6.647 -3.375 10.062 C-3.725 10.754 -4.075 11.446 -4.436 12.158 C-8.731 20.562 -13.359 28.784 -18 37 C-18.66 37 -19.32 37 -20 37 C-19.34 35.35 -18.68 33.7 -18 32 C-19.98 32.33 -21.96 32.66 -24 33 C-24.33 33.99 -24.66 34.98 -25 36 C-25.66 35.67 -26.32 35.34 -27 35 C-27.33 35.33 -27.66 35.66 -28 36 C-29.562 36 -31.125 36 -32.688 36 C-36.168 36.275 -37.539 36.523 -39.996 39.066 C-41.472 41.328 -42.798 43.582 -44 46 C-39.443 45.562 -36.423 45.15 -33 42 C-33.973 44.654 -34.658 45.799 -37.125 47.25 C-40 48 -40 48 -43.664 47.85 C-48.397 47.814 -51.975 49.242 -56.25 51.148 C-57.018 51.477 -57.786 51.806 -58.578 52.144 C-61.057 53.208 -63.528 54.292 -66 55.375 C-67.705 56.109 -69.412 56.841 -71.118 57.572 C-75.316 59.372 -79.508 61.185 -83.698 63.003 C-89.184 65.38 -94.682 67.729 -100.188 70.062 C-101.159 70.485 -102.13 70.908 -103.131 71.343 C-104.009 71.716 -104.888 72.089 -105.793 72.473 C-106.541 72.795 -107.289 73.117 -108.059 73.449 C-110 74 -110 74 -113 73 C-102.351 67.917 -91.491 63.439 -80.562 59 C-74.789 56.65 -69.018 54.295 -63.253 51.924 C-61.785 51.322 -60.316 50.723 -58.846 50.126 C-56.899 49.334 -54.957 48.532 -53.016 47.727 C-51.937 47.284 -50.858 46.841 -49.747 46.385 C-45.845 44.418 -43.069 41.857 -41 38 C-40.355 35.872 -40.355 35.872 -40 34 C-39.322 33.974 -38.644 33.948 -37.945 33.922 C-31.706 33.542 -26.7 32.404 -20.996 29.84 C-19 29 -19 29 -17 29 C-16.918 28.423 -16.835 27.845 -16.75 27.25 C-16 25 -16 25 -14.273 23.461 C-10.961 19.875 -9.057 15.714 -6.875 11.375 C-6.001 9.652 -5.123 7.931 -4.242 6.211 C-3.668 5.071 -3.668 5.071 -3.082 3.908 C-2 2 -2 2 0 0 Z " fill="#000000" transform="translate(151,207)"/>
<path d="M0 0 C1.485 0.495 1.485 0.495 3 1 C2.125 8.875 2.125 8.875 1 10 C-0.858 10.029 -2.717 9.986 -4.574 9.914 C-6.288 9.848 -6.288 9.848 -8.037 9.781 C-9.242 9.73 -10.446 9.678 -11.688 9.625 C-12.873 9.581 -14.058 9.537 -15.279 9.492 C-20.612 9.277 -25.742 8.963 -31 8 C-31 6.02 -31 4.04 -31 2 C-9.991 1.801 -9.991 1.801 -1 3 C-0.67 2.01 -0.34 1.02 0 0 Z " fill="#FFFFFF" transform="translate(207,61)"/>
<path d="M0 0 C1.533 3.787 3.049 7.58 4.562 11.375 C5.219 12.995 5.219 12.995 5.889 14.648 C6.298 15.68 6.707 16.711 7.129 17.773 C7.511 18.727 7.893 19.68 8.287 20.662 C9 23 9 23 8 25 C2.404 20.238 -2.85 15.238 -8 10 C-8.978 9.041 -9.957 8.082 -10.938 7.125 C-13 5 -13 5 -14 3 C-12.419 2.493 -10.835 1.995 -9.25 1.5 C-7.927 1.082 -7.927 1.082 -6.578 0.656 C-4 0 -4 0 0 0 Z " fill="#FFFFFF" transform="translate(216,167)"/>
<path d="M0 0 C0.495 0.99 0.495 0.99 1 2 C-0.211 5.284 -1.942 8.339 -3.562 11.438 C-4.209 12.746 -4.209 12.746 -4.869 14.08 C-7.587 19.304 -9.399 21.706 -15 24 C-21.185 30.196 -26.889 38.115 -28 47 C-28.639 46.691 -29.279 46.381 -29.938 46.062 C-33.92 44.681 -37.817 44.346 -42 44 C-40.219 40.172 -40.219 40.172 -38.25 38.625 C-35.043 37.734 -33.012 38.768 -30 40 C-30 39.34 -30 38.68 -30 38 C-28.678 36.655 -27.343 35.324 -26 34 C-24.7 32.25 -23.431 30.478 -22.188 28.688 C-19.765 25.279 -17.415 22.298 -14.312 19.5 C-10.015 15.447 -8.199 10.378 -6 5 C-5.347 3.66 -4.685 2.324 -4 1 C-3.01 1 -2.02 1 -1 1 C-0.67 0.67 -0.34 0.34 0 0 Z " fill="#040404" transform="translate(162,186)"/>
<path d="M0 0 C1.65 0.66 3.3 1.32 5 2 C3.739 5.783 2.146 6.655 -1 9.062 C-9.559 15.912 -16.259 23.679 -22 33 C-23.478 28.567 -23.068 24.524 -22 20 C-19.437 16.695 -17.951 15.317 -14 14 C-13.7 13.393 -13.399 12.786 -13.09 12.16 C-11.707 9.42 -10.025 8.245 -7.562 6.438 C-4.844 4.426 -2.326 2.46 0 0 Z " fill="#FFFFFF" transform="translate(182,156)"/>
<path d="M0 0 C0.625 3.062 0.625 3.062 0 7 C-2.896 9.973 -6.447 11.896 -10 14 C-11.449 14.898 -12.897 15.798 -14.344 16.699 C-15.874 17.635 -17.405 18.569 -18.938 19.5 C-19.683 19.958 -20.429 20.416 -21.197 20.888 C-21.904 21.306 -22.611 21.725 -23.34 22.156 C-23.973 22.536 -24.606 22.916 -25.258 23.307 C-27 24 -27 24 -30 23 C-30.426 20.773 -30.426 20.773 -30 18 C-27.72 16.259 -25.689 14.964 -23.188 13.625 C-21.81 12.846 -20.434 12.066 -19.059 11.285 C-18.373 10.902 -17.687 10.52 -16.98 10.125 C-14.176 8.531 -11.463 6.807 -8.75 5.062 C-7.899 4.517 -7.048 3.972 -6.172 3.41 C-0.92 0 -0.92 0 0 0 Z " fill="#FFFFFF" transform="translate(240,45)"/>
<path d="M0 0 C2.523 3.775 1.987 6.746 1.375 11.125 C1.139 12.985 1.139 12.985 0.898 14.883 C0 18 0 18 -1.859 19.422 C-4.936 20.253 -7.831 20.117 -11 20 C-11.66 20 -12.32 20 -13 20 C-16.762 19.518 -18.506 18.85 -21 16 C-21.66 15.67 -22.32 15.34 -23 15 C-21.948 14.165 -21.948 14.165 -20.875 13.312 C-17.887 10.909 -14.941 8.462 -12 6 C-9.675 8.853 -8.249 11.541 -7 15 C-6.34 15 -5.68 15 -5 15 C-4.71 14.004 -4.71 14.004 -4.414 12.988 C-1.828 4.218 -1.828 4.218 0 0 Z " fill="#1E1E1E" transform="translate(188,39)"/>
<path d="M0 0 C0.698 -0.004 1.396 -0.008 2.115 -0.012 C7.311 -0.002 7.311 -0.002 8.438 1.125 C8.478 3.125 8.48 5.125 8.438 7.125 C7.118 7.125 5.798 7.125 4.438 7.125 C4.108 8.115 3.778 9.105 3.438 10.125 C-0.216 12.901 -4.19 12.403 -8.562 12.125 C-11.562 10.125 -11.562 10.125 -12.438 7.188 C-12.562 4.125 -12.562 4.125 -11.25 2.312 C-7.592 -0.262 -4.326 -0.024 0 0 Z " fill="#101010" transform="translate(242.5625,77.875)"/>
<path d="M0 0 C2.228 2.228 2.692 3.658 3.625 6.625 C4.016 7.851 4.016 7.851 4.414 9.102 C4.607 9.728 4.801 10.355 5 11 C2.897 11.672 0.793 12.337 -1.312 13 C-3.07 13.557 -3.07 13.557 -4.863 14.125 C-8 15 -8 15 -11 15 C-14.111 12.2 -16.479 9.362 -19 6 C-12.73 4.02 -6.46 2.04 0 0 Z " fill="#FFFFFF" transform="translate(210,154)"/>
<path d="M0 0 C0.029 4.042 0.047 8.083 0.062 12.125 C0.071 13.267 0.079 14.409 0.088 15.586 C0.091 16.695 0.094 17.803 0.098 18.945 C0.103 19.961 0.108 20.977 0.114 22.024 C-0.003 25.091 -0.432 27.986 -1 31 C-2.773 28.34 -3.817 26.142 -4.945 23.184 C-5.3 22.255 -5.654 21.326 -6.02 20.369 C-6.384 19.402 -6.749 18.434 -7.125 17.438 C-7.498 16.466 -7.87 15.495 -8.254 14.494 C-11 7.257 -11 7.257 -11 5 C-9.355 4.164 -7.709 3.331 -6.062 2.5 C-4.688 1.804 -4.688 1.804 -3.285 1.094 C-1 0 -1 0 0 0 Z " fill="#FFFFFF" transform="translate(228,160)"/>
<path d="M0 0 C0 3.988 -1.417 5.138 -3.875 8.25 C-7.526 12.964 -10.956 17.779 -14.25 22.75 C-14.673 23.387 -15.095 24.023 -15.531 24.679 C-17.76 28.058 -19.913 31.469 -22 34.938 C-22.66 35.948 -23.32 36.959 -24 38 C-24.66 38 -25.32 38 -26 38 C-24.434 33.692 -22.317 29.938 -20 26 C-20.99 26.99 -21.98 27.98 -23 29 C-23.66 28.67 -24.32 28.34 -25 28 C-24.553 27.466 -24.105 26.933 -23.645 26.383 C-19.727 21.555 -16.834 16.861 -14.199 11.242 C-12.56 8.177 -10.625 6.25 -8 4 C-7.34 4.66 -6.68 5.32 -6 6 C-4.02 4.02 -2.04 2.04 0 0 Z " fill="#080808" transform="translate(145,178)"/>
<path d="M0 0 C0.99 0.66 1.98 1.32 3 2 C-1.851 6.336 -6.772 9.976 -12.312 13.375 C-13.027 13.825 -13.742 14.275 -14.479 14.738 C-19.738 18 -19.738 18 -22 18 C-21.505 21.465 -21.505 21.465 -21 25 C-21.66 24.67 -22.32 24.34 -23 24 C-23 21.69 -23 19.38 -23 17 C-23.66 17 -24.32 17 -25 17 C-25.33 17.66 -25.66 18.32 -26 19 C-29.3 19 -32.6 19 -36 19 C-36 18.34 -36 17.68 -36 17 C-42.6 17 -49.2 17 -56 17 C-56 16.34 -56 15.68 -56 15 C-54.943 15.016 -54.943 15.016 -53.864 15.032 C-50.618 15.074 -47.371 15.099 -44.125 15.125 C-43.016 15.142 -41.908 15.159 -40.766 15.176 C-30.736 15.235 -22.485 14.407 -13.812 9.188 C-13.218 8.834 -12.624 8.48 -12.011 8.115 C-7.85 5.609 -3.862 2.943 0 0 Z " fill="#616161" transform="translate(232,45)"/>
<path d="M0 0 C0.994 0.009 1.988 0.018 3.012 0.027 C4.151 0.045 4.151 0.045 5.312 0.062 C5.642 0.722 5.972 1.382 6.312 2.062 C5.137 2.021 3.961 1.98 2.75 1.938 C-1.435 1.938 -4.759 2.619 -8.688 4.062 C-9.018 4.722 -9.347 5.382 -9.688 6.062 C-8.842 5.732 -7.996 5.403 -7.125 5.062 C-3.434 3.989 -0.512 3.768 3.312 4.062 C3.972 4.722 4.632 5.382 5.312 6.062 C3.002 6.393 0.692 6.722 -1.688 7.062 C-1.357 7.722 -1.028 8.382 -0.688 9.062 C-4.021 9.062 -7.354 9.062 -10.688 9.062 C-6.398 10.053 -2.107 11.042 2.312 12.062 C1.653 12.722 0.993 13.382 0.312 14.062 C0.972 14.393 1.632 14.722 2.312 15.062 C2.312 15.722 2.312 16.382 2.312 17.062 C-3.627 16.072 -3.627 16.072 -9.688 15.062 C-9.357 16.053 -9.028 17.042 -8.688 18.062 C-9.678 17.733 -10.667 17.403 -11.688 17.062 C-12.018 14.093 -12.347 11.123 -12.688 8.062 C-13.678 8.062 -14.667 8.062 -15.688 8.062 C-15.688 6.412 -15.688 4.762 -15.688 3.062 C-14.594 2.753 -13.501 2.444 -12.375 2.125 C-7.934 0.845 -4.624 -0.054 0 0 Z " fill="#0A0A0A" transform="translate(148.6875,124.9375)"/>
<path d="M0 0 C3.21 1.382 5.049 2.924 7.25 5.625 C7.771 6.257 8.292 6.888 8.828 7.539 C9.408 8.262 9.408 8.262 10 9 C9.431 9.141 8.862 9.282 8.275 9.427 C5.662 10.075 3.05 10.725 0.438 11.375 C-0.458 11.597 -1.353 11.818 -2.275 12.047 C-7.213 13.277 -12.118 14.567 -17 16 C-11.98 9.851 -6.629 4.419 0 0 Z " fill="#FFFFFF" transform="translate(188,161)"/>
<path d="M0 0 C1.65 1.32 3.3 2.64 5 4 C5.33 3.01 5.66 2.02 6 1 C6.66 2.32 7.32 3.64 8 5 C7.34 5 6.68 5 6 5 C6.33 5.66 6.66 6.32 7 7 C7.438 9.812 7.438 9.812 7 13 C4.383 16.009 2.797 17.746 -1.18 18.309 C-3.375 18.312 -3.375 18.312 -7 18 C-5.064 11.795 -2.744 5.892 0 0 Z " fill="#000000" transform="translate(216,35)"/>
<path d="M0 0 C2.045 1.667 2.926 2.525 3.341 5.177 C3.325 5.999 3.309 6.821 3.293 7.668 C3.283 8.561 3.274 9.453 3.264 10.373 C3.239 11.302 3.213 12.231 3.188 13.188 C3.167 14.598 3.167 14.598 3.146 16.037 C3.111 18.359 3.062 20.679 3 23 C-1.677 24.902 -4.852 25.089 -9.812 24.25 C-10.953 24.07 -12.094 23.889 -13.27 23.703 C-14.171 23.471 -15.072 23.239 -16 23 C-16.33 22.34 -16.66 21.68 -17 21 C-16.047 21.023 -15.095 21.046 -14.113 21.07 C-12.859 21.088 -11.605 21.106 -10.312 21.125 C-9.071 21.148 -7.83 21.171 -6.551 21.195 C-2.654 21.171 -2.654 21.171 2 19 C2 15.04 2 11.08 2 7 C0.742 7.33 -0.516 7.66 -1.812 8 C-4.39 8.676 -6.302 9 -9 9 C-9 8.34 -9 7.68 -9 7 C-11.31 6.67 -13.62 6.34 -16 6 C-16.33 5.01 -16.66 4.02 -17 3 C-16.108 3.035 -15.216 3.07 -14.297 3.105 C-13.126 3.133 -11.956 3.16 -10.75 3.188 C-9.59 3.222 -8.43 3.257 -7.234 3.293 C-3.777 2.98 -2.484 2.343 0 0 Z " fill="#535353" transform="translate(156,98)"/>
<path d="M0 0 C0.495 0.99 0.495 0.99 1 2 C0.122 3.564 -0.805 5.1 -1.75 6.625 C-2.516 7.913 -2.516 7.913 -3.297 9.227 C-10.362 16.476 -21.585 19.572 -30.875 23.125 C-33.327 24.074 -35.779 25.025 -38.23 25.977 C-38.859 26.22 -39.488 26.463 -40.136 26.714 C-44.829 28.534 -49.506 30.394 -54.176 32.273 C-54.848 32.544 -55.521 32.814 -56.214 33.093 C-58.843 34.151 -61.471 35.21 -64.098 36.273 C-71.007 39.069 -77.896 41.741 -85 44 C-85 43.34 -85 42.68 -85 42 C-83.94 41.587 -83.94 41.587 -82.858 41.165 C-69.476 35.941 -56.114 30.677 -42.812 25.25 C-41.696 24.795 -40.58 24.34 -39.43 23.871 C-34.491 21.851 -29.557 19.82 -24.637 17.754 C-23.445 17.256 -23.445 17.256 -22.229 16.747 C-20.795 16.146 -19.363 15.54 -17.933 14.929 C-15.102 13.742 -13.106 13 -10 13 C-9.34 11.68 -8.68 10.36 -8 9 C-7.34 9 -6.68 9 -6 9 C-4.41 6.982 -4.41 6.982 -2.875 4.5 C-2.336 3.665 -1.797 2.829 -1.242 1.969 C-0.832 1.319 -0.422 0.669 0 0 Z " fill="#000000" transform="translate(109,237)"/>
<path d="M0 0 C0.66 0.33 1.32 0.66 2 1 C1.054 7.298 -0.022 11.961 -4 17 C-0.806 17 0.318 16.477 3.062 15 C6.792 13 6.792 13 9 13 C9 12.34 9 11.68 9 11 C10.531 9.711 10.531 9.711 12.5 8.375 C13.15 7.929 13.799 7.483 14.469 7.023 C14.974 6.686 15.479 6.348 16 6 C14.892 10.709 12.323 12.842 8.535 15.523 C3.646 18.371 -1.683 20.118 -7 22 C-13.707 24.491 -20.047 27.437 -26.355 30.802 C-27.875 31.593 -29.435 32.304 -31 33 C-31.66 32.67 -32.32 32.34 -33 32 C-28.25 27.769 -23.008 25.574 -17.238 23.088 C-10.293 19.972 -5.745 15.716 -2 9 C-1.138 6.028 -0.515 3.05 0 0 Z " fill="#000000" transform="translate(218,121)"/>
<path d="M0 0 C0.375 2.75 0.375 2.75 0 6 C-4.842 10 -4.842 10 -8 10 C-7.876 10.907 -7.752 11.815 -7.625 12.75 C-7.749 13.822 -7.873 14.895 -8 16 C-11 18.375 -11 18.375 -14 20 C-13.844 19.024 -13.688 18.048 -13.527 17.043 C-13.333 15.771 -13.138 14.498 -12.938 13.188 C-12.74 11.923 -12.543 10.658 -12.34 9.355 C-11.769 6.009 -11.769 6.009 -13 3 C-12 1 -12 1 -10.438 0.375 C-6.936 -0.164 -3.542 -0.059 0 0 Z " fill="#333333" transform="translate(203,37)"/>
<path d="M0 0 C2.007 0.287 4.009 0.619 6 1 C6.33 2.32 6.66 3.64 7 5 C7.619 4.175 8.238 3.35 8.875 2.5 C9.576 1.675 10.277 0.85 11 0 C11.66 0 12.32 0 13 0 C14.125 7.625 14.125 7.625 13 11 C12.34 11 11.68 11 11 11 C11 10.01 11 9.02 11 8 C9.35 8 7.7 8 6 8 C5.67 8.99 5.34 9.98 5 11 C3.334 11.043 1.666 11.041 0 11 C-1 10 -1 10 -1.133 7.969 C-1.13 7.154 -1.128 6.339 -1.125 5.5 C-1.128 4.685 -1.13 3.871 -1.133 3.031 C-1 1 -1 1 0 0 Z " fill="#1E1E1E" transform="translate(320,273)"/>
<path d="M0 0 C0 3 0 3 -1.75 5.043 C-2.493 5.751 -3.235 6.458 -4 7.188 C-4.743 7.903 -5.485 8.618 -6.25 9.355 C-6.827 9.898 -7.405 10.441 -8 11 C-6.121 10.459 -6.121 10.459 -4.203 9.906 C-2.552 9.437 -0.901 8.968 0.75 8.5 C1.575 8.262 2.4 8.023 3.25 7.777 C4.449 7.439 4.449 7.439 5.672 7.094 C6.405 6.884 7.138 6.675 7.894 6.459 C10 6 10 6 14 6 C14 6.66 14 7.32 14 8 C12.805 8.315 11.61 8.629 10.379 8.953 C-4.666 11.965 -4.666 11.965 -16 21 C-16.66 21 -17.32 21 -18 21 C-14.129 12.496 -7.187 5.772 0 0 Z " fill="#000000" transform="translate(180,165)"/>
<path d="M0 0 C0 0.66 0 1.32 0 2 C0.66 2 1.32 2 2 2 C2.312 4.25 2.312 4.25 2 7 C-0.438 9.188 -0.438 9.188 -3 11 C-3.33 11.66 -3.66 12.32 -4 13 C-6.867 12.427 -7.861 12.139 -10 10 C-10.438 7.625 -10.438 7.625 -10 5 C-7.001 2.082 -4.335 0 0 0 Z " fill="#363636" transform="translate(228,90)"/>
<path d="M0 0 C0.33 0.66 0.66 1.32 1 2 C0.012 4.338 0.012 4.338 -1.527 7.227 C-2.344 8.773 -2.344 8.773 -3.178 10.352 C-3.758 11.432 -4.339 12.512 -4.938 13.625 C-5.514 14.713 -6.091 15.801 -6.686 16.922 C-8.117 19.618 -9.555 22.311 -11 25 C-11.99 24.67 -12.98 24.34 -14 24 C-14 23.34 -14 22.68 -14 22 C-14.66 21.67 -15.32 21.34 -16 21 C-15.01 20.34 -14.02 19.68 -13 19 C-12.069 17.106 -11.142 15.21 -10.242 13.301 C-7.592 8.391 -3.939 3.939 0 0 Z " fill="#FFFFFF" transform="translate(148,208)"/>
<path d="M0 0 C0.66 1.65 1.32 3.3 2 5 C1.361 5.784 0.721 6.567 0.062 7.375 C-1.981 9.795 -1.981 9.795 -3 12 C-5.843 12.231 -7.461 12.359 -9.875 10.75 C-11 9 -11 9 -10.688 6.812 C-10.347 5.915 -10.347 5.915 -10 5 C-9.34 5 -8.68 5 -8 5 C-8 4.34 -8 3.68 -8 3 C-5.045 0.256 -4.225 0 0 0 Z " fill="#595959" transform="translate(203,92)"/>
<path d="M0 0 C0.66 0 1.32 0 2 0 C2.33 4.62 2.66 9.24 3 14 C-0.873 14.968 -4.036 15.076 -8 15 C-8.33 13.68 -8.66 12.36 -9 11 C-8.434 10.625 -7.868 10.25 -7.285 9.863 C-2.642 6.806 -2.642 6.806 0 2.125 C0 1.424 0 0.722 0 0 Z " fill="#5C5C5C" transform="translate(241,61)"/>
<path d="M0 0 C0.99 0.33 1.98 0.66 3 1 C2.34 1.66 1.68 2.32 1 3 C1.33 3 1.66 3 2 3 C2 6.3 2 9.6 2 13 C1.01 13.33 0.02 13.66 -1 14 C-1.33 12.02 -1.66 10.04 -2 8 C-3.481 8.992 -3.481 8.992 -4.992 10.004 C-6.286 10.857 -7.58 11.71 -8.875 12.562 C-9.526 13 -10.177 13.438 -10.848 13.889 C-12.526 14.988 -14.26 16.001 -16 17 C-16.66 16.67 -17.32 16.34 -18 16 C-14.158 11.774 -9.886 8.771 -5.109 5.648 C-2.726 4.099 -2.726 4.099 -2 1 C-1.34 0.67 -0.68 0.34 0 0 Z " fill="#818181" transform="translate(243,47)"/>
<path d="M0 0 C0.33 0.66 0.66 1.32 1 2 C0.018 4.009 -0.984 6.008 -2 8 C-2.699 10.736 -2.699 10.736 -3 13 C-3.639 12.691 -4.279 12.381 -4.938 12.062 C-8.92 10.681 -12.817 10.346 -17 10 C-15.219 6.172 -15.219 6.172 -13.25 4.625 C-10.043 3.734 -8.012 4.768 -5 6 C-5 5.34 -5 4.68 -5 4 C-3.374 2.618 -1.707 1.281 0 0 Z " fill="#070707" transform="translate(137,220)"/>
<path d="M0 0 C0.99 0.33 1.98 0.66 3 1 C3.688 3.062 3.688 3.062 4 5 C4.99 4.67 5.98 4.34 7 4 C7.33 3.01 7.66 2.02 8 1 C10.552 15.672 10.552 15.672 7 21 C6.34 20.67 5.68 20.34 5 20 C5.33 19.67 5.66 19.34 6 19 C6.072 17.481 6.084 15.958 6.062 14.438 C6.053 13.611 6.044 12.785 6.035 11.934 C6.024 11.296 6.012 10.657 6 10 C5.34 9.67 4.68 9.34 4 9 C4.33 8.34 4.66 7.68 5 7 C4.34 7 3.68 7 3 7 C2.67 7.99 2.34 8.98 2 10 C1.67 8.35 1.34 6.7 1 5 C-1.31 6.65 -3.62 8.3 -6 10 C-6.66 9.67 -7.32 9.34 -8 9 C-6.165 6.466 -4.368 4.059 -2 2 C-1.34 2 -0.68 2 0 2 C0 1.34 0 0.68 0 0 Z " fill="#000000" transform="translate(238,41)"/>
<path d="M0 0 C2.562 0.188 2.562 0.188 4.562 2.188 C5 5.125 5 5.125 4.562 8.188 C2.062 10.062 2.062 10.062 -0.438 11.188 C1.213 11.518 2.862 11.847 4.562 12.188 C4.562 12.847 4.562 13.507 4.562 14.188 C1.263 14.188 -2.037 14.188 -5.438 14.188 C-4.75 11.812 -4.75 11.812 -3.438 9.188 C-0.812 7.875 -0.812 7.875 1.562 7.188 C1.233 5.868 0.903 4.548 0.562 3.188 C0.109 3.683 -0.345 4.178 -0.812 4.688 C-2.438 6.188 -2.438 6.188 -4.438 6.188 C-3.374 0.26 -3.374 0.26 0 0 Z " fill="#000000" transform="translate(101.4375,133.8125)"/>
<path d="M0 0 C0.33 0.99 0.66 1.98 1 3 C-0.65 2.67 -2.3 2.34 -4 2 C-1.227 3.938 -1.227 3.938 1 5 C1.043 6.666 1.041 8.334 1 10 C0 11 0 11 -3.062 11.062 C-4.032 11.042 -5.001 11.021 -6 11 C-7.062 9.125 -7.062 9.125 -8 7 C-7.67 6.34 -7.34 5.68 -7 5 C-6.96 3.334 -6.956 1.666 -7 0 C-4.333 -1.333 -2.833 -0.671 0 0 Z " fill="#232323" transform="translate(297,273)"/>
<path d="M0 0 C-5.606 9.389 -5.606 9.389 -9.023 10.887 C-10.938 11.125 -10.938 11.125 -14 11 C-14 6.294 -11.235 3.272 -8 0 C-4.687 -1.083 -3.128 -1.564 0 0 Z " fill="#FFFFFF" transform="translate(121,243)"/>
<path d="M0 0 C2.625 -0.188 2.625 -0.188 5 0 C6.507 3.013 6.178 5.683 6 9 C5.34 9.66 4.68 10.32 4 11 C1.375 10.625 1.375 10.625 -1 10 C-2.25 3.375 -2.25 3.375 0 0 Z " fill="#000000" transform="translate(304,273)"/>
<path d="M0 0 C0.99 0 1.98 0 3 0 C4.223 2.447 4.045 3.792 3.812 6.5 C3.729 7.691 3.729 7.691 3.645 8.906 C3 11 3 11 0.949 12.281 C0.306 12.518 -0.337 12.756 -1 13 C-1 11.35 -1 9.7 -1 8 C-2.65 8 -4.3 8 -6 8 C-5.812 6.125 -5.812 6.125 -5 4 C-2.438 2.75 -2.438 2.75 0 2 C0 1.34 0 0.68 0 0 Z " fill="#212121" transform="translate(242,34)"/>
<path d="M0 0 C2.611 3.83 1.862 6.826 1.125 11.25 C0.819 13.145 0.819 13.145 0.508 15.078 C0.34 16.042 0.173 17.007 0 18 C-0.99 18.33 -1.98 18.66 -3 19 C-3.99 18.34 -4.98 17.68 -6 17 C-4.338 11.143 -2.53 5.541 0 0 Z " fill="#FFFFFF" transform="translate(188,39)"/>
<path d="M0 0 C1.675 0.286 3.344 0.618 5 1 C5.95 4.695 5.95 7.305 5 11 C3.334 11.043 1.666 11.041 0 11 C-1 10 -1 10 -1.133 7.969 C-1.13 7.154 -1.128 6.339 -1.125 5.5 C-1.128 4.685 -1.13 3.871 -1.133 3.031 C-1 1 -1 1 0 0 Z " fill="#2C2C2C" transform="translate(312,273)"/>
<path d="M0 0 C2.218 4.436 2.071 5.507 1.188 10.188 C0.995 11.254 0.803 12.32 0.605 13.418 C0 16 0 16 -1 17 C-2.98 17 -4.96 17 -7 17 C-4.69 11.39 -2.38 5.78 0 0 Z " fill="#FFFFFF" transform="translate(216,35)"/>
<path d="M0 0 C-1.068 1.821 -2.155 3.632 -3.25 5.438 C-4.155 6.952 -4.155 6.952 -5.078 8.496 C-7 11 -7 11 -9.234 11.848 C-9.817 11.898 -10.4 11.948 -11 12 C-11 7.23 -9.779 4.774 -7 1 C-4.032 -1.159 -3.57 -1.19 0 0 Z " fill="#FFFFFF" transform="translate(134,239)"/>
<path d="M0 0 C0.99 0.33 1.98 0.66 3 1 C3.908 3.477 4 5.336 4 8 C2.423 8.701 0.838 9.386 -0.75 10.062 C-1.632 10.445 -2.513 10.828 -3.422 11.223 C-6.153 12.046 -7.369 11.977 -10 11 C-9.216 10.917 -8.433 10.835 -7.625 10.75 C-4.86 10.285 -4.86 10.285 -3.812 8 C-3.544 7.34 -3.276 6.68 -3 6 C-2.34 5.67 -1.68 5.34 -1 5 C-1.33 4.01 -1.66 3.02 -2 2 C-1.34 1.34 -0.68 0.68 0 0 Z " fill="#5C5C5C" transform="translate(208,144)"/>
<path d="M0 0 C0.66 0.99 1.32 1.98 2 3 C-1.26 4.938 -3.729 5.271 -7.5 5.25 C-8.438 5.255 -9.377 5.26 -10.344 5.266 C-13.04 4.996 -14.689 4.373 -17 3 C-17 2.34 -17 1.68 -17 1 C-15.411 1.017 -15.411 1.017 -13.789 1.035 C-12.401 1.045 -11.013 1.054 -9.625 1.062 C-8.577 1.075 -8.577 1.075 -7.508 1.088 C-3.627 1.184 -3.627 1.184 0 0 Z " fill="#FFFFFF" transform="translate(156,100)"/>
<path d="M0 0 C1.938 1.5 1.938 1.5 3 3 C-1.776 5.619 -5.844 4.831 -11 4 C-11 3.01 -11 2.02 -11 1 C-7.305 -0.182 -3.856 -0.28 0 0 Z " fill="#FFFFFF" transform="translate(153,147)"/>
<path d="M0 0 C0.571 0.163 1.141 0.326 1.729 0.494 C4.017 1.004 5.99 1.114 8.328 1.098 C9.127 1.094 9.927 1.091 10.75 1.088 C11.988 1.075 11.988 1.075 13.25 1.062 C14.09 1.058 14.931 1.053 15.797 1.049 C17.865 1.037 19.932 1.019 22 1 C22 1.66 22 2.32 22 3 C14.621 5.409 8.447 5.83 1 3 C0.67 2.01 0.34 1.02 0 0 Z " fill="#FFFFFF" transform="translate(137,132)"/>
<path d="M0 0 C0.66 0.33 1.32 0.66 2 1 C1.01 2.485 1.01 2.485 0 4 C-0.301 6.754 -0.509 9.426 -0.625 12.188 C-0.664 12.937 -0.702 13.687 -0.742 14.459 C-0.836 16.306 -0.919 18.153 -1 20 C-1.66 19.01 -2.32 18.02 -3 17 C-4.65 17.33 -6.3 17.66 -8 18 C-7.67 15.69 -7.34 13.38 -7 11 C-5.02 11.495 -5.02 11.495 -3 12 C-2.951 11.385 -2.902 10.77 -2.852 10.137 C-2.777 9.328 -2.702 8.52 -2.625 7.688 C-2.555 6.887 -2.486 6.086 -2.414 5.262 C-2 3 -2 3 0 0 Z " fill="#000000" transform="translate(210,26)"/>
<path d="M0 0 C0.33 0.99 0.66 1.98 1 3 C0.131 2.916 -0.738 2.832 -1.633 2.746 C-2.785 2.644 -3.938 2.542 -5.125 2.438 C-6.262 2.333 -7.399 2.229 -8.57 2.121 C-11.889 2.004 -14.756 2.334 -18 3 C-17.67 2.01 -17.34 1.02 -17 0 C-10.963 -2.697 -6.255 -1.636 0 0 Z " fill="#FFFFFF" transform="translate(157,128)"/>
<path d="M0 0 C0.773 0.084 1.547 0.168 2.344 0.254 C8.464 0.852 13.937 1.049 20 0 C20 0.66 20 1.32 20 2 C13.829 4.331 8.478 4.064 2 3 C1.34 2.67 0.68 2.34 0 2 C0 1.34 0 0.68 0 0 Z " fill="#FFFFFF" transform="translate(139,140)"/>
<path d="M0 0 C0.33 0.66 0.66 1.32 1 2 C-6.716 5.649 -13.434 7.815 -22 8 C-19.445 4.78 -17.241 4.486 -13.25 4 C-8.32 3.294 -4.441 2.22 0 0 Z " fill="#FFFFFF" transform="translate(133,234)"/>
<path d="M0 0 C0.66 0 1.32 0 2 0 C2.33 3.3 2.66 6.6 3 10 C0.525 11.485 0.525 11.485 -2 13 C-1.34 8.71 -0.68 4.42 0 0 Z " fill="#FFFFFF" transform="translate(191,44)"/>
<path d="M0 0 C0.33 0.66 0.66 1.32 1 2 C-3.081 7.002 -6.693 8.079 -13 9 C-10.575 6.318 -7.925 4.631 -4.812 2.812 C-3.911 2.283 -3.01 1.753 -2.082 1.207 C-1.395 0.809 -0.708 0.41 0 0 Z " fill="#494949" transform="translate(225,61)"/>
<path d="M0 0 C0 4.62 0 9.24 0 14 C-0.66 14 -1.32 14 -2 14 C-2 10.7 -2 7.4 -2 4 C-2.99 4 -3.98 4 -5 4 C-5 3.34 -5 2.68 -5 2 C-2 0 -2 0 0 0 Z " fill="#000000" transform="translate(233,199)"/>
<path d="M0 0 C0.99 0.33 1.98 0.66 3 1 C2.938 2.75 2.938 2.75 2 5 C-1.216 7.447 -3.924 9 -8 9 C-6.165 6.466 -4.368 4.059 -2 2 C-1.34 2 -0.68 2 0 2 C0 1.34 0 0.68 0 0 Z " fill="#151515" transform="translate(238,41)"/>
<path d="M0 0 C-1 3 -1 3 -3.125 4.25 C-6.746 5.195 -9.375 4.837 -13 4 C-13.33 3.34 -13.66 2.68 -14 2 C-12.952 1.909 -12.952 1.909 -11.883 1.816 C-10.973 1.733 -10.063 1.649 -9.125 1.562 C-8.22 1.481 -7.315 1.4 -6.383 1.316 C-3.991 0.999 -2.39 0 0 0 Z " fill="#FFFFFF" transform="translate(246,84)"/>
<path d="M0 0 C1.207 0.031 1.207 0.031 2.438 0.062 C2.768 1.053 3.097 2.042 3.438 3.062 C1.688 4.625 1.688 4.625 -0.562 6.062 C-2.812 5.75 -2.812 5.75 -4.562 5.062 C-3.438 0.084 -3.438 0.084 0 0 Z " fill="#FFFFFF" transform="translate(175.5625,52.9375)"/>
<path d="M0 0 C0 3.94 -1.478 5.829 -3.5 9.188 C-4.15 10.274 -4.799 11.361 -5.469 12.48 C-6.227 13.728 -6.227 13.728 -7 15 C-7.66 14.01 -8.32 13.02 -9 12 C-7.877 10.373 -6.752 8.749 -5.625 7.125 C-4.685 5.768 -4.685 5.768 -3.727 4.383 C-2 2 -2 2 0 0 Z " fill="#FFFFFF" transform="translate(125,203)"/>
<path d="M0 0 C0.66 0.33 1.32 0.66 2 1 C1.67 2.65 1.34 4.3 1 6 C-1.31 6.66 -3.62 7.32 -6 8 C-4.951 5.378 -4.351 4.206 -1.875 2.75 C-1.256 2.502 -0.638 2.255 0 2 C0 1.34 0 0.68 0 0 Z " fill="#313131" transform="translate(123,241)"/>
<path d="M0 0 C0.66 0 1.32 0 2 0 C2.688 3.312 2.688 3.312 3 7 C1.688 8.938 1.688 8.938 0 10 C-0.66 10 -1.32 10 -2 10 C-1.86 8.52 -1.712 7.041 -1.562 5.562 C-1.481 4.739 -1.4 3.915 -1.316 3.066 C-1 1 -1 1 0 0 Z " fill="#FFFFFF" transform="translate(219,40)"/>
<path d="M0 0 C0.33 0.66 0.66 1.32 1 2 C-0.363 4.602 -0.363 4.602 -2.312 7.625 C-2.948 8.628 -3.584 9.631 -4.238 10.664 C-4.82 11.435 -5.401 12.206 -6 13 C-6.66 13 -7.32 13 -8 13 C-6.41 7.911 -3.255 4.125 0 0 Z " fill="#000000" transform="translate(127,203)"/>
<path d="M0 0 C0 0.66 0 1.32 0 2 C-3.63 2.66 -7.26 3.32 -11 4 C-11 3.01 -11 2.02 -11 1 C-7.23 -1.564 -4.326 -0.832 0 0 Z " fill="#FFFFFF" transform="translate(244,80)"/>
<path d="M0 0 C0 3.3 0 6.6 0 10 C-0.99 10.33 -1.98 10.66 -3 11 C-3 7.7 -3 4.4 -3 1 C-1 0 -1 0 0 0 Z " fill="#FFFFFF" transform="translate(245,50)"/>
<path d="M0 0 C-0.33 0.99 -0.66 1.98 -1 3 C-6.75 4.125 -6.75 4.125 -9 3 C-9 2.34 -9 1.68 -9 1 C-6.043 -0.478 -3.258 -0.06 0 0 Z " fill="#FFFFFF" transform="translate(245,94)"/>
<path d="M0 0 C-1.161 3.482 -1.909 3.888 -4.938 5.75 C-5.648 6.199 -6.358 6.647 -7.09 7.109 C-7.72 7.403 -8.351 7.697 -9 8 C-9.66 7.67 -10.32 7.34 -11 7 C-10.688 5.062 -10.688 5.062 -10 3 C-9.01 2.67 -8.02 2.34 -7 2 C-7 2.66 -7 3.32 -7 4 C-6.402 3.34 -5.804 2.68 -5.188 2 C-3 0 -3 0 0 0 Z " fill="#000000" transform="translate(223,54)"/>
<path d="M0 0 C0 0.66 0 1.32 0 2 C-5.75 5 -5.75 5 -8 5 C-8.33 5.99 -8.66 6.98 -9 8 C-9.33 7.01 -9.66 6.02 -10 5 C-3.871 0 -3.871 0 0 0 Z " fill="#090909" transform="translate(189,143)"/>
<path d="M0 0 C0.33 1.98 0.66 3.96 1 6 C-0.98 6.99 -0.98 6.99 -3 8 C-3 6.35 -3 4.7 -3 3 C-3.66 2.67 -4.32 2.34 -5 2 C-2 0 -2 0 0 0 Z " fill="#FFFFFF" transform="translate(244,39)"/>
<path d="M0 0 C0.99 0.33 1.98 0.66 3 1 C2.67 3.64 2.34 6.28 2 9 C1.01 8.67 0.02 8.34 -1 8 C-1.042 5.667 -1.041 3.333 -1 1 C-0.67 0.67 -0.34 0.34 0 0 Z " fill="#999999" transform="translate(207,61)"/>
<path d="M0 0 C1.5 1.375 1.5 1.375 3 3 C3 3.66 3 4.32 3 5 C0.69 5 -1.62 5 -4 5 C-2.25 1.125 -2.25 1.125 0 0 Z " fill="#797979" transform="translate(181,54)"/>
<path d="M0 0 C0.99 0.66 1.98 1.32 3 2 C2.01 3.485 2.01 3.485 1 5 C0.34 5 -0.32 5 -1 5 C-0.67 7.31 -0.34 9.62 0 12 C-0.66 11.67 -1.32 11.34 -2 11 C-2.054 9.542 -2.093 8.084 -2.125 6.625 C-2.16 5.407 -2.16 5.407 -2.195 4.164 C-2 2 -2 2 0 0 Z " fill="#2E2E2E" transform="translate(211,58)"/>
<path d="M0 0 C0.66 0 1.32 0 2 0 C2.33 1.98 2.66 3.96 3 6 C2.01 6.33 1.02 6.66 0 7 C-0.381 5.009 -0.713 3.007 -1 1 C-0.67 0.67 -0.34 0.34 0 0 Z " fill="#FFFFFF" transform="translate(232,29)"/>
<path d="M0 0 C1.98 0.495 1.98 0.495 4 1 C4 2.32 4 3.64 4 5 C2.35 4.67 0.7 4.34 -1 4 C-0.67 2.68 -0.34 1.36 0 0 Z " fill="#FFFFFF" transform="translate(191,38)"/>
<path d="M0 0 C0.66 0.33 1.32 0.66 2 1 C2 2.65 2 4.3 2 6 C1.01 6.33 0.02 6.66 -1 7 C-1.043 5 -1.041 3 -1 1 C-0.67 0.67 -0.34 0.34 0 0 Z " fill="#FFFFFF" transform="translate(306,275)"/>
<path d="M0 0 C2.97 0.33 5.94 0.66 9 1 C8.67 1.66 8.34 2.32 8 3 C5.03 3 2.06 3 -1 3 C-0.67 2.01 -0.34 1.02 0 0 Z " fill="#FFFFFF" transform="translate(125,224)"/>
<path d="M0 0 C2.475 0.495 2.475 0.495 5 1 C4.67 2.32 4.34 3.64 4 5 C2.68 4.34 1.36 3.68 0 3 C0 2.01 0 1.02 0 0 Z " fill="#0F0F0F" transform="translate(135,247)"/>
<path d="M0 0 C2.31 0.33 4.62 0.66 7 1 C7 1.66 7 2.32 7 3 C4.36 3 1.72 3 -1 3 C-0.67 2.01 -0.34 1.02 0 0 Z " fill="#FFFFFF" transform="translate(122,229)"/>
<path d="M0 0 C0.66 0.33 1.32 0.66 2 1 C1.312 2.938 1.312 2.938 0 5 C-2.625 5.75 -2.625 5.75 -5 6 C-3.35 4.02 -1.7 2.04 0 0 Z " fill="#FFFFFF" transform="translate(226,95)"/>
<path d="M0 0 C0.66 0 1.32 0 2 0 C2.33 1.98 2.66 3.96 3 6 C0.525 5.01 0.525 5.01 -2 4 C-1.34 2.68 -0.68 1.36 0 0 Z " fill="#000000" transform="translate(177,49)"/>
</svg>
