<?xml version="1.0" encoding="UTF-8"?>
<!-- Generator: visioncortex VTracer 0.6.4 -->
<svg version="1.1" xmlns="http://www.w3.org/2000/svg" width="325" height="311">
<path d="M0 0 C107.25 0 214.5 0 325 0 C325 102.63 325 205.26 325 311 C217.75 311 110.5 311 0 311 C0 208.37 0 105.74 0 0 Z " fill="#F2F2F2" transform="translate(0,0)"/>
<path d="M0 0 C2.113 1.168 4.242 2.271 6.41 3.332 C6.41 3.992 6.41 4.652 6.41 5.332 C7.132 5.58 7.854 5.827 8.598 6.082 C11.686 7.455 13.92 9.056 16.41 11.332 C16.41 11.992 16.41 12.652 16.41 13.332 C17.008 13.621 17.606 13.91 18.223 14.207 C20.41 15.332 20.41 15.332 23.41 17.332 C23.41 17.992 23.41 18.652 23.41 19.332 C24.07 19.332 24.73 19.332 25.41 19.332 C27.41 22.332 27.41 22.332 27.41 25.332 C28.015 25.429 28.619 25.525 29.242 25.625 C31.875 26.484 32.56 27.38 34.098 29.645 C34.514 30.239 34.93 30.833 35.359 31.445 C36.41 33.332 36.41 33.332 36.938 35.445 C37.288 37.532 37.288 37.532 39.285 39.207 C41.794 41.716 43.084 44.052 44.41 47.332 C44.08 48.322 43.75 49.312 43.41 50.332 C40.41 44.582 40.41 44.582 40.41 42.332 C39.711 42.127 39.013 41.922 38.293 41.711 C37.383 41.442 36.473 41.172 35.535 40.895 C34.63 40.628 33.725 40.361 32.793 40.086 C30.41 39.332 30.41 39.332 28.41 38.332 C16.068 37.498 5.449 37.826 -4.465 46.082 C-11.978 53.353 -14.401 59.414 -14.684 69.773 C-15.098 79.714 -15.098 79.714 -17.777 83.082 C-18.705 83.825 -19.634 84.567 -20.59 85.332 C-22.252 87.944 -23.759 90.612 -25.258 93.32 C-25.697 93.984 -26.137 94.648 -26.59 95.332 C-27.25 95.332 -27.91 95.332 -28.59 95.332 C-28.714 95.951 -28.837 96.57 -28.965 97.207 C-29.59 99.332 -29.59 99.332 -31.59 101.332 C-31.239 100.074 -30.889 98.816 -30.527 97.52 C-29.084 90.992 -29.077 84.297 -32.152 78.27 C-32.627 77.63 -33.101 76.991 -33.59 76.332 C-33.59 75.672 -33.59 75.012 -33.59 74.332 C-34.25 74.332 -34.91 74.332 -35.59 74.332 C-35.59 73.672 -35.59 73.012 -35.59 72.332 C-36.58 72.332 -37.57 72.332 -38.59 72.332 C-38.92 71.672 -39.25 71.012 -39.59 70.332 C-46.18 66.616 -53.085 65.212 -60.59 66.332 C-62.813 68.257 -62.813 68.257 -63.59 71.332 C-63.59 70.672 -63.59 70.012 -63.59 69.332 C-64.91 69.332 -66.23 69.332 -67.59 69.332 C-68.25 69.332 -68.91 69.332 -69.59 69.332 C-70.085 70.817 -70.085 70.817 -70.59 72.332 C-71.25 72.332 -71.91 72.332 -72.59 72.332 C-72.899 73.281 -73.209 74.23 -73.527 75.207 C-74.59 78.332 -74.59 78.332 -75.59 80.332 C-76.09 86.045 -75.429 90.928 -73.59 96.332 C-74.58 96.827 -74.58 96.827 -75.59 97.332 C-75.92 98.157 -76.25 98.982 -76.59 99.832 C-77.59 102.332 -77.59 102.332 -79.59 103.332 C-79.362 102.561 -79.134 101.79 -78.898 100.996 C-78.611 99.993 -78.324 98.99 -78.027 97.957 C-77.737 96.959 -77.447 95.962 -77.148 94.934 C-76.313 92.364 -76.313 92.364 -77.59 90.332 C-78.544 81.431 -76.671 73.362 -74.465 64.824 C-73.509 61.609 -73.509 61.609 -73.59 59.332 C-74.25 58.528 -74.91 57.723 -75.59 56.895 C-77.59 54.332 -77.59 54.332 -77.59 51.332 C-78.58 51.332 -79.57 51.332 -80.59 51.332 C-81.25 50.342 -81.91 49.352 -82.59 48.332 C-83.58 48.827 -83.58 48.827 -84.59 49.332 C-84.796 48.507 -85.002 47.682 -85.215 46.832 C-87.415 41.231 -90.982 36.94 -95.215 32.707 C-97.789 30.133 -99.592 27.363 -101.59 24.332 C-102.25 24.002 -102.91 23.672 -103.59 23.332 C-103.59 22.342 -103.59 21.352 -103.59 20.332 C-104.25 20.332 -104.91 20.332 -105.59 20.332 C-107.171 18.572 -108.682 16.748 -110.152 14.895 C-110.958 13.885 -111.764 12.876 -112.594 11.836 C-113.252 11.01 -113.911 10.183 -114.59 9.332 C-114.92 9.002 -115.25 8.672 -115.59 8.332 C-118.065 12.787 -118.065 12.787 -120.59 17.332 C-121.25 16.672 -121.91 16.012 -122.59 15.332 C-124.24 17.972 -125.89 20.612 -127.59 23.332 C-128.085 21.847 -128.085 21.847 -128.59 20.332 C-127.664 18.508 -127.664 18.508 -126.277 16.645 C-125.827 16.022 -125.378 15.399 -124.914 14.758 C-124.259 14.052 -124.259 14.052 -123.59 13.332 C-122.93 13.332 -122.27 13.332 -121.59 13.332 C-121.59 12.342 -121.59 11.352 -121.59 10.332 C-120.93 10.332 -120.27 10.332 -119.59 10.332 C-119.59 9.672 -119.59 9.012 -119.59 8.332 C-118.93 8.332 -118.27 8.332 -117.59 8.332 C-117.26 7.342 -116.93 6.352 -116.59 5.332 C-115.93 5.332 -115.27 5.332 -114.59 5.332 C-114.59 4.672 -114.59 4.012 -114.59 3.332 C-113.93 3.332 -113.27 3.332 -112.59 3.332 C-112.59 2.672 -112.59 2.012 -112.59 1.332 C-110.289 -0.324 -110.289 -0.324 -107.277 -2.168 C-106.291 -2.776 -105.305 -3.385 -104.289 -4.012 C-103.398 -4.558 -102.508 -5.105 -101.59 -5.668 C-100.6 -6.328 -99.61 -6.988 -98.59 -7.668 C-95.902 -7.793 -95.902 -7.793 -93.59 -7.668 C-93.59 -8.328 -93.59 -8.988 -93.59 -9.668 C-90.881 -11.022 -88.581 -10.733 -85.59 -10.668 C-85.59 -11.328 -85.59 -11.988 -85.59 -12.668 C-55.641 -19.971 -26.717 -14.912 0 0 Z " fill="#E4E4E4" transform="translate(162.58984375,48.66796875)"/>
<path d="M0 0 C0 0.66 0 1.32 0 2 C0.557 2.082 1.114 2.165 1.688 2.25 C4.697 3.226 6.622 4.952 9 7 C9.33 5.68 9.66 4.36 10 3 C17.962 25.066 18.396 42.706 12 65 C11.376 65.133 10.752 65.266 10.109 65.402 C7.65 66.099 6.655 67.097 5 69 C5.919 66.454 6.747 64.319 8.438 62.188 C10.257 59.64 11.167 57.205 12.188 54.25 C12.704 52.773 12.704 52.773 13.23 51.266 C13.484 50.518 13.738 49.77 14 49 C13.34 48.67 12.68 48.34 12 48 C12.495 47.01 12.495 47.01 13 46 C13.66 46 14.32 46 15 46 C15.33 41.05 15.66 36.1 16 31 C15.34 31 14.68 31 14 31 C14.082 31.66 14.165 32.32 14.25 33 C13.81 38.278 11.782 42.208 8.047 45.965 C2.447 50.596 -3.59 54 -11 54 C-11.66 55.98 -12.32 57.96 -13 60 C-8.545 59.505 -8.545 59.505 -4 59 C-6 61 -6 61 -7.945 61.195 C-9.964 61.13 -11.982 61.065 -14 61 C-14.206 61.907 -14.412 62.815 -14.625 63.75 C-15.951 68.44 -18.252 72.598 -20.469 76.918 C-24.351 84.144 -24.351 84.144 -26 92 C-23.03 91.01 -20.06 90.02 -17 89 C-19.969 91.969 -20.654 92.295 -24.375 93.375 C-27.736 94.777 -28.815 95.663 -30.594 98.902 C-31.848 102.24 -32.946 105.594 -34 109 C-34.58 110.447 -35.179 111.888 -35.812 113.312 C-36.204 114.199 -36.596 115.086 -37 116 C-37.66 116 -38.32 116 -39 116 C-39.124 116.598 -39.248 117.196 -39.375 117.812 C-40 120 -40 120 -42 123 C-42.66 123 -43.32 123 -44 123 C-44 123.99 -44 124.98 -44 126 C-44.66 126 -45.32 126 -46 126 C-46.248 126.598 -46.495 127.196 -46.75 127.812 C-48.254 130.445 -49.325 131.554 -52 133 C-58.016 133.795 -61.171 132.314 -66 129 C-70.635 122.047 -68.101 110.986 -66.633 103.109 C-66 101 -66 101 -64 99 C-62.938 96.426 -61.947 93.865 -61 91.25 C-60.609 90.194 -60.609 90.194 -60.211 89.117 C-59.701 87.731 -59.197 86.342 -58.699 84.951 C-58.066 83.185 -57.41 81.428 -56.75 79.672 C-55.711 76.931 -55.711 76.931 -57 74 C-56.01 74 -55.02 74 -54 74 C-52.325 69.899 -50.661 65.794 -49 61.688 C-48.523 60.52 -48.046 59.353 -47.555 58.15 C-46.878 56.473 -46.878 56.473 -46.188 54.762 C-45.559 53.214 -45.559 53.214 -44.918 51.635 C-43.836 48.993 -43.836 48.993 -44 46 C-43.505 46.495 -43.505 46.495 -43 47 C-41.712 44.879 -40.945 43.572 -41.188 41.062 C-41.978 38.886 -41.978 38.886 -43.438 36.625 C-46.791 30.991 -47.99 25.467 -47 19 C-45.22 13.68 -43.116 8.673 -40 4 C-39.34 4 -38.68 4 -38 4 C-38 3.34 -38 2.68 -38 2 C-25.774 -5.335 -12.984 -6.492 0 0 Z " fill="#FDFDFD" transform="translate(199,97)"/>
<path d="M0 0 C0.66 0.33 1.32 0.66 2 1 C1.67 1.66 1.34 2.32 1 3 C0.34 3 -0.32 3 -1 3 C-1.217 3.928 -1.217 3.928 -1.438 4.875 C-2 7 -2 7 -3 9 C-1.805 8.385 -1.805 8.385 -0.586 7.758 C0.474 7.219 1.533 6.68 2.625 6.125 C3.669 5.591 4.713 5.058 5.789 4.508 C8.829 3.081 11.791 1.976 15 1 C15.647 0.799 16.294 0.598 16.961 0.391 C32.135 -2.516 44.039 3.183 57 10 C57 10.66 57 11.32 57 12 C57.66 12 58.32 12 59 12 C59 12.66 59 13.32 59 14 C59.639 14.268 60.279 14.536 60.938 14.812 C63 16 63 16 64 19 C64.99 19 65.98 19 67 19 C67.531 17.232 68.05 15.461 68.562 13.688 C68.998 12.208 68.998 12.208 69.441 10.699 C70.252 7.92 70.252 7.92 69 5 C69.99 5.33 70.98 5.66 72 6 C73.97 5.218 73.97 5.218 76.125 4.062 C83.462 0.886 91.175 1.673 99 2 C99 2.66 99 3.32 99 4 C100.072 3.897 101.145 3.794 102.25 3.688 C106 4 106 4 108.375 6.25 C110 9 110 9 110.5 11.062 C110.875 13.192 110.875 13.192 112.875 14.875 C115.384 17.384 116.674 19.72 118 23 C117.67 23.99 117.34 24.98 117 26 C114 20.25 114 20.25 114 18 C112.952 17.693 112.952 17.693 111.883 17.379 C110.973 17.109 110.063 16.84 109.125 16.562 C108.22 16.296 107.315 16.029 106.383 15.754 C104 15 104 15 102 14 C89.657 13.166 79.038 13.494 69.125 21.75 C61.611 29.021 59.188 35.082 58.906 45.441 C58.492 55.382 58.492 55.382 55.812 58.75 C54.884 59.493 53.956 60.235 53 61 C51.338 63.612 49.83 66.28 48.332 68.988 C47.892 69.652 47.453 70.316 47 71 C46.34 71 45.68 71 45 71 C44.876 71.619 44.752 72.238 44.625 72.875 C44 75 44 75 42 77 C42.351 75.742 42.701 74.484 43.062 73.188 C44.506 66.66 44.513 59.965 41.438 53.938 C40.963 53.298 40.489 52.659 40 52 C40 51.34 40 50.68 40 50 C39.34 50 38.68 50 38 50 C38 49.34 38 48.68 38 48 C37.01 48 36.02 48 35 48 C34.67 47.34 34.34 46.68 34 46 C27.409 42.284 20.505 40.879 13 42 C10.776 43.925 10.776 43.925 10 47 C10 46.34 10 45.68 10 45 C8.68 45 7.36 45 6 45 C5.34 45 4.68 45 4 45 C3.67 45.99 3.34 46.98 3 48 C2.34 48 1.68 48 1 48 C0.691 48.949 0.381 49.898 0.062 50.875 C-1 54 -1 54 -2 56 C-2.5 61.713 -1.84 66.596 0 72 C-0.99 72.495 -0.99 72.495 -2 73 C-2.33 73.825 -2.66 74.65 -3 75.5 C-4 78 -4 78 -6 79 C-5.772 78.229 -5.544 77.458 -5.309 76.664 C-5.021 75.661 -4.734 74.658 -4.438 73.625 C-4.147 72.627 -3.857 71.63 -3.559 70.602 C-2.723 68.032 -2.723 68.032 -4 66 C-4.954 57.099 -3.081 49.03 -0.875 40.492 C0.081 37.277 0.081 37.277 0 35 C-0.66 34.196 -1.32 33.391 -2 32.562 C-4 30 -4 30 -4 27 C-4.99 27 -5.98 27 -7 27 C-7.66 26.01 -8.32 25.02 -9 24 C-9.66 24.33 -10.32 24.66 -11 25 C-11.33 23.02 -11.66 21.04 -12 19 C-11.34 19 -10.68 19 -10 19 C-7.36 13.39 -4.72 7.78 -2 2 C-1.34 2 -0.68 2 0 2 C0 1.34 0 0.68 0 0 Z " fill="#E3E3E3" transform="translate(89,73)"/>
<path d="M0 0 C0 0.66 0 1.32 0 2 C0.557 2.082 1.114 2.165 1.688 2.25 C4.697 3.226 6.622 4.952 9 7 C9.33 5.68 9.66 4.36 10 3 C17.962 25.066 18.396 42.706 12 65 C11.376 65.133 10.752 65.266 10.109 65.402 C7.65 66.099 6.655 67.097 5 69 C5.919 66.454 6.747 64.319 8.438 62.188 C10.257 59.64 11.167 57.205 12.188 54.25 C12.704 52.773 12.704 52.773 13.23 51.266 C13.484 50.518 13.738 49.77 14 49 C13.34 48.67 12.68 48.34 12 48 C12.495 47.01 12.495 47.01 13 46 C13.66 46 14.32 46 15 46 C15.33 41.05 15.66 36.1 16 31 C15.34 31 14.68 31 14 31 C14.082 31.66 14.165 32.32 14.25 33 C13.81 38.278 11.782 42.208 8.047 45.965 C2.447 50.596 -3.59 54 -11 54 C-11.66 55.98 -12.32 57.96 -13 60 C-8.545 59.505 -8.545 59.505 -4 59 C-6 61 -6 61 -7.945 61.195 C-9.964 61.13 -11.982 61.065 -14 61 C-14.206 61.907 -14.412 62.815 -14.625 63.75 C-15.951 68.44 -18.252 72.598 -20.469 76.918 C-24.351 84.144 -24.351 84.144 -26 92 C-23.03 91.01 -20.06 90.02 -17 89 C-19.969 91.969 -20.654 92.295 -24.375 93.375 C-27.736 94.777 -28.815 95.663 -30.594 98.902 C-31.848 102.24 -32.946 105.594 -34 109 C-34.58 110.447 -35.179 111.888 -35.812 113.312 C-36.204 114.199 -36.596 115.086 -37 116 C-37.66 116 -38.32 116 -39 116 C-39.124 116.598 -39.248 117.196 -39.375 117.812 C-40 120 -40 120 -42 123 C-42.66 123 -43.32 123 -44 123 C-44 123.99 -44 124.98 -44 126 C-44.66 126 -45.32 126 -46 126 C-46.248 126.598 -46.495 127.196 -46.75 127.812 C-48.254 130.445 -49.325 131.554 -52 133 C-58.016 133.795 -61.171 132.314 -66 129 C-70.635 122.047 -68.101 110.986 -66.633 103.109 C-66 101 -66 101 -64 99 C-62.938 96.426 -61.947 93.865 -61 91.25 C-60.609 90.194 -60.609 90.194 -60.211 89.117 C-59.701 87.731 -59.197 86.342 -58.699 84.951 C-58.066 83.185 -57.41 81.428 -56.75 79.672 C-55.711 76.931 -55.711 76.931 -57 74 C-56.01 74 -55.02 74 -54 74 C-52.325 69.899 -50.661 65.794 -49 61.688 C-48.523 60.52 -48.046 59.353 -47.555 58.15 C-46.878 56.473 -46.878 56.473 -46.188 54.762 C-45.559 53.214 -45.559 53.214 -44.918 51.635 C-43.836 48.993 -43.836 48.993 -44 46 C-43.505 46.495 -43.505 46.495 -43 47 C-41.712 44.879 -40.945 43.572 -41.188 41.062 C-41.978 38.886 -41.978 38.886 -43.438 36.625 C-46.791 30.991 -47.99 25.467 -47 19 C-45.22 13.68 -43.116 8.673 -40 4 C-39.34 4 -38.68 4 -38 4 C-38 3.34 -38 2.68 -38 2 C-25.774 -5.335 -12.984 -6.492 0 0 Z M-31.562 2.5 C-33.08 3.196 -33.08 3.196 -34.629 3.906 C-35.411 4.267 -36.194 4.628 -37 5 C-37 5.66 -37 6.32 -37 7 C-37.66 7 -38.32 7 -39 7 C-39.99 8.671 -39.99 8.671 -41 10.375 C-41.371 11.001 -41.743 11.628 -42.125 12.273 C-43.151 13.975 -43.151 13.975 -43 16 C-40.69 16.33 -38.38 16.66 -36 17 C-36.33 17.66 -36.66 18.32 -37 19 C-37.07 20.874 -37.084 22.75 -37.062 24.625 C-37.053 25.628 -37.044 26.631 -37.035 27.664 C-37.024 28.435 -37.012 29.206 -37 30 C-38.98 30 -40.96 30 -43 30 C-41.882 33.868 -40.971 36.289 -38 39 C-37.758 38.299 -37.515 37.597 -37.266 36.875 C-35.194 31.01 -32.905 25.499 -30 20 C-31.41 25.641 -33.549 30.809 -35.879 36.133 C-37.067 38.92 -37.067 38.92 -37.527 41.68 C-38 44 -38 44 -40 47 C-40.559 48.23 -41.086 49.475 -41.586 50.73 C-41.877 51.452 -42.169 52.173 -42.469 52.916 C-43.065 54.411 -43.661 55.906 -44.258 57.4 C-46.029 61.785 -47.946 66.023 -50.13 70.218 C-51.356 72.73 -52.198 75.328 -53 78 C-51.377 79.709 -49.707 81.374 -48 83 C-47.34 83 -46.68 83 -46 83 C-46 83.99 -46 84.98 -46 86 C-47.32 86 -48.64 86 -50 86 C-50.124 85.381 -50.248 84.762 -50.375 84.125 C-50.872 81.809 -50.872 81.809 -53 80 C-55.22 82.22 -55.918 83.911 -57.062 86.812 C-57.404 87.665 -57.746 88.517 -58.098 89.395 C-58.973 91.922 -59.542 94.368 -60 97 C-59.397 96.905 -58.793 96.809 -58.172 96.711 C-57.373 96.6 -56.573 96.489 -55.75 96.375 C-54.961 96.259 -54.172 96.143 -53.359 96.023 C-50.575 95.996 -49.281 96.415 -47 98 C-45.734 99.945 -45.734 99.945 -44.75 102.125 C-44.415 102.849 -44.08 103.574 -43.734 104.32 C-43.492 104.875 -43.25 105.429 -43 106 C-44.721 104.279 -45.77 102.086 -47 100 C-49.762 101.012 -50.796 101.57 -52.082 104.277 C-52.444 105.594 -52.444 105.594 -52.812 106.938 C-53.193 108.25 -53.193 108.25 -53.582 109.59 C-54.219 112.133 -54.219 112.133 -53 115 C-52.34 115 -51.68 115 -51 115 C-51 115.99 -51 116.98 -51 118 C-48.058 120.212 -48.058 120.212 -45 122 C-45 121.34 -45 120.68 -45 120 C-43.515 119.505 -43.515 119.505 -42 119 C-40.284 115.497 -40.284 115.497 -39 112 C-38.67 112 -38.34 112 -38 112 C-38.33 109.36 -38.66 106.72 -39 104 C-38.01 104.99 -37.02 105.98 -36 107 C-35.697 106.334 -35.394 105.667 -35.082 104.98 C-34.663 104.059 -34.244 103.137 -33.812 102.188 C-33.356 101.182 -32.9 100.177 -32.43 99.141 C-31.523 97.149 -30.612 95.159 -29.695 93.172 C-27.32 88.009 -25.107 82.821 -23.031 77.531 C-21.926 74.818 -20.726 72.161 -19.5 69.5 C-14.928 60.585 -14.928 60.585 -13 51 C-13.66 51.66 -14.32 52.32 -15 53 C-16.988 53.398 -18.989 53.738 -21 54 C-21 52.68 -21 51.36 -21 50 C-20.67 50.99 -20.34 51.98 -20 53 C-16.396 52.794 -15.122 52.119 -12.5 49.562 C-8.936 44.901 -5 38.96 -5 33 C-4.34 33 -3.68 33 -3 33 C-2.472 26.639 -2.472 26.639 -5 20.938 C-5.66 20.298 -6.32 19.659 -7 19 C-4.529 21.092 -3.15 22.36 -2.398 25.559 C-2.336 33.219 -4.179 38.54 -7.785 45.285 C-9.372 48.011 -9.372 48.011 -8 51 C-4.7 50.01 -1.4 49.02 2 48 C2 47.34 2 46.68 2 46 C2.577 45.773 3.155 45.546 3.75 45.312 C6.617 43.64 8.137 41.728 10 39 C10 38.01 10 37.02 10 36 C7.36 36 4.72 36 2 36 C2.084 35.336 2.168 34.672 2.254 33.988 C3.054 27.453 3.054 27.453 2 21 C4.97 20.67 7.94 20.34 11 20 C10.546 19.093 10.093 18.185 9.625 17.25 C7.75 13.5 5.875 9.75 4 6 C3.34 6.99 2.68 7.98 2 9 C2 8.34 2 7.68 2 7 C0.886 6.34 -0.227 5.68 -1.375 5 C-2.001 4.629 -2.628 4.257 -3.273 3.875 C-4.975 2.849 -4.975 2.849 -7 3 C-7 5.64 -7 8.28 -7 11 C-7.557 10.783 -8.114 10.567 -8.688 10.344 C-14.052 8.386 -18.299 7.689 -24 8 C-24.495 4.04 -24.495 4.04 -25 0 C-27.216 0 -29.607 1.601 -31.562 2.5 Z " fill="#0C0C0C" transform="translate(199,97)"/>
<path d="M0 0 C3.527 0.967 6.875 2.078 10 4 C10.495 5.485 10.495 5.485 11 7 C11.99 7 12.98 7 14 7 C14 7.66 14 8.32 14 9 C14.66 9 15.32 9 16 9 C20.291 15.229 21.927 21.687 20.605 29.262 C20.062 31.188 20.062 31.188 19 34 C19.66 32.68 20.32 31.36 21 30 C21.66 30 22.32 30 23 30 C23.383 28.942 23.383 28.942 23.773 27.863 C25.116 24.73 26.767 22.043 28.625 19.188 C29.257 18.212 29.888 17.236 30.539 16.23 C31.021 15.494 31.503 14.758 32 14 C32.99 14.33 33.98 14.66 35 15 C37.068 19.218 38.58 23.521 40 28 C35.25 32 35.25 32 33 32 C33 32.66 33 33.32 33 34 C29.139 35.85 26.498 36.959 22.188 37.312 C18.477 37.623 16.555 38.892 13.562 41.062 C6.729 45.442 -1.173 45.276 -9 44 C-12.523 42.84 -15.138 41.336 -18 39 C-18.928 38.278 -19.856 37.556 -20.812 36.812 C-25.267 31.085 -27.77 24.47 -27.383 17.164 C-26.154 10.22 -22.563 6.046 -17 2 C-16.67 2.66 -16.34 3.32 -16 4 C-15.67 3.67 -15.34 3.34 -15 3 C-10.357 -1.091 -5.927 -0.717 0 0 Z " fill="#C7C7C7" transform="translate(113,114)"/>
<path d="M0 0 C0.66 0 1.32 0 2 0 C3.91 2.082 3.91 2.082 6.062 4.812 C7.132 6.152 7.132 6.152 8.223 7.52 C10 10 10 10 11 13 C11.66 13 12.32 13 13 13 C13 13.99 13 14.98 13 16 C13.99 16.33 14.98 16.66 16 17 C17.605 18.777 17.605 18.777 19.188 20.938 C19.717 21.648 20.247 22.358 20.793 23.09 C22 25 22 25 22 27 C22.99 27.33 23.98 27.66 25 28 C27.776 30.718 30.065 33.63 32 37 C32 40.882 31.213 43.362 30 47 C29.694 52.727 29.785 58.378 31 64 C30.313 63.651 29.626 63.301 28.918 62.941 C28.017 62.486 27.116 62.031 26.188 61.562 C25.294 61.11 24.401 60.658 23.48 60.191 C19.693 58.372 16.466 57.78 12.312 57.438 C11.319 57.354 10.325 57.27 9.301 57.184 C8.162 57.093 8.162 57.093 7 57 C8 55 8 55 11 54 C8.69 54.66 6.38 55.32 4 56 C4 56.66 4 57.32 4 58 C3.397 58.242 2.793 58.485 2.172 58.734 C-2.371 60.64 -5.666 62.266 -9 66 C-9.66 66 -10.32 66 -11 66 C-17.1 47.156 -13.492 30.179 -7 12 C-7.99 12.495 -7.99 12.495 -9 13 C-8.25 10.562 -8.25 10.562 -7 8 C-6.361 7.856 -5.721 7.711 -5.062 7.562 C-2.621 7.155 -2.621 7.155 -1.25 4 C0.064 1.388 0.064 1.388 0 0 Z " fill="#FEFEFE" transform="translate(46,56)"/>
<path d="M0 0 C0.33 2.64 0.66 5.28 1 8 C2.134 7.938 3.269 7.876 4.438 7.812 C9.338 7.786 13.474 9.24 18 11 C18 8.36 18 5.72 18 3 C21.403 4.059 24.014 5.009 27 7 C27.33 6.67 27.66 6.34 28 6 C28.99 6.66 29.98 7.32 31 8 C31.144 8.743 31.289 9.485 31.438 10.25 C32.163 13.796 33.934 16.068 36 19 C36 19.33 36 19.66 36 20 C33.03 20.33 30.06 20.66 27 21 C27.186 22.361 27.371 23.722 27.562 25.125 C27.998 28.958 27.874 32.212 27 36 C29.64 36 32.28 36 35 36 C34.587 40.82 32.62 42.91 29 46 C28.34 46 27.68 46 27 46 C27 46.66 27 47.32 27 48 C23.7 48.99 20.4 49.98 17 51 C16 48 16 48 17.215 45.285 C17.783 44.222 18.352 43.158 18.938 42.062 C22.031 35.659 23.215 30.07 22 23 C21.34 22.34 20.68 21.68 20 21 C20.66 21.99 21.32 22.98 22 24 C22.195 26.262 22.195 26.262 22.125 28.688 C22.107 29.496 22.089 30.304 22.07 31.137 C22.047 31.752 22.024 32.366 22 33 C21.34 33 20.68 33 20 33 C19.893 33.71 19.786 34.421 19.676 35.152 C18.926 38.311 17.749 40.72 16.188 43.562 C15.686 44.492 15.185 45.421 14.668 46.379 C12.98 49.032 11.445 51.021 9 53 C7.68 53 6.36 53 5 53 C3.673 49.019 3.931 45.15 4 41 C0.701 40.064 0.701 40.064 -3 40 C-5.108 42.364 -5.108 42.364 -7 45 C-10.25 45.812 -10.25 45.812 -13 46 C-11.844 39.589 -9.934 34.311 -7.023 28.48 C-5.746 25.831 -5.746 25.831 -6 22 C-6.792 23.896 -7.584 25.792 -8.375 27.688 C-8.816 28.743 -9.257 29.799 -9.711 30.887 C-10.828 33.584 -11.923 36.287 -13 39 C-17.429 33.857 -17.429 33.857 -18 30 C-16.02 30 -14.04 30 -12 30 C-12.012 29.229 -12.023 28.458 -12.035 27.664 C-12.049 26.16 -12.049 26.16 -12.062 24.625 C-12.074 23.627 -12.086 22.63 -12.098 21.602 C-12 19 -12 19 -11 17 C-13.31 16.67 -15.62 16.34 -18 16 C-16.941 12.597 -15.991 9.986 -14 7 C-13.34 7 -12.68 7 -12 7 C-12 6.34 -12 5.68 -12 5 C-10.189 4.164 -8.376 3.332 -6.562 2.5 C-5.048 1.804 -5.048 1.804 -3.504 1.094 C-1 0 -1 0 0 0 Z " fill="#FDFDFD" transform="translate(174,97)"/>
<path d="M0 0 C0.784 0.186 1.567 0.371 2.375 0.562 C4.971 1.26 4.971 1.26 7 0 C15.787 -0.663 23.262 -0.599 31 4 C31.66 4.33 32.32 4.66 33 5 C33 5.66 33 6.32 33 7 C33.66 6.67 34.32 6.34 35 6 C34.505 5.01 34.505 5.01 34 4 C36.867 5.285 38.976 6.571 41 9 C41 9.66 41 10.32 41 11 C41.66 11 42.32 11 43 11 C43.66 12.65 44.32 14.3 45 16 C45.66 15.67 46.32 15.34 47 15 C47.261 35.631 47.261 35.631 43.812 39.375 C42.42 40.674 42.42 40.674 41 42 C39.35 44.617 37.83 47.281 36.332 49.988 C35.892 50.652 35.453 51.316 35 52 C34.34 52 33.68 52 33 52 C32.814 52.928 32.814 52.928 32.625 53.875 C32 56 32 56 30 58 C30.351 56.742 30.701 55.484 31.062 54.188 C32.506 47.66 32.513 40.965 29.438 34.938 C28.963 34.298 28.489 33.659 28 33 C28 32.34 28 31.68 28 31 C27.34 31 26.68 31 26 31 C26 30.34 26 29.68 26 29 C25.01 29 24.02 29 23 29 C22.505 28.01 22.505 28.01 22 27 C15.409 23.284 8.505 21.879 1 23 C-1.224 24.925 -1.224 24.925 -2 28 C-2 27.34 -2 26.68 -2 26 C-3.32 26 -4.64 26 -6 26 C-6.66 26 -7.32 26 -8 26 C-8.33 26.99 -8.66 27.98 -9 29 C-9.66 29 -10.32 29 -11 29 C-11.309 29.949 -11.619 30.898 -11.938 31.875 C-13 35 -13 35 -14 37 C-14.5 42.713 -13.84 47.596 -12 53 C-12.99 53.495 -12.99 53.495 -14 54 C-14.33 54.825 -14.66 55.65 -15 56.5 C-16 59 -16 59 -18 60 C-17.772 59.229 -17.544 58.458 -17.309 57.664 C-17.021 56.661 -16.734 55.658 -16.438 54.625 C-16.147 53.627 -15.857 52.63 -15.559 51.602 C-14.723 49.032 -14.723 49.032 -16 47 C-17.528 32.745 -13.242 15.754 -5 4 C-2.188 2.438 -2.188 2.438 0 2 C0 1.34 0 0.68 0 0 Z " fill="#959595" transform="translate(101,92)"/>
<path d="M0 0 C5.101 3.583 6.869 8.351 8.215 14.25 C8.277 15.054 8.339 15.859 8.402 16.688 C7.932 16.266 7.461 15.844 6.977 15.41 C6.043 14.588 6.043 14.588 5.09 13.75 C4.475 13.205 3.86 12.659 3.227 12.098 C1.35 10.487 1.35 10.487 -1.598 9.688 C-1.598 9.028 -1.598 8.368 -1.598 7.688 C-13.795 3.506 -24.899 2.964 -36.598 8.688 C-37.588 9.017 -38.578 9.347 -39.598 9.688 C-39.598 10.347 -39.598 11.007 -39.598 11.688 C-40.258 11.688 -40.918 11.688 -41.598 11.688 C-42.027 12.778 -42.027 12.778 -42.465 13.891 C-43.166 15.623 -43.896 17.345 -44.668 19.047 C-47.554 25.589 -49.127 31.193 -46.762 38.145 C-45.29 41.569 -43.668 44.581 -41.598 47.688 C-41.944 51.152 -42.631 52.737 -44.598 55.688 C-44.598 56.347 -44.598 57.007 -44.598 57.688 C-45.361 59.664 -46.172 61.622 -47.004 63.57 C-47.5 64.737 -47.996 65.904 -48.508 67.105 C-49.038 68.341 -49.568 69.577 -50.098 70.812 C-50.628 72.056 -51.158 73.299 -51.688 74.543 C-52.988 77.593 -54.291 80.641 -55.598 83.688 C-56.093 82.697 -56.093 82.697 -56.598 81.688 C-57.588 81.358 -58.578 81.028 -59.598 80.688 C-61.422 78.691 -61.422 78.691 -63.285 76.25 C-63.908 75.447 -64.53 74.644 -65.172 73.816 C-66.598 71.688 -66.598 71.688 -66.598 69.688 C-67.258 69.688 -67.918 69.688 -68.598 69.688 C-68.886 68.883 -69.175 68.079 -69.473 67.25 C-70.33 64.555 -70.33 64.555 -72.598 63.688 C-71.938 63.688 -71.278 63.688 -70.598 63.688 C-70.103 62.697 -70.103 62.697 -69.598 61.688 C-67.488 61.09 -67.488 61.09 -64.848 60.625 C-63.987 60.469 -63.125 60.313 -62.238 60.152 C-61.367 59.999 -60.495 59.846 -59.598 59.688 C-57.93 59.358 -56.263 59.026 -54.598 58.688 C-54.598 58.028 -54.598 57.368 -54.598 56.688 C-52.636 55.298 -50.636 53.961 -48.598 52.688 C-49.642 49.392 -50.791 46.24 -52.16 43.062 C-54.48 37.615 -54.61 34.092 -53.895 28.266 C-53.568 25.776 -53.568 25.776 -53.551 23.609 C-53.22 15.484 -47.475 9.231 -41.848 3.812 C-30.357 -5.446 -13.131 -6.34 0 0 Z " fill="#FEFEFE" transform="translate(200.59765625,89.3125)"/>
<path d="M0 0 C1.128 2.785 1.07 3.826 -0.074 6.664 C-0.607 7.641 -1.139 8.618 -1.688 9.625 C-6.754 18.374 -6.754 18.374 -9 28 C-6.03 27.01 -3.06 26.02 0 25 C-2.969 27.969 -3.654 28.295 -7.375 29.375 C-10.736 30.777 -11.815 31.663 -13.594 34.902 C-14.848 38.24 -15.946 41.594 -17 45 C-17.58 46.447 -18.179 47.888 -18.812 49.312 C-19.204 50.199 -19.596 51.086 -20 52 C-20.66 52 -21.32 52 -22 52 C-22.124 52.598 -22.248 53.196 -22.375 53.812 C-23 56 -23 56 -25 59 C-25.66 59 -26.32 59 -27 59 C-27 59.99 -27 60.98 -27 62 C-27.66 62 -28.32 62 -29 62 C-29.248 62.598 -29.495 63.196 -29.75 63.812 C-31.254 66.445 -32.325 67.554 -35 69 C-41.016 69.795 -44.171 68.314 -49 65 C-53.635 58.047 -51.101 46.986 -49.633 39.109 C-49 37 -49 37 -47 35 C-45.709 31.456 -44.565 27.876 -43.414 24.285 C-41.987 20.971 -41.071 19.77 -38 18 C-38.627 21.662 -39.645 24.882 -41.062 28.312 C-41.425 29.196 -41.787 30.079 -42.16 30.988 C-42.437 31.652 -42.714 32.316 -43 33 C-42.13 32.749 -42.13 32.749 -41.242 32.492 C-36.151 31.165 -32.964 30.709 -28 33 C-28.33 33.66 -28.66 34.32 -29 35 C-28.234 37.019 -28.234 37.019 -27.062 39.125 C-26.682 39.849 -26.302 40.574 -25.91 41.32 C-25.61 41.875 -25.309 42.429 -25 43 C-25.66 43 -26.32 43 -27 43 C-30 38.615 -30 38.615 -30 36 C-33.452 38.301 -33.62 39.091 -34.688 42.938 C-34.939 43.813 -35.19 44.688 -35.449 45.59 C-36.111 48.075 -36.111 48.075 -36 51 C-35.34 51 -34.68 51 -34 51 C-34 51.99 -34 52.98 -34 54 C-31.158 55.573 -31.158 55.573 -28 56 C-24.616 53.231 -23.538 51.302 -23 47 C-22.794 46.34 -22.588 45.68 -22.375 45 C-21.898 42.455 -22.377 40.49 -23 38 C-21.68 39.32 -20.36 40.64 -19 42 C-18.528 40.732 -18.528 40.732 -18.047 39.438 C-15.918 33.794 -13.761 28.292 -10.961 22.949 C-9.861 20.717 -8.962 18.445 -8.062 16.125 C-2.893 2.893 -2.893 2.893 0 0 Z " fill="#0D0D0D" transform="translate(182,161)"/>
<path d="M0 0 C1.566 0.369 1.566 0.369 3.164 0.746 C6.118 1.469 9.061 2.221 12 3 C8.13 5.347 3.88 5.935 -0.5 6.75 C-2.294 7.102 -4.089 7.455 -5.883 7.809 C-9.071 8.432 -12.261 9.05 -15.452 9.657 C-37.344 12.995 -37.344 12.995 -56 24 C-56.99 24 -57.98 24 -59 24 C-59 24.66 -59 25.32 -59 26 C-60.715 27.656 -60.715 27.656 -62.938 29.5 C-65.92 31.889 -65.92 31.889 -68 35 C-68.66 35 -69.32 35 -70 35 C-70.124 35.557 -70.248 36.114 -70.375 36.688 C-71.06 39.221 -71.991 41.579 -73 44 C-73.33 44 -73.66 44 -74 44 C-76.049 25.082 -76.049 25.082 -74 19.062 C-67.589 12.451 -58.067 11.457 -49.447 9.556 C-44.288 8.384 -39.167 7.052 -34.04 5.75 C-30.112 4.758 -26.183 3.812 -22.223 2.957 C-19.042 2.262 -16.012 1.394 -12.938 0.312 C-8.357 -1.074 -4.645 -1.1 0 0 Z " fill="#FFFFFF" transform="translate(299,82)"/>
<path d="M0 0 C0 0.66 0 1.32 0 2 C0.598 2.124 1.196 2.248 1.812 2.375 C4 3 4 3 7 5 C7 5.66 7 6.32 7 7 C7.763 7.206 8.526 7.412 9.312 7.625 C12 9 12 9 14.062 11.375 C15.539 17.082 13.163 21.675 11 27 C10.67 26.34 10.34 25.68 10 25 C9.34 25 8.68 25 8 25 C5.375 22.625 5.375 22.625 3 20 C3 19.34 3 18.68 3 18 C2.34 18 1.68 18 1 18 C1 17.34 1 16.68 1 16 C0.285 15.722 -0.431 15.443 -1.168 15.156 C-3.934 14.027 -6.614 12.781 -9.312 11.5 C-20.305 6.545 -31.943 5.127 -43.836 8.156 C-47.445 9.563 -50.617 11.622 -53.836 13.758 C-56 15 -56 15 -59 15 C-58.34 13.02 -57.68 11.04 -57 9 C-56.34 9 -55.68 9 -55 9 C-54.794 8.443 -54.588 7.886 -54.375 7.312 C-52.45 4.075 -49.961 2.318 -47 0 C-45 3 -45 3 -45 5 C-41.562 4.819 -41.562 4.819 -38 4 C-36.783 2.235 -36.783 2.235 -36 0 C-27.19 -10.523 -10.856 -5.262 0 0 Z " fill="#FFFFFF" transform="translate(145,67)"/>
<path d="M0 0 C3.045 3.828 2.674 5.965 2.188 10.75 C0.207 11.74 0.207 11.74 -1.812 12.75 C-1.153 11.76 -0.493 10.77 0.188 9.75 C0.188 8.76 0.188 7.77 0.188 6.75 C-0.844 7.389 -1.875 8.029 -2.938 8.688 C-11.382 13.923 -24.214 12.578 -33.52 10.453 C-38.132 9.039 -42.382 7.18 -45.812 3.75 C-45.438 1.125 -45.438 1.125 -44.812 -1.25 C-43.822 -1.58 -42.833 -1.91 -41.812 -2.25 C-41.482 -2.91 -41.153 -3.57 -40.812 -4.25 C-28.042 -9.172 -11.452 -7.976 0 0 Z " fill="#CCCCCC" transform="translate(206.8125,256.25)"/>
<path d="M0 0 C3.839 3.113 6.98 6.263 7.625 11.332 C7.625 13.536 7.536 15.683 7.312 17.875 C6.653 17.875 5.993 17.875 5.312 17.875 C5.206 18.585 5.099 19.296 4.988 20.027 C4.239 23.186 3.061 25.595 1.5 28.438 C0.999 29.367 0.497 30.296 -0.02 31.254 C-1.708 33.907 -3.243 35.896 -5.688 37.875 C-7.007 37.875 -8.327 37.875 -9.688 37.875 C-11.015 33.894 -10.757 30.025 -10.688 25.875 C-13.987 24.939 -13.987 24.939 -17.688 24.875 C-19.795 27.239 -19.795 27.239 -21.688 29.875 C-24.938 30.688 -24.938 30.688 -27.688 30.875 C-26.697 30.215 -25.708 29.555 -24.688 28.875 C-20.259 25.036 -18.251 21.371 -16.125 16.062 C-15.53 14.639 -14.934 13.215 -14.336 11.793 C-13.914 10.779 -13.914 10.779 -13.483 9.744 C-12.046 6.368 -10.381 3.127 -8.688 -0.125 C-10.667 0.205 -12.648 0.535 -14.688 0.875 C-12.067 -4.365 -4.38 -1.834 0 0 Z " fill="#242424" transform="translate(188.6875,112.125)"/>
<path d="M0 0 C8.038 0.208 14.207 3.097 20.473 8.07 C26.297 14.764 28.613 19.374 28.473 28.07 C28.143 28.07 27.813 28.07 27.473 28.07 C27.143 30.38 26.813 32.69 26.473 35.07 C26.143 35.07 25.813 35.07 25.473 35.07 C25.143 33.42 24.813 31.77 24.473 30.07 C24.473 32.71 24.473 35.35 24.473 38.07 C21.89 35.488 21.743 33.342 21.035 29.848 C20.85 29.261 20.664 28.675 20.473 28.07 C19.813 27.74 19.153 27.41 18.473 27.07 C18.473 26.41 18.473 25.75 18.473 25.07 C17.813 25.07 17.153 25.07 16.473 25.07 C16.473 24.08 16.473 23.09 16.473 22.07 C15.813 22.07 15.153 22.07 14.473 22.07 C14.246 21.472 14.019 20.874 13.785 20.258 C11.099 15.781 6.282 14.447 1.473 13.07 C-1.754 12.794 -1.754 12.794 -5.027 12.883 C-6.11 12.889 -7.193 12.896 -8.309 12.902 C-11.452 13.066 -14.437 13.489 -17.527 14.07 C-14.915 10.152 -11.915 9.222 -7.527 8.07 C-1.329 7.37 2.788 8.698 8.469 11.195 C10.261 12.137 10.261 12.137 11.473 12.07 C3.795 8.411 -2.959 6.326 -11.309 8.941 C-14.461 10.178 -17.5 11.557 -20.527 13.07 C-20.197 12.08 -19.867 11.09 -19.527 10.07 C-18.867 10.07 -18.207 10.07 -17.527 10.07 C-17.527 9.41 -17.527 8.75 -17.527 8.07 C-16.867 7.74 -16.207 7.41 -15.527 7.07 C-16.517 6.74 -17.507 6.41 -18.527 6.07 C-12.369 1.632 -7.516 0.209 0 0 Z " fill="#BEBEBE" transform="translate(114.52734375,95.9296875)"/>
<path d="M0 0 C0 0.66 0 1.32 0 2 C1.072 1.897 2.145 1.794 3.25 1.688 C7 2 7 2 9.375 4.25 C11 7 11 7 11.5 9.062 C11.875 11.192 11.875 11.192 13.875 12.875 C16.384 15.384 17.674 17.72 19 21 C18.505 22.485 18.505 22.485 18 24 C15 18.25 15 18.25 15 16 C14.301 15.795 13.603 15.59 12.883 15.379 C11.973 15.109 11.063 14.84 10.125 14.562 C9.22 14.296 8.315 14.029 7.383 13.754 C5 13 5 13 3 12 C-9.222 11.174 -19.967 11.401 -29.688 19.75 C-30.807 20.818 -31.917 21.895 -33 23 C-34 20 -34 20 -34 18 C-34.66 18 -35.32 18 -36 18 C-35.505 16.515 -35.505 16.515 -35 15 C-35 15.66 -35 16.32 -35 17 C-34.01 17 -33.02 17 -32 17 C-31.469 15.232 -30.95 13.461 -30.438 11.688 C-30.002 10.208 -30.002 10.208 -29.559 8.699 C-28.748 5.92 -28.748 5.92 -30 3 C-29.01 3.33 -28.02 3.66 -27 4 C-25.03 3.218 -25.03 3.218 -22.875 2.062 C-15.538 -1.114 -7.825 -0.327 0 0 Z " fill="#C2C2C2" transform="translate(188,75)"/>
<path d="M0 0 C0.209 6.406 0.158 11.93 -2 18 C-2.66 18 -3.32 18 -4 18 C-3.67 18.99 -3.34 19.98 -3 21 C-3.66 21.33 -4.32 21.66 -5 22 C-5.66 21.67 -6.32 21.34 -7 21 C-7 21.66 -7 22.32 -7 23 C-7.82 23.315 -8.64 23.629 -9.484 23.953 C-10.562 24.381 -11.64 24.809 -12.75 25.25 C-13.817 25.668 -14.885 26.085 -15.984 26.516 C-19.008 28.004 -20.707 29.583 -23 32 C-23.66 32 -24.32 32 -25 32 C-25.222 26.886 -24.585 22.417 -23.438 17.43 C-22.982 14.903 -22.927 12.562 -23 10 C-21.948 9.608 -20.896 9.216 -19.812 8.812 C-16.933 7.603 -15.806 6.796 -13.562 4.438 C-9.63 0.696 -5.43 0 0 0 Z " fill="#FEFEFE" transform="translate(166,220)"/>
<path d="M0 0 C0.99 0 1.98 0 3 0 C4.824 1.898 4.824 1.898 6.688 4.375 C7.31 5.187 7.933 5.999 8.574 6.836 C10 9 10 9 10 11 C10.99 11.33 11.98 11.66 13 12 C15.043 14.504 15.043 14.504 17.188 17.562 C17.903 18.574 18.618 19.586 19.355 20.629 C19.898 21.411 20.441 22.194 21 23 C17.678 26.833 17.678 26.833 14.703 27.566 C6.704 27.554 2.458 24.939 -3.5 19.875 C-5.817 15.434 -5.63 10.912 -5 6 C-3.977 3.66 -3.977 3.66 -3 2 C-2.01 2 -1.02 2 0 2 C0 1.34 0 0.68 0 0 Z " fill="#FFFFFF" transform="translate(100,123)"/>
<path d="M0 0 C2.477 1.02 2.477 1.02 4.375 2.188 C4.705 3.177 5.035 4.168 5.375 5.188 C6.365 5.188 7.355 5.188 8.375 5.188 C8.375 5.847 8.375 6.507 8.375 7.188 C9.035 7.188 9.695 7.188 10.375 7.188 C14.361 12.974 15.67 18.137 15.375 25.188 C14.659 28.33 13.665 31.236 12.375 34.188 C11.715 34.188 11.055 34.188 10.375 34.188 C10.375 34.847 10.375 35.507 10.375 36.188 C7.753 35.139 6.581 34.538 5.125 32.062 C4.877 31.444 4.63 30.825 4.375 30.188 C5.035 30.188 5.695 30.188 6.375 30.188 C7.736 24.745 8.52 19.382 5.875 14.312 C5.38 13.611 4.885 12.91 4.375 12.188 C4.375 11.528 4.375 10.868 4.375 10.188 C3.715 10.188 3.055 10.188 2.375 10.188 C2.375 9.528 2.375 8.868 2.375 8.188 C1.385 8.188 0.395 8.188 -0.625 8.188 C-0.625 7.528 -0.625 6.868 -0.625 6.188 C-2.541 5.992 -4.458 5.806 -6.375 5.625 C-7.442 5.521 -8.51 5.416 -9.609 5.309 C-12.266 5.202 -14.125 5.368 -16.625 6.188 C-16.625 5.528 -16.625 4.868 -16.625 4.188 C-17.285 4.188 -17.945 4.188 -18.625 4.188 C-18.625 3.198 -18.625 2.207 -18.625 1.188 C-19.285 0.858 -19.945 0.528 -20.625 0.188 C-14.185 -3.556 -6.743 -2.529 0 0 Z " fill="#FFFFFF" transform="translate(118.625,115.8125)"/>
<path d="M0 0 C0.99 0.33 1.98 0.66 3 1 C4.237 0.814 5.475 0.629 6.75 0.438 C11.03 -0.197 13.949 0.565 18 2 C18 2.66 18 3.32 18 4 C18.99 4 19.98 4 21 4 C21 4.66 21 5.32 21 6 C21.66 6 22.32 6 23 6 C26.583 11.374 27.719 14.532 27 21 C26 23 25 25 24 27 C24.674 29.355 24.674 29.355 26 31 C25.34 31 24.68 31 24 31 C23.34 29.35 22.68 27.7 22 26 C21.34 26 20.68 26 20 26 C18.666 24.319 17.407 22.578 16.188 20.812 C13.369 16.832 10.554 13.356 7 10 C3 5.351 3 5.351 3 3 C2.01 2.67 1.02 2.34 0 2 C0 1.34 0 0.68 0 0 Z " fill="#B8B8B8" transform="translate(100,120)"/>
<path d="M0 0 C6 6 6 6 6.098 8.066 C6.086 8.89 6.074 9.714 6.062 10.562 C6.053 11.389 6.044 12.215 6.035 13.066 C6.024 13.704 6.012 14.343 6 15 C5.34 15 4.68 15 4 15 C3.893 15.71 3.786 16.421 3.676 17.152 C2.926 20.311 1.749 22.72 0.188 25.562 C-0.314 26.492 -0.815 27.421 -1.332 28.379 C-3.02 31.032 -4.555 33.021 -7 35 C-8.32 35 -9.64 35 -11 35 C-14.131 27.172 -6.647 15.492 -3.577 8.305 C-2.39 5.534 -1.196 2.767 0 0 Z " fill="#FFFFFF" transform="translate(190,115)"/>
<path d="M0 0 C0.85 2.405 1.146 3.601 0.258 6.035 C-0.116 6.704 -0.49 7.373 -0.875 8.062 C-2.168 10.417 -3.143 12.43 -4 15 C-3.42 14.832 -2.84 14.665 -2.242 14.492 C2.849 13.165 6.036 12.709 11 15 C10.67 15.66 10.34 16.32 10 17 C10.766 19.019 10.766 19.019 11.938 21.125 C12.318 21.849 12.698 22.574 13.09 23.32 C13.39 23.875 13.691 24.429 14 25 C13.34 25 12.68 25 12 25 C9 20.615 9 20.615 9 18 C5.752 19.722 5.752 19.722 5 23 C4.34 23.33 3.68 23.66 3 24 C2.35 25.454 2.35 25.454 1.688 26.938 C0 30 0 30 -2.438 31.375 C-5 32 -5 32 -9 32 C-9.221 29.876 -9.427 27.751 -9.625 25.625 C-9.741 24.442 -9.857 23.258 -9.977 22.039 C-9.984 21.036 -9.992 20.033 -10 19 C-9.34 18.34 -8.68 17.68 -8 17 C-6.67 13.459 -5.501 9.877 -4.316 6.285 C-3.147 3.366 -2.417 1.91 0 0 Z " fill="#000000" transform="translate(143,179)"/>
<path d="M0 0 C0.99 0.33 1.98 0.66 3 1 C5.068 5.218 6.58 9.521 8 14 C3.25 18 3.25 18 1 18 C1 18.66 1 19.32 1 20 C-4.123 22.455 -8.339 23.503 -14 24 C-13.691 23.237 -13.381 22.474 -13.062 21.688 C-12.321 19.812 -11.638 17.913 -11 16 C-10.34 16 -9.68 16 -9 16 C-8.745 15.295 -8.49 14.59 -8.227 13.863 C-6.884 10.73 -5.233 8.043 -3.375 5.188 C-2.743 4.212 -2.112 3.236 -1.461 2.23 C-0.738 1.126 -0.738 1.126 0 0 Z " fill="#D0D0D0" transform="translate(145,128)"/>
<path d="M0 0 C2.867 1.285 4.976 2.571 7 5 C7 5.66 7 6.32 7 7 C7.66 7 8.32 7 9 7 C9.66 8.65 10.32 10.3 11 12 C11.66 11.67 12.32 11.34 13 11 C13.261 31.631 13.261 31.631 9.812 35.375 C8.884 36.241 7.956 37.108 7 38 C5.35 40.617 3.83 43.281 2.332 45.988 C1.892 46.652 1.453 47.316 1 48 C0.34 48 -0.32 48 -1 48 C-1.124 48.619 -1.248 49.238 -1.375 49.875 C-2 52 -2 52 -4 54 C-3.649 52.742 -3.299 51.484 -2.938 50.188 C-1.416 43.417 -2.185 36.656 -4 30 C-1.101 32.395 -0.498 34.312 0 38 C0.125 32.422 0.125 32.422 -1 27 C1.523 28.974 1.993 29.967 2.688 33.188 C2.791 34.116 2.894 35.044 3 36 C3 32.37 3 28.74 3 25 C3.66 26.32 4.32 27.64 5 29 C5.205 28.374 5.41 27.747 5.621 27.102 C5.891 26.284 6.16 25.467 6.438 24.625 C6.838 23.407 6.838 23.407 7.246 22.164 C8 20 8 20 9 18 C8.392 15.651 7.729 13.315 7 11 C6.34 11 5.68 11 5 11 C5 10.01 5 9.02 5 8 C4.34 8 3.68 8 3 8 C3 7.34 3 6.68 3 6 C2.34 6 1.68 6 1 6 C1 5.34 1 4.68 1 4 C0.34 3.67 -0.32 3.34 -1 3 C-0.34 2.67 0.32 2.34 1 2 C0.67 1.34 0.34 0.68 0 0 Z " fill="#060606" transform="translate(135,96)"/>
<path d="M0 0 C0.495 0.99 0.495 0.99 1 2 C-0.109 4.461 -0.109 4.461 -1.75 7.375 C-2.281 8.331 -2.812 9.288 -3.359 10.273 C-4.795 12.66 -6.181 14.891 -8 17 C-8.66 17 -9.32 17 -10 17 C-10.433 17.897 -10.433 17.897 -10.875 18.812 C-12 21 -12 21 -14 24 C-14.66 24 -15.32 24 -16 24 C-16 24.66 -16 25.32 -16 26 C-18.096 27.537 -20.175 28.938 -22.375 30.312 C-23.007 30.713 -23.639 31.114 -24.29 31.527 C-29.361 34.701 -34.559 37.505 -40 40 C-41 37 -41 37 -40.043 34.062 C-37.369 30.054 -34.633 28.883 -30.312 27 C-20.206 22.73 -20.206 22.73 -13 15 C-12.34 15 -11.68 15 -11 15 C-11 14.34 -11 13.68 -11 13 C-10.34 13 -9.68 13 -9 13 C-9 12.34 -9 11.68 -9 11 C-7.667 9.667 -6.333 8.333 -5 7 C-3.262 4.711 -1.637 2.364 0 0 Z " fill="#FFFFFF" transform="translate(208,161)"/>
<path d="M0 0 C0.66 0 1.32 0 2 0 C2.027 1.937 2.046 3.875 2.062 5.812 C2.074 6.891 2.086 7.97 2.098 9.082 C2 12 2 12 1 15 C0.34 15 -0.32 15 -1 15 C-1.33 16.65 -1.66 18.3 -2 20 C-2.66 20 -3.32 20 -4 20 C-4.33 20.99 -4.66 21.98 -5 23 C-11.743 27.636 -18.813 29.42 -27 29 C-26.367 26.137 -26.367 26.137 -25 23 C-22.32 21.645 -22.32 21.645 -19.125 20.812 C-15.033 19.712 -12.309 18.634 -9 16 C-8.34 16 -7.68 16 -7 16 C-6.67 15.01 -6.34 14.02 -6 13 C-5.34 13 -4.68 13 -4 13 C-3.711 11.969 -3.423 10.938 -3.125 9.875 C-2.177 6.55 -1.117 3.272 0 0 Z " fill="#E7E7E7" transform="translate(213,128)"/>
<path d="M0 0 C0.825 0.763 1.65 1.526 2.5 2.312 C11.326 9.643 23.061 9.542 34 9 C39.098 8.272 43.492 6.48 48 4 C47.875 6.25 47.875 6.25 47 9 C39.223 15.481 30.72 15.742 21 15 C15.382 13.99 10.043 12.729 5 10 C5 9.34 5 8.68 5 8 C4.01 8 3.02 8 2 8 C2 7.01 2 6.02 2 5 C1.34 5 0.68 5 0 5 C0 3.35 0 1.7 0 0 Z " fill="#FFFFFF" transform="translate(160,258)"/>
<path d="M0 0 C2.107 0.95 4.093 1.961 6.078 3.141 C6.738 3.471 7.398 3.801 8.078 4.141 C8.078 5.131 8.078 6.121 8.078 7.141 C8.738 7.141 9.398 7.141 10.078 7.141 C10.078 7.801 10.078 8.461 10.078 9.141 C10.738 9.141 11.398 9.141 12.078 9.141 C12.078 9.801 12.078 10.461 12.078 11.141 C12.738 11.141 13.398 11.141 14.078 11.141 C14.078 12.131 14.078 13.121 14.078 14.141 C14.738 14.141 15.398 14.141 16.078 14.141 C19.729 20.682 19.377 26.779 19.078 34.141 C18.748 34.141 18.418 34.141 18.078 34.141 C18.078 30.511 18.078 26.881 18.078 23.141 C17.418 23.141 16.758 23.141 16.078 23.141 C14.98 21.447 13.95 19.708 12.953 17.953 C9.688 12.649 6.651 9.795 1.078 7.141 C0.445 6.784 -0.188 6.426 -0.84 6.059 C-7.629 3.065 -16.629 3.998 -23.922 4.141 C-23.922 3.481 -23.922 2.821 -23.922 2.141 C-22.602 2.141 -21.282 2.141 -19.922 2.141 C-19.922 1.481 -19.922 0.821 -19.922 0.141 C-14.662 -2.489 -5.535 -1.628 0 0 Z " fill="#999999" transform="translate(125.921875,92.859375)"/>
<path d="M0 0 C1.32 0 2.64 0 4 0 C4.66 1.32 5.32 2.64 6 4 C6.99 3.67 7.98 3.34 9 3 C9 3.66 9 4.32 9 5 C9.66 5 10.32 5 11 5 C11 5.66 11 6.32 11 7 C11.859 7.398 11.859 7.398 12.734 7.805 C15.108 9.057 17.122 10.494 19.25 12.125 C19.956 12.664 20.663 13.203 21.391 13.758 C21.922 14.168 22.453 14.578 23 15 C20.03 18.465 20.03 18.465 17 22 C14 21 14 21 12.613 18.715 C11.409 16.143 10.204 13.572 9 11 C10.98 15.29 12.96 19.58 15 24 C13.68 24.33 12.36 24.66 11 25 C10.58 24.156 10.16 23.311 9.727 22.441 C8.567 20.13 7.395 17.826 6.211 15.527 C5.599 14.331 4.987 13.134 4.375 11.938 C3.907 11.039 3.907 11.039 3.43 10.123 C1.724 6.767 0.523 3.736 0 0 Z " fill="#FFFFFF" transform="translate(90,46)"/>
<path d="M0 0 C2.312 1.562 2.312 1.562 3.312 2.562 C3.774 6.949 3.774 6.949 2.121 9.145 C-1.495 11.979 -6.215 12.24 -10.688 12.562 C-13.571 12.189 -15.917 11.504 -18.688 10.562 C-15.601 9.643 -12.96 9.511 -9.75 9.625 C-5.948 9.664 -3.057 9.519 0.312 7.562 C0.642 6.903 0.973 6.243 1.312 5.562 C0.529 5.893 -0.255 6.222 -1.062 6.562 C-7.774 8.414 -14.22 8.286 -20.688 5.562 C-20.688 6.222 -20.688 6.882 -20.688 7.562 C-21.347 7.562 -22.007 7.562 -22.688 7.562 C-22.688 5.912 -22.688 4.262 -22.688 2.562 C-22.028 2.562 -21.368 2.562 -20.688 2.562 C-20.688 1.903 -20.688 1.243 -20.688 0.562 C-14.069 -2.486 -6.776 -2.641 0 0 Z " fill="#868686" transform="translate(256.6875,242.4375)"/>
<path d="M0 0 C9.768 -0.616 9.768 -0.616 14.125 1.562 C16.521 4.678 16.776 7.125 17 11 C14.383 13.512 13.136 13.99 9.438 14.25 C6 14 6 14 3 13 C3 12.34 3 11.68 3 11 C2.01 11 1.02 11 0 11 C-0.195 9.543 -0.381 8.084 -0.562 6.625 C-0.667 5.813 -0.771 5.001 -0.879 4.164 C-1 2 -1 2 0 0 Z " fill="#F3F3F3" transform="translate(134,213)"/>
<path d="M0 0 C1.374 0.585 2.749 1.169 4.125 1.75 C5.074 2.162 6.023 2.575 7 3 C7 3.66 7 4.32 7 5 C7.66 5 8.32 5 9 5 C13.104 8.933 13.842 14.909 14.121 20.363 C14.124 22.243 14.068 24.122 14 26 C11.417 23.417 11.27 21.271 10.562 17.777 C10.377 17.191 10.191 16.604 10 16 C9.34 15.67 8.68 15.34 8 15 C8 14.34 8 13.68 8 13 C7.34 13 6.68 13 6 13 C6 12.01 6 11.02 6 10 C5.34 10 4.68 10 4 10 C3.773 9.402 3.546 8.804 3.312 8.188 C0.626 3.711 -4.191 2.377 -9 1 C-12.226 0.723 -12.226 0.723 -15.5 0.812 C-16.583 0.819 -17.666 0.825 -18.781 0.832 C-21.924 0.996 -24.91 1.418 -28 2 C-21.359 -7.962 -8.905 -4.027 0 0 Z " fill="#DFDFDF" transform="translate(125,108)"/>
<path d="M0 0 C1.938 0.375 1.938 0.375 4 1 C4.33 1.66 4.66 2.32 5 3 C3.68 3 2.36 3 1 3 C1 3.66 1 4.32 1 5 C1.66 5.33 2.32 5.66 3 6 C1.68 6.99 0.36 7.98 -1 9 C0.32 9.33 1.64 9.66 3 10 C0.353 11.461 -0.894 12 -4 12 C-4 12.66 -4 13.32 -4 14 C-4.979 15.021 -5.98 16.021 -7 17 C-7.33 17.66 -7.66 18.32 -8 19 C-8.66 19 -9.32 19 -10 19 C-9.219 21.496 -9.219 21.496 -8 24 C-7.01 24.33 -6.02 24.66 -5 25 C-5.99 25.33 -6.98 25.66 -8 26 C-8.33 26.99 -8.66 27.98 -9 29 C-9.66 29 -10.32 29 -11 29 C-11.309 29.949 -11.619 30.898 -11.938 31.875 C-13 35 -13 35 -14 37 C-14.5 42.713 -13.84 47.596 -12 53 C-12.99 53.495 -12.99 53.495 -14 54 C-14.33 54.825 -14.66 55.65 -15 56.5 C-16 59 -16 59 -18 60 C-17.772 59.229 -17.544 58.458 -17.309 57.664 C-17.021 56.661 -16.734 55.658 -16.438 54.625 C-16.147 53.627 -15.857 52.63 -15.559 51.602 C-14.723 49.032 -14.723 49.032 -16 47 C-17.528 32.745 -13.242 15.754 -5 4 C-2.188 2.438 -2.188 2.438 0 2 C0 1.34 0 0.68 0 0 Z " fill="#1B1B1B" transform="translate(101,92)"/>
<path d="M0 0 C2.625 -0.188 2.625 -0.188 5 0 C5.66 1.32 6.32 2.64 7 4 C7.33 3.01 7.66 2.02 8 1 C10.875 0.375 10.875 0.375 14 0 C16 2 16 2 16.312 5.938 C16.256 8.762 16.231 9.692 14.5 12 C14.005 12.33 13.51 12.66 13 13 C8.125 11.25 8.125 11.25 7 9 C6.423 9.681 5.845 10.361 5.25 11.062 C3 13 3 13 0.812 12.875 C-1 12 -1 12 -2 10 C-2.353 3.529 -2.353 3.529 0 0 Z " fill="#000000" transform="translate(255,293)"/>
<path d="M0 0 C1.938 1.188 1.938 1.188 2.938 4.188 C-2.544 7.743 -7.733 7.919 -14.062 7.188 C-17.75 5.688 -17.75 5.688 -20.062 4.188 C-17.779 7.613 -16.915 8.059 -13.062 9.188 C-9.707 9.428 -9.707 9.428 -6.25 9.312 C-5.089 9.294 -3.927 9.276 -2.73 9.258 C-1.41 9.223 -1.41 9.223 -0.062 9.188 C-2.724 11.849 -4.105 11.486 -7.812 11.5 C-12.911 11.427 -17.27 10.98 -21.062 7.188 C-21.103 5.521 -21.105 3.854 -21.062 2.188 C-13.969 -0.965 -7.611 -2.019 0 0 Z " fill="#A8A8A8" transform="translate(273.0625,122.8125)"/>
<path d="M0 0 C1.128 2.785 1.07 3.826 -0.074 6.664 C-0.607 7.641 -1.139 8.618 -1.688 9.625 C-6.754 18.374 -6.754 18.374 -9 28 C-6.03 27.01 -3.06 26.02 0 25 C-2.969 27.969 -3.654 28.295 -7.375 29.375 C-10.736 30.777 -11.815 31.663 -13.594 34.902 C-14.848 38.24 -15.946 41.594 -17 45 C-17.58 46.447 -18.179 47.888 -18.812 49.312 C-19.204 50.199 -19.596 51.086 -20 52 C-20.99 52 -21.98 52 -23 52 C-23.069 49.531 -23.109 47.389 -22.438 45 C-21.877 42.44 -22.371 40.517 -23 38 C-21.68 39.32 -20.36 40.64 -19 42 C-18.528 40.732 -18.528 40.732 -18.047 39.438 C-15.918 33.794 -13.761 28.292 -10.961 22.949 C-9.861 20.717 -8.962 18.445 -8.062 16.125 C-2.893 2.893 -2.893 2.893 0 0 Z " fill="#000000" transform="translate(182,161)"/>
<path d="M0 0 C3 1.562 3 1.562 5 3 C4.34 4.65 3.68 6.3 3 8 C1.68 8 0.36 8 -1 8 C-0.34 8.33 0.32 8.66 1 9 C1 9.66 1 10.32 1 11 C0.01 11.495 0.01 11.495 -1 12 C-1.656 14.527 -1.656 14.527 -2 17 C-4.64 16.01 -7.28 15.02 -10 14 C-10 13.34 -10 12.68 -10 12 C-9.01 12 -8.02 12 -7 12 C-7.99 11.01 -8.98 10.02 -10 9 C-8.68 6.36 -7.36 3.72 -6 1 C-7.98 1.33 -9.96 1.66 -12 2 C-9.713 -2.574 -4.212 -0.959 0 0 Z " fill="#424242" transform="translate(186,111)"/>
<path d="M0 0 C8.038 0.208 14.207 3.097 20.473 8.07 C26.297 14.764 28.613 19.374 28.473 28.07 C26.811 25.577 26.045 24.009 25.16 21.258 C22.417 13.842 17.344 9.579 10.473 6.07 C1.426 2.486 -6.78 3.478 -15.527 7.07 C-16.517 6.74 -17.507 6.41 -18.527 6.07 C-12.369 1.632 -7.516 0.209 0 0 Z " fill="#FFFFFF" transform="translate(114.52734375,95.9296875)"/>
<path d="M0 0 C-0.66 0.66 -1.32 1.32 -2 2 C-2.616 3.634 -3.196 5.282 -3.75 6.938 C-5.177 10.628 -5.678 11.772 -9 14.125 C-12 15 -12 15 -16 15 C-16.298 7.263 -16.298 7.263 -14 4 C-11.25 2.48 -11.25 2.48 -8 1.188 C-6.391 0.528 -6.391 0.528 -4.75 -0.145 C-2 -1 -2 -1 0 0 Z " fill="#FFFFFF" transform="translate(150,196)"/>
<path d="M0 0 C2.64 0 5.28 0 8 0 C10.276 8.035 10.276 8.035 9.125 12.062 C8.568 13.022 8.568 13.022 8 14 C5.36 14 2.72 14 0 14 C0 9.38 0 4.76 0 0 Z " fill="#FFFFFF" transform="translate(202,118)"/>
<path d="M0 0 C10.558 -0.369 10.558 -0.369 15 2 C14.67 4.31 14.34 6.62 14 9 C9.38 8.34 4.76 7.68 0 7 C0 4.69 0 2.38 0 0 Z " fill="#FFFFFF" transform="translate(176,97)"/>
<path d="M0 0 C2 1 2 1 2.852 3.285 C3.107 4.202 3.362 5.118 3.625 6.062 C3.885 6.982 4.146 7.901 4.414 8.848 C4.607 9.558 4.801 10.268 5 11 C5 9.35 5 7.7 5 6 C7.488 8.488 8.308 10.868 9.625 14.125 C10.071 15.221 10.517 16.316 10.977 17.445 C11.314 18.288 11.652 19.131 12 20 C11.34 20.33 10.68 20.66 10 21 C10.433 21.554 10.866 22.109 11.312 22.68 C12.148 23.766 12.148 23.766 13 24.875 C13.557 25.594 14.114 26.314 14.688 27.055 C16 29 16 29 16 31 C16.66 31 17.32 31 18 31 C19.586 32.574 19.586 32.574 21.375 34.688 C21.992 35.413 22.61 36.139 23.246 36.887 C25.195 39.234 27.122 41.596 29 44 C25.601 42.53 23.35 40.62 20.75 38 C19.69 36.948 19.69 36.948 18.609 35.875 C17 34 17 34 17 32 C16.34 32 15.68 32 15 32 C7.172 23.063 1.975 11.652 0 0 Z " fill="#000000" transform="translate(202,5)"/>
<path d="M0 0 C1.32 0 2.64 0 4 0 C4.66 2.31 5.32 4.62 6 7 C6.66 7 7.32 7 8 7 C8.254 7.724 8.508 8.449 8.77 9.195 C10.587 14.302 12.421 19.229 15 24 C13.68 24.33 12.36 24.66 11 25 C10.58 24.156 10.16 23.311 9.727 22.441 C8.567 20.13 7.395 17.826 6.211 15.527 C5.599 14.331 4.987 13.134 4.375 11.938 C3.907 11.039 3.907 11.039 3.43 10.123 C1.724 6.767 0.523 3.736 0 0 Z " fill="#F9F9F9" transform="translate(90,46)"/>
<path d="M0 0 C1 1 1 1 1.25 4.875 C1.211 7.564 1.164 8.73 -0.25 11.062 C-2 12 -2 12 -4.188 11.688 C-4.786 11.461 -5.384 11.234 -6 11 C-8.52 3.293 -8.52 3.293 -7 0 C-4.316 -1.342 -2.847 -0.73 0 0 Z " fill="#000000" transform="translate(280,294)"/>
<path d="M0 0 C2.867 1.285 4.976 2.571 7 5 C7 5.66 7 6.32 7 7 C7.66 7 8.32 7 9 7 C9.66 8.65 10.32 10.3 11 12 C11.66 11.67 12.32 11.34 13 11 C13.054 12.604 13.093 14.208 13.125 15.812 C13.148 16.706 13.171 17.599 13.195 18.52 C13 21 13 21 11 24 C10.329 22.21 9.664 20.418 9 18.625 C8.629 17.627 8.257 16.63 7.875 15.602 C7 13 7 13 7 11 C6.34 11 5.68 11 5 11 C5 10.01 5 9.02 5 8 C4.34 8 3.68 8 3 8 C3 7.34 3 6.68 3 6 C2.34 6 1.68 6 1 6 C1 5.34 1 4.68 1 4 C0.34 3.67 -0.32 3.34 -1 3 C-0.34 2.67 0.32 2.34 1 2 C0.67 1.34 0.34 0.68 0 0 Z " fill="#2E2E2E" transform="translate(135,96)"/>
<path d="M0 0 C0.784 0.041 1.567 0.082 2.375 0.125 C2.705 1.115 3.035 2.105 3.375 3.125 C0.405 2.63 0.405 2.63 -2.625 2.125 C-2.625 2.785 -2.625 3.445 -2.625 4.125 C-1.821 4.269 -1.016 4.414 -0.188 4.562 C2.375 5.125 2.375 5.125 3.375 6.125 C3.416 7.791 3.418 9.459 3.375 11.125 C1.725 11.785 0.075 12.445 -1.625 13.125 C-3.688 11.562 -3.688 11.562 -5.625 9.125 C-5.319 0.253 -5.319 0.253 0 0 Z " fill="#000000" transform="translate(306.625,292.875)"/>
<path d="M0 0 C0.66 0.66 1.32 1.32 2 2 C2.66 2.33 3.32 2.66 4 3 C3.01 3.33 2.02 3.66 1 4 C0.67 4.99 0.34 5.98 0 7 C-0.66 7 -1.32 7 -2 7 C-2.309 7.949 -2.619 8.898 -2.938 9.875 C-4 13 -4 13 -5 15 C-5.5 20.713 -4.84 25.596 -3 31 C-3.66 31.33 -4.32 31.66 -5 32 C-5.33 32.825 -5.66 33.65 -6 34.5 C-7 37 -7 37 -9 38 C-8.772 37.229 -8.544 36.458 -8.309 35.664 C-8.021 34.661 -7.734 33.658 -7.438 32.625 C-7.147 31.627 -6.857 30.63 -6.559 29.602 C-5.723 27.032 -5.723 27.032 -7 25 C-7.642 17.311 -7.394 9.067 -4 2 C-1.891 0.695 -1.891 0.695 0 0 Z " fill="#0F0F0F" transform="translate(92,114)"/>
<path d="M0 0 C2.625 -0.188 2.625 -0.188 5 0 C5 0.99 5 1.98 5 3 C3.68 3.33 2.36 3.66 1 4 C2.65 4.33 4.3 4.66 6 5 C6.688 6.75 6.688 6.75 7 9 C5.562 11.25 5.562 11.25 4 13 C1.831 12.494 0 12 -2 11 C-2.25 3.375 -2.25 3.375 0 0 Z " fill="#000000" transform="translate(284,293)"/>
<path d="M0 0 C0.33 0.66 0.66 1.32 1 2 C7.848 3.756 16.152 3.756 23 2 C23.33 1.34 23.66 0.68 24 0 C23.427 2.867 23.139 3.861 21 6 C15.648 7.807 9.372 7.692 4 6.125 C2 5 2 5 0 3 C0 2.01 0 1.02 0 0 Z " fill="#FFFFFF" transform="translate(235,246)"/>
<path d="M0 0 C5.492 0.61 5.492 0.61 7.875 2.438 C9 4 9 4 9 6 C8.01 6.495 8.01 6.495 7 7 C6.344 9.527 6.344 9.527 6 12 C3.36 11.01 0.72 10.02 -2 9 C-2 8.34 -2 7.68 -2 7 C-1.01 7 -0.02 7 1 7 C0.01 6.01 -0.98 5.02 -2 4 C-1.34 2.68 -0.68 1.36 0 0 Z " fill="#000000" transform="translate(178,116)"/>
<path d="M0 0 C2.31 0 4.62 0 7 0 C6.67 3.96 6.34 7.92 6 12 C4.02 12 2.04 12 0 12 C0 8.04 0 4.08 0 0 Z " fill="#FFFFFF" transform="translate(155,114)"/>
<path d="M0 0 C0.33 0.99 0.66 1.98 1 3 C-4.424 7.302 -9.255 7.597 -16 7 C-19.562 5.688 -19.562 5.688 -22 4 C-22.33 3.01 -22.66 2.02 -23 1 C-21.855 1.495 -21.855 1.495 -20.688 2 C-14.395 3.706 -8.396 3.974 -2.312 1.5 C-1.549 1.005 -0.786 0.51 0 0 Z " fill="#FFFFFF" transform="translate(276,126)"/>
<path d="M0 0 C0.93 2.551 1.086 3.74 0.223 6.359 C-0.16 7.148 -0.543 7.937 -0.938 8.75 C-1.318 9.549 -1.698 10.348 -2.09 11.172 C-2.39 11.775 -2.691 12.378 -3 13 C-0.284 15.874 -0.284 15.874 3 18 C3 18.99 3 19.98 3 21 C1.68 21 0.36 21 -1 21 C-2.75 18.5 -2.75 18.5 -4 16 C-4.99 16.33 -5.98 16.66 -7 17 C-7.33 14.36 -7.66 11.72 -8 9 C-7.01 9 -6.02 9 -5 9 C-4.723 8.434 -4.446 7.868 -4.16 7.285 C-3.798 6.552 -3.436 5.818 -3.062 5.062 C-2.703 4.332 -2.343 3.601 -1.973 2.848 C-1 1 -1 1 0 0 Z " fill="#000000" transform="translate(150,162)"/>
<path d="M0 0 C2.5 0.25 2.5 0.25 4.5 2.25 C4.17 3.24 3.84 4.23 3.5 5.25 C3.5 4.59 3.5 3.93 3.5 3.25 C0.53 2.755 0.53 2.755 -2.5 2.25 C-2.5 3.24 -2.5 4.23 -2.5 5.25 C-0.19 5.58 2.12 5.91 4.5 6.25 C5.188 8 5.188 8 5.5 10.25 C4.062 12.5 4.062 12.5 2.5 14.25 C-0.375 14 -0.375 14 -3.5 13.25 C-4.875 11.188 -4.875 11.188 -5.5 9.25 C-4.51 9.25 -3.52 9.25 -2.5 9.25 C-2.5 9.91 -2.5 10.57 -2.5 11.25 C-0.52 11.25 1.46 11.25 3.5 11.25 C1.326 8.75 -0.23 7.814 -3.5 7.25 C-4.125 4.875 -4.125 4.875 -4.5 2.25 C-2.5 0.25 -2.5 0.25 0 0 Z " fill="#000000" transform="translate(241.5,291.75)"/>
<path d="M0 0 C1.938 0.375 1.938 0.375 4 1 C4.33 1.66 4.66 2.32 5 3 C3.68 3 2.36 3 1 3 C1 3.66 1 4.32 1 5 C1.66 5.33 2.32 5.66 3 6 C-2.415 10.062 -2.415 10.062 -5.375 9.75 C-5.911 9.502 -6.448 9.255 -7 9 C-6.312 6.625 -6.312 6.625 -5 4 C-2.375 2.688 -2.375 2.688 0 2 C0 1.34 0 0.68 0 0 Z " fill="#3F3F3F" transform="translate(101,92)"/>
<path d="M0 0 C-0.57 6.957 -2.013 13.314 -4 20 C-4.936 20.199 -4.936 20.199 -5.891 20.402 C-8.35 21.099 -9.345 22.097 -11 24 C-10.081 21.454 -9.253 19.319 -7.562 17.188 C-5.743 14.64 -4.833 12.205 -3.812 9.25 C-3.468 8.265 -3.124 7.28 -2.77 6.266 C-2.516 5.518 -2.262 4.77 -2 4 C-2.66 3.67 -3.32 3.34 -4 3 C-1.125 0 -1.125 0 0 0 Z " fill="#1B1B1B" transform="translate(215,142)"/>
<path d="M0 0 C3.399 1.133 4.053 2.125 6 5 C5.67 5.66 5.34 6.32 5 7 C3.667 5.667 2.333 4.333 1 3 C-0.65 5.97 -2.3 8.94 -4 12 C-4.66 11.34 -5.32 10.68 -6 10 C-7.65 12.64 -9.3 15.28 -11 18 C-11.33 17.01 -11.66 16.02 -12 15 C-11.074 13.176 -11.074 13.176 -9.688 11.312 C-9.013 10.379 -9.013 10.379 -8.324 9.426 C-7.887 8.955 -7.45 8.485 -7 8 C-6.34 8 -5.68 8 -5 8 C-5 7.01 -5 6.02 -5 5 C-4.34 5 -3.68 5 -3 5 C-3 4.34 -3 3.68 -3 3 C-2.34 3 -1.68 3 -1 3 C-0.67 2.01 -0.34 1.02 0 0 Z " fill="#121212" transform="translate(46,54)"/>
<path d="M0 0 C0.66 0 1.32 0 2 0 C2.66 1.65 3.32 3.3 4 5 C4.66 5 5.32 5 6 5 C6.33 5.99 6.66 6.98 7 8 C6.34 8 5.68 8 5 8 C5 7.34 5 6.68 5 6 C1.648 6.243 0.792 7.22 -1.578 9.723 C-2.478 10.828 -3.369 11.942 -4.25 13.062 C-4.709 13.63 -5.168 14.198 -5.641 14.783 C-6.769 16.182 -7.886 17.59 -9 19 C-9.33 18.34 -9.66 17.68 -10 17 C-9.223 15.273 -9.223 15.273 -8.062 13.375 C-7.042 11.704 -7.042 11.704 -6 10 C-5.34 10 -4.68 10 -4 10 C-4 9.01 -4 8.02 -4 7 C-3.34 7 -2.68 7 -2 7 C-0.624 3.573 -0.624 3.573 0 0 Z " fill="#0F0F0F" transform="translate(33,38)"/>
<path d="M0 0 C0.99 0.33 1.98 0.66 3 1 C3 1.66 3 2.32 3 3 C4.65 3.33 6.3 3.66 8 4 C7.67 4.99 7.34 5.98 7 7 C5.762 6.897 4.525 6.794 3.25 6.688 C1.048 6.61 1.048 6.61 -1 7 C-3.154 9.401 -3.154 9.401 -5 12 C-8.25 12.812 -8.25 12.812 -11 13 C-10.01 12.34 -9.02 11.68 -8 11 C-4.276 7.648 -2.025 4.583 0 0 Z " fill="#000000" transform="translate(172,130)"/>
<path d="M0 0 C0.66 0.33 1.32 0.66 2 1 C1.67 1.66 1.34 2.32 1 3 C0.34 3 -0.32 3 -1 3 C-1.217 3.928 -1.217 3.928 -1.438 4.875 C-2 7 -2 7 -3 9 C-1.68 8.67 -0.36 8.34 1 8 C1 10 1 10 -1.375 12.625 C-4 15 -4 15 -6 15 C-6.99 17.475 -6.99 17.475 -8 20 C-8.715 18.453 -8.715 18.453 -9 16 C-7.946 13.461 -6.86 11.155 -5.562 8.75 C-5.224 8.1 -4.886 7.451 -4.537 6.781 C-3.702 5.182 -2.852 3.59 -2 2 C-1.34 2 -0.68 2 0 2 C0 1.34 0 0.68 0 0 Z " fill="#242424" transform="translate(89,73)"/>
<path d="M0 0 C2 1 2 1 2.852 3.285 C3.107 4.202 3.362 5.118 3.625 6.062 C3.885 6.982 4.146 7.901 4.414 8.848 C4.607 9.558 4.801 10.268 5 11 C5 9.35 5 7.7 5 6 C7.488 8.488 8.308 10.868 9.625 14.125 C10.071 15.221 10.517 16.316 10.977 17.445 C11.314 18.288 11.652 19.131 12 20 C11.34 20 10.68 20 10 20 C10 19.34 10 18.68 10 18 C9.01 17.67 8.02 17.34 7 17 C7 16.34 7 15.68 7 15 C6.34 15 5.68 15 5 15 C2.629 10.037 0.568 5.541 0 0 Z " fill="#2E2E2E" transform="translate(202,5)"/>
<path d="M0 0 C3.125 0.375 3.125 0.375 5.5 2.125 C7.125 4.375 7.125 4.375 7.125 8.375 C6.135 8.705 5.145 9.035 4.125 9.375 C3.795 7.725 3.465 6.075 3.125 4.375 C1.475 4.045 -0.175 3.715 -1.875 3.375 C-2.173 7.151 -2.173 7.151 -0.875 9.375 C-2.195 8.715 -3.515 8.055 -4.875 7.375 C-5 5 -5 5 -4.875 2.375 C-2.875 0.375 -2.875 0.375 0 0 Z " fill="#000000" transform="translate(140.875,214.625)"/>
<path d="M0 0 C2.663 2.058 3.073 3.266 4 6.625 C4.33 7.739 4.66 8.852 5 10 C5.99 10.33 6.98 10.66 8 11 C6.125 15.75 6.125 15.75 5 18 C4.34 18 3.68 18 3 18 C2.876 18.619 2.752 19.238 2.625 19.875 C2 22 2 22 0 24 C0.351 22.742 0.701 21.484 1.062 20.188 C2.584 13.417 1.815 6.656 0 0 Z " fill="#000000" transform="translate(131,126)"/>
<path d="M0 0 C2.164 0.242 2.164 0.242 4.625 0.875 C5.442 1.079 6.26 1.282 7.102 1.492 C8.041 1.744 8.041 1.744 9 2 C8.67 2.66 8.34 3.32 8 4 C8.766 6.019 8.766 6.019 9.938 8.125 C10.508 9.212 10.508 9.212 11.09 10.32 C11.39 10.875 11.691 11.429 12 12 C11.34 12 10.68 12 10 12 C7 7.615 7 7.615 7 5 C3.833 6.833 3.833 6.833 2 10 C2.165 9.196 2.33 8.391 2.5 7.562 C3.032 5.272 3.032 5.272 3 4 C0.525 3.01 0.525 3.01 -2 2 C-1.34 1.34 -0.68 0.68 0 0 Z " fill="#000000" transform="translate(145,192)"/>
<path d="M0 0 C4.875 0.875 4.875 0.875 6 2 C6.041 3.666 6.043 5.334 6 7 C1.446 7.369 1.446 7.369 -0.812 5.5 C-1.204 5.005 -1.596 4.51 -2 4 C-1.34 2.68 -0.68 1.36 0 0 Z " fill="#FFFFFF" transform="translate(139,217)"/>
<path d="M0 0 C0.66 0 1.32 0 2 0 C2 5.61 2 11.22 2 17 C1.34 17 0.68 17 0 17 C0 13.04 0 9.08 0 5 C-1.32 5 -2.64 5 -4 5 C-4 4.34 -4 3.68 -4 3 C-3.01 2.67 -2.02 2.34 -1 2 C-0.67 1.34 -0.34 0.68 0 0 Z " fill="#000000" transform="translate(24,12)"/>
<path d="M0 0 C2.062 0.438 2.062 0.438 4 1 C4 3.31 4 5.62 4 8 C3.01 8.33 2.02 8.66 1 9 C0.34 8.67 -0.32 8.34 -1 8 C-1.042 5.667 -1.041 3.333 -1 1 C-0.67 0.67 -0.34 0.34 0 0 Z " fill="#FFFFFF" transform="translate(265,295)"/>
<path d="M0 0 C2.878 1.29 5.091 2.454 7 5 C7.688 8.188 7.688 8.188 8 11 C7.01 11 6.02 11 5 11 C5 10.01 5 9.02 5 8 C4.34 8 3.68 8 3 8 C3 7.34 3 6.68 3 6 C2.34 6 1.68 6 1 6 C1 5.34 1 4.68 1 4 C0.34 3.67 -0.32 3.34 -1 3 C-0.34 2.67 0.32 2.34 1 2 C0.67 1.34 0.34 0.68 0 0 Z " fill="#4C4C4C" transform="translate(135,96)"/>
<path d="M0 0 C2.062 0.438 2.062 0.438 4 1 C4 3.31 4 5.62 4 8 C3.01 8.33 2.02 8.66 1 9 C0.34 8.67 -0.32 8.34 -1 8 C-1.042 5.667 -1.041 3.333 -1 1 C-0.67 0.67 -0.34 0.34 0 0 Z " fill="#FFFFFF" transform="translate(275,295)"/>
<path d="M0 0 C2.64 0.33 5.28 0.66 8 1 C6.68 1.33 5.36 1.66 4 2 C4 3.65 4 5.3 4 7 C2.35 7.33 0.7 7.66 -1 8 C-1.33 6.02 -1.66 4.04 -2 2 C-1.34 2 -0.68 2 0 2 C0 1.34 0 0.68 0 0 Z " fill="#8F8F8F" transform="translate(93,109)"/>
<path d="M0 0 C2.97 0 5.94 0 9 0 C7.689 4.234 6.056 8.074 4 12 C3.34 12 2.68 12 2 12 C3.002 8.207 3.81 5.285 6 2 C4.02 2 2.04 2 0 2 C0 1.34 0 0.68 0 0 Z " fill="#000000" transform="translate(311,293)"/>
<path d="M0 0 C2.475 0.99 2.475 0.99 5 2 C4.01 2.495 4.01 2.495 3 3 C2.34 2.67 1.68 2.34 1 2 C1 4.64 1 7.28 1 10 C0.42 9.867 -0.16 9.734 -0.758 9.598 C-5.158 8.603 -9.539 7.686 -14 7 C-14 6.67 -14 6.34 -14 6 C-9.176 5.807 -5.504 6.243 -1 8 C-0.67 5.36 -0.34 2.72 0 0 Z " fill="#000000" transform="translate(191,98)"/>
<path d="M0 0 C3.692 0.692 3.692 0.692 5 2 C5.475 9.366 5.475 9.366 3.5 12 C3.005 12.33 2.51 12.66 2 13 C-0.475 12.01 -0.475 12.01 -3 11 C0 10 0 10 2 10 C2.25 6.584 2.25 6.584 2 3 C1.01 2.34 0.02 1.68 -1 1 C-0.67 0.67 -0.34 0.34 0 0 Z " fill="#000000" transform="translate(266,293)"/>
<path d="M0 0 C2.31 0.33 4.62 0.66 7 1 C7.33 1.99 7.66 2.98 8 4 C7.01 5.485 7.01 5.485 6 7 C3.69 6.01 1.38 5.02 -1 4 C-1 3.34 -1 2.68 -1 2 C-0.01 2 0.98 2 2 2 C1.34 1.34 0.68 0.68 0 0 Z " fill="#FFFFFF" transform="translate(177,121)"/>
<path d="M0 0 C1.32 0 2.64 0 4 0 C4 2.64 4 5.28 4 8 C3.01 8.495 3.01 8.495 2 9 C1.34 8.67 0.68 8.34 0 8 C0 5.36 0 2.72 0 0 Z " fill="#FFFFFF" transform="translate(255,295)"/>
<path d="M0 0 C0.835 0.557 0.835 0.557 1.688 1.125 C1.688 1.785 1.688 2.445 1.688 3.125 C2.347 3.455 3.007 3.785 3.688 4.125 C2.698 4.62 2.698 4.62 1.688 5.125 C1.358 6.115 1.028 7.105 0.688 8.125 C-0.773 5.478 -1.312 4.231 -1.312 1.125 C-2.632 1.125 -3.953 1.125 -5.312 1.125 C-5.642 2.445 -5.972 3.765 -6.312 5.125 C-6.642 3.805 -6.972 2.485 -7.312 1.125 C-2.882 -1.09 -2.882 -1.09 0 0 Z " fill="#121212" transform="translate(95.3125,44.875)"/>
<path d="M0 0 C1.642 3.283 0.519 6.425 0 10 C0.66 10 1.32 10 2 10 C2.33 11.32 2.66 12.64 3 14 C-0.092 12.969 -0.899 12.193 -2.438 9.25 C-3.143 5.172 -2.138 3.454 0 0 Z " fill="#000000" transform="translate(146,202)"/>
<path d="M0 0 C4.821 5.786 4.821 5.786 6 9 C5.67 9.99 5.34 10.98 5 12 C2 6.25 2 6.25 2 4 C0.02 3.34 -1.96 2.68 -4 2 C-3.34 1.67 -2.68 1.34 -2 1 C-1.34 1.33 -0.68 1.66 0 2 C0 1.34 0 0.68 0 0 Z " fill="#000000" transform="translate(201,87)"/>
<path d="M0 0 C2.763 0.523 5.326 1.109 8 2 C7.67 2.99 7.34 3.98 7 5 C4.69 4.34 2.38 3.68 0 3 C0 2.01 0 1.02 0 0 Z " fill="#FFFFFF" transform="translate(172,132)"/>
<path d="M0 0 C1.32 0 2.64 0 4 0 C4 1.32 4 2.64 4 4 C2.68 4.33 1.36 4.66 0 5 C-0.562 3.062 -0.562 3.062 -1 1 C-0.67 0.67 -0.34 0.34 0 0 Z " fill="#FFFFFF" transform="translate(285,299)"/>
<path d="M0 0 C0.66 0.33 1.32 0.66 2 1 C-0.31 3.97 -2.62 6.94 -5 10 C-5.33 9.34 -5.66 8.68 -6 8 C-2.588 1.294 -2.588 1.294 0 0 Z " fill="#000000" transform="translate(29,47)"/>
<path d="M0 0 C2.31 0.66 4.62 1.32 7 2 C6.67 2.99 6.34 3.98 6 5 C3.69 4.34 1.38 3.68 -1 3 C-0.67 2.01 -0.34 1.02 0 0 Z " fill="#FFFFFF" transform="translate(175,126)"/>
<path d="M0 0 C0 3.96 0 7.92 0 12 C-0.33 12 -0.66 12 -1 12 C-1 9.36 -1 6.72 -1 4 C-1.99 4 -2.98 4 -4 4 C-4 3.34 -4 2.68 -4 2 C-1 0 -1 0 0 0 Z " fill="#000000" transform="translate(297,293)"/>
<path d="M0 0 C1 2 1 2 0.062 5.125 C-0.288 6.074 -0.639 7.022 -1 8 C-1.66 8 -2.32 8 -3 8 C-2.453 4.625 -1.945 2.918 0 0 Z " fill="#000000" transform="translate(169,116)"/>
<path d="M0 0 C1.32 0 2.64 0 4 0 C3.67 1.65 3.34 3.3 3 5 C2.01 4.67 1.02 4.34 0 4 C0 2.68 0 1.36 0 0 Z " fill="#FFFFFF" transform="translate(304,299)"/>
<path d="M0 0 C-2.262 2.262 -3.97 3.039 -7 4 C-7.99 3.67 -8.98 3.34 -10 3 C-6.488 0.592 -4.273 -0.366 0 0 Z " fill="#FFFFFF" transform="translate(147,194)"/>
<path d="M0 0 C2.31 0.33 4.62 0.66 7 1 C7.33 1.99 7.66 2.98 8 4 C6.68 4 5.36 4 4 4 C4 3.34 4 2.68 4 2 C2.68 1.34 1.36 0.68 0 0 Z " fill="#D4D4D4" transform="translate(177,121)"/>
<path d="M0 0 C3.716 -0.201 4.772 -0.152 8 2 C8 2.66 8 3.32 8 4 C5.333 3.333 2.667 2.667 0 2 C0 1.34 0 0.68 0 0 Z " fill="#FFFFFF" transform="translate(179,118)"/>
<path d="M0 0 C2.31 0.33 4.62 0.66 7 1 C7.33 1.99 7.66 2.98 8 4 C3.545 3.01 3.545 3.01 -1 2 C-0.67 1.34 -0.34 0.68 0 0 Z " fill="#FFFFFF" transform="translate(180,115)"/>
<path d="M0 0 C0.33 0.66 0.66 1.32 1 2 C2.32 2 3.64 2 5 2 C5.33 2.99 5.66 3.98 6 5 C4.68 5.99 3.36 6.98 2 8 C2 6.35 2 4.7 2 3 C1.34 3 0.68 3 0 3 C0 2.01 0 1.02 0 0 Z " fill="#000000" transform="translate(152,90)"/>
</svg>
