<?xml version="1.0" encoding="UTF-8"?>
<!-- Generator: visioncortex VTracer 0.6.4 -->
<svg version="1.1" xmlns="http://www.w3.org/2000/svg" width="338" height="287">
<path d="M0 0 C111.54 0 223.08 0 338 0 C338 94.71 338 189.42 338 287 C226.46 287 114.92 287 0 287 C0 192.29 0 97.58 0 0 Z " fill="#FFFFFF" transform="translate(0,0)"/>
<path d="M0 0 C1.322 0.701 2.635 1.418 3.941 2.148 C4.667 2.545 5.393 2.941 6.141 3.349 C12.469 6.849 18.687 10.539 24.879 14.273 C25.87 14.871 26.861 15.469 27.882 16.084 C32.374 18.835 36.738 21.617 40.895 24.855 C54.327 35.219 69.225 39.72 85.124 44.999 C94.005 47.976 102.694 51.399 111.379 54.898 C112.088 55.182 112.797 55.465 113.528 55.756 C149.108 69.968 149.108 69.968 153.773 76.227 C154.828 79.543 154.614 82.663 154.379 86.086 C154.327 86.859 154.276 87.632 154.223 88.428 C152.493 111.14 150.01 136.56 134.504 154.523 C133.85 155.334 133.197 156.145 132.523 156.98 C127.876 162.491 122.809 166.753 117.023 170.973 C114.049 173.182 111.798 175.123 109.941 178.336 C107.355 182.521 103.363 183.373 98.918 185.039 C95.108 186.696 91.907 188.73 88.504 191.086 C74.475 200.743 59.866 209.181 44.504 216.523 C43.761 216.944 43.019 217.364 42.254 217.797 C40.504 218.523 40.504 218.523 37.504 217.523 C42.82 214.083 48.231 211.065 53.879 208.211 C67.698 201.093 81.22 192.893 94.055 184.125 C96.776 182.345 99.387 181.414 102.504 180.523 C101.844 180.193 101.184 179.863 100.504 179.523 C100.504 177.873 100.504 176.223 100.504 174.523 C101.164 174.193 101.824 173.863 102.504 173.523 C102.834 174.843 103.164 176.163 103.504 177.523 C108.004 173.773 109.693 170.144 111.609 164.633 C112.504 162.523 112.504 162.523 114.504 161.523 C113.514 164.823 112.524 168.123 111.504 171.523 C112.263 170.885 113.022 170.247 113.805 169.59 C115.295 168.35 115.295 168.35 116.816 167.086 C117.803 166.262 118.789 165.439 119.805 164.59 C122.504 162.523 122.504 162.523 125.504 161.523 C125.504 160.863 125.504 160.203 125.504 159.523 C126.668 158.359 127.835 157.198 129.016 156.051 C139.466 145.326 143.728 131.623 147.504 117.523 C146.88 118.147 146.256 118.771 145.613 119.414 C143.059 121.969 143.059 121.969 140.504 124.523 C139.514 124.193 138.524 123.863 137.504 123.523 C136.62 126.752 136.151 129.96 135.691 133.273 C133.85 144.405 128.27 151.592 119.504 158.523 C118.844 158.193 118.184 157.863 117.504 157.523 C118.168 156.918 118.832 156.312 119.516 155.688 C126.117 149.424 132.005 143.314 132.816 133.898 C132.713 133.115 132.61 132.331 132.504 131.523 C129.014 133.744 127.852 135.499 126.566 139.398 C124.925 143.828 123.155 146.42 119.504 149.523 C118.741 150.287 117.978 151.05 117.191 151.836 C116.635 152.393 116.078 152.95 115.504 153.523 C114.844 153.193 114.184 152.863 113.504 152.523 C114.047 152.016 114.589 151.508 115.148 150.984 C119.215 147.072 122.399 143.786 124.504 138.523 C123.843 138.982 123.843 138.982 123.168 139.449 C89.239 162.523 89.239 162.523 82.504 162.523 C82.834 165.493 83.164 168.463 83.504 171.523 C88.124 169.213 92.744 166.903 97.504 164.523 C96.29 168.165 95.414 168.441 92.129 170.211 C91.337 170.648 90.546 171.085 89.73 171.535 C87.504 172.523 87.504 172.523 84.504 172.523 C84.834 173.513 85.164 174.503 85.504 175.523 C90.35 174.932 94.111 173.544 98.504 171.523 C98.504 172.183 98.504 172.843 98.504 173.523 C93.113 177.117 89.967 177.977 83.504 177.523 C81.747 172.55 80.178 167.782 79.504 162.523 C78.184 162.523 76.864 162.523 75.504 162.523 C75.906 164.101 75.906 164.101 76.316 165.711 C76.504 169.523 76.504 169.523 74.605 171.996 C70.981 175.33 66.584 176.965 62.066 178.773 C61.233 179.124 60.4 179.475 59.541 179.836 C55.205 181.618 51.202 183.004 46.504 183.523 C48.68 180.26 49.431 179.883 52.934 178.516 C53.811 178.169 54.689 177.822 55.594 177.465 C56.513 177.113 57.432 176.761 58.379 176.398 C59.29 176.039 60.202 175.679 61.141 175.309 C64.902 173.838 68.561 172.427 72.504 171.523 C73.649 167.419 73.313 165.008 71.879 161.023 C71.51 159.987 71.142 158.951 70.762 157.883 C68.714 152.414 66.642 146.957 64.504 141.523 C60.196 142.261 56.132 143.559 52.004 144.961 C51.353 145.178 50.702 145.395 50.031 145.619 C46.475 146.815 42.971 148.09 39.504 149.523 C39.467 150.218 39.429 150.913 39.391 151.629 C38.912 159.035 38.074 166.359 37.066 173.711 C36.883 175.11 36.883 175.11 36.696 176.538 C36.572 177.414 36.448 178.289 36.32 179.191 C36.211 179.978 36.103 180.765 35.99 181.575 C35.504 183.523 35.504 183.523 33.504 185.523 C33.901 177.243 34.744 169.098 35.941 160.898 C36.064 160.034 36.186 159.169 36.312 158.278 C36.436 157.459 36.56 156.641 36.688 155.797 C36.796 155.069 36.905 154.341 37.017 153.591 C37.546 151.347 38.399 149.54 39.504 147.523 C38.844 146.863 38.184 146.203 37.504 145.523 C45.094 142.883 52.684 140.243 60.504 137.523 C53.179 133.861 45.513 135.318 37.742 137.078 C34.968 137.63 32.323 137.672 29.504 137.523 C30.504 135.523 30.504 135.523 32.235 134.913 C34.676 134.374 37.118 133.843 39.566 133.336 C40.401 133.146 41.236 132.956 42.096 132.76 C50.172 131.054 56.11 131.474 63.504 135.523 C86.884 135.523 121.889 107.551 138.504 92.523 C139.87 90.883 141.212 89.222 142.504 87.523 C141.763 87.052 141.763 87.052 141.008 86.57 C140.367 86.142 139.726 85.714 139.066 85.273 C138.428 84.856 137.79 84.438 137.133 84.008 C135.116 82.17 134.849 81.21 134.504 78.523 C134.437 76.608 134.419 74.69 134.441 72.773 C134.45 71.789 134.459 70.804 134.469 69.789 C134.486 68.668 134.486 68.668 134.504 67.523 C133.246 67.132 131.988 66.74 130.691 66.336 C127.15 65.16 123.808 63.787 120.434 62.195 C114.538 59.486 108.531 57.193 102.441 54.961 C90.881 50.695 90.881 50.695 85.266 48.418 C81.018 46.703 76.735 45.187 72.379 43.773 C71.373 43.443 71.373 43.443 70.348 43.105 C68.734 42.575 67.119 42.049 65.504 41.523 C66.565 42.441 67.628 43.358 68.691 44.273 C69.283 44.784 69.875 45.294 70.484 45.82 C71.151 46.382 71.817 46.944 72.504 47.523 C73.228 48.155 73.953 48.787 74.699 49.438 C78.325 52.134 82.173 54.101 86.191 56.148 C94.244 60.318 102.204 64.622 110.105 69.07 C113.098 70.753 116.113 72.381 119.152 73.977 C119.895 74.374 120.637 74.77 121.402 75.179 C122.808 75.931 124.222 76.67 125.643 77.393 C130.296 79.909 130.296 79.909 131.438 83.285 C131.459 84.024 131.481 84.762 131.504 85.523 C121.853 92.126 112.03 98.266 101.911 104.123 C98.322 106.211 94.752 108.332 91.181 110.451 C88.358 112.124 85.529 113.787 82.699 115.449 C79.544 117.305 76.413 119.19 73.309 121.129 C72.688 121.508 72.066 121.887 71.427 122.277 C69.834 123.249 68.252 124.239 66.672 125.23 C59.873 128.005 53.036 126.48 46.23 124.391 C45.451 124.163 44.672 123.935 43.869 123.7 C42.178 123.204 40.488 122.703 38.8 122.198 C34.102 120.792 29.392 119.429 24.684 118.059 C23.689 117.768 22.695 117.477 21.671 117.178 C10.566 113.94 -0.587 110.882 -11.746 107.836 C-13.839 107.264 -15.932 106.692 -18.025 106.12 C-21.293 105.227 -24.562 104.334 -27.83 103.442 C-36.305 101.127 -44.775 98.794 -53.244 96.456 C-57.546 95.268 -61.849 94.083 -66.152 92.897 C-69.665 91.93 -73.177 90.96 -76.689 89.988 C-80.602 88.905 -84.518 87.827 -88.434 86.75 C-89.612 86.423 -90.791 86.095 -92.006 85.758 C-93.084 85.462 -94.162 85.166 -95.273 84.862 C-96.685 84.472 -96.685 84.472 -98.125 84.075 C-100.577 83.41 -100.577 83.41 -103.496 83.523 C-102.176 84.183 -100.856 84.843 -99.496 85.523 C-99.826 86.513 -100.156 87.503 -100.496 88.523 C-103.931 87.926 -106.938 87.048 -110.141 85.676 C-111.402 85.139 -111.402 85.139 -112.689 84.592 C-113.554 84.219 -114.418 83.845 -115.309 83.461 C-116.192 83.084 -117.076 82.707 -117.986 82.318 C-120.158 81.391 -122.328 80.459 -124.496 79.523 C-124.733 83.958 -124.348 87.459 -122.496 91.523 C-118.223 94.656 -113.667 96.57 -108.779 98.562 C-104.99 100.158 -101.348 102.036 -97.684 103.898 C-97.009 104.233 -96.334 104.567 -95.638 104.911 C-92.796 106.321 -90.14 107.761 -87.496 109.523 C-87.156 111.586 -87.156 111.586 -87.203 114.094 C-87.218 115.438 -87.218 115.438 -87.232 116.809 C-87.258 117.746 -87.283 118.683 -87.309 119.648 C-87.329 121.066 -87.329 121.066 -87.35 122.512 C-87.385 124.85 -87.434 127.186 -87.496 129.523 C-85.124 130.821 -82.749 132.112 -80.371 133.398 C-79.706 133.763 -79.041 134.128 -78.355 134.504 C-74.512 136.576 -70.785 138.553 -66.496 139.523 C-65.065 138.359 -63.643 137.179 -62.305 135.91 C-56.217 131.243 -47.869 131.013 -40.555 131.879 C-32.939 133.484 -25.656 136.764 -19.496 141.523 C-18.897 141.957 -18.297 142.39 -17.68 142.836 C-9.7 149.082 -3.907 158.32 -0.621 167.836 C2.745 175.269 12.626 177.795 19.726 180.629 C21.504 181.523 21.504 181.523 22.504 183.523 C17.951 182.905 14.219 181.056 10.191 178.961 C9.546 178.632 8.901 178.302 8.236 177.963 C6.656 177.155 5.08 176.34 3.504 175.523 C6.519 184.849 9.527 194.08 13.523 203.043 C14.508 205.533 15.064 207.888 15.504 210.523 C12.2 207.86 11.036 204.372 9.586 200.52 C9.324 199.84 9.062 199.161 8.792 198.462 C8.241 197.03 7.694 195.597 7.151 194.162 C6.317 191.962 5.471 189.767 4.623 187.572 C4.089 186.18 3.556 184.787 3.023 183.395 C2.77 182.736 2.517 182.078 2.257 181.4 C0.504 176.756 0.504 176.756 0.504 174.523 C-0.486 174.193 -1.476 173.863 -2.496 173.523 C-2.166 172.533 -1.836 171.543 -1.496 170.523 C-2.591 167.996 -3.731 165.674 -5.059 163.273 C-5.423 162.599 -5.788 161.925 -6.164 161.23 C-8.807 156.462 -11.778 152.521 -15.496 148.523 C-15.496 147.863 -15.496 147.203 -15.496 146.523 C-16.075 146.253 -16.654 145.982 -17.25 145.703 C-19.5 144.521 -21.394 143.16 -23.434 141.648 C-31.177 136.444 -41.105 133.073 -50.496 134.523 C-55.503 135.742 -60.341 137.407 -64.496 140.523 C-64.826 141.513 -65.156 142.503 -65.496 143.523 C-64.568 142.884 -63.64 142.245 -62.684 141.586 C-57.974 138.539 -54.831 138.41 -49.309 138.461 C-48.036 138.47 -46.764 138.479 -45.453 138.488 C-43.989 138.506 -43.989 138.506 -42.496 138.523 C-42.166 139.183 -41.836 139.843 -41.496 140.523 C-45.456 140.523 -49.416 140.523 -53.496 140.523 C-53.826 141.513 -54.156 142.503 -54.496 143.523 C-56.479 144.556 -58.48 145.557 -60.496 146.523 C-60.826 147.183 -61.156 147.843 -61.496 148.523 C-63.934 147.773 -63.934 147.773 -66.496 146.523 C-66.829 145.19 -67.163 143.857 -67.496 142.523 C-69.144 141.812 -70.817 141.159 -72.496 140.523 C-75.249 139.217 -77.965 137.836 -80.684 136.461 C-81.407 136.097 -82.131 135.733 -82.877 135.357 C-84.751 134.414 -86.624 133.469 -88.496 132.523 C-89.156 132.193 -89.816 131.863 -90.496 131.523 C-90.991 121.128 -90.991 121.128 -91.496 110.523 C-93.785 109.389 -96.075 108.255 -98.434 107.086 C-99.894 106.351 -101.354 105.614 -102.812 104.875 C-105.949 103.29 -109.103 101.75 -112.273 100.234 C-113.806 99.477 -115.339 98.72 -116.871 97.961 C-117.602 97.622 -118.333 97.283 -119.086 96.934 C-122.863 95.027 -124.222 94.16 -125.949 90.145 C-127.299 81.205 -127.981 72.164 -122.496 64.523 C-119.106 60.823 -115.541 57.357 -111.906 53.9 C-110.076 52.113 -108.403 50.221 -106.746 48.273 C-104.348 45.483 -101.909 42.751 -99.371 40.086 C-98.75 39.427 -98.128 38.769 -97.488 38.09 C-95.162 36.261 -93.403 35.88 -90.496 35.523 C-90.496 34.863 -90.496 34.203 -90.496 33.523 C-86.679 32.149 -83.424 32.844 -79.496 33.523 C-79.496 34.183 -79.496 34.843 -79.496 35.523 C-78.369 35.569 -77.243 35.614 -76.082 35.66 C-69.714 36.449 -64.872 40.399 -59.738 44.014 C-55.313 46.898 -55.313 46.898 -50.212 47.209 C-47.516 46.166 -45.048 44.883 -42.496 43.523 C-40.667 42.689 -38.837 41.855 -37.003 41.031 C-34.326 39.814 -31.68 38.536 -29.034 37.252 C-27.667 36.596 -26.293 35.95 -24.915 35.316 C-17.003 32.048 -17.003 32.048 -11.148 26.256 C-10.457 23.852 -10.457 23.852 -10.496 20.523 C-13.796 20.523 -17.096 20.523 -20.496 20.523 C-19.003 15.298 -17.44 10.124 -15.559 5.023 C-15.261 4.209 -14.963 3.394 -14.656 2.555 C-11.429 -3.097 -5.288 -2.233 0 0 Z " fill="#0F0F0F" transform="translate(155.49609375,39.4765625)"/>
<path d="M0 0 C5.683 1.356 11.213 2.953 16.75 4.812 C17.943 5.212 17.943 5.212 19.159 5.62 C24.36 7.386 29.432 9.335 34.473 11.52 C37.466 12.776 40.468 13.968 43.496 15.137 C44.501 15.525 45.507 15.913 46.542 16.313 C48.545 17.084 50.548 17.851 52.553 18.615 C55.385 19.707 58.194 20.844 61 22 C61.955 22.373 62.911 22.746 63.895 23.131 C66.488 24.248 68.739 25.308 71 27 C72.168 30.594 72.168 30.594 72.188 34.5 C72.337 39.635 72.337 39.635 74.652 44.09 C76.775 45.62 76.775 45.62 80 47 C76.529 51.423 72.961 54.908 68.5 58.312 C67.885 58.787 67.269 59.261 66.635 59.75 C20.547 95 20.547 95 2 95 C1.67 95.66 1.34 96.32 1 97 C0.196 96.319 0.196 96.319 -0.625 95.625 C-6.393 91.679 -11.333 91.824 -18 93 C-23.011 93.95 -28.008 94.954 -33 96 C-31.437 95.857 -29.875 95.711 -28.312 95.562 C-27.442 95.481 -26.572 95.4 -25.676 95.316 C-23.019 95.043 -23.019 95.043 -20.512 94.477 C-17.796 93.961 -15.263 93.832 -12.5 93.812 C-11.582 93.798 -10.664 93.784 -9.719 93.77 C-6.804 94.017 -4.646 94.787 -2 96 C-3.362 98.724 -4.623 98.759 -7.473 99.727 C-8.372 100.036 -9.271 100.345 -10.197 100.664 C-11.143 100.981 -12.088 101.298 -13.062 101.625 C-14.012 101.95 -14.961 102.275 -15.939 102.609 C-18.291 103.413 -20.644 104.209 -23 105 C-22.67 105.66 -22.34 106.32 -22 107 C-22.99 107.495 -22.99 107.495 -24 108 C-27.3 119.303 -27.993 131.326 -29 143 C-28.884 142.148 -28.768 141.295 -28.649 140.417 C-28.216 137.239 -27.781 134.062 -27.346 130.885 C-27.158 129.512 -26.971 128.14 -26.784 126.767 C-26.515 124.789 -26.244 122.81 -25.973 120.832 C-25.81 119.643 -25.648 118.455 -25.481 117.23 C-25.243 115.631 -25.243 115.631 -25 114 C-24.821 112.613 -24.821 112.613 -24.638 111.198 C-24 109 -24 109 -20.812 107 C-19.223 106.299 -17.616 105.638 -16 105 C-14.844 104.54 -13.687 104.08 -12.496 103.605 C-1.6 99.448 -1.6 99.448 2 101 C3.173 102.946 3.173 102.946 4.105 105.48 C4.449 106.398 4.793 107.315 5.146 108.26 C5.49 109.226 5.834 110.192 6.188 111.188 C6.543 112.134 6.898 113.081 7.264 114.057 C10.983 124.169 10.983 124.169 11 128 C8.048 132.651 2.417 134.175 -2.5 136.125 C-4.198 136.814 -5.896 137.504 -7.594 138.195 C-8.343 138.495 -9.093 138.794 -9.865 139.102 C-11.961 139.984 -13.979 140.96 -16 142 C-9.6 140.385 -3.555 138.098 2.5 135.5 C3.206 135.203 3.913 134.907 4.641 134.601 C8.143 133.068 9.832 132.251 12 129 C12.079 126.668 12.088 124.332 12 122 C13.32 121.67 14.64 121.34 16 121 C17.451 125.976 18.764 130.966 20 136 C25.394 136.274 28.519 136.361 33 133 C32.299 133.309 31.597 133.619 30.875 133.938 C27.911 135.033 25.123 135.564 22 136 C21.67 134.68 21.34 133.36 21 132 C24.96 130.02 28.92 128.04 33 126 C29.76 126.81 28.086 127.397 25.375 129.062 C22 131 22 131 20 131 C19.67 128.03 19.34 125.06 19 122 C19.609 121.673 20.218 121.346 20.845 121.01 C41.123 110.117 41.123 110.117 60 97 C60.66 97.33 61.32 97.66 62 98 C59.107 103.671 55.666 107.688 51 112 C52.176 111.01 52.176 111.01 53.375 110 C56 108 56 108 58 108 C59.14 105.799 60.165 103.601 61.113 101.309 C61.509 100.361 61.905 99.414 62.312 98.438 C62.895 97.012 62.895 97.012 63.488 95.559 C65.252 92.573 66.931 91.527 70 90 C70.727 96.687 68.725 101.457 65 107 C61.842 110.534 58.5 113.806 55 117 C56.176 116.01 56.176 116.01 57.375 115 C60 113 60 113 62 113 C62.34 112.227 62.34 112.227 62.688 111.438 C63.833 109.311 65.042 107.597 66.5 105.688 C70.793 99.715 71.252 93.519 71.559 86.355 C71.704 85.578 71.85 84.801 72 84 C75 82 75 82 77.188 82.375 C77.786 82.581 78.384 82.787 79 83 C79.248 82.257 79.495 81.515 79.75 80.75 C81.091 77.799 82.609 76.152 85 74 C82.684 90.935 76.049 106.664 64 119 C63.34 119 62.68 119 62 119 C62 119.66 62 120.32 62 121 C60.287 122.585 58.503 124.095 56.688 125.562 C55.701 126.368 54.715 127.174 53.699 128.004 C51 130 51 130 48 131 C48.66 128.03 49.32 125.06 50 122 C49.697 122.82 49.394 123.64 49.082 124.484 C48.663 125.562 48.244 126.64 47.812 127.75 C47.406 128.817 47 129.885 46.582 130.984 C44.84 134.306 43.057 135.884 40 138 C39.34 136.68 38.68 135.36 38 134 C37.67 135.65 37.34 137.3 37 139 C38.32 139.33 39.64 139.66 41 140 C40.475 140.161 39.951 140.322 39.41 140.488 C33.478 142.571 28.456 145.486 23.25 148.938 C9.316 158.174 -5.06 166.745 -19.986 174.286 C-23.628 175.953 -23.628 175.953 -26 179 C-36.079 181.16 -44.291 178.168 -53 173 C-55.25 171.188 -55.25 171.188 -57 169 C-57.405 168.551 -57.811 168.103 -58.229 167.641 C-64.079 160.662 -66.931 152.175 -70.25 143.812 C-70.879 142.253 -71.509 140.694 -72.141 139.135 C-73.774 135.095 -75.389 131.049 -77 127 C-77.666 125.333 -78.333 123.666 -79 122 C-79.66 122 -80.32 122 -81 122 C-82.048 120.854 -83.038 119.656 -84 118.438 C-91.872 109.248 -102.142 103.647 -114.188 102.25 C-115.446 102.168 -116.704 102.085 -118 102 C-118 101.01 -118 100.02 -118 99 C-121.072 99 -123.296 100.62 -126 102 C-126.99 102.33 -127.98 102.66 -129 103 C-128.766 101.168 -128.766 101.168 -128 99 C-126.109 97.551 -126.109 97.551 -123.75 96.312 C-122.982 95.896 -122.213 95.48 -121.422 95.051 C-112.63 91.236 -103.967 92.817 -95.156 95.73 C-88.346 98.47 -82.908 102.561 -78 108 C-77.554 108.442 -77.108 108.884 -76.648 109.34 C-72.824 113.358 -70.199 117.909 -67.562 122.75 C-67.196 123.412 -66.83 124.075 -66.452 124.757 C-65.551 126.463 -64.767 128.23 -64 130 C-64.33 130.99 -64.66 131.98 -65 133 C-64.57 133.34 -64.139 133.68 -63.696 134.031 C-61.274 136.843 -60.167 140.086 -58.863 143.512 C-58.579 144.24 -58.295 144.968 -58.002 145.718 C-57.098 148.039 -56.205 150.363 -55.312 152.688 C-54.701 154.264 -54.088 155.84 -53.475 157.416 C-51.975 161.274 -50.485 165.136 -49 169 C-49.774 166.633 -50.552 164.267 -51.332 161.902 C-51.548 161.241 -51.764 160.579 -51.986 159.898 C-53.684 154.766 -55.681 149.816 -57.887 144.879 C-59.271 141.3 -60.125 137.736 -61 134 C-60.243 134.364 -60.243 134.364 -59.471 134.734 C-57.191 135.827 -54.908 136.914 -52.625 138 C-51.434 138.572 -51.434 138.572 -50.219 139.156 C-49.458 139.517 -48.698 139.878 -47.914 140.25 C-47.212 140.585 -46.511 140.92 -45.788 141.266 C-44.014 142.127 -44.014 142.127 -42 142 C-42.56 141.748 -43.12 141.497 -43.697 141.237 C-46.24 140.086 -48.776 138.918 -51.312 137.75 C-52.194 137.354 -53.075 136.959 -53.982 136.551 C-55.254 135.961 -55.254 135.961 -56.551 135.359 C-57.331 135.003 -58.111 134.647 -58.915 134.28 C-63.39 131.532 -65.033 126.99 -67.188 122.375 C-74.031 108.294 -83.374 99.582 -98 94 C-107.325 90.823 -116.254 91.725 -125.125 95.867 C-127.069 97.041 -128.472 98.329 -130 100 C-135.261 98.49 -139.674 96.095 -144.375 93.375 C-146.891 91.931 -149.407 90.488 -152 89 C-152 82.4 -152 75.8 -152 69 C-155.496 67.267 -155.496 67.267 -159.062 65.5 C-166.072 62.01 -172.997 58.378 -179.891 54.664 C-181.694 53.699 -183.516 52.763 -185.375 51.91 C-187 51 -187 51 -187.75 48.812 C-188.042 45.528 -188.065 42.296 -188 39 C-181.645 41.012 -175.597 43.402 -169.504 46.109 C-168.264 46.55 -168.264 46.55 -167 47 C-165.053 46.158 -165.053 46.158 -164 45 C-166.64 44.01 -169.28 43.02 -172 42 C-167.738 40.934 -166.326 41.195 -162.207 42.32 C-161.036 42.635 -159.866 42.949 -158.66 43.273 C-156.755 43.801 -156.755 43.801 -154.812 44.34 C-153.473 44.704 -152.133 45.067 -150.793 45.43 C-147.244 46.393 -143.698 47.368 -140.153 48.346 C-137.347 49.117 -134.54 49.88 -131.732 50.642 C-116.56 54.763 -101.425 58.998 -86.315 63.34 C-78.442 65.599 -70.554 67.759 -62.625 69.812 C-54.031 72.058 -45.488 74.42 -36.973 76.949 C-36.119 77.202 -35.264 77.454 -34.384 77.715 C-30.177 78.959 -25.975 80.217 -21.778 81.495 C-20.231 81.956 -18.684 82.416 -17.137 82.875 C-16.102 83.198 -16.102 83.198 -15.047 83.527 C-9.091 85.273 -3.136 86.117 2.816 83.997 C3.605 83.529 4.394 83.061 5.207 82.578 C6.113 82.053 7.019 81.528 7.953 80.988 C8.897 80.414 9.84 79.841 10.812 79.25 C11.812 78.663 12.812 78.076 13.842 77.471 C16.906 75.666 19.953 73.835 23 72 C24.793 70.937 26.588 69.876 28.383 68.816 C38.067 63.077 47.678 57.206 57.162 51.141 C58.499 50.311 59.858 49.517 61.229 48.746 C61.963 48.323 62.697 47.9 63.453 47.465 C64.13 47.088 64.807 46.712 65.505 46.324 C65.998 45.887 66.492 45.45 67 45 C67 43.68 67 42.36 67 41 C64.712 39.159 64.712 39.159 61.688 37.625 C60.579 37.015 59.47 36.406 58.328 35.777 C57.23 35.191 56.132 34.604 55 34 C54.149 33.527 53.298 33.054 52.422 32.566 C47.38 29.768 42.276 27.094 37.166 24.423 C33.104 22.296 29.049 20.153 25 18 C24.324 17.641 23.648 17.282 22.952 16.913 C14.581 12.429 6.97 7.501 0 1 C0 0.67 0 0.34 0 0 Z " fill="#1B1B1B" transform="translate(219,80)"/>
<path d="M0 0 C5.683 1.356 11.213 2.953 16.75 4.812 C17.943 5.212 17.943 5.212 19.159 5.62 C24.36 7.386 29.432 9.335 34.473 11.52 C37.466 12.776 40.468 13.968 43.496 15.137 C44.501 15.525 45.507 15.913 46.542 16.313 C48.545 17.084 50.548 17.851 52.553 18.615 C55.385 19.707 58.194 20.844 61 22 C61.955 22.373 62.911 22.746 63.895 23.131 C66.488 24.248 68.739 25.308 71 27 C72.168 30.594 72.168 30.594 72.188 34.5 C72.337 39.635 72.337 39.635 74.652 44.09 C76.775 45.62 76.775 45.62 80 47 C76.529 51.423 72.961 54.908 68.5 58.312 C67.885 58.787 67.269 59.261 66.635 59.75 C20.547 95 20.547 95 2 95 C1.67 95.66 1.34 96.32 1 97 C0.196 96.319 0.196 96.319 -0.625 95.625 C-7.283 91.069 -13.084 92.1 -20.602 93.477 C-24.222 94.2 -27.837 94.943 -31.447 95.715 C-39.312 97.303 -44.162 96.637 -51.438 93.062 C-59.015 89.406 -66.709 86.049 -74.439 82.729 C-79.444 80.571 -84.412 78.355 -89.352 76.051 C-96.077 72.931 -102.892 70.065 -109.75 67.25 C-111.01 66.73 -112.271 66.211 -113.531 65.691 C-122.838 61.86 -132.173 58.098 -141.528 54.386 C-147.449 52.035 -153.341 49.624 -159.216 47.159 C-163.458 45.393 -167.727 43.692 -172 42 C-168.345 40.7 -165.901 41.312 -162.207 42.32 C-161.036 42.635 -159.866 42.949 -158.66 43.273 C-156.755 43.801 -156.755 43.801 -154.812 44.34 C-153.473 44.704 -152.133 45.067 -150.793 45.43 C-147.244 46.393 -143.698 47.368 -140.153 48.346 C-137.347 49.117 -134.54 49.88 -131.732 50.642 C-116.56 54.763 -101.425 58.998 -86.315 63.34 C-78.442 65.599 -70.554 67.759 -62.625 69.812 C-54.031 72.058 -45.488 74.42 -36.973 76.949 C-36.119 77.202 -35.264 77.454 -34.384 77.715 C-30.177 78.959 -25.975 80.217 -21.778 81.495 C-20.231 81.956 -18.684 82.416 -17.137 82.875 C-16.102 83.198 -16.102 83.198 -15.047 83.527 C-9.091 85.273 -3.136 86.117 2.816 83.997 C3.605 83.529 4.394 83.061 5.207 82.578 C6.113 82.053 7.019 81.528 7.953 80.988 C8.897 80.414 9.84 79.841 10.812 79.25 C11.812 78.663 12.812 78.076 13.842 77.471 C16.906 75.666 19.953 73.835 23 72 C24.793 70.937 26.588 69.876 28.383 68.816 C38.067 63.077 47.678 57.206 57.162 51.141 C58.499 50.311 59.858 49.517 61.229 48.746 C61.963 48.323 62.697 47.9 63.453 47.465 C64.13 47.088 64.807 46.712 65.505 46.324 C65.998 45.887 66.492 45.45 67 45 C67 43.68 67 42.36 67 41 C64.712 39.159 64.712 39.159 61.688 37.625 C60.579 37.015 59.47 36.406 58.328 35.777 C57.23 35.191 56.132 34.604 55 34 C54.149 33.527 53.298 33.054 52.422 32.566 C47.38 29.768 42.276 27.094 37.166 24.423 C33.104 22.296 29.049 20.153 25 18 C24.324 17.641 23.648 17.282 22.952 16.913 C14.581 12.429 6.97 7.501 0 1 C0 0.67 0 0.34 0 0 Z " fill="#FFFFFF" transform="translate(219,80)"/>
<path d="M0 0 C6.24 1.996 12.32 4.251 18.375 6.75 C19.289 7.126 20.203 7.501 21.145 7.888 C43.752 17.232 66.393 26.718 88.574 37.039 C94.959 40.008 101.418 42.787 107.891 45.553 C118.167 49.949 128.346 54.439 138.262 59.609 C140.984 61.077 140.984 61.077 144 62 C144.578 66.231 145.147 70.462 145.709 74.695 C145.901 76.131 146.095 77.566 146.291 79.001 C147.389 87.036 148.255 94.868 148 103 C127.102 96.272 127.102 96.272 122.075 86.867 C120.664 83.925 119.309 80.961 117.969 77.987 C112.253 66.268 101.799 59.503 90 55 C80.675 51.823 71.746 52.725 62.875 56.867 C60.931 58.041 59.528 59.329 58 61 C52.739 59.49 48.326 57.095 43.625 54.375 C39.851 52.209 39.851 52.209 36 50 C36 43.4 36 36.8 36 30 C33.669 28.845 31.339 27.69 28.938 26.5 C21.928 23.01 15.003 19.378 8.109 15.664 C6.306 14.699 4.484 13.763 2.625 12.91 C1 12 1 12 0.25 9.812 C-0.042 6.528 -0.065 3.296 0 0 Z " fill="#FFFFFF" transform="translate(31,119)"/>
<path d="M0 0 C17.248 8.201 33.277 18.19 49 29 C49.7 29.481 50.401 29.962 51.123 30.458 C84.097 53.202 84.097 53.202 86.742 61.262 C86.87 62.122 86.87 62.122 87 63 C87.201 59.284 87.152 58.228 85 55 C90.859 56.637 95.901 59.505 101.188 62.438 C102.145 62.967 103.102 63.496 104.088 64.041 C106.073 65.141 108.056 66.245 110.038 67.351 C112.907 68.948 115.787 70.523 118.668 72.098 C120.404 73.064 122.14 74.031 123.875 75 C124.695 75.444 125.515 75.888 126.36 76.345 C127.105 76.768 127.85 77.19 128.617 77.625 C129.273 77.989 129.929 78.352 130.605 78.727 C131.065 79.147 131.526 79.567 132 80 C132 81.32 132 82.64 132 84 C130.204 85.691 130.204 85.691 127.695 87.34 C126.778 87.946 125.86 88.551 124.915 89.175 C120.29 92.071 115.609 94.849 110.875 97.562 C108.767 98.781 106.659 100 104.551 101.219 C102.937 102.149 102.937 102.149 101.292 103.098 C94.881 106.803 88.496 110.552 82.107 114.293 C80.267 115.368 78.423 116.436 76.575 117.497 C74.893 118.478 73.231 119.494 71.593 120.546 C67.328 123.195 64.393 124.699 59.221 123.609 C58.488 123.408 57.755 123.207 57 123 C56.114 122.772 55.227 122.544 54.314 122.309 C51.09 121.441 47.89 120.508 44.688 119.562 C42.829 119.023 40.97 118.484 39.111 117.945 C37.122 117.368 35.133 116.788 33.145 116.208 C26.695 114.327 20.239 112.47 13.78 110.619 C11.74 110.033 9.702 109.444 7.663 108.854 C-3.5 105.639 -14.722 102.655 -25.949 99.673 C-26.605 99.499 -27.26 99.325 -27.936 99.146 C-28.929 98.882 -28.929 98.882 -29.943 98.613 C-37.279 96.663 -44.609 94.688 -51.938 92.711 C-52.598 92.533 -53.259 92.355 -53.939 92.171 C-57.283 91.269 -60.627 90.366 -63.971 89.463 C-67.35 88.551 -70.728 87.639 -74.107 86.727 C-89.745 82.508 -105.377 78.273 -121 74 C-120.34 71.69 -119.68 69.38 -119 67 C-111.451 68.368 -104.132 70.269 -96.762 72.387 C-95.587 72.721 -94.412 73.055 -93.201 73.399 C-90.675 74.118 -88.15 74.839 -85.625 75.562 C-81.643 76.701 -77.66 77.833 -73.676 78.965 C-61.561 82.408 -49.451 85.867 -37.348 89.35 C-32.506 90.742 -27.663 92.128 -22.819 93.512 C-20.539 94.166 -18.26 94.823 -15.983 95.483 C-12.811 96.403 -9.636 97.312 -6.461 98.219 C-5.544 98.488 -4.626 98.757 -3.681 99.034 C4.353 101.308 12.167 103.057 20.312 100.5 C27.274 98.344 31.705 100.143 38.242 102.941 C39.652 103.531 41.062 104.12 42.473 104.709 C44.676 105.634 46.877 106.563 49.075 107.501 C51.209 108.409 53.35 109.301 55.492 110.191 C56.14 110.473 56.788 110.754 57.456 111.044 C62.524 113.131 67.239 114.08 72.457 112.039 C73.234 111.572 74.012 111.106 74.812 110.625 C75.746 110.081 76.679 109.537 77.641 108.977 C78.749 108.324 79.858 107.672 81 107 C83.225 105.759 85.458 104.532 87.69 103.305 C94.137 99.759 100.528 96.15 106.809 92.316 C110.482 90.11 114.239 88.053 118 86 C118 84.68 118 83.36 118 82 C112.769 79.555 107.515 77.2 102.18 74.992 C100.916 74.468 100.916 74.468 99.626 73.934 C97.937 73.236 96.245 72.543 94.552 71.855 C86.514 68.534 86.514 68.534 84 66 C83.649 64.671 83.317 63.337 83 62 C77.425 55.102 70.249 49.985 63 45 C61.709 44.101 60.419 43.201 59.129 42.301 C41.217 29.847 22.623 18.556 3.066 8.854 C-1.892 6.325 -1.892 6.325 -3 3 C-2.01 3 -1.02 3 0 3 C0 2.01 0 1.02 0 0 Z " fill="#FFFFFF" transform="translate(152,41)"/>
<path d="M0 0 C1.341 4.022 0.179 6.897 -1 10.812 C-1.228 11.569 -1.456 12.326 -1.69 13.106 C-5.457 25.091 -11.024 36.043 -20 45 C-20.66 45 -21.32 45 -22 45 C-22 45.66 -22 46.32 -22 47 C-23.713 48.585 -25.497 50.095 -27.312 51.562 C-28.792 52.771 -28.792 52.771 -30.301 54.004 C-33 56 -33 56 -36 57 C-35.34 54.03 -34.68 51.06 -34 48 C-34.454 49.23 -34.454 49.23 -34.918 50.484 C-35.337 51.562 -35.756 52.64 -36.188 53.75 C-36.797 55.351 -36.797 55.351 -37.418 56.984 C-39.16 60.306 -40.943 61.884 -44 64 C-44.99 62.02 -44.99 62.02 -46 60 C-46.33 61.65 -46.66 63.3 -47 65 C-45.02 65.495 -45.02 65.495 -43 66 C-43.525 66.161 -44.049 66.322 -44.59 66.488 C-50.522 68.571 -55.544 71.486 -60.75 74.938 C-101.406 101.846 -101.406 101.846 -113 103 C-113.99 102.34 -114.98 101.68 -116 101 C-116.265 99.156 -116.265 99.156 -116.109 96.93 C-116.059 96.115 -116.009 95.3 -115.957 94.461 C-115.889 93.608 -115.82 92.754 -115.75 91.875 C-115.697 91.045 -115.644 90.215 -115.59 89.359 C-115.243 84.211 -114.685 79.114 -114 74 C-109.686 72.38 -105.369 70.767 -101.047 69.168 C-86.377 64.348 -86.377 64.348 -73 57 C-71.528 53.391 -71.528 53.391 -72 50 C-72 49.34 -72 48.68 -72 48 C-70.02 47.505 -70.02 47.505 -68 47 C-66.549 51.976 -65.236 56.966 -64 62 C-58.606 62.274 -55.481 62.361 -51 59 C-51.701 59.309 -52.403 59.619 -53.125 59.938 C-56.089 61.033 -58.877 61.564 -62 62 C-62.495 60.02 -62.495 60.02 -63 58 C-59.04 56.02 -55.08 54.04 -51 52 C-54.24 52.81 -55.914 53.397 -58.625 55.062 C-62 57 -62 57 -64 57 C-64.495 52.545 -64.495 52.545 -65 48 C-64.391 47.673 -63.782 47.346 -63.155 47.01 C-42.877 36.117 -42.877 36.117 -24 23 C-23.34 23.33 -22.68 23.66 -22 24 C-24.893 29.671 -28.334 33.688 -33 38 C-32.216 37.34 -31.433 36.68 -30.625 36 C-28 34 -28 34 -26 34 C-24.86 31.799 -23.835 29.601 -22.887 27.309 C-22.491 26.361 -22.095 25.414 -21.688 24.438 C-21.299 23.487 -20.911 22.537 -20.512 21.559 C-18.748 18.573 -17.069 17.527 -14 16 C-13.273 22.687 -15.275 27.457 -19 33 C-22.158 36.534 -25.5 39.806 -29 43 C-28.216 42.34 -27.433 41.68 -26.625 41 C-24 39 -24 39 -22 39 C-21.773 38.484 -21.546 37.969 -21.312 37.438 C-20.167 35.311 -18.958 33.597 -17.5 31.688 C-13.207 25.715 -12.748 19.519 -12.441 12.355 C-12.296 11.578 -12.15 10.801 -12 10 C-9 8 -9 8 -6.812 8.375 C-6.214 8.581 -5.616 8.787 -5 9 C-4.598 7.886 -4.598 7.886 -4.188 6.75 C-3.058 4.134 -1.791 2.198 0 0 Z " fill="#FFFFFF" transform="translate(303,154)"/>
<path d="M0 0 C1.394 0.635 2.788 1.267 4.184 1.898 C4.97 2.256 5.756 2.615 6.566 2.983 C12.033 5.436 17.552 7.771 23.062 10.125 C24.265 10.64 25.468 11.155 26.707 11.686 C36.538 15.893 46.386 20.057 56.25 24.188 C56.25 25.177 56.25 26.168 56.25 27.188 C55.475 27.6 54.7 28.013 53.902 28.438 C33.922 39.034 33.922 39.034 14.25 50.188 C13.766 49.817 13.282 49.446 12.783 49.064 C8.034 45.459 3.191 42.074 -1.801 38.816 C-2.91 38.088 -2.91 38.088 -4.042 37.345 C-5.595 36.327 -7.148 35.309 -8.703 34.293 C-11.048 32.76 -13.39 31.223 -15.732 29.686 C-23.002 24.919 -30.276 20.174 -37.673 15.605 C-39.614 14.28 -41.16 12.91 -42.75 11.188 C-38.788 8.786 -34.786 6.461 -30.75 4.188 C-30.087 3.814 -29.424 3.44 -28.74 3.055 C-26.673 1.907 -24.59 0.794 -22.5 -0.312 C-21.852 -0.675 -21.203 -1.037 -20.535 -1.41 C-13.098 -5.257 -7.368 -3.425 0 0 Z " fill="#FFFFFF" transform="translate(162.75,85.8125)"/>
<path d="M0 0 C3.744 1.269 7.002 3.091 10.414 5.07 C11.123 5.475 11.831 5.879 12.561 6.296 C17.483 9.128 22.282 12.122 27.04 15.221 C29.641 16.852 32.27 18.333 34.977 19.781 C48.813 27.27 62.235 35.529 75.602 43.82 C76.585 44.426 77.568 45.032 78.581 45.656 C95.592 56.279 95.592 56.279 97.789 62.945 C88.389 60.889 79.124 58.524 69.898 55.789 C67.77 55.163 65.642 54.538 63.514 53.914 C62.411 53.59 61.309 53.267 60.174 52.934 C54.515 51.281 48.848 49.661 43.18 48.043 C42.023 47.713 40.866 47.382 39.675 47.042 C36.13 46.03 32.584 45.019 29.039 44.008 C26.687 43.337 24.336 42.665 21.984 41.994 C17.311 40.66 12.637 39.326 7.963 37.993 C-3.763 34.647 -15.487 31.296 -27.211 27.945 C-27.211 27.285 -27.211 26.625 -27.211 25.945 C-26.551 25.945 -25.891 25.945 -25.211 25.945 C-24.876 25.118 -24.876 25.118 -24.535 24.273 C-22.795 21.215 -20.553 19.138 -18.023 16.695 C-14.042 12.808 -10.249 8.85 -6.648 4.602 C-6.174 4.055 -5.7 3.508 -5.211 2.945 C-4.757 2.358 -4.303 1.77 -3.836 1.164 C-2.211 -0.055 -2.211 -0.055 0 0 Z " fill="#FFFFFF" transform="translate(62.2109375,79.0546875)"/>
<path d="M0 0 C1.803 5.41 0.024 11.093 -0.875 16.625 C-1.043 17.872 -1.21 19.118 -1.383 20.402 C-2.893 29.57 -5.77 34.239 -13 40 C-13.542 40.472 -14.084 40.944 -14.643 41.431 C-26.838 51.917 -51.529 72 -68 72 C-72.455 60.615 -72.455 60.615 -77 49 C-74.84 46.84 -73.319 46.177 -70.512 45.039 C-69.588 44.656 -68.664 44.273 -67.713 43.879 C-66.715 43.465 -65.716 43.051 -64.688 42.625 C-43.544 33.637 -13.467 19.831 0 0 Z " fill="#FFFFFF" transform="translate(298,129)"/>
<path d="M0 0 C0.33 0 0.66 0 1 0 C1.573 23.581 -2.017 51.484 -18 70 C-18.654 70.811 -19.307 71.622 -19.98 72.457 C-24.627 77.967 -29.695 82.23 -35.481 86.45 C-38.455 88.658 -40.706 90.599 -42.562 93.812 C-45.149 97.998 -49.141 98.85 -53.586 100.516 C-57.396 102.172 -60.597 104.207 -64 106.562 C-78.029 116.22 -92.638 124.658 -108 132 C-108.743 132.42 -109.485 132.84 -110.25 133.273 C-112 134 -112 134 -115 133 C-109.684 129.559 -104.273 126.541 -98.625 123.688 C-84.806 116.569 -71.284 108.37 -58.449 99.602 C-55.727 97.822 -53.116 96.89 -50 96 C-50.66 95.67 -51.32 95.34 -52 95 C-52 93.35 -52 91.7 -52 90 C-51.34 89.67 -50.68 89.34 -50 89 C-49.67 90.32 -49.34 91.64 -49 93 C-44.5 89.25 -42.811 85.621 -40.895 80.109 C-40 78 -40 78 -38 77 C-38.99 80.3 -39.98 83.6 -41 87 C-40.241 86.362 -39.481 85.724 -38.699 85.066 C-37.705 84.24 -36.711 83.414 -35.688 82.562 C-34.701 81.739 -33.715 80.915 -32.699 80.066 C-30 78 -30 78 -27 77 C-27 76.34 -27 75.68 -27 75 C-25.836 73.836 -24.669 72.675 -23.488 71.527 C-13.038 60.803 -8.775 47.1 -5 33 C-5.624 33.624 -6.248 34.248 -6.891 34.891 C-8.594 36.594 -10.297 38.297 -12 40 C-13.485 39.505 -13.485 39.505 -15 39 C-15.884 42.229 -16.353 45.437 -16.812 48.75 C-18.654 59.881 -24.234 67.069 -33 74 C-33.66 73.67 -34.32 73.34 -35 73 C-34.336 72.394 -33.672 71.788 -32.988 71.164 C-26.387 64.9 -20.499 58.79 -19.688 49.375 C-19.791 48.591 -19.894 47.808 -20 47 C-23.49 49.22 -24.652 50.976 -25.938 54.875 C-27.579 59.305 -29.348 61.896 -33 65 C-33.763 65.763 -34.526 66.526 -35.312 67.312 C-35.869 67.869 -36.426 68.426 -37 69 C-37.66 68.67 -38.32 68.34 -39 68 C-38.457 67.492 -37.915 66.984 -37.355 66.461 C-33.289 62.548 -30.105 59.263 -28 54 C-28.441 54.306 -28.882 54.611 -29.336 54.926 C-63.265 78 -63.265 78 -70 78 C-69.505 82.455 -69.505 82.455 -69 87 C-64.38 84.69 -59.76 82.38 -55 80 C-56.214 83.642 -57.09 83.917 -60.375 85.688 C-61.166 86.124 -61.958 86.561 -62.773 87.012 C-65 88 -65 88 -68 88 C-67.67 88.99 -67.34 89.98 -67 91 C-62.153 90.409 -58.393 89.021 -54 87 C-54 87.66 -54 88.32 -54 89 C-59.391 92.594 -62.537 93.454 -69 93 C-70.757 88.026 -72.326 83.258 -73 78 C-74.32 78 -75.64 78 -77 78 C-76.732 79.052 -76.464 80.104 -76.188 81.188 C-76 85 -76 85 -77.898 87.473 C-81.523 90.806 -85.92 92.442 -90.438 94.25 C-91.271 94.601 -92.104 94.951 -92.963 95.312 C-97.299 97.095 -101.302 98.481 -106 99 C-103.824 95.736 -103.073 95.36 -99.57 93.992 C-98.692 93.645 -97.815 93.299 -96.91 92.941 C-95.991 92.589 -95.072 92.238 -94.125 91.875 C-93.214 91.515 -92.302 91.156 -91.363 90.785 C-87.602 89.315 -83.943 87.904 -80 87 C-78.855 82.896 -79.191 80.484 -80.625 76.5 C-80.994 75.464 -81.362 74.427 -81.742 73.359 C-83.79 67.891 -85.862 62.434 -88 57 C-92.308 57.737 -96.372 59.035 -100.5 60.438 C-101.476 60.763 -101.476 60.763 -102.473 61.096 C-106.029 62.292 -109.533 63.566 -113 65 C-113.037 65.695 -113.075 66.39 -113.113 67.105 C-113.592 74.512 -114.43 81.836 -115.438 89.188 C-115.56 90.12 -115.682 91.053 -115.808 92.014 C-115.932 92.89 -116.056 93.766 -116.184 94.668 C-116.292 95.455 -116.401 96.241 -116.513 97.052 C-117 99 -117 99 -119 101 C-118.602 92.719 -117.76 84.574 -116.562 76.375 C-116.44 75.51 -116.318 74.646 -116.192 73.755 C-116.068 72.936 -115.944 72.117 -115.816 71.273 C-115.708 70.546 -115.599 69.818 -115.487 69.068 C-114.958 66.823 -114.104 65.017 -113 63 C-113.66 62.34 -114.32 61.68 -115 61 C-107.41 58.36 -99.82 55.72 -92 53 C-99.325 49.337 -106.99 50.795 -114.762 52.555 C-117.536 53.107 -120.181 53.148 -123 53 C-122 51 -122 51 -120.269 50.39 C-117.828 49.85 -115.386 49.32 -112.938 48.812 C-112.103 48.622 -111.268 48.432 -110.408 48.236 C-102.542 46.575 -96.099 46.707 -89 51 C-86.281 53.295 -85.2 55.505 -83.957 58.816 C-83.606 59.745 -83.254 60.674 -82.893 61.631 C-82.536 62.598 -82.18 63.566 -81.812 64.562 C-81.444 65.534 -81.076 66.505 -80.697 67.506 C-78 74.707 -78 74.707 -78 77 C-56.391 67.313 -36.478 56.137 -19 40 C-18.318 39.422 -17.635 38.843 -16.932 38.247 C-14.501 35.42 -14.17 33.403 -13.586 29.738 C-13.382 28.538 -13.179 27.337 -12.969 26.1 C-12.773 24.85 -12.577 23.6 -12.375 22.312 C-11.974 19.828 -11.565 17.345 -11.148 14.863 C-10.888 13.213 -10.888 13.213 -10.623 11.529 C-10.417 10.694 -10.212 9.86 -10 9 C-9.34 8.67 -8.68 8.34 -8 8 C-8.574 17.089 -9.611 26.002 -11 35 C-10.017 33.565 -9.038 32.127 -8.062 30.688 C-7.517 29.887 -6.972 29.086 -6.41 28.262 C-4.285 24.853 -3.881 22.242 -3.938 18.312 C-3.947 17.504 -3.956 16.696 -3.965 15.863 C-3.976 15.248 -3.988 14.634 -4 14 C-3.34 14 -2.68 14 -2 14 C-1.939 13.073 -1.879 12.146 -1.816 11.191 C-1.691 9.395 -1.691 9.395 -1.562 7.562 C-1.441 5.77 -1.441 5.77 -1.316 3.941 C-1 1 -1 1 0 0 Z " fill="#000000" transform="translate(308,124)"/>
<path d="M0 0 C1.322 0.701 2.635 1.418 3.941 2.148 C4.667 2.545 5.393 2.941 6.141 3.349 C12.469 6.849 18.687 10.539 24.879 14.273 C25.87 14.871 26.861 15.469 27.882 16.084 C32.374 18.835 36.738 21.617 40.895 24.855 C54.327 35.219 69.225 39.72 85.124 44.999 C94.005 47.976 102.694 51.399 111.379 54.898 C112.088 55.182 112.797 55.465 113.528 55.756 C149.871 70.273 149.871 70.273 153.75 76.535 C154.691 79.017 154.781 80.891 154.504 83.523 C153.844 84.183 153.184 84.843 152.504 85.523 C152.071 87.697 151.728 89.889 151.441 92.086 C150.601 98.426 150.601 98.426 149.504 99.523 C149.607 100.637 149.71 101.751 149.816 102.898 C149.924 108.845 146.807 113.75 143.504 118.523 C142.514 119.183 141.524 119.843 140.504 120.523 C140.595 119.924 140.686 119.324 140.779 118.707 C141.193 115.959 141.598 113.21 142.004 110.461 C142.147 109.518 142.29 108.575 142.438 107.604 C143.182 102.516 143.675 97.665 143.504 92.523 C140.289 92.523 138.957 94.782 136.691 96.961 C121.967 110.678 87.03 137.523 65.504 137.523 C65.504 136.863 65.504 136.203 65.504 135.523 C66.511 135.134 67.517 134.745 68.555 134.344 C93.559 124.475 125.826 109.446 142.504 87.523 C141.763 87.052 141.763 87.052 141.008 86.57 C140.367 86.142 139.726 85.714 139.066 85.273 C138.428 84.856 137.79 84.438 137.133 84.008 C135.116 82.17 134.849 81.21 134.504 78.523 C134.437 76.608 134.419 74.69 134.441 72.773 C134.45 71.789 134.459 70.804 134.469 69.789 C134.486 68.668 134.486 68.668 134.504 67.523 C133.246 67.132 131.988 66.74 130.691 66.336 C127.15 65.16 123.808 63.787 120.434 62.195 C114.538 59.486 108.531 57.193 102.441 54.961 C90.881 50.695 90.881 50.695 85.266 48.418 C81.018 46.703 76.735 45.187 72.379 43.773 C71.709 43.553 71.038 43.333 70.348 43.105 C68.734 42.575 67.119 42.049 65.504 41.523 C66.565 42.441 67.628 43.358 68.691 44.273 C69.283 44.784 69.875 45.294 70.484 45.82 C71.151 46.382 71.817 46.944 72.504 47.523 C73.208 48.146 73.912 48.769 74.637 49.41 C79.341 52.878 84.603 55.291 89.818 57.9 C90.647 58.324 91.475 58.747 92.328 59.184 C93.082 59.561 93.836 59.939 94.612 60.328 C96.504 61.523 96.504 61.523 98.504 64.523 C92.819 62.878 87.737 60.233 82.504 57.523 C83.164 58.183 83.824 58.843 84.504 59.523 C84.471 62.252 83.94 64.82 83.504 67.523 C83.174 67.523 82.844 67.523 82.504 67.523 C82.392 65.948 82.392 65.948 82.277 64.34 C79.288 49.59 54.057 37.126 42.441 29.336 C27.955 19.747 13.058 10.301 -2.496 2.523 C-4.038 3.898 -4.038 3.898 -5.496 5.523 C-5.496 6.183 -5.496 6.843 -5.496 7.523 C-4.818 7.783 -4.14 8.042 -3.441 8.309 C12.452 14.864 28.293 23.685 42.156 33.832 C46.016 36.613 50.037 39.151 54.035 41.727 C56.504 43.523 56.504 43.523 58.504 46.523 C54.555 44.689 50.929 42.343 47.254 40.023 C46.203 39.363 46.203 39.363 45.13 38.69 C42.214 36.86 39.3 35.025 36.387 33.19 C22.735 24.596 9.004 16.608 -5.496 9.523 C-5.496 10.513 -5.496 11.503 -5.496 12.523 C-6.156 12.523 -6.816 12.523 -7.496 12.523 C-7.496 10.543 -7.496 8.563 -7.496 6.523 C-8.156 6.523 -8.816 6.523 -9.496 6.523 C-10.486 9.823 -11.476 13.123 -12.496 16.523 C-13.156 16.523 -13.816 16.523 -14.496 16.523 C-13.506 12.893 -12.516 9.263 -11.496 5.523 C-13.164 8.026 -14.12 9.935 -15.121 12.711 C-15.381 13.426 -15.642 14.142 -15.91 14.879 C-16.104 15.422 -16.297 15.964 -16.496 16.523 C-17.156 16.523 -17.816 16.523 -18.496 16.523 C-17.909 10.951 -16.264 5.408 -13.496 0.523 C-9.126 -2.693 -4.779 -2.018 0 0 Z " fill="#020202" transform="translate(155.49609375,39.4765625)"/>
<path d="M0 0 C4.874 1.464 9.162 3.482 13.625 5.875 C14.356 6.265 15.086 6.655 15.839 7.057 C69.828 36.224 69.828 36.224 84 55 C80.381 54.381 77.237 53.392 73.859 51.961 C72.88 51.549 71.901 51.137 70.893 50.713 C69.856 50.271 68.818 49.83 67.75 49.375 C65.568 48.455 63.386 47.536 61.203 46.617 C60.138 46.167 59.072 45.717 57.975 45.253 C54.159 43.646 50.332 42.069 46.5 40.5 C38.625 37.267 30.767 33.994 22.914 30.709 C18.194 28.737 13.471 26.778 8.723 24.875 C7.929 24.555 7.136 24.236 6.318 23.906 C4.852 23.317 3.383 22.733 1.912 22.156 C-2.889 20.222 -2.889 20.222 -4 18 C-3.746 16.121 -3.746 16.121 -3.223 13.867 C-3.039 13.062 -2.855 12.256 -2.666 11.426 C-2.467 10.584 -2.268 9.742 -2.062 8.875 C-1.77 7.601 -1.77 7.601 -1.471 6.301 C-0.987 4.199 -0.494 2.099 0 0 Z " fill="#FFFFFF" transform="translate(150,49)"/>
<path d="M0 0 C1.341 4.022 0.179 6.897 -1 10.812 C-1.228 11.569 -1.456 12.326 -1.69 13.106 C-5.457 25.091 -11.024 36.043 -20 45 C-20.66 45 -21.32 45 -22 45 C-22 45.66 -22 46.32 -22 47 C-23.713 48.585 -25.497 50.095 -27.312 51.562 C-28.299 52.368 -29.285 53.174 -30.301 54.004 C-33 56 -33 56 -36 57 C-35.34 54.03 -34.68 51.06 -34 48 C-34.303 48.82 -34.606 49.64 -34.918 50.484 C-35.337 51.562 -35.756 52.64 -36.188 53.75 C-36.594 54.817 -37 55.885 -37.418 56.984 C-39.167 60.318 -40.902 61.911 -44 64 C-44.33 64 -44.66 64 -45 64 C-45.66 62.02 -46.32 60.04 -47 58 C-50.2 58.485 -52.585 59.267 -55.562 60.625 C-59 62 -59 62 -61.438 61.688 C-61.953 61.461 -62.469 61.234 -63 61 C-63 60.01 -63 59.02 -63 58 C-59.04 56.02 -55.08 54.04 -51 52 C-54.24 52.81 -55.914 53.397 -58.625 55.062 C-62 57 -62 57 -64 57 C-64.33 54.03 -64.66 51.06 -65 48 C-64.087 47.51 -64.087 47.51 -63.155 47.01 C-42.877 36.117 -42.877 36.117 -24 23 C-23.34 23.33 -22.68 23.66 -22 24 C-24.893 29.671 -28.334 33.688 -33 38 C-32.216 37.34 -31.433 36.68 -30.625 36 C-28 34 -28 34 -26 34 C-24.86 31.799 -23.835 29.601 -22.887 27.309 C-22.491 26.361 -22.095 25.414 -21.688 24.438 C-21.299 23.487 -20.911 22.537 -20.512 21.559 C-18.748 18.573 -17.069 17.527 -14 16 C-13.273 22.687 -15.275 27.457 -19 33 C-22.158 36.534 -25.5 39.806 -29 43 C-28.216 42.34 -27.433 41.68 -26.625 41 C-24 39 -24 39 -22 39 C-21.773 38.484 -21.546 37.969 -21.312 37.438 C-20.167 35.311 -18.958 33.597 -17.5 31.688 C-13.207 25.715 -12.748 19.519 -12.441 12.355 C-12.296 11.578 -12.15 10.801 -12 10 C-9 8 -9 8 -6.812 8.375 C-6.214 8.581 -5.616 8.787 -5 9 C-4.732 8.257 -4.464 7.515 -4.188 6.75 C-3.058 4.134 -1.791 2.198 0 0 Z " fill="#232323" transform="translate(303,154)"/>
<path d="M0 0 C1.173 1.946 1.173 1.946 2.105 4.48 C2.621 5.856 2.621 5.856 3.146 7.26 C3.662 8.709 3.662 8.709 4.188 10.188 C4.543 11.134 4.898 12.081 5.264 13.057 C8.983 23.169 8.983 23.169 9 27 C6.088 31.483 0.902 33.02 -3.875 34.938 C-5.136 35.455 -5.136 35.455 -6.422 35.982 C-26.144 44 -26.144 44 -31 44 C-30.451 39.676 -29.899 35.353 -29.346 31.03 C-29.158 29.561 -28.971 28.091 -28.784 26.622 C-28.516 24.504 -28.244 22.387 -27.973 20.27 C-27.81 18.997 -27.648 17.724 -27.481 16.413 C-27.322 15.287 -27.163 14.161 -27 13 C-26.881 12.066 -26.761 11.133 -26.638 10.171 C-26 8 -26 8 -22.812 6 C-21.223 5.299 -19.616 4.638 -18 4 C-16.844 3.54 -15.687 3.08 -14.496 2.605 C-3.6 -1.552 -3.6 -1.552 0 0 Z " fill="#FFFFFF" transform="translate(221,181)"/>
<path d="M0 0 C10.31 0.897 18.864 5.826 27.562 11.125 C29.334 12.191 31.107 13.256 32.879 14.32 C33.83 14.896 34.782 15.471 35.762 16.064 C38.136 17.483 40.516 18.884 42.91 20.268 C52.418 25.776 61.66 31.582 70.777 37.714 C72.892 39.137 75.012 40.551 77.133 41.965 C97.139 55.337 97.139 55.337 106 63 C102.8 64.813 99.867 65.522 96.25 66.125 C95.265 66.293 94.28 66.46 93.266 66.633 C92.144 66.815 92.144 66.815 91 67 C90.526 65.989 90.051 64.979 89.562 63.938 C84.993 55.975 75.712 51.416 68 46.938 C63.129 44.086 58.293 41.238 53.625 38.062 C48.252 34.434 42.634 31.265 37 28.062 C23.888 20.558 10.926 12.821 -2 5 C-1.01 4.01 -0.02 3.02 1 2 C0.67 1.34 0.34 0.68 0 0 Z " fill="#FFFFFF" transform="translate(71,76)"/>
<path d="M0 0 C2.416 0.971 4.774 2.024 7.137 3.118 C7.951 3.478 8.765 3.838 9.604 4.209 C15.564 6.909 15.564 6.909 16.7 9.18 C16.117 9.497 15.534 9.813 14.934 10.139 C13.185 11.089 11.437 12.04 9.689 12.992 C7.686 14.082 5.681 15.167 3.674 16.249 C-0.959 18.757 -5.545 21.285 -10.007 24.086 C-19.685 30.118 -19.685 30.118 -23.753 30.274 C-26.168 29.523 -28.096 28.425 -30.3 27.18 C-31.573 26.662 -32.854 26.163 -34.14 25.68 C-34.825 25.423 -35.509 25.166 -36.214 24.901 C-37.247 24.513 -37.247 24.513 -38.3 24.118 C-45.136 21.509 -45.136 21.509 -46.3 19.18 C-45.494 18.722 -44.688 18.263 -43.857 17.791 C-40.829 16.068 -37.803 14.344 -34.777 12.619 C-33.474 11.876 -32.17 11.135 -30.867 10.393 C-29.6 9.673 -28.335 8.952 -27.07 8.231 C-25.831 7.524 -24.591 6.82 -23.349 6.119 C-20.075 4.255 -16.968 2.272 -13.894 0.098 C-9.127 -2.896 -5.003 -1.783 0 0 Z " fill="#FFFFFF" transform="translate(240.30029296875,118.81982421875)"/>
<path d="M0 0 C3.232 1.432 6.46 2.872 9.688 4.312 C11.056 4.919 11.056 4.919 12.451 5.537 C22.538 10.049 22.538 10.049 25 12 C25.559 14.066 25.559 14.066 25.438 16.562 C25.395 17.519 25.352 18.475 25.309 19.461 C24.681 26.658 23.883 33.83 23 41 C21.156 41.617 21.156 41.617 19 42 C14.044 38.283 12.227 33.642 10 28 C9.524 26.835 9.049 25.669 8.559 24.469 C0 3.436 0 3.436 0 0 Z " fill="#FFFFFF" transform="translate(158,214)"/>
<path d="M0 0 C5.36 2.616 10.691 5.283 16 8 C17.144 8.585 17.144 8.585 18.312 9.182 C20.532 10.33 22.736 11.504 24.938 12.688 C25.975 13.221 25.975 13.221 27.033 13.765 C31.786 16.371 31.786 16.371 32.941 19.77 C32.961 20.506 32.98 21.242 33 22 C23.349 28.602 13.526 34.743 3.407 40.599 C-0.182 42.688 -3.752 44.808 -7.323 46.928 C-10.146 48.601 -12.975 50.264 -15.805 51.926 C-18.96 53.782 -22.091 55.666 -25.195 57.605 C-25.816 57.984 -26.437 58.363 -27.077 58.753 C-28.67 59.725 -30.252 60.715 -31.832 61.707 C-38.631 64.482 -45.468 62.956 -52.273 60.867 C-53.053 60.639 -53.832 60.411 -54.634 60.177 C-56.326 59.681 -58.016 59.18 -59.704 58.674 C-64.402 57.268 -69.112 55.906 -73.82 54.535 C-74.815 54.245 -75.809 53.954 -76.833 53.655 C-87.938 50.416 -99.091 47.359 -110.25 44.312 C-112.344 43.74 -114.437 43.167 -116.531 42.594 C-120.938 41.389 -125.345 40.185 -129.752 38.981 C-137.799 36.783 -145.843 34.575 -153.887 32.367 C-155.321 31.973 -156.756 31.58 -158.191 31.186 C-169.196 28.166 -169.196 28.166 -173.036 27.112 C-177.637 25.848 -182.238 24.586 -186.84 23.324 C-188.6 22.841 -188.6 22.841 -190.396 22.348 C-192.014 21.904 -192.014 21.904 -193.664 21.452 C-194.603 21.194 -195.541 20.937 -196.508 20.671 C-198.667 20.09 -200.829 19.533 -203 19 C-203 18.34 -203 17.68 -203 17 C-186.918 20.531 -171.069 24.972 -155.19 29.306 C-152.067 30.158 -148.943 31.008 -145.819 31.858 C-127.162 36.936 -108.512 42.039 -89.875 47.188 C-88.932 47.448 -87.989 47.708 -87.018 47.976 C-78.035 50.455 -69.064 52.96 -60.129 55.605 C-59.456 55.803 -58.783 56.001 -58.09 56.205 C-55.083 57.09 -52.08 57.985 -49.083 58.907 C-42.166 60.96 -38.172 61.559 -31.512 58.285 C-30.231 57.554 -28.957 56.812 -27.688 56.062 C-26.642 55.459 -26.642 55.459 -25.574 54.843 C-23.378 53.571 -21.189 52.286 -19 51 C-17.662 50.223 -16.323 49.447 -14.984 48.672 C-6.598 43.795 1.706 38.782 10 33.75 C10.955 33.172 11.911 32.593 12.895 31.997 C18.692 28.467 24.386 24.815 30 21 C28.704 17.111 27.4 16.849 23.828 14.969 C22.243 14.124 22.243 14.124 20.625 13.262 C19.511 12.68 18.398 12.099 17.25 11.5 C15.067 10.345 12.885 9.188 10.703 8.031 C9.73 7.521 8.757 7.012 7.755 6.486 C2.323 3.556 2.323 3.556 0 2 C0 1.34 0 0.68 0 0 Z " fill="#000000" transform="translate(254,103)"/>
<path d="M0 0 C5.594 0.699 10.824 3.028 15 6.812 C17.237 11.706 15.887 17.64 15.125 22.809 C14.945 24.049 14.764 25.29 14.578 26.568 C14.387 27.845 14.197 29.122 14 30.438 C13.809 31.741 13.618 33.045 13.422 34.389 C12.952 37.593 12.478 40.797 12 44 C9.648 43.401 7.314 42.731 5 42 C3.844 39.687 3.74 38.025 3.535 35.449 C3.458 34.529 3.381 33.608 3.302 32.66 C3.184 31.189 3.184 31.189 3.062 29.688 C2.432 22.245 1.665 14.917 0.367 7.559 C0 5.002 -0.065 2.579 0 0 Z " fill="#FFFFFF" transform="translate(177,182)"/>
<path d="M0 0 C8.249 4.456 16.423 9.036 24.562 13.688 C25.174 14.037 25.786 14.386 26.416 14.746 C36.039 20.248 45.575 25.872 54.979 31.74 C57.058 33.036 59.142 34.325 61.227 35.613 C64.555 37.674 67.871 39.753 71.178 41.848 C72.369 42.601 73.563 43.351 74.76 44.098 C88.273 52.545 88.273 52.545 92 60 C96.29 59.34 100.58 58.68 105 58 C105 58.66 105 59.32 105 60 C103.547 60.374 102.087 60.723 100.625 61.062 C99.407 61.358 99.407 61.358 98.164 61.66 C89.731 62.566 81.724 60.326 73.695 57.973 C72.63 57.668 71.565 57.364 70.468 57.05 C67.018 56.062 63.571 55.062 60.125 54.062 C57.732 53.375 55.34 52.689 52.947 52.004 C49.35 50.974 45.754 49.944 42.158 48.91 C32.915 46.254 23.656 43.66 14.385 41.105 C0.97 37.409 -12.408 33.601 -25.752 29.66 C-28.83 28.756 -31.914 27.876 -35 27 C-35 26.34 -35 25.68 -35 25 C-24.84 27.223 -14.855 29.85 -4.884 32.806 C6.155 36.07 17.233 39.19 28.312 42.312 C32.303 43.438 36.294 44.565 40.285 45.691 C41.269 45.969 42.253 46.247 43.267 46.533 C52.165 49.045 61.062 51.563 69.954 54.097 C71.476 54.53 72.998 54.962 74.52 55.394 C76.603 55.985 78.684 56.578 80.766 57.172 C81.929 57.503 83.092 57.834 84.29 58.175 C87 59 87 59 89 60 C87.992 56.388 87.992 56.388 85.273 54.082 C84.523 53.725 83.773 53.368 83 53 C81.11 51.709 79.237 50.393 77.375 49.062 C60.74 37.38 42.805 27.501 25.281 17.234 C21.182 14.832 17.089 12.42 13 10 C12.345 9.614 11.69 9.228 11.016 8.831 C9.151 7.728 7.294 6.616 5.438 5.5 C4.384 4.871 3.331 4.242 2.246 3.594 C1.505 3.068 0.764 2.542 0 2 C0 1.34 0 0.68 0 0 Z " fill="#000000" transform="translate(71,82)"/>
<path d="M0 0 C2.495 2.017 4.705 4.117 6.855 6.5 C7.301 6.942 7.748 7.384 8.207 7.84 C12.031 11.858 14.657 16.409 17.293 21.25 C17.659 21.912 18.026 22.575 18.404 23.257 C19.304 24.963 20.089 26.73 20.855 28.5 C20.525 29.49 20.195 30.48 19.855 31.5 C18.535 31.5 17.215 31.5 15.855 31.5 C15.504 30.81 15.152 30.121 14.789 29.41 C6.318 13.286 -3.605 3.347 -21.145 -2.5 C-23.412 -2.646 -25.685 -2.721 -27.957 -2.75 C-29.16 -2.776 -30.362 -2.802 -31.602 -2.828 C-35.466 -2.47 -37.793 -1.393 -41.145 0.5 C-42.135 0.83 -43.125 1.16 -44.145 1.5 C-43.91 -0.332 -43.91 -0.332 -43.145 -2.5 C-41.254 -3.949 -41.254 -3.949 -38.895 -5.188 C-38.126 -5.604 -37.358 -6.02 -36.566 -6.449 C-24.402 -11.727 -10.267 -7.48 0 0 Z " fill="#FFFFFF" transform="translate(134.14453125,181.5)"/>
<path d="M0 0 C6.019 2.051 11.802 4.314 17.547 7.039 C19.872 8.086 22.176 9.038 24.555 9.945 C25.582 10.339 25.582 10.339 26.63 10.741 C27.984 11.255 29.343 11.76 30.704 12.255 C32.359 12.887 33.968 13.635 35.566 14.398 C36.061 15.883 36.061 15.883 36.566 17.398 C38.6 18.129 40.641 18.84 42.708 19.469 C48.59 21.381 54.247 23.929 59.941 26.336 C60.614 26.619 61.286 26.902 61.979 27.193 C80.328 34.918 98.505 43.023 116.566 51.398 C116.071 52.388 116.071 52.388 115.566 53.398 C109.209 51.491 103.532 48.974 97.625 45.957 C94.685 44.459 91.736 42.997 88.754 41.586 C87.922 41.188 87.091 40.789 86.234 40.379 C83.495 39.262 83.495 39.262 80.141 38.941 C76.308 38.359 73.656 37.243 70.191 35.523 C68.857 34.877 67.521 34.234 66.184 33.594 C65.449 33.241 64.713 32.888 63.956 32.524 C59.447 30.4 54.881 28.402 50.316 26.398 C49.288 25.947 48.26 25.495 47.201 25.03 C37.426 20.752 27.623 16.54 17.816 12.336 C17.044 12.005 16.271 11.673 15.474 11.332 C13.261 10.383 11.046 9.435 8.832 8.488 C7.841 8.064 7.841 8.064 6.831 7.631 C4.129 6.477 1.45 5.358 -1.325 4.393 C-2.021 4.065 -2.717 3.737 -3.434 3.398 C-3.764 2.408 -4.094 1.418 -4.434 0.398 C-2.434 -0.602 -2.434 -0.602 0 0 Z " fill="#000000" transform="translate(58.43359375,125.6015625)"/>
<path d="M0 0 C1.341 4.022 0.179 6.897 -1 10.812 C-1.228 11.569 -1.456 12.326 -1.69 13.106 C-5.457 25.091 -11.024 36.043 -20 45 C-20.66 45 -21.32 45 -22 45 C-22 45.66 -22 46.32 -22 47 C-23.713 48.585 -25.497 50.095 -27.312 51.562 C-28.299 52.368 -29.285 53.174 -30.301 54.004 C-33 56 -33 56 -36 57 C-34.638 49.363 -32.011 45.344 -26.059 40.398 C-24 39 -24 39 -22 39 C-21.773 38.484 -21.546 37.969 -21.312 37.438 C-20.167 35.311 -18.958 33.597 -17.5 31.688 C-13.207 25.715 -12.748 19.519 -12.441 12.355 C-12.296 11.578 -12.15 10.801 -12 10 C-9 8 -9 8 -6.812 8.375 C-6.214 8.581 -5.616 8.787 -5 9 C-4.732 8.257 -4.464 7.515 -4.188 6.75 C-3.058 4.134 -1.791 2.198 0 0 Z " fill="#FFFFFF" transform="translate(303,154)"/>
<path d="M0 0 C0.66 0.33 1.32 0.66 2 1 C-1.243 8.103 -6.596 13.572 -13 18 C-16.742 18.676 -16.742 18.676 -20 19 C-21.89 20.89 -22.787 22.395 -23.668 24.902 C-25.647 28.019 -28.253 29.069 -31.5 30.75 C-33.248 31.67 -33.248 31.67 -35.031 32.609 C-38 34 -38 34 -40 34 C-40.33 31.03 -40.66 28.06 -41 25 C-40.087 24.51 -40.087 24.51 -39.155 24.01 C-18.877 13.117 -18.877 13.117 0 0 Z " fill="#FFFFFF" transform="translate(279,177)"/>
<path d="M0 0 C2.3 1.007 4.601 2.012 6.902 3.016 C7.51 3.282 8.118 3.549 8.744 3.824 C17.345 7.59 26.054 11.096 34.747 14.641 C43.118 18.058 51.418 21.577 59.625 25.375 C62.621 26.717 65.622 28.048 68.625 29.375 C65.963 30.751 63.562 31.746 60.625 32.375 C60.544 31.756 60.464 31.136 60.38 30.498 C59.827 28.245 59.827 28.245 57.85 27.266 C57.087 26.983 56.325 26.701 55.539 26.41 C54.696 26.088 53.853 25.765 52.985 25.433 C52.082 25.104 51.18 24.776 50.25 24.438 C48.407 23.736 46.564 23.033 44.723 22.328 C43.836 21.992 42.949 21.657 42.036 21.311 C39.199 20.21 36.44 18.984 33.688 17.688 C29.888 15.91 26.05 14.358 22.125 12.875 C18.141 11.369 14.239 9.791 10.375 8 C5.553 5.777 0.7 3.638 -4.188 1.562 C-4.905 1.248 -5.623 0.934 -6.362 0.61 C-11.445 -1.524 -15.336 -2.859 -20.707 -0.678 C-23.512 0.646 -26.256 2.055 -29 3.5 C-29.975 4.001 -30.951 4.502 -31.956 5.019 C-33.887 6.012 -35.817 7.009 -37.744 8.011 C-41.062 9.731 -44.402 11.401 -47.75 13.062 C-48.665 13.52 -49.58 13.978 -50.523 14.449 C-51.134 14.755 -51.745 15.06 -52.375 15.375 C-53.035 14.715 -53.695 14.055 -54.375 13.375 C-52.904 12.648 -52.904 12.648 -51.402 11.906 C-43.022 7.75 -34.72 3.476 -26.484 -0.961 C-25.458 -1.51 -24.432 -2.059 -23.375 -2.625 C-22.741 -3.03 -22.107 -3.435 -21.453 -3.852 C-13.687 -6.742 -7.043 -3.182 0 0 Z " fill="#FFFFFF" transform="translate(165.375,78.625)"/>
<path d="M0 0 C1.361 1.052 1.361 1.052 2.75 2.125 C3.349 2.558 3.949 2.991 4.566 3.438 C12.546 9.684 18.339 18.922 21.625 28.438 C24.991 35.87 34.872 38.397 41.972 41.23 C43.75 42.125 43.75 42.125 44.75 44.125 C40.197 43.507 36.465 41.657 32.438 39.562 C31.792 39.233 31.147 38.904 30.482 38.564 C28.902 37.757 27.326 36.942 25.75 36.125 C28.765 45.45 31.773 54.682 35.77 63.645 C36.754 66.134 37.31 68.489 37.75 71.125 C34.446 68.461 33.282 64.974 31.832 61.121 C31.57 60.442 31.308 59.763 31.038 59.063 C30.487 57.632 29.94 56.198 29.397 54.764 C28.563 52.564 27.717 50.369 26.869 48.174 C26.335 46.782 25.802 45.389 25.27 43.996 C25.016 43.338 24.763 42.679 24.503 42.001 C22.75 37.358 22.75 37.358 22.75 35.125 C21.76 34.795 20.77 34.465 19.75 34.125 C20.08 33.135 20.41 32.145 20.75 31.125 C19.655 28.597 18.515 26.276 17.188 23.875 C16.823 23.201 16.458 22.526 16.082 21.831 C13.439 17.064 10.469 13.122 6.75 9.125 C6.75 8.465 6.75 7.805 6.75 7.125 C6.171 6.854 5.592 6.584 4.996 6.305 C2.746 5.123 0.853 3.761 -1.188 2.25 C-8.912 -2.942 -18.877 -6.354 -28.25 -4.875 C-30.625 -4.236 -32.906 -3.496 -35.207 -2.629 C-37.203 -1.892 -39.179 -1.354 -41.25 -0.875 C-38.361 -5.451 -35.442 -6.18 -30.344 -7.395 C-19.157 -9.132 -9.597 -5.537 0 0 Z " fill="#000000" transform="translate(133.25,178.875)"/>
<path d="M0 0 C1.511 0.635 1.511 0.635 3.053 1.283 C6.262 2.635 9.463 4.003 12.664 5.371 C14.774 6.263 16.885 7.155 18.996 8.045 C23.125 9.787 27.249 11.541 31.37 13.301 C35.242 14.951 39.126 16.563 43.028 18.14 C43.915 18.502 44.802 18.864 45.716 19.236 C47.373 19.91 49.034 20.576 50.699 21.232 C52.598 22.009 54.45 22.899 56.289 23.809 C56.784 25.294 56.784 25.294 57.289 26.809 C50.97 24.815 44.894 22.467 38.82 19.824 C37.941 19.446 37.062 19.067 36.156 18.677 C33.366 17.474 30.577 16.267 27.789 15.059 C24.134 13.479 20.477 11.901 16.82 10.324 C15.934 9.941 15.047 9.559 14.134 9.164 C7.564 6.335 0.963 3.587 -5.673 0.915 C-10.606 -1.087 -10.606 -1.087 -11.711 -2.191 C-17.801 -2.645 -21.276 -1.875 -26.73 1.125 C-27.356 1.46 -27.981 1.796 -28.625 2.141 C-30.6 3.202 -32.562 4.285 -34.523 5.371 C-36.504 6.459 -38.486 7.541 -40.475 8.612 C-42.268 9.578 -44.052 10.561 -45.835 11.545 C-48.711 12.809 -48.711 12.809 -51.711 11.809 C-49.052 10.036 -46.429 8.566 -43.598 7.094 C-42.597 6.572 -41.596 6.051 -40.564 5.514 C-39.52 4.972 -38.475 4.43 -37.398 3.871 C-36.365 3.333 -35.332 2.795 -34.268 2.24 C-32.275 1.204 -30.279 0.174 -28.279 -0.847 C-26.327 -1.869 -24.422 -2.982 -22.543 -4.133 C-14.941 -6.974 -7.002 -3.021 0 0 Z " fill="#FFFFFF" transform="translate(166.7109375,83.19140625)"/>
<path d="M0 0 C-1.869 3.737 -6.917 4.367 -10.688 5.688 C-11.587 6.021 -12.486 6.354 -13.412 6.697 C-20.535 9.211 -24.961 9.185 -31.875 5.938 C-32.656 5.575 -33.437 5.213 -34.242 4.84 C-34.822 4.563 -35.402 4.286 -36 4 C-36 3.34 -36 2.68 -36 2 C-8.999 -3.968 -8.999 -3.968 0 0 Z " fill="#FFFFFF" transform="translate(217,176)"/>
<path d="M0 0 C0.33 0 0.66 0 1 0 C0.886 2.563 0.759 5.125 0.625 7.688 C0.579 8.769 0.579 8.769 0.531 9.873 C0.304 14.028 -0.347 17.14 -2 21 C-1.876 22.794 -1.876 22.794 -1.75 24.625 C-1.561 30.444 -4.778 35.343 -8 40 C-8.99 40.66 -9.98 41.32 -11 42 C-10.272 36.811 -9.535 31.623 -8.777 26.438 C-8.332 23.376 -7.922 20.324 -7.566 17.25 C-6.692 10.324 -4.613 5.326 0 0 Z " fill="#FFFFFF" transform="translate(307,118)"/>
<path d="M0 0 C0.961 0.41 1.923 0.821 2.913 1.243 C3.929 1.689 4.945 2.135 5.992 2.594 C8.144 3.516 10.296 4.436 12.449 5.355 C13.525 5.817 14.601 6.279 15.709 6.755 C20.336 8.716 25.005 10.564 29.68 12.406 C35.592 14.75 41.437 17.166 47.195 19.871 C49.319 20.843 51.446 21.764 53.602 22.66 C54.246 22.929 54.891 23.199 55.555 23.476 C57.399 24.243 59.247 25.002 61.094 25.762 C63.867 27.094 63.867 27.094 64.867 29.094 C61.535 28.507 58.595 27.692 55.486 26.363 C54.65 26.009 53.814 25.654 52.953 25.289 C52.057 24.903 51.161 24.518 50.238 24.121 C48.822 23.519 48.822 23.519 47.377 22.905 C44.351 21.618 41.328 20.325 38.305 19.031 C30.5 15.699 22.69 12.383 14.867 9.094 C13.916 8.692 12.965 8.291 11.986 7.878 C9.254 6.731 6.517 5.599 3.777 4.473 C2.558 3.958 2.558 3.958 1.313 3.433 C-4.565 1.044 -8.679 0.077 -14.762 2.598 C-16.079 3.272 -17.39 3.958 -18.695 4.656 C-19.388 5.013 -20.082 5.37 -20.796 5.738 C-24.215 7.51 -27.598 9.342 -30.961 11.219 C-32.111 11.858 -33.261 12.498 -34.445 13.156 C-35.986 14.04 -35.986 14.04 -37.559 14.941 C-40.133 16.094 -40.133 16.094 -43.133 15.094 C-38.715 12.014 -34.22 9.513 -29.383 7.156 C-27.963 6.46 -26.544 5.763 -25.125 5.066 C-24.441 4.731 -23.758 4.396 -23.054 4.051 C-19.775 2.417 -16.555 0.668 -13.344 -1.094 C-8.609 -2.834 -4.502 -1.957 0 0 Z " fill="#000000" transform="translate(158.1328125,77.90625)"/>
<path d="M0 0 C2.266 1.011 4.527 2.03 6.785 3.059 C7.946 3.579 9.107 4.099 10.303 4.635 C13.155 5.914 16.003 7.201 18.848 8.496 C17.858 9.156 16.868 9.816 15.848 10.496 C13.615 9.805 13.615 9.805 11.023 8.504 C10.077 8.046 9.13 7.589 8.154 7.117 C6.177 6.129 4.2 5.14 2.225 4.148 C-5.642 0.203 -5.642 0.203 -14.152 0.496 C-17.856 2.169 -21.227 4.255 -24.652 6.434 C-26.592 7.625 -28.532 8.815 -30.473 10.004 C-31.427 10.595 -32.381 11.185 -33.364 11.794 C-37.362 14.235 -41.433 16.534 -45.527 18.809 C-46.205 19.187 -46.882 19.565 -47.58 19.955 C-49.103 20.804 -50.627 21.651 -52.152 22.496 C-53.142 21.836 -54.132 21.176 -55.152 20.496 C-54.256 19.992 -54.256 19.992 -53.343 19.477 C-51.54 18.462 -49.739 17.447 -47.938 16.43 C-45.859 15.258 -43.78 14.089 -41.699 12.921 C-36.633 10.069 -31.599 7.186 -26.641 4.148 C-25.796 3.637 -24.951 3.126 -24.081 2.599 C-22.497 1.635 -20.922 0.656 -19.358 -0.339 C-12.086 -4.731 -7.636 -3.21 0 0 Z " fill="#FFFFFF" transform="translate(243.15234375,115.50390625)"/>
<path d="M0 0 C0.99 0 1.98 0 3 0 C3.415 1.042 3.415 1.042 3.839 2.104 C5.121 5.32 6.404 8.535 7.688 11.75 C8.123 12.842 8.558 13.934 9.006 15.059 C9.441 16.148 9.876 17.237 10.324 18.359 C10.76 19.453 11.197 20.547 11.646 21.674 C13.419 26.03 15.295 30.341 17.191 34.646 C17.458 35.422 17.725 36.199 18 37 C17.67 37.66 17.34 38.32 17 39 C10.013 34.601 8.067 28.032 5.188 20.562 C4.698 19.348 4.209 18.133 3.705 16.881 C-0.388 6.549 -0.388 6.549 -1 1 C-0.67 0.67 -0.34 0.34 0 0 Z " fill="#FFFFFF" transform="translate(153,214)"/>
<path d="M0 0 C0.727 6.69 -1.362 11.412 -5 17 C-8.853 21.529 -13.245 25.434 -18 29 C-19.32 28.34 -20.64 27.68 -22 27 C-20.411 22.711 -17.569 20.677 -14 18 C-13.34 18 -12.68 18 -12 18 C-10.864 15.797 -9.825 13.59 -8.852 11.309 C-8.447 10.361 -8.042 9.414 -7.625 8.438 C-7.225 7.487 -6.826 6.537 -6.414 5.559 C-5.088 3.16 -3.119 0 0 0 Z " fill="#FFFFFF" transform="translate(289,170)"/>
<path d="M0 0 C7.993 2.505 15.667 5.68 23.375 8.938 C24.047 9.22 24.72 9.503 25.412 9.795 C43.762 17.52 61.938 25.625 80 34 C79.505 34.99 79.505 34.99 79 36 C73.9 34.47 69.251 32.706 64.516 30.266 C57.93 26.933 51.241 23.88 44.5 20.875 C43.251 20.315 42.002 19.756 40.753 19.196 C34.169 16.254 27.563 13.371 20.922 10.559 C20.273 10.283 19.624 10.008 18.956 9.725 C15.832 8.401 12.705 7.086 9.572 5.783 C8.46 5.314 7.349 4.846 6.203 4.363 C5.22 3.954 4.237 3.544 3.224 3.122 C1 2 1 2 0 0 Z " fill="#FFFFFF" transform="translate(95,143)"/>
<path d="M0 0 C0.495 1.485 0.495 1.485 1 3 C-18.65 24.021 -47.318 38.791 -74 49 C-74.66 49 -75.32 49 -76 49 C-76 48.34 -76 47.68 -76 47 C-74.993 46.611 -73.986 46.221 -72.949 45.82 C-49.361 36.51 -14.95 21.547 0 0 Z " fill="#000000" transform="translate(297,128)"/>
<path d="M0 0 C-2.669 2.669 -5.832 3.998 -9.188 5.625 C-15.486 8.72 -21.706 11.928 -27.862 15.297 C-31.83 17.449 -35.835 19.276 -40 21 C-40.99 20.01 -41.98 19.02 -43 18 C-42.1 17.55 -41.2 17.1 -40.273 16.637 C-39.359 16.179 -39.359 16.179 -38.427 15.713 C-37.038 15.019 -35.649 14.327 -34.259 13.637 C-29.887 11.463 -25.542 9.246 -21.215 6.984 C-20.237 6.479 -19.258 5.975 -18.25 5.454 C-16.312 4.454 -14.379 3.442 -12.453 2.419 C-11.557 1.96 -10.661 1.5 -9.738 1.027 C-8.945 0.612 -8.151 0.197 -7.333 -0.231 C-4.513 -1.161 -2.821 -0.802 0 0 Z " fill="#FFFFFF" transform="translate(149,71)"/>
<path d="M0 0 C3.76 0.581 6.53 1.652 9.812 3.562 C10.603 4.018 11.393 4.473 12.207 4.941 C12.799 5.291 13.39 5.64 14 6 C12.844 9.912 11.645 12.875 9 16 C5.647 14.822 3.245 13.806 1 11 C-0.283 7.15 -0.066 4.053 0 0 Z " fill="#FFFFFF" transform="translate(292,109)"/>
<path d="M0 0 C19.017 7.057 37.595 15.203 56.125 23.438 C56.919 23.79 57.713 24.143 58.531 24.506 C60.816 25.522 63.1 26.539 65.383 27.559 C66.063 27.861 66.744 28.164 67.444 28.476 C78.774 33.548 78.774 33.548 80 36 C76.706 35.294 73.825 34.118 70.758 32.734 C69.707 32.263 68.655 31.791 67.572 31.306 C66.435 30.792 65.297 30.279 64.125 29.75 C61.68 28.655 59.235 27.561 56.789 26.469 C56.155 26.185 55.521 25.902 54.867 25.61 C47.766 22.441 40.636 19.339 33.5 16.25 C32.871 15.977 32.241 15.705 31.593 15.424 C21.091 10.88 10.562 6.403 0 2 C0 1.34 0 0.68 0 0 Z " fill="#000000" transform="translate(95,141)"/>
<path d="M0 0 C1.675 0.286 3.344 0.618 5 1 C5 1.99 5 2.98 5 4 C5.66 4 6.32 4 7 4 C7 2.68 7 1.36 7 0 C8.98 0 10.96 0 13 0 C13 0.66 13 1.32 13 2 C11.68 2 10.36 2 9 2 C9 2.66 9 3.32 9 4 C10.32 4.33 11.64 4.66 13 5 C13 6.65 13 8.3 13 10 C11.02 10.99 11.02 10.99 9 12 C8.01 11.34 7.02 10.68 6 10 C6 9.34 6 8.68 6 8 C7.65 8.33 9.3 8.66 11 9 C11 8.01 11 7.02 11 6 C8.555 6.188 8.555 6.188 6 7 C5.301 8.316 4.633 9.65 4 11 C1.875 11.75 1.875 11.75 0 12 C-2.23 7.819 -2.063 5.606 -1 1 C-0.67 0.67 -0.34 0.34 0 0 Z " fill="#191919" transform="translate(304,274)"/>
<path d="M0 0 C1.32 1.32 2.64 2.64 4 4 C3.29 6.09 2.556 8.172 1.812 10.25 C1.406 11.41 1 12.57 0.582 13.766 C-1.141 17.289 -2.757 18.856 -6 21 C-6.33 21 -6.66 21 -7 21 C-6.67 18.36 -6.34 15.72 -6 13 C-5.34 13 -4.68 13 -4 13 C-3.867 12.438 -3.734 11.876 -3.598 11.297 C-2.976 8.906 -2.229 6.59 -1.438 4.25 C-1.168 3.451 -0.899 2.652 -0.621 1.828 C-0.416 1.225 -0.211 0.622 0 0 Z " fill="#FFFFFF" transform="translate(265,197)"/>
<path d="M0 0 C0.99 0 1.98 0 3 0 C3.33 1.32 3.66 2.64 4 4 C-6.374 10.704 -6.374 10.704 -12 11 C-12.33 9.68 -12.66 8.36 -13 7 C-12.145 6.578 -11.291 6.157 -10.41 5.723 C-9.305 5.175 -8.201 4.627 -7.062 4.062 C-5.96 3.517 -4.858 2.972 -3.723 2.41 C-1.152 1.253 -1.152 1.253 0 0 Z " fill="#FFFFFF" transform="translate(253,205)"/>
<path d="M0 0 C2.625 0.375 2.625 0.375 5 1 C5.947 4.702 6.304 6.391 4.562 9.875 C4.047 10.576 3.531 11.277 3 12 C1.062 11.625 1.062 11.625 -1 11 C-2.507 7.987 -2.178 5.317 -2 2 C-1.34 1.34 -0.68 0.68 0 0 Z " fill="#000000" transform="translate(320,274)"/>
<path d="M0 0 C0.99 0.33 1.98 0.66 3 1 C3.122 8.737 2.848 16.307 2 24 C0.68 23.67 -0.64 23.34 -2 23 C-1.34 15.41 -0.68 7.82 0 0 Z " fill="#FFFFFF" transform="translate(184,232)"/>
<path d="M0 0 C1.063 0.365 2.127 0.73 3.223 1.105 C4.284 1.463 5.344 1.82 6.438 2.188 C9.285 3.293 9.285 3.293 12.285 5.293 C12.285 5.953 12.285 6.613 12.285 7.293 C13.605 7.953 14.925 8.613 16.285 9.293 C13.117 10.343 11.48 10.29 8.43 8.965 C7.725 8.659 7.021 8.354 6.295 8.039 C5.207 7.546 5.207 7.546 4.098 7.043 C3.361 6.73 2.624 6.416 1.865 6.094 C-0.037 5.25 -1.882 4.279 -3.715 3.293 C-4.045 2.303 -4.375 1.313 -4.715 0.293 C-2.715 -0.707 -2.715 -0.707 0 0 Z " fill="#373737" transform="translate(58.71484375,125.70703125)"/>
<path d="M0 0 C0.99 0.33 1.98 0.66 3 1 C-4.039 5.693 -11.513 9.338 -19.094 13.054 C-22.486 14.737 -25.834 16.51 -29.18 18.285 C-29.78 18.521 -30.381 18.757 -31 19 C-31.66 18.67 -32.32 18.34 -33 18 C-26.433 13.701 -19.606 10.202 -12.562 6.75 C-10.396 5.684 -8.231 4.616 -6.066 3.547 C-5.117 3.081 -4.168 2.616 -3.19 2.136 C-1.081 1.182 -1.081 1.182 0 0 Z " fill="#000000" transform="translate(144,73)"/>
<path d="M0 0 C4.069 1.23 7.412 2.734 11 5 C12.326 5.681 13.657 6.353 15 7 C14.01 7.495 14.01 7.495 13 8 C12.67 8.99 12.34 9.98 12 11 C9 10 9 10 7.25 8.125 C4.365 5.4 1.691 4.419 -2 3 C-1 1 -1 1 0 0 Z " fill="#343434" transform="translate(182,180)"/>
<path d="M0 0 C0.75 3.25 0.75 3.25 1 7 C-0.938 9.438 -0.938 9.438 -3 11 C-4.32 10.34 -5.64 9.68 -7 9 C-7 8.34 -7 7.68 -7 7 C-4.525 7.495 -4.525 7.495 -2 8 C-2.99 6.68 -3.98 5.36 -5 4 C-4.34 3.34 -3.68 2.68 -3 2 C-3.66 1.67 -4.32 1.34 -5 1 C-5 1.66 -5 2.32 -5 3 C-5.66 3 -6.32 3 -7 3 C-7 2.01 -7 1.02 -7 0 C-4.333 -1.333 -2.833 -0.671 0 0 Z " fill="#000000" transform="translate(333,275)"/>
<path d="M0 0 C8.934 4.109 15.74 10.759 21 19 C20.67 19.66 20.34 20.32 20 21 C19.394 20.215 18.788 19.43 18.164 18.621 C13.259 12.421 8.648 7.517 1.836 3.305 C1.23 2.874 0.624 2.444 0 2 C0 1.34 0 0.68 0 0 Z " fill="#000000" transform="translate(124,183)"/>
<path d="M0 0 C6.164 1.761 11.772 4.222 17.5 7.062 C18.219 7.415 18.937 7.768 19.678 8.131 C24.876 10.753 24.876 10.753 26 13 C22.709 12.298 19.851 11.117 16.797 9.715 C15.817 9.267 14.838 8.819 13.828 8.357 C12.812 7.889 11.797 7.42 10.75 6.938 C9.719 6.465 8.688 5.993 7.625 5.506 C5.082 4.34 2.54 3.172 0 2 C0 1.34 0 0.68 0 0 Z " fill="#000000" transform="translate(140,164)"/>
<path d="M0 0 C2.97 0 5.94 0 9 0 C9 0.66 9 1.32 9 2 C8.01 2 7.02 2 6 2 C6 4.97 6 7.94 6 11 C5.01 11 4.02 11 3 11 C3 8.03 3 5.06 3 2 C2.01 2 1.02 2 0 2 C0 1.34 0 0.68 0 0 Z " fill="#000000" transform="translate(289,274)"/>
<path d="M0 0 C0.66 0 1.32 0 2 0 C1.67 3.63 1.34 7.26 1 11 C0.01 11.33 -0.98 11.66 -2 12 C-2.66 11.34 -3.32 10.68 -4 10 C-2.68 6.7 -1.36 3.4 0 0 Z " fill="#FFFFFF" transform="translate(146,46)"/>
<path d="M0 0 C1.16 0.425 1.16 0.425 2.344 0.859 C3.117 1.133 3.891 1.406 4.688 1.688 C6.844 2.609 6.844 2.609 9.844 4.609 C9.844 5.269 9.844 5.929 9.844 6.609 C6.182 5.983 2.962 4.965 -0.469 3.547 C-1.793 3.004 -1.793 3.004 -3.145 2.449 C-3.808 2.172 -4.472 1.895 -5.156 1.609 C-2.156 -0.391 -2.156 -0.391 0 0 Z " fill="#8C8C8C" transform="translate(85.15625,136.390625)"/>
<path d="M0 0 C1.816 0.616 3.627 1.243 5.438 1.875 C6.447 2.223 7.456 2.571 8.496 2.93 C11 4 11 4 12 6 C11.34 6.66 10.68 7.32 10 8 C7.384 7.673 5.359 7.18 3 6 C2.67 5.01 2.34 4.02 2 3 C1.34 2.67 0.68 2.34 0 2 C0 1.34 0 0.68 0 0 Z " fill="#1B1B1B" transform="translate(71,131)"/>
<path d="M0 0 C0.66 0.33 1.32 0.66 2 1 C0.667 5 -0.667 9 -2 13 C-2.99 12.67 -3.98 12.34 -5 12 C-3.35 8.04 -1.7 4.08 0 0 Z " fill="#FFFFFF" transform="translate(143,44)"/>
<path d="M0 0 C0.66 0 1.32 0 2 0 C2 2.31 2 4.62 2 7 C1.01 7 0.02 7 -1 7 C-1.043 5 -1.041 3 -1 1 C-0.67 0.67 -0.34 0.34 0 0 Z " fill="#FFFFFF" transform="translate(321,276)"/>
<path d="M0 0 C2.475 0.99 2.475 0.99 5 2 C3.68 3.32 2.36 4.64 1 6 C0.34 5.67 -0.32 5.34 -1 5 C-0.67 3.35 -0.34 1.7 0 0 Z " fill="#FFFFFF" transform="translate(265,122)"/>
<path d="M0 0 C3.465 1.485 3.465 1.485 7 3 C7 3.66 7 4.32 7 5 C5.35 4.67 3.7 4.34 2 4 C2 3.34 2 2.68 2 2 C1.34 2 0.68 2 0 2 C0 1.34 0 0.68 0 0 Z " fill="#4B4B4B" transform="translate(88,138)"/>
</svg>
