<?xml version="1.0" encoding="UTF-8"?>
<!-- Generator: visioncortex VTracer 0.6.4 -->
<svg version="1.1" xmlns="http://www.w3.org/2000/svg" width="338" height="287">
<path d="M0 0 C111.54 0 223.08 0 338 0 C338 94.71 338 189.42 338 287 C226.46 287 114.92 287 0 287 C0 192.29 0 97.58 0 0 Z " fill="#FEFEFE" transform="translate(0,0)"/>
<path d="M0 0 C6.855 1.985 13.587 4.205 20.297 6.633 C21.751 7.156 21.751 7.156 23.235 7.689 C26.408 8.832 29.579 9.978 32.75 11.125 C33.854 11.523 34.957 11.922 36.094 12.332 C51.607 17.93 67.097 23.588 82.562 29.312 C83.47 29.648 84.377 29.984 85.312 30.33 C94.053 33.566 102.791 36.807 111.528 40.054 C118.077 42.488 124.626 44.918 131.178 47.343 C134.393 48.533 137.608 49.726 140.82 50.923 C144.399 52.255 147.981 53.582 151.562 54.906 C152.632 55.306 153.702 55.707 154.804 56.119 C161.73 58.791 161.73 58.791 169 60 C172.348 58.186 172.348 58.186 175 56 C168.373 53.456 161.674 51.174 154.938 48.938 C153.758 48.545 152.579 48.153 151.365 47.749 C140.683 44.207 129.976 40.746 119.262 37.303 C118.272 36.985 118.272 36.985 117.262 36.66 C116.261 36.339 116.261 36.339 115.241 36.011 C110.205 34.391 105.174 32.759 100.145 31.121 C87.271 26.931 74.398 22.743 61.484 18.676 C60.186 18.267 60.186 18.267 58.861 17.85 C54.687 16.536 50.511 15.226 46.334 13.92 C44.82 13.446 43.307 12.971 41.793 12.496 C41.121 12.287 40.448 12.078 39.755 11.863 C35.104 10.402 30.554 8.742 26 7 C26.33 6.34 26.66 5.68 27 5 C46.921 11.258 66.828 17.545 86.625 24.188 C106.164 30.74 125.767 37.08 145.414 43.301 C146.316 43.586 147.217 43.872 148.146 44.166 C152.569 45.566 156.992 46.965 161.417 48.359 C162.239 48.619 163.061 48.879 163.907 49.146 C165.533 49.66 167.159 50.171 168.785 50.681 C172.904 51.98 176.99 53.337 181.056 54.795 C181.873 55.083 182.69 55.371 183.531 55.668 C185.08 56.218 186.624 56.782 188.163 57.361 C191.376 58.494 193.518 59.11 196.88 58.343 C199.276 57.026 199.276 57.026 201 54 C201.242 51.255 201.242 51.255 201.125 48.312 C201.107 47.319 201.089 46.325 201.07 45.301 C201.036 44.162 201.036 44.162 201 43 C200.198 42.902 199.397 42.804 198.571 42.703 C194.13 41.829 190.091 40.339 185.863 38.746 C184.966 38.413 184.069 38.08 183.145 37.737 C180.199 36.642 177.256 35.54 174.312 34.438 C172.27 33.677 170.226 32.916 168.183 32.156 C163.939 30.577 159.696 28.995 155.455 27.41 C149.104 25.038 142.75 22.674 136.395 20.312 C126.261 16.546 116.13 12.775 106 9 C106 8.34 106 7.68 106 7 C113.696 9.184 121.176 11.818 128.672 14.605 C130.506 15.283 132.339 15.96 134.173 16.638 C136.725 17.581 139.276 18.528 141.827 19.474 C144.982 20.644 148.137 21.811 151.293 22.979 C153.142 23.663 153.142 23.663 155.029 24.36 C159.877 26.153 164.725 27.943 169.574 29.733 C172.856 30.947 176.136 32.168 179.416 33.389 C181.366 34.11 183.316 34.831 185.266 35.551 C186.127 35.874 186.988 36.197 187.875 36.53 C192.565 38.254 197.181 39.605 202.081 40.593 C204.629 41.133 207.011 41.935 209.438 42.875 C210.261 43.182 211.085 43.489 211.934 43.805 C214.399 45.231 214.854 46.459 216 49 C218.354 49.688 218.354 49.688 221 50 C222.679 50.634 224.35 51.293 226 52 C226 52.66 226 53.32 226 54 C223.03 53.01 220.06 52.02 217 51 C216.629 53.042 216.629 53.042 216.25 55.125 C215.375 59.938 214.039 61.441 211 66 C218.425 69.465 218.425 69.465 226 73 C225.67 73.66 225.34 74.32 225 75 C223.949 74.518 222.899 74.036 221.816 73.539 C214.584 70.268 207.857 67.394 200 66 C197.99 65.365 195.984 64.712 194 64 C193.567 64.454 193.134 64.907 192.688 65.375 C191 67 191 67 188 69 C189.114 69.485 190.228 69.969 191.375 70.469 C199.958 74.23 208.442 78.111 216.783 82.385 C220.136 84.098 223.476 85.671 227 87 C227 87.66 227 88.32 227 89 C222.652 87.633 218.589 85.969 214.465 84.031 C213.864 83.75 213.263 83.469 212.643 83.18 C210.74 82.29 208.839 81.395 206.938 80.5 C205.033 79.606 203.127 78.712 201.221 77.82 C199.494 77.012 197.768 76.2 196.043 75.389 C193.387 74.177 190.721 73.055 188 72 C187.836 72.888 187.836 72.888 187.668 73.793 C187.509 74.583 187.351 75.373 187.188 76.188 C186.961 77.353 186.961 77.353 186.73 78.543 C185.893 81.36 184.593 83.543 183 86 C186.181 87.494 189.371 88.968 192.562 90.438 C193.905 91.069 193.905 91.069 195.275 91.713 C202.693 95.109 207.869 96.435 216 95 C219.335 94.91 222.664 94.941 226 95 C226 95.33 226 95.66 226 96 C225.085 96.205 224.17 96.41 223.227 96.621 C222.038 96.891 220.85 97.16 219.625 97.438 C218.442 97.704 217.258 97.971 216.039 98.246 C213.105 98.856 213.105 98.856 211 100 C215.29 99.67 219.58 99.34 224 99 C224.33 99.66 224.66 100.32 225 101 C223.02 101.33 221.04 101.66 219 102 C220.65 103.32 222.3 104.64 224 106 C219.379 105.23 219.379 105.23 217.257 103.944 C214.072 102.612 211.564 102.989 208.137 103.275 C207.476 103.329 206.814 103.382 206.133 103.437 C199.341 104.005 192.571 104.775 185.805 105.594 C184.528 105.745 183.252 105.897 181.937 106.053 C179.269 106.37 176.602 106.69 173.936 107.011 C170.528 107.422 167.12 107.828 163.711 108.232 C160.43 108.621 157.148 109.014 153.867 109.406 C152.041 109.623 152.041 109.623 150.177 109.845 C149.045 109.982 147.912 110.119 146.746 110.26 C145.754 110.379 144.762 110.498 143.74 110.621 C141.132 110.982 138.575 111.454 136 112 C136.186 113.279 136.371 114.558 136.562 115.875 C137.125 119.75 137.125 119.75 136 122 C136.516 122.784 137.031 123.567 137.562 124.375 C138.037 125.241 138.511 126.108 139 127 C138.188 129.312 138.188 129.312 137 131 C132.779 131.456 129.75 130.639 125.875 129.125 C118.186 126.167 110.254 124.666 102 125 C101.67 125.33 101.34 125.66 101 126 C99.544 126.099 98.084 126.13 96.625 126.125 C95.834 126.128 95.042 126.13 94.227 126.133 C92 126 92 126 89 125 C86.434 125.312 83.968 125.694 81.438 126.188 C80.72 126.327 80.003 126.466 79.264 126.61 C71.053 128.292 60.982 130.6 56 138 C55.448 141.093 55.566 143.899 56 147 C56.639 147.309 57.279 147.619 57.938 147.938 C60 149 60 149 61 150 C61.381 153.432 61.336 155.404 59.625 158.438 C55.346 160.984 51.729 160.067 47 159 C41.93 157.539 36.961 155.792 32 154 C31.762 154.686 31.523 155.372 31.277 156.078 C29.746 159.582 27.719 162.612 25.562 165.75 C24.659 167.084 23.757 168.419 22.855 169.754 C22.387 170.448 21.918 171.141 21.435 171.856 C19.038 175.438 16.707 179.063 14.375 182.688 C9.982 189.503 5.525 196.271 1 203 C0.34 202.67 -0.32 202.34 -1 202 C-0.67 201.01 -0.34 200.02 0 199 C-1.98 201.97 -3.96 204.94 -6 208 C-6.66 207.67 -7.32 207.34 -8 207 C-6.22 203.993 -4.424 200.996 -2.625 198 C-1.863 196.712 -1.863 196.712 -1.086 195.398 C-0.596 194.586 -0.106 193.774 0.398 192.938 C0.849 192.183 1.299 191.429 1.763 190.652 C2.171 190.107 2.579 189.562 3 189 C3.66 189 4.32 189 5 189 C5.214 188.362 5.428 187.724 5.648 187.066 C7.552 182.747 10.081 178.905 12.625 174.938 C13.426 173.677 13.426 173.677 14.243 172.391 C17.952 166.574 21.754 160.831 25.672 155.152 C27.175 153.138 27.175 153.138 27 151 C25.346 149.553 25.346 149.553 23.25 148.125 C18.273 144.493 15.206 141.841 13 136 C2.528 139.848 -7.817 143.933 -18.116 148.22 C-22.061 149.853 -26.029 151.429 -30 153 C-29.67 152.01 -29.34 151.02 -29 150 C-26.445 148.789 -26.445 148.789 -23.125 147.625 C-18.873 146.077 -14.723 144.482 -10.625 142.562 C-3.867 139.419 3.065 136.723 10 134 C9.505 130.535 9.505 130.535 9 127 C7.976 126.848 7.976 126.848 6.93 126.692 C3.427 125.865 0.344 124.465 -2.887 122.922 C-3.905 122.443 -3.905 122.443 -4.943 121.955 C-7.194 120.893 -9.441 119.822 -11.688 118.75 C-12.461 118.383 -13.235 118.016 -14.031 117.637 C-27.762 111.118 -41.397 104.406 -55 97.625 C-56.386 96.936 -56.386 96.936 -57.8 96.233 C-60.432 94.923 -63.06 93.607 -65.688 92.289 C-66.471 91.899 -67.255 91.509 -68.063 91.107 C-77.546 86.325 -77.546 86.325 -78.75 82.812 C-78.832 82.214 -78.915 81.616 -79 81 C-68.333 75.667 -57.667 70.333 -47 65 C-54.791 60.096 -62.59 55.212 -70.5 50.5 C-79.434 45.176 -88.346 39.769 -97 34 C-97 33.34 -97 32.68 -97 32 C-93.536 32.656 -91.025 34.035 -88.035 35.879 C-87.078 36.466 -86.12 37.053 -85.134 37.658 C-84.12 38.286 -83.107 38.915 -82.062 39.562 C-81.015 40.206 -79.967 40.849 -78.888 41.512 C-74.752 44.054 -70.624 46.606 -66.508 49.18 C-56.987 55.114 -47.248 60.665 -37.52 66.25 C-33.591 68.506 -29.67 70.772 -25.762 73.062 C-17.764 77.75 -9.716 82.339 -1.562 86.75 C-0.763 87.193 0.037 87.636 0.861 88.093 C1.607 88.49 2.353 88.888 3.121 89.297 C3.775 89.651 4.429 90.005 5.103 90.37 C7.434 91.144 8.713 90.789 11 90 C11.495 88.02 11.495 88.02 12 86 C10.728 85.617 10.728 85.617 9.43 85.227 C5.786 83.924 2.498 82.242 -0.875 80.375 C-5.389 77.915 -9.916 75.528 -14.545 73.292 C-23.285 69.057 -31.627 64.221 -39.989 59.288 C-46.174 55.641 -52.392 52.078 -58.688 48.625 C-70.165 42.307 -81.141 35.331 -92 28 C-93.105 27.304 -94.209 26.608 -95.348 25.891 C-96.223 25.267 -97.098 24.643 -98 24 C-98 23.34 -98 22.68 -98 22 C-93.037 23.681 -88.927 26.483 -84.562 29.312 C-75.582 35.058 -66.481 40.564 -57.258 45.91 C-53.901 47.858 -50.616 49.874 -47.367 51.996 C-40.71 56.679 -40.71 56.679 -33.02 57.434 C-30.675 56.158 -28.88 54.885 -27 53 C-26.67 53.66 -26.34 54.32 -26 55 C-25.464 54.093 -24.927 53.185 -24.375 52.25 C-22.096 48.867 -19.707 46.816 -16 45 C-12.351 46.097 -9.359 47.922 -6.188 50 C-1.65 52.938 2.911 55.831 7.5 58.688 C14.468 63.033 21.414 67.411 28.354 71.802 C29.848 72.747 31.346 73.686 32.848 74.62 C34.279 75.538 35.684 76.499 37.059 77.501 C40.642 80.034 42.247 81.035 46.758 80.824 C47.748 80.62 47.748 80.62 48.759 80.412 C53.398 79.56 58.172 79.815 62.875 79.812 C63.9 79.8 64.925 79.788 65.98 79.775 C75.791 79.757 84.347 81.506 93.5 84.938 C98.076 86.616 102.589 88.217 107.312 89.438 C113.581 91.267 121.27 94.55 125.39 99.757 C127.851 102.827 129.663 104.799 133.653 105.398 C136.889 105.265 140.017 104.901 143.223 104.441 C144.989 104.234 144.989 104.234 146.791 104.022 C150.554 103.572 154.307 103.068 158.062 102.562 C160.561 102.255 163.061 101.951 165.561 101.65 C177.059 100.249 188.544 98.719 200 97 C191.421 92.364 183.579 88.516 173.926 86.641 C169.741 85.724 165.596 84.374 162 82 C161.67 81.01 161.34 80.02 161 79 C158.995 78.518 156.983 78.056 154.958 77.667 C151.443 76.875 148.062 75.786 144.652 74.637 C143.971 74.408 143.289 74.179 142.587 73.943 C141.133 73.452 139.679 72.959 138.226 72.465 C134.223 71.105 130.215 69.76 126.207 68.414 C125.37 68.133 124.533 67.851 123.671 67.561 C115.342 64.767 106.984 62.065 98.623 59.369 C84.621 54.85 70.663 50.224 56.75 45.438 C55.966 45.168 55.182 44.898 54.375 44.62 C53.592 44.351 52.81 44.082 52.004 43.805 C41.393 40.156 30.77 36.548 20.125 33 C19.396 32.757 18.668 32.514 17.917 32.264 C6.559 28.482 -4.824 24.778 -16.214 21.091 C-40.5 13.228 -40.5 13.228 -51.938 9.312 C-53.34 8.84 -53.34 8.84 -54.771 8.358 C-55.598 8.071 -56.425 7.784 -57.277 7.488 C-57.981 7.246 -58.685 7.004 -59.41 6.755 C-61 6 -61 6 -62 4 C-57.531 4.766 -53.292 6.115 -48.992 7.52 C-47.814 7.901 -47.814 7.901 -46.613 8.29 C-44.032 9.128 -41.454 9.97 -38.875 10.812 C-37.985 11.102 -37.094 11.392 -36.177 11.691 C-23.131 15.94 -10.135 20.317 2.83 24.804 C14.011 28.672 25.237 32.379 36.5 36 C48.421 39.833 60.293 43.778 72.125 47.875 C87.053 53.042 102.054 57.968 117.085 62.828 C125.713 65.62 134.333 68.431 142.926 71.332 C143.699 71.593 144.473 71.854 145.27 72.122 C148.884 73.341 152.495 74.566 156.102 75.801 C157.369 76.23 158.635 76.658 159.902 77.086 C161.534 77.644 161.534 77.644 163.199 78.212 C166.157 79.18 166.157 79.18 170 79 C170 78.34 170 77.68 170 77 C170.66 77 171.32 77 172 77 C172.168 75.208 172.334 73.417 172.5 71.625 C172.593 70.627 172.686 69.63 172.781 68.602 C173.028 66.103 173.028 66.103 173 64 C172.031 63.901 171.062 63.801 170.064 63.699 C165.46 63.034 161.309 61.463 156.977 59.816 C156.099 59.489 155.221 59.162 154.316 58.826 C151.417 57.744 148.521 56.653 145.625 55.562 C143.58 54.798 141.535 54.035 139.49 53.273 C136.285 52.078 133.08 50.883 129.876 49.685 C119.144 45.673 108.39 41.719 97.633 37.774 C94.499 36.625 91.366 35.474 88.232 34.324 C79.649 31.172 71.064 28.022 62.477 24.879 C60.026 23.982 57.576 23.085 55.125 22.188 C53.99 21.772 52.855 21.357 51.686 20.928 C44.99 18.474 38.301 16.001 31.617 13.516 C30.817 13.218 30.016 12.92 29.191 12.613 C25.274 11.157 21.357 9.698 17.442 8.237 C16.024 7.709 14.606 7.181 13.188 6.652 C12.548 6.413 11.909 6.174 11.25 5.928 C7.524 4.541 3.779 3.236 0 2 C0 1.34 0 0.68 0 0 Z " fill="#0F0F0F" transform="translate(104,20)"/>
<path d="M0 0 C1.439 -0.021 1.439 -0.021 2.906 -0.043 C5.5 0.188 5.5 0.188 8.5 2.188 C9.601 5.322 9.621 6.824 8.562 10 C8.212 10.722 7.861 11.444 7.5 12.188 C12.168 10.837 16.81 9.442 21.398 7.84 C22.066 7.609 22.734 7.378 23.422 7.139 C24.753 6.676 26.082 6.205 27.408 5.726 C32.167 4.077 32.167 4.077 35.5 5.188 C26.727 9.013 17.834 12.312 8.77 15.374 C7.283 15.88 5.799 16.393 4.317 16.913 C2.145 17.676 -0.034 18.416 -2.215 19.152 C-2.873 19.388 -3.532 19.623 -4.21 19.865 C-7.284 20.875 -9.125 21.297 -12.268 20.377 C-13.004 19.985 -13.741 19.592 -14.5 19.188 C-18.25 17.938 -19.338 18.675 -22.938 20.125 C-26.551 21.575 -28.529 22.188 -32.5 22.188 C-30.52 24.662 -30.52 24.662 -28.5 27.188 C-29.562 27.514 -30.624 27.84 -31.719 28.176 C-33.146 28.617 -34.573 29.058 -36 29.5 C-36.696 29.713 -37.392 29.927 -38.109 30.146 C-41.458 31.185 -44.739 32.279 -48.016 33.531 C-54.102 35.853 -60.342 37.74 -66.556 39.686 C-68.76 40.378 -70.962 41.079 -73.164 41.779 C-74.573 42.222 -75.982 42.664 -77.391 43.105 C-78.045 43.315 -78.699 43.524 -79.373 43.74 C-82.627 44.749 -85.042 45.188 -88.5 45.188 C-88.428 45.75 -88.356 46.312 -88.281 46.891 C-87.205 56.639 -87.414 66.395 -87.5 76.188 C-88.16 76.188 -88.82 76.188 -89.5 76.188 C-89.83 66.618 -90.16 57.048 -90.5 47.188 C-91.82 47.517 -93.14 47.847 -94.5 48.188 C-94.588 51.562 -94.641 54.937 -94.688 58.312 C-94.713 59.264 -94.738 60.215 -94.764 61.195 C-94.82 66.575 -94.734 70.639 -91.5 75.188 C-89.689 76.766 -89.689 76.766 -87.5 77.188 C-85.344 76.77 -85.344 76.77 -83.125 75.812 C-78.883 74.352 -75.494 74.111 -71.027 74.328 C-63.285 74.418 -56.755 72.687 -49.438 70.312 C-47.663 69.765 -47.663 69.765 -45.854 69.207 C-40.992 67.694 -36.209 66.129 -31.5 64.188 C-32.16 63.197 -32.82 62.208 -33.5 61.188 C-34.802 55.182 -35.15 48.289 -34.5 42.188 C-32.5 39.188 -32.5 39.188 -29.812 38.312 C-25.571 38.152 -23.18 39.104 -19.5 41.188 C-15.423 46.142 -16.114 51.597 -16.236 57.682 C-16.2 59.989 -16.123 61.963 -15.5 64.188 C-12.595 66.665 -12.595 66.665 -9.5 68.188 C-9.5 68.847 -9.5 69.507 -9.5 70.188 C-8.943 70.435 -8.386 70.683 -7.812 70.938 C-5.5 72.187 -5.5 72.187 -0.5 76.188 C-0.83 65.957 -1.16 55.727 -1.5 45.188 C-3.15 44.528 -4.8 43.868 -6.5 43.188 C-8.641 41.488 -8.641 41.488 -10.75 39.5 C-14.59 35.963 -18.568 32.755 -22.75 29.633 C-24.5 28.188 -24.5 28.188 -25.5 26.188 C-20.727 27.695 -17.617 30.377 -13.938 33.625 C-12.812 34.604 -11.686 35.582 -10.559 36.559 C-10.034 37.015 -9.509 37.471 -8.968 37.941 C-7.204 39.439 -5.377 40.834 -3.5 42.188 C-2.84 41.197 -2.18 40.208 -1.5 39.188 C-2.092 38.729 -2.683 38.27 -3.293 37.797 C-7.384 34.62 -11.468 31.439 -15.5 28.188 C-15.17 27.528 -14.84 26.868 -14.5 26.188 C-11.825 28.303 -9.162 30.431 -6.5 32.562 C-5.737 33.166 -4.974 33.769 -4.188 34.391 C-3.466 34.971 -2.744 35.551 -2 36.148 C-1.33 36.683 -0.659 37.217 0.031 37.767 C0.516 38.236 1.001 38.705 1.5 39.188 C1.5 39.847 1.5 40.507 1.5 41.188 C5.781 40.045 9.938 38.704 14.109 37.207 C15.612 36.669 15.612 36.669 17.145 36.119 C19.232 35.367 21.318 34.609 23.402 33.846 C24.399 33.491 25.395 33.135 26.422 32.77 C27.777 32.278 27.777 32.278 29.159 31.777 C31.5 31.188 31.5 31.188 34.5 32.188 C27.806 35.024 20.983 37.471 14.125 39.875 C13.245 40.184 12.365 40.494 11.458 40.813 C10.619 41.105 9.779 41.398 8.914 41.699 C8.161 41.962 7.407 42.224 6.631 42.495 C4.602 43.154 2.576 43.698 0.5 44.188 C0.572 45.362 0.644 46.536 0.719 47.746 C1.206 56.012 1.625 64.282 1.75 72.562 C1.771 73.257 1.793 73.951 1.814 74.666 C1.845 79.028 1.245 81.767 -1.5 85.188 C-8.286 89.827 -18.403 92.188 -26.5 92.188 C-26.17 92.517 -25.84 92.847 -25.5 93.188 C-22.226 92.69 -19.025 91.8 -15.812 91 C-14.913 90.791 -14.014 90.581 -13.088 90.365 C-7.9 89.083 -3.61 87.78 0.5 84.188 C1.834 81.561 1.834 81.561 2.5 78.688 C3.603 74.504 4.779 72.407 8.561 70.157 C12.674 68.101 16.947 66.485 21.25 64.875 C22.208 64.503 23.166 64.131 24.152 63.748 C25.523 63.229 25.523 63.229 26.922 62.699 C28.169 62.227 28.169 62.227 29.44 61.745 C31.5 61.188 31.5 61.188 33.5 62.188 C27.855 66.039 21.285 67.95 14.896 70.227 C13.519 70.733 13.519 70.733 12.113 71.25 C11.276 71.55 10.438 71.851 9.575 72.16 C7.176 73.133 7.176 73.133 5.5 76.188 C5.333 78.813 5.333 78.813 5.5 81.188 C6.366 81.59 6.366 81.59 7.25 82 C9.556 83.217 11.521 84.491 13.5 86.188 C13.5 86.847 13.5 87.507 13.5 88.188 C14.119 88.476 14.738 88.765 15.375 89.062 C17.5 90.188 17.5 90.188 19.5 92.188 C19.5 84.597 19.5 77.007 19.5 69.188 C19.83 69.188 20.16 69.188 20.5 69.188 C20.87 72.498 21.218 75.811 21.562 79.125 C21.666 80.051 21.77 80.977 21.877 81.932 C22.484 87.901 22.371 93.248 21.5 99.188 C18.213 99.987 16.79 100.284 13.5 99.188 C13.5 98.528 13.5 97.868 13.5 97.188 C12.634 96.785 12.634 96.785 11.75 96.375 C9.444 95.158 7.479 93.884 5.5 92.188 C5.5 91.528 5.5 90.868 5.5 90.188 C4.861 89.878 4.221 89.569 3.562 89.25 C1.5 88.188 1.5 88.188 0.5 87.188 C0.02 87.627 -0.459 88.067 -0.953 88.52 C-4.496 90.84 -8.192 91.761 -12.25 92.875 C-13.043 93.1 -13.836 93.325 -14.652 93.557 C-16.599 94.108 -18.549 94.649 -20.5 95.188 C-19.84 96.507 -19.18 97.827 -18.5 99.188 C-20.48 98.197 -22.46 97.207 -24.5 96.188 C-23.51 97.507 -22.52 98.827 -21.5 100.188 C-22.222 99.878 -22.944 99.569 -23.688 99.25 C-29.059 97.221 -32.81 97.183 -38.5 98.188 C-38.5 97.528 -38.5 96.868 -38.5 96.188 C-42.46 96.847 -46.42 97.507 -50.5 98.188 C-50.17 97.528 -49.84 96.868 -49.5 96.188 C-46.976 95.388 -44.503 94.694 -41.938 94.062 C-41.227 93.881 -40.516 93.699 -39.783 93.512 C-38.024 93.063 -36.262 92.624 -34.5 92.188 C-35.464 91.44 -36.428 90.692 -37.422 89.922 C-38.698 88.927 -39.974 87.932 -41.25 86.938 C-41.884 86.446 -42.518 85.955 -43.172 85.449 C-46.487 82.859 -49.606 80.257 -52.5 77.188 C-48.247 77.726 -45.417 80.344 -42.188 82.938 C-41.032 83.847 -39.876 84.756 -38.719 85.664 C-38.166 86.1 -37.613 86.536 -37.043 86.985 C-34.263 89.151 -31.39 91.172 -28.5 93.188 C-32.435 89.109 -36.608 85.454 -41 81.875 C-41.651 81.325 -42.302 80.775 -42.973 80.209 C-46.778 77.056 -46.778 77.056 -51.469 75.832 C-52.139 75.949 -52.809 76.067 -53.5 76.188 C-53.83 75.528 -54.16 74.868 -54.5 74.188 C-55.215 74.404 -55.931 74.621 -56.668 74.844 C-63.466 76.743 -69.44 77.442 -76.492 77.098 C-79.842 77.198 -82.368 78.039 -85.5 79.188 C-88.625 79.625 -88.625 79.625 -91.5 79.188 C-95.553 75.135 -96.59 71.672 -96.816 66.082 C-96.879 64.608 -96.879 64.608 -96.943 63.104 C-96.983 62.079 -97.022 61.055 -97.062 60 C-97.127 58.446 -97.127 58.446 -97.193 56.861 C-97.299 54.304 -97.402 51.746 -97.5 49.188 C-97.515 49.742 -97.529 50.297 -97.544 50.868 C-97.619 53.392 -97.715 55.914 -97.812 58.438 C-97.846 59.747 -97.846 59.747 -97.881 61.082 C-98.078 65.787 -98.234 68.572 -101.5 72.188 C-100.834 76.183 -99.891 77.834 -96.875 80.562 C-96.091 81.099 -95.308 81.635 -94.5 82.188 C-94.83 83.507 -95.16 84.827 -95.5 86.188 C-97.81 86.188 -100.12 86.188 -102.5 86.188 C-102.5 85.528 -102.5 84.868 -102.5 84.188 C-100.85 84.188 -99.2 84.188 -97.5 84.188 C-98.676 82.826 -98.676 82.826 -99.875 81.438 C-101.801 79.136 -103.322 76.972 -104.5 74.188 C-106.48 75.178 -106.48 75.178 -108.5 76.188 C-107.861 77.116 -107.221 78.044 -106.562 79 C-104.5 82.187 -104.5 82.187 -103.5 85.188 C-108.693 83.11 -110.205 79.028 -112.5 74.188 C-113.229 72.209 -113.928 70.217 -114.5 68.188 C-114.825 73.712 -115.021 77.623 -111.5 82.188 C-110.943 82.951 -110.386 83.714 -109.812 84.5 C-109.379 85.057 -108.946 85.614 -108.5 86.188 C-111.612 85.262 -113.189 84.606 -115.15 81.964 C-116.669 78.841 -116.848 76.901 -116.793 73.449 C-116.783 72.383 -116.774 71.316 -116.764 70.217 C-116.739 69.114 -116.713 68.011 -116.688 66.875 C-116.674 65.753 -116.66 64.631 -116.646 63.475 C-116.611 60.712 -116.562 57.95 -116.5 55.188 C-117.82 55.188 -119.14 55.188 -120.5 55.188 C-120.481 59.369 -120.429 63.549 -120.347 67.73 C-120.324 69.151 -120.31 70.572 -120.304 71.993 C-120.295 74.042 -120.254 76.088 -120.207 78.137 C-120.183 79.983 -120.183 79.983 -120.159 81.866 C-119.325 86.071 -117.78 87.511 -114.5 90.188 C-111.334 91.981 -111.334 91.981 -108.5 93.188 C-107.84 92.528 -107.18 91.868 -106.5 91.188 C-103.375 91.062 -103.375 91.062 -100.5 91.188 C-99.84 92.507 -99.18 93.827 -98.5 95.188 C-99.304 95.476 -100.109 95.765 -100.938 96.062 C-103.633 96.92 -103.633 96.92 -104.5 99.188 C-106.94 97.588 -109.377 95.983 -111.812 94.375 C-112.503 93.923 -113.193 93.471 -113.904 93.006 C-114.571 92.564 -115.238 92.123 -115.926 91.668 C-116.538 91.265 -117.151 90.861 -117.782 90.446 C-119.5 89.188 -119.5 89.188 -121.052 87.575 C-122.517 85.942 -122.517 85.942 -125.25 85.5 C-129.344 83.846 -131.047 81.512 -133.691 78.062 C-137.428 74.189 -142.164 73.791 -147.312 73.062 C-148.474 72.895 -149.635 72.727 -150.832 72.555 C-152.153 72.373 -152.153 72.373 -153.5 72.188 C-153.5 73.838 -153.5 75.488 -153.5 77.188 C-151.52 77.517 -149.54 77.847 -147.5 78.188 C-147.5 79.178 -147.5 80.168 -147.5 81.188 C-149.48 81.517 -151.46 81.847 -153.5 82.188 C-153.995 84.167 -153.995 84.167 -154.5 86.188 C-152.19 86.847 -149.88 87.507 -147.5 88.188 C-147.995 89.673 -147.995 89.673 -148.5 91.188 C-152.79 91.188 -157.08 91.188 -161.5 91.188 C-161.17 93.168 -160.84 95.147 -160.5 97.188 C-161.985 96.692 -161.985 96.692 -163.5 96.188 C-163.5 94.538 -163.5 92.887 -163.5 91.188 C-164.82 91.188 -166.14 91.188 -167.5 91.188 C-167.912 92.136 -168.325 93.085 -168.75 94.062 C-170.504 97.195 -171.209 98.053 -174.5 99.188 C-174.5 98.197 -174.5 97.207 -174.5 96.188 C-175.768 96.002 -175.768 96.002 -177.062 95.812 C-180.5 95.188 -180.5 95.188 -184.125 94.125 C-187.559 93.009 -187.559 93.009 -191.5 93.188 C-191.83 92.197 -192.16 91.207 -192.5 90.188 C-194.968 89.27 -197.271 88.565 -199.812 87.938 C-200.829 87.659 -200.829 87.659 -201.865 87.375 C-205.358 86.474 -208.079 85.816 -211.5 87.188 C-210.51 87.847 -209.52 88.507 -208.5 89.188 C-208.587 90.793 -208.696 92.397 -208.812 94 C-208.871 94.893 -208.929 95.787 -208.988 96.707 C-209.5 99.188 -209.5 99.188 -212.5 102.188 C-211.84 98.228 -211.18 94.267 -210.5 90.188 C-212.48 90.683 -212.48 90.683 -214.5 91.188 C-215.805 94.184 -215.805 94.184 -216.5 97.188 C-221.25 98.312 -221.25 98.312 -223.5 97.188 C-223.75 94.938 -223.75 94.938 -223.5 92.188 C-221.5 89.875 -221.5 89.875 -219.5 88.188 C-224.918 87.087 -228.609 87.435 -233.875 89.062 C-235.1 89.431 -236.324 89.8 -237.586 90.18 C-240.359 90.901 -240.359 90.901 -241.5 92.188 C-244.29 92.754 -247.07 93.271 -249.875 93.75 C-250.656 93.889 -251.437 94.027 -252.242 94.17 C-255.394 94.718 -258.291 95.188 -261.5 95.188 C-261.5 94.528 -261.5 93.868 -261.5 93.188 C-256.55 92.197 -256.55 92.197 -251.5 91.188 C-251.83 88.217 -252.16 85.248 -252.5 82.188 C-247.476 79.676 -245.876 80.147 -240.5 81.188 C-238.5 83.188 -238.5 83.188 -238.375 85.812 C-238.416 86.596 -238.457 87.38 -238.5 88.188 C-222.141 85.519 -222.141 85.519 -209.74 75.786 C-208.728 73.949 -207.799 72.102 -206.918 70.199 C-205.5 67.188 -205.5 67.188 -202.5 65.188 C-203.16 67.168 -203.82 69.147 -204.5 71.188 C-202.52 68.548 -200.54 65.907 -198.5 63.188 C-198.5 67.199 -200.405 69.608 -202.5 72.875 C-203.072 73.785 -203.072 73.785 -203.656 74.713 C-204.598 76.208 -205.548 77.698 -206.5 79.188 C-181.403 71.907 -156.314 64.608 -131.325 56.964 C-126.598 55.519 -121.866 54.091 -117.133 52.668 C-100.655 47.712 -84.241 42.594 -67.874 37.28 C-61.086 35.082 -54.287 32.919 -47.49 30.75 C-42.817 29.256 -38.149 27.755 -33.5 26.188 C-35.464 24.682 -37.283 23.296 -39.5 22.188 C-39.5 21.528 -39.5 20.868 -39.5 20.188 C-40.49 19.858 -41.48 19.528 -42.5 19.188 C-42.5 17.868 -42.5 16.548 -42.5 15.188 C-36.724 10.856 -30.498 10.565 -23.5 11.188 C-19.982 12.541 -17.514 14.177 -14.5 16.438 C-11.59 18.514 -11.59 18.514 -8.125 17.938 C-7.259 17.69 -6.393 17.442 -5.5 17.188 C-6.676 16.043 -6.676 16.043 -7.875 14.875 C-10.5 12.188 -10.5 12.188 -12.5 9.188 C-12.286 6.34 -11.897 4.693 -10.125 2.438 C-6.948 -0.006 -3.855 0.026 0 0 Z " fill="#191919" transform="translate(295.5,168.8125)"/>
<path d="M0 0 C1.883 1.209 3.754 2.436 5.613 3.68 C7.4 4.676 9.199 5.653 11.008 6.609 C27.795 15.728 27.795 15.728 35.801 20.242 C36.867 20.842 37.933 21.441 39.031 22.059 C41.272 23.465 42.783 24.818 44.613 26.68 C46.415 27.657 46.415 27.657 48.301 28.367 C49.94 29.017 49.94 29.017 51.613 29.68 C50.293 32.98 48.973 36.28 47.613 39.68 C43.019 38.761 40.16 37.606 36.062 35.477 C35.445 35.157 34.827 34.837 34.191 34.508 C32.888 33.832 31.586 33.152 30.285 32.47 C28.321 31.44 26.351 30.421 24.381 29.402 C18.535 26.367 12.759 23.291 7.222 19.712 C4.914 18.231 2.525 16.921 0.113 15.617 C-0.743 15.152 -1.599 14.686 -2.48 14.207 C-6.089 12.31 -9.734 10.491 -13.387 8.68 C-6.373 12.78 0.644 16.874 7.665 20.962 C10.032 22.341 12.398 23.724 14.762 25.109 C22.047 29.338 29.463 33.204 37.02 36.918 C37.623 37.218 38.226 37.519 38.848 37.828 C40.549 38.648 42.284 39.396 44.02 40.141 C46.613 41.68 46.613 41.68 47.488 43.73 C47.53 44.477 47.571 45.223 47.613 45.992 C47.675 46.731 47.737 47.469 47.801 48.23 C47.568 51.266 46.665 53.834 45.613 56.68 C35.853 52.691 26.199 48.622 16.81 43.818 C11.359 41.031 5.841 38.409 0.301 35.805 C-12.861 29.589 -25.685 22.783 -38.387 15.68 C-36.191 12.386 -35.213 11.905 -31.695 10.375 C-30.75 9.956 -29.804 9.537 -28.83 9.105 C-27.838 8.676 -26.846 8.247 -25.824 7.805 C-23.884 6.957 -21.945 6.105 -20.008 5.25 C-19.054 4.839 -18.1 4.428 -17.117 4.005 C-14.46 2.715 -12.264 1.184 -9.859 -0.516 C-5.814 -2.827 -4.024 -2.187 0 0 Z " fill="#FFFFFF" transform="translate(67.38671875,89.3203125)"/>
<path d="M0 0 C0 6.6 0 13.2 0 20 C-2.145 19.711 -4.29 19.423 -6.5 19.125 C-14.66 18.032 -22.829 17.009 -31 16 C-31 17.65 -31 19.3 -31 21 C-29.02 21.33 -27.04 21.66 -25 22 C-25 22.99 -25 23.98 -25 25 C-26.98 25.33 -28.96 25.66 -31 26 C-31.33 27.32 -31.66 28.64 -32 30 C-29.69 30.66 -27.38 31.32 -25 32 C-25.33 32.99 -25.66 33.98 -26 35 C-30.29 35 -34.58 35 -39 35 C-38.505 37.97 -38.505 37.97 -38 41 C-39.485 40.505 -39.485 40.505 -41 40 C-41 38.35 -41 36.7 -41 35 C-42.32 35 -43.64 35 -45 35 C-45.412 35.949 -45.825 36.897 -46.25 37.875 C-48.004 41.007 -48.709 41.865 -52 43 C-52 42.01 -52 41.02 -52 40 C-53.268 39.814 -53.268 39.814 -54.562 39.625 C-58 39 -58 39 -61.625 37.938 C-65.059 36.822 -65.059 36.822 -69 37 C-69.33 36.01 -69.66 35.02 -70 34 C-72.468 33.083 -74.771 32.378 -77.312 31.75 C-77.99 31.564 -78.667 31.379 -79.365 31.188 C-82.858 30.286 -85.579 29.628 -89 31 C-88.01 31.66 -87.02 32.32 -86 33 C-86.087 34.605 -86.196 36.209 -86.312 37.812 C-86.4 39.152 -86.4 39.152 -86.488 40.52 C-87 43 -87 43 -90 46 C-89.34 42.04 -88.68 38.08 -88 34 C-89.98 34.495 -89.98 34.495 -92 35 C-93.305 37.996 -93.305 37.996 -94 41 C-98.75 42.125 -98.75 42.125 -101 41 C-101.25 38.75 -101.25 38.75 -101 36 C-99 33.688 -99 33.688 -97 32 C-102.418 30.9 -106.109 31.247 -111.375 32.875 C-112.6 33.244 -113.824 33.612 -115.086 33.992 C-117.859 34.714 -117.859 34.714 -119 36 C-121.79 36.567 -124.57 37.084 -127.375 37.562 C-128.156 37.701 -128.937 37.84 -129.742 37.982 C-132.894 38.53 -135.791 39 -139 39 C-139 38.34 -139 37.68 -139 37 C-135.7 36.34 -132.4 35.68 -129 35 C-129.33 32.03 -129.66 29.06 -130 26 C-124.976 23.488 -123.376 23.959 -118 25 C-116 27 -116 27 -115.875 29.625 C-115.916 30.409 -115.957 31.192 -116 32 C-99.641 29.331 -99.641 29.331 -87.24 19.598 C-86.228 17.761 -85.299 15.914 -84.418 14.012 C-83 11 -83 11 -80 9 C-80.66 10.98 -81.32 12.96 -82 15 C-80.02 12.36 -78.04 9.72 -76 7 C-76 11.012 -77.905 13.421 -80 16.688 C-80.572 17.597 -80.572 17.597 -81.156 18.525 C-82.098 20.021 -83.048 21.511 -84 23 C-83.419 22.827 -82.837 22.654 -82.238 22.475 C-76.157 20.665 -70.073 18.866 -63.987 17.073 C-61.719 16.404 -59.453 15.732 -57.187 15.057 C-53.92 14.084 -50.65 13.121 -47.379 12.16 C-46.375 11.859 -45.372 11.558 -44.338 11.248 C-39.202 9.749 -34.338 8.694 -29.01 8.226 C-26.041 7.892 -23.31 7.057 -20.469 6.152 C-19.329 5.795 -18.19 5.437 -17.016 5.068 C-15.855 4.695 -14.695 4.322 -13.5 3.938 C-11.157 3.196 -8.813 2.455 -6.469 1.715 C-4.929 1.222 -4.929 1.222 -3.357 0.719 C-1 0 -1 0 0 0 Z " fill="#292929" transform="translate(173,225)"/>
<path d="M0 0 C6.855 1.985 13.587 4.205 20.297 6.633 C21.751 7.156 21.751 7.156 23.235 7.689 C26.408 8.832 29.579 9.978 32.75 11.125 C33.854 11.523 34.957 11.922 36.094 12.332 C51.607 17.93 67.097 23.588 82.562 29.312 C83.47 29.648 84.377 29.984 85.312 30.33 C94.053 33.566 102.791 36.807 111.528 40.054 C118.077 42.488 124.626 44.918 131.178 47.343 C134.393 48.533 137.608 49.726 140.82 50.923 C144.399 52.255 147.981 53.582 151.562 54.906 C152.632 55.306 153.702 55.707 154.804 56.119 C161.73 58.791 161.73 58.791 169 60 C172.348 58.186 172.348 58.186 175 56 C168.373 53.456 161.674 51.174 154.938 48.938 C153.758 48.545 152.579 48.153 151.365 47.749 C140.683 44.207 129.976 40.746 119.262 37.303 C118.272 36.985 118.272 36.985 117.262 36.66 C116.261 36.339 116.261 36.339 115.241 36.011 C110.205 34.391 105.174 32.759 100.145 31.121 C87.271 26.931 74.398 22.743 61.484 18.676 C60.186 18.267 60.186 18.267 58.861 17.85 C54.687 16.536 50.511 15.226 46.334 13.92 C44.82 13.446 43.307 12.971 41.793 12.496 C41.121 12.287 40.448 12.078 39.755 11.863 C35.104 10.402 30.554 8.742 26 7 C26.33 6.34 26.66 5.68 27 5 C46.921 11.258 66.828 17.545 86.625 24.188 C106.164 30.74 125.767 37.08 145.414 43.301 C146.316 43.586 147.217 43.872 148.146 44.166 C152.569 45.566 156.992 46.965 161.417 48.359 C162.239 48.619 163.061 48.879 163.907 49.146 C165.533 49.66 167.159 50.171 168.785 50.681 C172.904 51.98 176.99 53.337 181.056 54.795 C181.873 55.083 182.69 55.371 183.531 55.668 C185.08 56.218 186.624 56.782 188.163 57.361 C191.376 58.494 193.518 59.11 196.88 58.343 C199.276 57.026 199.276 57.026 201 54 C201.242 51.255 201.242 51.255 201.125 48.312 C201.107 47.319 201.089 46.325 201.07 45.301 C201.036 44.162 201.036 44.162 201 43 C200.198 42.902 199.397 42.804 198.571 42.703 C194.13 41.829 190.091 40.339 185.863 38.746 C184.518 38.247 184.518 38.247 183.145 37.737 C180.199 36.642 177.256 35.54 174.312 34.438 C172.27 33.677 170.226 32.916 168.183 32.156 C163.939 30.577 159.696 28.995 155.455 27.41 C149.104 25.038 142.75 22.674 136.395 20.312 C126.261 16.546 116.13 12.775 106 9 C106 8.34 106 7.68 106 7 C113.696 9.184 121.176 11.818 128.672 14.605 C130.506 15.283 132.339 15.96 134.173 16.638 C136.725 17.581 139.276 18.528 141.827 19.474 C144.982 20.644 148.137 21.811 151.293 22.979 C153.142 23.663 153.142 23.663 155.029 24.36 C159.877 26.153 164.725 27.943 169.574 29.733 C172.856 30.947 176.136 32.168 179.416 33.389 C181.366 34.11 183.316 34.831 185.266 35.551 C186.127 35.874 186.988 36.197 187.875 36.53 C192.565 38.254 197.181 39.605 202.081 40.593 C204.629 41.133 207.011 41.935 209.438 42.875 C210.261 43.182 211.085 43.489 211.934 43.805 C214.399 45.231 214.854 46.459 216 49 C218.354 49.688 218.354 49.688 221 50 C222.679 50.634 224.35 51.293 226 52 C226 52.66 226 53.32 226 54 C223.03 53.01 220.06 52.02 217 51 C216.629 53.042 216.629 53.042 216.25 55.125 C215.375 59.938 214.039 61.441 211 66 C218.425 69.465 218.425 69.465 226 73 C225.67 73.66 225.34 74.32 225 75 C223.949 74.518 222.899 74.036 221.816 73.539 C214.584 70.268 207.857 67.394 200 66 C197.99 65.365 195.984 64.712 194 64 C193.567 64.454 193.134 64.907 192.688 65.375 C191 67 191 67 188 69 C189.114 69.485 190.227 69.969 191.375 70.469 C199.958 74.23 208.442 78.111 216.783 82.385 C220.136 84.098 223.476 85.671 227 87 C227 87.66 227 88.32 227 89 C222.652 87.633 218.589 85.969 214.465 84.031 C213.864 83.75 213.263 83.469 212.643 83.18 C210.74 82.29 208.839 81.395 206.938 80.5 C205.033 79.606 203.127 78.712 201.221 77.82 C199.494 77.012 197.768 76.2 196.043 75.389 C193.387 74.177 190.721 73.055 188 72 C188 72.99 188 73.98 188 75 C187.34 75 186.68 75 186 75 C185.938 74.051 185.876 73.103 185.812 72.125 C185.41 70.578 185.41 70.578 185 69 C182.537 67.547 182.537 67.547 180 67 C180 66.34 180 65.68 180 65 C178.68 64.67 177.36 64.34 176 64 C176.33 64.66 176.66 65.32 177 66 C177.06 72.047 175.85 76.216 172 81 C171.34 81.66 170.68 82.32 170 83 C170.33 83.66 170.66 84.32 171 85 C166.833 84.527 164.071 83.953 161 81 C161 80.34 161 79.68 161 79 C159.269 78.669 159.269 78.669 157.504 78.332 C150.927 76.865 144.597 74.631 138.226 72.465 C134.223 71.105 130.215 69.76 126.207 68.414 C125.37 68.133 124.533 67.851 123.671 67.561 C115.342 64.767 106.984 62.065 98.623 59.369 C84.621 54.85 70.663 50.224 56.75 45.438 C55.966 45.168 55.182 44.898 54.375 44.62 C53.592 44.351 52.81 44.082 52.004 43.805 C41.393 40.156 30.77 36.548 20.125 33 C19.396 32.757 18.668 32.514 17.917 32.264 C6.559 28.482 -4.824 24.778 -16.214 21.091 C-40.5 13.228 -40.5 13.228 -51.938 9.312 C-52.872 8.998 -53.807 8.683 -54.771 8.358 C-55.598 8.071 -56.425 7.784 -57.277 7.488 C-57.981 7.246 -58.685 7.004 -59.41 6.755 C-61 6 -61 6 -62 4 C-57.531 4.766 -53.292 6.115 -48.992 7.52 C-47.814 7.901 -47.814 7.901 -46.613 8.29 C-44.032 9.128 -41.454 9.97 -38.875 10.812 C-37.539 11.247 -37.539 11.247 -36.177 11.691 C-23.131 15.94 -10.135 20.317 2.83 24.804 C14.011 28.672 25.237 32.379 36.5 36 C48.421 39.833 60.293 43.778 72.125 47.875 C87.053 53.042 102.054 57.968 117.085 62.828 C125.713 65.62 134.333 68.431 142.926 71.332 C143.699 71.593 144.473 71.854 145.27 72.122 C148.884 73.341 152.495 74.566 156.102 75.801 C157.369 76.23 158.635 76.658 159.902 77.086 C161.534 77.644 161.534 77.644 163.199 78.212 C166.157 79.18 166.157 79.18 170 79 C170 78.34 170 77.68 170 77 C170.66 77 171.32 77 172 77 C172.168 75.208 172.334 73.417 172.5 71.625 C172.593 70.627 172.686 69.63 172.781 68.602 C173.028 66.103 173.028 66.103 173 64 C172.031 63.901 171.062 63.801 170.064 63.699 C165.46 63.034 161.309 61.463 156.977 59.816 C156.099 59.489 155.221 59.162 154.316 58.826 C151.417 57.744 148.521 56.653 145.625 55.562 C143.58 54.798 141.535 54.035 139.49 53.273 C136.285 52.078 133.08 50.883 129.876 49.685 C119.144 45.673 108.39 41.719 97.633 37.774 C94.499 36.625 91.366 35.474 88.232 34.324 C79.649 31.172 71.064 28.022 62.477 24.879 C60.026 23.982 57.576 23.085 55.125 22.188 C53.99 21.772 52.855 21.357 51.686 20.928 C44.99 18.474 38.301 16.001 31.617 13.516 C30.817 13.218 30.016 12.92 29.191 12.613 C25.274 11.157 21.357 9.698 17.442 8.237 C16.024 7.709 14.606 7.181 13.188 6.652 C12.548 6.413 11.909 6.174 11.25 5.928 C7.524 4.541 3.779 3.236 0 2 C0 1.34 0 0.68 0 0 Z " fill="#050505" transform="translate(104,20)"/>
<path d="M0 0 C2.431 0.003 4.861 -0.02 7.292 -0.046 C24.715 -0.117 41.824 3.073 55.001 15.316 C58.883 19.22 62.476 22.893 64.001 28.316 C59.749 27.698 55.833 26.71 51.751 25.378 C46.213 23.63 40.722 22.297 35.001 21.316 C35.465 20.233 35.465 20.233 35.938 19.128 C37.41 15.316 37.41 15.316 38.001 11.316 C35.335 7.584 32.39 6.348 28.001 5.316 C22.187 4.777 18.259 6.049 13.001 8.316 C11.033 10.284 11.338 13.664 11.001 16.316 C11.661 16.316 12.321 16.316 13.001 16.316 C13.991 19.286 13.991 19.286 15.001 22.316 C13.999 22.509 12.998 22.702 11.966 22.902 C10.623 23.164 9.281 23.428 7.938 23.691 C7.281 23.817 6.625 23.943 5.948 24.073 C1.553 24.94 -2.707 26.032 -6.999 27.316 C-7.494 25.831 -7.494 25.831 -7.999 24.316 C-7.009 23.986 -6.019 23.656 -4.999 23.316 C-4.999 22.656 -4.999 21.996 -4.999 21.316 C-5.927 21.233 -6.856 21.151 -7.812 21.066 C-10.999 20.316 -10.999 20.316 -12.374 18.253 C-13.788 16.157 -13.788 16.157 -15.851 15.948 C-18.03 15.877 -19.867 15.839 -21.999 16.316 C-22.489 16.824 -22.979 17.331 -23.484 17.855 C-24.999 19.316 -24.999 19.316 -27.015 19.398 C-27.752 19.309 -28.49 19.22 -29.249 19.128 C-33.285 18.999 -33.752 19.109 -37.062 21.878 C-37.603 22.418 -38.145 22.958 -38.702 23.515 C-41.959 26.068 -45.524 27.567 -49.312 29.191 C-50.39 29.656 -50.39 29.656 -51.49 30.13 C-56.695 32.316 -56.695 32.316 -58.999 32.316 C-60.859 29.177 -61.443 26.956 -60.999 23.316 C-59.624 20.503 -59.624 20.503 -57.999 18.316 C-57.339 18.316 -56.679 18.316 -55.999 18.316 C-55.669 17.326 -55.339 16.336 -54.999 15.316 C-38.668 2.866 -19.979 -0.054 0 0 Z " fill="#FFFFFF" transform="translate(175.999267578125,120.684326171875)"/>
<path d="M0 0 C4.773 1.508 7.883 4.19 11.562 7.438 C12.688 8.416 13.814 9.394 14.941 10.371 C15.729 11.055 15.729 11.055 16.532 11.753 C18.296 13.252 20.123 14.646 22 16 C22.66 15.01 23.32 14.02 24 13 C23.408 12.541 22.817 12.082 22.207 11.609 C18.116 8.433 14.032 5.251 10 2 C10.33 1.34 10.66 0.68 11 0 C13.675 2.115 16.338 4.244 19 6.375 C19.763 6.978 20.526 7.582 21.312 8.203 C22.034 8.783 22.756 9.363 23.5 9.961 C24.17 10.495 24.841 11.029 25.531 11.58 C26.016 12.048 26.501 12.517 27 13 C27 13.66 27 14.32 27 15 C31.281 13.857 35.438 12.516 39.609 11.02 C40.611 10.661 41.613 10.302 42.645 9.932 C44.732 9.179 46.818 8.421 48.902 7.658 C49.899 7.303 50.895 6.948 51.922 6.582 C52.825 6.254 53.728 5.927 54.659 5.589 C57 5 57 5 60 6 C53.306 8.836 46.483 11.283 39.625 13.688 C38.745 13.997 37.865 14.306 36.958 14.625 C36.119 14.918 35.279 15.21 34.414 15.512 C33.661 15.774 32.907 16.037 32.131 16.307 C30.102 16.967 28.076 17.51 26 18 C26.108 19.762 26.108 19.762 26.219 21.559 C26.706 29.825 27.125 38.095 27.25 46.375 C27.271 47.069 27.293 47.763 27.314 48.478 C27.345 52.841 26.756 55.585 24 59 C18.826 62.47 13.098 63.561 7 64 C5.333 64.182 3.666 64.37 2 64.562 C0.667 64.709 -0.667 64.855 -2 65 C-2 64.34 -2 63.68 -2 63 C-2.582 62.726 -3.164 62.452 -3.763 62.17 C-5.95 61.026 -7.814 59.765 -9.785 58.285 C-10.481 57.764 -11.176 57.242 -11.893 56.705 C-12.609 56.163 -13.325 55.621 -14.062 55.062 C-15.142 54.255 -15.142 54.255 -16.244 53.432 C-19.384 51.067 -22.208 48.792 -25 46 C-18.73 44.02 -12.46 42.04 -6 40 C-6.495 38.639 -6.99 37.278 -7.5 35.875 C-9.468 29.356 -9.677 22.759 -9 16 C-7 13 -7 13 -4.312 12.125 C-0.071 11.965 2.32 12.917 6 15 C10.077 19.954 9.386 25.409 9.264 31.494 C9.3 33.802 9.377 35.775 10 38 C12.905 40.478 12.905 40.478 16 42 C16 42.66 16 43.32 16 44 C16.557 44.248 17.114 44.495 17.688 44.75 C20 46 20 46 25 50 C24.67 39.77 24.34 29.54 24 19 C21.525 18.01 21.525 18.01 19 17 C16.859 15.301 16.859 15.301 14.75 13.312 C10.91 9.776 6.932 6.567 2.75 3.445 C1 2 1 2 0 0 Z " fill="#020202" transform="translate(270,195)"/>
<path d="M0 0 C3.058 0.503 5.357 1.64 7.992 3.23 C8.769 3.697 9.546 4.163 10.346 4.644 C11.181 5.153 12.015 5.663 12.875 6.188 C13.746 6.715 14.617 7.242 15.515 7.786 C28.856 15.903 42.039 24.288 55 33 C45.767 40 45.767 40 39.75 40 C37 39 37 39 35.188 37.125 C32.612 34.623 30.217 34.046 26.84 33.012 C12.578 27.931 -0.797 19.288 -14 12 C-14 11.34 -14 10.68 -14 10 C-11.883 8.395 -9.773 6.903 -7.562 5.438 C-3.593 2.947 -3.593 2.947 0 0 Z " fill="#FFFFFF" transform="translate(87,70)"/>
<path d="M0 0 C3.164 1.167 6.339 2.151 9.566 3.121 C17.395 5.689 23.874 10.292 30.379 15.246 C27.303 16.784 24.695 16.872 21.379 16.246 C18.502 14.917 15.769 13.442 13.027 11.852 C2.148 7.064 -8.825 6.795 -20.495 6.91 C-23.051 6.934 -25.606 6.93 -28.162 6.924 C-35.716 6.94 -42.933 7.172 -50.383 8.477 C-56.265 9.436 -58.992 9.096 -63.996 5.871 C-65.076 5.203 -66.157 4.536 -67.27 3.848 C-68.046 3.319 -68.822 2.791 -69.621 2.246 C-66.219 -0.699 -62.527 -2.024 -58.309 -3.379 C-57.67 -3.595 -57.031 -3.812 -56.373 -4.035 C-37.713 -10.161 -17.922 -6.748 0 0 Z " fill="#FFFFFF" transform="translate(201.62109375,110.75390625)"/>
<path d="M0 0 C-0.081 3.418 -0.194 6.833 -0.312 10.25 C-0.335 11.218 -0.358 12.186 -0.381 13.184 C-0.416 14.118 -0.452 15.053 -0.488 16.016 C-0.514 16.874 -0.541 17.733 -0.568 18.618 C-1.079 21.437 -2.282 22.757 -4 25 C-3.334 28.996 -2.391 30.646 0.625 33.375 C1.409 33.911 2.192 34.447 3 35 C2.67 36.32 2.34 37.64 2 39 C-0.31 39 -2.62 39 -5 39 C-5 38.34 -5 37.68 -5 37 C-3.35 37 -1.7 37 0 37 C-0.784 36.093 -1.567 35.185 -2.375 34.25 C-4.301 31.948 -5.822 29.784 -7 27 C-8.98 27.99 -8.98 27.99 -11 29 C-10.041 30.392 -10.041 30.392 -9.062 31.812 C-7 35 -7 35 -6 38 C-11.193 35.923 -12.705 31.841 -15 27 C-15.729 25.022 -16.428 23.029 -17 21 C-17.325 26.524 -17.521 30.435 -14 35 C-13.443 35.763 -12.886 36.526 -12.312 37.312 C-11.879 37.869 -11.446 38.426 -11 39 C-14.112 38.075 -15.689 37.419 -17.65 34.777 C-19.169 31.654 -19.348 29.713 -19.293 26.262 C-19.278 24.662 -19.278 24.662 -19.264 23.029 C-19.239 21.927 -19.213 20.824 -19.188 19.688 C-19.167 18.004 -19.167 18.004 -19.146 16.287 C-19.111 13.524 -19.062 10.762 -19 8 C-20.32 8 -21.64 8 -23 8 C-22.981 12.182 -22.929 16.362 -22.847 20.543 C-22.824 21.964 -22.81 23.384 -22.804 24.805 C-22.795 26.854 -22.754 28.901 -22.707 30.949 C-22.691 32.18 -22.676 33.411 -22.659 34.678 C-21.825 38.883 -20.28 40.324 -17 43 C-13.834 44.793 -13.834 44.793 -11 46 C-10.34 45.34 -9.68 44.68 -9 44 C-5.875 43.875 -5.875 43.875 -3 44 C-2.34 45.32 -1.68 46.64 -1 48 C-1.804 48.289 -2.609 48.577 -3.438 48.875 C-6.133 49.733 -6.133 49.733 -7 52 C-9.44 50.4 -11.877 48.795 -14.312 47.188 C-15.003 46.736 -15.693 46.284 -16.404 45.818 C-17.071 45.377 -17.738 44.935 -18.426 44.48 C-19.038 44.077 -19.651 43.674 -20.282 43.259 C-22 42 -22 42 -23.552 40.388 C-25.017 38.754 -25.017 38.754 -27.75 38.312 C-31.892 36.64 -33.73 34.208 -36.484 30.777 C-37.894 28.891 -37.894 28.891 -40 28 C-40 27.34 -40 26.68 -40 26 C-35.05 26.99 -30.1 27.98 -25 29 C-25.33 22.73 -25.66 16.46 -26 10 C-29.071 10.992 -29.071 10.992 -32.203 12.004 C-34.191 12.638 -36.181 13.269 -38.17 13.9 C-39.551 14.34 -40.93 14.783 -42.308 15.23 C-44.291 15.873 -46.278 16.502 -48.266 17.129 C-49.46 17.511 -50.654 17.893 -51.884 18.287 C-54.836 18.962 -56.229 19.083 -59 18 C-51.415 15.431 -43.777 13.049 -36.125 10.688 C-25.527 7.415 -25.527 7.415 -14.949 4.078 C-14.069 3.798 -13.189 3.517 -12.283 3.228 C-10.674 2.713 -9.066 2.196 -7.459 1.677 C-2.218 0 -2.218 0 0 0 Z " fill="#000000" transform="translate(198,216)"/>
<path d="M0 0 C1.32 0.33 2.64 0.66 4 1 C4 1.66 4 2.32 4 3 C5.98 3.66 7.96 4.32 10 5 C10.281 6.515 10.523 8.038 10.75 9.562 C10.889 10.409 11.028 11.256 11.172 12.129 C10.926 16.232 9.199 18.552 7 22 C10.181 23.494 13.371 24.968 16.562 26.438 C17.458 26.858 18.353 27.279 19.275 27.713 C26.693 31.109 31.869 32.435 40 31 C43.335 30.91 46.664 30.941 50 31 C50 31.33 50 31.66 50 32 C49.085 32.205 48.17 32.41 47.227 32.621 C46.038 32.891 44.85 33.16 43.625 33.438 C42.442 33.704 41.258 33.971 40.039 34.246 C37.105 34.856 37.105 34.856 35 36 C41.435 35.505 41.435 35.505 48 35 C48.33 35.66 48.66 36.32 49 37 C47.02 37.33 45.04 37.66 43 38 C45.475 39.98 45.475 39.98 48 42 C43.395 41.232 43.395 41.232 41.215 39.949 C38.219 38.665 36.061 38.93 32.812 39.188 C32.179 39.236 31.545 39.284 30.892 39.334 C23.338 39.961 15.828 41.019 8.31 41.977 C-0.186 43.011 -8.448 43.344 -17 43 C-13.25 40 -13.25 40 -11 40 C-11 39.34 -11 38.68 -11 38 C-8.025 36.512 -4.854 36.405 -1.586 36.027 C-0.856 35.94 -0.127 35.853 0.625 35.763 C2.958 35.484 5.291 35.211 7.625 34.938 C9.206 34.75 10.786 34.562 12.367 34.373 C16.244 33.911 20.122 33.455 24 33 C15.209 28.319 7.42 24.295 -2.523 22.766 C-5 22 -5 22 -6.352 19.922 C-6.566 19.288 -6.78 18.653 -7 18 C-6.216 17.278 -5.433 16.556 -4.625 15.812 C0.145 10.702 0.227 6.704 0 0 Z " fill="#000000" transform="translate(280,84)"/>
<path d="M0 0 C1.021 0.712 1.021 0.712 2.062 1.438 C5.418 3.223 8.242 3.632 12 4 C12.495 5.485 12.495 5.485 13 7 C13.66 7.33 14.32 7.66 15 8 C15 8.66 15 9.32 15 10 C15.536 10.227 16.072 10.454 16.625 10.688 C19.757 12.418 22.28 14.685 25 17 C25.99 17.66 26.98 18.32 28 19 C20.207 22.396 11.612 26 3 26 C3 25.34 3 24.68 3 24 C2.127 23.589 2.127 23.589 1.237 23.17 C-0.95 22.026 -2.814 20.765 -4.785 19.285 C-5.481 18.764 -6.176 18.242 -6.893 17.705 C-7.609 17.163 -8.325 16.621 -9.062 16.062 C-9.782 15.524 -10.502 14.986 -11.244 14.432 C-14.352 12.091 -17.297 9.81 -20 7 C-19.145 6.735 -19.145 6.735 -18.272 6.465 C-15.701 5.667 -13.132 4.865 -10.562 4.062 C-9.665 3.785 -8.767 3.507 -7.842 3.221 C-6.988 2.953 -6.134 2.686 -5.254 2.41 C-4.463 2.164 -3.672 1.918 -2.858 1.664 C-1.011 1.153 -1.011 1.153 0 0 Z " fill="#FFFFFF" transform="translate(265,234)"/>
<path d="M0 0 C1.439 -0.021 1.439 -0.021 2.906 -0.043 C5.5 0.188 5.5 0.188 8.5 2.188 C9.601 5.322 9.621 6.824 8.562 10 C8.037 11.083 8.037 11.083 7.5 12.188 C12.168 10.837 16.81 9.442 21.398 7.84 C22.066 7.609 22.734 7.378 23.422 7.139 C24.753 6.676 26.082 6.205 27.408 5.726 C32.167 4.077 32.167 4.077 35.5 5.188 C26.727 9.013 17.834 12.312 8.77 15.374 C7.283 15.88 5.799 16.393 4.317 16.913 C2.145 17.676 -0.034 18.416 -2.215 19.152 C-2.873 19.388 -3.532 19.623 -4.21 19.865 C-7.284 20.875 -9.125 21.297 -12.268 20.377 C-13.004 19.985 -13.741 19.592 -14.5 19.188 C-18.528 17.845 -21.173 19.192 -25 20.562 C-25.677 20.797 -26.354 21.032 -27.051 21.273 C-28.87 21.905 -30.685 22.546 -32.5 23.188 C-35.5 24.188 -35.5 24.188 -37.688 23.25 C-38.585 22.724 -38.585 22.724 -39.5 22.188 C-39.5 21.528 -39.5 20.868 -39.5 20.188 C-40.49 19.858 -41.48 19.528 -42.5 19.188 C-42.5 17.868 -42.5 16.548 -42.5 15.188 C-36.724 10.856 -30.498 10.565 -23.5 11.188 C-19.982 12.541 -17.514 14.177 -14.5 16.438 C-11.59 18.514 -11.59 18.514 -8.125 17.938 C-7.259 17.69 -6.392 17.442 -5.5 17.188 C-6.284 16.424 -7.067 15.661 -7.875 14.875 C-10.5 12.188 -10.5 12.188 -12.5 9.188 C-12.286 6.34 -11.897 4.693 -10.125 2.438 C-6.948 -0.006 -3.855 0.026 0 0 Z " fill="#232323" transform="translate(295.5,168.8125)"/>
<path d="M0 0 C15.439 -0.827 32.708 3.375 45.375 12.387 C47 14 47 14 48.25 17.688 C48 21 48 21 46.75 22.5 C46.172 22.995 45.595 23.49 45 24 C44.567 25.155 44.134 26.31 43.688 27.5 C41.667 31.691 40.304 32.451 36 34 C32.047 34.977 28.34 35.129 24.273 35.133 C22.995 35.134 21.716 35.135 20.398 35.137 C19.738 35.135 19.078 35.133 18.397 35.13 C16.374 35.125 14.351 35.13 12.328 35.137 C10.414 35.135 10.414 35.135 8.461 35.133 C7.294 35.132 6.126 35.131 4.923 35.129 C2 35 2 35 -1 34 C-1 33.34 -1 32.68 -1 32 C0.277 32.024 0.277 32.024 1.579 32.048 C4.791 32.099 8.002 32.137 11.213 32.165 C12.593 32.18 13.973 32.2 15.353 32.226 C24.074 32.388 31.731 31.896 40 29 C39.505 27.02 39.505 27.02 39 25 C37.979 25.464 37.979 25.464 36.938 25.938 C30.985 28.09 24.879 28.166 18.625 28.125 C17.507 28.12 17.507 28.12 16.367 28.115 C1.98 27.98 1.98 27.98 -1 25 C-0.067 25.016 0.865 25.031 1.826 25.048 C5.313 25.099 8.8 25.136 12.287 25.165 C13.792 25.18 15.296 25.2 16.8 25.226 C18.972 25.263 21.144 25.28 23.316 25.293 C25.272 25.317 25.272 25.317 27.268 25.341 C31.526 24.952 34.192 23.868 38 22 C25.387 15.48 11.992 12.821 -2 11 C-2 10.01 -2 9.02 -2 8 C13.542 8.479 27.615 11.937 41 20 C41.495 20.99 41.495 20.99 42 22 C42.955 20.275 42.955 20.275 43 18 C33.81 7.209 17.006 4.58 3.625 3.312 C2.084 3.199 0.542 3.091 -1 3 C-0.67 2.01 -0.34 1.02 0 0 Z " fill="#080808" transform="translate(7,207)"/>
<path d="M0 0 C1.272 0.009 2.545 0.018 3.855 0.027 C5.319 0.045 5.319 0.045 6.812 0.062 C7.047 0.697 7.282 1.331 7.523 1.984 C8.635 4.245 8.635 4.245 10.977 4.891 C11.789 5.03 12.601 5.169 13.438 5.312 C14.255 5.462 15.072 5.612 15.914 5.766 C16.541 5.864 17.167 5.962 17.812 6.062 C17.153 6.393 16.493 6.722 15.812 7.062 C14.762 8.912 14.762 8.912 13.812 11.062 C13.441 11.661 13.07 12.259 12.688 12.875 C11.41 16.068 11.509 18.659 11.812 22.062 C13.212 24.347 13.212 24.347 14.812 26.062 C14.812 26.722 14.812 27.382 14.812 28.062 C15.803 28.392 16.792 28.722 17.812 29.062 C17.812 29.722 17.812 30.382 17.812 31.062 C11.457 32.582 6.895 31.229 0.812 29.062 C1.576 28.341 2.339 27.619 3.125 26.875 C6.61 23.228 8.71 20.875 9 15.75 C8.938 14.863 8.876 13.976 8.812 13.062 C4.833 11.188 1.634 10.792 -2.75 10.812 C-3.865 10.807 -4.98 10.802 -6.129 10.797 C-9.082 11.053 -10.788 11.348 -13.188 13.062 C-13.934 16.042 -13.934 16.042 -14.188 19.062 C-14.518 19.722 -14.847 20.382 -15.188 21.062 C-16.492 20.037 -17.781 18.991 -19.062 17.938 C-19.782 17.357 -20.501 16.777 -21.242 16.18 C-23.576 13.639 -24.299 11.364 -25.188 8.062 C-22.751 6.915 -20.313 5.769 -17.875 4.625 C-17.185 4.3 -16.494 3.974 -15.783 3.639 C-10.11 0.98 -6.268 -0.058 0 0 Z " fill="#FFFFFF" transform="translate(144.1875,145.9375)"/>
<path d="M0 0 C0 6.6 0 13.2 0 20 C-8.503 18.799 -16.711 17.24 -25 15 C-25 14.01 -25 13.02 -25 12 C-27.97 11.67 -30.94 11.34 -34 11 C-30.409 9.205 -27.123 8.016 -23.301 6.836 C-22.665 6.639 -22.029 6.442 -21.375 6.239 C-20.038 5.826 -18.701 5.414 -17.363 5.004 C-15.308 4.374 -13.254 3.738 -11.201 3.102 C-1.155 0 -1.155 0 0 0 Z " fill="#FFFFFF" transform="translate(173,225)"/>
<path d="M0 0 C0 0.66 0 1.32 0 2 C2.97 2.33 5.94 2.66 9 3 C9 3.99 9 4.98 9 6 C9.638 6.049 10.276 6.098 10.934 6.148 C11.76 6.223 12.586 6.298 13.438 6.375 C14.261 6.445 15.085 6.514 15.934 6.586 C16.616 6.723 17.297 6.859 18 7 C18.33 7.66 18.66 8.32 19 9 C13.72 8.34 8.44 7.68 3 7 C3 8.65 3 10.3 3 12 C5.97 12.495 5.97 12.495 9 13 C9 13.99 9 14.98 9 16 C7.02 16.33 5.04 16.66 3 17 C2.67 18.32 2.34 19.64 2 21 C3.32 21.33 4.64 21.66 6 22 C6 22.66 6 23.32 6 24 C0.06 24 -5.88 24 -12 24 C-12 23.34 -12 22.68 -12 22 C-11.34 21.67 -10.68 21.34 -10 21 C-10.66 20.67 -11.32 20.34 -12 20 C-12 17.36 -12 14.72 -12 12 C-9.69 12 -7.38 12 -5 12 C-7.31 11.67 -9.62 11.34 -12 11 C-12 9.35 -12 7.7 -12 6 C-11.34 5.67 -10.68 5.34 -10 5 C-9.67 4.01 -9.34 3.02 -9 2 C-3.211 0 -3.211 0 0 0 Z " fill="#363636" transform="translate(139,234)"/>
<path d="M0 0 C-0.081 3.418 -0.194 6.833 -0.312 10.25 C-0.346 11.702 -0.346 11.702 -0.381 13.184 C-0.416 14.118 -0.452 15.053 -0.488 16.016 C-0.514 16.874 -0.541 17.733 -0.568 18.618 C-1.079 21.437 -2.282 22.757 -4 25 C-3.334 28.996 -2.391 30.646 0.625 33.375 C1.409 33.911 2.192 34.447 3 35 C2.67 36.32 2.34 37.64 2 39 C-0.31 39 -2.62 39 -5 39 C-5 38.34 -5 37.68 -5 37 C-3.35 37 -1.7 37 0 37 C-0.784 36.113 -1.567 35.226 -2.375 34.312 C-4.572 31.693 -5.938 29.283 -7 26 C-8.98 26.33 -10.96 26.66 -13 27 C-13.33 26.01 -13.66 25.02 -14 24 C-12.35 23.67 -10.7 23.34 -9 23 C-9 22.34 -9 21.68 -9 21 C-9.804 21.186 -10.609 21.371 -11.438 21.562 C-12.283 21.707 -13.129 21.851 -14 22 C-15 21 -15 21 -15.098 17.402 C-15.091 15.914 -15.079 14.426 -15.062 12.938 C-15.058 12.179 -15.053 11.42 -15.049 10.639 C-15.037 8.759 -15.019 6.88 -15 5 C-3.452 0 -3.452 0 0 0 Z " fill="#000000" transform="translate(198,216)"/>
<path d="M0 0 C1.65 0.99 3.3 1.98 5 3 C1.888 5.075 -0.614 5.894 -4.188 6.938 C-7.653 7.953 -11.036 9.014 -14.41 10.305 C-20.532 12.639 -26.805 14.542 -33.056 16.499 C-35.26 17.191 -37.462 17.891 -39.664 18.592 C-41.073 19.034 -42.482 19.476 -43.891 19.918 C-44.545 20.127 -45.199 20.337 -45.873 20.552 C-49.127 21.561 -51.542 22 -55 22 C-54.928 22.562 -54.856 23.124 -54.781 23.703 C-53.705 33.452 -53.914 43.208 -54 53 C-54.66 53 -55.32 53 -56 53 C-56.33 43.43 -56.66 33.86 -57 24 C-58.32 24.33 -59.64 24.66 -61 25 C-61.088 28.375 -61.141 31.749 -61.188 35.125 C-61.213 36.076 -61.238 37.028 -61.264 38.008 C-61.32 43.387 -61.234 47.451 -58 52 C-56.189 53.578 -56.189 53.578 -54 54 C-51.844 53.582 -51.844 53.582 -49.625 52.625 C-45.381 51.163 -41.992 50.925 -37.523 51.145 C-29.786 51.236 -23.3 49.47 -16 47.062 C-13.668 46.321 -11.334 45.583 -9 44.848 C-7.989 44.518 -6.979 44.188 -5.938 43.848 C-2.969 42.991 -0.055 42.447 3 42 C2 44 2 44 0.234 44.778 C-0.515 45.019 -1.264 45.26 -2.035 45.508 C-2.844 45.772 -3.653 46.036 -4.486 46.309 C-5.336 46.578 -6.187 46.847 -7.062 47.125 C-7.917 47.402 -8.771 47.679 -9.65 47.965 C-11.765 48.65 -13.881 49.328 -16 50 C-15.67 50.66 -15.34 51.32 -15 52 C-17.475 52.495 -17.475 52.495 -20 53 C-20.33 52.34 -20.66 51.68 -21 51 C-21.715 51.217 -22.431 51.433 -23.168 51.656 C-29.966 53.556 -35.94 54.255 -42.992 53.91 C-46.342 54.01 -48.868 54.852 -52 56 C-55.125 56.438 -55.125 56.438 -58 56 C-62.202 51.798 -63.102 48.238 -63.316 42.457 C-63.379 40.847 -63.379 40.847 -63.443 39.205 C-63.483 38.086 -63.522 36.966 -63.562 35.812 C-63.606 34.681 -63.649 33.55 -63.693 32.385 C-63.799 29.59 -63.902 26.795 -64 24 C-53.612 20.182 -43.132 16.775 -32.562 13.5 C-29.584 12.575 -26.606 11.648 -23.629 10.719 C-22.551 10.383 -22.551 10.383 -21.452 10.04 C-14.269 7.789 -7.131 5.41 0 3 C0 2.01 0 1.02 0 0 Z " fill="#000000" transform="translate(262,192)"/>
<path d="M0 0 C3.625 -0.059 7.25 -0.094 10.875 -0.125 C11.888 -0.142 12.901 -0.159 13.945 -0.176 C23.788 -0.239 32.318 1.496 41.5 4.938 C46.076 6.616 50.589 8.217 55.312 9.438 C65.234 12.345 73.233 18.337 80 26 C79.34 26.66 78.68 27.32 78 28 C75.875 27.625 75.875 27.625 74 27 C74.495 26.505 74.495 26.505 75 26 C65.951 19.51 57.615 15.535 46.912 12.574 C43.927 11.678 41.071 10.491 38.188 9.312 C32.536 7.066 27.017 5.808 21 5 C21 4.34 21 3.68 21 3 C13.74 2.67 6.48 2.34 -1 2 C-0.67 1.34 -0.34 0.68 0 0 Z " fill="#0C0C0C" transform="translate(156,100)"/>
<path d="M0 0 C1.98 0 3.96 0 6 0 C6.33 0.66 6.66 1.32 7 2 C7.33 1.34 7.66 0.68 8 0 C15.333 0 22.667 0 30 0 C31.381 2.763 31.191 4.947 31 8 C29 10 29 10 26.877 10.227 C26.02 10.217 25.164 10.206 24.281 10.195 C22.883 10.186 22.883 10.186 21.457 10.176 C20.481 10.159 19.505 10.142 18.5 10.125 C17.036 10.111 17.036 10.111 15.543 10.098 C13.028 10.073 10.514 10.038 8 10 C7.34 10 6.68 10 6 10 C4 10 2 10 0 10 C-1.37 7.261 -1.126 5.029 -1 2 C-0.67 1.34 -0.34 0.68 0 0 Z " fill="#1E1E1E" transform="translate(304,274)"/>
<path d="M0 0 C0 3.883 -1.379 5.468 -3.5 8.688 C-4.15 9.681 -4.799 10.675 -5.469 11.699 C-5.974 12.458 -6.479 13.218 -7 14 C-8.32 13.67 -9.64 13.34 -11 13 C-11.268 13.743 -11.536 14.485 -11.812 15.25 C-12.97 17.93 -14.017 19.865 -16 22 C-18 22.688 -18 22.688 -20 23 C-20.99 23.33 -21.98 23.66 -23 24 C-24.352 24.149 -25.707 24.272 -27.062 24.375 C-35.645 25.179 -35.645 25.179 -43 29 C-45.79 29.567 -48.57 30.084 -51.375 30.562 C-52.156 30.701 -52.937 30.84 -53.742 30.982 C-56.894 31.53 -59.791 32 -63 32 C-63 31.34 -63 30.68 -63 30 C-59.7 29.34 -56.4 28.68 -53 28 C-53.33 25.03 -53.66 22.06 -54 19 C-48.976 16.488 -47.376 16.959 -42 18 C-40 20 -40 20 -39.875 22.625 C-39.916 23.409 -39.957 24.192 -40 25 C-23.641 22.331 -23.641 22.331 -11.24 12.598 C-10.228 10.761 -9.299 8.914 -8.418 7.012 C-7 4 -7 4 -4 2 C-4.66 3.98 -5.32 5.96 -6 8 C-4.02 5.36 -2.04 2.72 0 0 Z " fill="#0E0E0E" transform="translate(97,232)"/>
<path d="M0 0 C8.819 4.41 18.256 11.563 22 21 C23.788 29.278 21.841 37.37 17.418 44.578 C13.847 48.931 10.413 51.439 5 53 C4.01 52.67 3.02 52.34 2 52 C2 51.34 2 50.68 2 50 C2.675 49.72 3.351 49.441 4.047 49.152 C10.276 46.353 13.277 44.312 16 38 C15.67 37.67 15.34 37.34 15 37 C14.526 37.598 14.051 38.196 13.562 38.812 C10.073 41.791 6.364 42.769 2 44 C2 43.34 2 42.68 2 42 C2.603 41.758 3.207 41.515 3.828 41.266 C8.299 39.391 11.848 37.837 15 34 C13.884 30.139 12.975 27.705 10 25 C10 24.34 10 23.68 10 23 C9.443 22.752 8.886 22.505 8.312 22.25 C5.558 20.761 3.308 19.116 1 17 C1 16.01 1 15.02 1 14 C4.439 15.242 7.252 16.557 10 19 C10 19.66 10 20.32 10 21 C10.605 21.245 11.209 21.49 11.832 21.742 C14.393 23.228 15.237 24.572 16.688 27.125 C17.437 28.429 18.202 29.725 19 31 C19.33 31 19.66 31 20 31 C20.697 24.611 19.563 21.336 15.773 16.168 C11.977 11.527 8 7.602 3.062 4.188 C2.052 3.466 1.041 2.744 0 2 C0 1.34 0 0.68 0 0 Z " fill="#000000" transform="translate(6,128)"/>
<path d="M0 0 C0.027 2.354 0.047 4.708 0.062 7.062 C0.074 8.373 0.086 9.684 0.098 11.035 C0.005 14.816 -0.386 18.279 -1 22 C-1.927 21.711 -2.854 21.423 -3.809 21.125 C-5.006 20.754 -6.204 20.382 -7.438 20 C-8.632 19.629 -9.827 19.257 -11.059 18.875 C-13.648 17.952 -13.648 17.952 -15 18 C-15.103 12.874 -15.036 8.05 -14 3 C-12.419 2.493 -10.835 1.995 -9.25 1.5 C-7.927 1.082 -7.927 1.082 -6.578 0.656 C-4 0 -4 0 0 0 Z " fill="#FFFFFF" transform="translate(126,240)"/>
<path d="M0 0 C1.022 -0.008 2.044 -0.015 3.098 -0.023 C6.24 0.417 7.615 1.27 9.938 3.375 C9.658 7.015 9.403 9.668 7.375 12.75 C3.996 15.003 0.981 15.584 -3.062 15.375 C-6.743 13.821 -9.108 11.873 -11.062 8.375 C-11.562 5.812 -11.562 5.812 -11.062 3.375 C-7.365 0.576 -4.591 -0.035 0 0 Z " fill="#FFFFFF" transform="translate(201.0625,128.625)"/>
<path d="M0 0 C2.875 2.5 2.875 2.5 5 5 C-0.94 3.515 -0.94 3.515 -7 2 C-6.67 6.29 -6.34 10.58 -6 15 C-4.741 13.966 -4.741 13.966 -4.902 11.715 C-4.914 10.798 -4.926 9.882 -4.938 8.938 C-4.951 7.559 -4.951 7.559 -4.965 6.152 C-4.976 5.442 -4.988 4.732 -5 4 C-1.051 4.551 2.349 5.389 6 7 C6.993 12.707 7.105 18.214 7 24 C5.188 24.625 5.188 24.625 3 25 C2.01 24.34 1.02 23.68 0 23 C1.65 22.67 3.3 22.34 5 22 C4.297 19.49 4.297 19.49 3 17 C0.959 16.113 0.959 16.113 -1 16 C-1.33 17.65 -1.66 19.3 -2 21 C-2.66 20.34 -3.32 19.68 -4 19 C-4 18.01 -4 17.02 -4 16 C-4.66 16 -5.32 16 -6 16 C-4.223 19.998 -2.915 22.875 1 25 C4.151 25.72 4.151 25.72 7 26 C6.67 26.66 6.34 27.32 6 28 C0.731 27.587 -2.229 26.771 -6 23 C-8.463 19.297 -8.544 15.254 -8.812 10.938 C-8.876 10.218 -8.94 9.498 -9.006 8.756 C-9.351 3.526 -9.351 3.526 -7.691 1.035 C-4.952 -0.641 -3.137 -0.502 0 0 Z " fill="#FFFFFF" transform="translate(271,209)"/>
<path d="M0 0 C0 6.275 -2.076 10.053 -5.625 15.125 C-6.543 16.467 -7.459 17.809 -8.375 19.152 C-9.05 20.136 -9.05 20.136 -9.738 21.14 C-11.422 23.622 -13.029 26.149 -14.625 28.688 C-18.312 34.53 -22.148 40.266 -26 46 C-26.66 45.67 -27.32 45.34 -28 45 C-27.67 44.01 -27.34 43.02 -27 42 C-29.97 46.455 -29.97 46.455 -33 51 C-33.66 50.67 -34.32 50.34 -35 50 C-33.22 46.993 -31.424 43.996 -29.625 41 C-29.117 40.141 -28.609 39.283 -28.086 38.398 C-27.596 37.586 -27.106 36.774 -26.602 35.938 C-26.151 35.183 -25.701 34.429 -25.237 33.652 C-24.829 33.107 -24.421 32.562 -24 32 C-23.34 32 -22.68 32 -22 32 C-21.755 31.314 -21.51 30.628 -21.258 29.922 C-19.776 26.479 -17.902 23.389 -15.875 20.25 C-15.48 19.635 -15.084 19.021 -14.677 18.387 C-11.709 13.868 -8.446 9.801 -4.727 5.867 C-3 4 -1.491 2.058 0 0 Z " fill="#4F4F4F" transform="translate(131,177)"/>
<path d="M0 0 C0.33 0 0.66 0 1 0 C1.37 3.311 1.718 6.624 2.062 9.938 C2.166 10.864 2.27 11.79 2.377 12.744 C2.984 18.713 2.871 24.061 2 30 C-1.287 30.8 -2.71 31.097 -6 30 C-6 29.34 -6 28.68 -6 28 C-6.577 27.732 -7.155 27.464 -7.75 27.188 C-10.056 25.971 -12.021 24.697 -14 23 C-14 22.34 -14 21.68 -14 21 C-15.32 20.34 -16.64 19.68 -18 19 C-16.68 16.69 -15.36 14.38 -14 12 C-11.05 13.369 -8.475 14.878 -6 17 C-6 17.66 -6 18.32 -6 19 C-5.072 19.433 -5.072 19.433 -4.125 19.875 C-2 21 -2 21 0 23 C0 15.41 0 7.82 0 0 Z " fill="#010101" transform="translate(315,238)"/>
<path d="M0 0 C0 0.66 0 1.32 0 2 C0.99 2.33 1.98 2.66 3 3 C1.35 3 -0.3 3 -2 3 C-2 4.65 -2 6.3 -2 8 C-0.928 7.959 0.145 7.917 1.25 7.875 C4.777 7.993 6.061 8.348 9 10 C7.542 10.027 6.083 10.046 4.625 10.062 C3.813 10.074 3.001 10.086 2.164 10.098 C0 10 0 10 -2 9 C-2 9.99 -2 10.98 -2 12 C2.29 12 6.58 12 11 12 C11 12.33 11 12.66 11 13 C6.71 13 2.42 13 -2 13 C-2 14.32 -2 15.64 -2 17 C1.3 17.33 4.6 17.66 8 18 C8 18.33 8 18.66 8 19 C4.7 19 1.4 19 -2 19 C-2 19.66 -2 20.32 -2 21 C3.94 21 9.88 21 16 21 C16 20.34 16 19.68 16 19 C16.99 19.33 17.98 19.66 19 20 C18.505 21.485 18.505 21.485 18 23 C13.71 23 9.42 23 5 23 C5.33 24.98 5.66 26.96 6 29 C5.01 28.67 4.02 28.34 3 28 C3 26.35 3 24.7 3 23 C1.68 23 0.36 23 -1 23 C-1.412 23.949 -1.825 24.897 -2.25 25.875 C-4.004 29.007 -4.709 29.865 -8 31 C-8 30.01 -8 29.02 -8 28 C-9.98 27.67 -11.96 27.34 -14 27 C-14 26.34 -14 25.68 -14 25 C-11.36 25.66 -8.72 26.32 -6 27 C-6 26.34 -6 25.68 -6 25 C-6.626 24.879 -7.253 24.758 -7.898 24.633 C-8.716 24.465 -9.533 24.298 -10.375 24.125 C-11.187 23.963 -11.999 23.8 -12.836 23.633 C-15 23 -15 23 -17 21 C-12.513 21.528 -9.263 22.295 -5 24 C-4.01 13.605 -4.01 13.605 -3 3 C-4.753 3.516 -6.506 4.031 -8.312 4.562 C-13.625 6.125 -13.625 6.125 -17 5 C-4.045 0 -4.045 0 0 0 Z " fill="#000000" transform="translate(129,237)"/>
<path d="M0 0 C1.482 0.449 2.961 0.91 4.438 1.375 C5.261 1.63 6.085 1.885 6.934 2.148 C9 3 9 3 10 5 C9.984 7.242 9.984 7.242 9.75 9.875 C9.683 10.739 9.616 11.602 9.547 12.492 C8.922 15.357 7.998 16.873 6 19 C5.34 19 4.68 19 4 19 C4 19.66 4 20.32 4 21 C-0.548 21.178 -3.879 20.998 -8 19 C-7.59 18.599 -7.18 18.198 -6.758 17.785 C-1.675 12.422 0 7.354 0 0 Z " fill="#FFFFFF" transform="translate(309,64)"/>
<path d="M0 0 C3.062 1.5 3.062 1.5 5 3 C4.706 6.435 3.983 8.023 1.875 10.812 C-1 13 -1 13 -4.5 13.562 C-8.595 12.904 -10.241 12.083 -13 9 C-13.812 5.75 -13.812 5.75 -14 3 C-9.545 -0.449 -5.427 -0.765 0 0 Z " fill="#FFFFFF" transform="translate(146,159)"/>
<path d="M0 0 C4.773 1.508 7.883 4.19 11.562 7.438 C12.688 8.416 13.814 9.394 14.941 10.371 C15.466 10.827 15.991 11.283 16.532 11.753 C18.296 13.252 20.123 14.646 22 16 C22.66 15.01 23.32 14.02 24 13 C23.408 12.541 22.817 12.082 22.207 11.609 C18.116 8.433 14.032 5.251 10 2 C10.33 1.34 10.66 0.68 11 0 C13.675 2.115 16.338 4.244 19 6.375 C19.763 6.978 20.526 7.582 21.312 8.203 C22.034 8.783 22.756 9.363 23.5 9.961 C24.17 10.495 24.841 11.029 25.531 11.58 C26.016 12.048 26.501 12.517 27 13 C27 13.66 27 14.32 27 15 C31.281 13.857 35.438 12.516 39.609 11.02 C40.611 10.661 41.613 10.302 42.645 9.932 C44.732 9.179 46.818 8.421 48.902 7.658 C49.899 7.303 50.895 6.948 51.922 6.582 C52.825 6.254 53.728 5.927 54.659 5.589 C57 5 57 5 60 6 C53.306 8.836 46.483 11.283 39.625 13.688 C38.745 13.997 37.865 14.306 36.958 14.625 C36.119 14.918 35.279 15.21 34.414 15.512 C33.661 15.774 32.907 16.037 32.131 16.307 C30.102 16.967 28.076 17.51 26 18 C26.072 19.209 26.144 20.418 26.219 21.664 C26.782 31.459 27.144 41.186 27 51 C26.67 51 26.34 51 26 51 C24.857 44.381 24.67 37.767 24.438 31.062 C24.394 29.902 24.351 28.741 24.307 27.545 C24.201 24.697 24.099 21.848 24 19 C23.219 18.705 22.438 18.41 21.634 18.106 C18.728 16.886 17.035 15.466 14.75 13.312 C10.91 9.776 6.932 6.567 2.75 3.445 C1 2 1 2 0 0 Z " fill="#020202" transform="translate(270,195)"/>
<path d="M0 0 C1.32 0.33 2.64 0.66 4 1 C4 1.66 4 2.32 4 3 C5.98 3.66 7.96 4.32 10 5 C10.29 10.601 10.16 14.148 7 19 C5.188 20.938 5.188 20.938 3 22 C-0.785 21.763 -3.722 20.891 -7 19 C-6.216 18.113 -5.433 17.226 -4.625 16.312 C-0.214 10.951 0.23 6.785 0 0 Z " fill="#FFFFFF" transform="translate(280,84)"/>
<path d="M0 0 C2.31 0.66 4.62 1.32 7 2 C7 2.99 7 3.98 7 5 C5.02 5.66 3.04 6.32 1 7 C1 7.66 1 8.32 1 9 C1.99 9.33 2.98 9.66 4 10 C3.01 10.495 3.01 10.495 2 11 C2.33 11.66 2.66 12.32 3 13 C3.06 19.047 1.85 23.216 -2 28 C-2.66 28.66 -3.32 29.32 -4 30 C-3.67 30.66 -3.34 31.32 -3 32 C-7.145 31.529 -9.992 31.008 -13 28 C-13 27.01 -13 26.02 -13 25 C-10.03 25.33 -7.06 25.66 -4 26 C-4 25.34 -4 24.68 -4 24 C-3.34 24 -2.68 24 -2 24 C-1.832 22.208 -1.666 20.417 -1.5 18.625 C-1.361 17.128 -1.361 17.128 -1.219 15.602 C-0.972 13.103 -0.972 13.103 -1 11 C-2.114 10.856 -3.228 10.711 -4.375 10.562 C-8 10 -8 10 -10 9 C-10 8.34 -10 7.68 -10 7 C-9.299 7.082 -8.598 7.165 -7.875 7.25 C-4.071 6.919 -2.019 5.247 1 3 C0.67 2.01 0.34 1.02 0 0 Z " fill="#0B0B0B" transform="translate(278,73)"/>
<path d="M0 0 C2.978 0.885 4.662 1.578 6.625 4.031 C8.459 7.99 8.561 11.498 8.688 15.812 C8.739 16.995 8.739 16.995 8.791 18.201 C8.873 20.134 8.938 22.067 9 24 C8.34 24.33 7.68 24.66 7 25 C6.67 19.39 6.34 13.78 6 8 C4.35 7.67 2.7 7.34 1 7 C-1.007 6.356 -3.009 5.694 -5 5 C-4.67 8.63 -4.34 12.26 -4 16 C-4.66 16 -5.32 16 -6 16 C-7.102 11.591 -7.077 7.516 -7 3 C-3.37 3.66 0.26 4.32 4 5 C2.68 4.01 1.36 3.02 0 2 C0 1.34 0 0.68 0 0 Z M-1 16 C1.375 16.688 1.375 16.688 4 18 C5.312 20.625 5.312 20.625 6 23 C5.01 23.66 4.02 24.32 3 25 C3.99 25.66 4.98 26.32 6 27 C2.246 26.711 -0.304 26.513 -3.375 24.25 C-5.16 21.779 -5.666 20.006 -6 17 C-5.34 17 -4.68 17 -4 17 C-3.67 17.99 -3.34 18.98 -3 20 C-2.34 18.68 -1.68 17.36 -1 16 Z " fill="#030303" transform="translate(271,208)"/>
<path d="M0 0 C0.108 2.249 0.186 4.499 0.25 6.75 C0.296 8.003 0.343 9.256 0.391 10.547 C0 14 0 14 -1.848 16.402 C-4.284 18.211 -5.991 18.756 -9 19 C-10 18 -10 18 -10.098 14.621 C-10.091 13.227 -10.079 11.832 -10.062 10.438 C-10.058 9.727 -10.053 9.016 -10.049 8.283 C-10.037 6.522 -10.019 4.761 -10 3 C-8.521 2.498 -7.042 1.999 -5.562 1.5 C-4.739 1.222 -3.915 0.943 -3.066 0.656 C-1 0 -1 0 0 0 Z " fill="#FFFFFF" transform="translate(193,219)"/>
<path d="M0 0 C0 0.99 0 1.98 0 3 C3.263 6.04 7.388 7.939 11.312 10 C12.047 10.387 12.782 10.775 13.54 11.174 C25.261 17.288 37.264 22.846 49.234 28.453 C58.313 32.713 67.242 37.11 76 42 C75.01 42.495 75.01 42.495 74 43 C71.717 42.177 71.717 42.177 68.789 40.809 C67.106 40.025 67.106 40.025 65.388 39.226 C64.134 38.63 62.879 38.034 61.625 37.438 C60.322 36.824 59.02 36.21 57.717 35.596 C45.19 29.665 32.779 23.495 20.375 17.312 C18.902 16.58 18.902 16.58 17.398 15.832 C14.583 14.431 11.772 13.023 8.961 11.613 C8.114 11.192 7.268 10.771 6.395 10.336 C5.61 9.941 4.826 9.545 4.017 9.138 C3.335 8.796 2.653 8.454 1.95 8.102 C-0.203 6.885 -2.117 5.606 -4 4 C-4 3.34 -4 2.68 -4 2 C-2.68 1.34 -1.36 0.68 0 0 Z " fill="#000000" transform="translate(30,101)"/>
<path d="M0 0 C0 0.66 0 1.32 0 2 C-1.65 2.66 -3.3 3.32 -5 4 C-2.36 4 0.28 4 3 4 C2.67 4.66 2.34 5.32 2 6 C-0.71 6.494 -3.327 6.852 -6.062 7.125 C-6.862 7.21 -7.662 7.295 -8.486 7.382 C-16.333 8.15 -24.125 8.193 -32 8 C-28.25 5 -28.25 5 -26 5 C-26 4.34 -26 3.68 -26 3 C-23.808 1.904 -22.253 1.718 -19.824 1.465 C-18.996 1.378 -18.168 1.291 -17.314 1.201 C-16.448 1.114 -15.581 1.027 -14.688 0.938 C-13.405 0.801 -13.405 0.801 -12.096 0.662 C-8.049 0.245 -4.075 -0.126 0 0 Z " fill="#000000" transform="translate(295,119)"/>
<path d="M0 0 C0.33 5.28 0.66 10.56 1 16 C2.65 16 4.3 16 6 16 C6 16.66 6 17.32 6 18 C4.35 18.33 2.7 18.66 1 19 C1.33 19.66 1.66 20.32 2 21 C3.98 20.67 5.96 20.34 8 20 C7.67 20.99 7.34 21.98 7 23 C6.01 23.33 5.02 23.66 4 24 C4.639 24.928 5.279 25.856 5.938 26.812 C8 30 8 30 9 33 C3.807 30.923 2.295 26.841 0 22 C-0.729 20.022 -1.428 18.029 -2 16 C-2.325 21.524 -2.521 25.435 1 30 C1.557 30.763 2.114 31.526 2.688 32.312 C3.121 32.869 3.554 33.426 4 34 C0.888 33.075 -0.689 32.419 -2.65 29.777 C-4.169 26.654 -4.348 24.713 -4.293 21.262 C-4.278 19.662 -4.278 19.662 -4.264 18.029 C-4.239 16.927 -4.213 15.824 -4.188 14.688 C-4.174 13.565 -4.16 12.443 -4.146 11.287 C-4.111 8.524 -4.062 5.762 -4 3 C-5.32 2.67 -6.64 2.34 -8 2 C-5.094 0.743 -3.204 0 0 0 Z " fill="#000000" transform="translate(183,221)"/>
<path d="M0 0 C-5.645 3.852 -12.215 5.763 -18.604 8.039 C-19.522 8.377 -20.44 8.715 -21.387 9.062 C-22.224 9.363 -23.062 9.663 -23.925 9.973 C-26.324 10.945 -26.324 10.945 -28 14 C-28.041 15.258 -28.082 16.516 -28.125 17.812 C-28.543 21.267 -29.35 22.914 -32 25.188 C-38.471 29.529 -46.543 31.085 -54 33 C-53.34 34.32 -52.68 35.64 -52 37 C-55.465 35.02 -55.465 35.02 -59 33 C-58 31 -58 31 -56.238 30.377 C-55.485 30.204 -54.732 30.03 -53.957 29.852 C-53.13 29.65 -52.303 29.449 -51.451 29.242 C-49.712 28.835 -47.973 28.432 -46.232 28.031 C-41.143 26.788 -37.047 25.512 -33 22 C-31.666 19.373 -31.666 19.373 -31 16.5 C-29.897 12.317 -28.721 10.22 -24.939 7.969 C-20.826 5.914 -16.553 4.297 -12.25 2.688 C-11.292 2.316 -10.334 1.944 -9.348 1.561 C-8.434 1.214 -7.52 0.868 -6.578 0.512 C-5.747 0.197 -4.916 -0.118 -4.06 -0.443 C-2 -1 -2 -1 0 0 Z " fill="#090909" transform="translate(329,231)"/>
<path d="M0 0 C7.959 2.927 15.358 7.653 21 14 C21.598 14.598 22.196 15.196 22.812 15.812 C23.204 16.204 23.596 16.596 24 17 C21 18 21 18 18.979 16.996 C18.224 16.482 17.469 15.967 16.691 15.438 C15.862 14.888 15.032 14.339 14.178 13.773 C12.437 12.593 10.697 11.411 8.959 10.227 C8.128 9.677 7.297 9.128 6.441 8.562 C5.685 8.048 4.929 7.534 4.151 7.004 C1.549 5.79 0.651 6.084 -2 7 C-2.99 7 -3.98 7 -5 7 C-5 5 -5 5 -2.5 2.375 C-1.675 1.591 -0.85 0.808 0 0 Z " fill="#383838" transform="translate(88,65)"/>
<path d="M0 0 C6.538 3.344 12.8 7.037 18.938 11.062 C19.576 11.474 20.214 11.885 20.871 12.308 C24.623 14.805 27.351 17.276 30 21 C27 22 27 22 24.963 21.044 C24.202 20.548 23.441 20.053 22.656 19.543 C21.822 19.007 20.988 18.472 20.129 17.92 C19.261 17.348 18.394 16.777 17.5 16.188 C16.199 15.347 16.199 15.347 14.871 14.49 C5.078 8.156 5.078 8.156 3 4 C2.01 3.34 1.02 2.68 0 2 C0 1.34 0 0.68 0 0 Z " fill="#2F2F2F" transform="translate(106,76)"/>
<path d="M0 0 C0 3.883 -1.379 5.468 -3.5 8.688 C-4.15 9.681 -4.799 10.675 -5.469 11.699 C-5.974 12.458 -6.479 13.218 -7 14 C-8.32 13.67 -9.64 13.34 -11 13 C-11.268 13.743 -11.536 14.485 -11.812 15.25 C-12.97 17.93 -14.017 19.865 -16 22 C-18 22.688 -18 22.688 -20 23 C-20.99 23.33 -21.98 23.66 -23 24 C-24.413 24.197 -25.83 24.361 -27.25 24.5 C-31.185 24.906 -35.087 25.417 -39 26 C-36.68 23.68 -35.685 23.575 -32.527 22.984 C-20.325 20.663 -20.325 20.663 -11.455 12.673 C-10.415 10.822 -9.45 8.957 -8.523 7.047 C-7 4 -7 4 -4 2 C-4.66 3.98 -5.32 5.96 -6 8 C-4.02 5.36 -2.04 2.72 0 0 Z " fill="#020202" transform="translate(97,232)"/>
<path d="M0 0 C4.885 1.806 9.125 4.372 13.574 7.051 C17.096 9.055 20.681 10.85 24.312 12.646 C28.915 14.965 33.422 17.456 37.938 19.938 C38.85 20.437 39.762 20.937 40.701 21.451 C42.531 22.454 44.361 23.457 46.191 24.46 C50.79 26.981 55.395 29.49 60 32 C57 33 57 33 53.812 31.559 C52.536 30.862 51.266 30.154 50 29.438 C49.325 29.066 48.65 28.695 47.955 28.312 C45.965 27.216 43.982 26.109 42 25 C40.21 24.018 38.418 23.039 36.625 22.062 C35.759 21.587 34.892 21.111 34 20.621 C31.675 19.365 29.343 18.131 27 16.91 C1.913 3.826 1.913 3.826 0 0 Z " fill="#000000" transform="translate(53,97)"/>
<path d="M0 0 C4.979 0.474 8.067 1.91 12 5 C12 5.66 12 6.32 12 7 C12.541 7.25 13.083 7.5 13.641 7.758 C16.506 9.267 19.098 11.016 21.75 12.875 C22.735 13.553 23.72 14.231 24.734 14.93 C25.482 15.613 26.23 16.296 27 17 C27 18.32 27 19.64 27 21 C25.387 21.781 25.387 21.781 23 22 C20.753 20.58 18.841 19.185 16.812 17.5 C16.243 17.044 15.674 16.588 15.087 16.118 C13.933 15.193 12.784 14.263 11.638 13.329 C9.35 11.473 7.02 9.674 4.688 7.875 C3.458 6.917 2.229 5.959 1 5 C1.66 4.67 2.32 4.34 3 4 C3.565 4.424 4.13 4.848 4.712 5.285 C7.263 7.195 9.819 9.098 12.375 11 C13.709 12.002 13.709 12.002 15.07 13.023 C15.921 13.655 16.772 14.287 17.648 14.938 C18.434 15.524 19.219 16.111 20.029 16.715 C21.887 18.182 21.887 18.182 24 18 C23.047 17.252 22.095 16.505 21.113 15.734 C19.846 14.74 18.579 13.745 17.312 12.75 C16.687 12.259 16.061 11.768 15.416 11.262 C14.8 10.778 14.185 10.295 13.551 9.797 C12.945 9.323 12.339 8.849 11.714 8.36 C10.193 7.153 8.703 5.907 7.219 4.656 C4.592 2.696 3.203 2.634 0 3 C0 2.01 0 1.02 0 0 Z " fill="#000000" transform="translate(216,250)"/>
<path d="M0 0 C2.438 0.812 2.438 0.812 5 2 C5.33 2.99 5.66 3.98 6 5 C6.722 5.124 7.444 5.248 8.188 5.375 C10.957 5.99 13.397 6.884 16 8 C16 8.66 16 9.32 16 10 C13.03 9.01 10.06 8.02 7 7 C6.752 8.361 6.505 9.722 6.25 11.125 C5.375 15.938 4.039 17.441 1 22 C5.95 24.31 10.9 26.62 16 29 C15.67 29.66 15.34 30.32 15 31 C13.424 30.277 13.424 30.277 11.816 29.539 C4.596 26.274 -2.144 23.355 -10 22 C-10.66 21.67 -11.32 21.34 -12 21 C-12 20.34 -12 19.68 -12 19 C-8.37 19.66 -4.74 20.32 -1 21 C-1 20.34 -1 19.68 -1 19 C-0.361 18.505 0.279 18.01 0.938 17.5 C4.351 13.362 4 8.213 4 3 C2.68 2.67 1.36 2.34 0 2 C0 1.34 0 0.68 0 0 Z " fill="#000000" transform="translate(314,64)"/>
<path d="M0 0 C0 0.66 0 1.32 0 2 C-1.98 2.99 -1.98 2.99 -4 4 C-1.36 4 1.28 4 4 4 C3.67 4.66 3.34 5.32 3 6 C0.487 6.502 0.487 6.502 -2.828 6.852 C-4.021 6.98 -5.213 7.109 -6.441 7.242 C-7.698 7.369 -8.955 7.495 -10.25 7.625 C-11.491 7.759 -12.733 7.893 -14.012 8.031 C-24.018 9.087 -24.018 9.087 -29 9 C-26.137 6.137 -22.982 6.369 -19.125 6 C-14.605 5.563 -11.152 5.076 -7 3 C-12.94 3.33 -18.88 3.66 -25 4 C-22.173 1.173 -19.121 1.294 -15.312 0.875 C-14.617 0.789 -13.922 0.702 -13.205 0.613 C-8.774 0.092 -4.46 -0.082 0 0 Z " fill="#000000" transform="translate(269,122)"/>
<path d="M0 0 C0.076 3.964 -0.032 7.127 -1 11 C-4.63 10.34 -8.26 9.68 -12 9 C-11.67 6.69 -11.34 4.38 -11 2 C-7.123 0.807 -4.084 0 0 0 Z " fill="#FFFFFF" transform="translate(109,245)"/>
<path d="M0 0 C0 0.33 0 0.66 0 1 C-0.915 1.205 -1.83 1.41 -2.773 1.621 C-4.556 2.025 -4.556 2.025 -6.375 2.438 C-8.15 2.838 -8.15 2.838 -9.961 3.246 C-12.895 3.856 -12.895 3.856 -15 5 C-8.565 4.505 -8.565 4.505 -2 4 C-1.67 4.66 -1.34 5.32 -1 6 C-2.98 6.33 -4.96 6.66 -7 7 C-5.35 8.32 -3.7 9.64 -2 11 C-4.518 10.58 -6.619 10.213 -8.86 8.959 C-11.454 7.797 -13.159 7.851 -15.984 8.023 C-17.386 8.101 -17.386 8.101 -18.816 8.18 C-20.269 8.276 -20.269 8.276 -21.75 8.375 C-23.225 8.46 -23.225 8.46 -24.73 8.547 C-27.154 8.688 -29.577 8.839 -32 9 C-29.585 6.585 -28.441 6.607 -25.125 6.125 C-20.737 5.339 -19.01 4.333 -16 1 C-10.824 -0.479 -5.345 -0.095 0 0 Z " fill="#000000" transform="translate(330,115)"/>
<path d="M0 0 C0 3 0 3 -1 6 C0.65 4.35 2.3 2.7 4 1 C2.514 5.217 0.388 8.625 -2.125 12.312 C-2.849 13.381 -3.574 14.45 -4.32 15.551 C-5.152 16.763 -5.152 16.763 -6 18 C-6.66 17.67 -7.32 17.34 -8 17 C-7.67 16.01 -7.34 15.02 -7 14 C-8.98 16.97 -10.96 19.94 -13 23 C-13.66 22.67 -14.32 22.34 -15 22 C-13.22 18.993 -11.424 15.996 -9.625 13 C-9.117 12.141 -8.609 11.283 -8.086 10.398 C-7.351 9.18 -7.351 9.18 -6.602 7.938 C-6.151 7.183 -5.701 6.429 -5.237 5.652 C-4.625 4.834 -4.625 4.834 -4 4 C-3.34 4 -2.68 4 -2 4 C-1.34 2.68 -0.68 1.36 0 0 Z " fill="#050505" transform="translate(111,205)"/>
<path d="M0 0 C3.602 2.058 6.89 4.245 10 7 C10 7.66 10 8.32 10 9 C11.32 9.66 12.64 10.32 14 11 C13.34 12.32 12.68 13.64 12 15 C8.478 13.436 5.729 11.305 2.75 8.875 C1.858 8.151 0.966 7.426 0.047 6.68 C-0.966 5.848 -0.966 5.848 -2 5 C-1.34 3.35 -0.68 1.7 0 0 Z " fill="#FFFFFF" transform="translate(301,252)"/>
<path d="M0 0 C3.914 1.269 5.791 2.512 8 6 C6.712 6.839 5.419 7.671 4.125 8.5 C3.406 8.964 2.686 9.428 1.945 9.906 C0 11 0 11 -2 11 C-2.33 11.99 -2.66 12.98 -3 14 C-3.66 14 -4.32 14 -5 14 C-4.744 8.136 -4.342 4.342 0 0 Z " fill="#FFFFFF" transform="translate(122,121)"/>
<path d="M0 0 C2.64 0.66 5.28 1.32 8 2 C7.237 2.743 6.474 3.485 5.688 4.25 C3.561 6.426 1.744 8.522 0 11 C-2.31 10.67 -4.62 10.34 -7 10 C-7 7 -7 7 -4.625 4.312 C-2 2 -2 2 0 2 C0 1.34 0 0.68 0 0 Z " fill="#FFFFFF" transform="translate(267,236)"/>
<path d="M0 0 C4.692 3.388 9.03 6.782 13 11 C12.34 12.32 11.68 13.64 11 15 C6.212 11.464 1.535 7.855 -3 4 C-2.01 2.68 -1.02 1.36 0 0 Z " fill="#FFFFFF" transform="translate(281,236)"/>
<path d="M0 0 C4.262 0.541 7.128 3.161 10.375 5.75 C10.927 6.181 11.478 6.611 12.047 7.055 C13.708 8.357 15.357 9.675 17 11 C17.578 11.465 18.156 11.929 18.751 12.408 C20.188 13.581 21.597 14.787 23 16 C23 16.33 23 16.66 23 17 C20.064 17.697 17.127 18.383 14.188 19.062 C13.354 19.262 12.521 19.461 11.662 19.666 C10.86 19.85 10.057 20.033 9.23 20.223 C8.492 20.395 7.754 20.568 6.993 20.746 C5 21 5 21 2 20 C5.555 18.505 9.086 17.363 12.812 16.375 C14.276 15.984 14.276 15.984 15.77 15.586 C16.506 15.393 17.242 15.199 18 15 C17.036 14.252 16.072 13.505 15.078 12.734 C13.802 11.74 12.526 10.745 11.25 9.75 C10.616 9.259 9.982 8.768 9.328 8.262 C6.013 5.672 2.894 3.069 0 0 Z " fill="#000000" transform="translate(243,246)"/>
<path d="M0 0 C0 0.66 0 1.32 0 2 C-19 10 -19 10 -38 18 C-38 17.01 -38 16.02 -38 15 C-37.189 14.697 -36.378 14.394 -35.543 14.082 C-29.183 11.676 -22.951 9.127 -16.781 6.27 C-13.687 4.857 -10.57 3.512 -7.438 2.188 C-5.951 1.559 -5.951 1.559 -4.434 0.918 C-2 0 -2 0 0 0 Z " fill="#000000" transform="translate(113,155)"/>
<path d="M0 0 C0 7.169 -3.689 12.574 -8.5 17.625 C-9.325 18.409 -10.15 19.192 -11 20 C-11.763 20.763 -12.526 21.526 -13.312 22.312 C-13.869 22.869 -14.426 23.426 -15 24 C-13.076 16.45 -10.446 12.446 -5 7 C-3.25 4.716 -1.629 2.374 0 0 Z " fill="#838383" transform="translate(105,217)"/>
<path d="M0 0 C0.66 0.33 1.32 0.66 2 1 C-2.922 3.848 -7.88 6.588 -12.938 9.188 C-13.602 9.543 -14.267 9.898 -14.951 10.264 C-19.694 12.688 -23.685 13.602 -29 14 C-29 13.01 -29 12.02 -29 11 C-27.02 10.34 -25.04 9.68 -23 9 C-23 9.66 -23 10.32 -23 11 C-22.314 10.662 -21.627 10.323 -20.92 9.974 C-17.826 8.454 -14.726 6.946 -11.625 5.438 C-10.545 4.904 -9.465 4.371 -8.352 3.822 C-7.32 3.323 -6.289 2.823 -5.227 2.309 C-4.273 1.843 -3.32 1.376 -2.338 0.896 C-1.567 0.6 -0.795 0.305 0 0 Z " fill="#000000" transform="translate(55,89)"/>
<path d="M0 0 C0.33 1.32 0.66 2.64 1 4 C-0.98 3.34 -2.96 2.68 -5 2 C-5 2.66 -5 3.32 -5 4 C-2.03 4.495 -2.03 4.495 1 5 C2.125 8.75 2.125 8.75 1 11 C-1.31 11 -3.62 11 -6 11 C-6.33 9.68 -6.66 8.36 -7 7 C-6.34 7 -5.68 7 -5 7 C-5 7.66 -5 8.32 -5 9 C-3.68 9 -2.36 9 -1 9 C-1 8.34 -1 7.68 -1 7 C-2.65 6.67 -4.3 6.34 -6 6 C-6.33 4.35 -6.66 2.7 -7 1 C-4.537 -0.231 -2.72 -0.072 0 0 Z " fill="#000000" transform="translate(297,273)"/>
<path d="M0 0 C4.29 0 8.58 0 13 0 C13 1.65 13 3.3 13 5 C11.208 5.027 9.417 5.046 7.625 5.062 C6.627 5.074 5.63 5.086 4.602 5.098 C2 5 2 5 0 4 C0 2.68 0 1.36 0 0 Z " fill="#FFFFFF" transform="translate(127,250)"/>
<path d="M0 0 C4.29 0.33 8.58 0.66 13 1 C13 2.65 13 4.3 13 6 C8.71 5.67 4.42 5.34 0 5 C0 3.35 0 1.7 0 0 Z " fill="#FFFFFF" transform="translate(127,240)"/>
<path d="M0 0 C0.66 0 1.32 0 2 0 C1.347 2.005 0.678 4.004 0 6 C-0.268 6.846 -0.536 7.691 -0.812 8.562 C-2.349 11.716 -4.467 13.585 -7 16 C-8.714 17.965 -10.354 19.977 -12 22 C-12 16.144 -9.267 13.013 -5.531 8.848 C-3.254 6.099 -1.67 3.148 0 0 Z " fill="#818181" transform="translate(121,191)"/>
<path d="M0 0 C-4.106 2.882 -7.549 3.608 -12.5 4.188 C-14.434 4.425 -14.434 4.425 -16.406 4.668 C-19.306 4.936 -22.093 5.073 -25 5 C-19.174 -0.34 -7.549 -2.261 0 0 Z " fill="#FFFFFF" transform="translate(288,122)"/>
<path d="M0 0 C-4.737 3.64 -9.567 3.745 -15.312 4.188 C-16.244 4.269 -17.175 4.351 -18.135 4.436 C-20.422 4.635 -22.71 4.823 -25 5 C-18.696 -0.093 -7.894 -2.365 0 0 Z " fill="#FFFFFF" transform="translate(263,125)"/>
<path d="M0 0 C-4.106 2.882 -7.549 3.608 -12.5 4.188 C-14.434 4.425 -14.434 4.425 -16.406 4.668 C-19.306 4.936 -22.093 5.073 -25 5 C-21.301 1.498 -17.344 1.031 -12.5 0.25 C-11.741 0.112 -10.981 -0.026 -10.199 -0.168 C-6.474 -0.801 -3.613 -1.089 0 0 Z " fill="#FFFFFF" transform="translate(313,119)"/>
<path d="M0 0 C8.151 2.903 15.845 6.276 23.529 10.232 C26.966 12.001 30.379 13.642 34 15 C34 15.66 34 16.32 34 17 C29.592 15.616 25.473 13.918 21.289 11.961 C20.676 11.675 20.063 11.39 19.431 11.095 C17.495 10.191 15.56 9.283 13.625 8.375 C12.304 7.758 10.982 7.14 9.66 6.523 C6.438 5.019 3.219 3.511 0 2 C0 1.34 0 0.68 0 0 Z " fill="#000000" transform="translate(297,92)"/>
<path d="M0 0 C0.66 0.33 1.32 0.66 2 1 C-20.107 13 -20.107 13 -24 13 C-22.955 9.738 -22.036 9.019 -18.953 7.367 C-17.731 6.875 -16.509 6.382 -15.25 5.875 C-14.038 5.377 -12.827 4.88 -11.578 4.367 C-8.408 3.156 -5.222 2.064 -2 1 C-1.34 0.67 -0.68 0.34 0 0 Z " fill="#8C8C8C" transform="translate(56,87)"/>
<path d="M0 0 C2.475 0.99 2.475 0.99 5 2 C5.66 1.34 6.32 0.68 7 0 C10.125 -0.125 10.125 -0.125 13 0 C13.66 1.32 14.32 2.64 15 4 C14.196 4.289 13.391 4.577 12.562 4.875 C9.867 5.733 9.867 5.733 9 8 C7.495 7.05 5.996 6.09 4.5 5.125 C3.665 4.591 2.829 4.058 1.969 3.508 C1.319 3.01 0.669 2.513 0 2 C0 1.34 0 0.68 0 0 Z " fill="#383838" transform="translate(182,260)"/>
<path d="M0 0 C2.64 0 5.28 0 8 0 C8.33 1.65 8.66 3.3 9 5 C3.585 7.215 3.585 7.215 0.625 6.125 C0.089 5.754 -0.447 5.382 -1 5 C-0.67 3.35 -0.34 1.7 0 0 Z " fill="#040404" transform="translate(184,185)"/>
<path d="M0 0 C6.644 -0.214 12.532 0.488 19 2 C18.67 2.99 18.34 3.98 18 5 C11.73 4.34 5.46 3.68 -1 3 C-0.67 2.01 -0.34 1.02 0 0 Z " fill="#000000" transform="translate(7,207)"/>
<path d="M0 0 C0 0.66 0 1.32 0 2 C-1.531 3.508 -1.531 3.508 -3.5 5.125 C-4.15 5.664 -4.799 6.203 -5.469 6.758 C-5.974 7.168 -6.479 7.578 -7 8 C-5.184 10.159 -5.184 10.159 -2.75 10.562 C1.576 9.678 3.453 6.43 6 3 C6.99 3.33 7.98 3.66 9 4 C8.216 4.763 7.433 5.526 6.625 6.312 C3.927 8.909 3.927 8.909 2 12 C-0.059 12.363 -0.059 12.363 -2.438 12.312 C-3.22 12.309 -4.002 12.305 -4.809 12.301 C-7 12 -7 12 -10 10 C-10 7 -10 7 -8.32 5.176 C-7.596 4.561 -6.871 3.946 -6.125 3.312 C-5.406 2.69 -4.686 2.067 -3.945 1.426 C-2 0 -2 0 0 0 Z " fill="#000000" transform="translate(267,236)"/>
<path d="M0 0 C0 0.66 0 1.32 0 2 C2.64 2.33 5.28 2.66 8 3 C8 3.66 8 4.32 8 5 C2.06 5 -3.88 5 -10 5 C-9.67 4.01 -9.34 3.02 -9 2 C-3.211 0 -3.211 0 0 0 Z " fill="#6F6F6F" transform="translate(139,234)"/>
<path d="M0 0 C-0.875 3.875 -0.875 3.875 -2 5 C-4.671 5.141 -7.324 5.042 -10 5 C-10 3.68 -10 2.36 -10 1 C-6.422 -1.34 -4.078 -0.927 0 0 Z " fill="#FFFFFF" transform="translate(300,179)"/>
<path d="M0 0 C0.99 0 1.98 0 3 0 C3 4.62 3 9.24 3 14 C2.01 14 1.02 14 0 14 C0 10.7 0 7.4 0 4 C-0.99 4 -1.98 4 -3 4 C-3 3.34 -3 2.68 -3 2 C-2.01 2 -1.02 2 0 2 C0 1.34 0 0.68 0 0 Z " fill="#000000" transform="translate(67,168)"/>
<path d="M0 0 C0 0.66 0 1.32 0 2 C-5.61 3.65 -11.22 5.3 -17 7 C-16.34 8.32 -15.68 9.64 -15 11 C-18.465 9.02 -18.465 9.02 -22 7 C-21 5 -21 5 -19.174 4.314 C-18.396 4.115 -17.618 3.916 -16.816 3.711 C-15.971 3.492 -15.126 3.273 -14.256 3.047 C-13.367 2.825 -12.478 2.603 -11.562 2.375 C-10.678 2.146 -9.793 1.916 -8.881 1.68 C-2.317 0 -2.317 0 0 0 Z " fill="#000000" transform="translate(292,257)"/>
<path d="M0 0 C2.375 0.688 2.375 0.688 5 2 C6.312 4.625 6.312 4.625 7 7 C6 8 6 8 3.562 8.188 C1 8 1 8 -1 6 C-1.188 3.438 -1.188 3.438 -1 1 C-0.67 0.67 -0.34 0.34 0 0 Z " fill="#000000" transform="translate(270,224)"/>
<path d="M0 0 C4.498 1.687 8.729 3.817 13 6 C12.67 6.99 12.34 7.98 12 9 C7.173 7.587 3.284 5.57 -1 3 C-0.67 2.01 -0.34 1.02 0 0 Z " fill="#FFFFFF" transform="translate(121,112)"/>
<path d="M0 0 C0.33 1.65 0.66 3.3 1 5 C-2.3 5 -5.6 5 -9 5 C-8.625 2.562 -8.625 2.562 -8 0 C-5.138 -1.431 -3.066 -0.6 0 0 Z " fill="#FFFFFF" transform="translate(162,138)"/>
<path d="M0 0 C4.455 0.99 4.455 0.99 9 2 C9 3.98 9 5.96 9 8 C7.35 7.67 5.7 7.34 4 7 C3.897 6.361 3.794 5.721 3.688 5.062 C3.461 4.382 3.234 3.701 3 3 C2.01 2.67 1.02 2.34 0 2 C0 1.34 0 0.68 0 0 Z " fill="#FFFFFF" transform="translate(164,245)"/>
<path d="M0 0 C0.33 0.99 0.66 1.98 1 3 C-0.683 6.053 -2.149 8.388 -5 10.438 C-7.373 11.105 -8.703 10.82 -11 10 C-11 9.34 -11 8.68 -11 8 C-10.457 7.758 -9.915 7.515 -9.355 7.266 C-3.809 4.691 -3.809 4.691 0 0 Z " fill="#FFFFFF" transform="translate(195,232)"/>
<path d="M0 0 C1.32 0 2.64 0 4 0 C4.33 0.99 4.66 1.98 5 3 C3.875 5.188 3.875 5.188 2 7 C-0.688 7.25 -0.688 7.25 -3 7 C-2.25 2.25 -2.25 2.25 0 0 Z " fill="#444444" transform="translate(187,229)"/>
<path d="M0 0 C2.396 0.142 4.792 0.288 7.188 0.438 C7.861 0.477 8.535 0.516 9.229 0.557 C12.897 0.789 16.417 1.172 20 2 C20 2.33 20 2.66 20 3 C13.4 3 6.8 3 0 3 C0 2.01 0 1.02 0 0 Z " fill="#FFFFFF" transform="translate(127,246)"/>
<path d="M0 0 C3 0 6 0 9 0 C7.745 2.511 6.499 2.871 4 4 C4.33 5.32 4.66 6.64 5 8 C3.188 7.812 3.188 7.812 1 7 C-0.75 4.438 -0.75 4.438 -2 2 C-1.34 2 -0.68 2 0 2 C0 1.34 0 0.68 0 0 Z " fill="#000000" transform="translate(286,177)"/>
<path d="M0 0 C0 4.371 -2.173 6.786 -5 10 C-6.935 11.559 -8.842 12.745 -11 14 C-11.66 13.67 -12.32 13.34 -13 13 C-12.518 12.613 -12.036 12.227 -11.539 11.828 C-10.907 11.307 -10.276 10.787 -9.625 10.25 C-8.999 9.74 -8.372 9.229 -7.727 8.703 C-5.906 6.907 -5.088 5.289 -4 3 C-1.875 1.25 -1.875 1.25 0 0 Z " fill="#070707" transform="translate(86,66)"/>
<path d="M0 0 C0.66 0.33 1.32 0.66 2 1 C0.639 1.65 0.639 1.65 -0.75 2.312 C-5.489 5.378 -6.49 10.847 -8 16 C-9.339 11.983 -8.46 8.852 -7 5 C-4.7 2.106 -3.517 1.172 0 0 Z " fill="#000000" transform="translate(328,254)"/>
<path d="M0 0 C-3.088 1.765 -4.233 2 -8 2 C-8.66 3.32 -9.32 4.64 -10 6 C-10 5.01 -10 4.02 -10 3 C-12.31 3.66 -14.62 4.32 -17 5 C-14.522 2.02 -12.205 1.226 -8.5 0.25 C-7.541 -0.013 -6.582 -0.276 -5.594 -0.547 C-3 -1 -3 -1 0 0 Z " fill="#000000" transform="translate(106,245)"/>
<path d="M0 0 C2.343 0.256 4.678 0.593 7 1 C7.33 1.66 7.66 2.32 8 3 C5.03 2.505 5.03 2.505 2 2 C2.33 5.63 2.66 9.26 3 13 C2.34 13 1.68 13 1 13 C-0.102 8.591 -0.077 4.516 0 0 Z " fill="#000000" transform="translate(264,211)"/>
<path d="M0 0 C1.504 0.014 1.504 0.014 3.039 0.027 C3.81 0.039 4.581 0.051 5.375 0.062 C5.045 0.722 4.715 1.382 4.375 2.062 C1.624 2.979 0.016 3.171 -2.812 3.125 C-4.7 3.094 -4.7 3.094 -6.625 3.062 C-6.955 2.403 -7.285 1.743 -7.625 1.062 C-4.98 -0.26 -2.947 -0.034 0 0 Z " fill="#FFFFFF" transform="translate(265.625,181.9375)"/>
<path d="M0 0 C1.98 0.99 3.96 1.98 6 3 C5.67 3.66 5.34 4.32 5 5 C2.686 5.731 0.352 6.401 -2 7 C-1.34 4.69 -0.68 2.38 0 0 Z " fill="#FFFFFF" transform="translate(136,117)"/>
<path d="M0 0 C1.32 0.66 2.64 1.32 4 2 C4 2.66 4 3.32 4 4 C2.68 4 1.36 4 0 4 C-1.774 5.92 -1.774 5.92 -3 8 C-3.66 7.67 -4.32 7.34 -5 7 C-5 5 -5 5 -2.5 2.375 C-1.675 1.591 -0.85 0.808 0 0 Z " fill="#515151" transform="translate(88,65)"/>
<path d="M0 0 C-0.33 1.32 -0.66 2.64 -1 4 C-2.98 4 -4.96 4 -7 4 C-7 3.01 -7 2.02 -7 1 C-4 0 -4 0 0 0 Z " fill="#FFFFFF" transform="translate(297,173)"/>
<path d="M0 0 C0 1.65 0 3.3 0 5 C-2.64 4.34 -5.28 3.68 -8 3 C-5.226 1.15 -3.36 0 0 0 Z " fill="#FFFFFF" transform="translate(96,248)"/>
<path d="M0 0 C-5.37 3.051 -5.37 3.051 -8.312 2.812 C-10 2 -10 2 -11 0 C-3.571 -1.286 -3.571 -1.286 0 0 Z " fill="#FFFFFF" transform="translate(238,128)"/>
<path d="M0 0 C2.97 0.495 2.97 0.495 6 1 C5.67 1.99 5.34 2.98 5 4 C3.35 3.67 1.7 3.34 0 3 C0 2.01 0 1.02 0 0 Z " fill="#FFFFFF" transform="translate(47,256)"/>
<path d="M0 0 C0.33 0.66 0.66 1.32 1 2 C-0.98 4.64 -2.96 7.28 -5 10 C-5 5.882 -2.91 2.91 0 0 Z " fill="#000000" transform="translate(120,191)"/>
<path d="M0 0 C1.65 0 3.3 0 5 0 C6.062 1.812 6.062 1.812 7 4 C6.67 4.99 6.34 5.98 6 7 C5.752 6.381 5.505 5.762 5.25 5.125 C3.794 2.649 2.622 2.049 0 1 C0 0.67 0 0.34 0 0 Z " fill="#FFFFFF" transform="translate(231,132)"/>
<path d="M0 0 C0.99 0.33 1.98 0.66 3 1 C2.67 2.65 2.34 4.3 2 6 C1.01 5.67 0.02 5.34 -1 5 C-0.67 3.35 -0.34 1.7 0 0 Z " fill="#FFFFFF" transform="translate(330,276)"/>
<path d="M0 0 C1.98 0 3.96 0 6 0 C6 0.99 6 1.98 6 3 C4.02 3 2.04 3 0 3 C0 2.01 0 1.02 0 0 Z " fill="#FFFFFF" transform="translate(155,147)"/>
<path d="M0 0 C0 0.99 0 1.98 0 3 C-1.98 3.66 -3.96 4.32 -6 5 C-6 4.01 -6 3.02 -6 2 C-2.25 0 -2.25 0 0 0 Z " fill="#3F3F3F" transform="translate(32,98)"/>
<path d="M0 0 C1.562 1.25 1.562 1.25 3 3 C2.688 5.188 2.688 5.188 2 7 C1.01 6.67 0.02 6.34 -1 6 C-0.67 4.02 -0.34 2.04 0 0 Z " fill="#FFFFFF" transform="translate(306,275)"/>
<path d="M0 0 C0.66 0 1.32 0 2 0 C2.33 1.65 2.66 3.3 3 5 C3.99 5.33 4.98 5.66 6 6 C6.33 6.99 6.66 7.98 7 9 C3.175 7.549 1.809 5.618 0 2 C0 1.34 0 0.68 0 0 Z " fill="#1A1A1A" transform="translate(265,225)"/>
<path d="M0 0 C0.66 0.33 1.32 0.66 2 1 C1.01 1.33 0.02 1.66 -1 2 C-1.733 4.015 -1.733 4.015 -2 6 C-3.32 5.67 -4.64 5.34 -6 5 C-6 4.34 -6 3.68 -6 3 C-4.035 1.932 -2.031 0.934 0 0 Z " fill="#FFFFFF" transform="translate(285,77)"/>
<path d="M0 0 C1.32 0.33 2.64 0.66 4 1 C4.33 2.32 4.66 3.64 5 5 C3.68 4.67 2.36 4.34 1 4 C0.67 2.68 0.34 1.36 0 0 Z " fill="#FFFFFF" transform="translate(270,226)"/>
</svg>
