<?xml version="1.0" encoding="UTF-8"?>
<!-- Generator: visioncortex VTracer 0.6.4 -->
<svg version="1.1" xmlns="http://www.w3.org/2000/svg" width="325" height="311">
<path d="M0 0 C107.25 0 214.5 0 325 0 C325 102.63 325 205.26 325 311 C217.75 311 110.5 311 0 311 C0 208.37 0 105.74 0 0 Z " fill="#F2F2F2" transform="translate(0,0)"/>
<path d="M0 0 C1.382 2.765 1.095 5.046 1.062 8.125 C1.053 9.221 1.044 10.316 1.035 11.445 C1.018 12.71 1.018 12.71 1 14 C1.782 13.934 2.565 13.868 3.371 13.801 C6.893 13.507 10.415 13.222 13.938 12.938 C15.169 12.834 16.401 12.73 17.67 12.623 C18.84 12.53 20.01 12.436 21.215 12.34 C22.299 12.251 23.383 12.162 24.5 12.07 C25.737 12.035 25.737 12.035 27 12 C27.33 12.33 27.66 12.66 28 13 C29.562 13.047 31.125 13.037 32.688 13 C36.582 12.955 40.173 13.194 44 14 C43.959 12.907 43.917 11.814 43.875 10.688 C44 7 44 7 46 4 C48.602 3.488 48.602 3.488 51.625 3.312 C52.628 3.247 53.631 3.181 54.664 3.113 C55.435 3.076 56.206 3.039 57 3 C57 3.33 57 3.66 57 4 C52.05 4.495 52.05 4.495 47 5 C47.062 6.423 47.124 7.846 47.188 9.312 C47.372 13.559 47.372 13.559 45.488 15.793 C44.997 16.191 44.506 16.59 44 17 C44 16.34 44 15.68 44 15 C42.68 15 41.36 15 40 15 C40.153 15.838 40.307 16.676 40.465 17.539 C42.273 29.235 42.141 41.195 42 53 C41.34 53 40.68 53 40 53 C39.95 52.27 39.9 51.54 39.848 50.788 C39.613 47.421 39.369 44.054 39.125 40.688 C39.046 39.54 38.968 38.392 38.887 37.209 C38.358 30.027 37.458 23.053 36 16 C33.69 16.33 31.38 16.66 29 17 C29.99 35.315 29.99 35.315 31 54 C30.01 54.33 29.02 54.66 28 55 C27.711 50.911 27.426 46.822 27.146 42.732 C27.05 41.345 26.953 39.958 26.854 38.572 C26.712 36.561 26.574 34.55 26.438 32.539 C26.354 31.335 26.27 30.13 26.184 28.889 C25.965 24.264 26 19.63 26 15 C18.08 15.66 10.16 16.32 2 17 C2.309 19.887 2.619 22.775 2.938 25.75 C4.013 36.152 4.578 46.553 5 57 C12.793 57.139 20.431 56.736 28.188 56 C29.235 55.905 30.282 55.809 31.361 55.711 C33.908 55.478 36.454 55.241 39 55 C38.67 55.66 38.34 56.32 38 57 C35.016 57.471 35.016 57.471 31.035 57.781 C30.328 57.84 29.62 57.899 28.892 57.96 C26.616 58.149 24.339 58.325 22.062 58.5 C8.431 59.527 8.431 59.527 -5 62 C-5 62.99 -5 63.98 -5 65 C-1.5 64.69 2 64.376 5.5 64.062 C6.482 63.975 7.465 63.888 8.477 63.799 C12.716 63.417 16.94 63.027 21.156 62.438 C25.47 61.947 29.665 61.889 34 61.938 C34.775 61.942 35.549 61.947 36.348 61.951 C38.232 61.963 40.116 61.981 42 62 C42.33 61.01 42.66 60.02 43 59 C43.33 60.65 43.66 62.3 44 64 C42.958 63.977 41.917 63.954 40.844 63.93 C32.037 63.796 23.613 64.263 14.895 65.488 C8.947 66.27 2.988 66.644 -3 67 C0.651 68.217 3.665 67.821 7.414 67.441 C8.143 67.373 8.872 67.305 9.623 67.235 C11.958 67.017 14.291 66.79 16.625 66.562 C35.11 64.774 35.11 64.774 43 65 C43 65.33 43 65.66 43 66 C32.576 67.543 22.134 68.44 11.625 69.188 C9.672 69.331 9.672 69.331 7.679 69.478 C6.457 69.561 5.235 69.645 3.977 69.73 C2.874 69.807 1.771 69.883 0.635 69.962 C-2 70 -2 70 -4 69 C-4 70.98 -4 72.96 -4 75 C-6.961 71.716 -7.343 69.491 -7.438 65.125 C-7.798 59.926 -8.128 56.78 -12 53 C-20.065 47.59 -28.501 46.721 -38 48 C-45.528 50.31 -50.116 54.217 -54.145 60.898 C-55.165 63.405 -55.061 64.9 -54.688 67.562 C-54.588 68.327 -54.489 69.091 -54.387 69.879 C-54.019 72.178 -54.019 72.178 -53 75 C-53 76.32 -53 77.64 -53 79 C-52.552 80.537 -52.05 82.059 -51.5 83.562 C-50.492 86.33 -50 88.013 -50 91 C-50.66 91 -51.32 91 -52 91 C-52.33 89.35 -52.66 87.7 -53 86 C-53 87.98 -53 89.96 -53 92 C-51.35 92.33 -49.7 92.66 -48 93 C-48.99 93.495 -48.99 93.495 -50 94 C-49.988 94.771 -49.977 95.542 -49.965 96.336 C-49.956 97.339 -49.947 98.342 -49.938 99.375 C-49.926 100.373 -49.914 101.37 -49.902 102.398 C-50 105 -50 105 -51 107 C-50.876 109.293 -50.676 111.583 -50.441 113.867 C-50.301 115.313 -50.16 116.758 -50.021 118.204 C-49.946 118.966 -49.87 119.729 -49.793 120.514 C-48.177 137.071 -47.607 153.357 -48 170 C-48.33 170 -48.66 170 -49 170 C-49.02 169.386 -49.04 168.773 -49.06 168.14 C-49.586 152.396 -50.492 136.711 -51.729 121.007 C-52.006 117.485 -52.273 113.962 -52.539 110.439 C-52.713 108.19 -52.887 105.941 -53.062 103.691 C-53.142 102.643 -53.221 101.594 -53.302 100.514 C-53.418 99.073 -53.418 99.073 -53.535 97.604 C-53.634 96.338 -53.634 96.338 -53.735 95.046 C-53.894 92.938 -53.894 92.938 -55 91 C-55.207 89.505 -55.367 88.003 -55.5 86.5 C-55.582 85.613 -55.665 84.726 -55.75 83.812 C-55.917 81.938 -56.083 80.062 -56.25 78.188 C-56.332 77.301 -56.415 76.414 -56.5 75.5 C-56.572 74.685 -56.644 73.871 -56.719 73.031 C-56.898 70.937 -56.898 70.937 -58 69 C-59.052 69.402 -59.052 69.402 -60.125 69.812 C-63 70 -63 70 -66.062 67.812 C-67.834 66.199 -69.369 64.571 -70.938 62.75 C-73.856 60.273 -76.23 60.198 -80 60 C-82.812 60.36 -82.812 60.36 -85 61 C-85 61.66 -85 62.32 -85 63 C-85.762 63.375 -86.524 63.75 -87.309 64.137 C-93.632 67.271 -99.87 70.501 -106 74 C-104.086 79.942 -104.086 79.942 -101.812 85.75 C-100.895 88.291 -100.847 90.318 -101 93 C-102.71 89.691 -104.182 86.308 -105.625 82.875 C-106.071 81.821 -106.517 80.766 -106.977 79.68 C-108 77 -108 77 -108 75 C-108.66 75 -109.32 75 -110 75 C-110 75.66 -110 76.32 -110 77 C-110.619 77.289 -111.237 77.577 -111.875 77.875 C-114.133 78.937 -114.133 78.937 -116 81 C-117.877 81.905 -119.755 82.81 -121.633 83.715 C-125.281 85.695 -128.561 88.15 -131.898 90.609 C-134 92 -134 92 -136 92 C-136 92.66 -136 93.32 -136 94 C-137.801 95.227 -137.801 95.227 -140.312 96.625 C-145.41 99.563 -150.065 102.908 -154.75 106.461 C-157 108 -157 108 -159 108 C-159 108.66 -159 109.32 -159 110 C-160.744 111.42 -160.744 111.42 -163.156 113.039 C-164.013 113.619 -164.871 114.199 -165.754 114.797 C-166.66 115.4 -167.566 116.003 -168.5 116.625 C-169.406 117.236 -170.312 117.847 -171.246 118.477 C-173.493 119.991 -175.745 121.498 -178 123 C-178.33 122.01 -178.66 121.02 -179 120 C-176.525 119.01 -176.525 119.01 -174 118 C-174 117.34 -174 116.68 -174 116 C-171.742 114.202 -169.487 112.525 -167.125 110.875 C-166.474 110.407 -165.823 109.939 -165.152 109.457 C-160.264 106 -160.264 106 -158 106 C-158 105.34 -158 104.68 -158 104 C-157.01 104 -156.02 104 -155 104 C-155 103.34 -155 102.68 -155 102 C-150.615 99 -150.615 99 -148 99 C-148 98.34 -148 97.68 -148 97 C-141.25 93 -141.25 93 -139 93 C-139 92.34 -139 91.68 -139 91 C-136.98 89.52 -136.98 89.52 -134.188 87.812 C-133.182 87.191 -132.177 86.57 -131.141 85.93 C-130.104 85.293 -129.068 84.656 -128 84 C-126.144 82.816 -124.29 81.628 -122.438 80.438 C-117.346 77.198 -112.195 74.071 -107 71 C-106.316 70.584 -105.631 70.167 -104.926 69.738 C-100.343 67 -100.343 67 -97 67 C-97 66.34 -97 65.68 -97 65 C-95.961 64.492 -94.922 63.984 -93.852 63.461 C-86.633 59.905 -79.572 56.339 -72.82 51.934 C-72.22 51.626 -71.619 51.317 -71 51 C-70.34 51.33 -69.68 51.66 -69 52 C-69.99 52.99 -69.99 52.99 -71 54 C-69.02 54.33 -67.04 54.66 -65 55 C-65.33 47.74 -65.66 40.48 -66 33 C-68.31 33 -70.62 33 -73 33 C-73 33.66 -73 34.32 -73 35 C-72.361 35.248 -71.721 35.495 -71.062 35.75 C-69 37 -69 37 -68.25 39.125 C-68.168 39.744 -68.085 40.363 -68 41 C-68.474 40.34 -68.949 39.68 -69.438 39 C-72.647 36.495 -74.4 36.421 -78.379 36.617 C-87.636 37.969 -95.229 42.035 -103 47 C-104.637 47.974 -106.282 48.933 -107.938 49.875 C-108.648 50.285 -109.358 50.695 -110.09 51.117 C-112 52 -112 52 -115 52 C-115 52.66 -115 53.32 -115 54 C-115.69 54.375 -116.379 54.75 -117.09 55.137 C-121.609 57.598 -126.127 60.063 -130.625 62.562 C-131.7 63.158 -131.7 63.158 -132.797 63.766 C-134.356 64.639 -135.907 65.526 -137.453 66.422 C-138.652 67.11 -138.652 67.11 -139.875 67.812 C-140.594 68.231 -141.314 68.65 -142.055 69.082 C-144 70 -144 70 -147 70 C-147 70.66 -147 71.32 -147 72 C-147.762 72.364 -148.524 72.727 -149.309 73.102 C-155.255 75.997 -160.805 79.009 -166.16 82.898 C-168 84 -168 84 -171 84 C-171 84.66 -171 85.32 -171 86 C-172.98 86.495 -172.98 86.495 -175 87 C-175 87.66 -175 88.32 -175 89 C-176.98 89.495 -176.98 89.495 -179 90 C-178.63 87.374 -178.31 86.264 -176.258 84.516 C-175.554 84.098 -174.85 83.68 -174.125 83.25 C-173.426 82.822 -172.728 82.394 -172.008 81.953 C-170 81 -170 81 -167 81 C-167 80.34 -167 79.68 -167 79 C-165.566 77.918 -165.566 77.918 -163.562 76.758 C-162.466 76.118 -162.466 76.118 -161.348 75.465 C-160.573 75.023 -159.798 74.581 -159 74.125 C-157.884 73.473 -157.884 73.473 -156.746 72.809 C-143.263 65 -143.263 65 -139 65 C-139 64.34 -139 63.68 -139 63 C-136.525 62.505 -136.525 62.505 -134 62 C-134 61.34 -134 60.68 -134 60 C-132.733 59.326 -131.461 58.661 -130.188 58 C-129.48 57.629 -128.772 57.257 -128.043 56.875 C-126 56 -126 56 -123 56 C-122.67 54.68 -122.34 53.36 -122 52 C-120.68 52.33 -119.36 52.66 -118 53 C-118 52.34 -118 51.68 -118 51 C-117.34 51 -116.68 51 -116 51 C-115.67 50.01 -115.34 49.02 -115 48 C-113.68 48 -112.36 48 -111 48 C-108.685 46.704 -108.685 46.704 -106.438 45 C-102.319 42 -102.319 42 -99 42 C-99.495 41.072 -99.99 40.144 -100.5 39.188 C-102 36 -102 36 -102 33 C-102.66 33 -103.32 33 -104 33 C-105.389 31.039 -106.726 29.038 -108 27 C-107.67 26.34 -107.34 25.68 -107 25 C-103 29.75 -103 29.75 -103 32 C-102.34 32 -101.68 32 -101 32 C-100.01 34.31 -99.02 36.62 -98 39 C-97.359 38.795 -96.719 38.59 -96.059 38.379 C-91.027 36.812 -86.24 35.57 -81 35 C-81 33.35 -81 31.7 -81 30 C-79.35 30 -77.7 30 -76 30 C-75.711 29.257 -75.422 28.515 -75.125 27.75 C-74.177 25.433 -73.152 23.221 -72 21 C-71.34 21 -70.68 21 -70 21 C-69.505 19.515 -69.505 19.515 -69 18 C-66.056 16.822 -65.1 16.967 -62 18 C-62 17.34 -62 16.68 -62 16 C-60.68 15.67 -59.36 15.34 -58 15 C-58.33 15.66 -58.66 16.32 -59 17 C-59.66 17 -60.32 17 -61 17 C-60.67 17.557 -60.34 18.114 -60 18.688 C-58.869 21.303 -58.843 23.181 -59 26 C-58.01 25.505 -58.01 25.505 -57 25 C-53.626 24.724 -50.252 24.553 -46.871 24.379 C-45.924 24.254 -44.976 24.129 -44 24 C-42.688 21.375 -42.938 19.425 -43 16.5 C-43.111 11.222 -43.111 11.222 -42 9 C-39.686 8.269 -37.352 7.599 -35 7 C-34.67 5.68 -34.34 4.36 -34 3 C-34 4.32 -34 5.64 -34 7 C-25.585 6.505 -25.585 6.505 -17 6 C-16.67 6.99 -16.34 7.98 -16 9 C-15.938 8.381 -15.876 7.762 -15.812 7.125 C-15.544 6.424 -15.276 5.722 -15 5 C-13.354 4.283 -11.686 3.617 -10 3 C-9.34 2.01 -8.68 1.02 -8 0 C-5.061 -1.175 -2.954 -1.12 0 0 Z " fill="#0E0E0E" transform="translate(182,129)"/>
<path d="M0 0 C0.33 0 0.66 0 1 0 C1 2.31 1 4.62 1 7 C1.99 7.33 2.98 7.66 4 8 C4.702 9.652 5.37 11.319 6 13 C6.99 13.495 6.99 13.495 8 14 C9.732 18.278 10.42 22.44 11 27 C11.32 28.669 11.647 30.337 12 32 C12.99 32 13.98 32 15 32 C17.825 41.138 16.926 49.254 13 58 C11.453 60.449 9.756 62.689 8 65 C7.505 66.485 7.505 66.485 7 68 C7.722 68.206 8.444 68.412 9.188 68.625 C12.923 70.451 14.436 72.743 17 76 C17.66 76.33 18.32 76.66 19 77 C19 77.66 19 78.32 19 79 C20.485 79.495 20.485 79.495 22 80 C22.949 82.949 22.949 82.949 23.688 86.688 C23.939 87.908 24.19 89.129 24.449 90.387 C24.949 93.667 25.107 96.691 25 100 C24.67 100 24.34 100 24 100 C23.01 96.04 23.01 96.04 22 92 C21.257 92.763 20.515 93.526 19.75 94.312 C15.876 98.098 13.444 100.244 8 101 C8.33 101.99 8.66 102.98 9 104 C7.68 105.32 6.36 106.64 5 108 C5.66 106.02 6.32 104.04 7 102 C6.34 102 5.68 102 5 102 C5 101.34 5 100.68 5 100 C4.34 100 3.68 100 3 100 C3 99.34 3 98.68 3 98 C1.35 98 -0.3 98 -2 98 C-2 97.34 -2 96.68 -2 96 C-2.557 95.794 -3.114 95.588 -3.688 95.375 C-8.428 92.556 -11.358 87.727 -14 83 C-14.978 83.398 -14.978 83.398 -15.977 83.805 C-16.851 84.158 -17.725 84.511 -18.625 84.875 C-19.484 85.223 -20.342 85.571 -21.227 85.93 C-22.142 86.283 -23.057 86.636 -24 87 C-24.929 87.366 -25.859 87.732 -26.816 88.109 C-35.314 90.487 -46.38 90.503 -54.207 86.203 C-58.812 83.113 -62.56 80.15 -65 75 C-65 74.01 -65 73.02 -65 72 C-65.722 71.773 -66.444 71.546 -67.188 71.312 C-72.695 68.742 -75.947 64.124 -79 59 C-79.369 57.676 -79.711 56.344 -80 55 C-79.408 55.133 -78.817 55.266 -78.207 55.402 C-77.417 55.579 -76.627 55.756 -75.812 55.938 C-75.035 56.112 -74.258 56.286 -73.457 56.465 C-72.646 56.641 -71.835 56.818 -71 57 C-70.175 57.18 -69.35 57.361 -68.5 57.547 C-55.236 59.951 -41.425 56.156 -30.137 49.172 C-28 48 -28 48 -25 48 C-25 47.34 -25 46.68 -25 46 C-23.137 44.273 -23.137 44.273 -20.688 42.375 C-19.887 41.743 -19.086 41.112 -18.262 40.461 C-16 39 -16 39 -13 39 C-12.903 38.437 -12.807 37.873 -12.707 37.293 C-11.839 34.479 -10.456 32.664 -8.688 30.312 C-1.54 20.2 -0.298 12.148 0 0 Z " fill="#DDDDDD" transform="translate(124,32)"/>
<path d="M0 0 C0.33 0.66 0.66 1.32 1 2 C-0.438 4.625 -0.438 4.625 -2 7 C1.3 7 4.6 7 8 7 C8 7.66 8 8.32 8 9 C2.753 9.194 -2.493 9.372 -7.741 9.537 C-9.523 9.595 -11.304 9.657 -13.086 9.724 C-15.66 9.819 -18.234 9.899 -20.809 9.977 C-21.593 10.009 -22.378 10.041 -23.187 10.074 C-28.001 10.202 -32.258 9.688 -36.927 8.499 C-41.22 7.465 -45.586 7 -50 7 C-49.319 8.609 -49.319 8.609 -48.625 10.25 C-44.966 20.104 -44.685 30.46 -44.586 40.859 C-44.567 42.13 -44.547 43.4 -44.527 44.709 C-44.478 48.043 -44.437 51.377 -44.399 54.711 C-44.359 58.13 -44.308 61.549 -44.258 64.969 C-44.162 71.646 -44.078 78.323 -44 85 C-39.71 85 -35.42 85 -31 85 C-31 85.66 -31 86.32 -31 87 C-33.64 87.33 -36.28 87.66 -39 88 C-39 87.67 -39 87.34 -39 87 C-40.98 86.67 -42.96 86.34 -45 86 C-44.505 91.445 -44.505 91.445 -44 97 C-43.67 96.67 -43.34 96.34 -43 96 C-41.481 95.928 -39.958 95.916 -38.438 95.938 C-37.198 95.951 -37.198 95.951 -35.934 95.965 C-34.976 95.982 -34.976 95.982 -34 96 C-34 96.33 -34 96.66 -34 97 C-35.279 97.124 -36.558 97.248 -37.875 97.375 C-41.348 97.69 -41.348 97.69 -44 100 C-44.744 106.071 -43.81 112.505 -43.188 118.562 C-43.1 119.427 -43.012 120.291 -42.922 121.181 C-41.808 131.556 -39.875 141.765 -37.43 151.91 C-36.255 157.623 -35.886 163.111 -35.938 168.938 C-35.942 169.621 -35.947 170.305 -35.951 171.01 C-35.963 172.673 -35.981 174.337 -36 176 C-36.66 175.67 -37.32 175.34 -38 175 C-37.988 174.215 -37.977 173.43 -37.965 172.621 C-37.956 171.571 -37.947 170.52 -37.938 169.438 C-37.926 168.405 -37.914 167.372 -37.902 166.309 C-37.957 162.368 -37.957 162.368 -39 156 C-39.33 160.95 -39.66 165.9 -40 171 C-41.32 171.33 -42.64 171.66 -44 172 C-43.34 171.34 -42.68 170.68 -42 170 C-41.739 167.704 -41.739 167.704 -41.84 165.062 C-41.851 164.085 -41.862 163.108 -41.873 162.102 C-41.905 160.566 -41.905 160.566 -41.938 159 C-41.972 156.979 -42.002 154.958 -42.027 152.938 C-42.045 152.039 -42.063 151.141 -42.082 150.215 C-42 148 -42 148 -41 146 C-41.375 143.677 -41.827 141.365 -42.312 139.062 C-45.642 122.427 -46.343 105.736 -46.625 88.812 C-46.663 86.876 -46.702 84.939 -46.742 83.002 C-46.837 78.335 -46.921 73.667 -47 69 C-47.93 69.138 -47.93 69.138 -48.879 69.278 C-49.691 69.386 -50.503 69.494 -51.34 69.605 C-52.145 69.718 -52.951 69.83 -53.781 69.946 C-56 70 -56 70 -58.562 68.312 C-60 66 -60 66 -60 62 C-60.66 62 -61.32 62 -62 62 C-62 61.34 -62 60.68 -62 60 C-62.929 60.107 -63.859 60.214 -64.816 60.324 C-77.426 61.547 -77.426 61.547 -83 58 C-85.152 54.772 -85.201 53.716 -85 50 C-85.577 50.154 -86.154 50.308 -86.748 50.467 C-98.848 53.333 -112.021 53.218 -124.375 53.312 C-126.094 53.339 -126.094 53.339 -127.848 53.365 C-134.018 53.361 -138.552 52.975 -144 50 C-143.01 49.505 -143.01 49.505 -142 49 C-141.178 49.304 -140.355 49.608 -139.508 49.922 C-134.886 51.342 -130.682 51.296 -125.875 51.25 C-124.403 51.244 -124.403 51.244 -122.902 51.238 C-110.238 51.096 -97.616 50.05 -85 49 C-85.33 48.34 -85.66 47.68 -86 47 C-88.313 47.143 -90.625 47.29 -92.938 47.438 C-94.225 47.519 -95.513 47.6 -96.84 47.684 C-99.62 47.873 -102.362 48.17 -105.125 48.531 C-111.421 49.256 -117.734 49.106 -124.062 49.062 C-125.31 49.058 -126.557 49.053 -127.842 49.049 C-130.895 49.037 -133.947 49.021 -137 49 C-137 48.67 -137 48.34 -137 48 C-136.332 47.98 -135.663 47.96 -134.975 47.94 C-123.409 47.581 -111.926 47.189 -100.448 45.665 C-95.575 45.026 -90.907 44.822 -86 45 C-86.495 41.04 -86.495 41.04 -87 37 C-91.62 37.33 -96.24 37.66 -101 38 C-101 37.67 -101 37.34 -101 37 C-94.07 36.01 -94.07 36.01 -87 35 C-86.67 33.02 -86.34 31.04 -86 29 C-85.67 28.34 -85.34 27.68 -85 27 C-84.34 27 -83.68 27 -83 27 C-83 26.34 -83 25.68 -83 25 C-79.7 23.35 -76.009 23.617 -72.375 23.438 C-71.573 23.394 -70.771 23.351 -69.945 23.307 C-67.964 23.2 -65.982 23.1 -64 23 C-63.494 18.047 -63.494 18.047 -65.75 13.855 C-66.493 13.305 -67.235 12.755 -68 12.188 C-69.358 11.157 -70.698 10.101 -72 9 C-72 8.34 -72 7.68 -72 7 C-72.66 7 -73.32 7 -74 7 C-74.99 4.03 -74.99 4.03 -76 1 C-74.02 1.66 -72.04 2.32 -70 3 C-70 3.99 -70 4.98 -70 6 C-69.34 6 -68.68 6 -68 6 C-67.319 6.846 -66.639 7.691 -65.938 8.562 C-63.337 11.218 -63.337 11.218 -60.672 11.109 C-58.414 10.84 -56.22 10.488 -54 10 C-53.67 8.68 -53.34 7.36 -53 6 C-46.755 4.486 -41.919 4.627 -36 7 C-25.632 8.991 -14.511 8.095 -4 8 C-3.711 7.237 -3.423 6.474 -3.125 5.688 C-2 3 -2 3 0 0 Z " fill="#000000" transform="translate(314,7)"/>
<path d="M0 0 C0.33 3.63 0.66 7.26 1 11 C0.67 10.34 0.34 9.68 0 9 C-4.29 9 -8.58 9 -13 9 C-12.67 12.3 -12.34 15.6 -12 19 C-7.71 19 -3.42 19 1 19 C2 27.625 2 27.625 2 31 C17.125 31.29 31.955 30.567 47 29 C46.67 29.66 46.34 30.32 46 31 C43.016 31.471 43.016 31.471 39.035 31.781 C38.328 31.84 37.62 31.899 36.892 31.96 C34.616 32.149 32.339 32.325 30.062 32.5 C16.431 33.527 16.431 33.527 3 36 C3 36.99 3 37.98 3 39 C6.5 38.69 10 38.376 13.5 38.062 C14.973 37.932 14.973 37.932 16.477 37.799 C20.716 37.417 24.94 37.027 29.156 36.438 C33.47 35.947 37.665 35.889 42 35.938 C42.775 35.942 43.549 35.947 44.348 35.951 C46.232 35.963 48.116 35.981 50 36 C50.33 35.01 50.66 34.02 51 33 C51.33 34.65 51.66 36.3 52 38 C50.438 37.965 50.438 37.965 48.844 37.93 C40.037 37.796 31.613 38.263 22.895 39.488 C16.947 40.27 10.988 40.644 5 41 C8.651 42.217 11.665 41.821 15.414 41.441 C16.143 41.373 16.872 41.305 17.623 41.235 C19.958 41.017 22.291 40.79 24.625 40.562 C43.11 38.774 43.11 38.774 51 39 C51 39.33 51 39.66 51 40 C40.576 41.543 30.134 42.44 19.625 43.188 C18.323 43.283 17.021 43.379 15.679 43.478 C14.457 43.561 13.235 43.645 11.977 43.73 C10.874 43.807 9.771 43.883 8.635 43.962 C6 44 6 44 4 43 C4 44.98 4 46.96 4 49 C1.039 45.716 0.657 43.491 0.562 39.125 C0.202 33.926 -0.128 30.78 -4 27 C-12.065 21.59 -20.501 20.721 -30 22 C-37.528 24.31 -42.116 28.217 -46.145 34.898 C-47.165 37.405 -47.061 38.9 -46.688 41.562 C-46.588 42.327 -46.489 43.091 -46.387 43.879 C-46.019 46.178 -46.019 46.178 -45 49 C-45 50.32 -45 51.64 -45 53 C-44.552 54.537 -44.05 56.059 -43.5 57.562 C-42.492 60.33 -42 62.013 -42 65 C-42.66 65 -43.32 65 -44 65 C-44.33 63.35 -44.66 61.7 -45 60 C-45 61.98 -45 63.96 -45 66 C-43.35 66.33 -41.7 66.66 -40 67 C-40.99 67.495 -40.99 67.495 -42 68 C-41.988 68.771 -41.977 69.542 -41.965 70.336 C-41.956 71.339 -41.947 72.342 -41.938 73.375 C-41.926 74.373 -41.914 75.37 -41.902 76.398 C-42 79 -42 79 -43 81 C-42.876 83.293 -42.676 85.583 -42.441 87.867 C-42.301 89.313 -42.16 90.758 -42.021 92.204 C-41.946 92.966 -41.87 93.729 -41.793 94.514 C-40.177 111.071 -39.607 127.357 -40 144 C-40.33 144 -40.66 144 -41 144 C-41.02 143.386 -41.04 142.773 -41.06 142.14 C-41.586 126.396 -42.492 110.711 -43.729 95.007 C-44.006 91.485 -44.273 87.962 -44.539 84.439 C-44.713 82.19 -44.887 79.941 -45.062 77.691 C-45.142 76.643 -45.221 75.594 -45.302 74.514 C-45.418 73.073 -45.418 73.073 -45.535 71.604 C-45.634 70.338 -45.634 70.338 -45.735 69.046 C-45.894 66.938 -45.894 66.938 -47 65 C-47.207 63.505 -47.367 62.003 -47.5 60.5 C-47.582 59.613 -47.665 58.726 -47.75 57.812 C-47.917 55.938 -48.083 54.062 -48.25 52.188 C-48.332 51.301 -48.415 50.414 -48.5 49.5 C-48.608 48.278 -48.608 48.278 -48.719 47.031 C-48.898 44.937 -48.898 44.937 -50 43 C-50.701 43.268 -51.403 43.536 -52.125 43.812 C-55 44 -55 44 -58.062 41.812 C-59.834 40.199 -61.369 38.571 -62.938 36.75 C-65.856 34.273 -68.23 34.198 -72 34 C-74.812 34.36 -74.812 34.36 -77 35 C-77 35.66 -77 36.32 -77 37 C-77.762 37.375 -78.524 37.75 -79.309 38.137 C-85.632 41.271 -91.87 44.501 -98 48 C-96.086 53.942 -96.086 53.942 -93.812 59.75 C-92.895 62.291 -92.847 64.318 -93 67 C-94.71 63.691 -96.182 60.308 -97.625 56.875 C-98.294 55.293 -98.294 55.293 -98.977 53.68 C-100 51 -100 51 -100 49 C-100.66 49 -101.32 49 -102 49 C-102 49.66 -102 50.32 -102 51 C-102.619 51.289 -103.237 51.577 -103.875 51.875 C-106.133 52.937 -106.133 52.937 -108 55 C-109.877 55.905 -111.755 56.81 -113.633 57.715 C-117.281 59.695 -120.561 62.15 -123.898 64.609 C-126 66 -126 66 -128 66 C-128 66.66 -128 67.32 -128 68 C-129.801 69.227 -129.801 69.227 -132.312 70.625 C-137.41 73.563 -142.065 76.908 -146.75 80.461 C-149 82 -149 82 -151 82 C-151 82.66 -151 83.32 -151 84 C-152.744 85.42 -152.744 85.42 -155.156 87.039 C-156.013 87.619 -156.871 88.199 -157.754 88.797 C-158.66 89.4 -159.566 90.003 -160.5 90.625 C-161.406 91.236 -162.312 91.847 -163.246 92.477 C-165.493 93.991 -167.745 95.498 -170 97 C-170.33 96.01 -170.66 95.02 -171 94 C-168.525 93.01 -168.525 93.01 -166 92 C-166 91.34 -166 90.68 -166 90 C-163.742 88.202 -161.487 86.525 -159.125 84.875 C-158.474 84.407 -157.823 83.939 -157.152 83.457 C-152.264 80 -152.264 80 -150 80 C-150 79.34 -150 78.68 -150 78 C-149.01 78 -148.02 78 -147 78 C-147 77.34 -147 76.68 -147 76 C-142.615 73 -142.615 73 -140 73 C-140 72.34 -140 71.68 -140 71 C-133.25 67 -133.25 67 -131 67 C-131 66.34 -131 65.68 -131 65 C-128.98 63.52 -128.98 63.52 -126.188 61.812 C-125.182 61.191 -124.177 60.57 -123.141 59.93 C-122.104 59.293 -121.068 58.656 -120 58 C-118.144 56.816 -116.29 55.628 -114.438 54.438 C-109.346 51.198 -104.195 48.071 -99 45 C-98.316 44.584 -97.631 44.167 -96.926 43.738 C-92.343 41 -92.343 41 -89 41 C-89 40.34 -89 39.68 -89 39 C-87.961 38.492 -86.922 37.984 -85.852 37.461 C-78.633 33.905 -71.572 30.339 -64.82 25.934 C-64.22 25.626 -63.619 25.317 -63 25 C-62.34 25.33 -61.68 25.66 -61 26 C-61.66 26.66 -62.32 27.32 -63 28 C-61.02 28.33 -59.04 28.66 -57 29 C-57.33 21.41 -57.66 13.82 -58 6 C-66.219 6.71 -66.219 6.71 -71 8 C-71 7.34 -71 6.68 -71 6 C-64.622 4.827 -58.497 3.705 -52 4 C-52 3.34 -52 2.68 -52 2 C-50.667 2.667 -49.333 3.333 -48 4 C-46.109 3.947 -44.22 3.822 -42.336 3.66 C-41.214 3.567 -40.093 3.473 -38.938 3.377 C-37.762 3.273 -36.586 3.169 -35.375 3.062 C-33.6 2.913 -33.6 2.913 -31.789 2.76 C-28.859 2.512 -25.929 2.258 -23 2 C-22.67 3.65 -22.34 5.3 -22 7 C-22 5.35 -22 3.7 -22 2 C-19.647 1.661 -17.292 1.328 -14.938 1 C-14.281 0.905 -13.624 0.809 -12.947 0.711 C-8.599 0.111 -4.387 -0.091 0 0 Z " fill="#D0D0D0" transform="translate(174,155)"/>
<path d="M0 0 C0.33 0 0.66 0 1 0 C1 2.31 1 4.62 1 7 C1.99 7.33 2.98 7.66 4 8 C4.702 9.652 5.37 11.319 6 13 C6.99 13.495 6.99 13.495 8 14 C10.098 19.182 11 24.418 11 30 C10.34 29.67 9.68 29.34 9 29 C8.918 30.155 8.835 31.31 8.75 32.5 C7.227 43.941 -1.719 53.526 -10 61 C-10.99 61 -11.98 61 -13 61 C-13 61.66 -13 62.32 -13 63 C-21.07 67.793 -29.105 71.062 -38 74 C-38.99 74.33 -39.98 74.66 -41 75 C-35.219 74.369 -29.656 73.348 -24 72 C-27.822 76.373 -32.692 76.667 -38.25 77.227 C-46.12 77.519 -56.884 76.558 -64 73 C-64.495 73.99 -64.495 73.99 -65 75 C-65 74.01 -65 73.02 -65 72 C-65.722 71.773 -66.444 71.546 -67.188 71.312 C-72.695 68.742 -75.947 64.124 -79 59 C-79.369 57.676 -79.711 56.344 -80 55 C-79.408 55.133 -78.817 55.266 -78.207 55.402 C-77.417 55.579 -76.627 55.756 -75.812 55.938 C-75.035 56.112 -74.258 56.286 -73.457 56.465 C-72.646 56.641 -71.835 56.818 -71 57 C-70.175 57.18 -69.35 57.361 -68.5 57.547 C-55.236 59.951 -41.425 56.156 -30.137 49.172 C-28 48 -28 48 -25 48 C-25 47.34 -25 46.68 -25 46 C-23.137 44.273 -23.137 44.273 -20.688 42.375 C-19.887 41.743 -19.086 41.112 -18.262 40.461 C-16 39 -16 39 -13 39 C-12.903 38.437 -12.807 37.873 -12.707 37.293 C-11.839 34.479 -10.456 32.664 -8.688 30.312 C-1.54 20.2 -0.298 12.148 0 0 Z " fill="#D2D2D2" transform="translate(124,32)"/>
<path d="M0 0 C1.596 13.397 2.258 26.511 2 40 C2.66 39.67 3.32 39.34 4 39 C4 34.38 4 29.76 4 25 C5.32 25.33 6.64 25.66 8 26 C9.414 28.617 9.414 28.617 10.625 31.875 C11.901 35.247 12.994 37.991 15 41 C15.526 40.875 16.052 40.75 16.594 40.622 C24.211 38.949 31.88 38.199 39.634 37.512 C41.892 37.311 44.149 37.096 46.406 36.881 C47.851 36.749 49.297 36.618 50.742 36.488 C52.04 36.37 53.338 36.252 54.675 36.13 C57.467 36.021 59.391 36.105 62 37 C61.67 38.98 61.34 40.96 61 43 C49.938 44.178 38.91 45.216 27.797 45.754 C24.6 45.961 21.465 46.31 18.29 46.73 C12.282 47.438 6.231 47.793 0.199 48.25 C-6.57 48.772 -6.57 48.772 -13.312 49.559 C-17.081 50.01 -20.707 50.099 -24.5 50.062 C-25.727 50.053 -26.954 50.044 -28.219 50.035 C-29.137 50.024 -30.054 50.012 -31 50 C-31.33 48.68 -31.66 47.36 -32 46 C-22.833 44.084 -13.624 43.195 -4.312 42.375 C-2.821 42.24 -1.329 42.105 0.162 41.969 C3.774 41.641 7.387 41.319 11 41 C-11.595 43.388 -11.595 43.388 -22 43 C-22.073 41.074 -22.073 41.074 -22.148 39.109 C-22.577 28.737 -23.235 18.451 -24.427 8.136 C-24.655 6.094 -24.833 4.047 -25 2 C-20.601 -2.399 -5.825 -0.083 0 0 Z " fill="#FEFEFE" transform="translate(208,144)"/>
<path d="M0 0 C3.931 3.669 5.742 6.017 6.441 11.398 C6.803 23.259 4.22 31.977 -3.676 41.211 C-6.146 43.831 -6.146 43.831 -7 47 C-8.638 48.046 -10.31 49.04 -12 50 C-12.887 50.722 -13.774 51.444 -14.688 52.188 C-17 54 -17 54 -19 54 C-19 54.66 -19 55.32 -19 56 C-33.621 64.133 -49.194 70 -66 65.562 C-68.685 64.755 -71.34 63.887 -74 63 C-74 62.34 -74 61.68 -74 61 C-74.578 60.773 -75.155 60.546 -75.75 60.312 C-79.171 58.317 -81.523 55.684 -82.613 51.836 C-82.805 50.927 -82.805 50.927 -83 50 C-82.457 50.091 -81.914 50.182 -81.354 50.275 C-63.339 53.249 -47.701 55.066 -31 46 C-30.34 45.34 -29.68 44.68 -29 44 C-30.011 44.598 -31.021 45.196 -32.062 45.812 C-41.557 51.197 -50.167 53.344 -61 53 C-61 52.67 -61 52.34 -61 52 C-60.394 51.89 -59.788 51.781 -59.164 51.668 C-46.802 49.329 -35.231 45.819 -25.238 37.777 C-23 36 -23 36 -21 36 C-21 35.34 -21 34.68 -21 34 C-18.625 31.375 -18.625 31.375 -16 29 C-15.34 29 -14.68 29 -14 29 C-14 28.34 -14 27.68 -14 27 C-12.667 25.667 -11.333 24.333 -10 23 C-5.001 15.765 -1.778 8.603 0 0 Z " fill="#FCFCFC" transform="translate(118,24)"/>
<path d="M0 0 C3.341 2.339 4.975 3.814 6.41 7.688 C7.266 12.782 7.613 17.442 5.117 22.102 C0.609 27.611 -4.741 30.725 -11.59 32.438 C-20.536 33.183 -28.847 32.678 -36.59 27.688 C-40.562 23.747 -42.518 19.549 -42.852 13.957 C-42.225 8.525 -38.658 4.436 -34.715 0.875 C-23.919 -6.682 -11.445 -6.654 0 0 Z " fill="#FEFEFE" transform="translate(168.58984375,180.3125)"/>
<path d="M0 0 C0.33 0 0.66 0 1 0 C1.054 2.375 1.094 4.749 1.125 7.125 C1.142 7.79 1.159 8.455 1.176 9.141 C1.218 13.495 0.6 16.956 -1 21 C1.31 21 3.62 21 6 21 C6 21.66 6 22.32 6 23 C6.626 23.086 7.253 23.173 7.898 23.262 C10.368 23.686 12.644 24.143 15 25 C16.562 27.625 16.562 27.625 17 30 C17.66 30 18.32 30 19 30 C19.454 30.784 19.907 31.567 20.375 32.375 C22.077 35.124 23.045 35.879 26 37 C26 37.66 26 38.32 26 39 C26.999 38.844 27.998 38.688 29.027 38.527 C30.963 38.235 30.963 38.235 32.938 37.938 C34.869 37.642 34.869 37.642 36.84 37.34 C37.883 37.228 38.926 37.116 40 37 C41 38 41 38 41.098 39.848 C41.065 41.898 41.033 43.949 41 46 C27.317 47.94 13.704 49.331 -0.125 49.5 C-1.873 49.545 -1.873 49.545 -3.657 49.592 C-10.949 49.596 -15.237 48.445 -21 44 C-21.33 44 -21.66 44 -22 44 C-22.33 44.66 -22.66 45.32 -23 46 C-23.66 45.01 -24.32 44.02 -25 43 C-25.424 53.652 -23.41 63.671 -21 74 C-23 73 -23 73 -23.816 70.996 C-27.446 58.55 -29.414 43.507 -25 31 C-23 28 -23 28 -21 27.562 C-20.34 27.377 -19.68 27.191 -19 27 C-18.691 26.361 -18.381 25.721 -18.062 25.062 C-17 23 -17 23 -15 21.75 C-12 21 -12 21 -2 21 C-1.01 10.605 -1.01 10.605 0 0 Z " fill="#C9C9C9" transform="translate(187,6)"/>
<path d="M0 0 C2.628 10.232 2.185 20.527 2 31 C0.02 29.35 -1.96 27.7 -4 26 C-3.67 26.33 -3.34 26.66 -3 27 C-1.994 28.328 -0.993 29.662 0 31 C-2.146 31.167 -4.292 31.334 -6.438 31.5 C-7.632 31.593 -8.827 31.686 -10.059 31.781 C-13 32 -13 32 -14 32 C-15.336 32.324 -16.669 32.657 -18 33 C-18 32.34 -18 31.68 -18 31 C-18.66 31 -19.32 31 -20 31 C-22.454 27.319 -22.228 24.556 -22.125 20.312 C-22.116 19.611 -22.107 18.909 -22.098 18.186 C-22.074 16.457 -22.038 14.728 -22 13 C-21.67 13.66 -21.34 14.32 -21 15 C-21 14.01 -21 13.02 -21 12 C-20.298 5.447 -20.298 5.447 -18 2 C-14.883 1.27 -14.883 1.27 -11.125 0.812 C-9.273 0.575 -9.273 0.575 -7.383 0.332 C-4 0 -4 0 0 0 Z " fill="#FFFFFF" transform="translate(252,33)"/>
<path d="M0 0 C-0.664 0.291 -1.328 0.583 -2.012 0.883 C-9.123 4.184 -13.946 7.498 -17 15 C-17.066 17.27 -17.066 17.27 -16.688 19.562 C-16.539 20.709 -16.539 20.709 -16.387 21.879 C-16.019 24.178 -16.019 24.178 -15 27 C-15 28.32 -15 29.64 -15 31 C-14.552 32.537 -14.05 34.059 -13.5 35.562 C-12.492 38.33 -12 40.013 -12 43 C-12.66 43 -13.32 43 -14 43 C-14.33 41.35 -14.66 39.7 -15 38 C-15 39.98 -15 41.96 -15 44 C-13.35 44.33 -11.7 44.66 -10 45 C-10.99 45.495 -10.99 45.495 -12 46 C-11.988 46.771 -11.977 47.542 -11.965 48.336 C-11.956 49.339 -11.947 50.342 -11.938 51.375 C-11.926 52.373 -11.914 53.37 -11.902 54.398 C-12 57 -12 57 -13 59 C-12.876 61.293 -12.676 63.583 -12.441 65.867 C-12.301 67.313 -12.16 68.758 -12.021 70.204 C-11.946 70.966 -11.87 71.729 -11.793 72.514 C-10.177 89.071 -9.607 105.357 -10 122 C-10.33 122 -10.66 122 -11 122 C-11.02 121.386 -11.04 120.773 -11.06 120.14 C-11.586 104.396 -12.492 88.711 -13.729 73.007 C-14.006 69.485 -14.273 65.962 -14.539 62.439 C-14.713 60.19 -14.887 57.941 -15.062 55.691 C-15.142 54.643 -15.221 53.594 -15.302 52.514 C-15.418 51.073 -15.418 51.073 -15.535 49.604 C-15.634 48.338 -15.634 48.338 -15.735 47.046 C-15.894 44.938 -15.894 44.938 -17 43 C-17.207 41.505 -17.367 40.003 -17.5 38.5 C-17.582 37.613 -17.665 36.726 -17.75 35.812 C-17.917 33.938 -18.083 32.062 -18.25 30.188 C-18.332 29.301 -18.415 28.414 -18.5 27.5 C-18.572 26.685 -18.644 25.871 -18.719 25.031 C-18.898 22.937 -18.898 22.937 -20 21 C-20.701 21.268 -21.403 21.536 -22.125 21.812 C-25 22 -25 22 -28.062 19.812 C-29.834 18.199 -31.369 16.571 -32.938 14.75 C-35.856 12.273 -38.23 12.198 -42 12 C-44.812 12.36 -44.812 12.36 -47 13 C-47 13.66 -47 14.32 -47 15 C-47.762 15.375 -48.524 15.75 -49.309 16.137 C-55.632 19.271 -61.87 22.501 -68 26 C-66.086 31.942 -66.086 31.942 -63.812 37.75 C-62.895 40.291 -62.847 42.318 -63 45 C-64.71 41.691 -66.182 38.308 -67.625 34.875 C-68.294 33.293 -68.294 33.293 -68.977 31.68 C-70 29 -70 29 -70 27 C-70.66 27 -71.32 27 -72 27 C-72 27.66 -72 28.32 -72 29 C-72.619 29.289 -73.237 29.577 -73.875 29.875 C-76.133 30.937 -76.133 30.937 -78 33 C-79.877 33.905 -81.755 34.81 -83.633 35.715 C-87.281 37.695 -90.561 40.15 -93.898 42.609 C-96 44 -96 44 -98 44 C-98 44.66 -98 45.32 -98 46 C-99.801 47.227 -99.801 47.227 -102.312 48.625 C-107.41 51.563 -112.065 54.908 -116.75 58.461 C-119 60 -119 60 -121 60 C-121 60.66 -121 61.32 -121 62 C-122.744 63.42 -122.744 63.42 -125.156 65.039 C-126.013 65.619 -126.871 66.199 -127.754 66.797 C-128.66 67.4 -129.566 68.003 -130.5 68.625 C-131.406 69.236 -132.312 69.847 -133.246 70.477 C-135.493 71.991 -137.745 73.498 -140 75 C-140.33 74.01 -140.66 73.02 -141 72 C-138.525 71.01 -138.525 71.01 -136 70 C-136 69.34 -136 68.68 -136 68 C-133.742 66.202 -131.487 64.525 -129.125 62.875 C-128.474 62.407 -127.823 61.939 -127.152 61.457 C-122.264 58 -122.264 58 -120 58 C-120 57.34 -120 56.68 -120 56 C-119.01 56 -118.02 56 -117 56 C-117 55.34 -117 54.68 -117 54 C-112.615 51 -112.615 51 -110 51 C-110 50.34 -110 49.68 -110 49 C-103.25 45 -103.25 45 -101 45 C-101 44.34 -101 43.68 -101 43 C-98.98 41.52 -98.98 41.52 -96.188 39.812 C-95.182 39.191 -94.177 38.57 -93.141 37.93 C-92.104 37.293 -91.068 36.656 -90 36 C-88.144 34.816 -86.29 33.628 -84.438 32.438 C-79.346 29.198 -74.195 26.071 -69 23 C-68.316 22.584 -67.631 22.167 -66.926 21.738 C-62.343 19 -62.343 19 -59 19 C-59 18.34 -59 17.68 -59 17 C-57.961 16.492 -56.922 15.984 -55.852 15.461 C-48.633 11.905 -41.572 8.339 -34.82 3.934 C-34.22 3.626 -33.619 3.317 -33 3 C-32.01 3.495 -32.01 3.495 -31 4 C-31.66 4.66 -32.32 5.32 -33 6 C-30.03 6.495 -30.03 6.495 -27 7 C-27 6.01 -27 5.02 -27 4 C-24.03 4.495 -24.03 4.495 -21 5 C-21 5.66 -21 6.32 -21 7 C-24.3 7.66 -27.6 8.32 -31 9 C-28.896 8.783 -28.896 8.783 -26.75 8.562 C-25.961 8.481 -25.172 8.4 -24.359 8.316 C-22.176 8.024 -20.123 7.579 -18 7 C-18.33 8.32 -18.66 9.64 -19 11 C-22.63 11.33 -26.26 11.66 -30 12 C-29.01 14.475 -29.01 14.475 -28 17 C-27.34 17 -26.68 17 -26 17 C-26 17.66 -26 18.32 -26 19 C-23.69 19 -21.38 19 -19 19 C-18.918 17.969 -18.835 16.938 -18.75 15.875 C-17.403 8.914 -13.508 5.047 -8 1 C-3.661 -1.22 -3.661 -1.22 0 0 Z " fill="#000000" transform="translate(144,177)"/>
<path d="M0 0 C1.304 5.936 1.111 11.833 1.062 17.875 C1.058 18.945 1.053 20.015 1.049 21.117 C1.037 23.745 1.021 26.372 1 29 C2.98 29.33 4.96 29.66 7 30 C7 20.43 7 10.86 7 1 C7.33 1 7.66 1 8 1 C8.399 4.31 8.765 7.623 9.125 10.938 C9.237 11.864 9.349 12.79 9.465 13.744 C10.124 20.006 9.682 24.926 8 31 C4.7 30.67 1.4 30.34 -2 30 C-2 29.34 -2 28.68 -2 28 C-7.28 28 -12.56 28 -18 28 C-19.892 22.325 -20.336 18.601 -20.312 12.812 C-20.329 12.006 -20.345 11.2 -20.361 10.369 C-20.362 9.594 -20.363 8.818 -20.363 8.02 C-20.366 7.319 -20.369 6.619 -20.372 5.898 C-19.888 3.429 -18.949 2.544 -17 1 C-14.766 0.488 -14.766 0.488 -12.25 0.312 C-10.931 0.216 -10.931 0.216 -9.586 0.117 C-6.38 -0.028 -3.208 -0.07 0 0 Z " fill="#000000" transform="translate(250,99)"/>
<path d="M0 0 C1.382 2.765 1.095 5.046 1.062 8.125 C1.053 9.221 1.044 10.316 1.035 11.445 C1.024 12.288 1.012 13.131 1 14 C1.782 13.934 2.565 13.868 3.371 13.801 C6.893 13.507 10.415 13.222 13.938 12.938 C15.169 12.834 16.401 12.73 17.67 12.623 C18.84 12.53 20.01 12.436 21.215 12.34 C22.299 12.251 23.383 12.162 24.5 12.07 C25.325 12.047 26.15 12.024 27 12 C27.495 12.495 27.495 12.495 28 13 C29.562 13.047 31.125 13.037 32.688 13 C36.582 12.955 40.173 13.194 44 14 C43.959 12.907 43.918 11.814 43.875 10.688 C44 7 44 7 46 4 C48.602 3.488 48.602 3.488 51.625 3.312 C52.628 3.247 53.631 3.181 54.664 3.113 C55.82 3.057 55.82 3.057 57 3 C57 3.33 57 3.66 57 4 C53.7 4.33 50.4 4.66 47 5 C47.062 6.423 47.124 7.846 47.188 9.312 C47.372 13.559 47.372 13.559 45.488 15.793 C44.997 16.191 44.506 16.59 44 17 C44 16.34 44 15.68 44 15 C42.68 15 41.36 15 40 15 C40.153 15.838 40.307 16.676 40.465 17.539 C42.273 29.235 42.141 41.195 42 53 C41.34 53 40.68 53 40 53 C39.95 52.27 39.9 51.54 39.848 50.788 C39.613 47.421 39.369 44.054 39.125 40.688 C39.046 39.54 38.968 38.392 38.887 37.209 C38.358 30.027 37.458 23.053 36 16 C33.69 16.33 31.38 16.66 29 17 C29.66 29.21 30.32 41.42 31 54 C30.01 54.33 29.02 54.66 28 55 C27.711 50.911 27.426 46.822 27.146 42.732 C27.05 41.345 26.953 39.958 26.854 38.572 C26.712 36.561 26.574 34.55 26.438 32.539 C26.354 31.335 26.27 30.13 26.184 28.889 C25.965 24.264 26 19.63 26 15 C14.12 15.99 14.12 15.99 2 17 C2.464 21.331 2.464 21.331 2.938 25.75 C4.013 36.152 4.578 46.553 5 57 C1.593 57.763 -0.65 58.117 -4 57 C-3 56 -3 56 -0.438 55.938 C0.367 55.958 1.171 55.979 2 56 C1.879 54.953 1.758 53.907 1.633 52.828 C0.356 41.44 -0.549 30.045 -1.302 18.61 C-1.677 13.03 -2.088 7.52 -3 2 C-3.66 2 -4.32 2 -5 2 C-4.856 2.748 -4.711 3.495 -4.562 4.266 C-4.377 5.25 -4.191 6.235 -4 7.25 C-3.814 8.225 -3.629 9.199 -3.438 10.203 C-3 13 -3 13 -3 17 C-4.65 17 -6.3 17 -8 17 C-7.67 18.32 -7.34 19.64 -7 21 C-5.02 20.67 -3.04 20.34 -1 20 C-1 20.66 -1 21.32 -1 22 C-2.98 22 -4.96 22 -7 22 C-7.33 22.66 -7.66 23.32 -8 24 C-8.33 23.67 -8.66 23.34 -9 23 C-10.343 22.914 -11.69 22.893 -13.035 22.902 C-13.844 22.906 -14.653 22.909 -15.486 22.912 C-16.762 22.925 -16.762 22.925 -18.062 22.938 C-18.917 22.942 -19.771 22.947 -20.65 22.951 C-22.767 22.963 -24.883 22.981 -27 23 C-25 21 -25 21 -21.305 20.805 C-19.828 20.818 -18.351 20.842 -16.875 20.875 C-16.121 20.884 -15.367 20.893 -14.59 20.902 C-12.726 20.926 -10.863 20.962 -9 21 C-9 19.35 -9 17.7 -9 16 C-7.68 16 -6.36 16 -5 16 C-5.33 13.69 -5.66 11.38 -6 9 C-8.64 9.33 -11.28 9.66 -14 10 C-14.33 9.34 -14.66 8.68 -15 8 C-15.33 8.99 -15.66 9.98 -16 11 C-17 9 -17 9 -16.375 7 C-14.601 4.419 -12.884 4.082 -10 3 C-9.34 2.01 -8.68 1.02 -8 0 C-5.061 -1.175 -2.954 -1.12 0 0 Z " fill="#101010" transform="translate(182,129)"/>
<path d="M0 0 C2.623 1.409 4.682 2.916 6.625 5.188 C6.625 5.847 6.625 6.507 6.625 7.188 C7.285 7.518 7.945 7.847 8.625 8.188 C5.179 14.957 5.179 14.957 2.375 16.125 C1.798 16.146 1.22 16.166 0.625 16.188 C0.625 16.847 0.625 17.507 0.625 18.188 C-6.021 20.45 -12.574 21.587 -19.25 18.812 C-22.375 17.188 -22.375 17.188 -25.375 15.188 C-25.375 14.528 -25.375 13.868 -25.375 13.188 C-26.035 13.188 -26.695 13.188 -27.375 13.188 C-26.852 10.425 -26.266 7.861 -25.375 5.188 C-24.715 5.188 -24.055 5.188 -23.375 5.188 C-23.045 4.197 -22.715 3.208 -22.375 2.188 C-15.377 -2.483 -7.632 -3.613 0 0 Z " fill="#FFFFFF" transform="translate(204.375,224.8125)"/>
<path d="M0 0 C3.543 7.086 4.286 13.104 4.195 20.871 C4.192 21.793 4.19 22.716 4.187 23.666 C4.176 26.59 4.151 29.514 4.125 32.438 C4.115 34.429 4.106 36.421 4.098 38.412 C4.076 43.275 4.041 48.137 4 53 C2.515 52.505 2.515 52.505 1 52 C1 50.68 1 49.36 1 48 C0.34 48 -0.32 48 -1 48 C-1 47.34 -1 46.68 -1 46 C-1.929 46.107 -2.859 46.214 -3.816 46.324 C-16.426 47.547 -16.426 47.547 -22 44 C-24.152 40.772 -24.201 39.716 -24 36 C-24.577 36.154 -25.154 36.308 -25.748 36.467 C-37.848 39.333 -51.021 39.218 -63.375 39.312 C-65.094 39.339 -65.094 39.339 -66.848 39.365 C-73.018 39.361 -77.552 38.975 -83 36 C-82.01 35.505 -82.01 35.505 -81 35 C-80.178 35.304 -79.355 35.608 -78.508 35.922 C-73.886 37.342 -69.682 37.296 -64.875 37.25 C-63.403 37.244 -63.403 37.244 -61.902 37.238 C-49.238 37.096 -36.616 36.05 -24 35 C-24.33 34.34 -24.66 33.68 -25 33 C-27.313 33.143 -29.625 33.29 -31.938 33.438 C-33.225 33.519 -34.513 33.6 -35.84 33.684 C-38.62 33.873 -41.362 34.17 -44.125 34.531 C-50.421 35.256 -56.734 35.106 -63.062 35.062 C-64.31 35.058 -65.557 35.053 -66.842 35.049 C-69.895 35.037 -72.947 35.021 -76 35 C-76 34.67 -76 34.34 -76 34 C-75.332 33.98 -74.663 33.96 -73.975 33.94 C-62.409 33.581 -50.926 33.189 -39.448 31.665 C-34.575 31.026 -29.907 30.822 -25 31 C-25.495 27.04 -25.495 27.04 -26 23 C-30.62 23.33 -35.24 23.66 -40 24 C-40 23.67 -40 23.34 -40 23 C-33.07 22.01 -33.07 22.01 -26 21 C-25.67 19.02 -25.34 17.04 -25 15 C-24.67 14.34 -24.34 13.68 -24 13 C-23.34 13 -22.68 13 -22 13 C-22 12.34 -22 11.68 -22 11 C-18.7 9.35 -15.009 9.617 -11.375 9.438 C-10.573 9.394 -9.771 9.351 -8.945 9.307 C-6.964 9.2 -4.982 9.1 -3 9 C-2.01 6.03 -1.02 3.06 0 0 Z M-12.062 12.688 C-13.291 12.815 -14.519 12.943 -15.785 13.074 C-19.132 13.712 -19.132 13.712 -20.953 16.344 C-22.343 19.871 -21.787 22.349 -21 26 C-21.33 25.67 -21.66 25.34 -22 25 C-22.33 25 -22.66 25 -23 25 C-23.054 27.438 -23.094 29.874 -23.125 32.312 C-23.142 33.003 -23.159 33.693 -23.176 34.404 C-23.212 38.171 -23.144 39.784 -21 43 C-20.34 43 -19.68 43 -19 43 C-19 43.66 -19 44.32 -19 45 C-18.072 44.752 -18.072 44.752 -17.125 44.5 C-15 44 -15 44 -13 44 C-10.958 43.842 -8.916 43.674 -6.875 43.5 C-5.779 43.407 -4.684 43.314 -3.555 43.219 C-2.712 43.147 -1.869 43.074 -1 43 C-1.99 41.68 -2.98 40.36 -4 39 C-1.869 40.065 -0.634 41.292 1 43 C1.407 27.38 1.407 27.38 -1 12 C-4.763 12 -8.326 12.259 -12.062 12.688 Z " fill="#5B5B5B" transform="translate(253,21)"/>
<path d="M0 0 C1.629 1.133 1.629 1.133 3.629 4.133 C4.102 7.759 3.922 9.608 2.129 12.82 C-2.887 17.46 -8.469 18.593 -15.184 18.371 C-18.422 18.018 -21.29 17.182 -24.371 16.133 C-24.371 15.473 -24.371 14.813 -24.371 14.133 C-25.01 13.823 -25.65 13.514 -26.309 13.195 C-28.371 12.133 -28.371 12.133 -29.371 11.133 C-29.512 8.462 -29.414 5.808 -29.371 3.133 C-28.732 3.03 -28.092 2.927 -27.434 2.82 C-26.753 2.593 -26.072 2.367 -25.371 2.133 C-25.041 1.143 -24.711 0.153 -24.371 -0.867 C-16.142 -5.496 -8.033 -4.122 0 0 Z " fill="#878787" transform="translate(197.37109375,34.8671875)"/>
<path d="M0 0 C3.375 -0.125 3.375 -0.125 7 0 C12.904 5.904 12.262 19.884 12.293 27.875 C12.284 31.251 12.239 34.625 12.188 38 C12.172 39.758 12.159 41.516 12.146 43.273 C12.114 47.516 12.062 51.758 12 56 C8.625 56.625 8.625 56.625 5 57 C4.34 56.34 3.68 55.68 3 55 C3.285 53.324 3.631 51.659 4 50 C4.096 47.488 4.142 45.011 4.125 42.5 C4.121 41.77 4.117 41.039 4.113 40.286 C4.135 19.868 4.135 19.868 0 0 Z " fill="#FFFFFF" transform="translate(254,19)"/>
<path d="M0 0 C0.495 1.485 0.495 1.485 1 3 C0.67 3.33 0.34 3.66 0 4 C3.96 4 7.92 4 12 4 C12 4.66 12 5.32 12 6 C5.73 6.66 -0.54 7.32 -7 8 C-7 8.66 -7 9.32 -7 10 C-6.438 9.673 -5.876 9.345 -5.297 9.008 C-2.731 7.882 -1.032 7.793 1.75 7.875 C2.549 7.893 3.348 7.911 4.172 7.93 C4.775 7.953 5.378 7.976 6 8 C6 8.33 6 8.66 6 9 C3.69 9 1.38 9 -1 9 C-1 9.66 -1 10.32 -1 11 C-0.041 11.371 -0.041 11.371 0.938 11.75 C3 13 3 13 3.75 15.125 C3.832 15.744 3.915 16.363 4 17 C3.526 16.34 3.051 15.68 2.562 15 C-0.647 12.495 -2.4 12.421 -6.379 12.617 C-15.636 13.969 -23.229 18.035 -31 23 C-32.637 23.974 -34.282 24.933 -35.938 25.875 C-36.648 26.285 -37.358 26.695 -38.09 27.117 C-40 28 -40 28 -43 28 C-43 28.66 -43 29.32 -43 30 C-43.69 30.375 -44.379 30.75 -45.09 31.137 C-49.609 33.598 -54.127 36.063 -58.625 38.562 C-59.342 38.96 -60.058 39.357 -60.797 39.766 C-62.356 40.639 -63.907 41.526 -65.453 42.422 C-66.652 43.11 -66.652 43.11 -67.875 43.812 C-68.594 44.231 -69.314 44.65 -70.055 45.082 C-72 46 -72 46 -75 46 C-75 46.66 -75 47.32 -75 48 C-75.762 48.364 -76.524 48.727 -77.309 49.102 C-83.255 51.997 -88.805 55.009 -94.16 58.898 C-96 60 -96 60 -99 60 C-99 60.66 -99 61.32 -99 62 C-100.98 62.495 -100.98 62.495 -103 63 C-103 63.66 -103 64.32 -103 65 C-104.98 65.495 -104.98 65.495 -107 66 C-106.63 63.374 -106.31 62.264 -104.258 60.516 C-103.554 60.098 -102.85 59.68 -102.125 59.25 C-101.426 58.822 -100.728 58.394 -100.008 57.953 C-98 57 -98 57 -95 57 C-95 56.34 -95 55.68 -95 55 C-93.566 53.918 -93.566 53.918 -91.562 52.758 C-90.466 52.118 -90.466 52.118 -89.348 51.465 C-88.573 51.023 -87.798 50.581 -87 50.125 C-86.256 49.691 -85.512 49.256 -84.746 48.809 C-71.263 41 -71.263 41 -67 41 C-67 40.34 -67 39.68 -67 39 C-64.525 38.505 -64.525 38.505 -62 38 C-62 37.34 -62 36.68 -62 36 C-60.733 35.326 -59.461 34.661 -58.188 34 C-57.48 33.629 -56.772 33.257 -56.043 32.875 C-54 32 -54 32 -51 32 C-50.67 30.68 -50.34 29.36 -50 28 C-48.68 28.33 -47.36 28.66 -46 29 C-46 28.34 -46 27.68 -46 27 C-45.34 27 -44.68 27 -44 27 C-43.505 25.515 -43.505 25.515 -43 24 C-41.68 24 -40.36 24 -39 24 C-36.685 22.704 -36.685 22.704 -34.438 21 C-30.319 18 -30.319 18 -27 18 C-27.495 17.072 -27.99 16.144 -28.5 15.188 C-30 12 -30 12 -30 9 C-30.66 9 -31.32 9 -32 9 C-33.389 7.039 -34.726 5.038 -36 3 C-35.67 2.34 -35.34 1.68 -35 1 C-31 5.75 -31 5.75 -31 8 C-30.34 8 -29.68 8 -29 8 C-28.01 10.31 -27.02 12.62 -26 15 C-25.359 14.795 -24.719 14.59 -24.059 14.379 C-19.027 12.812 -14.24 11.57 -9 11 C-9 9.35 -9 7.7 -9 6 C-7.35 6 -5.7 6 -4 6 C-3.711 5.381 -3.422 4.762 -3.125 4.125 C-2 2 -2 2 0 0 Z " fill="#000000" transform="translate(110,153)"/>
<path d="M0 0 C1.81 3.073 2.242 5.083 1.875 8.625 C1.811 9.401 1.746 10.177 1.68 10.977 C1 13 1 13 -0.867 14.273 C-3 15 -3 15 -6 15 C-5.977 15.987 -5.954 16.975 -5.93 17.992 C-5.903 19.914 -5.903 19.914 -5.875 21.875 C-5.852 23.151 -5.829 24.427 -5.805 25.742 C-6 29 -6 29 -8 31 C-10.569 31.306 -13.048 31.511 -15.625 31.625 C-16.331 31.664 -17.038 31.702 -17.766 31.742 C-19.51 31.836 -21.255 31.919 -23 32 C-23.66 29.03 -24.32 26.06 -25 23 C-24.186 22.42 -24.186 22.42 -23.355 21.828 C-22.64 21.307 -21.925 20.787 -21.188 20.25 C-20.48 19.74 -19.772 19.229 -19.043 18.703 C-16.95 16.958 -15.474 15.287 -14 13 C-14 12.34 -14 11.68 -14 11 C-14.66 10.34 -15.32 9.68 -16 9 C-15.078 8.836 -15.078 8.836 -14.137 8.668 C-13.328 8.509 -12.52 8.351 -11.688 8.188 C-10.887 8.037 -10.086 7.886 -9.262 7.73 C-6.746 6.918 -5.774 5.899 -4 4 C-3.34 4 -2.68 4 -2 4 C-1.34 2.68 -0.68 1.36 0 0 Z " fill="#FEFEFE" transform="translate(146,123)"/>
<path d="M0 0 C0.66 0 1.32 0 2 0 C7.01 11.29 11.183 22.537 14.312 34.5 C14.496 35.183 14.68 35.866 14.87 36.57 C16.47 42.929 16.47 42.929 15 46 C12 48 12 48 9 48 C8.671 46.706 8.671 46.706 8.336 45.387 C6.389 37.893 4.293 30.459 2 23.062 C1.763 22.283 1.527 21.503 1.283 20.7 C-0.174 16.069 -1.93 11.995 -4.426 7.822 C-5 6 -5 6 -4.105 3.77 C-3.741 3.186 -3.376 2.602 -3 2 C-2.01 2 -1.02 2 0 2 C0 1.34 0 0.68 0 0 Z " fill="#FFFFFF" transform="translate(72,204)"/>
<path d="M0 0 C4.104 2.141 7.39 4.474 8.895 8.988 C9.245 14.418 9.27 17.488 5.895 21.988 C5.895 19.655 5.895 17.322 5.895 14.988 C3.062 10.344 0.041 8.591 -5.105 6.988 C-11.768 5.989 -17.372 7.482 -23.105 10.988 C-23.435 11.648 -23.765 12.308 -24.105 12.988 C-24.765 12.988 -25.425 12.988 -26.105 12.988 C-26.229 13.751 -26.353 14.515 -26.48 15.301 C-27.105 17.988 -27.105 17.988 -29.105 20.988 C-31.08 16.226 -31.446 12.993 -30.105 7.988 C-26.716 2.442 -26.716 2.442 -22.996 1.395 C-20.793 1.113 -20.793 1.113 -17.105 0.988 C-17.105 0.328 -17.105 -0.332 -17.105 -1.012 C-11.123 -3.006 -5.719 -2.38 0 0 Z " fill="#9B9B9B" transform="translate(205.10546875,217.01171875)"/>
<path d="M0 0 C3.367 1.333 4.546 2.301 6.5 5.312 C7.213 9.148 6.15 10.81 4 14 C0.358 17.214 -3.152 17.528 -7.844 17.348 C-11.216 16.804 -12.822 15.586 -15 13 C-16.237 9.367 -16.345 7.758 -14.75 4.25 C-10.666 -1.001 -6.139 -0.628 0 0 Z " fill="#666666" transform="translate(246,263)"/>
<path d="M0 0 C2.97 0.33 5.94 0.66 9 1 C9.33 3.31 9.66 5.62 10 8 C8.68 8 7.36 8 6 8 C6 9.65 6 11.3 6 13 C4.407 13.091 4.407 13.091 2.781 13.184 C-7.637 13.793 -7.637 13.793 -18 15 C-18.33 15.99 -18.66 16.98 -19 18 C-19.054 16.042 -19.093 14.084 -19.125 12.125 C-19.148 11.034 -19.171 9.944 -19.195 8.82 C-19 6 -19 6 -17 4 C-11.7 1.615 -6.686 1.798 -1 2 C-0.67 1.34 -0.34 0.68 0 0 Z " fill="#EAEAEA" transform="translate(167,137)"/>
<path d="M0 0 C1.447 10.639 2.381 21.289 3.125 32 C3.212 33.24 3.3 34.479 3.39 35.757 C3.821 42.188 4.097 48.555 4 55 C2.009 55.381 0.007 55.713 -2 56 C-3.768 54.232 -3.36 51.648 -3.535 49.242 C-3.622 48.059 -3.709 46.875 -3.799 45.656 C-3.929 43.785 -3.929 43.785 -4.062 41.875 C-4.153 40.65 -4.244 39.426 -4.338 38.164 C-4.75 32.431 -5.128 26.748 -5 21 C-3.02 21 -1.04 21 1 21 C1 20.34 1 19.68 1 19 C-0.98 19.33 -2.96 19.66 -5 20 C-5.33 18.68 -5.66 17.36 -6 16 C-4.35 16 -2.7 16 -1 16 C-1.144 15.252 -1.289 14.505 -1.438 13.734 C-1.623 12.75 -1.809 11.765 -2 10.75 C-2.186 9.775 -2.371 8.801 -2.562 7.797 C-3 5 -3 5 -3 1 C-1 0 -1 0 0 0 Z " fill="#FFFFFF" transform="translate(180,130)"/>
<path d="M0 0 C2.06 13.086 3.475 25.747 3 39 C-0.612 35.979 -1.037 32.615 -2.059 28.18 C-2.369 27.46 -2.68 26.741 -3 26 C-5.023 25.119 -5.023 25.119 -7 25 C-8.205 20.108 -8.335 15.197 -8.562 10.188 C-8.606 9.304 -8.649 8.42 -8.693 7.51 C-8.799 5.34 -8.9 3.17 -9 1 C-1.125 0 -1.125 0 0 0 Z " fill="#E6E6E6" transform="translate(219,144)"/>
<path d="M0 0 C0 0.33 0 0.66 0 1 C-3.3 1.33 -6.6 1.66 -10 2 C-9.938 3.423 -9.876 4.846 -9.812 6.312 C-9.628 10.559 -9.628 10.559 -11.512 12.793 C-12.003 13.191 -12.494 13.59 -13 14 C-13 13.34 -13 12.68 -13 12 C-14.32 12 -15.64 12 -17 12 C-16.847 12.838 -16.693 13.676 -16.535 14.539 C-14.727 26.235 -14.859 38.195 -15 50 C-15.66 50 -16.32 50 -17 50 C-17.05 49.27 -17.1 48.54 -17.152 47.788 C-17.387 44.421 -17.631 41.054 -17.875 37.688 C-17.954 36.54 -18.032 35.392 -18.113 34.209 C-18.642 27.027 -19.542 20.053 -21 13 C-23.31 13.33 -25.62 13.66 -28 14 C-27.34 26.21 -26.68 38.42 -26 51 C-27.485 51.495 -27.485 51.495 -29 52 C-29.289 47.911 -29.574 43.822 -29.854 39.732 C-29.95 38.345 -30.047 36.958 -30.146 35.572 C-30.702 27.703 -31.123 19.891 -31 12 C-35.29 12 -39.58 12 -44 12 C-43.67 11.34 -43.34 10.68 -43 10 C-40.094 9.551 -40.094 9.551 -36.5 9.312 C-34.721 9.183 -34.721 9.183 -32.906 9.051 C-31.947 9.034 -30.988 9.017 -30 9 C-29.67 9.33 -29.34 9.66 -29 10 C-27.438 10.047 -25.875 10.037 -24.312 10 C-20.418 9.955 -16.827 10.194 -13 11 C-13.041 9.907 -13.083 8.814 -13.125 7.688 C-13 4 -13 4 -11 1 C-7.34 -0.118 -3.805 -0.088 0 0 Z " fill="#000000" transform="translate(239,132)"/>
<path d="M0 0 C0.33 1.32 0.66 2.64 1 4 C1.33 2.68 1.66 1.36 2 0 C4.441 5.644 4.193 10.978 4 17 C1.375 17.054 -1.249 17.094 -3.875 17.125 C-4.621 17.142 -5.368 17.159 -6.137 17.176 C-8.092 17.193 -10.047 17.103 -12 17 C-14.561 14.439 -14.402 13.058 -14.688 9.5 C-14.774 8.52 -14.86 7.541 -14.949 6.531 C-15 4 -15 4 -14 2 C-11.348 1.367 -11.348 1.367 -8.062 0.875 C-6.981 0.707 -5.899 0.54 -4.785 0.367 C-2 0 -2 0 0 0 Z " fill="#EEEEEE" transform="translate(246,100)"/>
<path d="M0 0 C-1.335 3.594 -2.96 6.755 -5 10 C-3.02 10.99 -1.04 11.98 1 13 C1 13.66 1 14.32 1 15 C-5.656 16.238 -12.247 16.091 -19 16 C-21.295 11.984 -20.988 9.53 -20 5 C-18 2 -18 2 -14.883 1.27 C-13.643 1.119 -12.403 0.968 -11.125 0.812 C-9.273 0.575 -9.273 0.575 -7.383 0.332 C-4 0 -4 0 0 0 Z " fill="#D1D1D1" transform="translate(252,33)"/>
<path d="M0 0 C1.32 0 2.64 0 4 0 C6.832 6.498 7.62 12.334 8.062 19.375 C8.191 21.342 8.327 23.308 8.473 25.273 C8.527 26.134 8.581 26.994 8.637 27.88 C8.826 30.211 8.826 30.211 11 32 C11.398 33.988 11.738 35.989 12 38 C8.37 38.66 4.74 39.32 1 40 C0.67 39.34 0.34 38.68 0 38 C0.66 38 1.32 38 2 38 C1.34 25.46 0.68 12.92 0 0 Z " fill="#FFFFFF" transform="translate(222,144)"/>
<path d="M0 0 C0.66 0.33 1.32 0.66 2 1 C2.995 3.984 3.196 6.2 3.316 9.324 C3.358 10.352 3.4 11.38 3.443 12.439 C3.483 13.511 3.522 14.583 3.562 15.688 C3.606 16.771 3.649 17.854 3.693 18.971 C3.799 21.647 3.902 24.323 4 27 C-1.296 28.98 -5.832 30.385 -11.562 30.188 C-13.111 30.147 -13.111 30.147 -14.691 30.105 C-15.453 30.071 -16.215 30.036 -17 30 C-13.348 27.732 -9.987 27.61 -5.75 27.375 C-4.487 27.3 -3.223 27.225 -1.922 27.148 C-0.476 27.075 -0.476 27.075 1 27 C1 26.34 1 25.68 1 25 C-0.32 25.33 -1.64 25.66 -3 26 C-3 25.34 -3 24.68 -3 24 C-3.66 24 -4.32 24 -5 24 C-5.33 17.4 -5.66 10.8 -6 4 C-14.219 4.71 -14.219 4.71 -19 6 C-19 5.34 -19 4.68 -19 4 C-12.622 2.827 -6.497 1.705 0 2 C0 1.34 0 0.68 0 0 Z " fill="#535353" transform="translate(122,157)"/>
<path d="M0 0 C1.189 0.009 2.377 0.018 3.602 0.027 C4.517 0.039 5.432 0.051 6.375 0.062 C6.375 0.392 6.375 0.723 6.375 1.062 C1.755 1.392 -2.865 1.722 -7.625 2.062 C-7.625 2.722 -7.625 3.383 -7.625 4.062 C-8.285 4.062 -8.945 4.062 -9.625 4.062 C-9.955 6.043 -10.285 8.023 -10.625 10.062 C-9.305 8.082 -7.985 6.102 -6.625 4.062 C-6.625 7.062 -6.625 7.062 -7.188 10.562 C-7.876 14.028 -7.876 14.028 -6.625 17.062 C-7.285 17.062 -7.945 17.062 -8.625 17.062 C-8.652 19.167 -8.671 21.271 -8.688 23.375 C-8.699 24.547 -8.711 25.719 -8.723 26.926 C-8.774 30.093 -8.774 30.093 -7.625 33.062 C-6.965 33.062 -6.305 33.062 -5.625 33.062 C-6.12 34.052 -6.12 34.052 -6.625 35.062 C-10.563 31.739 -10.563 31.739 -10.875 28.312 C-10.792 27.57 -10.71 26.828 -10.625 26.062 C-11.202 26.216 -11.779 26.37 -12.373 26.529 C-24.473 29.395 -37.646 29.28 -50 29.375 C-51.719 29.401 -51.719 29.401 -53.473 29.428 C-59.643 29.424 -64.177 29.038 -69.625 26.062 C-68.965 25.733 -68.305 25.403 -67.625 25.062 C-66.391 25.519 -66.391 25.519 -65.133 25.984 C-60.511 27.405 -56.307 27.359 -51.5 27.312 C-50.028 27.307 -50.028 27.307 -48.527 27.301 C-35.863 27.159 -23.241 26.113 -10.625 25.062 C-11.12 24.072 -11.12 24.072 -11.625 23.062 C-13.938 23.206 -16.25 23.352 -18.562 23.5 C-19.85 23.581 -21.138 23.662 -22.465 23.746 C-25.245 23.935 -27.987 24.233 -30.75 24.594 C-37.046 25.319 -43.359 25.169 -49.688 25.125 C-50.935 25.12 -52.182 25.116 -53.467 25.111 C-56.52 25.1 -59.572 25.083 -62.625 25.062 C-62.625 24.733 -62.625 24.403 -62.625 24.062 C-61.623 24.033 -61.623 24.033 -60.6 24.002 C-49.034 23.643 -37.551 23.251 -26.073 21.728 C-21.2 21.089 -16.532 20.884 -11.625 21.062 C-12.12 17.102 -12.12 17.102 -12.625 13.062 C-17.245 13.392 -21.865 13.722 -26.625 14.062 C-26.625 13.733 -26.625 13.403 -26.625 13.062 C-19.695 12.072 -19.695 12.072 -12.625 11.062 C-12.295 9.082 -11.965 7.102 -11.625 5.062 C-11.295 4.403 -10.965 3.742 -10.625 3.062 C-9.965 3.062 -9.305 3.062 -8.625 3.062 C-8.625 2.403 -8.625 1.742 -8.625 1.062 C-5.741 -0.38 -3.208 -0.031 0 0 Z " fill="#000000" transform="translate(239.625,30.9375)"/>
<path d="M0 0 C3.125 6.625 3.125 6.625 2 10 C0.326 10.891 0.326 10.891 -1.816 11.605 C-2.58 11.867 -3.344 12.128 -4.131 12.396 C-4.933 12.658 -5.736 12.919 -6.562 13.188 C-7.369 13.46 -8.175 13.733 -9.006 14.014 C-11 14.686 -13 15.345 -15 16 C-17.969 10.328 -17.969 10.328 -18.25 7.375 C-16.151 3.388 -12.063 2.521 -8 1 C-5.291 -0.354 -2.991 -0.065 0 0 Z " fill="#FFFFFF" transform="translate(94,250)"/>
<path d="M0 0 C0 0.66 0 1.32 0 2 C1.176 1.907 1.176 1.907 2.375 1.812 C3.674 1.905 3.674 1.905 5 2 C7 5 7 5 6.812 8 C5.762 11.879 4.471 13.002 1.25 15.188 C-1.985 16.356 -4.586 16.3 -8 16 C-10.938 14.5 -10.938 14.5 -13 13 C-12.188 10.562 -12.188 10.562 -11 8 C-7.527 6.842 -4.639 6.931 -1 7 C-3.97 6.505 -3.97 6.505 -7 6 C-7 5.67 -7 5.34 -7 5 C0.429 4.714 0.429 4.714 4 7 C4 6.34 4 5.68 4 5 C-3.76 3.646 -3.76 3.646 -11 6 C-13.272 8.02 -13.272 8.02 -15 10 C-15.354 6.811 -15.32 5.431 -13.375 2.812 C-9.003 -0.524 -5.311 -1.562 0 0 Z " fill="#242424" transform="translate(155,186)"/>
<path d="M0 0 C1.906 1.273 1.906 1.273 2.656 4.773 C2.999 9.742 3.002 14.732 3.031 19.711 C3.036 20.517 3.041 21.322 3.046 22.152 C3.028 28.029 3.028 28.029 1.906 30.273 C-0.074 29.943 -2.054 29.613 -4.094 29.273 C-4.119 28.603 -4.144 27.932 -4.17 27.241 C-4.286 24.189 -4.409 21.138 -4.531 18.086 C-4.571 17.031 -4.61 15.976 -4.65 14.889 C-4.692 13.867 -4.734 12.846 -4.777 11.793 C-4.814 10.856 -4.851 9.918 -4.888 8.952 C-5.09 6.322 -5.521 3.846 -6.094 1.273 C-2.671 -0.927 -2.671 -0.927 0 0 Z " fill="#FFFFFF" transform="translate(255.09375,98.7265625)"/>
<path d="M0 0 C0.736 0.014 1.472 0.027 2.23 0.041 C4.029 0.076 5.827 0.13 7.625 0.188 C6.625 2.188 6.625 2.188 4.625 3.062 C2.425 4.011 2.425 4.011 1.875 6.312 C1.792 6.931 1.71 7.55 1.625 8.188 C2.264 8.476 2.904 8.765 3.562 9.062 C5.625 10.188 5.625 10.188 6.625 12.188 C4.585 12.411 2.543 12.616 0.5 12.812 C-0.637 12.929 -1.774 13.045 -2.945 13.164 C-6.602 13.189 -9.048 12.682 -12.375 11.188 C-14.527 7.96 -14.576 6.903 -14.375 3.188 C-9.355 0.171 -5.662 -0.2 0 0 Z " fill="#C8C8C8" transform="translate(245.375,51.8125)"/>
<path d="M0 0 C-1.925 1.925 -5.397 1.473 -7.965 1.684 C-9.42 1.808 -10.875 1.932 -12.33 2.057 C-14.62 2.247 -16.911 2.435 -19.201 2.622 C-27.564 3.311 -35.818 4.029 -44 6 C-44 6.99 -44 7.98 -44 9 C-40.5 8.69 -37 8.376 -33.5 8.062 C-32.518 7.975 -31.535 7.888 -30.523 7.799 C-26.284 7.417 -22.06 7.027 -17.844 6.438 C-13.53 5.947 -9.335 5.889 -5 5.938 C-4.225 5.942 -3.451 5.947 -2.652 5.951 C-0.768 5.963 1.116 5.981 3 6 C3.33 5.01 3.66 4.02 4 3 C4.495 5.475 4.495 5.475 5 8 C3.958 7.977 2.917 7.954 1.844 7.93 C-6.963 7.796 -15.387 8.263 -24.105 9.488 C-30.053 10.27 -36.012 10.644 -42 11 C-38.349 12.217 -35.335 11.821 -31.586 11.441 C-30.857 11.373 -30.128 11.305 -29.377 11.235 C-27.042 11.017 -24.709 10.79 -22.375 10.562 C-3.89 8.774 -3.89 8.774 4 9 C4 9.33 4 9.66 4 10 C-6.424 11.543 -16.866 12.44 -27.375 13.188 C-29.328 13.331 -29.328 13.331 -31.321 13.478 C-33.154 13.603 -33.154 13.603 -35.023 13.73 C-36.677 13.845 -36.677 13.845 -38.365 13.962 C-41 14 -41 14 -43 13 C-43 14.98 -43 16.96 -43 19 C-46.326 15.469 -46.468 12.498 -46.688 7.75 C-46.753 6.487 -46.819 5.223 -46.887 3.922 C-46.924 2.958 -46.961 1.993 -47 1 C-46.01 1.495 -46.01 1.495 -45 2 C-45 2.66 -45 3.32 -45 4 C-44.213 3.813 -44.213 3.813 -43.41 3.622 C-35.757 1.938 -28.048 1.199 -20.256 0.512 C-17.976 0.31 -15.697 0.096 -13.418 -0.119 C-11.966 -0.251 -10.514 -0.382 -9.062 -0.512 C-7.1 -0.689 -7.1 -0.689 -5.098 -0.87 C-2 -1 -2 -1 0 0 Z " fill="#000000" transform="translate(221,185)"/>
<path d="M0 0 C1.228 -0.008 2.457 -0.015 3.723 -0.023 C6.938 0.375 6.938 0.375 8.875 1.742 C9.938 3.375 9.938 3.375 9.875 5.875 C8.726 8.94 7.723 9.705 4.938 11.375 C0.037 12.12 -4.605 11.918 -9.25 10.188 C-11.062 8.375 -11.062 8.375 -11.625 5.875 C-11.062 3.375 -11.062 3.375 -9.469 1.742 C-6.21 -0.109 -3.728 -0.024 0 0 Z " fill="#FFFFFF" transform="translate(185.0625,36.625)"/>
<path d="M0 0 C1.335 0.944 2.669 1.888 4.004 2.832 C11.419 7.171 17.284 7.441 25.812 7.312 C27.604 7.3 27.604 7.3 29.432 7.287 C37.845 7.174 46.096 6.591 54.426 5.438 C57.665 5.041 60.742 4.919 64 5 C64.495 6.485 64.495 6.485 65 8 C51.892 10.773 38.049 11.189 24.688 11.375 C23.303 11.414 23.303 11.414 21.891 11.453 C15.446 11.471 9.591 10.381 4 7 C3.67 6.01 3.34 5.02 3 4 C2.34 4 1.68 4 1 4 C0.67 2.68 0.34 1.36 0 0 Z " fill="#FFFFFF" transform="translate(164,48)"/>
<path d="M0 0 C2.005 4.01 2.354 6.134 2.633 10.516 C2.717 11.766 2.8 13.016 2.887 14.305 C2.965 15.607 3.044 16.909 3.125 18.25 C3.211 19.581 3.299 20.912 3.387 22.242 C3.599 25.494 3.803 28.747 4 32 C3.34 32 2.68 32 2 32 C1.455 27.915 1 24.127 1 20 C0.01 20.248 0.01 20.248 -1 20.5 C-4.756 21.126 -8.191 21.127 -12 21 C-13 20 -13 20 -13.098 17.715 C-13.065 15.143 -13.033 12.572 -13 10 C-8.71 10 -4.42 10 0 10 C0 6.7 0 3.4 0 0 Z " fill="#030303" transform="translate(174,154)"/>
<path d="M0 0 C2.97 0.495 2.97 0.495 6 1 C6 3.31 6 5.62 6 8 C6.66 8 7.32 8 8 8 C7.959 7.051 7.918 6.103 7.875 5.125 C8 2 8 2 10 0 C12.625 0.375 12.625 0.375 15 1 C16.188 4.188 16.188 4.188 17 8 C15.625 10.938 15.625 10.938 14 13 C9.25 12.25 9.25 12.25 7 10 C6.608 10.516 6.216 11.031 5.812 11.562 C5.214 12.037 4.616 12.511 4 13 C1.312 12.688 1.312 12.688 -1 12 C-2.03 7.237 -2.395 4.341 0 0 Z " fill="#000000" transform="translate(303,293)"/>
<path d="M0 0 C1.27 1.465 2.534 2.936 3.727 4.465 C5.269 6.325 6.995 7.663 9 9 C8.744 11.343 8.407 13.678 8 16 C5.595 17.203 4.05 17.101 1.375 17.062 C0.149 17.049 0.149 17.049 -1.102 17.035 C-1.728 17.024 -2.355 17.012 -3 17 C-3 15.68 -3 14.36 -3 13 C-3.66 13 -4.32 13 -5 13 C-6.437 4.896 -6.437 4.896 -4.75 1.438 C-3 0 -3 0 0 0 Z " fill="#FFFFFF" transform="translate(242,14)"/>
<path d="M0 0 C0 0.66 0 1.32 0 2 C-5.125 2.461 -10.25 2.919 -15.375 3.375 C-16.526 3.478 -16.526 3.478 -17.701 3.582 C-27.899 4.491 -38.1 5.323 -48.312 6.062 C-56.622 6.67 -64.805 7.441 -73 9 C-73.33 7.68 -73.66 6.36 -74 5 C-63.709 4.048 -53.418 3.11 -43.124 2.19 C-41.163 2.015 -39.202 1.838 -37.241 1.662 C-24.797 0.553 -12.5 -0.335 0 0 Z " fill="#FFFFFF" transform="translate(300,186)"/>
<path d="M0 0 C2.97 0 5.94 0 9 0 C8.67 0.66 8.34 1.32 8 2 C6.68 2 5.36 2 4 2 C4.462 3.769 4.462 3.769 4.934 5.574 C6.417 12.247 6.671 19.005 7.062 25.812 C7.217 28.403 7.374 30.992 7.535 33.582 C7.601 34.719 7.667 35.855 7.735 37.027 C7.895 39.909 7.895 39.909 8.654 42.237 C8.768 42.819 8.882 43.401 9 44 C5.593 48.472 2.466 49.998 -3 51 C-6.009 51.139 -8.991 51.123 -12 51 C-12.33 51.99 -12.66 52.98 -13 54 C-13.33 54 -13.66 54 -14 54 C-13.857 54.695 -13.714 55.39 -13.567 56.106 C-12.009 64.385 -11.761 72.343 -11.875 80.75 C-11.884 82.031 -11.893 83.313 -11.902 84.633 C-11.926 87.755 -11.958 90.878 -12 94 C-12.33 94 -12.66 94 -13 94 C-13.02 93.345 -13.04 92.69 -13.06 92.016 C-13.156 89.01 -13.265 86.005 -13.375 83 C-13.406 81.97 -13.437 80.94 -13.469 79.879 C-13.696 73.935 -14.41 68.723 -16 63 C-16.212 61.297 -16.387 59.588 -16.5 57.875 C-16.829 53.995 -17.56 50.647 -19 47 C-18.34 47 -17.68 47 -17 47 C-16.67 48.65 -16.34 50.3 -16 52 C-15.01 52 -14.02 52 -13 52 C-13 51.34 -13 50.68 -13 50 C-8.38 49.67 -3.76 49.34 1 49 C1.33 47.68 1.66 46.36 2 45 C2.33 45.66 2.66 46.32 3 47 C3.66 47 4.32 47 5 47 C6.08 22.926 6.08 22.926 0 0 Z " fill="#000000" transform="translate(258,86)"/>
<path d="M0 0 C1.5 1.375 1.5 1.375 3 3 C3 3.66 3 4.32 3 5 C3.536 5.248 4.072 5.495 4.625 5.75 C7 7 7 7 9.938 9 C16.552 13.32 22.042 13.336 29.75 13.312 C30.797 13.329 31.843 13.345 32.922 13.361 C38.82 13.365 43.616 12.858 49.071 10.548 C51 10 51 10 55 11 C51.04 12.32 47.08 13.64 43 15 C50.461 13.285 57.114 11.303 64 8 C65.662 7.322 67.326 6.648 69 6 C63.099 13.082 53.95 15.828 45 17 C38.109 17.484 31.341 16.93 24.5 16.125 C23.817 16.047 23.135 15.968 22.431 15.888 C18.929 15.433 16.037 14.844 13 13 C13.99 15.31 14.98 17.62 16 20 C15.34 20 14.68 20 14 20 C12.235 16.912 12 15.767 12 12 C10.917 11.629 10.917 11.629 9.812 11.25 C5.453 9.312 2.642 6.963 0 3 C0 2.01 0 1.02 0 0 Z " fill="#000000" transform="translate(22,61)"/>
<path d="M0 0 C6.334 -0.345 11.103 0.707 17 3 C16.67 4.32 16.34 5.64 16 7 C15.67 6.01 15.34 5.02 15 4 C11.746 2.963 11.746 2.963 7.938 2.312 C6.647 2.061 5.357 1.81 4.027 1.551 C3.028 1.369 2.029 1.187 1 1 C1.151 1.655 1.302 2.31 1.457 2.985 C2.13 6.722 2.412 10.457 2.684 14.238 C2.808 15.881 2.932 17.523 3.057 19.166 C3.246 21.721 3.435 24.277 3.622 26.832 C4.255 35.409 4.929 43.953 6.059 52.48 C6.914 58.993 7.403 65.438 7.625 72 C7.664 72.977 7.702 73.954 7.742 74.961 C7.834 77.307 7.92 79.653 8 82 C7.67 82 7.34 82 7 82 C5.911 77.324 5.573 72.648 5.188 67.875 C5.014 65.844 4.839 63.812 4.664 61.781 C4.293 57.452 3.927 53.123 3.565 48.793 C3.162 43.966 2.743 39.14 2.318 34.315 C2.148 32.359 1.983 30.402 1.822 28.445 C1.592 25.658 1.347 22.872 1.098 20.086 C0.999 18.823 0.999 18.823 0.899 17.535 C0.471 12.957 -0.183 9.803 -3 6 C-2.34 6 -1.68 6 -1 6 C-0.67 4.02 -0.34 2.04 0 0 Z " fill="#000000" transform="translate(137,217)"/>
<path d="M0 0 C3.822 6.826 4.285 13.228 4.195 20.871 C4.192 21.793 4.19 22.716 4.187 23.666 C4.176 26.59 4.151 29.514 4.125 32.438 C4.115 34.429 4.106 36.421 4.098 38.412 C4.076 43.275 4.041 48.137 4 53 C1.283 50.283 1.72 48.755 1.656 44.953 C1.627 43.714 1.597 42.476 1.566 41.199 C1.544 39.896 1.523 38.593 1.5 37.25 C1.346 28.401 0.869 19.853 -0.58 11.112 C-1.638 3.275 -1.638 3.275 0 0 Z " fill="#FFFFFF" transform="translate(253,21)"/>
<path d="M0 0 C0 1.667 0 3.333 0 5 C0.66 4.34 1.32 3.68 2 3 C2.073 3.917 2.073 3.917 2.148 4.852 C2.366 7.516 2.593 10.179 2.82 12.842 C2.95 14.395 3.074 15.948 3.195 17.502 C3.983 27.584 4.844 37.405 7.203 47.262 C8.942 55.419 9.896 63.736 11 72 C10.34 72 9.68 72 9 72 C8.789 70.654 8.789 70.654 8.573 69.281 C8.043 65.919 7.509 62.557 6.974 59.195 C6.744 57.746 6.515 56.297 6.287 54.848 C4.883 45.517 4.883 45.517 2.844 36.312 C2.094 33.37 1.781 31.013 1.875 28 C1.893 27.237 1.911 26.474 1.93 25.688 C1.964 24.852 1.964 24.852 2 24 C0.515 26.475 0.515 26.475 -1 29 C-1.66 28.67 -2.32 28.34 -3 28 C-2.34 27.34 -1.68 26.68 -1 26 C-0.467 20.893 -0.974 16.002 -2 11 C-2.185 7.991 -2.348 4.998 -2 2 C-1.34 1.34 -0.68 0.68 0 0 Z " fill="#000000" transform="translate(277,110)"/>
<path d="M0 0 C2.292 -0.027 4.583 -0.046 6.875 -0.062 C8.151 -0.074 9.427 -0.086 10.742 -0.098 C14 0 14 0 16 1 C16 3.97 16 6.94 16 10 C15.67 9.34 15.34 8.68 15 8 C10.05 8 5.1 8 0 8 C0 5.36 0 2.72 0 0 Z " fill="#FFFFFF" transform="translate(234,118)"/>
<path d="M0 0 C0.33 0.99 0.66 1.98 1 3 C1.66 3 2.32 3 3 3 C8.133 14.722 5.932 29.234 5.562 41.75 C5.509 43.719 5.456 45.687 5.404 47.656 C5.276 52.438 5.14 57.219 5 62 C3.543 62.195 2.084 62.381 0.625 62.562 C-0.593 62.719 -0.593 62.719 -1.836 62.879 C-4 63 -4 63 -6 62 C-5.67 61.34 -5.34 60.68 -5 60 C-4.072 60.165 -3.144 60.33 -2.188 60.5 C0.956 61.077 0.956 61.077 4 61 C3.906 55.753 3.8 50.506 3.683 45.259 C3.645 43.478 3.61 41.696 3.578 39.914 C3.532 37.34 3.474 34.766 3.414 32.191 C3.403 31.407 3.391 30.622 3.379 29.813 C3.254 25.041 2.624 20.663 1.463 16.031 C0.739 12.856 0.564 9.682 0.375 6.438 C0.3 5.219 0.225 4.001 0.148 2.746 C0.075 1.387 0.075 1.387 0 0 Z " fill="#3B3B3B" transform="translate(262,14)"/>
<path d="M0 0 C0 0.33 0 0.66 0 1 C-0.784 1.124 -1.567 1.248 -2.375 1.375 C-5.141 1.791 -5.141 1.791 -7 4 C-13.025 5.197 -19.174 5.377 -25.297 5.719 C-27.493 5.848 -29.69 5.977 -31.887 6.105 C-35.332 6.304 -38.778 6.502 -42.223 6.698 C-45.56 6.889 -48.897 7.085 -52.234 7.281 C-53.269 7.339 -54.303 7.396 -55.369 7.455 C-56.806 7.54 -56.806 7.54 -58.272 7.627 C-59.115 7.675 -59.958 7.723 -60.826 7.773 C-63.179 7.94 -63.179 7.94 -66 9 C-66 8.34 -66 7.68 -66 7 C-63.319 5.659 -61.034 5.715 -58.039 5.535 C-56.845 5.457 -55.652 5.379 -54.422 5.299 C-51.899 5.142 -49.375 4.988 -46.852 4.838 C-45.655 4.759 -44.459 4.679 -43.227 4.598 C-42.129 4.531 -41.032 4.464 -39.901 4.395 C-37.073 4.01 -35.496 3.277 -33 2 C-30.378 1.589 -30.378 1.589 -27.422 1.367 C-26.343 1.283 -25.264 1.2 -24.152 1.113 C-22.468 0.995 -22.468 0.995 -20.75 0.875 C-19.643 0.789 -18.535 0.702 -17.395 0.613 C-11.58 0.178 -5.831 -0.1 0 0 Z " fill="#000000" transform="translate(223,259)"/>
<path d="M0 0 C-0.325 0.835 -0.325 0.835 -0.656 1.688 C-2.614 7.052 -3.311 11.299 -3 17 C-4.98 17 -6.96 17 -9 17 C-9.081 14.541 -9.14 12.085 -9.188 9.625 C-9.213 8.926 -9.238 8.228 -9.264 7.508 C-9.293 5.477 -9.293 5.477 -9 2 C-5.565 -0.29 -4.015 -0.178 0 0 Z " fill="#FFFFFF" transform="translate(150,139)"/>
<path d="M0 0 C2 2 2 2 3 5 C3 3.35 3 1.7 3 0 C6.63 0.33 10.26 0.66 14 1 C14 1.33 14 1.66 14 2 C11.03 2 8.06 2 5 2 C4.638 14.607 4.638 14.607 6.562 27.02 C7 29 7 29 7 33 C7.99 32.505 7.99 32.505 9 32 C11.672 31.866 14.323 31.957 17 32 C17 32.33 17 32.66 17 33 C13.37 33.66 9.74 34.32 6 35 C5.67 33.35 5.34 31.7 5 30 C4.505 32.475 4.505 32.475 4 35 C3.67 35 3.34 35 3 35 C2.917 33.729 2.917 33.729 2.832 32.433 C2.624 29.268 2.413 26.104 2.2 22.939 C2.109 21.574 2.019 20.208 1.93 18.843 C1.801 16.872 1.668 14.901 1.535 12.93 C1.457 11.746 1.378 10.563 1.297 9.343 C1.017 6.187 0.566 3.116 0 0 Z " fill="#000000" transform="translate(227,146)"/>
<path d="M0 0 C-0.33 0.66 -0.66 1.32 -1 2 C-2.287 5.861 -2.138 8.942 -2 13 C-2.33 13 -2.66 13 -3 13 C-3.33 9.04 -3.66 5.08 -4 1 C-5.567 1.33 -7.135 1.66 -8.75 2 C-12.007 2.686 -14.633 3 -18 3 C-18.041 4.196 -18.083 5.392 -18.125 6.625 C-18.148 7.298 -18.171 7.971 -18.195 8.664 C-18.036 11.68 -18.036 11.68 -16 17 C-11.05 17 -6.1 17 -1 17 C-1 17.66 -1 18.32 -1 19 C-5.95 19 -10.9 19 -16 19 C-16.33 19.99 -16.66 20.98 -17 22 C-17.99 21.67 -18.98 21.34 -20 21 C-20.081 18.229 -20.14 15.46 -20.188 12.688 C-20.225 11.509 -20.225 11.509 -20.264 10.307 C-20.273 9.549 -20.283 8.792 -20.293 8.012 C-20.309 7.315 -20.324 6.619 -20.341 5.901 C-19.895 3.412 -18.958 2.548 -17 1 C-14.766 0.488 -14.766 0.488 -12.25 0.312 C-10.931 0.216 -10.931 0.216 -9.586 0.117 C-6.38 -0.028 -3.208 -0.07 0 0 Z " fill="#000000" transform="translate(250,99)"/>
<path d="M0 0 C2.375 0.812 2.375 0.812 3.375 2.812 C3.678 6.302 3.77 8.188 1.875 11.188 C1.38 11.724 0.885 12.26 0.375 12.812 C-1.275 12.483 -2.925 12.152 -4.625 11.812 C-4.875 10.378 -5.099 8.94 -5.312 7.5 C-5.44 6.699 -5.568 5.899 -5.699 5.074 C-5.625 2.812 -5.625 2.812 -4.309 1.008 C-2.625 -0.188 -2.625 -0.188 0 0 Z " fill="#000000" transform="translate(277.625,293.1875)"/>
<path d="M0 0 C2.375 0.812 2.375 0.812 3.375 2.812 C3.678 6.302 3.77 8.188 1.875 11.188 C1.38 11.724 0.885 12.26 0.375 12.812 C-1.275 12.483 -2.925 12.152 -4.625 11.812 C-4.875 10.378 -5.099 8.94 -5.312 7.5 C-5.44 6.699 -5.568 5.899 -5.699 5.074 C-5.625 2.812 -5.625 2.812 -4.309 1.008 C-2.625 -0.188 -2.625 -0.188 0 0 Z " fill="#000000" transform="translate(267.625,293.1875)"/>
<path d="M0 0 C2.375 0.812 2.375 0.812 3.375 2.812 C3.288 4.359 3.135 5.902 2.938 7.438 C2.836 8.255 2.734 9.072 2.629 9.914 C2.545 10.541 2.461 11.167 2.375 11.812 C0.725 12.142 -0.925 12.473 -2.625 12.812 C-4.856 10.396 -5.594 9.062 -6 5.75 C-5.625 2.812 -5.625 2.812 -4.438 0.875 C-2.625 -0.188 -2.625 -0.188 0 0 Z " fill="#000000" transform="translate(257.625,293.1875)"/>
<path d="M0 0 C0.33 0.66 0.66 1.32 1 2 C2.315 2.702 3.651 3.365 5 4 C5.99 4.66 6.98 5.32 8 6 C8.512 8.602 8.512 8.602 8.688 11.625 C8.786 13.129 8.786 13.129 8.887 14.664 C8.924 15.435 8.961 16.206 9 17 C8.34 16.67 7.68 16.34 7 16 C7 14.68 7 13.36 7 12 C6.34 12 5.68 12 5 12 C5 11.34 5 10.68 5 10 C3.554 10.143 3.554 10.143 2.078 10.289 C0.815 10.4 -0.448 10.511 -1.75 10.625 C-3.003 10.741 -4.256 10.857 -5.547 10.977 C-8.836 10.999 -10.31 10.78 -13 9 C-12.34 8.67 -11.68 8.34 -11 8 C-11.33 7.34 -11.66 6.68 -12 6 C-11.295 6.174 -10.59 6.348 -9.863 6.527 C-6.799 7.033 -4.268 6.897 -1.188 6.562 C-0.212 6.461 0.764 6.359 1.77 6.254 C2.874 6.128 2.874 6.128 4 6 C3.34 5.567 2.68 5.134 2 4.688 C1.34 4.131 0.68 3.574 0 3 C0 2.01 0 1.02 0 0 Z " fill="#0D0D0D" transform="translate(247,57)"/>
<path d="M0 0 C0.66 0.66 1.32 1.32 2 2 C1.829 5.25 1.22 6.736 -0.875 9.25 C-3 11 -3 11 -6 12 C-6.33 12.66 -6.66 13.32 -7 14 C-4.03 14 -1.06 14 2 14 C2 14.66 2 15.32 2 16 C-1.96 16 -5.92 16 -10 16 C-9 12 -9 12 -8 10 C-7.34 10 -6.68 10 -6 10 C-6 9.34 -6 8.68 -6 8 C-4.68 7.34 -3.36 6.68 -2 6 C-2 4.68 -2 3.36 -2 2 C-3.32 2 -4.64 2 -6 2 C-6.33 2.99 -6.66 3.98 -7 5 C-7.99 4.67 -8.98 4.34 -10 4 C-7.571 -1.378 -5.646 -1.294 0 0 Z " fill="#000000" transform="translate(239,212)"/>
<path d="M0 0 C3.144 0.91 4.657 1.485 6.5 4.25 C7.204 8.121 6.203 9.802 4 13 C1.312 14.375 1.312 14.375 -1 15 C-1 14.34 -1 13.68 -1 13 C-3.97 12.505 -3.97 12.505 -7 12 C-7.33 11.01 -7.66 10.02 -8 9 C-5.03 9 -2.06 9 1 9 C2.149 7.075 2.149 7.075 2 5 C0.982 3.761 0.982 3.761 -1.145 3.867 C-2.025 3.87 -2.905 3.872 -3.812 3.875 C-4.685 3.872 -5.558 3.87 -6.457 3.867 C-8.787 3.989 -10.769 4.345 -13 5 C-11.241 2.821 -10.306 2.063 -7.52 1.488 C-6.626 1.43 -5.733 1.372 -4.812 1.312 C-3.911 1.247 -3.01 1.181 -2.082 1.113 C-1.051 1.057 -1.051 1.057 0 1 C0 0.67 0 0.34 0 0 Z " fill="#141414" transform="translate(246,264)"/>
<path d="M0 0 C0.99 0.33 1.98 0.66 3 1 C-3.705 5.284 -10.235 7.384 -18 9 C-15.36 9.33 -12.72 9.66 -10 10 C-10 10.33 -10 10.66 -10 11 C-21.709 12.69 -34.065 11.891 -45 7 C-42.464 5.732 -41.747 6.195 -39.062 6.938 C-30.616 8.882 -23.1 8.264 -14.75 6.25 C-14.089 6.093 -13.427 5.936 -12.746 5.775 C-9.22 4.853 -6.322 3.699 -3.203 1.797 C-1.618 0.907 -1.618 0.907 0 0 Z " fill="#000000" transform="translate(92,82)"/>
<path d="M0 0 C-0.66 2.97 -1.32 5.94 -2 9 C-4.31 9 -6.62 9 -9 9 C-9 8.34 -9 7.68 -9 7 C-9.66 7 -10.32 7 -11 7 C-11.289 6.196 -11.578 5.391 -11.875 4.562 C-12.733 1.867 -12.733 1.867 -15 1 C-13.063 0.832 -11.125 0.665 -9.188 0.5 C-7.569 0.361 -7.569 0.361 -5.918 0.219 C-3 0 -3 0 0 0 Z " fill="#FFFFFF" transform="translate(127,187)"/>
<path d="M0 0 C2.31 0 4.62 0 7 0 C8.2 2.401 8.115 3.894 8.098 6.57 C8.094 7.466 8.091 8.362 8.088 9.285 C8.08 10.222 8.071 11.159 8.062 12.125 C8.058 13.07 8.053 14.015 8.049 14.988 C8.037 17.326 8.021 19.663 8 22 C5.36 22 2.72 22 0 22 C1.237 20.762 1.237 20.762 2.5 19.5 C4.61 16.965 5.4 15.245 5.5 11.938 C5.006 8.047 4.402 6.049 2 3 C1.34 2.67 0.68 2.34 0 2 C0 1.34 0 0.68 0 0 Z " fill="#FFFFFF" transform="translate(109,162)"/>
<path d="M0 0 C2.475 0.495 2.475 0.495 5 1 C5.33 6.94 5.66 12.88 6 19 C4.68 19 3.36 19 2 19 C1.662 16.771 1.33 14.542 1 12.312 C0.814 11.071 0.629 9.83 0.438 8.551 C0.079 5.641 -0.089 2.923 0 0 Z " fill="#FFFFFF" transform="translate(119,163)"/>
<path d="M0 0 C1.671 0.062 1.671 0.062 3.375 0.125 C3.375 0.785 3.375 1.445 3.375 2.125 C4.035 2.125 4.695 2.125 5.375 2.125 C5.375 3.445 5.375 4.765 5.375 6.125 C4.715 6.125 4.055 6.125 3.375 6.125 C3.375 6.785 3.375 7.445 3.375 8.125 C0.735 8.125 -1.905 8.125 -4.625 8.125 C-5.25 5.25 -5.25 5.25 -5.625 2.125 C-3.625 0.125 -3.625 0.125 0 0 Z " fill="#FFFFFF" transform="translate(169.625,164.875)"/>
<path d="M0 0 C0.66 0 1.32 0 2 0 C2.33 3.63 2.66 7.26 3 11 C1.35 11 -0.3 11 -2 11 C-1.67 12.32 -1.34 13.64 -1 15 C0.98 14.67 2.96 14.34 5 14 C5 14.66 5 15.32 5 16 C3.02 16 1.04 16 -1 16 C-1.33 16.66 -1.66 17.32 -2 18 C-2.33 17.67 -2.66 17.34 -3 17 C-4.343 16.914 -5.69 16.893 -7.035 16.902 C-7.844 16.906 -8.653 16.909 -9.486 16.912 C-10.762 16.925 -10.762 16.925 -12.062 16.938 C-12.917 16.942 -13.771 16.947 -14.65 16.951 C-16.767 16.963 -18.883 16.981 -21 17 C-19 15 -19 15 -15.305 14.805 C-13.828 14.818 -12.351 14.842 -10.875 14.875 C-10.121 14.884 -9.367 14.893 -8.59 14.902 C-6.726 14.926 -4.863 14.962 -3 15 C-3 13.35 -3 11.7 -3 10 C-1.68 10 -0.36 10 1 10 C0.67 7.69 0.34 5.38 0 3 C-2.64 3.33 -5.28 3.66 -8 4 C-6 2 -6 2 -2.875 1.875 C-1.926 1.916 -0.977 1.958 0 2 C0 1.34 0 0.68 0 0 Z " fill="#000000" transform="translate(176,135)"/>
<path d="M0 0 C3.001 2.251 3.21 4.946 4 8.5 C-2.435 8.995 -2.435 8.995 -9 9.5 C-8.34 7.85 -7.68 6.2 -7 4.5 C-6.34 4.5 -5.68 4.5 -5 4.5 C-4.814 3.541 -4.814 3.541 -4.625 2.562 C-4.419 1.882 -4.213 1.201 -4 0.5 C-2 -0.5 -2 -0.5 0 0 Z " fill="#FFFFFF" transform="translate(118,148.5)"/>
<path d="M0 0 C2.438 0.438 2.438 0.438 4.438 2.438 C4.438 3.428 4.438 4.418 4.438 5.438 C3.778 5.438 3.118 5.438 2.438 5.438 C2.107 4.777 1.778 4.118 1.438 3.438 C-0.587 2.785 -0.587 2.785 -2.562 2.438 C-2.232 3.428 -1.903 4.418 -1.562 5.438 C1.446 6.663 1.446 6.663 4.438 7.438 C4.562 9.812 4.562 9.812 4.438 12.438 C2.438 14.438 2.438 14.438 0 14.688 C-2.562 14.438 -2.562 14.438 -5.562 12.438 C-5.562 11.447 -5.562 10.457 -5.562 9.438 C-4.903 9.438 -4.243 9.438 -3.562 9.438 C-3.232 10.098 -2.903 10.757 -2.562 11.438 C-0.912 11.108 0.738 10.777 2.438 10.438 C-0.202 8.788 -2.843 7.137 -5.562 5.438 C-3.243 0.554 -3.243 0.554 0 0 Z " fill="#000000" transform="translate(241.5625,291.5625)"/>
<path d="M0 0 C2.007 0.287 4.009 0.619 6 1 C6.25 7.625 6.25 7.625 4 11 C2.68 10.67 1.36 10.34 0 10 C-0.701 6.847 -1 4.273 -1 1 C-0.67 0.67 -0.34 0.34 0 0 Z " fill="#373737" transform="translate(303,293)"/>
<path d="M0 0 C2 1.562 2 1.562 3 3 C2.67 3.99 2.34 4.98 2 6 C0.68 4.68 -0.64 3.36 -2 2 C-1.67 2.66 -1.34 3.32 -1 4 C-2.156 3.948 -2.156 3.948 -3.336 3.895 C-4.84 3.854 -4.84 3.854 -6.375 3.812 C-7.373 3.778 -8.37 3.743 -9.398 3.707 C-10.686 3.852 -10.686 3.852 -12 4 C-12.99 5.485 -12.99 5.485 -14 7 C-14.66 7 -15.32 7 -16 7 C-15.073 3.569 -14.307 2.219 -11.375 0.125 C-6.927 -1.358 -4.566 -1.048 0 0 Z " fill="#F6F6F6" transform="translate(157,190)"/>
<path d="M0 0 C1.454 0.031 1.454 0.031 2.938 0.062 C3.267 0.723 3.598 1.382 3.938 2.062 C1.957 2.062 -0.022 2.062 -2.062 2.062 C-2.062 2.723 -2.062 3.382 -2.062 4.062 C-1.258 4.207 -0.454 4.351 0.375 4.5 C2.938 5.062 2.938 5.062 3.938 6.062 C4.125 8.5 4.125 8.5 3.938 11.062 C3.277 11.723 2.618 12.382 1.938 13.062 C-1.188 12.688 -1.188 12.688 -4.062 12.062 C-3.733 11.072 -3.402 10.082 -3.062 9.062 C-1.082 9.558 -1.082 9.558 0.938 10.062 C0.938 9.072 0.938 8.082 0.938 7.062 C-0.712 7.062 -2.363 7.062 -4.062 7.062 C-4.105 5.063 -4.103 3.062 -4.062 1.062 C-3.062 0.062 -3.062 0.062 0 0 Z " fill="#000000" transform="translate(286.0625,292.9375)"/>
<path d="M0 0 C0 2.31 0 4.62 0 7 C-0.33 7 -0.66 7 -1 7 C-1 5.35 -1 3.7 -1 2 C-4.3 2 -7.6 2 -11 2 C-11 6.62 -11 11.24 -11 16 C-11.33 16 -11.66 16 -12 16 C-12.66 11.71 -13.32 7.42 -14 3 C-14.99 3.33 -15.98 3.66 -17 4 C-17.33 6.31 -17.66 8.62 -18 11 C-18.33 11 -18.66 11 -19 11 C-19.33 8.03 -19.66 5.06 -20 2 C-16.306 0.769 -12.73 0.644 -8.875 0.438 C-8.134 0.394 -7.393 0.351 -6.629 0.307 C-1.304 0 -1.304 0 0 0 Z " fill="#FFFFFF" transform="translate(151,157)"/>
<path d="M0 0 C1.98 0.66 3.96 1.32 6 2 C6 2.99 6 3.98 6 5 C6.66 5 7.32 5 8 5 C11.248 7.852 13.191 9.746 14 14 C12.328 13.051 10.663 12.09 9 11.125 C7.608 10.324 7.608 10.324 6.188 9.508 C5.105 8.761 5.105 8.761 4 8 C4 7.34 4 6.68 4 6 C3.34 6 2.68 6 2 6 C1.34 4.02 0.68 2.04 0 0 Z " fill="#6C6C6C" transform="translate(238,8)"/>
<path d="M0 0 C0.702 0.005 1.404 0.009 2.127 0.014 C3.856 0.025 5.584 0.043 7.312 0.062 C7.642 1.053 7.972 2.042 8.312 3.062 C2.042 3.062 -4.227 3.062 -10.688 3.062 C-10.688 2.403 -10.688 1.743 -10.688 1.062 C-7.069 -0.144 -3.762 -0.046 0 0 Z " fill="#FFFFFF" transform="translate(165.6875,150.9375)"/>
<path d="M0 0 C0 5.61 0 11.22 0 17 C-0.66 17 -1.32 17 -2 17 C-2 13.04 -2 9.08 -2 5 C-3.65 5 -5.3 5 -7 5 C-2.25 0 -2.25 0 0 0 Z " fill="#000000" transform="translate(159,90)"/>
<path d="M0 0 C1.32 0 2.64 0 4 0 C5.125 5.625 5.125 5.625 4 9 C2.68 8.67 1.36 8.34 0 8 C0 5.36 0 2.72 0 0 Z " fill="#FFFFFF" transform="translate(264,295)"/>
<path d="M0 0 C1.32 0 2.64 0 4 0 C4 2.64 4 5.28 4 8 C2.68 8.33 1.36 8.66 0 9 C-1.125 2.25 -1.125 2.25 0 0 Z " fill="#FFFFFF" transform="translate(255,295)"/>
<path d="M0 0 C2.97 0 5.94 0 9 0 C8.732 0.66 8.464 1.32 8.188 2 C6.743 5.649 5.371 9.322 4 13 C3.34 12.34 2.68 11.68 2 11 C2.99 8.36 3.98 5.72 5 3 C3.35 2.67 1.7 2.34 0 2 C0 1.34 0 0.68 0 0 Z " fill="#000000" transform="translate(291,293)"/>
<path d="M0 0 C0 0.33 0 0.66 0 1 C-2.31 1 -4.62 1 -7 1 C-7 1.66 -7 2.32 -7 3 C-7.99 3.33 -8.98 3.66 -10 4 C-11.37 5.975 -12.707 7.974 -14 10 C-14.33 10 -14.66 10 -15 10 C-15.354 6.811 -15.32 5.431 -13.375 2.812 C-9.003 -0.524 -5.311 -1.562 0 0 Z " fill="#2D2D2D" transform="translate(155,186)"/>
<path d="M0 0 C1.32 0 2.64 0 4 0 C4.625 2.812 4.625 2.812 5 6 C4.01 7.485 4.01 7.485 3 9 C2.01 8.67 1.02 8.34 0 8 C0 5.36 0 2.72 0 0 Z " fill="#FFFFFF" transform="translate(274,295)"/>
<path d="M0 0 C0 3 0 3 -1 5 C-3.64 5 -6.28 5 -9 5 C-9 4.34 -9 3.68 -9 3 C-9.99 2.67 -10.98 2.34 -12 2 C-8.1 -0.6 -4.526 -0.151 0 0 Z " fill="#F1F1F1" transform="translate(246,274)"/>
<path d="M0 0 C1.338 0.041 1.338 0.041 2.703 0.082 C3.379 0.117 4.054 0.152 4.75 0.188 C5.08 0.848 5.41 1.507 5.75 2.188 C4.19 2.554 2.627 2.905 1.062 3.25 C0.192 3.447 -0.678 3.644 -1.574 3.848 C-4.41 4.208 -6.498 3.897 -9.25 3.188 C-6.104 0.387 -4.183 -0.165 0 0 Z " fill="#BBBBBB" transform="translate(242.25,266.8125)"/>
<path d="M0 0 C0 1.667 0 3.333 0 5 C0.66 4.34 1.32 3.68 2 3 C2 6.63 2 10.26 2 14 C1.01 14.33 0.02 14.66 -1 15 C-1.836 12.072 -2.162 9.418 -2.188 6.375 C-2.202 5.599 -2.216 4.823 -2.23 4.023 C-2 2 -2 2 0 0 Z " fill="#1B1B1B" transform="translate(277,110)"/>
<path d="M0 0 C0.66 0.33 1.32 0.66 2 1 C1.67 1.99 1.34 2.98 1 4 C-0.109 4.061 -1.217 4.121 -2.359 4.184 C-3.823 4.268 -5.286 4.353 -6.75 4.438 C-7.844 4.496 -7.844 4.496 -8.961 4.557 C-12.427 4.761 -15.653 5.085 -19 6 C-19 5.34 -19 4.68 -19 4 C-12.622 2.827 -6.497 1.705 0 2 C0 1.34 0 0.68 0 0 Z " fill="#FFFFFF" transform="translate(122,157)"/>
<path d="M0 0 C1.595 -0.039 1.595 -0.039 3.223 -0.078 C4.119 0.03 5.014 0.138 5.938 0.25 C7.938 3.25 7.938 3.25 7.938 7.25 C7.278 7.25 6.618 7.25 5.938 7.25 C5.607 5.93 5.278 4.61 4.938 3.25 C-2.603 2.171 -2.603 2.171 -10.062 3.25 C-8.112 -0.651 -3.886 0.057 0 0 Z " fill="#070707" transform="translate(154.0625,187.75)"/>
<path d="M0 0 C0.99 0.33 1.98 0.66 3 1 C5.573 1.07 8.116 1.094 10.688 1.062 C11.389 1.058 12.091 1.053 12.814 1.049 C14.543 1.037 16.272 1.019 18 1 C18 1.66 18 2.32 18 3 C13.05 3 8.1 3 3 3 C2.67 3.99 2.34 4.98 2 6 C1.34 5.67 0.68 5.34 0 5 C0 3.35 0 1.7 0 0 Z " fill="#4B4B4B" transform="translate(231,115)"/>
<path d="M0 0 C0 0.66 0 1.32 0 2 C-3.477 4.143 -6.212 4.213 -10.25 4.125 C-11.328 4.107 -12.405 4.089 -13.516 4.07 C-14.335 4.047 -15.155 4.024 -16 4 C-13.365 2.6 -10.896 1.588 -8 0.875 C-7.34 0.707 -6.68 0.54 -6 0.367 C-4 0 -4 0 0 0 Z " fill="#FFFFFF" transform="translate(86,88)"/>
<path d="M0 0 C0.99 0 1.98 0 3 0 C3.33 3.3 3.66 6.6 4 10 C2.68 10 1.36 10 0 10 C0 6.7 0 3.4 0 0 Z " fill="#575757" transform="translate(161,164)"/>
<path d="M0 0 C0.33 0 0.66 0 1 0 C1 3.96 1 7.92 1 12 C1.66 12 2.32 12 3 12 C3.25 18.625 3.25 18.625 1 22 C-0.174 14.662 -0.094 7.418 0 0 Z " fill="#B4B4B4" transform="translate(130,222)"/>
<path d="M0 0 C0.33 3.63 0.66 7.26 1 11 C0.34 10.67 -0.32 10.34 -1 10 C-1 8.68 -1 7.36 -1 6 C-1.66 6 -2.32 6 -3 6 C-3 5.01 -3 4.02 -3 3 C-5.97 3 -8.94 3 -12 3 C-12 2.67 -12 2.34 -12 2 C-11.06 1.909 -11.06 1.909 -10.102 1.816 C-8.876 1.691 -8.876 1.691 -7.625 1.562 C-6.813 1.481 -6.001 1.4 -5.164 1.316 C-3.309 1.045 -1.788 0 0 0 Z " fill="#5A5A5A" transform="translate(255,63)"/>
<path d="M0 0 C0.66 0.66 1.32 1.32 2 2 C4.571 2.648 4.571 2.648 7 3 C6.67 4.32 6.34 5.64 6 7 C3.831 6.494 2 6 0 5 C0 3.35 0 1.7 0 0 Z " fill="#FFFFFF" transform="translate(281,297)"/>
<path d="M0 0 C5.28 0 10.56 0 16 0 C13.576 2.424 12.471 2.44 9.125 2.812 C8.261 2.922 7.398 3.032 6.508 3.145 C4 3 4 3 0 0 Z " fill="#FFFFFF" transform="translate(177,195)"/>
<path d="M0 0 C0.33 1.32 0.66 2.64 1 4 C1.99 4 2.98 4 4 4 C4.33 3.34 4.66 2.68 5 2 C5.66 2 6.32 2 7 2 C6.67 3.32 6.34 4.64 6 6 C3.125 6.625 3.125 6.625 0 7 C-0.66 6.34 -1.32 5.68 -2 5 C-1.464 1.464 -1.464 1.464 0 0 Z " fill="#000000" transform="translate(303,299)"/>
<path d="M0 0 C1.675 0.286 3.344 0.618 5 1 C5.33 1.99 5.66 2.98 6 4 C4.02 4.33 2.04 4.66 0 5 C-0.562 3.062 -0.562 3.062 -1 1 C-0.67 0.67 -0.34 0.34 0 0 Z " fill="#717171" transform="translate(313,293)"/>
<path d="M0 0 C0 0.99 0 1.98 0 3 C-3.506 5.681 -6.658 6.495 -11 7 C-11 6.01 -11 5.02 -11 4 C-10.29 3.795 -9.579 3.59 -8.848 3.379 C-7.929 3.109 -7.009 2.84 -6.062 2.562 C-4.688 2.162 -4.688 2.162 -3.285 1.754 C-1.06 1.21 -1.06 1.21 0 0 Z " fill="#FFFFFF" transform="translate(252,281)"/>
<path d="M0 0 C0 0.33 0 0.66 0 1 C-0.784 1.124 -1.567 1.248 -2.375 1.375 C-5.141 1.791 -5.141 1.791 -7 4 C-10.625 3.625 -10.625 3.625 -14 3 C-8.753 0.376 -5.912 -0.095 0 0 Z " fill="#353535" transform="translate(223,259)"/>
<path d="M0 0 C1.98 0.495 1.98 0.495 4 1 C3.67 2.32 3.34 3.64 3 5 C1.68 4.67 0.36 4.34 -1 4 C-0.67 2.68 -0.34 1.36 0 0 Z " fill="#FFFFFF" transform="translate(304,299)"/>
<path d="M0 0 C0.99 0.33 1.98 0.66 3 1 C3 2.32 3 3.64 3 5 C1.68 5 0.36 5 -1 5 C-0.67 3.35 -0.34 1.7 0 0 Z " fill="#FFFFFF" transform="translate(314,299)"/>
</svg>
