<?xml version="1.0" encoding="UTF-8"?>
<!-- Generator: visioncortex VTracer 0.6.4 -->
<svg version="1.1" xmlns="http://www.w3.org/2000/svg" width="338" height="287">
<path d="M0 0 C111.54 0 223.08 0 338 0 C338 94.71 338 189.42 338 287 C226.46 287 114.92 287 0 287 C0 192.29 0 97.58 0 0 Z " fill="#FAFAFA" transform="translate(0,0)"/>
<path d="M0 0 C0.959 -0.002 1.918 -0.003 2.907 -0.005 C6.141 -0.009 9.375 -0.006 12.61 -0.002 C14.921 -0.004 17.231 -0.006 19.542 -0.008 C25.833 -0.012 32.124 -0.011 38.415 -0.007 C44.987 -0.005 51.559 -0.007 58.13 -0.009 C69.877 -0.011 81.624 -0.008 93.371 -0.002 C104.027 0.002 114.683 0.001 125.339 -0.003 C137.704 -0.009 150.069 -0.011 162.435 -0.008 C168.983 -0.006 175.532 -0.006 182.081 -0.009 C188.238 -0.012 194.394 -0.01 200.551 -0.004 C202.815 -0.003 205.08 -0.003 207.344 -0.006 C210.426 -0.008 213.508 -0.005 216.589 0 C217.494 -0.002 218.398 -0.004 219.33 -0.007 C220.153 -0.004 220.976 -0.002 221.825 0.001 C222.536 0.001 223.248 0.001 223.981 0.002 C225.858 0.127 225.858 0.127 228.858 1.127 C230.271 6.117 229.708 10.918 229.335 16.018 C229.269 16.986 229.204 17.955 229.137 18.954 C228.996 21.024 228.854 23.093 228.708 25.163 C228.332 30.53 227.981 35.899 227.628 41.268 C227.524 42.838 227.524 42.838 227.418 44.44 C226.337 60.889 225.632 77.298 225.982 93.787 C226.101 102.669 226.101 102.669 223.858 106.127 C221.15 107.035 218.656 107.253 215.814 107.258 C214.613 107.264 214.613 107.264 213.388 107.27 C212.515 107.269 211.641 107.268 210.742 107.267 C209.343 107.272 209.343 107.272 207.916 107.276 C204.785 107.285 201.653 107.287 198.522 107.288 C196.28 107.293 194.038 107.298 191.796 107.303 C185.701 107.316 179.606 107.323 173.512 107.327 C169.707 107.33 165.903 107.334 162.098 107.339 C151.566 107.351 141.034 107.361 130.503 107.365 C129.829 107.365 129.155 107.365 128.461 107.365 C127.786 107.365 127.11 107.366 126.415 107.366 C125.046 107.366 123.678 107.367 122.309 107.367 C121.291 107.368 121.291 107.368 120.252 107.368 C109.242 107.372 98.232 107.389 87.221 107.413 C75.92 107.436 64.619 107.448 53.317 107.45 C46.971 107.451 40.624 107.457 34.278 107.475 C28.313 107.491 22.349 107.493 16.384 107.485 C14.19 107.484 11.997 107.488 9.804 107.498 C6.818 107.511 3.833 107.505 0.848 107.494 C-0.466 107.507 -0.466 107.507 -1.806 107.519 C-7.711 107.47 -7.711 107.47 -9.858 105.761 C-11.711 103.403 -11.613 101.543 -11.742 98.568 C-11.799 97.424 -11.855 96.281 -11.913 95.102 C-11.96 93.859 -12.007 92.615 -12.056 91.334 C-12.116 90.041 -12.176 88.748 -12.238 87.416 C-12.398 83.959 -12.541 80.501 -12.68 77.043 C-12.821 73.619 -12.978 70.196 -13.134 66.773 C-13.489 58.892 -13.817 51.01 -14.142 43.127 C-14.24 40.776 -14.339 38.425 -14.438 36.075 C-15.711 5.817 -15.711 5.817 -13.247 2.83 C-9.07 -0.549 -5.162 -0.013 0 0 Z " fill="#FFFFFF" transform="translate(62.14183044433594,65.87301635742188)"/>
<path d="M0 0 C79.53 0 159.06 0 241 0 C241 37 241 37 240 42 C211.011 42.163 182.022 42.287 153.032 42.363 C150.354 42.37 147.677 42.377 144.999 42.385 C144 42.387 144 42.387 142.982 42.39 C132.202 42.421 121.423 42.476 110.643 42.54 C99.584 42.606 88.524 42.644 77.465 42.659 C71.252 42.668 65.04 42.689 58.827 42.74 C52.982 42.788 47.138 42.802 41.293 42.792 C39.146 42.794 36.998 42.808 34.851 42.834 C31.922 42.869 28.996 42.861 26.067 42.842 C25.214 42.862 24.361 42.883 23.482 42.904 C17.866 42.804 17.866 42.804 15.387 40.502 C12.603 36.707 10.76 32.572 9.062 28.188 C8.819 27.559 8.575 26.931 8.324 26.284 C0 4.492 0 4.492 0 0 Z " fill="#FFFFFF" transform="translate(57,178)"/>
<path d="M0 0 C0.809 -0.006 1.619 -0.012 2.452 -0.019 C5.162 -0.035 7.87 -0.022 10.58 -0.01 C12.523 -0.015 14.466 -0.022 16.41 -0.031 C21.686 -0.049 26.963 -0.042 32.24 -0.029 C37.76 -0.019 43.28 -0.029 48.801 -0.035 C58.072 -0.042 67.342 -0.033 76.613 -0.014 C87.333 0.008 98.054 0.001 108.775 -0.021 C117.976 -0.039 127.178 -0.042 136.38 -0.031 C141.877 -0.025 147.374 -0.024 152.871 -0.037 C158.039 -0.049 163.206 -0.041 168.374 -0.018 C170.271 -0.012 172.169 -0.014 174.066 -0.023 C176.655 -0.034 179.242 -0.02 181.831 0 C182.583 -0.009 183.336 -0.018 184.111 -0.027 C187.706 0.027 189.791 0.432 192.882 2.326 C195.702 5.352 195.603 8.043 195.509 11.977 C195.509 12.694 195.509 13.411 195.509 14.15 C195.504 15.663 195.486 17.176 195.458 18.689 C195.416 21.001 195.416 23.309 195.423 25.621 C195.413 27.094 195.4 28.567 195.384 30.039 C195.384 30.728 195.384 31.416 195.384 32.126 C195.284 36.167 194.876 38.659 191.916 41.508 C188.275 42.721 184.938 42.653 181.147 42.648 C180.348 42.651 179.549 42.654 178.725 42.657 C176.037 42.666 173.35 42.668 170.662 42.669 C168.739 42.674 166.815 42.679 164.892 42.684 C159.661 42.697 154.429 42.704 149.198 42.708 C145.931 42.711 142.665 42.715 139.398 42.72 C129.182 42.733 118.966 42.743 108.751 42.747 C96.949 42.751 85.147 42.769 73.345 42.798 C64.228 42.819 55.111 42.83 45.994 42.831 C40.547 42.832 35.099 42.838 29.651 42.856 C24.527 42.872 19.404 42.874 14.281 42.866 C12.399 42.865 10.518 42.869 8.637 42.879 C6.07 42.892 3.504 42.886 0.938 42.875 C-0.181 42.888 -0.181 42.888 -1.323 42.9 C-6.167 42.854 -9.598 41.994 -13.084 38.508 C-13.376 33.717 -13.399 28.924 -13.435 24.126 C-13.451 22.511 -13.478 20.896 -13.517 19.281 C-13.571 16.954 -13.593 14.629 -13.608 12.301 C-13.631 11.581 -13.653 10.861 -13.677 10.119 C-13.662 6.641 -13.452 4.904 -11.053 2.317 C-7.316 0.04 -4.246 -0.05 0 0 Z " fill="#0D0D0D" transform="translate(75.08447265625,96.4920654296875)"/>
<path d="M0 0 C0.66 0 1.32 0 2 0 C0.987 3.087 -0.056 6.152 -1.184 9.199 C-8.36 29.163 -8.463 49.148 -8.562 70.188 C-8.585 74.186 -8.615 78.184 -8.654 82.183 C-8.678 84.65 -8.693 87.118 -8.698 89.585 C-8.774 97.966 -10.07 104.699 -13 112.562 C-17.504 125.958 -18.677 141.485 -15.987 155.401 C-14.83 162.223 -14.813 168.825 -14.945 175.727 C-14.971 178.331 -14.995 180.935 -15.02 183.539 C-15.067 187.592 -15.125 191.645 -15.192 195.697 C-15.256 199.644 -15.288 203.592 -15.32 207.539 C-15.347 208.74 -15.374 209.942 -15.402 211.179 C-15.446 218.571 -14.49 224.422 -11 231 C-9.337 232.663 -7.217 232.36 -4.938 232.562 C-4.018 232.646 -3.099 232.73 -2.152 232.816 C-1.442 232.877 -0.732 232.938 0 233 C0 233.66 0 234.32 0 235 C-26.07 235 -52.14 235 -79 235 C-79 239.95 -79 244.9 -79 250 C-79.66 250 -80.32 250 -81 250 C-81.014 248.993 -81.028 247.986 -81.043 246.949 C-81.283 238.559 -82.256 230.697 -84.375 222.562 C-84.689 221.329 -84.689 221.329 -85.009 220.071 C-86.285 215.224 -86.285 215.224 -90 212 C-94.132 211.559 -98.285 211.676 -102.438 211.688 C-103.583 211.671 -104.728 211.655 -105.908 211.639 C-107.01 211.638 -108.111 211.637 -109.246 211.637 C-110.253 211.634 -111.261 211.631 -112.299 211.628 C-115.43 212.059 -116.752 212.807 -119 215 C-120.1 217.565 -120.939 219.897 -121.688 222.562 C-121.902 223.301 -122.116 224.04 -122.337 224.801 C-124.568 233.108 -124.89 241.439 -125 250 C-125.33 250 -125.66 250 -126 250 C-126 244.72 -126 239.44 -126 234 C-126.66 234.33 -127.32 234.66 -128 235 C-131.091 235.115 -134.16 235.168 -137.251 235.177 C-138.211 235.184 -139.17 235.19 -140.159 235.197 C-143.343 235.217 -146.527 235.228 -149.711 235.238 C-150.796 235.242 -151.882 235.246 -153 235.251 C-158.743 235.272 -164.486 235.286 -170.229 235.295 C-176.17 235.306 -182.11 235.341 -188.051 235.38 C-192.612 235.406 -197.172 235.415 -201.732 235.418 C-203.923 235.423 -206.113 235.435 -208.304 235.453 C-211.366 235.478 -214.427 235.477 -217.49 235.47 C-218.398 235.483 -219.306 235.496 -220.242 235.509 C-226.378 235.458 -226.378 235.458 -229.524 233.143 C-231 231 -231 231 -232.125 228.25 C-235.506 222.39 -241.44 218.707 -247 215 C-246.605 223.842 -245.543 232.104 -243.621 240.723 C-243.077 243.592 -242.874 246.094 -243 249 C-243.66 249 -244.32 249 -245 249 C-250.483 224.488 -250.483 224.488 -250.859 213.316 C-250.741 211.038 -250.741 211.038 -252 210 C-254.883 209.84 -257.744 209.74 -260.629 209.684 C-261.925 209.652 -261.925 209.652 -263.248 209.621 C-266.019 209.555 -268.791 209.496 -271.562 209.438 C-273.437 209.394 -275.311 209.351 -277.186 209.307 C-281.79 209.199 -286.395 209.098 -291 209 C-291 208.34 -291 207.68 -291 207 C-285.377 206.975 -279.753 206.957 -274.13 206.945 C-272.217 206.94 -270.304 206.933 -268.392 206.925 C-265.641 206.912 -262.891 206.907 -260.141 206.902 C-259.286 206.897 -258.432 206.892 -257.552 206.887 C-256.351 206.887 -256.351 206.887 -255.126 206.886 C-254.424 206.884 -253.723 206.882 -253 206.88 C-250.852 207.009 -249.031 207.28 -247 208 C-246.697 208.764 -246.394 209.529 -246.082 210.316 C-244.663 213.835 -242.824 214.862 -239.688 216.938 C-234.542 220.516 -230.331 223.656 -227.95 229.637 C-226.297 232.115 -226.297 232.115 -224.19 232.459 C-221.715 232.641 -219.284 232.652 -216.803 232.615 C-215.39 232.624 -215.39 232.624 -213.949 232.632 C-210.83 232.644 -207.713 232.62 -204.594 232.594 C-202.43 232.592 -200.267 232.592 -198.104 232.594 C-193.568 232.592 -189.032 232.573 -184.496 232.542 C-178.674 232.502 -172.854 232.498 -167.033 232.505 C-162.565 232.509 -158.097 232.496 -153.629 232.479 C-151.483 232.472 -149.336 232.469 -147.189 232.47 C-144.192 232.468 -141.195 232.447 -138.197 232.42 C-137.306 232.423 -136.414 232.426 -135.496 232.429 C-134.68 232.417 -133.864 232.406 -133.023 232.394 C-132.314 232.391 -131.606 232.387 -130.876 232.383 C-128.437 231.885 -127.551 230.905 -126 229 C-125.167 227.11 -125.167 227.11 -124.648 225.023 C-124.437 224.271 -124.226 223.518 -124.008 222.742 C-123.799 221.961 -123.59 221.18 -123.375 220.375 C-121.105 212.105 -121.105 212.105 -120 211 C-120.619 210.998 -121.238 210.995 -121.876 210.993 C-136.941 210.934 -152.005 210.858 -167.07 210.764 C-174.356 210.719 -181.641 210.68 -188.926 210.654 C-195.276 210.631 -201.626 210.597 -207.977 210.551 C-211.339 210.527 -214.701 210.509 -218.063 210.502 C-221.817 210.493 -225.571 210.465 -229.325 210.432 C-230.438 210.434 -231.552 210.435 -232.699 210.437 C-233.724 210.424 -234.749 210.412 -235.805 210.399 C-236.693 210.394 -237.58 210.39 -238.495 210.385 C-242.807 209.723 -246.226 207.313 -249 204 C-249.996 202.153 -249.996 202.153 -250.867 200.078 C-251.193 199.307 -251.519 198.536 -251.855 197.742 C-252.191 196.92 -252.528 196.097 -252.875 195.25 C-253.227 194.403 -253.578 193.555 -253.94 192.682 C-258.064 182.603 -261.407 172.318 -264.422 161.855 C-264.966 159.934 -264.966 159.934 -266 158 C-267.244 148.445 -267.371 138.72 -267.754 129.098 C-267.82 127.487 -267.885 125.876 -267.951 124.265 C-268.088 120.908 -268.223 117.55 -268.357 114.193 C-268.527 109.925 -268.702 105.658 -268.878 101.391 C-269.015 98.07 -269.149 94.749 -269.282 91.428 C-269.346 89.856 -269.41 88.284 -269.475 86.712 C-270.549 60.646 -270.549 60.646 -269 56 C-277.25 55.67 -285.5 55.34 -294 55 C-294 54.67 -294 54.34 -294 54 C-293.137 53.975 -292.274 53.95 -291.385 53.924 C-288.182 53.829 -284.978 53.73 -281.775 53.628 C-280.389 53.584 -279.003 53.543 -277.616 53.503 C-275.623 53.445 -273.63 53.381 -271.637 53.316 C-269.838 53.261 -269.838 53.261 -268.003 53.205 C-264.95 53.123 -264.95 53.123 -262 52 C-260.661 51.91 -259.317 51.873 -257.975 51.871 C-257.153 51.868 -256.332 51.865 -255.485 51.862 C-254.132 51.864 -254.132 51.864 -252.751 51.866 C-251.313 51.863 -251.313 51.863 -249.846 51.859 C-246.62 51.853 -243.393 51.854 -240.167 51.855 C-237.859 51.852 -235.551 51.848 -233.244 51.845 C-226.965 51.836 -220.686 51.833 -214.407 51.833 C-209.171 51.832 -203.935 51.828 -198.698 51.825 C-187.053 51.817 -175.408 51.814 -163.763 51.815 C-163.065 51.815 -162.366 51.815 -161.646 51.815 C-160.596 51.815 -160.596 51.815 -159.525 51.815 C-148.183 51.815 -136.841 51.806 -125.499 51.792 C-113.856 51.777 -102.214 51.77 -90.571 51.771 C-84.033 51.771 -77.496 51.769 -70.958 51.758 C-64.81 51.748 -58.663 51.748 -52.515 51.755 C-50.256 51.757 -47.998 51.754 -45.739 51.748 C-42.66 51.74 -39.581 51.745 -36.503 51.753 C-35.605 51.748 -34.707 51.742 -33.782 51.737 C-24.21 51.79 -24.21 51.79 -21 55 C-21.053 57.906 -21.174 60.783 -21.34 63.684 C-21.413 65.073 -21.413 65.073 -21.487 66.49 C-21.595 68.548 -21.706 70.605 -21.818 72.663 C-22.353 82.481 -22.849 92.301 -23.357 102.12 C-23.494 104.75 -23.633 107.38 -23.773 110.01 C-24.85 130.024 -24.85 130.024 -24.985 150.062 C-24.934 153.569 -25.052 156.626 -26 160 C-23.36 160.33 -20.72 160.66 -18 161 C-18.322 159.717 -18.645 158.435 -18.977 157.113 C-20.082 152.102 -20.384 147.309 -20.375 142.188 C-20.374 141.287 -20.373 140.387 -20.372 139.46 C-20.171 127.714 -18.153 115.813 -13.677 104.915 C-12.188 100.702 -11.871 96.638 -11.842 92.194 C-11.832 91.048 -11.822 89.902 -11.811 88.722 C-11.804 87.488 -11.797 86.255 -11.789 84.984 C-11.768 83.021 -11.747 81.057 -11.725 79.093 C-11.673 74.276 -11.628 69.46 -11.599 64.643 C-11.404 34.819 -11.404 34.819 -8 21 C-7.78 20.108 -7.561 19.217 -7.334 18.298 C-6.786 16.264 -6.149 14.254 -5.5 12.25 C-5.3 11.605 -5.1 10.961 -4.895 10.297 C-3.689 6.548 -2.302 3.208 0 0 Z M-267 57 C-271.706 66.413 -267.567 85.723 -267.125 96.125 C-267.08 97.193 -267.035 98.261 -266.988 99.362 C-266.712 105.879 -266.426 112.395 -266.136 118.911 C-266.006 121.855 -265.881 124.8 -265.757 127.744 C-265.577 132.01 -265.382 136.275 -265.174 140.54 C-265.1 142.088 -265.031 143.637 -264.967 145.186 C-264.878 147.31 -264.772 149.432 -264.66 151.555 C-264.605 152.735 -264.549 153.916 -264.492 155.132 C-263.943 158.332 -263.491 159.047 -261 161 C-257.938 161.293 -255.08 161.4 -252.017 161.374 C-250.622 161.38 -250.622 161.38 -249.199 161.386 C-246.069 161.396 -242.939 161.384 -239.809 161.372 C-237.57 161.375 -235.332 161.378 -233.093 161.383 C-227.002 161.393 -220.912 161.383 -214.821 161.37 C-208.454 161.359 -202.088 161.363 -195.721 161.365 C-185.026 161.366 -174.331 161.355 -163.636 161.336 C-152.632 161.317 -141.628 161.31 -130.625 161.316 C-117.368 161.322 -104.112 161.319 -90.855 161.307 C-85.791 161.302 -80.726 161.301 -75.662 161.303 C-69.698 161.305 -63.734 161.297 -57.77 161.281 C-55.579 161.277 -53.388 161.276 -51.197 161.279 C-48.21 161.282 -45.224 161.273 -42.237 161.261 C-40.931 161.266 -40.931 161.266 -39.599 161.272 C-35.281 161.241 -31.934 161.013 -28 159 C-27.181 153.342 -26.905 147.932 -26.992 142.223 C-27.064 132.269 -26.648 122.375 -26.125 112.438 C-26.036 110.666 -25.947 108.894 -25.858 107.123 C-25.414 98.363 -24.926 89.606 -24.387 80.852 C-24.338 80.058 -24.29 79.264 -24.24 78.446 C-24.009 74.691 -23.772 70.937 -23.522 67.183 C-23.439 65.866 -23.355 64.549 -23.27 63.191 C-23.155 61.462 -23.155 61.462 -23.038 59.698 C-22.794 57.03 -22.794 57.03 -24 55 C-26.704 54.099 -28.252 53.873 -31.025 53.869 C-32.257 53.863 -32.257 53.863 -33.515 53.857 C-34.417 53.858 -35.319 53.859 -36.249 53.86 C-37.207 53.857 -38.166 53.854 -39.154 53.851 C-42.38 53.842 -45.607 53.84 -48.833 53.839 C-51.141 53.834 -53.449 53.829 -55.756 53.824 C-62.035 53.811 -68.314 53.804 -74.593 53.8 C-78.513 53.797 -82.433 53.793 -86.353 53.788 C-97.204 53.776 -108.056 53.766 -118.908 53.762 C-119.602 53.762 -120.297 53.762 -121.013 53.762 C-121.709 53.762 -122.405 53.761 -123.122 53.761 C-124.533 53.761 -125.944 53.76 -127.354 53.76 C-128.054 53.76 -128.754 53.759 -129.475 53.759 C-140.817 53.755 -152.159 53.738 -163.501 53.714 C-175.144 53.691 -186.786 53.678 -198.429 53.677 C-204.967 53.676 -211.504 53.67 -218.042 53.652 C-224.19 53.636 -230.337 53.634 -236.485 53.642 C-238.744 53.643 -241.002 53.639 -243.261 53.629 C-246.34 53.616 -249.418 53.622 -252.497 53.633 C-253.395 53.624 -254.293 53.616 -255.218 53.608 C-259.956 53.646 -263.169 53.882 -267 57 Z M-258 166 C-256.151 173.398 -254.432 180.15 -251.625 187.125 C-251.321 187.892 -251.017 188.659 -250.704 189.449 C-247.025 199.446 -247.025 199.446 -241 208 C-238.067 208.194 -235.228 208.26 -232.294 208.241 C-231.381 208.242 -230.469 208.244 -229.529 208.246 C-226.453 208.249 -223.378 208.238 -220.302 208.227 C-218.105 208.226 -215.908 208.227 -213.71 208.228 C-207.729 208.229 -201.748 208.217 -195.767 208.203 C-189.522 208.19 -183.278 208.189 -177.033 208.187 C-166.546 208.181 -156.06 208.169 -145.573 208.151 C-134.771 208.133 -123.968 208.118 -113.166 208.11 C-112.5 208.109 -111.835 208.109 -111.149 208.108 C-107.81 208.106 -104.471 208.103 -101.132 208.101 C-73.422 208.08 -45.711 208.045 -18 208 C-15.254 194.268 -17 180.004 -17 166 C-96.53 166 -176.06 166 -258 166 Z " fill="#1A1A1A" transform="translate(315,12)"/>
<path d="M0 0 C82.5 0 165 0 250 0 C247.447 6.382 247.447 6.382 243 9 C239.968 9.386 237.303 9.541 234.275 9.508 C232.957 9.517 232.957 9.517 231.613 9.527 C228.669 9.543 225.726 9.53 222.782 9.518 C220.671 9.523 218.56 9.53 216.449 9.539 C210.711 9.557 204.973 9.55 199.234 9.537 C193.219 9.527 187.204 9.537 181.189 9.543 C171.074 9.55 160.959 9.541 150.844 9.521 C139.183 9.5 127.522 9.507 115.861 9.529 C105.833 9.547 95.805 9.549 85.776 9.539 C79.795 9.533 73.814 9.532 67.832 9.545 C62.195 9.557 56.558 9.549 50.92 9.526 C48.864 9.52 46.807 9.522 44.75 9.531 C28.971 9.593 14.292 8.276 0 1 C0 0.67 0 0.34 0 0 Z " fill="#FFFFFF" transform="translate(47,52)"/>
<path d="M0 0 C0.99 0.33 1.98 0.66 3 1 C3.327 38.969 3.327 38.969 -3.361 46.541 C-8.147 51.065 -11.614 51.864 -18.086 51.748 C-18.979 51.756 -19.872 51.764 -20.792 51.773 C-23.774 51.792 -26.754 51.768 -29.736 51.745 C-31.879 51.749 -34.021 51.757 -36.164 51.767 C-41.978 51.786 -47.793 51.767 -53.607 51.74 C-59.704 51.717 -65.801 51.726 -71.898 51.73 C-82.147 51.731 -92.395 51.709 -102.643 51.672 C-114.461 51.63 -126.279 51.623 -138.097 51.635 C-149.489 51.647 -160.882 51.636 -172.274 51.613 C-177.109 51.604 -181.944 51.602 -186.779 51.606 C-192.49 51.61 -198.2 51.594 -203.91 51.562 C-205.995 51.554 -208.08 51.552 -210.164 51.558 C-226.532 51.595 -242.95 50.508 -257 41 C-261.974 35.629 -263.257 31.202 -263.195 23.949 C-263.192 23.29 -263.19 22.632 -263.187 21.953 C-263.176 19.864 -263.151 17.776 -263.125 15.688 C-263.115 14.265 -263.106 12.842 -263.098 11.42 C-263.076 7.946 -263.041 4.473 -263 1 C-262.34 1 -261.68 1 -261 1 C-260.975 1.817 -260.95 2.634 -260.924 3.475 C-260.808 7.192 -260.685 10.908 -260.562 14.625 C-260.523 15.91 -260.484 17.195 -260.443 18.52 C-260.401 19.763 -260.36 21.007 -260.316 22.289 C-260.261 24.002 -260.261 24.002 -260.205 25.749 C-260.025 29.476 -260.025 29.476 -259 35 C-173.86 35 -88.72 35 -1 35 C-0.67 23.45 -0.34 11.9 0 0 Z M-253 40 C-249.487 42.634 -247.415 43.746 -243.375 45.062 C-242.413 45.383 -241.452 45.704 -240.461 46.035 C-232.815 48.167 -225.534 49.298 -217.6 49.274 C-216.264 49.282 -216.264 49.282 -214.901 49.29 C-211.948 49.305 -208.994 49.306 -206.04 49.306 C-203.91 49.314 -201.781 49.322 -199.651 49.332 C-193.889 49.353 -188.127 49.362 -182.365 49.367 C-178.764 49.371 -175.163 49.377 -171.561 49.384 C-158.995 49.409 -146.429 49.422 -133.863 49.426 C-122.151 49.429 -110.439 49.459 -98.727 49.501 C-88.664 49.536 -78.601 49.551 -68.538 49.552 C-62.531 49.553 -56.524 49.561 -50.516 49.59 C-44.872 49.616 -39.229 49.618 -33.585 49.602 C-31.514 49.6 -29.442 49.607 -27.371 49.623 C-24.544 49.643 -21.719 49.633 -18.892 49.615 C-18.072 49.628 -17.252 49.641 -16.407 49.655 C-12.376 49.596 -9.747 49.219 -6.507 46.712 C-3.683 44.092 -3.683 44.092 -3 40 C-85.5 40 -168 40 -253 40 Z " fill="#414141" transform="translate(300,12)"/>
<path d="M0 0 C84.15 0 168.3 0 255 0 C255 2.31 255 4.62 255 7 C170.85 7 86.7 7 0 7 C0 4.69 0 2.38 0 0 Z " fill="#FFFFFF" transform="translate(42,30)"/>
<path d="M0 0 C1.074 -0.003 2.149 -0.006 3.256 -0.009 C4.41 0.003 5.564 0.016 6.753 0.028 C8.536 0.031 8.536 0.031 10.354 0.034 C12.864 0.041 15.374 0.055 17.884 0.075 C21.738 0.106 25.591 0.116 29.445 0.122 C31.881 0.131 34.317 0.142 36.753 0.153 C37.912 0.158 39.07 0.162 40.263 0.166 C41.332 0.176 42.4 0.185 43.5 0.195 C44.443 0.202 45.386 0.209 46.357 0.216 C48.621 0.356 48.621 0.356 50.621 1.356 C50.621 3.336 50.621 5.316 50.621 7.356 C31.151 7.356 11.681 7.356 -8.379 7.356 C-8.379 8.016 -8.379 8.676 -8.379 9.356 C-3.099 9.356 2.181 9.356 7.621 9.356 C7.291 10.016 6.961 10.676 6.621 11.356 C6.424 13.27 6.424 13.27 6.433 15.356 C6.412 16.408 6.412 16.408 6.39 17.481 C6.455 19.602 6.455 19.602 8.621 21.356 C12.246 21.835 15.905 21.727 19.558 21.731 C21.081 21.768 21.081 21.768 22.634 21.806 C23.608 21.81 24.582 21.813 25.585 21.817 C26.479 21.826 27.372 21.834 28.292 21.842 C30.763 21.549 30.763 21.549 32.451 19.523 C34.089 16.488 33.472 14.622 32.621 11.356 C32.126 10.366 32.126 10.366 31.621 9.356 C37.891 9.356 44.161 9.356 50.621 9.356 C50.621 18.596 50.621 27.836 50.621 37.356 C43.1 37.398 35.579 37.438 28.058 37.46 C24.556 37.471 21.054 37.485 17.552 37.507 C13.536 37.533 9.52 37.543 5.503 37.552 C3.616 37.567 3.616 37.567 1.69 37.583 C0.529 37.583 -0.632 37.583 -1.828 37.583 C-2.854 37.588 -3.88 37.592 -4.937 37.597 C-7.379 37.356 -7.379 37.356 -9.379 35.356 C-9.803 30.814 -9.751 26.258 -9.75 21.698 C-9.754 19.431 -9.791 17.165 -9.829 14.897 C-9.834 13.458 -9.838 12.019 -9.84 10.579 C-9.849 9.267 -9.857 7.955 -9.865 6.603 C-9.379 3.356 -9.379 3.356 -7.685 1.676 C-4.9 0.082 -3.197 -0.012 0 0 Z " fill="#FFFFFF" transform="translate(73.37939453125,98.6435546875)"/>
<path d="M0 0 C22.77 0 45.54 0 69 0 C69.99 7.92 69.99 7.92 71 16 C71.99 18.31 72.98 20.62 74 23 C65.56 23.023 57.119 23.041 48.679 23.052 C44.76 23.057 40.841 23.064 36.922 23.075 C33.142 23.086 29.362 23.092 25.582 23.095 C24.137 23.097 22.693 23.1 21.249 23.106 C19.231 23.113 17.212 23.113 15.194 23.114 C13.468 23.117 13.468 23.117 11.708 23.12 C9 23 9 23 7 22 C6.346 20.19 6.346 20.19 5.781 17.852 C5.571 17.011 5.361 16.171 5.145 15.305 C4.932 14.42 4.719 13.536 4.5 12.625 C4.078 10.887 3.651 9.15 3.219 7.414 C3.032 6.64 2.846 5.866 2.654 5.069 C2.019 2.728 2.019 2.728 0 0 Z " fill="#FFFFFF" transform="translate(228,222)"/>
<path d="M0 0 C1.725 0.006 1.725 0.006 3.484 0.012 C4.732 0.014 5.98 0.016 7.266 0.018 C9.23 0.037 9.23 0.037 11.234 0.055 C12.544 0.056 13.854 0.057 15.203 0.057 C24.954 0.103 24.954 0.103 27.234 1.243 C27.259 6.209 27.277 11.175 27.289 16.142 C27.294 17.832 27.301 19.523 27.31 21.214 C27.322 23.639 27.328 26.064 27.332 28.489 C27.337 29.249 27.342 30.01 27.348 30.793 C27.348 32.61 27.296 34.427 27.234 36.243 C25.351 38.126 22.115 37.373 19.609 37.376 C18.947 37.377 18.285 37.378 17.603 37.379 C16.201 37.379 14.799 37.377 13.396 37.373 C11.243 37.368 9.091 37.373 6.938 37.38 C5.578 37.379 4.219 37.378 2.859 37.376 C1.614 37.375 0.369 37.373 -0.914 37.372 C-3.766 37.243 -3.766 37.243 -4.766 36.243 C-4.879 33.745 -4.93 31.277 -4.934 28.778 C-4.937 28.03 -4.94 27.281 -4.944 26.51 C-4.949 24.924 -4.951 23.337 -4.951 21.751 C-4.953 19.319 -4.971 16.888 -4.99 14.456 C-4.993 12.917 -4.995 11.379 -4.996 9.841 C-5.003 9.11 -5.01 8.38 -5.018 7.628 C-4.985 0.438 -4.985 0.438 0 0 Z " fill="#F7F7F7" transform="translate(204.765625,98.757080078125)"/>
<path d="M0 0 C1.254 -0.012 2.507 -0.024 3.799 -0.037 C5.598 -0.04 5.598 -0.04 7.434 -0.043 C8.536 -0.047 9.639 -0.051 10.775 -0.055 C13.562 0.188 13.562 0.188 16.562 2.188 C16.842 4.8 16.935 7.173 16.891 9.785 C16.889 10.535 16.887 11.284 16.885 12.056 C16.878 13.641 16.864 15.225 16.844 16.81 C16.813 19.244 16.803 21.677 16.797 24.111 C16.788 25.648 16.777 27.186 16.766 28.723 C16.759 29.821 16.759 29.821 16.753 30.942 C16.68 36.07 16.68 36.07 15.562 37.188 C13.271 37.275 10.977 37.294 8.684 37.285 C7.427 37.283 6.171 37.28 4.877 37.278 C3.267 37.268 1.658 37.259 0 37.25 C-5.094 37.229 -10.189 37.209 -15.438 37.188 C-15.438 25.308 -15.438 13.427 -15.438 1.188 C-10.989 -1.037 -4.885 0.003 0 0 Z " fill="#F7F7F7" transform="translate(179.4375,98.8125)"/>
<path d="M0 0 C0.821 -0.003 1.643 -0.006 2.489 -0.01 C3.843 -0.007 3.843 -0.007 5.223 -0.005 C6.661 -0.008 6.661 -0.008 8.128 -0.012 C11.355 -0.018 14.582 -0.017 17.808 -0.017 C20.116 -0.02 22.423 -0.023 24.731 -0.027 C31.01 -0.036 37.289 -0.038 43.568 -0.039 C48.804 -0.04 54.04 -0.043 59.276 -0.047 C70.921 -0.054 82.566 -0.057 94.211 -0.057 C94.91 -0.057 95.609 -0.057 96.329 -0.057 C97.379 -0.057 97.379 -0.057 98.45 -0.057 C109.792 -0.056 121.134 -0.066 132.476 -0.08 C144.118 -0.094 155.761 -0.101 167.404 -0.1 C173.941 -0.1 180.479 -0.103 187.017 -0.113 C193.164 -0.123 199.312 -0.123 205.46 -0.116 C207.718 -0.115 209.977 -0.117 212.236 -0.123 C215.315 -0.131 218.393 -0.126 221.472 -0.119 C222.37 -0.124 223.268 -0.129 224.193 -0.134 C233.765 -0.081 233.765 -0.081 236.975 3.129 C236.922 6.061 236.801 8.964 236.635 11.89 C236.562 13.28 236.562 13.28 236.488 14.698 C236.322 17.842 236.148 20.985 235.975 24.129 C235.852 26.424 235.729 28.719 235.607 31.014 C235.216 38.323 234.815 45.632 234.412 52.941 C234.272 55.495 234.132 58.049 233.992 60.603 C233.654 66.778 233.315 72.954 232.975 79.129 C232.315 79.459 231.655 79.789 230.975 80.129 C230.756 62.915 231.339 45.865 232.475 28.691 C232.62 26.413 232.765 24.135 232.908 21.857 C233.109 18.684 233.31 15.51 233.517 12.337 C233.577 11.417 233.637 10.497 233.699 9.549 C233.753 8.74 233.806 7.932 233.861 7.099 C233.937 5.777 233.975 4.453 233.975 3.129 C203.723 3.083 173.471 3.048 143.22 3.027 C139.65 3.024 136.08 3.021 132.51 3.019 C131.799 3.018 131.088 3.018 130.356 3.017 C118.842 3.008 107.328 2.993 95.814 2.974 C84.003 2.956 72.192 2.945 60.381 2.94 C53.745 2.938 47.11 2.932 40.474 2.917 C34.233 2.904 27.992 2.899 21.751 2.902 C19.456 2.902 17.162 2.898 14.867 2.89 C11.742 2.88 8.616 2.883 5.491 2.888 C4.577 2.882 3.662 2.876 2.72 2.87 C1.883 2.874 1.046 2.878 0.184 2.883 C-0.538 2.882 -1.259 2.881 -2.002 2.88 C-4.39 3.173 -5.983 3.869 -8.025 5.129 C-11.849 12.776 -8.777 27.036 -8.383 35.492 C-7.883 47.037 -7.929 58.576 -8.025 70.129 C-8.685 69.799 -9.345 69.469 -10.025 69.129 C-10.314 62.388 -10.598 55.648 -10.88 48.908 C-10.976 46.62 -11.073 44.332 -11.171 42.044 C-12.592 8.829 -12.592 8.829 -11.025 4.129 C-19.275 3.799 -27.525 3.469 -36.025 3.129 C-36.025 2.799 -36.025 2.469 -36.025 2.129 C-34.731 2.091 -34.731 2.091 -33.411 2.053 C-30.207 1.958 -27.003 1.858 -23.8 1.756 C-22.414 1.713 -21.028 1.671 -19.642 1.631 C-17.648 1.573 -15.655 1.509 -13.662 1.445 C-12.463 1.408 -11.264 1.372 -10.028 1.334 C-6.524 1.094 -3.538 0.004 0 0 Z " fill="#000000" transform="translate(57.025259017944336,63.871365547180176)"/>
<path d="M0 0 C10.23 0 20.46 0 31 0 C31 8.58 31 17.16 31 26 C20.77 25.67 10.54 25.34 0 25 C0 16.75 0 8.5 0 0 Z " fill="#FFFFFF" transform="translate(237,107)"/>
<path d="M0 0 C0.828 -0.004 1.656 -0.007 2.509 -0.011 C5.293 -0.022 8.078 -0.026 10.862 -0.03 C12.855 -0.036 14.847 -0.043 16.839 -0.05 C22.259 -0.067 27.678 -0.078 33.097 -0.086 C36.481 -0.091 39.865 -0.097 43.249 -0.103 C53.831 -0.123 64.413 -0.137 74.995 -0.145 C87.221 -0.155 99.447 -0.181 111.673 -0.222 C121.117 -0.252 130.56 -0.267 140.004 -0.27 C145.648 -0.272 151.291 -0.281 156.934 -0.306 C162.242 -0.33 167.549 -0.334 172.856 -0.324 C174.805 -0.323 176.754 -0.329 178.703 -0.343 C181.362 -0.361 184.02 -0.354 186.678 -0.341 C187.452 -0.352 188.225 -0.363 189.022 -0.374 C192.653 -0.33 194.811 0.054 197.946 1.946 C200.873 5.135 200.649 8.194 200.56 12.307 C200.56 13.094 200.56 13.88 200.56 14.69 C200.555 16.348 200.537 18.007 200.508 19.665 C200.466 22.205 200.467 24.742 200.474 27.282 C200.464 28.895 200.451 30.507 200.435 32.12 C200.435 32.879 200.435 33.639 200.434 34.421 C200.317 39.64 200.317 39.64 198.624 42.086 C194.635 44.638 190.512 44.29 185.964 44.281 C185.139 44.283 184.314 44.285 183.465 44.288 C180.692 44.294 177.919 44.293 175.146 44.292 C173.162 44.295 171.178 44.299 169.194 44.303 C163.797 44.311 158.401 44.314 153.004 44.314 C148.503 44.315 144.003 44.319 139.502 44.323 C128.887 44.331 118.271 44.333 107.656 44.332 C96.694 44.332 85.733 44.342 74.772 44.358 C65.37 44.371 55.967 44.377 46.565 44.376 C40.946 44.376 35.326 44.379 29.707 44.389 C24.424 44.399 19.14 44.399 13.857 44.392 C11.915 44.391 9.974 44.393 8.032 44.399 C5.387 44.407 2.741 44.402 0.096 44.394 C-1.063 44.402 -1.063 44.402 -2.244 44.41 C-5.962 44.386 -8.942 44.354 -12.034 42.147 C-13.606 39.002 -13.197 35.635 -13.202 32.182 C-13.205 31.393 -13.208 30.604 -13.212 29.791 C-13.217 28.121 -13.219 26.451 -13.219 24.78 C-13.221 22.223 -13.239 19.667 -13.258 17.11 C-13.261 15.488 -13.263 13.867 -13.264 12.245 C-13.271 11.479 -13.279 10.713 -13.286 9.925 C-13.27 6.124 -13.194 4.388 -11.034 1.147 C-7.317 -0.092 -3.871 -0.001 0 0 Z M-11.034 5.147 C-11.519 7.931 -11.691 10.094 -11.628 12.87 C-11.628 13.612 -11.628 14.354 -11.628 15.118 C-11.622 16.682 -11.605 18.247 -11.576 19.811 C-11.534 22.205 -11.535 24.598 -11.542 26.993 C-11.531 28.514 -11.518 30.036 -11.503 31.557 C-11.502 32.273 -11.502 32.989 -11.502 33.726 C-11.433 36.618 -11.382 38.651 -9.692 41.059 C-5.788 43.621 -1.744 43.293 2.734 43.288 C3.933 43.292 3.933 43.292 5.157 43.297 C7.844 43.305 10.532 43.307 13.22 43.308 C15.143 43.313 17.066 43.318 18.99 43.323 C24.221 43.336 29.452 43.343 34.684 43.347 C37.951 43.35 41.217 43.354 44.484 43.359 C54.7 43.373 64.915 43.382 75.131 43.386 C86.933 43.391 98.735 43.408 110.537 43.437 C119.654 43.459 128.77 43.469 137.887 43.47 C143.335 43.471 148.783 43.477 154.231 43.495 C159.354 43.511 164.477 43.514 169.601 43.505 C171.482 43.504 173.364 43.508 175.245 43.518 C177.812 43.531 180.378 43.525 182.944 43.515 C183.69 43.523 184.436 43.531 185.205 43.539 C189.625 43.497 192.453 42.878 195.966 40.147 C198.215 35.649 197.277 29.112 197.316 24.117 C197.333 22.557 197.36 20.998 197.398 19.438 C197.453 17.187 197.475 14.938 197.49 12.686 C197.524 11.644 197.524 11.644 197.558 10.58 C197.543 7.154 197.299 5.505 194.935 2.963 C191.198 0.677 188.131 0.589 183.882 0.639 C183.072 0.633 182.263 0.627 181.429 0.62 C178.72 0.604 176.012 0.617 173.302 0.63 C171.359 0.624 169.415 0.617 167.472 0.608 C162.195 0.59 156.919 0.597 151.642 0.61 C146.122 0.62 140.601 0.611 135.081 0.604 C125.81 0.597 116.54 0.607 107.269 0.626 C96.548 0.647 85.828 0.64 75.107 0.618 C65.905 0.6 56.704 0.598 47.502 0.608 C42.005 0.614 36.508 0.615 31.011 0.602 C25.843 0.59 20.676 0.598 15.508 0.622 C13.61 0.627 11.713 0.625 9.815 0.617 C7.227 0.606 4.639 0.619 2.051 0.639 C1.298 0.63 0.546 0.621 -0.229 0.612 C-5.08 0.685 -7.712 1.571 -11.034 5.147 Z " fill="#FFFFFF" transform="translate(73.03378295898438,95.85282897949219)"/>
<path d="M0 0 C3.63 0 7.26 0 11 0 C11 0.99 11 1.98 11 3 C10.34 3 9.68 3 9 3 C9 4.98 9 6.96 9 9 C10.32 9.33 11.64 9.66 13 10 C13.33 9.01 13.66 8.02 14 7 C14.66 7.33 15.32 7.66 16 8 C16 8.66 16 9.32 16 10 C17.32 10 18.64 10 20 10 C21.2 4.718 21.2 4.718 19 0 C22.63 0 26.26 0 30 0 C30 7.92 30 15.84 30 24 C20.1 24 10.2 24 0 24 C0 16.08 0 8.16 0 0 Z " fill="#FFFFFF" transform="translate(129,108)"/>
<path d="M0 0 C0.846 -0.006 1.692 -0.011 2.563 -0.017 C5.402 -0.03 8.241 -0.015 11.08 -0.001 C13.113 -0.004 15.147 -0.01 17.18 -0.017 C22.707 -0.031 28.234 -0.02 33.761 -0.003 C39.539 0.011 45.317 0.004 51.096 0.001 C60.8 -0.002 70.505 0.011 80.209 0.035 C91.436 0.061 102.663 0.063 113.889 0.051 C124.68 0.04 135.471 0.047 146.262 0.061 C150.858 0.067 155.455 0.066 160.051 0.062 C165.462 0.057 170.872 0.067 176.283 0.089 C178.271 0.094 180.259 0.095 182.248 0.09 C184.957 0.084 187.666 0.096 190.375 0.114 C191.561 0.105 191.561 0.105 192.772 0.095 C196.021 0.133 198.308 0.288 201.169 1.897 C203.115 3.953 203.265 5.121 203.426 7.927 C203.481 8.815 203.536 9.702 203.592 10.617 C203.624 11.569 203.655 12.521 203.687 13.501 C203.736 14.962 203.736 14.962 203.786 16.452 C203.856 19.532 203.873 22.608 203.875 25.689 C203.887 26.73 203.899 27.771 203.912 28.843 C203.923 34.423 203.807 39.298 201.687 44.501 C197.898 47.027 194.884 46.786 190.495 46.769 C189.65 46.773 188.805 46.778 187.934 46.782 C185.092 46.795 182.25 46.793 179.408 46.792 C177.375 46.798 175.342 46.805 173.308 46.812 C167.777 46.83 162.247 46.834 156.716 46.836 C152.103 46.838 147.491 46.845 142.878 46.852 C131.999 46.868 121.12 46.873 110.241 46.872 C99.007 46.871 87.773 46.892 76.539 46.923 C66.903 46.949 57.267 46.96 47.632 46.959 C41.872 46.958 36.113 46.964 30.354 46.985 C24.939 47.005 19.525 47.005 14.11 46.99 C12.12 46.988 10.13 46.993 8.141 47.005 C5.429 47.02 2.718 47.011 0.007 46.996 C-0.785 47.006 -1.577 47.016 -2.392 47.027 C-5.88 46.983 -7.933 46.774 -10.8 44.713 C-13.115 41.328 -12.884 37.897 -12.844 33.939 C-12.848 33.11 -12.852 32.282 -12.855 31.429 C-12.858 29.68 -12.851 27.932 -12.834 26.184 C-12.813 23.51 -12.834 20.839 -12.859 18.165 C-12.857 16.465 -12.852 14.764 -12.844 13.064 C-12.856 11.867 -12.856 11.867 -12.868 10.645 C-12.813 7.361 -12.681 5.039 -10.8 2.29 C-7.313 -0.218 -4.136 -0.05 0 0 Z M-10.313 3.501 C-11.884 6.645 -11.497 10.014 -11.516 13.466 C-11.521 14.255 -11.527 15.044 -11.533 15.857 C-11.542 17.528 -11.549 19.198 -11.553 20.868 C-11.563 23.425 -11.594 25.981 -11.625 28.538 C-11.632 30.16 -11.637 31.782 -11.641 33.404 C-11.653 34.169 -11.665 34.935 -11.678 35.724 C-11.698 39.844 -11.698 39.844 -9.917 43.445 C-6.17 45.912 -2.792 45.647 1.563 45.642 C2.798 45.646 2.798 45.646 4.057 45.651 C6.831 45.659 9.604 45.661 12.378 45.662 C14.36 45.667 16.343 45.672 18.325 45.677 C23.722 45.691 29.118 45.697 34.515 45.701 C37.885 45.704 41.254 45.708 44.623 45.713 C55.158 45.727 65.693 45.736 76.228 45.74 C88.402 45.745 100.576 45.762 112.75 45.791 C122.151 45.813 131.552 45.823 140.954 45.824 C146.573 45.825 152.191 45.831 157.81 45.849 C163.095 45.865 168.38 45.868 173.665 45.859 C175.606 45.858 177.547 45.862 179.488 45.872 C182.136 45.885 184.783 45.879 187.431 45.869 C188.201 45.877 188.971 45.885 189.764 45.893 C194.678 45.848 198.148 45.041 201.687 41.501 C201.979 36.426 202.001 31.348 202.037 26.265 C202.054 24.553 202.081 22.841 202.12 21.129 C202.174 18.663 202.196 16.198 202.211 13.732 C202.245 12.586 202.245 12.586 202.28 11.418 C202.265 7.86 202.111 5.963 199.668 3.298 C195.871 1.009 192.709 0.949 188.406 1.007 C187.576 1.002 186.746 0.997 185.89 0.992 C183.109 0.981 180.329 0.998 177.548 1.015 C175.554 1.013 173.56 1.009 171.566 1.004 C166.151 0.994 160.736 1.009 155.321 1.03 C149.657 1.047 143.993 1.044 138.33 1.043 C128.819 1.045 119.309 1.062 109.799 1.09 C98.798 1.121 87.797 1.132 76.795 1.13 C66.219 1.129 55.642 1.139 45.065 1.156 C40.561 1.163 36.057 1.166 31.552 1.167 C26.251 1.169 20.949 1.182 15.648 1.202 C13.7 1.208 11.752 1.21 9.804 1.209 C7.15 1.208 4.496 1.219 1.841 1.234 C1.067 1.231 0.292 1.228 -0.506 1.224 C-4.226 1.258 -7.219 1.293 -10.313 3.501 Z " fill="#000000" transform="translate(71.3126220703125,94.49879455566406)"/>
<path d="M0 0 C5.623 -0.025 11.247 -0.043 16.87 -0.055 C18.783 -0.06 20.696 -0.067 22.608 -0.075 C25.359 -0.088 28.109 -0.093 30.859 -0.098 C31.714 -0.103 32.568 -0.108 33.448 -0.113 C34.649 -0.113 34.649 -0.113 35.874 -0.114 C36.576 -0.116 37.277 -0.118 38 -0.12 C40.148 0.009 41.969 0.28 44 1 C44.303 1.764 44.606 2.529 44.918 3.316 C46.337 6.835 48.176 7.862 51.312 9.938 C56.458 13.516 60.669 16.656 63.05 22.637 C64.703 25.115 64.703 25.115 66.81 25.459 C69.285 25.641 71.716 25.652 74.197 25.615 C75.61 25.624 75.61 25.624 77.051 25.632 C80.17 25.644 83.287 25.62 86.406 25.594 C88.57 25.592 90.733 25.592 92.896 25.594 C97.432 25.592 101.968 25.573 106.504 25.542 C112.326 25.502 118.146 25.498 123.967 25.505 C128.435 25.509 132.903 25.496 137.371 25.479 C139.517 25.472 141.664 25.469 143.811 25.47 C146.808 25.468 149.805 25.447 152.803 25.42 C153.694 25.423 154.586 25.426 155.504 25.429 C156.32 25.417 157.136 25.406 157.977 25.394 C158.686 25.391 159.394 25.387 160.124 25.383 C162.592 24.879 163.456 23.957 165 22 C166.156 18.853 166.156 18.853 167.062 15.375 C167.651 13.233 168.285 11.103 169 9 C169.66 8.67 170.32 8.34 171 8 C170.611 12.274 170.115 15.897 168.5 19.875 C165.854 27.167 166.24 35.331 166 43 C165.67 43 165.34 43 165 43 C165 37.72 165 32.44 165 27 C164.34 27.33 163.68 27.66 163 28 C159.909 28.115 156.84 28.168 153.749 28.177 C152.789 28.184 151.83 28.19 150.841 28.197 C147.657 28.217 144.473 28.228 141.289 28.238 C140.204 28.242 139.118 28.246 138 28.251 C132.257 28.272 126.514 28.286 120.771 28.295 C114.83 28.306 108.89 28.341 102.949 28.38 C98.388 28.406 93.828 28.415 89.268 28.418 C87.077 28.423 84.887 28.435 82.696 28.453 C79.634 28.478 76.573 28.477 73.51 28.47 C72.602 28.483 71.694 28.496 70.758 28.509 C64.622 28.458 64.622 28.458 61.476 26.143 C60 24 60 24 58.875 21.25 C55.494 15.39 49.56 11.707 44 8 C44.395 16.842 45.457 25.104 47.379 33.723 C47.923 36.592 48.126 39.094 48 42 C47.34 42 46.68 42 46 42 C40.517 17.488 40.517 17.488 40.141 6.316 C40.259 4.038 40.259 4.038 39 3 C36.117 2.84 33.256 2.74 30.371 2.684 C29.075 2.652 29.075 2.652 27.752 2.621 C24.981 2.555 22.209 2.496 19.438 2.438 C17.563 2.394 15.689 2.351 13.814 2.307 C9.21 2.199 4.605 2.098 0 2 C0 1.34 0 0.68 0 0 Z " fill="#000000" transform="translate(24,219)"/>
<path d="M0 0 C1.074 -0.003 2.149 -0.006 3.256 -0.009 C4.41 0.003 5.564 0.016 6.753 0.028 C8.536 0.031 8.536 0.031 10.354 0.034 C12.864 0.041 15.374 0.055 17.884 0.075 C21.738 0.106 25.591 0.116 29.445 0.122 C31.881 0.131 34.317 0.142 36.753 0.153 C37.912 0.158 39.07 0.162 40.263 0.166 C41.332 0.176 42.4 0.185 43.5 0.195 C44.443 0.202 45.386 0.209 46.357 0.216 C48.621 0.356 48.621 0.356 50.621 1.356 C50.621 3.336 50.621 5.316 50.621 7.356 C31.151 7.356 11.681 7.356 -8.379 7.356 C-8.709 8.016 -9.039 8.676 -9.379 9.356 C-9.629 6.544 -9.629 6.544 -9.379 3.356 C-6.392 0.374 -4.137 -0.016 0 0 Z " fill="#FFFFFF" transform="translate(73.37939453125,98.6435546875)"/>
<path d="M0 0 C2.269 -0.135 4.541 -0.232 6.812 -0.312 C8.709 -0.4 8.709 -0.4 10.645 -0.488 C14 0 14 0 15.668 2.06 C17.264 5.583 17.539 8.725 17.66 12.527 C17.695 13.26 17.73 13.992 17.765 14.747 C17.877 17.144 17.969 19.54 18.062 21.938 C18.176 24.461 18.294 26.984 18.412 29.507 C18.492 31.212 18.57 32.918 18.646 34.623 C18.994 42.259 19.513 49.876 20.062 57.5 C20.76 67.704 21.364 77.908 21.812 88.125 C21.878 89.359 21.943 90.594 22.01 91.865 C22.054 93.005 22.099 94.146 22.145 95.32 C22.212 96.825 22.212 96.825 22.281 98.36 C21.944 101.529 21.331 102.833 19 105 C16.732 105.454 16.732 105.454 14.113 105.391 C13.175 105.378 12.238 105.365 11.271 105.352 C10.295 105.318 9.319 105.285 8.312 105.25 C7.324 105.232 6.336 105.214 5.318 105.195 C2.878 105.148 0.439 105.082 -2 105 C-2 104.34 -2 103.68 -2 103 C7.9 102.505 7.9 102.505 18 102 C19.287 99.426 19.053 97.734 18.949 94.855 C18.911 93.771 18.873 92.687 18.834 91.57 C18.786 90.38 18.737 89.191 18.688 87.965 C18.64 86.723 18.592 85.481 18.543 84.201 C17.982 70.395 17.15 56.607 16.271 42.819 C16.04 39.211 15.817 35.602 15.595 31.994 C15.421 29.17 15.243 26.347 15.065 23.524 C14.94 21.551 14.819 19.579 14.698 17.606 C14.621 16.416 14.544 15.225 14.465 13.998 C14.399 12.957 14.333 11.915 14.265 10.843 C14.014 7.62 14.014 7.62 13 3 C8.71 2.34 4.42 1.68 0 1 C0 0.67 0 0.34 0 0 Z " fill="#000000" transform="translate(20,68)"/>
<path d="M0 0 C0.66 0 1.32 0 2 0 C0.987 3.087 -0.056 6.152 -1.184 9.199 C-8.36 29.163 -8.463 49.148 -8.562 70.188 C-8.585 74.186 -8.615 78.184 -8.654 82.183 C-8.678 84.65 -8.693 87.118 -8.698 89.585 C-8.777 98.271 -10.321 105.276 -13.125 113.5 C-13.655 115.062 -13.655 115.062 -14.195 116.656 C-14.461 117.43 -14.726 118.203 -15 119 C-15.66 119 -16.32 119 -17 119 C-16.545 113.903 -15.705 109.675 -13.719 104.957 C-12.171 100.741 -11.871 96.657 -11.842 92.194 C-11.832 91.048 -11.822 89.902 -11.811 88.722 C-11.804 87.488 -11.797 86.255 -11.789 84.984 C-11.768 83.021 -11.747 81.057 -11.725 79.093 C-11.673 74.276 -11.628 69.46 -11.599 64.643 C-11.404 34.819 -11.404 34.819 -8 21 C-7.78 20.108 -7.561 19.217 -7.334 18.298 C-6.786 16.264 -6.149 14.254 -5.5 12.25 C-5.3 11.605 -5.1 10.961 -4.895 10.297 C-3.689 6.548 -2.302 3.208 0 0 Z " fill="#000000" transform="translate(315,12)"/>
<path d="M0 0 C1.65 0.33 3.3 0.66 5 1 C5 1.66 5 2.32 5 3 C5.66 3 6.32 3 7 3 C7.33 2.01 7.66 1.02 8 0 C8.784 0.165 9.567 0.33 10.375 0.5 C13.912 1.174 16.496 0.738 20 0 C22.215 5.292 22.215 5.292 21.125 8.875 C20.754 9.576 20.382 10.277 20 11 C18.35 11 16.7 11 15 11 C14.67 10.34 14.34 9.68 14 9 C13.34 9.66 12.68 10.32 12 11 C9.5 10.625 9.5 10.625 7 10 C4.572 10 2.371 10.501 0 11 C-0.33 10.01 -0.66 9.02 -1 8 C0.98 8.495 0.98 8.495 3 9 C3 8.34 3 7.68 3 7 C1.68 7 0.36 7 -1 7 C-1.625 5.188 -1.625 5.188 -2 3 C-1.34 2.01 -0.68 1.02 0 0 Z " fill="#202020" transform="translate(305,273)"/>
<path d="M0 0 C1.158 -0.001 2.315 -0.003 3.508 -0.004 C5.329 0.002 5.329 0.002 7.188 0.008 C9.009 0.002 9.009 0.002 10.867 -0.004 C12.604 -0.002 12.604 -0.002 14.375 0 C15.441 0.001 16.507 0.002 17.605 0.003 C20.188 0.133 20.188 0.133 22.188 1.133 C22.188 3.113 22.188 5.093 22.188 7.133 C12.287 7.133 2.387 7.133 -7.812 7.133 C-7.812 5.153 -7.812 3.173 -7.812 1.133 C-5.12 -0.214 -3.011 0.003 0 0 Z " fill="#FFFFFF" transform="translate(136.8125,98.8671875)"/>
<path d="M0 0 C1.05 -0.012 2.1 -0.024 3.182 -0.037 C4.699 -0.04 4.699 -0.04 6.246 -0.043 C7.17 -0.047 8.093 -0.051 9.045 -0.055 C11.788 0.209 13.353 0.53 15.562 2.188 C15.892 3.838 16.223 5.487 16.562 7.188 C6.332 7.188 -3.898 7.188 -14.438 7.188 C-14.438 5.207 -14.438 3.228 -14.438 1.188 C-9.718 -0.386 -4.943 0.003 0 0 Z " fill="#FFFFFF" transform="translate(251.4375,98.8125)"/>
<path d="M0 0 C19.8 0 39.6 0 60 0 C60 0.99 60 1.98 60 3 C52.472 3.069 44.945 3.123 37.417 3.155 C33.921 3.171 30.426 3.192 26.931 3.226 C22.915 3.265 18.899 3.28 14.883 3.293 C12.995 3.316 12.995 3.316 11.07 3.34 C9.909 3.34 8.748 3.34 7.551 3.341 C6.012 3.351 6.012 3.351 4.442 3.361 C3.233 3.182 3.233 3.182 2 3 C1.34 2.01 0.68 1.02 0 0 Z " fill="#FFFFFF" transform="translate(64,133)"/>
<path d="M0 0 C9.57 0 19.14 0 29 0 C28.67 0.66 28.34 1.32 28 2 C24.7 2 21.4 2 18 2 C18 2.99 18 3.98 18 5 C18.66 5 19.32 5 20 5 C20 6.98 20 8.96 20 11 C19.34 11 18.68 11 18 11 C17.67 11.66 17.34 12.32 17 13 C16.34 12.01 15.68 11.02 15 10 C14.67 10.66 14.34 11.32 14 12 C11.625 12.188 11.625 12.188 9 12 C7 9 7 9 7.312 6.375 C8 4 8 4 9 3 C6.03 2.67 3.06 2.34 0 2 C0 1.34 0 0.68 0 0 Z " fill="#141414" transform="translate(166,106)"/>
<path d="M0 0 C9.57 0 19.14 0 29 0 C28.67 0.66 28.34 1.32 28 2 C24.37 2 20.74 2 17 2 C17 2.99 17 3.98 17 5 C17.99 4.67 18.98 4.34 20 4 C20.597 6.763 21 9.16 21 12 C16.684 12.762 13.256 13.161 9 12 C8.799 8.284 8.848 7.228 11 4 C11.66 4.33 12.32 4.66 13 5 C13 4.01 13 3.02 13 2 C8.71 2 4.42 2 0 2 C0 1.34 0 0.68 0 0 Z " fill="#000000" transform="translate(201,106)"/>
<path d="M0 0 C0.772 -0.024 1.544 -0.049 2.34 -0.074 C7.967 -0.103 7.967 -0.103 10.566 2.23 C11.5 4.375 11.5 4.375 10.938 7.062 C9.5 9.375 9.5 9.375 7.41 10.02 C6.78 10.137 6.149 10.254 5.5 10.375 C5.162 9.809 4.825 9.243 4.477 8.66 C4.031 7.927 3.585 7.193 3.125 6.438 C2.684 5.707 2.243 4.976 1.789 4.223 C0.623 2.237 0.623 2.237 -1.5 1.375 C-1.933 2.489 -1.933 2.489 -2.375 3.625 C-3.323 5.942 -4.348 8.154 -5.5 10.375 C-10.375 9.5 -10.375 9.5 -11.5 8.375 C-11.75 5.438 -11.75 5.438 -11.5 2.375 C-7.663 -0.183 -4.449 0.007 0 0 Z " fill="#FFFFFF" transform="translate(93.5,108.625)"/>
<path d="M0 0 C9.9 0 19.8 0 30 0 C30 0.99 30 1.98 30 3 C20.1 3 10.2 3 0 3 C0 2.01 0 1.02 0 0 Z " fill="#FFFFFF" transform="translate(129,133)"/>
<path d="M0 0 C9.9 0 19.8 0 30 0 C29.67 0.99 29.34 1.98 29 3 C19.43 3 9.86 3 0 3 C0 2.01 0 1.02 0 0 Z " fill="#FFFFFF" transform="translate(237,133)"/>
<path d="M0 0 C2.051 0.293 4.102 0.586 6.152 0.879 C6.762 0.919 7.372 0.959 8 1 C8.33 0.67 8.66 0.34 9 0 C10.666 -0.041 12.334 -0.043 14 0 C14 2.31 14 4.62 14 7 C12.928 6.629 11.855 6.257 10.75 5.875 C7.206 4.676 7.206 4.676 4.75 5.875 C4.173 6.246 3.595 6.618 3 7 C2.01 7 1.02 7 0 7 C0.186 6.216 0.371 5.433 0.562 4.625 C1.26 2.029 1.26 2.029 0 0 Z " fill="#070707" transform="translate(246,110)"/>
<path d="M0 0 C1.236 0.017 1.236 0.017 2.496 0.035 C3.322 0.044 4.149 0.053 5 0.062 C5.638 0.074 6.276 0.086 6.934 0.098 C7.996 1.973 7.996 1.973 8.934 4.098 C8.604 4.758 8.274 5.418 7.934 6.098 C4.304 6.098 0.674 6.098 -3.066 6.098 C-3.066 0.145 -3.066 0.145 0 0 Z " fill="#000000" transform="translate(91.06640625,124.90234375)"/>
<path d="M0 0 C1.052 -0.021 1.052 -0.021 2.125 -0.043 C4 0.188 4 0.188 6 2.188 C5.67 3.507 5.34 4.827 5 6.188 C1.7 6.188 -1.6 6.188 -5 6.188 C-5.33 4.537 -5.66 2.888 -6 1.188 C-3.771 0.073 -2.469 0.023 0 0 Z " fill="#000000" transform="translate(217,124.8125)"/>
<path d="M0 0 C1.052 -0.021 1.052 -0.021 2.125 -0.043 C4 0.188 4 0.188 6 2.188 C5.67 3.507 5.34 4.827 5 6.188 C1.7 6.188 -1.6 6.188 -5 6.188 C-5.33 4.537 -5.66 2.888 -6 1.188 C-3.771 0.073 -2.469 0.023 0 0 Z " fill="#000000" transform="translate(144,124.8125)"/>
<path d="M0 0 C2.164 -0.293 2.164 -0.293 4.625 -0.188 C5.442 -0.16 6.26 -0.133 7.102 -0.105 C8.041 -0.053 8.041 -0.053 9 0 C9.382 1.656 9.714 3.325 10 5 C9 6 9 6 6.715 6.098 C5.34 6.08 5.34 6.08 3.938 6.062 C3.018 6.053 2.099 6.044 1.152 6.035 C0.442 6.024 -0.268 6.012 -1 6 C-1.33 5.01 -1.66 4.02 -2 3 C-1.34 2.01 -0.68 1.02 0 0 Z " fill="#000000" transform="translate(176,125)"/>
<path d="M0 0 C1.875 -0.363 1.875 -0.363 4 -0.312 C4.701 -0.309 5.403 -0.305 6.125 -0.301 C8 0 8 0 10 2 C9.67 3.32 9.34 4.64 9 6 C5.7 6 2.4 6 -1 6 C-1.33 5.01 -1.66 4.02 -2 3 C-1.34 2.01 -0.68 1.02 0 0 Z " fill="#000000" transform="translate(249,125)"/>
<path d="M0 0 C0.977 6.055 0.977 6.055 1 8 C-1 10 -1 10 -3.625 10.125 C-4.409 10.084 -5.192 10.043 -6 10 C-6.33 8.68 -6.66 7.36 -7 6 C-6.34 6 -5.68 6 -5 6 C-5 6.66 -5 7.32 -5 8 C-4.01 7.34 -3.02 6.68 -2 6 C-2.66 5.67 -3.32 5.34 -4 5 C-4 4.34 -4 3.68 -4 3 C-3.34 3 -2.68 3 -2 3 C-2 2.34 -2 1.68 -2 1 C-3.65 1.66 -5.3 2.32 -7 3 C-7 2.01 -7 1.02 -7 0 C-4.333 -1.333 -2.833 -0.671 0 0 Z " fill="#000000" transform="translate(334,274)"/>
<path d="M0 0 C2.97 0 5.94 0 9 0 C9 0.66 9 1.32 9 2 C8.01 2 7.02 2 6 2 C6 4.97 6 7.94 6 11 C5.34 11 4.68 11 4 11 C4 8.03 4 5.06 4 2 C2.68 2 1.36 2 0 2 C0 1.34 0 0.68 0 0 Z " fill="#000000" transform="translate(290,273)"/>
<path d="M0 0 C2.64 0 5.28 0 8 0 C8 0.99 8 1.98 8 3 C5.69 3 3.38 3 1 3 C0.67 2.01 0.34 1.02 0 0 Z " fill="#FFFFFF" transform="translate(249,127)"/>
<path d="M0 0 C2.64 0 5.28 0 8 0 C7.67 0.99 7.34 1.98 7 3 C4.69 3 2.38 3 0 3 C0 2.01 0 1.02 0 0 Z " fill="#FFFFFF" transform="translate(213,127)"/>
<path d="M0 0 C2.64 0 5.28 0 8 0 C8 0.99 8 1.98 8 3 C5.69 3 3.38 3 1 3 C0.67 2.01 0.34 1.02 0 0 Z " fill="#FFFFFF" transform="translate(176,127)"/>
<path d="M0 0 C2.64 0 5.28 0 8 0 C7.67 0.99 7.34 1.98 7 3 C4.69 3 2.38 3 0 3 C0 2.01 0 1.02 0 0 Z " fill="#FFFFFF" transform="translate(140,127)"/>
<path d="M0 0 C2.64 0 5.28 0 8 0 C8 0.99 8 1.98 8 3 C5.69 3 3.38 3 1 3 C0.67 2.01 0.34 1.02 0 0 Z " fill="#FFFFFF" transform="translate(89,127)"/>
<path d="M0 0 C0.66 0 1.32 0 2 0 C2 2.31 2 4.62 2 7 C1.01 6.67 0.02 6.34 -1 6 C-1.043 4.334 -1.041 2.666 -1 1 C-0.67 0.67 -0.34 0.34 0 0 Z " fill="#FFFFFF" transform="translate(314,275)"/>
<path d="M0 0 C0.99 0.33 1.98 0.66 3 1 C2.67 2.32 2.34 3.64 2 5 C0.68 4.34 -0.64 3.68 -2 3 C-1.34 2.01 -0.68 1.02 0 0 Z " fill="#FFFFFF" transform="translate(215,112)"/>
</svg>
