<?xml version="1.0" encoding="UTF-8"?>
<!-- Generator: visioncortex VTracer 0.6.4 -->
<svg version="1.1" xmlns="http://www.w3.org/2000/svg" width="455" height="386">
<path d="M0 0 C150.15 0 300.3 0 455 0 C455 127.38 455 254.76 455 386 C304.85 386 154.7 386 0 386 C0 258.62 0 131.24 0 0 Z " fill="#FCFCFC" transform="translate(0,0)"/>
<path d="M0 0 C1.156 -0.005 2.312 -0.009 3.502 -0.014 C4.771 -0.019 6.039 -0.024 7.346 -0.029 C8.334 -0.017 8.334 -0.017 9.341 -0.004 C11.34 0.017 13.339 -0.006 15.338 -0.029 C16.609 -0.024 17.88 -0.019 19.19 -0.014 C20.348 -0.009 21.506 -0.005 22.699 0 C26.634 0.621 28.796 2.187 31.979 4.518 C34.346 5.038 34.346 5.038 36.604 5.143 C39.439 5.712 40.621 6.084 42.479 8.334 C45.795 15.323 44.896 21.969 44.15 29.463 C43.17 41.211 43.229 54.268 46.979 65.518 C51.269 65.518 55.559 65.518 59.979 65.518 C61.993 70.447 63.99 75.381 65.792 80.393 C66.045 81.091 66.299 81.79 66.561 82.51 C67.259 85.863 66.194 87.995 64.915 91.102 C62.979 93.518 62.979 93.518 59.517 94.177 C58.095 94.218 56.672 94.232 55.249 94.225 C54.498 94.24 53.748 94.255 52.975 94.27 C50.58 94.313 48.186 94.322 45.792 94.33 C44.167 94.353 42.543 94.379 40.918 94.406 C36.939 94.469 32.959 94.501 28.979 94.518 C29.474 95.404 29.969 96.291 30.479 97.205 C31.979 100.518 31.979 100.518 31.979 105.518 C36.269 105.518 40.559 105.518 44.979 105.518 C48.291 112.249 49.089 115.508 49.979 123.518 C58.889 123.518 67.799 123.518 76.979 123.518 C83.363 136.285 86.954 145.248 84.979 159.518 C83.247 176.264 82.226 192.923 89.956 208.338 C90.979 210.518 90.979 210.518 90.979 212.518 C91.966 212.506 92.954 212.494 93.971 212.482 C95.893 212.469 95.893 212.469 97.854 212.455 C99.13 212.443 100.406 212.432 101.721 212.42 C104.979 212.518 104.979 212.518 106.979 213.518 C106.649 214.838 106.319 216.158 105.979 217.518 C105.03 217.208 104.082 216.899 103.104 216.58 C100.759 215.855 98.933 215.518 96.463 215.549 C93.649 215.583 91.621 215.517 88.979 214.518 C86.289 210.771 83.979 206.218 83.979 201.518 C67.809 201.518 51.639 201.518 34.979 201.518 C35.309 204.158 35.639 206.798 35.979 209.518 C33.669 209.518 31.359 209.518 28.979 209.518 C29.072 210.879 29.072 210.879 29.167 212.268 C28.952 215.987 28.681 217.008 25.979 219.518 C23.238 219.953 20.85 220.168 18.104 220.205 C11.416 220.159 11.416 220.159 4.979 221.518 C4.389 222.51 3.799 223.503 3.191 224.526 C1.261 226.89 0.236 227.466 -2.799 228.078 C-6.449 228.28 -10.057 228.296 -13.712 228.244 C-15.063 228.243 -16.414 228.244 -17.765 228.247 C-20.591 228.247 -23.415 228.226 -26.24 228.19 C-29.858 228.145 -33.474 228.143 -37.091 228.157 C-39.879 228.164 -42.666 228.15 -45.453 228.131 C-47.434 228.119 -49.415 228.122 -51.396 228.125 C-52.6 228.106 -53.805 228.087 -55.047 228.067 C-56.106 228.058 -57.166 228.048 -58.258 228.039 C-61.688 227.392 -62.867 226.206 -65.021 223.518 C-65.75 221.582 -65.75 221.582 -66.068 219.584 C-66.252 218.487 -66.252 218.487 -66.439 217.367 C-66.549 216.612 -66.658 215.858 -66.771 215.08 C-66.896 214.329 -67.021 213.578 -67.15 212.805 C-67.771 208.925 -68.021 205.495 -68.021 201.518 C-78.251 201.518 -88.481 201.518 -99.021 201.518 C-98.691 203.828 -98.361 206.138 -98.021 208.518 C-97.837 211.456 -97.836 214.386 -97.833 217.33 C-97.821 218.093 -97.809 218.855 -97.796 219.641 C-97.791 221.601 -97.898 223.561 -98.021 225.518 C-100.751 228.248 -102.227 227.769 -106.05 227.772 C-107.336 227.777 -108.621 227.783 -109.946 227.789 C-111.379 227.785 -112.812 227.781 -114.245 227.776 C-115.748 227.779 -117.251 227.783 -118.754 227.787 C-122.843 227.796 -126.931 227.793 -131.02 227.786 C-135.294 227.781 -139.567 227.786 -143.84 227.789 C-151.019 227.793 -158.197 227.788 -165.376 227.778 C-173.68 227.767 -181.985 227.771 -190.29 227.782 C-197.413 227.791 -204.535 227.792 -211.658 227.787 C-215.915 227.784 -220.173 227.784 -224.43 227.79 C-228.433 227.796 -232.436 227.792 -236.439 227.78 C-237.91 227.778 -239.381 227.779 -240.852 227.783 C-242.856 227.788 -244.861 227.78 -246.865 227.772 C-247.988 227.771 -249.111 227.77 -250.268 227.769 C-253.021 227.518 -253.021 227.518 -256.021 225.518 C-256.279 223.389 -256.279 223.389 -256.146 220.955 C-256.075 219.477 -256.027 217.997 -256.021 216.518 C-256.351 216.188 -256.681 215.858 -257.021 215.518 C-256.691 211.888 -256.361 208.258 -256.021 204.518 C-263.611 204.518 -271.201 204.518 -279.021 204.518 C-279.231 210.261 -279.231 210.261 -279.409 216.005 C-279.565 219.397 -279.747 221.957 -281.251 225.033 C-285.239 228.379 -290.581 227.573 -295.509 227.396 C-296.212 227.373 -296.916 227.349 -297.64 227.325 C-299.872 227.249 -302.102 227.165 -304.333 227.08 C-305.852 227.027 -307.371 226.974 -308.89 226.922 C-312.601 226.793 -316.311 226.657 -320.021 226.518 C-320.021 225.858 -320.021 225.198 -320.021 224.518 C-302.696 224.023 -302.696 224.023 -285.021 223.518 C-284.361 221.868 -283.701 220.218 -283.021 218.518 C-283.997 219.001 -284.973 219.484 -285.978 219.982 C-290.239 221.796 -294.115 222.092 -298.708 222.08 C-299.883 222.083 -299.883 222.083 -301.081 222.086 C-308.496 221.885 -313.804 219.613 -320.021 215.518 C-320.021 214.858 -320.021 214.198 -320.021 213.518 C-316.978 214.172 -314.449 215.246 -311.646 216.58 C-301.788 220.564 -291.756 219.058 -282.021 215.518 C-281.526 209.083 -281.526 209.083 -281.021 202.518 C-277.721 202.518 -274.421 202.518 -271.021 202.518 C-270.466 193.272 -270.117 185.193 -276.021 177.518 C-282.047 171.232 -290.961 167.429 -299.646 167.08 C-306.883 167.442 -313.495 170.602 -320.021 173.518 C-320.021 172.528 -320.021 171.538 -320.021 170.518 C-318.44 169.7 -316.856 168.889 -315.271 168.08 C-314.389 167.628 -313.508 167.175 -312.599 166.709 C-304.257 162.854 -294.83 163.832 -286.275 166.568 C-284.021 167.518 -284.021 167.518 -279.021 170.518 C-279.021 160.948 -279.021 151.378 -279.021 141.518 C-281.25 141.469 -283.479 141.42 -285.775 141.369 C-287.953 141.315 -290.131 141.258 -292.308 141.2 C-293.813 141.162 -295.317 141.127 -296.821 141.096 C-298.993 141.05 -301.165 140.992 -303.337 140.932 C-304.641 140.9 -305.945 140.869 -307.289 140.836 C-312.08 140.427 -316.529 140.009 -320.021 136.518 C-320.021 135.528 -320.021 134.538 -320.021 133.518 C-319.361 133.518 -318.701 133.518 -318.021 133.518 C-318.021 134.178 -318.021 134.838 -318.021 135.518 C-309.109 137.999 -300.176 137.873 -290.998 137.898 C-288.924 137.908 -286.852 137.942 -284.779 137.979 C-283.553 137.987 -282.327 137.995 -281.064 138.003 C-278.021 138.518 -278.021 138.518 -276.102 140.295 C-274.919 142.727 -274.743 143.949 -274.974 146.615 C-275.02 147.408 -275.066 148.201 -275.113 149.018 C-275.165 149.863 -275.217 150.709 -275.271 151.58 C-275.638 161.983 -272.967 170.214 -268.777 179.637 C-267.179 183.611 -266.86 187.181 -266.833 191.455 C-266.819 192.475 -266.805 193.494 -266.791 194.545 C-267.027 197.589 -267.738 199.765 -269.021 202.518 C-267.041 202.188 -265.061 201.858 -263.021 201.518 C-263.268 200.775 -263.268 200.775 -263.521 200.018 C-265.729 188.975 -262.464 177.793 -256.423 168.541 C-255.961 167.873 -255.498 167.206 -255.021 166.518 C-254.361 165.528 -253.701 164.538 -253.021 163.518 C-263.416 163.023 -263.416 163.023 -274.021 162.518 C-274.021 161.858 -274.021 161.198 -274.021 160.518 C-273.031 160.188 -272.041 159.858 -271.021 159.518 C-271.537 159.105 -272.052 158.693 -272.583 158.268 C-273.058 157.69 -273.532 157.113 -274.021 156.518 C-273.708 154.33 -273.708 154.33 -273.021 152.518 C-271.701 152.188 -270.381 151.858 -269.021 151.518 C-269.351 153.168 -269.681 154.818 -270.021 156.518 C-267.106 157.327 -265.56 157.736 -262.708 156.58 C-262.152 156.229 -261.595 155.879 -261.021 155.518 C-261.351 154.198 -261.681 152.878 -262.021 151.518 C-260.701 151.848 -259.381 152.178 -258.021 152.518 C-258.021 154.498 -258.021 156.478 -258.021 158.518 C-258.681 158.848 -259.341 159.178 -260.021 159.518 C-257.051 159.848 -254.081 160.178 -251.021 160.518 C-250.984 159.421 -250.946 158.324 -250.908 157.193 C-250.842 155.739 -250.776 154.284 -250.708 152.83 C-250.686 152.109 -250.663 151.388 -250.64 150.645 C-250.416 146.175 -249.851 143.173 -247.021 139.518 C-243.717 137.865 -240.026 138.338 -236.392 138.307 C-234.617 138.279 -232.841 138.25 -231.066 138.221 C-228.271 138.18 -225.475 138.143 -222.68 138.116 C-219.979 138.088 -217.28 138.042 -214.58 137.994 C-213.757 137.991 -212.935 137.988 -212.088 137.984 C-206.249 137.862 -201.467 136.557 -196.021 134.518 C-184.289 131.361 -170.767 131.195 -159.472 136.04 C-154.493 137.93 -149.81 137.924 -144.537 137.889 C-142.53 137.906 -140.524 137.924 -138.517 137.941 C-135.381 137.952 -132.245 137.955 -129.109 137.953 C-126.064 137.957 -123.019 137.984 -119.974 138.014 C-119.036 138.005 -118.097 137.997 -117.13 137.989 C-110.651 138.063 -110.651 138.063 -107.451 140.372 C-105.648 143.077 -105.209 145.24 -104.771 148.455 C-104.547 149.985 -104.547 149.985 -104.318 151.545 C-104.05 154.23 -103.961 156.822 -104.021 159.518 C-101.381 159.188 -98.741 158.858 -96.021 158.518 C-96.681 157.528 -97.341 156.538 -98.021 155.518 C-97.833 153.455 -97.833 153.455 -97.021 151.518 C-94.021 149.518 -94.021 149.518 -91.021 149.518 C-91.021 150.508 -91.021 151.498 -91.021 152.518 C-92.011 152.848 -93.001 153.178 -94.021 153.518 C-94.021 154.178 -94.021 154.838 -94.021 155.518 C-91.232 156.912 -89.1 156.774 -86.021 156.518 C-85.361 155.528 -84.701 154.538 -84.021 153.518 C-86.991 152.528 -86.991 152.528 -90.021 151.518 C-90.021 150.858 -90.021 150.198 -90.021 149.518 C-84.271 150.268 -84.271 150.268 -82.021 152.518 C-81.896 155.143 -81.896 155.143 -82.021 157.518 C-79.381 157.848 -76.741 158.178 -74.021 158.518 C-74.212 157.325 -74.403 156.133 -74.599 154.904 C-74.824 153.338 -75.048 151.772 -75.271 150.205 C-75.4 149.419 -75.529 148.634 -75.662 147.824 C-75.955 145.667 -76.162 143.69 -76.021 141.518 C-73.918 138.843 -72.518 138.589 -69.181 138.111 C-67.648 138.065 -67.648 138.065 -66.083 138.018 C-61.431 137.876 -58.91 137.06 -55.021 134.518 C-54.361 134.518 -53.701 134.518 -53.021 134.518 C-52.732 133.796 -52.443 133.074 -52.146 132.33 C-51.775 131.402 -51.403 130.474 -51.021 129.518 C-50.835 128.651 -50.65 127.785 -50.458 126.893 C-48.136 123.055 -44.206 122.577 -40.021 121.518 C-40.021 122.508 -40.021 123.498 -40.021 124.518 C-40.928 124.683 -41.836 124.848 -42.771 125.018 C-46.857 126.903 -47.236 128.524 -48.955 132.479 C-51.125 136.629 -54.607 139.046 -59.021 140.518 C-61.414 140.743 -63.81 140.926 -66.208 141.08 C-67.481 141.164 -68.753 141.248 -70.064 141.334 C-71.04 141.395 -72.016 141.455 -73.021 141.518 C-72.865 142.484 -72.709 143.451 -72.548 144.447 C-71.413 152.044 -70.689 158.869 -72.021 166.518 C-70.778 166.032 -70.778 166.032 -69.509 165.537 C-65.675 164.416 -62.166 164.175 -58.208 164.205 C-57.157 164.207 -57.157 164.207 -56.083 164.209 C-50.488 164.312 -46.132 165.327 -41.021 167.518 C-41.021 168.178 -41.021 168.838 -41.021 169.518 C-40.361 169.518 -39.701 169.518 -39.021 169.518 C-39.185 168.68 -39.348 167.842 -39.517 166.979 C-40.051 163.312 -40.118 159.845 -40.083 156.143 C-40.074 154.897 -40.065 153.652 -40.056 152.369 C-40.039 150.958 -40.039 150.958 -40.021 149.518 C-40.901 149.503 -41.782 149.489 -42.689 149.475 C-53.356 149.037 -53.356 149.037 -56.333 145.955 C-57.169 144.749 -57.169 144.749 -58.021 143.518 C-53.146 144.393 -53.146 144.393 -52.021 145.518 C-49.841 145.914 -47.651 146.261 -45.458 146.58 C-44.261 146.757 -43.063 146.933 -41.83 147.115 C-40.903 147.248 -39.976 147.381 -39.021 147.518 C-37.349 151.724 -36.843 155.234 -36.795 159.685 C-36.707 167.761 -35.913 172.626 -30.021 178.518 C-25.786 184.797 -25.366 191.084 -26.021 198.518 C-27.075 202.582 -28.684 206.013 -31.021 209.518 C-31.321 212.106 -31.53 214.609 -31.646 217.205 C-31.685 217.907 -31.723 218.609 -31.763 219.332 C-31.857 221.06 -31.94 222.789 -32.021 224.518 C-32.681 224.518 -33.341 224.518 -34.021 224.518 C-34.351 223.528 -34.681 222.538 -35.021 221.518 C-36.671 222.508 -38.321 223.498 -40.021 224.518 C-31.771 224.848 -23.521 225.178 -15.021 225.518 C-15.681 221.558 -16.341 217.598 -17.021 213.518 C-18.671 212.858 -20.321 212.198 -22.021 211.518 C-24.633 207.6 -24.117 204.41 -23.958 199.893 C-23.827 192.142 -24.652 186.418 -28.041 179.408 C-32.084 170.867 -33.053 162.035 -33.677 152.674 C-34.087 150.105 -34.468 148.63 -36.021 146.518 C-39.335 145.035 -42.698 143.98 -46.15 142.861 C-49.021 141.518 -49.021 141.518 -49.923 139.361 C-49.972 138.449 -49.972 138.449 -50.021 137.518 C-49.236 137.941 -49.236 137.941 -48.435 138.373 C-44.408 140.282 -40.138 141.579 -35.919 143.006 C-33.021 144.518 -33.021 144.518 -31.685 146.615 C-30.591 151.398 -30.229 156.219 -29.81 161.1 C-29.698 162.269 -29.698 162.269 -29.583 163.463 C-29.523 164.169 -29.462 164.876 -29.4 165.604 C-29.085 167.837 -29.085 167.837 -27.021 170.518 C-26.031 170.188 -25.041 169.858 -24.021 169.518 C-24.021 168.858 -24.021 168.198 -24.021 167.518 C-18.654 165.091 -13.837 164.825 -8.021 165.518 C-3.545 167.715 -0.922 170.501 1.979 174.518 C2.007 173.018 2.026 171.518 2.042 170.018 C2.053 169.182 2.065 168.347 2.077 167.486 C2.05 164.409 2.05 164.409 1.327 161.006 C0.522 154.954 2.12 149.111 3.354 143.205 C3.589 142.026 3.823 140.847 4.065 139.633 C5.778 131.12 5.778 131.12 6.979 127.518 C7.639 127.518 8.299 127.518 8.979 127.518 C8.548 133.582 7.942 139.441 6.479 145.35 C5.384 150.097 4.864 154.482 5.1 159.354 C5.148 160.417 5.197 161.48 5.247 162.576 C5.303 163.671 5.359 164.765 5.417 165.893 C5.469 167.01 5.521 168.128 5.575 169.279 C5.704 172.026 5.839 174.772 5.979 177.518 C6.969 175.538 7.959 173.558 8.979 171.518 C9.639 171.518 10.299 171.518 10.979 171.518 C11.476 196.885 11.476 196.885 7.393 201.189 C2.194 205.094 -2.497 205.699 -8.896 205.705 C-9.604 205.717 -10.311 205.73 -11.041 205.742 C-15.155 205.754 -18.323 205.352 -22.021 203.518 C-21.919 206.465 -21.919 206.465 -21.021 209.518 C-18.626 210.842 -18.626 210.842 -16.021 211.518 C-13.34 214.199 -13.634 215.909 -13.396 219.643 C-13.284 221.286 -13.284 221.286 -13.169 222.963 C-13.12 223.806 -13.071 224.649 -13.021 225.518 C-8.944 225.505 -5.017 225.362 -1.021 224.518 C1.546 221.67 1.546 221.67 2.979 218.518 C5.711 217.517 8.417 217.346 11.307 217.201 C12.106 217.159 12.906 217.117 13.729 217.074 C14.554 217.035 15.379 216.996 16.229 216.955 C17.069 216.912 17.91 216.869 18.776 216.824 C20.843 216.718 22.911 216.618 24.979 216.518 C25.309 215.858 25.639 215.198 25.979 214.518 C23.999 214.518 22.019 214.518 19.979 214.518 C14.016 204.58 13.524 192.922 13.698 181.622 C13.729 179.558 13.739 177.494 13.745 175.43 C13.784 169.686 13.955 164.185 14.979 158.518 C15.656 150.259 13.608 142.785 11.573 134.844 C10.695 131.405 9.84 127.961 8.979 124.518 C-6.201 124.188 -21.381 123.858 -37.021 123.518 C-37.021 122.858 -37.021 122.198 -37.021 121.518 C-30.525 121.442 -24.029 121.389 -17.532 121.353 C-15.322 121.338 -13.111 121.317 -10.901 121.291 C-7.726 121.255 -4.551 121.238 -1.376 121.225 C-0.386 121.209 0.605 121.194 1.626 121.178 C2.546 121.177 3.467 121.177 4.416 121.177 C5.226 121.17 6.037 121.164 6.872 121.157 C9.497 121.606 10.35 122.454 11.979 124.518 C12.763 126.475 12.763 126.475 13.331 128.686 C13.542 129.497 13.753 130.308 13.971 131.145 C14.18 131.99 14.389 132.834 14.604 133.705 C14.821 134.531 15.037 135.356 15.26 136.207 C16.561 141.303 17.436 146.287 17.979 151.518 C20.619 151.518 23.259 151.518 25.979 151.518 C26.639 153.828 27.299 156.138 27.979 158.518 C42.169 158.518 56.359 158.518 70.979 158.518 C70.649 154.558 70.319 150.598 69.979 146.518 C73.939 146.188 77.899 145.858 81.979 145.518 C81.546 144.325 81.113 143.133 80.667 141.904 C80.104 140.338 79.541 138.772 78.979 137.205 C78.693 136.419 78.407 135.634 78.112 134.824 C77.841 134.067 77.57 133.31 77.292 132.529 C77.04 131.833 76.789 131.136 76.53 130.419 C75.979 128.518 75.979 128.518 75.979 125.518 C60.799 125.518 45.619 125.518 29.979 125.518 C28.31 122.179 27.514 119.939 26.795 116.377 C26.59 115.388 26.384 114.4 26.172 113.381 C25.755 111.321 25.338 109.261 24.922 107.201 C23.979 102.671 23.026 98.38 21.256 94.096 C19.927 90.373 20.043 89.191 20.979 85.518 C21.789 85.493 22.6 85.467 23.435 85.442 C26.508 85.345 29.582 85.246 32.655 85.145 C34.613 85.082 36.57 85.021 38.528 84.961 C46.701 84.691 54.832 84.221 62.979 83.518 C62.672 82.636 62.365 81.753 62.049 80.845 C58.979 72.018 58.979 72.018 58.979 67.518 C57.676 67.674 57.676 67.674 56.346 67.834 C54.618 67.956 54.618 67.956 52.854 68.08 C51.149 68.237 51.149 68.237 49.409 68.396 C45.979 67.518 45.979 67.518 44.61 65.511 C44.165 64.699 43.719 63.886 43.26 63.049 C41.124 59.439 41.124 59.439 37.448 57.683 C34.468 57.41 31.595 57.372 28.604 57.455 C27.582 57.448 26.56 57.441 25.506 57.434 C22.994 57.422 20.49 57.451 17.979 57.518 C18.309 59.498 18.639 61.478 18.979 63.518 C20.959 63.518 22.939 63.518 24.979 63.518 C25.309 62.198 25.639 60.878 25.979 59.518 C26.639 59.518 27.299 59.518 27.979 59.518 C27.979 61.498 27.979 63.478 27.979 65.518 C24.742 66.872 22.713 67.668 19.229 66.955 C16.397 65.146 15.785 63.741 14.979 60.518 C15.309 59.858 15.639 59.198 15.979 58.518 C9.049 58.023 9.049 58.023 1.979 57.518 C1.979 59.498 1.979 61.478 1.979 63.518 C0.659 63.848 -0.661 64.178 -2.021 64.518 C-1.865 65.098 -1.709 65.678 -1.548 66.275 C-0.376 70.981 0.412 74.74 -1.021 79.518 C-3.694 80.854 -5.759 80.659 -8.752 80.679 C-9.954 80.688 -11.156 80.698 -12.394 80.708 C-14.352 80.714 -14.352 80.714 -16.349 80.721 C-17.7 80.726 -19.05 80.732 -20.4 80.738 C-23.235 80.748 -26.07 80.754 -28.904 80.758 C-32.527 80.763 -36.149 80.787 -39.772 80.816 C-42.563 80.834 -45.355 80.84 -48.147 80.841 C-50.128 80.846 -52.11 80.864 -54.092 80.883 C-55.306 80.88 -56.521 80.877 -57.772 80.874 C-58.836 80.878 -59.901 80.881 -60.997 80.885 C-64.527 80.456 -66.902 79.182 -70.021 77.518 C-73.285 76.95 -76.511 76.577 -79.806 76.258 C-84.829 75.709 -84.829 75.709 -87.021 73.518 C-87.488 70.952 -87.855 68.476 -88.146 65.893 C-88.435 63.459 -88.723 61.025 -89.021 58.518 C-97.271 58.188 -105.521 57.858 -114.021 57.518 C-114.176 60.859 -114.176 60.859 -114.333 64.268 C-114.697 72.126 -114.697 72.126 -118.021 75.518 C-120.303 76.031 -120.303 76.031 -123.031 76.05 C-124.583 76.075 -124.583 76.075 -126.167 76.101 C-127.301 76.099 -128.436 76.097 -129.605 76.095 C-130.8 76.109 -131.996 76.122 -133.227 76.136 C-136.506 76.169 -139.785 76.184 -143.064 76.191 C-146.494 76.202 -149.923 76.233 -153.353 76.262 C-159.114 76.307 -164.874 76.337 -170.634 76.356 C-177.295 76.38 -183.957 76.424 -190.618 76.48 C-197.023 76.533 -203.429 76.575 -209.835 76.611 C-212.562 76.626 -215.289 76.645 -218.016 76.666 C-221.823 76.693 -225.63 76.707 -229.437 76.716 C-231.139 76.732 -231.139 76.732 -232.875 76.747 C-233.91 76.747 -234.945 76.747 -236.011 76.747 C-237.361 76.753 -237.361 76.753 -238.739 76.759 C-241.021 76.518 -241.021 76.518 -244.021 74.518 C-244.708 71.893 -244.708 71.893 -245.021 69.518 C-244.361 69.518 -243.701 69.518 -243.021 69.518 C-243.021 65.558 -243.021 61.598 -243.021 57.518 C-252.591 57.518 -262.161 57.518 -272.021 57.518 C-272.351 61.478 -272.681 65.438 -273.021 69.518 C-275.021 74.518 -275.021 74.518 -278.021 76.518 C-280.96 76.714 -283.801 76.798 -286.74 76.783 C-287.594 76.785 -288.448 76.787 -289.328 76.789 C-291.134 76.79 -292.94 76.787 -294.745 76.778 C-297.51 76.768 -300.275 76.778 -303.041 76.791 C-304.794 76.79 -306.548 76.787 -308.302 76.783 C-309.13 76.787 -309.959 76.791 -310.812 76.795 C-314.725 76.763 -316.692 76.737 -320.021 74.518 C-320.885 69.317 -321.19 63.434 -318.083 58.955 C-317.403 58.151 -316.722 57.346 -316.021 56.518 C-315.691 55.528 -315.361 54.538 -315.021 53.518 C-313.701 53.518 -312.381 53.518 -311.021 53.518 C-311.021 54.178 -311.021 54.838 -311.021 55.518 C-309.258 55.023 -309.258 55.023 -307.458 54.518 C-296.809 52.186 -286.269 52.938 -276.021 56.518 C-275.526 58.498 -275.526 58.498 -275.021 60.518 C-275.522 60.301 -276.024 60.084 -276.541 59.861 C-282.581 57.639 -288.275 57.187 -294.646 57.143 C-295.445 57.129 -296.244 57.116 -297.067 57.102 C-302.71 57.143 -306.825 58.335 -312.021 60.518 C-313.349 60.873 -314.681 61.212 -316.021 61.518 C-316.021 62.178 -316.021 62.838 -316.021 63.518 C-316.681 63.518 -317.341 63.518 -318.021 63.518 C-316.905 67.379 -315.996 69.813 -313.021 72.518 C-313.021 73.178 -313.021 73.838 -313.021 74.518 C-301.141 74.188 -289.261 73.858 -277.021 73.518 C-275.536 64.608 -275.536 64.608 -274.021 55.518 C-273.031 55.518 -272.041 55.518 -271.021 55.518 C-271.351 41.988 -271.681 28.458 -272.021 14.518 C-274.372 13.342 -275.848 13.362 -278.471 13.312 C-279.392 13.292 -280.312 13.272 -281.261 13.252 C-282.257 13.235 -283.253 13.218 -284.279 13.201 C-285.297 13.18 -286.315 13.16 -287.364 13.138 C-290.625 13.073 -293.885 13.014 -297.146 12.955 C-299.353 12.912 -301.56 12.868 -303.767 12.824 C-309.185 12.717 -314.603 12.615 -320.021 12.518 C-320.021 11.858 -320.021 11.198 -320.021 10.518 C-313.258 10.416 -306.496 10.346 -299.733 10.298 C-297.432 10.278 -295.131 10.25 -292.831 10.216 C-289.524 10.167 -286.218 10.145 -282.912 10.127 C-281.882 10.106 -280.853 10.086 -279.793 10.064 C-272.731 10.062 -272.731 10.062 -269.351 12.23 C-267.767 14.955 -267.62 16.375 -267.849 19.502 C-267.9 20.345 -267.95 21.187 -268.002 22.056 C-268.091 23.116 -268.18 24.176 -268.271 25.268 C-268.518 28.65 -268.766 32.033 -269.021 35.518 C-259.781 35.518 -250.541 35.518 -241.021 35.518 C-241.021 33.208 -241.021 30.898 -241.021 28.518 C-249.931 28.518 -258.841 28.518 -268.021 28.518 C-268.021 27.858 -268.021 27.198 -268.021 26.518 C-264.061 26.023 -264.061 26.023 -260.021 25.518 C-260.351 23.868 -260.681 22.218 -261.021 20.518 C-259.701 20.188 -258.381 19.858 -257.021 19.518 C-257.351 20.838 -257.681 22.158 -258.021 23.518 C-255.711 23.518 -253.401 23.518 -251.021 23.518 C-251.516 21.538 -251.516 21.538 -252.021 19.518 C-251.031 19.518 -250.041 19.518 -249.021 19.518 C-248.396 21.393 -248.396 21.393 -248.021 23.518 C-248.681 24.178 -249.341 24.838 -250.021 25.518 C-247.051 25.848 -244.081 26.178 -241.021 26.518 C-241.044 25.854 -241.067 25.19 -241.091 24.506 C-241.109 23.623 -241.127 22.74 -241.146 21.83 C-241.169 20.96 -241.192 20.09 -241.216 19.193 C-241.021 16.518 -241.021 16.518 -239.021 11.518 C-216.581 11.518 -194.141 11.518 -171.021 11.518 C-171.351 12.178 -171.681 12.838 -172.021 13.518 C-193.471 13.848 -214.921 14.178 -237.021 14.518 C-236.031 21.118 -235.041 27.718 -234.021 34.518 C-233.824 38.151 -233.669 41.543 -233.771 45.143 C-233.776 45.942 -233.781 46.741 -233.787 47.564 C-233.863 53.202 -233.863 53.202 -235.021 55.518 C-234.053 55.51 -234.053 55.51 -233.065 55.502 C-230.134 55.481 -227.202 55.468 -224.271 55.455 C-223.255 55.447 -222.239 55.438 -221.193 55.43 C-220.213 55.426 -219.233 55.423 -218.224 55.42 C-217.323 55.415 -216.423 55.409 -215.495 55.404 C-213.187 55.51 -211.23 55.866 -209.021 56.518 C-208.996 51.446 -208.978 46.374 -208.966 41.302 C-208.961 39.576 -208.954 37.85 -208.946 36.125 C-208.933 33.645 -208.928 31.165 -208.923 28.686 C-208.918 27.914 -208.913 27.142 -208.908 26.346 C-208.907 23.135 -208.998 20.587 -210.021 17.518 C-209.031 17.518 -208.041 17.518 -207.021 17.518 C-205.384 20.791 -205.778 24.424 -205.705 28.025 C-205.684 28.866 -205.663 29.707 -205.642 30.573 C-205.576 33.263 -205.517 35.953 -205.458 38.643 C-205.415 40.464 -205.372 42.286 -205.328 44.107 C-205.22 48.577 -205.119 53.047 -205.021 57.518 C-204.031 57.188 -203.041 56.858 -202.021 56.518 C-202.021 44.308 -202.021 32.098 -202.021 19.518 C-201.031 19.188 -200.041 18.858 -199.021 18.518 C-199.042 19.322 -199.062 20.126 -199.083 20.955 C-199.317 23.451 -199.317 23.451 -198.021 24.518 C-197.807 25.882 -197.651 27.256 -197.521 28.631 C-197.438 29.467 -197.356 30.303 -197.271 31.164 C-197.188 32.044 -197.106 32.924 -197.021 33.83 C-196.857 35.556 -196.69 37.281 -196.521 39.006 C-196.413 40.159 -196.413 40.159 -196.302 41.335 C-196.028 43.461 -195.549 45.443 -195.021 47.518 C-194.801 49.765 -194.616 52.015 -194.458 54.268 C-194.375 55.438 -194.291 56.609 -194.205 57.814 C-194.144 58.706 -194.083 59.599 -194.021 60.518 C-193.487 60.301 -192.954 60.084 -192.404 59.861 C-186.456 57.639 -181.34 57.161 -175.021 57.518 C-174.202 48.945 -173.913 40.437 -173.896 31.83 C-173.891 30.862 -173.887 29.894 -173.882 28.896 C-173.884 27.984 -173.886 27.071 -173.888 26.131 C-173.89 24.906 -173.89 24.906 -173.892 23.656 C-173.94 21.33 -173.94 21.33 -175.021 18.518 C-174.031 18.518 -173.041 18.518 -172.021 18.518 C-170.712 21.136 -170.891 23.084 -170.888 26.014 C-170.887 27.131 -170.886 28.248 -170.884 29.398 C-170.888 30.572 -170.892 31.746 -170.896 32.955 C-170.892 34.094 -170.888 35.233 -170.884 36.406 C-170.906 55.846 -170.906 55.846 -174.021 60.518 C-176.404 61.029 -176.404 61.029 -179.146 61.205 C-180.511 61.304 -180.511 61.304 -181.904 61.404 C-182.952 61.46 -182.952 61.46 -184.021 61.518 C-184.021 62.178 -184.021 62.838 -184.021 63.518 C-186.496 64.508 -186.496 64.508 -189.021 65.518 C-187.764 65.272 -187.764 65.272 -186.482 65.021 C-182.816 64.488 -179.349 64.42 -175.646 64.455 C-173.778 64.469 -173.778 64.469 -171.873 64.482 C-170.461 64.5 -170.461 64.5 -169.021 64.518 C-170.671 64.188 -172.321 63.858 -174.021 63.518 C-174.021 62.858 -174.021 62.198 -174.021 61.518 C-169.346 61.191 -166.854 61.812 -163.021 64.518 C-163.052 62.723 -163.052 62.723 -163.083 60.893 C-163.09 57.338 -162.72 54.012 -162.021 50.518 C-161.031 50.518 -160.041 50.518 -159.021 50.518 C-159.249 52.98 -159.502 55.435 -159.771 57.893 C-159.833 58.591 -159.895 59.29 -159.958 60.01 C-160.193 62.041 -160.193 62.041 -161.021 65.518 C-163.099 66.994 -163.099 66.994 -165.021 67.518 C-164.361 67.951 -163.701 68.384 -163.021 68.83 C-162.361 69.387 -161.701 69.944 -161.021 70.518 C-161.021 71.508 -161.021 72.498 -161.021 73.518 C-160.031 73.518 -159.041 73.518 -158.021 73.518 C-158.681 72.528 -159.341 71.538 -160.021 70.518 C-160.679 65.694 -159.456 63.195 -156.978 59.264 C-155.614 56.775 -155.294 54.315 -155.021 51.518 C-154.361 51.518 -153.701 51.518 -153.021 51.518 C-152.691 58.778 -152.361 66.038 -152.021 73.518 C-150.701 73.518 -149.381 73.518 -148.021 73.518 C-148.021 72.528 -148.021 71.538 -148.021 70.518 C-140.258 67.574 -133.277 67.168 -125.021 67.518 C-125.033 66.782 -125.044 66.045 -125.056 65.287 C-125.065 64.311 -125.074 63.335 -125.083 62.33 C-125.095 61.367 -125.107 60.404 -125.119 59.412 C-125.026 56.662 -124.642 54.193 -124.021 51.518 C-123.361 51.518 -122.701 51.518 -122.021 51.518 C-121.938 56.351 -122.068 60.755 -123.021 65.518 C-122.361 65.518 -121.701 65.518 -121.021 65.518 C-121.021 63.868 -121.021 62.218 -121.021 60.518 C-119.701 60.518 -118.381 60.518 -117.021 60.518 C-117.021 58.868 -117.021 57.218 -117.021 55.518 C-106.791 55.518 -96.561 55.518 -86.021 55.518 C-85.691 59.808 -85.361 64.098 -85.021 68.518 C-84.691 69.838 -84.361 71.158 -84.021 72.518 C-82.449 72.699 -82.449 72.699 -80.845 72.885 C-79.466 73.054 -78.087 73.223 -76.708 73.393 C-76.018 73.471 -75.328 73.55 -74.617 73.631 C-71.065 74.077 -69.051 74.497 -66.021 76.518 C-60.988 76.284 -54.692 74.189 -51.021 70.518 C-50.98 68.518 -50.978 66.517 -51.021 64.518 C-52.412 63.696 -53.809 62.886 -55.208 62.08 C-55.986 61.628 -56.763 61.175 -57.564 60.709 C-61.587 58.758 -65.454 58.391 -69.884 58.42 C-70.771 58.423 -71.657 58.426 -72.57 58.43 C-73.938 58.442 -73.938 58.442 -75.333 58.455 C-76.265 58.46 -77.196 58.464 -78.156 58.469 C-80.444 58.48 -82.733 58.497 -85.021 58.518 C-85.021 57.858 -85.021 57.198 -85.021 56.518 C-82.722 55.368 -81.4 55.389 -78.845 55.385 C-78.017 55.383 -77.189 55.382 -76.335 55.381 C-75.469 55.385 -74.602 55.389 -73.708 55.393 C-72.853 55.389 -71.998 55.385 -71.117 55.381 C-66.958 55.387 -63.075 55.464 -59.021 56.518 C-59.142 55.678 -59.263 54.839 -59.388 53.975 C-60.938 42.852 -62.016 31.701 -63.021 20.518 C-62.361 20.518 -61.701 20.518 -61.021 20.518 C-59.158 27.05 -58.458 33.38 -57.958 40.143 C-57.447 48.896 -57.447 48.896 -56.021 57.518 C-55.361 57.848 -54.701 58.178 -54.021 58.518 C-54.186 57.734 -54.351 56.95 -54.521 56.143 C-55.151 51.578 -55.103 47.117 -55.021 42.518 C-53.701 42.188 -52.381 41.858 -51.021 41.518 C-51.021 42.178 -51.021 42.838 -51.021 43.518 C-51.681 43.518 -52.341 43.518 -53.021 43.518 C-51.811 54.56 -51.811 54.56 -45.833 63.518 C-43.386 66.218 -43.882 67.981 -44.021 71.518 C-43.138 71.471 -42.255 71.425 -41.345 71.377 C-33.377 71.137 -26.077 71.421 -19.021 75.518 C-18.691 76.508 -18.361 77.498 -18.021 78.518 C-13.401 78.188 -8.781 77.858 -4.021 77.518 C-2.688 74.626 -2.688 74.626 -3.958 72.33 C-4.309 71.732 -4.66 71.134 -5.021 70.518 C-5.681 71.178 -6.341 71.838 -7.021 72.518 C-10.146 72.143 -10.146 72.143 -13.021 71.518 C-14.011 68.548 -15.001 65.578 -16.021 62.518 C-16.351 64.828 -16.681 67.138 -17.021 69.518 C-22.552 69.769 -22.552 69.769 -24.771 68.58 C-27.876 67.114 -30.875 66.833 -34.271 66.393 C-35.534 66.225 -36.798 66.057 -38.099 65.885 C-39.545 65.703 -39.545 65.703 -41.021 65.518 C-40.474 62.143 -39.966 60.435 -38.021 57.518 C-36.916 53.495 -36.887 49.611 -36.896 45.455 C-36.892 43.643 -36.892 43.643 -36.888 41.795 C-36.996 39.144 -37.099 36.991 -38.021 34.518 C-39.345 33.833 -40.68 33.169 -42.021 32.518 C-44.423 29.841 -45.88 27.941 -47.021 24.518 C-48.662 23.477 -50.328 22.473 -52.021 21.518 C-52.021 21.188 -52.021 20.858 -52.021 20.518 C-50.041 20.518 -48.061 20.518 -46.021 20.518 C-46.681 18.208 -47.341 15.898 -48.021 13.518 C-53.842 13.493 -59.662 13.475 -65.483 13.463 C-67.465 13.458 -69.447 13.451 -71.428 13.442 C-74.271 13.43 -77.113 13.424 -79.955 13.42 C-80.846 13.415 -81.738 13.41 -82.657 13.404 C-84.778 13.404 -86.9 13.455 -89.021 13.518 C-90.238 14.501 -90.238 14.501 -90.043 16.381 C-89.996 17.189 -89.948 17.997 -89.9 18.83 C-89.851 19.734 -89.803 20.637 -89.753 21.568 C-89.669 23.028 -89.669 23.028 -89.583 24.518 C-89.078 34.197 -88.905 43.827 -89.021 53.518 C-89.681 53.518 -90.341 53.518 -91.021 53.518 C-91.351 51.208 -91.681 48.898 -92.021 46.518 C-92.545 47.384 -92.545 47.384 -93.08 48.268 C-93.535 49.01 -93.99 49.753 -94.458 50.518 C-95.137 51.631 -95.137 51.631 -95.83 52.768 C-96.419 53.634 -96.419 53.634 -97.021 54.518 C-97.351 54.518 -97.681 54.518 -98.021 54.518 C-98.289 50.583 -97.748 48.598 -95.583 45.33 C-92.624 40.364 -92.263 36.25 -92.021 30.518 C-97.301 30.518 -102.581 30.518 -108.021 30.518 C-108.021 29.858 -108.021 29.198 -108.021 28.518 C-102.741 28.518 -97.461 28.518 -92.021 28.518 C-92.351 26.208 -92.681 23.898 -93.021 21.518 C-93.332 17.201 -93.514 14.257 -91.021 10.518 C-89.164 10.13 -89.164 10.13 -86.882 10.114 C-85.599 10.094 -85.599 10.094 -84.291 10.075 C-83.364 10.078 -82.437 10.081 -81.482 10.084 C-80.527 10.079 -79.572 10.074 -78.589 10.068 C-76.563 10.062 -74.537 10.063 -72.511 10.072 C-69.429 10.08 -66.349 10.051 -63.267 10.02 C-61.297 10.018 -59.327 10.018 -57.357 10.021 C-56.442 10.01 -55.527 9.999 -54.585 9.987 C-49.129 10.046 -45.527 10.933 -40.781 13.613 C-38.339 14.868 -36.256 15.001 -33.533 14.986 C-32.579 15.001 -31.626 15.015 -30.644 15.029 C-29.191 15.023 -29.191 15.023 -27.708 15.018 C-25.754 15.01 -23.799 15.02 -21.845 15.049 C-20.563 15.042 -20.563 15.042 -19.254 15.035 C-17.021 15.518 -17.021 15.518 -15.219 17.297 C-14.021 19.518 -14.021 19.518 -14.021 23.518 C-12.041 23.518 -10.061 23.518 -8.021 23.518 C-8.021 24.838 -8.021 26.158 -8.021 27.518 C-3.401 27.188 1.219 26.858 5.979 26.518 C5.649 25.198 5.319 23.878 4.979 22.518 C5.309 21.858 5.639 21.198 5.979 20.518 C6.639 20.518 7.299 20.518 7.979 20.518 C8.082 21.157 8.185 21.796 8.292 22.455 C8.518 23.136 8.745 23.816 8.979 24.518 C9.969 24.848 10.959 25.178 11.979 25.518 C12.639 24.858 13.299 24.198 13.979 23.518 C13.979 22.528 13.979 21.538 13.979 20.518 C14.969 20.518 15.959 20.518 16.979 20.518 C16.979 22.498 16.979 24.478 16.979 26.518 C23.909 27.013 23.909 27.013 30.979 27.518 C30.979 24.548 30.979 21.578 30.979 18.518 C34.609 18.518 38.239 18.518 41.979 18.518 C41.032 13.769 41.032 13.769 38.979 9.518 C36.469 8.243 34.211 7.675 31.452 7.15 C28.979 6.518 28.979 6.518 27.209 5.005 C22.709 2.004 16.716 3.05 11.479 3.08 C10.243 3.06 9.007 3.04 7.733 3.02 C6.546 3.02 5.358 3.021 4.135 3.021 C3.051 3.02 1.966 3.018 0.848 3.016 C-2.14 3.207 -2.14 3.207 -3.575 5.521 C-7.406 8.649 -11.222 8.044 -16.022 7.972 C-17.544 7.973 -17.544 7.973 -19.098 7.973 C-22.453 7.971 -25.807 7.94 -29.162 7.908 C-31.488 7.901 -33.814 7.895 -36.14 7.891 C-42.262 7.876 -48.384 7.836 -54.506 7.792 C-60.753 7.751 -67 7.733 -73.248 7.713 C-85.506 7.67 -97.763 7.602 -110.021 7.518 C-110.021 6.858 -110.021 6.198 -110.021 5.518 C-108.739 5.514 -107.458 5.51 -106.138 5.507 C-94.071 5.47 -82.006 5.412 -69.94 5.334 C-63.736 5.294 -57.533 5.262 -51.329 5.247 C-45.344 5.231 -39.36 5.197 -33.375 5.149 C-31.09 5.134 -28.804 5.127 -26.519 5.126 C-23.322 5.123 -20.127 5.096 -16.93 5.063 C-15.981 5.069 -15.033 5.074 -14.055 5.079 C-8.894 5.09 -8.894 5.09 -4.59 2.516 C-3.021 0.518 -3.021 0.518 0 0 Z " fill="#030303" transform="translate(334.02099609375,127.482421875)"/>
<path d="M0 0 C1.372 -0.007 2.743 -0.018 4.115 -0.032 C18.847 -0.168 18.847 -0.168 26.075 2.176 C26.405 3.166 26.735 4.156 27.075 5.176 C31.128 5.106 35.181 5.018 39.233 4.914 C40.606 4.881 41.979 4.853 43.352 4.83 C51.394 4.692 58.761 4.119 66.497 1.845 C75.244 -0.424 84.221 1.711 92.895 3.395 C97.454 4.278 102.042 4.848 106.657 5.356 C110.046 6.506 111.083 8.235 113.075 11.176 C113.896 14.203 113.896 14.203 114.341 17.543 C114.508 18.759 114.676 19.975 114.848 21.227 C115.006 22.489 115.163 23.751 115.325 25.051 C115.498 26.305 115.671 27.56 115.848 28.852 C117.854 43.892 117.854 43.892 116.138 48.926 C112.094 53.337 106.904 54.06 101.16 54.424 C96.295 54.533 91.432 54.464 86.567 54.391 C84.755 54.373 82.943 54.356 81.131 54.34 C77.34 54.302 73.549 54.252 69.759 54.195 C64.941 54.123 60.124 54.083 55.306 54.051 C51.564 54.023 47.821 53.976 44.079 53.925 C42.305 53.903 40.531 53.886 38.757 53.876 C28.754 53.809 19.844 53.07 10.264 50.078 C5.335 48.684 0.602 48.59 -4.487 48.676 C-5.855 48.653 -5.855 48.653 -7.251 48.629 C-12.53 48.659 -16.787 49.403 -21.757 51.178 C-32.469 54.307 -43.418 53.732 -54.487 53.672 C-56.852 53.672 -59.217 53.674 -61.581 53.677 C-66.51 53.678 -71.438 53.666 -76.367 53.643 C-82.679 53.614 -88.992 53.617 -95.304 53.63 C-100.175 53.637 -105.046 53.629 -109.917 53.617 C-112.246 53.612 -114.574 53.612 -116.903 53.616 C-120.15 53.619 -123.396 53.602 -126.644 53.58 C-128.079 53.587 -128.079 53.587 -129.544 53.594 C-134.713 53.536 -138.508 53.184 -142.925 50.176 C-143.8 47.489 -143.8 47.489 -143.925 45.176 C-143.265 45.176 -142.605 45.176 -141.925 45.176 C-141.925 32.306 -141.925 19.436 -141.925 6.176 C-142.585 5.846 -143.245 5.516 -143.925 5.176 C-143.925 4.186 -143.925 3.196 -143.925 2.176 C-143.438 2.501 -142.951 2.825 -142.45 3.16 C-138.851 4.609 -135.35 4.462 -131.53 4.442 C-130.706 4.444 -129.882 4.446 -129.032 4.448 C-127.283 4.449 -125.534 4.445 -123.785 4.437 C-121.16 4.426 -118.536 4.437 -115.911 4.45 C-106.825 4.456 -98.044 4.048 -89.064 2.629 C-82.722 1.714 -76.844 1.722 -70.609 3.153 C-63.411 4.651 -56.121 4.64 -48.8 4.801 C-47.352 4.84 -45.904 4.879 -44.456 4.918 C-40.946 5.013 -37.436 5.098 -33.925 5.176 C-33.595 4.186 -33.265 3.196 -32.925 2.176 C-24.252 -2.16 -9.65 0.048 0 0 Z " fill="#FFFFFF" transform="translate(157.92495727539063,206.82376098632813)"/>
<path d="M0 0 C0.99 0 1.98 0 3 0 C3.164 1.493 3.164 1.493 3.332 3.016 C4.269 11.344 5.335 19.646 6.562 27.938 C6.689 28.807 6.816 29.677 6.947 30.573 C7.069 31.383 7.191 32.193 7.316 33.027 C7.478 34.106 7.478 34.106 7.643 35.207 C7.937 37.093 7.937 37.093 9 39 C11.322 39.407 13.657 39.744 16 40 C15.67 41.32 15.34 42.64 15 44 C13.02 44.495 13.02 44.495 11 45 C11.934 46.273 12.873 47.543 13.812 48.812 C14.335 49.52 14.857 50.228 15.395 50.957 C17.91 54.158 19.679 55.839 23.375 57.688 C27.737 60.118 30.046 63.454 32 68 C32.627 70.732 32.849 73.185 33 76 C33.99 76 34.98 76 36 76 C35.602 75.234 35.602 75.234 35.195 74.453 C32.506 68.918 31.273 63.796 30.492 57.699 C30.14 55.054 30.14 55.054 29.031 53.062 C22.908 40.815 27.159 25.541 29.51 12.911 C30.231 8.627 30.651 4.329 31 0 C31.99 0 32.98 0 34 0 C34.204 7.712 33.64 15.064 32.5 22.688 C32.357 23.687 32.214 24.687 32.066 25.717 C31.718 28.146 31.362 30.573 31 33 C32.65 33.66 34.3 34.32 36 35 C36 35.66 36 36.32 36 37 C33.03 36.505 33.03 36.505 30 36 C30.311 38.063 30.624 40.125 30.938 42.188 C31.199 43.91 31.199 43.91 31.465 45.668 C31.914 48.463 32.421 51.229 33 54 C34.114 54.093 34.114 54.093 35.25 54.188 C39.08 55.319 39.938 56.564 42 60 C44.024 65.548 45.553 70.17 44 76 C48.842 74.883 51.828 73.904 55 70 C56.551 66.898 56.666 63.533 57.062 60.125 C57.152 59.364 57.241 58.602 57.333 57.818 C58.028 51.525 58.184 45.329 58 39 C58 34.936 58.142 34.397 60.188 31.25 C63.73 25.178 65.498 18.608 67.448 11.899 C68.215 9.26 69.015 6.63 69.812 4 C70.209 2.667 70.606 1.334 71 0 C72.32 0 73.64 0 75 0 C73.329 9.382 70.292 17.921 66.781 26.751 C66.438 27.617 66.095 28.483 65.742 29.375 C65.276 30.531 65.276 30.531 64.8 31.711 C63.322 35.94 62.878 39.851 62.938 44.312 C62.947 45.196 62.956 46.079 62.965 46.988 C62.976 47.652 62.988 48.316 63 49 C63.722 48.814 64.444 48.629 65.188 48.438 C68.144 47.978 70.112 48.345 73 49 C73.42 47.766 73.42 47.766 73.848 46.508 C77.754 35.631 83.528 26.003 92 18 C92.66 18 93.32 18 94 18 C94.99 15.525 94.99 15.525 96 13 C96.66 13 97.32 13 98 13 C98.26 12.438 98.521 11.876 98.789 11.297 C100.127 8.759 101.656 6.547 103.375 4.25 C103.96 3.451 104.545 2.652 105.148 1.828 C107 0 107 0 111 0 C109.615 4.163 107.697 6.708 104.688 9.875 C102.012 12.756 99.473 15.567 97.25 18.812 C95.054 21.924 92.687 24.313 90 27 C81.171 37.009 76.782 46.967 76.938 60.312 C76.942 61.053 76.947 61.794 76.951 62.557 C76.963 64.371 76.981 66.186 77 68 C77.33 67.34 77.66 66.68 78 66 C78.66 66 79.32 66 80 66 C80.66 64.02 81.32 62.04 82 60 C82.66 60 83.32 60 84 60 C84.289 59.381 84.577 58.763 84.875 58.125 C86 56 86 56 88 54 C92.709 53.451 95.676 53.291 99.5 56.25 C102 59 102 59 102 63 C106.997 58.136 106.997 58.136 111.562 52.875 C114.172 49.797 116.843 47.496 120 45 C118.762 43.855 118.762 43.855 117.5 42.688 C115 40 115 40 115 37 C115.66 37 116.32 37 117 37 C117.433 37.516 117.866 38.031 118.312 38.562 C118.869 39.037 119.426 39.511 120 40 C122.655 39.77 122.655 39.77 125 39 C125.981 35.947 125.981 34.053 125 31 C126.32 31.66 127.64 32.32 129 33 C129.639 32.154 130.279 31.309 130.938 30.438 C133.818 26.957 137.195 24.385 140.816 21.711 C143.082 20.014 143.082 20.014 145.152 17.789 C147 16 147 16 149 16 C149.33 15.01 149.66 14.02 150 13 C152.074 11.133 152.074 11.133 154.688 9.125 C157.673 6.813 160.609 4.5 163.438 2 C166 0 166 0 169 0 C167.567 5.017 165.094 7.015 161 10 C160.34 10 159.68 10 159 10 C159 10.66 159 11.32 159 12 C157.307 13.564 155.544 15.053 153.75 16.5 C152.775 17.294 151.801 18.088 150.797 18.906 C148.551 20.587 146.553 21.881 144 23 C144 23.66 144 24.32 144 25 C142.349 26.358 140.652 27.661 138.938 28.938 C133.786 33.015 130.613 37.097 127.438 42.812 C126 45 126 45 123 46 C122.67 46.99 122.34 47.98 122 49 C121.34 49 120.68 49 120 49 C120 49.66 120 50.32 120 51 C118.625 52.625 118.625 52.625 117 54 C116.34 54 115.68 54 115 54 C115 54.66 115 55.32 115 56 C114.34 56 113.68 56 113 56 C112.773 56.557 112.546 57.114 112.312 57.688 C109.721 62.253 105.762 65.211 101.625 68.312 C97.686 71.3 94.589 74.543 91.508 78.398 C90 80 90 80 87 81 C87.07 81.592 87.139 82.183 87.211 82.793 C87.645 89.122 87.645 89.122 85.77 91.676 C83.316 93.729 81.03 94.99 78 96 C77.67 97.65 77.34 99.3 77 101 C77.814 101.364 77.814 101.364 78.645 101.734 C79.36 102.07 80.075 102.405 80.812 102.75 C81.52 103.075 82.228 103.4 82.957 103.734 C85.547 105.339 86.506 106.297 88 109 C88.476 112.276 88.468 115.534 88.469 118.84 C88.48 120.279 88.48 120.279 88.492 121.746 C88.503 123.773 88.505 125.799 88.501 127.826 C88.5 130.923 88.542 134.018 88.586 137.115 C88.591 139.086 88.594 141.057 88.594 143.027 C88.61 143.951 88.627 144.876 88.643 145.828 C88.595 150.337 88.501 152.351 85.67 156.015 C80.266 160.032 74.67 161.569 68.062 162.312 C67.332 162.396 66.601 162.479 65.848 162.565 C54.757 163.619 42.539 162.827 33.33 156.029 C29.993 151.69 30.296 148.143 30.371 142.809 C30.369 141.826 30.366 140.844 30.364 139.832 C30.365 137.76 30.378 135.688 30.403 133.616 C30.437 130.445 30.424 127.275 30.404 124.104 C30.411 122.089 30.421 120.074 30.434 118.059 C30.429 117.111 30.424 116.163 30.419 115.186 C30.536 108.621 30.536 108.621 32.906 105.449 C36.125 103.221 38.024 102 42 102 C41.505 98.535 41.505 98.535 41 95 C40.257 94.918 39.515 94.835 38.75 94.75 C35.17 93.774 34.027 93.154 32 90 C31.665 86.31 31.771 82.695 32 79 C30.859 78.621 30.859 78.621 29.695 78.234 C23.84 75.553 20.467 68.714 18 63 C17.876 62.319 17.752 61.639 17.625 60.938 C16.642 57.891 14.255 56.197 12 54 C12 53.34 12 52.68 12 52 C11.01 51.67 10.02 51.34 9 51 C5.098 45.001 3.942 37.873 2.812 30.938 C2.648 29.996 2.484 29.054 2.314 28.084 C1.021 20.557 -0.15 13.16 -0.062 5.5 C-0.053 4.458 -0.044 3.417 -0.035 2.344 C-0.024 1.57 -0.012 0.797 0 0 Z " fill="#020202" transform="translate(135,15)"/>
<path d="M0 0 C9.667 3.377 20.083 2.674 30.199 2.742 C32.313 2.77 34.426 2.8 36.539 2.832 C41.676 2.905 46.812 2.955 51.949 2.992 C53.02 6.203 52.888 7.596 52.391 10.879 C52.183 12.286 52.183 12.286 51.971 13.721 C51.744 15.185 51.744 15.185 51.512 16.68 C51.364 17.668 51.217 18.656 51.064 19.674 C50.699 22.114 50.327 24.554 49.949 26.992 C49.138 26.897 48.328 26.801 47.492 26.703 C35.755 25.528 26.949 26.523 16.949 32.992 C14.882 13.245 14.882 13.245 18.949 7.992 C17.629 8.322 16.309 8.652 14.949 8.992 C14.975 9.773 15.002 10.555 15.029 11.36 C15.133 14.924 15.198 18.489 15.262 22.055 C15.304 23.284 15.346 24.513 15.389 25.779 C15.491 33.398 15.011 37.261 9.949 42.992 C7.361 51.04 8.453 59.482 11.949 66.992 C12.738 68.361 12.738 68.361 13.543 69.758 C15.192 73.55 15.253 76.254 15.137 80.367 C15.096 82.235 15.096 82.235 15.055 84.141 C15.02 85.082 14.985 86.023 14.949 86.992 C15.609 86.992 16.269 86.992 16.949 86.992 C16.949 82.702 16.949 78.412 16.949 73.992 C18.207 74.776 19.465 75.56 20.762 76.367 C29.606 81.232 39.111 81.898 48.949 79.992 C52.093 78.892 55.024 77.58 57.949 75.992 C57.64 77.451 57.327 78.909 57.012 80.367 C56.838 81.179 56.664 81.991 56.484 82.828 C55.949 84.992 55.949 84.992 54.949 86.992 C55.939 86.992 56.929 86.992 57.949 86.992 C58.07 86.245 58.192 85.497 58.316 84.727 C58.484 83.742 58.652 82.757 58.824 81.742 C59.068 80.28 59.068 80.28 59.316 78.789 C59.898 76.22 60.658 74.271 61.949 71.992 C62.983 75.093 63.083 77.307 63.074 80.555 C63.077 81.525 63.079 82.496 63.082 83.496 C62.949 85.992 62.949 85.992 61.949 87.992 C40.829 87.992 19.709 87.992 -2.051 87.992 C-2.051 78.992 -2.051 78.992 -0.176 75.93 C1.949 73.992 1.949 73.992 3.949 73.992 C3.918 72.936 3.918 72.936 3.886 71.859 C3.277 48.247 3.277 48.247 5.949 39.492 C7.72 33.591 8.334 28.357 8.324 22.242 C8.326 21.478 8.327 20.715 8.328 19.928 C8.244 14.623 8.244 14.623 5.949 9.992 C4.959 9.662 3.969 9.332 2.949 8.992 C3.465 9.59 3.98 10.188 4.512 10.805 C4.986 11.527 5.46 12.248 5.949 12.992 C4.949 15.992 4.949 15.992 3.949 17.992 C3.709 21.465 3.566 24.936 3.426 28.414 C2.924 32.184 1.83 34.713 -0.051 37.992 C-0.51 37.582 -0.969 37.172 -1.441 36.75 C-2.055 36.211 -2.669 35.672 -3.301 35.117 C-3.904 34.584 -4.507 34.05 -5.129 33.5 C-10.673 29.15 -16.205 29.259 -23.051 29.992 C-28.1 32.295 -29.97 34.907 -32.051 39.992 C-31.329 39.25 -30.607 38.507 -29.863 37.742 C-28.471 36.381 -28.471 36.381 -27.051 34.992 C-26.329 34.229 -25.607 33.466 -24.863 32.68 C-20.649 30.151 -16.842 30.252 -12.051 30.992 C-6.466 33.57 -3.441 38.039 -0.051 42.992 C-0.584 42.787 -1.118 42.582 -1.668 42.371 C-8.194 40.011 -15.119 37.905 -21.988 39.805 C-23.716 40.8 -25.392 41.886 -27.051 42.992 C-28.371 42.992 -29.691 42.992 -31.051 42.992 C-31.051 43.652 -31.051 44.312 -31.051 44.992 C-27.366 44.034 -24.429 43.21 -21.113 41.305 C-17.116 39.591 -14.122 39.799 -10.051 40.992 C-1.418 44.625 -1.418 44.625 1.949 47.992 C1.574 50.117 1.574 50.117 0.949 51.992 C0.419 51.834 -0.111 51.675 -0.657 51.512 C-3.579 50.877 -6.359 50.774 -9.348 50.676 C-10.553 50.634 -11.758 50.592 -13 50.549 C-14.881 50.49 -14.881 50.49 -16.801 50.43 C-18.071 50.387 -19.34 50.343 -20.648 50.299 C-23.782 50.193 -26.917 50.091 -30.051 49.992 C-30.381 51.642 -30.711 53.292 -31.051 54.992 C-31.381 54.992 -31.711 54.992 -32.051 54.992 C-32.149 54.314 -32.247 53.636 -32.348 52.938 C-33.123 48.115 -33.947 43.979 -36.176 39.617 C-39.748 31.52 -38.361 21.65 -38.051 12.992 C-37.721 12.992 -37.391 12.992 -37.051 12.992 C-36.571 15.534 -36.092 18.075 -35.613 20.617 C-35.479 21.33 -35.344 22.043 -35.205 22.777 C-34.441 26.842 -33.714 30.909 -33.051 34.992 C-32.391 34.992 -31.731 34.992 -31.051 34.992 C-31.244 34.349 -31.438 33.706 -31.637 33.043 C-37.282 13.454 -37.282 13.454 -35.051 8.992 C-38.169 9.639 -38.169 9.639 -39.051 11.992 C-39.348 15.652 -39.329 19.322 -39.363 22.992 C-39.392 23.996 -39.421 25.001 -39.451 26.035 C-39.504 32.327 -38.655 37.109 -36.012 42.836 C-32.932 49.744 -32.787 58.156 -35.133 65.277 C-36.036 67.419 -36.949 69.558 -37.871 71.691 C-39.775 77.018 -39.95 82.376 -40.051 87.992 C-42.361 87.992 -44.671 87.992 -47.051 87.992 C-46.833 74.633 -46.833 74.633 -41.051 68.992 C-38.868 64.83 -38.666 60.793 -38.676 56.18 C-38.676 55.47 -38.676 54.76 -38.676 54.029 C-38.822 47.334 -40.249 42.794 -45.051 37.992 C-45.398 35.993 -45.398 35.993 -45.543 33.562 C-45.609 32.685 -45.674 31.807 -45.742 30.902 C-45.864 29.054 -45.979 27.205 -46.086 25.355 C-46.441 19.947 -46.441 19.947 -49.121 15.359 C-49.758 14.908 -50.395 14.457 -51.051 13.992 C-50.314 14.988 -50.314 14.988 -49.562 16.004 C-47.7 19.686 -47.713 22.787 -47.863 26.805 C-47.884 27.844 -47.884 27.844 -47.904 28.904 C-47.939 30.601 -47.993 32.296 -48.051 33.992 C-49.155 33.468 -49.155 33.468 -50.281 32.934 C-51.745 32.251 -51.745 32.251 -53.238 31.555 C-54.201 31.102 -55.164 30.65 -56.156 30.184 C-60.872 28.242 -65.037 27.854 -70.113 27.867 C-71.136 27.865 -72.158 27.862 -73.211 27.859 C-75.667 27.974 -77.708 28.284 -80.051 28.992 C-80.531 26.305 -81.01 23.617 -81.488 20.93 C-81.69 19.801 -81.69 19.801 -81.896 18.65 C-82.703 14.107 -83.425 9.564 -84.051 4.992 C-80.153 2.394 -76.846 2.695 -72.324 2.684 C-70.552 2.658 -68.78 2.633 -67.008 2.607 C-64.223 2.579 -61.439 2.555 -58.655 2.536 C-55.961 2.514 -53.268 2.475 -50.574 2.434 C-49.755 2.433 -48.936 2.433 -48.092 2.433 C-42.258 2.335 -37.489 1.04 -32.051 -1.008 C-21.583 -3.951 -10.116 -4.081 0 0 Z " fill="#FFFFFF" transform="translate(171.05078125,265.0078125)"/>
<path d="M0 0 C1.213 0.099 2.426 0.199 3.676 0.301 C6.688 0.688 6.688 0.688 9.688 1.688 C12.043 1.839 14.402 1.936 16.762 2.004 C17.446 2.025 18.129 2.045 18.834 2.067 C21.014 2.132 23.195 2.191 25.375 2.25 C26.855 2.293 28.335 2.337 29.814 2.381 C33.439 2.488 37.063 2.589 40.688 2.688 C40.979 6.561 41.263 10.434 41.542 14.309 C41.683 16.255 41.83 18.202 41.977 20.148 C42.587 28.689 42.807 37.127 42.688 45.688 C43.347 46.017 44.007 46.347 44.688 46.688 C33.138 46.688 21.588 46.688 9.688 46.688 C9.688 46.028 9.688 45.368 9.688 44.688 C9.137 44.587 8.587 44.486 8.02 44.383 C5.148 43.527 2.933 42.118 0.375 40.562 C-3.135 38.633 -5.018 37.707 -9.062 37.438 C-12.744 38.854 -14.96 40.655 -17.734 43.41 C-19.312 44.688 -19.312 44.688 -22.312 44.688 C-22.312 45.347 -22.312 46.007 -22.312 46.688 C-27.669 46.712 -33.026 46.73 -38.383 46.742 C-40.206 46.747 -42.028 46.754 -43.851 46.763 C-46.47 46.775 -49.088 46.781 -51.707 46.785 C-52.931 46.793 -52.931 46.793 -54.179 46.801 C-57.483 46.801 -60.156 46.74 -63.312 45.688 C-63.312 31.498 -63.312 17.308 -63.312 2.688 C-44.812 2.312 -44.812 2.312 -39.084 2.209 C-29.834 2.012 -20.843 1.362 -11.68 0.093 C-7.642 -0.393 -4.045 -0.367 0 0 Z " fill="#F7F7F7" transform="translate(82.3125,211.3125)"/>
<path d="M0 0 C5.399 4.182 9.295 9.897 10.254 16.715 C10.339 26.191 8.718 31.776 2.598 38.945 C0.785 40.383 0.785 40.383 -1.215 40.383 C-1.215 41.043 -1.215 41.703 -1.215 42.383 C-10.256 46.516 -19.425 48.292 -29.188 45.547 C-31.608 44.599 -33.904 43.569 -36.215 42.383 C-36.95 42.125 -37.684 41.867 -38.441 41.602 C-40.215 40.383 -40.215 40.383 -40.824 37.781 C-40.871 36.784 -40.917 35.786 -40.965 34.758 C-41.022 33.755 -41.078 32.752 -41.137 31.719 C-41.175 30.562 -41.175 30.562 -41.215 29.383 C-43.195 29.383 -45.175 29.383 -47.215 29.383 C-49.643 22.369 -49.31 16.506 -47.215 9.383 C-45.78 6.565 -44.37 4.753 -42.215 2.383 C-41.555 2.383 -40.895 2.383 -40.215 2.383 C-40.215 1.723 -40.215 1.063 -40.215 0.383 C-38.301 -0.601 -36.383 -1.579 -34.465 -2.555 C-33.398 -3.1 -32.33 -3.645 -31.23 -4.207 C-20.46 -9.244 -9.572 -6.356 0 0 Z " fill="#FFFFFF" transform="translate(121.21484375,300.6171875)"/>
<path d="M0 0 C6.155 4.31 11.118 9.139 12.492 16.711 C13.008 21.401 13.091 25.385 12 30 C10.35 30 8.7 30 7 30 C6.762 31.013 6.762 31.013 6.52 32.047 C4.613 39.336 4.613 39.336 1.75 42.438 C-6.798 47.295 -14.287 48.052 -24 47 C-27.683 45.769 -30.785 44.161 -34 42 C-34.99 41.34 -35.98 40.68 -37 40 C-37 39.34 -37 38.68 -37 38 C-37.99 37.67 -38.98 37.34 -40 37 C-44.405 30.133 -46.023 24.206 -45 16 C-42.239 7.556 -37.398 2.501 -29.812 -1.812 C-20.162 -5.887 -9.052 -5.261 0 0 Z " fill="#FFFFFF" transform="translate(226,297)"/>
<path d="M0 0 C0.611 0.348 1.222 0.696 1.852 1.055 C2.718 1.447 3.584 1.838 4.477 2.242 C10.331 6.71 14.654 12.738 15.852 20.055 C16.473 25.843 15.495 29.768 12.852 35.055 C12.46 35.859 12.068 36.663 11.664 37.492 C11.396 38.008 11.128 38.523 10.852 39.055 C10.192 39.055 9.532 39.055 8.852 39.055 C8.612 39.659 8.372 40.264 8.125 40.887 C5.692 45.03 1.236 46.5 -3.148 48.055 C-8.272 48.968 -13.157 49.718 -18.148 48.055 C-18.148 48.715 -18.148 49.375 -18.148 50.055 C-8.883 50.539 -0.425 49.472 7.852 45.055 C7.852 47.305 7.852 47.305 6.852 50.055 C3.861 52.112 0.538 54.055 -3.148 54.055 C-3.148 54.715 -3.148 55.375 -3.148 56.055 C-5.252 56.136 -7.356 56.194 -9.461 56.242 C-10.633 56.277 -11.804 56.312 -13.012 56.348 C-16.148 56.055 -16.148 56.055 -17.785 54.79 C-19.359 52.787 -19.708 51.502 -20.098 49 C-20.223 48.22 -20.349 47.44 -20.479 46.637 C-20.596 45.826 -20.714 45.015 -20.836 44.18 C-20.965 43.377 -21.095 42.574 -21.229 41.746 C-21.84 37.818 -22.318 34.043 -22.148 30.055 C-23.253 30.142 -23.253 30.142 -24.379 30.23 C-32.404 30.602 -32.404 30.602 -36.211 27.805 C-39.411 23.262 -40.732 19.998 -40.586 14.43 C-39.631 9.244 -36.233 5.684 -32.18 2.516 C-22.386 -3.926 -10.6 -5.589 0 0 Z " fill="#FFFFFF" transform="translate(290.1484375,296.9453125)"/>
<path d="M0 0 C1.372 -0.007 2.743 -0.018 4.115 -0.032 C18.847 -0.168 18.847 -0.168 26.075 2.176 C26.405 3.166 26.735 4.156 27.075 5.176 C31.128 5.106 35.181 5.018 39.233 4.914 C40.606 4.881 41.979 4.853 43.352 4.83 C51.394 4.692 58.761 4.119 66.497 1.845 C76.818 -0.832 90.105 1.853 100.075 5.176 C100.075 5.836 100.075 6.496 100.075 7.176 C93.075 6.176 93.075 6.176 90.02 5.653 C85.001 5.047 80.063 4.992 75.013 4.989 C74.045 4.976 73.078 4.964 72.081 4.952 C71.139 4.95 70.198 4.948 69.227 4.946 C68.382 4.942 67.536 4.938 66.665 4.933 C63.981 5.08 63.981 5.08 61.213 6.178 C57.557 7.341 54.541 7.403 50.708 7.372 C50.028 7.369 49.349 7.366 48.648 7.363 C46.499 7.352 44.35 7.327 42.2 7.301 C40.734 7.291 39.268 7.282 37.802 7.274 C34.226 7.252 30.651 7.217 27.075 7.176 C27.002 8.955 27.002 8.955 26.927 10.77 C26.452 21.326 25.561 31.715 24.075 42.176 C23.085 42.506 22.095 42.836 21.075 43.176 C21.383 39.28 21.697 35.384 22.013 31.489 C22.143 29.835 22.143 29.835 22.276 28.147 C22.407 26.547 22.407 26.547 22.54 24.915 C22.618 23.935 22.697 22.956 22.778 21.947 C23.061 19.307 23.54 16.775 24.075 14.176 C24.139 12.573 24.161 10.968 24.138 9.364 C24.129 8.574 24.119 7.783 24.11 6.969 C24.099 6.378 24.087 5.786 24.075 5.176 C21.617 3.947 19.979 4.036 17.23 4.015 C16.222 4.005 15.214 3.996 14.175 3.986 C13.083 3.982 11.99 3.977 10.864 3.973 C9.744 3.967 8.625 3.962 7.471 3.956 C5.099 3.946 2.727 3.94 0.354 3.936 C-3.278 3.926 -6.91 3.895 -10.542 3.864 C-12.844 3.857 -15.146 3.852 -17.448 3.848 C-18.537 3.836 -19.626 3.823 -20.747 3.811 C-21.762 3.814 -22.776 3.817 -23.821 3.82 C-24.712 3.816 -25.603 3.813 -26.521 3.809 C-29.405 4.25 -30.671 5.384 -32.925 7.176 C-36.234 7.549 -36.234 7.549 -40.148 7.54 C-40.848 7.54 -41.549 7.541 -42.271 7.541 C-43.755 7.539 -45.238 7.529 -46.722 7.512 C-48.956 7.489 -51.189 7.492 -53.423 7.499 C-60.609 7.483 -67.426 7.079 -74.482 5.592 C-78.462 4.914 -82.295 5.166 -86.3 5.489 C-87.067 5.537 -87.834 5.585 -88.624 5.635 C-91.517 5.833 -94.286 6.025 -97.114 6.694 C-101.067 7.372 -104.942 7.299 -108.944 7.274 C-109.706 7.273 -110.468 7.272 -111.252 7.271 C-114.081 7.266 -116.909 7.252 -119.737 7.239 C-126.069 7.218 -132.401 7.197 -138.925 7.176 C-138.925 21.366 -138.925 35.556 -138.925 50.176 C-118.63 50.671 -118.63 50.671 -97.925 51.176 C-97.925 50.516 -97.925 49.856 -97.925 49.176 C-96.873 48.599 -95.821 48.021 -94.737 47.426 C-92.259 46.043 -90.58 44.849 -88.487 42.864 C-85.501 40.897 -83.619 40.794 -80.116 41.418 C-76.641 42.62 -73.85 44.633 -70.905 46.801 C-68.873 48.35 -68.873 48.35 -65.925 49.176 C-65.925 49.836 -65.925 50.496 -65.925 51.176 C-55.035 50.846 -44.145 50.516 -32.925 50.176 C-33.58 40.095 -33.58 40.095 -34.241 30.015 C-34.706 22.723 -35.04 15.486 -34.925 8.176 C-33.275 8.506 -31.625 8.836 -29.925 9.176 C-29.588 13.551 -29.256 17.926 -28.925 22.301 C-28.83 23.539 -28.734 24.776 -28.636 26.051 C-28.546 27.25 -28.455 28.449 -28.362 29.684 C-28.279 30.784 -28.195 31.884 -28.109 33.017 C-27.931 36.078 -27.893 39.11 -27.925 42.176 C-28.585 42.176 -29.245 42.176 -29.925 42.176 C-29.925 44.816 -29.925 47.456 -29.925 50.176 C-29.207 49.893 -28.488 49.61 -27.748 49.319 C-20.04 46.488 -13.353 45.558 -5.175 45.676 C-4.123 45.661 -3.071 45.645 -1.987 45.629 C4.222 45.659 9.779 46.493 15.747 48.161 C24.674 50.631 33.36 50.844 42.575 50.926 C44.188 50.954 45.802 50.984 47.415 51.016 C51.302 51.089 55.188 51.139 59.075 51.176 C59.075 50.516 59.075 49.856 59.075 49.176 C60.755 47.993 60.755 47.993 62.95 46.739 C65.986 45.003 67.066 44.19 69.075 41.176 C75.678 40.115 79.409 42.082 84.973 45.571 C87.075 47.176 87.075 47.176 89.075 50.176 C85.403 49.832 83.076 48.626 80.075 46.614 C77.792 45.154 76.144 44.195 73.513 43.489 C70.745 44.269 69.561 45.33 67.423 47.219 C66.795 47.77 66.167 48.321 65.521 48.888 C65.044 49.313 64.567 49.738 64.075 50.176 C70.41 50.278 76.745 50.348 83.081 50.396 C85.237 50.416 87.392 50.443 89.547 50.478 C92.645 50.527 95.742 50.549 98.841 50.567 C99.804 50.588 100.768 50.608 101.761 50.629 C107.036 50.686 107.036 50.686 111.652 48.402 C114.581 43.821 114.044 40.559 113.298 35.223 C113.162 34.233 113.162 34.233 113.024 33.222 C112.736 31.123 112.437 29.025 112.138 26.926 C111.94 25.499 111.742 24.072 111.546 22.645 C111.063 19.154 110.572 15.665 110.075 12.176 C107.478 24.806 105.105 37.443 103.075 50.176 C102.085 50.176 101.095 50.176 100.075 50.176 C101.492 40.716 103.06 31.288 104.7 21.864 C104.932 20.526 105.164 19.188 105.395 17.85 C105.954 14.625 106.514 11.401 107.075 8.176 C105.095 7.846 103.115 7.516 101.075 7.176 C101.075 6.516 101.075 5.856 101.075 5.176 C102.313 5.238 103.55 5.3 104.825 5.364 C105.521 5.399 106.217 5.433 106.934 5.469 C110.142 6.529 111.194 8.417 113.075 11.176 C113.896 14.203 113.896 14.203 114.341 17.543 C114.508 18.759 114.676 19.975 114.848 21.227 C115.006 22.489 115.163 23.751 115.325 25.051 C115.498 26.305 115.671 27.56 115.848 28.852 C117.854 43.892 117.854 43.892 116.138 48.926 C112.094 53.337 106.904 54.06 101.16 54.424 C96.295 54.533 91.432 54.464 86.567 54.391 C84.755 54.373 82.943 54.356 81.131 54.34 C77.34 54.302 73.549 54.252 69.759 54.195 C64.941 54.123 60.124 54.083 55.306 54.051 C51.564 54.023 47.821 53.976 44.079 53.925 C42.305 53.903 40.531 53.886 38.757 53.876 C28.754 53.809 19.844 53.07 10.264 50.078 C5.335 48.684 0.602 48.59 -4.487 48.676 C-5.855 48.653 -5.855 48.653 -7.251 48.629 C-12.53 48.659 -16.787 49.403 -21.757 51.178 C-32.469 54.307 -43.418 53.732 -54.487 53.672 C-56.852 53.672 -59.217 53.674 -61.581 53.677 C-66.51 53.678 -71.438 53.666 -76.367 53.643 C-82.679 53.614 -88.992 53.617 -95.304 53.63 C-100.175 53.637 -105.046 53.629 -109.917 53.617 C-112.246 53.612 -114.574 53.612 -116.903 53.616 C-120.15 53.619 -123.396 53.602 -126.644 53.58 C-128.079 53.587 -128.079 53.587 -129.544 53.594 C-134.713 53.536 -138.508 53.184 -142.925 50.176 C-143.8 47.489 -143.8 47.489 -143.925 45.176 C-143.265 45.176 -142.605 45.176 -141.925 45.176 C-141.925 32.306 -141.925 19.436 -141.925 6.176 C-142.585 5.846 -143.245 5.516 -143.925 5.176 C-143.925 4.186 -143.925 3.196 -143.925 2.176 C-143.438 2.501 -142.951 2.825 -142.45 3.16 C-138.851 4.609 -135.35 4.462 -131.53 4.442 C-130.706 4.444 -129.882 4.446 -129.032 4.448 C-127.283 4.449 -125.534 4.445 -123.785 4.437 C-121.16 4.426 -118.536 4.437 -115.911 4.45 C-106.825 4.456 -98.044 4.048 -89.064 2.629 C-82.722 1.714 -76.844 1.722 -70.609 3.153 C-63.411 4.651 -56.121 4.64 -48.8 4.801 C-47.352 4.84 -45.904 4.879 -44.456 4.918 C-40.946 5.013 -37.436 5.098 -33.925 5.176 C-33.595 4.186 -33.265 3.196 -32.925 2.176 C-24.252 -2.16 -9.65 0.048 0 0 Z " fill="#010101" transform="translate(157.92495727539063,206.82376098632813)"/>
<path d="M0 0 C14.85 0 29.7 0 45 0 C44.959 3.548 44.918 7.095 44.875 10.75 C44.827 20.127 45.008 29.023 48 38 C27.21 38.495 27.21 38.495 6 39 C5.34 40.98 4.68 42.96 4 45 C3.34 45 2.68 45 2 45 C-2.653 29.548 -1.911 16.24 0 0 Z " fill="#FFFFFF" transform="translate(361,289)"/>
<path d="M0 0 C0.66 0 1.32 0 2 0 C2.277 1.12 2.554 2.24 2.84 3.395 C3.206 4.867 3.572 6.34 3.938 7.812 C4.12 8.55 4.302 9.288 4.49 10.049 C5.242 13.071 6.015 16.045 7 19 C7.093 20.435 7.13 21.874 7.125 23.312 C7.129 24.42 7.129 24.42 7.133 25.551 C7 28 7 28 6.507 30.728 C5.577 36.735 5.712 42.807 5.688 48.875 C5.684 49.569 5.68 50.263 5.677 50.978 C5.653 61.971 5.974 72.948 11 83 C14.029 83.658 14.029 83.658 17 84 C16.505 85.485 16.505 85.485 16 87 C8.74 87.33 1.48 87.66 -6 88 C-6.66 89.65 -7.32 91.3 -8 93 C-10 95 -10 95 -12.82 95.195 C-13.911 95.172 -15.001 95.149 -16.125 95.125 C-17.221 95.107 -18.316 95.089 -19.445 95.07 C-20.288 95.047 -21.131 95.024 -22 95 C-22.075 94.18 -22.15 93.36 -22.227 92.516 C-22.626 89.241 -23.086 86.172 -24 83 C-26.939 80.595 -26.939 80.595 -30 79 C-30.875 75.75 -30.875 75.75 -31 73 C-30.004 73.238 -30.004 73.238 -28.988 73.48 C-21.587 74.767 -12.046 75.5 -5.125 72.25 C-1.111 69.36 -0.309 67.657 0.59 62.84 C1.062 58.415 1.344 54.006 1.562 49.562 C1.627 48.322 1.627 48.322 1.693 47.057 C1.798 45.038 1.9 43.019 2 41 C1.01 41.495 1.01 41.495 0 42 C-0.731 44.314 -1.401 46.648 -2 49 C-4.51 46.49 -4.316 45.494 -4.484 42.012 C-4.534 41.001 -4.583 39.991 -4.634 38.949 C-4.672 37.873 -4.71 36.797 -4.75 35.688 C-4.792 34.596 -4.833 33.505 -4.876 32.381 C-5.104 24.634 -4.745 17.572 -3 10 C-2.82 9.096 -2.639 8.193 -2.453 7.262 C-1.211 1.211 -1.211 1.211 0 0 Z " fill="#FFFFFF" transform="translate(343,258)"/>
<path d="M0 0 C12.87 0 25.74 0 39 0 C39.33 8.58 39.66 17.16 40 26 C24.16 26.495 24.16 26.495 8 27 C7.67 28.65 7.34 30.3 7 32 C4.688 32.688 4.688 32.688 2 33 C-0.818 30.832 -1.001 29.992 -1.688 26.312 C-2.044 21.799 -2.132 17.276 -2.188 12.75 C-2.201 12.065 -2.214 11.379 -2.227 10.673 C-2.234 6.367 -1.663 4.158 0 0 Z " fill="#FFFFFF" transform="translate(326,157)"/>
<path d="M0 0 C0.99 0.33 1.98 0.66 3 1 C2.917 1.907 2.835 2.815 2.75 3.75 C2.701 7.011 2.701 7.011 4.625 9.094 C7.467 11.375 9.704 11.979 13.25 12.75 C14.866 13.114 14.866 13.114 16.516 13.484 C17.335 13.655 18.155 13.825 19 14 C18.67 14.99 18.34 15.98 18 17 C26.946 16.057 35.476 15.038 44 12 C44.99 11.67 45.98 11.34 47 11 C47.135 13.918 47.234 16.83 47.312 19.75 C47.354 20.575 47.396 21.4 47.439 22.25 C47.562 28.314 47.562 28.314 45.043 31.391 C37.345 35.462 30.598 36.461 21.938 36.312 C20.996 36.316 20.054 36.319 19.084 36.322 C10.508 36.257 2.362 35.362 -4 29 C-4.086 27.657 -4.107 26.31 -4.098 24.965 C-4.094 24.156 -4.091 23.347 -4.088 22.514 C-4.08 21.664 -4.071 20.813 -4.062 19.938 C-4.058 19.083 -4.053 18.229 -4.049 17.35 C-4.037 15.233 -4.019 13.117 -4 11 C1.28 12.65 6.56 14.3 12 16 C12 15.34 12 14.68 12 14 C11.348 13.902 10.695 13.804 10.023 13.703 C4.366 12.735 0.516 11.565 -4 8 C-3.502 4.312 -2.899 2.395 0 0 Z " fill="#FFFFFF" transform="translate(173,121)"/>
<path d="M0 0 C1.32 0.33 2.64 0.66 4 1 C4.33 3.31 4.66 5.62 5 8 C5.33 6.02 5.66 4.04 6 2 C12.27 2 18.54 2 25 2 C24.876 4.743 24.752 7.486 24.625 10.312 C24.591 11.173 24.557 12.033 24.522 12.919 C24.469 13.943 24.469 13.943 24.414 14.988 C24.383 15.685 24.351 16.381 24.319 17.099 C24 19 24 19 22 22 C19.617 22.293 19.617 22.293 16.875 22.188 C15.965 22.16 15.055 22.133 14.117 22.105 C13.419 22.071 12.72 22.036 12 22 C12 22.66 12 23.32 12 24 C15.3 24 18.6 24 22 24 C26.138 32.277 25.19 42.859 25 52 C24.215 51.795 23.43 51.59 22.621 51.379 C17.09 49.96 11.676 48.645 6 48 C6.66 46.35 7.32 44.7 8 43 C9.437 42.973 10.875 42.954 12.312 42.938 C13.113 42.926 13.914 42.914 14.738 42.902 C17 43 17 43 20 44 C20 43.34 20 42.68 20 42 C16.37 41.67 12.74 41.34 9 41 C9.035 39.686 9.07 38.373 9.105 37.02 C9.134 35.284 9.161 33.548 9.188 31.812 C9.213 30.948 9.238 30.084 9.264 29.193 C9.32 24.294 9.24 20.953 6 17 C5.134 16.319 4.267 15.639 3.375 14.938 C0.894 12.914 0.333 12.108 0 9 C0.66 9 1.32 9 2 9 C1.67 8.443 1.34 7.886 1 7.312 C-0.131 4.697 -0.157 2.819 0 0 Z " fill="#FFFFFF" transform="translate(290,143)"/>
<path d="M0 0 C1.321 0.708 2.638 1.426 3.949 2.152 C6.9 3.562 9.638 3.804 12.879 4.074 C13.209 3.414 13.539 2.754 13.879 2.074 C13.764 4.304 13.637 6.533 13.504 8.762 C13.434 10.003 13.365 11.244 13.293 12.523 C12.91 15.803 12.384 18.155 10.879 21.074 C4.258 25.952 -3.177 25.665 -11.121 25.074 C-13.538 24.33 -15.023 23.513 -17.121 22.074 C-17.098 21.301 -17.075 20.527 -17.051 19.73 C-16.942 13.441 -17.27 8.091 -19.121 2.074 C-12.665 -1.939 -7.189 -3.138 0 0 Z " fill="#FFFFFF" transform="translate(329.12109375,305.92578125)"/>
<path d="M0 0 C0.884 0.006 1.768 0.012 2.679 0.019 C8.953 0.169 14.924 0.689 20.188 4.438 C21.945 6.418 21.945 6.418 23.188 8.438 C22.931 11.944 22.169 13.465 20.188 16.438 C17.428 16.775 14.883 16.926 12.117 16.949 C11.321 16.967 10.525 16.985 9.704 17.004 C7.157 17.058 4.61 17.092 2.062 17.125 C0.337 17.158 -1.388 17.193 -3.113 17.229 C-7.346 17.314 -11.579 17.38 -15.812 17.438 C-16.668 14.253 -16.919 11.494 -16.875 8.188 C-16.866 7.295 -16.857 6.403 -16.848 5.484 C-16.836 4.809 -16.824 4.133 -16.812 3.438 C-11.078 0.512 -6.399 -0.075 0 0 Z " fill="#FFFFFF" transform="translate(109.8125,184.5625)"/>
<path d="M0 0 C4.62 1.65 9.24 3.3 14 5 C14 4.34 14 3.68 14 3 C16.64 3.33 19.28 3.66 22 4 C22 4.66 22 5.32 22 6 C32.174 5.149 41.581 4.274 51 0 C51.78 7.953 51.78 7.953 48.812 11.938 C41.656 17.186 33.757 17.199 25.188 17.25 C23.91 17.281 23.91 17.281 22.607 17.312 C14.615 17.361 7.648 15.571 1 11 C0 10 0 10 -0.098 7.715 C-0.065 5.143 -0.033 2.572 0 0 Z " fill="#FFFFFF" transform="translate(169,157)"/>
<path d="M0 0 C3.895 -0.146 7.79 -0.234 11.688 -0.312 C13.342 -0.375 13.342 -0.375 15.029 -0.439 C23.215 -0.563 23.215 -0.563 27.238 2.324 C29.368 5.559 29.661 7.199 29 11 C25.562 15.136 20.753 16.628 15.57 17.328 C9.391 17.598 4.273 16.291 -1 13 C-2.512 9.976 -2.173 7.338 -2 4 C-0.988 1.773 -0.988 1.773 0 0 Z " fill="#FFFFFF" transform="translate(143,317)"/>
<path d="M0 0 C8.91 0 17.82 0 27 0 C24 6 24 6 22 8.375 C17.008 14.927 16.086 21.907 17 30 C17.781 32.849 18.776 35.296 20 38 C16.7 38 13.4 38 10 38 C10.07 36.225 10.07 36.225 10.141 34.414 C10.545 19.849 7.827 13.045 0 0 Z " fill="#FFFFFF" transform="translate(232,289)"/>
<path d="M0 0 C3.96 0 7.92 0 12 0 C11.856 1.284 11.711 2.568 11.562 3.891 C9.884 19.574 8.907 35.305 11 51 C9.02 51 7.04 51 5 51 C4.511 49.67 4.034 48.336 3.562 47 C3.296 46.257 3.029 45.515 2.754 44.75 C0.315 35.855 0.936 26.689 1.039 17.555 C1.081 11.593 0.924 5.893 0 0 Z " fill="#FFFFFF" transform="translate(406,276)"/>
<path d="M0 0 C2.797 -0.341 2.797 -0.341 6.32 -0.293 C7.577 -0.283 8.834 -0.274 10.129 -0.264 C12.107 -0.226 12.107 -0.226 14.125 -0.188 C15.465 -0.172 16.805 -0.159 18.145 -0.146 C21.43 -0.111 24.715 -0.062 28 0 C28 3.3 28 6.6 28 10 C17.44 10 6.88 10 -4 10 C-2 3 -2 3 0 0 Z " fill="#FFFFFF" transform="translate(139,343)"/>
<path d="M0 0 C0.66 0.33 1.32 0.66 2 1 C2 3.97 2 6.94 2 10 C1.34 10 0.68 10 0 10 C-0.33 11.65 -0.66 13.3 -1 15 C-1.66 15 -2.32 15 -3 15 C-3 15.66 -3 16.32 -3 17 C-2.01 17 -1.02 17 0 17 C0 17.99 0 18.98 0 20 C1.618 18.974 1.618 18.974 3 17 C3.376 14.371 3.601 11.949 3.688 9.312 C3.722 8.611 3.756 7.909 3.791 7.186 C3.873 5.458 3.938 3.729 4 2 C4.66 2 5.32 2 6 2 C6.495 10.415 6.495 10.415 7 19 C8.65 19 10.3 19 12 19 C12 18.34 12 17.68 12 17 C12.99 17.33 13.98 17.66 15 18 C14.691 19.891 14.691 19.891 14 22 C8.799 24.972 3.852 25.301 -2.062 25.375 C-2.735 25.389 -3.407 25.403 -4.1 25.417 C-9.153 25.37 -12.619 24.353 -17 22 C-17.938 19.312 -17.938 19.312 -18 17 C-16.542 16.946 -15.084 16.907 -13.625 16.875 C-12.407 16.84 -12.407 16.84 -11.164 16.805 C-9 17 -9 17 -7 19 C-5.68 19 -4.36 19 -3 19 C-4.32 18.34 -5.64 17.68 -7 17 C-5.857 14.714 -4.703 12.443 -3.5 10.188 C-1.904 6.795 -0.941 3.62 0 0 Z " fill="#FFFFFF" transform="translate(196,77)"/>
<path d="M0 0 C3.3 0 6.6 0 10 0 C9.837 1.015 9.674 2.029 9.506 3.074 C9.037 6.714 8.885 10.144 8.902 13.809 C8.906 15.049 8.909 16.29 8.912 17.568 C8.92 18.845 8.929 20.122 8.938 21.438 C8.942 22.741 8.947 24.045 8.951 25.389 C8.963 28.592 8.979 31.796 9 35 C6.36 35 3.72 35 1 35 C0.023 30.927 -0.115 27.132 -0.098 22.949 C-0.096 22.29 -0.095 21.632 -0.093 20.953 C-0.088 18.864 -0.075 16.776 -0.062 14.688 C-0.057 13.265 -0.053 11.842 -0.049 10.42 C-0.038 6.947 -0.021 3.473 0 0 Z " fill="#FFFFFF" transform="translate(367,148)"/>
<path d="M0 0 C0.66 0.33 1.32 0.66 2 1 C2.96 5.282 3.464 9.64 4.025 13.99 C4.309 16.164 4.624 18.332 4.939 20.502 C5.124 21.89 5.307 23.279 5.488 24.668 C5.659 25.929 5.829 27.19 6.005 28.489 C5.999 32.537 5.179 34.62 3 38 C-0.644 40.429 -2.712 40.162 -7 40 C-2.844 11.848 -2.844 11.848 0 0 Z " fill="#FFFFFF" transform="translate(267,218)"/>
<path d="M0 0 C3 0.75 3 0.75 6 2.75 C5.633 8.649 4.205 11.334 0.125 15.562 C-0.759 16.497 -1.644 17.432 -2.555 18.395 C-5 20.75 -5 20.75 -8 22.75 C-10.625 22.5 -10.625 22.5 -13 21.75 C-14.568 18.614 -14.841 16.102 -14 12.75 C-6.145 -0.512 -6.145 -0.512 0 0 Z " fill="#FFFFFF" transform="translate(228,71.25)"/>
<path d="M0 0 C5.28 0 10.56 0 16 0 C18.267 5.667 18.563 9.95 19 16 C14.05 16 9.1 16 4 16 C2.021 10.408 0.856 5.99 0 0 Z " fill="#FFFFFF" transform="translate(362,235)"/>
<path d="M0 0 C1.65 0 3.3 0 5 0 C4.856 0.995 4.711 1.99 4.562 3.016 C2.005 21.746 2.176 39.641 7 58 C5.68 58 4.36 58 3 58 C-4.899 39.689 -2.228 19.235 0 0 Z " fill="#FFFFFF" transform="translate(352,281)"/>
<path d="M0 0 C8.25 0 16.5 0 25 0 C22.352 9.27 22.352 9.27 18 12 C13.427 12.546 9.418 12.329 5 11 C2.418 8.676 1.047 6.3 0 3 C0 2.01 0 1.02 0 0 Z " fill="#FFFFFF" transform="translate(67,166)"/>
<path d="M0 0 C0 3.3 0 6.6 0 10 C-13.2 10 -26.4 10 -40 10 C-40.33 7.03 -40.66 4.06 -41 1 C-39.541 1.477 -38.083 1.957 -36.625 2.438 C-35.813 2.704 -35.001 2.971 -34.164 3.246 C-32 4 -32 4 -30 5 C-18.673 6.205 -9.427 0 0 0 Z " fill="#FFFFFF" transform="translate(123,343)"/>
<path d="M0 0 C-1.003 2.456 -1.003 2.456 -3 5 C-5.839 5.527 -8.104 5.722 -10.949 5.707 C-12.108 5.73 -12.108 5.73 -13.29 5.753 C-15.756 5.796 -18.221 5.805 -20.688 5.812 C-22.36 5.836 -24.033 5.861 -25.705 5.889 C-29.803 5.952 -33.901 5.984 -38 6 C-38.33 7.32 -38.66 8.64 -39 10 C-39.99 7.03 -40.98 4.06 -42 1 C-37.626 0.856 -33.252 0.713 -28.877 0.573 C-27.394 0.525 -25.91 0.476 -24.426 0.427 C-16.282 0.158 -8.15 -0.064 0 0 Z " fill="#FFFFFF" transform="translate(398,214)"/>
<path d="M0 0 C2.104 0.99 2.104 0.99 4.25 2 C12.837 5.43 21.307 4.675 30 2 C30.042 4.333 30.041 6.667 30 9 C29 10 29 10 26.316 10.114 C25.148 10.108 23.981 10.103 22.777 10.098 C21.517 10.094 20.257 10.091 18.959 10.088 C17.618 10.08 16.278 10.071 14.938 10.062 C13.593 10.057 12.249 10.053 10.904 10.049 C7.603 10.037 4.301 10.021 1 10 C0.67 6.7 0.34 3.4 0 0 Z " fill="#FFFFFF" transform="translate(140,331)"/>
<path d="M0 0 C4.254 2.705 7.32 6.597 10.438 10.5 C9.447 10.995 9.447 10.995 8.438 11.5 C6.598 10.758 6.598 10.758 4.5 9.625 C-3.731 5.225 -10.827 6.235 -19.562 8.5 C-19.892 7.84 -20.223 7.18 -20.562 6.5 C-19.633 5.348 -18.693 4.203 -17.75 3.062 C-17.228 2.424 -16.706 1.786 -16.168 1.129 C-11.825 -3.278 -5.156 -2.171 0 0 Z " fill="#FFFFFF" transform="translate(327.5625,296.5)"/>
<path d="M0 0 C1.979 -0.027 3.958 -0.046 5.938 -0.062 C7.04 -0.074 8.142 -0.086 9.277 -0.098 C12 0 12 0 13 1 C13.089 3.739 13.115 6.453 13.098 9.191 C13.096 10.011 13.095 10.831 13.093 11.676 C13.088 14.305 13.075 16.934 13.062 19.562 C13.057 21.34 13.053 23.118 13.049 24.896 C13.038 29.264 13.021 33.632 13 38 C12.34 38 11.68 38 11 38 C10.67 28.76 10.34 19.52 10 10 C9.055 17.06 9.055 17.06 8.115 24.12 C7.996 25.003 7.877 25.887 7.754 26.797 C7.633 27.698 7.513 28.598 7.389 29.526 C7.042 31.733 6.583 33.846 6 36 C5.34 36 4.68 36 4 36 C4.624 28.4 5.5 20.863 6.562 13.312 C6.701 12.313 6.84 11.313 6.982 10.283 C7.319 7.855 7.659 5.427 8 3 C5.36 2.67 2.72 2.34 0 2 C0 1.34 0 0.68 0 0 Z " fill="#000000" transform="translate(16,144)"/>
<path d="M0 0 C0 0.66 0 1.32 0 2 C-10.23 2 -20.46 2 -31 2 C-28.661 -2.678 -28.661 -2.678 -25 -4 C-16.356 -6.377 -7.271 -5.123 0 0 Z " fill="#FFFFFF" transform="translate(171,199)"/>
<path d="M0 0 C0.99 0 1.98 0 3 0 C2.99 0.714 2.979 1.429 2.968 2.165 C2.579 23.26 2.579 23.26 6 44 C5.01 44 4.02 44 3 44 C-0.719 34.783 -1.161 26.756 -1.125 16.875 C-1.129 15.804 -1.133 14.733 -1.137 13.629 C-1.135 12.594 -1.134 11.559 -1.133 10.492 C-1.132 9.557 -1.131 8.623 -1.129 7.66 C-1.001 5.013 -0.588 2.58 0 0 Z " fill="#FFFFFF" transform="translate(320,153)"/>
<path d="M0 0 C0.66 1.65 1.32 3.3 2 5 C0.68 4.67 -0.64 4.34 -2 4 C-2 3.34 -2 2.68 -2 2 C-3.65 2.33 -5.3 2.66 -7 3 C-7.8 6.287 -8.097 7.71 -7 11 C-5.35 10.67 -3.7 10.34 -2 10 C-2.99 9.67 -3.98 9.34 -5 9 C-5 8.01 -5 7.02 -5 6 C-2.69 6 -0.38 6 2 6 C2 8.64 2 11.28 2 14 C-5.833 15.724 -5.833 15.724 -10.125 13.062 C-12.308 9.496 -12.461 7.81 -11.637 3.809 C-11 2 -11 2 -9.375 -0.062 C-6.014 -1.389 -3.474 -0.735 0 0 Z " fill="#000000" transform="translate(386,358)"/>
<path d="M0 0 C0.606 0.205 1.212 0.41 1.836 0.621 C7.903 2.572 13.643 3.608 20 4 C20 3.34 20 2.68 20 2 C22.97 2 25.94 2 29 2 C29 2.66 29 3.32 29 4 C30.048 3.783 31.096 3.567 32.176 3.344 C33.555 3.062 34.934 2.781 36.312 2.5 C37.348 2.285 37.348 2.285 38.404 2.066 C41.325 1.474 44.011 1 47 1 C37.49 8.578 24.603 8.126 13 7 C7.457 5.796 3.215 4.822 0 0 Z " fill="#FFFFFF" transform="translate(171,103)"/>
<path d="M0 0 C0 0.66 0 1.32 0 2 C-2.5 3.625 -2.5 3.625 -5 5 C-4.894 7.452 -4.894 7.452 -4 10 C0.053 12.66 5.305 12.753 10 12 C12.57 10.187 12.57 10.187 14 8 C11.866 4.799 11.316 4.478 7.875 3.312 C6.788 2.935 6.788 2.935 5.68 2.551 C5.125 2.369 4.571 2.187 4 2 C4 1.34 4 0.68 4 0 C9.223 0.41 12.347 1.132 16 5 C17 7.5 17 7.5 17 10 C15.266 13.121 14.44 13.853 11 15 C9.045 15.145 7.085 15.221 5.125 15.25 C3.582 15.289 3.582 15.289 2.008 15.328 C-2.362 14.851 -4.937 13.063 -8 10 C-8.375 6.562 -8.375 6.562 -8 3 C-5.258 -0.036 -4.208 0 0 0 Z " fill="#000000" transform="translate(331,226)"/>
<path d="M0 0 C1.044 -0.019 1.044 -0.019 2.108 -0.039 C5.736 -0.046 7.137 0.112 10.25 2.188 C10.25 2.847 10.25 3.507 10.25 4.188 C-5.59 4.188 -21.43 4.188 -37.75 4.188 C-37.75 3.528 -37.75 2.868 -37.75 2.188 C-34.418 1.458 -31.234 1.022 -27.828 0.871 C-26.425 0.808 -26.425 0.808 -24.993 0.743 C-23.512 0.685 -23.512 0.685 -22 0.625 C-20.476 0.563 -20.476 0.563 -18.921 0.501 C-12.615 0.262 -6.31 0.062 0 0 Z " fill="#000000" transform="translate(166.75,248.8125)"/>
<path d="M0 0 C3.551 0.42 5.586 1.789 8.551 3.762 C9.527 4.4 10.502 5.038 11.508 5.695 C12.244 6.233 12.98 6.77 13.738 7.324 C13.738 7.654 13.738 7.984 13.738 8.324 C5.488 8.324 -2.762 8.324 -11.262 8.324 C-9.612 7.004 -7.962 5.684 -6.262 4.324 C-5.602 3.582 -4.942 2.839 -4.262 2.074 C-2.262 0.324 -2.262 0.324 0 0 Z " fill="#FFFFFF" transform="translate(231.26171875,249.67578125)"/>
<path d="M0 0 C9.57 0 19.14 0 29 0 C23.409 5.591 22.075 6.124 14.75 6.25 C9.48 6.201 5.715 5.358 1 3 C0.67 2.01 0.34 1.02 0 0 Z " fill="#FFFFFF" transform="translate(180,112)"/>
<path d="M0 0 C0.99 0.33 1.98 0.66 3 1 C3.605 2.247 3.605 2.247 4.223 3.52 C5.842 6.373 5.842 6.373 9.434 6.699 C10.768 6.722 12.103 6.717 13.438 6.688 C15.416 6.724 15.416 6.724 17.434 6.762 C21.256 6.335 21.256 6.335 23.473 2.957 C23.977 1.981 24.481 1.005 25 0 C26.32 0.33 27.64 0.66 29 1 C28.67 2.65 28.34 4.3 28 6 C24.38 7.316 21.904 8 18 8 C18 8.66 18 9.32 18 10 C14.337 10.749 11.576 11.238 8 10 C8 9.34 8 8.68 8 8 C6.928 7.897 5.855 7.794 4.75 7.688 C1.142 7.026 -0.364 6.425 -3 4 C-2.67 3.01 -2.34 2.02 -2 1 C-1.34 0.67 -0.68 0.34 0 0 Z " fill="#FFFFFF" transform="translate(181,121)"/>
<path d="M0 0 C0.33 0 0.66 0 1 0 C1.25 7.625 1.25 7.625 -1 11 C-3.706 11.341 -3.706 11.341 -7.102 11.293 C-8.919 11.278 -8.919 11.278 -10.773 11.264 C-12.044 11.239 -13.315 11.213 -14.625 11.188 C-15.904 11.174 -17.183 11.16 -18.5 11.146 C-21.667 11.111 -24.833 11.062 -28 11 C-27 9 -27 9 -23.812 7.875 C-17.645 6.432 -11.29 6.841 -5 7 C-4.67 6.34 -4.34 5.68 -4 5 C-3.01 5 -2.02 5 -1 5 C-0.67 3.35 -0.34 1.7 0 0 Z " fill="#FFFFFF" transform="translate(216,190)"/>
<path d="M0 0 C2.975 0.914 5.31 2.181 7.957 3.812 C8.84 4.349 9.723 4.885 10.633 5.438 C11.297 5.891 11.961 6.345 12.645 6.812 C12.645 7.142 12.645 7.473 12.645 7.812 C4.725 7.812 -3.195 7.812 -11.355 7.812 C-10.035 6.493 -8.715 5.173 -7.355 3.812 C-6.695 3.812 -6.035 3.812 -5.355 3.812 C-5.355 3.153 -5.355 2.493 -5.355 1.812 C-2.355 -0.188 -2.355 -0.188 0 0 Z " fill="#FFFFFF" transform="translate(75.35546875,250.1875)"/>
<path d="M0 0 C8.917 -0.3 16.672 -0.496 24 5 C16.08 5 8.16 5 0 5 C0 3.35 0 1.7 0 0 Z " fill="#FFFFFF" transform="translate(290,201)"/>
<path d="M0 0 C2.333 -0.042 4.667 -0.041 7 0 C8.722 1.722 8.491 4.025 8.75 6.375 C8.869 7.352 8.987 8.329 9.109 9.336 C9 12 9 12 7.746 13.871 C4.856 15.74 2.219 14.668 -1 14 C-1 12.35 -1 10.7 -1 9 C-0.34 9 0.32 9 1 9 C1.33 9.66 1.66 10.32 2 11 C2.99 11 3.98 11 5 11 C5 10.34 5 9.68 5 9 C4.01 8.67 3.02 8.34 2 8 C2 7.34 2 6.68 2 6 C2.66 5.67 3.32 5.34 4 5 C3.67 4.34 3.34 3.68 3 3 C1.02 3.99 1.02 3.99 -1 5 C-0.67 3.35 -0.34 1.7 0 0 Z " fill="#000000" transform="translate(420,358)"/>
<path d="M0 0 C2.31 0 4.62 0 7 0 C7 0.99 7 1.98 7 3 C5.35 3 3.7 3 2 3 C2 3.66 2 4.32 2 5 C4.97 5.495 4.97 5.495 8 6 C8.359 11.382 8.359 11.382 6.875 13.938 C4.073 15.525 2.03 14.741 -1 14 C-1.33 12.68 -1.66 11.36 -2 10 C0.386 10.576 2.667 11.222 5 12 C4.67 10.68 4.34 9.36 4 8 C2.02 8 0.04 8 -2 8 C-1.34 5.36 -0.68 2.72 0 0 Z " fill="#000000" transform="translate(409,358)"/>
<path d="M0 0 C0.99 0 1.98 0 3 0 C2.814 0.639 2.629 1.279 2.438 1.938 C2.221 2.958 2.221 2.958 2 4 C2.33 4.33 2.66 4.66 3 5 C5.339 4.713 7.674 4.381 10 4 C9.67 2.68 9.34 1.36 9 0 C10.32 0.33 11.64 0.66 13 1 C12.625 3.938 12.625 3.938 12 7 C11.01 7.495 11.01 7.495 10 8 C9.348 10.025 9.348 10.025 9 12 C6.688 12.625 6.688 12.625 4 13 C3.01 12.34 2.02 11.68 1 11 C1.33 9.68 1.66 8.36 2 7 C1.34 7 0.68 7 0 7 C-0.381 5.009 -0.713 3.007 -1 1 C-0.67 0.67 -0.34 0.34 0 0 Z " fill="#050505" transform="translate(71,187)"/>
<path d="M0 0 C5.75 -0.125 5.75 -0.125 8 1 C8 5.29 8 9.58 8 14 C1.531 15.343 1.531 15.343 -0.938 13.75 C-2 12 -2 12 -2 9 C-1.01 9 -0.02 9 1 9 C1 9.99 1 10.98 1 12 C2.32 11.34 3.64 10.68 5 10 C5 9.34 5 8.68 5 8 C4.01 8 3.02 8 2 8 C2 7.34 2 6.68 2 6 C2.66 5.67 3.32 5.34 4 5 C4 4.34 4 3.68 4 3 C3.34 3 2.68 3 2 3 C1.67 3.66 1.34 4.32 1 5 C0.34 5 -0.32 5 -1 5 C-0.67 3.35 -0.34 1.7 0 0 Z " fill="#000000" transform="translate(397,358)"/>
<path d="M0 0 C0.66 0 1.32 0 2 0 C1.343 7.73 0.53 15.428 -0.438 23.125 C-0.559 24.164 -0.681 25.203 -0.807 26.273 C-0.993 27.751 -0.993 27.751 -1.184 29.258 C-1.292 30.146 -1.401 31.034 -1.513 31.95 C-1.754 32.965 -1.754 32.965 -2 34 C-2.99 34.495 -2.99 34.495 -4 35 C-4.221 27.365 -3.555 20.003 -2.562 12.438 C-2.428 11.346 -2.293 10.255 -2.154 9.131 C-1.133 1.133 -1.133 1.133 0 0 Z " fill="#000000" transform="translate(178,213)"/>
<path d="M0 0 C0.33 0 0.66 0 1 0 C2.979 11.307 4.716 23.678 2 35 C1.34 35 0.68 35 0 35 C0 23.45 0 11.9 0 0 Z " fill="#FFFFFF" transform="translate(95,149)"/>
<path d="M0 0 C4.189 1.742 5.376 3.762 7.25 7.758 C8.432 11.291 8.264 14.302 8 18 C7.34 18.33 6.68 18.66 6 19 C6 18.01 6 17.02 6 16 C5.34 16 4.68 16 4 16 C3.326 14.086 2.661 12.169 2 10.25 C1.629 9.183 1.257 8.115 0.875 7.016 C0 4 0 4 0 0 Z " fill="#FFFFFF" transform="translate(169,72)"/>
<path d="M0 0 C0.66 0 1.32 0 2 0 C2.181 11.03 1.615 21.991 1 33 C-0.485 33.495 -0.485 33.495 -2 34 C-1.859 30.396 -1.711 26.792 -1.562 23.188 C-1.523 22.183 -1.484 21.178 -1.443 20.143 C-1.162 13.404 -0.675 6.71 0 0 Z " fill="#000000" transform="translate(211,221)"/>
<path d="M0 0 C2.915 1.074 4.778 1.778 7 4 C7.188 6.375 7.188 6.375 6 9 C0.247 12.931 -6.194 13.716 -13 14 C-13 13.67 -13 13.34 -13 13 C-12.313 12.818 -11.626 12.636 -10.918 12.449 C-9.566 12.072 -9.566 12.072 -8.188 11.688 C-6.848 11.322 -6.848 11.322 -5.48 10.949 C-2.89 9.958 -1.629 9.229 0 7 C0.25 3.375 0.25 3.375 0 0 Z " fill="#FFFFFF" transform="translate(213,121)"/>
<path d="M0 0 C3.3 0 6.6 0 10 0 C9.122 3.513 8.073 6.063 6.438 9.25 C5.982 10.142 5.527 11.034 5.059 11.953 C4.709 12.629 4.36 13.304 4 14 C3.01 14 2.02 14 1 14 C2.75 6.375 2.75 6.375 5 3 C3.35 3 1.7 3 0 3 C0 2.01 0 1.02 0 0 Z " fill="#000000" transform="translate(431,358)"/>
<path d="M0 0 C0 0.66 0 1.32 0 2 C1.65 2.33 3.3 2.66 5 3 C5 3.99 5 4.98 5 6 C3.35 6.33 1.7 6.66 0 7 C0 7.99 0 8.98 0 10 C-0.66 10 -1.32 10 -2 10 C-2 9.34 -2 8.68 -2 8 C-3.32 8 -4.64 8 -6 8 C-5.67 5.69 -5.34 3.38 -5 1 C-2 0 -2 0 0 0 Z " fill="#FFFFFF" transform="translate(201,67)"/>
<path d="M0 0 C0.66 0 1.32 0 2 0 C1.34 1.65 0.68 3.3 0 5 C1.279 5.186 2.557 5.371 3.875 5.562 C4.954 5.719 4.954 5.719 6.055 5.879 C8.081 6.168 8.081 6.168 10 5 C10.33 4.01 10.66 3.02 11 2 C10.34 2 9.68 2 9 2 C9 1.34 9 0.68 9 0 C10.32 0.33 11.64 0.66 13 1 C13.188 3.875 13.188 3.875 13 7 C9.319 9.454 6.277 9.594 2 9 C-0.5 7.5 -0.5 7.5 -2 6 C-1.125 1.125 -1.125 1.125 0 0 Z " fill="#000000" transform="translate(60,336)"/>
<path d="M0 0 C0.99 0 1.98 0 3 0 C2.67 1.98 2.34 3.96 2 6 C4.64 6 7.28 6 10 6 C9.67 4.02 9.34 2.04 9 0 C10.32 0.33 11.64 0.66 13 1 C13.125 3.375 13.125 3.375 13 6 C10.49 8.51 9.532 8.297 6.062 8.312 C4.75 8.338 4.75 8.338 3.41 8.363 C0.598 7.939 -0.255 7.183 -2 5 C-1.34 3.35 -0.68 1.7 0 0 Z " fill="#000000" transform="translate(228,186)"/>
<path d="M0 0 C0.99 0 1.98 0 3 0 C2.34 4.95 1.68 9.9 1 15 C-4 16 -4 16 -7 14 C-8.655 13.615 -10.322 13.272 -12 13 C-12 12.34 -12 11.68 -12 11 C-7.325 10.674 -4.833 11.294 -1 14 C-1.021 12.804 -1.041 11.607 -1.062 10.375 C-1.069 6.82 -0.699 3.494 0 0 Z " fill="#000000" transform="translate(172,178)"/>
<path d="M0 0 C0.99 0 1.98 0 3 0 C3 0.66 3 1.32 3 2 C2.34 2 1.68 2 1 2 C1.99 3.485 1.99 3.485 3 5 C4.977 5.363 4.977 5.363 7.125 5.188 C8.404 5.126 9.683 5.064 11 5 C11 3.35 11 1.7 11 0 C11.99 0 12.98 0 14 0 C14.688 2.312 14.688 2.312 15 5 C13.832 6.648 13.832 6.648 12 8 C9.625 8.363 9.625 8.363 7 8.312 C6.134 8.309 5.268 8.305 4.375 8.301 C2 8 2 8 -1 6 C-1.25 3.438 -1.25 3.438 -1 1 C-0.67 0.67 -0.34 0.34 0 0 Z " fill="#000000" transform="translate(244,334)"/>
<path d="M0 0 C1.32 0 2.64 0 4 0 C4.66 2.31 5.32 4.62 6 7 C11.94 8.485 11.94 8.485 18 10 C18 10.33 18 10.66 18 11 C11.877 11.532 6.242 10.344 1 7 C-0.355 4.48 -0.355 4.48 -1 2 C-0.67 1.34 -0.34 0.68 0 0 Z " fill="#FFFFFF" transform="translate(171,94)"/>
<path d="M0 0 C0.99 0 1.98 0 3 0 C3 1.65 3 3.3 3 5 C6.583 6.002 6.583 6.002 10 5 C10 3.68 10 2.36 10 1 C10.99 1.33 11.98 1.66 13 2 C12.625 4.938 12.625 4.938 12 8 C8.981 9.509 6.327 9.175 3 9 C2.01 8.34 1.02 7.68 0 7 C-0.188 3.375 -0.188 3.375 0 0 Z " fill="#000000" transform="translate(389,332)"/>
<path d="M0 0 C0.33 0 0.66 0 1 0 C1.863 4.467 2.135 8.702 2.125 13.25 C2.128 14.472 2.13 15.694 2.133 16.953 C2 20 2 20 1 22 C0.01 21.67 -0.98 21.34 -2 21 C-1.01 10.605 -1.01 10.605 0 0 Z " fill="#FFFFFF" transform="translate(225,272)"/>
<path d="M0 0 C0.66 0 1.32 0 2 0 C2 1.98 2 3.96 2 6 C4.31 6 6.62 6 9 6 C9.33 4.35 9.66 2.7 10 1 C10.99 1.33 11.98 1.66 13 2 C13.188 4.375 13.188 4.375 13 7 C9.279 9.48 7.402 9.463 3 9 C0.5 7.312 0.5 7.312 -1 5 C-0.75 2.25 -0.75 2.25 0 0 Z " fill="#000000" transform="translate(374,276)"/>
<path d="M0 0 C4.29 0 8.58 0 13 0 C13 1.32 13 2.64 13 4 C8.71 4 4.42 4 0 4 C0 2.68 0 1.36 0 0 Z " fill="#FFFFFF" transform="translate(73,179)"/>
<path d="M0 0 C6.278 7.848 6.278 7.848 6 13 C4.02 13 2.04 13 0 13 C0 8.71 0 4.42 0 0 Z " fill="#FFFFFF" transform="translate(65,170)"/>
<path d="M0 0 C0.33 0 0.66 0 1 0 C2.608 8.846 2.608 8.846 0.188 13.438 C-0.534 14.283 -1.256 15.129 -2 16 C-2.66 16.99 -3.32 17.98 -4 19 C-4.473 11.674 -3.099 6.626 0 0 Z " fill="#FFFFFF" transform="translate(137,331)"/>
<path d="M0 0 C0.66 0 1.32 0 2 0 C3.367 2.264 4.718 4.535 6.062 6.812 C6.452 7.455 6.842 8.098 7.244 8.76 C8.241 10.463 9.128 12.229 10 14 C9.67 14.99 9.34 15.98 9 17 C8.697 16.457 8.394 15.915 8.082 15.355 C5.567 11.06 3.685 8.142 -1 6 C-0.67 4.02 -0.34 2.04 0 0 Z " fill="#FFFFFF" transform="translate(229,291)"/>
<path d="M0 0 C0.33 0 0.66 0 1 0 C1.33 1.65 1.66 3.3 2 5 C3.98 5 5.96 5 8 5 C8.33 3.68 8.66 2.36 9 1 C9.66 1 10.32 1 11 1 C11 2.98 11 4.96 11 7 C7.763 8.355 5.734 9.15 2.25 8.438 C-0.55 6.649 -1.091 5.139 -2 2 C-1.34 1.34 -0.68 0.68 0 0 Z " fill="#000000" transform="translate(351,186)"/>
<path d="M0 0 C0.763 0.062 1.526 0.124 2.312 0.188 C1.139 3.709 -0.241 4.59 -3.434 6.336 C-7.689 7.944 -12.177 8.024 -16.688 8.188 C-14.189 6.908 -11.737 5.804 -9.125 4.75 C-5.769 3.479 -5.769 3.479 -4.062 1.5 C-2.688 0.188 -2.688 0.188 0 0 Z " fill="#FFFFFF" transform="translate(216.6875,96.8125)"/>
<path d="M0 0 C3.812 1.709 6.297 3.324 7.949 7.262 C8.315 8.462 8.315 8.462 8.688 9.688 C9.065 10.9 9.065 10.9 9.449 12.137 C9.631 12.752 9.813 13.366 10 14 C5.731 12.577 4.243 9.78 2 6 C0.688 2.562 0.688 2.562 0 0 Z " fill="#FFFFFF" transform="translate(156,75)"/>
<path d="M0 0 C0.33 0 0.66 0 1 0 C1.339 1.728 1.671 3.458 2 5.188 C2.186 6.15 2.371 7.113 2.562 8.105 C2.969 10.793 3.079 13.288 3 16 C2.01 16.33 1.02 16.66 0 17 C-1.223 13.33 -0.88 10.66 -0.562 6.812 C-0.461 5.54 -0.359 4.268 -0.254 2.957 C-0.17 1.981 -0.086 1.005 0 0 Z " fill="#FFFFFF" transform="translate(86,278)"/>
<path d="M0 0 C0.66 0 1.32 0 2 0 C2.33 1.65 2.66 3.3 3 5 C-0.086 7.269 -1.422 8.055 -5.312 7.688 C-6.199 7.461 -7.086 7.234 -8 7 C-8.33 6.01 -8.66 5.02 -9 4 C-6.36 4 -3.72 4 -1 4 C-0.67 2.68 -0.34 1.36 0 0 Z " fill="#000000" transform="translate(233,147)"/>
<path d="M0 0 C0.99 0.33 1.98 0.66 3 1 C3 6.28 3 11.56 3 17 C2.01 17 1.02 17 0 17 C0 11.39 0 5.78 0 0 Z " fill="#FFFFFF" transform="translate(205,75)"/>
<path d="M0 0 C0.33 0 0.66 0 1 0 C1 3.3 1 6.6 1 10 C-0.65 10 -2.3 10 -4 10 C-4.407 6.437 -4.144 5.209 -2.062 2.188 C-1.382 1.466 -0.701 0.744 0 0 Z " fill="#FFFFFF" transform="translate(92,173)"/>
<path d="M0 0 C0.33 0 0.66 0 1 0 C1.054 2.563 1.094 5.124 1.125 7.688 C1.142 8.409 1.159 9.13 1.176 9.873 C1.214 14.049 0.879 17.249 -1 21 C-1.66 21 -2.32 21 -3 21 C-3.66 19.68 -4.32 18.36 -5 17 C-4.01 16.67 -3.02 16.34 -2 16 C-1.34 10.72 -0.68 5.44 0 0 Z " fill="#FFFFFF" transform="translate(176,286)"/>
<path d="M0 0 C1.65 0 3.3 0 5 0 C5.33 1.65 5.66 3.3 6 5 C2.99 5.934 2.133 6.044 -1 5 C-0.67 3.35 -0.34 1.7 0 0 Z " fill="#151515" transform="translate(240,270)"/>
<path d="M0 0 C0.33 0 0.66 0 1 0 C1.982 4.053 2.082 7.839 2 12 C-0.062 10.375 -0.062 10.375 -2 8 C-1.816 4.937 -1.37 2.739 0 0 Z " fill="#FFFFFF" transform="translate(178,189)"/>
<path d="M0 0 C0.66 0 1.32 0 2 0 C2 0.66 2 1.32 2 2 C2.99 2 3.98 2 5 2 C5 1.34 5 0.68 5 0 C5.66 0 6.32 0 7 0 C7 1.32 7 2.64 7 4 C4.688 4.688 4.688 4.688 2 5 C0.188 3.562 0.188 3.562 -1 2 C-0.67 1.34 -0.34 0.68 0 0 Z " fill="#000000" transform="translate(66,272)"/>
<path d="M0 0 C0.66 0 1.32 0 2 0 C2 0.66 2 1.32 2 2 C2.66 2 3.32 2 4 2 C4 1.34 4 0.68 4 0 C4.66 0 5.32 0 6 0 C5.67 1.65 5.34 3.3 5 5 C3.35 4.67 1.7 4.34 0 4 C0 2.68 0 1.36 0 0 Z " fill="#000000" transform="translate(375,270)"/>
<path d="M0 0 C1.65 0 3.3 0 5 0 C5.33 1.32 5.66 2.64 6 4 C1.25 5.125 1.25 5.125 -1 4 C-0.67 2.68 -0.34 1.36 0 0 Z " fill="#000000" transform="translate(232,195)"/>
<path d="M0 0 C0.33 0 0.66 0 1 0 C0.143 8.571 0.143 8.571 -2 12 C-3.65 12 -5.3 12 -7 12 C-6.216 11.319 -5.433 10.639 -4.625 9.938 C-1.541 6.487 -0.956 4.434 0 0 Z " fill="#FFFFFF" transform="translate(287,194)"/>
<path d="M0 0 C0.66 0 1.32 0 2 0 C2.66 0.66 3.32 1.32 4 2 C4.99 1.67 5.98 1.34 7 1 C7 1.99 7 2.98 7 4 C2.25 5.125 2.25 5.125 0 4 C0 2.68 0 1.36 0 0 Z " fill="#000000" transform="translate(354,195)"/>
<path d="M0 0 C0.66 0.33 1.32 0.66 2 1 C1.67 2.98 1.34 4.96 1 7 C-0.32 6.67 -1.64 6.34 -3 6 C-2.01 4.02 -1.02 2.04 0 0 Z " fill="#FFFFFF" transform="translate(136,194)"/>
<path d="M0 0 C1.65 0 3.3 0 5 0 C5.33 1.65 5.66 3.3 6 5 C5.34 5 4.68 5 4 5 C4 4.34 4 3.68 4 3 C2.68 3 1.36 3 0 3 C0 2.01 0 1.02 0 0 Z " fill="#000000" transform="translate(217,176)"/>
</svg>
