<?xml version="1.0" encoding="UTF-8"?>
<!-- Generator: visioncortex VTracer 0.6.4 -->
<svg version="1.1" xmlns="http://www.w3.org/2000/svg" width="351" height="623">
<path d="M0 0 C115.83 0 231.66 0 351 0 C351 205.59 351 411.18 351 623 C235.17 623 119.34 623 0 623 C0 417.41 0 211.82 0 0 Z " fill="#FDFDFD" transform="translate(0,0)"/>
<path d="M0 0 C0.99 0 1.98 0 3 0 C1.403 5.036 -1.627 8.754 -4.812 12.875 C-5.861 14.247 -6.91 15.619 -7.957 16.992 C-8.722 17.994 -8.722 17.994 -9.502 19.017 C-12.963 23.599 -16.191 28.207 -18.957 33.242 C-20.427 35.72 -22.168 37.966 -23.949 40.227 C-25.254 42.428 -25.545 44.497 -26 47 C-25.434 47.018 -24.867 47.037 -24.283 47.056 C56.056 49.693 56.056 49.693 89 60 C89 60.66 89 61.32 89 62 C87.884 61.758 86.767 61.515 85.617 61.266 C81.337 60.344 77.051 59.45 72.762 58.569 C70.998 58.206 69.235 57.838 67.473 57.466 C43.422 52.437 18.557 50.246 -6 51 C-5.277 51.175 -4.555 51.351 -3.811 51.531 C4.807 53.632 13.409 55.791 22 58 C23.039 58.267 24.079 58.534 25.15 58.809 C38.279 62.246 50.89 66.711 63.5 71.688 C64.215 71.97 64.93 72.252 65.667 72.542 C81.53 78.83 81.53 78.83 87 82 C87.33 82.99 87.66 83.98 88 85 C86.723 84.969 85.445 84.938 84.129 84.906 C78.955 84.906 74.026 85.624 68.938 86.5 C68.072 86.643 67.206 86.786 66.314 86.934 C64.209 87.283 62.104 87.64 60 88 C61.352 92.268 62.976 96.295 64.812 100.375 C69.405 110.844 72.796 121.781 75 133 C77.894 129.521 79.704 125.651 81.562 121.562 C81.866 120.907 82.17 120.252 82.482 119.576 C84.089 116.087 85.613 112.582 87 109 C89.148 115.445 84.097 122.945 81.213 128.774 C79.828 131.526 78.421 134.266 77 137 C80.96 138.65 84.92 140.3 89 142 C83.861 143.285 82.622 142.222 78 140 C77.319 140.743 77.319 140.743 76.625 141.5 C75 143 75 143 73 143 C73 143.66 73 144.32 73 145 C71.637 146.375 71.637 146.375 69.688 148 C66.237 150.926 62.885 153.93 59.562 157 C55.546 160.672 51.445 164.097 47.07 167.332 C44.522 169.385 42.299 171.671 40 174 C37.959 175.961 35.889 177.89 33.812 179.812 C33.279 180.315 32.746 180.817 32.197 181.334 C28.232 185 28.232 185 26 185 C26 185.66 26 186.32 26 187 C24.566 188.445 24.566 188.445 22.562 190.125 C21.482 191.043 21.482 191.043 20.379 191.98 C19.201 192.98 19.201 192.98 18 194 C16.33 195.475 14.663 196.954 13 198.438 C12.237 199.117 11.474 199.796 10.688 200.496 C10.131 200.992 9.574 201.489 9 202 C12.934 200.55 15.13 199.068 18 196 C26.304 191.848 41.023 195.65 50 197 C51.009 197.133 52.019 197.266 53.059 197.402 C57.16 198.042 59.608 198.728 63.062 201.125 C67.285 207.391 66.154 214.18 64.773 221.281 C63.656 225.211 62.513 226.877 59 229 C55.664 229.823 52.427 229.936 49 230 C47.967 230.039 46.935 230.077 45.871 230.117 C30.933 230.429 16.216 228.671 2 224 C1.67 223.67 1.34 223.34 1 223 C-0.682 222.767 -2.371 222.587 -4.062 222.438 C-4.982 222.354 -5.901 222.27 -6.848 222.184 C-7.558 222.123 -8.268 222.062 -9 222 C-9.33 222.66 -9.66 223.32 -10 224 C-10.66 224 -11.32 224 -12 224 C-12.268 224.577 -12.536 225.155 -12.812 225.75 C-14.017 228.033 -15.408 229.974 -17 232 C-17.66 231.67 -18.32 231.34 -19 231 C-18.518 230.385 -18.036 229.77 -17.539 229.137 C-16.907 228.328 -16.276 227.52 -15.625 226.688 C-14.999 225.887 -14.372 225.086 -13.727 224.262 C-12.422 222.553 -11.192 220.788 -10 219 C-8.35 219.33 -6.7 219.66 -5 220 C-5.184 219.285 -5.369 218.569 -5.559 217.832 C-6.036 214.772 -5.743 212.692 -5.062 209.688 C-4.771 208.363 -4.771 208.363 -4.473 207.012 C-4.317 206.348 -4.161 205.684 -4 205 C-6.145 204.372 -8.291 203.747 -10.438 203.125 C-11.632 202.777 -12.827 202.429 -14.059 202.07 C-18.333 200.869 -22.659 199.925 -27 199 C-27.113 199.86 -27.113 199.86 -27.228 200.737 C-30.022 221.799 -30.022 221.799 -33 232 C-34.32 231.67 -35.64 231.34 -37 231 C-36.804 229.774 -36.607 228.548 -36.405 227.285 C-31.567 197.231 -31.567 197.231 -28.062 167 C-27.947 165.772 -27.831 164.543 -27.712 163.277 C-26.457 148.604 -25.211 133.611 -33.523 120.719 C-37.836 115.699 -43.195 113.292 -49.125 110.688 C-50.013 110.294 -50.901 109.901 -51.816 109.496 C-60.746 105.595 -69.789 102.173 -79 99 C-80.379 98.514 -80.379 98.514 -81.787 98.018 C-147.361 72.63 -147.361 72.63 -213.77 72.562 C-216.638 74.25 -219.346 75.995 -222 78 C-221.145 77.676 -220.291 77.353 -219.41 77.02 C-176.195 64.099 -95.662 97.93 -57 117 C-49.868 121.088 -44.738 126.41 -42.519 134.444 C-37.152 160.874 -48.466 195.171 -54.812 221 C-55.007 221.794 -55.201 222.588 -55.402 223.406 C-56.257 226.729 -57.077 229.115 -59 232 C-58.405 225.805 -57.436 219.88 -56.039 213.82 C-55.646 212.068 -55.253 210.315 -54.859 208.562 C-54.247 205.86 -53.632 203.158 -53.017 200.456 C-48.828 182.026 -44.872 163.347 -44.75 144.375 C-44.729 143.568 -44.709 142.761 -44.688 141.93 C-44.64 134.653 -46.493 128.92 -51.451 123.358 C-54.5 120.685 -58.105 119.244 -61.812 117.688 C-62.688 117.309 -63.564 116.93 -64.467 116.539 C-98.17 102.165 -133.293 92.611 -168.875 84.188 C-170.092 83.897 -171.31 83.607 -172.564 83.308 C-198.651 76.638 -198.651 76.638 -224 81.75 C-225.718 83.104 -227.381 84.53 -229 86 C-230.204 87.037 -231.412 88.071 -232.621 89.102 C-234.512 90.714 -236.39 92.332 -238.232 93.999 C-241.117 96.584 -243.192 98.273 -247 99 C-245.683 93.338 -243.594 91.254 -239 88 C-238.34 88 -237.68 88 -237 88 C-237 87.34 -237 86.68 -237 86 C-235.658 84.782 -235.658 84.782 -233.781 83.426 C-232.76 82.677 -232.76 82.677 -231.719 81.913 C-230.987 81.385 -230.254 80.857 -229.5 80.312 C-223.003 75.582 -223.003 75.582 -217 70.25 C-189.132 45.236 -135.606 39.79 -100.25 39.75 C-99.47 39.748 -98.691 39.747 -97.888 39.745 C-77.999 39.742 -58.409 41.595 -38.761 44.717 C-36.043 45.245 -36.043 45.245 -34 44 C-34 44.66 -34 45.32 -34 46 C-31.586 45.852 -31.586 45.852 -29 45 C-27.328 42.954 -27.328 42.954 -26.188 40.438 C-25.769 39.611 -25.35 38.785 -24.918 37.934 C-24.615 37.296 -24.312 36.657 -24 36 C-24.66 35.67 -25.32 35.34 -26 35 C-25.573 34.487 -25.147 33.974 -24.707 33.445 C-18.849 26.27 -13.447 18.795 -8.051 11.27 C-7.536 10.555 -7.021 9.84 -6.491 9.104 C-5.506 7.714 -4.542 6.31 -3.599 4.892 C-2.47 3.212 -1.243 1.598 0 0 Z " fill="#262626" transform="translate(255,340)"/>
<path d="M0 0 C1.159 0.004 1.159 0.004 2.342 0.008 C44.152 0.213 88.228 6.847 127.562 21.375 C128.394 21.679 129.226 21.983 130.083 22.297 C137.759 25.3 143.882 29.723 149.25 36 C149.897 36.746 150.544 37.493 151.211 38.262 C154.875 42.777 154.875 42.777 154.875 46.312 C153.75 46.664 152.624 47.016 151.465 47.379 C135.659 52.421 121.409 59.393 106.875 67.312 C105.931 67.815 104.988 68.318 104.016 68.836 C97.892 72.115 91.932 75.631 86 79.242 C83.011 81.057 80.04 82.821 76.875 84.312 C76.511 83.721 76.148 83.129 75.773 82.52 C66.713 68.279 52.227 63.748 36.875 58.312 C35.923 57.973 34.97 57.634 33.989 57.284 C10.391 48.903 -13.191 41.845 -37.58 36.153 C-40.932 35.358 -44.274 34.528 -47.613 33.68 C-66.578 28.896 -85.597 25.603 -105.125 24.312 C-89.633 12.146 -64.415 8.503 -45.625 4.5 C-44.72 4.305 -43.815 4.11 -42.882 3.91 C-28.65 1.016 -14.492 -0.076 0 0 Z " fill="#F8F8F8" transform="translate(155.125,381.6875)"/>
<path d="M0 0 C3.825 3.825 4.75 9.855 6.352 14.954 C6.955 16.858 7.584 18.754 8.215 20.648 C10.761 28.712 11.376 35.548 11 44 C5.06 44.33 -0.88 44.66 -7 45 C-6.01 45 -5.02 45 -4 45 C1.667 45 7.333 45 13 45 C7.616 50.527 7.616 50.527 4 52 C4 52.66 4 53.32 4 54 C2.34 55.488 2.34 55.488 -0.062 57.312 C-4.649 60.886 -9.062 64.609 -13.438 68.438 C-18.778 73.099 -24.173 77.665 -29.688 82.121 C-31.676 83.737 -33.623 85.389 -35.562 87.062 C-38 89 -38 89 -40 89 C-40 89.66 -40 90.32 -40 91 C-42.37 93.122 -44.885 95.013 -47.406 96.953 C-49.463 98.576 -51.269 100.228 -53.125 102.062 C-56.214 104.144 -56.805 104.254 -60.312 103.875 C-64 103 -64 103 -65 102 C-65.33 102.66 -65.66 103.32 -66 104 C-66.687 103.928 -67.374 103.856 -68.082 103.781 C-68.983 103.688 -69.884 103.596 -70.812 103.5 C-71.706 103.407 -72.599 103.314 -73.52 103.219 C-76.083 102.956 -76.083 102.956 -79 103 C-79.66 106.96 -80.32 110.92 -81 115 C-81.33 115 -81.66 115 -82 115 C-81.08 100.884 -81.08 100.884 -80 94 C-79.748 91.64 -79.509 89.28 -79.281 86.918 C-79 85 -79 85 -78 83 C-77.34 83 -76.68 83 -76 83 C-75.01 85.64 -74.02 88.28 -73 91 C-73.449 89.518 -73.91 88.039 -74.375 86.562 C-74.63 85.739 -74.885 84.915 -75.148 84.066 C-75.809 81.822 -75.809 81.822 -78 81 C-77.928 79.967 -77.856 78.935 -77.781 77.871 C-77.192 68.828 -76.892 59.813 -76.875 50.75 C-76.87 49.775 -76.866 48.799 -76.861 47.795 C-76.871 43.083 -77.021 38.633 -78 34 C-77.214 33.79 -76.427 33.58 -75.617 33.363 C-70.752 31.53 -66.545 28.903 -62.125 26.188 C-60.835 25.405 -60.835 25.405 -59.52 24.607 C-54.574 21.603 -54.574 21.603 -49.69 18.499 C-48.986 18.041 -48.281 17.584 -47.555 17.113 C-46.938 16.705 -46.322 16.297 -45.687 15.876 C-44 15 -44 15 -41 15 C-41 15.66 -41 16.32 -41 17 C-43.494 18.587 -45.986 20.058 -48.562 21.5 C-55.36 25.383 -61.917 29.493 -68.352 33.951 C-72.799 37 -72.799 37 -75 37 C-75 37.66 -75 38.32 -75 39 C-74.04 38.357 -73.079 37.714 -72.09 37.051 C-57.29 27.248 -41.919 18.362 -26.062 10.375 C-25.455 10.069 -24.848 9.762 -24.222 9.447 C-19.908 7.325 -15.515 5.635 -11 4 C-10.505 7.96 -10.505 7.96 -10 12 C-10 9.36 -10 6.72 -10 4 C-6.7 2.68 -3.4 1.36 0 0 Z " fill="#E4E4E4" transform="translate(306,435)"/>
<path d="M0 0 C0.34 2.273 0.34 2.273 0 5 C-2.309 6.914 -2.309 6.914 -5.438 8.625 C-6.447 9.195 -7.456 9.765 -8.496 10.352 C-11.168 11.609 -13.55 12.526 -16.344 13.387 C-21.354 14.989 -25.588 17.461 -30.062 20.188 C-36.049 23.749 -42.048 27.14 -48.312 30.188 C-53.402 32.665 -58.358 35.276 -63.25 38.125 C-68.396 41.117 -73.609 43.83 -78.953 46.445 C-82.289 48.147 -85.513 49.993 -88.75 51.875 C-93.585 54.686 -98.478 57.289 -103.5 59.75 C-111.79 63.823 -119.871 68.249 -127.965 72.695 C-135.701 76.943 -143.479 81.11 -151.257 85.28 C-157.739 88.76 -157.739 88.76 -164.129 92.406 C-167 94 -167 94 -169 94 C-169 94.66 -169 95.32 -169 96 C-175.47 101.907 -182.708 106.071 -190.556 109.83 C-196.257 112.575 -201.766 115.594 -207.25 118.75 C-208.465 119.44 -208.465 119.44 -209.705 120.144 C-213.681 122.451 -216.789 124.687 -220 128 C-222.046 129.291 -224.135 130.514 -226.25 131.688 C-227.154 132.203 -227.154 132.203 -228.076 132.73 C-231.422 134.628 -234.795 136.402 -238.266 138.062 C-246.807 142.272 -251.655 145.533 -255.102 154.895 C-256.168 158.582 -257.137 162.26 -258 166 C-260.838 167.419 -263.277 167.132 -266.438 167.125 C-267.591 167.128 -268.745 167.13 -269.934 167.133 C-273 167 -273 167 -276 166 C-276.062 166.619 -276.124 167.238 -276.188 167.875 C-276.456 168.576 -276.724 169.278 -277 170 C-277.825 170.289 -278.65 170.577 -279.5 170.875 C-280.738 171.432 -280.738 171.432 -282 172 C-282.898 175.053 -282.898 175.053 -283 178 C-281.917 178.402 -281.917 178.402 -280.812 178.812 C-277.916 180.035 -275.488 181.065 -273 183 C-271.875 185.875 -271.875 185.875 -272 189 C-274.532 192.453 -276.135 193.788 -280.312 194.812 C-281.199 194.874 -282.086 194.936 -283 195 C-282.216 195.577 -281.433 196.155 -280.625 196.75 C-276.865 199.973 -276.865 199.973 -276 203 C-276 206.562 -276 206.562 -277 210 C-280.84 212.679 -284.446 213.299 -289 214 C-289.111 214.574 -289.221 215.149 -289.335 215.741 C-289.844 218.37 -290.36 220.997 -290.875 223.625 C-291.049 224.529 -291.223 225.432 -291.402 226.363 C-292.326 231.049 -293.429 235.48 -295 240 C-295.103 241.052 -295.206 242.104 -295.312 243.188 C-296.281 248.557 -298.611 253.125 -301 258 C-308.75 257.25 -308.75 257.25 -311 255 C-310.876 248.065 -308.328 242.993 -305 237 C-304.34 237 -303.68 237 -303 237 C-302.732 235.907 -302.464 234.814 -302.188 233.688 C-301 230 -301 230 -299.531 228.719 C-297.177 226.076 -296.974 223.244 -296.312 219.812 C-296.061 218.54 -295.81 217.268 -295.551 215.957 C-295.369 214.981 -295.187 214.005 -295 213 C-295.317 213.886 -295.634 214.771 -295.961 215.684 C-299.868 226.186 -305.159 235.463 -311 245 C-311.495 245.99 -311.495 245.99 -312 247 C-313.98 246.67 -315.96 246.34 -318 246 C-318.703 244.355 -318.703 244.355 -319 242 C-317.672 239.238 -317.672 239.238 -315.75 236.312 C-315.126 235.339 -314.502 234.366 -313.859 233.363 C-312 231 -312 231 -309 230 C-307.83 227.576 -307.83 227.576 -307 225 C-306.505 224.01 -306.505 224.01 -306 223 C-305.34 223 -304.68 223 -304 223 C-303.876 222.319 -303.752 221.639 -303.625 220.938 C-302.909 217.572 -301.971 214.3 -301 211 C-301.784 210.546 -302.567 210.093 -303.375 209.625 C-306 208 -306 208 -308 206 C-307.668 199.036 -307.668 199.036 -305.75 196.062 C-303.545 194.724 -301.541 194.343 -299 194 C-302.321 191.23 -302.321 191.23 -306 189 C-307.642 182.284 -307.642 182.284 -306 179 C-301.965 176.677 -297.553 176.463 -293 176 C-292.67 174.35 -292.34 172.7 -292 171 C-293.65 170.01 -295.3 169.02 -297 168 C-296.67 165.69 -296.34 163.38 -296 161 C-296.804 160.938 -297.609 160.876 -298.438 160.812 C-303.046 159.762 -307.34 158.051 -311 155 C-311.762 152.328 -311.762 152.328 -312 150 C-306.61 144.979 -301.458 143.07 -294.41 141.238 C-276.592 136.435 -259.628 128.881 -243 121 C-241.761 120.422 -240.522 119.845 -239.281 119.27 C-236.309 117.889 -233.341 116.501 -230.374 115.111 C-187.274 94.94 -187.274 94.94 -176.75 91.75 C-168.54 89.129 -161.371 85.005 -153.902 80.758 C-149.71 78.374 -145.46 76.173 -141.125 74.062 C-128.364 67.802 -115.919 60.879 -103.625 53.75 C-98.171 50.6 -92.61 47.771 -86.959 44.999 C-82.539 42.815 -78.262 40.48 -74 38 C-69.16 35.186 -64.276 32.589 -59.25 30.125 C-51.042 26.097 -43.087 21.657 -35.116 17.184 C-31.92 15.396 -28.715 13.627 -25.5 11.875 C-24.479 11.316 -23.458 10.756 -22.406 10.18 C-20 9 -20 9 -18 9 C-18 8.34 -18 7.68 -18 7 C-15.569 5.633 -13.131 4.282 -10.688 2.938 C-9.997 2.548 -9.307 2.158 -8.596 1.756 C-3.34 -1.113 -3.34 -1.113 0 0 Z " fill="#181818" transform="translate(342,35)"/>
<path d="M0 0 C0.99 0 1.98 0 3 0 C1.403 5.036 -1.627 8.754 -4.812 12.875 C-5.861 14.247 -6.91 15.619 -7.957 16.992 C-8.722 17.994 -8.722 17.994 -9.502 19.017 C-12.963 23.599 -16.191 28.207 -18.957 33.242 C-20.427 35.72 -22.168 37.966 -23.949 40.227 C-25.254 42.428 -25.545 44.497 -26 47 C-25.434 47.018 -24.867 47.037 -24.283 47.056 C56.056 49.693 56.056 49.693 89 60 C89 60.66 89 61.32 89 62 C87.884 61.758 86.767 61.515 85.617 61.266 C81.337 60.344 77.051 59.45 72.762 58.569 C70.998 58.206 69.235 57.838 67.473 57.466 C43.422 52.437 18.557 50.246 -6 51 C-5.277 51.175 -4.555 51.351 -3.811 51.531 C4.807 53.632 13.409 55.791 22 58 C23.039 58.267 24.079 58.534 25.15 58.809 C38.279 62.246 50.89 66.711 63.5 71.688 C64.215 71.97 64.93 72.252 65.667 72.542 C81.53 78.83 81.53 78.83 87 82 C87.33 82.99 87.66 83.98 88 85 C86.723 84.969 85.445 84.938 84.129 84.906 C78.955 84.906 74.026 85.624 68.938 86.5 C68.072 86.643 67.206 86.786 66.314 86.934 C64.209 87.283 62.104 87.64 60 88 C61.026 91.225 62.023 94.04 63.688 97 C65.265 100.606 64.788 102.216 64 106 C64.376 109.264 64.376 109.264 65 112 C63.1 111.732 63.1 111.732 61 111 C60.043 109.374 60.043 109.374 59.402 107.289 C59.036 106.164 59.036 106.164 58.662 105.016 C58.303 103.832 58.303 103.832 57.938 102.625 C57.455 101.073 56.964 99.523 56.465 97.977 C56.255 97.286 56.044 96.596 55.828 95.885 C54.889 93.747 53.734 92.54 52 91 C38.638 96.03 25.576 101.224 13 108 C12.291 108.377 11.581 108.755 10.851 109.144 C1.433 114.171 -7.666 119.537 -16.519 125.509 C-17.181 125.951 -17.842 126.393 -18.523 126.848 C-19.1 127.24 -19.677 127.632 -20.271 128.035 C-22.158 129.088 -23.891 129.568 -26 130 C-25.838 130.724 -25.677 131.448 -25.51 132.195 C-24.694 136.681 -24.81 141.138 -24.812 145.688 C-24.812 146.699 -24.811 147.71 -24.811 148.752 C-24.874 157.933 -25.73 166.915 -27 176 C-26.366 176.235 -25.732 176.469 -25.078 176.711 C-23 178 -23 178 -22.172 180.164 C-21.963 181.382 -21.963 181.382 -21.75 182.625 C-21.526 183.851 -21.526 183.851 -21.297 185.102 C-21.199 185.728 -21.101 186.355 -21 187 C-23 186 -23 186 -23.633 184.152 C-23.795 183.421 -23.958 182.691 -24.125 181.938 C-24.293 181.204 -24.46 180.471 -24.633 179.715 C-24.754 179.149 -24.875 178.583 -25 178 C-25.66 178 -26.32 178 -27 178 C-27.037 178.886 -27.075 179.771 -27.113 180.684 C-27.597 189.805 -28.816 198.567 -30.532 207.531 C-31.258 211.36 -31.946 215.196 -32.639 219.031 C-33.421 223.355 -34.211 227.677 -35 232 C-35.66 231.34 -36.32 230.68 -37 230 C-36.71 226.969 -36.297 224.077 -35.77 221.086 C-35.459 219.206 -35.148 217.326 -34.838 215.446 C-34.586 213.959 -34.586 213.959 -34.33 212.443 C-31.788 197.364 -29.445 182.295 -28.062 167.062 C-27.947 165.83 -27.831 164.597 -27.712 163.328 C-26.46 148.639 -25.202 133.625 -33.523 120.719 C-37.836 115.699 -43.195 113.292 -49.125 110.688 C-50.013 110.294 -50.901 109.901 -51.816 109.496 C-60.746 105.595 -69.789 102.173 -79 99 C-80.379 98.514 -80.379 98.514 -81.787 98.018 C-147.361 72.63 -147.361 72.63 -213.77 72.562 C-216.638 74.25 -219.346 75.995 -222 78 C-221.145 77.676 -220.291 77.353 -219.41 77.02 C-176.195 64.099 -95.662 97.93 -57 117 C-49.868 121.088 -44.738 126.41 -42.519 134.444 C-37.152 160.874 -48.466 195.171 -54.812 221 C-55.007 221.794 -55.201 222.588 -55.402 223.406 C-56.257 226.729 -57.077 229.115 -59 232 C-58.405 225.805 -57.436 219.88 -56.039 213.82 C-55.646 212.068 -55.253 210.315 -54.859 208.562 C-54.247 205.86 -53.632 203.158 -53.017 200.456 C-48.828 182.026 -44.872 163.347 -44.75 144.375 C-44.729 143.568 -44.709 142.761 -44.688 141.93 C-44.64 134.653 -46.493 128.92 -51.451 123.358 C-54.5 120.685 -58.105 119.244 -61.812 117.688 C-62.688 117.309 -63.564 116.93 -64.467 116.539 C-98.17 102.165 -133.293 92.611 -168.875 84.188 C-170.092 83.897 -171.31 83.607 -172.564 83.308 C-198.651 76.638 -198.651 76.638 -224 81.75 C-225.718 83.104 -227.381 84.53 -229 86 C-230.204 87.037 -231.412 88.071 -232.621 89.102 C-234.512 90.714 -236.39 92.332 -238.232 93.999 C-241.117 96.584 -243.192 98.273 -247 99 C-245.683 93.338 -243.594 91.254 -239 88 C-238.34 88 -237.68 88 -237 88 C-237 87.34 -237 86.68 -237 86 C-235.658 84.782 -235.658 84.782 -233.781 83.426 C-232.76 82.677 -232.76 82.677 -231.719 81.913 C-230.987 81.385 -230.254 80.857 -229.5 80.312 C-223.003 75.582 -223.003 75.582 -217 70.25 C-189.132 45.236 -135.606 39.79 -100.25 39.75 C-99.47 39.748 -98.691 39.747 -97.888 39.745 C-77.999 39.742 -58.409 41.595 -38.761 44.717 C-36.043 45.245 -36.043 45.245 -34 44 C-34 44.66 -34 45.32 -34 46 C-31.586 45.852 -31.586 45.852 -29 45 C-27.328 42.954 -27.328 42.954 -26.188 40.438 C-25.769 39.611 -25.35 38.785 -24.918 37.934 C-24.615 37.296 -24.312 36.657 -24 36 C-24.66 35.67 -25.32 35.34 -26 35 C-25.573 34.487 -25.147 33.974 -24.707 33.445 C-18.849 26.27 -13.447 18.795 -8.051 11.27 C-7.536 10.555 -7.021 9.84 -6.491 9.104 C-5.506 7.714 -4.542 6.31 -3.599 4.892 C-2.47 3.212 -1.243 1.598 0 0 Z M-205 65 C-205 65.33 -205 65.66 -205 66 C-203.797 66.086 -202.595 66.173 -201.355 66.262 C-174.935 68.352 -149.54 74.623 -123.954 81.219 C-120.208 82.184 -116.46 83.138 -112.699 84.049 C-104.275 86.094 -96.024 88.456 -87.812 91.25 C-86.662 91.638 -85.511 92.025 -84.326 92.425 C-73.777 96.012 -63.356 99.891 -53 104 C-51.797 104.473 -50.595 104.946 -49.355 105.434 C-37.66 110.156 -29.201 114.631 -23 126 C-17.779 123.16 -12.659 120.212 -7.623 117.056 C5.746 108.685 19.648 101.947 34.15 95.786 C35.911 95.038 37.669 94.281 39.426 93.523 C44.563 91.336 49.58 89.355 55 88 C53.712 80.776 47.078 74.219 41.566 69.68 C22.128 56.958 -4.611 53.27 -27 49 C-28.378 48.728 -28.378 48.728 -29.785 48.45 C-88.985 36.804 -149.562 39.564 -205 65 Z " fill="#161616" transform="translate(255,340)"/>
<path d="M0 0 C0 0.66 0 1.32 0 2 C-2.494 3.587 -4.986 5.058 -7.562 6.5 C-14.36 10.383 -20.917 14.493 -27.352 18.951 C-31.799 22 -31.799 22 -34 22 C-34 22.66 -34 23.32 -34 24 C-33.01 23.67 -32.02 23.34 -31 23 C-29.096 23.656 -27.195 24.326 -25.327 25.078 C-22.88 26.048 -20.413 26.891 -17.914 27.719 C-17.047 28.011 -16.179 28.304 -15.285 28.605 C-13.491 29.209 -11.694 29.805 -9.895 30.395 C-9.035 30.687 -8.175 30.98 -7.289 31.281 C-6.513 31.54 -5.736 31.798 -4.936 32.064 C-3 33 -3 33 -1 36 C-0.491 40.666 -0.726 45.323 -1 50 C-1.036 50.701 -1.073 51.403 -1.11 52.125 C-1.799 62.439 -4.142 68.589 -11.884 75.598 C-13.233 76.759 -14.613 77.884 -16 79 C-15.01 78.175 -14.02 77.35 -13 76.5 C-10.228 74.129 -7.621 71.662 -5.062 69.062 C-1.87 65.821 1.455 62.831 4.91 59.875 C8.137 56.98 11.119 53.852 14.117 50.723 C16 49 16 49 18 49 C18 48.34 18 47.68 18 47 C18.66 47 19.32 47 20 47 C20 46.34 20 45.68 20 45 C21.504 43.52 21.504 43.52 23.562 41.812 C27.084 38.829 30.352 35.705 33.555 32.383 C37.018 29.069 41.136 29.89 45.625 29.938 C46.828 29.944 46.828 29.944 48.055 29.951 C50.036 29.963 52.018 29.981 54 30 C48.616 35.527 48.616 35.527 45 37 C45 37.66 45 38.32 45 39 C43.34 40.488 43.34 40.488 40.938 42.312 C36.351 45.886 31.938 49.609 27.562 53.438 C22.222 58.099 16.827 62.665 11.312 67.121 C9.324 68.737 7.377 70.389 5.438 72.062 C3 74 3 74 1 74 C1 74.66 1 75.32 1 76 C-1.37 78.122 -3.885 80.013 -6.406 81.953 C-8.463 83.576 -10.269 85.228 -12.125 87.062 C-15.214 89.144 -15.805 89.254 -19.312 88.875 C-23 88 -23 88 -24 87 C-24.33 87.66 -24.66 88.32 -25 89 C-25.687 88.928 -26.374 88.856 -27.082 88.781 C-27.983 88.688 -28.884 88.596 -29.812 88.5 C-30.706 88.407 -31.599 88.314 -32.52 88.219 C-35.083 87.956 -35.083 87.956 -38 88 C-38.66 91.96 -39.32 95.92 -40 100 C-40.33 100 -40.66 100 -41 100 C-40.08 85.884 -40.08 85.884 -39 79 C-38.748 76.64 -38.509 74.28 -38.281 71.918 C-38 70 -38 70 -37 68 C-36.34 68 -35.68 68 -35 68 C-34.01 70.64 -33.02 73.28 -32 76 C-32.449 74.518 -32.91 73.039 -33.375 71.562 C-33.63 70.739 -33.885 69.915 -34.148 69.066 C-34.809 66.822 -34.809 66.822 -37 66 C-36.928 64.967 -36.856 63.935 -36.781 62.871 C-36.192 53.828 -35.892 44.813 -35.875 35.75 C-35.87 34.775 -35.866 33.799 -35.861 32.795 C-35.871 28.083 -36.021 23.633 -37 19 C-36.214 18.79 -35.427 18.58 -34.617 18.363 C-29.752 16.53 -25.545 13.903 -21.125 11.188 C-20.265 10.666 -19.405 10.145 -18.52 9.607 C-13.574 6.603 -13.574 6.603 -8.69 3.499 C-7.986 3.041 -7.281 2.584 -6.555 2.113 C-5.938 1.705 -5.322 1.297 -4.687 0.876 C-3 0 -3 0 0 0 Z " fill="#F7F7F7" transform="translate(265,450)"/>
<path d="M0 0 C5.113 1.345 9.19 3.794 13.633 6.562 C15.716 7.827 17.804 8.948 20 10 C20 10.66 20 11.32 20 12 C17.69 12.33 15.38 12.66 13 13 C17.201 48.526 31.134 78.159 53.117 106.309 C54.883 108.833 56 111.1 57 114 C57.66 114 58.32 114 59 114 C60.297 115.504 60.297 115.504 61.75 117.562 C64.288 121.082 66.984 124.342 69.898 127.555 C71 129 71 129 71 131 C71.66 131 72.32 131 73 131 C74.368 132.552 75.667 134.165 76.934 135.801 C81.912 142.023 87.376 147.604 93.062 153.188 C94.034 154.149 95.004 155.11 95.975 156.072 C98.312 158.386 100.654 160.695 103 163 C98.666 163 96.589 160.365 93.5 157.625 C88.916 153.604 88.916 153.604 84 150 C84 149.34 84 148.68 84 148 C83.454 147.779 82.909 147.558 82.346 147.33 C79.256 145.578 76.938 143.224 74.457 140.723 C73.929 140.197 73.401 139.671 72.857 139.129 C71.74 138.012 70.624 136.893 69.511 135.772 C67.842 134.093 66.163 132.424 64.482 130.756 C58.613 124.893 53.096 118.94 47.952 112.423 C45.326 109.163 42.496 106.117 39.629 103.07 C37.855 100.816 36.936 98.699 36 96 C35.34 96 34.68 96 34 96 C32.406 93.902 32.406 93.902 30.5 90.938 C29.788 89.838 29.077 88.738 28.344 87.605 C27.963 87.016 27.583 86.426 27.191 85.818 C26 83.999 24.773 82.211 23.531 80.426 C17.463 71.656 12.471 62.677 8 53 C7.534 52 7.534 52 7.059 50.979 C-4 27.069 -4 27.069 -4 18 C-7.96 18.495 -7.96 18.495 -12 19 C-8.485 12.294 -4.44 6.129 0 0 Z " fill="#000000" transform="translate(133,195)"/>
<path d="M0 0 C1.552 0.001 3.105 0.034 4.656 0.094 C5.897 0.121 5.897 0.121 7.163 0.15 C13.466 0.365 19.718 0.953 25.969 1.781 C26.798 1.882 27.626 1.982 28.48 2.086 C34.09 2.941 37.351 4.293 41.156 8.594 C42.763 15.683 41.524 23.22 38.156 29.594 C34.794 31.943 31.678 31.852 27.66 31.859 C25.737 31.863 25.737 31.863 23.775 31.867 C22.773 31.861 22.773 31.861 21.751 31.854 C19.757 31.844 17.762 31.855 15.768 31.867 C-13.629 31.809 -13.629 31.809 -20.844 24.594 C-21.562 18.73 -20.438 13.323 -16.844 8.594 C-14.572 7.46 -12.555 6.883 -10.062 6.422 C-7.585 5.739 -7.585 5.739 -6.094 3.047 C-3.844 0.594 -3.844 0.594 0 0 Z " fill="#FFFFFF" transform="translate(277.84375,536.40625)"/>
<path d="M0 0 C0.99 0 1.98 0 3 0 C1.403 5.036 -1.627 8.754 -4.812 12.875 C-5.861 14.247 -6.91 15.619 -7.957 16.992 C-8.722 17.994 -8.722 17.994 -9.502 19.017 C-12.963 23.599 -16.191 28.207 -18.957 33.242 C-20.427 35.72 -22.168 37.966 -23.949 40.227 C-25.254 42.428 -25.545 44.497 -26 47 C-25.434 47.018 -24.867 47.037 -24.283 47.056 C56.056 49.693 56.056 49.693 89 60 C89 60.66 89 61.32 89 62 C87.884 61.758 86.767 61.515 85.617 61.266 C81.337 60.344 77.051 59.45 72.762 58.569 C70.998 58.206 69.235 57.838 67.473 57.466 C43.422 52.437 18.557 50.246 -6 51 C-5.277 51.175 -4.555 51.351 -3.811 51.531 C4.807 53.632 13.409 55.791 22 58 C23.039 58.267 24.079 58.534 25.15 58.809 C38.279 62.246 50.89 66.711 63.5 71.688 C64.215 71.97 64.93 72.252 65.667 72.542 C81.53 78.83 81.53 78.83 87 82 C87.33 82.99 87.66 83.98 88 85 C86.723 84.969 85.445 84.938 84.129 84.906 C78.955 84.906 74.026 85.624 68.938 86.5 C68.072 86.643 67.206 86.786 66.314 86.934 C64.209 87.283 62.104 87.64 60 88 C61.026 91.225 62.023 94.04 63.688 97 C65.265 100.606 64.788 102.216 64 106 C64.376 109.264 64.376 109.264 65 112 C63.1 111.732 63.1 111.732 61 111 C60.043 109.374 60.043 109.374 59.402 107.289 C59.036 106.164 59.036 106.164 58.662 105.016 C58.303 103.832 58.303 103.832 57.938 102.625 C57.455 101.073 56.964 99.523 56.465 97.977 C56.255 97.286 56.044 96.596 55.828 95.885 C54.889 93.747 53.734 92.54 52 91 C30.25 98.927 30.25 98.927 10 110 C9.01 109.67 8.02 109.34 7 109 C11.437 105.02 16.341 102.688 21.688 100.188 C22.608 99.754 23.528 99.32 24.476 98.874 C30.601 96.025 36.778 93.35 43.062 90.875 C44.177 90.433 44.177 90.433 45.313 89.981 C48.791 88.652 51.226 88 55 88 C47.448 72.896 35.977 66.882 20.625 61.562 C-46.02 39.561 -129.274 31.558 -194.879 61.766 C-198 63 -198 63 -201 62 C-197.312 58.77 -193.167 57.332 -188.625 55.688 C-187.787 55.384 -186.949 55.081 -186.086 54.768 C-158.403 44.969 -129.595 39.783 -100.25 39.75 C-99.47 39.748 -98.691 39.747 -97.888 39.745 C-77.999 39.742 -58.409 41.595 -38.761 44.717 C-36.043 45.245 -36.043 45.245 -34 44 C-34 44.66 -34 45.32 -34 46 C-31.586 45.852 -31.586 45.852 -29 45 C-27.328 42.954 -27.328 42.954 -26.188 40.438 C-25.769 39.611 -25.35 38.785 -24.918 37.934 C-24.615 37.296 -24.312 36.657 -24 36 C-24.66 35.67 -25.32 35.34 -26 35 C-25.573 34.487 -25.147 33.974 -24.707 33.445 C-18.849 26.27 -13.447 18.795 -8.051 11.27 C-7.536 10.555 -7.021 9.84 -6.491 9.104 C-5.506 7.714 -4.542 6.31 -3.599 4.892 C-2.47 3.212 -1.243 1.598 0 0 Z " fill="#030303" transform="translate(255,340)"/>
<path d="M0 0 C0.34 2.273 0.34 2.273 0 5 C-2.309 6.914 -2.309 6.914 -5.438 8.625 C-6.447 9.195 -7.456 9.765 -8.496 10.352 C-11.168 11.609 -13.55 12.526 -16.344 13.387 C-21.354 14.989 -25.588 17.461 -30.062 20.188 C-36.049 23.749 -42.048 27.14 -48.312 30.188 C-53.402 32.665 -58.358 35.276 -63.25 38.125 C-68.396 41.117 -73.609 43.83 -78.953 46.445 C-82.289 48.147 -85.513 49.993 -88.75 51.875 C-93.585 54.686 -98.478 57.289 -103.5 59.75 C-111.79 63.823 -119.871 68.249 -127.965 72.695 C-135.701 76.943 -143.479 81.11 -151.257 85.28 C-157.739 88.76 -157.739 88.76 -164.129 92.406 C-167 94 -167 94 -169 94 C-169 94.66 -169 95.32 -169 96 C-175.47 101.907 -182.708 106.071 -190.556 109.83 C-196.257 112.575 -201.766 115.594 -207.25 118.75 C-208.465 119.44 -208.465 119.44 -209.705 120.144 C-213.686 122.453 -216.773 124.7 -220 128 C-222.317 129.473 -224.607 130.854 -227 132.188 C-227.616 132.543 -228.232 132.898 -228.867 133.264 C-231.852 134.951 -234.596 136.43 -238 137 C-234.497 131.328 -228.885 128.718 -223 126 C-222.34 126 -221.68 126 -221 126 C-220.978 125.423 -220.957 124.845 -220.935 124.25 C-219.462 120.704 -216.32 119.638 -213.043 117.996 C-212.344 117.632 -211.644 117.267 -210.924 116.891 C-208.685 115.727 -206.437 114.582 -204.188 113.438 C-201.951 112.286 -199.716 111.131 -197.483 109.973 C-196.094 109.253 -194.701 108.539 -193.306 107.829 C-189.978 106.12 -186.902 104.37 -184 102 C-184.33 100.68 -184.66 99.36 -185 98 C-199.078 104.277 -213.144 110.572 -227.125 117.062 C-240.348 123.199 -253.663 129.118 -267 135 C-263.531 138.611 -260.603 140.966 -256 143 C-259 144 -259 144 -260.938 143.363 C-261.618 143.017 -262.299 142.67 -263 142.312 C-264.021 141.812 -264.021 141.812 -265.062 141.301 C-267.276 139.815 -268.519 138.198 -270 136 C-271.139 136.451 -271.139 136.451 -272.301 136.91 C-273.792 137.481 -273.792 137.481 -275.312 138.062 C-276.299 138.445 -277.285 138.828 -278.301 139.223 C-281 140 -281 140 -284 139 C-280.156 136.505 -276.236 134.886 -271.938 133.375 C-262.052 129.782 -252.54 125.415 -243 121 C-241.208 120.17 -241.208 120.17 -239.379 119.324 C-236.386 117.93 -233.395 116.529 -230.406 115.127 C-187.379 94.972 -187.379 94.972 -176.75 91.75 C-168.54 89.129 -161.371 85.005 -153.902 80.758 C-149.71 78.374 -145.46 76.173 -141.125 74.062 C-128.364 67.802 -115.919 60.879 -103.625 53.75 C-98.171 50.6 -92.61 47.771 -86.959 44.999 C-82.539 42.815 -78.262 40.48 -74 38 C-69.16 35.186 -64.276 32.589 -59.25 30.125 C-51.042 26.097 -43.087 21.657 -35.116 17.184 C-31.92 15.396 -28.715 13.627 -25.5 11.875 C-24.479 11.316 -23.458 10.756 -22.406 10.18 C-20 9 -20 9 -18 9 C-18 8.34 -18 7.68 -18 7 C-15.569 5.633 -13.131 4.282 -10.688 2.938 C-9.997 2.548 -9.307 2.158 -8.596 1.756 C-3.34 -1.113 -3.34 -1.113 0 0 Z " fill="#000000" transform="translate(342,35)"/>
<path d="M0 0 C0.99 2.475 0.99 2.475 2 5 C-0.354 6.288 -2.709 7.575 -5.064 8.862 C-7.069 9.957 -9.074 11.054 -11.079 12.152 C-15.62 14.634 -20.164 17.103 -24.766 19.473 C-25.804 20.01 -25.804 20.01 -26.863 20.559 C-28.136 21.214 -29.412 21.861 -30.694 22.5 C-34.335 24.319 -34.335 24.319 -36 28 C-37.898 29.395 -37.898 29.395 -40.375 30.812 C-41.279 31.333 -42.182 31.854 -43.113 32.391 C-46.839 34.468 -50.57 36.532 -54.332 38.543 C-56.059 39.486 -57.767 40.466 -59.449 41.488 C-64.116 44.301 -67.402 46.018 -73 45 C-77.283 42.944 -80.346 40.981 -83 37 C-74.78 32.767 -66.474 28.814 -58.029 25.052 C-47.764 20.471 -37.56 15.757 -27.351 11.054 C-22.853 8.982 -18.354 6.913 -13.852 4.851 C-12.23 4.106 -10.612 3.354 -8.994 2.6 C-3.336 0 -3.336 0 0 0 Z " fill="#FFFFFF" transform="translate(157,133)"/>
<path d="M0 0 C1.203 0.007 1.203 0.007 2.43 0.014 C4.411 0.025 6.393 0.043 8.375 0.062 C2.991 5.589 2.991 5.589 -0.625 7.062 C-0.625 7.723 -0.625 8.382 -0.625 9.062 C-2.285 10.551 -2.285 10.551 -4.688 12.375 C-9.274 15.948 -13.687 19.672 -18.062 23.5 C-23.403 28.162 -28.798 32.728 -34.312 37.184 C-36.301 38.799 -38.248 40.451 -40.188 42.125 C-42.625 44.062 -42.625 44.062 -44.625 44.062 C-44.625 44.722 -44.625 45.383 -44.625 46.062 C-46.995 48.185 -49.51 50.075 -52.031 52.016 C-54.088 53.639 -55.894 55.29 -57.75 57.125 C-60.872 59.229 -61.457 59.296 -65 58.875 C-66.196 58.607 -67.393 58.339 -68.625 58.062 C-67.576 55.441 -66.976 54.269 -64.5 52.812 C-63.881 52.565 -63.262 52.317 -62.625 52.062 C-62.625 51.403 -62.625 50.742 -62.625 50.062 C-61.156 48.617 -61.156 48.617 -59.125 46.938 C-56.158 44.42 -53.349 41.841 -50.625 39.062 C-47.454 35.842 -44.147 32.874 -40.715 29.938 C-37.488 27.042 -34.506 23.914 -31.508 20.785 C-29.625 19.062 -29.625 19.062 -27.625 19.062 C-27.625 18.402 -27.625 17.743 -27.625 17.062 C-26.965 17.062 -26.305 17.062 -25.625 17.062 C-25.625 16.402 -25.625 15.743 -25.625 15.062 C-24.121 13.582 -24.121 13.582 -22.062 11.875 C-18.541 8.891 -15.273 5.767 -12.07 2.445 C-8.607 -0.868 -4.489 -0.047 0 0 Z " fill="#FFFFFF" transform="translate(310.625,479.9375)"/>
<path d="M0 0 C0.764 0.79 1.529 1.58 2.316 2.395 C6.592 6.546 11.375 8.259 17 10 C15.334 16.164 12.122 21.483 9 27 C-4.885 26.347 -18.178 22.29 -30 15 C-30.66 14.01 -31.32 13.02 -32 12 C-24.849 9.083 -17.64 6.369 -10.375 3.75 C-9.371 3.386 -8.367 3.023 -7.332 2.648 C-4.889 1.764 -2.445 0.881 0 0 Z " fill="#FFFFFF" transform="translate(72,170)"/>
<path d="M0 0 C3.825 3.825 4.75 9.855 6.352 14.954 C6.955 16.858 7.584 18.754 8.215 20.648 C10.761 28.712 11.376 35.548 11 44 C5.06 44.33 -0.88 44.66 -7 45 C-7.33 45.66 -7.66 46.32 -8 47 C-9.008 37.784 -9.309 28.571 -9.562 19.312 C-9.606 17.821 -9.649 16.329 -9.693 14.838 C-9.799 11.225 -9.901 7.613 -10 4 C-6.7 2.68 -3.4 1.36 0 0 Z " fill="#FFFFFF" transform="translate(306,435)"/>
<path d="M0 0 C4.359 3.525 5.577 7.602 7.25 12.75 C7.652 13.939 7.652 13.939 8.062 15.152 C8.719 17.098 9.361 19.049 10 21 C10.66 21 11.32 21 12 21 C11.505 16.545 11.505 16.545 11 12 C12.646 14.469 13.514 16.147 14.438 18.879 C14.692 19.631 14.947 20.383 15.209 21.158 C15.47 21.951 15.731 22.745 16 23.562 C16.267 24.372 16.534 25.181 16.809 26.014 C21.756 41.285 21.756 41.285 20 47 C19.34 46.34 18.68 45.68 18 45 C17.045 46.214 17.045 46.214 16.07 47.453 C11.966 50.857 9.046 50.742 3.875 50.75 C2.268 50.783 0.661 50.82 -0.945 50.859 C-1.652 50.864 -2.358 50.869 -3.086 50.874 C-5.223 50.934 -5.223 50.934 -8 52 C-8 51.34 -8 50.68 -8 50 C-4.812 48.406 -1.371 48.898 2.125 48.938 C3.256 48.944 3.256 48.944 4.41 48.951 C6.273 48.963 8.137 48.981 10 49 C10.122 40.062 8.123 32.084 5.625 23.562 C5.321 22.52 5.016 21.478 4.703 20.404 C3.174 15.344 1.583 10.619 -1 6 C-3.97 6.99 -6.94 7.98 -10 9 C-10 19.56 -10 30.12 -10 41 C-10.33 41 -10.66 41 -11 41 C-11.025 40.345 -11.05 39.69 -11.076 39.016 C-11.193 36.01 -11.315 33.005 -11.438 30 C-11.477 28.97 -11.516 27.94 -11.557 26.879 C-11.792 21.198 -12.195 15.63 -13 10 C-32.506 18.156 -50.496 28.66 -68.269 40.068 C-70.84 41.711 -73.09 43.03 -76 44 C-76 43.34 -76 42.68 -76 42 C-74.139 40.583 -74.139 40.583 -71.539 38.953 C-70.592 38.355 -69.644 37.757 -68.668 37.141 C-67.664 36.517 -66.66 35.893 -65.625 35.25 C-64.659 34.642 -63.694 34.033 -62.699 33.406 C-59.808 31.59 -56.906 29.792 -54 28 C-53.047 27.409 -52.094 26.818 -51.112 26.209 C-50.217 25.66 -49.321 25.112 -48.398 24.547 C-47.598 24.055 -46.798 23.564 -45.974 23.058 C-44 22 -44 22 -42 22 C-41.818 21.426 -41.636 20.853 -41.449 20.262 C-39.317 16.934 -36.238 15.566 -32.812 13.812 C-31.717 13.24 -31.717 13.24 -30.6 12.656 C-20.74 7.657 -10.353 3.842 0 0 Z " fill="#FFFFFF" transform="translate(307,430)"/>
<path d="M0 0 C1.65 0.66 3.3 1.32 5 2 C3.654 6.038 1.347 7.473 -2 10 C-2.66 10 -3.32 10 -4 10 C-4 10.66 -4 11.32 -4 12 C-4.66 12 -5.32 12 -6 12 C-6 12.66 -6 13.32 -6 14 C-7.461 15.508 -7.461 15.508 -9.375 17.125 C-10.001 17.664 -10.628 18.203 -11.273 18.758 C-13 20 -13 20 -15 20 C-15 20.66 -15 21.32 -15 22 C-16.471 23.309 -18.006 24.545 -19.562 25.75 C-24.48 29.676 -29.111 33.808 -33.688 38.125 C-38.097 42.282 -42.511 46.406 -47.109 50.355 C-49.465 52.405 -51.759 54.518 -54.062 56.625 C-57.874 60.072 -61.741 63.13 -66 66 C-66.66 65.34 -67.32 64.68 -68 64 C-69.988 63.602 -71.989 63.262 -74 63 C-73.01 62.505 -73.01 62.505 -72 62 C-72 61.34 -72 60.68 -72 60 C-70.523 58.695 -70.523 58.695 -68.375 57.125 C-64.152 53.938 -60.124 50.586 -56.125 47.125 C-51.96 43.527 -47.775 39.968 -43.5 36.5 C-38.574 32.501 -33.751 28.391 -28.945 24.248 C-27.839 23.295 -26.732 22.343 -25.623 21.393 C-24.517 20.443 -23.416 19.489 -22.319 18.529 C-18.222 15 -18.222 15 -16 15 C-16 14.34 -16 13.68 -16 13 C-14.277 11.484 -14.277 11.484 -11.938 9.75 C-7.816 6.64 -3.89 3.394 0 0 Z " fill="#FFFFFF" transform="translate(325,477)"/>
<path d="M0 0 C0.66 0 1.32 0 2 0 C3.133 3.31 4.255 6.623 5.375 9.938 C5.692 10.864 6.009 11.79 6.336 12.744 C8.26 18.455 9.8 24.093 11 30 C13.894 26.521 15.704 22.651 17.562 18.562 C17.866 17.907 18.17 17.252 18.482 16.576 C20.089 13.087 21.613 9.582 23 6 C25.148 12.445 20.097 19.945 17.213 25.774 C15.828 28.526 14.421 31.266 13 34 C16.96 35.65 20.92 37.3 25 39 C19.861 40.285 18.622 39.222 14 37 C13.546 37.495 13.092 37.99 12.625 38.5 C11 40 11 40 9 40 C9 40.66 9 41.32 9 42 C7.637 43.375 7.637 43.375 5.688 45 C2.237 47.926 -1.115 50.93 -4.438 54 C-8.454 57.672 -12.555 61.097 -16.93 64.332 C-19.478 66.385 -21.701 68.671 -24 71 C-26.041 72.961 -28.111 74.89 -30.188 76.812 C-30.721 77.315 -31.254 77.817 -31.803 78.334 C-35.768 82 -35.768 82 -38 82 C-38 82.66 -38 83.32 -38 84 C-39.434 85.445 -39.434 85.445 -41.438 87.125 C-42.158 87.737 -42.879 88.35 -43.621 88.98 C-44.406 89.647 -45.191 90.313 -46 91 C-47.67 92.475 -49.337 93.954 -51 95.438 C-51.763 96.117 -52.526 96.796 -53.312 97.496 C-53.869 97.992 -54.426 98.489 -55 99 C-55.66 98.67 -56.32 98.34 -57 98 C-51.489 92.398 -45.995 86.846 -40.02 81.734 C-37.689 79.733 -35.406 77.683 -33.125 75.625 C-31.866 74.49 -31.866 74.49 -30.582 73.332 C-28.85 71.767 -27.118 70.202 -25.387 68.637 C-22.93 66.418 -20.467 64.207 -18 62 C-17.303 61.374 -16.605 60.747 -15.887 60.102 C-11.236 56 -11.236 56 -9 56 C-9 55.34 -9 54.68 -9 54 C-7.539 52.492 -7.539 52.492 -5.625 50.875 C-4.999 50.336 -4.372 49.797 -3.727 49.242 C-2 48 -2 48 0 48 C0 47.34 0 46.68 0 46 C0.66 46 1.32 46 2 46 C2 45.34 2 44.68 2 44 C7.476 39 7.476 39 10 39 C10 38.34 10 37.68 10 37 C8.68 36.34 7.36 35.68 6 35 C5.325 35.615 4.649 36.23 3.953 36.863 C2.615 38.076 2.615 38.076 1.25 39.312 C0.368 40.113 -0.513 40.914 -1.422 41.738 C-7.42 47 -7.42 47 -10 47 C-10 47.66 -10 48.32 -10 49 C-11.487 50.354 -13.044 51.631 -14.625 52.875 C-19.161 56.501 -23.607 60.203 -28 64 C-32.98 68.293 -38.023 72.49 -43.129 76.633 C-47.216 80.003 -51.226 83.46 -55.23 86.928 C-63.42 94 -63.42 94 -66 94 C-65.67 95.32 -65.34 96.64 -65 98 C-74.41 97.036 -74.41 97.036 -79 96 C-78.67 95.01 -78.34 94.02 -78 93 C-77.67 93.66 -77.34 94.32 -77 95 C-71.815 95.61 -71.815 95.61 -67.06 93.875 C-65.163 92.323 -63.387 90.704 -61.625 89 C-55.179 83 -55.179 83 -53 83 C-53 82.34 -53 81.68 -53 81 C-51.523 79.695 -51.523 79.695 -49.375 78.125 C-45.152 74.938 -41.123 71.586 -37.125 68.125 C-31.978 63.678 -26.768 59.327 -21.48 55.047 C-18.424 52.525 -15.479 49.892 -12.559 47.215 C-11 46 -11 46 -9 46 C-9 45.34 -9 44.68 -9 44 C-6.883 42.055 -6.883 42.055 -4.125 39.875 C-3.22 39.151 -2.315 38.426 -1.383 37.68 C1 36 1 36 3 36 C2.938 35.216 2.876 34.433 2.812 33.625 C2.905 32.326 2.905 32.326 3 31 C3.99 30.34 4.98 29.68 6 29 C6.99 30.98 6.99 30.98 8 33 C7.011 23.346 4.454 14.787 1.242 5.676 C0 2 0 2 0 0 Z " fill="#000000" transform="translate(319,443)"/>
<path d="M0 0 C0.854 0.145 1.708 0.29 2.588 0.439 C43.894 7.565 86.537 22.268 124 41 C124 41.66 124 42.32 124 43 C119.726 41.695 115.77 40.022 111.736 38.133 C69.811 18.537 12.926 -4.586 -34 2 C-31.435 -0.565 -29.523 -0.54 -26 -1 C-39.456 -0.728 -45.925 5.635 -55.633 14.105 C-59.283 17.274 -63.077 20.176 -67 23 C-67.33 22.34 -67.66 21.68 -68 21 C-66.234 19.516 -64.462 18.038 -62.688 16.562 C-61.208 15.327 -61.208 15.327 -59.699 14.066 C-57 12 -57 12 -54 11 C-54 10.34 -54 9.68 -54 9 C-51.974 7.244 -49.948 5.613 -47.812 4 C-47.234 3.549 -46.656 3.098 -46.061 2.633 C-32.935 -7.393 -15.16 -2.721 0 0 Z " fill="#000000" transform="translate(76,426)"/>
<path d="M0 0 C1.625 2 1.625 2 3 4 C2.34 4 1.68 4 1 4 C3.142 6.301 5.029 8.017 7.75 9.625 C8.493 10.079 9.235 10.533 10 11 C10 11.66 10 12.32 10 13 C12.475 13.495 12.475 13.495 15 14 C15.196 15.436 15.381 16.874 15.562 18.312 C15.667 19.113 15.771 19.914 15.879 20.738 C16 23 16 23 15 26 C6.765 25.35 -1.288 20.858 -7 15 C-8.353 11.393 -7.948 8.689 -7 5 C-7.99 4.67 -8.98 4.34 -10 4 C-10.33 3.01 -10.66 2.02 -11 1 C-10.257 1.206 -9.515 1.413 -8.75 1.625 C-5.064 2.128 -3.452 0 0 0 Z " fill="#000000" transform="translate(90,434)"/>
<path d="M0 0 C2.951 7.22 5.546 14.459 7.75 21.938 C7.96 22.646 8.171 23.355 8.387 24.086 C10.122 30.092 11.139 35.623 11.062 41.875 C11.053 42.842 11.044 43.809 11.035 44.805 C11.024 45.529 11.012 46.254 11 47 C9.211 47.091 9.211 47.091 7.387 47.184 C5.82 47.268 4.254 47.353 2.688 47.438 C1.902 47.477 1.116 47.516 0.307 47.557 C-0.451 47.599 -1.208 47.64 -1.988 47.684 C-2.685 47.72 -3.381 47.757 -4.099 47.795 C-6.222 47.956 -6.222 47.956 -9 49 C-9 48.34 -9 47.68 -9 47 C-5.812 45.406 -2.371 45.898 1.125 45.938 C2.256 45.944 2.256 45.944 3.41 45.951 C5.273 45.963 7.137 45.981 9 46 C9.122 37.062 7.123 29.084 4.625 20.562 C4.321 19.52 4.016 18.478 3.703 17.404 C2.174 12.344 0.583 7.619 -2 3 C-4.97 3.99 -7.94 4.98 -11 6 C-11 16.56 -11 27.12 -11 38 C-11.33 38 -11.66 38 -12 38 C-12.025 37.345 -12.05 36.69 -12.076 36.016 C-12.193 33.01 -12.315 30.005 -12.438 27 C-12.477 25.97 -12.516 24.94 -12.557 23.879 C-12.792 18.198 -13.195 12.63 -14 7 C-33.506 15.156 -51.496 25.66 -69.269 37.068 C-71.84 38.711 -74.09 40.03 -77 41 C-77 40.34 -77 39.68 -77 39 C-75.171 37.599 -75.171 37.599 -72.609 35.988 C-71.678 35.399 -70.747 34.809 -69.788 34.202 C-68.785 33.578 -67.783 32.955 -66.75 32.312 C-65.228 31.358 -65.228 31.358 -63.675 30.384 C-60.789 28.58 -57.896 26.788 -55 25 C-54.358 24.6 -53.716 24.2 -53.054 23.788 C-45.644 19.186 -37.885 15.485 -29.973 11.848 C-26.871 10.419 -23.835 8.901 -20.812 7.312 C-6.411 0 -6.411 0 0 0 Z " fill="#000000" transform="translate(308,433)"/>
<path d="M0 0 C8.166 1.485 15.575 4.405 23.25 7.5 C24.515 8.005 25.781 8.508 27.047 9.012 C30.367 10.335 33.684 11.666 37 13 C38.667 13.667 40.333 14.334 42 15 C42 15.33 42 15.66 42 16 C40.698 16.205 39.396 16.41 38.055 16.621 C36.328 16.893 34.602 17.165 32.875 17.438 C32.019 17.572 31.163 17.707 30.281 17.846 C25.851 18.544 21.423 19.253 17 20 C16.481 19.264 15.961 18.528 15.426 17.77 C11.882 12.811 8.495 8.121 4 4 C2.667 2.667 1.333 1.333 0 0 Z " fill="#FFFFFF" transform="translate(296,407)"/>
<path d="M0 0 C-0.33 1.32 -0.66 2.64 -1 4 C-1.668 4.095 -2.335 4.19 -3.023 4.288 C-6.793 5.19 -10.143 6.751 -13.633 8.395 C-14.374 8.738 -15.116 9.082 -15.88 9.436 C-17.471 10.174 -19.061 10.914 -20.649 11.656 C-24.826 13.607 -29.011 15.541 -33.195 17.477 C-34.031 17.864 -34.868 18.251 -35.729 18.65 C-44.157 22.548 -52.635 26.325 -61.133 30.068 C-68.46 33.298 -75.739 36.625 -83 40 C-79.531 43.611 -76.603 45.966 -72 48 C-75 49 -75 49 -76.938 48.363 C-77.958 47.843 -77.958 47.843 -79 47.312 C-79.681 46.979 -80.361 46.645 -81.062 46.301 C-83.276 44.815 -84.519 43.198 -86 41 C-86.759 41.3 -87.519 41.601 -88.301 41.91 C-89.295 42.29 -90.289 42.671 -91.312 43.062 C-92.299 43.445 -93.285 43.828 -94.301 44.223 C-97 45 -97 45 -100 44 C-96.156 41.505 -92.236 39.886 -87.938 38.375 C-78.052 34.782 -68.54 30.415 -59 26 C-57.805 25.447 -56.61 24.894 -55.379 24.324 C-53.066 23.247 -50.755 22.166 -48.445 21.082 C-42.882 18.472 -37.307 15.887 -31.732 13.3 C-29.933 12.465 -28.135 11.629 -26.336 10.794 C-24.04 9.728 -21.742 8.664 -19.444 7.601 C-17.072 6.498 -14.706 5.387 -12.345 4.262 C-11.182 3.713 -10.019 3.164 -8.82 2.598 C-7.25 1.849 -7.25 1.849 -5.649 1.086 C-3 0 -3 0 0 0 Z " fill="#000000" transform="translate(158,130)"/>
<path d="M0 0 C1.009 0.133 2.019 0.266 3.059 0.402 C7.16 1.042 9.608 1.728 13.062 4.125 C17.285 10.391 16.154 17.18 14.773 24.281 C13.656 28.211 12.513 29.877 9 32 C5.664 32.823 2.427 32.936 -1 33 C-2.033 33.039 -3.065 33.077 -4.129 33.117 C-17.955 33.406 -31.719 31.906 -45 28 C-45 27.34 -45 26.68 -45 26 C-43.14 26.433 -43.14 26.433 -41.242 26.875 C-29.749 29.352 -18.604 30.382 -6.875 30.312 C-5.565 30.305 -4.255 30.298 -2.906 30.291 C4.131 30.301 4.131 30.301 11 29 C13.111 22.273 14.323 14.995 13 8 C9.124 3.482 4.484 2.98 -1.125 2.25 C-1.996 2.131 -2.867 2.012 -3.764 1.889 C-9.998 1.103 -16.218 0.635 -22.5 0.5 C-23.691 0.454 -23.691 0.454 -24.907 0.407 C-27.434 0.349 -27.434 0.349 -31 1 C-33.393 3.365 -33.393 3.365 -35 6 C-37.75 6.812 -37.75 6.812 -40 7 C-29.7 -6.243 -14.95 -2.248 0 0 Z " fill="#000000" transform="translate(305,537)"/>
<path d="M0 0 C2.625 0.375 2.625 0.375 5 1 C5 1.66 5 2.32 5 3 C3.68 3 2.36 3 1 3 C2.98 3.99 4.96 4.98 7 6 C7.309 5.381 7.619 4.763 7.938 4.125 C8.625 2.75 9.312 1.375 10 0 C10.99 0 11.98 0 13 0 C13.33 1.98 13.66 3.96 14 6 C14.784 5.01 15.567 4.02 16.375 3 C17.674 1.515 17.674 1.515 19 0 C19.66 0 20.32 0 21 0 C21.195 1.457 21.381 2.916 21.562 4.375 C21.667 5.187 21.771 5.999 21.879 6.836 C22 9 22 9 21 11 C20.34 11 19.68 11 19 11 C19 10.34 19 9.68 19 9 C17.02 9 15.04 9 13 9 C13 9.66 13 10.32 13 11 C12.01 11 11.02 11 10 11 C10 10.34 10 9.68 10 9 C8.35 9 6.7 9 5 9 C5 9.66 5 10.32 5 11 C3.188 11.625 3.188 11.625 1 12 C0.01 11.34 -0.98 10.68 -2 10 C-2.363 8.125 -2.363 8.125 -2.312 6 C-2.307 4.948 -2.307 4.948 -2.301 3.875 C-2 2 -2 2 0 0 Z " fill="#181818" transform="translate(317,607)"/>
<path d="M0 0 C0.66 0 1.32 0 2 0 C3.175 5.268 3.191 10.31 3.188 15.688 C3.188 16.699 3.189 17.71 3.189 18.752 C3.126 27.933 2.27 36.915 1 46 C1.634 46.235 2.268 46.469 2.922 46.711 C5 48 5 48 5.828 50.164 C5.967 50.976 6.107 51.788 6.25 52.625 C6.4 53.442 6.549 54.26 6.703 55.102 C6.801 55.728 6.899 56.355 7 57 C5 56 5 56 4.367 54.152 C4.205 53.421 4.042 52.691 3.875 51.938 C3.624 50.837 3.624 50.837 3.367 49.715 C3.246 49.149 3.125 48.583 3 48 C2.34 48 1.68 48 1 48 C0.963 48.886 0.925 49.771 0.887 50.684 C0.403 59.805 -0.816 68.567 -2.532 77.531 C-3.258 81.36 -3.946 85.196 -4.639 89.031 C-5.421 93.355 -6.211 97.677 -7 102 C-7.66 101.34 -8.32 100.68 -9 100 C-8.71 96.969 -8.297 94.077 -7.77 91.086 C-7.459 89.206 -7.148 87.326 -6.838 85.446 C-6.67 84.455 -6.503 83.464 -6.33 82.443 C-3.788 67.364 -1.445 52.295 -0.062 37.062 C0.111 35.214 0.111 35.214 0.288 33.328 C1.238 22.182 1.531 11.1 0 0 Z " fill="#000000" transform="translate(227,470)"/>
<path d="M0 0 C0.66 0 1.32 0 2 0 C2.193 0.566 2.387 1.132 2.586 1.715 C2.846 2.448 3.107 3.182 3.375 3.938 C3.63 4.668 3.885 5.399 4.148 6.152 C4.853 8.187 4.853 8.187 7 9 C7 9.66 7 10.32 7 11 C7.66 11.33 8.32 11.66 9 12 C8.34 12 7.68 12 7 12 C7 13.98 7 15.96 7 18 C8.65 18.33 10.3 18.66 12 19 C12 19.66 12 20.32 12 21 C11.313 20.928 10.626 20.856 9.918 20.781 C9.017 20.688 8.116 20.596 7.188 20.5 C5.848 20.361 5.848 20.361 4.48 20.219 C1.917 19.956 1.917 19.956 -1 20 C-1.66 23.96 -2.32 27.92 -3 32 C-3.33 32 -3.66 32 -4 32 C-3.08 17.884 -3.08 17.884 -2 11 C-1.748 8.64 -1.509 6.28 -1.281 3.918 C-1 2 -1 2 0 0 Z M14 16 C14.66 16.33 15.32 16.66 16 17 C15.01 17 14.02 17 13 17 C13.33 16.67 13.66 16.34 14 16 Z " fill="#737373" transform="translate(228,518)"/>
<path d="M0 0 C1.396 0.77 2.792 1.541 4.188 2.312 C5.353 2.956 5.353 2.956 6.543 3.613 C8.186 4.541 9.808 5.508 11.406 6.512 C21.381 12.235 32.798 14.211 44 16 C44 16.33 44 16.66 44 17 C37.172 17.22 30.87 16.711 24.188 15.312 C23.323 15.135 22.459 14.958 21.568 14.776 C12.445 12.811 3.957 9.982 -4 5 C-3 2 -3 2 0 0 Z " fill="#FFFFFF" transform="translate(36,183)"/>
<path d="M0 0 C1.646 2.469 2.514 4.147 3.438 6.879 C3.692 7.631 3.947 8.383 4.209 9.158 C4.47 9.951 4.731 10.745 5 11.562 C5.267 12.372 5.534 13.181 5.809 14.014 C10.756 29.285 10.756 29.285 9 35 C8.34 34.34 7.68 33.68 7 33 C6.34 33.66 5.68 34.32 5 35 C2.755 30.807 1.834 26.615 0.812 22 C0.622 21.193 0.432 20.386 0.236 19.555 C0.062 18.774 -0.113 17.992 -0.293 17.188 C-0.533 16.126 -0.533 16.126 -0.778 15.043 C-1.113 11.964 -0.369 9.738 1 7 C0.718 4.66 0.387 2.325 0 0 Z " fill="#282828" transform="translate(318,442)"/>
<path d="M0 0 C2 2 2 2 3.375 5.5 C4.646 9.042 4.646 9.042 7.188 10.438 C7.786 10.623 8.384 10.809 9 11 C9 9.35 9 7.7 9 6 C8.34 6 7.68 6 7 6 C7 5.34 7 4.68 7 4 C11.152 5.465 14.653 7.109 18 10 C18.816 12.766 18.903 15.081 19 18 C16 19 16 19 13.73 18.18 C11.119 16.84 8.546 15.461 6 14 C5.344 13.626 4.688 13.252 4.012 12.867 C2.375 11.75 2.375 11.75 0 9 C-0.476 5.933 -0.362 3.075 0 0 Z " fill="#FFFFFF" transform="translate(84,439)"/>
<path d="M0 0 C-1.98 0.99 -3.96 1.98 -6 3 C-6 5.64 -6 8.28 -6 11 C-2.238 13.32 -2.238 13.32 2 13.812 C2.99 13.41 2.99 13.41 4 13 C5.609 12.474 5.609 12.474 7.25 11.938 C8.157 11.628 9.065 11.319 10 11 C8.736 13.528 7.472 13.764 5 15 C4.67 15.66 4.34 16.32 4 17 C4.598 17.227 5.196 17.454 5.812 17.688 C8.658 19.395 9.523 21.042 11 24 C11.337 26.707 11.337 26.707 11.301 29.598 C11.309 30.646 11.318 31.695 11.326 32.775 C11.317 34.971 11.296 37.166 11.264 39.361 C11.085 44.885 11.085 44.885 13.38 49.636 C15.181 50.913 15.181 50.913 18 52 C13.754 52 11.615 50.182 8 48 C8.99 47.505 8.99 47.505 10 47 C9.948 43.457 9.853 39.917 9.75 36.375 C9.736 35.376 9.722 34.377 9.707 33.348 C9.514 27.509 9.292 23.345 5 19 C2.03 17.23 -1.046 15.912 -4.25 14.625 C-5.09 14.271 -5.931 13.916 -6.797 13.551 C-8.858 12.684 -10.925 11.835 -13 11 C-12.01 10.67 -11.02 10.34 -10 10 C-9.34 10.33 -8.68 10.66 -8 11 C-8 7.7 -8 4.4 -8 1 C-2.25 -1.125 -2.25 -1.125 0 0 Z " fill="#000000" transform="translate(143,504)"/>
<path d="M0 0 C0.33 0.66 0.66 1.32 1 2 C2.98 2 4.96 2 7 2 C7.33 2.66 7.66 3.32 8 4 C5.03 3.67 2.06 3.34 -1 3 C-1.182 4.377 -1.364 5.753 -1.551 7.172 C-2.874 16.942 -4.231 26.516 -7 36 C-7.33 36 -7.66 36 -8 36 C-8.301 28.449 -7.426 21.411 -6 14 C-5.34 14 -4.68 14 -4 14 C-3.963 13.157 -3.925 12.314 -3.887 11.445 C-3.821 10.35 -3.755 9.254 -3.688 8.125 C-3.629 7.034 -3.571 5.944 -3.512 4.82 C-3.343 3.89 -3.174 2.959 -3 2 C-2.01 1.34 -1.02 0.68 0 0 Z " fill="#353535" transform="translate(229,536)"/>
<path d="M0 0 C0.722 0.186 1.444 0.371 2.188 0.562 C5.375 1.224 5.375 1.224 10 0 C10.66 4.29 11.32 8.58 12 13 C7 10 7 10 6.188 7.812 C6.095 6.915 6.095 6.915 6 6 C5.33 9.245 5.33 9.245 6 13 C8.403 15.43 11.089 17.226 14 19 C13.01 19.33 12.02 19.66 11 20 C7.429 17.926 4.506 15.297 3 11.438 C3 8.823 3.35 6.529 4 4 C3.01 3.67 2.02 3.34 1 3 C0.67 2.01 0.34 1.02 0 0 Z " fill="#101010" transform="translate(79,435)"/>
<path d="M0 0 C2.562 -0.25 2.562 -0.25 5 0 C6 1 6 1 6.098 3.066 C6.086 3.89 6.074 4.714 6.062 5.562 C6.053 6.389 6.044 7.215 6.035 8.066 C6.024 8.704 6.012 9.343 6 10 C4.188 11.062 4.188 11.062 2 12 C1.01 11.67 0.02 11.34 -1 11 C-2.25 3.375 -2.25 3.375 0 0 Z " fill="#363636" transform="translate(308,607)"/>
<path d="M0 0 C1.646 2.469 2.514 4.147 3.438 6.879 C3.692 7.631 3.947 8.383 4.209 9.158 C4.47 9.951 4.731 10.745 5 11.562 C5.267 12.372 5.534 13.181 5.809 14.014 C10.756 29.285 10.756 29.285 9 35 C6.267 32.267 6.294 30.043 5.625 26.25 C4.414 19.65 2.746 13.344 0.77 6.926 C0 4 0 4 0 0 Z " fill="#FFFFFF" transform="translate(318,442)"/>
<path d="M0 0 C5.192 -0.212 9.127 0.409 14 2 C14 3.32 14 4.64 14 6 C8.473 6.194 4.244 5.748 -1 4 C-0.67 2.68 -0.34 1.36 0 0 Z " fill="#FFFFFF" transform="translate(43,240)"/>
<path d="M0 0 C0.66 0.99 1.32 1.98 2 3 C-1.773 7.953 -5.908 11.437 -11 15 C-11.66 14.67 -12.32 14.34 -13 14 C-11.567 8.983 -9.094 6.985 -5 4 C-4.34 4 -3.68 4 -3 4 C-3 3.34 -3 2.68 -3 2 C-2.01 1.34 -1.02 0.68 0 0 Z " fill="#1B1B1B" transform="translate(21,424)"/>
<path d="M0 0 C0.66 0 1.32 0 2 0 C2.506 1.268 3.005 2.54 3.5 3.812 C3.918 4.874 3.918 4.874 4.344 5.957 C5 8 5 8 5 11 C1.535 12.485 1.535 12.485 -2 14 C-1.859 12.041 -1.712 10.083 -1.562 8.125 C-1.481 7.034 -1.4 5.944 -1.316 4.82 C-1 2 -1 2 0 0 Z " fill="#FFFFFF" transform="translate(228,518)"/>
<path d="M0 0 C0 0.66 0 1.32 0 2 C-0.701 2.206 -1.403 2.413 -2.125 2.625 C-5.409 4.196 -7.25 6.091 -9.668 8.758 C-11 10 -11 10 -13 10 C-13.268 10.598 -13.536 11.196 -13.812 11.812 C-14.999 13.998 -16.096 15.413 -18 17 C-18.66 17 -19.32 17 -20 17 C-18.341 12.719 -15.216 9.956 -12 6.812 C-11.453 6.267 -10.907 5.721 -10.344 5.158 C-5.128 0 -5.128 0 0 0 Z " fill="#000000" transform="translate(247,555)"/>
<path d="M0 0 C0.33 0.99 0.66 1.98 1 3 C-4.5 8 -4.5 8 -9 8 C-9.33 6.35 -9.66 4.7 -10 3 C-5.05 1.515 -5.05 1.515 0 0 Z " fill="#FFFFFF" transform="translate(168,128)"/>
<path d="M0 0 C2.97 0 5.94 0 9 0 C9 0.66 9 1.32 9 2 C8.01 2 7.02 2 6 2 C6 4.97 6 7.94 6 11 C5.01 11 4.02 11 3 11 C3 8.03 3 5.06 3 2 C2.01 2 1.02 2 0 2 C0 1.34 0 0.68 0 0 Z " fill="#000000" transform="translate(293,607)"/>
<path d="M0 0 C-1.45 3.791 -3.152 7.387 -5 11 C-6.65 10.67 -8.3 10.34 -10 10 C-8.5 6.1 -4.539 0 0 0 Z " fill="#242424" transform="translate(231,376)"/>
<path d="M0 0 C2.813 2.813 2.669 5.096 3 9 C2.562 11.938 2.562 11.938 2 14 C-1.745 10.255 -1.689 6.017 -2 1 C-1.34 0.67 -0.68 0.34 0 0 Z " fill="#2E2E2E" transform="translate(322,463)"/>
<path d="M0 0 C1.062 1.812 1.062 1.812 2 4 C1.67 4.99 1.34 5.98 1 7 C-3.565 6.457 -6.973 5.205 -11 3 C-7.799 1.4 -5.277 2.968 -2 4 C-2 3.01 -2 2.02 -2 1 C-1.34 0.67 -0.68 0.34 0 0 Z " fill="#000000" transform="translate(104,453)"/>
<path d="M0 0 C1.32 0.33 2.64 0.66 4 1 C2.71 2.376 1.373 3.708 0 5 C-0.66 5 -1.32 5 -2 5 C-2.268 5.577 -2.536 6.155 -2.812 6.75 C-4.017 9.033 -5.408 10.974 -7 13 C-7.66 12.67 -8.32 12.34 -9 12 C-8.277 11.078 -8.277 11.078 -7.539 10.137 C-6.907 9.328 -6.276 8.52 -5.625 7.688 C-4.999 6.887 -4.372 6.086 -3.727 5.262 C-2.422 3.553 -1.192 1.788 0 0 Z " fill="#000000" transform="translate(245,559)"/>
<path d="M0 0 C4.701 2.351 8.065 5.682 11 10 C11.672 12.223 11.672 12.223 12 14 C10.333 12.333 8.667 10.667 7 9 C6.113 8.154 5.226 7.309 4.312 6.438 C2.288 4.304 1.097 2.692 0 0 Z " fill="#000000" transform="translate(219,451)"/>
<path d="M0 0 C0.99 0.33 1.98 0.66 3 1 C3 1.66 3 2.32 3 3 C2.34 3 1.68 3 1 3 C1 4.65 1 6.3 1 8 C0.34 8 -0.32 8 -1 8 C-0.67 9.32 -0.34 10.64 0 12 C-1.32 11.67 -2.64 11.34 -4 11 C-2.68 7.37 -1.36 3.74 0 0 Z " fill="#FFFFFF" transform="translate(40,275)"/>
<path d="M0 0 C0 0.66 0 1.32 0 2 C-1.741 3.036 -3.493 4.053 -5.25 5.062 C-6.712 5.915 -6.712 5.915 -8.203 6.785 C-11 8 -11 8 -13.359 7.684 C-13.901 7.458 -14.442 7.232 -15 7 C-12.878 5.828 -10.752 4.662 -8.625 3.5 C-7.72 2.999 -7.72 2.999 -6.797 2.488 C-2.227 0 -2.227 0 0 0 Z " fill="#FFFFFF" transform="translate(340,37)"/>
<path d="M0 0 C0.99 0 1.98 0 3 0 C3.33 3.3 3.66 6.6 4 10 C0.777 7.193 -0.65 5.317 -1 1 C-0.67 0.67 -0.34 0.34 0 0 Z " fill="#FFFFFF" transform="translate(87,438)"/>
<path d="M0 0 C1.32 0 2.64 0 4 0 C3.34 2.31 2.68 4.62 2 7 C0.68 6.34 -0.64 5.68 -2 5 C-1.34 3.35 -0.68 1.7 0 0 Z " fill="#FFFFFF" transform="translate(43,266)"/>
<path d="M0 0 C1.338 0.312 2.671 0.648 4 1 C6.187 0.621 6.187 0.621 8 0 C5.312 2.252 3.354 3.882 0 5 C0 4.34 0 3.68 0 3 C-0.66 2.67 -1.32 2.34 -2 2 C-1.34 1.34 -0.68 0.68 0 0 Z " fill="#171717" transform="translate(165,465)"/>
<path d="M0 0 C1.32 0.33 2.64 0.66 4 1 C4 2.65 4 4.3 4 6 C3.01 6.33 2.02 6.66 1 7 C0.67 4.69 0.34 2.38 0 0 Z " fill="#3C3C3C" transform="translate(101,447)"/>
<path d="M0 0 C0.99 0.66 1.98 1.32 3 2 C-2.75 7 -2.75 7 -5 7 C-3.707 4.116 -2.341 2.128 0 0 Z " fill="#797979" transform="translate(27,419)"/>
<path d="M0 0 C0.33 0.66 0.66 1.32 1 2 C0.066 4.031 -0.932 6.035 -2 8 C-3.65 7.67 -5.3 7.34 -7 7 C-5.71 5.624 -4.373 4.292 -3 3 C-2.34 3 -1.68 3 -1 3 C-0.67 2.01 -0.34 1.02 0 0 Z " fill="#FFFFFF" transform="translate(228,379)"/>
<path d="M0 0 C0.66 0 1.32 0 2 0 C2 0.66 2 1.32 2 2 C2.66 2 3.32 2 4 2 C4 3.65 4 5.3 4 7 C2.68 6.34 1.36 5.68 0 5 C0 3.35 0 1.7 0 0 Z " fill="#FFFFFF" transform="translate(37,236)"/>
<path d="M0 0 C-0.33 1.32 -0.66 2.64 -1 4 C-2.32 3.67 -3.64 3.34 -5 3 C-2.25 0 -2.25 0 0 0 Z " fill="#1A1A1A" transform="translate(33,416)"/>
</svg>
