<?xml version="1.0" encoding="UTF-8"?>
<!-- Generator: visioncortex VTracer 0.6.4 -->
<svg version="1.1" xmlns="http://www.w3.org/2000/svg" width="325" height="311">
<path d="M0 0 C107.25 0 214.5 0 325 0 C325 102.63 325 205.26 325 311 C217.75 311 110.5 311 0 311 C0 208.37 0 105.74 0 0 Z " fill="#FEFEFE" transform="translate(0,0)"/>
<path d="M0 0 C1.048 0.244 2.096 0.487 3.176 0.738 C13.304 3.4 22.052 8.712 31 14 C31 14.66 31 15.32 31 16 C31.99 16 32.98 16 34 16 C34 16.66 34 17.32 34 18 C34.969 18.268 35.939 18.536 36.938 18.812 C37.948 19.204 38.959 19.596 40 20 C40.33 20.99 40.66 21.98 41 23 C43.343 24.121 43.343 24.121 46 25 C48.16 25.953 49.72 26.718 51.385 28.398 C54.271 31.261 57.717 33.395 61.062 35.688 C61.795 36.199 62.528 36.71 63.283 37.236 C63.985 37.719 64.687 38.202 65.41 38.699 C66.051 39.141 66.692 39.583 67.352 40.038 C68.97 41.168 68.97 41.168 71 41 C71 41.99 71 42.98 71 44 C71.684 44.237 72.369 44.474 73.074 44.719 C76.605 46.265 79.666 48.304 82.812 50.5 C83.709 51.105 83.709 51.105 84.623 51.723 C86.121 52.76 87.566 53.875 89 55 C89 55.66 89 56.32 89 57 C89.784 57.309 90.567 57.619 91.375 57.938 C94 59 94 59 96 60 C96 60.66 96 61.32 96 62 C96.598 62.124 97.196 62.248 97.812 62.375 C100 63 100 63 103 65 C103 65.66 103 66.32 103 67 C103.99 67 104.98 67 106 67 C106 67.66 106 68.32 106 69 C107.176 69.464 107.176 69.464 108.375 69.938 C111 71 111 71 113 72 C113 72.66 113 73.32 113 74 C113.835 74.309 113.835 74.309 114.688 74.625 C120.529 78.098 122.832 83.006 124.496 89.359 C126.138 97.962 125.427 106.94 120.418 114.336 C117.388 117.994 114.773 120.843 110 122 C110 122.66 110 123.32 110 124 C103.25 128 103.25 128 101 128 C101 128.66 101 129.32 101 130 C96.615 133 96.615 133 94 133 C94 133.66 94 134.32 94 135 C91.784 136.671 89.562 138.22 87.25 139.75 C85.784 140.737 84.32 141.726 82.855 142.715 C81.679 143.507 81.679 143.507 80.478 144.316 C75.306 147.831 70.206 151.451 65.093 155.052 C60.363 158.373 55.594 161.605 50.73 164.727 C48.86 165.901 48.86 165.901 48 168 C46.613 168.843 45.19 169.626 43.75 170.375 C40.168 172.297 37.168 174.448 34 177 C31.187 178.25 31.187 178.25 29 179 C29 179.66 29 180.32 29 181 C1.805 195.058 -25.446 200.916 -55.625 192.188 C-61.641 190.238 -67.326 187.781 -73 185 C-73.665 184.675 -74.33 184.35 -75.016 184.016 C-76.349 183.355 -77.676 182.68 -79 182 C-79 181.34 -79 180.68 -79 180 C-81.332 178.794 -83.496 177.835 -86 177 C-86 176.34 -86 175.68 -86 175 C-87.32 174.67 -88.64 174.34 -90 174 C-90 173.34 -90 172.68 -90 172 C-90.99 172 -91.98 172 -93 172 C-93 171.34 -93 170.68 -93 170 C-93.784 169.691 -94.567 169.381 -95.375 169.062 C-98 168 -98 168 -100 167 C-100 166.34 -100 165.68 -100 165 C-101.392 164.567 -101.392 164.567 -102.812 164.125 C-106 163 -106 163 -109 161 C-109 160.34 -109 159.68 -109 159 C-109.784 158.691 -110.567 158.381 -111.375 158.062 C-114 157 -114 157 -116 156 C-116 155.34 -116 154.68 -116 154 C-116.784 153.691 -117.567 153.381 -118.375 153.062 C-121 152 -121 152 -123 151 C-123 150.34 -123 149.68 -123 149 C-124.33 148.629 -124.33 148.629 -125.688 148.25 C-129.228 146.914 -131.062 145.373 -134 143 C-137.012 140.873 -140.071 138.816 -143.125 136.75 C-173.537 116.013 -173.537 116.013 -176 105 C-177.226 95.091 -176.817 86.456 -171 78 C-170.34 78 -169.68 78 -169 78 C-169 77.34 -169 76.68 -169 76 C-168.34 76 -167.68 76 -167 76 C-167 75.34 -167 74.68 -167 74 C-165.539 72.711 -165.539 72.711 -163.625 71.375 C-162.999 70.929 -162.372 70.483 -161.727 70.023 C-160 69 -160 69 -158 69 C-158 68.34 -158 67.68 -158 67 C-157.01 67 -156.02 67 -155 67 C-155 66.34 -155 65.68 -155 65 C-153.02 64.505 -153.02 64.505 -151 64 C-151 63.34 -151 62.68 -151 62 C-150.01 62 -149.02 62 -148 62 C-148 61.34 -148 60.68 -148 60 C-143.615 57 -143.615 57 -141 57 C-141 56.34 -141 55.68 -141 55 C-134.25 51 -134.25 51 -132 51 C-131.67 50.01 -131.34 49.02 -131 48 C-130.34 47.34 -129.68 46.68 -129 46 C-127.68 46 -126.36 46 -125 46 C-125 45.34 -125 44.68 -125 44 C-123.206 42.526 -123.206 42.526 -120.672 40.797 C-119.736 40.153 -118.801 39.509 -117.837 38.845 C-116.309 37.808 -116.309 37.808 -114.75 36.75 C-112.636 35.3 -110.523 33.849 -108.41 32.398 C-107.338 31.665 -106.265 30.931 -105.161 30.175 C-102.217 28.149 -99.29 26.101 -96.371 24.039 C-95.495 23.421 -94.62 22.802 -93.718 22.165 C-92.085 21.01 -90.454 19.853 -88.825 18.694 C-62.348 0.035 -31.924 -8.413 0 0 Z " fill="#FEFEFE" transform="translate(189,62)"/>
<path d="M0 0 C0.999 0.782 1.998 1.565 3.027 2.371 C3.027 3.031 3.027 3.691 3.027 4.371 C4.017 4.371 5.007 4.371 6.027 4.371 C6.027 5.031 6.027 5.691 6.027 6.371 C6.687 6.371 7.347 6.371 8.027 6.371 C8.399 7.547 8.399 7.547 8.777 8.746 C10.251 11.84 11.069 11.937 14.027 13.371 C17.027 17.657 17.027 17.657 17.027 20.371 C17.687 20.371 18.347 20.371 19.027 20.371 C30.164 39.784 33.473 61.447 27.674 83.34 C23.998 94.879 17.02 107.256 8.027 115.371 C7.138 116.179 7.138 116.179 6.23 117.004 C1.315 121.371 1.315 121.371 -0.973 121.371 C-0.973 122.031 -0.973 122.691 -0.973 123.371 C-24.983 136.769 -46.011 140.282 -72.66 132.934 C-76.643 131.654 -79.608 129.833 -82.973 127.371 C-83.963 127.041 -84.953 126.711 -85.973 126.371 C-85.973 125.711 -85.973 125.051 -85.973 124.371 C-86.756 124.062 -87.54 123.752 -88.348 123.434 C-90.973 122.371 -90.973 122.371 -92.973 121.371 C-92.973 120.711 -92.973 120.051 -92.973 119.371 C-93.705 119.148 -94.437 118.925 -95.191 118.695 C-98.619 117.063 -100.139 115.162 -102.473 112.184 C-103.25 111.194 -104.027 110.204 -104.828 109.184 C-105.536 108.255 -106.244 107.327 -106.973 106.371 C-107.484 105.711 -107.996 105.051 -108.523 104.371 C-111.581 100.282 -113.844 95.985 -115.973 91.371 C-116.509 90.237 -117.045 89.102 -117.598 87.934 C-120.977 79.178 -121.31 70.829 -121.285 61.496 C-121.301 60.293 -121.317 59.091 -121.334 57.852 C-121.34 47.058 -119.244 37.939 -114.285 28.371 C-113.942 27.698 -113.599 27.024 -113.246 26.33 C-110.093 20.303 -106.546 14.438 -101.973 9.371 C-101.313 9.371 -100.653 9.371 -99.973 9.371 C-99.714 8.778 -99.454 8.185 -99.188 7.574 C-97.885 5.213 -96.58 3.862 -94.535 2.121 C-93.938 1.6 -93.341 1.08 -92.727 0.543 C-90.973 -0.629 -90.973 -0.629 -87.973 -0.629 C-87.973 -1.289 -87.973 -1.949 -87.973 -2.629 C-59.663 -19.985 -27.386 -18.75 0 0 Z " fill="#FFFFFF" transform="translate(208.97265625,97.62890625)"/>
<path d="M0 0 C4.006 3.097 7.774 6.434 11.461 9.902 C12.329 10.699 12.329 10.699 13.215 11.512 C14.461 12.902 14.461 12.902 14.461 14.902 C15.121 14.902 15.781 14.902 16.461 14.902 C16.461 15.892 16.461 16.882 16.461 17.902 C17.121 17.902 17.781 17.902 18.461 17.902 C32.246 35.854 37.622 58.622 35.461 80.902 C34 90.193 32.032 99.618 27.461 107.902 C26.859 109.034 26.257 110.166 25.637 111.332 C25.022 112.469 24.407 113.606 23.773 114.777 C23.151 115.93 22.528 117.082 21.887 118.27 C21.416 119.138 20.946 120.007 20.461 120.902 C19.801 120.902 19.141 120.902 18.461 120.902 C18.234 121.604 18.007 122.305 17.773 123.027 C16.123 126.644 14.17 128.99 11.461 131.902 C10.801 131.902 10.141 131.902 9.461 131.902 C9.131 132.892 8.801 133.882 8.461 134.902 C6.867 136.219 6.867 136.219 4.961 137.465 C2.206 139.219 2.206 139.219 0.461 141.902 C-5.892 145.902 -5.892 145.902 -9.539 145.902 C-9.539 146.562 -9.539 147.222 -9.539 147.902 C-23.348 154.779 -36.768 158.083 -52.102 158.152 C-53.777 158.183 -53.777 158.183 -55.486 158.215 C-69.04 158.278 -82.688 154.569 -94.539 147.902 C-95.701 147.249 -95.701 147.249 -96.887 146.582 C-105.781 141.284 -115.881 133.763 -121.539 124.902 C-121.539 124.242 -121.539 123.582 -121.539 122.902 C-122.199 122.902 -122.859 122.902 -123.539 122.902 C-130.951 110.468 -136.701 98.51 -139.352 84.152 C-139.476 83.48 -139.6 82.807 -139.728 82.114 C-141.226 73.013 -140.597 64.47 -138.789 55.465 C-138.606 54.543 -138.424 53.622 -138.236 52.672 C-135.071 37.275 -128.501 25.045 -118.539 12.902 C-117.776 11.892 -117.013 10.881 -116.227 9.84 C-115.67 9.2 -115.113 8.561 -114.539 7.902 C-113.879 7.902 -113.219 7.902 -112.539 7.902 C-112.539 7.242 -112.539 6.582 -112.539 5.902 C-111.735 5.634 -110.93 5.366 -110.102 5.09 C-108.833 4.502 -108.833 4.502 -107.539 3.902 C-107.044 2.417 -107.044 2.417 -106.539 0.902 C-104.292 -0.683 -102.095 -2.095 -99.727 -3.473 C-99.047 -3.871 -98.368 -4.27 -97.668 -4.68 C-87.346 -10.623 -77.268 -13.996 -65.539 -16.098 C-64.558 -16.285 -63.577 -16.471 -62.566 -16.664 C-40.291 -19.855 -18.049 -13.01 0 0 Z M-94.539 6.902 C-94.539 7.562 -94.539 8.222 -94.539 8.902 C-95.398 9.043 -95.398 9.043 -96.273 9.188 C-99.062 10.067 -100.612 11.4 -102.789 13.34 C-103.495 13.957 -104.202 14.575 -104.93 15.211 C-106.769 16.755 -106.769 16.755 -106.539 18.902 C-107.199 18.902 -107.859 18.902 -108.539 18.902 C-110.211 20.886 -111.728 22.854 -113.227 24.965 C-113.671 25.59 -114.115 26.216 -114.572 26.86 C-124.17 40.787 -127.896 53.947 -127.852 70.777 C-127.868 71.98 -127.884 73.183 -127.9 74.422 C-127.91 92.582 -120.613 106.831 -109.539 120.902 C-109.063 121.543 -108.588 122.184 -108.098 122.844 C-105.601 126.092 -103.498 127.771 -99.539 128.902 C-99.539 129.562 -99.539 130.222 -99.539 130.902 C-96.318 133.218 -96.318 133.218 -92.539 133.902 C-92.539 134.562 -92.539 135.222 -92.539 135.902 C-89.881 137.255 -87.215 138.586 -84.539 139.902 C-83.508 140.418 -82.477 140.934 -81.414 141.465 C-64.14 148.749 -42.785 148.796 -25.289 142.152 C-19.192 139.452 -13.358 136.149 -7.539 132.902 C-7.539 132.242 -7.539 131.582 -7.539 130.902 C-6.947 130.625 -6.356 130.348 -5.746 130.062 C6.806 123.464 15.819 107.84 20.461 94.902 C25.599 75.516 25.228 54.505 15.836 36.465 C15.511 35.829 15.186 35.193 14.852 34.537 C14.06 32.989 13.261 31.445 12.461 29.902 C11.801 29.902 11.141 29.902 10.461 29.902 C10.059 28.789 10.059 28.789 9.648 27.652 C8.508 25.012 7.367 23.047 5.461 20.902 C4.801 20.902 4.141 20.902 3.461 20.902 C2.471 18.427 2.471 18.427 1.461 15.902 C0.801 15.902 0.141 15.902 -0.539 15.902 C-0.539 15.242 -0.539 14.582 -0.539 13.902 C-1.529 13.902 -2.519 13.902 -3.539 13.902 C-3.539 13.242 -3.539 12.582 -3.539 11.902 C-19.419 -2.259 -40.073 -6.428 -60.68 -5.352 C-73.062 -4.25 -84.039 0.465 -94.539 6.902 Z " fill="#FFFFFF" transform="translate(215.5390625,88.09765625)"/>
<path d="M0 0 C1.326 0.681 2.657 1.353 4 2 C4 2.66 4 3.32 4 4 C4.598 4.124 5.196 4.248 5.812 4.375 C8 5 8 5 11 7 C11 7.66 11 8.32 11 9 C11.99 9 12.98 9 14 9 C14 9.66 14 10.32 14 11 C14.66 11 15.32 11 16 11 C18.625 13.375 18.625 13.375 21 16 C21 16.66 21 17.32 21 18 C21.66 18 22.32 18 23 18 C29.105 24.996 33.818 32.738 38 41 C38.391 41.709 38.781 42.418 39.184 43.148 C41.678 47.772 43.741 52.693 44 58 C43.039 60.266 43.039 60.266 42 62 C42.99 62.33 43.98 62.66 45 63 C50.662 77.48 46.083 99.518 40.609 113.57 C37.676 120.225 34.377 127.16 30 133 C29.34 133 28.68 133 28 133 C28 133.99 28 134.98 28 136 C27.34 136 26.68 136 26 136 C25.763 136.561 25.526 137.121 25.281 137.699 C20.787 145.77 11.882 152.422 4 157 C3.34 157 2.68 157 2 157 C2 157.66 2 158.32 2 159 C-5.093 162.829 -12.241 165.798 -20 168 C-20.913 168.269 -20.913 168.269 -21.845 168.544 C-29.16 170.459 -36.545 170.399 -44.062 170.375 C-44.754 170.374 -45.445 170.373 -46.157 170.371 C-68.379 170.266 -90.097 163.263 -106.547 147.57 C-122 131.379 -122 131.379 -122 126 C-122.66 126 -123.32 126 -124 126 C-124.773 124.481 -125.544 122.959 -126.312 121.438 C-126.742 120.591 -127.171 119.744 -127.613 118.871 C-137.835 97.708 -139.039 73.033 -131.641 50.762 C-129.085 43.5 -126.104 36.537 -122 30 C-121.34 30 -120.68 30 -120 30 C-119.732 29.257 -119.464 28.515 -119.188 27.75 C-118.047 25.109 -116.906 23.144 -115 21 C-114.34 21 -113.68 21 -113 21 C-113 20.01 -113 19.02 -113 18 C-112.34 18 -111.68 18 -111 18 C-111 17.34 -111 16.68 -111 16 C-109.28 14.461 -107.498 12.993 -105.688 11.562 C-101.939 8.659 -101.939 8.659 -98.512 5.402 C-96.312 3.361 -93.824 2.292 -91.125 1 C-86.772 -1.094 -86.772 -1.094 -82.605 -3.523 C-79.281 -5.407 -75.822 -6.517 -72.188 -7.625 C-71.514 -7.842 -70.84 -8.058 -70.146 -8.281 C-48.37 -15.033 -19.354 -12.502 0 0 Z M-100 11 C-100 11.66 -100 12.32 -100 13 C-101.65 13.66 -103.3 14.32 -105 15 C-105 15.66 -105 16.32 -105 17 C-105.66 17 -106.32 17 -107 17 C-123.891 34.786 -133.422 57.817 -133.138 82.408 C-132.913 86.626 -132.178 90.684 -131.312 94.812 C-131.132 95.683 -130.951 96.554 -130.765 97.452 C-127.992 110.214 -122.696 120.917 -116 132 C-115.34 132 -114.68 132 -114 132 C-113.75 132.737 -113.5 133.475 -113.242 134.234 C-106.386 149.5 -86.052 158.117 -71.469 163.887 C-62.712 166.697 -54.357 167.359 -45.188 167.312 C-43.457 167.304 -43.457 167.304 -41.692 167.295 C-27.38 167.091 -14.792 163.396 -2 157 C-2 156.34 -2 155.68 -2 155 C-1.464 154.897 -0.928 154.794 -0.375 154.688 C5.353 153.029 8.935 150.278 13 146 C13.763 145.443 14.526 144.886 15.312 144.312 C15.869 143.879 16.426 143.446 17 143 C17 142.34 17 141.68 17 141 C17.66 141 18.32 141 19 141 C20.816 139.056 20.816 139.056 22.625 136.625 C23.257 135.813 23.888 135.001 24.539 134.164 C26.187 132.159 26.187 132.159 26 130 C26.66 130 27.32 130 28 130 C40.512 107.577 47.775 83.914 40.705 58.342 C39.131 53.087 37.293 47.981 35 43 C34.682 42.306 34.363 41.613 34.035 40.898 C31.742 36.127 29.268 31.179 26 27 C25.34 27 24.68 27 24 27 C24 26.01 24 25.02 24 24 C23.34 24 22.68 24 22 24 C22 23.34 22 22.68 22 22 C5.288 3.97 -16.102 -6.667 -40.613 -8.23 C-61.177 -8.686 -84.215 -2.893 -100 11 Z " fill="#FFFFFF" transform="translate(208,79)"/>
<path d="M0 0 C1.048 0.244 2.096 0.487 3.176 0.738 C13.304 3.4 22.052 8.712 31 14 C31 14.66 31 15.32 31 16 C31.99 16 32.98 16 34 16 C34 16.66 34 17.32 34 18 C34.969 18.268 35.939 18.536 36.938 18.812 C37.948 19.204 38.959 19.596 40 20 C40.33 20.99 40.66 21.98 41 23 C43.343 24.121 43.343 24.121 46 25 C48.16 25.953 49.72 26.718 51.385 28.398 C54.271 31.261 57.717 33.395 61.062 35.688 C61.795 36.199 62.528 36.71 63.283 37.236 C63.985 37.719 64.687 38.202 65.41 38.699 C66.051 39.141 66.692 39.583 67.352 40.038 C68.97 41.168 68.97 41.168 71 41 C71 41.99 71 42.98 71 44 C71.684 44.237 72.369 44.474 73.074 44.719 C76.605 46.265 79.666 48.304 82.812 50.5 C83.709 51.105 83.709 51.105 84.623 51.723 C86.121 52.76 87.566 53.875 89 55 C89 55.66 89 56.32 89 57 C89.784 57.309 90.567 57.619 91.375 57.938 C94 59 94 59 96 60 C96 60.66 96 61.32 96 62 C96.598 62.124 97.196 62.248 97.812 62.375 C100 63 100 63 103 65 C103 65.66 103 66.32 103 67 C103.99 67 104.98 67 106 67 C106 67.66 106 68.32 106 69 C107.176 69.464 107.176 69.464 108.375 69.938 C111 71 111 71 113 72 C113 72.66 113 73.32 113 74 C113.835 74.309 113.835 74.309 114.688 74.625 C120.529 78.098 122.832 83.006 124.496 89.359 C126.138 97.962 125.427 106.94 120.418 114.336 C117.388 117.994 114.773 120.843 110 122 C110 122.66 110 123.32 110 124 C103.25 128 103.25 128 101 128 C101 128.66 101 129.32 101 130 C96.615 133 96.615 133 94 133 C94 133.66 94 134.32 94 135 C91.784 136.671 89.562 138.22 87.25 139.75 C85.784 140.737 84.32 141.726 82.855 142.715 C81.679 143.507 81.679 143.507 80.478 144.316 C75.306 147.831 70.206 151.451 65.093 155.052 C60.363 158.373 55.594 161.605 50.73 164.727 C48.86 165.901 48.86 165.901 48 168 C46.613 168.843 45.19 169.626 43.75 170.375 C40.168 172.297 37.168 174.448 34 177 C31.187 178.25 31.187 178.25 29 179 C29 179.66 29 180.32 29 181 C1.805 195.058 -25.446 200.916 -55.625 192.188 C-61.641 190.238 -67.326 187.781 -73 185 C-73.665 184.675 -74.33 184.35 -75.016 184.016 C-76.349 183.355 -77.676 182.68 -79 182 C-79 181.34 -79 180.68 -79 180 C-81.332 178.794 -83.496 177.835 -86 177 C-86 176.34 -86 175.68 -86 175 C-87.32 174.67 -88.64 174.34 -90 174 C-90 173.34 -90 172.68 -90 172 C-90.99 172 -91.98 172 -93 172 C-93 171.34 -93 170.68 -93 170 C-93.784 169.691 -94.567 169.381 -95.375 169.062 C-98 168 -98 168 -100 167 C-100 166.34 -100 165.68 -100 165 C-101.392 164.567 -101.392 164.567 -102.812 164.125 C-106 163 -106 163 -109 161 C-109 160.34 -109 159.68 -109 159 C-109.784 158.691 -110.567 158.381 -111.375 158.062 C-114 157 -114 157 -116 156 C-116 155.34 -116 154.68 -116 154 C-116.784 153.691 -117.567 153.381 -118.375 153.062 C-121 152 -121 152 -123 151 C-123 150.34 -123 149.68 -123 149 C-124.33 148.629 -124.33 148.629 -125.688 148.25 C-129.228 146.914 -131.062 145.373 -134 143 C-137.012 140.873 -140.071 138.816 -143.125 136.75 C-173.537 116.013 -173.537 116.013 -176 105 C-177.226 95.091 -176.817 86.456 -171 78 C-170.34 78 -169.68 78 -169 78 C-169 77.34 -169 76.68 -169 76 C-168.34 76 -167.68 76 -167 76 C-167 75.34 -167 74.68 -167 74 C-165.539 72.711 -165.539 72.711 -163.625 71.375 C-162.999 70.929 -162.372 70.483 -161.727 70.023 C-160 69 -160 69 -158 69 C-158 68.34 -158 67.68 -158 67 C-157.01 67 -156.02 67 -155 67 C-155 66.34 -155 65.68 -155 65 C-153.02 64.505 -153.02 64.505 -151 64 C-151 63.34 -151 62.68 -151 62 C-150.01 62 -149.02 62 -148 62 C-148 61.34 -148 60.68 -148 60 C-143.615 57 -143.615 57 -141 57 C-141 56.34 -141 55.68 -141 55 C-134.25 51 -134.25 51 -132 51 C-131.67 50.01 -131.34 49.02 -131 48 C-130.01 48.33 -129.02 48.66 -128 49 C-129.375 50.5 -129.375 50.5 -131 52 C-131.66 52 -132.32 52 -133 52 C-133 52.66 -133 53.32 -133 54 C-137.385 57 -137.385 57 -140 57 C-140 57.66 -140 58.32 -140 59 C-140.99 59 -141.98 59 -143 59 C-143 59.66 -143 60.32 -143 61 C-149.75 65 -149.75 65 -152 65 C-152 65.66 -152 66.32 -152 67 C-156.385 70 -156.385 70 -159 70 C-159 70.66 -159 71.32 -159 72 C-160.373 73.138 -161.8 74.212 -163.25 75.25 C-169.348 79.883 -172.482 84.409 -174 92 C-174.791 100.483 -173.468 107.23 -168 114 C-168 114.66 -168 115.32 -168 116 C-167.34 116 -166.68 116 -166 116 C-166 116.66 -166 117.32 -166 118 C-165.165 118.383 -165.165 118.383 -164.312 118.773 C-161.669 120.175 -159.397 121.834 -157 123.625 C-153.063 126.525 -149.083 129.31 -145 132 C-140.004 135.292 -135.168 138.755 -130.375 142.336 C-128.299 143.791 -126.299 144.946 -124 146 C-124 146.66 -124 147.32 -124 148 C-123.216 148.309 -122.433 148.619 -121.625 148.938 C-119 150 -119 150 -117 151 C-117 151.66 -117 152.32 -117 153 C-116.257 153.289 -115.515 153.577 -114.75 153.875 C-110.737 155.517 -108.056 156.944 -105 160 C-102.9 161.176 -102.9 161.176 -101 162 C-101 162.66 -101 163.32 -101 164 C-100.216 164.309 -99.433 164.619 -98.625 164.938 C-96 166 -96 166 -94 167 C-94 167.66 -94 168.32 -94 169 C-93.216 169.309 -92.433 169.619 -91.625 169.938 C-89 171 -89 171 -87 172 C-87 172.66 -87 173.32 -87 174 C-86.257 174.289 -85.515 174.577 -84.75 174.875 C-82.433 175.823 -80.221 176.848 -78 178 C-78 178.66 -78 179.32 -78 180 C-77.01 180.371 -77.01 180.371 -76 180.75 C-73 182 -73 182 -69.625 183.812 C-63.414 186.959 -56.677 189.069 -50 191 C-49.351 191.191 -48.702 191.383 -48.033 191.58 C-40.928 193.426 -33.804 193.384 -26.5 193.375 C-25.837 193.375 -25.174 193.375 -24.491 193.375 C-10.695 193.34 1.858 191.971 14 185 C17.909 183.132 21.692 181.653 26 181 C26 180.34 26 179.68 26 179 C27.32 178.67 28.64 178.34 30 178 C30 177.34 30 176.68 30 176 C30.99 176 31.98 176 33 176 C33 175.34 33 174.68 33 174 C34.32 173.67 35.64 173.34 37 173 C37 172.34 37 171.68 37 171 C37.99 171 38.98 171 40 171 C40 170.34 40 169.68 40 169 C44.385 166 44.385 166 47 166 C47 165.34 47 164.68 47 164 C48.622 162.734 48.622 162.734 50.883 161.305 C55.966 158.027 60.924 154.598 65.875 151.125 C67.187 150.206 67.187 150.206 68.526 149.268 C74.012 145.417 79.453 141.512 84.863 137.555 C92.497 132 92.497 132 95 132 C95 131.34 95 130.68 95 130 C99.385 127 99.385 127 102 127 C102 126.34 102 125.68 102 125 C106.385 122 106.385 122 109 122 C109 121.34 109 120.68 109 120 C109.99 120 110.98 120 112 120 C112 119.34 112 118.68 112 118 C112.908 117.319 113.815 116.639 114.75 115.938 C119.888 111.713 121.694 106.909 122.383 100.363 C122.611 92.714 122.072 87.49 118 81 C118 80.34 118 79.68 118 79 C117.34 79 116.68 79 116 79 C116 78.34 116 77.68 116 77 C115.34 77 114.68 77 114 77 C114 76.34 114 75.68 114 75 C112.824 74.536 112.824 74.536 111.625 74.062 C109 73 109 73 107 72 C107 71.34 107 70.68 107 70 C105.824 69.536 105.824 69.536 104.625 69.062 C102 68 102 68 100 67 C100 66.34 100 65.68 100 65 C99.348 64.791 98.695 64.582 98.023 64.367 C93.833 62.472 90.331 59.827 86.625 57.125 C81.548 53.439 76.51 50.009 71 47 C70.01 47.99 70.01 47.99 69 49 C69.33 47.35 69.66 45.7 70 44 C69.288 43.751 68.577 43.502 67.844 43.246 C64.687 41.863 62.25 40.136 59.5 38.062 C56.764 36.007 54.127 34.073 51.156 32.371 C50.445 31.919 49.733 31.466 49 31 C49 30.34 49 29.68 49 29 C47.824 28.536 47.824 28.536 46.625 28.062 C44 27 44 27 42 26 C42 25.34 42 24.68 42 24 C40.824 23.536 40.824 23.536 39.625 23.062 C37 22 37 22 35 21 C35 20.34 35 19.68 35 19 C33.824 18.536 33.824 18.536 32.625 18.062 C30 17 30 17 28 16 C28 15.34 28 14.68 28 14 C25.69 13.34 23.38 12.68 21 12 C21 11.34 21 10.68 21 10 C20.286 9.884 19.572 9.768 18.836 9.648 C15.851 8.966 13.402 7.908 10.625 6.625 C3.554 3.597 -3.443 2.268 -11 1 C-12.458 0.72 -12.458 0.72 -13.945 0.434 C-46.307 -4.16 -71.977 10.021 -97.337 28.109 C-100.065 30.046 -102.805 31.963 -105.551 33.875 C-106.453 34.503 -107.355 35.132 -108.285 35.779 C-110.011 36.98 -111.738 38.181 -113.465 39.381 C-117.415 42.139 -121.287 44.924 -125 48 C-124.34 49.32 -123.68 50.64 -123 52 C-123.66 52 -124.32 52 -125 52 C-125.289 51.196 -125.578 50.391 -125.875 49.562 C-126.733 46.867 -126.733 46.867 -129 46 C-127.68 46 -126.36 46 -125 46 C-125 45.34 -125 44.68 -125 44 C-123.206 42.526 -123.206 42.526 -120.672 40.797 C-119.736 40.153 -118.801 39.509 -117.837 38.845 C-116.309 37.808 -116.309 37.808 -114.75 36.75 C-112.636 35.3 -110.523 33.849 -108.41 32.398 C-107.338 31.665 -106.265 30.931 -105.161 30.175 C-102.217 28.149 -99.29 26.101 -96.371 24.039 C-95.495 23.421 -94.62 22.802 -93.718 22.165 C-92.085 21.01 -90.454 19.853 -88.825 18.694 C-62.348 0.035 -31.924 -8.413 0 0 Z " fill="#000000" transform="translate(189,62)"/>
<path d="M0 0 C1.1 0.004 2.2 0.008 3.333 0.013 C11.212 0.122 18.104 0.862 25.625 3.312 C26.562 3.556 27.499 3.8 28.465 4.051 C35.141 5.942 40.911 8.964 46.875 12.438 C48.021 13.104 48.021 13.104 49.19 13.783 C51.041 14.897 52.839 16.098 54.625 17.312 C54.625 17.972 54.625 18.632 54.625 19.312 C55.32 19.519 56.015 19.725 56.73 19.938 C60.553 21.754 63.015 24.301 65.938 27.312 C66.487 27.859 67.037 28.406 67.604 28.969 C71.625 33.045 71.625 33.045 71.625 35.312 C72.285 35.312 72.945 35.312 73.625 35.312 C80.577 43.108 86.095 54.194 88.625 64.312 C89.945 60.023 91.265 55.733 92.625 51.312 C93.687 55.56 93.442 56.588 92.125 60.562 C90.636 65.674 90.604 69.169 91.625 74.312 C95.281 99.617 91.624 125.352 76.375 146.375 C75.127 148.022 73.877 149.668 72.625 151.312 C71.965 152.303 71.305 153.292 70.625 154.312 C69.965 154.312 69.305 154.312 68.625 154.312 C68.357 154.952 68.089 155.591 67.812 156.25 C66.625 158.312 66.625 158.312 63.625 159.312 C63.625 159.972 63.625 160.632 63.625 161.312 C62.965 161.312 62.305 161.312 61.625 161.312 C61.38 161.905 61.135 162.498 60.883 163.109 C55.246 172.982 36.99 179.511 26.562 182.688 C0.582 189.383 -25 186.414 -48.375 173.312 C-49.31 172.799 -50.244 172.286 -51.207 171.758 C-51.922 171.281 -52.638 170.804 -53.375 170.312 C-53.375 169.653 -53.375 168.993 -53.375 168.312 C-54.427 167.972 -54.427 167.972 -55.5 167.625 C-59.116 165.974 -61.463 164.022 -64.375 161.312 C-64.375 160.653 -64.375 159.993 -64.375 159.312 C-64.951 159.082 -65.527 158.851 -66.121 158.613 C-68.944 156.984 -70.439 155.068 -72.438 152.5 C-73.109 151.648 -73.781 150.796 -74.473 149.918 C-79.375 143.204 -79.375 143.204 -79.375 140.312 C-80.035 140.312 -80.695 140.312 -81.375 140.312 C-92.548 116.71 -97.429 89.891 -89.516 64.285 C-88.041 60.442 -86.432 56.873 -84.375 53.312 C-83.767 52.023 -83.163 50.731 -82.562 49.438 C-78.647 41.697 -73.359 35.086 -67.562 28.688 C-67.082 28.154 -66.602 27.621 -66.107 27.071 C-64.907 25.776 -63.645 24.539 -62.375 23.312 C-61.715 23.312 -61.055 23.312 -60.375 23.312 C-60.375 22.653 -60.375 21.993 -60.375 21.312 C-43.217 7.106 -22.142 -0.116 0 0 Z M-22.375 4.312 C-23.392 4.569 -24.409 4.826 -25.457 5.09 C-33.778 7.39 -40.906 11.047 -48.375 15.312 C-49.075 15.63 -49.775 15.947 -50.496 16.273 C-52.894 17.599 -54.465 19.353 -56.375 21.312 C-58.997 23.418 -61.659 25.463 -64.328 27.508 C-65.004 28.103 -65.679 28.699 -66.375 29.312 C-66.375 29.972 -66.375 30.632 -66.375 31.312 C-67.035 31.312 -67.695 31.312 -68.375 31.312 C-68.375 32.302 -68.375 33.293 -68.375 34.312 C-69.035 34.312 -69.695 34.312 -70.375 34.312 C-71.736 35.799 -71.736 35.799 -73 37.688 C-73.446 38.314 -73.892 38.94 -74.352 39.586 C-75.545 41.265 -75.545 41.265 -75.375 43.312 C-76.035 43.312 -76.695 43.312 -77.375 43.312 C-89.263 65.856 -94.536 87.668 -89.625 112.938 C-89.468 113.754 -89.311 114.571 -89.15 115.412 C-87.979 120.877 -86.019 125.413 -83.375 130.312 C-82.611 131.973 -81.858 133.638 -81.125 135.312 C-80.622 136.457 -80.622 136.457 -80.109 137.625 C-79.867 138.182 -79.625 138.739 -79.375 139.312 C-78.715 139.312 -78.055 139.312 -77.375 139.312 C-77.263 139.896 -77.151 140.48 -77.035 141.082 C-73.068 154.488 -56.39 166.378 -44.918 172.941 C-24.322 184.046 1.647 187.554 24.625 181.75 C32.289 179.402 39.503 175.955 46.625 172.312 C46.625 171.653 46.625 170.993 46.625 170.312 C47.352 170.056 48.079 169.799 48.828 169.535 C57.157 165.894 64.761 158.14 70.625 151.312 C70.625 150.653 70.625 149.993 70.625 149.312 C71.285 149.312 71.945 149.312 72.625 149.312 C72.625 148.322 72.625 147.333 72.625 146.312 C73.285 146.312 73.945 146.312 74.625 146.312 C81.128 138.401 84.495 128.905 87.625 119.312 C88.139 117.827 88.139 117.827 88.664 116.312 C91.83 105.425 93.831 86.978 89.625 76.312 C88.635 75.983 87.645 75.653 86.625 75.312 C86.968 74.74 87.311 74.168 87.664 73.578 C89.324 69.664 87.886 66.226 86.625 62.312 C85.473 59.536 84.076 56.943 82.625 54.312 C81.958 53.011 81.958 53.011 81.277 51.684 C78.353 46.077 75.14 41.088 71.141 36.188 C69.625 34.312 69.625 34.312 67.625 31.312 C66.965 31.312 66.305 31.312 65.625 31.312 C65.625 30.653 65.625 29.993 65.625 29.312 C63.292 26.646 63.292 26.646 60.625 24.312 C59.965 24.312 59.305 24.312 58.625 24.312 C58.625 23.653 58.625 22.993 58.625 22.312 C57.635 22.312 56.645 22.312 55.625 22.312 C55.625 21.653 55.625 20.993 55.625 20.312 C53.064 18.016 52.145 17.312 48.625 17.312 C48.625 16.653 48.625 15.993 48.625 15.312 C45.967 13.959 43.303 12.626 40.625 11.312 C39.769 10.892 38.913 10.472 38.031 10.039 C19.98 1.48 -2.933 -1.029 -22.375 4.312 Z " fill="#000000" transform="translate(163.375,65.6875)"/>
<path d="M0 0 C4.006 3.097 7.774 6.434 11.461 9.902 C12.329 10.699 12.329 10.699 13.215 11.512 C14.461 12.902 14.461 12.902 14.461 14.902 C15.121 14.902 15.781 14.902 16.461 14.902 C16.461 15.892 16.461 16.882 16.461 17.902 C17.121 17.902 17.781 17.902 18.461 17.902 C32.246 35.854 37.622 58.622 35.461 80.902 C34 90.193 32.032 99.618 27.461 107.902 C26.859 109.034 26.257 110.166 25.637 111.332 C25.022 112.469 24.407 113.606 23.773 114.777 C23.151 115.93 22.528 117.082 21.887 118.27 C21.416 119.138 20.946 120.007 20.461 120.902 C19.801 120.902 19.141 120.902 18.461 120.902 C18.234 121.604 18.007 122.305 17.773 123.027 C16.123 126.644 14.17 128.99 11.461 131.902 C10.801 131.902 10.141 131.902 9.461 131.902 C9.131 132.892 8.801 133.882 8.461 134.902 C6.867 136.219 6.867 136.219 4.961 137.465 C2.206 139.219 2.206 139.219 0.461 141.902 C-5.892 145.902 -5.892 145.902 -9.539 145.902 C-9.539 146.562 -9.539 147.222 -9.539 147.902 C-23.348 154.779 -36.768 158.083 -52.102 158.152 C-53.777 158.183 -53.777 158.183 -55.486 158.215 C-69.04 158.278 -82.688 154.569 -94.539 147.902 C-95.701 147.249 -95.701 147.249 -96.887 146.582 C-105.781 141.284 -115.881 133.763 -121.539 124.902 C-121.539 124.242 -121.539 123.582 -121.539 122.902 C-122.199 122.902 -122.859 122.902 -123.539 122.902 C-130.951 110.468 -136.701 98.51 -139.352 84.152 C-139.476 83.48 -139.6 82.807 -139.728 82.114 C-141.226 73.013 -140.597 64.47 -138.789 55.465 C-138.606 54.543 -138.424 53.622 -138.236 52.672 C-135.071 37.275 -128.501 25.045 -118.539 12.902 C-117.776 11.892 -117.013 10.881 -116.227 9.84 C-115.67 9.2 -115.113 8.561 -114.539 7.902 C-113.879 7.902 -113.219 7.902 -112.539 7.902 C-112.539 7.242 -112.539 6.582 -112.539 5.902 C-111.735 5.634 -110.93 5.366 -110.102 5.09 C-108.833 4.502 -108.833 4.502 -107.539 3.902 C-107.044 2.417 -107.044 2.417 -106.539 0.902 C-104.292 -0.683 -102.095 -2.095 -99.727 -3.473 C-99.047 -3.871 -98.368 -4.27 -97.668 -4.68 C-87.346 -10.623 -77.268 -13.996 -65.539 -16.098 C-64.558 -16.285 -63.577 -16.471 -62.566 -16.664 C-40.291 -19.855 -18.049 -13.01 0 0 Z M-79.539 -11.098 C-80.327 -10.844 -81.114 -10.59 -81.926 -10.328 C-93.242 -6.232 -105.522 0.842 -113.539 9.902 C-113.539 10.562 -113.539 11.222 -113.539 11.902 C-114.199 11.902 -114.859 11.902 -115.539 11.902 C-117.338 13.97 -119.011 16.036 -120.664 18.215 C-121.132 18.81 -121.6 19.405 -122.082 20.018 C-124.889 23.549 -124.889 23.549 -125.539 27.902 C-126.199 27.902 -126.859 27.902 -127.539 27.902 C-139.153 51.83 -140.755 76.087 -132.758 101.562 C-130.807 106.909 -128.242 111.902 -125.539 116.902 C-124.879 116.902 -124.219 116.902 -123.539 116.902 C-123.075 118.078 -123.075 118.078 -122.602 119.277 C-121.61 121.826 -121.61 121.826 -120.539 123.902 C-119.879 123.902 -119.219 123.902 -118.539 123.902 C-118.312 124.439 -118.085 124.975 -117.852 125.527 C-115.537 129.715 -113.077 133.15 -108.727 135.277 C-108.005 135.484 -107.283 135.69 -106.539 135.902 C-106.539 136.562 -106.539 137.222 -106.539 137.902 C-91.848 151.003 -69.577 157.624 -50.211 157.086 C-31.496 155.8 -15.916 150.536 -0.539 139.902 C-0.539 139.242 -0.539 138.582 -0.539 137.902 C0.05 137.629 0.639 137.356 1.246 137.074 C7.025 134.016 11.577 129.08 15.461 123.902 C15.461 123.242 15.461 122.582 15.461 121.902 C16.121 121.902 16.781 121.902 17.461 121.902 C25.414 110.423 29.968 98.546 32.461 84.902 C32.647 84.113 32.832 83.325 33.023 82.512 C35.678 66.677 33.459 45.399 24.461 31.902 C23.707 30.488 22.958 29.071 22.211 27.652 C19.483 22.719 16.327 18.022 12.461 13.902 C11.801 13.902 11.141 13.902 10.461 13.902 C10.121 12.727 10.121 12.727 9.773 11.527 C8.68 8.684 8.68 8.684 5.836 7.59 C4.66 7.25 4.66 7.25 3.461 6.902 C3.461 6.242 3.461 5.582 3.461 4.902 C-19.116 -14.669 -51.259 -20.248 -79.539 -11.098 Z " fill="#000000" transform="translate(215.5390625,88.09765625)"/>
<path d="M0 0 C23.283 -0.501 42.233 7.382 59.078 23.051 C60.957 25.117 60.957 25.117 60.957 27.117 C61.617 27.117 62.277 27.117 62.957 27.117 C62.957 27.777 62.957 28.437 62.957 29.117 C63.617 29.117 64.277 29.117 64.957 29.117 C64.957 30.107 64.957 31.097 64.957 32.117 C65.617 32.117 66.277 32.117 66.957 32.117 C67.287 33.437 67.617 34.757 67.957 36.117 C68.617 36.117 69.277 36.117 69.957 36.117 C81 56.975 84.448 78.597 78.109 101.516 C76.764 105.72 75.168 109.305 72.957 113.117 C72.627 114.107 72.297 115.097 71.957 116.117 C71.297 116.117 70.637 116.117 69.957 116.117 C69.863 116.683 69.769 117.249 69.672 117.832 C68.787 120.662 67.387 122.385 65.52 124.68 C63.546 127.123 61.702 129.5 59.957 132.117 C59.297 132.117 58.637 132.117 57.957 132.117 C57.627 133.107 57.297 134.097 56.957 135.117 C54.702 137.019 52.468 138.77 50.082 140.492 C49.399 140.985 48.717 141.478 48.014 141.987 C33.137 152.503 13.027 158.552 -5.238 155.785 C-18.949 153.274 -31.487 149.179 -43.043 141.117 C-43.043 140.457 -43.043 139.797 -43.043 139.117 C-43.771 138.876 -44.5 138.635 -45.25 138.387 C-48.422 136.945 -50.285 135.275 -52.73 132.805 C-53.497 132.045 -54.264 131.286 -55.055 130.504 C-57.058 128.099 -58.066 126.07 -59.043 123.117 C-59.703 123.117 -60.363 123.117 -61.043 123.117 C-73.004 99.98 -79.207 78.096 -71.043 52.117 C-67.35 42.898 -62.55 34.634 -56.043 27.117 C-55.28 26.107 -54.517 25.096 -53.73 24.055 C-53.174 23.415 -52.617 22.776 -52.043 22.117 C-51.383 22.117 -50.723 22.117 -50.043 22.117 C-50.043 21.457 -50.043 20.797 -50.043 20.117 C-48.393 19.457 -46.743 18.797 -45.043 18.117 C-45.043 17.457 -45.043 16.797 -45.043 16.117 C-40.658 13.117 -40.658 13.117 -38.043 13.117 C-38.043 12.457 -38.043 11.797 -38.043 11.117 C-25.9 4.403 -13.832 0.533 0 0 Z M-39.043 14.117 C-39.043 14.777 -39.043 15.437 -39.043 16.117 C-39.901 16.258 -39.901 16.258 -40.777 16.402 C-43.566 17.282 -45.116 18.615 -47.293 20.555 C-47.999 21.172 -48.706 21.79 -49.434 22.426 C-51.273 23.97 -51.273 23.97 -51.043 26.117 C-51.703 26.117 -52.363 26.117 -53.043 26.117 C-54.715 28.101 -56.232 30.069 -57.73 32.18 C-58.175 32.805 -58.619 33.431 -59.076 34.075 C-68.674 48.002 -72.4 61.162 -72.355 77.992 C-72.372 79.195 -72.388 80.398 -72.404 81.637 C-72.414 99.796 -65.117 114.046 -54.043 128.117 C-53.567 128.758 -53.092 129.399 -52.602 130.059 C-50.105 133.307 -48.002 134.986 -44.043 136.117 C-44.043 136.777 -44.043 137.437 -44.043 138.117 C-40.822 140.433 -40.822 140.433 -37.043 141.117 C-37.043 141.777 -37.043 142.437 -37.043 143.117 C-34.384 144.47 -31.719 145.801 -29.043 147.117 C-28.012 147.633 -26.98 148.148 -25.918 148.68 C-8.644 155.963 12.711 156.011 30.207 149.367 C36.304 146.667 42.138 143.364 47.957 140.117 C47.957 139.457 47.957 138.797 47.957 138.117 C48.549 137.84 49.14 137.563 49.75 137.277 C62.302 130.679 71.315 115.055 75.957 102.117 C81.095 82.731 80.724 61.72 71.332 43.68 C71.007 43.044 70.682 42.407 70.348 41.752 C69.556 40.204 68.757 38.66 67.957 37.117 C67.297 37.117 66.637 37.117 65.957 37.117 C65.555 36.003 65.555 36.003 65.145 34.867 C64.004 32.227 62.863 30.262 60.957 28.117 C60.297 28.117 59.637 28.117 58.957 28.117 C57.967 25.642 57.967 25.642 56.957 23.117 C56.297 23.117 55.637 23.117 54.957 23.117 C54.957 22.457 54.957 21.797 54.957 21.117 C53.967 21.117 52.977 21.117 51.957 21.117 C51.957 20.457 51.957 19.797 51.957 19.117 C36.077 4.956 15.424 0.787 -5.184 1.863 C-17.566 2.964 -28.543 7.68 -39.043 14.117 Z " fill="#000000" transform="translate(160.04296875,80.8828125)"/>
<path d="M0 0 C4.107 2.201 6.89 4.652 8.594 8.988 C9.573 16.041 9.25 21.412 4.906 27.238 C1.362 30.585 -2.294 31.505 -7.094 31.738 C-11.921 31.489 -15.591 30.697 -19.094 27.238 C-22.16 22.932 -24.577 18.455 -24.219 13.051 C-22.542 7.367 -20.222 3.773 -15.406 0.301 C-10.285 -1.342 -5.144 -1.871 0 0 Z " fill="#FFFFFF" transform="translate(49.09375,143.76171875)"/>
<path d="M0 0 C4.286 2.638 6.45 5.305 8.25 10 C9.088 14.361 9.15 18.143 7.188 22.191 C5.875 24.125 5.875 24.125 3.25 27 C2.59 27 1.93 27 1.25 27 C1.25 27.66 1.25 28.32 1.25 29 C-3.309 31.353 -7.733 31.827 -12.75 31 C-17.334 29.006 -21.24 26.398 -23.75 22 C-24.113 18.688 -24.113 18.688 -24.062 15 C-24.059 13.783 -24.055 12.566 -24.051 11.312 C-23.767 8.189 -23.545 6.523 -21.75 4 C-14.826 -1.562 -8.343 -2.225 0 0 Z " fill="#FFFFFF" transform="translate(292.75,144)"/>
<path d="M0 0 C2.625 -0.188 2.625 -0.188 5 0 C5.66 1.32 6.32 2.64 7 4 C7.66 2.68 8.32 1.36 9 0 C10.98 0 12.96 0 15 0 C15.33 1.65 15.66 3.3 16 5 C16.66 5 17.32 5 18 5 C18.33 3.35 18.66 1.7 19 0 C20.98 0 22.96 0 25 0 C25.33 1.32 25.66 2.64 26 4 C24.02 3.34 22.04 2.68 20 2 C21.392 4.784 23.156 4.979 26 6 C26.125 8.375 26.125 8.375 26 11 C25.34 11.66 24.68 12.32 24 13 C20.875 12.625 20.875 12.625 18 12 C18 10.68 18 9.36 18 8 C17.34 8 16.68 8 16 8 C15.67 9.32 15.34 10.64 15 12 C12.625 12.625 12.625 12.625 10 13 C9.34 12.34 8.68 11.68 8 11 C8 10.01 8 9.02 8 8 C7.34 8 6.68 8 6 8 C5.67 9.65 5.34 11.3 5 13 C2.625 13.188 2.625 13.188 0 13 C-2.458 9.313 -2.311 7.357 -2 3 C-1.34 2.01 -0.68 1.02 0 0 Z " fill="#000000" transform="translate(266,291)"/>
<path d="M0 0 C0 0.66 0 1.32 0 2 C0.598 2.227 1.196 2.454 1.812 2.688 C4.75 4.45 5.598 5.861 7 9 C8.594 16.083 7.797 20.84 4.188 27.188 C0.65 31.736 -2.319 33.071 -7.938 33.812 C-13.536 34.211 -17.107 32.908 -22.125 30.5 C-26.562 26.642 -28.728 21.708 -29.16 15.816 C-28.752 10.703 -26.906 7.084 -24 3 C-21.062 0.688 -21.062 0.688 -18 -1 C-17.216 -1.433 -16.433 -1.866 -15.625 -2.312 C-10.235 -3.724 -4.968 -2.329 0 0 Z M-25.227 6.742 C-27.101 12.213 -27.365 19.783 -25.09 25.145 C-22.41 28.548 -19.034 30.604 -15 32 C-9.943 32.564 -5.598 32.373 -1 30 C-1 29.34 -1 28.68 -1 28 C-0.01 27.67 0.98 27.34 2 27 C5.853 22.706 6.698 19.126 6.445 13.535 C5.694 9.258 3.977 6.142 1 3 C-7.23 -2.065 -19.194 -1.827 -25.227 6.742 Z " fill="#000000" transform="translate(295,143)"/>
<path d="M0 0 C4.297 3.711 6.737 6.618 7.184 12.363 C7.3 16.996 7.232 20.815 5 25 C4.34 25 3.68 25 3 25 C2.67 25.99 2.34 26.98 2 28 C1.34 28 0.68 28 0 28 C0 28.66 0 29.32 0 30 C-6.218 32.602 -11.385 33.813 -18 32 C-22.93 29.535 -26.857 26.137 -29 21 C-29.938 14.407 -29.739 8.609 -26 3 C-25.34 3 -24.68 3 -24 3 C-24 2.34 -24 1.68 -24 1 C-15.393 -4.131 -9.254 -5.633 0 0 Z M-25.375 5.75 C-27.846 10.692 -28.84 14.331 -27.184 19.594 C-25.058 24.365 -22.888 28.218 -18.02 30.445 C-12.642 31.922 -7.206 31.942 -2.125 29.5 C1.763 26.89 3.649 23.416 5 19 C5.931 13.444 4.727 8.89 2 4 C-2.863 -0.62 -6.931 -1.363 -13.43 -1.277 C-18.742 -0.704 -21.884 1.708 -25.375 5.75 Z " fill="#000000" transform="translate(53,144)"/>
<path d="M0 0 C2.625 -0.188 2.625 -0.188 5 0 C7.83 3.996 6.762 7.427 6 12 C3.688 12.688 3.688 12.688 1 13 C-0.812 12 -0.812 12 -2 10 C-2.39 5.633 -2.463 3.695 0 0 Z " fill="#000000" transform="translate(256,291)"/>
<path d="M0 0 C2.438 0.75 2.438 0.75 4.438 2.75 C4.812 5.168 4.812 5.168 4.438 7.75 C2.688 9.551 2.688 9.551 0.438 11.062 C-0.305 11.574 -1.048 12.086 -1.812 12.613 C-2.39 12.988 -2.967 13.364 -3.562 13.75 C-0.923 14.08 1.717 14.41 4.438 14.75 C4.438 15.41 4.438 16.07 4.438 16.75 C0.478 16.75 -3.483 16.75 -7.562 16.75 C-5.438 11.438 -3.8 10.267 0.438 6.75 C1.382 4.585 1.382 4.585 1.438 2.75 C-1.035 3.094 -1.035 3.094 -3.562 3.75 C-3.892 4.41 -4.223 5.07 -4.562 5.75 C-5.223 5.75 -5.882 5.75 -6.562 5.75 C-6.25 3.875 -6.25 3.875 -5.562 1.75 C-2.562 -0.25 -2.562 -0.25 0 0 Z " fill="#000000" transform="translate(268.5625,50.25)"/>
<path d="M0 0 C3 0.125 3 0.125 4 1.125 C4.125 2.767 4.176 4.416 4.188 6.062 C4.202 6.958 4.216 7.854 4.23 8.777 C4 11.125 4 11.125 2 13.125 C-0.625 12.75 -0.625 12.75 -3 12.125 C-3 11.135 -3 10.145 -3 9.125 C-1.02 9.62 -1.02 9.62 1 10.125 C1.33 9.465 1.66 8.805 2 8.125 C1.196 8.146 0.391 8.166 -0.438 8.188 C-3 8.125 -3 8.125 -4 7.125 C-4.125 4.125 -4.125 4.125 -4 1.125 C-3 0.125 -3 0.125 0 0 Z " fill="#000000" transform="translate(307,290.875)"/>
<path d="M0 0 C1.392 0.34 1.392 0.34 2.812 0.688 C3.143 2.007 3.472 3.327 3.812 4.688 C3.153 4.688 2.493 4.688 1.812 4.688 C1.482 4.027 1.153 3.368 0.812 2.688 C-1.212 2.035 -1.212 2.035 -3.188 1.688 C-3.188 3.007 -3.188 4.327 -3.188 5.688 C-0.877 6.017 1.433 6.348 3.812 6.688 C3.938 9.062 3.938 9.062 3.812 11.688 C1.812 13.688 1.812 13.688 -1.188 13.938 C-4.188 13.688 -4.188 13.688 -6.188 11.688 C-6.188 10.697 -6.188 9.707 -6.188 8.688 C-5.528 8.688 -4.868 8.688 -4.188 8.688 C-3.857 9.348 -3.528 10.007 -3.188 10.688 C-1.868 10.688 -0.548 10.688 0.812 10.688 C0.812 10.027 0.812 9.368 0.812 8.688 C-0.642 8.316 -0.642 8.316 -2.125 7.938 C-5.188 6.688 -5.188 6.688 -6.25 4.75 C-6.188 2.688 -6.188 2.688 -5.125 0.875 C-3.188 -0.312 -3.188 -0.312 0 0 Z " fill="#000000" transform="translate(244.1875,290.3125)"/>
<path d="M0 0 C2.375 -0.125 2.375 -0.125 5 0 C5.66 0.66 6.32 1.32 7 2 C6.938 4.438 6.938 4.438 6 7 C3.438 8.812 3.438 8.812 1 10 C3.97 10.495 3.97 10.495 7 11 C7 11.66 7 12.32 7 13 C4.03 13 1.06 13 -2 13 C-1.34 11.02 -0.68 9.04 0 7 C0.99 7 1.98 7 3 7 C3 6.34 3 5.68 3 5 C3.66 5 4.32 5 5 5 C4.01 4.01 3.02 3.02 2 2 C1.01 2.99 0.02 3.98 -1 5 C-0.67 3.35 -0.34 1.7 0 0 Z " fill="#000000" transform="translate(295,291)"/>
<path d="M0 0 C0 5.61 0 11.22 0 17 C-0.99 17 -1.98 17 -3 17 C-3 13.37 -3 9.74 -3 6 C-3.99 6 -4.98 6 -6 6 C-4.902 2.707 -3.783 0 0 0 Z " fill="#000000" transform="translate(19,52)"/>
<path d="M0 0 C0.99 0.33 1.98 0.66 3 1 C3.054 2.625 3.093 4.25 3.125 5.875 C3.148 6.78 3.171 7.685 3.195 8.617 C3 11 3 11 1 13 C-1.625 12.625 -1.625 12.625 -4 12 C-4 11.01 -4 10.02 -4 9 C-2.02 9.495 -2.02 9.495 0 10 C0.33 9.34 0.66 8.68 1 8 C0.34 7.67 -0.32 7.34 -1 7 C-0.835 6.216 -0.67 5.433 -0.5 4.625 C0.062 2.118 0.062 2.118 0 0 Z " fill="#000000" transform="translate(308,291)"/>
<path d="M0 0 C0.99 0.66 1.98 1.32 3 2 C3.188 5.625 3.188 5.625 3 9 C1.68 9 0.36 9 -1 9 C-1.33 8.67 -1.66 8.34 -2 8 C-1.28 1.28 -1.28 1.28 0 0 Z " fill="#FFFFFF" transform="translate(258,292)"/>
<path d="M0 0 C0.99 0.33 1.98 0.66 3 1 C3 3.97 3 6.94 3 10 C1.68 10 0.36 10 -1 10 C-1.027 8.521 -1.046 7.042 -1.062 5.562 C-1.074 4.739 -1.086 3.915 -1.098 3.066 C-1 1 -1 1 0 0 Z " fill="#FFFFFF" transform="translate(277,292)"/>
<path d="M0 0 C0.66 0.33 1.32 0.66 2 1 C2 3.97 2 6.94 2 10 C1.01 10 0.02 10 -1 10 C-2.25 3.375 -2.25 3.375 0 0 Z " fill="#FFFFFF" transform="translate(268,292)"/>
<path d="M0 0 C1.32 0.66 2.64 1.32 4 2 C4.125 4.375 4.125 4.375 4 7 C3.34 7.66 2.68 8.32 2 9 C-1.125 8.625 -1.125 8.625 -4 8 C-4 7.34 -4 6.68 -4 6 C-2.35 6 -0.7 6 1 6 C1 5.01 1 4.02 1 3 C0.34 2.34 -0.32 1.68 -1 1 C-0.67 0.67 -0.34 0.34 0 0 Z " fill="#000000" transform="translate(288,295)"/>
<path d="M0 0 C1.98 0.495 1.98 0.495 4 1 C3.67 2.32 3.34 3.64 3 5 C1.68 4.67 0.36 4.34 -1 4 C-0.67 2.68 -0.34 1.36 0 0 Z " fill="#FFFFFF" transform="translate(286,297)"/>
<path d="M0 0 C0.99 0.33 1.98 0.66 3 1 C2.67 2.65 2.34 4.3 2 6 C1.01 5.67 0.02 5.34 -1 5 C-0.67 3.35 -0.34 1.7 0 0 Z " fill="#FFFFFF" transform="translate(306,292)"/>
<path d="M0 0 C0 4.29 0 8.58 0 13 C-0.33 13 -0.66 13 -1 13 C-1 10.03 -1 7.06 -1 4 C-1.99 4 -2.98 4 -4 4 C-4 3.34 -4 2.68 -4 2 C-1 0 -1 0 0 0 Z " fill="#000000" transform="translate(318,291)"/>
<path d="M0 0 C1.98 0.99 3.96 1.98 6 3 C5.67 4.32 5.34 5.64 5 7 C4.01 7 3.02 7 2 7 C1.34 4.69 0.68 2.38 0 0 Z " fill="#000000" transform="translate(66,114)"/>
</svg>
