<?xml version="1.0" encoding="UTF-8"?>
<!-- Generator: visioncortex VTracer 0.6.4 -->
<svg version="1.1" xmlns="http://www.w3.org/2000/svg" width="511" height="435">
<path d="M0 0 C168.63 0 337.26 0 511 0 C511 143.55 511 287.1 511 435 C342.37 435 173.74 435 0 435 C0 291.45 0 147.9 0 0 Z " fill="#FDFDFD" transform="translate(0,0)"/>
<path d="M0 0 C0.66 0.33 1.32 0.66 2 1 C2.271 6.873 2.537 12.747 2.8 18.621 C2.889 20.599 2.979 22.577 3.07 24.555 C4.517 55.916 5.158 87.256 5.101 118.647 C5.095 122.836 5.095 127.025 5.093 131.214 C5.09 139.079 5.082 146.944 5.072 154.808 C5.061 163.791 5.055 172.773 5.05 181.756 C5.04 200.171 5.023 218.585 5 237 C6.763 233.69 7.288 231.348 7.414 227.578 C7.472 226.041 7.472 226.041 7.531 224.473 C7.578 222.877 7.578 222.877 7.625 221.25 C7.664 220.171 7.702 219.092 7.742 217.98 C7.836 215.32 7.922 212.661 8 210 C8.66 210.33 9.32 210.66 10 211 C10.121 217.433 9.824 223.618 9 230 C9.66 230 10.32 230 11 230 C11 229.34 11 228.68 11 228 C17.077 222.629 24.332 220.206 32 218 C33.214 212.252 33.187 206.57 33.246 200.723 C33.279 198.495 33.312 196.268 33.346 194.041 C33.393 190.548 33.438 187.054 33.477 183.561 C33.517 180.177 33.568 176.794 33.621 173.41 C33.63 172.371 33.638 171.333 33.647 170.262 C33.878 156.616 33.878 156.616 38.562 151.75 C41.156 149.187 41.156 149.187 42 146 C42 146.66 42 147.32 42 148 C42.66 148 43.32 148 44 148 C43.933 146.887 43.866 145.775 43.797 144.628 C43.124 132.998 42.795 121.385 42.612 109.737 C42.28 89.144 41.731 68.56 41.066 47.976 C41.001 45.96 40.937 43.943 40.873 41.927 C40.428 27.939 39.949 13.965 39 0 C39.99 0 40.98 0 42 0 C42.714 7.212 43.219 14.4 43.5 21.641 C43.54 22.628 43.581 23.616 43.622 24.633 C43.752 27.839 43.876 31.044 44 34.25 C44.043 35.36 44.086 36.47 44.131 37.613 C44.869 56.636 45.58 75.657 45.903 94.692 C45.97 98.565 46.057 102.436 46.151 106.308 C46.285 111.912 46.379 117.517 46.45 123.123 C46.483 125.312 46.528 127.501 46.586 129.69 C46.664 132.751 46.696 135.809 46.719 138.871 C46.752 139.778 46.785 140.684 46.819 141.618 C46.802 146.823 46.022 149.509 42.518 153.446 C41.886 154.062 41.254 154.678 40.604 155.313 C37.367 158.717 37.809 162.677 37.684 167.141 C37.652 168.208 37.652 168.208 37.62 169.296 C37.554 171.614 37.496 173.932 37.438 176.25 C37.395 177.837 37.352 179.424 37.309 181.011 C36.988 193.342 36.886 205.665 37 218 C37.539 218.152 38.077 218.304 38.633 218.461 C44.86 220.358 50.054 223.132 55.562 226.562 C56.42 227.087 57.278 227.611 58.161 228.151 C60.781 229.757 63.391 231.376 66 233 C67.227 233.761 67.227 233.761 68.478 234.537 C72.997 237.34 77.503 240.161 82 243 C82.495 239.04 82.495 239.04 83 235 C84.651 237.683 85.054 238.688 84.5 241.875 C84.657 245.063 84.657 245.063 86.867 246.543 C92.699 250.077 98.899 252.963 105 256 C104.992 255.183 104.992 255.183 104.984 254.349 C104.847 237.542 105.329 220.792 106 204 C107.482 205.099 107.482 205.099 109 207 C109.341 209.911 109.341 209.911 109.293 213.418 C109.283 214.672 109.274 215.925 109.264 217.217 C109.239 218.527 109.213 219.837 109.188 221.188 C109.172 222.523 109.159 223.858 109.146 225.193 C109.111 228.463 109.062 231.731 109 235 C109.554 234.013 110.109 233.025 110.68 232.008 C111.411 230.713 112.143 229.419 112.875 228.125 C113.24 227.474 113.605 226.823 113.98 226.152 C115.487 223.496 116.83 221.17 119 219 C118.412 223.356 116.807 226.432 114.562 230.188 C113.945 231.233 113.328 232.278 112.691 233.355 C111 236 111 236 109 238 C108.63 240.129 108.63 240.129 108.586 242.57 C108.547 243.466 108.509 244.362 108.469 245.285 C108.438 246.222 108.407 247.159 108.375 248.125 C108.336 249.07 108.298 250.015 108.258 250.988 C108.163 253.325 108.078 255.662 108 258 C110.206 258.505 112.412 258.998 114.628 259.461 C117 260 117 260 120.082 261.055 C124.959 260.963 127.429 257.484 130.688 254.125 C132 252.811 133.316 251.501 134.637 250.195 C135.211 249.608 135.786 249.02 136.378 248.415 C138 247 138 247 141 246 C141 246.66 141 247.32 141 248 C140.34 248 139.68 248 139 248 C139 248.66 139 249.32 139 250 C137.355 251.691 137.355 251.691 135.188 253.562 C134.48 254.183 133.772 254.803 133.043 255.441 C131 257 131 257 128 258 C128 258.66 128 259.32 128 260 C126.5 261.625 126.5 261.625 125 263 C129.419 264.582 133.236 265.539 137.814 264.14 C140.878 262.675 143.808 261.072 146.75 259.375 C148.384 258.479 148.384 258.479 150.05 257.565 C152.296 256.33 154.535 255.083 156.767 253.824 C160.636 251.641 164.536 249.517 168.441 247.397 C170.227 246.426 172.01 245.451 173.792 244.472 C181.632 240.166 189.554 236.023 197.502 231.92 C198.864 231.215 198.864 231.215 200.254 230.496 C201.051 230.085 201.849 229.675 202.67 229.252 C205.096 227.988 205.096 227.988 207.672 226.281 C208.44 225.859 209.208 225.436 210 225 C210.66 225.33 211.32 225.66 212 226 C203.047 231.188 194.016 236.189 184.863 241.014 C181.403 242.838 177.948 244.67 174.492 246.5 C173.44 247.057 173.44 247.057 172.367 247.625 C164.898 251.579 157.448 255.568 150 259.562 C149.386 259.892 148.771 260.221 148.139 260.561 C144.759 262.373 141.379 264.186 138 266 C140.557 267.705 142.258 268.529 145.105 269.445 C145.917 269.714 146.729 269.982 147.565 270.259 C148.43 270.545 149.296 270.83 150.188 271.125 C157.025 273.448 163.605 276.009 170.062 279.25 C170.722 279.579 171.382 279.908 172.061 280.247 C176.688 282.64 176.688 282.64 178.559 284.797 C180.041 286.322 180.041 286.322 182.746 285.757 C186.135 284.969 188.515 283.843 191.512 282.094 C193.019 281.226 193.019 281.226 194.557 280.34 C195.59 279.733 196.623 279.126 197.688 278.5 C199.753 277.3 201.819 276.102 203.887 274.906 C204.796 274.373 205.706 273.84 206.643 273.291 C209 272 209 272 212 271 C212 271.66 212 272.32 212 273 C208.107 275.13 204.21 277.253 200.312 279.375 C198.658 280.28 198.658 280.28 196.971 281.203 C195.904 281.783 194.837 282.363 193.738 282.961 C192.759 283.495 191.78 284.029 190.771 284.58 C188.222 285.886 185.678 286.987 183 288 C183.589 288.847 184.178 289.694 184.785 290.566 C186.988 293.874 188.728 297.356 190.438 300.938 C194.402 309.07 198.833 316.913 203.344 324.754 C213 341.599 213 341.599 213 345 C209.237 343.746 209.046 342.761 207.25 339.32 C206.729 338.338 206.208 337.355 205.672 336.342 C205.12 335.281 204.568 334.219 204 333.125 C202.836 330.926 201.669 328.728 200.5 326.531 C199.915 325.43 199.33 324.33 198.727 323.195 C196.25 318.613 193.64 314.114 191 309.625 C187.746 304.092 184.638 298.577 182 292.715 C180.973 290.664 180.973 290.664 178 289 C178 288.34 178 287.68 178 287 C177.297 286.734 176.595 286.469 175.871 286.195 C171.777 284.491 167.936 282.346 164.035 280.242 C160.776 278.908 158.485 278.761 155 279 C155.33 278.34 155.66 277.68 156 277 C145.237 272.503 145.237 272.503 134 274.125 C130.154 276.529 126.567 279.202 123 282 C123.812 280.062 123.812 280.062 125 278 C125.99 277.67 126.98 277.34 128 277 C128 276.34 128 275.68 128 275 C131.465 273.02 131.465 273.02 135 271 C132.09 269.06 129.735 268.117 126.441 267.012 C125.332 266.635 124.223 266.258 123.08 265.869 C121.919 265.479 120.758 265.089 119.562 264.688 C110.889 261.773 102.4 258.633 94 255 C94.658 255.619 95.316 256.237 95.994 256.875 C98 259 98 259 98.102 261.004 C96.466 263.968 94.225 265.152 91.375 266.938 C87.908 269.133 84.562 271.293 81.375 273.875 C72.898 279.212 62.897 278.655 53.375 276.938 C40.268 273.942 28.616 267.637 20.625 256.625 C16.137 249.409 15.167 242.262 17 234 C17.87 231.252 18.886 228.665 20 226 C16.261 228.657 14.35 230.581 13 235 C12.01 235 11.02 235 10 235 C9.288 236.547 9.288 236.547 8.562 238.125 C8.296 238.705 8.029 239.285 7.754 239.883 C3.011 253.203 5.743 270.303 11.46 282.807 C14.911 289.886 19.095 296.302 23.73 302.653 C27.222 307.443 30.567 312.308 33.832 317.254 C34.261 317.902 34.689 318.551 35.131 319.219 C36.861 321.841 38.59 324.464 40.307 327.094 C60.171 357.748 60.171 357.748 91.324 374.715 C95.974 375.21 100.394 374.646 105 374 C105.99 374 106.98 374 108 374 C110.17 372.56 110.17 372.56 112 371 C111.25 372.875 111.25 372.875 110 375 C109.33 375.268 108.659 375.536 107.969 375.812 C105.744 376.84 105.744 376.84 105.391 379.383 C105.344 380.288 105.298 381.193 105.25 382.125 C105.193 383.035 105.137 383.945 105.078 384.883 C105.052 385.581 105.027 386.28 105 387 C105.66 387.33 106.32 387.66 107 388 C107.627 390.165 108.154 392.359 108.625 394.562 C108.885 395.76 109.146 396.958 109.414 398.191 C109.607 399.118 109.801 400.045 110 401 C109.01 401 108.02 401 107 401 C105.515 397.04 105.515 397.04 104 393 C103.67 393 103.34 393 103 393 C102.67 395.64 102.34 398.28 102 401 C101.01 400.67 100.02 400.34 99 400 C99.139 396.895 99.287 393.791 99.438 390.688 C99.477 389.806 99.516 388.925 99.557 388.018 C99.599 387.17 99.64 386.322 99.684 385.449 C99.72 384.669 99.757 383.889 99.795 383.085 C100 381 100 381 101 378 C100.31 378.023 99.621 378.046 98.91 378.07 C86.317 378.312 86.317 378.312 81 376 C80.505 374.515 80.505 374.515 80 373 C78.672 372.644 77.338 372.316 76 372 C59.485 361.717 48.381 346.08 38 330 C36.836 328.248 35.67 326.498 34.5 324.75 C33.667 323.5 32.833 322.25 32 321 C31.195 325.456 30.703 329.87 30.336 334.382 C30.248 335.452 30.248 335.452 30.158 336.543 C29.966 338.88 29.778 341.217 29.59 343.555 C29.457 345.183 29.324 346.811 29.191 348.439 C28.841 352.71 28.495 356.981 28.15 361.252 C27.796 365.616 27.44 369.98 27.084 374.344 C26.387 382.896 25.692 391.448 25 400 C24.01 400.33 23.02 400.66 22 401 C22.412 388.91 23.211 376.873 24.244 364.822 C24.439 362.482 24.62 360.14 24.797 357.798 C25.359 350.526 26.042 343.376 27.273 336.184 C29.749 320.096 27.378 311.034 17.961 298.178 C15.996 295.563 13.982 293.006 11.911 290.472 C10.274 288.354 9.076 286.437 8 284 C7.34 284.99 6.68 285.98 6 287 C5.173 284.015 4.766 281.146 4.5 278.062 C4.204 274.64 3.693 271.363 3 268 C2.955 269.047 2.91 270.094 2.864 271.173 C1.963 291.987 0.9 312.78 -0.562 333.562 C-0.626 334.478 -0.69 335.394 -0.756 336.337 C-0.94 338.955 -1.127 341.573 -1.316 344.191 C-1.371 344.952 -1.425 345.713 -1.48 346.497 C-1.863 351.682 -2.402 356.836 -3 362 C-3.66 361.34 -4.32 360.68 -5 360 C-4.999 357.418 -4.872 354.968 -4.645 352.402 C-4.583 351.608 -4.522 350.814 -4.459 349.995 C-4.324 348.244 -4.184 346.493 -4.04 344.742 C-3.641 339.832 -3.288 334.918 -2.93 330.004 C-2.852 328.951 -2.775 327.898 -2.696 326.813 C3.72 238.428 4.727 149.426 1 27 C0.952 25.688 0.905 24.377 0.856 23.025 C0.576 15.35 0.291 7.675 0 0 Z " fill="#000000" transform="translate(233,17)"/>
<path d="M0 0 C8.463 4.405 16.472 9.648 24.461 14.846 C26.35 16.072 28.248 17.281 30.152 18.484 C47.908 29.91 47.908 29.91 50.625 38.25 C49.589 38.937 48.552 39.624 47.484 40.332 C46.115 41.242 44.745 42.152 43.375 43.062 C42.693 43.514 42.011 43.966 41.309 44.432 C37.273 47.115 37.273 47.115 33.391 50.012 C27.296 54.286 16.75 52.811 9.625 52.25 C-3.463 49.847 -15.795 42.821 -23.688 32 C-27.194 26.364 -28.927 21.035 -27.957 14.383 C-26.357 7.861 -24.374 2.342 -18.688 -1.625 C-11.54 -4.053 -6.831 -3.264 0 0 Z " fill="#FFFFFF" transform="translate(278.375,240.75)"/>
<path d="M0 0 C0.33 0 0.66 0 1 0 C1 4.62 1 9.24 1 14 C3.104 13.876 3.104 13.876 5.25 13.75 C8.426 13.563 9.6 13.694 12.164 15.652 C22.887 29.365 21.058 55.279 19.688 71.758 C18.815 77.847 17.222 83.702 14 89 C11.235 90.382 8.954 90.095 5.875 90.062 C2.967 90.032 2.967 90.032 0 90 C0 95.61 0 101.22 0 107 C-0.66 106.34 -1.32 105.68 -2 105 C-1.983 102.407 -1.862 99.947 -1.625 97.375 C-1.568 96.669 -1.512 95.962 -1.453 95.234 C-1.312 93.489 -1.157 91.744 -1 90 C-1.907 90.082 -2.815 90.165 -3.75 90.25 C-7 90 -7 90 -9.242 88.336 C-19.922 74.143 -18.664 47.797 -16.43 31.074 C-15.472 25.205 -14.509 19.934 -11 15 C-8.595 13.797 -7.05 13.899 -4.375 13.938 C-3.149 13.951 -3.149 13.951 -1.898 13.965 C-0.959 13.982 -0.959 13.982 0 14 C-0.126 12.61 -0.126 12.61 -0.254 11.191 C-0.356 9.994 -0.458 8.796 -0.562 7.562 C-0.667 6.368 -0.771 5.173 -0.879 3.941 C-0.919 2.971 -0.959 2 -1 1 C-0.67 0.67 -0.34 0.34 0 0 Z " fill="#FAFAFA" transform="translate(143,49)"/>
<path d="M0 0 C0 4.29 0 8.58 0 13 C16.5 13 33 13 50 13 C49.505 7.06 49.505 7.06 49 1 C52 1 52 1 54.36 3.02 C55.266 3.941 56.172 4.863 57.105 5.812 C57.59 6.301 58.074 6.789 58.572 7.292 C60.118 8.855 61.653 10.427 63.188 12 C64.233 13.061 65.279 14.12 66.326 15.18 C68.892 17.779 71.448 20.387 74 23 C72.438 26.752 70.11 29.134 67.246 31.984 C66.785 32.445 66.324 32.905 65.849 33.38 C64.879 34.347 63.907 35.312 62.932 36.274 C61.434 37.754 59.944 39.241 58.455 40.73 C51.14 48 51.14 48 50 48 C49.67 44.37 49.34 40.74 49 37 C33.16 37 17.32 37 1 37 C0.267 40.666 -0.104 43.367 0 47 C-3 47 -3 47 -5.36 44.98 C-6.266 44.059 -7.172 43.137 -8.105 42.188 C-8.59 41.699 -9.074 41.211 -9.572 40.708 C-11.118 39.145 -12.653 37.573 -14.188 36 C-15.233 34.939 -16.279 33.88 -17.326 32.82 C-19.892 30.221 -22.448 27.613 -25 25 C-20.188 19.209 -15.023 13.872 -9.688 8.562 C-8.453 7.322 -8.453 7.322 -7.193 6.057 C-6.412 5.276 -5.63 4.496 -4.824 3.691 C-4.114 2.982 -3.403 2.272 -2.671 1.541 C-1 0 -1 0 0 0 Z " fill="#000000" transform="translate(352,180)"/>
<path d="M0 0 C0.66 0.33 1.32 0.66 2 1 C0.475 15.587 -1.563 30.042 -4 44.5 C-4.125 45.244 -4.251 45.988 -4.38 46.755 C-4.751 48.952 -5.125 51.148 -5.5 53.344 C-5.621 54.055 -5.741 54.765 -5.866 55.498 C-6.503 59.226 -7.176 62.944 -7.897 66.657 C-8.042 67.42 -8.186 68.182 -8.335 68.968 C-8.611 70.415 -8.895 71.86 -9.19 73.302 C-10.424 79.853 -8.943 84.786 -7 91 C-3.176 107.89 -0.58 134.95 -10.047 150.324 C-12 153 -12 153 -13 154 C-14.416 154.087 -15.836 154.107 -17.254 154.098 C-18.108 154.094 -18.962 154.091 -19.842 154.088 C-20.74 154.08 -21.637 154.071 -22.562 154.062 C-23.464 154.058 -24.366 154.053 -25.295 154.049 C-27.53 154.037 -29.765 154.021 -32 154 C-32 153.67 -32 153.34 -32 153 C-28.04 152.67 -24.08 152.34 -20 152 C-20.338 151.08 -20.675 150.159 -21.023 149.211 C-21.475 147.933 -21.925 146.654 -22.375 145.375 C-22.816 144.145 -23.257 142.915 -23.711 141.648 C-27.08 130.633 -27.387 119.055 -27.375 107.625 C-27.376 106.951 -27.377 106.277 -27.378 105.583 C-27.37 94.746 -26.945 83.89 -22 74 C-25.3 73.67 -28.6 73.34 -32 73 C-30.02 72.01 -30.02 72.01 -28 71 C-26.908 67.725 -27.07 66.956 -27.996 63.77 C-28.225 62.967 -28.454 62.165 -28.689 61.338 C-28.936 60.505 -29.183 59.671 -29.438 58.812 C-29.802 57.545 -29.802 57.545 -30.174 56.252 C-30.775 54.166 -31.386 52.083 -32 50 C-31.34 50 -30.68 50 -30 50 C-29.16 52.748 -28.328 55.498 -27.5 58.25 C-27.262 59.027 -27.023 59.805 -26.777 60.605 C-26.552 61.36 -26.326 62.114 -26.094 62.891 C-25.884 63.582 -25.675 64.273 -25.459 64.985 C-25 67 -25 67 -25 71 C-23.783 70.918 -22.566 70.835 -21.312 70.75 C-16.994 70.457 -15.227 72.298 -12 75 C-8.102 55.059 -4.674 35.148 -2 15 C-1.771 13.309 -1.542 11.617 -1.312 9.926 C-0.865 6.618 -0.428 3.31 0 0 Z " fill="#FAFAFA" transform="translate(130,242)"/>
<path d="M0 0 C1.189 0.009 2.377 0.018 3.602 0.027 C4.517 0.039 5.432 0.051 6.375 0.062 C6.182 0.634 5.988 1.205 5.789 1.793 C-0.991 22.905 -0.815 47.067 6.375 68.062 C7.042 70.062 7.708 72.062 8.375 74.062 C6.293 74.171 4.209 74.248 2.125 74.312 C0.965 74.359 -0.195 74.405 -1.391 74.453 C-4.625 74.062 -4.625 74.062 -6.914 72.395 C-16.353 59.529 -16.129 34.618 -14.055 19.633 C-13.816 18.108 -13.568 16.585 -13.312 15.062 C-13.195 14.356 -13.077 13.649 -12.956 12.921 C-12.14 8.548 -10.896 4.892 -8.625 1.062 C-5.741 -0.38 -3.208 -0.031 0 0 Z " fill="#FFFFFF" transform="translate(141.625,63.9375)"/>
<path d="M0 0 C51.208 12.158 51.208 12.158 67 32 C66.505 32.99 66.505 32.99 66 34 C65.501 33.371 65.002 32.742 64.488 32.094 C51.638 16.775 33.658 11.361 15.062 6 C14.311 5.78 13.56 5.56 12.786 5.333 C9.107 4.324 6.638 3.877 3 5 C5.995 6.996 7.968 7.635 11.418 8.48 C12.5 8.754 13.582 9.027 14.698 9.309 C15.849 9.599 17.001 9.889 18.188 10.188 C32.212 13.847 45.325 18.128 57 27 C58.011 27.742 59.021 28.485 60.062 29.25 C60.702 29.828 61.341 30.405 62 31 C62 31.66 62 32.32 62 33 C62.66 33 63.32 33 64 33 C64.495 34.98 64.495 34.98 65 37 C64.01 36.505 64.01 36.505 63 36 C63 35.34 63 34.68 63 34 C62.34 34 61.68 34 61 34 C59.979 32.948 59.979 32.948 58.938 31.875 C45.662 18.254 25.226 14.549 7.575 9.753 C5 9 5 9 3 8 C3.061 8.926 3.121 9.851 3.184 10.805 C3.839 21.198 4.277 31.591 4.607 42 C4.794 47.407 5.083 52.665 6 58 C6.619 57.381 7.238 56.763 7.875 56.125 C12.08 53.266 15.91 52.116 21 52 C25.32 53.13 28.229 55.268 31.438 58.312 C33.382 61.656 33.862 64.142 34 68 C33.062 70.938 33.062 70.938 32 73 C31.67 71.68 31.34 70.36 31 69 C30.051 69.804 29.103 70.609 28.125 71.438 C23.881 75.035 20.992 75.27 15.48 75.23 C12.353 74.94 10.459 73.921 8 72 C7.34 71.67 6.68 71.34 6 71 C7.513 74.11 8.79 75.85 11.625 77.875 C17.237 79.746 22.392 78.472 28 77 C25.027 80.108 23.193 81.17 18.875 81.312 C18.151 81.35 17.426 81.387 16.68 81.426 C14 81 14 81 6 77 C6 84.59 6 92.18 6 100 C5.01 99.67 4.02 99.34 3 99 C2.98 98.015 2.96 97.029 2.94 96.014 C2.455 72.376 1.691 48.76 0.661 25.139 C0.617 24.13 0.574 23.12 0.529 22.08 C0.448 20.201 0.365 18.322 0.279 16.443 C0.041 10.956 -0.036 5.492 0 0 Z " fill="#000000" transform="translate(335,17)"/>
<path d="M0 0 C0.66 0 1.32 0 2 0 C0.631 2.95 -0.878 5.525 -3 8 C-3.66 8 -4.32 8 -5 8 C-5.259 8.581 -5.518 9.162 -5.784 9.761 C-7.095 12.175 -8.548 13.85 -10.449 15.828 C-11.133 16.546 -11.817 17.264 -12.521 18.004 C-13.594 19.116 -13.594 19.116 -14.688 20.25 C-19.357 25.123 -23.949 30.027 -28.367 35.129 C-30.813 37.931 -33.341 40.653 -35.875 43.375 C-40.191 48.03 -44.469 52.716 -48.695 57.453 C-50.421 59.36 -52.163 61.241 -53.93 63.109 C-54.429 63.642 -54.929 64.174 -55.443 64.722 C-56.413 65.755 -57.389 66.782 -58.371 67.803 C-61.074 70.691 -62.796 73.224 -64 77 C-62.35 77 -60.7 77 -59 77 C-58.67 74.36 -58.34 71.72 -58 69 C-57.01 69.495 -57.01 69.495 -56 70 C-56 89.47 -56 108.94 -56 129 C-56.66 129 -57.32 129 -58 129 C-58.33 112.83 -58.66 96.66 -59 80 C-75.106 79.701 -75.106 79.701 -90 83 C-90.66 82.01 -91.32 81.02 -92 80 C-94.808 79.489 -94.808 79.489 -98.102 79.488 C-99.313 79.453 -100.525 79.417 -101.773 79.381 C-103.044 79.358 -104.315 79.336 -105.625 79.312 C-107.543 79.261 -107.543 79.261 -109.5 79.209 C-112.667 79.126 -115.833 79.057 -119 79 C-119 78.67 -119 78.34 -119 78 C-109.76 77.67 -100.52 77.34 -91 77 C-90.505 75.515 -90.505 75.515 -90 74 C-89.166 74.217 -88.332 74.433 -87.473 74.656 C-80.79 76.31 -74.88 77.35 -68 77 C-68.33 76.34 -68.66 75.68 -69 75 C-67 72 -67 72 -64.812 70.812 C-61.568 68.722 -59.553 66.366 -57.078 63.434 C-54.66 60.602 -52.15 57.861 -49.625 55.125 C-46.229 51.435 -42.849 47.733 -39.5 44 C-35.725 39.793 -31.91 35.623 -28.086 31.461 C-24.474 27.526 -20.898 23.559 -17.332 19.582 C-15.609 17.675 -13.879 15.777 -12.137 13.887 C-11.647 13.355 -11.157 12.823 -10.652 12.275 C-9.263 10.77 -7.872 9.266 -6.48 7.762 C-3.976 5.043 -3.976 5.043 -1.801 2.145 C-1.207 1.437 -0.612 0.729 0 0 Z " fill="#000000" transform="translate(413,41)"/>
<path d="M0 0 C0.66 0.33 1.32 0.66 2 1 C0.475 15.587 -1.563 30.042 -4 44.5 C-4.125 45.244 -4.251 45.988 -4.38 46.755 C-4.751 48.952 -5.125 51.148 -5.5 53.344 C-5.621 54.055 -5.741 54.765 -5.866 55.498 C-6.503 59.226 -7.176 62.944 -7.897 66.657 C-8.042 67.42 -8.186 68.182 -8.335 68.968 C-8.611 70.415 -8.895 71.86 -9.19 73.302 C-10.424 79.853 -8.943 84.786 -7 91 C-3.176 107.89 -0.58 134.95 -10.047 150.324 C-12 153 -12 153 -13 154 C-14.416 154.087 -15.836 154.107 -17.254 154.098 C-18.108 154.094 -18.962 154.091 -19.842 154.088 C-20.74 154.08 -21.637 154.071 -22.562 154.062 C-23.464 154.058 -24.366 154.053 -25.295 154.049 C-27.53 154.037 -29.765 154.021 -32 154 C-32 153.67 -32 153.34 -32 153 C-28.04 152.67 -24.08 152.34 -20 152 C-20.338 151.08 -20.675 150.159 -21.023 149.211 C-21.475 147.933 -21.925 146.654 -22.375 145.375 C-22.816 144.145 -23.257 142.915 -23.711 141.648 C-27.08 130.633 -27.387 119.055 -27.375 107.625 C-27.376 106.951 -27.377 106.277 -27.378 105.583 C-27.37 94.746 -26.945 83.89 -22 74 C-25.3 73.67 -28.6 73.34 -32 73 C-30.02 72.01 -30.02 72.01 -28 71 C-26.908 67.725 -27.07 66.956 -27.996 63.77 C-28.225 62.967 -28.454 62.165 -28.689 61.338 C-28.936 60.505 -29.183 59.671 -29.438 58.812 C-29.802 57.545 -29.802 57.545 -30.174 56.252 C-30.775 54.166 -31.386 52.083 -32 50 C-31.34 50 -30.68 50 -30 50 C-29.16 52.748 -28.328 55.498 -27.5 58.25 C-27.262 59.027 -27.023 59.805 -26.777 60.605 C-26.552 61.36 -26.326 62.114 -26.094 62.891 C-25.884 63.582 -25.675 64.273 -25.459 64.985 C-25 67 -25 67 -25 71 C-23.783 70.918 -22.566 70.835 -21.312 70.75 C-16.994 70.457 -15.227 72.298 -12 75 C-8.102 55.059 -4.674 35.148 -2 15 C-1.771 13.309 -1.542 11.617 -1.312 9.926 C-0.865 6.618 -0.428 3.31 0 0 Z M-19 73 C-21.634 76.098 -22.687 78.747 -23.625 82.688 C-23.865 83.661 -24.105 84.634 -24.352 85.637 C-28.116 105.162 -28.926 132.019 -19 150 C-16.976 151.776 -16.976 151.776 -15 153 C-9.592 148.73 -8.954 144.635 -8 138 C-7.84 137.216 -7.68 136.433 -7.516 135.625 C-3.819 116.804 -4.388 93.387 -13.492 76.18 C-14.807 73.834 -14.807 73.834 -17.188 73.188 C-17.786 73.126 -18.384 73.064 -19 73 Z " fill="#000000" transform="translate(130,242)"/>
<path d="M0 0 C0.33 0 0.66 0 1 0 C1 4.62 1 9.24 1 14 C3.104 13.876 3.104 13.876 5.25 13.75 C8.426 13.563 9.6 13.694 12.164 15.652 C22.887 29.365 21.058 55.279 19.688 71.758 C18.815 77.847 17.222 83.702 14 89 C11.235 90.382 8.954 90.095 5.875 90.062 C2.967 90.032 2.967 90.032 0 90 C0 95.61 0 101.22 0 107 C-0.66 106.34 -1.32 105.68 -2 105 C-1.983 102.407 -1.862 99.947 -1.625 97.375 C-1.568 96.669 -1.512 95.962 -1.453 95.234 C-1.312 93.489 -1.157 91.744 -1 90 C-1.907 90.082 -2.815 90.165 -3.75 90.25 C-7 90 -7 90 -9.242 88.336 C-19.922 74.143 -18.664 47.797 -16.43 31.074 C-15.472 25.205 -14.509 19.934 -11 15 C-8.595 13.797 -7.05 13.899 -4.375 13.938 C-3.149 13.951 -3.149 13.951 -1.898 13.965 C-0.959 13.982 -0.959 13.982 0 14 C-0.126 12.61 -0.126 12.61 -0.254 11.191 C-0.356 9.994 -0.458 8.796 -0.562 7.562 C-0.667 6.368 -0.771 5.173 -0.879 3.941 C-0.919 2.971 -0.959 2 -1 1 C-0.67 0.67 -0.34 0.34 0 0 Z M-10.316 16.688 C-16.275 24.872 -15.663 37.236 -16 47 C-16.079 48.274 -16.079 48.274 -16.16 49.574 C-16.391 55.318 -15.544 60.898 -14.688 66.562 C-14.511 67.75 -14.511 67.75 -14.331 68.962 C-13.273 75.488 -12.052 82.04 -8.234 87.547 C-5.136 89.562 -2.909 89.396 0.75 89.25 C1.92 89.214 3.091 89.178 4.297 89.141 C5.189 89.094 6.081 89.048 7 89 C6.713 88.167 6.425 87.335 6.129 86.477 C2.781 76.167 0.293 65.865 0 55 C-0.02 54.279 -0.041 53.558 -0.062 52.814 C-0.392 39.441 0.842 27.779 5 15 C2.918 14.892 0.834 14.814 -1.25 14.75 C-2.41 14.704 -3.57 14.657 -4.766 14.609 C-8.035 14.738 -8.035 14.738 -10.316 16.688 Z M8 15 C2.174 20.309 1.468 27.984 0.812 35.438 C0.69 36.63 0.69 36.63 0.564 37.846 C-0.827 52.214 -1.388 73.707 7.371 85.91 C8.816 87.45 8.816 87.45 11 89 C15.023 85.916 15.801 82.864 16.801 78.121 C17.162 75.812 17.162 75.812 16 73 C16.99 72.505 16.99 72.505 18 72 C20.799 53.524 19.373 32.893 11 16 C10.01 15.67 9.02 15.34 8 15 Z " fill="#000000" transform="translate(143,49)"/>
<path d="M0 0 C4.555 3.688 4.555 3.688 5.062 6.875 C4.471 11.268 2.761 13.059 -0.375 16.125 C-4.321 18.41 -7.871 18.599 -12.375 18.125 C-16.149 16.093 -19.38 13.997 -21.375 10.125 C-21.263 5.745 -19.374 3.207 -16.375 0.125 C-10.942 -3.044 -5.347 -2.971 0 0 Z " fill="#FFFFFF" transform="translate(361.375,72.875)"/>
<path d="M0 0 C0.66 0 1.32 0 2 0 C2 4.95 2 9.9 2 15 C5.96 14.34 9.92 13.68 14 13 C14 13.66 14 14.32 14 15 C10.37 15.66 6.74 16.32 3 17 C3.016 18.413 3.031 19.827 3.048 21.283 C3.102 26.512 3.136 31.741 3.165 36.971 C3.18 39.237 3.2 41.503 3.226 43.769 C3.263 47.02 3.28 50.272 3.293 53.523 C3.308 54.541 3.324 55.559 3.34 56.608 C3.34 57.548 3.34 58.489 3.341 59.458 C3.347 60.289 3.354 61.12 3.361 61.975 C3.242 62.643 3.123 63.312 3 64 C1.515 64.99 1.515 64.99 0 66 C-0.154 57.542 -0.302 49.085 -0.443 40.627 C-0.509 36.7 -0.576 32.773 -0.648 28.846 C-0.717 25.06 -0.782 21.273 -0.843 17.487 C-0.867 16.039 -0.893 14.591 -0.921 13.143 C-0.959 11.123 -0.991 9.101 -1.022 7.08 C-1.042 5.928 -1.062 4.775 -1.082 3.588 C-1 1 -1 1 0 0 Z " fill="#000000" transform="translate(339,122)"/>
<path d="M0 0 C0.66 0 1.32 0 2 0 C3.9 4.902 4.437 9.314 4.688 14.5 C4.735 15.233 4.782 15.967 4.83 16.723 C5.062 20.977 4.884 24.8 4 29 C5.506 28.801 5.506 28.801 7.043 28.598 C18.331 27.13 29.596 25.776 41 26 C41 26.33 41 26.66 41 27 C28.674 28.517 16.408 29.477 4 30 C3.853 30.739 3.706 31.477 3.555 32.238 C1.126 43.225 -3.332 51.784 -11 60 C-11.66 59.67 -12.32 59.34 -13 59 C-12.469 58.371 -11.938 57.742 -11.391 57.094 C-0.389 43.763 3.426 30.202 2 13 C1.368 10.453 0.633 8.185 -0.441 5.797 C-1.143 3.541 -0.738 2.208 0 0 Z " fill="#000000" transform="translate(404,57)"/>
<path d="M0 0 C0.33 0 0.66 0 1 0 C1.146 6.433 1.288 12.866 1.427 19.299 C1.475 21.477 1.523 23.655 1.573 25.833 C1.716 32.173 1.843 38.513 1.946 44.854 C1.982 46.963 2.024 49.072 2.07 51.181 C2.134 54.212 2.179 57.242 2.219 60.273 C2.242 61.183 2.265 62.092 2.289 63.029 C2.33 67.884 2.126 71.02 -1 75 C0.32 75.66 1.64 76.32 3 77 C0.36 77.33 -2.28 77.66 -5 78 C-5 78.66 -5 79.32 -5 80 C-5.66 80 -6.32 80 -7 80 C-7.193 80.638 -7.387 81.276 -7.586 81.934 C-7.846 82.76 -8.107 83.586 -8.375 84.438 C-8.63 85.261 -8.885 86.085 -9.148 86.934 C-10 89 -10 89 -12 90 C-11.645 82.909 -7.242 78.484 -2.688 73.438 C0.545 68.769 0.121 62.95 0.006 57.438 C-0.017 56.18 -0.041 54.923 -0.065 53.627 C-0.08 52.966 -0.095 52.305 -0.11 51.623 C-0.157 49.539 -0.197 47.455 -0.235 45.37 C-0.317 40.955 -0.408 36.54 -0.5 32.125 C-0.606 26.987 -0.709 21.848 -0.804 16.71 C-0.843 14.653 -0.889 12.596 -0.935 10.539 C-0.959 9.3 -0.982 8.062 -1.006 6.786 C-1.04 5.142 -1.04 5.142 -1.076 3.465 C-1 1 -1 1 0 0 Z " fill="#000000" transform="translate(254,71)"/>
<path d="M0 0 C2.97 0 5.94 0 9 0 C8.01 0.495 8.01 0.495 7 1 C8.32 4.63 9.64 8.26 11 12 C12.32 8.37 13.64 4.74 15 1 C14.34 0.67 13.68 0.34 13 0 C14.98 0 16.96 0 19 0 C18.769 0.51 18.539 1.021 18.301 1.547 C15.414 7.982 12.691 14.481 10 21 C7.404 19.702 7.314 18.714 6.309 16.035 C6.004 15.235 5.699 14.435 5.385 13.611 C5.072 12.77 4.76 11.929 4.438 11.062 C3.812 9.407 3.186 7.752 2.559 6.098 C2.283 5.36 2.008 4.623 1.724 3.864 C1.014 1.951 1.014 1.951 0 0 Z " fill="#000000" transform="translate(20,18)"/>
<path d="M0 0 C2.97 0 5.94 0 9 0 C8.01 0.495 8.01 0.495 7 1 C7.14 3.959 7.287 6.917 7.438 9.875 C7.477 10.717 7.516 11.559 7.557 12.426 C7.599 13.231 7.64 14.037 7.684 14.867 C7.72 15.611 7.757 16.354 7.795 17.121 C7.9 19.089 7.9 19.089 9 21 C6.03 21 3.06 21 0 21 C0.33 20.34 0.66 19.68 1 19 C1.15 17.627 1.248 16.247 1.316 14.867 C1.358 14.062 1.4 13.256 1.443 12.426 C1.483 11.584 1.522 10.742 1.562 9.875 C1.606 9.026 1.649 8.176 1.693 7.301 C1.8 5.201 1.9 3.1 2 1 C1.34 0.67 0.68 0.34 0 0 Z " fill="#000000" transform="translate(42,18)"/>
<path d="M0 0 C2 2 2 2 2 3 C15.86 3.495 15.86 3.495 30 4 C30 4.33 30 4.66 30 5 C26.646 5.199 23.292 5.382 19.938 5.562 C18.523 5.647 18.523 5.647 17.08 5.732 C11.876 6.004 7.126 5.96 2 5 C1.34 6.32 0.68 7.64 0 9 C-4.62 7.68 -9.24 6.36 -14 5 C-11.462 2.462 -9.461 2.132 -6 1.25 C-4.928 0.966 -3.855 0.683 -2.75 0.391 C-1.842 0.262 -0.935 0.133 0 0 Z " fill="#000000" transform="translate(372,115)"/>
<path d="M0 0 C0.99 0 1.98 0 3 0 C3 6.93 3 13.86 3 21 C1.68 21 0.36 21 -1 21 C-1.33 16.38 -1.66 11.76 -2 7 C-3.32 7 -4.64 7 -6 7 C-5.67 5.68 -5.34 4.36 -5 3 C-3.68 3 -2.36 3 -1 3 C-0.67 2.01 -0.34 1.02 0 0 Z " fill="#000000" transform="translate(427,17)"/>
<path d="M0 0 C9.806 0.835 20.708 5.779 27.742 12.719 C28.891 14.095 29.958 15.541 31 17 C31.66 16.34 32.32 15.68 33 15 C34.141 18.422 34.098 21.087 34.062 24.688 C34.053 25.867 34.044 27.046 34.035 28.262 C34.024 29.165 34.012 30.069 34 31 C32 29 32 29 31.625 25.812 C30.625 19.712 28.292 15.769 23.562 11.938 C16.453 6.962 8.233 3.621 0 1 C0 0.67 0 0.34 0 0 Z " fill="#000000" transform="translate(98,211)"/>
<path d="M0 0 C0.66 0.33 1.32 0.66 2 1 C-7.182 7.061 -15.115 11.138 -26 13 C-23.371 10.371 -20.35 9.472 -16.938 8.188 C-11.549 6.115 -6.554 3.848 -1.637 0.785 C-1.097 0.526 -0.556 0.267 0 0 Z " fill="#000000" transform="translate(384,122)"/>
<path d="M0 0 C0.66 0 1.32 0 2 0 C3.971 4.927 4.18 8.78 4 14 C1.321 12.661 1.25 11.483 0.312 8.688 C0.041 7.908 -0.231 7.128 -0.512 6.324 C-1.038 3.817 -0.818 2.399 0 0 Z " fill="#141414" transform="translate(404,57)"/>
<path d="M0 0 C0.66 0 1.32 0 2 0 C2.925 4.716 3.229 7.673 1 12 C-0.245 9.509 0.223 8.589 1 6 C0.34 5.67 -0.32 5.34 -1 5 C-0.67 3.35 -0.34 1.7 0 0 Z " fill="#0A0A0A" transform="translate(366,78)"/>
<path d="M0 0 C1.037 3.215 0.941 5.409 0.188 8.688 C0.016 9.475 -0.155 10.263 -0.332 11.074 C-1 13 -1 13 -3 14 C-2.588 9.029 -2.204 4.555 0 0 Z " fill="#161616" transform="translate(124,370)"/>
</svg>
