<?xml version="1.0" encoding="UTF-8"?>
<!-- Generator: visioncortex VTracer 0.6.4 -->
<svg version="1.1" xmlns="http://www.w3.org/2000/svg" width="325" height="310">
<path d="M0 0 C107.25 0 214.5 0 325 0 C325 102.3 325 204.6 325 310 C217.75 310 110.5 310 0 310 C0 207.7 0 105.4 0 0 Z " fill="#FEFEFE" transform="translate(0,0)"/>
<path d="M0 0 C0.66 0.33 1.32 0.66 2 1 C2 2.32 2 3.64 2 5 C2.99 4.67 3.98 4.34 5 4 C7.926 3.903 10.828 3.86 13.754 3.867 C14.611 3.866 15.467 3.865 16.35 3.864 C18.16 3.864 19.969 3.865 21.779 3.87 C24.555 3.875 27.331 3.87 30.107 3.863 C31.865 3.864 33.622 3.865 35.379 3.867 C36.629 3.864 36.629 3.864 37.904 3.861 C43.77 3.885 43.77 3.885 46 5 C47.463 5.072 48.93 5.084 50.395 5.062 C51.705 5.051 51.705 5.051 53.041 5.039 C54.877 5.013 56.713 4.987 58.549 4.961 C66.855 4.888 66.855 4.888 71 6 C71 6.99 71 7.98 71 9 C71.99 9.495 71.99 9.495 73 10 C65.539 12.01 58.64 12.241 50.938 12.125 C49.21 12.111 49.21 12.111 47.447 12.098 C44.631 12.074 41.816 12.042 39 12 C39 12.66 39 13.32 39 14 C31.08 14.33 23.16 14.66 15 15 C23.25 15.66 31.5 16.32 40 17 C40 17.33 40 17.66 40 18 C31.09 17.67 22.18 17.34 13 17 C21.998 18.026 30.996 19.034 40 20 C40.981 20.106 41.962 20.213 42.972 20.322 C72.505 23.449 102.337 23.183 132 23 C128.37 22.67 124.74 22.34 121 22 C121 21.67 121 21.34 121 21 C122.22 20.975 123.44 20.95 124.697 20.924 C129.263 20.829 133.829 20.729 138.395 20.628 C140.364 20.585 142.332 20.543 144.301 20.503 C147.146 20.444 149.991 20.381 152.836 20.316 C154.137 20.291 154.137 20.291 155.463 20.266 C160.594 20.144 165.643 19.791 170.742 19.207 C174.356 18.876 177.94 19.021 181.562 19.125 C187.911 19.218 193.165 18.726 199 16 C204.318 13.636 204.318 13.636 208 15 C207.34 15.66 206.68 16.32 206 17 C206.99 17 207.98 17 209 17 C209.33 18.98 209.66 20.96 210 23 C185.268 30.117 160.617 32.539 134.938 32.312 C132.698 32.303 130.458 32.294 128.218 32.285 C112.181 32.185 96.285 31.464 80.297 30.226 C76.234 29.947 72.175 29.818 68.104 29.705 C55.303 29.348 42.683 27.969 29.985 26.372 C13.352 23.496 13.352 23.496 -2 27 C-4.452 27.227 -4.452 27.227 -7.324 27.195 C-8.866 27.186 -8.866 27.186 -10.439 27.176 C-11.511 27.159 -12.583 27.142 -13.688 27.125 C-14.771 27.116 -15.854 27.107 -16.971 27.098 C-19.647 27.074 -22.324 27.041 -25 27 C-25 26.67 -25 26.34 -25 26 C-17.74 26 -10.48 26 -3 26 C-3 25.34 -3 24.68 -3 24 C-2.34 24 -1.68 24 -1 24 C-1.012 23.12 -1.023 22.239 -1.035 21.332 C-1.044 20.171 -1.053 19.009 -1.062 17.812 C-1.074 16.664 -1.086 15.515 -1.098 14.332 C-1.012 11.393 -0.61 8.86 0 6 C0 4.68 0 3.36 0 2 C-0.66 1.67 -1.32 1.34 -2 1 C-1.34 0.67 -0.68 0.34 0 0 Z " fill="#CBCBCB" transform="translate(92,134)"/>
<path d="M0 0 C-0.66 0.66 -1.32 1.32 -2 2 C-1.01 2 -0.02 2 1 2 C1.495 4.97 1.495 4.97 2 8 C-6.249 10.525 -14.446 11.939 -23 13 C-23 10.69 -23 8.38 -23 6 C-26.96 5.67 -30.92 5.34 -35 5 C-35 4.67 -35 4.34 -35 4 C-33.877 4.035 -32.754 4.07 -31.598 4.105 C-19.998 4.374 -19.998 4.374 -9 1 C-3.682 -1.364 -3.682 -1.364 0 0 Z " fill="#050505" transform="translate(300,149)"/>
<path d="M0 0 C5.518 -0.025 11.035 -0.043 16.553 -0.055 C18.431 -0.06 20.309 -0.067 22.187 -0.075 C24.882 -0.088 27.578 -0.093 30.273 -0.098 C31.116 -0.103 31.959 -0.108 32.827 -0.113 C38.772 -0.114 38.772 -0.114 41 1 C42.463 1.072 43.93 1.084 45.395 1.062 C46.705 1.051 46.705 1.051 48.041 1.039 C49.877 1.013 51.713 0.987 53.549 0.961 C61.855 0.888 61.855 0.888 66 2 C66 2.99 66 3.98 66 5 C66.99 5.495 66.99 5.495 68 6 C58.497 8.493 49.679 8.461 40 7 C39.34 5.35 38.68 3.7 38 2 C25.46 1.67 12.92 1.34 0 1 C0 0.67 0 0.34 0 0 Z " fill="#000000" transform="translate(97,138)"/>
<path d="M0 0 C0.66 0.33 1.32 0.66 2 1 C2 2.32 2 3.64 2 5 C2.99 5.33 3.98 5.66 5 6 C4.01 6 3.02 6 2 6 C2 8.31 2 10.62 2 13 C14.21 13 26.42 13 39 13 C39 13.33 39 13.66 39 14 C31.08 14.33 23.16 14.66 15 15 C23.25 15.66 31.5 16.32 40 17 C40 17.33 40 17.66 40 18 C11.642 17.219 11.642 17.219 1 15 C1.33 17.31 1.66 19.62 2 22 C6.95 22.33 11.9 22.66 17 23 C17 23.33 17 23.66 17 24 C15.88 24.049 14.76 24.098 13.605 24.148 C12.133 24.223 10.66 24.299 9.188 24.375 C8.45 24.406 7.712 24.437 6.951 24.469 C3.181 24.673 1.203 24.864 -2 27 C-4.452 27.227 -4.452 27.227 -7.324 27.195 C-8.866 27.186 -8.866 27.186 -10.439 27.176 C-11.511 27.159 -12.583 27.142 -13.688 27.125 C-14.771 27.116 -15.854 27.107 -16.971 27.098 C-19.647 27.074 -22.324 27.041 -25 27 C-25 26.67 -25 26.34 -25 26 C-17.74 26 -10.48 26 -3 26 C-3 25.34 -3 24.68 -3 24 C-2.34 24 -1.68 24 -1 24 C-1.012 23.12 -1.023 22.239 -1.035 21.332 C-1.044 20.171 -1.053 19.009 -1.062 17.812 C-1.074 16.664 -1.086 15.515 -1.098 14.332 C-1.012 11.393 -0.61 8.86 0 6 C0 4.68 0 3.36 0 2 C-0.66 1.67 -1.32 1.34 -2 1 C-1.34 0.67 -0.68 0.34 0 0 Z " fill="#010101" transform="translate(92,134)"/>
<path d="M0 0 C2.875 -0.188 2.875 -0.188 6 0 C8.458 3.687 8.311 5.643 8 10 C7.01 11.485 7.01 11.485 6 13 C2.875 13.188 2.875 13.188 0 13 C-1.491 8.527 -1.491 4.473 0 0 Z " fill="#000000" transform="translate(258,289)"/>
<path d="M0 0 C1.98 0 3.96 0 6 0 C6.631 4.026 7.24 7.92 7 12 C6 13 6 13 3.062 13.188 C0 13 0 13 -2 11 C-2.012 8.906 -2.012 8.906 -1.688 6.5 C-1.588 5.706 -1.489 4.912 -1.387 4.094 C-1 2 -1 2 0 0 Z " fill="#2F2F2F" transform="translate(279,289)"/>
<path d="M0 0 C1.011 0.082 2.021 0.165 3.062 0.25 C5.526 3.945 5.452 5.883 5.062 10.25 C3.938 12.188 3.938 12.188 2.062 13.25 C-1.125 13.438 -1.125 13.438 -3.938 13.25 C-3.938 12.26 -3.938 11.27 -3.938 10.25 C-3.277 10.25 -2.618 10.25 -1.938 10.25 C-1.938 10.91 -1.938 11.57 -1.938 12.25 C-0.947 11.92 0.043 11.59 1.062 11.25 C1.392 10.59 1.723 9.93 2.062 9.25 C1.258 9.106 0.454 8.961 -0.375 8.812 C-2.938 8.25 -2.938 8.25 -3.938 7.25 C-4.062 4.25 -4.062 4.25 -3.938 1.25 C-2.938 0.25 -2.938 0.25 0 0 Z " fill="#070707" transform="translate(302.9375,288.75)"/>
<path d="M0 0 C2.97 0 5.94 0 9 0 C9.33 1.98 9.66 3.96 10 6 C9.34 6 8.68 6 8 6 C8 6.66 8 7.32 8 8 C5.69 8 3.38 8 1 8 C1 9.65 1 11.3 1 13 C0.67 13 0.34 13 0 13 C0 8.71 0 4.42 0 0 Z " fill="#000000" transform="translate(246,289)"/>
<path d="M0 0 C0 0.33 0 0.66 0 1 C-20.018 2.462 -39.966 1.687 -60 1 C-60 0.67 -60 0.34 -60 0 C-54.202 -0.144 -48.403 -0.286 -42.605 -0.427 C-40.636 -0.475 -38.667 -0.524 -36.699 -0.573 C-33.854 -0.643 -31.009 -0.712 -28.164 -0.781 C-26.863 -0.814 -26.863 -0.814 -25.537 -0.848 C-8.467 -1.254 -8.467 -1.254 0 0 Z " fill="#0C0C0C" transform="translate(273,155)"/>
<path d="M0 0 C10.23 0 20.46 0 31 0 C31 0.66 31 1.32 31 2 C29.927 2.038 29.927 2.038 28.832 2.076 C25.555 2.193 22.277 2.315 19 2.438 C17.875 2.477 16.749 2.516 15.59 2.557 C9.668 2.782 3.865 3.145 -2 4 C-1.34 2.68 -0.68 1.36 0 0 Z " fill="#818181" transform="translate(98,139)"/>
<path d="M0 0 C0.99 0 1.98 0 3 0 C3.195 1.791 3.381 3.583 3.562 5.375 C3.667 6.373 3.771 7.37 3.879 8.398 C4 11 4 11 3 13 C2.34 13 1.68 13 1 13 C1 12.34 1 11.68 1 11 C-0.98 11 -2.96 11 -5 11 C-5 10.01 -5 9.02 -5 8 C-4.34 8 -3.68 8 -3 8 C-1.925 5.348 -0.905 2.716 0 0 Z " fill="#232323" transform="translate(314,289)"/>
<path d="M0 0 C1.98 0 3.96 0 6 0 C6.144 1.072 6.289 2.145 6.438 3.25 C6.88 6.792 6.88 6.792 7.688 9.312 C7.791 9.869 7.894 10.426 8 11 C6 13 6 13 2.875 13.125 C1.452 13.063 1.452 13.063 0 13 C-0.33 12.01 -0.66 11.02 -1 10 C-0.34 10 0.32 10 1 10 C1 10.66 1 11.32 1 12 C2.32 11.34 3.64 10.68 5 10 C5 9.34 5 8.68 5 8 C4.01 7.67 3.02 7.34 2 7 C2 6.34 2 5.68 2 5 C2.99 5 3.98 5 5 5 C4.67 4.01 4.34 3.02 4 2 C3.34 2 2.68 2 2 2 C1.67 2.66 1.34 3.32 1 4 C0.34 4 -0.32 4 -1 4 C-0.67 2.68 -0.34 1.36 0 0 Z " fill="#000000" transform="translate(290,289)"/>
<path d="M0 0 C0.99 0 1.98 0 3 0 C3.195 1.457 3.381 2.916 3.562 4.375 C3.667 5.187 3.771 5.999 3.879 6.836 C4 9 4 9 3 11 C1.68 10.67 0.36 10.34 -1 10 C-1.027 8.521 -1.046 7.042 -1.062 5.562 C-1.074 4.739 -1.086 3.915 -1.098 3.066 C-1 1 -1 1 0 0 Z " fill="#FFFFFF" transform="translate(260,290)"/>
<path d="M0 0 C3 0.125 3 0.125 4 1.125 C4.099 2.956 4.13 4.791 4.125 6.625 C4.128 7.625 4.13 8.626 4.133 9.656 C4 12.125 4 12.125 3 13.125 C0 13.25 0 13.25 -3 13.125 C-4 12.125 -4 12.125 -4.133 9.656 C-4.13 8.656 -4.128 7.656 -4.125 6.625 C-4.128 5.625 -4.13 4.624 -4.133 3.594 C-3.938 -0.036 -3.694 0.154 0 0 Z M-1 1.125 C-3.29 4.56 -3.178 6.11 -3 10.125 C-1.02 11.115 -1.02 11.115 1 12.125 C3.307 10.247 3.307 10.247 3.25 7.188 C3.235 3.952 3.235 3.952 1 1.125 C0.34 1.125 -0.32 1.125 -1 1.125 Z " fill="#000000" transform="translate(272,288.875)"/>
<path d="M0 0 C1.98 0 3.96 0 6 0 C6.562 1.938 6.562 1.938 7 4 C6 5 6 5 2.938 5.062 C1.483 5.032 1.483 5.032 0 5 C0 3.35 0 1.7 0 0 Z " fill="#FFFFFF" transform="translate(247,290)"/>
<path d="M0 0 C1.32 0.66 2.64 1.32 4 2 C3.34 3.32 2.68 4.64 2 6 C0.68 5.34 -0.64 4.68 -2 4 C-1.34 2.68 -0.68 1.36 0 0 Z " fill="#FFFFFF" transform="translate(302,290)"/>
<path d="M0 0 C1.98 0.495 1.98 0.495 4 1 C4 2.32 4 3.64 4 5 C2.35 4.67 0.7 4.34 -1 4 C-0.67 2.68 -0.34 1.36 0 0 Z " fill="#FFFFFF" transform="translate(280,296)"/>
</svg>
