<?xml version="1.0" encoding="UTF-8"?>
<!-- Generator: visioncortex VTracer 0.6.4 -->
<svg version="1.1" xmlns="http://www.w3.org/2000/svg" width="439" height="511">
<path d="M0 0 C144.87 0 289.74 0 439 0 C439 168.63 439 337.26 439 511 C294.13 511 149.26 511 0 511 C0 342.37 0 173.74 0 0 Z " fill="#FEFEFE" transform="translate(0,0)"/>
<path d="M0 0 C72.27 0 144.54 0 219 0 C219 56.1 219 112.2 219 170 C146.73 170 74.46 170 0 170 C0 113.9 0 57.8 0 0 Z " fill="#FFFFFF" transform="translate(0,0)"/>
<path d="M0 0 C72.27 0.33 144.54 0.66 219 1 C219 56.77 219 112.54 219 170 C146.73 170 74.46 170 0 170 C0 113.9 0 57.8 0 0 Z " fill="#FFFFFF" transform="translate(220,171)"/>
<path d="M0 0 C72.27 0.33 144.54 0.66 219 1 C219 56.77 219 112.54 219 170 C146.73 170 74.46 170 0 170 C0 113.9 0 57.8 0 0 Z " fill="#FFFFFF" transform="translate(0,171)"/>
<path d="M0 0 C72.27 0 144.54 0 219 0 C219 55.44 219 110.88 219 168 C146.73 168 74.46 168 0 168 C0 112.56 0 57.12 0 0 Z " fill="#FFFFFF" transform="translate(220,343)"/>
<path d="M0 0 C72.27 0 144.54 0 219 0 C219 55.44 219 110.88 219 168 C146.73 168 74.46 168 0 168 C0 112.56 0 57.12 0 0 Z " fill="#FFFFFF" transform="translate(0,343)"/>
<path d="M0 0 C2.087 1.507 3.917 3.117 5.773 4.898 C6.682 5.693 6.682 5.693 7.609 6.504 C23.223 20.856 29.736 46.579 30.898 67.097 C31.354 80.328 31.558 95.014 22.461 105.586 C19.655 108 17.168 109.444 13.773 110.898 C12.866 111.29 11.958 111.682 11.023 112.086 C3.82 113.887 -2.104 113.581 -8.633 109.969 C-10.227 108.898 -10.227 108.898 -12.227 106.898 C-13.834 107.104 -15.44 107.319 -17.039 107.582 C-23.351 108.495 -29.11 109.236 -34.539 105.398 C-44.975 96.283 -49.64 83.949 -53.227 70.898 C-53.443 70.174 -53.66 69.45 -53.883 68.703 C-57.425 55.421 -58.324 37.766 -51.332 25.574 C-47.938 20.429 -45.074 18.754 -39.227 17.148 C-34.792 15.856 -34.792 15.856 -31.512 12.789 C-30.707 11.216 -29.939 9.625 -29.211 8.016 C-27.431 4.187 -24.884 2.59 -21.074 1 C-14.473 -1.274 -6.55 -3.241 0 0 Z " fill="#000000" transform="translate(340.2265625,376.1015625)"/>
<path d="M0 0 C18.604 13.449 25.607 37.873 29.273 59.402 C31.422 74.996 30.825 91.647 21.875 105.062 C16.454 109.984 10.367 112.741 2.914 112.496 C0.47 111.976 -1.092 110.979 -3.188 109.625 C-7.415 106.983 -10.732 106.743 -15.688 106.625 C-21.538 106.397 -25.069 105.897 -29.426 101.918 C-29.987 101.306 -30.547 100.693 -31.125 100.062 C-32.043 99.067 -32.043 99.067 -32.98 98.051 C-45.187 83.554 -49.477 63.132 -49.5 44.625 C-49.524 43.57 -49.549 42.515 -49.574 41.428 C-49.606 32.872 -48.063 25.47 -43.266 18.273 C-38.604 13.747 -35.687 12.062 -29.125 12.062 C-28.957 11.183 -28.957 11.183 -28.785 10.285 C-27.468 5.85 -24.217 2.344 -20.301 -0.055 C-13.768 -2.838 -6.324 -3.584 0 0 Z " fill="#000000" transform="translate(120.125,374.9375)"/>
<path d="M0 0 C2.625 0.375 2.625 0.375 5 1 C5.027 3.729 5.047 6.458 5.062 9.188 C5.071 9.956 5.079 10.725 5.088 11.518 C5.105 15.485 4.986 19.126 4 23 C5.485 23.495 5.485 23.495 7 24 C7.293 30.055 7.293 30.055 7 32 C3.206 34.53 1.143 34.173 -3.375 34.062 C-7.765 33.963 -11.727 33.936 -16 35 C-16 36.32 -16 37.64 -16 39 C-23.59 42.3 -31.18 45.6 -39 49 C-39.235 51.231 -39.235 51.231 -37.023 52.988 C-35.712 54.139 -35.712 54.139 -34.375 55.312 C-33.01 56.519 -33.01 56.519 -31.617 57.75 C-29.605 59.48 -27.575 61.161 -25.5 62.812 C-23.194 64.831 -22.052 66.161 -21 69 C-20.092 68.938 -19.185 68.876 -18.25 68.812 C-14.599 69.023 -13.545 69.455 -11 72 C-10.558 72.779 -10.116 73.557 -9.66 74.359 C-6.91 78.734 -2.917 81.692 1 85 C1.908 85.804 2.815 86.609 3.75 87.438 C6.45 89.312 7.699 89.817 11 90 C13.993 88.982 16.754 87.567 19.562 86.125 C21.062 85.374 22.564 84.627 24.066 83.883 C24.726 83.547 25.385 83.21 26.065 82.864 C28.026 81.989 29.906 81.456 32 81 C32.33 82.32 32.66 83.64 33 85 C26.73 87.97 20.46 90.94 14 94 C14 94.66 14 95.32 14 96 C15.98 95.67 17.96 95.34 20 95 C20 95.66 20 96.32 20 97 C24.29 95.02 28.58 93.04 33 91 C33 91.66 33 92.32 33 93 C31.234 94.008 29.462 95.006 27.688 96 C26.701 96.557 25.715 97.114 24.699 97.688 C22 99 22 99 19 99 C19.66 99.66 20.32 100.32 21 101 C21.717 100.636 22.433 100.273 23.171 99.898 C26.404 98.261 29.639 96.631 32.875 95 C34.003 94.428 35.131 93.855 36.293 93.266 C37.369 92.724 38.446 92.183 39.555 91.625 C40.55 91.122 41.545 90.62 42.57 90.102 C45 89 45 89 47 89 C47 88.01 47 87.02 47 86 C46.169 86.451 46.169 86.451 45.32 86.91 C44.596 87.29 43.871 87.671 43.125 88.062 C42.406 88.445 41.686 88.828 40.945 89.223 C40.303 89.479 39.661 89.736 39 90 C38.34 89.67 37.68 89.34 37 89 C37.474 88.588 37.949 88.175 38.438 87.75 C40.163 85.818 40.566 84.518 41 82 C39.02 81.505 39.02 81.505 37 81 C37 80.01 37 79.02 37 78 C37.574 77.887 38.147 77.773 38.738 77.656 C42.862 76.46 46.137 74.184 49 71 C49.935 67.964 50.112 65.164 50 62 C50.66 62 51.32 62 52 62 C51.939 61.016 51.939 61.016 51.876 60.012 C51.698 57.05 51.537 54.088 51.375 51.125 C51.311 50.092 51.246 49.06 51.18 47.996 C51.128 47.01 51.077 46.024 51.023 45.008 C50.971 44.097 50.919 43.185 50.865 42.247 C51 40 51 40 53 38 C55.125 38.375 55.125 38.375 57 39 C58.268 43.687 57.911 48.033 57.562 52.812 C57.51 53.601 57.458 54.389 57.404 55.201 C57.275 57.135 57.139 59.067 57 61 C57.66 61.33 58.32 61.66 59 62 C60.205 74.656 60.205 74.656 59 80 C56.618 82.841 54.605 84.114 51.285 85.711 C50.531 86.136 49.777 86.562 49 87 C48.84 87.943 48.84 87.943 48.678 88.906 C48 91 48 91 45.775 92.464 C44.338 93.124 44.338 93.124 42.871 93.797 C41.319 94.522 41.319 94.522 39.736 95.262 C38.648 95.753 37.559 96.244 36.438 96.75 C35.345 97.257 34.253 97.763 33.127 98.285 C30.424 99.536 27.715 100.774 25 102 C25 102.99 25 103.98 25 105 C26.941 106.806 28.854 108.438 30.938 110.062 C36.887 114.775 36.887 114.775 38 117 C38.352 120.799 38.527 123.144 36.5 126.438 C33.725 128.172 31.558 128.809 28.27 128.645 C23.353 127.248 19.739 123.334 16 120 C14.411 118.628 12.808 117.272 11.188 115.938 C10.5 115.348 9.813 114.759 9.105 114.152 C7.043 112.78 7.043 112.78 4.566 113.152 C1.786 114.071 -0.657 115.268 -3.25 116.625 C-8.434 119.042 -12.507 119.937 -18 118 C-20.689 115.8 -20.92 114.469 -21.5 111.062 C-20.816 106.875 -19.273 105.646 -16 103 C-13.709 101.547 -11.402 100.271 -9 99 C-11.64 96.69 -14.28 94.38 -17 92 C-17.33 93.65 -17.66 95.3 -18 97 C-19.459 98.577 -19.459 98.577 -21.309 99.895 C-22.305 100.615 -22.305 100.615 -23.322 101.35 C-24.369 102.074 -24.369 102.074 -25.438 102.812 C-26.479 103.566 -26.479 103.566 -27.541 104.334 C-32.693 108 -32.693 108 -35 108 C-34.434 108.664 -33.868 109.328 -33.285 110.012 C-32.552 110.895 -31.818 111.778 -31.062 112.688 C-30.332 113.558 -29.601 114.428 -28.848 115.324 C-26.989 118.015 -26.365 119.788 -26 123 C-27.32 123 -28.64 123 -30 123 C-31.982 120.95 -33.624 119.018 -35.312 116.75 C-35.78 116.163 -36.247 115.577 -36.729 114.973 C-40.007 110.663 -40.007 110.663 -39.977 107.75 C-38.237 104.633 -35.868 103.107 -33 101 C-32.34 101 -31.68 101 -31 101 C-31 100.34 -31 99.68 -31 99 C-33.97 98.67 -36.94 98.34 -40 98 C-40.392 99.361 -40.784 100.722 -41.188 102.125 C-42.744 106.759 -44.453 109.622 -48 113 C-50.688 114 -50.688 114 -53 114 C-53.66 113.34 -54.32 112.68 -55 112 C-55.041 113.238 -55.082 114.475 -55.125 115.75 C-55.568 119.593 -55.823 119.855 -59.062 122.5 C-60.032 122.995 -61.001 123.49 -62 124 C-62.598 123.526 -63.196 123.051 -63.812 122.562 C-66.004 120.835 -66.004 120.835 -69 120 C-70 117.667 -71 115.333 -72 113 C-72.99 112.67 -73.98 112.34 -75 112 C-75 111.34 -75 110.68 -75 110 C-75.945 109.863 -75.945 109.863 -76.909 109.723 C-77.599 109.484 -78.289 109.246 -79 109 C-80.102 106.291 -80.938 103.805 -81.688 101 C-82.684 96.117 -82.684 96.117 -85 92 C-85.041 90.334 -85.043 88.666 -85 87 C-82.03 86.505 -82.03 86.505 -79 86 C-79 85.01 -79 84.02 -79 83 C-72.29 79.774 -72.29 79.774 -68 81 C-67.526 80.505 -67.051 80.01 -66.562 79.5 C-66.047 79.005 -65.531 78.51 -65 78 C-61.658 78.245 -60.395 78.605 -58 81 C-56.012 81.398 -54.011 81.738 -52 82 C-52.33 80.02 -52.66 78.04 -53 76 C-50.083 74.016 -48.876 74.012 -45.25 74.375 C-43.641 74.684 -43.641 74.684 -42 75 C-41.505 73.515 -41.505 73.515 -41 72 C-43.082 70.228 -45.166 68.457 -47.25 66.688 C-48.13 65.938 -48.13 65.938 -49.027 65.174 C-50.17 64.205 -51.317 63.241 -52.469 62.283 C-53.716 61.238 -54.935 60.159 -56.145 59.07 C-57.964 57.769 -57.964 57.769 -60.184 58.293 C-61.299 58.736 -61.299 58.736 -62.438 59.188 C-63.23 59.487 -64.023 59.786 -64.84 60.094 C-66.41 60.753 -67.962 61.457 -69.5 62.188 C-73.255 63.408 -77.099 63.649 -81 63 C-83.262 61.805 -83.262 61.805 -85 60 C-85.536 56.596 -85.18 53.467 -85 50 C-81.37 48.02 -77.74 46.04 -74 44 C-75.733 42.793 -75.733 42.793 -77.5 41.562 C-79.742 39.652 -80.849 38.574 -81.605 35.703 C-81.727 32.166 -81.608 29.836 -79.5 26.938 C-75.787 25.545 -72.82 24.947 -69 26 C-66.292 27.843 -63.908 29.845 -61.492 32.055 C-58.55 34.351 -56.702 35.393 -53 36 C-49.935 35.231 -47.167 33.965 -44.312 32.625 C-42.811 31.946 -41.307 31.271 -39.801 30.602 C-38.813 30.143 -38.813 30.143 -37.806 29.674 C-36 29 -36 29 -33 29 C-32.965 31.262 -32.965 31.262 -34 34 C-36.679 35.708 -39.586 36.729 -42.562 37.812 C-43.369 38.124 -44.175 38.435 -45.006 38.756 C-46.997 39.522 -48.998 40.263 -51 41 C-48.137 42.309 -48.137 42.309 -45.914 41.188 C-45.159 40.796 -44.403 40.404 -43.625 40 C-40.589 38.554 -39.353 37.971 -35.938 38.25 C-35.298 38.498 -34.659 38.745 -34 39 C-37.126 42.394 -39.565 44.606 -44 46 C-43.01 46.495 -43.01 46.495 -42 47 C-39.785 46.289 -39.785 46.289 -37.316 45.129 C-36.389 44.72 -35.461 44.31 -34.506 43.889 C-33.535 43.451 -32.563 43.013 -31.562 42.562 C-29.649 41.705 -27.734 40.852 -25.816 40.004 C-24.965 39.62 -24.114 39.237 -23.237 38.842 C-21 38 -21 38 -18 38 C-18 37.01 -18 36.02 -18 35 C-19.65 35.33 -21.3 35.66 -23 36 C-23.33 35.01 -23.66 34.02 -24 33 C-23.34 32.34 -22.68 31.68 -22 31 C-23.65 30.67 -25.3 30.34 -27 30 C-27.495 28.515 -27.495 28.515 -28 27 C-25.394 26.069 -24.358 25.851 -21.75 26.938 C-20.884 27.463 -20.884 27.463 -20 28 C-20 27.01 -20 26.02 -20 25 C-13.028 21.953 -7.47 21.841 0 23 C-0.141 20.25 -0.288 17.5 -0.438 14.75 C-0.477 13.973 -0.516 13.195 -0.557 12.395 C-0.599 11.64 -0.64 10.886 -0.684 10.109 C-0.72 9.418 -0.757 8.727 -0.795 8.015 C-0.94 5.954 -0.94 5.954 -1.645 3.868 C-1.762 3.252 -1.879 2.635 -2 2 C-1.34 1.34 -0.68 0.68 0 0 Z " fill="#232323" transform="translate(344,21)"/>
<path d="M0 0 C3.3 0 6.6 0 10 0 C10 8.91 10 17.82 10 27 C10.99 27 11.98 27 13 27 C13 29.97 13 32.94 13 36 C13.655 36.049 14.31 36.098 14.984 36.148 C17.994 36.395 20.996 36.69 24 37 C25.03 37.099 26.06 37.199 27.121 37.301 C33.931 38.16 39.337 39.703 44 45 C46.148 49.073 46.433 53.103 46.625 57.625 C46.682 58.794 46.682 58.794 46.74 59.988 C47.339 74.64 47.08 89.338 47 104 C45.68 104.33 44.36 104.66 43 105 C43 106.98 43 108.96 43 111 C41.543 111.195 40.084 111.381 38.625 111.562 C37.813 111.667 37.001 111.771 36.164 111.879 C34 112 34 112 32 111 C32 110.34 32 109.68 32 109 C30.68 109 29.36 109 28 109 C28 103.39 28 97.78 28 92 C26.02 92.495 26.02 92.495 24 93 C24.495 100.92 24.495 100.92 25 109 C25.66 109 26.32 109 27 109 C27 110.32 27 111.64 27 113 C23.327 114.613 21.265 115.04 17.25 114.438 C14 113 14 113 12.797 110.41 C12.402 109.217 12.402 109.217 12 108 C9.792 107.918 7.584 107.861 5.375 107.812 C4.145 107.778 2.915 107.743 1.648 107.707 C-2.291 108.023 -4.526 109.224 -8 111 C-10.942 110.818 -13.162 109.93 -16 109 C-15.683 108.479 -15.366 107.958 -15.039 107.422 C-13.711 104.326 -13.576 101.606 -13.375 98.25 C-13.3 97.08 -13.225 95.909 -13.148 94.703 C-13.099 93.811 -13.05 92.919 -13 92 C-14.32 91.67 -15.64 91.34 -17 91 C-17 89.02 -17 87.04 -17 85 C-18.702 85.99 -18.702 85.99 -20.438 87 C-24.805 89.188 -29.165 90.113 -34 89 C-36.62 85.07 -36.306 81.694 -36.301 77.133 C-36.305 76.261 -36.309 75.389 -36.314 74.491 C-36.32 72.647 -36.32 70.803 -36.316 68.958 C-36.313 66.143 -36.336 63.328 -36.361 60.512 C-36.364 58.719 -36.364 56.926 -36.363 55.133 C-36.372 54.293 -36.382 53.453 -36.391 52.588 C-36.354 47.908 -36.069 44.776 -33 41 C-30.774 39.152 -28.268 37.922 -25.688 36.625 C-24.986 36.269 -24.284 35.913 -23.561 35.547 C-16.482 32.265 -10.657 32.469 -3 34 C-3 32.02 -3 30.04 -3 28 C-2.01 27.67 -1.02 27.34 0 27 C-0.053 25.826 -0.053 25.826 -0.108 24.629 C-0.265 21.107 -0.414 17.585 -0.562 14.062 C-0.647 12.215 -0.647 12.215 -0.732 10.33 C-0.781 9.16 -0.829 7.99 -0.879 6.785 C-0.926 5.701 -0.973 4.617 -1.022 3.5 C-1 1 -1 1 0 0 Z " fill="#121212" transform="translate(319,198)"/>
<path d="M0 0 C1 1 1 1 1.062 4.562 C1.042 5.697 1.021 6.831 1 8 C-2.1 9.342 -5.206 10.672 -8.312 12 C-9.194 12.382 -10.075 12.763 -10.982 13.156 C-11.83 13.517 -12.678 13.878 -13.551 14.25 C-14.331 14.585 -15.111 14.92 -15.915 15.266 C-18 16 -18 16 -21 16 C-21 16.66 -21 17.32 -21 18 C-12.719 16.478 -5.594 13.4 2.004 9.838 C8.934 6.805 8.934 6.805 12.237 7.409 C14.18 8.238 14.18 8.238 17 10 C17 12.31 17 14.62 17 17 C8.331 21.087 -0.514 24.645 -9.438 28.125 C-10.904 28.7 -12.371 29.274 -13.838 29.85 C-16.81 31.015 -19.784 32.179 -22.757 33.341 C-28.841 35.719 -34.92 38.11 -41 40.5 C-43.271 41.392 -45.542 42.284 -47.812 43.176 C-54.439 45.779 -61.065 48.383 -67.689 50.991 C-70.536 52.112 -73.384 53.23 -76.232 54.346 C-82.252 56.709 -88.26 59.088 -94.219 61.602 C-95.128 61.981 -96.036 62.36 -96.973 62.751 C-98.58 63.426 -100.182 64.113 -101.777 64.817 C-106.866 66.944 -111.489 67.823 -117 67 C-119.68 65.715 -119.68 65.715 -121.875 63.938 C-126.338 60.489 -130.932 57.507 -135.75 54.578 C-138 53 -138 53 -140 50 C-140.197 46.989 -140.28 44.073 -140.266 41.062 C-140.268 40.186 -140.269 39.31 -140.271 38.406 C-140.273 36.554 -140.269 34.701 -140.261 32.849 C-140.25 30.011 -140.261 27.174 -140.273 24.336 C-140.272 22.536 -140.27 20.737 -140.266 18.938 C-140.27 18.087 -140.274 17.237 -140.278 16.362 C-140.23 10.345 -140.23 10.345 -138 7 C-134.584 7.293 -133.066 7.946 -130.368 10.137 C-127.522 13.578 -127.353 15.205 -127.293 19.613 C-127.264 20.86 -127.235 22.108 -127.205 23.393 C-127.199 24.686 -127.193 25.98 -127.188 27.312 C-127.162 28.625 -127.137 29.938 -127.111 31.291 C-127.052 34.528 -127.016 37.763 -127 41 C-126.98 40.415 -126.96 39.83 -126.94 39.228 C-126.844 36.568 -126.735 33.909 -126.625 31.25 C-126.594 30.33 -126.563 29.409 -126.531 28.461 C-126.473 27.127 -126.473 27.127 -126.414 25.766 C-126.383 24.949 -126.351 24.132 -126.319 23.29 C-125.968 20.769 -125.399 19.125 -124 17 C-123.01 16.67 -122.02 16.34 -121 16 C-117.086 18.157 -114.526 19.77 -113 24 C-112.705 26.774 -112.493 29.47 -112.375 32.25 C-112.336 32.995 -112.298 33.74 -112.258 34.508 C-112.164 36.338 -112.081 38.169 -112 40 C-85.311 29.665 -85.311 29.665 -58.716 19.093 C-55.424 17.768 -52.13 16.45 -48.836 15.133 C-48.199 14.878 -47.563 14.623 -46.907 14.361 C-43.641 13.054 -40.375 11.751 -37.106 10.452 C-31.327 8.153 -25.562 5.832 -19.844 3.383 C-18.93 2.997 -18.016 2.612 -17.074 2.215 C-15.414 1.512 -13.76 0.794 -12.113 0.059 C-7.4 -1.918 -4.822 -2.396 0 0 Z " fill="#070707" transform="translate(172,233)"/>
<path d="M0 0 C3.079 2.831 5.823 6.016 6.203 10.277 C6.226 11.594 6.226 11.594 6.25 12.938 C6.289 14.25 6.289 14.25 6.328 15.59 C5.926 18.542 5.23 19.101 3 21 C1.116 22.052 1.116 22.052 -1.051 23.023 C-1.878 23.398 -2.705 23.772 -3.557 24.157 C-4.921 24.76 -4.921 24.76 -6.312 25.375 C-7.28 25.809 -8.248 26.242 -9.245 26.689 C-20.384 31.657 -31.577 36.501 -42.781 41.317 C-47.183 43.211 -51.576 45.125 -55.964 47.049 C-59.12 48.432 -62.279 49.806 -65.439 51.18 C-66.962 51.844 -68.483 52.511 -70.002 53.182 C-77.165 56.341 -84.006 59.334 -91.796 60.562 C-96.432 61.483 -100.656 63.712 -104.918 65.697 C-109.327 67.643 -112.205 68.554 -117 67 C-120.084 64.318 -121.687 62.732 -122.414 58.707 C-122.627 52.77 -122.627 52.77 -120.783 50.507 C-118.635 48.692 -116.623 47.856 -114 46.844 C-113.031 46.461 -112.061 46.078 -111.062 45.684 C-109.021 44.895 -106.979 44.105 -104.938 43.316 C-103.968 42.934 -102.999 42.551 -102 42.156 C-101.113 41.814 -100.226 41.472 -99.312 41.119 C-96.997 40.165 -96.997 40.165 -95.624 38.56 C-93.163 36.196 -90.131 35.161 -87.016 33.891 C-86.323 33.601 -85.63 33.311 -84.917 33.012 C-82.697 32.084 -80.474 31.167 -78.25 30.25 C-75.358 29.051 -72.467 27.848 -69.578 26.641 C-68.855 26.339 -68.133 26.037 -67.388 25.726 C-62.103 23.503 -56.908 21.123 -51.726 18.669 C-43.868 14.964 -35.867 11.591 -27.875 8.188 C-26.299 7.514 -24.724 6.84 -23.148 6.166 C-21.638 5.521 -20.128 4.875 -18.617 4.23 C-17.924 3.935 -17.232 3.639 -16.518 3.334 C-14.681 2.552 -12.84 1.776 -11 1 C-9.62 0.405 -9.62 0.405 -8.211 -0.202 C-5.013 -1.356 -3.217 -1.072 0 0 Z " fill="#313131" transform="translate(166,52)"/>
<path d="M0 0 C8.268 2.321 12.991 8.014 17.562 15 C27.03 32.172 32.723 54.141 28.328 73.539 C26.577 79.169 24.551 84.674 19.562 88 C15.062 88.737 11.476 88.448 7.375 86.438 C-8.286 72.864 -13.552 51.924 -15.438 32 C-15.957 22.599 -14.935 11.262 -8.438 4 C-5.479 0.882 -4.345 0 0 0 Z " fill="#FFFFFF" transform="translate(87.4375,391)"/>
<path d="M0 0 C11.651 5.825 17.573 18.16 21.673 29.932 C26.812 45.776 29.22 64.407 22 80 C19.955 83.276 17.836 84.684 14.188 86.062 C8.867 85.958 5.183 83.869 1.18 80.441 C-12.468 66.212 -17.634 43.117 -17.254 23.988 C-16.5 15.116 -14.497 7.497 -8.125 1.125 C-5.15 -0.45 -3.33 -0.466 0 0 Z " fill="#FFFFFF" transform="translate(303,397)"/>
<path d="M0 0 C0.33 0 0.66 0 1 0 C1 56.1 1 112.2 1 170 C73.27 170 145.54 170 220 170 C220 170.66 220 171.32 220 172 C191.741 172.023 163.483 172.041 135.224 172.052 C122.104 172.057 108.983 172.064 95.863 172.075 C84.432 172.085 73 172.092 61.568 172.094 C55.512 172.095 49.455 172.098 43.399 172.106 C37.704 172.112 32.01 172.115 26.315 172.113 C24.22 172.113 22.124 172.115 20.029 172.119 C17.179 172.124 14.329 172.123 11.479 172.12 C10.221 172.125 10.221 172.125 8.938 172.129 C3.228 172.114 3.228 172.114 1 171 C1 227.1 1 283.2 1 341 C73.27 341 145.54 341 220 341 C220 341.66 220 342.32 220 343 C147.73 343 75.46 343 1 343 C1 398.44 1 453.88 1 511 C0.67 511 0.34 511 0 511 C0 455.56 0 400.12 0 343 C-72.27 343 -144.54 343 -219 343 C-219 342.34 -219 341.68 -219 341 C-146.73 341 -74.46 341 0 341 C0 285.23 0 229.46 0 172 C-23.462 172.035 -23.462 172.035 -47.398 172.07 C-57.279 172.081 -67.159 172.09 -77.039 172.098 C-92.738 172.11 -108.438 172.124 -124.137 172.151 C-135.568 172.171 -147 172.184 -158.432 172.188 C-164.488 172.191 -170.545 172.197 -176.601 172.211 C-182.296 172.225 -187.99 172.229 -193.685 172.226 C-195.78 172.227 -197.876 172.231 -199.971 172.238 C-202.821 172.248 -205.671 172.246 -208.521 172.241 C-209.36 172.246 -210.198 172.252 -211.062 172.258 C-216.772 172.228 -216.772 172.228 -219 170 C-146.73 170 -74.46 170 0 170 C0 113.9 0 57.8 0 0 Z " fill="#000000" transform="translate(219,0)"/>
<path d="M0 0 C12.775 9.441 18.746 25.384 21.871 40.383 C22.095 41.435 22.32 42.487 22.551 43.57 C24.843 55.628 25.555 70.026 19.059 81.008 C13.668 86.861 5.496 88.202 -2.129 89.383 C-3.614 88.888 -3.614 88.888 -5.129 88.383 C-4.51 87.434 -3.891 86.485 -3.254 85.508 C4.877 71.004 0.974 51.59 -3.195 36.531 C-5.45 29.022 -8.503 22.414 -12.676 15.773 C-14.129 13.383 -14.129 13.383 -15.129 10.383 C-15.789 10.383 -16.449 10.383 -17.129 10.383 C-18.817 8.738 -20.482 7.069 -22.129 5.383 C-23.119 4.723 -24.109 4.063 -25.129 3.383 C-5.978 -2.96 -5.978 -2.96 0 0 Z " fill="#FFFFFF" transform="translate(332.12890625,390.6171875)"/>
<path d="M0 0 C0.516 0.392 1.031 0.784 1.562 1.188 C-0.604 3.354 -2.109 3.993 -4.938 5.098 C-6.268 5.623 -6.268 5.623 -7.625 6.158 C-8.553 6.518 -9.481 6.879 -10.438 7.25 C-12.271 7.969 -14.104 8.689 -15.938 9.41 C-16.752 9.727 -17.567 10.045 -18.406 10.371 C-20.457 11.163 -20.457 11.163 -22.438 12.188 C-21.942 14.662 -21.942 14.662 -21.438 17.188 C-12.441 19.566 -5.611 16.442 2.575 13.015 C13.073 8.644 13.073 8.644 17.562 10.188 C14.815 12.935 11.549 13.894 7.98 15.25 C6.804 15.705 6.804 15.705 5.603 16.169 C3.891 16.83 2.177 17.49 0.463 18.147 C-4.202 19.936 -8.861 21.744 -13.52 23.551 C-14.495 23.929 -15.47 24.306 -16.475 24.696 C-26.209 28.473 -35.905 32.345 -45.595 36.235 C-48.431 37.372 -51.268 38.508 -54.105 39.642 C-62.084 42.833 -70.062 46.03 -78.022 49.269 C-81.107 50.522 -84.196 51.765 -87.286 53.007 C-88.704 53.579 -90.12 54.156 -91.534 54.738 C-93.456 55.528 -95.383 56.303 -97.312 57.074 C-98.382 57.51 -99.452 57.945 -100.555 58.393 C-103.679 59.254 -105.392 59.245 -108.438 58.188 C-109.939 55.184 -109.53 52.397 -109.5 49.062 C-109.491 47.781 -109.482 46.5 -109.473 45.18 C-109.461 44.192 -109.449 43.205 -109.438 42.188 C-96.18 36.744 -82.911 31.341 -69.562 26.125 C-56.558 21.042 -43.589 15.872 -30.625 10.688 C-29.626 10.288 -28.627 9.889 -27.597 9.478 C-24.724 8.33 -21.852 7.181 -18.98 6.031 C-18.121 5.688 -17.262 5.345 -16.376 4.991 C-15.565 4.666 -14.754 4.341 -13.919 4.006 C-13.156 3.701 -12.394 3.396 -11.608 3.082 C-9.546 2.232 -7.523 1.321 -5.493 0.396 C-2.438 -0.812 -2.438 -0.812 0 0 Z " fill="#FFFFFF" transform="translate(168.4375,233.8125)"/>
<path d="M0 0 C13.013 10.302 19.649 28.754 22.617 44.688 C23.107 49.408 23.184 54.07 23.188 58.812 C23.2 59.715 23.212 60.618 23.225 61.549 C23.24 68.734 22.645 75.461 18.688 81.688 C18.299 82.323 17.911 82.959 17.512 83.613 C13.821 87.914 9.64 88.847 4.188 89.562 C3.026 89.721 1.865 89.88 0.668 90.043 C-0.653 90.207 -0.653 90.207 -2 90.375 C-1.662 89.697 -1.325 89.019 -0.977 88.32 C7.867 69.866 6.027 50.175 -0.355 31.078 C-2.912 24.091 -6.295 17.786 -10.484 11.645 C-12 9.375 -12 9.375 -13.086 7.141 C-14.303 4.79 -15.612 4.429 -18 3.375 C-19.346 2.392 -20.681 1.393 -22 0.375 C-19.962 -0.16 -17.919 -0.678 -15.875 -1.188 C-14.738 -1.478 -13.601 -1.768 -12.43 -2.066 C-7.575 -2.857 -4.31 -2.335 0 0 Z " fill="#FFFFFF" transform="translate(115,387.625)"/>
<path d="M0 0 C1 1 1 1 1.062 4.562 C1.042 5.697 1.021 6.831 1 8 C-2.1 9.342 -5.206 10.672 -8.312 12 C-9.194 12.382 -10.075 12.763 -10.982 13.156 C-11.83 13.517 -12.678 13.878 -13.551 14.25 C-14.331 14.585 -15.111 14.92 -15.915 15.266 C-18 16 -18 16 -21 16 C-21 16.66 -21 17.32 -21 18 C-12.719 16.478 -5.594 13.4 2.004 9.838 C8.934 6.805 8.934 6.805 12.237 7.409 C14.18 8.238 14.18 8.238 17 10 C17 12.31 17 14.62 17 17 C8.331 21.087 -0.514 24.645 -9.438 28.125 C-10.904 28.7 -12.371 29.274 -13.838 29.85 C-16.81 31.015 -19.784 32.179 -22.757 33.341 C-28.841 35.719 -34.92 38.11 -41 40.5 C-43.254 41.385 -45.508 42.271 -47.762 43.156 C-48.913 43.609 -50.065 44.061 -51.251 44.527 C-53.937 45.582 -56.622 46.637 -59.307 47.691 C-63.072 49.17 -66.837 50.65 -70.601 52.131 C-72.058 52.703 -73.515 53.276 -74.972 53.848 C-77.009 54.648 -79.046 55.449 -81.082 56.25 C-82.834 56.938 -82.834 56.938 -84.62 57.641 C-86.387 58.351 -88.153 59.071 -89.88 59.873 C-94.701 62.1 -94.701 62.1 -98 61 C-94.635 58.887 -91.33 57.211 -87.637 55.75 C-86.547 55.316 -85.456 54.882 -84.333 54.435 C-82.529 53.725 -82.529 53.725 -80.688 53 C-79.392 52.486 -78.097 51.972 -76.802 51.457 C-73.062 49.973 -69.321 48.495 -65.578 47.018 C-57.703 43.909 -49.831 40.795 -41.958 37.681 C-38.821 36.441 -35.684 35.202 -32.547 33.964 C-23.688 30.463 -14.833 26.957 -6.023 23.336 C-5.049 22.936 -5.049 22.936 -4.056 22.528 C-1.174 21.342 1.703 20.149 4.577 18.945 C5.538 18.547 6.498 18.149 7.488 17.738 C8.298 17.398 9.108 17.058 9.943 16.708 C12 16 12 16 15 16 C14.67 15.34 14.34 14.68 14 14 C13.217 14.316 13.217 14.316 12.418 14.639 C9.946 15.636 7.473 16.631 5 17.625 C4.18 17.956 3.36 18.288 2.516 18.629 C-2.791 20.759 -8.125 22.801 -13.484 24.793 C-21.947 27.944 -30.327 31.291 -38.703 34.663 C-43.09 36.428 -47.478 38.187 -51.867 39.945 C-52.737 40.294 -53.606 40.642 -54.501 41.001 C-64.314 44.932 -74.149 48.807 -84 52.641 C-87.855 54.144 -91.685 55.693 -95.5 57.297 C-96.75 57.813 -96.75 57.813 -98.026 58.34 C-99.524 58.96 -101.017 59.595 -102.501 60.248 C-105.895 61.638 -107.781 62.045 -111.414 61.293 C-114 60 -114 60 -115 58 C-115.156 55.449 -115.258 52.921 -115.316 50.367 C-115.337 49.615 -115.358 48.864 -115.379 48.089 C-115.445 45.684 -115.504 43.28 -115.562 40.875 C-115.606 39.246 -115.649 37.617 -115.693 35.988 C-115.801 31.992 -115.902 27.996 -116 24 C-116.33 24 -116.66 24 -117 24 C-117.33 31.26 -117.66 38.52 -118 46 C-118.66 45.67 -119.32 45.34 -120 45 C-120 38.4 -120 31.8 -120 25 C-121.32 24.67 -122.64 24.34 -124 24 C-124 32.58 -124 41.16 -124 50 C-126.475 50.495 -126.475 50.495 -129 51 C-130.812 49.562 -130.812 49.562 -132 48 C-130.333 48 -128.667 48 -127 48 C-127.66 47.34 -128.32 46.68 -129 46 C-129.125 43.375 -129.125 43.375 -129 41 C-128.34 41 -127.68 41 -127 41 C-126.98 40.415 -126.96 39.83 -126.94 39.228 C-126.844 36.568 -126.735 33.909 -126.625 31.25 C-126.579 29.869 -126.579 29.869 -126.531 28.461 C-126.493 27.571 -126.454 26.682 -126.414 25.766 C-126.383 24.949 -126.351 24.132 -126.319 23.29 C-125.968 20.769 -125.399 19.125 -124 17 C-123.01 16.67 -122.02 16.34 -121 16 C-117.086 18.157 -114.526 19.77 -113 24 C-112.705 26.774 -112.493 29.47 -112.375 32.25 C-112.336 32.995 -112.298 33.74 -112.258 34.508 C-112.164 36.338 -112.081 38.169 -112 40 C-85.311 29.665 -85.311 29.665 -58.716 19.093 C-55.424 17.768 -52.13 16.45 -48.836 15.133 C-48.199 14.878 -47.563 14.623 -46.907 14.361 C-43.641 13.054 -40.375 11.751 -37.106 10.452 C-31.327 8.153 -25.562 5.832 -19.844 3.383 C-18.93 2.997 -18.016 2.612 -17.074 2.215 C-15.414 1.512 -13.76 0.794 -12.113 0.059 C-7.4 -1.918 -4.822 -2.396 0 0 Z M-12.141 2.422 C-12.766 2.678 -13.391 2.933 -14.035 3.197 C-15.393 3.752 -16.75 4.31 -18.107 4.868 C-21.769 6.375 -25.436 7.87 -29.102 9.367 C-30.228 9.828 -30.228 9.828 -31.377 10.298 C-38.447 13.188 -45.532 16.04 -52.625 18.875 C-54.41 19.589 -54.41 19.589 -56.232 20.317 C-63.508 23.223 -70.793 26.106 -78.082 28.98 C-78.942 29.32 -79.802 29.659 -80.688 30.008 C-84.924 31.678 -89.161 33.347 -93.399 35.013 C-94.952 35.625 -96.505 36.236 -98.059 36.848 C-98.758 37.122 -99.458 37.397 -100.179 37.679 C-104.488 39.377 -108.751 41.157 -113 43 C-113.054 45.271 -113.093 47.542 -113.125 49.812 C-113.148 51.077 -113.171 52.342 -113.195 53.645 C-113.276 57.134 -113.276 57.134 -111 60 C-106.252 59.457 -102.227 58.507 -97.809 56.699 C-96.633 56.223 -95.457 55.747 -94.246 55.257 C-92.977 54.734 -91.707 54.211 -90.438 53.688 C-89.097 53.142 -87.756 52.598 -86.414 52.054 C-83.636 50.927 -80.86 49.797 -78.085 48.664 C-71.902 46.142 -65.701 43.665 -59.5 41.188 C-58.292 40.704 -57.084 40.221 -55.84 39.722 C-43.735 34.88 -31.605 30.1 -19.476 25.319 C-8.303 20.914 2.858 16.483 14 12 C13.01 11.01 13.01 11.01 12 10 C6.172 10.777 1.411 12.642 -3.938 15.062 C-10.705 18.052 -16.842 20.248 -24.125 18.062 C-24.744 17.712 -25.363 17.361 -26 17 C-26 15.68 -26 14.36 -26 13 C-22.938 11.708 -19.875 10.416 -16.812 9.125 C-15.516 8.578 -15.516 8.578 -14.193 8.02 C-10.142 6.312 -6.092 4.61 -2 3 C-2.99 1.515 -2.99 1.515 -4 0 C-7.023 0 -9.35 1.275 -12.141 2.422 Z " fill="#070707" transform="translate(172,233)"/>
<path d="M0 0 C3.079 2.831 5.823 6.016 6.203 10.277 C6.219 11.155 6.234 12.033 6.25 12.938 C6.276 13.813 6.302 14.688 6.328 15.59 C5.925 18.547 5.24 19.1 3 21 C1.005 22.1 1.005 22.1 -1.297 23.129 C-2.163 23.52 -3.029 23.911 -3.921 24.313 C-4.854 24.725 -5.788 25.138 -6.75 25.562 C-7.713 25.992 -8.675 26.422 -9.667 26.865 C-11.714 27.776 -13.763 28.684 -15.813 29.589 C-19.037 31.016 -22.251 32.464 -25.465 33.914 C-27.539 34.839 -29.613 35.764 -31.688 36.688 C-32.673 37.134 -33.658 37.58 -34.673 38.039 C-35.589 38.443 -36.505 38.846 -37.449 39.262 C-38.257 39.622 -39.065 39.983 -39.897 40.354 C-42 41 -42 41 -45 40 C-43.68 39.34 -42.36 38.68 -41 38 C-40.663 32.389 -40.384 27.632 -44 23 C-46.699 21.898 -49.09 21.477 -52 21 C-48.517 16.857 -44.563 15.216 -39.691 13.18 C-38.486 12.663 -38.486 12.663 -37.256 12.135 C-34.695 11.039 -32.129 9.957 -29.562 8.875 C-27.84 8.14 -26.118 7.405 -24.396 6.668 C-20.55 5.026 -16.703 3.386 -12.844 1.772 C-11.279 1.117 -9.719 0.449 -8.16 -0.222 C-4.99 -1.364 -3.185 -1.062 0 0 Z " fill="#353535" transform="translate(166,52)"/>
<path d="M0 0 C0 0.66 0 1.32 0 2 C-2 3.333 -4 4.667 -6 6 C-7.833 8.106 -7.833 8.106 -9 10 C-8.072 9.835 -7.144 9.67 -6.188 9.5 C7.88 7.649 7.88 7.649 13.312 11.562 C14.573 12.674 15.804 13.82 17 15 C17.509 15.46 18.018 15.92 18.543 16.395 C32.735 30.815 37.372 55.725 37.219 75.066 C36.669 84.954 34.878 93.254 27.688 100.25 C22.712 103.49 17.863 104.286 12 104 C13.786 106.407 15.196 107.818 18.164 108.488 C21.46 108.848 24.685 109 28 109 C28 109.66 28 110.32 28 111 C24.748 112.626 21.515 112.568 18 112 C16 110.918 16 110.918 13.938 109.562 C9.71 106.92 6.393 106.68 1.438 106.562 C-4.413 106.335 -7.944 105.834 -12.301 101.855 C-12.862 101.243 -13.422 100.631 -14 100 C-14.918 99.004 -14.918 99.004 -15.855 97.988 C-28.062 83.492 -32.352 63.07 -32.375 44.562 C-32.399 43.507 -32.424 42.452 -32.449 41.365 C-32.481 32.809 -30.938 25.408 -26.141 18.211 C-21.479 13.684 -18.562 12 -12 12 C-11.896 11.416 -11.791 10.832 -11.684 10.23 C-10.898 7.666 -9.834 6.31 -8.062 4.312 C-7.538 3.711 -7.013 3.109 -6.473 2.488 C-4.224 0.216 -3.253 0 0 0 Z M-3.75 11.5 C-4.92 11.778 -6.091 12.057 -7.297 12.344 C-8.189 12.56 -9.081 12.777 -10 13 C-7.312 15.252 -5.354 16.882 -2 18 C-1.293 19.313 -0.638 20.653 0 22 C0.743 22.969 1.485 23.939 2.25 24.938 C14.048 41.329 18.801 64.752 16.723 84.656 C15.625 91.266 12.972 97.033 10 103 C20.363 102.145 20.363 102.145 29 97 C36.888 85.654 36.472 70.316 34.504 57.004 C33.821 53.603 32.99 50.324 32 47 C31.66 45.854 31.319 44.708 30.969 43.527 C26.782 30.754 20.999 17.905 9.016 10.828 C4.707 9.058 0.585 10.46 -3.75 11.5 Z M-26 22 C-34.113 38.226 -31.086 57.283 -26 74 C-22.169 85.36 -16.269 98.365 -5 104 C-0.437 104.628 2.916 104.723 6.812 102.125 C11.06 96.058 13.489 89.404 14 82 C14.063 81.21 14.126 80.42 14.191 79.605 C15.05 59.812 8.437 36.834 -5 22 C-8.626 18.931 -11.629 16.513 -16.312 15.5 C-20.665 16.31 -23.251 18.592 -26 22 Z " fill="#020202" transform="translate(103,375)"/>
<path d="M0 0 C3.438 0.454 6.875 0.914 10.312 1.375 C11.748 1.564 11.748 1.564 13.213 1.758 C14.17 1.887 15.127 2.016 16.113 2.148 C17.409 2.321 17.409 2.321 18.732 2.498 C23.504 3.231 28.249 4.136 33 5 C33 13.91 33 22.82 33 32 C22.875 32 22.875 32 18.09 31.344 C17.081 31.208 16.072 31.073 15.033 30.934 C14.012 30.791 12.99 30.647 11.938 30.5 C10.353 30.285 10.353 30.285 8.736 30.066 C6.157 29.716 3.578 29.361 1 29 C-0.304 23.064 -0.111 17.167 -0.062 11.125 C-0.058 10.055 -0.053 8.985 -0.049 7.883 C-0.037 5.255 -0.021 2.628 0 0 Z " fill="#FFFFFF" transform="translate(303,259)"/>
<path d="M0 0 C10.922 3.745 16.898 14.524 21.873 24.357 C25.828 32.609 28.376 41.174 30.527 50.051 C30.914 51.643 31.328 53.229 31.75 54.812 C35.293 70.165 34.866 89.042 26.812 102.75 C25.89 104.177 24.959 105.598 24 107 C23.34 106.34 22.68 105.68 22 105 C22.326 104.527 22.652 104.054 22.988 103.566 C32.97 88.462 32.326 70.846 29.039 53.656 C24.925 34.19 17.077 13.384 0 2 C0 1.34 0 0.68 0 0 Z M5 13 C18.385 23.621 24.475 42.567 26.769 58.911 C28.13 71.197 28.554 85.304 21.016 95.75 C15.907 101.452 8.163 102.366 1 104 C7.237 108.536 12.438 108.447 20 108 C20 108.66 20 109.32 20 110 C16.28 111.86 12.06 111.444 8 111 C4.089 109.638 0.931 107.931 -2 105 C-3.607 105.205 -5.214 105.42 -6.812 105.684 C-13.124 106.597 -18.884 107.338 -24.312 103.5 C-34.749 94.384 -39.414 82.051 -43 69 C-43.217 68.276 -43.433 67.551 -43.656 66.805 C-47.206 53.495 -48.061 35.928 -41.125 23.688 C-38.258 19.387 -36.317 17.281 -31.188 16.188 C-29.61 16.095 -29.61 16.095 -28 16 C-28 16.66 -28 17.32 -28 18 C-27.216 18.144 -26.433 18.289 -25.625 18.438 C-23 19 -23 19 -21 20 C-21 20.66 -21 21.32 -21 22 C-20.41 22.242 -19.819 22.485 -19.211 22.734 C-9.945 28.038 -5.541 42.395 -2.773 52.148 C0.573 64.871 1.86 77.138 -0.516 90.172 C-1.095 93.553 -1.233 96.585 -1 100 C-0.67 100.33 -0.34 100.66 0 101 C2.643 100.513 5.207 99.953 7.812 99.312 C8.538 99.151 9.263 98.989 10.01 98.822 C14.405 97.749 17.13 96.709 20 93 C28.403 76.517 24.877 58.713 20.055 41.656 C16.618 31.606 11.334 19.495 1.941 13.738 C-3.717 11.348 -7.849 12.323 -13.52 14.336 C-16.163 15.044 -17.46 14.912 -20 14 C-18.751 13.518 -17.501 13.04 -16.25 12.562 C-15.206 12.162 -15.206 12.162 -14.141 11.754 C-7.268 9.333 -1.333 8.91 5 13 Z M-39 24 C-46.792 38.866 -44.8 56.519 -40.382 72.193 C-36.779 83.638 -31.608 96.423 -21 103 C-17.324 104.521 -15.198 105.278 -11.312 104.375 C-5.315 100.809 -3.607 96.394 -1.762 89.895 C1.938 70.978 -2.744 49.643 -12.48 33.168 C-16.262 27.773 -20.688 21.463 -27 19 C-32.367 18.183 -35.691 19.815 -39 24 Z " fill="#000000" transform="translate(330,378)"/>
<path d="M0 0 C3.102 2.55 4.726 4.177 6 8 C6.459 14.426 6.459 14.426 4.717 16.606 C2.945 18.045 1.373 18.912 -0.721 19.809 C-1.459 20.129 -2.196 20.45 -2.955 20.779 C-3.746 21.114 -4.537 21.448 -5.352 21.793 C-6.166 22.144 -6.981 22.495 -7.82 22.856 C-9.539 23.595 -11.258 24.33 -12.979 25.062 C-15.625 26.187 -18.266 27.322 -20.906 28.459 C-22.575 29.175 -24.245 29.891 -25.914 30.605 C-26.709 30.946 -27.504 31.287 -28.322 31.637 C-33.882 34 -33.882 34 -35 34 C-35.075 33.371 -35.15 32.742 -35.227 32.094 C-35.358 31.238 -35.49 30.382 -35.625 29.5 C-35.741 28.665 -35.857 27.829 -35.977 26.969 C-37.457 22.676 -40.159 19.498 -43 16 C-42.199 15.657 -41.398 15.315 -40.573 14.962 C-37.559 13.673 -34.545 12.383 -31.531 11.093 C-30.235 10.538 -28.938 9.983 -27.642 9.429 C-25.762 8.625 -23.883 7.82 -22.004 7.016 C-20.8 6.5 -19.596 5.984 -18.355 5.453 C-14.807 3.916 -11.283 2.334 -7.774 0.71 C-4.952 -0.419 -2.972 -0.608 0 0 Z " fill="#FFFFFF" transform="translate(120,73)"/>
<path d="M0 0 C16.181 9.189 23.475 28.67 28.382 45.668 C32.933 62.836 35.179 82.876 26.562 99.125 C23.985 103.289 21.764 106.412 17 108 C10.455 108.774 6.373 107.806 1 104 C0.505 103.01 0.505 103.01 0 102 C1.645 101.654 1.645 101.654 3.324 101.301 C4.779 100.972 6.233 100.643 7.688 100.312 C8.409 100.164 9.13 100.015 9.873 99.861 C14.903 98.69 17.663 97.148 21 93 C22.361 90.779 22.361 90.779 23.25 88.5 C23.565 87.768 23.879 87.036 24.203 86.281 C30.408 68.519 24.722 47.001 17.633 30.348 C13.904 22.704 9.154 15.799 2 11 C-2.862 9.379 -7.288 9.711 -12.188 11 C-16 12 -16 12 -20 12 C-18.157 6.134 -14.908 3.041 -9.562 0.125 C-5.56 -1.139 -3.948 -1.37 0 0 Z " fill="#FFFFFF" transform="translate(330,379)"/>
<path d="M0 0 C3.003 0.23 6 0.483 9 0.75 C9.839 0.812 10.678 0.874 11.543 0.938 C18.185 1.555 24.241 3.063 28.938 8.062 C31.461 12.665 31.341 17.197 31.562 22.312 C31.605 23.255 31.647 24.197 31.691 25.168 C32.22 38.438 32.088 51.723 32 65 C30.02 65.495 30.02 65.495 28 66 C28 67.65 28 69.3 28 71 C27.01 71.495 27.01 71.495 26 72 C26 70.68 26 69.36 26 68 C24.02 68.495 24.02 68.495 22 69 C21.982 68.374 21.963 67.749 21.944 67.104 C21.75 60.582 21.536 54.061 21.31 47.54 C21.229 45.108 21.152 42.675 21.081 40.242 C20.977 36.742 20.856 33.242 20.73 29.742 C20.702 28.658 20.674 27.573 20.645 26.456 C20.43 20.955 20.156 16.711 17 12 C12.062 7.594 6.958 7.018 0.625 6.25 C-0.302 6.125 -1.229 6 -2.184 5.871 C-4.454 5.567 -6.726 5.277 -9 5 C-9 4.67 -9 4.34 -9 4 C-4.545 3.505 -4.545 3.505 0 3 C0 2.01 0 1.02 0 0 Z " fill="#FFFFFF" transform="translate(332,236)"/>
<path d="M0 0 C6.554 0.156 11.484 3.504 16.008 7.992 C33.637 28.525 39.636 57.603 38 84 C36.955 91.123 35.128 100.43 29.41 105.375 C27.75 106.5 27.75 106.5 25 108 C24.34 107.67 23.68 107.34 23 107 C23.763 105.928 24.526 104.855 25.312 103.75 C34.265 89.05 32.506 68.865 28.766 52.702 C28.207 50.459 27.615 48.229 27 46 C26.818 45.329 26.636 44.658 26.449 43.966 C23.393 33.037 18.735 21.402 11.25 12.691 C9 10 9 10 9 8 C8.484 7.752 7.969 7.505 7.438 7.25 C4.228 5.604 1.124 3.802 -2 2 C-1.34 1.34 -0.68 0.68 0 0 Z " fill="#FFFFFF" transform="translate(331,376)"/>
<path d="M0 0 C3.062 1.688 3.062 1.688 6 4 C6.959 4.744 7.918 5.488 8.906 6.254 C24.368 19.228 30.802 44.841 33 64 C33.777 77.803 34.006 92.128 26 104 C25.34 104 24.68 104 24 104 C24 104.66 24 105.32 24 106 C19.415 108.939 16.278 109.32 11.059 108.52 C8.468 107.866 6.814 106.971 5 105 C5 104.34 5 103.68 5 103 C5.869 102.841 6.738 102.683 7.633 102.52 C16.971 100.8 16.971 100.8 24 95 C32.448 77.033 29.747 56.178 23.219 38.004 C18.683 26.824 13.388 14.617 2 9 C-0.621 8.603 -0.621 8.603 -3.312 8.75 C-4.739 8.789 -4.739 8.789 -6.195 8.828 C-9.836 9.051 -13.393 9.456 -17 10 C-12.94 3.13 -8.551 -1.222 0 0 Z " fill="#FFFFFF" transform="translate(110,376)"/>
<path d="M0 0 C3.3 0 6.6 0 10 0 C10 8.91 10 17.82 10 27 C10.99 27 11.98 27 13 27 C13.184 32.426 13.097 34.757 11 40 C7.37 40 3.74 40 0 40 C0 40.66 0 41.32 0 42 C-7.755 41.42 -15.347 40.376 -23 39 C-22.01 38.505 -22.01 38.505 -21 38 C-20.67 37.34 -20.34 36.68 -20 36 C-19 34 -19 34 -17 33 C-14.622 33.088 -12.247 33.243 -9.875 33.438 C-8.594 33.539 -7.312 33.641 -5.992 33.746 C-5.005 33.83 -4.017 33.914 -3 34 C-3 32.02 -3 30.04 -3 28 C-2.01 27.67 -1.02 27.34 0 27 C-0.053 25.826 -0.053 25.826 -0.108 24.629 C-0.265 21.107 -0.414 17.585 -0.562 14.062 C-0.619 12.831 -0.675 11.599 -0.732 10.33 C-0.781 9.16 -0.829 7.99 -0.879 6.785 C-0.926 5.701 -0.973 4.617 -1.022 3.5 C-1 1 -1 1 0 0 Z " fill="#000000" transform="translate(319,198)"/>
<path d="M0 0 C1.052 0.119 2.104 0.238 3.188 0.361 C4.402 0.516 5.616 0.672 6.867 0.832 C8.315 1 9.762 1.166 11.21 1.331 C15.228 1.795 19.24 2.301 23.251 2.824 C24.922 3.039 26.593 3.247 28.266 3.449 C30.716 3.745 33.162 4.062 35.609 4.383 C36.35 4.468 37.091 4.554 37.854 4.642 C43.992 5.487 47.848 7.813 52.18 12.145 C55.828 17.955 55.066 25.689 55.184 32.359 C55.204 33.348 55.225 34.337 55.247 35.356 C55.312 38.494 55.371 41.632 55.43 44.77 C55.473 46.906 55.517 49.042 55.561 51.178 C55.667 56.396 55.769 61.614 55.867 66.832 C54.547 66.832 53.227 66.832 51.867 66.832 C51.842 65.82 51.817 64.808 51.791 63.765 C51.696 59.935 51.596 56.105 51.495 52.275 C51.452 50.632 51.41 48.988 51.37 47.344 C51.252 42.597 51.111 37.85 50.941 33.104 C50.869 30.895 50.826 28.687 50.785 26.477 C50.739 25.138 50.693 23.8 50.645 22.461 C50.615 21.298 50.585 20.134 50.554 18.936 C49.645 14.827 48.199 13.358 44.867 10.832 C41.745 9.812 41.745 9.812 38.316 9.504 C37.06 9.344 35.804 9.184 34.51 9.02 C33.205 8.875 31.899 8.731 30.555 8.582 C29.261 8.422 27.968 8.262 26.635 8.098 C24.127 7.79 21.618 7.493 19.107 7.209 C16.686 6.927 14.294 6.595 11.887 6.223 C5.575 5.609 -0.792 5.832 -7.133 5.832 C-7.463 18.372 -7.793 30.912 -8.133 43.832 C-9.453 43.832 -10.773 43.832 -12.133 43.832 C-12.351 39.119 -12.548 34.405 -12.725 29.69 C-12.788 28.089 -12.857 26.487 -12.932 24.886 C-13.039 22.576 -13.125 20.265 -13.207 17.953 C-13.244 17.246 -13.282 16.538 -13.32 15.809 C-13.475 10.595 -12.671 7.296 -10.133 2.832 C-6.678 -0.011 -4.383 -0.528 0 0 Z " fill="#FFFFFF" transform="translate(297.1328125,238.16796875)"/>
<path d="M0 0 C3.839 0.503 7.669 1.059 11.5 1.625 C12.578 1.766 13.655 1.906 14.766 2.051 C21.81 3.125 27.01 4.73 32 10 C34.383 13.912 34.434 18.133 34.625 22.625 C34.682 23.794 34.682 23.794 34.74 24.988 C35.339 39.64 35.08 54.338 35 69 C33.68 69.33 32.36 69.66 31 70 C31.33 69.34 31.66 68.68 32 68 C32.099 65.235 32.14 62.496 32.133 59.73 C32.134 58.482 32.134 58.482 32.136 57.209 C32.136 55.44 32.135 53.67 32.13 51.901 C32.125 49.236 32.13 46.572 32.137 43.908 C33.279 26.029 33.279 26.029 28 10 C22.394 6.287 16.567 5.107 10 4.25 C9.13 4.125 8.26 4 7.363 3.871 C5.244 3.568 3.122 3.282 1 3 C1 3.99 1 4.98 1 6 C0.01 6.66 -0.98 7.32 -2 8 C-1.082 8.075 -0.164 8.15 0.781 8.227 C8.389 9.042 14.863 9.883 20 16 C21.693 19.573 22.241 22.361 22.195 26.301 C22.189 27.277 22.182 28.254 22.176 29.26 C22.151 30.771 22.151 30.771 22.125 32.312 C22.116 33.339 22.107 34.366 22.098 35.424 C22.074 37.949 22.041 40.475 22 43 C21.67 43 21.34 43 21 43 C20.966 42.335 20.931 41.669 20.896 40.984 C20.725 37.946 20.519 34.911 20.312 31.875 C20.232 30.305 20.232 30.305 20.15 28.703 C19.672 22.124 18.994 18.46 14 14 C11.211 12.381 8.801 11.652 5.618 11.206 C4.331 11.021 4.331 11.021 3.018 10.833 C2.098 10.709 1.178 10.585 0.23 10.457 C-0.724 10.324 -1.678 10.192 -2.662 10.055 C-4.679 9.777 -6.697 9.502 -8.716 9.231 C-11.792 8.815 -14.866 8.382 -17.939 7.947 C-19.903 7.679 -21.868 7.411 -23.832 7.145 C-25.203 6.949 -25.203 6.949 -26.601 6.75 C-35.386 5.533 -35.386 5.533 -43.375 8.688 C-46.65 13.348 -46.12 19.075 -46.098 24.586 C-46.096 25.639 -46.096 25.639 -46.093 26.713 C-46.088 28.933 -46.075 31.154 -46.062 33.375 C-46.057 34.889 -46.053 36.404 -46.049 37.918 C-46.038 41.612 -46.021 45.306 -46 49 C-44.68 49 -43.36 49 -42 49 C-42.016 47.925 -42.031 46.85 -42.048 45.743 C-42.102 41.757 -42.136 37.77 -42.165 33.784 C-42.18 32.058 -42.2 30.333 -42.226 28.607 C-42.263 26.127 -42.28 23.648 -42.293 21.168 C-42.308 20.396 -42.324 19.624 -42.34 18.829 C-42.342 13.506 -42.342 13.506 -40.65 11.001 C-38.378 9.623 -36.602 9.789 -34 10 C-38.75 14 -38.75 14 -41 14 C-40.931 19.091 -40.843 24.181 -40.738 29.271 C-40.704 31.003 -40.676 32.736 -40.654 34.468 C-40.62 36.956 -40.568 39.442 -40.512 41.93 C-40.505 42.707 -40.499 43.484 -40.492 44.285 C-40.46 46.7 -40.46 46.7 -40 50 C-39.01 50.66 -38.02 51.32 -37 52 C-37 52.66 -37 53.32 -37 54 C-38.457 54.081 -39.916 54.139 -41.375 54.188 C-42.187 54.222 -42.999 54.257 -43.836 54.293 C-44.55 54.196 -45.264 54.1 -46 54 C-48.62 50.07 -48.306 46.694 -48.301 42.133 C-48.305 41.261 -48.309 40.389 -48.314 39.491 C-48.32 37.647 -48.32 35.803 -48.316 33.958 C-48.313 31.143 -48.336 28.328 -48.361 25.512 C-48.364 23.719 -48.364 21.926 -48.363 20.133 C-48.372 19.293 -48.382 18.453 -48.391 17.588 C-48.354 12.897 -48.033 9.816 -45 6 C-42.844 4.418 -42.844 4.418 -40.5 3.188 C-39.727 2.769 -38.953 2.35 -38.156 1.918 C-36 1 -36 1 -33 1 C-33 1.66 -33 2.32 -33 3 C-22.605 4.98 -22.605 4.98 -12 7 C-12 6.34 -12 5.68 -12 5 C-8.37 4.67 -4.74 4.34 -1 4 C-0.67 2.68 -0.34 1.36 0 0 Z " fill="#010101" transform="translate(331,233)"/>
<path d="M0 0 C0 2.31 0 4.62 0 7 C-8.669 11.087 -17.514 14.645 -26.438 18.125 C-27.904 18.7 -29.371 19.274 -30.838 19.85 C-33.81 21.015 -36.784 22.179 -39.757 23.341 C-45.841 25.719 -51.92 28.11 -58 30.5 C-60.254 31.385 -62.508 32.271 -64.762 33.156 C-65.913 33.609 -67.065 34.061 -68.251 34.527 C-70.937 35.582 -73.622 36.637 -76.307 37.691 C-80.072 39.17 -83.837 40.65 -87.601 42.131 C-89.058 42.703 -90.515 43.276 -91.972 43.848 C-94.009 44.648 -96.046 45.449 -98.082 46.25 C-99.834 46.938 -99.834 46.938 -101.62 47.641 C-103.387 48.351 -105.153 49.071 -106.88 49.873 C-111.701 52.1 -111.701 52.1 -115 51 C-111.635 48.887 -108.33 47.211 -104.637 45.75 C-103.547 45.316 -102.456 44.882 -101.333 44.435 C-100.13 43.962 -98.927 43.488 -97.688 43 C-96.392 42.486 -95.097 41.972 -93.802 41.457 C-90.062 39.973 -86.321 38.495 -82.578 37.018 C-74.703 33.909 -66.831 30.795 -58.958 27.681 C-55.821 26.441 -52.684 25.202 -49.547 23.964 C-40.688 20.463 -31.833 16.957 -23.023 13.336 C-22.049 12.936 -22.049 12.936 -21.056 12.528 C-18.174 11.342 -15.297 10.149 -12.423 8.945 C-11.462 8.547 -10.502 8.149 -9.512 7.738 C-8.297 7.228 -8.297 7.228 -7.057 6.708 C-5 6 -5 6 -2 6 C-2.495 5.01 -2.495 5.01 -3 4 C-3.522 4.211 -4.044 4.422 -4.582 4.639 C-7.054 5.636 -9.527 6.631 -12 7.625 C-12.82 7.956 -13.64 8.288 -14.484 8.629 C-19.791 10.759 -25.125 12.801 -30.484 14.793 C-38.947 17.944 -47.327 21.291 -55.703 24.663 C-60.09 26.428 -64.478 28.187 -68.867 29.945 C-70.171 30.468 -70.171 30.468 -71.501 31.001 C-82.33 35.339 -93.187 39.603 -104.053 43.847 C-106.918 44.968 -109.779 46.096 -112.641 47.227 C-114.302 47.88 -115.964 48.534 -117.625 49.188 C-118.36 49.48 -119.095 49.772 -119.853 50.073 C-124.773 52 -124.773 52 -127 52 C-127 51.34 -127 50.68 -127 50 C-126.094 49.656 -126.094 49.656 -125.169 49.304 C-111.585 44.133 -98.051 38.852 -84.562 33.438 C-70.869 27.942 -57.16 22.487 -43.438 17.062 C-42.546 16.71 -41.654 16.357 -40.735 15.993 C-28.839 11.288 -16.928 6.624 -5 2 C-8.569 0.81 -9.188 1.234 -12.527 2.688 C-13.402 3.056 -14.277 3.425 -15.178 3.805 C-17.014 4.6 -18.85 5.397 -20.686 6.195 C-21.561 6.564 -22.437 6.933 -23.34 7.312 C-24.138 7.659 -24.936 8.006 -25.758 8.363 C-28.273 9.077 -29.566 8.862 -32 8 C-28.706 6.248 -25.368 4.606 -22 3 C-21.093 2.567 -21.093 2.567 -20.167 2.126 C-18.228 1.22 -16.274 0.356 -14.312 -0.5 C-13.696 -0.791 -13.079 -1.083 -12.443 -1.383 C-7.172 -3.61 -4.761 -2.591 0 0 Z " fill="#000000" transform="translate(189,243)"/>
<path d="M0 0 C2.125 0.375 2.125 0.375 4 1 C5.268 5.687 4.911 10.033 4.562 14.812 C4.51 15.601 4.458 16.389 4.404 17.201 C4.275 19.135 4.139 21.067 4 23 C4.66 23.33 5.32 23.66 6 24 C7.205 36.656 7.205 36.656 6 42 C3.618 44.841 1.605 46.114 -1.715 47.711 C-2.846 48.349 -2.846 48.349 -4 49 C-4.183 49.949 -4.183 49.949 -4.37 50.917 C-5 53 -5 53 -6.902 54.388 C-7.715 54.792 -8.529 55.197 -9.367 55.613 C-10.696 56.277 -10.696 56.277 -12.051 56.955 C-12.983 57.403 -13.915 57.851 -14.875 58.312 C-16.261 59.013 -16.261 59.013 -17.676 59.729 C-24.604 63.132 -24.604 63.132 -28 62 C-11.176 51 -11.176 51 -6 51 C-6 50.01 -6 49.02 -6 48 C-6.554 48.3 -7.109 48.601 -7.68 48.91 C-8.404 49.29 -9.129 49.671 -9.875 50.062 C-10.954 50.637 -10.954 50.637 -12.055 51.223 C-13.018 51.607 -13.018 51.607 -14 52 C-14.66 51.67 -15.32 51.34 -16 51 C-15.526 50.588 -15.051 50.175 -14.562 49.75 C-12.837 47.818 -12.434 46.518 -12 44 C-13.32 43.67 -14.64 43.34 -16 43 C-16 42.01 -16 41.02 -16 40 C-15.426 39.887 -14.853 39.773 -14.262 39.656 C-10.138 38.46 -6.863 36.184 -4 33 C-3.065 29.964 -2.888 27.164 -3 24 C-2.34 24 -1.68 24 -1 24 C-1.041 23.344 -1.082 22.688 -1.124 22.012 C-1.302 19.05 -1.463 16.088 -1.625 13.125 C-1.689 12.092 -1.754 11.06 -1.82 9.996 C-1.898 8.517 -1.898 8.517 -1.977 7.008 C-2.029 6.097 -2.081 5.185 -2.135 4.247 C-2 2 -2 2 0 0 Z " fill="#101010" transform="translate(397,59)"/>
<path d="M0 0 C0.33 0.99 0.66 1.98 1 3 C-16.5 10.026 -34.021 16.996 -51.565 23.911 C-60.984 27.624 -70.4 31.345 -79.812 35.074 C-80.898 35.504 -81.984 35.934 -83.102 36.378 C-87.42 38.088 -91.738 39.799 -96.055 41.511 C-99.054 42.701 -102.055 43.889 -105.055 45.078 C-105.943 45.431 -106.831 45.783 -107.746 46.146 C-110.162 47.103 -112.58 48.053 -115 49 C-115.745 49.296 -116.49 49.592 -117.258 49.896 C-121.721 51.632 -125.183 52.578 -130 52 C-132.573 48.14 -132.288 44.939 -132.266 40.465 C-132.268 39.63 -132.269 38.796 -132.271 37.936 C-132.273 36.174 -132.269 34.411 -132.261 32.648 C-132.25 29.944 -132.261 27.241 -132.273 24.537 C-132.272 22.826 -132.27 21.114 -132.266 19.402 C-132.27 18.591 -132.274 17.779 -132.278 16.943 C-132.23 11.23 -132.23 11.23 -130 9 C-128.481 12.039 -128.781 15.225 -128.719 18.562 C-128.7 19.31 -128.682 20.057 -128.663 20.826 C-128.584 24.028 -128.517 27.23 -128.448 30.433 C-128.396 32.768 -128.339 35.103 -128.281 37.438 C-128.268 38.165 -128.254 38.892 -128.24 39.641 C-128.205 43.447 -128.205 43.447 -127 47 C-122.294 48.804 -118.683 47.073 -114.289 45.238 C-113.161 44.786 -113.161 44.786 -112.01 44.324 C-109.544 43.332 -107.085 42.322 -104.625 41.312 C-102.905 40.617 -101.184 39.924 -99.463 39.231 C-96.84 38.176 -94.216 37.119 -91.595 36.058 C-84.368 33.134 -77.103 30.317 -69.821 27.533 C-57.763 22.92 -45.817 18.071 -33.903 13.097 C-25.335 9.527 -16.725 6.166 -8 3 C-5.331 2.005 -2.666 1.003 0 0 Z " fill="#FFFFFF" transform="translate(186,246)"/>
<path d="M0 0 C2.625 0.375 2.625 0.375 5 1 C5.027 3.729 5.047 6.458 5.062 9.188 C5.071 9.956 5.079 10.725 5.088 11.518 C5.105 15.485 4.986 19.126 4 23 C4.99 23.33 5.98 23.66 7 24 C7.293 30.055 7.293 30.055 7 32 C3.206 34.53 1.143 34.173 -3.375 34.062 C-7.765 33.963 -11.727 33.936 -16 35 C-16 36.32 -16 37.64 -16 39 C-18.812 40.562 -18.812 40.562 -22 42 C-22.99 41.67 -23.98 41.34 -25 41 C-21.375 38 -21.375 38 -18 38 C-18 37.01 -18 36.02 -18 35 C-20.475 35.495 -20.475 35.495 -23 36 C-23.495 34.515 -23.495 34.515 -24 33 C-23.34 32.34 -22.68 31.68 -22 31 C-23.65 30.67 -25.3 30.34 -27 30 C-27.33 29.01 -27.66 28.02 -28 27 C-25.394 26.069 -24.358 25.851 -21.75 26.938 C-20.884 27.463 -20.884 27.463 -20 28 C-20 27.01 -20 26.02 -20 25 C-13.028 21.953 -7.47 21.841 0 23 C-0.141 20.25 -0.288 17.5 -0.438 14.75 C-0.477 13.973 -0.516 13.195 -0.557 12.395 C-0.599 11.64 -0.64 10.886 -0.684 10.109 C-0.72 9.418 -0.757 8.727 -0.795 8.015 C-0.94 5.954 -0.94 5.954 -1.645 3.868 C-1.762 3.252 -1.879 2.635 -2 2 C-1.34 1.34 -0.68 0.68 0 0 Z " fill="#2A2A2A" transform="translate(344,21)"/>
<path d="M0 0 C0 11.88 0 23.76 0 36 C-2.31 37.32 -4.62 38.64 -7 40 C-9.438 39.25 -9.438 39.25 -11 38 C-11.124 32.928 -11.214 27.857 -11.275 22.784 C-11.3 21.058 -11.334 19.333 -11.377 17.607 C-11.438 15.127 -11.466 12.649 -11.488 10.168 C-11.514 9.396 -11.54 8.624 -11.566 7.829 C-11.568 5.645 -11.568 5.645 -11 2 C-7.059 -1.79 -5.684 -0.947 0 0 Z " fill="#FFFFFF" transform="translate(301,245)"/>
<path d="M0 0 C2.475 0.99 2.475 0.99 5 2 C5.025 2.888 5.05 3.776 5.076 4.69 C5.171 7.993 5.27 11.295 5.372 14.598 C5.416 16.025 5.457 17.453 5.497 18.881 C5.555 20.936 5.619 22.992 5.684 25.047 C5.72 26.283 5.757 27.519 5.795 28.792 C5.96 31.372 6.246 33.544 7 36 C8.98 36 10.96 36 13 36 C13.33 27.42 13.66 18.84 14 10 C15.32 10.33 16.64 10.66 18 11 C18.169 15.479 18.335 19.958 18.5 24.438 C18.548 25.698 18.595 26.958 18.645 28.256 C18.885 34.843 19.057 41.409 19 48 C2.735 40.47 2.735 40.47 0 35 C-0.087 32.374 -0.116 29.774 -0.098 27.148 C-0.096 26.374 -0.095 25.6 -0.093 24.803 C-0.088 22.327 -0.075 19.851 -0.062 17.375 C-0.057 15.698 -0.053 14.021 -0.049 12.344 C-0.038 8.229 -0.021 4.115 0 0 Z " fill="#FFFFFF" transform="translate(34,247)"/>
<path d="M0 0 C2.525 2.345 3.038 4.142 3.938 7.5 C4 11 4 11 2.543 12.984 C-0.904 15.716 -4.552 17.158 -8.625 18.75 C-9.401 19.066 -10.177 19.382 -10.977 19.707 C-16.694 22 -16.694 22 -19 22 C-19.098 21.408 -19.196 20.817 -19.297 20.207 C-20.258 15.13 -21.299 11.825 -25 8 C-19.967 5.387 -14.898 2.866 -9.688 0.625 C-8.908 0.287 -8.128 -0.05 -7.324 -0.398 C-4.512 -1.126 -2.762 -0.838 0 0 Z " fill="#FFFFFF" transform="translate(77,94)"/>
<path d="M0 0 C8.274 0.345 13.171 4.828 18.625 10.75 C34.961 30.457 40.582 58.974 39 84 C37.708 92.431 35.513 100.161 29 106 C29.193 105.432 29.387 104.863 29.586 104.277 C29.846 103.505 30.107 102.733 30.375 101.938 C30.758 100.806 30.758 100.806 31.148 99.652 C31.429 98.777 31.71 97.902 32 97 C32.356 96.029 32.712 95.059 33.078 94.059 C37.389 78.668 34.925 59.033 30 44 C29.638 42.81 29.276 41.62 28.902 40.395 C24.349 26.486 17.154 9.366 3.438 2.375 C2.303 1.921 1.169 1.467 0 1 C0 0.67 0 0.34 0 0 Z " fill="#FFFFFF" transform="translate(109,374)"/>
<path d="M0 0 C0.99 0 1.98 0 3 0 C3.99 1.98 4.98 3.96 6 6 C6.99 4.02 7.98 2.04 9 0 C9.99 0 10.98 0 12 0 C12 2.31 12 4.62 12 7 C13.98 7 15.96 7 18 7 C18.144 6.031 18.289 5.061 18.438 4.062 C19 1 19 1 20 0 C22 -0.041 24 -0.043 26 0 C26.33 0.99 26.66 1.98 27 3 C24.03 2.505 24.03 2.505 21 2 C21 2.66 21 3.32 21 4 C23.475 4.495 23.475 4.495 26 5 C26.392 4.175 26.784 3.35 27.188 2.5 C29 0 29 0 31.5 -0.625 C34 0 34 0 35.812 2.5 C36.4 3.738 36.4 3.738 37 5 C37.598 4.175 38.196 3.35 38.812 2.5 C39.534 1.675 40.256 0.85 41 0 C41.99 0 42.98 0 44 0 C44.195 1.624 44.381 3.249 44.562 4.875 C44.719 6.232 44.719 6.232 44.879 7.617 C45 10 45 10 44 12 C43.01 12 42.02 12 41 12 C41 11.34 41 10.68 41 10 C39.948 10.33 38.896 10.66 37.812 11 C34.596 11.844 32.271 12.374 29 12 C28.34 11.34 27.68 10.68 27 10 C26.67 10.66 26.34 11.32 26 12 C24.02 12 22.04 12 20 12 C19.67 11.01 19.34 10.02 19 9 C16.69 9 14.38 9 12 9 C12 9.99 12 10.98 12 12 C11.01 12 10.02 12 9 12 C8.67 11.34 8.34 10.68 8 10 C7.67 10.66 7.34 11.32 7 12 C6.01 12 5.02 12 4 12 C3.67 11.01 3.34 10.02 3 9 C2.67 9.99 2.34 10.98 2 12 C1.34 12 0.68 12 0 12 C0 8.04 0 4.08 0 0 Z " fill="#0C0C0C" transform="translate(14,176)"/>
<path d="M0 0 C0.66 0 1.32 0 2 0 C2.33 1.32 2.66 2.64 3 4 C3.536 3.34 4.072 2.68 4.625 2 C7 0 7 0 10.25 -0.25 C11.611 -0.126 11.611 -0.126 13 0 C13.99 1.98 14.98 3.96 16 6 C16.66 5.01 17.32 4.02 18 3 C18.66 2.01 19.32 1.02 20 0 C20.99 0 21.98 0 23 0 C23 2.31 23 4.62 23 7 C24.98 7 26.96 7 29 7 C29.33 5.02 29.66 3.04 30 1 C34.75 -0.125 34.75 -0.125 37 1 C37.484 2.961 37.484 2.961 37.75 5.375 C37.848 6.166 37.946 6.958 38.047 7.773 C38 10 38 10 36 13 C33.375 13.188 33.375 13.188 31 13 C30.34 11.68 29.68 10.36 29 9 C27.02 9 25.04 9 23 9 C23 10.32 23 11.64 23 13 C22.01 13 21.02 13 20 13 C19.67 12.01 19.34 11.02 19 10 C18.67 10.99 18.34 11.98 18 13 C17.01 13 16.02 13 15 13 C14.67 12.34 14.34 11.68 14 11 C13.67 11.66 13.34 12.32 13 13 C10.312 13.312 10.312 13.312 7 13 C4.125 10.5 4.125 10.5 2 8 C2 9.65 2 11.3 2 13 C1.01 13 0.02 13 -1 13 C-1.027 11.021 -1.046 9.042 -1.062 7.062 C-1.074 5.96 -1.086 4.858 -1.098 3.723 C-1 1 -1 1 0 0 Z " fill="#0F0F0F" transform="translate(228,348)"/>
<path d="M0 0 C0.99 0 1.98 0 3 0 C3.33 1.32 3.66 2.64 4 4 C4.536 3.34 5.072 2.68 5.625 2 C8 0 8 0 11.25 -0.25 C12.611 -0.126 12.611 -0.126 14 0 C14.99 2.31 15.98 4.62 17 7 C18.32 4.69 19.64 2.38 21 0 C21.99 0.33 22.98 0.66 24 1 C24 2.98 24 4.96 24 7 C25.98 7 27.96 7 30 7 C30.33 5.02 30.66 3.04 31 1 C35.75 -0.125 35.75 -0.125 38 1 C38.484 2.961 38.484 2.961 38.75 5.375 C38.848 6.166 38.946 6.958 39.047 7.773 C39 10 39 10 37 13 C34.375 13.188 34.375 13.188 32 13 C31.34 11.68 30.68 10.36 30 9 C28.02 9 26.04 9 24 9 C24 10.32 24 11.64 24 13 C23.01 13 22.02 13 21 13 C20.67 12.01 20.34 11.02 20 10 C19.67 10.99 19.34 11.98 19 13 C18.01 13 17.02 13 16 13 C15.67 12.34 15.34 11.68 15 11 C14.67 11.66 14.34 12.32 14 13 C11.312 13.312 11.312 13.312 8 13 C5.125 10.5 5.125 10.5 3 8 C3 9.65 3 11.3 3 13 C2.01 13 1.02 13 0 13 C0 8.71 0 4.42 0 0 Z " fill="#0E0E0E" transform="translate(227,177)"/>
<path d="M0 0 C0 0.66 0 1.32 0 2 C-2.97 3.32 -5.94 4.64 -9 6 C-8.175 7.011 -7.35 8.021 -6.5 9.062 C-3.827 12.751 -3.533 15.42 -4 20 C-3.241 19.639 -2.481 19.278 -1.699 18.906 C-0.208 18.21 -0.208 18.21 1.312 17.5 C2.299 17.036 3.285 16.572 4.301 16.094 C7 15 7 15 10 15 C10 15.66 10 16.32 10 17 C7.299 18.206 4.591 19.39 1.875 20.562 C0.734 21.076 0.734 21.076 -0.43 21.6 C-4.979 23.541 -8.092 24.629 -13 23 C-16.084 20.318 -17.687 18.732 -18.414 14.707 C-18.624 8.864 -18.624 8.864 -16.844 6.398 C-14.386 4.534 -11.854 3.477 -9 2.312 C-7.948 1.876 -6.896 1.439 -5.812 0.988 C-3 0 -3 0 0 0 Z " fill="#000000" transform="translate(62,96)"/>
<path d="M0 0 C5.75 1.875 5.75 1.875 8 3 C7.34 4.98 6.68 6.96 6 9 C8.31 8.34 10.62 7.68 13 7 C13 7.99 13 8.98 13 10 C9.339 11.88 5.673 13.749 2.001 15.609 C0.753 16.244 -0.495 16.881 -1.741 17.521 C-3.529 18.44 -5.323 19.347 -7.117 20.254 C-8.196 20.804 -9.275 21.354 -10.386 21.92 C-11.68 22.455 -11.68 22.455 -13 23 C-13.66 22.67 -14.32 22.34 -15 22 C-15 21.34 -15 20.68 -15 20 C-11.04 18.02 -7.08 16.04 -3 14 C-4.65 14.66 -6.3 15.32 -8 16 C-9.996 16.678 -11.995 17.347 -14 18 C-14 17.34 -14 16.68 -14 16 C-15.98 16.66 -17.96 17.32 -20 18 C-20.66 17.01 -21.32 16.02 -22 15 C-18.878 13.494 -15.752 11.996 -12.625 10.5 C-11.291 9.856 -11.291 9.856 -9.93 9.199 C-9.079 8.793 -8.228 8.387 -7.352 7.969 C-6.566 7.592 -5.781 7.215 -4.971 6.826 C-3 6 -3 6 -1 6 C-1.309 5.072 -1.309 5.072 -1.625 4.125 C-1.749 3.424 -1.873 2.722 -2 2 C-1.34 1.34 -0.68 0.68 0 0 Z " fill="#646464" transform="translate(378,100)"/>
<path d="M0 0 C3.339 0.451 6.113 1.247 9 3 C9.33 3.66 9.66 4.32 10 5 C9.01 5.495 9.01 5.495 8 6 C8.33 6.66 8.66 7.32 9 8 C10.32 8 11.64 8 13 8 C13 8.99 13 9.98 13 11 C9.069 12.703 5.129 14.385 1.188 16.062 C0.068 16.548 -1.052 17.033 -2.205 17.533 C-3.278 17.988 -4.351 18.442 -5.457 18.91 C-6.942 19.546 -6.942 19.546 -8.456 20.196 C-11 21 -11 21 -14 20 C-13.67 19.34 -13.34 18.68 -13 18 C-10.686 17.269 -8.352 16.599 -6 16 C-5.67 14.68 -5.34 13.36 -5 12 C-9.847 12.782 -14.377 14.398 -19 16 C-19.66 15.01 -20.32 14.02 -21 13 C-18.565 11.994 -16.127 10.995 -13.688 10 C-12.997 9.714 -12.307 9.428 -11.596 9.133 C-8.585 7.911 -6.281 7 -3 7 C-2.691 6.031 -2.381 5.061 -2.062 4.062 C-1 1 -1 1 0 0 Z " fill="#484848" transform="translate(313,48)"/>
<path d="M0 0 C12.317 7.613 17.746 24.901 21 38.121 C23.66 50.002 25.062 61.661 22.812 73.75 C22.153 73.75 21.493 73.75 20.812 73.75 C20.803 73.158 20.794 72.566 20.784 71.956 C20.506 57.802 19.058 44.531 15.812 30.75 C15.153 30.75 14.493 30.75 13.812 30.75 C13.018 28.876 12.227 27.001 11.438 25.125 C10.997 24.081 10.556 23.037 10.102 21.961 C8.812 18.75 8.812 18.75 7.922 15.676 C6.621 12.246 4.933 10.237 2.438 7.562 C1.667 6.723 0.896 5.884 0.102 5.02 C-1.899 3.036 -3.885 1.364 -6.188 -0.25 C-3.188 -1.25 -3.188 -1.25 0 0 Z " fill="#505050" transform="translate(97.1875,390.25)"/>
<path d="M0 0 C0.99 0 1.98 0 3 0 C3.33 1.32 3.66 2.64 4 4 C4.619 3.34 5.237 2.68 5.875 2 C8 0 8 0 10 0 C9.67 0.784 9.34 1.568 9 2.375 C7.881 4.843 7.881 4.843 8 7 C8.99 8.485 8.99 8.485 10 10 C10.33 6.7 10.66 3.4 11 0 C12.32 0 13.64 0 15 0 C15.66 2.31 16.32 4.62 17 7 C18.32 4.69 19.64 2.38 21 0 C21.99 0.33 22.98 0.66 24 1 C24 2.98 24 4.96 24 7 C25.98 7 27.96 7 30 7 C30 7.99 30 8.98 30 10 C28.02 10 26.04 10 24 10 C24 10.99 24 11.98 24 13 C23.01 13 22.02 13 21 13 C20.67 12.01 20.34 11.02 20 10 C19.67 10.99 19.34 11.98 19 13 C18.01 13 17.02 13 16 13 C15.67 12.34 15.34 11.68 15 11 C14.67 11.66 14.34 12.32 14 13 C11.313 13.312 11.313 13.312 8 13 C5.125 10.5 5.125 10.5 3 8 C3 9.65 3 11.3 3 13 C2.01 13 1.02 13 0 13 C0 8.71 0 4.42 0 0 Z " fill="#000000" transform="translate(2,7)"/>
<path d="M0 0 C2.938 1.125 2.938 1.125 3.938 2.125 C3.978 4.458 3.98 6.792 3.938 9.125 C0.837 10.467 -2.268 11.797 -5.375 13.125 C-6.256 13.507 -7.137 13.888 -8.045 14.281 C-8.892 14.642 -9.74 15.003 -10.613 15.375 C-11.394 15.71 -12.174 16.045 -12.978 16.391 C-15.062 17.125 -15.062 17.125 -18.062 17.125 C-18.062 17.785 -18.062 18.445 -18.062 19.125 C-16.083 19.125 -14.102 19.125 -12.062 19.125 C-12.062 19.785 -12.062 20.445 -12.062 21.125 C-13.688 21.011 -15.313 20.883 -16.938 20.75 C-17.842 20.68 -18.747 20.611 -19.68 20.539 C-22.062 20.125 -22.062 20.125 -24.062 18.125 C-23.945 15.635 -23.945 15.635 -23.062 13.125 C-21.268 11.855 -21.268 11.855 -18.949 10.957 C-18.113 10.621 -17.277 10.285 -16.416 9.939 C-15.536 9.609 -14.656 9.278 -13.75 8.938 C-12.024 8.257 -10.299 7.576 -8.574 6.895 C-7.421 6.455 -7.421 6.455 -6.245 6.007 C-4.12 5.148 -2.097 4.178 -0.062 3.125 C-3.352 2.028 -4.776 2.325 -8.062 3.125 C-3.984 -1.138 -3.984 -1.138 0 0 Z " fill="#000000" transform="translate(169.0625,231.875)"/>
<path d="M0 0 C3.736 1.472 3.736 1.472 5 4 C5.454 3.34 5.908 2.68 6.375 2 C6.911 1.34 7.447 0.68 8 0 C8.66 0 9.32 0 10 0 C10 1.98 10 3.96 10 6 C10.66 6 11.32 6 12 6 C12 4.35 12 2.7 12 1 C13.875 0.375 13.875 0.375 16 0 C16.66 0.66 17.32 1.32 18 2 C18.33 1.67 18.66 1.34 19 1 C20.666 0.959 22.334 0.957 24 1 C24.879 7.152 24.879 7.152 25 9 C24 10 24 10 21.5 10.114 C20.416 10.108 19.332 10.103 18.215 10.098 C17.045 10.094 15.875 10.091 14.67 10.088 C12.822 10.075 12.822 10.075 10.938 10.062 C9.084 10.056 9.084 10.056 7.193 10.049 C4.129 10.037 1.064 10.021 -2 10 C-2 7.03 -2 4.06 -2 1 C-1.34 0.67 -0.68 0.34 0 0 Z " fill="#313131" transform="translate(412,501)"/>
<path d="M0 0 C13.385 10.621 19.475 29.567 21.769 45.911 C23.131 58.206 23.539 72.274 16.031 82.746 C11.834 87.404 6.001 88.928 0 90 C-3 90.125 -3 90.125 -5 90 C-4.67 89.34 -4.34 88.68 -4 88 C-0.894 87.108 2.21 86.366 5.365 85.676 C9.696 84.634 12.235 83.524 15 80 C23.403 63.517 19.877 45.713 15.055 28.656 C11.618 18.606 6.334 6.495 -3.059 0.738 C-8.717 -1.652 -12.849 -0.677 -18.52 1.336 C-21.163 2.044 -22.46 1.912 -25 1 C-23.751 0.518 -22.501 0.04 -21.25 -0.438 C-20.554 -0.704 -19.858 -0.971 -19.141 -1.246 C-12.268 -3.667 -6.333 -4.09 0 0 Z " fill="#000000" transform="translate(335,391)"/>
<path d="M0 0 C0.99 0 1.98 0 3 0 C3.99 1.98 4.98 3.96 6 6 C6.99 4.02 7.98 2.04 9 0 C9.99 0 10.98 0 12 0 C12.33 1.98 12.66 3.96 13 6 C14.65 6 16.3 6 18 6 C18.144 5.196 18.289 4.391 18.438 3.562 C19 1 19 1 20 0 C22 -0.041 24 -0.043 26 0 C27.168 4.379 26.779 7.522 26 12 C23.688 12.688 23.688 12.688 21 13 C19.978 12.022 18.98 11.019 18 10 C14.892 9.273 14.892 9.273 12 9 C12 9.99 12 10.98 12 12 C11.01 12 10.02 12 9 12 C8.67 11.34 8.34 10.68 8 10 C7.67 10.66 7.34 11.32 7 12 C6.01 12 5.02 12 4 12 C3.67 11.01 3.34 10.02 3 9 C2.67 9.99 2.34 10.98 2 12 C1.34 12 0.68 12 0 12 C0 8.04 0 4.08 0 0 Z " fill="#151515" transform="translate(14,347)"/>
<path d="M0 0 C0 0.66 0 1.32 0 2 C-16.969 8.943 -33.959 15.832 -50.997 22.606 C-55.272 24.307 -59.54 26.023 -63.805 27.746 C-66.855 28.977 -69.908 30.199 -72.962 31.42 C-74.438 32.012 -75.913 32.607 -77.387 33.206 C-79.435 34.038 -81.489 34.858 -83.543 35.676 C-84.719 36.149 -85.895 36.623 -87.106 37.111 C-90 38 -90 38 -93 37 C-85.038 32.812 -76.976 29.276 -68.56 26.105 C-65.17 24.827 -61.789 23.527 -58.406 22.23 C-57.712 21.965 -57.018 21.699 -56.303 21.426 C-48.882 18.583 -41.501 15.645 -34.125 12.688 C-33.498 12.436 -32.87 12.185 -32.224 11.927 C-26.285 9.549 -20.352 7.159 -14.449 4.691 C-13.649 4.357 -12.849 4.023 -12.025 3.679 C-10.608 3.084 -9.192 2.484 -7.78 1.878 C-4.991 0.702 -3.066 0 0 0 Z " fill="#000000" transform="translate(161,234)"/>
<path d="M0 0 C0.66 0 1.32 0 2 0 C2.33 1.32 2.66 2.64 3 4 C3.598 3.34 4.196 2.68 4.812 2 C7 0 7 0 10 0 C9 2 8 4 7 6 C7.99 7.32 8.98 8.64 10 10 C10.33 6.7 10.66 3.4 11 0 C12.32 0.33 13.64 0.66 15 1 C16.25 4.062 16.25 4.062 17 7 C17.99 4.69 18.98 2.38 20 0 C20.99 0 21.98 0 23 0 C23 4.29 23 8.58 23 13 C22.34 13 21.68 13 21 13 C20.67 11.35 20.34 9.7 20 8 C19.34 9.65 18.68 11.3 18 13 C17.34 13 16.68 13 16 13 C15.67 12.34 15.34 11.68 15 11 C14.67 11.66 14.34 12.32 14 13 C11.69 13 9.38 13 7 13 C6.34 11.35 5.68 9.7 5 8 C4.01 8.495 4.01 8.495 3 9 C2.348 11.025 2.348 11.025 2 13 C1.34 13 0.68 13 0 13 C0 8.71 0 4.42 0 0 Z " fill="#000000" transform="translate(241,5)"/>
<path d="M0 0 C2.645 0.265 3.767 0.758 5.625 2.688 C8.869 8.144 9.812 13.732 9 20 C8.34 20.99 7.68 21.98 7 23 C3.593 21.59 1.854 20.202 0 17 C-1.95 11.15 -2.167 7.045 -1 1 C-0.67 0.67 -0.34 0.34 0 0 Z " fill="#FFFFFF" transform="translate(304,427)"/>
<path d="M0 0 C0 9.24 0 18.48 0 28 C-0.66 28 -1.32 28 -2 28 C-2 23.38 -2 18.76 -2 14 C-3.65 14.33 -5.3 14.66 -7 15 C-7 20.28 -7 25.56 -7 31 C-7.66 31 -8.32 31 -9 31 C-9 22.09 -9 13.18 -9 4 C-2 0 -2 0 0 0 Z " fill="#FFFFFF" transform="translate(346,260)"/>
<path d="M0 0 C4.688 2.532 8.424 5.853 12.375 9.375 C16.127 12.715 19.829 15.944 23.977 18.789 C24.974 19.519 25.972 20.248 27 21 C27 21.66 27 22.32 27 23 C27.54 23.226 28.08 23.451 28.637 23.684 C32.291 25.719 35.259 28.622 38.314 31.455 C42.98 35.544 46.978 36 53 36 C52.67 37.32 52.34 38.64 52 40 C47.656 40.724 45.291 40.919 41.629 38.312 C39.936 36.752 38.268 35.164 36.621 33.555 C34.099 31.096 31.497 28.89 28.75 26.688 C23.773 22.662 18.918 18.513 14.083 14.321 C10.018 10.816 5.846 7.525 1.477 4.402 C0.989 3.94 0.502 3.477 0 3 C0 2.01 0 1.02 0 0 Z " fill="#FFFFFF" transform="translate(326,107)"/>
<path d="M0 0 C3.636 0.11 5.707 1.309 8.312 3.688 C22.299 18.649 27.828 41.055 28 61 C27.047 73.353 27.047 73.353 23 78 C23.234 76.529 23.234 76.529 23.473 75.027 C26.837 52.414 23.207 28.63 9.75 9.688 C7.324 6.304 7.324 6.304 4 4 C4 3.34 4 2.68 4 2 C2.68 1.34 1.36 0.68 0 0 Z " fill="#FFFFFF" transform="translate(305,396)"/>
<path d="M0 0 C0.33 0.99 0.66 1.98 1 3 C1.33 2.01 1.66 1.02 2 0 C6.75 -1.125 6.75 -1.125 9 0 C9.484 2.215 9.484 2.215 9.75 4.938 C9.897 6.281 9.897 6.281 10.047 7.652 C10 10 10 10 8 12 C5.375 12.125 5.375 12.125 3 12 C2.67 11.01 2.34 10.02 2 9 C1.34 9 0.68 9 0 9 C-0.33 9.99 -0.66 10.98 -1 12 C-2.65 12 -4.3 12 -6 12 C-6.66 10.68 -7.32 9.36 -8 8 C-7.01 8 -6.02 8 -5 8 C-5 8.66 -5 9.32 -5 10 C-4.34 9.67 -3.68 9.34 -3 9 C-3 8.34 -3 7.68 -3 7 C-3.66 6.67 -4.32 6.34 -5 6 C-5 4 -5 4 -3 2 C-4.65 2.33 -6.3 2.66 -8 3 C-7.67 2.01 -7.34 1.02 -7 0 C-4.333 -1.333 -2.833 -0.671 0 0 Z " fill="#1B1B1B" transform="translate(49,8)"/>
<path d="M0 0 C4.298 1.987 6.201 6.016 8.332 10.078 C6.938 10.561 5.541 11.039 4.145 11.516 C3.367 11.782 2.59 12.049 1.789 12.324 C-0.681 13.082 -3.128 13.613 -5.668 14.078 C-6.173 12.309 -6.672 10.537 -7.168 8.766 C-7.446 7.779 -7.725 6.793 -8.012 5.777 C-8.668 3.078 -8.668 3.078 -8.668 0.078 C-5.614 -1.449 -3.256 -0.736 0 0 Z " fill="#FFFFFF" transform="translate(273.66796875,112.921875)"/>
<path d="M0 0 C0.66 0 1.32 0 2 0 C3.093 8.296 3.367 16.641 3 25 C2 26 2 26 -1.062 26.062 C-2.032 26.042 -3.001 26.021 -4 26 C-4.84 21.647 -5.108 17.556 -5.062 13.125 C-5.053 11.973 -5.044 10.82 -5.035 9.633 C-5.024 8.764 -5.012 7.895 -5 7 C-2.525 7.495 -2.525 7.495 0 8 C0 5.36 0 2.72 0 0 Z " fill="#FFFFFF" transform="translate(325,201)"/>
<path d="M0 0 C0 0.66 0 1.32 0 2 C-3.625 3.619 -7.25 5.237 -10.876 6.852 C-12.701 7.665 -14.524 8.48 -16.348 9.295 C-19.894 10.874 -23.445 12.441 -27 14 C-28.111 14.489 -29.222 14.978 -30.366 15.482 C-31.411 15.931 -32.455 16.381 -33.531 16.844 C-34.45 17.241 -35.368 17.639 -36.314 18.049 C-40.472 19.521 -44.613 19.893 -49 20 C-47 17 -47 17 -44.438 16.188 C-43.633 15.796 -42.829 15.404 -42 15 C-41.249 12.228 -41 9.858 -41 7 C-39.35 7.33 -37.7 7.66 -36 8 C-35.67 9.98 -35.34 11.96 -35 14 C-30.764 12.168 -26.528 10.335 -22.292 8.501 C-20.851 7.877 -19.41 7.253 -17.968 6.63 C-15.898 5.734 -13.828 4.838 -11.758 3.941 C-10.789 3.523 -10.789 3.523 -9.801 3.095 C-2.657 0 -2.657 0 0 0 Z " fill="#090909" transform="translate(121,92)"/>
<path d="M0 0 C3.146 0.591 4.948 1.516 7.348 3.617 C7.953 4.142 8.558 4.666 9.182 5.207 C9.802 5.757 10.423 6.308 11.062 6.875 C11.687 7.418 12.312 7.96 12.955 8.52 C14.65 9.999 16.338 11.483 18 13 C18.568 13.489 19.136 13.977 19.72 14.481 C20.354 15.233 20.354 15.233 21 16 C20.688 19.188 20.688 19.188 20 22 C19.01 22 18.02 22 17 22 C16.505 19.525 16.505 19.525 16 17 C15.113 16.814 14.226 16.629 13.312 16.438 C9.895 14.954 9.429 14.512 7.562 11.562 C4.991 7.529 2.481 6.494 -2 5 C-1.34 3.35 -0.68 1.7 0 0 Z " fill="#FFFFFF" transform="translate(278,102)"/>
<path d="M0 0 C5.485 3.907 10.476 8.184 15.445 12.723 C18.598 15.533 21.887 18.133 25.203 20.746 C28.692 23.558 32.099 26.457 35.5 29.375 C36.418 30.162 36.418 30.162 37.354 30.964 C39.631 32.923 41.875 34.875 44 37 C43.01 37.33 42.02 37.66 41 38 C39.457 37.063 39.457 37.063 37.812 35.57 C37.202 35.027 36.592 34.484 35.963 33.924 C35.315 33.33 34.667 32.737 34 32.125 C32.637 30.908 31.272 29.691 29.906 28.477 C29.237 27.877 28.568 27.278 27.879 26.661 C25.475 24.536 23 22.511 20.5 20.5 C15.898 16.754 11.336 12.965 6.812 9.125 C6.14 8.565 5.467 8.005 4.773 7.428 C4.153 6.897 3.533 6.367 2.895 5.82 C2.336 5.349 1.778 4.877 1.202 4.391 C0 3 0 3 0 0 Z " fill="#FFFFFF" transform="translate(265,55)"/>
<path d="M0 0 C6.97 4.232 11.529 12.503 14.812 19.75 C15.18 22.078 15.515 24.412 15.812 26.75 C16.184 27.637 16.555 28.524 16.938 29.438 C17.926 32.05 17.766 33.174 16.812 35.75 C16.317 33.275 16.317 33.275 15.812 30.75 C15.153 30.75 14.493 30.75 13.812 30.75 C13.018 28.876 12.227 27.001 11.438 25.125 C10.997 24.081 10.556 23.037 10.102 21.961 C8.812 18.75 8.812 18.75 7.922 15.676 C6.621 12.246 4.933 10.237 2.438 7.562 C1.667 6.723 0.896 5.884 0.102 5.02 C-1.899 3.036 -3.885 1.364 -6.188 -0.25 C-3.188 -1.25 -3.188 -1.25 0 0 Z " fill="#646464" transform="translate(97.1875,390.25)"/>
<path d="M0 0 C1.32 0 2.64 0 4 0 C4.66 1.98 5.32 3.96 6 6 C7.952 4.048 8.848 2.468 10 0 C10.99 0 11.98 0 13 0 C13 4.29 13 8.58 13 13 C12.01 13 11.02 13 10 13 C9.67 12.01 9.34 11.02 9 10 C8.67 10.99 8.34 11.98 8 13 C7.01 13 6.02 13 5 13 C4.67 12.01 4.34 11.02 4 10 C3.67 10.99 3.34 11.98 3 13 C2.01 13 1.02 13 0 13 C0 8.71 0 4.42 0 0 Z " fill="#000000" transform="translate(227,5)"/>
<path d="M0 0 C2.75 0 2.75 0 6 1 C7.904 3.454 9.193 6.001 10 9 C9.635 11.294 9.039 12.923 8 15 C4.628 14.719 3.214 14.196 0.688 11.875 C-1.4 8.318 -1.383 6.062 -1 2 C-0.67 1.34 -0.34 0.68 0 0 Z " fill="#FFFFFF" transform="translate(47,103)"/>
<path d="M0 0 C4.62 0.66 9.24 1.32 14 2 C14 3.32 14 4.64 14 6 C14.99 6.33 15.98 6.66 17 7 C17 7.33 17 7.66 17 8 C16.359 8.037 15.719 8.075 15.059 8.113 C9.4 8.543 5.078 9.461 0 12 C0 8.04 0 4.08 0 0 Z " fill="#FFFFFF" transform="translate(303,245)"/>
<path d="M0 0 C0.66 1.32 1.32 2.64 2 4 C1.67 4.33 1.34 4.66 1 5 C2.099 5.985 3.205 6.963 4.312 7.938 C4.927 8.483 5.542 9.028 6.176 9.59 C9.686 12.303 12.918 12.108 17.188 12.062 C18.274 12.053 19.361 12.044 20.48 12.035 C21.312 12.024 22.143 12.012 23 12 C23 12.66 23 13.32 23 14 C19.28 15.86 15.06 15.444 11 15 C7.089 13.638 3.931 11.931 1 9 C-1.907 8.978 -1.907 8.978 -5.125 9.375 C-6.221 9.486 -7.316 9.597 -8.445 9.711 C-9.288 9.806 -10.131 9.902 -11 10 C-9.621 7.242 -7.623 6.561 -5 5 C-4.165 4.165 -4.165 4.165 -3.312 3.312 C-2.663 2.663 -2.663 2.663 -2 2 C-1.34 2 -0.68 2 0 2 C0 1.34 0 0.68 0 0 Z M29 5 C29 8 29 8 27.5 9.688 C27.005 10.121 26.51 10.554 26 11 C26 8 26 8 27.5 6.312 C28.243 5.663 28.243 5.663 29 5 Z " fill="#121212" transform="translate(327,474)"/>
<path d="M0 0 C3.046 -0.338 4.552 -0.303 7.125 1.438 C11.48 7.389 13.1 14.708 12 22 C10.5 25.062 10.5 25.062 9 27 C6.019 26.39 3.716 25.885 1.746 23.449 C-1.079 18.581 -2.145 14.554 -2.188 9 C-2.202 8.154 -2.216 7.309 -2.23 6.438 C-1.985 3.846 -1.306 2.23 0 0 Z M1 2 C-1.797 6.687 -1.008 10.811 0 16 C1.476 19.689 2.975 22.407 6 25 C6.99 24.67 7.98 24.34 9 24 C11.091 19.818 10.597 14.827 9.176 10.477 C7.739 7.177 6.561 4.561 4 2 C3.01 2 2.02 2 1 2 Z " fill="#000000" transform="translate(303,425)"/>
<path d="M0 0 C2.854 2.854 2.285 4.878 2.344 8.871 C2.358 9.549 2.373 10.227 2.388 10.926 C2.435 13.096 2.469 15.267 2.5 17.438 C2.541 20.291 2.595 23.143 2.656 25.996 C2.684 27.902 2.684 27.902 2.713 29.845 C2.762 33.159 2.762 33.159 5 36 C4.01 36 3.02 36 2 36 C-1.011 32.219 -1.367 29.238 -1.328 24.492 C-1.323 23.259 -1.318 22.025 -1.312 20.754 C-1.292 19.474 -1.271 18.194 -1.25 16.875 C-1.245 15.587 -1.24 14.299 -1.234 12.973 C-1.155 3.464 -1.155 3.464 0 0 Z " fill="#FFFFFF" transform="translate(41,246)"/>
<path d="M0 0 C2.572 0.033 5.143 0.065 7.715 0.098 C7.715 4.718 7.715 9.338 7.715 14.098 C7.055 13.768 6.395 13.438 5.715 13.098 C5.715 9.798 5.715 6.498 5.715 3.098 C5.055 3.098 4.395 3.098 3.715 3.098 C3.715 5.738 3.715 8.378 3.715 11.098 C0.745 10.603 0.745 10.603 -2.285 10.098 C-2.479 8.619 -2.665 7.14 -2.848 5.66 C-2.952 4.836 -3.056 4.013 -3.164 3.164 C-3.204 2.482 -3.244 1.8 -3.285 1.098 C-2.285 0.098 -2.285 0.098 0 0 Z " fill="#212121" transform="translate(321.28515625,197.90234375)"/>
<path d="M0 0 C2.64 0.33 5.28 0.66 8 1 C7.503 6.661 6.455 10.877 4 16 C2.02 16 0.04 16 -2 16 C-1.856 15.432 -1.711 14.863 -1.562 14.277 C-0.385 9.377 0.214 5.035 0 0 Z " fill="#FFFFFF" transform="translate(308,290)"/>
<path d="M0 0 C1.509 3.019 1.175 5.673 1 9 C0.01 10.485 0.01 10.485 -1 12 C-3.625 12.188 -3.625 12.188 -6 12 C-7.99 9.191 -8.101 7.127 -7.75 3.812 C-7.502 2.554 -7.255 1.296 -7 0 C-4.302 -1.349 -2.848 -0.803 0 0 Z " fill="#000000" transform="translate(292,178)"/>
<path d="M0 0 C2.625 0.375 2.625 0.375 5 1 C5.878 4.732 6.174 8.167 6 12 C5.67 12.33 5.34 12.66 5 13 C2.661 12.713 0.326 12.381 -2 12 C-2.054 10.375 -2.093 8.75 -2.125 7.125 C-2.148 6.22 -2.171 5.315 -2.195 4.383 C-2 2 -2 2 0 0 Z " fill="#313131" transform="translate(282,5)"/>
<path d="M0 0 C2.625 0.375 2.625 0.375 5 1 C6.161 5.256 5.762 8.684 5 13 C3 13.043 1 13.041 -1 13 C-2.666 11.334 -2.171 9.34 -2.188 7.062 C-2.202 6.167 -2.216 5.271 -2.23 4.348 C-2 2 -2 2 0 0 Z " fill="#363636" transform="translate(273,5)"/>
<path d="M0 0 C0.33 1.32 0.66 2.64 1 4 C-1.576 5.369 -4.16 6.72 -6.75 8.062 C-7.48 8.452 -8.209 8.842 -8.961 9.244 C-10.024 9.79 -10.024 9.79 -11.109 10.348 C-11.759 10.688 -12.408 11.028 -13.077 11.379 C-15.42 12.136 -16.705 11.788 -19 11 C-17.941 7.699 -16.875 6.924 -13.848 5.078 C-12.592 4.456 -11.33 3.847 -10.062 3.25 C-9.112 2.776 -9.112 2.776 -8.143 2.293 C-5.249 0.887 -3.256 0 0 0 Z " fill="#1E1E1E" transform="translate(376,102)"/>
<path d="M0 0 C2.625 0.375 2.625 0.375 5 1 C5.054 3.792 5.094 6.583 5.125 9.375 C5.15 10.566 5.15 10.566 5.176 11.781 C5.193 13.855 5.103 15.929 5 18 C3 20 3 20 0 21 C-0.061 19.964 -0.121 18.927 -0.184 17.859 C-0.268 16.49 -0.353 15.12 -0.438 13.75 C-0.477 13.068 -0.516 12.386 -0.557 11.684 C-0.731 8.917 -0.911 6.317 -1.66 3.641 C-1.772 3.099 -1.884 2.558 -2 2 C-1.34 1.34 -0.68 0.68 0 0 Z " fill="#050505" transform="translate(344,21)"/>
<path d="M0 0 C0.124 0.619 0.248 1.238 0.375 1.875 C0.872 4.191 0.872 4.191 3 6 C-4.755 5.42 -12.347 4.376 -20 3 C-13.884 -1.851 -7.378 -1.844 0 0 Z " fill="#FFFFFF" transform="translate(316,234)"/>
<path d="M0 0 C-0.186 0.639 -0.371 1.279 -0.562 1.938 C-0.707 2.618 -0.851 3.299 -1 4 C-0.67 4.33 -0.34 4.66 0 5 C0.125 8 0.125 8 0 11 C-1 12 -1 12 -3.438 12.188 C-6 12 -6 12 -8 10 C-8.558 2.969 -8.558 2.969 -6.812 -0.062 C-4.263 -1.381 -2.683 -0.798 0 0 Z " fill="#303030" transform="translate(297,6)"/>
<path d="M0 0 C0.66 0 1.32 0 2 0 C1.67 1.65 1.34 3.3 1 5 C4.428 7.109 7.009 7.399 11 7 C13.03 6.063 15.037 5.071 17 4 C17.66 4 18.32 4 19 4 C19 4.66 19 5.32 19 6 C13.426 8.846 9.209 9.341 3 9 C2.34 9 1.68 9 1 9 C2.773 11.179 2.773 11.179 5.023 11.266 C5.799 11.26 6.575 11.255 7.375 11.25 C8.146 11.255 8.917 11.26 9.711 11.266 C12.212 10.975 13.784 10.149 16 9 C16.99 9 17.98 9 19 9 C19 9.66 19 10.32 19 11 C13.748 13.682 8.928 15.118 3 14 C0.75 12.797 0.75 12.797 -1 11 C-1.426 8.555 -1.426 8.555 -1.312 5.875 C-1.288 4.986 -1.264 4.096 -1.238 3.18 C-1 1 -1 1 0 0 Z " fill="#000000" transform="translate(260,70)"/>
<path d="M0 0 C2.31 0 4.62 0 7 0 C7.66 5.61 8.32 11.22 9 17 C7.35 16.67 5.7 16.34 4 16 C3.328 13.897 2.663 11.793 2 9.688 C1.443 7.93 1.443 7.93 0.875 6.137 C0 3 0 3 0 0 Z " fill="#FFFFFF" transform="translate(330,293)"/>
<path d="M0 0 C0.33 0 0.66 0 1 0 C1.568 3.485 1.769 6.537 1 10 C-1.643 12.932 -4.625 14.978 -8 17 C-9.32 15.68 -10.64 14.36 -12 13 C-11.259 12.563 -11.259 12.563 -10.504 12.117 C-6.101 9.363 -6.101 9.363 -4.062 4.688 C-4.042 3.801 -4.021 2.914 -4 2 C-2.68 2 -1.36 2 0 2 C0 1.34 0 0.68 0 0 Z " fill="#FFFFFF" transform="translate(400,85)"/>
<path d="M0 0 C0 0.66 0 1.32 0 2 C-4.782 4.167 -9.569 6.321 -14.362 8.464 C-15.992 9.195 -17.62 9.929 -19.247 10.667 C-21.584 11.726 -23.926 12.772 -26.27 13.816 C-26.998 14.15 -27.726 14.483 -28.476 14.826 C-33.658 17.114 -33.658 17.114 -37 16 C-34.018 13.573 -31.128 12.069 -27.57 10.625 C-26.527 10.197 -25.485 9.769 -24.41 9.328 C-23.326 8.89 -22.242 8.452 -21.125 8 C-18.981 7.127 -16.838 6.252 -14.695 5.375 C-13.697 4.966 -12.698 4.558 -11.669 4.137 C-9.532 3.227 -7.483 2.268 -5.43 1.188 C-3 0 -3 0 0 0 Z " fill="#000000" transform="translate(114,72)"/>
<path d="M0 0 C0.66 0 1.32 0 2 0 C1.34 2.31 0.68 4.62 0 7 C6.518 7.354 11.175 7.039 17 4 C17 4.66 17 5.32 17 6 C10.829 9.328 6.908 10.507 0 9 C1.974 11.523 2.967 11.993 6.188 12.688 C7.58 12.842 7.58 12.842 9 13 C9 13.66 9 14.32 9 15 C0.802 14.656 0.802 14.656 -2.062 12.312 C-3.284 9.3 -3.403 7.226 -3 4 C-1.625 1.625 -1.625 1.625 0 0 Z " fill="#000000" transform="translate(326,125)"/>
<path d="M0 0 C0 0.99 0 1.98 0 3 C-3.661 4.88 -7.327 6.749 -10.999 8.609 C-12.247 9.244 -13.495 9.881 -14.741 10.521 C-16.529 11.44 -18.323 12.347 -20.117 13.254 C-21.735 14.079 -21.735 14.079 -23.386 14.92 C-24.249 15.277 -25.111 15.633 -26 16 C-26.66 15.67 -27.32 15.34 -28 15 C-28 14.34 -28 13.68 -28 13 C-26.961 12.481 -25.922 11.961 -24.852 11.426 C-24.18 11.09 -23.509 10.754 -22.817 10.408 C-21.352 9.676 -19.887 8.944 -18.421 8.213 C-15.202 6.606 -11.986 4.993 -8.781 3.355 C-7.905 2.908 -7.028 2.461 -6.125 2 C-5.364 1.608 -4.604 1.216 -3.82 0.812 C-2 0 -2 0 0 0 Z " fill="#FFFFFF" transform="translate(391,107)"/>
<path d="M0 0 C2.812 1.172 4.63 2.876 6.859 4.941 C7.659 5.675 8.458 6.408 9.281 7.164 C9.885 7.73 10.488 8.296 11.109 8.879 C10.119 9.869 9.129 10.859 8.109 11.879 C4.456 10.629 3.329 10.208 1.109 6.879 C-0.941 5.687 -0.941 5.687 -2.891 4.879 C-2.891 4.219 -2.891 3.559 -2.891 2.879 C-3.551 2.549 -4.211 2.219 -4.891 1.879 C-1.891 -0.121 -1.891 -0.121 0 0 Z " fill="#FFFFFF" transform="translate(311.890625,93.12109375)"/>
<path d="M0 0 C6.468 0.561 6.468 0.561 9.637 2.957 C11.074 5.02 11.074 5.02 11.074 7.02 C8.97 6.878 6.866 6.731 4.762 6.582 C3.59 6.501 2.418 6.42 1.211 6.336 C-1.926 6.02 -1.926 6.02 -4.926 5.02 C-2.509 0.025 -2.509 0.025 0 0 Z " fill="#FFFFFF" transform="translate(334.92578125,248.98046875)"/>
<path d="M0 0 C7.314 5.306 14.143 11.126 21 17 C20.67 17.66 20.34 18.32 20 19 C15.584 17.571 12.915 15.36 9.562 12.188 C5.791 8.666 2.007 5.249 -2 2 C-1.34 1.34 -0.68 0.68 0 0 Z " fill="#FFFFFF" transform="translate(291,67)"/>
<path d="M0 0 C0 2.64 0 5.28 0 8 C-5.176 11.223 -5.176 11.223 -7 12 C-7.99 11.67 -8.98 11.34 -10 11 C-9.67 7.7 -9.34 4.4 -9 1 C-8.67 1.66 -8.34 2.32 -8 3 C-6.298 2.257 -6.298 2.257 -4.562 1.5 C-1 0 -1 0 0 0 Z " fill="#FFFFFF" transform="translate(325,104)"/>
<path d="M0 0 C0 0.99 0 1.98 0 3 C-3.931 4.703 -7.871 6.385 -11.812 8.062 C-13.492 8.79 -13.492 8.79 -15.205 9.533 C-16.278 9.988 -17.351 10.442 -18.457 10.91 C-19.447 11.334 -20.437 11.759 -21.456 12.196 C-24 13 -24 13 -27 12 C-25.555 9.111 -23.682 8.841 -20.723 7.617 C-19.652 7.172 -18.582 6.728 -17.479 6.27 C-15.788 5.579 -15.788 5.579 -14.062 4.875 C-12.939 4.407 -11.816 3.939 -10.658 3.457 C-2.278 0 -2.278 0 0 0 Z " fill="#FFFFFF" transform="translate(326,56)"/>
<path d="M0 0 C4.845 0.448 7.048 2.502 10.5 5.812 C13.222 8.401 15.871 10.9 18.844 13.199 C19.911 14.091 19.911 14.091 21 15 C21 15.66 21 16.32 21 17 C16.694 16.501 14.005 13.742 10.875 11 C7.175 7.66 7.175 7.66 3 5 C3 4.34 3 3.68 3 3 C2.01 2.67 1.02 2.34 0 2 C0 1.34 0 0.68 0 0 Z " fill="#FFFFFF" transform="translate(354,122)"/>
<path d="M0 0 C1.875 0.625 1.875 0.625 4 2 C6.256 6.619 5.994 10.03 5 15 C2.261 13.996 1.188 13.338 -0.25 10.75 C-1.271 7.006 -1.775 3.549 0 0 Z " fill="#FFFFFF" transform="translate(92,428)"/>
<path d="M0 0 C1.938 0.062 1.938 0.062 4 1 C7.354 4.975 8.363 9.878 8 15 C6.062 17.562 6.062 17.562 4 19 C1 18 1 18 -0.688 15.562 C-2.359 11.027 -2.664 6.795 -2 2 C-1.34 1.34 -0.68 0.68 0 0 Z M0 2 C-1.278 4.556 -1 6.104 -0.75 8.938 C-0.683 9.813 -0.616 10.688 -0.547 11.59 C0.075 14.329 0.773 15.33 3 17 C3.66 17 4.32 17 5 17 C6.322 11.113 5.874 8.132 3 3 C2.01 2.67 1.02 2.34 0 2 Z " fill="#000000" transform="translate(92,426)"/>
<path d="M0 0 C0.33 1.32 0.66 2.64 1 4 C-5.27 6.97 -11.54 9.94 -18 13 C-18.99 12.01 -19.98 11.02 -21 10 C-14.07 6.7 -7.14 3.4 0 0 Z " fill="#FFFFFF" transform="translate(377,105)"/>
<path d="M0 0 C0 0.66 0 1.32 0 2 C-3.785 3.74 -7.575 5.467 -11.371 7.182 C-12.662 7.767 -13.951 8.356 -15.238 8.948 C-17.088 9.799 -18.944 10.637 -20.801 11.473 C-21.916 11.981 -23.032 12.489 -24.181 13.012 C-27 14 -27 14 -30 13 C-25.306 9.214 -19.939 7.18 -14.438 4.812 C-13.384 4.349 -12.33 3.886 -11.244 3.408 C-9.729 2.752 -9.729 2.752 -8.184 2.082 C-7.261 1.682 -6.339 1.282 -5.388 0.87 C-3 0 -3 0 0 0 Z " fill="#000000" transform="translate(121,92)"/>
<path d="M0 0 C-0.129 2.32 -0.129 2.32 -1 5 C-3.652 6.617 -3.652 6.617 -6.938 7.875 C-8.019 8.306 -9.101 8.736 -10.215 9.18 C-13 10 -13 10 -15 9 C-14.836 7.172 -14.836 7.172 -14 5 C-11.602 3.516 -11.602 3.516 -8.625 2.25 C-7.648 1.822 -6.671 1.394 -5.664 0.953 C-3 0 -3 0 0 0 Z " fill="#292929" transform="translate(311,50)"/>
<path d="M0 0 C2.688 0.312 2.688 0.312 5 1 C5.75 3.25 5.75 3.25 6 6 C4.062 8.312 4.062 8.312 2 10 C3.32 10.33 4.64 10.66 6 11 C6 11.66 6 12.32 6 13 C3.03 13 0.06 13 -3 13 C-1.523 8.323 -1.523 8.323 1.125 6.688 C2.053 6.347 2.053 6.347 3 6 C2.67 5.01 2.34 4.02 2 3 C0.02 3.99 0.02 3.99 -2 5 C-2.33 4.34 -2.66 3.68 -3 3 C-1.812 1.438 -1.812 1.438 0 0 Z " fill="#000000" transform="translate(287,348)"/>
<path d="M0 0 C0.66 0 1.32 0 2 0 C2.33 0.99 2.66 1.98 3 3 C3.412 2.484 3.825 1.969 4.25 1.438 C4.827 0.963 5.405 0.489 6 0 C8.188 0.312 8.188 0.312 10 1 C8.515 2.485 8.515 2.485 7 4 C7.309 4.763 7.619 5.526 7.938 6.312 C8.679 8.188 9.362 10.087 10 12 C6.73 11.436 5.174 10.5 3 8 C2.67 9.32 2.34 10.64 2 12 C1.34 12 0.68 12 0 12 C0 8.04 0 4.08 0 0 Z " fill="#000000" transform="translate(3,347)"/>
<path d="M0 0 C0.66 0 1.32 0 2 0 C2.33 0.99 2.66 1.98 3 3 C3.99 2.67 4.98 2.34 6 2 C6 1.34 6 0.68 6 0 C7.32 0.33 8.64 0.66 10 1 C8.515 2.485 8.515 2.485 7 4 C7.309 4.763 7.619 5.526 7.938 6.312 C8.679 8.188 9.362 10.087 10 12 C6.73 11.436 5.174 10.5 3 8 C2.67 9.32 2.34 10.64 2 12 C1.34 12 0.68 12 0 12 C0 8.04 0 4.08 0 0 Z " fill="#000000" transform="translate(3,176)"/>
<path d="M0 0 C4.62 0.66 9.24 1.32 14 2 C7.114 7.164 7.114 7.164 1.887 6.758 C0.831 6.549 -0.225 6.34 -1.312 6.125 C-2.915 5.819 -2.915 5.819 -4.551 5.508 C-5.359 5.34 -6.167 5.173 -7 5 C-7 4.67 -7 4.34 -7 4 C-3.535 3.505 -3.535 3.505 0 3 C0 2.01 0 1.02 0 0 Z " fill="#FFFFFF" transform="translate(330,256)"/>
<path d="M0 0 C0 0.66 0 1.32 0 2 C-0.743 2.413 -1.485 2.825 -2.25 3.25 C-6.074 5.683 -8.372 8.803 -9.625 13.188 C-9.749 13.786 -9.873 14.384 -10 15 C-10.99 16.485 -10.99 16.485 -12 18 C-15.125 18.188 -15.125 18.188 -18 18 C-17.505 16.515 -17.505 16.515 -17 15 C-16.37 14.698 -15.739 14.397 -15.09 14.086 C-12.405 12.691 -11.858 11.323 -10.562 8.625 C-8.095 3.91 -5.757 0 0 0 Z " fill="#0F0F0F" transform="translate(320,378)"/>
<path d="M0 0 C-4.199 4.664 -10.255 7.651 -16.438 8.438 C-19 8 -19 8 -22 6 C-22 5.34 -22 4.68 -22 4 C-20.907 4.103 -19.814 4.206 -18.688 4.312 C-13.621 4.367 -9.837 2.296 -5.418 -0.004 C-3 -1 -3 -1 0 0 Z " fill="#FFFFFF" transform="translate(348,130)"/>
<path d="M0 0 C0.33 1.32 0.66 2.64 1 4 C-1.743 5.228 -4.492 6.432 -7.25 7.625 C-8.027 7.976 -8.805 8.326 -9.605 8.688 C-10.737 9.171 -10.737 9.171 -11.891 9.664 C-12.582 9.968 -13.273 10.272 -13.985 10.584 C-16.617 11.127 -17.767 10.388 -20 9 C-17.587 7.391 -15.632 6.347 -12.988 5.273 C-12.231 4.964 -11.474 4.655 -10.693 4.336 C-9.908 4.019 -9.122 3.702 -8.312 3.375 C-7.515 3.05 -6.718 2.725 -5.896 2.391 C-3.932 1.591 -1.966 0.795 0 0 Z " fill="#FFFFFF" transform="translate(312,53)"/>
<path d="M0 0 C2 -0.043 4 -0.041 6 0 C7 1 7 1 7.25 3.375 C7 6 7 6 5.5 7.812 C5.005 8.204 4.51 8.596 4 9 C4.99 9.33 5.98 9.66 7 10 C7 10.66 7 11.32 7 12 C4.03 12 1.06 12 -2 12 C-0.162 8.849 1.76 5.88 4 3 C2.35 3.33 0.7 3.66 -1 4 C-0.67 2.68 -0.34 1.36 0 0 Z " fill="#000000" transform="translate(61,176)"/>
<path d="M0 0 C0 0.99 0 1.98 0 3 C-7.59 5.97 -15.18 8.94 -23 12 C-23 11.01 -23 10.02 -23 9 C-17.881 6.686 -12.735 4.44 -7.562 2.25 C-6.553 1.822 -5.544 1.394 -4.504 0.953 C-2 0 -2 0 0 0 Z " fill="#FFFFFF" transform="translate(171,237)"/>
<path d="M0 0 C4.145 1.73 7.301 4.561 10.688 7.438 C11.281 7.928 11.875 8.418 12.486 8.924 C16.878 12.635 16.878 12.635 18 16 C13.947 15.456 11.917 13.373 9 10.625 C5.494 7.326 5.494 7.326 1.688 4.398 C1.131 3.937 0.574 3.475 0 3 C0 2.01 0 1.02 0 0 Z " fill="#FFFFFF" transform="translate(328,99)"/>
<path d="M0 0 C0.66 0.99 1.32 1.98 2 3 C-10.931 9.767 -10.931 9.767 -18 8 C-19.75 6.469 -19.75 6.469 -21 5 C-20.67 4.34 -20.34 3.68 -20 3 C-19.34 3.33 -18.68 3.66 -18 4 C-11.117 4.888 -6.044 3.201 0 0 Z " fill="#FFFFFF" transform="translate(281,74)"/>
<path d="M0 0 C4.93 0.845 8.827 2.218 13 5 C14.655 5.385 16.322 5.728 18 6 C15.75 8.062 15.75 8.062 13 10 C9.145 9.735 7.014 7.529 4.25 5 C3.451 4.278 2.652 3.556 1.828 2.812 C1.225 2.214 0.622 1.616 0 1 C0 0.67 0 0.34 0 0 Z " fill="#FFFFFF" transform="translate(290,105)"/>
<path d="M0 0 C0.33 1.32 0.66 2.64 1 4 C-1.759 5.804 -2.89 6.013 -6.25 5.625 C-7.157 5.419 -8.065 5.212 -9 5 C-9.33 3.68 -9.66 2.36 -10 1 C-6.422 -1.34 -4.078 -0.927 0 0 Z " fill="#474747" transform="translate(139,253)"/>
<path d="M0 0 C0.33 1.32 0.66 2.64 1 4 C-2.263 5.704 -5.536 7.385 -8.812 9.062 C-9.741 9.548 -10.67 10.033 -11.627 10.533 C-12.52 10.988 -13.412 11.442 -14.332 11.91 C-15.154 12.334 -15.976 12.759 -16.823 13.196 C-19 14 -19 14 -22 13 C-5.176 2 -5.176 2 0 2 C0 1.34 0 0.68 0 0 Z " fill="#000000" transform="translate(391,108)"/>
<path d="M0 0 C0 0.66 0 1.32 0 2 C-1.98 2.99 -1.98 2.99 -4 4 C-4.33 12.25 -4.66 20.5 -5 29 C-5.33 29 -5.66 29 -6 29 C-6 20.75 -6 12.5 -6 4 C-9.63 3.67 -13.26 3.34 -17 3 C-17 2.34 -17 1.68 -17 1 C-16.252 1.095 -15.505 1.191 -14.734 1.289 C-13.257 1.455 -13.257 1.455 -11.75 1.625 C-10.775 1.741 -9.801 1.857 -8.797 1.977 C-5.335 2.006 -3.27 0 0 0 Z " fill="#000000" transform="translate(342,260)"/>
<path d="M0 0 C0.799 0.018 1.598 0.036 2.422 0.055 C3.025 0.078 3.628 0.101 4.25 0.125 C4.25 1.445 4.25 2.765 4.25 4.125 C4.91 4.455 5.57 4.785 6.25 5.125 C4.124 5.011 1.999 4.884 -0.125 4.75 C-1.308 4.68 -2.492 4.611 -3.711 4.539 C-6.75 4.125 -6.75 4.125 -8.75 2.125 C-5.688 0.341 -3.529 -0.104 0 0 Z " fill="#FFFFFF" transform="translate(315.75,254.875)"/>
<path d="M0 0 C2.64 0 5.28 0 8 0 C8.33 0.66 8.66 1.32 9 2 C8.258 3.84 8.258 3.84 7.125 5.938 C5.851 8.321 4.86 10.419 4 13 C3.34 13 2.68 13 2 13 C2.875 6.25 2.875 6.25 4 4 C2.68 3.67 1.36 3.34 0 3 C0 2.01 0 1.02 0 0 Z " fill="#000000" transform="translate(32,7)"/>
<path d="M0 0 C-4.75 4 -4.75 4 -7 4 C-7 15.22 -7 26.44 -7 38 C-7.33 38 -7.66 38 -8 38 C-8.074 33.07 -8.129 28.141 -8.165 23.211 C-8.18 21.534 -8.2 19.857 -8.226 18.18 C-8.263 15.77 -8.28 13.36 -8.293 10.949 C-8.308 10.199 -8.324 9.449 -8.34 8.676 C-8.342 3.502 -8.342 3.502 -6.65 1.015 C-4.379 -0.382 -2.61 -0.212 0 0 Z " fill="#000000" transform="translate(297,243)"/>
<path d="M0 0 C0 4.29 0 8.58 0 13 C-0.99 13 -1.98 13 -3 13 C-3 10.36 -3 7.72 -3 5 C-3.99 5 -4.98 5 -6 5 C-6 3 -6 3 -4.688 1.375 C-3 0 -3 0 0 0 Z " fill="#000000" transform="translate(282,348)"/>
<path d="M0 0 C0 4.29 0 8.58 0 13 C-0.99 13 -1.98 13 -3 13 C-3 10.36 -3 7.72 -3 5 C-3.99 5 -4.98 5 -6 5 C-6 4.34 -6 3.68 -6 3 C-2.538 0 -2.538 0 0 0 Z " fill="#000000" transform="translate(282,177)"/>
<path d="M0 0 C2.97 0.33 5.94 0.66 9 1 C9.33 2.32 9.66 3.64 10 5 C6.04 5 2.08 5 -2 5 C-1.34 3.35 -0.68 1.7 0 0 Z " fill="#FFFFFF" transform="translate(320,296)"/>
<path d="M0 0 C4.172 0.519 6.254 1.712 9.312 4.562 C10.01 5.203 10.707 5.844 11.426 6.504 C11.945 6.998 12.465 7.491 13 8 C12.67 8.99 12.34 9.98 12 11 C9.333 9 6.667 7 4 5 C3.252 4.481 2.505 3.961 1.734 3.426 C0.876 2.72 0.876 2.72 0 2 C0 1.34 0 0.68 0 0 Z " fill="#FFFFFF" transform="translate(269,51)"/>
<path d="M0 0 C6.986 1.397 11.432 6.396 15.434 12.012 C16.562 13.875 16.562 13.875 18 17 C17.67 17.66 17.34 18.32 17 19 C16.443 18.192 15.886 17.384 15.312 16.551 C10.791 10.219 6.919 5.774 0 2 C0 1.34 0 0.68 0 0 Z " fill="#000000" transform="translate(89,390)"/>
<path d="M0 0 C0.99 0 1.98 0 3 0 C3 3.96 3 7.92 3 12 C2.01 12 1.02 12 0 12 C-0.144 10.907 -0.289 9.814 -0.438 8.688 C-0.883 5.069 -0.883 5.069 -2 2 C-1.34 1.34 -0.68 0.68 0 0 Z " fill="#000000" transform="translate(45,347)"/>
<path d="M0 0 C2.475 0.99 2.475 0.99 5 2 C5 3.65 5 5.3 5 7 C3.188 7.688 3.188 7.688 1 8 C-0.812 6.812 -0.812 6.812 -2 5 C-1.749 2.863 -1.541 1.541 0 0 Z " fill="#313131" transform="translate(327,280)"/>
<path d="M0 0 C0 3.96 0 7.92 0 12 C-0.99 12 -1.98 12 -3 12 C-3.144 10.907 -3.289 9.814 -3.438 8.688 C-3.883 5.069 -3.883 5.069 -5 2 C-2 0 -2 0 0 0 Z " fill="#000000" transform="translate(57,347)"/>
<path d="M0 0 C-2.133 2.346 -4.025 3.863 -7 5 C-9.75 5.125 -9.75 5.125 -12 5 C-12.33 4.34 -12.66 3.68 -13 3 C-11.59 2.298 -10.172 1.614 -8.75 0.938 C-7.961 0.555 -7.172 0.172 -6.359 -0.223 C-3.74 -1.086 -2.551 -0.93 0 0 Z " fill="#FFFFFF" transform="translate(342,125)"/>
<path d="M0 0 C0 0.99 0 1.98 0 3 C-1.622 3.838 -3.248 4.67 -4.875 5.5 C-6.232 6.196 -6.232 6.196 -7.617 6.906 C-10 8 -10 8 -12 8 C-10.955 4.749 -9.409 3.431 -6.562 1.75 C-3 0 -3 0 0 0 Z " fill="#505050" transform="translate(376,110)"/>
<path d="M0 0 C0 0.66 0 1.32 0 2 C-8.262 5.629 -8.262 5.629 -13 4 C-11.728 1.456 -10.801 1.306 -8.188 0.312 C-7.5 0.041 -6.813 -0.231 -6.105 -0.512 C-3.706 -1.068 -2.311 -0.774 0 0 Z " fill="#FFFFFF" transform="translate(277,70)"/>
<path d="M0 0 C2.475 0.495 2.475 0.495 5 1 C5.33 2.65 5.66 4.3 6 6 C4.344 6.382 2.675 6.714 1 7 C0 6 0 6 -0.062 2.938 C-0.042 1.968 -0.021 0.999 0 0 Z " fill="#3E3E3E" transform="translate(308,278)"/>
<path d="M0 0 C0.99 0.33 1.98 0.66 3 1 C3.33 2.65 3.66 4.3 4 6 C4.66 6 5.32 6 6 6 C9.077 12.4 9.077 12.4 8.688 15.438 C8.461 15.953 8.234 16.469 8 17 C7.67 15.35 7.34 13.7 7 12 C6.34 12 5.68 12 5 12 C3.35 8.04 1.7 4.08 0 0 Z " fill="#636363" transform="translate(106,409)"/>
<path d="M0 0 C1.98 0 3.96 0 6 0 C6 1.98 6 3.96 6 6 C4.02 6 2.04 6 0 6 C0 4.02 0 2.04 0 0 Z " fill="#FFFFFF" transform="translate(322,252)"/>
<path d="M0 0 C4.955 1.166 7.027 4.161 9.961 8.027 C10.304 8.678 10.647 9.329 11 10 C10.67 10.99 10.34 11.98 10 13 C5.685 9.004 2.295 5.535 0 0 Z " fill="#FFFFFF" transform="translate(278,110)"/>
<path d="M0 0 C3.3 0.33 6.6 0.66 10 1 C10 2.32 10 3.64 10 5 C6.7 4.67 3.4 4.34 0 4 C0 2.68 0 1.36 0 0 Z " fill="#FFFFFF" transform="translate(336,48)"/>
<path d="M0 0 C0.763 0.206 1.526 0.413 2.312 0.625 C-2.83 6.196 -2.83 6.196 -6.688 6.625 C-6.375 4.25 -6.375 4.25 -5.688 1.625 C-2.688 -0.375 -2.688 -0.375 0 0 Z " fill="#343434" transform="translate(307.6875,59.375)"/>
<path d="M0 0 C0 4.29 0 8.58 0 13 C-0.66 13 -1.32 13 -2 13 C-2 10.36 -2 7.72 -2 5 C-2.99 5 -3.98 5 -5 5 C-3.333 0 -3.333 0 0 0 Z " fill="#000000" transform="translate(272,348)"/>
<path d="M0 0 C0 3.96 0 7.92 0 12 C-0.66 12 -1.32 12 -2 12 C-2.33 9.69 -2.66 7.38 -3 5 C-3.66 5 -4.32 5 -5 5 C-5 4.01 -5 3.02 -5 2 C-2 0 -2 0 0 0 Z " fill="#000000" transform="translate(66,347)"/>
<path d="M0 0 C0 4.29 0 8.58 0 13 C-0.66 13 -1.32 13 -2 13 C-2 10.36 -2 7.72 -2 5 C-2.99 5 -3.98 5 -5 5 C-3.333 0 -3.333 0 0 0 Z " fill="#000000" transform="translate(272,177)"/>
<path d="M0 0 C0 0.66 0 1.32 0 2 C-1.765 2.866 -3.537 3.717 -5.312 4.562 C-6.792 5.276 -6.792 5.276 -8.301 6.004 C-11 7 -11 7 -14 6 C-9.95 2.598 -5.364 0 0 0 Z " fill="#000000" transform="translate(319,62)"/>
<path d="M0 0 C4.29 0 8.58 0 13 0 C12.67 0.99 12.34 1.98 12 3 C8.04 3 4.08 3 0 3 C0 2.01 0 1.02 0 0 Z " fill="#FFFFFF" transform="translate(318,235)"/>
<path d="M0 0 C2.31 0 4.62 0 7 0 C7 0.66 7 1.32 7 2 C6.01 2 5.02 2 4 2 C4 4.64 4 7.28 4 10 C3.34 10 2.68 10 2 10 C2 7.36 2 4.72 2 2 C1.34 2 0.68 2 0 2 C0 1.34 0 0.68 0 0 Z " fill="#000000" transform="translate(399,501)"/>
<path d="M0 0 C1.485 0.99 1.485 0.99 3 2 C2.67 4.31 2.34 6.62 2 9 C1.01 8.67 0.02 8.34 -1 8 C-1.042 5.667 -1.041 3.333 -1 1 C-0.67 0.67 -0.34 0.34 0 0 Z " fill="#FFFFFF" transform="translate(288,179)"/>
<path d="M0 0 C3.237 1.485 5.933 3.327 8.75 5.5 C9.549 6.108 10.348 6.717 11.172 7.344 C11.775 7.89 12.378 8.437 13 9 C13 9.66 13 10.32 13 11 C9.763 9.515 7.067 7.673 4.25 5.5 C3.451 4.892 2.652 4.283 1.828 3.656 C1.225 3.11 0.622 2.563 0 2 C0 1.34 0 0.68 0 0 Z " fill="#FFFFFF" transform="translate(312,87)"/>
<path d="M0 0 C0.99 0 1.98 0 3 0 C2.688 1.938 2.688 1.938 2 4 C1.01 4.33 0.02 4.66 -1 5 C-1 5.99 -1 6.98 -1 8 C-1.99 7.67 -2.98 7.34 -4 7 C-2.926 4.085 -2.222 2.222 0 0 Z " fill="#727272" transform="translate(264,68)"/>
<path d="M0 0 C0.33 0 0.66 0 1 0 C1 3.3 1 6.6 1 10 C-0.65 8.35 -2.3 6.7 -4 5 C-2.693 3.313 -1.358 1.646 0 0 Z " fill="#FFFFFF" transform="translate(237,349)"/>
<path d="M0 0 C0.043 1.666 0.041 3.334 0 5 C-1 6 -1 6 -3.562 6.062 C-4.769 6.032 -4.769 6.032 -6 6 C-6 4.68 -6 3.36 -6 2 C-1.125 0 -1.125 0 0 0 Z " fill="#FFFFFF" transform="translate(331,228)"/>
<path d="M0 0 C0.33 0 0.66 0 1 0 C1 3.3 1 6.6 1 10 C-0.65 8.35 -2.3 6.7 -4 5 C-2.693 3.313 -1.358 1.646 0 0 Z " fill="#FFFFFF" transform="translate(237,178)"/>
<path d="M0 0 C0.99 0 1.98 0 3 0 C4.125 5.75 4.125 5.75 3 8 C2.01 8 1.02 8 0 8 C0 5.36 0 2.72 0 0 Z " fill="#FFFFFF" transform="translate(44,178)"/>
<path d="M0 0 C2.97 0.495 2.97 0.495 6 1 C6 2.32 6 3.64 6 5 C4.02 5 2.04 5 0 5 C0 3.35 0 1.7 0 0 Z " fill="#FFFFFF" transform="translate(318,229)"/>
<path d="M0 0 C5.726 4.264 5.726 4.264 7 7.688 C7 8.451 7 9.214 7 10 C6.34 10.66 5.68 11.32 5 12 C4.162 10.378 3.33 8.752 2.5 7.125 C2.036 6.22 1.572 5.315 1.094 4.383 C0 2 0 2 0 0 Z " fill="#939393" transform="translate(105,403)"/>
<path d="M0 0 C0.66 0 1.32 0 2 0 C3.478 2.957 3.06 5.742 3 9 C2.01 9.495 2.01 9.495 1 10 C-0.158 6.527 -0.069 3.639 0 0 Z " fill="#FFFFFF" transform="translate(339,298)"/>
<path d="M0 0 C2.97 0.33 5.94 0.66 9 1 C9 1.66 9 2.32 9 3 C6.043 4.478 3.258 4.06 0 4 C0 2.68 0 1.36 0 0 Z " fill="#151515" transform="translate(263,73)"/>
<path d="M0 0 C0.33 0.99 0.66 1.98 1 3 C-1.312 3.625 -1.312 3.625 -4 4 C-4.99 3.34 -5.98 2.68 -7 2 C-7 1.34 -7 0.68 -7 0 C-4.333 -1.333 -2.833 -0.671 0 0 Z " fill="#FFFFFF" transform="translate(301,98)"/>
<path d="M0 0 C0 3.96 0 7.92 0 12 C-0.33 12 -0.66 12 -1 12 C-1.33 9.03 -1.66 6.06 -2 3 C-2.99 3 -3.98 3 -5 3 C-5 2.34 -5 1.68 -5 1 C-3 0 -3 0 0 0 Z " fill="#000000" transform="translate(344,274)"/>
<path d="M0 0 C2.31 0 4.62 0 7 0 C7 0.99 7 1.98 7 3 C4.69 3 2.38 3 0 3 C0 2.01 0 1.02 0 0 Z " fill="#FFFFFF" transform="translate(321,292)"/>
<path d="M0 0 C0.33 0.99 0.66 1.98 1 3 C-0.121 3.839 -1.247 4.671 -2.375 5.5 C-3.001 5.964 -3.628 6.428 -4.273 6.906 C-6 8 -6 8 -8 8 C-6.883 4.65 -6.253 4.207 -3.438 2.312 C-2.797 1.876 -2.156 1.439 -1.496 0.988 C-1.002 0.662 -0.509 0.336 0 0 Z " fill="#FFFFFF" transform="translate(400,97)"/>
<path d="M0 0 C0.99 0.495 0.99 0.495 2 1 C2 1.33 2 1.66 2 2 C3.65 2.33 5.3 2.66 7 3 C7 3.66 7 4.32 7 5 C5.02 5 3.04 5 1 5 C0.67 3.35 0.34 1.7 0 0 Z " fill="#000000" transform="translate(328,127)"/>
<path d="M0 0 C0.99 0 1.98 0 3 0 C2.67 1.65 2.34 3.3 2 5 C0.68 4.67 -0.64 4.34 -2 4 C-1.34 2.68 -0.68 1.36 0 0 Z " fill="#333333" transform="translate(308,50)"/>
<path d="M0 0 C0 0.99 0 1.98 0 3 C-1.98 3.33 -3.96 3.66 -6 4 C-6 3.01 -6 2.02 -6 1 C-4 0 -4 0 0 0 Z " fill="#FFFFFF" transform="translate(335,49)"/>
<path d="M0 0 C2 3 2 3 1.75 5.125 C1 7 1 7 -1 8 C-1.931 5.394 -2.149 4.358 -1.062 1.75 C-0.712 1.173 -0.361 0.595 0 0 Z " fill="#636363" transform="translate(117,461)"/>
</svg>
