<?xml version="1.0" encoding="UTF-8"?>
<!-- Generator: visioncortex VTracer 0.6.4 -->
<svg version="1.1" xmlns="http://www.w3.org/2000/svg" width="338" height="287">
<path d="M0 0 C111.54 0 223.08 0 338 0 C338 94.71 338 189.42 338 287 C226.46 287 114.92 287 0 287 C0 192.29 0 97.58 0 0 Z " fill="#FEFEFE" transform="translate(0,0)"/>
<path d="M0 0 C3.107 1.353 4.875 2.752 7 5.375 C10.763 9.855 14.875 13.911 19.088 17.962 C20.428 19.272 21.719 20.632 23 22 C23 22.66 23 23.32 23 24 C24.98 24.99 24.98 24.99 27 26 C27 26.66 27 27.32 27 28 C27.99 28.33 28.98 28.66 30 29 C31.366 30.64 32.695 32.311 34 34 C35.65 35.683 37.321 37.346 39 39 C42.82 42.778 46.635 46.561 50.43 50.363 C51.03 50.964 51.631 51.565 52.25 52.185 C54.681 54.706 56.948 57.359 59.235 60.012 C61.012 62.014 62.854 63.918 64.746 65.812 C65.432 66.5 66.118 67.187 66.824 67.895 C69.877 70.936 72.934 73.972 76 77 C75.979 75.845 75.958 74.69 75.937 73.499 C75.864 69.204 75.818 64.908 75.78 60.612 C75.76 58.755 75.733 56.897 75.698 55.04 C75.65 52.366 75.627 49.693 75.609 47.02 C75.589 46.192 75.568 45.365 75.547 44.513 C75.545 40.454 75.707 38.472 77.899 34.936 C80 33 80 33 82 33 C81.022 31.874 80.042 30.749 79.062 29.625 C78.433 28.903 77.804 28.181 77.156 27.438 C75.632 25.714 74.088 24.007 72.531 22.312 C71.717 21.426 70.902 20.539 70.062 19.625 C69.29 18.792 68.518 17.96 67.723 17.102 C66 15 66 15 66 13 C65.428 12.763 64.855 12.526 64.266 12.281 C61.512 10.724 59.832 8.875 57.75 6.5 C57.044 5.706 56.337 4.912 55.609 4.094 C54 2 54 2 54 0 C57.158 1.398 59.323 3.052 61.75 5.5 C62.364 6.108 62.977 6.717 63.609 7.344 C65 9 65 9 65 11 C65.99 11.33 66.98 11.66 68 12 C69.605 13.629 69.605 13.629 71.188 15.562 C71.717 16.203 72.247 16.844 72.793 17.504 C73.39 18.244 73.39 18.244 74 19 C72.68 14.318 70.802 10.996 67.875 7.125 C66.788 5.675 66.788 5.675 65.68 4.195 C65.125 3.471 64.571 2.746 64 2 C67 2 67 2 68.684 3.652 C72.668 8.844 75.67 13.878 78 20 C88.749 19.312 88.749 19.312 98 15 C98.235 12.65 98.414 10.294 98.562 7.938 C98.646 6.647 98.73 5.357 98.816 4.027 C98.877 3.028 98.938 2.029 99 1 C101.699 5.809 101.603 10.362 100.402 15.613 C99 18 99 18 95.988 19.328 C94.775 19.632 93.562 19.937 92.312 20.25 C91.112 20.565 89.912 20.879 88.676 21.203 C85.111 21.976 81.615 22.536 78 23 C79.701 25.773 81.434 27.983 84 30 C86.191 30.21 86.191 30.21 88.52 29.734 C101.859 27.895 117.634 26.796 130 33 C132.058 34.637 132.904 35.493 133.399 38.107 C133.41 38.918 133.421 39.728 133.432 40.563 C133.452 41.484 133.472 42.405 133.492 43.353 C133.502 44.839 133.502 44.839 133.512 46.355 C133.53 47.372 133.548 48.389 133.566 49.437 C133.62 52.687 133.654 55.937 133.688 59.188 C133.721 61.39 133.755 63.592 133.791 65.795 C133.876 71.196 133.944 76.598 134 82 C135.22 82.07 136.44 82.14 137.697 82.212 C142.264 82.478 146.83 82.767 151.395 83.062 C153.363 83.186 155.332 83.304 157.301 83.417 C160.147 83.58 162.991 83.764 165.836 83.953 C166.703 83.998 167.57 84.043 168.463 84.089 C177.074 84.702 184.617 87.455 191.438 92.812 C195.121 95.616 198.827 98.229 202.75 100.688 C206.952 103.328 211.081 105.952 215 109 C215 109.66 215 110.32 215 111 C210.159 109.352 206.173 106.67 201.938 103.875 C201.19 103.387 200.442 102.9 199.671 102.397 C196.214 100.137 192.773 97.856 189.359 95.531 C188.313 94.82 187.266 94.108 186.188 93.375 C185.274 92.743 184.36 92.112 183.418 91.461 C181.183 90.111 179.596 89.236 177 89 C176.34 89.66 175.68 90.32 175 91 C173.096 91.806 173.096 91.806 170.781 92.586 C169.93 92.877 169.08 93.169 168.203 93.469 C167.311 93.768 166.419 94.067 165.5 94.375 C159.533 96.394 153.649 98.513 147.812 100.884 C142.501 102.991 137.125 104.931 131.758 106.892 C129.739 107.629 127.721 108.369 125.703 109.109 C115.466 112.858 115.466 112.858 111.661 114.021 C108.861 114.749 108.861 114.749 107.625 117.125 C107.419 117.744 107.213 118.362 107 119 C107.99 119.33 108.98 119.66 110 120 C111.797 121.969 111.797 121.969 113.75 124.5 C114.459 125.411 115.168 126.323 115.898 127.262 C116.939 128.617 116.939 128.617 118 130 C119.125 131.438 120.25 132.875 121.375 134.312 C121.931 135.032 122.486 135.751 123.059 136.492 C124.584 138.463 126.119 140.424 127.66 142.383 C128.586 143.568 129.512 144.752 130.438 145.938 C130.887 146.506 131.337 147.074 131.8 147.659 C135 151.774 135 151.774 135 154 C135.66 154 136.32 154 137 154 C138.892 156.339 140.676 158.69 142.438 161.125 C143.527 162.605 144.618 164.084 145.711 165.562 C146.262 166.31 146.814 167.058 147.382 167.828 C149.722 170.969 152.133 174.053 154.562 177.125 C155.236 177.978 155.236 177.978 155.924 178.848 C156.829 179.993 157.735 181.138 158.641 182.282 C160.935 185.182 163.217 188.092 165.5 191 C166.417 192.167 167.333 193.333 168.25 194.5 C170.083 196.833 171.917 199.167 173.75 201.5 C174.204 202.077 174.657 202.654 175.124 203.249 C176.043 204.419 176.963 205.589 177.882 206.759 C180.135 209.627 182.388 212.494 184.645 215.359 C192.135 224.876 199.572 234.434 207 244 C206.67 244.66 206.34 245.32 206 246 C201.265 240.718 196.825 235.293 192.562 229.625 C188.244 223.917 183.871 218.288 179.293 212.785 C178 211 178 211 178 209 C177.34 209 176.68 209 176 209 C175.34 207.35 174.68 205.7 174 204 C173.34 204 172.68 204 172 204 C170.512 202.156 170.512 202.156 168.688 199.5 C165.237 194.63 161.605 189.982 157.812 185.375 C152.654 179.09 147.66 172.7 142.742 166.225 C139.305 161.701 135.832 157.21 132.312 152.75 C124.056 142.281 115.972 131.687 108 121 C108.141 123.292 108.288 125.584 108.438 127.875 C108.519 129.151 108.6 130.427 108.684 131.742 C108.792 134.883 108.792 134.883 110 137 C110.083 138.448 110.107 139.901 110.098 141.352 C110.094 142.202 110.091 143.053 110.088 143.93 C110.08 144.819 110.071 145.709 110.062 146.625 C110.058 147.522 110.053 148.419 110.049 149.344 C110.037 151.563 110.021 153.781 110 156 C109.34 155.67 108.68 155.34 108 155 C107.67 149.06 107.34 143.12 107 137 C102.395 135.547 102.395 135.547 100 137 C100 143.27 100 149.54 100 156 C99.34 156 98.68 156 98 156 C97.872 142.627 98.205 129.35 99 116 C99.33 116 99.66 116 100 116 C100 121.94 100 127.88 100 134 C101.98 134 103.96 134 106 134 C105.979 133.44 105.958 132.88 105.937 132.303 C105.853 129.765 105.801 127.227 105.75 124.688 C105.716 123.806 105.683 122.925 105.648 122.018 C105.636 121.17 105.623 120.322 105.609 119.449 C105.588 118.669 105.567 117.889 105.546 117.085 C106.189 114.134 107.486 113.623 110 112 C111.991 111.148 114.014 110.369 116.054 109.64 C117.275 109.2 118.496 108.759 119.754 108.306 C121.08 107.835 122.407 107.365 123.734 106.895 C125.097 106.406 126.458 105.917 127.82 105.428 C131.395 104.144 134.973 102.869 138.552 101.596 C142.207 100.293 145.859 98.983 149.512 97.674 C156.672 95.108 163.835 92.551 171 90 C167.899 90 166.08 90.551 163.18 91.582 C162.185 91.932 161.191 92.282 160.167 92.643 C159.08 93.029 157.994 93.415 156.875 93.812 C154.526 94.631 152.177 95.449 149.828 96.266 C145.795 97.671 141.763 99.083 137.736 100.506 C134.089 101.793 130.436 103.061 126.778 104.317 C125.359 104.809 123.942 105.306 122.527 105.811 C107.058 111.327 95.27 110.044 79.542 106.265 C76.849 105.619 74.152 104.996 71.453 104.375 C69.737 103.973 68.021 103.569 66.305 103.164 C65.5 102.978 64.694 102.791 63.865 102.599 C58.232 101.232 58.232 101.232 56 99 C64.47 99.776 72.626 101.967 80.868 103.989 C94.881 107.895 94.881 107.895 109.125 107.062 C109.87 106.868 110.615 106.673 111.383 106.473 C111.916 106.317 112.45 106.161 113 106 C111.385 106.052 111.385 106.052 109.738 106.105 C86.343 106.633 86.343 106.633 78 99 C76.522 96.043 76.94 93.258 77 90 C73.391 91.425 69.789 92.867 66.188 94.312 C65.163 94.717 64.139 95.121 63.084 95.537 C62.101 95.933 61.118 96.33 60.105 96.738 C58.747 97.28 58.747 97.28 57.36 97.833 C55.057 98.972 53.673 100.075 52 102 C66.569 106.051 81.294 109.487 96 113 C96 113.99 96 114.98 96 116 C95.228 116.312 94.456 116.625 93.661 116.946 C90.789 118.115 87.921 119.294 85.056 120.48 C83.21 121.241 81.358 121.99 79.506 122.738 C78.342 123.222 77.179 123.705 75.98 124.203 C74.37 124.863 74.37 124.863 72.727 125.536 C69.886 127.061 68.79 128.389 67 131 C66.34 131 65.68 131 65 131 C64.732 131.577 64.464 132.155 64.188 132.75 C62.971 135.056 61.697 137.021 60 139 C59.34 139 58.68 139 58 139 C57.765 139.552 57.531 140.103 57.289 140.672 C55.672 143.593 53.635 145.796 51.375 148.25 C50.149 149.588 50.149 149.588 48.898 150.953 C48.272 151.629 47.645 152.304 47 153 C47.99 152.67 48.98 152.34 50 152 C54.849 150.949 57.63 150.415 62 152.938 C62.99 153.618 63.98 154.299 65 155 C65 155.66 65 156.32 65 157 C65.776 157.231 66.552 157.461 67.352 157.699 C70.627 159.308 71.114 160.448 72.375 163.812 C72.713 164.665 73.05 165.517 73.398 166.395 C74.57 171.47 72.564 175.685 70.223 180.133 C67.424 184.406 64.022 185.766 59.188 186.875 C53.2 187.369 47.205 185.989 42 183 C40.25 180.875 40.25 180.875 39 179 C41.701 185.216 44.113 189.366 50.629 192.105 C55.415 193.375 59.9 193.06 64.811 192.834 C69.411 192.715 72.26 192.998 76 196 C78.057 199.086 78.476 200.737 79.07 204.324 C79.244 205.352 79.418 206.38 79.598 207.439 C79.772 208.511 79.946 209.583 80.125 210.688 C80.398 212.313 80.398 212.313 80.676 213.971 C81.124 216.646 81.565 219.322 82 222 C82.505 221.758 83.009 221.515 83.529 221.266 C85.809 220.173 88.092 219.086 90.375 218 C91.169 217.618 91.963 217.237 92.781 216.844 C93.542 216.483 94.302 216.122 95.086 215.75 C95.788 215.415 96.489 215.08 97.212 214.734 C99 214 99 214 101 214 C100.01 205.09 100.01 205.09 99 196 C102 194 102 194 105.625 194.25 C107.296 194.621 107.296 194.621 109 195 C110.664 198.328 109.819 201.997 109.562 205.625 C109.51 206.427 109.458 207.229 109.404 208.055 C109.275 210.037 109.138 212.018 109 214 C109.9 214.286 110.8 214.572 111.727 214.867 C114.427 215.802 116.846 216.817 119.375 218.125 C120.063 218.478 120.752 218.831 121.461 219.195 C121.969 219.461 122.477 219.726 123 220 C123 221.98 123 223.96 123 226 C124.011 226.144 125.021 226.289 126.062 226.438 C127.362 226.623 128.661 226.809 130 227 C131.114 227.083 132.227 227.165 133.375 227.25 C138.098 228.227 142.142 230.085 146 233 C147.324 235.043 147.324 235.043 148 237 C147.67 237.66 147.34 238.32 147 239 C147.866 239.268 148.733 239.536 149.625 239.812 C153 241 153 241 156.062 242.75 C157.032 243.162 158.001 243.575 159 244 C160.12 243.449 160.12 243.449 161.262 242.887 C164 242 164 242 167.297 243.16 C168.436 243.788 169.576 244.416 170.75 245.062 C171.9 245.672 173.05 246.282 174.234 246.91 C177.53 249.4 177.249 250.164 178 254 C180.732 256.129 180.732 256.129 184.062 257.812 C185.167 258.417 186.272 259.022 187.41 259.645 C188.265 260.092 189.119 260.539 190 261 C189.34 261.33 188.68 261.66 188 262 C185.483 260.846 183.116 259.487 180.703 258.129 C178.046 256.802 178.046 256.802 175.129 257.078 C170.979 256.975 168.153 255.268 164.688 253.188 C164.055 252.831 163.423 252.475 162.771 252.107 C158.133 249.398 158.133 249.398 157 246 C153.19 243.097 149.523 240.943 144.688 241.125 C138.667 240.921 133.761 237.555 129 234 C128.656 233.304 128.312 232.608 127.957 231.891 C127.095 229.816 127.095 229.816 124.871 228.52 C120.512 227.731 117.83 229.599 114.062 231.688 C113.372 232.053 112.682 232.418 111.971 232.795 C108.873 234.436 105.801 236.112 102.746 237.832 C99.634 239.156 99.079 239.044 96 238 C94.459 237.277 92.939 236.508 91.438 235.707 C90.557 235.241 89.677 234.775 88.77 234.295 C87.856 233.806 86.942 233.317 86 232.812 C78.387 228.762 70.728 224.826 63 221 C62.952 221.563 62.904 222.126 62.855 222.706 C62.355 228.579 61.851 234.451 61.346 240.324 C61.158 242.514 60.971 244.704 60.784 246.894 C60.516 250.047 60.245 253.199 59.973 256.352 C59.89 257.327 59.808 258.302 59.723 259.307 C59.323 263.914 58.856 268.449 58 273 C57.34 273 56.68 273 56 273 C56.671 258.862 57.817 244.785 59.062 230.688 C59.343 227.508 59.622 224.327 59.898 221.147 C60.069 219.188 60.241 217.229 60.416 215.271 C60.493 214.388 60.569 213.506 60.649 212.596 C60.717 211.827 60.785 211.057 60.855 210.264 C61.01 207.837 61.024 205.432 61 203 C60.481 203.277 59.961 203.554 59.426 203.84 C58.728 204.202 58.031 204.564 57.312 204.938 C56.628 205.297 55.944 205.657 55.238 206.027 C42.769 211.446 23.595 209.226 10.926 205.223 C7.055 203.605 4.148 201.764 1 199 C-0.009 206.743 -0.009 206.743 2.242 213.871 C4.11 215.252 5.842 216.14 8 217 C9.135 217.452 9.135 217.452 10.293 217.914 C15.811 219.892 21.218 221.065 27.082 221.316 C28.013 221.358 28.945 221.4 29.904 221.443 C30.864 221.483 31.824 221.522 32.812 221.562 C33.792 221.606 34.771 221.649 35.779 221.693 C38.186 221.799 40.593 221.901 43 222 C43 225 43 225 40.938 227.25 C39.962 228.17 38.982 229.086 38 230 C36.765 231.203 35.536 232.411 34.312 233.625 C33.44 234.48 33.44 234.48 32.551 235.352 C30.797 237.124 30.797 237.124 29 240 C28.34 240 27.68 240 27 240 C26.746 240.583 26.492 241.165 26.23 241.766 C24.867 244.242 23.358 245.805 21.312 247.75 C18.519 250.462 15.894 253.219 13.375 256.188 C10.498 259.541 7.48 262.284 4 265 C3.349 263.753 2.704 262.502 2.062 261.25 C1.703 260.554 1.343 259.858 0.973 259.141 C0 257 0 257 -1 253 C-1.99 262.405 -1.99 262.405 -3 272 C-3.66 272 -4.32 272 -5 272 C-5.259 256.868 -4.601 241.762 -3.938 226.648 C-3.809 223.695 -3.692 220.741 -3.583 217.787 C-3.451 214.175 -3.3 210.563 -3.136 206.952 C-3.077 205.589 -3.024 204.225 -2.979 202.862 C-2.913 200.965 -2.822 199.069 -2.729 197.173 C-2.685 196.098 -2.641 195.024 -2.595 193.917 C-1.865 190.338 -0.509 188.614 2 186 C4.508 184.637 4.508 184.637 7.125 183.688 C7.994 183.361 8.863 183.035 9.758 182.699 C12 182 12 182 14 182 C14 181.34 14 180.68 14 180 C13.34 179.814 12.68 179.629 12 179.438 C6.415 176.761 2.083 173.727 -0.262 167.824 C-0.901 165.593 -1.489 163.346 -2.016 161.086 C-3.109 157.66 -4.743 155.757 -7 153 C-7.629 148.049 -7.554 146.032 -5.188 141.625 C-2.5 138.4 -0.747 137.175 3.352 136.215 C7.716 134.762 9.383 133.017 12.375 129.562 C13.073 128.77 13.073 128.77 13.786 127.961 C17.657 123.529 21.333 118.934 24.93 114.277 C28.832 109.985 33.329 108.419 38.812 106.812 C39.974 106.468 41.135 106.124 42.332 105.77 C43.212 105.516 44.093 105.262 45 105 C26.919 107.714 8.853 110.514 -9.188 113.484 C-9.844 113.593 -10.501 113.701 -11.178 113.812 C-18.394 115 -25.608 116.195 -32.821 117.396 C-46.655 119.69 -60.491 121.849 -74.386 123.738 C-75.489 123.89 -76.592 124.042 -77.728 124.199 C-78.701 124.33 -79.673 124.461 -80.676 124.597 C-83.016 124.888 -83.016 124.888 -85 126 C-84.385 126.266 -83.77 126.531 -83.137 126.805 C-82.328 127.158 -81.52 127.511 -80.688 127.875 C-79.887 128.223 -79.086 128.571 -78.262 128.93 C-76 130 -76 130 -73 132 C-72.471 134.44 -72.136 136.685 -71.902 139.156 C-71.783 140.245 -71.783 140.245 -71.662 141.356 C-71.406 143.736 -71.17 146.118 -70.938 148.5 C-70.77 150.144 -70.602 151.787 -70.434 153.431 C-70.099 156.734 -69.774 160.038 -69.457 163.342 C-69.062 167.424 -68.616 171.499 -68.16 175.574 C-67.938 177.778 -67.717 179.983 -67.5 182.188 C-67.386 183.144 -67.273 184.1 -67.156 185.086 C-66.702 190.231 -66.997 194.316 -68.515 199.274 C-72.551 212.794 -70.329 226.64 -68.957 240.445 C-68.609 244.01 -68.292 247.578 -67.973 251.146 C-67.345 258.101 -66.684 265.051 -66 272 C-67.667 272 -69.333 272 -71 272 C-72.326 261.836 -73.5 251.671 -74.433 241.463 C-74.626 239.368 -74.828 237.274 -75.031 235.18 C-77.265 211.405 -77.265 211.405 -73.656 200.109 C-71.999 192.258 -73.171 184.064 -74.094 176.172 C-74.205 175.179 -74.316 174.187 -74.43 173.164 C-74.782 170.025 -75.14 166.888 -75.5 163.75 C-75.859 160.598 -76.216 157.446 -76.57 154.293 C-76.789 152.341 -77.012 150.388 -77.238 148.437 C-77.746 143.931 -78.132 139.544 -78 135 C-78.699 134.795 -79.397 134.59 -80.117 134.379 C-81.027 134.109 -81.937 133.84 -82.875 133.562 C-83.78 133.296 -84.685 133.029 -85.617 132.754 C-88 132 -88 132 -90 131 C-89.67 131.99 -89.34 132.98 -89 134 C-88.776 135.631 -88.591 137.268 -88.431 138.907 C-88.33 139.919 -88.229 140.932 -88.125 141.974 C-88.018 143.084 -87.911 144.194 -87.801 145.337 C-87.685 146.506 -87.57 147.676 -87.451 148.88 C-87.134 152.089 -86.821 155.298 -86.508 158.507 C-86.181 161.869 -85.849 165.23 -85.517 168.591 C-84.889 174.964 -84.264 181.338 -83.64 187.712 C-82.524 199.112 -81.405 210.511 -80.282 221.91 C-79.953 225.254 -79.624 228.599 -79.298 231.943 C-78.933 235.677 -78.566 239.411 -78.199 243.146 C-78.092 244.247 -77.985 245.349 -77.875 246.484 C-77.46 250.688 -77.046 254.881 -76.431 259.061 C-76.014 261.903 -75.898 264.569 -75.938 267.438 C-75.947 268.302 -75.956 269.167 -75.965 270.059 C-75.976 270.699 -75.988 271.34 -76 272 C-76.66 272 -77.32 272 -78 272 C-83.848 217.035 -83.848 217.035 -86.428 190.19 C-87.663 177.337 -88.983 164.496 -90.387 151.66 C-92.981 127.861 -92.981 127.861 -90.188 122.562 C-89.105 121.294 -89.105 121.294 -88 120 C-87.37 119.244 -87.37 119.244 -86.728 118.472 C-84.386 116.477 -82.086 115.816 -79.16 114.879 C-77.442 114.311 -77.442 114.311 -75.689 113.732 C-73.276 112.954 -70.862 112.178 -68.447 111.404 C-67.301 111.025 -66.154 110.645 -64.973 110.254 C-63.923 109.917 -62.874 109.58 -61.793 109.233 C-56.882 107.065 -54.552 103.593 -52 99 C-52.706 99.254 -53.413 99.508 -54.141 99.77 C-71.818 105.699 -89.484 106.491 -108 106 C-108 105.34 -108 104.68 -108 104 C-106.794 103.941 -106.794 103.941 -105.563 103.88 C-68.303 102.365 -68.303 102.365 -35 87 C-31.717 83.157 -30.344 80.05 -30 75 C-30.33 74.34 -30.66 73.68 -31 73 C-31.958 73.519 -32.916 74.039 -33.902 74.574 C-43.663 79.74 -53.249 83.479 -64 86 C-65.031 86.246 -65.031 86.246 -66.083 86.496 C-79.941 89.649 -93.861 89.32 -108 89 C-108 88.34 -108 87.68 -108 87 C-107.358 86.991 -106.716 86.981 -106.054 86.972 C-78.463 86.472 -45.466 83.76 -24 64 C-24 63.01 -24 62.02 -24 61 C-26.195 60.329 -28.391 59.659 -30.586 58.988 C-31.269 58.78 -31.952 58.571 -32.656 58.356 C-36.436 57.202 -40.219 56.058 -44.006 54.928 C-45.534 54.472 -47.062 54.015 -48.59 53.559 C-49.34 53.334 -50.091 53.11 -50.864 52.879 C-54.615 51.749 -58.324 50.569 -62.004 49.223 C-76.947 43.963 -93.385 45.563 -109 46 C-108.67 45.34 -108.34 44.68 -108 44 C-87.742 39.436 -69.473 42.761 -50.258 49.528 C-40.683 52.873 -30.924 55.605 -21.183 58.418 C-15.708 60.002 -10.24 61.609 -4.773 63.219 C-3.702 63.534 -2.63 63.85 -1.527 64.175 C33.882 74.627 33.882 74.627 50 80 C49.361 79.381 48.721 78.763 48.062 78.125 C45.582 75.651 43.26 73.06 40.938 70.438 C36.75 65.734 32.348 61.298 27.81 56.935 C26.504 55.66 25.247 54.334 24 53 C24 52.34 24 51.68 24 51 C23.01 50.67 22.02 50.34 21 50 C19.634 48.36 18.305 46.689 17 45 C16.23 44.252 15.461 43.505 14.668 42.734 C12 40 12 40 9.73 36.781 C6.997 33.077 4.186 30.047 0 28 C-3.649 27.649 -7.02 28.254 -10.613 28.895 C-11.654 29.052 -12.694 29.21 -13.767 29.372 C-16.013 29.714 -18.257 30.069 -20.499 30.435 C-26.432 31.392 -32.385 32.206 -38.336 33.043 C-40.828 33.397 -43.32 33.752 -45.812 34.107 C-47.059 34.285 -48.306 34.462 -49.59 34.644 C-52.111 35.006 -54.63 35.374 -57.149 35.747 C-74.55 38.316 -91.407 39.555 -109 39 C-109 38.67 -109 38.34 -109 38 C-107.908 37.945 -107.908 37.945 -106.794 37.889 C-86.589 36.822 -66.716 34.604 -46.695 31.749 C-42.972 31.221 -39.248 30.706 -35.523 30.189 C-22.626 28.45 -22.626 28.45 -9.768 26.449 C-7.159 26.026 -4.763 25.898 -2.125 25.938 C-0.953 25.951 -0.953 25.951 0.242 25.965 C0.822 25.976 1.402 25.988 2 26 C2 26.66 2 27.32 2 28 C3.485 28.495 3.485 28.495 5 29 C6.525 30.549 6.525 30.549 8.156 32.531 C12.038 37.106 16.221 41.298 20.5 45.5 C25.343 50.256 30.005 55.067 34.435 60.212 C36.517 62.59 38.734 64.798 41 67 C43.276 69.224 45.545 71.455 47.812 73.688 C48.41 74.268 49.007 74.849 49.623 75.447 C51.12 76.927 52.565 78.46 54 80 C54 80.66 54 81.32 54 82 C51.36 82 48.72 82 46 82 C46.791 84 46.791 84 48 86 C48.99 86.33 49.98 86.66 51 87 C51 87.66 51 88.32 51 89 C59.58 87.68 68.16 86.36 77 85 C74.458 79.917 73.746 78.551 69.66 75.398 C67.119 73.258 65.09 70.724 62.945 68.195 C60.041 64.918 56.883 61.912 53.723 58.883 C52 57 52 57 52 55 C51.34 55 50.68 55 50 55 C48.596 53.575 48.596 53.575 46.949 51.578 C42.812 46.714 38.35 42.239 33.812 37.75 C33.019 36.961 32.226 36.172 31.408 35.359 C29.938 33.898 28.468 32.438 26.995 30.979 C26.337 30.326 25.678 29.673 25 29 C24.256 28.298 23.512 27.596 22.745 26.872 C21 25 21 25 21 23 C20.34 23 19.68 23 19 23 C17.59 21.566 17.59 21.566 15.938 19.562 C12.429 15.41 8.645 11.642 4.723 7.883 C3 6 3 6 3 4 C2.01 3.67 1.02 3.34 0 3 C0 2.01 0 1.02 0 0 Z " fill="#010101" transform="translate(116,5)"/>
<path d="M0 0 C1.386 0.329 2.772 0.657 4.158 0.984 C7.503 1.776 10.845 2.574 14.188 3.375 C11.736 5.009 9.447 6.28 6.812 7.562 C2.581 9.666 -1.628 11.806 -5.812 14 C-6.906 14.57 -7.999 15.14 -9.125 15.727 C-12.033 17.252 -12.033 17.252 -13.812 20.375 C-14.472 20.375 -15.132 20.375 -15.812 20.375 C-16.081 20.952 -16.349 21.53 -16.625 22.125 C-17.842 24.431 -19.116 26.396 -20.812 28.375 C-21.472 28.375 -22.132 28.375 -22.812 28.375 C-23.047 28.927 -23.282 29.478 -23.523 30.047 C-25.141 32.968 -27.177 35.171 -29.438 37.625 C-30.255 38.517 -31.072 39.409 -31.914 40.328 C-32.541 41.004 -33.167 41.679 -33.812 42.375 C-32.822 42.045 -31.833 41.715 -30.812 41.375 C-25.963 40.324 -23.182 39.79 -18.812 42.312 C-17.822 42.993 -16.832 43.674 -15.812 44.375 C-15.812 45.035 -15.812 45.695 -15.812 46.375 C-15.036 46.606 -14.26 46.836 -13.461 47.074 C-10.185 48.683 -9.699 49.823 -8.438 53.188 C-7.931 54.466 -7.931 54.466 -7.414 55.77 C-6.242 60.845 -8.248 65.06 -10.59 69.508 C-13.388 73.781 -16.791 75.141 -21.625 76.25 C-27.613 76.744 -33.607 75.364 -38.812 72.375 C-40.562 70.25 -40.562 70.25 -41.812 68.375 C-39.112 74.591 -36.699 78.741 -30.184 81.48 C-25.398 82.75 -20.913 82.435 -16.002 82.209 C-11.402 82.09 -8.553 82.373 -4.812 85.375 C-2.755 88.461 -2.337 90.112 -1.742 93.699 C-1.481 95.241 -1.481 95.241 -1.215 96.814 C-0.954 98.422 -0.954 98.422 -0.688 100.062 C-0.506 101.146 -0.324 102.229 -0.137 103.346 C0.311 106.021 0.752 108.697 1.188 111.375 C1.944 111.011 1.944 111.011 2.716 110.641 C4.996 109.548 7.279 108.461 9.562 107.375 C10.357 106.993 11.151 106.612 11.969 106.219 C12.729 105.858 13.49 105.497 14.273 105.125 C15.326 104.622 15.326 104.622 16.4 104.109 C18.188 103.375 18.188 103.375 20.188 103.375 C19.197 94.465 19.197 94.465 18.188 85.375 C21.188 83.375 21.188 83.375 24.812 83.625 C25.926 83.873 27.04 84.12 28.188 84.375 C29.852 87.703 29.006 91.372 28.75 95 C28.698 95.802 28.646 96.604 28.592 97.43 C28.462 99.412 28.325 101.393 28.188 103.375 C29.087 103.661 29.987 103.947 30.914 104.242 C33.614 105.177 36.033 106.192 38.562 107.5 C39.251 107.853 39.939 108.206 40.648 108.57 C41.156 108.836 41.664 109.101 42.188 109.375 C42.188 111.355 42.188 113.335 42.188 115.375 C43.198 115.519 44.209 115.664 45.25 115.812 C47.199 116.091 47.199 116.091 49.188 116.375 C50.301 116.457 51.415 116.54 52.562 116.625 C57.286 117.602 61.329 119.46 65.188 122.375 C66.512 124.418 66.512 124.418 67.188 126.375 C66.857 127.035 66.528 127.695 66.188 128.375 C67.054 128.643 67.92 128.911 68.812 129.188 C72.187 130.375 72.187 130.375 75.25 132.125 C76.219 132.537 77.189 132.95 78.188 133.375 C78.934 133.008 79.68 132.64 80.449 132.262 C83.188 131.375 83.188 131.375 86.484 132.535 C87.624 133.163 88.763 133.791 89.938 134.438 C91.087 135.047 92.237 135.657 93.422 136.285 C96.717 138.775 96.436 139.539 97.188 143.375 C99.92 145.504 99.92 145.504 103.25 147.188 C104.355 147.792 105.459 148.397 106.598 149.02 C107.452 149.467 108.307 149.914 109.188 150.375 C108.528 150.705 107.868 151.035 107.188 151.375 C104.67 150.221 102.303 148.862 99.891 147.504 C97.234 146.177 97.234 146.177 94.316 146.453 C90.166 146.35 87.341 144.643 83.875 142.562 C83.243 142.206 82.61 141.85 81.959 141.482 C77.32 138.773 77.32 138.773 76.188 135.375 C72.377 132.472 68.71 130.318 63.875 130.5 C57.854 130.296 52.949 126.93 48.188 123.375 C47.843 122.679 47.499 121.983 47.145 121.266 C46.282 119.191 46.282 119.191 44.059 117.895 C39.7 117.106 37.017 118.974 33.25 121.062 C32.56 121.428 31.869 121.793 31.158 122.17 C28.06 123.811 24.989 125.487 21.934 127.207 C18.821 128.531 18.267 128.419 15.188 127.375 C13.647 126.652 12.127 125.883 10.625 125.082 C9.745 124.616 8.864 124.15 7.957 123.67 C7.043 123.181 6.129 122.692 5.188 122.188 C-2.425 118.137 -10.084 114.201 -17.812 110.375 C-17.86 110.938 -17.908 111.501 -17.958 112.081 C-18.458 117.954 -18.961 123.826 -19.467 129.699 C-19.655 131.889 -19.842 134.079 -20.028 136.269 C-20.296 139.422 -20.568 142.574 -20.84 145.727 C-20.963 147.189 -20.963 147.189 -21.089 148.682 C-21.49 153.289 -21.956 157.824 -22.812 162.375 C-23.472 162.375 -24.132 162.375 -24.812 162.375 C-24.142 148.237 -22.995 134.16 -21.75 120.062 C-21.47 116.883 -21.191 113.702 -20.914 110.522 C-20.744 108.563 -20.571 106.604 -20.397 104.646 C-20.32 103.763 -20.243 102.881 -20.164 101.971 C-20.096 101.202 -20.028 100.432 -19.958 99.639 C-19.802 97.212 -19.788 94.807 -19.812 92.375 C-20.332 92.652 -20.851 92.929 -21.387 93.215 C-22.084 93.577 -22.781 93.939 -23.5 94.312 C-24.527 94.852 -24.527 94.852 -25.574 95.402 C-38.043 100.821 -57.218 98.601 -69.887 94.598 C-73.758 92.98 -76.664 91.139 -79.812 88.375 C-80.821 96.118 -80.821 96.118 -78.57 103.246 C-76.703 104.627 -74.971 105.515 -72.812 106.375 C-72.056 106.677 -71.299 106.978 -70.52 107.289 C-65.001 109.267 -59.595 110.44 -53.73 110.691 C-52.799 110.733 -51.868 110.775 -50.908 110.818 C-49.948 110.858 -48.989 110.897 -48 110.938 C-46.531 111.002 -46.531 111.002 -45.033 111.068 C-42.626 111.174 -40.22 111.276 -37.812 111.375 C-37.812 114.375 -37.812 114.375 -39.875 116.625 C-40.851 117.545 -41.83 118.461 -42.812 119.375 C-44.047 120.578 -45.276 121.786 -46.5 123 C-47.081 123.57 -47.663 124.14 -48.262 124.727 C-50.015 126.499 -50.015 126.499 -51.812 129.375 C-52.472 129.375 -53.132 129.375 -53.812 129.375 C-54.066 129.958 -54.32 130.54 -54.582 131.141 C-55.946 133.617 -57.455 135.18 -59.5 137.125 C-62.293 139.837 -64.918 142.594 -67.438 145.562 C-70.314 148.916 -73.332 151.659 -76.812 154.375 C-77.463 153.128 -78.108 151.877 -78.75 150.625 C-79.11 149.929 -79.469 149.233 -79.84 148.516 C-80.812 146.375 -80.812 146.375 -81.812 142.375 C-82.472 148.645 -83.132 154.915 -83.812 161.375 C-84.472 161.375 -85.132 161.375 -85.812 161.375 C-86.072 146.243 -85.414 131.137 -84.75 116.023 C-84.622 113.07 -84.504 110.116 -84.396 107.162 C-84.264 103.55 -84.113 99.938 -83.949 96.327 C-83.89 94.964 -83.837 93.6 -83.791 92.237 C-83.726 90.34 -83.634 88.444 -83.542 86.548 C-83.498 85.473 -83.453 84.399 -83.407 83.292 C-82.678 79.713 -81.321 77.989 -78.812 75.375 C-76.305 74.012 -76.305 74.012 -73.688 73.062 C-72.819 72.736 -71.95 72.41 -71.055 72.074 C-68.812 71.375 -68.812 71.375 -66.812 71.375 C-66.812 70.715 -66.812 70.055 -66.812 69.375 C-67.803 69.097 -67.803 69.097 -68.812 68.812 C-74.398 66.136 -78.729 63.102 -81.074 57.199 C-81.713 54.968 -82.302 52.721 -82.828 50.461 C-83.921 47.035 -85.556 45.132 -87.812 42.375 C-88.441 37.424 -88.366 35.407 -86 31 C-83.312 27.775 -81.56 26.55 -77.461 25.59 C-73.097 24.137 -71.429 22.392 -68.438 18.938 C-67.972 18.409 -67.506 17.881 -67.027 17.336 C-63.156 12.904 -59.48 8.309 -55.883 3.652 C-51.578 -1.083 -45.911 -3.129 -39.812 -4.625 C-37.48 -4.701 -35.144 -4.716 -32.812 -4.625 C-32.206 -4.802 -31.599 -4.979 -30.973 -5.162 C-21.537 -7.185 -9.348 -2.243 0 0 Z " fill="#101010" transform="translate(196.8125,115.625)"/>
<path d="M0 0 C0.27 7.759 0.5 15.518 0.702 23.279 C0.775 25.919 0.858 28.56 0.95 31.2 C1.08 34.992 1.178 38.784 1.27 42.578 C1.317 43.761 1.365 44.943 1.414 46.161 C1.565 54.314 1.565 54.314 -1.198 57.668 C-9.415 61.574 -17.484 62.485 -26.5 62.375 C-27.455 62.387 -28.41 62.398 -29.395 62.41 C-36.311 62.382 -44.882 62.101 -50.622 57.778 C-52.525 55.323 -52.362 53.697 -52.341 50.611 C-52.34 49.51 -52.34 48.409 -52.34 47.274 C-52.324 46.087 -52.309 44.899 -52.293 43.676 C-52.289 42.459 -52.284 41.243 -52.28 39.989 C-52.263 36.097 -52.226 32.205 -52.188 28.312 C-52.172 25.676 -52.159 23.04 -52.146 20.404 C-52.113 13.936 -52.063 7.468 -52 1 C-51.456 1.209 -50.912 1.418 -50.351 1.633 C-49.634 1.905 -48.918 2.177 -48.179 2.458 C-47.47 2.729 -46.761 2.999 -46.03 3.278 C-34.113 7.516 -16.652 6.357 -5 2 C-0.922 0 -0.922 0 0 0 Z " fill="#FFFFFF" transform="translate(247,47)"/>
<path d="M0 0 C8.918 1.474 17.451 4.139 26.062 6.812 C29.011 7.727 31.96 8.64 34.91 9.551 C35.622 9.771 36.335 9.991 37.068 10.218 C40.898 11.391 44.726 12.476 48.621 13.418 C58.017 15.711 63.451 18.858 69 27 C65.895 29.07 64.291 29.462 60.677 30.037 C59.045 30.303 59.045 30.303 57.379 30.573 C56.2 30.757 55.022 30.94 53.809 31.129 C52.594 31.323 51.379 31.518 50.127 31.718 C46.891 32.235 43.655 32.744 40.417 33.251 C37.157 33.764 33.898 34.288 30.639 34.811 C28.133 35.209 25.627 35.607 23.121 36.004 C21.375 36.282 21.375 36.282 19.594 36.566 C16.399 37.065 13.202 37.543 10 38 C9.044 38.137 8.088 38.275 7.103 38.416 C5.78 38.581 5.78 38.581 4.43 38.75 C3.667 38.848 2.903 38.946 2.117 39.047 C-0.405 38.991 -1.784 38.152 -4 37 C-11.245 37 -17.47 39.421 -24.147 42.004 C-29.693 44.102 -29.693 44.102 -33 43 C-31.431 38.45 -30.415 35.867 -26.238 33.309 C-24.118 32.31 -21.989 31.331 -19.852 30.371 C-16.304 28.665 -14.467 27.024 -12 24 C-11.422 23.422 -10.845 22.845 -10.25 22.25 C-8.598 19.277 -8.453 16.58 -8.211 13.219 C-7.788 8.772 -7.519 7.454 -4 4.375 C-3.01 3.591 -2.02 2.808 -1 2 C-0.67 1.34 -0.34 0.68 0 0 Z " fill="#FFFFFF" transform="translate(96,67)"/>
<path d="M0 0 C1.172 0.014 1.172 0.014 2.367 0.027 C2.947 0.039 3.527 0.051 4.125 0.062 C4.125 0.723 4.125 1.383 4.125 2.062 C5.115 2.392 6.105 2.722 7.125 3.062 C8.65 4.611 8.65 4.611 10.281 6.594 C14.163 11.169 18.346 15.36 22.625 19.562 C27.468 24.318 32.13 29.13 36.56 34.274 C38.642 36.653 40.859 38.86 43.125 41.062 C45.401 43.287 47.67 45.518 49.938 47.75 C50.834 48.621 50.834 48.621 51.748 49.51 C53.245 50.99 54.69 52.522 56.125 54.062 C56.125 54.722 56.125 55.382 56.125 56.062 C53.485 56.062 50.845 56.062 48.125 56.062 C48.916 58.062 48.916 58.062 50.125 60.062 C51.115 60.392 52.105 60.722 53.125 61.062 C53.125 61.722 53.125 62.382 53.125 63.062 C57.415 62.733 61.705 62.403 66.125 62.062 C66.125 62.722 66.125 63.382 66.125 64.062 C64.824 64.273 63.523 64.484 62.182 64.702 C56.059 65.695 49.936 66.691 43.812 67.688 C42.707 67.867 41.602 68.047 40.463 68.232 C29.052 70.089 17.644 71.953 6.254 73.93 C5.033 74.141 5.033 74.141 3.788 74.357 C0.033 75.009 -3.721 75.668 -7.474 76.334 C-8.8 76.567 -10.127 76.799 -11.453 77.031 C-12.581 77.232 -13.71 77.432 -14.872 77.639 C-17.593 78.023 -20.133 78.147 -22.875 78.062 C-22.875 77.073 -22.875 76.082 -22.875 75.062 C-28.582 75.664 -33.572 77.172 -38.957 79.117 C-39.811 79.419 -40.665 79.722 -41.546 80.033 C-44.262 80.995 -46.975 81.966 -49.688 82.938 C-52.39 83.901 -55.093 84.862 -57.797 85.821 C-59.474 86.415 -61.149 87.013 -62.823 87.614 C-67.75 89.368 -72.698 90.929 -77.734 92.346 C-82.293 93.872 -84.391 96.195 -86.688 100.312 C-87.079 101.22 -87.471 102.127 -87.875 103.062 C-87.26 103.244 -86.645 103.426 -86.012 103.613 C-85.203 103.865 -84.395 104.116 -83.562 104.375 C-82.762 104.619 -81.961 104.862 -81.137 105.113 C-78.775 106.104 -77.536 107.143 -75.875 109.062 C-77.501 108.586 -79.126 108.106 -80.75 107.625 C-81.655 107.358 -82.56 107.091 -83.492 106.816 C-85.875 106.062 -85.875 106.062 -87.875 105.062 C-87.545 106.053 -87.215 107.043 -86.875 108.062 C-86.651 109.694 -86.466 111.331 -86.306 112.97 C-86.205 113.982 -86.104 114.994 -86 116.037 C-85.893 117.146 -85.786 118.256 -85.676 119.399 C-85.56 120.569 -85.445 121.738 -85.326 122.943 C-85.009 126.152 -84.696 129.361 -84.383 132.57 C-84.056 135.931 -83.724 139.292 -83.392 142.654 C-82.764 149.027 -82.139 155.4 -81.515 161.774 C-80.399 173.174 -79.28 184.574 -78.157 195.973 C-77.828 199.317 -77.499 202.661 -77.173 206.005 C-76.808 209.74 -76.441 213.474 -76.074 217.208 C-75.967 218.31 -75.86 219.411 -75.75 220.546 C-75.335 224.75 -74.921 228.944 -74.306 233.124 C-73.889 235.965 -73.773 238.632 -73.812 241.5 C-73.822 242.365 -73.831 243.23 -73.84 244.121 C-73.851 244.762 -73.863 245.402 -73.875 246.062 C-74.535 246.062 -75.195 246.062 -75.875 246.062 C-81.723 191.097 -81.723 191.097 -84.303 164.252 C-85.538 151.399 -86.858 138.559 -88.262 125.723 C-90.856 101.924 -90.856 101.924 -88.062 96.625 C-86.98 95.357 -86.98 95.357 -85.875 94.062 C-85.245 93.306 -85.245 93.306 -84.603 92.535 C-82.261 90.54 -79.961 89.879 -77.035 88.941 C-75.317 88.374 -75.317 88.374 -73.564 87.795 C-71.151 87.016 -68.737 86.24 -66.322 85.467 C-65.176 85.087 -64.029 84.708 -62.848 84.316 C-61.798 83.979 -60.749 83.642 -59.668 83.295 C-54.757 81.128 -52.427 77.656 -49.875 73.062 C-50.581 73.316 -51.288 73.57 -52.016 73.832 C-69.693 79.762 -87.359 80.554 -105.875 80.062 C-105.875 79.403 -105.875 78.743 -105.875 78.062 C-104.669 78.003 -104.669 78.003 -103.438 77.942 C-66.178 76.428 -66.178 76.428 -32.875 61.062 C-29.592 57.219 -28.219 54.113 -27.875 49.062 C-28.205 48.403 -28.535 47.743 -28.875 47.062 C-29.833 47.582 -30.791 48.101 -31.777 48.637 C-41.538 53.802 -51.124 57.541 -61.875 60.062 C-62.906 60.308 -62.906 60.308 -63.958 60.559 C-77.816 63.711 -91.736 63.383 -105.875 63.062 C-105.875 62.403 -105.875 61.743 -105.875 61.062 C-105.233 61.053 -104.591 61.044 -103.929 61.034 C-76.338 60.534 -43.341 57.822 -21.875 38.062 C-21.875 37.072 -21.875 36.083 -21.875 35.062 C-24.07 34.392 -26.266 33.721 -28.461 33.051 C-29.144 32.842 -29.827 32.633 -30.531 32.418 C-34.311 31.265 -38.094 30.12 -41.881 28.991 C-43.409 28.534 -44.937 28.078 -46.465 27.621 C-47.215 27.397 -47.966 27.173 -48.739 26.941 C-52.49 25.812 -56.199 24.631 -59.879 23.285 C-74.822 18.025 -91.26 19.626 -106.875 20.062 C-106.545 19.403 -106.215 18.742 -105.875 18.062 C-85.617 13.499 -67.348 16.824 -48.133 23.591 C-38.558 26.936 -28.799 29.668 -19.058 32.48 C-13.583 34.065 -8.115 35.671 -2.648 37.281 C-1.577 37.597 -0.505 37.912 0.598 38.237 C36.007 48.69 36.007 48.69 52.125 54.062 C51.486 53.444 50.846 52.825 50.188 52.188 C47.707 49.714 45.385 47.122 43.062 44.5 C38.875 39.796 34.473 35.361 29.935 30.998 C28.629 29.722 27.372 28.396 26.125 27.062 C26.125 26.403 26.125 25.742 26.125 25.062 C25.135 24.733 24.145 24.403 23.125 24.062 C21.759 22.423 20.43 20.751 19.125 19.062 C18.355 18.315 17.586 17.567 16.793 16.797 C14.125 14.062 14.125 14.062 11.855 10.844 C9.122 7.139 6.311 4.11 2.125 2.062 C-1.524 1.711 -4.895 2.317 -8.488 2.957 C-9.529 3.115 -10.569 3.272 -11.642 3.435 C-13.888 3.777 -16.132 4.131 -18.374 4.498 C-24.307 5.455 -30.26 6.269 -36.211 7.105 C-38.703 7.46 -41.195 7.815 -43.688 8.17 C-44.934 8.347 -46.181 8.524 -47.465 8.707 C-49.986 9.069 -52.505 9.436 -55.024 9.809 C-72.425 12.379 -89.282 13.618 -106.875 13.062 C-106.875 12.733 -106.875 12.403 -106.875 12.062 C-106.147 12.026 -105.419 11.989 -104.669 11.951 C-84.464 10.885 -64.591 8.666 -44.57 5.811 C-40.847 5.283 -37.123 4.768 -33.398 4.252 C-20.501 2.513 -20.501 2.513 -7.643 0.512 C-5.034 0.088 -2.638 -0.04 0 0 Z M-17.875 36.062 C-19.151 37.529 -20.424 39.002 -21.594 40.555 C-22.875 42.062 -22.875 42.062 -25.875 44.062 C-26.126 46.072 -26.126 46.072 -25.875 48.312 C-25.701 54.023 -27.353 57.28 -31.062 61.625 C-35.366 65.355 -39.887 68.275 -45.188 70.375 C-49.164 72.872 -49.566 75.628 -50.875 80.062 C-44.934 79.32 -39.702 77.278 -34.152 75.146 C-29.926 73.585 -26.451 72.543 -21.875 73.062 C-21.25 73.404 -20.626 73.746 -19.982 74.097 C-17.477 75.245 -16.158 75.161 -13.445 74.812 C-12.122 74.647 -12.122 74.647 -10.772 74.478 C-9.338 74.273 -9.338 74.273 -7.875 74.062 C-6.875 73.92 -5.874 73.777 -4.844 73.63 C-1.477 73.129 1.885 72.602 5.246 72.066 C7.079 71.776 7.079 71.776 8.948 71.48 C11.513 71.072 14.077 70.663 16.64 70.252 C19.267 69.832 21.894 69.415 24.522 69.004 C28.327 68.407 32.131 67.8 35.934 67.191 C37.112 67.008 38.29 66.825 39.504 66.636 C41.137 66.37 41.137 66.37 42.802 66.1 C43.761 65.947 44.719 65.795 45.706 65.638 C48.365 65.153 48.365 65.153 51.125 63.062 C44.656 54.217 38.74 51.073 28.25 48.438 C26.935 48.08 25.621 47.72 24.307 47.356 C21.605 46.61 18.9 45.881 16.19 45.164 C12.19 44.094 8.224 42.925 4.262 41.723 C3.029 41.349 1.795 40.975 0.525 40.59 C-0.659 40.231 -1.843 39.871 -3.062 39.5 C-5.284 38.827 -7.506 38.159 -9.73 37.496 C-10.655 37.218 -11.579 36.94 -12.532 36.654 C-14.957 35.94 -14.957 35.94 -17.875 36.062 Z " fill="#000000" transform="translate(113.875,30.9375)"/>
<path d="M0 0 C0.77 0.334 1.54 0.668 2.334 1.012 C4.208 1.827 6.074 2.661 7.938 3.5 C7.938 4.49 7.938 5.48 7.938 6.5 C7.278 6.5 6.618 6.5 5.938 6.5 C5.677 7.075 5.417 7.65 5.148 8.242 C3.851 10.662 2.333 12.53 0.562 14.625 C-4.794 21.458 -7.75 28.255 -7.402 37.027 C-6.849 41.053 -5.586 44.746 -4.062 48.5 C-29.018 39.403 -29.018 39.403 -34.062 31.5 C-36.88 25.401 -37.232 19.249 -35.223 12.809 C-32.014 5.733 -27.279 0.986 -20.625 -2.938 C-12.998 -4.612 -6.988 -3.172 0 0 Z " fill="#FFFFFF" transform="translate(157.0625,142.5)"/>
<path d="M0 0 C-0.58 0.216 -1.159 0.432 -1.757 0.655 C-4.406 1.652 -7.046 2.669 -9.688 3.688 C-10.6 4.027 -11.512 4.367 -12.451 4.717 C-13.337 5.062 -14.224 5.406 -15.137 5.762 C-15.948 6.071 -16.76 6.38 -17.596 6.698 C-20.189 7.925 -20.189 7.925 -22.224 10.51 C-26.014 13.909 -29.348 14.307 -34.277 15.07 C-35.197 15.229 -36.117 15.387 -37.064 15.55 C-40.04 16.055 -43.019 16.53 -46 17 C-47.972 17.321 -49.943 17.642 -51.915 17.964 C-57.048 18.792 -62.186 19.59 -67.326 20.378 C-72.906 21.235 -78.484 22.104 -84.062 22.973 C-85.722 23.231 -85.722 23.231 -87.415 23.494 C-100.012 25.461 -112.588 27.556 -125.16 29.676 C-126.421 29.888 -127.682 30.1 -128.981 30.319 C-131.926 30.816 -134.869 31.323 -137.812 31.833 C-139.436 32.112 -141.06 32.39 -142.684 32.668 C-143.439 32.801 -144.194 32.933 -144.972 33.07 C-148.687 33.702 -152.229 34.159 -156 34 C-153.87 31.87 -152.775 31.437 -149.969 30.535 C-149.137 30.265 -148.305 29.994 -147.448 29.716 C-146.546 29.429 -145.644 29.143 -144.715 28.848 C-143.785 28.547 -142.854 28.246 -141.896 27.936 C-138.912 26.973 -135.925 26.017 -132.938 25.062 C-130.951 24.423 -128.965 23.783 -126.979 23.143 C-124.161 22.234 -121.343 21.326 -118.524 20.423 C-113.003 18.654 -107.496 16.846 -102 15 C-112.1 17.686 -122.037 20.782 -131.982 23.988 C-133.963 24.624 -135.946 25.256 -137.931 25.882 C-140.821 26.793 -143.706 27.721 -146.59 28.652 C-147.475 28.929 -148.361 29.205 -149.273 29.489 C-153.706 30.942 -157.149 32.08 -160 36 C-160.335 38.668 -160.335 38.668 -160 41 C-161.32 40.67 -162.64 40.34 -164 40 C-162.998 35.689 -161.637 33.064 -158.15 30.296 C-153.217 27.322 -147.531 25.896 -142.062 24.188 C-140.044 23.542 -138.027 22.893 -136.009 22.242 C-134.651 21.804 -133.291 21.368 -131.932 20.933 C-127.629 19.551 -123.369 18.083 -119.121 16.539 C-118.081 16.162 -117.042 15.786 -115.97 15.398 C-114.038 14.692 -112.109 13.976 -110.184 13.249 C-105.392 11.516 -102.079 10.488 -97 12 C-97.66 12.33 -98.32 12.66 -99 13 C-99 13.66 -99 14.32 -99 15 C-98.255 14.873 -97.509 14.747 -96.741 14.616 C-89.555 13.395 -82.368 12.175 -75.181 10.956 C-71.491 10.331 -67.8 9.704 -64.11 9.077 C-55.522 7.617 -46.933 6.166 -38.342 4.728 C-35.398 4.235 -32.453 3.739 -29.509 3.241 C-25.874 2.626 -22.237 2.019 -18.599 1.417 C-17.234 1.19 -15.868 0.961 -14.504 0.729 C-12.625 0.41 -10.744 0.1 -8.864 -0.208 C-7.8 -0.386 -6.736 -0.564 -5.64 -0.747 C-3 -1 -3 -1 0 0 Z " fill="#FFFFFF" transform="translate(190,94)"/>
<path d="M0 0 C0 0.66 0 1.32 0 2 C-1.572 2.597 -1.572 2.597 -3.176 3.207 C-4.555 3.742 -5.934 4.277 -7.312 4.812 C-8.003 5.074 -8.693 5.335 -9.404 5.604 C-14.262 7.497 -14.262 7.497 -18 11 C-3.431 15.051 11.294 18.487 26 22 C26 22.99 26 23.98 26 25 C24.046 25.864 22.086 26.716 20.125 27.562 C19.034 28.038 17.944 28.514 16.82 29.004 C15.89 29.333 14.959 29.661 14 30 C13.34 29.67 12.68 29.34 12 29 C15.3 27.35 18.6 25.7 22 24 C17.014 22.61 12.013 21.286 7 20 C6.106 19.77 5.212 19.54 4.292 19.304 C1.428 18.579 -1.441 17.88 -4.312 17.188 C-5.671 16.841 -5.671 16.841 -7.057 16.488 C-13.317 15.012 -18.656 14.965 -25 16 C-24.67 15.34 -24.34 14.68 -24 14 C-36.548 15.575 -49.031 17.456 -61.5 19.562 C-77.792 22.312 -94.096 24.989 -110.406 27.629 C-113.205 28.082 -116.004 28.537 -118.802 28.993 C-122.776 29.641 -126.751 30.283 -130.727 30.926 C-132.512 31.218 -132.512 31.218 -134.334 31.515 C-140.877 32.567 -147.396 33.44 -154 34 C-154 34.66 -154 35.32 -154 36 C-153.301 36.208 -152.603 36.415 -151.883 36.629 C-150.973 36.937 -150.063 37.245 -149.125 37.562 C-147.768 37.998 -147.768 37.998 -146.383 38.441 C-143.569 40.282 -143.258 41.602 -142.444 44.772 C-141.524 49.387 -141.121 54.062 -140.676 58.742 C-140.565 59.865 -140.455 60.988 -140.341 62.145 C-140.11 64.513 -139.882 66.882 -139.658 69.25 C-139.314 72.857 -138.954 76.462 -138.592 80.066 C-138.369 82.375 -138.147 84.683 -137.926 86.992 C-137.818 88.061 -137.709 89.13 -137.598 90.232 C-136.825 98.626 -137.284 105.558 -139.613 113.655 C-141.458 120.767 -140.911 127.265 -140.199 134.516 C-140.081 135.866 -139.965 137.216 -139.85 138.567 C-139.547 142.08 -139.22 145.591 -138.888 149.101 C-138.552 152.7 -138.239 156.301 -137.924 159.902 C-137.305 166.937 -136.661 173.969 -136 181 C-137.667 181 -139.333 181 -141 181 C-142.326 170.836 -143.5 160.671 -144.433 150.463 C-144.626 148.368 -144.828 146.274 -145.031 144.18 C-147.265 120.405 -147.265 120.405 -143.656 109.109 C-141.879 100.687 -143.311 91.881 -144.312 83.43 C-144.512 81.686 -144.512 81.686 -144.716 79.908 C-145.139 76.23 -145.569 72.552 -146 68.875 C-146.29 66.367 -146.579 63.859 -146.867 61.352 C-147.572 55.234 -148.284 49.117 -149 43 C-150.129 42.564 -151.258 42.129 -152.422 41.68 C-156 40 -156 40 -157.25 37.125 C-156.976 33.699 -156.249 32.562 -153.782 30.249 C-149.961 27.571 -145.417 26.426 -141.004 25.047 C-139.404 24.528 -139.404 24.528 -137.773 23.999 C-135.523 23.273 -133.271 22.554 -131.017 21.842 C-127.574 20.753 -124.137 19.644 -120.701 18.531 C-118.511 17.827 -116.32 17.124 -114.129 16.422 C-113.104 16.093 -112.079 15.764 -111.022 15.424 C-106.365 13.956 -101.865 12.604 -97 12 C-99.368 14.755 -101.434 15.7 -104.883 16.762 C-105.874 17.072 -106.866 17.383 -107.887 17.703 C-108.956 18.028 -110.024 18.353 -111.125 18.688 C-113.376 19.389 -115.628 20.091 -117.879 20.793 C-119.044 21.153 -120.21 21.513 -121.411 21.884 C-127.307 23.717 -133.184 25.611 -139.062 27.5 C-141.178 28.177 -143.294 28.854 -145.41 29.531 C-146.298 29.815 -147.187 30.1 -148.102 30.393 C-148.728 30.593 -149.355 30.793 -150 31 C-131.951 28.532 -113.978 25.619 -96 22.688 C-90.695 21.823 -85.39 20.959 -80.085 20.096 C-78.591 19.853 -77.098 19.61 -75.605 19.366 C-66.576 17.895 -57.544 16.45 -48.504 15.051 C-45.959 14.653 -43.414 14.255 -40.868 13.857 C-39.348 13.622 -37.827 13.39 -36.305 13.162 C-34.266 12.857 -32.228 12.538 -30.191 12.219 C-29.1 12.053 -28.009 11.887 -26.885 11.717 C-22.793 10.7 -19.968 8.883 -16.875 6.062 C-12.082 2.624 -5.955 0 0 0 Z " fill="#3C3C3C" transform="translate(186,96)"/>
<path d="M0 0 C0.99 0.495 0.99 0.495 2 1 C2 1.66 2 2.32 2 3 C3.665 3.67 5.332 4.336 7 5 C7.819 5.33 8.637 5.66 9.48 6 C18.502 9.333 27.488 10.197 37 11 C31.756 17.264 26.205 23.235 20.649 29.221 C17.844 32.247 15.048 35.28 12.25 38.312 C11.234 39.413 10.219 40.513 9.203 41.613 C8.476 42.401 7.749 43.189 7 44 C1.663 39.749 0.819 31.44 0 25 C-0.459 16.674 -0.259 8.33 0 0 Z " fill="#FFFFFF" transform="translate(115,220)"/>
<path d="M0 0 C0.33 1.65 0.66 3.3 1 5 C7.93 6.98 14.86 8.96 22 11 C21.67 11.99 21.34 12.98 21 14 C20.34 14 19.68 14 19 14 C18.664 14.797 18.664 14.797 18.32 15.609 C16.552 18.811 14.24 21.481 11.875 24.25 C11.407 24.804 10.939 25.359 10.457 25.93 C9.308 27.289 8.155 28.645 7 30 C3.111 29.378 -0.072 28.184 -3.625 26.5 C-12.363 22.382 -19.816 21.805 -29 25 C-27.498 21.555 -25.476 19.13 -22.938 16.375 C-20.142 13.412 -20.142 13.412 -18 10 C-17.34 10 -16.68 10 -16 10 C-15.732 9.402 -15.464 8.804 -15.188 8.188 C-13.172 4.474 -10.956 2.729 -7 1.312 C-6.319 1.061 -5.639 0.81 -4.938 0.551 C-3 0 -3 0 0 0 Z " fill="#FFFFFF" transform="translate(161,115)"/>
<path d="M0 0 C0.495 0.99 0.495 0.99 1 2 C-0.111 2.387 -1.222 2.773 -2.367 3.172 C-3.87 3.698 -5.372 4.224 -6.875 4.75 C-7.602 5.003 -8.329 5.255 -9.078 5.516 C-12.961 6.878 -16.803 8.305 -20.617 9.852 C-26.773 12.34 -33.006 14.614 -39.242 16.892 C-41.261 17.629 -43.279 18.369 -45.297 19.109 C-55.534 22.858 -55.534 22.858 -59.339 24.021 C-62.139 24.749 -62.139 24.749 -63.375 27.125 C-63.581 27.744 -63.787 28.362 -64 29 C-63.01 29.33 -62.02 29.66 -61 30 C-59.203 31.969 -59.203 31.969 -57.25 34.5 C-56.541 35.411 -55.832 36.323 -55.102 37.262 C-54.408 38.165 -53.715 39.069 -53 40 C-51.875 41.438 -50.75 42.875 -49.625 44.312 C-49.069 45.032 -48.514 45.751 -47.941 46.492 C-46.416 48.463 -44.881 50.424 -43.34 52.383 C-42.414 53.568 -41.488 54.752 -40.562 55.938 C-40.113 56.506 -39.663 57.074 -39.2 57.659 C-36 61.774 -36 61.774 -36 64 C-35.34 64 -34.68 64 -34 64 C-32.108 66.339 -30.324 68.69 -28.562 71.125 C-27.473 72.605 -26.382 74.084 -25.289 75.562 C-24.738 76.31 -24.186 77.058 -23.618 77.828 C-21.278 80.969 -18.867 84.053 -16.438 87.125 C-15.764 87.978 -15.764 87.978 -15.076 88.848 C-14.171 89.993 -13.265 91.138 -12.359 92.282 C-10.065 95.182 -7.783 98.092 -5.5 101 C-4.583 102.167 -3.667 103.333 -2.75 104.5 C0 108 0 108 2.75 111.5 C3.204 112.077 3.657 112.654 4.124 113.249 C5.043 114.419 5.963 115.589 6.882 116.759 C9.135 119.627 11.388 122.494 13.645 125.359 C21.135 134.876 28.572 144.434 36 154 C35.67 154.66 35.34 155.32 35 156 C30.265 150.718 25.825 145.293 21.562 139.625 C17.244 133.917 12.871 128.288 8.293 122.785 C7 121 7 121 7 119 C6.34 119 5.68 119 5 119 C4.34 117.35 3.68 115.7 3 114 C2.34 114 1.68 114 1 114 C-0.488 112.156 -0.488 112.156 -2.312 109.5 C-5.763 104.63 -9.395 99.982 -13.188 95.375 C-18.346 89.09 -23.34 82.7 -28.258 76.225 C-31.695 71.701 -35.168 67.21 -38.688 62.75 C-46.944 52.281 -55.028 41.687 -63 31 C-62.859 33.292 -62.712 35.584 -62.562 37.875 C-62.441 39.789 -62.441 39.789 -62.316 41.742 C-62.208 44.883 -62.208 44.883 -61 47 C-60.917 48.448 -60.893 49.901 -60.902 51.352 C-60.906 52.202 -60.909 53.053 -60.912 53.93 C-60.92 54.819 -60.929 55.709 -60.938 56.625 C-60.942 57.522 -60.947 58.419 -60.951 59.344 C-60.963 61.563 -60.979 63.781 -61 66 C-61.66 65.67 -62.32 65.34 -63 65 C-63.33 59.06 -63.66 53.12 -64 47 C-68.605 45.547 -68.605 45.547 -71 47 C-71 53.27 -71 59.54 -71 66 C-71.66 66 -72.32 66 -73 66 C-73.128 52.627 -72.795 39.35 -72 26 C-71.67 26 -71.34 26 -71 26 C-71 31.94 -71 37.88 -71 44 C-69.02 44 -67.04 44 -65 44 C-65.031 43.16 -65.031 43.16 -65.063 42.303 C-65.147 39.765 -65.199 37.227 -65.25 34.688 C-65.3 33.366 -65.3 33.366 -65.352 32.018 C-65.364 31.17 -65.377 30.322 -65.391 29.449 C-65.412 28.669 -65.433 27.889 -65.454 27.085 C-64.811 24.134 -63.514 23.623 -61 22 C-59.009 21.148 -56.986 20.369 -54.946 19.64 C-53.725 19.2 -52.504 18.759 -51.246 18.306 C-49.92 17.835 -48.593 17.365 -47.266 16.895 C-45.903 16.406 -44.542 15.917 -43.18 15.428 C-39.605 14.144 -36.027 12.869 -32.448 11.596 C-28.793 10.293 -25.141 8.983 -21.488 7.674 C-14.328 5.108 -7.165 2.551 0 0 Z " fill="#000000" transform="translate(287,95)"/>
<path d="M0 0 C0 0.66 0 1.32 0 2 C-1.572 2.597 -1.572 2.597 -3.176 3.207 C-4.555 3.742 -5.934 4.277 -7.312 4.812 C-8.003 5.074 -8.693 5.335 -9.404 5.604 C-14.262 7.497 -14.262 7.497 -18 11 C-3.431 15.051 11.294 18.487 26 22 C26 22.99 26 23.98 26 25 C24.046 25.864 22.086 26.716 20.125 27.562 C19.034 28.038 17.944 28.514 16.82 29.004 C15.89 29.333 14.959 29.661 14 30 C13.34 29.67 12.68 29.34 12 29 C15.3 27.35 18.6 25.7 22 24 C17.014 22.61 12.013 21.286 7 20 C6.106 19.77 5.212 19.54 4.292 19.304 C1.428 18.579 -1.441 17.88 -4.312 17.188 C-5.671 16.841 -5.671 16.841 -7.057 16.488 C-13.317 15.012 -18.656 14.965 -25 16 C-24.67 15.34 -24.34 14.68 -24 14 C-36.548 15.575 -49.031 17.456 -61.5 19.562 C-77.792 22.312 -94.096 24.989 -110.406 27.629 C-113.205 28.082 -116.004 28.537 -118.802 28.993 C-122.776 29.641 -126.751 30.283 -130.727 30.926 C-132.512 31.218 -132.512 31.218 -134.334 31.515 C-140.216 32.461 -146.038 33.268 -151.986 33.659 C-154.309 33.912 -154.309 33.912 -157 36 C-156.106 32.691 -155.522 31.308 -152.519 29.537 C-148.195 27.649 -143.811 26.163 -139.324 24.715 C-138.4 24.413 -137.475 24.111 -136.522 23.8 C-134.572 23.165 -132.622 22.533 -130.67 21.902 C-127.706 20.943 -124.744 19.975 -121.783 19.006 C-119.88 18.387 -117.977 17.77 -116.074 17.152 C-115.199 16.866 -114.324 16.579 -113.422 16.284 C-107.991 14.537 -102.586 13.159 -97 12 C-99.512 14.661 -101.36 15.678 -104.883 16.762 C-105.874 17.072 -106.866 17.383 -107.887 17.703 C-108.956 18.028 -110.024 18.353 -111.125 18.688 C-113.376 19.389 -115.628 20.091 -117.879 20.793 C-119.044 21.153 -120.21 21.513 -121.411 21.884 C-127.307 23.717 -133.184 25.611 -139.062 27.5 C-141.178 28.177 -143.294 28.854 -145.41 29.531 C-146.298 29.815 -147.187 30.1 -148.102 30.393 C-148.728 30.593 -149.355 30.793 -150 31 C-131.951 28.532 -113.978 25.619 -96 22.688 C-90.695 21.823 -85.39 20.959 -80.085 20.096 C-78.591 19.853 -77.098 19.61 -75.605 19.366 C-66.576 17.895 -57.544 16.45 -48.504 15.051 C-45.959 14.653 -43.414 14.255 -40.868 13.857 C-39.348 13.622 -37.827 13.39 -36.305 13.162 C-34.266 12.857 -32.228 12.538 -30.191 12.219 C-29.1 12.053 -28.009 11.887 -26.885 11.717 C-22.793 10.7 -19.968 8.883 -16.875 6.062 C-12.082 2.624 -5.955 0 0 0 Z " fill="#000000" transform="translate(186,96)"/>
<path d="M0 0 C4.75 0.875 4.75 0.875 7 2 C7 1.34 7 0.68 7 0 C13.641 0.348 19.047 0.96 25 4 C25.66 4.33 26.32 4.66 27 5 C26.25 9.75 26.25 9.75 24 12 C23.01 11.67 22.02 11.34 21 11 C21.66 9.68 22.32 8.36 23 7 C22.01 6.01 21.02 5.02 20 4 C21 5 21 5 21 9 C11.326 14.912 -0.429 14.72 -11.238 12.551 C-14.166 11.793 -15.834 11.166 -18 9 C-17.879 6.984 -17.879 6.984 -17 5 C-11.762 1.928 -5.909 1.678 0 2 C0 1.34 0 0.68 0 0 Z " fill="#FFFFFF" transform="translate(219,36)"/>
<path d="M0 0 C-0.99 1.485 -0.99 1.485 -2 3 C-1.991 5.547 -1.991 5.547 -1 8 C6.598 14.572 16.5 14.572 26.047 14.297 C32.066 13.845 35.967 12.355 41 9 C43.688 9.375 43.688 9.375 46 10 C45 13 45 13 43.145 14.133 C38.763 15.997 34.787 17.509 30 18 C32.987 18 35.087 17.523 37.938 16.688 C38.792 16.444 39.647 16.2 40.527 15.949 C43.14 14.946 44.929 13.876 47 12 C47.33 11.01 47.66 10.02 48 9 C48.66 9 49.32 9 50 9 C49.492 12.757 48.896 14.551 46 17 C44.168 17.914 44.168 17.914 42.188 18.625 C41.542 18.865 40.896 19.105 40.23 19.352 C24.763 23.848 6.151 21.591 -8.012 14.379 C-10.267 12.815 -11.586 11.349 -13 9 C-12.688 6.25 -12.688 6.25 -12 4 C-10.794 6.332 -9.835 8.496 -9 11 C-8.963 8.081 -8.963 8.081 -9.188 5.5 C-9 3 -9 3 -7.688 1.25 C-4.772 -0.91 -3.457 -1.152 0 0 Z " fill="#FDFDFD" transform="translate(129,191)"/>
<path d="M0 0 C3.399 1.547 6.708 3.237 10 5 C10 5.99 10 6.98 10 8 C6.927 9.707 3.84 11.387 0.75 13.062 C-0.123 13.548 -0.995 14.033 -1.895 14.533 C-2.739 14.988 -3.583 15.442 -4.453 15.91 C-5.228 16.334 -6.003 16.759 -6.802 17.196 C-9.393 18.144 -10.454 17.964 -13 17 C-14.898 16.067 -16.773 15.084 -18.625 14.062 C-19.587 13.538 -20.548 13.013 -21.539 12.473 C-24 11 -24 11 -26 9 C-20.667 6.333 -15.333 3.667 -10 1 C-9.314 0.629 -8.628 0.257 -7.921 -0.125 C-4.899 -1.501 -3.194 -0.887 0 0 Z " fill="#FFFFFF" transform="translate(225,220)"/>
<path d="M0 0 C1.671 0.371 1.671 0.371 3.375 0.75 C5.039 4.078 4.194 7.747 3.938 11.375 C3.885 12.177 3.833 12.979 3.779 13.805 C3.65 15.787 3.513 17.768 3.375 19.75 C4.725 20.179 4.725 20.179 6.102 20.617 C8.802 21.552 11.221 22.567 13.75 23.875 C14.438 24.228 15.127 24.581 15.836 24.945 C16.344 25.211 16.852 25.476 17.375 25.75 C17.188 27.625 17.188 27.625 16.375 29.75 C14.258 30.773 14.258 30.773 11.375 31.75 C8.359 33.261 5.359 34.794 2.371 36.359 C-0.501 37.829 -2.351 38.75 -5.625 38.75 C0.559 34.783 6.898 31.215 13.375 27.75 C11.945 24.889 10.054 24.413 7.188 23.062 C6.245 22.605 5.303 22.147 4.332 21.676 C-2.244 19.617 -7.672 22.953 -13.5 25.812 C-14.284 26.19 -15.067 26.567 -15.875 26.955 C-17.795 27.88 -19.71 28.814 -21.625 29.75 C-18.325 32.06 -15.025 34.37 -11.625 36.75 C-16.95 36.75 -21.531 34.035 -25.625 30.75 C-26.832 27.67 -26.938 25.023 -26.625 21.75 C-25.965 21.75 -25.305 21.75 -24.625 21.75 C-24.295 23.73 -23.965 25.71 -23.625 27.75 C-23.12 27.508 -22.616 27.265 -22.096 27.016 C-19.816 25.923 -17.533 24.836 -15.25 23.75 C-14.456 23.368 -13.662 22.987 -12.844 22.594 C-12.083 22.233 -11.323 21.872 -10.539 21.5 C-9.837 21.165 -9.136 20.83 -8.413 20.484 C-6.625 19.75 -6.625 19.75 -4.625 19.75 C-5.285 13.81 -5.945 7.87 -6.625 1.75 C-3.625 -0.25 -3.625 -0.25 0 0 Z " fill="#000000" transform="translate(221.625,199.25)"/>
<path d="M0 0 C2.533 1.31 3.477 2.399 4.812 4.938 C5.595 10.752 4.222 15.254 0.812 19.938 C-2.54 22.343 -4.322 22.954 -8.438 22.875 C-11.188 21.938 -11.188 21.938 -12.367 20.152 C-13.783 16.331 -13.115 12.836 -12.188 8.938 C-9.638 3.839 -6.125 -0.175 0 0 Z " fill="#FFFFFF" transform="translate(182.1875,166.0625)"/>
<path d="M0 0 C3.595 3.511 6.952 7.154 10.188 11 C10.902 11.847 10.902 11.847 11.631 12.711 C16.165 18.127 20.453 23.716 24.728 29.336 C33.433 40.718 42.462 51.853 51.43 63.027 C52.134 63.905 52.837 64.783 53.562 65.688 C54.162 66.434 54.761 67.18 55.379 67.949 C55.914 68.626 56.449 69.303 57 70 C57.566 70.708 58.132 71.415 58.715 72.145 C60 74 60 74 60 76 C60.66 76 61.32 76 62 76 C63.541 77.82 64.963 79.645 66.375 81.562 C67.273 82.758 68.173 83.952 69.074 85.145 C69.549 85.774 70.024 86.404 70.513 87.053 C73.016 90.33 75.602 93.538 78.188 96.75 C79.197 98.009 80.206 99.268 81.215 100.527 C82.913 102.646 84.614 104.763 86.316 106.879 C86.954 107.682 87.593 108.485 88.25 109.312 C88.791 109.989 89.333 110.666 89.891 111.363 C91 113 91 113 91 115 C91.66 115 92.32 115 93 115 C94.731 117.028 96.344 119.056 97.938 121.188 C98.38 121.766 98.823 122.344 99.279 122.939 C101.739 126.184 103.978 129.457 106 133 C103.024 131.688 101.218 130.4 99.188 127.867 C98.676 127.234 98.164 126.601 97.636 125.948 C97.096 125.264 96.556 124.58 96 123.875 C95.43 123.164 94.861 122.454 94.274 121.721 C89.854 116.172 85.605 110.502 81.385 104.799 C77.769 99.942 73.954 95.307 70.003 90.72 C65.548 85.528 61.417 80.112 57.277 74.668 C55.065 71.779 52.814 68.921 50.562 66.062 C50.106 65.483 49.65 64.904 49.18 64.308 C48.254 63.131 47.327 61.955 46.4 60.779 C44.989 58.986 43.582 57.189 42.176 55.391 C37.286 49.141 32.341 42.95 27.297 36.824 C24.277 33.111 21.33 29.342 18.389 25.565 C15.787 22.235 13.143 18.946 10.445 15.691 C9.851 14.972 9.257 14.253 8.646 13.512 C7.487 12.113 6.322 10.719 5.151 9.329 C4.624 8.692 4.098 8.055 3.555 7.398 C3.085 6.838 2.616 6.278 2.132 5.701 C0.879 3.818 0.421 2.209 0 0 Z " fill="#000000" transform="translate(226,121)"/>
<path d="M0 0 C6.606 -0.093 13.157 0.058 19.75 0.438 C20.458 0.477 21.167 0.516 21.896 0.556 C26.31 0.825 30.63 1.319 35 2 C31.863 4.092 29.099 5.122 25.539 6.348 C24.911 6.564 24.284 6.781 23.637 7.005 C22.312 7.461 20.985 7.916 19.658 8.368 C17.637 9.058 15.619 9.756 13.602 10.455 C8.414 12.238 3.394 13.921 -2 15 C-1.34 10.05 -0.68 5.1 0 0 Z " fill="#FFFFFF" transform="translate(250,90)"/>
<path d="M0 0 C5.883 0.993 11.002 3.43 16.438 5.812 C17.462 6.251 18.486 6.69 19.541 7.143 C24.705 9.392 29.458 11.658 34 15 C32.283 17.078 31.149 17.95 28.562 18.812 C25.503 19.036 24.709 18.386 22 17 C18.712 15.767 15.417 14.561 12.107 13.387 C7.418 11.674 3.275 9.582 -1 7 C-0.67 4.69 -0.34 2.38 0 0 Z " fill="#FFFFFF" transform="translate(132,185)"/>
<path d="M0 0 C0.147 0.922 0.147 0.922 0.297 1.863 C0.446 2.672 0.596 3.48 0.75 4.312 C0.889 5.113 1.028 5.914 1.172 6.738 C2.237 9.647 3.337 10.455 6 12 C16.872 16.134 28.583 15.316 40 15 C33.442 19.372 25.762 19.428 18.188 18.062 C16.067 17.62 13.956 17.147 11.845 16.658 C8.262 15.829 4.672 15.033 1.082 14.234 C-6.618 12.516 -14.31 10.765 -22 9 C-19.922 6.922 -18.634 6.317 -15.938 5.273 C-15.141 4.964 -14.344 4.655 -13.523 4.336 C-12.691 4.019 -11.858 3.702 -11 3.375 C-10.167 3.05 -9.335 2.725 -8.477 2.391 C-2.269 0 -2.269 0 0 0 Z " fill="#FFFFFF" transform="translate(193,95)"/>
<path d="M0 0 C1.98 0 3.96 0 6 0 C8.332 2.332 8.404 3.245 8.887 6.43 C9.02 7.308 9.154 8.185 9.291 9.09 C9.487 10.468 9.487 10.468 9.688 11.875 C9.83 12.786 9.972 13.698 10.119 14.637 C10.757 18.971 11.085 21.661 10 26 C6.04 23.69 2.08 21.38 -2 19 C-1.34 12.73 -0.68 6.46 0 0 Z " fill="#FFFFFF" transform="translate(181,200)"/>
<path d="M0 0 C1.386 0.329 2.772 0.657 4.158 0.984 C7.503 1.776 10.845 2.574 14.188 3.375 C10.943 5.538 7.837 7.006 4.188 8.375 C3.197 8.045 2.208 7.715 1.188 7.375 C-17.163 1.806 -17.163 1.806 -35.812 -2.625 C-25.898 -9.235 -10.831 -2.599 0 0 Z " fill="#FFFFFF" transform="translate(196.8125,115.625)"/>
<path d="M0 0 C0.722 0.371 1.444 0.743 2.188 1.125 C4.963 2.346 4.963 2.346 7.254 0.863 C10 0 10 0 13.297 1.16 C14.436 1.788 15.576 2.416 16.75 3.062 C17.9 3.672 19.05 4.282 20.234 4.91 C23.53 7.4 23.249 8.164 24 12 C26.732 14.129 26.732 14.129 30.062 15.812 C31.167 16.417 32.272 17.022 33.41 17.645 C34.265 18.092 35.119 18.539 36 19 C35.01 19.495 35.01 19.495 34 20 C31.483 18.846 29.116 17.487 26.703 16.129 C24.046 14.802 24.046 14.802 21.129 15.078 C16.979 14.975 14.153 13.268 10.688 11.188 C9.739 10.653 9.739 10.653 8.771 10.107 C4.133 7.398 4.133 7.398 3 4 C2.01 3.34 1.02 2.68 0 2 C0 1.34 0 0.68 0 0 Z " fill="#000000" transform="translate(270,247)"/>
<path d="M0 0 C2.375 0.688 2.375 0.688 3.375 1.688 C3.531 3.101 3.626 4.521 3.691 5.941 C3.754 7.222 3.754 7.222 3.818 8.529 C3.858 9.427 3.897 10.325 3.938 11.25 C3.981 12.152 4.024 13.053 4.068 13.982 C4.175 16.217 4.275 18.452 4.375 20.688 C1.405 20.688 -1.565 20.688 -4.625 20.688 C-4.873 17.563 -5.099 14.439 -5.312 11.312 C-5.385 10.423 -5.458 9.534 -5.533 8.617 C-5.588 7.766 -5.643 6.916 -5.699 6.039 C-5.757 5.254 -5.814 4.468 -5.874 3.659 C-5.751 2.683 -5.751 2.683 -5.625 1.688 C-2.625 -0.312 -2.625 -0.312 0 0 Z " fill="#FFFFFF" transform="translate(220.625,140.3125)"/>
<path d="M0 0 C9.923 6.182 19.613 12.714 29.33 19.214 C32.595 21.398 35.864 23.577 39.133 25.756 C40.614 26.743 42.094 27.73 43.574 28.719 C47.18 31.126 50.792 33.523 54.418 35.898 C55.117 36.358 55.816 36.818 56.536 37.292 C57.853 38.158 59.173 39.021 60.496 39.88 C64.888 42.775 64.888 42.775 66 45 C62.636 44.366 60.365 43.105 57.543 41.191 C56.685 40.614 55.828 40.037 54.944 39.442 C54.034 38.822 53.125 38.202 52.188 37.562 C50.283 36.277 48.378 34.992 46.473 33.707 C45.538 33.074 44.604 32.44 43.641 31.788 C40.148 29.423 36.638 27.085 33.125 24.75 C31.935 23.956 30.745 23.162 29.555 22.367 C27.085 20.72 24.61 19.081 22.133 17.445 C4.348 5.688 4.348 5.688 0 2 C0 1.34 0 0.68 0 0 Z " fill="#000000" transform="translate(179,237)"/>
<path d="M0 0 C0.638 0.258 1.276 0.516 1.934 0.781 C4.379 1.753 6.83 2.71 9.285 3.656 C10.063 3.957 10.841 4.257 11.643 4.566 C13.259 5.19 14.876 5.813 16.494 6.434 C17.271 6.734 18.047 7.034 18.848 7.344 C19.549 7.614 20.25 7.884 20.973 8.162 C23.037 9.015 25.015 9.977 27 11 C26 12 26 12 22.188 12.25 C13.812 12.143 5.589 10.307 -1 5 C-0.67 3.35 -0.34 1.7 0 0 Z " fill="#FFFFFF" transform="translate(129,193)"/>
<path d="M0 0 C0.99 0.33 1.98 0.66 3 1 C2.67 1.66 2.34 2.32 2 3 C2.395 5.129 2.395 5.129 4 7 C10.035 9.361 16.621 10.015 23 11 C23.33 11.99 23.66 12.98 24 14 C21.792 14.027 19.583 14.046 17.375 14.062 C16.145 14.074 14.915 14.086 13.648 14.098 C10.301 14.008 7.257 13.777 4 13 C3.67 12.34 3.34 11.68 3 11 C2.01 10.567 1.02 10.134 0 9.688 C-3 8 -3 8 -3.875 5.312 C-3.916 4.549 -3.958 3.786 -4 3 C-2.188 1.438 -2.188 1.438 0 0 Z " fill="#181818" transform="translate(199,39)"/>
<path d="M0 0 C1.32 0.33 2.64 0.66 4 1 C4.33 2.65 4.66 4.3 5 6 C5.248 5.196 5.495 4.391 5.75 3.562 C7 1 7 1 9.125 0.188 C9.744 0.126 10.363 0.064 11 0 C13.326 3.634 13.163 6.771 13 11 C10.688 11.625 10.688 11.625 8 12 C7.01 11.34 6.02 10.68 5 10 C4.34 10.66 3.68 11.32 3 12 C0.375 11.625 0.375 11.625 -2 11 C-2 10.01 -2 9.02 -2 8 C-0.68 8.33 0.64 8.66 2 9 C2.33 8.34 2.66 7.68 3 7 C2.01 7 1.02 7 0 7 C0 5 0 5 2 3 C0.68 3.33 -0.64 3.66 -2 4 C-1.34 2.68 -0.68 1.36 0 0 Z " fill="#181818" transform="translate(313,272)"/>
<path d="M0 0 C6.881 0.653 13.335 2.265 20 4.062 C21.061 4.344 22.122 4.626 23.215 4.916 C25.811 5.606 28.406 6.301 31 7 C28.828 9.498 27.323 10.642 24 11 C20.017 10.273 16.182 8.997 12.312 7.812 C11.242 7.508 10.171 7.203 9.068 6.889 C8.052 6.581 7.036 6.274 5.988 5.957 C5.055 5.678 4.123 5.4 3.161 5.113 C1 4 1 4 0.188 1.878 C0.126 1.258 0.064 0.638 0 0 Z " fill="#FFFFFF" transform="translate(163,115)"/>
<path d="M0 0 C0.99 0.33 1.98 0.66 3 1 C2.238 1.811 1.476 2.622 0.691 3.457 C-10.951 15.294 -10.951 15.294 -20 29 C-20.66 29.619 -21.32 30.238 -22 30.875 C-25.957 35.079 -26.284 40.307 -26.625 45.875 C-26.7 47.027 -26.775 48.18 -26.852 49.367 C-26.901 50.236 -26.95 51.105 -27 52 C-29.615 47.281 -29.612 42.948 -28.535 37.762 C-25.688 28.006 -18.635 21.443 -11.84 14.235 C-7.589 9.707 -3.656 5.026 0 0 Z " fill="#FFFFFF" transform="translate(145,118)"/>
<path d="M0 0 C0.33 0 0.66 0 1 0 C1.229 9.109 0.614 18.044 -0.227 27.102 C-0.439 29.392 -0.643 31.682 -0.846 33.973 C-0.979 35.448 -1.112 36.923 -1.246 38.398 C-1.307 39.074 -1.367 39.749 -1.429 40.444 C-1.793 44.332 -2.311 48.157 -3 52 C-3.66 52 -4.32 52 -5 52 C-4.546 40.877 -3.693 29.796 -2.703 18.71 C-2.567 17.192 -2.433 15.674 -2.301 14.155 C-2.112 11.998 -1.916 9.841 -1.719 7.684 C-1.548 5.79 -1.548 5.79 -1.373 3.857 C-1 1 -1 1 0 0 Z " fill="#000000" transform="translate(177,226)"/>
<path d="M0 0 C0.257 0.616 0.513 1.232 0.777 1.867 C3.146 5.998 7.833 7.319 12.211 8.695 C17.773 10.081 21.929 10 28 10 C19.585 7.03 19.585 7.03 11 4 C11 3.01 11 2.02 11 1 C12.645 1.632 12.645 1.632 14.324 2.277 C15.779 2.831 17.233 3.384 18.688 3.938 C19.409 4.215 20.13 4.493 20.873 4.779 C24.567 6.179 28.083 7.366 32 8 C33.335 8.325 34.67 8.655 36 9 C36 9.66 36 10.32 36 11 C26.875 13.962 13.624 13.045 5 9 C2.014 7.111 0.433 6.083 -0.875 2.812 C-0.916 2.214 -0.957 1.616 -1 1 C-0.67 0.67 -0.34 0.34 0 0 Z " fill="#000000" transform="translate(127,194)"/>
<path d="M0 0 C1.65 0 3.3 0 5 0 C5 5.28 5 10.56 5 16 C3.02 16 1.04 16 -1 16 C-1.027 13.521 -1.047 11.042 -1.062 8.562 C-1.075 7.502 -1.075 7.502 -1.088 6.42 C-1.097 4.613 -1.052 2.806 -1 1 C-0.67 0.67 -0.34 0.34 0 0 Z " fill="#FFFFFF" transform="translate(218,162)"/>
<path d="M0 0 C-0.012 0.869 -0.023 1.738 -0.035 2.633 C-0.044 3.785 -0.053 4.938 -0.062 6.125 C-0.074 7.262 -0.086 8.399 -0.098 9.57 C-0.088 12.908 -0.088 12.908 0.5 15.781 C1.205 20.32 1.105 24.79 1.062 29.375 C1.058 30.302 1.053 31.229 1.049 32.184 C1.037 34.456 1.021 36.728 1 39 C0.67 39 0.34 39 0 39 C-0.33 32.73 -0.66 26.46 -1 20 C-6.356 18.926 -6.356 18.926 -11 20 C-10.67 19.34 -10.34 18.68 -10 18 C-10.007 14.369 -10.078 10.75 -10.215 7.121 C-10.253 5.08 -10.137 3.037 -10 1 C-6.15 -1.567 -4.414 -0.833 0 0 Z M-7 1 C-8.392 2.163 -8.392 2.163 -8.098 5.379 C-8.091 6.773 -8.079 8.168 -8.062 9.562 C-8.058 10.273 -8.053 10.984 -8.049 11.717 C-8.037 13.478 -8.019 15.239 -8 17 C-6.02 17 -4.04 17 -2 17 C-2 11.72 -2 6.44 -2 1 C-3.65 1 -5.3 1 -7 1 Z " fill="#000000" transform="translate(225,161)"/>
<path d="M0 0 C1.65 0 3.3 0 5 0 C5.832 5.72 6.12 11.222 6 17 C4.02 17 2.04 17 0 17 C0 11.39 0 5.78 0 0 Z " fill="#FFFFFF" transform="translate(218,201)"/>
<path d="M0 0 C3.314 0.695 6.147 1.893 9.188 3.375 C10.068 3.795 10.948 4.215 11.855 4.648 C14 6 14 6 15 9 C14.01 9.99 13.02 10.98 12 12 C5.07 8.04 5.07 8.04 -2 4 C-1.34 2.68 -0.68 1.36 0 0 Z " fill="#FFFFFF" transform="translate(278,249)"/>
<path d="M0 0 C2.443 1.075 4.768 2.198 7.125 3.438 C7.784 3.776 8.442 4.114 9.121 4.463 C10.751 5.301 12.376 6.15 14 7 C13.625 8.938 13.625 8.938 13 11 C12.01 11.495 12.01 11.495 11 12 C8.717 10.923 6.564 9.805 4.375 8.562 C3.764 8.224 3.153 7.886 2.523 7.537 C1.012 6.699 -0.495 5.85 -2 5 C-2 3.68 -2 2.36 -2 1 C-1.34 0.67 -0.68 0.34 0 0 Z " fill="#FFFFFF" transform="translate(248,233)"/>
<path d="M0 0 C1.938 0.812 1.938 0.812 4 2 C5 5 5 5 3.812 7.5 C1.957 10.059 0.696 11.381 -2 13 C-5.234 13.512 -5.234 13.512 -8.75 13.688 C-10.506 13.786 -10.506 13.786 -12.297 13.887 C-13.189 13.924 -14.081 13.961 -15 14 C-15 12.68 -15 11.36 -15 10 C-13.536 9.71 -13.536 9.71 -12.043 9.414 C-10.771 9.154 -9.498 8.893 -8.188 8.625 C-6.923 8.37 -5.658 8.115 -4.355 7.852 C-0.898 7.172 -0.898 7.172 2 5 C2 4.34 2 3.68 2 3 C1.34 2.67 0.68 2.34 0 2 C0 1.34 0 0.68 0 0 Z " fill="#1D1D1D" transform="translate(238,39)"/>
<path d="M0 0 C1.98 0.66 3.96 1.32 6 2 C5.524 6.999 3.968 9.978 1 14 C-0.98 13.01 -2.96 12.02 -5 11 C-3.35 7.37 -1.7 3.74 0 0 Z " fill="#FFFFFF" transform="translate(165,165)"/>
<path d="M0 0 C2.125 0.375 2.125 0.375 4 1 C4.95 4.695 4.95 7.305 4 11 C0.25 12.125 0.25 12.125 -2 11 C-2.054 9.542 -2.093 8.084 -2.125 6.625 C-2.16 5.407 -2.16 5.407 -2.195 4.164 C-2 2 -2 2 0 0 Z " fill="#2B2B2B" transform="translate(329,272)"/>
<path d="M0 0 C2.475 0.99 2.475 0.99 5 2 C5.195 8.055 5.195 8.055 5 10 C4.34 10.66 3.68 11.32 3 12 C0.875 11.625 0.875 11.625 -1 11 C-1.91 7.928 -2.253 5.203 -2 2 C-1.34 1.34 -0.68 0.68 0 0 Z " fill="#333333" transform="translate(305,272)"/>
<path d="M0 0 C4.156 1.483 7.709 3.586 11.375 6 C11.971 6.388 12.568 6.776 13.182 7.176 C20.159 11.727 27.083 16.359 34 21 C33.67 21.66 33.34 22.32 33 23 C26.694 19.041 20.448 15.001 14.25 10.875 C13.637 10.468 13.024 10.061 12.392 9.641 C8.201 6.842 4.05 4.001 0 1 C0 0.67 0 0.34 0 0 Z " fill="#000000" transform="translate(74,6)"/>
<path d="M0 0 C1.436 2.489 1.999 3.966 2.102 6.887 C2.737 10.337 2.737 10.337 6.309 12.23 C7.674 12.905 9.051 13.556 10.438 14.188 C17.781 17.672 17.781 17.672 20 21 C16.557 19.687 13.358 18.186 10.137 16.398 C9.25 15.909 8.364 15.419 7.451 14.914 C6.539 14.406 5.627 13.898 4.688 13.375 C3.756 12.859 2.825 12.344 1.865 11.812 C-0.425 10.544 -2.713 9.273 -5 8 C-3 7 -3 7 0 7 C0 4.69 0 2.38 0 0 Z " fill="#FFFFFF" transform="translate(194,220)"/>
<path d="M0 0 C0.33 0.99 0.66 1.98 1 3 C-2.909 7.666 -6.964 9.892 -13 11 C-13.99 10.67 -14.98 10.34 -16 10 C-15.67 9.01 -15.34 8.02 -15 7 C-12.891 6.191 -12.891 6.191 -10.25 5.562 C-6.014 4.422 -3.212 3.105 0 0 Z " fill="#0D0D0D" transform="translate(248,101)"/>
<path d="M0 0 C2.97 0 5.94 0 9 0 C9 0.99 9 1.98 9 3 C8.01 3 7.02 3 6 3 C6 5.64 6 8.28 6 11 C5.01 11 4.02 11 3 11 C3 8.36 3 5.72 3 3 C2.01 3 1.02 3 0 3 C0 2.01 0 1.02 0 0 Z " fill="#000000" transform="translate(290,272)"/>
<path d="M0 0 C0 3.932 -1.394 5.164 -4 8 C-4.66 8 -5.32 8 -6 8 C-6.336 8.812 -6.336 8.812 -6.68 9.641 C-8.411 12.735 -10.716 15.179 -13.125 17.75 C-13.593 18.257 -14.061 18.763 -14.543 19.285 C-15.691 20.527 -16.845 21.764 -18 23 C-18 18.797 -16.181 17.748 -13.312 14.75 C-10.353 11.613 -7.499 8.509 -5.062 4.938 C-3 2 -3 2 0 0 Z " fill="#000000" transform="translate(180,136)"/>
<path d="M0 0 C0 0.66 0 1.32 0 2 C-3.452 3.867 -6.912 5.716 -10.375 7.562 C-11.36 8.096 -12.345 8.629 -13.359 9.178 C-14.3 9.677 -15.241 10.177 -16.211 10.691 C-17.08 11.157 -17.95 11.624 -18.845 12.104 C-19.556 12.4 -20.267 12.695 -21 13 C-21.66 12.67 -22.32 12.34 -23 12 C-3.383 0 -3.383 0 0 0 Z " fill="#FFFFFF" transform="translate(238,228)"/>
<path d="M0 0 C1.32 0.33 2.64 0.66 4 1 C3.01 3.97 2.02 6.94 1 10 C-0.32 9.34 -1.64 8.68 -3 8 C-2.453 4.625 -1.945 2.918 0 0 Z " fill="#FFFFFF" transform="translate(114,146)"/>
<path d="M0 0 C0.99 0.33 1.98 0.66 3 1 C1.515 2.485 1.515 2.485 0 4 C0.464 4.928 0.464 4.928 0.938 5.875 C1.625 7.25 2.312 8.625 3 10 C-1.75 9.25 -1.75 9.25 -4 7 C-3.812 4.5 -3.812 4.5 -3 2 C-2.01 1.34 -1.02 0.68 0 0 Z " fill="#FFFFFF" transform="translate(199,39)"/>
<path d="M0 0 C1.65 0.33 3.3 0.66 5 1 C4.67 2.32 4.34 3.64 4 5 C1.509 5.687 -0.379 6 -3 6 C-2 4 -1 2 0 0 Z " fill="#313131" transform="translate(194,121)"/>
<path d="M0 0 C3.825 1.451 5.191 3.382 7 7 C7 7.66 7 8.32 7 9 C4.625 8.438 4.625 8.438 2 7 C0.688 3.375 0.688 3.375 0 0 Z " fill="#FFFFFF" transform="translate(162,179)"/>
<path d="M0 0 C0 0.66 0 1.32 0 2 C-1.456 2.222 -2.915 2.427 -4.375 2.625 C-5.187 2.741 -5.999 2.857 -6.836 2.977 C-7.55 2.984 -8.264 2.992 -9 3 C-9.66 2.34 -10.32 1.68 -11 1 C-6.926 -1.037 -4.411 -1.026 0 0 Z " fill="#FFFFFF" transform="translate(180,163)"/>
<path d="M0 0 C0 0.66 0 1.32 0 2 C-3.96 2.99 -7.92 3.98 -12 5 C-8.902 -1.196 -6.364 -0.103 0 0 Z " fill="#FFFFFF" transform="translate(175,159)"/>
<path d="M0 0 C0 4.138 -1.715 5.209 -4.5 8.188 C-5.335 9.089 -6.171 9.99 -7.031 10.918 C-7.681 11.605 -8.331 12.292 -9 13 C-9.66 12.67 -10.32 12.34 -11 12 C-7.37 8.04 -3.74 4.08 0 0 Z " fill="#000000" transform="translate(142,125)"/>
<path d="M0 0 C3.092 2.53 3.909 5.225 5 9 C2 8 2 8 0.812 6.188 C0 4 0 4 0 0 Z " fill="#FFFFFF" transform="translate(158,178)"/>
</svg>
