<?xml version="1.0" encoding="UTF-8"?>
<!-- Generator: visioncortex VTracer 0.6.4 -->
<svg version="1.1" xmlns="http://www.w3.org/2000/svg" width="451" height="383">
<path d="M0 0 C148.83 0 297.66 0 451 0 C451 126.39 451 252.78 451 383 C302.17 383 153.34 383 0 383 C0 256.61 0 130.22 0 0 Z " fill="#FFFFFF" transform="translate(0,0)"/>
<path d="M0 0 C13.421 5.157 26.717 6.349 40.919 7.542 C57.447 8.935 73.884 10.382 89.938 14.75 C91.009 15.04 91.009 15.04 92.103 15.335 C97.115 16.785 101.592 18.858 106.188 21.312 C107.522 21.999 107.522 21.999 108.883 22.699 C117.649 27.392 125.92 32.801 134.188 38.312 C136.828 39.13 139.49 39.693 142.188 40.312 C142.188 41.303 142.188 42.292 142.188 43.312 C142.84 43.41 143.492 43.508 144.164 43.609 C155.542 45.556 160.318 51.415 167.188 60.312 C167.771 61.045 168.355 61.777 168.957 62.531 C170.188 64.312 170.188 64.312 170.188 66.312 C170.848 66.312 171.507 66.312 172.188 66.312 C173.852 68.332 173.852 68.332 175.812 71.125 C179.295 76.057 182.872 80.899 186.523 85.707 C189.729 90.727 190.432 95.332 190.461 101.219 C190.478 102.599 190.497 103.979 190.515 105.358 C190.522 106.083 190.53 106.809 190.537 107.556 C190.699 121.806 191.606 135.894 193.125 150.062 C193.253 151.289 193.253 151.289 193.384 152.54 C193.631 154.877 193.889 157.212 194.152 159.547 C194.226 160.231 194.3 160.915 194.377 161.62 C194.764 164.891 195.353 167.883 196.276 171.052 C197.334 174.838 196.967 177.495 196.188 181.312 C187.409 182.361 181.727 179.545 174.188 175.312 C173.111 174.821 172.035 174.33 170.926 173.824 C167.145 171.737 166.75 169.254 165.188 165.312 C162.973 162.226 161.527 160.543 157.713 159.886 C156.819 159.818 155.925 159.75 155.004 159.68 C154.102 159.606 153.201 159.532 152.272 159.457 C151.584 159.409 150.896 159.361 150.188 159.312 C150.113 158.038 150.038 156.763 149.961 155.449 C148.511 134.456 144.543 113.697 136.188 94.312 C135.718 93.143 135.718 93.143 135.238 91.949 C133.68 88.205 131.845 84.672 129.871 81.133 C129.453 80.373 129.034 79.613 128.603 78.83 C127.753 77.295 126.888 75.768 126.009 74.25 C125.616 73.542 125.224 72.835 124.82 72.105 C124.277 71.155 124.277 71.155 123.723 70.184 C123.188 68.312 123.188 68.312 124.085 66.075 C124.449 65.494 124.813 64.912 125.188 64.312 C109.39 67.38 93.639 70.601 77.938 74.125 C60.259 78.092 42.551 81.911 24.829 85.682 C19.839 86.745 14.85 87.815 9.862 88.894 C6.827 89.549 3.792 90.202 0.756 90.854 C-0.641 91.155 -2.038 91.457 -3.435 91.761 C-10.555 93.31 -17.549 94.682 -24.812 95.312 C-25.143 94.322 -25.472 93.332 -25.812 92.312 C-27.463 92.312 -29.113 92.312 -30.812 92.312 C-31.143 93.632 -31.472 94.952 -31.812 96.312 C-34.018 96.989 -36.227 97.653 -38.438 98.312 C-39.667 98.684 -40.897 99.055 -42.164 99.438 C-45.551 100.25 -48.351 100.483 -51.812 100.312 C-53.598 95.319 -54.806 90.294 -55.938 85.125 C-56.21 83.916 -56.21 83.916 -56.488 82.682 C-56.745 81.519 -56.745 81.519 -57.008 80.332 C-57.24 79.282 -57.24 79.282 -57.477 78.21 C-57.812 76.313 -57.812 76.313 -57.812 73.312 C-61.274 74.092 -64.731 74.888 -68.188 75.688 C-69.172 75.909 -70.157 76.131 -71.172 76.359 C-72.113 76.579 -73.054 76.798 -74.023 77.023 C-74.893 77.222 -75.762 77.421 -76.658 77.626 C-78.995 78.189 -78.995 78.189 -80.812 80.312 C-80.462 83.266 -80.012 86.089 -79.438 89 C-78.373 94.534 -77.616 99.668 -77.812 105.312 C-81.773 106.303 -81.773 106.303 -85.812 107.312 C-86.803 103.683 -87.793 100.053 -88.812 96.312 C-90.792 95.817 -90.792 95.817 -92.812 95.312 C-94.152 96.424 -94.152 96.424 -93.91 99.254 C-93.899 100.449 -93.887 101.644 -93.875 102.875 C-93.866 104.073 -93.857 105.27 -93.848 106.504 C-93.836 107.431 -93.824 108.358 -93.812 109.312 C-97.183 110.749 -100.389 111.748 -103.98 112.461 C-104.957 112.662 -105.933 112.863 -106.939 113.07 C-108.96 113.478 -110.98 113.881 -113.002 114.281 C-122.546 116.259 -133.041 118.598 -139.009 126.996 C-140.174 130.354 -139.583 133.422 -139.172 136.875 C-137.197 160.062 -137.197 160.062 -142.098 167.179 C-148.853 174.589 -158.364 179.31 -167.288 183.609 C-170.968 185.388 -174.493 187.349 -178.022 189.405 C-180.978 190.904 -183.525 191.312 -186.812 191.312 C-190.586 189.683 -192.576 187.702 -194.812 184.312 C-195.549 182.073 -195.549 182.073 -196.059 179.645 C-196.256 178.751 -196.454 177.857 -196.658 176.936 C-196.853 176.008 -197.049 175.081 -197.25 174.125 C-197.635 172.296 -198.03 170.469 -198.434 168.645 C-198.688 167.434 -198.688 167.434 -198.947 166.198 C-199.723 163.611 -200.687 161.481 -201.868 159.065 C-204.05 154.256 -204.38 150.169 -204.309 144.941 C-204.311 144.069 -204.314 143.197 -204.317 142.298 C-204.317 139.49 -204.286 136.683 -204.25 133.875 C-204.244 132.919 -204.238 131.963 -204.232 130.978 C-203.963 87.353 -203.963 87.353 -196 72.625 C-195.519 71.714 -195.038 70.802 -194.543 69.863 C-192.812 67.312 -192.812 67.312 -190.375 65.48 C-186.939 62.574 -185.498 59.343 -183.625 55.312 C-183.283 54.601 -182.941 53.889 -182.588 53.156 C-181.933 51.793 -181.286 50.426 -180.648 49.055 C-179.812 47.313 -179.812 47.313 -178.562 45.18 C-177.178 41.733 -177.956 38.02 -178.23 34.383 C-177.496 28.986 -173.887 26.204 -169.895 22.891 C-168.813 22.103 -167.723 21.327 -166.625 20.562 C-166.019 20.138 -165.413 19.713 -164.789 19.275 C-112.153 -16.828 -58.664 -23.269 0 0 Z " fill="#050505" transform="translate(227.8125,108.6875)"/>
<path d="M0 0 C0 0.33 0 0.66 0 1 C-0.803 1.079 -1.606 1.159 -2.433 1.24 C-21.442 3.197 -38.916 6.544 -57 13 C-57.746 13.255 -58.492 13.51 -59.261 13.773 C-78.712 20.448 -99.336 32.519 -112 49 C-113.056 50.268 -113.056 50.268 -114.133 51.562 C-120.673 59.721 -124.941 68.417 -129 78 C-129.411 78.956 -129.822 79.913 -130.246 80.898 C-136.902 97.733 -138.164 115.181 -138.062 133.062 C-138.057 134.611 -138.053 136.16 -138.049 137.709 C-138.038 141.473 -138.021 145.236 -138 149 C-136.02 149.66 -134.04 150.32 -132 151 C-132.01 150.099 -132.021 149.197 -132.032 148.269 C-132.066 144.86 -132.091 141.451 -132.11 138.042 C-132.12 136.579 -132.133 135.116 -132.151 133.653 C-132.261 124.222 -131.785 115.301 -130 106 C-129.854 105.191 -129.708 104.381 -129.557 103.547 C-125.827 83.603 -118.104 65.629 -105 50 C-104.269 49.07 -104.269 49.07 -103.523 48.121 C-102.4 46.705 -101.207 45.345 -100 44 C-99.34 44 -98.68 44 -98 44 C-98 43.34 -98 42.68 -98 42 C-96.205 40.374 -94.422 38.901 -92.5 37.438 C-91.92 36.995 -91.34 36.552 -90.742 36.096 C-83.895 31.008 -76.566 26.911 -69 23 C-68.395 22.684 -67.789 22.369 -67.166 22.043 C-46.724 11.534 -22.311 3.83 0.812 3.875 C2.118 3.872 3.424 3.87 4.77 3.867 C6.18 3.902 7.59 3.947 9 4 C9.772 4.027 10.544 4.054 11.34 4.082 C18.244 4.531 24.02 6.61 30.375 9.25 C31.885 9.86 31.885 9.86 33.425 10.483 C36.288 11.643 39.144 12.82 42 14 C43.351 14.547 44.703 15.093 46.055 15.637 C53.504 18.669 53.504 18.669 57 21 C60.019 21.337 60.019 21.337 63.477 21.344 C64.779 21.372 66.081 21.4 67.423 21.429 C68.11 21.44 68.796 21.452 69.503 21.463 C81.442 21.67 93.182 22.186 105 24 C106.449 24.196 107.898 24.391 109.348 24.586 C132.143 27.819 154.398 35.767 171.75 51.312 C174.612 53.861 177.233 55.081 181 56 C175.51 58.983 169.406 60.386 163.438 62.125 C162.212 62.498 160.987 62.87 159.725 63.254 C143.187 68.064 143.187 68.064 135.735 65.099 C133.512 63.869 131.457 62.517 129.375 61.062 C127.812 60.044 126.247 59.03 124.68 58.02 C123.509 57.255 123.509 57.255 122.315 56.475 C104.994 45.44 85.944 38.542 66 34 C64.855 33.731 64.855 33.731 63.688 33.456 C33.901 28.404 -0.872 34.432 -28 47 C-28.612 47.277 -29.224 47.554 -29.854 47.839 C-49.033 56.582 -65.758 69.959 -77 88 C-77.496 88.728 -77.993 89.457 -78.504 90.207 C-89.04 106.354 -94.445 126.064 -93.816 145.215 C-93.795 146.035 -93.773 146.855 -93.75 147.7 C-93.634 151.862 -93.449 156.002 -93.15 160.156 C-92.571 171.366 -92.571 171.366 -96.263 175.588 C-99.408 177.693 -102.603 179.337 -106 181 C-108.138 182.384 -110.256 183.799 -112.352 185.246 C-114.443 186.643 -116.534 188.04 -118.625 189.438 C-120.236 190.515 -120.236 190.515 -121.879 191.615 C-122.901 192.298 -123.923 192.98 -124.977 193.684 C-125.895 194.298 -126.814 194.912 -127.76 195.545 C-131.725 198.121 -134.217 198.486 -139 198 C-143.712 194.54 -144.721 191.331 -145.666 185.842 C-145.797 184.966 -145.928 184.09 -146.062 183.188 C-146.333 181.45 -146.616 179.714 -146.91 177.98 C-147.025 177.216 -147.14 176.452 -147.258 175.665 C-147.944 173.2 -148.787 171.556 -150.037 169.355 C-152.592 164.396 -152.561 159.835 -152.496 154.344 C-152.498 153.324 -152.499 152.305 -152.501 151.255 C-152.499 149.096 -152.487 146.938 -152.467 144.78 C-152.438 141.565 -152.446 138.352 -152.459 135.137 C-152.449 124.313 -151.963 113.639 -150.684 102.887 C-150.571 101.905 -150.458 100.923 -150.342 99.912 C-149.15 90.895 -146.305 83.066 -139.535 76.672 C-136.417 73.386 -134.725 70.005 -132.812 65.938 C-132.47 65.23 -132.128 64.523 -131.775 63.795 C-131.122 62.445 -130.474 61.092 -129.832 59.737 C-129.183 58.381 -128.498 57.042 -127.801 55.711 C-126.82 53.801 -126.82 53.801 -126.375 50.688 C-120.226 34.196 -90.011 22.053 -74.645 14.904 C-49.892 3.764 -27.181 -0.607 0 0 Z " fill="#FFFFFF" transform="translate(179,99)"/>
<path d="M0 0 C5.989 2.995 13.234 0.785 19.25 -1.062 C20.39 -1.445 21.529 -1.828 22.703 -2.223 C26.358 -3.084 28.436 -3.176 32 -2 C33.383 -0.374 34.723 1.29 36 3 C27.472 5.018 18.928 6.859 10.324 8.523 C9.157 8.751 7.989 8.98 6.786 9.215 C3.087 9.937 -0.613 10.656 -4.312 11.375 C-19.216 14.274 -34.11 17.2 -48.968 20.323 C-54.102 21.401 -59.238 22.454 -64.391 23.441 C-65.387 23.633 -66.384 23.824 -67.41 24.021 C-69.349 24.391 -71.29 24.755 -73.23 25.115 C-79.528 26.336 -85.456 28.043 -91.495 30.211 C-94 31 -94 31 -97 31 C-97.161 30.294 -97.322 29.588 -97.487 28.86 C-98.227 25.653 -98.988 22.452 -99.75 19.25 C-100.003 18.139 -100.255 17.028 -100.516 15.883 C-100.773 14.813 -101.031 13.743 -101.297 12.641 C-101.643 11.164 -101.643 11.164 -101.995 9.657 C-103.179 6.527 -104.338 5.021 -107 3 C-114.747 1.446 -123.327 3.732 -130.938 5.25 C-132.124 5.478 -133.311 5.706 -134.533 5.941 C-138.025 6.616 -141.513 7.305 -145 8 C-145.91 8.181 -146.82 8.362 -147.758 8.549 C-150.952 9.186 -154.144 9.825 -157.335 10.477 C-162.197 11.465 -167.069 12.381 -171.953 13.254 C-173.765 13.58 -173.765 13.58 -175.613 13.912 C-177.979 14.335 -180.346 14.752 -182.715 15.162 C-188.803 16.254 -194.288 17.625 -200 20 C-201.485 20.495 -201.485 20.495 -203 21 C-203.218 27.739 -202.464 33.684 -201 40.25 C-198.715 50.687 -198.715 50.687 -199 55 C-199.99 55.242 -200.98 55.485 -202 55.734 C-212.086 58.267 -220.149 60.934 -228 68 C-227.907 44.382 -214.751 23.743 -199.664 6.582 C-198 5 -198 5 -196 5 C-195.734 4.396 -195.468 3.791 -195.194 3.169 C-193.243 -0.375 -190.147 -2.314 -186.938 -4.688 C-186.226 -5.214 -185.514 -5.741 -184.781 -6.284 C-171.911 -15.581 -158.235 -21.691 -143 -26 C-141.981 -26.291 -141.981 -26.291 -140.94 -26.589 C-90.707 -40.568 -42.187 -30.26 0 0 Z " fill="#FFFFFF" transform="translate(315,165)"/>
<path d="M0 0 C9.032 8.197 17.173 18.874 24 29 C24 29.66 24 30.32 24 31 C24.66 31 25.32 31 26 31 C27.473 32.863 27.473 32.863 29.062 35.312 C29.59 36.113 30.117 36.914 30.66 37.738 C32.818 41.381 33.128 44.227 33.176 48.379 C33.471 64.124 34.442 79.698 35.938 95.375 C36.023 96.293 36.108 97.21 36.196 98.155 C36.445 100.8 36.703 103.443 36.965 106.086 C37.076 107.259 37.076 107.259 37.189 108.456 C37.705 113.466 38.734 118.127 40 123 C40.125 126 40.125 126 40 128 C35.15 128.325 32.265 127.47 28 125.188 C26.515 124.404 26.515 124.404 25 123.605 C24.01 123.076 23.02 122.546 22 122 C20.929 121.52 19.858 121.041 18.754 120.547 C15.803 118.89 15.113 118.14 13.938 115.062 C12.212 111.246 10.775 109.097 7 107 C5.45 106.743 3.889 106.548 2.324 106.402 C1.514 106.324 0.704 106.245 -0.13 106.164 C-0.747 106.11 -1.364 106.056 -2 106 C-2.029 105.404 -2.058 104.808 -2.088 104.194 C-3.636 75.47 -10.382 45.941 -25.738 21.199 C-27 19 -27 19 -27 16 C-26.34 16 -25.68 16 -25 16 C-25 15.01 -25 14.02 -25 13 C-24.34 13 -23.68 13 -23 13 C-23 11.68 -23 10.36 -23 9 C-23.66 9 -24.32 9 -25 9 C-25.33 10.32 -25.66 11.64 -26 13 C-29 9 -32 5 -35 1 C-33.069 0.255 -31.136 -0.485 -29.191 -1.195 C-27.408 -1.85 -25.639 -2.544 -23.875 -3.25 C-15.761 -4.82 -7.14 -4.369 0 0 Z " fill="#FFFFFF" transform="translate(382,160)"/>
<path d="M0 0 C0 0.66 0 1.32 0 2 C1.98 2 3.96 2 6 2 C5.67 2.66 5.34 3.32 5 4 C2.83 4.363 2.83 4.363 -0.039 4.527 C-1.087 4.595 -2.135 4.664 -3.215 4.734 C-4.34 4.801 -5.466 4.868 -6.625 4.938 C-16.328 5.623 -25.555 6.584 -35 9 C-35.642 9.163 -36.285 9.327 -36.947 9.495 C-61.466 15.865 -92.275 26.912 -107 49 C-107.66 49 -108.32 49 -109 49 C-109.273 49.732 -109.547 50.464 -109.828 51.219 C-110.94 53.859 -112.214 56.089 -113.75 58.5 C-127.135 80.547 -131.809 104.699 -134.049 129.983 C-134.216 131.861 -134.216 131.861 -134.387 133.777 C-134.482 134.904 -134.577 136.03 -134.675 137.191 C-135 140 -135 140 -136 143 C-137.98 143 -139.96 143 -142 143 C-146.865 111.649 -134.671 72.978 -116.24 47.565 C-110.995 40.594 -110.995 40.594 -108 38 C-107.34 38 -106.68 38 -106 38 C-106 37.34 -106 36.68 -106 36 C-77.568 12.001 -36.855 0 0 0 Z " fill="#000000" transform="translate(194,106)"/>
<path d="M0 0 C1.008 3.915 2.005 7.832 3 11.75 C3.286 12.861 3.572 13.972 3.867 15.117 C4.138 16.187 4.409 17.257 4.688 18.359 C5.065 19.836 5.065 19.836 5.449 21.343 C6 24 6 24 6 28 C4.067 28.417 2.128 28.808 0.188 29.188 C-0.891 29.408 -1.97 29.628 -3.082 29.855 C-6 30 -6 30 -7.664 28.547 C-8.105 28.036 -8.546 27.526 -9 27 C-12.583 26.917 -12.583 26.917 -16 28 C-16.385 28.947 -16.385 28.947 -16.777 29.914 C-18.71 33.211 -21.41 33.36 -25 34.312 C-26.258 34.659 -27.516 35.006 -28.812 35.363 C-32 36 -32 36 -34 35 C-34.686 32.823 -34.686 32.823 -35.289 29.977 C-35.508 28.956 -35.727 27.935 -35.953 26.883 C-36.175 25.808 -36.397 24.733 -36.625 23.625 C-36.854 22.558 -37.084 21.49 -37.32 20.391 C-39 12.452 -39 12.452 -39 9 C-33.929 7.714 -28.857 6.432 -23.784 5.155 C-22.058 4.72 -20.332 4.283 -18.607 3.845 C-16.128 3.216 -13.648 2.592 -11.168 1.969 C-10.396 1.772 -9.624 1.575 -8.829 1.372 C-5.81 0.617 -3.125 0 0 0 Z " fill="#FFFFFF" transform="translate(211,171)"/>
<path d="M0 0 C-1.221 0.496 -2.441 0.993 -3.699 1.504 C-17.518 7.18 -30.174 13.419 -42.32 22.18 C-45 24 -45 24 -48 25 C-48 25.66 -48 26.32 -48 27 C-49.084 27.984 -50.221 28.911 -51.375 29.812 C-73.158 48.479 -81.985 78.88 -84.832 106.445 C-85.195 111.977 -85.101 117.521 -85.062 123.062 C-85.058 124.31 -85.053 125.557 -85.049 126.842 C-85.037 129.895 -85.021 132.947 -85 136 C-86.32 136 -87.64 136 -89 136 C-96.815 105.741 -84.081 68.595 -69 43 C-68.34 43 -67.68 43 -67 43 C-66.759 42.268 -66.518 41.536 -66.27 40.781 C-64.83 37.627 -63.187 35.886 -60.688 33.5 C-59.875 32.719 -59.063 31.938 -58.227 31.133 C-57.492 30.429 -56.757 29.725 -56 29 C-55.196 28.134 -54.391 27.267 -53.562 26.375 C-42.51 16.132 -27.8 8.805 -14 3 C-13.091 2.597 -12.182 2.193 -11.246 1.777 C-10.361 1.397 -9.475 1.017 -8.562 0.625 C-7.78 0.287 -6.998 -0.05 -6.191 -0.398 C-3.683 -1.087 -2.453 -0.708 0 0 Z " fill="#FFFFFF" transform="translate(131,112)"/>
<path d="M0 0 C-0.577 0.22 -1.155 0.441 -1.75 0.667 C-25.439 9.777 -25.439 9.777 -45.652 24.82 C-47 26 -47 26 -49 26 C-49.495 27.485 -49.495 27.485 -50 29 C-50.681 29.66 -51.361 30.32 -52.062 31 C-77.258 55.471 -82.868 95.733 -85 129 C-86.32 129 -87.64 129 -89 129 C-90.376 105.309 -84.838 79.504 -75 58 C-74.724 57.396 -74.448 56.792 -74.164 56.169 C-70.564 48.387 -66.677 40.5 -61 34 C-60.34 34 -59.68 34 -59 34 C-58.725 33.404 -58.451 32.809 -58.168 32.195 C-49.325 15.573 -23.492 6.701 -7.109 -0.066 C-3.936 -1.019 -3.018 -0.933 0 0 Z " fill="#FFFFFF" transform="translate(142,118)"/>
<path d="M0 0 C0.746 0.241 1.493 0.483 2.262 0.731 C20.084 6.586 38.022 14.434 53.184 25.609 C58.648 29.523 63.383 29.88 70 29 C72.697 28.343 75.287 27.575 77.906 26.656 C80 26 80 26 83 26 C83 26.66 83 27.32 83 28 C63.554 34.276 63.554 34.276 57.292 31.146 C53.854 29.171 50.56 26.99 47.262 24.793 C9.975 -0.011 -30.544 -6.282 -74 2 C-95.458 6.815 -115.878 15.05 -133 29 C-134.247 29.967 -134.247 29.967 -135.52 30.953 C-155.262 47.244 -164.992 69.733 -171 94 C-171.33 94 -171.66 94 -172 94 C-171.9 70.896 -157.374 49.078 -141.688 33.188 C-135.297 26.895 -128.7 21.648 -121 17 C-119.876 16.316 -118.752 15.631 -117.594 14.926 C-107.336 8.955 -96.327 5.39 -85 2 C-83.921 1.671 -82.842 1.343 -81.73 1.004 C-78.833 0.204 -75.951 -0.426 -73 -1 C-72.344 -1.134 -71.687 -1.268 -71.011 -1.406 C-48.741 -5.788 -21.772 -7.323 0 0 Z " fill="#000000" transform="translate(258,135)"/>
<path d="M0 0 C0.672 3.582 1.337 7.166 2 10.75 C2.191 11.766 2.382 12.782 2.578 13.828 C2.849 15.298 2.849 15.298 3.125 16.797 C3.293 17.698 3.46 18.598 3.633 19.526 C4 22 4 22 4 26 C2.68 26.33 1.36 26.66 0 27 C-0.464 25.36 -0.464 25.36 -0.938 23.688 C-1.583 21.446 -2.262 19.213 -3 17 C-8.282 15.8 -8.282 15.8 -13 18 C-12.67 21.96 -12.34 25.92 -12 30 C-14.31 30.33 -16.62 30.66 -19 31 C-20.53 25.198 -21.679 19.424 -22.625 13.5 C-22.759 12.678 -22.893 11.855 -23.031 11.008 C-23.357 9.006 -23.679 7.003 -24 5 C-21.459 4.351 -18.917 3.706 -16.375 3.062 C-15.662 2.88 -14.949 2.698 -14.215 2.51 C-4.267 0 -4.267 0 0 0 Z " fill="#FFFFFF" transform="translate(144,186)"/>
<path d="M0 0 C-2.516 2.516 -4.275 2.749 -7.727 3.594 C-8.964 3.897 -10.201 4.201 -11.476 4.513 C-12.859 4.843 -14.242 5.172 -15.625 5.5 C-16.675 5.753 -16.675 5.753 -17.747 6.011 C-37.085 10.66 -56.585 14.6 -76.072 18.566 C-76.927 18.741 -77.782 18.916 -78.663 19.095 C-79.408 19.247 -80.152 19.398 -80.919 19.554 C-82.959 19.991 -84.979 20.482 -87 21 C-86.56 27.731 -85.846 34.205 -84.41 40.797 C-83.896 43.556 -83.853 46.202 -84 49 C-84.99 48.67 -85.98 48.34 -87 48 C-87.708 46.333 -87.708 46.333 -88.168 44.168 C-88.339 43.374 -88.51 42.581 -88.687 41.763 C-88.852 40.913 -89.017 40.063 -89.188 39.188 C-89.362 38.331 -89.536 37.474 -89.716 36.591 C-90.978 30.02 -91.481 23.691 -91 17 C-85.454 14.37 -80.143 13.012 -74.125 11.875 C-73.101 11.677 -72.078 11.479 -71.023 11.275 C-67.826 10.661 -64.626 10.058 -61.427 9.457 C-58.683 8.94 -55.941 8.417 -53.199 7.893 C-47.764 6.856 -42.326 5.83 -36.887 4.812 C-34.682 4.398 -32.477 3.981 -30.273 3.561 C-27.122 2.963 -23.97 2.377 -20.816 1.793 C-19.405 1.521 -19.405 1.521 -17.965 1.244 C-11.914 0.141 -6.147 -0.214 0 0 Z " fill="#FFFFFF" transform="translate(207,169)"/>
<path d="M0 0 C0 0.66 0 1.32 0 2 C-1.027 2.557 -2.055 3.114 -3.113 3.688 C-10.743 7.873 -17.963 12.143 -24.863 17.469 C-27 19 -27 19 -30 20 C-30.694 21.319 -31.358 22.655 -32 24 C-33.621 25.746 -33.621 25.746 -35.438 27.438 C-38.199 30.096 -40.082 32.668 -42 36 C-42.66 36 -43.32 36 -44 36 C-44.206 36.784 -44.413 37.567 -44.625 38.375 C-45.789 41.442 -46.905 43.445 -48.688 46.125 C-60.88 66.009 -64.008 91.113 -64.125 113.938 C-64.13 114.851 -64.135 115.764 -64.14 116.705 C-64.129 120.927 -64.082 124.886 -63 129 C-62.34 129 -61.68 129 -61 129 C-61.016 128.287 -61.031 127.574 -61.048 126.839 C-61.338 111.596 -61.083 96.96 -58 82 C-57.855 81.288 -57.711 80.576 -57.562 79.843 C-53.106 58.613 -44.347 40.404 -29 25 C-29 28.628 -29.554 28.875 -32 31.375 C-52.91 54.482 -57.749 85.719 -58.562 115.625 C-58.606 117.121 -58.649 118.617 -58.693 120.113 C-58.799 123.742 -58.901 127.371 -59 131 C-61.375 131.125 -61.375 131.125 -64 131 C-66.842 128.158 -66.273 126.231 -66.301 122.254 C-66.306 121.575 -66.312 120.897 -66.318 120.198 C-66.33 117.986 -66.323 115.775 -66.312 113.562 C-66.311 112.811 -66.309 112.06 -66.307 111.287 C-66.183 80.991 -58.916 51.625 -39 28 C-38.301 27.08 -37.603 26.159 -36.883 25.211 C-36.261 24.481 -35.64 23.752 -35 23 C-34.34 23 -33.68 23 -33 23 C-32.737 22.397 -32.474 21.794 -32.202 21.173 C-30.931 18.875 -29.838 17.803 -27.762 16.23 C-27.112 15.737 -26.463 15.244 -25.793 14.735 C-25.098 14.225 -24.404 13.714 -23.688 13.188 C-22.977 12.66 -22.267 12.132 -21.535 11.589 C-5.622 0 -5.622 0 0 0 Z " fill="#000000" transform="translate(106,119)"/>
<path d="M0 0 C0 0.33 0 0.66 0 1 C-0.678 1.034 -1.355 1.069 -2.053 1.104 C-34.048 2.844 -61.074 11.313 -89 27 C-90.106 27.606 -91.212 28.212 -92.352 28.836 C-97.956 31.985 -103.259 35.475 -108.5 39.188 C-109.088 39.604 -109.676 40.02 -110.282 40.449 C-112.799 42.268 -115.093 44.094 -117.281 46.301 C-119 48 -119 48 -121 48 C-121.33 48.66 -121.66 49.32 -122 50 C-122.371 46.784 -122.351 45.443 -120.305 42.859 C-113.801 37.213 -107.017 32.477 -99.671 28.021 C-98.206 27.126 -96.759 26.198 -95.316 25.266 C-78.807 14.963 -59.858 7.621 -41 3 C-40.301 2.825 -39.601 2.65 -38.881 2.47 C-26.034 -0.617 -13.141 -0.324 0 0 Z " fill="#FFFFFF" transform="translate(174,96)"/>
<path d="M0 0 C-0.638 0.251 -1.276 0.501 -1.933 0.759 C-34.246 13.422 -34.246 13.422 -59 37 C-59.66 37 -60.32 37 -61 37 C-61.273 37.732 -61.547 38.464 -61.828 39.219 C-62.94 41.859 -64.214 44.089 -65.75 46.5 C-79.135 68.547 -83.809 92.699 -86.049 117.983 C-86.216 119.861 -86.216 119.861 -86.387 121.777 C-86.482 122.904 -86.577 124.03 -86.675 125.191 C-87 128 -87 128 -88 131 C-89.98 131 -91.96 131 -94 131 C-94 130.34 -94 129.68 -94 129 C-92.68 129 -91.36 129 -90 129 C-89.89 127.704 -89.781 126.409 -89.668 125.074 C-86.567 89.69 -79.893 50.46 -52.125 25.312 C-47.622 21.572 -42.893 18.209 -38 15 C-37.165 14.446 -36.329 13.891 -35.469 13.32 C-28.779 9.149 -21.764 6.035 -14.5 3 C-13.532 2.59 -12.563 2.179 -11.565 1.756 C-10.187 1.196 -10.187 1.196 -8.781 0.625 C-7.957 0.287 -7.133 -0.05 -6.283 -0.398 C-3.759 -1.063 -2.432 -0.86 0 0 Z " fill="#000000" transform="translate(146,118)"/>
<path d="M0 0 C24.879 -0.986 50.328 9.526 69.875 24.375 C74.241 27.674 77.604 29.185 83 30 C83 30.99 83 31.98 83 33 C72.894 33.532 67.749 30.107 60.137 23.742 C58.122 21.97 58.122 21.97 56 21 C56 20.34 56 19.68 56 19 C55.432 18.881 54.863 18.763 54.277 18.641 C51.813 17.947 49.821 16.953 47.562 15.75 C41.553 12.683 35.345 10.279 29 8 C28.329 7.756 27.657 7.513 26.966 7.261 C21.204 5.244 15.43 3.942 9.438 2.812 C8.524 2.635 7.611 2.458 6.67 2.275 C4.448 1.845 2.224 1.42 0 1 C0 0.67 0 0.34 0 0 Z " fill="#FFFFFF" transform="translate(285,121)"/>
<path d="M0 0 C2.605 4.054 3.712 7.932 4.801 12.594 C5.017 13.436 5.233 14.277 5.455 15.145 C6.457 19.186 7.289 22.898 6.988 27.094 C4.988 26.094 4.988 26.094 4.302 24.208 C4.103 23.401 3.904 22.593 3.699 21.762 C3.48 20.881 3.261 20 3.035 19.092 C2.813 18.164 2.592 17.237 2.363 16.281 C2.134 15.365 1.904 14.449 1.668 13.506 C0.695 9.53 -0.012 6.22 -0.012 2.094 C-1.571 2.511 -1.571 2.511 -3.161 2.936 C-7.02 3.965 -10.882 4.981 -14.746 5.994 C-16.417 6.434 -18.087 6.877 -19.756 7.324 C-22.157 7.966 -24.56 8.595 -26.965 9.223 C-27.71 9.425 -28.455 9.627 -29.222 9.835 C-32.896 10.78 -35.392 11.207 -39.012 10.094 C-35.652 7.854 -33.084 7.262 -29.156 6.367 C-28.495 6.215 -27.833 6.062 -27.151 5.905 C-25.044 5.42 -22.934 4.944 -20.824 4.469 C-19.392 4.141 -17.961 3.813 -16.529 3.484 C-13.025 2.681 -9.519 1.885 -6.012 1.094 C-13.77 0.692 -21.1 2.208 -28.695 3.648 C-30.12 3.913 -31.544 4.178 -32.968 4.441 C-35.944 4.993 -38.918 5.55 -41.892 6.111 C-45.681 6.825 -49.471 7.532 -53.262 8.236 C-56.907 8.913 -60.551 9.593 -64.195 10.273 C-65.221 10.465 -65.221 10.465 -66.267 10.66 C-75.262 12.335 -75.262 12.335 -84.188 14.333 C-87.68 15.028 -88.818 15.087 -92.012 14.094 C-89.132 12.512 -86.598 11.686 -83.367 11.121 C-81.921 10.861 -81.921 10.861 -80.445 10.596 C-79.374 10.41 -78.303 10.223 -77.199 10.031 C-74.786 9.601 -72.373 9.169 -69.961 8.734 C-69.29 8.614 -68.62 8.493 -67.929 8.369 C-61.658 7.232 -55.408 6.001 -49.156 4.766 C-45.995 4.145 -42.834 3.525 -39.673 2.905 C-37.578 2.492 -35.485 2.075 -33.391 1.655 C-30.402 1.056 -27.41 0.47 -24.418 -0.113 C-23.532 -0.294 -22.647 -0.475 -21.734 -0.662 C-5.867 -3.713 -5.867 -3.713 0 0 Z " fill="#000000" transform="translate(211.01171875,168.90625)"/>
<path d="M0 0 C-0.653 0.009 -1.305 0.019 -1.978 0.028 C-43.746 0.774 -81.742 14.936 -114.863 40.602 C-117 42 -117 42 -120 42 C-113.786 36.093 -107.398 31.321 -100 27 C-99.316 26.599 -98.631 26.198 -97.926 25.785 C-75.256 12.616 -26.635 -14.628 0 0 Z " fill="#000000" transform="translate(178,99)"/>
<path d="M0 0 C0 0.66 0 1.32 0 2 C1.98 2 3.96 2 6 2 C5.67 2.66 5.34 3.32 5 4 C2.83 4.363 2.83 4.363 -0.039 4.527 C-1.087 4.596 -2.136 4.664 -3.216 4.734 C-4.341 4.801 -5.466 4.868 -6.625 4.938 C-17.64 5.704 -27.938 7.202 -38.652 9.93 C-40.402 10.367 -40.402 10.367 -42.188 10.812 C-43.212 11.087 -44.237 11.362 -45.293 11.645 C-48.312 12.041 -49.493 11.646 -52 10 C-51.01 10 -50.02 10 -49 10 C-48.67 9.01 -48.34 8.02 -48 7 C-33.804 1.269 -15.188 0 0 0 Z " fill="#191919" transform="translate(194,106)"/>
<path d="M0 0 C-3.729 2.486 -7.427 3.127 -11.742 4.023 C-12.62 4.211 -13.499 4.398 -14.403 4.591 C-16.274 4.989 -18.145 5.384 -20.017 5.776 C-22.803 6.36 -25.587 6.952 -28.371 7.547 C-38.588 9.717 -48.822 11.771 -59.093 13.676 C-64.502 14.684 -69.826 15.882 -75.152 17.27 C-78.59 18.151 -82.038 18.965 -85.5 19.75 C-86.645 20.013 -87.789 20.276 -88.969 20.547 C-91.868 20.98 -93.268 20.797 -96 20 C-82.05 15.731 -68.111 12.423 -53.781 9.717 C-46.987 8.429 -40.201 7.102 -33.414 5.781 C-31.05 5.322 -28.686 4.866 -26.322 4.41 C-17.455 2.705 -17.455 2.705 -8.629 0.801 C-5.589 0.13 -3.089 -0.199 0 0 Z " fill="#FFFFFF" transform="translate(316,177)"/>
<path d="M0 0 C-2.383 2.383 -3.489 2.466 -6.758 3.043 C-7.76 3.226 -8.762 3.409 -9.795 3.598 C-10.894 3.793 -11.993 3.987 -13.125 4.188 C-23.658 6.124 -34.112 8.293 -44.562 10.625 C-52.91 12.486 -61.242 14.319 -69.688 15.688 C-75.866 16.698 -81.643 18.285 -87.559 20.328 C-90 21 -90 21 -92 20 C-82.019 14.335 -70.129 12.922 -59 10.75 C-56.695 10.296 -54.391 9.841 -52.087 9.387 C-50.496 9.073 -48.904 8.759 -47.313 8.447 C-41.571 7.316 -35.835 6.158 -30.102 4.988 C-27.714 4.503 -25.326 4.018 -22.938 3.534 C-21.405 3.221 -19.871 2.907 -18.338 2.592 C-16.197 2.152 -14.056 1.718 -11.914 1.285 C-10.697 1.036 -9.479 0.788 -8.225 0.531 C-5.401 0.066 -2.852 -0.111 0 0 Z " fill="#000000" transform="translate(313,176)"/>
<path d="M0 0 C2.562 0.5 2.562 0.5 4.438 2.562 C5.866 6.292 5.435 8.646 4.562 12.5 C4.233 13.16 3.902 13.82 3.562 14.5 C0.688 14.688 0.688 14.688 -2.438 14.5 C-4.436 11.503 -4.713 10.867 -4.688 7.5 C-4.693 6.819 -4.698 6.139 -4.703 5.438 C-4.252 2.145 -3.261 0.669 0 0 Z " fill="#000000" transform="translate(408.4375,363.5)"/>
<path d="M0 0 C3.062 -0.25 3.062 -0.25 6 0 C7.772 1.772 7 4.606 7 7 C7.206 7.908 7.413 8.815 7.625 9.75 C7.749 10.493 7.873 11.235 8 12 C6 14 6 14 3 14.25 C0 14 0 14 -2 12 C-1.701 9.995 -1.366 7.994 -1 6 C-1.33 5.01 -1.66 4.02 -2 3 C-1.34 2.01 -0.68 1.02 0 0 Z " fill="#3B3B3B" transform="translate(427,364)"/>
<path d="M0 0 C2.562 0.438 2.562 0.438 4.5 2.438 C6.034 6.769 5.004 9.112 3.562 13.438 C2.562 14.438 2.562 14.438 -0.5 14.5 C-1.469 14.479 -2.439 14.459 -3.438 14.438 C-4.125 11.947 -4.438 10.059 -4.438 7.438 C-4.479 6.592 -4.52 5.746 -4.562 4.875 C-4.385 1.419 -3.356 0.602 0 0 Z " fill="#101010" transform="translate(440.4375,363.5625)"/>
<path d="M0 0 C16.743 0.549 33.858 8.309 49 15 C49 15.66 49 16.32 49 17 C50.32 17.33 51.64 17.66 53 18 C49.315 19.228 48.562 18.652 45.09 17.121 C44.108 16.697 43.127 16.273 42.115 15.836 C41.067 15.374 40.018 14.913 38.938 14.438 C31.37 11.192 23.825 8.071 16 5.5 C15.303 5.27 14.605 5.04 13.886 4.802 C9.302 3.33 4.681 2.128 0 1 C0 0.67 0 0.34 0 0 Z " fill="#FFFFFF" transform="translate(182,98)"/>
<path d="M0 0 C2.31 0.33 4.62 0.66 7 1 C7.33 2.32 7.66 3.64 8 5 C7.051 4.67 6.103 4.34 5.125 4 C2.229 2.898 2.229 2.898 0 3 C0 3.99 0 4.98 0 6 C1.134 6.144 2.269 6.289 3.438 6.438 C7 7 7 7 8 8 C8.125 11 8.125 11 8 14 C6.105 15.895 3.429 15.18 0.91 15.23 C-1 15 -1 15 -3 13 C-3 12.01 -3 11.02 -3 10 C-2.01 10 -1.02 10 0 10 C0.33 10.66 0.66 11.32 1 12 C2.32 12 3.64 12 5 12 C5.33 11.34 5.66 10.68 6 10 C4.886 9.752 3.772 9.505 2.625 9.25 C-1 8 -1 8 -2.438 5.875 C-2.716 4.947 -2.716 4.947 -3 4 C-2.01 2.68 -1.02 1.36 0 0 Z " fill="#000000" transform="translate(389,363)"/>
<path d="M0 0 C9.181 0.874 17.418 2.556 26 6 C27.185 6.446 28.369 6.892 29.59 7.352 C36.286 9.901 42.425 12.377 48 17 C47.01 17.495 47.01 17.495 46 18 C43.637 16.961 43.637 16.961 40.688 15.375 C27.876 8.786 14.263 4.177 0 2 C0 1.34 0 0.68 0 0 Z " fill="#000000" transform="translate(291,123)"/>
<path d="M0 0 C0 0.66 0 1.32 0 2 C-0.99 2.495 -0.99 2.495 -2 3 C-1.977 4.265 -1.954 5.529 -1.93 6.832 C-1.911 8.492 -1.893 10.152 -1.875 11.812 C-1.858 12.646 -1.841 13.479 -1.824 14.338 C-1.818 15.14 -1.811 15.943 -1.805 16.77 C-1.794 17.508 -1.784 18.246 -1.773 19.007 C-2 21 -2 21 -4 24 C-4.33 20.7 -4.66 17.4 -5 14 C-5.66 14 -6.32 14 -7 14 C-8.739 10.522 -7.886 6.694 -7 3 C-4.54 0.294 -3.671 0 0 0 Z " fill="#424242" transform="translate(119,183)"/>
<path d="M0 0 C0 0.66 0 1.32 0 2 C0.66 2 1.32 2 2 2 C2 2.66 2 3.32 2 4 C-0.746 4.726 -3.496 5.431 -6.25 6.125 C-7.027 6.333 -7.805 6.54 -8.605 6.754 C-9.36 6.941 -10.114 7.128 -10.891 7.32 C-11.582 7.498 -12.273 7.676 -12.985 7.86 C-15.518 8.036 -16.851 7.285 -19 6 C-18.01 6 -17.02 6 -16 6 C-15.67 5.01 -15.34 4.02 -15 3 C-12.383 2.051 -12.383 2.051 -9.125 1.312 C-8.055 1.061 -6.985 0.81 -5.883 0.551 C-3 0 -3 0 0 0 Z " fill="#383838" transform="translate(161,110)"/>
<path d="M0 0 C-2.78 2.78 -5.897 2.94 -9.625 3.688 C-16.866 5.234 -23.329 7.599 -29.997 10.802 C-31.642 11.583 -33.319 12.298 -35 13 C-35.66 12.67 -36.32 12.34 -37 12 C-32.122 8.405 -27.197 6.377 -21.5 4.375 C-20.671 4.076 -19.842 3.777 -18.988 3.469 C-17.383 2.892 -15.776 2.322 -14.167 1.758 C-12.311 1.109 -10.464 0.439 -8.617 -0.234 C-5.424 -1.169 -3.204 -0.763 0 0 Z " fill="#000000" transform="translate(143,107)"/>
<path d="M0 0 C7.77 2.129 15.138 4.95 22.562 8.062 C23.654 8.509 24.745 8.956 25.869 9.416 C26.904 9.847 27.938 10.278 29.004 10.723 C29.94 11.112 30.877 11.501 31.842 11.903 C34 13 34 13 35 15 C31.646 14.405 28.641 13.576 25.488 12.293 C24.647 11.953 23.806 11.614 22.939 11.264 C22.073 10.909 21.206 10.553 20.312 10.188 C19.465 9.844 18.617 9.5 17.744 9.146 C16.035 8.454 14.327 7.76 12.62 7.064 C8.42 5.358 4.21 3.679 0 2 C0 1.34 0 0.68 0 0 Z " fill="#000000" transform="translate(198,103)"/>
<path d="M0 0 C2.97 0 5.94 0 9 0 C8.346 5.07 6.145 9.42 4 14 C3.34 14 2.68 14 2 14 C2.468 9.944 2.88 6.534 5 3 C3.35 2.67 1.7 2.34 0 2 C0 1.34 0 0.68 0 0 Z " fill="#000000" transform="translate(415,364)"/>
<path d="M0 0 C1.98 0.495 1.98 0.495 4 1 C4 3.64 4 6.28 4 9 C2.68 9 1.36 9 0 9 C-1.125 3.375 -1.125 3.375 0 0 Z " fill="#FFFFFF" transform="translate(407,366)"/>
<path d="M0 0 C0.799 0.111 1.598 0.222 2.422 0.336 C3.327 0.479 3.327 0.479 4.25 0.625 C3.652 0.914 3.054 1.203 2.438 1.5 C0.057 2.672 0.057 2.672 -2.75 4.625 C-5.938 4.25 -5.938 4.25 -8.75 3.625 C-8.75 2.965 -8.75 2.305 -8.75 1.625 C-5.575 -0.283 -3.644 -0.536 0 0 Z " fill="#555555" transform="translate(152.75,103.375)"/>
<path d="M0 0 C0 0.66 0 1.32 0 2 C1.98 2 3.96 2 6 2 C5.67 2.66 5.34 3.32 5 4 C0.71 4 -3.58 4 -8 4 C-7.67 3.01 -7.34 2.02 -7 1 C-2.25 0 -2.25 0 0 0 Z " fill="#000000" transform="translate(194,106)"/>
<path d="M0 0 C-2.421 2.421 -3.801 2.528 -7.125 3.125 C-8.035 3.293 -8.945 3.46 -9.883 3.633 C-10.581 3.754 -11.28 3.875 -12 4 C-11 1 -11 1 -8.812 -0.25 C-5.518 -1.129 -3.292 -0.766 0 0 Z " fill="#7B7B7B" transform="translate(143,107)"/>
<path d="M0 0 C0.99 0 1.98 0 3 0 C3.33 0.99 3.66 1.98 4 3 C3.67 3.66 3.34 4.32 3 5 C1.68 4.67 0.36 4.34 -1 4 C-0.67 2.68 -0.34 1.36 0 0 Z " fill="#FFFFFF" transform="translate(439,366)"/>
</svg>
