<?xml version="1.0" encoding="UTF-8"?>
<!-- Generator: visioncortex VTracer 0.6.4 -->
<svg version="1.1" xmlns="http://www.w3.org/2000/svg" width="338" height="287">
<path d="M0 0 C111.54 0 223.08 0 338 0 C338 94.71 338 189.42 338 287 C226.46 287 114.92 287 0 287 C0 192.29 0 97.58 0 0 Z " fill="#FFFFFF" transform="translate(0,0)"/>
<path d="M0 0 C13.058 6.297 25.818 12.826 37.25 21.812 C40.845 24.596 43.85 26.525 48.188 27.875 C53.308 29.499 57.326 31.971 61.75 34.938 C72.156 41.906 83.057 47.924 94 54 C96.338 55.302 98.675 56.606 101.01 57.914 C102.323 58.648 103.637 59.381 104.953 60.11 C106.646 61.055 108.323 62.027 110 63 C111.124 63.639 112.248 64.279 113.406 64.938 C116 67 116 67 116.621 69.402 C116.561 70.239 116.5 71.076 116.438 71.938 C116.374 73.189 116.374 73.189 116.309 74.465 C116 77 116 77 115.48 79.422 C114.406 85.187 114.883 91.157 115 97 C115.018 97.978 115.036 98.956 115.054 99.963 C115.122 103.185 115.214 106.404 115.312 109.625 C115.346 111.19 115.346 111.19 115.38 112.786 C115.572 118.116 115.839 121.552 119 126 C121.979 137.048 120.771 147.883 119.117 159.012 C118.965 160.079 118.813 161.147 118.657 162.247 C118.348 164.384 118.019 166.519 117.665 168.65 C116.758 174.777 116.758 174.777 118.75 180.539 C121.23 183.257 121.23 183.257 123.812 185.875 C126.342 189.489 126.342 189.489 126 193.062 C124.903 198.296 123.19 201.096 118.875 204.375 C114.545 206.581 110.601 206.232 106 205 C101.834 203.046 97.967 200.678 94.062 198.25 C79.739 188.761 79.739 188.761 63.375 185.438 C56.972 185.272 52.27 184.771 47 181 C45.946 180.29 45.946 180.29 44.871 179.566 C43.219 178.431 41.579 177.277 39.949 176.109 C36.432 173.594 32.877 171.137 29.312 168.688 C28.623 168.213 27.934 167.739 27.223 167.251 C22.203 163.807 17.148 160.42 12.074 157.056 C5.316 152.565 -1.377 147.979 -8.076 143.401 C-13.795 139.496 -19.537 135.631 -25.309 131.805 C-28.271 129.819 -31.199 127.788 -34.125 125.75 C-39.337 122.128 -44.592 118.58 -49.875 115.062 C-50.636 114.555 -51.397 114.047 -52.181 113.524 C-55.852 111.078 -59.532 108.65 -63.238 106.258 C-81.355 94.514 -81.355 94.514 -84 85 C-84.449 81.118 -84.477 77.28 -84.438 73.375 C-84.428 72.306 -84.418 71.236 -84.408 70.134 C-84.138 58.091 -82.336 49.117 -73.535 40.273 C-66.93 34.35 -60.018 29.758 -52.062 25.875 C-51.424 25.555 -50.785 25.235 -50.126 24.906 C-45.629 22.828 -45.629 22.828 -42.605 23.656 C-40.378 25.521 -40.297 27.183 -40 30 C-39.051 30.309 -38.102 30.619 -37.125 30.938 C-34 32 -34 32 -32 33 C-30.002 32.064 -28.158 30.945 -26.266 29.812 C-23.047 28.658 -21.299 29.078 -18 30 C-15.112 31.363 -12.374 32.94 -9.625 34.562 C-8.889 34.987 -8.153 35.412 -7.395 35.85 C-5.592 36.892 -3.795 37.945 -2 39 C-1.41 27.559 -0.861 16.161 -1.062 4.703 C-1 2 -1 2 0 0 Z " fill="#0E0E0E" transform="translate(110,8)"/>
<path d="M0 0 C0.766 0.467 1.531 0.933 2.32 1.414 C3.256 1.964 4.192 2.515 5.156 3.082 C6.242 3.728 7.327 4.374 8.445 5.039 C10.517 6.198 12.597 7.339 14.678 8.481 C24.462 13.856 34.121 19.444 43.76 25.074 C44.968 25.766 46.2 26.416 47.445 27.039 C47.445 25.389 47.445 23.739 47.445 22.039 C52.099 20.488 56.196 20.142 60.765 21.964 C63.192 23.224 65.538 24.569 67.883 25.977 C68.697 26.445 69.511 26.914 70.35 27.396 C76.186 30.779 76.186 30.779 77.445 32.039 C77.518 34.225 77.529 36.414 77.508 38.602 C77.499 39.799 77.49 40.997 77.48 42.23 C77.469 43.157 77.457 44.084 77.445 45.039 C78.043 45.266 78.642 45.493 79.258 45.727 C84.548 48.9 85.515 55.222 86.926 60.812 C87.143 61.654 87.361 62.496 87.586 63.364 C88.042 65.14 88.495 66.917 88.944 68.694 C89.63 71.401 90.332 74.103 91.037 76.805 C91.48 78.536 91.922 80.268 92.363 82 C92.573 82.801 92.782 83.603 92.998 84.428 C95.744 95.442 95.744 95.442 93.445 100.039 C88.249 101.49 85.305 100.969 80.754 98.488 C80.075 98.092 79.395 97.697 78.695 97.289 C77.959 96.88 77.223 96.471 76.465 96.05 C74.112 94.734 71.778 93.39 69.445 92.039 C68.707 91.615 67.969 91.191 67.209 90.754 C64.17 89.008 61.135 87.254 58.108 85.486 C51.328 81.526 44.488 77.679 37.633 73.852 C21.487 64.833 21.487 64.833 14.926 61.027 C12.164 59.431 9.366 57.91 6.559 56.395 C4.833 55.443 3.108 54.491 1.383 53.539 C0.572 53.112 -0.239 52.685 -1.074 52.245 C-10.267 47.113 -13.178 39.128 -17.055 29.727 C-17.832 27.868 -18.611 26.01 -19.391 24.152 C-19.76 23.27 -20.13 22.388 -20.511 21.479 C-22.174 17.592 -23.999 13.789 -25.875 10 C-26.555 8.039 -26.555 8.039 -25.555 5.039 C-23.195 3.816 -20.956 2.81 -18.492 1.852 C-17.848 1.579 -17.204 1.306 -16.541 1.025 C-10.994 -1.181 -5.778 -2.173 0 0 Z " fill="#FFFFFF" transform="translate(63.5546875,179.9609375)"/>
<path d="M0 0 C0.51 0.572 1.021 1.145 1.547 1.734 C4.535 4.494 7.701 6.303 11.25 8.25 C12.225 8.795 12.225 8.795 13.219 9.352 C14.809 10.24 16.404 11.121 18 12 C18.33 11.01 18.66 10.02 19 9 C19.597 9.329 20.194 9.657 20.809 9.996 C25.184 12.395 29.564 14.78 33.988 17.086 C42.244 21.394 50.313 25.877 58.242 30.762 C63.063 33.684 68.038 36.326 73 39 C73.958 39.517 74.917 40.035 75.904 40.568 C77.866 41.627 79.827 42.685 81.789 43.743 C97.394 52.166 112.734 60.981 128 70 C127.826 70.604 127.652 71.208 127.473 71.831 C125.208 80.052 126.669 87.747 128 96 C127.014 95.134 126.028 94.267 125.012 93.375 C121.098 90.023 117.005 86.992 112.812 84 C112.037 83.443 111.262 82.886 110.463 82.312 C103.834 77.565 97.153 72.895 90.464 68.232 C84.195 63.856 77.99 59.398 71.804 54.906 C65.25 50.156 58.621 45.518 51.982 40.888 C46.831 37.292 41.719 33.651 36.652 29.938 C33.345 27.522 30.019 25.133 26.688 22.75 C26.112 22.337 25.537 21.924 24.944 21.499 C16.77 15.113 16.77 15.113 7 13 C4.354 13.957 1.901 15.143 -0.617 16.398 C-5.562 18.74 -10.676 20.605 -15.806 22.5 C-21.313 24.539 -21.313 24.539 -26 28 C-27.801 33.404 -27.227 39.22 -27.25 44.875 C-27.271 46.155 -27.291 47.435 -27.312 48.754 C-27.32 50.604 -27.32 50.604 -27.328 52.492 C-27.342 54.184 -27.342 54.184 -27.356 55.91 C-26.948 59.448 -26.183 61.2 -24 64 C-21.712 65.799 -21.712 65.799 -19.02 67.27 C-18.019 67.849 -17.018 68.428 -15.986 69.025 C-14.939 69.615 -13.892 70.205 -12.812 70.812 C-11.815 71.391 -10.818 71.969 -9.791 72.564 C-2.087 76.98 5.798 80.963 13.756 84.889 C17.827 86.905 21.883 88.949 25.941 90.988 C42.692 99.391 59.436 107.786 76.379 115.797 C80.643 117.816 84.856 119.925 89.062 122.062 C96.216 125.692 103.511 128.985 110.828 132.27 C117.335 135.204 123.743 138.288 130.078 141.576 C133.013 143.085 135.737 144.408 139 145 C139 144.01 139 143.02 139 142 C139.99 142.33 140.98 142.66 142 143 C142.329 143.896 142.657 144.792 142.996 145.715 C146.079 150.77 150.777 152.21 156.062 154.562 C158.081 155.465 160.093 156.383 162.098 157.316 C162.99 157.713 163.882 158.109 164.801 158.518 C167.546 160.368 168.147 161.843 169 165 C168.566 167.168 168.566 167.168 167.562 169.188 C167.254 169.862 166.946 170.536 166.629 171.23 C163.994 174.093 161.821 174.515 158 175 C155.019 173.986 152.551 172.358 149.938 170.625 C148.443 169.691 146.948 168.757 145.453 167.824 C144.71 167.35 143.967 166.876 143.201 166.388 C139.914 164.315 136.56 162.368 133.188 160.438 C132.088 159.797 130.988 159.156 129.855 158.496 C124.443 155.66 119.203 155.744 113.195 155.658 C104.381 155.298 98.047 150.555 91.125 145.5 C85.256 141.286 79.34 137.172 73.312 133.188 C66.378 128.598 59.49 123.943 52.625 119.25 C46.077 114.774 39.514 110.328 32.902 105.945 C28.617 103.073 24.377 100.136 20.131 97.206 C15.01 93.679 9.847 90.22 4.665 86.783 C-0.779 83.165 -6.169 79.47 -11.547 75.754 C-12.172 75.322 -12.797 74.89 -13.441 74.445 C-14.041 74.03 -14.641 73.615 -15.259 73.187 C-16.908 72.063 -18.584 70.979 -20.262 69.898 C-22.67 68.229 -24.397 66.74 -26.25 64.5 C-26.73 63.933 -27.209 63.366 -27.703 62.781 C-31.662 57.344 -31.333 52.469 -31.312 45.938 C-31.329 44.951 -31.345 43.964 -31.361 42.947 C-31.369 30.882 -28.713 21.785 -20.184 13.164 C-14.199 7.627 -7.301 3.567 0 0 Z " fill="#FFFFFF" transform="translate(59,36)"/>
<path d="M0 0 C7.799 2.937 14.651 7.488 21.113 12.703 C23.004 14.108 23.004 14.108 25.438 14.957 C28.259 16.105 30.277 17.585 32.688 19.438 C36.09 21.894 38.862 23.451 42.938 24.438 C47.017 25.457 49.651 27.026 52.961 29.602 C59.232 34.284 65.868 38.121 72.688 41.938 C73.929 42.639 75.17 43.341 76.411 44.044 C81.654 47.01 86.912 49.951 92.168 52.895 C92.896 53.303 93.624 53.711 94.374 54.131 C95.65 54.844 96.927 55.555 98.206 56.261 C107.347 61.347 107.347 61.347 110 64 C110.136 67.663 110.165 70.506 109 74 C108.796 76.628 108.628 79.243 108.5 81.875 C108.281 86.323 108.024 90.65 107 95 C107.66 94.67 108.32 94.34 109 94 C109 99.61 109 105.22 109 111 C106.982 109.73 104.964 108.461 102.945 107.191 C101.022 105.975 101.022 105.975 99 105 C96.591 98.847 94.998 92.54 94.125 86 C93.526 82.202 92.853 80.296 89.875 77.812 C88.926 77.214 87.978 76.616 87 76 C88.108 84.2 89.617 92.072 92 100 C89.028 98.875 86.666 97.777 84 96 C84.33 94.35 84.66 92.7 85 91 C85.66 91 86.32 91 87 91 C87 89.35 87 87.7 87 86 C86.229 85.799 85.458 85.598 84.664 85.391 C79.528 83.442 75.055 80.604 70.375 77.75 C64.293 74.049 58.41 70.617 51.812 67.938 C48.319 66.311 47.272 65.63 45.727 62.051 C44.938 58.75 44.938 58.75 44.527 55.609 C44.25 52.657 44.25 52.657 41 51 C41.495 55.95 41.495 55.95 42 61 C28.849 54.689 16.175 47.587 3.495 40.385 C1.361 39.2 -0.816 38.092 -3 37 C-3 26.44 -3 15.88 -3 5 C-2.01 4.67 -1.02 4.34 0 4 C1.257 6.906 2 8.796 2 12 C2.33 11.67 2.66 11.34 3 11 C2.783 10.457 2.567 9.915 2.344 9.355 C1.926 8.282 1.926 8.282 1.5 7.188 C1.222 6.48 0.943 5.772 0.656 5.043 C0 3 0 3 0 0 Z " fill="#FFFFFF" transform="translate(114,13)"/>
<path d="M0 0 C2.616 1.552 4.944 3.409 7.312 5.312 C8.741 6.423 10.172 7.531 11.605 8.637 C12.334 9.201 13.063 9.764 13.814 10.345 C17.173 12.888 20.638 15.262 24.125 17.625 C31.499 22.637 38.765 27.789 46 33 C45.01 33.495 45.01 33.495 44 34 C41.658 33.021 39.325 32.02 37 31 C36.01 31 35.02 31 34 31 C33.381 30.319 32.763 29.639 32.125 28.938 C31.073 27.978 31.073 27.978 30 27 C27.293 27.14 27.293 27.14 25 28 C25 30.31 25 32.62 25 35 C24.09 34.899 23.18 34.799 22.242 34.695 C18.887 34.663 18.887 34.663 16.883 37.117 C16.013 38.482 16.013 38.482 15.125 39.875 C14.529 40.78 13.934 41.685 13.32 42.617 C11.838 44.838 11.838 44.838 12 47 C12.99 45.68 13.98 44.36 15 43 C15.098 43.626 15.196 44.253 15.297 44.898 C15.446 45.716 15.596 46.533 15.75 47.375 C15.889 48.187 16.028 48.999 16.172 49.836 C17.262 52.684 18.264 52.754 21 54 C22.809 54.937 24.616 55.877 26.422 56.82 C27.447 57.355 28.471 57.89 29.527 58.441 C30.591 58.997 31.654 59.553 32.75 60.125 C33.829 60.688 34.908 61.252 36.02 61.832 C38.68 63.221 41.34 64.61 44 66 C43.67 66.66 43.34 67.32 43 68 C37.395 66.422 32.649 63.736 27.625 60.875 C26.794 60.407 25.962 59.939 25.105 59.457 C23.068 58.309 21.033 57.157 19 56 C21.776 58.776 25.824 60.523 29.188 62.5 C30.465 63.268 30.465 63.268 31.768 64.051 C36.169 66.631 39.791 68.659 45 69 C45.99 73.455 45.99 73.455 47 78 C51.236 79.009 51.236 79.009 55.375 78.062 C55.911 77.712 56.447 77.361 57 77 C57.681 77.745 58.361 78.49 59.062 79.258 C61.991 82.18 65.309 84.061 69 85.875 C69.603 86.195 70.207 86.514 70.828 86.844 C73.762 88.311 75.641 89.037 78.938 88.695 C79.618 88.466 80.299 88.236 81 88 C81.474 89.114 81.949 90.228 82.438 91.375 C83.253 93.267 84.079 95.157 85 97 C83.664 96.592 82.331 96.173 81 95.75 C80.257 95.518 79.515 95.286 78.75 95.047 C76.5 94.19 74.47 93.255 72.334 92.162 C68.243 90.101 64.096 88.206 59.906 86.355 C59.156 86.023 58.407 85.69 57.634 85.347 C55.257 84.292 52.878 83.24 50.5 82.188 C48.937 81.494 47.375 80.801 45.812 80.107 C44.26 79.419 42.708 78.731 41.156 78.043 C40.396 77.706 39.635 77.368 38.851 77.02 C35.025 75.326 31.193 73.648 27.348 71.999 C26.241 71.522 26.241 71.522 25.113 71.035 C23.718 70.436 22.322 69.84 20.923 69.248 C18.175 68.064 16.137 67.137 14 65 C15 66 15 66 16 68 C18.122 69.054 18.122 69.054 20.812 70.062 C26.437 72.332 31.975 74.75 37.5 77.25 C38.357 77.637 39.213 78.024 40.096 78.422 C42.731 79.614 45.366 80.807 48 82 C50.456 83.112 52.912 84.224 55.369 85.333 C56.998 86.07 58.627 86.808 60.254 87.549 C64.867 89.638 69.506 91.632 74.195 93.543 C75.235 93.974 76.274 94.404 77.344 94.848 C79.356 95.678 81.374 96.492 83.4 97.287 C89.674 99.898 92.476 102.196 96 108 C97.693 109.678 97.693 109.678 99.312 110.812 C100.199 111.534 101.086 112.256 102 113 C102 113.66 102 114.32 102 115 C97.798 113.681 93.906 112.094 89.949 110.164 C88.788 109.6 87.627 109.037 86.431 108.456 C85.183 107.846 83.935 107.235 82.688 106.625 C81.39 105.994 80.093 105.364 78.795 104.734 C76.146 103.447 73.498 102.159 70.85 100.871 C65.201 98.123 59.539 95.404 53.875 92.688 C52.851 92.195 51.827 91.703 50.772 91.197 C46.13 88.969 41.484 86.752 36.82 84.57 C28.5 80.676 20.296 76.653 12.203 72.304 C7.492 69.774 2.736 67.36 -2.062 65 C-34.813 48.78 -34.813 48.78 -40 41 C-40.442 36.66 -40.324 32.298 -40.312 27.938 C-40.329 26.728 -40.345 25.518 -40.361 24.271 C-40.362 23.118 -40.363 21.965 -40.363 20.777 C-40.366 19.718 -40.369 18.658 -40.372 17.566 C-40.249 16.719 -40.127 15.872 -40 15 C-39.01 14.34 -38.02 13.68 -37 13 C-37.001 13.792 -37.002 14.583 -37.003 15.399 C-36.991 18.996 -36.934 22.591 -36.875 26.188 C-36.878 27.433 -36.88 28.679 -36.883 29.963 C-36.874 37.079 -36.874 37.079 -33.484 43.055 C-31.76 44.018 -31.76 44.018 -30 45 C-29.345 45.396 -28.689 45.792 -28.014 46.199 C-25.83 47.506 -23.614 48.728 -21.375 49.938 C-20.586 50.369 -19.797 50.801 -18.984 51.246 C-8.899 57.717 -8.899 57.717 2 61 C1.34 60.34 0.68 59.68 0 59 C-0.042 56.96 -0.042 56.96 0.148 54.484 C0.266 48.527 -1.633 44.439 -4.375 39.25 C-5.198 37.632 -6.019 36.012 -6.836 34.391 C-7.408 33.264 -7.408 33.264 -7.991 32.115 C-9.248 29.481 -10.179 26.798 -11 24 C-10.216 24.186 -9.433 24.371 -8.625 24.562 C-6.029 25.26 -6.029 25.26 -4 24 C-4.3 18.758 -4.3 18.758 -6.188 14 C-8.812 12.552 -11.062 12.804 -14 13 C-14.33 14.32 -14.66 15.64 -15 17 C-17.333 14.667 -19.667 12.333 -22 10 C-22 9.01 -22 8.02 -22 7 C-19.275 5.822 -16.546 4.658 -13.812 3.5 C-12.659 2.999 -12.659 2.999 -11.482 2.488 C-3.605 -0.825 -3.605 -0.825 0 0 Z M5 51 C5 54.63 5 58.26 5 62 C5.33 62 5.66 62 6 62 C6.33 59.03 6.66 56.06 7 53 C7.99 52.67 8.98 52.34 10 52 C8.35 51.67 6.7 51.34 5 51 Z " fill="#FFFFFF" transform="translate(74,52)"/>
<path d="M0 0 C5.309 2.553 10.208 5.297 15.062 8.625 C16.379 9.514 17.695 10.404 19.012 11.293 C19.675 11.743 20.338 12.194 21.021 12.658 C29.619 18.489 38.288 24.216 47 29.875 C48.041 30.554 48.041 30.554 49.103 31.246 C53.327 33.98 57.61 36.542 62 39 C55.834 53.813 55.834 53.813 51.418 56.672 C49.719 57.212 48.005 57.707 46.277 58.148 C42.717 59.48 41.508 61.968 39.742 65.195 C38.873 66.983 38.873 66.983 39 69 C39.66 68.34 40.32 67.68 41 67 C40.67 68.98 40.34 70.96 40 73 C37.433 74.024 35.671 74.264 33.074 73.242 C30.831 72.048 28.666 70.767 26.5 69.438 C25.754 69.006 25.007 68.575 24.238 68.131 C14.221 62.129 10.422 54.003 7.656 42.984 C7.261 41.242 6.876 39.497 6.5 37.75 C6.294 36.816 6.087 35.881 5.874 34.918 C4.355 27.928 2.983 20.911 1.688 13.875 C1.516 12.945 1.345 12.016 1.168 11.058 C1.013 10.19 0.859 9.323 0.699 8.43 C0.563 7.669 0.428 6.908 0.288 6.125 C0 4 0 4 0 0 Z " fill="#FFFFFF" transform="translate(240,155)"/>
<path d="M0 0 C2.035 1.03 4.017 2.128 6 3.255 C11.794 6.439 17.616 9.435 23.625 12.192 C30.07 15.165 36.337 18.382 42.581 21.753 C48.903 25.139 55.362 28.202 61.883 31.186 C71.483 35.626 71.483 35.626 73.125 39.63 C73.125 42.192 73.125 42.192 71.563 44.255 C69.125 46.192 69.125 46.192 66.246 47.829 C62.386 50.752 60.83 53.661 58.75 57.942 C58.396 58.64 58.041 59.337 57.676 60.055 C56.812 61.761 55.967 63.475 55.125 65.192 C54.465 65.192 53.805 65.192 53.125 65.192 C53.849 61.698 55.188 58.672 56.688 55.442 C57.143 54.457 57.598 53.472 58.067 52.458 C58.591 51.336 58.591 51.336 59.125 50.192 C58.571 50.553 58.017 50.914 57.446 51.286 C56.721 51.75 55.997 52.214 55.25 52.692 C54.531 53.156 53.812 53.62 53.071 54.098 C51.125 55.192 51.125 55.192 49.125 55.192 C48.839 55.764 48.553 56.337 48.258 56.927 C46.547 60.348 44.836 63.77 43.125 67.192 C42.465 67.192 41.805 67.192 41.125 67.192 C41.689 63.269 42.826 60.701 45.063 57.442 C45.587 56.664 46.112 55.885 46.653 55.083 C48.125 53.192 48.125 53.192 50.125 52.192 C50.125 51.202 50.125 50.212 50.125 49.192 C50.125 48.202 50.125 47.212 50.125 46.192 C48.552 44.871 48.552 44.871 46.426 43.774 C45.636 43.329 44.846 42.884 44.032 42.425 C43.176 41.956 42.32 41.488 41.438 41.005 C39.67 40.01 37.903 39.014 36.137 38.016 C35.271 37.531 34.405 37.045 33.513 36.545 C28.289 33.585 23.217 30.373 18.125 27.192 C6.572 19.982 -4.972 12.814 -16.875 6.192 C-19.171 9.637 -19.415 12.13 -19.875 16.192 C-19.366 16.429 -18.856 16.667 -18.332 16.911 C-14.967 18.665 -11.774 20.676 -8.562 22.692 C-7.855 23.135 -7.148 23.578 -6.419 24.034 C-1.088 27.391 4.17 30.847 9.397 34.363 C14.206 37.595 19.064 40.746 23.938 43.88 C30.101 47.846 36.176 51.909 42.125 56.192 C41.135 56.687 41.135 56.687 40.125 57.192 C37.644 55.831 35.307 54.417 32.938 52.88 C32.215 52.419 31.492 51.958 30.748 51.483 C25.626 48.203 20.553 44.849 15.505 41.457 C9.402 37.359 3.257 33.327 -2.894 29.303 C-4.086 28.523 -5.278 27.742 -6.47 26.961 C-8.152 25.859 -9.836 24.758 -11.519 23.657 C-12.503 23.014 -13.486 22.37 -14.499 21.708 C-16.769 20.202 -16.769 20.202 -18.875 19.192 C-15.858 51.411 -15.858 51.411 -2.875 80.192 C0.164 82.49 0.164 82.49 3.563 84.38 C4.675 85.033 5.788 85.687 6.934 86.36 C7.987 86.965 9.04 87.569 10.125 88.192 C11.003 88.766 11.881 89.339 12.785 89.93 C15.269 91.509 15.269 91.509 19.125 91.192 C19.579 90.058 20.033 88.923 20.5 87.755 C22.125 84.192 22.125 84.192 24.125 83.192 C24.125 84.182 24.125 85.172 24.125 86.192 C24.785 85.862 25.445 85.532 26.125 85.192 C25.803 88.089 25.511 90.511 24.063 93.067 C20.892 94.908 17.65 94.707 14.125 94.192 C11.014 92.955 8.265 91.286 5.438 89.505 C4.705 89.07 3.972 88.635 3.217 88.186 C-6.605 82.208 -10.55 75.577 -13.437 64.618 C-13.928 62.583 -14.406 60.545 -14.875 58.505 C-15.128 57.417 -15.382 56.329 -15.643 55.208 C-24.519 16.481 -24.519 16.481 -21.176 6.001 C-19.375 3.497 -17.374 2.373 -14.687 0.88 C-13.766 0.347 -12.844 -0.185 -11.894 -0.734 C-7.54 -2.283 -4.244 -1.829 0 0 Z " fill="#000000" transform="translate(259.874755859375,136.807861328125)"/>
<path d="M0 0 C0.766 0.467 1.531 0.933 2.32 1.414 C3.256 1.964 4.192 2.515 5.156 3.082 C6.242 3.728 7.327 4.374 8.445 5.039 C10.517 6.198 12.597 7.339 14.678 8.481 C24.462 13.856 34.121 19.444 43.76 25.074 C44.968 25.766 46.2 26.416 47.445 27.039 C47.445 25.389 47.445 23.739 47.445 22.039 C52.099 20.488 56.196 20.142 60.765 21.964 C63.192 23.224 65.538 24.569 67.883 25.977 C68.697 26.445 69.511 26.914 70.35 27.396 C76.186 30.779 76.186 30.779 77.445 32.039 C77.518 34.225 77.529 36.414 77.508 38.602 C77.499 39.799 77.49 40.997 77.48 42.23 C77.469 43.157 77.457 44.084 77.445 45.039 C78.043 45.266 78.642 45.493 79.258 45.727 C84.548 48.9 85.515 55.222 86.926 60.812 C87.143 61.654 87.361 62.496 87.586 63.364 C88.042 65.14 88.495 66.917 88.944 68.694 C89.63 71.401 90.332 74.103 91.037 76.805 C91.48 78.536 91.922 80.268 92.363 82 C92.573 82.801 92.782 83.603 92.998 84.428 C95.744 95.442 95.744 95.442 93.445 100.039 C88.249 101.49 85.305 100.969 80.754 98.488 C80.075 98.092 79.395 97.697 78.695 97.289 C77.959 96.88 77.223 96.471 76.465 96.05 C74.112 94.734 71.778 93.39 69.445 92.039 C68.707 91.615 67.969 91.191 67.209 90.754 C64.17 89.008 61.135 87.254 58.108 85.486 C51.328 81.526 44.488 77.679 37.633 73.852 C21.487 64.833 21.487 64.833 14.926 61.027 C12.164 59.431 9.366 57.91 6.559 56.395 C4.833 55.443 3.108 54.491 1.383 53.539 C0.572 53.112 -0.239 52.685 -1.074 52.245 C-10.267 47.113 -13.178 39.128 -17.055 29.727 C-17.832 27.868 -18.611 26.01 -19.391 24.152 C-19.76 23.27 -20.13 22.388 -20.511 21.479 C-22.174 17.592 -23.999 13.789 -25.875 10 C-26.555 8.039 -26.555 8.039 -25.555 5.039 C-23.195 3.816 -20.956 2.81 -18.492 1.852 C-17.848 1.579 -17.204 1.306 -16.541 1.025 C-10.994 -1.181 -5.778 -2.173 0 0 Z M-18.43 4.539 C-19.88 5.235 -19.88 5.235 -21.359 5.945 C-22.084 6.306 -22.808 6.667 -23.555 7.039 C-21.46 13.708 -18.945 20.122 -16.18 26.539 C-15.806 27.425 -15.432 28.31 -15.047 29.223 C-13.922 31.847 -12.743 34.442 -11.555 37.039 C-11.232 37.831 -10.908 38.624 -10.575 39.44 C-7.176 46.827 -1.471 49.694 5.508 53.414 C6.683 54.063 7.857 54.714 9.03 55.366 C11.386 56.673 13.748 57.965 16.119 59.244 C19.044 60.823 21.958 62.419 24.867 64.027 C28.107 65.818 31.352 67.598 34.602 69.371 C39.688 72.159 44.726 75.029 49.758 77.914 C50.612 78.403 51.467 78.893 52.347 79.397 C56.07 81.53 59.793 83.664 63.513 85.803 C66.633 87.595 69.758 89.38 72.883 91.164 C74.331 91.999 74.331 91.999 75.808 92.851 C80.268 95.391 84.453 97.689 89.445 99.039 C89.775 98.709 90.105 98.379 90.445 98.039 C90.268 92.148 88.974 86.401 87.52 80.715 C87.331 79.965 87.142 79.215 86.947 78.442 C86.549 76.873 86.148 75.304 85.744 73.736 C85.132 71.35 84.539 68.96 83.947 66.568 C83.556 65.034 83.163 63.499 82.77 61.965 C82.596 61.258 82.423 60.552 82.245 59.824 C81.042 55.253 79.391 51.742 76.445 48.039 C74.96 47.544 74.96 47.544 73.445 47.039 C72.888 47.812 72.888 47.812 72.32 48.602 C70.445 50.039 70.445 50.039 67.711 49.812 C61.938 48.445 57.055 45.755 52.445 42.039 C51.014 39.432 50.217 37.171 49.582 34.273 C48.111 31.382 46.331 30.876 43.374 29.777 C40.226 28.572 37.36 26.84 34.445 25.164 C33.048 24.37 31.651 23.575 30.254 22.781 C29.494 22.348 28.735 21.914 27.953 21.468 C24.157 19.305 20.353 17.156 16.549 15.007 C14.567 13.887 12.585 12.767 10.604 11.645 C8.759 10.601 6.912 9.561 5.063 8.525 C3.35 7.553 1.65 6.557 -0.036 5.537 C-6.921 1.443 -11.038 0.933 -18.43 4.539 Z " fill="#141414" transform="translate(63.5546875,179.9609375)"/>
<path d="M0 0 C0.639 0.804 1.279 1.609 1.938 2.438 C2.958 3.706 2.958 3.706 4 5 C5.454 5.093 5.454 5.093 6.938 5.188 C10 6 10 6 11.25 7.711 C12.624 10.431 13.82 13.19 15 16 C15.585 17.327 16.172 18.652 16.762 19.977 C18.254 23.341 19.728 26.713 21.178 30.096 C21.732 31.379 22.295 32.658 22.867 33.933 C24.615 37.868 25.481 40.67 25 45 C24.062 47.188 24.062 47.188 23 49 C22.67 49.99 22.34 50.98 22 52 C15.621 51.556 11.179 49.978 5.625 46.875 C4.887 46.473 4.149 46.072 3.388 45.658 C-3.112 42.064 -9.718 38.282 -15 33 C-16.404 26.843 -15.825 21.406 -14.812 15.25 C-14.699 14.517 -14.586 13.784 -14.47 13.029 C-13.625 8.37 -12.391 5.49 -9 2 C-6.021 -0.018 -3.567 -0.624 0 0 Z " fill="#1E1E1E" transform="translate(23,103)"/>
<path d="M0 0 C7.935 1.082 13.072 4.983 19.562 9.438 C20.426 10.023 21.289 10.609 22.178 11.213 C23.007 11.781 23.837 12.349 24.691 12.934 C25.446 13.45 26.201 13.966 26.979 14.498 C28.838 15.879 30.416 17.316 32 19 C31.464 19.681 30.928 20.361 30.375 21.062 C28.674 23.999 28.674 23.999 29.5 27.5 C31.135 31.316 32.94 33.246 36 36 C38.281 39.421 38.219 40.682 38.125 44.688 C38.107 45.681 38.089 46.675 38.07 47.699 C38.047 48.458 38.024 49.218 38 50 C30.653 47.98 24.249 44.453 20 38 C19.526 36.969 19.051 35.938 18.562 34.875 C16.691 31.432 15.71 30.29 12 29 C10.718 29.426 9.448 29.89 8.188 30.375 C3.653 31.636 1.061 30.374 -2.891 28.231 C-6.314 26.233 -9.672 24.151 -13 22 C-13.977 21.383 -14.954 20.765 -15.961 20.129 C-18.882 18.233 -21.534 16.466 -24 14 C-24.558 11.208 -24.339 9.569 -22.879 7.117 C-21.631 5.37 -20.348 3.671 -19 2 C-18.492 2.373 -17.984 2.745 -17.461 3.129 C-13.019 6.266 -13.019 6.266 -7.75 6.875 C-6.843 6.586 -5.935 6.297 -5 6 C-3.824 5.722 -3.824 5.722 -2.625 5.438 C-2.089 5.293 -1.552 5.149 -1 5 C-0.67 3.35 -0.34 1.7 0 0 Z " fill="#FFFFFF" transform="translate(115,86)"/>
<path d="M0 0 C0.87 0.493 1.739 0.987 2.635 1.495 C3.626 2.053 4.616 2.612 5.637 3.187 C6.689 3.788 7.742 4.388 8.826 5.007 C10.477 5.94 10.477 5.94 12.16 6.892 C14.447 8.186 16.733 9.482 19.017 10.781 C22.19 12.581 25.368 14.372 28.549 16.159 C37.277 21.066 45.972 26.011 54.576 31.132 C59.976 34.343 65.428 37.257 71.084 39.999 C75.521 42.275 79.826 44.755 84.139 47.257 C84.932 47.716 85.724 48.176 86.541 48.649 C91.549 51.573 96.49 54.591 101.389 57.694 C98.189 60.437 95.384 62.324 91.389 63.694 C90.909 63.131 90.43 62.567 89.936 61.987 C86.509 58.902 82.737 57.072 78.639 55.007 C76.909 54.115 75.18 53.222 73.451 52.327 C72.592 51.882 71.732 51.438 70.846 50.98 C67.406 49.179 64.016 47.297 60.639 45.382 C59.689 44.843 59.689 44.843 58.721 44.294 C57.363 43.523 56.007 42.752 54.65 41.979 C52.109 40.535 49.564 39.098 47.018 37.663 C37.374 32.224 27.745 26.761 18.139 21.257 C12.137 17.818 6.12 14.42 0.03 11.139 C-5.565 8.077 -11.082 4.874 -16.611 1.694 C-10.05 -3.247 -7.69 -3.846 0 0 Z " fill="#FFFFFF" transform="translate(95.611083984375,42.305908203125)"/>
<path d="M0 0 C3.559 1.092 6.771 2.698 10.062 4.406 C11.496 5.137 12.93 5.867 14.363 6.598 C15.092 6.972 15.822 7.346 16.573 7.731 C19.953 9.459 23.352 11.151 26.75 12.844 C30.695 14.813 34.638 16.786 38.574 18.773 C47.266 23.154 56.021 27.383 64.833 31.519 C65.688 31.923 66.544 32.326 67.426 32.742 C68.188 33.1 68.95 33.457 69.736 33.826 C71.75 34.844 71.75 34.844 74.75 36.844 C74.75 37.504 74.75 38.164 74.75 38.844 C67.82 42.804 67.82 42.804 60.75 46.844 C60.42 46.184 60.09 45.524 59.75 44.844 C58.901 44.57 58.051 44.297 57.176 44.016 C52.993 42.585 49.637 40.478 45.938 38.094 C44.876 37.42 44.876 37.42 43.793 36.734 C39.444 33.966 35.156 31.117 30.888 28.229 C28.908 26.946 26.912 25.805 24.836 24.688 C19.14 21.55 13.606 18.152 8.073 14.74 C6.293 13.644 4.511 12.554 2.729 11.463 C1.591 10.763 0.454 10.063 -0.684 9.363 C-1.705 8.735 -2.727 8.107 -3.779 7.46 C-6.25 5.844 -6.25 5.844 -8.25 3.844 C-2.973 -0.206 -2.973 -0.206 0 0 Z " fill="#FFFFFF" transform="translate(253.25,137.15625)"/>
<path d="M0 0 C0.33 0 0.66 0 1 0 C0.999 0.792 0.998 1.583 0.997 2.399 C1.009 5.996 1.066 9.591 1.125 13.188 C1.122 14.433 1.12 15.679 1.117 16.963 C1.126 24.079 1.126 24.079 4.516 30.055 C6.24 31.018 6.24 31.018 8 32 C8.655 32.396 9.311 32.792 9.986 33.199 C12.17 34.506 14.386 35.728 16.625 36.938 C17.42 37.371 18.216 37.805 19.035 38.252 C21.352 39.51 23.675 40.756 26 42 C27.141 42.619 28.282 43.237 29.457 43.875 C35.072 46.819 40.442 48.924 46.625 50.359 C48.983 50.995 50.906 51.747 53 53 C53.33 53.66 53.66 54.32 54 55 C56.122 56.054 56.122 56.054 58.812 57.062 C64.437 59.332 69.975 61.75 75.5 64.25 C76.357 64.637 77.213 65.024 78.096 65.422 C80.731 66.614 83.366 67.807 86 69 C88.456 70.112 90.912 71.224 93.369 72.333 C94.998 73.07 96.627 73.808 98.254 74.549 C102.867 76.638 107.506 78.632 112.195 80.543 C113.235 80.974 114.274 81.404 115.344 81.848 C117.356 82.678 119.374 83.492 121.4 84.287 C127.674 86.898 130.476 89.196 134 95 C135.693 96.678 135.693 96.678 137.312 97.812 C138.199 98.534 139.086 99.256 140 100 C140 100.66 140 101.32 140 102 C135.798 100.681 131.906 99.094 127.949 97.164 C126.788 96.6 125.627 96.037 124.431 95.456 C123.183 94.846 121.935 94.235 120.688 93.625 C119.39 92.994 118.093 92.364 116.795 91.734 C114.146 90.447 111.498 89.159 108.85 87.871 C103.201 85.123 97.539 82.404 91.875 79.688 C90.851 79.195 89.827 78.703 88.772 78.197 C84.13 75.969 79.484 73.752 74.82 71.57 C66.5 67.676 58.296 63.653 50.203 59.304 C45.492 56.774 40.736 54.36 35.938 52 C3.187 35.78 3.187 35.78 -2 28 C-2.259 25.304 -2.259 25.304 -2.266 22.09 C-2.269 20.358 -2.269 20.358 -2.273 18.592 C-2.266 17.386 -2.258 16.18 -2.25 14.938 C-2.258 13.728 -2.265 12.518 -2.273 11.271 C-2.271 10.118 -2.268 8.965 -2.266 7.777 C-2.263 6.718 -2.261 5.658 -2.259 4.566 C-2 2 -2 2 0 0 Z " fill="#FFFFFF" transform="translate(36,65)"/>
<path d="M0 0 C3.742 1.711 7.065 3.98 10.438 6.312 C10.998 6.691 11.558 7.069 12.135 7.459 C19.494 12.534 22.76 16.512 25 25 C25.297 26.12 25.594 27.24 25.9 28.394 C26.715 31.558 27.505 34.728 28.272 37.904 C28.755 39.894 29.25 41.881 29.746 43.867 C30.052 45.125 30.357 46.383 30.672 47.68 C31.091 49.393 31.091 49.393 31.519 51.14 C32 54 32 54 31 57 C30.004 55.987 30.004 55.987 28.988 54.953 C28.105 54.061 27.222 53.169 26.312 52.25 C25.442 51.368 24.572 50.487 23.676 49.578 C21.218 47.21 18.686 45.101 16 43 C10.56 37.948 7.92 33.459 5.957 26.309 C5.784 25.681 5.61 25.054 5.432 24.408 C5.069 23.091 4.711 21.772 4.356 20.452 C3.813 18.438 3.256 16.427 2.697 14.416 C0 4.533 0 4.533 0 0 Z " fill="#FFFFFF" transform="translate(162,116)"/>
<path d="M0 0 C2.64 1.65 5.28 3.3 8 5 C6 9 6 9 4 12 C3.396 17.591 3.396 17.591 5.625 22.5 C8.721 24.456 10.399 24.6 14 24 C17.416 21.692 17.934 20.332 18.75 16.25 C18.833 15.178 18.915 14.105 19 13 C20.492 14.141 20.492 14.141 22 16 C22.258 18.609 22.258 18.609 22.125 21.75 C21.894 31.574 22.522 41.284 24 51 C23.278 50.505 22.556 50.01 21.812 49.5 C18.852 47.921 17.287 47.718 14 48 C13.519 53.775 14.477 58.27 18 63 C20.051 64.24 20.051 64.24 22 65 C21.67 65.99 21.34 66.98 21 68 C19.713 67.021 18.446 66.016 17.188 65 C16.48 64.443 15.772 63.886 15.043 63.312 C10.499 58.169 9.2 50.436 7.555 43.891 C7.339 43.043 7.124 42.195 6.902 41.321 C6.451 39.536 6.002 37.751 5.556 35.966 C4.88 33.269 4.188 30.576 3.496 27.883 C-1.208 9.31 -1.208 9.31 -1 1 C-0.67 0.67 -0.34 0.34 0 0 Z " fill="#FFFFFF" transform="translate(197,116)"/>
<path d="M0 0 C3.394 1.594 4.374 4.74 5.871 7.996 C6.207 8.701 6.544 9.407 6.89 10.134 C7.605 11.636 8.314 13.142 9.017 14.65 C10.135 17.026 11.289 19.381 12.453 21.734 C13.197 23.259 13.941 24.783 14.684 26.309 C15.042 27.031 15.401 27.754 15.771 28.498 C18.235 33.654 18.235 33.654 17.121 36.996 C16.01 36.321 14.899 35.645 13.754 34.949 C6.055 30.316 -1.358 25.972 -9.879 22.996 C-9.879 19.696 -9.879 16.396 -9.879 12.996 C-10.869 12.666 -11.859 12.336 -12.879 11.996 C-12.879 8.696 -12.879 5.396 -12.879 1.996 C-11.27 2.058 -11.27 2.058 -9.629 2.121 C-5.917 1.997 -3.467 -0.007 0 0 Z " fill="#FFFFFF" transform="translate(53.87890625,66.00390625)"/>
<path d="M0 0 C0.495 0.99 0.495 0.99 1 2 C-0.414 4.783 -2.034 7.409 -3.652 10.078 C-5.162 13.352 -5.115 15.441 -5 19 C-5.88 22.467 -7.264 24.683 -10 27 C-16.472 29.177 -23.158 30.211 -30 30 C-30.268 30.928 -30.536 31.856 -30.812 32.812 C-31.934 35.823 -32.609 37.008 -35 39 C-35.66 39.66 -36.32 40.32 -37 41 C-36.505 38.03 -36.505 38.03 -36 35 C-37.485 35.495 -37.485 35.495 -39 36 C-40.225 39.008 -40.225 39.008 -41 42 C-42 39 -42 39 -41.145 36.625 C-40.705 35.759 -40.265 34.892 -39.812 34 C-39.386 33.134 -38.959 32.267 -38.52 31.375 C-35.98 27.406 -33.412 26.113 -29.016 24.805 C-25.677 23.615 -24.297 22.505 -22.609 19.383 C-21.962 17.976 -21.343 16.556 -20.75 15.125 C-16.663 5.854 -16.663 5.854 -13 2 C-12.01 1.67 -11.02 1.34 -10 1 C-9.34 1.66 -8.68 2.32 -8 3 C-8.722 3.619 -9.444 4.238 -10.188 4.875 C-13.922 8.556 -15.85 13.288 -18 18 C-17.34 18 -16.68 18 -16 18 C-15.752 17.319 -15.505 16.639 -15.25 15.938 C-11.621 7.409 -8.246 4.296 0 0 Z " fill="#3E3E3E" transform="translate(319,186)"/>
<path d="M0 0 C3.376 1.35 6.14 2.555 9.215 4.348 C9.984 4.788 10.753 5.228 11.545 5.682 C13.139 6.602 14.73 7.526 16.318 8.455 C20.56 10.872 24.03 12.609 29 13 C29.66 15.97 30.32 18.94 31 22 C35.236 23.009 35.236 23.009 39.375 22.062 C39.911 21.712 40.447 21.361 41 21 C41.681 21.745 42.361 22.49 43.062 23.258 C45.991 26.18 49.309 28.061 53 29.875 C53.603 30.195 54.207 30.514 54.828 30.844 C57.762 32.311 59.641 33.037 62.938 32.695 C63.958 32.351 63.958 32.351 65 32 C65.474 33.114 65.949 34.227 66.438 35.375 C67.253 37.267 68.079 39.157 69 41 C67.664 40.592 66.331 40.173 65 39.75 C64.257 39.518 63.515 39.286 62.75 39.047 C60.5 38.19 58.47 37.255 56.334 36.162 C52.243 34.101 48.096 32.206 43.906 30.355 C43.156 30.023 42.407 29.69 41.634 29.347 C39.257 28.292 36.878 27.24 34.5 26.188 C32.937 25.494 31.375 24.801 29.812 24.107 C19.889 19.706 9.95 15.342 0 11 C0 7.37 0 3.74 0 0 Z " fill="#FFFFFF" transform="translate(90,108)"/>
<path d="M0 0 C5.369 0.383 9.226 2.489 13.812 5.062 C19.629 8.239 25.477 11.233 31.5 14 C37.945 16.973 44.212 20.19 50.456 23.561 C56.778 26.947 63.237 30.01 69.757 32.994 C79.358 37.434 79.358 37.434 81 41.438 C81 44 81 44 79.438 46.062 C77 48 77 48 74.121 49.637 C70.261 52.559 68.705 55.469 66.625 59.75 C66.271 60.447 65.916 61.145 65.551 61.863 C64.686 63.568 63.841 65.283 63 67 C62.34 67 61.68 67 61 67 C61.724 63.506 63.063 60.48 64.562 57.25 C65.018 56.265 65.473 55.28 65.941 54.266 C66.465 53.144 66.465 53.144 67 52 C66.446 52.361 65.891 52.722 65.32 53.094 C64.596 53.558 63.871 54.022 63.125 54.5 C62.406 54.964 61.686 55.428 60.945 55.906 C59 57 59 57 57 57 C56.714 57.572 56.428 58.145 56.133 58.734 C54.422 62.156 52.711 65.578 51 69 C50.34 69 49.68 69 49 69 C50.026 62.142 53.864 57.087 58.75 52.312 C70.432 44 70.432 44 74 44 C74.66 42.35 75.32 40.7 76 39 C75.277 38.717 74.553 38.434 73.808 38.143 C69.199 36.267 64.738 34.084 60.25 31.938 C59.219 31.445 58.189 30.953 57.127 30.445 C50.503 27.259 43.985 23.928 37.521 20.429 C30.389 16.602 23.077 13.157 15.752 9.717 C14.818 9.277 13.884 8.836 12.922 8.383 C12.093 7.995 11.263 7.607 10.409 7.208 C7.854 5.927 5.439 4.488 3 3 C1.674 2.319 0.343 1.647 -1 1 C-0.67 0.67 -0.34 0.34 0 0 Z " fill="#101010" transform="translate(252,135)"/>
<path d="M0 0 C3.454 1.321 5.354 3.711 7.438 6.688 C8.702 10.595 7.546 13.978 5.742 17.551 C1.085 24.432 1.085 24.432 -3.5 26.25 C-7.857 25.685 -9.192 24.206 -11.875 20.812 C-13.436 17.69 -13.185 15.263 -12.875 11.812 C-10.977 8.758 -10.977 8.758 -8.5 5.938 C-7.282 4.518 -7.282 4.518 -6.039 3.07 C-2.825 -0.283 -2.825 -0.283 0 0 Z " fill="#181818" transform="translate(84.875,69.1875)"/>
<path d="M0 0 C2.238 4.036 2.363 7.718 2.5 12.25 C2.747 18.379 3.245 24.368 4.125 30.438 C5.268 39.01 5.292 46.88 2 55 C1.34 55 0.68 55 0 55 C0 53.02 0 51.04 0 49 C-1.485 49.495 -1.485 49.495 -3 50 C-6.358 46.907 -8.926 44.509 -10 40 C-9.625 36.188 -9.625 36.188 -9 33 C-5.616 31.936 -4.42 31.786 -1.188 33.438 C-0.466 33.953 0.256 34.469 1 35 C0.893 34.146 0.893 34.146 0.783 33.274 C-0.031 26.124 -0.117 19.065 -0.062 11.875 C-0.058 10.728 -0.053 9.58 -0.049 8.398 C-0.037 5.599 -0.021 2.799 0 0 Z " fill="#333333" transform="translate(220,131)"/>
<path d="M0 0 C2.044 0.994 4.085 1.996 6.125 3 C7.262 3.557 8.399 4.114 9.57 4.688 C13.936 6.909 18.168 9.358 22.412 11.8 C28.412 15.25 34.468 18.594 40.534 21.926 C43.712 23.672 46.887 25.422 50.062 27.172 C50.678 27.511 51.293 27.85 51.927 28.199 C58.977 32.087 65.995 36.031 73 40 C75.917 41.652 78.833 43.303 81.75 44.954 C83.725 46.072 85.698 47.19 87.671 48.309 C94.079 51.938 100.525 55.492 107 59 C106.01 59.99 106.01 59.99 105 61 C104.421 60.668 103.843 60.336 103.247 59.994 C100.561 58.453 97.874 56.914 95.188 55.375 C94.278 54.853 93.369 54.331 92.432 53.793 C86.965 50.663 81.468 47.599 75.931 44.594 C70.252 41.506 64.597 38.374 58.938 35.25 C58.302 34.899 57.667 34.549 57.012 34.187 C46.665 28.476 36.32 22.76 26 17 C25.296 16.607 24.591 16.215 23.866 15.81 C19.233 13.225 14.611 10.623 10 8 C8.938 7.398 7.876 6.796 6.781 6.176 C5.863 5.643 4.946 5.111 4 4.562 C3.216 4.11 2.433 3.658 1.625 3.191 C1.089 2.798 0.552 2.405 0 2 C0 1.34 0 0.68 0 0 Z " fill="#000000" transform="translate(81,45)"/>
<path d="M0 0 C0.66 0.33 1.32 0.66 2 1 C2 3.97 2 6.94 2 10 C2.719 10.267 3.439 10.534 4.18 10.809 C7.025 12.01 9.505 13.432 12.125 15.062 C14.803 16.727 17 18 20 19 C18.125 23.875 18.125 23.875 17 25 C10.383 25.771 5.125 21.768 0 18 C-2.597 15.067 -3 12.288 -3 8.371 C-2.827 5.833 -2.628 3.466 -2 1 C-1.34 0.67 -0.68 0.34 0 0 Z " fill="#FFFFFF" transform="translate(117,204)"/>
<path d="M0 0 C0.33 0 0.66 0 1 0 C1.147 0.94 1.147 0.94 1.297 1.898 C1.446 2.716 1.596 3.533 1.75 4.375 C1.889 5.187 2.028 5.999 2.172 6.836 C3.262 9.684 4.264 9.754 7 11 C8.809 11.937 10.616 12.877 12.422 13.82 C13.447 14.355 14.471 14.89 15.527 15.441 C16.591 15.997 17.654 16.553 18.75 17.125 C20.368 17.97 20.368 17.97 22.02 18.832 C24.68 20.221 27.34 21.61 30 23 C29.67 23.66 29.34 24.32 29 25 C22.551 23.193 17.117 19.793 11.369 16.457 C10.594 16.015 9.818 15.573 9.02 15.117 C7.969 14.508 7.969 14.508 6.898 13.886 C4.896 12.788 4.896 12.788 2 13 C1.67 15.97 1.34 18.94 1 22 C-2.3 21.34 -5.6 20.68 -9 20 C-8.67 16.7 -8.34 13.4 -8 10 C-6.02 9.34 -4.04 8.68 -2 8 C-1.783 6.577 -1.783 6.577 -1.562 5.125 C-1 2 -1 2 0 0 Z " fill="#3A3A3A" transform="translate(88,95)"/>
<path d="M0 0 C0.33 0.66 0.66 1.32 1 2 C-0.153 4.631 -1.364 7.144 -2.688 9.688 C-3.04 10.383 -3.393 11.078 -3.756 11.795 C-4.467 13.188 -5.19 14.576 -5.922 15.958 C-6.636 17.31 -7.327 18.673 -7.996 20.048 C-10.409 24.774 -10.409 24.774 -13.359 25.902 C-14.543 25.92 -14.543 25.92 -15.75 25.938 C-16.549 25.967 -17.348 25.997 -18.172 26.027 C-18.775 26.018 -19.378 26.009 -20 26 C-17.327 16.109 -12.15 6.907 -3.188 1.688 C-2.136 1.131 -1.084 0.574 0 0 Z " fill="#FFFFFF" transform="translate(319,186)"/>
<path d="M0 0 C2.737 1.131 3.149 2.334 4.374 5.003 C4.795 5.908 5.216 6.814 5.65 7.747 C6.099 8.765 6.548 9.782 7.011 10.831 C7.503 11.936 7.994 13.042 8.501 14.181 C9.819 17.186 11.12 20.199 12.405 23.219 C13.204 25.094 14.009 26.966 14.814 28.839 C17.074 34.126 19.254 39.352 21.011 44.831 C16.777 43.52 12.937 41.887 9.011 39.831 C10.001 39.171 10.991 38.511 12.011 37.831 C13.505 31.304 11.089 25.353 8.386 19.519 C8.055 18.734 7.723 17.95 7.382 17.142 C5.125 12.129 3.038 9.461 -1.989 6.831 C-4.215 6.062 -4.215 6.062 -5.989 5.831 C-6.319 6.491 -6.649 7.151 -6.989 7.831 C-6.657 4.756 -6.358 3.213 -4.177 0.956 C-1.989 -0.169 -1.989 -0.169 0 0 Z " fill="#FFFFFF" transform="translate(18.989013671875,107.1689453125)"/>
<path d="M0 0 C2.375 0.312 2.375 0.312 5 1 C7.576 4.865 7.668 6.401 7 11 C4.933 14.242 2.552 17.129 0 20 C-3.161 18.63 -3.993 18.011 -6 15 C-6.572 11.354 -6.585 8.973 -4.656 5.766 C-3.165 3.781 -1.632 1.87 0 0 Z " fill="#FFFFFF" transform="translate(83,72)"/>
<path d="M0 0 C0.99 0.33 1.98 0.66 3 1 C4.102 3.662 5.068 6.281 6 9 C7.407 12.55 8.871 15.807 11 19 C11.748 20.838 12.453 22.695 13.125 24.562 C13.478 25.533 13.831 26.504 14.195 27.504 C15 30 15 30 15 32 C8.535 30.658 8.535 30.658 6.438 28.078 C4.382 23.678 3.383 19.161 2.312 14.438 C2.088 13.492 1.863 12.546 1.631 11.572 C0.697 7.558 0 4.15 0 0 Z " fill="#0C0C0C" transform="translate(119,23)"/>
<path d="M0 0 C2 1 2 1 2.885 3.453 C3.828 6.925 4.769 10.396 5.688 13.875 C6.021 15.085 6.354 16.296 6.697 17.543 C7.007 18.702 7.317 19.861 7.637 21.055 C7.922 22.122 8.208 23.189 8.503 24.289 C9 27 9 27 8 30 C7.381 28.793 7.381 28.793 6.75 27.562 C5.269 24.907 5.269 24.907 3 24.125 C0.791 23.862 0.791 23.862 -2 25 C-2.061 24.013 -2.121 23.025 -2.184 22.008 C-2.267 20.726 -2.351 19.445 -2.438 18.125 C-2.519 16.849 -2.6 15.573 -2.684 14.258 C-2.792 11.117 -2.792 11.117 -4 9 C-3.01 8.67 -2.02 8.34 -1 8 C-0.403 5.237 0 2.84 0 0 Z " fill="#FFFFFF" transform="translate(157,112)"/>
<path d="M0 0 C9 4.5 9 4.5 18 9 C18 11.64 18 14.28 18 17 C13.573 15.695 10.043 13.964 6.188 11.438 C4.755 10.507 4.755 10.507 3.293 9.559 C1 8 1 8 0 7 C-0.041 4.667 -0.042 2.333 0 0 Z " fill="#FFFFFF" transform="translate(120,205)"/>
<path d="M0 0 C3.317 0.617 4.672 2.046 6.676 4.707 C8.308 7.6 8.624 10.22 8.688 13.5 C6.688 15.5 6.688 15.5 4.375 16 C1.058 15.383 -0.297 13.954 -2.301 11.293 C-3.933 8.4 -4.249 5.78 -4.312 2.5 C-2.312 0.5 -2.312 0.5 0 0 Z " fill="#000000" transform="translate(66.3125,197.5)"/>
<path d="M0 0 C0.639 0.268 1.279 0.536 1.938 0.812 C5.093 2.085 5.093 2.085 8.812 3.125 C13.478 4.657 17.802 6.751 22.188 8.938 C22.865 9.273 23.542 9.609 24.24 9.956 C28.37 12.05 32.197 14.356 36 17 C35.505 18.485 35.505 18.485 35 20 C29.864 18.49 25.423 16.235 20.75 13.688 C15.166 10.67 9.582 7.763 3.785 5.168 C1.607 3.743 0.955 2.385 0 0 Z " fill="#1D1D1D" transform="translate(52,108)"/>
<path d="M0 0 C0.654 0.563 0.654 0.563 1.32 1.137 C1.916 1.648 2.511 2.16 3.125 2.688 C4.074 3.505 4.074 3.505 5.043 4.34 C6.816 5.844 8.621 7.298 10.438 8.75 C11.283 9.493 12.129 10.235 13 11 C13 11.66 13 12.32 13 13 C13.572 13.248 14.145 13.495 14.734 13.75 C17.35 15.193 19.148 16.882 21.25 19 C21.956 19.701 22.663 20.403 23.391 21.125 C25 23 25 23 25 25 C19.767 23.36 14.848 21.61 10 19 C10.66 18.67 11.32 18.34 12 18 C7.536 12.777 2.926 7.791 -2 3 C-1.34 2.01 -0.68 1.02 0 0 Z " fill="#FFFFFF" transform="translate(171,154)"/>
<path d="M0 0 C0.33 0 0.66 0 1 0 C1 2.64 1 5.28 1 8 C1.822 8.203 1.822 8.203 2.66 8.41 C8.447 9.982 13.731 12.155 19.131 14.748 C27.412 18.715 35.821 22.403 44.218 26.117 C52.605 29.851 60.821 33.83 69 38 C64.904 39.365 63.711 38.155 59.875 36.25 C58.53 35.596 57.184 34.945 55.836 34.297 C54.7 33.751 54.7 33.751 53.542 33.193 C48.573 30.861 43.531 28.694 38.5 26.5 C30.348 22.933 22.238 19.303 14.191 15.504 C9.484 13.286 4.744 11.14 0 9 C0 8.34 0 7.68 0 7 C-1.32 6.67 -2.64 6.34 -4 6 C-3.67 5.34 -3.34 4.68 -3 4 C-2.34 4.33 -1.68 4.66 -1 5 C-0.67 3.35 -0.34 1.7 0 0 Z " fill="#000000" transform="translate(89,111)"/>
<path d="M0 0 C1.792 0.017 1.792 0.017 3.621 0.035 C5.417 0.049 5.417 0.049 7.25 0.062 C8.177 0.074 9.104 0.086 10.059 0.098 C10.648 2.484 10.648 2.484 11.059 5.098 C9.621 6.91 9.621 6.91 8.059 8.098 C9.049 8.428 10.039 8.758 11.059 9.098 C11.059 9.758 11.059 10.418 11.059 11.098 C0.809 11.098 0.809 11.098 -3.941 10.098 C-3.941 9.108 -3.941 8.118 -3.941 7.098 C-3.281 7.098 -2.621 7.098 -1.941 7.098 C-1.941 7.758 -1.941 8.418 -1.941 9.098 C-1.281 8.768 -0.621 8.438 0.059 8.098 C0.059 7.438 0.059 6.778 0.059 6.098 C-1.261 6.098 -2.581 6.098 -3.941 6.098 C-3.984 4.432 -3.982 2.764 -3.941 1.098 C-2.941 0.098 -2.941 0.098 0 0 Z " fill="#1D1D1D" transform="translate(323.94140625,274.90234375)"/>
<path d="M0 0 C0.66 0 1.32 0 2 0 C2 0.66 2 1.32 2 2 C2.66 2 3.32 2 4 2 C6.727 7.843 8.413 13.76 10 20 C10.209 20.82 10.418 21.64 10.633 22.484 C11.095 24.321 11.549 26.16 12 28 C9.668 27.891 9.668 27.891 7 27 C5.488 24.297 5.488 24.297 4.312 20.75 C4.105 20.13 3.898 19.511 3.685 18.873 C1.718 12.706 0.715 6.426 0 0 Z " fill="#080808" transform="translate(176,53)"/>
<path d="M0 0 C2.238 4.036 2.363 7.718 2.5 12.25 C2.747 18.379 3.245 24.368 4.125 30.438 C5.268 39.01 5.292 46.88 2 55 C1.34 55 0.68 55 0 55 C0.144 53.886 0.289 52.773 0.438 51.625 C0.525 50.89 0.613 50.155 0.703 49.398 C0.899 47.817 1.117 46.239 1.359 44.664 C1.991 40.019 1.956 36.105 1.027 31.5 C-0.145 24.874 -0.228 18.462 -0.125 11.75 C-0.116 10.612 -0.107 9.474 -0.098 8.301 C-0.074 5.534 -0.042 2.767 0 0 Z " fill="#FFFFFF" transform="translate(220,131)"/>
<path d="M0 0 C0.33 0 0.66 0 1 0 C1.035 1.066 1.07 2.132 1.105 3.23 C1.648 7.178 1.648 7.178 4.801 9.363 C5.958 10.037 7.129 10.687 8.312 11.312 C8.895 11.646 9.477 11.979 10.076 12.322 C12.454 13.671 14.84 14.929 17.34 16.035 C19 17 19 17 20.25 20.125 C20.498 21.074 20.745 22.023 21 23 C20.381 23.124 19.762 23.248 19.125 23.375 C16.809 23.872 16.809 23.872 15 26 C10.174 25.717 6.844 24.036 2.75 21.562 C1.714 20.945 0.677 20.328 -0.391 19.691 C-4.774 16.85 -4.774 16.85 -5.633 13.617 C-5.795 12.712 -5.958 11.807 -6.125 10.875 C-6.293 9.965 -6.46 9.055 -6.633 8.117 C-6.754 7.419 -6.875 6.72 -7 6 C-6.34 5.67 -5.68 5.34 -5 5 C-4.867 5.615 -4.734 6.23 -4.598 6.863 C-4.421 7.672 -4.244 8.48 -4.062 9.312 C-3.888 10.113 -3.714 10.914 -3.535 11.738 C-3.001 14.145 -3.001 14.145 -2 17 C-0.358 17.725 1.316 18.378 3 19 C4.175 19.695 5.341 20.404 6.5 21.125 C10.59 23.404 10.59 23.404 15 23 C16.862 20.591 16.862 20.591 18 18 C17.488 17.908 16.976 17.817 16.449 17.723 C13.015 16.709 9.954 15.119 6.812 13.438 C6.171 13.127 5.53 12.817 4.869 12.498 C2.241 11.075 0.296 9.879 -0.682 6.973 C-0.988 4.785 -0.988 4.785 -1 1 C-0.67 0.67 -0.34 0.34 0 0 Z " fill="#000000" transform="translate(119,205)"/>
<path d="M0 0 C0.66 0 1.32 0 2 0 C5.141 12.355 5.276 23.452 3 36 C2.67 36 2.34 36 2 36 C0.517 23.936 -0.28 12.154 0 0 Z " fill="#FFFFFF" transform="translate(224,132)"/>
<path d="M0 0 C1.961 2.941 2.607 4.839 3.438 8.219 C3.693 9.233 3.948 10.248 4.211 11.293 C4.737 13.431 5.263 15.569 5.789 17.707 C6.044 18.722 6.3 19.736 6.562 20.781 C6.791 21.71 7.019 22.639 7.254 23.596 C8.694 28.236 11.007 29.651 15 32 C16.635 33.36 18.24 34.756 19.812 36.188 C20.603 36.903 21.393 37.618 22.207 38.355 C23.095 39.17 23.095 39.17 24 40 C23.01 40.495 23.01 40.495 22 41 C16.216 38.558 10.07 35.649 7 30 C3.307 20.753 -0.37 10.049 0 0 Z " fill="#FFFFFF" transform="translate(194,148)"/>
<path d="M0 0 C0.33 0 0.66 0 1 0 C1.098 0.626 1.196 1.253 1.297 1.898 C1.446 2.716 1.596 3.533 1.75 4.375 C1.889 5.187 2.028 5.999 2.172 6.836 C3.262 9.684 4.264 9.754 7 11 C8.809 11.937 10.616 12.877 12.422 13.82 C13.447 14.355 14.471 14.89 15.527 15.441 C16.591 15.997 17.654 16.553 18.75 17.125 C20.368 17.97 20.368 17.97 22.02 18.832 C24.68 20.221 27.34 21.61 30 23 C29.67 23.66 29.34 24.32 29 25 C23.561 23.44 18.906 20.936 14 18.188 C13.219 17.761 12.438 17.335 11.633 16.896 C0.24 10.558 0.24 10.558 -2 5.938 C-2 3.5 -1.252 2.063 0 0 Z " fill="#FFFFFF" transform="translate(88,95)"/>
<path d="M0 0 C4.396 1.545 5.753 4.125 7.688 8.125 C8.083 9.014 8.479 9.904 8.887 10.82 C9.805 13.149 9.805 13.149 12 14 C12 14.66 12 15.32 12 16 C12.825 16.227 13.65 16.454 14.5 16.688 C18.731 18.274 22.252 20.507 26 23 C23 24 23 24 19.785 22.523 C18.538 21.818 17.297 21.101 16.062 20.375 C15.442 20.031 14.821 19.687 14.182 19.332 C9.146 16.425 6.091 13.228 3.5 7.938 C1.999 4.997 0.441 3.189 -2 1 C-1.34 0.67 -0.68 0.34 0 0 Z " fill="#FFFFFF" transform="translate(126,116)"/>
<path d="M0 0 C3.885 0.587 6.695 1.749 10.082 3.723 C11.013 4.261 11.945 4.799 12.904 5.354 C14.344 6.199 14.344 6.199 15.812 7.062 C16.792 7.63 17.771 8.198 18.779 8.783 C21.19 10.183 23.597 11.588 26 13 C26 13.66 26 14.32 26 15 C22.077 14.403 19.16 13.2 15.699 11.277 C14.723 10.739 13.746 10.201 12.74 9.646 C11.733 9.083 10.725 8.519 9.688 7.938 C8.661 7.37 7.634 6.802 6.576 6.217 C4.047 4.817 1.522 3.411 -1 2 C-0.67 1.34 -0.34 0.68 0 0 Z " fill="#FFFFFF" transform="translate(44,91)"/>
<path d="M0 0 C2.5 0.125 2.5 0.125 3.5 1.125 C3.773 6.861 3.773 6.861 3.5 9.125 C2.84 9.785 2.18 10.445 1.5 11.125 C-1.125 10.75 -1.125 10.75 -3.5 10.125 C-3.527 8.646 -3.546 7.167 -3.562 5.688 C-3.574 4.864 -3.586 4.04 -3.598 3.191 C-3.453 0.126 -3.078 0.154 0 0 Z " fill="#333333" transform="translate(307.5,274.875)"/>
<path d="M0 0 C6.255 -0.816 9.768 1.228 15.059 4.492 C16.02 5.239 16.02 5.239 17 6 C17 6.66 17 7.32 17 8 C17.66 8.33 18.32 8.66 19 9 C16 10 16 10 14.191 9.379 C13.536 9.039 12.881 8.698 12.207 8.348 C11.495 7.983 10.783 7.619 10.049 7.244 C9.311 6.854 8.573 6.464 7.812 6.062 C7.063 5.676 6.313 5.29 5.541 4.893 C3.689 3.937 1.844 2.97 0 2 C0 1.34 0 0.68 0 0 Z " fill="#242424" transform="translate(120,143)"/>
<path d="M0 0 C0.99 0 1.98 0 3 0 C3.66 3.3 4.32 6.6 5 10 C3.02 10.33 1.04 10.66 -1 11 C-2.551 8.536 -3.03 7.319 -2.75 4.375 C-2 2 -2 2 0 0 Z " fill="#FFFFFF" transform="translate(207,126)"/>
<path d="M0 0 C4.972 1.764 9.434 4.394 14 7 C13.67 7.99 13.34 8.98 13 10 C8.028 8.508 3.582 6.395 -1 4 C-0.67 2.68 -0.34 1.36 0 0 Z " fill="#2A2A2A" transform="translate(88,125)"/>
<path d="M0 0 C1.98 0 3.96 0 6 0 C6.688 2.312 6.688 2.312 7 5 C5.562 6.812 5.562 6.812 4 8 C4.99 8.33 5.98 8.66 7 9 C7 9.66 7 10.32 7 11 C4.36 11 1.72 11 -1 11 C0.527 7.564 2.599 4.881 5 2 C4.01 2 3.02 2 2 2 C2 2.66 2 3.32 2 4 C1.01 4 0.02 4 -1 4 C-0.67 2.68 -0.34 1.36 0 0 Z " fill="#000000" transform="translate(328,275)"/>
<path d="M0 0 C1.454 0.031 1.454 0.031 2.938 0.062 C2.938 0.723 2.938 1.382 2.938 2.062 C1.947 2.558 1.947 2.558 0.938 3.062 C1.598 3.392 2.257 3.723 2.938 4.062 C3.062 6.438 3.062 6.438 2.938 9.062 C2.277 9.723 1.618 10.382 0.938 11.062 C-1.688 10.688 -1.688 10.688 -4.062 10.062 C-4.062 9.072 -4.062 8.082 -4.062 7.062 C-3.402 7.062 -2.743 7.062 -2.062 7.062 C-2.062 7.723 -2.062 8.382 -2.062 9.062 C-1.402 8.733 -0.743 8.402 -0.062 8.062 C-0.062 7.402 -0.062 6.743 -0.062 6.062 C-1.382 6.062 -2.702 6.062 -4.062 6.062 C-4.105 4.396 -4.103 2.729 -4.062 1.062 C-3.062 0.062 -3.062 0.062 0 0 Z " fill="#000000" transform="translate(316.0625,274.9375)"/>
<path d="M0 0 C2.472 2.963 3.662 5.54 4.688 9.25 C4.939 10.142 5.19 11.034 5.449 11.953 C5.722 12.966 5.722 12.966 6 14 C5.01 14.33 4.02 14.66 3 15 C0.938 13.125 0.938 13.125 -1 10 C-1.057 6.595 -0.598 3.347 0 0 Z " fill="#FFFFFF" transform="translate(22,121)"/>
<path d="M0 0 C1.32 0.66 2.64 1.32 4 2 C3.34 5.3 2.68 8.6 2 12 C0.68 12.33 -0.64 12.66 -2 13 C-1.859 11.395 -1.712 9.791 -1.562 8.188 C-1.481 7.294 -1.4 6.401 -1.316 5.48 C-1 3 -1 3 0 0 Z " fill="#FFFFFF" transform="translate(16,116)"/>
<path d="M0 0 C0.639 0.268 1.279 0.536 1.938 0.812 C4.841 1.989 4.841 1.989 7.266 2.66 C8.065 2.896 8.864 3.132 9.688 3.375 C10.838 3.696 10.838 3.696 12.012 4.023 C14.506 5.249 15.021 6.455 16 9 C5.994 7.147 5.994 7.147 2 4 C0.688 1.812 0.688 1.812 0 0 Z " fill="#585858" transform="translate(52,108)"/>
<path d="M0 0 C0.66 0.33 1.32 0.66 2 1 C1.67 1.99 1.34 2.98 1 4 C1.887 4.268 2.774 4.536 3.688 4.812 C6.769 5.917 9.262 7.228 12 9 C11.67 9.99 11.34 10.98 11 12 C9.012 10.933 7.035 9.846 5.062 8.75 C3.409 7.845 3.409 7.845 1.723 6.922 C-1 5 -1 5 -1.879 2.766 C-1.919 2.183 -1.959 1.6 -2 1 C-1.34 0.67 -0.68 0.34 0 0 Z " fill="#FFFFFF" transform="translate(64,34)"/>
<path d="M0 0 C4.875 0.875 4.875 0.875 6 2 C6.041 4.333 6.042 6.667 6 9 C4.02 8.01 2.04 7.02 0 6 C0 4.02 0 2.04 0 0 Z " fill="#FFFFFF" transform="translate(83,108)"/>
<path d="M0 0 C3.161 1.37 3.993 1.989 6 5 C6.125 7.688 6.125 7.688 6 10 C3.605 9.257 2.292 8.529 1.066 6.309 C0.328 4.559 -0.34 2.781 -1 1 C-0.67 0.67 -0.34 0.34 0 0 Z " fill="#FFFFFF" transform="translate(66,200)"/>
<path d="M0 0 C6.869 -0.844 6.869 -0.844 10.09 1.559 C11.816 3.313 13.444 5.094 15 7 C14.01 7.33 13.02 7.66 12 8 C10.352 7.074 10.352 7.074 8.625 5.688 C5.855 3.571 3.337 2.112 0 1 C0 0.67 0 0.34 0 0 Z " fill="#FFFFFF" transform="translate(218,189)"/>
<path d="M0 0 C0.99 0.66 1.98 1.32 3 2 C1.855 3.083 1.855 3.083 0.688 4.188 C-1.711 6.698 -3.354 8.968 -5 12 C-5.66 10.68 -6.32 9.36 -7 8 C-6.214 6.851 -5.421 5.706 -4.625 4.562 C-4.184 3.924 -3.743 3.286 -3.289 2.629 C-2 1 -2 1 0 0 Z " fill="#787878" transform="translate(308,187)"/>
<path d="M0 0 C-1.065 2.485 -1.976 3.978 -4 5.812 C-6.585 8.64 -7.149 11.313 -8 15 C-8.33 15 -8.66 15 -9 15 C-9.435 11.895 -9.588 9.091 -9 6 C-6.74 3.064 -3.873 0 0 0 Z " fill="#FFFFFF" transform="translate(197,104)"/>
<path d="M0 0 C2.64 0 5.28 0 8 0 C8 0.66 8 1.32 8 2 C7.01 2 6.02 2 5 2 C5 4.97 5 7.94 5 11 C4.34 11 3.68 11 3 11 C3 8.03 3 5.06 3 2 C2.01 2 1.02 2 0 2 C0 1.34 0 0.68 0 0 Z " fill="#000000" transform="translate(291,275)"/>
<path d="M0 0 C2.296 3.445 2.54 5.938 3 10 C-0.821 9.469 -3.062 8.503 -6 6 C-4.35 5.67 -2.7 5.34 -1 5 C-0.67 3.35 -0.34 1.7 0 0 Z " fill="#FFFFFF" transform="translate(166,143)"/>
<path d="M0 0 C0.99 0.33 1.98 0.66 3 1 C0.727 8.251 0.727 8.251 -2 11.062 C-4 12 -4 12 -7 11 C-6.216 10.299 -5.433 9.597 -4.625 8.875 C-1.916 5.908 -0.983 3.842 0 0 Z " fill="#FFFFFF" transform="translate(229,200)"/>
<path d="M0 0 C2.031 0.934 4.035 1.932 6 3 C6 3.66 6 4.32 6 5 C6.66 5.33 7.32 5.66 8 6 C5 7 5 7 1.875 5.75 C-1 4 -1 4 -2 1 C-1.34 0.67 -0.68 0.34 0 0 Z " fill="#393939" transform="translate(102,132)"/>
<path d="M0 0 C2 3 2 3 2 5 C-3.75 6.125 -3.75 6.125 -6 5 C-5.67 4.01 -5.34 3.02 -5 2 C-2.438 0.812 -2.438 0.812 0 0 Z " fill="#FFFFFF" transform="translate(47,61)"/>
<path d="M0 0 C3.375 1.186 5.647 2.276 8 5 C7.67 5.66 7.34 6.32 7 7 C5.02 6.34 3.04 5.68 1 5 C0.67 3.35 0.34 1.7 0 0 Z " fill="#090909" transform="translate(94,128)"/>
<path d="M0 0 C2.31 0 4.62 0 7 0 C7.66 1.32 8.32 2.64 9 4 C3.375 4.25 3.375 4.25 0 2 C0 1.34 0 0.68 0 0 Z " fill="#353535" transform="translate(149,157)"/>
<path d="M0 0 C2.125 0.938 2.125 0.938 4 2 C4 2.66 4 3.32 4 4 C4.66 4.33 5.32 4.66 6 5 C3 6 3 6 0.875 5.25 C-1 4 -1 4 -2 1 C-1.34 0.67 -0.68 0.34 0 0 Z " fill="#424242" transform="translate(133,147)"/>
<path d="M0 0 C1.938 0.688 1.938 0.688 4 2 C4.75 4.625 4.75 4.625 5 7 C3.062 6.312 3.062 6.312 1 5 C0.25 2.375 0.25 2.375 0 0 Z " fill="#FFFFFF" transform="translate(150,109)"/>
<path d="M0 0 C0.99 0 1.98 0 3 0 C1.607 3.367 0.021 4.986 -3 7 C-3 5.35 -3 3.7 -3 2 C-2.01 2 -1.02 2 0 2 C0 1.34 0 0.68 0 0 Z " fill="#FFFFFF" transform="translate(330,277)"/>
<path d="M0 0 C1 3 1 3 0.004 5.262 C-0.472 6.062 -0.947 6.863 -1.438 7.688 C-2.147 8.9 -2.147 8.9 -2.871 10.137 C-3.244 10.752 -3.616 11.366 -4 12 C-4.66 12 -5.32 12 -6 12 C-2.286 2.286 -2.286 2.286 0 0 Z " fill="#000000" transform="translate(301,196)"/>
<path d="M0 0 C1 3 1 3 -0.312 5.688 C-0.869 6.451 -1.426 7.214 -2 8 C-2.66 8 -3.32 8 -4 8 C-3.502 4.312 -2.899 2.395 0 0 Z " fill="#000000" transform="translate(305,196)"/>
<path d="M0 0 C0.66 1.32 1.32 2.64 2 4 C0.68 4.33 -0.64 4.66 -2 5 C-2.33 3.68 -2.66 2.36 -3 1 C-2.01 0.67 -1.02 0.34 0 0 Z " fill="#FFFFFF" transform="translate(17,129)"/>
</svg>
