<?xml version="1.0" encoding="UTF-8"?>
<!-- Generator: visioncortex VTracer 0.6.4 -->
<svg version="1.1" xmlns="http://www.w3.org/2000/svg" width="430" height="509">
<path d="M0 0 C141.9 0 283.8 0 430 0 C430 167.97 430 335.94 430 509 C288.1 509 146.2 509 0 509 C0 341.03 0 173.06 0 0 Z " fill="#FEFEFE" transform="translate(0,0)"/>
<path d="M0 0 C1.753 0.006 1.753 0.006 3.541 0.013 C13.883 0.214 23.176 1.968 32.875 5.5 C33.902 5.873 34.93 6.245 35.988 6.629 C43.835 9.888 50.842 14.79 57.875 19.5 C58.865 20.16 59.855 20.82 60.875 21.5 C60.875 22.16 60.875 22.82 60.875 23.5 C61.432 23.727 61.989 23.954 62.562 24.188 C65.537 25.876 67.595 27.967 69.875 30.5 C69.875 31.16 69.875 31.82 69.875 32.5 C70.535 32.5 71.195 32.5 71.875 32.5 C89.017 53.204 94.665 78.612 92.602 104.996 C89.666 127.18 79.779 145.016 63.875 160.5 C63.165 161.196 62.454 161.892 61.723 162.609 C44.308 178.707 20.839 186.183 -2.641 185.754 C-27.075 183.973 -50.5 174.488 -67.457 156.441 C-85.015 136.005 -93.983 111.604 -92.125 84.5 C-90.039 63.805 -81.637 43.591 -67.125 28.5 C-66.465 28.5 -65.805 28.5 -65.125 28.5 C-64.795 27.51 -64.465 26.52 -64.125 25.5 C-47.245 8.882 -23.482 -0.132 0 0 Z " fill="#F8F8F8" transform="translate(325.125,26.5)"/>
<path d="M0 0 C0.849 0.66 1.699 1.32 2.574 2 C18.007 14.724 27.615 38.013 29.625 57.438 C31.385 80.607 26.938 105.931 11.919 124.411 C9.683 127.013 7.361 129.51 5 132 C4.332 132.746 3.665 133.493 2.977 134.262 C-13.269 151.707 -36.852 160.498 -60.31 161.336 C-75.01 161.589 -90.025 159.132 -103 152 C-104.361 151.321 -104.361 151.321 -105.75 150.629 C-128.77 138.831 -144.269 118.372 -152.211 94.137 C-154.35 85.634 -155.363 77.454 -155.312 68.688 C-155.308 67.684 -155.304 66.681 -155.3 65.647 C-155.18 57.729 -154.25 50.622 -152 43 C-151.745 42.027 -151.49 41.054 -151.227 40.051 C-147.782 28.217 -140.793 14.768 -132 6 C-131.34 6 -130.68 6 -130 6 C-130 5.34 -130 4.68 -130 4 C-129.34 4 -128.68 4 -128 4 C-128 3.34 -128 2.68 -128 2 C-124.511 -1.212 -120.731 -4.075 -117 -7 C-116.419 -7.481 -115.837 -7.962 -115.238 -8.457 C-81.183 -35.183 -30.653 -26.516 0 0 Z " fill="#FDFDFD" transform="translate(388,271)"/>
<path d="M0 0 C1.007 0.245 2.014 0.49 3.051 0.742 C16.344 4.411 28.854 10.602 39 20 C39.759 20.69 39.759 20.69 40.534 21.394 C58.509 37.87 69.817 59.276 71 84 C71.826 103.951 67.517 122.943 57 140 C56.488 140.922 55.976 141.843 55.449 142.793 C54.971 143.521 54.493 144.25 54 145 C53.34 145 52.68 145 52 145 C51.768 145.718 51.536 146.436 51.297 147.176 C44.379 162.24 23.789 172.616 9.169 178.238 C3.897 180.09 -1.48 181.156 -7 182 C-7.721 182.129 -8.441 182.258 -9.184 182.391 C-32.402 186.059 -54.44 178.959 -74 167 C-74.597 166.636 -75.194 166.273 -75.81 165.898 C-77.245 164.99 -78.629 164.002 -80 163 C-80 162.34 -80 161.68 -80 161 C-80.563 160.758 -81.127 160.515 -81.707 160.266 C-95.056 152.897 -105.328 133.99 -109.621 119.972 C-114.771 101.597 -115.95 83.572 -111 65 C-110.745 64.001 -110.49 63.002 -110.227 61.973 C-106.397 48.885 -98.667 35.647 -89 26 C-88.34 26 -87.68 26 -87 26 C-87 25.34 -87 24.68 -87 24 C-86.34 24 -85.68 24 -85 24 C-84.67 23.01 -84.34 22.02 -84 21 C-61.005 1.218 -29.771 -7.306 0 0 Z " fill="#FDFDFD" transform="translate(128,31)"/>
<path d="M0 0 C19.007 15.744 32.162 36.085 35 61 C35.638 73.577 35.685 85.875 32 98 C31.66 99.155 31.319 100.31 30.969 101.5 C27.323 112.732 21.208 124.348 13 133 C12.34 133 11.68 133 11 133 C11 133.66 11 134.32 11 135 C10.34 135 9.68 135 9 135 C9 135.66 9 136.32 9 137 C2.394 143.274 -5.153 148.416 -13 153 C-13.788 153.463 -14.575 153.926 -15.387 154.402 C-34.992 165.064 -60.765 165.766 -82 160 C-86.129 158.566 -90.063 156.892 -94 155 C-94.737 154.658 -95.475 154.317 -96.234 153.965 C-100.964 151.701 -105.861 149.236 -110 146 C-110 145.34 -110 144.68 -110 144 C-111.65 143.34 -113.3 142.68 -115 142 C-115 141.34 -115 140.68 -115 140 C-115.835 139.66 -115.835 139.66 -116.688 139.312 C-119.662 137.624 -121.72 135.533 -124 133 C-124 132.34 -124 131.68 -124 131 C-124.66 131 -125.32 131 -126 131 C-127.519 128.946 -128.897 126.911 -130.25 124.75 C-130.65 124.117 -131.051 123.484 -131.463 122.831 C-145.205 100.774 -150.441 75.554 -144.5 49.812 C-142.31 41.303 -138.183 33.67 -134 26 C-132.992 24.004 -131.989 22.006 -131 20 C-130.34 20 -129.68 20 -129 20 C-128.773 19.484 -128.546 18.969 -128.312 18.438 C-123.97 10.373 -118.227 5.511 -111 0 C-109.807 -0.932 -109.807 -0.932 -108.59 -1.883 C-76.789 -25.561 -31.087 -24.237 0 0 Z " fill="#FEFEFE" transform="translate(161,267)"/>
<path d="M0 0 C3.714 0.597 3.714 0.597 7.504 1.207 C25.308 4.059 43.096 6.842 61 9 C61 14.61 61 20.22 61 26 C60.01 26.33 59.02 26.66 58 27 C58 28.65 58 30.3 58 32 C59.98 32.66 61.96 33.32 64 34 C64.66 32.68 65.32 31.36 66 30 C65.018 29.296 65.018 29.296 64.016 28.578 C61.04 24.772 61.56 21.434 61.75 16.75 C61.768 15.91 61.786 15.069 61.805 14.203 C61.852 12.135 61.923 10.067 62 8 C59.36 8 56.72 8 54 8 C54 7.34 54 6.68 54 6 C55.959 6.141 57.917 6.288 59.875 6.438 C61.511 6.559 61.511 6.559 63.18 6.684 C66 7 66 7 68 8 C67.67 8.66 67.34 9.32 67 10 C67.495 10.495 67.495 10.495 68 11 C67.91 12.691 67.754 14.38 67.562 16.062 C67.461 16.982 67.359 17.901 67.254 18.848 C67.128 19.913 67.128 19.913 67 21 C68.156 20.567 68.156 20.567 69.336 20.125 C70.339 19.754 71.342 19.382 72.375 19 C73.373 18.629 74.37 18.257 75.398 17.875 C78 17 78 17 80 17 C80 16.34 80 15.68 80 15 C79.01 14.67 78.02 14.34 77 14 C77.66 13.34 78.32 12.68 79 12 C81.522 12.14 81.522 12.14 84.664 12.68 C85.674 12.847 86.684 13.015 87.725 13.187 C89.012 13.414 90.299 13.641 91.625 13.875 C95.709 14.576 99.793 15.277 104 16 C104 26.56 104 37.12 104 48 C92.633 46.838 81.317 45.569 70 44 C79.24 45.32 88.48 46.64 98 48 C97.67 49.98 97.34 51.96 97 54 C97.99 53.67 98.98 53.34 100 53 C100 51.68 100 50.36 100 49 C101.32 49 102.64 49 104 49 C104 52.3 104 55.6 104 59 C106.64 59 109.28 59 112 59 C112 59.33 112 59.66 112 60 C75.37 60 38.74 60 1 60 C1 51.42 1 42.84 1 34 C1.66 34.66 2.32 35.32 3 36 C2.67 36.99 2.34 37.98 2 39 C3.65 39 5.3 39 7 39 C7 38.01 7 37.02 7 36 C18.966 36.519 30.622 38.169 42.438 40.062 C44.248 40.348 46.058 40.632 47.869 40.916 C52.247 41.604 56.624 42.3 61 43 C58.07 42.216 55.178 41.692 52.175 41.276 C51.22 41.142 50.265 41.008 49.281 40.871 C47.742 40.658 47.742 40.658 46.172 40.441 C43.988 40.135 41.805 39.828 39.621 39.521 C36.187 39.042 32.753 38.563 29.319 38.087 C25.998 37.625 22.679 37.159 19.359 36.691 C18.341 36.552 17.323 36.412 16.275 36.268 C14.823 36.063 14.823 36.063 13.343 35.854 C12.502 35.737 11.661 35.62 10.795 35.5 C7.159 34.85 3.583 33.896 0 33 C0 22.11 0 11.22 0 0 Z " fill="#FEFEFE" transform="translate(263,312)"/>
<path d="M0 0 C0.66 0 1.32 0 2 0 C2 0.66 2 1.32 2 2 C2.66 2 3.32 2 4 2 C3.393 5.153 2.358 7.189 0.438 9.75 C-0.018 10.364 -0.473 10.977 -0.941 11.609 C-1.465 12.298 -1.465 12.298 -2 13 C-1.34 13 -0.68 13 0 13 C0 13.99 0 14.98 0 16 C-2.31 16.99 -4.62 17.98 -7 19 C5.87 19.495 5.87 19.495 19 20 C19 20.33 19 20.66 19 21 C9.1 21 -0.8 21 -11 21 C-11.495 22.485 -11.495 22.485 -12 24 C-6.06 24 -0.12 24 6 24 C6 28.95 6 33.9 6 39 C4.68 39 3.36 39 2 39 C2 54.84 2 70.68 2 87 C1.67 87 1.34 87 1 87 C1 75.12 1 63.24 1 51 C-26.72 51 -54.44 51 -83 51 C-83 53.64 -83 56.28 -83 59 C-55.61 59 -28.22 59 0 59 C0 84.74 0 110.48 0 137 C-0.33 137 -0.66 137 -1 137 C-1 111.59 -1 86.18 -1 60 C-28.06 60 -55.12 60 -83 60 C-83 82.77 -83 105.54 -83 129 C-76.07 129 -69.14 129 -62 129 C-62 133.62 -62 138.24 -62 143 C-62.33 143 -62.66 143 -63 143 C-63 138.71 -63 134.42 -63 130 C-72.57 130 -82.14 130 -92 130 C-92 129.67 -92 129.34 -92 129 C-89.69 129 -87.38 129 -85 129 C-85 99.3 -85 69.6 -85 39 C-86.32 39 -87.64 39 -89 39 C-89 34.05 -89 29.1 -89 24 C-84.71 24 -80.42 24 -76 24 C-76 22.68 -76 21.36 -76 20 C-73.36 20 -70.72 20 -68 20 C-68 21.32 -68 22.64 -68 24 C-65.69 24 -63.38 24 -61 24 C-61 22.68 -61 21.36 -61 20 C-58.69 20 -56.38 20 -54 20 C-54 21.32 -54 22.64 -54 24 C-51.69 24 -49.38 24 -47 24 C-47 22.68 -47 21.36 -47 20 C-44.69 20 -42.38 20 -40 20 C-40 21.32 -40 22.64 -40 24 C-37.69 24 -35.38 24 -33 24 C-33 22.68 -33 21.36 -33 20 C-30.69 20 -28.38 20 -26 20 C-26 21.32 -26 22.64 -26 24 C-23.69 24 -21.38 24 -19 24 C-19 22.68 -19 21.36 -19 20 C-17.02 20 -15.04 20 -13 20 C-12.34 16.04 -11.68 12.08 -11 8 C-9.67 7.691 -9.67 7.691 -8.312 7.375 C-4.084 5.62 -2.789 3.564 0 0 Z " fill="#000000" transform="translate(144,282)"/>
<path d="M0 0 C6.6 0 13.2 0 20 0 C20 1.65 20 3.3 20 5 C21.144 5.171 22.287 5.343 23.466 5.519 C27.769 6.164 32.072 6.809 36.376 7.454 C38.227 7.731 40.078 8.008 41.929 8.286 C52.289 9.837 62.648 11.394 73 13 C73 12.01 73 11.02 73 10 C75.773 10.45 78.543 10.909 81.312 11.375 C82.098 11.501 82.884 11.628 83.693 11.758 C84.451 11.887 85.208 12.016 85.988 12.148 C86.685 12.264 87.381 12.379 88.099 12.498 C90 13 90 13 93 15 C94.98 12.69 96.96 10.38 99 8 C100.32 8.33 101.64 8.66 103 9 C103 13.277 102.294 14.559 100 18 C101.429 18.091 101.429 18.091 102.887 18.184 C104.141 18.267 105.395 18.351 106.688 18.438 C107.929 18.519 109.17 18.6 110.449 18.684 C114 19 114 19 116.428 19.507 C118.906 19.982 121.18 20.156 123.698 20.205 C124.599 20.225 125.5 20.245 126.427 20.266 C127.386 20.282 128.344 20.299 129.332 20.316 C130.324 20.337 131.316 20.358 132.337 20.379 C135.496 20.445 138.654 20.504 141.812 20.562 C143.958 20.606 146.103 20.649 148.248 20.693 C153.499 20.8 158.749 20.902 164 21 C164 21.33 164 21.66 164 22 C160.37 22 156.74 22 153 22 C153 36.85 153 51.7 153 67 C154.32 67.33 155.64 67.66 157 68 C157 71.3 157 74.6 157 78 C156.34 78 155.68 78 155 78 C155 78.66 155 79.32 155 80 C154.34 80 153.68 80 153 80 C153 81.65 153 83.3 153 85 C152.67 85 152.34 85 152 85 C152 64.21 152 43.42 152 22 C151.01 22 150.02 22 149 22 C149 35.53 149 49.06 149 63 C147.68 63 146.36 63 145 63 C144.67 63.66 144.34 64.32 144 65 C143.67 63.35 143.34 61.7 143 60 C144.65 60.66 146.3 61.32 148 62 C148 48.8 148 35.6 148 22 C143.38 22 138.76 22 134 22 C134 32.56 134 43.12 134 54 C135.65 54.33 137.3 54.66 139 55 C137.68 55.33 136.36 55.66 135 56 C134.67 58.97 134.34 61.94 134 65 C130.7 65 127.4 65 124 65 C124 61.7 124 58.4 124 55 C122.515 55.495 122.515 55.495 121 56 C120.267 58.015 120.267 58.015 120 60 C119.01 60 118.02 60 117 60 C117 58.35 117 56.7 117 55 C116.006 54.859 115.011 54.718 113.987 54.573 C110.308 54.049 106.632 53.513 102.956 52.974 C101.363 52.742 99.769 52.513 98.175 52.287 C95.887 51.963 93.602 51.627 91.316 51.289 C90.241 51.14 90.241 51.14 89.145 50.989 C87.418 50.728 85.706 50.372 84 50 C83.67 49.34 83.34 48.68 83 48 C88.197 48.691 93.393 49.385 98.588 50.081 C100.356 50.318 102.123 50.553 103.89 50.788 C106.432 51.126 108.974 51.467 111.516 51.809 C112.699 51.965 112.699 51.965 113.906 52.124 C117.345 52.589 120.627 53.157 124 54 C124 43.44 124 32.88 124 22 C120.04 21.67 116.08 21.34 112 21 C109.413 20.673 106.829 20.324 104.25 19.938 C103.059 19.761 101.868 19.584 100.641 19.402 C99.769 19.27 98.898 19.137 98 19 C98.99 20.98 98.99 20.98 100 23 C98.399 23.673 96.794 24.338 95.188 25 C94.294 25.371 93.401 25.743 92.48 26.125 C90 27 90 27 87 27 C87.33 23.7 87.66 20.4 88 17 C86.35 16.67 84.7 16.34 83 16 C84.32 15.67 85.64 15.34 87 15 C85.187 13.187 82.388 13.324 79.938 12.938 C78.833 12.761 77.728 12.584 76.59 12.402 C75.735 12.27 74.881 12.137 74 12 C74 12.66 74 13.32 74 14 C76.64 14 79.28 14 82 14 C82 19.94 82 25.88 82 32 C83.485 32.495 83.485 32.495 85 33 C85 33.66 85 34.32 85 35 C90.61 35 96.22 35 102 35 C102 35.33 102 35.66 102 36 C100.302 36.056 100.302 36.056 98.57 36.113 C97.089 36.179 95.607 36.245 94.125 36.312 C93.005 36.346 93.005 36.346 91.863 36.381 C89.9 36.478 87.947 36.73 86 37 C85.34 37.99 84.68 38.98 84 40 C81.5 40.312 81.5 40.312 79 40 C77 38 77 38 76.875 35.375 C76.916 34.591 76.957 33.808 77 33 C78.32 32.67 79.64 32.34 81 32 C81 26.39 81 20.78 81 15 C79.832 15.048 78.664 15.095 77.461 15.145 C70.427 15.14 63.544 13.828 56.625 12.688 C55.197 12.457 53.77 12.228 52.342 11.999 C49.526 11.547 46.71 11.092 43.896 10.633 C39.654 9.944 35.409 9.271 31.164 8.605 C27.775 8.074 24.388 7.536 21 7 C20.67 17.56 20.34 28.12 20 39 C23.094 39.392 26.188 39.784 29.375 40.188 C39.995 41.558 50.593 43.073 61.188 44.625 C61.943 44.735 62.698 44.845 63.477 44.958 C65.645 45.275 67.813 45.594 69.98 45.914 C71.238 46.099 72.495 46.284 73.79 46.475 C76.248 46.877 78.603 47.337 81 48 C81 45.69 81 43.38 81 41 C81.33 41 81.66 41 82 41 C82 45.95 82 50.9 82 56 C81.67 56 81.34 56 81 56 C81 53.69 81 51.38 81 49 C80.328 48.944 79.655 48.888 78.962 48.831 C72.449 48.268 65.991 47.513 59.52 46.59 C58.581 46.458 57.642 46.326 56.674 46.191 C53.72 45.775 50.766 45.357 47.812 44.938 C45.791 44.653 43.77 44.368 41.748 44.084 C36.832 43.392 31.916 42.697 27 42 C27 42.99 27 43.98 27 45 C25.515 45.495 25.515 45.495 24 46 C23.34 45.67 22.68 45.34 22 45 C21.67 51.93 21.34 58.86 21 66 C60.6 66 100.2 66 141 66 C141 66.33 141 66.66 141 67 C95.79 67 50.58 67 4 67 C4 68.65 4 70.3 4 72 C3.67 72 3.34 72 3 72 C3 57.48 3 42.96 3 28 C3.99 28.99 4.98 29.98 6 31 C5.67 31.66 5.34 32.32 5 33 C4.844 35.478 4.742 37.933 4.684 40.414 C4.663 41.144 4.642 41.873 4.621 42.625 C4.555 44.958 4.496 47.292 4.438 49.625 C4.394 51.206 4.351 52.786 4.307 54.367 C4.199 58.245 4.1 62.122 4 66 C9.28 66 14.56 66 20 66 C19.505 65.505 19.505 65.505 19 65 C16.03 65 13.06 65 10 65 C10 43.88 10 22.76 10 1 C6.7 1 3.4 1 0 1 C0 0.67 0 0.34 0 0 Z " fill="#000000" transform="translate(243,306)"/>
<path d="M0 0 C-0.824 0.209 -1.648 0.417 -2.496 0.632 C-10.279 2.602 -18.062 4.574 -25.844 6.546 C-29.845 7.56 -33.846 8.573 -37.846 9.586 C-41.711 10.564 -45.575 11.543 -49.44 12.523 C-50.91 12.896 -52.381 13.268 -53.852 13.64 C-55.92 14.163 -57.987 14.688 -60.055 15.212 C-61.23 15.51 -62.404 15.808 -63.615 16.114 C-67.094 17.025 -70.546 17.999 -74 19 C-71.464 22.68 -71.464 22.68 -67.707 24.883 C-64.379 26.256 -62.116 28.174 -59.375 30.5 C-56.627 32.818 -53.993 35.005 -51 37 C-51 37.66 -51 38.32 -51 39 C-46.05 39 -41.1 39 -36 39 C-36 38.01 -36 37.02 -36 36 C-34.35 35.34 -32.7 34.68 -31 34 C-31 28.72 -31 23.44 -31 18 C-30.67 18 -30.34 18 -30 18 C-29.944 19.698 -29.944 19.698 -29.887 21.43 C-29.821 22.911 -29.755 24.393 -29.688 25.875 C-29.654 26.995 -29.654 26.995 -29.619 28.137 C-29.522 30.1 -29.27 32.053 -29 34 C-28.01 34.66 -27.02 35.32 -26 36 C-26 36.99 -26 37.98 -26 39 C-20.72 39 -15.44 39 -10 39 C-10 39.33 -10 39.66 -10 40 C-15.28 40 -20.56 40 -26 40 C-26.33 41.32 -26.66 42.64 -27 44 C-27.99 44.495 -27.99 44.495 -29 45 C-29.312 47.549 -29.513 50.004 -29.625 52.562 C-29.664 53.273 -29.702 53.984 -29.742 54.717 C-29.837 56.477 -29.919 58.239 -30 60 C-29.069 59.826 -28.139 59.652 -27.18 59.473 C-24.062 59.009 -22.016 59.202 -19 60 C-19 57.69 -19 55.38 -19 53 C-17.395 53.141 -15.791 53.288 -14.188 53.438 C-13.294 53.519 -12.401 53.6 -11.48 53.684 C-9 54 -9 54 -6 55 C-6 55.66 -6 56.32 -6 57 C-4.529 56.528 -4.529 56.528 -3.027 56.047 C4.011 53.807 11.062 51.633 18.188 49.688 C19.972 49.198 19.972 49.198 21.793 48.699 C24.662 48.074 27.08 47.852 30 48 C25.976 50.227 21.815 51.089 17.363 52.121 C16.583 52.411 15.804 52.701 15 53 C14.67 53.99 14.34 54.98 14 56 C11.488 57.098 11.488 57.098 8.312 58.062 C7.277 58.383 6.242 58.704 5.176 59.035 C3.604 59.513 3.604 59.513 2 60 C-0.002 60.661 -2.002 61.326 -4 62 C-2.68 63.32 -1.36 64.64 0 66 C-0.99 67.98 -0.99 67.98 -2 70 C-6.75 68.125 -6.75 68.125 -9 67 C-9 66.34 -9 65.68 -9 65 C-9.969 65.186 -10.939 65.371 -11.938 65.562 C-12.948 65.707 -13.959 65.851 -15 66 C-15.33 65.67 -15.66 65.34 -16 65 C-16.715 65.15 -17.431 65.299 -18.168 65.454 C-28.74 67.493 -40.491 64.184 -50.938 62.125 C-52.288 61.865 -53.639 61.606 -54.99 61.348 C-64.004 59.616 -73 57.8 -82 56 C-82 42.47 -82 28.94 -82 15 C-71.657 11.552 -71.657 11.552 -66.75 10.312 C-65.775 10.061 -64.801 9.81 -63.797 9.551 C-61.114 9.022 -58.725 8.896 -56 9 C-58.879 10.555 -61.59 11.516 -64.766 12.289 C-65.568 12.487 -66.37 12.685 -67.196 12.889 C-68.204 13.132 -69.212 13.375 -70.25 13.625 C-73.468 14.409 -76.685 15.192 -80 16 C-80.33 28.87 -80.66 41.74 -81 55 C-78.03 55.33 -75.06 55.66 -72 56 C-69.437 56.42 -66.878 56.866 -64.324 57.34 C-63.287 57.53 -63.287 57.53 -62.229 57.725 C-60.048 58.126 -57.868 58.532 -55.688 58.938 C-50.127 59.967 -44.564 60.987 -39 62 C-37.26 62.322 -37.26 62.322 -35.486 62.65 C-34.44 62.837 -33.394 63.023 -32.316 63.215 C-30.972 63.458 -30.972 63.458 -29.6 63.707 C-25.334 64.188 -21.218 63.691 -17 63 C-17.985 61.783 -17.985 61.783 -19.874 61.972 C-20.685 62.001 -21.496 62.03 -22.332 62.061 C-28.29 62.115 -33.86 61.157 -39.695 60.031 C-40.769 59.831 -41.842 59.632 -42.948 59.426 C-46.342 58.792 -49.734 58.146 -53.125 57.5 C-55.44 57.066 -57.755 56.632 -60.07 56.199 C-65.716 55.144 -71.358 54.072 -77 53 C-77 41.45 -77 29.9 -77 18 C-71.374 16.125 -65.893 14.346 -60.188 12.812 C-58.923 12.468 -57.658 12.124 -56.355 11.77 C-53 11 -53 11 -49 11 C-49.959 8.669 -49.959 8.669 -53 7 C-50.525 7.495 -50.525 7.495 -48 8 C-48 8.66 -48 9.32 -48 10 C-47.458 9.86 -46.915 9.72 -46.357 9.576 C-40.714 8.121 -35.069 6.679 -29.421 5.245 C-27.313 4.708 -25.206 4.168 -23.101 3.624 C-20.074 2.843 -17.045 2.075 -14.016 1.309 C-13.074 1.063 -12.132 0.817 -11.162 0.564 C-10.281 0.344 -9.4 0.123 -8.493 -0.104 C-7.72 -0.301 -6.948 -0.499 -6.151 -0.703 C-3.805 -1.027 -2.237 -0.724 0 0 Z " fill="#8E8E8E" transform="translate(124,91)"/>
<path d="M0 0 C5.28 0 10.56 0 16 0 C16.375 7.938 16.375 7.938 16.478 10.441 C16.58 12.299 16.787 14.151 17 16 C17.66 16.33 18.32 16.66 19 17 C18.34 16.34 17.68 15.68 17 15 C16.855 12.41 16.814 9.958 16.875 7.375 C16.937 3.724 16.937 3.724 17 0 C25.25 0 33.5 0 42 0 C42.843 12.524 42.843 12.524 40.512 16.605 C38.762 18.536 36.937 20.261 35 22 C34.34 22.99 33.68 23.98 33 25 C31.089 25.361 31.089 25.361 28.734 25.341 C27.853 25.34 26.972 25.34 26.065 25.34 C25.113 25.324 24.161 25.309 23.18 25.293 C22.206 25.289 21.232 25.284 20.229 25.28 C17.111 25.263 13.993 25.226 10.875 25.188 C8.764 25.172 6.654 25.159 4.543 25.146 C-0.638 25.113 -5.819 25.062 -11 25 C-11 21.37 -11 17.74 -11 14 C-7.37 14 -3.74 14 0 14 C0 9.38 0 4.76 0 0 Z " fill="#FCFCFC" transform="translate(72,307)"/>
<path d="M0 0 C0.755 0.637 1.511 1.274 2.289 1.93 C3.209 2.628 4.13 3.327 5.078 4.047 C5.808 4.668 6.537 5.29 7.289 5.93 C7.289 6.59 7.289 7.25 7.289 7.93 C7.949 7.93 8.609 7.93 9.289 7.93 C14.41 13.397 18.892 19.258 22.289 25.93 C22.674 26.63 23.06 27.33 23.457 28.051 C35.554 50.718 37.565 76.121 30.188 100.582 C26.398 111.841 20.986 122.785 13.289 131.93 C12.629 131.93 11.969 131.93 11.289 131.93 C11.031 132.512 10.773 133.095 10.508 133.695 C9.191 136.11 7.738 137.747 5.789 139.68 C5.181 140.293 4.572 140.907 3.945 141.539 C2.289 142.93 2.289 142.93 0.289 142.93 C0.289 143.59 0.289 144.25 0.289 144.93 C-18.873 159.751 -43.691 167.287 -67.791 164.707 C-91.095 161.663 -109.316 152.66 -125.711 135.93 C-126.869 134.752 -126.869 134.752 -128.051 133.551 C-144.624 115.769 -151.097 92.68 -150.859 68.82 C-150.066 48.036 -142.833 25.01 -127.711 9.93 C-127.051 9.93 -126.391 9.93 -125.711 9.93 C-125.443 9.29 -125.175 8.651 -124.898 7.992 C-123.711 5.93 -123.711 5.93 -120.711 4.93 C-120.711 4.27 -120.711 3.61 -120.711 2.93 C-86.779 -26.093 -35.012 -29.157 0 0 Z M-113.711 -0.07 C-114.615 0.608 -115.518 1.286 -116.449 1.984 C-122.394 6.634 -127.706 11.465 -131.711 17.93 C-131.711 18.59 -131.711 19.25 -131.711 19.93 C-132.371 19.93 -133.031 19.93 -133.711 19.93 C-134.17 20.847 -134.629 21.765 -135.102 22.711 C-135.545 23.596 -135.545 23.596 -135.997 24.499 C-136.645 25.797 -137.291 27.097 -137.935 28.397 C-139.216 30.98 -140.489 33.543 -141.926 36.043 C-151.332 52.475 -151.601 77.003 -147.023 94.867 C-146.307 97.238 -145.54 99.595 -144.711 101.93 C-144.337 103 -143.963 104.07 -143.578 105.172 C-140.822 112.345 -137.003 118.584 -132.711 124.93 C-132.084 125.929 -132.084 125.929 -131.445 126.949 C-130.59 128.313 -129.66 129.629 -128.711 130.93 C-128.051 130.93 -127.391 130.93 -126.711 130.93 C-126.484 131.487 -126.257 132.043 -126.023 132.617 C-124.335 135.591 -122.244 137.65 -119.711 139.93 C-119.051 139.93 -118.391 139.93 -117.711 139.93 C-117.711 140.59 -117.711 141.25 -117.711 141.93 C-116.061 142.59 -114.411 143.25 -112.711 143.93 C-112.711 144.59 -112.711 145.25 -112.711 145.93 C-93.753 160.487 -69.817 165.091 -46.422 162.695 C-41.782 162.054 -37.257 161.065 -32.711 159.93 C-31.678 159.674 -30.646 159.419 -29.582 159.156 C-16.853 155.461 -2.538 146.901 6.289 136.93 C6.289 136.27 6.289 135.61 6.289 134.93 C6.949 134.93 7.609 134.93 8.289 134.93 C8.289 134.27 8.289 133.61 8.289 132.93 C8.949 132.93 9.609 132.93 10.289 132.93 C13.219 129.459 15.719 125.671 18.289 121.93 C18.821 121.197 19.354 120.465 19.902 119.711 C31.861 101.918 34.813 77.654 31.793 56.805 C31.117 53.442 30.285 50.212 29.289 46.93 C28.96 45.798 28.632 44.666 28.293 43.5 C20.9 20.528 4.243 1.733 -17.08 -9.39 C-22.762 -12.229 -28.565 -14.441 -34.711 -16.07 C-35.324 -16.245 -35.937 -16.421 -36.569 -16.601 C-63.44 -23.557 -91.903 -16.515 -113.711 -0.07 Z " fill="#000000" transform="translate(163.7109375,267.0703125)"/>
<path d="M0 0 C1.753 0.006 1.753 0.006 3.541 0.013 C13.883 0.214 23.176 1.968 32.875 5.5 C33.902 5.873 34.93 6.245 35.988 6.629 C43.835 9.888 50.842 14.79 57.875 19.5 C58.865 20.16 59.855 20.82 60.875 21.5 C60.875 22.16 60.875 22.82 60.875 23.5 C61.432 23.727 61.989 23.954 62.562 24.188 C65.537 25.876 67.595 27.967 69.875 30.5 C69.875 31.16 69.875 31.82 69.875 32.5 C70.535 32.5 71.195 32.5 71.875 32.5 C89.017 53.204 94.665 78.612 92.602 104.996 C89.666 127.18 79.779 145.016 63.875 160.5 C63.165 161.196 62.454 161.892 61.723 162.609 C44.308 178.707 20.839 186.183 -2.641 185.754 C-27.075 183.973 -50.5 174.488 -67.457 156.441 C-85.015 136.005 -93.983 111.604 -92.125 84.5 C-90.039 63.805 -81.637 43.591 -67.125 28.5 C-66.465 28.5 -65.805 28.5 -65.125 28.5 C-64.795 27.51 -64.465 26.52 -64.125 25.5 C-47.245 8.882 -23.482 -0.132 0 0 Z M-46.125 14.5 C-46.993 15.005 -47.86 15.511 -48.754 16.031 C-54.793 19.813 -59.972 24.606 -65.125 29.5 C-66.26 30.563 -66.26 30.563 -67.418 31.648 C-69.351 33.325 -69.351 33.325 -69.125 35.5 C-69.785 35.5 -70.445 35.5 -71.125 35.5 C-79.428 45.556 -84.59 58.095 -88.125 70.5 C-88.389 71.402 -88.654 72.305 -88.926 73.234 C-93.906 94.509 -89.636 119.091 -78.805 137.863 C-75.802 142.576 -72.505 147.053 -69.125 151.5 C-68.593 152.264 -68.06 153.029 -67.512 153.816 C-67.054 154.372 -66.596 154.928 -66.125 155.5 C-65.465 155.5 -64.805 155.5 -64.125 155.5 C-64.125 156.16 -64.125 156.82 -64.125 157.5 C-62.494 159.001 -60.793 160.427 -59.062 161.812 C-58.123 162.572 -57.183 163.331 -56.215 164.113 C-55.195 164.901 -54.176 165.689 -53.125 166.5 C-52.589 166.917 -52.052 167.333 -51.5 167.763 C-47.064 171.085 -42.451 173.428 -37.375 175.625 C-36.188 176.144 -36.188 176.144 -34.977 176.674 C-12.664 186.24 12.203 185.896 34.875 177.5 C41.857 174.413 48.596 170.847 54.875 166.5 C54.875 165.84 54.875 165.18 54.875 164.5 C55.614 164.247 56.352 163.995 57.113 163.734 C71.015 157.521 81.447 137.025 86.875 123.5 C94.944 102.277 93.058 76.444 84.138 55.912 C80.583 48.104 76.285 41.183 70.875 34.5 C69.931 33.253 69.931 33.253 68.969 31.98 C65.19 27.504 60.46 24.112 55.875 20.5 C55.179 19.938 54.483 19.376 53.766 18.797 C43.441 10.691 32.441 6.67 19.875 3.5 C18.906 3.251 17.936 3.002 16.938 2.746 C-4.78 -1.988 -27.265 3.409 -46.125 14.5 Z " fill="#000000" transform="translate(325.125,26.5)"/>
<path d="M0 0 C0.849 0.66 1.699 1.32 2.574 2 C18.007 14.724 27.615 38.013 29.625 57.438 C31.385 80.607 26.938 105.931 11.919 124.411 C9.683 127.013 7.361 129.51 5 132 C4.332 132.746 3.665 133.493 2.977 134.262 C-13.269 151.707 -36.852 160.498 -60.31 161.336 C-75.01 161.589 -90.025 159.132 -103 152 C-104.361 151.321 -104.361 151.321 -105.75 150.629 C-128.77 138.831 -144.269 118.372 -152.211 94.137 C-154.35 85.634 -155.363 77.454 -155.312 68.688 C-155.308 67.684 -155.304 66.681 -155.3 65.647 C-155.18 57.729 -154.25 50.622 -152 43 C-151.745 42.027 -151.49 41.054 -151.227 40.051 C-147.782 28.217 -140.793 14.768 -132 6 C-131.34 6 -130.68 6 -130 6 C-130 5.34 -130 4.68 -130 4 C-129.34 4 -128.68 4 -128 4 C-128 3.34 -128 2.68 -128 2 C-124.511 -1.212 -120.731 -4.075 -117 -7 C-116.419 -7.481 -115.837 -7.962 -115.238 -8.457 C-81.183 -35.183 -30.653 -26.516 0 0 Z M-130.617 7.16 C-146.612 26.222 -155.915 50.109 -153.813 75.239 C-151.649 93.972 -145.495 112.452 -133 127 C-132.34 127 -131.68 127 -131 127 C-130.731 127.593 -130.461 128.186 -130.184 128.797 C-123.152 141.886 -104.759 150.839 -91.109 155.355 C-68.938 161.889 -44.959 160.938 -24 151 C-23.261 150.658 -22.523 150.317 -21.762 149.965 C-17.034 147.698 -12.138 145.236 -8 142 C-8 141.34 -8 140.68 -8 140 C-5.525 139.01 -5.525 139.01 -3 138 C-3 137.34 -3 136.68 -3 136 C-2.443 135.773 -1.886 135.546 -1.312 135.312 C1.662 133.624 3.72 131.533 6 129 C6 128.34 6 127.68 6 127 C6.66 127 7.32 127 8 127 C9.506 125.009 10.858 123.043 12.188 120.938 C12.586 120.306 12.985 119.675 13.395 119.025 C26.911 97.149 32.35 72.46 26.438 46.938 C25.727 44.252 24.903 41.626 24 39 C23.775 38.337 23.549 37.675 23.317 36.992 C15.359 14.603 -2.189 -4.071 -23.5 -14.375 C-61.043 -30.616 -102.467 -22.244 -130.617 7.16 Z " fill="#000000" transform="translate(388,271)"/>
<path d="M0 0 C1.007 0.245 2.014 0.49 3.051 0.742 C16.344 4.411 28.854 10.602 39 20 C39.759 20.69 39.759 20.69 40.534 21.394 C58.509 37.87 69.817 59.276 71 84 C71.826 103.951 67.517 122.943 57 140 C56.488 140.922 55.976 141.843 55.449 142.793 C54.971 143.521 54.493 144.25 54 145 C53.34 145 52.68 145 52 145 C51.768 145.718 51.536 146.436 51.297 147.176 C44.379 162.24 23.789 172.616 9.169 178.238 C3.897 180.09 -1.48 181.156 -7 182 C-7.721 182.129 -8.441 182.258 -9.184 182.391 C-32.402 186.059 -54.44 178.959 -74 167 C-74.597 166.636 -75.194 166.273 -75.81 165.898 C-77.245 164.99 -78.629 164.002 -80 163 C-80 162.34 -80 161.68 -80 161 C-80.563 160.758 -81.127 160.515 -81.707 160.266 C-95.056 152.897 -105.328 133.99 -109.621 119.972 C-114.771 101.597 -115.95 83.572 -111 65 C-110.745 64.001 -110.49 63.002 -110.227 61.973 C-106.397 48.885 -98.667 35.647 -89 26 C-88.34 26 -87.68 26 -87 26 C-87 25.34 -87 24.68 -87 24 C-86.34 24 -85.68 24 -85 24 C-84.67 23.01 -84.34 22.02 -84 21 C-61.005 1.218 -29.771 -7.306 0 0 Z M-89.16 29.188 C-105.932 47.284 -113.345 70.031 -112.961 94.458 C-111.937 115.724 -103.356 136.264 -89 152 C-88.01 152.33 -87.02 152.66 -86 153 C-86 153.66 -86 154.32 -86 155 C-85.34 155 -84.68 155 -84 155 C-83.656 155.872 -83.656 155.872 -83.305 156.762 C-77.252 167.145 -59.233 174.925 -48 178 C-23.116 183.933 1.957 182.001 24.375 169.062 C29.166 166.019 33.611 162.592 38 159 C38.606 158.529 39.212 158.059 39.836 157.574 C51.523 148.187 59.111 134.577 64.375 120.75 C64.614 120.125 64.852 119.501 65.098 118.857 C68.51 109.396 69.364 100.204 69.312 90.188 C69.304 88.457 69.304 88.457 69.295 86.692 C69.181 78.693 68.695 71.589 66 64 C65.563 62.763 65.126 61.525 64.676 60.25 C55.856 36.425 38.896 17.765 15.903 6.964 C-21.281 -9.566 -61.152 0.825 -89.16 29.188 Z " fill="#000000" transform="translate(128,31)"/>
<path d="M0 0 C14.827 1.025 29.352 2.463 44 5 C44 11.27 44 17.54 44 24 C27.847 22.545 13.952 18.498 0 10 C0 6.7 0 3.4 0 0 Z " fill="#FFFFFF" transform="translate(241,133)"/>
<path d="M0 0 C13.2 0 26.4 0 40 0 C40 0.33 40 0.66 40 1 C36.37 1 32.74 1 29 1 C29 15.85 29 30.7 29 46 C30.98 46.495 30.98 46.495 33 47 C33 50.3 33 53.6 33 57 C32.34 57 31.68 57 31 57 C31 57.66 31 58.32 31 59 C30.34 59 29.68 59 29 59 C29 60.65 29 62.3 29 64 C28.67 64 28.34 64 28 64 C28 43.21 28 22.42 28 1 C27.01 1 26.02 1 25 1 C25 14.53 25 28.06 25 42 C23.68 42 22.36 42 21 42 C20.505 42.99 20.505 42.99 20 44 C19.67 42.35 19.34 40.7 19 39 C20.65 39.66 22.3 40.32 24 41 C24 27.8 24 14.6 24 1 C19.38 1 14.76 1 10 1 C10 11.56 10 22.12 10 33 C11.65 33.33 13.3 33.66 15 34 C13.02 34.495 13.02 34.495 11 35 C10.67 37.97 10.34 40.94 10 44 C6.7 44 3.4 44 0 44 C0 40.7 0 37.4 0 34 C-0.99 34.33 -1.98 34.66 -3 35 C-3.733 37.015 -3.733 37.015 -4 39 C-4.99 39 -5.98 39 -7 39 C-7 37.35 -7 35.7 -7 34 C-7.994 33.859 -8.989 33.718 -10.013 33.573 C-13.692 33.049 -17.368 32.513 -21.044 31.974 C-22.637 31.742 -24.231 31.513 -25.825 31.287 C-28.113 30.963 -30.398 30.627 -32.684 30.289 C-33.4 30.19 -34.117 30.091 -34.855 29.989 C-36.582 29.728 -38.294 29.372 -40 29 C-40.33 28.34 -40.66 27.68 -41 27 C-35.803 27.691 -30.607 28.385 -25.412 29.081 C-23.644 29.318 -21.877 29.553 -20.11 29.788 C-17.568 30.126 -15.026 30.467 -12.484 30.809 C-11.696 30.913 -10.907 31.017 -10.094 31.124 C-6.655 31.589 -3.373 32.157 0 33 C0 22.11 0 11.22 0 0 Z " fill="#000000" transform="translate(367,327)"/>
<path d="M0 0 C5.94 0 11.88 0 18 0 C18 4.62 18 9.24 18 14 C21.96 14 25.92 14 30 14 C30 17.63 30 21.26 30 25 C17.13 25 4.26 25 -9 25 C-7.02 22.36 -5.04 19.72 -3 17 C-2.34 17 -1.68 17 -1 17 C-0.67 11.39 -0.34 5.78 0 0 Z " fill="#FFFFFF" transform="translate(115,307)"/>
<path d="M0 0 C3.941 1.668 6.789 4.227 10 7 C10 6.34 10 5.68 10 5 C10.99 5 11.98 5 13 5 C13.99 7.97 14.98 10.94 16 14 C20.95 14.99 20.95 14.99 26 16 C26 16.33 26 16.66 26 17 C22.7 16.67 19.4 16.34 16 16 C16 16.66 16 17.32 16 18 C12.149 17.599 9.266 17.113 5.672 15.59 C-0.549 13.192 -7.175 12.691 -13.75 11.875 C-16.349 11.543 -18.948 11.205 -21.547 10.867 C-22.69 10.724 -23.833 10.581 -25.011 10.433 C-27.409 10.086 -29.67 9.651 -32 9 C-32 10.65 -32 12.3 -32 14 C-31.078 13.964 -30.157 13.928 -29.207 13.891 C-23.952 13.896 -18.855 14.873 -13.688 15.75 C-11.474 16.115 -9.261 16.48 -7.047 16.844 C-5.327 17.128 -5.327 17.128 -3.572 17.418 C2.467 18.402 8.514 19.326 14.562 20.25 C15.704 20.425 16.846 20.6 18.023 20.78 C20.682 21.188 23.341 21.594 26 22 C26 22.33 26 22.66 26 23 C14.896 22.413 4.033 20.739 -6.938 19 C-8.706 18.724 -10.475 18.447 -12.244 18.172 C-18.834 17.143 -25.423 16.108 -32 15 C-31.856 16.073 -31.711 17.145 -31.562 18.25 C-29.576 34.488 -29.802 50.674 -30 67 C-30.66 67 -31.32 67 -32 67 C-31.923 68.132 -31.845 69.263 -31.766 70.429 C-30.998 82.559 -31.036 94.546 -31.438 106.688 C-31.491 108.48 -31.544 110.272 -31.596 112.064 C-31.722 116.377 -31.858 120.688 -32 125 C-32.33 125 -32.66 125 -33 125 C-33 112.13 -33 99.26 -33 86 C-36.63 85.67 -40.26 85.34 -44 85 C-45.65 84.67 -47.3 84.34 -49 84 C-49 83.67 -49 83.34 -49 83 C-46.896 83.141 -44.791 83.288 -42.688 83.438 C-40.93 83.559 -40.93 83.559 -39.137 83.684 C-36 84 -36 84 -33 85 C-33 78.73 -33 72.46 -33 66 C-34.774 65.876 -36.548 65.752 -38.375 65.625 C-44.752 65.138 -51.098 64.466 -57.451 63.731 C-62.605 63.138 -67.754 62.668 -72.934 62.344 C-75 62 -75 62 -78 60 C-73.874 60.256 -69.75 60.533 -65.625 60.812 C-64.488 60.883 -63.351 60.953 -62.18 61.025 C-52.207 61.718 -43 63.333 -33 65 C-33 46.52 -33 28.04 -33 9 C-41.25 8.67 -49.5 8.34 -58 8 C-60.97 7.67 -63.94 7.34 -67 7 C-67 6.67 -67 6.34 -67 6 C-58.653 5.899 -50.388 6.158 -42.062 6.75 C-40.282 6.874 -40.282 6.874 -38.466 7.001 C-27.896 7.806 -17.456 9.184 -6.979 10.767 C-5.817 10.94 -4.654 11.114 -3.457 11.293 C-2.426 11.453 -1.394 11.613 -0.331 11.778 C0.438 11.851 1.207 11.925 2 12 C2.33 11.67 2.66 11.34 3 11 C3 10.34 3 9.68 3 9 C2.34 9 1.68 9 1 9 C-0.389 7.039 -1.726 5.038 -3 3 C-2.01 2.01 -1.02 1.02 0 0 Z " fill="#000000" transform="translate(318,72)"/>
<path d="M0 0 C4.62 0 9.24 0 14 0 C14 13.2 14 26.4 14 40 C9.382 38.845 8.288 37.288 5 34 C3.35 33.34 1.7 32.68 0 32 C0 21.44 0 10.88 0 0 Z " fill="#FFFFFF" transform="translate(377,328)"/>
<path d="M0 0 C3.63 0 7.26 0 11 0 C11 0.33 11 0.66 11 1 C7.7 1 4.4 1 1 1 C1 5.29 1 9.58 1 14 C5.95 14 10.9 14 16 14 C16 9.38 16 4.76 16 0 C16.33 0 16.66 0 17 0 C17 4.95 17 9.9 17 15 C13.37 15 9.74 15 6 15 C6 18.63 6 22.26 6 26 C7.155 25.964 8.31 25.929 9.501 25.892 C13.796 25.762 18.092 25.639 22.388 25.518 C24.245 25.465 26.103 25.409 27.96 25.352 C30.634 25.27 33.307 25.195 35.98 25.121 C36.808 25.094 37.635 25.067 38.487 25.039 C42.486 24.936 46.094 24.976 50 26 C50 26.33 50 26.66 50 27 C35.48 27 20.96 27 6 27 C6 29.64 6 32.28 6 35 C33.39 35 60.78 35 89 35 C89 60.74 89 86.48 89 113 C88.67 113 88.34 113 88 113 C88 87.59 88 62.18 88 36 C60.94 36 33.88 36 6 36 C6 58.77 6 81.54 6 105 C12.93 105 19.86 105 27 105 C27 109.62 27 114.24 27 119 C26.67 119 26.34 119 26 119 C26 114.71 26 110.42 26 106 C16.43 106 6.86 106 -3 106 C-3 105.67 -3 105.34 -3 105 C-0.69 105 1.62 105 4 105 C4 75.3 4 45.6 4 15 C2.68 15 1.36 15 0 15 C0 10.05 0 5.1 0 0 Z M56 18 C56 21 56 21 54.688 22.387 C53.125 23.591 51.562 24.796 50 26 C51.443 22.634 53.333 20.49 56 18 Z " fill="#000000" transform="translate(55,306)"/>
<path d="M0 0 C-2.879 1.555 -5.59 2.516 -8.766 3.289 C-9.568 3.487 -10.37 3.685 -11.196 3.889 C-12.204 4.132 -13.212 4.375 -14.25 4.625 C-17.468 5.409 -20.685 6.192 -24 7 C-24.33 19.87 -24.66 32.74 -25 46 C-22.03 46.33 -19.06 46.66 -16 47 C-13.437 47.42 -10.878 47.866 -8.324 48.34 C-7.287 48.53 -7.287 48.53 -6.229 48.725 C-4.048 49.126 -1.868 49.532 0.312 49.938 C5.873 50.967 11.436 51.987 17 53 C18.74 53.322 18.74 53.322 20.514 53.65 C21.56 53.837 22.606 54.023 23.684 54.215 C24.58 54.377 25.477 54.54 26.4 54.707 C30.666 55.188 34.782 54.691 39 54 C37.983 52.75 37.983 52.75 35.855 52.973 C34.085 53.032 32.314 53.095 30.543 53.16 C28 53 28 53 24 51 C24.33 46.05 24.66 41.1 25 36 C23.35 35.34 21.7 34.68 20 34 C20 33.34 20 32.68 20 32 C22.31 32.66 24.62 33.32 27 34 C26.67 39.61 26.34 45.22 26 51 C28.97 50.505 28.97 50.505 32 50 C34.875 50.438 34.875 50.438 37 51 C37 48.69 37 46.38 37 44 C38.605 44.141 40.209 44.288 41.812 44.438 C42.706 44.519 43.599 44.6 44.52 44.684 C47 45 47 45 50 46 C50 46.66 50 47.32 50 48 C51.471 47.528 51.471 47.528 52.973 47.047 C60.011 44.807 67.062 42.633 74.188 40.688 C75.972 40.198 75.972 40.198 77.793 39.699 C80.662 39.074 83.08 38.852 86 39 C81.976 41.227 77.815 42.089 73.363 43.121 C72.583 43.411 71.804 43.701 71 44 C70.67 44.99 70.34 45.98 70 47 C67.488 48.098 67.488 48.098 64.312 49.062 C63.277 49.383 62.242 49.704 61.176 50.035 C59.604 50.513 59.604 50.513 58 51 C55.998 51.661 53.998 52.326 52 53 C53.32 54.32 54.64 55.64 56 57 C55.34 58.32 54.68 59.64 54 61 C49.25 59.125 49.25 59.125 47 58 C47 57.34 47 56.68 47 56 C46.031 56.186 45.061 56.371 44.062 56.562 C43.052 56.707 42.041 56.851 41 57 C40.67 56.67 40.34 56.34 40 56 C39.285 56.15 38.569 56.299 37.832 56.454 C27.26 58.493 15.509 55.184 5.062 53.125 C3.712 52.865 2.361 52.606 1.01 52.348 C-8.004 50.616 -17 48.8 -26 47 C-26 33.47 -26 19.94 -26 6 C-15.657 2.552 -15.657 2.552 -10.75 1.312 C-9.775 1.061 -8.801 0.81 -7.797 0.551 C-5.114 0.022 -2.725 -0.104 0 0 Z " fill="#000000" transform="translate(68,100)"/>
<path d="M0 0 C2.64 0 5.28 0 8 0 C8 17.82 8 35.64 8 54 C5.36 54 2.72 54 0 54 C0 36.18 0 18.36 0 0 Z " fill="#FFFFFF" transform="translate(254,307)"/>
<path d="M0 0 C0.99 0.99 1.98 1.98 3 3 C2.67 3.66 2.34 4.32 2 5 C1.844 7.478 1.742 9.933 1.684 12.414 C1.663 13.144 1.642 13.873 1.621 14.625 C1.555 16.958 1.496 19.292 1.438 21.625 C1.394 23.206 1.351 24.786 1.307 26.367 C1.199 30.245 1.1 34.122 1 38 C6.28 38 11.56 38 17 38 C15.992 36.767 15.992 36.767 13.934 36.902 C11.622 36.935 9.311 36.967 7 37 C7.495 32.545 7.495 32.545 8 28 C11.96 27.505 11.96 27.505 16 27 C16 21.72 16 16.44 16 11 C22.842 11.724 29.646 12.62 36.457 13.594 C37.522 13.745 38.588 13.897 39.685 14.053 C41.922 14.372 44.158 14.691 46.394 15.011 C49.819 15.501 53.245 15.987 56.67 16.473 C58.849 16.784 61.028 17.095 63.207 17.406 C64.741 17.623 64.741 17.623 66.307 17.845 C67.259 17.982 68.21 18.119 69.191 18.26 C70.025 18.379 70.86 18.498 71.719 18.621 C73.852 18.975 75.912 19.443 78 20 C78 17.69 78 15.38 78 13 C78.33 13 78.66 13 79 13 C79 17.95 79 22.9 79 28 C78.67 28 78.34 28 78 28 C78 25.69 78 23.38 78 21 C77.328 20.944 76.655 20.888 75.962 20.831 C69.449 20.268 62.991 19.513 56.52 18.59 C55.581 18.458 54.642 18.326 53.674 18.191 C50.72 17.775 47.766 17.357 44.812 16.938 C42.791 16.653 40.77 16.368 38.748 16.084 C33.832 15.392 28.916 14.697 24 14 C24 14.99 24 15.98 24 17 C23.01 17.33 22.02 17.66 21 18 C20.34 17.67 19.68 17.34 19 17 C18.67 23.93 18.34 30.86 18 38 C57.6 38 97.2 38 138 38 C138 38.33 138 38.66 138 39 C92.79 39 47.58 39 1 39 C1 40.65 1 42.3 1 44 C0.67 44 0.34 44 0 44 C0 29.48 0 14.96 0 0 Z " fill="#000000" transform="translate(246,334)"/>
<path d="M0 0 C0.33 0 0.66 0 1 0 C1.056 1.698 1.056 1.698 1.113 3.43 C1.179 4.911 1.245 6.393 1.312 7.875 C1.346 8.995 1.346 8.995 1.381 10.137 C1.478 12.1 1.73 14.053 2 16 C2.99 16.66 3.98 17.32 5 18 C5 18.99 5 19.98 5 21 C10.28 21 15.56 21 21 21 C21 21.33 21 21.66 21 22 C15.72 22 10.44 22 5 22 C4.67 23.32 4.34 24.64 4 26 C-2.75 24.125 -2.75 24.125 -5 23 C-8.441 22.736 -11.875 22.555 -15.322 22.395 C-20.899 22.101 -20.899 22.101 -22 21 C-22.454 21.804 -22.907 22.609 -23.375 23.438 C-25 26 -25 26 -27 27 C-33.999 27.688 -33.999 27.688 -38 24.938 C-40.532 21.218 -40.698 19.424 -40 15 C-38 11.562 -38 11.562 -36 9 C-36.33 8.34 -36.66 7.68 -37 7 C-33.543 8.54 -30.857 10.605 -27.938 13 C-25.333 15.13 -22.802 17.132 -20 19 C-20 19.66 -20 20.32 -20 21 C-15.05 21 -10.1 21 -5 21 C-5 20.01 -5 19.02 -5 18 C-3.35 17.34 -1.7 16.68 0 16 C0 10.72 0 5.44 0 0 Z " fill="#A6A6A6" transform="translate(93,109)"/>
<path d="M0 0 C3.3 0 6.6 0 10 0 C10.495 1.485 10.495 1.485 11 3 C12.32 3.66 13.64 4.32 15 5 C15 9.95 15 14.9 15 20 C-0.014 17.41 -15.014 14.751 -30 12 C-30 10.35 -30 8.7 -30 7 C-15.202 8.539 -0.622 11.303 14 14 C14 13.34 14 12.68 14 12 C13.274 11.752 12.549 11.505 11.801 11.25 C8.722 9.876 6.685 8.253 4.188 6 C3.397 5.299 2.607 4.597 1.793 3.875 C0 2 0 2 0 0 Z " fill="#FFFFFF" transform="translate(78,131)"/>
<path d="M0 0 C0.33 0 0.66 0 1 0 C1 2.97 1 5.94 1 9 C2.089 8.97 3.177 8.94 4.299 8.909 C9.678 8.913 14.905 9.685 20.219 10.461 C21.276 10.612 22.333 10.762 23.423 10.917 C25.649 11.236 27.874 11.557 30.099 11.881 C33.488 12.373 36.879 12.855 40.27 13.336 C42.44 13.648 44.611 13.96 46.781 14.273 C48.289 14.488 48.289 14.488 49.828 14.706 C55.326 15.512 60.635 16.549 66 18 C62.812 18.874 60.678 18.977 57.406 18.398 C56.475 18.24 55.543 18.082 54.584 17.919 C53.566 17.739 52.548 17.56 51.5 17.375 C40.171 15.463 28.82 13.812 17.438 12.25 C16.62 12.138 15.803 12.025 14.961 11.909 C10.308 11.269 5.654 10.633 1 10 C1 11.65 1 13.3 1 15 C2.952 14.962 2.952 14.962 4.943 14.922 C9.703 14.925 14.228 15.474 18.918 16.242 C19.738 16.371 20.557 16.499 21.402 16.631 C23.998 17.039 26.593 17.457 29.188 17.875 C31.757 18.283 34.327 18.688 36.896 19.094 C38.567 19.358 40.238 19.624 41.908 19.891 C45.685 20.494 49.46 21.074 53.252 21.571 C54.506 21.736 55.759 21.901 57.051 22.07 C58.137 22.205 59.222 22.339 60.341 22.477 C63 23 63 23 66 25 C52.292 23.608 38.728 21.638 25.126 19.454 C22.58 19.046 20.032 18.644 17.484 18.242 C16.719 18.117 15.953 17.992 15.164 17.863 C11.063 17.218 7.168 16.869 3 17 C5.934 19.934 9.183 19.462 13.125 19.625 C13.879 19.664 14.633 19.702 15.41 19.742 C17.273 19.837 19.136 19.919 21 20 C21 20.66 21 21.32 21 22 C19.32 22.056 19.32 22.056 17.605 22.113 C16.133 22.179 14.66 22.245 13.188 22.312 C12.45 22.335 11.712 22.358 10.951 22.381 C6.715 22.513 6.715 22.513 3.148 24.555 C2.769 25.032 2.39 25.509 2 26 C-1.342 25.755 -2.605 25.395 -5 23 C-7.734 22.694 -10.383 22.489 -13.125 22.375 C-13.879 22.336 -14.633 22.298 -15.41 22.258 C-17.273 22.163 -19.136 22.081 -21 22 C-21 21.34 -21 20.68 -21 20 C-19.337 19.944 -19.337 19.944 -17.641 19.887 C-16.177 19.821 -14.714 19.755 -13.25 19.688 C-12.156 19.654 -12.156 19.654 -11.039 19.619 C-7.987 19.467 -5.36 19.151 -2.531 17.969 C-0.138 14.891 -0.322 11.56 -0.25 7.812 C-0.22 7.063 -0.191 6.313 -0.16 5.541 C-0.09 3.695 -0.043 1.847 0 0 Z " fill="#000000" transform="translate(345,80)"/>
<path d="M0 0 C2.64 0 5.28 0 8 0 C8 10.89 8 21.78 8 33 C6.02 33 4.04 33 2 33 C2 35.97 2 38.94 2 42 C1.34 42 0.68 42 0 42 C0 28.14 0 14.28 0 0 Z " fill="#FFFFFF" transform="translate(368,328)"/>
<path d="M0 0 C1.32 0.33 2.64 0.66 4 1 C4 5.277 3.294 6.559 1 10 C2.342 10.073 2.342 10.073 3.711 10.148 C10.963 10.597 17.926 11.321 25 13 C25 13.33 25 13.66 25 14 C16.266 13.392 7.654 12.319 -1 11 C-0.34 12.32 0.32 13.64 1 15 C-0.601 15.673 -2.206 16.338 -3.812 17 C-4.706 17.371 -5.599 17.743 -6.52 18.125 C-9 19 -9 19 -12 19 C-11.67 15.7 -11.34 12.4 -11 9 C-12.65 8.67 -14.3 8.34 -16 8 C-14.68 7.67 -13.36 7.34 -12 7 C-13.885 5.115 -17.027 5.307 -19.562 4.938 C-21.359 4.673 -21.359 4.673 -23.191 4.402 C-24.118 4.27 -25.045 4.137 -26 4 C-26 3.34 -26 2.68 -26 2 C-23.227 2.45 -20.457 2.909 -17.688 3.375 C-16.509 3.564 -16.509 3.564 -15.307 3.758 C-14.549 3.887 -13.792 4.016 -13.012 4.148 C-12.315 4.264 -11.619 4.379 -10.901 4.498 C-9 5 -9 5 -6 7 C-4.02 4.69 -2.04 2.38 0 0 Z " fill="#000000" transform="translate(342,314)"/>
<path d="M0 0 C0.66 0 1.32 0 2 0 C2 0.66 2 1.32 2 2 C2.66 2 3.32 2 4 2 C3.393 5.153 2.358 7.189 0.438 9.75 C-0.018 10.364 -0.473 10.977 -0.941 11.609 C-1.291 12.068 -1.64 12.527 -2 13 C-1.34 13 -0.68 13 0 13 C0 13.99 0 14.98 0 16 C-2.31 16.99 -4.62 17.98 -7 19 C5.87 19.495 5.87 19.495 19 20 C19 20.33 19 20.66 19 21 C18.102 20.984 17.203 20.969 16.278 20.952 C12.949 20.901 9.621 20.864 6.292 20.835 C4.851 20.82 3.41 20.8 1.968 20.774 C-0.102 20.737 -2.172 20.72 -4.242 20.707 C-5.489 20.691 -6.735 20.676 -8.019 20.659 C-9.003 20.772 -9.986 20.884 -11 21 C-11.66 21.99 -12.32 22.98 -13 24 C-14.32 24 -15.64 24 -17 24 C-17 23.01 -17 22.02 -17 21 C-15.68 20.67 -14.36 20.34 -13 20 C-12.34 16.04 -11.68 12.08 -11 8 C-9.67 7.691 -9.67 7.691 -8.312 7.375 C-4.084 5.62 -2.789 3.564 0 0 Z " fill="#0E0E0E" transform="translate(144,282)"/>
<path d="M0 0 C4.95 0 9.9 0 15 0 C15 4.29 15 8.58 15 13 C10.05 13 5.1 13 0 13 C0 8.71 0 4.42 0 0 Z " fill="#FFFFFF" transform="translate(134,307)"/>
<path d="M0 0 C4.95 0 9.9 0 15 0 C15 4.29 15 8.58 15 13 C10.05 13 5.1 13 0 13 C0 8.71 0 4.42 0 0 Z " fill="#FFFFFF" transform="translate(56,307)"/>
<path d="M0 0 C2.64 0 5.28 0 8 0 C8 1.32 8 2.64 8 4 C10.31 4 12.62 4 15 4 C15 2.68 15 1.36 15 0 C17.31 0 19.62 0 22 0 C22 1.32 22 2.64 22 4 C24.31 4 26.62 4 29 4 C29 2.68 29 1.36 29 0 C31.31 0 33.62 0 36 0 C36 1.32 36 2.64 36 4 C38.31 4 40.62 4 43 4 C43 2.68 43 1.36 43 0 C44.65 0 46.3 0 48 0 C48 1.32 48 2.64 48 4 C45.338 5.331 43.313 5.113 40.336 5.098 C39.214 5.094 38.093 5.091 36.938 5.088 C35.762 5.08 34.586 5.071 33.375 5.062 C32.192 5.058 31.008 5.053 29.789 5.049 C26.859 5.037 23.93 5.021 21 5 C21.087 7.418 21.194 9.833 21.312 12.25 C21.335 12.932 21.358 13.614 21.381 14.316 C21.602 18.452 22.096 20.979 25 24 C21.125 22.125 21.125 22.125 20 21 C19.927 18.301 19.908 15.635 19.938 12.938 C19.958 10.318 19.979 7.699 20 5 C12.74 5 5.48 5 -2 5 C-1.34 4.67 -0.68 4.34 0 4 C0 2.68 0 1.36 0 0 Z " fill="#2F2F2F" transform="translate(68,302)"/>
<path d="M0 0 C2.97 0 5.94 0 9 0 C9 0.33 9 0.66 9 1 C6.36 1 3.72 1 1 1 C1 14.86 1 28.72 1 43 C1.66 43 2.32 43 3 43 C3 40.03 3 37.06 3 34 C5.97 34.495 5.97 34.495 9 35 C9 37.64 9 40.28 9 43 C6.043 44.478 3.258 44.06 0 44 C0 40.7 0 37.4 0 34 C-0.99 34.33 -1.98 34.66 -3 35 C-3.733 37.015 -3.733 37.015 -4 39 C-4.99 39 -5.98 39 -7 39 C-7 37.35 -7 35.7 -7 34 C-7.994 33.859 -8.989 33.718 -10.013 33.573 C-13.692 33.049 -17.368 32.513 -21.044 31.974 C-22.637 31.742 -24.231 31.513 -25.825 31.287 C-28.113 30.963 -30.398 30.627 -32.684 30.289 C-33.4 30.19 -34.117 30.091 -34.855 29.989 C-36.582 29.728 -38.294 29.372 -40 29 C-40.33 28.34 -40.66 27.68 -41 27 C-35.803 27.691 -30.607 28.385 -25.412 29.081 C-23.644 29.318 -21.877 29.553 -20.11 29.788 C-17.568 30.126 -15.026 30.467 -12.484 30.809 C-11.696 30.913 -10.907 31.017 -10.094 31.124 C-6.655 31.589 -3.373 32.157 0 33 C0 22.11 0 11.22 0 0 Z " fill="#000000" transform="translate(367,327)"/>
<path d="M0 0 C0.577 0.165 1.155 0.33 1.75 0.5 C4.463 1.103 6.319 0.635 9 0 C13 0 17 0 21 0 C20.01 0.33 19.02 0.66 18 1 C18 1.66 18 2.32 18 3 C18.99 3 19.98 3 21 3 C21 4.65 21 6.3 21 8 C14 8 14 8 12.188 7.438 C9.526 6.905 7.621 7.379 5 8 C2.844 8 1.076 7.553 -1 7 C-1.043 5 -1.041 3 -1 1 C-0.67 0.67 -0.34 0.34 0 0 Z " fill="#2D2D2D" transform="translate(385,495)"/>
<path d="M0 0 C0.33 0 0.66 0 1 0 C1.037 1.132 1.075 2.264 1.113 3.43 C1.179 4.911 1.245 6.393 1.312 7.875 C1.335 8.621 1.358 9.368 1.381 10.137 C1.478 12.1 1.73 14.053 2 16 C2.99 16.66 3.98 17.32 5 18 C5 18.99 5 19.98 5 21 C10.28 21 15.56 21 21 21 C21 21.33 21 21.66 21 22 C15.72 22 10.44 22 5 22 C4.67 23.32 4.34 24.64 4 26 C-2.75 24.125 -2.75 24.125 -5 23 C-7.713 22.768 -10.408 22.581 -13.125 22.438 C-14.256 22.373 -14.256 22.373 -15.41 22.307 C-17.273 22.201 -19.137 22.1 -21 22 C-21.33 21.01 -21.66 20.02 -22 19 C-21.34 19 -20.68 19 -20 19 C-20 19.66 -20 20.32 -20 21 C-15.05 21 -10.1 21 -5 21 C-5 20.01 -5 19.02 -5 18 C-3.35 17.34 -1.7 16.68 0 16 C0 10.72 0 5.44 0 0 Z " fill="#000000" transform="translate(93,109)"/>
<path d="M0 0 C3.585 1.622 6.59 3.793 9.75 6.125 C11.227 7.212 11.227 7.212 12.734 8.32 C13.482 8.875 14.23 9.429 15 10 C14.01 10.495 14.01 10.495 13 11 C10.69 9.35 8.38 7.7 6 6 C5.168 16.013 4.803 25.979 4.684 36.023 C4.663 37.506 4.642 38.988 4.621 40.47 C4.566 44.32 4.516 48.17 4.468 52.02 C4.417 55.969 4.362 59.918 4.307 63.867 C4.2 71.578 4.098 79.289 4 87 C3.67 87 3.34 87 3 87 C2.992 85.954 2.984 84.909 2.975 83.831 C2.898 73.987 2.81 64.143 2.712 54.299 C2.662 49.238 2.616 44.176 2.578 39.115 C2.541 34.233 2.495 29.35 2.442 24.468 C2.423 22.603 2.408 20.738 2.397 18.874 C2.38 16.266 2.351 13.659 2.319 11.052 C2.317 10.277 2.315 9.502 2.312 8.704 C2.253 4.939 2.141 3.211 0 0 Z " fill="#000000" transform="translate(299,116)"/>
<path d="M0 0 C2.992 1.364 5.29 2.949 7.75 5.125 C8.67 5.933 8.67 5.933 9.609 6.758 C10.068 7.168 10.527 7.578 11 8 C10.01 8 9.02 8 8 8 C7.722 8.959 7.722 8.959 7.438 9.938 C6 12 6 12 2.5 12.875 C1.345 12.916 0.19 12.958 -1 13 C-3 11 -3 11 -3.438 8.562 C-3 6 -3 6 -0.5 4.188 C0.325 3.796 1.15 3.404 2 3 C1.34 2.01 0.68 1.02 0 0 Z " fill="#000000" transform="translate(60,119)"/>
<path d="M0 0 C0.33 0 0.66 0 1 0 C1 5.94 1 11.88 1 18 C1.99 18.33 2.98 18.66 4 19 C4 19.66 4 20.32 4 21 C9.61 21 15.22 21 21 21 C21 21.33 21 21.66 21 22 C19.868 22.037 18.736 22.075 17.57 22.113 C16.089 22.179 14.607 22.245 13.125 22.312 C12.379 22.335 11.632 22.358 10.863 22.381 C8.9 22.478 6.947 22.73 5 23 C4.34 23.99 3.68 24.98 3 26 C0.5 26.312 0.5 26.312 -2 26 C-4 24 -4 24 -4.125 21.375 C-4.084 20.591 -4.043 19.808 -4 19 C-2.68 18.67 -1.36 18.34 0 18 C0 12.06 0 6.12 0 0 Z " fill="#000000" transform="translate(324,320)"/>
<path d="M0 0 C2.64 0 5.28 0 8 0 C8 1.32 8 2.64 8 4 C10.31 4 12.62 4 15 4 C15 2.68 15 1.36 15 0 C16.65 0 18.3 0 20 0 C20 1.32 20 2.64 20 4 C17.599 5.2 16.106 5.115 13.43 5.098 C12.534 5.094 11.638 5.091 10.715 5.088 C9.778 5.08 8.841 5.071 7.875 5.062 C6.93 5.058 5.985 5.053 5.012 5.049 C2.674 5.037 0.337 5.021 -2 5 C-1.34 4.67 -0.68 4.34 0 4 C0 2.68 0 1.36 0 0 Z " fill="#484848" transform="translate(68,302)"/>
<path d="M0 0 C2.475 0.495 2.475 0.495 5 1 C5 4.3 5 7.6 5 11 C4.34 11 3.68 11 3 11 C3 11.66 3 12.32 3 13 C2.34 13 1.68 13 1 13 C1 14.65 1 16.3 1 18 C0.67 18 0.34 18 0 18 C0 12.06 0 6.12 0 0 Z " fill="#555555" transform="translate(395,373)"/>
<path d="M0 0 C2.31 0 4.62 0 7 0 C7 2.64 7 5.28 7 8 C4.69 8 2.38 8 0 8 C0 5.36 0 2.72 0 0 Z " fill="#FFFFFF" transform="translate(254,362)"/>
<path d="M0 0 C2.625 0.375 2.625 0.375 5 1 C5.625 3.375 5.625 3.375 6 6 C5.34 6.66 4.68 7.32 4 8 C1.375 7.625 1.375 7.625 -1 7 C-1.625 4.625 -1.625 4.625 -2 2 C-1.34 1.34 -0.68 0.68 0 0 Z " fill="#000000" transform="translate(293,158)"/>
<path d="M0 0 C1.65 0 3.3 0 5 0 C4.01 0.33 3.02 0.66 2 1 C2 1.66 2 2.32 2 3 C2.99 3 3.98 3 5 3 C5 4.65 5 6.3 5 8 C3.35 8 1.7 8 0 8 C0 7.01 0 6.02 0 5 C-1.98 5.99 -1.98 5.99 -4 7 C-4 5.02 -4 3.04 -4 1 C-2.02 1.99 -2.02 1.99 0 3 C0 2.01 0 1.02 0 0 Z " fill="#5A5A5A" transform="translate(401,495)"/>
<path d="M0 0 C0.66 0 1.32 0 2 0 C1.67 1.98 1.34 3.96 1 6 C2.975 5.652 2.975 5.652 5 5 C5.33 4.34 5.66 3.68 6 3 C11.94 3 17.88 3 24 3 C24 3.33 24 3.66 24 4 C22.868 4.037 21.736 4.075 20.57 4.113 C19.089 4.179 17.607 4.245 16.125 4.312 C15.005 4.346 15.005 4.346 13.863 4.381 C11.9 4.478 9.947 4.73 8 5 C7.01 6.485 7.01 6.485 6 8 C3.5 8.312 3.5 8.312 1 8 C-1 6 -1 6 -1.188 3.438 C-1 1 -1 1 0 0 Z " fill="#000000" transform="translate(321,338)"/>
<path d="M0 0 C2.31 0.66 4.62 1.32 7 2 C6.67 7.61 6.34 13.22 6 19 C7.98 18.67 9.96 18.34 12 18 C13.875 19.438 13.875 19.438 15 21 C10.398 21.177 8.216 21.108 4 19 C4.33 14.05 4.66 9.1 5 4 C2.525 3.01 2.525 3.01 0 2 C0 1.34 0 0.68 0 0 Z " fill="#000000" transform="translate(88,132)"/>
<path d="M0 0 C1.675 0.286 3.344 0.618 5 1 C6.125 4.75 6.125 4.75 5 7 C2.625 7.125 2.625 7.125 0 7 C-0.66 6.34 -1.32 5.68 -2 5 C-1.464 1.464 -1.464 1.464 0 0 Z " fill="#FFFFFF" transform="translate(91,127)"/>
<path d="M0 0 C1.65 0 3.3 0 5 0 C6.125 5.75 6.125 5.75 5 8 C3.35 8 1.7 8 0 8 C-0.981 4.947 -0.981 3.053 0 0 Z " fill="#2E2E2E" transform="translate(375,495)"/>
<path d="M0 0 C-0.33 0.99 -0.66 1.98 -1 3 C-3.634 3.917 -6.109 4.626 -8.812 5.25 C-9.538 5.436 -10.263 5.621 -11.01 5.812 C-14.723 6.709 -17.357 7.123 -21 6 C-21 5.67 -21 5.34 -21 5 C-17.876 4.163 -14.751 3.331 -11.625 2.5 C-10.736 2.262 -9.846 2.023 -8.93 1.777 C-8.079 1.552 -7.228 1.326 -6.352 1.094 C-5.566 0.884 -4.781 0.675 -3.971 0.459 C-2 0 -2 0 0 0 Z " fill="#FFFFFF" transform="translate(137,144)"/>
<path d="M0 0 C2.625 0.375 2.625 0.375 5 1 C5.33 2.32 5.66 3.64 6 5 C3 7 3 7 0.812 6.625 C0.214 6.419 -0.384 6.213 -1 6 C-1.625 4.125 -1.625 4.125 -2 2 C-1.34 1.34 -0.68 0.68 0 0 Z " fill="#FFFFFF" transform="translate(60,124)"/>
<path d="M0 0 C0.66 0 1.32 0 2 0 C2 1.32 2 2.64 2 4 C4.31 4 6.62 4 9 4 C9 2.68 9 1.36 9 0 C10.65 0 12.3 0 14 0 C14 1.32 14 2.64 14 4 C10.997 5.502 8.209 5.093 4.875 5.062 C3.594 5.053 2.312 5.044 0.992 5.035 C-0.489 5.018 -0.489 5.018 -2 5 C-1.34 4.67 -0.68 4.34 0 4 C0 2.68 0 1.36 0 0 Z " fill="#484848" transform="translate(102,302)"/>
<path d="M0 0 C1.65 0 3.3 0 5 0 C5 2.64 5 5.28 5 8 C3.35 8 1.7 8 0 8 C0 5.36 0 2.72 0 0 Z " fill="#FFFFFF" transform="translate(371,362)"/>
<path d="M0 0 C0.66 0 1.32 0 2 0 C2.66 1.65 3.32 3.3 4 5 C4.454 4.175 4.907 3.35 5.375 2.5 C5.911 1.675 6.447 0.85 7 0 C7.66 0 8.32 0 9 0 C8.01 3.3 7.02 6.6 6 10 C5.01 10 4.02 10 3 10 C2.496 8.71 1.997 7.418 1.5 6.125 C1.222 5.406 0.943 4.686 0.656 3.945 C0 2 0 2 0 0 Z " fill="#000000" transform="translate(248,420)"/>
<path d="M0 0 C1.32 0 2.64 0 4 0 C3.67 0.66 3.34 1.32 3 2 C3.33 2.33 3.66 2.66 4 3 C4.041 4.666 4.043 6.334 4 8 C2.35 7.67 0.7 7.34 -1 7 C-0.67 4.69 -0.34 2.38 0 0 Z " fill="#1E1E1E" transform="translate(413,495)"/>
<path d="M0 0 C0.99 0.33 1.98 0.66 3 1 C3 4.3 3 7.6 3 11 C2.01 11 1.02 11 0 11 C0 7.37 0 3.74 0 0 Z " fill="#000000" transform="translate(397,373)"/>
<path d="M0 0 C1.65 0.33 3.3 0.66 5 1 C4.67 2.65 4.34 4.3 4 6 C2.35 5.67 0.7 5.34 -1 5 C-0.67 3.35 -0.34 1.7 0 0 Z " fill="#FFFFFF" transform="translate(343,98)"/>
<path d="M0 0 C0.99 0 1.98 0 3 0 C3 3.3 3 6.6 3 10 C2.01 10 1.02 10 0 10 C0 6.7 0 3.4 0 0 Z " fill="#000000" transform="translate(247,199)"/>
<path d="M0 0 C2.062 0.438 2.062 0.438 4 1 C4.33 2.32 4.66 3.64 5 5 C3.35 5.33 1.7 5.66 0 6 C-0.382 4.344 -0.714 2.675 -1 1 C-0.67 0.67 -0.34 0.34 0 0 Z " fill="#5D5D5D" transform="translate(173,102)"/>
<path d="M0 0 C1.98 0 3.96 0 6 0 C6 1.32 6 2.64 6 4 C3.36 4.33 0.72 4.66 -2 5 C-1.34 4.67 -0.68 4.34 0 4 C0 2.68 0 1.36 0 0 Z " fill="#696969" transform="translate(68,302)"/>
<path d="M0 0 C1.675 0.286 3.344 0.618 5 1 C4.67 2.32 4.34 3.64 4 5 C2.68 5 1.36 5 0 5 C-0.562 3.062 -0.562 3.062 -1 1 C-0.67 0.67 -0.34 0.34 0 0 Z " fill="#484848" transform="translate(256,122)"/>
<path d="M0 0 C2.475 0.495 2.475 0.495 5 1 C5 2.65 5 4.3 5 6 C4.01 6.33 3.02 6.66 2 7 C1.34 6.67 0.68 6.34 0 6 C0 4.02 0 2.04 0 0 Z " fill="#313131" transform="translate(265,345)"/>
<path d="M0 0 C1.65 0.33 3.3 0.66 5 1 C4.67 2.32 4.34 3.64 4 5 C2.35 4.67 0.7 4.34 -1 4 C-0.67 2.68 -0.34 1.36 0 0 Z " fill="#4E4E4E" transform="translate(379,141)"/>
<path d="M0 0 C1.65 0.33 3.3 0.66 5 1 C4.67 2.32 4.34 3.64 4 5 C2.35 4.67 0.7 4.34 -1 4 C-0.67 2.68 -0.34 1.36 0 0 Z " fill="#4E4E4E" transform="translate(131,117)"/>
<path d="M0 0 C1.65 0.33 3.3 0.66 5 1 C4.67 2.32 4.34 3.64 4 5 C2.35 4.67 0.7 4.34 -1 4 C-0.67 2.68 -0.34 1.36 0 0 Z " fill="#4E4E4E" transform="translate(155,92)"/>
<path d="M0 0 C1.65 0.33 3.3 0.66 5 1 C4.625 2.938 4.625 2.938 4 5 C3.01 5.495 3.01 5.495 2 6 C1.01 5.34 0.02 4.68 -1 4 C-0.67 2.68 -0.34 1.36 0 0 Z " fill="#444444" transform="translate(174,90)"/>
<path d="M0 0 C1.65 0.33 3.3 0.66 5 1 C4.34 1.66 3.68 2.32 3 3 C2.357 5.069 2.357 5.069 2 7 C1.01 7 0.02 7 -1 7 C-0.67 4.69 -0.34 2.38 0 0 Z " fill="#282828" transform="translate(361,359)"/>
<path d="M0 0 C1.32 0.66 2.64 1.32 4 2 C3.34 3.32 2.68 4.64 2 6 C0.68 5.34 -0.64 4.68 -2 4 C-1.34 2.68 -0.68 1.36 0 0 Z " fill="#FFFFFF" transform="translate(294,159)"/>
<path d="M0 0 C1.98 0.495 1.98 0.495 4 1 C3.67 2.32 3.34 3.64 3 5 C1.68 5 0.36 5 -1 5 C-0.67 3.35 -0.34 1.7 0 0 Z " fill="#FFFFFF" transform="translate(323,339)"/>
<path d="M0 0 C1.98 0.495 1.98 0.495 4 1 C3.67 2.32 3.34 3.64 3 5 C1.68 4.67 0.36 4.34 -1 4 C-0.67 2.68 -0.34 1.36 0 0 Z " fill="#3C3C3C" transform="translate(370,332)"/>
<path d="M0 0 C0.99 0.33 1.98 0.66 3 1 C2.67 2.32 2.34 3.64 2 5 C1.01 5 0.02 5 -1 5 C-1.33 4.01 -1.66 3.02 -2 2 C-1.34 1.34 -0.68 0.68 0 0 Z " fill="#383838" transform="translate(257,346)"/>
<path d="M0 0 C0.99 0 1.98 0 3 0 C3 1.65 3 3.3 3 5 C1.68 4.67 0.36 4.34 -1 4 C-0.67 2.68 -0.34 1.36 0 0 Z " fill="#383838" transform="translate(387,334)"/>
<path d="M0 0 C1.98 0.495 1.98 0.495 4 1 C4 1.99 4 2.98 4 4 C2.35 3.67 0.7 3.34 -1 3 C-0.67 2.01 -0.34 1.02 0 0 Z " fill="#2D2D2D" transform="translate(256,315)"/>
</svg>
