<?xml version="1.0" encoding="UTF-8"?>
<!-- Generator: visioncortex VTracer 0.6.4 -->
<svg version="1.1" xmlns="http://www.w3.org/2000/svg" width="338" height="287">
<path d="M0 0 C111.54 0 223.08 0 338 0 C338 94.71 338 189.42 338 287 C226.46 287 114.92 287 0 287 C0 192.29 0 97.58 0 0 Z " fill="#FFFFFF" transform="translate(0,0)"/>
<path d="M0 0 C0 0.33 0 0.66 0 1 C-1.922 1.105 -1.922 1.105 -3.883 1.212 C-29.712 2.64 -55.388 4.275 -81 8 C-82.085 8.156 -83.17 8.312 -84.289 8.472 C-95.921 10.179 -107.406 12.417 -118.875 15 C-119.939 15.237 -121.003 15.474 -122.099 15.718 C-127.944 17.083 -133.418 18.788 -138.946 21.133 C-140.6 21.831 -142.296 22.432 -144 23 C-145.009 24.728 -145.009 24.728 -146 27 C-147.003 28.644 -148.006 30.287 -149.021 31.923 C-155.677 42.703 -161.367 53.818 -165 66 C-162.613 66.046 -160.235 66.057 -157.848 66.023 C-155 66 -155 66 -152.496 66.164 C-148.055 66.207 -145.749 65.624 -142.277 62.73 C-140.389 60.789 -138.534 58.838 -136.699 56.848 C-124.975 44.479 -106.463 36.268 -89.564 35.603 C-76.826 35.382 -64.289 37.923 -53 44 C-52.081 44.492 -51.162 44.985 -50.215 45.492 C-42.008 50.088 -42.008 50.088 -38.437 53.319 C-29.422 61.448 -21.671 61.128 -10.062 60.625 C-8.397 60.588 -6.731 60.556 -5.064 60.527 C3.981 60.34 12.989 59.816 22 59 C21.788 58.335 21.576 57.669 21.357 56.984 C20.396 53.95 19.448 50.913 18.5 47.875 C18.166 46.828 17.832 45.782 17.488 44.703 C17.172 43.685 16.857 42.666 16.531 41.617 C16.238 40.685 15.945 39.753 15.643 38.792 C14.945 35.76 14.819 33.102 15 30 C16 29 16 29 18.867 28.886 C20.119 28.892 21.371 28.897 22.66 28.902 C23.657 28.904 23.657 28.904 24.674 28.907 C26.803 28.912 28.933 28.925 31.062 28.938 C32.503 28.943 33.944 28.947 35.385 28.951 C38.923 28.962 42.462 28.979 46 29 C46 29.33 46 29.66 46 30 C44.35 30 42.7 30 41 30 C41.451 31.212 41.451 31.212 41.91 32.449 C42.481 34.052 42.481 34.052 43.062 35.688 C43.445 36.743 43.828 37.799 44.223 38.887 C45.043 42.172 44.717 43.768 44 47 C44.519 49.326 44.519 49.326 45.438 51.625 C47.032 56.437 47.225 60.613 47.008 65.652 C46.875 68.156 46.875 68.156 48 71 C48.375 72.892 48.727 74.788 49.062 76.688 C49.327 78.178 49.327 78.178 49.598 79.699 C49.73 80.458 49.863 81.218 50 82 C49.34 82 48.68 82 48 82 C44.331 91.928 45.271 98.992 48 109 C46.68 109.33 45.36 109.66 44 110 C43.775 109.301 43.551 108.602 43.319 107.881 C41.173 101.205 39.027 94.53 36.879 87.855 C35.776 84.425 34.673 80.995 33.57 77.565 C32.295 73.598 31.019 69.631 29.742 65.664 C29.535 65.02 29.328 64.377 29.115 63.714 C26.351 55.126 23.556 46.55 20.631 38.017 C19 33.212 19 33.212 19 31 C18.01 31 17.02 31 16 31 C16.242 31.761 16.485 32.523 16.734 33.307 C17.83 36.765 18.915 40.226 20 43.688 C20.572 45.485 20.572 45.485 21.156 47.318 C21.517 48.475 21.878 49.632 22.25 50.824 C22.585 51.887 22.92 52.95 23.266 54.046 C23.963 56.85 24.04 59.134 24 62 C24.985 64.007 25.989 66.005 27 68 C28.471 72.087 29.759 76.232 31.062 80.375 C31.638 82.183 31.638 82.183 32.224 84.028 C33.491 88.016 34.747 92.008 36 96 C36.228 96.725 36.456 97.451 36.69 98.198 C39.808 108.128 42.91 118.062 46 128 C45.34 128.33 44.68 128.66 44 129 C32.36 94.459 32.36 94.459 27.25 77.938 C26.915 76.864 26.581 75.79 26.236 74.684 C25.937 73.704 25.637 72.724 25.328 71.715 C25.069 70.87 24.811 70.026 24.544 69.156 C24 67 24 67 24 64 C18.147 64.119 12.293 64.243 6.44 64.372 C4.451 64.415 2.462 64.457 0.472 64.497 C-2.395 64.555 -5.262 64.619 -8.129 64.684 C-9.011 64.7 -9.894 64.717 -10.803 64.734 C-15.621 64.849 -20.246 65.208 -25 66 C-24.42 66.606 -23.84 67.212 -23.242 67.836 C-17.931 73.533 -13.676 79.143 -10 86 C-9.52 86.856 -9.041 87.712 -8.547 88.594 C6.037 115.92 11.654 148.508 14 179 C24.23 179 34.46 179 45 179 C45 179.33 45 179.66 45 180 C32.46 180.66 19.92 181.32 7 182 C18.802 182.908 18.802 182.908 30.605 183.794 C32.079 183.912 33.553 184.03 35.027 184.148 C35.8 184.203 36.572 184.258 37.367 184.314 C39.252 184.47 41.129 184.725 43 185 C43.33 185.66 43.66 186.32 44 187 C35.807 187.199 27.69 186.558 19.532 185.883 C17.111 185.686 14.688 185.508 12.266 185.33 C10.721 185.204 9.177 185.077 7.633 184.949 C6.911 184.899 6.189 184.849 5.445 184.797 C2.648 184.548 0.466 184.303 -1.915 182.753 C-3.28 180.547 -3.655 178.554 -4 176 C-4.586 176.116 -5.172 176.232 -5.776 176.352 C-11.694 177.479 -17.62 178.389 -23.59 179.184 C-24.347 179.286 -25.105 179.388 -25.885 179.493 C-29.039 179.918 -32.193 180.342 -35.349 180.747 C-37.681 181.048 -40.01 181.365 -42.34 181.684 C-43.05 181.771 -43.761 181.859 -44.493 181.949 C-48.506 182.513 -50.939 183.359 -54 186 C-56.797 186.73 -56.797 186.73 -59.75 187.188 C-60.735 187.346 -61.72 187.505 -62.734 187.668 C-63.482 187.778 -64.23 187.887 -65 188 C-65.33 187.01 -65.66 186.02 -66 185 C-64.926 183.457 -64.926 183.457 -63.312 181.812 C-56.392 174.057 -53.951 165.448 -54 155 C-54.541 148.923 -55.73 142.96 -57 137 C-57.66 137 -58.32 137 -59 137 C-59.412 135.989 -59.825 134.979 -60.25 133.938 C-63.578 128.017 -70.778 124.376 -77.086 122.32 C-84.36 121.103 -92.365 121.58 -99 125 C-100.45 127.286 -101.14 129.42 -102 132 C-100.68 132.99 -99.36 133.98 -98 135 C-97.051 134.361 -96.103 133.721 -95.125 133.062 C-89.754 130.048 -84.417 129.271 -78.383 130.559 C-71.132 133.038 -66.398 137.323 -62.906 144.133 C-59.463 153.027 -60.233 161.86 -63.711 170.605 C-65.595 174.105 -67.703 175.827 -71 178 C-70.036 176.047 -69.063 174.112 -68 172.211 C-64.207 165.247 -62.582 157.944 -63 150 C-63.66 150 -64.32 150 -65 150 C-64.67 150.99 -64.34 151.98 -64 153 C-63.418 160.279 -64.988 166.901 -69.688 172.562 C-70.832 173.769 -70.832 173.769 -72 175 C-72.66 174.67 -73.32 174.34 -74 174 C-72.829 171.657 -71.648 169.323 -70.438 167 C-67.794 161.483 -67.053 156.514 -68.684 150.465 C-70.725 144.714 -72.507 141.747 -78 139 C-78 139.66 -78 140.32 -78 141 C-77.34 141.33 -76.68 141.66 -76 142 C-76.66 142 -77.32 142 -78 142 C-78.33 144.97 -78.66 147.94 -79 151 C-76.69 150.67 -74.38 150.34 -72 150 C-72.495 147.525 -72.495 147.525 -73 145 C-69.847 147.742 -69.197 149.984 -68.797 154.078 C-68.674 159.75 -69.485 163.881 -72 169 C-73.98 169.99 -73.98 169.99 -76 171 C-74.35 167.7 -72.7 164.4 -71 161 C-72.32 161.33 -73.64 161.66 -75 162 C-74.67 163.32 -74.34 164.64 -74 166 C-75.32 165.67 -76.64 165.34 -78 165 C-78.33 165.99 -78.66 166.98 -79 168 C-79.33 167.01 -79.66 166.02 -80 165 C-81.319 164.306 -82.656 163.644 -84 163 C-85.575 161.685 -87.116 160.328 -88.625 158.938 C-91.588 156.142 -91.588 156.142 -95 154 C-95 153.34 -95 152.68 -95 152 C-96.052 151.526 -97.104 151.051 -98.188 150.562 C-98.779 150.296 -99.371 150.029 -99.98 149.754 C-102.033 148.921 -102.033 148.921 -104.43 148.551 C-107.24 147.949 -109.38 146.926 -111.938 145.625 C-125.146 139.572 -138.717 139.446 -152.997 139.158 C-155 139 -155 139 -156 138 C-158.669 122.58 -156.55 107.559 -150.77 93.074 C-149.884 91.056 -149.884 91.056 -150 89 C-150.799 91.143 -151.589 93.29 -152.375 95.438 C-152.816 96.632 -153.257 97.827 -153.711 99.059 C-156.733 107.995 -157.261 116.133 -157.125 125.562 C-157.116 126.762 -157.107 127.961 -157.098 129.197 C-157.074 132.132 -157.042 135.066 -157 138 C-157.66 137.67 -158.32 137.34 -159 137 C-163.785 116.423 -156.697 94.507 -146 77 C-145.425 76.3 -144.85 75.6 -144.258 74.879 C-143.635 73.949 -143.635 73.949 -143 73 C-143.33 72.01 -143.66 71.02 -144 70 C-144.66 69.67 -145.32 69.34 -146 69 C-146.262 69.695 -146.523 70.39 -146.793 71.105 C-148.121 74.289 -149.697 77.265 -151.312 80.312 C-154.004 85.552 -156.126 90.813 -157.875 96.438 C-158.078 97.087 -158.281 97.736 -158.49 98.406 C-161.122 107.27 -161.125 115.77 -161.062 124.938 C-161.058 126.194 -161.053 127.45 -161.049 128.744 C-161.037 131.829 -161.021 134.915 -161 138 C-164.831 134.169 -164.057 127.58 -164.188 122.375 C-163.855 102.754 -157.759 85.793 -148 69 C-150.854 69.142 -153.708 69.288 -156.562 69.438 C-157.362 69.477 -158.162 69.516 -158.986 69.557 C-163.714 69.807 -168.325 70.253 -173 71 C-175.411 94.117 -172.999 116.588 -167 139 C-169 138 -169 138 -169.965 135.762 C-174.968 119.948 -176.273 104.373 -176.25 87.875 C-176.249 87.152 -176.249 86.43 -176.248 85.685 C-176.21 73.419 -176.21 73.419 -175 71 C-174.783 69.596 -174.608 68.186 -174.457 66.773 C-173.088 55.127 -171.094 44.647 -166 34 C-165.508 32.964 -165.508 32.964 -165.007 31.908 C-161.822 25.976 -158.3 24.194 -152 22.25 C-151.146 21.963 -150.291 21.677 -149.411 21.381 C-146.948 20.562 -144.476 19.78 -142 19 C-140.925 18.633 -139.85 18.265 -138.742 17.887 C-101.137 5.437 -60.691 1.904 -21.375 -0.25 C-20.533 -0.297 -19.692 -0.344 -18.825 -0.393 C-16.433 -0.525 -14.041 -0.647 -11.648 -0.766 C-10.933 -0.805 -10.218 -0.844 -9.481 -0.885 C-6.14 -1.039 -3.191 -1.079 0 0 Z " fill="#1C1C1C" transform="translate(283,8)"/>
<path d="M0 0 C0.608 0.549 1.217 1.098 1.844 1.664 C1.844 2.324 1.844 2.984 1.844 3.664 C2.437 3.933 3.03 4.203 3.641 4.48 C19.422 12.959 32.598 39.798 37.605 56.15 C39.44 62.297 41.189 68.466 42.844 74.664 C43.051 75.375 43.259 76.086 43.473 76.818 C44.023 79.557 43 80.785 41.594 83.164 C41.047 84.112 40.501 85.059 39.938 86.035 C39.615 86.588 39.293 87.141 38.961 87.71 C37.627 90.043 36.344 92.4 35.062 94.762 C34.574 95.66 34.086 96.559 33.583 97.484 C32.597 99.3 31.612 101.117 30.628 102.934 C29.938 104.194 29.938 104.194 29.234 105.48 C28.616 106.617 28.616 106.617 27.985 107.776 C26.844 109.664 26.844 109.664 24.844 111.664 C23.854 111.664 22.864 111.664 21.844 111.664 C21.628 111.005 21.411 110.346 21.189 109.667 C15.862 93.336 15.862 93.336 9.852 77.25 C9.123 75.381 8.459 73.485 7.836 71.578 C6.95 68.745 6.95 68.745 5.758 66.547 C4.757 64.485 4.511 62.803 4.219 60.539 C2.936 54.321 -1.023 50.284 -5.156 45.664 C-5.878 44.715 -6.6 43.767 -7.344 42.789 C-11.272 39.821 -15.464 38.88 -20.195 37.656 C-23.12 36.676 -24.213 35.954 -26.156 33.664 C-26.816 33.334 -27.476 33.004 -28.156 32.664 C-28.486 34.314 -28.816 35.964 -29.156 37.664 C-34.289 37.843 -38.844 37.297 -43.781 35.977 C-44.948 35.667 -44.948 35.667 -46.138 35.351 C-55.484 32.742 -64.628 29.497 -73.781 26.289 C-74.561 26.017 -75.34 25.745 -76.143 25.464 C-83.115 23.021 -90.073 20.574 -96.878 17.69 C-98.025 17.204 -98.025 17.204 -99.195 16.709 C-100.641 16.088 -102.083 15.458 -103.519 14.816 C-107.532 13.084 -110.782 12.034 -115.156 12.664 C-115.816 13.654 -116.476 14.644 -117.156 15.664 C-117.816 15.664 -118.476 15.664 -119.156 15.664 C-119.404 16.345 -119.651 17.025 -119.906 17.727 C-121.156 20.664 -121.156 20.664 -123.215 23.68 C-125.941 28.415 -125.636 33.019 -125.469 38.352 C-125.453 39.322 -125.438 40.293 -125.422 41.293 C-125.285 48.108 -124.956 54.892 -124.156 61.664 C-129.035 61.859 -132.575 61.258 -137.156 59.664 C-139.743 58.997 -139.743 58.997 -142.156 59.664 C-145.998 64.07 -147.529 69.117 -149.156 74.664 C-151.218 75.002 -153.281 75.334 -155.344 75.664 C-156.492 75.85 -157.641 76.035 -158.824 76.227 C-161.66 76.599 -164.303 76.75 -167.156 76.664 C-167.486 75.674 -167.816 74.684 -168.156 73.664 C-171.126 73.334 -174.096 73.004 -177.156 72.664 C-177.266 71.655 -177.375 70.645 -177.488 69.605 C-177.564 68.922 -177.639 68.238 -177.716 67.534 C-177.888 65.967 -178.056 64.401 -178.221 62.833 C-178.745 57.978 -179.368 53.153 -180.098 48.324 C-183.202 27.108 -183.202 27.108 -178.156 17.664 C-177.755 16.722 -177.354 15.779 -176.941 14.809 C-174 8.147 -174 8.147 -171.031 6.449 C-168.02 5.627 -165.081 5.284 -161.979 4.981 C-153.277 4.053 -146.822 1.823 -139.344 -2.711 C-129.015 -8.915 -118.952 -11.35 -107.156 -13.336 C-106.327 -13.485 -105.498 -13.633 -104.644 -13.787 C-99.164 -14.769 -93.673 -15.592 -88.156 -16.336 C-87.425 -16.44 -86.693 -16.545 -85.939 -16.652 C-54.17 -21.098 -26.305 -19.419 0 0 Z " fill="#030303" transform="translate(192.15625,165.3359375)"/>
<path d="M0 0 C1.15 -0.012 2.301 -0.024 3.486 -0.037 C13.799 -0.055 23.149 1.027 32.562 5.375 C33.573 5.83 33.573 5.83 34.604 6.294 C40.537 9.036 46.449 12.082 51.562 16.188 C51.562 16.847 51.562 17.507 51.562 18.188 C52.396 18.547 52.396 18.547 53.246 18.914 C56.08 20.472 58.232 22.389 60.625 24.562 C61.482 25.333 62.339 26.104 63.223 26.898 C65.274 28.905 67.003 30.785 68.562 33.188 C68.562 33.847 68.562 34.507 68.562 35.188 C69.222 35.188 69.882 35.188 70.562 35.188 C74.213 39.971 77.377 45.087 80.562 50.188 C81.125 51.076 81.125 51.076 81.7 51.983 C88.655 63.175 93.187 76.238 95.562 89.188 C95.232 89.847 94.903 90.507 94.562 91.188 C93.903 91.188 93.243 91.188 92.562 91.188 C92.905 94.158 92.905 94.158 93.562 97.188 C94.222 97.517 94.882 97.847 95.562 98.188 C92.262 104.127 88.963 110.067 85.562 116.188 C83.912 115.858 82.262 115.528 80.562 115.188 C80.769 116.466 80.975 117.745 81.188 119.062 C81.539 121.242 81.539 121.242 81.562 123.188 C80.903 123.847 80.243 124.507 79.562 125.188 C79.201 124.086 79.201 124.086 78.832 122.963 C72.619 104.061 72.619 104.061 65.734 85.398 C64.737 82.666 64.058 80.081 63.438 77.25 C60.02 65.038 48.848 52.927 38.562 46.188 C36.406 44.477 34.329 42.679 32.25 40.875 C27.768 37.022 23.234 33.317 18.465 29.82 C16.562 28.188 16.562 28.188 14.773 25.742 C12.031 22.573 8.969 20.959 5.25 19.188 C4.193 18.675 4.193 18.675 3.114 18.152 C-15.636 9.285 -34.032 7.869 -54.438 7.188 C-51.162 5.306 -48.218 4.689 -44.492 4.152 C-42.752 3.898 -42.752 3.898 -40.977 3.639 C-39.767 3.469 -38.558 3.3 -37.312 3.125 C-36.127 2.952 -34.941 2.778 -33.719 2.6 C-22.403 0.97 -11.44 0.006 0 0 Z " fill="#FFFFFF" transform="translate(136.4375,148.8125)"/>
<path d="M0 0 C3.304 1.455 6.56 2.993 9.798 4.589 C10.903 5.133 12.007 5.677 13.146 6.238 C21.223 10.431 21.223 10.431 23.798 14.589 C23.798 15.249 23.798 15.909 23.798 16.589 C24.343 16.839 24.888 17.09 25.45 17.347 C28.27 18.839 30.773 20.598 33.36 22.464 C34.785 23.481 34.785 23.481 36.239 24.519 C38.565 26.401 40.15 28.115 41.798 30.589 C40.941 30.457 40.083 30.324 39.2 30.187 C33.403 29.292 27.607 28.4 21.798 27.589 C25.699 30.376 29.183 32.271 33.798 33.589 C33.468 34.579 33.138 35.569 32.798 36.589 C27.087 36.283 21.976 35.153 16.544 33.406 C15.502 33.075 15.502 33.075 14.439 32.738 C7.122 30.4 -0.161 27.958 -7.429 25.47 C-9.633 24.716 -11.841 23.971 -14.048 23.226 C-22.369 20.393 -30.535 17.331 -38.612 13.855 C-43.753 11.663 -43.753 11.663 -49.202 10.589 C-51.879 11.962 -51.879 11.962 -54.202 13.589 C-54.862 13.589 -55.522 13.589 -56.202 13.589 C-56.429 14.249 -56.656 14.909 -56.89 15.589 C-58.32 18.859 -60.105 21.663 -62.081 24.625 C-64.605 29.048 -64.358 33.546 -64.327 38.527 C-64.325 39.274 -64.323 40.021 -64.321 40.79 C-64.27 47.423 -63.845 53.986 -63.202 60.589 C-66.325 60.104 -69.198 59.591 -72.202 58.589 C-75.66 58.089 -75.66 58.089 -79.202 58.589 C-82.86 61.942 -84.424 66.054 -86.202 70.589 C-88.202 67.589 -88.202 67.589 -88.202 64.589 C-88.862 64.589 -89.522 64.589 -90.202 64.589 C-94.109 59.901 -96.394 55.748 -97.202 49.589 C-95.979 38.17 -91.084 27.347 -85.202 17.589 C-84.793 16.876 -84.385 16.162 -83.963 15.427 C-81.314 11.302 -79.28 9.186 -74.444 8.003 C-72.66 7.707 -70.871 7.445 -69.077 7.214 C-68.137 7.061 -67.197 6.908 -66.229 6.75 C-62.4 6.136 -58.579 5.629 -54.722 5.226 C-47.401 4.388 -42.166 1.689 -36.07 -2.312 C-25.346 -9.048 -10.966 -4.586 0 0 Z " fill="#FFFFFF" transform="translate(128.2021484375,164.41064453125)"/>
<path d="M0 0 C-0.66 0.66 -1.32 1.32 -2 2 C-2.616 4.357 -3.147 6.736 -3.625 9.125 C-3.885 10.406 -4.146 11.688 -4.414 13.008 C-4.607 13.995 -4.801 14.983 -5 16 C-2.525 16.99 -2.525 16.99 0 18 C-0.596 23.265 -1.815 27.946 -3.562 32.938 C-4.769 36.433 -4.769 36.433 -6 40 C-16.23 40.66 -26.46 41.32 -37 42 C-27.43 42 -17.86 42 -8 42 C-9 47 -9 47 -10 50 C-17.92 50.99 -17.92 50.99 -26 52 C-26 52.66 -26 53.32 -26 54 C-19.565 53.505 -19.565 53.505 -13 53 C-14 57 -14 57 -15 59 C-16.98 59 -18.96 59 -21 59 C-21 59.66 -21 60.32 -21 61 C-21.687 61.184 -22.374 61.369 -23.082 61.559 C-28.589 63.203 -28.589 63.203 -32.332 67.27 C-33.049 69.511 -33.613 71.68 -34 74 C-35.98 73.67 -37.96 73.34 -40 73 C-40 73.66 -40 74.32 -40 75 C-37.69 75 -35.38 75 -33 75 C-31.938 76.812 -31.938 76.812 -31 79 C-31.33 79.99 -31.66 80.98 -32 82 C-41.878 81.016 -49.291 78.479 -56.562 71.562 C-58.408 68.272 -58.931 65.768 -59 62 C-57.82 59.84 -57.82 59.84 -56 58 C-53.59 57.32 -53.59 57.32 -50.938 57.125 C-50.06 57.045 -49.182 56.965 -48.277 56.883 C-46 57 -46 57 -44 59 C-44.375 61.125 -44.375 61.125 -45 63 C-47.31 63 -49.62 63 -52 63 C-51.812 65.445 -51.812 65.445 -51 68 C-49.032 69.36 -49.032 69.36 -47 70 C-47.99 69.041 -47.99 69.041 -49 68.062 C-51 66 -51 66 -51 65 C-49.02 65 -47.04 65 -45 65 C-44.546 63.866 -44.093 62.731 -43.625 61.562 C-42 58 -42 58 -40 57 C-44.29 56.67 -48.58 56.34 -53 56 C-56.214 42.875 -56.214 42.875 -56 37 C-53.03 38.65 -50.06 40.3 -47 42 C-48.485 41.041 -48.485 41.041 -50 40.062 C-50.99 39.382 -51.98 38.701 -53 38 C-53 37.67 -53 37.34 -53 37 C-51.684 37.006 -50.368 37.013 -49.012 37.02 C-38.46 36.998 -38.46 36.998 -29.469 32.254 C-26.641 29.067 -24.331 25.56 -22 22 C-20.802 20.516 -19.577 19.053 -18.312 17.625 C-17.781 17.019 -17.25 16.413 -16.703 15.789 C-13.684 12.618 -10.365 9.796 -7 7 C-11.086 8.623 -13.85 11.547 -16.875 14.625 C-17.676 15.431 -17.676 15.431 -18.492 16.254 C-21.855 19.691 -24.917 23.194 -27.621 27.184 C-28.076 27.783 -28.531 28.382 -29 29 C-29.603 29.923 -30.207 30.846 -30.828 31.797 C-36.047 35.422 -41.271 33.745 -47.312 32.812 C-48.53 32.647 -49.748 32.481 -51.002 32.311 C-54.006 31.898 -57.003 31.461 -60 31 C-52.708 16.57 -40.128 6.965 -24.855 1.816 C-16.387 -0.605 -8.71 -1.426 0 0 Z " fill="#FFFFFF" transform="translate(199,61)"/>
<path d="M0 0 C0 0.33 0 0.66 0 1 C-1.922 1.105 -1.922 1.105 -3.883 1.212 C-29.712 2.64 -55.388 4.275 -81 8 C-82.085 8.156 -83.17 8.312 -84.289 8.472 C-95.921 10.179 -107.406 12.417 -118.875 15 C-119.939 15.237 -121.003 15.474 -122.099 15.718 C-127.944 17.083 -133.418 18.788 -138.946 21.133 C-140.6 21.831 -142.296 22.432 -144 23 C-145.009 24.728 -145.009 24.728 -146 27 C-147.003 28.644 -148.006 30.287 -149.021 31.923 C-155.677 42.703 -161.367 53.818 -165 66 C-162.613 66.046 -160.235 66.057 -157.848 66.023 C-155 66 -155 66 -152.496 66.164 C-148.055 66.207 -145.749 65.624 -142.277 62.73 C-140.389 60.789 -138.534 58.838 -136.699 56.848 C-124.975 44.479 -106.463 36.268 -89.564 35.603 C-69.71 35.259 -49.728 42.5 -35 56 C-38.993 56 -40.718 54.469 -44.062 52.312 C-60.043 42.26 -77.469 35.7 -96.625 38.625 C-112.416 42.236 -132.149 50.738 -141.328 65.074 C-142.281 67.175 -142.281 67.175 -141 70 C-140.34 70 -139.68 70 -139 70 C-138.79 69.437 -138.58 68.873 -138.363 68.293 C-136.496 65.152 -134.108 63.492 -131.188 61.312 C-130.15 60.525 -129.112 59.737 -128.043 58.926 C-125.187 57.118 -123.318 56.362 -120 56 C-123.354 59.638 -127.472 62.235 -131.504 65.062 C-134.183 66.93 -134.183 66.93 -136 70 C-135.524 69.515 -135.049 69.031 -134.559 68.531 C-123.635 58.07 -109.572 50.92 -94.25 50.812 C-92.833 50.859 -91.416 50.915 -90 51 C-93.021 52.817 -95.863 53.383 -99.329 53.885 C-111.557 55.694 -121.502 60.556 -131 68.375 C-131.516 68.797 -132.032 69.218 -132.563 69.652 C-136.952 73.483 -139.938 78.078 -143 83 C-138.921 83.619 -134.837 84.189 -130.75 84.75 C-129.591 84.927 -128.432 85.103 -127.238 85.285 C-125.566 85.508 -125.566 85.508 -123.859 85.734 C-122.833 85.881 -121.807 86.028 -120.749 86.179 C-117.874 86.259 -117.874 86.259 -115.757 84.167 C-115.177 83.452 -114.597 82.737 -114 82 C-113.349 81.205 -112.698 80.409 -112.027 79.59 C-111.338 78.715 -110.648 77.839 -109.938 76.938 C-96.862 60.831 -96.862 60.831 -90 58 C-91.377 61.197 -92.862 62.954 -95.562 65.125 C-102.872 71.322 -108.908 78.673 -114.688 86.285 C-116 88 -116 88 -117 89 C-119.267 89.211 -121.539 89.369 -123.812 89.5 C-129.479 89.803 -129.479 89.803 -135 91 C-133.35 92.65 -131.7 94.3 -130 96 C-133.477 94.744 -136.094 93.267 -139 91 C-138.421 97.013 -137.777 103.009 -137 109 C-132.38 109 -127.76 109 -123 109 C-124.32 110.65 -125.64 112.3 -127 114 C-127.802 117.69 -127.802 117.69 -128 121 C-128.33 120.01 -128.66 119.02 -129 118 C-131.475 118.495 -131.475 118.495 -134 119 C-134 119.66 -134 120.32 -134 121 C-133.361 121.289 -132.721 121.577 -132.062 121.875 C-130 123 -130 123 -129 125 C-132.872 123.744 -135.028 122.632 -137 119 C-137.188 116.25 -137.188 116.25 -137 114 C-136.67 114.66 -136.34 115.32 -136 116 C-133.69 116 -131.38 116 -129 116 C-129.33 114.35 -129.66 112.7 -130 111 C-131.626 111.087 -133.251 111.195 -134.875 111.312 C-135.78 111.371 -136.685 111.429 -137.617 111.488 C-140.362 111.788 -140.362 111.788 -142 115 C-141.803 120.326 -140.867 123.322 -137 127 C-133.745 129.146 -130.408 131.107 -127 133 C-130 134 -130 134 -132.121 132.961 C-136.414 130.022 -140.096 127.414 -143 123 C-143.433 122.361 -143.866 121.721 -144.312 121.062 C-145.311 118.067 -144.833 116.011 -144 113 C-142.562 111.125 -142.562 111.125 -141 110 C-140.34 110 -139.68 110 -139 110 C-139.611 106.018 -140.241 102.04 -140.875 98.062 C-141.049 96.926 -141.223 95.79 -141.402 94.619 C-141.576 93.54 -141.75 92.46 -141.93 91.348 C-142.165 89.847 -142.165 89.847 -142.406 88.317 C-142.602 87.552 -142.798 86.788 -143 86 C-143.99 85.505 -143.99 85.505 -145 85 C-146.579 88.889 -148.063 92.806 -149.5 96.75 C-149.923 97.9 -150.346 99.05 -150.781 100.234 C-153.623 109.014 -154.264 116.827 -154.125 126.062 C-154.116 127.214 -154.107 128.366 -154.098 129.553 C-154.074 132.369 -154.042 135.184 -154 138 C-154.66 138 -155.32 138 -156 138 C-158.439 122.452 -156.607 107.701 -150.77 93.074 C-149.884 91.056 -149.884 91.056 -150 89 C-150.799 91.143 -151.589 93.29 -152.375 95.438 C-152.816 96.632 -153.257 97.827 -153.711 99.059 C-156.733 107.995 -157.261 116.133 -157.125 125.562 C-157.116 126.762 -157.107 127.961 -157.098 129.197 C-157.074 132.132 -157.042 135.066 -157 138 C-157.66 137.67 -158.32 137.34 -159 137 C-163.785 116.423 -156.697 94.507 -146 77 C-145.425 76.3 -144.85 75.6 -144.258 74.879 C-143.635 73.949 -143.635 73.949 -143 73 C-143.33 72.01 -143.66 71.02 -144 70 C-144.66 69.67 -145.32 69.34 -146 69 C-146.262 69.695 -146.523 70.39 -146.793 71.105 C-148.121 74.289 -149.697 77.265 -151.312 80.312 C-154.004 85.552 -156.126 90.813 -157.875 96.438 C-158.078 97.087 -158.281 97.736 -158.49 98.406 C-161.122 107.27 -161.125 115.77 -161.062 124.938 C-161.058 126.194 -161.053 127.45 -161.049 128.744 C-161.037 131.829 -161.021 134.915 -161 138 C-164.831 134.169 -164.057 127.58 -164.188 122.375 C-163.855 102.754 -157.759 85.793 -148 69 C-150.854 69.142 -153.708 69.288 -156.562 69.438 C-157.362 69.477 -158.162 69.516 -158.986 69.557 C-163.714 69.807 -168.325 70.253 -173 71 C-175.411 94.117 -172.999 116.588 -167 139 C-169 138 -169 138 -169.965 135.762 C-174.968 119.948 -176.273 104.373 -176.25 87.875 C-176.249 87.152 -176.249 86.43 -176.248 85.685 C-176.21 73.419 -176.21 73.419 -175 71 C-174.783 69.596 -174.608 68.186 -174.457 66.773 C-173.088 55.127 -171.094 44.647 -166 34 C-165.508 32.964 -165.508 32.964 -165.007 31.908 C-161.822 25.976 -158.3 24.194 -152 22.25 C-151.146 21.963 -150.291 21.677 -149.411 21.381 C-146.948 20.562 -144.476 19.78 -142 19 C-140.925 18.633 -139.85 18.265 -138.742 17.887 C-101.137 5.437 -60.691 1.904 -21.375 -0.25 C-20.533 -0.297 -19.692 -0.344 -18.825 -0.393 C-16.433 -0.525 -14.041 -0.647 -11.648 -0.766 C-10.933 -0.805 -10.218 -0.844 -9.481 -0.885 C-6.14 -1.039 -3.191 -1.079 0 0 Z " fill="#050505" transform="translate(283,8)"/>
<path d="M0 0 C26.027 25.617 37.878 73.272 39.098 108.848 C39.065 110.898 39.033 112.949 39 115 C37.043 115.221 35.084 115.427 33.125 115.625 C31.489 115.799 31.489 115.799 29.82 115.977 C28.424 115.988 28.424 115.988 27 116 C24.252 113.252 24.321 111.072 23.703 107.246 C23.468 105.832 23.232 104.419 22.997 103.005 C22.876 102.26 22.754 101.515 22.629 100.748 C17.893 71.896 12.757 41.458 -5.727 17.789 C-7 16 -7 16 -7 14 C-7.99 13.67 -8.98 13.34 -10 13 C-11.387 11.371 -11.387 11.371 -12.688 9.438 C-13.124 8.797 -13.561 8.156 -14.012 7.496 C-14.338 7.002 -14.664 6.509 -15 6 C-13.066 4.993 -11.128 3.994 -9.188 3 C-8.109 2.443 -7.03 1.886 -5.918 1.312 C-3 0 -3 0 0 0 Z " fill="#FFFFFF" transform="translate(256,73)"/>
<path d="M0 0 C0.99 0.33 1.98 0.66 3 1 C3.506 3.874 4.005 6.749 4.5 9.625 C4.643 10.433 4.786 11.241 4.934 12.074 C5.673 16.405 6.378 20.592 6 25 C4.682 26.02 3.348 27.02 2 28 C0.813 31.003 0.584 32.908 1.746 35.957 C6.702 44.925 15.357 48.43 24.594 51.824 C25.388 52.212 26.182 52.6 27 53 C27.33 53.99 27.66 54.98 28 56 C28.33 55.01 28.66 54.02 29 53 C29.33 53.66 29.66 54.32 30 55 C32.31 54.34 34.62 53.68 37 53 C37 53.99 37 54.98 37 56 C35.02 56 33.04 56 31 56 C31 56.66 31 57.32 31 58 C31.577 57.814 32.155 57.629 32.75 57.438 C35.383 56.926 36.574 56.826 39 58 C40.75 61.062 40.75 61.062 42 64 C36.765 62.307 31.701 60.296 26.609 58.219 C18.122 55.353 9.787 54.647 0.875 54.375 C-0.177 54.336 -1.229 54.298 -2.312 54.258 C-4.875 54.165 -7.437 54.079 -10 54 C-10.597 33.95 -10.13 17.828 0 0 Z M68.418 47.906 C70.324 48.851 72.17 49.915 74 51 C74 51.66 74 52.32 74 53 C74.66 53 75.32 53 76 53 C80.053 57.79 80.74 61.836 81 68 C81.083 69.155 81.165 70.31 81.25 71.5 C80.707 79.104 78.21 84.509 73 90 C72.34 89.67 71.68 89.34 71 89 C72.171 86.657 73.352 84.323 74.562 82 C77.206 76.483 77.947 71.514 76.316 65.465 C74.275 59.714 72.493 56.747 67 54 C67 54.66 67 55.32 67 56 C67.66 56.33 68.32 56.66 69 57 C68.34 57 67.68 57 67 57 C66.67 59.97 66.34 62.94 66 66 C69.465 65.505 69.465 65.505 73 65 C72.505 62.525 72.505 62.525 72 60 C75.153 62.742 75.803 64.984 76.203 69.078 C76.326 74.75 75.515 78.881 73 84 C71.68 84.66 70.36 85.32 69 86 C70.65 82.7 72.3 79.4 74 76 C72.68 76.33 71.36 76.66 70 77 C70.33 78.32 70.66 79.64 71 81 C69.68 80.67 68.36 80.34 67 80 C66.67 80.99 66.34 81.98 66 83 C65.67 82.01 65.34 81.02 65 80 C63.681 79.306 62.344 78.644 61 78 C59.425 76.685 57.884 75.328 56.375 73.938 C53.412 71.142 53.412 71.142 50 69 C50 68.34 50 67.68 50 67 C47.36 65.68 44.72 64.36 42 63 C43.524 55.935 46.274 52.978 52.188 48.688 C57.325 45.951 63.004 45.877 68.418 47.906 Z " fill="#FFFFFF" transform="translate(138,93)"/>
<path d="M0 0 C1.027 0.972 2.045 1.957 3 3 C0.781 4.231 -1.447 5.434 -3.688 6.625 C-4.313 6.976 -4.939 7.326 -5.584 7.688 C-8.576 9.254 -10.347 10.149 -13.703 9.383 C-15.886 8.069 -17.992 6.734 -20.062 5.25 C-35.353 -5.07 -52.338 -9.623 -70.668 -6.344 C-83.877 -2.943 -94.379 3.422 -104 13 C-104 10 -104 10 -102.277 8.098 C-97.721 4.135 -93.384 0.749 -88 -2 C-92.849 -0.678 -95.981 1.271 -99.812 4.5 C-100.768 5.294 -101.723 6.088 -102.707 6.906 C-105.044 8.788 -105.044 8.788 -106 11 C-106.66 11 -107.32 11 -108 11 C-109.625 9 -109.625 9 -111 7 C-110.34 7 -109.68 7 -109 7 C-108.725 6.404 -108.451 5.809 -108.168 5.195 C-101.13 -8.034 -82.582 -15.806 -69.25 -20.25 C-43.442 -26.206 -20.107 -15.555 0 0 Z " fill="#ECECEC" transform="translate(250,67)"/>
<path d="M0 0 C1.252 0.005 2.503 0.01 3.793 0.016 C4.789 0.018 4.789 0.018 5.806 0.02 C7.936 0.026 10.065 0.038 12.195 0.051 C13.636 0.056 15.077 0.061 16.517 0.065 C20.056 0.076 23.594 0.093 27.133 0.114 C27.133 0.444 27.133 0.774 27.133 1.114 C25.483 1.114 23.833 1.114 22.133 1.114 C22.433 1.922 22.733 2.73 23.043 3.563 C23.423 4.631 23.803 5.7 24.195 6.801 C24.578 7.857 24.961 8.913 25.355 10 C26.176 13.286 25.85 14.882 25.133 18.114 C25.651 20.439 25.651 20.439 26.57 22.739 C28.164 27.55 28.358 31.727 28.14 36.766 C28.007 39.269 28.007 39.269 29.133 42.114 C29.508 44.005 29.86 45.902 30.195 47.801 C30.372 48.795 30.548 49.789 30.73 50.813 C30.863 51.572 30.996 52.331 31.133 53.114 C30.473 53.114 29.813 53.114 29.133 53.114 C25.464 63.042 26.403 70.106 29.133 80.114 C27.153 80.609 27.153 80.609 25.133 81.114 C24.908 80.414 24.683 79.715 24.452 78.995 C22.306 72.319 20.159 65.643 18.012 58.968 C16.908 55.539 15.805 52.109 14.703 48.679 C13.428 44.711 12.152 40.744 10.875 36.778 C10.668 36.134 10.461 35.49 10.247 34.827 C7.484 26.24 4.689 17.664 1.763 9.13 C0.133 4.325 0.133 4.325 0.133 2.114 C-0.857 2.114 -1.847 2.114 -2.867 2.114 C-2.504 3.256 -2.504 3.256 -2.133 4.421 C-1.037 7.879 0.048 11.34 1.133 14.801 C1.514 15.999 1.896 17.197 2.289 18.432 C2.65 19.589 3.011 20.746 3.383 21.938 C3.718 23.001 4.053 24.064 4.398 25.159 C5.095 27.963 5.172 30.248 5.133 33.114 C6.118 35.121 7.122 37.119 8.133 39.114 C9.603 43.201 10.891 47.345 12.195 51.489 C12.578 52.694 12.962 53.9 13.357 55.142 C14.624 59.13 15.879 63.121 17.133 67.114 C17.36 67.839 17.588 68.564 17.823 69.312 C20.941 79.241 24.043 89.175 27.133 99.114 C26.143 99.609 26.143 99.609 25.133 100.114 C13.493 65.573 13.493 65.573 8.383 49.051 C8.048 47.977 7.714 46.904 7.369 45.798 C7.069 44.818 6.769 43.838 6.461 42.828 C6.202 41.984 5.943 41.14 5.677 40.27 C5.133 38.114 5.133 38.114 5.133 35.114 C-0.477 35.114 -6.087 35.114 -11.867 35.114 C-11.207 33.794 -10.547 32.474 -9.867 31.114 C-6.828 30.504 -6.828 30.504 -3.242 30.364 C-2.054 30.307 -0.865 30.25 0.359 30.192 C1.274 30.166 2.19 30.14 3.133 30.114 C2.921 29.448 2.708 28.783 2.49 28.097 C1.529 25.064 0.581 22.026 -0.367 18.989 C-0.701 17.942 -1.035 16.895 -1.379 15.817 C-1.695 14.798 -2.011 13.78 -2.336 12.731 C-2.776 11.332 -2.776 11.332 -3.225 9.906 C-3.923 6.873 -4.048 4.215 -3.867 1.114 C-2.867 0.114 -2.867 0.114 0 0 Z " fill="#101010" transform="translate(301.867431640625,36.886474609375)"/>
<path d="M0 0 C0.7 0.533 0.7 0.533 1.415 1.077 C6.899 4.917 10.925 5.693 17.531 5.488 C18.408 5.481 19.284 5.474 20.187 5.467 C22.959 5.439 25.729 5.376 28.5 5.312 C30.391 5.287 32.281 5.265 34.172 5.244 C38.782 5.189 43.391 5.103 48 5 C47.477 7.763 46.891 10.326 46 13 C40.72 13.66 35.44 14.32 30 15 C30 15.66 30 16.32 30 17 C36.435 16.505 36.435 16.505 43 16 C42 20 42 20 41 22 C39.02 22 37.04 22 35 22 C35 22.66 35 23.32 35 24 C34.313 24.184 33.626 24.369 32.918 24.559 C27.411 26.203 27.411 26.203 23.668 30.27 C22.951 32.511 22.387 34.68 22 37 C20.02 36.67 18.04 36.34 16 36 C16 36.66 16 37.32 16 38 C18.31 38 20.62 38 23 38 C24.062 39.812 24.062 39.812 25 42 C24.67 42.99 24.34 43.98 24 45 C14.122 44.016 6.709 41.479 -0.562 34.562 C-2.408 31.272 -2.931 28.768 -3 25 C-1.82 22.84 -1.82 22.84 0 21 C2.41 20.32 2.41 20.32 5.062 20.125 C6.379 20.005 6.379 20.005 7.723 19.883 C10 20 10 20 12 22 C11.625 24.125 11.625 24.125 11 26 C8.69 26 6.38 26 4 26 C4.188 28.445 4.188 28.445 5 31 C6.968 32.36 6.968 32.36 9 33 C8.34 32.361 7.68 31.721 7 31.062 C5 29 5 29 5 28 C6.98 28 8.96 28 11 28 C11.454 26.866 11.907 25.731 12.375 24.562 C14 21 14 21 16 20 C11.71 19.67 7.42 19.34 3 19 C-0.214 5.875 -0.214 5.875 0 0 Z " fill="#0A0A0A" transform="translate(143,98)"/>
<path d="M0 0 C0.838 0.164 1.676 0.327 2.539 0.496 C6.205 1.03 9.672 1.097 13.375 1.062 C14.62 1.053 15.865 1.044 17.148 1.035 C18.089 1.024 19.03 1.012 20 1 C18.797 4.155 17.473 7.037 15.75 9.938 C8.406 22.921 3.117 36.813 6.672 51.84 C7.198 53.29 7.748 54.732 8.332 56.16 C9.288 58.793 9.213 61.236 9 64 C8.01 64 7.02 64 6 64 C6 63.34 6 62.68 6 62 C4.02 61.67 2.04 61.34 0 61 C0 60.01 0 59.02 0 58 C-0.99 58 -1.98 58 -3 58 C-3.33 58.99 -3.66 59.98 -4 61 C-4 57.7 -4 54.4 -4 51 C-3.01 51.33 -2.02 51.66 -1 52 C-1 50.68 -1 49.36 -1 48 C-1.66 48 -2.32 48 -3 48 C-3.33 48.66 -3.66 49.32 -4 50 C-4.678 46.169 -5.34 42.335 -6 38.5 C-6.191 37.422 -6.382 36.345 -6.578 35.234 C-8.343 24.895 -8.623 18.089 -4 8.5 C-3.618 7.678 -3.237 6.855 -2.844 6.008 C-1.909 3.998 -0.961 1.997 0 0 Z " fill="#FFFFFF" transform="translate(21,175)"/>
<path d="M0 0 C6.246 3.515 9.339 8.411 11.309 15.152 C12.788 21.679 11.584 27.4 8.812 33.375 C7.283 35.596 5.677 37.409 3.812 39.375 C3.153 39.045 2.493 38.715 1.812 38.375 C2.984 36.032 4.165 33.698 5.375 31.375 C8.019 25.858 8.76 20.889 7.129 14.84 C5.088 9.089 3.306 6.122 -2.188 3.375 C-2.188 4.035 -2.188 4.695 -2.188 5.375 C-1.528 5.705 -0.868 6.035 -0.188 6.375 C-0.847 6.375 -1.507 6.375 -2.188 6.375 C-2.517 9.345 -2.847 12.315 -3.188 15.375 C0.278 14.88 0.278 14.88 3.812 14.375 C3.483 12.725 3.153 11.075 2.812 9.375 C5.965 12.117 6.615 14.359 7.016 18.453 C7.138 24.125 6.327 28.256 3.812 33.375 C2.493 34.035 1.173 34.695 -0.188 35.375 C1.463 32.075 3.113 28.775 4.812 25.375 C3.493 25.705 2.173 26.035 0.812 26.375 C1.142 27.695 1.472 29.015 1.812 30.375 C0.493 30.045 -0.827 29.715 -2.188 29.375 C-2.517 30.365 -2.847 31.355 -3.188 32.375 C-3.517 31.385 -3.847 30.395 -4.188 29.375 C-5.507 28.681 -6.843 28.019 -8.188 27.375 C-9.763 26.06 -11.303 24.703 -12.812 23.312 C-15.775 20.517 -15.775 20.517 -19.188 18.375 C-19.188 17.715 -19.188 17.055 -19.188 16.375 C-21.498 15.385 -23.808 14.395 -26.188 13.375 C-24.312 7.625 -24.312 7.625 -23.188 5.375 C-22.528 5.375 -21.868 5.375 -21.188 5.375 C-20.857 4.385 -20.528 3.395 -20.188 2.375 C-13.864 -2.34 -7.147 -3.191 0 0 Z " fill="#0D0D0D" transform="translate(207.1875,143.625)"/>
<path d="M0 0 C3.156 0.021 6.311 0.041 9.562 0.062 C9.233 8.312 8.903 16.562 8.562 25.062 C7.903 25.392 7.243 25.722 6.562 26.062 C6.233 23.752 5.903 21.442 5.562 19.062 C5.562 20.382 5.562 21.703 5.562 23.062 C2.923 24.052 0.282 25.043 -2.438 26.062 C-2.107 24.082 -1.778 22.102 -1.438 20.062 C-3.912 19.072 -3.912 19.072 -6.438 18.062 C-6.438 17.733 -6.438 17.403 -6.438 17.062 C-4.787 16.733 -3.137 16.403 -1.438 16.062 C-2.101 16.121 -2.765 16.179 -3.449 16.238 C-10.718 16.61 -10.718 16.61 -14.562 13.688 C-16.438 11.062 -16.438 11.062 -16.438 9.062 C-9.118 7.202 -1.97 6.505 5.562 6.062 C5.892 5.073 6.222 4.082 6.562 3.062 C5.685 3.199 5.685 3.199 4.79 3.338 C2.131 3.749 -0.528 4.156 -3.188 4.562 C-4.108 4.706 -5.028 4.849 -5.977 4.996 C-7.311 5.199 -7.311 5.199 -8.672 5.406 C-9.489 5.532 -10.306 5.658 -11.147 5.787 C-13.438 6.062 -13.438 6.062 -17.438 6.062 C-17.438 4.412 -17.438 2.763 -17.438 1.062 C-11.589 0.044 -5.927 -0.055 0 0 Z " fill="#FFFFFF" transform="translate(228.4375,100.9375)"/>
<path d="M0 0 C0 3.867 -1.719 6.071 -3.688 9.25 C-8.026 16.543 -10.762 23.812 -13 32 C-13.219 32.794 -13.438 33.588 -13.664 34.406 C-14.805 40.043 -12.575 44.16 -10 49 C-9.331 50.332 -8.664 51.665 -8 53 C-7.34 53 -6.68 53 -6 53 C-5.34 54.65 -4.68 56.3 -4 58 C-3.746 57.385 -3.492 56.77 -3.23 56.137 C-2.886 55.328 -2.542 54.52 -2.188 53.688 C-1.851 52.887 -1.515 52.086 -1.168 51.262 C0.006 48.987 0.997 47.581 3 46 C8.863 45.296 13.607 46.945 19 49 C18.856 48.259 18.711 47.518 18.562 46.754 C15.764 30.876 15.422 17.814 24.305 3.883 C26.331 1.632 28.146 0.919 31 0 C30.34 1.65 29.68 3.3 29 5 C28.34 5 27.68 5 27 5 C26.752 5.681 26.505 6.361 26.25 7.062 C25 10 25 10 22.941 13.016 C20.216 17.751 20.52 22.355 20.688 27.688 C20.703 28.658 20.718 29.629 20.734 30.629 C20.871 37.444 21.2 44.228 22 51 C17.121 51.195 13.581 50.594 9 49 C6.413 48.333 6.413 48.333 4 49 C0.159 53.406 -1.373 58.453 -3 64 C-5.31 64 -7.62 64 -10 64 C-9.67 63.34 -9.34 62.68 -9 62 C-8.01 62 -7.02 62 -6 62 C-6.205 61.457 -6.41 60.915 -6.621 60.355 C-6.891 59.64 -7.16 58.925 -7.438 58.188 C-7.838 57.126 -7.838 57.126 -8.246 56.043 C-8.862 54.373 -9.437 52.688 -10 51 C-10.66 51 -11.32 51 -12 51 C-16.447 43.495 -17.245 38.061 -15.152 29.555 C-12.168 19.862 -7.898 6.77 0 0 Z " fill="#000000" transform="translate(46,176)"/>
<path d="M0 0 C8.244 3.6 12.851 12.434 17 20 C17.482 20.859 17.964 21.717 18.461 22.602 C33.021 49.95 38.653 82.494 41 113 C51.23 113 61.46 113 72 113 C72 113.33 72 113.66 72 114 C59.46 114.66 46.92 115.32 34 116 C45.802 116.908 45.802 116.908 57.605 117.794 C59.079 117.912 60.553 118.03 62.027 118.148 C62.8 118.203 63.572 118.258 64.367 118.314 C66.252 118.47 68.129 118.725 70 119 C70.33 119.66 70.66 120.32 71 121 C62.807 121.199 54.69 120.558 46.532 119.883 C44.111 119.686 41.688 119.508 39.266 119.33 C37.721 119.204 36.177 119.077 34.633 118.949 C33.911 118.899 33.189 118.849 32.445 118.797 C29.577 118.542 27.453 118.318 25.066 116.64 C23.497 114.226 23.314 111.823 23 109 C23.66 109 24.32 109 25 109 C25.66 110.65 26.32 112.3 27 114 C30.96 114 34.92 114 39 114 C34.401 75.711 28.328 34.65 3 4 C1.993 2.672 0.991 1.34 0 0 Z " fill="#000000" transform="translate(256,74)"/>
<path d="M0 0 C0 3 0 3 -1.801 4.805 C-2.63 5.488 -3.459 6.171 -4.312 6.875 C-9.598 11.462 -14.016 16.493 -18.457 21.887 C-18.882 22.397 -19.307 22.908 -19.745 23.434 C-20.595 24.495 -21.409 25.586 -22.187 26.7 C-24.434 29.787 -25.636 30.918 -29.41 31.77 C-31.218 31.791 -31.218 31.791 -33.062 31.812 C-38.608 31.88 -38.608 31.88 -44 33 C-42.35 34.65 -40.7 36.3 -39 38 C-42.477 36.744 -45.094 35.267 -48 33 C-47.421 39.013 -46.777 45.009 -46 51 C-41.38 51 -36.76 51 -32 51 C-33.98 53.475 -33.98 53.475 -36 56 C-36.802 59.69 -36.802 59.69 -37 63 C-37.33 62.01 -37.66 61.02 -38 60 C-40.475 60.495 -40.475 60.495 -43 61 C-43 61.66 -43 62.32 -43 63 C-42.361 63.289 -41.721 63.577 -41.062 63.875 C-39 65 -39 65 -38 67 C-41.872 65.744 -44.028 64.632 -46 61 C-46.188 58.25 -46.188 58.25 -46 56 C-45.67 56.66 -45.34 57.32 -45 58 C-42.69 58 -40.38 58 -38 58 C-38.33 56.35 -38.66 54.7 -39 53 C-40.626 53.087 -42.251 53.195 -43.875 53.312 C-44.78 53.371 -45.685 53.429 -46.617 53.488 C-49.362 53.788 -49.362 53.788 -51 57 C-50.803 62.326 -49.867 65.322 -46 69 C-42.745 71.146 -39.408 73.107 -36 75 C-39 76 -39 76 -41.121 74.961 C-45.414 72.022 -49.096 69.414 -52 65 C-52.65 64.041 -52.65 64.041 -53.312 63.062 C-54.311 60.067 -53.833 58.011 -53 55 C-51.562 53.125 -51.562 53.125 -50 52 C-49.34 52 -48.68 52 -48 52 C-49.32 43.42 -50.64 34.84 -52 26 C-49.546 26.144 -47.091 26.289 -44.562 26.438 C-43.766 26.483 -42.969 26.528 -42.148 26.575 C-38.3 26.806 -34.557 27.185 -30.75 27.812 C-27.047 28.425 -27.047 28.425 -25.02 26.328 C-22.924 23.912 -20.917 21.45 -18.938 18.938 C-13.418 12.127 -7.33 4.887 0 0 Z " fill="#000000" transform="translate(192,66)"/>
<path d="M0 0 C3.87 1.29 4.24 2.558 6.133 6.109 C9.655 13.458 9.891 20.21 9.875 28.25 C9.893 29.592 9.914 30.935 9.938 32.277 C9.984 35.519 10.004 38.758 10 42 C8.52 41.524 7.041 41.044 5.562 40.562 C4.739 40.296 3.915 40.029 3.066 39.754 C1 39 1 39 0 38 C-0.089 35.188 -0.115 32.401 -0.098 29.59 C-0.096 28.748 -0.095 27.906 -0.093 27.038 C-0.088 24.338 -0.075 21.638 -0.062 18.938 C-0.057 17.111 -0.053 15.285 -0.049 13.459 C-0.038 8.973 -0.021 4.486 0 0 Z " fill="#FFFFFF" transform="translate(254,101)"/>
<path d="M0 0 C2.516 -0.038 5.026 -0.03 7.542 -0.004 C8.399 0.001 9.255 0.005 10.138 0.01 C12.21 0.022 14.282 0.04 16.355 0.059 C7.935 7.426 -0.869 9.194 -11.555 10.979 C-13.906 11.373 -16.252 11.79 -18.598 12.209 C-20.098 12.469 -21.598 12.728 -23.098 12.985 C-24.145 13.17 -24.145 13.17 -25.213 13.36 C-28.617 13.918 -31.367 14.275 -34.645 13.059 C-31.394 11.046 -28.117 9.08 -24.833 7.121 C-23.923 6.557 -23.014 5.993 -22.077 5.412 C-14.53 0.959 -8.604 0.191 0 0 Z " fill="#FFFFFF" transform="translate(76.645263671875,158.941162109375)"/>
<path d="M0 0 C-0.523 2.763 -1.109 5.326 -2 8 C-5.395 8.506 -8.791 9.004 -12.188 9.5 C-13.627 9.715 -13.627 9.715 -15.096 9.934 C-16.027 10.069 -16.958 10.204 -17.918 10.344 C-18.772 10.469 -19.625 10.595 -20.505 10.725 C-23.054 11.006 -25.439 11.18 -28 11 C-30.02 9.066 -30.02 9.066 -31.812 6.562 C-32.417 5.739 -33.022 4.915 -33.645 4.066 C-35 2 -35 2 -35 1 C-23.314 0.172 -11.714 -0.123 0 0 Z " fill="#FFFFFF" transform="translate(191,103)"/>
<path d="M0 0 C-0.33 0.99 -0.66 1.98 -1 3 C-2.98 3 -4.96 3 -7 3 C-7.041 3.619 -7.083 4.237 -7.125 4.875 C-7.558 5.927 -7.558 5.927 -8 7 C-11 8.188 -11 8.188 -14 9 C-15.57 10.57 -15.17 12.143 -15.188 14.312 C-15.209 15.482 -15.209 15.482 -15.23 16.676 C-15.159 19.025 -15.159 19.025 -13.906 20.886 C-13 23 -13 23 -13.384 25.027 C-13.675 25.728 -13.966 26.43 -14.266 27.152 C-14.735 28.317 -14.735 28.317 -15.215 29.506 C-15.556 30.308 -15.898 31.111 -16.25 31.938 C-16.576 32.736 -16.902 33.535 -17.238 34.357 C-17.869 35.899 -18.51 37.436 -19.162 38.968 C-19.843 40.619 -20.428 42.308 -20.984 44.004 C-22 46 -22 46 -24.125 46.812 C-24.744 46.874 -25.362 46.936 -26 47 C-26.984 32.325 -22.801 18.386 -15 6 C-12.513 3.741 -10.08 2.457 -6.938 1.312 C-6.266 1.061 -5.594 0.81 -4.902 0.551 C-3 0 -3 0 0 0 Z " fill="#FFFFFF" transform="translate(137,31)"/>
<path d="M0 0 C2.31 0 4.62 0 7 0 C7.177 11.696 6.628 23.324 6 35 C2.04 34.505 2.04 34.505 -2 34 C-1.881 29.801 -1.757 25.601 -1.628 21.402 C-1.584 19.975 -1.543 18.547 -1.503 17.119 C-1.445 15.064 -1.381 13.008 -1.316 10.953 C-1.28 9.717 -1.243 8.481 -1.205 7.208 C-1.04 4.628 -0.754 2.456 0 0 Z " fill="#FFFFFF" transform="translate(240,93)"/>
<path d="M0 0 C0.66 0.66 1.32 1.32 2 2 C1.625 4.125 1.625 4.125 1 6 C-1.31 6 -3.62 6 -6 6 C-6.122 8.341 -6.122 8.341 -5 11 C-0.35 15.273 4.748 16.653 10.898 17.348 C13 18 13 18 14.352 19.871 C15 22 15 22 14 25 C4.122 24.016 -3.291 21.479 -10.562 14.562 C-12.408 11.272 -12.931 8.768 -13 5 C-11.71 2.42 -10.851 1.352 -8.188 0.25 C-5.407 -0.068 -2.796 -0.182 0 0 Z " fill="#FFFFFF" transform="translate(153,118)"/>
<path d="M0 0 C0.66 0.33 1.32 0.66 2 1 C1.397 2.039 0.793 3.078 0.172 4.148 C-4.102 11.578 -8.242 18.849 -11 27 C-11.413 28.155 -11.825 29.31 -12.25 30.5 C-13.796 37.715 -13.878 43.536 -10 50 C-10 50.66 -10 51.32 -10 52 C-9.34 52 -8.68 52 -8 52 C-4 58.5 -4 58.5 -4 63 C-8.455 63.495 -8.455 63.495 -13 64 C-13.121 63.215 -13.242 62.43 -13.367 61.621 C-14.437 54.899 -14.437 54.899 -16.125 48.312 C-19.803 34.388 -12.569 20.899 -6.098 8.868 C-4.269 5.756 -2.152 2.896 0 0 Z " fill="#FFFFFF" transform="translate(44,175)"/>
<path d="M0 0 C2.611 4.895 4.014 10.15 5.625 15.438 C5.95 16.475 6.275 17.512 6.609 18.58 C6.916 19.584 7.223 20.587 7.539 21.621 C7.82 22.533 8.1 23.445 8.389 24.385 C9.005 27.023 9.016 29.304 9 32 C9.985 34.007 10.989 36.005 12 38 C13.471 42.087 14.759 46.232 16.062 50.375 C16.446 51.581 16.829 52.786 17.224 54.028 C18.491 58.016 19.747 62.008 21 66 C21.228 66.725 21.456 67.451 21.69 68.198 C24.808 78.128 27.91 88.062 31 98 C30.01 98.495 30.01 98.495 29 99 C17.36 64.459 17.36 64.459 12.25 47.938 C11.915 46.864 11.581 45.79 11.236 44.684 C10.937 43.704 10.637 42.724 10.328 41.715 C10.069 40.87 9.811 40.026 9.544 39.156 C9 37 9 37 9 34 C3.39 34 -2.22 34 -8 34 C-7.34 32.68 -6.68 31.36 -6 30 C-2.961 29.391 -2.961 29.391 0.625 29.25 C1.814 29.193 3.002 29.137 4.227 29.078 C5.142 29.052 6.057 29.027 7 29 C6.788 28.335 6.576 27.669 6.357 26.984 C5.396 23.95 4.448 20.913 3.5 17.875 C3.166 16.828 2.832 15.782 2.488 14.703 C2.172 13.685 1.857 12.666 1.531 11.617 C1.091 10.219 1.091 10.219 0.643 8.792 C-0.051 5.778 -0.111 3.083 0 0 Z " fill="#000000" transform="translate(298,38)"/>
<path d="M0 0 C9.079 4.433 14.848 9.241 20 18 C20 18.33 20 18.66 20 19 C14.39 19 8.78 19 3 19 C-0.214 5.875 -0.214 5.875 0 0 Z " fill="#FFFFFF" transform="translate(143,98)"/>
<path d="M0 0 C0.66 0 1.32 0 2 0 C6.379 5.009 6.545 9.076 6.391 15.555 C6.385 16.456 6.379 17.358 6.373 18.287 C6.351 21.15 6.301 24.012 6.25 26.875 C6.23 28.823 6.212 30.771 6.195 32.719 C6.151 37.48 6.082 42.24 6 47 C5.01 46.34 4.02 45.68 3 45 C2.312 41.375 2.312 41.375 2 38 C1.34 38 0.68 38 0 38 C-0.118 32.322 0.057 26.726 0.5 21.062 C1.616 10.411 1.616 10.411 0 0 Z " fill="#FFFFFF" transform="translate(247,90)"/>
<path d="M0 0 C0.66 0 1.32 0 2 0 C1.741 0.505 1.482 1.011 1.215 1.531 C-5.867 15.923 -10.71 28.687 -10 45 C-10.66 45 -11.32 45 -12 45 C-14.411 68.117 -11.999 90.588 -6 113 C-8 112 -8 112 -8.965 109.762 C-13.968 93.948 -15.273 78.373 -15.25 61.875 C-15.249 61.152 -15.249 60.43 -15.248 59.685 C-15.21 47.419 -15.21 47.419 -14 45 C-13.783 43.596 -13.608 42.186 -13.457 40.773 C-11.741 26.174 -9.029 12.039 0 0 Z " fill="#000000" transform="translate(122,34)"/>
<path d="M0 0 C2.622 1.049 3.794 1.649 5.25 4.125 C5.498 4.744 5.745 5.362 6 6 C6.66 6 7.32 6 8 6 C29.896 30.197 35.989 67.993 39.641 99.145 C39.975 101.8 40.439 104.384 41 107 C40.34 107 39.68 107 39 107 C38.582 104.792 38.166 102.583 37.75 100.375 C37.55 99.315 37.55 99.315 37.345 98.234 C36.554 94.028 35.788 89.818 35.051 85.602 C29.483 53.89 21.499 25.724 0 1 C0 0.67 0 0.34 0 0 Z " fill="#000000" transform="translate(245,80)"/>
<path d="M0 0 C1.32 0.565 2.631 1.153 3.938 1.75 C4.668 2.075 5.399 2.4 6.152 2.734 C8 4 8 4 8.801 5.855 C9.026 8.283 8.781 10.184 8.25 12.562 C8.01 13.709 8.01 13.709 7.766 14.879 C6.88 17.331 6.101 18.46 4 20 C1.275 20.391 -1.231 20.136 -4 20 C-1.957 1.957 -1.957 1.957 0 0 Z " fill="#FFFFFF" transform="translate(203,81)"/>
<path d="M0 0 C0 2.64 0 5.28 0 8 C-2.061 8.365 -4.124 8.717 -6.188 9.062 C-7.336 9.26 -8.485 9.457 -9.668 9.66 C-12.827 9.982 -14.984 9.924 -18 9 C-20.312 7.062 -20.312 7.062 -22 5 C-22 4.34 -22 3.68 -22 3 C-14.665 1.287 -7.578 -0.185 0 0 Z " fill="#FFFFFF" transform="translate(234,107)"/>
<path d="M0 0 C1.437 -0.054 2.875 -0.093 4.312 -0.125 C5.113 -0.148 5.914 -0.171 6.738 -0.195 C9 0 9 0 12 2 C11.434 2.398 10.868 2.797 10.285 3.207 C9.552 3.737 8.818 4.267 8.062 4.812 C7.332 5.335 6.601 5.857 5.848 6.395 C3.731 7.959 3.731 7.959 3 11 C-0.96 11 -4.92 11 -9 11 C-7.998 7.207 -7.19 4.285 -5 1 C-2.133 1.573 -1.139 1.861 1 4 C0.67 2.68 0.34 1.36 0 0 Z " fill="#FFFFFF" transform="translate(222,89)"/>
<path d="M0 0 C6.326 5.211 9.1 11.088 10.07 19.078 C10.386 26.462 9.223 34.536 4.148 40.242 C2.5 41.629 2.5 41.629 -0.25 43.441 C0.714 41.488 1.687 39.554 2.75 37.652 C7.549 28.841 8.371 21.82 5.77 12.105 C4.752 9.448 3.489 7.666 1.75 5.441 C1.75 4.781 1.75 4.121 1.75 3.441 C1.09 3.441 0.43 3.441 -0.25 3.441 C-0.25 2.781 -0.25 2.121 -0.25 1.441 C-6.479 -1.084 -11.502 -2.357 -18.25 -1.559 C-20.776 -0.443 -22.905 0.958 -25.25 2.441 C-26.24 2.111 -27.23 1.781 -28.25 1.441 C-27.004 0.622 -25.753 -0.189 -24.5 -0.996 C-23.456 -1.675 -23.456 -1.675 -22.391 -2.367 C-15.087 -6.432 -6.579 -4.656 0 0 Z " fill="#000000" transform="translate(212.25,142.55859375)"/>
<path d="M0 0 C-0.66 1.32 -1.32 2.64 -2 4 C-2.66 4 -3.32 4 -4 4 C-4.248 4.536 -4.495 5.072 -4.75 5.625 C-8.957 13.618 -8.957 13.618 -12.562 14.938 C-15.447 16.195 -15.628 16.827 -16.812 19.625 C-17.4 21.296 -17.4 21.296 -18 23 C-18.66 23 -19.32 23 -20 23 C-21.2 17.72 -21.2 17.72 -20.375 14.75 C-19 13 -19 13 -16.438 12 C-15.633 11.67 -14.829 11.34 -14 11 C-13.113 8.959 -13.113 8.959 -13 7 C-12.031 6.876 -11.061 6.752 -10.062 6.625 C-9.052 6.419 -8.041 6.212 -7 6 C-6.67 5.34 -6.34 4.68 -6 4 C-7.156 4.451 -7.156 4.451 -8.336 4.91 C-9.339 5.29 -10.342 5.671 -11.375 6.062 C-12.373 6.445 -13.37 6.828 -14.398 7.223 C-17 8 -17 8 -19 7 C-3.65 0 -3.65 0 0 0 Z " fill="#000000" transform="translate(143,27)"/>
<path d="M0 0 C7.92 0 15.84 0 24 0 C24 0.33 24 0.66 24 1 C17.789 1.857 11.578 2.711 5.366 3.563 C3.252 3.854 1.139 4.145 -0.975 4.437 C-4.01 4.855 -7.046 5.272 -10.082 5.688 C-11.502 5.884 -11.502 5.884 -12.952 6.085 C-13.832 6.205 -14.713 6.325 -15.62 6.449 C-16.395 6.556 -17.17 6.662 -17.969 6.772 C-20 7 -20 7 -23 7 C-23 5.68 -23 4.36 -23 3 C-20.105 2.636 -17.21 2.284 -14.312 1.938 C-13.088 1.782 -13.088 1.782 -11.838 1.623 C-7.658 1.132 -4.112 0.802 0 2 C0 1.34 0 0.68 0 0 Z " fill="#FFFFFF" transform="translate(255,182)"/>
<path d="M0 0 C2.625 0.375 2.625 0.375 5 1 C5.33 2.32 5.66 3.64 6 5 C6.619 4.175 7.238 3.35 7.875 2.5 C8.576 1.675 9.277 0.85 10 0 C10.66 0 11.32 0 12 0 C12.195 1.457 12.381 2.916 12.562 4.375 C12.667 5.187 12.771 5.999 12.879 6.836 C13 9 13 9 12 11 C11.34 11 10.68 11 10 11 C10 10.34 10 9.68 10 9 C9.113 9.33 8.226 9.66 7.312 10 C4.28 10.916 2.129 11.268 -1 11 C-2.895 9.105 -2.18 6.429 -2.23 3.91 C-2 2 -2 2 0 0 Z " fill="#282828" transform="translate(320,273)"/>
<path d="M0 0 C0.994 0.102 1.988 0.204 3.012 0.309 C3.771 0.392 4.53 0.476 5.312 0.562 C2.686 2.674 0.972 3.674 -2.312 4.75 C-5.741 6.152 -5.741 6.152 -6.582 8.531 C-7.222 10.997 -7.222 10.997 -7.688 14.562 C-9.998 14.232 -12.308 13.903 -14.688 13.562 C-11.669 3.544 -11.669 3.544 -8.688 0.562 C-5.376 -0.541 -3.44 -0.364 0 0 Z " fill="#FFFFFF" transform="translate(172.6875,120.4375)"/>
<path d="M0 0 C0.99 1.98 1.98 3.96 3 6 C0.418 6.363 -2.165 6.716 -4.75 7.062 C-5.844 7.218 -5.844 7.218 -6.961 7.377 C-10.611 7.858 -13.477 8.045 -17 7 C-15.938 4.062 -15.938 4.062 -14 1 C-9.373 -0.246 -4.775 -0.097 0 0 Z " fill="#FFFFFF" transform="translate(209,111)"/>
<path d="M0 0 C4.776 1.642 8.794 4.265 13 7 C11.813 9.621 11.237 10.838 8.812 12.5 C4.519 13.263 2.565 11.377 -1 9 C-0.67 6.03 -0.34 3.06 0 0 Z " fill="#FFFFFF" transform="translate(223,70)"/>
<path d="M0 0 C0 3 0 3 -1.801 4.805 C-2.63 5.488 -3.459 6.171 -4.312 6.875 C-9.598 11.462 -14.016 16.493 -18.457 21.887 C-19.105 22.651 -19.105 22.651 -19.765 23.431 C-21.238 25.236 -21.238 25.236 -23.055 28.402 C-27.075 31.948 -29.773 31.486 -34.971 31.172 C-36.073 31.074 -37.176 30.976 -38.312 30.875 C-39.435 30.8 -40.557 30.725 -41.713 30.648 C-44.479 30.46 -47.239 30.243 -50 30 C-50 29.34 -50 28.68 -50 28 C-48.986 28.031 -48.986 28.031 -47.952 28.063 C-44.885 28.147 -41.818 28.199 -38.75 28.25 C-37.155 28.3 -37.155 28.3 -35.527 28.352 C-33.99 28.371 -33.99 28.371 -32.422 28.391 C-31.479 28.412 -30.537 28.433 -29.565 28.454 C-24.547 27.566 -21.941 22.75 -18.938 18.938 C-13.418 12.127 -7.33 4.887 0 0 Z " fill="#494949" transform="translate(192,66)"/>
<path d="M0 0 C0.99 0.33 1.98 0.66 3 1 C2.01 1.66 1.02 2.32 0 3 C-0.58 5.195 -0.58 5.195 -0.688 7.625 C-0.753 8.442 -0.819 9.26 -0.887 10.102 C-0.924 10.728 -0.961 11.355 -1 12 C-0.34 12 0.32 12 1 12 C1.227 10.886 1.454 9.773 1.688 8.625 C3 5 3 5 5.625 3.562 C6.409 3.377 7.192 3.191 8 3 C6.164 7.867 3.877 12.504 1.625 17.188 C-1.49 23.705 -4.506 30.215 -7 37 C-8.352 32.943 -7.186 31.151 -5.688 27.188 C-4.05 22.811 -2.449 18.443 -1 14 C-1.66 13.34 -2.32 12.68 -3 12 C-3.301 9.941 -3.301 9.941 -3.312 7.562 C-3.329 6.78 -3.346 5.998 -3.363 5.191 C-2.924 2.539 -2.044 1.677 0 0 Z " fill="#000000" transform="translate(124,38)"/>
<path d="M0 0 C2.31 0.66 4.62 1.32 7 2 C6.67 2.701 6.34 3.403 6 4.125 C4.893 7.308 4.703 9.653 5 13 C6.82 15.241 6.82 15.241 9.438 15.25 C12.241 15.18 12.241 15.18 15 13 C14.67 15.31 14.34 17.62 14 20 C10.15 19.396 7.139 18.232 3.688 16.438 C2.804 15.982 1.921 15.527 1.012 15.059 C0.348 14.709 -0.316 14.36 -1 14 C-1 12.68 -1 11.36 -1 10 C0.32 10 1.64 10 3 10 C3 9.01 3 8.02 3 7 C2.01 7 1.02 7 0 7 C0 4.69 0 2.38 0 0 Z " fill="#FFFFFF" transform="translate(204,66)"/>
<path d="M0 0 C-2.298 2.298 -2.99 2.342 -6.111 2.73 C-7.383 2.896 -7.383 2.896 -8.68 3.064 C-10.057 3.232 -10.057 3.232 -11.461 3.402 C-13.396 3.655 -15.331 3.909 -17.266 4.162 C-20.322 4.552 -23.379 4.938 -26.437 5.32 C-29.384 5.691 -32.328 6.077 -35.273 6.465 C-36.187 6.574 -37.101 6.684 -38.042 6.797 C-42.554 7.396 -45.521 7.857 -49 11 C-51.25 10.688 -51.25 10.688 -53 10 C-51.824 9.381 -51.824 9.381 -50.625 8.75 C-47.941 6.961 -47.119 5.95 -46 3 C-46 3.99 -46 4.98 -46 6 C-45.378 5.88 -44.756 5.761 -44.115 5.637 C-36.169 4.147 -28.195 2.977 -20.188 1.875 C-18.904 1.693 -17.621 1.511 -16.299 1.324 C-14.44 1.067 -14.44 1.067 -12.543 0.805 C-11.429 0.65 -10.316 0.495 -9.169 0.335 C-6.085 0.009 -3.098 -0.06 0 0 Z " fill="#000000" transform="translate(278,183)"/>
<path d="M0 0 C1.125 3.75 1.125 3.75 0 6 C0 7.32 0 8.64 0 10 C-2.64 10.99 -5.28 11.98 -8 13 C-7.67 11.02 -7.34 9.04 -7 7 C-9.475 6.01 -9.475 6.01 -12 5 C-12 4.67 -12 4.34 -12 4 C-8 2.667 -4 1.333 0 0 Z " fill="#1C1C1C" transform="translate(234,114)"/>
<path d="M0 0 C22.94 -0.247 22.94 -0.247 30 1 C30.33 1.66 30.66 2.32 31 3 C26.583 3.058 22.167 3.094 17.75 3.125 C16.496 3.142 15.241 3.159 13.949 3.176 C12.744 3.182 11.539 3.189 10.297 3.195 C8.632 3.211 8.632 3.211 6.933 3.227 C4.06 3.005 2.428 2.493 0 1 C0 0.67 0 0.34 0 0 Z " fill="#FFFFFF" transform="translate(247,171)"/>
<path d="M0 0 C3 1 3 1 4.859 4.492 C5.501 5.948 6.131 7.409 6.75 8.875 C7.079 9.608 7.407 10.342 7.746 11.098 C10.128 16.616 10.128 16.616 9 20 C8.855 21.407 8.754 22.818 8.684 24.23 C8.642 25.033 8.6 25.835 8.557 26.662 C8.517 27.495 8.478 28.329 8.438 29.188 C8.394 30.032 8.351 30.877 8.307 31.748 C8.201 33.832 8.1 35.916 8 38 C7.67 38 7.34 38 7 38 C6.404 33.797 5.943 29.694 5.859 25.449 C5.662 15.969 5.073 8.33 0 0 Z " fill="#000000" transform="translate(257,103)"/>
<path d="M0 0 C0.027 1.479 0.046 2.958 0.062 4.438 C0.074 5.261 0.086 6.085 0.098 6.934 C0 9 0 9 -1 10 C-2.666 10.041 -4.334 10.043 -6 10 C-7.04 6.62 -7.08 3.522 -7 0 C-4.333 -1.333 -2.833 -0.671 0 0 Z " fill="#303030" transform="translate(309,274)"/>
<path d="M0 0 C3.3 0 6.6 0 10 0 C10 1.98 10 3.96 10 6 C4.06 6.495 4.06 6.495 -2 7 C-1.34 4.69 -0.68 2.38 0 0 Z " fill="#FFFFFF" transform="translate(198,102)"/>
<path d="M0 0 C1.32 0.66 2.64 1.32 4 2 C3.34 2 2.68 2 2 2 C2 4.31 2 6.62 2 9 C-3.94 9.495 -3.94 9.495 -10 10 C-10 9.34 -10 8.68 -10 8 C-8.385 6.564 -6.708 5.199 -5 3.875 C-4.072 3.151 -3.144 2.426 -2.188 1.68 C-1.466 1.125 -0.744 0.571 0 0 Z " fill="#FFFFFF" transform="translate(236,90)"/>
<path d="M0 0 C0.846 0.268 1.691 0.536 2.562 0.812 C2.562 4.812 2.562 4.812 1.062 6.562 C-2.56 8.374 -5.412 8.014 -9.438 7.812 C-9.767 6.822 -10.098 5.833 -10.438 4.812 C-4.521 -0.247 -4.521 -0.247 0 0 Z " fill="#FFFFFF" transform="translate(273.4375,162.1875)"/>
<path d="M0 0 C-0.312 1.938 -0.312 1.938 -1 4 C-1.99 4.33 -2.98 4.66 -4 5 C-5.209 7 -5.209 7 -6 9 C-7.32 8.01 -8.64 7.02 -10 6 C-10 7.65 -10 9.3 -10 11 C-10.99 11.495 -10.99 11.495 -12 12 C-12.367 4.541 -12.367 4.541 -10.688 2.062 C-7.154 -0.162 -4.055 -0.09 0 0 Z " fill="#FFFFFF" transform="translate(179,125)"/>
<path d="M0 0 C3.153 2.742 3.803 4.984 4.203 9.078 C4.326 14.75 3.515 18.881 1 24 C-0.98 24.99 -0.98 24.99 -3 26 C-1.35 22.7 0.3 19.4 2 16 C0.02 16 -1.96 16 -4 16 C-3.67 15.34 -3.34 14.68 -3 14 C-1.35 14 0.3 14 2 14 C1.67 11.69 1.34 9.38 1 7 C-0.98 7 -2.96 7 -5 7 C-5 6.67 -5 6.34 -5 6 C-3.02 5.67 -1.04 5.34 1 5 C0.67 3.35 0.34 1.7 0 0 Z " fill="#000000" transform="translate(210,153)"/>
<path d="M0 0 C2.625 0.375 2.625 0.375 5 1 C5 1.66 5 2.32 5 3 C3.68 3 2.36 3 1 3 C2.32 3.66 3.64 4.32 5 5 C5.043 6.666 5.041 8.334 5 10 C4 11 4 11 1.5 11.125 C-1 11 -1 11 -2 10 C-2.273 4.264 -2.273 4.264 -2 2 C-1.34 1.34 -0.68 0.68 0 0 Z " fill="#282828" transform="translate(312,273)"/>
<path d="M0 0 C1.819 3.638 2.732 6.569 3.625 10.5 C3.885 11.624 4.146 12.748 4.414 13.906 C5 17 5 17 5 21 C3.35 21 1.7 21 0 21 C0 14.07 0 7.14 0 0 Z " fill="#FFFFFF" transform="translate(269,134)"/>
<path d="M0 0 C-0.506 2.169 -1 4 -2 6 C-7.802 6.363 -11.64 5.257 -17 3 C-17 2.67 -17 2.34 -17 2 C-14.73 1.664 -12.459 1.331 -10.188 1 C-8.291 0.722 -8.291 0.722 -6.355 0.438 C-3 0 -3 0 0 0 Z " fill="#FFFFFF" transform="translate(186,114)"/>
<path d="M0 0 C1.32 0.33 2.64 0.66 4 1 C1.671 4.494 0.908 4.569 -3 5.562 C-6.915 6.516 -6.915 6.516 -10 9 C-10.458 10.972 -10.458 10.972 -10.625 13.125 C-10.749 14.404 -10.873 15.683 -11 17 C-13.64 16.67 -16.28 16.34 -19 16 C-19 15.34 -19 14.68 -19 14 C-16.03 14.495 -16.03 14.495 -13 15 C-12.917 13.742 -12.835 12.484 -12.75 11.188 C-12.253 7.271 -12.253 7.271 -10.25 5.125 C-4 2 -4 2 0 2 C0 1.34 0 0.68 0 0 Z " fill="#000000" transform="translate(178,120)"/>
<path d="M0 0 C1.98 0 3.96 0 6 0 C6.33 2.31 6.66 4.62 7 7 C4.69 7.33 2.38 7.66 0 8 C0 5.36 0 2.72 0 0 Z " fill="#B6B6B6" transform="translate(205,160)"/>
<path d="M0 0 C0.99 0.33 1.98 0.66 3 1 C2.885 2.438 2.758 3.876 2.625 5.312 C2.555 6.113 2.486 6.914 2.414 7.738 C2 10 2 10 0 13 C-0.66 12.67 -1.32 12.34 -2 12 C-3.286 5.571 -3.286 5.571 -2 3 C-1.34 3 -0.68 3 0 3 C0 2.01 0 1.02 0 0 Z " fill="#FFFFFF" transform="translate(199,65)"/>
<path d="M0 0 C0.33 0.66 0.66 1.32 1 2 C-2.266 3.913 -4.994 4.357 -8.75 4.625 C-9.735 4.7 -10.72 4.775 -11.734 4.852 C-12.482 4.901 -13.23 4.95 -14 5 C-13.67 4.01 -13.34 3.02 -13 2 C-8.57 0.35 -4.709 -0.23 0 0 Z " fill="#171717" transform="translate(186,111)"/>
<path d="M0 0 C2.97 0.495 2.97 0.495 6 1 C6 2.98 6 4.96 6 7 C3 8 3 8 0.812 7.062 C0.214 6.712 -0.384 6.361 -1 6 C-0.67 4.02 -0.34 2.04 0 0 Z " fill="#A6A6A6" transform="translate(197,148)"/>
<path d="M0 0 C-0.33 2.64 -0.66 5.28 -1 8 C-3.962 7.387 -5.381 6.746 -8 5 C-6.448 0.345 -4.788 0 0 0 Z " fill="#FFFFFF" transform="translate(196,147)"/>
<path d="M0 0 C1.938 0.141 3.875 0.288 5.812 0.438 C7.431 0.559 7.431 0.559 9.082 0.684 C12 1 12 1 15 2 C15 2.99 15 3.98 15 5 C9.72 4.34 4.44 3.68 -1 3 C-0.67 2.01 -0.34 1.02 0 0 Z " fill="#FFFFFF" transform="translate(196,124)"/>
<path d="M0 0 C4.62 0 9.24 0 14 0 C14 0.99 14 1.98 14 3 C8.06 3.495 8.06 3.495 2 4 C1.34 2.68 0.68 1.36 0 0 Z " fill="#FFFFFF" transform="translate(201,119)"/>
<path d="M0 0 C-0.309 1.459 -0.622 2.917 -0.938 4.375 C-1.112 5.187 -1.286 5.999 -1.465 6.836 C-2 9 -2 9 -3 11 C-3.66 11 -4.32 11 -5 11 C-6.221 5.628 -6.221 5.628 -5.188 2.688 C-3.641 0.49 -2.686 0 0 0 Z " fill="#FFFFFF" transform="translate(128,39)"/>
<path d="M0 0 C2.97 0 5.94 0 9 0 C9 0.66 9 1.32 9 2 C7.68 2 6.36 2 5 2 C5 4.97 5 7.94 5 11 C4.34 11 3.68 11 3 11 C3 8.03 3 5.06 3 2 C2.01 2 1.02 2 0 2 C0 1.34 0 0.68 0 0 Z " fill="#000000" transform="translate(289,273)"/>
<path d="M0 0 C1.32 0.33 2.64 0.66 4 1 C3.01 2.32 2.02 3.64 1 5 C3.31 5 5.62 5 8 5 C8.33 5.66 8.66 6.32 9 7 C3.06 7.495 3.06 7.495 -3 8 C-2.34 7.01 -1.68 6.02 -1 5 C-0.615 3.345 -0.272 1.678 0 0 Z " fill="#000000" transform="translate(194,122)"/>
<path d="M0 0 C0.33 0.99 0.66 1.98 1 3 C0.01 3.66 -0.98 4.32 -2 5 C-3.192 7.05 -3.192 7.05 -4 9 C-5.32 8.67 -6.64 8.34 -8 8 C-6.483 4.46 -4.247 0 0 0 Z " fill="#FFFFFF" transform="translate(239,79)"/>
<path d="M0 0 C1.32 0.99 2.64 1.98 4 3 C4 2.01 4 1.02 4 0 C5.32 0.33 6.64 0.66 8 1 C8.33 2.65 8.66 4.3 9 6 C6.03 5.67 3.06 5.34 0 5 C0 3.35 0 1.7 0 0 Z " fill="#FFFFFF" transform="translate(213,125)"/>
<path d="M0 0 C0.66 0 1.32 0 2 0 C1.67 2.97 1.34 5.94 1 9 C0.01 9 -0.98 9 -2 9 C-2.688 6.75 -2.688 6.75 -3 4 C-1.688 1.688 -1.688 1.688 0 0 Z " fill="#FFFFFF" transform="translate(213,70)"/>
<path d="M0 0 C0.99 0 1.98 0 3 0 C3 2.64 3 5.28 3 8 C1.68 8.33 0.36 8.66 -1 9 C-1.66 8.01 -2.32 7.02 -3 6 C-2.01 4.02 -1.02 2.04 0 0 Z " fill="#FFFFFF" transform="translate(191,120)"/>
<path d="M0 0 C0.33 1.32 0.66 2.64 1 4 C-1.64 4.99 -4.28 5.98 -7 7 C-6.67 5.35 -6.34 3.7 -6 2 C-4.02 1.34 -2.04 0.68 0 0 Z " fill="#FFFFFF" transform="translate(233,120)"/>
<path d="M0 0 C0.66 0.66 1.32 1.32 2 2 C0.35 4.97 -1.3 7.94 -3 11 C-3.33 11 -3.66 11 -4 11 C-4.492 4.6 -4.492 4.6 -2 1.562 C-1.34 1.047 -0.68 0.531 0 0 Z " fill="#FFFFFF" transform="translate(159,118)"/>
<path d="M0 0 C0.66 0 1.32 0 2 0 C2.312 2.312 2.312 2.312 2 5 C-0.312 6.875 -0.312 6.875 -3 8 C-3.99 7.67 -4.98 7.34 -6 7 C-5.072 6.103 -5.072 6.103 -4.125 5.188 C-1.863 2.992 -1.863 2.992 0 0 Z " fill="#FFFFFF" transform="translate(229,185)"/>
<path d="M0 0 C0.99 0.66 1.98 1.32 3 2 C2.67 2.99 2.34 3.98 2 5 C-0.375 5.188 -0.375 5.188 -3 5 C-3.66 4.01 -4.32 3.02 -5 2 C-2.688 0.875 -2.688 0.875 0 0 Z " fill="#FFFFFF" transform="translate(231,126)"/>
<path d="M0 0 C0.598 0.206 1.196 0.413 1.812 0.625 C-0.167 3.595 -0.167 3.595 -2.188 6.625 C-2.847 6.295 -3.507 5.965 -4.188 5.625 C-4.812 3.562 -4.812 3.562 -5.188 1.625 C-2.188 -0.375 -2.188 -0.375 0 0 Z " fill="#7F7F7F" transform="translate(132.1875,36.375)"/>
<path d="M0 0 C1.98 0 3.96 0 6 0 C6.33 1.98 6.66 3.96 7 6 C4.125 4.711 2.075 3.386 0 1 C0 0.67 0 0.34 0 0 Z " fill="#FFFFFF" transform="translate(148,126)"/>
<path d="M0 0 C0.99 0.33 1.98 0.66 3 1 C-0.3 3.31 -3.6 5.62 -7 8 C-7.66 7.67 -8.32 7.34 -9 7 C-7.877 6.018 -6.752 5.04 -5.625 4.062 C-4.685 3.245 -4.685 3.245 -3.727 2.41 C-2 1 -2 1 0 0 Z " fill="#000000" transform="translate(160,64)"/>
<path d="M0 0 C2.31 0.66 4.62 1.32 7 2 C7 2.66 7 3.32 7 4 C5.02 4 3.04 4 1 4 C0.67 2.68 0.34 1.36 0 0 Z " fill="#FFFFFF" transform="translate(264,155)"/>
<path d="M0 0 C1.32 0.33 2.64 0.66 4 1 C4 2.32 4 3.64 4 5 C2.68 5 1.36 5 0 5 C0 3.35 0 1.7 0 0 Z " fill="#FFFFFF" transform="translate(240,84)"/>
<path d="M0 0 C-1.485 1.485 -1.485 1.485 -3 3 C-4.98 2.34 -6.96 1.68 -9 1 C-9 0.67 -9 0.34 -9 0 C-5.622 -0.845 -3.325 -1.108 0 0 Z " fill="#FFFFFF" transform="translate(231,118)"/>
</svg>
