<?xml version="1.0" encoding="UTF-8"?>
<!-- Generator: visioncortex VTracer 0.6.4 -->
<svg version="1.1" xmlns="http://www.w3.org/2000/svg" width="325" height="311">
<path d="M0 0 C107.25 0 214.5 0 325 0 C325 102.63 325 205.26 325 311 C217.75 311 110.5 311 0 311 C0 208.37 0 105.74 0 0 Z " fill="#FEFEFE" transform="translate(0,0)"/>
<path d="M0 0 C0.99 1.485 0.99 1.485 2 3 C1.67 3.66 1.34 4.32 1 5 C1.99 5 2.98 5 4 5 C4 6.32 4 7.64 4 9 C4.495 8.67 4.99 8.34 5.5 8 C9.206 6.517 12.011 6.678 16 7 C17.873 9.81 18.529 11.492 19.332 14.691 C19.571 15.627 19.809 16.563 20.055 17.527 C20.43 19.029 20.43 19.029 20.812 20.562 C21.348 22.66 21.884 24.758 22.422 26.855 C22.688 27.898 22.954 28.94 23.229 30.013 C24.296 34.146 25.417 38.263 26.562 42.375 C26.86 43.45 26.86 43.45 27.164 44.546 C28.202 48.261 29.285 51.958 30.422 55.645 C30.654 56.407 30.887 57.169 31.127 57.954 C31.568 59.391 32.017 60.826 32.477 62.257 C33.816 66.622 34.207 70.446 34 75 C31.69 75 29.38 75 27 75 C27 76.32 27 77.64 27 79 C27.699 78.916 28.397 78.832 29.117 78.746 C30.482 78.593 30.482 78.593 31.875 78.438 C33.232 78.281 33.232 78.281 34.617 78.121 C37 78 37 78 39 79 C40.07 80.996 40.07 80.996 41.125 83.438 C41.478 84.241 41.831 85.044 42.195 85.871 C43 88 43 88 43 90 C43.66 90 44.32 90 45 90 C45.289 90.639 45.578 91.279 45.875 91.938 C46.828 94.152 46.828 94.152 49 95 C49 95.99 49 96.98 49 98 C47.02 98.66 45.04 99.32 43 100 C44.119 103.726 44.119 103.726 47 106 C49.552 105.968 52.057 105.869 54.602 105.703 C55.362 105.655 56.123 105.608 56.907 105.559 C64.792 105.018 72.565 103.933 80.375 102.75 C81.878 102.528 83.381 102.307 84.884 102.087 C88.005 101.628 91.126 101.167 94.247 100.703 C101.33 99.652 108.418 98.643 115.506 97.633 C117.675 97.323 119.844 97.012 122.013 96.7 C129.936 95.564 137.864 94.478 145.802 93.454 C149.934 92.89 149.934 92.89 154 92 C155.115 89.771 155.164 88.446 155.246 85.973 C155.295 84.784 155.295 84.784 155.346 83.572 C155.407 81.903 155.464 80.234 155.518 78.564 C155.552 77.771 155.586 76.978 155.621 76.16 C155.659 75.072 155.659 75.072 155.697 73.961 C156 72 156 72 158 69 C162.823 68.327 165.336 69.408 169.188 72.25 C170.027 72.853 170.866 73.457 171.73 74.078 C174 76 174 76 175.547 78.117 C177.247 80.32 178.485 80.893 181.062 81.875 C188.685 85.046 195.372 88.89 201 95 C201.928 95.701 202.856 96.403 203.812 97.125 C204.895 98.053 204.895 98.053 206 99 C206 99.99 206 100.98 206 102 C206.66 102 207.32 102 208 102 C208.413 102.907 208.825 103.815 209.25 104.75 C210.934 107.878 212.405 109.634 215 112 C216.667 113.667 218.333 115.333 220 117 C220.763 117.722 221.526 118.444 222.312 119.188 C224 121 224 121 224 123 C224.99 123.33 225.98 123.66 227 124 C227.712 124.743 227.712 124.743 228.438 125.5 C229.882 127.166 229.882 127.166 231.949 127.344 C234 128 234 128 235.273 129.75 C235.819 130.864 235.819 130.864 236.375 132 C238.529 136.188 240.964 140.007 243.668 143.859 C245.1 146.161 246.064 148.461 247 151 C245.757 151.844 244.506 152.675 243.25 153.5 C242.554 153.964 241.858 154.428 241.141 154.906 C239 156 239 156 235 156 C231.539 149.724 228.16 143.433 225 137 C224.334 135.666 223.668 134.333 223 133 C223.66 132.01 224.32 131.02 225 130 C225 129.34 225 128.68 225 128 C224.34 128 223.68 128 223 128 C221.803 126.271 220.608 124.541 219.422 122.805 C217.37 120.2 214.793 118.746 212 117 C210.311 115.356 208.642 113.691 207 112 C207.075 112.595 207.15 113.19 207.228 113.803 C208.197 121.53 209.106 129.264 210 137 C210.136 138.168 210.272 139.336 210.412 140.539 C212.646 160.117 213.452 179.406 213.323 199.1 C213.309 201.945 213.314 204.79 213.32 207.635 C213.324 211.063 213.312 214.49 213.301 217.918 C213.302 219.178 213.303 220.438 213.304 221.737 C213.294 222.898 213.284 224.059 213.275 225.255 C213.27 226.271 213.265 227.288 213.261 228.336 C212.992 231.081 212.303 232.609 211 235 C210.613 237.325 210.27 239.659 210 242 C209.01 242.33 208.02 242.66 207 243 C206.492 240.793 205.994 238.585 205.5 236.375 C205.082 234.53 205.082 234.53 204.656 232.648 C204.059 229.328 203.876 226.361 204 223 C203.34 223.33 202.68 223.66 202 224 C199.968 219.666 199.479 215.714 199 211 C197.691 210.653 196.377 210.324 195.062 210 C194.332 209.814 193.601 209.629 192.848 209.438 C185.488 208.307 178.125 209.19 170.785 210.094 C169.848 210.205 168.911 210.316 167.946 210.43 C164.984 210.782 162.023 211.141 159.062 211.5 C156.077 211.858 153.09 212.214 150.104 212.57 C148.253 212.791 146.402 213.013 144.552 213.238 C143.72 213.338 142.888 213.438 142.031 213.541 C141.299 213.63 140.567 213.719 139.812 213.81 C138 214 138 214 136 214 C136.307 214.801 136.307 214.801 136.621 215.617 C139.407 223.322 141.645 231.253 138.129 239.059 C133.893 246.343 128.22 251.71 120 254 C110.999 255.377 102.512 255.235 94.949 249.688 C88.397 244.015 86.158 238.502 85 230 C85.049 226.598 85.386 223.344 86 220 C85.01 220.33 84.02 220.66 83 221 C81.318 221.225 79.63 221.413 77.941 221.578 C64.931 222.941 52.492 224.929 39.893 228.475 C37.937 229.018 35.972 229.515 34 230 C33.67 231.32 33.34 232.64 33 234 C32.34 234 31.68 234 31 234 C30.505 229.545 30.505 229.545 30 225 C29.34 225 28.68 225 28 225 C26.709 221.041 25.952 217.661 25.812 213.5 C25.373 207.87 23.096 203.381 20.527 198.441 C18.346 194.168 17.435 190.708 17 186 C16.01 185.67 15.02 185.34 14 185 C12.684 182.129 12.684 182.129 11.438 178.562 C9.908 173.851 9.908 173.851 7 170 C6.307 168.165 5.62 166.327 4.957 164.48 C3.904 161.752 2.69 159.143 1.438 156.5 C-1.613 149.96 -4.452 143.339 -7.25 136.688 C-7.686 135.661 -8.123 134.635 -8.573 133.578 C-10.403 129.2 -12.112 124.965 -13.172 120.332 C-13.445 119.232 -13.718 118.133 -14 117 C-14.99 116.505 -14.99 116.505 -16 116 C-17.056 113.614 -18.02 111.251 -18.938 108.812 C-20.387 105.012 -21.836 101.323 -23.68 97.691 C-25.076 94.846 -25.275 93.122 -25 90 C-25.66 90 -26.32 90 -27 90 C-27.461 88.826 -27.923 87.651 -28.398 86.441 C-34.235 71.914 -41.256 58.432 -50.82 45.98 C-52 44 -52 44 -52 40 C-52.99 40 -53.98 40 -55 40 C-56.387 38.539 -56.387 38.539 -57.688 36.625 C-58.124 35.999 -58.561 35.372 -59.012 34.727 C-60 33 -60 33 -60 31 C-60.66 31 -61.32 31 -62 31 C-66.217 26.618 -69.839 22.297 -70 16 C-69.67 16.66 -69.34 17.32 -69 18 C-48.163 18.348 -48.163 18.348 -29 12 C-26.89 11.549 -24.761 11.183 -22.625 10.875 C-20.943 10.624 -20.943 10.624 -19.227 10.367 C-16.442 10.05 -13.797 9.927 -11 10 C-11 9.34 -11 8.68 -11 8 C-14.3 8 -17.6 8 -21 8 C-21 7.67 -21 7.34 -21 7 C-19.32 6.727 -19.32 6.727 -17.605 6.449 C-16.133 6.196 -14.66 5.942 -13.188 5.688 C-12.45 5.57 -11.712 5.452 -10.951 5.33 C-5.733 4.467 -5.733 4.467 -2 1 C-3.196 1.33 -4.392 1.66 -5.625 2 C-9.158 2.893 -12.341 3.183 -16 3 C-16 2.67 -16 2.34 -16 2 C-10.642 0.639 -5.567 -0.568 0 0 Z " fill="#EDEDED" transform="translate(75,27)"/>
<path d="M0 0 C4.823 -0.673 7.336 0.408 11.188 3.25 C12.027 3.853 12.866 4.457 13.73 5.078 C16 7 16 7 17.547 9.117 C19.247 11.32 20.485 11.893 23.062 12.875 C30.685 16.046 37.372 19.89 43 26 C43.928 26.701 44.856 27.403 45.812 28.125 C46.534 28.744 47.256 29.362 48 30 C48 30.99 48 31.98 48 33 C48.66 33 49.32 33 50 33 C50.619 34.361 50.619 34.361 51.25 35.75 C52.934 38.878 54.405 40.634 57 43 C58.667 44.667 60.333 46.333 62 48 C62.763 48.722 63.526 49.444 64.312 50.188 C66 52 66 52 66 54 C66.99 54.33 67.98 54.66 69 55 C69.474 55.495 69.949 55.99 70.438 56.5 C71.882 58.166 71.882 58.166 73.949 58.344 C76 59 76 59 77.273 60.75 C77.637 61.493 78 62.235 78.375 63 C80.529 67.188 82.964 71.007 85.668 74.859 C87.1 77.161 88.064 79.461 89 82 C87.757 82.844 86.506 83.675 85.25 84.5 C84.554 84.964 83.858 85.428 83.141 85.906 C81 87 81 87 77 87 C73.539 80.724 70.16 74.433 67 68 C66.334 66.666 65.668 65.333 65 64 C65.66 63.01 66.32 62.02 67 61 C67 60.34 67 59.68 67 59 C66.34 59 65.68 59 65 59 C63.803 57.271 62.608 55.541 61.422 53.805 C59.37 51.2 56.793 49.746 54 48 C52.311 46.356 50.642 44.691 49 43 C49.075 43.595 49.15 44.19 49.228 44.803 C50.197 52.53 51.106 60.264 52 68 C52.136 69.168 52.272 70.336 52.412 71.539 C54.646 91.117 55.452 110.406 55.323 130.1 C55.309 132.945 55.314 135.79 55.32 138.635 C55.324 142.063 55.312 145.49 55.301 148.918 C55.302 150.178 55.303 151.438 55.304 152.737 C55.294 153.898 55.284 155.059 55.275 156.255 C55.27 157.271 55.265 158.288 55.261 159.336 C54.992 162.081 54.303 163.609 53 166 C52.613 168.325 52.27 170.659 52 173 C51.01 173.33 50.02 173.66 49 174 C48.492 171.793 47.994 169.585 47.5 167.375 C47.082 165.53 47.082 165.53 46.656 163.648 C46.059 160.328 45.876 157.361 46 154 C45.34 154.33 44.68 154.66 44 155 C41.968 150.666 41.479 146.714 41 142 C39.691 141.653 38.377 141.324 37.062 141 C36.332 140.814 35.601 140.629 34.848 140.438 C27.488 139.307 20.125 140.19 12.785 141.094 C11.848 141.205 10.911 141.316 9.946 141.43 C6.984 141.782 4.023 142.141 1.062 142.5 C-1.923 142.858 -4.91 143.214 -7.896 143.57 C-9.747 143.791 -11.598 144.013 -13.448 144.238 C-14.28 144.338 -15.112 144.438 -15.969 144.541 C-16.701 144.63 -17.433 144.719 -18.188 144.81 C-20 145 -20 145 -22 145 C-21.795 145.534 -21.59 146.067 -21.379 146.617 C-18.593 154.322 -16.355 162.253 -19.871 170.059 C-24.107 177.343 -29.78 182.71 -38 185 C-47.001 186.377 -55.488 186.235 -63.051 180.688 C-69.603 175.015 -71.842 169.502 -73 161 C-72.951 157.598 -72.614 154.344 -72 151 C-72.99 151.33 -73.98 151.66 -75 152 C-76.682 152.225 -78.37 152.413 -80.059 152.578 C-93.069 153.941 -105.508 155.929 -118.107 159.475 C-120.063 160.018 -122.028 160.515 -124 161 C-124.495 162.98 -124.495 162.98 -125 165 C-125.66 165 -126.32 165 -127 165 C-127.838 160.345 -128.016 156.629 -127 152 C-126.67 152 -126.34 152 -126 152 C-125.67 153.98 -125.34 155.96 -125 158 C-118.07 156.02 -118.07 156.02 -111 154 C-111 154.66 -111 155.32 -111 156 C-107.597 154.941 -104.986 153.991 -102 152 C-99.243 151.418 -96.531 150.927 -93.75 150.5 C-92.954 150.37 -92.158 150.239 -91.337 150.105 C-87.438 149.479 -83.548 148.929 -79.617 148.539 C-78.942 148.468 -78.267 148.396 -77.571 148.322 C-75.729 148.136 -73.884 147.977 -72.039 147.82 C-68.185 146.78 -67.229 145.229 -65 142 C-60.058 137.542 -54.799 135.162 -48.062 134.875 C-47.382 134.916 -46.701 134.958 -46 135 C-46.165 134.319 -46.33 133.639 -46.5 132.938 C-48.23 122.776 -44.753 115.984 -39.562 107.602 C-35.026 100.708 -35.026 100.708 -33 93 C-33.887 92.319 -34.774 91.639 -35.688 90.938 C-40.987 86.557 -43.613 82.052 -44.484 75.176 C-44.905 67.127 -44.093 60.548 -39 54 C-38.34 54 -37.68 54 -37 54 C-36.78 53.407 -36.559 52.814 -36.332 52.203 C-33.514 47.543 -27.946 45.756 -23 44 C-13.909 42.46 -6.922 44.555 1 49 C1 49.66 1 50.32 1 51 C1.99 51.33 2.98 51.66 4 52 C4 52.66 4 53.32 4 54 C4.66 54 5.32 54 6 54 C10.672 60.256 11.589 65.106 10.664 72.824 C9.742 77.236 8.183 81.07 6 85 C5.34 84.67 4.68 84.34 4 84 C4.289 83.443 4.577 82.886 4.875 82.312 C7.52 76.876 8.439 73.033 8 67 C6.68 68.98 5.36 70.96 4 73 C4 72.01 4 71.02 4 70 C3.42 70.133 2.84 70.266 2.242 70.402 C-2.158 71.397 -6.539 72.314 -11 73 C-5.655 69.436 -0.501 67.512 6 68 C6.384 63.196 6.48 59.91 4.188 55.562 C1.759 52.717 0.088 51.207 -3.625 50.5 C-4.409 50.335 -5.192 50.17 -6 50 C-6.33 49.34 -6.66 48.68 -7 48 C-7 48.99 -7 49.98 -7 51 C-7.99 51.33 -8.98 51.66 -10 52 C-11.209 54 -11.209 54 -12 56 C-13.485 55.505 -13.485 55.505 -15 55 C-16.874 61.459 -18.431 67.845 -19.473 74.492 C-20 77 -20 77 -22 82 C-17.71 81.67 -13.42 81.34 -9 81 C-11 83 -11 83 -13.82 83.195 C-14.911 83.172 -16.001 83.149 -17.125 83.125 C-18.221 83.107 -19.316 83.089 -20.445 83.07 C-21.288 83.047 -22.131 83.024 -23 83 C-23.124 84.114 -23.248 85.228 -23.375 86.375 C-24 90 -24 90 -26 92 C-19.04 94.099 -14.234 93.997 -7.348 91.629 C-5 91 -5 91 -2 92 C-3.79 92.671 -5.582 93.336 -7.375 94 C-8.373 94.371 -9.37 94.743 -10.398 95.125 C-13 96 -13 96 -15 96 C-15 96.66 -15 97.32 -15 98 C-24.41 97.036 -24.41 97.036 -29 96 C-29.082 96.66 -29.165 97.32 -29.25 98 C-31.149 105.596 -36.467 116.467 -42 122 C-42.235 124.183 -42.414 126.372 -42.562 128.562 C-42.688 130.359 -42.688 130.359 -42.816 132.191 C-42.877 133.118 -42.938 134.045 -43 135 C-41.989 134.938 -40.979 134.876 -39.938 134.812 C-35.445 135.026 -32.989 136.046 -29 138 C-29 138.66 -29 139.32 -29 140 C-28.196 140.309 -27.391 140.619 -26.562 140.938 C-24 142 -24 142 -23 143 C-23 142.67 -23 142.34 -23 142 C-13.793 140.495 -4.576 139.293 4.694 138.263 C7.094 137.989 9.49 137.693 11.887 137.395 C33.659 134.769 33.659 134.769 43 139 C45.035 141.035 44.925 144.802 45.402 147.555 C45.91 150.235 45.91 150.235 48 153 C48.818 155.64 49.381 158.303 50 161 C50.669 152.857 49.702 146.224 47.5 138.438 C45.417 130.851 44.668 124.141 44.878 116.302 C45.467 92.325 42.373 68.124 39.902 44.309 C39.826 43.571 39.75 42.834 39.672 42.075 C39.321 38.74 38.918 35.425 38.444 32.106 C38 29 38 29 38 27 C37.444 24.845 37.444 24.845 36 23 C33.352 22.296 33.352 22.296 30.375 22.25 C28.871 22.165 28.871 22.165 27.336 22.078 C26.18 22.039 26.18 22.039 25 22 C25 22.66 25 23.32 25 24 C22.36 24.66 19.72 25.32 17 26 C17 26.33 17 26.66 17 27 C12.792 27.626 8.583 28.25 4.375 28.875 C3.205 29.049 2.034 29.223 0.828 29.402 C-9.508 30.936 -19.852 32.413 -30.197 33.878 C-33.861 34.397 -37.524 34.917 -41.188 35.438 C-41.961 35.547 -42.734 35.657 -43.531 35.77 C-51.949 36.968 -60.359 38.185 -68.75 39.562 C-76.57 40.815 -84.402 41.985 -92.246 43.075 C-93.653 43.273 -95.06 43.478 -96.465 43.689 C-98.44 43.984 -100.419 44.254 -102.398 44.523 C-103.55 44.688 -104.702 44.852 -105.888 45.021 C-109.524 44.996 -111.049 44.023 -114 42 C-116.499 41.815 -116.499 41.815 -119.062 42.25 C-120.011 42.366 -120.96 42.482 -121.938 42.602 C-123.453 42.799 -123.453 42.799 -125 43 C-127.186 43.222 -129.374 43.43 -131.562 43.625 C-132.554 43.72 -133.545 43.816 -134.566 43.914 C-137 44 -137 44 -139 43 C-138.67 42.34 -138.34 41.68 -138 41 C-137.18 41.012 -136.36 41.023 -135.516 41.035 C-134.438 41.044 -133.36 41.053 -132.25 41.062 C-131.183 41.074 -130.115 41.086 -129.016 41.098 C-126.438 41.014 -124.46 40.667 -122 40 C-119.667 39.961 -117.333 39.955 -115 40 C-115.266 39.336 -115.531 38.672 -115.805 37.988 C-117.536 33.659 -119.268 29.329 -121 25 C-119.35 26.32 -117.7 27.64 -116 29 C-115.01 28.34 -114.02 27.68 -113 27 C-113.557 26.361 -114.114 25.721 -114.688 25.062 C-117.563 21.254 -119.764 17.206 -122 13 C-123.65 13.33 -125.3 13.66 -127 14 C-126.34 15.65 -125.68 17.3 -125 19 C-127.648 16.422 -129.944 14.084 -132 11 C-132 10.01 -132 9.02 -132 8 C-132.66 8 -133.32 8 -134 8 C-133.67 7.34 -133.34 6.68 -133 6 C-132.34 6 -131.68 6 -131 6 C-131 7.32 -131 8.64 -131 10 C-130.301 9.916 -129.603 9.832 -128.883 9.746 C-127.973 9.644 -127.063 9.542 -126.125 9.438 C-125.22 9.333 -124.315 9.229 -123.383 9.121 C-121 9 -121 9 -119 10 C-117.93 11.996 -117.93 11.996 -116.875 14.438 C-116.522 15.241 -116.169 16.044 -115.805 16.871 C-115 19 -115 19 -115 21 C-114.34 21 -113.68 21 -113 21 C-112.711 21.639 -112.422 22.279 -112.125 22.938 C-111.172 25.152 -111.172 25.152 -109 26 C-109 26.99 -109 27.98 -109 29 C-110.98 29.66 -112.96 30.32 -115 31 C-113.881 34.726 -113.881 34.726 -111 37 C-108.448 36.968 -105.943 36.869 -103.398 36.703 C-102.257 36.632 -102.257 36.632 -101.093 36.559 C-93.208 36.018 -85.435 34.933 -77.625 33.75 C-76.122 33.528 -74.619 33.307 -73.116 33.087 C-69.995 32.628 -66.874 32.167 -63.753 31.703 C-56.67 30.652 -49.582 29.643 -42.494 28.633 C-40.325 28.323 -38.156 28.012 -35.987 27.7 C-28.064 26.564 -20.136 25.478 -12.198 24.454 C-8.066 23.89 -8.066 23.89 -4 23 C-2.885 20.771 -2.836 19.446 -2.754 16.973 C-2.705 15.784 -2.705 15.784 -2.654 14.572 C-2.593 12.903 -2.536 11.234 -2.482 9.564 C-2.448 8.771 -2.414 7.978 -2.379 7.16 C-2.341 6.072 -2.341 6.072 -2.303 4.961 C-2 3 -2 3 0 0 Z " fill="#1C1C1C" transform="translate(233,96)"/>
<path d="M0 0 C0.99 1.485 0.99 1.485 2 3 C1.67 3.66 1.34 4.32 1 5 C1.99 5 2.98 5 4 5 C4 6.32 4 7.64 4 9 C4.495 8.67 4.99 8.34 5.5 8 C9.206 6.517 12.011 6.678 16 7 C17.873 9.81 18.529 11.492 19.332 14.691 C19.571 15.627 19.809 16.563 20.055 17.527 C20.43 19.029 20.43 19.029 20.812 20.562 C21.348 22.66 21.884 24.758 22.422 26.855 C22.688 27.898 22.954 28.94 23.229 30.013 C24.296 34.146 25.417 38.263 26.562 42.375 C26.86 43.45 26.86 43.45 27.164 44.546 C28.202 48.261 29.285 51.958 30.422 55.645 C30.654 56.407 30.887 57.169 31.127 57.954 C31.568 59.391 32.017 60.826 32.477 62.257 C33.816 66.622 34.207 70.446 34 75 C29.545 75.495 29.545 75.495 25 76 C25.33 76.33 25.66 76.66 26 77 C26.995 78.766 27.989 80.532 28.965 82.309 C30.012 84.168 30.012 84.168 32 86 C31.34 84.68 30.68 83.36 30 82 C31.98 81.67 33.96 81.34 36 81 C36.315 81.508 36.629 82.016 36.953 82.539 C37.381 83.227 37.809 83.916 38.25 84.625 C38.702 85.353 39.155 86.082 39.621 86.832 C40.807 88.697 42.042 90.505 43.312 92.312 C45 95 45 95 45 98 C43.188 98.687 43.188 98.687 41 99 C39.363 97.52 39.363 97.52 38 96 C38.361 96.603 38.722 97.207 39.094 97.828 C39.558 98.627 40.022 99.427 40.5 100.25 C41.196 101.433 41.196 101.433 41.906 102.641 C43 105 43 105 43 109 C34.689 110.832 25.271 112.757 17 110 C15.316 108.109 15.316 108.109 13.562 105.75 C12.949 104.933 12.335 104.115 11.703 103.273 C11.141 102.523 10.579 101.773 10 101 C9.278 100.134 8.556 99.267 7.812 98.375 C2 90.759 2 90.759 2 87 C1.34 87 0.68 87 0 87 C-7.42 70.615 -7.42 70.615 -9.297 63.309 C-10.058 60.811 -11.088 58.484 -12.135 56.095 C-13.923 51.766 -15.363 47.306 -16.875 42.875 C-20.487 28.301 -20.487 28.301 -28 17 C-30.21 17.039 -32.42 17.157 -34.625 17.312 C-35.286 17.358 -35.947 17.404 -36.627 17.451 C-41.574 17.82 -46.463 18.442 -51.375 19.125 C-57.143 19.921 -62.253 20.026 -68 19 C-67.242 19.94 -67.242 19.94 -66.469 20.898 C-65.819 21.716 -65.169 22.533 -64.5 23.375 C-63.85 24.187 -63.201 24.999 -62.531 25.836 C-61 28 -61 28 -61 30 C-60.34 30 -59.68 30 -59 30 C-57.492 31.969 -57.492 31.969 -55.875 34.5 C-55.067 35.753 -55.067 35.753 -54.242 37.031 C-53.832 37.681 -53.422 38.331 -53 39 C-53.99 39.495 -53.99 39.495 -55 40 C-55.839 38.879 -56.671 37.753 -57.5 36.625 C-57.964 35.999 -58.428 35.372 -58.906 34.727 C-60 33 -60 33 -60 31 C-60.66 31 -61.32 31 -62 31 C-66.217 26.618 -69.839 22.297 -70 16 C-69.67 16.66 -69.34 17.32 -69 18 C-48.163 18.348 -48.163 18.348 -29 12 C-26.89 11.549 -24.761 11.183 -22.625 10.875 C-20.943 10.624 -20.943 10.624 -19.227 10.367 C-16.442 10.05 -13.797 9.927 -11 10 C-11 9.34 -11 8.68 -11 8 C-14.3 8 -17.6 8 -21 8 C-21 7.67 -21 7.34 -21 7 C-19.32 6.727 -19.32 6.727 -17.605 6.449 C-16.133 6.196 -14.66 5.942 -13.188 5.688 C-12.45 5.57 -11.712 5.452 -10.951 5.33 C-5.733 4.467 -5.733 4.467 -2 1 C-3.196 1.33 -4.392 1.66 -5.625 2 C-9.158 2.893 -12.341 3.183 -16 3 C-16 2.67 -16 2.34 -16 2 C-10.642 0.639 -5.567 -0.568 0 0 Z " fill="#E8E8E8" transform="translate(75,27)"/>
<path d="M0 0 C4.823 -0.673 7.336 0.408 11.188 3.25 C12.027 3.853 12.866 4.457 13.73 5.078 C16 7 16 7 17.547 9.117 C19.247 11.32 20.485 11.893 23.062 12.875 C30.685 16.046 37.372 19.89 43 26 C43.928 26.701 44.856 27.403 45.812 28.125 C46.534 28.744 47.256 29.362 48 30 C48 30.99 48 31.98 48 33 C48.66 33 49.32 33 50 33 C50.619 34.361 50.619 34.361 51.25 35.75 C52.934 38.878 54.405 40.634 57 43 C58.667 44.667 60.333 46.333 62 48 C62.763 48.722 63.526 49.444 64.312 50.188 C66 52 66 52 66 54 C66.99 54.33 67.98 54.66 69 55 C69.474 55.495 69.949 55.99 70.438 56.5 C71.882 58.166 71.882 58.166 73.949 58.344 C76 59 76 59 77.273 60.75 C77.637 61.493 78 62.235 78.375 63 C80.529 67.188 82.964 71.007 85.668 74.859 C87.1 77.161 88.064 79.461 89 82 C87.757 82.844 86.506 83.675 85.25 84.5 C84.554 84.964 83.858 85.428 83.141 85.906 C81 87 81 87 77 87 C73.539 80.724 70.16 74.433 67 68 C66.334 66.666 65.668 65.333 65 64 C65.66 63.01 66.32 62.02 67 61 C67 60.34 67 59.68 67 59 C66.34 59 65.68 59 65 59 C63.803 57.271 62.608 55.541 61.422 53.805 C59.37 51.2 56.793 49.746 54 48 C52.311 46.356 50.642 44.691 49 43 C49.075 43.595 49.15 44.19 49.228 44.803 C50.197 52.53 51.106 60.264 52 68 C52.136 69.168 52.272 70.336 52.412 71.539 C54.646 91.117 55.452 110.406 55.323 130.1 C55.309 132.945 55.314 135.79 55.32 138.635 C55.324 142.063 55.312 145.49 55.301 148.918 C55.302 150.178 55.303 151.438 55.304 152.737 C55.294 153.898 55.284 155.059 55.275 156.255 C55.27 157.271 55.265 158.288 55.261 159.336 C54.992 162.081 54.303 163.609 53 166 C52.613 168.325 52.27 170.659 52 173 C51.01 173.33 50.02 173.66 49 174 C48.492 171.793 47.994 169.585 47.5 167.375 C47.082 165.53 47.082 165.53 46.656 163.648 C46.059 160.328 45.876 157.361 46 154 C45.34 154.33 44.68 154.66 44 155 C43.67 153.68 43.34 152.36 43 151 C43.99 150.67 44.98 150.34 46 150 C48.458 153.687 49.012 156.697 50 161 C50.669 152.857 49.702 146.224 47.5 138.438 C45.417 130.851 44.668 124.141 44.878 116.302 C45.467 92.325 42.373 68.124 39.902 44.309 C39.826 43.571 39.75 42.834 39.672 42.075 C39.321 38.74 38.918 35.425 38.444 32.106 C38 29 38 29 38 27 C37.444 24.845 37.444 24.845 36 23 C33.352 22.296 33.352 22.296 30.375 22.25 C28.871 22.165 28.871 22.165 27.336 22.078 C26.18 22.039 26.18 22.039 25 22 C25 22.66 25 23.32 25 24 C22.36 24.66 19.72 25.32 17 26 C17 26.33 17 26.66 17 27 C12.792 27.626 8.583 28.25 4.375 28.875 C3.205 29.049 2.034 29.223 0.828 29.402 C-9.508 30.936 -19.852 32.413 -30.197 33.878 C-33.861 34.397 -37.524 34.917 -41.188 35.438 C-41.961 35.547 -42.734 35.657 -43.531 35.77 C-51.949 36.968 -60.359 38.185 -68.75 39.562 C-76.57 40.815 -84.402 41.985 -92.246 43.075 C-93.653 43.273 -95.06 43.478 -96.465 43.689 C-98.44 43.984 -100.419 44.254 -102.398 44.523 C-103.55 44.688 -104.702 44.852 -105.888 45.021 C-109.524 44.996 -111.049 44.023 -114 42 C-116.499 41.815 -116.499 41.815 -119.062 42.25 C-120.011 42.366 -120.96 42.482 -121.938 42.602 C-123.453 42.799 -123.453 42.799 -125 43 C-127.186 43.222 -129.374 43.43 -131.562 43.625 C-132.554 43.72 -133.545 43.816 -134.566 43.914 C-137 44 -137 44 -139 43 C-138.67 42.34 -138.34 41.68 -138 41 C-137.18 41.012 -136.36 41.023 -135.516 41.035 C-134.438 41.044 -133.36 41.053 -132.25 41.062 C-131.183 41.074 -130.115 41.086 -129.016 41.098 C-126.438 41.014 -124.46 40.667 -122 40 C-119.667 39.961 -117.333 39.955 -115 40 C-115.266 39.336 -115.531 38.672 -115.805 37.988 C-117.536 33.659 -119.268 29.329 -121 25 C-119.35 26.32 -117.7 27.64 -116 29 C-115.01 28.34 -114.02 27.68 -113 27 C-113.557 26.361 -114.114 25.721 -114.688 25.062 C-117.563 21.254 -119.764 17.206 -122 13 C-123.65 13.33 -125.3 13.66 -127 14 C-126.34 15.65 -125.68 17.3 -125 19 C-127.648 16.422 -129.944 14.084 -132 11 C-132 10.01 -132 9.02 -132 8 C-132.66 8 -133.32 8 -134 8 C-133.67 7.34 -133.34 6.68 -133 6 C-132.34 6 -131.68 6 -131 6 C-131 7.32 -131 8.64 -131 10 C-130.301 9.916 -129.603 9.832 -128.883 9.746 C-127.973 9.644 -127.063 9.542 -126.125 9.438 C-125.22 9.333 -124.315 9.229 -123.383 9.121 C-121 9 -121 9 -119 10 C-117.93 11.996 -117.93 11.996 -116.875 14.438 C-116.522 15.241 -116.169 16.044 -115.805 16.871 C-115 19 -115 19 -115 21 C-114.34 21 -113.68 21 -113 21 C-112.711 21.639 -112.422 22.279 -112.125 22.938 C-111.172 25.152 -111.172 25.152 -109 26 C-109 26.99 -109 27.98 -109 29 C-110.98 29.66 -112.96 30.32 -115 31 C-113.881 34.726 -113.881 34.726 -111 37 C-108.448 36.968 -105.943 36.869 -103.398 36.703 C-102.257 36.632 -102.257 36.632 -101.093 36.559 C-93.208 36.018 -85.435 34.933 -77.625 33.75 C-76.122 33.528 -74.619 33.307 -73.116 33.087 C-69.995 32.628 -66.874 32.167 -63.753 31.703 C-56.67 30.652 -49.582 29.643 -42.494 28.633 C-40.325 28.323 -38.156 28.012 -35.987 27.7 C-28.064 26.564 -20.136 25.478 -12.198 24.454 C-8.066 23.89 -8.066 23.89 -4 23 C-2.885 20.771 -2.836 19.446 -2.754 16.973 C-2.705 15.784 -2.705 15.784 -2.654 14.572 C-2.593 12.903 -2.536 11.234 -2.482 9.564 C-2.448 8.771 -2.414 7.978 -2.379 7.16 C-2.341 6.072 -2.341 6.072 -2.303 4.961 C-2 3 -2 3 0 0 Z " fill="#111111" transform="translate(233,96)"/>
<path d="M0 0 C4.823 -0.673 7.336 0.408 11.188 3.25 C12.027 3.853 12.866 4.457 13.73 5.078 C16 7 16 7 17.547 9.117 C19.247 11.32 20.485 11.893 23.062 12.875 C26.649 14.374 30.053 16.02 33.438 17.938 C34.261 18.4 35.085 18.863 35.934 19.34 C38.403 21.324 39.074 23.011 40 26 C39.01 25.67 38.02 25.34 37 25 C36.67 24.34 36.34 23.68 36 23 C33.414 22.532 33.414 22.532 30.438 22.375 C29.426 22.3 28.414 22.225 27.371 22.148 C26.197 22.075 26.197 22.075 25 22 C25 22.66 25 23.32 25 24 C22.36 24.66 19.72 25.32 17 26 C17 26.33 17 26.66 17 27 C12.792 27.626 8.583 28.25 4.375 28.875 C3.205 29.049 2.034 29.223 0.828 29.402 C-9.508 30.936 -19.852 32.413 -30.197 33.878 C-33.861 34.397 -37.524 34.917 -41.188 35.438 C-41.961 35.547 -42.734 35.657 -43.531 35.77 C-51.949 36.968 -60.359 38.185 -68.75 39.562 C-76.57 40.815 -84.402 41.985 -92.246 43.075 C-93.653 43.273 -95.06 43.478 -96.465 43.689 C-98.44 43.984 -100.419 44.254 -102.398 44.523 C-103.55 44.688 -104.702 44.852 -105.888 45.021 C-109.524 44.996 -111.049 44.023 -114 42 C-116.499 41.815 -116.499 41.815 -119.062 42.25 C-120.011 42.366 -120.96 42.482 -121.938 42.602 C-123.453 42.799 -123.453 42.799 -125 43 C-127.186 43.222 -129.374 43.43 -131.562 43.625 C-132.554 43.72 -133.545 43.816 -134.566 43.914 C-137 44 -137 44 -139 43 C-138.67 42.34 -138.34 41.68 -138 41 C-137.18 41.012 -136.36 41.023 -135.516 41.035 C-134.438 41.044 -133.36 41.053 -132.25 41.062 C-131.183 41.074 -130.115 41.086 -129.016 41.098 C-126.438 41.014 -124.46 40.667 -122 40 C-119.667 39.961 -117.333 39.955 -115 40 C-115.266 39.336 -115.531 38.672 -115.805 37.988 C-117.536 33.659 -119.268 29.329 -121 25 C-119.35 26.32 -117.7 27.64 -116 29 C-115.01 28.34 -114.02 27.68 -113 27 C-113.557 26.361 -114.114 25.721 -114.688 25.062 C-117.563 21.254 -119.764 17.206 -122 13 C-123.65 13.33 -125.3 13.66 -127 14 C-126.34 15.65 -125.68 17.3 -125 19 C-127.648 16.422 -129.944 14.084 -132 11 C-132 10.01 -132 9.02 -132 8 C-132.66 8 -133.32 8 -134 8 C-133.67 7.34 -133.34 6.68 -133 6 C-132.34 6 -131.68 6 -131 6 C-131 7.32 -131 8.64 -131 10 C-130.301 9.916 -129.603 9.832 -128.883 9.746 C-127.973 9.644 -127.063 9.542 -126.125 9.438 C-125.22 9.333 -124.315 9.229 -123.383 9.121 C-121 9 -121 9 -119 10 C-117.93 11.996 -117.93 11.996 -116.875 14.438 C-116.522 15.241 -116.169 16.044 -115.805 16.871 C-115 19 -115 19 -115 21 C-114.34 21 -113.68 21 -113 21 C-112.711 21.639 -112.422 22.279 -112.125 22.938 C-111.172 25.152 -111.172 25.152 -109 26 C-109 26.99 -109 27.98 -109 29 C-110.98 29.66 -112.96 30.32 -115 31 C-113.881 34.726 -113.881 34.726 -111 37 C-108.448 36.968 -105.943 36.869 -103.398 36.703 C-102.257 36.632 -102.257 36.632 -101.093 36.559 C-93.208 36.018 -85.435 34.933 -77.625 33.75 C-76.122 33.528 -74.619 33.307 -73.116 33.087 C-69.995 32.628 -66.874 32.167 -63.753 31.703 C-56.67 30.652 -49.582 29.643 -42.494 28.633 C-40.325 28.323 -38.156 28.012 -35.987 27.7 C-28.064 26.564 -20.136 25.478 -12.198 24.454 C-8.066 23.89 -8.066 23.89 -4 23 C-2.885 20.771 -2.836 19.446 -2.754 16.973 C-2.705 15.784 -2.705 15.784 -2.654 14.572 C-2.593 12.903 -2.536 11.234 -2.482 9.564 C-2.448 8.771 -2.414 7.978 -2.379 7.16 C-2.341 6.072 -2.341 6.072 -2.303 4.961 C-2 3 -2 3 0 0 Z " fill="#000000" transform="translate(233,96)"/>
<path d="M0 0 C1.575 0.809 3.143 1.633 4.688 2.5 C4.688 3.16 4.688 3.82 4.688 4.5 C5.678 4.83 6.667 5.16 7.688 5.5 C7.688 6.16 7.688 6.82 7.688 7.5 C8.347 7.5 9.007 7.5 9.688 7.5 C14.359 13.756 15.277 18.606 14.352 26.324 C13.429 30.736 11.871 34.57 9.688 38.5 C8.697 38.005 8.697 38.005 7.688 37.5 C7.976 36.943 8.265 36.386 8.562 35.812 C11.207 30.376 12.126 26.533 11.688 20.5 C9.707 23.47 9.707 23.47 7.688 26.5 C7.688 25.51 7.688 24.52 7.688 23.5 C6.817 23.699 6.817 23.699 5.93 23.902 C1.53 24.897 -2.851 25.814 -7.312 26.5 C-1.967 22.936 3.187 21.012 9.688 21.5 C10.072 16.696 10.167 13.41 7.875 9.062 C5.446 6.217 3.776 4.707 0.062 4 C-0.721 3.835 -1.505 3.67 -2.312 3.5 C-2.808 2.51 -2.808 2.51 -3.312 1.5 C-3.312 2.49 -3.312 3.48 -3.312 4.5 C-4.303 4.83 -5.292 5.16 -6.312 5.5 C-7.521 7.5 -7.521 7.5 -8.312 9.5 C-9.303 9.17 -10.292 8.84 -11.312 8.5 C-13.186 14.959 -14.743 21.345 -15.785 27.992 C-16.312 30.5 -16.312 30.5 -18.312 35.5 C-11.877 35.005 -11.877 35.005 -5.312 34.5 C-7.312 36.5 -7.312 36.5 -10.133 36.695 C-11.769 36.661 -11.769 36.661 -13.438 36.625 C-14.533 36.607 -15.629 36.589 -16.758 36.57 C-17.601 36.547 -18.444 36.524 -19.312 36.5 C-19.436 37.614 -19.56 38.727 -19.688 39.875 C-20.312 43.5 -20.312 43.5 -22.312 45.5 C-15.352 47.599 -10.546 47.497 -3.66 45.129 C-1.312 44.5 -1.312 44.5 1.688 45.5 C-0.103 46.171 -1.895 46.836 -3.688 47.5 C-4.685 47.871 -5.683 48.243 -6.711 48.625 C-9.312 49.5 -9.312 49.5 -11.312 49.5 C-11.312 50.16 -11.312 50.82 -11.312 51.5 C-20.723 50.536 -20.723 50.536 -25.312 49.5 C-25.436 50.49 -25.436 50.49 -25.562 51.5 C-27.462 59.096 -32.779 69.967 -38.312 75.5 C-38.546 77.349 -38.726 79.205 -38.875 81.062 C-39.001 82.58 -39.001 82.58 -39.129 84.129 C-39.189 84.911 -39.25 85.694 -39.312 86.5 C-40.798 86.995 -40.798 86.995 -42.312 87.5 C-44.466 80.771 -43.335 74.736 -40.312 68.5 C-38.884 66 -37.391 63.55 -35.875 61.102 C-31.339 54.208 -31.339 54.208 -29.312 46.5 C-30.199 45.819 -31.086 45.139 -32 44.438 C-37.3 40.057 -39.926 35.552 -40.797 28.676 C-41.217 20.627 -40.405 14.048 -35.312 7.5 C-34.653 7.5 -33.993 7.5 -33.312 7.5 C-33.092 6.907 -32.872 6.314 -32.645 5.703 C-26.17 -5.006 -9.9 -4.43 0 0 Z " fill="#121212" transform="translate(229.3125,142.5)"/>
<path d="M0 0 C2 0 2 0 4.546 2.093 C7.38 5.45 7.794 7.193 8.258 11.512 C8.407 12.807 8.556 14.102 8.71 15.437 C8.85 16.854 8.988 18.271 9.125 19.688 C9.283 21.185 9.442 22.683 9.603 24.18 C9.93 27.282 10.243 30.386 10.546 33.491 C10.947 37.557 11.424 41.611 11.914 45.668 C14.01 64.241 14.291 82.785 14.31 101.458 C14.312 103.498 14.318 105.537 14.323 107.577 C14.329 111.416 14.318 115.255 14.301 119.094 C14.302 120.266 14.302 121.438 14.303 122.646 C14.294 123.719 14.284 124.791 14.275 125.896 C14.27 126.838 14.265 127.779 14.261 128.748 C14 131 14 131 12 133 C12.035 132.36 12.07 131.721 12.105 131.062 C12.342 123.195 10.877 116.291 9 108.688 C6.558 98.086 5.591 88.514 5.906 77.688 C6.448 57.425 3.475 36.873 1.321 16.746 C1.234 15.929 1.147 15.112 1.058 14.27 C0.893 12.733 0.727 11.196 0.559 9.659 C0.21 6.407 0 3.277 0 0 Z " fill="#FFFFFF" transform="translate(273,127)"/>
<path d="M0 0 C-0.33 1.65 -0.66 3.3 -1 5 C-1.818 4.658 -1.818 4.658 -2.652 4.309 C-11.046 1.109 -17.634 2.33 -26 5 C-22.62 5 -20.165 4.125 -17 3 C-16.67 5.97 -16.34 8.94 -16 12 C-15.031 12.268 -14.061 12.536 -13.062 12.812 C-12.052 13.204 -11.041 13.596 -10 14 C-9.67 14.99 -9.34 15.98 -9 17 C-10.438 19.188 -10.438 19.188 -12 21 C-13.98 20.67 -15.96 20.34 -18 20 C-18.66 20.99 -19.32 21.98 -20 23 C-19.34 23 -18.68 23 -18 23 C-17.67 22.34 -17.34 21.68 -17 21 C-16.34 21.33 -15.68 21.66 -15 22 C-15.688 24.438 -15.688 24.438 -17 27 C-19.625 27.812 -19.625 27.812 -22 28 C-22 28.99 -22 29.98 -22 31 C-25.125 32.25 -25.125 32.25 -29 33 C-34.4 30.2 -34.4 30.2 -36 27 C-36.99 26.34 -37.98 25.68 -39 25 C-39 24.01 -39 23.02 -39 22 C-39.058 21.346 -39.116 20.693 -39.176 20.02 C-39.568 13.687 -38.039 9.858 -34 5 C-25.205 -4.302 -11.157 -6.498 0 0 Z " fill="#F2F2F2" transform="translate(204,244)"/>
<path d="M0 0 C5.163 1.924 8.289 3.774 12 8 C12.897 8.928 12.897 8.928 13.812 9.875 C15.538 12.964 15.257 15.53 15 19 C14.67 19.66 14.34 20.32 14 21 C11.277 21.852 11.277 21.852 7.938 22.625 C6.833 22.885 5.728 23.146 4.59 23.414 C3.735 23.607 2.881 23.801 2 24 C9.429 21.571 9.429 21.571 13 23 C8.569 28.785 8.569 28.785 5.688 29.875 C5.131 29.916 4.574 29.958 4 30 C4 30.66 4 31.32 4 32 C-2.243 34.775 -7.198 35.376 -14 35 C-13.393 29.429 -12.441 24.116 -11.062 18.688 C-10.893 17.986 -10.723 17.284 -10.549 16.561 C-9.716 13.24 -8.918 10.877 -7 8 C-6.361 7.917 -5.721 7.835 -5.062 7.75 C-2.54 7.102 -2.54 7.102 -1.25 3.438 C-0.838 2.303 -0.425 1.169 0 0 Z " fill="#F7F7F7" transform="translate(225,143)"/>
<path d="M0 0 C3.875 3.75 3.875 3.75 5 6 C6.644 6.722 8.311 7.394 10 8 C9.01 9.485 9.01 9.485 8 11 C7.635 13.329 7.306 15.663 7 18 C6.394 20.686 5.701 23.337 5 26 C4.34 25.67 3.68 25.34 3 25 C3.33 26.98 3.66 28.96 4 31 C1.509 32.245 0.589 31.777 -2 31 C-0.68 31.66 0.64 32.32 2 33 C1.01 36.3 0.02 39.6 -1 43 C-7.572 39.485 -10.525 34.503 -12.824 27.484 C-13.923 23.146 -13.923 23.146 -14 21 C-13.34 20.34 -12.68 19.68 -12 19 C-12.33 18.01 -12.66 17.02 -13 16 C-12.223 13.738 -12.223 13.738 -11.062 11.312 C-10.682 10.504 -10.302 9.696 -9.91 8.863 C-9.61 8.248 -9.309 7.634 -9 7 C-8.34 7 -7.68 7 -7 7 C-6.773 6.402 -6.546 5.804 -6.312 5.188 C-4.662 2.436 -2.803 1.475 0 0 Z " fill="#E2E2E2" transform="translate(204,144)"/>
<path d="M0 0 C0.976 0.009 1.952 0.018 2.957 0.027 C4.061 0.045 4.061 0.045 5.188 0.062 C1.397 2.192 -1.47 2.23 -5.812 2.062 C-5.812 2.722 -5.812 3.382 -5.812 4.062 C-14.011 6.061 -22.195 7.005 -30.574 7.918 C-32.162 8.098 -32.162 8.098 -33.781 8.281 C-35.196 8.435 -35.196 8.435 -36.639 8.592 C-39.189 8.97 -41.617 9.455 -44.123 10.035 C-48.683 11.076 -53.23 11.726 -57.871 12.281 C-59.115 12.436 -59.115 12.436 -60.384 12.595 C-63.005 12.921 -65.628 13.243 -68.25 13.562 C-81.931 15.165 -81.931 15.165 -95.479 17.603 C-100.442 18.581 -105.479 19.099 -110.5 19.688 C-112.133 19.889 -112.133 19.889 -113.799 20.094 C-124.949 21.422 -124.949 21.422 -129.812 21.062 C-131.75 19.062 -131.75 19.062 -132.812 17.062 C-130.812 16.062 -130.812 16.062 -128.684 16.574 C-124.912 17.216 -121.589 16.55 -117.875 15.875 C-109.542 14.461 -101.194 13.28 -92.812 12.188 C-81.654 10.725 -70.513 9.174 -59.375 7.562 C-46.43 5.69 -33.473 3.945 -20.494 2.318 C-18.691 2.091 -18.691 2.091 -16.852 1.859 C-15.802 1.729 -14.752 1.598 -13.67 1.464 C-11.811 1.203 -9.957 0.89 -8.116 0.519 C-5.368 -0.026 -2.799 -0.034 0 0 Z " fill="#FFFFFF" transform="translate(251.8125,117.9375)"/>
<path d="M0 0 C-1 3 -1 3 -3.109 4.219 C-3.981 4.642 -4.852 5.064 -5.75 5.5 C-12.855 9.535 -14.534 15.601 -17 23 C-16.34 23 -15.68 23 -15 23 C-15 21.68 -15 20.36 -15 19 C-14.34 19 -13.68 19 -13 19 C-12.959 18.443 -12.917 17.886 -12.875 17.312 C-11.51 13.706 -9.089 12.27 -6 10 C-5.34 10 -4.68 10 -4 10 C-4 9.34 -4 8.68 -4 8 C3.061 4.677 9.272 4.682 17 5 C16.34 5.99 15.68 6.98 15 8 C12.75 8.336 12.75 8.336 10 8.375 C3.226 8.828 -2.592 10.88 -7.664 15.523 C-11.677 20.146 -13.27 23.667 -13.125 29.75 C-13.107 30.735 -13.089 31.72 -13.07 32.734 C-13.047 33.482 -13.024 34.23 -13 35 C-12.01 35.495 -12.01 35.495 -11 36 C-13.475 36.495 -13.475 36.495 -16 37 C-16.124 36.34 -16.248 35.68 -16.375 35 C-16.982 31.859 -16.982 31.859 -18.125 28.312 C-19.389 23.45 -18.745 18.91 -18 14 C-18.99 14.33 -19.98 14.66 -21 15 C-22.682 15.225 -24.37 15.413 -26.059 15.578 C-39.069 16.941 -51.508 18.929 -64.107 22.475 C-66.063 23.018 -68.028 23.515 -70 24 C-70.33 25.32 -70.66 26.64 -71 28 C-71.66 28 -72.32 28 -73 28 C-73.838 23.345 -74.016 19.629 -73 15 C-72.67 15 -72.34 15 -72 15 C-71.67 16.98 -71.34 18.96 -71 21 C-66.38 19.68 -61.76 18.36 -57 17 C-57 17.66 -57 18.32 -57 19 C-53.597 17.941 -50.986 16.991 -48 15 C-45.243 14.418 -42.531 13.927 -39.75 13.5 C-38.954 13.37 -38.158 13.239 -37.337 13.105 C-33.438 12.479 -29.548 11.929 -25.617 11.539 C-24.942 11.468 -24.267 11.396 -23.571 11.322 C-21.729 11.136 -19.884 10.977 -18.039 10.82 C-14.182 9.779 -13.236 8.228 -11 5 C-9.219 3.418 -9.219 3.418 -7.5 2.188 C-6.649 1.559 -6.649 1.559 -5.781 0.918 C-4 0 -4 0 0 0 Z " fill="#010101" transform="translate(179,233)"/>
<path d="M0 0 C1.858 3.135 2.201 5.375 2 9 C2.969 9.268 3.939 9.536 4.938 9.812 C5.948 10.204 6.959 10.596 8 11 C8.33 11.99 8.66 12.98 9 14 C7.562 16.188 7.562 16.188 6 18 C4.02 17.67 2.04 17.34 0 17 C-0.66 17.99 -1.32 18.98 -2 20 C-1.34 20 -0.68 20 0 20 C0.33 19.34 0.66 18.68 1 18 C1.66 18.33 2.32 18.66 3 19 C2.25 21.438 2.25 21.438 1 24 C-2.127 25.51 -4.719 24.82 -8 24 C-8 23.34 -8 22.68 -8 22 C-8.99 21.67 -9.98 21.34 -11 21 C-13.708 17.437 -13.396 13.264 -13 9 C-12.156 5.623 -10.496 4.54 -7.625 2.812 C-5.128 1.483 -2.818 0.451 0 0 Z " fill="#707070" transform="translate(186,247)"/>
<path d="M0 0 C2 3 2 3 1.438 6.188 C0.951 10.425 1.636 12.359 3.406 16.105 C4.143 18.456 3.708 19.676 3 22 C3 22.99 3 23.98 3 25 C0.138 22.586 -0.674 20.458 -1.625 16.875 C-2.299 13.656 -2.299 13.656 -4 11 C-12.044 11.2 -20.076 12.702 -28 14 C-27.34 14.99 -26.68 15.98 -26 17 C-27.042 17.049 -28.083 17.098 -29.156 17.148 C-36.659 17.531 -44.059 18.072 -51.5 19.125 C-57.312 19.909 -62.235 20.029 -68 19 C-67.242 19.94 -67.242 19.94 -66.469 20.898 C-65.819 21.716 -65.169 22.533 -64.5 23.375 C-63.85 24.187 -63.201 24.999 -62.531 25.836 C-61 28 -61 28 -61 30 C-60.34 30 -59.68 30 -59 30 C-57.492 31.969 -57.492 31.969 -55.875 34.5 C-55.067 35.753 -55.067 35.753 -54.242 37.031 C-53.832 37.681 -53.422 38.331 -53 39 C-53.99 39.495 -53.99 39.495 -55 40 C-55.839 38.879 -56.671 37.753 -57.5 36.625 C-57.964 35.999 -58.428 35.372 -58.906 34.727 C-60 33 -60 33 -60 31 C-60.66 31 -61.32 31 -62 31 C-66.217 26.618 -69.839 22.297 -70 16 C-69.67 16.66 -69.34 17.32 -69 18 C-48.163 18.348 -48.163 18.348 -29 12 C-26.89 11.549 -24.761 11.183 -22.625 10.875 C-20.943 10.624 -20.943 10.624 -19.227 10.367 C-16.442 10.05 -13.797 9.927 -11 10 C-11 9.34 -11 8.68 -11 8 C-14.3 8 -17.6 8 -21 8 C-21 7.67 -21 7.34 -21 7 C-19.32 6.727 -19.32 6.727 -17.605 6.449 C-16.133 6.196 -14.66 5.942 -13.188 5.688 C-12.45 5.57 -11.712 5.452 -10.951 5.33 C-5.733 4.467 -5.733 4.467 -2 1 C-3.196 1.33 -4.392 1.66 -5.625 2 C-9.158 2.893 -12.341 3.183 -16 3 C-16 2.67 -16 2.34 -16 2 C-10.642 0.639 -5.567 -0.568 0 0 Z " fill="#000000" transform="translate(75,27)"/>
<path d="M0 0 C2.323 3.732 2.591 7.627 3 11.902 C3.081 12.684 3.161 13.465 3.244 14.27 C3.505 16.825 3.753 19.381 4 21.938 C4.175 23.71 4.351 25.483 4.526 27.256 C8.262 65.458 8.262 65.458 7.827 80.403 C7.505 91.522 9.236 101.563 11.866 112.373 C13.423 118.812 14.214 124.384 14 131 C14.33 131.99 14.66 132.98 15 134 C14.67 134.33 14.34 134.66 14 135 C13.632 137.328 13.298 139.662 13 142 C12.01 142.33 11.02 142.66 10 143 C9.492 140.793 8.994 138.585 8.5 136.375 C8.222 135.145 7.943 133.915 7.656 132.648 C7.059 129.328 6.876 126.361 7 123 C6.01 123.495 6.01 123.495 5 124 C4.67 122.68 4.34 121.36 4 120 C5.485 119.505 5.485 119.505 7 119 C9.458 122.687 10.012 125.697 11 130 C11.669 121.857 10.702 115.224 8.5 107.438 C6.417 99.851 5.668 93.141 5.878 85.302 C6.068 77.585 5.732 69.953 5.25 62.25 C5.209 61.592 5.168 60.933 5.125 60.255 C4.222 46.149 2.802 32.093 1.321 18.038 C1.234 17.207 1.147 16.376 1.058 15.52 C0.894 13.962 0.728 12.405 0.559 10.848 C0.175 7.215 -0.092 3.654 0 0 Z " fill="#000000" transform="translate(272,127)"/>
<path d="M0 0 C3.412 1.225 5.928 2.517 8.625 4.938 C9.195 5.442 9.765 5.946 10.352 6.465 C12 8 12 8 13.387 9.523 C15.463 11.424 17.655 12.471 20.188 13.688 C21.089 14.124 21.99 14.561 22.918 15.012 C23.605 15.338 24.292 15.664 25 16 C25 16.33 25 16.66 25 17 C23.476 17.073 23.476 17.073 21.922 17.148 C13.493 17.593 5.302 18.381 -3 20 C-2.691 18.742 -2.381 17.484 -2.062 16.188 C-0.859 10.829 -0.388 5.47 0 0 Z " fill="#FFFFFF" transform="translate(235,100)"/>
<path d="M0 0 C0.495 1.485 0.495 1.485 1 3 C-4.369 4.704 -9.528 5.559 -15.125 6.125 C-15.91 6.211 -16.695 6.298 -17.504 6.387 C-21.353 6.796 -25.123 7.109 -29 7 C-29 7.66 -29 8.32 -29 9 C-29.66 9 -30.32 9 -31 9 C-31.33 10.65 -31.66 12.3 -32 14 C-32.66 14 -33.32 14 -34 14 C-34.102 14.715 -34.204 15.431 -34.309 16.168 C-35.084 19.345 -36.33 21.548 -38.062 24.312 C-38.61 25.196 -39.158 26.079 -39.723 26.988 C-40.144 27.652 -40.566 28.316 -41 29 C-40.158 28.879 -39.316 28.758 -38.449 28.633 C-35.298 28.182 -32.146 27.735 -28.994 27.291 C-27.635 27.099 -26.277 26.905 -24.918 26.709 C-22.955 26.426 -20.991 26.151 -19.027 25.875 C-17.849 25.707 -16.671 25.54 -15.457 25.367 C-11.944 24.994 -8.53 24.937 -5 25 C-4.505 23.515 -4.505 23.515 -4 22 C-3.505 22.99 -3.505 22.99 -3 24 C-3.33 24.66 -3.66 25.32 -4 26 C-12.634 28.255 -21.895 28.719 -30.75 29.625 C-32.672 29.826 -32.672 29.826 -34.633 30.031 C-37.755 30.357 -40.877 30.68 -44 31 C-44.33 30.34 -44.66 29.68 -45 29 C-42.561 22.691 -38.799 16.852 -35.234 11.129 C-33.865 8.933 -33.865 8.933 -33 6 C-24.955 0.637 -9.661 0 0 0 Z " fill="#282828" transform="translate(173,183)"/>
<path d="M0 0 C6.535 0.35 11.339 2.173 16.5 6.188 C18.875 8.938 18.875 8.938 20.5 11.188 C20.17 11.847 19.84 12.507 19.5 13.188 C18.133 11.951 16.766 10.714 15.398 9.477 C8.406 4.729 -1.17 5.289 -9.188 6.641 C-10.977 7.088 -12.743 7.625 -14.5 8.188 C-14.5 8.847 -14.5 9.507 -14.5 10.188 C-15.428 10.786 -16.356 11.384 -17.312 12 C-20.54 14.215 -21.643 15.846 -23.5 19.188 C-24.16 19.188 -24.82 19.188 -25.5 19.188 C-25.5 20.507 -25.5 21.827 -25.5 23.188 C-26.16 23.188 -26.82 23.188 -27.5 23.188 C-27.055 17.401 -25.074 12.71 -21.5 8.188 C-14.593 2.463 -8.844 0.474 0 0 Z " fill="#FFFFFF" transform="translate(189.5,232.8125)"/>
<path d="M0 0 C4.878 -0.37 7.266 0.356 11.188 3.25 C12.027 3.853 12.866 4.457 13.73 5.078 C16 7 16 7 17.547 9.117 C19.247 11.32 20.485 11.893 23.062 12.875 C26.649 14.374 30.053 16.02 33.438 17.938 C34.261 18.4 35.085 18.863 35.934 19.34 C38.403 21.324 39.074 23.011 40 26 C39.01 25.67 38.02 25.34 37 25 C36.505 24.01 36.505 24.01 36 23 C33.48 22.643 30.987 22.556 28.445 22.441 C25.551 21.919 24.928 21.134 23 19 C21.543 18.168 20.062 17.378 18.562 16.625 C14.674 14.531 12.735 12.48 10 9 C7.401 7.095 4.747 5.31 2.047 3.551 C1.371 3.039 0.696 2.527 0 2 C0 1.34 0 0.68 0 0 Z " fill="#0F0F0F" transform="translate(233,96)"/>
<path d="M0 0 C0.99 0 1.98 0 3 0 C3 1.32 3 2.64 3 4 C4.048 3.874 4.048 3.874 5.117 3.746 C6.027 3.644 6.937 3.542 7.875 3.438 C8.78 3.333 9.685 3.229 10.617 3.121 C13 3 13 3 15 4 C16.07 5.996 16.07 5.996 17.125 8.438 C17.655 9.642 17.655 9.642 18.195 10.871 C19 13 19 13 19 15 C19.66 15 20.32 15 21 15 C21.289 15.639 21.578 16.279 21.875 16.938 C22.828 19.152 22.828 19.152 25 20 C25 20.99 25 21.98 25 23 C23.02 23.66 21.04 24.32 19 25 C20.119 28.726 20.119 28.726 23 31 C25.552 31.072 28.075 31.093 30.625 31.062 C31.331 31.058 32.038 31.053 32.766 31.049 C34.51 31.037 36.255 31.019 38 31 C38 31.33 38 31.66 38 32 C35.73 32.336 33.459 32.669 31.188 33 C29.923 33.186 28.658 33.371 27.355 33.562 C24 34 24 34 21 34 C21.66 34.99 22.32 35.98 23 37 C21.866 36.794 20.731 36.588 19.562 36.375 C13.866 35.699 8.408 36.526 2.766 37.326 C-2.809 38.095 -2.809 38.095 -5 37 C-4.67 36.34 -4.34 35.68 -4 35 C-3.18 35.012 -2.36 35.023 -1.516 35.035 C-0.438 35.044 0.64 35.053 1.75 35.062 C2.817 35.074 3.885 35.086 4.984 35.098 C7.562 35.014 9.54 34.667 12 34 C14.333 33.961 16.667 33.955 19 34 C18.734 33.336 18.469 32.672 18.195 31.988 C16.464 27.659 14.732 23.329 13 19 C14.65 20.32 16.3 21.64 18 23 C18.99 22.34 19.98 21.68 21 21 C20.443 20.361 19.886 19.721 19.312 19.062 C16.437 15.254 14.236 11.206 12 7 C10.35 7.33 8.7 7.66 7 8 C7.66 9.65 8.32 11.3 9 13 C6.352 10.422 4.056 8.084 2 5 C2 4.01 2 3.02 2 2 C1.34 2 0.68 2 0 2 C0 1.34 0 0.68 0 0 Z " fill="#000000" transform="translate(99,102)"/>
<path d="M0 0 C-4.431 5.785 -4.431 5.785 -7.312 6.875 C-7.869 6.916 -8.426 6.958 -9 7 C-9 7.66 -9 8.32 -9 9 C-15.243 11.775 -20.198 12.376 -27 12 C-26.77 9.629 -26.77 9.629 -26 7 C-24.137 5.777 -24.137 5.777 -21.688 4.938 C-20.792 4.623 -19.896 4.308 -18.973 3.984 C-17.992 3.66 -17.011 3.335 -16 3 C-14.42 2.42 -14.42 2.42 -12.809 1.828 C-3.805 -1.398 -3.805 -1.398 0 0 Z " fill="#FFFFFF" transform="translate(238,166)"/>
<path d="M0 0 C2.252 2.688 3.882 4.646 5 8 C6.64 8.729 8.313 9.387 10 10 C11.683 10.972 13.354 11.966 15 13 C14.01 16.3 13.02 19.6 12 23 C5.451 19.497 2.392 14.5 0.211 7.449 C-0.306 5.29 -0.793 3.21 -1 1 C-0.67 0.67 -0.34 0.34 0 0 Z " fill="#FFFFFF" transform="translate(191,164)"/>
<path d="M0 0 C-2.303 2.303 -2.96 2.324 -6.086 2.676 C-6.925 2.779 -7.764 2.882 -8.629 2.989 C-9.535 3.096 -10.441 3.202 -11.375 3.312 C-21.49 4.616 -31.208 6.81 -41.043 9.475 C-43.024 10.006 -45.01 10.508 -47 11 C-47.33 12.32 -47.66 13.64 -48 15 C-48.66 15 -49.32 15 -50 15 C-50.838 10.345 -51.016 6.629 -50 2 C-49.67 2 -49.34 2 -49 2 C-48.67 3.98 -48.34 5.96 -48 8 C-43.38 6.68 -38.76 5.36 -34 4 C-34 4.66 -34 5.32 -34 6 C-30.597 4.941 -27.986 3.991 -25 2 C-22.129 1.209 -19.188 0.792 -16.25 0.312 C-15.464 0.17 -14.677 0.028 -13.867 -0.119 C-8.933 -0.943 -4.91 -0.978 0 0 Z " fill="#000000" transform="translate(156,246)"/>
<path d="M0 0 C2.64 0.99 5.28 1.98 8 3 C8 3.66 8 4.32 8 5 C8.99 5.33 9.98 5.66 11 6 C11 6.66 11 7.32 11 8 C11.66 8 12.32 8 13 8 C17.672 14.256 18.589 19.106 17.664 26.824 C16.742 31.236 15.183 35.07 13 39 C12.34 38.67 11.68 38.34 11 38 C11.289 37.443 11.577 36.886 11.875 36.312 C14.52 30.876 15.439 27.033 15 21 C13.02 23.97 13.02 23.97 11 27 C11 26.01 11 25.02 11 24 C10.13 24.199 10.13 24.199 9.242 24.402 C4.842 25.397 0.461 26.314 -4 27 C1.345 23.436 6.499 21.512 13 22 C13.384 17.196 13.48 13.91 11.188 9.562 C8.069 5.91 5.637 4.752 1 4 C0.67 2.68 0.34 1.36 0 0 Z " fill="#000000" transform="translate(226,142)"/>
<path d="M0 0 C0.66 0 1.32 0 2 0 C3.788 8.076 5.277 15.681 5 24 C5.33 24.99 5.66 25.98 6 27 C5.67 27.33 5.34 27.66 5 28 C4.632 30.328 4.298 32.662 4 35 C2.515 35.495 2.515 35.495 1 36 C0.492 33.793 -0.006 31.585 -0.5 29.375 C-0.778 28.145 -1.057 26.915 -1.344 25.648 C-1.941 22.328 -2.124 19.361 -2 16 C-2.66 16.33 -3.32 16.66 -4 17 C-4.33 15.68 -4.66 14.36 -5 13 C-4.01 12.67 -3.02 12.34 -2 12 C0.458 15.687 1.012 18.697 2 23 C2.224 15.05 1.954 7.729 0 0 Z " fill="#111111" transform="translate(281,234)"/>
<path d="M0 0 C0.495 1.485 0.495 1.485 1 3 C-4.369 4.704 -9.528 5.559 -15.125 6.125 C-15.91 6.211 -16.695 6.298 -17.504 6.387 C-21.353 6.796 -25.123 7.109 -29 7 C-29 7.66 -29 8.32 -29 9 C-29.99 9 -30.98 9 -32 9 C-32.33 8.01 -32.66 7.02 -33 6 C-24.955 0.637 -9.661 0 0 0 Z " fill="#3E3E3E" transform="translate(173,183)"/>
<path d="M0 0 C3.722 1.328 4.461 3.37 6.293 6.805 C6.874 7.875 7.456 8.945 8.055 10.047 C8.566 10.998 9.078 11.95 9.605 12.93 C10.595 14.415 10.595 14.415 11.605 15.93 C9.955 16.59 8.305 17.25 6.605 17.93 C1.605 12.305 1.605 12.305 1.605 8.93 C0.945 8.93 0.285 8.93 -0.395 8.93 C-1.715 6.29 -3.035 3.65 -4.395 0.93 C-2.395 -0.07 -2.395 -0.07 0 0 Z " fill="#FFFFFF" transform="translate(109.39453125,108.0703125)"/>
<path d="M0 0 C1.464 0.027 1.464 0.027 2.957 0.055 C3.693 0.078 4.429 0.101 5.188 0.125 C5.517 0.785 5.847 1.445 6.188 2.125 C5.694 2.535 5.2 2.945 4.691 3.367 C4.051 3.906 3.41 4.445 2.75 5 C2.112 5.534 1.474 6.067 0.816 6.617 C-0.921 8.047 -0.921 8.047 -1.812 10.125 C-3.792 9.465 -5.773 8.805 -7.812 8.125 C-7.812 7.465 -7.812 6.805 -7.812 6.125 C-8.472 6.125 -9.132 6.125 -9.812 6.125 C-10.143 4.805 -10.472 3.485 -10.812 2.125 C-7.04 0.373 -4.146 -0.1 0 0 Z " fill="#FFFFFF" transform="translate(216.8125,140.875)"/>
<path d="M0 0 C0.66 0.99 1.32 1.98 2 3 C1.67 3.66 1.34 4.32 1 5 C0.774 6.704 0.591 8.413 0.438 10.125 C0.354 11.035 0.27 11.945 0.184 12.883 C0.093 13.931 0.093 13.931 0 15 C-0.464 14.041 -0.464 14.041 -0.938 13.062 C-1.835 11.064 -1.835 11.064 -3 10 C-4.338 9.775 -5.686 9.606 -7.035 9.465 C-7.844 9.378 -8.653 9.291 -9.486 9.201 C-10.336 9.114 -11.187 9.027 -12.062 8.938 C-12.917 8.847 -13.771 8.756 -14.65 8.662 C-16.767 8.437 -18.883 8.218 -21 8 C-21 7.67 -21 7.34 -21 7 C-19.32 6.727 -19.32 6.727 -17.605 6.449 C-16.133 6.196 -14.66 5.942 -13.188 5.688 C-12.081 5.511 -12.081 5.511 -10.951 5.33 C-5.733 4.467 -5.733 4.467 -2 1 C-3.196 1.33 -4.392 1.66 -5.625 2 C-9.158 2.893 -12.341 3.183 -16 3 C-16 2.67 -16 2.34 -16 2 C-10.642 0.639 -5.567 -0.568 0 0 Z " fill="#747474" transform="translate(75,27)"/>
<path d="M0 0 C1.32 0 2.64 0 4 0 C6.712 4.068 6.307 6.165 6 11 C4 13 4 13 1.375 13.125 C0.591 13.084 -0.192 13.043 -1 13 C-3.029 8.942 -3.169 6.383 -2 2 C-1.34 1.34 -0.68 0.68 0 0 Z " fill="#000000" transform="translate(254,291)"/>
<path d="M0 0 C2.438 0.375 2.438 0.375 5 1 C6.123 3.245 6.134 4.515 6.125 7 C6.128 7.701 6.13 8.402 6.133 9.125 C6 11 6 11 5 13 C2.688 13.25 2.688 13.25 0 13 C-1.875 11.375 -1.875 11.375 -3 9 C-2.763 5.123 -2.173 3.259 0 0 Z " fill="#000000" transform="translate(273,291)"/>
<path d="M0 0 C0.33 0.33 0.66 0.66 1 1 C0.475 6.146 -0.688 11.013 -2 16 C-4.745 13.617 -5.891 11.311 -7.188 7.938 C-7.532 7.06 -7.876 6.182 -8.23 5.277 C-9 3 -9 3 -9 1 C-5.594 -0.608 -3.586 -1.409 0 0 Z " fill="#FFFFFF" transform="translate(211,154)"/>
<path d="M0 0 C1.32 0 2.64 0 4 0 C6.712 4.068 6.307 6.165 6 11 C4 13 4 13 1.438 13.188 C-1 13 -1 13 -2 12 C-2.125 10.358 -2.176 8.709 -2.188 7.062 C-2.202 6.167 -2.216 5.271 -2.23 4.348 C-2 2 -2 2 0 0 Z " fill="#000000" transform="translate(312,291)"/>
<path d="M0 0 C4.875 0.875 4.875 0.875 6 2 C6.098 3.664 6.13 5.333 6.125 7 C6.128 7.908 6.13 8.815 6.133 9.75 C6 12 6 12 5 13 C2.562 13.188 2.562 13.188 0 13 C-2.607 10.393 -2.239 8.527 -2.266 4.973 C-2 3 -2 3 0 0 Z " fill="#000000" transform="translate(263,291)"/>
<path d="M0 0 C0 0.33 0 0.66 0 1 C-0.736 1.061 -1.472 1.121 -2.23 1.184 C-3.694 1.309 -3.694 1.309 -5.188 1.438 C-6.15 1.519 -7.113 1.6 -8.105 1.684 C-10.786 1.977 -13.366 2.427 -16 3 C-15.67 4.32 -15.34 5.64 -15 7 C-15.99 6.34 -16.98 5.68 -18 5 C-22.147 7.376 -22.147 7.376 -25 11 C-25.66 11 -26.32 11 -27 11 C-27.535 12.558 -28.053 14.121 -28.562 15.688 C-28.853 16.558 -29.143 17.428 -29.441 18.324 C-30.051 21.246 -29.777 23.144 -29 26 C-29.66 25.67 -30.32 25.34 -31 25 C-30.959 26.114 -30.917 27.227 -30.875 28.375 C-31 32 -31 32 -33 34 C-33.544 24.816 -33.786 17.626 -28 10 C-27.34 10 -26.68 10 -26 10 C-25.781 9.407 -25.562 8.814 -25.336 8.203 C-20.298 -0.105 -8.65 -0.828 0 0 Z " fill="#000000" transform="translate(222,140)"/>
<path d="M0 0 C1.938 0.312 1.938 0.312 4 1 C4.33 1.99 4.66 2.98 5 4 C4.361 3.814 3.721 3.629 3.062 3.438 C2.042 3.221 2.042 3.221 1 3 C0.67 3.33 0.34 3.66 0 4 C0.804 4.227 1.609 4.454 2.438 4.688 C5 6 5 6 5.938 8.5 C5.958 9.325 5.979 10.15 6 11 C4 13 4 13 0.875 13.125 C-0.548 13.063 -0.548 13.063 -2 13 C-3.453 4.807 -3.453 4.807 -1.562 1.438 C-1.047 0.963 -0.531 0.489 0 0 Z " fill="#000000" transform="translate(303,291)"/>
<path d="M0 0 C2 1.375 2 1.375 4 3 C4 3.66 4 4.32 4 5 C5.32 5.33 6.64 5.66 8 6 C8 6.99 8 7.98 8 9 C4.875 10.25 4.875 10.25 1 11 C-4.4 8.2 -4.4 8.2 -6 5 C-6.99 4.34 -7.98 3.68 -9 3 C-7.886 2.876 -6.773 2.752 -5.625 2.625 C-1.969 2.353 -1.969 2.353 0 0 Z " fill="#FFFFFF" transform="translate(174,266)"/>
<path d="M0 0 C3 0.188 3 0.188 6 1 C8 4 8 4 7.75 6.062 C7 8 7 8 5 10 C2.375 10.125 2.375 10.125 0 10 C0 9.34 0 8.68 0 8 C-0.66 8 -1.32 8 -2 8 C-2.125 5.125 -2.125 5.125 -2 2 C-1.34 1.34 -0.68 0.68 0 0 Z " fill="#1C1C1C" transform="translate(75,140)"/>
<path d="M0 0 C0.99 0 1.98 0 3 0 C3 1.32 3 2.64 3 4 C4.048 3.874 4.048 3.874 5.117 3.746 C6.027 3.644 6.937 3.542 7.875 3.438 C8.78 3.333 9.685 3.229 10.617 3.121 C13 3 13 3 15 4 C15.942 5.779 16.807 7.599 17.625 9.438 C18.071 10.426 18.517 11.415 18.977 12.434 C20 15 20 15 20 17 C16.302 15.767 16.065 14.799 14.312 11.438 C13.876 10.611 13.439 9.785 12.988 8.934 C12.662 8.296 12.336 7.657 12 7 C10.35 7.33 8.7 7.66 7 8 C7.66 9.65 8.32 11.3 9 13 C6.352 10.422 4.056 8.084 2 5 C2 4.01 2 3.02 2 2 C1.34 2 0.68 2 0 2 C0 1.34 0 0.68 0 0 Z " fill="#131313" transform="translate(99,102)"/>
<path d="M0 0 C-0.99 1.485 -0.99 1.485 -2 3 C-4.25 3.336 -4.25 3.336 -7 3.375 C-14.999 3.89 -21.641 6.972 -27 13 C-27.66 13 -28.32 13 -29 13 C-27.559 9.638 -25.752 7.408 -23 5 C-22.34 5 -21.68 5 -21 5 C-21 4.34 -21 3.68 -21 3 C-13.939 -0.323 -7.728 -0.318 0 0 Z " fill="#101010" transform="translate(196,238)"/>
<path d="M0 0 C1.532 0.252 3.053 0.576 4.562 0.938 C5.389 1.132 6.215 1.327 7.066 1.527 C8.024 1.761 8.024 1.761 9 2 C7.875 4.972 6.777 7.334 5 10 C2.375 10.188 2.375 10.188 0 10 C-0.194 8.522 -0.38 7.042 -0.562 5.562 C-0.667 4.739 -0.771 3.915 -0.879 3.066 C-0.919 2.384 -0.959 1.703 -1 1 C-0.67 0.67 -0.34 0.34 0 0 Z " fill="#FFFFFF" transform="translate(189,246)"/>
<path d="M0 0 C2.97 1.65 5.94 3.3 9 5 C8.67 5.99 8.34 6.98 8 8 C4.396 9.522 1.948 10 -2 10 C-2.195 5.7 -1.996 3.991 0 0 Z " fill="#FFFFFF" transform="translate(176,253)"/>
<path d="M0 0 C1.858 3.135 2.201 5.375 2 9 C0.375 9.75 0.375 9.75 -2 10 C-5.25 8.062 -5.25 8.062 -8 6 C-7.67 5.01 -7.34 4.02 -7 3 C-3.438 1.312 -3.438 1.312 0 0 Z " fill="#FFFFFF" transform="translate(186,247)"/>
<path d="M0 0 C0.66 0.66 1.32 1.32 2 2 C2.66 1.67 3.32 1.34 4 1 C4.535 2.244 5.052 3.496 5.562 4.75 C5.853 5.446 6.143 6.142 6.441 6.859 C7.089 9.339 6.742 10.583 6 13 C6 13.99 6 14.98 6 16 C3.138 13.586 2.326 11.458 1.375 7.875 C0.701 4.656 0.701 4.656 -1 2 C-2.608 2.066 -4.212 2.206 -5.812 2.375 C-10.102 2.808 -14.39 3.21 -18.688 3.562 C-19.702 3.646 -20.716 3.73 -21.762 3.816 C-22.5 3.877 -23.239 3.938 -24 4 C-18.997 -1.003 -6.898 -0.531 0 0 Z " fill="#070707" transform="translate(72,36)"/>
<path d="M0 0 C0.382 1.656 0.714 3.325 1 5 C-0.895 6.895 -3.571 6.18 -6.09 6.23 C-8 6 -8 6 -10 4 C-9.75 1.938 -9.75 1.938 -9 0 C-5.931 -1.534 -3.299 -0.55 0 0 Z " fill="#8F8F8F" transform="translate(47,59)"/>
<path d="M0 0 C2.64 0 5.28 0 8 0 C8.33 1.32 8.66 2.64 9 4 C8.34 4 7.68 4 7 4 C7 3.34 7 2.68 7 2 C5.02 2 3.04 2 1 2 C1 2.99 1 3.98 1 5 C3.31 5.33 5.62 5.66 8 6 C9.125 10.75 9.125 10.75 8 13 C5.36 13 2.72 13 0 13 C-0.33 11.68 -0.66 10.36 -1 9 C-0.34 9 0.32 9 1 9 C1 9.66 1 10.32 1 11 C2.65 11 4.3 11 6 11 C6.33 10.01 6.66 9.02 7 8 C6.031 7.856 5.061 7.711 4.062 7.562 C1 7 1 7 0 6 C-0.041 4 -0.043 2 0 0 Z " fill="#000000" transform="translate(236,291)"/>
<path d="M0 0 C3.125 -0.188 3.125 -0.188 6 0 C6.66 1.32 7.32 2.64 8 4 C7.01 5.32 6.02 6.64 5 8 C2.03 7.505 2.03 7.505 -1 7 C-1.625 5.188 -1.625 5.188 -2 3 C-1.34 2.01 -0.68 1.02 0 0 Z " fill="#FFFFFF" transform="translate(187,257)"/>
<path d="M0 0 C0.495 0.99 0.495 0.99 1 2 C0.67 2.66 0.34 3.32 0 4 C-8.634 6.255 -17.895 6.719 -26.75 7.625 C-28.672 7.826 -28.672 7.826 -30.633 8.031 C-33.755 8.357 -36.877 8.68 -40 9 C-40 8.34 -40 7.68 -40 7 C-39.34 7 -38.68 7 -38 7 C-38.33 6.01 -38.66 5.02 -39 4 C-37.68 3.34 -36.36 2.68 -35 2 C-35.66 3.65 -36.32 5.3 -37 7 C-36.158 6.879 -35.316 6.758 -34.449 6.633 C-31.298 6.182 -28.146 5.735 -24.994 5.291 C-23.635 5.099 -22.277 4.905 -20.918 4.709 C-18.955 4.426 -16.991 4.151 -15.027 3.875 C-13.26 3.624 -13.26 3.624 -11.457 3.367 C-7.944 2.994 -4.53 2.937 -1 3 C-0.67 2.01 -0.34 1.02 0 0 Z " fill="#000000" transform="translate(169,205)"/>
<path d="M0 0 C1.65 3.3 3.3 6.6 5 10 C3.35 10.66 1.7 11.32 0 12 C-0.839 10.712 -1.671 9.419 -2.5 8.125 C-2.964 7.406 -3.428 6.686 -3.906 5.945 C-5 4 -5 4 -5 2 C-2 0 -2 0 0 0 Z " fill="#FFFFFF" transform="translate(314,167)"/>
<path d="M0 0 C1.98 0 3.96 0 6 0 C6 0.99 6 1.98 6 3 C4.35 3 2.7 3 1 3 C1 3.66 1 4.32 1 5 C2.65 5 4.3 5 6 5 C7.125 10.75 7.125 10.75 6 13 C3.125 13.188 3.125 13.188 0 13 C-0.66 12.01 -1.32 11.02 -2 10 C-1.01 10 -0.02 10 1 10 C1 10.66 1 11.32 1 12 C1.99 11.67 2.98 11.34 4 11 C4.733 8.985 4.733 8.985 5 7 C3.68 6.67 2.36 6.34 1 6 C1 6.66 1 7.32 1 8 C0.34 8 -0.32 8 -1 8 C-0.67 5.36 -0.34 2.72 0 0 Z " fill="#000000" transform="translate(282,291)"/>
<path d="M0 0 C1.65 0 3.3 0 5 0 C6.462 4.385 7.449 7.52 6 12 C5 13 5 13 1.938 13.062 C0.968 13.042 -0.001 13.021 -1 13 C-1.33 11.68 -1.66 10.36 -2 9 C-1.34 9 -0.68 9 0 9 C0.33 9.66 0.66 10.32 1 11 C1.99 11.33 2.98 11.66 4 12 C4.33 10.68 4.66 9.36 5 8 C4.01 8 3.02 8 2 8 C2 7.01 2 6.02 2 5 C2.66 5 3.32 5 4 5 C4 4.01 4 3.02 4 2 C0.882 2.646 0.882 2.646 0 5 C-0.66 5 -1.32 5 -2 5 C-1.34 3.35 -0.68 1.7 0 0 Z " fill="#000000" transform="translate(292,291)"/>
<path d="M0 0 C0.66 0 1.32 0 2 0 C2 5.28 2 10.56 2 16 C1.01 16 0.02 16 -1 16 C-1 12.37 -1 8.74 -1 5 C-1.99 5 -2.98 5 -4 5 C-4 4.34 -4 3.68 -4 3 C-3.01 3 -2.02 3 -1 3 C-0.67 2.01 -0.34 1.02 0 0 Z " fill="#000000" transform="translate(132,279)"/>
<path d="M0 0 C1.625 -0.054 3.25 -0.093 4.875 -0.125 C5.78 -0.148 6.685 -0.171 7.617 -0.195 C10 0 10 0 12 2 C12.414 4.602 12.414 4.602 12.625 7.625 C12.7 8.628 12.775 9.631 12.852 10.664 C12.925 11.82 12.925 11.82 13 13 C12.01 12.67 11.02 12.34 10 12 C9.67 9.36 9.34 6.72 9 4 C4.545 3.01 4.545 3.01 0 2 C0 1.34 0 0.68 0 0 Z " fill="#424242" transform="translate(265,234)"/>
<path d="M0 0 C1.034 0.079 2.068 0.157 3.133 0.238 C5.875 0.688 5.875 0.688 8.875 2.688 C7.741 2.646 6.606 2.605 5.438 2.562 C-2.126 2.538 -9.637 3.725 -17.125 4.688 C-16.795 4.028 -16.465 3.368 -16.125 2.688 C-14.475 2.688 -12.825 2.688 -11.125 2.688 C-11.125 2.028 -11.125 1.368 -11.125 0.688 C-7.266 -0.259 -3.953 -0.332 0 0 Z " fill="#000000" transform="translate(265.125,232.3125)"/>
<path d="M0 0 C-2.776 2.776 -5.702 2.734 -9.438 3.188 C-10.119 3.282 -10.8 3.377 -11.502 3.475 C-14.749 3.891 -16.854 4.049 -20 3 C-20 2.34 -20 1.68 -20 1 C-6.367 -1.481 -6.367 -1.481 0 0 Z " fill="#3E3E3E" transform="translate(156,246)"/>
<path d="M0 0 C0.33 0 0.66 0 1 0 C1.33 1.98 1.66 3.96 2 6 C4.64 5.67 7.28 5.34 10 5 C7.826 7.5 6.27 8.436 3 9 C2.67 10.32 2.34 11.64 2 13 C1.34 13 0.68 13 0 13 C-0.838 8.345 -1.016 4.629 0 0 Z " fill="#1D1D1D" transform="translate(106,248)"/>
<path d="M0 0 C0.66 0 1.32 0 2 0 C3.37 2.739 3.126 4.971 3 8 C2.67 8.66 2.34 9.32 2 10 C0.68 9.34 -0.64 8.68 -2 8 C-2.125 5.125 -2.125 5.125 -2 2 C-1.34 1.34 -0.68 0.68 0 0 Z " fill="#FFFFFF" transform="translate(313,293)"/>
<path d="M0 0 C1.32 0.66 2.64 1.32 4 2 C4 3.98 4 5.96 4 8 C2.02 8.99 2.02 8.99 0 10 C-1.37 7.261 -1.126 5.029 -1 2 C-0.67 1.34 -0.34 0.68 0 0 Z " fill="#FFFFFF" transform="translate(264,293)"/>
<path d="M0 0 C0.66 0 1.32 0 2 0 C3.37 2.739 3.126 4.971 3 8 C2.67 8.66 2.34 9.32 2 10 C0.68 9.34 -0.64 8.68 -2 8 C-2.125 5.125 -2.125 5.125 -2 2 C-1.34 1.34 -0.68 0.68 0 0 Z " fill="#FFFFFF" transform="translate(255,293)"/>
<path d="M0 0 C0.33 0.99 0.66 1.98 1 3 C-1.686 2.526 -4.126 1.953 -6.688 1 C-11.084 -0.327 -15.435 -0.657 -20 -1 C-20 -1.33 -20 -1.66 -20 -2 C-12.512 -3.036 -6.807 -3.596 0 0 Z " fill="#5F5F5F" transform="translate(204,241)"/>
<path d="M0 0 C-1.79 0.671 -3.582 1.336 -5.375 2 C-6.373 2.371 -7.37 2.743 -8.398 3.125 C-11 4 -11 4 -13 4 C-13 4.66 -13 5.32 -13 6 C-15.31 5.67 -17.62 5.34 -20 5 C-19.34 4.67 -18.68 4.34 -18 4 C-18 3.34 -18 2.68 -18 2 C-17.42 1.951 -16.84 1.902 -16.242 1.852 C-12.495 1.493 -9.215 1.072 -5.625 -0.125 C-3 -1 -3 -1 0 0 Z " fill="#000000" transform="translate(231,188)"/>
<path d="M0 0 C0.33 0.66 0.66 1.32 1 2 C2.65 2 4.3 2 6 2 C6 2.33 6 2.66 6 3 C-2.91 3.99 -2.91 3.99 -12 5 C-12.33 4.01 -12.66 3.02 -13 2 C-8.71 1.34 -4.42 0.68 0 0 Z " fill="#000000" transform="translate(223,236)"/>
<path d="M0 0 C0.66 0 1.32 0 2 0 C4.183 4.271 6.313 8.502 8 13 C2.696 10.054 0.832 7.82 -1 2 C-0.67 1.34 -0.34 0.68 0 0 Z " fill="#2E2E2E" transform="translate(190,172)"/>
<path d="M0 0 C0.33 1.32 0.66 2.64 1 4 C1.495 3.67 1.99 3.34 2.5 3 C6.091 1.564 9.145 1.871 13 2 C12 4 12 4 9.496 4.852 C7.982 5.234 7.982 5.234 6.438 5.625 C5.426 5.885 4.414 6.146 3.371 6.414 C2.589 6.607 1.806 6.801 1 7 C0 6 0 6 -0.062 2.938 C-0.042 1.968 -0.021 0.999 0 0 Z " fill="#0E0E0E" transform="translate(78,32)"/>
<path d="M0 0 C0.99 0.33 1.98 0.66 3 1 C3 3.64 3 6.28 3 9 C2.01 9.33 1.02 9.66 0 10 C-1.37 7.261 -1.126 5.029 -1 2 C-0.67 1.34 -0.34 0.68 0 0 Z " fill="#FFFFFF" transform="translate(274,293)"/>
<path d="M0 0 C1.32 0.66 2.64 1.32 4 2 C4 2.99 4 3.98 4 5 C4.66 5.33 5.32 5.66 6 6 C4.02 6.99 4.02 6.99 2 8 C0.68 6.02 -0.64 4.04 -2 2 C-1.34 1.34 -0.68 0.68 0 0 Z " fill="#FFFFFF" transform="translate(306,160)"/>
<path d="M0 0 C2.125 0.375 2.125 0.375 4 1 C4 1.66 4 2.32 4 3 C4.66 3 5.32 3 6 3 C5.67 3.99 5.34 4.98 5 6 C3.35 6 1.7 6 0 6 C-0.66 4.68 -1.32 3.36 -2 2 C-1.34 1.34 -0.68 0.68 0 0 Z " fill="#FFFFFF" transform="translate(76,141)"/>
<path d="M0 0 C3.151 2.53 3.588 4.768 4.188 8.688 C4.425 10.178 4.425 10.178 4.668 11.699 C4.778 12.458 4.887 13.218 5 14 C4.01 14.33 3.02 14.66 2 15 C1.67 11.37 1.34 7.74 1 4 C0.01 4.495 0.01 4.495 -1 5 C-1.33 3.68 -1.66 2.36 -2 1 C-1.34 0.67 -0.68 0.34 0 0 Z " fill="#000000" transform="translate(278,246)"/>
<path d="M0 0 C0.519 0.266 1.039 0.531 1.574 0.805 C5.33 2.707 9.052 4.52 13 6 C13 6.33 13 6.66 13 7 C8.06 7.291 4.902 7.213 1 4 C0.367 1.891 0.367 1.891 0 0 Z " fill="#FFFFFF" transform="translate(108,217)"/>
<path d="M0 0 C2.749 2.749 3.97 4.239 4.125 8.188 C4.084 9.116 4.043 10.044 4 11 C3.01 11.33 2.02 11.66 1 12 C0.636 10.565 0.284 9.127 -0.062 7.688 C-0.26 6.887 -0.457 6.086 -0.66 5.262 C-1 3 -1 3 0 0 Z " fill="#222222" transform="translate(281,258)"/>
<path d="M0 0 C0.33 0.99 0.66 1.98 1 3 C-6.429 5.429 -6.429 5.429 -10 4 C-7.183 0.59 -4.326 0 0 0 Z " fill="#222222" transform="translate(173,183)"/>
<path d="M0 0 C0.99 0.33 1.98 0.66 3 1 C1.547 2.339 0.088 3.671 -1.375 5 C-2.187 5.743 -2.999 6.485 -3.836 7.25 C-6 9 -6 9 -8 9 C-6.408 4.7 -3.645 2.603 0 0 Z " fill="#232323" transform="translate(175,242)"/>
<path d="M0 0 C0.99 0.33 1.98 0.66 3 1 C1.65 5.419 -0.261 7.343 -4 10 C-3.435 6.042 -2.191 3.334 0 0 Z " fill="#FFFFFF" transform="translate(199,249)"/>
<path d="M0 0 C0.99 0.33 1.98 0.66 3 1 C2.25 3.438 2.25 3.438 1 6 C-1 6.938 -1 6.938 -3 7 C-3.66 6.34 -4.32 5.68 -5 5 C-3.625 3.5 -3.625 3.5 -2 2 C-1.34 2 -0.68 2 0 2 C0 1.34 0 0.68 0 0 Z " fill="#FFFFFF" transform="translate(186,265)"/>
<path d="M0 0 C0 0.66 0 1.32 0 2 C-5.94 2.495 -5.94 2.495 -12 3 C-12 2.34 -12 1.68 -12 1 C-7.947 0.018 -4.161 -0.082 0 0 Z " fill="#7A7A7A" transform="translate(254,233)"/>
<path d="M0 0 C2.5 2.312 2.5 2.312 5 5 C5 5.99 5 6.98 5 8 C3.35 8.33 1.7 8.66 0 9 C0.33 8.01 0.66 7.02 1 6 C-0.372 3.81 -0.372 3.81 -2 2 C-1.34 2 -0.68 2 0 2 C0 1.34 0 0.68 0 0 Z " fill="#0A0A0A" transform="translate(119,117)"/>
<path d="M0 0 C0.928 0.206 1.856 0.413 2.812 0.625 C2.812 0.955 2.812 1.285 2.812 1.625 C0.502 1.625 -1.807 1.625 -4.188 1.625 C-4.188 2.285 -4.188 2.945 -4.188 3.625 C-2.208 3.625 -0.227 3.625 1.812 3.625 C1.812 3.955 1.812 4.285 1.812 4.625 C-0.498 4.955 -2.807 5.285 -5.188 5.625 C-5.517 4.305 -5.847 2.985 -6.188 1.625 C-3.188 -0.375 -3.188 -0.375 0 0 Z " fill="#000000" transform="translate(43.1875,58.375)"/>
<path d="M0 0 C0.99 0.66 1.98 1.32 3 2 C2.34 3.32 1.68 4.64 1 6 C0.01 5.67 -0.98 5.34 -2 5 C-2 3.68 -2 2.36 -2 1 C-1.34 0.67 -0.68 0.34 0 0 Z " fill="#FFFFFF" transform="translate(304,297)"/>
<path d="M0 0 C0.598 0.206 1.196 0.412 1.812 0.625 C0.822 0.955 -0.167 1.285 -1.188 1.625 C-1.188 2.615 -1.188 3.605 -1.188 4.625 C-2.178 4.625 -3.167 4.625 -4.188 4.625 C-4.518 3.635 -4.847 2.645 -5.188 1.625 C-2.188 -0.375 -2.188 -0.375 0 0 Z " fill="#636363" transform="translate(145.1875,187.375)"/>
</svg>
