<?xml version="1.0" encoding="UTF-8"?>
<!-- Generator: visioncortex VTracer 0.6.4 -->
<svg version="1.1" xmlns="http://www.w3.org/2000/svg" width="338" height="287">
<path d="M0 0 C111.54 0 223.08 0 338 0 C338 94.71 338 189.42 338 287 C226.46 287 114.92 287 0 287 C0 192.29 0 97.58 0 0 Z " fill="#FFFFFF" transform="translate(0,0)"/>
<path d="M0 0 C3.145 1.062 4.597 2.773 6.059 5.695 C6.892 13.567 5.493 19.627 2.059 26.695 C3.336 26.816 4.613 26.937 5.928 27.061 C11.093 27.638 16.083 28.688 21.145 29.848 C22.582 30.171 22.582 30.171 24.048 30.501 C27.178 31.207 30.306 31.92 33.434 32.633 C35.628 33.13 37.823 33.626 40.017 34.122 C54.251 37.346 68.47 40.632 82.684 43.945 C84.455 44.358 86.226 44.77 87.997 45.183 C89.724 45.585 91.452 45.988 93.18 46.391 C94.014 46.585 94.848 46.779 95.707 46.98 C99.737 47.919 103.766 48.861 107.793 49.808 C111.442 50.665 115.092 51.513 118.743 52.356 C120.671 52.803 122.598 53.259 124.524 53.716 C134.879 56.093 144.398 57.208 154.059 51.695 C155.906 49.173 157.013 46.864 158.094 43.938 C159.059 41.695 159.059 41.695 162.059 39.695 C166.946 39.395 171.453 39.937 176.246 40.883 C177.436 41.103 178.626 41.324 179.852 41.551 C183.671 42.914 184.948 44.277 187.059 47.695 C187.809 51.508 187.809 51.508 188.059 54.695 C189.131 54.365 190.204 54.035 191.309 53.695 C195.059 52.695 195.059 52.695 199.059 52.695 C199.059 54.345 199.059 55.995 199.059 57.695 C203.679 59.015 208.299 60.335 213.059 61.695 C212.729 64.005 212.399 66.315 212.059 68.695 C208.915 70.267 206.129 68.735 202.934 67.758 C202.275 67.563 201.616 67.367 200.938 67.166 C199.309 66.682 197.684 66.19 196.059 65.695 C195.729 67.675 195.399 69.655 195.059 71.695 C194.353 71.063 194.353 71.063 193.633 70.418 C192.699 69.596 192.699 69.596 191.746 68.758 C191.131 68.213 190.516 67.667 189.883 67.105 C188.006 65.494 188.006 65.494 185.059 64.695 C184.605 65.5 184.151 66.304 183.684 67.133 C182.059 69.695 182.059 69.695 180.059 70.695 C175.535 71.099 171.256 70.887 166.871 69.695 C161.084 68.177 156.919 68.471 151.332 70.531 C149.683 71.131 149.683 71.131 148 71.742 C146.823 72.18 145.646 72.619 144.434 73.07 C142.545 73.759 140.656 74.448 138.767 75.136 C136.813 75.849 134.861 76.566 132.909 77.284 C126.992 79.457 121.057 81.576 115.121 83.695 C113.976 84.105 112.831 84.514 111.652 84.936 C102.026 88.371 92.371 91.718 82.703 95.033 C76.084 97.303 69.474 99.597 62.871 101.914 C54.942 104.695 47.003 107.446 39.059 110.184 C37.929 110.573 36.799 110.962 35.634 111.364 C33.302 112.167 30.97 112.971 28.637 113.774 C-0.096 123.675 -0.096 123.675 -28.711 133.908 C-30.644 134.59 -32.602 135.199 -34.562 135.793 C-35.348 136.091 -36.133 136.389 -36.941 136.695 C-37.638 138.35 -38.302 140.018 -38.941 141.695 C-46.364 147.505 -53.754 147.454 -62.941 146.695 C-67.41 145.352 -70.301 143.655 -72.941 139.695 C-73.19 136.836 -73.312 134.116 -73.316 131.258 C-73.341 130.494 -73.365 129.73 -73.391 128.943 C-73.41 125.195 -73.401 123.31 -71.105 120.238 C-67.157 117.423 -63.749 116.695 -58.941 116.695 C-58.736 115.858 -58.736 115.858 -58.527 115.003 C-56.18 105.918 -53.097 97.095 -50.045 88.229 C-49.05 85.334 -48.061 82.437 -47.074 79.539 C-44.101 70.824 -41.108 62.119 -38.006 53.45 C-36.783 50.031 -35.574 46.607 -34.366 43.182 C-33.799 41.587 -33.224 39.995 -32.641 38.405 C-29.523 29.896 -27.259 22.707 -27.917 13.489 C-27.958 8.848 -26.391 4.611 -23.941 0.695 C-18.056 -5.178 -7.4 -1.337 0 0 Z " fill="#080808" transform="translate(91.94140625,72.3046875)"/>
<path d="M0 0 C10.365 1.707 20.577 4.098 30.812 6.438 C31.764 6.654 32.716 6.871 33.697 7.094 C50.598 10.944 67.459 14.953 84.312 19.009 C101.51 23.144 118.745 27.11 136 31 C133.237 33.763 129.98 34.528 126.348 35.73 C125.557 35.998 124.767 36.265 123.953 36.54 C122.231 37.121 120.508 37.7 118.785 38.277 C114.122 39.837 109.466 41.416 104.809 42.992 C103.839 43.32 102.87 43.647 101.871 43.985 C92.343 47.21 82.847 50.526 73.355 53.855 C56.619 59.724 39.855 65.481 23 71 C20.994 68.88 18.995 66.755 17 64.625 C16.428 64.022 15.855 63.418 15.266 62.797 C14.724 62.217 14.183 61.637 13.625 61.039 C13.122 60.505 12.62 59.971 12.102 59.42 C11 58 11 58 11 56 C10.34 56 9.68 56 9 56 C8.34 55.01 7.68 54.02 7 53 C2.65 51.814 -0.624 52.228 -5 53 C-8.002 53.089 -10.997 53.06 -14 53 C-14.99 55.475 -14.99 55.475 -16 58 C-16.33 58 -16.66 58 -17 58 C-17.427 50.246 -16.541 44.151 -13.789 36.914 C-13.461 36.009 -13.133 35.104 -12.795 34.172 C-11.754 31.317 -10.69 28.471 -9.625 25.625 C-8.918 23.695 -8.212 21.764 -7.508 19.832 C-2.464 6.043 -2.464 6.043 0 0 Z " fill="#FFFFFF" transform="translate(78,104)"/>
<path d="M0 0 C3.145 1.062 4.597 2.773 6.059 5.695 C6.892 13.567 5.493 19.627 2.059 26.695 C3.336 26.816 4.613 26.937 5.928 27.061 C11.093 27.638 16.083 28.688 21.145 29.848 C22.582 30.171 22.582 30.171 24.048 30.501 C27.178 31.207 30.306 31.92 33.434 32.633 C35.628 33.13 37.823 33.626 40.017 34.122 C54.251 37.346 68.47 40.632 82.684 43.945 C84.455 44.358 86.226 44.77 87.997 45.183 C89.724 45.585 91.452 45.988 93.18 46.391 C94.014 46.585 94.848 46.779 95.707 46.98 C99.737 47.919 103.766 48.861 107.793 49.808 C111.442 50.665 115.092 51.513 118.743 52.356 C120.671 52.803 122.598 53.259 124.524 53.716 C134.879 56.093 144.398 57.208 154.059 51.695 C155.906 49.173 157.013 46.864 158.094 43.938 C159.059 41.695 159.059 41.695 162.059 39.695 C166.946 39.395 171.453 39.937 176.246 40.883 C177.436 41.103 178.626 41.324 179.852 41.551 C183.671 42.914 184.948 44.277 187.059 47.695 C187.809 51.508 187.809 51.508 188.059 54.695 C189.131 54.365 190.204 54.035 191.309 53.695 C195.059 52.695 195.059 52.695 199.059 52.695 C199.059 54.345 199.059 55.995 199.059 57.695 C203.679 59.015 208.299 60.335 213.059 61.695 C212.729 64.005 212.399 66.315 212.059 68.695 C208.915 70.267 206.129 68.735 202.934 67.758 C202.275 67.563 201.616 67.367 200.938 67.166 C199.309 66.682 197.684 66.19 196.059 65.695 C195.729 67.675 195.399 69.655 195.059 71.695 C194.588 71.274 194.118 70.852 193.633 70.418 C192.699 69.596 192.699 69.596 191.746 68.758 C191.131 68.213 190.516 67.667 189.883 67.105 C188.006 65.494 188.006 65.494 185.059 64.695 C184.605 65.5 184.151 66.304 183.684 67.133 C182.059 69.695 182.059 69.695 180.059 70.695 C175.535 71.099 171.256 70.887 166.871 69.695 C161.084 68.177 156.919 68.471 151.332 70.531 C149.683 71.131 149.683 71.131 148 71.742 C146.823 72.18 145.646 72.619 144.434 73.07 C142.545 73.759 140.656 74.448 138.767 75.136 C136.813 75.849 134.861 76.566 132.909 77.284 C126.992 79.457 121.057 81.576 115.121 83.695 C113.976 84.105 112.831 84.514 111.652 84.936 C102.026 88.371 92.371 91.718 82.703 95.033 C76.103 97.296 69.513 99.584 62.93 101.895 C54.806 104.744 46.671 107.558 38.531 110.359 C37.358 110.763 36.184 111.168 34.975 111.584 C30.13 113.252 25.285 114.92 20.439 116.585 C16.844 117.82 13.25 119.058 9.656 120.297 C8.583 120.665 7.51 121.033 6.404 121.412 C-0.206 123.693 -6.694 126.164 -13.15 128.854 C-15.996 129.712 -17.218 129.758 -19.941 128.695 C-15.18 125.435 -9.959 123.807 -4.543 121.965 C-3.517 121.611 -2.491 121.257 -1.434 120.892 C1.853 119.758 5.143 118.633 8.434 117.508 C10.577 116.771 12.72 116.033 14.863 115.295 C19.15 113.819 23.438 112.345 27.726 110.874 C37.514 107.511 47.287 104.105 57.059 100.695 C57.905 100.4 58.751 100.105 59.623 99.801 C72.199 95.413 84.76 90.979 97.314 86.529 C100.447 85.419 103.579 84.31 106.712 83.201 C116.041 79.898 125.368 76.59 134.684 73.25 C136.77 72.503 138.857 71.757 140.944 71.011 C142.8 70.346 144.653 69.676 146.507 69.007 C153.288 66.582 160.078 64.469 167.059 62.695 C166.069 58.24 166.069 58.24 165.059 53.695 C159.798 52.38 156.661 53.744 151.621 55.383 C150.775 55.64 149.929 55.897 149.057 56.162 C148.234 56.424 147.411 56.687 146.562 56.957 C145.446 57.312 145.446 57.312 144.307 57.675 C141.896 58.647 141.896 58.647 139.655 60.722 C136.656 63.002 134.704 63.415 131.008 64 C122.199 65.703 114.001 68.725 105.596 71.818 C100.941 73.53 96.275 75.213 91.609 76.898 C90.692 77.231 89.774 77.563 88.829 77.906 C80.402 80.951 71.924 83.815 63.407 86.602 C57.83 88.43 52.278 90.31 46.746 92.273 C44.941 92.912 44.941 92.912 43.1 93.563 C40.793 94.382 38.49 95.208 36.189 96.042 C35.167 96.405 34.144 96.767 33.09 97.141 C32.188 97.466 31.286 97.791 30.357 98.125 C28.059 98.695 28.059 98.695 25.059 97.695 C30.75 94.705 36.384 92.395 42.48 90.375 C43.371 90.075 44.261 89.774 45.178 89.465 C47.074 88.825 48.971 88.188 50.869 87.553 C55.831 85.894 60.786 84.216 65.742 82.539 C66.721 82.208 67.699 81.878 68.708 81.537 C76.794 78.799 84.841 75.967 92.871 73.07 C101.894 69.817 110.931 66.645 120.059 63.695 C102.895 59.254 85.658 55.191 68.371 51.258 C50.446 47.178 32.561 42.969 14.708 38.587 C8.642 37.105 2.569 35.65 -3.504 34.195 C-4.571 33.94 -5.637 33.684 -6.736 33.421 C-9.138 32.845 -11.54 32.27 -13.941 31.695 C-14.092 32.307 -14.243 32.919 -14.398 33.55 C-16.59 42.037 -19.568 50.183 -22.629 58.383 C-23.146 59.778 -23.662 61.173 -24.178 62.568 C-25.427 65.946 -26.683 69.321 -27.941 72.695 C-28.601 72.695 -29.261 72.695 -29.941 72.695 C-28.898 67.047 -27.34 61.745 -25.375 56.352 C-25.135 55.693 -24.895 55.034 -24.648 54.356 C-23.642 51.609 -22.629 48.865 -21.607 46.125 C-18.818 38.621 -16.576 31.736 -15.941 23.695 C-13.879 21.633 -13.879 21.633 -11.941 20.695 C-12.489 17.321 -12.996 15.613 -14.941 12.695 C-17.251 13.025 -19.561 13.355 -21.941 13.695 C-22.093 14.222 -22.245 14.749 -22.402 15.292 C-24.893 23.766 -27.703 32.133 -30.504 40.508 C-30.764 41.288 -31.025 42.069 -31.293 42.873 C-36.404 58.184 -41.637 73.451 -46.941 88.695 C-47.601 88.695 -48.261 88.695 -48.941 88.695 C-47.433 80.616 -44.764 72.994 -42.06 65.256 C-41.243 62.914 -40.434 60.568 -39.628 58.222 C-37.325 51.528 -35.006 44.843 -32.594 38.188 C-29.545 29.657 -27.36 22.696 -27.945 13.504 C-27.938 8.065 -26.023 2.772 -22.152 -1.09 C-16.154 -4.386 -6.489 -1.172 0 0 Z " fill="#0A0A0A" transform="translate(91.94140625,72.3046875)"/>
<path d="M0 0 C2.429 3.644 2.162 5.712 2 10 C-12.362 15.371 -26.815 20.445 -41.312 25.438 C-53.149 29.514 -64.978 33.598 -76.73 37.91 C-88.172 42.105 -99.695 46.054 -111.221 50.011 C-118.424 52.486 -125.615 54.995 -132.805 57.508 C-133.465 57.738 -134.124 57.969 -134.804 58.206 C-138.821 59.61 -142.838 61.014 -146.855 62.419 C-150.237 63.601 -153.618 64.783 -157 65.965 C-157.999 66.314 -157.999 66.314 -159.018 66.67 C-162.303 67.818 -165.588 68.966 -168.873 70.113 C-174.915 72.222 -180.956 74.335 -186.993 76.46 C-189.102 77.2 -191.211 77.94 -193.32 78.68 C-194.761 79.189 -194.761 79.189 -196.231 79.709 C-197.101 80.014 -197.971 80.318 -198.868 80.632 C-199.623 80.898 -200.378 81.164 -201.156 81.438 C-203 82 -203 82 -205 82 C-205 81.01 -205 80.02 -205 79 C-205.66 79 -206.32 79 -207 79 C-206.01 82.465 -206.01 82.465 -205 86 C-208.305 90.132 -211.922 91.264 -217 92 C-221.366 92.38 -225.223 92.518 -229 90 C-229 88.68 -229 87.36 -229 86 C-229.99 85.67 -230.98 85.34 -232 85 C-232.66 86.32 -233.32 87.64 -234 89 C-236 87 -236 87 -236.195 84.398 C-236.172 83.401 -236.149 82.403 -236.125 81.375 C-236.107 80.372 -236.089 79.369 -236.07 78.336 C-236.047 77.565 -236.024 76.794 -236 76 C-234.35 76.66 -232.7 77.32 -231 78 C-231.33 79.65 -231.66 81.3 -232 83 C-230.68 83.33 -229.36 83.66 -228 84 C-228 82.68 -228 81.36 -228 80 C-227.094 79.951 -226.188 79.902 -225.254 79.852 C-218.291 79.424 -211.756 78.747 -205 77 C-204.67 74.03 -204.34 71.06 -204 68 C-202.721 67.602 -201.442 67.203 -200.125 66.793 C-198.417 66.258 -196.708 65.723 -195 65.188 C-194.161 64.926 -193.322 64.665 -192.457 64.396 C-185.987 62.365 -179.68 60.049 -173.367 57.578 C-172.215 57.14 -171.062 56.702 -169.875 56.25 C-168.717 55.801 -167.56 55.353 -166.367 54.891 C-162.775 53.94 -160.571 54.11 -157 55 C-156.454 54.089 -156.454 54.089 -155.896 53.159 C-153.416 50.335 -151.21 49.669 -147.664 48.449 C-147.03 48.227 -146.396 48.005 -145.743 47.777 C-143.708 47.068 -141.667 46.378 -139.625 45.688 C-138.323 45.236 -137.02 44.784 -135.719 44.33 C-128.976 41.991 -122.207 39.734 -115.434 37.486 C-104.721 33.931 -94.055 30.257 -83.405 26.516 C-70.539 22.001 -57.67 17.487 -44.75 13.125 C-43.83 12.81 -42.911 12.495 -41.964 12.17 C-38.296 10.944 -35.064 10.008 -31.203 9.555 C-27.357 8.889 -26.01 7.427 -23 5 C-19.884 3.659 -16.681 2.673 -13.438 1.688 C-12.587 1.411 -11.737 1.134 -10.861 0.85 C-3.523 -1.435 -3.523 -1.435 0 0 Z " fill="#FFFFFF" transform="translate(257,125)"/>
<path d="M0 0 C1.19 0.22 2.38 0.441 3.605 0.668 C7.425 2.031 8.701 3.394 10.812 6.812 C11.562 10.625 11.562 10.625 11.812 13.812 C12.885 13.483 13.957 13.153 15.062 12.812 C18.812 11.812 18.812 11.812 22.812 11.812 C22.812 13.463 22.812 15.113 22.812 16.812 C27.433 18.132 32.053 19.452 36.812 20.812 C36.482 23.123 36.153 25.433 35.812 27.812 C32.669 29.384 29.883 27.853 26.688 26.875 C26.029 26.68 25.37 26.484 24.691 26.283 C23.063 25.799 21.438 25.307 19.812 24.812 C19.482 26.792 19.153 28.773 18.812 30.812 C18.342 30.391 17.871 29.969 17.387 29.535 C16.453 28.713 16.453 28.713 15.5 27.875 C14.885 27.33 14.27 26.784 13.637 26.223 C11.76 24.612 11.76 24.612 8.812 23.812 C8.359 24.617 7.905 25.421 7.438 26.25 C5.812 28.812 5.812 28.812 3.812 29.812 C-0.711 30.216 -4.99 30.004 -9.375 28.812 C-15.162 27.295 -19.327 27.588 -24.914 29.648 C-26.563 30.248 -26.563 30.248 -28.246 30.859 C-29.423 31.298 -30.6 31.736 -31.812 32.188 C-33.701 32.876 -35.59 33.565 -37.479 34.253 C-39.433 34.966 -41.385 35.683 -43.337 36.401 C-49.254 38.574 -55.189 40.694 -61.125 42.812 C-62.27 43.222 -63.415 43.632 -64.594 44.053 C-74.22 47.488 -83.875 50.836 -93.543 54.15 C-100.143 56.413 -106.733 58.701 -113.316 61.012 C-121.44 63.861 -129.575 66.675 -137.715 69.477 C-138.888 69.881 -140.062 70.285 -141.271 70.701 C-146.116 72.369 -150.961 74.038 -155.807 75.702 C-159.402 76.937 -162.996 78.175 -166.59 79.414 C-168.2 79.966 -168.2 79.966 -169.842 80.529 C-176.452 82.81 -182.94 85.281 -189.396 87.971 C-192.242 88.829 -193.464 88.876 -196.188 87.812 C-191.426 84.552 -186.205 82.924 -180.789 81.082 C-179.763 80.728 -178.737 80.374 -177.68 80.009 C-174.393 78.876 -171.103 77.75 -167.812 76.625 C-165.669 75.888 -163.526 75.15 -161.383 74.412 C-157.096 72.936 -152.809 71.463 -148.521 69.991 C-138.732 66.628 -128.959 63.222 -119.188 59.812 C-118.341 59.517 -117.495 59.222 -116.624 58.918 C-104.047 54.53 -91.487 50.096 -78.932 45.646 C-75.8 44.536 -72.667 43.427 -69.534 42.318 C-60.205 39.015 -50.878 35.707 -41.562 32.367 C-39.476 31.621 -37.389 30.874 -35.302 30.128 C-33.446 29.463 -31.593 28.794 -29.739 28.124 C-22.958 25.699 -16.168 23.586 -9.188 21.812 C-10.178 17.358 -10.178 17.358 -11.188 12.812 C-15.959 11.62 -18.79 12.747 -23.25 14.312 C-30.79 16.945 -30.79 16.945 -34.188 15.812 C-32.751 15.165 -31.313 14.52 -29.875 13.875 C-29.074 13.515 -28.274 13.156 -27.449 12.785 C-25.188 11.813 -25.188 11.813 -22.188 10.812 C-20.832 8.557 -20.832 8.557 -19.688 5.875 C-15.57 -3.296 -8.848 -1.746 0 0 Z " fill="#080808" transform="translate(268.1875,113.1875)"/>
<path d="M0 0 C1.75 1.75 1.75 1.75 3 4 C2.875 6.625 2.875 6.625 2 9 C1.01 9.66 0.02 10.32 -1 11 C-1.54 13.133 -1.54 13.133 -1.727 15.738 C-3.056 24.914 -6.283 33.5 -9.34 42.222 C-10.384 45.213 -11.399 48.212 -12.414 51.213 C-13.074 53.115 -13.735 55.017 -14.398 56.918 C-14.7 57.816 -15.001 58.714 -15.311 59.638 C-15.751 60.872 -15.751 60.872 -16.201 62.13 C-16.452 62.855 -16.704 63.581 -16.963 64.328 C-18 66 -18 66 -19.921 66.718 C-21.633 66.95 -23.348 67.165 -25.062 67.375 C-28.224 68.048 -28.919 68.69 -31 71 C-29.684 62.479 -26.897 54.631 -23.938 46.562 C-22.942 43.821 -21.952 41.077 -20.965 38.332 C-20.591 37.296 -20.591 37.296 -20.21 36.239 C-18.526 31.54 -16.924 26.82 -15.379 22.074 C-14.976 20.839 -14.573 19.604 -14.158 18.332 C-13.4 15.987 -12.649 13.641 -11.906 11.291 C-11.566 10.241 -11.226 9.191 -10.875 8.109 C-10.584 7.191 -10.292 6.273 -9.992 5.327 C-8.954 2.893 -8.063 1.633 -6 0 C-3 -1 -3 -1 0 0 Z " fill="#FFFFFF" transform="translate(78,85)"/>
<path d="M0 0 C6.656 0.691 13.048 2.044 19.562 3.555 C21.248 3.941 21.248 3.941 22.967 4.334 C26.645 5.177 30.323 6.026 34 6.875 C36.571 7.466 39.143 8.056 41.714 8.646 C46.954 9.848 52.194 11.052 57.433 12.259 C64.311 13.842 71.19 15.419 78.07 16.992 C102.721 22.63 127.363 28.304 152 34 C148.837 37.163 145.749 36.97 141.375 37.145 C136.764 37.117 132.578 36.178 128.125 35.051 C127.268 34.842 126.41 34.633 125.527 34.418 C123.663 33.963 121.8 33.504 119.938 33.042 C114.817 31.771 109.689 30.531 104.562 29.285 C103.475 29.02 102.388 28.755 101.268 28.482 C89.407 25.597 77.518 22.838 65.626 20.089 C62.018 19.254 58.411 18.417 54.803 17.58 C41.037 14.385 41.037 14.385 27.257 11.246 C25.063 10.751 22.87 10.252 20.678 9.753 C18.205 9.191 15.732 8.637 13.256 8.091 C12.208 7.852 11.161 7.613 10.082 7.367 C9.208 7.172 8.334 6.978 7.433 6.777 C4.6 5.872 2.398 4.76 0 3 C0 2.01 0 1.02 0 0 Z " fill="#FFFFFF" transform="translate(77,97)"/>
<path d="M0 0 C0.251 0.628 0.503 1.256 0.761 1.903 C2.259 4.439 3.037 4.738 5.816 5.551 C6.626 5.79 7.436 6.029 8.27 6.276 C13.476 7.657 18.696 8.95 23.938 10.188 C25.855 10.645 25.855 10.645 27.811 11.111 C31.208 11.921 34.606 12.725 38.005 13.528 C41.11 14.263 44.213 15.003 47.316 15.742 C65.453 20.047 83.616 24.236 101.781 28.418 C104.535 29.052 107.288 29.687 110.042 30.323 C113.953 31.226 117.865 32.125 121.777 33.023 C122.947 33.294 124.117 33.564 125.322 33.843 C132.187 35.415 139.059 36.81 146 38 C146 38.66 146 39.32 146 40 C145.318 40.226 144.636 40.451 143.934 40.683 C122.212 47.876 100.576 55.293 79.02 62.969 C73.349 64.987 67.675 66.995 62 69 C60.986 69.359 59.972 69.717 58.928 70.086 C56.372 70.985 53.812 71.871 51.25 72.75 C50.536 73.002 49.822 73.255 49.086 73.514 C44.348 75.116 44.348 75.116 41 74 C46.691 71.01 52.326 68.699 58.422 66.68 C59.312 66.379 60.202 66.079 61.119 65.769 C63.015 65.13 64.913 64.493 66.811 63.858 C71.772 62.199 76.728 60.521 81.684 58.844 C82.662 58.513 83.641 58.182 84.649 57.842 C92.735 55.104 100.782 52.271 108.812 49.375 C117.836 46.122 126.872 42.949 136 40 C118.836 35.558 101.599 31.496 84.312 27.562 C66.387 23.483 48.503 19.274 30.649 14.892 C24.583 13.409 18.51 11.954 12.438 10.5 C11.371 10.244 10.304 9.989 9.205 9.725 C6.804 9.15 4.402 8.575 2 8 C1.849 8.612 1.699 9.224 1.544 9.855 C-0.648 18.342 -3.627 26.487 -6.688 34.688 C-7.204 36.083 -7.72 37.478 -8.236 38.873 C-9.486 42.251 -10.741 45.626 -12 49 C-12.66 49 -13.32 49 -14 49 C-12.957 43.351 -11.398 38.049 -9.434 32.656 C-9.074 31.668 -9.074 31.668 -8.707 30.661 C-7.701 27.914 -6.687 25.17 -5.665 22.429 C-2.899 14.986 -0.364 8.02 0 0 Z " fill="#000000" transform="translate(76,96)"/>
<path d="M0 0 C0 0.66 0 1.32 0 2 C-19.273 9.01 -38.561 15.955 -57.969 22.586 C-63.354 24.428 -68.727 26.303 -74.098 28.188 C-82.231 31.041 -90.377 33.859 -98.527 36.664 C-99.701 37.068 -100.874 37.472 -102.083 37.889 C-106.928 39.557 -111.773 41.225 -116.619 42.89 C-120.214 44.125 -123.808 45.363 -127.402 46.602 C-129.012 47.153 -129.012 47.153 -130.655 47.716 C-137.265 49.998 -143.753 52.469 -150.209 55.159 C-153.055 56.016 -154.277 56.063 -157 55 C-152.239 51.74 -147.017 50.112 -141.602 48.27 C-140.576 47.915 -139.55 47.561 -138.493 47.196 C-135.205 46.063 -131.915 44.938 -128.625 43.812 C-126.482 43.075 -124.338 42.338 -122.195 41.6 C-117.909 40.124 -113.621 38.65 -109.333 37.178 C-99.545 33.815 -89.772 30.41 -80 27 C-79.162 26.708 -78.323 26.415 -77.459 26.114 C-64.434 21.569 -51.426 16.979 -38.423 12.374 C-35.212 11.236 -32 10.101 -28.789 8.965 C-26.719 8.232 -24.648 7.499 -22.578 6.766 C-21.159 6.264 -21.159 6.264 -19.712 5.752 C-18.816 5.435 -17.92 5.117 -16.997 4.79 C-16.148 4.49 -15.3 4.189 -14.425 3.88 C-12.129 3.047 -9.861 2.16 -7.589 1.265 C-4 0 -4 0 0 0 Z " fill="#000000" transform="translate(229,146)"/>
<path d="M0 0 C3.101 1.412 5.54 3.096 8.125 5.312 C8.808 5.886 9.491 6.46 10.195 7.051 C12 9 12 9 14 14 C8.06 15.65 2.12 17.3 -4 19 C-4 17.02 -4 15.04 -4 13 C-8.62 11.68 -13.24 10.36 -18 9 C-17.67 6.36 -17.34 3.72 -17 1 C-11.72 2.32 -6.44 3.64 -1 5 C-0.67 3.35 -0.34 1.7 0 0 Z " fill="#000000" transform="translate(49,67)"/>
<path d="M0 0 C1.066 0.097 2.132 0.193 3.23 0.293 C4.083 0.464 4.935 0.636 5.812 0.812 C6.308 1.802 6.308 1.802 6.812 2.812 C5.981 2.801 5.15 2.789 4.293 2.777 C2.663 2.764 2.663 2.764 1 2.75 C-0.618 2.733 -0.618 2.733 -2.27 2.715 C-5.253 2.676 -5.253 2.676 -8.188 3.812 C-9.218 6.373 -9.218 6.373 -9.875 9.375 C-10.126 10.387 -10.378 11.399 -10.637 12.441 C-10.818 13.224 -11 14.006 -11.188 14.812 C-10.528 14.153 -9.868 13.493 -9.188 12.812 C-6.499 12.543 -3.896 12.725 -1.188 12.812 C-3.547 15.172 -4.966 15.304 -8.188 15.812 C-8.34 16.339 -8.492 16.866 -8.648 17.409 C-11.139 25.883 -13.949 34.25 -16.75 42.625 C-17.011 43.406 -17.271 44.186 -17.539 44.991 C-22.65 60.301 -27.883 75.568 -33.188 90.812 C-33.847 90.812 -34.508 90.812 -35.188 90.812 C-33.68 82.733 -31.01 75.111 -28.306 67.374 C-27.489 65.031 -26.68 62.686 -25.874 60.339 C-23.571 53.645 -21.252 46.96 -18.84 40.305 C-15.791 31.774 -13.606 24.813 -14.191 15.621 C-14.184 10.184 -12.261 4.922 -8.434 1.027 C-5.407 -0.609 -3.396 -0.352 0 0 Z " fill="#000000" transform="translate(78.1875,70.1875)"/>
<path d="M0 0 C0.815 0.369 1.629 0.739 2.468 1.12 C4.134 1.789 5.8 2.456 7.468 3.12 C4.687 5.901 1.373 6.706 -2.278 7.94 C-3.045 8.203 -3.812 8.467 -4.602 8.738 C-6.224 9.294 -7.847 9.847 -9.471 10.397 C-11.958 11.241 -14.442 12.096 -16.924 12.952 C-18.5 13.49 -20.076 14.028 -21.653 14.565 C-22.397 14.821 -23.14 15.077 -23.907 15.341 C-26.903 16.351 -29.348 17.12 -32.532 17.12 C-30.721 11.688 -25.164 9.004 -20.657 5.745 C-19.156 4.583 -19.156 4.583 -17.625 3.397 C-11.216 -1.216 -7.561 -2.871 0 0 Z " fill="#FFFFFF" transform="translate(82.53173828125,174.88037109375)"/>
<path d="M0 0 C0.66 1.32 1.32 2.64 2 4 C4.437 3.73 4.437 3.73 7 3 C7.66 2.01 8.32 1.02 9 0 C9.312 2.812 9.312 2.812 9 6 C6.625 7.75 6.625 7.75 4 9 C3.34 9.66 2.68 10.32 2 11 C-1.125 11.125 -1.125 11.125 -4 11 C-2.934 12.296 -2.934 12.296 -0.438 12.062 C0.367 12.042 1.171 12.021 2 12 C-1.911 26.923 -1.911 26.923 -7 30 C-10.812 29.812 -10.812 29.812 -14 29 C-12.932 23.886 -11.769 18.928 -10 14 C-8.68 14 -7.36 14 -6 14 C-5.752 13.175 -5.505 12.35 -5.25 11.5 C-3.813 7.476 -1.976 3.78 0 0 Z " fill="#FFFFFF" transform="translate(50,159)"/>
<path d="M0 0 C1.454 0.031 1.454 0.031 2.938 0.062 C3.267 1.053 3.597 2.042 3.938 3.062 C4.597 3.062 5.257 3.062 5.938 3.062 C7.457 4.738 8.905 6.48 10.312 8.25 C11.083 9.213 11.854 10.176 12.648 11.168 C13.404 12.123 14.159 13.078 14.938 14.062 C16.27 15.73 17.603 17.396 18.938 19.062 C16.292 20.385 15.431 19.781 12.656 18.883 C11.814 18.613 10.973 18.344 10.105 18.066 C8.785 17.631 8.785 17.631 7.438 17.188 C6.557 16.905 5.677 16.623 4.77 16.332 C-1.712 14.238 -1.712 14.238 -4.062 13.062 C-4.089 11.083 -4.109 9.104 -4.125 7.125 C-4.137 6.023 -4.148 4.921 -4.16 3.785 C-4.022 -0.075 -3.909 0.08 0 0 Z " fill="#FFFFFF" transform="translate(79.0625,157.9375)"/>
<path d="M0 0 C1.578 0.131 1.578 0.131 3.188 0.266 C6 0.75 6 0.75 9 2.75 C8.381 3.637 7.763 4.524 7.125 5.438 C5.346 8.211 4.089 10.664 3 13.75 C2.01 13.09 1.02 12.43 0 11.75 C-2.516 11.508 -2.516 11.508 -5.188 11.625 C-6.539 11.652 -6.539 11.652 -7.918 11.68 C-8.949 11.714 -8.949 11.714 -10 11.75 C-10.66 13.4 -11.32 15.05 -12 16.75 C-12.33 16.75 -12.66 16.75 -13 16.75 C-13.579 11.106 -11.867 6.544 -9 1.75 C-5.415 -0.64 -4.192 -0.39 0 0 Z " fill="#FFFFFF" transform="translate(79,72.25)"/>
<path d="M0 0 C0.956 0.079 1.913 0.157 2.898 0.238 C5.531 0.672 7.333 1.357 9.625 2.688 C8.635 3.017 7.645 3.347 6.625 3.688 C2.7 10.343 3.315 18.255 3.625 25.688 C0.985 25.358 -1.655 25.028 -4.375 24.688 C-3.736 24.399 -3.096 24.11 -2.438 23.812 C-0.223 22.859 -0.223 22.859 0.625 20.688 C0.996 15.774 0.894 12.52 -2.375 8.688 C-5.78 7.465 -7.966 7.746 -11.375 8.688 C-10.757 7.371 -10.131 6.06 -9.5 4.75 C-9.152 4.019 -8.804 3.288 -8.445 2.535 C-6.352 -1.079 -3.782 -0.34 0 0 Z " fill="#FFFFFF" transform="translate(260.375,114.3125)"/>
<path d="M0 0 C0.897 0.309 0.897 0.309 1.812 0.625 C2.654 4.69 3.175 8.476 2.812 12.625 C0.731 15.582 -2.049 16.926 -5.188 18.625 C-7.193 19.908 -9.193 21.2 -11.188 22.5 C-12.852 23.545 -14.518 24.588 -16.188 25.625 C-14.508 21.257 -12.554 17.043 -10.562 12.812 C-10.075 11.773 -10.075 11.773 -9.578 10.713 C-8.783 9.016 -7.985 7.321 -7.188 5.625 C-6.198 6.945 -5.207 8.265 -4.188 9.625 C-2.868 9.295 -1.547 8.965 -0.188 8.625 C-0.188 6.975 -0.188 5.325 -0.188 3.625 C-0.847 3.295 -1.507 2.965 -2.188 2.625 C-3.177 2.955 -4.168 3.285 -5.188 3.625 C-5.188 2.965 -5.188 2.305 -5.188 1.625 C-2.188 -0.375 -2.188 -0.375 0 0 Z " fill="#FFFFFF" transform="translate(71.1875,158.375)"/>
<path d="M0 0 C0.66 0.33 1.32 0.66 2 1 C2 0.34 2 -0.32 2 -1 C3.666 -1.043 5.334 -1.041 7 -1 C8 0 8 0 8.098 2.066 C8.086 2.89 8.074 3.714 8.062 4.562 C8.053 5.389 8.044 6.215 8.035 7.066 C8.024 7.704 8.012 8.343 8 9 C5.625 9.625 5.625 9.625 3 10 C2.34 9.34 1.68 8.68 1 8 C0.01 8.66 -0.98 9.32 -2 10 C-4.125 9.75 -4.125 9.75 -6 9 C-6.33 8.34 -6.66 7.68 -7 7 C-4.525 7.495 -4.525 7.495 -2 8 C-2 7.34 -2 6.68 -2 6 C-3.65 5.67 -5.3 5.34 -7 5 C-7 3.35 -7 1.7 -7 0 C-4.309 -1.345 -2.864 -0.716 0 0 Z " fill="#111111" transform="translate(309,275)"/>
<path d="M0 0 C0.784 0.495 1.567 0.99 2.375 1.5 C-0.248 4.373 -2.177 5.404 -6.148 5.668 C-7.089 5.674 -8.03 5.681 -9 5.688 C-10.404 5.709 -10.404 5.709 -11.836 5.73 C-14.786 5.487 -16.949 4.731 -19.625 3.5 C-19.625 2.51 -19.625 1.52 -19.625 0.5 C-13.105 -2.245 -6.548 -2.709 0 0 Z " fill="#FFFFFF" transform="translate(45.625,196.5)"/>
<path d="M0 0 C0.66 0 1.32 0 2 0 C2 1.98 2 3.96 2 6 C2.66 6 3.32 6 4 6 C4.33 4.02 4.66 2.04 5 0 C6.98 0 8.96 0 11 0 C11 0.66 11 1.32 11 2 C10.01 2.495 10.01 2.495 9 3 C9.99 3.66 10.98 4.32 12 5 C11.67 6.65 11.34 8.3 11 10 C6.25 11.125 6.25 11.125 4 10 C4 9.34 4 8.68 4 8 C3.34 8 2.68 8 2 8 C2 8.99 2 9.98 2 11 C1.34 11 0.68 11 0 11 C0 10.01 0 9.02 0 8 C-1.32 8 -2.64 8 -4 8 C-3.403 4.658 -2.264 2.536 0 0 Z " fill="#1F1F1F" transform="translate(322,274)"/>
<path d="M0 0 C0 0.66 0 1.32 0 2 C-0.967 2.315 -1.934 2.629 -2.93 2.953 C-11.71 5.826 -11.71 5.826 -20.312 9.188 C-25.091 11.171 -29.906 12.176 -35 13 C-32.364 9.753 -29.363 8.85 -25.469 7.52 C-24.836 7.302 -24.204 7.084 -23.553 6.86 C-22.219 6.403 -20.884 5.95 -19.548 5.501 C-17.504 4.814 -15.465 4.112 -13.426 3.408 C-3.438 0 -3.438 0 0 0 Z " fill="#000000" transform="translate(88,180)"/>
<path d="M0 0 C0.99 0.66 1.98 1.32 3 2 C3.312 4.5 3.312 4.5 3 7 C2.34 7.66 1.68 8.32 1 9 C-2.536 8.464 -2.536 8.464 -4 7 C-4.041 5.334 -4.043 3.666 -4 2 C-2.68 1.34 -1.36 0.68 0 0 Z " fill="#1A1A1A" transform="translate(69,160)"/>
<path d="M0 0 C2.97 0 5.94 0 9 0 C9 0.66 9 1.32 9 2 C8.01 2 7.02 2 6 2 C6 4.97 6 7.94 6 11 C5.01 11 4.02 11 3 11 C3 8.03 3 5.06 3 2 C2.01 2 1.02 2 0 2 C0 1.34 0 0.68 0 0 Z " fill="#000000" transform="translate(289,274)"/>
<path d="M0 0 C2.625 1.438 2.625 1.438 5 3 C4.67 4.65 4.34 6.3 4 8 C-0.875 7.125 -0.875 7.125 -2 6 C-2.041 4.334 -2.043 2.666 -2 1 C-1.34 0.67 -0.68 0.34 0 0 Z " fill="#050505" transform="translate(80,161)"/>
<path d="M0 0 C-1.311 4.234 -2.944 8.074 -5 12 C-5.66 12 -6.32 12 -7 12 C-6.745 10.372 -6.47 8.748 -6.188 7.125 C-6.037 6.22 -5.886 5.315 -5.73 4.383 C-4.773 1.26 -3.354 0 0 0 Z " fill="#FFFFFF" transform="translate(58,168)"/>
<path d="M0 0 C0 0.66 0 1.32 0 2 C-0.66 2 -1.32 2 -2 2 C-2 2.66 -2 3.32 -2 4 C-1.34 4 -0.68 4 0 4 C0 4.99 0 5.98 0 7 C-2.475 6.01 -2.475 6.01 -5 5 C-5 3.68 -5 2.36 -5 1 C-2 0 -2 0 0 0 Z " fill="#FFFFFF" transform="translate(315,276)"/>
</svg>
