<?xml version="1.0" encoding="UTF-8"?>
<!-- Generator: visioncortex VTracer 0.6.4 -->
<svg version="1.1" xmlns="http://www.w3.org/2000/svg" width="325" height="311">
<path d="M0 0 C107.25 0 214.5 0 325 0 C325 102.63 325 205.26 325 311 C217.75 311 110.5 311 0 311 C0 208.37 0 105.74 0 0 Z " fill="#F8F8F8" transform="translate(0,0)"/>
<path d="M0 0 C1.184 3.781 0.544 6.419 -0.39 10.249 C-1.628 15.833 -2.284 21.525 -3.062 27.188 C-3.407 29.66 -3.752 32.133 -4.098 34.605 C-4.247 35.69 -4.397 36.774 -4.551 37.891 C-4.991 40.936 -5.483 43.968 -6 47 C-3.03 47 -0.06 47 3 47 C3 47.33 3 47.66 3 48 C0.03 48 -2.94 48 -6 48 C-7.324 54.43 -8.248 60.429 -8 67 C-7.67 66.34 -7.34 65.68 -7 65 C-5.68 65.33 -4.36 65.66 -3 66 C-3.99 66 -4.98 66 -6 66 C-7.97 73.266 -9.095 80.481 -8 88 C-5.737 90.995 -5.456 91.314 -2 92 C8.203 92.831 17.359 91.147 27.188 88.562 C28.495 88.232 29.803 87.903 31.111 87.576 C37.602 85.947 37.602 85.947 44 84 C44.365 77.427 43.136 72.205 41 66 C40.34 66.99 39.68 67.98 39 69 C38.875 62.25 38.875 62.25 40 60 C39.34 59.67 38.68 59.34 38 59 C38.66 58.67 39.32 58.34 40 58 C39.505 54.535 39.505 54.535 39 51 C41.439 51.786 43.876 52.579 46.312 53.375 C47.348 53.708 47.348 53.708 48.404 54.047 C51.608 55.099 54.176 56.118 57 58 C57.99 58 58.98 58 60 58 C60.66 56.68 61.32 55.36 62 54 C67.291 53.818 70.963 54.167 76 56 C76.193 55.12 76.387 54.239 76.586 53.332 C76.846 52.171 77.107 51.009 77.375 49.812 C77.63 48.664 77.885 47.515 78.148 46.332 C78.896 43.405 79.85 40.784 81 38 C80.012 37.889 79.024 37.779 78.006 37.665 C74.308 37.249 70.61 36.826 66.913 36.401 C65.319 36.219 63.725 36.038 62.13 35.86 C59.826 35.602 57.522 35.337 55.219 35.07 C54.516 34.993 53.814 34.916 53.09 34.836 C48.262 34.269 43.697 33.257 39 32 C38.505 32.99 38.505 32.99 38 34 C39.435 22.455 42.201 11.276 45 0 C46.12 3.363 45.857 5.57 45.004 8.984 C44.661 10.386 44.661 10.386 44.311 11.816 C44.064 12.784 43.817 13.753 43.562 14.75 C43.32 15.734 43.077 16.717 42.826 17.73 C42.226 20.156 41.617 22.579 41 25 C41.619 25.037 42.239 25.073 42.877 25.111 C51.105 25.717 59.009 27.317 67.062 29.062 C69.657 29.619 72.252 30.171 74.848 30.723 C75.982 30.968 77.117 31.213 78.285 31.465 C80.866 32.064 80.866 32.064 83 32 C84.32 29.03 85.64 26.06 87 23 C88 25 88 25 87.471 26.939 C87.172 27.712 86.874 28.485 86.566 29.281 C86.247 30.123 85.928 30.965 85.6 31.832 C85.257 32.712 84.915 33.593 84.562 34.5 C83.894 36.239 83.229 37.978 82.566 39.719 C82.267 40.492 81.967 41.264 81.658 42.061 C80.893 43.974 80.893 43.974 81 46 C81.66 46 82.32 46 83 46 C83.33 44.68 83.66 43.36 84 42 C85.32 42 86.64 42 88 42 C88.124 40.907 88.248 39.814 88.375 38.688 C89 35 89 35 91 32 C91 32.99 91 33.98 91 35 C96.61 35 102.22 35 108 35 C108.33 32.03 108.66 29.06 109 26 C109.33 26 109.66 26 110 26 C109.94 26.593 109.88 27.186 109.819 27.796 C109.171 34.237 108.548 40.68 107.938 47.125 C107.847 48.081 107.756 49.038 107.662 50.023 C107.441 52.349 107.22 54.674 107 57 C106.67 57 106.34 57 106 57 C105.67 54.03 105.34 51.06 105 48 C101.938 52.841 100.466 56.293 100 62 C101.32 62.33 102.64 62.66 104 63 C104 62.34 104 61.68 104 61 C103.01 60.34 102.02 59.68 101 59 C101.33 58.01 101.66 57.02 102 56 C102.99 56 103.98 56 105 56 C105 56.66 105 57.32 105 58 C106.766 58.221 108.531 58.441 110.297 58.662 C113.865 59.108 117.432 59.554 121 60 C122.147 60.143 122.147 60.143 123.316 60.29 C126.158 60.645 126.158 60.645 129 61 C129 61.33 129 61.66 129 62 C123.56 62.086 118.341 61.915 112.945 61.219 C110.829 60.944 110.829 60.944 108 61 C108.816 66.953 108.816 66.953 111.75 72 C114.483 73.215 117.037 73.663 120 74 C119.67 72.68 119.34 71.36 119 70 C119.66 70 120.32 70 121 70 C122.779 77.117 122.279 83.163 120 90 C118.545 87.089 119.365 85.042 119.938 81.875 C120.229 80.231 120.229 80.231 120.527 78.555 C120.761 77.29 120.761 77.29 121 76 C119.783 75.918 118.566 75.835 117.312 75.75 C113.132 75.188 110.816 74.313 108 71 C107.024 68.036 106.442 65.086 106 62 C105.161 64.603 104.329 67.207 103.5 69.812 C103.262 70.55 103.023 71.288 102.777 72.049 C101.801 75.133 101 77.745 101 81 C98.028 79.875 95.666 78.777 93 77 C94.281 75.293 95.618 73.626 97 72 C97.66 72 98.32 72 99 72 C99 71.34 99 70.68 99 70 C99.99 70 100.98 70 102 70 C102.33 68.35 102.66 66.7 103 65 C101.02 64.505 101.02 64.505 99 64 C98.402 64.825 97.804 65.65 97.188 66.5 C96.466 67.325 95.744 68.15 95 69 C94.01 69 93.02 69 92 69 C91.34 67.35 90.68 65.7 90 64 C90 64.99 90 65.98 90 67 C89.722 68.516 89.722 68.516 89.438 70.062 C88.724 72.926 88.724 72.926 90 75 C89.01 75.99 88.02 76.98 87 78 C87.33 78.99 87.66 79.98 88 81 C88.66 79.35 89.32 77.7 90 76 C90.33 76 90.66 76 91 76 C91 78.31 91 80.62 91 83 C93.31 83.33 95.62 83.66 98 84 C98 83.34 98 82.68 98 82 C98.66 82.33 99.32 82.66 100 83 C99.651 84.097 99.301 85.194 98.941 86.324 C98.482 87.779 98.022 89.233 97.562 90.688 C97.332 91.409 97.102 92.13 96.865 92.873 C95.703 96.562 94.656 100.18 94 104 C94.743 103.649 95.485 103.299 96.25 102.938 C99.132 101.955 100.212 101.967 103 103 C102.67 103.99 102.34 104.98 102 106 C102 105.34 102 104.68 102 104 C101.34 104 100.68 104 100 104 C100.137 104.54 100.274 105.08 100.416 105.637 C101.768 111.272 102.411 116.662 102.621 122.445 C102.678 123.837 102.678 123.837 102.735 125.257 C103.226 139.045 103.111 152.848 103.069 166.642 C103.058 170.418 103.054 174.193 103.049 177.969 C103.038 185.313 103.021 192.656 103 200 C103.99 200.33 104.98 200.66 106 201 C105.01 201 104.02 201 103 201 C103.33 202.98 103.66 204.96 104 207 C103.34 205.68 102.68 204.36 102 203 C94.469 205.869 87.509 209.231 80.634 213.408 C76.303 216 76.303 216 73 216 C73.186 216.907 73.371 217.815 73.562 218.75 C74.352 224.268 74.725 231.866 71.989 236.837 C70.776 239.489 70.745 241.464 70.727 244.375 C70.709 245.433 70.691 246.492 70.672 247.582 C70.649 249.274 70.649 249.274 70.625 251 C70.33 262.731 68.726 273.617 66 285 C64.735 290.406 63.735 295.607 63.344 301.152 C63 303 63 303 61 305 C61.33 300.38 61.66 295.76 62 291 C60.68 291.33 59.36 291.66 58 292 C57.01 291.34 56.02 290.68 55 290 C55 289.01 55 288.02 55 287 C53.35 287 51.7 287 50 287 C49.856 286.051 49.711 285.103 49.562 284.125 C48.37 280.871 48.37 280.871 45.863 280.156 C43.578 279.668 41.32 279.277 39 279 C39 278.34 39 277.68 39 277 C41.97 277.33 44.94 277.66 48 278 C48 276.68 48 275.36 48 274 C47.362 273.879 46.724 273.758 46.066 273.633 C45.24 273.465 44.414 273.298 43.562 273.125 C42.739 272.963 41.915 272.8 41.066 272.633 C40.384 272.424 39.703 272.215 39 272 C38.67 271.34 38.34 270.68 38 270 C44.93 271.485 44.93 271.485 52 273 C52.33 275.64 52.66 278.28 53 281 C56.665 269.138 57.485 258.383 57 246 C56.01 248.31 55.02 250.62 54 253 C54.66 253.33 55.32 253.66 56 254 C50.222 254.12 44.72 253.832 39 253 C38.67 252.01 38.34 251.02 38 250 C37.34 250 36.68 250 36 250 C35.909 251.031 35.909 251.031 35.816 252.082 C35.733 252.983 35.649 253.884 35.562 254.812 C35.481 255.706 35.4 256.599 35.316 257.52 C35 260 35 260 34 263 C34.276 265.009 34.602 267.012 35 269 C33.02 266.03 31.35 263.307 30 260 C30.832 258.133 30.832 258.133 32 256 C32.765 253.394 33.447 250.775 34.121 248.145 C34.556 247.083 34.556 247.083 35 246 C38.693 244.769 41.881 245.128 45.688 245.438 C46.389 245.49 47.091 245.542 47.814 245.596 C49.543 245.725 51.272 245.862 53 246 C52.01 241.38 51.02 236.76 50 232 C48.02 232.99 48.02 232.99 46 234 C41.195 234.759 38.823 232.743 35 230 C34.01 229.67 33.02 229.34 32 229 C32.095 230.027 32.191 231.055 32.289 232.113 C32.981 240.418 33.093 247.835 31 256 C30.67 256 30.34 256 30 256 C30.005 255.35 30.01 254.701 30.016 254.031 C30.037 251.042 30.05 248.052 30.062 245.062 C30.075 243.53 30.075 243.53 30.088 241.967 C30.107 235.888 29.798 230.027 29 224 C29.99 224.33 30.98 224.66 32 225 C32.33 222.69 32.66 220.38 33 218 C34.097 221.29 33.8 222.713 33 226 C33.99 226.33 34.98 226.66 36 227 C36.66 225.68 37.32 224.36 38 223 C38 224.98 38 226.96 38 229 C38.66 229 39.32 229 40 229 C40.495 226.03 40.495 226.03 41 223 C41.33 223 41.66 223 42 223 C42.495 226.465 42.495 226.465 43 230 C43.99 230.33 44.98 230.66 46 231 C45.942 230.383 45.884 229.765 45.824 229.129 C45.442 221.961 47.252 217.969 51 212 C51.707 210.35 52.4 208.692 53 207 C53.66 207 54.32 207 55 207 C55 206.34 55 205.68 55 205 C60.75 203.875 60.75 203.875 63 205 C62.67 202.36 62.34 199.72 62 197 C60.68 197 59.36 197 58 197 C58 196.01 58 195.02 58 194 C54.372 195.866 54.372 195.866 52 199 C51.34 198.67 50.68 198.34 50 198 C51.32 196.35 52.64 194.7 54 193 C51.69 193.33 49.38 193.66 47 194 C47.66 193.01 48.32 192.02 49 191 C47.68 191 46.36 191 45 191 C44.67 190.34 44.34 189.68 44 189 C44.33 188.34 44.66 187.68 45 187 C43.02 187.33 41.04 187.66 39 188 C39 187.34 39 186.68 39 186 C35.179 186.531 32.938 187.497 30 190 C31.204 187.506 32.454 185.319 34 183 C30.625 183.547 28.918 184.055 26 186 C27.75 182.125 27.75 182.125 30 181 C28.02 180.67 26.04 180.34 24 180 C23.67 180.99 23.34 181.98 23 183 C22.34 183 21.68 183 21 183 C20.773 183.639 20.546 184.279 20.312 184.938 C17.967 190.409 15.441 195.934 11 200 C10.432 199.541 9.863 199.082 9.277 198.609 C4.684 194.959 0.18 191.755 -5 189 C-5 188.34 -5 187.68 -5 187 C-5.99 187 -6.98 187 -8 187 C-10.269 195.002 -11.006 203.074 -11.855 211.328 C-11.975 212.414 -12.095 213.499 -12.219 214.617 C-12.321 215.603 -12.424 216.589 -12.529 217.605 C-13 220 -13 220 -15 222 C-14.01 212.1 -13.02 202.2 -12 192 C-12.495 192.99 -12.495 192.99 -13 194 C-13.66 193.67 -14.32 193.34 -15 193 C-14.34 191.886 -13.68 190.773 -13 189.625 C-10.573 184.753 -10.219 180.36 -11 175 C-12.382 171.648 -12.382 171.648 -14 169 C-14 168.01 -14 167.02 -14 166 C-14.66 166 -15.32 166 -16 166 C-16.433 165.216 -16.866 164.433 -17.312 163.625 C-19.296 160.539 -20.629 160.177 -24 159 C-24.049 159.964 -24.098 160.928 -24.148 161.922 C-24.223 163.185 -24.298 164.448 -24.375 165.75 C-24.445 167.003 -24.514 168.256 -24.586 169.547 C-24.953 172.61 -25.397 174.42 -27 177 C-26.402 164.349 -24.388 152.056 -22.242 139.594 C-21.994 138.146 -21.747 136.698 -21.5 135.25 C-21.377 134.531 -21.254 133.812 -21.128 133.072 C-19.907 125.76 -18.977 118.413 -18.09 111.054 C-17.583 106.961 -17.038 102.951 -16.066 98.941 C-14.3 91.411 -13.516 83.661 -12.5 76 C-12.077 72.812 -11.65 69.625 -11.219 66.438 C-11.08 65.368 -11.08 65.368 -10.938 64.278 C-10.449 60.667 -9.834 57.137 -9.014 53.586 C-7.917 48.815 -7.216 44.029 -6.562 39.18 C-6.305 37.327 -6.047 35.474 -5.789 33.621 C-5.393 30.74 -4.998 27.859 -4.604 24.978 C-4.22 22.17 -3.829 19.362 -3.438 16.555 C-3.323 15.7 -3.208 14.846 -3.09 13.966 C-2.416 9.151 -1.455 4.64 0 0 Z " fill="#F5F5F5" transform="translate(120,3)"/>
<path d="M0 0 C1.12 3.363 0.857 5.57 0.004 8.984 C-0.225 9.919 -0.454 10.854 -0.689 11.816 C-0.936 12.784 -1.183 13.753 -1.438 14.75 C-1.68 15.734 -1.923 16.717 -2.174 17.73 C-2.774 20.156 -3.383 22.579 -4 25 C-3.381 25.037 -2.761 25.073 -2.123 25.111 C6.105 25.717 14.009 27.317 22.062 29.062 C24.657 29.619 27.252 30.171 29.848 30.723 C30.982 30.968 32.117 31.213 33.285 31.465 C35.866 32.064 35.866 32.064 38 32 C39.98 27.545 39.98 27.545 42 23 C43 25 43 25 42.471 26.939 C42.172 27.712 41.874 28.485 41.566 29.281 C41.247 30.123 40.928 30.965 40.6 31.832 C40.086 33.153 40.086 33.153 39.562 34.5 C38.894 36.239 38.229 37.978 37.566 39.719 C37.267 40.492 36.967 41.264 36.658 42.061 C35.893 43.974 35.893 43.974 36 46 C36.66 46 37.32 46 38 46 C38.33 44.68 38.66 43.36 39 42 C40.32 42 41.64 42 43 42 C43.124 40.907 43.248 39.814 43.375 38.688 C44 35 44 35 46 32 C46 32.99 46 33.98 46 35 C51.61 35 57.22 35 63 35 C63.33 32.03 63.66 29.06 64 26 C64.33 26 64.66 26 65 26 C64.91 26.889 64.91 26.889 64.819 27.796 C64.171 34.237 63.548 40.68 62.938 47.125 C62.847 48.081 62.756 49.038 62.662 50.023 C62.441 52.349 62.22 54.674 62 57 C61.67 57 61.34 57 61 57 C60.505 52.545 60.505 52.545 60 48 C56.938 52.841 55.466 56.293 55 62 C56.32 62.33 57.64 62.66 59 63 C59 62.34 59 61.68 59 61 C57.515 60.01 57.515 60.01 56 59 C56.33 58.01 56.66 57.02 57 56 C57.99 56 58.98 56 60 56 C60 56.66 60 57.32 60 58 C61.766 58.221 63.531 58.441 65.297 58.662 C68.865 59.108 72.432 59.554 76 60 C76.764 60.096 77.529 60.191 78.316 60.29 C81.158 60.645 81.158 60.645 84 61 C84 61.33 84 61.66 84 62 C78.56 62.086 73.341 61.915 67.945 61.219 C65.829 60.944 65.829 60.944 63 61 C63.816 66.953 63.816 66.953 66.75 72 C69.483 73.215 72.037 73.663 75 74 C74.67 72.68 74.34 71.36 74 70 C74.66 70 75.32 70 76 70 C77.779 77.117 77.279 83.163 75 90 C73.545 87.089 74.365 85.042 74.938 81.875 C75.132 80.779 75.327 79.684 75.527 78.555 C75.761 77.29 75.761 77.29 76 76 C74.783 75.918 73.566 75.835 72.312 75.75 C68.132 75.188 65.816 74.313 63 71 C62.024 68.036 61.442 65.086 61 62 C60.161 64.603 59.329 67.207 58.5 69.812 C58.262 70.55 58.023 71.288 57.777 72.049 C56.801 75.133 56 77.745 56 81 C53.028 79.875 50.666 78.777 48 77 C49.281 75.293 50.618 73.626 52 72 C52.66 72 53.32 72 54 72 C54 71.34 54 70.68 54 70 C54.99 70 55.98 70 57 70 C57.33 68.35 57.66 66.7 58 65 C56.68 64.67 55.36 64.34 54 64 C53.402 64.825 52.804 65.65 52.188 66.5 C51.466 67.325 50.744 68.15 50 69 C49.01 69 48.02 69 47 69 C46.34 67.35 45.68 65.7 45 64 C45 64.99 45 65.98 45 67 C44.722 68.516 44.722 68.516 44.438 70.062 C43.724 72.926 43.724 72.926 45 75 C44.01 75.99 43.02 76.98 42 78 C42.33 78.99 42.66 79.98 43 81 C43.66 79.35 44.32 77.7 45 76 C45.33 76 45.66 76 46 76 C46 78.31 46 80.62 46 83 C48.31 83.33 50.62 83.66 53 84 C53 83.34 53 82.68 53 82 C53.99 82.495 53.99 82.495 55 83 C54.651 84.097 54.301 85.194 53.941 86.324 C53.482 87.779 53.022 89.233 52.562 90.688 C52.332 91.409 52.102 92.13 51.865 92.873 C50.703 96.562 49.656 100.18 49 104 C49.743 103.649 50.485 103.299 51.25 102.938 C54.132 101.955 55.212 101.967 58 103 C57.505 104.485 57.505 104.485 57 106 C57 105.34 57 104.68 57 104 C56.34 104 55.68 104 55 104 C55.137 104.54 55.274 105.08 55.416 105.637 C56.768 111.272 57.411 116.662 57.621 122.445 C57.659 123.373 57.697 124.301 57.735 125.257 C58.226 139.045 58.111 152.848 58.069 166.642 C58.058 170.418 58.054 174.193 58.049 177.969 C58.038 185.313 58.021 192.656 58 200 C58.99 200.33 59.98 200.66 61 201 C60.01 201 59.02 201 58 201 C58.33 202.98 58.66 204.96 59 207 C58.34 205.68 57.68 204.36 57 203 C55.68 203.33 54.36 203.66 53 204 C53.33 203.34 53.66 202.68 54 202 C54.99 202 55.98 202 57 202 C56.485 164.276 56.485 164.276 55.5 126.562 C55.447 124.966 55.447 124.966 55.393 123.337 C55.149 116.867 54.648 110.442 54 104 C51.209 105.207 49.395 106.217 48 108.98 C47.27 110.965 46.629 112.981 46 115 C45.67 115 45.34 115 45 115 C44.788 109.808 45.409 105.873 47 101 C45.68 101 44.36 101 43 101 C42.818 102.052 42.818 102.052 42.633 103.125 C41.627 108.82 40.477 114.409 39 120 C38.67 120 38.34 120 38 120 C38.4 115.454 38.904 111.047 40.062 106.625 C41.125 103.14 41.125 103.14 41 100 C41 99.01 41 98.02 41 97 C41.99 96.34 42.98 95.68 44 95 C44 95.99 44 96.98 44 98 C45.65 98 47.3 98 49 98 C49.133 97.385 49.266 96.77 49.402 96.137 C49.579 95.328 49.756 94.52 49.938 93.688 C50.112 92.887 50.286 92.086 50.465 91.262 C51 89 51 89 52 86 C49.36 85.67 46.72 85.34 44 85 C44.278 86.114 44.278 86.114 44.562 87.25 C45.26 91.637 45.26 91.637 44 94 C40.442 95.813 36.921 97.216 33 98 C33 97.01 33 96.02 33 95 C30.03 94.505 30.03 94.505 27 94 C27 93.34 27 92.68 27 92 C26.01 91.67 25.02 91.34 24 91 C24.33 89.68 24.66 88.36 25 87 C25 87.66 25 88.32 25 89 C25.66 88.67 26.32 88.34 27 88 C27.144 87.422 27.289 86.845 27.438 86.25 C28.135 83.46 29.471 81.421 31 79 C31.33 78.34 31.66 77.68 32 77 C32.66 77 33.32 77 34 77 C34 77.66 34 78.32 34 79 C34.66 78.67 35.32 78.34 36 78 C35.505 77.546 35.01 77.093 34.5 76.625 C33 75 33 75 33 73 C31.68 72.34 30.36 71.68 29 71 C29.99 69.35 30.98 67.7 32 66 C29.03 65.505 29.03 65.505 26 65 C25.136 66.781 25.136 66.781 25 69 C26.854 71.271 26.854 71.271 29 73 C25.719 71.791 23.102 70.468 20.312 68.375 C13.171 63.452 4.949 60.378 -3 57 C-3.33 58.98 -3.66 60.96 -4 63 C-2.907 62.938 -1.814 62.876 -0.688 62.812 C3 63 3 63 4.688 64.219 C6.324 66.44 6.489 67.954 6.688 70.688 C6.786 71.9 6.786 71.9 6.887 73.137 C6.924 73.752 6.961 74.366 7 75 C6.67 75 6.34 75 6 75 C5.01 72.03 4.02 69.06 3 66 C1.35 65.67 -0.3 65.34 -2 65 C-1.505 66.052 -1.505 66.052 -1 67.125 C0.09 70.26 0.153 72.706 0 76 C-0.33 76 -0.66 76 -1 76 C-1.99 72.7 -2.98 69.4 -4 66 C-4.66 66.99 -5.32 67.98 -6 69 C-6.125 62.25 -6.125 62.25 -5 60 C-5.66 59.67 -6.32 59.34 -7 59 C-6.01 58.505 -6.01 58.505 -5 58 C-5.33 55.69 -5.66 53.38 -6 51 C-3.561 51.786 -1.124 52.579 1.312 53.375 C2.348 53.708 2.348 53.708 3.404 54.047 C6.608 55.099 9.176 56.118 12 58 C12.99 58 13.98 58 15 58 C15.66 56.68 16.32 55.36 17 54 C22.291 53.818 25.963 54.167 31 56 C31.193 55.12 31.387 54.239 31.586 53.332 C31.846 52.171 32.107 51.009 32.375 49.812 C32.63 48.664 32.885 47.515 33.148 46.332 C33.896 43.405 34.85 40.784 36 38 C35.012 37.889 34.024 37.779 33.006 37.665 C29.308 37.249 25.61 36.826 21.913 36.401 C20.319 36.219 18.725 36.038 17.13 35.86 C14.826 35.602 12.522 35.337 10.219 35.07 C9.165 34.955 9.165 34.955 8.09 34.836 C3.262 34.269 -1.303 33.257 -6 32 C-6.33 32.66 -6.66 33.32 -7 34 C-5.565 22.455 -2.799 11.276 0 0 Z " fill="#1A1A1A" transform="translate(165,3)"/>
<path d="M0 0 C1.98 0.66 3.96 1.32 6 2 C6 2.66 6 3.32 6 4 C7.268 4.371 7.268 4.371 8.562 4.75 C12.384 6.14 15.519 7.911 19 10 C18.586 16.631 17.904 22.617 16 29 C13.698 40.457 13.377 52.013 12.896 63.649 C12.503 72.919 12.036 81.914 10 91 C9.865 91.886 9.731 92.773 9.592 93.686 C9 96 9 96 6.523 97.66 C5.484 98.123 4.445 98.586 3.375 99.062 C-0.219 100.718 -3.73 102.34 -7.125 104.375 C-10 106 -10 106 -12 106 C-14.253 80.204 -16.25 52.413 -7.869 27.588 C-6.638 23.921 -5.568 20.21 -4.481 16.498 C-3.742 13.998 -2.975 11.508 -2.199 9.02 C-1.282 6.035 -0.525 3.083 0 0 Z " fill="#FFFFFF" transform="translate(239,95)"/>
<path d="M0 0 C8.483 1.488 16.093 4.718 24 8 C25.686 8.67 27.374 9.337 29.062 10 C30.71 10.663 32.355 11.33 34 12 C35.054 12.428 36.109 12.856 37.195 13.297 C44.841 16.478 52.092 20.072 59.355 24.031 C64.498 26.831 69.746 29.417 75 32 C75 32.66 75 33.32 75 34 C75.99 34 76.98 34 78 34 C80.136 37.204 80.231 38.019 80.125 41.688 C80.107 42.496 80.089 43.304 80.07 44.137 C80.047 44.752 80.024 45.366 80 46 C80.66 46 81.32 46 82 46 C82 46.66 82 47.32 82 48 C82.66 48 83.32 48 84 48 C87.568 56.997 88.548 64.332 87 74 C86.666 74.607 86.333 75.214 85.989 75.839 C84.776 78.49 84.745 80.465 84.727 83.375 C84.709 84.433 84.691 85.492 84.672 86.582 C84.649 88.274 84.649 88.274 84.625 90 C84.33 101.731 82.726 112.617 80 124 C78.735 129.406 77.735 134.607 77.344 140.152 C77 142 77 142 75 144 C75.33 139.38 75.66 134.76 76 130 C74.68 130.33 73.36 130.66 72 131 C70.515 130.01 70.515 130.01 69 129 C69 128.01 69 127.02 69 126 C67.35 126 65.7 126 64 126 C63.856 125.051 63.711 124.103 63.562 123.125 C62.37 119.871 62.37 119.871 59.863 119.156 C57.578 118.668 55.32 118.277 53 118 C53 117.34 53 116.68 53 116 C55.97 116.33 58.94 116.66 62 117 C62 115.68 62 114.36 62 113 C61.043 112.818 61.043 112.818 60.066 112.633 C59.24 112.465 58.414 112.298 57.562 112.125 C56.739 111.963 55.915 111.8 55.066 111.633 C54.384 111.424 53.703 111.215 53 111 C52.67 110.34 52.34 109.68 52 109 C56.62 109.99 61.24 110.98 66 112 C66.495 115.96 66.495 115.96 67 120 C70.665 108.138 71.485 97.383 71 85 C70.01 87.31 69.02 89.62 68 92 C68.66 92.33 69.32 92.66 70 93 C64.222 93.12 58.72 92.832 53 92 C52.67 91.01 52.34 90.02 52 89 C51.34 89 50.68 89 50 89 C49.909 90.031 49.909 90.031 49.816 91.082 C49.733 91.983 49.649 92.884 49.562 93.812 C49.481 94.706 49.4 95.599 49.316 96.52 C49 99 49 99 48 102 C48.276 104.009 48.602 106.012 49 108 C47.02 105.03 45.35 102.307 44 99 C44.832 97.133 44.832 97.133 46 95 C46.765 92.394 47.447 89.775 48.121 87.145 C48.411 86.437 48.701 85.729 49 85 C52.693 83.769 55.881 84.128 59.688 84.438 C60.389 84.49 61.091 84.542 61.814 84.596 C63.543 84.725 65.272 84.862 67 85 C66.01 80.38 65.02 75.76 64 71 C62.02 71.99 62.02 71.99 60 73 C55.195 73.759 52.823 71.743 49 69 C48.01 68.67 47.02 68.34 46 68 C46.095 69.027 46.191 70.055 46.289 71.113 C46.981 79.418 47.093 86.835 45 95 C44.67 95 44.34 95 44 95 C44.005 94.35 44.01 93.701 44.016 93.031 C44.037 90.042 44.05 87.052 44.062 84.062 C44.075 82.53 44.075 82.53 44.088 80.967 C44.107 74.888 43.798 69.027 43 63 C43.99 63.33 44.98 63.66 46 64 C46.33 61.69 46.66 59.38 47 57 C48.097 60.29 47.8 61.713 47 65 C47.99 65.33 48.98 65.66 50 66 C50.66 64.68 51.32 63.36 52 62 C52 63.98 52 65.96 52 68 C52.66 68 53.32 68 54 68 C54.33 66.02 54.66 64.04 55 62 C55.33 62 55.66 62 56 62 C56.495 65.465 56.495 65.465 57 69 C57.99 69.33 58.98 69.66 60 70 C59.942 69.383 59.884 68.765 59.824 68.129 C59.442 60.961 61.252 56.969 65 51 C65.707 49.35 66.4 47.692 67 46 C67.66 46 68.32 46 69 46 C69 45.34 69 44.68 69 44 C74.75 42.875 74.75 42.875 77 44 C76.505 40.04 76.505 40.04 76 36 C74.68 36 73.36 36 72 36 C72 35.01 72 34.02 72 33 C68.372 34.866 68.372 34.866 66 38 C65.34 37.67 64.68 37.34 64 37 C65.32 35.35 66.64 33.7 68 32 C64.535 32.495 64.535 32.495 61 33 C61.66 32.01 62.32 31.02 63 30 C61.68 30 60.36 30 59 30 C58.505 29.01 58.505 29.01 58 28 C58.33 27.34 58.66 26.68 59 26 C56.03 26.495 56.03 26.495 53 27 C53 26.34 53 25.68 53 25 C49.179 25.531 46.938 26.497 44 29 C45.204 26.506 46.454 24.319 48 22 C44.625 22.547 42.918 23.055 40 25 C41.75 21.125 41.75 21.125 44 20 C43.031 19.876 42.061 19.752 41.062 19.625 C40.052 19.419 39.041 19.213 38 19 C37.505 18.01 37.505 18.01 37 17 C35.35 17.33 33.7 17.66 32 18 C32 17.01 32 16.02 32 15 C28.39 15.656 28.39 15.656 25 17 C25.33 16.01 25.66 15.02 26 14 C26.66 13.67 27.32 13.34 28 13 C25.03 12.505 25.03 12.505 22 12 C21.67 12.99 21.34 13.98 21 15 C20.34 14.67 19.68 14.34 19 14 C19.66 13.01 20.32 12.02 21 11 C18.509 9.755 17.589 10.223 15 11 C15.33 10.34 15.66 9.68 16 9 C12.99 8.066 12.133 7.956 9 9 C9 8.34 9 7.68 9 7 C9.66 7 10.32 7 11 7 C11 6.34 11 5.68 11 5 C8.69 5.33 6.38 5.66 4 6 C4 5.01 4 4.02 4 3 C2.68 3 1.36 3 0 3 C0 2.01 0 1.02 0 0 Z " fill="#050505" transform="translate(106,164)"/>
<path d="M0 0 C2.557 0.364 2.557 0.364 6.027 0.289 C10.525 1.647 11.799 4.017 14.273 7.867 C15.452 10.544 15.55 12.397 15.34 15.289 C16 15.289 16.66 15.289 17.34 15.289 C21.239 23.257 21.053 31.584 21.34 40.289 C20.35 40.784 20.35 40.784 19.34 41.289 C16.52 40.074 16.52 40.074 13.215 38.352 C12.119 37.786 11.023 37.22 9.895 36.637 C8.63 35.97 8.63 35.97 7.34 35.289 C7.34 34.629 7.34 33.969 7.34 33.289 C5.69 32.959 4.04 32.629 2.34 32.289 C-0.882 41.983 -3.592 51.705 -5.872 61.665 C-6.062 62.496 -6.253 63.327 -6.449 64.184 C-6.629 64.975 -6.808 65.767 -6.993 66.583 C-7.418 68.308 -7.891 70.023 -8.424 71.718 C-10.751 79.179 -11.054 86.055 -10.953 93.832 C-10.947 95.706 -10.947 95.706 -10.94 97.619 C-10.926 100.902 -10.9 104.184 -10.866 107.467 C-10.835 110.833 -10.822 114.199 -10.807 117.564 C-10.774 124.14 -10.724 130.714 -10.66 137.289 C-8.185 136.299 -8.185 136.299 -5.66 135.289 C-5.66 135.949 -5.66 136.609 -5.66 137.289 C-9.031 138.787 -10.865 139.289 -14.66 139.289 C-14.67 138.524 -14.681 137.758 -14.691 136.969 C-14.791 129.648 -14.893 122.326 -14.999 115.004 C-15.054 111.243 -15.107 107.481 -15.157 103.72 C-15.428 82.721 -15.428 82.721 -16.133 61.734 C-16.17 60.891 -16.207 60.047 -16.245 59.178 C-16.509 53.85 -17.027 48.586 -17.66 43.289 C-16.175 42.794 -16.175 42.794 -14.66 42.289 C-18.607 42.11 -21.258 42.196 -24.66 44.289 C-23.975 39.295 -22.64 34.692 -21.098 29.914 C-20.864 29.178 -20.63 28.442 -20.389 27.684 C-19.816 25.884 -19.239 24.086 -18.66 22.289 C-18.99 22.619 -19.32 22.949 -19.66 23.289 C-22.331 23.43 -24.984 23.332 -27.66 23.289 C-27.66 21.309 -27.66 19.329 -27.66 17.289 C-28.32 18.609 -28.98 19.929 -29.66 21.289 C-30.32 20.959 -30.98 20.629 -31.66 20.289 C-30.91 15.539 -30.91 15.539 -28.66 13.289 C-28.99 12.299 -29.32 11.309 -29.66 10.289 C-29.413 9.33 -29.413 9.33 -29.16 8.352 C-28.583 5.971 -28.92 4.592 -29.66 2.289 C-28.34 2.949 -27.02 3.609 -25.66 4.289 C-25.66 5.609 -25.66 6.929 -25.66 8.289 C-22.396 6.485 -20.771 5.455 -18.66 2.289 C-17.01 2.619 -15.36 2.949 -13.66 3.289 C-14.32 5.269 -14.98 7.249 -15.66 9.289 C-16.65 9.289 -17.64 9.289 -18.66 9.289 C-18.66 9.949 -18.66 10.609 -18.66 11.289 C-19.952 12.662 -21.285 13.999 -22.66 15.289 C-21.34 16.609 -20.02 17.929 -18.66 19.289 C-16.03 14.627 -15.015 9.447 -13.66 4.309 C-13.33 3.312 -13 2.316 -12.66 1.289 C-12 0.959 -11.34 0.629 -10.66 0.289 C-10.513 1.32 -10.513 1.32 -10.363 2.371 C-10.214 3.272 -10.064 4.173 -9.91 5.102 C-9.771 5.995 -9.632 6.888 -9.488 7.809 C-8.464 10.875 -7.439 11.701 -4.66 13.289 C-2.548 14.056 -2.548 14.056 -0.41 14.477 C1.446 14.879 1.446 14.879 3.34 15.289 C3.01 19.579 2.68 23.869 2.34 28.289 C3.101 23.723 3.449 19.973 3.402 15.414 C3.393 14.262 3.384 13.109 3.375 11.922 C3.363 11.053 3.352 10.184 3.34 9.289 C3.01 10.609 2.68 11.929 2.34 13.289 C-1.495 13.646 -3.214 13.587 -6.473 11.414 C-9.448 8.523 -9.65 7.9 -9.723 3.664 C-9.702 2.55 -9.681 1.437 -9.66 0.289 C-6.056 -0.912 -3.702 -0.516 0 0 Z " fill="#F4F4F4" transform="translate(237.66015625,63.7109375)"/>
<path d="M0 0 C11.106 3.255 21.361 8.638 31 15 C29.68 13.68 28.36 12.36 27 11 C27.66 11 28.32 11 29 11 C28.505 9.02 28.505 9.02 28 7 C30.31 7.66 32.62 8.32 35 9 C34.67 9.99 34.34 10.98 34 12 C33.655 15.227 33.655 15.227 36.438 17.562 C37.706 18.769 37.706 18.769 39 20 C39.495 20.99 39.495 20.99 40 22 C39.01 22 38.02 22 37 22 C36.67 21.67 36.34 21.34 36 21 C32.444 24.071 31.452 27.644 30 32 C29.34 32 28.68 32 28 32 C28 32.66 28 33.32 28 34 C28.66 34.33 29.32 34.66 30 35 C30 35.66 30 36.32 30 37 C31.98 37.33 33.96 37.66 36 38 C36 38.99 36 39.98 36 41 C34.426 42.316 34.426 42.316 32.312 43.562 C31.628 43.976 30.944 44.39 30.238 44.816 C20.501 49.965 9.994 50.343 -0.812 50.25 C-1.96 50.243 -3.108 50.235 -4.291 50.227 C-22.12 50.001 -38.665 46.184 -55 39 C-55.27 31.168 -54.231 23.727 -53 16 C-52.67 16 -52.34 16 -52 16 C-51.67 21.94 -51.34 27.88 -51 34 C-38.317 40.341 -30.363 39.489 -16.812 36.312 C-15.108 35.946 -15.108 35.946 -13.369 35.572 C-6.825 34.065 -2.057 32.486 3 28 C5.402 22.396 2.692 16.546 1 11 C0.657 9.669 0.32 8.337 0 7 C4.554 6.631 4.554 6.631 6.812 8.5 C7.4 9.243 7.4 9.243 8 10 C7.34 9.01 6.68 8.02 6 7 C2.432 6.264 2.432 6.264 -1 6 C-0.67 4.02 -0.34 2.04 0 0 Z " fill="#FAFAFA" transform="translate(162,60)"/>
<path d="M0 0 C6.552 3.783 11.799 9.651 14.133 16.891 C15.872 25.081 14.989 32.918 10.605 40.117 C6.22 45.156 1.501 48.738 -5.374 49.271 C-7.509 49.313 -9.634 49.292 -11.77 49.242 C-12.874 49.229 -12.874 49.229 -14 49.215 C-15.798 49.191 -17.596 49.156 -19.395 49.117 C-18.735 48.457 -18.075 47.797 -17.395 47.117 C-18.174 46.624 -18.174 46.624 -18.969 46.121 C-25.47 41.686 -29.417 36.997 -30.988 29.152 C-32.015 19.902 -30.778 13.834 -25.395 6.117 C-25.395 5.127 -25.395 4.137 -25.395 3.117 C-17.46 -0.895 -8.666 -3.195 0 0 Z " fill="#E8E8E8" transform="translate(277.39453125,10.8828125)"/>
<path d="M0 0 C-1.65 1.32 -3.3 2.64 -5 4 C-4.67 4 -4.34 4 -4 4 C-3.34 3.34 -2.68 2.68 -2 2 C1.125 1.875 1.125 1.875 4 2 C3.01 2.495 3.01 2.495 2 3 C3.066 4.296 3.066 4.296 5.562 4.062 C6.367 4.042 7.171 4.021 8 4 C8 4.99 8 5.98 8 7 C8.99 6.67 9.98 6.34 11 6 C13 8 13 8 13 9 C15.475 9.495 15.475 9.495 18 10 C16.68 11.65 15.36 13.3 14 15 C14.33 14.67 14.66 14.34 15 14 C18.72 11 18.72 11 21 11 C21 11.99 21 12.98 21 14 C22.32 14 23.64 14 25 14 C26.354 16.709 26.065 19.009 26 22 C23.36 22 20.72 22 18 22 C18 22.66 18 23.32 18 24 C17.34 24 16.68 24 16 24 C15.818 24.592 15.636 25.183 15.449 25.793 C13.3 32.551 13.3 32.551 11.375 35.438 C9.25 39.397 9.25 43.567 9 48 C3.719 47.485 0.428 45.745 -4 43 C-4 41.02 -4 39.04 -4 37 C-4.33 38.65 -4.66 40.3 -5 42 C-7.25 41.562 -7.25 41.562 -10 40 C-11.237 37.789 -12.156 35.547 -13.086 33.191 C-14.077 30.815 -15.397 29.003 -17 27 C-17 26.34 -17 25.68 -17 25 C-17.66 25 -18.32 25 -19 25 C-19.289 24.196 -19.577 23.391 -19.875 22.562 C-20.733 19.867 -20.733 19.867 -23 19 C-22.34 19 -21.68 19 -21 19 C-20.732 18.113 -20.464 17.226 -20.188 16.312 C-19.075 13.209 -17.898 10.689 -16 8 C-15.34 8 -14.68 8 -14 8 C-13.901 7.398 -13.801 6.796 -13.699 6.176 C-12.651 2.913 -10.681 1.776 -7.922 -0.094 C-5.05 -1.448 -2.95 -0.935 0 0 Z " fill="#CECECE" transform="translate(157,186)"/>
<path d="M0 0 C2.557 0.364 2.557 0.364 6.027 0.289 C10.525 1.647 11.799 4.017 14.273 7.867 C15.452 10.544 15.55 12.397 15.34 15.289 C16 15.289 16.66 15.289 17.34 15.289 C21.239 23.257 21.053 31.584 21.34 40.289 C20.35 40.784 20.35 40.784 19.34 41.289 C16.52 40.074 16.52 40.074 13.215 38.352 C12.119 37.786 11.023 37.22 9.895 36.637 C9.051 36.192 8.208 35.747 7.34 35.289 C7.34 34.629 7.34 33.969 7.34 33.289 C5.69 32.959 4.04 32.629 2.34 32.289 C0.69 37.569 -0.96 42.849 -2.66 48.289 C-3.833 44.77 -3.392 43.834 -2.223 40.414 C-1.017 36.878 -0.493 34.031 -0.66 30.289 C-1.396 29.891 -2.132 29.492 -2.891 29.082 C-4.354 28.287 -4.354 28.287 -5.848 27.477 C-6.811 26.954 -7.774 26.432 -8.766 25.895 C-9.721 25.365 -10.676 24.835 -11.66 24.289 C-12.584 23.811 -13.509 23.333 -14.461 22.84 C-16.66 21.289 -16.66 21.289 -17.355 19.433 C-17.871 15.803 -16.468 12.516 -15.348 9.102 C-15.121 8.365 -14.895 7.628 -14.662 6.869 C-14.061 4.987 -13.367 3.134 -12.66 1.289 C-12 0.959 -11.34 0.629 -10.66 0.289 C-10.562 0.976 -10.464 1.663 -10.363 2.371 C-10.139 3.723 -10.139 3.723 -9.91 5.102 C-9.771 5.995 -9.632 6.888 -9.488 7.809 C-8.464 10.875 -7.439 11.701 -4.66 13.289 C-2.548 14.056 -2.548 14.056 -0.41 14.477 C0.827 14.745 2.065 15.013 3.34 15.289 C3.01 19.579 2.68 23.869 2.34 28.289 C3.101 23.723 3.449 19.973 3.402 15.414 C3.393 14.262 3.384 13.109 3.375 11.922 C3.363 11.053 3.352 10.184 3.34 9.289 C3.01 10.609 2.68 11.929 2.34 13.289 C-1.495 13.646 -3.214 13.587 -6.473 11.414 C-9.448 8.523 -9.65 7.9 -9.723 3.664 C-9.702 2.55 -9.681 1.437 -9.66 0.289 C-6.056 -0.912 -3.702 -0.516 0 0 Z " fill="#CECECE" transform="translate(237.66015625,63.7109375)"/>
<path d="M0 0 C0.495 1.485 0.495 1.485 1 3 C1.784 3.639 2.567 4.279 3.375 4.938 C7.471 8.902 8.377 14.523 9 20 C8.693 23.467 8.022 26.676 7 30 C6.34 30 5.68 30 5 30 C4.691 31.114 4.381 32.227 4.062 33.375 C3 37 3 37 2 39 C1.01 38.505 1.01 38.505 0 38 C0.516 37.01 1.031 36.02 1.562 35 C3.329 30.825 3.5 27.302 2 23 C-0.673 19.764 -3.696 16.298 -8.051 15.734 C-12.761 15.767 -16.573 16.184 -21 18 C-21 18.66 -21 19.32 -21 20 C-21.66 20 -22.32 20 -23 20 C-25.527 24.737 -25.58 29.758 -25 35 C-24.064 37.244 -24.064 37.244 -23 39 C-28.179 36.35 -30.656 33.275 -33.086 27.992 C-35.119 21.337 -35.278 14.086 -32.605 7.633 C-31 5 -31 5 -28.812 4.125 C-27.915 4.063 -27.915 4.063 -27 4 C-26.919 3.376 -26.838 2.752 -26.754 2.109 C-26 0 -26 0 -24.215 -1.047 C-15.801 -3.645 -8.067 -4.289 0 0 Z " fill="#D9D9D9" transform="translate(281,198)"/>
<path d="M0 0 C1.562 0.195 3.125 0.391 4.688 0.586 C6.191 0.774 6.191 0.774 7.724 0.965 C9.915 1.239 12.105 1.514 14.295 1.789 C19.224 2.407 24.153 3.022 29.086 3.609 C29.821 3.698 30.555 3.786 31.312 3.877 C33.258 4.111 35.203 4.341 37.148 4.57 C40 5 40 5 42 6 C41.276 10.047 40.166 13.891 38.938 17.812 C38.575 18.974 38.213 20.135 37.84 21.332 C37.563 22.212 37.286 23.093 37 24 C36.1 23.836 35.2 23.673 34.273 23.504 C31.635 23.098 29.279 22.892 26.625 22.938 C24.831 22.968 24.831 22.968 23 23 C22.34 24.32 21.68 25.64 21 27 C17.36 26.448 14.259 25.332 10.906 23.824 C8.86 22.939 6.787 22.187 4.688 21.438 C1 20 1 20 -1 18 C-1.484 16.152 -1.484 16.152 -1.75 13.938 C-1.848 13.225 -1.946 12.512 -2.047 11.777 C-1.978 7.719 -0.976 3.926 0 0 Z " fill="#FFFFFF" transform="translate(159,35)"/>
<path d="M0 0 C0.66 0.33 1.32 0.66 2 1 C2.949 0.917 3.898 0.835 4.875 0.75 C10.647 0.603 15.872 3.642 21 6 C21 4.02 21 2.04 21 0 C21.33 0 21.66 0 22 0 C22.049 1.109 22.098 2.217 22.148 3.359 C22.223 4.823 22.299 6.286 22.375 7.75 C22.406 8.48 22.437 9.209 22.469 9.961 C22.679 13.815 23.101 16.645 25 20 C24.625 22.75 24.625 22.75 24 25 C23.34 25 22.68 25 22 25 C21.505 26.485 21.505 26.485 21 28 C8.004 28.403 -1.426 28.324 -12 20 C-12.66 22.64 -13.32 25.28 -14 28 C-15.093 24.72 -14.91 23.388 -14.25 20.062 C-14.09 19.208 -13.93 18.353 -13.766 17.473 C-12.912 14.715 -12.036 13.05 -10 11 C-8.68 11 -7.36 11 -6 11 C-5.34 8.69 -4.68 6.38 -4 4 C-2.68 3.67 -1.36 3.34 0 3 C0 2.01 0 1.02 0 0 Z " fill="#A0A0A0" transform="translate(136,37)"/>
<path d="M0 0 C1.98 0 3.96 0 6 0 C6.33 0.66 6.66 1.32 7 2 C8.98 2 10.96 2 13 2 C13 2.66 13 3.32 13 4 C13.99 4 14.98 4 16 4 C17.341 4.65 18.675 5.316 20 6 C20.66 6 21.32 6 22 6 C22.99 6.66 23.98 7.32 25 8 C24.34 8 23.68 8 23 8 C23 8.99 23 9.98 23 11 C23.392 10.484 23.784 9.969 24.188 9.438 C24.786 8.963 25.384 8.489 26 8 C28.688 8.312 28.688 8.312 31 9 C30.01 10.485 30.01 10.485 29 12 C29.784 11.794 30.567 11.588 31.375 11.375 C32.674 11.189 32.674 11.189 34 11 C34.66 11.66 35.32 12.32 36 13 C36.99 13 37.98 13 39 13 C39.99 13.66 40.98 14.32 42 15 C41.34 15 40.68 15 40 15 C39.67 16.32 39.34 17.64 39 19 C38.34 19 37.68 19 37 19 C36.773 19.639 36.546 20.279 36.312 20.938 C33.967 26.409 31.441 31.934 27 36 C26.147 35.312 26.147 35.312 25.277 34.609 C20.684 30.959 16.18 27.755 11 25 C11 24.34 11 23.68 11 23 C10.01 23 9.02 23 8 23 C5.731 31.002 4.994 39.074 4.145 47.328 C4.025 48.414 3.905 49.499 3.781 50.617 C3.679 51.603 3.576 52.589 3.471 53.605 C3 56 3 56 1 58 C1.99 48.1 2.98 38.2 4 28 C3.67 28.66 3.34 29.32 3 30 C2.34 29.67 1.68 29.34 1 29 C1.66 27.886 2.32 26.773 3 25.625 C5.427 20.753 5.781 16.36 5 11 C3.618 7.648 3.618 7.648 2 5 C2 4.01 2 3.02 2 2 C1.34 2 0.68 2 0 2 C0 1.34 0 0.68 0 0 Z " fill="#BFBFBF" transform="translate(104,167)"/>
<path d="M0 0 C4.016 1.985 6.52 4.281 9 8 C10.307 14.031 10.187 17.476 7 23 C2.934 26.962 0.194 27.834 -5.312 28.25 C-10.654 27.888 -14.349 26.397 -18.438 22.938 C-20.722 18.642 -20.664 14.768 -20 10 C-18.625 6.875 -18.625 6.875 -17 5 C-16.34 5 -15.68 5 -15 5 C-15 4.34 -15 3.68 -15 3 C-10.041 -0.052 -5.704 -1.079 0 0 Z " fill="#FFFFFF" transform="translate(275,213)"/>
<path d="M0 0 C0.961 0.615 0.961 0.615 1.941 1.242 C2.806 1.781 3.671 2.32 4.562 2.875 C5.833 3.676 5.833 3.676 7.129 4.492 C13.286 7.726 18.954 8.3 25.75 8.188 C26.504 8.187 27.258 8.186 28.035 8.186 C31.273 8.16 33.909 8.03 37 7 C36.716 8.897 36.422 10.793 36.125 12.688 C35.963 13.743 35.8 14.799 35.633 15.887 C34.165 23.108 34.165 23.108 31.316 25.289 C22.169 28.096 11.316 26.396 3 22 C-0.188 19.75 -0.188 19.75 -2 17 C-2.693 11.061 -1.49 5.748 0 0 Z " fill="#FFFFFF" transform="translate(123,56)"/>
<path d="M0 0 C-1.65 1.32 -3.3 2.64 -5 4 C-4.67 4 -4.34 4 -4 4 C-3.34 3.34 -2.68 2.68 -2 2 C1.125 1.875 1.125 1.875 4 2 C3.01 2.495 3.01 2.495 2 3 C3.066 4.296 3.066 4.296 5.562 4.062 C6.367 4.042 7.171 4.021 8 4 C7.67 5.65 7.34 7.3 7 9 C6.34 9 5.68 9 5 9 C4.594 10.11 4.594 10.11 4.18 11.242 C3.057 13.866 1.806 15.834 0.125 18.125 C-4.591 25.043 -7.26 32.672 -8 41 C-10.658 39.671 -10.83 38.406 -11.938 35.688 C-13.323 32.418 -14.773 29.784 -17 27 C-17 26.34 -17 25.68 -17 25 C-17.66 25 -18.32 25 -19 25 C-19.289 24.196 -19.577 23.391 -19.875 22.562 C-20.733 19.867 -20.733 19.867 -23 19 C-22.34 19 -21.68 19 -21 19 C-20.732 18.113 -20.464 17.226 -20.188 16.312 C-19.075 13.209 -17.898 10.689 -16 8 C-15.34 8 -14.68 8 -14 8 C-13.901 7.398 -13.801 6.796 -13.699 6.176 C-12.651 2.913 -10.681 1.776 -7.922 -0.094 C-5.05 -1.448 -2.95 -0.935 0 0 Z " fill="#A9A9A9" transform="translate(157,186)"/>
<path d="M0 0 C0.33 0.66 0.66 1.32 1 2 C1.99 2.33 2.98 2.66 4 3 C4.66 3.66 5.32 4.32 6 5 C6.66 3.35 7.32 1.7 8 0 C8.33 0 8.66 0 9 0 C9 2.31 9 4.62 9 7 C11.31 7.33 13.62 7.66 16 8 C16 7.34 16 6.68 16 6 C16.66 6.33 17.32 6.66 18 7 C17.651 8.097 17.301 9.194 16.941 10.324 C16.482 11.779 16.022 13.233 15.562 14.688 C15.332 15.409 15.102 16.13 14.865 16.873 C13.703 20.562 12.656 24.18 12 28 C12.743 27.649 13.485 27.299 14.25 26.938 C17.132 25.955 18.212 25.967 21 27 C20.505 28.485 20.505 28.485 20 30 C20 29.34 20 28.68 20 28 C19.34 28 18.68 28 18 28 C18.137 28.54 18.274 29.08 18.416 29.637 C19.768 35.272 20.411 40.662 20.621 46.445 C20.659 47.373 20.697 48.301 20.735 49.257 C21.226 63.045 21.111 76.848 21.069 90.642 C21.058 94.418 21.054 98.193 21.049 101.969 C21.038 109.313 21.021 116.656 21 124 C21.99 124.33 22.98 124.66 24 125 C23.01 125 22.02 125 21 125 C21.495 127.97 21.495 127.97 22 131 C21.01 129.02 21.01 129.02 20 127 C18.02 127.495 18.02 127.495 16 128 C16.33 127.34 16.66 126.68 17 126 C17.99 126 18.98 126 20 126 C19.485 88.276 19.485 88.276 18.5 50.562 C18.465 49.498 18.429 48.434 18.393 47.337 C18.149 40.867 17.648 34.442 17 28 C14.209 29.207 12.395 30.217 11 32.98 C10.27 34.965 9.629 36.981 9 39 C8.67 39 8.34 39 8 39 C7.788 33.808 8.409 29.873 10 25 C8.68 25 7.36 25 6 25 C5.879 25.701 5.758 26.403 5.633 27.125 C4.627 32.82 3.477 38.409 2 44 C1.67 44 1.34 44 1 44 C1.4 39.454 1.904 35.047 3.062 30.625 C4.125 27.14 4.125 27.14 4 24 C4 23.01 4 22.02 4 21 C4.99 20.34 5.98 19.68 7 19 C7 19.99 7 20.98 7 22 C8.65 22 10.3 22 12 22 C12.133 21.385 12.266 20.77 12.402 20.137 C12.667 18.924 12.667 18.924 12.938 17.688 C13.199 16.487 13.199 16.487 13.465 15.262 C14 13 14 13 15 10 C12.36 9.67 9.72 9.34 7 9 C7.186 9.743 7.371 10.485 7.562 11.25 C8.26 15.637 8.26 15.637 7 18 C3.442 19.813 -0.079 21.216 -4 22 C-4 21.01 -4 20.02 -4 19 C-5.98 18.67 -7.96 18.34 -10 18 C-10 17.34 -10 16.68 -10 16 C-10.99 15.67 -11.98 15.34 -13 15 C-12.67 13.68 -12.34 12.36 -12 11 C-12 11.66 -12 12.32 -12 13 C-11.34 12.67 -10.68 12.34 -10 12 C-9.856 11.422 -9.711 10.845 -9.562 10.25 C-8.865 7.46 -7.529 5.421 -6 3 C-5.67 2.34 -5.34 1.68 -5 1 C-4.34 1 -3.68 1 -3 1 C-3 1.66 -3 2.32 -3 3 C-2.01 3 -1.02 3 0 3 C0 2.01 0 1.02 0 0 Z " fill="#202020" transform="translate(202,79)"/>
<path d="M0 0 C0.33 0 0.66 0 1 0 C2.049 28.427 2.049 28.427 -5 39 C-5 35.37 -5 31.74 -5 28 C-9.29 27.34 -13.58 26.68 -18 26 C-16.536 26.309 -15.071 26.619 -13.562 26.938 C-9.125 27.875 -9.125 27.875 -8 29 C-8 30.65 -8 32.3 -8 34 C-11.3 33.34 -14.6 32.68 -18 32 C-18.33 32.66 -18.66 33.32 -19 34 C-19.402 32.329 -19.402 32.329 -19.812 30.625 C-21.04 25.699 -22.509 20.852 -24 16 C-23.67 15.67 -23.34 15.34 -23 15 C-22.607 13.321 -22.259 11.631 -21.938 9.938 C-21.761 9.018 -21.584 8.099 -21.402 7.152 C-21.27 6.442 -21.137 5.732 -21 5 C-20.34 5 -19.68 5 -19 5 C-18.67 5.66 -18.34 6.32 -18 7 C-15.451 7.312 -12.996 7.513 -10.438 7.625 C-9.727 7.664 -9.016 7.702 -8.283 7.742 C-6.523 7.837 -4.761 7.919 -3 8 C-2.691 6.866 -2.381 5.731 -2.062 4.562 C-1 1 -1 1 0 0 Z " fill="#FFFFFF" transform="translate(177,248)"/>
<path d="M0 0 C1.184 3.781 0.544 6.419 -0.39 10.249 C-1.628 15.833 -2.284 21.525 -3.062 27.188 C-3.407 29.66 -3.752 32.133 -4.098 34.605 C-4.247 35.69 -4.397 36.774 -4.551 37.891 C-4.991 40.936 -5.483 43.968 -6 47 C-3.03 47 -0.06 47 3 47 C3 47.33 3 47.66 3 48 C0.03 48 -2.94 48 -6 48 C-7.324 54.43 -8.248 60.429 -8 67 C-7.67 66.34 -7.34 65.68 -7 65 C-5.68 65.33 -4.36 65.66 -3 66 C-3.99 66 -4.98 66 -6 66 C-7.97 73.266 -9.095 80.481 -8 88 C-5.737 90.995 -5.456 91.314 -2 92 C8.203 92.831 17.359 91.147 27.188 88.562 C28.495 88.232 29.803 87.903 31.111 87.576 C37.602 85.947 37.602 85.947 44 84 C44.33 81.36 44.66 78.72 45 76 C46.125 77.625 46.125 77.625 47 80 C46.076 84.198 45.64 85.573 42 88 C42.33 88.66 42.66 89.32 43 90 C42.203 90.177 41.406 90.353 40.585 90.535 C36.973 91.335 33.362 92.136 29.75 92.938 C28.496 93.215 27.241 93.493 25.949 93.779 C24.744 94.047 23.539 94.314 22.297 94.59 C21.187 94.836 20.076 95.082 18.933 95.336 C17.2 95.728 15.47 96.135 13.748 96.573 C6.166 98.425 -0.343 96.73 -7 93 C-10 91 -10 91 -10.512 88.836 C-10.674 86.557 -10.837 84.279 -11 82 C-11.99 87.61 -12.98 93.22 -14 99 C-11.69 99.66 -9.38 100.32 -7 101 C-10.623 102.208 -11.641 101.543 -15 100 C-15.037 100.802 -15.075 101.604 -15.113 102.43 C-15.651 111.725 -17.013 120.707 -18.631 129.865 C-19.345 134 -19.952 138.151 -20.57 142.301 C-20.854 144.08 -21.18 145.854 -21.551 147.617 C-22.144 150.763 -22.063 153.807 -22 157 C-21.34 157.33 -20.68 157.66 -20 158 C-20.495 158.99 -20.495 158.99 -21 160 C-21.99 159.67 -22.98 159.34 -24 159 C-24.049 159.964 -24.098 160.928 -24.148 161.922 C-24.223 163.185 -24.298 164.448 -24.375 165.75 C-24.445 167.003 -24.514 168.256 -24.586 169.547 C-24.953 172.61 -25.397 174.42 -27 177 C-26.402 164.349 -24.388 152.056 -22.242 139.594 C-21.994 138.146 -21.747 136.698 -21.5 135.25 C-21.377 134.531 -21.254 133.812 -21.128 133.072 C-19.907 125.76 -18.977 118.413 -18.09 111.054 C-17.583 106.961 -17.038 102.951 -16.066 98.941 C-14.3 91.411 -13.516 83.661 -12.5 76 C-12.077 72.812 -11.65 69.625 -11.219 66.438 C-11.08 65.368 -11.08 65.368 -10.938 64.278 C-10.449 60.667 -9.834 57.137 -9.014 53.586 C-7.917 48.815 -7.216 44.029 -6.562 39.18 C-6.305 37.327 -6.047 35.474 -5.789 33.621 C-5.393 30.74 -4.998 27.859 -4.604 24.978 C-4.22 22.17 -3.829 19.362 -3.438 16.555 C-3.323 15.7 -3.208 14.846 -3.09 13.966 C-2.416 9.151 -1.455 4.64 0 0 Z " fill="#010101" transform="translate(120,3)"/>
<path d="M0 0 C3.887 3.887 4.748 10.058 5.438 15.375 C4.84 18.958 3.881 19.765 1 22 C-2.165 23.163 -5.4 23.893 -8.688 24.625 C-9.548 24.829 -10.408 25.032 -11.295 25.242 C-13.019 25.648 -14.745 26.043 -16.473 26.43 C-18.123 26.802 -19.77 27.191 -21.411 27.599 C-26.029 28.722 -30.026 29.212 -34.812 28.812 C-35.891 28.736 -36.97 28.66 -38.082 28.582 C-41.172 27.966 -42.681 27.083 -45 25 C-44.125 20.25 -44.125 20.25 -43 18 C-39.562 17.236 -36.535 17 -33 17 C-34.093 16.402 -35.186 15.804 -36.312 15.188 C-41.718 12.036 -41.718 12.036 -43 10 C-43.188 6.312 -43.188 6.312 -43 3 C-42.67 3 -42.34 3 -42 3 C-41.773 4.073 -41.546 5.145 -41.312 6.25 C-39.461 11.539 -36.862 12.948 -32.125 15.625 C-22.888 19.283 -12.465 19.895 -3 17 C-3 16.01 -3 15.02 -3 14 C-3.99 13.67 -4.98 13.34 -6 13 C-5.34 12.67 -4.68 12.34 -4 12 C-3.269 9.686 -2.599 7.352 -2 5 C-1.34 5 -0.68 5 0 5 C0 3.35 0 1.7 0 0 Z " fill="#B9B9B9" transform="translate(160,67)"/>
<path d="M0 0 C8.483 1.488 16.093 4.718 24 8 C25.686 8.67 27.374 9.337 29.062 10 C30.71 10.663 32.355 11.33 34 12 C35.054 12.428 36.109 12.856 37.195 13.297 C44.841 16.478 52.092 20.072 59.355 24.031 C64.498 26.831 69.746 29.417 75 32 C75 32.66 75 33.32 75 34 C75.99 34 76.98 34 78 34 C80.136 37.204 80.231 38.019 80.125 41.688 C80.107 42.496 80.089 43.304 80.07 44.137 C80.047 44.752 80.024 45.366 80 46 C80.66 46 81.32 46 82 46 C82 46.66 82 47.32 82 48 C82.66 48 83.32 48 84 48 C84.99 52.455 84.99 52.455 86 57 C85.01 57 84.02 57 83 57 C82.752 55.907 82.505 54.814 82.25 53.688 C80.98 49.941 80.342 48.894 77 47 C77 47.66 77 48.32 77 49 C75.886 49.083 74.772 49.165 73.625 49.25 C69.942 49.579 69.942 49.579 68.562 52.062 C68.284 53.022 68.284 53.022 68 54 C67.01 54 66.02 54 65 54 C65.875 48.25 65.875 48.25 67 46 C67.66 46 68.32 46 69 46 C69 45.34 69 44.68 69 44 C74.75 42.875 74.75 42.875 77 44 C76.505 40.04 76.505 40.04 76 36 C74.68 36 73.36 36 72 36 C72 35.01 72 34.02 72 33 C68.372 34.866 68.372 34.866 66 38 C65.34 37.67 64.68 37.34 64 37 C65.32 35.35 66.64 33.7 68 32 C64.535 32.495 64.535 32.495 61 33 C61.66 32.01 62.32 31.02 63 30 C61.68 30 60.36 30 59 30 C58.505 29.01 58.505 29.01 58 28 C58.33 27.34 58.66 26.68 59 26 C56.03 26.495 56.03 26.495 53 27 C53 26.34 53 25.68 53 25 C49.179 25.531 46.938 26.497 44 29 C45.204 26.506 46.454 24.319 48 22 C44.625 22.547 42.918 23.055 40 25 C41.75 21.125 41.75 21.125 44 20 C43.031 19.876 42.061 19.752 41.062 19.625 C40.052 19.419 39.041 19.213 38 19 C37.505 18.01 37.505 18.01 37 17 C35.35 17.33 33.7 17.66 32 18 C32 17.01 32 16.02 32 15 C28.39 15.656 28.39 15.656 25 17 C25.33 16.01 25.66 15.02 26 14 C26.66 13.67 27.32 13.34 28 13 C25.03 12.505 25.03 12.505 22 12 C21.67 12.99 21.34 13.98 21 15 C20.34 14.67 19.68 14.34 19 14 C19.66 13.01 20.32 12.02 21 11 C18.509 9.755 17.589 10.223 15 11 C15.33 10.34 15.66 9.68 16 9 C12.99 8.066 12.133 7.956 9 9 C9 8.34 9 7.68 9 7 C9.66 7 10.32 7 11 7 C11 6.34 11 5.68 11 5 C8.69 5.33 6.38 5.66 4 6 C4 5.01 4 4.02 4 3 C2.68 3 1.36 3 0 3 C0 2.01 0 1.02 0 0 Z " fill="#020202" transform="translate(106,164)"/>
<path d="M0 0 C3.161 1.37 3.993 1.989 6 5 C7.597 10.639 8.254 16.159 8 22 C7.093 21.794 6.185 21.588 5.25 21.375 C1.703 20.966 0.863 21.032 -2 23 C-3.777 25.614 -3.777 25.614 -5.25 28.625 C-6.031 30.129 -6.031 30.129 -6.828 31.664 C-7.215 32.435 -7.602 33.206 -8 34 C-8.33 34 -8.66 34 -9 34 C-9.507 32.106 -10.006 30.21 -10.5 28.312 C-10.778 27.257 -11.057 26.201 -11.344 25.113 C-11.939 22.289 -12.128 19.872 -12 17 C-12.99 17.99 -13.98 18.98 -15 20 C-14.503 15.027 -13.447 11.362 -11 7 C-10.34 7 -9.68 7 -9 7 C-8.856 6.361 -8.711 5.721 -8.562 5.062 C-8 3 -8 3 -7 2 C-4.667 1.959 -2.333 1.958 0 2 C0 1.34 0 0.68 0 0 Z " fill="#E7E7E7" transform="translate(183,211)"/>
<path d="M0 0 C0 0.99 0 1.98 0 3 C1.32 3 2.64 3 4 3 C5.354 5.709 5.065 8.009 5 11 C2.36 11 -0.28 11 -3 11 C-3 11.66 -3 12.32 -3 13 C-3.66 13 -4.32 13 -5 13 C-5.182 13.592 -5.364 14.183 -5.551 14.793 C-7.7 21.551 -7.7 21.551 -9.625 24.438 C-11.75 28.397 -11.75 32.567 -12 37 C-17.75 36.125 -17.75 36.125 -20 35 C-20.734 23.626 -16.207 13.796 -9 5 C-8.01 5 -7.02 5 -6 5 C-5.67 4.01 -5.34 3.02 -5 2 C-2 0 -2 0 0 0 Z " fill="#9F9F9F" transform="translate(178,197)"/>
<path d="M0 0 C1.98 0 3.96 0 6 0 C6.33 0.66 6.66 1.32 7 2 C8.98 2 10.96 2 13 2 C13 2.66 13 3.32 13 4 C13.99 4 14.98 4 16 4 C17.341 4.65 18.675 5.316 20 6 C20.66 6 21.32 6 22 6 C22.99 6.66 23.98 7.32 25 8 C24.34 8 23.68 8 23 8 C22.617 8.797 22.617 8.797 22.227 9.609 C20.715 12.556 19.051 15.394 17.375 18.25 C16.743 19.328 16.112 20.405 15.461 21.516 C14.979 22.335 14.497 23.155 14 24 C12.02 23.67 10.04 23.34 8 23 C5.731 31.002 4.994 39.074 4.145 47.328 C4.025 48.414 3.905 49.499 3.781 50.617 C3.679 51.603 3.576 52.589 3.471 53.605 C3 56 3 56 1 58 C1.99 48.1 2.98 38.2 4 28 C3.67 28.66 3.34 29.32 3 30 C2.34 29.67 1.68 29.34 1 29 C1.66 27.886 2.32 26.773 3 25.625 C5.427 20.753 5.781 16.36 5 11 C3.618 7.648 3.618 7.648 2 5 C2 4.01 2 3.02 2 2 C1.34 2 0.68 2 0 2 C0 1.34 0 0.68 0 0 Z " fill="#E6E6E6" transform="translate(104,167)"/>
<path d="M0 0 C-1.667 6.667 -3.333 13.333 -5 20 C-10.61 20 -16.22 20 -22 20 C-20.963 15.853 -19.676 11.9 -18.25 7.875 C-17.89 6.783 -17.89 6.783 -17.523 5.668 C-16.343 2.377 -15.585 0.362 -12.559 -1.512 C-8.26 -2.332 -3.971 -1.986 0 0 Z " fill="#FFFFFF" transform="translate(233,18)"/>
<path d="M0 0 C0.124 1.609 0.124 1.609 0.25 3.25 C1.09 7.45 1.827 8.307 5 11 C11.318 14.636 17.797 15.36 24.938 15.375 C25.671 15.377 26.405 15.378 27.161 15.38 C30.876 15.303 33.909 15.178 37 13 C38.268 10.966 38.268 10.966 39 9 C39.125 12.375 39.125 12.375 39 16 C35.195 19.805 29.171 19.622 24 20 C14.099 19.549 5.77 16.057 -2 10 C2.635 14.053 2.635 14.053 8 17 C8 17.33 8 17.66 8 18 C4.37 18 0.74 18 -3 18 C-3.33 20.31 -3.66 22.62 -4 25 C-0.965 27.024 0.194 27.321 3.688 27.625 C4.496 27.7 5.304 27.775 6.137 27.852 C6.752 27.901 7.366 27.95 8 28 C8 28.33 8 28.66 8 29 C1.302 29.477 -2.782 29.415 -8 25 C-9.832 23.168 -9.173 20.334 -9.188 17.875 C-9.149 11.982 -8.653 7.307 -6 2 C-3.851 0.752 -2.503 0 0 0 Z " fill="#FEFEFE" transform="translate(120,67)"/>
<path d="M0 0 C0.474 0.639 0.949 1.279 1.438 1.938 C5.054 4.849 8.472 4.806 13 5 C12.01 5.495 12.01 5.495 11 6 C10.269 8.314 9.599 10.648 9 13 C9.99 12.67 10.98 12.34 12 12 C14.333 11.958 16.667 11.959 19 12 C22.776 12.298 22.776 12.298 25 11 C24.67 12.98 24.34 14.96 24 17 C23.505 16.01 23.505 16.01 23 15 C20.816 14.491 20.816 14.491 18.25 14.312 C16.958 14.183 16.958 14.183 15.641 14.051 C12.936 13.999 10.624 14.372 8 15 C7.818 15.641 7.636 16.281 7.449 16.941 C5.937 22.144 4.25 27.071 2 32 C1.34 32 0.68 32 0 32 C-0.66 35.3 -1.32 38.6 -2 42 C-3.98 42.495 -3.98 42.495 -6 43 C-6.33 43.99 -6.66 44.98 -7 46 C-9.062 46.688 -9.062 46.688 -11 47 C-10.768 46.375 -10.536 45.751 -10.297 45.107 C-9.236 42.24 -8.18 39.37 -7.125 36.5 C-6.76 35.518 -6.395 34.535 -6.02 33.523 C-4.014 28.053 -2.316 22.675 -1 17 C-0.67 16.01 -0.34 15.02 0 14 C0.66 14 1.32 14 2 14 C2.054 12.542 2.093 11.084 2.125 9.625 C2.16 8.407 2.16 8.407 2.195 7.164 C2.214 4.787 2.214 4.787 0 3 C0 2.01 0 1.02 0 0 Z " fill="#C6C6C6" transform="translate(210,3)"/>
<path d="M0 0 C1.294 0.451 2.585 0.911 3.875 1.375 C4.954 1.758 4.954 1.758 6.055 2.148 C8 3 8 3 10 5 C13.231 5.255 15.893 4.826 19 4 C19.507 5.581 20.005 7.165 20.5 8.75 C20.778 9.632 21.057 10.513 21.344 11.422 C22 14 22 14 22 18 C16.06 18 10.12 18 4 18 C3.567 20.382 3.567 20.382 3.125 22.812 C2.493 26.29 2.003 27.996 0 31 C-1.134 27.599 -0.806 26.257 -0.062 22.812 C1.455 15.007 1.018 7.855 0 0 Z " fill="#FFFFFF" transform="translate(151,231)"/>
<path d="M0 0 C0.495 1.485 0.495 1.485 1 3 C1.784 3.639 2.567 4.279 3.375 4.938 C7.425 8.799 8.324 14.637 9 20 C8.57 23.379 8.57 23.379 8 26 C7.67 26 7.34 26 7 26 C6.902 25.12 6.804 24.239 6.703 23.332 C6.554 22.171 6.404 21.009 6.25 19.812 C6.111 18.664 5.972 17.515 5.828 16.332 C4.684 11.728 2.468 9.174 -1.188 6.25 C-7.743 3.337 -14.35 3.45 -21 6 C-26.419 8.55 -28.702 12.04 -31.164 17.316 C-32.484 21.553 -31.903 24.694 -31 29 C-33 28 -33 28 -34 25 C-34.146 22.732 -34.221 20.46 -34.25 18.188 C-34.289 16.383 -34.289 16.383 -34.328 14.543 C-33.97 10.672 -33.044 8.286 -31 5 C-28.812 4.125 -28.812 4.125 -27 4 C-26.919 3.376 -26.838 2.752 -26.754 2.109 C-26 0 -26 0 -24.215 -1.047 C-15.801 -3.645 -8.067 -4.289 0 0 Z " fill="#8A8A8A" transform="translate(281,198)"/>
<path d="M0 0 C0.33 0 0.66 0 1 0 C1.098 0.687 1.196 1.374 1.297 2.082 C1.521 3.434 1.521 3.434 1.75 4.812 C1.889 5.706 2.028 6.599 2.172 7.52 C3.196 10.586 4.221 11.412 7 13 C9.113 13.767 9.113 13.767 11.25 14.188 C12.488 14.456 13.725 14.724 15 15 C14.859 16.959 14.712 18.917 14.562 20.875 C14.481 21.966 14.4 23.056 14.316 24.18 C14 27 14 27 13 29 C8.294 29.735 5.681 27.819 1.934 25.297 C-0.118 23.873 -0.118 23.873 -2.938 22.438 C-5 21 -5 21 -5.689 19.151 C-6.215 15.514 -4.766 12.227 -3.625 8.812 C-3.39 8.076 -3.156 7.339 -2.914 6.58 C-1.158 1.158 -1.158 1.158 0 0 Z " fill="#EBEBEB" transform="translate(226,64)"/>
<path d="M0 0 C0.66 0.33 1.32 0.66 2 1 C1.651 2.097 1.301 3.194 0.941 4.324 C0.482 5.779 0.022 7.233 -0.438 8.688 C-0.668 9.409 -0.898 10.13 -1.135 10.873 C-2.297 14.562 -3.344 18.18 -4 22 C-3.257 21.649 -2.515 21.299 -1.75 20.938 C1.132 19.955 2.212 19.967 5 21 C4.67 21.99 4.34 22.98 4 24 C4 23.34 4 22.68 4 22 C3.34 22 2.68 22 2 22 C2.137 22.54 2.274 23.08 2.416 23.637 C3.768 29.272 4.411 34.662 4.621 40.445 C4.659 41.373 4.697 42.301 4.735 43.257 C5.226 57.045 5.111 70.848 5.069 84.642 C5.058 88.418 5.054 92.193 5.049 95.969 C5.038 103.313 5.021 110.656 5 118 C6.485 118.495 6.485 118.495 8 119 C7.01 119 6.02 119 5 119 C5.33 120.98 5.66 122.96 6 125 C5.34 123.68 4.68 122.36 4 121 C2.02 121.495 2.02 121.495 0 122 C0.495 121.01 0.495 121.01 1 120 C1.99 120 2.98 120 4 120 C3.485 82.276 3.485 82.276 2.5 44.562 C2.465 43.498 2.429 42.434 2.393 41.337 C2.149 34.867 1.648 28.442 1 22 C-1.791 23.207 -3.605 24.217 -5 26.98 C-5.73 28.965 -6.371 30.981 -7 33 C-7.33 33 -7.66 33 -8 33 C-8.212 27.808 -7.591 23.873 -6 19 C-7.32 19 -8.64 19 -10 19 C-10.121 19.701 -10.242 20.403 -10.367 21.125 C-11.373 26.82 -12.523 32.409 -14 38 C-14.33 38 -14.66 38 -15 38 C-14.6 33.454 -14.096 29.047 -12.938 24.625 C-11.875 21.14 -11.875 21.14 -12 18 C-12 17.01 -12 16.02 -12 15 C-11.01 14.34 -10.02 13.68 -9 13 C-9 13.99 -9 14.98 -9 16 C-7.35 16 -5.7 16 -4 16 C-3.867 15.385 -3.734 14.77 -3.598 14.137 C-3.333 12.924 -3.333 12.924 -3.062 11.688 C-2.888 10.887 -2.714 10.086 -2.535 9.262 C-2 7 -2 7 -1 4 C-3.97 3.505 -3.97 3.505 -7 3 C-7 2.67 -7 2.34 -7 2 C-4.69 2 -2.38 2 0 2 C0 1.34 0 0.68 0 0 Z " fill="#010101" transform="translate(218,85)"/>
<path d="M0 0 C-0.33 1.65 -0.66 3.3 -1 5 C-1.66 5 -2.32 5 -3 5 C-3.406 6.11 -3.406 6.11 -3.82 7.242 C-4.943 9.866 -6.194 11.834 -7.875 14.125 C-12.591 21.043 -15.26 28.672 -16 37 C-19.199 35.4 -19.949 32.53 -21.293 29.328 C-22.354 25.834 -21.649 24.233 -20 21 C-19.63 20.227 -19.26 19.453 -18.879 18.656 C-11.769 3.95 -11.769 3.95 -8 1 C-5.072 0.024 -3.044 -0.082 0 0 Z " fill="#9E9E9E" transform="translate(165,190)"/>
<path d="M0 0 C1.125 1.625 1.125 1.625 2 4 C1.076 8.198 0.64 9.573 -3 12 C-2.505 12.99 -2.505 12.99 -2 14 C-2.797 14.177 -3.594 14.353 -4.415 14.535 C-8.027 15.335 -11.638 16.136 -15.25 16.938 C-17.131 17.354 -17.131 17.354 -19.051 17.779 C-20.256 18.047 -21.461 18.314 -22.703 18.59 C-23.813 18.836 -24.924 19.082 -26.067 19.336 C-27.8 19.728 -29.53 20.135 -31.252 20.573 C-38.834 22.425 -45.343 20.73 -52 17 C-52.99 16.34 -53.98 15.68 -55 15 C-55 14.01 -55 13.02 -55 12 C-51 14 -51 14 -49.253 15.049 C-39.735 19.066 -27.269 15.05 -17.812 12.562 C-16.505 12.232 -15.197 11.903 -13.889 11.576 C-7.398 9.947 -7.398 9.947 -1 8 C-0.67 5.36 -0.34 2.72 0 0 Z " fill="#3A3A3A" transform="translate(165,79)"/>
<path d="M0 0 C4.62 0.99 9.24 1.98 14 3 C14.228 5.246 14.456 7.492 14.684 9.738 C14.953 12.161 14.953 12.161 16 15 C19.88 12.413 19.766 10.85 20.688 6.375 C20.939 5.186 21.19 3.998 21.449 2.773 C21.631 1.858 21.813 0.943 22 0 C22.33 0 22.66 0 23 0 C23.592 6.665 21.483 11.87 19 18 C19.66 17.67 20.32 17.34 21 17 C21.915 14.195 21.915 14.195 22.625 10.938 C22.885 9.833 23.146 8.728 23.414 7.59 C23.607 6.735 23.801 5.881 24 5 C24.33 5 24.66 5 25 5 C25.33 6.98 25.66 8.96 26 11 C26.66 10.67 27.32 10.34 28 10 C27.432 15.489 26.778 20.966 26.062 26.438 C25.909 27.632 25.756 28.827 25.598 30.059 C25 33 25 33 23 35 C23.33 30.38 23.66 25.76 24 21 C22.68 21.33 21.36 21.66 20 22 C19.01 21.34 18.02 20.68 17 20 C17 19.01 17 18.02 17 17 C15.35 17 13.7 17 12 17 C11.856 16.051 11.711 15.103 11.562 14.125 C10.37 10.871 10.37 10.871 7.863 10.156 C5.578 9.668 3.32 9.277 1 9 C1 8.34 1 7.68 1 7 C3.97 7.33 6.94 7.66 10 8 C10 6.68 10 5.36 10 4 C9.362 3.879 8.724 3.758 8.066 3.633 C7.24 3.465 6.414 3.298 5.562 3.125 C4.739 2.963 3.915 2.8 3.066 2.633 C2.384 2.424 1.703 2.215 1 2 C0.67 1.34 0.34 0.68 0 0 Z " fill="#080808" transform="translate(158,273)"/>
<path d="M0 0 C4.032 6.049 3.098 13.965 3 21 C3.33 17.04 3.66 13.08 4 9 C4.33 9 4.66 9 5 9 C5.3 22.622 4.773 35.793 1 49 C0.34 48.67 -0.32 48.34 -1 48 C-1.99 50.31 -2.98 52.62 -4 55 C-4.66 55 -5.32 55 -6 55 C-5.377 52.47 -4.715 49.959 -4.027 47.445 C-1.742 38.617 -0.599 30.196 -0.562 21.062 C-0.553 20.109 -0.543 19.156 -0.533 18.174 C-0.544 17.283 -0.555 16.391 -0.566 15.473 C-0.576 14.681 -0.586 13.89 -0.596 13.074 C-0.886 10.555 -0.886 10.555 -4 8 C-2.68 5.36 -1.36 2.72 0 0 Z " fill="#FAFAFA" transform="translate(183,236)"/>
<path d="M0 0 C3.842 0.864 7.529 2.168 11.25 3.438 C19.029 6.07 19.029 6.07 27 8 C28.325 8.277 28.325 8.277 29.676 8.559 C48.811 11.946 70.652 12.638 88 3 C88.99 2.67 89.98 2.34 91 2 C91.99 2.99 91.99 2.99 93 4 C85.364 10.732 74.974 12.691 65 13 C64.365 13.02 63.729 13.041 63.075 13.062 C43.884 13.593 23.669 11.935 6 4 C5.105 3.671 4.211 3.343 3.289 3.004 C1 2 1 2 0 0 Z " fill="#000000" transform="translate(107,99)"/>
<path d="M0 0 C3.874 0.042 7.557 0.489 11.375 1.125 C10.715 5.415 10.055 9.705 9.375 14.125 C-1.339 13.268 -1.339 13.268 -5.625 11.125 C-5.485 9.479 -5.338 7.833 -5.188 6.188 C-5.106 5.271 -5.025 4.354 -4.941 3.41 C-4.42 -0.354 -4.019 0.139 0 0 Z " fill="#FFFFFF" transform="translate(162.625,258.875)"/>
<path d="M0 0 C0.66 0 1.32 0 2 0 C4.033 5.093 4.335 9.547 4.411 14.943 C4.43 15.822 4.45 16.7 4.471 17.606 C4.534 20.495 4.583 23.384 4.633 26.273 C4.674 28.283 4.716 30.292 4.759 32.301 C4.869 37.578 4.968 42.855 5.064 48.133 C5.165 53.522 5.276 58.911 5.387 64.301 C5.602 74.867 5.804 85.433 6 96 C5.01 96 4.02 96 3 96 C2.99 95.235 2.979 94.469 2.969 93.68 C2.87 86.359 2.767 79.037 2.661 71.715 C2.606 67.954 2.553 64.192 2.503 60.431 C2.233 39.432 2.233 39.432 1.527 18.445 C1.49 17.602 1.453 16.758 1.415 15.889 C1.151 10.561 0.633 5.297 0 0 Z " fill="#FFFFFF" transform="translate(220,107)"/>
<path d="M0 0 C0.639 0.268 1.279 0.536 1.938 0.812 C3.453 1.4 3.453 1.4 5 2 C6.017 2.396 6.017 2.396 7.055 2.801 C13.402 5.118 19.378 6.207 26 4 C25.651 6.585 25.358 8.508 23.809 10.641 C19.956 13.537 14.562 12.508 10 12 C5.42 10.776 1.962 9.517 -0.625 5.438 C-1 3 -1 3 0 0 Z " fill="#FFFFFF" transform="translate(131,47)"/>
<path d="M0 0 C0.763 0.206 1.526 0.412 2.312 0.625 C1.488 1.491 0.662 2.357 -0.188 3.25 C-8.342 12.854 -12.88 23.471 -15.688 35.625 C-17.007 34.965 -18.327 34.305 -19.688 33.625 C-19.22 21.931 -13.196 10.424 -5.688 1.625 C-2.688 -0.375 -2.688 -0.375 0 0 Z " fill="#FFFFFF" transform="translate(172.6875,195.375)"/>
<path d="M0 0 C0.99 0 1.98 0 3 0 C3.248 1.134 3.495 2.269 3.75 3.438 C4.166 5.292 4.583 7.146 5 9 C5.268 10.214 5.536 11.429 5.812 12.68 C7.78 21.422 10.141 29.971 12.781 38.534 C14.67 44.721 16.246 50.933 17.663 57.243 C18.711 61.89 19.959 66.41 21.484 70.922 C22.084 73.337 22.087 75.521 22 78 C18.75 74.432 17.852 70.444 16.75 65.875 C16.316 64.155 15.881 62.435 15.445 60.715 C15.214 59.792 14.982 58.869 14.743 57.917 C13.425 52.743 12.02 47.592 10.625 42.438 C10.033 40.237 9.44 38.036 8.848 35.836 C7.573 31.11 6.287 26.386 4.996 21.664 C4.672 20.475 4.349 19.286 4.015 18.061 C3.391 15.769 2.764 13.478 2.133 11.187 C1.853 10.157 1.574 9.127 1.285 8.066 C1.036 7.158 0.788 6.25 0.531 5.315 C0 3 0 3 0 0 Z " fill="#FFFFFF" transform="translate(223,204)"/>
<path d="M0 0 C1.32 0 2.64 0 4 0 C5.354 2.709 5.065 5.009 5 8 C2.36 8 -0.28 8 -3 8 C-3 8.66 -3 9.32 -3 10 C-3.66 10 -4.32 10 -5 10 C-5.182 10.592 -5.364 11.183 -5.551 11.793 C-7.7 18.551 -7.7 18.551 -9.625 21.438 C-11.75 25.397 -11.75 29.567 -12 34 C-13.32 33.67 -14.64 33.34 -16 33 C-16.514 26.836 -14.978 23.318 -12 18 C-11.284 16.587 -10.576 15.17 -9.875 13.75 C-8.583 11.167 -7.292 8.583 -6 6 C-5.34 6 -4.68 6 -4 6 C-3.567 5.072 -3.567 5.072 -3.125 4.125 C-2 2 -2 2 0 0 Z " fill="#FFFFFF" transform="translate(178,200)"/>
<path d="M0 0 C4.514 -0.366 4.514 -0.366 6.562 1.176 C8.384 3.488 8.951 5.531 9.688 8.375 C10.065 9.779 10.065 9.779 10.449 11.211 C10.987 13.937 11.265 16.235 11 19 C8.043 21.957 5.02 23.836 1 25 C0.01 24.67 -0.98 24.34 -2 24 C-1.196 23.629 -0.391 23.257 0.438 22.875 C3.166 21.226 3.166 21.226 4 18.5 C4 13.38 2.485 8.866 1 4 C0.657 2.669 0.32 1.337 0 0 Z " fill="#FFFFFF" transform="translate(162,67)"/>
<path d="M0 0 C-0.99 0.495 -0.99 0.495 -2 1 C-2.652 3.025 -2.652 3.025 -3 5 C-3.66 5 -4.32 5 -5 5 C-5.227 5.639 -5.454 6.279 -5.688 6.938 C-8.033 12.409 -10.559 17.934 -15 22 C-16.562 20.75 -16.562 20.75 -18 19 C-17.499 15.577 -15.995 12.561 -14.562 9.438 C-14.131 8.487 -13.699 7.537 -13.254 6.559 C-10.721 1.39 -10.721 1.39 -7.688 -0.25 C-4.688 -1.087 -2.962 -0.846 0 0 Z " fill="#B4B4B4" transform="translate(146,181)"/>
<path d="M0 0 C2.292 3.438 2.295 4.921 2.414 8.98 C2.453 10.144 2.491 11.307 2.531 12.506 C2.578 14.328 2.578 14.328 2.625 16.188 C2.664 17.414 2.702 18.641 2.742 19.904 C2.837 22.936 2.922 25.968 3 29 C3.66 27.35 4.32 25.7 5 24 C6 27 6 27 5.075 30.359 C3.477 36.261 3.753 42.178 3.805 48.25 C3.808 49.504 3.81 50.758 3.813 52.05 C3.823 55.357 3.84 58.665 3.863 61.972 C3.883 65.358 3.892 68.743 3.902 72.129 C3.924 78.753 3.958 85.376 4 92 C6.475 91.01 6.475 91.01 9 90 C9 90.66 9 91.32 9 92 C6.03 92.99 6.03 92.99 3 94 C0.895 91.895 1.754 87.26 1.703 84.349 C1.683 83.442 1.664 82.535 1.643 81.6 C1.579 78.586 1.522 75.573 1.465 72.559 C1.422 70.475 1.378 68.391 1.335 66.308 C1.22 60.812 1.112 55.316 1.004 49.82 C0.894 44.217 0.778 38.613 0.662 33.01 C0.436 22.007 0.216 11.003 0 0 Z " fill="#000000" transform="translate(223,109)"/>
<path d="M0 0 C-0.99 0.495 -0.99 0.495 -2 1 C-2 1.66 -2 2.32 -2 3 C-2.66 3 -3.32 3 -4 3 C-4.33 3.99 -4.66 4.98 -5 6 C-5.66 6 -6.32 6 -7 6 C-7.227 6.804 -7.454 7.609 -7.688 8.438 C-8.775 11.388 -9.935 13.742 -11.5 16.438 C-13.693 20.255 -14.999 23.722 -16 28 C-18.062 26.375 -18.062 26.375 -20 24 C-19.842 20.201 -18.892 17.28 -17 14 C-16.34 14 -15.68 14 -15 14 C-14.783 12.824 -14.783 12.824 -14.562 11.625 C-14 9 -14 9 -13 7 C-12.34 7 -11.68 7 -11 7 C-10.732 6.402 -10.464 5.804 -10.188 5.188 C-7.507 0.249 -5.649 -0.377 0 0 Z " fill="#FFFFFF" transform="translate(161,188)"/>
<path d="M0 0 C0.66 0.33 1.32 0.66 2 1 C2.619 12.34 0.954 22.437 -1.474 33.478 C-2.469 38.249 -3.225 43.067 -3.96 47.884 C-4.242 49.601 -4.613 51.304 -5 53 C-5.99 53.495 -5.99 53.495 -7 54 C-6.611 43.027 -5.35 32.753 -3 22 C-2.438 19.108 -1.905 16.211 -1.375 13.312 C0.043 5.568 0.043 5.568 1 2 C0.34 2 -0.32 2 -1 2 C-1.33 2.66 -1.66 3.32 -2 4 C-2 3.01 -2 2.02 -2 1 C-1.34 0.67 -0.68 0.34 0 0 Z " fill="#181818" transform="translate(214,123)"/>
<path d="M0 0 C0.66 0.33 1.32 0.66 2 1 C1.651 1.438 1.301 1.877 0.941 2.328 C-3.732 8.841 -4.554 15.36 -3.777 23.266 C-2.549 29.326 0.193 35.055 5.328 38.613 C7.52 39.837 9.714 40.964 12 42 C12 42.33 12 42.66 12 43 C6.85 43.385 4.76 41.772 0.863 38.652 C-5.387 33.11 -7.371 27.938 -7.965 19.812 C-8.051 12.954 -5.575 7.72 -2 2 C-1.34 2 -0.68 2 0 2 C0 1.34 0 0.68 0 0 Z " fill="#FFFFFF" transform="translate(251,16)"/>
<path d="M0 0 C1.32 0.66 2.64 1.32 4 2 C4 3.32 4 4.64 4 6 C7.265 4.196 8.889 3.166 11 0 C12.65 0.33 14.3 0.66 16 1 C15.34 2.98 14.68 4.96 14 7 C13.01 7 12.02 7 11 7 C11 7.66 11 8.32 11 9 C8.691 11.628 7.36 12.88 4 14 C3.34 13.67 2.68 13.34 2 13 C1.34 14.98 0.68 16.96 0 19 C-0.66 18.67 -1.32 18.34 -2 18 C-1.25 13.25 -1.25 13.25 1 11 C0.67 10.01 0.34 9.02 0 8 C0.165 7.361 0.33 6.721 0.5 6.062 C1.077 3.682 0.74 2.303 0 0 Z " fill="#242424" transform="translate(208,66)"/>
<path d="M0 0 C1.12 3.363 0.857 5.57 0.004 8.984 C-0.225 9.919 -0.454 10.854 -0.689 11.816 C-0.936 12.784 -1.183 13.753 -1.438 14.75 C-1.68 15.734 -1.923 16.717 -2.174 17.73 C-2.774 20.156 -3.383 22.579 -4 25 C-3.381 25.038 -2.761 25.076 -2.123 25.115 C6.087 25.731 14.012 27.25 22.062 28.938 C23.393 29.205 24.723 29.473 26.053 29.74 C27.931 30.13 27.931 30.13 29.848 30.527 C30.982 30.762 32.117 30.996 33.285 31.238 C36 32 36 32 38 34 C29.365 32.945 20.976 31.414 12.505 29.471 C6.698 28.14 0.877 26.984 -5 26 C-5 26.99 -5 27.98 -5 29 C-3.02 29.33 -1.04 29.66 1 30 C0.67 30.99 0.34 31.98 0 33 C-1.98 32.67 -3.96 32.34 -6 32 C-6.33 32.66 -6.66 33.32 -7 34 C-5.565 22.455 -2.799 11.276 0 0 Z M42 23 C43 25 43 25 42.441 26.945 C42.151 27.665 41.861 28.384 41.562 29.125 C41.275 29.849 40.988 30.574 40.691 31.32 C40.463 31.875 40.235 32.429 40 33 C39.34 32.67 38.68 32.34 38 32 C39.32 29.03 40.64 26.06 42 23 Z " fill="#080808" transform="translate(165,3)"/>
<path d="M0 0 C0.66 0.33 1.32 0.66 2 1 C2.949 0.917 3.898 0.835 4.875 0.75 C10.647 0.603 15.872 3.642 21 6 C21 4.02 21 2.04 21 0 C21.33 0 21.66 0 22 0 C22.277 2.729 22.522 5.455 22.75 8.188 C22.831 8.956 22.912 9.725 22.996 10.518 C23.318 14.69 23.373 16.427 21.016 20.051 C20.35 20.694 19.685 21.337 19 22 C18.34 21.67 17.68 21.34 17 21 C17.474 20.402 17.949 19.804 18.438 19.188 C20.165 16.996 20.165 16.996 21 14 C20.505 14.33 20.01 14.66 19.5 15 C15.821 16.472 12.964 16.252 9 16 C8.01 15.34 7.02 14.68 6 14 C6.996 14.017 6.996 14.017 8.012 14.035 C14.563 14.119 14.563 14.119 21 13 C20.67 11.68 20.34 10.36 20 9 C19.67 9.99 19.34 10.98 19 12 C13.709 12.835 9.308 13.192 4 12 C3.67 11.34 3.34 10.68 3 10 C7.95 10.33 12.9 10.66 18 11 C18 9.68 18 8.36 18 7 C17.34 7 16.68 7 16 7 C16 6.34 16 5.68 16 5 C13.919 4.75 11.835 4.526 9.75 4.312 C8.59 4.185 7.43 4.057 6.234 3.926 C2.675 4.007 1.518 4.575 -1 7 C-1.33 6.34 -1.66 5.68 -2 5 C-2.66 4.67 -3.32 4.34 -4 4 C-2.68 3.67 -1.36 3.34 0 3 C0 2.01 0 1.02 0 0 Z " fill="#000000" transform="translate(136,37)"/>
<path d="M0 0 C0.66 0 1.32 0 2 0 C1.21 6.808 0.13 13.553 -1 20.312 C-1.178 21.396 -1.356 22.479 -1.539 23.596 C-1.712 24.633 -1.885 25.67 -2.062 26.738 C-2.218 27.677 -2.374 28.616 -2.535 29.583 C-3 32 -3 32 -4 35 C-4.226 38.213 -4.393 41.42 -4.518 44.639 C-4.785 49.785 -4.785 49.785 -7 52 C-10.178 45.643 -7.371 36.053 -6.188 29.375 C-6.007 28.326 -5.826 27.276 -5.639 26.195 C-1.656 3.311 -1.656 3.311 0 0 Z " fill="#FFFFFF" transform="translate(213,125)"/>
<path d="M0 0 C1.675 0.286 3.344 0.618 5 1 C5.66 2.98 6.32 4.96 7 7 C7.41 6.495 7.82 5.989 8.242 5.469 C8.781 4.819 9.32 4.169 9.875 3.5 C10.409 2.85 10.942 2.201 11.492 1.531 C11.99 1.026 12.487 0.521 13 0 C13.66 0 14.32 0 15 0 C15.228 2.018 15.456 4.036 15.684 6.055 C15.913 8.074 15.913 8.074 17 10 C16.34 10 15.68 10 15 10 C15 10.99 15 11.98 15 13 C14.34 13 13.68 13 13 13 C13 12.01 13 11.02 13 10 C10.69 10 8.38 10 6 10 C6 10.66 6 11.32 6 12 C0.25 13.125 0.25 13.125 -2 12 C-2 11.01 -2 10.02 -2 9 C-1.34 9 -0.68 9 0 9 C0 9.66 0 10.32 0 11 C1.65 11 3.3 11 5 11 C4.67 10.01 4.34 9.02 4 8 C3.01 7.67 2.02 7.34 1 7 C1 6.34 1 5.68 1 5 C1.99 5 2.98 5 4 5 C3.67 4.34 3.34 3.68 3 3 C2.34 3 1.68 3 1 3 C0.67 3.66 0.34 4.32 0 5 C-0.66 5 -1.32 5 -2 5 C-1.125 1.125 -1.125 1.125 0 0 Z " fill="#1B1B1B" transform="translate(303,292)"/>
<path d="M0 0 C0.944 0.205 1.887 0.41 2.859 0.621 C21.111 4.451 39.606 5.635 58 2 C58.996 1.809 59.993 1.618 61.02 1.422 C63.351 0.965 65.677 0.493 68 0 C68 0.66 68 1.32 68 2 C46.757 10.617 21.588 7.744 0 2 C0 1.34 0 0.68 0 0 Z " fill="#FFFFFF" transform="translate(127,107)"/>
<path d="M0 0 C0.99 0 1.98 0 3 0 C3.384 10.226 3.424 20.08 1.25 30.125 C1.093 30.888 0.936 31.651 0.774 32.437 C-0.463 37.626 -0.463 37.626 -3.141 39.492 C-4.061 39.744 -4.061 39.744 -5 40 C-4.711 38.499 -4.419 37 -4.125 35.5 C-3.963 34.665 -3.8 33.829 -3.633 32.969 C-3.16 30.752 -2.589 28.555 -1.969 26.375 C-0.642 21.138 -0.544 15.878 -0.375 10.5 C-0.336 9.487 -0.298 8.474 -0.258 7.43 C-0.164 4.953 -0.079 2.477 0 0 Z " fill="#FFFFFF" transform="translate(179,248)"/>
<path d="M0 0 C-0.41 0.459 -0.82 0.918 -1.242 1.391 C-1.781 2.004 -2.32 2.618 -2.875 3.25 C-3.409 3.853 -3.942 4.457 -4.492 5.078 C-5.98 6.974 -7.003 8.813 -8 11 C-8.66 11 -9.32 11 -10 11 C-10.268 11.701 -10.536 12.403 -10.812 13.125 C-12.068 16.165 -13.502 19.073 -15 22 C-15.66 22 -16.32 22 -17 22 C-17 21.34 -17 20.68 -17 20 C-17.66 19.67 -18.32 19.34 -19 19 C-9.739 -0.551 -9.739 -0.551 0 0 Z " fill="#FFFFFF" transform="translate(151,183)"/>
<path d="M0 0 C0.771 0.09 1.542 0.18 2.336 0.273 C4.48 0.603 6.532 1.061 8.625 1.625 C8.625 2.285 8.625 2.945 8.625 3.625 C9.285 3.625 9.945 3.625 10.625 3.625 C10.625 4.945 10.625 6.265 10.625 7.625 C8.5 7.652 6.375 7.671 4.25 7.688 C3.067 7.699 1.883 7.711 0.664 7.723 C-2.375 7.625 -2.375 7.625 -4.375 6.625 C-4.375 5.965 -4.375 5.305 -4.375 4.625 C-5.365 4.295 -6.355 3.965 -7.375 3.625 C-7.045 2.635 -6.715 1.645 -6.375 0.625 C-3.912 -0.607 -2.709 -0.333 0 0 Z " fill="#FFFFFF" transform="translate(143.375,40.375)"/>
<path d="M0 0 C0.825 0.598 1.65 1.196 2.5 1.812 C6.123 4.248 9.884 5.581 14 7 C13.67 5.35 13.34 3.7 13 2 C16.703 4.469 16.884 5.774 18 10 C18.375 12.327 18.719 14.66 19 17 C19.66 17 20.32 17 21 17 C21 18.32 21 19.64 21 21 C20.34 21 19.68 21 19 21 C18.691 22.114 18.381 23.227 18.062 24.375 C17 28 17 28 16 30 C15.34 29.67 14.68 29.34 14 29 C14.516 28.01 15.031 27.02 15.562 26 C17.329 21.825 17.5 18.302 16 14 C13.327 10.764 10.304 7.298 5.949 6.734 C1.239 6.767 -2.573 7.184 -7 9 C-6.216 8.257 -5.433 7.515 -4.625 6.75 C-2.435 4.456 -1.173 2.878 0 0 Z " fill="#111111" transform="translate(267,207)"/>
<path d="M0 0 C0.99 0 1.98 0 3 0 C3 0.66 3 1.32 3 2 C4.766 2.221 6.531 2.441 8.297 2.662 C11.865 3.108 15.432 3.554 19 4 C20.147 4.143 20.147 4.143 21.316 4.29 C24.158 4.645 24.158 4.645 27 5 C27 5.33 27 5.66 27 6 C21.56 6.086 16.341 5.915 10.945 5.219 C8.829 4.944 8.829 4.944 6 5 C6.816 10.953 6.816 10.953 9.75 16 C12.483 17.215 15.037 17.663 18 18 C17.67 16.68 17.34 15.36 17 14 C17.66 14 18.32 14 19 14 C20.779 21.117 20.279 27.163 18 34 C16.545 31.089 17.365 29.042 17.938 25.875 C18.132 24.779 18.327 23.684 18.527 22.555 C18.683 21.712 18.839 20.869 19 20 C17.783 19.918 16.566 19.835 15.312 19.75 C11.132 19.188 8.816 18.313 6 15 C5.358 12.671 4.943 10.422 4.652 8.023 C4.178 5.802 4.178 5.802 1.941 4.727 C1.301 4.487 0.66 4.247 0 4 C0 2.68 0 1.36 0 0 Z " fill="#020202" transform="translate(222,59)"/>
<path d="M0 0 C5.94 0 11.88 0 18 0 C16.039 5.884 15.026 7.772 11 12 C10.34 12 9.68 12 9 12 C9 11.34 9 10.68 9 10 C8.34 10 7.68 10 7 10 C6.67 8.35 6.34 6.7 6 5 C4.02 4.34 2.04 3.68 0 3 C0 2.01 0 1.02 0 0 Z " fill="#FFFFFF" transform="translate(209,42)"/>
<path d="M0 0 C1.32 0.66 2.64 1.32 4 2 C3.01 2 2.02 2 1 2 C0.951 2.713 0.902 3.426 0.852 4.16 C0.417 9.726 -0.427 14.633 -2 20 C-4.296 31.459 -4.623 43.012 -5.104 54.649 C-6.187 80.187 -6.187 80.187 -10 84 C-9.867 83.208 -9.733 82.415 -9.595 81.599 C-7.88 70.664 -7.386 59.796 -6.971 48.749 C-6.496 36.465 -5.919 23.757 -2 12 C-1.698 9.136 -1.492 6.271 -1.281 3.398 C-1 1 -1 1 0 0 Z " fill="#000000" transform="translate(258,105)"/>
<path d="M0 0 C8.84 0.543 17.343 2.116 26 3.938 C27.322 4.205 28.643 4.473 29.965 4.74 C31.214 5 32.463 5.26 33.75 5.527 C34.879 5.762 36.008 5.996 37.172 6.238 C40 7 40 7 43 9 C32.426 8.035 21.89 6.928 11.375 5.438 C10.469 5.311 9.563 5.184 8.63 5.053 C7.791 4.931 6.951 4.809 6.086 4.684 C5.344 4.576 4.602 4.468 3.837 4.357 C2 4 2 4 0 3 C0 2.01 0 1.02 0 0 Z " fill="#FFFFFF" transform="translate(160,29)"/>
<path d="M0 0 C1.134 0.021 2.269 0.041 3.438 0.062 C3.768 1.053 4.097 2.042 4.438 3.062 C5.428 3.392 6.417 3.722 7.438 4.062 C7.108 6.703 6.778 9.343 6.438 12.062 C5.778 12.062 5.118 12.062 4.438 12.062 C4.107 11.073 3.778 10.082 3.438 9.062 C-0.813 6.431 -4.619 5.557 -9.562 5.062 C-9.562 3.742 -9.562 2.422 -9.562 1.062 C-8.356 1.093 -8.356 1.093 -7.125 1.125 C-3.72 1.042 -3.776 0.066 0 0 Z " fill="#555555" transform="translate(208.5625,55.9375)"/>
<path d="M0 0 C1.65 0.33 3.3 0.66 5 1 C5.25 2.434 5.474 3.873 5.688 5.312 C5.815 6.113 5.943 6.914 6.074 7.738 C6 10 6 10 4.684 11.805 C3 13 3 13 0.375 12.812 C-2 12 -2 12 -3 10 C-3.303 6.51 -3.395 4.625 -1.5 1.625 C-1.005 1.089 -0.51 0.553 0 0 Z " fill="#000000" transform="translate(255,292)"/>
<path d="M0 0 C1.32 0 2.64 0 4 0 C4 0.66 4 1.32 4 2 C4.66 2 5.32 2 6 2 C7.354 8.4 7.354 8.4 5.562 11.438 C5.047 11.953 4.531 12.469 4 13 C1.562 12.625 1.562 12.625 -1 12 C-2.509 8.981 -2.175 6.327 -2 3 C-1.34 2.01 -0.68 1.02 0 0 Z " fill="#000000" transform="translate(274,292)"/>
<path d="M0 0 C2 0.75 2 0.75 4 3.75 C4.331 6.932 4.506 8.924 2.812 11.688 C1 12.75 1 12.75 -1.625 12.562 C-4 11.75 -4 11.75 -5 9.75 C-4.949 7.621 -4.949 7.621 -4.688 5.188 C-4.609 4.382 -4.53 3.576 -4.449 2.746 C-4.301 2.087 -4.153 1.429 -4 0.75 C-2 -0.25 -2 -0.25 0 0 Z " fill="#000000" transform="translate(267,292.25)"/>
<path d="M0 0 C2.64 0 5.28 0 8 0 C9.498 3.371 10 5.204 10 9 C10.124 10.268 10.124 10.268 10.25 11.562 C10 14 10 14 8.375 15.875 C5.111 17.421 3.384 17.177 0 16 C-1.375 13.438 -1.375 13.438 -2 11 C-1.01 11 -0.02 11 1 11 C1 11.99 1 12.98 1 14 C2.98 14 4.96 14 7 14 C7 12.35 7 10.7 7 9 C5.35 8.67 3.7 8.34 2 8 C5 6 5 6 7 6 C7 4.68 7 3.36 7 2 C5.35 2.33 3.7 2.66 2 3 C1.67 3.99 1.34 4.98 1 6 C0.34 6 -0.32 6 -1 6 C-0.67 4.02 -0.34 2.04 0 0 Z " fill="#000000" transform="translate(280,166)"/>
<path d="M0 0 C2 2 2 2 2.125 5.625 C2.084 6.739 2.042 7.852 2 9 C1.34 8.34 0.68 7.68 0 7 C-2.662 6.537 -2.662 6.537 -5.625 6.375 C-6.628 6.3 -7.631 6.225 -8.664 6.148 C-9.435 6.099 -10.206 6.05 -11 6 C-10.01 7.485 -10.01 7.485 -9 9 C-10.32 8.34 -11.64 7.68 -13 7 C-12.125 2.25 -12.125 2.25 -11 0 C-6.881 -1.373 -4.279 -0.747 0 0 Z " fill="#434343" transform="translate(128,85)"/>
<path d="M0 0 C5.351 -0.412 10.266 0.447 15 3 C16.688 5.812 16.688 5.812 17 9 C16.125 12.375 16.125 12.375 15 15 C14.34 15 13.68 15 13 15 C12.67 12.69 12.34 10.38 12 8 C8.04 6.68 4.08 5.36 0 4 C0 2.68 0 1.36 0 0 Z " fill="#FFFFFF" transform="translate(186,60)"/>
<path d="M0 0 C2 3 2 3 2.062 5.375 C0.484 9.275 -2.498 10.851 -6 13 C-3.36 13.33 -0.72 13.66 2 14 C2 14.66 2 15.32 2 16 C-1.96 16 -5.92 16 -10 16 C-8.68 10.721 -6.443 8.962 -2 6 C-2 4.68 -2 3.36 -2 2 C-3.985 2.267 -3.985 2.267 -6 3 C-6.33 3.99 -6.66 4.98 -7 6 C-7.99 5.67 -8.98 5.34 -10 5 C-9.188 2.562 -9.188 2.562 -8 0 C-4.672 -1.109 -3.301 -1.016 0 0 Z " fill="#000000" transform="translate(292,110)"/>
<path d="M0 0 C4.005 0.523 5.648 2.397 8.25 5.375 C8.956 6.166 9.663 6.958 10.391 7.773 C12 10 12 10 12 13 C8.165 13.357 6.447 13.298 3.188 11.125 C0.212 8.234 0.011 7.611 -0.062 3.375 C-0.042 2.261 -0.021 1.147 0 0 Z " fill="#FFFFFF" transform="translate(228,64)"/>
<path d="M0 0 C0.99 0.33 1.98 0.66 3 1 C2.67 3.31 2.34 5.62 2 8 C5.878 8.434 5.878 8.434 7.75 6.5 C8.162 6.005 8.575 5.51 9 5 C8.67 6.32 8.34 7.64 8 9 C8.66 9 9.32 9 10 9 C10.33 8.01 10.66 7.02 11 6 C11 7.32 11 8.64 11 10 C3.571 13.286 3.571 13.286 0 14 C0 13.01 0 12.02 0 11 C-2.97 10.505 -2.97 10.505 -6 10 C-6 9.34 -6 8.68 -6 8 C-6.99 7.67 -7.98 7.34 -9 7 C-8.67 5.68 -8.34 4.36 -8 3 C-8 3.66 -8 4.32 -8 5 C-6.68 4.34 -5.36 3.68 -4 3 C-4 3.99 -4 4.98 -4 6 C-2.68 6.33 -1.36 6.66 0 7 C0 4.69 0 2.38 0 0 Z " fill="#181818" transform="translate(198,87)"/>
<path d="M0 0 C3 1 3 1 4.168 2.68 C7.062 8.912 7.459 14.182 7 21 C8.32 21.66 9.64 22.32 11 23 C10.01 23 9.02 23 8 23 C5.731 31.002 4.994 39.074 4.145 47.328 C4.025 48.414 3.905 49.499 3.781 50.617 C3.679 51.603 3.576 52.589 3.471 53.605 C3 56 3 56 1 58 C1.99 48.1 2.98 38.2 4 28 C3.67 28.66 3.34 29.32 3 30 C2.34 29.67 1.68 29.34 1 29 C1.66 27.886 2.32 26.773 3 25.625 C5.427 20.753 5.781 16.36 5 11 C3.618 7.648 3.618 7.648 2 5 C2 4.01 2 3.02 2 2 C1.34 2 0.68 2 0 2 C0 1.34 0 0.68 0 0 Z " fill="#000000" transform="translate(104,167)"/>
<path d="M0 0 C1.98 0.99 3.96 1.98 6 3 C6 3.66 6 4.32 6 5 C9.63 6.65 13.26 8.3 17 10 C13.084 11.305 11.961 10.322 8.312 8.562 C7.319 8.089 6.325 7.616 5.301 7.129 C4.542 6.756 3.782 6.384 3 6 C2.67 7.98 2.34 9.96 2 12 C3.093 11.938 4.186 11.876 5.312 11.812 C9 12 9 12 10.688 13.219 C12.324 15.44 12.489 16.954 12.688 19.688 C12.786 20.9 12.786 20.9 12.887 22.137 C12.924 22.752 12.961 23.366 13 24 C12.67 24 12.34 24 12 24 C11.01 21.03 10.02 18.06 9 15 C7.35 14.67 5.7 14.34 4 14 C4.33 14.701 4.66 15.403 5 16.125 C6.09 19.26 6.153 21.706 6 25 C5.67 25 5.34 25 5 25 C4.01 21.7 3.02 18.4 2 15 C1.34 15.99 0.68 16.98 0 18 C-0.125 11.25 -0.125 11.25 1 9 C0.34 8.67 -0.32 8.34 -1 8 C-0.34 7.67 0.32 7.34 1 7 C0.67 4.69 0.34 2.38 0 0 Z " fill="#000000" transform="translate(159,54)"/>
<path d="M0 0 C1.114 0.34 1.114 0.34 2.25 0.688 C1.689 4.225 0.554 5.68 -2.188 7.938 C-2.805 8.458 -3.422 8.979 -4.059 9.516 C-5.75 10.688 -5.75 10.688 -7.75 10.688 C-7.75 11.347 -7.75 12.007 -7.75 12.688 C-8.74 12.688 -9.73 12.688 -10.75 12.688 C-11.08 13.347 -11.41 14.007 -11.75 14.688 C-11.243 10.969 -10.634 7.953 -8.75 4.688 C-8.09 4.688 -7.43 4.688 -6.75 4.688 C-6.75 4.028 -6.75 3.368 -6.75 2.688 C-4.359 0.297 -3.423 -0.389 0 0 Z " fill="#FFFFFF" transform="translate(264.75,206.3125)"/>
<path d="M0 0 C5.75 -0.125 5.75 -0.125 8 1 C7.691 2.626 7.378 4.251 7.062 5.875 C6.888 6.78 6.714 7.685 6.535 8.617 C6 11 6 11 5 13 C3.35 13 1.7 13 0 13 C-0.967 9.878 -0.99 7.479 -0.562 4.25 C-0.461 3.451 -0.359 2.652 -0.254 1.828 C-0.17 1.225 -0.086 0.622 0 0 Z " fill="#FFFFFF" transform="translate(209,88)"/>
<path d="M0 0 C5.94 0.66 11.88 1.32 18 2 C17.34 4.31 16.68 6.62 16 9 C15.764 11.36 15.764 11.36 15.875 13.438 C15.916 14.613 15.958 15.789 16 17 C12.862 18.569 10.361 17.376 7 16.625 C5.742 16.349 4.484 16.073 3.188 15.789 C0 15 0 15 -2 14 C-1.859 12.041 -1.712 10.083 -1.562 8.125 C-1.481 7.034 -1.4 5.944 -1.316 4.82 C-1 2 -1 2 0 0 Z M0 3 C-0.233 4.682 -0.413 6.371 -0.562 8.062 C-0.646 8.982 -0.73 9.901 -0.816 10.848 C-0.877 11.558 -0.938 12.268 -1 13 C0.371 13.512 1.747 14.009 3.125 14.5 C3.891 14.778 4.656 15.057 5.445 15.344 C8.529 16.249 8.529 16.249 14 16 C14.66 11.71 15.32 7.42 16 3 C7.532 1.181 7.532 1.181 0 3 Z " fill="#000000" transform="translate(158,257)"/>
<path d="M0 0 C1.125 1.625 1.125 1.625 2 4 C1.076 8.198 0.64 9.573 -3 12 C-2.67 12.66 -2.34 13.32 -2 14 C-7.075 15.263 -11.728 16.27 -17 16 C-17 15.01 -17 14.02 -17 13 C-15.645 12.584 -15.645 12.584 -14.262 12.16 C-13.082 11.798 -11.903 11.436 -10.688 11.062 C-9.516 10.703 -8.344 10.343 -7.137 9.973 C-5.084 9.336 -3.038 8.679 -1 8 C-0.67 5.36 -0.34 2.72 0 0 Z " fill="#2B2B2B" transform="translate(165,79)"/>
<path d="M0 0 C9.089 0.574 18.002 1.611 27 3 C26.67 3.99 26.34 4.98 26 6 C20.105 6.211 14.41 5.815 8.562 5.125 C7.852 5.047 7.142 4.968 6.41 4.887 C1.24 4.24 1.24 4.24 -1 2 C-0.67 1.34 -0.34 0.68 0 0 Z " fill="#000000" transform="translate(166,33)"/>
<path d="M0 0 C1.475 3.85 0.451 6.289 -0.938 10.062 C-2.557 14.424 -2.557 14.424 -3 19 C-5.972 17.875 -8.334 16.777 -11 15 C-9.719 13.293 -8.382 11.626 -7 10 C-6.34 10 -5.68 10 -5 10 C-5 9.34 -5 8.68 -5 8 C-4.01 8 -3.02 8 -2 8 C-1.32 5.603 -1.32 5.603 -1 3 C-1.66 2.34 -2.32 1.68 -3 1 C-2.01 0.67 -1.02 0.34 0 0 Z " fill="#323232" transform="translate(224,65)"/>
<path d="M0 0 C2.438 0.375 2.438 0.375 4.438 2.375 C4.438 3.365 4.438 4.355 4.438 5.375 C3.447 5.045 2.458 4.715 1.438 4.375 C1.438 3.715 1.438 3.055 1.438 2.375 C0.118 2.375 -1.202 2.375 -2.562 2.375 C-2.232 3.365 -1.903 4.355 -1.562 5.375 C1.446 6.6 1.446 6.6 4.438 7.375 C4.438 9.355 4.438 11.335 4.438 13.375 C-2.188 14.625 -2.188 14.625 -5.562 12.375 C-5.562 11.715 -5.562 11.055 -5.562 10.375 C-2.923 10.705 -0.282 11.035 2.438 11.375 C2.107 10.715 1.778 10.055 1.438 9.375 C0.633 9.251 -0.171 9.127 -1 9 C-3.562 8.375 -3.562 8.375 -4.875 6.312 C-5.102 5.673 -5.329 5.034 -5.562 4.375 C-3.247 0.475 -3.247 0.475 0 0 Z " fill="#000000" transform="translate(241.5625,290.625)"/>
<path d="M0 0 C8.667 -0.441 8.667 -0.441 13 3 C13.99 4.485 13.99 4.485 15 6 C14.67 6.99 14.34 7.98 14 9 C12.035 8.267 10.078 7.513 8.125 6.75 C7.034 6.332 5.944 5.915 4.82 5.484 C1.846 3.919 1.054 3.121 0 0 Z " fill="#FFFFFF" transform="translate(267,206)"/>
<path d="M0 0 C1.454 0.031 1.454 0.031 2.938 0.062 C2.938 1.053 2.938 2.043 2.938 3.062 C1.947 3.558 1.947 3.558 0.938 4.062 C1.928 4.723 2.918 5.382 3.938 6.062 C4.125 9.188 4.125 9.188 3.938 12.062 C-1.812 13.188 -1.812 13.188 -4.062 12.062 C-3.733 11.072 -3.402 10.082 -3.062 9.062 C-3.062 9.723 -3.062 10.382 -3.062 11.062 C-1.413 11.062 0.238 11.062 1.938 11.062 C1.608 9.743 1.277 8.423 0.938 7.062 C-0.712 7.062 -2.363 7.062 -4.062 7.062 C-4.105 5.063 -4.103 3.062 -4.062 1.062 C-3.062 0.062 -3.062 0.062 0 0 Z " fill="#000000" transform="translate(286.0625,291.9375)"/>
<path d="M0 0 C2.97 0.495 2.97 0.495 6 1 C5.34 2.98 4.68 4.96 4 7 C3.01 7 2.02 7 1 7 C1 7.66 1 8.32 1 9 C-2.462 12 -2.462 12 -5 12 C-5.25 9.188 -5.25 9.188 -5 6 C-3.062 4.312 -3.062 4.312 -1 3 C-0.67 2.01 -0.34 1.02 0 0 Z " fill="#FFFFFF" transform="translate(218,66)"/>
<path d="M0 0 C1.32 0 2.64 0 4 0 C4.082 4.161 3.982 7.947 3 12 C2.01 12.33 1.02 12.66 0 13 C-0.66 12.67 -1.32 12.34 -2 12 C-2.178 7.452 -1.998 4.121 0 0 Z " fill="#000000" transform="translate(152,122)"/>
<path d="M0 0 C0.33 0 0.66 0 1 0 C0.517 6.205 -0.333 11.999 -2 18 C-2.268 17.361 -2.536 16.721 -2.812 16.062 C-3.887 13.669 -3.887 13.669 -7 13 C-6.67 12.34 -6.34 11.68 -6 11 C-10.62 11 -15.24 11 -20 11 C-19.67 9.35 -19.34 7.7 -19 6 C-18.67 6.99 -18.34 7.98 -18 9 C-12.39 9 -6.78 9 -1 9 C-0.67 6.03 -0.34 3.06 0 0 Z " fill="#000000" transform="translate(229,29)"/>
<path d="M0 0 C0 4.099 -1.523 5.787 -4 9 C-6.989 11.187 -8.279 12 -12 12 C-10.848 9.532 -9.952 7.952 -8 6 C-8 5.01 -8 4.02 -8 3 C-5.36 2.01 -2.72 1.02 0 0 Z " fill="#BBBBBB" transform="translate(207,97)"/>
<path d="M0 0 C1.32 0.66 2.64 1.32 4 2 C0.309 5.283 -2.901 6.906 -7.625 8.312 C-9.315 8.833 -9.315 8.833 -11.039 9.363 C-14 10 -14 10 -17 9 C-17 8.34 -17 7.68 -17 7 C-15.268 6.629 -15.268 6.629 -13.5 6.25 C-8.94 5.12 -3.404 3.404 0 0 Z " fill="#191919" transform="translate(196,101)"/>
<path d="M0 0 C1.582 0.007 3.164 0.019 4.746 0.035 C5.552 0.04 6.359 0.044 7.189 0.049 C9.188 0.061 11.186 0.079 13.184 0.098 C12.544 0.201 11.905 0.304 11.246 0.41 C10.565 0.637 9.885 0.864 9.184 1.098 C8.854 2.088 8.524 3.078 8.184 4.098 C6.767 4.125 5.35 4.144 3.934 4.16 C2.75 4.178 2.75 4.178 1.543 4.195 C-0.723 4.102 -2.645 3.73 -4.816 3.098 C-5.146 3.758 -5.476 4.418 -5.816 5.098 C-4.692 0.12 -4.692 0.12 0 0 Z " fill="#6B6B6B" transform="translate(213.81640625,38.90234375)"/>
<path d="M0 0 C5.126 -0.103 9.95 -0.036 15 1 C14.67 2.32 14.34 3.64 14 5 C12.041 4.859 10.083 4.712 8.125 4.562 C7.034 4.481 5.944 4.4 4.82 4.316 C2 4 2 4 0 3 C0 2.01 0 1.02 0 0 Z " fill="#FFFFFF" transform="translate(159,251)"/>
<path d="M0 0 C0.99 0 1.98 0 3 0 C3.33 0.66 3.66 1.32 4 2 C5.98 2 7.96 2 10 2 C10 2.66 10 3.32 10 4 C9.34 4 8.68 4 8 4 C7.67 5.65 7.34 7.3 7 9 C5.68 9.33 4.36 9.66 3 10 C0.966 6.27 0 4.331 0 0 Z " fill="#D9D9D9" transform="translate(107,167)"/>
<path d="M0 0 C0.33 -0.66 0.66 -1.32 1 -2 C0.715 -0.582 0.422 0.834 0.125 2.25 C-0.037 3.039 -0.2 3.828 -0.367 4.641 C-0.992 6.968 -1.848 8.89 -3 11 C-3.66 10.67 -4.32 10.34 -5 10 C-4.01 7.69 -3.02 5.38 -2 3 C-7.28 2.01 -12.56 1.02 -18 0 C-18 -0.33 -18 -0.66 -18 -1 C-11.504 -2.203 -6.39 -1.584 0 0 Z " fill="#101010" transform="translate(203,38)"/>
<path d="M0 0 C0.763 0.206 1.526 0.413 2.312 0.625 C2.562 2.059 2.786 3.498 3 4.938 C3.128 5.738 3.255 6.539 3.387 7.363 C3.312 9.625 3.312 9.625 2.031 11.438 C0.312 12.625 0.312 12.625 -2.875 12.312 C-3.803 12.086 -4.731 11.859 -5.688 11.625 C-5.688 10.635 -5.688 9.645 -5.688 8.625 C-5.027 8.625 -4.368 8.625 -3.688 8.625 C-3.688 9.285 -3.688 9.945 -3.688 10.625 C-2.038 10.625 -0.387 10.625 1.312 10.625 C1.312 9.305 1.312 7.985 1.312 6.625 C-0.007 6.295 -1.327 5.965 -2.688 5.625 C-1.697 4.635 -0.707 3.645 0.312 2.625 C-1.007 2.625 -2.327 2.625 -3.688 2.625 C-3.688 3.285 -3.688 3.945 -3.688 4.625 C-4.348 4.625 -5.007 4.625 -5.688 4.625 C-5.688 3.635 -5.688 2.645 -5.688 1.625 C-2.688 -0.375 -2.688 -0.375 0 0 Z " fill="#000000" transform="translate(296.6875,292.375)"/>
<path d="M0 0 C0.33 1.32 0.66 2.64 1 4 C1.99 4 2.98 4 4 4 C4 3.34 4 2.68 4 2 C4.99 1.67 5.98 1.34 7 1 C7 1.66 7 2.32 7 3 C6.34 3 5.68 3 5 3 C2.473 7.737 2.42 12.758 3 18 C3.936 20.244 3.936 20.244 5 22 C3.02 20.68 1.04 19.36 -1 18 C-0.814 17.216 -0.629 16.433 -0.438 15.625 C0.046 11.62 -0.313 8.151 -0.844 4.172 C-1 2 -1 2 0 0 Z " fill="#040404" transform="translate(253,215)"/>
<path d="M0 0 C2.31 0.66 4.62 1.32 7 2 C6.67 2.99 6.34 3.98 6 5 C5.655 8.227 5.655 8.227 8.438 10.562 C9.706 11.769 9.706 11.769 11 13 C11.33 13.66 11.66 14.32 12 15 C11.01 15 10.02 15 9 15 C9 14.34 9 13.68 9 13 C8.34 13 7.68 13 7 13 C7 12.34 7 11.68 7 11 C6.34 11 5.68 11 5 11 C0.341 6.682 0.341 6.682 -1 4 C-0.34 4 0.32 4 1 4 C0.67 2.68 0.34 1.36 0 0 Z " fill="#FFFFFF" transform="translate(190,67)"/>
<path d="M0 0 C1.274 2.547 0.802 3.428 0.062 6.125 C-0.132 6.849 -0.327 7.574 -0.527 8.32 C-0.683 8.875 -0.839 9.429 -1 10 C-0.34 10 0.32 10 1 10 C1 10.66 1 11.32 1 12 C1.66 12 2.32 12 3 12 C2.34 11.01 1.68 10.02 1 9 C1.375 6.812 1.375 6.812 2 5 C5 6 5 6 6.188 8.062 C6.456 8.702 6.724 9.341 7 10 C5.35 11.32 3.7 12.64 2 14 C-0.475 13.01 -0.475 13.01 -3 12 C-3 8.985 -2.48 7.131 -1.5 4.312 C-1.222 3.504 -0.943 2.696 -0.656 1.863 C-0.44 1.248 -0.223 0.634 0 0 Z " fill="#000000" transform="translate(203,68)"/>
<path d="M0 0 C1.158 3.473 1.069 6.361 1 10 C-0.98 9.34 -2.96 8.68 -5 8 C-5.33 6.02 -5.66 4.04 -6 2 C-2.25 0 -2.25 0 0 0 Z " fill="#FFFFFF" transform="translate(190,223)"/>
<path d="M0 0 C1.316 0.618 2.628 1.244 3.938 1.875 C4.668 2.223 5.399 2.571 6.152 2.93 C8 4 8 4 9 6 C8.34 6 7.68 6 7 6 C7 6.66 7 7.32 7 8 C4.36 8 1.72 8 -1 8 C-0.67 5.36 -0.34 2.72 0 0 Z " fill="#FFFFFF" transform="translate(211,79)"/>
<path d="M0 0 C0.66 0.33 1.32 0.66 2 1 C2.054 3.438 2.094 5.874 2.125 8.312 C2.15 9.348 2.15 9.348 2.176 10.404 C2.212 14.171 2.144 15.784 0 19 C-0.66 19.33 -1.32 19.66 -2 20 C-1.517 13.795 -0.667 8.001 1 2 C0.34 2 -0.32 2 -1 2 C-1.33 2.66 -1.66 3.32 -2 4 C-2 3.01 -2 2.02 -2 1 C-1.34 0.67 -0.68 0.34 0 0 Z " fill="#161616" transform="translate(214,123)"/>
<path d="M0 0 C0.766 0.364 0.766 0.364 1.547 0.734 C7.882 3.655 14.357 5.887 21 8 C21 8.33 21 8.66 21 9 C15.78 9.18 11.927 8.971 7 7 C7 6.34 7 5.68 7 5 C4.69 4.34 2.38 3.68 0 3 C0 2.01 0 1.02 0 0 Z " fill="#D1D1D1" transform="translate(106,99)"/>
<path d="M0 0 C1.769 0.014 1.769 0.014 3.574 0.027 C4.478 0.039 5.381 0.051 6.312 0.062 C6.642 0.723 6.973 1.383 7.312 2.062 C6.467 2.004 5.621 1.946 4.75 1.887 C-3.001 1.578 -7.646 2.152 -13.688 7.062 C-14.678 7.723 -15.667 8.383 -16.688 9.062 C-17.018 7.742 -17.347 6.422 -17.688 5.062 C-16.418 4.414 -15.147 3.769 -13.875 3.125 C-13.167 2.765 -12.46 2.406 -11.73 2.035 C-7.658 0.096 -4.468 -0.044 0 0 Z " fill="#000000" transform="translate(268.6875,9.9375)"/>
<path d="M0 0 C1.32 0.33 2.64 0.66 4 1 C4 2.98 4 4.96 4 7 C3.01 7 2.02 7 1 7 C1.33 8.98 1.66 10.96 2 13 C1.34 13 0.68 13 0 13 C0 12.34 0 11.68 0 11 C-0.66 11 -1.32 11 -2 11 C-1.125 3.375 -1.125 3.375 0 0 Z " fill="#FFFFFF" transform="translate(204,67)"/>
<path d="M0 0 C0 5.61 0 11.22 0 17 C-0.66 17 -1.32 17 -2 17 C-2 13.04 -2 9.08 -2 5 C-3.65 5 -5.3 5 -7 5 C-2.25 0 -2.25 0 0 0 Z " fill="#000000" transform="translate(291,62)"/>
<path d="M0 0 C0.99 0 1.98 0 3 0 C4.125 6.75 4.125 6.75 3 9 C1.68 9 0.36 9 -1 9 C-1.098 2.848 -1.098 2.848 -1 1 C-0.67 0.67 -0.34 0.34 0 0 Z " fill="#FFFFFF" transform="translate(265,294)"/>
<path d="M0 0 C1.98 0.495 1.98 0.495 4 1 C4 3.64 4 6.28 4 9 C2.68 9 1.36 9 0 9 C-1.125 3.375 -1.125 3.375 0 0 Z " fill="#FFFFFF" transform="translate(255,294)"/>
<path d="M0 0 C-0.33 2.64 -0.66 5.28 -1 8 C-1.66 8 -2.32 8 -3 8 C-3.33 7.01 -3.66 6.02 -4 5 C-6.504 3.781 -6.504 3.781 -9 3 C-9 2.34 -9 1.68 -9 1 C-6.043 -0.478 -3.258 -0.06 0 0 Z " fill="#FFFFFF" transform="translate(216,60)"/>
<path d="M0 0 C0.66 0 1.32 0 2 0 C2 4.62 2 9.24 2 14 C3.65 13.34 5.3 12.68 7 12 C7 12.66 7 13.32 7 14 C5.02 14.66 3.04 15.32 1 16 C0 15 0 15 -0.098 11.621 C-0.091 10.227 -0.079 8.832 -0.062 7.438 C-0.058 6.727 -0.053 6.016 -0.049 5.283 C-0.037 3.522 -0.019 1.761 0 0 Z " fill="#060606" transform="translate(225,187)"/>
<path d="M0 0 C2 2 2 2 2 6 C-2.948 8.804 -7.617 7.774 -13 7 C-13 6.34 -13 5.68 -13 5 C-8.71 5 -4.42 5 0 5 C0 3.35 0 1.7 0 0 Z " fill="#FFFFFF" transform="translate(155,44)"/>
<path d="M0 0 C4.706 0.706 4.706 0.706 6 2 C6.041 4.333 6.042 6.667 6 9 C3.525 8.01 3.525 8.01 1 7 C1 6.34 1 5.68 1 5 C1.99 5 2.98 5 4 5 C3.67 4.34 3.34 3.68 3 3 C2.34 3 1.68 3 1 3 C0.67 3.66 0.34 4.32 0 5 C-0.66 5 -1.32 5 -2 5 C-1.125 1.125 -1.125 1.125 0 0 Z " fill="#000000" transform="translate(303,292)"/>
<path d="M0 0 C2.275 3.539 1.991 5.709 1.125 9.75 C0.921 10.735 0.718 11.72 0.508 12.734 C0.34 13.482 0.173 14.23 0 15 C-0.99 15.33 -1.98 15.66 -3 16 C-2.52 10.431 -1.701 5.329 0 0 Z " fill="#414141" transform="translate(213,138)"/>
<path d="M0 0 C0.33 0.66 0.66 1.32 1 2 C1.99 1.67 2.98 1.34 4 1 C6.333 0.958 8.667 0.959 11 1 C14.776 1.298 14.776 1.298 17 0 C16.67 1.98 16.34 3.96 16 6 C15.67 5.34 15.34 4.68 15 4 C10.187 2.975 4.704 2.331 0 4 C-0.33 4.66 -0.66 5.32 -1 6 C-1.043 4.334 -1.041 2.666 -1 1 C-0.67 0.67 -0.34 0.34 0 0 Z " fill="#000000" transform="translate(218,14)"/>
<path d="M0 0 C0.99 0.33 1.98 0.66 3 1 C3 3.31 3 5.62 3 8 C1.68 8.33 0.36 8.66 -1 9 C-1.098 2.848 -1.098 2.848 -1 1 C-0.67 0.67 -0.34 0.34 0 0 Z " fill="#FFFFFF" transform="translate(275,294)"/>
<path d="M0 0 C0.33 0 0.66 0 1 0 C1.125 6.625 1.125 6.625 0 10 C0.276 12.009 0.602 14.012 1 16 C-0.98 13.03 -2.65 10.307 -4 7 C-3.312 4.812 -3.312 4.812 -2 3 C-1.34 2.01 -0.68 1.02 0 0 Z " fill="#000000" transform="translate(154,256)"/>
<path d="M0 0 C1 3 1 3 -0.215 5.699 C-0.783 6.685 -1.352 7.671 -1.938 8.688 C-2.503 9.681 -3.069 10.675 -3.652 11.699 C-4.319 12.838 -4.319 12.838 -5 14 C-6.269 10.467 -5.758 8.669 -4.188 5.312 C-3.83 4.525 -3.473 3.737 -3.105 2.926 C-2 1 -2 1 0 0 Z " fill="#FFFFFF" transform="translate(174,217)"/>
<path d="M0 0 C1.65 0 3.3 0 5 0 C4.125 4.875 4.125 4.875 3 6 C1.334 6.041 -0.334 6.043 -2 6 C-1.34 4.02 -0.68 2.04 0 0 Z " fill="#FFFFFF" transform="translate(201,90)"/>
<path d="M0 0 C4.29 0.33 8.58 0.66 13 1 C13 1.99 13 2.98 13 4 C11.397 4.108 9.793 4.186 8.188 4.25 C7.294 4.296 6.401 4.343 5.48 4.391 C3 4 3 4 0 0 Z " fill="#FFFFFF" transform="translate(116,90)"/>
<path d="M0 0 C0.99 0 1.98 0 3 0 C3.33 1.98 3.66 3.96 4 6 C3.01 6.33 2.02 6.66 1 7 C0.01 6.01 -0.98 5.02 -2 4 C-1.34 2.68 -0.68 1.36 0 0 Z " fill="#FFFFFF" transform="translate(195,88)"/>
<path d="M0 0 C0.33 1.98 0.66 3.96 1 6 C0.34 4.68 -0.32 3.36 -1 2 C-1.577 2.681 -2.155 3.361 -2.75 4.062 C-3.493 4.702 -4.235 5.341 -5 6 C-7.25 5.75 -7.25 5.75 -9 5 C-8.312 3.062 -8.312 3.062 -7 1 C-4.57 0.271 -2.528 0 0 0 Z " fill="#000000" transform="translate(184,225)"/>
<path d="M0 0 C2.569 2.569 2.642 4.321 3.25 7.875 C3.536 9.449 3.536 9.449 3.828 11.055 C4.008 14.137 3.652 15.448 2 18 C1.879 17.108 1.758 16.216 1.633 15.297 C1.465 14.126 1.298 12.956 1.125 11.75 C0.963 10.59 0.8 9.43 0.633 8.234 C0.082 5.418 -0.558 3.448 -2 1 C-1.34 0.67 -0.68 0.34 0 0 Z " fill="#000000" transform="translate(286,206)"/>
<path d="M0 0 C1.89 2.729 2.038 3.788 1.438 7.125 C0 10 0 10 -2.438 11.5 C-5 12 -5 12 -8 10 C-5.69 9.34 -3.38 8.68 -1 8 C-0.67 5.36 -0.34 2.72 0 0 Z " fill="#121212" transform="translate(165,79)"/>
<path d="M0 0 C5.538 -0.369 5.538 -0.369 7.875 1.5 C8.246 1.995 8.618 2.49 9 3 C8.67 3.33 8.34 3.66 8 4 C5.309 3.824 2.671 3.382 0 3 C0 2.01 0 1.02 0 0 Z " fill="#FFFFFF" transform="translate(197,84)"/>
<path d="M0 0 C1.32 0.66 2.64 1.32 4 2 C3.01 2 2.02 2 1 2 C0.951 2.736 0.902 3.472 0.852 4.23 C0.777 5.206 0.702 6.182 0.625 7.188 C0.521 8.632 0.521 8.632 0.414 10.105 C-0.002 13.015 -0.799 15.329 -2 18 C-3 15 -3 15 -2 12 C-1.698 9.136 -1.492 6.271 -1.281 3.398 C-1 1 -1 1 0 0 Z " fill="#090909" transform="translate(258,105)"/>
<path d="M0 0 C0.33 0.66 0.66 1.32 1 2 C0.67 2.66 0.34 3.32 0 4 C0.66 4 1.32 4 2 4 C2.33 3.01 2.66 2.02 3 1 C3 2.32 3 3.64 3 5 C-0.465 6.485 -0.465 6.485 -4 8 C-4.66 6.68 -5.32 5.36 -6 4 C-5.381 3.897 -4.762 3.794 -4.125 3.688 C-1.635 3.125 -1.635 3.125 0 0 Z " fill="#000000" transform="translate(206,92)"/>
<path d="M0 0 C3.63 0.33 7.26 0.66 11 1 C10.67 1.99 10.34 2.98 10 4 C8.542 4.054 7.084 4.093 5.625 4.125 C4.813 4.148 4.001 4.171 3.164 4.195 C1 4 1 4 -1 2 C-0.67 1.34 -0.34 0.68 0 0 Z " fill="#000000" transform="translate(182,35)"/>
<path d="M0 0 C2.31 0.66 4.62 1.32 7 2 C6.67 2.99 6.34 3.98 6 5 C5.01 5.33 4.02 5.66 3 6 C2.34 5.67 1.68 5.34 1 5 C0.375 2.438 0.375 2.438 0 0 Z " fill="#949494" transform="translate(190,67)"/>
<path d="M0 0 C1.98 0.99 1.98 0.99 4 2 C3.25 8.75 3.25 8.75 1 11 C0 8 0 8 0.5 6.062 C1.077 3.682 0.74 2.303 0 0 Z " fill="#FFFFFF" transform="translate(208,66)"/>
<path d="M0 0 C2.938 0.812 2.938 0.812 6 2 C6.33 2.99 6.66 3.98 7 5 C4.69 4.67 2.38 4.34 0 4 C0 2.68 0 1.36 0 0 Z " fill="#FFFFFF" transform="translate(199,57)"/>
<path d="M0 0 C2.438 0.875 2.438 0.875 3.75 2.938 C4.09 3.897 4.09 3.897 4.438 4.875 C0.88 4.265 -2.245 3.297 -5.562 1.875 C-2.562 -0.125 -2.562 -0.125 0 0 Z " fill="#7F7F7F" transform="translate(167.5625,57.125)"/>
<path d="M0 0 C-0.33 0.99 -0.66 1.98 -1 3 C-6.94 2.01 -6.94 2.01 -13 1 C-13 0.67 -13 0.34 -13 0 C-4.571 -1.286 -4.571 -1.286 0 0 Z " fill="#747474" transform="translate(198,37)"/>
<path d="M0 0 C-0.33 0.99 -0.66 1.98 -1 3 C-6.94 2.01 -6.94 2.01 -13 1 C-13 0.67 -13 0.34 -13 0 C-4.571 -1.286 -4.571 -1.286 0 0 Z " fill="#747474" transform="translate(182,35)"/>
<path d="M0 0 C0.955 2.17 1.144 3.563 0.398 5.824 C-0.359 7.568 -1.176 9.286 -2 11 C-2.66 11 -3.32 11 -4 11 C-3.217 7.084 -1.608 3.636 0 0 Z " fill="#FFFFFF" transform="translate(181,280)"/>
<path d="M0 0 C0.33 0 0.66 0 1 0 C1.125 6.625 1.125 6.625 0 10 C-0.66 10 -1.32 10 -2 10 C-1.86 8.52 -1.712 7.041 -1.562 5.562 C-1.481 4.739 -1.4 3.915 -1.316 3.066 C-1 1 -1 1 0 0 Z " fill="#000000" transform="translate(187,273)"/>
<path d="M0 0 C2.667 1.333 5.333 2.667 8 4 C8 4.66 8 5.32 8 6 C4.625 5.453 2.918 4.945 0 3 C0 2.01 0 1.02 0 0 Z " fill="#2C2C2C" transform="translate(110,91)"/>
<path d="M0 0 C0.33 0 0.66 0 1 0 C1.125 7.75 1.125 7.75 0 10 C-0.66 10 -1.32 10 -2 10 C-1.86 8.52 -1.712 7.041 -1.562 5.562 C-1.481 4.739 -1.4 3.915 -1.316 3.066 C-1 1 -1 1 0 0 Z " fill="#FFFFFF" transform="translate(153,123)"/>
<path d="M0 0 C3 1 3 1 4.188 3.062 C4.456 3.702 4.724 4.341 5 5 C3.35 5 1.7 5 0 5 C-0.562 3.062 -0.562 3.062 -1 1 C-0.67 0.67 -0.34 0.34 0 0 Z " fill="#1A1A1A" transform="translate(205,73)"/>
<path d="M0 0 C-1.37 3.161 -1.989 3.993 -5 6 C-5.33 4.68 -5.66 3.36 -6 2 C-3 0 -3 0 0 0 Z " fill="#1A1A1A" transform="translate(257,13)"/>
<path d="M0 0 C1.32 0.66 2.64 1.32 4 2 C0.535 3.485 0.535 3.485 -3 5 C-3 4.01 -3 3.02 -3 2 C-2.01 1.34 -1.02 0.68 0 0 Z " fill="#464646" transform="translate(196,101)"/>
<path d="M0 0 C0.66 0 1.32 0 2 0 C1.67 1.98 1.34 3.96 1 6 C0.01 6 -0.98 6 -2 6 C-1.125 1.125 -1.125 1.125 0 0 Z " fill="#FFFFFF" transform="translate(208,78)"/>
</svg>
