<?xml version="1.0" encoding="UTF-8"?>
<!-- Generator: visioncortex VTracer 0.6.4 -->
<svg version="1.1" xmlns="http://www.w3.org/2000/svg" width="351" height="623">
<path d="M0 0 C115.83 0 231.66 0 351 0 C351 205.59 351 411.18 351 623 C235.17 623 119.34 623 0 623 C0 417.41 0 211.82 0 0 Z " fill="#FEFEFE" transform="translate(0,0)"/>
<path d="M0 0 C3 1 3 1 4.25 2.875 C6.741 5.9 9.355 6.625 13 8 C13.33 7.67 13.66 7.34 14 7 C16.333 6.959 18.667 6.958 21 7 C21.289 8.176 21.578 9.351 21.875 10.562 C24.18 16.88 30.213 20.107 36 23 C36 23.66 36 24.32 36 25 C37.083 25.431 37.083 25.431 38.188 25.871 C39.962 26.583 41.733 27.304 43.5 28.035 C44.325 28.374 45.15 28.713 46 29.062 C46.825 29.404 47.65 29.746 48.5 30.098 C54.115 32.124 59.587 32.278 65.5 32.375 C66.303 32.412 67.106 32.45 67.934 32.488 C78.235 32.628 88.109 29.565 98 27 C98.97 26.751 99.939 26.501 100.938 26.244 C108.983 24.171 117.016 22.051 125.048 19.928 C128.061 19.132 131.075 18.339 134.09 17.547 C134.999 17.305 135.909 17.064 136.845 16.815 C141.214 15.667 145.521 14.641 150 14 C150 14.66 150 15.32 150 16 C140.063 19.184 130.048 21.873 119.938 24.438 C118.383 24.834 116.829 25.23 115.274 25.627 C112.231 26.403 109.187 27.177 106.142 27.949 C102.6 28.847 99.059 29.753 95.52 30.66 C93.763 31.107 92.007 31.554 90.25 32 C89.111 32.293 89.111 32.293 87.949 32.592 C71.699 36.679 53.551 37.153 38.688 28.625 C36.781 27.433 34.885 26.225 33 25 C31.418 24.019 29.834 23.04 28.25 22.062 C27.177 21.382 26.105 20.701 25 20 C24.01 20.66 23.02 21.32 22 22 C19.957 22.414 19.957 22.414 17.812 22.625 C16.554 22.749 15.296 22.873 14 23 C14.699 24.097 15.397 25.194 16.117 26.324 C17.037 27.779 17.956 29.233 18.875 30.688 C19.335 31.409 19.795 32.13 20.27 32.873 C22.55 36.492 24.603 39.928 26 44 C29.167 44.2 29.167 44.2 32.438 42.5 C36 41 36 41 40 41 C40 41.66 40 42.32 40 43 C39.241 43.242 38.481 43.485 37.699 43.734 C36.705 44.07 35.711 44.405 34.688 44.75 C33.208 45.237 33.208 45.237 31.699 45.734 C28.73 47.127 27.543 48.128 26 51 C26.229 54.688 26.229 54.688 27 58 C29.31 58.66 31.62 59.32 34 60 C33.196 59.423 32.391 58.845 31.562 58.25 C29.021 56.019 28.349 55.255 28 52 C28.99 52 29.98 52 31 52 C31.557 52.763 32.114 53.526 32.688 54.312 C36.658 58.927 40.726 59.819 46.574 60.285 C53.722 60.449 59.586 60.27 66 57 C66.99 56.01 66.99 56.01 68 55 C68.073 52.445 68.073 52.445 67 50 C64.524 48.625 64.524 48.625 62 48 C61.907 48.623 61.814 49.245 61.719 49.887 C61 52 61 52 57.5 53.812 C52.16 55.58 46.848 55.321 41.734 52.949 C41.162 52.636 40.59 52.323 40 52 C40.33 50.68 40.66 49.36 41 48 C41.66 48.99 42.32 49.98 43 51 C45.927 51.976 47.947 52.165 51 52.188 C51.866 52.202 52.733 52.216 53.625 52.23 C56.267 52.163 56.267 52.163 59 50 C59 49.34 59 48.68 59 48 C55.535 46.515 55.535 46.515 52 45 C52.33 44.01 52.66 43.02 53 42 C53.99 42 54.98 42 56 42 C56 41.34 56 40.68 56 40 C61.041 40.417 65.33 40.965 70 43 C71.33 43.328 72.663 43.639 74 43.938 C76.689 44.567 78.223 45.138 80.625 46.625 C83.803 48.465 85.316 48.364 89 48 C92.432 46.842 95.702 45.367 99 43.875 C99.925 43.468 100.849 43.06 101.802 42.641 C103.664 41.821 105.523 40.996 107.381 40.167 C110.973 38.566 114.578 36.997 118.188 35.438 C119.274 34.962 120.361 34.486 121.48 33.996 C124 33 124 33 126 33 C126.33 33.66 126.66 34.32 127 35 C129.97 33.68 132.94 32.36 136 31 C134.35 31.33 132.7 31.66 131 32 C134.378 28.274 138.467 26.746 143 24.75 C143.82 24.374 144.64 23.997 145.484 23.609 C146.273 23.259 147.062 22.908 147.875 22.547 C148.594 22.226 149.314 21.904 150.055 21.573 C152 21 152 21 155 22 C151.7 23.65 148.4 25.3 145 27 C145.99 27.99 145.99 27.99 147 29 C145.188 29.625 145.188 29.625 143 30 C142.01 29.34 141.02 28.68 140 28 C139.894 29.164 139.894 29.164 139.785 30.352 C139 33 139 33 136.996 34.398 C131.099 36.649 127.191 37.376 121 36 C120.974 36.758 120.948 37.516 120.922 38.297 C120 41 120 41 117.016 42.766 C115.768 43.28 114.513 43.775 113.25 44.25 C112.629 44.505 112.007 44.76 111.367 45.023 C107.935 46.399 104.615 47.293 101 48 C98.933 48.872 98.933 48.872 97 49.938 C90.883 53.094 90.883 53.094 88 54 C87.01 53.67 86.02 53.34 85 53 C85.99 52.34 86.98 51.68 88 51 C85.03 51.66 82.06 52.32 79 53 C78.01 57.29 77.02 61.58 76 66 C75.34 66 74.68 66 74 66 C74 65.34 74 64.68 74 64 C73.336 64.277 72.672 64.554 71.988 64.84 C71.105 65.202 70.222 65.564 69.312 65.938 C68.007 66.477 68.007 66.477 66.676 67.027 C62.32 68.611 58.322 69.125 53.699 69.098 C52.723 69.094 51.746 69.091 50.74 69.088 C49.733 69.08 48.725 69.071 47.688 69.062 C46.661 69.058 45.634 69.053 44.576 69.049 C42.051 69.037 39.525 69.021 37 69 C37.33 69.33 37.66 69.66 38 70 C38.125 72.5 38.125 72.5 38 75 C37 76 37 76 34.5 76.125 C32 76 32 76 31 75 C30.812 72.063 30.812 72.063 31 69 C31.66 68.34 32.32 67.68 33 67 C30.69 65.68 28.38 64.36 26 63 C25.892 65.918 25.813 68.831 25.75 71.75 C25.716 72.575 25.683 73.4 25.648 74.25 C25.527 79.199 25.527 79.199 27.801 83.473 C37.433 90.162 50.047 90.288 61.281 88.469 C66.508 87.148 70.907 85.555 75 82 C76.158 80.12 76.158 80.12 76 78 C75.356 76.325 74.688 74.658 74 73 C73.875 70.187 73.875 70.187 74 68 C74.66 68 75.32 68 76 68 C76 69.65 76 71.3 76 73 C79.231 71.628 82.459 70.252 85.688 68.875 C87.027 68.307 87.027 68.307 88.393 67.727 C93.414 65.582 98.393 63.37 103.344 61.066 C110.109 57.925 116.948 54.979 123.812 52.062 C133.49 47.949 133.49 47.949 143.125 43.738 C143.85 43.417 144.574 43.095 145.321 42.763 C147.149 41.948 148.975 41.127 150.801 40.305 C154.177 38.928 157.48 37.937 161 37 C161 37.66 161 38.32 161 39 C154.751 41.752 148.501 44.502 142.25 47.25 C141.32 47.659 140.39 48.068 139.432 48.489 C126.658 54.103 113.868 59.675 101.021 65.118 C99.02 65.968 97.023 66.826 95.03 67.693 C92.837 68.639 90.632 69.555 88.419 70.454 C86.653 71.202 86.653 71.202 84.852 71.965 C83.777 72.407 82.703 72.849 81.596 73.304 C78.764 74.818 78.764 74.818 77.712 77.915 C77.148 80.697 76.855 83.166 77 86 C77.33 86.33 77.66 86.66 78 87 C78.5 89.562 78.5 89.562 78 93 C76.306 95.13 74.501 96.999 72.531 98.875 C70.51 101.68 70.731 103.623 71 107 C77.403 107.327 83.807 107.623 90.213 107.884 C91.905 107.955 93.596 108.029 95.287 108.112 C102.178 108.438 107.213 108.487 113.199 104.91 C116.646 103.168 119.198 103.439 123 104 C125.875 106.375 125.875 106.375 128 109 C130.899 111.899 133.04 111.259 137.09 111.266 C137.79 111.268 138.491 111.269 139.212 111.271 C140.694 111.273 142.176 111.269 143.658 111.261 C145.925 111.25 148.192 111.261 150.459 111.273 C151.898 111.272 153.338 111.27 154.777 111.266 C156.09 111.263 157.402 111.261 158.754 111.259 C162.147 111.253 162.147 111.253 165 109 C165.321 105.78 165.321 105.78 165.25 102.125 C165.624 95.36 165.624 95.36 168.875 92.25 C170.801 91.527 170.801 91.527 173 91 C173.798 90.795 174.596 90.59 175.418 90.379 C181.688 89.036 187.949 88.706 194.348 88.539 C203.35 87.21 211.494 82.361 219.5 78.25 C221.446 77.252 223.394 76.257 225.344 75.266 C226.191 74.83 227.039 74.395 227.912 73.946 C230 73 230 73 232 73 C231 76 231 76 227.5 77.867 C226.004 78.546 224.504 79.215 223 79.875 C221.443 80.58 219.887 81.287 218.332 81.996 C217.583 82.338 216.833 82.679 216.061 83.031 C212.855 84.539 209.8 86.272 206.762 88.09 C204.865 89.07 203.084 89.563 201 90 C201.554 90.268 202.109 90.536 202.68 90.812 C208.526 93.975 208.526 93.975 209.977 97.113 C210.5 99.313 210.5 99.313 211 103 C211.588 102.635 212.177 102.27 212.783 101.894 C219.204 97.97 225.761 94.467 232.5 91.125 C233.487 90.627 234.475 90.13 235.492 89.617 C236.433 89.148 237.374 88.679 238.344 88.195 C239.191 87.773 240.039 87.35 240.912 86.915 C243 86 243 86 245 86 C245 87.32 245 88.64 245 90 C244.007 90.485 243.015 90.969 241.992 91.469 C232.795 95.995 223.838 100.808 215 106 C219.806 105.351 223.748 103.402 228.062 101.312 C228.809 100.957 229.555 100.601 230.324 100.234 C235.854 97.588 241.332 94.847 246.777 92.031 C249 91 249 91 251 91 C251 91.66 251 92.32 251 93 C246.86 95.107 242.715 97.207 238.567 99.299 C237.159 100.011 235.752 100.724 234.345 101.44 C232.315 102.474 230.281 103.499 228.246 104.523 C227.626 104.841 227.006 105.159 226.367 105.486 C222.295 107.523 218.386 108.873 214 110 C214.248 110.907 214.495 111.815 214.75 112.75 C214.832 113.822 214.915 114.895 215 116 C214.35 116.593 213.701 117.186 213.031 117.797 C210.296 120.764 210.659 122.535 210.75 126.5 C210.605 130.004 210.605 130.004 210 133 C208.023 134.714 206.331 135.347 203.867 136.18 C201.625 136.911 201.625 136.911 200.688 140.062 C200.347 141.517 200.347 141.517 200 143 C198.5 144.875 198.5 144.875 197 146 C196.34 146 195.68 146 195 146 C195.082 147.258 195.165 148.516 195.25 149.812 C195.222 153.694 195.222 153.694 193.5 156.062 C189.703 157.486 186.964 156.78 183 156 C182 155 182 155 181.75 151.188 C181.379 147.764 181.296 147.258 178.562 144.875 C177.717 144.256 176.871 143.637 176 143 C174.688 139.75 174.688 139.75 174 137 C166.227 135.514 158.799 136.503 150.992 137.363 C149.538 137.517 148.084 137.671 146.63 137.824 C143.596 138.145 140.561 138.473 137.528 138.805 C133.651 139.23 129.773 139.64 125.894 140.046 C122.896 140.361 119.899 140.682 116.902 141.006 C115.472 141.16 114.043 141.312 112.613 141.462 C110.612 141.673 108.612 141.893 106.613 142.115 C105.478 142.237 104.343 142.36 103.173 142.487 C99.941 143.01 97.074 143.888 94 145 C92.608 145.433 92.608 145.433 91.188 145.875 C88.809 146.79 88.809 146.79 88.188 149.125 C88.126 149.744 88.064 150.363 88 151 C87.01 151 86.02 151 85 151 C84.67 151.99 84.34 152.98 84 154 C81.918 155.515 81.918 155.515 79.188 157.109 C77.697 157.995 77.697 157.995 76.176 158.898 C74.604 159.815 74.604 159.815 73 160.75 C65.601 165.083 58.622 169.536 52 175 C52.44 175.476 52.881 175.951 53.334 176.441 C57.736 181.252 60.108 184.88 59.875 191.625 C58.903 195.372 58.028 196.664 55 199 C53.917 199.433 53.917 199.433 52.812 199.875 C50.716 200.893 50.716 200.893 50.286 203.582 C49.951 207.59 50.64 210.971 51.617 214.82 C51.794 215.56 51.97 216.3 52.152 217.062 C52.716 219.419 53.294 221.772 53.875 224.125 C56.323 234.083 58.62 243.697 59 254 C59.64 253.892 60.279 253.784 60.938 253.673 C64.64 253.08 67.291 252.754 70.875 254 C74.346 257.267 75.893 260.549 76.098 265.246 C75.731 270.543 74.406 273.79 71 278 C68.175 278.783 68.175 278.783 64.645 278.836 C63.968 278.854 63.291 278.873 62.593 278.892 C61 278.931 59.405 278.956 57.811 278.971 C54.622 279.004 51.436 279.085 48.248 279.169 C41.753 279.332 35.258 279.453 28.762 279.558 C25.356 279.613 21.95 279.677 18.544 279.743 C15.241 279.805 11.939 279.859 8.637 279.914 C6.829 279.95 6.829 279.95 4.984 279.986 C-14.405 280.271 -24.187 275.569 -39.582 264.223 C-43.178 261.578 -46.827 259.069 -50.562 256.625 C-63.662 248.008 -63.662 248.008 -67 243 C-68.106 237.006 -67.953 231.499 -67.398 225.453 C-67.32 224.561 -67.242 223.668 -67.161 222.749 C-66.992 220.869 -66.819 218.99 -66.641 217.111 C-66.377 214.274 -66.143 211.434 -65.91 208.594 C-64.815 196.245 -63.382 184.028 -54 175 C-50.941 172.945 -50.941 172.945 -47.562 171.125 C-46.324 170.447 -45.086 169.769 -43.848 169.09 C-43.215 168.748 -42.582 168.406 -41.93 168.054 C-38.755 166.32 -35.631 164.499 -32.5 162.688 C-29.25 160.816 -26.159 159.065 -22.688 157.641 C-19.773 156.238 -19.773 156.238 -18.969 153.285 C-18.737 151.69 -18.737 151.69 -18.5 150.062 C-16.669 140.456 -12.602 130.535 -5 124 C-3.743 123.367 -2.472 122.762 -1.188 122.188 C2.183 120.381 2.183 120.381 2.664 117.535 C2.912 115.005 3.034 112.541 3 110 C5.392 108.989 7.788 107.991 10.188 107 C10.861 106.714 11.535 106.428 12.229 106.133 C15.95 104.608 18.965 103.624 23 104 C23.33 104.99 23.66 105.98 24 107 C27.465 106.505 27.465 106.505 31 106 C31.508 103.798 31.508 103.798 31 101 C29.659 99.264 29.659 99.264 28 97.562 C25.65 95.018 25.046 94.301 24.5 90.75 C25 88 25 88 27 85 C26.34 85 25.68 85 25 85 C22.674 81.348 22.928 78.376 23 74.125 C22.76 65.338 18.694 60.24 13.3 53.639 C11.366 51.2 9.691 48.611 8 46 C4.262 40.337 0.34 34.824 -3.621 29.316 C-6.206 25.722 -8.738 22.091 -11.262 18.453 C-13.927 14.692 -16.711 11.02 -19.496 7.348 C-21 5 -21 5 -21 2 C-20.34 2 -19.68 2 -19 2 C-16 6.385 -16 6.385 -16 9 C-15.34 9 -14.68 9 -14 9 C-12.879 10.406 -12.879 10.406 -11.562 12.5 C-9.507 15.703 -7.412 18.866 -5.23 21.984 C-4.741 22.686 -4.251 23.388 -3.746 24.111 C-2.762 25.519 -1.774 26.924 -0.783 28.326 C1.621 31.782 3.656 34.967 5 39 C5.66 39 6.32 39 7 39 C8.445 41.02 8.445 41.02 10.125 43.812 C13.798 49.766 17.824 55.392 22 61 C22.222 59.064 22.427 57.126 22.625 55.188 C22.799 53.569 22.799 53.569 22.977 51.918 C23.275 48.804 23.275 48.804 21 46 C21 45.01 21 44.02 21 43 C20.402 42.794 19.804 42.588 19.188 42.375 C16.127 40.451 15.325 38.312 14 35 C14 33.68 14 32.36 14 31 C13.01 31 12.02 31 11 31 C7 24.5 7 24.5 7 20 C6.402 19.814 5.804 19.629 5.188 19.438 C1.826 17.229 1.092 14.791 0 11 C1.312 8.062 1.312 8.062 3 6 C2.505 5.381 2.01 4.763 1.5 4.125 C0 2 0 2 0 0 Z " fill="#212121" transform="translate(89,90)"/>
<path d="M0 0 C5.483 3.332 7.567 8.32 10.312 13.875 C11.283 15.788 12.256 17.699 13.23 19.609 C13.703 20.538 14.175 21.467 14.662 22.424 C16.378 25.728 18.23 28.92 20.125 32.125 C28.152 46.149 34.096 60.543 39.312 75.812 C39.567 76.557 39.822 77.302 40.084 78.07 C41.772 83.031 43.404 88.009 45 93 C45.329 94.014 45.329 94.014 45.665 95.049 C46.285 96.974 46.881 98.907 47.477 100.84 C47.819 101.941 48.161 103.041 48.514 104.176 C49 107 49 107 48.318 109.119 C45.898 112.262 42.754 113.927 39 115 C38.795 113.711 38.59 112.422 38.379 111.094 C36.754 102.972 33.74 95.273 30.938 87.5 C30.376 85.925 29.816 84.349 29.256 82.773 C26.901 75.772 26.901 75.772 24 69 C25.51 73.554 27.021 78.107 28.535 82.66 C29.048 84.205 29.562 85.751 30.074 87.297 C30.815 89.532 31.558 91.766 32.301 94 C32.526 94.681 32.751 95.361 32.983 96.062 C34.132 99.509 35.345 102.908 36.665 106.293 C38.089 110.246 38.544 112.094 37 116 C32.084 119.149 27.421 119.702 21.75 120.188 C20.48 120.305 20.48 120.305 19.184 120.425 C4 121.763 -5.384 120.396 -17.781 111.113 C-22.989 107.222 -28.374 103.591 -33.75 99.938 C-34.727 99.27 -35.705 98.603 -36.712 97.915 C-41.229 94.746 -41.229 94.746 -46 92 C-46 91.34 -46 90.68 -46 90 C-46.598 89.773 -47.196 89.546 -47.812 89.312 C-50.758 87.545 -51.572 86.144 -53 83 C-53.277 79.995 -53.05 77.066 -52.812 74.062 C-52.754 73.193 -52.696 72.323 -52.636 71.427 C-52.507 69.573 -52.369 67.72 -52.224 65.867 C-52 62.996 -51.808 60.124 -51.617 57.25 C-49.711 30.782 -49.711 30.782 -42 22 C-36.401 17.303 -30.243 13.609 -23.875 10.062 C-23.007 9.557 -22.14 9.051 -21.246 8.529 C-17.542 6.463 -14.913 5.035 -10.633 4.871 C-3.95 7.737 -1.318 15.852 1.812 22 C2.875 24.068 3.939 26.136 5.004 28.203 C5.516 29.199 6.028 30.195 6.555 31.221 C8.912 35.754 11.389 40.217 13.891 44.672 C15 47 15 47 15 50 C15.66 50 16.32 50 17 50 C11.971 39.837 6.901 29.694 1.688 19.625 C1.292 18.848 0.896 18.071 0.489 17.27 C-2.499 11.546 -5.524 6.651 -11 3 C-4.256 -0.764 -4.256 -0.764 0 0 Z " fill="#FFFFFF" transform="translate(76,247)"/>
<path d="M0 0 C0.66 0 1.32 0 2 0 C-0.074 8.19 -2.722 16.071 -5.625 24 C-9.252 34.023 -12.759 44.073 -16.125 54.188 C-16.515 55.357 -16.905 56.527 -17.307 57.732 C-19.124 62.27 -19.124 62.27 -20 67 C-19.196 66.196 -18.391 65.391 -17.562 64.562 C-16.375 63.375 -15.188 62.188 -14 61 C-11.661 61.287 -9.326 61.619 -7 62 C-4.027 55.619 -1.57 49.164 0.688 42.5 C1.379 40.485 2.072 38.471 2.766 36.457 C3.126 35.411 3.486 34.365 3.857 33.288 C5.843 27.573 7.888 21.88 9.938 16.188 C10.327 15.102 10.717 14.017 11.118 12.898 C11.48 11.894 11.842 10.89 12.215 9.855 C12.536 8.965 12.857 8.074 13.187 7.157 C14 5 14 5 15 3 C15.66 3 16.32 3 17 3 C14.892 11.334 12.191 19.364 9.25 27.438 C8.36 29.906 7.471 32.375 6.582 34.844 C5.928 36.656 5.928 36.656 5.26 38.504 C3.468 43.476 1.695 48.454 -0.062 53.438 C-0.349 54.241 -0.635 55.044 -0.931 55.871 C-3.08 61.977 -4.359 66.508 -3 73 C-2.402 72.01 -1.804 71.02 -1.188 70 C0.683 67.731 1.551 67.065 4.5 66.637 C6.406 66.671 8.312 66.749 10.215 66.867 C12.772 66.989 14.873 66.778 17.375 66.312 C21 66 21 66 23.875 67.188 C26.028 69.024 27.005 70.376 28 73 C28.66 73 29.32 73 30 73 C31.517 74.699 32.965 76.461 34.375 78.25 C37.103 81.699 39.825 84.955 43 88 C50.708 85.802 58.22 83.177 65.75 80.438 C77.458 76.212 89.226 72.201 101.05 68.312 C108.434 65.882 108.434 65.882 115.734 63.215 C119 62 119 62 121 62 C120.67 62.99 120.34 63.98 120 65 C117.938 66.005 117.938 66.005 115.141 66.918 C114.065 67.278 112.99 67.638 111.882 68.008 C110.683 68.397 109.485 68.787 108.25 69.188 C105.633 70.061 103.017 70.937 100.402 71.816 C99.686 72.056 98.97 72.296 98.232 72.543 C91.838 74.693 85.481 76.944 79.129 79.215 C78.113 79.578 77.097 79.941 76.05 80.316 C71.943 81.785 67.837 83.257 63.732 84.732 C60.829 85.774 57.924 86.813 55.02 87.852 C54.137 88.17 53.255 88.488 52.347 88.816 C51.134 89.249 51.134 89.249 49.898 89.69 C49.19 89.944 48.483 90.198 47.754 90.46 C46 91 46 91 44 91 C44 91.99 44 92.98 44 94 C40.95 94.521 37.924 95.008 34.848 95.344 C30.331 96.114 26.292 97.494 22 99.062 C20.245 99.691 18.49 100.318 16.734 100.945 C15.812 101.277 14.89 101.609 13.939 101.95 C8.722 103.814 3.485 105.623 -1.75 107.438 C-3.724 108.124 -5.698 108.81 -7.672 109.496 C-9.115 109.997 -10.557 110.499 -12 111 C-12.091 111.94 -12.091 111.94 -12.184 112.898 C-12.267 113.716 -12.351 114.533 -12.438 115.375 C-12.519 116.187 -12.6 116.999 -12.684 117.836 C-13 120 -13 120 -14 122 C-14.99 121.67 -15.98 121.34 -17 121 C-18.805 121.55 -18.805 121.55 -20.75 122.438 C-27.307 124.83 -34.128 124.244 -41 124 C-41.33 125.65 -41.66 127.3 -42 129 C-43.32 129 -44.64 129 -46 129 C-47 124.25 -47 124.25 -47 122 C-47.66 121.67 -48.32 121.34 -49 121 C-49 124.96 -49 128.92 -49 133 C-48.34 133.33 -47.68 133.66 -47 134 C-46.505 132.02 -46.505 132.02 -46 130 C-44.35 130.33 -42.7 130.66 -41 131 C-41.278 132.207 -41.278 132.207 -41.562 133.438 C-41.707 134.283 -41.851 135.129 -42 136 C-39.706 138.294 -33.794 137.308 -30.592 137.323 C-24.751 137.237 -20.819 136.514 -16 133 C-14.769 129.306 -15.356 126.794 -16 123 C-15.34 123 -14.68 123 -14 123 C-13.01 124.485 -13.01 124.485 -12 126 C-4.504 123.385 2.99 120.768 10.485 118.149 C13.967 116.932 17.449 115.715 20.932 114.5 C34.259 109.851 47.582 105.201 60.81 100.274 C67.632 97.742 74.519 95.445 81.438 93.188 C96.049 88.372 110.536 83.244 125 78 C125.66 78.66 126.32 79.32 127 80 C116.54 84.613 105.806 88.298 95 92 C93.539 92.502 92.078 93.003 90.618 93.505 C85.642 95.214 80.665 96.92 75.688 98.625 C74.877 98.903 74.067 99.18 73.232 99.466 C70.846 100.283 68.46 101.099 66.074 101.914 C65.303 102.178 64.532 102.441 63.738 102.713 C59.457 104.173 55.168 105.607 50.871 107.019 C45.362 108.831 39.963 110.766 34.601 112.973 C28.997 115.186 23.266 117.06 17.562 119 C15.063 119.853 12.565 120.707 10.066 121.562 C8.873 121.97 7.679 122.377 6.45 122.797 C2.365 124.222 -1.68 125.74 -5.715 127.301 C-8 128 -8 128 -12 128 C-12.103 128.846 -12.206 129.691 -12.312 130.562 C-13.298 135.492 -14.704 140.977 -19 144 C-26.514 147.001 -36.582 147.755 -44.25 144.75 C-48.657 141.946 -50.409 138.901 -52 134 C-52.433 130.653 -52.599 127.308 -52.75 123.938 C-52.833 122.591 -52.833 122.591 -52.918 121.217 C-52.961 120.35 -53.003 119.483 -53.047 118.59 C-53.087 117.805 -53.126 117.02 -53.167 116.211 C-52.778 111.059 -49.546 108.46 -46 105 C-43.095 101.648 -41.648 98.08 -40 94 C-39.34 94 -38.68 94 -38 94 C-38.33 90.04 -38.66 86.08 -39 82 C-36.525 81.01 -36.525 81.01 -34 80 C-33.67 81.32 -33.34 82.64 -33 84 C-32.34 82.68 -31.68 81.36 -31 80 C-30.34 80.33 -29.68 80.66 -29 81 C-23.875 66.757 -18.798 52.501 -13.875 38.188 C-13.26 36.398 -13.26 36.398 -12.632 34.573 C-11.02 29.885 -9.411 25.197 -7.801 20.508 C-6.683 17.255 -5.561 14.002 -4.438 10.75 C-3.935 9.285 -3.935 9.285 -3.423 7.79 C-3.117 6.905 -2.811 6.021 -2.496 5.109 C-2.23 4.336 -1.964 3.562 -1.689 2.765 C-1 1 -1 1 0 0 Z " fill="#0E0E0E" transform="translate(116,388)"/>
<path d="M0 0 C3 1 3 1 4.25 2.875 C6.741 5.9 9.355 6.625 13 8 C13.33 7.67 13.66 7.34 14 7 C16.333 6.959 18.667 6.958 21 7 C21.289 8.176 21.578 9.351 21.875 10.562 C24.18 16.88 30.213 20.107 36 23 C36 23.66 36 24.32 36 25 C36.722 25.287 37.444 25.575 38.188 25.871 C39.962 26.583 41.733 27.304 43.5 28.035 C44.325 28.374 45.15 28.713 46 29.062 C46.825 29.404 47.65 29.746 48.5 30.098 C54.115 32.124 59.587 32.278 65.5 32.375 C66.705 32.431 66.705 32.431 67.934 32.488 C78.235 32.628 88.109 29.565 98 27 C99.454 26.626 99.454 26.626 100.938 26.244 C108.983 24.171 117.016 22.051 125.048 19.928 C128.061 19.132 131.075 18.339 134.09 17.547 C134.999 17.305 135.909 17.064 136.845 16.815 C141.214 15.667 145.521 14.641 150 14 C150 14.66 150 15.32 150 16 C140.063 19.184 130.048 21.873 119.938 24.438 C118.383 24.834 116.829 25.23 115.274 25.627 C112.231 26.403 109.187 27.177 106.142 27.949 C102.6 28.847 99.059 29.753 95.52 30.66 C93.763 31.107 92.007 31.554 90.25 32 C89.111 32.293 89.111 32.293 87.949 32.592 C71.699 36.679 53.551 37.153 38.688 28.625 C36.781 27.433 34.885 26.225 33 25 C31.418 24.019 29.834 23.04 28.25 22.062 C26.641 21.042 26.641 21.042 25 20 C24.01 20.66 23.02 21.32 22 22 C19.957 22.414 19.957 22.414 17.812 22.625 C16.554 22.749 15.296 22.873 14 23 C14.699 24.097 15.397 25.194 16.117 26.324 C17.037 27.779 17.956 29.233 18.875 30.688 C19.335 31.409 19.795 32.13 20.27 32.873 C22.55 36.492 24.603 39.928 26 44 C29.167 44.2 29.167 44.2 32.438 42.5 C36 41 36 41 40 41 C40 41.66 40 42.32 40 43 C39.241 43.242 38.481 43.485 37.699 43.734 C36.705 44.07 35.711 44.405 34.688 44.75 C33.701 45.075 32.715 45.4 31.699 45.734 C28.73 47.127 27.543 48.128 26 51 C26.229 54.688 26.229 54.688 27 58 C29.31 58.66 31.62 59.32 34 60 C33.196 59.423 32.391 58.845 31.562 58.25 C29.021 56.019 28.349 55.255 28 52 C28.99 52 29.98 52 31 52 C31.557 52.763 32.114 53.526 32.688 54.312 C36.658 58.927 40.726 59.819 46.574 60.285 C53.722 60.449 59.586 60.27 66 57 C66.99 56.01 66.99 56.01 68 55 C68.073 52.445 68.073 52.445 67 50 C64.524 48.625 64.524 48.625 62 48 C61.907 48.623 61.814 49.245 61.719 49.887 C61 52 61 52 57.5 53.812 C52.16 55.58 46.848 55.321 41.734 52.949 C41.162 52.636 40.59 52.323 40 52 C40.33 50.68 40.66 49.36 41 48 C41.66 48.99 42.32 49.98 43 51 C45.927 51.976 47.947 52.165 51 52.188 C51.866 52.202 52.733 52.216 53.625 52.23 C56.267 52.163 56.267 52.163 59 50 C59 49.34 59 48.68 59 48 C55.535 46.515 55.535 46.515 52 45 C52.33 44.01 52.66 43.02 53 42 C53.99 42 54.98 42 56 42 C56 41.34 56 40.68 56 40 C61.041 40.417 65.33 40.965 70 43 C71.33 43.328 72.663 43.639 74 43.938 C76.689 44.567 78.223 45.138 80.625 46.625 C83.803 48.465 85.316 48.364 89 48 C92.432 46.842 95.702 45.367 99 43.875 C99.925 43.468 100.849 43.06 101.802 42.641 C103.664 41.821 105.523 40.996 107.381 40.167 C110.973 38.566 114.578 36.997 118.188 35.438 C119.274 34.962 120.361 34.486 121.48 33.996 C124 33 124 33 126 33 C126.33 33.66 126.66 34.32 127 35 C129.97 33.68 132.94 32.36 136 31 C134.35 31.33 132.7 31.66 131 32 C134.378 28.274 138.467 26.746 143 24.75 C143.82 24.374 144.64 23.997 145.484 23.609 C146.273 23.259 147.062 22.908 147.875 22.547 C148.594 22.226 149.314 21.904 150.055 21.573 C152 21 152 21 155 22 C151.7 23.65 148.4 25.3 145 27 C145.99 27.99 145.99 27.99 147 29 C145.188 29.625 145.188 29.625 143 30 C142.01 29.34 141.02 28.68 140 28 C139.894 29.164 139.894 29.164 139.785 30.352 C139 33 139 33 136.996 34.398 C131.099 36.649 127.191 37.376 121 36 C120.974 36.758 120.948 37.516 120.922 38.297 C120 41 120 41 117.016 42.766 C115.768 43.28 114.513 43.775 113.25 44.25 C112.629 44.505 112.007 44.76 111.367 45.023 C107.935 46.399 104.615 47.293 101 48 C98.933 48.872 98.933 48.872 97 49.938 C90.883 53.094 90.883 53.094 88 54 C86.515 53.505 86.515 53.505 85 53 C85.99 52.34 86.98 51.68 88 51 C85.03 51.66 82.06 52.32 79 53 C78.01 57.29 77.02 61.58 76 66 C75.34 66 74.68 66 74 66 C74 65.34 74 64.68 74 64 C73.336 64.277 72.672 64.554 71.988 64.84 C70.664 65.383 70.664 65.383 69.312 65.938 C68.007 66.477 68.007 66.477 66.676 67.027 C62.32 68.611 58.322 69.125 53.699 69.098 C52.723 69.094 51.746 69.091 50.74 69.088 C49.733 69.08 48.725 69.071 47.688 69.062 C46.661 69.058 45.634 69.053 44.576 69.049 C42.051 69.037 39.525 69.021 37 69 C37.33 69.33 37.66 69.66 38 70 C38.125 72.5 38.125 72.5 38 75 C37 76 37 76 34.5 76.125 C32 76 32 76 31 75 C30.812 72.063 30.812 72.063 31 69 C31.66 68.34 32.32 67.68 33 67 C30.69 65.68 28.38 64.36 26 63 C25.892 65.918 25.813 68.831 25.75 71.75 C25.716 72.575 25.683 73.4 25.648 74.25 C25.527 79.199 25.527 79.199 27.801 83.473 C37.433 90.162 50.047 90.288 61.281 88.469 C66.508 87.148 70.907 85.555 75 82 C76.158 80.12 76.158 80.12 76 78 C75.356 76.325 74.688 74.658 74 73 C73.875 70.188 73.875 70.188 74 68 C74.66 68 75.32 68 76 68 C76 69.65 76 71.3 76 73 C79.231 71.628 82.459 70.252 85.688 68.875 C86.58 68.496 87.473 68.117 88.393 67.727 C93.414 65.582 98.393 63.37 103.344 61.066 C110.109 57.925 116.948 54.979 123.812 52.062 C133.49 47.949 133.49 47.949 143.125 43.738 C143.85 43.417 144.574 43.095 145.321 42.763 C147.149 41.948 148.975 41.127 150.801 40.305 C154.177 38.928 157.48 37.937 161 37 C161 37.66 161 38.32 161 39 C154.751 41.752 148.501 44.502 142.25 47.25 C141.32 47.659 140.39 48.068 139.432 48.489 C126.658 54.103 113.868 59.675 101.021 65.118 C99.02 65.968 97.023 66.826 95.03 67.693 C92.837 68.639 90.632 69.555 88.419 70.454 C86.653 71.202 86.653 71.202 84.852 71.965 C83.777 72.407 82.703 72.849 81.596 73.304 C78.764 74.818 78.764 74.818 77.712 77.915 C77.148 80.697 76.855 83.166 77 86 C77.33 86.33 77.66 86.66 78 87 C78.5 89.562 78.5 89.562 78 93 C76.306 95.13 74.501 96.999 72.531 98.875 C70.415 101.375 70.415 101.375 71 107 C82.88 107.66 94.76 108.32 107 109 C107 109.66 107 110.32 107 111 C107.66 111.66 108.32 112.32 109 113 C106.568 114.2 104.13 115.385 101.688 116.562 C100.997 116.905 100.307 117.247 99.596 117.6 C94.34 120.113 94.34 120.113 91 119 C94.556 116.699 97.947 115.225 102 114 C102 113.34 102 112.68 102 112 C95.148 110.864 88.319 110.65 81.387 110.395 C80.481 110.357 79.574 110.32 78.641 110.281 C77.821 110.251 77.002 110.221 76.157 110.189 C74 110 74 110 71 109 C71.041 110.072 71.082 111.145 71.125 112.25 C71 116 71 116 69 120 C64.05 119.67 59.1 119.34 54 119 C57.496 117.252 59.004 116.724 62.688 116.438 C65.642 116.405 65.642 116.405 68 115 C68.041 113.334 68.043 111.666 68 110 C67.29 110.315 66.579 110.629 65.848 110.953 C57.821 113.904 47.009 114.083 39 111 C37.285 108.477 37.285 108.477 36 106 C35.01 105.505 35.01 105.505 34 105 C31.212 103.606 30.504 101.694 29 99 C28.278 98.196 27.556 97.391 26.812 96.562 C24.588 93.418 24.507 91.776 25 88 C25.99 86.515 25.99 86.515 27 85 C26.34 85 25.68 85 25 85 C22.674 81.348 22.928 78.376 23 74.125 C22.76 65.338 18.694 60.24 13.3 53.639 C11.366 51.2 9.691 48.611 8 46 C4.262 40.337 0.34 34.824 -3.621 29.316 C-6.206 25.722 -8.738 22.091 -11.262 18.453 C-13.927 14.692 -16.711 11.02 -19.496 7.348 C-21 5 -21 5 -21 2 C-20.34 2 -19.68 2 -19 2 C-16 6.385 -16 6.385 -16 9 C-15.34 9 -14.68 9 -14 9 C-12.879 10.406 -12.879 10.406 -11.562 12.5 C-9.507 15.703 -7.412 18.866 -5.23 21.984 C-4.741 22.686 -4.251 23.388 -3.746 24.111 C-2.762 25.519 -1.774 26.924 -0.783 28.326 C1.621 31.782 3.656 34.967 5 39 C5.66 39 6.32 39 7 39 C8.445 41.02 8.445 41.02 10.125 43.812 C13.798 49.766 17.824 55.392 22 61 C22.222 59.064 22.427 57.126 22.625 55.188 C22.741 54.109 22.857 53.03 22.977 51.918 C23.275 48.804 23.275 48.804 21 46 C21 45.01 21 44.02 21 43 C20.402 42.794 19.804 42.588 19.188 42.375 C16.127 40.451 15.325 38.312 14 35 C14 33.68 14 32.36 14 31 C13.01 31 12.02 31 11 31 C7 24.5 7 24.5 7 20 C6.402 19.814 5.804 19.629 5.188 19.438 C1.826 17.229 1.092 14.791 0 11 C1.312 8.062 1.312 8.062 3 6 C2.505 5.381 2.01 4.763 1.5 4.125 C0 2 0 2 0 0 Z " fill="#080808" transform="translate(89,90)"/>
<path d="M0 0 C1.155 0.186 2.31 0.371 3.5 0.562 C4.325 0.707 5.15 0.851 6 1 C4.71 2.376 3.373 3.708 2 5 C1.34 5 0.68 5 0 5 C-2.969 11.836 -2.969 11.836 -2 19 C4.234 23.594 10.523 23.623 18 23 C23.349 21.772 28.147 19.462 33 16.953 C33.702 16.592 34.404 16.23 35.128 15.857 C36.512 15.135 37.888 14.397 39.255 13.643 C45.449 10.358 50.619 10.506 57.438 12 C58.302 12.186 59.167 12.371 60.059 12.562 C60.699 12.707 61.34 12.851 62 13 C60.748 16.755 59.792 16.921 56.344 18.664 C55.404 19.146 54.464 19.628 53.496 20.125 C52.013 20.868 52.013 20.868 50.5 21.625 C48.551 22.616 46.603 23.608 44.656 24.602 C43.788 25.038 42.92 25.475 42.025 25.924 C40.062 26.84 40.062 26.84 39 28 C36.851 27.936 34.705 27.799 32.562 27.625 C31.388 27.535 30.214 27.445 29.004 27.352 C26 27 26 27 24 26 C24.66 26.99 25.32 27.98 26 29 C27.134 29 28.269 29 29.438 29 C33 29 33 29 34.875 30.312 C37.476 34.214 37.478 38.479 37 43 C35.063 48.327 35.063 48.327 32.125 50.188 C30 50 30 50 27.312 48.125 C24.338 44.105 24.117 40.892 24 36 C22.411 41.092 24.364 45.091 26 50 C21.801 50.099 17.602 50.172 13.402 50.22 C11.974 50.24 10.547 50.267 9.119 50.302 C7.064 50.35 5.009 50.373 2.953 50.391 C1.099 50.422 1.099 50.422 -0.792 50.454 C-4.599 49.915 -5.718 49.033 -8 46 C-10.255 39.236 -8.739 32.708 -7 26 C-7.66 26 -8.32 26 -9 26 C-10.826 37.055 -10.826 37.055 -8.125 47.5 C-6.038 49.955 -5.263 50.862 -2.121 51.205 C-1.005 51.26 -1.005 51.26 0.133 51.316 C0.938 51.358 1.744 51.4 2.574 51.443 C3.837 51.502 3.837 51.502 5.125 51.562 C6.399 51.627 6.399 51.627 7.699 51.693 C9.799 51.8 11.9 51.9 14 52 C15.04 57.822 14.828 62.394 13.797 68.227 C12.416 77.636 14.314 85.768 16.625 94.875 C16.988 96.384 17.349 97.893 17.707 99.402 C18.422 102.407 19.152 105.407 19.892 108.405 C21.266 114.03 22.499 119.685 23.712 125.346 C24.531 129.281 24.531 129.281 26 133 C26.375 137.963 26.141 141.044 23 145 C22.01 145.33 21.02 145.66 20 146 C19.34 144.02 18.68 142.04 18 140 C18.66 140 19.32 140 20 140 C20.95 134.356 20.918 129.857 19.523 124.273 C19.356 123.563 19.189 122.853 19.017 122.121 C18.662 120.626 18.3 119.132 17.932 117.639 C17.382 115.405 16.856 113.166 16.332 110.926 C13.029 97.039 9.259 83.285 0.32 71.852 C-1 70 -1 70 -1 68 C-1.66 68 -2.32 68 -3 68 C-4.601 65.927 -6.091 63.85 -7.562 61.688 C-11.551 55.941 -15.743 50.532 -20.285 45.207 C-22 43 -22 43 -23 40 C-27.227 38.188 -31.453 37.546 -36 37 C-33.453 24.398 -29.07 11.433 -18.012 3.988 C-11.506 0.169 -7.365 -2.067 0 0 Z " fill="#FFFFFF" transform="translate(107,209)"/>
<path d="M0 0 C0.66 0 1.32 0 2 0 C0.643 2.888 -0.938 5.361 -2.812 7.938 C-7.472 14.823 -10.589 22.805 -12 31 C-11.134 31.103 -10.267 31.206 -9.375 31.312 C-2.462 32.721 1.212 35.874 5.312 41.438 C5.779 42.052 6.245 42.667 6.726 43.3 C7.686 44.568 8.641 45.839 9.591 47.115 C10.948 48.93 12.325 50.727 13.711 52.52 C20 60.714 20 60.714 20 63 C20.66 63 21.32 63 22 63 C23.545 65.052 24.938 67.087 26.312 69.25 C26.88 70.101 26.88 70.101 27.459 70.969 C33.924 81.033 37.044 92.064 39.688 103.625 C39.982 104.87 40.277 106.115 40.58 107.398 C41.408 110.928 42.211 114.462 43 118 C43.337 119.478 43.337 119.478 43.682 120.986 C43.873 121.866 44.064 122.746 44.262 123.652 C44.428 124.405 44.593 125.158 44.764 125.933 C45.151 129.329 44.168 131.819 43 135 C42.776 137.925 42.776 137.925 44 140 C46.879 137.246 47.949 135.946 48.171 131.834 C47.994 127.856 47.29 124.492 46.262 120.648 C45.892 119.234 45.522 117.82 45.154 116.405 C44.963 115.68 44.771 114.955 44.574 114.207 C43.072 108.433 41.715 102.621 40.335 96.816 C39.984 95.344 39.63 93.873 39.274 92.402 C34.157 71.281 34.157 71.281 35.938 60.25 C36.646 55.764 37.118 51.544 37 47 C35.759 47.046 34.517 47.093 33.238 47.141 C31.596 47.178 29.954 47.215 28.312 47.25 C27.496 47.284 26.679 47.317 25.838 47.352 C21.801 47.417 19.578 47.345 16.043 45.234 C12.198 41.029 11.686 38.003 11.797 32.461 C12.12 28.542 12.995 24.794 14 21 C14.66 21 15.32 21 16 21 C15.893 22.169 15.786 23.338 15.676 24.543 C15.554 26.091 15.433 27.639 15.312 29.188 C15.203 30.341 15.203 30.341 15.092 31.518 C14.744 36.281 14.918 39.081 18 43 C19.886 44.886 23.142 44.243 25.66 44.316 C26.325 44.337 26.989 44.358 27.674 44.379 C29.803 44.445 31.933 44.504 34.062 44.562 C35.503 44.606 36.944 44.649 38.385 44.693 C41.923 44.801 45.461 44.902 49 45 C48.283 43.853 48.283 43.853 47.551 42.684 C45.784 39.627 45.215 37.519 45 34 C45.938 30.625 45.938 30.625 47 28 C47.903 30.71 48.147 32.631 48.312 35.438 C48.648 38.657 48.893 39.848 50.812 42.562 C53.121 44.366 53.121 44.366 57 44 C59.341 38.146 60.083 33.058 57.938 27 C56.033 24.596 56.033 24.596 52.312 24.688 C51.219 24.791 50.126 24.894 49 25 C48.01 23.02 48.01 23.02 47 21 C52.28 21.33 57.56 21.66 63 22 C63 22.66 63 23.32 63 24 C63.99 23.67 64.98 23.34 66 23 C65.67 23.99 65.34 24.98 65 26 C62.938 26.688 62.938 26.688 61 27 C61.495 28.485 61.495 28.485 62 30 C62.562 35.673 62.308 40.157 59 45 C55.283 47.688 51.135 47.226 46.75 47.125 C45.632 47.111 45.632 47.111 44.492 47.098 C42.661 47.074 40.831 47.038 39 47 C39.012 47.797 39.023 48.593 39.035 49.414 C39.081 54.762 38.937 59.728 38 65 C37.617 71.398 38.429 77.206 39.863 83.426 C40.056 84.295 40.249 85.163 40.447 86.059 C41.06 88.812 41.686 91.562 42.312 94.312 C42.722 96.145 43.13 97.978 43.537 99.811 C45.39 108.106 47.273 116.382 49.49 124.59 C50.306 128.447 50.196 132.074 50 136 C50.66 135.67 51.32 135.34 52 135 C52.534 131.635 53 128.404 53 125 C56.21 126.382 58.049 127.924 60.25 130.625 C60.771 131.257 61.292 131.888 61.828 132.539 C62.215 133.021 62.602 133.503 63 134 C63 131.199 61.724 130.171 60 128 C57 124.222 57 124.222 57 122 C58.485 122.495 58.485 122.495 60 123 C59.377 116.049 58.069 109.467 56.438 102.688 C55.974 100.755 55.514 98.821 55.059 96.887 C54.855 96.043 54.652 95.2 54.443 94.331 C54 92 54 92 54 88 C54.66 88 55.32 88 56 88 C56.99 92.05 57.968 96.103 58.936 100.158 C59.265 101.532 59.598 102.905 59.934 104.277 C62.025 112.828 63.601 121.173 64 130 C64.64 129.892 65.279 129.784 65.938 129.673 C69.64 129.08 72.291 128.754 75.875 130 C79.346 133.267 80.893 136.549 81.098 141.246 C80.731 146.543 79.406 149.79 76 154 C73.175 154.783 73.175 154.783 69.645 154.836 C68.968 154.854 68.291 154.873 67.593 154.892 C66 154.931 64.405 154.956 62.811 154.971 C59.622 155.004 56.436 155.085 53.248 155.169 C46.753 155.332 40.258 155.453 33.762 155.558 C30.356 155.613 26.95 155.677 23.544 155.743 C20.241 155.805 16.939 155.859 13.637 155.914 C11.829 155.95 11.829 155.95 9.984 155.986 C-9.405 156.271 -19.187 151.569 -34.582 140.223 C-38.178 137.578 -41.827 135.069 -45.562 132.625 C-58.662 124.008 -58.662 124.008 -62 119 C-63.106 113.006 -62.953 107.499 -62.398 101.453 C-62.32 100.561 -62.242 99.668 -62.161 98.749 C-61.992 96.869 -61.819 94.99 -61.641 93.111 C-61.377 90.274 -61.143 87.434 -60.91 84.594 C-59.815 72.245 -58.382 60.028 -49 51 C-45.941 48.945 -45.941 48.945 -42.562 47.125 C-41.324 46.447 -40.086 45.769 -38.848 45.09 C-38.215 44.748 -37.582 44.406 -36.93 44.054 C-33.755 42.32 -30.631 40.499 -27.5 38.688 C-24.25 36.816 -21.159 35.065 -17.688 33.641 C-14.773 32.238 -14.773 32.238 -13.969 29.285 C-13.737 27.69 -13.737 27.69 -13.5 26.062 C-11.569 15.932 -7.313 7.313 0 0 Z M-19 36 C-18.299 36.474 -17.597 36.949 -16.875 37.438 C-9.341 44.152 -5.461 53.793 -1.115 62.722 C0.895 66.829 2.951 70.913 5 75 C5.771 76.542 6.542 78.083 7.312 79.625 C7.869 80.739 8.426 81.852 9 83 C8.34 83 7.68 83 7 83 C6.881 82.436 6.762 81.873 6.639 81.292 C5.938 78.778 4.949 76.656 3.777 74.324 C3.099 72.969 3.099 72.969 2.407 71.585 C1.922 70.629 1.437 69.673 0.938 68.688 C0.442 67.708 -0.053 66.728 -0.563 65.719 C-1.566 63.741 -2.572 61.764 -3.58 59.788 C-4.84 57.315 -6.087 54.836 -7.332 52.355 C-8.012 51.028 -8.693 49.701 -9.375 48.375 C-10.253 46.654 -10.253 46.654 -11.148 44.898 C-13.169 41.735 -14.75 39.889 -18 38 C-24.711 38.559 -29.759 41.859 -35.5 45.125 C-36.52 45.682 -37.539 46.239 -38.59 46.812 C-47.588 51.891 -52.947 56.915 -56.195 66.82 C-57.792 73.13 -58.39 79.539 -59 86 C-59.09 86.904 -59.18 87.808 -59.273 88.74 C-59.565 91.659 -59.847 94.579 -60.125 97.5 C-60.213 98.42 -60.301 99.339 -60.391 100.286 C-61.908 111.256 -61.908 111.256 -58 121 C-55.933 122.328 -55.933 122.328 -54 123 C-54 123.66 -54 124.32 -54 125 C-52.198 126.345 -52.198 126.345 -49.75 127.75 C-43.935 131.339 -38.339 135.195 -32.75 139.125 C-31.899 139.723 -31.048 140.321 -30.171 140.937 C-28.934 141.807 -28.934 141.807 -27.672 142.695 C-26.476 143.537 -26.476 143.537 -25.257 144.395 C-23.83 145.41 -22.411 146.436 -21.003 147.478 C-10.113 155.521 0.94 154.371 13.75 153.188 C14.975 153.083 14.975 153.083 16.224 152.976 C20.992 152.485 25.021 151.884 29 149 C30.584 143.856 29.369 139.985 27.578 135.109 C27.317 134.365 27.057 133.62 26.788 132.853 C25.955 130.48 25.103 128.115 24.25 125.75 C23.417 123.403 22.588 121.054 21.759 118.705 C21.226 117.196 20.692 115.687 20.156 114.179 C18.265 108.834 16.525 103.462 15 98 C24.954 125.682 24.954 125.682 28.062 134.812 C28.606 136.4 28.606 136.4 29.16 138.02 C30.093 141.331 30.585 144.588 31 148 C35.559 146.031 38.374 144.265 41 140 C40.818 136.945 40.818 136.945 39.605 133.762 C39.202 132.525 38.799 131.288 38.384 130.013 C38.158 129.358 37.932 128.704 37.699 128.029 C36.997 125.99 36.331 123.943 35.674 121.889 C27.936 97.852 18.574 76.141 5.957 54.234 C3.151 49.331 0.636 44.372 -1.656 39.207 C-3.357 36.414 -5.324 34.851 -8 33 C-12.366 32.216 -15.22 33.89 -19 36 Z " fill="#000000" transform="translate(84,214)"/>
<path d="M0 0 C-1 3 -1 3 -4.5 4.867 C-5.996 5.546 -7.496 6.215 -9 6.875 C-10.557 7.58 -12.113 8.287 -13.668 8.996 C-14.417 9.338 -15.167 9.679 -15.939 10.031 C-19.145 11.539 -22.2 13.272 -25.238 15.09 C-27.135 16.07 -28.916 16.563 -31 17 C-30.446 17.268 -29.891 17.536 -29.32 17.812 C-23.474 20.975 -23.474 20.975 -22.023 24.113 C-21.5 26.312 -21.5 26.312 -21 30 C-20.412 29.635 -19.823 29.27 -19.217 28.894 C-12.796 24.97 -6.239 21.467 0.5 18.125 C1.487 17.627 2.475 17.13 3.492 16.617 C4.904 15.913 4.904 15.913 6.344 15.195 C7.191 14.773 8.039 14.35 8.912 13.915 C11 13 11 13 13 13 C13 14.32 13 15.64 13 17 C12.007 17.485 11.015 17.969 9.992 18.469 C0.795 22.995 -8.162 27.808 -17 33 C-12.194 32.351 -8.252 30.402 -3.938 28.312 C-3.191 27.957 -2.445 27.601 -1.676 27.234 C3.854 24.588 9.332 21.847 14.777 19.031 C17 18 17 18 19 18 C19 18.66 19 19.32 19 20 C14.86 22.107 10.715 24.207 6.567 26.299 C5.159 27.011 3.752 27.724 2.345 28.44 C0.315 29.474 -1.719 30.499 -3.754 31.523 C-4.374 31.841 -4.994 32.159 -5.633 32.486 C-9.705 34.523 -13.614 35.873 -18 37 C-17.752 37.907 -17.505 38.815 -17.25 39.75 C-17.168 40.822 -17.085 41.895 -17 43 C-17.652 43.594 -18.305 44.189 -18.977 44.801 C-21.707 47.768 -21.28 49.482 -21.125 53.438 C-21.254 56.914 -21.254 56.914 -22 60 C-25.035 62.613 -28.184 63.871 -32 65 C-32.66 64.34 -33.32 63.68 -34 63 C-30.7 61.35 -27.4 59.7 -24 58 C-24 54.7 -24 51.4 -24 48 C-24.701 48.309 -25.403 48.619 -26.125 48.938 C-31.989 51.105 -37.77 51.156 -43.938 51.125 C-45.097 51.131 -45.097 51.131 -46.279 51.137 C-50.956 51.129 -55.387 50.774 -60 50 C-59.175 50.392 -58.35 50.784 -57.5 51.188 C-56.675 51.786 -55.85 52.384 -55 53 C-54.688 55.688 -54.688 55.688 -55 58 C-55.99 58.495 -55.99 58.495 -57 59 C-57 57.02 -57 55.04 -57 53 C-65.655 52.845 -74.145 53.309 -82.762 54.094 C-84.033 54.205 -85.304 54.316 -86.614 54.43 C-89.959 54.722 -93.305 55.019 -96.65 55.318 C-101.364 55.739 -106.078 56.158 -110.793 56.57 C-113.293 56.789 -115.793 57.011 -118.293 57.238 C-124.558 57.787 -130.71 58.117 -137 58 C-134.164 55.164 -131.187 55.436 -127.367 55.148 C-126.239 55.053 -126.239 55.053 -125.089 54.955 C-122.685 54.753 -120.28 54.564 -117.875 54.375 C-116.246 54.24 -114.617 54.105 -112.988 53.969 C-108.993 53.635 -104.997 53.318 -101 53 C-108.59 53 -116.18 53 -124 53 C-123.67 52.34 -123.34 51.68 -123 51 C-121.14 50.917 -121.14 50.917 -119.243 50.832 C-114.591 50.624 -109.939 50.413 -105.288 50.2 C-103.284 50.109 -101.28 50.019 -99.277 49.93 C-83.62 49.244 -83.62 49.244 -68 48 C-68 47.34 -68 46.68 -68 46 C-68.495 45.505 -68.99 45.01 -69.5 44.5 C-69.995 44.005 -70.49 43.51 -71 43 C-71 42.34 -71 41.68 -71 41 C-71.979 41.031 -72.957 41.063 -73.966 41.095 C-77.603 41.204 -81.241 41.273 -84.879 41.33 C-86.453 41.36 -88.026 41.401 -89.599 41.453 C-91.863 41.526 -94.125 41.559 -96.391 41.586 C-97.442 41.632 -97.442 41.632 -98.515 41.68 C-100.517 41.681 -100.517 41.681 -104 41 C-106.3 38.057 -106.3 38.057 -108 35 C-111.884 32.928 -113.546 32.897 -117.875 33.875 C-118.906 34.246 -119.938 34.618 -121 35 C-118.493 31.657 -117.285 31.041 -113.062 30.438 C-109.577 30.6 -108.999 31 -106.125 33.375 C-105.424 34.241 -104.722 35.108 -104 36 C-101.101 38.899 -98.96 38.259 -94.91 38.266 C-94.21 38.268 -93.509 38.269 -92.788 38.271 C-91.306 38.273 -89.824 38.269 -88.342 38.261 C-86.075 38.25 -83.808 38.261 -81.541 38.273 C-80.102 38.272 -78.662 38.27 -77.223 38.266 C-75.91 38.263 -74.598 38.261 -73.246 38.259 C-69.853 38.253 -69.853 38.253 -67 36 C-66.679 32.78 -66.679 32.78 -66.75 29.125 C-66.376 22.36 -66.376 22.36 -63.125 19.25 C-61.199 18.527 -61.199 18.527 -59 18 C-58.202 17.795 -57.404 17.59 -56.582 17.379 C-50.312 16.036 -44.051 15.706 -37.652 15.539 C-28.65 14.21 -20.506 9.361 -12.5 5.25 C-10.554 4.252 -8.606 3.257 -6.656 2.266 C-5.809 1.83 -4.961 1.395 -4.088 0.946 C-2 0 -2 0 0 0 Z " fill="#292929" transform="translate(321,163)"/>
<path d="M0 0 C-0.165 1.134 -0.33 2.269 -0.5 3.438 C-2.658 21.688 2.222 38.541 12.547 53.625 C13.909 55.851 14.678 57.425 15 60 C14.649 60.825 14.299 61.65 13.938 62.5 C12.783 64.903 12.783 64.903 13.438 67.125 C17.996 72.596 26.398 72.985 33 74 C30.326 79.562 27.932 82.876 22 85 C14.63 86.112 7.586 82.846 1.438 78.938 C-12.069 68.553 -20.946 50.456 -24 34 C-24.303 31.015 -24.381 28.062 -24.375 25.062 C-24.373 24.273 -24.372 23.483 -24.37 22.669 C-24.245 16.713 -23.35 12.036 -20 7 C-19.422 6.051 -18.845 5.103 -18.25 4.125 C-12.731 -1.087 -7.176 -1.409 0 0 Z " fill="#FFFFFF" transform="translate(59,273)"/>
<path d="M0 0 C3.344 0.557 6.033 1.352 9 3 C9 3.66 9 4.32 9 5 C9.583 5.253 10.165 5.505 10.766 5.766 C22.195 12.08 29.544 29.032 33 41 C35.645 50.516 36.529 60.646 33 70 C19.971 69.578 19.971 69.578 15 65 C13.625 62.75 13.625 62.75 13 61 C13.99 60.505 13.99 60.505 15 60 C15.66 60.33 16.32 60.66 17 61 C17 59.35 17 57.7 17 56 C21.29 56 25.58 56 30 56 C30 51.38 30 46.76 30 42 C28.02 41.67 26.04 41.34 24 41 C23.67 40.34 23.34 39.68 23 39 C22.67 39.66 22.34 40.32 22 41 C18.937 41.625 18.937 41.625 16 42 C15.67 44.97 15.34 47.94 15 51 C14.01 51 13.02 51 12 51 C3.126 41.107 -1.155 23.321 -1.125 10.375 C-1.128 9.269 -1.13 8.163 -1.133 7.023 C-1.021 4.488 -0.741 2.411 0 0 Z " fill="#F4F4F4" transform="translate(60,275)"/>
<path d="M0 0 C0.66 0.33 1.32 0.66 2 1 C1.237 1.825 0.474 2.65 -0.312 3.5 C-6.561 11.168 -6.911 19.442 -6 29 C-4.916 35.974 -3.203 42.828 -1.562 49.688 C-1.136 51.525 -0.711 53.363 -0.287 55.201 C1.595 63.673 1.595 63.673 4 72 C4.128 74.674 4.044 77.321 4 80 C2.68 79.01 1.36 78.02 0 77 C0.433 77.554 0.866 78.109 1.312 78.68 C1.869 79.404 2.426 80.129 3 80.875 C3.557 81.594 4.114 82.314 4.688 83.055 C6 85 6 85 6 87 C6.66 87.33 7.32 87.66 8 88 C6.515 88.99 6.515 88.99 5 90 C4.518 89.362 4.036 88.724 3.539 88.066 C2.907 87.24 2.276 86.414 1.625 85.562 C0.999 84.739 0.372 83.915 -0.273 83.066 C-1.838 80.915 -1.838 80.915 -4 80 C-3.773 81.052 -3.546 82.104 -3.312 83.188 C-2.968 87.388 -3.512 88.716 -6 92 C-6.66 91.67 -7.32 91.34 -8 91 C-7.951 89.746 -7.902 88.492 -7.852 87.2 C-7.858 81.518 -9.048 76.3 -10.371 70.797 C-10.613 69.756 -10.855 68.715 -11.104 67.643 C-11.872 64.343 -12.655 61.047 -13.438 57.75 C-13.96 55.521 -14.481 53.292 -15.002 51.062 C-15.735 47.926 -16.468 44.789 -17.21 41.654 C-17.43 40.722 -17.65 39.791 -17.877 38.831 C-18.07 38.017 -18.263 37.202 -18.462 36.363 C-20.481 27.492 -20.095 19.428 -19 10.438 C-18.905 9.62 -18.809 8.802 -18.711 7.959 C-18.479 5.972 -18.24 3.986 -18 2 C-16.868 1.939 -15.736 1.879 -14.57 1.816 C-13.089 1.732 -11.607 1.647 -10.125 1.562 C-9.379 1.523 -8.632 1.484 -7.863 1.443 C-3.8 1.284 -3.8 1.284 0 0 Z " fill="#FFFFFF" transform="translate(141,259)"/>
<path d="M0 0 C-3.3 1.65 -6.6 3.3 -10 5 C-9.01 5.99 -9.01 5.99 -8 7 C-9.812 7.625 -9.812 7.625 -12 8 C-12.99 7.34 -13.98 6.68 -15 6 C-15.071 6.776 -15.142 7.552 -15.215 8.352 C-16 11 -16 11 -18.004 12.398 C-23.901 14.649 -27.809 15.376 -34 14 C-34.026 14.758 -34.052 15.516 -34.078 16.297 C-35 19 -35 19 -37.984 20.766 C-39.232 21.28 -40.487 21.775 -41.75 22.25 C-42.371 22.505 -42.993 22.76 -43.633 23.023 C-47.065 24.399 -50.385 25.293 -54 26 C-56.067 26.872 -56.067 26.872 -58 27.938 C-64.117 31.094 -64.117 31.094 -67 32 C-67.99 31.67 -68.98 31.34 -70 31 C-69.01 30.34 -68.02 29.68 -67 29 C-69.97 29.66 -72.94 30.32 -76 31 C-76.99 35.29 -77.98 39.58 -79 44 C-79.66 44 -80.32 44 -81 44 C-81 43.34 -81 42.68 -81 42 C-81.664 42.277 -82.328 42.554 -83.012 42.84 C-84.336 43.383 -84.336 43.383 -85.688 43.938 C-86.993 44.477 -86.993 44.477 -88.324 45.027 C-92.68 46.611 -96.678 47.125 -101.301 47.098 C-102.277 47.094 -103.254 47.091 -104.26 47.088 C-105.267 47.08 -106.275 47.071 -107.312 47.062 C-108.339 47.058 -109.366 47.053 -110.424 47.049 C-112.949 47.037 -115.475 47.021 -118 47 C-117.67 47.33 -117.34 47.66 -117 48 C-116.875 50.5 -116.875 50.5 -117 53 C-118 54 -118 54 -120.5 54.125 C-123 54 -123 54 -124 53 C-124.188 50.062 -124.188 50.062 -124 47 C-123.34 46.34 -122.68 45.68 -122 45 C-123.65 43.02 -125.3 41.04 -127 39 C-125.225 39.433 -125.225 39.433 -123.414 39.875 C-111.167 42.788 -101.886 44.126 -89.566 40.656 C-87 40 -87 40 -84 40 C-84 39.34 -84 38.68 -84 38 C-84.764 38.289 -85.529 38.577 -86.316 38.875 C-97.064 42.6 -109.13 44.227 -120 40 C-123.653 37.062 -125.595 34.469 -127 30 C-126.01 30 -125.02 30 -124 30 C-123.443 30.763 -122.886 31.526 -122.312 32.312 C-118.342 36.927 -114.274 37.819 -108.426 38.285 C-101.278 38.449 -95.414 38.27 -89 35 C-88.34 34.34 -87.68 33.68 -87 33 C-86.927 30.445 -86.927 30.445 -88 28 C-90.476 26.625 -90.476 26.625 -93 26 C-93.139 26.934 -93.139 26.934 -93.281 27.887 C-94 30 -94 30 -97.5 31.812 C-102.84 33.58 -108.152 33.321 -113.266 30.949 C-113.838 30.636 -114.41 30.323 -115 30 C-114.67 28.68 -114.34 27.36 -114 26 C-113.34 26.99 -112.68 27.98 -112 29 C-109.073 29.976 -107.053 30.165 -104 30.188 C-103.134 30.202 -102.267 30.216 -101.375 30.23 C-98.733 30.163 -98.733 30.163 -96 28 C-96 27.34 -96 26.68 -96 26 C-98.31 25.01 -100.62 24.02 -103 23 C-102.67 22.01 -102.34 21.02 -102 20 C-101.01 20 -100.02 20 -99 20 C-99 19.34 -99 18.68 -99 18 C-93.959 18.417 -89.67 18.965 -85 21 C-83.67 21.328 -82.337 21.639 -81 21.938 C-78.311 22.567 -76.777 23.138 -74.375 24.625 C-71.197 26.465 -69.684 26.364 -66 26 C-62.568 24.842 -59.298 23.367 -56 21.875 C-55.075 21.468 -54.151 21.06 -53.198 20.641 C-51.336 19.821 -49.477 18.996 -47.619 18.167 C-44.027 16.566 -40.422 14.997 -36.812 13.438 C-35.726 12.962 -34.639 12.486 -33.52 11.996 C-31 11 -31 11 -29 11 C-28.505 11.99 -28.505 11.99 -28 13 C-25.03 11.68 -22.06 10.36 -19 9 C-20.65 9.33 -22.3 9.66 -24 10 C-20.622 6.274 -16.533 4.746 -12 2.75 C-11.18 2.374 -10.36 1.997 -9.516 1.609 C-8.727 1.259 -7.938 0.908 -7.125 0.547 C-6.406 0.226 -5.686 -0.096 -4.945 -0.427 C-3 -1 -3 -1 0 0 Z " fill="#1E1E1E" transform="translate(244,112)"/>
<path d="M0 0 C0.33 0 0.66 0 1 0 C1.108 1.769 1.186 3.541 1.25 5.312 C1.296 6.299 1.343 7.285 1.391 8.301 C1 11 1 11 -0.812 12.781 C-3.452 14.252 -6.107 15.145 -9 16 C-8.01 16.99 -8.01 16.99 -7 18 C-7.221 20.877 -7.635 22.54 -9.438 24.812 C-11 26 -11 26 -13 26 C-12.918 27.258 -12.835 28.516 -12.75 29.812 C-12.778 33.694 -12.778 33.694 -14.5 36.062 C-18.297 37.486 -21.036 36.78 -25 36 C-26 35 -26 35 -26.25 31.188 C-26.621 27.764 -26.704 27.258 -29.438 24.875 C-30.283 24.256 -31.129 23.637 -32 23 C-33.312 19.75 -33.312 19.75 -34 17 C-41.245 15.686 -47.906 16.389 -55.188 17.215 C-56.445 17.349 -57.702 17.484 -58.997 17.623 C-62.322 17.98 -65.646 18.344 -68.97 18.713 C-73.647 19.231 -78.325 19.738 -83.003 20.242 C-85.488 20.51 -87.972 20.782 -90.456 21.06 C-96.344 21.7 -102.077 22.157 -108 22 C-107.67 21.34 -107.34 20.68 -107 20 C-103.927 19.496 -100.919 19.12 -97.824 18.816 C-96.407 18.666 -96.407 18.666 -94.96 18.513 C-91.87 18.188 -88.779 17.875 -85.688 17.562 C-83.582 17.342 -81.476 17.121 -79.37 16.899 C-74.19 16.355 -69.009 15.82 -63.827 15.29 C-58.484 14.742 -53.143 14.189 -47.802 13.629 C-45.439 13.381 -43.076 13.138 -40.712 12.901 C-39.174 12.741 -39.174 12.741 -37.605 12.578 C-36.293 12.445 -36.293 12.445 -34.954 12.31 C-33 12.196 -33 12.196 -32 11 C-31.959 9.334 -31.957 7.666 -32 6 C-33.98 5.01 -35.96 4.02 -38 3 C-35.715 2.238 -34.275 1.94 -31.898 2.461 C-28.02 3.182 -24.249 3.191 -20.312 3.188 C-19.116 3.187 -19.116 3.187 -17.895 3.187 C-8.316 3.515 -8.316 3.515 0 0 Z " fill="#222222" transform="translate(297,210)"/>
<path d="M0 0 C15.641 7.27 24.898 22.06 31.273 37.496 C36.018 50.574 36.91 63.978 32.309 77.16 C29.925 81.804 27.002 84.837 22.309 87.16 C11.927 88.793 4.762 85.796 -3.691 80.16 C-3.691 79.5 -3.691 78.84 -3.691 78.16 C-4.565 77.793 -4.565 77.793 -5.457 77.418 C-16.489 71.208 -23.456 52.881 -27.008 41.293 C-29.536 29.709 -30.215 16.55 -23.691 6.16 C-17.092 -1.285 -9.638 -3.008 0 0 Z M-21.504 5.848 C-25.679 12.17 -27.256 18.12 -27.191 25.66 C-27.186 26.437 -27.181 27.214 -27.176 28.014 C-26.659 45.582 -17.804 64.296 -5.309 76.484 C1.108 81.926 7.586 85.427 15.934 86.723 C20.442 85.971 23.956 84.294 27.309 81.16 C29.043 78.079 29.043 78.079 30.309 75.16 C29.272 74.978 28.236 74.797 27.168 74.609 C25.798 74.356 24.428 74.102 23.059 73.848 C22.377 73.73 21.695 73.612 20.992 73.49 C17.066 72.747 14.214 71.965 11.309 69.16 C10.434 67.223 10.434 67.223 10.309 65.16 C10.975 63.827 11.642 62.493 12.309 61.16 C11.844 57.597 10.16 55.309 8.121 52.41 C-1.92 36.936 -5.331 19.304 -2.691 1.16 C-10.41 -0.356 -15.672 0.275 -21.504 5.848 Z M-1.691 3.16 C-5.605 16.523 -1.2 33.228 5.309 45.16 C7.246 48.534 9.244 51.863 11.309 55.16 C13.604 52.864 13.632 52.152 13.934 49.035 C14.057 47.756 14.181 46.478 14.309 45.16 C15.278 45.036 16.247 44.913 17.246 44.785 C18.257 44.579 19.267 44.373 20.309 44.16 C20.639 43.5 20.969 42.84 21.309 42.16 C21.639 42.82 21.969 43.48 22.309 44.16 C24.289 44.49 26.269 44.82 28.309 45.16 C28.309 49.78 28.309 54.4 28.309 59.16 C24.019 59.16 19.729 59.16 15.309 59.16 C15.309 60.81 15.309 62.46 15.309 64.16 C13.824 63.665 13.824 63.665 12.309 63.16 C11.859 67.147 11.859 67.147 14.246 69.285 C19.424 72.455 25.245 73.551 31.309 73.16 C36.079 60.298 32.875 46.184 27.543 33.938 C23.01 24.18 17.291 15.483 9.309 8.16 C8.649 8.16 7.989 8.16 7.309 8.16 C7.309 7.5 7.309 6.84 7.309 6.16 C3.045 3.801 3.045 3.801 -1.691 3.16 Z " fill="#000000" transform="translate(61.69140625,271.83984375)"/>
<path d="M0 0 C0 2.31 0 4.62 0 7 C-0.676 7.069 -1.351 7.137 -2.047 7.208 C-8.53 7.866 -15.013 8.527 -21.495 9.191 C-24.825 9.533 -28.155 9.873 -31.485 10.21 C-44.765 11.558 -58.037 12.934 -71.277 14.637 C-72.722 14.82 -72.722 14.82 -74.195 15.008 C-75.069 15.123 -75.943 15.239 -76.844 15.358 C-77.603 15.458 -78.362 15.558 -79.145 15.662 C-81.085 15.926 -81.085 15.926 -83 17 C-83 13.04 -83 9.08 -83 5 C-73.916 4.213 -64.831 3.43 -55.746 2.653 C-51.527 2.292 -47.308 1.93 -43.089 1.563 C-39.011 1.21 -34.932 0.86 -30.854 0.513 C-29.304 0.381 -27.755 0.247 -26.206 0.111 C-3.708 -1.854 -3.708 -1.854 0 0 Z " fill="#FFFFFF" transform="translate(264,216)"/>
<path d="M0 0 C3 1 3 1 4.25 2.875 C6.741 5.9 9.355 6.625 13 8 C13.33 7.67 13.66 7.34 14 7 C16.333 6.959 18.667 6.958 21 7 C21.289 8.176 21.578 9.351 21.875 10.562 C24.18 16.88 30.213 20.107 36 23 C36 23.66 36 24.32 36 25 C36.722 25.287 37.444 25.575 38.188 25.871 C39.962 26.583 41.733 27.304 43.5 28.035 C44.325 28.374 45.15 28.713 46 29.062 C46.825 29.404 47.65 29.746 48.5 30.098 C54.115 32.124 59.587 32.278 65.5 32.375 C66.705 32.431 66.705 32.431 67.934 32.488 C78.235 32.628 88.109 29.565 98 27 C99.454 26.626 99.454 26.626 100.938 26.244 C108.983 24.171 117.016 22.051 125.048 19.928 C128.061 19.132 131.075 18.339 134.09 17.547 C134.999 17.305 135.909 17.064 136.845 16.815 C141.214 15.667 145.521 14.641 150 14 C150 14.66 150 15.32 150 16 C140.063 19.184 130.048 21.873 119.938 24.438 C118.383 24.834 116.829 25.23 115.274 25.627 C112.231 26.403 109.187 27.177 106.142 27.949 C102.6 28.847 99.059 29.753 95.52 30.66 C93.763 31.107 92.007 31.554 90.25 32 C89.111 32.293 89.111 32.293 87.949 32.592 C71.699 36.679 53.551 37.153 38.688 28.625 C36.781 27.433 34.885 26.225 33 25 C31.418 24.019 29.834 23.04 28.25 22.062 C27.177 21.382 26.105 20.701 25 20 C24.01 20.66 23.02 21.32 22 22 C19.957 22.414 19.957 22.414 17.812 22.625 C16.554 22.749 15.296 22.873 14 23 C14.699 24.097 15.397 25.194 16.117 26.324 C17.037 27.779 17.956 29.233 18.875 30.688 C19.335 31.409 19.795 32.13 20.27 32.873 C22.55 36.492 24.603 39.928 26 44 C22.812 44 22.812 44 19 43 C15.535 39.252 14 36.111 14 31 C13.01 31 12.02 31 11 31 C7 24.5 7 24.5 7 20 C6.402 19.814 5.804 19.629 5.188 19.438 C1.826 17.229 1.092 14.791 0 11 C1.312 8.062 1.312 8.062 3 6 C2.257 5.072 2.257 5.072 1.5 4.125 C0 2 0 2 0 0 Z " fill="#272727" transform="translate(89,90)"/>
<path d="M0 0 C3.299 0.78 4.896 2.909 6.965 5.465 C10.445 8.945 15.568 7.769 20.271 7.787 C21.011 7.785 21.751 7.783 22.513 7.781 C24.758 7.777 27.003 7.801 29.248 7.826 C30.681 7.828 32.114 7.829 33.547 7.828 C34.849 7.831 36.15 7.834 37.491 7.837 C41.133 7.447 43.031 6.593 45.965 4.465 C46.357 4.919 46.749 5.372 47.152 5.84 C53.372 11.416 62.528 10.6 70.34 10.527 C71.73 10.521 71.73 10.521 73.148 10.514 C75.421 10.502 77.693 10.486 79.965 10.465 C79.965 11.125 79.965 11.785 79.965 12.465 C69.265 14.472 59.265 13.996 48.965 10.465 C53.634 13.578 58.301 13.592 63.801 13.562 C65.396 13.558 65.396 13.558 67.023 13.553 C68.118 13.544 69.212 13.536 70.34 13.527 C71.457 13.523 72.575 13.518 73.727 13.514 C76.473 13.502 79.219 13.486 81.965 13.465 C81.965 14.125 81.965 14.785 81.965 15.465 C77.489 16.957 73.092 16.69 68.402 16.715 C66.974 16.746 66.974 16.746 65.518 16.777 C59.026 16.813 52.936 16.191 46.965 13.465 C44.84 10.777 44.84 10.777 43.965 8.465 C43.635 9.785 43.305 11.105 42.965 12.465 C44.336 13.12 45.712 13.763 47.09 14.402 C48.238 14.942 48.238 14.942 49.41 15.492 C60.761 19.814 76.797 18.627 87.965 14.465 C88.955 13.805 89.945 13.145 90.965 12.465 C91.215 9.381 91.215 9.381 90.965 6.465 C92.527 7.715 92.527 7.715 93.965 9.465 C93.84 11.465 93.84 11.465 92.965 13.465 C92.453 13.87 91.941 14.274 91.414 14.691 C89.264 17.323 89.807 19.502 89.902 22.84 C89.746 26.344 89.746 26.344 88.965 29.465 C85.93 32.079 82.782 33.336 78.965 34.465 C78.305 33.805 77.645 33.145 76.965 32.465 C81.915 29.99 81.915 29.99 86.965 27.465 C86.965 24.165 86.965 20.865 86.965 17.465 C85.913 17.929 85.913 17.929 84.84 18.402 C78.976 20.569 73.195 20.621 67.027 20.59 C65.868 20.596 65.868 20.596 64.686 20.602 C60.009 20.594 55.577 20.239 50.965 19.465 C51.79 19.857 52.615 20.249 53.465 20.652 C54.29 21.25 55.115 21.849 55.965 22.465 C56.277 25.152 56.277 25.152 55.965 27.465 C55.305 27.795 54.645 28.125 53.965 28.465 C53.965 26.485 53.965 24.505 53.965 22.465 C45.31 22.309 36.82 22.773 28.203 23.559 C26.296 23.725 26.296 23.725 24.351 23.895 C21.005 24.187 17.66 24.484 14.315 24.783 C9.601 25.204 4.887 25.622 0.172 26.035 C-2.328 26.254 -4.828 26.476 -7.328 26.703 C-13.594 27.252 -19.745 27.582 -26.035 27.465 C-23.199 24.629 -20.222 24.901 -16.402 24.613 C-15.275 24.518 -15.275 24.518 -14.124 24.42 C-11.72 24.218 -9.315 24.029 -6.91 23.84 C-5.281 23.705 -3.652 23.57 -2.023 23.434 C1.972 23.1 5.968 22.783 9.965 22.465 C2.375 22.465 -5.215 22.465 -13.035 22.465 C-12.705 21.805 -12.375 21.145 -12.035 20.465 C-10.795 20.409 -9.556 20.354 -8.278 20.297 C-3.626 20.089 1.025 19.877 5.677 19.665 C7.681 19.574 9.684 19.484 11.688 19.395 C27.345 18.709 27.345 18.709 42.965 17.465 C42.965 16.805 42.965 16.145 42.965 15.465 C42.47 14.97 41.975 14.475 41.465 13.965 C40.97 13.47 40.475 12.975 39.965 12.465 C39.965 11.805 39.965 11.145 39.965 10.465 C38.986 10.496 38.007 10.528 36.999 10.56 C33.362 10.669 29.724 10.738 26.085 10.794 C24.512 10.825 22.939 10.865 21.366 10.917 C19.101 10.99 16.839 11.024 14.574 11.051 C13.522 11.097 13.522 11.097 12.449 11.145 C10.448 11.146 10.448 11.146 6.965 10.465 C4.665 7.522 4.665 7.522 2.965 4.465 C-0.919 2.393 -2.581 2.362 -6.91 3.34 C-8.457 3.897 -8.457 3.897 -10.035 4.465 C-7.176 0.653 -4.786 -0.223 0 0 Z " fill="#040404" transform="translate(210.03515625,193.53515625)"/>
<path d="M0 0 C0.741 0.289 1.482 0.577 2.246 0.875 C14.256 5.108 26.497 5.777 38.703 1.754 C41.116 0.962 43.504 0.456 46 0 C46.66 1.32 47.32 2.64 48 4 C46.883 5.506 45.756 7.004 44.625 8.5 C43.999 9.335 43.372 10.171 42.727 11.031 C42.157 11.681 41.587 12.331 41 13 C40.34 13 39.68 13 39 13 C38.67 13.99 38.34 14.98 38 16 C37.34 16 36.68 16 36 16 C36 16.66 36 17.32 36 18 C35.34 18 34.68 18 34 18 C33.505 19.485 33.505 19.485 33 21 C29.684 22.105 27.115 22.168 23.625 22.188 C22.504 22.202 21.382 22.216 20.227 22.23 C14.359 21.811 11.21 19.617 6.938 15.688 C6.101 14.928 5.264 14.169 4.402 13.387 C2.035 11.035 -0.075 8.727 -2 6 C-1.707 1.707 -1.707 1.707 0 0 Z " fill="#FFFFFF" transform="translate(118,177)"/>
<path d="M0 0 C0.99 0.33 1.98 0.66 3 1 C5.638 0.606 5.638 0.606 8 0 C11.698 3.698 12.733 6.714 13.113 11.777 C12.93 15.376 11.557 18.443 9 21 C6.625 21.25 6.625 21.25 4 21 C2.188 19.5 2.188 19.5 1 18 C1.495 19.485 1.495 19.485 2 21 C-0.749 21.775 -3.181 22.123 -6.034 22.114 C-7.205 22.113 -7.205 22.113 -8.399 22.113 C-9.232 22.108 -10.064 22.103 -10.922 22.098 C-11.782 22.096 -12.642 22.095 -13.528 22.093 C-16.269 22.088 -19.009 22.075 -21.75 22.062 C-23.611 22.057 -25.471 22.053 -27.332 22.049 C-31.888 22.038 -36.444 22.021 -41 22 C-37.361 19.574 -33.55 17.588 -29.691 15.535 C-27.288 14.164 -25.185 12.687 -23 11 C-16.414 6.569 -9.79 6.237 -2 6 C-1.34 4.02 -0.68 2.04 0 0 Z " fill="#FFFFFF" transform="translate(150,345)"/>
<path d="M0 0 C4.95 0 9.9 0 15 0 C15 0.66 15 1.32 15 2 C14.01 2 13.02 2 12 2 C12.723 5.299 12.723 5.299 16.062 6.688 C17.517 7.337 17.517 7.337 19 8 C17.25 11.875 17.25 11.875 15 13 C9.32 13.523 4.643 13.714 0 10 C-0.33 10.66 -0.66 11.32 -1 12 C6.491 14.315 12.464 13.986 20 12 C20 10.35 20 8.7 20 7 C25.75 8.625 25.75 8.625 28 12 C28 13.938 28 13.938 27 16 C19.285 22 11.396 21.553 2 21 C-3.04 19.979 -6.666 17.975 -10 14 C-10.66 13.34 -11.32 12.68 -12 12 C-10.688 15.937 -9.081 18.227 -6 21 C-9.486 20.701 -11.046 19.965 -13.875 17.812 C-16 15 -16 15 -16.125 11.938 C-14.408 7.455 -11.649 5.804 -7.438 3.75 C-5 3 -5 3 -1 3 C-0.67 2.01 -0.34 1.02 0 0 Z " fill="#3A3A3A" transform="translate(130,130)"/>
<path d="M0 0 C3 3.194 3 3.194 3 6 C3.99 5.67 4.98 5.34 6 5 C10.258 4.812 14.509 4.883 18.769 4.967 C20.169 4.989 21.57 4.997 22.97 4.99 C34.653 4.937 34.653 4.937 38.06 7.625 C39.445 9.562 39.445 9.562 41 13 C38.19 14.405 35.673 14.311 32.535 14.5 C31.878 14.54 31.221 14.581 30.543 14.622 C28.383 14.753 26.223 14.877 24.062 15 C22.576 15.088 21.09 15.175 19.604 15.263 C6.077 16.048 -7.457 16.584 -21 17 C-18.231 14.878 -15.621 13.193 -12.438 11.75 C-11.673 11.394 -10.909 11.038 -10.121 10.672 C-8 10 -8 10 -5 11 C-7.639 6.797 -10.364 3.434 -14 0 C-8.316 -3.132 -5.882 -3.507 0 0 Z " fill="#FFFFFF" transform="translate(214,198)"/>
<path d="M0 0 C4.449 4.205 8.146 8.841 11.875 13.688 C12.495 14.49 13.115 15.293 13.753 16.121 C27.269 33.704 33.444 49.533 38.312 71.125 C38.579 72.299 38.846 73.473 39.121 74.683 C39.366 75.801 39.611 76.919 39.863 78.07 C40.083 79.068 40.302 80.066 40.529 81.094 C41.018 84.113 41.082 86.948 41 90 C40.01 90 39.02 90 38 90 C37.598 88.767 37.196 87.533 36.782 86.262 C35.252 81.584 33.699 76.914 32.141 72.245 C31.475 70.243 30.816 68.238 30.163 66.232 C25.879 53.086 20.851 40.978 14.064 28.923 C12.557 26.201 11.18 23.419 9.812 20.625 C7.138 15.199 4.251 9.907 1.32 4.617 C0 2 0 2 0 0 Z " fill="#FFFFFF" transform="translate(86,256)"/>
<path d="M0 0 C0.66 0 1.32 0 2 0 C1.893 1.169 1.786 2.338 1.676 3.543 C1.554 5.091 1.433 6.639 1.312 8.188 C1.24 8.956 1.167 9.725 1.092 10.518 C0.744 15.281 0.918 18.081 4 22 C5.886 23.886 9.142 23.243 11.66 23.316 C12.657 23.348 12.657 23.348 13.674 23.379 C15.803 23.445 17.933 23.504 20.062 23.562 C21.503 23.606 22.944 23.649 24.385 23.693 C27.923 23.801 31.461 23.902 35 24 C34.522 23.236 34.044 22.471 33.551 21.684 C31.784 18.627 31.215 16.519 31 13 C31.938 9.625 31.938 9.625 33 7 C33.903 9.71 34.147 11.631 34.312 14.438 C34.648 17.657 34.893 18.848 36.812 21.562 C39.121 23.366 39.121 23.366 43 23 C45.341 17.146 46.083 12.058 43.938 6 C42.033 3.596 42.033 3.596 38.312 3.688 C37.219 3.791 36.126 3.894 35 4 C34.34 2.68 33.68 1.36 33 0 C38.28 0.33 43.56 0.66 49 1 C49 1.66 49 2.32 49 3 C49.99 2.67 50.98 2.34 52 2 C51.67 2.99 51.34 3.98 51 5 C48.938 5.688 48.938 5.688 47 6 C47.495 7.485 47.495 7.485 48 9 C48.562 14.673 48.308 19.157 45 24 C41.283 26.688 37.135 26.226 32.75 26.125 C32.005 26.116 31.26 26.107 30.492 26.098 C28.661 26.074 26.831 26.038 25 26 C25.012 26.797 25.023 27.593 25.035 28.414 C25.081 33.762 24.937 38.728 24 44 C23.617 50.398 24.429 56.206 25.863 62.426 C26.056 63.295 26.249 64.163 26.447 65.059 C27.06 67.812 27.686 70.562 28.312 73.312 C28.722 75.145 29.13 76.978 29.537 78.811 C31.391 87.113 33.276 95.394 35.496 103.608 C36.303 107.441 36.124 111.096 36 115 C36.33 115.99 36.66 116.98 37 118 C34.625 119.563 34.625 119.563 32 121 C31.01 120.505 31.01 120.505 30 120 C30.66 119.154 31.32 118.309 32 117.438 C34.835 112.565 34.381 108.869 33.272 103.427 C32.939 102.18 32.605 100.933 32.262 99.648 C31.892 98.234 31.522 96.82 31.154 95.405 C30.963 94.68 30.771 93.955 30.574 93.207 C29.072 87.433 27.715 81.621 26.335 75.816 C25.984 74.344 25.63 72.873 25.274 71.402 C20.157 50.281 20.157 50.281 21.938 39.25 C22.646 34.764 23.118 30.544 23 26 C21.759 26.046 20.517 26.093 19.238 26.141 C17.596 26.178 15.954 26.215 14.312 26.25 C13.496 26.284 12.679 26.317 11.838 26.352 C7.801 26.417 5.578 26.345 2.043 24.234 C-1.802 20.029 -2.314 17.003 -2.203 11.461 C-1.88 7.542 -1.005 3.794 0 0 Z M41 107 C43.667 109.49 45.557 111.634 47 115 C44.36 115.33 41.72 115.66 39 116 C39 112.62 39.875 110.165 41 107 Z " fill="#000000" transform="translate(98,235)"/>
<path d="M0 0 C1.501 12.021 1.501 12.021 -1.594 16.102 C-4.296 17.98 -7.086 19.466 -10 21 C-11.541 21.942 -13.074 22.896 -14.602 23.859 C-17.797 25.87 -20.994 27.877 -24.219 29.84 C-25.239 30.464 -25.239 30.464 -26.279 31.101 C-28 32 -28 32 -30 32 C-29.67 31.257 -29.34 30.515 -29 29.75 C-28.041 26.155 -27.897 23.456 -27.938 19.766 C-27.947 18.686 -27.956 17.606 -27.965 16.493 C-27.976 15.67 -27.988 14.848 -28 14 C-24.337 12.001 -20.67 10.007 -17.001 8.019 C-15.753 7.341 -14.506 6.662 -13.259 5.981 C-11.469 5.005 -9.676 4.033 -7.883 3.062 C-6.804 2.476 -5.725 1.889 -4.614 1.285 C-2 0 -2 0 0 0 Z " fill="#FFFFFF" transform="translate(173,227)"/>
<path d="M0 0 C0.33 0 0.66 0 1 0 C1.108 1.769 1.186 3.541 1.25 5.312 C1.296 6.299 1.343 7.285 1.391 8.301 C1 11 1 11 -0.578 12.73 C-7.04 16.118 -13.2 16.286 -20.312 16.188 C-21.218 16.187 -22.124 16.186 -23.057 16.186 C-29.718 16.141 -29.718 16.141 -32 15 C-32 12.03 -32 9.06 -32 6 C-33.98 5.01 -35.96 4.02 -38 3 C-35.715 2.238 -34.275 1.94 -31.898 2.461 C-28.02 3.182 -24.249 3.191 -20.312 3.188 C-19.116 3.187 -19.116 3.187 -17.895 3.187 C-8.316 3.515 -8.316 3.515 0 0 Z " fill="#FFFFFF" transform="translate(297,210)"/>
<path d="M0 0 C-1 2 -1 2 -2.999 2.85 C-3.872 3.13 -4.745 3.411 -5.645 3.699 C-6.623 4.018 -7.601 4.337 -8.608 4.666 C-9.666 5.003 -10.723 5.34 -11.812 5.688 C-14.002 6.398 -16.191 7.11 -18.379 7.824 C-19.485 8.184 -20.591 8.544 -21.731 8.916 C-27.442 10.81 -33.103 12.848 -38.753 14.917 C-39.52 15.192 -40.288 15.467 -41.078 15.75 C-41.742 15.992 -42.407 16.235 -43.091 16.484 C-45 17 -45 17 -49 17 C-49 16.01 -49 15.02 -49 14 C-47.415 12.577 -47.415 12.577 -45.195 11.109 C-44.39 10.567 -43.584 10.025 -42.754 9.466 C-40.988 8.313 -39.221 7.161 -37.455 6.009 C-32.921 3.034 -28.983 0.076 -25.062 -3.688 C-18.08 -8.852 -7.177 -2.832 0 0 Z " fill="#FFFFFF" transform="translate(148,480)"/>
<path d="M0 0 C1.129 0.933 2.253 1.871 3.375 2.812 C4.001 3.335 4.628 3.857 5.273 4.395 C7 6 7 6 9 9 C8.827 11.765 8.251 12.758 6.25 14.688 C0.56 18.007 -7.066 17.816 -13.391 16.504 C-16.536 15.503 -18.59 14.652 -20.375 11.812 C-19.865 7.99 -18.545 5.612 -16.16 2.602 C-12.538 -0.084 -8.95 0.465 -4.609 0.816 C-2.018 1.221 -2.018 1.221 0 0 Z " fill="#FFFFFF" transform="translate(89,489)"/>
<path d="M0 0 C2.97 0.33 5.94 0.66 9 1 C9.495 2.485 9.495 2.485 10 4 C10.928 4.309 11.856 4.619 12.812 4.938 C16.349 6.116 17.913 6.912 20 10 C20.125 13.5 20.125 13.5 19 17 C11.481 24.124 0.267 24.458 -9.535 24.219 C-15.248 23.858 -19.274 23.388 -23.875 19.688 C-25.886 17.144 -27.033 15.076 -28 12 C-27.01 12 -26.02 12 -25 12 C-24.165 13.145 -24.165 13.145 -23.312 14.312 C-19.342 18.927 -15.274 19.819 -9.426 20.285 C-2.278 20.449 3.586 20.27 10 17 C10.66 16.34 11.32 15.68 12 15 C12.073 12.445 12.073 12.445 11 10 C8.524 8.625 8.524 8.625 6 8 C5.907 8.623 5.814 9.245 5.719 9.887 C5 12 5 12 1.5 13.812 C-3.84 15.58 -9.152 15.321 -14.266 12.949 C-14.838 12.636 -15.41 12.323 -16 12 C-15.67 10.68 -15.34 9.36 -15 8 C-14.01 9.485 -14.01 9.485 -13 11 C-10.073 11.976 -8.053 12.165 -5 12.188 C-4.134 12.202 -3.267 12.216 -2.375 12.23 C0.267 12.163 0.267 12.163 3 10 C3 9.34 3 8.68 3 8 C0.69 7.01 -1.62 6.02 -4 5 C-3.67 4.01 -3.34 3.02 -3 2 C-2.01 2 -1.02 2 0 2 C0 1.34 0 0.68 0 0 Z " fill="#2F2F2F" transform="translate(145,130)"/>
<path d="M0 0 C3.165 2.65 5.436 5.162 7 9 C7.66 9 8.32 9 9 9 C10.564 10.693 12.053 12.456 13.5 14.25 C14.294 15.225 15.088 16.199 15.906 17.203 C17.587 19.449 18.881 21.447 20 24 C10.784 21.826 1.819 19.513 -7 16 C-7.712 10.929 -8.107 6.118 -8 1 C-4.908 -0.031 -3.211 -0.459 0 0 Z " fill="#FFFFFF" transform="translate(136,457)"/>
<path d="M0 0 C0.99 0.99 0.99 0.99 2 2 C-8.46 6.613 -19.194 10.298 -30 14 C-31.461 14.502 -32.922 15.003 -34.382 15.505 C-39.358 17.214 -44.335 18.92 -49.312 20.625 C-50.123 20.903 -50.933 21.18 -51.768 21.466 C-54.154 22.283 -56.54 23.099 -58.926 23.914 C-59.697 24.178 -60.468 24.441 -61.262 24.713 C-65.543 26.173 -69.832 27.607 -74.129 29.019 C-79.638 30.831 -85.037 32.766 -90.399 34.973 C-96.003 37.186 -101.734 39.06 -107.438 41 C-109.937 41.853 -112.435 42.707 -114.934 43.562 C-116.127 43.969 -117.321 44.375 -118.55 44.793 C-122.646 46.226 -126.687 47.785 -130.715 49.398 C-133.239 50.063 -134.568 49.862 -137 49 C-133.511 46.769 -130.18 45.224 -126.258 43.906 C-125.125 43.521 -123.993 43.137 -122.826 42.74 C-120.994 42.126 -120.994 42.126 -119.125 41.5 C-116.491 40.607 -113.859 39.71 -111.227 38.812 C-110.549 38.582 -109.871 38.351 -109.172 38.114 C-102.572 35.865 -96.002 33.535 -89.435 31.191 C-77.921 27.081 -66.384 23.043 -54.822 19.073 C-43.097 15.044 -31.392 10.961 -19.688 6.875 C-18.218 6.362 -18.218 6.362 -16.718 5.839 C-11.145 3.893 -5.572 1.947 0 0 Z " fill="#000000" transform="translate(241,466)"/>
<path d="M0 0 C0 0.66 0 1.32 0 2 C-6.249 4.752 -12.499 7.502 -18.75 10.25 C-19.68 10.659 -20.61 11.068 -21.568 11.489 C-34.342 17.103 -47.132 22.675 -59.979 28.118 C-61.98 28.968 -63.977 29.826 -65.97 30.693 C-68.163 31.639 -70.368 32.555 -72.581 33.454 C-74.347 34.202 -74.347 34.202 -76.148 34.965 C-77.223 35.407 -78.297 35.849 -79.404 36.304 C-82.236 37.818 -82.236 37.818 -83.288 40.915 C-83.852 43.697 -84.145 46.166 -84 49 C-83.67 49.33 -83.34 49.66 -83 50 C-82.959 52 -82.957 54 -83 56 C-83.99 56.33 -84.98 56.66 -86 57 C-85.67 55.35 -85.34 53.7 -85 52 C-89.351 50.504 -91.99 51.497 -96.035 53.211 C-100.727 55.095 -105.242 55.183 -110.25 55.188 C-110.976 55.2 -111.701 55.212 -112.449 55.225 C-117.613 55.238 -122.034 54.421 -127 53 C-127 52.34 -127 51.68 -127 51 C-126.01 51.165 -125.02 51.33 -124 51.5 C-112.115 52.935 -98.982 53.392 -88.375 47.062 C-85.966 45.228 -85.966 45.228 -85 43.062 C-85 40.369 -85.973 38.477 -87 36 C-87.125 33.187 -87.125 33.187 -87 31 C-86.34 31 -85.68 31 -85 31 C-85 32.65 -85 34.3 -85 36 C-81.769 34.628 -78.541 33.252 -75.312 31.875 C-74.42 31.496 -73.527 31.117 -72.607 30.727 C-67.586 28.582 -62.607 26.37 -57.656 24.066 C-50.891 20.925 -44.051 17.98 -37.188 15.062 C-34.731 14.015 -32.276 12.967 -29.82 11.918 C-28.65 11.418 -27.48 10.919 -26.274 10.404 C-20.836 8.072 -15.418 5.694 -10.004 3.305 C-2.395 0 -2.395 0 0 0 Z " fill="#000000" transform="translate(250,127)"/>
<path d="M0 0 C-2.456 2.828 -5.032 4.119 -8.438 5.625 C-9.385 6.05 -10.332 6.476 -11.309 6.914 C-15.665 8.672 -19.227 9.158 -23.938 9.188 C-24.957 9.202 -25.977 9.216 -27.027 9.23 C-30.072 8.994 -32.247 8.283 -35 7 C-34.518 2.659 -33.388 0.747 -30 -2 C-21.762 -8.178 -9.029 -2.401 0 0 Z " fill="#FFFFFF" transform="translate(143,222)"/>
<path d="M0 0 C0.33 0.99 0.66 1.98 1 3 C1.969 3.124 2.939 3.248 3.938 3.375 C5.453 3.684 5.453 3.684 7 4 C8.244 6.488 8.133 8.227 8.125 11 C8.129 12.33 8.129 12.33 8.133 13.688 C8 16 8 16 7 18 C3.108 19.297 0.106 19.13 -4 19 C-4.66 18.67 -5.32 18.34 -6 18 C-6 19.65 -6 21.3 -6 23 C-7.65 23 -9.3 23 -11 23 C-10.567 21.793 -10.567 21.793 -10.125 20.562 C-9.96 15.867 -11.707 13.911 -14.457 10.246 C-16.062 7.91 -17.042 5.659 -18 3 C-14.302 4.233 -14.065 5.201 -12.312 8.562 C-11.876 9.389 -11.439 10.215 -10.988 11.066 C-10.662 11.704 -10.336 12.343 -10 13 C-9.67 12.01 -9.34 11.02 -9 10 C-8.333 8 -7.667 6 -7 4 C-5.02 3.67 -3.04 3.34 -1 3 C-0.67 2.01 -0.34 1.02 0 0 Z " fill="#0C0C0C" transform="translate(83,313)"/>
<path d="M0 0 C0.878 0.325 0.878 0.325 1.773 0.656 C14.093 4.652 27.838 4.5 40 0 C40.188 2.363 40.188 2.363 40 5 C37 7.188 37 7.188 34 9 C34 9.66 34 10.32 34 11 C23.466 13.026 11.801 13.473 2.062 8.5 C0 7 0 7 -1 5 C-0.721 3.323 -0.392 1.654 0 0 Z " fill="#FFFFFF" transform="translate(257,193)"/>
<path d="M0 0 C2.75 0.812 2.75 0.812 5 2 C5.823 6.884 6.071 11.14 5 16 C1.679 19.794 -2.016 22.346 -6.298 24.96 C-8.697 26.426 -10.995 28.033 -13.312 29.625 C-14.538 30.422 -15.766 31.216 -17 32 C-17.66 31.67 -18.32 31.34 -19 31 C-18.395 30.287 -17.79 29.573 -17.166 28.838 C-15.102 26.134 -13.738 23.675 -12.344 20.586 C-11.878 19.578 -11.413 18.57 -10.934 17.531 C-9.975 15.421 -9.019 13.309 -8.066 11.195 C-7.601 10.19 -7.136 9.184 -6.656 8.148 C-6.242 7.232 -5.827 6.316 -5.4 5.373 C-3.875 2.788 -2.61 1.467 0 0 Z " fill="#FFFFFF" transform="translate(122,457)"/>
<path d="M0 0 C0 1.65 0 3.3 0 5 C7.491 7.315 13.464 6.986 21 5 C21 3.35 21 1.7 21 0 C26.75 1.625 26.75 1.625 29 5 C29 6.938 29 6.938 28 9 C20.285 15.001 12.396 14.553 3 14 C-1.029 13.194 -4.002 11.88 -7.125 9.125 C-8 7 -8 7 -7.438 4.375 C-5.533 1.229 -3.705 0 0 0 Z " fill="#FFFFFF" transform="translate(129,137)"/>
<path d="M0 0 C3.834 0.14 7.667 0.288 11.5 0.438 C12.578 0.477 13.655 0.516 14.766 0.557 C20.567 0.787 26.253 1.17 32 2 C31 5 31 5 28.305 6.605 C27.173 7.128 26.041 7.65 24.875 8.188 C23.759 8.717 22.642 9.247 21.492 9.793 C17.755 11.085 14.923 11.167 11 11 C10.216 11.206 9.433 11.412 8.625 11.625 C4.573 12.204 0.918 11.033 -3 10 C-2.34 9.01 -1.68 8.02 -1 7 C-0.606 4.676 -0.265 2.342 0 0 Z " fill="#FFFFFF" transform="translate(160,199)"/>
<path d="M0 0 C2.062 0.438 2.062 0.438 4 1 C4 1.33 4 1.66 4 2 C4.99 2.33 5.98 2.66 7 3 C10 8.222 10 8.222 10 11 C9.34 11.66 8.68 12.32 8 13 C8.66 13 9.32 13 10 13 C8.918 16.571 7.446 18.649 4.875 21.25 C2.224 24.164 1.6 25.997 1.625 29.938 C1.72 31.294 1.835 32.65 2 34 C0 33 0 33 -0.852 30.551 C-3.113 21.084 -5.418 10.134 -1 1 C-0.67 0.67 -0.34 0.34 0 0 Z " fill="#171717" transform="translate(137,268)"/>
<path d="M0 0 C2.025 0.09 2.025 0.09 4 -0.562 C6 -1 6 -1 8 0 C8.625 2.562 8.625 2.562 9 5 C10.65 3.02 12.3 1.04 14 -1 C14.66 -0.67 15.32 -0.34 16 0 C15.67 1.98 15.34 3.96 15 6 C15.66 6 16.32 6 17 6 C17 6.66 17 7.32 17 8 C16.34 8 15.68 8 15 8 C15 8.99 15 9.98 15 11 C14.34 11 13.68 11 13 11 C13 10.01 13 9.02 13 8 C12.278 8.309 11.556 8.619 10.812 8.938 C8.16 9.939 5.818 10.695 3 11 C2.34 10.34 1.68 9.68 1 9 C0.01 9.66 -0.98 10.32 -2 11 C-4.688 10.625 -4.688 10.625 -7 10 C-7 6.7 -7 3.4 -7 0 C-4.321 -1.339 -2.864 -0.644 0 0 Z " fill="#333333" transform="translate(322,610)"/>
<path d="M0 0 C0.583 0.205 1.165 0.41 1.766 0.621 C13.412 4.448 24.304 4.899 36 1 C36.125 3.875 36.125 3.875 36 7 C32.878 10.122 29.205 9.809 24.938 10.25 C24.116 10.353 23.294 10.456 22.447 10.562 C15.132 11.345 9.023 10.538 2.438 7.188 C0 5 0 5 -0.152 2.363 C-0.102 1.583 -0.052 0.804 0 0 Z " fill="#FFFFFF" transform="translate(122,198)"/>
<path d="M0 0 C0 0.66 0 1.32 0 2 C-9.937 5.184 -19.952 7.873 -30.062 10.438 C-31.617 10.834 -33.171 11.23 -34.726 11.627 C-37.769 12.403 -40.813 13.177 -43.858 13.949 C-47.4 14.847 -50.941 15.753 -54.48 16.66 C-56.237 17.107 -57.993 17.554 -59.75 18 C-60.889 18.293 -60.889 18.293 -62.051 18.592 C-69.281 20.41 -76.144 21.165 -83.562 21.125 C-84.291 21.129 -85.02 21.133 -85.771 21.137 C-89.957 21.129 -93.878 20.821 -98 20 C-98 19.34 -98 18.68 -98 18 C-97.029 18.039 -97.029 18.039 -96.038 18.079 C-92.963 18.186 -89.889 18.249 -86.812 18.312 C-85.796 18.354 -84.78 18.396 -83.732 18.439 C-72.709 18.607 -62.592 15.777 -52 13 C-50.019 12.492 -48.038 11.985 -46.057 11.48 C-41.009 10.187 -35.967 8.873 -30.927 7.551 C-27.815 6.734 -24.703 5.922 -21.59 5.109 C-19.599 4.589 -17.608 4.068 -15.617 3.547 C-14.692 3.305 -13.768 3.064 -12.815 2.815 C-11.962 2.591 -11.109 2.367 -10.23 2.136 C-9.483 1.94 -8.736 1.744 -7.966 1.542 C-2.374 0 -2.374 0 0 0 Z " fill="#000000" transform="translate(239,104)"/>
<path d="M0 0 C0 3 0 3 -1.438 5.375 C-3.003 8.005 -3.571 9.998 -4 13 C-3.34 13 -2.68 13 -2 13 C-1.938 12.423 -1.876 11.845 -1.812 11.25 C-0.666 8.076 1.26 6.872 4 5 C4.66 5 5.32 5 6 5 C6 5.66 6 6.32 6 7 C5.103 7.278 5.103 7.278 4.188 7.562 C0.9 9.723 0.351 12.351 -1 16 C11.694 18.806 21.632 15.848 33 10 C27.649 8.5 22.325 7.035 16.875 5.938 C15.596 5.628 14.317 5.319 13 5 C12.67 4.34 12.34 3.68 12 3 C18.312 3.631 24.361 4.927 30.535 6.379 C34.097 7.017 37.389 7.106 41 7 C41 7.66 41 8.32 41 9 C37.586 10.652 34.169 12.295 30.75 13.938 C29.782 14.406 28.814 14.875 27.816 15.357 C26.882 15.805 25.947 16.253 24.984 16.715 C24.126 17.129 23.267 17.542 22.382 17.969 C16.043 20.714 8.462 21.131 1.766 19.434 C-1.287 18.188 -4.222 16.824 -6 14 C-6.873 8.513 -4.955 5.433 -2 1 C-1.34 0.67 -0.68 0.34 0 0 Z " fill="#000000" transform="translate(109,213)"/>
<path d="M0 0 C0.784 0.041 1.567 0.082 2.375 0.125 C3.328 4.888 3.458 9.292 3.375 14.125 C-2.131 17.621 -6.033 19.826 -12.625 19.125 C-11.059 13.331 -6.918 0.329 0 0 Z " fill="#FFFFFF" transform="translate(106.625,451.875)"/>
<path d="M0 0 C8.47 0.748 16.734 2.413 25.062 4.062 C26.515 4.347 27.967 4.632 29.42 4.916 C32.947 5.607 36.474 6.302 40 7 C40 7.33 40 7.66 40 8 C38.697 8.545 37.382 9.06 36.062 9.562 C35.332 9.853 34.601 10.143 33.848 10.441 C26.982 11.788 19.459 9.687 12.688 8.312 C11.903 8.177 11.119 8.041 10.311 7.9 C6.246 7.061 3.828 6.399 1.457 2.855 C0.976 1.913 0.495 0.971 0 0 Z " fill="#FFFFFF" transform="translate(116,210)"/>
<path d="M0 0 C0.531 0.655 1.062 1.31 1.609 1.984 C4.683 4.576 6.293 4.422 10.25 4.25 C11.328 4.214 12.405 4.178 13.516 4.141 C14.335 4.094 15.155 4.048 16 4 C16 2.68 16 1.36 16 0 C22.75 1.625 22.75 1.625 25 5 C19.133 9.955 11.625 10.31 4.188 9.812 C-0.154 9.302 -3.299 8.301 -7 6 C-6.875 4.125 -6.875 4.125 -6 2 C-2.938 0.75 -2.938 0.75 0 0 Z " fill="#FFFFFF" transform="translate(268,183)"/>
<path d="M0 0 C0.66 0 1.32 0 2 0 C-0.074 8.19 -2.721 16.071 -5.625 24 C-9.668 35.161 -13.513 46.367 -17.219 57.645 C-17.571 58.713 -17.923 59.782 -18.285 60.883 C-18.593 61.825 -18.901 62.768 -19.219 63.739 C-20 66 -20 66 -21 68 C-21.66 68 -22.32 68 -23 68 C-21.346 59.17 -18.325 50.834 -15.375 42.375 C-14.834 40.815 -14.294 39.254 -13.755 37.694 C-12.679 34.587 -11.601 31.48 -10.52 28.375 C-9.159 24.462 -7.81 20.544 -6.465 16.625 C-5.748 14.542 -5.03 12.458 -4.312 10.375 C-3.986 9.423 -3.66 8.471 -3.324 7.49 C-3.027 6.635 -2.731 5.779 -2.426 4.898 C-2.172 4.163 -1.919 3.427 -1.657 2.669 C-1 1 -1 1 0 0 Z " fill="#000000" transform="translate(116,388)"/>
<path d="M0 0 C1 2 1 2 0.109 5.152 C-0.336 6.417 -0.789 7.679 -1.25 8.938 C-1.468 9.571 -1.686 10.205 -1.91 10.857 C-3.114 14.205 -4.183 16.754 -7 19 C-9.503 16.062 -10.469 13.821 -11 10 C-11.66 10 -12.32 10 -13 10 C-13 7.36 -13 4.72 -13 2 C-12.051 1.856 -11.103 1.711 -10.125 1.562 C-1.26 -0.033 -1.26 -0.033 0 0 Z " fill="#FFFFFF" transform="translate(101,472)"/>
<path d="M0 0 C0.557 0.289 1.114 0.577 1.688 0.875 C9.59 4.72 16.713 5.143 25.375 5.062 C26.765 5.056 26.765 5.056 28.184 5.049 C30.456 5.037 32.728 5.021 35 5 C35 5.66 35 6.32 35 7 C24.3 9.007 14.3 8.531 4 5 C8.669 8.113 13.336 8.127 18.836 8.098 C20.431 8.093 20.431 8.093 22.059 8.088 C23.153 8.08 24.247 8.071 25.375 8.062 C26.493 8.058 27.61 8.053 28.762 8.049 C31.508 8.037 34.254 8.021 37 8 C37 8.66 37 9.32 37 10 C32.524 11.492 28.127 11.225 23.438 11.25 C22.486 11.271 21.534 11.291 20.553 11.312 C13.998 11.348 8.076 10.585 2 8 C-0.366 5.634 -0.582 4.257 -1 1 C-0.67 0.67 -0.34 0.34 0 0 Z " fill="#000000" transform="translate(255,199)"/>
<path d="M0 0 C-3.3 1.65 -6.6 3.3 -10 5 C-9.34 5.66 -8.68 6.32 -8 7 C-9.812 7.625 -9.812 7.625 -12 8 C-12.99 7.34 -13.98 6.68 -15 6 C-15.071 6.776 -15.142 7.552 -15.215 8.352 C-16 11 -16 11 -18.004 12.398 C-23.901 14.649 -27.809 15.376 -34 14 C-34.043 14.766 -34.085 15.531 -34.129 16.32 C-35 19 -35 19 -37.652 20.617 C-38.736 21.032 -39.821 21.447 -40.938 21.875 C-42.019 22.306 -43.101 22.736 -44.215 23.18 C-47 24 -47 24 -49 23 C-45.375 19.828 -41.488 18.571 -37 17 C-37.603 17.205 -38.207 17.41 -38.828 17.621 C-39.627 17.891 -40.427 18.16 -41.25 18.438 C-42.039 18.704 -42.828 18.971 -43.641 19.246 C-45.748 19.92 -47.848 20.492 -50 21 C-47.932 17.898 -47.409 17.486 -44.156 16.176 C-43.029 15.717 -43.029 15.717 -41.879 15.248 C-40.701 14.785 -40.701 14.785 -39.5 14.312 C-38.715 13.992 -37.93 13.672 -37.121 13.342 C-31.299 11 -31.299 11 -29 11 C-28.67 11.66 -28.34 12.32 -28 13 C-25.03 11.68 -22.06 10.36 -19 9 C-20.65 9.33 -22.3 9.66 -24 10 C-20.622 6.274 -16.533 4.746 -12 2.75 C-11.18 2.374 -10.36 1.997 -9.516 1.609 C-8.727 1.259 -7.938 0.908 -7.125 0.547 C-6.406 0.226 -5.686 -0.096 -4.945 -0.427 C-3 -1 -3 -1 0 0 Z " fill="#010101" transform="translate(244,112)"/>
<path d="M0 0 C0.33 0.99 0.66 1.98 1 3 C2.454 3.186 2.454 3.186 3.938 3.375 C5.453 3.684 5.453 3.684 7 4 C8.244 6.488 8.133 8.227 8.125 11 C8.128 11.887 8.13 12.774 8.133 13.688 C8 16 8 16 7 18 C5.68 17.67 4.36 17.34 3 17 C3.33 15.02 3.66 13.04 4 11 C3.278 11.206 2.556 11.413 1.812 11.625 C-1.57 12.076 -3.121 11.839 -6 10 C-6.812 6.875 -6.812 6.875 -7 4 C-5.02 3.67 -3.04 3.34 -1 3 C-0.67 2.01 -0.34 1.02 0 0 Z " fill="#464646" transform="translate(83,313)"/>
<path d="M0 0 C-1.165 3.494 -1.76 3.741 -4.824 5.523 C-5.606 5.988 -6.388 6.452 -7.193 6.93 C-8.016 7.407 -8.839 7.884 -9.688 8.375 C-15.18 11.581 -20.238 14.768 -25 19 C-24.59 19.436 -24.18 19.871 -23.758 20.32 C-19.344 25.199 -16.89 28.803 -17.125 35.625 C-18.075 39.288 -19.096 40.658 -22 43 C-22.66 42.67 -23.32 42.34 -24 42 C-23.361 41.216 -22.721 40.433 -22.062 39.625 C-20.019 37.205 -20.019 37.205 -19 35 C-20.98 35.495 -20.98 35.495 -23 36 C-22.34 35.01 -21.68 34.02 -21 33 C-20.34 33 -19.68 33 -19 33 C-19.565 31.68 -20.153 30.369 -20.75 29.062 C-21.075 28.332 -21.4 27.601 -21.734 26.848 C-22.862 24.812 -22.862 24.812 -25.141 24.246 C-25.754 24.165 -26.368 24.084 -27 24 C-26.67 23.67 -26.34 23.34 -26 23 C-26.99 22.67 -27.98 22.34 -29 22 C-26.783 13.626 -17.624 9.286 -10.688 5.125 C-9.877 4.627 -9.067 4.13 -8.232 3.617 C-2.265 0 -2.265 0 0 0 Z " fill="#000000" transform="translate(166,246)"/>
<path d="M0 0 C0.66 0 1.32 0 2 0 C-0.122 8.398 -2.851 16.49 -5.812 24.625 C-6.702 27.091 -7.591 29.557 -8.48 32.023 C-9.125 33.806 -9.125 33.806 -9.783 35.624 C-11.418 40.159 -13.026 44.703 -14.625 49.25 C-14.996 50.303 -14.996 50.303 -15.374 51.377 C-15.917 52.918 -16.458 54.459 -17 56 C-17.66 56 -18.32 56 -19 56 C-18.315 50.265 -16.427 45.096 -14.5 39.688 C-14.151 38.697 -13.802 37.707 -13.443 36.687 C-12.302 33.455 -11.152 30.227 -10 27 C-9.59 25.85 -9.18 24.7 -8.758 23.516 C-7.53 20.072 -6.297 16.629 -5.062 13.188 C-4.673 12.102 -4.284 11.017 -3.883 9.899 C-3.521 8.895 -3.158 7.89 -2.785 6.855 C-2.464 5.965 -2.143 5.074 -1.813 4.157 C-1 2 -1 2 0 0 Z " fill="#000000" transform="translate(131,391)"/>
<path d="M0 0 C0 0.66 0 1.32 0 2 C-7.424 2.787 -14.848 3.57 -22.272 4.347 C-25.72 4.708 -29.169 5.07 -32.616 5.437 C-36.587 5.858 -40.559 6.273 -44.531 6.688 C-45.759 6.819 -46.986 6.95 -48.251 7.085 C-54.203 7.701 -60.015 8.155 -66 8 C-65.67 7.34 -65.34 6.68 -65 6 C-63.207 5.576 -63.207 5.576 -60.838 5.33 C-59.51 5.185 -59.51 5.185 -58.155 5.037 C-57.189 4.941 -56.222 4.845 -55.227 4.746 C-53.736 4.587 -53.736 4.587 -52.216 4.426 C-49.02 4.087 -45.822 3.762 -42.625 3.438 C-40.506 3.215 -38.388 2.992 -36.27 2.768 C-28.549 1.956 -20.828 1.163 -13.099 0.434 C-11.8 0.311 -11.8 0.311 -10.474 0.185 C-6.97 -0.077 -3.512 -0.066 0 0 Z " fill="#000000" transform="translate(255,224)"/>
<path d="M0 0 C1.812 2.062 1.812 2.062 3 4 C0.968 5.04 -1.076 6.056 -3.125 7.062 C-4.83 7.915 -4.83 7.915 -6.57 8.785 C-11.982 10.702 -15.906 9.247 -21 7 C-17.955 4.97 -14.921 3.4 -11.625 1.812 C-10.504 1.262 -9.382 0.712 -8.227 0.145 C-4.792 -1.074 -3.351 -1.365 0 0 Z " fill="#FFFFFF" transform="translate(201,204)"/>
<path d="M0 0 C1.562 1.25 1.562 1.25 3 3 C2.875 5 2.875 5 2 7 C1.488 7.405 0.976 7.81 0.449 8.227 C-1.701 10.858 -1.158 13.037 -1.062 16.375 C-1.219 19.879 -1.219 19.879 -2 23 C-5.035 25.614 -8.183 26.871 -12 28 C-12.66 27.34 -13.32 26.68 -14 26 C-10.7 24.35 -7.4 22.7 -4 21 C-4 17.7 -4 14.4 -4 11 C-4.701 11.309 -5.403 11.619 -6.125 11.938 C-12.028 14.119 -17.853 14.156 -24.062 14.125 C-24.852 14.129 -25.642 14.133 -26.455 14.137 C-30.436 14.13 -34.115 13.985 -38 13 C-38 12.34 -38 11.68 -38 11 C-37.366 11.016 -36.732 11.031 -36.079 11.048 C-17.279 12.137 -17.279 12.137 0 6 C0.25 2.916 0.25 2.916 0 0 Z " fill="#000000" transform="translate(301,200)"/>
<path d="M0 0 C0 1.32 0 2.64 0 4 C-1.541 4.762 -1.541 4.762 -3.113 5.539 C-4.513 6.234 -5.913 6.929 -7.312 7.625 C-8.399 8.164 -8.399 8.164 -9.508 8.715 C-14.757 11.335 -19.888 14.116 -24.961 17.066 C-25.97 17.529 -25.97 17.529 -27 18 C-27.66 17.67 -28.32 17.34 -29 17 C-27.591 13.493 -26.207 12.225 -22.859 10.527 C-22.036 10.103 -21.212 9.678 -20.363 9.24 C-19.07 8.595 -19.07 8.595 -17.75 7.938 C-16.903 7.504 -16.056 7.07 -15.184 6.623 C-13.538 5.782 -11.889 4.948 -10.236 4.121 C-8.321 3.161 -6.417 2.178 -4.516 1.191 C-2 0 -2 0 0 0 Z " fill="#292929" transform="translate(334,176)"/>
<path d="M0 0 C0.846 0.495 1.691 0.99 2.562 1.5 C0.812 5.375 0.812 5.375 -1.438 6.5 C-7.117 7.023 -11.795 7.214 -16.438 3.5 C-15.438 0.5 -15.438 0.5 -13.312 -0.688 C-8.361 -2.087 -4.739 -2.068 0 0 Z " fill="#FFFFFF" transform="translate(146.4375,136.5)"/>
<path d="M0 0 C0.186 0.598 0.371 1.196 0.562 1.812 C3.243 5.892 8.383 7.042 13 8 C16.538 8.246 20.079 8.231 23.625 8.25 C24.572 8.271 25.52 8.291 26.496 8.312 C33.149 8.349 38.749 7.264 45 5 C45 3.35 45 1.7 45 0 C45.66 0 46.32 0 47 0 C47.495 2.475 47.495 2.475 48 5 C36.692 12.218 23.331 12.442 10.309 10.43 C5.457 9.299 1.871 8.214 -2 5 C-1.125 1.125 -1.125 1.125 0 0 Z " fill="#FFFFFF" transform="translate(254,201)"/>
<path d="M0 0 C0.33 1.65 0.66 3.3 1 5 C2.65 3.02 4.3 1.04 6 -1 C6.66 -0.67 7.32 -0.34 8 0 C7.67 1.98 7.34 3.96 7 6 C7.66 6 8.32 6 9 6 C9 6.66 9 7.32 9 8 C8.34 8 7.68 8 7 8 C7 8.99 7 9.98 7 11 C6.34 11 5.68 11 5 11 C5 10.01 5 9.02 5 8 C4.278 8.309 3.556 8.619 2.812 8.938 C0.197 9.926 -2.251 10.529 -5 11 C-5.66 9.68 -6.32 8.36 -7 7 C-6.34 7 -5.68 7 -5 7 C-5 7.66 -5 8.32 -5 9 C-4.01 8.34 -3.02 7.68 -2 7 C-2.66 6.67 -3.32 6.34 -4 6 C-3.34 4.35 -2.68 2.7 -2 1 C-3.65 1.66 -5.3 2.32 -7 3 C-6.67 2.01 -6.34 1.02 -6 0 C-3.509 -1.245 -2.589 -0.777 0 0 Z " fill="#050505" transform="translate(330,610)"/>
<path d="M0 0 C1.74 0.015 3.481 -0.029 5.219 -0.121 C6.727 -0.194 6.727 -0.194 8.266 -0.268 C9.333 -0.324 10.4 -0.38 11.5 -0.438 C23.01 -0.977 34.479 -1.109 46 -1 C46 -0.67 46 -0.34 46 0 C38.651 0.647 31.3 1.269 23.948 1.874 C21.446 2.083 18.944 2.297 16.443 2.517 C12.852 2.833 9.261 3.127 5.668 3.418 C4.546 3.521 3.424 3.624 2.268 3.73 C1.227 3.81 0.186 3.891 -0.886 3.973 C-2.262 4.09 -2.262 4.09 -3.665 4.209 C-6 4 -6 4 -7.82 2.502 C-8.209 2.006 -8.599 1.511 -9 1 C-5.533 -1.183 -3.903 -0.802 0 0 Z " fill="#FFFFFF" transform="translate(189,216)"/>
<path d="M0 0 C0.66 0.33 1.32 0.66 2 1 C2 3.31 2 5.62 2 8 C2.701 8.182 3.403 8.364 4.125 8.551 C9.897 10.08 15.449 11.801 21 14 C19.438 14.707 19.438 14.707 17 15 C15.317 14.214 13.636 13.424 11.973 12.598 C8.297 10.901 5.094 9.739 1 10 C-6.512 13.148 -12.88 18.722 -19 24 C-19.66 23.67 -20.32 23.34 -21 23 C-19.545 21.808 -18.086 20.622 -16.625 19.438 C-15.721 18.704 -14.818 17.971 -13.887 17.215 C-11.155 15.119 -8.355 13.323 -5.438 11.5 C-2.051 9.244 -2.051 9.244 -0.152 5.785 C0.212 3.346 0.212 3.346 0 0 Z " fill="#000000" transform="translate(127,465)"/>
<path d="M0 0 C0.66 0 1.32 0 2 0 C6.45 17.303 6.45 17.303 6 26 C6.33 26.99 6.66 27.98 7 29 C4.625 30.562 4.625 30.562 2 32 C1.34 31.67 0.68 31.34 0 31 C0.66 30.154 1.32 29.309 2 28.438 C5.25 22.851 4.143 17.779 2.578 11.795 C2.387 11.099 2.197 10.404 2 9.688 C0 2.194 0 2.194 0 0 Z M11 18 C13.667 20.49 15.557 22.634 17 26 C14.36 26.33 11.72 26.66 9 27 C9 23.62 9.875 21.165 11 18 Z " fill="#000000" transform="translate(128,324)"/>
<path d="M0 0 C1.775 0.433 1.775 0.433 3.586 0.875 C15.725 3.763 25.016 5.132 37.238 1.754 C39.814 1.051 42.377 0.492 45 0 C39.833 5.71 32.078 6.725 24.691 7.125 C16.386 7.332 8.201 6.431 1 2 C0.67 1.34 0.34 0.68 0 0 Z " fill="#FFFFFF" transform="translate(117,151)"/>
<path d="M0 0 C5.28 0.33 10.56 0.66 16 1 C16 1.66 16 2.32 16 3 C16.99 2.67 17.98 2.34 19 2 C18.67 2.99 18.34 3.98 18 5 C15.938 5.688 15.938 5.688 14 6 C14.33 6.99 14.66 7.98 15 9 C15.092 10.519 15.13 12.041 15.125 13.562 C15.128 14.348 15.13 15.133 15.133 15.941 C15 18 15 18 14 20 C13.34 20 12.68 20 12 20 C12.035 19.264 12.07 18.528 12.105 17.77 C12.224 13.503 12.296 9.887 10.938 5.812 C8.99 3.616 8.99 3.616 5.312 3.688 C4.219 3.791 3.126 3.894 2 4 C1.34 2.68 0.68 1.36 0 0 Z " fill="#0B0B0B" transform="translate(131,235)"/>
<path d="M0 0 C4.05 1.505 5.525 3.887 7.75 7.5 C8.364 8.48 8.977 9.459 9.609 10.469 C11 13 11 13 11 15 C7.812 15 7.812 15 4 14 C0.971 10.791 -0.817 7.437 -1.375 3.062 C-1 1 -1 1 0 0 Z " fill="#131313" transform="translate(104,119)"/>
<path d="M0 0 C0 0.66 0 1.32 0 2 C-3.478 3.273 -6.958 4.543 -10.438 5.812 C-11.411 6.169 -12.385 6.525 -13.389 6.893 C-15.328 7.599 -17.268 8.301 -19.21 8.999 C-21.008 9.644 -22.801 10.299 -24.59 10.966 C-25.376 11.249 -26.163 11.533 -26.973 11.824 C-27.657 12.076 -28.342 12.329 -29.047 12.589 C-31.342 13.072 -32.793 12.724 -35 12 C-32.077 9.077 -28.419 8.35 -24.562 7.125 C-22.925 6.595 -21.289 6.064 -19.652 5.531 C-18.457 5.143 -18.457 5.143 -17.238 4.746 C-13.503 3.501 -9.831 2.096 -6.164 0.664 C-4 0 -4 0 0 0 Z " fill="#000000" transform="translate(141,484)"/>
<path d="M0 0 C-1 3 -1 3 -4.5 4.867 C-5.996 5.546 -7.496 6.215 -9 6.875 C-10.561 7.579 -12.121 8.286 -13.68 8.996 C-14.805 9.508 -14.805 9.508 -15.952 10.031 C-18.427 11.202 -20.776 12.534 -23.125 13.938 C-26.786 16.064 -29.785 16.731 -34 17 C-32.609 14.219 -30.954 13.851 -28.152 12.539 C-27.154 12.067 -26.156 11.595 -25.127 11.109 C-23.548 10.375 -23.548 10.375 -21.938 9.625 C-19.884 8.659 -17.83 7.693 -15.777 6.727 C-14.792 6.265 -13.807 5.804 -12.792 5.329 C-10.298 4.142 -7.836 2.909 -5.379 1.648 C-2 0 -2 0 0 0 Z " fill="#000000" transform="translate(321,163)"/>
<path d="M0 0 C4.586 1.448 4.586 1.448 6.312 3.75 C7.175 6.571 7.133 9.068 7 12 C5.68 12.33 4.36 12.66 3 13 C0.067 9.976 -0.956 8.525 -1.312 4.25 C-1 1 -1 1 0 0 Z " fill="#FFFFFF" transform="translate(100,348)"/>
<path d="M0 0 C1.812 0.062 1.812 0.062 4 1 C8.052 5.819 8.052 5.819 7.875 9.812 C7 12 7 12 5 13 C1.636 10.154 0.142 8.608 -0.875 4.25 C-0.916 3.178 -0.957 2.105 -1 1 C-0.67 0.67 -0.34 0.34 0 0 Z " fill="#FFFFFF" transform="translate(28,322)"/>
<path d="M0 0 C2.312 0.188 2.312 0.188 5 1 C7.684 4.332 8.363 6.762 8 11 C6.35 11.33 4.7 11.66 3 12 C-1.062 5.723 -1.062 5.723 -0.75 2.062 C-0.502 1.382 -0.255 0.701 0 0 Z " fill="#FFFFFF" transform="translate(62,258)"/>
<path d="M0 0 C3 1 3 1 4.188 3.375 C6.776 7.124 9.699 8.101 14 9 C18.998 9.521 23.979 9.81 29 10 C28.67 10.66 28.34 11.32 28 12 C8.886 12.532 8.886 12.532 2.5 7.625 C-0.891 4.065 -0.891 4.065 -1 1 C-0.67 0.67 -0.34 0.34 0 0 Z " fill="#000000" transform="translate(118,141)"/>
<path d="M0 0 C2.97 0.495 2.97 0.495 6 1 C6 4.96 6 8.92 6 13 C1.569 11.792 -0.981 10.483 -4 7 C-3.67 6.01 -3.34 5.02 -3 4 C-2.01 4.33 -1.02 4.66 0 5 C0 3.35 0 1.7 0 0 Z " fill="#FFFFFF" transform="translate(77,331)"/>
<path d="M0 0 C3 5.222 3 5.222 3 8 C0.353 9.461 -0.894 10 -4 10 C-6.5 6.667 -7 5.267 -7 1 C-3.375 -1.125 -3.375 -1.125 0 0 Z " fill="#FFFFFF" transform="translate(144,271)"/>
<path d="M0 0 C1.65 0 3.3 0 5 0 C6.765 3.088 7 4.233 7 8 C6.01 8.33 5.02 8.66 4 9 C4 9.99 4 10.98 4 12 C2.68 12 1.36 12 0 12 C-1.753 9.319 -2.013 8.131 -1.688 4.875 C-1 2 -1 2 0 0 Z " fill="#111111" transform="translate(135,242)"/>
<path d="M0 0 C0 0.66 0 1.32 0 2 C-4.211 4.167 -8.429 6.321 -12.653 8.464 C-14.089 9.194 -15.524 9.929 -16.956 10.667 C-19.014 11.726 -21.079 12.772 -23.145 13.816 C-23.785 14.15 -24.426 14.483 -25.086 14.826 C-26.688 15.628 -28.342 16.323 -30 17 C-30.99 16.67 -31.98 16.34 -33 16 C-26.617 11.814 -20.021 8.448 -13.125 5.188 C-12.081 4.685 -11.037 4.183 -9.961 3.666 C-2.26 0 -2.26 0 0 0 Z " fill="#000000" transform="translate(340,181)"/>
<path d="M0 0 C0.66 1.32 1.32 2.64 2 4 C1.29 4.471 0.579 4.941 -0.152 5.426 C-1.071 6.048 -1.991 6.671 -2.938 7.312 C-4.312 8.235 -4.312 8.235 -5.715 9.176 C-8.258 10.866 -8.258 10.866 -9 14 C-9.66 14 -10.32 14 -11 14 C-10.585 8.714 -9.717 5.826 -6 2 C-3 0 -3 0 0 0 Z " fill="#FFFFFF" transform="translate(116,212)"/>
<path d="M0 0 C2 1.188 2 1.188 4 3 C4.25 5.688 4.25 5.688 4 8 C3.01 8.495 3.01 8.495 2 9 C2 10.32 2 11.64 2 13 C-0.438 12.625 -0.438 12.625 -3 12 C-4.42 9.159 -4.315 7.145 -4 4 C-2 1.625 -2 1.625 0 0 Z " fill="#2C2C2C" transform="translate(156,349)"/>
<path d="M0 0 C3.433 0.49 4.49 1.706 6.625 4.375 C7.783 7.848 7.694 10.736 7.625 14.375 C5.975 15.035 4.325 15.695 2.625 16.375 C-3.168 12.107 -3.168 12.107 -4.375 8.375 C-4.625 5.25 -4.625 5.25 -4.375 2.375 C-2.375 0.375 -2.375 0.375 0 0 Z M-1.375 1.375 C-2.737 2.525 -2.737 2.525 -2.688 5.625 C-2.331 9.9 -1.308 11.351 1.625 14.375 C2.945 14.045 4.265 13.715 5.625 13.375 C5.902 8.031 5.902 8.031 3.625 3.375 C1.087 2.092 1.087 2.092 -1.375 1.375 Z " fill="#000000" transform="translate(101.375,346.625)"/>
<path d="M0 0 C3.468 1.249 3.867 1.722 5.562 4.812 C7.205 8.565 7.323 11.133 6.125 15.125 C3.938 15.938 3.938 15.938 1.125 16.125 C-1.439 13.969 -3.37 12.134 -4.875 9.125 C-5.062 5.625 -5.062 5.625 -4.875 2.125 C-2.875 0.125 -2.875 0.125 0 0 Z M-2.875 2.125 C-3.822 4.73 -4.177 6.432 -3.051 9.016 C-2.046 10.751 -0.964 12.441 0.125 14.125 C1.775 13.795 3.425 13.465 5.125 13.125 C4.734 8.032 4.734 8.032 2.25 3.688 C0.162 1.829 0.162 1.829 -2.875 2.125 Z " fill="#000000" transform="translate(64.875,255.875)"/>
<path d="M0 0 C4.29 0 8.58 0 13 0 C13 0.66 13 1.32 13 2 C13.66 2.66 14.32 3.32 15 4 C12.568 5.2 10.13 6.385 7.688 7.562 C6.997 7.905 6.307 8.247 5.596 8.6 C0.34 11.113 0.34 11.113 -3 10 C0.556 7.699 3.947 6.225 8 5 C8 4.34 8 3.68 8 3 C6.866 2.876 5.731 2.752 4.562 2.625 C3.387 2.419 2.211 2.213 1 2 C0.67 1.34 0.34 0.68 0 0 Z " fill="#000000" transform="translate(183,199)"/>
<path d="M0 0 C3.636 0.248 5.555 0.625 8.375 3 C10.549 7.014 10.565 10.514 10 15 C9 16 9 16 6.688 16.312 C4 16 4 16 1.812 14.312 C-0.794 10.987 -2.185 8.593 -1.688 4.312 C-1 2 -1 2 0 0 Z M1 2 C-0.09 5.369 -0.071 6.81 1.188 10.188 C2.996 12.994 3.908 13.934 7 15 C7.66 14.34 8.32 13.68 9 13 C8.786 8.176 7.404 5.404 4 2 C3.01 2 2.02 2 1 2 Z " fill="#000000" transform="translate(27,320)"/>
<path d="M0 0 C4.62 0 9.24 0 14 0 C13.67 1.32 13.34 2.64 13 4 C10.647 5.177 9.119 5.166 6.5 5.188 C5.706 5.202 4.912 5.216 4.094 5.23 C2 5 2 5 0 3 C0 2.01 0 1.02 0 0 Z " fill="#FFFFFF" transform="translate(270,228)"/>
<path d="M0 0 C5.924 0.564 9.813 2.813 14 7 C14 10.375 14 10.375 13 14 C10.125 16.5 10.125 16.5 7 18 C6.01 17.67 5.02 17.34 4 17 C4.804 16.443 5.609 15.886 6.438 15.312 C9.091 13.223 9.091 13.223 10.125 10.562 C10.237 7.765 10.237 7.765 7.875 5.312 C5.237 3.19 3.202 2.006 0 1 C0 0.67 0 0.34 0 0 Z " fill="#FFFFFF" transform="translate(151,133)"/>
<path d="M0 0 C-1.262 2.463 -2.534 4.92 -3.812 7.375 C-4.169 8.074 -4.525 8.772 -4.893 9.492 C-5.244 10.163 -5.595 10.833 -5.957 11.523 C-6.436 12.45 -6.436 12.45 -6.925 13.396 C-8 15 -8 15 -11 17 C-10.27 14.537 -9.534 12.075 -8.785 9.617 C-8.176 7.588 -7.611 5.546 -7.062 3.5 C-6 1 -6 1 -4 -0.438 C-2 -1 -2 -1 0 0 Z " fill="#FFFFFF" transform="translate(110,469)"/>
<path d="M0 0 C4.75 0.75 4.75 0.75 7 3 C7.125 5.625 7.125 5.625 7 8 C4.688 8.688 4.688 8.688 2 9 C0.125 7.938 0.125 7.938 -1 6 C-0.688 2.812 -0.688 2.812 0 0 Z " fill="#111111" transform="translate(133,461)"/>
<path d="M0 0 C1.32 0.66 2.64 1.32 4 2 C4.188 4.875 4.188 4.875 4 8 C1 10 1 10 -1.188 9.625 C-1.786 9.419 -2.384 9.212 -3 9 C-3.369 3.462 -3.369 3.462 -1.5 1.125 C-1.005 0.754 -0.51 0.382 0 0 Z " fill="#0D0D0D" transform="translate(121,460)"/>
<path d="M0 0 C-1 3 -1 3 -2.886 3.999 C-3.693 4.283 -4.5 4.567 -5.332 4.859 C-6.213 5.17 -7.094 5.481 -8.002 5.801 C-8.929 6.114 -9.857 6.427 -10.812 6.75 C-11.728 7.079 -12.644 7.407 -13.588 7.746 C-21.092 10.337 -21.092 10.337 -25 9 C-5.667 0 -5.667 0 0 0 Z " fill="#000000" transform="translate(237,450)"/>
<path d="M0 0 C1.096 0.009 2.191 0.018 3.32 0.027 C4.163 0.039 5.006 0.051 5.875 0.062 C5.875 0.722 5.875 1.382 5.875 2.062 C6.865 2.393 7.855 2.722 8.875 3.062 C6.041 3.888 3.706 4.142 0.766 3.941 C0.012 3.893 -0.743 3.845 -1.52 3.795 C-2.297 3.739 -3.074 3.683 -3.875 3.625 C-4.668 3.573 -5.461 3.521 -6.277 3.467 C-8.227 3.338 -10.176 3.201 -12.125 3.062 C-7.659 0.829 -5.089 -0.054 0 0 Z " fill="#323232" transform="translate(247.125,211.9375)"/>
<path d="M0 0 C1.675 0.286 3.344 0.618 5 1 C5.125 6.75 5.125 6.75 4 9 C2.334 9.043 0.666 9.041 -1 9 C-1.33 8.67 -1.66 8.34 -2 8 C-1.28 1.28 -1.28 1.28 0 0 Z " fill="#1B1B1B" transform="translate(103,455)"/>
<path d="M0 0 C0.99 0.33 1.98 0.66 3 1 C2.031 1.557 1.061 2.114 0.062 2.688 C-3.081 4.697 -3.081 4.697 -4.188 7.438 C-3.909 11.249 -1.782 12.549 1 15 C1.33 15.66 1.66 16.32 2 17 C-1.486 16.701 -3.046 15.965 -5.875 13.812 C-8 11 -8 11 -8.125 7.938 C-6.525 3.761 -3.925 1.962 0 0 Z " fill="#FFFFFF" transform="translate(122,134)"/>
<path d="M0 0 C2.125 6.625 2.125 6.625 1 10 C-0.98 10.33 -2.96 10.66 -5 11 C-5.33 9.68 -5.66 8.36 -6 7 C-5.34 7 -4.68 7 -4 7 C-4 7.66 -4 8.32 -4 9 C-3.01 9 -2.02 9 -1 9 C-1 8.01 -1 7.02 -1 6 C-1.99 6 -2.98 6 -4 6 C-3.34 4.68 -2.68 3.36 -2 2 C-2.66 1.67 -3.32 1.34 -4 1 C-4 1.66 -4 2.32 -4 3 C-4.66 3 -5.32 3 -6 3 C-6 2.01 -6 1.02 -6 0 C-3.509 -1.245 -2.589 -0.777 0 0 Z " fill="#000000" transform="translate(346,610)"/>
<path d="M0 0 C0.99 0.33 1.98 0.66 3 1 C2.145 1.41 1.291 1.82 0.41 2.242 C-1.247 3.05 -1.247 3.05 -2.938 3.875 C-4.04 4.409 -5.142 4.942 -6.277 5.492 C-9.094 6.717 -9.094 6.717 -10 9 C-12.322 9.407 -14.657 9.744 -17 10 C-17 8.68 -17 7.36 -17 6 C-11 4 -11 4 -8.668 3.234 C-7.87 2.971 -7.072 2.708 -6.25 2.438 C-5.492 2.189 -4.734 1.94 -3.953 1.684 C-1.957 1.031 -1.957 1.031 0 0 Z " fill="#757575" transform="translate(205,128)"/>
<path d="M0 0 C3.692 0.692 3.692 0.692 5 2 C5.041 4 5.043 6 5 8 C3.188 8.688 3.188 8.688 1 9 C-0.812 7.875 -0.812 7.875 -2 6 C-1.579 1.579 -1.579 1.579 0 0 Z " fill="#282828" transform="translate(122,168)"/>
<path d="M0 0 C0 0.99 0 1.98 0 3 C-9.226 8.74 -9.226 8.74 -15 8 C-14.375 6.125 -14.375 6.125 -13 4 C-9.875 2.75 -9.875 2.75 -7 2 C-7 2.66 -7 3.32 -7 4 C-4.69 2.68 -2.38 1.36 0 0 Z " fill="#1F1F1F" transform="translate(162,230)"/>
<path d="M0 0 C2.438 1.375 2.438 1.375 3.25 4 C3.312 4.784 3.374 5.567 3.438 6.375 C2.778 6.375 2.118 6.375 1.438 6.375 C1.108 7.695 0.778 9.015 0.438 10.375 C-0.401 9.087 -1.233 7.794 -2.062 6.5 C-2.527 5.781 -2.991 5.061 -3.469 4.32 C-4.562 2.375 -4.562 2.375 -4.562 0.375 C-2.562 -0.625 -2.562 -0.625 0 0 Z " fill="#FFFFFF" transform="translate(98.5625,98.625)"/>
<path d="M0 0 C0.99 0.66 1.98 1.32 3 2 C0.1 5.33 -1.669 6.366 -6 7 C-7.679 7.634 -9.35 8.293 -11 9 C-9.556 5.287 -7.878 4.051 -4.375 2.25 C-3.558 1.822 -2.74 1.394 -1.898 0.953 C-0.959 0.481 -0.959 0.481 0 0 Z " fill="#4D4D4D" transform="translate(166,225)"/>
<path d="M0 0 C4.673 1.089 7.339 5.731 9.961 9.457 C8.971 9.787 7.981 10.117 6.961 10.457 C6.425 9.508 5.888 8.56 5.336 7.582 C2.606 3.99 1.374 3.149 -3.039 2.457 C-6.831 3.23 -6.831 3.23 -10.039 4.457 C-7.181 0.646 -4.787 -0.24 0 0 Z " fill="#000000" transform="translate(210.0390625,193.54296875)"/>
<path d="M0 0 C0.836 0.195 1.672 0.391 2.533 0.592 C4.587 1.073 6.637 1.566 8.688 2.062 C5.488 4.006 3.768 4.216 0.141 3.383 C-0.704 3.196 -1.548 3.009 -2.418 2.816 C-3.291 2.609 -4.163 2.401 -5.062 2.188 C-5.951 1.988 -6.839 1.788 -7.754 1.582 C-9.943 1.088 -12.129 0.581 -14.312 0.062 C-14.312 -0.268 -14.312 -0.597 -14.312 -0.938 C-9.273 -2.57 -4.976 -1.214 0 0 Z " fill="#FFFFFF" transform="translate(157.3125,209.9375)"/>
<path d="M0 0 C2.97 0 5.94 0 9 0 C9.33 0.66 9.66 1.32 10 2 C8.68 2 7.36 2 6 2 C6 5.3 6 8.6 6 12 C5.34 12 4.68 12 4 12 C4 8.7 4 5.4 4 2 C2.68 2 1.36 2 0 2 C0 1.34 0 0.68 0 0 Z " fill="#000000" transform="translate(301,609)"/>
<path d="M0 0 C0.99 0.66 1.98 1.32 3 2 C0.191 3.99 -1.873 4.101 -5.188 3.75 C-7.075 3.379 -7.075 3.379 -9 3 C-9.33 2.34 -9.66 1.68 -10 1 C-6.873 -0.564 -3.42 -0.4 0 0 Z " fill="#FFFFFF" transform="translate(178,212)"/>
<path d="M0 0 C0 1.32 0 2.64 0 4 C-1.453 4.864 -2.912 5.716 -4.375 6.562 C-5.593 7.276 -5.593 7.276 -6.836 8.004 C-7.55 8.333 -8.264 8.661 -9 9 C-9.66 8.67 -10.32 8.34 -11 8 C-10.381 7.752 -9.762 7.505 -9.125 7.25 C-6.604 5.767 -6.215 4.591 -5 2 C-2 0 -2 0 0 0 Z " fill="#171717" transform="translate(334,176)"/>
<path d="M0 0 C2.667 2.49 4.557 4.634 6 8 C3.36 8.33 0.72 8.66 -2 9 C-1.34 6.03 -0.68 3.06 0 0 Z " fill="#FFFFFF" transform="translate(139,342)"/>
<path d="M0 0 C0 0.66 0 1.32 0 2 C-7.429 3.286 -7.429 3.286 -11 2 C-11 1.34 -11 0.68 -11 0 C-6.95 -1.35 -4.208 -0.621 0 0 Z " fill="#FFFFFF" transform="translate(282,184)"/>
<path d="M0 0 C0.99 0 1.98 0 3 0 C3 2.64 3 5.28 3 8 C0.36 8 -2.28 8 -5 8 C-5 7.34 -5 6.68 -5 6 C-3.02 6 -1.04 6 1 6 C1 4.68 1 3.36 1 2 C0.34 1.67 -0.32 1.34 -1 1 C-0.67 0.67 -0.34 0.34 0 0 Z " fill="#000000" transform="translate(84,324)"/>
<path d="M0 0 C-0.66 1.65 -1.32 3.3 -2 5 C-1.01 5.33 -0.02 5.66 1 6 C0.67 6.66 0.34 7.32 0 8 C-0.99 8 -1.98 8 -3 8 C-3 7.34 -3 6.68 -3 6 C-3.66 6 -4.32 6 -5 6 C-5 4.68 -5 3.36 -5 2 C-2 0 -2 0 0 0 Z " fill="#FFFFFF" transform="translate(328,611)"/>
<path d="M0 0 C-5.445 2.475 -5.445 2.475 -11 5 C-11.33 4.01 -11.66 3.02 -12 2 C-3.385 -1.692 -3.385 -1.692 0 0 Z " fill="#A6A6A6" transform="translate(227,121)"/>
<path d="M0 0 C1.98 0 3.96 0 6 0 C6 1.32 6 2.64 6 4 C3.69 4 1.38 4 -1 4 C-0.67 2.68 -0.34 1.36 0 0 Z " fill="#FFFFFF" transform="translate(79,326)"/>
<path d="M0 0 C-0.688 2.375 -0.688 2.375 -2 5 C-4.625 6.312 -4.625 6.312 -7 7 C-4.605 0 -4.605 0 0 0 Z " fill="#FFFFFF" transform="translate(147,281)"/>
<path d="M0 0 C0.99 0.66 1.98 1.32 3 2 C1.68 3.32 0.36 4.64 -1 6 C-1.66 5.67 -2.32 5.34 -3 5 C-1.125 1.125 -1.125 1.125 0 0 Z " fill="#434343" transform="translate(308,188)"/>
<path d="M0 0 C0 0.66 0 1.32 0 2 C0.99 1.67 1.98 1.34 3 1 C2.67 1.99 2.34 2.98 2 4 C0.35 4 -1.3 4 -3 4 C-3.33 3.01 -3.66 2.02 -4 1 C-2 0 -2 0 0 0 Z " fill="#000000" transform="translate(124,162)"/>
<path d="M0 0 C1.875 0.188 1.875 0.188 4 1 C5.25 3.562 5.25 3.562 6 6 C4.125 5.812 4.125 5.812 2 5 C0.75 2.438 0.75 2.438 0 0 Z " fill="#FFFFFF" transform="translate(106,126)"/>
<path d="M0 0 C-0.33 1.32 -0.66 2.64 -1 4 C-2.98 3.34 -4.96 2.68 -7 2 C-4 0 -4 0 0 0 Z " fill="#FFFFFF" transform="translate(120,198)"/>
</svg>
