<?xml version="1.0" encoding="UTF-8"?>
<!-- Generator: visioncortex VTracer 0.6.4 -->
<svg version="1.1" xmlns="http://www.w3.org/2000/svg" width="338" height="287">
<path d="M0 0 C111.54 0 223.08 0 338 0 C338 94.71 338 189.42 338 287 C226.46 287 114.92 287 0 287 C0 192.29 0 97.58 0 0 Z " fill="#FEFEFE" transform="translate(0,0)"/>
<path d="M0 0 C0.851 0.786 1.702 1.573 2.578 2.383 C8.278 5.077 13.648 3.071 19.625 1.75 C41.347 -2.863 41.347 -2.863 49.297 0.32 C50.106 0.916 50.916 1.511 51.75 2.125 C52.638 2.761 53.526 3.396 54.441 4.051 C55.286 4.694 56.13 5.337 57 6 C57.813 6.571 58.627 7.142 59.465 7.73 C63.457 10.572 63.457 10.572 65 12 C65 12.66 65 13.32 65 14 C65.584 14.263 66.168 14.526 66.77 14.797 C76.977 20.303 84.428 33.741 89 44 C89.512 46.555 89.512 46.555 89.688 48.875 C89.753 49.656 89.819 50.437 89.887 51.242 C89.943 52.112 89.943 52.112 90 53 C92.31 53.99 94.62 54.98 97 56 C96.977 56.641 96.954 57.281 96.93 57.941 C96.786 64.805 96.703 70.539 101.625 75.812 C102.409 76.534 103.192 77.256 104 78 C104 78.66 104 79.32 104 80 C104.66 80 105.32 80 106 80 C112.06 88.63 117.246 98.211 116 109 C115.446 112.032 114.773 115.017 114 118 C115.32 118.33 116.64 118.66 118 119 C118.725 123.404 119.05 127.572 119.088 132.048 C119.203 138.694 119.582 143.183 123.562 148.75 C130.658 159.437 127.652 174.433 125.312 186.375 C120.227 209.912 120.227 209.912 113 216 C110.68 217.427 108.403 218.735 106 220 C99.019 223.793 92.243 227.862 85.5 232.062 C84.562 232.647 83.623 233.232 82.656 233.834 C80.436 235.22 78.217 236.609 76 238 C75.34 237.34 74.68 236.68 74 236 C74.66 235.34 75.32 234.68 76 234 C79.286 223.603 78.929 211.617 79.625 200.812 C79.76 198.791 79.895 196.769 80.031 194.748 C80.361 189.832 80.682 184.916 81 180 C80.34 180 79.68 180 79 180 C78.734 179.397 78.469 178.793 78.195 178.172 C77.666 176.973 77.666 176.973 77.125 175.75 C76.603 174.567 76.603 174.567 76.07 173.359 C75.096 171.211 74.07 169.102 73 167 C72.34 167 71.68 167 71 167 C70.063 163.813 69.912 162.258 71 159.062 C72.607 154.143 71.549 151.16 69.375 146.562 C67.72 143.814 65.812 141.718 63.5 139.5 C57.587 133.777 55.804 128.928 54.637 120.973 C53.952 117.775 52.777 115.261 51.375 112.312 C47.556 103.1 48.634 93.128 49.034 83.337 C49.115 80.843 49.115 80.843 48 78 C47.237 77.711 46.474 77.422 45.688 77.125 C42.202 75.666 41.021 74.187 39 71 C38.785 67.547 38.785 67.547 39.062 63.75 C39.511 51.512 32.565 44.965 25 36 C23.682 34.359 22.369 32.713 21.062 31.062 C17.946 27.163 14.802 23.288 11.625 19.438 C10.792 18.426 9.96 17.414 9.102 16.371 C7.225 13.957 7.225 13.957 5 13 C5 12.34 5 11.68 5 11 C0.286 8.415 -3.905 9.009 -9 10 C-9.66 10.33 -10.32 10.66 -11 11 C-11 11.99 -11 12.98 -11 14 C-10.443 13.67 -9.886 13.34 -9.312 13 C-6.541 11.801 -4.986 11.477 -2 12 C0.522 14.113 1.771 15.785 2.387 19.055 C2.666 24.618 1.458 29.55 -2 34 C-4.491 35.547 -5.602 36.019 -8.562 35.875 C-11.546 34.804 -12.41 33.702 -14 31 C-14.33 30.01 -14.66 29.02 -15 28 C-15.59 32.247 -16.142 36.497 -16.688 40.75 C-16.856 41.957 -17.024 43.163 -17.197 44.406 C-17.342 45.566 -17.487 46.727 -17.637 47.922 C-17.778 48.99 -17.92 50.058 -18.065 51.159 C-17.967 55.45 -15.913 57.087 -13 60 C-12.367 62.164 -12.367 62.164 -11.875 64.625 C-11.707 65.442 -11.54 66.26 -11.367 67.102 C-11.185 68.041 -11.185 68.041 -11 69 C-8.525 68.01 -8.525 68.01 -6 67 C-6 67.99 -6 68.98 -6 70 C-18 74 -18 74 -30 78 C-29.783 78.652 -29.567 79.305 -29.344 79.977 C-27.815 84.775 -26.597 88.899 -27 94 C-26.443 93.34 -25.886 92.68 -25.312 92 C-23 90 -23 90 -20.578 89.648 C-17.277 90.099 -16.504 91.064 -14.438 93.625 C-13.544 94.717 -13.544 94.717 -12.633 95.832 C-11.293 97.611 -10.04 99.454 -8.812 101.312 C-6.657 104.508 -4.768 106.207 -1.25 107.785 C10.099 112.905 15.408 121.859 20 133 C22.795 143.573 20.965 153.136 17.238 163.172 C15.447 168.286 14.977 173.488 14.457 178.855 C14.041 181.718 13.478 183.549 12 186 C10.02 186 8.04 186 6 186 C6.433 187.247 6.433 187.247 6.875 188.52 C7.432 190.15 7.432 190.15 8 191.812 C8.371 192.891 8.743 193.97 9.125 195.082 C10 198 10 198 10 201 C17.321 199.428 23.848 197.403 30.527 193.988 C33.206 192.918 35.143 192.811 38 193 C38 193.66 38 194.32 38 195 C35.525 195.99 35.525 195.99 33 197 C33.351 197.722 33.701 198.444 34.062 199.188 C35.118 202.354 35.019 203.859 34 207 C33.34 207.66 32.68 208.32 32 209 C35.876 212.987 39.958 216.643 44.188 220.25 C44.816 220.791 45.444 221.333 46.092 221.891 C49.342 224.739 49.342 224.739 53 227 C53 226.01 53 225.02 53 224 C52.34 223.67 51.68 223.34 51 223 C53.274 218.332 53.274 218.332 56.188 217 C60.272 217 63.484 217.904 67 220 C70.05 223.11 72.479 226.598 73 231 C70.813 234.25 70.813 234.25 68 237 C66.68 237 65.36 237 64 237 C64 237.66 64 238.32 64 239 C60.083 237.348 57.109 234.696 53.938 231.938 C52.779 230.943 51.62 229.95 50.461 228.957 C49.882 228.46 49.303 227.963 48.706 227.452 C46.186 225.308 43.627 223.215 41.062 221.125 C40.179 220.404 39.296 219.684 38.387 218.941 C36.933 217.759 35.478 216.579 34.02 215.402 C30.108 212.215 30.108 212.215 29 210 C27.68 210 26.36 210 25 210 C26.453 213.524 28.228 215.218 31.25 217.5 C36.374 221.466 41.284 225.632 46.177 229.875 C46.745 230.366 47.313 230.857 47.898 231.363 C48.433 231.826 48.968 232.288 49.519 232.764 C50.772 233.81 52.088 234.78 53.414 235.73 C53.937 236.149 54.461 236.568 55 237 C55 237.66 55 238.32 55 239 C50.962 237.637 48.456 235.859 45.375 232.938 C40.914 228.797 36.3 224.935 31.543 221.141 C24.367 215.1 24.367 215.1 23 211 C20.69 211.33 18.38 211.66 16 212 C14.502 208.629 14 206.796 14 203 C12.35 203 10.7 203 9 203 C8.34 201.68 7.68 200.36 7 199 C6.709 199.75 6.417 200.5 6.117 201.273 C0.436 215.459 -6.339 226.471 -20 234 C-28.663 237.68 -37.63 238.77 -47 238 C-49.367 236.988 -49.367 236.988 -51 236 C-49.756 235.974 -48.512 235.948 -47.23 235.922 C-32.279 235.475 -21.621 233.114 -10 223 C-8.626 221.367 -7.28 219.708 -6 218 C-11.558 220.123 -17.012 222.436 -22.43 224.891 C-25.548 226.298 -28.679 227.674 -31.815 229.042 C-33.751 229.891 -35.679 230.759 -37.605 231.629 C-50.062 236.754 -64.244 236.976 -76.949 232.391 C-102.838 220.59 -120.205 198.346 -130.438 172.348 C-137.736 151.648 -139.52 130.344 -134.559 108.887 C-133.71 106.072 -133.71 106.072 -135 104 C-134.398 101.322 -133.724 98.75 -132.938 96.125 C-132.709 95.36 -132.48 94.595 -132.244 93.807 C-127.1 77.254 -118.841 65.435 -103.727 56.684 C-89.564 49.331 -75.101 49.869 -60 54 C-50.361 57.647 -41.175 62.716 -33 69 C-33.33 69.66 -33.66 70.32 -34 71 C-34.799 70.492 -35.598 69.984 -36.422 69.461 C-54.101 58.38 -71.154 50.589 -92.434 54.656 C-106.826 58.998 -117.208 68.284 -124.613 81.168 C-129.126 90.242 -129.126 90.242 -131 100 C-130.346 98.913 -130.346 98.913 -129.68 97.805 C-126.198 92.153 -122.785 87.568 -118 83 C-116.265 80.416 -116.265 80.416 -115 78 C-114.34 77.01 -113.68 76.02 -113 75 C-112.34 75 -111.68 75 -111 75 C-110.505 73.515 -110.505 73.515 -110 72 C-102.373 65.359 -93.154 60.713 -83 60 C-82.237 59.937 -81.474 59.874 -80.688 59.809 C-63.138 58.999 -46.038 66.652 -33 78 C-32.01 77.01 -31.02 76.02 -30 75 C-30.516 73.989 -31.031 72.979 -31.562 71.938 C-33.268 67.975 -32.833 65.242 -32 61 C-31.963 58.667 -31.952 56.333 -32 54 C-27.707 51.547 -24.907 50.835 -20 51 C-19.963 50.149 -19.925 49.298 -19.887 48.422 C-19.466 40.676 -18.693 33.051 -17.562 25.375 C-17.44 24.523 -17.318 23.67 -17.192 22.792 C-16.552 18.608 -15.822 14.865 -14 11 C-14.677 10.756 -15.354 10.513 -16.051 10.262 C-18.918 9.035 -21.535 7.569 -24.214 5.979 C-46.897 -7.428 -73.58 -15.019 -99.938 -9.82 C-110.356 -7.03 -120.035 -3.044 -129 3 C-129.639 3.418 -130.279 3.835 -130.938 4.266 C-132.301 5.162 -133.653 6.078 -135 7 C-132.042 -0.267 -123.79 -3.846 -116.938 -6.75 C-114.971 -7.533 -112.99 -8.28 -111 -9 C-110.364 -9.236 -109.729 -9.471 -109.074 -9.714 C-102.591 -12.015 -95.996 -13.338 -89.25 -14.625 C-88.14 -14.842 -87.03 -15.058 -85.887 -15.281 C-83.832 -15.682 -81.776 -16.08 -79.72 -16.475 C-77.955 -16.816 -76.194 -17.174 -74.437 -17.553 C-48.537 -22.304 -22.052 -12.877 0 0 Z " fill="#131313" transform="translate(175,31)"/>
<path d="M0 0 C12.785 0.261 24.941 8.407 34.566 16.148 C36.3 17.515 36.3 17.515 39.188 18.312 C45.946 34.999 41.768 52.766 37.188 69.312 C36.419 68.814 35.651 68.315 34.859 67.801 C32.295 66.054 32.295 66.054 29.438 66.5 C27.015 67.082 27.015 67.082 26.188 69.312 C25.847 74.642 25.847 74.642 28.188 79.312 C28.517 79.972 28.847 80.632 29.188 81.312 C29.847 81.642 30.507 81.972 31.188 82.312 C30.858 82.642 30.528 82.972 30.188 83.312 C34.198 83.491 34.198 83.491 38.188 83.312 C38.847 82.653 39.507 81.993 40.188 81.312 C40.876 82.759 40.876 82.759 41.578 84.234 C42.197 85.511 42.817 86.787 43.438 88.062 C43.888 89.014 43.888 89.014 44.348 89.984 C46.196 93.76 48.151 96.437 51.188 99.312 C51.188 99.972 51.188 100.632 51.188 101.312 C51.847 101.519 52.507 101.725 53.188 101.938 C65.323 107.5 71.226 117.523 76.121 129.371 C77.188 132.313 77.188 132.313 77.188 134.312 C76.528 134.643 75.868 134.972 75.188 135.312 C74.518 136.975 73.926 138.669 73.375 140.375 C71.591 145.531 69.306 149.853 66.188 154.312 C65.857 153.653 65.528 152.993 65.188 152.312 C62.811 153.247 60.436 154.185 58.062 155.125 C57.397 155.386 56.732 155.647 56.047 155.916 C52.867 157.179 49.859 158.484 46.82 160.074 C45.951 160.483 45.083 160.891 44.188 161.312 C43.528 160.982 42.868 160.653 42.188 160.312 C43.054 159.405 43.92 158.498 44.812 157.562 C51.269 149.991 57.188 138.498 57.188 128.312 C56.968 129.196 56.749 130.079 56.523 130.988 C52.977 144.41 47.271 157.377 35.156 165.215 C24.116 171.37 12.055 171.927 -0.246 169.688 C-10.687 166.582 -21.887 159.831 -29.812 152.312 C-29.812 151.653 -29.812 150.993 -29.812 150.312 C-30.803 149.982 -31.792 149.653 -32.812 149.312 C-32.812 148.653 -32.812 147.993 -32.812 147.312 C-33.472 147.312 -34.132 147.312 -34.812 147.312 C-56.131 123.697 -65.899 94.32 -64.949 62.757 C-64.285 50.857 -60.37 37.695 -52.812 28.312 C-52.153 28.312 -51.492 28.312 -50.812 28.312 C-50.557 27.714 -50.302 27.116 -50.039 26.5 C-46.479 20.151 -37.793 15.991 -31.074 13.727 C-15.623 10.898 -0.833 14.835 12.188 23.312 C22.617 30.747 31.315 40.263 39.188 50.312 C26.802 31.964 10.428 17.377 -11.742 12.836 C-15.764 12.15 -19.747 11.657 -23.812 11.312 C-20.148 8.177 -16.023 6.533 -11.625 4.688 C-0.753 0.084 -0.753 0.084 0 0 Z " fill="#FFFFFF" transform="translate(104.8125,93.6875)"/>
<path d="M0 0 C0.851 0.786 1.702 1.573 2.578 2.383 C8.278 5.077 13.648 3.071 19.625 1.75 C41.347 -2.863 41.347 -2.863 49.297 0.32 C50.106 0.916 50.916 1.511 51.75 2.125 C52.638 2.761 53.526 3.396 54.441 4.051 C55.286 4.694 56.13 5.337 57 6 C57.813 6.571 58.627 7.142 59.465 7.73 C63.457 10.572 63.457 10.572 65 12 C65 12.66 65 13.32 65 14 C65.584 14.263 66.168 14.526 66.77 14.797 C76.977 20.303 84.428 33.741 89 44 C89.512 46.555 89.512 46.555 89.688 48.875 C89.753 49.656 89.819 50.437 89.887 51.242 C89.943 52.112 89.943 52.112 90 53 C92.31 53.99 94.62 54.98 97 56 C96.977 56.641 96.954 57.281 96.93 57.941 C96.786 64.805 96.703 70.539 101.625 75.812 C102.409 76.534 103.192 77.256 104 78 C104 78.66 104 79.32 104 80 C104.66 80 105.32 80 106 80 C112.06 88.63 117.246 98.211 116 109 C115.446 112.032 114.773 115.017 114 118 C115.32 118.33 116.64 118.66 118 119 C118.725 123.404 119.05 127.572 119.088 132.048 C119.203 138.694 119.582 143.183 123.562 148.75 C130.658 159.437 127.652 174.433 125.312 186.375 C120.227 209.912 120.227 209.912 113 216 C110.68 217.427 108.403 218.735 106 220 C99.019 223.793 92.243 227.862 85.5 232.062 C84.562 232.647 83.623 233.232 82.656 233.834 C80.436 235.22 78.217 236.609 76 238 C75.34 237.34 74.68 236.68 74 236 C74.66 235.34 75.32 234.68 76 234 C79.286 223.603 78.929 211.617 79.625 200.812 C79.76 198.791 79.895 196.769 80.031 194.748 C80.361 189.832 80.682 184.916 81 180 C81.33 180 81.66 180 82 180 C82.237 191.53 81.924 202.934 81.062 214.438 C80.976 215.604 80.889 216.77 80.799 217.972 C80.423 222.726 80.015 227.334 79 232 C80.73 231.064 82.459 230.126 84.188 229.188 C85.632 228.404 85.632 228.404 87.105 227.605 C88.061 227.076 89.016 226.546 90 226 C90.904 225.563 91.807 225.126 92.738 224.676 C95.871 222.355 96.183 220.821 97 217 C97.491 213.195 97.791 209.388 98.062 205.562 C98.186 203.931 98.186 203.931 98.312 202.266 C99.119 191.189 99.611 180.099 100 169 C100.66 168.67 101.32 168.34 102 168 C102.23 179.316 101.967 190.522 101.125 201.812 C101.047 202.914 100.968 204.016 100.887 205.152 C100.444 210.691 99.789 215.732 98 221 C100.469 219.621 102.924 218.224 105.375 216.812 C106.074 216.425 106.772 216.038 107.492 215.639 C110.49 213.895 112.592 212.665 114.426 209.676 C115.164 206.235 115.553 202.886 115.812 199.375 C115.922 198.063 116.032 196.75 116.145 195.398 C115.98 191.536 115.633 191.439 113 189 C111.82 181.228 112.511 174.484 117 168 C119.141 167.297 119.141 167.297 121 167 C121.223 154.93 121.223 154.93 115.285 144.914 C113.132 141.708 113.82 138.479 114.043 134.75 C113.96 129.418 111.472 124.892 108.25 120.75 C106.594 118.431 106.768 116.781 107 114 C107.66 114 108.32 114 109 114 C109.66 115.32 110.32 116.64 111 118 C113.558 106.59 113.029 97.858 107.125 87.625 C104.675 83.828 102.011 80.366 99 77 C98.01 77.99 97.02 78.98 96 80 C95.914 79.082 95.827 78.164 95.738 77.219 C94.853 69.485 93.603 64.235 89 58 C87.389 54.778 86.783 51.771 86.188 48.25 C85.312 43.494 83.553 39.906 81.023 35.812 C80 34 80 34 80 32 C79.34 32 78.68 32 78 32 C78.233 35.844 79.426 37.627 82 40.312 C86.513 45.268 86.204 50.485 86 57 C85.34 56.67 84.68 56.34 84 56 C83.621 53.785 83.621 53.785 83.438 51.062 C83.232 47.393 83.232 47.393 82 44 C81.67 45.65 81.34 47.3 81 49 C80.34 49 79.68 49 79 49 C79.083 48.154 79.165 47.309 79.25 46.438 C78.939 42.156 78.084 39.084 75 36 C72.725 35.151 70.576 34.752 68.18 34.375 C63.783 33.619 61.537 31.624 58.688 28.312 C56.549 24.115 56.679 21.648 57 17 C57.66 17 58.32 17 59 17 C57.611 15.245 56.213 13.496 54.812 11.75 C54.035 10.775 53.258 9.801 52.457 8.797 C48.321 3.954 48.321 3.954 42.641 1.539 C36.894 1.746 31.556 2.497 26 4 C26.969 4.763 27.939 5.526 28.938 6.312 C33.973 10.642 37.909 15.795 42 21 C42.901 22.134 43.802 23.269 44.703 24.402 C47.034 27.342 49.343 30.298 51.644 33.261 C52.973 34.965 54.318 36.657 55.664 38.348 C56.476 39.388 57.288 40.428 58.125 41.5 C59.212 42.877 59.212 42.877 60.32 44.281 C62.16 47.259 62.664 49.542 63 53 C62.34 52.67 61.68 52.34 61 52 C60.269 49.686 59.599 47.352 59 45 C58.34 45 57.68 45 57 45 C55.512 43.156 55.512 43.156 53.688 40.5 C40.257 19.968 40.257 19.968 22 5 C19.146 5.08 16.662 5.293 13.875 5.75 C12.802 5.901 12.802 5.901 11.707 6.055 C8.691 6.494 5.896 7.035 3 8 C3.508 8.424 4.016 8.848 4.539 9.285 C9.072 13.147 13.575 17.083 17 22 C17 22.66 17 23.32 17 24 C17.66 24 18.32 24 19 24 C20.325 25.449 20.325 25.449 21.828 27.473 C22.381 28.208 22.934 28.943 23.504 29.701 C24.08 30.48 24.656 31.26 25.25 32.062 C28.941 37.014 32.649 41.879 36.742 46.508 C41.395 52.024 41.367 57.129 41 64 C40.67 64 40.34 64 40 64 C39.948 63.334 39.897 62.667 39.844 61.98 C38.801 53.504 35.362 48.486 30 42 C28.906 40.639 28.906 40.639 27.789 39.25 C25.548 36.482 23.276 33.74 21 31 C19.415 29.064 17.832 27.126 16.25 25.188 C15.511 24.286 14.773 23.385 14.012 22.457 C12.802 20.979 11.595 19.498 10.395 18.012 C8.067 15.071 8.067 15.071 5 13 C5 12.34 5 11.68 5 11 C0.286 8.415 -3.905 9.009 -9 10 C-9.66 10.33 -10.32 10.66 -11 11 C-11 11.99 -11 12.98 -11 14 C-10.443 13.67 -9.886 13.34 -9.312 13 C-6.541 11.801 -4.986 11.477 -2 12 C0.522 14.113 1.771 15.785 2.387 19.055 C2.666 24.618 1.458 29.55 -2 34 C-4.491 35.547 -5.602 36.019 -8.562 35.875 C-11.546 34.804 -12.41 33.702 -14 31 C-14.33 30.01 -14.66 29.02 -15 28 C-15.59 32.247 -16.142 36.497 -16.688 40.75 C-16.856 41.957 -17.024 43.163 -17.197 44.406 C-17.342 45.566 -17.487 46.727 -17.637 47.922 C-17.778 48.99 -17.92 50.058 -18.065 51.159 C-17.967 55.45 -15.913 57.087 -13 60 C-12.367 62.164 -12.367 62.164 -11.875 64.625 C-11.707 65.442 -11.54 66.26 -11.367 67.102 C-11.185 68.041 -11.185 68.041 -11 69 C-8.525 68.01 -8.525 68.01 -6 67 C-6 67.99 -6 68.98 -6 70 C-18 74 -18 74 -30 78 C-29.783 78.652 -29.567 79.305 -29.344 79.977 C-27.815 84.775 -26.597 88.899 -27 94 C-26.443 93.34 -25.886 92.68 -25.312 92 C-23 90 -23 90 -20.578 89.648 C-17.277 90.099 -16.504 91.064 -14.438 93.625 C-13.544 94.717 -13.544 94.717 -12.633 95.832 C-11.293 97.611 -10.04 99.454 -8.812 101.312 C-6.657 104.508 -4.768 106.207 -1.25 107.785 C10.099 112.905 15.408 121.859 20 133 C22.795 143.573 20.965 153.136 17.238 163.172 C15.447 168.286 14.977 173.488 14.457 178.855 C14.041 181.718 13.478 183.549 12 186 C10.02 186 8.04 186 6 186 C6.433 187.247 6.433 187.247 6.875 188.52 C7.432 190.15 7.432 190.15 8 191.812 C8.371 192.891 8.743 193.97 9.125 195.082 C10 198 10 198 10 201 C17.321 199.428 23.848 197.403 30.527 193.988 C33.206 192.918 35.143 192.811 38 193 C38 193.66 38 194.32 38 195 C35.525 195.99 35.525 195.99 33 197 C33.351 197.722 33.701 198.444 34.062 199.188 C35.118 202.354 35.019 203.859 34 207 C33.34 207.66 32.68 208.32 32 209 C35.876 212.987 39.958 216.643 44.188 220.25 C44.816 220.791 45.444 221.333 46.092 221.891 C49.342 224.739 49.342 224.739 53 227 C53 226.01 53 225.02 53 224 C52.34 223.67 51.68 223.34 51 223 C53.274 218.332 53.274 218.332 56.188 217 C60.272 217 63.484 217.904 67 220 C70.05 223.11 72.479 226.598 73 231 C70.813 234.25 70.813 234.25 68 237 C66.68 237 65.36 237 64 237 C64 237.66 64 238.32 64 239 C60.083 237.348 57.109 234.696 53.938 231.938 C52.779 230.943 51.62 229.95 50.461 228.957 C49.882 228.46 49.303 227.963 48.706 227.452 C46.186 225.308 43.627 223.215 41.062 221.125 C40.179 220.404 39.296 219.684 38.387 218.941 C36.933 217.759 35.478 216.579 34.02 215.402 C30.108 212.215 30.108 212.215 29 210 C27.68 210 26.36 210 25 210 C26.453 213.524 28.228 215.218 31.25 217.5 C36.374 221.466 41.284 225.632 46.177 229.875 C46.745 230.366 47.313 230.857 47.898 231.363 C48.433 231.826 48.968 232.288 49.519 232.764 C50.772 233.81 52.088 234.78 53.414 235.73 C53.937 236.149 54.461 236.568 55 237 C55 237.66 55 238.32 55 239 C50.962 237.637 48.456 235.859 45.375 232.938 C40.914 228.797 36.3 224.935 31.543 221.141 C24.367 215.1 24.367 215.1 23 211 C20.69 211.33 18.38 211.66 16 212 C14.502 208.629 14 206.796 14 203 C12.35 203 10.7 203 9 203 C8.34 201.68 7.68 200.36 7 199 C6.709 199.75 6.417 200.5 6.117 201.273 C0.436 215.459 -6.339 226.471 -20 234 C-28.663 237.68 -37.63 238.77 -47 238 C-49.367 236.988 -49.367 236.988 -51 236 C-49.756 235.974 -48.512 235.948 -47.23 235.922 C-32.279 235.475 -21.621 233.114 -10 223 C-8.626 221.367 -7.28 219.708 -6 218 C-11.558 220.123 -17.012 222.436 -22.43 224.891 C-25.548 226.298 -28.679 227.674 -31.815 229.042 C-33.751 229.891 -35.679 230.759 -37.605 231.629 C-50.062 236.754 -64.244 236.976 -76.949 232.391 C-102.838 220.59 -120.205 198.346 -130.438 172.348 C-137.736 151.648 -139.52 130.344 -134.559 108.887 C-133.71 106.072 -133.71 106.072 -135 104 C-134.398 101.322 -133.724 98.75 -132.938 96.125 C-132.709 95.36 -132.48 94.595 -132.244 93.807 C-127.1 77.254 -118.841 65.435 -103.727 56.684 C-89.564 49.331 -75.101 49.869 -60 54 C-50.361 57.647 -41.175 62.716 -33 69 C-33.33 69.66 -33.66 70.32 -34 71 C-34.799 70.492 -35.598 69.984 -36.422 69.461 C-54.101 58.38 -71.154 50.589 -92.434 54.656 C-106.826 58.998 -117.208 68.284 -124.613 81.168 C-129.126 90.242 -129.126 90.242 -131 100 C-130.346 98.913 -130.346 98.913 -129.68 97.805 C-126.198 92.153 -122.785 87.568 -118 83 C-116.265 80.416 -116.265 80.416 -115 78 C-114.34 77.01 -113.68 76.02 -113 75 C-112.34 75 -111.68 75 -111 75 C-110.505 73.515 -110.505 73.515 -110 72 C-102.373 65.359 -93.154 60.713 -83 60 C-82.237 59.937 -81.474 59.874 -80.688 59.809 C-63.138 58.999 -46.038 66.652 -33 78 C-32.01 77.01 -31.02 76.02 -30 75 C-30.516 73.989 -31.031 72.979 -31.562 71.938 C-33.268 67.975 -32.833 65.242 -32 61 C-31.963 58.667 -31.952 56.333 -32 54 C-27.707 51.547 -24.907 50.835 -20 51 C-19.963 50.149 -19.925 49.298 -19.887 48.422 C-19.466 40.676 -18.693 33.051 -17.562 25.375 C-17.44 24.523 -17.318 23.67 -17.192 22.792 C-16.552 18.608 -15.822 14.865 -14 11 C-14.677 10.756 -15.354 10.513 -16.051 10.262 C-18.918 9.035 -21.535 7.569 -24.214 5.979 C-46.897 -7.428 -73.58 -15.019 -99.938 -9.82 C-110.356 -7.03 -120.035 -3.044 -129 3 C-129.639 3.418 -130.279 3.835 -130.938 4.266 C-132.301 5.162 -133.653 6.078 -135 7 C-132.042 -0.267 -123.79 -3.846 -116.938 -6.75 C-114.971 -7.533 -112.99 -8.28 -111 -9 C-110.364 -9.236 -109.729 -9.471 -109.074 -9.714 C-102.591 -12.015 -95.996 -13.338 -89.25 -14.625 C-88.14 -14.842 -87.03 -15.058 -85.887 -15.281 C-83.832 -15.682 -81.776 -16.08 -79.72 -16.475 C-77.955 -16.816 -76.194 -17.174 -74.437 -17.553 C-48.537 -22.304 -22.052 -12.877 0 0 Z M-81.977 67.398 C-85.898 69.476 -89.925 71.251 -94 73 C-94 73.33 -94 73.66 -94 74 C-92.744 74.17 -91.489 74.34 -90.195 74.516 C-66.305 77.905 -48.934 88.927 -34 108 C-32.974 109.651 -31.967 111.314 -31 113 C-31.517 112.335 -32.034 111.67 -32.566 110.984 C-45.22 95.467 -61.065 78.879 -82 76 C-94.94 75.104 -94.94 75.104 -107 79 C-107.842 79.46 -108.684 79.92 -109.551 80.395 C-113.883 82.871 -117.673 85.223 -121 89 C-121 89.66 -121 90.32 -121 91 C-121.66 91 -122.32 91 -123 91 C-135.342 107.871 -137.182 129.393 -134.231 149.557 C-130.49 171.28 -121.531 190.434 -107 207 C-106.34 207.99 -105.68 208.98 -105 210 C-104.34 210 -103.68 210 -103 210 C-102.67 210.99 -102.34 211.98 -102 213 C-101.34 213 -100.68 213 -100 213 C-100 213.66 -100 214.32 -100 215 C-97.952 216.684 -95.915 218.228 -93.75 219.75 C-92.802 220.42 -92.802 220.42 -91.836 221.104 C-77.921 230.739 -64.822 234.69 -48 233 C-37.095 230.598 -29.191 224.751 -22.75 215.75 C-16.028 204.939 -12.979 193.566 -12 181 C-12.604 197.498 -17.467 211.227 -28 224 C-21.913 222.584 -16.524 220.019 -10.891 217.34 C-8 216 -8 216 -5 215 C-4.67 215.66 -4.34 216.32 -4 217 C0.349 209.412 0.349 209.412 3.75 201.375 C5 198 5 198 7 197 C3.215 182.262 -3.782 171.822 -17 164 C-17.66 164 -18.32 164 -19 164 C-19.269 163.429 -19.539 162.858 -19.816 162.27 C-21.036 159.931 -22.428 157.849 -23.938 155.688 C-26.5 151.903 -28.368 148.261 -30 144 C-30.66 144.66 -31.32 145.32 -32 146 C-34.688 146.27 -37.291 146.087 -40 146 C-39.67 145.34 -39.34 144.68 -39 144 C-39.66 144 -40.32 144 -41 144 C-41.33 143.34 -41.66 142.68 -42 142 C-42.66 141.01 -43.32 140.02 -44 139 C-44.452 132.677 -44.452 132.677 -42 129 C-38.265 129.498 -36.188 129.875 -33 132 C-28.619 116.175 -23.525 96.779 -31 81 C-33.117 79.128 -35.028 78.13 -37.625 77.031 C-40.058 75.975 -41.671 74.766 -43.688 73.062 C-50.795 67.52 -61.646 62.484 -70.82 62.582 C-74.874 63.359 -78.359 65.476 -81.977 67.398 Z " fill="#161616" transform="translate(175,31)"/>
<path d="M0 0 C2.316 -0.223 2.316 -0.223 5 0 C6.59 1.504 6.59 1.504 7.938 3.562 C8.448 4.293 8.958 5.024 9.484 5.777 C9.985 6.511 10.485 7.244 11 8 C14.284 12.646 17.326 15.347 22.438 17.938 C31.967 22.844 38.173 31.744 41.637 41.859 C43.541 53.078 41.898 63.223 38.222 73.871 C36.47 78.995 35.626 83.523 35.502 88.953 C35 91 35 91 33.095 92.288 C30.513 93.166 29.465 93.173 27 92 C25.578 89.961 25.578 89.961 24.25 87.375 C20.374 80.538 15.145 76.547 8.875 72 C1.11 66.226 -5.298 57.738 -7 48 C-7.511 39.267 -7.202 31.458 -4.723 23.016 C-3.63 18.454 -3.535 13.902 -3.406 9.227 C-2.952 5.617 -1.786 3.145 0 0 Z " fill="#FFFFFF" transform="translate(152,123)"/>
<path d="M0 0 C4.543 4.056 7.758 7.978 8.25 14.121 C8.25 17.091 8.175 20.035 8 23 C7.376 23.272 6.752 23.544 6.109 23.824 C3.501 25.278 2.6 26.904 1.539 29.66 C0.389 34.652 0.302 39.937 1 45 C1.76 45.708 1.76 45.708 2.535 46.43 C4 48 4 48 4.145 51.398 C4.035 52.711 3.925 54.023 3.812 55.375 C3.716 56.682 3.619 57.989 3.52 59.336 C2.897 63.729 2.462 66.754 -0.988 69.695 C-1.755 70.167 -2.522 70.639 -3.312 71.125 C-4.114 71.625 -4.916 72.125 -5.742 72.641 C-6.487 73.089 -7.232 73.538 -8 74 C-8.969 74.619 -9.939 75.238 -10.938 75.875 C-13 77 -13 77 -15 77 C-14.945 76.427 -14.889 75.853 -14.832 75.263 C-14.295 69.691 -13.767 64.119 -13.244 58.546 C-13.054 56.563 -12.852 54.582 -12.645 52.602 C-12.035 46.433 -11.954 40.325 -11.977 34.133 C-11.978 33.253 -11.98 32.373 -11.982 31.467 C-11.986 29.311 -11.993 27.156 -12 25 C-12.05 26.113 -12.1 27.227 -12.152 28.374 C-12.342 32.566 -12.542 36.757 -12.745 40.948 C-12.83 42.751 -12.914 44.554 -12.995 46.357 C-14.282 74.98 -14.282 74.98 -17.876 79.207 C-20.624 81.527 -23.563 83.443 -26.625 85.312 C-27.21 85.684 -27.795 86.056 -28.398 86.439 C-29.893 87.36 -31.444 88.188 -33 89 C-33.66 88.67 -34.32 88.34 -35 88 C-34.867 87.198 -34.734 86.396 -34.598 85.57 C-32.518 72.184 -31.928 58.848 -31.875 45.312 C-31.87 44.487 -31.866 43.662 -31.861 42.812 C-31.873 38.104 -32.217 33.643 -33 29 C-32.254 28.608 -32.254 28.608 -31.494 28.209 C-29.997 27.423 -28.501 26.636 -27.004 25.849 C-25.284 24.945 -23.563 24.042 -21.842 23.141 C-17.715 20.977 -13.605 18.796 -9.539 16.52 C-8.864 16.146 -8.19 15.772 -7.494 15.387 C-6.231 14.684 -4.974 13.973 -3.722 13.25 C0.518 10.908 0.518 10.908 3.188 11.419 C3.786 11.611 4.384 11.802 5 12 C4.29 12.368 3.58 12.735 2.848 13.114 C-0.415 14.804 -3.676 16.496 -6.938 18.188 C-8.054 18.766 -9.171 19.344 -10.322 19.939 C-16.042 22.908 -21.72 25.913 -27.295 29.146 C-29 30 -29 30 -31 30 C-31 30.66 -31 31.32 -31 32 C-30.11 31.51 -30.11 31.51 -29.203 31.01 C-17.904 24.791 -6.608 18.626 5 13 C5 12.01 5 11.02 5 10 C-1.888 7.59 -1.888 7.59 -9 6 C-9 5.34 -9 4.68 -9 4 C-8.434 3.795 -7.868 3.59 -7.285 3.379 C-6.552 3.109 -5.818 2.84 -5.062 2.562 C-4.332 2.296 -3.601 2.029 -2.848 1.754 C-1.017 1.146 -1.017 1.146 0 0 Z " fill="#FFFFFF" transform="translate(288,175)"/>
<path d="M0 0 C2.891 1.522 4.707 3.507 6.84 5.969 C7.673 6.765 7.673 6.765 8.523 7.578 C16.042 15.145 19.082 24.873 19.34 35.406 C19.05 42.401 18.003 46.481 13.34 51.844 C9.215 55.35 5.52 55.255 0.332 55.18 C-6.758 54.58 -12.375 49.259 -16.797 44.035 C-23.252 35.173 -26.764 23.92 -25.16 12.969 C-23.573 6.959 -21.714 2.244 -16.16 -1.031 C-10.448 -2.935 -5.454 -2.261 0 0 Z " fill="#0F0F0F" transform="translate(86.16015625,167.03125)"/>
<path d="M0 0 C1.267 0.965 1.267 0.965 2.559 1.949 C3.779 2.806 3.779 2.806 5.023 3.68 C9.016 6.521 9.016 6.521 10.559 7.949 C10.559 8.609 10.559 9.269 10.559 9.949 C11.143 10.212 11.726 10.475 12.328 10.746 C22.536 16.252 29.987 29.69 34.559 39.949 C35.07 42.504 35.07 42.504 35.246 44.824 C35.312 45.605 35.378 46.387 35.445 47.191 C35.501 48.062 35.501 48.062 35.559 48.949 C37.869 49.939 40.179 50.929 42.559 51.949 C42.535 52.59 42.512 53.231 42.488 53.891 C42.345 60.754 42.262 66.489 47.184 71.762 C47.967 72.484 48.751 73.205 49.559 73.949 C49.559 74.609 49.559 75.269 49.559 75.949 C50.219 75.949 50.879 75.949 51.559 75.949 C57.619 84.579 62.805 94.16 61.559 104.949 C61.004 107.981 60.332 110.966 59.559 113.949 C61.539 114.444 61.539 114.444 63.559 114.949 C64.284 119.354 64.608 123.521 64.647 127.997 C64.761 134.643 65.14 139.133 69.121 144.699 C76.216 155.386 73.211 170.382 70.871 182.324 C65.785 205.861 65.785 205.861 58.559 211.949 C56.239 213.377 53.961 214.684 51.559 215.949 C44.578 219.742 37.801 223.811 31.059 228.012 C30.12 228.596 29.182 229.181 28.215 229.783 C25.994 231.169 23.776 232.558 21.559 233.949 C20.899 233.289 20.239 232.629 19.559 231.949 C20.219 231.289 20.879 230.629 21.559 229.949 C24.844 219.552 24.487 207.567 25.184 196.762 C25.318 194.74 25.454 192.719 25.59 190.697 C25.919 185.782 26.241 180.866 26.559 175.949 C26.889 175.949 27.219 175.949 27.559 175.949 C27.795 187.479 27.483 198.883 26.621 210.387 C26.534 211.553 26.447 212.719 26.358 213.921 C25.982 218.675 25.574 223.284 24.559 227.949 C26.288 227.013 28.017 226.075 29.746 225.137 C30.709 224.615 31.672 224.093 32.664 223.555 C33.619 223.025 34.574 222.495 35.559 221.949 C36.462 221.512 37.366 221.075 38.297 220.625 C41.43 218.304 41.742 216.77 42.559 212.949 C43.049 209.145 43.35 205.338 43.621 201.512 C43.745 199.88 43.745 199.88 43.871 198.215 C44.678 187.138 45.17 176.048 45.559 164.949 C46.219 164.619 46.879 164.289 47.559 163.949 C47.788 175.265 47.526 186.472 46.684 197.762 C46.605 198.864 46.527 199.966 46.446 201.101 C46.003 206.64 45.347 211.681 43.559 216.949 C46.028 215.57 48.483 214.173 50.934 212.762 C51.632 212.374 52.331 211.987 53.051 211.588 C56.048 209.844 58.15 208.615 59.984 205.625 C60.723 202.184 61.111 198.835 61.371 195.324 C61.481 194.012 61.59 192.7 61.703 191.348 C61.539 187.485 61.192 187.388 58.559 184.949 C57.379 177.178 58.07 170.433 62.559 163.949 C64.699 163.246 64.699 163.246 66.559 162.949 C66.781 150.879 66.781 150.879 60.844 140.863 C58.691 137.657 59.379 134.428 59.602 130.699 C59.518 125.367 57.03 120.841 53.809 116.699 C52.152 114.381 52.327 112.73 52.559 109.949 C53.219 109.949 53.879 109.949 54.559 109.949 C55.219 111.269 55.879 112.589 56.559 113.949 C59.117 102.539 58.588 93.807 52.684 83.574 C50.234 79.777 47.57 76.315 44.559 72.949 C43.569 73.939 42.579 74.929 41.559 75.949 C41.472 75.031 41.386 74.114 41.297 73.168 C40.411 65.434 39.162 60.185 34.559 53.949 C32.947 50.727 32.342 47.72 31.746 44.199 C30.87 39.443 29.111 35.856 26.582 31.762 C25.559 29.949 25.559 29.949 25.559 27.949 C24.899 27.949 24.239 27.949 23.559 27.949 C23.792 31.793 24.984 33.577 27.559 36.262 C32.072 41.217 31.762 46.434 31.559 52.949 C30.899 52.619 30.239 52.289 29.559 51.949 C29.18 49.734 29.18 49.734 28.996 47.012 C28.791 43.342 28.791 43.342 27.559 39.949 C27.229 41.599 26.899 43.249 26.559 44.949 C25.899 44.949 25.239 44.949 24.559 44.949 C24.641 44.104 24.724 43.258 24.809 42.387 C24.497 38.106 23.643 35.034 20.559 31.949 C18.283 31.1 16.135 30.701 13.738 30.324 C9.342 29.568 7.096 27.574 4.246 24.262 C2.108 20.065 2.238 17.598 2.559 12.949 C3.219 12.949 3.879 12.949 4.559 12.949 C3.169 11.194 1.772 9.445 0.371 7.699 C-0.795 6.237 -0.795 6.237 -1.984 4.746 C-6.12 -0.096 -6.12 -0.096 -11.801 -2.512 C-17.548 -2.305 -22.885 -1.554 -28.441 -0.051 C-27.472 0.712 -26.503 1.475 -25.504 2.262 C-20.468 6.591 -16.532 11.745 -12.441 16.949 C-11.541 18.084 -10.64 19.218 -9.738 20.352 C-7.407 23.291 -5.098 26.247 -2.798 29.21 C-1.468 30.915 -0.124 32.606 1.223 34.297 C2.035 35.337 2.847 36.377 3.684 37.449 C4.408 38.367 5.132 39.285 5.879 40.23 C7.718 43.208 8.223 45.492 8.559 48.949 C7.569 48.454 7.569 48.454 6.559 47.949 C5.828 45.635 5.157 43.301 4.559 40.949 C3.899 40.949 3.239 40.949 2.559 40.949 C1.07 39.105 1.07 39.105 -0.754 36.449 C-14.191 15.943 -14.191 15.943 -32.441 0.949 C-35.325 0.896 -37.911 0.975 -40.754 1.262 C-41.865 1.354 -41.865 1.354 -42.998 1.447 C-44.814 1.6 -46.628 1.772 -48.441 1.949 C-48.111 1.289 -47.781 0.629 -47.441 -0.051 C-45.495 -0.629 -45.495 -0.629 -42.961 -1.086 C-41.585 -1.34 -41.585 -1.34 -40.182 -1.6 C-39.215 -1.769 -38.249 -1.939 -37.254 -2.113 C-35.834 -2.373 -35.834 -2.373 -34.385 -2.639 C-31.739 -3.121 -29.091 -3.588 -26.441 -4.051 C-24.798 -4.343 -24.798 -4.343 -23.121 -4.641 C-13.808 -6.066 -7.798 -5.58 0 0 Z " fill="#131313" transform="translate(229.44140625,35.05078125)"/>
<path d="M0 0 C2.277 -0.227 2.277 -0.227 5 0 C6.879 1.539 6.879 1.539 8.562 3.625 C9.158 4.353 9.754 5.082 10.367 5.832 C11.707 7.611 12.96 9.454 14.188 11.312 C16.343 14.508 18.232 16.207 21.75 17.785 C33.099 22.905 38.408 31.859 43 43 C45.795 53.573 43.965 63.136 40.238 73.172 C38.447 78.286 37.977 83.488 37.457 88.855 C37.041 91.718 36.478 93.549 35 96 C33.02 96 31.04 96 29 96 C29.289 96.831 29.577 97.663 29.875 98.52 C30.246 99.606 30.618 100.693 31 101.812 C31.371 102.891 31.743 103.97 32.125 105.082 C33 108 33 108 33 111 C40.321 109.428 46.848 107.403 53.527 103.988 C56.206 102.918 58.143 102.811 61 103 C61 103.66 61 104.32 61 105 C59.35 105.66 57.7 106.32 56 107 C56.351 107.722 56.701 108.444 57.062 109.188 C58.118 112.354 58.019 113.859 57 117 C56.34 117.66 55.68 118.32 55 119 C58.876 122.987 62.958 126.643 67.188 130.25 C67.816 130.791 68.444 131.333 69.092 131.891 C72.342 134.739 72.342 134.739 76 137 C76 136.01 76 135.02 76 134 C75.34 133.67 74.68 133.34 74 133 C76.274 128.332 76.274 128.332 79.188 127 C83.272 127 86.484 127.904 90 130 C93.05 133.11 95.479 136.598 96 141 C93.812 144.25 93.812 144.25 91 147 C89.68 147 88.36 147 87 147 C87 147.66 87 148.32 87 149 C83.083 147.348 80.109 144.696 76.938 141.938 C75.779 140.943 74.62 139.95 73.461 138.957 C72.882 138.46 72.303 137.963 71.706 137.452 C69.186 135.308 66.627 133.215 64.062 131.125 C62.738 130.044 62.738 130.044 61.387 128.941 C59.933 127.759 58.478 126.579 57.02 125.402 C53.108 122.215 53.108 122.215 52 120 C50.68 120 49.36 120 48 120 C49.453 123.524 51.228 125.218 54.25 127.5 C59.374 131.466 64.284 135.632 69.177 139.875 C69.745 140.366 70.313 140.857 70.898 141.363 C71.433 141.826 71.968 142.288 72.519 142.764 C73.772 143.81 75.088 144.78 76.414 145.73 C77.199 146.359 77.199 146.359 78 147 C78 147.66 78 148.32 78 149 C73.962 147.637 71.456 145.859 68.375 142.938 C63.914 138.797 59.3 134.935 54.543 131.141 C47.367 125.1 47.367 125.1 46 121 C42.535 121.495 42.535 121.495 39 122 C37.502 118.629 37 116.796 37 113 C35.35 113 33.7 113 32 113 C31.34 111.68 30.68 110.36 30 109 C29.709 109.75 29.417 110.5 29.117 111.273 C23.436 125.459 16.661 136.471 3 144 C-5.663 147.68 -14.63 148.77 -24 148 C-26.367 146.988 -26.367 146.988 -28 146 C-26.756 145.974 -25.512 145.948 -24.23 145.922 C-9.308 145.476 1.446 143.152 13 133 C17.783 127.915 21.194 122.359 24 116 C24.373 115.175 24.745 114.35 25.129 113.5 C26.098 111.338 27.055 109.172 28 107 C28.66 107 29.32 107 30 107 C28.807 104.139 27.596 101.287 26.375 98.438 C26.044 97.638 25.712 96.838 25.371 96.014 C21.905 88.002 17.753 82.661 10.125 78.25 C1.559 72.776 -3.296 64.821 -8 56 C-8.33 56.33 -8.66 56.66 -9 57 C-11.671 57.141 -14.324 57.042 -17 57 C-17.433 56.041 -17.433 56.041 -17.875 55.062 C-18.828 52.848 -18.828 52.848 -21 52 C-22.188 48.435 -22.263 45.744 -22 42 C-20.5 39.562 -20.5 39.562 -19 38 C-13.25 38.75 -13.25 38.75 -11 41 C-10.71 39.826 -10.71 39.826 -10.414 38.629 C-10.023 37.111 -10.023 37.111 -9.625 35.562 C-9.37 34.553 -9.115 33.544 -8.852 32.504 C-8 30 -8 30 -6 29 C-6.021 29.584 -6.042 30.168 -6.063 30.769 C-6.936 45.97 -6.936 45.97 -2 60 C-1.553 60.784 -1.105 61.567 -0.645 62.375 C2.99 68.299 7.316 72.423 12.977 76.383 C19.083 80.697 25.623 86.297 27 94 C29 94.043 31 94.041 33 94 C34.793 92.207 34.476 89.369 34.75 86.938 C35.484 81.361 36.756 76.475 38.625 71.188 C42.163 60.763 43.352 48.517 38.383 38.336 C33.717 30.454 29.613 24.772 21.453 20.379 C15.562 17.068 11.383 12.86 7.875 7.125 C5.666 3.48 5.666 3.48 1.625 1.938 C0.759 1.958 -0.108 1.979 -1 2 C-0.67 1.34 -0.34 0.68 0 0 Z " fill="#0D0D0D" transform="translate(152,121)"/>
<path d="M0 0 C6.317 5.735 11.677 12.224 17.051 18.828 C18.174 20.205 18.174 20.205 19.32 21.609 C21.25 24.001 23.158 26.407 25.051 28.828 C25.653 29.595 26.255 30.362 26.875 31.152 C27.428 31.87 27.981 32.588 28.551 33.328 C29.035 33.957 29.52 34.586 30.02 35.234 C31.051 36.828 31.051 36.828 31.051 38.828 C31.711 38.828 32.371 38.828 33.051 38.828 C34.964 42.627 36.389 46.009 35.594 50.289 C33.762 54.418 32.06 56.36 27.918 58.281 C23.601 59.653 19.598 60.828 15.051 60.828 C15.037 59.994 15.022 59.16 15.008 58.301 C14.515 46.671 10.948 40.568 3.188 32.172 C0.884 29.645 -1.294 27.045 -3.449 24.391 C-4.12 23.567 -4.79 22.743 -5.48 21.895 C-6.949 19.828 -6.949 19.828 -6.949 17.828 C-7.609 17.828 -8.269 17.828 -8.949 17.828 C-10.235 16.333 -11.453 14.78 -12.637 13.203 C-16.074 8.779 -19.566 5.298 -23.949 1.828 C-20.716 -0.005 -17.73 -0.741 -14.074 -1.359 C-13.066 -1.539 -12.058 -1.718 -11.02 -1.902 C-6.958 -2.259 -3.552 -2.136 0 0 Z " fill="#FFFFFF" transform="translate(200.94921875,37.171875)"/>
<path d="M0 0 C-0.33 0.66 -0.66 1.32 -1 2 C-1.799 1.492 -2.598 0.984 -3.422 0.461 C-21.101 -10.62 -38.154 -18.411 -59.434 -14.344 C-73.826 -10.002 -84.208 -0.716 -91.613 12.168 C-96.126 21.242 -96.126 21.242 -98 31 C-97.564 30.276 -97.129 29.551 -96.68 28.805 C-93.198 23.153 -89.785 18.568 -85 14 C-83.265 11.416 -83.265 11.416 -82 9 C-81.34 8.01 -80.68 7.02 -80 6 C-79.34 6 -78.68 6 -78 6 C-77.67 5.01 -77.34 4.02 -77 3 C-70.436 -2.715 -61.835 -8.196 -52.875 -8.25 C-51.926 -8.168 -50.977 -8.085 -50 -8 C-50 -7.34 -50 -6.68 -50 -6 C-50.75 -5.841 -51.5 -5.683 -52.273 -5.52 C-64.041 -2.837 -71.862 1.036 -80 10 C-77.815 9.018 -75.63 8.035 -73.445 7.052 C-71.604 6.225 -69.762 5.397 -67.92 4.571 C-62.11 1.961 -62.11 1.961 -56.328 -0.711 C-55.374 -1.157 -54.42 -1.603 -53.438 -2.062 C-52.632 -2.445 -51.826 -2.828 -50.996 -3.223 C-49 -4 -49 -4 -46 -4 C-46 -3.34 -46 -2.68 -46 -2 C-52.435 0.97 -52.435 0.97 -59 4 C-57.889 4.17 -56.778 4.34 -55.633 4.516 C-32.264 8.25 -14.469 20.23 0 39 C1.048 40.976 2.06 42.971 3 45 C-0.331 43.89 -0.623 43.451 -2.5 40.688 C-13.661 25.386 -27.734 13.366 -46.387 8.359 C-55.278 7.137 -65.994 6.425 -74 11 C-74.842 11.449 -75.684 11.897 -76.551 12.359 C-81.34 15.048 -84.788 17.45 -88 22 C-88.66 22 -89.32 22 -90 22 C-90.28 22.728 -90.559 23.457 -90.848 24.207 C-91.917 26.798 -93.125 29.214 -94.438 31.688 C-105.065 52.755 -102.335 78.104 -95.438 99.938 C-90.946 113.232 -84.048 125.453 -74.715 135.934 C-73 138 -73 138 -72 141 C-71.34 141 -70.68 141 -70 141 C-68.375 142.375 -68.375 142.375 -67 144 C-67 144.66 -67 145.32 -67 146 C-66.433 146.263 -65.866 146.526 -65.281 146.797 C-62.829 148.09 -60.728 149.601 -58.5 151.25 C-44.809 160.937 -31.598 164.696 -15 163 C-4.524 160.618 2.982 155.478 9.188 146.812 C16.056 135.845 18.997 124.228 20.125 111.5 C20.255 110.123 20.255 110.123 20.387 108.719 C20.597 106.48 20.801 104.24 21 102 C21.33 102 21.66 102 22 102 C22.663 120.895 19.851 138.335 7 153 C11.15 153 15.385 150.211 19.146 148.488 C20.201 148.015 20.201 148.015 21.277 147.531 C21.919 147.238 22.561 146.945 23.222 146.643 C25 146 25 146 28 146 C28 146.66 28 147.32 28 148 C18.236 152.375 8.45 156.7 -1.375 160.938 C-2.72 161.521 -2.72 161.521 -4.093 162.117 C-5.358 162.66 -5.358 162.66 -6.648 163.215 C-7.393 163.536 -8.137 163.857 -8.904 164.187 C-19.403 168.258 -33.581 167.132 -43.949 163.391 C-69.838 151.59 -87.205 129.346 -97.438 103.348 C-104.736 82.648 -106.52 61.344 -101.559 39.887 C-100.71 37.072 -100.71 37.072 -102 35 C-101.398 32.322 -100.724 29.75 -99.938 27.125 C-99.709 26.36 -99.48 25.595 -99.244 24.807 C-94.1 8.254 -85.841 -3.565 -70.727 -12.316 C-46.893 -24.69 -20.104 -15.454 0 0 Z " fill="#000000" transform="translate(142,100)"/>
<path d="M0 0 C2.104 1.781 3.957 3.638 5.809 5.68 C6.412 6.324 7.015 6.969 7.637 7.633 C11.809 12.273 11.809 12.273 11.809 14.68 C11.149 14.68 10.489 14.68 9.809 14.68 C10.093 16.264 10.386 17.847 10.684 19.43 C10.846 20.311 11.008 21.193 11.176 22.102 C11.784 24.578 12.487 26.505 13.809 28.68 C16.165 29.965 18.301 30.613 20.961 30.961 C24.462 31.474 26.953 31.84 29.535 34.375 C31.664 37.503 32.743 39.892 33.059 43.68 C30.718 49.296 25.61 55.523 19.934 57.867 C16.919 58.651 15.648 58.772 12.809 57.68 C13.139 57.164 13.469 56.648 13.809 56.117 C15.194 52.741 15.184 50.306 14.809 46.68 C11.719 41.525 7.939 36.849 4.246 32.117 C3.635 31.331 3.024 30.545 2.394 29.734 C-1.921 24.215 -6.358 18.82 -10.99 13.564 C-14.191 9.887 -14.191 9.887 -14.191 7.68 C-15.181 7.35 -16.171 7.02 -17.191 6.68 C-18.566 5.389 -19.9 4.054 -21.191 2.68 C-21.851 2.02 -22.511 1.36 -23.191 0.68 C-5.222 -3.146 -5.222 -3.146 0 0 Z " fill="#FFFFFF" transform="translate(222.19140625,33.3203125)"/>
<path d="M0 0 C5.749 5.438 8.269 10.088 10.062 17.75 C10.638 20.205 11.272 22.582 12 25 C12.66 25.33 13.32 25.66 14 26 C14 25.34 14 24.68 14 24 C17.63 22.68 21.26 21.36 25 20 C27.461 32.014 27.461 32.014 26 36 C24.004 37.363 24.004 37.363 21.562 38.312 C20.358 38.802 20.358 38.802 19.129 39.301 C17 40 17 40 15 40 C16.32 44.29 17.64 48.58 19 53 C8.5 58.125 8.5 58.125 4 57 C3.34 53.7 2.68 50.4 2 47 C0.597 47.701 -0.805 48.403 -2.25 49.125 C-6.297 51.149 -6.297 51.149 -9.219 50.531 C-11.942 48.19 -11.839 45.869 -12.25 42.375 C-12.4 41.186 -12.549 39.998 -12.703 38.773 C-12.801 37.858 -12.899 36.943 -13 36 C-11.733 35.326 -10.461 34.661 -9.188 34 C-8.48 33.629 -7.772 33.257 -7.043 32.875 C-5 32 -5 32 -2 32 C-1.67 30.35 -1.34 28.7 -1 27 C1 30 1 30 2 33 C3.98 33.33 5.96 33.66 8 34 C8 31.36 8 28.72 8 26 C5.69 25.67 3.38 25.34 1 25 C1.07 24.371 1.139 23.742 1.211 23.094 C1.621 16.612 0.53 13.338 -3.688 8.398 C-4.337 7.706 -4.337 7.706 -5 7 C-4.34 6.01 -3.68 5.02 -3 4 C-5.64 4.66 -8.28 5.32 -11 6 C-11 5.34 -11 4.68 -11 4 C-5.555 2.02 -5.555 2.02 0 0 Z " fill="#FFFFFF" transform="translate(245,113)"/>
<path d="M0 0 C0.33 0 0.66 0 1 0 C1.206 4.75 1.134 9.377 0.449 14.086 C0.347 14.794 0.244 15.501 0.138 16.23 C-0.077 17.644 -0.306 19.056 -0.552 20.465 C-1.034 23.639 -1.279 25.504 0.324 28.352 C1.154 29.168 1.154 29.168 2 30 C4.313 32.313 4.496 33.479 5.125 36.625 C5.293 37.442 5.46 38.26 5.633 39.102 C5.754 39.728 5.875 40.355 6 41 C7.65 40.34 9.3 39.68 11 39 C11 39.99 11 40.98 11 42 C3 44.667 -5 47.333 -13 50 C-12.783 50.652 -12.567 51.305 -12.344 51.977 C-10.815 56.775 -9.597 60.899 -10 66 C-8.68 65.34 -7.36 64.68 -6 64 C-6.32 64.847 -6.639 65.694 -6.969 66.566 C-8.042 70.139 -8.336 73.219 -8.5 76.938 C-8.792 81.955 -9.313 86.276 -11 91 C-11.66 91 -12.32 91 -13 91 C-12.839 89.854 -12.678 88.708 -12.512 87.527 C-11.973 83.194 -11.809 78.926 -11.812 74.562 C-11.812 73.449 -11.812 73.449 -11.811 72.314 C-11.862 66.944 -12.591 62.197 -14 57 C-14 55.68 -14 54.36 -14 53 C-14.539 52.921 -15.078 52.843 -15.633 52.762 C-18.886 51.715 -21.137 49.851 -23.875 47.812 C-33.258 41.044 -44.18 35.355 -56 36 C-56.99 36.66 -57.98 37.32 -59 38 C-59.916 37.983 -60.833 37.967 -61.777 37.949 C-65.697 38.011 -68.048 39.11 -71.57 40.809 C-72.174 41.095 -72.777 41.381 -73.399 41.676 C-75.313 42.586 -77.219 43.511 -79.125 44.438 C-81.039 45.358 -82.955 46.275 -84.872 47.188 C-86.608 48.017 -88.34 48.855 -90.071 49.693 C-92.421 50.742 -94.489 51.506 -97 52 C-90.617 44.192 -83.413 37.392 -73.129 35.461 C-70.747 35.224 -68.393 35.056 -66 35 C-65.67 34.01 -65.34 33.02 -65 32 C-47.767 30.509 -30.544 37.904 -17.477 48.715 C-16.989 49.139 -16.502 49.563 -16 50 C-15.01 49.01 -14.02 48.02 -13 47 C-13.516 45.989 -14.031 44.979 -14.562 43.938 C-16.268 39.975 -15.833 37.242 -15 33 C-14.963 30.667 -14.952 28.333 -15 26 C-10.707 23.547 -7.907 22.835 -3 23 C-2.939 21.998 -2.879 20.997 -2.816 19.965 C-2.732 18.622 -2.647 17.28 -2.562 15.938 C-2.441 13.971 -2.441 13.971 -2.316 11.965 C-1.48 1.48 -1.48 1.48 0 0 Z " fill="#121212" transform="translate(158,59)"/>
<path d="M0 0 C10.52 6.718 17.409 17.106 20.511 29.185 C21.241 32.973 21.374 36.74 21.402 40.59 C21.409 41.327 21.415 42.063 21.422 42.822 C21.281 48.855 20.09 54.483 16.254 59.273 C12.89 61.96 10.372 63.944 5.902 64.215 C6.397 63.08 6.892 61.946 7.402 60.777 C11.515 48.181 9.255 35.012 3.902 23.215 C2.399 20.634 0.839 18.232 -0.961 15.852 C-2.098 14.215 -2.098 14.215 -2.098 12.215 C-2.902 11.875 -2.902 11.875 -3.723 11.527 C-6.278 10.115 -8.311 8.343 -10.523 6.453 C-14.33 3.459 -18.345 1.914 -23.098 1.215 C-16.778 -6.103 -7.658 -4.261 0 0 Z " fill="#FFFFFF" transform="translate(100.09765625,157.78515625)"/>
<path d="M0 0 C0.956 0.597 1.913 1.194 2.898 1.809 C4.887 3.164 4.887 3.164 7 3 C7.99 5.97 7.99 5.97 9 9 C7.68 9.99 6.36 10.98 5 12 C4.368 11.504 3.737 11.007 3.086 10.496 C-12.061 -1.006 -28.274 -7.844 -47.551 -5.719 C-56.82 -4.219 -64.691 0.246 -72 6 C-72.33 6.66 -72.66 7.32 -73 8 C-73.66 8 -74.32 8 -75 8 C-75.248 8.536 -75.495 9.073 -75.75 9.625 C-78.117 14.122 -80.906 17.934 -84.375 21.625 C-88.742 26.473 -91.317 32.103 -94 38 C-95.335 33.995 -94.127 31.238 -92.875 27.375 C-92.643 26.654 -92.412 25.932 -92.173 25.189 C-87.268 10.411 -77.906 -2.102 -63.938 -9.312 C-41.6 -20.256 -19.851 -12.02 0 0 Z " fill="#FFFFFF" transform="translate(137,98)"/>
<path d="M0 0 C5.581 2.894 10.163 6.043 14.375 10.75 C14.375 11.41 14.375 12.07 14.375 12.75 C15.035 12.75 15.695 12.75 16.375 12.75 C23.27 24.292 28.567 36.602 25.871 50.312 C24.2 56.731 21.979 61.485 16.188 65.125 C9.288 66.658 2.96 66.412 -3.402 63.191 C-13.864 56.407 -21.4 44.899 -24.184 32.801 C-25.521 23.555 -26.203 14.039 -21.238 5.746 C-15.418 -1.455 -8.677 -2.992 0 0 Z M-16.75 8.438 C-21.212 13.94 -22.204 19.859 -21.965 26.762 C-20.611 38.665 -15.437 48.837 -6.438 56.812 C-0.584 60.845 4.361 61.448 11.375 60.75 C15.569 59.43 17.492 57.945 19.688 54.25 C24.001 45.304 23.422 35.836 20.375 26.5 C16.611 17.053 10.841 9.026 1.375 4.75 C-6.046 2.525 -10.812 3.722 -16.75 8.438 Z " fill="#FFFFFF" transform="translate(82.625,161.25)"/>
<path d="M0 0 C0.66 0 1.32 0 2 0 C6.582 7.596 9.478 13.574 10.543 22.469 C11.149 25.825 12.617 27.617 15 30 C17.002 33.292 17.549 36.465 18.125 40.25 C18.293 41.328 18.46 42.405 18.633 43.516 C18.754 44.335 18.875 45.155 19 46 C19.66 45.34 20.32 44.68 21 44 C29.068 53.378 35.263 61.293 36 74 C35.604 78.07 34.904 82.014 34 86 C33.01 86 32.02 86 31 86 C31 84.68 31 83.36 31 82 C30.34 82 29.68 82 29 82 C29.495 85.465 29.495 85.465 30 89 C25.167 84.951 23.617 81.033 22 75 C22.45 80.853 25.038 85.082 28 90 C23.25 89.125 23.25 89.125 21 88 C20.402 85.27 20.402 85.27 19.938 81.812 C19.782 80.685 19.626 79.557 19.465 78.395 C19.311 77.274 19.158 76.154 19 75 C18.786 73.939 18.572 72.878 18.352 71.785 C17.863 67.917 19.472 65.545 21 62 C21.805 58.155 21.842 55.288 19.652 51.938 C18.17 50.2 16.653 48.574 15 47 C15.99 46.505 15.99 46.505 17 46 C16.34 45.01 15.68 44.02 15 43 C14.677 41.217 14.412 39.423 14.188 37.625 C13.536 33.835 13.064 32.092 10.812 28.875 C6.395 25.93 2.746 25.778 -2.438 26.438 C-3.283 26.623 -4.129 26.809 -5 27 C-1.208 21.246 -1.208 21.246 0.688 19 C2.391 16.404 2.653 14.053 3 11 C5.523 12.974 5.993 13.967 6.688 17.188 C6.842 18.58 6.842 18.58 7 20 C6.901 14.442 6.238 11.836 2.375 7.75 C1.723 7.126 1.07 6.502 0.398 5.859 C-1 4 -1 4 -0.711 1.766 C-0.476 1.183 -0.242 0.6 0 0 Z " fill="#FFFFFF" transform="translate(253,63)"/>
<path d="M0 0 C11.516 6.506 18.818 15.965 23.102 28.371 C26.11 40.08 26.096 50.657 20.676 61.531 C15.668 68.644 4.248 73.095 -4.062 75 C-12.228 75.538 -19.82 72.081 -26 66.938 C-28.158 65.014 -29.421 63.462 -31.062 61 C-32.382 61 -33.703 61 -35.062 61 C-36.383 61 -37.703 61 -39.062 61 C-39.722 60.01 -40.383 59.02 -41.062 58 C-40.279 58.206 -39.495 58.412 -38.688 58.625 C-37.821 58.749 -36.955 58.873 -36.062 59 C-35.403 58.34 -34.742 57.68 -34.062 57 C-34.681 56.484 -35.3 55.969 -35.938 55.438 C-38.534 52.459 -39.016 49.768 -40.062 46 C-41.053 45.34 -42.043 44.68 -43.062 44 C-43.261 50.084 -43.261 50.084 -42.062 56 C-42.722 56 -43.383 56 -44.062 56 C-46.254 48.817 -46.254 48.817 -45.375 45.062 C-44.062 43 -44.062 43 -41.062 42 C-41.207 41.359 -41.351 40.719 -41.5 40.059 C-43.789 29.394 -43.69 19.38 -37.875 9.75 C-29.998 0.004 -11.309 -5.266 0 0 Z M-21.062 3 C-21.062 3.33 -21.062 3.66 -21.062 4 C-20.482 4.17 -19.902 4.34 -19.305 4.516 C-12.207 6.718 -7.333 9.73 -2.062 15 C-1.403 15 -0.743 15 -0.062 15 C0.207 15.544 0.476 16.088 0.754 16.648 C1.6 18.329 2.464 20 3.34 21.664 C9.939 34.392 13.407 46.76 10.258 61.094 C9.438 63.562 9.438 63.562 7.938 67 C12.408 66.729 14.925 64.745 18.289 62.059 C24.56 54.227 23.971 43.457 22.938 34 C20.37 21.745 13.412 10.191 2.91 3.113 C-5.976 -1.902 -12.183 -2.048 -21.062 3 Z M-36.676 11.996 C-41.714 20.411 -41.152 30.207 -39.398 39.531 C-36.183 51.275 -29.339 62.707 -18.906 69.379 C-13.402 72.16 -8.163 72.852 -2.062 72 C2.677 70.332 5.302 68.272 7.938 64 C12.792 52.103 11.025 41.902 6.938 30 C5.148 26.189 3.165 22.571 0.938 19 C0.278 19 -0.382 19 -1.062 19 C-1.455 18.105 -1.455 18.105 -1.855 17.191 C-4.823 11.803 -11.209 7.462 -16.875 5.312 C-25.32 4.106 -31.118 5.12 -36.676 11.996 Z " fill="#000000" transform="translate(98.0625,155)"/>
<path d="M0 0 C0.66 0.33 1.32 0.66 2 1 C2 3.64 2 6.28 2 9 C1.186 9.311 1.186 9.311 0.355 9.629 C-3.674 11.364 -5.625 12.349 -7.875 16.25 C-8.246 17.488 -8.618 18.725 -9 20 C-9.237 20.643 -9.474 21.286 -9.719 21.949 C-11.255 26.603 -11.045 29.82 -9.051 34.309 C-7.468 36.856 -5.726 37.832 -3 39 C-2.278 39.392 -1.556 39.784 -0.812 40.188 C4.336 41.675 9.917 41.694 15 40 C17.264 41.404 19.021 43.197 21 45 C19.578 48.554 18.485 50.642 15.375 52.938 C10.087 54.602 5.672 54.272 0.645 51.879 C-1.365 50.68 -3.238 49.541 -5 48 C-5 47.34 -5 46.68 -5 46 C-5.66 46 -6.32 46 -7 46 C-15.512 34.842 -18.528 24.894 -17 11 C-15.447 6.571 -13.171 3.986 -9.625 1 C-6.269 -0.278 -3.561 -0.269 0 0 Z " fill="#FFFFFF" transform="translate(80,167)"/>
<path d="M0 0 C-0.33 0.99 -0.66 1.98 -1 3 C-0.504 5.179 -0.504 5.179 0.375 7.438 C2.658 13.743 2.658 13.743 3 16 C1.215 18.647 -0.12 20.56 -3 22 C-8.335 22.354 -12.256 21.293 -16.438 17.938 C-20.306 14.177 -21.482 11.354 -22 6 C-21.375 3.125 -21.375 3.125 -20 1 C-14.195 -2.653 -6.419 -1.351 0 0 Z " fill="#060606" transform="translate(242,209)"/>
<path d="M0 0 C3.575 2.051 6.333 4.216 7.805 8.152 C8.491 12.252 8.245 15.204 6.25 18.875 C2.893 23.537 2.893 23.537 1 25 C-1 25 -1 25 -2.312 23.812 C-2.869 23.214 -3.426 22.616 -4 22 C-4.846 21.175 -5.691 20.35 -6.562 19.5 C-9.89 16.087 -11.247 13.645 -12 9 C-11.498 13.269 -11.029 17.168 -9 21 C-8.01 21.33 -7.02 21.66 -6 22 C-6.33 22.66 -6.66 23.32 -7 24 C-14.287 16.905 -14.287 16.905 -14.375 11.125 C-14.302 7.553 -14.095 6.163 -12.25 3 C-8.02 -0.76 -5.596 -1.756 0 0 Z " fill="#060606" transform="translate(194,81)"/>
<path d="M0 0 C0.33 0 0.66 0 1 0 C1.23 11.316 0.967 22.522 0.125 33.812 C0.047 34.914 -0.032 36.016 -0.113 37.152 C-0.556 42.691 -1.211 47.732 -3 53 C-0.531 51.621 1.924 50.224 4.375 48.812 C5.074 48.425 5.772 48.038 6.492 47.639 C10.613 45.242 10.613 45.242 13.445 41.492 C14.153 38.311 14.438 35.233 14.656 31.988 C15 30 15 30 17 28 C17.495 28.99 17.495 28.99 18 30 C18.398 28.393 18.398 28.393 18.805 26.754 C19.161 25.357 19.518 23.96 19.875 22.562 C20.049 21.855 20.223 21.148 20.402 20.42 C20.874 18.596 21.431 16.796 22 15 C22.66 14.67 23.32 14.34 24 14 C23.772 20.954 22.263 27.192 20.25 33.812 C20.01 34.637 19.77 35.461 19.523 36.31 C16.948 44.46 12.467 48.068 5 52 C-1.981 55.793 -8.757 59.862 -15.5 64.062 C-16.438 64.647 -17.377 65.232 -18.344 65.834 C-20.564 67.22 -22.783 68.609 -25 70 C-25.66 69.34 -26.32 68.68 -27 68 C-26.01 67.01 -26.01 67.01 -25 66 C-21.714 55.603 -22.071 43.617 -21.375 32.812 C-21.24 30.791 -21.105 28.769 -20.969 26.748 C-20.639 21.832 -20.318 16.916 -20 12 C-19.67 12 -19.34 12 -19 12 C-18.763 23.53 -19.076 34.934 -19.938 46.438 C-20.024 47.604 -20.111 48.77 -20.201 49.972 C-20.577 54.726 -20.985 59.334 -22 64 C-20.27 63.064 -18.541 62.126 -16.812 61.188 C-15.85 60.665 -14.887 60.143 -13.895 59.605 C-12.939 59.076 -11.984 58.546 -11 58 C-10.096 57.563 -9.193 57.126 -8.262 56.676 C-5.129 54.355 -4.817 52.821 -4 49 C-3.509 45.195 -3.209 41.388 -2.938 37.562 C-2.854 36.474 -2.771 35.385 -2.686 34.264 C-2.044 25.516 -1.622 16.764 -1.342 7.998 C-1.31 7.091 -1.279 6.184 -1.246 5.25 C-1.222 4.451 -1.198 3.652 -1.174 2.828 C-1 1 -1 1 0 0 Z " fill="#010101" transform="translate(276,199)"/>
<path d="M0 0 C0.33 1.32 0.66 2.64 1 4 C1.722 3.505 2.444 3.01 3.188 2.5 C6.239 0.873 7.621 0.307 11 1 C13.522 3.113 14.771 4.785 15.387 8.055 C15.666 13.618 14.458 18.55 11 23 C8.509 24.547 7.398 25.019 4.438 24.875 C1.454 23.804 0.59 22.702 -1 20 C-1.33 19.01 -1.66 18.02 -2 17 C-2.66 17 -3.32 17 -4 17 C-4.333 10.793 -3.501 6.701 -1 1 C-0.67 0.67 -0.34 0.34 0 0 Z " fill="#0B0B0B" transform="translate(162,42)"/>
<path d="M0 0 C2.934 1.109 2.934 1.109 6.438 2.75 C7.591 3.281 8.745 3.812 9.934 4.359 C13.947 6.507 15.561 7.682 17 12 C17.142 13.663 17.22 15.332 17.25 17 C17.276 17.866 17.302 18.733 17.328 19.625 C17 22 17 22 15.922 23.652 C13.139 25.604 10.219 26.493 7 27.562 C3.27 28.81 0.277 29.815 -3 32 C-3.33 32.99 -3.66 33.98 -4 35 C-5.777 36.168 -5.777 36.168 -7.938 37.188 C-8.648 37.532 -9.358 37.876 -10.09 38.23 C-12 39 -12 39 -14 39 C-13.558 36.021 -13.192 33.722 -12 31 C-9.487 29.273 -7.705 28.299 -4.938 27.25 C-4.264 26.963 -3.591 26.677 -2.898 26.381 C0.028 25.142 2.984 24.006 5.957 22.887 C9.094 21.663 9.094 21.663 12 20 C13.235 17.015 13.235 17.015 13 14 C13 13.01 13 12.02 13 11 C7.965 9.993 4.761 10.026 0 12 C-1.193 8.123 -2 5.084 -2 1 C-1.34 0.67 -0.68 0.34 0 0 Z " fill="#FFFFFF" transform="translate(268,152)"/>
<path d="M0 0 C-6.554 8.962 -16.073 15.642 -27 18 C-29.821 18.207 -32.611 18.192 -35.438 18.125 C-36.169 18.116 -36.901 18.107 -37.654 18.098 C-39.436 18.074 -41.218 18.039 -43 18 C-41.441 14.883 -38.901 14.649 -35.688 13.438 C-28.264 10.58 -21.028 7.372 -13.792 4.072 C-2.314 -1.157 -2.314 -1.157 0 0 Z " fill="#FFFFFF" transform="translate(170,249)"/>
<path d="M0 0 C0.33 1.98 0.66 3.96 1 6 C-19.803 15 -19.803 15 -26 15 C-26.33 12.36 -26.66 9.72 -27 7 C-26.227 6.746 -25.453 6.492 -24.656 6.23 C-18.72 4.269 -12.84 2.23 -7 0 C-3.867 -1.044 -3.01 -0.934 0 0 Z " fill="#FFFFFF" transform="translate(258,100)"/>
<path d="M0 0 C1.625 0.75 1.625 0.75 2.625 1.75 C2.666 3.416 2.668 5.084 2.625 6.75 C-5.247 10.788 -13.066 14.668 -21.375 17.75 C-22.365 15.11 -23.355 12.47 -24.375 9.75 C-22.021 8.644 -19.667 7.541 -17.312 6.438 C-16.656 6.129 -15.999 5.82 -15.322 5.502 C-13.344 4.576 -11.361 3.66 -9.375 2.75 C-8.398 2.3 -8.398 2.3 -7.4 1.841 C-2.656 -0.28 -2.656 -0.28 0 0 Z " fill="#FFFFFF" transform="translate(277.375,163.25)"/>
<path d="M0 0 C8.182 -0.315 8.182 -0.315 11 2 C13.052 5.679 14.052 8.082 13.812 12.312 C13 15 13 15 11 17 C8.188 17.438 8.188 17.438 5 17 C1.422 14.154 -0.883 11.468 -2 7 C-1.689 4.322 -1.202 2.404 0 0 Z " fill="#060606" transform="translate(228,210)"/>
<path d="M0 0 C2.277 -0.227 2.277 -0.227 5 0 C6.879 1.539 6.879 1.539 8.562 3.625 C9.158 4.353 9.754 5.082 10.367 5.832 C11.707 7.611 12.96 9.454 14.188 11.312 C16.343 14.508 18.232 16.207 21.75 17.785 C33.099 22.905 38.408 31.859 43 43 C45.795 53.573 43.965 63.136 40.238 73.172 C38.447 78.286 37.977 83.488 37.457 88.855 C37.041 91.718 36.478 93.549 35 96 C33.02 96 31.04 96 29 96 C29 95.34 29 94.68 29 94 C31.475 93.505 31.475 93.505 34 93 C34.086 92.175 34.173 91.35 34.262 90.5 C35.093 83.666 36.345 77.651 38.625 71.188 C42.163 60.763 43.352 48.517 38.383 38.336 C33.717 30.454 29.613 24.772 21.453 20.379 C15.562 17.068 11.383 12.86 7.875 7.125 C5.666 3.48 5.666 3.48 1.625 1.938 C0.326 1.968 0.326 1.968 -1 2 C-0.67 1.34 -0.34 0.68 0 0 Z " fill="#000000" transform="translate(152,121)"/>
<path d="M0 0 C0.99 0.33 1.98 0.66 3 1 C-5.197 5.709 -13.427 10.315 -21.875 14.562 C-22.558 14.909 -23.241 15.255 -23.945 15.611 C-28.752 18 -28.752 18 -31 18 C-31.33 18.66 -31.66 19.32 -32 20 C-32 19.01 -32 18.02 -32 17 C-31.34 16.67 -30.68 16.34 -30 16 C-29.67 15.01 -29.34 14.02 -29 13 C-30.65 12.67 -32.3 12.34 -34 12 C-29.725 7.224 -23.924 4.242 -18 2 C-14.453 1.876 -11.358 2.184 -7.875 2.828 C-4.31 3.041 -2.942 1.889 0 0 Z " fill="#FFFFFF" transform="translate(286,184)"/>
<path d="M0 0 C2.331 3.597 1.98 5.935 1.188 10.062 C0.995 11.105 0.803 12.148 0.605 13.223 C0 16 0 16 -1 19 C-0.385 18.905 0.23 18.809 0.863 18.711 C1.672 18.6 2.48 18.489 3.312 18.375 C4.513 18.201 4.513 18.201 5.738 18.023 C8 18 8 18 11 20 C12.005 23.302 12.442 25.116 10.875 28.25 C8.721 30.261 6.786 31.096 4 32 C4.66 32.619 5.32 33.238 6 33.875 C8 36 8 36 8 38 C6 38 6 38 4.09 36.199 C-1.228 29.993 -3.632 25.266 -3 17 C-2.125 14 -2.125 14 -1 11 C-0.531 7.342 -0.249 3.678 0 0 Z " fill="#010101" transform="translate(205,95)"/>
<path d="M0 0 C0.33 0 0.66 0 1 0 C1 3.3 1 6.6 1 10 C1.66 9.67 2.32 9.34 3 9 C8.301 8.436 8.301 8.436 10.938 10.562 C12.489 14.122 12.073 16.312 11 20 C8.438 21.938 8.438 21.938 6 23 C7.32 24.65 8.64 26.3 10 28 C8 27 6 26 4 25 C4 24.34 4 23.68 4 23 C3.103 22.907 3.103 22.907 2.188 22.812 C0 22 0 22 -1.875 20.125 C-3.64 15.223 -2.146 10.963 -1 6 C-0.661 4.001 -0.325 2.001 0 0 Z " fill="#020202" transform="translate(228,171)"/>
<path d="M0 0 C3.575 2.051 6.333 4.216 7.805 8.152 C8.491 12.252 8.245 15.204 6.25 18.875 C2.893 23.537 2.893 23.537 1 25 C-1 25 -1 25 -2.312 23.812 C-2.869 23.214 -3.426 22.616 -4 22 C-4.846 21.175 -5.691 20.35 -6.562 19.5 C-9.89 16.087 -11.247 13.645 -12 9 C-11.498 13.269 -11.029 17.168 -9 21 C-8.01 21.33 -7.02 21.66 -6 22 C-6.33 22.66 -6.66 23.32 -7 24 C-14.287 16.905 -14.287 16.905 -14.375 11.125 C-14.302 7.553 -14.095 6.163 -12.25 3 C-8.02 -0.76 -5.596 -1.756 0 0 Z M-7.812 3 C-9.72 6.213 -9.627 9.425 -9 13 C-6.758 17.257 -6.758 17.257 -3 20 C-0.042 20.5 -0.042 20.5 3 20 C5.099 17.551 5.87 15.723 6.438 12.562 C5.827 8.988 4.207 6.838 2 4 C-1.522 1.652 -3.969 0.879 -7.812 3 Z " fill="#000000" transform="translate(194,81)"/>
<path d="M0 0 C-3.021 2.451 -6.01 4.023 -9.578 5.559 C-11.197 6.261 -11.197 6.261 -12.848 6.979 C-13.97 7.46 -15.093 7.941 -16.25 8.438 C-18.464 9.393 -20.678 10.35 -22.891 11.309 C-23.939 11.762 -24.988 12.216 -26.068 12.683 C-28.656 13.845 -31.162 15.091 -33.672 16.41 C-34.77 16.935 -35.868 17.459 -37 18 C-37.66 17.67 -38.32 17.34 -39 17 C-28.385 4.937 -16.001 -0.593 0 0 Z " fill="#FFFFFF" transform="translate(100,93)"/>
<path d="M0 0 C2.486 3.251 2.745 5.849 2.688 9.812 C2.678 10.621 2.669 11.429 2.66 12.262 C2.649 12.877 2.637 13.491 2.625 14.125 C0.812 15.188 0.812 15.188 -1.375 16.125 C-2.365 15.795 -3.355 15.465 -4.375 15.125 C-3.385 14.465 -2.395 13.805 -1.375 13.125 C-0.958 9.625 -0.958 9.625 -1.375 6.125 C-2.035 5.465 -2.695 4.805 -3.375 4.125 C-7.129 4.473 -10.745 5.108 -14.375 6.125 C-15.695 4.145 -17.015 2.165 -18.375 0.125 C-18.045 -0.535 -17.715 -1.195 -17.375 -1.875 C-11.364 -3.015 -5.097 -4.024 0 0 Z " fill="#FFFFFF" transform="translate(260.375,93.875)"/>
<path d="M0 0 C2.438 0.812 2.438 0.812 5 2 C5.495 3.485 5.495 3.485 6 5 C5.077 5.45 4.154 5.9 3.203 6.363 C-5.855 10.818 -14.73 15.534 -23.522 20.493 C-24.337 20.949 -25.152 21.405 -25.992 21.875 C-26.718 22.285 -27.443 22.695 -28.191 23.117 C-30 24 -30 24 -32 24 C-32 23.34 -32 22.68 -32 22 C-31.361 21.668 -30.722 21.336 -30.063 20.994 C-27.104 19.455 -24.146 17.915 -21.188 16.375 C-20.183 15.853 -19.178 15.331 -18.143 14.793 C-11.385 11.273 -4.676 7.674 2 4 C-3.475 5.578 -8.207 8.113 -13.188 10.812 C-20.027 14.472 -26.862 17.952 -34 21 C-34 20.34 -34 19.68 -34 19 C-31.835 17.83 -29.668 16.664 -27.5 15.5 C-26.835 15.143 -26.169 14.785 -25.483 14.417 C-21.864 12.486 -18.229 10.602 -14.547 8.793 C-13.828 8.44 -13.11 8.087 -12.369 7.723 C-10.98 7.044 -9.588 6.371 -8.193 5.703 C-5.008 4.148 -2.28 2.764 0 0 Z " fill="#000000" transform="translate(289,183)"/>
<path d="M0 0 C4.197 1.526 6.593 4.117 8.75 8 C9.388 11.108 9.522 13.913 8.75 17 C7.445 18.785 7.445 18.785 5.75 20 C2.062 19.688 2.062 19.688 -1.25 19 C-1.25 18.34 -1.25 17.68 -1.25 17 C0.73 17 2.71 17 4.75 17 C4.131 16.175 3.512 15.35 2.875 14.5 C0.412 10.849 -0.363 7.286 -1.25 3 C-2.24 3.495 -2.24 3.495 -3.25 4 C-3.271 5.258 -3.291 6.516 -3.312 7.812 C-3.324 8.52 -3.336 9.228 -3.348 9.957 C-3.333 12.203 -3.333 12.203 -2.25 15 C-3.24 14.67 -4.23 14.34 -5.25 14 C-5.474 12.586 -5.678 11.168 -5.875 9.75 C-5.991 8.961 -6.107 8.172 -6.227 7.359 C-6.254 4.639 -5.723 3.265 -4.25 1 C-2.25 0 -2.25 0 0 0 Z " fill="#000000" transform="translate(143.25,198)"/>
<path d="M0 0 C6.163 0.948 6.163 0.948 8.355 3.703 C10.516 7.791 11.743 11.327 11 16 C9.5 18.375 9.5 18.375 8 20 C5.657 19.744 3.322 19.407 1 19 C0.67 18.34 0.34 17.68 0 17 C1.98 17 3.96 17 6 17 C6.189 14.705 6.189 14.705 4.062 12.188 C2.152 9.234 1.403 7.429 1 4 C0.01 3.67 -0.98 3.34 -2 3 C-2.082 7.161 -1.982 10.947 -1 15 C-2.5 14 -2.5 14 -4 12 C-4.335 8.984 -4.555 6.902 -4 4 C-2 1.5 -2 1.5 0 0 Z " fill="#000000" transform="translate(110,126)"/>
<path d="M0 0 C3.375 -0.5 3.375 -0.5 7 0 C9.312 2.312 9.312 2.312 11 5 C11.99 6.485 11.99 6.485 13 8 C13.347 11.815 13.534 14.133 11.5 17.438 C11.005 17.953 10.51 18.469 10 19 C7.657 18.744 5.322 18.407 3 18 C2.67 17.34 2.34 16.68 2 16 C4.31 16 6.62 16 9 16 C8.175 14.989 7.35 13.979 6.5 12.938 C3.827 9.249 3.533 6.58 4 2 C3.01 2.33 2.02 2.66 1 3 C0.159 7.018 -0.054 10.018 1 14 C0.34 14 -0.32 14 -1 14 C-2.17 11.66 -2.166 10.166 -2.188 7.562 C-2.202 6.78 -2.216 5.998 -2.23 5.191 C-2 3 -2 3 0 0 Z " fill="#000000" transform="translate(55,131)"/>
<path d="M0 0 C6.385 0.368 6.385 0.368 9.375 3.438 C12.028 7.622 12.576 11.066 12 16 C11.34 16.99 10.68 17.98 10 19 C6.375 19.188 6.375 19.188 3 19 C2.67 18.34 2.34 17.68 2 17 C4.31 17 6.62 17 9 17 C9 16.34 9 15.68 9 15 C8.01 14.67 7.02 14.34 6 14 C3.406 9.869 2.654 6.85 3 2 C2.01 2.66 1.02 3.32 0 4 C-0.365 6.667 -0.365 6.667 -0.188 9.625 C-0.16 10.628 -0.133 11.631 -0.105 12.664 C-0.071 13.435 -0.036 14.206 0 15 C-2.481 12.519 -2.673 10.46 -3.047 7.043 C-2.979 4.082 -1.79 2.291 0 0 Z " fill="#000000" transform="translate(104,240)"/>
<path d="M0 0 C4.526 0.905 5.51 2.889 8.125 6.625 C9.72 9.815 9.5 13.154 9.125 16.625 C8.062 18.688 8.062 18.688 6.125 19.625 C2.438 19.312 2.438 19.312 -0.875 18.625 C-0.545 17.965 -0.215 17.305 0.125 16.625 C1.445 16.955 2.765 17.285 4.125 17.625 C4.125 16.635 4.125 15.645 4.125 14.625 C3.644 14.165 3.163 13.705 2.668 13.23 C0.663 11.145 0.644 9.785 0.438 6.938 C0.372 6.129 0.306 5.321 0.238 4.488 C0.182 3.566 0.182 3.566 0.125 2.625 C-0.865 2.955 -1.855 3.285 -2.875 3.625 C-2.875 7.255 -2.875 10.885 -2.875 14.625 C-3.535 14.295 -4.195 13.965 -4.875 13.625 C-5.949 9.643 -6.404 5.901 -4.812 2.062 C-2.875 0.625 -2.875 0.625 0 0 Z " fill="#000000" transform="translate(131.875,229.375)"/>
<path d="M0 0 C4.258 1.508 6.022 4.106 8 8.062 C8.356 15.529 8.356 15.529 6 19.062 C2.375 19.25 2.375 19.25 -1 19.062 C-1.33 18.403 -1.66 17.743 -2 17.062 C-0.02 17.062 1.96 17.062 4 17.062 C4.33 16.403 4.66 15.743 5 15.062 C4.34 15.062 3.68 15.062 3 15.062 C0.05 10.452 -1.55 7.697 -1 2.062 C-1.99 2.722 -2.98 3.382 -4 4.062 C-4.365 6.729 -4.365 6.729 -4.188 9.688 C-4.16 10.69 -4.133 11.693 -4.105 12.727 C-4.071 13.497 -4.036 14.268 -4 15.062 C-6.275 12.311 -6.979 11.23 -7.438 7.562 C-7 4.062 -7 4.062 -5.375 1.562 C-3 0.062 -3 0.062 0 0 Z " fill="#000000" transform="translate(83,116.9375)"/>
<path d="M0 0 C1 3 1 3 -0.117 5.785 C-6.749 18.149 -14.984 28.992 -28.688 33.812 C-36.093 35.976 -46.029 38.125 -53.367 34.988 C-53.906 34.662 -54.445 34.336 -55 34 C-53.756 33.974 -52.512 33.948 -51.23 33.922 C-35.485 33.452 -23.311 30.757 -11.965 18.867 C-8.014 14.022 -5.04 8.724 -2.164 3.188 C-1 1 -1 1 0 0 Z " fill="#000000" transform="translate(179,233)"/>
<path d="M0 0 C6.1 0.533 11.577 1.484 17.375 3.438 C18.509 3.815 18.509 3.815 19.666 4.2 C28.931 7.45 37.469 12.187 46 17 C46 17.99 46 18.98 46 20 C45.34 20.66 44.68 21.32 44 22 C43.522 21.611 43.044 21.221 42.551 20.82 C30.207 11.471 14.992 4.727 0 1 C0 0.67 0 0.34 0 0 Z " fill="#FFFFFF" transform="translate(117,20)"/>
<path d="M0 0 C0.82 1.559 1.631 3.122 2.438 4.688 C2.89 5.558 3.342 6.428 3.809 7.324 C4.96 9.91 5.563 12.214 6 15 C4.02 15.66 2.04 16.32 0 17 C-3.335 12.1 -5.672 7.794 -7 2 C-4 0 -4 0 0 0 Z " fill="#FFFFFF" transform="translate(96,179)"/>
<path d="M0 0 C2.625 0.5 2.625 0.5 4.938 2.438 C7.204 6.55 6.985 9.907 6.625 14.5 C5.305 14.17 3.985 13.84 2.625 13.5 C2.295 12.18 1.965 10.86 1.625 9.5 C0.965 9.5 0.305 9.5 -0.375 9.5 C-0.375 10.16 -0.375 10.82 -0.375 11.5 C-1.365 12.16 -2.355 12.82 -3.375 13.5 C-3.045 14.16 -2.715 14.82 -2.375 15.5 C-0.725 15.5 0.925 15.5 2.625 15.5 C1.965 16.82 1.305 18.14 0.625 19.5 C-1.188 19.438 -1.188 19.438 -3.375 18.5 C-5.312 15.25 -5.312 15.25 -6.375 11.5 C-5.062 8.562 -5.062 8.562 -3.375 6.5 C2.5 7.375 2.5 7.375 3.625 8.5 C3.955 7.84 4.285 7.18 4.625 6.5 C1.655 5.51 -1.315 4.52 -4.375 3.5 C-2.375 0.5 -2.375 0.5 0 0 Z " fill="#080808" transform="translate(170.375,42.5)"/>
<path d="M0 0 C2.828 2.438 4.782 5.45 6.812 8.562 C0.188 11.562 0.188 11.562 -3.188 11.562 C-3.188 10.903 -3.188 10.243 -3.188 9.562 C-3.847 9.562 -4.507 9.562 -5.188 9.562 C-10.188 4.086 -10.188 4.086 -10.188 1.562 C-2.988 -0.597 -2.988 -0.597 0 0 Z " fill="#FFFFFF" transform="translate(238.1875,121.4375)"/>
<path d="M0 0 C2.932 2.853 5.643 5.651 8 9 C1.72 12.019 1.72 12.019 -1.312 11.938 C-3.545 10.697 -4.094 9.34 -5 7 C-5.66 7 -6.32 7 -7 7 C-7.66 5.68 -8.32 4.36 -9 3 C-6.03 2.01 -3.06 1.02 0 0 Z " fill="#FFFFFF" transform="translate(265,110)"/>
<path d="M0 0 C9.263 3.153 14.939 11.537 19.496 19.805 C24.577 30.6 27.962 43.152 25 55 C24.34 55 23.68 55 23 55 C23.035 53.973 23.07 52.945 23.105 51.887 C23.491 35.904 19.681 21.214 8.875 8.938 C7.6 7.608 6.31 6.294 5 5 C4.466 4.453 3.933 3.907 3.383 3.344 C2.271 2.213 1.139 1.103 0 0 Z " fill="#000000" transform="translate(178,132)"/>
<path d="M0 0 C0.66 0 1.32 0 2 0 C2.364 1.062 2.727 2.124 3.102 3.219 C7.117 16.001 7.117 16.001 16.18 25.195 C16.78 25.461 17.381 25.726 18 26 C17.977 24.915 17.954 23.829 17.93 22.711 C17.911 21.266 17.893 19.82 17.875 18.375 C17.858 17.662 17.841 16.949 17.824 16.215 C17.783 11.739 18.309 8.221 20 4 C21.186 7.558 20.825 9.842 20.438 13.562 C19.922 19.762 20.334 25.023 22 31 C14.38 28.857 8.927 22.564 5 16 C4.01 13.613 3.092 11.194 2.25 8.75 C1.822 7.528 1.394 6.306 0.953 5.047 C0 2 0 2 0 0 Z " fill="#000000" transform="translate(172,103)"/>
<path d="M0 0 C3.175 0.34 4.023 1.025 6.25 3.438 C8 6 8 6 8 8 C8.66 8 9.32 8 10 8 C18.418 23.936 21.506 35.929 21 54 C20.34 54 19.68 54 19 54 C19.07 52.529 19.07 52.529 19.141 51.027 C19.71 33.712 15.296 17.916 3.562 4.75 C2.883 4.044 2.204 3.337 1.504 2.609 C0 1 0 1 0 0 Z " fill="#000000" transform="translate(201,127)"/>
<path d="M0 0 C1.812 1.312 1.812 1.312 3 3 C3.619 3.866 3.619 3.866 4.25 4.75 C5.357 8.07 4.736 10.624 4 14 C3.01 15.485 3.01 15.485 2 17 C-0.812 17.5 -0.812 17.5 -4 17 C-6.573 14.827 -8.49 13.02 -10 10 C-10.452 2.878 -10.452 2.878 -8.938 -0.062 C-5.757 -1.601 -3.337 -0.834 0 0 Z M-6 2 C-7.825 4.648 -7.825 4.648 -9 8 C-8.333 11.417 -8.333 11.417 -6 14 C-2.406 14.979 -2.406 14.979 1 15 C2.719 12.371 3.01 11.128 2.75 7.938 C2.132 4.838 2.132 4.838 0 2 C-3.084 1.75 -3.084 1.75 -6 2 Z " fill="#FFFFFF" transform="translate(195,84)"/>
<path d="M0 0 C8.182 -0.315 8.182 -0.315 11 2 C13.052 5.679 14.052 8.082 13.812 12.312 C13 15 13 15 11 17 C8.188 17.438 8.188 17.438 5 17 C1.422 14.154 -0.883 11.468 -2 7 C-1.689 4.322 -1.202 2.404 0 0 Z M3 1 C0.501 4.474 0.501 4.474 0.188 8.625 C0.962 11.22 0.962 11.22 3 14 C6.568 14.736 6.568 14.736 10 15 C11.513 12.597 12.037 11.367 11.75 8.5 C10.785 5.047 10.785 5.047 9 2 C5.941 1.184 5.941 1.184 3 1 Z " fill="#FFFFFF" transform="translate(228,210)"/>
<path d="M0 0 C-0.425 1.607 -0.866 3.211 -1.312 4.812 C-1.556 5.706 -1.8 6.599 -2.051 7.52 C-3.045 10.119 -3.812 11.317 -6 13 C-8.31 13.744 -10.643 14.422 -13 15 C-10.269 4.06 -10.269 4.06 -7.246 1.535 C-4.847 0.528 -2.607 0 0 0 Z " fill="#FFFFFF" transform="translate(245,132)"/>
<path d="M0 0 C6.739 2.687 10.566 9.996 13.559 16.266 C17.502 26.141 20.213 36.281 19 47 C18.34 47.99 17.68 48.98 17 50 C16.963 48.828 16.925 47.656 16.887 46.449 C16.24 29.735 13.314 16.045 1.32 3.559 C0 2 0 2 0 0 Z " fill="#000000" transform="translate(200,130)"/>
<path d="M0 0 C-0.611 4.154 -1.754 7.438 -4 11 C-8.9 14 -8.9 14 -12 14 C-9.851 5.208 -9.851 5.208 -8 2 C-5.13 0.594 -3.173 0 0 0 Z " fill="#FFFFFF" transform="translate(273,121)"/>
<path d="M0 0 C3.358 0.272 4.643 0.584 6.875 3.188 C8.233 6.581 7.894 8.506 7 12 C3 12 3 12 1.312 10.938 C-0.626 8.076 -0.753 5.4 -1 2 C-0.67 1.34 -0.34 0.68 0 0 Z " fill="#FFFFFF" transform="translate(72,191)"/>
<path d="M0 0 C6.281 4.753 6.281 4.753 8 8 C7.745 12 6.611 15.349 5 19 C0.576 12.364 -0.42 7.868 0 0 Z " fill="#FFFFFF" transform="translate(226,126)"/>
<path d="M0 0 C-0.33 0.99 -0.66 1.98 -1 3 C-0.536 3.928 -0.536 3.928 -0.062 4.875 C1.203 7.406 1.155 9.207 1 12 C-1 10 -1 10 -2 6.5 C-2.657 4.568 -2.657 4.568 -4 3 C-7.28 1.776 -10.524 1.32 -14 1 C-14.33 2.32 -14.66 3.64 -15 5 C-15.66 5 -16.32 5 -17 5 C-17 4.34 -17 3.68 -17 3 C-17.66 3 -18.32 3 -19 3 C-19.33 4.98 -19.66 6.96 -20 9 C-20.66 8.01 -21.32 7.02 -22 6 C-21.294 3.106 -20.77 1.493 -18.219 -0.141 C-12.648 -2.298 -5.709 -1.202 0 0 Z " fill="#000000" transform="translate(242,209)"/>
<path d="M0 0 C5.28 0 10.56 0 16 0 C15.34 1.65 14.68 3.3 14 5 C13.322 6.996 12.653 8.995 12 11 C11.34 11 10.68 11 10 11 C10.875 4.125 10.875 4.125 12 3 C10.35 3 8.7 3 7 3 C6.01 5.64 5.02 8.28 4 11 C3.34 11 2.68 11 2 11 C2.875 4.125 2.875 4.125 4 3 C2.68 2.67 1.36 2.34 0 2 C0 1.34 0 0.68 0 0 Z " fill="#000000" transform="translate(310,272)"/>
<path d="M0 0 C2.343 0.256 4.678 0.593 7 1 C8.354 3.709 8.065 6.009 8 9 C5.688 9.625 5.688 9.625 3 10 C0 8 0 8 -0.75 5 C-1 2 -1 2 0 0 Z " fill="#000000" transform="translate(246,138)"/>
<path d="M0 0 C0.66 0 1.32 0 2 0 C-1.34 11.985 -8.106 22.52 -18.25 29.812 C-18.804 30.219 -19.359 30.626 -19.93 31.045 C-21.282 32.036 -22.64 33.019 -24 34 C-24 33.01 -24 32.02 -24 31 C-22.496 29.676 -22.496 29.676 -20.438 28.312 C-10.623 21.267 -4.358 11.136 0 0 Z " fill="#000000" transform="translate(185,238)"/>
<path d="M0 0 C0.392 1.052 0.784 2.104 1.188 3.188 C2.434 6.187 3.25 7.233 5.75 9.562 C8 12 8 12 7.938 15.188 C7 18 7 18 5 20 C2.69 14.06 0.38 8.12 -2 2 C-2.33 3.32 -2.66 4.64 -3 6 C-3.99 4.35 -4.98 2.7 -6 1 C-4 0 -4 0 0 0 Z " fill="#FFFFFF" transform="translate(254,111)"/>
<path d="M0 0 C1.65 0 3.3 0 5 0 C6.25 7.625 6.25 7.625 4 11 C2.35 10.67 0.7 10.34 -1 10 C-2.467 6.185 -1.433 3.71 0 0 Z " fill="#292929" transform="translate(304,272)"/>
<path d="M0 0 C0.66 0 1.32 0 2 0 C2.412 0.722 2.825 1.444 3.25 2.188 C4.92 5.21 4.92 5.21 8.062 7.5 C11.13 10.111 11.871 11.249 13 15 C13.043 17.495 13.043 17.495 12.758 20.082 C12.661 21.013 12.564 21.945 12.465 22.904 C12.353 23.864 12.241 24.824 12.125 25.812 C12.021 26.792 11.916 27.771 11.809 28.779 C11.55 31.188 11.28 33.594 11 36 C9 34 9 34 8.812 30.625 C8.906 25.969 9.438 21.357 9.977 16.734 C10.002 13.749 9.667 12.446 8 10 C6.263 8.396 4.435 6.998 2.559 5.562 C0.751 3.75 0.393 2.495 0 0 Z " fill="#000000" transform="translate(209,102)"/>
<path d="M0 0 C1.25 2.062 1.25 2.062 2 4 C-1.312 6.176 -4.033 7.559 -8 8 C-9 7 -9 7 -9.062 3.938 C-9.042 2.968 -9.021 1.999 -9 1 C-3.403 -1.643 -3.403 -1.643 0 0 Z " fill="#FFFFFF" transform="translate(154,85)"/>
<path d="M0 0 C0.66 0 1.32 0 2 0 C1.914 2.77 1.914 2.77 1 6 C-1.281 7.575 -3.126 8.613 -5.625 9.688 C-6.23 9.969 -6.834 10.251 -7.457 10.541 C-8.678 11.104 -9.905 11.654 -11.138 12.189 C-12.407 12.742 -13.666 13.316 -14.917 13.909 C-19.667 16.111 -19.667 16.111 -23 15 C-17.798 11.265 -12.432 8.953 -6.482 6.645 C-4.131 5.714 -4.131 5.714 -1 4 C-0.243 1.954 -0.243 1.954 0 0 Z " fill="#000000" transform="translate(280,166)"/>
<path d="M0 0 C3 0.812 3 0.812 6 2.812 C5.67 4.133 5.34 5.453 5 6.812 C4.67 6.153 4.34 5.492 4 4.812 C0.971 4.155 0.971 4.155 -2 3.812 C-3.32 5.982 -3.32 5.982 -4 8.812 C-2.521 12.783 -1.554 14.443 2 16.812 C-2 16.812 -2 16.812 -4.25 14.875 C-6.519 10.904 -6.934 7.308 -6 2.812 C-3.937 0.063 -3.554 -0.222 0 0 Z " fill="#FFFFFF" transform="translate(169,46.1875)"/>
<path d="M0 0 C1.32 0 2.64 0 4 0 C3.794 1.072 3.588 2.145 3.375 3.25 C2.828 6.778 2.828 6.778 3.5 9.312 C5.841 11.946 8.65 12.256 12 13 C12.33 11.35 12.66 9.7 13 8 C13.66 8 14.32 8 15 8 C14.125 13.875 14.125 13.875 13 15 C9.247 15.426 7.474 15.302 4.25 13.25 C0.798 9.798 0.04 8.194 -0.125 3.25 C-0.084 2.178 -0.042 1.105 0 0 Z " fill="#FFFFFF" transform="translate(230,251)"/>
<path d="M0 0 C4.921 0.594 9.134 2.114 13.625 4.125 C14.665 4.584 14.665 4.584 15.727 5.053 C22.094 7.926 28.069 11.305 34 15 C33.01 15.66 32.02 16.32 31 17 C30.38 16.576 29.76 16.152 29.121 15.715 C19.952 9.642 10.238 4.99 0 1 C0 0.67 0 0.34 0 0 Z " fill="#FFFFFF" transform="translate(143,20)"/>
<path d="M0 0 C3.886 0 6.321 0.915 9.188 3.438 C12.737 7.334 14.322 11.813 15 17 C14.676 19.646 14.029 21.509 13 24 C12.01 24 11.02 24 10 24 C10.351 23.34 10.701 22.68 11.062 22 C12.714 16.715 11.711 12.57 9.5 7.688 C6.14 4.075 2.706 3.146 -2 2 C-1.34 1.34 -0.68 0.68 0 0 Z " fill="#FFFFFF" transform="translate(77,181)"/>
<path d="M0 0 C1.812 1.062 1.812 1.062 3 3 C3.562 6.438 3.562 6.438 3 10 C0.25 12.5 0.25 12.5 -3 14 C-5.375 13.75 -5.375 13.75 -7 13 C-4.325 11.337 -2 10 1 9 C0.67 7.02 0.34 5.04 0 3 C-3.3 3.33 -6.6 3.66 -10 4 C-6.431 0.431 -4.97 -0.485 0 0 Z " fill="#000000" transform="translate(257,97)"/>
<path d="M0 0 C4.75 0.875 4.75 0.875 7 2 C7 2.66 7 3.32 7 4 C7.66 4 8.32 4 9 4 C12.009 9.016 12.467 12.302 12 18 C11.34 18.99 10.68 19.98 10 21 C9.34 20.67 8.68 20.34 8 20 C8.33 19.34 8.66 18.68 9 18 C9.269 13.893 9.391 11.034 7.938 7.188 C5.274 4.18 2.766 3.35 -1 2 C-0.67 1.34 -0.34 0.68 0 0 Z " fill="#FFFFFF" transform="translate(76,184)"/>
<path d="M0 0 C4.692 4.36 7.288 9.483 10.312 15.062 C10.875 16.069 11.438 17.075 12.018 18.111 C12.544 19.076 13.071 20.041 13.613 21.035 C14.096 21.916 14.578 22.796 15.075 23.703 C16 26 16 26 15 29 C7.676 15.816 7.676 15.816 6.35 13.422 C5.426 11.765 4.493 10.112 3.552 8.464 C3.095 7.66 2.639 6.856 2.168 6.027 C1.752 5.302 1.336 4.576 0.907 3.828 C0 2 0 2 0 0 Z " fill="#000000" transform="translate(178,51)"/>
<path d="M0 0 C4.553 0.618 8.285 2.468 12.312 4.562 C13.28 5.057 13.28 5.057 14.268 5.561 C15.848 6.368 17.424 7.183 19 8 C19 8.33 19 8.66 19 9 C12.28 10.069 8.065 7.117 2.379 3.727 C1.594 3.157 0.809 2.587 0 2 C0 1.34 0 0.68 0 0 Z " fill="#FFFFFF" transform="translate(146,24)"/>
<path d="M0 0 C0.99 0.66 1.98 1.32 3 2 C4.033 9.119 2.834 16.123 1 23 C0.67 22.34 0.34 21.68 0 21 C-0.66 20.67 -1.32 20.34 -2 20 C-1.67 19.237 -1.34 18.474 -1 17.688 C0.339 12.748 0.163 8.085 0 3 C-0.66 3 -1.32 3 -2 3 C-2 2.34 -2 1.68 -2 1 C-1.34 0.67 -0.68 0.34 0 0 Z " fill="#FFFFFF" transform="translate(296,199)"/>
<path d="M0 0 C2.31 0 4.62 0 7 0 C7.33 0.99 7.66 1.98 8 3 C7.01 3 6.02 3 5 3 C5 5.97 5 8.94 5 12 C4.01 12 3.02 12 2 12 C2 9.03 2 6.06 2 3 C1.34 3 0.68 3 0 3 C0 2.01 0 1.02 0 0 Z " fill="#000000" transform="translate(290,271)"/>
<path d="M0 0 C0 1.65 0 3.3 0 5 C-1.289 5.672 -2.581 6.337 -3.875 7 C-4.594 7.371 -5.314 7.743 -6.055 8.125 C-8 9 -8 9 -10 9 C-8.126 3.666 -6.062 0 0 0 Z " fill="#FFFFFF" transform="translate(103,196)"/>
<path d="M0 0 C0.562 0.369 1.124 0.737 1.703 1.117 C1.703 1.777 1.703 2.437 1.703 3.117 C-2.197 5.717 -5.771 5.268 -10.297 5.117 C-10.627 4.457 -10.957 3.797 -11.297 3.117 C-9.89 2.39 -8.471 1.686 -7.047 0.992 C-6.258 0.598 -5.469 0.203 -4.656 -0.203 C-2.297 -0.883 -2.297 -0.883 0 0 Z " fill="#FFFFFF" transform="translate(91.296875,174.8828125)"/>
<path d="M0 0 C2.704 1.065 3.657 2.297 5.062 4.812 C4.732 5.802 4.403 6.793 4.062 7.812 C1.75 7.688 1.75 7.688 -0.938 6.812 C-2.75 3.75 -2.75 3.75 -3.938 0.812 C-1.938 -0.188 -1.938 -0.188 0 0 Z " fill="#FFFFFF" transform="translate(230.9375,96.1875)"/>
<path d="M0 0 C3.589 1.466 5.364 3.368 7.688 6.438 C8.289 7.22 8.891 8.002 9.512 8.809 C11.893 12.315 12.116 15.06 12.062 19.188 C12.053 20.089 12.044 20.99 12.035 21.918 C12.024 22.605 12.012 23.292 12 24 C11.67 24 11.34 24 11 24 C10.948 23.334 10.897 22.667 10.844 21.98 C9.804 13.53 6.243 8.533 1 2 C0.67 1.34 0.34 0.68 0 0 Z " fill="#000000" transform="translate(204,71)"/>
<path d="M0 0 C3.706 3.459 5.861 5.848 6.195 11.016 C6.172 12.083 6.149 13.15 6.125 14.25 C6.107 15.328 6.089 16.405 6.07 17.516 C6.047 18.335 6.024 19.155 6 20 C5.34 20 4.68 20 4 20 C3.963 19.31 3.925 18.621 3.887 17.91 C3.439 11.514 2.344 5.969 0 0 Z " fill="#FFFFFF" transform="translate(294,179)"/>
<path d="M0 0 C3.875 3.75 3.875 3.75 5 6 C5.02 7.396 4.993 8.793 4.938 10.188 C4.874 14.525 5.607 17.907 7 22 C4.723 20.349 3.435 19.363 2 17 C1.713 14.178 1.815 11.503 1.957 8.672 C2.009 5.454 1.272 2.942 0 0 Z " fill="#FFFFFF" transform="translate(287,157)"/>
<path d="M0 0 C2.475 0.495 2.475 0.495 5 1 C6.125 5.75 6.125 5.75 5 8 C1.125 7.125 1.125 7.125 0 6 C-0.041 4 -0.043 2 0 0 Z " fill="#FFFFFF" transform="translate(205,116)"/>
<path d="M0 0 C2.663 2.587 5.064 5.081 7.375 8 C10.338 11.386 13.27 13.513 17 16 C16.34 16.33 15.68 16.66 15 17 C9.159 13.642 2.383 8.319 0.27 1.719 C0.181 1.152 0.092 0.584 0 0 Z " fill="#000000" transform="translate(213,190)"/>
<path d="M0 0 C1.32 0 2.64 0 4 0 C6 3 6 3 6 7 C4.125 7.625 4.125 7.625 2 8 C0 6 0 6 -0.125 2.875 C-0.084 1.926 -0.042 0.977 0 0 Z " fill="#FFFFFF" transform="translate(228,184)"/>
<path d="M0 0 C0.33 0 0.66 0 1 0 C1.113 6.111 0.896 11.952 0 18 C-0.66 18 -1.32 18 -2 18 C-2.105 12.228 -2.088 6.682 -1 1 C-0.67 0.67 -0.34 0.34 0 0 Z " fill="#000000" transform="translate(158,59)"/>
<path d="M0 0 C2.375 0.188 2.375 0.188 5 1 C6.312 3.562 6.312 3.562 7 6 C5.02 6.66 3.04 7.32 1 8 C0.34 6.35 -0.32 4.7 -1 3 C-0.01 2.67 0.98 2.34 2 2 C1.34 1.34 0.68 0.68 0 0 Z " fill="#FFFFFF" transform="translate(231,214)"/>
<path d="M0 0 C1.32 0 2.64 0 4 0 C4.66 1.98 5.32 3.96 6 6 C4.02 6.66 2.04 7.32 0 8 C-0.66 6.68 -1.32 5.36 -2 4 C-1.01 3.34 -0.02 2.68 1 2 C0.67 1.34 0.34 0.68 0 0 Z " fill="#FFFFFF" transform="translate(190,88)"/>
<path d="M0 0 C0.99 0.33 1.98 0.66 3 1 C3.33 2.65 3.66 4.3 4 6 C2.35 6.66 0.7 7.32 -1 8 C-1.99 6.35 -2.98 4.7 -4 3 C-2.68 2.34 -1.36 1.68 0 1 C0 0.67 0 0.34 0 0 Z " fill="#FFFFFF" transform="translate(237,253)"/>
<path d="M0 0 C-0.33 0.99 -0.66 1.98 -1 3 C-4.562 4.188 -4.562 4.188 -8 5 C-8.33 3.68 -8.66 2.36 -9 1 C-5.649 -1.11 -3.779 -1.05 0 0 Z " fill="#FFFFFF" transform="translate(204,235)"/>
<path d="M0 0 C4.004 3.491 5.627 5.65 6 11 C3.176 9.965 2.176 9.334 0.75 6.625 C0 4 0 4 0 0 Z " fill="#FFFFFF" transform="translate(113,129)"/>
<path d="M0 0 C2.724 2.353 3.814 4.625 5 8 C3.344 8.382 1.675 8.714 0 9 C-1 8 -1 8 -1.125 4.5 C-1 1 -1 1 0 0 Z " fill="#FFFFFF" transform="translate(239,93)"/>
<path d="M0 0 C0.66 0 1.32 0 2 0 C2.124 0.639 2.248 1.279 2.375 1.938 C2.684 2.958 2.684 2.958 3 4 C3.66 4.33 4.32 4.66 5 5 C3 7 3 7 0.375 7.125 C-0.409 7.084 -1.192 7.043 -2 7 C-2.66 5.68 -3.32 4.36 -4 3 C-2.68 2.67 -1.36 2.34 0 2 C0 1.34 0 0.68 0 0 Z " fill="#FFFFFF" transform="translate(170,52)"/>
<path d="M0 0 C2.409 0.964 3.76 1.652 5.25 3.812 C6.111 6.323 6.146 8.363 6 11 C1.996 7.509 0.373 5.35 0 0 Z " fill="#FFFFFF" transform="translate(133,233)"/>
<path d="M0 0 C3 1 3 1 4.688 3.25 C6.065 6.136 6.27 7.852 6 11 C1.996 7.509 0.373 5.35 0 0 Z " fill="#FFFFFF" transform="translate(108,243)"/>
<path d="M0 0 C1.938 1.375 1.938 1.375 2.75 3.875 C2.938 6.375 2.938 6.375 1.938 8.375 C0.947 8.375 -0.042 8.375 -1.062 8.375 C-1.372 7.426 -1.681 6.477 -2 5.5 C-2.936 2.514 -2.936 2.514 -4.062 0.375 C-2.062 -0.625 -2.062 -0.625 0 0 Z " fill="#FFFFFF" transform="translate(236.0625,181.625)"/>
<path d="M0 0 C-0.33 1.32 -0.66 2.64 -1 4 C-3.31 4.33 -5.62 4.66 -8 5 C-7.625 3.062 -7.625 3.062 -7 1 C-4.537 -0.231 -2.72 -0.072 0 0 Z " fill="#FFFFFF" transform="translate(157,95)"/>
<path d="M0 0 C2.451 0.98 3.768 1.651 5.25 3.875 C6 6 6 6 6 10 C5.34 10 4.68 10 4 10 C3.328 8.711 2.663 7.419 2 6.125 C1.629 5.406 1.257 4.686 0.875 3.945 C0 2 0 2 0 0 Z " fill="#FFFFFF" transform="translate(144,202)"/>
<path d="M0 0 C1.875 0.5 1.875 0.5 4 2 C4.985 4.652 5.459 7.205 6 10 C3.549 9.02 2.232 8.349 0.75 6.125 C0 4 0 4 0 0 Z " fill="#FFFFFF" transform="translate(60,134)"/>
<path d="M0 0 C3 1 3 1 4.188 2.75 C5.108 5.3 5.149 7.309 5 10 C0.077 5.692 0.077 5.692 -0.312 2.188 C-0.209 1.466 -0.106 0.744 0 0 Z " fill="#FFFFFF" transform="translate(84,121)"/>
<path d="M0 0 C-0.33 2.31 -0.66 4.62 -1 7 C-5.875 5.25 -5.875 5.25 -7 3 C-1.125 0 -1.125 0 0 0 Z " fill="#FFFFFF" transform="translate(103,203)"/>
<path d="M0 0 C0.66 0 1.32 0 2 0 C2 3.63 2 7.26 2 11 C1.34 11 0.68 11 0 11 C0 8.69 0 6.38 0 4 C-0.66 4 -1.32 4 -2 4 C-2 3.34 -2 2.68 -2 2 C-1.34 2 -0.68 2 0 2 C0 1.34 0 0.68 0 0 Z " fill="#000000" transform="translate(329,272)"/>
<path d="M0 0 C2.312 0.188 2.312 0.188 5 1 C6.875 3.438 6.875 3.438 8 6 C7.67 6.66 7.34 7.32 7 8 C6.216 7.361 5.433 6.721 4.625 6.062 C2.205 4.019 2.205 4.019 0 3 C0 2.01 0 1.02 0 0 Z " fill="#FFFFFF" transform="translate(222,98)"/>
<path d="M0 0 C1.32 0.66 2.64 1.32 4 2 C3.34 3.65 2.68 5.3 2 7 C0.35 5.35 -1.3 3.7 -3 2 C-2.01 1.34 -1.02 0.68 0 0 Z " fill="#FFFFFF" transform="translate(239,55)"/>
<path d="M0 0 C0.66 0 1.32 0 2 0 C2.061 0.603 2.121 1.207 2.184 1.828 C2.267 2.627 2.351 3.427 2.438 4.25 C2.559 5.433 2.559 5.433 2.684 6.641 C2.976 8.824 3.421 10.877 4 13 C0.759 10.178 -0.675 8.334 -1 4 C-0.562 1.688 -0.562 1.688 0 0 Z " fill="#FFFFFF" transform="translate(223,212)"/>
<path d="M0 0 C8.571 -0.286 8.571 -0.286 12 2 C7.284 2.925 4.327 3.229 0 1 C0 0.67 0 0.34 0 0 Z " fill="#FFFFFF" transform="translate(271,182)"/>
<path d="M0 0 C0.99 0.33 1.98 0.66 3 1 C3.33 3.31 3.66 5.62 4 8 C3.01 8 2.02 8 1 8 C0.34 5.69 -0.32 3.38 -1 1 C-0.67 0.67 -0.34 0.34 0 0 Z " fill="#FFFFFF" transform="translate(211,114)"/>
<path d="M0 0 C0.99 0.33 1.98 0.66 3 1 C3.33 2.65 3.66 4.3 4 6 C1.36 5.01 -1.28 4.02 -4 3 C-2.188 1.438 -2.188 1.438 0 0 Z " fill="#FFFFFF" transform="translate(243,163)"/>
<path d="M0 0 C1.938 0.688 1.938 0.688 2.938 2.688 C1.618 2.688 0.298 2.688 -1.062 2.688 C-1.393 4.338 -1.722 5.988 -2.062 7.688 C-2.393 7.688 -2.722 7.688 -3.062 7.688 C-3.393 5.377 -3.722 3.067 -4.062 0.688 C-2.062 -0.312 -2.062 -0.312 0 0 Z " fill="#FFFFFF" transform="translate(136.0625,161.3125)"/>
<path d="M0 0 C3 1 3 1 4.25 2.812 C5.116 5.339 4.885 6.522 4 9 C3.01 8.67 2.02 8.34 1 8 C1.021 7.051 1.041 6.102 1.062 5.125 C1.226 2.093 1.226 2.093 0 0 Z " fill="#FFFFFF" transform="translate(243,55)"/>
<path d="M0 0 C0.66 0 1.32 0 2 0 C2.33 0.66 2.66 1.32 3 2 C4.65 2 6.3 2 8 2 C7.34 3.32 6.68 4.64 6 6 C4.125 5.812 4.125 5.812 2 5 C0.75 2.438 0.75 2.438 0 0 Z " fill="#000000" transform="translate(165,56)"/>
<path d="M0 0 C1.32 0.33 2.64 0.66 4 1 C4.33 2.65 4.66 4.3 5 6 C3.062 5.25 3.062 5.25 1 4 C0.25 1.875 0.25 1.875 0 0 Z " fill="#FFFFFF" transform="translate(247,140)"/>
<path d="M0 0 C0.688 1.812 0.688 1.812 1 4 C-0.438 5.75 -0.438 5.75 -2 7 C-3.32 5.68 -4.64 4.36 -6 3 C-3.525 3.495 -3.525 3.495 -1 4 C-0.67 2.68 -0.34 1.36 0 0 Z " fill="#FFFFFF" transform="translate(142,170)"/>
<path d="M0 0 C2.475 0.99 2.475 0.99 5 2 C5 2.66 5 3.32 5 4 C3.35 4.33 1.7 4.66 0 5 C0 3.35 0 1.7 0 0 Z " fill="#FFFFFF" transform="translate(83,169)"/>
<path d="M0 0 C3.366 1.443 5.51 3.333 8 6 C5.218 5.624 3.412 5.327 1.188 3.562 C0 2 0 2 0 0 Z " fill="#FFFFFF" transform="translate(232,41)"/>
</svg>
