<?xml version="1.0" encoding="UTF-8"?>
<!-- Generator: visioncortex VTracer 0.6.4 -->
<svg version="1.1" xmlns="http://www.w3.org/2000/svg" width="451" height="383">
<path d="M0 0 C148.83 0 297.66 0 451 0 C451 126.39 451 252.78 451 383 C302.17 383 153.34 383 0 383 C0 256.61 0 130.22 0 0 Z " fill="#FEFEFE" transform="translate(0,0)"/>
<path d="M0 0 C0.66 0 1.32 0 2 0 C1.399 6.04 -0.345 11.314 -2.422 17 C-2.764 17.953 -3.106 18.907 -3.458 19.889 C-4.549 22.928 -5.649 25.964 -6.75 29 C-8.185 32.978 -9.616 36.958 -11.047 40.938 C-11.393 41.899 -11.739 42.86 -12.096 43.85 C-14.494 50.525 -16.773 57.231 -18.99 63.968 C-20.671 69.016 -22.565 73.955 -24.605 78.867 C-28.877 89.48 -29.718 98.626 -29 110 C-28.697 109.469 -28.394 108.938 -28.082 108.391 C-23.364 100.436 -23.364 100.436 -19 98 C-14.791 97.661 -11.467 97.921 -7.312 98.625 C-3.63 99.042 -2.355 98.358 1 97 C5.788 96.367 9.072 96.502 13.375 98.812 C17.714 102.429 17.714 102.429 19 104 C19 104.66 19 105.32 19 106 C21.823 104.519 24.516 103.008 27 101 C27.501 98.415 27.501 98.415 27 96 C29.59 92.115 31.876 91.135 36 89 C36.66 89 37.32 89 38 89 C38.11 88.336 38.219 87.672 38.332 86.988 C38.491 86.105 38.649 85.222 38.812 84.312 C39.039 83.007 39.039 83.007 39.27 81.676 C40.856 75.866 43.553 73.205 48.688 70.188 C53.916 67.299 57.103 65.882 63 67 C69.357 70.241 73.741 75.213 76 82 C76.643 87.205 76.862 91.563 74.125 96.125 C72 98 72 98 70 99 C70 106.59 70 114.18 70 122 C73.96 120.515 73.96 120.515 78 119 C81.482 118.428 84.721 118.34 87.938 120 C89.314 122.592 89.312 125.062 89.555 127.945 C90.072 130.333 90.872 131.392 92.5 133.188 C95.012 136.014 96 137.254 96 141 C93.958 145.1 90.989 146.007 86.889 147.387 C86.121 147.63 85.353 147.874 84.562 148.125 C83.042 148.625 81.523 149.128 80.004 149.633 C79.332 149.848 78.66 150.064 77.967 150.286 C75.884 151.042 73.962 151.974 72 153 C72.33 153.33 72.66 153.66 73 154 C73.073 156.353 73.084 158.708 73.062 161.062 C73.053 162.353 73.044 163.643 73.035 164.973 C73.018 166.471 73.018 166.471 73 168 C73.99 167.67 74.98 167.34 76 167 C78.357 167.943 80.69 168.946 83 170 C84.871 170.892 84.871 170.892 87 171 C89.898 169.618 92.522 167.947 95.246 166.25 C98.43 164.805 99.735 164.908 103 166 C105.792 167.733 106.008 169.031 106.875 172.25 C105.786 176.916 104.57 177.366 100.625 179.875 C98.112 181.323 95.594 182.703 93 184 C93.062 185.031 93.124 186.062 93.188 187.125 C92.983 191.358 92.281 193.461 90 197 C83.605 202.539 74.782 209.344 66 209 C59.858 207.276 56.503 204.127 53 199 C50.112 193.705 49.345 189.896 50 184 C52.046 180.127 54.182 177.217 58 175 C58.99 175 59.98 175 61 175 C60.67 169.06 60.34 163.12 60 157 C46.9 161.298 33.849 165.663 20.958 170.561 C20.101 170.881 19.243 171.201 18.359 171.531 C17.611 171.815 16.863 172.1 16.093 172.393 C14 173 14 173 10 173 C9.67 173.99 9.34 174.98 9 176 C8.01 176 7.02 176 6 176 C4.397 176.444 2.808 176.941 1.23 177.469 C0.269 177.789 -0.692 178.109 -1.683 178.439 C-3.232 178.964 -3.232 178.964 -4.812 179.5 C-5.872 179.855 -6.931 180.21 -8.022 180.576 C-16.447 183.422 -24.808 186.428 -33.13 189.561 C-33.991 189.881 -34.852 190.201 -35.738 190.531 C-36.868 190.958 -36.868 190.958 -38.021 191.393 C-40 192 -40 192 -43 192 C-42.814 192.763 -42.629 193.526 -42.438 194.312 C-42 197 -42 197 -43 200 C-43.66 200 -44.32 200 -45 200 C-45.075 200.664 -45.15 201.328 -45.227 202.012 C-45.92 206.67 -46.423 209.354 -49.625 212.938 C-60.216 219.41 -72.675 220.546 -84.812 218.312 C-90.624 216.811 -95.656 214.015 -99 209 C-99.583 206.993 -100.004 204.981 -100.438 202.938 C-100.981 200.703 -100.981 200.703 -103 198 C-103.387 193.733 -103.329 189.458 -103.316 185.176 C-103.313 183.073 -103.336 180.972 -103.361 178.869 C-103.364 177.529 -103.364 176.188 -103.363 174.848 C-103.366 173.631 -103.369 172.414 -103.372 171.16 C-102.975 167.787 -102.406 166.36 -100 164 C-99.34 164 -98.68 164 -98 164 C-97.763 163.46 -97.526 162.92 -97.281 162.363 C-95.066 158.277 -91.984 154.795 -89.094 151.168 C-86.875 147.811 -86.026 144.86 -85 141 C-82.875 139.562 -82.875 139.562 -81 139 C-81.495 138.01 -81.495 138.01 -82 137 C-82.124 134.321 -82.185 131.679 -82.188 129 C-82.2 128.263 -82.212 127.525 -82.225 126.766 C-82.23 124.842 -82.122 122.919 -82 121 C-80 119 -80 119 -77.469 118.77 C-75.999 118.791 -75.999 118.791 -74.5 118.812 C-73.52 118.819 -72.541 118.825 -71.531 118.832 C-69 119 -69 119 -67 120 C-60.442 101.031 -53.957 82.045 -47.812 62.938 C-44.088 51.357 -40.285 39.81 -36.312 28.312 C-35.89 27.088 -35.468 25.864 -35.032 24.603 C-32.142 16.283 -32.142 16.283 -31 14 C-30.34 14 -29.68 14 -29 14 C-29.54 19.385 -30.492 24.037 -32.301 29.172 C-32.649 30.174 -32.649 30.174 -33.005 31.196 C-33.506 32.633 -34.011 34.07 -34.518 35.505 C-35.892 39.388 -37.238 43.281 -38.59 47.172 C-38.871 47.978 -39.151 48.783 -39.441 49.613 C-42.493 58.384 -45.444 67.188 -48.375 76 C-48.627 76.757 -48.879 77.514 -49.139 78.294 C-52.868 89.496 -56.524 100.717 -60 112 C-59.481 110.903 -58.961 109.806 -58.426 108.676 C-57.722 107.221 -57.017 105.767 -56.312 104.312 C-55.973 103.591 -55.633 102.87 -55.283 102.127 C-52.723 96.887 -49.949 92.941 -44.977 89.668 C-42.56 88.851 -40.894 88.963 -38.375 89.312 C-37.599 89.412 -36.823 89.511 -36.023 89.613 C-34 90 -34 90 -32 91 C-31.85 90.391 -31.7 89.782 -31.546 89.154 C-29.523 81.324 -26.851 73.785 -24.046 66.212 C-22.686 62.54 -21.343 58.864 -19.996 55.188 C-19.732 54.468 -19.468 53.749 -19.196 53.008 C-17.192 47.541 -15.227 42.061 -13.312 36.562 C-13.053 35.818 -12.793 35.073 -12.526 34.306 C-10.876 29.557 -9.245 24.802 -7.613 20.047 C-7.201 18.849 -6.789 17.65 -6.364 16.416 C-5.55 14.049 -4.739 11.681 -3.931 9.313 C-3.564 8.247 -3.198 7.18 -2.82 6.082 C-2.493 5.125 -2.166 4.169 -1.829 3.183 C-1 1 -1 1 0 0 Z " fill="#161616" transform="translate(126,87)"/>
<path d="M0 0 C1.881 1.881 1.124 4.499 1.133 6.992 C1 9 1 9 0 12 C-0.069 13.895 -0.085 15.792 -0.062 17.688 C-0.053 18.681 -0.044 19.675 -0.035 20.699 C-0.024 21.458 -0.012 22.218 0 23 C-4.52 24.564 -9.041 26.126 -13.562 27.688 C-14.227 27.917 -14.892 28.147 -15.577 28.384 C-24.048 31.31 -32.526 34.209 -41.055 36.965 C-43.74 37.908 -46.318 38.999 -48.925 40.137 C-53.446 42.017 -58.073 43.617 -62.688 45.25 C-63.719 45.626 -64.751 46.003 -65.814 46.391 C-66.808 46.741 -67.801 47.092 -68.824 47.453 C-69.722 47.774 -70.62 48.096 -71.546 48.427 C-74.144 49.034 -75.516 48.884 -78 48 C-78 48.66 -78 49.32 -78 50 C-83.272 51.961 -88.549 53.906 -93.831 55.839 C-96.077 56.662 -98.323 57.487 -100.567 58.313 C-103.708 59.467 -106.851 60.614 -109.997 61.754 C-111.855 62.43 -113.71 63.114 -115.565 63.798 C-116.717 64.214 -117.868 64.63 -119.055 65.059 C-120.081 65.433 -121.107 65.807 -122.164 66.193 C-124.935 66.982 -127.138 67.163 -130 67 C-130.124 66.196 -130.248 65.391 -130.375 64.562 C-130.581 63.717 -130.787 62.871 -131 62 C-131.99 61.505 -131.99 61.505 -133 61 C-132.691 62.196 -132.381 63.392 -132.062 64.625 C-131.887 65.356 -131.712 66.087 -131.531 66.84 C-131.09 68.635 -130.584 70.414 -130.062 72.188 C-130 75 -130 75 -131.812 77.625 C-139.888 83.642 -148.515 85.18 -158.312 85.188 C-159.142 85.2 -159.972 85.212 -160.826 85.225 C-165.947 85.237 -170.15 84.656 -175 83 C-174.505 82.01 -174.505 82.01 -174 81 C-173.34 81 -172.68 81 -172 81 C-172.33 78.69 -172.66 76.38 -173 74 C-174.65 74 -176.3 74 -178 74 C-178 76.31 -178 78.62 -178 81 C-180.895 79.702 -183.008 78.491 -185 76 C-185.432 73.64 -185.432 73.64 -185.512 70.895 C-185.547 69.912 -185.583 68.929 -185.619 67.916 C-185.653 66.38 -185.653 66.38 -185.688 64.812 C-185.722 63.777 -185.756 62.741 -185.791 61.674 C-185.874 59.116 -185.943 56.559 -186 54 C-185.473 54.34 -184.945 54.68 -184.402 55.03 C-183.698 55.478 -182.994 55.925 -182.27 56.387 C-181.577 56.83 -180.885 57.273 -180.171 57.729 C-170.557 63.356 -157.475 63.753 -146.72 61.528 C-141.154 60.038 -135.817 58.211 -131 55 C-131.33 56.32 -131.66 57.64 -132 59 C-129.586 55.38 -128.875 53.823 -128.938 49.562 C-128.947 48.78 -128.956 47.998 -128.965 47.191 C-128.976 46.468 -128.988 45.745 -129 45 C-129 44.01 -129 43.02 -129 42 C-128.271 41.759 -127.542 41.518 -126.791 41.269 C-108.259 35.156 -108.259 35.156 -89.852 28.677 C-85.205 27 -85.205 27 -83 27 C-83 26.01 -83 25.02 -83 24 C-83.525 24.195 -84.05 24.39 -84.591 24.592 C-100.282 30.406 -116.102 35.78 -132 41 C-133.32 39.68 -134.64 38.36 -136 37 C-127.119 30.619 -118.193 24.305 -109.21 18.068 C-105.574 15.537 -101.956 13.005 -98.453 10.293 C-97.499 9.557 -96.545 8.821 -95.562 8.062 C-94.78 7.435 -93.998 6.807 -93.191 6.16 C-91 5 -91 5 -88.215 5.309 C-87.484 5.537 -86.753 5.765 -86 6 C-85.505 9.96 -85.505 9.96 -85 14 C-84.34 14 -83.68 14 -83 14 C-83.495 10.535 -83.495 10.535 -84 7 C-81.457 7.685 -78.915 8.376 -76.375 9.074 C-73.981 9.731 -71.585 10.378 -69.188 11.02 C-67.929 11.364 -66.671 11.708 -65.375 12.062 C-64.186 12.383 -62.998 12.704 -61.773 13.035 C-59 14 -59 14 -58 16 C-58.626 16.207 -59.251 16.414 -59.896 16.627 C-62.723 17.562 -65.549 18.5 -68.375 19.438 C-69.36 19.763 -70.345 20.088 -71.359 20.424 C-72.3 20.736 -73.241 21.049 -74.211 21.371 C-75.515 21.803 -75.515 21.803 -76.845 22.244 C-79.011 22.953 -79.011 22.953 -81 24 C-81.156 29.063 -80.628 33.504 -79.5 38.438 C-79.222 39.674 -78.943 40.91 -78.656 42.184 C-78.44 43.113 -78.223 44.042 -78 45 C-78.622 38.661 -79.285 32.329 -80 26 C-67.123 19.791 -55.354 15.991 -41 17 C-41 15.35 -41 13.7 -41 12 C-40.01 11.674 -39.02 11.348 -38 11.012 C-29.928 8.374 -29.928 8.374 -21.938 5.5 C-21.354 5.278 -20.77 5.057 -20.168 4.828 C-18.294 4.112 -16.422 3.393 -14.551 2.672 C-13.284 2.197 -12.017 1.723 -10.75 1.25 C-9.569 0.801 -8.388 0.353 -7.172 -0.109 C-4.13 -0.964 -2.85 -1.222 0 0 Z " fill="#FEFEFE" transform="translate(211,209)"/>
<path d="M0 0 C-1 3 -1 3 -4.113 4.727 C-5.508 5.37 -6.908 6.002 -8.312 6.625 C-9.453 7.145 -9.453 7.145 -10.617 7.677 C-13.074 8.794 -15.537 9.897 -18 11 C-19.567 11.711 -21.133 12.424 -22.699 13.137 C-29.956 16.431 -37.233 19.674 -44.547 22.84 C-45.66 23.323 -46.773 23.807 -47.92 24.305 C-50.085 25.245 -52.253 26.179 -54.424 27.107 C-64.436 31.408 -64.436 31.408 -73 38 C-75.906 46.465 -72.112 53.939 -68.923 61.679 C-67.244 65.901 -65.791 70.204 -64.312 74.5 C-63.747 76.136 -63.181 77.771 -62.613 79.406 C-62.374 80.1 -62.135 80.795 -61.888 81.51 C-60.893 84.3 -59.851 87.071 -58.808 89.844 C-57.458 93.446 -56.141 97.059 -54.82 100.672 C-54.215 102.323 -53.61 103.974 -53.004 105.625 C-52.066 108.182 -51.129 110.74 -50.194 113.299 C-44.145 134.678 -44.145 134.678 -30 150 C-27.624 150.806 -25.29 151.524 -22.875 152.188 C-21.346 152.623 -19.818 153.059 -18.289 153.496 C-17.448 153.734 -16.606 153.973 -15.739 154.218 C-10.566 155.695 -5.408 157.223 -0.25 158.75 C1.45 159.252 1.45 159.252 3.184 159.765 C14.364 163.084 25.498 166.542 36.629 170.02 C41.385 171.505 46.153 172.947 50.929 174.368 C53.329 175.1 55.691 175.93 58.062 176.75 C62.66 178.123 67.424 178.805 72 177 C73.366 175.133 73.366 175.133 74 173 C72.948 169.527 70.959 167.973 68 166 C68.33 165.34 68.66 164.68 69 164 C74.875 167.75 74.875 167.75 76 170 C76.456 176.266 76.456 176.266 74.875 178.812 C72.38 180.393 69.826 181.183 67 182 C74.045 184.171 74.045 184.171 81 182.625 C84.938 179.179 85.237 177.086 86 172 C89.627 171.482 90.8 171.853 93.812 174.062 C96.496 177.666 96.507 179.605 96 184 C95 185 95 185 92.125 185.25 C89 185 89 185 87.125 183.5 C86.754 183.005 86.382 182.51 86 182 C83.525 183.98 83.525 183.98 81 186 C83.04 186.651 85.082 187.295 87.125 187.938 C88.262 188.297 89.399 188.657 90.57 189.027 C94.389 190.179 94.389 190.179 100 191 C100 184.4 100 177.8 100 171 C97.437 170.307 94.873 169.615 92.309 168.926 C90.123 168.314 87.948 167.666 85.785 166.98 C80.214 165.245 74.968 163.894 69.131 163.47 C56.839 162.563 45.501 158.828 33.807 155.124 C27.822 153.235 21.807 151.457 15.785 149.691 C12.864 148.829 9.942 147.966 7.021 147.103 C5.105 146.538 3.187 145.978 1.268 145.42 C-1.447 144.63 -4.157 143.824 -6.867 143.016 C-8.073 142.671 -8.073 142.671 -9.304 142.319 C-18.282 139.604 -24.152 135.997 -28.699 127.682 C-30.756 123.441 -32.428 119.129 -34 114.688 C-34.763 112.593 -35.528 110.5 -36.293 108.406 C-36.714 107.249 -37.134 106.091 -37.568 104.898 C-40.407 97.133 -43.376 89.416 -46.312 81.688 C-48.306 76.436 -50.296 71.184 -52.274 65.926 C-52.943 64.152 -53.615 62.38 -54.289 60.608 C-54.832 59.154 -54.832 59.154 -55.387 57.672 C-55.692 56.862 -55.997 56.052 -56.311 55.218 C-57.453 51.54 -57.537 48.828 -57 45 C-53.707 40.656 -49.021 38.875 -44.188 36.688 C-43.336 36.294 -42.484 35.9 -41.607 35.494 C-39.877 34.695 -38.147 33.899 -36.414 33.106 C-34.333 32.153 -32.258 31.187 -30.188 30.211 C-27.194 28.801 -24.194 27.404 -21.19 26.016 C-19.552 25.256 -17.915 24.492 -16.278 23.727 C-13.293 22.331 -10.303 20.946 -7.312 19.562 C-6.355 19.113 -5.397 18.663 -4.411 18.199 C-3.508 17.784 -2.606 17.369 -1.676 16.941 C-0.871 16.567 -0.065 16.193 0.764 15.807 C3 15 3 15 7 15 C6 18 6 18 3.462 19.423 C2.348 19.907 1.234 20.392 0.086 20.891 C-0.516 21.156 -1.118 21.422 -1.738 21.695 C-3.696 22.556 -5.661 23.403 -7.625 24.25 C-8.967 24.838 -10.309 25.427 -11.65 26.018 C-14.271 27.171 -16.893 28.321 -19.517 29.467 C-23.538 31.237 -27.528 33.061 -31.5 34.938 C-32.597 35.453 -33.694 35.969 -34.824 36.5 C-36.492 37.288 -38.159 38.075 -39.827 38.863 C-41.654 39.725 -43.483 40.581 -45.312 41.438 C-46.361 41.931 -47.409 42.425 -48.488 42.934 C-51 44 -51 44 -53 44 C-54.637 49.799 -53.091 53.593 -50.984 58.973 C-50.657 59.841 -50.33 60.709 -49.993 61.604 C-48.926 64.429 -47.838 67.245 -46.75 70.062 C-46.011 72.005 -45.273 73.948 -44.536 75.892 C-43.061 79.777 -41.579 83.659 -40.09 87.538 C-38.244 92.352 -36.427 97.177 -34.625 102.008 C-34.128 103.336 -33.631 104.664 -33.134 105.992 C-32.239 108.383 -31.345 110.774 -30.452 113.166 C-28.257 118.972 -25.848 124.486 -23 130 C-22.67 130.99 -22.34 131.98 -22 133 C-19.691 134.135 -19.691 134.135 -17 135 C-16.229 135.321 -15.459 135.641 -14.665 135.971 C-8.961 138.323 -3.261 140.194 2.688 141.812 C10.325 143.941 17.922 146.168 25.5 148.5 C34.145 151.158 42.818 153.697 51.527 156.135 C52.761 156.482 52.761 156.482 54.02 156.836 C54.742 157.038 55.465 157.239 56.21 157.447 C58 158 58 158 60 159 C61.871 158.958 63.742 158.91 65.612 158.833 C79.808 158.325 93.299 161.649 106 168 C105.84 166.931 105.84 166.931 105.676 165.84 C104.891 159.571 104.602 155.437 108 150 C111.249 147.122 114.505 146.313 118.863 146.43 C123.117 147.565 126.024 150.898 129 154 C129.66 153.67 130.32 153.34 131 153 C130.67 152.67 130.34 152.34 130 152 C129.348 146.974 129.098 143.212 132.188 139.062 C133.116 138.382 134.044 137.701 135 137 C135.763 136.402 136.526 135.804 137.312 135.188 C140.964 133.574 144.133 133.105 148 134 C153.365 137.008 156.244 141.114 158 147 C158.369 151.352 158.334 154.297 156 158 C152.172 161.018 147.78 163.295 142.875 163.688 C137.869 162.799 135.435 160.607 132 157 C131.825 160.697 131.825 160.697 132.535 162.969 C133.412 166.801 132.439 170.403 131 174 C127.78 177.07 125.841 177.897 121.438 178.438 C115.191 177.643 112.756 174.792 109 170 C108.34 170 107.68 170 107 170 C106.67 176.93 106.34 183.86 106 191 C105.01 191.33 104.02 191.66 103 192 C103 192.66 103 193.32 103 194 C96.997 195.745 92.346 193.927 86.625 192.062 C85.698 191.772 84.771 191.481 83.816 191.182 C81.54 190.466 79.269 189.739 77 189 C77 188.34 77 187.68 77 187 C75.02 187.99 75.02 187.99 73 189 C73 188.34 73 187.68 73 187 C72.215 186.841 71.43 186.683 70.621 186.52 C69.571 186.286 68.52 186.053 67.438 185.812 C66.405 185.592 65.372 185.372 64.309 185.145 C61 184 61 184 57.902 181.625 C52.927 177.871 47.067 176.742 41.125 175.188 C38.605 174.5 36.085 173.808 33.566 173.113 C32.299 172.765 31.032 172.416 29.727 172.057 C24.126 170.469 18.595 168.685 13.062 166.875 C5.394 164.373 -2.29 162.031 -10.062 159.875 C-36.468 152.429 -36.468 152.429 -40.98 145.824 C-41.317 145.222 -41.653 144.62 -42 144 C-42.347 143.429 -42.694 142.858 -43.051 142.27 C-46.56 135.915 -48.648 128.839 -51 122 C-55.387 108.968 -55.387 108.968 -60.438 96.188 C-63.333 89.482 -65.609 82.569 -67.973 75.664 C-70.393 68.632 -73.017 61.729 -75.871 54.863 C-78.209 48.934 -79.097 43.239 -76.938 37.062 C-71.26 26.882 -53.176 22.4 -43.07 18.152 C-34.58 14.574 -26.279 10.598 -17.996 6.566 C-16.707 5.944 -16.707 5.944 -15.391 5.309 C-13.705 4.494 -12.022 3.673 -10.343 2.844 C-9.576 2.474 -8.81 2.104 -8.02 1.723 C-7.34 1.39 -6.66 1.058 -5.96 0.715 C-4 0 -4 0 0 0 Z " fill="#0D0D0D" transform="translate(281,46)"/>
<path d="M0 0 C-1 3 -1 3 -4.113 4.727 C-5.508 5.37 -6.908 6.002 -8.312 6.625 C-9.453 7.145 -9.453 7.145 -10.617 7.677 C-13.074 8.794 -15.537 9.897 -18 11 C-19.567 11.711 -21.133 12.424 -22.699 13.137 C-29.956 16.431 -37.233 19.674 -44.547 22.84 C-45.66 23.323 -46.773 23.807 -47.92 24.305 C-50.085 25.245 -52.253 26.179 -54.424 27.107 C-64.436 31.408 -64.436 31.408 -73 38 C-75.906 46.465 -72.112 53.939 -68.923 61.679 C-67.244 65.901 -65.791 70.204 -64.312 74.5 C-63.747 76.136 -63.181 77.771 -62.613 79.406 C-62.374 80.1 -62.135 80.795 -61.888 81.51 C-60.893 84.3 -59.851 87.071 -58.808 89.844 C-57.458 93.446 -56.141 97.059 -54.82 100.672 C-54.215 102.323 -53.61 103.974 -53.004 105.625 C-52.066 108.182 -51.129 110.74 -50.194 113.299 C-44.145 134.678 -44.145 134.678 -30 150 C-27.624 150.806 -25.29 151.524 -22.875 152.188 C-21.346 152.623 -19.818 153.059 -18.289 153.496 C-17.448 153.734 -16.606 153.973 -15.739 154.218 C-10.566 155.695 -5.408 157.223 -0.25 158.75 C1.45 159.252 1.45 159.252 3.184 159.765 C14.364 163.084 25.498 166.542 36.629 170.02 C41.385 171.505 46.153 172.947 50.929 174.368 C53.329 175.1 55.691 175.93 58.062 176.75 C62.66 178.123 67.424 178.805 72 177 C73.366 175.133 73.366 175.133 74 173 C72.948 169.527 70.959 167.973 68 166 C68.33 165.34 68.66 164.68 69 164 C74.875 167.75 74.875 167.75 76 170 C76.456 176.266 76.456 176.266 74.875 178.812 C72.38 180.393 69.826 181.183 67 182 C70.3 182.99 73.6 183.98 77 185 C77 185.66 77 186.32 77 187 C75.02 187.99 75.02 187.99 73 189 C73 188.34 73 187.68 73 187 C72.215 186.841 71.43 186.683 70.621 186.52 C69.571 186.286 68.52 186.053 67.438 185.812 C66.405 185.592 65.372 185.372 64.309 185.145 C61 184 61 184 57.902 181.625 C52.927 177.871 47.067 176.742 41.125 175.188 C38.605 174.5 36.085 173.808 33.566 173.113 C32.299 172.765 31.032 172.416 29.727 172.057 C24.126 170.469 18.595 168.685 13.062 166.875 C5.394 164.373 -2.29 162.031 -10.062 159.875 C-36.468 152.429 -36.468 152.429 -40.98 145.824 C-41.317 145.222 -41.653 144.62 -42 144 C-42.347 143.429 -42.694 142.858 -43.051 142.27 C-46.56 135.915 -48.648 128.839 -51 122 C-55.387 108.968 -55.387 108.968 -60.438 96.188 C-63.333 89.482 -65.609 82.569 -67.973 75.664 C-70.393 68.632 -73.017 61.729 -75.871 54.863 C-78.209 48.934 -79.097 43.239 -76.938 37.062 C-71.26 26.882 -53.176 22.4 -43.07 18.152 C-34.58 14.574 -26.279 10.598 -17.996 6.566 C-16.707 5.944 -16.707 5.944 -15.391 5.309 C-13.705 4.494 -12.022 3.673 -10.343 2.844 C-9.576 2.474 -8.81 2.104 -8.02 1.723 C-7.34 1.39 -6.66 1.058 -5.96 0.715 C-4 0 -4 0 0 0 Z " fill="#000000" transform="translate(281,46)"/>
<path d="M0 0 C0.713 0.325 1.426 0.65 2.16 0.984 C5.125 2.045 7.304 2.268 10.438 2.25 C11.344 2.255 12.25 2.26 13.184 2.266 C16.353 1.967 19.024 1.104 22 0 C23.61 1.556 25.213 3.12 26.812 4.688 C27.706 5.558 28.599 6.428 29.52 7.324 C31.811 9.796 33.518 11.98 35 15 C34.387 18.219 33.538 19.563 31 21.625 C19.821 26.749 7.85 28.068 -3.934 23.914 C-6.817 22.639 -8.906 21.373 -11 19 C-11.571 16.305 -11.395 14.653 -9.961 12.283 C-8.531 10.364 -7.038 8.522 -5.5 6.688 C-4.975 6.042 -4.451 5.397 -3.91 4.732 C-2.618 3.146 -1.31 1.572 0 0 Z " fill="#FFFFFF" transform="translate(41,237)"/>
<path d="M0 0 C3.46 3.46 2.632 13.206 2.73 18.142 C2.615 21.596 2.301 23.624 0.121 26.348 C-2.499 28.148 -5.159 29.577 -8 31 C-9.54 32.034 -11.061 33.097 -12.562 34.188 C-13.369 34.751 -14.176 35.314 -15.008 35.895 C-17.448 37.611 -19.878 39.339 -22.305 41.074 C-23.448 41.889 -23.448 41.889 -24.615 42.72 C-26.145 43.81 -27.674 44.904 -29.199 46.001 C-29.906 46.503 -30.612 47.006 -31.34 47.523 C-31.973 47.976 -32.606 48.429 -33.258 48.896 C-35 50 -35 50 -38 51 C-36.725 48.208 -35.382 46.205 -33.25 44.012 C-29.036 39.208 -26.644 33.579 -24 27.812 C-23.001 25.673 -22.001 23.533 -21 21.395 C-20.509 20.344 -20.018 19.293 -19.512 18.21 C-17.963 14.922 -16.404 11.642 -14.812 8.375 C-14.345 7.409 -13.877 6.444 -13.395 5.449 C-10.198 -0.165 -6.376 -1.928 0 0 Z " fill="#FFFFFF" transform="translate(118,189)"/>
<path d="M0 0 C0.7 0.274 1.401 0.548 2.123 0.831 C2.832 1.106 3.542 1.381 4.273 1.664 C5.077 1.982 5.077 1.982 5.896 2.307 C5.926 3.155 5.926 3.155 5.956 4.02 C6.051 6.574 6.161 9.128 6.271 11.682 C6.302 12.572 6.333 13.461 6.365 14.377 C6.423 15.654 6.423 15.654 6.482 16.956 C6.513 17.741 6.545 18.527 6.577 19.336 C6.736 21.537 6.736 21.537 8.896 23.307 C2.956 25.287 -2.984 27.267 -9.104 29.307 C-10.754 27.657 -12.404 26.007 -14.104 24.307 C-14.702 23.75 -15.3 23.193 -15.917 22.62 C-17.104 21.307 -17.104 21.307 -17.104 19.307 C-18.094 18.977 -19.084 18.647 -20.104 18.307 C-21.534 16.635 -21.534 16.635 -22.979 14.557 C-25.453 11.118 -28.023 8.207 -31.104 5.307 C-28.76 2.593 -26.61 1.162 -23.104 0.307 C-21.737 1.26 -20.401 2.261 -19.104 3.307 C-16.368 3.125 -14.703 2.085 -12.292 0.745 C-7.994 -1.194 -4.53 -1.492 0 0 Z " fill="#FFFFFF" transform="translate(178.10400390625,189.69287109375)"/>
<path d="M0 0 C5.181 3.251 8.045 7.2 10 13 C10.448 16.776 10.32 19.139 9 22.688 C4.211 28.225 -2.485 29.686 -9.5 30.312 C-13.73 29.935 -15.103 29.058 -18 26 C-21.213 21.236 -21.959 16.609 -21 11 C-19.125 7.938 -19.125 7.938 -17 6 C-16.34 6 -15.68 6 -15 6 C-15 5.34 -15 4.68 -15 4 C-9.98 1.079 -5.962 -0.994 0 0 Z " fill="#181818" transform="translate(87,320)"/>
<path d="M0 0 C7.532 4.483 13.155 12.812 18.685 19.485 C20.007 21.059 20.007 21.059 21.665 22.569 C23 24 23 24 23 26 C23.66 26 24.32 26 25 26 C29 30.471 29 30.471 29 33 C29.66 33 30.32 33 31 33 C31.495 35.475 31.495 35.475 32 38 C31.361 37.804 30.722 37.607 30.063 37.405 C27.105 36.497 24.146 35.592 21.188 34.688 C20.183 34.379 19.178 34.07 18.143 33.752 C12.277 31.96 6.402 30.267 0.466 28.722 C-2.102 27.97 -4.533 27.031 -7 26 C-7.33 23.69 -7.66 21.38 -8 19 C-5.688 17.875 -5.688 17.875 -3 17 C-2.01 17.66 -1.02 18.32 0 19 C3.125 19.167 3.125 19.167 6 19 C5.505 14.05 5.505 14.05 5 9 C0.574 7.555 0.574 7.555 -4 7 C-4.33 9.97 -4.66 12.94 -5 16 C-6.65 16.66 -8.3 17.32 -10 18 C-9.67 20.31 -9.34 22.62 -9 25 C-9.99 25 -10.98 25 -12 25 C-12 17.41 -12 9.82 -12 2 C-7.143 0.057 -5.058 -0.771 0 0 Z " fill="#FFFFFF" transform="translate(133,188)"/>
<path d="M0 0 C4.876 3.175 8.223 6.903 10.25 12.375 C11.256 17.237 11.816 21.111 9.812 25.75 C6.982 29.263 4.537 30.771 0.062 31.438 C-4.807 30.742 -7.818 28.216 -11.188 24.75 C-12.94 22.653 -12.94 22.653 -16 23 C-15.814 22.237 -15.629 21.474 -15.438 20.688 C-14.772 17.91 -14.772 17.91 -16 15 C-16.57 6.165 -16.57 6.165 -13 2 C-8.404 -1.134 -5.346 -1.458 0 0 Z " fill="#090909" transform="translate(111,306)"/>
<path d="M0 0 C1 1 1 1 1.114 2.949 C1.108 3.782 1.103 4.615 1.098 5.473 C1.094 6.372 1.091 7.271 1.088 8.197 C1.08 9.143 1.071 10.088 1.062 11.062 C1.058 12.012 1.053 12.961 1.049 13.939 C1.037 16.293 1.021 18.646 1 21 C-0.455 21.838 -1.914 22.671 -3.375 23.5 C-4.187 23.964 -4.999 24.428 -5.836 24.906 C-8 26 -8 26 -10 26 C-10 26.66 -10 27.32 -10 28 C-7.69 27.34 -5.38 26.68 -3 26 C-3 25.34 -3 24.68 -3 24 C-1.35 23.67 0.3 23.34 2 23 C-7.714 45.536 -7.714 45.536 -15 53 C-16.108 49.675 -15.962 49.221 -14.75 46.129 C-14.472 45.39 -14.193 44.65 -13.906 43.889 C-13.303 42.341 -12.699 40.794 -12.094 39.248 C-11.815 38.507 -11.537 37.767 -11.25 37.004 C-10.987 36.332 -10.724 35.66 -10.453 34.967 C-9.919 32.65 -10.262 31.234 -11 29 C-14.567 27.849 -17.126 28.13 -20.691 28.977 C-21.499 29.166 -22.307 29.355 -23.139 29.549 C-23.753 29.698 -24.367 29.847 -25 30 C-23.609 27.018 -22.212 24.04 -20.812 21.062 C-20.425 20.232 -20.038 19.401 -19.639 18.545 C-17.659 14.339 -15.623 10.168 -13.449 6.059 C-13.075 5.349 -12.701 4.639 -12.315 3.908 C-8.785 -1.214 -5.899 -1.336 0 0 Z " fill="#FFFFFF" transform="translate(92,181)"/>
<path d="M0 0 C1.748 3.496 -0.401 7 -1.561 10.561 C-2.118 12.232 -2.118 12.232 -2.688 13.938 C-3.216 15.603 -3.216 15.603 -3.756 17.303 C-4.285 18.899 -4.285 18.899 -4.824 20.527 C-5.145 21.504 -5.465 22.481 -5.796 23.488 C-7.131 26.274 -8.404 27.387 -11 29 C-14.888 24.813 -16.094 22.692 -17 17 C-18.32 16.34 -19.64 15.68 -21 15 C-21 11.04 -21 7.08 -21 3 C-19.68 3 -18.36 3 -17 3 C-16.67 2.34 -16.34 1.68 -16 1 C-16 1.99 -16 2.98 -16 4 C-14.927 3.361 -13.855 2.721 -12.75 2.062 C-8.155 -0.539 -5.239 -1.557 0 0 Z " fill="#FFFFFF" transform="translate(80,211)"/>
<path d="M0 0 C2.513 1.226 3.91 2.019 5.562 4.25 C6.561 7.577 6.679 8.9 5.562 12.25 C1.152 13.276 -1.364 13.287 -5.438 11.25 C-7.787 13.148 -7.787 13.148 -7.562 16.375 C-7.521 17.324 -7.48 18.273 -7.438 19.25 C-6.752 19.375 -6.066 19.5 -5.359 19.629 C-2.077 20.327 1.098 21.224 4.312 22.188 C5.462 22.527 6.612 22.866 7.797 23.215 C10.562 24.25 10.562 24.25 11.562 26.25 C5.65 25.607 0.22 24.06 -5.438 22.25 C-5.438 24.23 -5.438 26.21 -5.438 28.25 C-6.097 28.25 -6.757 28.25 -7.438 28.25 C-7.933 24.29 -7.933 24.29 -8.438 20.25 C-12.11 19.717 -13.446 20.255 -16.645 22.27 C-17.855 23.19 -19.056 24.121 -20.25 25.062 C-21.578 26.074 -22.907 27.083 -24.238 28.09 C-24.925 28.612 -25.611 29.134 -26.319 29.671 C-29.789 32.257 -33.359 34.692 -36.938 37.125 C-41.814 40.443 -46.648 43.806 -51.438 47.25 C-52.097 46.92 -52.757 46.59 -53.438 46.25 C-48.719 41.97 -43.754 38.31 -38.493 34.718 C-34.807 32.201 -31.168 29.632 -27.562 27 C-26.679 26.355 -25.796 25.711 -24.887 25.047 C-23.345 23.916 -21.805 22.781 -20.27 21.641 C-15.65 18.25 -15.65 18.25 -13.438 18.25 C-13.438 14.95 -13.438 11.65 -13.438 8.25 C-12.778 8.91 -12.118 9.57 -11.438 10.25 C-11.47 12.979 -12.001 15.547 -12.438 18.25 C-11.447 18.25 -10.458 18.25 -9.438 18.25 C-9.933 14.785 -9.933 14.785 -10.438 11.25 C-8.787 10.59 -7.138 9.93 -5.438 9.25 C-5.644 8.507 -5.85 7.765 -6.062 7 C-6.485 3.903 -6.167 2.799 -4.438 0.25 C-2.438 -0.75 -2.438 -0.75 0 0 Z " fill="#000000" transform="translate(133.4375,194.75)"/>
<path d="M0 0 C6.063 3.153 9.378 7.483 11.438 13.938 C12.432 18.484 11.305 21.025 9 25 C6 27 6 27 2.812 26.625 C1.884 26.419 0.956 26.213 0 26 C0.66 25.67 1.32 25.34 2 25 C3.605 20.186 3.68 15.841 1.938 11.125 C-0.73 8.199 -3.17 7.752 -7 7 C-7.99 7 -8.98 7 -10 7 C-9.688 4.625 -9.688 4.625 -9 2 C-5.466 -0.356 -4.164 -0.49 0 0 Z " fill="#FFFFFF" transform="translate(179,162)"/>
<path d="M0 0 C5.214 2.289 9.298 5.882 11.562 11.125 C12.583 15.461 12.957 18.917 11.562 23.188 C9.562 25.125 9.562 25.125 6.25 25.75 C1.458 24.938 -0.111 23.614 -3.438 20.125 C-3.438 19.135 -3.438 18.145 -3.438 17.125 C-2.447 16.795 -1.457 16.465 -0.438 16.125 C-0.108 16.785 0.223 17.445 0.562 18.125 C2.543 18.125 4.522 18.125 6.562 18.125 C7.544 15.003 7.72 13.524 6.5 10.438 C4.108 7.582 2.13 6.997 -1.438 6.125 C-1.767 9.095 -2.098 12.065 -2.438 15.125 C-3.428 15.455 -4.418 15.785 -5.438 16.125 C-7.236 12.303 -8.053 9.343 -7.438 5.125 C-3.765 0.193 -3.765 0.193 0 0 Z " fill="#FFFFFF" transform="translate(396.4375,195.875)"/>
<path d="M0 0 C2.875 0.812 2.875 0.812 4.875 1.812 C4.875 2.473 4.875 3.132 4.875 3.812 C5.473 3.978 6.071 4.142 6.688 4.312 C10.112 6.661 10.894 9.882 11.875 13.812 C12.248 17.543 12.321 19.847 10.75 23.25 C8.875 24.812 8.875 24.812 6.125 25.438 C1.558 24.559 -0.892 22.026 -4.125 18.812 C-3.795 17.822 -3.465 16.832 -3.125 15.812 C-2.568 16.122 -2.011 16.431 -1.438 16.75 C1.019 17.879 3.2 18.451 5.875 18.812 C7.192 17.715 7.192 17.715 7.062 15 C6.883 11.038 6.883 11.038 4.875 7.812 C1.329 6.513 1.329 6.513 -2.125 5.812 C-2.455 8.783 -2.785 11.752 -3.125 14.812 C-4.115 14.812 -5.105 14.812 -6.125 14.812 C-7.855 11.353 -7.601 7.596 -7.125 3.812 C-4.962 0.318 -4.124 -0.247 0 0 Z " fill="#FFFFFF" transform="translate(105.125,309.1875)"/>
<path d="M0 0 C5.225 1.935 8.016 6.525 11 11 C12.055 15.237 12.449 18.828 10.875 22.938 C8.731 25.296 6.955 25.92 4 27 C3.961 25.822 3.961 25.822 3.922 24.621 C3.48 16.436 2.4 11.683 -3.25 5.562 C-3.827 5.047 -4.405 4.531 -5 4 C-3.35 3.67 -1.7 3.34 0 3 C0 2.01 0 1.02 0 0 Z " fill="#FFFFFF" transform="translate(199,261)"/>
<path d="M0 0 C1.98 0 3.96 0 6 0 C6.99 2.64 7.98 5.28 9 8 C10.191 5.991 10.191 5.991 10 3.438 C10 1 10 1 11 0 C13 -0.041 15 -0.043 17 0 C18.062 1.812 18.062 1.812 19 4 C18.67 4.99 18.34 5.98 18 7 C18.186 7.846 18.371 8.691 18.562 9.562 C18.707 10.367 18.851 11.171 19 12 C17 14 17 14 14.062 14.25 C11 14 11 14 8 12 C7.34 12.66 6.68 13.32 6 14 C2.875 14.125 2.875 14.125 0 14 C-0.33 12.68 -0.66 11.36 -1 10 C-0.34 9.67 0.32 9.34 1 9 C1 9.99 1 10.98 1 12 C2.32 11.67 3.64 11.34 5 11 C5 10.34 5 9.68 5 9 C4.01 8.67 3.02 8.34 2 8 C2 7.34 2 6.68 2 6 C2.66 5.67 3.32 5.34 4 5 C4 4.34 4 3.68 4 3 C2.35 3.33 0.7 3.66 -1 4 C-0.67 2.68 -0.34 1.36 0 0 Z " fill="#212121" transform="translate(419,357)"/>
<path d="M0 0 C0.169 2.521 0.336 5.041 0.5 7.562 C0.548 8.267 0.595 8.971 0.645 9.697 C0.931 14.143 1.047 18.545 1 23 C-3.75 24.125 -3.75 24.125 -6 23 C-6.411 20.959 -6.411 20.959 -6.633 18.309 C-6.717 17.364 -6.8 16.42 -6.887 15.447 C-6.965 14.454 -7.044 13.461 -7.125 12.438 C-7.211 11.44 -7.298 10.443 -7.387 9.416 C-7.6 6.945 -7.804 4.473 -8 2 C-2.25 0 -2.25 0 0 0 Z " fill="#FFFFFF" transform="translate(196,240)"/>
<path d="M0 0 C3.537 0.347 5.381 1.167 8.188 3.312 C8.188 3.973 8.188 4.632 8.188 5.312 C8.847 5.312 9.507 5.312 10.188 5.312 C11.686 8.683 12.188 10.517 12.188 14.312 C7.732 14.808 7.732 14.808 3.188 15.312 C3.188 12.312 3.188 12.312 5.688 9.625 C6.512 8.862 7.338 8.099 8.188 7.312 C7.528 6.983 6.868 6.652 6.188 6.312 C5.857 7.303 5.528 8.293 5.188 9.312 C3.938 11.062 3.938 11.062 2.188 12.312 C-0.5 12 -0.5 12 -2.812 11.312 C-3.938 5.562 -3.938 5.562 -2.812 3.312 C-3.472 2.983 -4.132 2.652 -4.812 2.312 C-2.812 0.312 -2.812 0.312 0 0 Z " fill="#FFFFFF" transform="translate(186.8125,267.6875)"/>
<path d="M0 0 C0.025 0.56 0.05 1.12 0.076 1.697 C0.192 4.235 0.315 6.774 0.438 9.312 C0.477 10.194 0.516 11.075 0.557 11.982 C0.599 12.83 0.64 13.678 0.684 14.551 C0.72 15.331 0.757 16.111 0.795 16.915 C0.941 19.193 0.941 19.193 2 22 C-0.906 23.257 -2.796 24 -6 24 C-6.39 20.337 -6.713 16.673 -7 13 C-7.08 12.059 -7.16 11.118 -7.242 10.148 C-7.367 7.669 -7.431 5.446 -7 3 C-4.561 0.818 -3.268 0 0 0 Z " fill="#FFFFFF" transform="translate(193,188)"/>
<path d="M0 0 C6.14 -0.585 9.137 1.648 13.75 5.438 C17.219 9.773 17.28 14.257 17.461 19.598 C16.855 22.755 15.398 23.948 13 26 C12.89 25.12 12.781 24.239 12.668 23.332 C12.509 22.171 12.351 21.009 12.188 19.812 C12.037 18.664 11.886 17.515 11.73 16.332 C10.57 11.041 8.033 7.544 4 4 C1.867 2.765 1.867 2.765 0 2 C0 1.34 0 0.68 0 0 Z " fill="#FFFFFF" transform="translate(182,157)"/>
<path d="M0 0 C3.333 1.171 5.864 2.116 8 5 C8.998 8.327 9.117 9.65 8 13 C3.517 14.043 1.158 13.911 -3 12 C-3.99 12 -4.98 12 -6 12 C-5.34 11.34 -4.68 10.68 -4 10 C-3.856 8.866 -3.711 7.731 -3.562 6.562 C-3.008 3.052 -2.767 2.045 0 0 Z " fill="#232323" transform="translate(131,194)"/>
<path d="M0 0 C2.375 1 2.375 1 3.75 2.688 C4.593 5.808 4.233 7.899 3.375 11 C2.188 12.875 2.188 12.875 0.375 14 C-2.812 14.188 -2.812 14.188 -5.625 14 C-7.226 10.799 -7.118 7.474 -6.625 4 C-4.59 0.91 -3.733 0 0 0 Z " fill="#292929" transform="translate(112.625,193)"/>
<path d="M0 0 C2.375 0.938 2.375 0.938 4.375 3.938 C4.192 7.358 4.003 9.964 2.125 12.875 C-0.269 14.329 -1.875 14.29 -4.625 13.938 C-6.625 11.938 -6.625 11.938 -7 8.062 C-6.916 4.984 -6.693 4.041 -4.938 1.375 C-2.625 -0.062 -2.625 -0.062 0 0 Z " fill="#292929" transform="translate(86.625,185.0625)"/>
<path d="M0 0 C3.627 -0.518 4.8 -0.147 7.812 2.062 C10.496 5.666 10.507 7.605 10 12 C9 13 9 13 6.125 13.25 C3 13 3 13 1.125 11.5 C0.754 11.005 0.382 10.51 0 10 C-1.65 10.66 -3.3 11.32 -5 12 C-4.546 11.505 -4.092 11.01 -3.625 10.5 C-1.418 7.105 -0.856 3.951 0 0 Z " fill="#1B1B1B" transform="translate(367,218)"/>
<path d="M0 0 C6.568 1.401 10.063 3.424 13.906 8.965 C16.173 13.183 16.424 17.251 16 22 C13.98 24.219 13.98 24.219 12 26 C11.914 25.143 11.827 24.286 11.738 23.402 C10.772 15.535 9.746 9.73 3.34 4.695 C1.935 3.732 0.472 2.856 -1 2 C-0.67 1.34 -0.34 0.68 0 0 Z " fill="#FFFFFF" transform="translate(200,257)"/>
<path d="M0 0 C0.33 0.66 0.66 1.32 1 2 C-0.075 4.443 -1.198 6.768 -2.438 9.125 C-2.776 9.784 -3.114 10.442 -3.463 11.121 C-4.301 12.751 -5.15 14.376 -6 16 C-5.408 15.832 -4.817 15.665 -4.207 15.492 C-0.508 14.539 2.216 13.837 6 14.625 C8 16 8 16 8.701 17.829 C9.05 20.361 8.67 21.725 7.785 24.109 C7.511 24.863 7.237 25.618 6.955 26.395 C6.661 27.172 6.366 27.949 6.062 28.75 C5.772 29.543 5.481 30.336 5.182 31.152 C4.464 33.105 3.733 35.053 3 37 C2.34 37 1.68 37 1 37 C1.193 36.299 1.387 35.597 1.586 34.875 C3.126 29.265 4.614 23.65 6 18 C0.977 16.273 -2.379 18.047 -7 20 C-7.99 20.33 -8.98 20.66 -10 21 C-9.4 16.161 -7.315 12.452 -5 8.25 C-4.631 7.566 -4.263 6.881 -3.883 6.176 C-1.163 1.163 -1.163 1.163 0 0 Z " fill="#000000" transform="translate(74,194)"/>
<path d="M0 0 C3 -0.312 3 -0.312 6 0 C8 2 8 2 8.266 4.312 C8.26 5.199 8.255 6.086 8.25 7 C8.255 7.887 8.26 8.774 8.266 9.688 C8 12 8 12 6 14 C2.875 14.125 2.875 14.125 0 14 C-0.33 12.68 -0.66 11.36 -1 10 C-0.34 10 0.32 10 1 10 C1 10.66 1 11.32 1 12 C2.32 11.34 3.64 10.68 5 10 C3.02 9.34 1.04 8.68 -1 8 C-1.625 5.688 -1.625 5.688 -2 3 C-1.34 2.01 -0.68 1.02 0 0 Z " fill="#000000" transform="translate(398,357)"/>
<path d="M0 0 C2.938 0.75 2.938 0.75 6 2 C6.875 4.125 6.875 4.125 7 6 C8.32 6.33 9.64 6.66 11 7 C11 6.34 11 5.68 11 5 C10.01 4.67 9.02 4.34 8 4 C12.455 3.505 12.455 3.505 17 3 C16.625 5.938 16.625 5.938 16 9 C12.861 10.569 10.461 10.352 7 10 C3.312 7.132 1.397 4.444 0 0 Z " fill="#FFFFFF" transform="translate(182,280)"/>
<path d="M0 0 C1.165 3.496 0.884 3.868 -0.66 7.027 C-1.229 8.208 -1.229 8.208 -1.809 9.413 C-2.223 10.246 -2.636 11.079 -3.062 11.938 C-3.474 12.785 -3.886 13.633 -4.31 14.507 C-5.529 17.01 -6.762 19.506 -8 22 C-8.336 22.681 -8.673 23.363 -9.02 24.064 C-10.661 27.386 -12.319 30.698 -14 34 C-14.66 34 -15.32 34 -16 34 C-12.564 21.974 -6.233 10.788 0 0 Z " fill="#000000" transform="translate(103,195)"/>
<path d="M0 0 C3.923 2.354 4.839 4.645 6 9 C4.68 9.99 3.36 10.98 2 12 C-1.161 10.63 -1.993 10.011 -4 7 C-3.812 4.438 -3.812 4.438 -3 2 C-2.01 1.34 -1.02 0.68 0 0 Z " fill="#FFFFFF" transform="translate(430,185)"/>
<path d="M0 0 C3.125 -0.188 3.125 -0.188 6 0 C6.144 1.072 6.289 2.145 6.438 3.25 C6.873 6.783 6.873 6.783 7.688 9.25 C8 11 8 11 6 14 C2.875 14.188 2.875 14.188 0 14 C-0.66 12.68 -1.32 11.36 -2 10 C-1.01 10 -0.02 10 1 10 C1 10.66 1 11.32 1 12 C2.32 12 3.64 12 5 12 C5 10.68 5 9.36 5 8 C3.68 8 2.36 8 1 8 C2 5 2 5 4 3 C3.01 2.67 2.02 2.34 1 2 C1 2.66 1 3.32 1 4 C0.01 3.67 -0.98 3.34 -2 3 C-1.34 2.01 -0.68 1.02 0 0 Z " fill="#000000" transform="translate(409,357)"/>
<path d="M0 0 C0.949 1.848 0.949 1.848 1.688 4.062 C2.065 5.163 2.065 5.163 2.449 6.285 C2.631 6.851 2.813 7.417 3 8 C0 10 0 10 -2 9.875 C-4.633 8.723 -5.582 7.481 -7 5 C-7 3.68 -7 2.36 -7 1 C-3.375 -1.125 -3.375 -1.125 0 0 Z " fill="#FFFFFF" transform="translate(91,327)"/>
<path d="M0 0 C3.96 0 7.92 0 12 0 C11.67 0.99 11.34 1.98 11 3 C10.01 3 9.02 3 8 3 C7.67 6.63 7.34 10.26 7 14 C6.01 14 5.02 14 4 14 C4 10.04 4 6.08 4 2 C2.68 2 1.36 2 0 2 C0 1.34 0 0.68 0 0 Z " fill="#000000" transform="translate(379,357)"/>
<path d="M0 0 C0.99 0.33 1.98 0.66 3 1 C1.02 3.31 -0.96 5.62 -3 8 C-0.36 8 2.28 8 5 8 C5 8.66 5 9.32 5 10 C3.35 10.33 1.7 10.66 0 11 C0 11.66 0 12.32 0 13 C-1.65 12.67 -3.3 12.34 -5 12 C-5 10.68 -5 9.36 -5 8 C-6.65 7.67 -8.3 7.34 -10 7 C-10 6.34 -10 5.68 -10 5 C-7.03 5.495 -7.03 5.495 -4 6 C-3.67 5.01 -3.34 4.02 -3 3 C-1.438 1.312 -1.438 1.312 0 0 Z " fill="#000000" transform="translate(193,274)"/>
<path d="M0 0 C2.5 0.125 2.5 0.125 3.5 1.125 C3.541 3.458 3.542 5.792 3.5 8.125 C0.625 8.312 0.625 8.312 -2.5 8.125 C-4.5 5.125 -4.5 5.125 -4.188 3 C-3.169 0.222 -3.054 0.153 0 0 Z " fill="#5D5D5D" transform="translate(35.5,270.875)"/>
<path d="M0 0 C0.33 2.31 0.66 4.62 1 7 C-3.455 7.495 -3.455 7.495 -8 8 C-4 0 -4 0 0 0 Z " fill="#FFFFFF" transform="translate(198,275)"/>
<path d="M0 0 C2.564 0.283 5.126 0.576 7.688 0.875 C8.409 0.954 9.13 1.032 9.873 1.113 C13.885 1.59 17.3 2.263 21 4 C21 4.33 21 4.66 21 5 C13.807 4.538 6.997 3.749 0 2 C0 1.34 0 0.68 0 0 Z " fill="#000000" transform="translate(294,239)"/>
<path d="M0 0 C0.66 0.33 1.32 0.66 2 1 C2.407 3.322 2.744 5.657 3 8 C0.5 9.5 0.5 9.5 -2 11 C-2.846 11.577 -3.691 12.155 -4.562 12.75 C-7 14 -7 14 -11 13 C-7.37 11.02 -3.74 9.04 0 7 C0 4.69 0 2.38 0 0 Z " fill="#000000" transform="translate(141,296)"/>
<path d="M0 0 C0 0.66 0 1.32 0 2 C-2.597 3.533 -5.202 5.052 -7.812 6.562 C-8.55 7 -9.288 7.438 -10.049 7.889 C-10.761 8.298 -11.473 8.707 -12.207 9.129 C-13.189 9.702 -13.189 9.702 -14.191 10.287 C-16 11 -16 11 -19 10 C-17.712 9.161 -16.419 8.329 -15.125 7.5 C-14.406 7.036 -13.686 6.572 -12.945 6.094 C-11 5 -11 5 -9 5 C-9 4.34 -9 3.68 -9 3 C-2.25 0 -2.25 0 0 0 Z " fill="#000000" transform="translate(254,243)"/>
<path d="M0 0 C0 0.99 0 1.98 0 3 C-1.699 4.016 -3.41 5.012 -5.125 6 C-6.076 6.557 -7.028 7.114 -8.008 7.688 C-11.308 9.135 -13.436 9.404 -17 9 C-17.66 8.34 -18.32 7.68 -19 7 C-18.074 6.87 -18.074 6.87 -17.129 6.738 C-10.581 5.652 -5.596 3.541 0 0 Z " fill="#000000" transform="translate(344,238)"/>
<path d="M0 0 C0.33 0.99 0.66 1.98 1 3 C-3.021 9.655 -8.542 14.775 -15 19 C-13.232 15.191 -11.016 12.949 -8 10 C-3.524 5.34 -3.524 5.34 0 0 Z " fill="#FFFFFF" transform="translate(87,224)"/>
<path d="M0 0 C0.99 0 1.98 0 3 0 C3.99 1.98 4.98 3.96 6 6 C5.01 6.99 4.02 7.98 3 9 C2.01 8.67 1.02 8.34 0 8 C-1.224 5.042 -0.965 3.003 0 0 Z " fill="#FFFFFF" transform="translate(213,221)"/>
<path d="M0 0 C3.304 0.141 5.307 0.422 7.875 2.562 C9.528 6.143 9.196 9.076 9 13 C8.34 13 7.68 13 7 13 C6.67 10.03 6.34 7.06 6 4 C3.36 3.34 0.72 2.68 -2 2 C-1.34 1.34 -0.68 0.68 0 0 Z " fill="#FFFFFF" transform="translate(169,172)"/>
<path d="M0 0 C-0.33 0.99 -0.66 1.98 -1 3 C-4.375 3.625 -4.375 3.625 -8 4 C-8.66 3.34 -9.32 2.68 -10 2 C-6.275 -0.661 -4.421 -1.39 0 0 Z " fill="#FFFFFF" transform="translate(428,183)"/>
<path d="M0 0 C0 0.99 0 1.98 0 3 C-3.215 4.607 -6.436 4.057 -10 4 C-10 3.34 -10 2.68 -10 2 C-6.492 0.396 -3.856 -0.22 0 0 Z " fill="#FFFFFF" transform="translate(86,323)"/>
<path d="M0 0 C0.33 1.32 0.66 2.64 1 4 C-3.75 8 -3.75 8 -6 8 C-5.812 5.688 -5.812 5.688 -5 3 C-2.438 1.188 -2.438 1.188 0 0 Z " fill="#FFFFFF" transform="translate(435,196)"/>
<path d="M0 0 C2 1.188 2 1.188 4 3 C4.25 5.688 4.25 5.688 4 8 C2.68 8 1.36 8 0 8 C0.33 6.68 0.66 5.36 1 4 C0.01 4.33 -0.98 4.66 -2 5 C-1.125 1.125 -1.125 1.125 0 0 Z " fill="#FFFFFF" transform="translate(158,182)"/>
<path d="M0 0 C0.33 0.99 0.66 1.98 1 3 C-1.97 5.475 -1.97 5.475 -5 8 C-5.66 7.67 -6.32 7.34 -7 7 C-3.375 1.125 -3.375 1.125 0 0 Z " fill="#FFFFFF" transform="translate(93,337)"/>
<path d="M0 0 C2.896 1.298 4.982 2.533 7 5 C7.512 7.262 7.512 7.262 7.688 9.688 C7.753 10.496 7.819 11.304 7.887 12.137 C7.924 12.752 7.961 13.366 8 14 C5.922 11.922 5.469 10.841 4.562 8.125 C3.441 4.978 2.226 2.544 0 0 Z " fill="#FFFFFF" transform="translate(77,329)"/>
<path d="M0 0 C0.66 0 1.32 0 2 0 C4.296 9.41 4.296 9.41 4 14 C3.34 13.67 2.68 13.34 2 13 C1.367 11.074 1.367 11.074 0.875 8.688 C0.707 7.908 0.54 7.128 0.367 6.324 C0 4 0 4 0 0 Z " fill="#000000" transform="translate(130,241)"/>
<path d="M0 0 C0.33 0 0.66 0 1 0 C1.195 6.055 1.195 6.055 1 8 C0.34 8.66 -0.32 9.32 -1 10 C-3.562 9.75 -3.562 9.75 -6 9 C-6.33 8.34 -6.66 7.68 -7 7 C-5.02 7 -3.04 7 -1 7 C-0.67 4.69 -0.34 2.38 0 0 Z " fill="#FFFFFF" transform="translate(426,196)"/>
<path d="M0 0 C0.784 0.495 1.568 0.99 2.375 1.5 C4.786 3.165 4.786 3.165 7 3 C7 3.99 7 4.98 7 6 C5.02 6 3.04 6 1 6 C0.34 4.35 -0.32 2.7 -1 1 C-0.67 0.67 -0.34 0.34 0 0 Z " fill="#000000" transform="translate(32,273)"/>
<path d="M0 0 C2.64 0 5.28 0 8 0 C8 0.99 8 1.98 8 3 C5.03 3 2.06 3 -1 3 C-0.67 2.01 -0.34 1.02 0 0 Z " fill="#FFFFFF" transform="translate(48,208)"/>
<path d="M0 0 C0.66 0 1.32 0 2 0 C2.103 0.908 2.206 1.815 2.312 2.75 C3.004 6.02 3.821 7.537 6 10 C2.663 8.619 0.777 7.18 -1 4 C-0.688 1.75 -0.688 1.75 0 0 Z " fill="#FFFFFF" transform="translate(26,256)"/>
<path d="M0 0 C3.062 0.25 3.062 0.25 6 1 C6.33 1.66 6.66 2.32 7 3 C5.02 3 3.04 3 1 3 C0.34 4.98 -0.32 6.96 -1 9 C-1.33 9 -1.66 9 -2 9 C-2.125 5.625 -2.125 5.625 -2 2 C-1.34 1.34 -0.68 0.68 0 0 Z " fill="#FFFFFF" transform="translate(416,188)"/>
<path d="M0 0 C1.32 0.66 2.64 1.32 4 2 C3.67 2.99 3.34 3.98 3 5 C1.68 4.67 0.36 4.34 -1 4 C-0.67 2.68 -0.34 1.36 0 0 Z " fill="#FFFFFF" transform="translate(400,359)"/>
<path d="M0 0 C0.66 0.66 1.32 1.32 2 2 C0.35 4.31 -1.3 6.62 -3 9 C-3.33 7.68 -3.66 6.36 -4 5 C-2.062 2.25 -2.062 2.25 0 0 Z " fill="#000000" transform="translate(189,270)"/>
<path d="M0 0 C0.66 0.99 1.32 1.98 2 3 C1.01 4.32 0.02 5.64 -1 7 C-1.66 6.67 -2.32 6.34 -3 6 C-1.125 1.125 -1.125 1.125 0 0 Z " fill="#383838" transform="translate(79,238)"/>
<path d="M0 0 C0.33 0.99 0.66 1.98 1 3 C-1.31 3.66 -3.62 4.32 -6 5 C-6 4.34 -6 3.68 -6 3 C-4.02 2.01 -2.04 1.02 0 0 Z " fill="#000000" transform="translate(88,204)"/>
</svg>
