<?xml version="1.0" encoding="UTF-8"?>
<!-- Generator: visioncortex VTracer 0.6.4 -->
<svg version="1.1" xmlns="http://www.w3.org/2000/svg" width="409" height="341">
<path d="M0 0 C134.97 0 269.94 0 409 0 C409 112.53 409 225.06 409 341 C274.03 341 139.06 341 0 341 C0 228.47 0 115.94 0 0 Z " fill="#FEFEFE" transform="translate(0,0)"/>
<path d="M0 0 C134.97 0 269.94 0 409 0 C409 112.53 409 225.06 409 341 C274.03 341 139.06 341 0 341 C0 228.47 0 115.94 0 0 Z M284.52 8.402 C282.987 8.418 282.987 8.418 281.424 8.433 C268.554 8.563 255.683 8.697 242.812 8.832 C223.691 9.034 204.569 9.229 185.448 9.424 C180.984 9.469 176.52 9.515 172.057 9.561 C145.1 9.837 118.144 10.095 91.187 10.303 C89.032 10.32 86.877 10.337 84.722 10.354 C71.998 10.454 59.273 10.551 46.549 10.635 C42.161 10.664 37.773 10.697 33.385 10.732 C31.403 10.746 29.422 10.759 27.441 10.77 C24.813 10.784 22.185 10.805 19.556 10.826 C18.792 10.829 18.028 10.832 17.241 10.834 C13.832 10.567 13.832 10.567 11 12 C10.902 14.435 10.87 16.841 10.88 19.276 C10.879 20.049 10.878 20.822 10.877 21.618 C10.875 24.236 10.881 26.854 10.887 29.472 C10.888 31.349 10.888 33.225 10.888 35.101 C10.888 40.259 10.896 45.416 10.905 50.574 C10.912 54.96 10.915 59.347 10.919 63.733 C10.961 114.003 11.16 164.272 11.389 214.541 C11.434 224.542 11.473 234.543 11.512 244.543 C11.55 254.353 11.592 264.163 11.637 273.973 C11.663 279.76 11.688 285.546 11.709 291.332 C11.729 296.68 11.753 302.029 11.78 307.378 C11.79 309.337 11.798 311.296 11.803 313.254 C11.812 315.911 11.826 318.568 11.842 321.225 C11.843 322.007 11.844 322.79 11.845 323.596 C11.554 327.09 11.554 327.09 13 330 C14.73 330.098 16.464 330.122 18.196 330.119 C19.972 330.12 19.972 330.12 21.784 330.12 C23.158 330.114 24.531 330.108 25.905 330.101 C27.399 330.098 28.894 330.094 30.388 330.091 C55.73 330.013 81.071 329.709 106.412 329.451 C111.994 329.394 117.576 329.338 123.158 329.282 C124.787 329.266 126.415 329.25 128.043 329.234 C128.855 329.225 129.666 329.217 130.502 329.209 C145.735 329.057 160.969 328.902 176.202 328.747 C190.021 328.606 203.841 328.468 217.66 328.332 C231.977 328.19 246.293 328.047 260.609 327.901 C268.596 327.82 276.582 327.74 284.569 327.661 C318.718 327.326 352.86 326.92 387 326 C387.024 299.33 387.041 272.66 387.052 245.99 C387.057 233.595 387.064 221.199 387.075 208.804 C387.122 158.665 387.106 108.529 386.59 58.392 C386.559 55.312 386.529 52.232 386.499 49.153 C386.453 44.388 386.401 39.623 386.345 34.858 C386.325 33.128 386.306 31.398 386.289 29.668 C386.265 27.315 386.236 24.962 386.204 22.609 C386.181 20.644 386.181 20.644 386.158 18.641 C386 15.009 385.577 11.584 385 8 C351.503 7.858 318.014 8.066 284.52 8.402 Z " fill="#FFFFFF" transform="translate(0,0)"/>
<path d="M0 0 C0.99 0.495 0.99 0.495 2 1 C2 1.66 2 2.32 2 3 C0.155 4.309 0.155 4.309 -2.426 5.793 C-3.363 6.338 -4.3 6.882 -5.265 7.443 C-6.271 8.019 -7.276 8.594 -8.312 9.188 C-10.345 10.367 -12.376 11.548 -14.406 12.73 C-15.381 13.297 -16.355 13.863 -17.359 14.447 C-21.231 16.724 -24.994 19.144 -28.762 21.59 C-31.008 23.005 -33.292 24.295 -35.625 25.562 C-40.234 28.08 -44.904 30.698 -49 34 C-49 34.66 -49 35.32 -49 36 C-45.497 33.995 -41.995 31.987 -38.496 29.976 C-37.311 29.295 -36.125 28.616 -34.938 27.937 C-27.986 23.958 -21.125 19.888 -14.401 15.533 C-4.19 9.014 -4.19 9.014 2 8 C0.631 12.107 -1.23 12.511 -5 14.562 C-6.281 15.271 -7.561 15.981 -8.84 16.691 C-9.518 17.065 -10.196 17.439 -10.894 17.825 C-14.483 19.828 -18.022 21.913 -21.562 24 C-22.274 24.418 -22.986 24.837 -23.719 25.268 C-29.356 28.592 -34.922 32.019 -40.461 35.504 C-43 37 -43 37 -46 38 C-45.897 39.237 -45.794 40.475 -45.688 41.75 C-45.699 45.09 -45.739 45.708 -48.062 48.312 C-51.301 50.173 -54.527 51.623 -58 53 C-59.702 53.866 -59.702 53.866 -61.438 54.75 C-65 56 -65 56 -68.598 55.25 C-74.32 54.413 -78.282 57.329 -83 60.25 C-83.87 60.754 -84.74 61.258 -85.637 61.777 C-88.941 63.717 -88.941 63.717 -92 66 C-92 69.005 -91.482 70.7 -90.5 73.5 C-88.64 79.596 -87.552 86.04 -89.797 92.18 C-91.488 95.314 -93.024 97.016 -96 99 C-93.733 106.324 -90.812 113.292 -87.73 120.303 C-86.861 122.282 -85.999 124.262 -85.138 126.244 C-82.493 132.329 -79.826 138.403 -77.109 144.457 C-76.685 145.414 -76.261 146.371 -75.825 147.356 C-75.045 149.115 -74.255 150.868 -73.453 152.616 C-72.079 155.733 -71.012 158.195 -70.961 161.621 C-73.338 167.064 -75.762 170.766 -81.336 173.223 C-83.007 173.858 -84.688 174.471 -86.375 175.062 C-88.166 175.73 -89.956 176.398 -91.746 177.066 C-92.632 177.389 -93.517 177.711 -94.429 178.043 C-96.801 178.926 -99.138 179.862 -101.473 180.84 C-102.484 181.262 -102.484 181.262 -103.516 181.693 C-105.322 182.451 -107.128 183.21 -108.934 183.969 C-111.861 184.953 -113.945 185.228 -117 185 C-120.802 176.73 -124.466 168.403 -128.102 160.059 C-128.961 158.09 -129.823 156.123 -130.688 154.156 C-134.091 146.408 -137.463 138.646 -140.812 130.875 C-141.198 129.986 -141.583 129.097 -141.98 128.181 C-143.848 123.835 -145.598 119.525 -147 115 C-145.68 115 -144.36 115 -143 115 C-142.599 115.984 -142.198 116.967 -141.785 117.98 C-135.985 132.167 -130.018 146.28 -123.758 160.27 C-123.482 160.886 -123.207 161.502 -122.923 162.137 C-121.558 165.191 -120.187 168.242 -118.81 171.291 C-118.314 172.395 -117.819 173.499 -117.309 174.637 C-116.863 175.624 -116.418 176.611 -115.959 177.628 C-115 180 -115 180 -115 182 C-114.096 181.639 -113.193 181.278 -112.262 180.906 C-111.082 180.442 -109.903 179.978 -108.688 179.5 C-107.516 179.036 -106.344 178.572 -105.137 178.094 C-102 177 -102 177 -99 177 C-99.33 175.68 -99.66 174.36 -100 173 C-99.139 173.215 -98.278 173.431 -97.391 173.652 C-93.367 174.065 -91.39 173.25 -87.75 171.562 C-82.136 169 -82.136 169 -80 169 C-80.338 168.228 -80.677 167.456 -81.026 166.661 C-82.276 163.796 -83.518 160.928 -84.755 158.056 C-85.292 156.814 -85.832 155.574 -86.376 154.335 C-87.157 152.554 -87.924 150.767 -88.691 148.98 C-89.157 147.907 -89.624 146.833 -90.104 145.727 C-91 143 -91 143 -90 140 C-85.621 148.531 -81.546 157.079 -78 166 C-78.661 159.812 -81.357 155.578 -84.504 150.316 C-86.179 146.604 -86.28 144.027 -86 140 C-85.01 140.99 -84.02 141.98 -83 143 C-83.66 138.725 -85.119 135.141 -86.871 131.195 C-87.153 130.553 -87.436 129.911 -87.727 129.249 C-88.626 127.206 -89.531 125.165 -90.438 123.125 C-91.629 120.442 -92.814 117.757 -93.996 115.07 C-94.524 113.882 -95.052 112.694 -95.595 111.469 C-97.003 107.993 -98.039 104.618 -99 101 C-101.31 101 -103.62 101 -106 101 C-105.708 101.65 -105.415 102.299 -105.114 102.969 C-103.775 105.954 -102.45 108.946 -101.125 111.938 C-100.665 112.959 -100.205 113.981 -99.73 115.033 C-97.1 121 -95.165 126.58 -94 133 C-97.351 131.324 -97.997 127.528 -99.312 124.188 C-99.934 122.637 -100.557 121.086 -101.18 119.535 C-101.486 118.767 -101.793 117.999 -102.108 117.208 C-102.907 115.231 -103.729 113.267 -104.57 111.309 C-105.247 109.733 -105.247 109.733 -105.938 108.125 C-106.338 107.199 -106.739 106.274 -107.152 105.32 C-108 103 -108 103 -108 100 C-114.876 100.475 -120.309 101.995 -126.625 104.688 C-127.489 105.043 -128.354 105.398 -129.245 105.763 C-133.319 107.439 -137.374 109.159 -141.422 110.898 C-142.094 111.181 -142.766 111.464 -143.458 111.755 C-145.256 112.513 -147.047 113.289 -148.836 114.066 C-152.38 115.112 -154.466 114.993 -158 114 C-158.516 113.464 -159.031 112.928 -159.562 112.375 C-160.037 111.921 -160.511 111.468 -161 111 C-163.409 111.113 -163.409 111.113 -166 112 C-167.072 112.289 -168.145 112.577 -169.25 112.875 C-170.157 113.246 -171.065 113.618 -172 114 C-172.495 115.485 -172.495 115.485 -173 117 C-175.404 118.321 -177.747 119.46 -180.25 120.562 C-181.787 121.262 -183.323 121.963 -184.859 122.664 C-186.096 123.223 -186.096 123.223 -187.357 123.794 C-192.096 125.957 -196.797 128.199 -201.5 130.438 C-202.426 130.875 -203.352 131.312 -204.306 131.762 C-205.164 132.169 -206.022 132.576 -206.906 132.996 C-208.056 133.54 -208.056 133.54 -209.229 134.095 C-210.976 134.873 -210.976 134.873 -212 136 C-219.742 137.29 -229.259 138.836 -236.438 135.312 C-241.931 130.355 -244.629 126.114 -245.176 118.574 C-245.102 114.828 -244.796 112.075 -242.531 109.016 C-233.896 101.018 -221.907 96.374 -211.438 91.312 C-210.283 90.745 -209.129 90.177 -207.939 89.592 C-191.097 81.443 -191.097 81.443 -184.875 82.562 C-181.116 83.135 -179.024 82.336 -175.711 80.562 C-173.488 78.532 -173.412 77.126 -172.938 74.188 C-172.046 70.365 -171.404 69.272 -168.09 67.039 C-164.878 65.453 -161.565 64.133 -158.22 62.857 C-155.891 61.958 -153.597 60.996 -151.301 60.016 C-139.483 55 -139.483 55 -137 55 C-136.505 54.01 -136.505 54.01 -136 53 C-118.03 44.657 -118.03 44.657 -111 47 C-111 46.34 -111 45.68 -111 45 C-103.501 44.631 -103.501 44.631 -101.344 46.219 C-99.765 48.311 -99.074 50.184 -98.312 52.688 C-97.935 53.9 -97.935 53.9 -97.551 55.137 C-97.278 56.059 -97.278 56.059 -97 57 C-97.99 57 -98.98 57 -100 57 C-100.66 56.01 -101.32 55.02 -102 54 C-102 54.99 -102 55.98 -102 57 C-102.66 57 -103.32 57 -104 57 C-105.257 54.094 -106 52.204 -106 49 C-106.99 49 -107.98 49 -109 49 C-107.02 52.96 -105.04 56.92 -103 61 C-102.129 60.504 -101.257 60.007 -100.359 59.496 C-99.789 59.171 -99.218 58.846 -98.63 58.511 C-97.368 57.79 -96.108 57.067 -94.849 56.34 C-91.736 54.546 -88.618 52.784 -85.434 51.121 C-84.362 50.545 -83.291 49.969 -82.188 49.375 C-81.212 48.867 -80.236 48.359 -79.23 47.836 C-76.288 45.414 -76.45 43.688 -76 40 C-73.513 36.664 -69.777 35.164 -66.156 33.281 C-63.97 32.103 -63.97 32.103 -62.402 30.395 C-60.185 28.189 -58.041 28.186 -55 28 C-54.407 28.394 -53.814 28.789 -53.203 29.195 C-50.863 30.334 -50.863 30.334 -48.074 28.762 C-46.957 28.077 -45.839 27.393 -44.688 26.688 C-44.074 26.319 -43.461 25.95 -42.829 25.57 C-41.531 24.787 -40.236 23.996 -38.945 23.2 C-37.087 22.054 -35.219 20.927 -33.344 19.809 C-30.878 18.337 -28.416 16.859 -25.957 15.375 C-20.901 12.332 -15.811 9.347 -10.721 6.362 C-10.048 5.967 -9.374 5.571 -8.68 5.164 C-8.045 4.794 -7.411 4.425 -6.757 4.044 C-5.193 3.115 -3.661 2.135 -2.133 1.148 C-1.077 0.58 -1.077 0.58 0 0 Z " fill="#FBFBFB" transform="translate(379,75)"/>
<path d="M0 0 C3.628 0.036 5.041 0.19 8.25 2.062 C11.435 5.646 11.435 5.646 12.25 8.312 C12.126 9.488 12.002 10.664 11.875 11.875 C11.698 18.233 16.451 22.638 20.25 27.312 C21.356 28.748 22.46 30.186 23.562 31.625 C24.79 33.189 26.02 34.751 27.25 36.312 C28.106 37.407 28.961 38.502 29.816 39.598 C34.213 45.221 38.638 50.811 43.188 56.312 C46.115 59.864 48.821 63.405 51.25 67.312 C52.24 67.003 52.24 67.003 53.25 66.688 C56.25 66.312 56.25 66.312 59.668 67.273 C65.262 68.746 70.812 68.604 76.562 68.562 C77.627 68.57 78.691 68.578 79.787 68.586 C85.997 68.571 91.806 68.045 97.887 66.772 C104.714 65.445 110.994 66.263 117.25 69.312 C119.774 71.136 122.042 73.119 124.25 75.312 C123.92 75.972 123.59 76.632 123.25 77.312 C120.423 76.894 119.207 76.275 117 74.375 C111.667 70.375 106.18 70.002 99.804 70.848 C98.663 71.016 98.663 71.016 97.5 71.188 C87.39 72.481 77.427 72.506 67.25 72.312 C67.25 72.972 67.25 73.632 67.25 74.312 C59.625 73.438 59.625 73.438 56.25 72.312 C59.114 76.19 61.972 80.038 65.125 83.688 C67.25 86.312 67.25 86.312 67.25 88.312 C68.199 88.395 69.147 88.478 70.125 88.562 C77.149 89.576 84.122 92.344 89.25 97.312 C91.799 101.137 91.846 102.767 91.25 107.312 C89.208 110.839 86.959 114.458 83.25 116.312 C87.54 116.642 91.83 116.972 96.25 117.312 C96.25 118.303 96.25 119.293 96.25 120.312 C89.98 120.312 83.71 120.312 77.25 120.312 C77.25 119.653 77.25 118.993 77.25 118.312 C76.716 118.517 76.183 118.722 75.633 118.934 C63.848 123.195 52.536 122.182 40.25 121.312 C35.18 129.187 35.18 129.187 34.75 138.125 C35.211 139.534 35.708 140.932 36.25 142.312 C37.688 146.796 38.331 150.634 38.5 155.312 C38.844 160.688 40.084 163.33 43.973 167.008 C45.25 168.312 45.25 168.312 45.25 170.312 C45.882 170.546 46.513 170.779 47.164 171.02 C49.909 172.721 49.897 173.912 50.625 177 C52.456 182.061 55.29 184.059 60 186.312 C64.992 188.572 69.821 190.511 75.25 191.312 C75.995 191.44 76.74 191.568 77.508 191.699 C87.98 192.676 99.876 187.345 108.145 181.141 C110.034 179.276 111.674 177.444 113.25 175.312 C114.064 174.338 114.064 174.338 114.895 173.344 C116.385 171.111 116.717 169.712 116.938 167.062 C117.092 165.206 117.092 165.206 117.25 163.312 C116.621 163.711 115.992 164.109 115.344 164.52 C99.238 174.488 83.778 176.051 65.25 172.312 C64.59 171.982 63.93 171.653 63.25 171.312 C59.88 170.791 56.503 170.351 53.121 169.91 C52.174 169.713 51.226 169.516 50.25 169.312 C49.92 168.653 49.59 167.993 49.25 167.312 C52.938 167.622 56.625 167.935 60.312 168.25 C61.351 168.337 62.389 168.424 63.459 168.514 C68.755 168.968 73.989 169.545 79.25 170.312 C91.659 171.151 100.835 168.518 111.281 162.09 C114.25 160.312 114.25 160.312 117.25 159.312 C117.25 158.653 117.25 157.993 117.25 157.312 C117.91 157.312 118.57 157.312 119.25 157.312 C120.345 154.027 120.35 151.576 120.312 148.125 C120.303 147.038 120.294 145.952 120.285 144.832 C120.274 144.001 120.262 143.169 120.25 142.312 C118.574 143.206 118.574 143.206 116.863 144.117 C112.197 146.447 107.438 147.99 102.438 149.438 C101.552 149.695 100.667 149.953 99.755 150.219 C83.952 154.747 69.882 155.77 54.25 149.312 C51.883 147.68 51.883 147.68 50.25 146.312 C50.58 145.322 50.91 144.333 51.25 143.312 C51.954 143.774 52.658 144.235 53.383 144.711 C65.488 151.473 80.437 151.352 93.5 148.125 C94.422 147.9 95.344 147.675 96.295 147.444 C109.601 144.308 109.601 144.308 120.25 136.312 C121.484 133.38 122.093 130.491 122.25 127.312 C121.067 124.753 121.067 124.753 119.25 123.312 C121.625 123.125 121.625 123.125 124.25 123.312 C126.769 127.091 126.321 128.756 125.742 133.082 C125.119 135.907 123.967 137.999 122.25 140.312 C122.91 140.972 123.57 141.632 124.25 142.312 C124.551 145.211 124.551 145.211 124.562 148.688 C124.579 149.83 124.596 150.972 124.613 152.148 C124.214 155.629 123.378 156.655 121.25 159.312 C120.824 161.626 120.824 161.626 120.812 164.062 C120.405 169.302 119.093 172.919 116.25 177.312 C115.87 177.958 115.489 178.604 115.098 179.27 C109.205 187.545 96.099 193.329 86.25 195.312 C73.444 195.516 61.069 193.363 50.824 185.051 C48.485 182.467 47.345 179.651 46.109 176.422 C44.573 172.65 41.965 170.028 39.125 167.188 C35.492 163.555 35.007 161.178 34.812 156.188 C34.563 152.019 34.165 148.47 32.688 144.562 C30.164 137.764 30.654 131.817 33.301 125.137 C34.409 123.007 35.766 121.195 37.25 119.312 C36.297 119.131 35.345 118.949 34.363 118.762 C33.109 118.51 31.855 118.259 30.562 118 C29.321 117.756 28.08 117.513 26.801 117.262 C22.435 116.095 19.427 114.652 16.438 111.25 C14.276 105.904 14.538 100.582 16.25 95.125 C21 88.445 26.464 84.676 34.25 82.312 C34.287 81.698 34.325 81.083 34.363 80.449 C34.429 79.641 34.495 78.833 34.562 78 C34.65 76.799 34.65 76.799 34.738 75.574 C35.332 72.95 36.208 72.004 38.25 70.312 C30.662 60.627 30.662 60.627 23 51 C19.369 46.474 15.786 41.913 12.25 37.312 C11.689 36.609 11.129 35.905 10.551 35.18 C9.25 33.312 9.25 33.312 9.25 31.312 C8.59 31.312 7.93 31.312 7.25 31.312 C6.207 29.816 6.207 29.816 5.062 27.875 C3.802 25.905 3.802 25.905 2.25 24.312 C-0.07 23.898 -2.406 23.564 -4.75 23.312 C-7.843 20.77 -10.633 18.22 -11.75 14.312 C-11.669 9.232 -11.574 7.281 -8.25 3.375 C-7.425 2.694 -6.6 2.014 -5.75 1.312 C-4.11 -0.328 -2.255 0.063 0 0 Z " fill="#000000" transform="translate(40.75,89.6875)"/>
<path d="M0 0 C0.99 0.495 0.99 0.495 2 1 C2 1.66 2 2.32 2 3 C0.155 4.309 0.155 4.309 -2.426 5.793 C-3.363 6.338 -4.3 6.882 -5.265 7.443 C-6.271 8.019 -7.276 8.594 -8.312 9.188 C-10.345 10.367 -12.376 11.548 -14.406 12.73 C-15.381 13.297 -16.355 13.863 -17.359 14.447 C-21.231 16.724 -24.994 19.144 -28.762 21.59 C-31.008 23.005 -33.292 24.295 -35.625 25.562 C-40.234 28.08 -44.904 30.698 -49 34 C-49 34.66 -49 35.32 -49 36 C-45.497 33.995 -41.995 31.987 -38.496 29.976 C-37.311 29.295 -36.125 28.616 -34.938 27.937 C-27.986 23.958 -21.125 19.888 -14.401 15.533 C-4.19 9.014 -4.19 9.014 2 8 C0.631 12.107 -1.23 12.511 -5 14.562 C-6.281 15.271 -7.561 15.981 -8.84 16.691 C-9.518 17.065 -10.196 17.439 -10.894 17.825 C-14.483 19.828 -18.022 21.913 -21.562 24 C-22.274 24.418 -22.986 24.837 -23.719 25.268 C-29.356 28.592 -34.922 32.019 -40.461 35.504 C-43 37 -43 37 -46 38 C-45.897 39.237 -45.794 40.475 -45.688 41.75 C-45.699 45.09 -45.739 45.708 -48.062 48.312 C-51.301 50.173 -54.527 51.623 -58 53 C-59.702 53.866 -59.702 53.866 -61.438 54.75 C-65 56 -65 56 -68.598 55.25 C-74.32 54.413 -78.282 57.329 -83 60.25 C-83.87 60.754 -84.74 61.258 -85.637 61.777 C-88.941 63.717 -88.941 63.717 -92 66 C-92 69.005 -91.482 70.7 -90.5 73.5 C-88.64 79.596 -87.552 86.04 -89.797 92.18 C-91.488 95.314 -93.024 97.016 -96 99 C-93.733 106.324 -90.812 113.292 -87.73 120.303 C-86.861 122.282 -85.999 124.262 -85.138 126.244 C-82.493 132.329 -79.826 138.403 -77.109 144.457 C-76.685 145.414 -76.261 146.371 -75.825 147.356 C-75.045 149.115 -74.255 150.868 -73.453 152.616 C-72.079 155.733 -71.012 158.195 -70.961 161.621 C-73.338 167.064 -75.762 170.766 -81.336 173.223 C-83.007 173.858 -84.688 174.471 -86.375 175.062 C-88.166 175.73 -89.956 176.398 -91.746 177.066 C-92.632 177.389 -93.517 177.711 -94.429 178.043 C-96.801 178.926 -99.138 179.862 -101.473 180.84 C-102.484 181.262 -102.484 181.262 -103.516 181.693 C-105.322 182.451 -107.128 183.21 -108.934 183.969 C-111.861 184.953 -113.945 185.228 -117 185 C-120.802 176.73 -124.466 168.403 -128.102 160.059 C-128.961 158.09 -129.823 156.123 -130.688 154.156 C-134.091 146.408 -137.463 138.646 -140.812 130.875 C-141.198 129.986 -141.583 129.097 -141.98 128.181 C-143.848 123.835 -145.598 119.525 -147 115 C-145.68 115 -144.36 115 -143 115 C-142.599 115.984 -142.198 116.967 -141.785 117.98 C-135.985 132.167 -130.018 146.28 -123.758 160.27 C-123.482 160.886 -123.207 161.502 -122.923 162.137 C-121.558 165.191 -120.187 168.242 -118.81 171.291 C-118.314 172.395 -117.819 173.499 -117.309 174.637 C-116.863 175.624 -116.418 176.611 -115.959 177.628 C-115 180 -115 180 -115 182 C-114.096 181.639 -113.193 181.278 -112.262 180.906 C-111.082 180.442 -109.903 179.978 -108.688 179.5 C-107.516 179.036 -106.344 178.572 -105.137 178.094 C-102 177 -102 177 -99 177 C-99.33 175.68 -99.66 174.36 -100 173 C-99.139 173.215 -98.278 173.431 -97.391 173.652 C-93.367 174.065 -91.39 173.25 -87.75 171.562 C-82.136 169 -82.136 169 -80 169 C-80.338 168.228 -80.677 167.456 -81.026 166.661 C-82.276 163.796 -83.518 160.928 -84.755 158.056 C-85.292 156.814 -85.832 155.574 -86.376 154.335 C-87.157 152.554 -87.924 150.767 -88.691 148.98 C-89.157 147.907 -89.624 146.833 -90.104 145.727 C-91 143 -91 143 -90 140 C-85.621 148.531 -81.546 157.079 -78 166 C-78.661 159.812 -81.357 155.578 -84.504 150.316 C-86.179 146.604 -86.28 144.027 -86 140 C-85.01 140.99 -84.02 141.98 -83 143 C-83.66 138.725 -85.119 135.141 -86.871 131.195 C-87.153 130.553 -87.436 129.911 -87.727 129.249 C-88.626 127.206 -89.531 125.165 -90.438 123.125 C-91.629 120.442 -92.814 117.757 -93.996 115.07 C-94.524 113.882 -95.052 112.694 -95.595 111.469 C-97.003 107.993 -98.039 104.618 -99 101 C-101.31 101 -103.62 101 -106 101 C-105.708 101.65 -105.415 102.299 -105.114 102.969 C-103.775 105.954 -102.45 108.946 -101.125 111.938 C-100.665 112.959 -100.205 113.981 -99.73 115.033 C-97.1 121 -95.165 126.58 -94 133 C-97.351 131.324 -97.997 127.528 -99.312 124.188 C-99.934 122.637 -100.557 121.086 -101.18 119.535 C-101.486 118.767 -101.793 117.999 -102.108 117.208 C-102.907 115.231 -103.729 113.267 -104.57 111.309 C-105.247 109.733 -105.247 109.733 -105.938 108.125 C-106.338 107.199 -106.739 106.274 -107.152 105.32 C-108 103 -108 103 -108 100 C-114.876 100.475 -120.309 101.995 -126.625 104.688 C-127.489 105.043 -128.354 105.398 -129.245 105.763 C-133.319 107.439 -137.374 109.159 -141.422 110.898 C-142.094 111.181 -142.766 111.464 -143.458 111.755 C-145.256 112.513 -147.047 113.289 -148.836 114.066 C-152.38 115.112 -154.466 114.993 -158 114 C-158.516 113.464 -159.031 112.928 -159.562 112.375 C-160.037 111.921 -160.511 111.468 -161 111 C-163.409 111.113 -163.409 111.113 -166 112 C-167.072 112.289 -168.145 112.577 -169.25 112.875 C-170.157 113.246 -171.065 113.618 -172 114 C-172.495 115.485 -172.495 115.485 -173 117 C-175.404 118.321 -177.747 119.46 -180.25 120.562 C-181.787 121.262 -183.323 121.963 -184.859 122.664 C-186.096 123.223 -186.096 123.223 -187.357 123.794 C-192.096 125.957 -196.797 128.199 -201.5 130.438 C-202.426 130.875 -203.352 131.312 -204.306 131.762 C-205.164 132.169 -206.022 132.576 -206.906 132.996 C-208.056 133.54 -208.056 133.54 -209.229 134.095 C-210.976 134.873 -210.976 134.873 -212 136 C-219.742 137.29 -229.259 138.836 -236.438 135.312 C-241.931 130.355 -244.629 126.114 -245.176 118.574 C-245.102 114.828 -244.796 112.075 -242.531 109.016 C-233.896 101.018 -221.907 96.374 -211.438 91.312 C-210.283 90.745 -209.129 90.177 -207.939 89.592 C-191.097 81.443 -191.097 81.443 -184.875 82.562 C-181.116 83.135 -179.024 82.336 -175.711 80.562 C-173.488 78.532 -173.412 77.126 -172.938 74.188 C-172.046 70.365 -171.404 69.272 -168.09 67.039 C-164.878 65.453 -161.565 64.133 -158.22 62.857 C-155.891 61.958 -153.597 60.996 -151.301 60.016 C-139.483 55 -139.483 55 -137 55 C-136.505 54.01 -136.505 54.01 -136 53 C-118.03 44.657 -118.03 44.657 -111 47 C-111 46.34 -111 45.68 -111 45 C-103.501 44.631 -103.501 44.631 -101.344 46.219 C-99.765 48.311 -99.074 50.184 -98.312 52.688 C-97.935 53.9 -97.935 53.9 -97.551 55.137 C-97.278 56.059 -97.278 56.059 -97 57 C-97.99 57 -98.98 57 -100 57 C-100.66 56.01 -101.32 55.02 -102 54 C-102 54.99 -102 55.98 -102 57 C-102.66 57 -103.32 57 -104 57 C-105.257 54.094 -106 52.204 -106 49 C-106.99 49 -107.98 49 -109 49 C-107.02 52.96 -105.04 56.92 -103 61 C-102.129 60.504 -101.257 60.007 -100.359 59.496 C-99.789 59.171 -99.218 58.846 -98.63 58.511 C-97.368 57.79 -96.108 57.067 -94.849 56.34 C-91.736 54.546 -88.618 52.784 -85.434 51.121 C-84.362 50.545 -83.291 49.969 -82.188 49.375 C-81.212 48.867 -80.236 48.359 -79.23 47.836 C-76.288 45.414 -76.45 43.688 -76 40 C-73.513 36.664 -69.777 35.164 -66.156 33.281 C-63.97 32.103 -63.97 32.103 -62.402 30.395 C-60.185 28.189 -58.041 28.186 -55 28 C-54.407 28.394 -53.814 28.789 -53.203 29.195 C-50.863 30.334 -50.863 30.334 -48.074 28.762 C-46.957 28.077 -45.839 27.393 -44.688 26.688 C-44.074 26.319 -43.461 25.95 -42.829 25.57 C-41.531 24.787 -40.236 23.996 -38.945 23.2 C-37.087 22.054 -35.219 20.927 -33.344 19.809 C-30.878 18.337 -28.416 16.859 -25.957 15.375 C-20.901 12.332 -15.811 9.347 -10.721 6.362 C-10.048 5.967 -9.374 5.571 -8.68 5.164 C-8.045 4.794 -7.411 4.425 -6.757 4.044 C-5.193 3.115 -3.661 2.135 -2.133 1.148 C-1.077 0.58 -1.077 0.58 0 0 Z M-124.141 51.617 C-124.953 51.972 -125.765 52.327 -126.602 52.693 C-127.913 53.278 -127.913 53.278 -129.25 53.875 C-131.128 54.701 -133.007 55.525 -134.887 56.348 C-135.876 56.781 -136.865 57.214 -137.884 57.661 C-141.101 59.043 -144.336 60.371 -147.582 61.684 C-148.663 62.123 -149.743 62.562 -150.856 63.014 C-152.961 63.866 -155.068 64.711 -157.179 65.548 C-158.142 65.941 -159.105 66.334 -160.098 66.738 C-160.949 67.079 -161.799 67.42 -162.676 67.771 C-165.33 69.175 -167.043 70.733 -169 73 C-169.685 75.34 -169.685 75.34 -169.75 77.75 C-169.835 78.949 -169.835 78.949 -169.922 80.172 C-169.948 80.775 -169.973 81.378 -170 82 C-170.629 82.17 -171.258 82.34 -171.906 82.516 C-176.294 83.758 -180.388 85.069 -184.438 87.188 C-188 89 -188 89 -191 89 C-191.33 88.34 -191.66 87.68 -192 87 C-196.324 87.647 -200.02 89.211 -203.945 91.055 C-204.597 91.357 -205.249 91.659 -205.92 91.97 C-207.291 92.608 -208.661 93.249 -210.03 93.892 C-212.121 94.873 -214.218 95.841 -216.316 96.809 C-217.651 97.432 -218.986 98.055 -220.32 98.68 C-221.258 99.111 -221.258 99.111 -222.214 99.551 C-226.624 101.615 -226.624 101.615 -230 105 C-230.964 114.314 -227.976 121.365 -222.207 128.566 C-221.61 129.276 -221.61 129.276 -221 130 C-228.22 123.582 -230.536 116.399 -232 107 C-235.944 108.315 -238.549 109.586 -241 113 C-242.457 117.736 -242.468 121.768 -240.438 126.312 C-238.201 130.098 -236.11 132.207 -232 134 C-221.493 135.273 -212.296 132.513 -203 127.875 C-201.347 127.068 -199.693 126.262 -198.039 125.457 C-197.208 125.049 -196.377 124.641 -195.521 124.221 C-193.035 123.017 -190.534 121.851 -188.023 120.699 C-187.241 120.339 -186.459 119.979 -185.652 119.608 C-184.159 118.923 -182.665 118.241 -181.168 117.564 C-177.418 116.038 -177.418 116.038 -175 113 C-181.605 115.005 -187.806 117.596 -194.062 120.487 C-200.66 123.471 -206.677 125.13 -214 125 C-213.28 124.919 -212.56 124.837 -211.819 124.754 C-203.605 123.632 -196.839 121.088 -189.375 117.562 C-182.7 114.458 -176.216 111.593 -169.117 109.611 C-166.595 108.883 -164.251 107.924 -161.875 106.812 C-160.757 106.296 -160.757 106.296 -159.617 105.77 C-159.084 105.516 -158.55 105.262 -158 105 C-158 106.65 -158 108.3 -158 110 C-154.55 111.497 -152.621 112.144 -148.907 111.281 C-147.829 110.835 -146.751 110.389 -145.641 109.93 C-144.442 109.445 -143.243 108.96 -142.008 108.461 C-140.755 107.933 -139.502 107.404 -138.25 106.875 C-137.014 106.368 -135.777 105.863 -134.539 105.359 C-127.802 102.606 -127.802 102.606 -121.12 99.724 C-116.123 97.562 -112.713 96.559 -107.188 97.438 C-102.578 98.163 -102.578 98.163 -98.258 96.695 C-95.177 94.382 -93.708 92.48 -92 89 C-91.369 83.999 -91.16 80.26 -94 76 C-94.33 76.99 -94.66 77.98 -95 79 C-95.99 79.33 -96.98 79.66 -98 80 C-98.289 79.272 -98.578 78.543 -98.876 77.793 C-100.607 73.492 -102.451 69.246 -104.312 65 C-104.691 64.111 -105.069 63.221 -105.459 62.305 C-107.696 57.233 -109.759 53.603 -114 50 C-113.67 52.97 -113.34 55.94 -113 59 C-113.99 56.03 -114.98 53.06 -116 50 C-119.672 50 -120.963 50.207 -124.141 51.617 Z " fill="#000000" transform="translate(379,75)"/>
<path d="M0 0 C0.832 5.1 1.165 10.071 1.205 15.241 C1.22 16.459 1.22 16.459 1.235 17.701 C1.267 20.451 1.292 23.2 1.316 25.949 C1.337 27.981 1.358 30.014 1.38 32.046 C1.437 37.721 1.486 43.397 1.532 49.072 C1.563 52.691 1.594 56.31 1.627 59.928 C2.377 145.948 2.088 231.978 2 318 C-32.917 318.941 -67.838 319.342 -102.765 319.684 C-110.794 319.763 -118.824 319.845 -126.854 319.926 C-141.208 320.072 -155.562 320.215 -169.917 320.357 C-183.74 320.494 -197.564 320.632 -211.387 320.773 C-226.577 320.928 -241.767 321.082 -256.957 321.234 C-257.765 321.242 -258.572 321.25 -259.405 321.258 C-261.025 321.274 -262.646 321.29 -264.267 321.307 C-269.822 321.362 -275.377 321.418 -280.932 321.475 C-337.755 322.052 -337.755 322.052 -356.907 322.096 C-358.342 322.099 -359.777 322.104 -361.211 322.111 C-363.075 322.119 -364.94 322.12 -366.804 322.119 C-367.799 322.121 -368.795 322.122 -369.821 322.123 C-372 322 -372 322 -373 321 C-373.11 318.014 -373.155 315.05 -373.158 312.063 C-373.163 311.113 -373.168 310.162 -373.173 309.183 C-373.189 305.968 -373.197 302.753 -373.205 299.539 C-373.215 297.242 -373.225 294.945 -373.235 292.648 C-373.263 286.364 -373.283 280.081 -373.303 273.797 C-373.323 267.834 -373.347 261.87 -373.371 255.907 C-373.419 244.006 -373.462 232.105 -373.503 220.204 C-373.541 208.82 -373.583 197.436 -373.628 186.052 C-373.63 185.361 -373.633 184.669 -373.636 183.957 C-373.647 181.172 -373.658 178.388 -373.669 175.603 C-373.795 143.526 -373.904 111.449 -373.991 79.372 C-373.997 77.161 -374.003 74.951 -374.009 72.74 C-374.042 60.755 -374.07 48.771 -374.084 36.786 C-374.087 33.715 -374.093 30.644 -374.101 27.573 C-374.11 23.51 -374.112 19.448 -374.113 15.385 C-374.117 14.219 -374.121 13.053 -374.124 11.851 C-374.123 10.814 -374.122 9.777 -374.12 8.709 C-374.121 7.815 -374.122 6.921 -374.123 5.999 C-374 4 -374 4 -373 3 C-370.254 2.879 -367.532 2.824 -364.785 2.811 C-363.912 2.802 -363.039 2.794 -362.139 2.785 C-359.185 2.758 -356.231 2.739 -353.277 2.719 C-351.165 2.701 -349.054 2.683 -346.942 2.664 C-342.363 2.625 -337.784 2.588 -333.205 2.554 C-325.863 2.5 -318.521 2.439 -311.179 2.377 C-300.11 2.284 -289.04 2.196 -277.971 2.109 C-256.687 1.943 -235.403 1.769 -214.119 1.593 C-207.799 1.541 -201.479 1.49 -195.16 1.438 C-169.374 1.229 -143.588 1.009 -117.803 0.717 C-116.776 0.705 -115.749 0.694 -114.69 0.682 C-105.137 0.573 -95.583 0.461 -86.029 0.342 C-57.352 -0.013 -28.68 -0.125 0 0 Z M-212.198 3.834 C-221.634 3.916 -231.07 3.994 -240.506 4.07 C-253.787 4.177 -267.069 4.287 -280.351 4.401 C-285.324 4.443 -290.298 4.484 -295.271 4.524 C-301.097 4.571 -306.924 4.621 -312.75 4.674 C-314.851 4.693 -316.952 4.71 -319.053 4.726 C-336.38 4.859 -353.684 5.388 -371 6 C-371.023 42.697 -371.041 79.394 -371.051 116.092 C-371.052 120.434 -371.054 124.777 -371.055 129.12 C-371.055 129.985 -371.055 130.849 -371.056 131.74 C-371.06 145.696 -371.068 159.652 -371.077 173.608 C-371.087 187.952 -371.092 202.297 -371.094 216.641 C-371.095 225.477 -371.1 234.312 -371.108 243.147 C-371.113 249.224 -371.115 255.301 -371.114 261.378 C-371.113 264.873 -371.114 268.367 -371.119 271.861 C-371.14 287.605 -370.892 303.279 -370 319 C-309.022 319.134 -248.059 318.842 -187.085 318.166 C-176.609 318.05 -166.133 317.941 -155.657 317.832 C-103.771 317.29 -51.885 316.672 0 316 C0.067 256.21 -0.083 196.422 -0.389 136.633 C-0.433 127.839 -0.473 119.044 -0.512 110.25 C-0.551 101.563 -0.592 92.876 -0.637 84.19 C-0.663 79.09 -0.688 73.99 -0.709 68.891 C-0.802 46.908 -1.038 24.964 -2 3 C-72.07 2.847 -142.13 3.222 -212.198 3.834 Z " fill="#000000" transform="translate(385,8)"/>
<path d="M0 0 C0.66 0.66 1.32 1.32 2 2 C5.092 3.032 8.211 3.917 11.348 4.805 C14 6 14 6 14.871 8.133 C14.914 8.749 14.956 9.365 15 10 C15.619 9.288 15.619 9.288 16.25 8.562 C19.833 5.364 24.658 5.679 29.25 5.699 C33.853 6.203 37.85 8.022 42 10 C42 10.66 42 11.32 42 12 C40.886 12.309 39.773 12.619 38.625 12.938 C36.16 13.988 35.216 14.561 34.02 16.992 C32.797 21.866 32.846 25.333 35 30 C23.6 35.821 9.92 33.241 -2.188 31.188 C-3.167 31.022 -4.147 30.857 -5.156 30.687 C-10.191 29.762 -14.611 28.779 -19 26 C-21.857 21.715 -21.713 18.026 -21 13 C-18.088 5.431 -8.156 -1.631 0 0 Z " fill="#FCFCFC" transform="translate(80,175)"/>
<path d="M0 0 C0.99 0.495 0.99 0.495 2 1 C2 1.66 2 2.32 2 3 C0.155 4.309 0.155 4.309 -2.426 5.793 C-3.831 6.61 -3.831 6.61 -5.265 7.443 C-6.271 8.019 -7.276 8.594 -8.312 9.188 C-10.345 10.367 -12.376 11.548 -14.406 12.73 C-15.381 13.297 -16.355 13.863 -17.359 14.447 C-21.231 16.724 -24.994 19.144 -28.762 21.59 C-31.008 23.005 -33.292 24.295 -35.625 25.562 C-40.234 28.08 -44.904 30.698 -49 34 C-49 34.66 -49 35.32 -49 36 C-45.497 33.995 -41.995 31.987 -38.496 29.976 C-37.311 29.295 -36.125 28.616 -34.938 27.937 C-27.986 23.958 -21.125 19.888 -14.401 15.533 C-4.19 9.014 -4.19 9.014 2 8 C0.631 12.107 -1.23 12.511 -5 14.562 C-6.281 15.271 -7.561 15.981 -8.84 16.691 C-9.518 17.065 -10.196 17.439 -10.894 17.825 C-14.483 19.828 -18.022 21.913 -21.562 24 C-22.274 24.418 -22.986 24.837 -23.719 25.268 C-29.356 28.592 -34.922 32.019 -40.461 35.504 C-43 37 -43 37 -46 38 C-45.845 39.856 -45.845 39.856 -45.688 41.75 C-45.699 45.09 -45.739 45.708 -48.062 48.312 C-51.301 50.173 -54.527 51.623 -58 53 C-59.134 53.577 -60.269 54.155 -61.438 54.75 C-65 56 -65 56 -68.609 55.242 C-74.311 54.406 -78.165 57.4 -82.812 60.375 C-84.485 61.406 -86.158 62.434 -87.832 63.461 C-88.561 63.923 -89.291 64.385 -90.042 64.861 C-92 66 -92 66 -95 67 C-94.67 69.97 -94.34 72.94 -94 76 C-94.33 75.01 -94.66 74.02 -95 73 C-96.485 73.495 -96.485 73.495 -98 74 C-98.704 72.613 -99.388 71.215 -100.062 69.812 C-100.445 69.035 -100.828 68.258 -101.223 67.457 C-102.186 64.413 -102.039 63.015 -101 60 C-98.699 58.242 -98.699 58.242 -95.688 56.66 C-94.612 56.072 -93.537 55.483 -92.43 54.877 C-90.145 53.668 -87.858 52.462 -85.57 51.26 C-84.495 50.67 -83.42 50.08 -82.312 49.473 C-80.822 48.688 -80.822 48.688 -79.301 47.887 C-76.704 46.144 -76.704 46.144 -76.248 42.89 C-76.166 41.937 -76.084 40.983 -76 40 C-73.513 36.664 -69.777 35.164 -66.156 33.281 C-63.97 32.103 -63.97 32.103 -62.402 30.395 C-60.185 28.189 -58.041 28.186 -55 28 C-54.407 28.394 -53.814 28.789 -53.203 29.195 C-50.863 30.334 -50.863 30.334 -48.074 28.762 C-46.957 28.077 -45.839 27.393 -44.688 26.688 C-44.074 26.319 -43.461 25.95 -42.829 25.57 C-41.531 24.787 -40.236 23.996 -38.945 23.2 C-37.087 22.054 -35.219 20.927 -33.344 19.809 C-30.878 18.337 -28.416 16.859 -25.957 15.375 C-20.901 12.332 -15.811 9.347 -10.721 6.362 C-10.048 5.967 -9.374 5.571 -8.68 5.164 C-8.045 4.794 -7.411 4.425 -6.757 4.044 C-5.193 3.115 -3.661 2.135 -2.133 1.148 C-1.077 0.58 -1.077 0.58 0 0 Z " fill="#060606" transform="translate(379,75)"/>
<path d="M0 0 C1.662 2.812 1.662 2.812 3.129 6.43 C3.4 7.084 3.672 7.739 3.952 8.413 C4.839 10.561 5.701 12.717 6.562 14.875 C7.17 16.361 7.78 17.846 8.391 19.33 C9.329 21.61 10.266 23.891 11.196 26.175 C13.269 31.263 15.413 36.315 17.617 41.348 C17.9 41.996 18.184 42.645 18.476 43.314 C19.821 46.392 21.172 49.468 22.531 52.541 C23.241 54.174 23.241 54.174 23.965 55.84 C24.384 56.792 24.803 57.745 25.234 58.726 C25.487 59.477 25.74 60.227 26 61 C25.67 61.66 25.34 62.32 25 63 C22 62 22 62 20.333 58.731 C19.719 57.268 19.116 55.8 18.523 54.328 C18.196 53.542 17.869 52.756 17.533 51.946 C16.47 49.384 15.422 46.817 14.375 44.25 C13.654 42.504 12.932 40.759 12.209 39.015 C11.133 36.419 10.059 33.823 8.989 31.224 C5.881 23.681 2.666 16.187 -0.612 8.716 C-3 3.213 -3 3.213 -3 1 C-4.32 1 -5.64 1 -7 1 C-2.545 11.89 -2.545 11.89 2 23 C1.01 23.495 1.01 23.495 0 24 C-3.815 16.643 -7.555 9.218 -9 1 C-15.518 2.895 -21.178 5.518 -27 9 C-25.68 9.66 -24.36 10.32 -23 11 C-23 12.65 -23 14.3 -23 16 C-25.915 16.81 -27.461 17.218 -30.312 16.062 C-30.869 15.712 -31.426 15.361 -32 15 C-32 13.68 -32 12.36 -32 11 C-32.687 11.361 -33.374 11.722 -34.082 12.094 C-34.983 12.558 -35.884 13.022 -36.812 13.5 C-37.706 13.964 -38.599 14.428 -39.52 14.906 C-42 16 -42 16 -45 16 C-44.536 17.129 -44.073 18.258 -43.595 19.421 C-41.857 23.652 -40.12 27.883 -38.384 32.113 C-37.635 33.937 -36.887 35.76 -36.138 37.583 C-35.055 40.219 -33.973 42.856 -32.891 45.492 C-32.561 46.294 -32.232 47.095 -31.893 47.921 C-29.562 53.601 -27.272 59.296 -25 65 C-21.815 65.277 -21.815 65.277 -19 63 C-17.68 63 -16.36 63 -15 63 C-14.16 64.768 -13.328 66.539 -12.5 68.312 C-12.036 69.299 -11.572 70.285 -11.094 71.301 C-10 74 -10 74 -10 77 C-10.99 76.67 -11.98 76.34 -13 76 C-14.688 72.438 -14.688 72.438 -16 69 C-17.98 69.495 -17.98 69.495 -20 70 C-19.856 70.722 -19.711 71.444 -19.562 72.188 C-19.042 74.792 -18.521 77.396 -18 80 C-19.812 79.938 -19.812 79.938 -22 79 C-23.813 75.504 -25 72.96 -25 69 C-25.99 69 -26.98 69 -28 69 C-28.303 68.129 -28.606 67.257 -28.918 66.359 C-29.337 65.168 -29.756 63.977 -30.188 62.75 C-30.594 61.59 -31 60.43 -31.418 59.234 C-34.195 51.615 -37.477 44.188 -40.711 36.754 C-41.599 34.69 -42.487 32.626 -43.375 30.562 C-43.838 29.514 -44.301 28.465 -44.777 27.385 C-45.209 26.372 -45.641 25.36 -46.086 24.316 C-46.478 23.413 -46.871 22.511 -47.275 21.58 C-48.124 18.559 -48.093 16.937 -47 14 C-45.333 12.701 -45.333 12.701 -43.168 11.754 C-42.375 11.394 -41.581 11.035 -40.764 10.664 C-39.914 10.301 -39.063 9.937 -38.188 9.562 C-36.45 8.784 -34.713 8.004 -32.977 7.223 C-31.701 6.658 -31.701 6.658 -30.399 6.083 C-26.305 4.235 -22.336 2.16 -18.348 0.094 C-12.442 -2.658 -5.82 -3.272 0 0 Z " fill="#030303" transform="translate(232,59)"/>
<path d="M0 0 C0.66 0 1.32 0 2 0 C2.807 1.859 3.615 3.719 4.422 5.578 C4.678 6.169 4.935 6.759 5.199 7.367 C6.637 10.681 8.073 13.996 9.504 17.312 C12.212 23.581 14.923 29.847 17.698 36.086 C18.829 38.633 19.95 41.185 21.07 43.738 C21.864 45.537 22.672 47.331 23.479 49.124 C24.197 50.766 24.197 50.766 24.93 52.441 C25.355 53.397 25.78 54.353 26.218 55.338 C27.303 59.033 26.721 61.431 25.138 64.877 C21.595 70.223 17.56 71.981 11.625 74.062 C9.834 74.73 8.044 75.398 6.254 76.066 C5.368 76.389 4.483 76.711 3.571 77.043 C1.199 77.926 -1.138 78.862 -3.473 79.84 C-4.147 80.121 -4.821 80.403 -5.516 80.693 C-7.322 81.451 -9.128 82.21 -10.934 82.969 C-13.861 83.953 -15.945 84.228 -19 84 C-22.802 75.73 -26.466 67.403 -30.102 59.059 C-30.961 57.09 -31.823 55.123 -32.688 53.156 C-36.091 45.408 -39.463 37.646 -42.812 29.875 C-43.198 28.986 -43.583 28.097 -43.98 27.181 C-45.848 22.835 -47.598 18.525 -49 14 C-47.68 14 -46.36 14 -45 14 C-44.599 14.984 -44.198 15.967 -43.785 16.98 C-37.985 31.167 -32.018 45.28 -25.758 59.27 C-25.482 59.886 -25.207 60.502 -24.923 61.137 C-23.558 64.191 -22.187 67.242 -20.81 70.291 C-20.314 71.395 -19.819 72.499 -19.309 73.637 C-18.64 75.117 -18.64 75.117 -17.959 76.628 C-17 79 -17 79 -17 81 C-16.096 80.639 -15.193 80.278 -14.262 79.906 C-13.082 79.442 -11.903 78.978 -10.688 78.5 C-8.93 77.804 -8.93 77.804 -7.137 77.094 C-4 76 -4 76 -1 76 C-1.33 74.68 -1.66 73.36 -2 72 C-0.708 72.323 -0.708 72.323 0.609 72.652 C4.633 73.065 6.61 72.25 10.25 70.562 C15.864 68 15.864 68 18 68 C17.662 67.228 17.323 66.456 16.974 65.661 C15.724 62.796 14.482 59.928 13.245 57.056 C12.708 55.814 12.168 54.574 11.624 53.335 C10.843 51.554 10.076 49.767 9.309 47.98 C8.843 46.907 8.376 45.833 7.896 44.727 C7 42 7 42 8 39 C12.379 47.531 16.454 56.079 20 65 C19.339 58.812 16.643 54.578 13.496 49.316 C11.821 45.604 11.72 43.027 12 39 C12.99 39.99 13.98 40.98 15 42 C14.338 37.718 12.876 34.116 11.129 30.16 C10.847 29.516 10.564 28.871 10.273 28.207 C9.374 26.157 8.469 24.109 7.562 22.062 C6.66 20.019 5.76 17.975 4.863 15.929 C4.046 14.07 3.226 12.213 2.405 10.356 C1.113 7.27 0.01 4.187 -1 1 C-0.67 0.67 -0.34 0.34 0 0 Z " fill="#000000" transform="translate(281,176)"/>
<path d="M0 0 C0.99 0 1.98 0 3 0 C2.415 3.258 1.456 4.926 -0.844 7.285 C-1.426 7.892 -2.008 8.5 -2.608 9.125 C-3.232 9.765 -3.857 10.404 -4.5 11.062 C-9.469 16.257 -14.156 21.532 -18.629 27.164 C-22.142 31.366 -25.926 35.31 -29.748 39.231 C-30.285 39.793 -30.822 40.355 -31.375 40.934 C-31.857 41.429 -32.339 41.925 -32.836 42.435 C-34.188 44.252 -34.59 45.79 -35 48 C-30.967 48.449 -30.967 48.449 -28.668 45.875 C-27.849 44.926 -27.031 43.977 -26.188 43 C-25.75 42.5 -25.313 42.001 -24.863 41.486 C-23.565 39.999 -22.282 38.5 -21 37 C-19.731 35.54 -18.46 34.082 -17.188 32.625 C-16.632 31.986 -16.076 31.346 -15.504 30.688 C-13.431 28.362 -11.202 26.202 -9 24 C-7.597 22.465 -6.202 20.923 -4.812 19.375 C-3.658 18.091 -3.658 18.091 -2.48 16.781 C-0.742 14.832 0.983 12.875 2.699 10.906 C3.591 9.896 4.483 8.885 5.375 7.875 C6.187 6.944 6.999 6.014 7.836 5.055 C10 3 10 3 13 3 C11.671 5.926 10.204 8.07 7.988 10.391 C7.399 11.014 6.809 11.637 6.202 12.279 C5.578 12.929 4.955 13.58 4.312 14.25 C3.033 15.602 1.754 16.955 0.477 18.309 C-0.132 18.952 -0.74 19.595 -1.366 20.257 C-3.76 22.81 -6.059 25.436 -8.34 28.09 C-11.227 31.412 -14.211 34.648 -17.18 37.898 C-19.037 39.867 -19.037 39.867 -20 42 C-20.66 42 -21.32 42 -22 42 C-22.248 42.557 -22.495 43.114 -22.75 43.688 C-24 46 -24 46 -26 48.188 C-28.324 51.455 -28.817 54.009 -29.41 57.914 C-30.124 60.438 -30.922 61.419 -33 63 C-39.738 64.521 -39.738 64.521 -43.875 62.812 C-47.063 60.093 -47.811 58.241 -48.438 54.125 C-47.835 49.819 -46.074 48.005 -43 45 C-42.216 44.691 -41.433 44.381 -40.625 44.062 C-33.69 41.255 -29.022 33.64 -24.48 27.988 C-21.328 24.19 -18.005 20.572 -14.63 16.972 C-12.529 14.721 -10.714 12.572 -9 10 C-8.34 10 -7.68 10 -7 10 C-6.732 9.423 -6.464 8.845 -6.188 8.25 C-4.971 5.944 -3.697 3.979 -2 2 C-1.34 2 -0.68 2 0 2 C0 1.34 0 0.68 0 0 Z " fill="#000000" transform="translate(217,188)"/>
<path d="M0 0 C1.945 2.117 1.945 2.117 4.125 4.875 C4.849 5.78 5.574 6.685 6.32 7.617 C8 10 8 10 8 12 C8.66 12 9.32 12 10 12 C11.274 13.574 12.469 15.212 13.625 16.875 C17.074 21.758 20.708 26.409 24.531 31.004 C26 33 26 33 26 35 C26.66 35 27.32 35 28 35 C29.305 36.406 29.305 36.406 30.875 38.5 C31.49 39.312 32.105 40.124 32.738 40.961 C33.858 42.465 33.858 42.465 35 44 C36.494 46.005 37.99 48.01 39.487 50.014 C40.514 51.39 41.539 52.769 42.56 54.15 C45.51 58.115 48.577 61.887 51.896 65.55 C53 67 53 67 53 69 C49.535 69.495 49.535 69.495 46 70 C45.646 69.525 45.292 69.049 44.927 68.56 C42.182 64.886 39.415 61.23 36.605 57.605 C36.043 56.878 35.48 56.15 34.9 55.4 C33.742 53.903 32.58 52.409 31.416 50.916 C30.86 50.195 30.304 49.474 29.73 48.73 C29.229 48.085 28.728 47.439 28.212 46.774 C27 45 27 45 26 42 C25.34 42 24.68 42 24 42 C23.084 40.661 22.178 39.315 21.309 37.945 C19.181 34.783 16.742 31.877 14.348 28.914 C10.261 23.842 6.245 18.715 2.239 13.579 C1.147 12.188 0.04 10.81 -1.07 9.434 C-1.625 8.734 -2.179 8.034 -2.75 7.312 C-3.219 6.731 -3.688 6.15 -4.172 5.551 C-4.445 5.039 -4.718 4.527 -5 4 C-4.67 3.01 -4.34 2.02 -4 1 C-2 0 -2 0 0 0 Z " fill="#FFFFFF" transform="translate(51,109)"/>
<path d="M0 0 C-2.052 2.248 -3.007 3.002 -6 4 C-6.33 3.34 -6.66 2.68 -7 2 C-9.97 3.32 -12.94 4.64 -16 6 C-13.36 5.67 -10.72 5.34 -8 5 C-11.191 7.704 -14.209 8.894 -18.188 10.125 C-21.885 11.039 -21.885 11.039 -25 13 C-25.366 20.274 -22.723 24.699 -18 30 C-9.968 29.44 -1.681 26.454 5 22 C6.65 22 8.3 22 10 22 C12.475 26.95 12.475 26.95 15 32 C11 30.667 10.162 28.504 8 25 C6.969 25.743 5.938 26.485 4.875 27.25 C-2.893 32.096 -11.95 34.963 -21 33 C-22.938 31.562 -22.938 31.562 -24 30 C-24 29.34 -24 28.68 -24 28 C-24.66 28.33 -25.32 28.66 -26 29 C-32.18 29.449 -32.18 29.449 -34.938 27.938 C-36.614 24.88 -36.365 22.409 -36 19 C-34.75 17.062 -34.75 17.062 -33 16 C-31.68 16 -30.36 16 -29 16 C-29.103 15.257 -29.206 14.515 -29.312 13.75 C-29 11 -29 11 -26.75 8.938 C-25.843 8.298 -24.935 7.659 -24 7 C-23.361 6.278 -22.721 5.556 -22.062 4.812 C-19.391 2.465 -17.502 2.471 -14 2 C-12.657 1.482 -11.324 0.939 -10 0.375 C-6.344 -1.081 -3.857 -1.061 0 0 Z " fill="#0A0A0A" transform="translate(265,136)"/>
<path d="M0 0 C4.117 0.521 5.99 2.651 8.812 5.562 C9.694 6.471 10.576 7.38 11.484 8.316 C14.126 11.134 16.699 13.992 19.211 16.926 C22.041 20.207 24.971 23.4 27.887 26.605 C29.344 28.256 30.754 29.949 32.125 31.672 C35.012 35.257 38.162 37.54 42.188 39.75 C47.248 42.54 51.554 46.341 56 50 C59.121 52.513 62.266 54.989 65.438 57.438 C70.933 61.711 76.071 66.071 81 71 C82.475 72.297 83.954 73.588 85.438 74.875 C89.365 78.325 92.65 81.997 96 86 C96.66 86.33 97.32 86.66 98 87 C98 87.99 98 88.98 98 90 C94.178 89.44 92.41 87.787 89.75 85.062 C89.044 84.352 88.337 83.642 87.609 82.91 C86 81 86 81 86 79 C85.412 78.736 84.825 78.472 84.219 78.2 C81.915 76.954 80.363 75.632 78.496 73.805 C77.843 73.175 77.19 72.545 76.518 71.896 C75.831 71.229 75.145 70.562 74.438 69.875 C69.019 64.698 63.648 59.975 57.477 55.715 C54.131 53.398 50.963 50.877 47.777 48.348 C46.036 46.941 46.036 46.941 44 46 C44 45.34 44 44.68 44 44 C43.34 43.794 42.68 43.587 42 43.375 C33.196 39.34 27.251 32.191 21 25 C20.416 24.33 19.832 23.659 19.23 22.969 C18.15 21.728 17.072 20.486 15.996 19.242 C14.345 17.388 12.67 15.568 10.973 13.758 C10.432 13.18 9.892 12.602 9.335 12.007 C8.256 10.857 7.174 9.71 6.086 8.567 C3.567 5.878 1.381 3.448 0 0 Z " fill="#000000" transform="translate(199,228)"/>
<path d="M0 0 C3.759 1.44 5.541 2.883 7.938 6.125 C8.75 9.562 8.75 9.562 7.938 13.125 C5.614 15.832 3.19 17.657 -0.062 19.125 C-4.051 18.741 -5.546 17.588 -8.5 14.938 C-10.062 12.125 -10.062 12.125 -10.188 8.625 C-8.511 3.408 -5.859 0.239 0 0 Z " fill="#FFFFFF" transform="translate(42.0625,91.875)"/>
<path d="M0 0 C3.297 2.683 4.611 6.236 6.188 10.062 C6.46 10.7 6.733 11.337 7.014 11.994 C9 16.719 9 16.719 9 19 C9.99 19.33 10.98 19.66 12 20 C13.387 22.18 13.387 22.18 14.688 24.875 C15.343 26.201 15.343 26.201 16.012 27.555 C17 30 17 30 17 33 C16 33 15 33 14 33 C13.01 33.495 13.01 33.495 12 34 C10.68 31.36 9.36 28.72 8 26 C6.68 26.33 5.36 26.66 4 27 C4.99 30.3 5.98 33.6 7 37 C5.515 37.495 5.515 37.495 4 38 C2.995 35.877 1.996 33.752 1 31.625 C0.443 30.442 -0.114 29.258 -0.688 28.039 C-2 25 -2 25 -2 23 C1.01 22.066 1.867 21.956 5 23 C5 22.01 5 21.02 5 20 C5.66 20 6.32 20 7 20 C6.495 18.808 5.989 17.615 5.469 16.387 C4.812 14.82 4.156 13.254 3.5 11.688 C2.999 10.509 2.999 10.509 2.488 9.307 C2.015 8.171 2.015 8.171 1.531 7.012 C1.238 6.315 0.945 5.619 0.643 4.901 C0 3 0 3 0 0 Z " fill="#090909" transform="translate(236,90)"/>
<path d="M0 0 C0.99 0.33 1.98 0.66 3 1 C3.488 7.227 3.488 7.227 1.395 10.541 C-1.416 13.427 -3.855 14.607 -7.566 16.156 C-8.201 16.426 -8.835 16.695 -9.488 16.973 C-11.508 17.829 -13.534 18.665 -15.562 19.5 C-16.897 20.06 -18.231 20.621 -19.564 21.184 C-21.53 22.012 -23.496 22.841 -25.464 23.664 C-32.802 26.737 -40.012 30.058 -47.203 33.457 C-48.885 34.242 -50.568 35.027 -52.25 35.812 C-53.518 36.423 -53.518 36.423 -54.812 37.045 C-59.829 39.362 -63.468 40.501 -69 40 C-66.76 36.641 -65.141 35.751 -61.625 33.875 C-60.19 33.098 -60.19 33.098 -58.727 32.305 C-56.438 31.21 -54.475 30.481 -52 30 C-53.32 31.32 -54.64 32.64 -56 34 C-47.763 30.621 -39.597 27.096 -31.474 23.453 C-29.635 22.629 -27.794 21.811 -25.953 20.992 C-22.911 19.636 -19.885 18.248 -16.862 16.848 C-14.92 15.964 -12.963 15.118 -11.003 14.272 C-9.718 13.691 -8.433 13.108 -7.148 12.523 C-5.993 12.015 -4.837 11.506 -3.646 10.982 C-0.638 9.165 -0.638 9.165 -0.116 5.405 C-0.055 3.604 0 1.802 0 0 Z " fill="#000000" transform="translate(221,145)"/>
<path d="M0 0 C3.906 0.593 6.218 2.486 9.25 4.938 C10.142 5.648 11.034 6.358 11.953 7.09 C12.629 7.72 13.304 8.351 14 9 C14 9.66 14 10.32 14 11 C14.99 11.33 15.98 11.66 17 12 C22.11 17.865 26.182 24.736 30.312 31.312 C30.733 31.982 31.153 32.651 31.586 33.34 C38 43.694 38 43.694 38 48 C34.559 46.853 34.453 46.52 32.906 43.457 C32.521 42.719 32.136 41.982 31.739 41.222 C31.126 40.029 31.126 40.029 30.5 38.812 C25.838 30.068 20.373 22.557 14 15 C13.556 14.458 13.112 13.917 12.655 13.358 C8.977 8.874 5.346 5.376 0 3 C0 2.01 0 1.02 0 0 Z " fill="#000000" transform="translate(154,272)"/>
<path d="M0 0 C2 3 2 3 2 5.375 C0.612 9.019 -1.728 11.043 -5 13 C-8.25 13.938 -8.25 13.938 -11 14 C-13 12 -13 12 -13.117 9.941 C-12.461 3.491 -12.461 3.491 -10.125 1 C-6.286 -0.807 -4.068 -1.252 0 0 Z " fill="#FFFFFF" transform="translate(127,189)"/>
<path d="M0 0 C0.99 1.485 0.99 1.485 2 3 C0.721 2.856 -0.558 2.711 -1.875 2.562 C-10.441 2.538 -18.259 6.71 -26 10 C-27.844 10.771 -29.69 11.54 -31.535 12.309 C-34.993 13.748 -38.45 15.188 -41.906 16.633 C-45.404 18.093 -48.907 19.543 -52.412 20.986 C-53.863 21.586 -55.313 22.189 -56.761 22.796 C-58.88 23.683 -61.004 24.557 -63.129 25.43 C-63.776 25.704 -64.423 25.977 -65.089 26.259 C-69.658 28.114 -69.658 28.114 -73 27 C-72.227 26.685 -71.453 26.371 -70.656 26.047 C-63.763 23.235 -63.763 23.235 -57.062 20 C-53.827 18.33 -50.527 17.015 -47.121 15.73 C-40.036 13.03 -33.016 10.187 -26 7.312 C-23.646 6.35 -21.292 5.388 -18.938 4.426 C-17.915 4.007 -16.893 3.589 -15.84 3.157 C-14.903 2.776 -13.966 2.394 -13 2 C-12.097 1.626 -11.195 1.252 -10.264 0.867 C-6.645 -0.519 -3.858 -0.316 0 0 Z " fill="#000000" transform="translate(232,172)"/>
<path d="M0 0 C0 0.66 0 1.32 0 2 C-2.265 3.51 -4.519 4.895 -6.875 6.25 C-8.251 7.056 -9.628 7.862 -11.004 8.668 C-11.683 9.063 -12.363 9.458 -13.063 9.865 C-16.458 11.854 -19.798 13.935 -23.145 16.004 C-25 17 -25 17 -27 17 C-27 17.99 -27 18.98 -27 20 C-25.68 19.67 -24.36 19.34 -23 19 C-22.67 21.64 -22.34 24.28 -22 27 C-22.33 26.01 -22.66 25.02 -23 24 C-23.99 24.33 -24.98 24.66 -26 25 C-26.671 23.544 -27.337 22.085 -28 20.625 C-28.371 19.813 -28.743 19.001 -29.125 18.164 C-30 16 -30 16 -30 14 C-29.466 13.781 -28.933 13.562 -28.383 13.336 C-21.404 10.366 -15.009 6.664 -8.695 2.469 C-7.991 2.005 -7.288 1.541 -6.562 1.062 C-5.945 0.641 -5.328 0.219 -4.691 -0.215 C-3 -1 -3 -1 0 0 Z " fill="#FFFFFF" transform="translate(307,124)"/>
<path d="M0 0 C2 0.188 2 0.188 4 1 C4.66 1.99 5.32 2.98 6 4 C8.059 4.724 8.059 4.724 10 5 C9.672 8.032 9.359 9.616 7.25 11.875 C5 13 5 13 2.438 12.938 C-0.591 11.773 -1.58 10.92 -3 8 C-2.78 4.327 -2.63 2.63 0 0 Z " fill="#FFFFFF" transform="translate(175,236)"/>
<path d="M0 0 C4.541 4.266 8.247 9.036 12 14 C9 15 9 15 6.59 14.074 C5.715 13.617 4.839 13.159 3.938 12.688 C3.06 12.238 2.182 11.788 1.277 11.324 C-1 10 -1 10 -3 8 C-2.75 4.438 -2.75 4.438 -2 1 C-1.34 0.67 -0.68 0.34 0 0 Z " fill="#FFFFFF" transform="translate(81,163)"/>
<path d="M0 0 C3.833 1.454 5.283 3.308 7 7 C7.188 9.812 7.188 9.812 7 12 C5.055 9.082 4.547 7.375 4 4 C3.34 4 2.68 4 2 4 C1.67 4.66 1.34 5.32 1 6 C0.34 5.67 -0.32 5.34 -1 5 C-1 5.66 -1 6.32 -1 7 C-1.66 7 -2.32 7 -3 7 C-3 7.66 -3 8.32 -3 9 C-3.66 9 -4.32 9 -5 9 C-4.67 9.743 -4.34 10.485 -4 11.25 C-3 14 -3 14 -3 18 C-4.32 18 -5.64 18 -7 18 C-7.103 17.257 -7.206 16.515 -7.312 15.75 C-8.049 12.806 -9.181 11.373 -11 9 C-11 8.01 -11 7.02 -11 6 C-8.525 6.495 -8.525 6.495 -6 7 C-6 6.34 -6 5.68 -6 5 C-5.361 4.876 -4.721 4.752 -4.062 4.625 C-3.382 4.419 -2.701 4.213 -2 4 C-1.67 3.34 -1.34 2.68 -1 2 C-0.34 2.33 0.32 2.66 1 3 C0.67 2.01 0.34 1.02 0 0 Z " fill="#FFFFFF" transform="translate(317,110)"/>
<path d="M0 0 C1.177 2.353 1.102 3.76 1.062 6.375 C1.053 7.146 1.044 7.917 1.035 8.711 C1.024 9.466 1.012 10.222 1 11 C1 12.32 1 13.64 1 15 C0.01 14.67 -0.98 14.34 -2 14 C-2.102 14.541 -2.204 15.083 -2.309 15.641 C-3.178 18.606 -4.555 21.055 -6.062 23.75 C-6.61 24.735 -7.158 25.72 -7.723 26.734 C-8.144 27.482 -8.566 28.23 -9 29 C-9.945 26.474 -10.172 25.395 -9.074 22.879 C-8.617 22.114 -8.159 21.35 -7.688 20.562 C-4.867 15.349 -4.121 10.545 -3.555 4.688 C-3 2 -3 2 0 0 Z " fill="#000000" transform="translate(188,201)"/>
<path d="M0 0 C1.708 1.634 2.935 2.869 4 5 C5.641 6.041 7.307 7.045 9 8 C8.453 11.375 7.945 13.082 6 16 C3.562 14.75 3.562 14.75 1 12 C0.246 8.008 0.07 4.057 0 0 Z " fill="#373737" transform="translate(253,185)"/>
<path d="M0 0 C0.553 2.076 1 3.844 1 6 C2.32 6.33 3.64 6.66 5 7 C5.144 6.216 5.289 5.433 5.438 4.625 C6 2 6 2 7 0 C7.66 0 8.32 0 9 0 C8.67 1.65 8.34 3.3 8 5 C8.66 5 9.32 5 10 5 C10.33 5.99 10.66 6.98 11 8 C10.67 8.66 10.34 9.32 10 10 C8.886 9.814 7.772 9.629 6.625 9.438 C3.174 8.683 3.174 8.683 1 10 C-1.125 9.562 -1.125 9.562 -3 9 C-2.443 5.656 -1.648 2.967 0 0 Z " fill="#000000" transform="translate(348,304)"/>
<path d="M0 0 C2 -0.043 4 -0.041 6 0 C7 1 7 1 7.188 3.938 C7 7 7 7 5 9 C2.375 9.125 2.375 9.125 0 9 C0 6.03 0 3.06 0 0 Z " fill="#454545" transform="translate(333,306)"/>
<path d="M0 0 C1.32 0 2.64 0 4 0 C4 1.98 4 3.96 4 6 C4.639 6.103 5.279 6.206 5.938 6.312 C6.618 6.539 7.299 6.766 8 7 C9.392 11.175 8.366 13.902 7 18 C6.67 16.68 6.34 15.36 6 14 C5.01 14 4.02 14 3 14 C3 13.34 3 12.68 3 12 C3.99 12 4.98 12 6 12 C5.67 10.68 5.34 9.36 5 8 C3.68 8.99 2.36 9.98 1 11 C1 9.68 1 8.36 1 7 C0.688 4.664 0.358 2.33 0 0 Z " fill="#000000" transform="translate(261,205)"/>
<path d="M0 0 C0.99 0 1.98 0 3 0 C3 5.94 3 11.88 3 18 C2.01 17.67 1.02 17.34 0 17 C0 13.04 0 9.08 0 5 C-0.66 5 -1.32 5 -2 5 C-1.125 1.125 -1.125 1.125 0 0 Z " fill="#000000" transform="translate(297,72)"/>
<path d="M0 0 C3.804 3.191 4.275 5.196 5 10 C6.009 12.393 7.109 14.718 8.258 17.047 C8.503 17.691 8.748 18.336 9 19 C8.67 19.66 8.34 20.32 8 21 C6.647 18.823 5.318 16.636 4 14.438 C3.428 13.524 3.428 13.524 2.844 12.592 C0.267 8.243 -0.427 5.179 0 0 Z " fill="#000000" transform="translate(293,215)"/>
<path d="M0 0 C0.66 0 1.32 0 2 0 C2.33 0.66 2.66 1.32 3 2 C3.846 2.433 4.691 2.866 5.562 3.312 C6.367 3.869 7.171 4.426 8 5 C8.312 7.438 8.312 7.438 8 10 C8 11.32 8 12.64 8 14 C7.67 14.66 7.34 15.32 7 16 C6.34 14.35 5.68 12.7 5 11 C4.01 11 3.02 11 2 11 C2 10.34 2 9.68 2 9 C3.32 9 4.64 9 6 9 C6 7.68 6 6.36 6 5 C4.02 5.66 2.04 6.32 0 7 C0 4.69 0 2.38 0 0 Z " fill="#000000" transform="translate(270,227)"/>
<path d="M0 0 C0.99 0 1.98 0 3 0 C3.843 1.746 4.674 3.497 5.5 5.25 C6.196 6.712 6.196 6.712 6.906 8.203 C8 11 8 11 8 15 C5 14 5 14 3.613 11.602 C3.184 10.619 2.755 9.637 2.312 8.625 C1.876 7.648 1.439 6.671 0.988 5.664 C0 3 0 3 0 0 Z " fill="#000000" transform="translate(303,94)"/>
<path d="M0 0 C0.99 0.33 1.98 0.66 3 1 C2.67 1.66 2.34 2.32 2 3 C2.66 3.66 3.32 4.32 4 5 C3.625 7.625 3.625 7.625 3 10 C1.35 9.67 -0.3 9.34 -2 9 C-2 6.36 -2 3.72 -2 1 C-1.34 0.67 -0.68 0.34 0 0 Z " fill="#1B1B1B" transform="translate(370,304)"/>
<path d="M0 0 C2.404 2.998 4.125 6.02 5.75 9.5 C6.199 10.438 6.647 11.377 7.109 12.344 C8.048 15.142 8.047 16.294 7 19 C3.019 14.422 0.041 7.991 -1 2 C-0.67 1.34 -0.34 0.68 0 0 Z " fill="#FFFFFF" transform="translate(297,219)"/>
<path d="M0 0 C0.66 0.33 1.32 0.66 2 1 C0.577 1.866 0.577 1.866 -0.875 2.75 C-4.058 4.651 -4.058 4.651 -5 7.188 C-5.495 8.085 -5.495 8.085 -6 9 C-9.586 9.992 -11.447 10.184 -15 9 C-12.344 7.316 -9.676 5.653 -7 4 C-6 3.377 -6 3.377 -4.98 2.742 C-3.357 1.765 -1.681 0.874 0 0 Z " fill="#111111" transform="translate(167,175)"/>
<path d="M0 0 C0 2.64 0 5.28 0 8 C-1.65 8.33 -3.3 8.66 -5 9 C-5.33 8.01 -5.66 7.02 -6 6 C-4.68 6.33 -3.36 6.66 -2 7 C-2 6.34 -2 5.68 -2 5 C-2.66 5 -3.32 5 -4 5 C-4 4.34 -4 3.68 -4 3 C-3.34 3 -2.68 3 -2 3 C-2 2.34 -2 1.68 -2 1 C-3.32 1.33 -4.64 1.66 -6 2 C-6 1.34 -6 0.68 -6 0 C-3 -1 -3 -1 0 0 Z " fill="#000000" transform="translate(366,305)"/>
<path d="M0 0 C3 1 3 1 4.168 3.074 C6.031 7.851 7.55 11.774 7 17 C6.34 17 5.68 17 5 17 C4.89 16.336 4.781 15.672 4.668 14.988 C3.778 10.034 2.896 6.213 0 2 C0 1.34 0 0.68 0 0 Z " fill="#000000" transform="translate(259,142)"/>
<path d="M0 0 C0.99 0.33 1.98 0.66 3 1 C3 2.32 3 3.64 3 5 C3.66 5 4.32 5 5 5 C5.66 7.97 6.32 10.94 7 14 C6.34 14 5.68 14 5 14 C1.938 9.159 0.466 5.707 0 0 Z " fill="#000000" transform="translate(285,198)"/>
<path d="M0 0 C3.125 0.375 3.125 0.375 6 1 C6 2.65 6 4.3 6 6 C5.34 5.01 4.68 4.02 4 3 C3.01 3 2.02 3 1 3 C1 3.99 1 4.98 1 6 C1.99 6.66 2.98 7.32 4 8 C2.334 8.043 0.666 8.041 -1 8 C-2 7 -2 7 -2.188 4.562 C-2 2 -2 2 0 0 Z " fill="#000000" transform="translate(219,106)"/>
<path d="M0 0 C0.66 0.66 1.32 1.32 2 2 C1.728 7.449 0.755 11.208 -2 16 C-2.99 15.67 -3.98 15.34 -5 15 C-4.546 14.381 -4.093 13.762 -3.625 13.125 C-1.432 8.907 -0.769 4.66 0 0 Z " fill="#000000" transform="translate(126,165)"/>
<path d="M0 0 C3 2 3 2 3.562 4.312 C3.707 5.199 3.851 6.086 4 7 C4.634 8.679 5.293 10.35 6 12 C5.34 12 4.68 12 4 12 C-0.571 4.714 -0.571 4.714 0 0 Z " fill="#000000" transform="translate(277,179)"/>
<path d="M0 0 C2.667 2.667 5.333 5.333 8 8 C7.67 8.66 7.34 9.32 7 10 C4.36 7.69 1.72 5.38 -1 3 C-0.67 2.01 -0.34 1.02 0 0 Z " fill="#000000" transform="translate(277,155)"/>
<path d="M0 0 C2.062 2.312 2.062 2.312 4 5 C3.67 5.99 3.34 6.98 3 8 C0.474 5.637 -0.888 4.335 -2 1 C-1.34 0.67 -0.68 0.34 0 0 Z " fill="#FFFFFF" transform="translate(325,108)"/>
</svg>
