<?xml version="1.0" encoding="UTF-8"?>
<!-- Generator: visioncortex VTracer 0.6.4 -->
<svg version="1.1" xmlns="http://www.w3.org/2000/svg" width="338" height="287">
<path d="M0 0 C111.54 0 223.08 0 338 0 C338 94.71 338 189.42 338 287 C226.46 287 114.92 287 0 287 C0 192.29 0 97.58 0 0 Z " fill="#FEFEFE" transform="translate(0,0)"/>
<path d="M0 0 C3.463 3.661 5.975 7.413 6.352 12.551 C5.943 18.18 3.936 22.436 1.188 27.312 C0.197 27.312 -0.793 27.312 -1.812 27.312 C-1.397 26.551 -1.397 26.551 -0.973 25.773 C1.983 20.157 3.905 16.088 2.25 9.688 C-0.482 5.218 -2.815 3.723 -7.812 2.312 C-23.431 -0.356 -38.178 3.088 -52.812 8.312 C-53.458 8.54 -54.103 8.767 -54.767 9 C-63.303 12.053 -70.704 15.807 -78.203 20.871 C-79.064 21.347 -79.925 21.822 -80.812 22.312 C-81.803 21.983 -82.792 21.653 -83.812 21.312 C-62.078 5.615 -37.336 -1.207 -10.812 -0.688 C-9.822 -0.688 -8.832 -0.688 -7.812 -0.688 C-31.066 -7.167 -57.465 3.724 -77.496 14.809 C-91.894 23.027 -108.161 35.54 -114.812 51.312 C-114.812 52.303 -114.812 53.292 -114.812 54.312 C-114.547 53.77 -114.281 53.227 -114.008 52.668 C-113.655 51.953 -113.301 51.237 -112.938 50.5 C-112.589 49.792 -112.241 49.085 -111.883 48.355 C-110.812 46.313 -110.812 46.313 -108.812 43.312 C-108.153 43.312 -107.493 43.312 -106.812 43.312 C-107.793 45.296 -108.786 47.265 -109.848 49.207 C-112.773 54.668 -114.535 59.241 -113.062 65.5 C-108.902 70.701 -103.077 71.918 -96.645 72.695 C-80.351 73.268 -64.854 67.967 -49.812 62.312 C-48.685 61.964 -47.557 61.616 -46.395 61.258 C-43.667 60.594 -43.667 60.594 -42.812 58.312 C-43.431 58.23 -44.05 58.148 -44.688 58.062 C-46.812 57.312 -46.812 57.312 -47.926 55.617 C-50.863 47.984 -48.913 38.617 -45.812 31.312 C-43.615 27.074 -41.824 23.987 -37.812 21.312 C-29.423 21.705 -21.51 24.069 -13.432 26.229 C-11.897 26.628 -11.897 26.628 -10.332 27.035 C-9.415 27.28 -8.499 27.525 -7.554 27.778 C-1.509 28.957 2.422 28.047 8 25.562 C20.112 20.5 31.584 17.978 44.75 17.875 C45.666 17.865 46.582 17.855 47.526 17.844 C54.064 17.929 60 18.661 65.211 22.996 C65.657 23.575 66.103 24.154 66.562 24.75 C67.255 25.614 67.255 25.614 67.961 26.496 C71.01 31.012 71.993 34.855 71.188 40.312 C70.096 43.447 68.706 46.365 67.188 49.312 C66.814 50.06 66.44 50.808 66.055 51.578 C65.769 52.15 65.482 52.723 65.188 53.312 C64.528 53.312 63.868 53.312 63.188 53.312 C62.949 53.875 62.711 54.437 62.465 55.016 C50.707 76.158 18.903 89.242 -3.445 95.69 C-16.133 99.026 -31.603 101.937 -44.094 96.512 C-48.722 93.283 -51.796 87.92 -52.938 82.438 C-53.336 76.05 -50.279 69.512 -46.812 64.312 C-48.045 64.783 -49.277 65.254 -50.547 65.738 C-68.311 72.45 -88.821 79.905 -107.758 73.293 C-110.835 71.825 -112.719 69.977 -114.812 67.312 C-115.71 66.261 -115.71 66.261 -116.625 65.188 C-118.839 59.827 -118.7 54.338 -117.074 48.797 C-112.379 38.212 -102.007 28.183 -92.812 21.312 C-92.153 21.312 -91.493 21.312 -90.812 21.312 C-90.812 20.653 -90.812 19.993 -90.812 19.312 C-88.279 17.626 -85.76 16.075 -83.125 14.562 C-82.347 14.113 -81.569 13.663 -80.767 13.2 C-58.797 0.661 -24.328 -14.597 0 0 Z " fill="#515151" transform="translate(260.8125,109.6875)"/>
<path d="M0 0 C0.521 0.538 1.042 1.075 1.578 1.629 C2.047 2.081 2.517 2.534 3 3 C4.984 2.772 6.968 2.536 8.938 2.207 C12.744 1.825 15.742 3.056 18.75 5.312 C20 7 20 7 20.676 9.512 C21.796 12.307 21.796 12.307 24.934 12.969 C26.09 13.144 27.246 13.319 28.438 13.5 C34.492 14.42 34.492 14.42 36.898 17.168 C38.222 20.571 38.298 23.171 38.188 26.812 C38.147 28.555 38.147 28.555 38.105 30.332 C38.071 31.212 38.036 32.093 38 33 C38.66 33 39.32 33 40 33 C40 33.66 40 34.32 40 35 C38.515 35.495 38.515 35.495 37 36 C36.246 37.705 35.498 39.414 34.812 41.148 C33.617 43.873 32.064 45.874 30 48 C26.999 49.1 25.096 48.993 22.066 48.082 C20.969 47.779 20.969 47.779 19.85 47.471 C18.325 47.032 16.804 46.581 15.287 46.119 C13.137 45.539 11.228 45.071 9 45 C6.194 46.785 6.194 46.785 4 49 C-0.775 49 -2.96 48.762 -6.812 45.938 C-10.838 43.49 -13.324 43.876 -17.918 44.039 C-24.734 43.953 -31.425 42.585 -37.25 39 C-41.015 32.545 -40.41 25.785 -38.812 18.688 C-37.508 14.143 -36.025 10.697 -33 7 C-32.19 5.996 -32.19 5.996 -31.363 4.973 C-22.185 -6.037 -13.005 -5.063 0 0 Z " fill="#0A0A0A" transform="translate(51,86)"/>
<path d="M0 0 C-0.99 0.33 -1.98 0.66 -3 1 C-2.34 1.33 -1.68 1.66 -1 2 C-1 2.66 -1 3.32 -1 4 C-1.66 4 -2.32 4 -3 4 C-3 4.99 -3 5.98 -3 7 C-0.69 6.34 1.62 5.68 4 5 C4 7.97 4 10.94 4 14 C5.98 13.34 7.96 12.68 10 12 C10 13.32 10 14.64 10 16 C11.98 15.34 13.96 14.68 16 14 C15.34 15.32 14.68 16.64 14 18 C12.68 18 11.36 18 10 18 C10 18.99 10 19.98 10 21 C10.66 21 11.32 21 12 21 C12 21.66 12 22.32 12 23 C11.34 23 10.68 23 10 23 C10 23.99 10 24.98 10 26 C10.66 26 11.32 26 12 26 C12 26.66 12 27.32 12 28 C11.34 28 10.68 28 10 28 C9.505 29.485 9.505 29.485 9 31 C8.34 30.67 7.68 30.34 7 30 C6.443 30.495 5.886 30.99 5.312 31.5 C2.618 33.248 1.146 33.262 -2 33 C-2.33 33.99 -2.66 34.98 -3 36 C-4.667 36 -6.333 36 -8 36 C-8.33 36.99 -8.66 37.98 -9 39 C-9 38.34 -9 37.68 -9 37 C-10.32 37.66 -11.64 38.32 -13 39 C-13 42.3 -13 45.6 -13 49 C-13.66 49 -14.32 49 -15 49 C-15.495 49.99 -15.495 49.99 -16 51 C-17.331 51.343 -18.664 51.676 -20 52 C-20.66 52.66 -21.32 53.32 -22 54 C-23.667 54 -25.333 54 -27 54 C-27 54.99 -27 55.98 -27 57 C-26.34 57 -25.68 57 -25 57 C-25 57.66 -25 58.32 -25 59 C-26.32 59 -27.64 59 -29 59 C-29.33 58.01 -29.66 57.02 -30 56 C-30.99 56 -31.98 56 -33 56 C-33.33 57.32 -33.66 58.64 -34 60 C-34.33 59.34 -34.66 58.68 -35 58 C-36.985 58.267 -36.985 58.267 -39 59 C-39.33 59.99 -39.66 60.98 -40 62 C-40.66 61.01 -41.32 60.02 -42 59 C-41.34 57.68 -40.68 56.36 -40 55 C-41.98 55.495 -41.98 55.495 -44 56 C-43.34 55.01 -42.68 54.02 -42 53 C-41.34 53 -40.68 53 -40 53 C-40 52.01 -40 51.02 -40 50 C-43.161 51.37 -43.993 51.989 -46 55 C-46.33 54.34 -46.66 53.68 -47 53 C-47.66 52.67 -48.32 52.34 -49 52 C-47.515 51.505 -47.515 51.505 -46 51 C-46.495 49.515 -46.495 49.515 -47 48 C-48.985 48.267 -48.985 48.267 -51 49 C-51.33 49.99 -51.66 50.98 -52 52 C-52 51.34 -52 50.68 -52 50 C-53.98 50.495 -53.98 50.495 -56 51 C-55.257 50.319 -55.257 50.319 -54.5 49.625 C-52.774 48.124 -52.774 48.124 -53 46 C-53.99 45.67 -54.98 45.34 -56 45 C-55.01 44.34 -54.02 43.68 -53 43 C-52.876 42.175 -52.752 41.35 -52.625 40.5 C-52.419 39.675 -52.212 38.85 -52 38 C-49.5 36.875 -49.5 36.875 -47 36 C-46.67 35.01 -46.34 34.02 -46 33 C-47.98 33.495 -47.98 33.495 -50 34 C-49.526 33.567 -49.051 33.134 -48.562 32.688 C-46.763 30.977 -46.763 30.977 -46 28 C-46.66 27.67 -47.32 27.34 -48 27 C-47.34 25.68 -46.68 24.36 -46 23 C-47.32 23.33 -48.64 23.66 -50 24 C-49.67 23.34 -49.34 22.68 -49 22 C-48.34 22 -47.68 22 -47 22 C-47.33 21.01 -47.66 20.02 -48 19 C-50.97 18.67 -53.94 18.34 -57 18 C-53.811 14.364 -50.281 12.399 -45.938 10.438 C-44.95 9.983 -44.95 9.983 -43.943 9.519 C-38.447 7.057 -32.889 5.286 -27 4 C-27.33 5.32 -27.66 6.64 -28 8 C-28 7.34 -28 6.68 -28 6 C-29.65 6.33 -31.3 6.66 -33 7 C-33 7.99 -33 8.98 -33 10 C-32.34 10 -31.68 10 -31 10 C-30.946 11.937 -30.907 13.875 -30.875 15.812 C-30.852 16.891 -30.829 17.97 -30.805 19.082 C-31 22 -31 22 -33 25 C-33.33 24.34 -33.66 23.68 -34 23 C-35.32 23.33 -36.64 23.66 -38 24 C-38 24.99 -38 25.98 -38 27 C-36.68 26.67 -35.36 26.34 -34 26 C-34 26.66 -34 27.32 -34 28 C-35.32 28.33 -36.64 28.66 -38 29 C-38 29.99 -38 30.98 -38 32 C-36.35 31.67 -34.7 31.34 -33 31 C-33 30.01 -33 29.02 -33 28 C-31.68 28.33 -30.36 28.66 -29 29 C-29 29.66 -29 30.32 -29 31 C-29.66 31 -30.32 31 -31 31 C-30.794 31.763 -30.587 32.526 -30.375 33.312 C-30 36 -30 36 -32 39 C-31.34 39 -30.68 39 -30 39 C-30 39.66 -30 40.32 -30 41 C-30.66 41 -31.32 41 -32 41 C-31.67 41.99 -31.34 42.98 -31 44 C-30.096 43.567 -29.193 43.134 -28.262 42.688 C-27.082 42.131 -25.903 41.574 -24.688 41 C-23.516 40.443 -22.344 39.886 -21.137 39.312 C-18 38 -18 38 -15 38 C-15 37.01 -15 36.02 -15 35 C-15.99 34.67 -16.98 34.34 -18 34 C-17.01 33.67 -16.02 33.34 -15 33 C-15 32.01 -15 31.02 -15 30 C-16.32 30.33 -17.64 30.66 -19 31 C-18.34 30.01 -17.68 29.02 -17 28 C-16.34 28 -15.68 28 -15 28 C-15 27.01 -15 26.02 -15 25 C-16.32 25.33 -17.64 25.66 -19 26 C-18.34 25.01 -17.68 24.02 -17 23 C-16.34 23 -15.68 23 -15 23 C-15 22.01 -15 21.02 -15 20 C-16.32 20.33 -17.64 20.66 -19 21 C-18.34 20.01 -17.68 19.02 -17 18 C-16.34 18 -15.68 18 -15 18 C-15 17.01 -15 16.02 -15 15 C-16.32 15.33 -17.64 15.66 -19 16 C-18.526 15.567 -18.051 15.134 -17.562 14.688 C-15.763 12.977 -15.763 12.977 -15 10 C-18.161 11.37 -18.993 11.989 -21 15 C-21.495 14.01 -21.495 14.01 -22 13 C-23.985 13.267 -23.985 13.267 -26 14 C-26.33 14.99 -26.66 15.98 -27 17 C-27.33 16.01 -27.66 15.02 -28 14 C-24.25 11 -24.25 11 -22 11 C-22.227 10.443 -22.454 9.886 -22.688 9.312 C-23 7 -23 7 -22.125 4.375 C-16.856 -1.514 -7.289 -0.245 0 0 Z M6 33 C6.33 33.66 6.66 34.32 7 35 C6.34 34.67 5.68 34.34 5 34 C5.33 33.67 5.66 33.34 6 33 Z " fill="#424242" transform="translate(309,132)"/>
<path d="M0 0 C0.95 -0.016 1.9 -0.032 2.879 -0.049 C8.666 -0.053 12.737 0.615 17.875 3.312 C14.875 4.312 14.875 4.312 11.875 3.312 C8.837 3.085 5.795 3.127 2.75 3.125 C1.933 3.113 1.115 3.101 0.273 3.088 C-5.269 3.075 -10.887 3.337 -16.125 5.312 C-18.007 8.249 -18.125 9.842 -18.125 13.312 C-20.125 15 -20.125 15 -22.125 16.312 C-21.499 16.024 -20.872 15.735 -20.227 15.438 C-19.409 15.066 -18.592 14.695 -17.75 14.312 C-16.938 13.941 -16.126 13.57 -15.289 13.188 C-13.125 12.312 -13.125 12.312 -11.125 12.312 C-12 16.188 -12 16.188 -13.125 17.312 C-12.465 17.312 -11.805 17.312 -11.125 17.312 C-11.125 18.303 -11.125 19.292 -11.125 20.312 C-11.785 20.972 -12.445 21.632 -13.125 22.312 C-12.465 22.312 -11.805 22.312 -11.125 22.312 C-11.125 23.303 -11.125 24.292 -11.125 25.312 C-11.785 25.972 -12.445 26.632 -13.125 27.312 C-12.465 27.312 -11.805 27.312 -11.125 27.312 C-11.125 28.303 -11.125 29.292 -11.125 30.312 C-11.785 30.972 -12.445 31.632 -13.125 32.312 C-12.465 32.312 -11.805 32.312 -11.125 32.312 C-11.125 33.303 -11.125 34.292 -11.125 35.312 C-12.115 35.808 -12.115 35.808 -13.125 36.312 C-12.465 36.642 -11.805 36.972 -11.125 37.312 C-11.125 38.303 -11.125 39.292 -11.125 40.312 C-13.021 41.105 -14.917 41.896 -16.812 42.688 C-17.868 43.128 -18.924 43.569 -20.012 44.023 C-22.709 45.14 -25.412 46.235 -28.125 47.312 C-28.125 45.993 -28.125 44.673 -28.125 43.312 C-27.465 43.312 -26.805 43.312 -26.125 43.312 C-26.125 42.653 -26.125 41.993 -26.125 41.312 C-26.785 41.312 -27.445 41.312 -28.125 41.312 C-27.795 38.673 -27.465 36.032 -27.125 33.312 C-26.465 33.312 -25.805 33.312 -25.125 33.312 C-25.125 32.653 -25.125 31.993 -25.125 31.312 C-26.445 30.983 -27.765 30.653 -29.125 30.312 C-29.125 31.303 -29.125 32.292 -29.125 33.312 C-30.775 33.642 -32.425 33.972 -34.125 34.312 C-34.125 33.322 -34.125 32.333 -34.125 31.312 C-32.805 30.983 -31.485 30.653 -30.125 30.312 C-31.445 29.983 -32.765 29.653 -34.125 29.312 C-34.125 28.322 -34.125 27.333 -34.125 26.312 C-32.145 25.653 -30.165 24.993 -28.125 24.312 C-28.137 23.614 -28.148 22.915 -28.16 22.195 C-28.169 21.285 -28.178 20.375 -28.188 19.438 C-28.199 18.533 -28.211 17.628 -28.223 16.695 C-28.125 14.312 -28.125 14.312 -27.125 12.312 C-27.785 12.312 -28.445 12.312 -29.125 12.312 C-29.125 11.322 -29.125 10.333 -29.125 9.312 C-27.918 9.127 -27.918 9.127 -26.688 8.938 C-25.842 8.731 -24.996 8.525 -24.125 8.312 C-23.795 7.653 -23.465 6.993 -23.125 6.312 C-26.297 7.528 -29.461 8.763 -32.625 10 C-33.512 10.34 -34.399 10.679 -35.312 11.029 C-40.998 13.266 -46.076 15.868 -51.125 19.312 C-50.465 19.312 -49.805 19.312 -49.125 19.312 C-49.62 20.798 -49.62 20.798 -50.125 22.312 C-52.688 23.5 -52.688 23.5 -55.125 24.312 C-55.125 25.963 -55.125 27.613 -55.125 29.312 C-56.445 29.642 -57.765 29.972 -59.125 30.312 C-58.795 28.002 -58.465 25.692 -58.125 23.312 C-61.623 24.852 -64.507 26.999 -67.539 29.289 C-69.125 30.312 -69.125 30.312 -71.125 30.312 C-71.125 30.972 -71.125 31.632 -71.125 32.312 C-72.775 32.972 -74.425 33.632 -76.125 34.312 C-76.125 34.972 -76.125 35.632 -76.125 36.312 C-78.5 38.938 -78.5 38.938 -81.125 41.312 C-81.785 41.312 -82.445 41.312 -83.125 41.312 C-83.373 41.869 -83.62 42.426 -83.875 43 C-85.125 45.312 -85.125 45.312 -86.938 47.375 C-90.123 51.653 -92.037 56.425 -94.125 61.312 C-95.397 58.769 -95.007 58.055 -94.188 55.375 C-86.643 34.107 -62.954 19.868 -43.59 10.625 C-35.952 7.242 -28.199 4.46 -20.125 2.312 C-19.466 2.134 -18.807 1.955 -18.128 1.771 C-12.057 0.254 -6.241 -0.021 0 0 Z " fill="#898989" transform="translate(305.125,129.6875)"/>
<path d="M0 0 C0.562 1.938 0.562 1.938 1 4 C0.67 4.33 0.34 4.66 0 5 C0.66 5 1.32 5 2 5 C1.722 5.866 1.722 5.866 1.438 6.75 C0.832 8.99 0.832 8.99 1.562 11.125 C1.707 11.744 1.851 12.363 2 13 C1.34 13.66 0.68 14.32 0 15 C0.66 15 1.32 15 2 15 C1.812 16.875 1.812 16.875 1 19 C0.175 19.309 -0.65 19.619 -1.5 19.938 C-2.325 20.288 -3.15 20.639 -4 21 C-5.153 24.637 -5.187 26.438 -4 30 C-4.66 30.66 -5.32 31.32 -6 32 C-5.237 31.691 -4.474 31.381 -3.688 31.062 C-1.812 30.321 0.087 29.638 2 29 C2 30.667 2 32.333 2 34 C3.98 33.34 5.96 32.68 8 32 C8 32.99 8 33.98 8 35 C7.34 35.66 6.68 36.32 6 37 C6.66 37 7.32 37 8 37 C8 42.242 8 42.242 7 45 C3.663 47.724 0.286 49 -4 49 C-4 48.01 -4 47.02 -4 46 C-3.34 46 -2.68 46 -2 46 C-2.495 43.525 -2.495 43.525 -3 41 C-2.34 41 -1.68 41 -1 41 C-1 40.34 -1 39.68 -1 39 C-3.929 39.628 -6.361 40.586 -9 42 C-8.979 41.196 -8.959 40.391 -8.938 39.562 C-8.704 37.066 -8.704 37.066 -10 36 C-10.388 36.45 -10.776 36.9 -11.176 37.363 C-13.375 39.336 -15.43 40.149 -18.188 41.188 C-19.089 41.532 -19.99 41.876 -20.918 42.23 C-21.605 42.484 -22.292 42.738 -23 43 C-22.67 43.66 -22.34 44.32 -22 45 C-22.66 45.99 -23.32 46.98 -24 48 C-25.32 48 -26.64 48 -28 48 C-29.625 49.458 -29.625 49.458 -31 51 C-31.66 51 -32.32 51 -33 51 C-32.67 49.68 -32.34 48.36 -32 47 C-31.34 47 -30.68 47 -30 47 C-30 46.34 -30 45.68 -30 45 C-30.66 45 -31.32 45 -32 45 C-32 42.69 -32 40.38 -32 38 C-30.736 37.3 -29.463 36.616 -28.188 35.938 C-27.48 35.555 -26.772 35.172 -26.043 34.777 C-24 34 -24 34 -21 35 C-20.67 32.69 -20.34 30.38 -20 28 C-19.34 28 -18.68 28 -18 28 C-18 27.34 -18 26.68 -18 26 C-18.66 26 -19.32 26 -20 26 C-20 25.01 -20 24.02 -20 23 C-19.34 23 -18.68 23 -18 23 C-18 22.34 -18 21.68 -18 21 C-18.99 20.67 -19.98 20.34 -21 20 C-21 18.02 -21 16.04 -21 14 C-17.7 12.68 -14.4 11.36 -11 10 C-11.33 11.32 -11.66 12.64 -12 14 C-11.694 15.34 -11.365 16.675 -11 18 C-11.33 18.33 -11.66 18.66 -12 19 C-11.34 19.33 -10.68 19.66 -10 20 C-9.375 22.062 -9.375 22.062 -9 24 C-9 23.216 -9 22.433 -9 21.625 C-9 19.083 -9 16.542 -9 14 C-8.34 14 -7.68 14 -7 14 C-7 13.34 -7 12.68 -7 12 C-7.66 12 -8.32 12 -9 12 C-9.33 9.36 -9.66 6.72 -10 4 C-9.093 3.711 -8.185 3.423 -7.25 3.125 C-4.678 2.235 -2.387 1.285 0 0 Z " fill="#A1A1A1" transform="translate(261,150)"/>
<path d="M0 0 C3.463 3.661 5.975 7.413 6.352 12.551 C5.943 18.18 3.936 22.436 1.188 27.312 C0.197 27.312 -0.793 27.312 -1.812 27.312 C-1.397 26.551 -1.397 26.551 -0.973 25.773 C1.983 20.157 3.905 16.088 2.25 9.688 C-0.482 5.218 -2.815 3.723 -7.812 2.312 C-23.431 -0.356 -38.178 3.088 -52.812 8.312 C-53.458 8.54 -54.103 8.767 -54.767 9 C-63.303 12.053 -70.704 15.807 -78.203 20.871 C-79.064 21.347 -79.925 21.822 -80.812 22.312 C-81.803 21.983 -82.792 21.653 -83.812 21.312 C-62.078 5.615 -37.336 -1.207 -10.812 -0.688 C-9.822 -0.688 -8.832 -0.688 -7.812 -0.688 C-31.066 -7.167 -57.465 3.724 -77.496 14.809 C-91.894 23.027 -108.161 35.54 -114.812 51.312 C-114.812 52.303 -114.812 53.292 -114.812 54.312 C-114.547 53.77 -114.281 53.227 -114.008 52.668 C-113.655 51.953 -113.301 51.237 -112.938 50.5 C-112.589 49.792 -112.241 49.085 -111.883 48.355 C-110.812 46.313 -110.812 46.313 -108.812 43.312 C-108.153 43.312 -107.493 43.312 -106.812 43.312 C-107.793 45.296 -108.786 47.265 -109.848 49.207 C-112.773 54.668 -114.535 59.241 -113.062 65.5 C-108.902 70.701 -103.077 71.918 -96.645 72.695 C-78.651 73.328 -61.243 66.973 -44.812 60.312 C-45.766 62.696 -46.346 64.038 -48.593 65.362 C-49.302 65.615 -50.012 65.868 -50.742 66.129 C-51.532 66.417 -52.322 66.705 -53.135 67.001 C-54.399 67.434 -54.399 67.434 -55.688 67.875 C-56.546 68.179 -57.404 68.482 -58.288 68.795 C-73.894 74.224 -93.988 79.864 -109.812 72.312 C-112.75 69.938 -112.75 69.938 -114.812 67.312 C-115.71 66.261 -115.71 66.261 -116.625 65.188 C-118.839 59.827 -118.7 54.338 -117.074 48.797 C-112.379 38.212 -102.007 28.183 -92.812 21.312 C-92.153 21.312 -91.493 21.312 -90.812 21.312 C-90.812 20.653 -90.812 19.993 -90.812 19.312 C-88.279 17.626 -85.76 16.075 -83.125 14.562 C-82.347 14.113 -81.569 13.663 -80.767 13.2 C-58.797 0.661 -24.328 -14.597 0 0 Z " fill="#000000" transform="translate(260.8125,109.6875)"/>
<path d="M0 0 C6.776 0.605 13.346 2.448 19.938 4.062 C21.098 4.344 22.259 4.626 23.455 4.916 C26.304 5.608 29.152 6.302 32 7 C32 7.66 32 8.32 32 9 C29.796 10.415 27.593 11.718 25.312 13 C15.312 18.809 5.87 25.455 -2 34 C-4.937 33.188 -4.937 33.188 -8 32 C-10.555 24.335 -9.034 16.317 -6 9 C-2.496 2.496 -2.496 2.496 0 0 Z " fill="#FFFFFF" transform="translate(223,133)"/>
<path d="M0 0 C1.17 0.204 2.341 0.407 3.547 0.617 C4.885 0.869 4.885 0.869 6.25 1.125 C5.59 2.445 4.93 3.765 4.25 5.125 C3.59 5.125 2.93 5.125 2.25 5.125 C1.92 6.115 1.59 7.105 1.25 8.125 C0.446 8.764 -0.359 9.404 -1.188 10.062 C-3.641 12.037 -4.767 13.175 -5.75 16.125 C-5.42 16.785 -5.09 17.445 -4.75 18.125 C-5.562 21.187 -5.562 21.187 -6.75 24.125 C-7.41 24.455 -8.07 24.785 -8.75 25.125 C-9.678 27.908 -9.885 29.624 -9.875 32.5 C-9.878 33.25 -9.88 34 -9.883 34.773 C-9.74 37.3 -9.299 39.658 -8.75 42.125 C-10.69 41.896 -12.627 41.641 -14.562 41.375 C-15.641 41.236 -16.72 41.097 -17.832 40.953 C-20.75 40.125 -20.75 40.125 -22.586 38.273 C-26.06 31.862 -24.705 24.802 -22.75 18.125 C-20.188 10.922 -15.138 4.275 -8.922 -0.188 C-5.747 -1.192 -3.252 -0.585 0 0 Z " fill="#FFFFFF" transform="translate(37.75,84.875)"/>
<path d="M0 0 C-0.33 1.32 -0.66 2.64 -1 4 C-1 3.34 -1 2.68 -1 2 C-2.65 2.33 -4.3 2.66 -6 3 C-6 3.99 -6 4.98 -6 6 C-5.34 6 -4.68 6 -4 6 C-3.946 7.937 -3.907 9.875 -3.875 11.812 C-3.852 12.891 -3.829 13.97 -3.805 15.082 C-4 18 -4 18 -6 21 C-6.33 20.34 -6.66 19.68 -7 19 C-8.32 19.33 -9.64 19.66 -11 20 C-11 20.99 -11 21.98 -11 23 C-9.68 22.67 -8.36 22.34 -7 22 C-7 22.66 -7 23.32 -7 24 C-8.32 24.33 -9.64 24.66 -11 25 C-11 25.99 -11 26.98 -11 28 C-9.35 27.67 -7.7 27.34 -6 27 C-6 26.01 -6 25.02 -6 24 C-4.68 24.33 -3.36 24.66 -2 25 C-2 25.66 -2 26.32 -2 27 C-2.66 27 -3.32 27 -4 27 C-3.794 27.763 -3.587 28.526 -3.375 29.312 C-3 32 -3 32 -5 35 C-4.34 35 -3.68 35 -3 35 C-3 35.66 -3 36.32 -3 37 C-3.66 37 -4.32 37 -5 37 C-4.67 37.99 -4.34 38.98 -4 40 C-3.113 39.691 -2.226 39.381 -1.312 39.062 C2 38 2 38 4.562 37.5 C7.206 36.958 9.525 36.061 12 35 C12 36.32 12 37.64 12 39 C11.01 39.495 11.01 39.495 10 40 C10.33 41.32 10.66 42.64 11 44 C9.546 44.697 8.087 45.382 6.625 46.062 C5.813 46.445 5.001 46.828 4.164 47.223 C3.45 47.479 2.736 47.736 2 48 C1.34 47.67 0.68 47.34 0 47 C0.66 46.01 1.32 45.02 2 44 C2.66 44 3.32 44 4 44 C4 43.34 4 42.68 4 42 C2.35 42.66 0.7 43.32 -1 44 C-1 44.66 -1 45.32 -1 46 C-1 46.99 -1 47.98 -1 49 C-2.456 49.671 -3.915 50.337 -5.375 51 C-6.187 51.371 -6.999 51.743 -7.836 52.125 C-10 53 -10 53 -12 53 C-12 52.01 -12 51.02 -12 50 C-10.02 49.505 -10.02 49.505 -8 49 C-8.99 48.67 -9.98 48.34 -11 48 C-11.125 40.25 -11.125 40.25 -10 38 C-12.31 38.99 -14.62 39.98 -17 41 C-17 39.68 -17 38.36 -17 37 C-15.703 35.954 -14.367 34.953 -13 34 C-12.67 33.01 -12.34 32.02 -12 31 C-12.66 30.67 -13.32 30.34 -14 30 C-13.34 28.68 -12.68 27.36 -12 26 C-13.32 26.33 -14.64 26.66 -16 27 C-16.66 25.68 -17.32 24.36 -18 23 C-17.34 22.01 -16.68 21.02 -16 20 C-15.01 20 -14.02 20 -13 20 C-13 19.01 -13 18.02 -13 17 C-14.65 16.67 -16.3 16.34 -18 16 C-19.339 9.672 -19.339 9.672 -17.961 6.938 C-15.252 4.261 -12.531 3.454 -8.938 2.25 C-8.3 2.03 -7.663 1.809 -7.006 1.582 C-2.343 0 -2.343 0 0 0 Z " fill="#2E2E2E" transform="translate(282,136)"/>
<path d="M0 0 C1.802 -0.021 1.802 -0.021 3.641 -0.043 C6.75 0.188 6.75 0.188 9.75 2.188 C10.158 4.9 9.883 7.431 9.75 10.188 C10.286 9.858 10.822 9.528 11.375 9.188 C13.75 8.188 13.75 8.188 19.75 8.188 C19.75 12.477 19.75 16.767 19.75 21.188 C19.09 21.517 18.43 21.847 17.75 22.188 C18.08 18.227 18.41 14.268 18.75 10.188 C17.76 10.188 16.77 10.188 15.75 10.188 C15.802 11.11 15.802 11.11 15.855 12.051 C15.883 12.859 15.91 13.667 15.938 14.5 C15.99 15.701 15.99 15.701 16.043 16.926 C15.75 19.188 15.75 19.188 12.75 22.188 C12.75 18.887 12.75 15.588 12.75 12.188 C11.843 12.27 10.935 12.352 10 12.438 C6.75 12.188 6.75 12.188 4.312 10.562 C2.75 8.188 2.75 8.188 3.152 5.039 C3.35 4.098 3.547 3.157 3.75 2.188 C-18.724 4.642 -39.707 10.821 -58.25 24.188 C-59.518 26.723 -59.43 28.734 -59.562 31.562 C-60.011 36.837 -60.011 36.837 -62 39.75 C-64.25 41.188 -64.25 41.188 -66.875 42 C-69.674 43.059 -69.674 43.059 -70.562 46.812 C-70.789 47.926 -71.016 49.04 -71.25 50.188 C-70.507 49.94 -69.765 49.692 -69 49.438 C-66.25 49.188 -66.25 49.188 -63.938 50.688 C-61.72 53.973 -62.127 56.3 -62.25 60.188 C-52.291 59.259 -43.561 56.859 -34.184 53.527 C-31.229 52.484 -28.353 51.685 -25.25 51.188 C-27.016 54.719 -31.25 55.323 -34.812 56.625 C-36.083 57.093 -36.083 57.093 -37.378 57.571 C-45.21 60.355 -53.04 61.999 -61.25 63.188 C-49.867 62.09 -39.693 60.146 -29.188 55.375 C-26.25 54.188 -26.25 54.188 -23.25 55.188 C-34.261 60.403 -46.223 65.35 -58.562 65.312 C-59.856 65.316 -59.856 65.316 -61.176 65.32 C-63.25 65.188 -63.25 65.188 -64.25 64.188 C-64.322 62.501 -64.334 60.812 -64.312 59.125 C-64.303 58.206 -64.294 57.287 -64.285 56.34 C-64.274 55.63 -64.262 54.919 -64.25 54.188 C-65.364 54.683 -65.364 54.683 -66.5 55.188 C-69.25 56.188 -69.25 56.188 -73.25 56.188 C-73.385 54.106 -73.482 52.022 -73.562 49.938 C-73.621 48.777 -73.679 47.617 -73.738 46.422 C-73.25 43.188 -73.25 43.188 -71.043 40.828 C-68.33 39.234 -66.353 38.542 -63.25 38.188 C-63.229 36.867 -63.229 36.867 -63.207 35.52 C-63.159 34.358 -63.112 33.197 -63.062 32 C-63.028 30.851 -62.993 29.703 -62.957 28.52 C-61.817 23.146 -58.3 20.792 -53.902 17.906 C-52.67 17.156 -51.432 16.417 -50.188 15.688 C-49.525 15.297 -48.862 14.906 -48.179 14.503 C-39.822 9.669 -31.107 6.372 -21.938 3.438 C-21.28 3.226 -20.622 3.015 -19.944 2.798 C-13.295 0.751 -6.937 0.038 0 0 Z " fill="#121212" transform="translate(236.25,113.8125)"/>
<path d="M0 0 C1.766 0.254 1.766 0.254 4.035 0.777 C4.844 0.961 5.653 1.145 6.486 1.334 C7.336 1.533 8.187 1.732 9.062 1.938 C10.344 2.23 10.344 2.23 11.65 2.529 C13.768 3.014 15.885 3.505 18 4 C17.386 4.838 16.773 5.676 16.141 6.539 C13.859 9.962 12.802 13.391 11.75 17.375 C11.415 18.62 11.08 19.865 10.734 21.148 C10.371 22.56 10.371 22.56 10 24 C8.35 24 6.7 24 5 24 C5.113 25.959 5.113 25.959 6 28 C8.49 29.297 8.49 29.297 11 30 C11 30.99 11 31.98 11 33 C-4.714 31.286 -4.714 31.286 -8 28 C-9.579 20.762 -9.399 13.081 -5.562 6.555 C-3.833 4.234 -2.047 2.047 0 0 Z " fill="#FFFFFF" transform="translate(62,98)"/>
<path d="M0 0 C0 4.048 -1.478 6.925 -4 10 C-6.314 11.422 -8.391 12.147 -11 13 C-10.34 13.33 -9.68 13.66 -9 14 C-9 14.99 -9 15.98 -9 17 C-9.66 17.33 -10.32 17.66 -11 18 C-10.34 18.33 -9.68 18.66 -9 19 C-9 19.99 -9 20.98 -9 22 C-10.65 22.66 -12.3 23.32 -14 24 C-14 25.65 -14 27.3 -14 29 C-15.65 29.33 -17.3 29.66 -19 30 C-18.814 29.423 -18.629 28.845 -18.438 28.25 C-17.956 25.772 -18.184 24.365 -19 22 C-19.33 21.67 -19.66 21.34 -20 21 C-20.66 21.33 -21.32 21.66 -22 22 C-21.34 22.33 -20.68 22.66 -20 23 C-20 23.99 -20 24.98 -20 26 C-21.423 26.464 -21.423 26.464 -22.875 26.938 C-25.861 27.874 -25.861 27.874 -28 29 C-25.16 29 -22.763 28.597 -20 28 C-20 29.333 -20 30.667 -20 32 C-19.968 34.03 -19.936 36.06 -19.902 38.09 C-20 40 -20 40 -21 42 C-21.07 43.54 -21.085 45.083 -21.062 46.625 C-21.053 47.442 -21.044 48.26 -21.035 49.102 C-21.024 49.728 -21.012 50.355 -21 51 C-23.97 51.495 -23.97 51.495 -27 52 C-27.33 51.34 -27.66 50.68 -28 50 C-28.66 49.67 -29.32 49.34 -30 49 C-28.515 48.505 -28.515 48.505 -27 48 C-27 47.01 -27 46.02 -27 45 C-27.99 44.67 -28.98 44.34 -30 44 C-28.515 43.505 -28.515 43.505 -27 43 C-27 42.01 -27 41.02 -27 40 C-28.98 40.495 -28.98 40.495 -31 41 C-31.33 42.32 -31.66 43.64 -32 45 C-33.98 45.495 -33.98 45.495 -36 46 C-36 44.68 -36 43.36 -36 42 C-35.01 42 -34.02 42 -33 42 C-32.711 41.237 -32.423 40.474 -32.125 39.688 C-31 37 -31 37 -29 34 C-30.98 34.495 -30.98 34.495 -33 35 C-33.495 33.515 -33.495 33.515 -34 32 C-30.704 25.408 -26.433 20.004 -21 15 C-20.34 15 -19.68 15 -19 15 C-19 14.34 -19 13.68 -19 13 C-17.35 12.34 -15.7 11.68 -14 11 C-14 10.34 -14 9.68 -14 9 C-11.694 7.371 -9.398 5.856 -7 4.375 C-6.332 3.955 -5.665 3.535 -4.977 3.102 C-3.322 2.061 -1.661 1.03 0 0 Z " fill="#7A7A7A" transform="translate(248,151)"/>
<path d="M0 0 C1.305 0.296 2.609 0.591 3.914 0.885 C5.157 1.184 6.399 1.484 7.68 1.793 C9.358 2.194 9.358 2.194 11.07 2.602 C14.738 4.055 16.632 5.777 19.125 8.812 C19.331 10.009 19.537 11.205 19.75 12.438 C20.744 16.002 20.744 16.002 23.688 16.926 C26.49 17.68 29.267 18.311 32.125 18.812 C32.125 19.142 32.125 19.472 32.125 19.812 C30.52 19.671 28.916 19.524 27.312 19.375 C26.419 19.294 25.526 19.213 24.605 19.129 C22.125 18.812 22.125 18.812 19.125 17.812 C18.785 18.957 18.785 18.957 18.438 20.125 C16.791 23.497 15.566 24.36 12.125 25.812 C5.294 26.415 -1.029 24.569 -7.625 22.938 C-8.761 22.668 -9.896 22.399 -11.066 22.121 C-19.482 20.075 -19.482 20.075 -22.875 17.812 C-22.875 17.153 -22.875 16.493 -22.875 15.812 C-23.501 15.68 -24.128 15.547 -24.773 15.41 C-25.591 15.234 -26.408 15.057 -27.25 14.875 C-28.468 14.614 -28.468 14.614 -29.711 14.348 C-31.875 13.812 -31.875 13.812 -33.875 12.812 C-34.688 9.5 -34.688 9.5 -34.875 5.812 C-33.5 3.625 -33.5 3.625 -31.875 1.812 C-31.17 -0.335 -31.17 -0.335 -30.875 -2.188 C-20.175 -4.545 -10.501 -2.577 0 0 Z M-16.875 -1.188 C-21.092 4.934 -22.222 8.519 -21.875 15.812 C-18.146 19.542 -12.21 19.846 -7.188 21 C-6.015 21.286 -4.843 21.571 -3.635 21.865 C4.74 23.844 4.74 23.844 13.125 22.812 C16.088 20.707 16.957 19.338 18.062 15.875 C18.139 12.126 17.474 10.709 15.125 7.812 C11.438 5.245 8.105 4.14 3.73 3.207 C2.528 2.946 1.326 2.685 0.088 2.416 C-1.158 2.155 -2.404 1.894 -3.688 1.625 C-4.953 1.352 -6.218 1.08 -7.521 0.799 C-10.638 0.129 -13.755 -0.533 -16.875 -1.188 Z " fill="#000000" transform="translate(128.875,116.1875)"/>
<path d="M0 0 C2.219 0.277 2.219 0.277 5.906 1.09 C5.906 4.806 5.079 5.268 2.656 7.965 C-4.161 16.482 -5.864 26.411 -5.094 37.09 C-6.557 36.692 -8.015 36.271 -9.469 35.84 C-10.281 35.608 -11.093 35.376 -11.93 35.137 C-14.094 34.09 -14.094 34.09 -15.359 32.234 C-17.68 25.457 -15.85 18.99 -13.297 12.535 C-11.728 9.346 -9.82 7.351 -7.094 5.09 C-6.331 4.141 -5.567 3.192 -4.781 2.215 C-2.094 0.09 -2.094 0.09 0 0 Z " fill="#FFFFFF" transform="translate(47.09375,90.91015625)"/>
<path d="M0 0 C0.95 -0.016 1.9 -0.032 2.879 -0.049 C8.666 -0.053 12.737 0.615 17.875 3.312 C14.875 4.312 14.875 4.312 11.875 3.312 C-9.821 1.714 -33.071 6.785 -51.125 19.312 C-50.465 19.312 -49.805 19.312 -49.125 19.312 C-49.62 20.798 -49.62 20.798 -50.125 22.312 C-52.688 23.5 -52.688 23.5 -55.125 24.312 C-55.125 25.963 -55.125 27.613 -55.125 29.312 C-56.445 29.642 -57.765 29.972 -59.125 30.312 C-58.795 28.002 -58.465 25.692 -58.125 23.312 C-61.623 24.852 -64.507 26.999 -67.539 29.289 C-69.125 30.312 -69.125 30.312 -71.125 30.312 C-71.125 30.972 -71.125 31.632 -71.125 32.312 C-72.775 32.972 -74.425 33.632 -76.125 34.312 C-76.125 34.972 -76.125 35.632 -76.125 36.312 C-78.5 38.938 -78.5 38.938 -81.125 41.312 C-81.785 41.312 -82.445 41.312 -83.125 41.312 C-83.373 41.869 -83.62 42.426 -83.875 43 C-85.125 45.312 -85.125 45.312 -86.938 47.375 C-90.123 51.653 -92.037 56.425 -94.125 61.312 C-95.397 58.769 -95.007 58.055 -94.188 55.375 C-86.643 34.107 -62.954 19.868 -43.59 10.625 C-35.952 7.242 -28.199 4.46 -20.125 2.312 C-19.466 2.134 -18.807 1.955 -18.128 1.771 C-12.057 0.254 -6.241 -0.021 0 0 Z " fill="#FFFFFF" transform="translate(305.125,129.6875)"/>
<path d="M0 0 C0 0.66 0 1.32 0 2 C-0.66 2 -1.32 2 -2 2 C-2.33 2.66 -2.66 3.32 -3 4 C-4.65 4 -6.3 4 -8 4 C-7.649 4.763 -7.299 5.526 -6.938 6.312 C-6 9 -6 9 -7 12 C-6.34 12 -5.68 12 -5 12 C-5 12.66 -5 13.32 -5 14 C-5.66 14 -6.32 14 -7 14 C-7 14.99 -7 15.98 -7 17 C-6.34 17.33 -5.68 17.66 -5 18 C-5.144 18.557 -5.289 19.114 -5.438 19.688 C-6.028 22.114 -6.523 24.549 -7 27 C-8.062 25.188 -8.062 25.188 -9 23 C-8.67 22.01 -8.34 21.02 -8 20 C-8.99 19.67 -9.98 19.34 -11 19 C-10.34 17.68 -9.68 16.36 -9 15 C-9.66 14.67 -10.32 14.34 -11 14 C-10.67 13.01 -10.34 12.02 -10 11 C-10.99 11 -11.98 11 -13 11 C-13.33 11.99 -13.66 12.98 -14 14 C-15.32 14 -16.64 14 -18 14 C-18 15.98 -18 17.96 -18 20 C-17.34 20.33 -16.68 20.66 -16 21 C-16 21.66 -16 22.32 -16 23 C-16.66 23 -17.32 23 -18 23 C-18 23.99 -18 24.98 -18 26 C-17.34 26 -16.68 26 -16 26 C-16 26.66 -16 27.32 -16 28 C-16.66 28 -17.32 28 -18 28 C-17.66 29.114 -17.66 29.114 -17.312 30.25 C-17 33 -17 33 -18.438 35.312 C-18.953 35.869 -19.469 36.426 -20 37 C-20 36.01 -20 35.02 -20 34 C-21.975 34.348 -21.975 34.348 -24 35 C-24.33 35.66 -24.66 36.32 -25 37 C-27.063 37.625 -27.063 37.625 -29 38 C-29.33 40.31 -29.66 42.62 -30 45 C-29.34 45 -28.68 45 -28 45 C-28 45.66 -28 46.32 -28 47 C-28.99 47.495 -28.99 47.495 -30 48 C-30.66 48.99 -31.32 49.98 -32 51 C-32.693 46.103 -33.284 41.851 -32 37 C-32 36.01 -32 35.02 -32 34 C-32.66 33.67 -33.32 33.34 -34 33 C-32.515 32.505 -32.515 32.505 -31 32 C-31 31.01 -31 30.02 -31 29 C-32.65 29.33 -34.3 29.66 -36 30 C-36.33 30.99 -36.66 31.98 -37 33 C-37 32.34 -37 31.68 -37 31 C-37.99 30.67 -38.98 30.34 -40 30 C-39.01 29.67 -38.02 29.34 -37 29 C-36.67 28.34 -36.34 27.68 -36 27 C-34.35 27 -32.7 27 -31 27 C-31 26.01 -31 25.02 -31 24 C-31.99 23.67 -32.98 23.34 -34 23 C-33.01 22.67 -32.02 22.34 -31 22 C-30.67 21.34 -30.34 20.68 -30 20 C-29.34 20.66 -28.68 21.32 -28 22 C-28.66 23.32 -29.32 24.64 -30 26 C-29.34 26.33 -28.68 26.66 -28 27 C-28.66 28.32 -29.32 29.64 -30 31 C-28.35 30.67 -26.7 30.34 -25 30 C-25.33 28.35 -25.66 26.7 -26 25 C-23 23 -23 23 -20 23 C-20 22.01 -20 21.02 -20 20 C-20.99 19.67 -21.98 19.34 -23 19 C-22.01 18.67 -21.02 18.34 -20 18 C-20 17.01 -20 16.02 -20 15 C-20.99 14.67 -21.98 14.34 -23 14 C-22.01 13.67 -21.02 13.34 -20 13 C-19.67 12.34 -19.34 11.68 -19 11 C-17.669 10.657 -16.336 10.324 -15 10 C-14.34 9.34 -13.68 8.68 -13 8 C-10.875 8.375 -10.875 8.375 -9 9 C-9.33 7.35 -9.66 5.7 -10 4 C-3.375 0 -3.375 0 0 0 Z " fill="#333333" transform="translate(259,150)"/>
<path d="M0 0 C0 2.97 0 5.94 0 9 C1.65 9.33 3.3 9.66 5 10 C5 10.99 5 11.98 5 13 C4.01 13.33 3.02 13.66 2 14 C1.267 16.015 1.267 16.015 1 18 C2.65 18.33 4.3 18.66 6 19 C5.814 19.577 5.629 20.155 5.438 20.75 C4.821 22.987 4.821 22.987 5.625 25.062 C5.749 25.702 5.873 26.341 6 27 C4.688 28.75 4.688 28.75 3 30 C2.34 30 1.68 30 1 30 C1.33 30.99 1.66 31.98 2 33 C2.99 33.33 3.98 33.66 5 34 C4.427 37.325 3.457 38.74 1 41 C0.34 41.99 -0.32 42.98 -1 44 C-1.33 43.34 -1.66 42.68 -2 42 C-2.66 41.67 -3.32 41.34 -4 41 C-2.515 40.505 -2.515 40.505 -1 40 C-1.495 38.515 -1.495 38.515 -2 37 C-3.985 37.267 -3.985 37.267 -6 38 C-6.33 38.99 -6.66 39.98 -7 41 C-7 40.34 -7 39.68 -7 39 C-8.98 39.495 -8.98 39.495 -11 40 C-10.257 39.319 -10.257 39.319 -9.5 38.625 C-7.774 37.124 -7.774 37.124 -8 35 C-8.99 34.67 -9.98 34.34 -11 34 C-10.01 33.34 -9.02 32.68 -8 32 C-7.814 30.762 -7.814 30.762 -7.625 29.5 C-7.419 28.675 -7.212 27.85 -7 27 C-4.5 25.875 -4.5 25.875 -2 25 C-1.67 24.01 -1.34 23.02 -1 22 C-2.32 22.33 -3.64 22.66 -5 23 C-4.526 22.567 -4.051 22.134 -3.562 21.688 C-1.763 19.977 -1.763 19.977 -1 17 C-1.66 16.67 -2.32 16.34 -3 16 C-2.34 14.68 -1.68 13.36 -1 12 C-2.32 12.33 -3.64 12.66 -5 13 C-4.67 12.34 -4.34 11.68 -4 11 C-3.34 11 -2.68 11 -2 11 C-2.33 10.01 -2.66 9.02 -3 8 C-5.97 7.67 -8.94 7.34 -12 7 C-8.838 3.473 -4.982 0 0 0 Z " fill="#676767" transform="translate(264,143)"/>
<path d="M0 0 C0.99 0.33 1.98 0.66 3 1 C2.814 1.577 2.629 2.155 2.438 2.75 C1.955 5.231 2.283 6.61 3 9 C3 9.66 3 10.32 3 11 C3.33 11.33 3.66 11.66 4 12 C5.32 10.68 6.64 9.36 8 8 C9 11.875 9 11.875 9 13 C9.99 13.66 10.98 14.32 12 15 C12.188 17.625 12.188 17.625 12 20 C12.99 20 13.98 20 15 20 C15.33 20.99 15.66 21.98 16 23 C11.05 25.475 11.05 25.475 6 28 C5.34 26.68 4.68 25.36 4 24 C2.35 24.66 0.7 25.32 -1 26 C-0.494 23.831 -0 22 1 20 C-1.31 20.99 -3.62 21.98 -6 23 C-6.33 18.71 -6.66 14.42 -7 10 C-6.34 10 -5.68 10 -5 10 C-4.34 8.02 -3.68 6.04 -3 4 C-3.66 3.67 -4.32 3.34 -5 3 C-2.688 1.438 -2.688 1.438 0 0 Z " fill="#A3A3A3" transform="translate(302,136)"/>
<path d="M0 0 C1.98 0 3.96 0 6 0 C5.01 0.33 4.02 0.66 3 1 C3.66 1.33 4.32 1.66 5 2 C5 2.66 5 3.32 5 4 C4.34 4 3.68 4 3 4 C3 4.99 3 5.98 3 7 C5.31 6.34 7.62 5.68 10 5 C10 7.97 10 10.94 10 14 C11.98 13.34 13.96 12.68 16 12 C16 13.32 16 14.64 16 16 C17.98 15.34 19.96 14.68 22 14 C21.34 15.32 20.68 16.64 20 18 C18.68 18 17.36 18 16 18 C16 18.99 16 19.98 16 21 C16.66 21 17.32 21 18 21 C18 21.66 18 22.32 18 23 C17.34 23 16.68 23 16 23 C16 23.99 16 24.98 16 26 C16.66 26 17.32 26 18 26 C18 26.66 18 27.32 18 28 C17.34 28 16.68 28 16 28 C15.67 28.99 15.34 29.98 15 31 C14.34 30.67 13.68 30.34 13 30 C12.165 30.743 12.165 30.743 11.312 31.5 C8.618 33.248 7.146 33.262 4 33 C3.67 33.99 3.34 34.98 3 36 C1.333 36 -0.333 36 -2 36 C-2.33 36.99 -2.66 37.98 -3 39 C-3 38.34 -3 37.68 -3 37 C-4.98 37.495 -4.98 37.495 -7 38 C-4.227 34.919 -1.937 33.312 2 32 C2 31.34 2 30.68 2 30 C1.34 29.67 0.68 29.34 0 29 C1.65 28.34 3.3 27.68 5 27 C5 28.32 5 29.64 5 31 C7.97 29.68 10.94 28.36 14 27 C13.67 26.34 13.34 25.68 13 25 C12.01 24.67 11.02 24.34 10 24 C10.33 22.35 10.66 20.7 11 19 C9.02 18.67 7.04 18.34 5 18 C5.33 17.34 5.66 16.68 6 16 C6.66 16 7.32 16 8 16 C7.67 15.01 7.34 14.02 7 13 C4.669 13.959 4.669 13.959 3 17 C2.01 16.01 1.02 15.02 0 14 C0.66 12.68 1.32 11.36 2 10 C1.34 9.67 0.68 9.34 0 9 C0.66 7.68 1.32 6.36 2 5 C1.34 4.67 0.68 4.34 0 4 C0 2.667 0 1.333 0 0 Z M12 33 C12.33 33.66 12.66 34.32 13 35 C12.34 34.67 11.68 34.34 11 34 C11.33 33.67 11.66 33.34 12 33 Z " fill="#222222" transform="translate(303,132)"/>
<path d="M0 0 C0 0.66 0 1.32 0 2 C-1.198 2.291 -2.395 2.583 -3.629 2.883 C-23.169 7.753 -40.692 14.889 -57 27 C-57.66 26.67 -58.32 26.34 -59 26 C-45.231 13 -45.231 13 -39 13 C-39 12.34 -39 11.68 -39 11 C-40.665 10.834 -40.665 10.834 -42.363 10.664 C-48.333 9.92 -54.055 8.242 -59.842 6.641 C-65.975 4.786 -65.975 4.786 -72 6 C-73.914 8.737 -73.914 8.737 -75.312 12.062 C-75.824 13.167 -76.336 14.272 -76.863 15.41 C-77.238 16.265 -77.614 17.119 -78 18 C-78.66 18 -79.32 18 -80 18 C-79.582 12.423 -77.386 8.345 -74 4 C-69.863 1.242 -66.663 2.151 -62 3 C-56.837 4.169 -51.732 5.549 -46.619 6.916 C-45.596 7.182 -44.573 7.448 -43.52 7.723 C-42.603 7.968 -41.686 8.213 -40.741 8.465 C-34.68 9.648 -30.363 8.634 -24.812 6.188 C-8.431 -0.684 -8.431 -0.684 0 0 Z " fill="#000000" transform="translate(294,129)"/>
<path d="M0 0 C1.32 0.33 2.64 0.66 4 1 C4 1.66 4 2.32 4 3 C3.34 3 2.68 3 2 3 C2.206 3.763 2.413 4.526 2.625 5.312 C3 8 3 8 1 11 C1.66 11 2.32 11 3 11 C3 11.66 3 12.32 3 13 C2.34 13 1.68 13 1 13 C1.33 13.99 1.66 14.98 2 16 C2.887 15.691 3.774 15.381 4.688 15.062 C8 14 8 14 10.562 13.5 C13.206 12.958 15.525 12.061 18 11 C18 12.32 18 13.64 18 15 C17.01 15.495 17.01 15.495 16 16 C16.33 17.32 16.66 18.64 17 20 C15.546 20.697 14.087 21.382 12.625 22.062 C11.813 22.445 11.001 22.828 10.164 23.223 C9.45 23.479 8.736 23.736 8 24 C7.34 23.67 6.68 23.34 6 23 C6.66 22.01 7.32 21.02 8 20 C8.66 20 9.32 20 10 20 C10 19.34 10 18.68 10 18 C8.35 18.66 6.7 19.32 5 20 C5 20.66 5 21.32 5 22 C5 22.99 5 23.98 5 25 C3.544 25.671 2.085 26.337 0.625 27 C-0.593 27.557 -0.593 27.557 -1.836 28.125 C-4 29 -4 29 -6 29 C-6 28.01 -6 27.02 -6 26 C-4.68 25.67 -3.36 25.34 -2 25 C-2.99 24.67 -3.98 24.34 -5 24 C-5.25 16.375 -5.25 16.375 -3 13 C-2.01 13 -1.02 13 0 13 C-0.33 12.01 -0.66 11.02 -1 10 C-1.99 9.67 -2.98 9.34 -4 9 C-3.01 8.34 -2.02 7.68 -1 7 C-1 6.34 -1 5.68 -1 5 C-1.99 4.67 -2.98 4.34 -4 4 C-2.68 3.67 -1.36 3.34 0 3 C0 2.01 0 1.02 0 0 Z " fill="#474747" transform="translate(276,160)"/>
<path d="M0 0 C0 0.99 0 1.98 0 3 C-0.99 3.495 -0.99 3.495 -2 4 C0.84 4 3.237 3.597 6 3 C6 4.333 6 5.667 6 7 C6.032 9.03 6.064 11.06 6.098 13.09 C6 15 6 15 5 17 C4.93 18.54 4.915 20.083 4.938 21.625 C4.951 22.851 4.951 22.851 4.965 24.102 C4.976 24.728 4.988 25.355 5 26 C3.02 26.33 1.04 26.66 -1 27 C-1.33 26.34 -1.66 25.68 -2 25 C-2.66 24.67 -3.32 24.34 -4 24 C-3.01 23.67 -2.02 23.34 -1 23 C-1 22.01 -1 21.02 -1 20 C-1.99 19.67 -2.98 19.34 -4 19 C-3.01 18.67 -2.02 18.34 -1 18 C-1 17.01 -1 16.02 -1 15 C-2.32 15.33 -3.64 15.66 -5 16 C-5.33 17.32 -5.66 18.64 -6 20 C-7.32 20.33 -8.64 20.66 -10 21 C-10 19.68 -10 18.36 -10 17 C-9.01 17 -8.02 17 -7 17 C-6.567 15.855 -6.567 15.855 -6.125 14.688 C-5 12 -5 12 -3 9 C-4.32 9.33 -5.64 9.66 -7 10 C-7.33 9.01 -7.66 8.02 -8 7 C-6.855 5.176 -6.855 5.176 -5.188 3.312 C-4.373 2.379 -4.373 2.379 -3.543 1.426 C-2 0 -2 0 0 0 Z " fill="#848484" transform="translate(222,176)"/>
<path d="M0 0 C0.66 0.33 1.32 0.66 2 1 C1.278 1.843 0.556 2.686 -0.188 3.555 C-1.125 4.661 -2.063 5.768 -3 6.875 C-3.477 7.431 -3.954 7.986 -4.445 8.559 C-7.131 11.389 -7.131 11.389 -8 15 C-6.68 13.68 -5.36 12.36 -4 11 C-4.325 12.125 -4.325 12.125 -4.656 13.273 C-7.857 24.699 -7.857 24.699 -5.625 36 C-4.006 38.062 -4.006 38.062 -2 40 C-5 42 -5 42 -7.062 41.875 C-9 41 -9 41 -10.109 39.359 C-11.275 36.271 -11.228 33.668 -11.188 30.375 C-11.181 29.228 -11.175 28.08 -11.168 26.898 C-11 24 -11 24 -10 22 C-10.66 22 -11.32 22 -12 22 C-12.027 24.042 -12.047 26.083 -12.062 28.125 C-12.074 29.262 -12.086 30.399 -12.098 31.57 C-12.005 34.813 -11.614 37.819 -11 41 C-13.864 38.703 -14.913 37.55 -15.496 33.863 C-15.258 19.425 -11.296 11.715 -2 1 C-1.34 0.67 -0.68 0.34 0 0 Z " fill="#FFFFFF" transform="translate(59,91)"/>
<path d="M0 0 C0.562 1.938 0.562 1.938 1 4 C0.67 4.33 0.34 4.66 0 5 C0.66 5 1.32 5 2 5 C1.722 5.866 1.722 5.866 1.438 6.75 C0.832 8.99 0.832 8.99 1.562 11.125 C1.707 11.744 1.851 12.363 2 13 C1.34 13.66 0.68 14.32 0 15 C0.66 15 1.32 15 2 15 C1.812 16.875 1.812 16.875 1 19 C-0.238 19.464 -0.238 19.464 -1.5 19.938 C-2.325 20.288 -3.15 20.639 -4 21 C-4.894 23.548 -4.894 23.548 -5 26 C-6.32 26.33 -7.64 26.66 -9 27 C-9 22.667 -9 18.333 -9 14 C-8.34 14 -7.68 14 -7 14 C-7 13.34 -7 12.68 -7 12 C-7.66 12 -8.32 12 -9 12 C-9.33 9.36 -9.66 6.72 -10 4 C-9.093 3.711 -8.185 3.423 -7.25 3.125 C-4.678 2.235 -2.387 1.285 0 0 Z " fill="#A5A5A5" transform="translate(261,150)"/>
<path d="M0 0 C0.66 0 1.32 0 2 0 C2.125 6.625 2.125 6.625 1 10 C1.99 9.67 2.98 9.34 4 9 C4 9.66 4 10.32 4 11 C2.68 11.33 1.36 11.66 0 12 C0 12.99 0 13.98 0 15 C0.887 14.526 1.774 14.051 2.688 13.562 C5.57 12.203 7.876 11.459 11 11 C11 10.01 11 9.02 11 8 C10.34 7.67 9.68 7.34 9 7 C12.625 4 12.625 4 16 4 C16 4.66 16 5.32 16 6 C15.01 6.99 14.02 7.98 13 9 C17.95 7.515 17.95 7.515 23 6 C23 5.01 23 4.02 23 3 C22.34 2.67 21.68 2.34 21 2 C22.65 1.34 24.3 0.68 26 0 C26 2.31 26 4.62 26 7 C25.34 7 24.68 7 24 7 C23.67 7.66 23.34 8.32 23 9 C21.669 9.343 20.336 9.676 19 10 C18.34 10.66 17.68 11.32 17 12 C15.333 12 13.667 12 12 12 C12 12.99 12 13.98 12 15 C12.66 15 13.32 15 14 15 C14 15.66 14 16.32 14 17 C12.68 17 11.36 17 10 17 C9.67 16.01 9.34 15.02 9 14 C8.01 14 7.02 14 6 14 C5.67 15.32 5.34 16.64 5 18 C4.67 17.34 4.34 16.68 4 16 C2.015 16.267 2.015 16.267 0 17 C-0.33 17.99 -0.66 18.98 -1 20 C-1.66 19.01 -2.32 18.02 -3 17 C-2.34 15.68 -1.68 14.36 -1 13 C-2.32 13.33 -3.64 13.66 -5 14 C-4.34 13.01 -3.68 12.02 -3 11 C-2.34 11 -1.68 11 -1 11 C-1 10.01 -1 9.02 -1 8 C-1.66 7.67 -2.32 7.34 -3 7 C-1.125 1.125 -1.125 1.125 0 0 Z " fill="#010101" transform="translate(270,174)"/>
<path d="M0 0 C-0.506 2.169 -1 4 -2 6 C-2.99 6 -3.98 6 -5 6 C-4.732 6.701 -4.464 7.403 -4.188 8.125 C-4 11 -4 11 -5.875 14.125 C-9.186 17.764 -13.343 18.843 -18 20 C-18 19.01 -18 18.02 -18 17 C-17.34 17 -16.68 17 -16 17 C-16.186 15.928 -16.371 14.855 -16.562 13.75 C-17.218 8.131 -17.218 8.131 -16 6 C-12.812 4.438 -12.812 4.438 -10.91 3.727 C-8.732 2.94 -8.732 2.94 -5.75 1.312 C-3 0 -3 0 0 0 Z " fill="#8E8E8E" transform="translate(312,164)"/>
<path d="M0 0 C2.5 1.562 2.5 1.562 5 4 C5.156 7.652 5.156 7.652 5 11 C14.959 10.071 23.689 7.671 33.066 4.34 C36.021 3.297 38.897 2.498 42 2 C40.234 5.532 36 6.136 32.438 7.438 C31.167 7.906 31.167 7.906 29.872 8.383 C22.04 11.168 14.21 12.811 6 14 C17.383 12.902 27.557 10.959 38.062 6.188 C41 5 41 5 44 6 C32.989 11.216 21.027 16.162 8.688 16.125 C7.394 16.129 7.394 16.129 6.074 16.133 C4 16 4 16 3 15 C2.928 13.314 2.916 11.625 2.938 9.938 C2.947 9.018 2.956 8.099 2.965 7.152 C2.976 6.442 2.988 5.732 3 5 C1.68 5.33 0.36 5.66 -1 6 C-0.67 5.01 -0.34 4.02 0 3 C0 2.01 0 1.02 0 0 Z " fill="#000000" transform="translate(169,163)"/>
<path d="M0 0 C2 3.75 2 3.75 2 6 C2.784 5.484 3.567 4.969 4.375 4.438 C5.674 3.726 5.674 3.726 7 3 C7.66 3.33 8.32 3.66 9 4 C9 4.66 9 5.32 9 6 C8.34 6 7.68 6 7 6 C7.33 7.65 7.66 9.3 8 11 C7.34 11 6.68 11 6 11 C6 11.99 6 12.98 6 14 C6.99 14.33 7.98 14.66 9 15 C6.688 16.562 6.688 16.562 4 18 C3.01 17.67 2.02 17.34 1 17 C1.99 16.67 2.98 16.34 4 16 C3.67 15.01 3.34 14.02 3 13 C2.34 12.67 1.68 12.34 1 12 C1.99 11.34 2.98 10.68 4 10 C4.33 9.01 4.66 8.02 5 7 C3.05 7.195 3.05 7.195 1 8 C-0.284 9.984 -0.284 9.984 -1 12 C-1 11.34 -1 10.68 -1 10 C-1.99 9.67 -2.98 9.34 -4 9 C-3.01 8.67 -2.02 8.34 -1 8 C-1 7.01 -1 6.02 -1 5 C-4.075 5.776 -4.075 5.776 -6 8 C-8.625 8.125 -8.625 8.125 -11 8 C-11 8.99 -11 9.98 -11 11 C-10.34 11 -9.68 11 -9 11 C-9 11.66 -9 12.32 -9 13 C-9.66 13 -10.32 13 -11 13 C-11.66 14.32 -12.32 15.64 -13 17 C-13 16.01 -13 15.02 -13 14 C-14.95 14.195 -14.95 14.195 -17 15 C-18.284 16.984 -18.284 16.984 -19 19 C-19 18.34 -19 17.68 -19 17 C-19.99 16.67 -20.98 16.34 -22 16 C-21.01 15.67 -20.02 15.34 -19 15 C-18.67 14.01 -18.34 13.02 -18 12 C-16.68 12 -15.36 12 -14 12 C-14 11.01 -14 10.02 -14 9 C-11.187 4.78 -8.213 4.888 -3.434 3.844 C-2.229 3.426 -2.229 3.426 -1 3 C-0.67 2.01 -0.34 1.02 0 0 Z M-16 18 C-15.34 18.33 -14.68 18.66 -14 19 C-14.99 19 -15.98 19 -17 19 C-16.67 18.67 -16.34 18.34 -16 18 Z " fill="#000000" transform="translate(251,185)"/>
<path d="M0 0 C0.66 0.99 1.32 1.98 2 3 C-0.31 4.32 -2.62 5.64 -5 7 C-4.67 8.32 -4.34 9.64 -4 11 C-5.65 11.33 -7.3 11.66 -9 12 C-9 11.34 -9 10.68 -9 10 C-12.161 11.37 -12.993 11.989 -15 15 C-15.33 14.34 -15.66 13.68 -16 13 C-17.985 13.267 -17.985 13.267 -20 14 C-20.33 14.99 -20.66 15.98 -21 17 C-21.33 16.01 -21.66 15.02 -22 14 C-18.25 11 -18.25 11 -16 11 C-16.34 10.165 -16.34 10.165 -16.688 9.312 C-17 7 -17 7 -16.125 4.375 C-12.411 0.224 -5.448 -0.825 0 0 Z " fill="#7B7B7B" transform="translate(303,132)"/>
<path d="M0 0 C2 1.938 2 1.938 2.312 5.625 C2.209 6.718 2.106 7.811 2 8.938 C-4.75 12.938 -4.75 12.938 -7 12.938 C-8.125 6.188 -8.125 6.188 -7 3.938 C-7.598 4.268 -8.196 4.597 -8.812 4.938 C-11 5.938 -11 5.938 -14 5.938 C-14 2.938 -14 2.938 -13 1.938 C-13.33 1.278 -13.66 0.618 -14 -0.062 C-9.123 -1.688 -4.79 -1.696 0 0 Z " fill="#868686" transform="translate(320,133.0625)"/>
<path d="M0 0 C0 0.99 0 1.98 0 3 C-0.66 3.66 -1.32 4.32 -2 5 C-1.34 5 -0.68 5 0 5 C0 10.242 0 10.242 -1 13 C-4.337 15.724 -7.714 17 -12 17 C-12 16.01 -12 15.02 -12 14 C-11.34 14 -10.68 14 -10 14 C-10.33 12.35 -10.66 10.7 -11 9 C-10.34 9 -9.68 9 -9 9 C-9 8.34 -9 7.68 -9 7 C-9.66 7 -10.32 7 -11 7 C-11 6.01 -11 5.02 -11 4 C-9.544 3.329 -8.085 2.663 -6.625 2 C-5.813 1.629 -5.001 1.257 -4.164 0.875 C-2 0 -2 0 0 0 Z " fill="#BABABA" transform="translate(269,182)"/>
<path d="M0 0 C-1 3 -1 3 -2.535 4.348 C-4.588 6.664 -4.367 8.387 -4.438 11.438 C-4.791 16.694 -4.791 16.694 -6.75 19.562 C-9 21 -9 21 -11.625 21.812 C-14.424 22.871 -14.424 22.871 -15.312 26.625 C-15.653 28.296 -15.653 28.296 -16 30 C-14.68 30.33 -13.36 30.66 -12 31 C-12 31.99 -12 32.98 -12 34 C-12.66 34.66 -13.32 35.32 -14 36 C-15.32 36 -16.64 36 -18 36 C-18.135 33.918 -18.232 31.834 -18.312 29.75 C-18.371 28.59 -18.429 27.43 -18.488 26.234 C-18 23 -18 23 -15.793 20.641 C-13.08 19.047 -11.103 18.355 -8 18 C-7.979 16.679 -7.979 16.679 -7.957 15.332 C-7.519 4.661 -7.519 4.661 -4.562 1.688 C-2 0 -2 0 0 0 Z " fill="#121212" transform="translate(181,134)"/>
<path d="M0 0 C1.98 0 3.96 0 6 0 C5.01 0.33 4.02 0.66 3 1 C3.66 1.33 4.32 1.66 5 2 C5 2.66 5 3.32 5 4 C4.34 4 3.68 4 3 4 C3 4.99 3 5.98 3 7 C5.31 6.34 7.62 5.68 10 5 C10 7.97 10 10.94 10 14 C11.32 14.33 12.64 14.66 14 15 C14 15.99 14 16.98 14 18 C11.085 18.81 9.539 19.218 6.688 18.062 C5.852 17.537 5.852 17.537 5 17 C5.99 16.67 6.98 16.34 8 16 C7.67 15.01 7.34 14.02 7 13 C4.669 13.959 4.669 13.959 3 17 C2.01 16.01 1.02 15.02 0 14 C0.66 12.68 1.32 11.36 2 10 C1.34 9.67 0.68 9.34 0 9 C0.66 7.68 1.32 6.36 2 5 C1.34 4.67 0.68 4.34 0 4 C0 2.667 0 1.333 0 0 Z " fill="#393939" transform="translate(303,132)"/>
<path d="M0 0 C-0.205 0.592 -0.41 1.183 -0.621 1.793 C-2 5.837 -3.318 9.769 -4 14 C-6.64 13.67 -9.28 13.34 -12 13 C-12.688 10.188 -12.688 10.188 -13 7 C-11.625 5.312 -11.625 5.312 -10 4 C-9.67 3.01 -9.34 2.02 -9 1 C-6.034 -0.165 -3.154 -0.088 0 0 Z " fill="#EAEAEA" transform="translate(109,115)"/>
<path d="M0 0 C-0.875 3.875 -0.875 3.875 -2 5 C-1.34 5 -0.68 5 0 5 C0 5.99 0 6.98 0 8 C-0.66 8.66 -1.32 9.32 -2 10 C-1.34 10 -0.68 10 0 10 C0 10.99 0 11.98 0 13 C-3.3 14.32 -6.6 15.64 -10 17 C-9.67 15.68 -9.34 14.36 -9 13 C-8.34 13 -7.68 13 -7 13 C-7 12.34 -7 11.68 -7 11 C-7.99 11.33 -8.98 11.66 -10 12 C-9.67 10.35 -9.34 8.7 -9 7 C-9.66 7 -10.32 7 -11 7 C-11 6.01 -11 5.02 -11 4 C-9.544 3.329 -8.085 2.663 -6.625 2 C-5.813 1.629 -5.001 1.257 -4.164 0.875 C-2 0 -2 0 0 0 Z " fill="#C4C4C4" transform="translate(294,142)"/>
<path d="M0 0 C1.32 0 2.64 0 4 0 C3.736 5.287 3.736 5.287 3 8 C0.5 10.25 0.5 10.25 -2 12 C-2.87 14.129 -2.87 14.129 -3 16 C-4.32 16.33 -5.64 16.66 -7 17 C-7.125 9.25 -7.125 9.25 -6 7 C-6.66 7 -7.32 7 -8 7 C-8 6.01 -8 5.02 -8 4 C-7.237 3.897 -6.474 3.794 -5.688 3.688 C-2.97 3.236 -2.97 3.236 -1.438 1.438 C-0.963 0.963 -0.489 0.489 0 0 Z " fill="#ADADAD" transform="translate(284,135)"/>
<path d="M0 0 C0 0.66 0 1.32 0 2 C-0.66 2 -1.32 2 -2 2 C-2.33 2.66 -2.66 3.32 -3 4 C-4.65 4 -6.3 4 -8 4 C-7.649 4.763 -7.299 5.526 -6.938 6.312 C-6 9 -6 9 -7 12 C-6.34 12 -5.68 12 -5 12 C-5 12.66 -5 13.32 -5 14 C-5.66 14 -6.32 14 -7 14 C-7 14.99 -7 15.98 -7 17 C-6.34 17.33 -5.68 17.66 -5 18 C-5.144 18.557 -5.289 19.114 -5.438 19.688 C-6.028 22.114 -6.523 24.549 -7 27 C-8.062 25.188 -8.062 25.188 -9 23 C-8.67 22.01 -8.34 21.02 -8 20 C-8.99 19.67 -9.98 19.34 -11 19 C-10.34 17.68 -9.68 16.36 -9 15 C-9.66 14.67 -10.32 14.34 -11 14 C-10.67 13.01 -10.34 12.02 -10 11 C-10.99 11 -11.98 11 -13 11 C-13.33 11.99 -13.66 12.98 -14 14 C-15.32 14 -16.64 14 -18 14 C-18.99 15.485 -18.99 15.485 -20 17 C-20 16.34 -20 15.68 -20 15 C-20.99 14.67 -21.98 14.34 -23 14 C-22.01 13.67 -21.02 13.34 -20 13 C-19.67 12.34 -19.34 11.68 -19 11 C-17.669 10.657 -16.336 10.324 -15 10 C-14.34 9.34 -13.68 8.68 -13 8 C-10.875 8.375 -10.875 8.375 -9 9 C-9.33 7.35 -9.66 5.7 -10 4 C-3.375 0 -3.375 0 0 0 Z " fill="#000000" transform="translate(259,150)"/>
<path d="M0 0 C0 1.65 0 3.3 0 5 C0.99 5 1.98 5 3 5 C3.33 5.99 3.66 6.98 4 8 C-0.95 10.475 -0.95 10.475 -6 13 C-6.66 11.68 -7.32 10.36 -8 9 C-9.65 9.66 -11.3 10.32 -13 11 C-12.452 7.166 -10.938 5.461 -8 3 C-2.643 0 -2.643 0 0 0 Z " fill="#989898" transform="translate(314,151)"/>
<path d="M0 0 C0 1.32 0 2.64 0 4 C0.33 4.33 0.66 4.66 1 5 C1 6.875 1 6.875 0 9 C-3.496 10.813 -6.04 12 -10 12 C-11.343 5.652 -11.343 5.652 -9.75 2.625 C-6.738 -0.172 -3.919 -0.106 0 0 Z " fill="#8D8D8D" transform="translate(274,140)"/>
<path d="M0 0 C0.66 0 1.32 0 2 0 C2 2.31 2 4.62 2 7 C3.32 7 4.64 7 6 7 C6.33 7.66 6.66 8.32 7 9 C7.66 8.67 8.32 8.34 9 8 C8.34 7.67 7.68 7.34 7 7 C7 6.34 7 5.68 7 5 C7.66 5 8.32 5 9 5 C9 4.34 9 3.68 9 3 C7.02 3.99 7.02 3.99 5 5 C4.67 4.34 4.34 3.68 4 3 C4.66 2.01 5.32 1.02 6 0 C7.65 0.33 9.3 0.66 11 1 C12.337 8.415 12.337 8.415 10.812 11.062 C9 12 9 12 7 11.812 C5 11 5 11 2 9 C2 9.66 2 10.32 2 11 C1.34 11 0.68 11 0 11 C0 10.34 0 9.68 0 9 C-1.32 9 -2.64 9 -4 9 C-3.355 5.517 -2.018 2.906 0 0 Z " fill="#020202" transform="translate(320,269)"/>
<path d="M0 0 C0 2.97 0 5.94 0 9 C1.65 9.33 3.3 9.66 5 10 C5 10.99 5 11.98 5 13 C4.01 13.33 3.02 13.66 2 14 C0.315 15.997 0.315 15.997 -1 18 C-1.66 17.34 -2.32 16.68 -3 16 C-2.34 14.68 -1.68 13.36 -1 12 C-2.32 12.33 -3.64 12.66 -5 13 C-4.67 12.34 -4.34 11.68 -4 11 C-3.34 11 -2.68 11 -2 11 C-2.33 10.01 -2.66 9.02 -3 8 C-5.97 7.67 -8.94 7.34 -12 7 C-8.838 3.473 -4.982 0 0 0 Z " fill="#464646" transform="translate(264,143)"/>
<path d="M0 0 C2.31 0.66 4.62 1.32 7 2 C7 3.32 7 4.64 7 6 C5.35 6 3.7 6 2 6 C3.65 6.33 5.3 6.66 7 7 C6.435 8.32 5.847 9.631 5.25 10.938 C4.763 12.034 4.763 12.034 4.266 13.152 C3 15 3 15 0.859 15.754 C-0.061 15.876 -0.061 15.876 -1 16 C-3.118 11.833 -3.01 9.609 -1.625 5.188 C-1.329 4.212 -1.032 3.236 -0.727 2.23 C-0.367 1.126 -0.367 1.126 0 0 Z " fill="#FFFFFF" transform="translate(78,112)"/>
<path d="M0 0 C0 0.66 0 1.32 0 2 C-0.981 2.34 -1.962 2.681 -2.973 3.031 C-11.098 5.925 -18.712 9.181 -26.213 13.459 C-30.715 16 -30.715 16 -34 16 C-29.649 12.11 -25.37 9.403 -20.125 6.875 C-19.456 6.541 -18.787 6.207 -18.098 5.863 C-6.164 0 -6.164 0 0 0 Z " fill="#000000" transform="translate(215,118)"/>
<path d="M0 0 C0 0.66 0 1.32 0 2 C0.66 2 1.32 2 2 2 C1.67 3.65 1.34 5.3 1 7 C1.66 7 2.32 7 3 7 C3 7.66 3 8.32 3 9 C2.01 9 1.02 9 0 9 C-0.062 9.619 -0.124 10.238 -0.188 10.875 C-1 13 -1 13 -3.562 14.25 C-4.367 14.498 -5.171 14.745 -6 15 C-6 14.01 -6 13.02 -6 12 C-5.34 12 -4.68 12 -4 12 C-4.186 10.928 -4.371 9.855 -4.562 8.75 C-5.15 3.717 -5.15 3.717 -4 1 C-2 0 -2 0 0 0 Z " fill="#8E8E8E" transform="translate(300,169)"/>
<path d="M0 0 C-1.438 3.17 -3.225 5.634 -5.438 8.312 C-10.394 14.619 -12.3 20.016 -13 28 C-13.99 28 -14.98 28 -16 28 C-15.168 20.547 -10.358 0 0 0 Z " fill="#000000" transform="translate(27,85)"/>
<path d="M0 0 C0.33 1.32 0.66 2.64 1 4 C0.01 4.495 0.01 4.495 -1 5 C-0.67 6.32 -0.34 7.64 0 9 C-1.454 9.697 -2.913 10.382 -4.375 11.062 C-5.187 11.445 -5.999 11.828 -6.836 12.223 C-7.55 12.479 -8.264 12.736 -9 13 C-9.66 12.67 -10.32 12.34 -11 12 C-10.34 11.01 -9.68 10.02 -9 9 C-8.34 9 -7.68 9 -7 9 C-7 8.34 -7 7.68 -7 7 C-7.99 7.33 -8.98 7.66 -10 8 C-9.938 6.188 -9.938 6.188 -9 4 C-5.562 2.312 -5.562 2.312 -2 1 C-1.34 0.67 -0.68 0.34 0 0 Z " fill="#BFBFBF" transform="translate(293,171)"/>
<path d="M0 0 C-0.99 1.485 -0.99 1.485 -2 3 C-1.692 5.153 -1.692 5.153 -1 7 C-2.456 7.671 -3.915 8.337 -5.375 9 C-6.593 9.557 -6.593 9.557 -7.836 10.125 C-10 11 -10 11 -12 11 C-12 10.01 -12 9.02 -12 8 C-10.68 7.67 -9.36 7.34 -8 7 C-8.99 6.67 -9.98 6.34 -11 6 C-10.938 4.188 -10.938 4.188 -10 2 C-3.872 -1.291 -3.872 -1.291 0 0 Z " fill="#C7C7C7" transform="translate(282,178)"/>
<path d="M0 0 C3.875 1.875 3.875 1.875 5 3 C4.812 6.438 4.812 6.438 4 10 C2.062 11.5 2.062 11.5 0 12 C-0.66 11.67 -1.32 11.34 -2 11 C-2.595 8.161 -3.069 5.856 -3 3 C-1.562 1 -1.562 1 0 0 Z " fill="#303030" transform="translate(303,269)"/>
<path d="M0 0 C1.887 0.031 1.887 0.031 3.812 0.062 C4.142 1.053 4.473 2.042 4.812 3.062 C4.152 3.722 3.493 4.382 2.812 5.062 C2.668 5.743 2.524 6.424 2.375 7.125 C2.189 7.764 2.004 8.404 1.812 9.062 C0.822 9.393 -0.168 9.722 -1.188 10.062 C-0.858 8.412 -0.527 6.762 -0.188 5.062 C-0.786 5.393 -1.384 5.722 -2 6.062 C-4.188 7.062 -4.188 7.062 -7.188 7.062 C-7.188 4.062 -7.188 4.062 -6.188 3.062 C-6.517 2.403 -6.848 1.743 -7.188 1.062 C-4.437 0.146 -2.828 -0.046 0 0 Z " fill="#939393" transform="translate(313.1875,131.9375)"/>
<path d="M0 0 C-0.33 1.32 -0.66 2.64 -1 4 C-1 3.34 -1 2.68 -1 2 C-2.65 2.33 -4.3 2.66 -6 3 C-6 3.99 -6 4.98 -6 6 C-5.34 6 -4.68 6 -4 6 C-3.946 7.937 -3.907 9.875 -3.875 11.812 C-3.852 12.891 -3.829 13.97 -3.805 15.082 C-4 18 -4 18 -6 21 C-6.934 17.99 -7.044 17.133 -6 14 C-7.65 14.33 -9.3 14.66 -11 15 C-10.505 14.546 -10.01 14.093 -9.5 13.625 C-7.774 12.124 -7.774 12.124 -8 10 C-8.66 9.67 -9.32 9.34 -10 9 C-9.34 7.68 -8.68 6.36 -8 5 C-8.99 4.67 -9.98 4.34 -11 4 C-9.544 3.329 -8.085 2.663 -6.625 2 C-5.813 1.629 -5.001 1.257 -4.164 0.875 C-2 0 -2 0 0 0 Z " fill="#000000" transform="translate(282,136)"/>
<path d="M0 0 C0 4.098 -1.573 6.752 -4 10 C-6.062 11.125 -6.062 11.125 -8 11 C-9.621 9.492 -9.621 9.492 -11 8 C-9.921 7.036 -8.837 6.079 -7.75 5.125 C-6.845 4.324 -6.845 4.324 -5.922 3.508 C-4.026 2.02 -2.187 0.997 0 0 Z " fill="#505050" transform="translate(248,151)"/>
<path d="M0 0 C2.625 1.25 2.625 1.25 5 3 C5 3.99 5 4.98 5 6 C3.563 6.169 2.125 6.335 0.688 6.5 C-0.113 6.593 -0.914 6.686 -1.738 6.781 C-4 7 -4 7 -7 7 C-2.25 1.125 -2.25 1.125 0 0 Z " fill="#FFFFFF" transform="translate(64,91)"/>
<path d="M0 0 C1 2 1 2 0.062 4.875 C-1.599 10.128 -1.161 15.553 -1 21 C-1.99 20.67 -2.98 20.34 -4 20 C-4.109 17.603 -4.188 15.211 -4.25 12.812 C-4.284 12.139 -4.317 11.465 -4.352 10.771 C-4.425 7.006 -4.114 5.169 -1.984 2.012 C-1.33 1.348 -0.675 0.684 0 0 Z " fill="#4B4B4B" transform="translate(33,103)"/>
<path d="M0 0 C2.97 0 5.94 0 9 0 C9 0.99 9 1.98 9 3 C8.01 3 7.02 3 6 3 C6 5.64 6 8.28 6 11 C5.34 11 4.68 11 4 11 C4 8.36 4 5.72 4 3 C2.68 2.67 1.36 2.34 0 2 C0 1.34 0 0.68 0 0 Z " fill="#000000" transform="translate(287,269)"/>
<path d="M0 0 C-0.66 1.98 -1.32 3.96 -2 6 C-5.736 6.764 -8.348 7.072 -12 6 C-10.378 4.995 -8.753 3.996 -7.125 3 C-5.768 2.165 -5.768 2.165 -4.383 1.312 C-2 0 -2 0 0 0 Z " fill="#555555" transform="translate(264,143)"/>
<path d="M0 0 C0 0.99 0 1.98 0 3 C-0.99 3.495 -0.99 3.495 -2 4 C-1.34 4.33 -0.68 4.66 0 5 C0 5.99 0 6.98 0 8 C-2.31 8.66 -4.62 9.32 -7 10 C-7.33 9.01 -7.66 8.02 -8 7 C-6.855 5.176 -6.855 5.176 -5.188 3.312 C-4.373 2.379 -4.373 2.379 -3.543 1.426 C-2 0 -2 0 0 0 Z " fill="#9B9B9B" transform="translate(222,176)"/>
<path d="M0 0 C1.32 0.33 2.64 0.66 4 1 C4 1.66 4 2.32 4 3 C3.34 3 2.68 3 2 3 C2.227 3.763 2.454 4.526 2.688 5.312 C2.791 6.199 2.894 7.086 3 8 C1.562 9.812 1.562 9.812 0 11 C-1.32 10.34 -2.64 9.68 -4 9 C-3.01 8.34 -2.02 7.68 -1 7 C-1 6.34 -1 5.68 -1 5 C-1.99 4.67 -2.98 4.34 -4 4 C-2.68 3.67 -1.36 3.34 0 3 C0 2.01 0 1.02 0 0 Z " fill="#000000" transform="translate(276,160)"/>
<path d="M0 0 C0.66 0.33 1.32 0.66 2 1 C2.625 3.562 2.625 3.562 3 6 C2.34 6 1.68 6 1 6 C0.67 6.99 0.34 7.98 0 9 C-1.667 9 -3.333 9 -5 9 C-5.33 9.99 -5.66 10.98 -6 12 C-6 11.34 -6 10.68 -6 10 C-7.32 10.33 -8.64 10.66 -10 11 C-7.227 7.919 -4.937 6.312 -1 5 C-1 4.34 -1 3.68 -1 3 C-1.66 2.67 -2.32 2.34 -3 2 C-2.01 1.34 -1.02 0.68 0 0 Z " fill="#000000" transform="translate(306,159)"/>
<path d="M0 0 C0.66 0 1.32 0 2 0 C2 1.32 2 2.64 2 4 C3.32 4.33 4.64 4.66 6 5 C6 5.99 6 6.98 6 8 C3.085 8.81 1.539 9.218 -1.312 8.062 C-1.869 7.712 -2.426 7.361 -3 7 C-2.01 6.67 -1.02 6.34 0 6 C-0.278 4.793 -0.278 4.793 -0.562 3.562 C-0.707 2.717 -0.851 1.871 -1 1 C-0.67 0.67 -0.34 0.34 0 0 Z " fill="#525252" transform="translate(311,142)"/>
<path d="M0 0 C-0.391 6.055 -0.391 6.055 -1 8 C-2.98 8.99 -2.98 8.99 -5 10 C-5.33 7.03 -5.66 4.06 -6 1 C-4 0 -4 0 0 0 Z " fill="#999999" transform="translate(288,135)"/>
<path d="M0 0 C1.65 0 3.3 0 5 0 C4.67 0.99 4.34 1.98 4 3 C1.438 4.188 1.438 4.188 -1 5 C-1 6.65 -1 8.3 -1 10 C-2.32 10.33 -3.64 10.66 -5 11 C-4.67 8.69 -4.34 6.38 -4 4 C-3.34 4 -2.68 4 -2 4 C-1.34 2.68 -0.68 1.36 0 0 Z " fill="#B7B7B7" transform="translate(251,149)"/>
<path d="M0 0 C0.99 0.33 1.98 0.66 3 1 C2.385 1.654 2.385 1.654 1.758 2.32 C-1.611 6.044 -3.782 9.008 -5 14 C-5.66 14 -6.32 14 -7 14 C-6.534 9.246 -5.873 5.867 -3 2 C-2.01 1.34 -1.02 0.68 0 0 Z " fill="#000000" transform="translate(60,97)"/>
<path d="M0 0 C0 3.562 -0.702 4.229 -2.875 6.938 C-4.945 9.533 -6.608 11.98 -8 15 C-8.66 15 -9.32 15 -10 15 C-9.478 10.899 -8.365 8.825 -5.562 5.812 C-4.945 5.138 -4.328 4.464 -3.691 3.77 C-2.476 2.498 -1.244 1.244 0 0 Z " fill="#000000" transform="translate(54,94)"/>
<path d="M0 0 C0.66 0.33 1.32 0.66 2 1 C2 4.3 2 7.6 2 11 C1.01 11 0.02 11 -1 11 C-1 8.69 -1 6.38 -1 4 C-1.66 3.67 -2.32 3.34 -3 3 C-2.01 2.67 -1.02 2.34 0 2 C0 1.34 0 0.68 0 0 Z " fill="#000000" transform="translate(312,269)"/>
<path d="M0 0 C1.642 3.283 0.519 6.425 0 10 C-0.66 9.34 -1.32 8.68 -2 8 C-4.093 8.086 -4.093 8.086 -6 9 C-6.33 9.99 -6.66 10.98 -7 12 C-7.33 11.01 -7.66 10.02 -8 9 C-4.25 6 -4.25 6 -2 6 C-2.33 4.68 -2.66 3.36 -3 2 C-2.01 1.34 -1.02 0.68 0 0 Z " fill="#000000" transform="translate(289,137)"/>
<path d="M0 0 C0.66 0.33 1.32 0.66 2 1 C1.67 1.99 1.34 2.98 1 4 C1.66 4 2.32 4 3 4 C3 4.66 3 5.32 3 6 C2.01 6.495 2.01 6.495 1 7 C0.34 7.99 -0.32 8.98 -1 10 C-2.467 6.185 -1.433 3.71 0 0 Z " fill="#000000" transform="translate(228,191)"/>
<path d="M0 0 C1.675 0.286 3.344 0.618 5 1 C4.34 2.65 3.68 4.3 3 6 C2.67 5.34 2.34 4.68 2 4 C0.68 4.33 -0.64 4.66 -2 5 C-1.125 1.125 -1.125 1.125 0 0 Z " fill="#000000" transform="translate(214,184)"/>
<path d="M0 0 C0 0.66 0 1.32 0 2 C-0.66 2 -1.32 2 -2 2 C-2.33 3.32 -2.66 4.64 -3 6 C-3.33 5.34 -3.66 4.68 -4 4 C-4.99 3.67 -5.98 3.34 -7 3 C-3.375 0 -3.375 0 0 0 Z M-6 7 C-5.34 7.33 -4.68 7.66 -4 8 C-4.99 8 -5.98 8 -7 8 C-6.67 7.67 -6.34 7.34 -6 7 Z " fill="#000000" transform="translate(260,174)"/>
<path d="M0 0 C0.763 0.351 1.526 0.701 2.312 1.062 C5.048 2.324 5.048 2.324 8 1 C7.34 2.32 6.68 3.64 6 5 C4.35 4.67 2.7 4.34 1 4 C0.67 2.68 0.34 1.36 0 0 Z " fill="#FFFFFF" transform="translate(74,127)"/>
<path d="M0 0 C0 0.66 0 1.32 0 2 C-1.626 3.382 -3.293 4.719 -5 6 C-5 5.34 -5 4.68 -5 4 C-5.66 3.67 -6.32 3.34 -7 3 C-4.5 -0.001 -4.262 0 0 0 Z " fill="#000000" transform="translate(286,178)"/>
<path d="M0 0 C1.98 0 3.96 0 6 0 C5.01 0.33 4.02 0.66 3 1 C3.66 1.33 4.32 1.66 5 2 C5 2.66 5 3.32 5 4 C4.34 4 3.68 4 3 4 C2.67 4.99 2.34 5.98 2 7 C2 6.34 2 5.68 2 5 C1.34 4.67 0.68 4.34 0 4 C0 2.667 0 1.333 0 0 Z " fill="#000000" transform="translate(303,132)"/>
<path d="M0 0 C0.33 1.32 0.66 2.64 1 4 C-0.65 4.66 -2.3 5.32 -4 6 C-4 4.68 -4 3.36 -4 2 C-2.68 1.34 -1.36 0.68 0 0 Z " fill="#FFFFFF" transform="translate(293,171)"/>
<path d="M0 0 C0.66 0.99 1.32 1.98 2 3 C0.35 3.66 -1.3 4.32 -3 5 C-3 3.68 -3 2.36 -3 1 C-2.01 0.67 -1.02 0.34 0 0 Z " fill="#FFFFFF" transform="translate(268,157)"/>
<path d="M0 0 C0.33 0.99 0.66 1.98 1 3 C-0.98 3.66 -2.96 4.32 -5 5 C-4.625 3.062 -4.625 3.062 -4 1 C-2 0 -2 0 0 0 Z " fill="#FFFFFF" transform="translate(268,143)"/>
<path d="M0 0 C0.33 1.32 0.66 2.64 1 4 C-0.65 4.33 -2.3 4.66 -4 5 C-3.688 3.062 -3.688 3.062 -3 1 C-2.01 0.67 -1.02 0.34 0 0 Z " fill="#FFFFFF" transform="translate(226,198)"/>
<path d="M0 0 C0.33 1.32 0.66 2.64 1 4 C-0.65 4.33 -2.3 4.66 -4 5 C-4 4.01 -4 3.02 -4 2 C-2.68 1.34 -1.36 0.68 0 0 Z " fill="#FFFFFF" transform="translate(244,186)"/>
<path d="M0 0 C0.33 1.32 0.66 2.64 1 4 C-0.65 4.33 -2.3 4.66 -4 5 C-3.688 3.062 -3.688 3.062 -3 1 C-2.01 0.67 -1.02 0.34 0 0 Z " fill="#FFFFFF" transform="translate(233,176)"/>
<path d="M0 0 C0 0.99 0 1.98 0 3 C-1.65 3.66 -3.3 4.32 -5 5 C-5 3.68 -5 2.36 -5 1 C-3 0 -3 0 0 0 Z " fill="#FFFFFF" transform="translate(282,172)"/>
<path d="M0 0 C0 0.99 0 1.98 0 3 C-1.65 3.66 -3.3 4.32 -5 5 C-5 3.68 -5 2.36 -5 1 C-3 0 -3 0 0 0 Z " fill="#FFFFFF" transform="translate(270,172)"/>
<path d="M0 0 C-0.33 1.32 -0.66 2.64 -1 4 C-2.32 4.33 -3.64 4.66 -5 5 C-4.625 3.062 -4.625 3.062 -4 1 C-2 0 -2 0 0 0 Z " fill="#FFFFFF" transform="translate(257,172)"/>
<path d="M0 0 C0 0.66 0 1.32 0 2 C-0.66 2 -1.32 2 -2 2 C-2.33 2.99 -2.66 3.98 -3 5 C-3 4.34 -3 3.68 -3 3 C-4.32 3.33 -5.64 3.66 -7 4 C-3.375 0 -3.375 0 0 0 Z " fill="#000000" transform="translate(291,171)"/>
<path d="M0 0 C0.33 1.32 0.66 2.64 1 4 C-0.65 4.33 -2.3 4.66 -4 5 C-3.688 3.062 -3.688 3.062 -3 1 C-2.01 0.67 -1.02 0.34 0 0 Z " fill="#FFFFFF" transform="translate(275,169)"/>
<path d="M0 0 C-0.33 1.32 -0.66 2.64 -1 4 C-2.32 4.33 -3.64 4.66 -5 5 C-5 3.68 -5 2.36 -5 1 C-2 0 -2 0 0 0 Z " fill="#FFFFFF" transform="translate(263,165)"/>
<path d="M0 0 C0 0.99 0 1.98 0 3 C-1.65 3.66 -3.3 4.32 -5 5 C-5 3.68 -5 2.36 -5 1 C-3 0 -3 0 0 0 Z " fill="#FFFFFF" transform="translate(312,164)"/>
<path d="M0 0 C-0.33 1.32 -0.66 2.64 -1 4 C-2.32 4.33 -3.64 4.66 -5 5 C-5 3.68 -5 2.36 -5 1 C-2 0 -2 0 0 0 Z " fill="#FFFFFF" transform="translate(263,160)"/>
<path d="M0 0 C0.33 1.32 0.66 2.64 1 4 C-0.65 4.33 -2.3 4.66 -4 5 C-4 4.01 -4 3.02 -4 2 C-2.68 1.34 -1.36 0.68 0 0 Z " fill="#FFFFFF" transform="translate(275,154)"/>
<path d="M0 0 C0 0.99 0 1.98 0 3 C-1.65 3.66 -3.3 4.32 -5 5 C-5 3.68 -5 2.36 -5 1 C-3 0 -3 0 0 0 Z " fill="#FFFFFF" transform="translate(276,150)"/>
<path d="M0 0 C0.33 1.32 0.66 2.64 1 4 C-0.65 4.33 -2.3 4.66 -4 5 C-4 4.01 -4 3.02 -4 2 C-2.68 1.34 -1.36 0.68 0 0 Z " fill="#FFFFFF" transform="translate(287,144)"/>
<path d="M0 0 C2.188 0.312 2.188 0.312 4 1 C3.67 1.99 3.34 2.98 3 4 C0.03 3.505 0.03 3.505 -3 3 C-1.75 1.438 -1.75 1.438 0 0 Z " fill="#FFFFFF" transform="translate(82,103)"/>
</svg>
