<?xml version="1.0" encoding="UTF-8"?>
<!-- Generator: visioncortex VTracer 0.6.4 -->
<svg version="1.1" xmlns="http://www.w3.org/2000/svg" width="381" height="329">
<path d="M0 0 C125.73 0 251.46 0 381 0 C381 108.57 381 217.14 381 329 C255.27 329 129.54 329 0 329 C0 220.43 0 111.86 0 0 Z " fill="#FEFEFE" transform="translate(0,0)"/>
<path d="M0 0 C0.99 0 1.98 0 3 0 C3 6.27 3 12.54 3 19 C5.97 19 8.94 19 12 19 C12.66 12.73 13.32 6.46 14 0 C14.66 0 15.32 0 16 0 C15.859 2.625 15.713 5.25 15.562 7.875 C15.523 8.621 15.484 9.368 15.443 10.137 C15.113 15.773 15.113 15.773 14 18 C14.736 17.965 15.472 17.93 16.23 17.895 C26.119 17.62 26.119 17.62 30 21 C32.547 24.821 32.34 27.878 32.312 32.312 C32.311 33.187 32.31 34.062 32.309 34.964 C32.096 51 30.394 67.032 29 83 C33.29 83.66 37.58 84.32 42 85 C41.995 83.678 41.99 82.355 41.984 80.993 C41.966 76.099 41.955 71.205 41.945 66.311 C41.94 64.191 41.933 62.07 41.925 59.95 C41.912 56.907 41.907 53.863 41.902 50.82 C41.897 49.868 41.892 48.916 41.887 47.935 C41.887 47.054 41.887 46.174 41.886 45.266 C41.884 44.489 41.882 43.712 41.88 42.911 C42 41 42 41 43 39 C44.98 39 46.96 39 49 39 C49 39.66 49 40.32 49 41 C64.51 40.67 80.02 40.34 96 40 C96 42.31 96 44.62 96 47 C92.25 48.125 92.25 48.125 90 47 C86.938 46.913 83.898 46.884 80.836 46.902 C80.032 46.903 79.228 46.904 78.4 46.905 C75.391 46.911 72.383 46.925 69.375 46.938 C62.651 46.958 55.928 46.979 49 47 C48.67 69.44 48.34 91.88 48 115 C56.168 114.856 64.335 114.711 72.75 114.562 C76.611 114.498 76.611 114.498 80.55 114.432 C82.591 114.394 84.631 114.355 86.672 114.316 C87.731 114.3 88.79 114.283 89.881 114.266 C91.403 114.236 91.403 114.236 92.956 114.205 C93.835 114.19 94.715 114.174 95.621 114.158 C97.87 114.009 99.84 113.625 102 113 C102.99 114.32 103.98 115.64 105 117 C104.25 118.937 104.25 118.937 103 121 C100.938 121.812 100.938 121.812 99 122 C98.67 121.67 98.34 121.34 98 121 C96.497 120.902 94.99 120.872 93.484 120.871 C92.522 120.867 91.56 120.864 90.57 120.861 C89.522 120.863 88.474 120.865 87.395 120.867 C86.323 120.866 85.251 120.865 84.146 120.864 C81.87 120.864 79.595 120.865 77.319 120.87 C73.845 120.875 70.371 120.87 66.896 120.863 C64.687 120.864 62.479 120.865 60.27 120.867 C59.232 120.865 58.194 120.863 57.125 120.861 C53.108 120.874 49.385 120.932 45.421 121.633 C44.622 121.754 43.823 121.875 43 122 C41 120 41 120 40.773 117.111 C40.783 115.906 40.794 114.702 40.805 113.461 C40.811 112.159 40.818 110.857 40.824 109.516 C40.841 108.135 40.858 106.755 40.875 105.375 C40.885 103.987 40.894 102.599 40.902 101.211 C40.926 97.807 40.962 94.404 41 91 C36.71 90.67 32.42 90.34 28 90 C27.963 91.014 27.925 92.029 27.887 93.074 C27.419 104.354 26.637 115.609 25.758 126.863 C25.628 128.533 25.501 130.202 25.376 131.872 C25.197 134.256 25.008 136.64 24.816 139.023 C24.764 139.738 24.712 140.453 24.658 141.19 C24.306 145.393 23.495 149.058 22 153 C32.05 154.257 42.081 154.114 52.188 154.062 C53.92 154.057 55.652 154.053 57.385 154.049 C61.59 154.038 65.795 154.021 70 154 C70.33 154.99 70.66 155.98 71 157 C69.766 156.934 69.766 156.934 68.508 156.867 C63.095 156.88 59.356 156.994 54.91 160.293 C52.47 162.775 50.18 165.288 48 168 C47.67 167.01 47.34 166.02 47 165 C47.99 164.67 48.98 164.34 50 164 C51.092 162.067 51.092 162.067 52 160 C52.66 159.34 53.32 158.68 54 158 C51.073 157.702 48.853 157.479 46 158 C43.153 160.683 43.153 160.683 41 164 C38.812 166.375 38.812 166.375 37 168 C36.34 168 35.68 168 35 168 C36 166 37 164 38 162 C38.66 162 39.32 162 40 162 C40.33 161.01 40.66 160.02 41 159 C41.66 159 42.32 159 43 159 C43 158.34 43 157.68 43 157 C38.744 156.846 35.283 156.869 31.984 159.777 C30.817 161.181 29.687 162.618 28.605 164.09 C26.884 166.138 25.449 166.985 23 168 C24.364 165.008 25.949 162.71 28.125 160.25 C28.664 159.636 29.203 159.023 29.758 158.391 C30.168 157.932 30.578 157.473 31 157 C25.685 157.093 22.945 157.555 19.125 161.375 C17.168 163.514 15.617 165.574 14 168 C13.34 168 12.68 168 12 168 C13.394 163.565 15.606 161.126 19 158 C16.03 158 13.06 158 10 158 C10 158.66 10 159.32 10 160 C9.34 160 8.68 160 8 160 C7.752 160.577 7.505 161.155 7.25 161.75 C5.817 164.329 4.216 166.061 2 168 C1.34 168 0.68 168 0 168 C1.668 164.059 4.227 161.211 7 158 C4.03 158 1.06 158 -2 158 C-2.66 159.32 -3.32 160.64 -4 162 C-5.438 163.703 -5.438 163.703 -7 165.25 C-7.773 166.031 -7.773 166.031 -8.562 166.828 C-10 168 -10 168 -12 168 C-10.445 164.183 -7.964 161.808 -5 159 C-9.029 158.663 -9.029 158.663 -13 159 C-15.349 161.187 -15.349 161.187 -17 164 C-19.125 166.312 -19.125 166.312 -21 168 C-21.66 168 -22.32 168 -23 168 C-22.424 164.647 -21.407 163.062 -18.938 160.75 C-18.116 159.969 -18.116 159.969 -17.277 159.172 C-16.856 158.785 -16.434 158.398 -16 158 C-20.021 157.723 -20.021 157.723 -24 158 C-25.913 159.881 -25.913 159.881 -27 162 C-27.66 162 -28.32 162 -29 162 C-29.33 162.99 -29.66 163.98 -30 165 C-30.66 165 -31.32 165 -32 165 C-32.33 165.99 -32.66 166.98 -33 168 C-33.66 168 -34.32 168 -35 168 C-34.34 166.35 -33.68 164.7 -33 163 C-32.34 163 -31.68 163 -31 163 C-30.67 162.01 -30.34 161.02 -30 160 C-28.438 158.312 -28.438 158.312 -27 157 C-30.238 156.745 -32.923 156.919 -36 158 C-38.432 160.453 -40.33 162.996 -42.273 165.848 C-43.128 166.913 -43.128 166.913 -44 168 C-44.99 168 -45.98 168 -47 168 C-45.349 163.708 -42.262 161.121 -39 158 C-42.96 157.67 -46.92 157.34 -51 157 C-51 156.34 -51 155.68 -51 155 C-40.981 154.328 -31.046 153.843 -21 154 C-21.66 153.01 -22.32 152.02 -23 151 C-23.202 148.229 -23.279 145.583 -23.246 142.812 C-23.241 141.98 -23.235 141.147 -23.229 140.288 C-23.088 130.517 -22.243 120.804 -21.346 111.078 C-21.058 107.949 -20.783 104.818 -20.51 101.688 C-20.331 99.687 -20.152 97.687 -19.973 95.688 C-19.89 94.756 -19.808 93.825 -19.723 92.866 C-19.643 92.007 -19.563 91.147 -19.481 90.262 C-19.412 89.509 -19.343 88.755 -19.272 87.979 C-19 86 -19 86 -18 83 C-21.3 83 -24.6 83 -28 83 C-28 82.34 -28 81.68 -28 81 C-24.7 81 -21.4 81 -18 81 C-17.951 79.607 -17.902 78.213 -17.852 76.777 C-17.355 63.651 -16.536 50.588 -15.244 37.515 C-15.081 35.832 -14.933 34.147 -14.801 32.462 C-14.731 31.668 -14.661 30.873 -14.59 30.055 C-14.534 29.356 -14.479 28.657 -14.422 27.937 C-13.65 24.39 -11.557 22.495 -9 20 C-7 19 -7 19 0 19 C0 12.73 0 6.46 0 0 Z " fill="#F7F7F7" transform="translate(270,121)"/>
<path d="M0 0 C0.33 0 0.66 0 1 0 C1.495 11.88 1.495 11.88 2 24 C3.98 24.99 5.96 25.98 8 27 C9.807 28.196 9.807 28.196 11 30 C11.516 32.673 11.856 35.168 12.086 37.867 C12.163 38.658 12.24 39.449 12.32 40.265 C12.565 42.842 12.786 45.42 13 48 C13.072 48.861 13.144 49.722 13.219 50.609 C13.728 56.778 14.181 62.951 14.625 69.125 C14.76 70.97 14.896 72.815 15.031 74.66 C15.358 79.107 15.68 83.553 16 88 C20.29 88 24.58 88 29 88 C28.959 86.738 28.918 85.476 28.876 84.176 C28.728 79.506 28.594 74.836 28.463 70.166 C28.404 68.142 28.342 66.119 28.276 64.095 C28.182 61.191 28.102 58.287 28.023 55.383 C27.991 54.474 27.959 53.566 27.926 52.63 C27.906 51.789 27.886 50.949 27.865 50.083 C27.831 48.97 27.831 48.97 27.797 47.835 C28 46 28 46 30 44 C33.057 43.757 33.057 43.757 36.941 43.77 C37.966 43.77 37.966 43.77 39.011 43.771 C40.454 43.774 41.897 43.782 43.341 43.794 C45.557 43.812 47.773 43.815 49.99 43.814 C60.853 43.853 60.853 43.853 62 45 C62.041 47 62.043 49 62 51 C57.25 52.125 57.25 52.125 55 51 C48.4 50.67 41.8 50.34 35 50 C35 73.1 35 96.2 35 120 C46.55 119.67 58.1 119.34 70 119 C70.33 120.98 70.66 122.96 71 125 C70.34 125.66 69.68 126.32 69 127 C67.167 126.979 67.167 126.979 64.852 126.629 C57.704 125.756 50.562 125.892 43.375 125.938 C41.975 125.943 40.576 125.947 39.176 125.951 C35.784 125.963 32.392 125.979 29 126 C28.056 122.095 27.95 118.613 28.121 114.605 C28.169 113.403 28.218 112.201 28.268 110.963 C28.324 109.717 28.38 108.471 28.438 107.188 C28.49 105.922 28.542 104.657 28.596 103.354 C28.725 100.235 28.862 97.118 29 94 C24.71 94 20.42 94 16 94 C16.308 95.807 16.616 97.615 16.934 99.477 C18.156 107.422 18.636 115.359 19.062 123.375 C19.179 125.498 19.298 127.622 19.419 129.745 C19.528 131.654 19.632 133.564 19.735 135.474 C20.001 139.017 20.465 142.488 21 146 C21.672 152.269 20.782 154.327 17 160 C33.83 160.495 33.83 160.495 51 161 C50.67 162.65 50.34 164.3 50 166 C48.063 167.062 48.063 167.062 46 168 C45.316 169.325 44.65 170.659 44 172 C41.875 173.75 41.875 173.75 40 175 C40 170.69 42.167 169.103 45 166 C45.66 165.67 46.32 165.34 47 165 C43.752 164.398 42.134 164.149 39 165 C35.284 168 32.133 171.404 29 175 C28.67 174.01 28.34 173.02 28 172 C28.66 172 29.32 172 30 172 C30.268 171.402 30.536 170.804 30.812 170.188 C31.985 168.028 33.194 166.642 35 165 C32.36 164.67 29.72 164.34 27 164 C27 164.66 27 165.32 27 166 C25.574 167.402 25.574 167.402 23.688 168.938 C21.336 170.865 19.118 172.817 17 175 C17 172 17 172 18 170 C18.66 170 19.32 170 20 170 C20.464 169.041 20.464 169.041 20.938 168.062 C22 166 22 166 23 165 C20.36 164.67 17.72 164.34 15 164 C14.67 164.99 14.34 165.98 14 167 C12.562 168.688 12.562 168.688 11 170 C10.34 170 9.68 170 9 170 C8.732 170.639 8.464 171.279 8.188 171.938 C7 174 7 174 4 175 C5.668 171.059 8.227 168.211 11 165 C8.36 164.67 5.72 164.34 3 164 C2.745 164.583 2.49 165.165 2.227 165.766 C0.883 168.214 -0.618 169.817 -2.625 171.75 C-3.572 172.67 -3.572 172.67 -4.539 173.609 C-5.021 174.068 -5.503 174.527 -6 175 C-6.99 174.01 -6.99 174.01 -8 173 C-5.36 170.36 -2.72 167.72 0 165 C-3.17 164.481 -4.939 164.229 -8 165 C-10.652 167.156 -12.852 169.474 -15.117 172.031 C-15.739 172.681 -16.36 173.331 -17 174 C-17.66 174 -18.32 174 -19 174 C-17.445 170.183 -14.964 167.808 -12 165 C-15.242 164.411 -16.886 164.128 -20 165 C-22.678 167.419 -24.869 169.992 -27.117 172.812 C-27.739 173.534 -28.36 174.256 -29 175 C-29.66 175 -30.32 175 -31 175 C-29.606 170.565 -27.394 168.126 -24 165 C-28.039 164.581 -28.039 164.581 -32 165 C-34.113 166.793 -35.379 168.712 -37 171 C-37.66 171 -38.32 171 -39 171 C-39.99 172.98 -39.99 172.98 -41 175 C-41.66 175 -42.32 175 -43 175 C-43 174.01 -43 173.02 -43 172 C-42.34 172 -41.68 172 -41 172 C-40.67 171.01 -40.34 170.02 -40 169 C-39.34 169 -38.68 169 -38 169 C-37.01 167.02 -37.01 167.02 -36 165 C-38.64 164.67 -41.28 164.34 -44 164 C-44.255 164.583 -44.51 165.165 -44.773 165.766 C-46.117 168.214 -47.618 169.817 -49.625 171.75 C-50.257 172.364 -50.888 172.977 -51.539 173.609 C-52.021 174.068 -52.503 174.527 -53 175 C-53.66 174.34 -54.32 173.68 -55 173 C-50.375 167.25 -50.375 167.25 -47 165 C-55.415 164.505 -55.415 164.505 -64 164 C-64 163.01 -64 162.02 -64 161 C-50.8 160.67 -37.6 160.34 -24 160 C-24.99 157.69 -25.98 155.38 -27 153 C-27.499 150.166 -27.499 150.166 -27.676 147.388 C-27.749 146.337 -27.823 145.286 -27.898 144.203 C-27.997 142.533 -27.997 142.533 -28.098 140.828 C-28.177 139.669 -28.257 138.509 -28.339 137.315 C-28.592 133.627 -28.829 129.939 -29.062 126.25 C-29.301 122.547 -29.543 118.844 -29.796 115.142 C-29.953 112.842 -30.102 110.542 -30.24 108.241 C-30.311 107.203 -30.381 106.164 -30.453 105.095 C-30.511 104.181 -30.569 103.267 -30.628 102.326 C-30.877 99.733 -30.877 99.733 -33 97 C-35.584 96.75 -35.584 96.75 -38 97 C-38 96.34 -38 95.68 -38 95 C-34.535 94.505 -34.535 94.505 -31 94 C-31.155 93.441 -31.31 92.882 -31.47 92.306 C-32.026 89.885 -32.281 87.575 -32.481 85.099 C-32.561 84.127 -32.641 83.156 -32.723 82.154 C-32.805 81.11 -32.888 80.065 -32.973 78.988 C-33.06 77.905 -33.147 76.823 -33.237 75.707 C-33.421 73.415 -33.604 71.123 -33.784 68.83 C-34.06 65.343 -34.343 61.856 -34.627 58.369 C-34.805 56.138 -34.983 53.907 -35.16 51.676 C-35.287 50.124 -35.287 50.124 -35.416 48.54 C-36.821 30.48 -36.821 30.48 -33 26 C-28.837 22.824 -25.247 22.624 -20.188 22.812 C-19.148 22.833 -19.148 22.833 -18.088 22.854 C-16.392 22.889 -14.696 22.942 -13 23 C-13.165 21.783 -13.33 20.566 -13.5 19.312 C-14.192 13.215 -14.085 7.128 -14 1 C-13.34 1.33 -12.68 1.66 -12 2 C-11.505 12.395 -11.505 12.395 -11 23 C-7.7 23.33 -4.4 23.66 -1 24 C-1.012 22.351 -1.023 20.703 -1.035 19.004 C-1.045 16.857 -1.054 14.71 -1.062 12.562 C-1.071 11.474 -1.079 10.385 -1.088 9.264 C-1.091 8.229 -1.094 7.195 -1.098 6.129 C-1.103 5.171 -1.108 4.212 -1.114 3.225 C-1 1 -1 1 0 0 Z " fill="#F2F2F2" transform="translate(101,115)"/>
<path d="M0 0 C0.99 0 1.98 0 3 0 C3 6.27 3 12.54 3 19 C5.97 19 8.94 19 12 19 C12.66 12.73 13.32 6.46 14 0 C14.66 0 15.32 0 16 0 C15.859 2.625 15.713 5.25 15.562 7.875 C15.523 8.621 15.484 9.368 15.443 10.137 C15.113 15.773 15.113 15.773 14 18 C14.736 17.965 15.472 17.93 16.23 17.895 C26.119 17.62 26.119 17.62 30 21 C32.547 24.821 32.34 27.878 32.312 32.312 C32.311 33.187 32.31 34.062 32.309 34.964 C32.096 51 30.394 67.032 29 83 C33.29 83.66 37.58 84.32 42 85 C41.995 83.678 41.99 82.355 41.984 80.993 C41.966 76.099 41.955 71.205 41.945 66.311 C41.94 64.191 41.933 62.07 41.925 59.95 C41.912 56.907 41.907 53.863 41.902 50.82 C41.897 49.868 41.892 48.916 41.887 47.935 C41.887 47.054 41.887 46.174 41.886 45.266 C41.884 44.489 41.882 43.712 41.88 42.911 C42 41 42 41 43 39 C44.98 39 46.96 39 49 39 C49 39.66 49 40.32 49 41 C64.51 40.67 80.02 40.34 96 40 C96 42.31 96 44.62 96 47 C92.25 48.125 92.25 48.125 90 47 C86.938 46.913 83.898 46.884 80.836 46.902 C80.032 46.903 79.228 46.904 78.4 46.905 C75.391 46.911 72.383 46.925 69.375 46.938 C62.651 46.958 55.928 46.979 49 47 C48.67 69.44 48.34 91.88 48 115 C56.168 114.856 64.335 114.711 72.75 114.562 C76.611 114.498 76.611 114.498 80.55 114.432 C82.591 114.394 84.631 114.355 86.672 114.316 C87.731 114.3 88.79 114.283 89.881 114.266 C91.403 114.236 91.403 114.236 92.956 114.205 C93.835 114.19 94.715 114.174 95.621 114.158 C97.87 114.009 99.84 113.625 102 113 C102.99 114.32 103.98 115.64 105 117 C104.25 118.937 104.25 118.937 103 121 C100.938 121.812 100.938 121.812 99 122 C98.67 121.67 98.34 121.34 98 121 C96.497 120.902 94.99 120.872 93.484 120.871 C92.522 120.867 91.56 120.864 90.57 120.861 C89.522 120.863 88.474 120.865 87.395 120.867 C86.323 120.866 85.251 120.865 84.146 120.864 C81.87 120.864 79.595 120.865 77.319 120.87 C73.845 120.875 70.371 120.87 66.896 120.863 C64.687 120.864 62.479 120.865 60.27 120.867 C59.232 120.865 58.194 120.863 57.125 120.861 C53.108 120.874 49.385 120.932 45.421 121.633 C44.622 121.754 43.823 121.875 43 122 C41 120 41 120 40.773 117.111 C40.783 115.906 40.794 114.702 40.805 113.461 C40.811 112.159 40.818 110.857 40.824 109.516 C40.841 108.135 40.858 106.755 40.875 105.375 C40.885 103.987 40.894 102.599 40.902 101.211 C40.926 97.807 40.962 94.404 41 91 C36.71 90.67 32.42 90.34 28 90 C27.963 91.014 27.925 92.029 27.887 93.074 C27.419 104.354 26.637 115.609 25.758 126.863 C25.628 128.533 25.501 130.202 25.376 131.872 C25.197 134.256 25.008 136.64 24.816 139.023 C24.764 139.738 24.712 140.453 24.658 141.19 C24.306 145.393 23.495 149.058 22 153 C32.05 154.257 42.081 154.114 52.188 154.062 C53.92 154.057 55.652 154.053 57.385 154.049 C61.59 154.038 65.795 154.021 70 154 C70.33 154.99 70.66 155.98 71 157 C69.766 156.934 69.766 156.934 68.508 156.867 C63.095 156.88 59.356 156.994 54.91 160.293 C52.47 162.775 50.18 165.288 48 168 C47.67 167.01 47.34 166.02 47 165 C47.99 164.67 48.98 164.34 50 164 C51.092 162.067 51.092 162.067 52 160 C52.66 159.34 53.32 158.68 54 158 C51.073 157.702 48.853 157.479 46 158 C43.153 160.683 43.153 160.683 41 164 C38.812 166.375 38.812 166.375 37 168 C36.34 168 35.68 168 35 168 C36 166 37 164 38 162 C38.66 162 39.32 162 40 162 C40.33 161.01 40.66 160.02 41 159 C41.66 159 42.32 159 43 159 C43 158.34 43 157.68 43 157 C38.744 156.846 35.283 156.869 31.984 159.777 C30.817 161.181 29.687 162.618 28.605 164.09 C26.884 166.138 25.449 166.985 23 168 C24.364 165.008 25.949 162.71 28.125 160.25 C28.664 159.636 29.203 159.023 29.758 158.391 C30.168 157.932 30.578 157.473 31 157 C25.685 157.093 22.945 157.555 19.125 161.375 C17.168 163.514 15.617 165.574 14 168 C13.34 168 12.68 168 12 168 C13.394 163.565 15.606 161.126 19 158 C16.03 158 13.06 158 10 158 C10 158.66 10 159.32 10 160 C9.34 160 8.68 160 8 160 C7.752 160.577 7.505 161.155 7.25 161.75 C5.817 164.329 4.216 166.061 2 168 C1.34 168 0.68 168 0 168 C1.668 164.059 4.227 161.211 7 158 C4.03 158 1.06 158 -2 158 C-2.66 159.32 -3.32 160.64 -4 162 C-5.438 163.703 -5.438 163.703 -7 165.25 C-7.773 166.031 -7.773 166.031 -8.562 166.828 C-10 168 -10 168 -12 168 C-10.445 164.183 -7.964 161.808 -5 159 C-9.029 158.663 -9.029 158.663 -13 159 C-15.349 161.187 -15.349 161.187 -17 164 C-19.125 166.312 -19.125 166.312 -21 168 C-21.66 168 -22.32 168 -23 168 C-22.424 164.647 -21.407 163.062 -18.938 160.75 C-18.116 159.969 -18.116 159.969 -17.277 159.172 C-16.856 158.785 -16.434 158.398 -16 158 C-20.021 157.723 -20.021 157.723 -24 158 C-25.913 159.881 -25.913 159.881 -27 162 C-27.66 162 -28.32 162 -29 162 C-29.33 162.99 -29.66 163.98 -30 165 C-30.66 165 -31.32 165 -32 165 C-32.33 165.99 -32.66 166.98 -33 168 C-33.66 168 -34.32 168 -35 168 C-34.34 166.35 -33.68 164.7 -33 163 C-32.34 163 -31.68 163 -31 163 C-30.67 162.01 -30.34 161.02 -30 160 C-28.438 158.312 -28.438 158.312 -27 157 C-30.238 156.745 -32.923 156.919 -36 158 C-38.432 160.453 -40.33 162.996 -42.273 165.848 C-43.128 166.913 -43.128 166.913 -44 168 C-44.99 168 -45.98 168 -47 168 C-45.349 163.708 -42.262 161.121 -39 158 C-42.96 157.67 -46.92 157.34 -51 157 C-51 156.34 -51 155.68 -51 155 C-40.981 154.328 -31.046 153.843 -21 154 C-21.66 153.01 -22.32 152.02 -23 151 C-23.202 148.229 -23.279 145.583 -23.246 142.812 C-23.241 141.98 -23.235 141.147 -23.229 140.288 C-23.088 130.517 -22.243 120.804 -21.346 111.078 C-21.058 107.949 -20.783 104.818 -20.51 101.688 C-20.331 99.687 -20.152 97.687 -19.973 95.688 C-19.89 94.756 -19.808 93.825 -19.723 92.866 C-19.643 92.007 -19.563 91.147 -19.481 90.262 C-19.412 89.509 -19.343 88.755 -19.272 87.979 C-19 86 -19 86 -18 83 C-21.3 83 -24.6 83 -28 83 C-28 82.34 -28 81.68 -28 81 C-24.7 81 -21.4 81 -18 81 C-17.951 79.607 -17.902 78.213 -17.852 76.777 C-17.355 63.651 -16.536 50.588 -15.244 37.515 C-15.081 35.832 -14.933 34.147 -14.801 32.462 C-14.731 31.668 -14.661 30.873 -14.59 30.055 C-14.534 29.356 -14.479 28.657 -14.422 27.937 C-13.65 24.39 -11.557 22.495 -9 20 C-7 19 -7 19 0 19 C0 12.73 0 6.46 0 0 Z M15 21 C14.67 22.32 14.34 23.64 14 25 C13.34 25 12.68 25 12 25 C12 24.01 12 23.02 12 22 C9.36 22 6.72 22 4 22 C3.67 22.99 3.34 23.98 3 25 C2.01 25 1.02 25 0 25 C0 24.34 0 23.68 0 23 C-1.459 23.06 -2.918 23.149 -4.375 23.25 C-5.187 23.296 -5.999 23.343 -6.836 23.391 C-9.136 23.776 -9.136 23.776 -10.098 25.767 C-11.022 28.054 -11.374 29.885 -11.594 32.334 C-11.674 33.183 -11.754 34.031 -11.836 34.905 C-11.914 35.816 -11.991 36.726 -12.07 37.664 C-12.156 38.611 -12.242 39.559 -12.331 40.535 C-12.511 42.54 -12.687 44.545 -12.86 46.551 C-13.122 49.594 -13.398 52.635 -13.676 55.676 C-13.85 57.63 -14.023 59.585 -14.195 61.539 C-14.277 62.437 -14.358 63.336 -14.441 64.261 C-14.945 70.195 -15.069 76.044 -15 82 C-11.04 82 -7.08 82 -3 82 C-3 82.99 -3 83.98 -3 85 C-6.96 84.67 -10.92 84.34 -15 84 C-16.47 94.228 -17.584 104.446 -18.433 114.743 C-18.625 117.065 -18.828 119.385 -19.031 121.705 C-21.328 136.799 -21.328 136.799 -18.918 150.931 C-13.749 155.753 -6.589 155.134 0 155 C0 151.37 0 147.74 0 144 C1.485 144.495 1.485 144.495 3 145 C3 148.3 3 151.6 3 155 C11.54 155.571 11.54 155.571 19 152 C20.649 146.61 21.404 141.396 21.816 135.793 C21.878 135.033 21.939 134.274 22.002 133.491 C22.196 131.057 22.379 128.622 22.562 126.188 C22.693 124.518 22.823 122.848 22.954 121.179 C23.811 110.128 24.561 99.076 25 88 C19.239 86.702 13.913 85.743 8 86 C8 89.63 8 93.26 8 97 C7.34 97 6.68 97 6 97 C6.66 88.75 7.32 80.5 8 72 C8.66 72 9.32 72 10 72 C9.67 75.96 9.34 79.92 9 84 C14.3 85.116 19.601 85.346 25 85 C26.608 83.392 26.315 81.559 26.497 79.332 C26.58 78.337 26.663 77.341 26.749 76.316 C26.834 75.231 26.92 74.146 27.008 73.027 C27.098 71.916 27.187 70.804 27.28 69.659 C27.469 67.298 27.655 64.936 27.839 62.574 C28.122 58.977 28.418 55.38 28.715 51.783 C28.897 49.49 29.078 47.196 29.258 44.902 C29.347 43.831 29.437 42.76 29.529 41.656 C29.962 35.926 30.169 30.648 29 25 C25.689 21.77 23.144 20.782 18.625 20.75 C16.831 20.874 16.831 20.874 15 21 Z " fill="#151515" transform="translate(270,121)"/>
<path d="M0 0 C0.33 0 0.66 0 1 0 C1.495 11.88 1.495 11.88 2 24 C3.98 24.99 5.96 25.98 8 27 C9.807 28.196 9.807 28.196 11 30 C11.516 32.673 11.856 35.168 12.086 37.867 C12.163 38.658 12.24 39.449 12.32 40.265 C12.565 42.842 12.786 45.42 13 48 C13.072 48.861 13.144 49.722 13.219 50.609 C13.728 56.778 14.181 62.951 14.625 69.125 C14.76 70.97 14.896 72.815 15.031 74.66 C15.358 79.107 15.68 83.553 16 88 C20.29 88 24.58 88 29 88 C28.959 86.738 28.918 85.476 28.876 84.176 C28.728 79.506 28.594 74.836 28.463 70.166 C28.404 68.142 28.342 66.119 28.276 64.095 C28.182 61.191 28.102 58.287 28.023 55.383 C27.991 54.474 27.959 53.566 27.926 52.63 C27.906 51.789 27.886 50.949 27.865 50.083 C27.831 48.97 27.831 48.97 27.797 47.835 C28 46 28 46 30 44 C33.057 43.757 33.057 43.757 36.941 43.77 C37.966 43.77 37.966 43.77 39.011 43.771 C40.454 43.774 41.897 43.782 43.341 43.794 C45.557 43.812 47.773 43.815 49.99 43.814 C60.853 43.853 60.853 43.853 62 45 C62.041 47 62.043 49 62 51 C57.25 52.125 57.25 52.125 55 51 C48.4 50.67 41.8 50.34 35 50 C35 73.1 35 96.2 35 120 C46.55 119.67 58.1 119.34 70 119 C70.33 120.98 70.66 122.96 71 125 C70.34 125.66 69.68 126.32 69 127 C67.167 126.979 67.167 126.979 64.852 126.629 C57.704 125.756 50.562 125.892 43.375 125.938 C41.975 125.943 40.576 125.947 39.176 125.951 C35.784 125.963 32.392 125.979 29 126 C28.056 122.095 27.95 118.613 28.121 114.605 C28.169 113.403 28.218 112.201 28.268 110.963 C28.324 109.717 28.38 108.471 28.438 107.188 C28.49 105.922 28.542 104.657 28.596 103.354 C28.725 100.235 28.862 97.118 29 94 C24.71 94 20.42 94 16 94 C16.308 95.807 16.616 97.615 16.934 99.477 C18.156 107.422 18.636 115.359 19.062 123.375 C19.179 125.498 19.298 127.622 19.419 129.745 C19.528 131.654 19.632 133.564 19.735 135.474 C20.001 139.017 20.465 142.488 21 146 C21.672 152.269 20.782 154.327 17 160 C33.83 160.495 33.83 160.495 51 161 C50.67 162.65 50.34 164.3 50 166 C48.063 167.062 48.063 167.062 46 168 C45.316 169.325 44.65 170.659 44 172 C41.875 173.75 41.875 173.75 40 175 C40 170.69 42.167 169.103 45 166 C45.66 165.67 46.32 165.34 47 165 C43.752 164.398 42.134 164.149 39 165 C35.284 168 32.133 171.404 29 175 C28.67 174.01 28.34 173.02 28 172 C28.66 172 29.32 172 30 172 C30.268 171.402 30.536 170.804 30.812 170.188 C31.985 168.028 33.194 166.642 35 165 C32.36 164.67 29.72 164.34 27 164 C27 164.66 27 165.32 27 166 C25.574 167.402 25.574 167.402 23.688 168.938 C21.336 170.865 19.118 172.817 17 175 C17 172 17 172 18 170 C18.66 170 19.32 170 20 170 C20.464 169.041 20.464 169.041 20.938 168.062 C22 166 22 166 23 165 C20.36 164.67 17.72 164.34 15 164 C14.67 164.99 14.34 165.98 14 167 C12.562 168.688 12.562 168.688 11 170 C10.34 170 9.68 170 9 170 C8.732 170.639 8.464 171.279 8.188 171.938 C7 174 7 174 4 175 C5.668 171.059 8.227 168.211 11 165 C8.36 164.67 5.72 164.34 3 164 C2.745 164.583 2.49 165.165 2.227 165.766 C0.883 168.214 -0.618 169.817 -2.625 171.75 C-3.572 172.67 -3.572 172.67 -4.539 173.609 C-5.021 174.068 -5.503 174.527 -6 175 C-6.99 174.01 -6.99 174.01 -8 173 C-5.36 170.36 -2.72 167.72 0 165 C-3.17 164.481 -4.939 164.229 -8 165 C-10.652 167.156 -12.852 169.474 -15.117 172.031 C-15.739 172.681 -16.36 173.331 -17 174 C-17.66 174 -18.32 174 -19 174 C-17.445 170.183 -14.964 167.808 -12 165 C-15.242 164.411 -16.886 164.128 -20 165 C-22.678 167.419 -24.869 169.992 -27.117 172.812 C-27.739 173.534 -28.36 174.256 -29 175 C-29.66 175 -30.32 175 -31 175 C-29.606 170.565 -27.394 168.126 -24 165 C-28.039 164.581 -28.039 164.581 -32 165 C-34.113 166.793 -35.379 168.712 -37 171 C-37.66 171 -38.32 171 -39 171 C-39.99 172.98 -39.99 172.98 -41 175 C-41.66 175 -42.32 175 -43 175 C-43 174.01 -43 173.02 -43 172 C-42.34 172 -41.68 172 -41 172 C-40.67 171.01 -40.34 170.02 -40 169 C-39.34 169 -38.68 169 -38 169 C-37.01 167.02 -37.01 167.02 -36 165 C-38.64 164.67 -41.28 164.34 -44 164 C-44.255 164.583 -44.51 165.165 -44.773 165.766 C-46.117 168.214 -47.618 169.817 -49.625 171.75 C-50.257 172.364 -50.888 172.977 -51.539 173.609 C-52.021 174.068 -52.503 174.527 -53 175 C-53.66 174.34 -54.32 173.68 -55 173 C-50.375 167.25 -50.375 167.25 -47 165 C-55.415 164.505 -55.415 164.505 -64 164 C-64 163.01 -64 162.02 -64 161 C-50.8 160.67 -37.6 160.34 -24 160 C-24.99 157.69 -25.98 155.38 -27 153 C-27.499 150.166 -27.499 150.166 -27.676 147.388 C-27.749 146.337 -27.823 145.286 -27.898 144.203 C-27.997 142.533 -27.997 142.533 -28.098 140.828 C-28.177 139.669 -28.257 138.509 -28.339 137.315 C-28.592 133.627 -28.829 129.939 -29.062 126.25 C-29.301 122.547 -29.543 118.844 -29.796 115.142 C-29.953 112.842 -30.102 110.542 -30.24 108.241 C-30.311 107.203 -30.381 106.164 -30.453 105.095 C-30.511 104.181 -30.569 103.267 -30.628 102.326 C-30.877 99.733 -30.877 99.733 -33 97 C-35.584 96.75 -35.584 96.75 -38 97 C-38 96.34 -38 95.68 -38 95 C-34.535 94.505 -34.535 94.505 -31 94 C-31.155 93.441 -31.31 92.882 -31.47 92.306 C-32.026 89.885 -32.281 87.575 -32.481 85.099 C-32.561 84.127 -32.641 83.156 -32.723 82.154 C-32.805 81.11 -32.888 80.065 -32.973 78.988 C-33.06 77.905 -33.147 76.823 -33.237 75.707 C-33.421 73.415 -33.604 71.123 -33.784 68.83 C-34.06 65.343 -34.343 61.856 -34.627 58.369 C-34.805 56.138 -34.983 53.907 -35.16 51.676 C-35.287 50.124 -35.287 50.124 -35.416 48.54 C-36.821 30.48 -36.821 30.48 -33 26 C-28.837 22.824 -25.247 22.624 -20.188 22.812 C-19.148 22.833 -19.148 22.833 -18.088 22.854 C-16.392 22.889 -14.696 22.942 -13 23 C-13.165 21.783 -13.33 20.566 -13.5 19.312 C-14.192 13.215 -14.085 7.128 -14 1 C-13.34 1.33 -12.68 1.66 -12 2 C-11.505 12.395 -11.505 12.395 -11 23 C-7.7 23.33 -4.4 23.66 -1 24 C-1.012 22.351 -1.023 20.703 -1.035 19.004 C-1.045 16.857 -1.054 14.71 -1.062 12.562 C-1.071 11.474 -1.079 10.385 -1.088 9.264 C-1.091 8.229 -1.094 7.195 -1.098 6.129 C-1.103 5.171 -1.108 4.212 -1.114 3.225 C-1 1 -1 1 0 0 Z M-29 27 C-29 27.66 -29 28.32 -29 29 C-29.99 29.33 -30.98 29.66 -32 30 C-33.413 35.9 -32.761 41.521 -32.258 47.496 C-32.17 48.603 -32.082 49.71 -31.992 50.85 C-31.805 53.186 -31.615 55.522 -31.421 57.858 C-31.126 61.421 -30.842 64.985 -30.559 68.549 C-30.376 70.823 -30.192 73.097 -30.008 75.371 C-29.922 76.432 -29.837 77.492 -29.749 78.585 C-29.319 83.756 -28.808 88.874 -28 94 C-22.848 94.09 -18.081 93.847 -13 93 C-13 93.66 -13 94.32 -13 95 C-17.62 95.33 -22.24 95.66 -27 96 C-27.141 107.096 -26.732 118 -25.828 129.058 C-25.623 131.591 -25.432 134.124 -25.242 136.658 C-25.113 138.294 -24.983 139.93 -24.852 141.566 C-24.796 142.311 -24.741 143.056 -24.684 143.824 C-24.082 152.113 -24.082 152.113 -20 159 C-16.226 160.429 -12.225 160.111 -8.25 160.062 C-7.553 160.058 -6.855 160.053 -6.137 160.049 C-4.424 160.037 -2.712 160.019 -1 160 C-1 155.38 -1 150.76 -1 146 C-0.34 145.67 0.32 145.34 1 145 C1 149.95 1 154.9 1 160 C7.777 160 9.505 159.909 15 157 C18.382 151.927 17.192 145.934 17 140 C16.959 138.711 16.917 137.422 16.875 136.094 C16.275 121.678 14.559 107.336 13 93 C7.06 93.495 7.06 93.495 1 94 C1 95.32 1 96.64 1 98 C0.34 98 -0.32 98 -1 98 C-1 96.68 -1 95.36 -1 94 C-1.66 94 -2.32 94 -3 94 C-3 93.34 -3 92.68 -3 92 C-2.34 92 -1.68 92 -1 92 C-1 85.73 -1 79.46 -1 73 C-0.34 73 0.32 73 1 73 C1 79.27 1 85.54 1 92 C6.94 91.505 6.94 91.505 13 91 C12.473 83.363 11.912 75.729 11.316 68.096 C11.1 65.318 10.893 62.539 10.691 59.759 C10.434 56.231 10.153 52.705 9.855 49.179 C9.744 47.816 9.641 46.452 9.546 45.088 C9.41 43.164 9.243 41.242 9.074 39.32 C8.987 38.22 8.901 37.119 8.811 35.985 C7.77 32.155 5.992 30.536 3 28 C0.078 26.539 -2.499 26.889 -5.758 26.902 C-6.421 26.904 -7.084 26.905 -7.767 26.907 C-9.886 26.912 -12.006 26.925 -14.125 26.938 C-15.561 26.943 -16.997 26.947 -18.434 26.951 C-21.956 26.962 -25.478 26.979 -29 27 Z " fill="#0C0C0C" transform="translate(101,115)"/>
<path d="M0 0 C0.66 0 1.32 0 2 0 C2.046 38.694 2.081 77.388 2.102 116.081 C2.105 120.645 2.107 125.209 2.11 129.773 C2.11 130.682 2.111 131.59 2.111 132.526 C2.12 147.256 2.136 161.985 2.154 176.715 C2.173 191.818 2.184 206.922 2.188 222.026 C2.191 231.352 2.2 240.679 2.216 250.005 C2.226 256.393 2.23 262.781 2.227 269.169 C2.226 272.859 2.228 276.549 2.238 280.239 C2.25 284.232 2.246 288.225 2.241 292.218 C2.246 293.395 2.252 294.573 2.258 295.785 C2.254 296.848 2.25 297.911 2.246 299.006 C2.247 299.929 2.248 300.852 2.248 301.802 C2 304 2 304 0 306 C-1.002 302.994 -1.119 301.038 -1.107 297.899 C-1.105 296.307 -1.105 296.307 -1.103 294.682 C-1.096 293.512 -1.089 292.342 -1.082 291.136 C-1.079 289.896 -1.076 288.656 -1.073 287.379 C-1.063 283.931 -1.048 280.483 -1.032 277.035 C-1.015 273.32 -1.004 269.604 -0.993 265.888 C-0.972 259.448 -0.947 253.008 -0.921 246.568 C-0.882 237.257 -0.848 227.946 -0.816 218.635 C-0.764 203.53 -0.708 188.424 -0.648 173.318 C-0.59 158.642 -0.535 143.967 -0.482 129.291 C-0.479 128.386 -0.476 127.482 -0.472 126.551 C-0.456 122.014 -0.44 117.478 -0.424 112.941 C-0.289 75.294 -0.147 37.647 0 0 Z " fill="#000000" transform="translate(189,12)"/>
<path d="M0 0 C5.61 0 11.22 0 17 0 C17 1.32 17 2.64 17 4 C16.01 4 15.02 4 14 4 C14 8.29 14 12.58 14 17 C14.99 17 15.98 17 17 17 C17 18.32 17 19.64 17 21 C11.39 21 5.78 21 0 21 C-0.33 19.68 -0.66 18.36 -1 17 C-0.01 17 0.98 17 2 17 C2 12.71 2 8.42 2 4 C1.01 4 0.02 4 -1 4 C-0.67 2.68 -0.34 1.36 0 0 Z " fill="#161616" transform="translate(199,11)"/>
<path d="M0 0 C0 0.99 0 1.98 0 3 C-0.66 3 -1.32 3 -2 3 C-2 3.66 -2 4.32 -2 5 C-3.704 6.236 -5.413 7.468 -7.148 8.66 C-9.714 10.517 -11.787 12.735 -14 15 C-19.417 20.063 -24.941 24.874 -30.895 29.297 C-33.107 31.025 -33.107 31.025 -35.324 33.328 C-38.967 36.966 -42.892 40.225 -46.828 43.539 C-50.385 46.555 -53.706 49.695 -57 53 C-58.874 54.63 -60.77 56.235 -62.688 57.812 C-63.64 58.603 -64.593 59.393 -65.574 60.207 C-68 62 -68 62 -70 62 C-70.33 65.96 -70.66 69.92 -71 74 C-71.66 74 -72.32 74 -73 74 C-72.858 71.333 -72.711 68.667 -72.562 66 C-72.504 64.884 -72.504 64.884 -72.443 63.746 C-72.163 58.793 -71.665 53.917 -71 49 C-70.34 49 -69.68 49 -69 49 C-69 51.31 -69 53.62 -69 56 C-64.805 55.479 -62.683 53.147 -59.688 50.312 C-58.241 48.965 -58.241 48.965 -56.766 47.59 C-55.853 46.735 -54.94 45.881 -54 45 C-47.378 39 -47.378 39 -45 39 C-44.67 38.01 -44.34 37.02 -44 36 C-41.785 33.957 -41.785 33.957 -39.062 31.812 C-38.167 31.097 -37.271 30.382 -36.348 29.645 C-34 28 -34 28 -32 28 C-31.505 26.515 -31.505 26.515 -31 25 C-29.109 23.352 -29.109 23.352 -26.75 21.625 C-23.203 18.954 -20.105 16.182 -17 13 C-14.037 10.291 -11.024 7.641 -8 5 C-7.392 4.464 -6.783 3.928 -6.156 3.375 C-2.244 0 -2.244 0 0 0 Z " fill="#000000" transform="translate(358,36)"/>
<path d="M0 0 C0.99 0.33 1.98 0.66 3 1 C2.67 1.66 2.34 2.32 2 3 C1.34 3 0.68 3 0 3 C-0.33 3.99 -0.66 4.98 -1 6 C-1.66 6 -2.32 6 -3 6 C-3 6.66 -3 7.32 -3 8 C-4.662 9.339 -6.33 10.671 -8 12 C-8.66 12.825 -9.32 13.65 -10 14.5 C-12.097 17.122 -14.374 18.927 -17 21 C-17.66 21.99 -18.32 22.98 -19 24 C-19.66 24 -20.32 24 -21 24 C-21 24.66 -21 25.32 -21 26 C-22.297 27.272 -22.297 27.272 -24.195 28.816 C-28.049 32.092 -31.63 35.556 -35.18 39.152 C-35.723 39.701 -36.266 40.25 -36.825 40.815 C-39.09 43.107 -41.351 45.403 -43.607 47.703 C-45.273 49.399 -46.945 51.089 -48.617 52.777 C-49.129 53.302 -49.64 53.827 -50.167 54.368 C-51.407 55.617 -52.699 56.814 -54 58 C-54.66 58 -55.32 58 -56 58 C-56 60.31 -56 62.62 -56 65 C-56.66 65 -57.32 65 -58 65 C-58.976 56.669 -59.481 48.307 -58 40 C-57.01 39.505 -57.01 39.505 -56 39 C-56 43.62 -56 48.24 -56 53 C-52.048 50.629 -49.735 48.96 -46.645 45.77 C-45.858 44.967 -45.071 44.165 -44.26 43.338 C-43.452 42.505 -42.645 41.671 -41.812 40.812 C-40.199 39.148 -38.58 37.487 -36.957 35.832 C-35.889 34.73 -35.889 34.73 -34.8 33.605 C-33 32 -33 32 -31 32 C-30.34 30.68 -29.68 29.36 -29 28 C-28.34 28 -27.68 28 -27 28 C-27 27.34 -27 26.68 -27 26 C-25.602 24.623 -25.602 24.623 -23.625 22.996 C-18.476 18.618 -13.753 13.863 -9 9.062 C-8.13 8.188 -7.26 7.313 -6.363 6.412 C-4.24 4.277 -2.119 2.14 0 0 Z " fill="#000000" transform="translate(158,40)"/>
<path d="M0 0 C0.99 0 1.98 0 3 0 C3 2.31 3 4.62 3 7 C3.568 7.061 4.137 7.121 4.723 7.184 C9.498 7.702 14.249 8.292 19 9 C19.33 6.03 19.66 3.06 20 0 C20.66 0 21.32 0 22 0 C22 3.3 22 6.6 22 10 C25.3 10 28.6 10 32 10 C32 10.99 32 11.98 32 13 C33.94 14.705 33.94 14.705 36 16 C35.01 16.495 35.01 16.495 34 17 C33.01 16.67 32.02 16.34 31 16 C30.01 16.495 30.01 16.495 29 17 C26.525 15.886 24.321 14.418 22 13 C21.34 16.96 20.68 20.92 20 25 C19.34 25 18.68 25 18 25 C18.33 20.71 18.66 16.42 19 12 C13.72 11.01 8.44 10.02 3 9 C3 14.28 3 19.56 3 25 C2.01 25 1.02 25 0 25 C0 20.38 0 15.76 0 11 C-1.238 11.021 -2.475 11.041 -3.75 11.062 C-6.664 11.068 -9.21 10.93 -12 10 C-11.67 9.01 -11.34 8.02 -11 7 C-10.01 7 -9.02 7 -8 7 C-8 6.34 -8 5.68 -8 5 C-5.36 5.33 -2.72 5.66 0 6 C0 4.02 0 2.04 0 0 Z " fill="#000000" transform="translate(270,49)"/>
<path d="M0 0 C0.66 0 1.32 0 2 0 C2 3.63 2 7.26 2 11 C5.3 10.34 8.6 9.68 12 9 C12 9.99 12 10.98 12 12 C13.65 12 15.3 12 17 12 C17 12.99 17 13.98 17 15 C14.525 14.505 14.525 14.505 12 14 C12 14.66 12 15.32 12 16 C8.7 15.01 5.4 14.02 2 13 C2 16.96 2 20.92 2 25 C1.34 25 0.68 25 0 25 C0 21.04 0 17.08 0 13 C-2.481 13.281 -4.959 13.574 -7.438 13.875 C-8.145 13.954 -8.852 14.032 -9.58 14.113 C-11.397 14.339 -13.201 14.663 -15 15 C-16.26 17.521 -15.919 18.854 -15.562 21.625 C-15.461 22.442 -15.359 23.26 -15.254 24.102 C-15.17 24.728 -15.086 25.355 -15 26 C-15.99 26 -16.98 26 -18 26 C-18 22.7 -18 19.4 -18 16 C-19.361 16.773 -19.361 16.773 -20.75 17.562 C-24.145 19.064 -24.706 19.136 -28 18 C-28.99 18.33 -29.98 18.66 -31 19 C-31 16 -31 16 -29.793 14.324 C-27.483 12.618 -26.151 12.689 -23.312 12.812 C-21.889 12.874 -20.466 12.936 -19 13 C-19 9.04 -19 5.08 -19 1 C-18.34 1 -17.68 1 -17 1 C-17 4.63 -17 8.26 -17 12 C-8.585 11.505 -8.585 11.505 0 11 C0 7.37 0 3.74 0 0 Z " fill="#000000" transform="translate(100,44)"/>
<path d="M0 0 C2.996 2.562 4.268 5.369 5.875 8.938 C6.48 10.264 7.086 11.591 7.691 12.918 C8.042 13.692 8.393 14.466 8.754 15.263 C11.122 20.464 13.524 25.649 15.926 30.834 C16.805 32.734 17.681 34.637 18.556 36.539 C19.101 37.717 19.646 38.895 20.207 40.109 C20.697 41.171 21.186 42.233 21.691 43.327 C22.989 46.127 22.989 46.127 25 49 C26.485 48.505 26.485 48.505 28 48 C28.994 56.489 28.891 64.504 28 73 C27.01 73 26.02 73 25 73 C24.925 71.768 24.85 70.535 24.773 69.266 C24.112 60.324 23.255 52.929 18.711 45.027 C16.668 41.412 15.059 37.693 13.438 33.875 C11.176 28.621 8.792 23.475 6.199 18.375 C4.829 15.661 3.492 12.935 2.188 10.188 C1.769 9.315 1.35 8.442 0.918 7.543 C-0.053 4.852 -0.178 2.837 0 0 Z " fill="#000000" transform="translate(245,37)"/>
<path d="M0 0 C1.857 0.262 1.857 0.262 4 1 C5.227 2.638 5.227 2.638 6.293 4.801 C8.243 8.569 10.292 12.225 12.488 15.855 C13.109 16.884 13.729 17.913 14.369 18.973 C15.01 20.034 15.652 21.095 16.312 22.188 C21.66 31.061 26.938 39.96 32 49 C32.33 46.36 32.66 43.72 33 41 C33.66 41 34.32 41 35 41 C35.061 41.748 35.121 42.495 35.184 43.266 C35.267 44.25 35.351 45.235 35.438 46.25 C35.519 47.225 35.6 48.199 35.684 49.203 C35.921 51.894 35.921 51.894 36.531 54.031 C37.115 56.482 37.096 58.734 37.062 61.25 C37.053 62.142 37.044 63.034 37.035 63.953 C37.024 64.629 37.012 65.304 37 66 C36.01 66 35.02 66 34 66 C34 63.03 34 60.06 34 57 C33.01 57 32.02 57 31 57 C30.67 55.783 30.34 54.566 30 53.312 C27.401 45.454 22.473 38.518 17.746 31.793 C16 29 16 29 16 26 C15.34 26 14.68 26 14 26 C13.66 25.357 13.319 24.714 12.969 24.051 C9.406 17.408 5.577 11.012 1.539 4.652 C0 2 0 2 0 0 Z " fill="#000000" transform="translate(51,40)"/>
<path d="M0 0 C3.062 0.188 3.062 0.188 5.062 2.188 C5.723 1.527 6.382 0.868 7.062 0.188 C10.062 -0.125 10.062 -0.125 13.062 0.188 C15.128 3.285 15.357 4.142 15.375 7.688 C15.392 8.461 15.409 9.234 15.426 10.031 C14.976 12.698 14.222 13.599 12.062 15.188 C8.721 14.943 7.457 14.582 5.062 12.188 C4.438 9.562 4.438 9.562 4.062 7.188 C1.092 9.663 1.092 9.663 -1.938 12.188 C0.373 12.517 2.683 12.848 5.062 13.188 C4.733 13.848 4.402 14.507 4.062 15.188 C1.092 15.188 -1.877 15.188 -4.938 15.188 C-4.938 13.538 -4.938 11.887 -4.938 10.188 C-4.277 10.188 -3.618 10.188 -2.938 10.188 C-2.938 9.527 -2.938 8.868 -2.938 8.188 C-2.298 7.94 -1.659 7.692 -1 7.438 C1.25 6.372 1.25 6.372 1.812 4.062 C1.895 3.444 1.978 2.825 2.062 2.188 C1.072 2.188 0.082 2.188 -0.938 2.188 C-1.928 3.673 -1.928 3.673 -2.938 5.188 C-3.598 5.188 -4.257 5.188 -4.938 5.188 C-3.821 0.244 -3.821 0.244 0 0 Z " fill="#000000" transform="translate(332.9375,304.8125)"/>
<path d="M0 0 C3.562 0.312 3.562 0.312 5.5 1.375 C7.202 4.478 6.988 6.85 6.562 10.312 C4.562 12.75 4.562 12.75 2.562 14.312 C3.882 14.642 5.202 14.973 6.562 15.312 C6.562 16.962 6.562 18.613 6.562 20.312 C2.273 20.312 -2.018 20.312 -6.438 20.312 C-5.567 15.874 -4.955 13.371 -1.312 10.562 C-0.364 9.82 0.585 9.078 1.562 8.312 C1.562 7.322 1.562 6.332 1.562 5.312 C-1.555 5.959 -1.555 5.959 -2.438 8.312 C-3.428 8.312 -4.417 8.312 -5.438 8.312 C-5.562 5.438 -5.562 5.438 -5.438 2.312 C-3.438 0.312 -3.438 0.312 0 0 Z " fill="#000000" transform="translate(240.4375,10.6875)"/>
<path d="M0 0 C2.812 1.562 2.812 1.562 4.375 4.375 C4.812 7.562 4.812 7.562 3.625 10.312 C1.812 12.562 1.812 12.562 -1.188 14.562 C1.782 15.058 1.782 15.058 4.812 15.562 C4.812 16.883 4.812 18.203 4.812 19.562 C0.192 19.562 -4.428 19.562 -9.188 19.562 C-7.152 13.455 -6.777 13.093 -2.188 9.562 C-1.318 7.433 -1.318 7.433 -1.188 5.562 C-2.178 5.232 -3.167 4.902 -4.188 4.562 C-4.188 5.553 -4.188 6.543 -4.188 7.562 C-5.507 7.562 -6.827 7.562 -8.188 7.562 C-8.5 5.25 -8.5 5.25 -8.188 2.562 C-5.278 -0.09 -3.919 -0.538 0 0 Z " fill="#000000" transform="translate(173.1875,10.4375)"/>
<path d="M0 0 C3.63 0 7.26 0 11 0 C11 1.32 11 2.64 11 4 C10.01 4 9.02 4 8 4 C8 7.96 8 11.92 8 16 C8.99 16 9.98 16 11 16 C11 17.32 11 18.64 11 20 C7.37 20 3.74 20 0 20 C0.33 18.68 0.66 17.36 1 16 C1.66 15.67 2.32 15.34 3 15 C3 11.37 3 7.74 3 4 C2.01 4 1.02 4 0 4 C0 2.68 0 1.36 0 0 Z " fill="#000000" transform="translate(9,11)"/>
<path d="M0 0 C1.32 0 2.64 0 4 0 C4 6.27 4 12.54 4 19 C2.35 19 0.7 19 -1 19 C-1 15.04 -1 11.08 -1 7 C-2.32 6.67 -3.64 6.34 -5 6 C-5 5.01 -5 4.02 -5 3 C-3.35 2.67 -1.7 2.34 0 2 C0 1.34 0 0.68 0 0 Z " fill="#000000" transform="translate(368,11)"/>
<path d="M0 0 C1.32 0 2.64 0 4 0 C4 6.6 4 13.2 4 20 C2.35 19.67 0.7 19.34 -1 19 C-1 15.37 -1 11.74 -1 8 C-2.32 7.67 -3.64 7.34 -5 7 C-5 6.01 -5 5.02 -5 4 C-4.361 3.711 -3.721 3.422 -3.062 3.125 C-0.848 2.172 -0.848 2.172 0 0 Z " fill="#000000" transform="translate(48,12)"/>
<path d="M0 0 C0.66 0 1.32 0 2 0 C2 1.98 2 3.96 2 6 C4.31 6 6.62 6 9 6 C9 4.02 9 2.04 9 0 C9.99 0.33 10.98 0.66 12 1 C12 5.29 12 9.58 12 14 C11.01 14.33 10.02 14.66 9 15 C9 12.69 9 10.38 9 8 C6.69 8 4.38 8 2 8 C2 10.31 2 12.62 2 15 C1.34 15 0.68 15 0 15 C0 10.05 0 5.1 0 0 Z " fill="#000000" transform="translate(309,305)"/>
<path d="M0 0 C0.99 0 1.98 0 3 0 C3.029 3.771 3.047 7.542 3.062 11.312 C3.071 12.384 3.079 13.456 3.088 14.561 C3.091 15.589 3.094 16.617 3.098 17.676 C3.103 18.624 3.108 19.572 3.114 20.548 C3 23 3 23 2 26 C1.34 26 0.68 26 0 26 C0 17.42 0 8.84 0 0 Z " fill="#000000" transform="translate(270,157)"/>
<path d="M0 0 C0.66 0 1.32 0 2 0 C2.061 0.771 2.121 1.542 2.184 2.336 C2.267 3.339 2.351 4.342 2.438 5.375 C2.559 6.872 2.559 6.872 2.684 8.398 C2.85 10.979 2.85 10.979 4 13 C3.67 13.66 3.34 14.32 3 15 C2.772 16.871 2.59 18.747 2.438 20.625 C2.312 22.129 2.312 22.129 2.184 23.664 C2.123 24.435 2.062 25.206 2 26 C1.34 25.67 0.68 25.34 0 25 C0 16.75 0 8.5 0 0 Z " fill="#000000" transform="translate(270,193)"/>
<path d="M0 0 C0.99 0.33 1.98 0.66 3 1 C4.25 8.625 4.25 8.625 2 12 C1.01 11.67 0.02 11.34 -1 11 C-2.231 4.6 -2.231 4.6 -1.062 1.562 C-0.712 1.047 -0.361 0.531 0 0 Z " fill="#FFFFFF" transform="translate(342,306)"/>
<path d="M0 0 C0.66 0 1.32 0 2 0 C1.724 4.147 1.426 8.292 1.125 12.438 C1.046 13.622 0.968 14.806 0.887 16.025 C0.803 17.15 0.719 18.275 0.633 19.434 C0.559 20.476 0.486 21.518 0.411 22.592 C0.275 23.386 0.14 24.181 0 25 C-0.66 25.33 -1.32 25.66 -2 26 C-2.278 4.556 -2.278 4.556 0 0 Z " fill="#000000" transform="translate(275,229)"/>
<path d="M0 0 C0.99 0 1.98 0 3 0 C3 0.99 3 1.98 3 3 C4.32 3.33 5.64 3.66 7 4 C7 4.66 7 5.32 7 6 C5.68 6 4.36 6 3 6 C3 7.32 3 8.64 3 10 C2.01 10 1.02 10 0 10 C0 8.68 0 7.36 0 6 C-1.32 6 -2.64 6 -4 6 C-3.67 5.01 -3.34 4.02 -3 3 C-2.01 3 -1.02 3 0 3 C0 2.01 0 1.02 0 0 Z " fill="#000000" transform="translate(90,40)"/>
<path d="M0 0 C0.66 0 1.32 0 2 0 C2.843 8.357 3.122 16.602 3 25 C2.34 24.67 1.68 24.34 1 24 C1 23.01 1 22.02 1 21 C0.34 21 -0.32 21 -1 21 C-1 20.34 -1 19.68 -1 19 C-0.34 19 0.32 19 1 19 C0.835 17.721 0.67 16.442 0.5 15.125 C-0.07 10.072 -0.095 5.079 0 0 Z " fill="#000000" transform="translate(93,189)"/>
<path d="M0 0 C2.97 0 5.94 0 9 0 C8.39 4.147 6.897 7.286 5 11 C4.314 13.235 4.314 13.235 4 15 C3.34 15 2.68 15 2 15 C2.468 10.224 3.243 6.955 6 3 C3.03 2.505 3.03 2.505 0 2 C0 1.34 0 0.68 0 0 Z " fill="#000000" transform="translate(360,305)"/>
<path d="M0 0 C0.66 0 1.32 0 2 0 C2 4.95 2 9.9 2 15 C1.34 15 0.68 15 0 15 C0 11.37 0 7.74 0 4 C-1.32 3.67 -2.64 3.34 -4 3 C-3.01 3 -2.02 3 -1 3 C-0.67 2.01 -0.34 1.02 0 0 Z " fill="#000000" transform="translate(354,305)"/>
<path d="M0 0 C0 0.99 0 1.98 0 3 C-3.63 3 -7.26 3 -11 3 C-11 2.01 -11 1.02 -11 0 C-7.018 -1.054 -4.018 -0.841 0 0 Z " fill="#000000" transform="translate(286,45)"/>
</svg>
