<?xml version="1.0" encoding="UTF-8"?>
<!-- Generator: visioncortex VTracer 0.6.4 -->
<svg version="1.1" xmlns="http://www.w3.org/2000/svg" width="451" height="383">
<path d="M0 0 C148.83 0 297.66 0 451 0 C451 126.39 451 252.78 451 383 C302.17 383 153.34 383 0 383 C0 256.61 0 130.22 0 0 Z " fill="#FEFEFE" transform="translate(0,0)"/>
<path d="M0 0 C0.948 0.308 1.896 0.616 2.873 0.934 C3.772 1.234 4.671 1.534 5.598 1.844 C6.409 2.114 7.219 2.384 8.055 2.662 C9.938 3.5 9.938 3.5 10.938 5.5 C4.041 4.686 -2.4 2.137 -8.92 -0.148 C-15.914 -2.481 -20.023 -2.847 -27.062 -0.5 C-27.062 0.16 -27.062 0.82 -27.062 1.5 C-26.512 1.635 -25.962 1.771 -25.395 1.91 C-17.543 3.943 -9.9 6.518 -2.238 9.162 C-1.355 9.463 -0.472 9.764 0.438 10.074 C1.232 10.348 2.026 10.623 2.844 10.905 C5.056 11.637 5.056 11.637 7.938 11.5 C8.433 12.985 8.433 12.985 8.938 14.5 C9.928 14.17 10.917 13.84 11.938 13.5 C11.938 14.16 11.938 14.82 11.938 15.5 C10.948 15.995 10.948 15.995 9.938 16.5 C9.739 22.584 9.739 22.584 10.938 28.5 C9.947 28.83 8.958 29.16 7.938 29.5 C7.308 39.742 7.929 47.272 12.938 56.5 C13.267 56.83 13.597 57.16 13.938 57.5 C15.463 57.411 16.984 57.255 18.5 57.062 C19.326 56.961 20.153 56.859 21.004 56.754 C21.642 56.67 22.28 56.586 22.938 56.5 C22.731 55.613 22.525 54.726 22.312 53.812 C21.895 50.125 22.028 48.654 23.938 45.5 C27.413 42.719 30.433 40.731 34.938 40.5 C37.75 41.438 37.75 41.438 39.938 42.5 C39.938 43.16 39.938 43.82 39.938 44.5 C40.597 44.5 41.257 44.5 41.938 44.5 C45.431 49.885 45.723 55.255 44.938 61.5 C44.278 62.16 43.618 62.82 42.938 63.5 C41.166 78.87 45.355 96.627 53.938 109.5 C56.489 110.705 56.489 110.705 58.938 111.5 C58.938 112.16 58.938 112.82 58.938 113.5 C59.597 113.5 60.257 113.5 60.938 113.5 C64.217 119.004 65.796 123.058 64.938 129.5 C62.73 132.469 61.452 133.329 57.938 134.5 C57.938 135.16 57.938 135.82 57.938 136.5 C59.395 136.554 60.854 136.593 62.312 136.625 C63.125 136.648 63.937 136.671 64.773 136.695 C67.151 136.714 67.151 136.714 68.938 134.5 C68.938 135.16 68.938 135.82 68.938 136.5 C69.636 136.633 70.335 136.766 71.055 136.902 C71.965 137.079 72.875 137.256 73.812 137.438 C74.717 137.612 75.622 137.786 76.555 137.965 C78.938 138.5 78.938 138.5 80.938 139.5 C80.938 140.16 80.938 140.82 80.938 141.5 C81.597 141.5 82.257 141.5 82.938 141.5 C84.558 144.741 84.205 148.254 84.25 151.812 C84.279 152.572 84.308 153.332 84.338 154.115 C84.383 158.073 84.235 160.026 82.078 163.461 C77.371 167.945 71.826 167.876 65.629 167.758 C61.068 167.321 57.726 165.871 54.062 163.062 C52.938 161.5 52.938 161.5 52.682 159.568 C52.1 157.293 52.1 157.293 49.764 156.1 C48.349 155.478 48.349 155.478 46.906 154.844 C45.867 154.378 44.828 153.913 43.758 153.434 C42.114 152.724 42.114 152.724 40.438 152 C39.373 151.527 38.308 151.054 37.211 150.566 C35.108 149.634 33 148.71 30.889 147.795 C29.039 146.983 27.198 146.149 25.373 145.283 C20.96 143.197 17.528 142.051 12.562 142 C6.113 141.704 0.836 140.042 -5.062 137.5 C-5.062 136.84 -5.062 136.18 -5.062 135.5 C-6.713 134.84 -8.362 134.18 -10.062 133.5 C-10.062 132.84 -10.062 132.18 -10.062 131.5 C-11.792 131.615 -13.521 131.743 -15.25 131.875 C-16.694 131.979 -16.694 131.979 -18.168 132.086 C-21.091 132.504 -23.342 133.393 -26.062 134.5 C-32.077 135.318 -36.76 134.372 -42.062 131.5 C-43.572 128.481 -43.247 125.37 -43.25 122.062 C-43.262 121.381 -43.274 120.7 -43.287 119.998 C-43.298 116.272 -43.183 114.68 -41.062 111.5 C-40.403 111.5 -39.742 111.5 -39.062 111.5 C-39.57 110.62 -40.078 109.739 -40.602 108.832 C-43.032 103.137 -41.981 97.203 -41.438 91.188 C-41.354 90.015 -41.27 88.843 -41.184 87.635 C-40.382 77.805 -39.248 69.171 -32.465 61.68 C-31.062 60.5 -31.062 60.5 -29.062 60.5 C-28.959 59.407 -28.856 58.314 -28.75 57.188 C-27.633 48.5 -24.882 40.889 -21.137 33.016 C-19.345 28.82 -19.062 25.05 -19.062 20.5 C-19.75 20.318 -20.437 20.136 -21.145 19.949 C-22.046 19.698 -22.947 19.446 -23.875 19.188 C-25.215 18.822 -25.215 18.822 -26.582 18.449 C-29.258 17.425 -30.45 16.859 -32.062 14.5 C-32.68 11.469 -32.68 11.469 -32.938 8 C-33.088 6.283 -33.088 6.283 -33.242 4.531 C-33.062 1.5 -33.062 1.5 -31.824 -0.262 C-29.918 -1.601 -28.087 -2.771 -26 -3.812 C-25.308 -4.18 -24.616 -4.547 -23.902 -4.926 C-16.113 -6.501 -7.315 -2.468 0 0 Z " fill="#272727" transform="translate(82.0625,23.5)"/>
<path d="M0 0 C1.103 0.432 2.207 0.864 3.344 1.309 C4.906 1.929 4.906 1.929 6.5 2.562 C7.397 2.863 8.294 3.163 9.219 3.473 C11.988 4.796 13.029 5.875 14.5 8.562 C15.945 16.774 14.187 23.753 9.5 30.562 C7.77 32.836 7.77 32.836 5.5 34.562 C2.152 34.883 2.152 34.883 -1.562 34.688 C-6.876 34.272 -6.876 34.272 -11.5 36.562 C-13.214 37 -14.947 37.371 -16.688 37.688 C-18.039 37.939 -18.039 37.939 -19.418 38.195 C-20.105 38.316 -20.792 38.438 -21.5 38.562 C-21.686 40.326 -21.686 40.326 -21.875 42.125 C-23.146 47.446 -26.796 49.453 -31.188 52.312 C-33.5 53.562 -33.5 53.562 -35.5 53.562 C-35.5 54.222 -35.5 54.882 -35.5 55.562 C-36.883 56.531 -38.274 57.49 -39.699 58.394 C-42.923 60.486 -45.94 62.864 -49 65.188 C-54.76 69.536 -60.57 73.796 -66.464 77.961 C-71.461 81.502 -76.326 85.201 -81.172 88.945 C-83.5 90.562 -83.5 90.562 -85.5 90.562 C-85.5 91.222 -85.5 91.882 -85.5 92.562 C-87.266 93.973 -87.266 93.973 -89.75 95.625 C-95 99.18 -100.015 102.968 -105.031 106.84 C-107.5 108.562 -107.5 108.562 -109.5 108.562 C-109.5 109.222 -109.5 109.882 -109.5 110.562 C-111.965 112.436 -114.442 114.198 -117 115.938 C-118.568 117.023 -120.134 118.11 -121.699 119.199 C-122.5 119.757 -123.301 120.314 -124.126 120.888 C-127.742 123.439 -131.282 126.084 -134.812 128.75 C-135.479 129.253 -136.146 129.755 -136.833 130.273 C-138.723 131.701 -140.612 133.131 -142.5 134.562 C-150.272 140.444 -158.124 146.195 -166.042 151.877 C-170.788 155.292 -175.445 158.782 -179.969 162.488 C-181.5 163.562 -181.5 163.562 -183.5 163.562 C-183.5 164.222 -183.5 164.882 -183.5 165.562 C-187.885 168.562 -187.885 168.562 -190.5 168.562 C-190.5 169.222 -190.5 169.882 -190.5 170.562 C-192.698 172.269 -194.896 173.867 -197.188 175.438 C-198.442 176.309 -199.696 177.181 -200.949 178.055 C-201.861 178.685 -201.861 178.685 -202.791 179.328 C-204.32 180.433 -205.769 181.648 -207.203 182.875 C-209.691 184.703 -210.565 184.985 -213.562 184.688 C-218.007 184.375 -218.007 184.375 -221.5 186.562 C-221.644 187.656 -221.789 188.749 -221.938 189.875 C-222.5 193.562 -222.5 193.562 -224.938 195.75 C-228.375 199.523 -228.39 202.749 -228.848 207.723 C-229.637 211.159 -230.807 212.351 -233.5 214.562 C-240.604 218.983 -249.863 218.753 -257.887 217.059 C-261.939 215.52 -264.459 213.33 -266.5 209.562 C-266.916 206.726 -267.125 203.951 -267.227 201.086 C-267.33 198.317 -267.33 198.317 -269.5 195.562 C-270.029 191.594 -269.658 189.846 -267.688 186.312 C-265.5 183.562 -265.5 183.562 -262.5 181.562 C-261.795 179.24 -261.128 176.907 -260.5 174.562 C-259.51 173.572 -259.51 173.572 -258.5 172.562 C-257.51 172.562 -256.52 172.562 -255.5 172.562 C-255.521 171.639 -255.542 170.716 -255.563 169.764 C-255.632 166.337 -255.682 162.91 -255.72 159.483 C-255.74 157.999 -255.767 156.516 -255.802 155.033 C-255.85 152.901 -255.873 150.77 -255.891 148.637 C-255.912 147.354 -255.933 146.071 -255.954 144.749 C-255.5 141.562 -255.5 141.562 -253.601 139.62 C-251.5 138.562 -251.5 138.562 -249.5 138.562 C-249.5 137.243 -249.5 135.923 -249.5 134.562 C-248.84 134.562 -248.18 134.562 -247.5 134.562 C-247.376 135.491 -247.376 135.491 -247.25 136.438 C-246.588 139.097 -246.588 139.097 -242.5 140.562 C-242.5 151.452 -242.5 162.342 -242.5 173.562 C-240.85 173.893 -239.2 174.222 -237.5 174.562 C-236.84 175.553 -236.18 176.543 -235.5 177.562 C-235.17 177.232 -234.84 176.903 -234.5 176.562 C-232.167 176.562 -229.833 176.562 -227.5 176.562 C-225.19 176.134 -225.19 176.134 -223.5 175.562 C-223.459 174.511 -223.417 173.459 -223.375 172.375 C-222.221 167.345 -220.698 166.39 -216.5 163.562 C-215.84 163.562 -215.18 163.562 -214.5 163.562 C-214.5 162.903 -214.5 162.243 -214.5 161.562 C-212.953 160.371 -212.953 160.371 -210.75 159 C-205.617 155.711 -200.821 152.048 -196.004 148.32 C-193.5 146.562 -193.5 146.562 -191.5 146.562 C-191.5 145.903 -191.5 145.243 -191.5 144.562 C-189.535 143.178 -187.53 141.85 -185.5 140.562 C-184.757 139.985 -184.015 139.408 -183.25 138.812 C-181.5 137.562 -181.5 137.562 -179.5 137.562 C-179.5 136.903 -179.5 136.243 -179.5 135.562 C-178.205 134.652 -176.899 133.756 -175.559 132.914 C-171.884 130.502 -168.408 127.805 -164.891 125.172 C-162.5 123.562 -162.5 123.562 -160.5 123.562 C-160.5 122.903 -160.5 122.243 -160.5 121.562 C-159.11 120.588 -157.712 119.623 -156.279 118.714 C-153.171 116.702 -150.262 114.423 -147.312 112.188 C-145.911 111.132 -144.508 110.078 -143.105 109.023 C-142.366 108.468 -141.627 107.912 -140.865 107.339 C-136.625 104.154 -132.38 100.977 -128.125 97.812 C-127.298 97.192 -126.472 96.571 -125.62 95.932 C-124.851 95.362 -124.082 94.791 -123.289 94.203 C-122.264 93.438 -122.264 93.438 -121.217 92.657 C-119.5 91.562 -119.5 91.562 -117.5 91.562 C-117.5 90.903 -117.5 90.243 -117.5 89.562 C-116.146 88.611 -114.783 87.671 -113.386 86.785 C-109.68 84.382 -106.174 81.689 -102.625 79.062 C-101.787 78.444 -100.949 77.825 -100.086 77.188 C-94.874 73.334 -89.681 69.457 -84.5 65.562 C-81.834 63.561 -79.167 61.562 -76.5 59.562 C-75.673 58.942 -74.845 58.321 -73.993 57.682 C-71.374 55.72 -68.75 53.766 -66.125 51.812 C-65.297 51.191 -64.47 50.57 -63.617 49.93 C-62.849 49.36 -62.081 48.79 -61.289 48.203 C-60.264 47.438 -60.264 47.438 -59.217 46.657 C-57.5 45.562 -57.5 45.562 -55.5 45.562 C-55.5 44.903 -55.5 44.243 -55.5 43.562 C-54.09 42.587 -52.673 41.62 -51.225 40.704 C-48.971 39.212 -46.934 37.48 -44.856 35.755 C-39.033 30.977 -34.276 27.949 -26.5 27.562 C-26.17 25.252 -25.84 22.942 -25.5 20.562 C-31.604 17.748 -37.874 15.84 -44.312 13.938 C-46.382 13.322 -48.451 12.705 -50.52 12.086 C-51.428 11.817 -52.337 11.548 -53.273 11.271 C-55.5 10.562 -55.5 10.562 -57.5 9.562 C-57.859 2.26 -57.859 2.26 -56.438 -0.5 C-50.328 -3.456 -39.977 1.742 -33.975 3.654 C-32.62 4.063 -32.62 4.063 -31.238 4.48 C-30.424 4.736 -29.61 4.991 -28.771 5.255 C-25.95 5.637 -24.827 5.159 -22.5 3.562 C-21.84 2.572 -21.18 1.583 -20.5 0.562 C-18.512 -0.641 -18.512 -0.641 -16.188 -1.688 C-15.428 -2.043 -14.669 -2.399 -13.887 -2.766 C-8.962 -4.152 -4.584 -1.805 0 0 Z " fill="#191919" transform="translate(399.5,147.4375)"/>
<path d="M0 0 C0.948 0.308 1.896 0.616 2.873 0.934 C3.772 1.234 4.671 1.534 5.598 1.844 C6.409 2.114 7.219 2.384 8.055 2.662 C9.938 3.5 9.938 3.5 10.938 5.5 C4.041 4.686 -2.4 2.137 -8.92 -0.148 C-15.914 -2.481 -20.023 -2.847 -27.062 -0.5 C-27.062 0.16 -27.062 0.82 -27.062 1.5 C-26.512 1.635 -25.962 1.771 -25.395 1.91 C-17.543 3.943 -9.9 6.518 -2.238 9.162 C-1.355 9.463 -0.472 9.764 0.438 10.074 C1.232 10.348 2.026 10.623 2.844 10.905 C5.056 11.637 5.056 11.637 7.938 11.5 C8.433 12.985 8.433 12.985 8.938 14.5 C9.928 14.17 10.917 13.84 11.938 13.5 C11.938 14.16 11.938 14.82 11.938 15.5 C10.948 15.995 10.948 15.995 9.938 16.5 C9.739 22.584 9.739 22.584 10.938 28.5 C9.947 28.83 8.958 29.16 7.938 29.5 C7.308 39.742 7.929 47.272 12.938 56.5 C13.267 56.83 13.597 57.16 13.938 57.5 C15.463 57.411 16.984 57.255 18.5 57.062 C19.326 56.961 20.153 56.859 21.004 56.754 C21.642 56.67 22.28 56.586 22.938 56.5 C22.731 55.613 22.525 54.726 22.312 53.812 C21.895 50.125 22.028 48.654 23.938 45.5 C27.413 42.719 30.433 40.731 34.938 40.5 C37.75 41.438 37.75 41.438 39.938 42.5 C39.938 43.16 39.938 43.82 39.938 44.5 C40.597 44.5 41.257 44.5 41.938 44.5 C45.431 49.885 45.723 55.255 44.938 61.5 C44.278 62.16 43.618 62.82 42.938 63.5 C41.166 78.87 45.355 96.627 53.938 109.5 C56.489 110.705 56.489 110.705 58.938 111.5 C58.938 112.16 58.938 112.82 58.938 113.5 C59.597 113.5 60.257 113.5 60.938 113.5 C64.217 119.004 65.796 123.058 64.938 129.5 C62.938 132 62.938 132 60.938 133.5 C60.278 133.17 59.618 132.84 58.938 132.5 C59.433 132.17 59.928 131.84 60.438 131.5 C62.766 128.396 62.46 125.183 61.938 121.5 C60.373 117.477 59.55 115.909 55.938 113.5 C54.947 114.16 53.957 114.82 52.938 115.5 C53.298 115.996 53.659 116.493 54.031 117.004 C57.304 121.795 58.541 124.702 57.938 130.5 C56.644 128.013 55.552 125.544 54.5 122.938 C52.874 119.127 52.874 119.127 49.938 116.5 C47.312 116.249 47.312 116.249 44.938 116.5 C43.777 120.756 44.176 124.184 44.938 128.5 C42.937 127.5 42.937 127.5 41.938 124.5 C39.048 122.908 36.134 121.544 33.129 120.193 C28.01 117.794 25.809 115.799 23.806 110.514 C23.454 109.367 23.101 108.221 22.738 107.039 C22.334 105.755 21.929 104.472 21.523 103.189 C21.211 102.191 21.211 102.191 20.893 101.173 C17.627 90.765 14.345 80.943 8.238 71.801 C7.809 71.042 7.38 70.282 6.938 69.5 C7.433 68.015 7.433 68.015 7.938 66.5 C10.992 65.586 10.992 65.586 14.812 64.875 C19.934 63.915 19.934 63.915 24.938 62.5 C24.938 61.84 24.938 61.18 24.938 60.5 C24.225 60.644 23.512 60.789 22.777 60.938 C15.615 62.326 9.135 63.245 1.938 61.5 C1.938 60.84 1.938 60.18 1.938 59.5 C5.072 57.642 7.312 57.299 10.938 57.5 C10.319 56.51 9.7 55.52 9.062 54.5 C4.503 46.383 4.688 38.604 4.938 29.5 C3.287 29.5 1.638 29.5 -0.062 29.5 C-1.237 31.849 -1.178 33.238 -1.16 35.852 C-1.157 36.702 -1.154 37.553 -1.15 38.43 C-1.142 39.319 -1.134 40.209 -1.125 41.125 C-1.12 42.022 -1.116 42.919 -1.111 43.844 C-1.1 46.063 -1.083 48.281 -1.062 50.5 C-2.052 50.005 -2.052 50.005 -3.062 49.5 C-4.155 45.667 -4.227 41.905 -4.25 37.938 C-4.264 36.822 -4.278 35.707 -4.293 34.559 C-4.068 31.577 -3.821 29.901 -2.062 27.5 C4.084 26.073 4.084 26.073 6.938 27.5 C7.13 22.684 7.116 18.846 4.938 14.5 C2.226 13.095 -0.036 12.171 -2.914 11.289 C-4.075 10.902 -4.075 10.902 -5.26 10.508 C-7.729 9.691 -10.207 8.908 -12.688 8.125 C-14.365 7.576 -16.042 7.026 -17.719 6.473 C-21.826 5.123 -25.941 3.804 -30.062 2.5 C-30.09 3.937 -30.109 5.375 -30.125 6.812 C-30.137 7.613 -30.148 8.414 -30.16 9.238 C-30.159 11.669 -30.159 11.669 -29.062 14.5 C-26.802 15.637 -26.802 15.637 -24.125 16.5 C-19.281 18.173 -19.281 18.173 -17.062 21.5 C-16.463 27.982 -17.881 32.476 -20.438 38.375 C-23.063 44.732 -25.069 50.655 -26.062 57.5 C-25.35 57.006 -24.637 56.513 -23.902 56.004 C-14.389 49.641 -14.389 49.641 -8.062 49.5 C-7.733 50.16 -7.403 50.82 -7.062 51.5 C-9.042 51.5 -11.023 51.5 -13.062 51.5 C-12.733 52.49 -12.403 53.48 -12.062 54.5 C-12.906 54.581 -13.749 54.662 -14.617 54.746 C-21.556 56.265 -29.049 61.091 -33.789 66.453 C-36.778 71.884 -37.315 78.437 -38.062 84.5 C-38.175 85.36 -38.287 86.22 -38.402 87.105 C-39.115 93.243 -39.168 99.327 -39.062 105.5 C-38.403 104.18 -37.742 102.86 -37.062 101.5 C-34.688 101.812 -34.688 101.812 -32.062 102.5 C-29.772 105.935 -29.884 107.485 -30.062 111.5 C-33.032 112.49 -33.032 112.49 -36.062 113.5 C-34.98 113.883 -34.98 113.883 -33.875 114.273 C-30.883 115.578 -28.652 117.144 -26.062 119.125 C-12.434 129.399 -12.434 129.399 3.75 132.625 C4.558 132.629 5.365 132.633 6.197 132.637 C10.241 132.63 13.992 132.508 17.938 131.5 C16.762 130.881 16.762 130.881 15.562 130.25 C12.822 128.423 11.855 127.619 10.938 124.5 C11.312 121.75 11.312 121.75 11.938 119.5 C13.918 119.005 13.918 119.005 15.938 118.5 C20.366 123.643 20.366 123.643 20.938 127.5 C21.927 127.17 22.918 126.84 23.938 126.5 C23.608 127.82 23.278 129.14 22.938 130.5 C24.107 130.479 25.276 130.459 26.48 130.438 C38.705 130.493 38.705 130.493 41.898 133.102 C43 135.125 43 135.125 43.891 137.312 C45.204 140.056 46.857 141.277 49.25 143.125 C52.877 146.085 52.877 146.085 53.438 149.938 C53.272 150.783 53.108 151.629 52.938 152.5 C46.033 151.349 40.613 149.037 34.441 145.742 C32.105 144.352 32.105 144.352 29.938 144.5 C35.218 147.14 40.498 149.78 45.938 152.5 C42.365 153.691 41.911 153.302 38.664 151.699 C37.839 151.299 37.014 150.899 36.164 150.486 C34.876 149.843 34.876 149.843 33.562 149.188 C23.648 144.071 23.648 144.071 12.812 142.125 C6.3 141.731 0.901 140.069 -5.062 137.5 C-5.062 136.84 -5.062 136.18 -5.062 135.5 C-6.713 134.84 -8.362 134.18 -10.062 133.5 C-10.062 132.84 -10.062 132.18 -10.062 131.5 C-11.792 131.615 -13.521 131.743 -15.25 131.875 C-16.694 131.979 -16.694 131.979 -18.168 132.086 C-21.091 132.504 -23.342 133.393 -26.062 134.5 C-32.077 135.318 -36.76 134.372 -42.062 131.5 C-43.572 128.481 -43.247 125.37 -43.25 122.062 C-43.262 121.381 -43.274 120.7 -43.287 119.998 C-43.298 116.272 -43.183 114.68 -41.062 111.5 C-40.403 111.5 -39.742 111.5 -39.062 111.5 C-39.57 110.62 -40.078 109.739 -40.602 108.832 C-43.032 103.137 -41.981 97.203 -41.438 91.188 C-41.354 90.015 -41.27 88.843 -41.184 87.635 C-40.382 77.805 -39.248 69.171 -32.465 61.68 C-31.062 60.5 -31.062 60.5 -29.062 60.5 C-28.959 59.407 -28.856 58.314 -28.75 57.188 C-27.633 48.5 -24.882 40.889 -21.137 33.016 C-19.345 28.82 -19.062 25.05 -19.062 20.5 C-19.75 20.318 -20.437 20.136 -21.145 19.949 C-22.046 19.698 -22.947 19.446 -23.875 19.188 C-25.215 18.822 -25.215 18.822 -26.582 18.449 C-29.258 17.425 -30.45 16.859 -32.062 14.5 C-32.68 11.469 -32.68 11.469 -32.938 8 C-33.088 6.283 -33.088 6.283 -33.242 4.531 C-33.062 1.5 -33.062 1.5 -31.824 -0.262 C-29.918 -1.601 -28.087 -2.771 -26 -3.812 C-25.308 -4.18 -24.616 -4.547 -23.902 -4.926 C-16.113 -6.501 -7.315 -2.468 0 0 Z " fill="#000000" transform="translate(82.0625,23.5)"/>
<path d="M0 0 C2.864 -0.742 2.864 -0.742 5 -2 C7.392 1.588 7.824 2.778 7 7 C4.614 9.599 1.816 11.541 -1.062 13.562 C-2.191 14.389 -2.191 14.389 -3.342 15.232 C-4.832 16.32 -6.331 17.398 -7.836 18.465 C-9.251 19.468 -10.656 20.485 -12.05 21.515 C-16.781 25 -16.781 25 -19 25 C-19 25.66 -19 26.32 -19 27 C-21.117 28.727 -21.117 28.727 -23.875 30.625 C-24.78 31.257 -25.685 31.888 -26.617 32.539 C-29 34 -29 34 -31 34 C-31 34.66 -31 35.32 -31 36 C-32.37 37.186 -32.37 37.186 -34.297 38.504 C-35.003 38.993 -35.71 39.483 -36.437 39.987 C-37.2 40.507 -37.964 41.027 -38.75 41.562 C-40.31 42.64 -41.868 43.72 -43.426 44.801 C-44.2 45.338 -44.974 45.875 -45.772 46.428 C-49.866 49.316 -53.82 52.383 -57.777 55.453 C-60 57 -60 57 -62 57 C-62 57.66 -62 58.32 -62 59 C-64.135 60.667 -66.27 62.22 -68.5 63.75 C-69.787 64.648 -71.074 65.546 -72.359 66.445 C-72.985 66.881 -73.611 67.317 -74.256 67.767 C-77.088 69.769 -79.822 71.895 -82.547 74.039 C-84 75 -84 75 -86 75 C-86 75.66 -86 76.32 -86 77 C-87.315 77.924 -88.64 78.833 -89.996 79.695 C-97.22 84.399 -104.044 89.766 -110.938 94.938 C-111.618 95.448 -112.299 95.958 -113.001 96.484 C-116.185 98.873 -119.361 101.272 -122.516 103.699 C-123.562 104.5 -124.609 105.3 -125.688 106.125 C-126.599 106.829 -127.51 107.533 -128.449 108.258 C-130.912 109.94 -133.194 111.019 -136 112 C-136 112.66 -136 113.32 -136 114 C-140.385 117 -140.385 117 -143 117 C-143 117.66 -143 118.32 -143 119 C-148.892 123.907 -155.444 128.042 -162 132 C-162.716 130.275 -163.432 128.549 -164.148 126.824 C-165.068 124.735 -165.068 124.735 -167 122 C-165.515 121.01 -165.515 121.01 -164 120 C-164.66 118.68 -165.32 117.36 -166 116 C-164.396 114.833 -162.792 113.667 -161.188 112.5 C-160.19 111.774 -159.192 111.049 -158.164 110.301 C-156.097 108.798 -154.029 107.295 -151.961 105.793 C-151.004 105.098 -150.048 104.403 -149.062 103.688 C-148.187 103.052 -147.312 102.416 -146.41 101.762 C-144.856 100.625 -143.32 99.463 -141.809 98.27 C-140 97 -140 97 -138 97 C-138 96.34 -138 95.68 -138 95 C-135.883 93.273 -135.883 93.273 -133.125 91.375 C-132.22 90.743 -131.315 90.112 -130.383 89.461 C-128 88 -128 88 -126 88 C-126 87.34 -126 86.68 -126 86 C-124.705 85.09 -123.399 84.194 -122.059 83.352 C-118.384 80.939 -114.908 78.243 -111.391 75.609 C-109 74 -109 74 -107 74 C-107 73.34 -107 72.68 -107 72 C-105.48 70.766 -105.48 70.766 -103.188 69.25 C-98.083 65.775 -93.092 62.169 -88.125 58.5 C-87.319 57.905 -86.512 57.31 -85.681 56.696 C-77.923 50.959 -70.201 45.173 -62.488 39.375 C-61.732 38.806 -60.975 38.237 -60.195 37.651 C-58.778 36.586 -57.362 35.519 -55.948 34.45 C-51.119 30.812 -46.227 27.271 -41.312 23.75 C-34.643 18.965 -28.113 14.049 -21.699 8.926 C-19.17 7.121 -16.928 5.997 -14 5 C-14 4.34 -14 3.68 -14 3 C-9.295 -1.977 -6.436 -2.265 0 0 Z " fill="#FFFFFF" transform="translate(361,189)"/>
<path d="M0 0 C3.456 0.732 6.81 1.718 10.188 2.75 C11.076 3.003 11.965 3.255 12.881 3.516 C21.059 5.973 21.059 5.973 24 10 C25.721 15.164 25.054 20.593 25 26 C29.95 27.65 34.9 29.3 40 31 C39.34 31.66 38.68 32.32 38 33 C33.05 31.35 28.1 29.7 23 28 C22.34 29.98 21.68 31.96 21 34 C19.562 36.082 19.562 36.082 18 37.812 C17.227 38.688 17.227 38.688 16.438 39.582 C14.4 41.592 13.255 41.979 10.383 42.215 C6.256 41.953 2.773 40.875 -1.125 39.562 C-7.016 37.621 -7.016 37.621 -13 36 C-13 35.34 -13 34.68 -13 34 C-13.687 34.231 -14.374 34.461 -15.082 34.699 C-22.749 37.272 -30.422 39.826 -38.099 42.37 C-39.961 42.987 -41.823 43.607 -43.684 44.228 C-47.12 45.369 -50.559 46.499 -54 47.625 C-55.061 47.979 -56.122 48.334 -57.215 48.699 C-58.196 49.018 -59.177 49.336 -60.188 49.664 C-61.477 50.089 -61.477 50.089 -62.793 50.522 C-65 51 -65 51 -68 50 C-61.791 47.054 -55.597 44.839 -49 42.938 C-37.173 39.447 -25.502 35.535 -13.832 31.556 C-12.456 31.091 -11.079 30.626 -9.703 30.16 C-8.483 29.744 -7.262 29.328 -6.005 28.899 C-3 28 -3 28 0 28 C-0.021 24.594 -0.021 24.594 -1 21 C-5.349 17.712 -9.728 17.43 -15 18 C-18.846 18.954 -22.568 20.209 -26.312 21.5 C-28.266 22.16 -30.22 22.816 -32.176 23.469 C-33.031 23.762 -33.886 24.055 -34.767 24.357 C-37 25 -37 25 -40 25 C-40.495 27.475 -40.495 27.475 -41 30 C-45.087 31.422 -48.247 32.082 -52.574 31.84 C-58.525 31.778 -63.416 33.496 -68.938 35.562 C-70.777 36.238 -72.619 36.907 -74.465 37.566 C-75.665 38.014 -75.665 38.014 -76.89 38.471 C-79 39 -79 39 -82 38 C-74.748 34.735 -67.886 32.169 -60 31 C-60 30.34 -60 29.68 -60 29 C-61.134 28.888 -62.269 28.776 -63.438 28.66 C-68.125 28.074 -72.497 26.831 -77 25.438 C-77.775 25.204 -78.549 24.97 -79.348 24.729 C-81.234 24.158 -83.117 23.58 -85 23 C-85 22.34 -85 21.68 -85 21 C-77.034 22.439 -69.402 24.559 -61.68 26.965 C-55.627 28.772 -49.616 30.446 -43.5 28 C-43.005 27.67 -42.51 27.34 -42 27 C-45.219 25.251 -48.433 24.186 -51.945 23.16 C-53.105 22.819 -54.266 22.478 -55.461 22.127 C-57.275 21.6 -57.275 21.6 -59.125 21.062 C-61.503 20.366 -63.88 19.669 -66.258 18.973 C-67.966 18.474 -67.966 18.474 -69.708 17.965 C-74.145 16.664 -78.574 15.337 -83 14 C-82.34 13.34 -81.68 12.68 -81 12 C-77.195 13.084 -73.391 14.168 -69.586 15.253 C-67.668 15.8 -65.75 16.346 -63.832 16.893 C-62.601 17.244 -61.37 17.595 -60.102 17.957 C-58.888 18.301 -57.674 18.644 -56.423 18.999 C-54.305 19.618 -52.194 20.268 -50.101 20.966 C-41.847 23.714 -35.784 22.113 -27.75 19.438 C-20.39 17 -20.39 17 -17 17 C-16.907 16.01 -16.907 16.01 -16.812 15 C-14.487 6.413 -9.399 -0.986 0 0 Z " fill="#2E2E2E" transform="translate(280,111)"/>
<path d="M0 0 C1.052 0.351 2.104 0.701 3.188 1.062 C4.854 1.103 6.522 1.111 8.188 1.062 C8.213 2.104 8.239 3.146 8.266 4.219 C8.78 18.84 11.414 31.513 18.113 44.586 C18.468 45.403 18.822 46.22 19.188 47.062 C18.692 48.053 18.692 48.053 18.188 49.062 C17.197 49.392 16.208 49.722 15.188 50.062 C13.958 53.574 13.958 53.574 13.188 57.062 C11.77 56.608 10.353 56.149 8.938 55.688 C7.754 55.305 7.754 55.305 6.547 54.914 C0.597 52.767 0.597 52.767 -1.086 49.875 C-1.449 48.947 -1.813 48.019 -2.188 47.062 C-2.609 45.99 -3.031 44.917 -3.465 43.812 C-5.259 38.82 -6.874 33.774 -8.505 28.726 C-10.672 22.163 -13.525 16.14 -16.812 10.062 C-17.818 8.065 -18.82 6.066 -19.812 4.062 C-18.753 3.785 -17.693 3.508 -16.602 3.223 C-15.214 2.857 -13.825 2.491 -12.438 2.125 C-11.739 1.943 -11.04 1.76 -10.32 1.572 C-1.935 -0.645 -1.935 -0.645 0 0 Z " fill="#FFFFFF" transform="translate(110.8125,87.9375)"/>
<path d="M0 0 C5.093 1.665 10.183 3.337 15.271 5.017 C17.003 5.588 18.735 6.156 20.468 6.722 C22.957 7.536 25.444 8.357 27.93 9.18 C29.095 9.558 29.095 9.558 30.285 9.944 C35.772 11.772 35.772 11.772 38 14 C39.142 17.998 39.081 21.865 39 26 C35.667 26 32.333 26 29 26 C26.603 33.838 27.747 43.011 29 51 C28.154 50.649 27.309 50.299 26.438 49.938 C20.897 48.427 17.868 49.02 12.887 51.633 C9.89 53.372 6.933 55.156 4 57 C4.87 48.943 7.399 41.922 10.612 34.547 C12.748 29.444 13.608 25.546 13 20 C10.721 16.471 6.741 15.531 2.961 14.062 C1 13 1 13 0 10 C-0.068 8.272 -0.085 6.542 -0.062 4.812 C-0.053 3.911 -0.044 3.01 -0.035 2.082 C-0.024 1.395 -0.012 0.708 0 0 Z " fill="#FFFFFF" transform="translate(51,25)"/>
<path d="M0 0 C2.125 0.938 2.125 0.938 4 2 C3.464 2.33 2.927 2.66 2.375 3 C0.762 4.873 0.762 4.873 1.246 6.98 C1.766 9.005 2.378 11.005 3 13 C2.276 12.942 1.551 12.884 0.805 12.824 C-5.809 12.391 -5.809 12.391 -11.562 15.188 C-16.18 20.515 -17.045 26.07 -17 33 C-15.622 46.379 -10.5 60.06 0 69 C5.836 72.903 10.979 75.071 18 74 C22.325 71.501 24.279 68.646 26 64 C28.495 52.269 25.291 40.544 20 30 C15.897 23.936 11.507 18.504 5 15 C5.99 14.34 6.98 13.68 8 13 C8.27 9.284 8.181 6.543 7 3 C10.234 4.349 11.634 5.499 13.254 8.598 C13.634 9.318 14.013 10.038 14.404 10.779 C14.787 11.533 15.169 12.286 15.562 13.062 C15.949 13.789 16.335 14.515 16.732 15.264 C19.378 20.36 21.339 25.507 23 31 C23.66 31 24.32 31 25 31 C25.33 30.34 25.66 29.68 26 29 C26.684 30.346 27.346 31.702 28 33.062 C28.371 33.817 28.743 34.571 29.125 35.348 C30 38 30 38 29.844 40.98 C29.661 47.001 32.458 52.694 34.5 58.25 C35.348 60.587 36.192 62.926 37.031 65.266 C37.597 66.809 37.597 66.809 38.174 68.384 C39 71 39 71 39 74 C38.34 74 37.68 74 37 74 C36.67 74.66 36.34 75.32 36 76 C35.752 74.721 35.505 73.442 35.25 72.125 C34.478 68.783 34.478 68.783 32 66.5 C30.02 65.919 30.02 65.919 28 66 C28.582 71.309 28.582 71.309 31 76 C33.05 77.192 33.05 77.192 35 78 C26.967 81.172 16.373 81.857 8.129 79.008 C5.596 77.496 3.334 75.805 1 74 C-0.899 72.712 -2.816 71.454 -4.736 70.197 C-6.661 68.933 -8.575 67.654 -10.484 66.367 C-13.649 64.234 -16.823 62.115 -20 60 C-19.67 59.34 -19.34 58.68 -19 58 C-17.68 58 -16.36 58 -15 58 C-14.766 53.21 -14.766 53.21 -17 49 C-18.32 49 -19.64 49 -21 49 C-21.495 51.475 -21.495 51.475 -22 54 C-24 52 -24 52 -24.266 50.066 C-24.084 20.988 -24.084 20.988 -18 12 C-14.675 9.051 -11.069 6.675 -7.312 4.312 C-6.36 3.711 -5.407 3.109 -4.426 2.488 C-2 1 -2 1 0 0 Z " fill="#FFFFFF" transform="translate(66,77)"/>
<path d="M0 0 C-0.035 0.799 -0.07 1.598 -0.105 2.422 C-0.406 14.595 2.02 23.899 7.793 34.602 C9 37 9 37 9 39 C9.66 39 10.32 39 11 39 C12.516 40.609 12.516 40.609 14.25 42.75 C17.239 46.284 20.02 48.67 24 51 C23.079 54.099 22.328 55.728 19.812 57.812 C15.693 59.552 12.358 59.753 8.055 58.379 C-3.263 53.386 -9.36 42.953 -14 32 C-15.117 28.643 -15.734 25.522 -16 22 C-16.068 21.158 -16.137 20.316 -16.207 19.449 C-16.436 13.864 -15.867 8.888 -13 4 C-8.364 -0.41 -6.215 -1.216 0 0 Z " fill="#FFFFFF" transform="translate(66,91)"/>
<path d="M0 0 C0.948 0.308 1.896 0.616 2.873 0.934 C3.772 1.234 4.671 1.534 5.598 1.844 C6.409 2.114 7.219 2.384 8.055 2.662 C9.938 3.5 9.938 3.5 10.938 5.5 C4.041 4.686 -2.4 2.137 -8.92 -0.148 C-15.914 -2.481 -20.023 -2.847 -27.062 -0.5 C-27.062 0.16 -27.062 0.82 -27.062 1.5 C-26.512 1.635 -25.962 1.771 -25.395 1.91 C-17.543 3.943 -9.9 6.518 -2.238 9.162 C-1.355 9.463 -0.472 9.764 0.438 10.074 C1.232 10.348 2.026 10.623 2.844 10.905 C5.056 11.637 5.056 11.637 7.938 11.5 C8.433 12.985 8.433 12.985 8.938 14.5 C9.928 14.17 10.917 13.84 11.938 13.5 C11.938 14.16 11.938 14.82 11.938 15.5 C10.948 15.995 10.948 15.995 9.938 16.5 C9.739 22.584 9.739 22.584 10.938 28.5 C9.947 28.83 8.958 29.16 7.938 29.5 C7.308 39.742 7.929 47.272 12.938 56.5 C13.267 56.83 13.597 57.16 13.938 57.5 C15.463 57.411 16.984 57.255 18.5 57.062 C19.326 56.961 20.153 56.859 21.004 56.754 C21.642 56.67 22.28 56.586 22.938 56.5 C23.267 55.18 23.597 53.86 23.938 52.5 C24.18 53.019 24.422 53.539 24.672 54.074 C26.709 58.313 28.816 61.932 31.938 65.5 C31.133 65.273 30.329 65.046 29.5 64.812 C24.731 64.394 21.356 65.864 16.938 67.5 C14.614 68.207 12.279 68.852 9.938 69.5 C10.313 70.071 10.688 70.642 11.074 71.23 C15.362 78.024 18.274 84.949 20.938 92.5 C21.228 93.315 21.519 94.13 21.819 94.97 C23.388 99.372 24.946 103.778 26.484 108.191 C26.741 108.926 26.997 109.66 27.261 110.416 C27.937 112.5 27.937 112.5 28.341 114.699 C28.538 115.293 28.735 115.888 28.938 116.5 C31.913 117.658 31.913 117.658 34.938 118.5 C35.267 119.16 35.597 119.82 35.938 120.5 C31.484 119.991 29.163 118.592 25.938 115.5 C24.487 112.331 24.487 112.331 23.324 108.602 C23.106 107.93 22.888 107.259 22.663 106.567 C21.968 104.424 21.294 102.276 20.625 100.125 C17.493 90.063 14.032 81.218 8.39 72.271 C7.911 71.357 7.431 70.442 6.938 69.5 C7.433 68.015 7.433 68.015 7.938 66.5 C10.992 65.586 10.992 65.586 14.812 64.875 C19.934 63.915 19.934 63.915 24.938 62.5 C24.938 61.84 24.938 61.18 24.938 60.5 C24.225 60.644 23.512 60.789 22.777 60.938 C15.615 62.326 9.135 63.245 1.938 61.5 C1.938 60.84 1.938 60.18 1.938 59.5 C5.072 57.642 7.312 57.299 10.938 57.5 C10.319 56.51 9.7 55.52 9.062 54.5 C4.503 46.383 4.688 38.604 4.938 29.5 C3.287 29.5 1.638 29.5 -0.062 29.5 C-1.237 31.849 -1.178 33.238 -1.16 35.852 C-1.157 36.702 -1.154 37.553 -1.15 38.43 C-1.142 39.319 -1.134 40.209 -1.125 41.125 C-1.12 42.022 -1.116 42.919 -1.111 43.844 C-1.1 46.063 -1.083 48.281 -1.062 50.5 C-2.052 50.005 -2.052 50.005 -3.062 49.5 C-4.155 45.667 -4.227 41.905 -4.25 37.938 C-4.264 36.822 -4.278 35.707 -4.293 34.559 C-4.068 31.577 -3.821 29.901 -2.062 27.5 C4.084 26.073 4.084 26.073 6.938 27.5 C7.13 22.684 7.116 18.846 4.938 14.5 C2.226 13.095 -0.036 12.171 -2.914 11.289 C-4.075 10.902 -4.075 10.902 -5.26 10.508 C-7.729 9.691 -10.207 8.908 -12.688 8.125 C-14.365 7.576 -16.042 7.026 -17.719 6.473 C-21.826 5.123 -25.941 3.804 -30.062 2.5 C-30.09 3.937 -30.109 5.375 -30.125 6.812 C-30.137 7.613 -30.148 8.414 -30.16 9.238 C-30.159 11.669 -30.159 11.669 -29.062 14.5 C-26.802 15.637 -26.802 15.637 -24.125 16.5 C-19.281 18.173 -19.281 18.173 -17.062 21.5 C-16.463 27.982 -17.881 32.476 -20.438 38.375 C-23.063 44.732 -25.069 50.655 -26.062 57.5 C-25.35 57.006 -24.637 56.513 -23.902 56.004 C-14.389 49.641 -14.389 49.641 -8.062 49.5 C-7.733 50.16 -7.403 50.82 -7.062 51.5 C-9.042 51.5 -11.023 51.5 -13.062 51.5 C-12.733 52.49 -12.403 53.48 -12.062 54.5 C-12.906 54.581 -13.749 54.662 -14.617 54.746 C-21.556 56.265 -29.049 61.091 -33.789 66.453 C-36.779 71.885 -37.313 78.436 -38.062 84.5 C-38.175 85.337 -38.287 86.173 -38.402 87.035 C-39.211 93.851 -39.159 100.645 -39.062 107.5 C-40.565 106.365 -40.565 106.365 -42.062 104.5 C-42.267 101.84 -42.267 101.84 -42.023 98.652 C-41.937 97.489 -41.851 96.326 -41.762 95.127 C-41.655 93.909 -41.548 92.692 -41.438 91.438 C-41.354 90.247 -41.27 89.057 -41.184 87.83 C-40.388 77.924 -39.303 69.232 -32.465 61.68 C-31.062 60.5 -31.062 60.5 -29.062 60.5 C-28.959 59.407 -28.856 58.314 -28.75 57.188 C-27.633 48.5 -24.882 40.889 -21.137 33.016 C-19.345 28.82 -19.062 25.05 -19.062 20.5 C-19.75 20.318 -20.437 20.136 -21.145 19.949 C-22.046 19.698 -22.947 19.446 -23.875 19.188 C-25.215 18.822 -25.215 18.822 -26.582 18.449 C-29.258 17.425 -30.45 16.859 -32.062 14.5 C-32.68 11.469 -32.68 11.469 -32.938 8 C-33.088 6.283 -33.088 6.283 -33.242 4.531 C-33.062 1.5 -33.062 1.5 -31.824 -0.262 C-29.918 -1.601 -28.087 -2.771 -26 -3.812 C-25.308 -4.18 -24.616 -4.547 -23.902 -4.926 C-16.113 -6.501 -7.315 -2.468 0 0 Z " fill="#000000" transform="translate(82.0625,23.5)"/>
<path d="M0 0 C3.573 2.312 3.746 2.815 4.625 6.75 C4.842 8.183 5.039 9.62 5.188 11.062 C5.847 11.062 6.507 11.062 7.188 11.062 C8.214 9.412 9.211 7.743 10.188 6.062 C11.5 4.25 11.5 4.25 13.188 3.062 C16.674 2.543 18.499 2.664 21.562 4.438 C24.126 8.578 23.441 12.254 23.188 17.062 C27.148 18.052 31.108 19.043 35.188 20.062 C35.188 20.722 35.188 21.382 35.188 22.062 C34.5 21.918 33.813 21.774 33.105 21.625 C32.204 21.439 31.303 21.254 30.375 21.062 C29.482 20.877 28.588 20.691 27.668 20.5 C25.115 19.976 25.115 19.976 22.188 20.062 C21.321 21.517 21.321 21.517 20.438 23 C18.188 26.062 18.188 26.062 14.688 27.125 C11.188 27.062 11.188 27.062 8.812 26.125 C6.321 22.962 6.504 20.051 6.188 16.062 C5.858 15.403 5.528 14.743 5.188 14.062 C4.528 14.062 3.868 14.062 3.188 14.062 C2.445 15.073 1.702 16.084 0.938 17.125 C-0.391 18.785 -0.391 18.785 -1.812 20.062 C-5.844 20.062 -9.149 18.679 -12.812 17.062 C-12.812 16.403 -12.812 15.743 -12.812 15.062 C-13.803 14.733 -14.792 14.403 -15.812 14.062 C-16.726 9.403 -17.257 6.253 -14.812 2.062 C-10.563 -2.501 -5.6 -1.377 0 0 Z " fill="#090909" transform="translate(226.8125,103.9375)"/>
<path d="M0 0 C3.74 2.657 5.874 4.495 7 9 C7.417 11.77 7.574 14.246 7 17 C4.5 19.875 4.5 19.875 2 22 C2 22.66 2 23.32 2 24 C3.458 24.054 4.916 24.093 6.375 24.125 C7.187 24.148 7.999 24.171 8.836 24.195 C11.213 24.214 11.213 24.214 13 22 C13 22.66 13 23.32 13 24 C15.31 24.33 17.62 24.66 20 25 C20.495 26.485 20.495 26.485 21 28 C21.66 28.309 22.32 28.619 23 28.938 C25 30 25 30 25.75 32.125 C25.833 32.744 25.915 33.363 26 34 C20.25 38 20.25 38 18 38 C18 37.34 18 36.68 18 36 C16.063 35.973 14.125 35.954 12.188 35.938 C11.109 35.926 10.03 35.914 8.918 35.902 C5.935 35.864 5.935 35.864 3 37 C0.812 35.875 0.812 35.875 -1 34 C-1.25 31.312 -1.25 31.312 -1 29 C-1.33 29.66 -1.66 30.32 -2 31 C-4.817 30.917 -6.534 30.423 -8.633 28.516 C-11.365 25.427 -13.235 23.125 -14 19 C-11.688 18.812 -11.688 18.812 -9 19 C-7.312 20.5 -7.312 20.5 -6 22 C-5.34 22 -4.68 22 -4 22 C-4.482 21.671 -4.964 21.343 -5.461 21.004 C-10.076 17.529 -11.882 14.809 -13.004 9.148 C-12.999 6.602 -12.289 5.167 -11 3 C-8.812 2.688 -8.812 2.688 -6 3 C-1.96 6.194 -0.269 9.04 1 14 C0.424 9.245 -1.551 6.03 -4 2 C-2.68 1.34 -1.36 0.68 0 0 Z " fill="#A0A0A0" transform="translate(138,136)"/>
<path d="M0 0 C2.625 -0.188 2.625 -0.188 5 0 C5.9 3.026 6.027 5.545 5.875 8.688 C5.821 13.973 7.011 18.144 9 23 C9.286 23.699 9.572 24.397 9.867 25.117 C10.557 26.754 11.275 28.378 12 30 C10.639 29.969 10.639 29.969 9.25 29.938 C6.573 29.989 4.53 30.222 2 31 C2 31.66 2 32.32 2 33 C9.934 33.249 17.244 32.71 25 31 C25 32.32 25 33.64 25 35 C23.105 35.481 21.209 35.959 19.312 36.438 C18.257 36.704 17.201 36.971 16.113 37.246 C13.417 37.899 10.724 38.479 8 39 C9.026 42.899 10.534 45.885 12.742 49.203 C17.335 56.746 19.596 65.187 22.177 73.576 C22.84 75.71 23.528 77.835 24.219 79.961 C24.61 81.217 25.001 82.473 25.404 83.767 C28.471 89.981 34.853 91.953 40.926 94.559 C43 96 43 96 44 101 C38.39 101 32.78 101 27 101 C27.66 99.02 28.32 97.04 29 95 C28.392 94.807 27.784 94.614 27.157 94.415 C23.966 92.322 23.624 89.966 22.484 86.367 C22.159 85.37 22.159 85.37 21.827 84.353 C21.364 82.933 20.907 81.51 20.454 80.086 C16.105 66.435 11.185 53.835 3.918 41.449 C0.112 34.821 -1.707 31.485 0 24 C-0.308 23.095 -0.616 22.19 -0.934 21.258 C-2.176 17.461 -2.266 14.3 -2.25 10.312 C-2.255 9.009 -2.26 7.706 -2.266 6.363 C-2 3 -2 3 0 0 Z " fill="#FFFFFF" transform="translate(82,52)"/>
<path d="M0 0 C12.08 5.618 17.515 14.716 22.055 26.922 C23.525 31.708 24.14 36.252 24.125 41.25 C24.129 42.526 24.129 42.526 24.133 43.828 C24 46 24 46 23 48 C14.871 45.827 10.42 40.039 6.195 32.988 C4.674 30.032 3.302 27.059 2 24 C1.66 23.251 1.319 22.502 0.969 21.73 C-1.699 15.075 -1.505 8.074 -1 1 C-0.67 0.67 -0.34 0.34 0 0 Z " fill="#FFFFFF" transform="translate(68,92)"/>
<path d="M0 0 C0.66 0 1.32 0 2 0 C2 0.99 2 1.98 2 3 C2.638 3.121 3.276 3.242 3.934 3.367 C5.173 3.619 5.173 3.619 6.438 3.875 C7.261 4.037 8.085 4.2 8.934 4.367 C9.616 4.576 10.297 4.785 11 5 C12.414 7.829 12.319 9.874 12 13 C9.368 15.827 6.76 16.478 3 17 C3 17.66 3 18.32 3 19 C4.671 19.433 4.671 19.433 6.375 19.875 C10 21 10 21 12 23 C12.438 25.875 12.438 25.875 12 29 C10.25 31.375 10.25 31.375 7 33 C1.665 33.731 -3.958 34.114 -8.75 31.312 C-11 29 -11 29 -11.688 26.5 C-10.703 22.921 -9.136 21.909 -6 20 C-2.688 19.25 -2.688 19.25 0 19 C0 18.34 0 17.68 0 17 C-1.072 16.918 -2.145 16.835 -3.25 16.75 C-7 16 -7 16 -9.5 14.25 C-11 12 -11 12 -10.938 9.438 C-9.901 6.741 -9.402 5.601 -7 4 C-3.312 3.312 -3.312 3.312 0 3 C0 2.01 0 1.02 0 0 Z " fill="#0A0A0A" transform="translate(150,248)"/>
<path d="M0 0 C2.438 0.25 2.438 0.25 5 1 C7.29 4.435 7.178 5.985 7 10 C5.02 10.66 3.04 11.32 1 12 C1.717 12.253 2.433 12.505 3.172 12.766 C6.238 14.104 8.582 15.737 11.25 17.75 C15.513 20.927 19.837 23.917 24.32 26.773 C26 28 26 28 27 30 C26.264 30.049 25.528 30.098 24.77 30.148 C23.794 30.223 22.818 30.298 21.812 30.375 C20.85 30.445 19.887 30.514 18.895 30.586 C15.972 31.004 13.721 31.893 11 33 C4.986 33.818 0.303 32.872 -5 30 C-6.509 26.981 -6.184 23.87 -6.188 20.562 C-6.2 19.881 -6.212 19.2 -6.225 18.498 C-6.236 14.772 -6.12 13.18 -4 10 C-3.34 10 -2.68 10 -2 10 C-2.33 8.68 -2.66 7.36 -3 6 C-2.34 6 -1.68 6 -1 6 C-1.021 5.196 -1.041 4.391 -1.062 3.562 C-1 1 -1 1 0 0 Z " fill="#1F1F1F" transform="translate(45,125)"/>
<path d="M0 0 C5.217 0.913 10.358 2.445 15.277 4.398 C15.772 5.388 15.772 5.388 16.277 6.398 C14.777 6.109 13.277 5.817 11.777 5.523 C10.866 5.347 9.955 5.17 9.016 4.988 C6.608 4.47 4.316 3.81 1.965 3.086 C-1.578 2.145 -1.578 2.145 -4.41 3.148 C-7.971 6.613 -9.736 10.893 -11.723 15.398 C-10.712 15.316 -9.701 15.233 -8.66 15.148 C-3.739 15.461 -1.754 16.632 2.277 19.398 C4.579 22.851 4.622 24.346 4.277 28.398 C1.993 30.683 0.152 31.37 -2.848 32.523 C-3.758 32.877 -4.668 33.23 -5.605 33.594 C-6.653 33.992 -6.653 33.992 -7.723 34.398 C-6.94 34.592 -6.158 34.785 -5.352 34.984 C-3.834 35.375 -3.834 35.375 -2.285 35.773 C-0.771 36.156 -0.771 36.156 0.773 36.547 C3.277 37.398 3.277 37.398 4.277 39.398 C-0.858 38.757 -5.717 37.716 -10.723 36.398 C-10.723 35.738 -10.723 35.078 -10.723 34.398 C-11.41 34.629 -12.097 34.86 -12.804 35.098 C-20.472 37.67 -28.145 40.225 -35.822 42.768 C-37.684 43.386 -39.545 44.006 -41.407 44.626 C-44.842 45.768 -48.282 46.897 -51.723 48.023 C-52.783 48.378 -53.844 48.732 -54.937 49.098 C-55.918 49.416 -56.899 49.734 -57.91 50.062 C-59.2 50.487 -59.2 50.487 -60.516 50.92 C-62.723 51.398 -62.723 51.398 -65.723 50.398 C-59.514 47.452 -53.319 45.238 -46.723 43.336 C-34.896 39.845 -23.224 35.934 -11.555 31.955 C-10.178 31.489 -8.802 31.024 -7.426 30.559 C-6.205 30.142 -4.985 29.726 -3.728 29.297 C-0.723 28.398 -0.723 28.398 2.277 28.398 C2.256 24.992 2.256 24.992 1.277 21.398 C-3.072 18.11 -7.45 17.829 -12.723 18.398 C-16.568 19.353 -20.291 20.608 -24.035 21.898 C-25.988 22.558 -27.943 23.215 -29.898 23.867 C-30.753 24.16 -31.609 24.454 -32.49 24.756 C-34.723 25.398 -34.723 25.398 -37.723 25.398 C-38.218 27.873 -38.218 27.873 -38.723 30.398 C-42.81 31.82 -45.97 32.48 -50.297 32.238 C-56.248 32.176 -61.138 33.895 -66.66 35.961 C-68.5 36.637 -70.342 37.305 -72.188 37.965 C-73.388 38.413 -73.388 38.413 -74.613 38.869 C-76.723 39.398 -76.723 39.398 -79.723 38.398 C-72.471 35.134 -65.609 32.567 -57.723 31.398 C-57.723 30.738 -57.723 30.078 -57.723 29.398 C-58.857 29.286 -59.991 29.174 -61.16 29.059 C-65.848 28.473 -70.219 27.229 -74.723 25.836 C-75.497 25.602 -76.272 25.368 -77.07 25.127 C-78.956 24.557 -80.84 23.978 -82.723 23.398 C-82.723 22.738 -82.723 22.078 -82.723 21.398 C-74.756 22.837 -67.125 24.957 -59.402 27.363 C-53.349 29.17 -47.339 30.845 -41.223 28.398 C-40.728 28.068 -40.233 27.738 -39.723 27.398 C-42.941 25.649 -46.155 24.584 -49.668 23.559 C-50.828 23.218 -51.988 22.877 -53.184 22.525 C-54.997 21.998 -54.997 21.998 -56.848 21.461 C-59.225 20.764 -61.603 20.068 -63.98 19.371 C-65.688 18.872 -65.688 18.872 -67.431 18.364 C-71.868 17.063 -76.296 15.735 -80.723 14.398 C-80.063 13.738 -79.403 13.078 -78.723 12.398 C-74.918 13.482 -71.113 14.566 -67.309 15.652 C-65.391 16.199 -63.473 16.745 -61.555 17.291 C-60.324 17.642 -59.093 17.994 -57.824 18.355 C-56.61 18.699 -55.396 19.043 -54.146 19.397 C-52.027 20.017 -49.917 20.667 -47.823 21.365 C-39.57 24.112 -33.507 22.511 -25.473 19.836 C-18.113 17.398 -18.113 17.398 -14.723 17.398 C-14.63 16.408 -14.63 16.408 -14.535 15.398 C-12.707 8.647 -7.86 -0.447 0 0 Z " fill="#000000" transform="translate(277.72265625,110.6015625)"/>
<path d="M0 0 C0.66 0.33 1.32 0.66 2 1 C1.67 4.63 1.34 8.26 1 12 C2.072 12.124 3.145 12.248 4.25 12.375 C7.383 12.897 9.386 13.291 12 15 C13.98 18.959 13.314 23.688 12.312 27.875 C10.571 30.695 9.126 30.996 6 32 C1.111 32.541 -3.451 32.601 -8.062 30.812 C-11.416 27.676 -11.887 24.921 -12.438 20.438 C-12 17 -12 17 -9.938 14.625 C-6.567 12.76 -3.818 12.299 0 12 C0 8.04 0 4.08 0 0 Z " fill="#0C0C0C" transform="translate(150,215)"/>
<path d="M0 0 C2.354 2.354 2.336 3.155 2.625 6.375 C2.7 7.146 2.775 7.917 2.852 8.711 C2.987 10.803 3 12.903 3 15 C3.66 15.33 4.32 15.66 5 16 C5 16.66 5 17.32 5 18 C3.68 17.67 2.36 17.34 1 17 C0.752 17.743 0.505 18.485 0.25 19.25 C-1.524 23.152 -3.397 25.383 -7.438 26.938 C-10.847 27.021 -12.338 26.087 -15 24 C-17.586 20.552 -17.412 17.187 -17 13 C-15.32 7.874 -13.292 3.433 -9 0 C-5.881 -1.559 -3.337 -0.655 0 0 Z " fill="#0E0E0E" transform="translate(336,133)"/>
<path d="M0 0 C1.833 0.544 3.666 1.085 5.5 1.625 C7.001 2.081 8.501 2.539 10 3 C10 3.66 10 4.32 10 5 C9.257 5.722 8.515 6.444 7.75 7.188 C0.307 14.799 -0.122 22.35 -0.035 32.586 C-0.024 33.383 -0.012 34.179 0 35 C-5.469 33.984 -10.764 32.929 -16 31 C-13.259 29.173 -10.862 28.063 -7.812 26.875 C-6.911 26.522 -6.01 26.169 -5.082 25.805 C-4.395 25.539 -3.708 25.274 -3 25 C-2.581 22.211 -2.581 22.211 -3 19 C-5.55 15.898 -7.177 14.274 -11 13 C-12.394 12.933 -13.792 12.915 -15.188 12.938 C-16.446 12.958 -17.704 12.979 -19 13 C-17.385 7.346 -15.189 2.946 -10.75 -1 C-6.781 -2.443 -3.844 -1.27 0 0 Z " fill="#FFFFFF" transform="translate(284,114)"/>
<path d="M0 0 C10.956 4.512 17.609 13.422 22.316 23.941 C26.545 34.145 28.85 44.277 25 55 C22.896 58.469 20.387 60.742 17 63 C9.915 63.87 4.857 62.023 -1 58 C-12.455 47.91 -17.675 34.897 -19 20 C-18.876 12.738 -17.561 7.471 -12.438 2.207 C-8.738 -0.899 -4.592 -0.719 0 0 Z M-10.188 2.625 C-14.712 6.445 -16.654 10.327 -17.203 16.156 C-17.48 30.018 -12.641 43.399 -3.062 53.562 C1.705 57.916 6.195 60.613 12.625 61.5 C16.717 60.894 18.871 59.682 22 57 C22.691 54.926 22.691 54.926 23 53 C22.397 52.553 21.793 52.105 21.172 51.645 C16.854 48.378 13.289 45.342 10 41 C9.34 41 8.68 41 8 41 C7.722 40.294 7.443 39.587 7.156 38.859 C6.39 36.964 5.598 35.078 4.781 33.203 C0.076 22.357 -1.329 13.841 -1 2 C-5.718 0.926 -5.718 0.926 -10.188 2.625 Z M1 3 C-0.845 4.845 -0.345 7.575 -0.438 10.062 C-0.309 24.081 5.967 36.764 15.703 46.746 C18.259 49.024 20.556 50.603 24 51 C27.512 43.975 24.306 33.974 22 27 C17.696 16.438 12.067 8.595 2 3 C1.67 3 1.34 3 1 3 Z " fill="#000000" transform="translate(67,89)"/>
<path d="M0 0 C0.33 0.66 0.66 1.32 1 2 C2.999 2.34 4.999 2.673 7 3 C10.243 6.243 11.14 9.562 11.375 14.062 C11 18 11 18 9.125 20.438 C4.884 23.556 1.142 23.515 -4 23 C-8.541 20.919 -8.541 20.919 -10 18 C-10.396 12.16 -10.171 8.013 -7 3 C-3.312 2.062 -3.312 2.062 0 2 C0 1.34 0 0.68 0 0 Z " fill="#262626" transform="translate(150,109)"/>
<path d="M0 0 C0.907 0.495 1.815 0.99 2.75 1.5 C9.361 4.316 17.086 3.986 23.75 1.5 C24.822 1.005 25.895 0.51 27 0 C27 4.29 27 8.58 27 13 C20.666 17.714 14.737 17.844 7 17 C1.49 14.98 1.49 14.98 0 12 C-0.071 9.959 -0.084 7.917 -0.062 5.875 C-0.053 4.779 -0.044 3.684 -0.035 2.555 C-0.024 1.712 -0.012 0.869 0 0 Z " fill="#FFFFFF" transform="translate(137,172)"/>
<path d="M0 0 C1.063 0.472 1.063 0.472 2.148 0.953 C12.067 4.594 22.1 2.521 32 0 C32.608 7.177 32.608 7.177 29.875 10.875 C23.511 15.579 16.705 15.856 9 15 C5.711 13.873 2.503 12.503 0 10 C-0.072 8.314 -0.084 6.625 -0.062 4.938 C-0.053 4.018 -0.044 3.099 -0.035 2.152 C-0.024 1.442 -0.012 0.732 0 0 Z " fill="#FFFFFF" transform="translate(136,348)"/>
<path d="M0 0 C3.52 2.278 3.735 2.708 4.625 6.562 C5.031 9.129 5.188 11.457 5.188 14.062 C4.528 14.062 3.868 14.062 3.188 14.062 C2.445 15.073 1.702 16.084 0.938 17.125 C-0.391 18.785 -0.391 18.785 -1.812 20.062 C-5.844 20.062 -9.149 18.679 -12.812 17.062 C-12.812 16.403 -12.812 15.743 -12.812 15.062 C-13.803 14.733 -14.792 14.403 -15.812 14.062 C-16.726 9.403 -17.257 6.253 -14.812 2.062 C-10.563 -2.501 -5.6 -1.377 0 0 Z " fill="#1B1B1B" transform="translate(226.8125,103.9375)"/>
<path d="M0 0 C2.243 1.783 2.894 3.142 3.953 5.777 C5.261 8.553 6.897 9.764 9.312 11.625 C12.94 14.585 12.94 14.585 13.5 18.438 C13.335 19.283 13.17 20.129 13 21 C5.139 17.631 -2.47 13.809 -10.101 9.958 C-12.731 8.632 -15.365 7.316 -18 6 C-19.333 5.333 -20.667 4.667 -22 4 C-22 3.34 -22 2.68 -22 2 C-15.199 -1.319 -7.344 -1.078 0 0 Z " fill="#FFFFFF" transform="translate(122,155)"/>
<path d="M0 0 C1.477 0.458 1.477 0.458 2.984 0.926 C3.732 1.177 4.48 1.429 5.25 1.688 C4.84 2.195 4.43 2.703 4.008 3.227 C3.469 3.915 2.93 4.603 2.375 5.312 C1.841 5.985 1.308 6.658 0.758 7.352 C-2.428 12.288 -2.993 16.77 -2.875 22.562 C-2.848 24.291 -2.848 24.291 -2.82 26.055 C-2.797 26.924 -2.774 27.792 -2.75 28.688 C-4.4 28.688 -6.05 28.688 -7.75 28.688 C-7.897 28.084 -8.044 27.481 -8.195 26.859 C-8.532 25.661 -8.532 25.661 -8.875 24.438 C-9.084 23.649 -9.293 22.86 -9.508 22.047 C-11.224 18.787 -13.628 17.532 -16.75 15.688 C-15.679 13.41 -14.594 11.141 -13.5 8.875 C-13.2 8.232 -12.899 7.59 -12.59 6.928 C-9.383 0.344 -7.297 -2.345 0 0 Z " fill="#FFFFFF" transform="translate(398.75,150.3125)"/>
<path d="M0 0 C0.99 -0.33 1.98 -0.66 3 -1 C4.137 4.559 4.137 4.559 3.395 6.946 C2.86 9.728 3.651 10.737 5.125 13.117 C5.584 13.889 6.043 14.661 6.516 15.457 C7.502 17.063 8.491 18.668 9.484 20.27 C13.038 26.269 13.038 26.269 12.812 30.57 C12.544 31.372 12.276 32.174 12 33 C11.34 33 10.68 33 10 33 C9.492 31.973 8.984 30.945 8.461 29.887 C2.933 15.706 2.933 15.706 -6 5 C-5.01 6.485 -5.01 6.485 -4 8 C-3.812 11.625 -3.812 11.625 -4 15 C-5 16 -5 16 -7.562 16.062 C-8.367 16.042 -9.171 16.021 -10 16 C-10.558 14.569 -11.096 13.13 -11.625 11.688 C-11.927 10.887 -12.228 10.086 -12.539 9.262 C-12.767 8.142 -12.767 8.142 -13 7 C-12.34 6.01 -11.68 5.02 -11 4 C-10.34 4 -9.68 4 -9 4 C-9.33 2.68 -9.66 1.36 -10 0 C-6.244 -0.768 -3.673 -1.013 0 0 Z " fill="#1C1C1C" transform="translate(79,75)"/>
<path d="M0 0 C0.66 0 1.32 0 2 0 C3.65 3.3 5.3 6.6 7 10 C11.455 9.505 11.455 9.505 16 9 C16.33 7.68 16.66 6.36 17 5 C17.364 5.779 17.364 5.779 17.734 6.574 C19.771 10.813 21.878 14.432 25 18 C24.196 17.773 23.391 17.546 22.562 17.312 C17.794 16.894 14.419 18.364 10 20 C7.676 20.707 5.341 21.352 3 22 C3.375 22.571 3.75 23.142 4.137 23.73 C8.424 30.524 11.336 37.449 14 45 C14.291 45.815 14.582 46.63 14.881 47.47 C16.451 51.872 18.009 56.278 19.547 60.691 C19.803 61.426 20.059 62.16 20.323 62.916 C21 65 21 65 21.403 67.199 C21.6 67.793 21.797 68.388 22 69 C24.975 70.158 24.975 70.158 28 71 C28.33 71.66 28.66 72.32 29 73 C24.547 72.491 22.225 71.092 19 68 C17.55 64.831 17.55 64.831 16.387 61.102 C16.06 60.094 16.06 60.094 15.726 59.067 C15.03 56.924 14.357 54.776 13.688 52.625 C10.555 42.563 7.094 33.718 1.452 24.771 C0.733 23.399 0.733 23.399 0 22 C0.33 21.01 0.66 20.02 1 19 C4.055 18.086 4.055 18.086 7.875 17.375 C12.997 16.415 12.997 16.415 18 15 C18 14.34 18 13.68 18 13 C17.287 13.144 16.574 13.289 15.84 13.438 C8.677 14.826 2.198 15.745 -5 14 C-5 13.34 -5 12.68 -5 12 C-1.865 10.142 0.375 9.799 4 10 C3.34 8.907 2.68 7.814 2 6.688 C0.415 4.063 0 3.174 0 0 Z " fill="#0E0E0E" transform="translate(89,71)"/>
<path d="M0 0 C3.3 0.3 5.482 0.623 8.188 2.594 C10.683 5.907 10.402 8.154 10.25 12.25 C10.214 13.513 10.178 14.777 10.141 16.078 C10.071 17.524 10.071 17.524 10 19 C3.644 23.034 3.644 23.034 0.625 22.875 C-1 22 -1 22 -2 20 C-2.134 17.328 -2.043 14.677 -2 12 C-1.01 11.67 -0.02 11.34 1 11 C1 10.34 1 9.68 1 9 C-0.98 9.99 -0.98 9.99 -3 11 C-2.812 8.688 -2.812 8.688 -2 6 C0.562 4.188 0.562 4.188 3 3 C2.01 2.67 1.02 2.34 0 2 C0 1.34 0 0.68 0 0 Z " fill="#000000" transform="translate(93,28)"/>
<path d="M0 0 C0.949 0.041 1.897 0.082 2.875 0.125 C3.865 2.435 4.855 4.745 5.875 7.125 C6.201 6.62 6.527 6.114 6.863 5.594 C7.519 4.619 7.519 4.619 8.188 3.625 C8.617 2.975 9.046 2.326 9.488 1.656 C9.946 1.151 10.404 0.646 10.875 0.125 C11.865 0.125 12.855 0.125 13.875 0.125 C13.875 3.095 13.875 6.065 13.875 9.125 C14.535 9.125 15.195 9.125 15.875 9.125 C15.875 9.785 15.875 10.445 15.875 11.125 C15.215 11.125 14.555 11.125 13.875 11.125 C13.875 12.115 13.875 13.105 13.875 14.125 C12.885 14.125 11.895 14.125 10.875 14.125 C10.875 13.135 10.875 12.145 10.875 11.125 C8.043 10.791 8.043 10.791 4.875 11.125 C2.498 13 2.498 13 0.875 15.125 C-1.562 14.312 -1.562 14.312 -4.125 13.125 C-4.455 12.135 -4.785 11.145 -5.125 10.125 C-4.465 9.795 -3.805 9.465 -3.125 9.125 C-3.785 8.465 -4.445 7.805 -5.125 7.125 C-5.375 4.625 -5.375 4.625 -5.125 2.125 C-3.125 0.125 -3.125 0.125 0 0 Z " fill="#171717" transform="translate(407.125,362.875)"/>
<path d="M0 0 C4.834 0.414 6.895 2.378 10 6 C10.947 8.842 11.135 10.676 11.125 13.625 C11.128 14.422 11.13 15.218 11.133 16.039 C11 18 11 18 10 19 C7.812 19.5 7.812 19.5 5 19 C0.892 15.857 -1.296 12.373 -2 7.25 C-2.298 3.704 -2.096 3.144 0 0 Z " fill="#FFFFFF" transform="translate(108,69)"/>
<path d="M0 0 C1.32 0.33 2.64 0.66 4 1 C4 1.66 4 2.32 4 3 C4.66 3 5.32 3 6 3 C7.621 6.241 7.268 9.754 7.312 13.312 C7.342 14.072 7.371 14.832 7.4 15.615 C7.445 19.573 7.298 21.526 5.141 24.961 C0.225 29.643 -5.391 29.19 -11.805 29.07 C-12.529 29.047 -13.254 29.024 -14 29 C-14 28.34 -14 27.68 -14 27 C-13.203 26.963 -12.407 26.925 -11.586 26.887 C-5.682 26.52 -1.031 26.214 4 23 C4 19.04 4 15.08 4 11 C3.093 11.495 2.185 11.99 1.25 12.5 C-3.96 14.788 -9.426 14.247 -15 14 C-14.67 12.68 -14.34 11.36 -14 10 C-10.37 10 -6.74 10 -3 10 C-3 10.66 -3 11.32 -3 12 C-0.69 10.68 1.62 9.36 4 8 C3.724 6.059 3.724 6.059 3 4 C2.01 3.34 1.02 2.68 0 2 C0 1.34 0 0.68 0 0 Z " fill="#000000" transform="translate(159,162)"/>
<path d="M0 0 C0 0.99 0 1.98 0 3 C-0.33 3.33 -0.66 3.66 -1 4 C-2.324 19.649 1.205 36.808 10 50 C12.552 51.205 12.552 51.205 15 52 C15 52.66 15 53.32 15 54 C15.66 54 16.32 54 17 54 C20.279 59.504 21.859 63.558 21 70 C19 72.5 19 72.5 17 74 C16.34 73.67 15.68 73.34 15 73 C15.495 72.67 15.99 72.34 16.5 72 C18.828 68.896 18.522 65.683 18 62 C16.436 57.977 15.613 56.409 12 54 C9.847 54.308 9.847 54.308 8 55 C7.884 54.274 7.768 53.549 7.648 52.801 C6.984 49.931 6.007 47.78 4.625 45.188 C-0.822 34.577 -3.357 24.582 -3.312 12.625 C-3.329 11.737 -3.345 10.849 -3.361 9.934 C-3.362 9.082 -3.363 8.229 -3.363 7.352 C-3.366 6.587 -3.369 5.822 -3.372 5.034 C-2.909 2.505 -1.944 1.616 0 0 Z " fill="#000000" transform="translate(126,83)"/>
<path d="M0 0 C0.33 0 0.66 0 1 0 C1.037 1.221 1.075 2.441 1.113 3.699 C1.678 19.047 4.095 31.162 11.355 44.762 C13 48 13 48 13 50 C12.34 50 11.68 50 11 50 C0.495 38.632 -2.179 20.093 -2.266 5.277 C-2 3 -2 3 0 0 Z " fill="#FFFFFF" transform="translate(122,87)"/>
<path d="M0 0 C1 1 1 1 1.098 3.504 C1.086 4.513 1.074 5.523 1.062 6.562 C1.053 7.574 1.044 8.586 1.035 9.629 C1.024 10.411 1.012 11.194 1 12 C-1 11 -1 11 -2.125 7.938 C-2.414 6.968 -2.702 5.999 -3 5 C-5.039 5.664 -5.039 5.664 -7 7 C-7.699 9.185 -7.699 9.185 -7.75 11.625 C-7.807 12.442 -7.863 13.26 -7.922 14.102 C-7.948 14.728 -7.973 15.355 -8 16 C-6.855 15.536 -6.855 15.536 -5.688 15.062 C-3.812 14.321 -1.913 13.638 0 13 C-2.141 19.094 -2.141 19.094 -5 21 C-9.421 20.579 -9.421 20.579 -11 19 C-12.033 11.561 -10.507 5.996 -6 0 C-3.497 -1.251 -2.597 -0.838 0 0 Z " fill="#FFFFFF" transform="translate(335,136)"/>
<path d="M0 0 C0.66 0 1.32 0 2 0 C5.568 7.532 8.642 15.129 11.375 23 C11.742 24.022 12.11 25.044 12.488 26.098 C12.83 27.076 13.171 28.054 13.523 29.062 C13.832 29.94 14.141 30.818 14.458 31.723 C15 34 15 34 14 37 C13.34 37.66 12.68 38.32 12 39 C9.901 34.223 8.011 29.438 6.312 24.5 C6.088 23.875 5.863 23.25 5.631 22.605 C4.144 18.241 3.974 14.571 4 10 C3.19 7.14 3.19 7.14 2 4.562 C1.629 3.698 1.257 2.833 0.875 1.941 C0.586 1.301 0.297 0.66 0 0 Z " fill="#1B1B1B" transform="translate(91,105)"/>
<path d="M0 0 C0.947 -0.017 1.895 -0.034 2.871 -0.051 C5.98 0.369 7.365 1.094 9.562 3.312 C9.562 4.303 9.562 5.292 9.562 6.312 C6.151 8.384 3.457 8.582 -0.5 8.562 C-2.064 8.57 -2.064 8.57 -3.66 8.578 C-6.438 8.312 -6.438 8.312 -9.438 6.312 C-9.125 4.438 -9.125 4.438 -8.438 2.312 C-5.115 0.098 -3.887 0.016 0 0 Z " fill="#FFFFFF" transform="translate(150.4375,163.6875)"/>
<path d="M0 0 C0 0.66 0 1.32 0 2 C-2.31 2.66 -4.62 3.32 -7 4 C-6.437 4.857 -6.437 4.857 -5.863 5.73 C-1.576 12.524 1.336 19.449 4 27 C4.291 27.815 4.582 28.63 4.881 29.47 C6.451 33.872 8.009 38.278 9.547 42.691 C9.803 43.426 10.059 44.16 10.323 44.916 C11 47 11 47 11.403 49.199 C11.6 49.793 11.797 50.388 12 51 C14.975 52.158 14.975 52.158 18 53 C18.33 53.66 18.66 54.32 19 55 C14.547 54.491 12.225 53.092 9 50 C7.55 46.831 7.55 46.831 6.387 43.102 C6.169 42.43 5.951 41.759 5.726 41.067 C5.03 38.924 4.357 36.776 3.688 34.625 C0.555 24.563 -2.906 15.718 -8.548 6.771 C-9.027 5.857 -9.506 4.942 -10 4 C-9.67 3.01 -9.34 2.02 -9 1 C-5.847 0.299 -3.273 0 0 0 Z " fill="#000000" transform="translate(99,89)"/>
<path d="M0 0 C3.241 2.593 4.886 5.009 6 9 C6.538 15.242 6.538 15.242 4.625 17.938 C3 19 3 19 1 19 C0.902 18.348 0.804 17.695 0.703 17.023 C-0.503 9.976 -2.562 4.895 -8 0 C-4.618 -1.127 -3.352 -1.063 0 0 Z " fill="#FFFFFF" transform="translate(120,67)"/>
<path d="M0 0 C0.495 1.485 0.495 1.485 1 3 C-3.688 8.398 -7.386 9.717 -14.246 10.254 C-21.489 10.496 -27.934 10.335 -34 6 C-36.062 3.25 -36.062 3.25 -37 1 C-36.484 1.268 -35.969 1.536 -35.438 1.812 C-34.633 2.204 -33.829 2.596 -33 3 C-31.957 3.51 -30.914 4.021 -29.84 4.547 C-25.977 6.186 -22.29 6.499 -18.125 6.438 C-17.428 6.433 -16.73 6.428 -16.011 6.423 C-10.432 6.264 -5.593 5.268 -1 2 C-0.67 1.34 -0.34 0.68 0 0 Z " fill="#FFFFFF" transform="translate(169,339)"/>
<path d="M0 0 C1 7.75 1 7.75 1 10 C-0.289 10.672 -1.581 11.337 -2.875 12 C-3.594 12.371 -4.314 12.742 -5.055 13.125 C-7 14 -7 14 -9 14 C-10.607 10.785 -10.057 7.564 -10 4 C-8.711 3.328 -7.419 2.663 -6.125 2 C-5.406 1.629 -4.686 1.258 -3.945 0.875 C-2 0 -2 0 0 0 Z " fill="#FFFFFF" transform="translate(101,36)"/>
<path d="M0 0 C3.74 2.657 5.874 4.495 7 9 C7.424 11.919 7.341 13.983 7 17 C4.5 19 4.5 19 2 20 C1.938 18.701 1.876 17.401 1.812 16.062 C1.239 10.592 -1.071 6.571 -4 2 C-2.68 1.34 -1.36 0.68 0 0 Z " fill="#FFFFFF" transform="translate(138,136)"/>
<path d="M0 0 C2.875 0.188 2.875 0.188 6 1 C7.062 3.375 7.062 3.375 8 6 C10.649 7.902 12.905 8.968 16 10 C16 10.66 16 11.32 16 12 C14.084 12.081 12.167 12.139 10.25 12.188 C9.183 12.222 8.115 12.257 7.016 12.293 C3.635 11.965 2.282 11.502 0 9 C-0.391 6.738 -0.391 6.738 -0.25 4.312 C-0.214 3.504 -0.178 2.696 -0.141 1.863 C-0.094 1.248 -0.048 0.634 0 0 Z " fill="#FFFFFF" transform="translate(41,144)"/>
<path d="M0 0 C5.631 3.001 10.881 6.188 16 10 C10.873 12.746 10.873 12.746 8 13 C4.101 11.44 2.355 10.533 0 7 C-0.079 4.668 -0.088 2.332 0 0 Z " fill="#FFFFFF" transform="translate(48,140)"/>
<path d="M0 0 C4.299 0.387 7.3 2.159 11 4.281 C11.688 4.663 12.377 5.044 13.086 5.438 C14.772 6.374 16.449 7.326 18.125 8.281 C17.135 8.611 16.145 8.941 15.125 9.281 C13.775 8.585 13.775 8.585 12.398 7.875 C8.617 6.034 5.933 5.885 1.75 5.781 C-4.142 5.508 -8.554 4.779 -13.875 2.281 C-13.875 1.951 -13.875 1.621 -13.875 1.281 C-12.167 1.111 -10.459 0.945 -8.75 0.781 C-7.799 0.688 -6.847 0.596 -5.867 0.5 C-3.91 0.357 -1.953 0.191 0 0 Z " fill="#FFFFFF" transform="translate(92.875,157.71875)"/>
<path d="M0 0 C2.312 -0.188 2.312 -0.188 5 0 C6.022 0.978 7.02 1.981 8 3 C11.1 4.2 11.1 4.2 14 5 C14 5.66 14 6.32 14 7 C14.66 7.33 15.32 7.66 16 8 C14.312 10.062 14.312 10.062 12 12 C9.625 12.188 9.625 12.188 7 11 C3.499 7.753 0.885 4.775 0 0 Z " fill="#FFFFFF" transform="translate(124,155)"/>
<path d="M0 0 C0.598 0.784 1.196 1.567 1.812 2.375 C4.296 5.355 5.939 6.802 9.785 7.52 C17.227 8.185 23.039 7.781 30 5 C30.33 3.35 30.66 1.7 31 0 C31.99 0.99 32.98 1.98 34 3 C31.192 7.517 28.435 9.083 23.488 10.492 C15.397 12.144 8.22 11.152 1 7 C-1 4 -1 4 -0.625 1.812 C-0.419 1.214 -0.213 0.616 0 0 Z " fill="#FFFFFF" transform="translate(135,334)"/>
<path d="M0 0 C2.137 0.251 3.459 0.459 5 2 C5.141 4.671 5.042 7.324 5 10 C4.34 10 3.68 10 3 10 C2.67 8.35 2.34 6.7 2 5 C0.68 5 -0.64 5 -2 5 C-2.685 7.858 -2.685 7.858 -3 11 C-2.01 12.485 -2.01 12.485 -1 14 C0.32 13.01 1.64 12.02 3 11 C3 14 3 14 0.5 16.688 C-0.325 17.451 -1.15 18.214 -2 19 C-2.99 18.67 -3.98 18.34 -5 18 C-6.315 12.263 -5.856 8.213 -3 3 C-1.523 1.25 -1.523 1.25 0 0 Z " fill="#FFFFFF" transform="translate(243,110)"/>
<path d="M0 0 C3 1 3 1 4.188 3.125 C5.152 6.537 5.204 9.471 5 13 C4 14 4 14 1.438 14.062 C0.633 14.042 -0.171 14.021 -1 14 C-1.558 12.569 -2.096 11.13 -2.625 9.688 C-2.927 8.887 -3.228 8.086 -3.539 7.262 C-3.691 6.515 -3.843 5.769 -4 5 C-3.34 4.01 -2.68 3.02 -2 2 C-1.34 2 -0.68 2 0 2 C0 1.34 0 0.68 0 0 Z " fill="#000000" transform="translate(70,77)"/>
<path d="M0 0 C3.234 1.213 4.009 2.013 6 5 C6.079 7.332 6.088 9.668 6 12 C3.75 12.375 3.75 12.375 1 12 C-1.646 9.006 -3.055 7.249 -2.875 3.188 C-2 1 -2 1 0 0 Z " fill="#050505" transform="translate(96,142)"/>
<path d="M0 0 C0 2.97 0 5.94 0 9 C0.66 9 1.32 9 2 9 C2 9.66 2 10.32 2 11 C1.34 11 0.68 11 0 11 C0 11.99 0 12.98 0 14 C-0.66 14 -1.32 14 -2 14 C-2 13.01 -2 12.02 -2 11 C-4.31 11 -6.62 11 -9 11 C-4.914 0 -4.914 0 0 0 Z " fill="#1D1D1D" transform="translate(442,363)"/>
<path d="M0 0 C2.375 0.25 2.375 0.25 5 1 C7.153 3.87 7.37 6.48 7 10 C5 12 5 12 3.062 12.062 C1 11 1 11 -0.875 7.688 C-2 4 -2 4 -1.188 1.562 C-0.796 1.047 -0.404 0.531 0 0 Z " fill="#000000" transform="translate(110,73)"/>
<path d="M0 0 C2 0.812 2 0.812 3.25 2.5 C4.176 5.355 4.136 7.83 4 10.812 C2.35 11.143 0.7 11.472 -1 11.812 C-3.603 9.101 -3.995 7.921 -4.188 4.062 C-4.126 2.99 -4.064 1.917 -4 0.812 C-2 -0.188 -2 -0.188 0 0 Z " fill="#000000" transform="translate(132,142.1875)"/>
<path d="M0 0 C0.66 0.99 1.32 1.98 2 3 C1.67 3.99 1.34 4.98 1 6 C3.97 6.495 3.97 6.495 7 7 C6.688 8.875 6.688 8.875 6 11 C5.01 11.66 4.02 12.32 3 13 C3.33 14.98 3.66 16.96 4 19 C1.562 18.25 1.562 18.25 -1 17 C-1.938 15.125 -1.938 15.125 -2 13 C-1.443 12.041 -1.443 12.041 -0.875 11.062 C-0.586 10.382 -0.298 9.701 0 9 C-1.282 6.252 -1.282 6.252 -3 4 C-2.01 2.68 -1.02 1.36 0 0 Z " fill="#414141" transform="translate(139,154)"/>
<path d="M0 0 C2.96 2.138 3.868 3.539 4.875 7.062 C5 10 5 10 3 13 C2.34 13 1.68 13 1 13 C0.769 12.469 0.539 11.938 0.301 11.391 C-1.819 6.798 -3.678 3.882 -8 1 C-4.957 -0.014 -3.164 -0.386 0 0 Z " fill="#FFFFFF" transform="translate(171,327)"/>
<path d="M0 0 C0.369 9.41 0.369 9.41 -2 14 C-2.66 14 -3.32 14 -4 14 C-4.33 14.99 -4.66 15.98 -5 17 C-6.908 13.843 -7.198 12.087 -6.375 8.5 C-5.58 5.344 -4.066 0 0 0 Z " fill="#FFFFFF" transform="translate(406,158)"/>
<path d="M0 0 C-0.619 0.083 -1.238 0.165 -1.875 0.25 C-4.114 0.78 -4.114 0.78 -4.945 2.66 C-5.293 3.432 -5.641 4.204 -6 5 C-6.996 7.065 -7.996 9.127 -9 11.188 C-9.516 12.254 -10.031 13.32 -10.562 14.418 C-12 17 -12 17 -14 18 C-13.122 10.615 -11.208 5.421 -6 0 C-3.509 -1.245 -2.589 -0.777 0 0 Z " fill="#FFFFFF" transform="translate(392,148)"/>
<path d="M0 0 C0.846 0.804 1.691 1.609 2.562 2.438 C5.852 5.216 8.686 5.741 13 6 C13 6.66 13 7.32 13 8 C14.32 8.33 15.64 8.66 17 9 C11.061 11.592 6.459 12.404 0 12 C-0.33 11.34 -0.66 10.68 -1 10 C2.63 10 6.26 10 10 10 C10 9.34 10 8.68 10 8 C9.093 7.917 8.185 7.835 7.25 7.75 C3.565 6.9 2.273 5.972 0 3 C0 2.01 0 1.02 0 0 Z " fill="#000000" transform="translate(47,146)"/>
<path d="M0 0 C3.63 0 7.26 0 11 0 C11 0.66 11 1.32 11 2 C9.68 2 8.36 2 7 2 C7 5.96 7 9.92 7 14 C6.01 14 5.02 14 4 14 C4 10.04 4 6.08 4 2 C2.68 2 1.36 2 0 2 C0 1.34 0 0.68 0 0 Z " fill="#000000" transform="translate(385,363)"/>
<path d="M0 0 C0.526 0.326 1.052 0.652 1.594 0.988 C4.684 2.288 7.156 2.23 10.5 2.188 C11.624 2.181 12.748 2.175 13.906 2.168 C16.456 2.03 18.574 1.743 21 1 C20 4 20 4 18.277 5.164 C13.967 6.746 9.513 6.561 5 6 C1.812 4.125 1.812 4.125 0 2 C0 1.34 0 0.68 0 0 Z " fill="#FFFFFF" transform="translate(140,237)"/>
<path d="M0 0 C5.94 0.99 5.94 0.99 12 2 C12 3.65 12 5.3 12 7 C6.06 6.01 6.06 6.01 0 5 C0 3.35 0 1.7 0 0 Z " fill="#FFFFFF" transform="translate(142,328)"/>
<path d="M0 0 C0.99 0 1.98 0 3 0 C3 0.66 3 1.32 3 2 C3.66 2 4.32 2 5 2 C5.33 3.98 5.66 5.96 6 8 C4.35 8.33 2.7 8.66 1 9 C-0.562 7.25 -0.562 7.25 -2 5 C-1.752 2.83 -1.558 1.558 0 0 Z " fill="#000000" transform="translate(82,38)"/>
<path d="M0 0 C2.97 0 5.94 0 9 0 C8.02 3.92 6.612 7.305 5 11 C4.67 11.99 4.34 12.98 4 14 C3.01 14 2.02 14 1 14 C1.665 9.611 3.188 6.019 5 2 C3.35 2 1.7 2 0 2 C0 1.34 0 0.68 0 0 Z " fill="#000000" transform="translate(424,363)"/>
<path d="M0 0 C0.99 0.33 1.98 0.66 3 1 C3.33 1.99 3.66 2.98 4 4 C6 5.209 6 5.209 8 6 C7.67 6.99 7.34 7.98 7 9 C5.667 9.333 4.333 9.667 3 10 C2.67 10.99 2.34 11.98 2 13 C1.34 12.67 0.68 12.34 0 12 C0.33 11.01 0.66 10.02 1 9 C0.67 8.01 0.34 7.02 0 6 C-1 3 -1 3 0 0 Z " fill="#4E4E4E" transform="translate(104,141)"/>
<path d="M0 0 C0.66 0.33 1.32 0.66 2 1 C2 2.32 2 3.64 2 5 C5.663 5.749 8.424 6.238 12 5 C11.67 3.35 11.34 1.7 11 0 C12.65 0.33 14.3 0.66 16 1 C15.52 5.564 15.52 5.564 13.438 7.312 C8.61 8.674 4.568 8.653 0 6.75 C-0.66 6.173 -1.32 5.595 -2 5 C-2 3.68 -2 2.36 -2 1 C-1.34 0.67 -0.68 0.34 0 0 Z " fill="#FFFFFF" transform="translate(144,254)"/>
<path d="M0 0 C2.375 0.312 2.375 0.312 5 1 C7 4 7 4 6.625 6.688 C6.419 7.451 6.212 8.214 6 9 C3.562 8.625 3.562 8.625 1 8 C-0.354 5.291 -0.065 2.991 0 0 Z " fill="#505050" transform="translate(54,29)"/>
<path d="M0 0 C3.63 0 7.26 0 11 0 C11.33 0.99 11.66 1.98 12 3 C11 4 11 4 8.277 4.098 C6.624 4.08 6.624 4.08 4.938 4.062 C3.833 4.053 2.728 4.044 1.59 4.035 C0.308 4.018 0.308 4.018 -1 4 C-0.67 2.68 -0.34 1.36 0 0 Z " fill="#0A0A0A" transform="translate(145,172)"/>
<path d="M0 0 C2.188 -0.375 2.188 -0.375 5 0 C8.465 3.234 9.874 4.635 10.312 9.375 C10.158 10.674 10.158 10.674 10 12 C8.68 12.33 7.36 12.66 6 13 C6.33 10.03 6.66 7.06 7 4 C3.622 3.155 1.325 2.892 -2 4 C-1.34 2.68 -0.68 1.36 0 0 Z " fill="#FFFFFF" transform="translate(379,168)"/>
<path d="M0 0 C1.65 0.33 3.3 0.66 5 1 C4.34 3.64 3.68 6.28 3 9 C1.68 8.67 0.36 8.34 -1 8 C-0.67 5.36 -0.34 2.72 0 0 Z " fill="#FFFFFF" transform="translate(217,108)"/>
<path d="M0 0 C2.188 -0.312 2.188 -0.312 5 0 C8.274 2.53 9.764 4.198 10.938 8.188 C10.958 9.116 10.979 10.044 11 11 C10.34 11.66 9.68 12.32 9 13 C8.01 12.67 7.02 12.34 6 12 C6.66 12 7.32 12 8 12 C7.67 6.985 7.67 6.985 5 3 C1.917 2.833 1.917 2.833 -1 3 C-0.67 2.01 -0.34 1.02 0 0 Z " fill="#FFFFFF" transform="translate(180,316)"/>
<path d="M0 0 C0.66 2.97 1.32 5.94 2 9 C1.01 9.66 0.02 10.32 -1 11 C-4 4.375 -4 4.375 -4 1 C-2 0 -2 0 0 0 Z " fill="#141414" transform="translate(104,133)"/>
<path d="M0 0 C1.65 0 3.3 0 5 0 C5.33 1.65 5.66 3.3 6 5 C1.25 6.125 1.25 6.125 -1 5 C-0.67 3.35 -0.34 1.7 0 0 Z " fill="#FFFFFF" transform="translate(148,124)"/>
<path d="M0 0 C1.65 0.33 3.3 0.66 5 1 C5.33 2.65 5.66 4.3 6 6 C2.788 7.906 0.461 8.223 -3.25 8.125 C-4.142 8.107 -5.034 8.089 -5.953 8.07 C-6.966 8.036 -6.966 8.036 -8 8 C-8 7.67 -8 7.34 -8 7 C-3.545 6.505 -3.545 6.505 1 6 C1.33 4.68 1.66 3.36 2 2 C1.34 1.34 0.68 0.68 0 0 Z " fill="#FFFFFF" transform="translate(154,270)"/>
<path d="M0 0 C0.99 0.33 1.98 0.66 3 1 C4.188 4.062 4.188 4.062 5 7 C4.34 7.66 3.68 8.32 3 9 C0.117 6.619 -0.61 4.701 -1 1 C-0.67 0.67 -0.34 0.34 0 0 Z " fill="#FFFFFF" transform="translate(96,144)"/>
<path d="M0 0 C3 1 3 1 4.25 2.812 C5.116 5.339 4.885 6.522 4 9 C1 8 1 8 -0.25 6.188 C-1.116 3.661 -0.885 2.478 0 0 Z " fill="#FFFFFF" transform="translate(46,126)"/>
<path d="M0 0 C1.938 0.688 1.938 0.688 4 2 C4.75 4.625 4.75 4.625 5 7 C3.68 7 2.36 7 1 7 C-1 4 -1 4 -0.625 1.812 C-0.419 1.214 -0.213 0.616 0 0 Z " fill="#FFFFFF" transform="translate(69,81)"/>
<path d="M0 0 C1.32 0.66 2.64 1.32 4 2 C3.67 2.99 3.34 3.98 3 5 C0.36 5.33 -2.28 5.66 -5 6 C-5 5.34 -5 4.68 -5 4 C-4.361 3.711 -3.721 3.423 -3.062 3.125 C-0.848 2.172 -0.848 2.172 0 0 Z " fill="#FFFFFF" transform="translate(157,323)"/>
<path d="M0 0 C0.99 0.33 1.98 0.66 3 1 C4.188 4.062 4.188 4.062 5 7 C3.68 7 2.36 7 1 7 C-1 4 -1 4 -0.625 1.812 C-0.419 1.214 -0.213 0.616 0 0 Z " fill="#FFFFFF" transform="translate(130,144)"/>
<path d="M0 0 C1.32 0.33 2.64 0.66 4 1 C4.33 3.31 4.66 5.62 5 8 C3.062 7.375 3.062 7.375 1 6 C0.25 2.875 0.25 2.875 0 0 Z " fill="#FFFFFF" transform="translate(110,75)"/>
<path d="M0 0 C0.99 0.33 1.98 0.66 3 1 C1.68 1.33 0.36 1.66 -1 2 C-0.427 4.867 -0.139 5.861 2 8 C-0.375 7.688 -0.375 7.688 -3 7 C-3.66 6.01 -4.32 5.02 -5 4 C-3.366 2.292 -2.131 1.065 0 0 Z " fill="#FFFFFF" transform="translate(145,230)"/>
<path d="M0 0 C1.875 0.312 1.875 0.312 4 1 C6 4 6 4 6 7 C3.007 5.902 2.154 5.323 0.75 2.375 C0.502 1.591 0.255 0.808 0 0 Z " fill="#FFFFFF" transform="translate(368,181)"/>
<path d="M0 0 C0.66 0 1.32 0 2 0 C2.66 0.99 3.32 1.98 4 3 C5.32 2.67 6.64 2.34 8 2 C7.67 3.32 7.34 4.64 7 6 C5.35 6 3.7 6 2 6 C1.34 4.02 0.68 2.04 0 0 Z " fill="#161616" transform="translate(67,85)"/>
<path d="M0 0 C5.415 -0.369 5.415 -0.369 8.375 1.5 C8.911 1.995 9.448 2.49 10 3 C6.185 4.467 3.71 3.433 0 2 C0 1.34 0 0.68 0 0 Z " fill="#FFFFFF" transform="translate(69,75)"/>
<path d="M0 0 C0.33 1.32 0.66 2.64 1 4 C-0.65 4.66 -2.3 5.32 -4 6 C-4 4.35 -4 2.7 -4 1 C-2.68 0.67 -1.36 0.34 0 0 Z " fill="#FFFFFF" transform="translate(160,329)"/>
<path d="M0 0 C1.938 0.688 1.938 0.688 4 2 C4.75 4.625 4.75 4.625 5 7 C3.062 6.312 3.062 6.312 1 5 C0.25 2.375 0.25 2.375 0 0 Z " fill="#FFFFFF" transform="translate(189,314)"/>
<path d="M0 0 C0 0.66 0 1.32 0 2 C-2.812 2.688 -2.812 2.688 -6 3 C-7.875 1.562 -7.875 1.562 -9 0 C-5.77 -1.615 -3.372 -0.87 0 0 Z " fill="#FFFFFF" transform="translate(155,233)"/>
<path d="M0 0 C0.66 0.66 1.32 1.32 2 2 C-3.445 4.475 -3.445 4.475 -9 7 C-9 6.01 -9 5.02 -9 4 C-6.03 2.68 -3.06 1.36 0 0 Z " fill="#FFFFFF" transform="translate(99,32)"/>
<path d="M0 0 C2.062 0.438 2.062 0.438 4 1 C2.68 2.32 1.36 3.64 0 5 C0.66 5 1.32 5 2 5 C2 5.66 2 6.32 2 7 C0.68 6.67 -0.64 6.34 -2 6 C-1.125 1.125 -1.125 1.125 0 0 Z " fill="#FFFFFF" transform="translate(144,270)"/>
<path d="M0 0 C0.33 1.65 0.66 3.3 1 5 C-0.32 5 -1.64 5 -3 5 C-3.33 3.68 -3.66 2.36 -4 1 C-2 0 -2 0 0 0 Z " fill="#242424" transform="translate(102,128)"/>
<path d="M0 0 C1.46 0.282 2.918 0.576 4.375 0.875 C5.187 1.037 5.999 1.2 6.836 1.367 C9 2 9 2 11 4 C9 5 9 5 6.836 4.441 C6.024 4.151 5.212 3.861 4.375 3.562 C3.558 3.275 2.74 2.988 1.898 2.691 C1.272 2.463 0.645 2.235 0 2 C0 1.34 0 0.68 0 0 Z " fill="#000000" transform="translate(309,139)"/>
<path d="M0 0 C0.99 0 1.98 0 3 0 C3 1.65 3 3.3 3 5 C1.68 5 0.36 5 -1 5 C-0.67 3.35 -0.34 1.7 0 0 Z " fill="#FFFFFF" transform="translate(406,365)"/>
<path d="M0 0 C1.485 0.99 1.485 0.99 3 2 C5.625 2.167 5.625 2.167 8 2 C8 2.66 8 3.32 8 4 C5.69 4.33 3.38 4.66 1 5 C0.67 3.35 0.34 1.7 0 0 Z " fill="#FFFFFF" transform="translate(397,175)"/>
<path d="M0 0 C1.32 0.33 2.64 0.66 4 1 C4.33 2.32 4.66 3.64 5 5 C3.68 5.33 2.36 5.66 1 6 C0.67 4.02 0.34 2.04 0 0 Z " fill="#FFFFFF" transform="translate(156,231)"/>
<path d="M0 0 C0.66 0 1.32 0 2 0 C2 1.65 2 3.3 2 5 C1.34 5 0.68 5 0 5 C-0.33 5.66 -0.66 6.32 -1 7 C-1.625 4.625 -1.625 4.625 -2 2 C-1.34 1.34 -0.68 0.68 0 0 Z " fill="#FFFFFF" transform="translate(294,132)"/>
<path d="M0 0 C1.98 0.495 1.98 0.495 4 1 C3.67 1.66 3.34 2.32 3 3 C3.66 3.33 4.32 3.66 5 4 C3.35 4 1.7 4 0 4 C-0.33 3.34 -0.66 2.68 -1 2 C-0.67 1.34 -0.34 0.68 0 0 Z " fill="#000000" transform="translate(149,326)"/>
<path d="M0 0 C2.31 0.33 4.62 0.66 7 1 C6.67 1.66 6.34 2.32 6 3 C4.02 3 2.04 3 0 3 C0 2.01 0 1.02 0 0 Z " fill="#FFFFFF" transform="translate(148,289)"/>
<path d="M0 0 C0.598 0.206 1.196 0.412 1.812 0.625 C2.142 1.945 2.473 3.265 2.812 4.625 C2.049 4.316 1.286 4.006 0.5 3.688 C-1.375 2.946 -3.274 2.263 -5.188 1.625 C-2.188 -0.375 -2.188 -0.375 0 0 Z " fill="#FFFFFF" transform="translate(408.1875,153.375)"/>
<path d="M0 0 C0.99 0.33 1.98 0.66 3 1 C2.67 1.99 2.34 2.98 2 4 C0.35 4.33 -1.3 4.66 -3 5 C-2.625 3.062 -2.625 3.062 -2 1 C-1.34 0.67 -0.68 0.34 0 0 Z " fill="#000000" transform="translate(243,114)"/>
<path d="M0 0 C1.98 0.99 1.98 0.99 4 2 C4 3.32 4 4.64 4 6 C3.01 5.67 2.02 5.34 1 5 C0.67 3.35 0.34 1.7 0 0 Z " fill="#FFFFFF" transform="translate(82,40)"/>
</svg>
