<?xml version="1.0" encoding="UTF-8"?>
<!-- Generator: visioncortex VTracer 0.6.4 -->
<svg version="1.1" xmlns="http://www.w3.org/2000/svg" width="340" height="288">
<path d="M0 0 C112.2 0 224.4 0 340 0 C340 95.04 340 190.08 340 288 C227.8 288 115.6 288 0 288 C0 192.96 0 97.92 0 0 Z " fill="#FEFEFE" transform="translate(0,0)"/>
<path d="M0 0 C0.99 0 1.98 0 3 0 C3 3.63 3 7.26 3 11 C3.66 11 4.32 11 5 11 C5.121 11.946 5.121 11.946 5.244 12.912 C5.611 15.755 5.993 18.596 6.375 21.438 C6.501 22.431 6.628 23.424 6.758 24.447 C6.887 25.392 7.016 26.336 7.148 27.309 C7.321 28.62 7.321 28.62 7.498 29.959 C7.663 30.632 7.829 31.306 8 32 C8.99 32.495 8.99 32.495 10 33 C10.414 35.066 10.414 35.066 10.625 37.562 C10.7 38.389 10.775 39.215 10.852 40.066 C10.901 40.704 10.95 41.343 11 42 C11.99 42.33 12.98 42.66 14 43 C14 43.66 14 44.32 14 45 C15.32 45 16.64 45 18 45 C18.124 45.804 18.248 46.609 18.375 47.438 C18.581 48.283 18.787 49.129 19 50 C19.99 50.495 19.99 50.495 21 51 C21 52.65 21 54.3 21 56 C21.99 56 22.98 56 24 56 C24.495 59.465 24.495 59.465 25 63 C27.31 63.33 29.62 63.66 32 64 C32 63.34 32 62.68 32 62 C32.99 61.67 33.98 61.34 35 61 C35.33 60.01 35.66 59.02 36 58 C36.99 58 37.98 58 39 58 C39 57.34 39 56.68 39 56 C39.99 56 40.98 56 42 56 C42 57.65 42 59.3 42 61 C42.66 61 43.32 61 44 61 C44 61.99 44 62.98 44 64 C45.65 64.33 47.3 64.66 49 65 C49 66.32 49 67.64 49 69 C50.98 69.495 50.98 69.495 53 70 C53.33 68.02 53.66 66.04 54 64 C55.32 63.67 56.64 63.34 58 63 C58 63.66 58 64.32 58 65 C59.485 65.495 59.485 65.495 61 66 C61.495 66.681 61.99 67.361 62.5 68.062 C62.995 68.702 63.49 69.341 64 70 C64.99 70 65.98 70 67 70 C67 71.65 67 73.3 67 75 C69.97 75 72.94 75 76 75 C76 75.66 76 76.32 76 77 C77.65 76.67 79.3 76.34 81 76 C81 76.66 81 77.32 81 78 C82.32 78 83.64 78 85 78 C85 77.34 85 76.68 85 76 C85.66 76 86.32 76 87 76 C87 76.99 87 77.98 87 79 C89.97 79 92.94 79 96 79 C96.66 80.32 97.32 81.64 98 83 C99.98 83 101.96 83 104 83 C104 84.32 104 85.64 104 87 C104.66 87 105.32 87 106 87 C106.66 88.98 107.32 90.96 108 93 C110.64 93.33 113.28 93.66 116 94 C116.33 94.99 116.66 95.98 117 97 C118.192 96.988 119.385 96.977 120.613 96.965 C122.18 96.955 123.746 96.946 125.312 96.938 C126.098 96.929 126.884 96.921 127.693 96.912 C128.451 96.909 129.208 96.906 129.988 96.902 C130.685 96.897 131.381 96.892 132.099 96.886 C134 97 134 97 137 98 C137 97.34 137 96.68 137 96 C140.3 96.33 143.6 96.66 147 97 C147 96.01 147 95.02 147 94 C147.835 94.217 147.835 94.217 148.688 94.438 C154.095 95.753 159.471 96.434 165 97 C165 96.01 165 95.02 165 94 C165.99 94 166.98 94 168 94 C168 94.66 168 95.32 168 96 C169.65 96 171.3 96 173 96 C173 95.34 173 94.68 173 94 C177.584 93.141 181.083 93.081 185.738 93.812 C189.458 94.121 193.084 93.603 196.777 93.156 C197.511 93.105 198.244 93.053 199 93 C199.33 93.33 199.66 93.66 200 94 C201.837 93.884 203.671 93.707 205.5 93.5 C207.329 93.293 209.163 93.116 211 93 C211.33 93.33 211.66 93.66 212 94 C214.333 94.041 216.667 94.042 219 94 C219 94.66 219 95.32 219 96 C219.99 96 220.98 96 222 96 C222 95.01 222 94.02 222 93 C225.96 93.33 229.92 93.66 234 94 C234 94.99 234 95.98 234 97 C218.676 98.242 203.364 98.102 188 98 C188 98.66 188 99.32 188 100 C187.34 100 186.68 100 186 100 C186 99.34 186 98.68 186 98 C185.01 98 184.02 98 183 98 C183 98.66 183 99.32 183 100 C182.01 100 181.02 100 180 100 C179.67 99.34 179.34 98.68 179 98 C174.71 98 170.42 98 166 98 C166 98.66 166 99.32 166 100 C164.35 100 162.7 100 161 100 C161 99.01 161 98.02 161 97 C157.882 97.646 157.882 97.646 157 100 C156.01 100 155.02 100 154 100 C154 99.34 154 98.68 154 98 C151.69 98 149.38 98 147 98 C147 98.99 147 99.98 147 101 C146.01 101 145.02 101 144 101 C144 100.01 144 99.02 144 98 C142.68 98 141.36 98 140 98 C140 98.66 140 99.32 140 100 C136.232 101.202 132.621 101.133 128.688 101.125 C127.413 101.128 126.138 101.13 124.824 101.133 C121.112 101.004 117.658 100.596 114 100 C114 99.34 114 98.68 114 98 C111.69 98 109.38 98 107 98 C106.67 96.35 106.34 94.7 106 93 C105.34 93 104.68 93 104 93 C104 91.68 104 90.36 104 89 C103.34 89 102.68 89 102 89 C101.67 88.34 101.34 87.68 101 87 C100.34 87 99.68 87 99 87 C99 86.34 99 85.68 99 85 C98.01 85 97.02 85 96 85 C96 84.01 96 83.02 96 82 C94.453 82.093 94.453 82.093 92.875 82.188 C86.442 82.222 80.225 80.469 74 79 C74 79.66 74 80.32 74 81 C72.02 81.33 70.04 81.66 68 82 C68 80.68 68 79.36 68 78 C66.35 77.67 64.7 77.34 63 77 C62.67 75.02 62.34 73.04 62 71 C60.515 70.505 60.515 70.505 59 70 C58.67 69.34 58.34 68.68 58 68 C54.776 69.67 54.776 69.67 54.312 72.625 C54.209 73.409 54.106 74.192 54 75 C53.01 75 52.02 75 51 75 C51 74.01 51 73.02 51 72 C49.02 71.505 49.02 71.505 47 71 C47 69.68 47 68.36 47 67 C45.35 66.34 43.7 65.68 42 65 C42 64.34 42 63.68 42 63 C41.34 62.67 40.68 62.34 40 62 C40 61.34 40 60.68 40 60 C39.34 60 38.68 60 38 60 C38 60.66 38 61.32 38 62 C37.34 62 36.68 62 36 62 C36 62.66 36 63.32 36 64 C35.01 64 34.02 64 33 64 C32.505 65.485 32.505 65.485 32 67 C29.69 67 27.38 67 25 67 C25 66.34 25 65.68 25 65 C24.34 65 23.68 65 23 65 C22.505 61.535 22.505 61.535 22 58 C21.34 58 20.68 58 20 58 C20 56.35 20 54.7 20 53 C19.01 53 18.02 53 17 53 C16.505 51.02 16.505 51.02 16 49 C15.01 49 14.02 49 13 49 C10.5 45.667 10 44.267 10 40 C9.34 40 8.68 40 8 40 C8 38.35 8 36.7 8 35 C7.34 35 6.68 35 6 35 C6 32.69 6 30.38 6 28 C5.34 28 4.68 28 4 28 C3.505 25.03 3.505 25.03 3 22 C2.01 22.33 1.02 22.66 0 23 C0 45.11 0 67.22 0 90 C-19 90 -19 90 -21 89 C-21.33 90.32 -21.66 91.64 -22 93 C-26.75 92.25 -26.75 92.25 -29 90 C-29 89.01 -29 88.02 -29 87 C-25.741 84.828 -25.307 84.785 -21.656 85.207 C-20.822 85.299 -19.988 85.391 -19.129 85.486 C-17.828 85.648 -17.828 85.648 -16.5 85.812 C-15.632 85.909 -14.765 86.005 -13.871 86.104 C-10.408 86.502 -7.319 86.894 -4 88 C-4 87.01 -4 86.02 -4 85 C-3.01 85 -2.02 85 -1 85 C-1.002 84.024 -1.004 83.047 -1.007 82.041 C-1.027 72.831 -1.042 63.62 -1.052 54.41 C-1.057 49.675 -1.064 44.94 -1.075 40.205 C-1.086 35.634 -1.092 31.063 -1.095 26.492 C-1.097 24.749 -1.1 23.007 -1.106 21.265 C-1.113 18.821 -1.114 16.377 -1.114 13.933 C-1.117 13.216 -1.121 12.499 -1.124 11.76 C-1.116 7.735 -0.777 3.949 0 0 Z " fill="#000000" transform="translate(68,114)"/>
<path d="M0 0 C1.391 0 2.782 0.006 4.174 0.016 C4.905 0.017 5.636 0.019 6.389 0.02 C8.733 0.026 11.076 0.038 13.42 0.051 C15.005 0.056 16.59 0.061 18.176 0.065 C22.069 0.075 25.963 0.094 29.857 0.114 C30.352 8.034 30.352 8.034 30.857 16.114 C32.177 16.114 33.497 16.114 34.857 16.114 C35.187 14.464 35.517 12.814 35.857 11.114 C36.847 11.114 37.837 11.114 38.857 11.114 C39.352 16.064 39.352 16.064 39.857 21.114 C41.507 19.794 43.157 18.474 44.857 17.114 C44.362 16.124 44.362 16.124 43.857 15.114 C43.527 15.774 43.197 16.434 42.857 17.114 C41.867 17.114 40.877 17.114 39.857 17.114 C40.187 15.464 40.517 13.814 40.857 12.114 C45.607 10.989 45.607 10.989 47.857 12.114 C47.857 12.774 47.857 13.434 47.857 14.114 C48.765 13.577 49.672 13.041 50.607 12.489 C53.857 11.114 53.857 11.114 56.232 11.926 C56.768 12.318 57.305 12.71 57.857 13.114 C57.857 14.764 57.857 16.414 57.857 18.114 C60.627 14.793 60.627 14.793 62.857 11.114 C63.847 11.114 64.837 11.114 65.857 11.114 C66.074 12.722 66.074 12.722 66.295 14.364 C66.737 17.905 66.737 17.905 67.545 20.426 C67.648 20.983 67.751 21.54 67.857 22.114 C65.857 24.114 65.857 24.114 62.142 24.341 C60.544 24.34 58.947 24.329 57.349 24.309 C56.088 24.305 56.088 24.305 54.802 24.3 C52.112 24.289 49.422 24.264 46.732 24.239 C44.911 24.228 43.089 24.219 41.267 24.211 C36.797 24.189 32.327 24.155 27.857 24.114 C27.857 19.824 27.857 15.534 27.857 11.114 C17.297 11.114 6.737 11.114 -4.143 11.114 C-4.143 0.15 -4.143 0.15 0 0 Z " fill="#181818" transform="translate(263.142822265625,263.886474609375)"/>
<path d="M0 0 C5.94 0 11.88 0 18 0 C18 0.66 18 1.32 18 2 C18.66 2 19.32 2 20 2 C20 1.34 20 0.68 20 0 C25.667 0 31.333 0 37 0 C37.495 1.98 37.495 1.98 38 4 C36.68 4 35.36 4 34 4 C34 7.63 34 11.26 34 15 C33.34 15 32.68 15 32 15 C32 11.37 32 7.74 32 4 C28.37 4 24.74 4 21 4 C21 4.66 21 5.32 21 6 C21.969 5.979 22.939 5.959 23.938 5.938 C27 6 27 6 28 7 C28.041 9.333 28.042 11.667 28 14 C24.69 15.655 21.009 15.101 17.375 15.062 C16.172 15.056 16.172 15.056 14.945 15.049 C12.964 15.037 10.982 15.019 9 15 C8.67 11.37 8.34 7.74 8 4 C7.01 4 6.02 4 5 4 C5 7.63 5 11.26 5 15 C4.34 15 3.68 15 3 15 C3 11.37 3 7.74 3 4 C2.01 4 1.02 4 0 4 C0 2.68 0 1.36 0 0 Z " fill="#000000" transform="translate(121,233)"/>
<path d="M0 0 C2.832 0.033 5.664 0.065 8.496 0.098 C8.496 3.728 8.496 7.358 8.496 11.098 C10.806 11.098 13.116 11.098 15.496 11.098 C15.496 7.468 15.496 3.838 15.496 0.098 C22.43 0 22.43 0 24.496 0.098 C25.496 1.098 25.496 1.098 25.629 3.785 C25.626 4.878 25.624 5.971 25.621 7.098 C25.625 8.737 25.625 8.737 25.629 10.41 C25.496 13.098 25.496 13.098 24.496 14.098 C22.509 14.197 20.517 14.228 18.527 14.23 C17.317 14.232 16.106 14.233 14.859 14.234 C13.584 14.231 12.31 14.227 10.996 14.223 C9.721 14.227 8.446 14.23 7.133 14.234 C5.317 14.232 5.317 14.232 3.465 14.23 C2.345 14.229 1.226 14.228 0.072 14.227 C-2.504 14.098 -2.504 14.098 -3.504 13.098 C-3.603 11.1 -3.634 9.098 -3.629 7.098 C-3.631 6.005 -3.634 4.911 -3.637 3.785 C-3.456 0.135 -3.456 0.135 0 0 Z " fill="#000000" transform="translate(274.50390625,14.90234375)"/>
<path d="M0 0 C1.21 0.005 2.419 0.01 3.666 0.016 C4.971 0.019 6.276 0.022 7.621 0.026 C9.01 0.034 10.398 0.042 11.787 0.051 C13.179 0.056 14.572 0.061 15.965 0.065 C19.385 0.077 22.804 0.093 26.224 0.114 C26.224 1.434 26.224 2.754 26.224 4.114 C24.244 4.114 22.264 4.114 20.224 4.114 C20.224 4.774 20.224 5.434 20.224 6.114 C21.874 6.114 23.524 6.114 25.224 6.114 C25.224 7.104 25.224 8.094 25.224 9.114 C23.574 9.114 21.924 9.114 20.224 9.114 C20.224 9.774 20.224 10.434 20.224 11.114 C22.204 11.114 24.184 11.114 26.224 11.114 C26.224 12.434 26.224 13.754 26.224 15.114 C23.254 15.114 20.284 15.114 17.224 15.114 C16.894 11.484 16.564 7.854 16.224 4.114 C15.564 4.114 14.904 4.114 14.224 4.114 C14.224 7.414 14.224 10.714 14.224 14.114 C12.904 14.114 11.584 14.114 10.224 14.114 C10.224 10.814 10.224 7.514 10.224 4.114 C8.244 4.444 6.264 4.774 4.224 5.114 C4.224 8.084 4.224 11.054 4.224 14.114 C2.904 14.444 1.584 14.774 0.224 15.114 C0.224 11.484 0.224 7.854 0.224 4.114 C-0.766 4.114 -1.756 4.114 -2.776 4.114 C-3.106 3.124 -3.436 2.134 -3.776 1.114 C-2.776 0.114 -2.776 0.114 0 0 Z " fill="#000000" transform="translate(63.775634765625,232.886474609375)"/>
<path d="M0 0 C2.64 0 5.28 0 8 0 C8.33 1.98 8.66 3.96 9 6 C9.66 6 10.32 6 11 6 C11.66 4.35 12.32 2.7 13 1 C13.99 1 14.98 1 16 1 C19.727 5.279 19.315 9.65 19 15 C18.01 15 17.02 15 16 15 C16 13.68 16 12.36 16 11 C15.01 11 14.02 11 13 11 C12.67 12.32 12.34 13.64 12 15 C8.04 15 4.08 15 0 15 C0 10.05 0 5.1 0 0 Z " fill="#161616" transform="translate(41,233)"/>
<path d="M0 0 C1.098 -0.006 1.098 -0.006 2.219 -0.012 C7.623 -0.002 7.623 -0.002 8.75 1.125 C8.75 4.425 8.75 7.725 8.75 11.125 C1.49 11.125 -5.77 11.125 -13.25 11.125 C-13.25 7.825 -13.25 4.525 -13.25 1.125 C-8.836 0.03 -4.519 -0.024 0 0 Z " fill="#1D1D1D" transform="translate(121.25,263.875)"/>
<path d="M0 0 C10 0 10 0 13 1 C13 2.65 13 4.3 13 6 C13.66 6 14.32 6 15 6 C15.66 4.02 16.32 2.04 17 0 C17.66 0 18.32 0 19 0 C18.358 5.135 17.317 9.994 16 15 C15.01 15 14.02 15 13 15 C12.34 11.37 11.68 7.74 11 4 C10.34 4 9.68 4 9 4 C8.856 4.804 8.711 5.609 8.562 6.438 C8 9 8 9 7 10 C7.66 10.33 8.32 10.66 9 11 C9 12.32 9 13.64 9 15 C7.062 14.625 7.062 14.625 5 14 C4.67 13.34 4.34 12.68 4 12 C3.01 13.485 3.01 13.485 2 15 C1.34 15 0.68 15 0 15 C0 10.05 0 5.1 0 0 Z " fill="#080808" transform="translate(91,233)"/>
<path d="M0 0 C1.115 -0.031 1.115 -0.031 2.252 -0.062 C7.52 -0.099 11.104 0.88 15.812 3.25 C15.812 4.9 15.812 6.55 15.812 8.25 C7.233 8.25 -1.347 8.25 -10.188 8.25 C-8.868 6.6 -7.548 4.95 -6.188 3.25 C-7.507 3.25 -8.827 3.25 -10.188 3.25 C-10.188 2.59 -10.188 1.93 -10.188 1.25 C-6.979 -0.354 -3.521 0.024 0 0 Z " fill="#1B1B1B" transform="translate(251.1875,222.75)"/>
<path d="M0 0 C2.813 -0.027 5.625 -0.047 8.438 -0.062 C9.24 -0.071 10.042 -0.079 10.869 -0.088 C12.913 -0.097 14.957 -0.052 17 0 C18 1 18 1 18.062 4.562 C18.042 5.697 18.021 6.831 18 8 C13.844 9.009 9.956 9.102 5.688 9.062 C4.433 9.053 3.179 9.044 1.887 9.035 C0.934 9.024 -0.019 9.012 -1 9 C0.204 6.506 1.454 4.319 3 2 C1.68 2.33 0.36 2.66 -1 3 C-0.67 2.01 -0.34 1.02 0 0 Z " fill="#313131" transform="translate(42,171)"/>
<path d="M0 0 C0.887 0.186 1.774 0.371 2.688 0.562 C5.852 0.98 7.948 0.808 11 0 C11 0.66 11 1.32 11 2 C11.66 2 12.32 2 13 2 C13 1.34 13 0.68 13 0 C14.65 0.33 16.3 0.66 18 1 C18.125 6.75 18.125 6.75 17 9 C15.68 9 14.36 9 13 9 C13 8.34 13 7.68 13 7 C12.34 7 11.68 7 11 7 C11 7.66 11 8.32 11 9 C9.68 9 8.36 9 7 9 C7 8.34 7 7.68 7 7 C6.01 7 5.02 7 4 7 C4 7.66 4 8.32 4 9 C2.68 9 1.36 9 0 9 C-1.125 2.25 -1.125 2.25 0 0 Z " fill="#3E3E3E" transform="translate(42,89)"/>
<path d="M0 0 C3.3 0 6.6 0 10 0 C10.169 1.75 10.335 3.5 10.5 5.25 C10.593 6.225 10.686 7.199 10.781 8.203 C10.958 10.463 11 12.733 11 15 C10.34 15 9.68 15 9 15 C8.67 14.34 8.34 13.68 8 13 C6.298 13.031 6.298 13.031 4.562 13.062 C1 13 1 13 0 12 C-0.072 9.98 -0.084 7.958 -0.062 5.938 C-0.053 4.833 -0.044 3.728 -0.035 2.59 C-0.024 1.735 -0.012 0.881 0 0 Z " fill="#000000" transform="translate(71,33)"/>
<path d="M0 0 C0.66 0.66 1.32 1.32 2 2 C1.01 2.495 1.01 2.495 0 3 C0.66 3.33 1.32 3.66 2 4 C2.33 3.34 2.66 2.68 3 2 C3.66 2 4.32 2 5 2 C5 1.34 5 0.68 5 0 C7.169 0.506 9 1 11 2 C11 1.34 11 0.68 11 0 C13.475 0.99 13.475 0.99 16 2 C16 3.98 16 5.96 16 8 C12.032 8.94 8.323 9.134 4.25 9.125 C3.1 9.128 1.95 9.13 0.766 9.133 C-2 9 -2 9 -3 8 C-3.25 5.625 -3.25 5.625 -3 3 C-1.5 1.188 -1.5 1.188 0 0 Z " fill="#272727" transform="translate(44,116)"/>
<path d="M0 0 C3.3 0 6.6 0 10 0 C10.027 1.979 10.046 3.958 10.062 5.938 C10.074 7.04 10.086 8.142 10.098 9.277 C10 12 10 12 9 13 C7.188 13.133 7.188 13.133 5 13.125 C4.278 13.128 3.556 13.13 2.812 13.133 C1 13 1 13 0 12 C-0.072 9.98 -0.084 7.958 -0.062 5.938 C-0.053 4.833 -0.044 3.728 -0.035 2.59 C-0.024 1.735 -0.012 0.881 0 0 Z " fill="#000000" transform="translate(83,33)"/>
<path d="M0 0 C3.562 0.125 3.562 0.125 5.562 1.125 C5.562 2.775 5.562 4.425 5.562 6.125 C4.903 6.125 4.243 6.125 3.562 6.125 C3.562 6.785 3.562 7.445 3.562 8.125 C4.222 8.125 4.882 8.125 5.562 8.125 C5.562 9.775 5.562 11.425 5.562 13.125 C2.58 14.616 -0.154 14.244 -3.438 14.125 C-4.438 13.125 -4.438 13.125 -4.57 10.438 C-4.568 9.344 -4.565 8.251 -4.562 7.125 C-4.565 6.032 -4.568 4.939 -4.57 3.812 C-4.372 -0.21 -4.145 0.151 0 0 Z " fill="#272727" transform="translate(86.4375,14.875)"/>
<path d="M0 0 C0.99 0.33 1.98 0.66 3 1 C5.003 0.688 7.003 0.352 9 0 C12.312 -0.125 12.312 -0.125 15 0 C16 1 16 1 16.062 4.062 C16.042 5.032 16.021 6.001 16 7 C12.259 7.88 8.838 8.083 5 8 C4.01 8 3.02 8 2 8 C1.34 8 0.68 8 0 8 C0 7.34 0 6.68 0 6 C-0.99 6 -1.98 6 -3 6 C-2.427 3.133 -2.139 2.139 0 0 Z " fill="#1C1C1C" transform="translate(44,144)"/>
<path d="M0 0 C3.562 0.125 3.562 0.125 5.562 1.125 C5.562 2.115 5.562 3.105 5.562 4.125 C2.922 3.795 0.282 3.465 -2.438 3.125 C-2.438 3.785 -2.438 4.445 -2.438 5.125 C-1.014 5.094 -1.014 5.094 0.438 5.062 C3.562 5.125 3.562 5.125 5.562 6.125 C5.562 8.435 5.562 10.745 5.562 13.125 C2.58 14.616 -0.154 14.244 -3.438 14.125 C-4.438 13.125 -4.438 13.125 -4.57 10.438 C-4.568 9.344 -4.565 8.251 -4.562 7.125 C-4.565 6.032 -4.568 4.939 -4.57 3.812 C-4.372 -0.21 -4.145 0.151 0 0 Z " fill="#202020" transform="translate(64.4375,14.875)"/>
<path d="M0 0 C1.32 0 2.64 0 4 0 C4 0.66 4 1.32 4 2 C4.66 2 5.32 2 6 2 C6 1.34 6 0.68 6 0 C7.32 0 8.64 0 10 0 C11.354 2.709 11.065 5.009 11 8 C6.703 9.011 2.083 10.041 -2 8 C-2 6.02 -2 4.04 -2 2 C-1.34 2 -0.68 2 0 2 C0 1.34 0 0.68 0 0 Z " fill="#282828" transform="translate(49,67)"/>
<path d="M0 0 C3.63 0 7.26 0 11 0 C12 5 12 5 11 9 C7.37 9 3.74 9 0 9 C0 6.03 0 3.06 0 0 Z " fill="#000000" transform="translate(165,265)"/>
<path d="M0 0 C2.875 -0.125 2.875 -0.125 6 0 C6.66 0.66 7.32 1.32 8 2 C8.33 1.34 8.66 0.68 9 0 C9.66 0 10.32 0 11 0 C13.29 3.435 13.178 4.985 13 9 C12.34 9 11.68 9 11 9 C11 8.34 11 7.68 11 7 C10.34 7 9.68 7 9 7 C9 7.66 9 8.32 9 9 C6.03 9 3.06 9 0 9 C0 6.03 0 3.06 0 0 Z " fill="#0C0C0C" transform="translate(61,67)"/>
<path d="M0 0 C3 0.125 3 0.125 4 1.125 C4.125 4.125 4.125 4.125 4 7.125 C3 8.125 3 8.125 -0.062 8.188 C-1.032 8.167 -2.001 8.146 -3 8.125 C-3.33 6.805 -3.66 5.485 -4 4.125 C-4.33 4.599 -4.66 5.074 -5 5.562 C-8.098 7.983 -11.12 7.807 -15 8.125 C-15 6.145 -15 4.165 -15 2.125 C-13.68 2.125 -12.36 2.125 -11 2.125 C-11 3.115 -11 4.105 -11 5.125 C-9.866 4.486 -8.731 3.846 -7.562 3.188 C-6.924 2.828 -6.286 2.468 -5.629 2.098 C-2.275 0.095 -2.275 0.095 0 0 Z " fill="#2A2A2A" transform="translate(283,222.875)"/>
<path d="M0 0 C9.375 0 9.375 0 13 2 C13 3.98 13 5.96 13 8 C12.34 8 11.68 8 11 8 C11 7.34 11 6.68 11 6 C10.34 6 9.68 6 9 6 C9 6.66 9 7.32 9 8 C8.34 8 7.68 8 7 8 C6.67 8.66 6.34 9.32 6 10 C6 9.34 6 8.68 6 8 C4.02 8 2.04 8 0 8 C0 5.36 0 2.72 0 0 Z " fill="#141414" transform="translate(61,221)"/>
<path d="M0 0 C3.96 0 7.92 0 12 0 C11.814 0.928 11.629 1.856 11.438 2.812 C10.759 6.013 10.759 6.013 12 9 C5.945 9.195 5.945 9.195 4 9 C3.34 8.34 2.68 7.68 2 7 C1.34 7.66 0.68 8.32 0 9 C0 6.03 0 3.06 0 0 Z " fill="#111111" transform="translate(152,255)"/>
<path d="M0 0 C1.196 0.021 2.393 0.041 3.625 0.062 C4.615 0.062 5.605 0.062 6.625 0.062 C7.285 0.062 7.945 0.062 8.625 0.062 C8.625 2.703 8.625 5.343 8.625 8.062 C7.965 8.062 7.305 8.062 6.625 8.062 C5.965 6.742 5.305 5.422 4.625 4.062 C4.295 5.383 3.965 6.703 3.625 8.062 C1.292 8.105 -1.042 8.103 -3.375 8.062 C-4.375 7.062 -4.375 7.062 -4.5 4.062 C-4.323 -0.175 -4.309 0.08 0 0 Z " fill="#0C0C0C" transform="translate(194.375,37.9375)"/>
<path d="M0 0 C0.99 0 1.98 0 3 0 C3 1.65 3 3.3 3 5 C4.32 5 5.64 5 7 5 C7 3.35 7 1.7 7 0 C7.66 0 8.32 0 9 0 C9 4.62 9 9.24 9 14 C8.34 14 7.68 14 7 14 C7 12.02 7 10.04 7 8 C5.68 8 4.36 8 3 8 C3 9.98 3 11.96 3 14 C2.01 14 1.02 14 0 14 C0 9.38 0 4.76 0 0 Z " fill="#000000" transform="translate(261,15)"/>
<path d="M0 0 C0.99 0.495 0.99 0.495 2 1 C2 2.98 2 4.96 2 7 C2.66 7 3.32 7 4 7 C4 4.69 4 2.38 4 0 C4.949 0.186 5.898 0.371 6.875 0.562 C9.899 1.287 9.899 1.287 12 0 C12 2.97 12 5.94 12 9 C11.34 9 10.68 9 10 9 C9.67 8.34 9.34 7.68 9 7 C8.67 7.66 8.34 8.32 8 9 C5.667 9.042 3.333 9.041 1 9 C0 8 0 8 -0.098 6.152 C-0.065 4.102 -0.033 2.051 0 0 Z " fill="#030303" transform="translate(164,20)"/>
<path d="M0 0 C0.99 0 1.98 0 3 0 C3 0.99 3 1.98 3 3 C3.66 3 4.32 3 5 3 C5 2.01 5 1.02 5 0 C5.66 0 6.32 0 7 0 C7.33 0.66 7.66 1.32 8 2 C8.33 1.34 8.66 0.68 9 0 C9.66 0 10.32 0 11 0 C10.814 0.742 10.629 1.485 10.438 2.25 C10.008 4.95 10.149 6.446 11 9 C10.01 8.34 9.02 7.68 8 7 C7.67 7.66 7.34 8.32 7 9 C5.68 9 4.36 9 3 9 C3 8.34 3 7.68 3 7 C2.01 7 1.02 7 0 7 C-0.33 7.66 -0.66 8.32 -1 9 C-1.098 2.848 -1.098 2.848 -1 1 C-0.67 0.67 -0.34 0.34 0 0 Z " fill="#232323" transform="translate(139,20)"/>
<path d="M0 0 C3.96 0 7.92 0 12 0 C11.814 0.928 11.629 1.856 11.438 2.812 C10.759 6.013 10.759 6.013 12 9 C10.02 9 8.04 9 6 9 C5.67 8.01 5.34 7.02 5 6 C3.68 6 2.36 6 1 6 C0.67 6.99 0.34 7.98 0 9 C0 6.03 0 3.06 0 0 Z " fill="#090909" transform="translate(165,255)"/>
<path d="M0 0 C1.646 -0.027 3.292 -0.046 4.938 -0.062 C5.854 -0.074 6.771 -0.086 7.715 -0.098 C10 0 10 0 11 1 C11.041 3 11.043 5 11 7 C6.591 8.102 2.516 8.077 -2 8 C-2 6 -2 6 -0.625 4.375 C1 3 1 3 3 3 C3 2.34 3 1.68 3 1 C2.01 0.67 1.02 0.34 0 0 Z " fill="#202020" transform="translate(49,221)"/>
<path d="M0 0 C1.98 0.99 1.98 0.99 4 2 C4 1.34 4 0.68 4 0 C6.333 -0.042 8.667 -0.041 11 0 C12 1 12 1 12.125 4 C12 7 12 7 11 8 C8.667 8.041 6.333 8.042 4 8 C3.67 7.01 3.34 6.02 3 5 C2.34 4.67 1.68 4.34 1 4 C0.67 5.32 0.34 6.64 0 8 C0 5.36 0 2.72 0 0 Z " fill="#1A1A1A" transform="translate(138,38)"/>
<path d="M0 0 C1.32 0 2.64 0 4 0 C4 1.98 4 3.96 4 6 C4.66 6 5.32 6 6 6 C6 6.99 6 7.98 6 9 C5.34 9 4.68 9 4 9 C4 10.32 4 11.64 4 13 C3.34 13 2.68 13 2 13 C2 11.68 2 10.36 2 9 C0.02 9 -1.96 9 -4 9 C-3.67 7.02 -3.34 5.04 -3 3 C-2.34 3 -1.68 3 -1 3 C-0.67 2.01 -0.34 1.02 0 0 Z " fill="#111111" transform="translate(64,33)"/>
<path d="M0 0 C0.99 0 1.98 0 3 0 C3 0.66 3 1.32 3 2 C3.66 2 4.32 2 5 2 C5 1.34 5 0.68 5 0 C6.65 0.33 8.3 0.66 10 1 C10.125 6.75 10.125 6.75 9 9 C7.68 9 6.36 9 5 9 C5 8.34 5 7.68 5 7 C4.34 7 3.68 7 3 7 C3 7.66 3 8.32 3 9 C1.68 9 0.36 9 -1 9 C-1 8.34 -1 7.68 -1 7 C-0.01 7 0.98 7 2 7 C2 5.35 2 3.7 2 2 C1.01 1.67 0.02 1.34 -1 1 C-0.67 0.67 -0.34 0.34 0 0 Z " fill="#111111" transform="translate(50,89)"/>
<path d="M0 0 C0 1.98 0 3.96 0 6 C0.66 6 1.32 6 2 6 C2 6.99 2 7.98 2 9 C1.34 9 0.68 9 0 9 C0 10.65 0 12.3 0 14 C-0.66 14 -1.32 14 -2 14 C-2 12.35 -2 10.7 -2 9 C-3.98 9 -5.96 9 -8 9 C-7.67 7.35 -7.34 5.7 -7 4 C-6.34 4 -5.68 4 -5 4 C-5 3.34 -5 2.68 -5 2 C-2 0 -2 0 0 0 Z " fill="#0A0A0A" transform="translate(79,15)"/>
<path d="M0 0 C0 4.29 0 8.58 0 13 C-0.99 13 -1.98 13 -3 13 C-3 10.69 -3 8.38 -3 6 C-3.99 6 -4.98 6 -6 6 C-6 3 -6 3 -4.688 1.312 C-3 0 -3 0 0 0 Z " fill="#000000" transform="translate(338,275)"/>
<path d="M0 0 C0.33 0 0.66 0 1 0 C1 2.31 1 4.62 1 7 C2.65 7 4.3 7 6 7 C6 7.66 6 8.32 6 9 C4.021 9.027 2.042 9.046 0.062 9.062 C-1.04 9.074 -2.142 9.086 -3.277 9.098 C-6 9 -6 9 -7 8 C-7.041 6 -7.043 4 -7 2 C-6.67 2 -6.34 2 -6 2 C-6 3.65 -6 5.3 -6 7 C-5.01 7 -4.02 7 -3 7 C-3 5.35 -3 3.7 -3 2 C-2.01 2 -1.02 2 0 2 C0 1.34 0 0.68 0 0 Z " fill="#000000" transform="translate(67,265)"/>
<path d="M0 0 C1.98 0 3.96 0 6 0 C6 2.97 6 5.94 6 9 C5.34 9 4.68 9 4 9 C4 8.34 4 7.68 4 7 C3.34 7 2.68 7 2 7 C2 7.66 2 8.32 2 9 C1.34 9 0.68 9 0 9 C0 6.03 0 3.06 0 0 Z " fill="#000000" transform="translate(131,20)"/>
<path d="M0 0 C1.98 0 3.96 0 6 0 C6 2.97 6 5.94 6 9 C5.34 9 4.68 9 4 9 C3.67 8.34 3.34 7.68 3 7 C2.67 7.66 2.34 8.32 2 9 C1.34 9 0.68 9 0 9 C0 6.03 0 3.06 0 0 Z " fill="#000000" transform="translate(157,20)"/>
<path d="M0 0 C1.675 0.286 3.344 0.618 5 1 C5 2.98 5 4.96 5 7 C3.344 7.382 1.675 7.714 0 8 C-1 7 -1 7 -1.125 4 C-1 1 -1 1 0 0 Z " fill="#2E2E2E" transform="translate(158,38)"/>
<path d="M0 0 C0.99 0.33 1.98 0.66 3 1 C3.33 3.31 3.66 5.62 4 8 C3.01 8.495 3.01 8.495 2 9 C2 8.34 2 7.68 2 7 C1.01 7 0.02 7 -1 7 C-1 7.66 -1 8.32 -1 9 C-1.66 9 -2.32 9 -3 9 C-3 7.02 -3 5.04 -3 3 C-2.34 3 -1.68 3 -1 3 C-0.67 2.01 -0.34 1.02 0 0 Z " fill="#222222" transform="translate(111,20)"/>
<path d="M0 0 C1.98 0 3.96 0 6 0 C6 1.32 6 2.64 6 4 C8.31 4.33 10.62 4.66 13 5 C13 5.66 13 6.32 13 7 C8.71 7 4.42 7 0 7 C0 6.34 0 5.68 0 5 C1.65 5 3.3 5 5 5 C5 4.01 5 3.02 5 2 C3.35 2 1.7 2 0 2 C0 1.34 0 0.68 0 0 Z " fill="#FFFFFF" transform="translate(133,237)"/>
<path d="M0 0 C1.32 0 2.64 0 4 0 C4 0.99 4 1.98 4 3 C4.784 2.505 5.567 2.01 6.375 1.5 C9 0 9 0 11 0 C9.965 2.824 9.334 3.824 6.625 5.25 C4 6 4 6 0 6 C0 4.02 0 2.04 0 0 Z " fill="#000000" transform="translate(268,225)"/>
<path d="M0 0 C1.65 0.33 3.3 0.66 5 1 C5 2.98 5 4.96 5 7 C3.35 7.33 1.7 7.66 0 8 C-0.981 4.947 -0.981 3.053 0 0 Z " fill="#242424" transform="translate(178,38)"/>
<path d="M0 0 C0.66 0 1.32 0 2 0 C4.29 3.435 4.178 4.985 4 9 C3.34 9 2.68 9 2 9 C2 8.34 2 7.68 2 7 C1.34 7 0.68 7 0 7 C0 7.66 0 8.32 0 9 C-0.66 9 -1.32 9 -2 9 C-2.25 3.375 -2.25 3.375 0 0 Z " fill="#191919" transform="translate(180,255)"/>
<path d="M0 0 C1.32 0.66 2.64 1.32 4 2 C4 3.98 4 5.96 4 8 C3.34 8 2.68 8 2 8 C2 7.34 2 6.68 2 6 C1.01 6 0.02 6 -1 6 C-1 6.66 -1 7.32 -1 8 C-1.66 8 -2.32 8 -3 8 C-3.188 5.125 -3.188 5.125 -3 2 C-2.01 1.34 -1.02 0.68 0 0 Z " fill="#131313" transform="translate(111,38)"/>
<path d="M0 0 C1.98 0 3.96 0 6 0 C5.814 0.763 5.629 1.526 5.438 2.312 C4.772 5.09 4.772 5.09 6 8 C4.02 8 2.04 8 0 8 C0 5.36 0 2.72 0 0 Z " fill="#000000" transform="translate(131,38)"/>
<path d="M0 0 C2.475 0.99 2.475 0.99 5 2 C5 2.99 5 3.98 5 5 C4.34 5 3.68 5 3 5 C3 5.99 3 6.98 3 8 C1.062 7.688 1.062 7.688 -1 7 C-2 4 -2 4 -1.062 1.812 C-0.537 0.915 -0.537 0.915 0 0 Z " fill="#000000" transform="translate(280,243)"/>
<path d="M0 0 C1.32 0 2.64 0 4 0 C4 2.64 4 5.28 4 8 C3.01 8.33 2.02 8.66 1 9 C0 8 0 8 -0.098 6.152 C-0.065 4.102 -0.033 2.051 0 0 Z " fill="#FFFFFF" transform="translate(86,35)"/>
<path d="M0 0 C1.32 0 2.64 0 4 0 C4 2.64 4 5.28 4 8 C2.68 8 1.36 8 0 8 C0 5.36 0 2.72 0 0 Z " fill="#FFFFFF" transform="translate(74,35)"/>
<path d="M0 0 C1.32 0 2.64 0 4 0 C4 2.64 4 5.28 4 8 C2.68 8 1.36 8 0 8 C0 5.36 0 2.72 0 0 Z " fill="#FFFFFF" transform="translate(293,18)"/>
<path d="M0 0 C1.98 0 3.96 0 6 0 C6 0.99 6 1.98 6 3 C5.01 3 4.02 3 3 3 C3 4.98 3 6.96 3 9 C2.34 9 1.68 9 1 9 C0.67 6.03 0.34 3.06 0 0 Z " fill="#000000" transform="translate(185,255)"/>
<path d="M0 0 C1.98 0 3.96 0 6 0 C5.67 1.65 5.34 3.3 5 5 C4.01 5 3.02 5 2 5 C2 5.99 2 6.98 2 8 C1.34 8 0.68 8 0 8 C0 5.36 0 2.72 0 0 Z " fill="#000000" transform="translate(164,38)"/>
<path d="M0 0 C3.3 0 6.6 0 10 0 C10 0.99 10 1.98 10 3 C6.7 3 3.4 3 0 3 C0 2.01 0 1.02 0 0 Z " fill="#000000" transform="translate(47,38)"/>
<path d="M0 0 C0.66 0 1.32 0 2 0 C3.354 2.709 3.065 5.009 3 8 C2.67 7.34 2.34 6.68 2 6 C1.01 6 0.02 6 -1 6 C-1.33 6.66 -1.66 7.32 -2 8 C-2.125 5.125 -2.125 5.125 -2 2 C-1.34 1.34 -0.68 0.68 0 0 Z " fill="#232323" transform="translate(206,38)"/>
<path d="M0 0 C1.65 0 3.3 0 5 0 C5.33 0.66 5.66 1.32 6 2 C6.99 2.33 7.98 2.66 9 3 C9 3.66 9 4.32 9 5 C6.03 5 3.06 5 0 5 C0 3.35 0 1.7 0 0 Z " fill="#FFFFFF" transform="translate(166,267)"/>
<path d="M0 0 C0.66 0 1.32 0 2 0 C2.33 0.99 2.66 1.98 3 3 C3.33 2.01 3.66 1.02 4 0 C4.66 0 5.32 0 6 0 C5.125 5.75 5.125 5.75 4 8 C3.34 8 2.68 8 2 8 C0.235 4.912 0 3.767 0 0 Z " fill="#000000" transform="translate(294,223)"/>
<path d="M0 0 C1.98 0 3.96 0 6 0 C6 0.66 6 1.32 6 2 C5.34 2 4.68 2 4 2 C4 3.98 4 5.96 4 8 C3.01 8.495 3.01 8.495 2 9 C2 6.69 2 4.38 2 2 C1.34 2 0.68 2 0 2 C0 1.34 0 0.68 0 0 Z " fill="#000000" transform="translate(178,265)"/>
<path d="M0 0 C1.98 0 3.96 0 6 0 C6 0.66 6 1.32 6 2 C5.34 2 4.68 2 4 2 C4 4.31 4 6.62 4 9 C3.34 8.67 2.68 8.34 2 8 C2 6.02 2 4.04 2 2 C1.34 2 0.68 2 0 2 C0 1.34 0 0.68 0 0 Z " fill="#000000" transform="translate(158,265)"/>
<path d="M0 0 C1.32 0 2.64 0 4 0 C4 2.64 4 5.28 4 8 C2.68 8 1.36 8 0 8 C0 5.36 0 2.72 0 0 Z " fill="#000000" transform="translate(288,223)"/>
<path d="M0 0 C0.66 0 1.32 0 2 0 C2 1.98 2 3.96 2 6 C3.32 6 4.64 6 6 6 C6 6.66 6 7.32 6 8 C4.02 8 2.04 8 0 8 C0 5.36 0 2.72 0 0 Z " fill="#000000" transform="translate(210,38)"/>
<path d="M0 0 C0.99 0 1.98 0 3 0 C3 2.64 3 5.28 3 8 C2.01 8 1.02 8 0 8 C0 5.36 0 2.72 0 0 Z " fill="#FFFFFF" transform="translate(274,18)"/>
<path d="M0 0 C1.65 0 3.3 0 5 0 C4.414 6.152 4.414 6.152 4 8 C3.01 8.495 3.01 8.495 2 9 C2 6.69 2 4.38 2 2 C1.34 2 0.68 2 0 2 C0 1.34 0 0.68 0 0 Z " fill="#000000" transform="translate(74,265)"/>
<path d="M0 0 C0.66 0 1.32 0 2 0 C1.688 3.375 1.688 3.375 1 7 C0.01 7.66 -0.98 8.32 -2 9 C-2.33 7.35 -2.66 5.7 -3 4 C-2.01 4 -1.02 4 0 4 C0 2.68 0 1.36 0 0 Z " fill="#000000" transform="translate(57,265)"/>
<path d="M0 0 C0.66 0 1.32 0 2 0 C2.33 2.97 2.66 5.94 3 9 C1.68 9 0.36 9 -1 9 C-1.125 2.25 -1.125 2.25 0 0 Z " fill="#000000" transform="translate(43,67)"/>
<path d="M0 0 C2.475 0.495 2.475 0.495 5 1 C5 2.32 5 3.64 5 5 C3.35 5 1.7 5 0 5 C0 3.35 0 1.7 0 0 Z " fill="#FFFFFF" transform="translate(294,283)"/>
<path d="M0 0 C0.99 0 1.98 0 3 0 C3 2.97 3 5.94 3 9 C2.01 9 1.02 9 0 9 C0 6.03 0 3.06 0 0 Z " fill="#000000" transform="translate(152,20)"/>
<path d="M0 0 C0.99 0 1.98 0 3 0 C3 2.64 3 5.28 3 8 C1.68 7.67 0.36 7.34 -1 7 C-0.67 4.69 -0.34 2.38 0 0 Z " fill="#000000" transform="translate(185,38)"/>
<path d="M0 0 C1.32 0 2.64 0 4 0 C4 1.65 4 3.3 4 5 C2.68 5 1.36 5 0 5 C0 3.35 0 1.7 0 0 Z " fill="#E5E5E5" transform="translate(62,222)"/>
<path d="M0 0 C1.32 0 2.64 0 4 0 C4 1.65 4 3.3 4 5 C2.68 5 1.36 5 0 5 C0 3.35 0 1.7 0 0 Z " fill="#D8D8D8" transform="translate(62,69)"/>
<path d="M0 0 C0.99 0 1.98 0 3 0 C3 1.98 3 3.96 3 6 C2.34 6 1.68 6 1 6 C1 5.34 1 4.68 1 4 C0.34 4 -0.32 4 -1 4 C-0.67 2.68 -0.34 1.36 0 0 Z " fill="#000000" transform="translate(274,244)"/>
<path d="M0 0 C1.32 0 2.64 0 4 0 C4.33 1.32 4.66 2.64 5 4 C3.68 4 2.36 4 1 4 C0.67 2.68 0.34 1.36 0 0 Z " fill="#4B4B4B" transform="translate(172,265)"/>
<path d="M0 0 C0.99 0 1.98 0 3 0 C3.33 0.99 3.66 1.98 4 3 C3.01 4.485 3.01 4.485 2 6 C1.34 6 0.68 6 0 6 C0 4.02 0 2.04 0 0 Z " fill="#000000" transform="translate(286,244)"/>
</svg>
