<?xml version="1.0" encoding="UTF-8"?>
<!-- Generator: visioncortex VTracer 0.6.4 -->
<svg version="1.1" xmlns="http://www.w3.org/2000/svg" width="520" height="442">
<path d="M0 0 C171.6 0 343.2 0 520 0 C520 145.86 520 291.72 520 442 C348.4 442 176.8 442 0 442 C0 296.14 0 150.28 0 0 Z " fill="#FAFAFA" transform="translate(0,0)"/>
<path d="M0 0 C-0.33 0.99 -0.66 1.98 -1 3 C-1.675 3.045 -2.349 3.09 -3.044 3.136 C-6.156 3.35 -9.265 3.581 -12.375 3.812 C-13.436 3.883 -14.497 3.953 -15.59 4.025 C-27.46 4.777 -27.46 4.777 -37.5 10.375 C-38.925 12.869 -39.963 15.328 -41 18 C-39.463 18.489 -39.463 18.489 -37.895 18.988 C-36.534 19.429 -35.173 19.871 -33.812 20.312 C-33.139 20.526 -32.465 20.739 -31.771 20.959 C-31.111 21.175 -30.45 21.391 -29.77 21.613 C-29.167 21.807 -28.565 22.001 -27.945 22.2 C-26 23 -26 23 -23.788 24.466 C-20.163 26.46 -16.662 27.146 -12.629 27.938 C-11.429 28.187 -11.429 28.187 -10.205 28.441 C-7.659 28.97 -5.111 29.486 -2.562 30 C0.792 30.678 4.145 31.367 7.496 32.062 C8.259 32.213 9.021 32.363 9.807 32.517 C14.275 33.444 17.975 34.751 22 37 C22 37.33 22 37.66 22 38 C14.14 37.33 6.619 35.698 -1.062 33.938 C-2.31 33.656 -3.557 33.374 -4.842 33.084 C-7.896 32.394 -10.948 31.699 -14 31 C-13.564 31.557 -13.129 32.114 -12.68 32.688 C-12.084 33.451 -11.489 34.214 -10.875 35 C-10.295 35.743 -9.715 36.485 -9.117 37.25 C-7 40 -7 40 -5.894 41.947 C-1.445 49.17 4.58 50.345 12.5 52.281 C13.823 52.626 15.145 52.973 16.467 53.323 C19.226 54.047 21.989 54.751 24.758 55.439 C28.295 56.319 31.823 57.231 35.349 58.156 C38.73 59.042 42.115 59.913 45.5 60.781 C47.394 61.269 47.394 61.269 49.326 61.766 C50.508 62.06 51.689 62.355 52.906 62.658 C54.458 63.048 54.458 63.048 56.041 63.446 C59.095 64.018 61.901 64.099 65 64 C65 64.66 65 65.32 65 66 C65.598 65.794 66.196 65.588 66.812 65.375 C69 65 69 65 72 67 C71.322 67.242 70.644 67.485 69.945 67.734 C67.985 68.44 66.029 69.154 64.074 69.875 C62.189 70.565 60.297 71.236 58.395 71.875 C49.131 75.174 41.871 81.172 36 89 C42.467 91.994 47.007 92.189 54 91 C54 91.99 54 92.98 54 94 C47.586 96.138 41.757 95.712 35.688 92.75 C32.185 90.803 28.896 88.8 26 86 C26 85.34 26 84.68 26 84 C25.34 84 24.68 84 24 84 C24 83.34 24 82.68 24 82 C23.34 82 22.68 82 22 82 C17 76.524 17 76.524 17 74 C16.34 74 15.68 74 15 74 C11 69.529 11 69.529 11 67 C10.34 67 9.68 67 9 67 C7.721 65.549 7.721 65.549 6.281 63.531 C5.75 62.799 5.219 62.067 4.672 61.312 C4.12 60.549 3.568 59.786 3 59 C1.932 57.59 0.859 56.184 -0.219 54.781 C-0.759 54.076 -1.299 53.371 -1.855 52.645 C-2.398 51.937 -2.941 51.229 -3.5 50.5 C-4.594 49.073 -5.688 47.646 -6.781 46.219 C-7.581 45.176 -7.581 45.176 -8.397 44.113 C-9.481 42.684 -10.554 41.246 -11.615 39.8 C-12.131 39.096 -12.648 38.393 -13.18 37.668 C-13.636 37.039 -14.092 36.41 -14.562 35.762 C-20.713 28.224 -30.689 24.062 -40 22 C-38.02 24.97 -38.02 24.97 -36 28 C-36.33 28.66 -36.66 29.32 -37 30 C-37.839 28.879 -38.671 27.753 -39.5 26.625 C-39.964 25.999 -40.428 25.372 -40.906 24.727 C-42 23 -42 23 -42 21 C-48.291 22.502 -52.817 23.738 -57 29 C-58.85 32.701 -58.475 36.962 -58 41 C-56.915 43.415 -55.725 44.952 -54 47 C-54.33 47.66 -54.66 48.32 -55 49 C-55.66 48.01 -56.32 47.02 -57 46 C-55.515 59.488 -43.593 73.763 -33.961 82.812 C-29.88 86.853 -27.719 90.824 -25.625 96.125 C-25.076 97.462 -25.076 97.462 -24.516 98.825 C-17.248 116.957 -11.535 135.664 -6.4 154.493 C0.363 179.063 11.072 201.771 28 221 C28.538 221.621 29.075 222.243 29.629 222.883 C33.701 227.271 38.498 230.552 43.385 233.957 C50.329 238.844 56.701 244.316 63 250 C63.896 250.799 64.792 251.598 65.715 252.422 C75.328 261.473 82.099 272.845 89 284 C86.458 283.625 85.255 283.269 83.464 281.377 C82.984 280.685 82.505 279.994 82.012 279.281 C81.474 278.518 80.936 277.755 80.382 276.969 C79.823 276.154 79.264 275.339 78.688 274.5 C77.518 272.843 76.347 271.187 75.176 269.531 C74.117 268.021 73.059 266.51 72 265 C67.246 258.306 62.003 252.759 55.715 247.457 C54.482 246.409 53.262 245.346 52.051 244.274 C43.61 236.205 43.61 236.205 33.02 232.398 C29.856 232.654 27.035 233.087 24 234 C24.33 234.99 24.66 235.98 25 237 C25.22 239.167 25.391 241.339 25.535 243.512 C25.622 244.821 25.71 246.13 25.799 247.478 C25.887 248.881 25.975 250.284 26.062 251.688 C26.107 252.388 26.152 253.089 26.198 253.811 C26.839 263.881 27.294 273.907 27 284 C26.34 284 25.68 284 25 284 C24.134 279.401 23.764 274.866 23.57 270.199 C23.499 268.661 23.428 267.123 23.355 265.584 C23.319 264.785 23.282 263.985 23.244 263.161 C22.925 256.525 22.533 249.893 22.135 243.262 C22.012 241.195 21.894 239.129 21.776 237.062 C21.068 225.759 20.438 216.098 13.332 206.962 C8.624 200.899 5.416 194.221 2.125 187.312 C1.304 185.619 1.304 185.619 0.467 183.891 C-8 166.041 -8 166.041 -8 160 C-8.755 159.901 -9.511 159.801 -10.289 159.699 C-15.055 158.47 -17.285 154.935 -20 151 C-21.458 148.218 -22.825 145.406 -24.168 142.567 C-29.201 132.168 -36.429 123.202 -44.383 114.891 C-46 113 -46 113 -46 111 C-46.66 111 -47.32 111 -48 111 C-48 110.34 -48 109.68 -48 109 C-48.66 109 -49.32 109 -50 109 C-50 108.34 -50 107.68 -50 107 C-50.566 106.755 -51.132 106.51 -51.715 106.258 C-55.27 104.301 -57.948 101.457 -60.879 98.68 C-62.941 96.69 -62.941 96.69 -66 97 C-67.038 95.357 -68.036 93.688 -69 92 C-69.99 91.34 -70.98 90.68 -72 90 C-72.99 90.495 -72.99 90.495 -74 91 C-74.25 90.407 -74.5 89.814 -74.758 89.203 C-76.166 86.705 -77.621 85.502 -79.875 83.75 C-87.908 76.881 -89.314 68.217 -90.281 58.039 C-91.411 47.847 -95.162 34.197 -103 27 C-103.66 27.33 -104.32 27.66 -105 28 C-105.99 26.515 -105.99 26.515 -107 25 C-113.401 23.698 -119.049 23.463 -125 26.562 C-127.412 28.966 -127.412 28.966 -126.938 32.812 C-126.197 36.608 -125.153 40.31 -124 44 C-115.942 42.909 -107.949 41.722 -100 40 C-100 40.66 -100 41.32 -100 42 C-103.228 42.675 -106.457 43.338 -109.688 44 C-110.6 44.191 -111.512 44.382 -112.451 44.578 C-113.337 44.759 -114.224 44.939 -115.137 45.125 C-116.354 45.376 -116.354 45.376 -117.596 45.633 C-120.101 46.015 -122.471 46.063 -125 46 C-125.454 44.783 -125.907 43.566 -126.375 42.312 C-127.545 39.192 -128.746 36.088 -130 33 C-135.206 48.619 -129.836 68.027 -125 83.121 C-122.923 89.683 -122.845 95.619 -122.987 102.44 C-123.074 107.443 -122.637 111.876 -121.453 116.754 C-120.643 120.771 -120.492 124.932 -121 129 C-121.66 129.99 -122.32 130.98 -123 132 C-123.66 131.67 -124.32 131.34 -125 131 C-124.34 130.01 -123.68 129.02 -123 128 C-122.546 124.184 -123.141 121.456 -124.508 117.949 C-126.3 112.718 -126.344 107.919 -126.188 102.438 C-126.174 101.524 -126.16 100.611 -126.146 99.67 C-126.112 97.446 -126.063 95.223 -126 93 C-127.542 98.567 -128.369 103.739 -128.625 109.5 C-128.664 110.227 -128.702 110.954 -128.742 111.703 C-128.835 113.468 -128.919 115.234 -129 117 C-129.33 117 -129.66 117 -130 117 C-130.055 114.27 -130.097 111.542 -130.125 108.812 C-130.135 107.983 -130.144 107.154 -130.154 106.299 C-130.158 101.587 -129.772 97.469 -128.625 92.875 C-126.999 84.237 -130.196 75.843 -132.52 67.574 C-134.494 60.442 -135.14 53.734 -135.125 46.312 C-135.128 45.051 -135.13 43.789 -135.133 42.488 C-135.02 39.515 -134.695 36.883 -134 34 C-135.265 34.017 -135.265 34.017 -136.555 34.035 C-137.65 34.044 -138.746 34.053 -139.875 34.062 C-141.511 34.08 -141.511 34.08 -143.18 34.098 C-146 34 -146 34 -148 33 C-148.433 34.043 -148.867 35.087 -149.313 36.162 C-150.938 40.071 -152.563 43.979 -154.189 47.886 C-154.89 49.571 -155.59 51.255 -156.29 52.94 C-157.301 55.376 -158.315 57.811 -159.328 60.246 C-159.636 60.987 -159.943 61.728 -160.26 62.492 C-162.888 68.799 -165.553 75.092 -168.598 81.211 C-173.881 92.624 -174.536 104.387 -175.682 116.789 C-176.114 121.153 -176.692 125.481 -177.375 129.812 C-177.492 130.553 -177.608 131.293 -177.729 132.056 C-178.599 137.257 -179.764 142.362 -180.995 147.489 C-185.268 163.051 -185.268 163.051 -182.188 178.375 C-177.758 184.328 -170.67 188.356 -163.625 190.375 C-159.059 192.422 -158.263 194.507 -156.125 198.848 C-153.633 203.615 -150.025 205.123 -145.125 206.688 C-142.286 207.504 -139.671 208.035 -136.727 208.352 C-132.173 209.144 -128.424 210.756 -124.25 212.688 C-123.458 213.051 -122.666 213.414 -121.85 213.788 C-119.561 214.847 -117.28 215.922 -115 217 C-113.911 217.499 -112.821 217.998 -111.699 218.512 C-99.633 224.468 -92.007 235.206 -87.71 247.774 C-86.459 251.907 -85.35 256.075 -84.25 260.25 C-83.862 261.683 -83.473 263.115 -83.082 264.547 C-82.366 267.177 -81.659 269.808 -80.958 272.442 C-80.007 275.973 -79.013 279.487 -78 283 C-78.99 283.33 -79.98 283.66 -81 284 C-81.312 282.891 -81.625 281.782 -81.946 280.639 C-83.116 276.491 -84.297 272.347 -85.48 268.204 C-85.989 266.416 -86.495 264.628 -86.999 262.839 C-87.726 260.255 -88.464 257.674 -89.203 255.094 C-89.423 254.304 -89.643 253.514 -89.87 252.7 C-91.593 246.742 -93.534 240.466 -98 236 C-100.64 238.31 -103.28 240.62 -106 243 C-106.66 242.67 -107.32 242.34 -108 242 C-105.36 239.69 -102.72 237.38 -100 235 C-101.146 230.414 -102.63 227.608 -106.62 224.901 C-108.491 223.83 -110.385 222.841 -112.312 221.875 C-113.271 221.374 -113.271 221.374 -114.248 220.863 C-118.421 218.707 -122.664 216.806 -127 215 C-127.17 215.869 -127.34 216.738 -127.516 217.633 C-129.404 226.611 -131.024 232.743 -139 238 C-144.5 240.702 -149.926 241.592 -156 242 C-153.093 240.433 -150.312 239.469 -147.125 238.625 C-140.319 236.596 -135.641 233.751 -132.048 227.525 C-130.801 224.521 -130.569 221.958 -130.363 218.719 C-130.29 217.646 -130.217 216.572 -130.142 215.467 C-130.072 214.246 -130.072 214.246 -130 213 C-149.903 215.102 -169.768 217.428 -189.613 220.016 C-191.122 220.212 -191.122 220.212 -192.662 220.413 C-200.944 221.493 -209.225 222.58 -217.506 223.67 C-223.765 224.494 -230.025 225.314 -236.285 226.13 C-239.174 226.507 -242.062 226.89 -244.951 227.273 C-246.714 227.503 -248.477 227.733 -250.24 227.962 C-251.027 228.068 -251.815 228.174 -252.627 228.283 C-257.127 228.862 -261.462 229.1 -266 229 C-266 228.67 -266 228.34 -266 228 C-246.586 225.241 -227.161 222.602 -207.707 220.141 C-206.77 220.022 -205.834 219.903 -204.869 219.781 C-196.194 218.683 -187.518 217.589 -178.841 216.5 C-174.02 215.895 -169.2 215.286 -164.381 214.674 C-162.565 214.445 -160.749 214.216 -158.932 213.99 C-156.433 213.679 -153.935 213.362 -151.437 213.044 C-150.321 212.907 -150.321 212.907 -149.182 212.767 C-145.799 212.581 -145.799 212.581 -143 211 C-143.996 210.636 -143.996 210.636 -145.012 210.266 C-153.39 207.086 -157.961 204.078 -162 196 C-162 195.34 -162 194.68 -162 194 C-162.784 193.959 -163.567 193.918 -164.375 193.875 C-169.556 192.624 -173.534 189.828 -178 187 C-180.981 185.51 -183.323 186.235 -186.618 186.621 C-187.298 186.699 -187.978 186.777 -188.678 186.857 C-190.158 187.027 -191.637 187.2 -193.116 187.376 C-195.462 187.654 -197.808 187.925 -200.155 188.195 C-205.146 188.769 -210.135 189.353 -215.125 189.938 C-220.887 190.611 -226.65 191.281 -232.414 191.944 C-234.716 192.21 -237.018 192.482 -239.32 192.755 C-240.749 192.92 -242.177 193.085 -243.606 193.25 C-245.462 193.467 -245.462 193.467 -247.356 193.69 C-251.271 194.023 -255.073 194.052 -259 194 C-259.99 188.06 -259.99 188.06 -261 182 C-260.34 182.33 -259.68 182.66 -259 183 C-259 184.98 -259 186.96 -259 189 C-258.34 189 -257.68 189 -257 189 C-254.785 181.081 -252.779 173.124 -250.875 165.125 C-250.611 164.024 -250.346 162.923 -250.074 161.789 C-247.591 151.402 -246.194 142.611 -248 132 C-247.34 132 -246.68 132 -246 132 C-245.67 135.63 -245.34 139.26 -245 143 C-243.68 142.67 -242.36 142.34 -241 142 C-239.463 141.74 -237.921 141.512 -236.375 141.312 C-235.211 141.152 -235.211 141.152 -234.023 140.988 C-232 141 -232 141 -230 143 C-234.95 143.33 -239.9 143.66 -245 144 C-245.108 145.396 -245.217 146.792 -245.328 148.23 C-245.948 154.392 -247.283 160.304 -248.75 166.312 C-249.014 167.408 -249.279 168.504 -249.551 169.633 C-251.474 177.383 -253.813 184.671 -257 192 C-240.538 190.501 -224.114 188.72 -207.688 186.875 C-205.182 186.595 -202.676 186.315 -200.17 186.035 C-194.113 185.359 -188.056 184.68 -182 184 C-182.349 183.469 -182.699 182.938 -183.059 182.391 C-183.514 181.684 -183.969 180.978 -184.438 180.25 C-184.89 179.554 -185.342 178.858 -185.809 178.141 C-190.62 169.496 -187.181 159.439 -185 150.5 C-184.714 149.296 -184.428 148.092 -184.133 146.852 C-183.43 143.899 -182.719 140.949 -182 138 C-183.62 138.197 -183.62 138.197 -185.273 138.399 C-189.271 138.883 -193.271 139.353 -197.271 139.819 C-199.004 140.023 -200.736 140.23 -202.468 140.442 C-204.954 140.745 -207.442 141.034 -209.93 141.32 C-211.095 141.467 -211.095 141.467 -212.285 141.617 C-214.182 141.828 -216.092 141.924 -218 142 C-218.99 141.01 -218.99 141.01 -220 140 C-207.46 138.68 -194.92 137.36 -182 136 C-181.34 131.71 -180.68 127.42 -180 123 C-188.186 122.88 -196.177 123.331 -204.324 124.094 C-205.552 124.205 -206.779 124.316 -208.044 124.43 C-211.925 124.782 -215.806 125.141 -219.688 125.5 C-222.335 125.742 -224.983 125.982 -227.631 126.223 C-234.088 126.81 -240.544 127.403 -247 128 C-247 127.34 -247 126.68 -247 126 C-242.545 125.505 -242.545 125.505 -238 125 C-237.67 123.02 -237.34 121.04 -237 119 C-235 121 -235 121 -235 124 C-229.39 124 -223.78 124 -218 124 C-215.457 116.699 -213.554 109.371 -211.807 101.846 C-211.601 100.99 -211.395 100.135 -211.184 99.254 C-211.004 98.484 -210.824 97.714 -210.638 96.92 C-210 95 -210 95 -208 93 C-208.606 98.962 -209.792 104.493 -211.438 110.25 C-211.655 111.039 -211.872 111.828 -212.096 112.641 C-213.149 116.387 -214.239 119.478 -216 123 C-197.685 121.515 -197.685 121.515 -179 120 C-179.33 118.68 -179.66 117.36 -180 116 C-180.792 116.061 -181.583 116.121 -182.399 116.184 C-185.995 116.458 -189.591 116.729 -193.188 117 C-194.433 117.095 -195.679 117.191 -196.963 117.289 C-198.165 117.379 -199.367 117.47 -200.605 117.562 C-202.263 117.688 -202.263 117.688 -203.954 117.816 C-206.647 117.979 -209.304 118.035 -212 118 C-211.57 116.456 -211.13 114.915 -210.688 113.375 C-210.444 112.516 -210.2 111.658 -209.949 110.773 C-209.636 109.858 -209.323 108.943 -209 108 C-208.68 106.928 -208.361 105.855 -208.031 104.75 C-206 102 -206 102 -203.919 101.338 C-201.21 100.95 -198.546 100.756 -195.812 100.625 C-194.891 100.557 -193.97 100.488 -193.021 100.418 C-187.675 100.046 -182.358 99.937 -177 100 C-176.67 97.03 -176.34 94.06 -176 91 C-182.27 91 -188.54 91 -195 91 C-195 89.68 -195 88.36 -195 87 C-196.485 87.495 -196.485 87.495 -198 88 C-200.355 88.22 -202.714 88.391 -205.074 88.535 C-206.1 88.6 -206.1 88.6 -207.146 88.665 C-209.327 88.802 -211.507 88.932 -213.688 89.062 C-215.167 89.154 -216.647 89.246 -218.127 89.338 C-221.751 89.564 -225.375 89.782 -229 90 C-229 85.05 -229 80.1 -229 75 C-230.32 75 -231.64 75 -233 75 C-233.192 65.305 -232.596 55.671 -232 46 C-229.525 45.505 -229.525 45.505 -227 45 C-227 40.71 -227 36.42 -227 32 C-220.01 30.981 -213.056 30.684 -206 30.438 C-204.844 30.394 -203.687 30.351 -202.496 30.307 C-199.664 30.201 -196.832 30.099 -194 30 C-194 28.35 -194 26.7 -194 25 C-187.542 23.897 -181.102 23.674 -174.562 23.438 C-173.449 23.394 -172.336 23.351 -171.189 23.307 C-168.46 23.201 -165.73 23.099 -163 23 C-162.505 25.475 -162.505 25.475 -162 28 C-156.06 27.67 -150.12 27.34 -144 27 C-144.046 25.686 -144.093 24.373 -144.141 23.02 C-144.178 21.284 -144.215 19.548 -144.25 17.812 C-144.284 16.948 -144.317 16.084 -144.352 15.193 C-144.416 10.96 -144.358 8.609 -142.172 4.887 C-140 3 -140 3 -137 3 C-137 3.66 -137 4.32 -137 5 C-137.66 5 -138.32 5 -139 5 C-140.657 7.9 -141.233 9.892 -141.125 13.223 C-141.102 14.401 -141.102 14.401 -141.078 15.604 C-141.052 16.415 -141.027 17.226 -141 18.062 C-140.949 19.678 -140.907 21.294 -140.875 22.91 C-140.852 23.623 -140.829 24.336 -140.805 25.071 C-141 27 -141 27 -143 30 C-144.485 30.495 -144.485 30.495 -146 31 C-137.689 31.373 -137.689 31.373 -130.168 28.703 C-129.044 27.184 -128.019 25.592 -127 24 C-121.982 20.615 -116.888 20.337 -111 20 C-111.99 19.278 -112.98 18.556 -114 17.812 C-116.948 15.39 -116.948 15.39 -117.375 12.188 C-117.189 11.105 -117.189 11.105 -117 10 C-115.639 10.278 -115.639 10.278 -114.25 10.562 C-111.212 11.186 -111.212 11.186 -109.156 10.5 C-106.391 9.859 -104.066 10.136 -101.25 10.438 C-100.265 10.539 -99.28 10.641 -98.266 10.746 C-97.518 10.83 -96.77 10.914 -96 11 C-96 10.01 -96 9.02 -96 8 C-95.34 8 -94.68 8 -94 8 C-94 8.99 -94 9.98 -94 11 C-93.443 10.977 -92.886 10.954 -92.312 10.93 C-86.824 10.8 -82.271 11.467 -77 13 C-76.67 10.03 -76.34 7.06 -76 4 C-62.573 2.846 -49.14 1.828 -35.689 1.009 C-34.256 0.921 -32.823 0.832 -31.39 0.741 C-20.915 0.079 -10.495 -0.103 0 0 Z " fill="#010101" transform="translate(309,141)"/>
<path d="M0 0 C4.388 4.032 6.913 10.096 9.688 15.312 C10.237 16.336 10.786 17.36 11.353 18.415 C12.896 21.295 14.435 24.179 15.97 27.064 C17.063 29.118 18.156 31.17 19.25 33.223 C23.054 40.361 26.852 47.503 30.641 54.648 C30.966 55.262 31.292 55.875 31.627 56.508 C32.769 58.663 33.909 60.818 35 63 C39.08 61.698 39.08 61.698 43 60 C48.014 59.622 51.009 59.862 55 63 C56.031 66.547 55.91 70.163 55.96 73.847 C56.005 76.277 56.115 78.701 56.223 81.129 C56.276 82.919 56.327 84.71 56.375 86.5 C56.413 87.36 56.452 88.221 56.491 89.107 C56.542 93.053 56.428 95.334 54.262 98.703 C49.291 102.204 43.941 104.691 38.438 107.25 C37.216 107.826 35.996 108.404 34.775 108.981 C26.167 113.044 17.514 117.006 8.809 120.855 C5.364 122.38 1.946 123.952 -1.465 125.551 C-2.37 125.971 -3.275 126.391 -4.207 126.823 C-5.936 127.626 -7.661 128.438 -9.381 129.259 C-17.524 133.014 -17.524 133.014 -22 132 C-26.458 127.765 -29.045 122.562 -31.812 117.125 C-32.2 116.38 -32.587 115.635 -32.986 114.867 C-35.243 110.506 -37.442 106.118 -39.631 101.722 C-43.234 94.489 -46.894 87.286 -50.594 80.102 C-51.075 79.165 -51.557 78.229 -52.053 77.264 C-54.047 73.389 -56.04 69.515 -58.04 65.644 C-59.52 62.777 -60.995 59.908 -62.469 57.039 C-62.925 56.159 -63.381 55.279 -63.851 54.372 C-64.266 53.563 -64.68 52.754 -65.107 51.92 C-65.474 51.209 -65.841 50.498 -66.219 49.765 C-67 48 -67 48 -67 46 C-67.568 46.217 -68.137 46.433 -68.723 46.656 C-73.56 48.4 -77.801 49.832 -83 49 C-84.949 47.07 -84.949 47.07 -86 44 C-85.126 40.556 -83.554 37.526 -81.938 34.375 C-81.528 33.516 -81.119 32.658 -80.697 31.773 C-78.106 26.516 -76.13 23.28 -70.512 20.983 C-69.58 20.682 -68.648 20.381 -67.688 20.071 C-66.094 19.55 -66.094 19.55 -64.469 19.018 C-63.324 18.653 -62.179 18.287 -61 17.91 C-59.813 17.524 -58.627 17.139 -57.404 16.741 C-54.247 15.716 -51.089 14.698 -47.929 13.683 C-44.754 12.662 -41.582 11.632 -38.41 10.604 C-34.822 9.44 -31.233 8.278 -27.643 7.121 C-26.555 6.77 -25.468 6.42 -24.348 6.059 C-23.295 5.721 -22.242 5.384 -21.157 5.036 C-19.007 4.33 -16.864 3.6 -14.73 2.848 C-13.16 2.298 -13.16 2.298 -11.559 1.736 C-10.632 1.403 -9.706 1.07 -8.752 0.727 C-5.69 -0.082 -3.153 -0.255 0 0 Z " fill="#F9F9F9" transform="translate(421,41)"/>
<path d="M0 0 C2.31 0.66 4.62 1.32 7 2 C7.924 6.653 8.108 11.117 8.022 15.841 C8.012 16.603 8.003 17.365 7.993 18.149 C7.96 20.649 7.919 23.149 7.879 25.648 C7.855 27.389 7.831 29.129 7.807 30.869 C7.745 35.436 7.676 40.003 7.605 44.57 C7.522 50.056 7.447 55.543 7.37 61.03 C7.253 69.353 7.125 77.677 7 86 C7.33 70.49 7.66 54.98 8 39 C8.66 38.67 9.32 38.34 10 38 C10 40.97 10 43.94 10 47 C11.32 47 12.64 47 14 47 C14 51.95 14 56.9 14 62 C14.99 61.67 15.98 61.34 17 61 C19.355 60.78 21.714 60.609 24.074 60.465 C24.758 60.422 25.442 60.379 26.146 60.335 C28.327 60.198 30.507 60.068 32.688 59.938 C34.167 59.846 35.647 59.754 37.127 59.662 C40.751 59.437 44.375 59.217 48 59 C48 60.32 48 61.64 48 63 C49.034 62.892 49.034 62.892 50.09 62.781 C56.096 62.188 61.966 61.901 68 62 C67.34 65.3 66.68 68.6 66 72 C56.43 72.99 46.86 73.98 37 75 C34.03 82.425 34.03 82.425 31 90 C33.454 89.691 35.909 89.381 38.438 89.062 C47.275 87.987 56.11 87.423 65 87 C64.67 88.65 64.34 90.3 64 92 C51.632 93.719 39.515 95.218 27 95 C27.17 94.464 27.34 93.928 27.516 93.375 C30.003 85.33 32.001 77.177 34 69 C33.221 71.338 32.543 73.64 31.914 76.02 C31.705 76.795 31.496 77.57 31.281 78.369 C30.847 79.985 30.417 81.602 29.992 83.221 C28.766 87.739 27.554 92.024 25 96 C23.055 96.805 23.055 96.805 20.875 96.875 C20.09 96.912 19.305 96.95 18.496 96.988 C17.672 96.992 16.849 96.996 16 97 C15.145 97.014 14.291 97.028 13.41 97.043 C11.273 97.06 9.136 97.034 7 97 C7 95.35 7 93.7 7 92 C6.34 93.98 5.68 95.96 5 98 C2.03 98 -0.94 98 -4 98 C-3.505 98.495 -3.505 98.495 -3 99 C-1.334 98.946 0.329 98.815 1.988 98.655 C3.053 98.554 4.119 98.454 5.217 98.351 C6.38 98.236 7.544 98.122 8.742 98.004 C9.935 97.892 11.129 97.779 12.358 97.663 C16.198 97.301 20.036 96.933 23.875 96.562 C28.893 96.079 33.911 95.602 38.93 95.129 C40.073 95.016 41.216 94.904 42.394 94.788 C49.287 94.139 56.077 93.859 63 94 C64.446 96.892 63.674 98.909 63.125 102.062 C62.942 103.147 62.759 104.231 62.57 105.348 C62 108 62 108 61 109 C58.143 109.401 55.304 109.751 52.438 110.062 C49.653 110.372 46.869 110.681 44 111 C52.415 110.505 52.415 110.505 61 110 C59.973 116.475 58.832 122.858 57.375 129.25 C55.51 137.91 55.501 143.823 59 152 C59.33 152.99 59.66 153.98 60 155 C60.66 155.33 61.32 155.66 62 156 C60.124 157.876 56.969 157.564 54.448 157.848 C53.421 157.965 53.421 157.965 52.374 158.085 C50.099 158.343 47.823 158.596 45.547 158.848 C43.968 159.025 42.39 159.203 40.812 159.381 C37.496 159.755 34.181 160.125 30.865 160.493 C26.619 160.965 22.375 161.443 18.131 161.923 C14.867 162.291 11.604 162.657 8.34 163.021 C6.776 163.197 5.211 163.372 3.647 163.549 C1.455 163.796 -0.738 164.039 -2.931 164.281 C-4.178 164.421 -5.425 164.56 -6.71 164.703 C-9.501 164.955 -12.201 165.061 -15 165 C-14.346 163.213 -14.346 163.213 -13.68 161.391 C-8.405 146.521 -5.061 131.462 -2 116 C3.94 115.01 3.94 115.01 10 114 C4.06 114.495 4.06 114.495 -2 115 C-2.33 111.37 -2.66 107.74 -3 104 C-3.66 104 -4.32 104 -5 104 C-4.67 104.969 -4.34 105.939 -4 106.938 C-1.553 115.721 -3.605 123.99 -5.688 132.625 C-5.956 133.767 -6.225 134.909 -6.502 136.085 C-8.545 144.57 -10.95 152.822 -14 161 C-14.66 161 -15.32 161 -16 161 C-16 161.33 -16 161.66 -16 162 C-16 163.32 -16 164.64 -16 166 C-15.018 165.874 -14.035 165.748 -13.023 165.618 C-3.745 164.432 5.538 163.282 14.826 162.169 C19.6 161.595 24.372 161.009 29.141 160.393 C33.748 159.798 38.358 159.238 42.972 158.7 C44.727 158.49 46.481 158.267 48.233 158.032 C63.688 155.972 63.688 155.972 69.387 159.835 C70.008 160.39 70.629 160.945 71.268 161.517 C73.215 163.184 74.716 163.67 77.188 164.25 C81.946 165.802 83.244 169.414 85.504 173.621 C88.728 178.748 94.326 180.495 100 182 C102.666 182.421 105.314 182.722 108 183 C108 183.33 108 183.66 108 184 C106.774 184.154 105.548 184.308 104.285 184.467 C92.594 185.935 80.904 187.406 69.214 188.878 C63.207 189.634 57.201 190.39 51.194 191.144 C13.568 195.855 13.568 195.855 -24 201 C-24.93 194.347 -24.93 194.347 -25.207 192.358 C-25.588 189.631 -25.97 186.904 -26.353 184.178 C-26.612 182.331 -26.869 180.484 -27.125 178.637 C-27.293 177.437 -27.46 176.238 -27.633 175.003 C-28.198 170.385 -27.929 168.618 -25.375 164.812 C-17.996 152.815 -14.307 138.588 -11 125 C-10.785 124.144 -10.569 123.289 -10.347 122.407 C-5.008 100.585 -4.315 78.232 -3.151 55.889 C-3.004 53.075 -2.853 50.261 -2.7 47.448 C-2.158 37.471 -2.158 37.471 -1.646 27.493 C-1.189 18.321 -0.642 9.161 0 0 Z " fill="#FEFEFE" transform="translate(66,169)"/>
<path d="M0 0 C0 1.65 0 3.3 0 5 C0.825 4.835 1.65 4.67 2.5 4.5 C6.413 3.941 10.052 3.932 14 4 C12.085 9.936 9.982 15.753 7.645 21.535 C7.338 22.299 7.032 23.063 6.716 23.851 C5.75 26.256 4.782 28.659 3.812 31.062 C3.151 32.708 2.491 34.353 1.83 35.998 C0.223 40 -1.388 44 -3 48 C-6.465 48.495 -6.465 48.495 -10 49 C-8.02 49 -6.04 49 -4 49 C-7.465 56.425 -7.465 56.425 -11 64 C-17.27 64.33 -23.54 64.66 -30 65 C-30 63.68 -30 62.36 -30 61 C-30.568 61.061 -31.136 61.121 -31.721 61.184 C-42.51 62.318 -53.14 63.363 -64 63 C-64.027 61.229 -64.046 59.458 -64.062 57.688 C-64.074 56.701 -64.086 55.715 -64.098 54.699 C-64 52 -64 52 -63 49 C-64.65 49 -66.3 49 -68 49 C-67.67 40.09 -67.34 31.18 -67 22 C-65.68 21.67 -64.36 21.34 -63 21 C-62.67 16.71 -62.34 12.42 -62 8 C-51.11 7.34 -40.22 6.68 -29 6 C-28.67 4.35 -28.34 2.7 -28 1 C-18.66 -0.205 -9.398 -0.092 0 0 Z " fill="#FBFBFB" transform="translate(145,166)"/>
<path d="M0 0 C20.314 15.665 33.791 37.157 37.551 62.863 C39.999 88.769 33.818 113.188 17.617 133.836 C2.55 151.559 -17.939 163.806 -41.133 167.211 C-70.062 168.983 -94.978 163.767 -117.133 144.211 C-130.629 132.122 -140.996 114.981 -145.133 97.211 C-145.156 95.544 -145.159 93.877 -145.133 92.211 C-154.951 93.704 -164.646 95.715 -174.361 97.756 C-177.215 98.355 -180.07 98.951 -182.924 99.546 C-191.032 101.236 -199.139 102.931 -207.244 104.63 C-212.224 105.674 -217.205 106.713 -222.186 107.75 C-224.077 108.144 -225.968 108.54 -227.859 108.939 C-230.495 109.494 -233.132 110.043 -235.769 110.59 C-236.546 110.756 -237.323 110.921 -238.123 111.091 C-241.846 111.857 -245.327 112.406 -249.133 112.211 C-246.593 109.671 -244.144 108.804 -240.828 107.402 C-240.174 107.124 -239.519 106.845 -238.845 106.558 C-237.41 105.949 -235.974 105.341 -234.537 104.735 C-231.418 103.419 -228.304 102.093 -225.19 100.767 C-223.512 100.053 -221.834 99.34 -220.155 98.627 C-210.729 94.621 -201.325 90.566 -191.922 86.505 C-189.145 85.306 -186.367 84.108 -183.588 82.91 C-181.821 82.147 -180.053 81.384 -178.285 80.621 C-177.435 80.255 -176.585 79.888 -175.71 79.51 C-171.435 77.661 -167.174 75.786 -162.93 73.867 C-162.102 73.493 -161.273 73.119 -160.42 72.734 C-158.854 72.026 -157.291 71.313 -155.73 70.594 C-150.464 68.211 -150.464 68.211 -147.133 68.211 C-147.107 67.663 -147.081 67.115 -147.055 66.551 C-145.294 41.935 -132.612 20.709 -114.883 4.086 C-82.693 -23.402 -34.201 -24.191 0 0 Z M-122.68 15.379 C-138.687 33.859 -146.451 58.168 -144.857 82.446 C-142.681 107.756 -130.34 129.71 -111.133 146.211 C-107.612 148.859 -103.991 151.09 -100.133 153.211 C-99.223 153.732 -98.313 154.252 -97.375 154.789 C-76.845 165.865 -52.573 168.475 -30.133 162.211 C-6.268 154.635 13.209 139.698 25 117.513 C35.542 97.007 38.864 72.225 32.184 49.902 C23.4 25.273 8.788 5.864 -15.16 -5.797 C-53.075 -23.449 -93.694 -14.291 -122.68 15.379 Z " fill="#000000" transform="translate(457.1328125,35.7890625)"/>
<path d="M0 0 C1.757 5.272 1.6 10.854 1.875 16.375 C1.96 17.607 2.045 18.84 2.133 20.109 C2.564 29.139 2.564 29.139 -0.035 33.109 C-3.38 35.242 -6.732 37.178 -10.312 38.875 C-11.011 39.215 -11.71 39.555 -12.429 39.906 C-18.57 42.867 -24.81 45.593 -31.07 48.289 C-34.891 49.94 -38.669 51.672 -42.438 53.438 C-43.039 53.718 -43.64 53.998 -44.259 54.287 C-47.726 55.912 -51.174 57.571 -54.613 59.254 C-55.772 59.815 -55.772 59.815 -56.953 60.387 C-58.458 61.116 -59.959 61.853 -61.455 62.599 C-66.663 65.112 -66.663 65.112 -70 64 C-70.103 62.804 -70.206 61.608 -70.312 60.375 C-70.896 54.885 -72.178 49.594 -73.477 44.234 C-74.116 40.282 -73.782 37.564 -72 34 C-72.66 34.99 -73.32 35.98 -74 37 C-74.66 36.67 -75.32 36.34 -76 36 C-71.886 28.473 -71.886 28.473 -68.188 26.5 C-67.466 26.335 -66.744 26.17 -66 26 C-66 26.66 -66 27.32 -66 28 C-65.366 27.671 -64.732 27.343 -64.078 27.004 C-57.049 23.422 -49.928 20.109 -42.722 16.903 C-37.812 14.718 -32.916 12.507 -28.039 10.252 C-25.213 8.946 -22.383 7.647 -19.553 6.349 C-18.145 5.701 -16.739 5.049 -15.334 4.394 C-13.35 3.47 -11.361 2.558 -9.371 1.648 C-8.215 1.114 -7.06 0.579 -5.869 0.029 C-3 -1 -3 -1 0 0 Z " fill="#FEFEFE" transform="translate(473,105)"/>
<path d="M0 0 C-1.114 0.103 -2.228 0.206 -3.375 0.312 C-4.571 0.539 -5.767 0.766 -7 1 C-9.136 4.204 -9.231 5.019 -9.125 8.688 C-9.107 9.496 -9.089 10.304 -9.07 11.137 C-9.047 11.752 -9.024 12.366 -9 13 C-9.66 13 -10.32 13 -11 13 C-11.271 13.701 -11.541 14.403 -11.82 15.125 C-13.06 18.147 -14.456 21.059 -15.875 24 C-23.352 40.179 -24.171 54.545 -24 72 C-24.306 71.325 -24.611 70.649 -24.926 69.953 C-26.762 67.813 -26.762 67.813 -28.935 67.857 C-31.375 68.059 -33.768 68.376 -36.188 68.75 C-37.032 68.863 -37.877 68.977 -38.748 69.094 C-40.835 69.377 -42.918 69.686 -45 70 C-45.029 73.667 -45.047 77.333 -45.062 81 C-45.071 82.03 -45.079 83.06 -45.088 84.121 C-45.106 89.844 -44.953 95.351 -44 101 C-43.67 101.33 -43.34 101.66 -43 102 C-41.332 101.875 -39.669 101.674 -38.012 101.441 C-36.995 101.303 -35.979 101.164 -34.932 101.021 C-33.861 100.87 -32.791 100.719 -31.688 100.562 C-29.588 100.27 -27.487 99.979 -25.387 99.691 C-24.45 99.559 -23.514 99.427 -22.55 99.291 C-20 99 -20 99 -16 99 C-15.505 97.515 -15.505 97.515 -15 96 C-14.67 97.65 -14.34 99.3 -14 101 C-34.532 103.191 -34.532 103.191 -44 104 C-43.236 105.92 -42.464 107.836 -41.688 109.75 C-41.258 110.817 -40.829 111.885 -40.387 112.984 C-38.984 116.315 -38.984 116.315 -36 120 C-34.02 114.39 -32.04 108.78 -30 103 C-28.5 107.501 -30.638 111.111 -32.262 115.375 C-33.695 119.35 -34.556 122.009 -33 126 C-31.516 128.465 -29.848 130.761 -28.125 133.062 C-27.678 133.674 -27.23 134.286 -26.77 134.916 C-25.522 136.618 -24.264 138.311 -23 140 C-22.399 140.803 -21.799 141.606 -21.18 142.434 C-20.596 143.209 -20.596 143.209 -20 144 C-17.793 137.52 -15.762 130.999 -13.812 124.438 C-13.54 123.524 -13.267 122.611 -12.986 121.67 C-12.323 119.447 -11.661 117.224 -11 115 C-9.77 118.689 -10.387 120.109 -11.469 123.805 C-11.954 125.516 -11.954 125.516 -12.449 127.262 C-13.148 129.663 -13.848 132.064 -14.551 134.465 C-15.036 136.18 -15.036 136.18 -15.531 137.93 C-15.836 138.974 -16.141 140.018 -16.455 141.093 C-17.028 144.15 -16.897 146.043 -16 149 C-14.632 150.982 -14.632 150.982 -12.938 152.688 C-10 155.805 -10 155.805 -10 158 C-9.34 158 -8.68 158 -8 158 C-5 161.462 -5 161.462 -5 164 C-4.34 164 -3.68 164 -3 164 C-1.055 166.082 -1.055 166.082 1.125 168.812 C1.849 169.706 2.574 170.599 3.32 171.52 C5 174 5 174 5 177 C1.3 175.767 0.453 174.362 -1.938 171.312 C-4.989 167.48 -8.084 163.722 -11.309 160.035 C-37.821 129.665 -50.972 104.175 -48.375 63.25 C-46.98 43.651 -43.583 24.301 -40 5 C-41.65 5 -43.3 5 -45 5 C-45.33 4.34 -45.66 3.68 -46 3 C-39.772 2.236 -33.542 1.489 -27.311 0.754 C-25.19 0.502 -23.07 0.245 -20.95 -0.015 C-17.908 -0.387 -14.864 -0.746 -11.82 -1.102 C-10.868 -1.221 -9.916 -1.341 -8.935 -1.464 C-8.054 -1.565 -7.174 -1.665 -6.266 -1.768 C-5.489 -1.861 -4.712 -1.955 -3.911 -2.051 C-2 -2 -2 -2 0 0 Z " fill="#000000" transform="translate(479,223)"/>
<path d="M0 0 C6.049 2.119 11.718 4.768 17.312 7.875 C18.464 8.512 19.615 9.149 20.801 9.805 C24.45 12.309 26.53 14.341 29 18 C29.02 20.723 28.267 21.659 26.609 23.781 C15.71 33.856 -0.494 34.394 -14.562 36.312 C-15.599 36.457 -16.636 36.601 -17.705 36.75 C-35.111 39.175 -52.546 41.379 -69.995 43.465 C-72.595 43.777 -75.195 44.091 -77.794 44.408 C-101.265 47.258 -101.265 47.258 -112.379 47.332 C-113.08 47.339 -113.781 47.347 -114.503 47.354 C-120.326 47.275 -125.516 45.803 -130 42 C-130.698 40.683 -131.369 39.351 -132 38 C-131.271 38.229 -130.541 38.458 -129.789 38.694 C-122.12 40.886 -116.051 41.121 -108.211 39.938 C-106.575 39.718 -106.575 39.718 -104.907 39.495 C-101.393 39.018 -97.884 38.51 -94.375 38 C-91.944 37.663 -89.513 37.327 -87.081 36.993 C-81.125 36.169 -75.173 35.32 -69.222 34.461 C-65.449 33.921 -61.674 33.399 -57.897 32.881 C-29.411 30.907 -29.411 30.907 -5.492 18.324 C-1.483 12.792 -0.744 6.661 0 0 Z " fill="#FFFFFF" transform="translate(181,355)"/>
<path d="M0 0 C4.388 4.032 6.913 10.096 9.688 15.312 C10.237 16.336 10.786 17.36 11.353 18.415 C12.896 21.295 14.435 24.179 15.97 27.064 C17.063 29.118 18.156 31.17 19.25 33.223 C23.054 40.361 26.852 47.503 30.641 54.648 C30.966 55.262 31.292 55.875 31.627 56.508 C32.769 58.663 33.909 60.818 35 63 C39.08 61.698 39.08 61.698 43 60 C48.014 59.622 51.009 59.862 55 63 C56.031 66.547 55.91 70.163 55.96 73.847 C56.005 76.277 56.115 78.701 56.223 81.129 C56.276 82.919 56.327 84.71 56.375 86.5 C56.413 87.36 56.452 88.221 56.491 89.107 C56.542 93.053 56.428 95.334 54.262 98.703 C49.291 102.204 43.941 104.691 38.438 107.25 C37.216 107.826 35.996 108.404 34.775 108.981 C26.167 113.044 17.514 117.006 8.809 120.855 C5.364 122.38 1.946 123.952 -1.465 125.551 C-2.37 125.971 -3.275 126.391 -4.207 126.823 C-5.936 127.626 -7.661 128.438 -9.381 129.259 C-17.524 133.014 -17.524 133.014 -22 132 C-26.458 127.765 -29.045 122.562 -31.812 117.125 C-32.2 116.38 -32.587 115.635 -32.986 114.867 C-35.243 110.506 -37.442 106.118 -39.631 101.722 C-43.234 94.489 -46.894 87.286 -50.594 80.102 C-51.075 79.165 -51.557 78.229 -52.053 77.264 C-54.047 73.389 -56.04 69.515 -58.04 65.644 C-59.52 62.777 -60.995 59.908 -62.469 57.039 C-62.925 56.159 -63.381 55.279 -63.851 54.372 C-64.266 53.563 -64.68 52.754 -65.107 51.92 C-65.474 51.209 -65.841 50.498 -66.219 49.765 C-67 48 -67 48 -67 46 C-67.568 46.217 -68.137 46.433 -68.723 46.656 C-73.56 48.4 -77.801 49.832 -83 49 C-84.949 47.07 -84.949 47.07 -86 44 C-85.126 40.556 -83.554 37.526 -81.938 34.375 C-81.528 33.516 -81.119 32.658 -80.697 31.773 C-78.106 26.516 -76.13 23.28 -70.512 20.983 C-69.58 20.682 -68.648 20.381 -67.688 20.071 C-66.094 19.55 -66.094 19.55 -64.469 19.018 C-63.324 18.653 -62.179 18.287 -61 17.91 C-59.813 17.524 -58.627 17.139 -57.404 16.741 C-54.247 15.716 -51.089 14.698 -47.929 13.683 C-44.754 12.662 -41.582 11.632 -38.41 10.604 C-34.822 9.44 -31.233 8.278 -27.643 7.121 C-26.555 6.77 -25.468 6.42 -24.348 6.059 C-23.295 5.721 -22.242 5.384 -21.157 5.036 C-19.007 4.33 -16.864 3.6 -14.73 2.848 C-13.16 2.298 -13.16 2.298 -11.559 1.736 C-10.632 1.403 -9.706 1.07 -8.752 0.727 C-5.69 -0.082 -3.153 -0.255 0 0 Z M-11.164 4.238 C-11.897 4.475 -12.629 4.712 -13.384 4.956 C-15.799 5.738 -18.212 6.525 -20.625 7.312 C-21.444 7.579 -22.264 7.845 -23.108 8.12 C-39.807 13.55 -56.42 19.22 -73 25 C-72.67 25.99 -72.34 26.98 -72 28 C-72.99 27.67 -73.98 27.34 -75 27 C-75.66 28.98 -76.32 30.96 -77 33 C-75.35 33 -73.7 33 -72 33 C-67.932 40.53 -63.922 48.079 -60.125 55.75 C-57.172 61.715 -54.116 67.618 -51 73.5 C-45.829 83.269 -40.877 93.137 -36.008 103.059 C-31.651 111.901 -26.993 120.501 -22 129 C-21.01 129 -20.02 129 -19 129 C-17.892 125.675 -18.155 123.378 -19 120 C-19.66 121.32 -20.32 122.64 -21 124 C-21.33 124 -21.66 124 -22 124 C-24.125 119.375 -24.125 119.375 -23 116 C-23.662 112.698 -24.539 109.48 -25.406 106.227 C-26.156 102.15 -25.825 99.607 -23.941 95.938 C-21.315 92.247 -18.934 89.676 -14.812 87.723 C-13.93 87.301 -13.047 86.88 -12.137 86.446 C-11.102 85.969 -10.067 85.492 -9 85 C-8.4 84.722 -7.8 84.445 -7.181 84.158 C-2.278 81.893 2.641 79.663 7.562 77.438 C9.031 76.772 10.499 76.106 11.967 75.439 C18.966 72.265 25.971 69.107 33 66 C31.369 60.153 28.495 55.144 25.562 49.875 C25.032 48.912 24.501 47.948 23.955 46.956 C22.308 43.968 20.655 40.983 19 38 C17.039 34.46 15.081 30.918 13.125 27.375 C12.668 26.55 12.211 25.725 11.74 24.875 C8.742 19.435 5.93 13.949 3.316 8.312 C1.844 5.726 0.254 3.936 -2 2 C-5.21 2 -8.138 3.251 -11.164 4.238 Z M44.547 64.816 C43.632 65.244 42.718 65.672 41.776 66.113 C40.278 66.831 40.278 66.831 38.75 67.562 C36.588 68.577 34.425 69.59 32.262 70.602 C31.098 71.148 29.935 71.695 28.736 72.259 C22.72 75.073 16.66 77.792 10.604 80.518 C8.602 81.42 6.6 82.323 4.599 83.227 C-1.925 86.172 -8.455 89.102 -15 92 C-14.67 91.34 -14.34 90.68 -14 90 C-16.934 90.671 -18.619 91.496 -20.445 93.914 C-21.684 95.917 -22.871 97.933 -24 100 C-23.34 100.33 -22.68 100.66 -22 101 C-21.01 99.68 -20.02 98.36 -19 97 C-19.509 97.706 -20.018 98.413 -20.543 99.141 C-22.301 102.59 -22.089 104.01 -21.312 107.75 C-21.105 108.799 -20.897 109.849 -20.684 110.93 C-19.934 114.298 -19.158 117.659 -18.375 121.02 C-17.868 123.699 -17.861 126.284 -18 129 C-14.284 128.388 -11.214 127.331 -7.809 125.734 C-6.288 125.027 -6.288 125.027 -4.736 124.305 C-3.648 123.792 -2.559 123.279 -1.438 122.75 C-0.304 122.221 0.83 121.692 1.998 121.146 C4.415 120.018 6.831 118.888 9.247 117.755 C13.022 115.987 16.805 114.236 20.59 112.488 C22.456 111.626 24.322 110.763 26.189 109.9 C27.953 109.084 29.718 108.269 31.483 107.454 C34.661 105.981 37.831 104.493 41 103 C41.966 102.555 42.931 102.11 43.926 101.652 C44.817 101.229 45.707 100.807 46.625 100.371 C47.789 99.827 47.789 99.827 48.977 99.271 C51.416 97.738 52.606 96.531 54 94 C54.338 91.048 54.338 91.048 54.109 87.809 C54.059 86.617 54.009 85.425 53.957 84.197 C53.889 82.957 53.82 81.716 53.75 80.438 C53.697 79.193 53.644 77.948 53.59 76.666 C53.391 70.23 53.391 70.23 52 64 C48.388 62.796 47.872 63.234 44.547 64.816 Z " fill="#0C0C0C" transform="translate(421,41)"/>
<path d="M0 0 C6.689 3.452 9.216 7.745 11.75 14.562 C12.048 15.317 12.347 16.072 12.654 16.85 C13.967 20.213 15.066 23.497 15.938 27 C16.664 28.781 17.417 30.55 18.188 32.312 C20.247 37.196 22.106 42.11 23.812 47.125 C24.04 47.776 24.267 48.428 24.501 49.099 C25.04 50.714 25.496 52.356 25.938 54 C25.442 54.99 25.442 54.99 24.938 56 C24.106 55.658 24.106 55.658 23.258 55.309 C22.533 55.021 21.809 54.734 21.062 54.438 C20.343 54.147 19.624 53.857 18.883 53.559 C16.881 52.746 16.881 52.746 14.938 54 C14.453 53.25 13.968 52.5 13.469 51.727 C8.955 44.834 4.21 38.338 -1.062 32 C-0.402 31.34 0.257 30.68 0.938 30 C0.227 29.945 -0.483 29.889 -1.215 29.832 C-4.982 28.731 -7.024 26.476 -9.625 23.688 C-10.094 23.201 -10.562 22.714 -11.045 22.213 C-12.39 20.815 -13.727 19.407 -15.062 18 C-16.391 16.662 -17.723 15.327 -19.062 14 C-16.098 8.071 -11.34 3.872 -5.375 1.062 C-2.062 0 -2.062 0 0 0 Z " fill="#F9F9F9" transform="translate(269.0625,223)"/>
<path d="M0 0 C2.64 0 5.28 0 8 0 C8.392 1.217 8.784 2.434 9.188 3.688 C10.127 6.587 11.153 9.348 12.383 12.141 C15.673 19.729 16.396 24.14 14 32 C12.838 39.62 12.47 47.312 12 55 C10.168 55.342 8.334 55.673 6.5 56 C5.479 56.186 4.458 56.371 3.406 56.562 C-0.457 57.059 -4.108 57.068 -8 57 C-6.966 42.534 -5.527 28.285 -3 14 C-1.02 13.67 0.96 13.34 3 13 C1.35 13 -0.3 13 -2 13 C-1.859 11.395 -1.712 9.791 -1.562 8.188 C-1.481 7.294 -1.4 6.401 -1.316 5.48 C-1 3 -1 3 0 0 Z " fill="#FFFFFF" transform="translate(441,234)"/>
<path d="M0 0 C0.687 2.439 1.273 4.841 1.812 7.312 C3.299 13.746 5.289 19.621 8.047 25.645 C9 28 9 28 9 31 C6.021 31.482 3.042 31.961 0.062 32.438 C-0.768 32.572 -1.599 32.707 -2.455 32.846 C-7.96 33.724 -13.456 34.424 -19 35 C-20.815 27.574 -21.28 20.565 -21.188 12.938 C-21.187 11.894 -21.186 10.851 -21.186 9.775 C-21.141 2.141 -21.141 2.141 -20 1 C-17.044 0.466 -14.048 0.2 -11.062 -0.125 C-10.225 -0.224 -9.388 -0.324 -8.525 -0.426 C-7.724 -0.515 -6.923 -0.604 -6.098 -0.695 C-5.36 -0.778 -4.623 -0.861 -3.864 -0.946 C-2 -1 -2 -1 0 0 Z " fill="#FFFFFF" transform="translate(454,291)"/>
<path d="M0 0 C10.597 2.156 21.082 4.714 31.522 7.531 C32.84 7.885 34.159 8.236 35.479 8.582 C37.354 9.076 39.224 9.586 41.094 10.098 C42.184 10.392 43.274 10.686 44.396 10.989 C47 12 47 12 49 15 C49.516 17.836 49.516 17.836 49 21 C46.939 23.174 45.104 24.84 42.75 26.625 C41.577 27.553 40.405 28.483 39.234 29.414 C38.678 29.85 38.122 30.286 37.549 30.735 C35.559 32.36 33.766 34.138 32 36 C28.785 34.592 26.678 32.897 24.25 30.375 C23.636 29.743 23.023 29.112 22.391 28.461 C21.932 27.979 21.473 27.497 21 27 C21.33 26.34 21.66 25.68 22 25 C23.32 25.33 24.64 25.66 26 26 C24.762 25.629 23.525 25.257 22.25 24.875 C12.57 20.632 5.819 9.463 0 1 C0 0.67 0 0.34 0 0 Z " fill="#F7F7F7" transform="translate(311,193)"/>
<path d="M0 0 C0.99 0 1.98 0 3 0 C3 0.66 3 1.32 3 2 C4.437 2.346 4.437 2.346 5.902 2.699 C16.029 5.169 26.022 7.987 36 11 C36.495 14.465 36.495 14.465 37 18 C36.469 18.231 35.938 18.461 35.391 18.699 C30.863 20.79 27.501 22.498 25 27 C24.175 30.998 24 34.927 24 39 C22.021 39.194 20.042 39.38 18.062 39.562 C16.409 39.719 16.409 39.719 14.723 39.879 C13.375 39.939 13.375 39.939 12 40 C10.33 38.33 10.798 36.224 10.658 33.982 C9.763 21.677 5.054 11.131 0 0 Z " fill="#FFFFFF" transform="translate(211,168)"/>
<path d="M0 0 C1.236 0.277 2.472 0.554 3.746 0.84 C12.237 2.807 20.715 4.831 29.188 6.875 C28.778 7.371 28.368 7.868 27.945 8.379 C24.427 12.815 22.344 16.324 21.188 21.875 C17.145 20.752 13.104 19.627 9.062 18.5 C7.92 18.183 6.778 17.866 5.602 17.539 C4.493 17.23 3.384 16.92 2.242 16.602 C0.718 16.177 0.718 16.177 -0.836 15.745 C-3.856 14.862 -6.834 13.888 -9.812 12.875 C-10.714 8.776 -11.041 6.463 -9.5 2.5 C-6.628 -1.967 -4.843 -1.092 0 0 Z " fill="#FFFFFF" transform="translate(225.8125,155.125)"/>
<path d="M0 0 C1.887 2.266 1.887 2.266 3.688 5.25 C4.289 6.225 4.891 7.199 5.512 8.203 C7.96 12.803 7.96 12.803 8 15 C6.305 17.148 6.305 17.148 3.875 19.375 C0.288 22.761 -2.934 26.143 -6 30 C-8.984 29.67 -10.595 29.386 -12.801 27.285 C-16.175 22.324 -17.937 18.437 -17.512 12.363 C-16.651 8.389 -15.082 5.66 -12 3 C-7.929 0.743 -4.661 0 0 0 Z " fill="#FFFFFF" transform="translate(267,162)"/>
<path d="M0 0 C1.934 2.68 1.934 2.68 3.438 5.875 C3.952 6.924 4.466 7.974 4.996 9.055 C6.053 12.157 5.927 13.009 5 16 C1.565 16.7 -1.873 17.383 -5.312 18.062 C-6.289 18.262 -7.265 18.461 -8.271 18.666 C-9.209 18.85 -10.147 19.033 -11.113 19.223 C-11.977 19.395 -12.841 19.568 -13.732 19.746 C-16 20 -16 20 -19 19 C-19.984 16.672 -19.984 16.672 -20.75 13.75 C-21.013 12.796 -21.276 11.842 -21.547 10.859 C-22.025 7.839 -21.925 5.903 -21 3 C-14.798 -2.875 -7.752 -3.521 0 0 Z " fill="#FFFFFF" transform="translate(203,166)"/>
<path d="M0 0 C-0.909 0.667 -0.909 0.667 -1.836 1.348 C-5.148 3.876 -8.263 6.439 -10.062 10.25 C-11 12 -11 12 -13.125 12.75 C-14.053 12.874 -14.053 12.874 -15 13 C-14.01 13 -13.02 13 -12 13 C-12 13.99 -12 14.98 -12 16 C-17.489 17.12 -20.834 16.792 -26 15 C-25.34 14.34 -24.68 13.68 -24 13 C-25.16 13.035 -25.16 13.035 -26.344 13.07 C-32.633 13.179 -37.983 12.851 -44 11 C-43.67 8.03 -43.34 5.06 -43 2 C-12.667 -0.388 -12.667 -0.388 0 0 Z " fill="#FDFDFD" transform="translate(277,144)"/>
<path d="M0 0 C0.268 0.643 0.536 1.286 0.812 1.949 C3.816 8.875 7.404 15.049 11.523 21.348 C12.011 22.223 12.498 23.098 13 24 C12.67 24.66 12.34 25.32 12 26 C-4.319 26.756 -4.319 26.756 -10 22 C-11.922 18.952 -12.272 16.576 -12.25 13 C-12.255 12.154 -12.26 11.309 -12.266 10.438 C-11.985 7.865 -11.295 6.22 -10 4 C-9.34 4 -8.68 4 -8 4 C-8 3.34 -8 2.68 -8 2 C-4.912 0.235 -3.767 0 0 0 Z " fill="#FFFFFF" transform="translate(249,189)"/>
<path d="M0 0 C0.298 8.965 -2.734 15.086 -7.09 22.617 C-8.655 25.388 -9.917 28.018 -11 31 C-15.203 24.695 -19 16.691 -19 9 C-21.97 9 -24.94 9 -28 9 C-27.67 7.02 -27.34 5.04 -27 3 C-22.896 2.127 -18.782 1.507 -14.625 0.938 C-13.359 0.761 -12.093 0.584 -10.789 0.402 C-7.158 0.017 -3.648 -0.071 0 0 Z " fill="#FFFFFF" transform="translate(469,224)"/>
<path d="M0 0 C0.077 4.557 -0.007 8.536 -1 13 C-22.607 15.181 -22.607 15.181 -32 16 C-33.228 12.317 -32.603 11.37 -31.125 7.875 C-30.756 6.986 -30.388 6.096 -30.008 5.18 C-29 3 -29 3 -28 2 C-26.355 1.772 -24.702 1.605 -23.047 1.465 C-22.035 1.378 -21.023 1.291 -19.98 1.201 C-18.914 1.114 -17.848 1.027 -16.75 0.938 C-15.699 0.847 -14.649 0.756 -13.566 0.662 C-9.028 0.28 -4.557 -0.053 0 0 Z " fill="#FFFFFF" transform="translate(132,242)"/>
<path d="M0 0 C5.527 -0.482 9.071 1.089 13.875 3.5 C14.908 4.001 14.908 4.001 15.961 4.512 C17.646 5.331 19.324 6.164 21 7 C20.159 12.189 18.276 15.911 15 20 C11.417 22.571 9.724 23.037 5.312 22.812 C2 22 2 22 -1 20 C-1.356 18.152 -1.356 18.152 -1.328 15.938 C-1.323 15.141 -1.318 14.344 -1.312 13.523 C-1.292 12.691 -1.271 11.858 -1.25 11 C-1.245 10.167 -1.24 9.335 -1.234 8.477 C-1.155 2.309 -1.155 2.309 0 0 Z " fill="#FFFFFF" transform="translate(95,133)"/>
<path d="M0 0 C0.951 1.823 0.951 1.823 1.754 4.191 C2.051 5.054 2.348 5.917 2.654 6.807 C2.954 7.716 3.254 8.626 3.562 9.562 C3.866 10.445 4.17 11.327 4.482 12.236 C6.249 17.444 7.744 22.647 9 28 C8.374 27.772 7.747 27.544 7.102 27.309 C6.284 27.021 5.467 26.734 4.625 26.438 C3.407 26.002 3.407 26.002 2.164 25.559 C-0.028 24.74 -0.028 24.74 -2 26 C-2.485 25.25 -2.969 24.5 -3.469 23.727 C-7.983 16.834 -12.728 10.338 -18 4 C-14.896 2.319 -11.835 1.26 -8.438 0.312 C-7.487 0.041 -6.537 -0.231 -5.559 -0.512 C-3 -1 -3 -1 0 0 Z " fill="#FFFFFF" transform="translate(286,251)"/>
<path d="M0 0 C0.664 0.349 1.328 0.699 2.012 1.059 C2.895 1.514 3.778 1.969 4.688 2.438 C5.993 3.116 5.993 3.116 7.324 3.809 C23.466 10.996 47.006 6.662 64.181 5.767 C76.805 5.113 89.357 4.731 102 5 C102 5.33 102 5.66 102 6 C92.087 6.588 82.173 7.095 72.25 7.5 C71.25 7.541 70.249 7.582 69.218 7.625 C65.084 7.794 60.95 7.963 56.815 8.125 C53.752 8.246 50.688 8.372 47.625 8.5 C46.686 8.535 45.746 8.571 44.778 8.607 C43.916 8.644 43.053 8.681 42.164 8.719 C41.406 8.749 40.647 8.779 39.866 8.811 C37.909 8.898 37.909 8.898 36 10 C36.99 10.99 36.99 10.99 38 12 C33.6 11.175 29.367 10.092 25 9 C25 15.6 25 22.2 25 29 C28.611 30.806 29.545 31.249 33.25 31.125 C35.106 31.063 35.106 31.063 37 31 C35 33 35 33 31.75 33.375 C28 33 28 33 22 29 C21.505 21.575 21.505 21.575 21 14 C10.77 14.99 0.54 15.98 -10 17 C-8.68 18.32 -7.36 19.64 -6 21 C-6.33 21.66 -6.66 22.32 -7 23 C-7.722 22.175 -8.444 21.35 -9.188 20.5 C-15.266 15.437 -24.802 17.871 -32.125 18.5 C-33.092 18.592 -34.059 18.683 -35.055 18.777 C-39.704 19.129 -44.341 19.083 -49 19 C-49 18.67 -49 18.34 -49 18 C-43.206 17.466 -37.412 16.935 -31.618 16.405 C-29.587 16.219 -27.556 16.032 -25.525 15.845 C-5.861 14.031 -5.861 14.031 3.383 13.395 C4.54 13.314 5.697 13.233 6.889 13.15 C8.951 13.012 11.014 12.885 13.078 12.772 C13.971 12.712 14.865 12.652 15.785 12.59 C16.913 12.526 16.913 12.526 18.063 12.461 C20.468 11.889 21.427 10.862 23 9 C22.01 8.914 21.02 8.827 20 8.738 C12.289 7.958 6.181 7.046 0 2 C0 1.34 0 0.68 0 0 Z " fill="#000000" transform="translate(70,124)"/>
<path d="M0 0 C0.495 1.485 0.495 1.485 1 3 C0.096 3.471 -0.807 3.941 -1.738 4.426 C-2.93 5.054 -4.121 5.683 -5.312 6.312 C-5.907 6.621 -6.502 6.93 -7.115 7.248 C-9.55 8.54 -11.706 9.698 -13.641 11.684 C-15.526 13.51 -16.839 13.596 -19.438 13.75 C-26.614 13.602 -32.004 8.756 -37 4 C-37 3.34 -37 2.68 -37 2 C-24.635 0.726 -12.439 -0.349 0 0 Z " fill="#FFFFFF" transform="translate(266,218)"/>
<path d="M0 0 C4.078 1.359 4.857 3.933 6.688 7.562 C7.039 8.241 7.391 8.919 7.753 9.618 C10.416 14.778 13.002 19.977 15.581 25.179 C24.023 42.155 32.92 58.911 41.775 75.675 C43.122 78.231 44.462 80.791 45.801 83.352 C46.263 84.233 46.724 85.115 47.2 86.023 C48.09 87.723 48.979 89.424 49.866 91.125 C50.262 91.88 50.658 92.636 51.066 93.414 C51.416 94.084 51.767 94.754 52.127 95.444 C52.905 96.995 52.905 96.995 54 98 C54.33 96.35 54.66 94.7 55 93 C55.33 93 55.66 93 56 93 C57.125 98.625 57.125 98.625 56 102 C54.234 101.91 54.234 101.91 52 101 C50.558 98.816 49.396 96.771 48.25 94.438 C47.954 93.861 47.657 93.284 47.352 92.689 C46.217 90.468 45.109 88.235 44 86 C38.555 75.064 33.034 64.171 27.438 53.312 C26.659 51.8 25.88 50.288 25.102 48.776 C17.754 34.507 10.382 20.251 3 6 C1.35 6 -0.3 6 -2 6 C-1.34 4.02 -0.68 2.04 0 0 Z " fill="#FFFFFF" transform="translate(346,68)"/>
<path d="M0 0 C0.66 0 1.32 0 2 0 C2.315 7.833 2.627 15.667 2.938 23.5 C2.984 24.661 3.03 25.823 3.077 27.019 C3.633 41.074 4.154 55.128 4.562 69.188 C4.409 86.265 4.409 86.265 7 103 C4.525 103.495 4.525 103.495 2 104 C2.008 102.969 2.008 102.969 2.016 101.917 C2.148 81.542 1.708 61.214 1.073 40.851 C0.925 36.089 0.783 31.326 0.641 26.564 C0.531 22.874 0.419 19.185 0.305 15.495 C0.265 14.188 0.225 12.88 0.184 11.533 C0.148 10.388 0.113 9.243 0.076 8.064 C0.009 5.374 -0.015 2.69 0 0 Z " fill="#000000" transform="translate(171,47)"/>
<path d="M0 0 C3.3 0 6.6 0 10 0 C10.33 0.66 10.66 1.32 11 2 C10.01 2 9.02 2 8 2 C8.289 2.615 8.578 3.23 8.875 3.863 C9.432 5.076 9.432 5.076 10 6.312 C10.557 7.513 10.557 7.513 11.125 8.738 C12 11 12 11 12 14 C12.66 14 13.32 14 14 14 C14.99 10.37 15.98 6.74 17 3 C16.34 2.67 15.68 2.34 15 2 C15 1.34 15 0.68 15 0 C17.64 0 20.28 0 23 0 C22.67 0.99 22.34 1.98 22 3 C21.34 3 20.68 3 20 3 C19.83 3.534 19.66 4.067 19.484 4.617 C17.565 10.517 15.359 16.263 13 22 C12.01 22 11.02 22 10 22 C9.768 21.43 9.536 20.859 9.297 20.272 C8.247 17.699 7.186 15.131 6.125 12.562 C5.76 11.665 5.395 10.767 5.02 9.842 C4.665 8.988 4.311 8.134 3.945 7.254 C3.621 6.463 3.296 5.672 2.961 4.858 C2.141 2.825 2.141 2.825 0 2 C0 1.34 0 0.68 0 0 Z " fill="#000000" transform="translate(13,17)"/>
<path d="M0 0 C0.577 0.784 1.155 1.567 1.75 2.375 C4.813 5.948 7.551 6.591 12 8 C12 8.33 12 8.66 12 9 C1.605 9.495 1.605 9.495 -9 10 C-13 2 -13 2 -13 0 C-11.585 -0.197 -10.168 -0.382 -8.75 -0.562 C-7.961 -0.667 -7.172 -0.771 -6.359 -0.879 C-3.943 -1.003 -2.263 -0.844 0 0 Z " fill="#FFFFFF" transform="translate(236,209)"/>
<path d="M0 0 C1.008 3.142 0.959 5.127 0.109 8.301 C-0.106 9.114 -0.321 9.926 -0.543 10.764 C-0.776 11.605 -1.01 12.446 -1.25 13.312 C-1.577 14.557 -1.577 14.557 -1.91 15.826 C-3.268 20.855 -4.909 25.12 -7 30 C4.88 29.01 16.76 28.02 29 27 C29 27.66 29 28.32 29 29 C-4.165 31.97 -4.165 31.97 -38 35 C-38 34.34 -38 33.68 -38 33 C-33.545 32.505 -33.545 32.505 -29 32 C-28.67 30.02 -28.34 28.04 -28 26 C-26 28 -26 28 -26 31 C-20.39 31 -14.78 31 -9 31 C-6.771 24.581 -4.961 18.167 -3.375 11.562 C-2.947 9.792 -2.518 8.023 -2.086 6.254 C-1.901 5.484 -1.716 4.714 -1.525 3.92 C-1 2 -1 2 0 0 Z " fill="#010101" transform="translate(100,234)"/>
<path d="M0 0 C3.229 0.21 6.043 0.648 9 2 C10.871 4.794 11.39 7.726 12 11 C12.201 11.929 12.402 12.859 12.609 13.816 C13.112 16.206 13.573 18.596 14 21 C8.595 17.98 6.331 14.872 3.625 9.375 C3.271 8.694 2.916 8.014 2.551 7.312 C0 2.329 0 2.329 0 0 Z " fill="#FFFFFF" transform="translate(286,278)"/>
<path d="M0 0 C5.423 2.049 5.423 2.049 7.066 4.758 C7.786 6.476 8.401 8.236 9 10 C6.381 12.619 4.475 13.224 0.875 13.25 C-3 13 -3 13 -5 12 C-3.689 7.766 -2.056 3.926 0 0 Z " fill="#EEEEEE" transform="translate(343,74)"/>
<path d="M0 0 C0.99 0 1.98 0 3 0 C3 6.6 3 13.2 3 20 C1.68 20 0.36 20 -1 20 C-1 15.38 -1 10.76 -1 6 C-2.65 6 -4.3 6 -6 6 C-6 5.01 -6 4.02 -6 3 C-5.196 2.691 -4.391 2.381 -3.562 2.062 C-1.109 1.237 -1.109 1.237 0 0 Z " fill="#000000" transform="translate(171,18)"/>
<path d="M0 0 C-3.222 2.148 -4.561 2.342 -8.324 2.633 C-9.866 2.758 -9.866 2.758 -11.439 2.887 C-13.047 3.005 -13.047 3.005 -14.688 3.125 C-15.771 3.211 -16.854 3.298 -17.971 3.387 C-20.647 3.599 -23.323 3.803 -26 4 C-26.697 5.621 -27.382 7.247 -28.062 8.875 C-28.637 10.232 -28.637 10.232 -29.223 11.617 C-30.302 13.981 -30.302 13.981 -29 16 C-28.25 15.928 -27.5 15.856 -26.727 15.781 C-20.127 15.183 -13.625 14.868 -7 15 C-7 15.33 -7 15.66 -7 16 C-10.395 16.337 -13.791 16.669 -17.188 17 C-18.147 17.095 -19.107 17.191 -20.096 17.289 C-21.027 17.379 -21.958 17.47 -22.918 17.562 C-23.772 17.646 -24.625 17.73 -25.505 17.816 C-28.013 18.001 -30.486 18.031 -33 18 C-32.57 16.456 -32.13 14.915 -31.688 13.375 C-31.444 12.516 -31.2 11.658 -30.949 10.773 C-30.636 9.858 -30.323 8.943 -30 8 C-29.683 6.928 -29.366 5.855 -29.039 4.75 C-27 2 -27 2 -24.887 1.338 C-22.147 0.952 -19.451 0.756 -16.688 0.625 C-15.281 0.523 -15.281 0.523 -13.846 0.418 C-9.227 0.099 -4.631 -0.078 0 0 Z " fill="#000000" transform="translate(130,241)"/>
<path d="M0 0 C10.89 0 21.78 0 33 0 C32.67 0.66 32.34 1.32 32 2 C21.554 3.711 10.554 3.108 0 3 C0 2.01 0 1.02 0 0 Z " fill="#000000" transform="translate(178,143)"/>
<path d="M0 0 C2.127 0.785 4.252 1.578 6.375 2.375 C7.558 2.816 8.742 3.257 9.961 3.711 C13 5 13 5 15 7 C13.68 8.32 12.36 9.64 11 11 C7.842 9.602 5.677 7.948 3.25 5.5 C2.636 4.892 2.023 4.283 1.391 3.656 C0 2 0 2 0 0 Z " fill="#FFFFFF" transform="translate(332,218)"/>
<path d="M0 0 C3.861 1.331 6.241 4.088 9 7 C5.7 7.66 2.4 8.32 -1 9 C-1.33 6.36 -1.66 3.72 -2 1 C-1.34 0.67 -0.68 0.34 0 0 Z " fill="#FFFFFF" transform="translate(334,365)"/>
<path d="M0 0 C0.598 0.227 1.196 0.454 1.812 0.688 C2.04 3.491 2.153 5.149 0.625 7.562 C-1.188 8.688 -1.188 8.688 -3.875 8.375 C-4.638 8.148 -5.401 7.921 -6.188 7.688 C-5.82 4.971 -5.46 3.077 -3.875 0.812 C-2.188 -0.312 -2.188 -0.312 0 0 Z " fill="#000000" transform="translate(440.1875,127.3125)"/>
<path d="M0 0 C0.99 0.33 1.98 0.66 3 1 C2.34 4.63 1.68 8.26 1 12 C-0.32 11.67 -1.64 11.34 -3 11 C-3.326 6.325 -2.706 3.833 0 0 Z " fill="#FFFFFF" transform="translate(213,154)"/>
<path d="M0 0 C0.33 0 0.66 0 1 0 C1.159 1.002 1.317 2.003 1.48 3.035 C2.736 10.371 3.87 16.316 9 22 C8.34 22.99 7.68 23.98 7 25 C2.928 19.718 1.304 15.026 0.125 8.562 C-0.007 7.84 -0.139 7.117 -0.275 6.373 C-0.572 4.59 -0.793 2.795 -1 1 C-0.67 0.67 -0.34 0.34 0 0 Z " fill="#050505" transform="translate(42,371)"/>
<path d="M0 0 C5.94 1.485 5.94 1.485 12 3 C8.313 5.458 5.303 6.012 1 7 C0.67 4.69 0.34 2.38 0 0 Z " fill="#FFFFFF" transform="translate(360,206)"/>
<path d="M0 0 C0.66 0.66 1.32 1.32 2 2 C0.36 2.217 0.36 2.217 -1.312 2.438 C-4.931 2.883 -4.931 2.883 -8 4 C-10.393 4.226 -12.789 4.408 -15.188 4.562 C-17.096 4.688 -17.096 4.688 -19.043 4.816 C-20.019 4.877 -20.995 4.938 -22 5 C-22 4.34 -22 3.68 -22 3 C-18.378 2.44 -14.752 1.905 -11.125 1.375 C-9.576 1.135 -9.576 1.135 -7.996 0.891 C-7.01 0.749 -6.024 0.607 -5.008 0.461 C-4.097 0.325 -3.185 0.189 -2.247 0.048 C-1.505 0.032 -0.764 0.016 0 0 Z " fill="#070707" transform="translate(477,221)"/>
<path d="M0 0 C1.32 0.33 2.64 0.66 4 1 C3.34 3.64 2.68 6.28 2 9 C0.68 8.01 -0.64 7.02 -2 6 C-1.34 4.02 -0.68 2.04 0 0 Z " fill="#FFFFFF" transform="translate(207,155)"/>
<path d="M0 0 C1.65 0.33 3.3 0.66 5 1 C4.34 2.65 3.68 4.3 3 6 C1.68 5.67 0.36 5.34 -1 5 C-0.67 3.35 -0.34 1.7 0 0 Z " fill="#FFFFFF" transform="translate(201,154)"/>
<path d="M0 0 C0.99 0.33 1.98 0.66 3 1 C2.75 2.875 2.75 2.875 2 5 C-0.062 6.25 -0.062 6.25 -2 7 C-1.125 1.125 -1.125 1.125 0 0 Z " fill="#FFFFFF" transform="translate(438,128)"/>
<path d="M0 0 C2 1 2 1 4 3 C2.02 3.99 2.02 3.99 0 5 C0.33 7.31 0.66 9.62 1 12 C-1 10 -1 10 -1.188 6.562 C-1 3 -1 3 0 0 Z " fill="#000000" transform="translate(480,305)"/>
<path d="M0 0 C1.392 4.176 -0.177 6.135 -2 10 C-2.66 8.68 -3.32 7.36 -4 6 C-3.01 5.67 -2.02 5.34 -1 5 C-0.67 3.35 -0.34 1.7 0 0 Z " fill="#000000" transform="translate(490,294)"/>
</svg>
